<?xml version='1.0' encoding='UTF-8'?>
<svg xmlns="http://www.w3.org/2000/svg" xmlns:xlink="http://www.w3.org/1999/xlink" xmlns:inkscape="http://www.inkscape.org/namespaces/inkscape" version="1.1" width="396.600" height="283.500" viewBox="0 0 396.600 283.500"><g fill="#ffffff" transform="scale(10.0) translate(-216.075, -330.195)"><path transform="matrix(1,0,0,-1,0,595.276)" d="M243.6 253.036 244.92 255.556 246.12 253.036Z" fill-rule="evenodd"/><path transform="matrix(1,0,0,-1,0,595.276)" stroke-width=".12" stroke-linecap="butt" stroke-miterlimit="10" stroke-linejoin="miter" fill="none" stroke="#ffffff" d="M244.5 255.5V246.5"/><path transform="matrix(1,0,0,-1,0,595.276)" d="M230.88 262.276 231.6 254.356 236.04 250.516 240.48 254.356 241.2 262.276 236.04 257.956 230.88 262.276ZM240.6 261.076 240.24 258.196 236.04 254.596 231.72 258.196 231.48 261.076 236.04 257.236 240.6 261.076ZM236.04 253.876 240.24 257.476 240 254.596 236.04 251.236 232.08 254.596 231.84 257.476 236.04 253.876Z" fill-rule="evenodd"/><path transform="matrix(1,0,0,-1,0,595.276)" d="M236.04 247.156 231.84 250.636 232.56 242.716 236.04 239.836 239.52 242.716 240.12 250.636 236.04 247.156ZM236.04 246.556 239.52 249.436 239.28 246.556 236.04 243.796 232.8 246.556 232.44 249.436 236.04 246.556ZM236.04 243.196 239.16 245.836 238.92 242.956 236.04 240.436 233.04 242.956 232.8 245.836 236.04 243.196Z" fill-rule="evenodd"/><path transform="matrix(1,0,0,-1,0,595.276)" d="M225.84 253.036 227.16 255.556 228.48 253.036Z" fill-rule="evenodd"/><path transform="matrix(1,0,0,-1,0,595.276)" stroke-width=".12" stroke-linecap="butt" stroke-miterlimit="10" stroke-linejoin="miter" fill="none" stroke="#ffffff" d="M227.5 255.5V246.5"/></g></svg>