<?xml version='1.0' encoding='UTF-8'?>
<svg xmlns="http://www.w3.org/2000/svg" xmlns:xlink="http://www.w3.org/1999/xlink" xmlns:inkscape="http://www.inkscape.org/namespaces/inkscape" version="1.1" width="396.600" height="283.500" viewBox="0 0 396.600 283.500"><g transform="scale(10.0) translate(-561.855, -556.995)"><path transform="matrix(1,0,0,-1,0,595.276)" d="M577.44 25.636C577.44 25.756 577.44 25.756 577.32 25.756V25.636H577.44Z" fill="#ffff00" fill-rule="evenodd"/><path transform="matrix(1,0,0,-1,0,595.276)" d="M588.72 19.276 586.08 18.076 583.92 22.876H578.52L577.68 31.276C577.68 31.516 577.68 31.756 577.8 31.876 577.92 32.116 577.92 32.356 578.16 32.596 578.4 32.956 578.88 33.076 579.24 33.076 579.72 33.196 580.2 33.076 580.56 32.716 580.92 32.356 581.04 31.876 581.04 31.516 581.04 31.036 580.92 30.676 580.56 30.316 580.44 30.076 580.2 29.956 580.08 29.956 579.84 29.836 579.6 29.716 579.36 29.716L579.72 26.716H583.56V25.396H579.84V24.316H584.88L587.16 19.516 588.36 20.116 588.72 19.276Z" fill="#ffff00" fill-rule="evenodd"/><path transform="matrix(1,0,0,-1,0,595.276)" d="M577.44 25.756C576.84 25.396 576.12 24.916 575.64 24.196 575.16 23.476 574.8 22.636 574.68 21.676 574.56 20.716 574.68 19.876 575.04 19.036 575.28 18.196 575.76 17.596 576.36 17.116 576.84 16.516 577.56 16.156 578.4 15.916 579.24 15.556 580.08 15.556 581.04 15.676 582 15.916 582.84 16.276 583.44 16.876 584.16 17.356 584.64 18.076 584.88 18.796L583.92 20.956C583.92 20.476 583.8 19.876 583.44 19.276 583.2 18.676 582.72 18.076 582.12 17.716 581.4 17.356 580.8 17.116 580.08 17.116 579.48 17.116 578.88 17.356 578.4 17.476 577.8 17.716 577.32 18.196 576.96 18.676 576.6 19.156 576.24 19.876 576.24 20.596 576.12 21.316 576.24 22.036 576.48 22.636 576.72 23.236 577.2 23.716 577.56 24.076L577.44 25.756Z" fill="#ffff00" fill-rule="evenodd"/><path transform="matrix(1,0,0,-1,0,595.276)" d="M594.6 11.476H568.8V37.276H594.6V11.476ZM591.96 34.636H571.44V14.116H591.96V34.636Z" fill="#ffff00" fill-rule="evenodd"/></g></svg>