<?xml version='1.0' encoding='UTF-8'?>
<svg xmlns="http://www.w3.org/2000/svg" xmlns:xlink="http://www.w3.org/1999/xlink" xmlns:inkscape="http://www.inkscape.org/namespaces/inkscape" version="1.1" width="396.600" height="283.500" viewBox="0 0 396.600 283.500"><g transform="scale(10.0) translate(-216.075, -386.895)"><defs><clipPath id="clip_14"><path transform="matrix(1,0,0,-1,0,595.276)" d="M0 .046H841.86V595.276H0Z"/></clipPath></defs><path transform="matrix(1,0,0,-1,0,595.276)" d="M236.58 183.616H237.27V183.046H236.58C236.58 182.926 236.58 182.776 236.61 182.626 236.64 182.476 236.64 182.356 236.7 182.206 236.76 182.296 236.79 182.386 236.85 182.506 236.91 182.596 236.94 182.686 237 182.776H237.27C237.15 182.476 237 182.146 236.79 181.876 236.82 181.816 236.85 181.756 236.88 181.696 236.91 181.636 236.91 181.576 236.94 181.546L237.06 181.966H237.36L237.06 180.856C236.97 180.976 236.88 181.096 236.82 181.246 236.73 181.366 236.67 181.486 236.61 181.636 236.52 181.546 236.43 181.456 236.37 181.366 236.28 181.306 236.19 181.216 236.1 181.126V181.486C236.22 181.636 236.37 181.786 236.49 181.936 236.43 182.116 236.37 182.296 236.34 182.476 236.31 182.686 236.31 182.866 236.31 183.046H236.1V183.616H236.31V184.576H236.58V183.616Z" fill-rule="evenodd"/><path transform="matrix(1,0,0,-1,0,595.276)" d="M237.36 185.656 237.06 184.576C236.97 184.696 236.88 184.816 236.82 184.936 236.73 185.056 236.67 185.206 236.61 185.326 236.52 185.236 236.43 185.146 236.37 185.086 236.28 184.996 236.19 184.906 236.1 184.846V185.206C236.22 185.326 236.37 185.476 236.49 185.626 236.43 185.806 236.37 185.986 236.34 186.196 236.31 186.376 236.31 186.556 236.31 186.766H236.1V187.306H236.31V188.266H236.58V187.306H237.27V186.766H236.58C236.58 186.616 236.58 186.466 236.61 186.346 236.64 186.196 236.64 186.046 236.7 185.926 236.76 186.016 236.79 186.106 236.85 186.196 236.91 186.286 236.94 186.376 237 186.496H237.27C237.15 186.166 237 185.866 236.79 185.596 236.82 185.536 236.85 185.476 236.88 185.416 236.91 185.356 236.91 185.296 236.94 185.236L237.06 185.656H237.36Z" fill-rule="evenodd"/><path transform="matrix(1,0,0,-1,0,595.276)" d="M235.86 184.576H235.26L235.95 187.186H235.74L235.53 186.496H235.26L235.74 188.266H235.5L234.87 185.926H235.38L234.87 184.006H235.38V180.856H235.59V184.006H235.86V183.796H236.1V184.786H235.86Z" fill-rule="evenodd"/><path transform="matrix(1,0,0,-1,0,595.276)" d="M237.03 188.146V187.456H236.82V188.146Z" fill-rule="evenodd"/><path transform="matrix(1,0,0,-1,0,595.276)" d="M237.03 184.426V183.736H236.82V184.426Z" fill-rule="evenodd"/><path transform="matrix(1,0,0,-1,0,595.276)" d="M235.77 181.426V183.466H235.92V181.426Z" fill-rule="evenodd"/><path transform="matrix(1,0,0,-1,0,595.276)" d="M235.05 181.426V183.466H235.2V181.426Z" fill-rule="evenodd"/><path transform="matrix(1,0,0,-1,0,595.276)" d="M234.24 197.746V198.316H233.7V202.156H233.34V197.746Z" fill-rule="evenodd"/><path transform="matrix(1,0,0,-1,0,595.276)" d="M237.03 197.746 236.37 200.506V197.746H235.98V202.156H236.37L237.03 199.396V202.156H237.42V197.746Z" fill-rule="evenodd"/><path transform="matrix(1,0,0,-1,0,595.276)" d="M238.23 200.236H238.8V199.546H238.23V198.316H238.98V197.746H237.84V202.156H238.98V201.586H238.23Z" fill-rule="evenodd"/><path transform="matrix(1,0,0,-1,0,595.276)" d="M238.17 204.736 238.56 206.116V203.176H238.95V207.586H238.56L238.17 206.176 237.81 207.586H237.42V203.176H237.81V206.116Z" fill-rule="evenodd"/><path transform="matrix(1,0,0,-1,0,595.276)" d="M236.76 203.956H236.22L236.1 203.176H235.74L236.25 207.586H236.7L237.21 203.176H236.85L236.76 203.956ZM236.67 204.586 236.49 206.176 236.28 204.586H236.67Z" fill-rule="evenodd"/><path transform="matrix(1,0,0,-1,0,595.276)" d="M235.23 204.916C235.53 205.186 235.68 205.846 235.62 206.476 235.56 207.136 235.26 207.586 234.96 207.586H234.39V203.176H234.75V204.766H234.84C234.9 204.766 234.93 204.706 234.96 204.676L235.32 203.176H235.65L235.23 204.916ZM234.96 205.486H234.75V206.866H234.93C234.99 206.896 235.08 206.836 235.17 206.716 235.23 206.566 235.29 206.386 235.29 206.236 235.29 206.056 235.26 205.846 235.2 205.696 235.11 205.546 235.02 205.486 234.96 205.486Z" fill-rule="evenodd"/><path transform="matrix(1,0,0,-1,0,595.276)" d="M233.37 206.866H232.98V207.586H234.15V206.866H233.76V203.176H233.37Z" fill-rule="evenodd"/><path transform="matrix(1,0,0,-1,0,595.276)" d="M233.7 193.696H233.37V195.616H234.45V196.156H233.61V196.726H235.59V196.156H234.78V195.616H235.83V193.696H235.5V195.076H234.78V193.696H234.45V195.076H233.7Z" fill-rule="evenodd"/><path transform="matrix(1,0,0,-1,0,595.276)" d="M235.41 194.806H234.87V194.386H235.41Z" fill-rule="evenodd"/><path transform="matrix(1,0,0,-1,0,595.276)" d="M235.41 194.116H234.87V193.696H235.41Z" fill-rule="evenodd"/><path transform="matrix(1,0,0,-1,0,595.276)" d="M233.82 194.116H234.33V193.696H233.82Z" fill-rule="evenodd"/><path transform="matrix(1,0,0,-1,0,595.276)" d="M233.82 194.806H234.33V194.386H233.82Z" fill-rule="evenodd"/><path transform="matrix(1,0,0,-1,0,595.276)" d="M234.78 190.696H235.71V193.156H233.52V190.696H234.45V189.316H235.71V189.856H234.78V190.696ZM234.78 192.616H235.38V192.196H234.78V192.616ZM233.85 192.616H234.45V192.196H233.85V192.616ZM233.85 191.236V191.656H234.45V191.236H233.85ZM234.78 191.236V191.656H235.38V191.236H234.78Z" fill-rule="evenodd"/><path transform="matrix(1,0,0,-1,0,595.276)" d="M237.78 195.496H238.74V196.066H237.78V196.726H237.45V196.066H236.49V195.496H237.45V194.746H236.58V191.476H237.45V190.696H236.4V190.156H237.45V189.316H237.78V190.156H238.86V190.696H237.78V191.476H238.65V194.746H237.78V195.496ZM237.78 194.206H238.32V193.396H237.78V194.206ZM236.91 194.206H237.45V193.396H236.91V194.206ZM236.91 192.826H237.45V192.016H236.91V192.826ZM237.78 192.826H238.32V192.016H237.78V192.826Z" fill-rule="evenodd"/><path transform="matrix(1,0,0,-1,0,595.276)" d="M235.74 197.746H235.35L235.29 198.526H234.84L234.75 197.746H234.36L234.84 202.156H235.26L235.74 197.746ZM235.05 200.566 234.9 199.156H235.2L235.05 200.566Z" fill-rule="evenodd"/></g></svg>