<?xml version='1.0' encoding='UTF-8'?>
<svg xmlns="http://www.w3.org/2000/svg" xmlns:xlink="http://www.w3.org/1999/xlink" xmlns:inkscape="http://www.inkscape.org/namespaces/inkscape" version="1.1" width="396.600" height="283.500" viewBox="0 0 396.600 283.500"><g transform="scale(10.0) translate(-216.075, -415.245)"><path transform="matrix(.12,0,0,.12,0,0)" stroke-width="1" stroke-linecap="butt" stroke-dasharray="12,24" stroke-linejoin="round" fill="none" stroke="#000000" d="M1865 3623H1912"/><path transform="matrix(.12,0,0,.12,0,0)" stroke-width="1" stroke-linecap="butt" stroke-dasharray="12,24" stroke-linejoin="round" fill="none" stroke="#000000" d="M1865 3623H1912"/><path transform="matrix(1,0,0,-1,0,595.276)" d="M251.4 166.756H244.68V165.076H251.4L249.72 163.396H252.24L254.76 165.916 252.24 168.436H249.72Z" fill-rule="evenodd"/><path transform="matrix(1,0,0,-1,0,595.276)" d="M236.16 165.076H233.28C233.4 165.196 233.4 165.436 233.4 165.556 233.4 165.796 233.4 166.036 233.52 166.156H232.8C232.8 166.036 232.8 165.796 232.8 165.556 232.68 165.436 232.68 165.196 232.68 165.076H230.52V164.356H232.44C232.2 163.876 231.96 163.396 231.72 163.036 231.36 162.676 231 162.316 230.52 161.956L230.88 161.476C231.36 161.716 231.72 162.076 232.08 162.436V160.516H232.68V160.756H234.72V160.516H235.44V163.276H232.68C232.8 163.636 233.04 163.996 233.16 164.356H236.16V165.076ZM234.72 162.556V161.476H232.68V162.556H234.72Z" fill-rule="evenodd"/><path transform="matrix(1,0,0,-1,0,595.276)" d="M225.48 165.436H226.68V164.836H224.76V164.356 164.236H224.88 226.08V163.636H224.88C224.76 163.636 224.52 163.756 224.4 163.876 224.28 163.996 224.16 164.236 224.16 164.356V164.836H223.8V165.436H224.88V166.156H225.48V165.436Z" fill-rule="evenodd"/><path transform="matrix(1,0,0,-1,0,595.276)" d="M226.92 162.076H228.84V161.476H226.92V161.116H229.44V160.516H223.8V161.116H226.32V161.476H224.4V162.076H226.32V162.436H224.16V163.036H229.08V162.436H226.92Z" fill-rule="evenodd"/><path transform="matrix(1,0,0,-1,0,595.276)" d="M226.92 165.916H229.2V163.756C229.2 163.516 228.96 163.156 228.6 163.156H227.88V163.756H228.6V163.996H227.28C227.16 163.876 227.04 163.756 227.04 163.636 226.92 163.396 226.8 163.276 226.68 163.156L226.2 163.636C226.44 163.756 226.68 163.996 226.8 164.356 226.92 164.596 226.92 164.956 226.92 165.196V165.916ZM227.52 165.196H228.6V165.556H227.52V165.196ZM227.4 164.476H228.6V164.836H227.52C227.52 164.716 227.4 164.596 227.4 164.476Z" fill-rule="evenodd"/><path transform="matrix(1,0,0,-1,0,595.276)" d="M217.2 171.196H217.8V168.436H219.24V167.836H217.2Z" fill-rule="evenodd"/><path transform="matrix(1,0,0,-1,0,595.276)" d="M227.04 169.516 228.36 171.196H228.96L227.88 169.756 228.96 167.836H228.36L227.52 169.276 227.04 168.556V167.836H226.44V171.196H227.04Z" fill-rule="evenodd"/><path transform="matrix(1,0,0,-1,0,595.276)" d="M233.52 171.196H234V167.836H233.52Z" fill-rule="evenodd"/><path transform="matrix(1,0,0,-1,0,595.276)" d="M236.88 168.916C236.76 168.676 236.52 168.436 236.28 168.436 235.92 168.436 235.68 168.436 235.56 168.676 235.08 169.036 235.08 169.876 235.44 170.356 235.56 170.476 235.8 170.716 236.04 170.716 236.16 170.716 236.4 170.596 236.52 170.596 236.64 170.476 236.64 170.356 236.76 170.236L237.36 170.476C237.12 170.836 236.76 171.076 236.4 171.196 235.92 171.316 235.56 171.196 235.32 170.956 234.96 170.716 234.72 170.356 234.6 169.876 234.6 169.396 234.6 169.036 234.84 168.676 235.08 168.316 235.32 168.076 235.8 167.956 235.92 167.836 236.16 167.836 236.4 167.836 236.52 167.956 236.76 167.956 236.88 168.076V167.836H237.36V169.636H235.92V169.156H236.88V168.916Z" fill-rule="evenodd"/><path transform="matrix(1,0,0,-1,0,595.276)" d="M239.88 169.876V171.196H240.48V167.836H239.88V169.276H238.56V167.836H237.96V171.196H238.56V169.876Z" fill-rule="evenodd"/><path transform="matrix(1,0,0,-1,0,595.276)" d="M242.76 170.716H242.16V167.836H241.68V170.716H241.08V171.196H242.76Z" fill-rule="evenodd"/><path transform="matrix(1,0,0,-1,0,595.276)" d="M232.44 169.276C232.8 169.516 233.04 169.996 232.92 170.476 232.8 170.956 232.32 171.196 231.84 171.196H230.64V167.836H231.24V169.156H231.84L232.32 167.836H232.92L232.44 169.276ZM231.84 169.636H231.24V170.716H231.84C232.2 170.716 232.32 170.476 232.32 170.116 232.32 169.876 232.2 169.636 231.84 169.636Z" fill-rule="evenodd"/><path transform="matrix(1,0,0,-1,0,595.276)" d="M224.52 171.196C224.16 171.196 223.8 171.076 223.56 170.716 223.2 170.356 223.08 169.996 223.08 169.516 223.08 169.156 223.2 168.676 223.56 168.316 223.8 167.956 224.16 167.836 224.52 167.836 224.88 167.836 225.24 167.956 225.48 168.316 225.84 168.676 225.96 169.156 225.96 169.516 225.96 169.996 225.84 170.356 225.48 170.716 225.24 171.076 224.88 171.196 224.52 171.196ZM224.52 170.716C225 170.716 225.36 170.116 225.36 169.516 225.36 169.276 225.24 169.036 225.12 168.796 225 168.556 224.76 168.436 224.52 168.436 224.28 168.436 224.04 168.556 223.92 168.796 223.8 169.036 223.68 169.276 223.68 169.516 223.68 169.756 223.8 170.116 223.92 170.356 224.04 170.596 224.28 170.716 224.52 170.716Z" fill-rule="evenodd"/><path transform="matrix(1,0,0,-1,0,595.276)" d="M221.16 171.196C220.8 171.196 220.44 171.076 220.2 170.716 219.84 170.356 219.72 169.996 219.72 169.516 219.72 169.156 219.84 168.676 220.2 168.316 220.44 167.956 220.8 167.836 221.16 167.836 221.52 167.836 221.88 167.956 222.12 168.316 222.48 168.676 222.6 169.156 222.6 169.516 222.6 169.996 222.48 170.356 222.12 170.716 221.88 171.076 221.52 171.196 221.16 171.196ZM221.16 170.716C221.64 170.716 222 170.116 222 169.516 222 169.276 221.88 169.036 221.76 168.796 221.52 168.556 221.4 168.436 221.16 168.436 220.92 168.436 220.68 168.556 220.56 168.796 220.44 169.036 220.32 169.276 220.32 169.516 220.32 169.756 220.44 170.116 220.56 170.356 220.68 170.596 220.92 170.716 221.16 170.716Z" fill-rule="evenodd"/></g></svg>