<?xml version='1.0' encoding='UTF-8'?>
<svg xmlns="http://www.w3.org/2000/svg" xmlns:xlink="http://www.w3.org/1999/xlink" xmlns:inkscape="http://www.inkscape.org/namespaces/inkscape" version="1.1" width="396.600" height="283.500" viewBox="0 0 396.600 283.500"><g transform="scale(10.0) translate(-216.075, -245.145)"><path transform="matrix(1,0,0,-1,0,595.276)" d="M236.04 348.676 241.2 344.236 240.48 335.836 236.04 339.676 231.48 335.836 230.76 344.236 236.04 348.676ZM240.36 340.876V340.996L240.6 343.996 236.04 347.836 231.48 343.996 231.72 340.996 236.04 344.596 240.36 340.876ZM236.04 340.516 240 337.156 240.24 340.156 236.04 343.756 231.72 340.156 232.08 337.156 236.04 340.516Z" fill-rule="evenodd"/><path transform="matrix(1,0,0,-1,0,595.276)" d="M236.04 335.476 240.36 331.876 239.64 323.476 236.04 326.476 232.44 323.476 231.72 331.876 236.04 335.476ZM236.04 334.636 232.32 331.516 232.56 328.516 236.04 331.396 239.4 328.516 239.64 331.516 236.04 334.636ZM236.04 330.556 232.68 327.796 232.92 324.676 236.04 327.316 239.04 324.676 239.4 327.796 236.04 330.556Z" fill-rule="evenodd"/><path transform="matrix(1,0,0,-1,0,595.276)" d="M228.48 334.036 227.16 331.516 225.84 334.036Z" fill-rule="evenodd"/><path transform="matrix(1,0,0,-1,0,595.276)" stroke-width=".12" stroke-linecap="butt" stroke-miterlimit="10" stroke-linejoin="miter" fill="none" stroke="#000000" d="M227.5 331.5V340.5"/><path transform="matrix(1,0,0,-1,0,595.276)" d="M246.12 334.036 244.92 331.516 243.6 334.036Z" fill-rule="evenodd"/><path transform="matrix(1,0,0,-1,0,595.276)" stroke-width=".12" stroke-linecap="butt" stroke-miterlimit="10" stroke-linejoin="miter" fill="none" stroke="#000000" d="M244.5 331.5V340.5"/></g></svg>