<?xml version='1.0' encoding='UTF-8'?>
<svg xmlns="http://www.w3.org/2000/svg" xmlns:xlink="http://www.w3.org/1999/xlink" xmlns:inkscape="http://www.inkscape.org/namespaces/inkscape" version="1.1" width="396.600" height="283.500" viewBox="0 0 396.600 283.500"><g transform="scale(10.0) translate(-561.855, -386.895)"><path transform="matrix(1,0,0,-1,0,595.276)" d="M582.24 201.676V207.436H582.84V198.196H582.24L580.92 203.956V198.196H580.32V207.436H580.92Z" fill-rule="evenodd"/><path transform="matrix(1,0,0,-1,0,595.276)" d="M583.56 207.436H584.76C585.12 207.436 585.48 207.076 585.72 206.116 585.96 205.156 586.08 203.956 586.08 202.756 586.08 201.556 585.96 200.356 585.72 199.516 585.48 198.676 585.12 198.196 584.76 198.196H583.56V207.436ZM584.16 206.116V199.396H584.76C585 199.396 585.12 199.756 585.24 200.476 585.36 201.076 585.48 202.036 585.48 202.756 585.48 203.596 585.36 204.436 585.24 205.156 585.24 205.516 585.12 205.756 585 205.876 585 206.116 584.88 206.116 584.76 206.116H584.16Z" fill-rule="evenodd"/><path transform="matrix(1,0,0,-1,0,595.276)" d="M578.04 199.756H579.72V198.196H577.44V207.436H579.72V205.876H578.04V203.596H579.36V202.036H578.04Z" fill-rule="evenodd"/><path transform="matrix(1,0,0,-1,0,595.276)" stroke-width=".12" stroke-linecap="round" stroke-linejoin="round" fill="none" stroke="#000000" d="M579.72 191.596 580.32 193.876H579.12L579.72 191.596"/><path transform="matrix(1,0,0,-1,0,595.276)" d="M585.84 183.076H588.12V181.276H582.36V183.076H582.96V189.916H583.92V183.076H584.88V196.756H585.84V191.116H587.76V189.316H585.84Z" fill-rule="evenodd"/><path transform="matrix(1,0,0,-1,0,595.276)" d="M579.72 188.596 579.12 186.196H578.28L579.24 190.036 578.4 193.396 578.04 191.956H577.56L578.76 196.756H579.36L578.88 195.076H581.04V193.876L580.08 190.036 581.04 186.196H580.32L579.72 188.596ZM579.72 191.596 580.32 193.876H579.12L579.72 191.596Z" fill-rule="evenodd"/><path transform="matrix(1,0,0,-1,0,595.276)" d="M580.68 183.796 579.84 185.236H578.88L579.72 183.796Z" fill-rule="evenodd"/><path transform="matrix(1,0,0,-1,0,595.276)" d="M580.68 181.276 579.84 182.716H578.88L579.72 181.276Z" fill-rule="evenodd"/><path transform="matrix(1,0,0,-1,0,595.276)" d="M577.68 182.476V186.796H577.32V182.476Z" fill-rule="evenodd"/><path transform="matrix(1,0,0,-1,0,595.276)" d="M576.96 187.996V181.276H576.48V187.996H575.28L576.36 191.956H575.28L576.6 196.756H577.08L576.12 193.156H576.6L576.96 194.476H577.56L576.12 189.076H577.56V189.556H578.04V187.516H577.56V187.996Z" fill-rule="evenodd"/><path transform="matrix(1,0,0,-1,0,595.276)" d="M575.64 182.476V186.796H576V182.476Z" fill-rule="evenodd"/></g></svg>