<?xml version='1.0' encoding='UTF-8'?>
<svg xmlns="http://www.w3.org/2000/svg" xmlns:xlink="http://www.w3.org/1999/xlink" xmlns:inkscape="http://www.inkscape.org/namespaces/inkscape" version="1.1" width="396.600" height="283.500" viewBox="0 0 396.600 283.500"><g transform="scale(10.0) translate(-43.185, -358.545)"><path transform="matrix(1,0,0,-1,0,595.276)" stroke-width=".12" stroke-linecap="round" stroke-linejoin="round" fill="none" stroke="#000000" d="M60.36 215.956C60.36 217.156 59.4 218.116 58.08 218.116 56.88 218.116 55.8 217.156 55.8 215.956 55.8 214.636 56.88 213.676 58.08 213.676 59.4 213.676 60.36 214.636 60.36 215.956"/><path transform="matrix(1,0,0,-1,0,595.276)" stroke-width=".12" stroke-linecap="round" stroke-linejoin="round" fill="none" stroke="#000000" d="M70.44 215.956C70.44 217.156 69.48 218.116 68.28 218.116 66.96 218.116 66 217.156 66 215.956 66 214.636 66.96 213.676 68.28 213.676 69.48 213.676 70.44 214.636 70.44 215.956"/><path transform="matrix(1,0,0,-1,0,595.276)" stroke-width=".12" stroke-linecap="butt" stroke-miterlimit="10" stroke-linejoin="miter" fill="none" stroke="#000000" d="M51.84 234.076H74.52V211.396H51.84V234.076"/><path transform="matrix(1,0,0,-1,0,595.276)" stroke-width=".12" stroke-linecap="butt" stroke-miterlimit="10" stroke-linejoin="miter" fill="none" stroke="#000000" d="M74.52 211.396 72.12 220.396H54.24L51.84 211.396"/></g></svg>