<?xml version='1.0' encoding='UTF-8'?>
<svg xmlns="http://www.w3.org/2000/svg" xmlns:xlink="http://www.w3.org/1999/xlink" xmlns:inkscape="http://www.inkscape.org/namespaces/inkscape" version="1.1" width="396.600" height="283.500" viewBox="0 0 396.600 283.500"><g transform="scale(10.0) translate(-216.075, -471.945)"><defs><clipPath id="clip_14"><path transform="matrix(1,0,0,-1,0,595.276)" d="M0 .046H841.86V595.276H0Z"/></clipPath></defs><path transform="matrix(1,0,0,-1,0,595.276)" d="M229.02 96.256 235.95 122.146 242.88 96.256 242.58 96.166 235.95 120.886 229.32 96.166Z" fill-rule="evenodd"/><path transform="matrix(1,0,0,-1,0,595.276)" d="M241.47 98.116 232.77 106.816 232.53 105.886 241.89 96.526Z" fill-rule="evenodd"/><path transform="matrix(1,0,0,-1,0,595.276)" d="M233.25 108.616 240.63 101.266 240.21 102.826 233.49 109.516Z" fill-rule="evenodd"/><path transform="matrix(1,0,0,-1,0,595.276)" d="M233.97 111.346 239.34 105.976 238.92 107.566 234.24 112.246Z" fill-rule="evenodd"/><path transform="matrix(1,0,0,-1,0,595.276)" d="M237.66 112.276 238.08 110.716 234.72 114.076 234.96 114.976Z" fill-rule="evenodd"/><path transform="matrix(1,0,0,-1,0,595.276)" d="M226.89 112.336 228.18 114.916 229.44 112.336Z" fill-rule="evenodd"/><path transform="matrix(.03,0,0,.03,0,0)" stroke-width="5" stroke-linecap="round" stroke-linejoin="round" fill="none" stroke="#000000" d="M7606 16012V16317"/><path transform="matrix(1,0,0,-1,0,595.276)" d="M245.07 108.316 243.81 105.766 242.52 108.316Z" fill-rule="evenodd"/><path transform="matrix(.03,0,0,.03,0,0)" stroke-width="5" stroke-linecap="round" stroke-linejoin="round" fill="none" stroke="#000000" d="M8127 16317V16012"/></g></svg>