<?xml version='1.0' encoding='UTF-8'?>
<svg xmlns="http://www.w3.org/2000/svg" xmlns:xlink="http://www.w3.org/1999/xlink" xmlns:inkscape="http://www.inkscape.org/namespaces/inkscape" version="1.1" width="396.600" height="283.500" viewBox="0 0 396.600 283.500"><g transform="scale(10.0) translate(-561.855, -216.795)"><defs><clipPath id="clip_14"><path transform="matrix(1,0,0,-1,0,595.276)" d="M0 .046H841.86V595.276H0Z"/></clipPath></defs><path transform="matrix(1,0,0,-1,0,595.276)" d="M575.37 352.666C575.79 356.386 576.6 360.046 577.83 363.616 578.46 365.386 579.15 367.126 579.96 368.836 580.77 370.516 581.64 372.166 582.63 373.756V375.196L587.52 377.476 582.63 369.016V371.656C581.76 370.126 580.98 368.566 580.29 366.946 579.57 365.356 578.97 363.706 578.43 362.026 577.92 360.316 577.47 358.636 577.11 356.896 576.78 355.186 576.51 353.446 576.36 351.706L575.37 352.666Z" fill-rule="evenodd"/></g></svg>