<?xml version='1.0' encoding='UTF-8'?>
<svg xmlns="http://www.w3.org/2000/svg" xmlns:xlink="http://www.w3.org/1999/xlink" xmlns:inkscape="http://www.inkscape.org/namespaces/inkscape" version="1.1" width="396.600" height="283.500" viewBox="0 0 396.600 283.500"><g transform="scale(10.0) translate(-216.075, -358.545)"><defs><clipPath id="clip_14"><path transform="matrix(1,0,0,-1,0,595.276)" d="M0 .046H841.86V595.276H0Z"/></clipPath></defs><path transform="matrix(1,0,0,-1,0,595.276)" d="M237.6 233.386C237.78 233.326 237.9 233.146 237.93 232.966 237.96 232.876 237.96 232.786 237.96 232.666 237.96 232.546 237.96 232.426 237.93 232.306 237.9 232.216 237.84 232.126 237.75 232.096 237.63 232.066 237.54 232.096 237.48 232.156 237.39 232.216 237.3 232.336 237.27 232.426 237.24 232.486 237.21 232.516 237.21 232.576 237.18 232.606 237.18 232.666 237.15 232.696L236.94 232.186C237 231.946 237.12 231.706 237.33 231.496 237.39 231.406 237.54 231.346 237.66 231.376 237.81 231.376 237.93 231.466 237.99 231.556 238.08 231.706 238.14 231.856 238.2 232.006 238.26 232.276 238.29 232.576 238.29 232.846 238.29 233.056 238.26 233.236 238.2 233.446 238.14 233.716 237.96 233.956 237.69 234.076 237.48 234.166 237.33 234.376 237.3 234.586 237.3 234.646 237.3 234.736 237.3 234.796 237.3 234.916 237.33 235.036 237.39 235.156 237.42 235.216 237.45 235.276 237.54 235.306 237.6 235.306 237.69 235.306 237.72 235.246 237.81 235.216 237.87 235.156 237.9 235.066 237.93 235.036 237.93 235.006 237.96 234.946 237.96 234.916 237.99 234.856 237.99 234.826L238.26 235.306C238.17 235.516 238.05 235.756 237.87 235.936 237.81 235.996 237.72 236.026 237.6 236.026 237.51 236.026 237.39 235.996 237.33 235.936 237.24 235.816 237.15 235.696 237.12 235.546 237.09 235.456 237.06 235.366 237.06 235.276 236.97 234.856 236.97 234.406 237.06 233.986 237.12 233.686 237.33 233.476 237.6 233.386Z" fill-rule="evenodd"/><path transform="matrix(1,0,0,-1,0,595.276)" d="M236.31 233.056C236.31 232.816 236.28 232.606 236.22 232.426 236.16 232.216 236.1 232.156 236.01 232.156 235.95 232.156 235.86 232.216 235.8 232.426 235.77 232.606 235.74 232.816 235.74 233.056V235.936H235.35V233.056C235.35 232.846 235.35 232.636 235.38 232.426 235.44 232.216 235.47 232.036 235.53 231.856 235.68 231.526 235.86 231.376 236.01 231.376 236.19 231.376 236.37 231.526 236.49 231.856 236.55 232.036 236.61 232.216 236.64 232.426 236.67 232.636 236.7 232.846 236.7 233.056V235.936H236.31V233.056Z" fill-rule="evenodd"/><path transform="matrix(1,0,0,-1,0,595.276)" d="M234.84 233.866C235.05 234.226 235.08 234.736 234.99 235.186 234.9 235.636 234.66 235.936 234.39 235.936H233.73V231.526H234.51C234.78 231.526 235.05 231.916 235.14 232.456 235.2 232.996 235.11 233.566 234.84 233.866ZM234.51 233.476C234.57 233.476 234.66 233.416 234.72 233.266 234.75 233.146 234.78 232.966 234.78 232.786 234.78 232.396 234.66 232.096 234.51 232.096H234.12V233.476H234.51ZM234.12 234.046V235.366H234.39C234.45 235.366 234.54 235.306 234.6 235.186 234.66 235.036 234.69 234.856 234.69 234.706 234.69 234.556 234.66 234.376 234.6 234.226 234.54 234.106 234.45 234.046 234.39 234.046H234.12Z" fill-rule="evenodd"/><path transform="matrix(1,0,0,-1,0,595.276)" d="M237.69 222.736H238.68V221.896H237.69V218.476H238.14V217.666H236.76V218.476H237.21V221.896H236.22V222.736H237.21V225.046H237.69Z" fill-rule="evenodd"/><path transform="matrix(1,0,0,-1,0,595.276)" d="M235.68 220.666V225.046H233.19V217.666H235.68V218.896H235.17V218.476H233.7V220.666H235.68ZM233.7 224.236H234.18V221.506H233.7V224.236ZM234.69 224.236H235.17V221.506H234.69V224.236Z" fill-rule="evenodd"/><path transform="matrix(1,0,0,-1,0,595.276)" d="M236.4 211.936H237.12V211.396H236.4C236.4 211.246 236.43 211.126 236.43 210.976 236.46 210.826 236.49 210.706 236.52 210.556 236.58 210.646 236.64 210.736 236.67 210.826 236.73 210.916 236.76 211.036 236.82 211.126H237.12C237 210.796 236.82 210.496 236.64 210.226 236.64 210.166 236.67 210.106 236.7 210.046 236.73 209.986 236.76 209.926 236.79 209.866L236.91 210.316H237.18L236.88 209.206C236.79 209.326 236.7 209.446 236.64 209.566 236.55 209.716 236.49 209.836 236.43 209.986 236.34 209.896 236.28 209.806 236.19 209.716 236.1 209.626 236.01 209.566 235.92 209.476V209.836C236.07 209.986 236.19 210.106 236.31 210.286 236.25 210.466 236.22 210.646 236.19 210.826 236.16 211.006 236.13 211.216 236.13 211.396H235.92V211.936H236.13V212.896H236.4V211.936Z" fill-rule="evenodd"/><path transform="matrix(1,0,0,-1,0,595.276)" d="M237.18 214.006 236.88 212.896C236.79 213.016 236.7 213.166 236.64 213.286 236.55 213.406 236.49 213.556 236.43 213.676 236.34 213.586 236.28 213.496 236.19 213.406 236.1 213.346 236.01 213.256 235.92 213.196V213.556C236.07 213.676 236.19 213.826 236.31 213.976 236.25 214.156 236.22 214.336 236.19 214.546 236.16 214.726 236.13 214.906 236.13 215.116H235.92V215.656H236.13V216.616H236.4V215.656H237.12V215.116H236.4C236.4 214.966 236.43 214.816 236.43 214.666 236.46 214.546 236.49 214.396 236.52 214.246 236.58 214.336 236.64 214.456 236.67 214.546 236.73 214.636 236.79 214.726 236.82 214.816H237.12C237 214.516 236.82 214.216 236.64 213.916 236.64 213.856 236.67 213.826 236.7 213.766 236.73 213.706 236.76 213.646 236.79 213.586L236.91 214.006H237.18Z" fill-rule="evenodd"/><path transform="matrix(1,0,0,-1,0,595.276)" d="M235.71 212.896H235.08L235.77 215.506H235.56L235.38 214.816H235.08L235.56 216.616H235.32L234.72 214.276H235.23L234.72 212.356H235.2V209.206H235.41V212.356H235.71V212.146H235.92V213.136H235.71Z" fill-rule="evenodd"/><path transform="matrix(1,0,0,-1,0,595.276)" d="M236.85 216.466V215.776H236.64V216.466Z" fill-rule="evenodd"/><path transform="matrix(1,0,0,-1,0,595.276)" d="M236.85 212.776V212.086H236.64V212.776Z" fill-rule="evenodd"/><path transform="matrix(1,0,0,-1,0,595.276)" d="M235.59 209.746V211.816H235.74V209.746Z" fill-rule="evenodd"/><path transform="matrix(1,0,0,-1,0,595.276)" d="M234.87 209.746V211.816H235.05V209.746Z" fill-rule="evenodd"/><path transform="matrix(1,0,0,-1,0,595.276)" d="M234.06 226.096V226.666H233.55V230.506H233.16V226.096Z" fill-rule="evenodd"/><path transform="matrix(1,0,0,-1,0,595.276)" d="M236.88 226.096 236.22 228.856V226.096H235.83V230.506H236.22L236.88 227.746V230.506H237.24V226.096Z" fill-rule="evenodd"/><path transform="matrix(1,0,0,-1,0,595.276)" d="M238.05 228.586H238.62V227.896H238.05V226.666H238.83V226.096H237.66V230.506H238.83V229.936H238.05Z" fill-rule="evenodd"/><path transform="matrix(1,0,0,-1,0,595.276)" d="M235.59 226.096H235.2L235.11 226.846H234.66L234.57 226.096H234.18L234.66 230.506H235.11L235.59 226.096ZM234.9 228.916 234.72 227.506H235.05L234.9 228.916Z" fill-rule="evenodd"/></g></svg>