<?xml version='1.0' encoding='UTF-8'?>
<svg xmlns="http://www.w3.org/2000/svg" xmlns:xlink="http://www.w3.org/1999/xlink" xmlns:inkscape="http://www.inkscape.org/namespaces/inkscape" version="1.1" width="396.600" height="283.500" viewBox="0 0 396.600 283.500"><g fill="#ffffff" transform="scale(10.0) translate(-216.075, -273.495)"><path transform="matrix(1,0,0,-1,0,595.276)" d="M241.44 316.156 240.72 307.516 236.04 311.356 231.36 307.516 230.64 316.156 236.04 320.716 241.44 316.156ZM236.04 316.516 240.48 312.796 240.72 315.916 236.04 319.876 231.24 315.916 231.6 312.796 236.04 316.516ZM236.04 315.676 231.6 311.956 231.96 308.836 236.04 312.316 240.12 308.836 240.36 311.956 236.04 315.676Z" fill-rule="evenodd"/><path transform="matrix(1,0,0,-1,0,595.276)" d="M236.04 307.156 240.48 303.316 239.76 294.676 236.04 297.796 232.32 294.676 231.48 303.316 236.04 307.156ZM236.04 306.316 232.2 303.076 232.44 299.956 236.04 302.956 239.52 299.956 239.76 303.076 236.04 306.316ZM236.04 301.996 232.56 299.116 232.8 295.996 236.04 298.636 239.16 295.996 239.52 299.116 236.04 301.996Z" fill-rule="evenodd"/><path transform="matrix(1,0,0,-1,0,595.276)" d="M228.48 305.716 227.16 303.196 225.84 305.716Z" fill-rule="evenodd"/><path transform="matrix(1,0,0,-1,0,595.276)" stroke-width=".12" stroke-linecap="butt" stroke-miterlimit="10" stroke-linejoin="miter" fill="none" stroke="#ffffff" d="M227.5 303.5V312.5"/><path transform="matrix(1,0,0,-1,0,595.276)" d="M246.12 305.716 244.92 303.196 243.6 305.716Z" fill-rule="evenodd"/><path transform="matrix(1,0,0,-1,0,595.276)" stroke-width=".12" stroke-linecap="butt" stroke-miterlimit="10" stroke-linejoin="miter" fill="none" stroke="#ffffff" d="M244.5 303.5V312.5"/></g></svg>