<?xml version='1.0' encoding='UTF-8'?>
<svg xmlns="http://www.w3.org/2000/svg" xmlns:xlink="http://www.w3.org/1999/xlink" xmlns:inkscape="http://www.inkscape.org/namespaces/inkscape" version="1.1" width="396.600" height="283.500" viewBox="0 0 396.600 283.500"><g transform="scale(10.0) translate(-388.965, -273.495)"><defs><clipPath id="clip_14"><path transform="matrix(1,0,0,-1,0,595.276)" d="M0 .046H841.86V595.276H0Z"/></clipPath></defs><path transform="matrix(1,0,0,-1,0,595.276)" d="M409.29 316.606H408.93L408.84 317.326H408.42L408.36 316.606H408L408.45 320.746H408.84L409.29 316.606ZM408.63 319.246 408.51 317.926H408.78L408.63 319.246Z" fill-rule="evenodd"/><path transform="matrix(1,0,0,-1,0,595.276)" d="M407.49 318.256C407.76 318.496 407.91 319.126 407.85 319.726 407.76 320.326 407.52 320.746 407.22 320.746H406.68V316.606H407.04V318.076H407.1C407.16 318.076 407.19 318.046 407.19 318.016L407.55 316.606H407.88L407.49 318.256ZM407.22 318.796H407.04V320.086H407.19C407.25 320.116 407.34 320.056 407.4 319.936 407.49 319.816 407.52 319.636 407.52 319.456 407.52 319.306 407.49 319.126 407.43 318.976 407.37 318.856 407.28 318.796 407.22 318.796Z" fill-rule="evenodd"/><path transform="matrix(1,0,0,-1,0,595.276)" d="M411.15 316.606V317.146H410.64V320.746H410.28V316.606Z" fill-rule="evenodd"/><path transform="matrix(1,0,0,-1,0,595.276)" d="M409.53 320.746H409.89V316.606H409.53Z" fill-rule="evenodd"/><path transform="matrix(.03,0,0,.03,0,0)" stroke-width="5" stroke-linecap="round" stroke-linejoin="round" fill="none" stroke="#000000" d="M13690 9289H13707"/><path transform="matrix(1,0,0,-1,0,595.276)" d="M408 307.306 408.21 308.506 408.03 308.536 407.79 307.306 408.03 306.076 408.21 306.106Z" fill-rule="evenodd"/><path transform="matrix(1,0,0,-1,0,595.276)" d="M408.09 307.306 408.33 308.536 408.51 308.506 408.3 307.306 408.51 306.106 408.33 306.076Z" fill-rule="evenodd"/><path transform="matrix(1,0,0,-1,0,595.276)" d="M407.49 307.306 407.73 308.536 407.91 308.506 407.7 307.306 407.91 306.106 407.73 306.076Z" fill-rule="evenodd"/><path transform="matrix(.03,0,0,.03,0,0)" stroke-width="5" stroke-linecap="round" stroke-linejoin="round" fill="none" stroke="#000000" d="M13709 9750H13710"/><path transform="matrix(1,0,0,-1,0,595.276)" d="M411.27 302.776 411.42 304.846H411.27L411.21 304.216C411.21 304.336 411.21 304.456 411.18 304.576 411.18 304.726 411.15 304.816 411.15 304.936L411.42 306.406H411.27L411.12 305.536C411.09 305.896 411.06 306.226 411.06 306.556 411.06 306.886 411.06 307.246 411.06 307.576H411.42V308.086H411.06V309.736H410.91V308.086H410.49V308.626H410.79V309.166H410.49V309.556H410.28V309.166H410.01V308.626H410.28V308.086H409.95V307.576H410.91C410.91 307.126 410.91 306.706 410.91 306.256 410.94 305.836 410.97 305.386 411 304.966L410.85 304.246V303.406L411.06 304.396C411.09 304.126 411.12 303.856 411.15 303.586 411.18 303.316 411.21 303.046 411.27 302.776Z" fill-rule="evenodd"/><path transform="matrix(1,0,0,-1,0,595.276)" d="M411.33 309.586H411.18V308.236H411.33Z" fill-rule="evenodd"/><path transform="matrix(1,0,0,-1,0,595.276)" d="M410.76 305.896V307.246H410.04V305.896H410.76ZM410.19 306.406V306.706H410.58V306.406H410.19Z" fill-rule="evenodd"/><path transform="matrix(1,0,0,-1,0,595.276)" d="M410.49 304.666H410.76V304.156H410.49V303.766H410.76V303.256H410.04V303.766H410.28V304.156H410.04V304.666H410.28V305.026H410.04V305.566H410.76V305.026H410.49Z" fill-rule="evenodd"/><path transform="matrix(1,0,0,-1,0,595.276)" d="M409.86 306.136V305.626H409.68V303.616L409.92 303.766V303.256L409.2 302.776V303.286L409.47 303.466V305.626H409.29V306.136H409.47V306.916H409.29V307.426H409.86V306.916H409.68V306.136Z" fill-rule="evenodd"/><path transform="matrix(1,0,0,-1,0,595.276)" d="M409.23 303.946H409.41V305.356H409.23Z" fill-rule="evenodd"/><path transform="matrix(1,0,0,-1,0,595.276)" d="M409.74 303.946H409.92V305.356H409.74Z" fill-rule="evenodd"/><path transform="matrix(1,0,0,-1,0,595.276)" d="M409.26 307.516 409.56 308.746 409.68 308.176H409.95L409.71 309.286 409.83 309.676 409.56 309.736 409.11 307.936Z" fill-rule="evenodd"/><path transform="matrix(1,0,0,-1,0,595.276)" d="M406.92 309.136H407.37V308.626H406.92V307.906H407.37V304.816H406.92V304.096H407.43V303.586H406.92V302.776H406.74V303.586H406.26V304.096H406.74V304.816H406.32V307.906H406.74V308.626H406.32V309.136H406.74V309.736H406.92V309.136ZM406.92 307.396V306.616H407.19V307.396H406.92ZM406.5 307.396V306.616H406.74V307.396H406.5ZM406.5 306.106V305.326H406.74V306.106H406.5ZM406.92 306.106V305.326H407.19V306.106H406.92Z" fill-rule="evenodd"/><path transform="matrix(1,0,0,-1,0,595.276)" d="M407.49 308.926H408.51V309.496H407.49Z" fill-rule="evenodd"/><path transform="matrix(1,0,0,-1,0,595.276)" d="M408.12 303.466H408.6V302.896H407.43V303.466H407.91V305.116H407.49V305.686H408.51V305.116H408.12Z" fill-rule="evenodd"/><path transform="matrix(1,0,0,-1,0,595.276)" d="M406.8 312.856C406.98 312.796 407.1 312.646 407.13 312.466 407.16 312.376 407.16 312.286 407.16 312.196 407.16 312.076 407.13 311.956 407.1 311.836 407.1 311.776 407.04 311.686 406.95 311.656 406.83 311.626 406.74 311.656 406.68 311.686 406.62 311.776 406.53 311.866 406.5 311.956 406.47 312.016 406.44 312.046 406.44 312.076 406.41 312.136 406.41 312.166 406.38 312.226L406.17 311.746C406.26 311.506 406.38 311.266 406.56 311.086 406.62 310.996 406.74 310.936 406.89 310.966 407.01 310.966 407.13 311.056 407.19 311.146 407.28 311.266 407.34 311.416 407.37 311.566 407.43 311.836 407.46 312.106 407.46 312.376 407.46 312.556 407.43 312.736 407.37 312.916 407.31 313.186 407.13 313.396 406.89 313.516 406.71 313.606 406.56 313.786 406.53 313.996 406.53 314.056 406.5 314.116 406.53 314.176 406.53 314.296 406.56 314.416 406.62 314.536 406.62 314.596 406.68 314.626 406.74 314.656 406.83 314.686 406.89 314.656 406.92 314.626 407.01 314.566 407.04 314.506 407.1 314.446 407.1 314.416 407.13 314.386 407.13 314.326 407.16 314.296 407.16 314.266 407.19 314.206L407.43 314.656C407.34 314.866 407.22 315.076 407.07 315.256 407.01 315.316 406.92 315.346 406.8 315.346 406.71 315.346 406.62 315.316 406.56 315.256 406.47 315.136 406.41 315.016 406.35 314.896 406.32 314.806 406.32 314.716 406.29 314.626 406.23 314.236 406.23 313.816 406.32 313.426 406.38 313.156 406.56 312.946 406.8 312.856Z" fill-rule="evenodd"/><path transform="matrix(1,0,0,-1,0,595.276)" d="M407.88 314.566H407.52V315.256H408.6V314.566H408.24V311.116H407.88Z" fill-rule="evenodd"/><path transform="matrix(1,0,0,-1,0,595.276)" d="M409.44 310.966C409.62 310.966 409.8 311.206 409.95 311.626 410.07 312.016 410.16 312.586 410.16 313.186 410.16 313.456 410.13 313.726 410.1 313.996 410.07 314.266 410.01 314.536 409.95 314.746 409.8 315.196 409.62 315.406 409.44 315.406 409.26 315.406 409.08 315.166 408.93 314.746 408.81 314.326 408.72 313.756 408.72 313.186 408.72 312.916 408.75 312.646 408.78 312.376 408.81 312.076 408.87 311.836 408.93 311.626 409.08 311.176 409.26 310.966 409.44 310.966ZM409.44 311.626C409.32 311.626 409.2 311.806 409.14 312.076 409.05 312.376 408.99 312.766 408.99 313.186 408.99 313.546 409.05 313.966 409.14 314.266 409.23 314.596 409.35 314.716 409.44 314.716 409.56 314.716 409.68 314.566 409.77 314.266 409.83 313.996 409.89 313.606 409.89 313.186 409.89 313.006 409.89 312.796 409.86 312.616 409.83 312.406 409.8 312.226 409.77 312.076 409.68 311.776 409.56 311.626 409.44 311.626Z" fill-rule="evenodd"/><path transform="matrix(1,0,0,-1,0,595.276)" d="M410.97 312.586C411.15 312.586 411.3 312.736 411.42 312.976 411.51 313.216 411.6 313.576 411.6 313.906 411.6 314.236 411.54 314.596 411.42 314.866 411.27 315.136 411.12 315.256 410.97 315.256H410.43V311.116H410.79V312.586H410.97ZM410.79 314.656H410.97C411 314.656 411.03 314.626 411.06 314.596 411.09 314.566 411.12 314.506 411.15 314.446 411.21 314.296 411.24 314.086 411.24 313.906 411.24 313.726 411.21 313.546 411.15 313.396 411.09 313.246 411.03 313.186 410.97 313.186H410.79V314.656Z" fill-rule="evenodd"/><path transform="matrix(1,0,0,-1,0,595.276)" d="M408.45 301.426V300.046H408.9V299.296H408.69V295.216H408.9V294.436H407.67V295.216H407.88V299.296H407.67V300.046H408.12V301.426H408.45ZM408.18 299.296V295.216H408.39V299.296H408.18Z" fill-rule="evenodd"/><path transform="matrix(1,0,0,-1,0,595.276)" d="M409.65 299.476H410.01V300.256H409.65V301.426H409.35V298.306H408.99V294.436H410.01V298.306H409.65V299.476ZM409.32 297.556H409.71V295.216H409.32V297.556Z" fill-rule="evenodd"/></g></svg>