<?xml version='1.0' encoding='UTF-8'?>
<svg xmlns="http://www.w3.org/2000/svg" xmlns:xlink="http://www.w3.org/1999/xlink" xmlns:inkscape="http://www.inkscape.org/namespaces/inkscape" version="1.1" width="396.600" height="283.500" viewBox="0 0 396.600 283.500"><g transform="scale(10.0) translate(-388.965, -358.545)"><defs><clipPath id="clip_14"><path transform="matrix(1,0,0,-1,0,595.276)" d="M0 .046H841.86V595.276H0Z"/></clipPath></defs><path transform="matrix(.03,0,0,.03,0,0)" stroke-width="5" stroke-linecap="round" stroke-linejoin="round" fill="none" stroke="#000000" d="M13015 12126H14244"/><path transform="matrix(1,0,0,-1,0,595.276)" d="M402.63 214.456 394.02 229.366 397.71 231.496H396.78L393.39 229.516 402.48 213.826 408.33 217.216 410.28 213.826 416.16 217.216 418.11 213.826 424.38 217.426 416.25 231.496H415.74L423.75 217.606 418.29 214.456 409.68 229.366 413.34 231.496H412.44L409.44 229.756 408.45 231.496H407.91L415.92 217.606 410.46 214.456 401.85 229.366 405.51 231.496H404.61L401.61 229.756 400.62 231.496H400.08L408.09 217.606Z" fill-rule="evenodd"/></g></svg>