<?xml version='1.0' encoding='UTF-8'?>
<svg xmlns="http://www.w3.org/2000/svg" xmlns:xlink="http://www.w3.org/1999/xlink" xmlns:inkscape="http://www.inkscape.org/namespaces/inkscape" version="1.1" width="567.000" height="269.280" viewBox="0 0 567.000 269.280"><g transform="scale(10.0) translate(-438.573, -370.368)"><defs><clipPath id="clip_19"><path transform="matrix(0,1,1,0,0,0)" d="M0 74.451H595.008V767.55899H0Z"/></clipPath><clipPath id="clip_20"><path transform="matrix(0,1,1,0,0,0)" d="M0 842.013H595.224V.008972168H0Z"/></clipPath></defs><path transform="matrix(0,1,1,0,479.559,383.958)" d="M0 0C-1.638 0-3.258-.324-4.77-.954-6.3-1.584-7.668-2.502-8.838-3.672-9.99-4.824-10.926-6.21-11.538-7.722-12.168-9.252-12.492-10.872-12.492-12.51-12.492-14.148-12.168-15.786-11.538-17.298-10.926-18.81-9.99-20.196-8.838-21.348-7.668-22.518-6.3-23.436-4.77-24.066-3.258-24.696-1.638-25.02 0-25.02 1.656-25.02 3.276-24.696 4.788-24.066 6.318-23.436 7.686-22.518 8.856-21.348 10.008-20.196 10.926-18.81 11.556-17.298 12.186-15.786 12.51-14.148 12.51-12.51 12.51-10.872 12.186-9.252 11.556-7.722 10.926-6.21 10.008-4.824 8.856-3.672 7.686-2.502 6.318-1.584 4.788-.954 3.276-.324 1.656 0 0 0" fill="#ff0000" fill-rule="evenodd"/><path transform="matrix(0,1,1,0,477.057,383.958)" d="M0 0C-1.314 0-2.61-.27-3.816-.774-5.04-1.278-6.138-1.998-7.074-2.934-7.992-3.87-8.73-4.968-9.234-6.174-9.738-7.398-9.99-8.694-9.99-10.008-9.99-11.322-9.738-12.618-9.234-13.842-8.73-15.048-7.992-16.146-7.074-17.082-6.138-18.018-5.04-18.756-3.816-19.26-2.61-19.764-1.314-20.016 0-20.016 1.314-20.016 2.628-19.764 3.834-19.26 5.058-18.756 6.156-18.018 7.074-17.082 8.01-16.146 8.748-15.048 9.252-13.842 9.756-12.618 10.008-11.322 10.008-10.008 10.008-8.694 9.756-7.398 9.252-6.174 8.748-4.968 8.01-3.87 7.074-2.934 6.156-2.016 5.058-1.278 3.834-.774 2.628-.27 1.314 0 0 0" fill="#ffffff" fill-rule="evenodd"/><path transform="matrix(0,1,1,0,461.091,380.682)" d="M0 0H6.57V-1.332H1.872V-2.34H.666C.666-1.98 .594-1.71 .486-1.512 .378-1.332 .216-1.242 0-1.242V0" fill-rule="evenodd"/><path transform="matrix(0,1,1,0,468.507,383.958)" d="M0 0C-1.152 0-2.034-.234-2.628-.72-3.222-1.206-3.51-1.926-3.51-2.88-3.51-3.852-3.222-4.572-2.628-5.058-2.034-5.526-1.152-5.778 0-5.778 1.17-5.778 2.052-5.526 2.646-5.058 3.222-4.572 3.528-3.852 3.528-2.88 3.528-1.926 3.222-1.206 2.646-.72 2.052-.234 1.17 0 0 0ZM0-1.404C.756-1.404 1.314-1.53 1.692-1.782 2.07-2.016 2.25-2.394 2.25-2.88 2.25-3.87 1.512-4.374 0-4.374-1.494-4.374-2.25-3.87-2.25-2.88-2.25-2.394-2.052-2.016-1.674-1.782-1.296-1.53-.738-1.404 0-1.404" fill-rule="evenodd"/><path transform="matrix(0,1,1,0,475.311,383.958)" d="M0 0C-1.17 0-2.034-.252-2.628-.72-3.222-1.206-3.51-1.926-3.51-2.898-3.51-3.852-3.222-4.572-2.628-5.058-2.034-5.544-1.152-5.778 0-5.778 1.17-5.778 2.052-5.544 2.646-5.058 3.222-4.572 3.528-3.852 3.528-2.898 3.528-1.926 3.222-1.206 2.646-.72 2.052-.252 1.17 0 0 0ZM0-1.404C.756-1.404 1.314-1.53 1.692-1.782 2.07-2.034 2.25-2.394 2.25-2.898 2.25-3.888 1.512-4.374 0-4.374-1.494-4.374-2.25-3.888-2.25-2.898-2.25-2.394-2.052-2.034-1.674-1.782-1.296-1.53-.738-1.404 0-1.404" fill-rule="evenodd"/></g></svg>