<?xml version='1.0' encoding='UTF-8'?>
<svg xmlns="http://www.w3.org/2000/svg" xmlns:xlink="http://www.w3.org/1999/xlink" xmlns:inkscape="http://www.inkscape.org/namespaces/inkscape" version="1.1" width="567.000" height="269.280" viewBox="0 0 567.000 269.280"><g transform="scale(10.0) translate(-329.439, -478.080)"><defs><clipPath id="clip_19"><path transform="matrix(0,1,1,0,0,0)" d="M0 74.451H595.008V767.55899H0Z"/></clipPath><clipPath id="clip_20"><path transform="matrix(0,1,1,0,0,0)" d="M0 842.013H595.224V.008972168H0Z"/></clipPath></defs><path transform="matrix(0,1,1,0,367.923,491.67)" d="M0 0C-1.314 0-2.61-.252-3.816-.756-5.04-1.26-6.138-1.998-7.074-2.934-8.01-3.852-8.748-4.95-9.234-6.174-9.738-7.38-10.008-8.694-10.008-10.008-10.008-11.322-9.738-12.618-9.234-13.842-8.748-15.048-8.01-16.146-7.074-17.082-6.138-18.018-5.04-18.756-3.816-19.242-2.61-19.746-1.314-20.016 0-20.016 1.314-20.016 2.628-19.746 3.834-19.242 5.058-18.756 6.156-18.018 7.092-17.082 8.01-16.146 8.748-15.048 9.252-13.842 9.756-12.618 10.008-11.322 10.008-10.008 10.008-8.694 9.756-7.38 9.252-6.174 8.748-4.95 8.01-3.852 7.092-2.934 6.156-1.998 5.058-1.26 3.834-.756 2.628-.252 1.314 0 0 0" fill="#e1e1e1" fill-rule="evenodd"/><path transform="matrix(0,1,1,0,363.639,495.594)" stroke-width=".288" stroke-linecap="round" stroke-linejoin="round" fill="none" stroke="#000000" d="M0 0V-.918L.738-.306V-2.79H1.476V-.306L2.232-.918V0L1.116 .936 0 0"/><path transform="matrix(0,1,1,0,370.425,491.67)" d="M0 0C-.738 0-1.494-.054-2.268-.198-3.042-.342-3.834-.558-4.608-.864-5.364-1.17-6.12-1.566-6.84-2.034-7.56-2.502-8.226-3.042-8.838-3.654-9.45-4.266-9.99-4.95-10.458-5.652-10.944-6.372-11.322-7.128-11.628-7.902-11.934-8.676-12.15-9.45-12.294-10.224-12.438-10.998-12.51-11.772-12.51-12.51-12.51-13.248-12.438-14.004-12.294-14.778-12.15-15.552-11.934-16.344-11.628-17.118-11.322-17.874-10.944-18.63-10.458-19.35-9.99-20.07-9.45-20.736-8.838-21.348-8.226-21.96-7.56-22.5-6.84-22.986-6.12-23.454-5.364-23.832-4.608-24.138-3.834-24.444-3.042-24.66-2.268-24.804-1.494-24.948-.738-25.02 0-25.02 .378-25.02 .756-25.002 1.134-24.966 1.512-24.93 1.89-24.876 2.286-24.804 3.06-24.66 3.834-24.444 4.608-24.138 5.382-23.832 6.138-23.454 6.858-22.986 7.578-22.5 8.244-21.96 8.856-21.348 9.468-20.736 10.008-20.07 10.476-19.35 10.944-18.63 11.34-17.874 11.646-17.118 11.952-16.344 12.168-15.552 12.312-14.778 12.456-14.004 12.51-13.248 12.51-12.51 12.51-11.772 12.456-10.998 12.312-10.224 12.168-9.45 11.952-8.676 11.646-7.902 11.34-7.128 10.944-6.372 10.476-5.652 10.008-4.95 9.468-4.266 8.856-3.654 8.244-3.042 7.578-2.502 6.858-2.034 6.138-1.566 5.382-1.17 4.608-.864 3.834-.558 3.06-.342 2.286-.198 1.512-.054 .738 0 0 0ZM0-2.502C.594-2.502 1.206-2.556 1.818-2.664 2.448-2.772 3.078-2.952 3.69-3.204 4.302-3.438 4.914-3.744 5.49-4.122 6.048-4.5 6.588-4.932 7.092-5.436 7.578-5.922 8.01-6.462 8.388-7.02 8.766-7.596 9.072-8.208 9.306-8.82 9.558-9.432 9.738-10.062 9.846-10.692 9.954-11.304 10.008-11.916 10.008-12.51 10.008-13.104 9.954-13.698 9.846-14.328 9.738-14.94 9.558-15.57 9.306-16.182 9.072-16.812 8.766-17.406 8.388-17.982 8.01-18.558 7.578-19.098 7.092-19.584 6.588-20.07 6.066-20.502 5.49-20.88 4.914-21.258 4.302-21.564 3.69-21.816 3.078-22.05 2.448-22.23 1.818-22.356 1.206-22.464 .594-22.518 0-22.518-.576-22.518-1.188-22.464-1.818-22.356-2.43-22.23-3.06-22.05-3.672-21.816-4.302-21.564-4.896-21.258-5.472-20.88-6.048-20.502-6.588-20.07-7.074-19.584-7.56-19.098-7.992-18.558-8.37-17.982-8.748-17.406-9.054-16.812-9.306-16.182-9.54-15.57-9.72-14.94-9.828-14.328-9.954-13.698-10.008-13.104-10.008-12.51-10.008-11.916-9.954-11.304-9.828-10.692-9.72-10.062-9.54-9.432-9.306-8.82-9.054-8.208-8.748-7.596-8.37-7.02-7.992-6.462-7.56-5.922-7.074-5.436-6.588-4.932-6.048-4.5-5.472-4.122-4.896-3.744-4.302-3.438-3.672-3.204-3.06-2.952-2.43-2.772-1.818-2.664-1.188-2.556-.594-2.502 0-2.502" fill-rule="evenodd"/><path transform="matrix(0,1,1,0,363.639,495.594)" d="M0 0V-.918L.738-.306V-2.79H1.476V-.306L2.232-.918V0L1.116 .936" fill-rule="evenodd"/><path transform="matrix(0,1,1,0,352.173,495.594)" d="M0 0V.936L.738 .306V2.808H1.476V.306L2.232 .936V0L1.116-.936" fill-rule="evenodd"/><path transform="matrix(0,1,1,0,0,0)" d="M491.31 356.367H492.02998V358.689H491.31Z"/><path transform="matrix(0,1,1,0,351.471,490.14)" stroke-width=".288" stroke-linecap="round" stroke-linejoin="round" fill="none" stroke="#000000" d="M0 0V.018"/><path transform="matrix(0,1,1,0,351.471,490.14)" d="M0 0H-.018V.018C-.036 .018-.054 .018-.054 .018-.072 .018-.09 .018-.108 .018-.144 .036-.162 .036-.198 .054-.27 .072-.324 .108-.396 .144-.504 .234-.594 .342-.666 .45L-2.772 1.908V.72H-4.284V12.78H-.162V4.698H.054V12.96H1.08V11.088C1.134 11.142 1.188 11.178 1.242 11.196 1.296 11.232 1.35 11.25 1.422 11.268 1.548 11.304 1.674 11.322 1.8 11.304 1.602 11.286 1.404 11.178 1.224 11.016 1.062 10.854 .972 10.638 .936 10.44 .918 10.224 .954 10.008 1.062 9.792 1.116 9.702 1.188 9.612 1.26 9.522 1.332 9.45 1.422 9.396 1.53 9.342 1.44 9.36 1.368 9.396 1.278 9.432 1.206 9.468 1.134 9.504 1.08 9.558V4.698H1.962V2.97C1.692 2.97 1.44 2.862 1.242 2.664 1.044 2.466 .936 2.196 .936 1.926 .936 1.656 1.044 1.386 1.242 1.188 1.44 1.008 1.692 .9 1.962 .9V0H0ZM-.54 2.826H-2.538V1.872L-.828 .702C-.774 .666-.702 .648-.648 .684-.576 .72-.54 .774-.54 .846V2.826" fill-rule="evenodd"/><path transform="matrix(0,1,1,0,351.471,490.32)" d="M0 0C-.036 0-.054 0-.09 0-.126 0-.144 0-.18 0H0" fill-rule="evenodd"/><path transform="matrix(0,1,1,0,357.141,500.418)" d="M0 0V-.522H-1.926V0H-1.836C-1.89 .072-1.926 .144-1.944 .216-1.98 .288-1.998 .378-1.998 .45-1.98 .702-1.908 .864-1.728 .972-1.908 1.098-1.998 1.278-1.998 1.512-1.98 1.872-1.818 2.106-1.53 2.214-1.512 2.232-1.494 2.232-1.476 2.232H-1.458C-1.458 2.232-1.476 2.232-1.458 2.232-1.458 2.25-1.44 2.25-1.44 2.25-1.422 2.25-1.404 2.25-1.386 2.25H0V1.728H-1.296C-1.314 1.728-1.332 1.728-1.368 1.71-1.386 1.692-1.404 1.674-1.422 1.656-1.44 1.602-1.458 1.548-1.458 1.476-1.458 1.404-1.44 1.314-1.386 1.242-1.332 1.17-1.26 1.134-1.206 1.134H0V.612H-1.314C-1.404 .594-1.458 .486-1.458 .342-1.458 .27-1.44 .198-1.386 .126-1.332 .054-1.26 .018-1.206 .018H-1.188V0H0" fill-rule="evenodd"/><path transform="matrix(0,1,1,0,357.807,495.018)" d="M0 0C0 .378 .126 .648 .378 .846 .63 1.026 1.008 1.116 1.512 1.116 1.926 1.116 2.286 1.026 2.52 .846 2.754 .666 2.862 .396 2.862 .072 2.862-.126 2.808-.306 2.718-.468 2.664-.54 2.61-.612 2.538-.666 2.448-.738 2.376-.774 2.286-.81L2.052-.342C2.232-.216 2.34-.054 2.34 .09 2.34 .234 2.286 .36 2.196 .432 2.142 .468 2.088 .504 2.016 .522 1.98 .522 1.944 .54 1.908 .54 1.872 .54 1.836 .54 1.782 .54 1.836 .54 1.89 .486 1.926 .378 1.962 .288 1.98 .162 1.98 .018 1.98-.252 1.89-.486 1.728-.666 1.638-.738 1.53-.81 1.422-.846 1.314-.9 1.188-.918 1.062-.918H.99C.702-.918 .45-.828 .288-.648 .108-.486 0-.252 0 0ZM.522 .054C.522-.18 .702-.36 .972-.36 1.098-.36 1.224-.324 1.314-.252 1.404-.162 1.44-.054 1.44 .054 1.44 .306 1.26 .486 .972 .486 .702 .486 .522 .306 .522 .054" fill-rule="evenodd"/><path transform="matrix(0,1,1,0,354.297,492.174)" d="M0 0C-.216 0-.45-.072-.63-.252-.81-.432-.882-.666-.882-.882-.882-1.098-.81-1.332-.63-1.512-.45-1.692-.216-1.782 0-1.782 .216-1.782 .45-1.692 .63-1.512 .81-1.332 .9-1.098 .9-.882 .9-.666 .81-.432 .63-.252 .45-.072 .216 0 0 0ZM0-.414C.252-.414 .468-.63 .468-.882 .468-1.134 .252-1.35 0-1.35-.252-1.35-.468-1.134-.468-.882-.468-.63-.252-.414 0-.414" fill-rule="evenodd"/><path transform="matrix(0,1,1,0,362.649,492.12)" d="M0 0C-.216 0-.45-.09-.63-.27-.81-.45-.882-.684-.882-.9-.882-1.116-.81-1.35-.63-1.53-.45-1.71-.216-1.782 0-1.782 .216-1.782 .45-1.71 .63-1.53 .81-1.35 .882-1.116 .882-.9 .882-.684 .81-.45 .63-.27 .45-.09 .216 0 0 0ZM0-.432C.252-.432 .468-.63 .468-.9 .468-1.152 .252-1.35 0-1.35-.252-1.35-.468-1.152-.468-.9-.468-.63-.252-.432 0-.432" fill-rule="evenodd"/></g></svg>