<?xml version='1.0' encoding='UTF-8'?>
<svg xmlns="http://www.w3.org/2000/svg" xmlns:xlink="http://www.w3.org/1999/xlink" xmlns:inkscape="http://www.inkscape.org/namespaces/inkscape" version="1.1" width="567.000" height="269.280" viewBox="0 0 567.000 269.280"><g transform="scale(10.0) translate(-438.573, -397.296)"><defs><clipPath id="clip_19"><path transform="matrix(0,1,1,0,0,0)" d="M0 74.451H595.008V767.55899H0Z"/></clipPath><clipPath id="clip_20"><path transform="matrix(0,1,1,0,0,0)" d="M0 842.013H595.224V.008972168H0Z"/></clipPath></defs><path transform="matrix(0,1,1,0,479.559,410.886)" d="M0 0C-1.638 0-3.258-.324-4.77-.954-6.3-1.584-7.668-2.502-8.838-3.672-9.99-4.824-10.926-6.21-11.538-7.722-12.168-9.252-12.492-10.872-12.492-12.51-12.492-14.148-12.168-15.786-11.538-17.298-10.926-18.81-9.99-20.196-8.838-21.348-7.668-22.518-6.3-23.436-4.77-24.066-3.258-24.696-1.638-25.02 0-25.02 1.656-25.02 3.276-24.696 4.788-24.066 6.318-23.436 7.686-22.518 8.856-21.348 10.008-20.196 10.926-18.81 11.556-17.298 12.186-15.786 12.51-14.148 12.51-12.51 12.51-10.872 12.186-9.252 11.556-7.722 10.926-6.21 10.008-4.824 8.856-3.672 7.686-2.502 6.318-1.584 4.788-.954 3.276-.324 1.656 0 0 0" fill="#ff0000" fill-rule="evenodd"/><path transform="matrix(0,1,1,0,477.057,410.886)" d="M0 0C-1.314 0-2.61-.27-3.816-.774-5.04-1.278-6.138-1.998-7.074-2.934-7.992-3.87-8.73-4.968-9.234-6.174-9.738-7.398-9.99-8.694-9.99-10.008-9.99-11.322-9.738-12.618-9.234-13.842-8.73-15.048-7.992-16.146-7.074-17.082-6.138-18.018-5.04-18.756-3.816-19.26-2.61-19.764-1.314-20.016 0-20.016 1.314-20.016 2.628-19.764 3.834-19.26 5.058-18.756 6.156-18.018 7.074-17.082 8.01-16.146 8.748-15.048 9.252-13.842 9.756-12.618 10.008-11.322 10.008-10.008 10.008-8.694 9.756-7.398 9.252-6.174 8.748-4.968 8.01-3.87 7.074-2.934 6.156-1.998 5.058-1.278 3.834-.774 2.628-.27 1.314 0 0 0" fill="#ffffff" fill-rule="evenodd"/><path transform="matrix(0,1,1,0,462.441,411.732)" d="M0 0V.432H.396V0H1.134C1.188 0 1.242 .018 1.26 .054 1.296 .09 1.314 .126 1.314 .18 1.332 .216 1.314 .252 1.314 .288 1.314 .324 1.296 .378 1.278 .432L1.656 .504C1.728 .414 1.764 .252 1.764 .018 1.746-.126 1.71-.234 1.638-.306 1.566-.396 1.458-.432 1.314-.45H.396V-.72H0V-.45H-.54L-.684 0H0" fill-rule="evenodd"/><path transform="matrix(0,1,1,0,464.853,412.56)" d="M0 0C-.288 0-.522-.072-.684-.216-.846-.36-.918-.576-.918-.828-.918-1.098-.846-1.296-.684-1.44-.522-1.602-.288-1.656 0-1.656 .288-1.656 .522-1.602 .684-1.44 .846-1.296 .918-1.098 .918-.828 .918-.576 .846-.36 .684-.216 .522-.072 .288 0 0 0ZM0-.504C.288-.504 .45-.612 .45-.828 .45-1.062 .288-1.17 0-1.17-.288-1.17-.45-1.062-.45-.828-.45-.738-.414-.648-.342-.576-.252-.522-.144-.504 0-.504" fill-rule="evenodd"/><path transform="matrix(0,1,1,0,466.689,413.388)" d="M0 0H-1.17C-1.548-.018-1.746-.234-1.746-.666-1.746-.756-1.728-.828-1.71-.882-1.674-.954-1.638-1.008-1.584-1.062H-1.692V-1.53H0V-1.062H-1.044C-1.206-1.026-1.296-.918-1.314-.738-1.296-.576-1.206-.486-1.044-.486H-1.026C-1.026-.486-1.044-.486-1.026-.486H-1.008-.99C-.99-.486-1.008-.486-.99-.486H0V0" fill-rule="evenodd"/><path transform="matrix(0,1,1,0,468.669,413.388)" d="M0 0H-1.17C-1.548-.018-1.746-.234-1.746-.666-1.746-.756-1.728-.828-1.71-.882-1.674-.954-1.638-1.008-1.584-1.062H-1.692V-1.53H0V-1.062H-1.044C-1.206-1.026-1.296-.918-1.314-.738-1.296-.576-1.206-.486-1.044-.486H-1.026C-1.026-.486-1.044-.486-1.026-.486H-1.008-.99C-.99-.486-1.008-.486-.99-.486H0V0" fill-rule="evenodd"/><path transform="matrix(0,1,1,0,470.613,412.722)" d="M0 0C-.342 0-.612-.054-.792-.198-.972-.324-1.062-.522-1.08-.792-1.062-1.26-.774-1.512-.18-1.548 .072-1.548 .27-1.494 .432-1.368 .54-1.278 .612-1.17 .666-1.062 .72-.936 .756-.828 .756-.702 .774-.432 .63-.144 .45-.054L.162-.324C.216-.36 .252-.414 .288-.486 .306-.558 .324-.63 .324-.702 .342-.792 .306-.882 .234-.954 .216-.99 .162-1.026 .126-1.044 .09-1.062 .036-1.062 0-1.062V0ZM-.342-1.098H-.36C-.432-1.08-.504-1.044-.576-.99-.63-.918-.666-.846-.666-.774-.648-.63-.54-.486-.396-.45H-.342V-1.098" fill-rule="evenodd"/><path transform="matrix(0,1,1,0,472.323,412.884)" d="M0 0C-.324 .018-.522-.18-.576-.558-.576-.684-.594-.756-.612-.828-.63-.846-.648-.882-.648-.882-.666-.9-.666-.9-.684-.9H-.702C-.792-.918-.846-.828-.864-.666-.846-.594-.828-.522-.81-.45-.774-.396-.72-.342-.666-.306L-.99-.018C-1.152-.144-1.26-.36-1.278-.648-1.26-1.116-1.062-1.368-.666-1.386-.378-1.35-.198-1.188-.162-.882-.144-.63-.09-.504 .018-.504 .072-.504 .108-.504 .126-.54 .144-.576 .162-.63 .162-.684 .162-.792 .144-.864 .108-.954 .072-1.026 0-1.116-.072-1.17L.252-1.494C.486-1.314 .594-1.044 .594-.702 .594-.27 .378 0 0 0" fill-rule="evenodd"/><path transform="matrix(0,1,1,0,464.115,407.682)" d="M0 0V2.034H1.134V-2.178H0C-1.602 .288-2.16 .81-2.682 .918H-2.88C-3.348 .846-3.618 .54-3.672 .036-3.672-.306-3.564-.576-3.384-.774-3.186-.954-2.898-1.044-2.52-1.044V-2.286C-3.294-2.286-3.906-2.106-4.302-1.692-4.716-1.296-4.914-.702-4.914 .036-4.914 1.404-4.212 2.178-2.898 2.232H-2.718C-1.746 2.142-.846 1.386 0 0" fill-rule="evenodd"/><path transform="matrix(0,1,1,0,469.551,409.014)" d="M0 0C0 1.44-.63 2.196-1.818 2.196-2.484 2.196-2.97 1.998-3.204 1.62-3.528 1.944-3.96 2.124-4.41 2.124-4.986 2.124-5.454 1.926-5.778 1.53-6.102 1.152-6.246 .576-6.246-.108-6.246-.414-6.21-.72-6.12-1.008-6.03-1.278-5.904-1.53-5.742-1.746-5.562-1.944-5.346-2.106-5.112-2.214-4.878-2.304-4.626-2.358-4.374-2.358L-4.266-1.134C-4.482-1.134-4.68-1.044-4.842-.864-4.986-.684-5.076-.432-5.094-.162-5.112-.054-5.112 .054-5.076 .144-4.968 .63-4.734 .882-4.41 .864-4.068 .846-3.852 .666-3.744 .378V-.45H-2.682V.378C-2.682 .414-2.664 .486-2.628 .54-2.592 .612-2.538 .666-2.484 .738-2.34 .864-2.178 .9-2.07 .9-1.548 .918-1.26 .63-1.224 .036-1.224-.306-1.296-.612-1.44-.81-1.602-1.026-1.818-1.134-2.07-1.134L-1.89-2.412C-1.314-2.394-.828-2.16-.504-1.746-.162-1.314 0-.72 0 0" fill-rule="evenodd"/><path transform="matrix(0,1,1,0,464.097,415.8)" d="M0 0-.036-.27 .324-.378 .648-.558 .936-.81 1.206-1.134 1.44-.828 1.17-.522 .882-.252 .54-.054 .162 .072 .108 .162 .072 .18 .018 .126" fill-rule="evenodd"/><path transform="matrix(0,1,1,0,464.673,416.628)" d="M0 0-.126-.252 .756-.558 1.512-.9 1.53-1.422 1.872-1.368 1.98-1.314 2.034-1.278 2.016-1.224 1.926-1.188 1.674 1.008 2.016 1.206 1.818 1.548 1.494 1.386 1.188 1.17 .882 .936 .576 .666 .792 .396 1.368 .846 1.476-.504 .216 .054 .18 .144 .126 .162 .072 .126" fill-rule="evenodd"/><path transform="matrix(0,1,1,0,464.205,415.368)" d="M0 0 .324 .018V.81L.702 .9 1.08 1.116 1.476 1.476 1.854 1.962 1.62 2.322 1.44 2.052C1.087 1.605 .814 1.324 .234 1.206L0 1.17" fill-rule="evenodd"/><path transform="matrix(0,1,1,0,467.679,415.692)" d="M0 0H2.394V.288H1.926V.522H2.124V.828H0V0ZM1.602 .288H.306V.52200999H1.602Z" fill-rule="evenodd"/><path transform="matrix(0,1,1,0,469.047,415.242)" d="M0 0H.648L.738-.486 .99-.27 .918 0H2.214V-.162H1.35L1.332-.09H1.296L1.278-.144 1.242-.234 1.224-.414H2.772V-.162H2.502V0H2.952L3.096-.018 3.204 .018 3.258 .144 3.294 .306V.504L3.24 .666 3.15 .756 3.024 .81H2.862L2.754 .558H2.88L2.952 .54 3.006 .486 3.024 .432V.378L3.006 .288 2.88 .27H2.502V.414H2.592V.666H1.368L1.332 .738 1.296 .756 1.26 .702 1.242 .576 1.206 .414H2.214V.27H.846L.702 .648 .72 .72 .702 .756H.666L.594 .72 .432 .54 .558 .27H.144L.09 .324H.054L.036 .288 .018 .198" fill-rule="evenodd"/><path transform="matrix(0,1,1,0,469.785,415.368)" d="M0 0H.288V.504L.612 .378V.09H2.484V.36L2.862 .234 3.168 .054 3.294 .324 2.97 .504 2.61 .648 2.484 .414V.954L2.646 .756 2.97 .936 3.276 1.062 3.114 1.314 2.79 1.152 2.484 .99V1.206H.612V.702L.288 .828V1.314H0V0ZM1.674 .396H1.42199V.93597999H1.674ZM1.152 .396H.90001997V.93597999H1.152ZM2.214 .396H1.9620199V.93597999H2.214Z" fill-rule="evenodd"/></g></svg>