<?xml version='1.0' encoding='UTF-8'?>
<svg xmlns="http://www.w3.org/2000/svg" xmlns:xlink="http://www.w3.org/1999/xlink" xmlns:inkscape="http://www.inkscape.org/namespaces/inkscape" version="1.1" width="567.000" height="269.280" viewBox="0 0 567.000 269.280"><g transform="scale(10.0) translate(-220.305, -101.088)"><defs><clipPath id="clip_19"><path transform="matrix(0,1,1,0,0,0)" d="M0 74.451H595.008V767.55899H0Z"/></clipPath><clipPath id="clip_20"><path transform="matrix(0,1,1,0,0,0)" d="M0 842.013H595.224V.008972168H0Z"/></clipPath></defs><path transform="matrix(0,1,1,0,229.431,127.386)" d="M0 0V38.718C0 38.97-.036 39.222-.144 39.474-.234 39.726-.396 39.96-.594 40.158-.792 40.356-1.026 40.518-1.278 40.608-1.53 40.716-1.782 40.752-2.034 40.752H-23.364C-23.598 40.752-23.868 40.716-24.12 40.608-24.372 40.518-24.606 40.356-24.804 40.158-25.002 39.96-25.164 39.726-25.254 39.474-25.362 39.222-25.398 38.97-25.398 38.718V0C-25.398-.234-25.362-.486-25.254-.738-25.164-1.008-25.002-1.242-24.804-1.44-24.606-1.638-24.372-1.782-24.12-1.89-23.868-1.98-23.598-2.034-23.364-2.034H-2.034C-1.782-2.034-1.53-1.98-1.278-1.89-1.026-1.782-.792-1.638-.594-1.44-.396-1.242-.234-1.008-.144-.738-.036-.486 0-.234 0 0" fill="#ffffff" fill-rule="evenodd"/><path transform="matrix(0,1,1,0,229.431,102.996)" d="M0 0V38.718C0 38.844 .036 38.97 .072 39.096 .126 39.222 .198 39.348 .306 39.438 .414 39.546 .522 39.618 .648 39.672 .774 39.708 .9 39.744 1.026 39.744H22.356C22.482 39.744 22.608 39.708 22.734 39.672 22.86 39.618 22.986 39.546 23.076 39.438 23.184 39.348 23.256 39.222 23.31 39.096 23.364 38.97 23.382 38.844 23.382 38.718V0C23.382-.126 23.364-.252 23.31-.378 23.256-.504 23.184-.612 23.076-.72 22.986-.81 22.86-.9 22.734-.936 22.608-.99 22.482-1.008 22.356-1.008H1.026C.9-1.008 .774-.99 .648-.936 .522-.9 .414-.81 .306-.72 .198-.612 .126-.504 .072-.378 .036-.252 0-.126 0 0" fill="#0000ff" fill-rule="evenodd"/><path transform="matrix(0,1,1,0,0,0)" d="M104.346 248.097H125.046009V249.429H104.346Z" fill="#ffffff"/><path transform="matrix(0,1,1,0,0,0)" d="M103.986 258.789H109.35V259.815H103.986Z" fill="#ffffff"/><path transform="matrix(0,1,1,0,0,0)" d="M112.014 258.789H117.36V259.815H112.014Z" fill="#ffffff"/><path transform="matrix(0,1,1,0,0,0)" d="M120.042 258.789H125.388V259.815H120.042Z" fill="#ffffff"/><path transform="matrix(0,1,1,0,267.159,118.692)" d="M0 0H-2.664L-.882-1.782H-10.692V-3.564H-.882L-2.664-5.346H0L2.682-2.664" fill="#ffffff" fill-rule="evenodd"/><path transform="matrix(0,1,1,0,256.791,110.682)" d="M0 0H2.664L.882-1.782H10.692V-3.564H.882L2.664-5.346H0L-2.682-2.682" fill="#ffffff" fill-rule="evenodd"/><path transform="matrix(0,1,1,0,240.591,106.848)" d="M0 0H2.34L.774-1.548H7.02V-3.114H.774L2.34-4.68H0L-2.34-2.34" fill="#ffffff" fill-rule="evenodd"/><path transform="matrix(0,1,1,0,236.793,116.352)" d="M0 0C-.054 .144-.144 .234-.27 .288-.342 .306-.414 .324-.486 .324-.702 .324-.936 .216-1.08 .072-1.242-.108-1.296-.342-1.278-.648V-1.656H1.53V-.522C1.53-.288 1.494-.018 1.332 .18 1.17 .36 .918 .468 .666 .486 .558 .486 .432 .468 .324 .432 .18 .36 .072 .216 0 0ZM-.126-1.17H-.846V-.522C-.846-.324-.684-.162-.486-.162-.288-.162-.126-.324-.126-.522V-1.17ZM1.116-.522V-1.17H.234V-.522C.234-.234 .432 0 .666 0 .774 0 .9-.036 .99-.144 1.08-.252 1.116-.396 1.116-.522" fill="#ffffff" fill-rule="evenodd"/><path transform="matrix(0,1,1,0,238.701,117.918)" d="M0 0C0-.198-.072-.396-.216-.558-.378-.738-.576-.81-.756-.828H-2.034V-.378H-.738C-.666-.378-.576-.342-.504-.252-.432-.18-.396-.09-.396 0-.396 .09-.432 .18-.504 .27-.576 .342-.666 .378-.738 .378H-2.034V.828H-.036V.378H-.144C-.09 .324-.054 .27-.036 .198 0 .144 0 .072 0 0" fill="#ffffff" fill-rule="evenodd"/><path transform="matrix(0,1,1,0,240.627,116.568)" d="M0 0C.036 .072 .036 .144 .036 .216 .036 .234 .036 .252 .036 .27V.288L.054 .324V.342C.072 .594 .234 .828 .468 .954 .558 1.008 .666 1.026 .756 1.008 .9 1.008 1.026 .936 1.116 .846 1.278 .648 1.368 .396 1.35 .162 1.35-.162 1.188-.486 .936-.684L.648-.396C.738-.342 .81-.252 .864-.162 .918-.054 .936 .036 .936 .144 .936 .198 .936 .252 .918 .306 .918 .36 .9 .414 .882 .45 .864 .486 .81 .522 .756 .54 .72 .54 .684 .54 .648 .522 .63 .522 .612 .504 .594 .486 .522 .414 .468 .27 .468 .144 .468 .09 .45 .036 .432-.018 .396-.234 .288-.414 .162-.522H.144C.054-.594-.054-.612-.162-.594-.306-.594-.432-.54-.504-.468V-.45C-.63-.324-.702-.162-.72 0V.036L-.738 .054C-.774 .378-.684 .738-.486 .972L-.18 .684C-.27 .558-.306 .396-.306 .216-.306 .162-.306 .09-.288 .018-.27-.036-.216-.09-.144-.09-.09-.09-.018-.054 0 0" fill="#ffffff" fill-rule="evenodd"/><path transform="matrix(0,1,1,0,233.589,120.276)" d="M0 0H3.366L3.6 .018 3.762 .108 3.852 .27 3.87 .486V3.24L3.816 3.42 3.744 3.564 3.636 3.69 3.492 3.78 3.33 3.852 3.132 3.906 2.898 3.942 2.772 3.51 3.078 3.456 3.294 3.348 3.42 3.168 3.456 2.97V.576L3.402 .504 3.33 .468H1.836V2.988H2.088V3.42H0V0ZM1.404 .468H.41399003V1.45801H1.404ZM1.404 1.872H.41399003V2.988H1.404Z" fill="#ffffff" fill-rule="evenodd"/><path transform="matrix(0,1,1,0,241.167,120.15)" d="M0 0-.018-.36H1.314V-2.178H1.746V-.36H3.366V-1.908H3.78V1.638H3.366V.09H1.746V1.926H1.314V.09H.18L.108 .216 .054 .234 .018 .162" fill="#ffffff" fill-rule="evenodd"/><path transform="matrix(0,1,1,0,268.149,127.386)" stroke-width=".288" stroke-linecap="round" stroke-linejoin="round" fill="none" stroke="#0000ff" d="M0 0C0 1.134-.9 2.034-2.034 2.034"/><path transform="matrix(0,1,1,0,229.43099,127.386)" stroke-width=".288" stroke-linecap="round" stroke-linejoin="round" fill="none" stroke="#0000ff" d="M0 0V38.718"/><path transform="matrix(0,1,1,0,227.39699,125.352008)" stroke-width=".288" stroke-linecap="round" stroke-linejoin="round" fill="none" stroke="#0000ff" d="M0 0C1.134 0 2.034 .918 2.034 2.034"/><path transform="matrix(0,1,1,0,227.39699,104.022)" stroke-width=".288" stroke-linecap="round" stroke-linejoin="round" fill="none" stroke="#0000ff" d="M0 0H21.33"/><path transform="matrix(0,1,1,0,229.431,101.988)" stroke-width=".288" stroke-linecap="round" stroke-linejoin="round" fill="none" stroke="#0000ff" d="M0 0C0-1.116 .918-2.034 2.034-2.034"/><path transform="matrix(0,1,1,0,268.149,101.988)" stroke-width=".288" stroke-linecap="round" stroke-linejoin="round" fill="none" stroke="#0000ff" d="M0 0V-38.718"/><path transform="matrix(0,1,1,0,270.18299,104.021999)" stroke-width=".288" stroke-linecap="round" stroke-linejoin="round" fill="none" stroke="#0000ff" d="M0 0C-1.116 0-2.034-.9-2.034-2.034"/><path transform="matrix(0,1,1,0,270.18299,125.352)" stroke-width=".288" stroke-linecap="round" stroke-linejoin="round" fill="none" stroke="#0000ff" d="M0 0H-21.33"/></g></svg>