<?xml version='1.0' encoding='UTF-8'?>
<svg xmlns="http://www.w3.org/2000/svg" xmlns:xlink="http://www.w3.org/1999/xlink" xmlns:inkscape="http://www.inkscape.org/namespaces/inkscape" version="1.1" width="567.000" height="269.280" viewBox="0 0 567.000 269.280"><g transform="scale(10.0) translate(-547.707, -181.872)"><defs><clipPath id="clip_19"><path transform="matrix(0,1,1,0,0,0)" d="M0 74.451H595.008V767.55899H0Z"/></clipPath><clipPath id="clip_20"><path transform="matrix(0,1,1,0,0,0)" d="M0 842.013H595.224V.008972168H0Z"/></clipPath></defs><path transform="matrix(0,1,1,0,588.279,182.628)" d="M0 0V-24.21C0-24.39 .036-24.606 .108-24.804 .198-25.002 .324-25.2 .486-25.362 .63-25.524 .828-25.632 1.026-25.722 1.224-25.794 1.44-25.83 1.638-25.83H24.066C24.246-25.83 24.462-25.794 24.66-25.722 24.858-25.632 25.056-25.524 25.218-25.362 25.38-25.2 25.488-25.002 25.578-24.804 25.65-24.606 25.686-24.39 25.686-24.21V0C25.686 .18 25.65 .396 25.578 .594 25.488 .792 25.38 .99 25.218 1.152 25.056 1.314 24.858 1.422 24.66 1.512 24.462 1.584 24.246 1.62 24.066 1.62H1.638C1.44 1.62 1.224 1.584 1.026 1.512 .828 1.422 .648 1.314 .486 1.152 .324 .99 .198 .792 .108 .594 .036 .396 0 .18 0 0" fill="#ffffff" fill-rule="evenodd"/><path transform="matrix(0,1,1,0,588.279,208.314)" stroke-width=".288" stroke-linecap="round" stroke-linejoin="round" fill="none" stroke="#0000ff" d="M0 0C0 .9-.72 1.62-1.62 1.62"/><path transform="matrix(0,1,1,0,564.069,208.314)" stroke-width=".288" stroke-linecap="round" stroke-linejoin="round" fill="none" stroke="#0000ff" d="M0 0V24.21"/><path transform="matrix(0,1,1,0,562.449,206.694)" stroke-width=".288" stroke-linecap="round" stroke-linejoin="round" fill="none" stroke="#0000ff" d="M0 0C.9 0 1.62 .72 1.62 1.62"/><path transform="matrix(0,1,1,0,562.449,184.266)" stroke-width=".288" stroke-linecap="round" stroke-linejoin="round" fill="none" stroke="#0000ff" d="M0 0H22.428"/><path transform="matrix(0,1,1,0,564.069,182.628)" stroke-width=".288" stroke-linecap="round" stroke-linejoin="round" fill="none" stroke="#0000ff" d="M0 0C0-.9 .738-1.62 1.638-1.62"/><path transform="matrix(0,1,1,0,588.279,182.628)" stroke-width=".288" stroke-linecap="round" stroke-linejoin="round" fill="none" stroke="#0000ff" d="M0 0V-24.21"/><path transform="matrix(0,1,1,0,589.899,184.266)" stroke-width=".288" stroke-linecap="round" stroke-linejoin="round" fill="none" stroke="#0000ff" d="M0 0C-.9 0-1.638-.72-1.638-1.62"/><path transform="matrix(0,1,1,0,589.899,206.694)" stroke-width=".288" stroke-linecap="round" stroke-linejoin="round" fill="none" stroke="#0000ff" d="M0 0H-22.428"/><path transform="matrix(0,1,1,0,588.279,183.438)" d="M0 0V-24.21C0-24.408 .072-24.606 .252-24.786 .414-24.948 .63-25.02 .828-25.02H23.256C23.454-25.02 23.652-24.948 23.832-24.786 23.994-24.606 24.066-24.408 24.066-24.21V0C24.066 .198 23.994 .414 23.832 .576 23.652 .738 23.454 .81 23.256 .81H.828C.63 .81 .414 .738 .252 .576 .072 .414 0 .198 0 0" fill="#0000ff" fill-rule="evenodd"/><path transform="matrix(0,1,1,0,586.299,188.424)" d="M0 0V.54H-2.628V1.404H-3.096V-.846H-2.628V0" fill="#ffffff" fill-rule="evenodd"/><path transform="matrix(0,1,1,0,583.275,188.424)" d="M0 0V.504H-1.314V1.8H-1.818V.504H-2.61V1.908H-3.096V0" fill="#ffffff" fill-rule="evenodd"/><path transform="matrix(0,1,1,0,580.359,188.424)" d="M0 0V2.034H-.486V.504H-1.314V1.836H-1.818V.504H-2.61V1.944H-3.096V0" fill="#ffffff" fill-rule="evenodd"/><path transform="matrix(0,1,1,0,577.983,188.424)" d="M0 0V1.764H-.45V.522H-3.096V0" fill="#ffffff" fill-rule="evenodd"/><path transform="matrix(0,1,1,0,571.089,185.328)" d="M0 0H3.096V2.034H2.61V.504H1.782V1.836H1.278V.504H.486V1.944H0" fill="#ffffff" fill-rule="evenodd"/><path transform="matrix(0,1,1,0,568.155,185.328)" d="M0 0H3.096V2.034H2.61V.504H1.782V1.836H1.278V.504H.486V1.944H0" fill="#ffffff" fill-rule="evenodd"/><path transform="matrix(0,1,1,0,565.095,185.328)" d="M0 0H3.096V.54H2.124L1.638 .972 3.096 1.872V2.484L1.224 1.35 0 2.43V1.8L1.422 .54H0" fill="#ffffff" fill-rule="evenodd"/><path transform="matrix(0,1,1,0,575.319,185.328)" d="M0 0C0 .216 .108 .414 .288 .576 .468 .72 .72 .81 .972 .81 1.098 .81 1.206 .792 1.332 .756 1.458 .72 1.566 .648 1.674 .576 1.872 .396 1.944 .198 1.944 0V-.774H3.096V-1.314H0V0ZM.468-.144V-.774H1.494V-.144C1.494-.09 1.476-.036 1.458 .018 1.422 .072 1.386 .108 1.332 .162 1.242 .234 1.098 .288 .972 .288 .846 .288 .72 .234 .612 .162 .558 .108 .522 .072 .504 .018 .486-.036 .468-.09 .468-.144" fill="#ffffff" fill-rule="evenodd"/><path transform="matrix(0,1,1,0,569.991,194.184)" d="M0 0V.396L-1.854 .918V.594L-.414 .198-1.854-.198V-.54" fill="#ffffff" fill-rule="evenodd"/><path transform="matrix(0,1,1,0,571.377,194.184)" d="M0 0V1.224H-.288V.306H-.792V1.116H-1.08V.306H-1.566V1.17H-1.854V0" fill="#ffffff" fill-rule="evenodd"/><path transform="matrix(0,1,1,0,575.247,192.6)" d="M0 0H1.584V.324H0V.846H-.27V-.522H0" fill="#ffffff" fill-rule="evenodd"/><path transform="matrix(0,1,1,0,578.271,194.184)" d="M0 0V.306H-.576L-.882 .576 0 1.116V1.476L-1.134 .792-1.854 1.44V1.062L-1.008 .306H-1.854V0" fill="#ffffff" fill-rule="evenodd"/><path transform="matrix(0,1,1,0,0,0)" d="M192.33 580.107H194.184V580.431H192.33Z" fill="#ffffff"/><path transform="matrix(0,1,1,0,581.061,194.184)" d="M0 0V.324H-1.35L0 1.224V1.602H-1.854V1.278H-.504L-1.854 .378V0" fill="#ffffff" fill-rule="evenodd"/><path transform="matrix(0,1,1,0,568.299,192.276)" d="M0 0C0-.198 .09-.432 .288-.594 .378-.684 .504-.756 .612-.792 .738-.828 .864-.846 .99-.846 1.242-.846 1.494-.756 1.674-.594 1.854-.432 1.962-.216 1.962 0 1.962 .216 1.872 .432 1.674 .594 1.584 .684 1.458 .756 1.35 .792 1.224 .828 1.098 .846 .99 .846 .72 .846 .468 .756 .288 .594 .108 .45 0 .234 0 0ZM.288 0C.288 .126 .36 .27 .486 .378 .63 .486 .81 .54 .99 .54 1.152 .54 1.332 .486 1.476 .378 1.62 .27 1.674 .126 1.674 0 1.674-.126 1.62-.27 1.476-.378 1.332-.486 1.152-.522 .99-.522 .81-.522 .63-.486 .486-.378 .36-.27 .288-.126 .288 0" fill="#ffffff" fill-rule="evenodd"/><path transform="matrix(0,1,1,0,576.849,192.33)" d="M0 0 1.854-.612V-.306L1.53-.198V.594L1.854 .702V.99L0 .396V0ZM.324 .198 1.26 .504V-.108L.324 .198" fill="#ffffff" fill-rule="evenodd"/><path transform="matrix(0,1,1,0,584.463,192.888)" d="M0 0V0" fill="#ffffff" fill-rule="evenodd"/><path transform="matrix(0,1,1,0,584.463,192.888)" d="M0 0-.144 .288C-.252 .216-.378 .126-.468 0-.558-.144-.612-.288-.612-.468-.594-.63-.54-.774-.45-.918-.36-1.044-.234-1.134-.108-1.188 .018-1.242 .18-1.296 .342-1.296 .522-1.296 .702-1.26 .882-1.17 1.044-1.098 1.17-.972 1.242-.846 1.332-.702 1.368-.576 1.368-.45 1.368-.27 1.278-.09 1.134 .036H1.296V.306H.27V-.504H.54V.036H.648C.882 .036 1.062-.18 1.062-.45 1.062-.522 1.044-.612 .99-.684 .936-.774 .846-.846 .72-.9 .612-.954 .486-.972 .36-.972 .234-.972 .126-.954 .036-.918-.036-.882-.126-.81-.198-.738-.27-.666-.306-.558-.306-.468-.324-.36-.288-.27-.216-.18-.162-.09-.072-.036 0 0" fill="#ffffff" fill-rule="evenodd"/><path transform="matrix(0,1,1,0,584.751,192.744)" d="M0 0V0" fill="#ffffff" fill-rule="evenodd"/><path transform="matrix(0,1,1,0,573.447,193.464)" d="M0 0V.324L.72 .684V1.026L-.018 .648C-.054 .756-.144 .864-.252 .936-.378 .99-.522 1.008-.648 1.008-.774 .99-.9 .936-.99 .828-1.098 .738-1.134 .63-1.134 .522V-.306H.72V0H0ZM-.864 .432C-.864 .468-.846 .504-.828 .522-.828 .558-.792 .594-.774 .612-.72 .666-.63 .684-.558 .684-.486 .684-.414 .666-.36 .612-.306 .558-.27 .486-.27 .432V0H-.864V.432" fill="#ffffff" fill-rule="evenodd"/><path transform="matrix(0,1,1,0,576.651,191.538)" d="M0 0V1.224H-.306V.306H-.81V1.098H-1.098V.306H-1.584V1.17H-1.872V0" fill="#ffffff" fill-rule="evenodd"/><path transform="matrix(0,1,1,0,575.229,191.538)" d="M0 0V1.062H-.288V.306H-1.872V0" fill="#ffffff" fill-rule="evenodd"/><path transform="matrix(0,1,1,0,573.303,190.17)" d="M0 0 1.368 .918V1.278H-.504V.954H.864L-.504 .054V-.306H1.368V0" fill="#ffffff" fill-rule="evenodd"/><path transform="matrix(0,1,1,0,572.061,189.666)" d="M0 0H1.206C1.242 0 1.296-.018 1.332-.036 1.386-.036 1.422-.072 1.458-.108 1.548-.18 1.602-.306 1.602-.414 1.602-.522 1.548-.648 1.458-.72 1.422-.756 1.386-.774 1.332-.792 1.296-.81 1.242-.81 1.206-.81H0V-1.134H1.206C1.296-1.134 1.386-1.116 1.458-1.08 1.566-1.044 1.656-.99 1.728-.9 1.854-.774 1.89-.594 1.89-.414 1.89-.234 1.854-.054 1.728 .072 1.656 .162 1.566 .216 1.458 .252 1.386 .288 1.296 .306 1.206 .306H0V0" fill="#ffffff" fill-rule="evenodd"/><path transform="matrix(0,1,1,0,579.693,190.998)" d="M0 0C.018 0 .018 0 .036 0H.054C.072 0 .108-.018 .126-.018 .162-.036 .198-.036 .216-.054 .288-.09 .342-.126 .396-.162 .504-.306 .558-.504 .558-.702 .558-.9 .486-1.08 .396-1.224 .342-1.314 .288-1.386 .216-1.458L0-1.206C.198-1.062 .252-.882 .27-.684 .27-.54 .252-.378 .126-.324 .054-.306-.054-.306-.126-.36-.216-.414-.252-.558-.27-.684-.27-.702-.27-.72-.27-.72-.288-.846-.306-.954-.342-1.062-.36-1.116-.396-1.17-.432-1.224-.504-1.332-.648-1.386-.792-1.386-.954-1.386-1.098-1.332-1.188-1.224-1.314-1.08-1.35-.9-1.35-.72-1.35-.468-1.26-.252-1.044-.036L-.864-.288C-.99-.414-1.062-.612-1.062-.756-1.062-.828-1.062-.9-1.008-.954-.954-1.008-.9-1.062-.828-1.062-.81-1.062-.81-1.062-.792-1.062-.738-1.062-.666-1.008-.63-.954-.612-.918-.612-.882-.594-.846L-.504-.414C-.504-.378-.486-.324-.486-.288-.45-.234-.432-.198-.396-.162-.324-.09-.234-.036-.126 0-.108 0-.09 0-.072 0-.054 0-.036 0-.036 0-.018 0 0 0 0 0" fill="#ffffff" fill-rule="evenodd"/><path transform="matrix(0,1,1,0,581.529,190.998)" d="M0 0C.018-.018 .018-.018 .036-.018H.054C.072-.018 .108-.036 .126-.036 .162-.036 .198-.054 .216-.072 .288-.09 .342-.144 .396-.18 .504-.324 .558-.522 .558-.72 .558-.918 .486-1.098 .396-1.242 .342-1.332 .288-1.404 .216-1.476L0-1.224C.198-1.08 .252-.882 .27-.702 .27-.558 .252-.396 .126-.342 .054-.324-.054-.324-.126-.36-.216-.432-.252-.576-.27-.702-.27-.72-.27-.72-.27-.738-.288-.864-.306-.972-.342-1.08-.36-1.134-.396-1.188-.432-1.224-.504-1.332-.648-1.404-.792-1.404-.954-1.404-1.098-1.332-1.188-1.224-1.314-1.098-1.35-.918-1.35-.738-1.35-.486-1.26-.27-1.044-.054L-.864-.306C-.99-.432-1.062-.63-1.062-.756-1.062-.846-1.062-.918-1.008-.972-.954-1.026-.9-1.08-.828-1.08-.81-1.08-.81-1.08-.792-1.08-.738-1.08-.666-1.026-.63-.972-.63-.954-.612-.936-.612-.918-.612-.9-.612-.882-.594-.864L-.504-.432C-.504-.396-.486-.342-.486-.306-.45-.252-.432-.216-.396-.18-.324-.09-.234-.036-.126-.018-.108-.018-.09-.018-.072-.018-.054-.018-.036-.018-.036-.018-.018 0 0 0 0-.018V0" fill="#ffffff" fill-rule="evenodd"/><path transform="matrix(0,1,1,0,565.761,195.75)" d="M0 0H2.628V.27H1.836L2.07 .396 2.016 .576C1.862 .942 1.341 .91 1.062 .72L.846 .612 .144 .99-.036 .738 0 .702V0ZM1.8 .27H.27V.612L.882 .342C1.119 .467 1.617 .822 1.782 .396L1.8 .27" fill="#ffffff" fill-rule="evenodd"/><path transform="matrix(0,1,1,0,567.579,195.768)" d="M0 0-.072-.18 .162-.36 .36-.558 .558-.774 .702-1.026 .918-.828 .792-.648H1.044V-.216H1.35V-.846H1.602V-.216H2.25L2.304-.252 2.34-.306 2.358-.396V-.54L2.592-.45V-.342L2.556-.144 2.466-.018 2.358 .054H1.602V.756H1.35V.054H1.044V.486H.81L.918 .702 .63 .9 .558 .648 .45 .414 .288 .216 .108 .036 .09 .09 .054 .108 .036 .072 0 0ZM.27-.108 .558 .162 .792 .468V-.63L.522-.342 .27-.108" fill="#ffffff" fill-rule="evenodd"/><path transform="matrix(0,1,1,0,567.111,197.658)" d="M0 0-.108-.198 .198-.432 .468-.666 .594-.468 .324-.216" fill="#ffffff" fill-rule="evenodd"/><path transform="matrix(0,1,1,0,567.975,197.55)" d="M0 0 .126-.18 .468 .036 .702 .252 .504 .504 .288 .234" fill="#ffffff" fill-rule="evenodd"/><path transform="matrix(0,1,1,0,569.289,198.234)" d="M0 0 .144 .252-.324 .36-.144 .558-.018 .792 .09 1.116 .144 1.548 .18 2.088 .198 2.718-.126 2.862-.108 2.196-.126 1.638-.18 1.188-.288 .864H-.81V1.26H-1.044V.864H-1.422V1.332H-1.674V.864H-1.944V1.26H-2.196V.864H-2.43L-2.484 .918-2.52 .936-2.556 .882-2.574 .792-2.592 .594H-2.196V.162H-1.944V.594H-1.674V.072H-1.422V.594H-.45L-.648 .396-1.026 .45-1.08 .486-1.116 .504-1.134 .468-1.152 .396-1.188 .198-.846 .18-.54 .144-.252 .09" fill="#ffffff" fill-rule="evenodd"/><path transform="matrix(0,1,1,0,571.305,196.164)" d="M0 0V-.54H1.296L1.44-.846 1.602-.81 1.692-.774 1.746-.756 1.728-.72 1.674-.684 1.278 0H1.008L1.188-.27H.252V.018L.792 .054 1.26 .162 1.494-.036 1.674-.324 1.854-.144 1.674 .072 1.476 .27 1.638 .378 1.746 .522 1.764 .63 1.692 .72 1.566 .792 1.368 .846 1.17 .63H1.332L1.44 .612 1.476 .576 1.44 .522 1.278 .414 .99 .594 .684 .72 .666 .774 .63 .792 .594 .756 .54 .684 .486 .54 .738 .468 1.008 .342 .63 .27 .252 .252V.81H0V.252H-.414L-.45 .306H-.486L-.504 .27-.54 .18-.558 0" fill="#ffffff" fill-rule="evenodd"/><path transform="matrix(0,1,1,0,573.375,195.624)" d="M0 0 .198-.18 .324 0 .468 .162 .27 .342" fill="#ffffff" fill-rule="evenodd"/><path transform="matrix(0,1,1,0,573.213,196.218)" d="M0 0 .198-.18 .324 .036 .468 .252 .27 .414 .126 .216" fill="#ffffff" fill-rule="evenodd"/><path transform="matrix(0,1,1,0,573.033,196.938)" d="M0 0H.252V.396H.81L1.098-.054 1.35 .162 1.044 .468 1.206 .594 1.332 .792 1.422 1.062 1.44 1.404V2.682L1.188 2.772V1.548C1.211 1.18 1.183 .769 .756 .666H0" fill="#ffffff" fill-rule="evenodd"/><path transform="matrix(0,1,1,0,574.203,195.732)" d="M0 0H.864V-.288H2.16V-.018H1.116V1.188H1.746L1.836 1.206 1.926 1.17 1.962 1.098 1.998 .972V.846L2.25 .936 2.232 1.062 2.178 1.278 2.088 1.404 1.944 1.458 1.764 1.44H.864V1.224H0V0ZM.864 .72H.63001V.97195008H.864ZM.864 .252H.234V.954H.432V.45H.864V.252" fill="#ffffff" fill-rule="evenodd"/><path transform="matrix(0,1,1,0,574.401,197.028)" d="M0 0H.774V.234H.576V.81H0V0ZM.378 .234H.17999999V.55804H.378Z" fill="#ffffff" fill-rule="evenodd"/><path transform="matrix(0,1,1,0,577.371,196.128)" d="M0 0V-.666H.27V2.034H0V1.314L-.306 1.458-.342 1.512-.36 1.53-.396 1.494-.414 1.44-.468 1.188-.216 1.098 0 .954V.342L-.234 .234-.468 .072-.396-.18-.198-.072" fill="#ffffff" fill-rule="evenodd"/><path transform="matrix(0,1,1,0,576.885,196.596)" d="M0 0H1.782V.252H1.224V.864H1.368L1.476 .828 1.494 .774V.504L1.764 .612 1.746 .828 1.71 .972 1.638 1.08 1.494 1.134H0V0ZM.99 .252H.73799V.86399999H.99ZM.522 .27H.252V.86399009H.522Z" fill="#ffffff" fill-rule="evenodd"/><path transform="matrix(0,1,1,0,578.343,196.704)" d="M0 0H1.224V.252H.144L.09 .306H.054L.036 .27 .018 .216" fill="#ffffff" fill-rule="evenodd"/><path transform="matrix(0,1,1,0,578.955,196.542)" d="M0 0H1.386L1.458-.018 1.512-.036 1.548-.09V-.45L1.836-.342V-.09L1.8 .072 1.71 .198 1.584 .252 1.422 .27H.18L.108 .324H.072L.036 .306V.27" fill="#ffffff" fill-rule="evenodd"/><path transform="matrix(0,1,1,0,580.503,195.93)" d="M0 0H.234V1.08H.45V.288H1.584V1.08H1.8V-.108H2.052V1.08H2.448V1.332H2.052V2.538H1.8V1.332H1.584V2.16H.45V1.332H.234V2.412H0V1.332H-.144L-.198 1.386-.234 1.368-.252 1.35-.288 1.08H0V0ZM.9 .54H.68399998V1.07998H.9ZM1.368 .54H1.13399V1.07998H1.368ZM.9 1.332H.68399998V1.90799H.9ZM1.368 1.332H1.13399V1.90799H1.368Z" fill="#ffffff" fill-rule="evenodd"/><path transform="matrix(0,1,1,0,584.823,195.678)" d="M0 0-.018-.18 .378-.252 .738-.396 1.062-.594 1.35-.828 1.566-.594 1.17-.306 .774-.108V.342L1.134 .27 1.44 .18 1.224-.162 1.422-.36 1.566-.144 1.71 .054 1.944-.072 2.124-.27 2.286-.504 2.412-.81 2.682-.594 2.592-.36C2.268 .198 1.641 .461 1.044 .612L.612 .72 .432 .522 .504 .414V-.018L.162 .072 .108 .162 .072 .18 .036 .126" fill="#ffffff" fill-rule="evenodd"/><path transform="matrix(0,1,1,0,586.065,195.678)" d="M0 0-.018-.162H1.152L.936-.36 1.08-.54 1.332-.36 1.53-.162H2.718V.144H1.746L1.98 .522 1.692 .756 1.548 .396 1.368 .144H.144L.09 .198H.054L.018 .144" fill="#ffffff" fill-rule="evenodd"/><path transform="matrix(0,1,1,0,569.379,200.664)" d="M0 0-.144-.414 .288-.738 .648-1.116 .864-.792V-1.512H1.224V2.88H.864V1.008H.594V2.376H.234V1.008H.018L-.036 1.08H-.072L-.108 1.026-.126 .918-.144 .54H.234V-.18L0 0ZM.594-.45V.54H.864V-.72L.594-.45" fill="#ffffff" fill-rule="evenodd"/><path transform="matrix(0,1,1,0,569.379,202.986)" d="M0 0H.198V-1.512H.504V0H.738V-1.26H1.026V0H1.17L1.422-1.548 1.638-1.512 1.728-1.494 1.764-1.458V-1.404L1.71-1.332 1.476-.126 1.584-.216 1.674-.342 1.746-.522 1.8-.738 2.16-.486 2.052-.162 1.872 .072 1.656 .252 1.368 .36 1.332 .648H1.026L1.08 .396H.18L.108 .468H.072L.036 .432 .018 .324" fill="#ffffff" fill-rule="evenodd"/><path transform="matrix(0,1,1,0,568.695,202.104)" d="M0 0H.84599V2.844H0ZM.558 .432H.28801004V2.412H.558Z" fill="#ffffff" fill-rule="evenodd"/><path transform="matrix(0,1,1,0,570.369,202.986)" d="M0 0H2.07V.414H1.674V1.962H1.332V.414H1.098V1.638H.792V.414H.54V1.8H.216V.414H.18L.126 .486 .09 .504 .054 .432 .018 .306" fill="#ffffff" fill-rule="evenodd"/><path transform="matrix(0,1,1,0,573.987,201.312)" d="M0 0H.468V1.566L1.116 1.26 1.692 .864 2.16 .396 2.556-.18 2.898 .252 2.448 .792 1.944 1.278V2.34H3.204V.486H3.69V4.464H3.204V2.826H1.944V4.122H1.458V1.602L.972 1.872 .468 2.052V4.32H0V2.196L-.63 2.34-.702 2.466-.756 2.502-.81 2.412-.846 2.232-.918 1.872 0 1.692" fill="#ffffff" fill-rule="evenodd"/><path transform="matrix(0,1,1,0,580.107,200.61)" d="M0 0H2.718V.432H2.484V1.62H3.294L2.79 1.368 2.826 1.152 3.168 1.296 3.528 1.386 3.474 1.584 3.69 1.548 3.834 1.458 3.942 1.278 4.014 1.008 4.05 .756 4.41 .918 4.392 1.062C4.306 1.754 3.851 2.021 3.186 1.962L2.124 1.98V1.35H1.8V1.908H1.404V1.35H1.08V1.908H.684V1.35H.396V1.98H0V0ZM.684 .432H.39601V.98998H.684ZM1.404 .432H1.08001V.98998H1.404ZM2.124 .432H1.8000101V.98998H2.124Z" fill="#ffffff" fill-rule="evenodd"/><path transform="matrix(0,1,1,0,581.115,203.49)" d="M0 0 .018-.252 .792-.072 .738 .198" fill="#ffffff" fill-rule="evenodd"/><path transform="matrix(0,1,1,0,580.719,203.562)" d="M0 0 .018-.27 .414-.234 .792-.216 .756 .09" fill="#ffffff" fill-rule="evenodd"/><path transform="matrix(0,1,1,0,580.305,203.58)" d="M0 0-.018-.306 .504-.342 .918-.45 .9-.072" fill="#ffffff" fill-rule="evenodd"/><path transform="matrix(0,1,1,0,583.167,200.52)" d="M0 0H.684V-.882H2.466V0L3.186-.09 2.97-.306 2.646-.486 2.844-.774 3.294-.54 3.636-.252 3.798-.432 3.942-.63 4.032-.864 4.086-1.116 4.536-.828 4.284-.36 3.942 .036 4.302 .612 4.536 1.224 4.122 1.476 3.906 .828 3.564 .252 3.042 .36 2.466 .396V1.296H.684V.414H.198L.144 .486H.09L.054 .432 .036 .324 0 0ZM2.07-.414H1.0619999V-.018000007H2.07ZM2.07 .432H1.0619999V.86401H2.07Z" fill="#ffffff" fill-rule="evenodd"/><path transform="matrix(0,1,1,0,571.845,195.642)" d="M0 0 .162-.144 .27 0 .396 .144 .216 .306" fill="#ffffff" fill-rule="evenodd"/></g></svg>