<?xml version='1.0' encoding='UTF-8'?>
<svg xmlns="http://www.w3.org/2000/svg" xmlns:xlink="http://www.w3.org/1999/xlink" xmlns:inkscape="http://www.inkscape.org/namespaces/inkscape" version="1.1" width="567.000" height="269.280" viewBox="0 0 567.000 269.280"><g transform="scale(10.0) translate(-329.439, -208.800)"><defs><clipPath id="clip_19"><path transform="matrix(0,1,1,0,0,0)" d="M0 74.451H595.008V767.55899H0Z"/></clipPath><clipPath id="clip_20"><path transform="matrix(0,1,1,0,0,0)" d="M0 842.013H595.224V.008972168H0Z"/></clipPath></defs><path transform="matrix(0,1,1,0,367.923,222.408)" d="M0 0C-1.314 0-2.628-.252-3.834-.756-5.058-1.26-6.156-1.998-7.092-2.934-8.01-3.852-8.748-4.95-9.252-6.174-9.756-7.38-10.026-8.694-10.026-10.008-10.026-11.322-9.756-12.618-9.252-13.842-8.748-15.048-8.01-16.146-7.092-17.082-6.156-18.018-5.058-18.756-3.834-19.242-2.628-19.746-1.314-20.016 0-20.016 1.314-20.016 2.61-19.746 3.816-19.242 5.04-18.756 6.138-18.018 7.074-17.082 7.992-16.146 8.73-15.048 9.234-13.842 9.738-12.618 10.008-11.322 10.008-10.008 10.008-8.694 9.738-7.38 9.234-6.174 8.73-4.95 7.992-3.852 7.074-2.934 6.138-1.998 5.04-1.26 3.816-.756 2.61-.252 1.314 0 0 0" fill="#e1e1e1" fill-rule="evenodd"/><path transform="matrix(0,1,1,0,363.639,226.296)" stroke-width=".288" stroke-linecap="round" stroke-linejoin="round" fill="none" stroke="#000000" d="M0 0V-.918L.738-.306V-2.79H1.476V-.306L2.214-.918V0L1.116 .936 0 0"/><path transform="matrix(0,1,1,0,370.425,222.408)" d="M0 0C-.738 0-1.512-.054-2.286-.198-3.06-.342-3.834-.558-4.608-.864-5.382-1.17-6.138-1.566-6.858-2.034-7.578-2.502-8.244-3.042-8.856-3.654-9.468-4.266-10.008-4.95-10.476-5.652-10.944-6.372-11.34-7.128-11.646-7.902-11.952-8.676-12.168-9.45-12.312-10.224-12.456-10.998-12.528-11.772-12.528-12.51-12.528-13.248-12.456-14.004-12.312-14.778-12.168-15.552-11.952-16.344-11.646-17.118-11.34-17.874-10.944-18.63-10.476-19.35-10.008-20.07-9.468-20.736-8.856-21.348-8.244-21.96-7.578-22.5-6.858-22.986-6.138-23.454-5.382-23.832-4.608-24.138-3.834-24.444-3.06-24.66-2.286-24.804-1.512-24.948-.738-25.02 0-25.02 .36-25.02 .738-25.002 1.116-24.966 1.494-24.93 1.89-24.876 2.268-24.804 3.042-24.66 3.834-24.444 4.59-24.138 5.364-23.832 6.12-23.454 6.84-22.986 7.56-22.5 8.226-21.96 8.838-21.348 9.45-20.736 9.99-20.07 10.458-19.35 10.926-18.63 11.322-17.874 11.628-17.118 11.934-16.344 12.15-15.552 12.294-14.778 12.366-14.4 12.42-14.004 12.456-13.626 12.492-13.248 12.51-12.87 12.51-12.51 12.51-11.772 12.438-10.998 12.294-10.224 12.15-9.45 11.934-8.676 11.628-7.902 11.322-7.128 10.926-6.372 10.458-5.652 9.99-4.95 9.45-4.266 8.838-3.654 8.226-3.042 7.56-2.502 6.84-2.034 6.12-1.566 5.364-1.17 4.59-.864 3.834-.558 3.042-.342 2.268-.198 1.494-.054 .738 0 0 0ZM0-2.502C.576-2.502 1.188-2.556 1.818-2.664 2.43-2.772 3.06-2.952 3.672-3.204 4.302-3.438 4.896-3.744 5.472-4.122 6.048-4.5 6.588-4.932 7.074-5.436 7.56-5.922 7.992-6.462 8.37-7.02 8.748-7.596 9.054-8.208 9.306-8.82 9.54-9.432 9.72-10.062 9.828-10.692 9.954-11.304 10.008-11.916 10.008-12.51 10.008-13.104 9.954-13.698 9.828-14.328 9.72-14.94 9.54-15.57 9.306-16.182 9.054-16.812 8.748-17.406 8.37-17.982 7.992-18.558 7.56-19.098 7.074-19.584 6.588-20.07 6.048-20.502 5.472-20.88 4.896-21.258 4.302-21.564 3.672-21.816 3.06-22.05 2.43-22.23 1.818-22.356 1.188-22.464 .576-22.518 0-22.518-.594-22.518-1.206-22.464-1.836-22.356-2.448-22.23-3.078-22.05-3.69-21.816-4.302-21.564-4.914-21.258-5.49-20.88-6.066-20.502-6.588-20.07-7.092-19.584-7.578-19.098-8.01-18.558-8.388-17.982-8.766-17.406-9.072-16.812-9.306-16.182-9.558-15.57-9.738-14.94-9.846-14.328-9.972-13.698-10.026-13.104-10.026-12.51-10.026-11.916-9.972-11.304-9.846-10.692-9.738-10.062-9.558-9.432-9.306-8.82-9.072-8.208-8.766-7.596-8.388-7.02-8.01-6.462-7.578-5.922-7.092-5.436-6.588-4.932-6.066-4.5-5.49-4.122-4.914-3.744-4.302-3.438-3.69-3.204-3.078-2.952-2.448-2.772-1.836-2.664-1.206-2.556-.594-2.502 0-2.502" fill-rule="evenodd"/><path transform="matrix(0,1,1,0,0,0)" d="M222.012 356.295H222.71399V358.617H222.012Z"/><path transform="matrix(0,1,1,0,352.173,226.296)" d="M0 0V.936L.738 .306V2.808H1.476V.306L2.214 .936V0L1.116-.936" fill-rule="evenodd"/><path transform="matrix(0,1,1,0,363.639,226.296)" d="M0 0V-.918L.738-.306V-2.79H1.476V-.306L2.214-.918V0L1.116 .936" fill-rule="evenodd"/><path transform="matrix(0,1,1,0,354.261,222.768)" d="M0 0C-.234 0-.468-.09-.63-.252-.792-.432-.882-.648-.882-.882-.882-1.116-.792-1.35-.63-1.512-.468-1.692-.234-1.782 0-1.782 .234-1.782 .468-1.692 .63-1.512 .792-1.35 .9-1.116 .9-.882 .9-.648 .792-.432 .63-.252 .468-.09 .234 0 0 0ZM-.018-.432C.09-.432 .216-.486 .306-.576 .414-.666 .45-.792 .45-.9 .45-1.008 .414-1.134 .306-1.224 .216-1.314 .09-1.368-.018-1.368-.126-1.368-.252-1.314-.342-1.224-.432-1.134-.468-1.008-.468-.9-.468-.792-.432-.666-.342-.576-.252-.486-.126-.432-.018-.432" fill-rule="evenodd"/><path transform="matrix(0,1,1,0,353.343,218.052)" d="M0 0 2.106-1.44C2.268-1.746 2.592-1.926 2.934-1.89H4.716V-1.008C4.59-1.008 4.464-.972 4.338-.936 4.212-.882 4.086-.81 3.996-.702 3.888-.594 3.816-.486 3.762-.342 3.708-.216 3.69-.09 3.69 .036 3.69 .306 3.798 .558 3.996 .756 4.176 .954 4.446 1.062 4.716 1.062V2.772H3.834V7.614C3.96 7.524 4.104 7.452 4.266 7.416 3.87 7.614 3.636 8.046 3.69 8.496 3.726 8.694 3.816 8.91 3.978 9.072 4.14 9.234 4.356 9.342 4.554 9.36 4.428 9.378 4.302 9.378 4.176 9.324 4.05 9.288 3.924 9.234 3.834 9.144V11.016H2.808V2.772H2.592V10.854H-1.512V-1.17H0V0ZM.234 .936H2.214V-1.044C2.214-1.116 2.178-1.17 2.124-1.206 2.07-1.242 1.998-1.242 1.944-1.206L.234-.036V.936" fill-rule="evenodd"/><path transform="matrix(0,1,1,0,362.577,222.75)" d="M0 0C-.216 0-.45-.072-.63-.252-.81-.432-.882-.666-.882-.882-.882-1.098-.81-1.332-.63-1.512-.45-1.692-.216-1.782 0-1.782 .216-1.782 .45-1.692 .63-1.512 .81-1.332 .882-1.098 .882-.882 .882-.666 .81-.45 .63-.252 .45-.072 .216 0 0 0ZM0-.432C.252-.432 .468-.63 .468-.882 .468-1.152 .252-1.35 0-1.35-.252-1.35-.468-1.152-.468-.882-.468-.63-.252-.432 0-.432" fill-rule="evenodd"/><path transform="matrix(0,1,1,0,359.049,230.976)" d="M0 0H-1.116C-1.116 0-1.134 0-1.152 0H-1.17C-1.17 0-1.188 0-1.188-.018-1.206-.018-1.206-.018-1.224-.018-1.458-.108-1.584-.306-1.602-.594-1.602-.774-1.53-.918-1.386-1.026-1.53-1.098-1.584-1.242-1.602-1.44-1.602-1.494-1.584-1.566-1.566-1.62-1.548-1.692-1.512-1.746-1.458-1.8H-1.548V-2.214H0V-1.782H-.954C-1.008-1.782-1.062-1.764-1.116-1.71-1.152-1.638-1.17-1.584-1.17-1.53-1.17-1.404-1.116-1.314-1.044-1.314H0V-.882H-.954C-1.008-.882-1.062-.864-1.116-.81-1.152-.738-1.17-.684-1.17-.63-1.17-.558-1.152-.504-1.134-.468-1.116-.45-1.116-.432-1.098-.432-1.08-.414-1.062-.414-1.044-.414H0V0" fill-rule="evenodd"/><path transform="matrix(0,1,1,0,357.411,228.582)" d="M0 0-2.124 .864V-.45H-2.664V1.44H-2.124L0 .576" fill-rule="evenodd"/></g></svg>