<?xml version='1.0' encoding='UTF-8'?>
<svg xmlns="http://www.w3.org/2000/svg" xmlns:xlink="http://www.w3.org/1999/xlink" xmlns:inkscape="http://www.inkscape.org/namespaces/inkscape" version="1.1" width="567.000" height="269.280" viewBox="0 0 567.000 269.280"><g transform="scale(10.0) translate(-438.573, -262.656)"><defs><clipPath id="clip_19"><path transform="matrix(0,1,1,0,0,0)" d="M0 74.451H595.008V767.55899H0Z"/></clipPath><clipPath id="clip_20"><path transform="matrix(0,1,1,0,0,0)" d="M0 842.013H595.224V.008972168H0Z"/></clipPath></defs><path transform="matrix(0,1,1,0,479.559,276.264)" d="M0 0C-1.656 0-3.276-.324-4.788-.954-6.318-1.584-7.686-2.502-8.856-3.672-10.008-4.824-10.926-6.21-11.556-7.722-12.186-9.252-12.51-10.872-12.51-12.51-12.51-14.148-12.186-15.786-11.556-17.298-10.926-18.81-10.008-20.196-8.856-21.348-7.686-22.518-6.318-23.436-4.788-24.066-3.276-24.696-1.656-25.02 0-25.02 1.638-25.02 3.258-24.696 4.77-24.066 6.3-23.436 7.668-22.518 8.838-21.348 9.99-20.196 10.908-18.81 11.538-17.298 12.168-15.786 12.492-14.148 12.492-12.51 12.492-10.872 12.168-9.252 11.538-7.722 10.908-6.21 9.99-4.824 8.838-3.672 7.668-2.502 6.3-1.584 4.77-.954 3.258-.324 1.638 0 0 0" fill="#ff0000" fill-rule="evenodd"/><path transform="matrix(0,1,1,0,477.057,276.264)" d="M0 0C-1.314 0-2.628-.27-3.834-.774-5.058-1.278-6.156-1.998-7.074-2.934-8.01-3.87-8.748-4.968-9.252-6.174-9.756-7.398-10.008-8.694-10.008-10.008-10.008-11.322-9.756-12.618-9.252-13.842-8.748-15.048-8.01-16.146-7.074-17.082-6.156-18.018-5.058-18.756-3.834-19.26-2.628-19.764-1.314-20.016 0-20.016 1.296-20.016 2.61-19.764 3.816-19.26 5.04-18.756 6.138-18.018 7.074-17.082 7.992-16.146 8.73-15.048 9.234-13.842 9.738-12.618 9.99-11.322 9.99-10.008 9.99-8.694 9.738-7.398 9.234-6.174 8.73-4.968 7.992-3.87 7.074-2.934 6.138-1.998 5.04-1.278 3.816-.774 2.61-.27 1.296 0 0 0" fill="#ffffff" fill-rule="evenodd"/><path transform="matrix(0,1,1,0,462.369,280.944)" d="M0 0C0 2.142-.936 3.276-2.718 3.276-3.744 3.276-4.464 2.988-4.806 2.43-5.292 2.916-5.94 3.168-6.624 3.168-7.506 3.168-8.19 2.862-8.658 2.304-9.144 1.728-9.378 .882-9.378-.18-9.378-.63-9.324-1.08-9.198-1.512-9.054-1.926-8.856-2.304-8.604-2.61-8.352-2.934-8.028-3.168-7.686-3.312-7.326-3.474-6.948-3.546-6.57-3.546L-6.408-1.692C-6.714-1.692-7.02-1.566-7.254-1.296-7.488-1.026-7.614-.648-7.65-.252-7.668-.09-7.668 .072-7.632 .216-7.47 .936-7.092 1.314-6.606 1.296-6.12 1.26-5.778 1.008-5.634 .558V-.684H-4.014V.558C-4.014 .63-3.996 .72-3.942 .81-3.888 .9-3.816 1.008-3.708 1.098-3.618 1.188-3.51 1.242-3.384 1.296-3.276 1.332-3.186 1.35-3.096 1.35-2.322 1.368-1.89 .918-1.836 .054-1.836-.468-1.944-.918-2.178-1.224-2.412-1.548-2.736-1.692-3.096-1.692L-2.844-3.618C-1.98-3.6-1.26-3.258-.756-2.628-.252-1.998 0-1.098 0 0" fill-rule="evenodd"/><path transform="matrix(0,1,1,0,475.149,276.264)" d="M0 0C-3.132 0-4.698-1.278-4.698-3.852-4.698-5.13-4.302-6.102-3.528-6.732-2.736-7.38-1.566-7.704 0-7.704 1.548-7.704 2.718-7.38 3.51-6.732 4.284-6.102 4.68-5.13 4.68-3.852 4.68-2.574 4.284-1.602 3.51-.954 2.718-.324 1.548 0 0 0ZM0-1.872C1.98-1.872 2.988-2.538 2.988-3.852 2.988-4.5 2.736-5.004 2.232-5.328 1.746-5.67 .99-5.832 0-5.832-1.998-5.832-3.006-5.166-3.006-3.852-3.006-3.186-2.754-2.7-2.25-2.376-1.764-2.034-1.008-1.872 0-1.872" fill-rule="evenodd"/></g></svg>