<?xml version='1.0' encoding='UTF-8'?>
<svg xmlns="http://www.w3.org/2000/svg" xmlns:xlink="http://www.w3.org/1999/xlink" xmlns:inkscape="http://www.inkscape.org/namespaces/inkscape" version="1.1" width="567.000" height="269.280" viewBox="0 0 567.000 269.280"><g transform="scale(10.0) translate(-547.707, -20.304)"><defs><clipPath id="clip_19"><path transform="matrix(0,1,1,0,0,0)" d="M0 74.451H595.008V767.55899H0Z"/></clipPath><clipPath id="clip_20"><path transform="matrix(0,1,1,0,0,0)" d="M0 842.013H595.224V.008972168H0Z"/></clipPath></defs><path transform="matrix(0,1,1,0,556.131,35.766)" d="M0 0V40.086C0 40.23-.054 40.392-.162 40.5-.288 40.626-.45 40.68-.594 40.68H-13.41C-13.554 40.68-13.716 40.626-13.842 40.5-13.95 40.392-14.004 40.23-14.004 40.086V0C-14.004-.162-13.95-.306-13.842-.414-13.716-.54-13.572-.594-13.41-.594H-.594C-.432-.594-.288-.54-.162-.414-.054-.306 0-.162 0 0" fill="#ffff00" fill-rule="evenodd"/><path transform="matrix(0,1,1,0,556.131,36.36)" d="M0 0V40.086C0 40.158 .018 40.23 .054 40.302 .072 40.374 .126 40.446 .18 40.5 .234 40.572 .306 40.608 .378 40.644 .45 40.662 .522 40.68 .594 40.68H9.09C9.234 40.68 9.396 40.626 9.522 40.5 9.63 40.392 9.684 40.23 9.684 40.086V0C9.684-.072 9.684-.144 9.648-.216 9.612-.288 9.576-.36 9.522-.414 9.45-.486 9.378-.522 9.306-.558 9.234-.576 9.162-.594 9.09-.594H.594C.45-.594 .306-.54 .18-.414 .054-.306 0-.144 0 0" fill="#ffffff" fill-rule="evenodd"/><path transform="matrix(0,1,1,0,556.131,21.168)" d="M0 0V40.086C0 40.23 .018 40.374 .072 40.518 .144 40.68 .234 40.806 .342 40.932 .468 41.04 .594 41.13 .756 41.184 .9 41.256 1.044 41.274 1.188 41.274H24.282C24.426 41.274 24.57 41.256 24.714 41.184 24.876 41.13 25.002 41.04 25.128 40.932 25.236 40.806 25.326 40.68 25.398 40.518 25.452 40.374 25.47 40.23 25.47 40.086V0C25.47-.324 25.344-.612 25.128-.846 24.894-1.062 24.606-1.188 24.282-1.188H1.188C1.044-1.188 .9-1.17 .756-1.098 .594-1.044 .468-.954 .342-.846 .234-.72 .144-.594 .072-.432 .018-.288 0-.144 0 0ZM.594 40.086V0C.594-.144 .648-.306 .756-.414 .882-.54 1.044-.594 1.188-.594H14.004C14.148-.594 14.31-.54 14.436-.414 14.49-.36 14.526-.288 14.562-.216 14.598-.144 14.598-.072 14.598 0V40.086C14.598 40.248 14.544 40.392 14.436 40.5 14.31 40.626 14.166 40.68 14.004 40.68H1.188C1.044 40.68 .882 40.626 .756 40.5 .702 40.446 .666 40.374 .63 40.302 .594 40.23 .594 40.158 .594 40.086ZM15.192 40.086V0C15.192-.144 15.246-.306 15.372-.414 15.498-.54 15.642-.594 15.786-.594H24.282C24.444-.594 24.588-.54 24.714-.414 24.822-.306 24.876-.162 24.876 0V40.086C24.876 40.248 24.822 40.392 24.714 40.5 24.588 40.626 24.444 40.68 24.282 40.68H15.786C15.642 40.68 15.498 40.626 15.372 40.5 15.246 40.392 15.192 40.23 15.192 40.086" fill-rule="evenodd"/><path transform="matrix(0,1,1,0,556.923,44.496)" d="M0 0V3.456H-.216V1.692H-1.836V3.132H-2.034V1.692H-3.312L-3.366 1.746H-3.402L-3.42 1.692-3.438 1.584-3.456 1.422H-.216V0" fill-rule="evenodd"/><path transform="matrix(0,1,1,0,563.223,43.092)" d="M0 0V1.548H-.198V0H-1.386V1.224H-1.584V-1.026L-1.926-.846-1.962-.774-1.998-.756-2.034-.81-2.088-.918-2.16-1.062-1.44-1.404-.792-1.836-.648-1.638-1.008-1.368-1.386-1.152V-.252H-.198V-1.944H0V-.252H1.512V0" fill-rule="evenodd"/><path transform="matrix(0,1,1,0,567.111,42.552)" d="M0 0-.288 2.052-.504 2.034-.234 0H-1.332L-1.386 .054-1.422 .072-1.44 .036-1.476-.036-1.512-.252H-.198L-.036-1.476 .216-1.44 .036-.252H1.638L1.764-.216 1.854-.162 1.908-.072 1.944 .054V1.278L1.89 1.494 1.782 1.692 1.62 1.854 1.386 1.98 1.134 2.052 1.08 2.016 1.026 1.854 1.062 1.836 1.458 1.692 1.656 1.512 1.728 1.314V.342L1.692 .108 1.62 0" fill-rule="evenodd"/><path transform="matrix(0,1,1,0,572.565,42.354)" d="M0 0V.918L.018 .954H.18L.198 .918V-1.224L.18-1.26H.018L0-1.224V-.324L-.018-.288H-.666L-.684-.324V-.954L-.702-1.044-.72-1.062H-.864L-.882-1.044-.9-.954V-.324L-.918-.288H-1.368L-1.386-.252C-1.372-.187-1.376 .159-1.224-.036H-.918L-.9 0V.684L-.864 .702H-.72L-.684 .684V0L-.666-.036H-.018" fill-rule="evenodd"/><path transform="matrix(0,1,1,0,572.979,43.29)" d="M0 0V.396L-.018 .432H-.18L-.198 .396V0L-.234-.018H-.486L-.522 .018H-.558L-.594-.036-.612-.144V-.234L-.594-.288H-.234L-.198-.306V-1.53L-.18-1.566H-.018L0-1.53V-.306L.036-.288H.918L1.008-.306 1.044-.378V-.684L1.062-.738H1.098L1.224-.702 1.26-.666 1.278-.612V-.198L1.242-.126 1.188-.072 1.116-.036 1.008-.018H.036" fill-rule="evenodd"/><path transform="matrix(0,1,1,0,572.079,44.064)" d="M0 0-.18 .144-.414-.162-.594-.468-.414-.612-.216-.288" fill-rule="evenodd"/><path transform="matrix(0,1,1,0,576.273,43.398)" d="M0 0V1.278H-.216V0H-.594L-.648 .09-.702 .126-.72 .09-.756 0V-.234H-.216V-1.548H0V-.234H.756V-1.836H.954V1.602H.756V0" fill-rule="evenodd"/><path transform="matrix(0,1,1,0,576.867,41.652)" d="M0 0 .45 .342 .63-1.44-.27-.81V.882H-.468V-2.34H-.27V-1.08L.63-1.71 .666-2.268 .828-2.214 .918-2.16 .972-2.106 .954-2.07 .9-2.052 .63 .468 1.026 .666 .954 .9 .396 .576-.126 .198" fill-rule="evenodd"/><path transform="matrix(0,1,1,0,580.611,42.372)" d="M0 0 .342 .576 .72 1.08 .54 1.242 .108 .666-.27 0H-1.098V1.656H-1.296V-1.836H-1.098V-.252H2.07V0" fill-rule="evenodd"/><path transform="matrix(0,1,1,0,585.111,43.092)" d="M0 0V1.53H-.198V0H-1.386V1.206H-1.584V-1.044L-1.926-.864-1.962-.792-1.998-.774-2.034-.81-2.16-1.062-1.44-1.404-.792-1.836-.648-1.638-1.008-1.386-1.386-1.152V-.252H-.198V-1.944H0V-.252H1.512V0" fill-rule="evenodd"/><path transform="matrix(0,1,1,0,594.435,42.354)" d="M0 0V.918L.018 .954H.18L.198 .918V-1.224L.18-1.242H.018L0-1.224V-.306L-.018-.288H-.666L-.684-.306V-.936L-.702-1.026-.72-1.062H-.864L-.882-1.026-.9-.936V-.306L-.918-.288H-1.368L-1.386-.252C-1.372-.187-1.376 .159-1.224-.036H-.918L-.9 0V.702L-.864 .72H-.72L-.684 .702V0L-.666-.036H-.018" fill-rule="evenodd"/><path transform="matrix(0,1,1,0,593.661,43.848)" d="M0 0 .216 .288 .036 .432-.198 .144-.378-.162-.198-.324" fill-rule="evenodd"/><path transform="matrix(0,1,1,0,594.579,44.208)" d="M0 0 .09-.018 .126-.09V-.414L.144-.468H.18L.306-.432 .342-.396 .36-.324V.072L.324 .162 .27 .216 .198 .234 .09 .252H-.882L-.918 .27V.684L-.936 .72H-1.098L-1.116 .684V.27L-1.152 .252H-1.404L-1.44 .306-1.476 .288-1.512 .234-1.53 .126V.036L-1.512 0H-1.152L-1.116-.036V-1.242L-1.098-1.278H-.936L-.918-1.242V-.036L-.882 0" fill-rule="evenodd"/><path transform="matrix(0,1,1,0,570.891,43.65)" d="M0 0H.18L.198 .036V.216L.18 .234H-2.286L-2.304 .216V-.846L-2.286-.864H.45L.486-.846V-.648L.45-.612H0L-.018-.576V-.036L0 0ZM-.234-.036V-.576L-.252-.612H-1.062L-1.098-.576V-.036L-1.062 0H-.252L-.234-.036ZM-1.296-.036V-.576L-1.314-.612H-2.088L-2.106-.576V-.036L-2.088 0H-1.314L-1.296-.036" fill-rule="evenodd"/><path transform="matrix(0,1,1,0,592.743,43.632)" d="M0 0 .018 .018H.198L.216 .054V.234L.198 .27H-2.268L-2.286 .234V-.81L-2.268-.828H.468L.504-.81V-.612L.468-.594H.018L0-.558V0ZM-1.08-.558V0L-1.044 .018H-.234L-.216 0V-.558L-.234-.594H-1.044L-1.08-.558ZM-2.07 .018H-1.296L-1.278 0V-.558L-1.296-.594H-2.07L-2.088-.558V0L-2.07 .018" fill-rule="evenodd"/><path transform="matrix(0,1,1,0,582.591,28.818)" d="M0 0C-.378 0-.756-.036-1.152-.108-1.548-.18-1.944-.288-2.34-.45-3.132-.756-3.87-1.242-4.5-1.854-5.13-2.484-5.616-3.222-5.922-4.014-6.084-4.41-6.192-4.806-6.264-5.202-6.336-5.598-6.372-5.994-6.372-6.372-6.372-6.75-6.336-7.128-6.264-7.524-6.192-7.92-6.084-8.316-5.922-8.712-5.616-9.504-5.13-10.242-4.5-10.872-3.87-11.502-3.132-11.97-2.34-12.294-1.944-12.438-1.548-12.564-1.152-12.636-.756-12.708-.378-12.744 0-12.744 .378-12.744 .774-12.708 1.152-12.636 1.548-12.564 1.944-12.438 2.34-12.294 3.132-11.97 3.87-11.502 4.5-10.872 5.13-10.242 5.616-9.504 5.922-8.712 6.084-8.316 6.192-7.92 6.264-7.524 6.336-7.128 6.372-6.75 6.372-6.372 6.372-5.994 6.336-5.598 6.264-5.202 6.192-4.806 6.084-4.41 5.922-4.014 5.616-3.222 5.13-2.484 4.5-1.854 3.87-1.242 3.132-.756 2.34-.45 1.944-.288 1.548-.18 1.152-.108 .774-.036 .378 0 0 0ZM1.026-6.372 4.068-3.33C4.716-4.212 5.076-5.274 5.076-6.372 5.076-7.47 4.716-8.532 4.068-9.414L1.026-6.372ZM-3.06-2.286-3.042-2.268-3.024-2.25C-3.006-2.25-2.988-2.232-2.988-2.214-2.952-2.214-2.916-2.178-2.898-2.16-2.844-2.124-2.79-2.088-2.736-2.07-2.628-1.998-2.52-1.926-2.394-1.872-2.16-1.746-1.926-1.638-1.656-1.548-1.134-1.368-.576-1.278-.018-1.278 .54-1.278 1.098-1.368 1.62-1.548 2.142-1.728 2.61-1.98 3.024-2.286L-.018-5.31-3.06-2.286ZM3.024-10.458C2.61-10.764 2.142-11.016 1.62-11.196 1.098-11.376 .54-11.466-.018-11.466-.576-11.466-1.134-11.376-1.656-11.196-2.178-11.016-2.646-10.764-3.06-10.458L-.018-7.416 3.024-10.458ZM-3.06-10.458V-10.458ZM3.024-10.458-4.104-3.33-1.062-6.372-4.104-9.414C-4.41-9-4.662-8.532-4.842-8.01-5.022-7.488-5.112-6.93-5.112-6.372-5.112-5.796-5.022-5.256-4.842-4.734-4.662-4.212-4.41-3.744-4.104-3.33L3.024-10.458" fill-rule="evenodd"/><path transform="matrix(0,1,1,0,580.305,25.758)" d="M0 0 3.042-3.024 6.084 0C5.67 .306 5.202 .558 4.68 .738 4.158 .918 3.6 1.008 3.042 1.008 2.484 1.008 1.926 .918 1.404 .738 .882 .558 .414 .306 0 0" fill="#e1e1e1" fill-rule="evenodd"/><path transform="matrix(0,1,1,0,579.261,24.714)" d="M0 0 3.042-3.042 0-6.084C-.306-5.67-.558-5.202-.738-4.68-.918-4.158-1.008-3.6-1.008-3.042-1.008-2.466-.918-1.926-.738-1.404-.558-.882-.306-.414 0 0" fill="#e1e1e1" fill-rule="evenodd"/><path transform="matrix(0,1,1,0,579.261,32.886)" d="M0 0-3.042-3.042 0-6.084C.306-5.67 .558-5.202 .738-4.68 .918-4.158 1.008-3.6 1.008-3.042 1.008-2.466 .918-1.926 .738-1.404 .558-.882 .306-.414 0 0" fill="#e1e1e1" fill-rule="evenodd"/><path transform="matrix(0,1,1,0,572.133,31.842)" d="M0 0-3.042 3.042-6.084 0C-5.67-.306-5.202-.558-4.68-.738-4.158-.918-3.6-1.008-3.042-1.008-2.484-1.008-1.926-.918-1.404-.738-.882-.558-.414-.306 0 0" fill="#e1e1e1" fill-rule="evenodd"/><path transform="matrix(0,1,1,0,590.871,43.884)" stroke-width=".288" stroke-linecap="round" stroke-linejoin="round" fill="none" stroke="#000000" d="M0 0 .036-.018"/><path transform="matrix(0,1,1,0,589.971,44.586)" d="M0 0V.684L-.036 .882-.126 1.026-.576 1.134H-.594L-.702 .9-.666 .882-.324 .828-.234 .738-.216 .576V.072L-.234 .036-.306 .018-2.538 .162V-.972L-3.402-.918-3.438-.846H-3.492L-3.528-.882-3.546-.972-3.582-1.206-2.538-1.242V-2.214H-2.322V-1.242L-1.98-1.314C-1.305-1.477-.791-1.723-.324-2.25L-.126-2.502-.072-2.484-.036-2.448 .072-2.358 .054-2.268C-.422-1.616-1.167-1.199-1.944-1.026L-2.322-.972V-.09L-.288-.234-.162-.216-.072-.18-.018-.108" fill-rule="evenodd"/><path transform="matrix(0,1,1,0,569.487,37.728)" d="M0 0 1.62-.648V-.216L0 .45H-.414V-.99H0" fill-rule="evenodd"/><path transform="matrix(0,1,1,0,573.465,38.214)" d="M0 0C0-.126 .108-.252 .216-.252H1.134V-.666H-.342V-.27H-.27C-.306-.216-.342-.162-.36-.108-.378-.036-.396 .018-.396 .072-.396 .27-.324 .396-.198 .468-.324 .576-.396 .702-.396 .882-.378 1.152-.27 1.332-.054 1.422-.036 1.422-.018 1.422 0 1.44H.018C.018 1.44 0 1.44 .018 1.44H.036C.036 1.44 .018 1.44 .036 1.44 .036 1.44 .054 1.44 .072 1.44H1.134V1.044H.126C.108 1.044 .072 1.026 .036 .99 .018 .954 0 .9 0 .846 0 .738 .108 .612 .216 .594H1.134V.198H.126C.054 .198 0 .108 0 0" fill-rule="evenodd"/><path transform="matrix(0,1,1,0,0,0)" d="M38.61 575.679H38.95201V576.34506H38.61Z"/><path transform="matrix(0,1,1,0,582.033,38.214)" d="M0 0C0-.108 .108-.252 .216-.252H1.134V-.648H-.342V-.252H-.27C-.306-.198-.342-.144-.36-.09-.378-.036-.396 .018-.396 .09-.396 .27-.324 .414-.198 .468-.324 .576-.396 .72-.396 .882-.378 1.17-.27 1.35-.054 1.422-.036 1.44-.018 1.44 0 1.44H.018C.018 1.44 0 1.44 .018 1.44H.036C.036 1.44 .018 1.44 .036 1.44 .036 1.44 .054 1.458 .072 1.458H1.134V1.062H.126C.126 1.062 .108 1.044 .09 1.044 .072 1.026 .054 1.026 .036 1.008 .018 .972 0 .918 0 .864 0 .738 .108 .612 .216 .612H1.134V.198H.126C.054 .198 0 .108 0 0" fill-rule="evenodd"/><path transform="matrix(0,1,1,0,576.759,38.034)" d="M0 0C.432 0 .702 .27 .702 .702 .702 .81 .684 .9 .666 .972 .63 1.062 .594 1.098 .558 1.098 .63 1.098 .684 1.098 .738 1.08 .792 1.062 .828 1.044 .864 1.008 .936 .954 .972 .864 .972 .756 .972 .702 .954 .648 .918 .594 .882 .522 .828 .486 .756 .432L.936 .072C1.224 .18 1.386 .432 1.386 .738 1.386 .99 1.296 1.188 1.116 1.332 .936 1.476 .666 1.53 .342 1.53-.036 1.53-.324 1.458-.504 1.332-.702 1.188-.792 .972-.792 .684-.792 .504-.72 .324-.576 .198-.522 .126-.432 .072-.342 .036-.252 .018-.144 0-.054 0H0ZM-.054 .414C-.252 .414-.414 .54-.414 .738-.414 .918-.252 1.062-.054 1.062 .036 1.062 .126 1.026 .198 .972 .27 .9 .306 .828 .306 .738 .306 .54 .162 .414-.054 .414" fill-rule="evenodd"/><path transform="matrix(0,1,1,0,581.079,38.61)" d="M0 0C.468 0 .81-.27 .81-.666 .81-.81 .738-.99 .666-1.008H1.242V-1.422H-.738V-1.044H-.684C-.702-1.026-.738-.99-.756-.9-.774-.828-.792-.738-.792-.684-.792-.468-.72-.306-.576-.18-.45-.054-.234 0 0 0ZM-.216-1.008H.162C.216-1.008 .288-.99 .342-.918 .396-.864 .414-.774 .414-.72 .414-.684 .414-.612 .378-.54 .342-.486 .27-.432 .216-.414H.198L.162-.396H-.18L-.234-.414C-.288-.432-.36-.486-.396-.54-.432-.612-.432-.666-.432-.702V-.738C-.414-.882-.324-1.008-.216-1.008" fill-rule="evenodd"/><path transform="matrix(0,1,1,0,571.971,38.394)" d="M0 0C0-.576 .162-.846 .486-.846 .648-.846 .792-.81 .882-.702 .972-.594 1.026-.45 1.026-.27 1.008-.126 .936 .054 .846 .09 .9 .108 .936 .162 .972 .216 .99 .288 1.008 .36 .99 .468L.702 .576C.702 .522 .684 .486 .666 .468 .648 .45 .63 .432 .594 .432H-.162C-.45 .396-.594 .18-.576-.18-.576-.324-.558-.45-.522-.54-.486-.648-.432-.738-.342-.828L-.054-.63C-.162-.504-.216-.36-.216-.18-.216-.108-.198-.072-.18-.036-.162-.018-.144-.018-.126 0-.108 0-.09 0-.054 0H0ZM.324 0H.576C.594-.018 .612-.036 .63-.072 .648-.108 .666-.144 .666-.198 .666-.27 .666-.342 .63-.378 .594-.414 .558-.432 .504-.432 .396-.432 .324-.288 .324 0" fill-rule="evenodd"/></g></svg>