<?xml version='1.0' encoding='UTF-8'?>
<svg xmlns="http://www.w3.org/2000/svg" xmlns:xlink="http://www.w3.org/1999/xlink" xmlns:inkscape="http://www.inkscape.org/namespaces/inkscape" version="1.1" width="567.000" height="269.280" viewBox="0 0 567.000 269.280"><g transform="scale(10.0) translate(-111.171, -101.088)"><defs><clipPath id="clip_19"><path transform="matrix(0,1,1,0,0,0)" d="M0 74.451H595.008V767.55899H0Z"/></clipPath><clipPath id="clip_20"><path transform="matrix(0,1,1,0,0,0)" d="M0 842.013H595.224V.008972168H0Z"/></clipPath></defs><path transform="matrix(0,1,1,0,151.923,114.696)" d="M0 0C-1.62 0-3.204-.306-4.698-.936-6.192-1.548-7.542-2.448-8.676-3.582-9.81-4.716-10.728-6.084-11.34-7.56-11.952-9.054-12.276-10.656-12.276-12.258-12.276-13.86-11.952-15.462-11.34-16.956-10.728-18.432-9.81-19.8-8.676-20.934-7.542-22.068-6.192-22.968-4.698-23.598-3.204-24.21-1.62-24.516 0-24.516 1.602-24.516 3.204-24.21 4.68-23.598 6.174-22.968 7.524-22.068 8.658-20.934 9.81-19.8 10.71-18.432 11.322-16.956 11.934-15.462 12.258-13.86 12.258-12.258 12.258-10.656 11.934-9.054 11.322-7.56 10.71-6.084 9.81-4.716 8.658-3.582 7.524-2.448 6.174-1.548 4.68-.936 3.204-.306 1.602 0 0 0" fill="#ffffff" fill-rule="evenodd"/><path transform="matrix(0,1,1,0,151.437,114.696)" d="M0 0C-1.548 0-3.078-.306-4.518-.9-5.94-1.494-7.236-2.358-8.334-3.438-9.432-4.536-10.296-5.832-10.89-7.272-11.484-8.694-11.772-10.224-11.772-11.772-11.772-13.32-11.484-14.85-10.89-16.272-10.296-17.712-9.432-19.008-8.334-20.106-7.236-21.186-5.94-22.05-4.518-22.644-3.078-23.238-1.548-23.544 0-23.544 1.548-23.544 3.078-23.238 4.5-22.644 5.922-22.05 7.218-21.186 8.316-20.106 9.414-19.008 10.278-17.712 10.872-16.272 11.466-14.85 11.772-13.32 11.772-11.772 11.772-10.224 11.466-8.694 10.872-7.272 10.278-5.832 9.414-4.536 8.316-3.438 7.218-2.358 5.922-1.494 4.5-.9 3.078-.306 1.548 0 0 0" fill="#00ff00" fill-rule="evenodd"/><path transform="matrix(0,1,1,0,138.477,109.242)" d="M0 0-.288 .558C-.414 .504-.54 .414-.648 .324-.774 .216-.882 .108-.972-.036-1.152-.306-1.26-.612-1.26-.954-1.242-1.296-1.134-1.62-.936-1.872-.828-1.998-.72-2.124-.594-2.214-.486-2.304-.36-2.376-.234-2.448-.09-2.502 .036-2.556 .198-2.592 .36-2.646 .522-2.664 .702-2.664 1.062-2.682 1.44-2.61 1.782-2.43 2.124-2.25 2.376-2.016 2.556-1.728 2.628-1.602 2.682-1.458 2.718-1.314 2.754-1.188 2.772-1.044 2.772-.918 2.772-.738 2.736-.558 2.664-.396 2.574-.216 2.466-.072 2.34 .054H2.304 2.646V.63H.54V-1.026H1.08V.054H1.314C1.53 .054 1.764-.036 1.908-.216 2.07-.414 2.178-.666 2.178-.918 2.178-1.08 2.124-1.26 2.016-1.422 1.908-1.602 1.71-1.746 1.476-1.854 1.242-1.962 .99-2.016 .738-2.016 .486-2.016 .252-1.962 .072-1.872-.108-1.8-.288-1.692-.414-1.53-.558-1.368-.648-1.17-.648-.954-.666-.756-.594-.558-.468-.378-.342-.216-.18-.09 0 0" fill="#ffffff" fill-rule="evenodd"/><path transform="matrix(0,1,1,0,141.771,107.982)" d="M0 0C0-.45 .216-.9 .594-1.224 .972-1.548 1.494-1.746 2.016-1.746 2.25-1.746 2.52-1.71 2.754-1.62 3.006-1.53 3.24-1.404 3.438-1.224 3.654-1.062 3.798-.846 3.888-.63 3.996-.414 4.032-.198 4.032 0 4.032 .468 3.816 .918 3.438 1.242 3.06 1.566 2.556 1.746 2.016 1.746 1.782 1.746 1.53 1.71 1.278 1.62 1.026 1.548 .792 1.404 .594 1.242 .396 1.062 .252 .864 .144 .648 .054 .432 0 .216 0 0ZM.594 0C.594 .288 .756 .576 1.026 .774 1.278 .99 1.638 1.098 2.016 1.098 2.196 1.098 2.358 1.08 2.538 1.026 2.718 .972 2.88 .882 3.024 .774 3.168 .666 3.276 .54 3.33 .414 3.402 .27 3.438 .144 3.438 0 3.438-.288 3.294-.558 3.024-.756 2.754-.972 2.394-1.08 2.016-1.08 1.854-1.08 1.674-1.062 1.494-1.008 1.314-.954 1.152-.864 1.026-.756 .882-.666 .774-.522 .702-.396 .63-.252 .594-.126 .594 0" fill="#ffffff" fill-rule="evenodd"/><path transform="matrix(0,1,1,0,137.631,115.866)" d="M0 0H.558V1.728H1.584V-.774H2.178V1.458L3.762 .558 3.816-.396 4.23-.306 4.428-.252 4.518-.18 4.5-.09 4.392 .018 3.996 3.744 4.626 4.158 4.284 4.68 3.402 4.05 2.556 3.276 2.898 2.844 3.24 3.15 3.51 3.366 3.708 1.278 2.412 2.124 2.358 2.232 2.304 2.25 2.232 2.196 2.178 2.07V4.842H1.584V2.34H.558V4.086H0V2.34H-.684L-.756 2.484H-.81L-.864 2.358-.918 2.106-.954 1.728H0" fill="#ffffff" fill-rule="evenodd"/><path transform="matrix(0,1,1,0,151.923,114.696)" stroke-width=".288" stroke-linecap="round" stroke-linejoin="round" fill="none" stroke="#00ff00" d="M0 0C-3.258 0-6.372-1.278-8.676-3.582-10.98-5.886-12.276-9-12.276-12.258-12.276-15.516-10.98-18.63-8.676-20.934-6.372-23.238-3.258-24.516 0-24.516 3.24-24.516 6.372-23.238 8.658-20.934 10.962-18.63 12.258-15.516 12.258-12.258 12.258-9 10.962-5.886 8.658-3.582 6.372-1.278 3.24 0 0 0"/></g></svg>