<?xml version='1.0' encoding='UTF-8'?>
<svg xmlns="http://www.w3.org/2000/svg" xmlns:xlink="http://www.w3.org/1999/xlink" xmlns:inkscape="http://www.inkscape.org/namespaces/inkscape" version="1.1" width="567.000" height="269.280" viewBox="0 0 567.000 269.280"><g transform="scale(10.0) translate(-438.573, -101.088)"><defs><clipPath id="clip_19"><path transform="matrix(0,1,1,0,0,0)" d="M0 74.451H595.008V767.55899H0Z"/></clipPath><clipPath id="clip_20"><path transform="matrix(0,1,1,0,0,0)" d="M0 842.013H595.224V.008972168H0Z"/></clipPath></defs><path transform="matrix(0,1,1,0,479.559,114.696)" d="M0 0C-1.656 0-3.276-.324-4.788-.954-6.3-1.584-7.686-2.502-8.856-3.672-10.008-4.824-10.926-6.21-11.556-7.722-12.186-9.252-12.51-10.872-12.51-12.51-12.51-14.148-12.186-15.786-11.556-17.298-10.926-18.81-10.008-20.196-8.856-21.348-7.686-22.518-6.3-23.436-4.788-24.066-3.276-24.696-1.656-25.02 0-25.02 1.638-25.02 3.258-24.696 4.788-24.066 6.3-23.436 7.668-22.518 8.838-21.348 9.99-20.196 10.926-18.81 11.556-17.298 12.168-15.786 12.492-14.148 12.492-12.51 12.492-10.872 12.168-9.252 11.556-7.722 10.926-6.21 9.99-4.824 8.838-3.672 7.668-2.502 6.3-1.584 4.788-.954 3.258-.324 1.638 0 0 0" fill="#ff0000" fill-rule="evenodd"/><path transform="matrix(0,1,1,0,477.057,114.696)" d="M0 0C-1.314 0-2.628-.27-3.834-.774-5.04-1.278-6.156-2.016-7.074-2.934-8.01-3.87-8.748-4.968-9.252-6.174-9.756-7.398-10.008-8.694-10.008-10.008-10.008-11.322-9.756-12.618-9.252-13.842-8.748-15.048-8.01-16.146-7.074-17.082-6.156-18.018-5.04-18.756-3.834-19.26-2.628-19.764-1.314-20.016 0-20.016 1.314-20.016 2.61-19.764 3.816-19.26 5.04-18.756 6.138-18.018 7.074-17.082 7.992-16.146 8.73-15.048 9.234-13.842 9.738-12.618 9.99-11.322 9.99-10.008 9.99-8.694 9.738-7.398 9.234-6.174 8.73-4.968 7.992-3.87 7.074-2.934 6.138-1.998 5.04-1.278 3.816-.774 2.61-.27 1.314 0 0 0" fill="#ffffff" fill-rule="evenodd"/><path transform="matrix(0,1,1,0,467.049,108.846)" d="M0 0-3.33-2.502V2.502" fill-rule="evenodd"/><path transform="matrix(0,1,1,0,467.049,120.528)" d="M0 0 3.33 2.502V-2.502" fill-rule="evenodd"/><path transform="matrix(0,1,1,0,473.781,114.876)" d="M0 0C0-.108 .036-.252 .126-.378 .216-.486 .342-.54 .432-.558H2.412V-1.422H.252C.108-1.44 0-1.62 0-1.854 0-1.962 .036-2.106 .126-2.214 .234-2.34 .342-2.394 .432-2.394H2.412V-3.258H-.756V-2.412H-.594C-.684-2.304-.756-2.196-.792-2.07-.846-1.944-.864-1.8-.864-1.674-.864-1.26-.72-.99-.432-.828-.72-.612-.864-.306-.864 .054-.846 .648-.594 1.044-.108 1.224-.072 1.242-.054 1.242-.018 1.26H0C.018 1.26 .036 1.26 .054 1.26 .072 1.278 .108 1.278 .126 1.278H2.412V.432H.27C.234 .432 .198 .414 .162 .396 .144 .378 .108 .342 .072 .306 .036 .216 0 .108 0 0" fill-rule="evenodd"/><path transform="matrix(0,1,1,0,461.901,115.668)" d="M0 0V.63H.9V0H1.62V-.9H.9V-3.258H.054L-2.754-1.152V0H0ZM-1.62-.9 0-2.106V-.9H-1.62" fill-rule="evenodd"/><path transform="matrix(0,1,1,0,464.169,116.928)" d="M0 0C-.27 0-.468-.216-.468-.486-.468-.738-.27-.954 0-.954 .252-.954 .468-.738 .468-.486 .468-.216 .252 0 0 0" fill-rule="evenodd"/><path transform="matrix(0,1,1,0,465.807,114.534)" d="M0 0C-.09 .018-.18 .108-.234 .27-.288 .432-.306 .648-.306 .882-.306 1.314-.18 1.71 .108 1.998 .234 2.124 .414 2.232 .594 2.304 .792 2.376 .99 2.412 1.206 2.412H1.314C1.53 2.412 1.728 2.376 1.944 2.304 2.142 2.232 2.322 2.124 2.466 1.98 2.628 1.836 2.736 1.674 2.808 1.476 2.88 1.296 2.916 1.098 2.916 .9 2.916-.324 2.088-.936 .45-.936-.252-.936-.81-.792-1.188-.486-1.584-.18-1.764 .252-1.764 .792-1.764 1.116-1.692 1.422-1.53 1.674-1.368 1.926-1.116 2.124-.81 2.25L-.432 1.458C-.738 1.26-.9 .99-.9 .738-.9 .504-.828 .324-.666 .198-.594 .126-.486 .09-.378 .054-.27 .018-.144 0 0 0ZM.558 .81C.558 .612 .63 .432 .774 .306 .9 .18 1.098 .108 1.314 .108 1.53 .108 1.728 .162 1.872 .306 2.016 .432 2.088 .612 2.088 .81 2.088 .99 2.016 1.17 1.872 1.314 1.728 1.44 1.53 1.494 1.314 1.494 1.098 1.494 .9 1.44 .774 1.314 .63 1.188 .558 1.008 .558 .81" fill-rule="evenodd"/></g></svg>