<?xml version='1.0' encoding='UTF-8'?>
<svg xmlns="http://www.w3.org/2000/svg" xmlns:xlink="http://www.w3.org/1999/xlink" xmlns:inkscape="http://www.inkscape.org/namespaces/inkscape" version="1.1" width="567.000" height="269.280" viewBox="0 0 567.000 269.280"><g transform="scale(10.0) translate(-220.305, -20.304)"><defs><clipPath id="clip_19"><path transform="matrix(0,1,1,0,0,0)" d="M0 74.451H595.008V767.55899H0Z"/></clipPath><clipPath id="clip_20"><path transform="matrix(0,1,1,0,0,0)" d="M0 842.013H595.224V.008972168H0Z"/></clipPath></defs><path transform="matrix(0,1,1,0,229.431,46.602)" d="M0 0V38.718C0 38.97-.036 39.222-.144 39.474-.234 39.726-.396 39.96-.594 40.158-.792 40.356-1.026 40.518-1.278 40.608-1.53 40.716-1.782 40.752-2.034 40.752H-23.364C-23.598 40.752-23.868 40.716-24.12 40.608-24.372 40.518-24.606 40.356-24.804 40.158-25.002 39.96-25.146 39.726-25.254 39.474-25.362 39.222-25.398 38.97-25.398 38.718V0C-25.398-.234-25.362-.486-25.254-.738-25.146-1.008-25.002-1.242-24.804-1.44-24.606-1.638-24.372-1.782-24.12-1.89-23.868-1.98-23.598-2.034-23.364-2.034H-2.034C-1.782-2.034-1.53-1.98-1.278-1.89-1.026-1.782-.792-1.638-.594-1.44-.396-1.242-.234-1.008-.144-.738-.036-.486 0-.234 0 0" fill="#ffffff" fill-rule="evenodd"/><path transform="matrix(0,1,1,0,229.431,22.23)" d="M0 0V38.718C0 38.844 .018 38.97 .054 39.096 .108 39.222 .18 39.348 .288 39.438 .396 39.546 .504 39.618 .63 39.672 .756 39.708 .882 39.744 1.008 39.744H22.338C22.464 39.744 22.59 39.708 22.716 39.672 22.842 39.618 22.968 39.546 23.058 39.438 23.166 39.348 23.238 39.222 23.292 39.096 23.346 38.97 23.364 38.844 23.364 38.718V0C23.364-.126 23.346-.252 23.292-.378 23.238-.504 23.166-.612 23.058-.72 22.968-.81 22.842-.9 22.716-.936 22.59-.99 22.464-1.008 22.338-1.008H1.008C.882-1.008 .756-.99 .63-.936 .504-.9 .396-.81 .288-.72 .18-.612 .108-.504 .054-.378 .018-.252 0-.126 0 0" fill="#0000ff" fill-rule="evenodd"/><path transform="matrix(0,1,1,0,267.303,37.926)" d="M0 0H-2.682L-.9-1.782H-10.71V-3.564H-.9L-2.682-5.346H0L2.664-2.682" fill="#ffffff" fill-rule="evenodd"/><path transform="matrix(0,1,1,0,0,0)" d="M23.238 259.059H44.568V260.085H23.238Z" fill="#ffffff"/><path transform="matrix(0,1,1,0,0,0)" d="M23.238 257.025H44.568V258.051H23.238Z" fill="#ffffff"/><path transform="matrix(0,1,1,0,255.153,29.898)" d="M0 0H2.664L.882-1.782H10.692V-3.564H.882L2.664-5.346H0L-2.682-2.664" fill="#ffffff" fill-rule="evenodd"/><path transform="matrix(0,1,1,0,0,0)" d="M23.562 246.603H44.262V247.935H23.562Z" fill="#ffffff"/><path transform="matrix(0,1,1,0,239.115,42.66)" d="M0 0V-3.816H-.18C-.306-3.816-.432-3.834-.558-3.888-.684-3.924-.792-3.996-.9-4.104-1.008-4.194-1.08-4.32-1.134-4.446-1.17-4.572-1.206-4.698-1.206-4.824-1.206-4.932-1.17-5.058-1.134-5.184-1.08-5.31-1.008-5.436-.9-5.526-.792-5.634-.684-5.706-.558-5.76-.432-5.796-.306-5.814-.18-5.814H0V-8.424C0-8.532-.036-8.622-.108-8.712-.144-8.748-.198-8.784-.252-8.802-.306-8.82-.342-8.82-.396-8.82H-1.278C-1.35-8.82-1.44-8.82-1.512-8.784L-2.61-8.46-5.85-8.136C-5.94-8.136-6.03-8.1-6.102-8.01-6.138-7.974-6.174-7.938-6.192-7.884-6.21-7.83-6.21-7.794-6.21-7.74V4.806C-6.21 5.004-6.138 5.22-5.976 5.382-5.904 5.454-5.814 5.526-5.706 5.562-5.598 5.598-5.508 5.616-5.418 5.616H-.594L0 2.682V1.998H-.18C-.306 1.998-.432 1.98-.558 1.944-.684 1.89-.792 1.818-.9 1.71-1.008 1.62-1.08 1.494-1.134 1.368-1.17 1.242-1.206 1.116-1.206 1.008-1.206 .882-1.17 .756-1.134 .63-1.08 .504-1.008 .378-.9 .288-.792 .18-.684 .108-.558 .072-.432 .018-.306 0-.18 0H0ZM-3.402 3.204H-2.196V5.2200005H-3.402ZM-3.402 1.008H-2.196V2.808H-3.402ZM-3.402-1.206H-2.196V.594H-3.402ZM-3.402-3.42H-2.196V-1.6020001H-3.402ZM-3.402-5.616H-2.196V-3.8160003H-3.402ZM-2.196-5.616ZM-3.402-7.218H-.3959999V-6.012H-3.402ZM-.396-7.218ZM-2.394-8.28V-7.632H-3.402V-8.172L-2.394-8.28ZM-4.608-7.866V-6.012H-5.814V-7.74L-4.608-7.866ZM-5.814-5.616H-4.6080005V-3.8160003H-5.814ZM-4.608-5.616ZM-5.814-3.42H-4.6080005V-1.6020001H-5.814ZM-4.608-3.42ZM-5.814-1.206H-4.6080005V.594H-5.814ZM-4.608-1.206ZM-4.608 2.808H-5.8139998V1.0080001H-4.608ZM-4.608 3.204V5.22H-5.418C-5.508 5.22-5.616 5.184-5.688 5.094-5.778 5.004-5.814 4.914-5.814 4.806V3.204H-4.608" fill="#ffffff" fill-rule="evenodd"/><path transform="matrix(0,1,1,0,239.115,42.66)" d="M0 0V0" fill="#ffffff" fill-rule="evenodd"/><path transform="matrix(0,1,1,0,235.299,42.66)" d="M0 0V0" fill="#ffffff" fill-rule="evenodd"/><path transform="matrix(0,1,1,0,240.915,42.462)" d="M0 0C-.216 0-.414-.09-.558-.234-.72-.378-.792-.594-.792-.792-.792-1.008-.72-1.224-.558-1.368-.414-1.512-.216-1.602 0-1.602 .216-1.602 .414-1.512 .576-1.368 .72-1.224 .81-1.008 .81-.792 .81-.594 .72-.378 .576-.234 .414-.09 .216 0 0 0ZM0-.396C.216-.396 .396-.576 .396-.792 .396-.9 .36-1.008 .288-1.08 .198-1.17 .108-1.206 0-1.206-.09-1.206-.198-1.17-.288-1.08-.36-1.008-.396-.9-.396-.792-.396-.576-.216-.396 0-.396" fill="#ffffff" fill-rule="evenodd"/><path transform="matrix(0,1,1,0,235.101,42.462)" d="M0 0C-.216 0-.414-.09-.558-.234-.72-.378-.792-.594-.792-.81-.792-1.008-.72-1.224-.558-1.368-.414-1.512-.216-1.602 0-1.602 .216-1.602 .414-1.512 .576-1.368 .72-1.224 .81-1.008 .81-.81 .81-.594 .72-.378 .576-.234 .414-.09 .216 0 0 0ZM0-.396C.216-.396 .396-.576 .396-.81 .396-.9 .36-1.008 .288-1.08 .198-1.17 .108-1.206 0-1.206-.09-1.206-.198-1.17-.288-1.08-.36-1.008-.396-.9-.396-.81-.396-.576-.216-.396 0-.396" fill="#ffffff" fill-rule="evenodd"/><path transform="matrix(0,1,1,0,240.177,27.018)" d="M0 0H2.682L.9-1.782H8.028V-3.564H.9L2.682-5.346H0L-2.664-2.664" fill="#ffffff" fill-rule="evenodd"/><path transform="matrix(0,1,1,0,268.149,46.602006)" stroke-width=".288" stroke-linecap="round" stroke-linejoin="round" fill="none" stroke="#0000ff" d="M0 0C0 1.134-.9 2.034-2.034 2.034"/><path transform="matrix(0,1,1,0,229.43099,46.602006)" stroke-width=".288" stroke-linecap="round" stroke-linejoin="round" fill="none" stroke="#0000ff" d="M0 0V38.718"/><path transform="matrix(0,1,1,0,227.39699,44.568006)" stroke-width=".288" stroke-linecap="round" stroke-linejoin="round" fill="none" stroke="#0000ff" d="M0 0C1.134 0 2.034 .918 2.034 2.034"/><path transform="matrix(0,1,1,0,227.39699,23.238005)" stroke-width=".288" stroke-linecap="round" stroke-linejoin="round" fill="none" stroke="#0000ff" d="M0 0H21.33"/><path transform="matrix(0,1,1,0,229.431,21.204)" stroke-width=".288" stroke-linecap="round" stroke-linejoin="round" fill="none" stroke="#0000ff" d="M0 0C0-1.116 .918-2.034 2.034-2.034"/><path transform="matrix(0,1,1,0,268.149,21.204)" stroke-width=".288" stroke-linecap="round" stroke-linejoin="round" fill="none" stroke="#0000ff" d="M0 0V-38.718"/><path transform="matrix(0,1,1,0,270.18299,23.238)" stroke-width=".288" stroke-linecap="round" stroke-linejoin="round" fill="none" stroke="#0000ff" d="M0 0C-1.116 0-2.034-.9-2.034-2.034"/><path transform="matrix(0,1,1,0,270.18299,44.568)" stroke-width=".288" stroke-linecap="round" stroke-linejoin="round" fill="none" stroke="#0000ff" d="M0 0H-21.33"/></g></svg>