<?xml version='1.0' encoding='UTF-8'?>
<svg xmlns="http://www.w3.org/2000/svg" xmlns:xlink="http://www.w3.org/1999/xlink" xmlns:inkscape="http://www.inkscape.org/namespaces/inkscape" version="1.1" width="567.000" height="269.280" viewBox="0 0 567.000 269.280"><g transform="scale(10.0) translate(-111.171, -20.304)"><defs><clipPath id="clip_19"><path transform="matrix(0,1,1,0,0,0)" d="M0 74.451H595.008V767.55899H0Z"/></clipPath><clipPath id="clip_20"><path transform="matrix(0,1,1,0,0,0)" d="M0 842.013H595.224V.008972168H0Z"/></clipPath></defs><path transform="matrix(0,1,1,0,134.175,21.456)" d="M0 0 6.966-6.966C7.038-7.038 7.128-7.092 7.218-7.146 7.326-7.182 7.416-7.2 7.524-7.2H17.37C17.478-7.2 17.586-7.182 17.676-7.146 17.784-7.092 17.874-7.038 17.946-6.966L24.912 0C24.984 .072 25.038 .162 25.074 .252 25.128 .36 25.146 .468 25.146 .558V10.422C25.146 10.512 25.128 10.62 25.074 10.728 25.038 10.818 24.984 10.908 24.912 10.98L17.946 17.946C17.874 18.018 17.784 18.072 17.676 18.126 17.586 18.162 17.478 18.18 17.37 18.18H7.524C7.416 18.18 7.326 18.162 7.218 18.126 7.128 18.072 7.038 18.018 6.966 17.946L0 10.98C-.072 10.908-.144 10.818-.18 10.728-.216 10.62-.234 10.512-.234 10.422V.558C-.234 .468-.216 .36-.18 .252-.144 .162-.072 .072 0 0" fill="#ffffff" fill-rule="evenodd"/><path transform="matrix(0,1,1,0,135.021,22.698)" d="M0 0V9.288L6.57 15.858H15.858L22.428 9.288V0L15.858-6.57H6.57" fill="#ff0000" fill-rule="evenodd"/><path transform="matrix(0,1,1,0,133.815,31.734)" stroke-width=".288" stroke-linecap="round" stroke-linejoin="round" fill="none" stroke="#ffffff" d="M0 0V.018"/><path transform="matrix(0,1,1,0,134.391,28.998)" d="M0 0-.45 .594C-.954 .054-1.188-.45-1.188-1.062-1.188-1.476-1.08-1.926-.81-2.232-.576-2.484-.216-2.646 .144-2.646 .486-2.628 .846-2.484 1.044-2.232 1.116-2.124 1.17-1.998 1.206-1.872 1.314-1.62 1.35-1.35 1.404-1.062 1.404-1.008 1.422-.954 1.422-.882 1.476-.594 1.548-.306 1.764-.162 1.944-.054 2.196-.036 2.358-.108 2.646-.234 2.7-.594 2.7-.954 2.664-1.404 2.52-1.836 2.07-2.214L2.574-2.808C2.736-2.646 2.88-2.466 3.006-2.268 3.222-1.89 3.384-1.458 3.384-.99 3.384-.54 3.258-.036 2.97 .27 2.754 .504 2.448 .63 2.07 .684 1.944 .702 1.836 .684 1.728 .666 1.494 .612 1.26 .486 1.098 .306 1.026 .216 .954 .108 .918 0 .864-.108 .846-.216 .828-.324L.612-1.35C.594-1.44 .576-1.512 .522-1.602 .45-1.728 .306-1.854 .144-1.872-.036-1.89-.216-1.764-.342-1.638V-1.62C-.468-1.458-.504-1.314-.486-1.116-.468-.774-.324-.306 0 0" fill="#ffffff" fill-rule="evenodd"/><path transform="matrix(0,1,1,0,138.909,27.882)" d="M0 0V-3.24H.666V-1.998H4.446V-1.242H.666V0" fill="#ffffff" fill-rule="evenodd"/><path transform="matrix(0,1,1,0,141.519,27.756)" d="M0 0C0-.252 .054-.504 .162-.756 .27-1.008 .45-1.242 .684-1.44 .918-1.638 1.188-1.8 1.476-1.89 1.764-1.998 2.07-2.034 2.34-2.034 2.628-2.034 2.916-1.998 3.204-1.89 3.492-1.8 3.78-1.638 3.996-1.44 4.23-1.242 4.41-1.008 4.518-.756 4.644-.504 4.698-.252 4.698 0 4.698 .234 4.644 .486 4.518 .738 4.41 .99 4.23 1.224 3.996 1.44 3.78 1.638 3.492 1.782 3.204 1.89 2.916 1.98 2.628 2.034 2.34 2.034 2.07 2.034 1.764 1.98 1.476 1.89 1.188 1.782 .918 1.638 .684 1.44 .45 1.224 .27 .99 .162 .738 .054 .486 0 .234 0 0ZM.702 0C.702 .342 .864 .648 1.17 .9 1.494 1.134 1.908 1.26 2.34 1.26 2.538 1.26 2.754 1.242 2.952 1.17 3.15 1.116 3.348 1.026 3.51 .9 3.672 .774 3.798 .63 3.87 .468 3.96 .306 3.996 .144 3.996 0 3.996-.342 3.816-.666 3.51-.9 3.204-1.134 2.79-1.278 2.34-1.278 2.142-1.278 1.944-1.242 1.728-1.188 1.53-1.116 1.332-1.026 1.17-.9 1.008-.774 .882-.63 .81-.468 .72-.306 .702-.162 .702 0" fill="#ffffff" fill-rule="evenodd"/><path transform="matrix(0,1,1,0,146.631,27.882)" d="M0 0C0 .126 .018 .288 .09 .432 .162 .576 .27 .702 .414 .828 .54 .936 .702 1.026 .882 1.08 1.044 1.134 1.224 1.17 1.386 1.17 1.566 1.17 1.728 1.134 1.908 1.08 2.088 1.026 2.25 .936 2.376 .828 2.52 .702 2.628 .576 2.682 .432 2.754 .288 2.79 .126 2.79 0V-1.116H4.446V-1.872H0V0ZM.666-1.116H2.124V-.198C2.124-.054 2.052 .108 1.908 .234 1.764 .36 1.566 .414 1.386 .414 1.224 .414 1.026 .36 .882 .234 .81 .162 .756 .108 .72 .018 .684-.054 .666-.126 .666-.198V-1.116" fill="#ffffff" fill-rule="evenodd"/><path transform="matrix(0,1,1,0,138.477,36)" d="M0 0-.18-.432 .648-.738 1.44-1.08 2.16-1.458 2.844-1.872 3.312-1.404 2.718-1.062H6.336V-.432H1.53L.342 .108 .288 .288 .216 .324 .108 .234" fill="#ffffff" fill-rule="evenodd"/><path transform="matrix(0,1,1,0,140.475,35.874)" d="M0 0H.594V-1.746H1.152V2.52H.594V.648H.27L.18 .774 .126 .792 .072 .72 .036 .576" fill="#ffffff" fill-rule="evenodd"/><path transform="matrix(0,1,1,0,139.233,37.368)" d="M0 0H1.332V3.168H0ZM.864 .576H.46800003V2.574H.864Z" fill="#ffffff" fill-rule="evenodd"/><path transform="matrix(0,1,1,0,138.495,39.096)" d="M0 0H1.566V.612H.54V4.05H1.548V4.644H0" fill="#ffffff" fill-rule="evenodd"/><path transform="matrix(0,1,1,0,139.467,40.122)" d="M0 0H.576V1.17H1.116L1.35 1.152 1.512 1.062 1.602 .882 1.62 .648V.288L2.178 .45V.846L2.052 1.332 1.836 1.638 1.548 1.782 1.152 1.764H.576V2.682H0" fill="#ffffff" fill-rule="evenodd"/><path transform="matrix(0,1,1,0,144.597,21.222)" stroke-width=".288" stroke-linecap="round" stroke-linejoin="round" fill="none" stroke="#ff0000" d="M0 0C0 .198 .072 .414 .234 .558"/><path transform="matrix(0,1,1,0,134.733,21.222)" stroke-width=".288" stroke-linecap="round" stroke-linejoin="round" fill="none" stroke="#ff0000" d="M0 0V9.864"/><path transform="matrix(0,1,1,0,134.175,21.456)" stroke-width=".288" stroke-linecap="round" stroke-linejoin="round" fill="none" stroke="#ff0000" d="M0 0C-.162 .144-.234 .36-.234 .558"/><path transform="matrix(0,1,1,0,127.209,28.421999)" stroke-width=".288" stroke-linecap="round" stroke-linejoin="round" fill="none" stroke="#ff0000" d="M0 0-6.966 6.966"/><path transform="matrix(0,1,1,0,126.975,28.98)" stroke-width=".288" stroke-linecap="round" stroke-linejoin="round" fill="none" stroke="#ff0000" d="M0 0C-.216 0-.414 .09-.558 .234"/><path transform="matrix(0,1,1,0,126.975,38.826)" stroke-width=".288" stroke-linecap="round" stroke-linejoin="round" fill="none" stroke="#ff0000" d="M0 0H-9.846"/><path transform="matrix(0,1,1,0,127.209,39.402)" stroke-width=".288" stroke-linecap="round" stroke-linejoin="round" fill="none" stroke="#ff0000" d="M0 0C-.144-.144-.36-.234-.576-.234"/><path transform="matrix(0,1,1,0,134.175,46.368)" stroke-width=".288" stroke-linecap="round" stroke-linejoin="round" fill="none" stroke="#ff0000" d="M0 0-6.966-6.966"/><path transform="matrix(0,1,1,0,134.733,46.602)" stroke-width=".288" stroke-linecap="round" stroke-linejoin="round" fill="none" stroke="#ff0000" d="M0 0C0-.198-.09-.414-.234-.558"/><path transform="matrix(0,1,1,0,144.597,46.602)" stroke-width=".288" stroke-linecap="round" stroke-linejoin="round" fill="none" stroke="#ff0000" d="M0 0V-9.864"/><path transform="matrix(0,1,1,0,145.155,46.368)" stroke-width=".288" stroke-linecap="round" stroke-linejoin="round" fill="none" stroke="#ff0000" d="M0 0C.144-.144 .234-.36 .234-.558"/><path transform="matrix(0,1,1,0,152.121,39.402)" stroke-width=".288" stroke-linecap="round" stroke-linejoin="round" fill="none" stroke="#ff0000" d="M0 0 6.966-6.966"/><path transform="matrix(0,1,1,0,152.355,38.826)" stroke-width=".288" stroke-linecap="round" stroke-linejoin="round" fill="none" stroke="#ff0000" d="M0 0C.216 0 .414-.09 .576-.234"/><path transform="matrix(0,1,1,0,152.355,28.98)" stroke-width=".288" stroke-linecap="round" stroke-linejoin="round" fill="none" stroke="#ff0000" d="M0 0H9.846"/><path transform="matrix(0,1,1,0,152.121,28.421999)" stroke-width=".288" stroke-linecap="round" stroke-linejoin="round" fill="none" stroke="#ff0000" d="M0 0C.144 .144 .342 .234 .558 .234"/><path transform="matrix(0,1,1,0,145.155,21.456)" stroke-width=".288" stroke-linecap="round" stroke-linejoin="round" fill="none" stroke="#ff0000" d="M0 0 6.966 6.966"/></g></svg>