<?xml version='1.0' encoding='UTF-8'?>
<svg xmlns="http://www.w3.org/2000/svg" xmlns:xlink="http://www.w3.org/1999/xlink" xmlns:inkscape="http://www.inkscape.org/namespaces/inkscape" version="1.1" width="567.000" height="269.280" viewBox="0 0 567.000 269.280"><g transform="scale(10.0) translate(-220.305, -208.800)"><defs><clipPath id="clip_19"><path transform="matrix(0,1,1,0,0,0)" d="M0 74.451H595.008V767.55899H0Z"/></clipPath><clipPath id="clip_20"><path transform="matrix(0,1,1,0,0,0)" d="M0 842.013H595.224V.008972168H0Z"/></clipPath></defs><path transform="matrix(0,1,1,0,229.305,233.01)" stroke-width=".288" stroke-linecap="round" stroke-linejoin="round" fill="none" stroke="#000000" d="M0 0V.9"/><path transform="matrix(0,1,1,0,229.305,233.01)" d="M0 0H-21.222C-21.42 0-21.654 .036-21.87 .126-22.104 .216-22.302 .342-22.482 .522-22.662 .702-22.788 .918-22.878 1.134-22.968 1.35-23.004 1.584-23.004 1.8V37.188C-23.004 37.656-22.824 38.106-22.482 38.448-22.14 38.79-21.69 38.97-21.222 38.97H0C.216 38.97 .432 38.934 .648 38.844 .882 38.754 1.08 38.628 1.26 38.448 1.44 38.268 1.584 38.07 1.656 37.836 1.746 37.62 1.782 37.386 1.782 37.188V1.8C1.782 1.584 1.746 1.35 1.656 1.134 1.584 .918 1.44 .702 1.26 .522 1.08 .342 .882 .216 .648 .126 .432 .036 .216 0 0 0ZM0 .9C.234 .9 .468 .99 .63 1.152 .792 1.332 .9 1.566 .9 1.8V37.188C.9 37.278 .882 37.404 .828 37.512 .792 37.62 .72 37.728 .63 37.818 .45 37.998 .216 38.07 0 38.07H-21.222C-21.33 38.07-21.438 38.052-21.546 38.016-21.654 37.962-21.762 37.908-21.852 37.818-22.032 37.638-22.122 37.404-22.122 37.188V1.8C-22.122 1.584-22.032 1.35-21.852 1.152-21.762 1.08-21.654 1.008-21.546 .954-21.438 .918-21.33 .9-21.222 .9H0" fill-rule="evenodd"/><path transform="matrix(0,1,1,0,267.375,211.788)" d="M0 0C-.234 0-.468-.09-.63-.252-.792-.432-.9-.648-.9-.882V-36.27C-.9-36.486-.81-36.72-.63-36.918-.45-37.098-.216-37.17 0-37.17H21.222C21.438-37.17 21.672-37.098 21.852-36.918 21.942-36.828 22.014-36.72 22.05-36.612 22.104-36.486 22.122-36.378 22.122-36.27V-.882C22.122-.666 22.032-.432 21.852-.252 21.672-.072 21.438 0 21.222 0H0" fill="#ffffff" fill-rule="evenodd"/><path transform="matrix(0,1,1,0,232.869,213.498)" d="M0 0V1.476H-.666V-.702H2.646V1.656H1.98V0H1.314V1.35H.666V0" fill-rule="evenodd"/><path transform="matrix(0,1,1,0,237.279,216.144)" d="M0 0H-1.674C-2.214 0-2.484-.324-2.484-.918-2.484-1.044-2.466-1.152-2.43-1.242-2.394-1.35-2.34-1.422-2.25-1.494H-2.412V-2.16H0V-1.494H-1.476C-1.728-1.44-1.854-1.296-1.872-1.026-1.854-.81-1.728-.684-1.476-.666H0V0" fill-rule="evenodd"/><path transform="matrix(0,1,1,0,245.433,214.326)" d="M0 0H1.818V-.594H0V-.972H-.54V-.594H-1.026C-1.188-.594-1.332-.522-1.422-.396-1.512-.252-1.548-.054-1.566 .198-1.548 .288-1.548 .378-1.53 .45-1.512 .522-1.494 .594-1.476 .666L-.936 .54C-.954 .396-.972 .27-.972 .126-.972 .09-.954 .054-.936 .036-.9 .018-.882 0-.828 0H-.54V.522H0V0" fill-rule="evenodd"/><path transform="matrix(0,1,1,0,250.365,215.496)" d="M0 0C.18 0 .378 .09 .54 .27 .702 .45 .756 .702 .756 .918 .756 1.044 .738 1.188 .702 1.314 .666 1.44 .612 1.494 .576 1.494H.702V2.196H-1.71V1.53H-.342C-.234 1.53-.108 1.494-.018 1.404 .09 1.314 .126 1.188 .126 1.08 .126 .99 .09 .882 0 .792-.072 .702-.18 .666-.252 .666H-1.71V0H0" fill-rule="evenodd"/><path transform="matrix(0,1,1,0,253.785,214.434)" d="M0 0V0"/><path transform="matrix(0,1,1,0,253.785,214.434)" d="M0 0H-.018 0C0 0 0 0 0 0 0 0 .018 0 .018 .018 .036 .018 .036 .018 .054 .036 .072 .054 .09 .09 .108 .126 .144 .198 .162 .324 .162 .504 .252 1.044 .522 1.296 .99 1.278 1.512 1.278 1.818 .918 1.818 .288 1.818 .054 1.782-.162 1.71-.36 1.62-.54 1.494-.702 1.35-.828L.9-.378C1.098-.18 1.206 .036 1.224 .306 1.224 .396 1.188 .468 1.17 .522 1.134 .558 1.08 .576 1.026 .576 .864 .576 .774 .396 .774 .036 .702-.396 .45-.63 .036-.666-.522-.648-.81-.306-.81 .378-.81 .576-.756 .756-.702 .9-.63 1.044-.54 1.17-.414 1.26L.036 .864C-.126 .738-.216 .558-.234 .342-.216 .234-.198 .144-.162 .09-.126 .036-.072 0-.018 0H0" fill-rule="evenodd"/><path transform="matrix(0,1,1,0,256.611,212.832)" d="M0 0H2.808C2.808 0 2.844 0 2.862 0 2.88 0 2.898 0 2.952 .018 3.078 .036 3.186 .108 3.258 .234 3.348 .342 3.384 .504 3.384 .648 3.384 .756 3.366 .9 3.348 1.008 3.348 1.062 3.348 1.098 3.33 1.116 3.33 1.152 3.312 1.152 3.312 1.152L2.718 1.08C2.772 .828 2.772 .684 2.718 .666 2.718 .666 2.7 .666 2.682 .666H2.61L2.592 .648H0V0" fill-rule="evenodd"/><path transform="matrix(0,1,1,0,261.543,216.144)" d="M0 0V-.666H-2.412V0H-2.25C-2.34 .072-2.394 .144-2.43 .252-2.466 .342-2.484 .45-2.484 .558-2.484 1.17-2.214 1.476-1.674 1.494H0V.828H-1.476C-1.728 .81-1.854 .684-1.872 .468-1.854 .198-1.728 .054-1.476 0H0" fill-rule="evenodd"/><path transform="matrix(0,1,1,0,243.021,213.66)" d="M0 0C0-.36 .108-.666 .342-.864 .558-1.08 .9-1.17 1.296-1.17 2.124-1.17 2.592-.756 2.592 0 2.592 .36 2.484 .666 2.268 .864 2.034 1.062 1.71 1.17 1.296 1.17 .468 1.17 0 .738 0 0ZM.666 0C.666 .306 .882 .486 1.296 .486 1.494 .486 1.656 .432 1.764 .36 1.89 .27 1.944 .144 1.944 0 1.944-.306 1.71-.486 1.296-.486 .882-.486 .666-.306 .666 0" fill-rule="evenodd"/><path transform="matrix(0,1,1,0,239.511,213.876)" d="M0 0C-.126-.234-.18-.45-.18-.63-.144-1.206 .198-1.62 .864-1.692H1.206C2.016-1.602 2.412-1.134 2.376-.576 2.376-.306 2.322-.108 2.214-.018H2.322V.648H-1.044V0H0V.018 0ZM1.476-.018C1.674-.108 1.8-.27 1.818-.504 1.782-.864 1.548-1.044 1.098-1.062 .684-1.026 .468-.846 .432-.486 .45-.36 .486-.234 .594-.126 .594-.126 .594-.108 .612-.09 .63-.072 .684-.036 .72-.036 .774-.018 .81-.018 .9-.018H1.476" fill-rule="evenodd"/><path transform="matrix(0,1,1,0,247.611,212.832)" d="M0 0H3.366V.666H3.24C3.384 .864 3.438 1.08 3.42 1.314 3.42 1.62 3.312 1.89 3.096 2.088 2.862 2.286 2.556 2.376 2.196 2.376 1.8 2.376 1.458 2.268 1.224 2.07 .99 1.872 .864 1.602 .864 1.26 .846 1.008 .918 .792 1.062 .63H0V0ZM2.826 1.17C2.826 1.044 2.79 .936 2.736 .846 2.682 .756 2.592 .702 2.466 .666H1.782C1.566 .792 1.458 .954 1.44 1.17 1.476 1.548 1.71 1.728 2.16 1.71 2.592 1.692 2.808 1.512 2.826 1.17" fill-rule="evenodd"/><path transform="matrix(0,1,1,0,265.719,215.82)" d="M0 0C.126-.054 .234-.18 .324-.36 .414-.522 .45-.72 .432-.918 .432-1.08 .396-1.242 .324-1.422 .252-1.584 .126-1.746 0-1.854-.234-2.034-.522-2.124-.882-2.124-1.728-2.052-2.142-1.692-2.16-1.044-2.142-.666-1.998-.378-1.746-.18-1.494 0-1.116 .09-.63 .072V-1.422C-.504-1.422-.378-1.386-.288-1.278-.198-1.17-.162-1.026-.162-.918-.162-.81-.18-.702-.234-.612-.27-.504-.324-.432-.396-.378L0 0ZM-1.134-1.458V-.558H-1.206C-1.296-.594-1.386-.648-1.458-.738-1.53-.81-1.566-.918-1.566-1.008-1.566-1.098-1.53-1.224-1.44-1.314-1.35-1.404-1.242-1.458-1.152-1.458H-1.134" fill-rule="evenodd"/><path transform="matrix(0,1,1,0,259.653,215.982)" d="M0 0C.09 .036 .162 .108 .198 .198 .234 .306 .252 .45 .234 .63L-.252 .792C-.252 .72-.252 .648-.288 .612-.306 .576-.36 .558-.396 .558H-1.638C-2.106 .486-2.34 .162-2.322-.45-2.322-.684-2.304-.864-2.232-1.044-2.178-1.224-2.07-1.368-1.944-1.494L-1.476-1.17C-1.656-.972-1.746-.72-1.728-.432-1.746-.324-1.728-.252-1.674-.216-1.656-.18-1.638-.162-1.602-.162-1.566-.144-1.53-.144-1.476-.144H-1.368C-1.368-1.08-1.116-1.548-.594-1.548-.324-1.548-.108-1.458 .054-1.296 .198-1.134 .27-.882 .27-.576 .27-.486 .234-.342 .18-.234 .126-.108 .072-.018 0 0ZM-.864-.144H-.45C-.414-.162-.378-.216-.342-.27-.324-.324-.306-.378-.288-.468-.288-.594-.306-.702-.36-.756-.396-.828-.468-.846-.558-.846-.756-.846-.846-.612-.864-.144" fill-rule="evenodd"/><path transform="matrix(0,1,1,0,256.701,219.852)" d="M0 0-.09 .738H-.468L-.414 .09-.612 .324-.882 .09-1.098-.18-.846-.468-.414-.018-.342-.792-.522-.846H-.756L-.882-.72-.99-.774-1.044-1.242H-.666L-.306-1.206-.234-1.674H.18L.108-1.098 .378-.99 .612-.81 .792-1.206 .918-1.692 1.26-1.458 1.116-.972 .918-.54 1.134-.198 1.26 .18V.396L1.152 .594 .936 .756 .612 .864 .324 .504 .648 .432 .756 .36 .81 .252 .774 .072 .666-.144 .414 .18 .396 .306 .288 .324 0 0V-.018L.396-.45 .252-.576 .072-.666 0-.018H-.018" fill-rule="evenodd"/><path transform="matrix(0,1,1,0,256.467,221.058)" d="M0 0 .288-.252 .63 .252 .72-.504 .522-.576H.306L.252-.504 .18-.468 .126-.486 .072-.54 .036-.99H.414L.774-.936 .846-1.386H1.26L1.188-.846 1.476-.756 1.728-.576 1.89-.99 2.016-1.44 2.394-1.242 2.232-.738 2.052-.306 2.286 .072 2.412 .54 2.394 .756 2.286 .936 2.106 1.062 1.818 1.152 1.566 .792 1.836 .702 1.944 .63 1.98 .504 1.926 .324 1.8 .09 1.44 .504V.612L1.422 .684 1.368 .702 1.278 .684 1.026 .378 .936 1.008H.54L.612 .288 .342 .54 0 0ZM1.134-.432 1.026 .252 1.512-.18 1.332-.324 1.134-.432" fill-rule="evenodd"/><path transform="matrix(0,1,1,0,253.857,218.754)" d="M0 0 .882-.54 .774-.666 1.08-.9 1.602-.144 2.322-.612V-.972L2.718-.882 2.844-.846 2.898-.792 2.862-.756 2.772-.702 2.664-.126H4.77V.306H2.574L2.52 .648 2.862 .72 2.772 1.116 2.232 .972 1.746 .774 1.854 .45 2.142 .54 2.25-.09 1.134 .738 1.08 .828 1.026 .882 .972 .864 .918 .792 .738 .468 1.26 .09 1.08-.162 .36 .306 .27 .432 .162 .396" fill-rule="evenodd"/><path transform="matrix(0,1,1,0,253.443,221.796)" d="M0 0V-.36H.648L1.296-.504 1.368-.036 .846 .054 .144 .09 .09 .162 .036 .18 .018 .126" fill-rule="evenodd"/><path transform="matrix(0,1,1,0,254.649,221.76)" d="M0 0 .09-.36 .612-.288 1.224-.252 1.098 .216" fill-rule="evenodd"/><path transform="matrix(0,1,1,0,239.997,218.97)" d="M0 0H3.96L4.23 .018 4.428 .126 4.536 .324 4.554 .594V3.6L4.536 3.834 4.5 4.032 4.41 4.212 4.284 4.356 4.122 4.464 3.924 4.554 3.672 4.608 3.402 4.644 3.258 4.14 3.618 4.068 3.87 3.942 4.032 3.744 4.068 3.492V.684L4.014 .594 3.924 .558H2.16V3.51H2.448V4.032H0V0ZM1.656 .558H.46800006V1.71H1.656ZM1.656 2.214H.46800006V3.51H1.656Z" fill-rule="evenodd"/><path transform="matrix(0,1,1,0,248.925,218.808)" d="M0 0-.018-.414H1.566V-2.574H2.07V-.414H3.978V-2.25H4.446V1.944H3.978V.126H2.07V2.268H1.566V.126H.216L.144 .252 .072 .27 .036 .198" fill-rule="evenodd"/><path transform="matrix(0,1,1,0,244.461,226.638)" d="M0 0-.18-.306 .576-.846 .396-1.098 .756-1.386 1.422-.486 2.106-.972 2.142-1.35 2.484-1.278 2.628-1.242 2.682-1.188 2.664-1.134 2.556-1.08 2.43-.486H4.644V-.036H2.358L2.304 .378 2.628 .468 2.556 .9 1.998 .738 1.44 .468 1.548 .126 1.962 .27 2.034-.45 .882 .558 .846 .684 .774 .738 .72 .72 .666 .648 .468 .324 1.098-.216 .828-.522 .252-.018 .198 .09 .126 .126 .072 .09" fill-rule="evenodd"/><path transform="matrix(0,1,1,0,243.687,229.572)" d="M0 0-.072-.378 .576-.468 1.206-.684 1.35-.234 .234 .036 .144 .126 .09 .144 .036 .108" fill-rule="evenodd"/><path transform="matrix(0,1,1,0,244.893,229.446)" d="M0 0 .108-.342 .648-.162 1.278-.072 1.152 .396 .576 .252" fill-rule="evenodd"/><path transform="matrix(0,1,1,0,246.261,226.566)" d="M0 0-.09-.27 .342-.378 .774-.54 1.188-.774 1.584-1.062 1.836-.63 1.296-.288 1.674-.126 2.016 .126 2.196-.018 2.358-.252 2.556-.558 2.736-.954 3.132-.648 2.844-.09 2.376 .45 2.736 .846 3.042 1.314 2.646 1.818 2.556 1.512 2.412 1.242 2.232 .99 2.016 .774 1.44 1.188 .684 1.53 .378 1.224 .432 1.098V.054L.234 .144 .18 .252H.108L.054 .18 0 0ZM.846-.018V.936L1.314 .738 1.71 .432 1.332 .144 .846-.018" fill-rule="evenodd"/><path transform="matrix(0,1,1,0,246.477,229.374)" d="M0 0 .306-.234 .54 .126 .864 .45 .558 .81 .252 .45" fill-rule="evenodd"/><path transform="matrix(0,1,1,0,252.453,226.602)" d="M0 0-.036-.432H3.942V-1.566H1.728L1.656-1.458 1.602-1.44 1.548-1.53 1.512-1.71 1.476-2.088H3.942V-2.898H4.446V2.034H3.942V.108H2.286V1.512H1.8V.108H.234L.144 .252 .09 .27 .036 .198" fill-rule="evenodd"/><path transform="matrix(0,1,1,0,245.559,230.652)" d="M0 0 .486 .108 .576 .162 .612 .216 .576 .27 .468 .324 .27 1.278-.036 2.322H-.45L-.162 1.152" fill-rule="evenodd"/><path transform="matrix(0,1,1,0,257.565,216.99)" d="M0 0V.126L-2.538-.72V-.846" fill-rule="evenodd"/></g></svg>