<?xml version='1.0' encoding='UTF-8'?>
<svg xmlns="http://www.w3.org/2000/svg" xmlns:xlink="http://www.w3.org/1999/xlink" xmlns:inkscape="http://www.inkscape.org/namespaces/inkscape" version="1.1" width="566.700" height="269.280" viewBox="0 0 566.700 269.280"><g transform="scale(10.0) translate(-493.095, -47.232)"><path transform="matrix(1,0,0,-1,0,595.276)" d="M546.12 544.996H496.56C496.32 544.996 495.96 544.996 495.6 544.876 495.24 544.636 495 544.516 494.76 544.276 494.4 543.916 494.28 543.676 494.16 543.316 493.92 542.956 493.92 542.596 493.92 542.356V526.516C493.92 525.796 494.16 525.076 494.76 524.596 495 524.236 495.24 524.116 495.6 523.996 495.96 523.876 496.32 523.756 496.56 523.756H546.12C546.72 523.756 547.44 523.996 548.04 524.596 548.28 524.836 548.52 525.076 548.64 525.436 548.76 525.796 548.76 526.156 548.76 526.516V542.356C548.76 542.956 548.52 543.676 548.04 544.276 547.44 544.756 546.72 544.996 546.12 544.996Z" fill="#ffffff" fill-rule="evenodd"/><path transform="matrix(1,0,0,-1,0,595.276)" d="M496.56 543.676H546.12C546.48 543.676 546.84 543.556 547.08 543.316 547.32 542.956 547.44 542.596 547.44 542.356V526.516C547.44 526.276 547.44 526.156 547.32 525.916 547.32 525.796 547.2 525.676 547.08 525.556 546.96 525.316 546.84 525.316 546.6 525.196 546.48 525.196 546.24 525.076 546.12 525.076H496.56C496.32 525.076 495.96 525.196 495.6 525.556 495.36 525.796 495.24 526.156 495.24 526.516V542.356C495.24 542.596 495.36 542.956 495.6 543.316 495.96 543.556 496.32 543.676 496.56 543.676Z" fill-rule="evenodd"/><path transform="matrix(1,0,0,-1,0,595.276)" d="M538.8 540.316C538.8 539.716 539.28 539.236 540 539.236 540.6 539.236 541.08 539.716 541.08 540.316 541.08 540.916 540.6 541.516 540 541.516 539.28 541.516 538.8 540.916 538.8 540.316Z" fill="#ffffff" fill-rule="evenodd"/><path transform="matrix(1,0,0,-1,0,595.276)" d="M538.56 527.356H537.6L537.84 530.476 539.04 533.956 538.92 536.116 538.44 535.636 536.76 534.196 536.28 534.796 537.72 536.116 538.2 537.436C538.32 537.796 538.56 538.156 538.92 538.396 539.28 538.636 539.64 538.756 540 538.756 540.48 538.756 540.84 538.756 541.2 538.516 541.56 538.396 541.92 538.036 542.04 537.676L542.64 536.716 543.24 533.836 542.52 533.476 541.8 536.356 541.32 536.836 542.88 530.836 544.32 528.676 543.6 527.956 541.2 531.196 540.48 532.876 539.04 530.476 538.56 527.356Z" fill="#ffffff" fill-rule="evenodd"/><path transform="matrix(1,0,0,-1,0,595.276)" d="M526.8 533.236H531L531.36 539.236C531.36 539.356 531.36 539.476 531.36 539.716 531.24 539.836 531.24 539.956 531.12 540.076 530.88 540.316 530.52 540.436 530.28 540.436 529.92 540.436 529.56 540.316 529.32 540.076 529.08 539.836 529.08 539.476 529.08 539.236 529.08 538.876 529.2 538.636 529.44 538.396 529.56 538.276 529.8 538.156 529.92 538.156 530.04 538.156 530.28 538.156 530.4 538.156L530.16 535.996H527.28V535.036H530.16L530.04 534.196H526.2L524.64 530.716 523.44 531.196 523.2 530.476 525.24 529.756 526.8 533.236Z" fill="#ffffff" fill-rule="evenodd"/><path transform="matrix(1,0,0,-1,0,595.276)" d="M531.48 534.316C531.84 534.076 532.2 533.716 532.32 533.356 532.56 532.876 532.68 532.396 532.56 531.796 532.56 531.316 532.32 530.836 531.96 530.476 531.72 529.996 531.36 529.756 531 529.636 530.64 529.396 530.16 529.276 529.68 529.276 529.2 529.276 528.72 529.516 528.24 529.756 527.76 529.996 527.4 530.476 527.28 530.836 527.04 531.316 526.92 531.796 526.92 532.156L526.2 530.716C526.44 530.236 526.8 529.636 527.28 529.276 527.76 528.916 528.24 528.556 528.96 528.436 529.56 528.316 530.28 528.316 530.88 528.436 531.48 528.676 531.96 528.916 532.32 529.276 532.68 529.636 533.04 530.116 533.28 530.716 533.52 531.316 533.64 531.916 533.52 532.636 533.52 533.236 533.28 533.836 532.92 534.316 532.56 534.916 532.08 535.276 531.6 535.516L531.48 534.316Z" fill="#ffffff" fill-rule="evenodd"/><path transform="matrix(1,0,0,-1,0,595.276)" d="M502.68 541.516H500.28V532.036L498 534.436V530.836L501.48 527.356 505.08 530.836V534.436L502.68 532.036Z" fill="#ffffff" fill-rule="evenodd"/><path transform="matrix(1,0,0,-1,0,595.276)" d="M510 532.636 511.92 536.116H508.68L506.76 532.636 508.68 529.036H511.92Z" fill="#c3c3c3" fill-rule="evenodd"/><path transform="matrix(1,0,0,-1,0,595.276)" d="M513.24 536.116H516.48L514.56 532.636H511.32Z" fill="#c3c3c3" fill-rule="evenodd"/><path transform="matrix(1,0,0,-1,0,595.276)" d="M517.8 536.116 515.88 539.716H519.12L520.92 536.116 519.12 532.636H515.88Z" fill="#c3c3c3" fill-rule="evenodd"/><path transform="matrix(1,0,0,-1,0,595.276)" stroke-width=".12" stroke-linecap="round" stroke-linejoin="round" fill="none" stroke="#000000" d="M496.56 544.996H546.12C547.56 544.996 548.76 543.796 548.76 542.356V526.516C548.76 524.956 547.56 523.756 546.12 523.756H496.56C495.12 523.756 493.92 524.956 493.92 526.516V542.356C493.92 543.796 495.12 544.996 496.56 544.996"/></g></svg>