<?xml version='1.0' encoding='UTF-8'?>
<svg xmlns="http://www.w3.org/2000/svg" xmlns:xlink="http://www.w3.org/1999/xlink" xmlns:inkscape="http://www.inkscape.org/namespaces/inkscape" version="1.1" width="567.000" height="269.280" viewBox="0 0 567.000 269.280"><g transform="scale(10.0) translate(-220.305, -558.864)"><defs><clipPath id="clip_19"><path transform="matrix(0,1,1,0,0,0)" d="M0 74.451H595.008V767.55899H0Z"/></clipPath><clipPath id="clip_20"><path transform="matrix(0,1,1,0,0,0)" d="M0 842.013H595.224V.008972168H0Z"/></clipPath></defs><path transform="matrix(0,1,1,0,241.293,559.422)" d="M0 0V14.994C0 15.156 .018 15.336 .09 15.498 .162 15.66 .252 15.822 .396 15.966 .522 16.092 .684 16.2 .846 16.254 1.026 16.326 1.188 16.362 1.35 16.362H24.462C24.624 16.362 24.804 16.326 24.966 16.254 25.146 16.2 25.29 16.092 25.434 15.966 25.56 15.822 25.668 15.66 25.74 15.498 25.794 15.336 25.83 15.156 25.83 14.994V0C25.83-.162 25.794-.324 25.74-.504 25.668-.666 25.56-.828 25.434-.954 25.29-1.098 25.146-1.188 24.966-1.26 24.804-1.332 24.624-1.35 24.462-1.35H1.35C1.188-1.35 1.026-1.332 .846-1.26 .684-1.188 .522-1.098 .396-.954 .252-.828 .162-.666 .09-.504 .018-.324 0-.162 0 0ZM.666 0C.666-.162 .738-.342 .864-.486 1.008-.612 1.188-.684 1.35-.684H12.726C12.888-.684 13.068-.612 13.194-.486 13.338-.342 13.392-.162 13.392 0V14.994C13.392 15.156 13.338 15.336 13.194 15.48 13.068 15.624 12.888 15.678 12.726 15.678H1.35C1.188 15.678 1.008 15.624 .864 15.48 .738 15.336 .666 15.156 .666 14.994V0ZM13.842 0C13.842-.18 13.914-.36 14.04-.486 14.166-.612 14.346-.684 14.526-.684H24.462C24.642-.684 24.804-.612 24.948-.486 25.092-.342 25.146-.162 25.146 0V14.994C25.146 15.156 25.092 15.336 24.948 15.48 24.804 15.624 24.642 15.678 24.462 15.678H14.526C14.436 15.678 14.346 15.66 14.274 15.624 14.184 15.588 14.112 15.552 14.04 15.48 13.896 15.336 13.842 15.156 13.842 14.994V0" fill-rule="evenodd"/><path transform="matrix(0,1,1,0,241.293,560.088)" d="M0 0V14.994C0 15.084 .018 15.156 .054 15.246 .09 15.336 .144 15.408 .198 15.48 .27 15.552 .36 15.606 .432 15.624 .522 15.66 .612 15.678 .684 15.678H12.06C12.222 15.678 12.402 15.624 12.528 15.48 12.672 15.336 12.726 15.156 12.726 14.994V0C12.726-.162 12.672-.342 12.528-.486 12.474-.54 12.384-.594 12.312-.63 12.222-.666 12.132-.684 12.06-.684H.684C.522-.684 .342-.612 .198-.486 .072-.342 0-.162 0 0" fill="#ffff00" fill-rule="evenodd"/><path transform="matrix(0,1,1,0,253.335,567.504)" d="M0 0V-8.244C0-8.298 0-8.352 .018-8.406 .036-8.46 .054-8.514 .09-8.568 .144-8.676 .234-8.766 .342-8.82L1.782-9.63V-6.75H.45V-5.436H1.782V.558L.18 .216C.072 .18 0 .09 0 0ZM.45-2.772H1.5480001V-4.986H.45ZM.45-.108 1.548 .108V-2.322H.45V-.108ZM1.548-7.2V-8.964L.45-8.334V-7.2H1.548" fill-rule="evenodd"/><path transform="matrix(0,1,1,0,0,0)" d="M569.394 247.899H570.06V253.893H569.394Z"/><path transform="matrix(0,1,1,0,253.893,571.05)" d="M0 0H-.882V-5.994H.45V-7.308H-.882V-10.188H0L.216-10.422H.45V-9.414C.342-9.414 .252-9.396 .162-9.36 .054-9.324-.036-9.27-.108-9.198-.27-9.036-.342-8.838-.342-8.64-.342-8.46-.27-8.262-.108-8.1 .054-7.938 .252-7.866 .45-7.866H.666V-3.222H.45C.342-3.222 .252-3.204 .162-3.168 .054-3.132-.036-3.06-.108-2.988-.27-2.826-.342-2.628-.342-2.448-.342-2.25-.27-2.052-.108-1.89 .054-1.746 .252-1.674 .45-1.674H.666L.45 .216H.216L0 0" fill-rule="evenodd"/><path transform="matrix(0,1,1,0,252.111,571.5)" d="M0 0C-.18 0-.36-.072-.486-.198-.594-.324-.666-.486-.666-.666-.666-.846-.594-1.008-.486-1.134-.36-1.26-.18-1.332 0-1.332 .162-1.332 .342-1.26 .468-1.134 .594-1.008 .648-.846 .648-.666 .648-.486 .594-.324 .468-.198 .342-.072 .162 0 0 0ZM0-.324C.18-.324 .324-.486 .324-.666 .324-.846 .18-.99 0-.99-.198-.99-.342-.846-.342-.666-.342-.486-.198-.324 0-.324" fill-rule="evenodd"/><path transform="matrix(0,1,1,0,245.919,571.5)" d="M0 0C-.18 0-.36-.072-.486-.198-.594-.324-.666-.486-.666-.666-.666-.846-.594-1.008-.486-1.134-.36-1.26-.18-1.332 0-1.332 .162-1.332 .342-1.26 .468-1.134 .594-1.008 .648-.846 .648-.666 .648-.486 .594-.324 .468-.198 .342-.072 .162 0 0 0ZM0-.342C.18-.342 .324-.486 .324-.666 .324-.846 .18-1.008 0-1.008-.198-1.008-.342-.846-.342-.666-.342-.486-.198-.342 0-.342" fill-rule="evenodd"/><path transform="matrix(0,1,1,0,0,0)" d="M569.394 243.705H570.06V246.585H569.394Z"/><path transform="matrix(0,1,1,0,251.751,563.76)" d="M0 0C-.792 0-1.53-.324-2.088-.864-2.646-1.422-2.952-2.178-2.952-2.952-2.952-3.744-2.646-4.5-2.088-5.04-1.53-5.598-.792-5.904 0-5.904 .774-5.904 1.53-5.598 2.088-5.04 2.646-4.5 2.952-3.744 2.952-2.952 2.952-2.178 2.646-1.422 2.088-.864 1.53-.324 .774 0 0 0" fill="#ff0000" fill-rule="evenodd"/><path transform="matrix(0,1,1,0,241.293,573.264)" d="M0 0V14.994C0 15.156 .054 15.336 .198 15.48 .342 15.624 .522 15.678 .684 15.678H10.62C10.71 15.678 10.8 15.66 10.872 15.624 10.962 15.588 11.034 15.552 11.106 15.48 11.178 15.408 11.232 15.336 11.268 15.246 11.286 15.156 11.304 15.084 11.304 14.994V0C11.304-.162 11.25-.342 11.106-.486 11.034-.54 10.962-.594 10.872-.63 10.8-.666 10.71-.684 10.62-.684H.684C.504-.684 .324-.612 .198-.486 .072-.36 0-.18 0 0" fill="#ffffff" fill-rule="evenodd"/><path transform="matrix(0,1,1,0,250.653,565.2)" d="M0 0C-.18 .162-.414 .288-.666 .36-.9 .45-1.17 .504-1.44 .504-1.71 .504-1.98 .45-2.232 .36-2.484 .288-2.7 .162-2.898 0L-1.44-1.44 0 0" fill="#0000ff" fill-rule="evenodd"/><path transform="matrix(0,1,1,0,247.341,565.614)" d="M0 0C.162 .198 .288 .414 .378 .666 .45 .918 .504 1.188 .504 1.458 .504 1.728 .45 1.98 .378 2.232 .288 2.484 .162 2.7 0 2.898L-1.44 1.458 0 0" fill="#0000ff" fill-rule="evenodd"/><path transform="matrix(0,1,1,0,246.927,565.2)" d="M0 0C-.18-.144-.414-.27-.666-.36-.9-.45-1.17-.504-1.44-.504-1.71-.504-1.98-.45-2.232-.36-2.484-.27-2.7-.144-2.898 0L-1.44 1.44 0 0" fill="#0000ff" fill-rule="evenodd"/><path transform="matrix(0,1,1,0,247.341,561.888)" d="M0 0C-.144 .198-.27 .414-.36 .666-.45 .918-.486 1.188-.486 1.458-.486 1.728-.45 1.98-.36 2.232-.27 2.484-.144 2.7 0 2.898L1.458 1.458 0 0" fill="#0000ff" fill-rule="evenodd"/><path transform="matrix(0,1,1,0,251.985,577.71)" d="M0 0V.774L-2.808 1.908H-3.51V-.576H-2.808V1.134" fill-rule="evenodd"/><path transform="matrix(0,1,1,0,245.811,574.902)" d="M0 0 .216-.072C.216-.144 .216-.198 .198-.252 .18-.288 .144-.324 .108-.342 .162-.36 .234-.504 .234-.594 .234-.72 .198-.828 .126-.9 .072-.972-.036-1.008-.144-1.008-.27-1.008-.342-.972-.414-.864-.468-.756-.486-.612-.486-.414H-.54C-.576-.396-.612-.414-.63-.432-.648-.45-.648-.486-.648-.522-.648-.594-.648-.648-.63-.702-.612-.756-.576-.81-.54-.846L-.738-.99C-.864-.882-.918-.738-.918-.54-.918-.414-.9-.306-.846-.234-.792-.162-.72-.108-.612-.09H-.072C-.018-.09 0-.054 0 0ZM-.144-.72C-.09-.72-.072-.702-.054-.666-.036-.648-.018-.594-.018-.54-.036-.468-.054-.432-.09-.414H-.27C-.27-.504-.252-.576-.234-.63-.216-.684-.18-.72-.144-.72" fill-rule="evenodd"/><path transform="matrix(0,1,1,0,247.071,574.272)" d="M0 0C0-.072 .072-.18 .144-.18H.81V-.468H.09C.036-.468 0-.522 0-.612 0-.684 .072-.792 .162-.792H.81V-1.08H-.234V-.792H-.198C-.216-.756-.234-.72-.252-.684-.27-.63-.27-.594-.27-.558-.27-.414-.234-.324-.144-.27-.234-.198-.27-.09-.27 .018-.27 .216-.18 .342-.036 .414-.018 .414-.018 .414 0 .414H.018C.018 .414 0 .414 .018 .414V.432C.018 .432 .018 .414 .018 .432 .036 .432 .036 .432 .054 .432H.81V.144H.09C.072 .144 .054 .126 .036 .108 .018 .072 0 .036 0 0" fill-rule="evenodd"/><path transform="matrix(0,1,1,0,247.125,580.392)" d="M0 0C0-.09 .072-.18 .144-.18V-.198H.792V-.468H.09C.036-.486 0-.54 0-.612 0-.702 .072-.792 .144-.792H.792V-1.08H-.252V-.81H-.198C-.234-.774-.252-.72-.27-.684-.27-.648-.288-.612-.288-.558-.288-.432-.234-.324-.144-.288-.234-.198-.288-.108-.288 .018-.27 .216-.198 .342-.036 .396-.018 .396-.018 .414-.018 .414H0C0 .414 0 .414 0 .414H.792V.126H.09C.072 .126 .072 .126 .054 .126 .036 .126 .036 .108 .018 .09 0 .072 0 .036 0 0" fill-rule="evenodd"/><path transform="matrix(0,1,1,0,245.811,580.662)" d="M0 0C-.162 0-.306-.036-.414-.126-.504-.216-.558-.342-.558-.486-.558-.594-.522-.72-.486-.738H-.522V-1.008H.882V-.72H.486C.54-.702 .576-.576 .576-.468 .576-.342 .522-.216 .414-.126 .306-.036 .162 0 0 0ZM.306-.522C.306-.558 .288-.612 .252-.666 .216-.702 .162-.72 .126-.72H-.144C-.216-.72-.288-.63-.306-.522V-.504C-.306-.45-.252-.324-.162-.288H.162C.198-.306 .252-.342 .27-.396 .306-.432 .306-.486 .306-.522" fill-rule="evenodd"/><path transform="matrix(0,1,1,0,251.985,583.812)" d="M0 0V.774L-2.79 1.908H-3.51V-.576H-2.79V1.134" fill-rule="evenodd"/><path transform="matrix(0,1,1,0,243.903,582.048)" d="M0 0H.216V.828H1.836V1.044H.756L.972 1.314 1.206 1.584 1.062 1.746 .756 1.422 .522 1.044H.216V1.962H0" fill-rule="evenodd"/><path transform="matrix(0,1,1,0,246.585,582.57)" d="M0 0 .108 .198-.18 .45V.918H.27V-.018H.468V.918H1.314V1.116H.468V1.926H.27V1.116H-.18V1.782H-.378V.576L-.54 .666-.558 .72-.576 .738-.594 .72-.63 .666-.684 .522-.306 .27" fill-rule="evenodd"/><path transform="matrix(0,1,1,0,244.857,575.802)" d="M0 0-.018-.162H1.638V-.936H1.854V1.008H1.638V.054H.9V.81H.702V.054H.09L.054 .09 .036 .108 .018 .072" fill-rule="evenodd"/><path transform="matrix(0,1,1,0,246.585,576.45)" d="M0 0 .126 .198-.18 .45V.918H.27V-.018H.468V.918H1.314V1.116H.468V1.926H.27V1.116H-.18V1.782H-.378V.576L-.522 .666-.54 .72-.558 .738-.594 .72-.612 .666-.666 .522-.306 .27" fill-rule="evenodd"/><path transform="matrix(0,1,1,0,246.585,579.078)" d="M0 0 .738 2.214 0 4.428V2.952H-.738V1.476H0" fill-rule="evenodd"/></g></svg>