<?xml version='1.0' encoding='UTF-8'?>
<svg xmlns="http://www.w3.org/2000/svg" xmlns:xlink="http://www.w3.org/1999/xlink" xmlns:inkscape="http://www.inkscape.org/namespaces/inkscape" version="1.1" width="567.000" height="269.280" viewBox="0 0 567.000 269.280"><g transform="scale(10.0) translate(-329.439, -101.088)"><defs><clipPath id="clip_2"><path transform="matrix(1,0,0,-1,0,595.276)" d="M74.4 .196H767.4V595.276H74.4Z"/></clipPath></defs><path transform="matrix(1,0,0,-1,0,595.276)" d="M384.48 493.036H331.08C330.96 493.036 330.84 492.916 330.84 492.916 330.72 492.916 330.6 492.796 330.6 492.796 330.48 492.676 330.48 492.676 330.36 492.556 330.36 492.436 330.36 492.316 330.36 492.316V468.916C330.36 468.676 330.36 468.556 330.6 468.436 330.6 468.316 330.72 468.316 330.84 468.196 330.84 468.196 330.96 468.196 331.08 468.196H384.48C384.72 468.196 384.84 468.316 385.08 468.436 385.08 468.436 385.2 468.556 385.2 468.676 385.2 468.676 385.2 468.796 385.2 468.916V492.316C385.2 492.436 385.2 492.676 385.08 492.796 384.84 492.916 384.72 493.036 384.48 493.036Z" fill="#ffff00" fill-rule="evenodd"/><path transform="matrix(1,0,0,-1,0,595.276)" d="M346.68 489.796C347.04 490.036 347.16 490.276 347.28 490.516 347.16 490.876 347.04 490.996 346.68 490.996 346.44 490.996 346.32 490.996 346.2 490.876 346.08 490.876 346.08 490.636 346.08 490.516H346.44C346.44 490.636 346.56 490.756 346.68 490.756 346.8 490.756 346.92 490.636 346.92 490.516 346.92 490.396 346.68 490.156 346.08 489.796V489.556H347.16V489.796H346.68Z" fill-rule="evenodd"/><path transform="matrix(1,0,0,-1,0,595.276)" d="M345.96 490.516V491.956H345.72C345.72 491.836 345.72 491.836 345.6 491.836 345.6 491.716 345.6 491.716 345.48 491.716V491.476H345.72V490.516H345.96Z" fill-rule="evenodd"/><path transform="matrix(1,0,0,-1,0,595.276)" d="M348.96 490.996V491.836H348.6V489.796H348.96V490.636H349.44 349.8V489.796H350.16V491.836H349.8V490.996H349.44Z" fill-rule="evenodd"/><path transform="matrix(1,0,0,-1,0,595.276)" d="M351.6 491.836C351.96 491.836 352.2 491.716 352.32 491.596 352.56 491.356 352.56 491.116 352.56 490.756 352.56 490.156 352.2 489.676 351.6 489.676 351.36 489.676 351.12 489.796 351 490.036 350.76 490.156 350.64 490.516 350.64 490.756 350.64 491.476 351.12 491.836 351.6 491.836ZM352.2 490.756C352.2 491.236 351.96 491.476 351.6 491.476 351.48 491.476 351.36 491.356 351.24 491.236 351.12 491.116 351.12 490.996 351.12 490.756 351.12 490.396 351.36 490.156 351.6 490.156 351.84 490.156 351.96 490.156 352.08 490.276 352.08 490.396 352.2 490.636 352.2 490.756Z" fill-rule="evenodd"/><path transform="matrix(1,0,0,-1,0,595.276)" d="M354.72 491.836V490.636 490.516C354.72 490.516 354.72 490.396 354.72 490.276V490.156C354.6 489.916 354.24 489.676 353.88 489.676 353.52 489.676 353.28 489.916 353.16 490.156 353.16 490.156 353.16 490.276 353.04 490.276 353.04 490.396 353.04 490.396 353.04 490.516V491.836H353.52V490.636 490.516 490.396C353.52 490.276 353.76 490.156 353.88 490.156 354 490.156 354.24 490.276 354.24 490.396 354.24 490.396 354.24 490.516 354.36 490.516V491.836H354.72Z" fill-rule="evenodd"/><path transform="matrix(1,0,0,-1,0,595.276)" d="M355.68 490.516V489.796H355.32V491.836H356.28C356.4 491.716 356.64 491.716 356.64 491.596 356.76 491.476 356.88 491.356 356.88 491.116 356.88 490.876 356.64 490.636 356.4 490.516L356.88 489.796H356.4L355.92 490.516H355.68ZM355.68 490.876H356.16C356.28 490.876 356.28 490.996 356.28 490.996L356.4 491.116C356.4 491.236 356.28 491.356 356.28 491.356H356.16 355.68V490.876Z" fill-rule="evenodd"/><path transform="matrix(1,0,0,-1,0,595.276)" d="M359.16 490.276 358.56 491.116V489.796H358.08V491.836H358.56L359.16 490.996 359.64 491.836H360.12V489.796H359.76V491.116Z" fill-rule="evenodd"/><path transform="matrix(1,0,0,-1,0,595.276)" d="M361.2 490.636H362.04V490.996H361.2V491.356H362.04V491.836H360.72V489.796H362.16V490.156H361.2Z" fill-rule="evenodd"/><path transform="matrix(1,0,0,-1,0,595.276)" d="M364.8 490.636H365.64V490.996H364.8V491.356H365.64V491.836H364.32V489.796H365.76V490.156H364.8Z" fill-rule="evenodd"/><path transform="matrix(1,0,0,-1,0,595.276)" d="M363.36 491.356H363.96V491.836H362.4V491.356H363V489.796H363.36Z" fill-rule="evenodd"/><path transform="matrix(1,0,0,-1,0,595.276)" d="M366.72 490.516V489.796H366.24V491.836H367.32C367.44 491.716 367.56 491.716 367.68 491.596 367.8 491.476 367.8 491.356 367.8 491.116 367.8 490.876 367.68 490.636 367.44 490.516L367.92 489.796H367.44L366.96 490.516H366.72ZM366.72 490.876H367.2V490.996C367.32 490.996 367.32 491.116 367.32 491.116 367.32 491.236 367.32 491.356 367.2 491.356H366.72V490.876Z" fill-rule="evenodd"/><path transform="matrix(1,0,0,-1,0,595.276)" d="M368.88 491.236C368.88 491.116 368.88 491.116 369 491.116 369 491.116 369.12 490.996 369.24 490.996 369.72 490.996 369.96 490.756 369.96 490.396 369.96 489.916 369.72 489.676 369.24 489.676 369 489.676 368.76 489.796 368.64 489.796 368.52 489.916 368.4 490.036 368.28 490.156L368.64 490.396C368.76 490.276 369 490.156 369.24 490.156 369.36 490.156 369.48 490.276 369.48 490.396 369.48 490.516 369.36 490.636 369.12 490.636 368.64 490.636 368.52 490.876 368.4 491.236 368.4 491.596 368.76 491.836 369.24 491.836 369.36 491.836 369.48 491.836 369.72 491.716 369.84 491.716 369.96 491.596 369.96 491.476L369.72 491.236C369.48 491.356 369.36 491.476 369.24 491.476 369 491.476 368.88 491.356 368.88 491.236Z" fill-rule="evenodd"/><path transform="matrix(1,0,0,-1,0,595.276)" d="M331.92 484.396H332.4V484.756H331.2V484.396H331.68V483.196H331.92Z" fill-rule="evenodd"/><path transform="matrix(1,0,0,-1,0,595.276)" d="M338.4 483.676C338.4 484.156 338.28 484.396 337.92 484.396 337.56 484.396 337.44 484.156 337.44 483.796 337.44 483.676 337.44 483.556 337.56 483.436 337.68 483.316 337.8 483.196 337.92 483.196 338.16 483.196 338.28 483.316 338.4 483.436L338.16 483.556C338.16 483.556 338.04 483.436 337.92 483.436 337.92 483.436 337.8 483.436 337.8 483.556H337.68V483.676H338.4ZM337.68 483.916V483.916C337.68 483.916 337.68 484.036 337.8 484.036 337.8 484.036 337.8 484.156 337.92 484.156 338.04 484.036 338.04 484.036 338.04 483.916H337.68Z" fill-rule="evenodd"/><path transform="matrix(1,0,0,-1,0,595.276)" d="M340.56 483.676C340.56 484.156 340.32 484.396 339.96 484.396 339.72 484.396 339.6 484.156 339.48 483.796 339.48 483.676 339.6 483.556 339.6 483.436 339.72 483.316 339.96 483.196 340.08 483.196 340.2 483.196 340.44 483.316 340.44 483.436L340.32 483.556C340.2 483.556 340.2 483.436 340.08 483.436 339.96 483.436 339.96 483.436 339.96 483.556H339.84V483.676H340.56ZM339.84 483.916V483.916 484.036C339.96 484.036 339.96 484.156 340.08 484.156 340.08 484.036 340.2 484.036 340.2 483.916H339.84Z" fill-rule="evenodd"/><path transform="matrix(1,0,0,-1,0,595.276)" d="M348.6 483.676C348.72 484.156 348.48 484.396 348.12 484.396 347.88 484.396 347.64 484.156 347.64 483.796 347.64 483.676 347.76 483.556 347.76 483.436 347.88 483.316 348 483.196 348.24 483.196 348.36 483.196 348.6 483.316 348.6 483.436L348.48 483.556C348.36 483.556 348.36 483.436 348.24 483.436 348.12 483.436 348.12 483.436 348 483.556V483.676H348.6ZM348 483.916V483.916 484.036C348.12 484.036 348.12 484.156 348.12 484.156 348.24 484.036 348.36 484.036 348.36 483.916H348Z" fill-rule="evenodd"/><path transform="matrix(1,0,0,-1,0,595.276)" d="M333.12 484.396C333.24 484.396 333.24 484.276 333.36 484.276 333.48 484.156 333.48 484.156 333.48 484.036V483.196H333.24V483.916C333.24 483.916 333.24 484.036 333.12 484.036H333 332.88V483.916 483.196H332.52V484.756H332.88V484.276C333 484.396 333 484.396 333.12 484.396Z" fill-rule="evenodd"/><path transform="matrix(1,0,0,-1,0,595.276)" d="M334.8 483.676C334.8 484.156 334.56 484.396 334.32 484.396 333.96 484.396 333.84 484.156 333.84 483.796 333.84 483.676 333.84 483.556 333.84 483.436 333.96 483.316 334.2 483.196 334.32 483.196 334.56 483.196 334.68 483.316 334.68 483.436L334.56 483.556C334.56 483.556 334.44 483.436 334.32 483.436 334.32 483.436 334.2 483.436 334.2 483.556H334.08V483.676H334.8ZM334.08 483.916V483.916C334.08 483.916 334.08 484.036 334.2 484.036 334.2 484.036 334.2 484.156 334.32 484.156 334.32 484.036 334.44 484.036 334.44 483.916H334.08Z" fill-rule="evenodd"/><path transform="matrix(1,0,0,-1,0,595.276)" d="M336.72 484.036C336.6 484.036 336.48 484.036 336.48 483.916V483.196H336.24V484.036H336.12C336 484.036 335.88 484.036 335.88 483.916V483.196H335.64V484.276H335.88C335.88 484.276 336 484.276 336 484.396H336.12C336.24 484.396 336.36 484.276 336.36 484.276 336.48 484.276 336.6 484.396 336.72 484.396 336.96 484.396 337.08 484.276 337.08 484.156V484.036 483.196H336.84V483.916 484.036H336.72Z" fill-rule="evenodd"/><path transform="matrix(1,0,0,-1,0,595.276)" d="M339 484.276H339.24V484.036H339V483.556L339.12 483.436H339.24L339.36 483.196C339.24 483.196 339.24 483.196 339 483.196 339 483.196 338.88 483.196 338.88 483.316 338.76 483.316 338.76 483.316 338.76 483.436V484.036H338.52V484.276H338.76V484.636L339 484.756V484.276Z" fill-rule="evenodd"/><path transform="matrix(1,0,0,-1,0,595.276)" d="M340.8 483.196V484.276H341.04 341.16C341.28 484.396 341.28 484.396 341.4 484.396V484.036C341.28 484.036 341.28 484.036 341.16 484.036 341.16 483.916 341.04 483.916 341.04 483.916V483.196H340.8Z" fill-rule="evenodd"/><path transform="matrix(1,0,0,-1,0,595.276)" d="M343.2 483.196V484.036C343.2 484.276 342.96 484.396 342.72 484.396H342.6C342.6 484.276 342.48 484.276 342.48 484.276H342.24V483.196H342.48V483.916C342.48 484.036 342.6 484.036 342.72 484.036 342.84 484.036 342.84 484.036 342.84 483.916V483.196H343.2Z" fill-rule="evenodd"/><path transform="matrix(1,0,0,-1,0,595.276)" d="M344.16 484.276H344.4V483.196H344.16V483.316C344.16 483.316 344.16 483.196 344.04 483.196H343.92C343.8 483.196 343.68 483.196 343.56 483.316L343.44 483.436V483.556 484.276H343.8V483.676 483.556L343.92 483.436C344.04 483.436 344.04 483.556 344.04 483.556H344.16V483.676 484.276Z" fill-rule="evenodd"/><path transform="matrix(1,0,0,-1,0,595.276)" d="M345.84 484.036C345.72 484.036 345.6 484.036 345.6 483.916V483.196H345.36V484.036H345.24C345.12 484.036 345 484.036 345 483.916V483.196H344.76V484.276H345C345 484.276 345.12 484.276 345.12 484.396H345.24C345.36 484.396 345.48 484.276 345.6 484.276 345.6 484.276 345.72 484.396 345.84 484.396 346.08 484.396 346.2 484.276 346.2 484.156L346.32 484.036V483.196H345.96V483.916 484.036H345.84Z" fill-rule="evenodd"/><path transform="matrix(1,0,0,-1,0,595.276)" d="M347.04 483.196C347.4 483.196 347.52 483.436 347.52 483.796 347.52 483.916 347.52 484.036 347.4 484.156 347.28 484.276 347.16 484.396 347.04 484.396 346.92 484.396 346.92 484.276 346.8 484.276V484.756H346.56V483.196H346.8V483.316C346.92 483.196 347.04 483.196 347.04 483.196ZM347.04 483.436C346.92 483.436 346.92 483.556 346.8 483.676V483.916C346.8 484.036 346.92 484.036 346.92 484.036H347.04C347.16 484.036 347.28 483.916 347.28 483.796 347.28 483.556 347.16 483.436 347.04 483.436Z" fill-rule="evenodd"/><path transform="matrix(1,0,0,-1,0,595.276)" d="M348.96 483.196V484.276H349.2 349.32C349.44 484.396 349.44 484.396 349.56 484.396V484.036C349.44 484.036 349.32 484.036 349.32 484.036 349.32 483.916 349.2 483.916 349.2 483.916V483.196H348.96Z" fill-rule="evenodd"/><path transform="matrix(1,0,0,-1,0,595.276)" d="M351.48 484.036C351.36 484.036 351.24 484.036 351.24 483.916V483.196H351V484.036C351 484.036 350.88 484.036 350.76 484.036 350.76 484.036 350.64 484.036 350.64 483.916V483.196H350.28V484.276H350.64L350.76 484.396H350.88C351 484.396 351.12 484.276 351.12 484.276 351.24 484.276 351.36 484.396 351.48 484.396 351.6 484.396 351.84 484.276 351.84 484.156V484.036 483.196H351.6V483.916 484.036H351.48Z" fill-rule="evenodd"/><path transform="matrix(1,0,0,-1,0,595.276)" stroke-width=".12" stroke-linecap="butt" stroke-miterlimit="10" stroke-linejoin="miter" fill="none" stroke="#000000" d="M352.5 483.5V483.5"/><path transform="matrix(1,0,0,-1,0,595.276)" d="M352.68 483.916V484.036C352.68 484.036 352.68 484.156 352.56 484.156L352.44 484.036H352.32L352.08 484.156C352.2 484.276 352.44 484.396 352.56 484.396 352.68 484.396 352.8 484.396 352.92 484.276 353.04 484.276 353.04 484.156 353.04 484.036V483.556 483.436H353.16L353.04 483.196C352.92 483.196 352.8 483.196 352.8 483.316 352.8 483.316 352.68 483.196 352.56 483.196 352.32 483.196 352.08 483.316 352.08 483.556 352.08 483.796 352.32 483.916 352.68 483.916ZM352.44 483.556V483.436H352.56C352.68 483.436 352.68 483.436 352.68 483.556V483.676C352.68 483.676 352.56 483.676 352.44 483.676V483.556Z" fill-rule="evenodd"/><path transform="matrix(1,0,0,-1,0,595.276)" d="M353.4 483.196V484.276H353.64 353.76C353.88 484.396 353.88 484.396 354 484.396V484.036C353.88 484.036 353.88 484.036 353.76 484.036 353.76 483.916 353.64 483.916 353.64 483.916V483.196H353.4Z" fill-rule="evenodd"/><path transform="matrix(1,0,0,-1,0,595.276)" d="M354.24 483.196V484.756H354.48V483.916L354.84 484.276H355.2L354.84 483.916 355.2 483.196H354.96L354.6 483.676 354.48 483.556V483.196Z" fill-rule="evenodd"/><path transform="matrix(1,0,0,-1,0,595.276)" d="M356.4 483.676C356.4 484.156 356.16 484.396 355.92 484.396 355.56 484.396 355.44 484.156 355.44 483.796 355.44 483.676 355.44 483.556 355.56 483.436 355.68 483.316 355.8 483.196 355.92 483.196 356.16 483.196 356.28 483.316 356.4 483.436L356.16 483.556C356.16 483.556 356.04 483.436 355.92 483.436 355.92 483.436 355.8 483.436 355.8 483.556H355.68V483.676H356.4ZM355.68 483.916V483.916C355.68 483.916 355.68 484.036 355.8 484.036 355.8 484.036 355.8 484.156 355.92 484.156 355.92 484.036 356.04 484.036 356.04 483.916H355.68Z" fill-rule="evenodd"/><path transform="matrix(1,0,0,-1,0,595.276)" d="M357.36 484.276V484.756H357.6V483.196H357.36V483.316C357.24 483.196 357.24 483.196 357.12 483.196 356.88 483.196 356.64 483.316 356.64 483.676V483.796 483.916C356.64 484.156 356.76 484.276 357 484.396 357.12 484.396 357.24 484.276 357.36 484.276ZM357.36 483.556V483.916 484.036H357.24 357.12C357 484.036 356.88 483.916 356.88 483.796 356.88 483.556 357 483.436 357.12 483.436 357.24 483.436 357.24 483.556 357.36 483.556Z" fill-rule="evenodd"/><path transform="matrix(1,0,0,-1,0,595.276)" d="M359.52 483.796C359.52 483.916 359.4 484.156 359.4 484.156 359.28 484.276 359.16 484.396 358.92 484.396 358.8 484.396 358.68 484.276 358.56 484.156 358.44 484.156 358.44 483.916 358.44 483.796 358.44 483.556 358.44 483.436 358.56 483.316 358.68 483.196 358.8 483.196 358.92 483.196 359.16 483.196 359.28 483.196 359.4 483.316 359.4 483.436 359.52 483.556 359.52 483.796ZM359.16 483.796C359.16 483.556 359.16 483.436 358.92 483.436L358.8 483.556C358.8 483.676 358.8 483.676 358.8 483.796 358.8 483.916 358.8 484.036 358.92 484.036 359.04 484.036 359.04 484.036 359.16 484.036 359.16 483.916 359.16 483.916 359.16 483.796Z" fill-rule="evenodd"/><path transform="matrix(1,0,0,-1,0,595.276)" d="M360.6 483.196V484.036C360.6 484.276 360.48 484.396 360.24 484.396H360.12L360 484.276H359.64V483.196H360V483.916C360 484.036 360.12 484.036 360.24 484.036 360.24 484.036 360.36 484.036 360.36 483.916V483.196H360.6Z" fill-rule="evenodd"/><path transform="matrix(1,0,0,-1,0,595.276)" d="M361.92 484.276H362.16V484.036H361.92V483.556C361.92 483.436 362.04 483.436 362.04 483.436H362.16L362.28 483.196C362.16 483.196 362.04 483.196 361.92 483.196 361.8 483.196 361.8 483.196 361.68 483.316L361.56 483.436V484.036H361.44V484.276H361.56V484.636L361.92 484.756V484.276Z" fill-rule="evenodd"/><path transform="matrix(1,0,0,-1,0,595.276)" d="M363 484.396C363.12 484.396 363.24 484.276 363.24 484.276 363.36 484.156 363.36 484.156 363.36 484.036V483.196H363.12V483.916C363.12 483.916 363.12 484.036 363 484.036H362.88 362.76V483.916 483.196H362.4V484.756H362.76V484.276C362.88 484.396 362.88 484.396 363 484.396Z" fill-rule="evenodd"/><path transform="matrix(1,0,0,-1,0,595.276)" d="M364.68 483.676C364.68 484.156 364.56 484.396 364.2 484.396 363.84 484.396 363.72 484.156 363.72 483.796 363.72 483.676 363.72 483.556 363.84 483.436 363.96 483.316 364.08 483.196 364.2 483.196 364.44 483.196 364.56 483.316 364.68 483.436L364.44 483.556C364.44 483.556 364.32 483.436 364.2 483.436 364.2 483.436 364.08 483.436 364.08 483.556H363.96V483.676H364.68ZM363.96 483.916V483.916C363.96 483.916 363.96 484.036 364.08 484.036 364.08 484.036 364.08 484.156 364.2 484.156 364.32 484.036 364.32 484.036 364.32 483.916H364.44 363.96Z" fill-rule="evenodd"/><path transform="matrix(1,0,0,-1,0,595.276)" d="M366.6 483.796C366.6 483.916 366.48 484.156 366.36 484.156 366.36 484.276 366.24 484.396 366 484.396 365.88 484.396 365.76 484.276 365.76 484.276H365.52V482.836H365.76V483.316C365.76 483.196 365.88 483.196 366 483.196 366.36 483.196 366.6 483.436 366.6 483.796ZM366 483.436C366 483.436 365.88 483.436 365.88 483.556 365.76 483.556 365.76 483.676 365.76 483.676V483.916C365.76 484.036 365.88 484.036 366 484.156 366.12 484.156 366.24 484.036 366.24 483.916V483.676C366.24 483.556 366.12 483.436 366 483.436Z" fill-rule="evenodd"/><path transform="matrix(1,0,0,-1,0,595.276)" d="M367.8 483.796C367.8 483.916 367.68 484.156 367.68 484.156 367.56 484.276 367.44 484.396 367.2 484.396 367.08 484.396 366.96 484.276 366.84 484.156 366.72 484.156 366.72 483.916 366.72 483.796 366.72 483.556 366.72 483.436 366.84 483.316 366.96 483.196 367.08 483.196 367.2 483.196 367.44 483.196 367.56 483.196 367.68 483.316 367.68 483.436 367.8 483.556 367.8 483.796ZM367.44 483.796C367.44 483.556 367.44 483.436 367.2 483.436L367.08 483.556C367.08 483.676 367.08 483.676 367.08 483.796 367.08 483.916 367.08 484.036 367.2 484.036 367.32 484.036 367.32 484.036 367.44 484.036 367.44 483.916 367.44 483.916 367.44 483.796Z" fill-rule="evenodd"/><path transform="matrix(1,0,0,-1,0,595.276)" d="M368.88 483.556C368.88 483.796 368.76 483.916 368.52 483.916 368.4 483.916 368.4 483.916 368.28 483.916V484.036C368.28 484.036 368.28 484.156 368.4 484.156 368.52 484.156 368.52 484.156 368.52 484.036H368.64L368.88 484.156C368.76 484.276 368.64 484.396 368.4 484.396 368.16 484.396 367.92 484.276 367.92 484.036 367.92 483.796 368.04 483.676 368.28 483.676 368.4 483.676 368.52 483.676 368.52 483.556V483.436H368.4C368.4 483.436 368.28 483.436 368.28 483.556 368.16 483.556 368.16 483.556 368.04 483.556L367.92 483.436C368.04 483.316 368.16 483.196 368.4 483.196 368.64 483.196 368.88 483.316 368.88 483.556Z" fill-rule="evenodd"/><path transform="matrix(1,0,0,-1,0,595.276)" d="M369.36 484.276H369.72V484.036H369.36V483.556H369.48V483.436H369.6 369.72V483.196C369.72 483.196 369.6 483.196 369.48 483.196 369.36 483.196 369.24 483.196 369.24 483.316 369.12 483.316 369.12 483.316 369.12 483.436V484.036H369V484.276H369.12V484.636L369.36 484.756V484.276Z" fill-rule="evenodd"/><path transform="matrix(1,0,0,-1,0,595.276)" d="M371.64 484.036C371.52 484.036 371.4 484.036 371.4 483.916V483.196H371.16V484.036H371.04C370.92 484.036 370.8 484.036 370.8 483.916V483.196H370.56V484.276H370.8C370.8 484.276 370.92 484.276 370.92 484.396H371.04C371.16 484.396 371.28 484.276 371.4 484.276 371.4 484.276 371.52 484.396 371.64 484.396 371.88 484.396 372 484.276 372 484.156V484.036H372.12V483.196H371.76V483.916 484.036H371.64Z" fill-rule="evenodd"/><path transform="matrix(1,0,0,-1,0,595.276)" d="M373.08 484.276H373.32V483.196H373.08V483.316L372.96 483.196C372.84 483.196 372.84 483.196 372.72 483.196 372.72 483.196 372.6 483.196 372.48 483.316 372.48 483.316 372.36 483.316 372.36 483.436V483.556 484.276H372.72V483.676 483.556L372.84 483.436 372.96 483.556H373.08V483.676 484.276Z" fill-rule="evenodd"/><path transform="matrix(1,0,0,-1,0,595.276)" d="M374.52 483.556C374.52 483.796 374.4 483.916 374.16 483.916H374.04C373.92 483.916 373.92 484.036 373.92 484.036 373.92 484.036 373.92 484.156 374.04 484.156 374.16 484.156 374.16 484.156 374.16 484.036H374.28L374.52 484.156C374.4 484.276 374.28 484.396 374.04 484.396 373.8 484.396 373.68 484.276 373.68 484.036 373.68 483.796 373.8 483.676 373.92 483.676 374.16 483.676 374.16 483.676 374.16 483.556V483.436H374.04C374.04 483.436 373.92 483.436 373.92 483.556H373.8L373.56 483.436C373.68 483.316 373.8 483.196 374.04 483.196 374.4 483.196 374.52 483.316 374.52 483.556Z" fill-rule="evenodd"/><path transform="matrix(1,0,0,-1,0,595.276)" d="M375.12 484.276H375.36V484.036H375.12V483.556C375.12 483.436 375.12 483.436 375.24 483.436H375.36V483.196C375.36 483.196 375.24 483.196 375.12 483.196 375 483.196 374.88 483.196 374.88 483.316 374.88 483.316 374.76 483.316 374.76 483.436V484.036H374.64V484.276H374.76V484.636L375.12 484.756V484.276Z" fill-rule="evenodd"/><path transform="matrix(1,0,0,-1,0,595.276)" d="M376.68 483.196C376.92 483.196 377.16 483.436 377.16 483.796 377.16 483.916 377.04 484.036 377.04 484.156 376.92 484.276 376.8 484.396 376.68 484.396 376.56 484.396 376.44 484.276 376.44 484.276V484.756H376.2V483.196H376.44V483.316C376.56 483.196 376.56 483.196 376.68 483.196ZM376.68 483.436C376.56 483.436 376.44 483.556 376.44 483.676V483.916C376.44 484.036 376.56 484.036 376.56 484.036H376.68C376.8 484.036 376.92 483.916 376.92 483.796 376.8 483.556 376.8 483.436 376.68 483.436Z" fill-rule="evenodd"/><path transform="matrix(1,0,0,-1,0,595.276)" d="M378.24 483.676C378.24 484.156 378.12 484.396 377.76 484.396 377.52 484.396 377.28 484.156 377.28 483.796 377.28 483.676 377.28 483.556 377.4 483.436 377.52 483.316 377.64 483.196 377.88 483.196 378 483.196 378.24 483.316 378.24 483.436L378.12 483.556C378 483.556 377.88 483.436 377.88 483.436 377.76 483.436 377.76 483.436 377.64 483.556V483.676H378.24ZM377.52 483.916V483.916C377.64 483.916 377.64 484.036 377.64 484.036L377.76 484.156C377.88 484.036 378 484.036 378 483.916H377.52Z" fill-rule="evenodd"/><path transform="matrix(1,0,0,-1,0,595.276)" d="M380.04 483.196V484.276H379.8C379.8 484.276 379.68 484.396 379.56 484.396 379.2 484.396 379.08 484.156 379.08 483.796 379.08 483.436 379.2 483.316 379.56 483.316H379.68C379.68 483.196 379.68 483.196 379.56 483.076 379.56 483.076 379.44 483.076 379.44 483.196 379.32 483.196 379.2 483.196 379.2 483.196L379.08 482.956C379.2 482.956 379.32 482.836 379.56 482.836 379.8 482.836 380.04 482.956 380.04 483.196ZM379.68 483.916V483.676 483.556H379.56C379.44 483.556 379.32 483.676 379.32 483.796 379.32 483.916 379.44 484.036 379.56 484.036 379.68 484.036 379.68 484.036 379.68 483.916Z" fill-rule="evenodd"/><path transform="matrix(1,0,0,-1,0,595.276)" d="M380.64 483.196V484.276H380.4V483.196Z" fill-rule="evenodd"/><path transform="matrix(1,0,0,-1,0,595.276)" d="M380.76 484.636C380.76 484.636 380.64 484.756 380.52 484.756 380.4 484.756 380.4 484.636 380.4 484.636 380.4 484.516 380.4 484.396 380.52 484.396 380.64 484.396 380.76 484.516 380.76 484.636Z" fill-rule="evenodd"/><path transform="matrix(1,0,0,-1,0,595.276)" d="M381.24 483.196 380.88 484.276H381.12L381.36 483.556 381.6 484.276H381.96L381.6 483.196H381.36Z" fill-rule="evenodd"/><path transform="matrix(1,0,0,-1,0,595.276)" d="M383.04 483.676C383.04 484.156 382.8 484.396 382.56 484.396 382.2 484.396 382.08 484.156 382.08 483.796 382.08 483.676 382.08 483.556 382.2 483.436 382.2 483.316 382.44 483.196 382.56 483.196 382.8 483.196 382.92 483.316 383.04 483.436L382.8 483.556C382.8 483.556 382.68 483.436 382.56 483.436 382.56 483.436 382.44 483.436 382.44 483.556H382.32V483.676H383.04ZM382.32 483.916V483.916C382.32 483.916 382.32 484.036 382.44 484.036 382.44 484.036 382.44 484.156 382.56 484.156 382.56 484.036 382.68 484.036 382.68 483.916H382.32Z" fill-rule="evenodd"/><path transform="matrix(1,0,0,-1,0,595.276)" d="M384.24 483.196V484.036C384.24 484.276 384.12 484.396 383.88 484.396 383.76 484.396 383.76 484.396 383.64 484.396 383.64 484.276 383.64 484.276 383.52 484.276H383.28V483.196H383.52V483.916C383.64 484.036 383.64 484.036 383.76 484.036 383.88 484.036 383.88 484.036 384 483.916V483.196H384.24Z" fill-rule="evenodd"/><path transform="matrix(1,0,0,-1,0,595.276)" d="M341.04 489.076C341.28 489.076 341.52 488.956 341.64 488.836 341.76 488.716 341.76 488.476 341.76 488.236 341.76 487.996 341.76 487.756 341.64 487.636 341.52 487.516 341.28 487.396 341.04 487.396 340.92 487.396 340.68 487.516 340.56 487.636 340.44 487.756 340.44 487.996 340.44 488.236 340.44 488.476 340.44 488.716 340.56 488.836 340.68 488.956 340.92 489.076 341.04 489.076ZM341.52 488.236C341.52 488.476 341.28 488.716 341.04 488.716 341.04 488.716 340.92 488.716 340.8 488.596 340.68 488.476 340.68 488.356 340.68 488.236 340.68 487.996 340.8 487.756 341.04 487.756 341.16 487.756 341.28 487.756 341.4 487.876 341.4 487.996 341.52 488.116 341.52 488.236Z" fill-rule="evenodd"/><path transform="matrix(1,0,0,-1,0,595.276)" d="M343.08 487.996C343.08 488.236 343.08 488.356 342.96 488.476 342.96 488.596 342.72 488.596 342.6 488.596 342.48 488.596 342.36 488.596 342.36 488.476V488.596H342.12V487.156H342.36V487.516C342.36 487.516 342.48 487.396 342.6 487.396 342.96 487.396 343.08 487.636 343.08 487.996ZM342.6 487.756H342.48L342.36 487.876V488.236C342.36 488.236 342.48 488.356 342.6 488.356 342.72 488.356 342.84 488.356 342.84 488.236V488.116 487.876C342.84 487.756 342.72 487.756 342.6 487.756Z" fill-rule="evenodd"/><path transform="matrix(1,0,0,-1,0,595.276)" d="M344.28 487.876C344.28 488.356 344.16 488.596 343.8 488.596 343.56 488.596 343.32 488.356 343.32 487.996 343.32 487.876 343.32 487.756 343.44 487.636 343.56 487.516 343.68 487.396 343.8 487.396 344.04 487.396 344.16 487.516 344.28 487.636L344.04 487.876C344.04 487.756 343.92 487.756 343.8 487.756H343.68V487.876H344.28ZM343.56 488.116V488.116C343.56 488.236 343.68 488.236 343.68 488.236 343.68 488.356 343.8 488.356 343.8 488.356 343.92 488.356 344.04 488.236 344.04 488.236V488.116H343.56Z" fill-rule="evenodd"/><path transform="matrix(1,0,0,-1,0,595.276)" d="M344.52 487.516V488.596H344.88V488.476C344.88 488.476 344.88 488.596 345 488.596 345 488.596 345.12 488.596 345.24 488.596V488.356C345.12 488.356 345 488.236 345 488.236 344.88 488.236 344.88 488.236 344.88 488.116V487.516H344.52Z" fill-rule="evenodd"/><path transform="matrix(1,0,0,-1,0,595.276)" stroke-width=".12" stroke-linecap="butt" stroke-miterlimit="10" stroke-linejoin="miter" fill="none" stroke="#000000" d="M345.5 488.5H346.5"/><path transform="matrix(1,0,0,-1,0,595.276)" d="M345.96 488.236V488.236 488.356H345.84C345.72 488.356 345.72 488.356 345.6 488.356 345.6 488.356 345.6 488.236 345.48 488.236L345.36 488.476C345.48 488.596 345.6 488.596 345.84 488.596 345.96 488.596 346.08 488.596 346.2 488.596 346.2 488.476 346.32 488.356 346.32 488.356V487.756C346.32 487.636 346.32 487.636 346.44 487.636L346.32 487.516C346.2 487.396 346.08 487.516 346.08 487.516 345.96 487.516 345.84 487.396 345.72 487.396 345.48 487.396 345.36 487.636 345.36 487.876 345.36 488.116 345.6 488.236 345.96 488.236ZM345.6 487.876C345.6 487.756 345.72 487.756 345.72 487.756H345.84 345.96V487.996C345.84 487.996 345.84 487.996 345.72 487.876H345.6Z" fill-rule="evenodd"/><path transform="matrix(1,0,0,-1,0,595.276)" d="M347.04 488.596H347.28V488.356H347.04V487.876 487.756H347.16 347.28V487.516C347.28 487.516 347.16 487.396 347.04 487.396 346.92 487.396 346.8 487.516 346.8 487.516 346.8 487.516 346.68 487.636 346.68 487.756V488.356H346.56V488.596H346.68V488.956H347.04V488.596Z" fill-rule="evenodd"/><path transform="matrix(1,0,0,-1,0,595.276)" d="M353.88 487.996C353.88 488.236 353.88 488.356 353.76 488.476 353.76 488.596 353.52 488.596 353.4 488.596 353.28 488.596 353.16 488.596 353.04 488.476 352.92 488.356 352.92 488.236 352.92 487.996 352.92 487.876 352.92 487.756 353.04 487.636 353.16 487.516 353.28 487.396 353.4 487.396 353.52 487.396 353.76 487.516 353.76 487.636 353.88 487.756 353.88 487.876 353.88 487.996ZM353.64 487.996C353.64 487.876 353.52 487.756 353.4 487.756 353.28 487.756 353.28 487.756 353.28 487.876 353.16 487.876 353.16 487.996 353.16 487.996 353.16 488.236 353.28 488.356 353.4 488.356 353.52 488.356 353.52 488.236 353.52 488.236 353.64 488.236 353.64 488.116 353.64 487.996Z" fill-rule="evenodd"/><path transform="matrix(1,0,0,-1,0,595.276)" d="M355.2 488.356C355.08 488.356 355.08 488.236 355.08 488.116V487.516H354.72V488.236C354.72 488.236 354.72 488.356 354.6 488.356 354.48 488.356 354.36 488.236 354.36 488.116V487.516H354.12V488.596H354.36V488.476L354.48 488.596H354.6C354.84 488.596 354.84 488.596 354.96 488.476 354.96 488.596 355.08 488.596 355.2 488.596 355.44 488.596 355.56 488.476 355.68 488.356V488.236 487.516H355.32V488.236C355.32 488.356 355.32 488.356 355.2 488.356Z" fill-rule="evenodd"/><path transform="matrix(1,0,0,-1,0,595.276)" d="M352.08 487.516V488.596H352.32V488.476C352.44 488.476 352.44 488.596 352.44 488.596 352.56 488.596 352.68 488.596 352.68 488.596V488.356C352.56 488.356 352.56 488.236 352.44 488.236V488.116 487.516H352.08Z" fill-rule="evenodd"/><path transform="matrix(1,0,0,-1,0,595.276)" d="M351.6 487.516V488.356H351.84V488.596H351.6V488.716H351.72 351.84V488.956C351.84 488.956 351.72 488.956 351.6 488.956 351.6 488.956 351.48 488.956 351.36 488.956 351.36 488.956 351.36 488.836 351.36 488.716V488.596H351.12V488.356H351.36V487.516H351.6Z" fill-rule="evenodd"/><path transform="matrix(1,0,0,-1,0,595.276)" d="M347.88 487.516V488.596H347.52V487.516Z" fill-rule="evenodd"/><path transform="matrix(1,0,0,-1,0,595.276)" d="M347.88 488.836C347.88 488.956 347.76 488.956 347.76 488.956 347.64 488.956 347.52 488.956 347.52 488.836 347.52 488.716 347.64 488.716 347.76 488.716 347.76 488.716 347.88 488.716 347.88 488.836Z" fill-rule="evenodd"/><path transform="matrix(1,0,0,-1,0,595.276)" d="M349.08 487.516V488.236C349.08 488.476 348.96 488.596 348.6 488.596H348.48L348.36 488.476V488.596H348.12V487.516H348.36V488.116C348.48 488.236 348.48 488.356 348.6 488.356 348.72 488.356 348.72 488.236 348.72 488.116V487.516H349.08Z" fill-rule="evenodd"/><path transform="matrix(1,0,0,-1,0,595.276)" d="M350.28 487.396V488.596H350.04V488.476C350.04 488.596 349.92 488.596 349.8 488.596 349.44 488.596 349.32 488.356 349.32 487.996 349.32 487.756 349.56 487.516 349.8 487.516H349.92L350.04 487.636V487.516C350.04 487.396 349.92 487.396 349.8 487.396H349.68C349.56 487.396 349.56 487.396 349.44 487.516L349.32 487.276C349.44 487.156 349.68 487.156 349.8 487.036 350.16 487.036 350.28 487.276 350.28 487.396ZM350.04 488.116V487.876H349.92C349.92 487.756 349.92 487.756 349.8 487.756 349.68 487.756 349.56 487.876 349.56 488.116 349.56 488.236 349.68 488.356 349.8 488.356 349.92 488.356 350.04 488.236 350.04 488.116Z" fill-rule="evenodd"/><path transform="matrix(1,0,0,-1,0,595.276)" d="M357.12 487.396C357.48 487.396 357.72 487.636 357.72 487.996 357.72 488.116 357.6 488.236 357.48 488.236 357.6 488.356 357.72 488.476 357.72 488.596 357.72 488.836 357.48 489.076 357.12 489.076 356.76 489.076 356.64 488.836 356.64 488.596 356.64 488.476 356.64 488.356 356.76 488.236 356.64 488.236 356.52 488.116 356.52 487.996 356.52 487.756 356.64 487.636 356.76 487.636 356.88 487.516 357 487.396 357.12 487.396ZM357.12 488.116C357.24 488.116 357.36 487.996 357.36 487.876 357.36 487.756 357.24 487.756 357.12 487.756 357 487.756 356.88 487.756 356.88 487.876 356.88 487.996 357 488.116 357.12 488.116ZM357.36 488.596C357.36 488.476 357.24 488.476 357.12 488.476 357 488.476 356.88 488.476 356.88 488.596L357 488.716H357.12C357.24 488.716 357.24 488.716 357.36 488.716V488.596Z" fill-rule="evenodd"/><path transform="matrix(1,0,0,-1,0,595.276)" stroke-width=".12" stroke-linecap="butt" stroke-miterlimit="10" stroke-linejoin="miter" fill="none" stroke="#000000" d="M359.5 488.5V488.5"/><path transform="matrix(1,0,0,-1,0,595.276)" d="M359.16 488.236V488.236 488.356H359.04C358.92 488.356 358.92 488.356 358.8 488.356L358.68 488.236 358.56 488.476C358.68 488.596 358.8 488.596 359.04 488.596 359.16 488.596 359.28 488.596 359.28 488.596 359.4 488.476 359.4 488.356 359.52 488.356V487.756 487.636 487.516C359.28 487.396 359.28 487.516 359.16 487.516 359.16 487.516 359.04 487.396 358.92 487.396 358.68 487.396 358.56 487.636 358.56 487.876 358.56 488.116 358.68 488.236 359.16 488.236ZM358.8 487.876C358.8 487.756 358.8 487.756 358.92 487.756H359.04 359.16V487.996C359.04 487.996 358.92 487.996 358.92 487.876H358.8Z" fill-rule="evenodd"/><path transform="matrix(1,0,0,-1,0,595.276)" d="M360.84 488.356C360.84 488.356 360.72 488.236 360.72 488.116V487.516H360.36V488.236C360.36 488.236 360.36 488.356 360.24 488.356 360.12 488.356 360.12 488.236 360.12 488.116V487.516H359.76V488.596H360.12V488.476C360.12 488.596 360.12 488.596 360.24 488.596H360.36C360.48 488.596 360.6 488.596 360.6 488.476 360.72 488.596 360.84 488.596 360.96 488.596 361.08 488.596 361.2 488.476 361.32 488.356V488.236 487.516H361.08V488.236H360.96C360.96 488.356 360.96 488.356 360.84 488.356Z" fill-rule="evenodd"/><path transform="matrix(1,0,0,-1,0,595.276)" d="M362.64 488.596H362.88V488.356H362.64V487.876 487.756H362.76 362.88V487.516C362.88 487.516 362.76 487.396 362.64 487.396 362.52 487.396 362.4 487.516 362.4 487.516 362.28 487.516 362.28 487.636 362.28 487.756V488.356H362.16V488.596H362.28V488.956H362.64V488.596Z" fill-rule="evenodd"/><path transform="matrix(1,0,0,-1,0,595.276)" d="M364.08 487.996C364.08 488.236 364.08 488.356 363.96 488.476 363.96 488.596 363.72 488.596 363.6 488.596 363.48 488.596 363.36 488.596 363.24 488.476 363.12 488.356 363.12 488.236 363.12 487.996 363.12 487.876 363.12 487.756 363.24 487.636 363.36 487.516 363.48 487.396 363.6 487.396 363.72 487.396 363.96 487.516 363.96 487.636 364.08 487.756 364.08 487.876 364.08 487.996ZM363.84 487.996C363.84 487.876 363.72 487.756 363.6 487.756 363.6 487.756 363.48 487.756 363.48 487.876 363.36 487.876 363.36 487.996 363.36 487.996 363.36 488.236 363.48 488.356 363.6 488.356 363.72 488.356 363.72 488.236 363.72 488.236 363.84 488.236 363.84 488.116 363.84 487.996Z" fill-rule="evenodd"/><path transform="matrix(1,0,0,-1,0,595.276)" d="M371.28 488.476V488.956H371.64V487.516H371.28C371.28 487.516 371.16 487.396 371.04 487.396 370.8 487.396 370.56 487.636 370.56 487.996V488.116C370.56 488.476 370.8 488.596 371.04 488.596 371.16 488.596 371.28 488.596 371.28 488.476H371.4 371.28ZM371.28 487.876V488.116 488.236L371.16 488.356C370.92 488.356 370.92 488.236 370.8 487.996 370.92 487.876 370.92 487.756 371.16 487.756 371.16 487.756 371.28 487.756 371.28 487.876Z" fill-rule="evenodd"/><path transform="matrix(1,0,0,-1,0,595.276)" stroke-width=".12" stroke-linecap="butt" stroke-miterlimit="10" stroke-linejoin="miter" fill="none" stroke="#000000" d="M372.5 488.5V488.5"/><path transform="matrix(1,0,0,-1,0,595.276)" d="M372.48 488.236V488.236 488.356H372.36C372.24 488.356 372.24 488.356 372.12 488.356L372 488.236 371.88 488.476C372 488.596 372.12 488.596 372.36 488.596 372.48 488.596 372.6 488.596 372.6 488.596 372.72 488.476 372.72 488.356 372.72 488.356V487.756H372.84V487.636 487.516C372.6 487.396 372.6 487.516 372.48 487.516 372.48 487.516 372.36 487.396 372.24 487.396 372 487.396 371.88 487.636 371.88 487.876 371.88 488.116 372 488.236 372.48 488.236ZM372.12 487.876C372.12 487.756 372.12 487.756 372.24 487.756H372.36 372.48V487.996C372.36 487.996 372.24 487.996 372.24 487.876H372.12Z" fill-rule="evenodd"/><path transform="matrix(1,0,0,-1,0,595.276)" d="M373.44 487.516V488.596H373.08V487.516Z" fill-rule="evenodd"/><path transform="matrix(1,0,0,-1,0,595.276)" d="M373.44 488.836C373.44 488.956 373.32 488.956 373.32 488.956 373.2 488.956 373.08 488.956 373.08 488.836 373.08 488.716 373.2 488.716 373.32 488.716 373.32 488.716 373.44 488.716 373.44 488.836Z" fill-rule="evenodd"/><path transform="matrix(1,0,0,-1,0,595.276)" d="M373.92 488.956V487.876 487.756C373.92 487.756 374.04 487.756 374.16 487.756V487.516C374.04 487.516 374.04 487.516 373.92 487.516 373.8 487.516 373.68 487.516 373.68 487.636V487.756 488.956H373.92Z" fill-rule="evenodd"/><path transform="matrix(1,0,0,-1,0,595.276)" d="M375.24 488.596H375L374.76 487.876 374.52 488.596H374.28L374.52 487.636C374.52 487.516 374.52 487.516 374.64 487.516V487.396H374.52 374.4L374.28 487.156C374.4 487.156 374.52 487.156 374.64 487.156H374.76L374.88 487.276 375.24 488.596Z" fill-rule="evenodd"/><path transform="matrix(1,0,0,-1,0,595.276)" d="M365.52 487.396C365.88 487.396 366.12 487.636 366.12 487.996 366.12 488.116 366 488.236 365.88 488.236 366 488.356 366 488.476 366 488.596 366 488.836 365.88 489.076 365.52 489.076 365.16 489.076 364.92 488.836 364.92 488.596 364.92 488.476 365.04 488.356 365.16 488.236 365.04 488.236 364.92 488.116 364.92 487.996 364.92 487.756 364.92 487.636 365.04 487.636 365.16 487.516 365.4 487.396 365.52 487.396ZM365.52 488.116C365.64 488.116 365.76 487.996 365.76 487.876 365.76 487.756 365.64 487.756 365.52 487.756 365.4 487.756 365.28 487.756 365.28 487.876 365.28 487.996 365.4 488.116 365.52 488.116ZM365.76 488.596C365.76 488.476 365.64 488.476 365.52 488.476 365.4 488.476 365.28 488.476 365.28 488.596 365.28 488.596 365.28 488.716 365.4 488.716H365.52 365.64L365.76 488.596Z" fill-rule="evenodd"/><path transform="matrix(1,0,0,-1,0,595.276)" d="M369.36 488.356C369.24 488.356 369.12 488.236 369.12 488.116V487.516H368.88V488.236C368.88 488.236 368.76 488.356 368.64 488.356 368.64 488.356 368.52 488.236 368.52 488.116V487.516H368.16V488.596H368.52V488.476C368.52 488.596 368.64 488.596 368.64 488.596H368.76C368.88 488.596 369 488.596 369 488.476 369.12 488.596 369.24 488.596 369.36 488.596 369.6 488.596 369.72 488.476 369.72 488.356V488.236 487.516H369.48V488.236L369.36 488.356Z" fill-rule="evenodd"/><path transform="matrix(1,0,0,-1,0,595.276)" d="M368.04 487.996C368.04 488.236 367.92 488.356 367.92 488.476 367.8 488.596 367.68 488.596 367.44 488.596 367.32 488.596 367.2 488.596 367.2 488.476V488.596H366.96V487.156H367.2V487.516C367.32 487.516 367.44 487.396 367.56 487.396 367.8 487.396 368.04 487.636 368.04 487.996ZM367.44 487.756H367.32C367.32 487.876 367.2 487.876 367.2 487.876V488.236C367.2 488.236 367.32 488.356 367.44 488.356 367.56 488.356 367.68 488.356 367.68 488.236V488.116 487.876C367.68 487.756 367.56 487.756 367.44 487.756Z" fill-rule="evenodd"/><path transform="matrix(1,0,0,-1,0,595.276)" d="M348.12 490.636H347.4V490.396H348.12Z" fill-rule="evenodd"/><path transform="matrix(1,0,0,-1,0,595.276)" d="M337.92 485.356V486.916H337.68V485.356Z" fill-rule="evenodd"/><path transform="matrix(1,0,0,-1,0,595.276)" d="M339.24 485.356V486.076C339.24 486.316 339 486.436 338.76 486.436H338.64 338.52 338.28V485.356H338.52V486.076C338.52 486.196 338.64 486.196 338.76 486.196 338.88 486.196 338.88 486.196 338.88 486.076V485.956 485.356H339.24Z" fill-rule="evenodd"/><path transform="matrix(1,0,0,-1,0,595.276)" d="M340.56 486.436C340.68 486.436 340.8 486.436 340.8 486.436 340.92 486.316 340.92 486.316 341.04 486.196L340.8 486.076C340.68 486.196 340.68 486.196 340.56 486.196 340.44 486.196 340.32 486.076 340.32 485.956V485.836C340.32 485.716 340.44 485.596 340.56 485.596H340.68C340.68 485.716 340.8 485.716 340.8 485.716H341.04C340.92 485.476 340.8 485.356 340.56 485.356 340.2 485.356 340.08 485.476 339.96 485.956 340.08 486.316 340.2 486.436 340.56 486.436Z" fill-rule="evenodd"/><path transform="matrix(1,0,0,-1,0,595.276)" stroke-width=".12" stroke-linecap="butt" stroke-miterlimit="10" stroke-linejoin="miter" fill="none" stroke="#000000" d="M341.5 486.5V486.5"/><path transform="matrix(1,0,0,-1,0,595.276)" d="M341.76 486.076V486.076 486.196H341.64 341.52C341.4 486.196 341.4 486.196 341.28 486.076L341.16 486.316C341.28 486.436 341.52 486.436 341.64 486.436 341.76 486.436 341.88 486.436 342 486.436 342 486.316 342.12 486.316 342.12 486.196V485.596H342.24L342.12 485.356C342 485.356 341.88 485.356 341.88 485.476 341.88 485.356 341.76 485.356 341.64 485.356 341.52 485.356 341.4 485.356 341.28 485.476 341.16 485.476 341.16 485.596 341.16 485.716 341.16 485.836 341.28 485.956 341.28 485.956 341.4 486.076 341.64 486.076 341.76 486.076ZM341.52 485.716V485.596H341.64 341.76V485.836C341.64 485.836 341.64 485.836 341.52 485.836V485.716Z" fill-rule="evenodd"/><path transform="matrix(1,0,0,-1,0,595.276)" d="M343.32 485.716C343.32 485.956 343.2 486.076 342.96 486.076 342.84 486.076 342.72 486.076 342.72 486.076V486.196H342.84 342.96C342.96 486.196 343.08 486.196 343.08 486.076L343.2 486.316C343.2 486.436 343.08 486.436 342.84 486.556 342.6 486.556 342.36 486.316 342.36 486.076 342.36 485.956 342.48 485.836 342.72 485.836 342.84 485.836 342.96 485.716 342.96 485.716V485.596H342.84C342.72 485.596 342.72 485.596 342.6 485.596 342.6 485.716 342.6 485.716 342.48 485.716L342.36 485.476C342.48 485.356 342.6 485.356 342.84 485.356 343.08 485.356 343.32 485.476 343.32 485.716Z" fill-rule="evenodd"/><path transform="matrix(1,0,0,-1,0,595.276)" d="M344.4 485.836C344.4 486.196 344.28 486.436 343.92 486.436 343.68 486.436 343.44 486.316 343.44 485.956 343.44 485.716 343.44 485.596 343.56 485.476 343.68 485.356 343.8 485.356 344.04 485.356 344.16 485.356 344.4 485.356 344.4 485.476L344.28 485.716C344.16 485.596 344.04 485.596 344.04 485.596 343.92 485.596 343.92 485.596 343.8 485.596V485.716 485.836H344.4ZM343.8 486.076V486.076 486.196H343.92C344.04 486.196 344.16 486.196 344.16 486.076H343.8Z" fill-rule="evenodd"/><path transform="matrix(1,0,0,-1,0,595.276)" d="M346.2 485.956C346.2 486.076 346.2 486.196 346.08 486.316 345.96 486.436 345.84 486.436 345.72 486.436 345.6 486.436 345.36 486.436 345.36 486.316 345.24 486.196 345.12 486.076 345.12 485.956 345.12 485.716 345.24 485.596 345.36 485.476 345.36 485.356 345.6 485.356 345.72 485.356 345.84 485.356 345.96 485.356 346.08 485.476 346.2 485.596 346.2 485.716 346.2 485.956ZM345.96 485.956C345.96 485.716 345.84 485.596 345.72 485.596 345.6 485.596 345.6 485.596 345.6 485.716 345.48 485.716 345.48 485.836 345.48 485.956 345.48 486.076 345.6 486.196 345.72 486.196 345.72 486.196 345.84 486.196 345.84 486.076 345.96 486.076 345.96 485.956 345.96 485.956Z" fill-rule="evenodd"/><path transform="matrix(1,0,0,-1,0,595.276)" d="M346.8 485.356V486.196H347.04V486.436H346.8V486.556 486.676H346.92C347.04 486.676 347.04 486.556 347.04 486.556V486.796C347.04 486.916 346.92 486.916 346.92 486.916 346.8 486.916 346.68 486.916 346.68 486.796 346.56 486.796 346.56 486.676 346.56 486.676V486.436H346.32V486.196H346.56V485.356H346.8Z" fill-rule="evenodd"/><path transform="matrix(1,0,0,-1,0,595.276)" d="M348.84 486.196 348.72 486.076V485.356H348.36V486.076C348.36 486.196 348.36 486.196 348.24 486.196 348.12 486.196 348.12 486.076 348.12 486.076V485.356H347.76V486.436H348.12 348.24 348.36C348.48 486.436 348.6 486.436 348.6 486.316 348.72 486.436 348.84 486.436 348.96 486.436 349.08 486.436 349.2 486.436 349.32 486.196V485.356H349.08V486.076 486.196H348.96 348.84Z" fill-rule="evenodd"/><path transform="matrix(1,0,0,-1,0,595.276)" d="M350.64 485.836C350.64 486.196 350.4 486.436 350.16 486.436 349.8 486.436 349.68 486.316 349.56 485.956 349.56 485.716 349.68 485.596 349.68 485.476 349.8 485.356 350.04 485.356 350.16 485.356 350.28 485.356 350.52 485.356 350.52 485.476L350.4 485.716C350.4 485.596 350.28 485.596 350.16 485.596H350.04L349.92 485.716V485.836H350.64ZM349.92 486.076V486.076L350.04 486.196H350.16C350.16 486.196 350.28 486.196 350.28 486.076H349.92Z" fill-rule="evenodd"/><path transform="matrix(1,0,0,-1,0,595.276)" d="M351.24 486.436H351.48V486.196H351.24V485.716 485.596H351.36 351.48L351.6 485.356C351.48 485.356 351.36 485.356 351.24 485.356 351.12 485.356 351.12 485.356 351 485.356 351 485.476 351 485.476 351 485.596V486.196H350.76V486.436H351V486.796L351.24 486.916V486.436Z" fill-rule="evenodd"/><path transform="matrix(1,0,0,-1,0,595.276)" d="M352.68 485.836C352.68 486.196 352.56 486.436 352.2 486.436 351.96 486.436 351.72 486.316 351.72 485.956 351.72 485.716 351.72 485.596 351.84 485.476 351.96 485.356 352.08 485.356 352.32 485.356 352.44 485.356 352.68 485.356 352.68 485.476L352.56 485.716C352.44 485.596 352.32 485.596 352.32 485.596 352.2 485.596 352.2 485.596 352.08 485.596V485.716 485.836H352.68ZM352.08 486.076V486.076 486.196H352.2C352.32 486.196 352.44 486.196 352.44 486.076H352.08Z" fill-rule="evenodd"/><path transform="matrix(1,0,0,-1,0,595.276)" d="M352.92 485.356V486.436H353.28V486.316C353.28 486.436 353.28 486.436 353.4 486.436 353.4 486.436 353.52 486.436 353.64 486.436V486.196C353.52 486.196 353.4 486.196 353.4 486.076 353.28 486.076 353.28 486.076 353.28 485.956V485.356H352.92Z" fill-rule="evenodd"/><path transform="matrix(1,0,0,-1,0,595.276)" d="M355.08 486.436V486.916H355.32V485.356H355.08C355.08 485.356 354.96 485.356 354.84 485.356 354.6 485.356 354.36 485.476 354.36 485.836V485.956C354.36 486.316 354.6 486.436 354.84 486.436 354.84 486.436 354.96 486.436 355.08 486.436ZM355.08 485.716V485.956 486.076C354.96 486.196 354.96 486.196 354.84 486.196 354.72 486.196 354.6 486.076 354.6 485.956 354.6 485.716 354.72 485.596 354.84 485.596 354.96 485.596 355.08 485.596 355.08 485.716Z" fill-rule="evenodd"/><path transform="matrix(1,0,0,-1,0,595.276)" d="M356.64 485.836C356.64 486.196 356.52 486.436 356.16 486.436 355.8 486.436 355.68 486.316 355.68 485.956 355.68 485.716 355.68 485.596 355.8 485.476 355.92 485.356 356.04 485.356 356.16 485.356 356.4 485.356 356.52 485.356 356.64 485.476L356.4 485.716C356.4 485.596 356.28 485.596 356.16 485.596H356.04C356.04 485.716 355.92 485.716 355.92 485.716V485.836H356.64ZM355.92 486.076V486.076L356.04 486.196H356.16C356.28 486.196 356.28 486.196 356.28 486.076H355.92Z" fill-rule="evenodd"/><path transform="matrix(1,0,0,-1,0,595.276)" d="M357.24 485.356V486.196H357.48V486.436H357.24V486.556 486.676H357.36L357.48 486.556V486.796C357.48 486.916 357.36 486.916 357.36 486.916 357.24 486.916 357.12 486.916 357 486.796V486.676 486.436H356.76V486.196H357V485.356H357.24Z" fill-rule="evenodd"/><path transform="matrix(1,0,0,-1,0,595.276)" d="M358.68 485.836C358.68 486.196 358.56 486.436 358.2 486.436 357.84 486.436 357.72 486.316 357.72 485.956 357.72 485.716 357.72 485.596 357.84 485.476 357.96 485.356 358.08 485.356 358.2 485.356 358.44 485.356 358.56 485.356 358.68 485.476L358.44 485.716C358.44 485.596 358.32 485.596 358.2 485.596H358.08V485.716C357.96 485.716 357.96 485.716 357.96 485.836H358.68ZM357.96 486.076V486.076L358.08 486.196H358.2C358.32 486.196 358.32 486.196 358.44 486.076H357.96Z" fill-rule="evenodd"/><path transform="matrix(1,0,0,-1,0,595.276)" d="M359.4 486.436C359.52 486.436 359.64 486.436 359.64 486.436 359.76 486.316 359.76 486.316 359.88 486.196L359.64 486.076C359.52 486.196 359.52 486.196 359.4 486.196 359.28 486.196 359.16 486.076 359.16 485.956V485.836C359.16 485.716 359.28 485.596 359.4 485.596H359.52C359.52 485.716 359.64 485.716 359.64 485.716H359.88C359.76 485.476 359.64 485.356 359.4 485.356 359.04 485.356 358.92 485.476 358.8 485.956 358.92 486.316 359.04 486.436 359.4 486.436Z" fill-rule="evenodd"/><path transform="matrix(1,0,0,-1,0,595.276)" d="M360.48 486.436H360.72V486.196H360.48V485.716 485.596H360.6 360.72V485.356C360.72 485.356 360.6 485.356 360.48 485.356 360.36 485.356 360.24 485.356 360.24 485.356 360.24 485.476 360.12 485.476 360.12 485.596V486.196H360V486.436H360.12V486.796L360.48 486.916V486.436Z" fill-rule="evenodd"/><path transform="matrix(1,0,0,-1,0,595.276)" d="M361.8 485.716C361.8 485.956 361.68 486.076 361.44 486.076H361.32 361.2V486.196C361.2 486.196 361.32 486.196 361.44 486.196H361.56L361.68 486.076 361.8 486.316C361.68 486.436 361.56 486.436 361.44 486.556 361.08 486.556 360.96 486.316 360.96 486.076 360.96 485.956 361.08 485.836 361.32 485.836 361.44 485.836 361.56 485.716 361.56 485.716 361.56 485.596 361.56 485.596 361.44 485.596 361.32 485.596 361.32 485.596 361.2 485.596 361.2 485.716 361.08 485.716 361.08 485.716L360.84 485.476C360.96 485.356 361.2 485.356 361.32 485.356 361.68 485.356 361.8 485.476 361.8 485.716Z" fill-rule="evenodd"/><path transform="matrix(1,0,0,-1,0,595.276)" d="M363.24 486.556H363.72V486.916H362.52V486.556H362.88V485.356H363.24Z" fill-rule="evenodd"/><path transform="matrix(1,0,0,-1,0,595.276)" d="M364.56 485.836C364.56 486.196 364.44 486.436 364.08 486.436 363.72 486.436 363.6 486.316 363.6 485.956 363.6 485.716 363.6 485.596 363.72 485.476 363.84 485.356 363.96 485.356 364.08 485.356 364.32 485.356 364.44 485.356 364.56 485.476L364.32 485.716C364.32 485.596 364.2 485.596 364.08 485.596H363.96V485.716C363.84 485.716 363.84 485.716 363.84 485.836H364.56ZM363.84 486.076V486.076L363.96 486.196H364.08C364.2 486.196 364.2 486.196 364.32 486.076H363.84Z" fill-rule="evenodd"/><path transform="matrix(1,0,0,-1,0,595.276)" d="M365.04 486.916V485.716 485.596H365.16L365.28 485.356H365.16 365.04C364.92 485.356 364.8 485.356 364.68 485.476V485.596 486.916H365.04Z" fill-rule="evenodd"/><path transform="matrix(1,0,0,-1,0,595.276)" d="M365.76 485.476C365.76 485.596 365.64 485.716 365.64 485.716 365.52 485.716 365.4 485.596 365.4 485.476 365.4 485.356 365.52 485.356 365.64 485.356 365.64 485.356 365.76 485.356 365.76 485.476Z" fill-rule="evenodd"/><path transform="matrix(1,0,0,-1,0,595.276)" d="M367.08 485.716H367.56V485.356H366.48V485.716C367.2 486.076 367.32 486.196 367.32 486.316V486.436C367.32 486.556 367.2 486.556 367.08 486.556 366.96 486.556 366.96 486.556 366.84 486.556V486.436 486.316H366.48C366.48 486.676 366.72 486.916 367.08 486.916 367.44 486.916 367.68 486.676 367.68 486.436V486.316C367.56 486.076 367.44 485.836 367.08 485.716Z" fill-rule="evenodd"/><path transform="matrix(1,0,0,-1,0,595.276)" d="M368.52 485.356C368.88 485.356 369 485.476 369 485.836 369 485.956 369 486.076 368.88 486.196 369 486.196 369 486.316 369 486.436 369 486.556 369 486.676 368.88 486.796 368.76 486.916 368.64 486.916 368.4 486.916 368.28 486.916 368.16 486.916 368.04 486.796 367.92 486.676 367.92 486.556 367.92 486.436H368.16C368.16 486.556 368.28 486.556 368.4 486.676 368.52 486.676 368.52 486.676 368.52 486.556 368.64 486.556 368.64 486.556 368.64 486.436 368.64 486.316 368.64 486.316 368.52 486.316H368.4V485.956H368.52 368.64L368.76 485.836C368.76 485.716 368.64 485.596 368.52 485.596 368.4 485.596 368.28 485.596 368.28 485.716 368.16 485.716 368.16 485.836 368.16 485.836H367.92C367.92 485.476 368.16 485.356 368.52 485.356Z" fill-rule="evenodd"/><path transform="matrix(1,0,0,-1,0,595.276)" d="M369.84 485.356C370.2 485.356 370.44 485.476 370.44 485.836 370.44 485.956 370.44 486.076 370.32 486.196 370.44 486.196 370.44 486.316 370.44 486.436 370.44 486.556 370.44 486.676 370.32 486.796 370.2 486.916 370.08 486.916 369.84 486.916 369.72 486.916 369.6 486.916 369.48 486.796 369.36 486.676 369.24 486.556 369.24 486.436H369.6C369.6 486.556 369.72 486.556 369.84 486.676 369.84 486.676 369.96 486.676 369.96 486.556 370.08 486.556 370.08 486.556 370.08 486.436 370.08 486.316 370.08 486.316 369.96 486.316H369.72V485.956H369.96 370.08V485.836C370.08 485.716 370.08 485.596 369.96 485.596 369.84 485.596 369.72 485.596 369.72 485.716 369.6 485.716 369.6 485.836 369.6 485.836H369.24C369.24 485.476 369.48 485.356 369.84 485.356Z" fill-rule="evenodd"/><path transform="matrix(1,0,0,-1,0,595.276)" d="M373.2 485.356C373.56 485.356 373.8 485.476 373.8 485.836 373.8 485.956 373.68 486.076 373.68 486.196 373.68 486.196 373.8 486.316 373.8 486.436 373.8 486.556 373.68 486.676 373.56 486.796 373.56 486.916 373.32 486.916 373.2 486.916 373.08 486.916 372.84 486.916 372.72 486.796 372.72 486.676 372.6 486.556 372.6 486.436H372.96C372.96 486.556 373.08 486.556 373.2 486.676L373.32 486.556C373.44 486.556 373.44 486.556 373.44 486.436 373.44 486.316 373.44 486.316 373.32 486.316H373.08V485.956H373.32 373.44V485.836C373.44 485.716 373.44 485.596 373.2 485.596 373.2 485.596 373.08 485.596 372.96 485.716V485.836H372.6C372.6 485.476 372.84 485.356 373.2 485.356Z" fill-rule="evenodd"/><path transform="matrix(1,0,0,-1,0,595.276)" d="M371.28 485.716H371.76V485.356H370.68V485.716C371.28 486.076 371.4 486.196 371.52 486.316V486.436C371.52 486.556 371.4 486.556 371.28 486.556 371.16 486.556 371.16 486.556 371.04 486.556V486.436 486.316H370.68C370.68 486.676 370.92 486.916 371.28 486.916 371.64 486.916 371.76 486.676 371.88 486.436V486.316C371.76 486.076 371.64 485.836 371.28 485.716Z" fill-rule="evenodd"/><path transform="matrix(1,0,0,-1,0,595.276)" d="M374.16 485.356H374.52L375 486.556V486.916H373.92V486.556H374.64Z" fill-rule="evenodd"/><path transform="matrix(1,0,0,-1,0,595.276)" d="M376.56 486.076C376.56 486.436 376.44 486.556 376.32 486.676 376.2 486.796 376.08 486.916 375.84 486.916 375.6 486.916 375.48 486.796 375.36 486.676 375.24 486.556 375.24 486.436 375.24 486.076 375.24 485.836 375.24 485.596 375.36 485.476 375.48 485.356 375.6 485.356 375.84 485.356 376.08 485.356 376.2 485.356 376.32 485.476 376.44 485.596 376.56 485.836 376.56 486.076ZM376.2 486.076C376.2 485.956 376.2 485.836 376.08 485.716 376.08 485.596 375.96 485.596 375.84 485.596 375.6 485.596 375.48 485.836 375.48 486.076 375.48 486.316 375.48 486.436 375.6 486.556 375.6 486.556 375.72 486.676 375.84 486.676 376.08 486.676 376.2 486.436 376.2 486.076Z" fill-rule="evenodd"/><path transform="matrix(1,0,0,-1,0,595.276)" d="M378 486.076C378 486.436 378 486.556 377.88 486.676 377.76 486.796 377.64 486.916 377.4 486.916 377.16 486.916 377.04 486.796 376.92 486.676 376.8 486.556 376.8 486.436 376.8 486.076 376.8 485.836 376.8 485.596 376.92 485.476 377.04 485.356 377.16 485.356 377.4 485.356 377.64 485.356 377.76 485.356 377.88 485.476 378 485.596 378 485.836 378 486.076ZM377.76 486.076C377.76 485.956 377.76 485.836 377.64 485.716 377.64 485.596 377.52 485.596 377.4 485.596 377.16 485.596 377.04 485.836 377.04 486.076 377.04 486.316 377.04 486.436 377.16 486.556 377.16 486.556 377.28 486.676 377.4 486.676 377.64 486.676 377.76 486.436 377.76 486.076Z" fill-rule="evenodd"/><path transform="matrix(1,0,0,-1,0,595.276)" d="M360.72 472.156H361.32V471.796H360.24V472.156C360.84 472.516 360.96 472.636 360.96 472.756V472.876C360.96 472.996 360.96 472.996 360.72 473.116L360.6 472.996 360.48 472.876V472.756H360.24C360.24 473.116 360.36 473.356 360.72 473.356 361.08 473.356 361.32 473.236 361.32 472.876 361.32 472.516 361.08 472.396 360.72 472.156Z" fill-rule="evenodd"/><path transform="matrix(1,0,0,-1,0,595.276)" d="M362.16 471.796C362.52 471.796 362.76 471.916 362.76 472.276 362.76 472.396 362.64 472.516 362.64 472.636 362.64 472.636 362.76 472.756 362.76 472.876 362.76 473.116 362.64 473.236 362.52 473.236 362.52 473.356 362.28 473.356 362.16 473.356 362.04 473.356 361.8 473.356 361.68 473.236 361.56 473.116 361.56 472.996 361.56 472.876H361.92C361.92 472.996 362.04 473.116 362.16 473.116 362.28 473.116 362.4 472.996 362.4 472.876 362.4 472.876 362.4 472.756 362.28 472.756H362.04V472.516H362.28L362.4 472.396V472.276C362.4 472.156 362.28 472.156 362.16 472.156 362.04 472.156 362.04 472.156 361.92 472.156V472.276H361.56C361.56 471.916 361.8 471.796 362.16 471.796Z" fill-rule="evenodd"/><path transform="matrix(1,0,0,-1,0,595.276)" d="M363.6 471.796C363.96 471.796 364.2 471.916 364.2 472.276 364.2 472.396 364.08 472.516 363.96 472.636 364.08 472.636 364.08 472.756 364.08 472.876 364.08 473.116 364.08 473.236 363.96 473.236 363.84 473.356 363.72 473.356 363.6 473.356 363.36 473.356 363.24 473.356 363.12 473.236 363 473.116 363 472.996 363 472.876H363.36C363.36 472.996 363.36 473.116 363.6 473.116 363.72 473.116 363.84 472.996 363.84 472.876L363.72 472.756H363.48V472.516H363.72V472.396C363.84 472.396 363.84 472.396 363.84 472.276 363.84 472.156 363.72 472.156 363.6 472.156 363.48 472.156 363.48 472.156 363.36 472.156V472.276H363C363 471.916 363.24 471.796 363.6 471.796Z" fill-rule="evenodd"/><path transform="matrix(1,0,0,-1,0,595.276)" d="M364.92 472.156H365.52V471.796H364.44V472.156C365.04 472.516 365.16 472.636 365.16 472.756V472.876C365.16 472.996 365.04 472.996 364.92 473.116L364.8 472.996C364.68 472.996 364.68 472.876 364.68 472.876V472.756H364.32C364.32 473.116 364.56 473.356 364.92 473.356 365.28 473.356 365.52 473.236 365.52 472.876 365.52 472.516 365.28 472.396 364.92 472.156Z" fill-rule="evenodd"/><path transform="matrix(1,0,0,-1,0,595.276)" d="M366.96 471.796C367.32 471.796 367.44 471.916 367.44 472.276 367.44 472.396 367.44 472.516 367.32 472.636 367.44 472.636 367.44 472.756 367.44 472.876 367.44 473.116 367.44 473.236 367.32 473.236 367.2 473.356 367.08 473.356 366.84 473.356 366.72 473.356 366.6 473.356 366.48 473.236 366.36 473.116 366.36 472.996 366.36 472.876H366.6C366.6 472.996 366.72 473.116 366.84 473.116H366.96C367.08 473.116 367.2 472.996 367.08 472.876 367.08 472.876 367.08 472.756 366.96 472.756H366.84V472.516H366.96C367.08 472.516 367.08 472.516 367.08 472.396 367.08 472.396 367.2 472.396 367.2 472.276 367.2 472.156 367.08 472.156 366.96 472.156 366.84 472.156 366.72 472.156 366.72 472.156 366.6 472.156 366.6 472.276 366.6 472.276H366.36C366.36 471.916 366.6 471.796 366.96 471.796Z" fill-rule="evenodd"/><path transform="matrix(1,0,0,-1,0,595.276)" d="M367.92 471.796H368.28L368.76 472.996V473.356H367.68V472.996H368.4Z" fill-rule="evenodd"/><path transform="matrix(1,0,0,-1,0,595.276)" d="M370.2 472.636C370.2 472.876 370.2 472.996 370.08 473.236 369.96 473.356 369.72 473.356 369.6 473.356 369.36 473.356 369.12 473.356 369 473.236 369 472.996 368.88 472.876 368.88 472.636 368.88 472.276 369 472.156 369 472.036 369.12 471.796 369.36 471.796 369.6 471.796 369.72 471.796 369.96 471.796 370.08 472.036 370.2 472.156 370.2 472.276 370.2 472.636ZM369.84 472.636C369.84 472.396 369.84 472.276 369.84 472.156 369.72 472.156 369.6 472.036 369.6 472.036 369.36 472.036 369.24 472.276 369.24 472.636 369.24 472.756 369.24 472.876 369.24 472.996 369.36 472.996 369.48 473.116 369.6 473.116 369.72 473.116 369.84 472.876 369.84 472.636Z" fill-rule="evenodd"/><path transform="matrix(1,0,0,-1,0,595.276)" d="M371.76 472.636C371.76 472.876 371.64 472.996 371.64 473.236 371.52 473.356 371.28 473.356 371.04 473.356 370.92 473.356 370.68 473.356 370.56 473.236 370.44 472.996 370.44 472.876 370.44 472.636 370.44 472.276 370.44 472.156 370.56 472.036 370.68 471.796 370.92 471.796 371.04 471.796 371.28 471.796 371.52 471.796 371.64 472.036 371.64 472.156 371.76 472.276 371.76 472.636ZM371.4 472.636C371.4 472.396 371.4 472.276 371.4 472.156 371.28 472.156 371.16 472.036 371.04 472.036 370.92 472.036 370.8 472.276 370.8 472.636 370.8 472.756 370.8 472.876 370.8 472.996 370.92 472.996 371.04 473.116 371.04 473.116 371.28 473.116 371.4 472.876 371.4 472.636Z" fill-rule="evenodd"/><path transform="matrix(1,0,0,-1,0,595.276)" d="M335.64 481.876H378.96L378.48 482.356H379.2L379.92 481.636 379.2 480.916H378.48L378.96 481.396H335.64Z" fill-rule="evenodd"/><path transform="matrix(1,0,0,-1,0,595.276)" d="M347.4 479.476 347.28 479.596 347.04 479.236 346.56 478.996 346.92 478.756 347.28 478.996 347.52 479.356Z" fill-rule="evenodd"/><path transform="matrix(1,0,0,-1,0,595.276)" d="M347.88 478.756H346.92V478.396H347.88V477.916H346.56V477.556H347.88V476.836H348.24V477.556H349.56V477.916H348.24V478.396H349.2V478.756H348.24V479.596 479.716H348.12 347.88Z" fill-rule="evenodd"/><path transform="matrix(1,0,0,-1,0,595.276)" d="M348.72 479.596 348.48 479.356 348.84 478.996 349.2 478.756 349.44 478.996 349.08 479.236Z" fill-rule="evenodd"/><path transform="matrix(1,0,0,-1,0,595.276)" d="M350.4 477.796 350.76 477.556 351.12 478.156 351.36 478.756V478.876L351.24 478.996 351 479.116 350.88 478.636 350.76 478.396 350.64 478.036Z" fill-rule="evenodd"/><path transform="matrix(1,0,0,-1,0,595.276)" d="M351.96 479.716H351.84V477.316 477.196H351.72 351.6 351.36L351.48 476.836H351.72 351.96L352.08 476.956V477.076 477.196 479.596H352.2L352.08 479.716Z" fill-rule="evenodd"/><path transform="matrix(1,0,0,-1,0,595.276)" d="M353.16 477.556 353.52 477.796 353.28 478.036 353.04 478.396 352.92 478.636 352.8 478.996H352.56L352.68 478.636 352.8 478.276 352.92 477.916Z" fill-rule="evenodd"/><path transform="matrix(1,0,0,-1,0,595.276)" d="M356.16 478.636H355.56V478.396H356.64V478.036H355.56V477.796H356.64V477.316 477.196L356.52 477.076H356.4 356.04L356.16 476.836H356.52 356.64L356.76 476.956H356.88V477.196 477.796H357.36V478.036H356.88V478.396H357.24V478.636H356.52V479.116H357.12V479.356H356.52V479.596 479.716H356.16V479.356H355.56V479.116H356.16Z" fill-rule="evenodd"/><path transform="matrix(1,0,0,-1,0,595.276)" d="M355.92 477.796 355.68 477.556 355.92 477.316 356.04 477.196 356.28 477.436 356.04 477.556Z" fill-rule="evenodd"/><path transform="matrix(1,0,0,-1,0,595.276)" d="M354.48 479.476V477.316 477.076H354.72V477.436H355.08V477.316H355.32V479.476H354.48ZM354.72 478.516V479.236H355.08V478.516H354.72ZM354.72 477.676V478.276H355.08V477.676H354.72Z" fill-rule="evenodd"/><path transform="matrix(1,0,0,-1,0,595.276)" d="M359.04 479.716H358.92L358.8 479.356 358.56 478.996 358.44 478.636 358.32 478.396 358.44 478.156 358.68 478.396V476.836H358.92V478.996L359.16 479.476H359.28V479.596H359.16Z" fill-rule="evenodd"/><path transform="matrix(1,0,0,-1,0,595.276)" d="M360 479.716V479.476H359.16V479.236H361.08V479.476H360.24V479.596H360.36V479.716H360.24Z" fill-rule="evenodd"/><path transform="matrix(1,0,0,-1,0,595.276)" d="M359.4 478.996V478.396H360.84V478.996H359.4ZM359.64 478.636V478.876H360.6V478.636H359.64Z" fill-rule="evenodd"/><path transform="matrix(1,0,0,-1,0,595.276)" d="M359.16 478.276V477.556H359.4V478.036H360.96V477.556H361.2V478.276Z" fill-rule="evenodd"/><path transform="matrix(1,0,0,-1,0,595.276)" d="M359.52 477.796V477.556H360.12V477.316L360 477.196 359.88 477.076H359.64L359.76 476.836H359.88L360.12 476.956H360.24L360.36 477.076V477.316 477.556H360.72V477.796Z" fill-rule="evenodd"/><path transform="matrix(1,0,0,-1,0,595.276)" d="M362.4 479.476V479.236H363.6V478.996H362.64V477.796H363.6V477.556H362.28V477.196H363.6V476.836H363.84V477.196H365.04V477.556H363.84V477.796H364.68V478.996H363.84V479.236H364.92V479.476H363.84V479.596 479.716H363.6V479.476H362.4ZM363 478.516V478.756H363.6V478.516H363ZM363 478.036V478.276H363.6V478.036H363ZM363.84 478.516V478.756H364.44V478.516H363.84ZM363.84 478.036V478.276H364.44V478.036H363.84Z" fill-rule="evenodd"/><path transform="matrix(1,0,0,-1,0,595.276)" d="M366 478.996 366.12 478.756 366.24 478.876V478.636H366.6V478.396H366.12V478.156H366.6V477.316L366.12 477.196V476.956H366.24V476.836 476.956H366.36L367.32 477.076V477.316H366.84V478.156H367.2V478.396H366.84V478.636H367.2V478.876H366.36L366.6 479.116 366.72 479.356 366.96 479.116 367.2 478.996 367.44 479.116 367.08 479.356 366.84 479.476 366.96 479.596 366.72 479.836 366.6 479.596 366.36 479.356 366.12 479.116Z" fill-rule="evenodd"/><path transform="matrix(1,0,0,-1,0,595.276)" d="M366.36 477.916H366.12V477.676L366.24 477.316 366.48 477.436V477.676Z" fill-rule="evenodd"/><path transform="matrix(1,0,0,-1,0,595.276)" d="M366.96 477.436H367.08L367.32 477.796V477.916L367.08 478.036Z" fill-rule="evenodd"/><path transform="matrix(1,0,0,-1,0,595.276)" d="M367.44 479.476V479.236H368.04V478.996H367.44V478.756H368.04V478.516H367.32V478.276H367.92L367.8 478.036 367.68 477.916 367.44 477.796 367.2 477.676 367.44 477.436 367.68 477.676V477.196H367.44V476.956 476.836L367.56 476.956 368.28 477.076V477.316H367.92V477.796L368.16 478.036V477.676L368.4 477.436 368.52 477.076 368.88 476.836 369.12 477.076 368.88 477.316 368.64 477.556 369 477.796V477.916L368.88 478.156 368.52 477.796 368.4 478.036 368.28 478.276H369V478.516H368.28V478.756H368.88V478.996H368.28V479.236H369V479.476H368.28V479.596H368.4L368.28 479.716H368.04V479.476Z" fill-rule="evenodd"/><path transform="matrix(1,0,0,-1,0,595.276)" d="M350.16 470.596V470.356H350.64V469.636H350.16V469.516H351.6V469.636H351.12V470.356H351.48V470.596H351.12L351.24 470.716V470.836H351.12L351 470.596H350.64V470.716L350.52 470.836 350.4 470.716 350.52 470.596H350.16ZM350.76 469.636V470.356H351V469.636H350.76Z" fill-rule="evenodd"/><path transform="matrix(1,0,0,-1,0,595.276)" d="M350.4 470.236H350.16L350.28 469.756H350.52L350.4 469.996Z" fill-rule="evenodd"/><path transform="matrix(1,0,0,-1,0,595.276)" d="M351.12 469.756H351.24 351.36V469.876 469.996L351.48 470.116V470.236H351.24V470.116 469.996 469.876Z" fill-rule="evenodd"/><path transform="matrix(1,0,0,-1,0,595.276)" d="M352.92 470.596V470.716H353.4V470.836H352.2V470.716H352.68V470.596H352.08V470.236H352.32V470.476H352.68V470.116H352.92V470.476H353.4V470.236H353.52V470.596Z" fill-rule="evenodd"/><path transform="matrix(1,0,0,-1,0,595.276)" d="M352.92 470.476V470.356H353.28V470.476Z" fill-rule="evenodd"/><path transform="matrix(1,0,0,-1,0,595.276)" d="M352.92 470.236V470.116H353.28V470.236Z" fill-rule="evenodd"/><path transform="matrix(1,0,0,-1,0,595.276)" d="M353.52 470.116H352.08V469.996H352.68V469.876H352.2V469.396H352.32V469.756H352.56V469.396H352.68V469.756H352.92V469.396H353.04V469.756H353.28V469.636 469.516H353.16V469.396H353.28 353.4V469.516 469.636 469.876H352.8V469.996H353.52Z" fill-rule="evenodd"/><path transform="matrix(1,0,0,-1,0,595.276)" d="M352.32 470.476V470.356H352.68V470.476Z" fill-rule="evenodd"/><path transform="matrix(1,0,0,-1,0,595.276)" d="M352.32 470.236V470.116H352.68V470.236Z" fill-rule="evenodd"/><path transform="matrix(1,0,0,-1,0,595.276)" d="M354.12 470.836V470.716H354.6V470.836Z" fill-rule="evenodd"/><path transform="matrix(1,0,0,-1,0,595.276)" d="M354.12 470.596V470.476H354.6V470.596Z" fill-rule="evenodd"/><path transform="matrix(1,0,0,-1,0,595.276)" d="M354.12 470.356V470.236H354.6V470.356Z" fill-rule="evenodd"/><path transform="matrix(1,0,0,-1,0,595.276)" d="M354.12 470.116V469.996H354.6V470.116Z" fill-rule="evenodd"/><path transform="matrix(1,0,0,-1,0,595.276)" d="M354.12 469.396H354.24V469.516H354.48V469.396H354.6V469.876H354.12V469.396ZM354.24 469.636V469.756H354.48V469.636H354.24Z" fill-rule="evenodd"/><path transform="matrix(1,0,0,-1,0,595.276)" d="M354.84 470.596H354.96V470.716L354.84 470.836H354.72Z" fill-rule="evenodd"/><path transform="matrix(1,0,0,-1,0,595.276)" d="M354.72 469.996H354.84V469.876 469.756L354.72 469.636 354.6 469.516 354.72 469.396 354.84 469.516 354.96 469.636V469.876 469.996H355.08V469.636 469.516L355.2 469.396H355.32 355.44L355.56 469.516V469.636L355.44 469.756V469.636L355.32 469.516 355.2 469.636V469.996H355.44V470.476H354.72V469.996ZM354.84 470.116V470.356H355.32V470.116H354.84Z" fill-rule="evenodd"/><path transform="matrix(1,0,0,-1,0,595.276)" d="M355.08 470.596H355.32V470.836H355.44 355.32 355.2Z" fill-rule="evenodd"/><path transform="matrix(1,0,0,-1,0,595.276)" d="M356.04 470.716V469.636H356.28V469.876H356.52V469.756H356.64V470.716H356.04ZM356.28 470.356V470.596H356.52V470.356H356.28ZM356.28 469.996V470.236H356.52V469.996H356.28Z" fill-rule="evenodd"/><path transform="matrix(1,0,0,-1,0,595.276)" d="M356.76 470.836V470.116 469.876 469.756L356.64 469.636V469.516L356.76 469.396V469.516L356.88 469.636V469.756 469.876H357.36V469.636H357.24L357.12 469.516V469.396H357.36L357.48 469.516V469.636 470.836H356.76ZM357 470.476V470.716H357.36V470.476H357ZM357 469.996V470.356H357.36V469.996H357Z" fill-rule="evenodd"/><path transform="matrix(1,0,0,-1,0,595.276)" d="M357.96 470.476 358.08 470.356V470.476 470.356H358.32V470.236H358.08V469.996H358.32V469.636H358.08V469.516 469.396L358.2 469.516H358.68V469.636H358.44V469.996H358.56V470.236H358.44V470.356H358.56V470.476H358.08L358.2 470.596 358.32 470.716 358.44 470.596 358.56 470.476 358.68 470.596 358.56 470.716H358.44V470.836H358.32V470.716H358.2L358.08 470.596Z" fill-rule="evenodd"/><path transform="matrix(1,0,0,-1,0,595.276)" d="M358.2 469.996H358.08V469.876 469.636L358.2 469.756V469.876Z" fill-rule="evenodd"/><path transform="matrix(1,0,0,-1,0,595.276)" d="M358.44 469.756H358.56L358.68 469.876V469.996H358.56Z" fill-rule="evenodd"/><path transform="matrix(1,0,0,-1,0,595.276)" d="M358.68 470.716V470.596H359.04V470.476H358.68V470.356H359.04V470.236H358.68V470.116H358.92V469.996H358.8L358.68 469.876H358.56L358.68 469.756H358.8V469.636H358.68V469.396H358.8L359.16 469.516V469.636H358.92V469.876L359.04 469.996V469.876L359.16 469.756 359.28 469.516 359.4 469.396 359.52 469.516 359.4 469.636 359.28 469.756 359.4 469.876H359.52V469.996H359.4L359.16 469.876V469.996 470.116H359.52V470.236H359.16V470.356H359.4V470.476H359.16V470.596H359.52V470.716H359.16V470.836H359.04V470.716Z" fill-rule="evenodd"/><path transform="matrix(1,0,0,-1,0,595.276)" d="M360.24 470.836V470.596H360V470.356H360.24V470.236L360.12 470.116V469.996L360 469.876 360.12 469.756 360.24 469.876V470.116 469.396H360.36V470.116L360.48 469.996 360.6 469.876V469.996L360.48 470.236 360.36 470.356H360.6V470.596H360.36V470.836H360.48 360.36Z" fill-rule="evenodd"/><path transform="matrix(1,0,0,-1,0,595.276)" d="M360.96 470.836H360.84L360.96 470.596H361.08L361.2 470.716 361.08 470.836Z" fill-rule="evenodd"/><path transform="matrix(1,0,0,-1,0,595.276)" d="M360.72 470.476V470.356H360.96V470.116H360.72V469.876H360.96V469.636H360.6V469.396H361.56V469.636H361.2V469.876H361.44V470.116H361.2V470.356H361.44V470.476Z" fill-rule="evenodd"/><path transform="matrix(1,0,0,-1,0,595.276)" d="M362.04 470.836V470.356H362.52V470.836H362.04ZM362.16 470.476V470.716H362.4V470.476H362.16Z" fill-rule="evenodd"/><path transform="matrix(1,0,0,-1,0,595.276)" d="M362.04 470.356V470.236H362.16L362.04 469.756H362.16L362.28 469.876H362.4V469.756 469.636H362.28V469.516H362.16 362.04L362.16 469.396H362.28L362.4 469.516 362.52 469.636V469.756 469.876 469.996H362.28V470.236H362.52V470.356Z" fill-rule="evenodd"/><path transform="matrix(1,0,0,-1,0,595.276)" d="M362.64 470.596V469.996 469.876L362.52 469.756V469.636 469.516L362.64 469.396V469.516L362.76 469.636V469.876 469.996 470.236H362.88V470.116H363 363.24 363.36 363.48V470.236H363.36 363.24V470.116H363.12L363 470.236 363.24 470.356H363V470.476H363.36V470.356H363.48V470.596H363V470.716H363.36V470.836H363 363.12 363 362.88V470.596H362.64ZM362.76 470.356V470.476H362.88V470.356H362.76Z" fill-rule="evenodd"/><path transform="matrix(1,0,0,-1,0,595.276)" d="M362.64 469.516 362.76 469.396H362.88L363 469.516V469.636 469.756 469.876 469.996H362.88V469.756 469.636H362.76V469.516Z" fill-rule="evenodd"/><path transform="matrix(1,0,0,-1,0,595.276)" d="M363.12 469.996V469.636 469.516 469.396H363.24 363.36L363.48 469.516V469.636H363.36V469.516H363.24V469.636 469.876 469.996Z" fill-rule="evenodd"/><path transform="matrix(1,0,0,-1,0,595.276)" d="M364.08 470.596H364.2V470.476L364.08 470.356V470.236L363.96 470.116 364.08 469.996V470.116 469.516H364.32V469.636H364.44 364.56V470.356H364.32V470.596H364.56V470.716H364.08V470.596ZM364.32 469.876V470.236H364.44V469.876H364.32Z" fill-rule="evenodd"/><path transform="matrix(1,0,0,-1,0,595.276)" d="M364.68 470.836V469.876H364.8V469.996H365.28V469.876 469.756 469.636L365.16 469.516H365.04L365.16 469.396H365.28L365.4 469.516V469.636 469.756 469.876 469.996 470.116H365.16V470.236H365.4V470.356H365.16V470.476H365.4V470.596H365.16V470.716H365.4V470.836H364.68ZM364.8 470.116V470.236H364.92V470.116H364.8ZM364.8 470.596V470.716H364.92V470.596H364.8ZM364.8 470.356V470.476H364.92V470.356H364.8Z" fill-rule="evenodd"/><path transform="matrix(1,0,0,-1,0,595.276)" d="M364.56 469.516H364.68V469.636 469.876H364.56Z" fill-rule="evenodd"/><path transform="matrix(1,0,0,-1,0,595.276)" d="M364.8 469.516H364.92V469.756 469.876H364.8Z" fill-rule="evenodd"/><path transform="matrix(1,0,0,-1,0,595.276)" d="M365.04 469.636H365.16L365.04 469.756V469.876H364.92Z" fill-rule="evenodd"/><path transform="matrix(1,0,0,-1,0,595.276)" d="M365.16 469.636H365.28V469.756L365.16 469.876H365.04Z" fill-rule="evenodd"/><path transform="matrix(1,0,0,-1,0,595.276)" d="M354.72 475.516H354.6V474.316H354.12V474.196H355.56V474.316H354.84V474.916H355.32V475.036H354.84V475.516Z" fill-rule="evenodd"/><path transform="matrix(1,0,0,-1,0,595.276)" d="M356.04 475.036 356.28 474.916 356.4 475.156H356.76V474.796H356.04V474.676H356.76V474.076H356.88V474.676H357.48V474.796H356.88V475.156H357.36V475.276H356.52L356.64 475.396V475.516H356.52L356.28 475.276Z" fill-rule="evenodd"/><path transform="matrix(1,0,0,-1,0,595.276)" d="M358.08 474.196 358.2 474.076 358.32 474.196V474.316L358.44 474.436 358.56 474.556V474.676 474.796 475.036 475.156H358.68V475.276H358.56 358.44V475.036 474.916 474.796L358.32 474.556V474.436L358.2 474.316Z" fill-rule="evenodd"/><path transform="matrix(1,0,0,-1,0,595.276)" d="M358.56 475.516V475.396H358.92V475.156 475.036 474.916L359.04 474.676V474.556 474.436L359.16 474.316 359.28 474.196 359.4 474.076 359.52 474.196 359.4 474.316 359.28 474.436V474.556L359.16 474.676V474.796 474.916L359.04 475.036V475.156 475.516Z" fill-rule="evenodd"/><path transform="matrix(1,0,0,-1,0,595.276)" d="M360.96 475.036H360.6V474.916H361.08V474.676H360.6V474.556H361.08V474.316 474.196H360.84L360.96 474.076H361.08 361.2V474.196H361.32V474.556H361.44V474.676H361.32V474.916H361.44V475.036H361.08V475.156H361.44V475.276H361.08V475.516H360.96V475.396H360.6V475.156H360.96Z" fill-rule="evenodd"/><path transform="matrix(1,0,0,-1,0,595.276)" d="M360.72 474.556V474.436 474.316L360.84 474.196 360.96 474.316 360.84 474.436Z" fill-rule="evenodd"/><path transform="matrix(1,0,0,-1,0,595.276)" d="M360 475.396V474.316 474.196H360.24V474.436H360.36V474.316H360.48V475.396H360ZM360.24 474.916V475.276H360.36V474.916H360.24ZM360.24 474.556V474.796H360.36V474.556H360.24Z" fill-rule="evenodd"/><path transform="matrix(1,0,0,-1,0,595.276)" d="M362.04 475.276H362.52L362.4 475.036H362.16V474.796H362.28L363.12 474.916 363.24 474.796 363.36 474.916 363.24 475.156 363.12 475.276 363 475.156 363.12 475.036H362.52L362.76 475.276H363.36V475.516H362.04Z" fill-rule="evenodd"/><path transform="matrix(1,0,0,-1,0,595.276)" d="M362.04 474.196H363.48V474.316H362.88V474.556H363.24V474.676H362.88V474.796H362.76L362.64 474.916V474.676H362.16V474.556H362.64V474.316H362.04Z" fill-rule="evenodd"/><path transform="matrix(1,0,0,-1,0,595.276)" d="M344.16 475.156 344.28 475.036 344.52 475.276H345.48V475.396H344.52L344.64 475.516H344.52L344.4 475.396 344.28 475.276V475.156Z" fill-rule="evenodd"/><path transform="matrix(1,0,0,-1,0,595.276)" d="M344.16 474.796V474.676H344.4L344.28 474.196H344.4V474.316H345.12V474.196H345 344.88L345 474.076H345.12L345.24 474.196 345.36 474.316H345.6V474.436H345.36V474.676H345.6V474.796H345.36V475.156H344.4V474.796H344.16ZM344.88 475.036H345.24V474.796H345L345.12 474.916H345L344.88 475.036ZM344.52 474.796V475.036H344.88L344.76 474.916H344.88V474.796H344.52ZM344.76 474.676H345.24V474.436H344.88L345 474.556H344.88L344.76 474.676ZM344.76 474.676V474.676L344.64 474.556H344.76L344.88 474.436H344.52V474.676H344.76Z" fill-rule="evenodd"/><path transform="matrix(1,0,0,-1,0,595.276)" d="M346.32 474.076H346.44V474.196H347.28V474.076H347.4V475.516H346.32V474.076ZM346.44 474.436V474.796H347.28V474.436H346.44ZM346.44 474.916V475.276H347.28V474.916H346.44Z" fill-rule="evenodd"/><path transform="matrix(1,0,0,-1,0,595.276)" d="M348.12 474.556V474.436 474.316H348.24V474.436H348.48V474.076H348.72V474.556H348.84V474.676H348.72V475.516H348.48V474.676L348.36 474.556V475.276 475.396H348.24V474.556Z" fill-rule="evenodd"/><path transform="matrix(1,0,0,-1,0,595.276)" d="M348.72 474.916 348.84 474.796 348.96 474.916 349.08 475.156H349.32V474.916 474.796 474.676L349.2 474.556V474.676H349.08V474.796 474.916H348.96V474.796 474.676L349.08 474.556V474.436 474.316H348.96 348.84V474.196 474.076L349.08 474.196 349.2 474.316 349.32 474.196 349.44 474.076 349.56 474.196 349.44 474.316 349.32 474.436 349.44 474.556V474.796 474.916 475.156H349.56V475.276H349.08V475.516H349.2 349.08 348.96V475.396L348.84 475.156V475.036Z" fill-rule="evenodd"/><path transform="matrix(1,0,0,-1,0,595.276)" d="M350.16 475.396V475.396H350.52V475.276H350.28L350.16 474.916H350.28V475.036H350.4L350.28 474.916 350.16 474.796H350.28 350.4V474.316H350.52L350.16 474.196 350.28 474.076H350.52L350.76 474.196 350.64 474.316H351L350.88 474.196 351.12 474.076H351.36L351.48 474.196H351.24L351.12 474.316H351.24V474.796L351.36 474.676H351.48V474.796L351.6 474.916V475.036H351.12V475.156H351.48V475.396H351.12V475.516H351 350.88V475.396H350.76V475.516H350.64 350.52V475.396H350.16ZM350.52 475.036H350.4V475.156H350.52V475.036ZM350.76 475.276V475.396H350.88V475.276H350.76ZM350.88 475.036H350.64V475.156H350.88V475.036ZM351.12 475.276V475.396H351.24V475.276H351.12ZM350.52 474.676V474.796H351.12V474.676H350.52ZM350.88 474.916H350.52L350.64 475.036H350.88V474.916ZM351.12 474.916V475.036H351.36V474.916 474.796H351.24V474.916H351.12ZM350.52 474.556V474.556H351.12 350.52ZM350.52 474.436V474.436H351.12 350.52Z" fill-rule="evenodd"/><path transform="matrix(1,0,0,-1,0,595.276)" d="M352.2 475.276V474.076H352.32V474.196H353.28V474.076H353.4V475.276H352.92V475.516H352.68V475.276H352.2ZM352.32 474.796V475.156H352.68V474.796H352.32ZM352.92 474.796V475.156H353.28V474.796H352.92ZM352.32 474.316V474.676H352.68V474.316H352.32ZM352.92 474.316V474.676H353.28V474.316H352.92Z" fill-rule="evenodd"/><path transform="matrix(1,0,0,-1,0,595.276)" d="M363.96 475.396V475.276H364.56V474.076H364.8V474.916L364.92 474.676 365.16 474.556 365.28 474.676 365.04 474.916 364.8 475.036V475.276H365.4V475.396Z" fill-rule="evenodd"/><path transform="matrix(1,0,0,-1,0,595.276)" d="M366 475.036 366.12 474.916 366.36 475.156H366.72V474.796H366V474.676H366.72V474.076H366.84V474.676H367.44V474.796H366.84V475.156H367.32V475.276H366.48V475.396 475.516H366.6 366.48 366.36L366.24 475.276Z" fill-rule="evenodd"/><path transform="matrix(1,0,0,-1,0,595.276)" d="M367.92 474.196 368.04 474.076 368.16 474.196 368.28 474.316 368.4 474.436V474.556L368.52 474.676V474.796 475.036 475.156 475.276H368.4V475.036 474.916L368.28 474.796V474.556 474.436L368.16 474.316H368.04Z" fill-rule="evenodd"/><path transform="matrix(1,0,0,-1,0,595.276)" d="M368.52 475.516V475.396H368.88V475.156 475.036 474.916 474.676L369 474.556V474.436L369.12 474.316 369.24 474.196V474.076L369.48 474.196 369.36 474.316 369.24 474.436 369.12 474.556V474.676 474.796L369 474.916V475.036 475.156 475.516Z" fill-rule="evenodd"/><path transform="matrix(1,0,0,-1,0,595.276)" d="M370.8 475.036H370.56V474.916H371.04V474.676H370.44V474.556H371.04V474.316 474.196H370.92 370.8V474.076H370.92 371.04 371.16V474.196 474.556H371.4V474.676H371.16V474.916H371.4V475.036H371.04V475.156H371.28V475.276H371.04V475.516H370.8V475.396H370.56V475.156H370.8Z" fill-rule="evenodd"/><path transform="matrix(1,0,0,-1,0,595.276)" d="M370.68 474.556 370.56 474.436 370.68 474.316 370.8 474.196 370.92 474.316 370.8 474.436Z" fill-rule="evenodd"/><path transform="matrix(1,0,0,-1,0,595.276)" d="M369.96 475.396V474.316 474.196H370.08V474.436H370.32V474.316H370.44V475.396H369.96ZM370.08 474.916V475.276H370.32V474.916H370.08ZM370.08 474.556V474.796H370.32V474.556H370.08Z" fill-rule="evenodd"/><path transform="matrix(1,0,0,-1,0,595.276)" d="M343.92 472.756H344.16L344.04 472.516 343.92 472.156H344.04 344.16 344.28L344.16 471.916H343.92L344.04 471.796 344.28 471.916 344.4 472.036 344.64 471.796 344.76 471.916 344.52 472.156V472.276L344.64 472.396V472.636 472.756 472.876H344.28V472.996L344.4 473.116V473.236H344.16V472.876H343.92V472.756ZM344.28 472.756H344.52V472.636L344.4 472.396V472.276H344.28 344.16L344.28 472.516V472.756Z" fill-rule="evenodd"/><path transform="matrix(1,0,0,-1,0,595.276)" d="M344.76 471.796H344.88V471.916H345.24V471.796H345.36V472.996H344.76V471.796ZM344.88 472.036V472.756H345.24V472.036H344.88Z" fill-rule="evenodd"/><path transform="matrix(1,0,0,-1,0,595.276)" d="M345.84 472.876 345.96 472.756V472.636H346.2V472.516H345.96V472.396H346.2V471.916H345.96V471.796H346.08L346.56 471.916V472.036H346.32V472.396H346.44V472.516H346.32V472.636H346.44V472.756H345.96L346.08 472.876 346.2 472.996 346.32 472.876 346.44 472.756 346.56 472.876 346.44 472.996 346.32 473.116 346.2 473.236V473.116L346.08 472.996 345.96 472.876Z" fill-rule="evenodd"/><path transform="matrix(1,0,0,-1,0,595.276)" d="M346.08 472.276H345.96V472.156 472.036H346.08V472.156Z" fill-rule="evenodd"/><path transform="matrix(1,0,0,-1,0,595.276)" d="M346.32 472.036H346.44L346.56 472.276H346.44Z" fill-rule="evenodd"/><path transform="matrix(1,0,0,-1,0,595.276)" d="M346.56 472.996V472.876H346.92V472.756H346.56V472.636H346.92V472.516H346.56V472.396H346.8L346.68 472.276H346.56L346.44 472.156 346.56 472.036 346.68 472.156V471.916H346.56V471.796H346.68L347.04 471.916V472.036L346.8 471.916V472.276H346.92V472.156L347.04 472.036 347.16 471.916 347.28 471.796 347.4 471.916 347.28 472.036 347.16 472.156 347.28 472.276H347.4L347.28 472.396 347.04 472.276V472.396H347.4V472.516H347.04V472.636H347.28V472.756H347.04V472.876H347.4V472.996H347.04V473.116 473.236H346.92V472.996Z" fill-rule="evenodd"/><path transform="matrix(1,0,0,-1,0,595.276)" d="M348.36 473.116H348.24V472.996L348.12 472.876 348 472.756V472.636L348.12 472.516V472.636L348.24 472.756H348.6V472.516H347.88V472.396H348.48V472.276L348.36 472.036 348.12 471.916H347.88L348 471.796H348.24L348.48 472.036 348.6 472.156V472.276L348.72 472.156 348.84 472.036 349.08 471.916 349.2 471.796 349.32 471.916 349.2 472.036H348.96L348.84 472.156 348.72 472.396H349.32V472.516H348.72V472.756H349.2V472.876H348.72V473.116 473.236H348.6V472.876H348.36V473.116H348.48 348.36Z" fill-rule="evenodd"/><path transform="matrix(1,0,0,-1,0,595.276)" d="M350.04 473.116V473.116H350.52V472.996H349.92V472.756H350.04V472.876H350.52V472.636H350.64V472.876H351.24V472.756H351.36V472.996H350.64V473.116H351.24Z" fill-rule="evenodd"/><path transform="matrix(1,0,0,-1,0,595.276)" d="M350.16 472.876V472.756H350.52V472.876Z" fill-rule="evenodd"/><path transform="matrix(1,0,0,-1,0,595.276)" d="M350.16 472.756V472.636H350.52V472.756Z" fill-rule="evenodd"/><path transform="matrix(1,0,0,-1,0,595.276)" d="M350.04 472.636V472.276H350.4V472.636H350.04ZM350.16 472.396V472.516H350.28V472.396H350.16Z" fill-rule="evenodd"/><path transform="matrix(1,0,0,-1,0,595.276)" d="M350.4 472.636V472.276H350.76V472.636H350.4ZM350.52 472.396V472.516H350.64V472.396H350.52Z" fill-rule="evenodd"/><path transform="matrix(1,0,0,-1,0,595.276)" d="M350.76 472.876V472.756H351.12V472.876Z" fill-rule="evenodd"/><path transform="matrix(1,0,0,-1,0,595.276)" d="M350.76 472.756V472.636H351.12V472.756Z" fill-rule="evenodd"/><path transform="matrix(1,0,0,-1,0,595.276)" d="M350.88 472.636V472.276H351.24V472.636H350.88ZM351 472.396V472.516H351.12V472.396H351Z" fill-rule="evenodd"/><path transform="matrix(1,0,0,-1,0,595.276)" d="M350.04 471.916H349.92V471.796H351.36V471.916H351.24L351 472.036 351.12 472.156H351.24V472.276H349.92V472.156H350.28L350.16 472.036 350.04 471.916ZM351.24 471.916H350.88L351 472.036 351.24 471.916ZM350.76 471.916V471.916 472.156H351L350.88 472.036 350.76 471.916ZM350.04 471.916V471.916H350.16L350.28 472.036 350.4 471.916H350.04ZM350.4 471.916V471.916H350.52L350.4 472.036V472.156H350.52V471.916H350.4Z" fill-rule="evenodd"/><path transform="matrix(1,0,0,-1,0,595.276)" d="M352.56 472.996H352.8V472.876H352.56V472.756H352.8V472.636H352.44V472.516H353.28V472.636H353.04V472.756H353.28V472.876H353.04V472.996H353.28V473.116H353.04V473.236H352.92 352.8V473.116H352.56Z" fill-rule="evenodd"/><path transform="matrix(1,0,0,-1,0,595.276)" d="M352.56 471.796H352.68V471.916H353.16 353.04 352.92L353.04 471.676 353.16 471.796H353.28V471.916 472.516H352.56V471.796ZM352.68 472.276V472.396H353.16V472.276H352.68ZM352.68 472.036V472.156H353.16V472.036H352.68Z" fill-rule="evenodd"/><path transform="matrix(1,0,0,-1,0,595.276)" d="M351.96 473.116V472.996H352.44V473.116Z" fill-rule="evenodd"/><path transform="matrix(1,0,0,-1,0,595.276)" d="M351.84 472.996V472.756H352.44V472.996Z" fill-rule="evenodd"/><path transform="matrix(1,0,0,-1,0,595.276)" d="M351.96 472.756V472.636H352.44V472.756Z" fill-rule="evenodd"/><path transform="matrix(1,0,0,-1,0,595.276)" d="M351.96 472.516V472.396H352.44V472.516Z" fill-rule="evenodd"/><path transform="matrix(1,0,0,-1,0,595.276)" d="M351.96 471.796H352.08 352.32 352.44V472.276H351.96V471.796ZM352.08 471.916V472.156H352.32V471.916H352.08Z" fill-rule="evenodd"/><path transform="matrix(1,0,0,-1,0,595.276)" d="M354 473.236V472.876H353.88V472.756H354V472.396H353.88V472.276H354V471.916H353.88V471.796H354 354.12V471.916 472.396H354.24V472.516H354.12V472.756H354.24V472.876H354.12V473.116H354.24V473.236H354.12Z" fill-rule="evenodd"/><path transform="matrix(1,0,0,-1,0,595.276)" d="M354.36 473.236V473.116H354.6V472.996H354.48 354.36L354.48 472.876 354.36 472.756H354.24L354.36 472.636H354.6V472.396H354.36L354.24 472.036H354.36V472.156H354.6V472.036 471.916H354.48L354.36 471.796V471.676L354.48 471.796H354.6L354.72 471.916V472.276H354.48V472.396H354.72V472.756H354.48 354.6L354.72 472.876V472.996 473.116 473.236Z" fill-rule="evenodd"/><path transform="matrix(1,0,0,-1,0,595.276)" d="M354.96 473.236 354.84 473.116V472.996L354.96 472.876 355.08 472.756 355.32 472.636V472.756H355.2V472.876H355.32V472.996H355.2L355.08 472.876V472.996L355.2 473.116 355.08 473.236 354.96 473.116Z" fill-rule="evenodd"/><path transform="matrix(1,0,0,-1,0,595.276)" d="M355.08 472.756H354.84V472.636 472.516L354.72 472.396 354.84 472.276V472.396H354.96V472.516 472.636 472.396L355.08 472.276H355.2V472.396H355.32V472.516H355.2V472.396H355.08V472.516Z" fill-rule="evenodd"/><path transform="matrix(1,0,0,-1,0,595.276)" d="M354.72 472.276V472.156H355.08V472.036H354.96L354.84 472.156V472.036L354.96 471.916H354.84L354.72 471.796 354.84 471.676 354.96 471.796V471.916L355.08 471.796 355.2 471.676 355.32 471.796 355.2 471.916H355.08L355.2 472.156V472.276Z" fill-rule="evenodd"/><path transform="matrix(1,0,0,-1,0,595.276)" d="M356.04 473.116V473.116H356.52V472.996H355.92V472.636H356.04V472.876H356.52V472.516H356.64V472.876H357.12V472.636H357.24V472.996H356.64V473.116H357.12Z" fill-rule="evenodd"/><path transform="matrix(1,0,0,-1,0,595.276)" d="M356.04 472.756V472.756H356.4Z" fill-rule="evenodd"/><path transform="matrix(1,0,0,-1,0,595.276)" d="M356.04 472.636V472.516H356.4V472.636Z" fill-rule="evenodd"/><path transform="matrix(1,0,0,-1,0,595.276)" d="M356.04 472.396V471.916H356.52V471.796H356.64 357.12 357.24L357.36 471.916 357.24 472.036 357.12 471.916H356.76 356.64 357.12V472.396H356.04ZM356.64 472.276V472.396H357V472.276H356.64ZM356.16 472.276V472.396H356.52V472.276H356.16ZM356.64 472.036V472.156H357V472.036H356.64ZM356.16 472.036V472.156H356.52V472.036H356.16Z" fill-rule="evenodd"/><path transform="matrix(1,0,0,-1,0,595.276)" d="M356.76 472.756V472.756H357.12Z" fill-rule="evenodd"/><path transform="matrix(1,0,0,-1,0,595.276)" d="M356.76 472.636V472.516H357.12V472.636Z" fill-rule="evenodd"/><path transform="matrix(1,0,0,-1,0,595.276)" d="M358.44 473.116 358.56 472.996H358.8V472.756H358.44V472.636H358.8V472.396H358.44V471.796H358.68V471.916H359.04V471.796H359.16V472.396H358.92V472.636H359.28V472.756H358.92V472.996H359.04L359.16 473.116 359.04 473.236 358.8 473.116H358.44ZM358.68 472.036V472.276H359.04V472.036H358.68Z" fill-rule="evenodd"/><path transform="matrix(1,0,0,-1,0,595.276)" d="M357.96 473.116V472.996H358.32V473.116Z" fill-rule="evenodd"/><path transform="matrix(1,0,0,-1,0,595.276)" d="M357.84 472.996V472.876H358.44V472.996Z" fill-rule="evenodd"/><path transform="matrix(1,0,0,-1,0,595.276)" d="M357.84 472.756V472.636H358.32V472.756Z" fill-rule="evenodd"/><path transform="matrix(1,0,0,-1,0,595.276)" d="M357.84 472.516V472.396H358.32V472.516Z" fill-rule="evenodd"/><path transform="matrix(1,0,0,-1,0,595.276)" d="M357.84 471.796H357.96V471.916H358.2V471.796H358.44V472.276H357.84V471.796ZM357.96 472.036V472.156H358.2V472.036H357.96Z" fill-rule="evenodd"/></g></svg>