<?xml version='1.0' encoding='UTF-8'?>
<svg xmlns="http://www.w3.org/2000/svg" xmlns:xlink="http://www.w3.org/1999/xlink" xmlns:inkscape="http://www.inkscape.org/namespaces/inkscape" version="1.1" width="567.000" height="269.280" viewBox="0 0 567.000 269.280"><g transform="scale(10.0) translate(-438.573, -262.656)"><defs><clipPath id="clip_19"><path transform="matrix(0,1,1,0,0,0)" d="M0 74.451H595.008V767.55899H0Z"/></clipPath><clipPath id="clip_20"><path transform="matrix(0,1,1,0,0,0)" d="M0 842.013H595.224V.008972168H0Z"/></clipPath></defs><path transform="matrix(0,1,1,0,482.547,288.018)" d="M0 0H-23.526C-23.688 0-23.832-.018-23.994-.09-24.138-.144-24.282-.234-24.408-.36-24.534-.486-24.624-.63-24.678-.774-24.75-.936-24.768-1.098-24.768-1.242V-29.754C-24.768-29.916-24.75-30.06-24.678-30.222-24.624-30.366-24.534-30.51-24.408-30.636-24.282-30.762-24.138-30.852-23.994-30.906-23.832-30.978-23.688-30.996-23.526-30.996H0C.162-30.996 .306-30.978 .468-30.906 .612-30.852 .756-30.762 .882-30.636 1.008-30.51 1.098-30.366 1.152-30.222 1.224-30.06 1.242-29.916 1.242-29.754V-1.242C1.242-1.098 1.224-.936 1.152-.774 1.098-.63 1.008-.486 .882-.36 .756-.234 .612-.144 .468-.09 .306-.018 .162 0 0 0" fill="#ffffff" fill-rule="evenodd"/><path transform="matrix(0,1,1,0,452.793,263.862)" d="M0 0V28.512C0 28.584 .018 28.674 .054 28.746 .072 28.818 .126 28.89 .18 28.962 .252 29.016 .324 29.07 .396 29.088 .468 29.124 .558 29.142 .63 29.142H24.156C24.318 29.142 24.48 29.088 24.606 28.962 24.66 28.89 24.714 28.818 24.732 28.746 24.768 28.674 24.786 28.584 24.786 28.512V0C24.786-.162 24.732-.324 24.606-.45 24.534-.504 24.462-.558 24.39-.576 24.318-.612 24.228-.63 24.156-.63H.63C.468-.63 .306-.576 .18-.45 .054-.324 0-.162 0 0" fill="#0000ff" fill-rule="evenodd"/><path transform="matrix(0,1,1,0,0,0)" d="M279.162 453.855H283.248V467.355H279.162Z" fill="#ffffff"/><path transform="matrix(0,1,1,0,455.853,280.422)" d="M0 0 .144-.054C.144-.09 .144-.144 .126-.162 .108-.198 .108-.216 .072-.216 .108-.234 .144-.324 .144-.396 .144-.558 .072-.666-.09-.666-.162-.666-.216-.63-.252-.558-.288-.486-.306-.396-.306-.27H-.342C-.36-.27-.378-.27-.396-.288-.414-.288-.414-.324-.414-.342-.414-.378-.414-.432-.396-.45-.378-.486-.36-.522-.342-.558L-.468-.648C-.54-.576-.576-.468-.576-.342-.576-.27-.576-.198-.54-.144-.504-.108-.45-.072-.396-.072H-.036C-.018-.072 0-.036 0 0ZM-.09-.468C-.054-.468-.036-.45-.018-.432-.018-.414 0-.396-.018-.36-.018-.306-.036-.27-.054-.27H-.162C-.162-.324-.162-.378-.144-.414-.126-.45-.108-.468-.09-.468" fill-rule="evenodd"/><path transform="matrix(0,1,1,0,456.663,280.026)" d="M0 0C0-.054 .054-.126 .09-.126H.522V-.306H.054C.018-.306 0-.342 0-.396 0-.45 .054-.522 .09-.522H.522V-.702H-.162V-.522H-.126C-.144-.504-.162-.468-.162-.45-.18-.414-.18-.396-.18-.36-.18-.27-.144-.216-.09-.18-.162-.144-.18-.072-.18 0-.18 .126-.126 .216-.018 .252H0C0 .252-.018 .252 0 .252 0 .27 0 .27 .018 .27H.522V.09H.054L.036 .072C.036 .072 .018 .072 .018 .054 0 .036 0 .018 0 0" fill-rule="evenodd"/><path transform="matrix(0,1,1,0,0,0)" d="M280.98 460.875H281.43V462.207H280.98Z"/><path transform="matrix(0,1,1,0,458.895,282.528)" d="M0 0V.576L-2.106 1.422H-2.646V-.432H-2.106V.846" fill-rule="evenodd"/><path transform="matrix(0,1,1,0,463.791,279.882)" d="M0 0H2.646V-.522H.756V-.936H.27C.27-.864 .27-.792 .252-.738 .234-.684 .216-.63 .198-.594 .18-.558 .144-.54 .126-.522 .09-.504 .054-.486 0-.486V0" fill-rule="evenodd"/><path transform="matrix(0,1,1,0,466.779,281.196)" d="M0 0C-.936 0-1.404-.396-1.404-1.17-1.404-1.548-1.278-1.836-1.044-2.034-.81-2.232-.468-2.322 0-2.322 .486-2.322 .828-2.232 1.062-2.034 1.296-1.836 1.422-1.548 1.422-1.17 1.422-.396 .954 0 0 0ZM0-.576C.306-.576 .54-.63 .684-.72 .828-.828 .918-.972 .918-1.17 .918-1.566 .612-1.764 0-1.764-.288-1.764-.522-1.71-.666-1.62-.828-1.512-.9-1.368-.9-1.17-.9-.972-.828-.828-.666-.72-.522-.63-.288-.576 0-.576" fill-rule="evenodd"/><path transform="matrix(0,1,1,0,467.355,281.196)" stroke-width=".288" stroke-linecap="round" stroke-linejoin="round" fill="none" stroke="#ffffff" d="M0 0H-2.034"/><path transform="matrix(0,1,1,0,0,0)" d="M283.698 453.855H287.784V467.355H283.698Z" fill="#ffffff"/><path transform="matrix(0,1,1,0,477.561,273.762)" d="M0 0-1.656-1.656 0-3.312H1.656L.558-2.214H6.642V-1.098H.558L1.656 0" fill="#ffffff" fill-rule="evenodd"/><path transform="matrix(0,1,1,0,461.073,266.58)" d="M0 0 .918 .918H-.468L-1.854-.468-.468-1.854H.918L0-.936H3.69V0" fill="#ffffff" fill-rule="evenodd"/><path transform="matrix(0,1,1,0,0,0)" d="M264.708 469.047H287.802V469.875H264.708Z" fill="#ffffff"/><path transform="matrix(0,1,1,0,459.597,271.98)" d="M0 0C-.054 .09-.108 .162-.198 .198-.252 .216-.306 .216-.342 .216-.504 .216-.648 .144-.756 .036-.864-.09-.9-.252-.882-.468V-1.152H1.044V-.36C1.044-.216 1.026-.018 .9 .126 .792 .234 .63 .324 .45 .324 .378 .324 .288 .324 .216 .288 .108 .234 .036 .144 0 0ZM-.108-.828H-.594V-.36C-.594-.342-.594-.306-.576-.27-.576-.234-.558-.216-.522-.18-.468-.144-.414-.108-.342-.108-.288-.108-.216-.144-.18-.18-.126-.234-.108-.306-.108-.36V-.828ZM.756-.36V-.828H.144V-.36C.144-.27 .18-.18 .234-.108 .306-.036 .378 0 .45 0 .612 0 .756-.162 .756-.36" fill="#ffffff" fill-rule="evenodd"/><path transform="matrix(0,1,1,0,460.911,273.06)" d="M0 0C0-.126-.054-.27-.162-.378-.27-.504-.414-.558-.54-.558H-1.422V-.252H-.522C-.468-.252-.396-.234-.36-.18-.306-.126-.288-.054-.288 0-.288 .072-.306 .126-.36 .18-.396 .234-.468 .27-.522 .27H-1.422V.576H-.036V.27H-.108C-.072 .234-.054 .198-.036 .144-.018 .108 0 .054 0 0" fill="#ffffff" fill-rule="evenodd"/><path transform="matrix(0,1,1,0,462.261,272.124)" d="M0 0C.018 .036 .018 .09 .018 .144 .018 .144 .018 .162 .018 .18L.036 .216C.036 .396 .162 .558 .306 .648H.324C.378 .684 .45 .684 .522 .684 .612 .684 .702 .63 .756 .576 .882 .432 .936 .27 .936 .09 .936-.126 .81-.342 .63-.486L.432-.288C.504-.252 .558-.198 .594-.126 .63-.054 .648 .018 .648 .09 .648 .126 .648 .162 .63 .198 .63 .234 .612 .27 .612 .288 .594 .324 .558 .36 .504 .36 .486 .36 .468 .36 .45 .342 .432 .342 .414 .324 .396 .324 .36 .27 .324 .18 .324 .09 .324 .054 .306 .018 .306-.036 .27-.18 .198-.288 .108-.36 .108-.378 .108-.378 .09-.378 .036-.414-.054-.432-.126-.432-.216-.432-.306-.378-.36-.324-.432-.234-.486-.126-.504-.018V.018C-.522 .126-.522 .252-.486 .36-.45 .468-.396 .576-.342 .666L-.126 .468C-.18 .378-.216 .252-.216 .144-.216 .09-.216 .054-.198 0-.198-.036-.162-.072-.108-.072-.072-.072-.018-.054 0 0" fill="#ffffff" fill-rule="evenodd"/><path transform="matrix(0,1,1,0,455.853,284.742)" d="M0 0C-.234 0-.36-.108-.36-.306-.36-.378-.342-.468-.306-.486H-.342V-.648H.576V-.468H.306C.342-.45 .378-.378 .378-.306 .378-.216 .342-.144 .27-.09 .198-.018 .108 0 0 0ZM.198-.324C.198-.36 .18-.396 .162-.414 .126-.45 .108-.468 .072-.468H-.09C-.144-.468-.198-.396-.198-.342V-.324C-.198-.288-.162-.216-.108-.198V-.18H.108C.162-.216 .198-.288 .198-.324" fill-rule="evenodd"/><path transform="matrix(0,1,1,0,456.681,284.562)" d="M0 0C0-.054 .054-.108 .09-.108H.522V-.288H.054C.018-.306 0-.342 0-.378 0-.432 .054-.504 .09-.504H.522V-.684H-.162V-.504H-.126C-.144-.486-.162-.45-.162-.432-.18-.396-.18-.378-.18-.342-.18-.252-.144-.198-.09-.162-.144-.126-.18-.054-.18 .018-.18 .144-.126 .234-.018 .27H.018 .036C.036 .27 .018 .27 .036 .27V.288H.522V.09H.054C.054 .09 .036 .09 .018 .072 .018 .054 0 .036 0 0" fill-rule="evenodd"/><path transform="matrix(0,1,1,0,460.443,286.092)" d="M0 0V.378H.522V0H.972V-.54H.522V-1.962H.018L-1.674-.702V0H0ZM-.99-.54 0-1.26V-.54H-.99" fill-rule="evenodd"/><path transform="matrix(0,1,1,0,0,0)" d="M285.516 461.451H285.966V462.783H285.516Z"/><path transform="matrix(0,1,1,0,463.737,287.064)" d="M0 0V.576L-2.106 1.44H-2.646V-.432H-2.106V.846" fill-rule="evenodd"/><path transform="matrix(0,1,1,0,457.383,274.68)" d="M0 0H2.484L2.592 .072 2.646 .18 2.664 .324V2.232L2.628 2.358 2.574 2.448 2.502 2.538 2.412 2.61 2.16 2.682 1.998 2.7 1.908 2.412 2.124 2.376 2.268 2.304 2.358 2.178 2.376 2.034V.396L2.34 .342 2.286 .306H1.26V2.052H1.44V2.34H0V0ZM.972 .306H.26999999V.98999H.972ZM.972 1.278H.26999999V2.05199H.972Z" fill="#ffffff" fill-rule="evenodd"/><path transform="matrix(0,1,1,0,462.603,274.59)" d="M0 0-.018-.252H.9V-1.512H1.206V-.252H2.322V-1.314H2.61V1.134H2.322V.072H1.206V1.332H.9V.072H.126L.072 .144 .036 .162 0 .108" fill="#ffffff" fill-rule="evenodd"/><path transform="matrix(0,1,1,0,454.503,285.912)" d="M0 0H.162V.558H1.278V.72H.522L.666 .9 .828 1.08 .738 1.206 .54 .972 .36 .72H.162V1.35H0" fill-rule="evenodd"/><path transform="matrix(0,1,1,0,456.339,286.272)" d="M0 0 .09 .144-.126 .324V.648H.198V0H.324V.648H.9V.792H.324V1.332H.198V.792H-.126V1.242H-.252V.414L-.36 .468-.378 .504-.396 .522-.414 .504-.432 .468-.468 .378-.216 .198" fill-rule="evenodd"/><path transform="matrix(0,1,1,0,455.151,281.286)" d="M0 0-.018-.108H1.134V-.648H1.278V.702H1.134V.036H.612V.558H.486V.036H.054L.036 .072H.018L0 .054" fill-rule="evenodd"/><path transform="matrix(0,1,1,0,456.339,281.736)" d="M0 0 .072 .144-.126 .324V.648H.18V0H.324V.648H.9V.792H.324V1.332H.18V.792H-.126V1.242H-.27V.414L-.378 .468V.504L-.396 .522-.414 .504-.432 .468-.468 .378-.216 .198" fill-rule="evenodd"/><path transform="matrix(0,1,1,0,481.305,263.25)" stroke-width=".288" stroke-linecap="round" stroke-linejoin="round" fill="none" stroke="#0000ff" d="M0 0C0 .684 .558 1.242 1.242 1.242"/><path transform="matrix(0,1,1,0,452.793,263.25)" stroke-width=".288" stroke-linecap="round" stroke-linejoin="round" fill="none" stroke="#0000ff" d="M0 0V28.512"/><path transform="matrix(0,1,1,0,451.551,264.492)" stroke-width=".288" stroke-linecap="round" stroke-linejoin="round" fill="none" stroke="#0000ff" d="M0 0C-.684 0-1.242 .558-1.242 1.242"/><path transform="matrix(0,1,1,0,451.551,288.018)" stroke-width=".288" stroke-linecap="round" stroke-linejoin="round" fill="none" stroke="#0000ff" d="M0 0H-23.526"/><path transform="matrix(0,1,1,0,452.793,289.26)" stroke-width=".288" stroke-linecap="round" stroke-linejoin="round" fill="none" stroke="#0000ff" d="M0 0C0-.684-.558-1.242-1.242-1.242"/><path transform="matrix(0,1,1,0,481.305,289.26)" stroke-width=".288" stroke-linecap="round" stroke-linejoin="round" fill="none" stroke="#0000ff" d="M0 0V-28.512"/><path transform="matrix(0,1,1,0,482.547,288.018)" stroke-width=".288" stroke-linecap="round" stroke-linejoin="round" fill="none" stroke="#0000ff" d="M0 0C.684 0 1.242-.558 1.242-1.242"/><path transform="matrix(0,1,1,0,482.547,264.492)" stroke-width=".288" stroke-linecap="round" stroke-linejoin="round" fill="none" stroke="#0000ff" d="M0 0H23.526"/></g></svg>