<?xml version='1.0' encoding='UTF-8'?>
<svg xmlns="http://www.w3.org/2000/svg" xmlns:xlink="http://www.w3.org/1999/xlink" xmlns:inkscape="http://www.inkscape.org/namespaces/inkscape" version="1.1" width="567.000" height="269.280" viewBox="0 0 567.000 269.280"><g transform="scale(10.0) translate(-220.305, -47.232)"><defs><clipPath id="clip_2"><path transform="matrix(1,0,0,-1,0,595.276)" d="M74.4 .196H767.4V595.276H74.4Z"/></clipPath></defs><path transform="matrix(1,0,0,-1,0,595.276)" d="M260.52 546.556H234.6C234.48 546.556 234.36 546.556 234.24 546.436 234 546.436 233.88 546.316 233.76 546.196 233.64 546.076 233.52 545.956 233.52 545.836 233.4 545.716 233.4 545.476 233.4 545.356V523.516C233.4 523.156 233.52 522.916 233.76 522.676 233.88 522.556 234 522.436 234.24 522.316 234.36 522.316 234.48 522.316 234.6 522.316H260.52C260.88 522.316 261.12 522.436 261.36 522.676 261.6 522.916 261.72 523.156 261.72 523.516V545.356C261.72 546.076 261.24 546.556 260.52 546.556Z" fill="#ffffff" fill-rule="evenodd"/><path transform="matrix(1,0,0,-1,0,595.276)" d="M259.92 545.356H235.2C235.08 545.356 234.96 545.356 234.84 545.236 234.72 545.116 234.6 544.876 234.6 544.756V524.116C234.6 523.996 234.6 523.996 234.72 523.876 234.72 523.756 234.72 523.756 234.84 523.636 234.84 523.636 234.96 523.516 235.08 523.516H235.2 259.92C260.04 523.516 260.28 523.516 260.4 523.636 260.52 523.756 260.52 523.996 260.52 524.116V544.756C260.52 544.876 260.52 545.116 260.4 545.236 260.28 545.356 260.04 545.356 259.92 545.356Z" fill="#0000ff" fill-rule="evenodd"/><path transform="matrix(1,0,0,-1,0,595.276)" d="M247.44 542.116C247.44 542.956 246.84 543.556 246.12 543.556 245.28 543.556 244.68 542.956 244.68 542.116 244.68 541.396 245.28 540.796 246.12 540.796 246.84 540.796 247.44 541.396 247.44 542.116Z" fill="#ffffff" fill-rule="evenodd"/><path transform="matrix(1,0,0,-1,0,595.276)" d="M249.96 534.916H251.64C251.52 535.036 251.52 535.276 251.52 535.516 251.52 535.756 251.64 535.876 251.76 536.116L252.36 536.836 253.2 537.676C253.32 537.556 253.44 537.436 253.44 537.316 253.44 537.196 253.44 537.076 253.32 536.956L252.36 535.636C252.36 535.516 252.36 535.516 252.36 535.396 252.36 535.276 252.36 535.276 252.36 535.156L253.08 532.876C253.56 533.116 254.16 533.236 254.88 533.236 255.6 533.116 256.32 532.876 256.92 532.516 257.52 532.036 257.88 531.436 258.24 530.836 258.48 530.236 258.6 529.636 258.48 529.036 258.48 528.436 258.36 527.836 258 527.236 257.64 526.636 257.16 526.156 256.44 525.796 255.84 525.436 255.12 525.316 254.4 525.316 253.68 525.316 253.08 525.556 252.6 525.796 252.12 526.156 251.64 526.516 251.28 527.116 250.92 527.716 250.68 528.316 250.68 529.156 250.56 529.876 250.8 530.596 251.16 531.196 251.4 531.796 251.88 532.276 252.36 532.516L252.24 532.756 248.76 529.996 249.12 525.676H247.8L247.32 528.196C247.08 528.076 246.84 527.956 246.48 528.076L246.36 527.716H246.6V527.596H246.36V527.476H246.12V527.596H245.88V527.716H246.12L246.24 528.196C246.12 528.196 246 528.316 245.88 528.436 245.76 528.556 245.76 528.676 245.64 528.796H244.56C244.44 528.316 244.32 527.716 243.96 527.236 243.72 526.756 243.24 526.276 242.64 525.916 242.04 525.556 241.44 525.316 240.84 525.316 240.24 525.316 239.64 525.436 239.16 525.556L239.88 526.156C240.6 526.036 241.56 526.156 242.4 526.636 243.24 527.236 243.6 528.076 243.72 528.796H243.48L241.32 526.516 240.48 526.756 244.92 530.476 244.8 530.236 244.44 529.876C244.56 529.876 244.56 529.876 244.56 529.756V529.636H245.64C245.76 529.756 245.76 529.876 245.88 529.996L245.4 530.956 246 531.436 246.6 530.476C246.6 530.476 246.72 530.476 246.84 530.476L246.12 531.556 247.8 532.996 248.52 530.716 252 533.596 251.88 534.076H249.12L249.96 534.916ZM252.6 531.796C252.24 531.436 251.88 531.076 251.76 530.596 251.52 530.116 251.4 529.516 251.4 528.916 251.52 528.316 251.76 527.836 252 527.356 252.36 526.996 252.72 526.636 253.2 526.396 253.56 526.276 254.04 526.156 254.64 526.156 255.12 526.156 255.72 526.276 256.2 526.516 256.68 526.876 257.04 527.236 257.4 527.716 257.64 528.196 257.76 528.796 257.76 529.156 257.76 529.636 257.64 530.116 257.4 530.596 257.16 531.076 256.8 531.556 256.32 531.916 255.84 532.276 255.24 532.396 254.76 532.396 254.16 532.396 253.68 532.396 253.32 532.156L253.68 530.956C253.92 530.356 254.28 529.876 254.88 529.636 255 529.396 255 529.276 254.88 529.036 254.76 528.916 254.52 528.796 254.4 528.916 254.04 529.156 253.8 529.396 253.56 529.756 253.2 529.996 253.08 530.356 252.96 530.716L252.6 531.796ZM247.32 528.436 246.96 530.236C246.84 530.236 246.72 530.236 246.6 530.116 246.36 530.116 246.24 529.996 246.12 529.876 245.88 529.636 245.88 529.396 245.88 529.036 245.88 528.796 246.12 528.556 246.36 528.316 246.72 528.196 247.08 528.316 247.32 528.436Z" fill="#ffffff" fill-rule="evenodd"/><path transform="matrix(1,0,0,-1,0,595.276)" stroke-width=".12" stroke-linecap="butt" stroke-miterlimit="10" stroke-linejoin="miter" fill="none" stroke="#ffffff" d="M243.5 537.5H244.5"/><path transform="matrix(1,0,0,-1,0,595.276)" d="M244.32 539.956C244.92 540.436 245.88 540.676 246.84 540.436 247.8 540.076 248.4 539.356 248.52 538.636L249 537.316H249.12L248.28 536.716 247.56 537.436 247.44 535.876 243.36 532.396 243.72 533.836 243.6 533.956 242.88 532.516 243 532.396C243.12 532.396 243.12 532.276 243.24 532.276L242.64 531.676C242.52 531.796 242.52 531.796 242.4 531.796L242.28 531.436 240.48 529.876 241.8 532.156C240.48 532.756 239.04 532.396 238.2 531.316 237.84 530.836 237.48 530.236 237.48 529.516 237.36 528.916 237.6 528.196 237.84 527.716L237.24 527.236C236.88 527.836 236.64 528.676 236.64 529.516 236.76 530.476 237.12 531.196 237.6 531.796 238.08 532.396 238.8 532.876 239.76 533.116 240.6 533.356 241.44 533.236 242.16 532.876L243.36 534.916 242.76 535.876C242.64 535.876 242.4 535.876 242.16 536.116 242.04 536.236 241.92 536.476 241.92 536.596V537.076H243.24L242.4 538.396 244.32 539.956ZM243.6 536.116 243.96 535.396 244.2 536.356 243.6 536.116ZM243.96 537.076H244.2L244.44 538.636 243.72 538.156 243.96 537.076Z" fill="#ffffff" fill-rule="evenodd"/><path transform="matrix(1,0,0,-1,0,595.276)" d="M236.76 523.516 260.52 543.916V544.756C260.52 544.876 260.52 545.116 260.4 545.236 260.28 545.356 260.04 545.356 259.92 545.356H258.48L234.6 524.956V524.116C234.6 523.996 234.72 523.756 234.84 523.636 234.96 523.516 235.08 523.516 235.2 523.516H236.76Z" fill="#ff0000" fill-rule="evenodd"/><path transform="matrix(1,0,0,-1,0,595.276)" stroke-width=".12" stroke-linecap="round" stroke-linejoin="round" fill="none" stroke="#0000ff" d="M261.72 523.516V545.356C261.72 546.076 261.24 546.556 260.52 546.556H234.6C234 546.556 233.4 546.076 233.4 545.356V523.516C233.4 522.796 234 522.316 234.6 522.316H260.52C261.24 522.316 261.72 522.796 261.72 523.516"/></g></svg>