<?xml version='1.0' encoding='UTF-8'?>
<svg xmlns="http://www.w3.org/2000/svg" xmlns:xlink="http://www.w3.org/1999/xlink" xmlns:inkscape="http://www.inkscape.org/namespaces/inkscape" version="1.1" width="566.700" height="269.280" viewBox="0 0 566.700 269.280"><g transform="scale(10.0) translate(-602.205, -101.088)"><path transform="matrix(1,0,0,-1,0,595.276)" d="M639 492.796H621.84C621.72 492.796 621.6 492.796 621.48 492.676 621.24 492.676 621.12 492.556 621 492.436 620.88 492.316 620.88 492.196 620.76 492.076 620.76 491.836 620.64 491.716 620.64 491.596V469.516C620.64 469.276 620.76 468.916 621 468.676 621.12 468.556 621.24 468.436 621.48 468.436 621.6 468.316 621.72 468.316 621.84 468.316H639C639.36 468.316 639.6 468.436 639.84 468.676 639.96 468.796 640.08 468.916 640.2 469.036 640.2 469.276 640.2 469.396 640.2 469.516V491.596C640.2 491.836 640.08 492.196 639.84 492.436 639.72 492.556 639.6 492.676 639.48 492.676 639.36 492.796 639.24 492.796 639 492.796ZM621.84 492.196H639C639.24 492.196 639.36 492.076 639.48 491.956 639.6 491.836 639.6 491.716 639.6 491.596V469.516C639.6 469.396 639.6 469.276 639.48 469.156 639.36 469.036 639.36 469.036 639.24 468.916 639.24 468.916 639.12 468.916 639 468.916H621.84C621.72 468.916 621.6 469.036 621.48 469.156 621.36 469.276 621.24 469.396 621.24 469.516V491.596C621.24 491.716 621.36 491.836 621.48 491.956 621.6 492.076 621.72 492.196 621.84 492.196Z" fill-rule="evenodd"/><path transform="matrix(1,0,0,-1,0,595.276)" d="M621.84 492.196H639C639.12 492.196 639.24 492.196 639.24 492.196 639.36 492.076 639.36 492.076 639.48 491.956L639.6 491.836C639.6 491.716 639.6 491.716 639.6 491.596V469.516C639.6 469.396 639.6 469.276 639.48 469.156 639.36 469.036 639.24 468.916 639 468.916H621.84C621.72 468.916 621.6 469.036 621.48 469.156 621.36 469.276 621.24 469.396 621.24 469.516V491.596C621.24 491.716 621.36 491.836 621.48 491.956 621.6 492.076 621.72 492.196 621.84 492.196Z" fill="#ffffff" fill-rule="evenodd"/><path transform="matrix(1,0,0,-1,0,595.276)" d="M628.68 490.036V486.676H627.96V489.076H627.48V489.796C627.6 489.796 627.72 489.796 627.84 489.796 627.96 489.916 627.96 489.916 627.96 490.036H628.68Z" fill-rule="evenodd"/><path transform="matrix(1,0,0,-1,0,595.276)" d="M631.56 487.396C631.56 487.876 631.32 488.116 630.72 488.236 630.48 488.236 630.36 488.236 630.36 488.356H630.24V488.476C630.24 488.596 630.24 488.596 630.48 488.716 630.6 488.716 630.72 488.596 630.84 488.596 630.96 488.596 630.96 488.476 631.08 488.356L631.44 488.836C631.32 489.076 630.96 489.196 630.6 489.316 629.88 489.196 629.52 488.956 629.52 488.356 629.52 487.996 629.76 487.756 630.24 487.636 630.6 487.636 630.84 487.516 630.84 487.396 630.84 487.276 630.72 487.276 630.72 487.276 630.72 487.156 630.6 487.156 630.48 487.156 630.36 487.156 630.24 487.156 630.12 487.276 630 487.276 629.88 487.396 629.76 487.516L629.28 487.036C629.64 486.676 630 486.556 630.48 486.556 630.84 486.556 631.08 486.556 631.2 486.796 631.44 486.916 631.56 487.156 631.56 487.396Z" fill-rule="evenodd"/><path transform="matrix(1,0,0,-1,0,595.276)" d="M632.88 489.076H633.48V488.476H632.88V487.396 487.276C633 487.156 633 487.156 633.12 487.156H633.24C633.36 487.156 633.36 487.156 633.48 487.276L633.6 486.676C633.48 486.556 633.24 486.556 632.88 486.556 632.64 486.556 632.52 486.556 632.4 486.676 632.28 486.796 632.16 486.916 632.16 487.156V488.476H631.8V489.076H632.16V489.916L632.88 490.036V489.076Z" fill-rule="evenodd"/><path transform="matrix(1,0,0,-1,0,595.276)" d="M631.56 478.156H631.32L631.08 477.676H631.8Z" fill-rule="evenodd"/><path transform="matrix(1,0,0,-1,0,595.276)" d="M634.8 471.556C634.8 471.196 634.92 470.836 635.16 470.596 635.4 470.356 635.76 470.236 636.12 470.236 636.36 470.236 636.72 470.356 636.96 470.596 637.32 470.836 637.44 471.196 637.44 471.556 637.44 471.796 637.32 472.156 636.96 472.396 636.72 472.756 636.36 472.876 636.12 472.876 635.28 472.876 634.8 472.276 634.8 471.556ZM635.4 471.556C635.4 471.916 635.64 472.156 636.12 472.156 636.24 472.156 636.36 472.156 636.48 472.036 636.72 471.796 636.72 471.676 636.72 471.556 636.72 471.196 636.48 470.836 636.12 470.836 635.88 470.836 635.76 470.956 635.64 471.076 635.52 471.196 635.4 471.316 635.4 471.556Z" fill-rule="evenodd"/><path transform="matrix(1,0,0,-1,0,595.276)" d="M625.2 471.556C625.2 471.196 625.32 470.836 625.56 470.596 625.8 470.356 626.16 470.236 626.52 470.236 626.88 470.236 627.12 470.356 627.48 470.596 627.72 470.836 627.84 471.196 627.84 471.556 627.84 471.796 627.72 472.156 627.48 472.396 627.12 472.756 626.88 472.876 626.52 472.876 625.8 472.876 625.2 472.276 625.2 471.556ZM625.8 471.556C625.8 471.916 626.16 472.156 626.52 472.156 626.64 472.156 626.88 472.156 627 472.036 627.12 471.796 627.12 471.676 627.12 471.556 627.12 471.196 626.88 470.836 626.52 470.836 626.4 470.836 626.16 470.956 626.04 471.076 625.92 471.196 625.8 471.316 625.8 471.556Z" fill-rule="evenodd"/><path transform="matrix(1,0,0,-1,0,595.276)" d="M628.2 471.316H634.44C634.32 472.276 634.92 472.996 635.76 473.116 636.72 473.236 637.56 472.756 637.68 471.796 637.8 471.796 638.04 471.916 638.16 472.036 638.28 472.036 638.28 472.156 638.28 472.276 638.4 472.396 638.4 472.396 638.4 472.516V473.836C638.4 474.076 638.16 474.436 637.8 474.436L634.08 475.276 632.64 477.316C632.52 477.436 632.4 477.556 632.4 477.556 632.28 477.556 632.16 477.676 632.04 477.676H627.96C627.72 477.676 627.6 477.556 627.36 477.556 627.24 477.436 627.12 477.316 627 477.316L624.6 475.036C624.48 474.916 624.48 474.916 624.36 474.916 624.24 474.796 624.24 474.796 624.12 474.796H623.16C623.04 474.796 622.92 474.796 622.68 474.676 622.56 474.436 622.56 474.316 622.56 474.196V472.036L624.84 471.316C624.84 471.796 624.96 472.276 625.32 472.636 625.68 472.996 626.04 473.116 626.52 473.116 626.88 473.116 627.36 472.996 627.72 472.636 628.08 472.276 628.2 471.796 628.2 471.316ZM625.2 474.676V474.676ZM625.2 474.676 627.84 477.076H629.52V474.676H625.2ZM633.72 474.676V474.676ZM633.72 474.676H629.76V477.076H631.92L633.72 474.676Z" fill="#00ff00" fill-rule="evenodd"/><path transform="matrix(1,0,0,-1,0,595.276)" d="M628.2 471.316V471.316Z" fill="#00ff00" fill-rule="evenodd"/><path transform="matrix(1,0,0,-1,0,595.276)" d="M625.92 484.156 625.56 484.276 625.32 483.796 624.96 483.316 625.32 483.076 625.68 483.556H625.92L626.16 483.076 626.52 483.196 626.28 483.556H627V483.916H625.8L625.92 484.036H626.04V484.156Z" fill-rule="evenodd"/><path transform="matrix(1,0,0,-1,0,595.276)" d="M623.52 482.956V482.596H624.96V482.356H623.64L623.28 481.156H623.64L623.76 481.276H624.6L624.36 481.156 624 480.916 623.64 480.796 623.28 480.556 623.52 480.316 624 480.436 624.36 480.676 624.72 480.916 624.96 481.156V480.196H625.32V481.276H626.64L626.52 481.036 626.4 480.916 626.16 480.796H625.8L626.04 480.436H626.28 626.52L626.76 480.556 626.88 480.676 627 480.916V481.636H625.32V481.996H626.76V482.956H623.52ZM623.76 481.636 623.88 481.996H624.96V481.636H623.76ZM625.32 482.356V482.596H626.4V482.356H625.32Z" fill-rule="evenodd"/><path transform="matrix(1,0,0,-1,0,595.276)" d="M624.24 484.276H623.88L623.52 483.796 623.04 483.316 623.4 483.196 623.88 483.556H624.12L624.36 483.076 624.72 483.196 624.48 483.556H625.08V483.916H624.12V484.036L624.24 484.156Z" fill-rule="evenodd"/><path transform="matrix(1,0,0,-1,0,595.276)" d="M628.44 482.596V482.236H632.52V482.596Z" fill-rule="evenodd"/><path transform="matrix(1,0,0,-1,0,595.276)" d="M633.84 483.436H634.44V483.196H633.84V481.516H634.44V481.276H633.84V480.916H634.44V480.196H634.8V480.916H635.4V481.276H634.8V481.516H635.4V483.196H634.8V483.436H635.4V483.796H634.8V484.036L634.92 484.156 634.8 484.276H634.68 634.44V483.796H633.84V483.436ZM634.8 482.476V482.836H635.04V482.476H634.8ZM634.8 481.876V482.236H635.04V481.876H634.8ZM634.2 482.476V482.836H634.44V482.476H634.2ZM634.2 481.876V482.236H634.44V481.876H634.2Z" fill-rule="evenodd"/><path transform="matrix(1,0,0,-1,0,595.276)" d="M635.52 483.676H636.48V483.196H635.52V480.196H636V481.276 481.156L636.24 481.516V481.396L636.36 481.156 636.48 481.276V480.316H636.96V481.276L637.08 481.156 637.2 481.516 637.32 481.156 637.44 481.276V480.796 480.676 480.556H637.32 637.08L637.2 480.196H637.44 637.68L637.8 480.316V480.436L637.92 480.556V483.196H636.96V483.676H637.92V484.036H635.52V483.676ZM636 481.516V482.116H636.12L636 481.876V481.516ZM636.96 481.516V482.116H637.08V481.876L636.96 481.516ZM637.44 482.476H636.96V482.836H637.44V481.516 481.876 482.476ZM636.48 482.476H636V482.836H636.48V481.516 481.876 482.476Z" fill-rule="evenodd"/></g></svg>