<?xml version='1.0' encoding='UTF-8'?>
<svg xmlns="http://www.w3.org/2000/svg" xmlns:xlink="http://www.w3.org/1999/xlink" xmlns:inkscape="http://www.inkscape.org/namespaces/inkscape" version="1.1" width="566.700" height="269.280" viewBox="0 0 566.700 269.280"><g transform="scale(10.0) translate(-165.765, -558.864)"><path transform="matrix(1,0,0,-1,0,595.276)" d="M211.32 35.596C211.92 35.596 212.52 35.356 213 34.876 213.48 34.396 213.72 33.676 213.72 33.196V12.796C213.72 12.196 213.48 11.476 213 10.996 212.76 10.756 212.52 10.636 212.16 10.516 211.92 10.396 211.56 10.276 211.32 10.276H176.88C176.28 10.276 175.68 10.516 175.2 10.996 174.96 11.236 174.84 11.596 174.72 11.836 174.6 12.196 174.48 12.436 174.48 12.796V33.196C174.48 33.676 174.72 34.396 175.2 34.876 175.68 35.356 176.28 35.596 176.88 35.596H211.32Z" fill="#ffffff" fill-rule="evenodd"/><path transform="matrix(1,0,0,-1,0,595.276)" d="M180.24 34.396H211.32C211.56 34.396 211.92 34.276 212.16 34.036 212.4 33.796 212.52 33.436 212.52 33.196V12.796C212.52 12.556 212.52 12.436 212.4 12.316 212.4 12.196 212.28 11.956 212.16 11.836 212.04 11.716 211.92 11.716 211.68 11.596 211.56 11.596 211.44 11.596 211.32 11.596H192.72V19.036H191.52L183.96 11.596H176.88C176.64 11.596 176.28 11.596 176.04 11.836 175.8 12.076 175.68 12.436 175.68 12.796V19.276L178.32 21.796C178.92 22.396 179.4 23.116 179.76 23.956 180 24.796 180.24 25.636 180.24 26.356V34.396Z" fill="#0000ff" fill-rule="evenodd"/><path transform="matrix(1,0,0,-1,0,595.276)" d="M207.24 32.596 204 29.356V26.116L206.16 28.276V13.276H208.32V28.276L210.48 26.116V29.356Z" fill="#ffffff" fill-rule="evenodd"/><path transform="matrix(1,0,0,-1,0,595.276)" d="M201.6 29.356 198.36 32.596 195.12 29.356V26.116L197.28 28.276V13.276H199.44V28.276L201.6 26.116Z" fill="#ffffff" fill-rule="evenodd"/><path transform="matrix(1,0,0,-1,0,595.276)" d="M191.52 32.356H192.72V27.556H191.52Z" fill="#ffffff" fill-rule="evenodd"/><path transform="matrix(1,0,0,-1,0,595.276)" d="M191.52 25.036H192.72V20.236H191.52Z" fill="#ffffff" fill-rule="evenodd"/><path transform="matrix(1,0,0,-1,0,595.276)" d="M184.68 18.796 179.28 13.396 177.84 14.836 183.24 20.236C183.72 20.716 184.08 21.316 184.32 22.036 184.68 22.636 184.8 23.356 184.8 24.076V28.276L182.64 26.116V29.356L185.88 32.596 189.12 29.356V26.116L186.96 28.276V24.076C186.96 23.116 186.72 22.156 186.36 21.196 186 20.236 185.4 19.396 184.68 18.796Z" fill="#ffffff" fill-rule="evenodd"/><path transform="matrix(1,0,0,-1,0,595.276)" stroke-width=".12" stroke-linecap="round" stroke-linejoin="round" fill="none" stroke="#0000ff" d="M213.72 12.796V33.196C213.72 34.516 212.64 35.596 211.32 35.596H176.88C175.56 35.596 174.48 34.516 174.48 33.196V12.796C174.48 11.356 175.56 10.276 176.88 10.276H211.32C212.64 10.276 213.72 11.356 213.72 12.796"/></g></svg>