<?xml version='1.0' encoding='UTF-8'?>
<svg xmlns="http://www.w3.org/2000/svg" xmlns:xlink="http://www.w3.org/1999/xlink" xmlns:inkscape="http://www.inkscape.org/namespaces/inkscape" version="1.1" width="567.000" height="269.280" viewBox="0 0 567.000 269.280"><g transform="scale(10.0) translate(-111.171, -154.944)"><defs><clipPath id="clip_2"><path transform="matrix(1,0,0,-1,0,595.276)" d="M74.4 .196H767.4V595.276H74.4Z"/></clipPath></defs><path transform="matrix(1,0,0,-1,0,595.276)" d="M159.24 427.036H119.88C119.76 427.036 119.64 427.036 119.52 427.156 119.4 427.276 119.4 427.396 119.4 427.396 119.4 427.516 119.4 427.516 119.4 427.636V438.076C119.4 438.196 119.4 438.436 119.52 438.556 119.64 438.676 119.76 438.676 119.88 438.676H159.24C159.6 438.676 159.84 438.436 159.84 438.076V427.636C159.84 427.516 159.84 427.276 159.72 427.156 159.6 427.036 159.36 427.036 159.24 427.036Z" fill="#ffff00" fill-rule="evenodd"/><path transform="matrix(1,0,0,-1,0,595.276)" d="M139.56 426.436V426.436Z" fill="#ffffff" fill-rule="evenodd"/><path transform="matrix(1,0,0,-1,0,595.276)" d="M139.56 426.436V414.796H119.88C119.76 414.796 119.64 414.916 119.52 415.036 119.4 415.156 119.4 415.276 119.4 415.396V425.836C119.4 426.076 119.4 426.196 119.52 426.316 119.52 426.316 119.64 426.436 119.76 426.436H119.88 139.56Z" fill="#ffffff" fill-rule="evenodd"/><path transform="matrix(1,0,0,-1,0,595.276)" d="M139.56 426.436H159.24C159.36 426.436 159.6 426.436 159.72 426.316 159.84 426.196 159.84 426.076 159.84 425.836V415.396C159.84 415.396 159.84 415.276 159.84 415.156 159.72 415.156 159.72 415.036 159.72 415.036 159.6 414.916 159.6 414.916 159.48 414.916 159.36 414.796 159.36 414.796 159.24 414.796H139.56V426.436Z" fill-rule="evenodd"/><path transform="matrix(1,0,0,-1,0,595.276)" stroke-width=".12" stroke-linecap="round" stroke-linejoin="round" fill="none" stroke="#000000" d="M159.84 415.396C159.84 415.036 159.6 414.796 159.24 414.796"/><path transform="matrix(1,0,0,-1,0,595.276)" d="M119.88 439.276H159.24C159.6 439.276 159.84 439.156 160.08 438.916 160.32 438.676 160.44 438.316 160.44 438.076V415.396C160.44 414.796 159.96 414.196 159.24 414.196H119.88C119.64 414.196 119.28 414.316 119.16 414.556 118.92 414.796 118.8 415.156 118.8 415.396V438.076C118.8 438.316 118.92 438.676 119.16 438.916 119.28 439.156 119.64 439.276 119.88 439.276ZM119.4 425.836V425.836 415.396C119.4 415.276 119.4 415.156 119.52 415.036 119.64 414.916 119.76 414.796 119.88 414.796H159.24C159.36 414.796 159.6 414.916 159.72 415.036 159.84 415.156 159.84 415.276 159.84 415.396V425.836C159.84 425.956 159.84 426.076 159.84 426.076 159.72 426.196 159.72 426.196 159.72 426.316 159.6 426.316 159.6 426.436 159.48 426.436 159.36 426.436 159.36 426.436 159.24 426.436H119.88C119.76 426.436 119.64 426.436 119.52 426.316 119.4 426.196 119.4 426.076 119.4 425.836ZM159.24 427.036V427.036C159.36 427.036 159.36 427.036 159.48 427.036 159.6 427.156 159.6 427.156 159.72 427.156 159.84 427.276 159.84 427.516 159.84 427.636V438.076C159.84 438.436 159.6 438.676 159.24 438.676H119.88C119.76 438.676 119.64 438.676 119.52 438.556 119.4 438.436 119.4 438.196 119.4 438.076V427.636C119.4 427.516 119.4 427.516 119.4 427.396 119.4 427.396 119.4 427.276 119.52 427.156 119.64 427.036 119.76 427.036 119.88 427.036H159.24Z" fill-rule="evenodd"/><path transform="matrix(1,0,0,-1,0,595.276)" d="M136.92 433.396H141.84V432.076H136.92Z" fill-rule="evenodd"/><path transform="matrix(1,0,0,-1,0,595.276)" d="M155.4 433.396H143.76V432.076H155.4Z" fill-rule="evenodd"/><path transform="matrix(1,0,0,-1,0,595.276)" stroke-width=".12" stroke-linecap="butt" stroke-miterlimit="10" stroke-linejoin="miter" fill="none" stroke="#000000" d="M150.5 428.5V428.5"/><path transform="matrix(1,0,0,-1,0,595.276)" d="M140.52 428.956V428.956Z" fill-rule="evenodd"/><path transform="matrix(1,0,0,-1,0,595.276)" d="M140.52 428.956H150.36C150.36 429.796 150.96 430.396 151.8 430.516 152.52 430.516 153.24 429.796 153.24 429.076L155.76 429.556V429.796L155.4 430.156V431.596H143.76V429.436H141.84V431.596H136.92V430.156L136.68 429.916V429.436H137.76C138 430.156 138.6 430.516 139.32 430.396 139.68 430.396 140.04 430.276 140.28 429.916 140.52 429.676 140.52 429.316 140.52 428.956Z" fill-rule="evenodd"/><path transform="matrix(1,0,0,-1,0,595.276)" d="M153.24 429.076V429.076Z" fill-rule="evenodd"/><path transform="matrix(1,0,0,-1,0,595.276)" d="M140.16 428.956C140.16 429.556 139.68 430.036 139.08 430.036 138.48 430.036 138 429.556 138 428.956 138 428.716 138.12 428.476 138.36 428.236 138.6 427.996 138.84 427.876 139.08 427.876 139.44 427.876 139.68 427.996 139.92 428.236 140.16 428.476 140.16 428.716 140.16 428.956ZM139.68 428.956C139.68 428.836 139.56 428.716 139.56 428.596 139.44 428.476 139.2 428.476 139.08 428.476 138.84 428.476 138.6 428.716 138.6 428.956 138.6 429.316 138.84 429.556 139.08 429.556 139.2 429.556 139.44 429.436 139.56 429.316 139.56 429.196 139.68 429.076 139.68 428.956Z" fill-rule="evenodd"/><path transform="matrix(1,0,0,-1,0,595.276)" d="M152.88 428.956C152.88 429.316 152.76 429.556 152.52 429.796 152.4 430.036 152.04 430.036 151.8 430.036 151.56 430.036 151.2 430.036 151.08 429.796 150.84 429.556 150.72 429.316 150.72 428.956 150.72 428.716 150.84 428.476 151.08 428.236 151.2 427.996 151.56 427.876 151.8 427.876 152.4 427.876 152.88 428.356 152.88 428.956ZM152.4 428.956C152.4 428.716 152.16 428.476 151.8 428.476 151.68 428.476 151.56 428.476 151.44 428.596 151.32 428.716 151.2 428.836 151.2 428.956 151.2 429.316 151.56 429.556 151.8 429.556 151.92 429.556 152.04 429.556 152.16 429.436 152.28 429.316 152.4 429.076 152.4 428.956Z" fill-rule="evenodd"/><path transform="matrix(1,0,0,-1,0,595.276)" d="M155.4 433.756H143.76V434.716 436.636H141.84V433.756H136.92L138.36 436.996C138.48 437.236 138.6 437.356 138.84 437.596 139.08 437.716 139.32 437.716 139.56 437.716H154.2C154.56 437.716 154.8 437.476 154.92 437.116L155.4 434.236V433.756ZM144.48 436.636V434.356H149.16V436.636H144.48ZM149.88 436.636V434.356H154.92L154.44 436.636H149.88ZM141.12 436.636H138.72L137.64 434.356H141.12V436.636Z" fill-rule="evenodd"/><path transform="matrix(1,0,0,-1,0,595.276)" stroke-width=".12" stroke-linecap="butt" stroke-miterlimit="10" stroke-linejoin="miter" fill="none" stroke="#000000" d="M122.5 431.5V431.5"/><path transform="matrix(1,0,0,-1,0,595.276)" d="M129.12 433.876C129.12 434.836 128.76 435.916 127.92 436.756 127.08 437.596 126 437.956 124.92 437.956 123.96 437.956 122.88 437.596 122.04 436.756 121.2 435.916 120.84 434.836 120.84 433.876 120.84 432.796 121.2 431.716 122.04 430.876 122.88 430.036 123.96 429.676 124.92 429.676 126 429.676 127.08 430.036 127.92 430.876 128.76 431.716 129.12 432.796 129.12 433.876ZM126.96 431.116C125.76 430.276 124.2 430.276 123 431.116L125.04 433.156 126.96 431.116ZM125.64 433.876 127.68 435.796C127.92 435.556 128.04 435.196 128.16 434.956 128.28 434.596 128.4 434.236 128.4 433.876 128.4 433.036 128.04 432.436 127.68 431.836L125.64 433.876ZM126.96 436.516V436.516ZM126.96 436.516 125.04 434.476 123 436.516C123.6 436.876 124.2 437.116 125.04 437.116 125.76 437.116 126.48 436.876 126.96 436.516ZM122.28 431.836V431.836C121.44 433.036 121.44 434.596 122.28 435.796L124.32 433.876 122.28 431.836Z" fill-rule="evenodd"/><path transform="matrix(1,0,0,-1,0,595.276)" d="M122.28 431.836 124.32 433.876 122.28 435.796C121.92 435.316 121.68 434.596 121.68 433.876 121.68 433.036 121.92 432.436 122.28 431.836Z" fill="#e1e1e1" fill-rule="evenodd"/><path transform="matrix(1,0,0,-1,0,595.276)" d="M125.04 433.156 123 431.116C123.6 430.756 124.2 430.516 125.04 430.516 125.76 430.516 126.48 430.756 126.96 431.116L125.04 433.156Z" fill="#e1e1e1" fill-rule="evenodd"/><path transform="matrix(1,0,0,-1,0,595.276)" d="M125.64 433.876 127.68 431.836C128.04 432.436 128.4 433.036 128.4 433.876 128.4 434.236 128.28 434.596 128.16 434.956 128.04 435.196 127.92 435.556 127.68 435.796L125.64 433.876Z" fill="#e1e1e1" fill-rule="evenodd"/><path transform="matrix(1,0,0,-1,0,595.276)" d="M125.04 434.476 126.96 436.516C126.48 436.876 125.76 437.116 125.04 437.116 124.2 437.116 123.6 436.876 123 436.516L125.04 434.476Z" fill="#e1e1e1" fill-rule="evenodd"/><path transform="matrix(1,0,0,-1,0,595.276)" d="M126.84 422.476H126.12V423.196H126V421.516H125.16V421.396H126.96V421.516H126.12V422.356H126.84Z" fill-rule="evenodd"/><path transform="matrix(1,0,0,-1,0,595.276)" d="M127.92 423.316 127.8 422.956 127.56 422.596 127.68 422.476 127.8 422.716 127.92 422.836H128.4V422.236H127.44V422.116H128.4V421.396H128.52V422.116H129.36V422.236H128.52V422.836H129.12V422.956H127.92L128.04 423.196H128.16 128.04Z" fill-rule="evenodd"/><path transform="matrix(1,0,0,-1,0,595.276)" d="M130.08 421.756V421.516L129.96 421.396H129.84V421.516 421.636L129.96 421.756 130.08 421.876V422.116L130.2 422.236V422.476 422.596 422.836H130.44V422.716 422.596L130.32 422.356V422.116 421.996L130.2 421.876Z" fill-rule="evenodd"/><path transform="matrix(1,0,0,-1,0,595.276)" d="M131.16 421.996 131.28 421.756 131.4 421.636 131.52 421.516H131.64L131.52 421.756 131.4 421.876 131.28 421.996V422.236L131.16 422.476V422.716 422.956L131.04 423.196H130.56V423.076H130.92V422.836L131.04 422.596V422.356L131.16 422.116Z" fill-rule="evenodd"/><path transform="matrix(1,0,0,-1,0,595.276)" d="M128.76 419.596 130.08 419.716 130.2 419.476 130.32 419.596 130.08 419.836 129.96 420.076H129.84L129.96 419.836 129 419.716 129.36 420.196H130.32V420.316H128.64V420.196H129.24L128.88 419.716H128.64V419.596H128.76Z" fill-rule="evenodd"/><path transform="matrix(1,0,0,-1,0,595.276)" d="M129.48 418.756V419.116H130.2V419.236H129.48V419.476H129.6L129.48 419.596H129.36V419.236H128.76V419.116H129.36V418.756H128.52V418.636H130.32V418.756Z" fill-rule="evenodd"/><path transform="matrix(1,0,0,-1,0,595.276)" d="M132.84 421.876 132.96 421.756 133.2 421.636V421.756L133.08 421.876 132.96 421.996Z" fill-rule="evenodd"/><path transform="matrix(1,0,0,-1,0,595.276)" d="M133.44 421.996V421.516H133.32 133.2V421.396H133.32 133.56V421.516 421.996H133.68 133.8V422.116H133.68 133.56V422.236L133.68 422.356H133.56 133.44V422.116H132.84V421.996H133.44Z" fill-rule="evenodd"/><path transform="matrix(1,0,0,-1,0,595.276)" d="M133.44 422.836H133.8V422.956H133.44V423.196H133.32 133.2V422.956H132.96 132.84V422.836H132.96 133.2V422.596 422.476H132.72 133.92 133.44V422.596 422.836Z" fill-rule="evenodd"/><path transform="matrix(1,0,0,-1,0,595.276)" d="M133.68 417.556H133.32V417.796H133.2V417.556H132.84V417.436H133.2V417.076H132.72V416.956H133.8V417.076H133.32V417.436H133.68V417.556Z" fill-rule="evenodd"/><path transform="matrix(1,0,0,-1,0,595.276)" d="M133.44 416.596V416.116H133.2V415.996H133.32 133.44 133.56V416.116 416.596H133.8V416.716H133.56V416.836 416.956H133.44V416.716H132.84 132.72V416.596H132.84 133.44Z" fill-rule="evenodd"/><path transform="matrix(1,0,0,-1,0,595.276)" d="M132.96 416.356 133.08 416.236 133.2 416.356 133.08 416.476H132.84Z" fill-rule="evenodd"/><path transform="matrix(1,0,0,-1,0,595.276)" d="M131.52 417.076H130.68V417.796H130.8 130.68 130.56V417.076H129.72V416.956H130.56V415.996H130.68V416.956H131.52Z" fill-rule="evenodd"/><path transform="matrix(1,0,0,-1,0,595.276)" d="M129.24 416.716H128.52V415.996H128.28V416.716H127.44V416.836H128.28V417.436H127.92L127.8 417.196 127.56 417.076 127.68 417.436 127.92 417.796H128.04V417.676L127.92 417.556H129.12V417.436H128.52V416.836H129.24Z" fill-rule="evenodd"/><path transform="matrix(1,0,0,-1,0,595.276)" d="M125.16 415.996H126.96V416.116H126V416.956H126.84V417.076H126V417.676H126.12V417.796H126 125.88V416.116H125.16Z" fill-rule="evenodd"/><path transform="matrix(1,0,0,-1,0,595.276)" d="M132.24 421.636H132.12V423.076H132.6 132.72V421.756H132.6 132.48V421.876H132.24V421.636ZM132.24 422.956V422.596 422.476H132.48V422.596 422.956H132.24ZM132.24 422.476V422.356 421.996H132.48V422.356 422.476H132.24Z" fill-rule="evenodd"/><path transform="matrix(1,0,0,-1,0,595.276)" d="M132.12 416.236H132V417.676H132.6V416.356H132.48V416.476H132.24 132.12V416.236ZM132.24 417.076H132.48V417.556H132.24 132.12V417.076H132.24ZM132.24 416.596H132.48V416.956H132.24 132.12V416.596H132.24Z" fill-rule="evenodd"/><path transform="matrix(1,0,0,-1,0,595.276)" d="M128.88 424.996H129.24V424.876H128.88Z" fill-rule="evenodd"/><path transform="matrix(1,0,0,-1,0,595.276)" d="M127.44 424.756V424.756 424.876 424.996H127.56L127.68 424.876V424.756 424.276H127.8V424.876H127.92V424.996H128.04V424.876H128.16V424.756 424.276H128.28V424.876 424.996 425.116 425.236H128.16 128.04 127.92V425.116H127.8V425.236H127.68 127.56 127.44L127.32 425.116V425.236H127.2V424.276H127.44Z" fill-rule="evenodd"/><path transform="matrix(1,0,0,-1,0,595.276)" d="M126 424.876V424.996 425.116H126.12V425.236H126.24 126.36L126.48 425.116 126.6 424.996V424.876 424.276H126.36V424.396 424.276L126.24 424.156H126.12L126 424.276 125.88 424.396V424.516 424.636L126 424.756H126.12L126.24 424.876H126.36V424.996H126.24 126.12V424.876H126ZM126.24 424.636H126.12V424.516 424.396H126.24 126.36V424.516 424.756 424.636H126.24Z" fill-rule="evenodd"/><path transform="matrix(1,0,0,-1,0,595.276)" d="M134.04 424.756V424.756 424.876 424.996H134.16 134.28V424.876 424.756 424.276H134.52V424.876 424.996H134.64L134.76 424.876V424.756 424.276H135V424.876L134.88 424.996V425.116 425.236H134.76 134.64 134.52V425.116H134.4V425.236H134.28 134.16 134.04V425.116 425.236H133.8V424.276H134.04Z" fill-rule="evenodd"/><path transform="matrix(1,0,0,-1,0,595.276)" d="M132.6 424.876V424.996 425.116H132.72V425.236H132.84 132.96 133.08V425.116H133.2V424.996 424.876 424.276H133.08V424.396L132.96 424.276 132.84 424.156H132.72V424.276H132.6V424.396H132.48V424.516 424.636H132.6V424.756H132.72L132.84 424.876H132.96V424.996H132.84 132.72V424.876H132.6ZM132.84 424.636V424.636H132.72V424.516 424.396H132.84 132.96V424.516L133.08 424.756H132.96V424.636H132.84Z" fill-rule="evenodd"/><path transform="matrix(1,0,0,-1,0,595.276)" d="M130.08 424.276H129.84V425.116H129.6V425.356H129.72 129.84V425.476 425.596H130.08V424.276Z" fill-rule="evenodd"/><path transform="matrix(1,0,0,-1,0,595.276)" d="M124.56 424.996 124.68 424.876V424.756L124.8 424.636V424.516H124.68V424.396 424.276H124.56 124.44 124.32 124.2V424.396H124.08V424.516 424.636 424.756 424.876H124.2V424.996H124.08V425.116 425.236 425.356L124.2 425.476H124.32V425.596H124.44V425.476H124.56 124.68V425.356 425.236 425.116 424.996H124.56ZM124.32 424.876V424.876 424.756H124.2V424.636 424.516H124.32V424.396H124.44V424.516H124.56V424.636 424.756L124.44 424.876H124.32ZM124.56 425.236V425.236L124.44 425.356H124.32V425.236 425.116 424.996H124.44L124.56 425.116V425.236Z" fill-rule="evenodd"/><path transform="matrix(1,0,0,-1,0,595.276)" d="M130.56 424.876V424.996 425.116 425.236H130.68V425.356 425.476H130.8L130.92 425.596H131.04 131.16V425.476H131.28V425.356H131.4V425.236 425.116 424.996 424.876 424.756 424.636 424.516 424.396H131.28V424.276H131.16L131.04 424.156H130.92V424.276H130.8L130.68 424.396V424.516H130.56V424.636 424.756 424.876ZM130.8 424.996V424.996 424.876 424.756 424.636L130.92 424.516V424.396H131.04V424.516H131.16V424.636 424.756 424.876 424.996 425.116 425.236L131.04 425.356H130.92V425.236H130.8V425.116 424.996Z" fill-rule="evenodd"/><path transform="matrix(1,0,0,-1,0,595.276)" d="M156.24 423.196 156.12 422.956 156 422.716 155.88 422.596 155.76 422.476V422.356L156 422.476 156.12 422.596 156.24 422.836 156.36 423.076V423.196Z" fill="#ffffff" fill-rule="evenodd"/><path transform="matrix(1,0,0,-1,0,595.276)" d="M156.96 423.076 157.08 422.836 157.2 422.596 157.32 422.476 157.44 422.356H157.56L157.44 422.596 157.32 422.716 157.2 422.956 157.08 423.196H156.6V423.076Z" fill="#ffffff" fill-rule="evenodd"/><path transform="matrix(1,0,0,-1,0,595.276)" d="M156 421.396V421.396L156.12 421.516 156.24 421.636 156.36 421.756V421.876L156.48 421.996V422.116L156.6 422.236V422.356H157.08V421.996L156.96 421.756V421.636L156.84 421.516H156.72V421.396H156.96V421.516H157.08V421.756L157.2 421.876V422.476H156.12V422.356H156.48L156.36 422.236V422.116 421.996L156.24 421.876V421.756H156.12L156 421.636 155.88 421.516Z" fill="#ffffff" fill-rule="evenodd"/><path transform="matrix(1,0,0,-1,0,595.276)" d="M153.48 422.356H154.32V421.396H154.44V422.356H155.28V422.476H154.44V423.196L154.32 423.316V422.476H153.48Z" fill="#ffffff" fill-rule="evenodd"/><path transform="matrix(1,0,0,-1,0,595.276)" d="M151.44 422.356H152.64 151.44Z" fill="#ffffff" fill-rule="evenodd"/><path transform="matrix(1,0,0,-1,0,595.276)" d="M152.76 422.956H151.32V423.076H152.76Z" fill="#ffffff" fill-rule="evenodd"/><path transform="matrix(1,0,0,-1,0,595.276)" d="M151.2 421.516H153V421.636H151.2Z" fill="#ffffff" fill-rule="evenodd"/><path transform="matrix(1,0,0,-1,0,595.276)" d="M149.76 421.756 149.88 421.636 150 421.756 149.88 421.876 149.64 421.996V421.876Z" fill="#ffffff" fill-rule="evenodd"/><path transform="matrix(1,0,0,-1,0,595.276)" d="M150.36 421.396V421.516 421.996H150.6V422.116H150.36V422.356H150.24V422.116H149.64 149.52L149.64 421.996H150.24V421.516H150V421.396H150.12 150.24 150.36Z" fill="#ffffff" fill-rule="evenodd"/><path transform="matrix(1,0,0,-1,0,595.276)" d="M150.12 422.836V422.596 422.476H150.6 150.72 150.6 149.52 150V422.596 422.836H149.64V422.956H150V423.196 423.316L150.12 423.196V422.956H150.48V422.836H150.12Z" fill="#ffffff" fill-rule="evenodd"/><path transform="matrix(1,0,0,-1,0,595.276)" d="M145.08 422.116V421.396H145.32V422.116H146.04V422.236H145.32V422.836H145.92V422.956H144.72L144.84 423.196 144.72 423.316 144.48 422.956 144.36 422.596V422.476L144.6 422.716 144.72 422.836H145.08V422.236H144.24V422.116Z" fill="#ffffff" fill-rule="evenodd"/><path transform="matrix(1,0,0,-1,0,595.276)" d="M142.8 423.076V421.396H142.92V422.476L143.16 422.356 143.52 422.116V422.236L143.28 422.476 142.92 422.716V423.076H143.76V423.196H141.96V423.076Z" fill="#ffffff" fill-rule="evenodd"/><path transform="matrix(1,0,0,-1,0,595.276)" d="M149.64 419.236H148.92V419.116H149.64V418.756H148.8V418.636H150.6V418.756H149.76V419.116H150.48V419.236H149.76V419.476H149.88 149.76V419.596H149.64Z" fill="#ffffff" fill-rule="evenodd"/><path transform="matrix(1,0,0,-1,0,595.276)" d="M148.92 419.716V419.596H149.04L150.36 419.716V419.476L150.48 419.596 150.36 419.836 150.12 420.076 150.24 419.836 149.28 419.716 149.64 420.196H150.48V420.316H148.8V420.196H149.52L149.16 419.716Z" fill="#ffffff" fill-rule="evenodd"/><path transform="matrix(1,0,0,-1,0,595.276)" d="M150.48 417.436H150.12V417.196 417.076H150.6 150.72 150.6 149.52 150V417.196 417.436H149.64V417.556H150V417.796 417.916L150.12 417.796V417.556H150.48Z" fill="#ffffff" fill-rule="evenodd"/><path transform="matrix(1,0,0,-1,0,595.276)" d="M150.12 415.996H150.24 150.36V416.116 416.596H150.6V416.716H150.36V416.836 416.956H150.24V416.716H149.64 149.52L149.64 416.596H150.24V416.116H150V415.996Z" fill="#ffffff" fill-rule="evenodd"/><path transform="matrix(1,0,0,-1,0,595.276)" d="M149.64 416.476 149.76 416.356 149.88 416.236 150 416.356 149.88 416.476 149.64 416.596Z" fill="#ffffff" fill-rule="evenodd"/><path transform="matrix(1,0,0,-1,0,595.276)" d="M147.96 416.476 148.08 416.236 148.2 416.116H148.32L148.2 416.356 148.08 416.476 147.96 416.716 147.84 416.956 147.72 416.836 147.84 416.596Z" fill="#ffffff" fill-rule="evenodd"/><path transform="matrix(1,0,0,-1,0,595.276)" d="M147 416.716 146.88 416.476 146.76 416.356 146.52 416.116H146.64 146.76L147 416.476 147.24 416.836 147.12 416.956Z" fill="#ffffff" fill-rule="evenodd"/><path transform="matrix(1,0,0,-1,0,595.276)" d="M147.48 417.316H148.32V417.196H146.52V417.316H147.36V417.796H147.48V417.676Z" fill="#ffffff" fill-rule="evenodd"/><path transform="matrix(1,0,0,-1,0,595.276)" d="M144.24 416.836H145.08V417.436H144.72L144.6 417.316 144.36 417.076V417.196L144.48 417.556 144.72 417.916 144.84 417.796 144.72 417.556H145.92V417.436H145.32V416.836H146.04V416.716H145.32V415.996H145.08V416.716H144.24Z" fill="#ffffff" fill-rule="evenodd"/><path transform="matrix(1,0,0,-1,0,595.276)" d="M142.92 415.996V417.076L143.16 416.956 143.52 416.716V416.836L143.28 417.076 142.92 417.316V417.676H143.76V417.796H141.96V417.676H142.8V415.996Z" fill="#ffffff" fill-rule="evenodd"/><path transform="matrix(1,0,0,-1,0,595.276)" d="M153 416.116H151.2V416.236H153Z" fill="#ffffff" fill-rule="evenodd"/><path transform="matrix(1,0,0,-1,0,595.276)" d="M152.64 416.956H151.44 152.64Z" fill="#ffffff" fill-rule="evenodd"/><path transform="matrix(1,0,0,-1,0,595.276)" d="M151.32 417.556H152.76V417.676H151.32Z" fill="#ffffff" fill-rule="evenodd"/><path transform="matrix(1,0,0,-1,0,595.276)" d="M155.28 417.076V416.956H154.44V415.996H154.32V416.956H153.48V417.076H154.32V417.916L154.44 417.796V417.076Z" fill="#ffffff" fill-rule="evenodd"/><path transform="matrix(1,0,0,-1,0,595.276)" d="M157.08 416.596 156.96 416.356V416.236L156.84 416.116H156.72V415.996H156.96V416.116H157.08V416.356L157.2 416.476V417.076H156.12V416.956H156.48L156.36 416.836V416.716 416.596L156.24 416.476V416.356H156.12L156 416.236 155.88 416.116 156 415.996 156.12 416.116 156.24 416.236 156.36 416.356V416.476L156.48 416.596V416.716L156.6 416.836V416.956H157.08Z" fill="#ffffff" fill-rule="evenodd"/><path transform="matrix(1,0,0,-1,0,595.276)" d="M156 417.316 156.12 417.556 156.24 417.796H156.36V417.676L156.24 417.436 156.12 417.196 156 417.076 155.76 416.956V417.076L155.88 417.196Z" fill="#ffffff" fill-rule="evenodd"/><path transform="matrix(1,0,0,-1,0,595.276)" d="M157.08 417.436 157.2 417.196 157.32 417.076 157.44 416.956H157.56L157.44 417.196 157.32 417.316 157.2 417.556 157.08 417.796H156.6V417.676H156.96Z" fill="#ffffff" fill-rule="evenodd"/><path transform="matrix(1,0,0,-1,0,595.276)" d="M148.2 421.516H148.32V423.196H146.64V421.516H146.76V421.636H148.2V421.516ZM147.72 423.076H148.2V421.756H146.76V423.076H147.24V422.836L147.12 422.716V422.596 422.356L147 422.236 146.88 422.116 146.76 421.996H146.88 147L147.12 422.116V422.236L147.24 422.356V422.476 422.716L147.36 422.836V423.076H147.6V422.116 421.996H147.96L148.08 422.116V422.356H147.96V422.236L147.84 422.116H147.72V423.076Z" fill="#ffffff" fill-rule="evenodd"/><path transform="matrix(1,0,0,-1,0,595.276)" d="M148.92 421.636V421.636H148.8V423.076H148.92 149.4V421.756H149.28V421.876H149.04 148.92V421.636ZM149.04 422.476H148.92V421.996H149.04 149.28V422.476H149.04ZM149.04 422.476H149.28V422.596 422.956H149.04 148.92V422.596L149.04 422.476Z" fill="#ffffff" fill-rule="evenodd"/><path transform="matrix(1,0,0,-1,0,595.276)" d="M148.92 416.236V416.236 416.476H149.04 149.28V416.356H149.4V417.676H148.92 148.8V416.236H148.92ZM149.04 417.076H149.28V416.596H149.04 148.92V417.076H149.04ZM149.04 417.076 148.92 417.196V417.556H149.04 149.28V417.196 417.076H149.04Z" fill="#ffffff" fill-rule="evenodd"/><path transform="matrix(1,0,0,-1,0,595.276)" d="M146.64 423.916V425.236H146.76L146.88 425.116V425.236H147 147.12L147.24 425.116V424.996H147.36V424.876 424.756 424.636 424.516 424.396H147.24V424.276H147.12V424.156H147V424.276H146.88V424.396H146.76V423.916H146.64ZM147 424.396V424.396L147.12 424.516V424.636 424.756 424.876 424.996H147 146.88V424.876 424.756 424.636 424.516L147 424.396Z" fill="#ffffff" fill-rule="evenodd"/><path transform="matrix(1,0,0,-1,0,595.276)" d="M149.64 424.996H150V424.876H149.64Z" fill="#ffffff" fill-rule="evenodd"/><path transform="matrix(1,0,0,-1,0,595.276)" d="M148.2 424.756V424.756 424.876 424.996H148.32L148.44 424.876V424.756 424.276H148.68V424.876 424.996H148.8L148.92 424.876V424.756 424.276H149.04V424.876 424.996 425.116 425.236H148.92 148.8 148.68V425.116H148.56V425.236H148.44 148.32 148.2L148.08 425.116V425.236H147.96V424.276H148.2Z" fill="#ffffff" fill-rule="evenodd"/><path transform="matrix(1,0,0,-1,0,595.276)" d="M155.76 423.916V425.236H156V425.116L156.12 425.236H156.24 156.36V425.116L156.48 424.996V424.876 424.756 424.636 424.516 424.396H156.36V424.276L156.24 424.156H156.12V424.276H156V424.396 423.916H155.76ZM156.12 424.396V424.396H156.24V424.516L156.36 424.636V424.756 424.876H156.24V424.996H156.12L156 424.876V424.756 424.636 424.516H156.12V424.396Z" fill="#ffffff" fill-rule="evenodd"/><path transform="matrix(1,0,0,-1,0,595.276)" d="M157.32 424.756V424.756 424.876 424.996H157.44 157.56V424.876 424.756 424.276H157.8V424.876 424.996H157.92 158.04V424.876 424.756 424.276H158.28V424.876 424.996 425.116H158.16V425.236H158.04 157.92 157.8V425.116H157.68V425.236H157.56 157.44 157.32V425.116 425.236H157.08V424.276H157.32Z" fill="#ffffff" fill-rule="evenodd"/><path transform="matrix(1,0,0,-1,0,595.276)" d="M151.8 424.396H151.92L151.8 424.636Z" fill="#ffffff" fill-rule="evenodd"/><path transform="matrix(1,0,0,-1,0,595.276)" d="M151.8 424.756H151.92L151.8 424.996Z" fill="#ffffff" fill-rule="evenodd"/><path transform="matrix(1,0,0,-1,0,595.276)" d="M152.4 424.396V424.396Z" fill="#ffffff" fill-rule="evenodd"/><path transform="matrix(1,0,0,-1,0,595.276)" d="M152.4 424.396H152.52V424.276H152.64L152.76 424.156H152.88V424.276H153L153.12 424.396V424.516H153.24V424.636 424.756H153.12V424.876H153V424.996H153.12V425.116 425.236 425.356L153 425.476 152.88 425.596H152.76 152.64V425.476H152.52V425.356H152.4V425.236 425.116H152.64V425.236 425.356H152.76 152.88V425.236 425.116 424.996H152.76V424.876H152.88V424.756H153V424.636 424.516H152.88V424.396H152.76 152.64V424.516 424.636H152.4V424.516 424.396Z" fill="#ffffff" fill-rule="evenodd"/><path transform="matrix(1,0,0,-1,0,595.276)" d="M141.12 424.516V424.756L141.6 425.596H141.84V424.756H142.08V424.516H141.84V424.276H141.6V424.516H141.12ZM141.6 425.236 141.36 424.756H141.6V425.236Z" fill="#ffffff" fill-rule="evenodd"/><path transform="matrix(1,0,0,-1,0,595.276)" d="M153.84 424.756V424.636 424.516L153.96 424.396V424.276H154.08L154.2 424.156H154.32V424.276H154.44L154.56 424.396V424.516H154.68V424.636 424.756 424.876 424.996 425.116 425.236H154.56V425.356 425.476H154.44L154.32 425.596H154.2 154.08V425.476H153.96V425.356H153.84V425.236 425.116 424.996 424.876 424.756ZM154.08 424.996V425.116 425.236L154.2 425.356H154.32V425.236H154.44V425.116 424.996 424.876 424.756 424.636L154.32 424.516V424.396H154.2V424.516H154.08V424.636 424.756 424.876 424.996Z" fill="#ffffff" fill-rule="evenodd"/><path transform="matrix(1,0,0,-1,0,595.276)" d="M150.48 424.876V424.876 424.756 424.636 424.516 424.396H150.6V424.276H150.72L150.84 424.156H150.96V424.276H151.08V424.396H151.2V424.516 424.636 424.756 424.876H151.08V424.996H150.96V425.116H150.84 150.72V424.996 425.116 425.236 425.356H150.84 150.96V425.236H151.2L151.08 425.356V425.476H150.96L150.84 425.596 150.72 425.476H150.6V425.356H150.48V425.236 425.116 424.996 424.876ZM150.72 424.636V424.756 424.876H150.84 150.96V424.756 424.636 424.516L150.84 424.396 150.72 424.516V424.636Z" fill="#ffffff" fill-rule="evenodd"/><path transform="matrix(1,0,0,-1,0,595.276)" d="M142.56 424.396H142.8L142.56 424.636Z" fill="#ffffff" fill-rule="evenodd"/><path transform="matrix(1,0,0,-1,0,595.276)" d="M142.56 424.756H142.8L142.56 424.996Z" fill="#ffffff" fill-rule="evenodd"/><path transform="matrix(1,0,0,-1,0,595.276)" d="M143.16 424.636V424.636 424.516H143.28V424.396L143.4 424.276H143.52V424.156H143.64L143.76 424.276H143.88V424.396H144V424.516 424.636 424.756 424.876H143.88L143.76 424.996H143.88 144V425.116 425.236 425.356H143.88V425.476H143.76V425.596H143.64 143.52V425.476H143.4 143.28V425.356 425.236 425.116H143.4V425.236H143.52V425.356H143.64 143.76V425.236 425.116L143.64 424.996H143.52V424.876H143.64L143.76 424.756V424.636 424.516 424.396H143.64 143.52V424.516H143.4V424.636Z" fill="#ffffff" fill-rule="evenodd"/><path transform="matrix(1,0,0,-1,0,595.276)" d="M144.6 424.756V424.636H144.72V424.516 424.396H144.84V424.276H144.96V424.156H145.08 145.2V424.276H145.32V424.396H145.44V424.516 424.636L145.56 424.756V424.876 424.996 425.116H145.44V425.236 425.356H145.32V425.476H145.2V425.596H145.08 144.96V425.476H144.84V425.356H144.72V425.236 425.116H144.6V424.996 424.876 424.756ZM144.84 424.996V425.116L144.96 425.236V425.356H145.08 145.2V425.236 425.116L145.32 424.996V424.876 424.756H145.2V424.636 424.516L145.08 424.396 144.96 424.516V424.636H144.84V424.756 424.876 424.996Z" fill="#ffffff" fill-rule="evenodd"/></g></svg>