<?xml version='1.0' encoding='UTF-8'?>
<svg xmlns="http://www.w3.org/2000/svg" xmlns:xlink="http://www.w3.org/1999/xlink" xmlns:inkscape="http://www.inkscape.org/namespaces/inkscape" version="1.1" width="566.700" height="269.280" viewBox="0 0 566.700 269.280"><g transform="scale(10.0) translate(-56.655, -181.872)"><path transform="matrix(1,0,0,-1,0,595.276)" d="M110.16 390.196H59.88C59.64 390.196 59.4 390.196 59.16 390.316 58.92 390.436 58.68 390.556 58.44 390.796 58.32 390.916 58.2 391.156 58.08 391.396 57.96 391.636 57.96 391.876 57.96 392.116V407.476C57.96 407.956 58.08 408.436 58.44 408.796 58.92 409.276 59.4 409.396 59.88 409.396H110.16C110.64 409.396 111.12 409.276 111.48 408.796 111.96 408.436 112.08 407.956 112.08 407.476V392.116C112.08 391.036 111.24 390.196 110.16 390.196Z" fill="#ffffff" fill-rule="evenodd"/><path transform="matrix(1,0,0,-1,0,595.276)" d="M110.16 408.436H59.88C59.76 408.436 59.64 408.436 59.52 408.316 59.4 408.316 59.28 408.196 59.16 408.196 59.04 408.076 59.04 407.956 58.92 407.836 58.92 407.716 58.92 407.596 58.92 407.476V392.116C58.92 391.876 59.04 391.636 59.16 391.396 59.4 391.276 59.64 391.156 59.88 391.156H110.16C110.4 391.156 110.64 391.276 110.88 391.396 110.88 391.516 111 391.636 111 391.756 111.12 391.876 111.12 391.996 111.12 392.116V407.476C111.12 407.956 110.64 408.436 110.16 408.436Z" fill="#0000ff" fill-rule="evenodd"/><path transform="matrix(1,0,0,-1,0,595.276)" d="M73.32 402.436H75.84V403.036H73.92V403.996H75.6V404.596H73.92V405.556H75.72V406.036H73.32Z" fill="#ffffff" fill-rule="evenodd"/><path transform="matrix(1,0,0,-1,0,595.276)" d="M78.24 404.356 79.32 406.036H78.6L77.88 404.956 77.16 406.036H76.44L77.52 404.356 76.32 402.436H77.04L77.88 403.756 78.72 402.436H79.44Z" fill="#ffffff" fill-rule="evenodd"/><path transform="matrix(1,0,0,-1,0,595.276)" d="M81.72 406.036C82.32 406.036 82.68 405.556 82.68 404.956 82.68 404.716 82.56 404.356 82.44 404.116 82.32 403.996 82.2 403.876 82.08 403.876 81.96 403.756 81.84 403.756 81.72 403.756H80.76V402.436H80.16V406.036H81.72ZM80.76 405.556V404.356H81.6C81.72 404.356 81.84 404.356 81.96 404.476 82.08 404.596 82.08 404.836 82.08 404.956 82.08 405.076 82.08 405.196 81.96 405.316 81.84 405.436 81.72 405.556 81.6 405.556H80.76Z" fill="#ffffff" fill-rule="evenodd"/><path transform="matrix(1,0,0,-1,0,595.276)" stroke-width=".12" stroke-linecap="butt" stroke-miterlimit="10" stroke-linejoin="miter" fill="none" stroke="#ffffff" d="M83.5 402.5V406.5"/><path transform="matrix(1,0,0,-1,0,595.276)" d="M83.64 402.436H84.24V403.876H84.84L85.56 402.436H86.28L85.56 403.876C85.92 403.996 86.28 404.596 86.16 405.076 86.16 405.436 86.04 405.676 85.8 405.796 85.68 406.036 85.44 406.036 85.2 406.036H83.64V402.436ZM84.24 404.356V405.556H85.08C85.2 405.556 85.32 405.436 85.44 405.316 85.56 405.196 85.56 405.076 85.56 404.956 85.56 404.596 85.32 404.356 85.08 404.356H84.24Z" fill="#ffffff" fill-rule="evenodd"/><path transform="matrix(1,0,0,-1,0,595.276)" d="M87.36 402.436H89.76V403.036H87.96V403.996H89.52V404.596H87.96V405.556H89.64V406.036H87.36Z" fill="#ffffff" fill-rule="evenodd"/><path transform="matrix(1,0,0,-1,0,595.276)" stroke-width=".12" stroke-linecap="butt" stroke-miterlimit="10" stroke-linejoin="miter" fill="none" stroke="#ffffff" d="M92.5 402.5V402.5"/><path transform="matrix(1,0,0,-1,0,595.276)" d="M92.76 405.196 93.24 405.556C92.76 405.916 92.4 406.156 91.92 406.156 91.56 406.156 91.2 406.036 90.96 405.796 90.72 405.676 90.6 405.316 90.6 405.076 90.6 404.716 90.72 404.476 90.96 404.356 90.96 404.236 91.08 404.236 91.2 404.116 91.44 404.116 91.68 403.996 91.92 403.996 92.16 403.996 92.52 403.876 92.64 403.756 92.76 403.516 92.76 403.396 92.64 403.156 92.52 403.036 92.28 402.916 91.92 402.916 91.56 402.916 91.2 403.036 90.96 403.516L90.48 403.036C90.6 402.916 90.72 402.796 90.84 402.676 91.2 402.556 91.56 402.316 91.92 402.316 92.28 402.316 92.76 402.436 93 402.676 93.12 402.916 93.24 403.156 93.36 403.516 93.36 403.516 93.36 403.636 93.36 403.756 93.24 403.876 93.12 404.116 93 404.236 92.88 404.356 92.88 404.356 92.76 404.356 92.64 404.476 92.64 404.476 92.52 404.476L91.68 404.716C91.56 404.716 91.56 404.716 91.44 404.716 91.32 404.836 91.2 404.956 91.2 405.076 91.2 405.196 91.32 405.316 91.44 405.436 91.56 405.556 91.68 405.556 91.8 405.556 92.16 405.556 92.52 405.436 92.76 405.196Z" fill="#ffffff" fill-rule="evenodd"/><path transform="matrix(1,0,0,-1,0,595.276)" stroke-width=".12" stroke-linecap="butt" stroke-miterlimit="10" stroke-linejoin="miter" fill="none" stroke="#ffffff" d="M95.5 402.5H96.5"/><path transform="matrix(1,0,0,-1,0,595.276)" d="M96.36 405.196 96.84 405.556C96.36 405.916 96 406.156 95.52 406.156 95.16 406.156 94.8 406.036 94.56 405.796 94.32 405.676 94.2 405.316 94.2 405.076 94.2 404.716 94.32 404.476 94.56 404.356 94.56 404.236 94.68 404.236 94.8 404.116 95.04 404.116 95.28 403.996 95.52 403.996 95.76 403.996 96.12 403.876 96.24 403.756 96.36 403.516 96.36 403.396 96.24 403.156 96.12 403.036 95.88 402.916 95.52 402.916 95.16 402.916 94.8 403.036 94.56 403.516L94.08 403.036C94.2 402.916 94.32 402.796 94.44 402.676 94.8 402.556 95.16 402.316 95.52 402.316 95.88 402.316 96.36 402.436 96.6 402.676 96.84 402.916 96.84 403.156 96.96 403.516 96.96 403.516 96.96 403.636 96.96 403.756 96.84 403.876 96.72 404.116 96.6 404.236 96.48 404.356 96.48 404.356 96.36 404.356 96.24 404.476 96.24 404.476 96.12 404.476L95.28 404.716C95.16 404.716 95.16 404.716 95.04 404.716 94.92 404.836 94.8 404.956 94.8 405.076 94.8 405.196 94.92 405.316 95.04 405.436 95.16 405.556 95.28 405.556 95.4 405.556 95.76 405.556 96.12 405.436 96.36 405.196Z" fill="#ffffff" fill-rule="evenodd"/><path transform="matrix(1,0,0,-1,0,595.276)" d="M98.52 402.436 97.68 406.036H98.28L98.88 403.396 99.48 406.036H100.2L100.8 403.396 101.28 406.036H102L101.04 402.436H100.44L99.84 405.076 99.24 402.436Z" fill="#ffffff" fill-rule="evenodd"/><path transform="matrix(1,0,0,-1,0,595.276)" d="M103.68 406.036 102.48 402.436H103.08L103.32 403.036H104.88L105.12 402.436H105.6L104.52 406.036H103.68ZM104.64 403.636H103.44L104.04 405.436 104.64 403.636Z" fill="#ffffff" fill-rule="evenodd"/><path transform="matrix(1,0,0,-1,0,595.276)" d="M105.96 406.036 107.16 403.876V402.436H107.76V403.876L108.96 406.036H108.24L107.52 404.596 106.68 406.036Z" fill="#ffffff" fill-rule="evenodd"/><path transform="matrix(1,0,0,-1,0,595.276)" d="M77.4 396.436 77.88 396.316 78 397.156V397.996H78.12V398.116H78 77.88L77.52 398.236V397.276Z" fill="#ffffff" fill-rule="evenodd"/><path transform="matrix(1,0,0,-1,0,595.276)" d="M79.2 397.156 79.8 397.276 79.56 397.756 79.44 398.236 78.96 398.116Z" fill="#ffffff" fill-rule="evenodd"/><path transform="matrix(1,0,0,-1,0,595.276)" d="M79.8 398.476V397.996H80.64V396.796H79.32V396.316H80.52L80.28 395.716 80.04 395.236 79.56 394.876 79.08 394.516 79.56 394.156 80.04 394.516 80.4 394.876 80.64 395.356 81 395.836 81.12 395.356 81.48 394.876 81.84 394.516 82.2 394.156 82.8 394.636 82.2 394.996 81.84 395.356 81.48 395.836 81.36 396.316H82.8V396.796H82.32V398.476H81.12V399.196L81.24 399.316V399.436H81.12 81L80.64 399.556V398.476H79.8ZM81.84 396.796H81.12V397.996H81.84V396.796Z" fill="#ffffff" fill-rule="evenodd"/><path transform="matrix(1,0,0,-1,0,595.276)" d="M78.24 394.156H78.84V399.316H78.96V399.436H78.84L78.6 399.556H78.24Z" fill="#ffffff" fill-rule="evenodd"/><path transform="matrix(1,0,0,-1,0,595.276)" d="M85.2 399.556 84.84 399.196 85.2 398.956 85.56 398.596 85.92 398.956 85.56 399.316Z" fill="#ffffff" fill-rule="evenodd"/><path transform="matrix(1,0,0,-1,0,595.276)" d="M84.96 398.236 84.6 397.876 85.2 397.636 85.56 397.276 85.92 397.636 85.44 397.996Z" fill="#ffffff" fill-rule="evenodd"/><path transform="matrix(1,0,0,-1,0,595.276)" d="M84.72 396.916V396.436H85.44V395.236L84.6 394.636 84.72 394.276 84.84 394.156H84.96 85.08V394.276L85.56 394.756 85.68 394.516 85.92 394.396 86.4 394.156H87 90L90.12 394.636H87.36L86.88 394.756 86.4 394.876H86.16L86.04 394.996V395.116L85.92 395.356V396.916Z" fill="#ffffff" fill-rule="evenodd"/><path transform="matrix(1,0,0,-1,0,595.276)" d="M86.28 398.956V398.476H87.72V398.116H86.52V396.556H87.6L87.24 396.196 86.88 395.956 86.52 395.716 86.16 395.596 86.52 395.116 86.88 395.356 87.24 395.476 87.48 395.716 87.72 396.076V394.996H88.32V396.076L89.04 395.476 89.64 395.116 90.12 395.596 89.28 395.956 88.44 396.556H89.64V398.116H88.32V398.476H89.88V398.956H88.32V399.316L88.44 399.436 88.32 399.556H87.72V398.956H86.28ZM87 397.036V397.516H87.72V397.036H87ZM88.32 397.036V397.516H89.04V397.036H88.32Z" fill="#ffffff" fill-rule="evenodd"/><path transform="matrix(1,0,0,-1,0,595.276)" d="M93.48 398.596 93.12 398.716 92.88 398.116 92.64 397.636 92.28 397.156 91.68 396.796 92.16 396.436 92.76 396.796 93.12 397.276 93.36 397.756 93.6 398.356 93.72 398.476H93.84L93.72 398.596Z" fill="#ffffff" fill-rule="evenodd"/><path transform="matrix(1,0,0,-1,0,595.276)" d="M94.44 397.276 94.08 397.516 93.48 396.196 93 394.996 92.16 394.876 92.28 394.396V394.156H92.4 92.52V394.276L96 394.756 96.36 394.156 96.84 394.516 96.6 394.996 96.24 395.476 95.88 395.956 95.52 396.436 95.04 396.076 95.76 395.236 93.6 394.996 94.56 397.036H94.68V397.156L94.56 397.276Z" fill="#ffffff" fill-rule="evenodd"/><path transform="matrix(1,0,0,-1,0,595.276)" d="M93.72 399.316V398.836H94.92L95.04 398.236 95.4 397.636 96 397.036 96.72 396.436 97.32 396.796 96.96 397.036 96.6 397.276 96.24 397.636 96 397.876 95.76 398.236 95.64 398.596 95.52 398.956V399.316Z" fill="#ffffff" fill-rule="evenodd"/><path transform="matrix(1,0,0,-1,0,595.276)" d="M99.24 397.396H100.08V395.116L99.84 394.996V396.556 396.676 396.796H99.72 99.24V394.876H99L99.12 394.276H99.24 99.36L101.52 394.996V395.476L100.68 395.236V396.196H101.28V396.676H100.68V397.396H101.16V398.116L101.52 397.876 102.24 398.476H103.44L103.08 398.116 102.72 397.756 102.6 397.876 102.48 398.236 101.88 398.116 102.12 397.756 102.36 397.396 101.76 397.156 101.16 396.916 101.52 396.436 102.24 396.676 102.72 397.036 103.44 396.676 104.16 396.436 104.64 396.916 103.92 397.156 103.2 397.396 103.8 397.996 104.16 398.716 103.92 399.076H102.6L102.72 399.196 102.84 399.316V399.436H102.72L102.36 399.676 101.76 398.836 101.16 398.236V399.316H99.24V397.396ZM99.84 397.996V398.716H100.68V397.996H99.84Z" fill="#ffffff" fill-rule="evenodd"/><path transform="matrix(1,0,0,-1,0,595.276)" d="M101.64 394.156H102.24V394.396H103.44V394.156H104.04V396.316H101.64V394.156ZM102.24 394.996V395.836H103.44V394.996H102.24Z" fill="#ffffff" fill-rule="evenodd"/><path transform="matrix(1,0,0,-1,0,595.276)" d="M71.4 400.636H64.44L66.24 402.436H63.6L60.96 399.796 63.6 397.156H66.24L64.44 398.956H71.4Z" fill="#ffffff" fill-rule="evenodd"/><path transform="matrix(1,0,0,-1,0,595.276)" stroke-width=".12" stroke-linecap="round" stroke-linejoin="round" fill="none" stroke="#0000ff" d="M59.88 409.396H110.16C111.24 409.396 112.08 408.556 112.08 407.476V392.116C112.08 391.036 111.24 390.196 110.16 390.196H59.88C58.8 390.196 57.96 391.036 57.96 392.116V407.476C57.96 408.556 58.8 409.396 59.88 409.396"/></g></svg>