<?xml version='1.0' encoding='UTF-8'?>
<svg xmlns="http://www.w3.org/2000/svg" xmlns:xlink="http://www.w3.org/1999/xlink" xmlns:inkscape="http://www.inkscape.org/namespaces/inkscape" version="1.1" width="567.000" height="269.280" viewBox="0 0 567.000 269.280"><g transform="scale(10.0) translate(-438.573, -289.584)"><defs><clipPath id="clip_2"><path transform="matrix(1,0,0,-1,0,595.276)" d="M74.4 .196H767.4V595.276H74.4Z"/></clipPath></defs><path transform="matrix(1,0,0,-1,0,595.276)" d="M441.6 303.676H492.12C492.6 303.676 493.08 303.436 493.44 303.076 493.8 302.716 493.92 302.236 493.92 301.756V282.556C493.92 282.076 493.8 281.596 493.44 281.236 493.08 280.876 492.6 280.636 492.12 280.636H441.6C441.24 280.636 440.76 280.876 440.4 281.236 439.92 281.596 439.8 282.076 439.8 282.556V301.756C439.8 301.996 439.8 302.236 439.92 302.476 440.04 302.716 440.16 302.956 440.4 303.076 440.76 303.436 441.24 303.676 441.6 303.676Z" fill="#ffffff" fill-rule="evenodd"/><path transform="matrix(1,0,0,-1,0,595.276)" d="M441.6 302.716H492.12C492.24 302.716 492.36 302.716 492.48 302.596 492.6 302.596 492.72 302.596 492.84 302.476 492.84 302.356 492.96 302.236 492.96 302.116 493.08 301.996 493.08 301.876 493.08 301.756V282.556C493.08 282.316 492.96 282.076 492.84 281.836 492.72 281.716 492.6 281.716 492.48 281.596 492.36 281.596 492.24 281.596 492.12 281.596H441.6C441.36 281.596 441.12 281.716 441 281.836 440.76 282.076 440.76 282.316 440.76 282.556V301.756C440.76 302.356 441.12 302.716 441.6 302.716Z" fill="#0000ff" fill-rule="evenodd"/><path transform="matrix(1,0,0,-1,0,595.276)" d="M442.92 297.436H445.2V297.916H443.52V298.876H444.96V299.356H443.52V300.316H445.08V300.796H442.92Z" fill="#ffffff" fill-rule="evenodd"/><path transform="matrix(1,0,0,-1,0,595.276)" d="M447.36 297.436H448.08L447.24 298.636 447.96 299.836H447.36L446.88 298.996 446.4 299.836H445.8L446.52 298.636 445.68 297.436H446.28L446.88 298.276Z" fill="#ffffff" fill-rule="evenodd"/><path transform="matrix(1,0,0,-1,0,595.276)" d="M448.44 299.716 448.68 299.236 448.92 299.356C449.04 299.356 449.16 299.476 449.28 299.476 449.4 299.476 449.4 299.476 449.52 299.476 449.64 299.476 449.76 299.356 449.76 299.356 449.88 299.236 449.88 299.236 449.88 299.116V298.996 298.876H449.52C449.4 298.876 449.28 298.876 449.16 298.876 449.04 298.876 448.92 298.876 448.92 298.756 448.68 298.756 448.56 298.636 448.56 298.516 448.44 298.396 448.32 298.276 448.32 298.036 448.32 297.916 448.44 297.796 448.56 297.676 448.56 297.556 448.68 297.436 448.8 297.436 448.92 297.316 449.04 297.316 449.16 297.316 449.28 297.316 449.52 297.316 449.64 297.436 449.76 297.436 449.88 297.556 450 297.556 450 297.556 450 297.436 450.12 297.436L450.24 297.316H450.36L450.6 297.676 450.48 297.796 450.36 297.916V298.756C450.36 298.876 450.36 299.116 450.36 299.236 450.36 299.356 450.36 299.476 450.24 299.596 450.12 299.716 450 299.836 449.88 299.836 449.76 299.956 449.52 299.956 449.28 299.956 449.16 299.956 449.04 299.836 448.92 299.836 448.8 299.836 448.8 299.836 448.68 299.716 448.56 299.716 448.56 299.716 448.44 299.716ZM449.16 297.796H449.04V297.916C448.92 297.916 448.92 297.916 448.92 298.036 448.92 298.036 448.92 298.156 448.92 298.276L449.04 298.396C449.16 298.396 449.16 298.396 449.28 298.396 449.4 298.396 449.52 298.516 449.64 298.516 449.64 298.516 449.76 298.516 449.88 298.516V298.036 297.916H449.76C449.76 297.796 449.64 297.796 449.52 297.796 449.4 297.676 449.28 297.676 449.16 297.796Z" fill="#ffffff" fill-rule="evenodd"/><path transform="matrix(1,0,0,-1,0,595.276)" d="M448.44 299.716V299.716Z" fill="#ffffff" fill-rule="evenodd"/><path transform="matrix(1,0,0,-1,0,595.276)" d="M452.16 297.796C452.28 297.796 452.4 297.796 452.52 297.796 452.52 297.916 452.64 297.916 452.64 298.036 452.76 298.036 452.76 298.156 452.88 298.156L453.24 297.916 453.12 297.796C453.12 297.676 453 297.676 453 297.556 452.88 297.556 452.88 297.436 452.76 297.436 452.64 297.316 452.4 297.316 452.28 297.316 452.04 297.316 451.8 297.436 451.56 297.556 451.44 297.676 451.32 297.796 451.2 298.036 451.08 298.396 451.08 298.636 451.08 298.876 451.2 299.116 451.2 299.356 451.44 299.476 451.56 299.596 451.68 299.716 451.92 299.836 452.04 299.836 452.28 299.956 452.52 299.836 452.76 299.836 453 299.716 453.12 299.476L453.24 299.356V299.236L452.76 298.996C452.76 299.116 452.76 299.236 452.64 299.236 452.64 299.356 452.52 299.356 452.52 299.356 452.4 299.476 452.16 299.356 452.04 299.356 451.92 299.236 451.8 299.116 451.68 298.996 451.68 298.756 451.68 298.516 451.68 298.276 451.68 298.036 451.92 297.916 452.16 297.796Z" fill="#ffffff" fill-rule="evenodd"/><path transform="matrix(1,0,0,-1,0,595.276)" d="M454.68 297.916C454.68 297.916 454.68 297.796 454.8 297.796 454.8 297.796 454.92 297.796 455.04 297.796 455.04 297.796 455.16 297.796 455.16 297.916L455.28 297.436C455.04 297.316 454.68 297.316 454.44 297.436 454.32 297.436 454.2 297.556 454.2 297.556 454.08 297.676 454.08 297.796 454.08 297.916V299.356H453.6V299.836H454.08V300.676L454.68 300.796V299.836H455.28V299.356H454.68V297.916Z" fill="#ffffff" fill-rule="evenodd"/><path transform="matrix(1,0,0,-1,0,595.276)" stroke-width=".12" stroke-linecap="butt" stroke-miterlimit="10" stroke-linejoin="miter" fill="none" stroke="#ffffff" d="M457.5 299.5V299.5"/><path transform="matrix(1,0,0,-1,0,595.276)" d="M457.68 299.716C457.92 299.956 458.28 299.956 458.76 299.716 459.12 299.476 459.24 298.996 459.24 298.636 459.24 298.276 459.12 297.796 458.76 297.556 458.4 297.196 457.92 297.316 457.68 297.436H457.56V296.596H457.08V299.836H457.56V299.716H457.68ZM457.68 299.236C457.68 299.116 457.56 298.996 457.56 298.876V298.756 298.396 298.276C457.56 298.156 457.68 298.036 457.8 297.916 457.92 297.916 458.04 297.796 458.16 297.796 458.4 297.796 458.52 297.916 458.64 298.036 458.76 298.396 458.76 298.876 458.52 299.116 458.4 299.236 458.28 299.356 458.16 299.356 457.92 299.356 457.8 299.356 457.68 299.236Z" fill="#ffffff" fill-rule="evenodd"/><path transform="matrix(1,0,0,-1,0,595.276)" d="M459.84 299.716 460.08 299.236 460.44 299.356C460.44 299.356 460.56 299.476 460.68 299.476 460.8 299.476 460.92 299.476 461.04 299.476 461.04 299.476 461.16 299.356 461.28 299.356 461.28 299.236 461.28 299.236 461.28 299.116V298.996 298.876H460.92C460.8 298.876 460.68 298.876 460.56 298.876 460.56 298.876 460.44 298.876 460.32 298.756 460.2 298.756 460.08 298.636 459.96 298.516 459.84 298.396 459.84 298.276 459.84 298.036 459.84 297.916 459.84 297.796 459.96 297.676 459.96 297.556 460.08 297.436 460.2 297.436 460.32 297.316 460.44 297.316 460.56 297.316 460.8 297.316 460.92 297.316 461.04 297.436 461.16 297.436 461.28 297.556 461.4 297.556L461.52 297.436C461.64 297.316 461.76 297.316 461.76 297.316L462 297.676 461.88 297.796V297.916H461.76V298.756C461.88 298.876 461.88 299.116 461.76 299.236 461.76 299.356 461.76 299.476 461.64 299.596 461.52 299.716 461.4 299.836 461.28 299.836 461.16 299.956 460.92 299.956 460.8 299.956 460.68 299.956 460.44 299.836 460.32 299.836 460.32 299.836 460.2 299.836 460.08 299.716 460.08 299.716 459.96 299.716 459.84 299.716ZM460.56 297.796V297.796C460.44 297.796 460.44 297.796 460.44 297.916 460.32 297.916 460.32 297.916 460.32 298.036 460.32 298.036 460.32 298.156 460.32 298.276 460.44 298.276 460.44 298.396 460.56 298.396H460.68C460.8 298.396 460.92 298.516 461.04 298.516 461.16 298.516 461.16 298.516 461.28 298.516V298.036 297.916H461.16C461.16 297.796 461.04 297.796 460.92 297.796 460.8 297.676 460.68 297.676 460.56 297.796Z" fill="#ffffff" fill-rule="evenodd"/><path transform="matrix(1,0,0,-1,0,595.276)" d="M459.84 299.716V299.716Z" fill="#ffffff" fill-rule="evenodd"/><path transform="matrix(1,0,0,-1,0,595.276)" d="M463.2 297.196C463.2 297.076 463.08 297.076 462.96 297.076 462.84 297.076 462.72 297.076 462.6 297.076V296.596C462.6 296.596 462.72 296.596 462.84 296.596 462.96 296.596 463.08 296.596 463.2 296.596 463.32 296.596 463.56 296.716 463.68 296.956 463.8 297.436 463.92 297.916 464.16 298.396 464.28 298.876 464.4 299.356 464.64 299.836H464.04L463.56 298.156 462.96 299.836H462.36L463.2 297.316V297.196Z" fill="#ffffff" fill-rule="evenodd"/><path transform="matrix(1,0,0,-1,0,595.276)" d="M465.6 299.836H465.12V297.436H465.6V298.876C465.6 298.996 465.72 299.116 465.72 299.236 465.84 299.356 465.96 299.356 466.08 299.356 466.2 299.356 466.32 299.356 466.32 299.236 466.32 299.236 466.44 299.236 466.44 299.116V298.996 297.436H467.04V298.876C467.04 298.996 467.04 299.116 467.16 299.236 467.28 299.356 467.4 299.356 467.4 299.356 467.52 299.356 467.64 299.356 467.76 299.236V299.116C467.88 299.116 467.88 298.996 467.88 298.996V297.436H468.36V299.116 299.236C468.24 299.476 468.12 299.596 468 299.716 467.76 299.836 467.64 299.956 467.4 299.836 467.28 299.836 467.16 299.836 467.04 299.836 466.92 299.716 466.92 299.596 466.8 299.596 466.68 299.836 466.32 299.956 466.08 299.836 465.96 299.836 465.96 299.836 465.84 299.836 465.72 299.836 465.72 299.716 465.6 299.716V299.836Z" fill="#ffffff" fill-rule="evenodd"/><path transform="matrix(1,0,0,-1,0,595.276)" d="M469.92 297.316C470.16 297.316 470.52 297.316 470.76 297.436 470.88 297.436 471 297.556 471.12 297.676L470.76 298.036H470.64C470.52 297.916 470.4 297.796 470.28 297.796 470.16 297.796 469.92 297.796 469.8 297.916 469.68 297.916 469.68 298.036 469.56 298.156 469.56 298.276 469.56 298.396 469.56 298.396H471.24C471.24 298.636 471.24 298.876 471.12 299.116 471.12 299.356 470.88 299.596 470.76 299.716 470.4 299.956 469.92 299.956 469.56 299.716 469.32 299.596 469.08 299.236 469.08 298.876 468.96 298.516 468.96 298.276 469.2 297.916 469.2 297.796 469.32 297.676 469.44 297.556 469.56 297.436 469.8 297.316 469.92 297.316ZM469.56 298.756C469.56 298.996 469.56 298.996 469.68 299.116 469.68 299.236 469.8 299.356 469.92 299.356 470.04 299.476 470.16 299.476 470.4 299.356 470.4 299.356 470.52 299.236 470.64 299.236 470.64 299.116 470.64 298.996 470.64 298.756H469.56Z" fill="#ffffff" fill-rule="evenodd"/><path transform="matrix(1,0,0,-1,0,595.276)" d="M472.8 299.356C472.92 299.356 473.04 299.356 473.16 299.236 473.28 299.236 473.28 299.116 473.28 298.996V297.436H473.88V299.116C473.76 299.236 473.76 299.356 473.64 299.476 473.52 299.716 473.4 299.716 473.28 299.836 473.16 299.836 472.92 299.956 472.8 299.836 472.68 299.836 472.44 299.716 472.32 299.716V299.836H471.84V297.436H472.32V298.876C472.32 298.996 472.44 299.116 472.56 299.236 472.56 299.356 472.68 299.356 472.8 299.356Z" fill="#ffffff" fill-rule="evenodd"/><path transform="matrix(1,0,0,-1,0,595.276)" d="M475.44 297.916C475.44 297.916 475.44 297.796 475.56 297.796 475.68 297.796 475.68 297.796 475.8 297.796 475.8 297.796 475.92 297.796 476.04 297.916V297.436C475.8 297.316 475.44 297.316 475.2 297.436 475.08 297.436 474.96 297.556 474.96 297.556 474.84 297.676 474.84 297.796 474.84 297.916V299.356H474.36V299.836H474.84V300.676L475.44 300.796V299.836H476.04V299.356H475.44V297.916Z" fill="#ffffff" fill-rule="evenodd"/><path transform="matrix(1,0,0,-1,0,595.276)" d="M465 287.476H468.72V285.076H472.44L466.92 282.556 461.4 285.076H465Z" fill="#ffffff" fill-rule="evenodd"/><path transform="matrix(1,0,0,-1,0,595.276)" stroke-width=".12" stroke-linecap="butt" stroke-miterlimit="10" stroke-linejoin="miter" fill="none" stroke="#ffffff" d="M479.5 294.5V294.5"/><path transform="matrix(1,0,0,-1,0,595.276)" d="M479.64 294.916V294.916C479.28 294.796 478.92 294.796 478.44 294.796 478.44 294.196 478.68 293.716 479.04 293.236 479.4 292.876 479.88 292.636 480.36 292.516V291.676H481.08V292.516C482.28 292.636 483.12 293.596 483.12 294.676 483.12 295.156 483 295.756 482.52 296.116 482.16 296.596 481.56 296.836 481.08 296.956V298.756C481.2 298.756 481.32 298.636 481.44 298.396 481.56 298.276 481.68 298.156 481.68 297.916L483 298.156C482.76 299.116 482.04 299.836 481.08 299.956V300.436H480.36V299.956C479.28 299.716 478.56 298.876 478.56 297.916 478.56 297.436 478.68 296.956 479.04 296.596 479.4 296.116 479.88 295.876 480.36 295.756V293.836C479.88 294.076 479.64 294.436 479.64 294.916ZM480.36 297.196C480 297.196 479.76 297.556 479.76 297.916 479.76 298.156 479.88 298.276 479.88 298.516 480 298.636 480.24 298.756 480.36 298.756V297.196ZM481.08 295.516C481.2 295.516 481.44 295.516 481.68 295.276 481.8 295.156 481.92 294.916 481.92 294.676 481.92 294.436 481.8 294.196 481.68 293.956 481.56 293.956 481.44 293.836 481.32 293.836 481.2 293.716 481.2 293.716 481.08 293.716V295.516Z" fill="#ffffff" fill-rule="evenodd"/><path transform="matrix(1,0,0,-1,0,595.276)" d="M485.88 294.436C486 293.596 486.72 292.996 487.56 293.116 487.92 293.116 488.4 293.236 488.64 293.716 489 294.076 489.12 294.556 489.12 295.036 489.12 295.396 489 295.876 488.64 296.236 488.4 296.716 487.92 296.836 487.56 296.836 487.2 296.836 486.96 296.716 486.6 296.476 486.36 296.356 486.24 296.116 486.12 295.756L484.44 296.116 485.28 300.436H490.08V299.116H486.48L486.24 297.676C486.48 297.796 486.6 297.916 486.84 297.916 487.08 298.036 487.32 298.036 487.56 298.036 487.92 298.036 488.28 298.036 488.64 297.916 489 297.796 489.36 297.556 489.72 297.196 490.32 296.596 490.56 295.756 490.56 295.036 490.56 294.316 490.32 293.356 489.72 292.756 489.12 292.036 488.28 291.796 487.56 291.796 486.84 291.796 486 291.916 485.4 292.396 485.04 292.636 484.8 292.996 484.68 293.236 484.56 293.476 484.44 293.716 484.56 294.076L485.88 294.436Z" fill="#ffffff" fill-rule="evenodd"/><path transform="matrix(1,0,0,-1,0,595.276)" d="M446.64 294.316V293.836H448.8L448.44 293.116 447.96 292.516 447.24 292.036 446.52 291.556 447 291.076 447.6 291.556 448.08 291.916 448.56 292.396 448.92 292.996V289.636H449.52V292.756L449.64 292.876 449.52 292.996H449.4 448.92L449.52 293.836H451.68V294.316Z" fill="#ffffff" fill-rule="evenodd"/><path transform="matrix(1,0,0,-1,0,595.276)" d="M451.2 291.076 451.8 291.316 451.44 291.796 450.96 292.276 450.6 292.756 450.12 293.236 449.76 292.876 450.48 292.036Z" fill="#ffffff" fill-rule="evenodd"/><path transform="matrix(1,0,0,-1,0,595.276)" d="M453.6 294.556V294.076H455.28V294.556Z" fill="#ffffff" fill-rule="evenodd"/><path transform="matrix(1,0,0,-1,0,595.276)" d="M453.48 293.836V293.356H455.4V293.836Z" fill="#ffffff" fill-rule="evenodd"/><path transform="matrix(1,0,0,-1,0,595.276)" d="M453.6 292.996V292.516H455.28V292.996Z" fill="#ffffff" fill-rule="evenodd"/><path transform="matrix(1,0,0,-1,0,595.276)" d="M453.6 292.276V291.796H455.28V292.276Z" fill="#ffffff" fill-rule="evenodd"/><path transform="matrix(1,0,0,-1,0,595.276)" d="M455.4 291.436H453.6V289.636H454.08V289.876H454.8V289.636H455.4V291.436ZM454.08 290.356V290.956H454.8V290.356H454.08Z" fill="#ffffff" fill-rule="evenodd"/><path transform="matrix(1,0,0,-1,0,595.276)" d="M455.88 294.556V293.956L455.76 293.476 455.64 293.116 455.52 292.996 455.28 292.876 455.76 292.516 456 292.876 456.24 293.236 456.36 293.596V294.076H457.08V293.116 292.876 292.756H457.32L457.44 292.636H458.04 458.16L458.28 292.756 458.4 292.876V292.996L458.52 293.476 458.16 293.596 458.04 293.236 457.92 293.116H457.8 457.68 457.56V293.356 294.556Z" fill="#ffffff" fill-rule="evenodd"/><path transform="matrix(1,0,0,-1,0,595.276)" d="M455.64 292.276V291.796H457.44L457.2 291.196 456.84 290.836 456.48 291.196 456.24 291.676 455.88 291.436 456.12 290.956 456.6 290.476 456 290.236 455.4 289.996 455.76 289.636 456.36 289.876 456.96 290.236 457.44 289.876 458.16 289.636 458.4 290.116 457.8 290.236 457.32 290.476 457.68 291.196 458.04 292.036 457.68 292.396 457.56 292.276Z" fill="#ffffff" fill-rule="evenodd"/><path transform="matrix(1,0,0,-1,0,595.276)" d="M460.32 293.476V292.996H461.04V291.916L460.08 291.556 460.2 291.196 460.32 291.076V290.956L460.44 291.076V291.196L461.04 291.316V290.356 290.236 290.116L460.92 289.996H460.8 460.44L460.56 289.516H460.92L461.28 289.636 461.52 289.756V289.996L461.64 290.116V291.556L462.36 291.796V292.276L461.52 292.036V292.996H462.36V293.476H461.52V294.436H461.64V294.556L461.4 294.676H461.04V293.476Z" fill="#ffffff" fill-rule="evenodd"/><path transform="matrix(1,0,0,-1,0,595.276)" d="M462.48 293.116V292.636L463.2 292.756 463.32 291.916 463.44 291.196 463.2 290.956 462.84 290.716 462.48 290.476 462.12 290.356 462.48 289.996 463.08 290.236 463.68 290.716 463.8 290.236 464.16 289.756 464.28 289.636H464.4 464.52L464.64 289.756 464.76 289.876 465 290.116 465.12 290.356 465.24 290.716 464.88 290.956 464.64 290.476V290.356L464.52 290.236H464.4L464.16 290.596 464.04 291.076 464.4 291.556 464.76 292.036 464.88 292.156V292.276L464.64 292.396 464.4 292.516 464.04 292.036 463.8 291.676 463.68 292.276V292.876L465 293.116V293.596L463.56 293.356V294.316L463.68 294.436V294.556L463.44 294.676H463.2V293.236Z" fill="#ffffff" fill-rule="evenodd"/><path transform="matrix(1,0,0,-1,0,595.276)" d="M464.64 293.716 465 293.956 464.64 294.316 464.28 294.556 463.92 294.196 464.28 293.956Z" fill="#ffffff" fill-rule="evenodd"/><path transform="matrix(1,0,0,-1,0,595.276)" d="M467.16 293.956 466.92 293.596 467.76 292.996 467.28 292.396 467.04 292.276V291.916L467.16 291.796 467.28 291.916H467.88V289.636H468.36V292.036H468.6V291.796L469.08 291.916 468.84 292.396 468.72 292.876 468.36 292.756 468.48 292.396H467.88L468.84 293.596 468.96 293.716 468.84 293.836 468.48 294.076 468 293.356 467.76 293.596 468.24 294.316H468.36V294.436H468.24L467.88 294.676 467.4 293.836Z" fill="#ffffff" fill-rule="evenodd"/><path transform="matrix(1,0,0,-1,0,595.276)" d="M467.04 289.996H467.52V290.596L467.64 291.316V291.436L467.16 291.556V290.716Z" fill="#ffffff" fill-rule="evenodd"/><path transform="matrix(1,0,0,-1,0,595.276)" d="M468.84 294.316V294.076H470.16V293.836H469.2V293.596H471.72V293.836H470.64V294.076H472.08V294.316H470.64L470.76 294.436V294.556L470.64 294.676H470.16V294.316Z" fill="#ffffff" fill-rule="evenodd"/><path transform="matrix(1,0,0,-1,0,595.276)" d="M468.96 293.356V292.156H471.96V293.356H468.96ZM469.44 292.876V293.116H470.04L469.8 292.876H469.44ZM469.44 292.756 469.68 292.516 469.92 292.636 470.16 292.756 470.4 292.876V293.116H470.64V292.876 292.756 292.636H470.76 470.88 471.48V292.876H471.12 471V293.116H471.6V292.516H469.44V292.756Z" fill="#ffffff" fill-rule="evenodd"/><path transform="matrix(1,0,0,-1,0,595.276)" d="M469.32 292.036V290.236H469.68L469.32 290.116 468.84 289.996 469.2 289.636 470.28 289.996 470.16 290.236H471L470.64 289.996 471.12 289.756 471.72 289.636 472.08 289.996 471.6 290.116 471.12 290.236H471.72V292.036H469.32ZM469.68 291.556V291.676H471.24V291.556H469.68ZM469.68 290.596V290.716H471.24V290.596H469.68ZM469.68 291.076V291.316H471.24V291.076H469.68Z" fill="#ffffff" fill-rule="evenodd"/><path transform="matrix(1,0,0,-1,0,595.276)" d="M468.84 291.556 468.48 291.436 468.6 290.356 469.08 290.476 468.96 290.956Z" fill="#ffffff" fill-rule="evenodd"/><path transform="matrix(1,0,0,-1,0,595.276)" stroke-width=".12" stroke-linecap="round" stroke-linejoin="round" fill="none" stroke="#0000ff" d="M493.92 301.756C493.92 302.836 493.2 303.676 492.12 303.676H441.6C440.64 303.676 439.8 302.836 439.8 301.756V282.556C439.8 281.476 440.64 280.636 441.6 280.636H492.12C493.2 280.636 493.92 281.476 493.92 282.556V301.756"/></g></svg>