<?xml version='1.0' encoding='UTF-8'?>
<svg xmlns="http://www.w3.org/2000/svg" xmlns:xlink="http://www.w3.org/1999/xlink" xmlns:inkscape="http://www.inkscape.org/namespaces/inkscape" version="1.1" width="567.000" height="269.280" viewBox="0 0 567.000 269.280"><g transform="scale(10.0) translate(-329.439, -505.008)"><defs><clipPath id="clip_19"><path transform="matrix(0,1,1,0,0,0)" d="M0 74.451H595.008V767.55899H0Z"/></clipPath><clipPath id="clip_20"><path transform="matrix(0,1,1,0,0,0)" d="M0 842.013H595.224V.008972168H0Z"/></clipPath></defs><path transform="matrix(0,1,1,0,350.427,505.566)" d="M0 0V14.994C0 15.156 .018 15.318 .09 15.498 .162 15.66 .252 15.822 .396 15.948 .522 16.092 .684 16.182 .846 16.254 1.026 16.326 1.188 16.344 1.35 16.344H24.48C24.624 16.344 24.804 16.326 24.966 16.254 25.146 16.182 25.29 16.092 25.434 15.948 25.56 15.822 25.668 15.66 25.74 15.498 25.794 15.318 25.83 15.156 25.83 14.994V0C25.83-.162 25.794-.342 25.74-.504 25.668-.684 25.56-.828 25.434-.972 25.29-1.098 25.146-1.206 24.966-1.278 24.804-1.332 24.624-1.368 24.48-1.368H1.35C1.188-1.368 1.026-1.332 .846-1.278 .684-1.206 .522-1.098 .396-.972 .252-.828 .162-.684 .09-.504 .018-.342 0-.162 0 0ZM.666 0C.666-.18 .738-.342 .864-.486 1.008-.63 1.188-.684 1.35-.684H12.726C12.888-.684 13.068-.63 13.194-.486 13.338-.342 13.392-.18 13.392 0V14.994C13.392 15.156 13.338 15.336 13.194 15.48 13.068 15.606 12.888 15.678 12.726 15.678H1.35C1.188 15.678 1.008 15.606 .864 15.48 .738 15.336 .666 15.156 .666 14.994V0ZM13.842 0C13.842-.18 13.914-.36 14.04-.486 14.166-.612 14.346-.684 14.526-.684H24.48C24.642-.684 24.822-.63 24.948-.486 25.092-.342 25.146-.18 25.146 0V14.994C25.146 15.156 25.092 15.336 24.948 15.48 24.822 15.606 24.642 15.678 24.48 15.678H14.526C14.436 15.678 14.364 15.66 14.274 15.624 14.184 15.588 14.112 15.534 14.04 15.48 13.896 15.336 13.842 15.156 13.842 14.994V0" fill-rule="evenodd"/><path transform="matrix(0,1,1,0,350.427,506.232)" d="M0 0V14.994C0 15.066 .018 15.156 .054 15.246 .09 15.318 .144 15.408 .198 15.48 .27 15.534 .36 15.588 .432 15.624 .522 15.66 .612 15.678 .684 15.678H12.06C12.222 15.678 12.402 15.606 12.528 15.48 12.672 15.336 12.726 15.156 12.726 14.994V0C12.726-.18 12.672-.342 12.528-.486 12.474-.558 12.384-.612 12.312-.63 12.222-.666 12.132-.684 12.06-.684H.684C.522-.684 .342-.63 .198-.486 .072-.342 0-.18 0 0" fill="#ffffff" fill-rule="evenodd"/><path transform="matrix(0,1,1,0,360.867,509.904)" d="M0 0C-.792 0-1.53-.306-2.088-.864-2.646-1.422-2.952-2.16-2.952-2.952-2.952-3.726-2.646-4.482-2.088-5.04-1.53-5.58-.792-5.904 0-5.904 .774-5.904 1.53-5.58 2.088-5.04 2.646-4.482 2.952-3.726 2.952-2.952 2.952-2.16 2.646-1.422 2.088-.864 1.53-.306 .774 0 0 0" fill="#ff0000" fill-rule="evenodd"/><path transform="matrix(0,1,1,0,350.427,519.408)" d="M0 0V14.994C0 15.156 .054 15.336 .198 15.48 .342 15.606 .522 15.678 .684 15.678H10.638C10.71 15.678 10.8 15.66 10.872 15.624 10.962 15.588 11.034 15.534 11.106 15.48 11.178 15.408 11.232 15.318 11.268 15.246 11.286 15.156 11.304 15.066 11.304 14.994V0C11.304-.18 11.25-.342 11.106-.486 11.034-.558 10.962-.612 10.872-.63 10.8-.666 10.71-.684 10.638-.684H.684C.504-.684 .324-.612 .198-.486 .072-.36 0-.18 0 0" fill="#ffffff" fill-rule="evenodd"/><path transform="matrix(0,1,1,0,359.787,511.344)" d="M0 0C-.18 .144-.414 .27-.648 .36-.9 .45-1.17 .486-1.44 .486-1.71 .486-1.98 .45-2.232 .36-2.484 .27-2.7 .144-2.898 0L-1.44-1.458 0 0" fill="#0000ff" fill-rule="evenodd"/><path transform="matrix(0,1,1,0,356.475,511.758)" d="M0 0C.162 .18 .288 .414 .378 .666 .45 .9 .504 1.17 .504 1.44 .504 1.71 .45 1.98 .378 2.232 .288 2.484 .162 2.7 0 2.898L-1.44 1.44 0 0" fill="#0000ff" fill-rule="evenodd"/><path transform="matrix(0,1,1,0,356.061,511.344)" d="M0 0C-.18-.162-.414-.288-.648-.36-.9-.45-1.17-.504-1.44-.504-1.71-.504-1.98-.45-2.232-.36-2.484-.288-2.7-.162-2.898 0L-1.44 1.44 0 0" fill="#0000ff" fill-rule="evenodd"/><path transform="matrix(0,1,1,0,356.475,508.032)" d="M0 0C-.144 .18-.27 .414-.36 .666-.45 .9-.486 1.17-.486 1.44-.486 1.71-.45 1.98-.36 2.232-.27 2.484-.144 2.7 0 2.898L1.458 1.44 0 0" fill="#0000ff" fill-rule="evenodd"/><path transform="matrix(0,1,1,0,355.161,517.698)" d="M0 0V5.022C-.108 5.004-.216 4.986-.324 5.022-.432 5.04-.54 5.094-.63 5.166-.738 5.238-.81 5.328-.846 5.436-.9 5.544-.918 5.652-.918 5.742-.918 5.85-.9 5.958-.846 6.066-.81 6.156-.738 6.264-.63 6.336-.54 6.408-.432 6.462-.324 6.48-.198 6.498-.09 6.498 0 6.48L-.504 8.73H-3.492C-3.654 8.73-3.834 8.676-3.96 8.55-4.032 8.478-4.086 8.406-4.104 8.316-4.14 8.244-4.158 8.154-4.158 8.082V-2.232C-4.158-2.376-4.104-2.556-3.96-2.7-3.834-2.826-3.654-2.88-3.492-2.88H-2.16L-1.836-3.222H-.342C-.252-3.222-.162-3.186-.108-3.132-.072-3.096-.054-3.06-.036-3.006-.018-2.97 0-2.934 0-2.88V-1.458C-.108-1.476-.216-1.476-.324-1.458-.432-1.44-.54-1.386-.63-1.314-.738-1.242-.81-1.134-.846-1.044-.9-.936-.918-.828-.918-.738-.918-.63-.9-.522-.846-.414-.81-.324-.738-.216-.63-.144-.54-.072-.432-.018-.324 0-.216 .018-.108 .018 0 0ZM-2.34 1.098H-3.32999V3.2580002H-2.34ZM-3.33 5.742H-2.34001V3.582H-3.33ZM-2.34 5.742ZM-2.34 8.406V6.084H-3.33V8.082C-3.33 8.154-3.294 8.244-3.222 8.316-3.168 8.37-3.078 8.406-2.988 8.406H-2.34ZM-2.34-1.386H-3.32999V.77400007H-2.34ZM-3.33-1.728H-.50399997V-2.556H-3.33Z" fill-rule="evenodd"/><path transform="matrix(0,1,1,0,361.569,517.518)" d="M0 0C-.162 0-.342-.072-.468-.198-.594-.306-.648-.486-.648-.666-.648-.828-.594-1.008-.468-1.134-.342-1.26-.162-1.332 0-1.332 .18-1.332 .36-1.26 .486-1.134 .594-1.008 .666-.828 .666-.666 .666-.486 .594-.306 .486-.198 .36-.072 .18 0 0 0ZM0-.324C.198-.324 .342-.468 .342-.666 .342-.846 .198-.99 0-.99-.18-.99-.324-.846-.324-.666-.324-.468-.18-.324 0-.324" fill-rule="evenodd"/><path transform="matrix(0,1,1,0,355.089,517.518)" d="M0 0C-.162 0-.342-.054-.468-.18-.594-.306-.648-.486-.648-.666-.648-.828-.594-1.008-.468-1.134-.342-1.26-.162-1.314 0-1.314 .18-1.314 .36-1.26 .486-1.134 .594-1.008 .666-.828 .666-.666 .666-.486 .594-.306 .486-.18 .36-.054 .18 0 0 0ZM0-.324C.198-.324 .342-.468 .342-.666 .342-.846 .198-.99 0-.99-.18-.99-.324-.846-.324-.666-.324-.468-.18-.324 0-.324" fill-rule="evenodd"/><path transform="matrix(0,1,1,0,361.119,523.854)" d="M0 0V.774L-2.808 1.908H-3.51V-.576H-2.808V1.134" fill-rule="evenodd"/><path transform="matrix(0,1,1,0,354.531,520.56)" d="M0 0H-.054C-.09 0-.126 0-.144-.018-.162-.054-.162-.072-.162-.126-.162-.252-.126-.36-.054-.45L-.252-.594C-.306-.54-.36-.468-.378-.396-.414-.324-.432-.234-.432-.126-.432 .126-.324 .288-.126 .306H.414C.432 .306 .45 .324 .468 .342 .486 .36 .486 .378 .486 .414L.702 .342C.702 .27 .702 .198 .684 .162 .666 .108 .63 .09 .594 .072 .648 .036 .72-.09 .72-.18 .72-.45 .576-.612 .342-.612 .108-.612 0-.396 0 0ZM.342-.306C.36-.306 .378-.306 .396-.288 .414-.288 .432-.288 .432-.27 .45-.234 .468-.198 .468-.144 .45-.072 .432-.018 .396 0H.216C.216-.09 .234-.18 .252-.234 .27-.27 .306-.306 .342-.306" fill-rule="evenodd"/><path transform="matrix(0,1,1,0,356.205,520.434)" d="M0 0C0-.09 .054-.18 .144-.18H.792V-.468H.072C.018-.468 0-.54 0-.612 0-.702 .072-.792 .144-.792H.792V-1.08H-.252V-.81H-.216C-.234-.774-.252-.72-.27-.684-.288-.648-.288-.594-.288-.558-.288-.414-.252-.324-.144-.27-.252-.198-.288-.108-.288 .018-.288 .216-.198 .342-.054 .396-.036 .414-.018 .414-.018 .414H0C0 .414-.018 .414 0 .414 .018 .414 .018 .414 .036 .414H.792V.144H.09C.054 .144 .036 .126 .018 .09 0 .072 0 .036 0 0" fill-rule="evenodd"/><path transform="matrix(0,1,1,0,356.241,526.536)" d="M0 0C0-.072 .072-.18 .144-.18H.792V-.468H.09C.036-.468 0-.522 0-.612 0-.684 .072-.792 .144-.792H.792V-1.08H-.252V-.792H-.198C-.234-.756-.252-.72-.27-.684-.27-.63-.288-.594-.288-.54-.288-.414-.234-.324-.144-.27-.234-.198-.288-.09-.288 .018-.27 .216-.198 .342-.036 .414-.018 .414-.018 .414 0 .414 0 .432 .018 .432 .018 .432H.792V.144H.09C.072 .144 .072 .144 .054 .144 .054 .126 .036 .126 .018 .108 .018 .072 0 .036 0 0" fill-rule="evenodd"/><path transform="matrix(0,1,1,0,354.945,526.806)" d="M0 0C-.162 0-.306-.054-.414-.126-.504-.216-.558-.342-.558-.486-.558-.594-.522-.738-.486-.756H-.468-.522V-1.026H.9V-.738H.486C.54-.702 .576-.594 .576-.486 .576-.342 .54-.234 .414-.144 .306-.054 .162 0 0 0ZM.306-.522C.306-.558 .288-.612 .252-.666 .216-.702 .162-.738 .126-.738H-.144C-.216-.738-.288-.63-.306-.54V-.522C-.306-.45-.252-.342-.162-.306H-.144L-.108-.288H.126L.162-.306C.198-.306 .252-.342 .27-.396 .306-.45 .306-.486 .306-.522" fill-rule="evenodd"/><path transform="matrix(0,1,1,0,361.119,529.956)" d="M0 0V.774L-2.79 1.908H-3.51V-.576H-2.79V1.134" fill-rule="evenodd"/><path transform="matrix(0,1,1,0,353.037,528.192)" d="M0 0H.216V.81H1.836V1.044H.756L.972 1.314 1.206 1.584 1.062 1.746 .756 1.404 .522 1.044H.216V1.944H0" fill-rule="evenodd"/><path transform="matrix(0,1,1,0,355.701,528.714)" d="M0 0 .126 .216-.18 .468V.918H.27V-.018H.468V.918H1.314V1.134H.468V1.926H.27V1.134H-.18V1.782H-.378V.594L-.54 .684-.558 .738H-.576L-.594 .72-.63 .684-.684 .54-.306 .288" fill-rule="evenodd"/><path transform="matrix(0,1,1,0,353.973,521.946)" d="M0 0-.018-.162H1.638V-.936H1.854V1.026H1.638V.054H.9V.81H.702V.054H.09L.054 .108H.036L.018 .072" fill-rule="evenodd"/><path transform="matrix(0,1,1,0,355.701,522.594)" d="M0 0 .126 .216-.18 .468V.918H.27V-.018H.468V.918H1.314V1.134H.468V1.926H.27V1.134H-.18V1.782H-.378V.594L-.522 .684-.54 .738H-.558L-.594 .72-.612 .684-.666 .54-.306 .288" fill-rule="evenodd"/><path transform="matrix(0,1,1,0,355.701,525.222)" d="M0 0 .738 2.214 0 4.428V2.952H-.738V1.476H0" fill-rule="evenodd"/></g></svg>