<?xml version='1.0' encoding='UTF-8'?>
<svg xmlns="http://www.w3.org/2000/svg" xmlns:xlink="http://www.w3.org/1999/xlink" xmlns:inkscape="http://www.inkscape.org/namespaces/inkscape" version="1.1" width="567.000" height="269.280" viewBox="0 0 567.000 269.280"><g transform="scale(10.0) translate(-220.305, -74.160)"><defs><clipPath id="clip_2"><path transform="matrix(1,0,0,-1,0,595.276)" d="M74.4 .196H767.4V595.276H74.4Z"/></clipPath></defs><path transform="matrix(1,0,0,-1,0,595.276)" d="M259.68 507.556C259.68 510.676 258.48 513.796 256.2 516.076 253.92 518.356 250.8 519.676 247.56 519.676 244.32 519.676 241.32 518.356 239.04 516.076 236.76 513.796 235.44 510.676 235.44 507.556 235.44 504.316 236.76 501.196 239.04 498.916 241.32 496.636 244.32 495.316 247.56 495.316 250.8 495.316 253.92 496.636 256.2 498.916 258.48 501.196 259.68 504.316 259.68 507.556Z" fill="#ffffff" fill-rule="evenodd"/><path transform="matrix(1,0,0,-1,0,595.276)" d="M259.2 507.556C259.2 510.556 258 513.556 255.84 515.716 253.68 517.996 250.68 519.196 247.56 519.196 244.44 519.196 241.56 517.996 239.4 515.716 237.12 513.556 235.92 510.556 235.92 507.556 235.92 504.436 237.12 501.436 239.4 499.276 241.56 497.116 244.44 495.796 247.56 495.796 250.68 495.796 253.68 497.116 255.84 499.276 258 501.436 259.2 504.436 259.2 507.556Z" fill="#0000ff" fill-rule="evenodd"/><path transform="matrix(1,0,0,-1,0,595.276)" d="M254.28 507.076H252.72C252.72 507.076 252.72 506.956 252.6 506.956L252 505.156C252 505.036 251.88 505.036 251.88 505.036 251.76 505.036 251.76 505.036 251.64 505.036 251.64 505.036 251.52 505.036 251.52 505.156V505.276L252.12 507.196C252.12 507.316 252.24 507.316 252.36 507.436 252.36 507.436 252.48 507.556 252.6 507.556H254.16 254.28V507.676L254.76 511.156 255.12 511.276C255.12 511.396 255.24 511.396 255.24 511.276L254.76 507.436C254.76 507.196 254.52 507.076 254.28 507.076Z" fill="#ffffff" fill-rule="evenodd"/><path transform="matrix(1,0,0,-1,0,595.276)" d="M256.68 504.436C256.68 505.036 256.44 505.636 256.08 506.116 255.6 506.596 255 506.716 254.4 506.716 253.92 506.716 253.32 506.596 252.84 506.116 252.36 505.636 252.12 505.036 252.12 504.436 252.12 503.956 252.36 503.356 252.84 502.876 253.32 502.396 253.92 502.156 254.4 502.156 255 502.156 255.6 502.396 256.08 502.876 256.44 503.356 256.68 503.956 256.68 504.436ZM256.32 504.436C256.32 503.956 256.2 503.476 255.72 503.116 255.36 502.756 254.88 502.636 254.4 502.636 253.92 502.636 253.44 502.756 253.08 503.116 252.72 503.476 252.48 503.956 252.48 504.436 252.48 504.916 252.72 505.396 253.08 505.876 253.44 506.236 253.92 506.356 254.4 506.356 254.88 506.356 255.36 506.236 255.72 505.876 256.2 505.396 256.32 504.916 256.32 504.436Z" fill="#ffffff" fill-rule="evenodd"/><path transform="matrix(1,0,0,-1,0,595.276)" d="M254.76 504.436C254.76 504.676 254.52 504.796 254.4 504.796 254.28 504.796 254.16 504.676 254.16 504.436 254.16 504.316 254.28 504.196 254.4 504.196 254.52 504.196 254.76 504.316 254.76 504.436ZM254.52 504.436C254.52 504.436 254.52 504.316 254.4 504.316L254.28 504.436C254.28 504.556 254.4 504.676 254.4 504.676 254.52 504.676 254.52 504.556 254.52 504.436Z" fill="#ffffff" fill-rule="evenodd"/><path transform="matrix(1,0,0,-1,0,595.276)" d="M256.92 504.796H257.88C258 504.796 258.12 504.796 258.12 504.796 258.24 504.676 258.24 504.676 258.24 504.556 258.24 504.556 258.24 504.436 258.12 504.316H258 257.88 256.92V504.796Z" fill="#ffffff" fill-rule="evenodd"/><path transform="matrix(1,0,0,-1,0,595.276)" d="M252 504.796H244.2V504.316H252Z" fill="#ffffff" fill-rule="evenodd"/><path transform="matrix(1,0,0,-1,0,595.276)" d="M250.56 504.196C250.68 503.716 250.92 503.236 251.4 502.876 251.88 502.636 252.48 502.516 252.96 502.516 252.84 502.636 252.6 502.756 252.48 502.876 252.24 502.876 251.88 503.116 251.52 503.356 251.4 503.476 251.28 503.596 251.16 503.716 251.04 503.836 251.04 503.956 250.92 504.196H250.56Z" fill="#ffffff" fill-rule="evenodd"/><path transform="matrix(1,0,0,-1,0,595.276)" d="M248.28 507.556C248.16 507.556 248.04 507.436 247.92 507.436 247.92 507.316 247.8 507.316 247.8 507.196L247.32 505.876V505.756C247.32 505.636 247.44 505.636 247.44 505.516 247.56 505.516 247.56 505.516 247.68 505.636H247.8V505.756L248.16 506.956H248.28L248.4 507.076H249.24C249.36 507.076 249.48 507.076 249.6 507.196 249.72 507.196 249.72 507.316 249.72 507.436L250.2 511.276V511.396C250.08 511.396 250.08 511.276 250.08 511.276L249.84 511.156H249.72L249.24 507.676V507.556H249.12 248.28Z" fill="#ffffff" fill-rule="evenodd"/><path transform="matrix(1,0,0,-1,0,595.276)" d="M245.88 506.236C246.12 506.116 246.36 505.996 246.48 505.756 246.6 505.516 246.72 505.276 246.72 505.036H246.36C246.36 505.276 246.24 505.396 246.12 505.636 245.88 505.756 245.64 505.876 245.52 505.876 245.04 505.876 244.68 505.516 244.68 505.036H244.2C244.2 505.276 244.32 505.636 244.56 505.876 244.68 505.996 244.92 506.116 245.04 506.116 245.16 506.236 245.4 506.236 245.52 506.236L245.64 506.716H245.4C245.4 506.716 245.28 506.716 245.28 506.836 245.28 506.836 245.16 506.836 245.16 506.956L245.28 507.076H245.4 246.12C246.24 507.076 246.36 507.076 246.36 506.956 246.36 506.836 246.24 506.716 246.12 506.716H246L245.88 506.236Z" fill="#ffffff" fill-rule="evenodd"/><path transform="matrix(1,0,0,-1,0,595.276)" stroke-width=".12" stroke-linecap="butt" stroke-miterlimit="10" stroke-linejoin="miter" fill="none" stroke="#ffffff" d="M246.5 504.5V504.5"/><path transform="matrix(1,0,0,-1,0,595.276)" d="M246.48 504.196V504.196H246C245.76 503.956 245.28 503.956 244.92 504.196H244.44C244.56 503.956 244.8 503.836 245.04 503.716L244.92 503.116H244.56 244.44C244.44 502.996 244.32 502.996 244.32 502.996 244.32 502.876 244.44 502.876 244.44 502.876 244.44 502.756 244.56 502.756 244.56 502.756H245.28C245.4 502.756 245.52 502.876 245.52 502.996 245.52 503.116 245.4 503.116 245.28 503.116L245.4 503.596C245.88 503.596 246.24 503.836 246.48 504.196Z" fill="#ffffff" fill-rule="evenodd"/><path transform="matrix(1,0,0,-1,0,595.276)" d="M244.44 504.196V504.196Z" fill="#ffffff" fill-rule="evenodd"/><path transform="matrix(1,0,0,-1,0,595.276)" d="M243.96 504.436C243.96 505.036 243.84 505.636 243.36 506.116 242.88 506.596 242.28 506.716 241.68 506.716 241.2 506.716 240.6 506.596 240.12 506.116 239.64 505.636 239.4 505.036 239.4 504.436 239.4 503.956 239.64 503.356 240.12 502.876 240.6 502.396 241.2 502.156 241.68 502.156 242.28 502.156 242.88 502.396 243.36 502.876 243.84 503.356 243.96 503.956 243.96 504.436ZM243.6 504.436C243.6 503.956 243.48 503.476 243 503.116 242.64 502.756 242.16 502.636 241.68 502.636 241.2 502.636 240.72 502.756 240.36 503.116 240 503.476 239.76 503.956 239.76 504.436 239.76 504.916 240 505.396 240.36 505.876 240.72 506.236 241.2 506.356 241.68 506.356 242.16 506.356 242.64 506.236 243 505.876 243.48 505.396 243.6 504.916 243.6 504.436Z" fill="#ffffff" fill-rule="evenodd"/><path transform="matrix(1,0,0,-1,0,595.276)" d="M242.04 504.436C242.04 504.676 241.92 504.796 241.68 504.796 241.56 504.796 241.44 504.676 241.44 504.436 241.44 504.316 241.56 504.196 241.68 504.196 241.92 504.196 242.04 504.316 242.04 504.436ZM241.8 504.436C241.8 504.436 241.8 504.316 241.68 504.316L241.56 504.436C241.56 504.556 241.68 504.676 241.68 504.676 241.8 504.676 241.8 504.556 241.8 504.436Z" fill="#ffffff" fill-rule="evenodd"/><path transform="matrix(1,0,0,-1,0,595.276)" d="M239.28 504.796H237.24C237.24 504.796 237.12 504.796 237 504.796 237 504.676 237 504.676 237 504.556 237 504.556 237 504.436 237 504.316H237.12 237.24 239.28V504.796Z" fill="#ffffff" fill-rule="evenodd"/><path transform="matrix(1,0,0,-1,0,595.276)" d="M240.6 506.716C240.12 506.836 239.52 506.836 238.92 506.476 238.68 506.236 238.44 505.996 238.32 505.756 238.2 505.516 238.08 505.276 238.08 505.036H237.72C237.72 505.276 237.84 505.636 238.08 505.996 238.2 506.356 238.56 506.596 238.92 506.836 239.28 507.076 239.64 507.196 240.12 507.076 240.24 507.076 240.48 507.076 240.6 507.076 240.72 507.076 240.72 506.956 240.84 506.956 240.96 506.956 240.96 506.956 241.08 506.836 240.96 506.836 240.96 506.836 240.84 506.716 240.72 506.716 240.6 506.716 240.6 506.716Z" fill="#ffffff" fill-rule="evenodd"/><path transform="matrix(1,0,0,-1,0,595.276)" d="M242.52 509.356C242.76 509.116 243.12 508.876 243.48 508.876 243.48 508.756 243.48 508.756 243.36 508.636 243.36 508.636 243.36 508.516 243.36 508.396L242.76 506.956 243.12 506.836 243.72 508.276C243.72 508.516 243.84 508.756 244.08 508.876 244.32 509.116 244.56 509.236 244.8 509.356 245.4 509.476 245.88 509.236 246.24 508.876 246.36 508.756 246.48 508.756 246.48 508.876 246.6 508.876 246.6 508.996 246.48 509.116 246.24 509.476 245.76 509.716 245.28 509.716 244.8 509.716 244.32 509.596 243.96 509.356 243.84 509.236 243.6 509.236 243.36 509.236 243.12 509.356 242.88 509.476 242.76 509.596 242.64 509.716 242.4 509.716 242.28 509.716 242.16 509.716 242.04 509.596 241.92 509.476 241.8 509.356 241.8 509.236 241.8 509.116 241.92 508.876 242.04 508.756 242.16 508.756H242.28C242.4 508.756 242.4 508.756 242.4 508.876 242.4 508.876 242.4 508.996 242.28 509.116L242.16 509.236 242.28 509.356H242.4 242.52Z" fill="#ffffff" fill-rule="evenodd"/><path transform="matrix(1,0,0,-1,0,595.276)" d="M239.76 502.996C239.4 502.996 239.16 503.116 238.8 503.356 238.56 503.596 238.32 503.836 238.2 504.196H237.84C237.96 503.716 238.32 503.236 238.68 502.996 239.16 502.636 239.64 502.516 240.12 502.636 240 502.756 239.88 502.876 239.76 502.996Z" fill="#ffffff" fill-rule="evenodd"/><path transform="matrix(1,0,0,-1,0,595.276)" d="M256.44 512.236H244.32V511.396H240.72V512.836H256.44 256.56V512.716C256.68 512.716 256.68 512.596 256.68 512.596 256.68 512.476 256.68 512.356 256.56 512.356V512.236H256.44Z" fill="#ffffff" fill-rule="evenodd"/><path transform="matrix(1,0,0,-1,0,595.276)" stroke-width=".12" stroke-linecap="round" stroke-linejoin="round" fill="none" stroke="#0000ff" d="M259.68 507.556C259.68 510.676 258.48 513.796 256.2 516.076 253.92 518.356 250.8 519.676 247.56 519.676 244.32 519.676 241.32 518.356 239.04 516.076 236.76 513.796 235.44 510.676 235.44 507.556 235.44 504.316 236.76 501.196 239.04 498.916 241.32 496.636 244.32 495.316 247.56 495.316 250.8 495.316 253.92 496.636 256.2 498.916 258.48 501.196 259.68 504.316 259.68 507.556"/></g></svg>