<?xml version='1.0' encoding='UTF-8'?>
<svg xmlns="http://www.w3.org/2000/svg" xmlns:xlink="http://www.w3.org/1999/xlink" xmlns:inkscape="http://www.inkscape.org/namespaces/inkscape" version="1.1" width="567.000" height="269.280" viewBox="0 0 567.000 269.280"><g transform="scale(10.0) translate(-220.305, -370.368)"><defs><clipPath id="clip_2"><path transform="matrix(1,0,0,-1,0,595.276)" d="M74.4 .196H767.4V595.276H74.4Z"/></clipPath></defs><path transform="matrix(.12,0,0,.12,0,0)" stroke-width="1" stroke-linecap="butt" stroke-dasharray="47,24" stroke-linejoin="round" fill="none" stroke="#000000" d="M2052 3135C2052 3119 2039 3106 2023 3106 2007 3106 1994 3119 1994 3135 1994 3150 2007 3163 2023 3163 2039 3163 2052 3150 2052 3135"/><path transform="matrix(.12,0,0,.12,0,0)" stroke-width="1" stroke-linecap="butt" stroke-dasharray="47,24" stroke-linejoin="round" fill="none" stroke="#000000" d="M2052 3199C2052 3183 2039 3170 2023 3170 2007 3170 1994 3183 1994 3199 1994 3215 2007 3228 2023 3228 2039 3228 2052 3215 2052 3199"/><path transform="matrix(.12,0,0,.12,0,0)" stroke-width="1" stroke-linecap="butt" stroke-dasharray="47,24" stroke-linejoin="round" fill="none" stroke="#000000" d="M2052 3264C2052 3248 2039 3235 2023 3235 2007 3235 1994 3248 1994 3264 1994 3279 2007 3292 2023 3292 2039 3292 2052 3279 2052 3264"/><path transform="matrix(.12,0,0,.12,0,0)" stroke-width="1" stroke-linecap="butt" stroke-dasharray="47,24" stroke-linejoin="round" fill="none" stroke="#000000" d="M2059 3099H1987"/><path transform="matrix(1,0,0,-1,0,595.276)" stroke-width=".12" stroke-linecap="butt" stroke-miterlimit="10" stroke-linejoin="miter" fill="none" stroke="#000000" d="M248.5 207.5V199.5"/><path transform="matrix(.12,0,0,.12,0,0)" stroke-width="1" stroke-linecap="butt" stroke-dasharray="47,24" stroke-linejoin="round" fill="none" stroke="#000000" d="M2059 3099V3299"/><path transform="matrix(.12,0,0,.12,0,0)" stroke-width="1" stroke-linecap="butt" stroke-dasharray="47,24" stroke-linejoin="round" fill="none" stroke="#000000" d="M1987 3099V3299"/><path transform="matrix(1,0,0,-1,0,595.276)" stroke-width=".12" stroke-linecap="butt" stroke-miterlimit="10" stroke-linejoin="miter" fill="none" stroke="#000000" d="M248.5 207.5H256.5"/><path transform="matrix(1,0,0,-1,0,595.276)" stroke-width=".12" stroke-linecap="butt" stroke-miterlimit="10" stroke-linejoin="miter" fill="none" stroke="#000000" d="M256.5 207.5V199.5"/><path transform="matrix(.12,0,0,.12,0,0)" stroke-width="1" stroke-linecap="butt" stroke-dasharray="47,24" stroke-linejoin="round" fill="none" stroke="#000000" d="M2059 3299H1987"/><path transform="matrix(1,0,0,-1,0,595.276)" stroke-width=".12" stroke-linecap="butt" stroke-miterlimit="10" stroke-linejoin="miter" fill="none" stroke="#000000" d="M248.5 199.5H256.5"/><path transform="matrix(1,0,0,-1,0,595.276)" d="M256.2 199.396H256.08V199.276C256.2 199.276 256.2 199.276 256.2 199.396Z" fill-rule="evenodd"/><path transform="matrix(1,0,0,-1,0,595.276)" stroke-width=".12" stroke-linecap="round" stroke-linejoin="round" fill="none" stroke="#000000" d="M252.12 199.876C254.04 199.876 255.6 201.436 255.6 203.356 255.6 205.276 254.04 206.836 252.12 206.836 250.2 206.836 248.64 205.276 248.64 203.356 248.64 201.436 250.2 199.876 252.12 199.876"/><path transform="matrix(1,0,0,-1,0,595.276)" d="M254.52 202.276 252.12 204.676 249.72 202.276V203.716L252.12 206.116 254.52 203.716Z" fill="#00ff00" fill-rule="evenodd"/><path transform="matrix(1,0,0,-1,0,595.276)" d="M252.72 200.716V203.716H251.64V200.716Z" fill="#00ff00" fill-rule="evenodd"/></g></svg>