<?xml version='1.0' encoding='UTF-8'?>
<svg xmlns="http://www.w3.org/2000/svg" xmlns:xlink="http://www.w3.org/1999/xlink" xmlns:inkscape="http://www.inkscape.org/namespaces/inkscape" version="1.1" width="566.700" height="269.280" viewBox="0 0 566.700 269.280"><g transform="scale(10.0) translate(-383.985, -74.160)"><path transform="matrix(1,0,0,-1,0,595.276)" d="M436.92 518.116H387.72C387.12 518.116 386.4 517.876 385.92 517.396 385.44 516.916 385.2 516.196 385.2 515.596V499.276C385.2 499.036 385.2 498.676 385.32 498.436 385.44 498.076 385.68 497.836 385.92 497.476 386.16 497.236 386.52 497.116 386.76 496.996 387.12 496.876 387.36 496.756 387.72 496.756H436.92C437.52 496.756 438.12 496.996 438.6 497.476 439.08 498.076 439.32 498.676 439.32 499.276V515.596C439.32 517.036 438.24 518.116 436.92 518.116Z" fill="#ffffff" fill-rule="evenodd"/><path transform="matrix(1,0,0,-1,0,595.276)" d="M436.92 516.916H387.72C387.6 516.916 387.36 516.916 387.24 516.796 387.12 516.796 386.88 516.676 386.76 516.556 386.64 516.436 386.64 516.316 386.52 516.076 386.52 515.956 386.4 515.836 386.4 515.596V499.276C386.4 499.036 386.52 498.676 386.76 498.436 387.12 498.196 387.36 498.076 387.72 498.076H436.92C437.16 498.076 437.52 498.196 437.76 498.436 437.88 498.556 438 498.676 438 498.796 438.12 499.036 438.12 499.156 438.12 499.276V515.596C438.12 515.956 438 516.316 437.76 516.556 437.52 516.796 437.16 516.916 436.92 516.916Z" fill="#0000ff" fill-rule="evenodd"/><path transform="matrix(1,0,0,-1,0,595.276)" d="M430.44 512.956C430.44 512.356 430.92 511.996 431.52 511.996 432.12 511.996 432.6 512.356 432.6 512.956 432.6 513.556 432.12 514.036 431.52 514.036 430.92 514.036 430.44 513.556 430.44 512.956Z" fill="#ffffff" fill-rule="evenodd"/><path transform="matrix(1,0,0,-1,0,595.276)" d="M430.2 500.956H429.36L429.48 503.836 430.68 507.076 430.56 509.116 430.08 508.636 428.52 507.316 428.16 507.916 429.48 509.116 429.84 510.316C429.96 510.676 430.2 510.916 430.56 511.156 430.92 511.396 431.28 511.516 431.64 511.516 432 511.516 432.36 511.516 432.72 511.276 432.96 511.156 433.32 510.916 433.44 510.556L434.04 509.716 434.52 506.956 433.92 506.596 433.2 509.356 432.72 509.716 434.28 504.196 435.48 502.156 434.88 501.436 432.6 504.556 432 506.116 430.68 503.836 430.2 500.956Z" fill="#ffffff" fill-rule="evenodd"/><path transform="matrix(1,0,0,-1,0,595.276)" d="M419.4 506.356H423.12L423.6 511.996C423.6 512.116 423.6 512.236 423.48 512.356 423.48 512.476 423.36 512.596 423.24 512.716 423 512.956 422.76 513.076 422.52 513.076 422.16 513.076 421.92 512.956 421.68 512.716 421.44 512.476 421.44 512.236 421.44 511.996 421.44 511.636 421.56 511.396 421.8 511.156 421.92 511.036 422.04 511.036 422.16 510.916 422.4 510.916 422.52 510.916 422.64 510.916L422.52 508.876H419.76V508.036H422.4V507.316H418.8L417.24 504.076 416.28 504.556 416.04 503.956 417.84 503.116 419.4 506.356Z" fill="#ffffff" fill-rule="evenodd"/><path transform="matrix(1,0,0,-1,0,595.276)" d="M423.72 507.436C424.32 506.956 424.8 506.116 424.68 505.036 424.56 504.076 423.84 503.356 423.24 502.996 422.52 502.636 421.56 502.636 420.6 503.236 420.24 503.476 419.88 503.836 419.76 504.196 419.52 504.676 419.4 505.036 419.4 505.396L418.8 503.956C419.04 503.596 419.28 503.116 419.76 502.756 420.12 502.396 420.72 502.036 421.32 501.916 421.92 501.796 422.52 501.796 423.12 502.036 423.6 502.156 424.08 502.396 424.44 502.756 424.8 503.116 425.16 503.476 425.4 504.076 425.52 504.556 425.64 505.156 425.64 505.756 425.52 506.356 425.28 506.956 424.92 507.436 424.68 507.916 424.2 508.276 423.84 508.516L423.72 507.436Z" fill="#ffffff" fill-rule="evenodd"/><path transform="matrix(1,0,0,-1,0,595.276)" d="M405.36 500.476C407.64 500.476 409.8 501.196 411.36 502.516 412.92 503.836 413.76 505.636 413.76 507.436 413.76 509.356 412.92 511.156 411.36 512.356 409.8 513.676 407.64 514.396 405.36 514.396 403.2 514.396 401.04 513.676 399.48 512.356 397.92 511.156 396.96 509.356 396.96 507.436 396.96 505.636 397.92 503.836 399.48 502.516 401.04 501.196 403.2 500.476 405.36 500.476Z" fill="#ff0000" fill-rule="evenodd"/><path transform="matrix(1,0,0,-1,0,595.276)" stroke-width=".12" stroke-linecap="butt" stroke-miterlimit="10" stroke-linejoin="miter" fill="none" stroke="#ffffff" d="M409.5 503.5V503.5"/><path transform="matrix(1,0,0,-1,0,595.276)" stroke-width=".12" stroke-linecap="butt" stroke-miterlimit="10" stroke-linejoin="miter" fill="none" stroke="#ffffff" d="M402.5 503.5V503.5"/><path transform="matrix(1,0,0,-1,0,595.276)" stroke-width=".12" stroke-linecap="butt" stroke-miterlimit="10" stroke-linejoin="miter" fill="none" stroke="#ffffff" d="M401.5 503.5V503.5"/><path transform="matrix(1,0,0,-1,0,595.276)" stroke-width=".12" stroke-linecap="butt" stroke-miterlimit="10" stroke-linejoin="miter" fill="none" stroke="#ffffff" d="M401.5 511.5V511.5"/><path transform="matrix(1,0,0,-1,0,595.276)" stroke-width=".12" stroke-linecap="butt" stroke-miterlimit="10" stroke-linejoin="miter" fill="none" stroke="#ffffff" d="M401.5 511.5V511.5"/><path transform="matrix(1,0,0,-1,0,595.276)" stroke-width=".12" stroke-linecap="butt" stroke-miterlimit="10" stroke-linejoin="miter" fill="none" stroke="#ffffff" d="M401.5 511.5V511.5"/><path transform="matrix(1,0,0,-1,0,595.276)" stroke-width=".12" stroke-linecap="butt" stroke-miterlimit="10" stroke-linejoin="miter" fill="none" stroke="#ffffff" d="M402.5 511.5V511.5"/><path transform="matrix(1,0,0,-1,0,595.276)" stroke-width=".12" stroke-linecap="butt" stroke-miterlimit="10" stroke-linejoin="miter" fill="none" stroke="#ffffff" d="M402.5 511.5V511.5"/><path transform="matrix(1,0,0,-1,0,595.276)" stroke-width=".12" stroke-linecap="butt" stroke-miterlimit="10" stroke-linejoin="miter" fill="none" stroke="#ffffff" d="M402.5 511.5V511.5"/><path transform="matrix(1,0,0,-1,0,595.276)" stroke-width=".12" stroke-linecap="butt" stroke-miterlimit="10" stroke-linejoin="miter" fill="none" stroke="#ffffff" d="M409.5 511.5V511.5"/><path transform="matrix(1,0,0,-1,0,595.276)" d="M409.56 503.116V503.116C409.56 503.956 409.2 504.916 408.48 505.636 408.12 505.996 407.76 506.236 407.4 506.476 407.16 506.596 406.92 506.716 406.68 506.716 406.56 506.836 406.44 506.836 406.32 506.836 406.2 506.836 406.2 506.836 406.08 506.836V508.036C406.92 508.156 407.76 508.636 408.48 509.356 409.2 510.076 409.56 511.036 409.56 511.876H408.12C408 510.676 407.16 509.716 406.08 509.476V512.116H404.76V509.476C404.16 509.596 403.68 509.956 403.32 510.316 402.84 510.796 402.72 511.396 402.6 511.876H401.16C401.28 511.036 401.52 510.076 402.24 509.356 402.96 508.636 403.8 508.156 404.76 508.036V506.836C403.8 506.716 402.96 506.356 402.24 505.636 401.88 505.276 401.64 504.796 401.52 504.436 401.28 503.956 401.16 503.476 401.16 503.116H402.6C402.72 503.596 402.84 504.196 403.32 504.676 403.68 505.156 404.16 505.396 404.76 505.516V502.756H406.08V505.516C407.16 505.276 408 504.316 408.12 503.116H409.56ZM404.76 509.476V509.476ZM404.76 506.836V506.836Z" fill="#ffffff" fill-rule="evenodd"/><path transform="matrix(1,0,0,-1,0,595.276)" d="M393 500.956H390.84V509.716L388.68 507.436V510.796L391.92 514.036 395.16 510.796V507.436L393 509.716Z" fill="#ffffff" fill-rule="evenodd"/><path transform="matrix(1,0,0,-1,0,595.276)" stroke-width=".12" stroke-linecap="round" stroke-linejoin="round" fill="none" stroke="#0000ff" d="M436.92 518.116C438.24 518.116 439.32 517.036 439.32 515.596V499.276C439.32 497.956 438.24 496.756 436.92 496.756H387.72C386.28 496.756 385.2 497.956 385.2 499.276V515.596C385.2 517.036 386.28 518.116 387.72 518.116H436.92"/></g></svg>