<?xml version='1.0' encoding='UTF-8'?>
<svg xmlns="http://www.w3.org/2000/svg" xmlns:xlink="http://www.w3.org/1999/xlink" xmlns:inkscape="http://www.inkscape.org/namespaces/inkscape" version="1.1" width="567.000" height="269.280" viewBox="0 0 567.000 269.280"><g transform="scale(10.0) translate(-438.573, -397.296)"><defs><clipPath id="clip_2"><path transform="matrix(1,0,0,-1,0,595.276)" d="M74.4 .196H767.4V595.276H74.4Z"/></clipPath></defs><path transform="matrix(1,0,0,-1,0,595.276)" d="M459 172.276C458.88 172.276 458.64 172.396 458.4 172.516 458.28 172.756 458.16 172.996 458.16 173.116V195.796C458.16 196.036 458.28 196.276 458.4 196.396 458.64 196.636 458.88 196.636 459 196.636H474.72C474.96 196.636 475.2 196.636 475.32 196.396 475.44 196.276 475.44 196.156 475.56 196.156 475.56 196.036 475.56 195.916 475.56 195.796V173.116C475.56 172.996 475.56 172.756 475.32 172.516 475.2 172.396 475.2 172.396 475.08 172.396 474.96 172.276 474.84 172.276 474.72 172.276H459Z" fill="#ffffff" fill-rule="evenodd"/><path transform="matrix(1,0,0,-1,0,595.276)" d="M474.72 179.716H459 458.88C458.88 179.716 458.76 179.716 458.76 179.836L458.64 179.956V180.076 195.796C458.64 195.916 458.64 196.036 458.76 196.036 458.76 196.156 458.88 196.156 458.88 196.156 459 196.156 459 196.276 459 196.276H474.72C474.84 196.276 474.96 196.156 475.08 196.036 475.08 196.036 475.2 195.916 475.2 195.796V180.076C475.2 180.076 475.08 179.956 475.08 179.836 474.96 179.716 474.84 179.716 474.72 179.716Z" fill="#0000ff" fill-rule="evenodd"/><path transform="matrix(1,0,0,-1,0,595.276)" d="M464.76 186.676H468.24C469.2 186.676 470.16 187.036 471 187.756 471.72 188.596 472.08 189.676 472.08 190.516 472.08 191.596 471.72 192.556 471 193.396 470.28 194.116 469.2 194.476 468.24 194.476H461.64V181.396H464.76V186.676ZM464.76 188.716V192.436H467.4C467.76 192.436 468.24 192.196 468.48 191.956 468.72 191.836 468.84 191.596 468.84 191.356 468.96 191.236 468.96 190.996 468.96 190.876V190.276C468.96 189.916 468.84 189.556 468.48 189.196 468.24 188.836 467.76 188.716 467.4 188.716H464.76Z" fill="#ffffff" fill-rule="evenodd"/><path transform="matrix(1,0,0,-1,0,595.276)" stroke-width=".12" stroke-linecap="round" stroke-linejoin="round" fill="none" stroke="#000000" d="M459 172.276C458.52 172.276 458.16 172.636 458.16 173.116V195.796C458.16 196.276 458.52 196.636 459 196.636H474.72C475.2 196.636 475.56 196.276 475.56 195.796V173.116C475.56 172.636 475.2 172.276 474.72 172.276H459"/><path transform="matrix(1,0,0,-1,0,595.276)" d="M465.24 174.436 464.88 175.276C464.88 175.396 464.76 175.516 464.64 175.756 464.52 175.876 464.4 175.996 464.28 175.996V175.876C464.28 175.876 464.4 175.756 464.52 175.636 464.52 175.516 464.64 175.516 464.64 175.396 464.76 175.156 464.88 174.916 464.88 174.556 464.76 173.956 464.4 173.596 464.04 173.356 463.68 173.116 463.2 173.116 462.6 173.356 462.12 173.596 461.88 174.196 461.88 174.556 461.88 175.036 462 175.516 462.48 175.876 462.72 175.996 462.96 176.116 463.2 176.116 463.44 176.236 463.68 176.116 463.92 176.116L464.04 176.236C463.8 176.356 463.56 176.356 463.32 176.356H463.2V177.076H463.92C464.04 177.076 464.28 177.196 464.4 177.196 464.64 177.316 464.76 177.436 464.88 177.676L465.36 178.636C465.36 178.756 465.48 178.756 465.48 178.756H465.6V178.636L465.12 177.076C465.12 177.076 465.12 176.956 465.24 176.956 465.24 176.836 465.36 176.836 465.48 176.836 466.44 177.316 467.76 177.076 468.36 176.476V176.716H470.4C470.76 176.716 471 176.476 471 176.116 471.24 175.996 471.48 175.876 471.6 175.516 471.84 175.276 471.96 175.036 471.96 174.676H471.48C471.48 173.956 471.12 173.476 470.4 173.236 470.16 173.116 469.8 173.116 469.44 173.356 469.2 173.476 468.96 173.716 468.72 173.956H465.96C465.72 173.956 465.36 174.076 465.24 174.436ZM465.96 175.996H466.32V176.116H465.6V175.036H465.72C465.84 175.156 465.96 175.276 466.08 175.276H466.32V175.396H465.96V175.636H466.32V175.756H465.96V175.996ZM469.32 175.996V176.116H468.36V175.036H468.6C468.6 175.276 468.6 175.516 468.72 175.636 468.96 175.756 469.08 175.876 469.32 175.996ZM469.8 175.156 469.68 175.516C469.56 175.516 469.44 175.396 469.32 175.276 469.2 175.156 469.2 175.036 469.08 174.916 469.08 174.556 469.2 174.196 469.32 174.076 469.56 173.836 469.92 173.716 470.16 173.716 470.52 173.836 470.76 174.076 470.88 174.316 471 174.556 471 174.916 470.88 175.156 470.64 175.516 470.28 175.636 470.04 175.636L470.16 175.276C470.16 175.156 470.28 175.156 470.4 175.156 470.4 175.036 470.52 175.036 470.52 174.916 470.64 174.796 470.64 174.556 470.52 174.436 470.52 174.316 470.28 174.196 470.16 174.076 469.92 174.076 469.8 174.196 469.68 174.316 469.56 174.436 469.44 174.556 469.44 174.796 469.56 174.916 469.68 175.036 469.8 175.156ZM463.68 175.516C463.32 175.636 463.08 175.636 462.72 175.396 462.48 175.156 462.36 174.916 462.48 174.556 462.48 174.316 462.6 174.076 462.96 173.836 463.2 173.716 463.56 173.716 463.8 173.836 464.04 173.956 464.28 174.196 464.28 174.556 464.28 174.796 464.28 174.916 464.16 175.036 464.16 175.156 464.04 175.276 463.92 175.396L463.8 175.036C463.92 174.916 463.92 174.796 463.92 174.556 463.92 174.316 463.68 174.196 463.56 174.196 463.44 174.076 463.32 174.076 463.08 174.196 462.96 174.316 462.84 174.436 462.84 174.556 462.84 174.796 462.84 174.916 462.96 175.036 463.08 175.156 463.08 175.156 463.2 175.156 463.32 175.276 463.32 175.276 463.44 175.276L463.68 175.516Z" fill-rule="evenodd"/><path transform="matrix(1,0,0,-1,0,595.276)" d="M465.24 174.436V174.436Z" fill-rule="evenodd"/></g></svg>