<?xml version='1.0' encoding='UTF-8'?>
<svg xmlns="http://www.w3.org/2000/svg" xmlns:xlink="http://www.w3.org/1999/xlink" xmlns:inkscape="http://www.inkscape.org/namespaces/inkscape" version="1.1" width="566.700" height="269.280" viewBox="0 0 566.700 269.280"><g transform="scale(10.0) translate(-165.765, -20.304)"><defs><clipPath id="clip_19"><path transform="matrix(0,1,1,0,0,0)" d="M0 19.875H595.008V822.117H0Z"/></clipPath><clipPath id="clip_20"><path transform="matrix(0,1,1,0,0,0)" d="M0 842.013H595.224V.008972168H0Z"/></clipPath></defs><path transform="matrix(0,1,1,0,190.983,25.524)" d="M0 0V-13.986C0-14.166 .018-14.328 .09-14.508 .162-14.688 .27-14.85 .396-14.976 .54-15.12 .702-15.228 .882-15.3 1.044-15.372 1.224-15.39 1.386-15.39H15.372C15.534-15.39 15.714-15.372 15.894-15.3 16.056-15.228 16.236-15.12 16.362-14.976 16.506-14.85 16.614-14.688 16.668-14.508 16.74-14.328 16.776-14.166 16.776-13.986V0C16.776 .162 16.74 .324 16.668 .504 16.614 .684 16.506 .846 16.362 .972 16.236 1.116 16.074 1.224 15.894 1.296 15.714 1.368 15.534 1.386 15.372 1.386H1.386C1.224 1.386 1.044 1.368 .882 1.296 .702 1.224 .54 1.116 .396 .972 .27 .846 .162 .684 .09 .504 .018 .324 0 .162 0 0ZM.45 0C.45 .234 .558 .468 .738 .648 .9 .828 1.152 .918 1.386 .918H15.372C15.48 .918 15.606 .9 15.714 .864 15.84 .81 15.948 .738 16.038 .648 16.218 .468 16.308 .216 16.308 0V-13.986C16.308-14.22 16.218-14.472 16.038-14.652 15.84-14.85 15.606-14.922 15.372-14.922H1.386C1.278-14.922 1.17-14.904 1.044-14.868 .936-14.814 .828-14.742 .738-14.652 .54-14.472 .45-14.22 .45-13.986V0" fill-rule="evenodd"/><path transform="matrix(0,1,1,0,176.997,25.974)" d="M0 0V13.986C0 14.094 .036 14.202 .072 14.328 .126 14.436 .18 14.544 .288 14.634 .378 14.724 .486 14.796 .594 14.85 .72 14.886 .828 14.904 .936 14.904H14.922C15.156 14.904 15.39 14.832 15.588 14.634 15.768 14.454 15.858 14.202 15.858 13.986V0C15.858-.234 15.768-.486 15.588-.666 15.39-.864 15.156-.936 14.922-.936H.936C.702-.936 .45-.846 .288-.666 .108-.486 0-.252 0 0" fill="#e1e1e1" fill-rule="evenodd"/><path transform="matrix(0,1,1,0,184.449,30.636)" d="M0 0V1.404L-3.258 .936V0" fill-rule="evenodd"/><path transform="matrix(0,1,1,0,190.515,31.572)" d="M0 0V-13.068H.936V-12.132C.936-12.024 .972-11.898 1.08-11.79 1.17-11.7 1.296-11.664 1.404-11.664H2.808V-10.728L1.296-10.35C1.188-10.332 1.098-10.278 1.044-10.188 .972-10.098 .936-9.99 .936-9.9V-3.168C.936-3.078 .972-2.97 1.044-2.88 1.098-2.79 1.188-2.736 1.296-2.718L2.808-2.34V-1.404H1.404C1.35-1.404 1.296-1.404 1.224-1.368 1.17-1.35 1.116-1.314 1.08-1.26 1.026-1.224 .99-1.17 .972-1.116 .954-1.062 .936-.99 .936-.936V0H0" fill-rule="evenodd"/><path transform="matrix(0,1,1,0,186.249,33.444)" d="M0 0V-1.8H6.984V.99" fill-rule="evenodd"/><path transform="matrix(0,1,1,0,181.713,33.444)" d="M0 0V1.8H6.984V-.99" fill-rule="evenodd"/><path transform="matrix(0,1,1,0,183.513,30.636)" d="M0 0V-1.404L-3.258-.936V0" fill-rule="evenodd"/><path transform="matrix(0,1,1,0,204.501,42.3)" d="M0 0C-.144 .54-.342 1.098-.576 1.656-.828 2.196-1.116 2.736-1.44 3.258-2.124 4.32-2.988 5.256-4.014 6.048-5.022 6.822-6.156 7.416-7.344 7.812-7.938 8.01-8.532 8.154-9.126 8.244-9.72 8.334-10.296 8.388-10.872 8.388H-16.776V-8.406H-10.872C-10.296-8.406-9.72-8.352-9.126-8.262-8.532-8.172-7.938-8.028-7.344-7.83-6.156-7.434-5.022-6.84-4.014-6.048-2.988-5.274-2.124-4.32-1.44-3.276-1.116-2.754-.828-2.214-.576-1.674-.342-1.116-.144-.558 0 0" fill-rule="evenodd"/><path transform="matrix(0,1,1,0,202.629,31.968)" d="M0 0C-.108 .018-.216 .072-.306 .198-.396 .306-.468 .45-.54 .648-.594 .828-.648 1.062-.684 1.314-.702 1.548-.72 1.818-.72 2.106-.72 2.61-.648 3.096-.486 3.546-.324 3.996-.072 4.41 .252 4.734 .594 5.058 .99 5.31 1.44 5.472 1.89 5.652 2.376 5.724 2.88 5.724H3.15C4.248 5.724 5.202 5.364 5.904 4.716 6.588 4.068 6.966 3.15 6.966 2.124 6.966 .684 6.48-.414 5.508-1.134 4.518-1.872 3.042-2.232 1.098-2.232 .27-2.232-.486-2.142-1.152-1.98-1.818-1.8-2.376-1.53-2.844-1.17-3.294-.828-3.654-.378-3.87 .126-4.104 .648-4.212 1.224-4.212 1.872-4.212 2.646-4.014 3.366-3.618 3.978-3.42 4.284-3.186 4.554-2.898 4.77-2.61 5.004-2.286 5.202-1.926 5.346L-1.026 3.474C-1.746 2.97-2.142 2.358-2.142 1.764-2.124 1.206-1.944 .756-1.566 .45-1.386 .306-1.152 .18-.9 .108-.756 .072-.63 .036-.468 .018-.396 .018-.324 0-.234 0-.162 0-.09 0 0 0ZM1.332 1.908C1.332 1.692 1.368 1.476 1.458 1.26 1.548 1.062 1.674 .864 1.854 .702 2.016 .558 2.232 .432 2.448 .36 2.682 .288 2.916 .252 3.168 .252 3.69 .252 4.14 .414 4.482 .702 4.806 1.008 4.986 1.44 4.986 1.908 4.986 2.124 4.95 2.34 4.86 2.556 4.788 2.754 4.644 2.952 4.482 3.096 4.302 3.258 4.104 3.384 3.87 3.456 3.636 3.528 3.402 3.564 3.168 3.564 2.916 3.564 2.682 3.528 2.448 3.456 2.232 3.384 2.016 3.258 1.854 3.096 1.674 2.952 1.548 2.754 1.458 2.556 1.368 2.34 1.332 2.124 1.332 1.908" fill="#e1e1e1" fill-rule="evenodd"/><path transform="matrix(0,1,1,0,217.551,23.652)" stroke-width=".144" stroke-linecap="round" stroke-linejoin="round" fill="none" stroke="#000000" d="M0 0C-1.026 0-1.872-.846-1.872-1.872"/><path transform="matrix(0,1,1,0,217.551,44.172)" stroke-width=".144" stroke-linecap="round" stroke-linejoin="round" fill="none" stroke="#000000" d="M0 0H-20.52"/><path transform="matrix(0,1,1,0,215.679,46.026)" stroke-width=".144" stroke-linecap="round" stroke-linejoin="round" fill="none" stroke="#000000" d="M0 0C0 1.026-.828 1.872-1.854 1.872"/><path transform="matrix(0,1,1,0,172.785,46.026)" stroke-width=".144" stroke-linecap="round" stroke-linejoin="round" fill="none" stroke="#000000" d="M0 0V42.894"/><path transform="matrix(0,1,1,0,170.931,44.172)" stroke-width=".144" stroke-linecap="round" stroke-linejoin="round" fill="none" stroke="#000000" d="M0 0C1.026 0 1.854 .828 1.854 1.854"/><path transform="matrix(0,1,1,0,170.931,23.652)" stroke-width=".144" stroke-linecap="round" stroke-linejoin="round" fill="none" stroke="#000000" d="M0 0H20.52"/><path transform="matrix(0,1,1,0,172.785,21.78)" stroke-width=".144" stroke-linecap="round" stroke-linejoin="round" fill="none" stroke="#000000" d="M0 0C0-1.026 .846-1.854 1.872-1.854"/><path transform="matrix(0,1,1,0,215.679,21.78)" stroke-width=".144" stroke-linecap="round" stroke-linejoin="round" fill="none" stroke="#000000" d="M0 0V-42.894"/></g></svg>