<?xml version='1.0' encoding='UTF-8'?>
<svg xmlns="http://www.w3.org/2000/svg" xmlns:xlink="http://www.w3.org/1999/xlink" xmlns:inkscape="http://www.inkscape.org/namespaces/inkscape" version="1.1" width="566.700" height="269.280" viewBox="0 0 566.700 269.280"><g transform="scale(10.0) translate(-56.655, -20.304)"><path transform="matrix(1,0,0,-1,0,595.276)" d="M72.84 573.676H97.2C97.92 573.676 98.64 573.436 99.24 572.836 99.84 572.236 100.08 571.516 100.08 570.796V551.836C100.08 551.116 99.84 550.396 99.24 549.796 98.64 549.196 97.92 548.956 97.2 548.956H72.84C72.12 548.956 71.4 549.196 70.8 549.796 70.2 550.396 69.96 551.116 69.96 551.836V570.796C69.96 571.156 70.08 571.516 70.2 571.876 70.32 572.236 70.56 572.596 70.8 572.836 71.4 573.436 72.12 573.676 72.84 573.676Z" fill="#00ff00" fill-rule="evenodd"/><path transform="matrix(1,0,0,-1,0,595.276)" d="M85.68 550.876C86.88 551.236 87.96 551.956 88.8 553.036 89.64 554.116 90 555.316 90 556.636V559.636H81.24V556.636C81.24 555.316 81.6 554.116 82.44 553.036 83.28 551.956 84.48 551.236 85.68 550.876Z" fill="#ffff00" fill-rule="evenodd"/><path transform="matrix(1,0,0,-1,0,595.276)" d="M86.4 558.316V552.796H85.2V556.756H84.36V557.716C84.72 557.716 84.96 557.836 85.08 557.836 85.2 557.956 85.32 558.076 85.32 558.316H86.4Z" fill-rule="evenodd"/><path transform="matrix(1,0,0,-1,0,595.276)" stroke-width=".12" stroke-linecap="butt" stroke-miterlimit="10" stroke-linejoin="miter" fill="none" stroke="#ffffff" d="M94.5 556.5V556.5"/><path transform="matrix(1,0,0,-1,0,595.276)" d="M94.32 556.276V556.276C94.2 556.276 94.08 556.276 93.84 556.396 93.6 556.516 93.36 556.756 93.36 557.116 93.36 557.356 93.6 557.716 93.84 557.956 94.08 558.196 94.44 558.196 94.8 558.196 95.4 558.196 96.12 557.956 96.72 557.356L97.8 558.076C96.84 559.036 95.88 559.396 94.8 559.396 94.08 559.396 93.36 559.276 92.76 558.796 92.28 558.316 92.04 557.716 92.04 557.116 92.04 556.396 92.28 555.796 92.76 555.436 93 555.316 93.12 555.196 93.36 555.196 93.84 554.956 94.32 554.956 94.8 554.836H94.92C95.52 554.716 96.12 554.596 96.48 554.116 96.6 553.876 96.6 553.396 96.48 553.156 96.36 552.556 95.64 552.436 95.04 552.556 94.2 552.556 93.48 552.796 92.76 553.636L91.68 552.676C92.04 552.436 92.4 552.196 92.64 551.956 93.36 551.596 94.08 551.236 94.92 551.236 95.76 551.236 96.72 551.476 97.2 551.956 97.44 552.196 97.56 552.436 97.68 552.676 97.8 552.796 97.8 553.036 97.92 553.156 97.92 553.276 97.92 553.276 97.92 553.396V553.516 553.636 553.756C97.92 553.876 97.92 553.876 97.92 553.996 97.92 553.996 97.92 554.116 97.92 554.236 97.8 554.596 97.56 555.076 97.32 555.316 97.08 555.556 96.96 555.556 96.72 555.676 96.6 555.796 96.36 555.796 96.12 555.796L94.32 556.276Z" fill="#ffffff" fill-rule="evenodd"/><path transform="matrix(1,0,0,-1,0,595.276)" d="M75.48 559.396V558.436H71.88V557.716H75.48V556.996H72.36V551.356H73.2V556.156H78.6V552.676 552.436 552.196H78.36L78.12 552.076H77.52L77.88 551.236 78.48 551.356H78.96L79.32 551.596 79.44 551.956V552.436 556.996H76.32V557.716H79.92V558.436H76.32V558.916L76.44 559.036V559.156H76.32L76.08 559.276Z" fill="#ffffff" fill-rule="evenodd"/><path transform="matrix(1,0,0,-1,0,595.276)" d="M74.64 556.156 74.04 555.676 74.52 555.316 74.76 554.836H73.8V554.236H75.6V553.516H73.68V552.796H75.48V551.596H76.32V552.796H78.12V553.516H76.32V554.236H78V554.836H77.04L77.4 555.316 77.76 555.676 77.04 556.156 76.56 555.556 76.32 554.836H75.12L75.48 555.076 75.12 555.676Z" fill="#ffffff" fill-rule="evenodd"/><path transform="matrix(1,0,0,-1,0,595.276)" d="M89.16 562.996C89.16 563.476 88.8 563.836 88.32 563.836 87.84 563.836 87.48 563.476 87.48 562.996 87.48 562.516 87.84 562.156 88.32 562.156 88.8 562.156 89.16 562.516 89.16 562.996Z" fill="#ffffff" fill-rule="evenodd"/><path transform="matrix(1,0,0,-1,0,595.276)" stroke-width=".12" stroke-linecap="butt" stroke-miterlimit="10" stroke-linejoin="miter" fill="none" stroke="#ffffff" d="M83.5 566.5V566.5"/><path transform="matrix(1,0,0,-1,0,595.276)" d="M83.52 566.236H82.32V567.436H83.28 83.4 83.52C84 567.676 84.36 568.156 84.12 568.756 84 569.236 83.52 569.596 82.92 569.716 82.56 569.716 82.08 569.596 81.72 569.236 81.36 568.876 81.24 568.516 81.24 568.156L79.68 568.396C79.68 568.996 80.04 569.716 80.64 570.196 81.24 570.796 82.08 571.036 82.92 571.036 84.12 571.036 85.2 570.316 85.68 569.236 85.92 568.396 85.44 567.316 84.72 566.836 85.68 566.116 86.04 565.036 85.68 563.956 85.2 562.876 84.12 562.156 82.92 562.156 82.08 562.156 81.24 562.396 80.64 562.996 80.04 563.476 79.68 564.196 79.8 564.796L81.24 565.036C81.12 564.316 81.84 563.596 82.68 563.476 83.04 563.476 83.4 563.596 83.76 563.836 84.12 564.076 84.24 564.436 84.24 564.796 84.36 565.036 84.24 565.396 84.12 565.756 83.88 565.996 83.64 566.116 83.52 566.236Z" fill="#ffffff" fill-rule="evenodd"/><path transform="matrix(1,0,0,-1,0,595.276)" d="M81.24 568.156V568.156Z" fill="#ffffff" fill-rule="evenodd"/><path transform="matrix(1,0,0,-1,0,595.276)" d="M81.24 565.036V565.036Z" fill="#ffffff" fill-rule="evenodd"/><path transform="matrix(1,0,0,-1,0,595.276)" d="M73.68 567.916H72.24V568.516C72.36 569.116 72.6 569.836 73.2 570.316 73.8 570.796 74.52 571.036 75.12 571.036 75.6 571.036 75.96 570.916 76.44 570.676 76.92 570.556 77.28 570.196 77.64 569.836 77.88 569.356 78.12 568.876 78.12 568.396 78.12 567.916 78 567.556 77.88 567.196 77.28 565.996 76.08 564.556 74.64 563.596H78V562.276H72.36V563.596C73.44 564.196 74.4 564.916 75.24 565.876 75.96 566.716 76.44 567.556 76.56 568.276 76.56 569.116 75.96 569.716 75.12 569.716 74.76 569.716 74.4 569.596 74.16 569.236 73.8 568.996 73.68 568.636 73.68 568.276V567.916Z" fill="#ffffff" fill-rule="evenodd"/><path transform="matrix(1,0,0,-1,0,595.276)" stroke-width=".12" stroke-linecap="butt" stroke-miterlimit="10" stroke-linejoin="miter" fill="none" stroke="#ffffff" d="M91.5 566.5V566.5"/><path transform="matrix(1,0,0,-1,0,595.276)" stroke-width=".12" stroke-linecap="butt" stroke-miterlimit="10" stroke-linejoin="miter" fill="none" stroke="#ffffff" d="M91.5 566.5V566.5"/><path transform="matrix(1,0,0,-1,0,595.276)" stroke-width=".12" stroke-linecap="butt" stroke-miterlimit="10" stroke-linejoin="miter" fill="none" stroke="#ffffff" d="M91.5 566.5V566.5"/><path transform="matrix(1,0,0,-1,0,595.276)" stroke-width=".12" stroke-linecap="butt" stroke-miterlimit="10" stroke-linejoin="miter" fill="none" stroke="#ffffff" d="M91.5 566.5V566.5"/><path transform="matrix(1,0,0,-1,0,595.276)" stroke-width=".12" stroke-linecap="butt" stroke-linejoin="round" fill="none" stroke="#ffffff" d="M91.08 566.596V566.596"/><path transform="matrix(1,0,0,-1,0,595.276)" stroke-width=".12" stroke-linecap="butt" stroke-miterlimit="10" stroke-linejoin="miter" fill="none" stroke="#ffffff" d="M91.5 566.5V566.5"/><path transform="matrix(1,0,0,-1,0,595.276)" d="M91.08 566.596V566.596C91.08 565.276 91.32 564.076 91.92 563.356 92.52 562.516 93.36 562.156 94.32 562.156 96.36 562.156 97.56 563.836 97.56 566.596 97.56 567.916 97.32 568.996 96.72 569.836 96.12 570.676 95.28 571.036 94.32 571.036 93.36 571.036 92.52 570.676 91.92 569.836 91.32 568.996 91.08 567.916 91.08 566.596ZM91.08 566.596V566.596ZM94.32 563.476C93.72 563.476 93.24 563.836 93 564.316 92.64 564.916 92.52 565.636 92.52 566.596 92.52 568.516 93.12 569.596 94.32 569.596 95.4 569.596 96.12 568.516 96.12 566.596 96.12 565.636 96 564.916 95.64 564.316 95.28 563.836 94.8 563.476 94.32 563.476Z" fill="#ffffff" fill-rule="evenodd"/></g></svg>