<?xml version='1.0' encoding='UTF-8'?>
<svg xmlns="http://www.w3.org/2000/svg" xmlns:xlink="http://www.w3.org/1999/xlink" xmlns:inkscape="http://www.inkscape.org/namespaces/inkscape" version="1.1" width="566.700" height="269.280" viewBox="0 0 566.700 269.280"><g transform="scale(10.0) translate(-165.765, -370.368)"><defs><clipPath id="clip_19"><path transform="matrix(0,1,1,0,0,0)" d="M0 19.875H595.008V822.117H0Z"/></clipPath><clipPath id="clip_20"><path transform="matrix(0,1,1,0,0,0)" d="M0 842.013H595.224V.008972168H0Z"/></clipPath></defs><path transform="matrix(0,1,1,0,207.741,393.21)" d="M0 0-20.664-11.934C-20.916-12.078-21.15-12.312-21.33-12.6-21.492-12.888-21.564-13.194-21.564-13.5-21.564-13.806-21.492-14.13-21.33-14.418-21.15-14.706-20.916-14.922-20.664-15.084L0-27C.558-27.342 1.26-27.342 1.818-27 2.088-26.856 2.322-26.622 2.484-26.334 2.664-26.046 2.736-25.74 2.736-25.434V-1.584C2.736-.918 2.394-.324 1.818 0 1.26 .324 .558 .324 0 0" fill="#ff0000" fill-rule="evenodd"/><path transform="matrix(0,1,1,0,205.113,393.516)" d="M0 0-18.846-10.872 0-21.744" fill="#ffffff" fill-rule="evenodd"/><path transform="matrix(0,1,1,0,0,0)" d="M389.664 193.827H393.102V194.637H389.664Z"/><path transform="matrix(0,1,1,0,0,0)" d="M388.296 193.017H389.50199V195.44699H388.296Z" fill="#ff0000"/><path transform="matrix(0,1,1,0,0,0)" d="M389.664 191.001H393.102V191.811H389.664Z"/><path transform="matrix(0,1,1,0,0,0)" d="M388.296 190.191H389.50199V192.62099H388.296Z" fill="#ff0000"/><path transform="matrix(0,1,1,0,0,0)" d="M389.664 188.157H393.102V188.967H389.664Z"/><path transform="matrix(0,1,1,0,0,0)" d="M388.296 187.347H389.50199V189.777H388.296Z" fill="#ff0000"/><path transform="matrix(0,1,1,0,0,0)" d="M389.664 199.497H393.102V200.30699H389.664Z"/><path transform="matrix(0,1,1,0,0,0)" d="M388.296 198.687H389.50199V201.11699H388.296Z" fill="#ff0000"/><path transform="matrix(0,1,1,0,197.067,385.83)" d="M0 0 1.206 1.224H2.43L1.62 .414H7.272V-.396H1.62L2.43-1.206H1.206" fill-rule="evenodd"/></g></svg>