<?xml version='1.0' encoding='UTF-8'?>
<svg xmlns="http://www.w3.org/2000/svg" xmlns:xlink="http://www.w3.org/1999/xlink" xmlns:inkscape="http://www.inkscape.org/namespaces/inkscape" version="1.1" width="566.700" height="269.280" viewBox="0 0 566.700 269.280"><g transform="scale(10.0) translate(-383.985, -74.160)"><defs><clipPath id="clip_19"><path transform="matrix(0,1,1,0,0,0)" d="M0 19.875H595.008V822.117H0Z"/></clipPath><clipPath id="clip_20"><path transform="matrix(0,1,1,0,0,0)" d="M0 842.013H595.224V.008972168H0Z"/></clipPath></defs><path transform="matrix(0,1,1,0,400.341,75.366)" d="M0 0V24.3C0 24.642 .054 25.02 .198 25.38 .342 25.74 .558 26.064 .846 26.352 1.134 26.64 1.476 26.856 1.836 27 2.196 27.144 2.556 27.216 2.898 27.216H21.888C22.23 27.216 22.608 27.144 22.968 27 23.328 26.856 23.652 26.64 23.94 26.352 24.228 26.064 24.444 25.74 24.588 25.38 24.732 25.02 24.804 24.642 24.804 24.3V0C24.804-.342 24.732-.702 24.588-1.062 24.444-1.44 24.228-1.764 23.94-2.052 23.652-2.34 23.328-2.556 22.968-2.7 22.608-2.844 22.23-2.898 21.888-2.898H2.898C2.124-2.898 1.386-2.592 .846-2.052 .306-1.512 0-.774 0 0" fill="#00ff00" fill-rule="evenodd"/><path transform="matrix(0,1,1,0,402.537,81.054)" d="M0 0V-1.476H-.576C-.882-1.44-1.224-1.35-1.548-1.188-1.872-1.044-2.16-.81-2.412-.522-2.664-.234-2.862 .09-2.988 .45-3.114 .792-3.168 1.152-3.168 1.494-3.168 1.71-3.15 1.926-3.096 2.16-3.06 2.394-2.988 2.628-2.88 2.862-2.772 3.078-2.628 3.312-2.466 3.51-2.304 3.708-2.106 3.906-1.908 4.05-1.692 4.212-1.458 4.32-1.224 4.41-.99 4.5-.756 4.536-.504 4.554-.27 4.572-.054 4.554 .162 4.518 .378 4.464 .576 4.41 .756 4.32H.774L.792 4.302C1.422 3.996 2.088 3.528 2.718 2.952 3.366 2.358 3.978 1.674 4.518 .918V4.446H5.85V-1.386H4.518C4.194-.846 3.834-.306 3.438 .198 3.042 .702 2.61 1.152 2.16 1.548 1.728 1.944 1.278 2.268 .846 2.52 .414 2.754 .018 2.898-.342 2.97-.522 2.97-.702 2.952-.882 2.88-1.062 2.79-1.242 2.682-1.386 2.538-1.53 2.394-1.638 2.214-1.71 2.034-1.782 1.854-1.818 1.674-1.818 1.494-1.818 1.314-1.782 1.134-1.71 .936-1.638 .756-1.53 .594-1.386 .45-1.242 .288-1.062 .18-.882 .108-.702 .036-.522 0-.342 0H0" fill="#ffffff" fill-rule="evenodd"/><path transform="matrix(0,1,1,0,413.427,84.312)" d="M0 0C-.162 .018-.324 .018-.486-.018-.666-.054-.828-.108-.972-.198-1.134-.288-1.242-.378-1.314-.504-1.404-.612-1.44-.72-1.44-.828V-1.962H-2.7V-.99C-2.7-.972-2.718-.936-2.718-.918-2.718-.882-2.736-.864-2.736-.828-2.844-.576-3.042-.342-3.294-.198-3.546-.054-3.816-.036-4.068-.09-4.32-.162-4.554-.324-4.734-.558-4.914-.792-5.004-1.098-5.022-1.404-5.04-1.602-5.022-1.818-4.95-2.052-4.896-2.268-4.77-2.484-4.608-2.664-4.446-2.844-4.266-2.988-4.05-3.06-3.852-3.132-3.654-3.168-3.456-3.15L-3.726-4.662C-4.032-4.68-4.356-4.626-4.698-4.464-5.022-4.302-5.328-4.068-5.598-3.744-5.868-3.42-6.066-3.042-6.21-2.628-6.282-2.43-6.336-2.214-6.354-2.016-6.39-1.8-6.408-1.602-6.426-1.404-6.426-.792-6.246-.198-5.94 .306-5.616 .81-5.148 1.188-4.626 1.386-4.158 1.512-3.672 1.494-3.222 1.314-2.772 1.152-2.394 .828-2.142 .432-1.782 .918-1.314 1.278-.774 1.44-.234 1.62 .342 1.602 .882 1.404 1.404 1.206 1.872 .828 2.196 .324 2.52-.18 2.7-.792 2.682-1.404 2.682-1.602 2.664-1.8 2.628-1.998 2.592-2.214 2.556-2.412 2.484-2.628 2.34-3.024 2.142-3.42 1.872-3.744 1.602-4.068 1.296-4.302 .954-4.464 .63-4.608 .306-4.662 0-4.662L-.27-3.132C-.108-3.15 .09-3.132 .27-3.078 .45-3.006 .63-2.898 .792-2.754 .936-2.628 1.062-2.448 1.152-2.25 1.242-2.07 1.278-1.872 1.296-1.692 1.332-1.278 1.206-.864 .972-.54 .72-.216 .378-.036 0 0" fill="#ffffff" fill-rule="evenodd"/><path transform="matrix(0,1,1,0,418.485,86.022)" d="M0 0C-.234 0-.45-.09-.612-.252-.792-.414-.882-.648-.882-.882-.882-1.116-.792-1.332-.612-1.494-.45-1.674-.234-1.764 0-1.764 .234-1.764 .468-1.674 .63-1.494 .792-1.332 .882-1.116 .882-.882 .882-.648 .792-.414 .63-.252 .468-.09 .234 0 0 0" fill="#ffffff" fill-rule="evenodd"/><path transform="matrix(0,1,1,0,423.129,86.904)" d="M0 0H-8.928V-1.26H-8.46C-8.244-1.278-8.01-1.386-7.83-1.584-7.65-1.8-7.56-2.07-7.542-2.322V-2.952H-6.372V-1.422H0V0" fill="#ffffff" fill-rule="evenodd"/><path transform="matrix(0,1,1,0,413.139,98.172)" d="M0 0C-.072 .288-.162 .576-.288 .864-.414 1.152-.576 1.44-.756 1.71-1.098 2.25-1.566 2.754-2.088 3.15-2.628 3.564-3.222 3.888-3.834 4.086-4.14 4.194-4.464 4.266-4.77 4.32-5.076 4.356-5.382 4.392-5.688 4.392H-8.784V-4.41H-5.688C-5.382-4.41-5.076-4.374-4.77-4.338-4.464-4.284-4.14-4.212-3.834-4.104-3.222-3.906-2.628-3.582-2.088-3.168-1.566-2.772-1.098-2.268-.756-1.728-.576-1.44-.414-1.17-.288-.882-.162-.594-.072-.306 0 0" fill="#ffff00" fill-rule="evenodd"/><path transform="matrix(0,1,1,0,424.209,91.728)" d="M0 0-.792 1.08C-1.692 .108-2.088-.81-2.088-1.89-2.088-2.61-1.908-3.42-1.422-3.96-.99-4.428-.36-4.716 .288-4.698 .9-4.698 1.53-4.428 1.872-3.96 2.016-3.78 2.106-3.564 2.178-3.348 2.358-2.88 2.43-2.412 2.52-1.89 2.538-1.782 2.538-1.674 2.556-1.566 2.646-1.044 2.772-.522 3.168-.288 3.474-.09 3.924-.072 4.23-.198 4.752-.414 4.86-1.062 4.824-1.674 4.788-2.502 4.536-3.276 3.708-3.942L4.608-5.022C4.914-4.716 5.166-4.392 5.382-4.032 5.796-3.366 6.048-2.61 6.066-1.764 6.066-.954 5.832-.054 5.328 .486 5.13 .702 4.896 .864 4.626 .99 4.482 1.062 4.338 1.098 4.194 1.152 4.104 1.17 4.032 1.188 3.942 1.206 3.906 1.206 3.852 1.224 3.816 1.224 3.798 1.242 3.78 1.242 3.744 1.242H3.726C3.708 1.242 3.69 1.242 3.69 1.26L3.708 1.242C3.492 1.26 3.312 1.242 3.114 1.188 2.7 1.098 2.286 .864 1.98 .54 1.836 .378 1.728 .198 1.638 0 1.566-.18 1.512-.36 1.494-.558L1.116-2.394C1.098-2.556 1.044-2.7 .954-2.844 .81-3.078 .558-3.312 .288-3.348-.036-3.384-.378-3.15-.576-2.916-.594-2.898-.594-2.898-.594-2.88-.828-2.61-.882-2.322-.864-1.98-.81-1.368-.576-.54 0 0" fill="#ffffff" fill-rule="evenodd"/><path transform="matrix(0,1,1,0,402.951,89.658)" d="M0 0H.954V-3.546H1.692V0H2.448V-3.096H8.1V-2.232H3.222V3.15H7.002L7.164 3.078 7.272 2.916 7.344 2.682V2.106L8.172 2.448 8.118 2.97 8.01 3.456 7.794 3.798 7.434 3.978 6.984 3.996H2.412V.882H1.656V4.464H.936V.864H.504L.378 .99 .288 1.008 .198 .9 .144 .666" fill="#ffffff" fill-rule="evenodd"/><path transform="matrix(0,1,1,0,402.141,92.934)" d="M0 0 .432-.576 .828-.198 1.314 .09V-.9H1.926V.882H2.664V-1.026H3.402V.864H4.59V1.656H3.402V3.51H2.664V1.674H1.926V3.348H1.278V2.412L.792 2.718 .414 3.06 0 2.358 .612 1.944 1.296 1.62V.468L1.044 .846 .45 .45" fill="#ffffff" fill-rule="evenodd"/><path transform="matrix(0,1,1,0,413.031,96.426)" d="M0 0C0 1.332-.594 2.052-1.692 2.052-2.322 2.052-2.772 1.872-3.006 1.512-3.312 1.818-3.708 1.98-4.14 1.98-4.662 1.98-5.094 1.8-5.4 1.44-5.706 1.062-5.85 .54-5.85-.108-5.85-.396-5.814-.684-5.724-.936-5.652-1.206-5.526-1.44-5.364-1.62-5.202-1.818-5.004-1.962-4.788-2.07-4.572-2.16-4.338-2.214-4.086-2.214L-3.996-1.062C-4.194-1.062-4.374-.972-4.518-.81-4.662-.63-4.752-.396-4.77-.144-4.788-.054-4.77 .054-4.752 .144-4.662 .594-4.428 .81-4.122 .81-3.816 .774-3.6 .63-3.51 .36V-.414H-2.502V.342C-2.502 .432-2.448 .576-2.322 .684-2.178 .792-2.034 .846-1.926 .846-1.458 .864-1.188 .576-1.152 .036-1.152-.288-1.224-.576-1.35-.756-1.494-.954-1.71-1.062-1.926-1.062L-1.782-2.25C-1.224-2.232-.792-2.034-.468-1.638-.162-1.242 0-.684 0 0" fill-rule="evenodd"/></g></svg>