<?xml version='1.0' encoding='UTF-8'?>
<svg xmlns="http://www.w3.org/2000/svg" xmlns:xlink="http://www.w3.org/1999/xlink" xmlns:inkscape="http://www.inkscape.org/namespaces/inkscape" version="1.1" width="567.000" height="269.280" viewBox="0 0 567.000 269.280"><g transform="scale(10.0) translate(-220.305, -154.944)"><defs><clipPath id="clip_2"><path transform="matrix(1,0,0,-1,0,595.276)" d="M74.4 .196H767.4V595.276H74.4Z"/></clipPath></defs><path transform="matrix(1,0,0,-1,0,595.276)" d="M267.84 439.396H229.44C229.32 439.396 229.08 439.396 228.84 439.276 228.6 439.156 228.36 439.036 228.12 438.796 228 438.676 227.88 438.436 227.76 438.196 227.64 437.956 227.64 437.716 227.64 437.476V415.996C227.64 415.516 227.76 415.036 228.12 414.676 228.36 414.436 228.6 414.316 228.84 414.196 229.08 414.196 229.32 414.076 229.44 414.076H267.84C268.32 414.076 268.8 414.316 269.28 414.676 269.4 414.796 269.52 415.036 269.64 415.276 269.76 415.516 269.76 415.756 269.76 415.996V437.476C269.76 437.956 269.64 438.436 269.28 438.796 268.8 439.276 268.32 439.396 267.84 439.396Z" fill="#ffffff" fill-rule="evenodd"/><path transform="matrix(1,0,0,-1,0,595.276)" d="M267.84 438.436H229.44C229.44 438.436 229.32 438.436 229.2 438.436 229.08 438.316 228.96 438.316 228.84 438.196 228.72 438.076 228.72 437.956 228.6 437.836 228.6 437.716 228.6 437.596 228.6 437.476V415.996C228.6 415.756 228.6 415.516 228.84 415.276 228.96 415.276 229.08 415.156 229.2 415.156 229.32 415.036 229.44 415.036 229.44 415.036H267.84C268.08 415.036 268.32 415.156 268.56 415.276 268.8 415.516 268.8 415.756 268.8 415.996V437.476C268.8 438.076 268.44 438.436 267.84 438.436Z" fill="#0000ff" fill-rule="evenodd"/><path transform="matrix(1,0,0,-1,0,595.276)" d="M239.88 437.116H238.56V416.356H239.88Z" fill="#ffffff" fill-rule="evenodd"/><path transform="matrix(1,0,0,-1,0,595.276)" d="M241.44 420.796 241.8 424.276C241.8 424.396 241.92 424.396 241.92 424.516 242.04 424.636 242.16 424.636 242.28 424.636H255.48C255.6 424.636 255.84 424.516 256.08 424.396 256.2 424.156 256.32 424.036 256.32 423.796V418.756L253.2 418.156H252.48V418.276C252.48 418.516 252.36 418.876 252.24 418.996 252 419.236 251.64 419.356 251.4 419.356 251.16 419.356 250.92 419.236 250.68 418.996 250.44 418.876 250.32 418.516 250.32 418.276V418.156H246.36V418.276C246.36 418.516 246.24 418.876 246.12 418.996 245.88 419.236 245.52 419.356 245.28 419.356 245.04 419.356 244.8 419.236 244.56 418.996 244.32 418.876 244.32 418.516 244.32 418.276V418.156H241.56C241.44 418.156 241.32 418.156 241.2 418.276L241.08 418.396V418.516 419.476 419.596 419.716L241.44 420.796ZM253.8 422.956H255.84V423.796C255.84 423.916 255.84 424.036 255.72 424.036 255.6 424.156 255.6 424.156 255.48 424.156H253.8V422.956ZM253.32 422.956V424.156H251.4V422.956H253.32ZM249.12 422.956H251.04V424.156H249.12V422.956ZM246.84 422.956H248.64V424.156H246.84V422.956ZM244.44 422.956H246.36V424.156H244.44V422.956ZM242.16 422.956H244.08V424.156H242.28L242.16 422.956ZM241.68 420.676H242.4V421.636H241.8L241.68 420.676ZM242.76 418.516H244.08V421.636H242.76V418.516ZM244.44 420.436H246.36V421.636H244.44V420.436ZM246.84 421.636V420.436H248.64V421.636H246.84ZM249.12 421.636V420.436H251.04V421.636H249.12ZM251.4 421.636V420.436H253.32V421.636H251.4ZM253.8 421.636V420.436H255.84V421.636H253.8Z" fill="#ffffff" fill-rule="evenodd"/><path transform="matrix(1,0,0,-1,0,595.276)" d="M252.24 418.276C252.24 418.756 251.88 419.116 251.4 419.116 250.92 419.116 250.56 418.756 250.56 418.276 250.56 417.796 250.92 417.436 251.4 417.436 251.88 417.436 252.24 417.796 252.24 418.276ZM251.88 418.276C251.88 418.036 251.64 417.916 251.4 417.916 251.16 417.916 251.04 418.036 251.04 418.276 251.04 418.516 251.16 418.756 251.4 418.756 251.64 418.756 251.88 418.516 251.88 418.276Z" fill="#ffffff" fill-rule="evenodd"/><path transform="matrix(1,0,0,-1,0,595.276)" d="M246.12 418.276C246.12 418.756 245.76 419.116 245.28 419.116 244.8 419.116 244.44 418.756 244.44 418.276 244.44 417.796 244.8 417.436 245.28 417.436 245.76 417.436 246.12 417.796 246.12 418.276ZM245.76 418.276C245.76 418.036 245.52 417.916 245.28 417.916 245.04 417.916 244.92 418.036 244.92 418.276 244.92 418.516 245.04 418.756 245.28 418.756 245.52 418.756 245.76 418.516 245.76 418.276Z" fill="#ffffff" fill-rule="evenodd"/><path transform="matrix(1,0,0,-1,0,595.276)" d="M246.12 433.756 248.64 436.276 251.28 433.756V431.236L249.48 432.916V426.076H247.8V432.916L246.12 431.236Z" fill="#ffffff" fill-rule="evenodd"/><path transform="matrix(1,0,0,-1,0,595.276)" d="M257.52 437.116H258.84V416.356H257.52Z" fill="#ffffff" fill-rule="evenodd"/><path transform="matrix(1,0,0,-1,0,595.276)" d="M265.44 433.036 267.48 430.996 265.44 428.836H263.28L264.72 430.276H263.64C263.16 430.276 262.56 430.036 262.2 429.676 261.72 429.196 261.48 428.716 261.48 428.116V420.436H260.16V428.116C260.16 428.596 260.16 428.956 260.4 429.436 260.52 429.916 260.76 430.276 261.12 430.636 261.48 430.996 261.96 431.236 262.32 431.476 262.8 431.596 263.28 431.716 263.64 431.716H264.72L263.28 433.036H265.44Z" fill="#ffffff" fill-rule="evenodd"/><path transform="matrix(1,0,0,-1,0,595.276)" d="M231.96 433.036 229.92 430.996 231.96 428.836H234.12L232.68 430.276H233.76C234 430.276 234.24 430.276 234.48 430.156 234.84 430.036 235.08 429.796 235.2 429.676 235.44 429.436 235.56 429.196 235.68 428.956 235.8 428.716 235.8 428.356 235.8 428.116V420.436H237.24V428.116C237.24 428.956 237 429.916 236.28 430.636 235.56 431.356 234.6 431.716 233.76 431.716H232.68L234.12 433.036H231.96Z" fill="#ffffff" fill-rule="evenodd"/><path transform="matrix(1,0,0,-1,0,595.276)" stroke-width=".12" stroke-linecap="round" stroke-linejoin="round" fill="none" stroke="#0000ff" d="M269.76 415.996V437.476C269.76 438.556 268.92 439.396 267.84 439.396H229.44C228.48 439.396 227.64 438.556 227.64 437.476V415.996C227.64 414.916 228.48 414.076 229.44 414.076H267.84C268.92 414.076 269.76 414.916 269.76 415.996"/></g></svg>