<?xml version='1.0' encoding='UTF-8'?>
<svg xmlns="http://www.w3.org/2000/svg" xmlns:xlink="http://www.w3.org/1999/xlink" xmlns:inkscape="http://www.inkscape.org/namespaces/inkscape" version="1.1" width="566.700" height="269.280" viewBox="0 0 566.700 269.280"><g transform="scale(10.0) translate(-165.765, -451.152)"><path transform="matrix(1,0,0,-1,0,595.276)" d="M207.96 142.996C208.68 142.996 209.52 142.756 210.12 142.156 210.72 141.556 210.96 140.836 210.96 140.116V121.156C210.96 120.436 210.72 119.716 210.12 119.116 209.52 118.516 208.68 118.276 207.96 118.276H180.24C179.52 118.276 178.68 118.516 178.08 119.116 177.6 119.716 177.24 120.436 177.24 121.156V140.116C177.24 140.836 177.6 141.556 178.08 142.156 178.44 142.396 178.8 142.636 179.16 142.756 179.52 142.996 179.88 142.996 180.24 142.996H207.96Z" fill="#00ff00" fill-rule="evenodd"/><path transform="matrix(1,0,0,-1,0,595.276)" d="M198.24 132.316C198.24 132.796 197.88 133.156 197.4 133.156 196.92 133.156 196.56 132.796 196.56 132.316 196.56 131.836 196.92 131.476 197.4 131.476 197.88 131.476 198.24 131.836 198.24 132.316Z" fill="#ffffff" fill-rule="evenodd"/><path transform="matrix(1,0,0,-1,0,595.276)" stroke-width=".12" stroke-linecap="butt" stroke-miterlimit="10" stroke-linejoin="miter" fill="none" stroke="#ffffff" d="M190.5 137.5V137.5"/><path transform="matrix(1,0,0,-1,0,595.276)" stroke-width=".12" stroke-linecap="butt" stroke-miterlimit="10" stroke-linejoin="miter" fill="none" stroke="#ffffff" d="M192.5 135.5V135.5"/><path transform="matrix(1,0,0,-1,0,595.276)" d="M192.6 135.436H191.4V136.756H192.36 192.48 192.6C193.08 136.996 193.44 137.476 193.32 138.076 193.08 138.556 192.6 138.916 192 138.916 191.64 139.036 191.16 138.916 190.8 138.556 190.44 138.196 190.32 137.836 190.32 137.476L188.88 137.716C188.76 138.316 189.12 139.036 189.72 139.516 190.32 140.116 191.16 140.356 192 140.356 193.2 140.356 194.28 139.636 194.76 138.556 195 137.596 194.64 136.636 193.8 136.156 194.76 135.436 195.12 134.236 194.76 133.276 194.28 132.196 193.2 131.476 192 131.476 191.28 131.476 190.32 131.716 189.72 132.316 189.12 132.796 188.76 133.516 188.88 134.116L190.32 134.356C190.2 133.516 190.92 132.916 191.76 132.796 192.12 132.796 192.48 132.916 192.84 133.156 193.2 133.396 193.32 133.756 193.32 134.116 193.44 134.356 193.32 134.716 193.2 135.076 192.96 135.316 192.72 135.436 192.6 135.436Z" fill="#ffffff" fill-rule="evenodd"/><path transform="matrix(1,0,0,-1,0,595.276)" d="M190.32 134.356V134.356Z" fill="#ffffff" fill-rule="evenodd"/><path transform="matrix(1,0,0,-1,0,595.276)" d="M182.76 137.236H181.32V137.836C181.44 138.436 181.68 139.036 182.28 139.636 182.88 140.116 183.6 140.356 184.2 140.356 184.68 140.356 185.16 140.236 185.52 139.996 186 139.876 186.36 139.516 186.72 139.156 186.96 138.676 187.2 138.196 187.2 137.716 187.2 137.236 187.08 136.876 186.96 136.516 186.36 135.196 185.16 133.876 183.72 132.916H187.08V131.596H181.44V132.916C181.92 133.156 182.52 133.516 183 133.876 183.48 134.356 183.96 134.716 184.32 135.196 185.04 136.036 185.52 136.876 185.64 137.596 185.64 137.956 185.52 138.316 185.28 138.556 184.92 138.916 184.56 139.036 184.2 139.036 183.84 139.036 183.48 138.916 183.24 138.556 183.12 138.436 183 138.316 182.88 138.076 182.76 137.956 182.76 137.716 182.76 137.596V137.236Z" fill="#ffffff" fill-rule="evenodd"/><path transform="matrix(1,0,0,-1,0,595.276)" stroke-width=".12" stroke-linecap="butt" stroke-miterlimit="10" stroke-linejoin="miter" fill="none" stroke="#ffffff" d="M200.5 135.5V135.5"/><path transform="matrix(1,0,0,-1,0,595.276)" stroke-width=".12" stroke-linecap="butt" stroke-miterlimit="10" stroke-linejoin="miter" fill="none" stroke="#ffffff" d="M200.5 135.5V135.5"/><path transform="matrix(1,0,0,-1,0,595.276)" stroke-width=".12" stroke-linecap="butt" stroke-miterlimit="10" stroke-linejoin="miter" fill="none" stroke="#ffffff" d="M200.5 135.5V135.5"/><path transform="matrix(1,0,0,-1,0,595.276)" stroke-width=".12" stroke-linecap="butt" stroke-miterlimit="10" stroke-linejoin="miter" fill="none" stroke="#ffffff" d="M200.5 135.5V135.5"/><path transform="matrix(1,0,0,-1,0,595.276)" stroke-width=".12" stroke-linecap="butt" stroke-miterlimit="10" stroke-linejoin="miter" fill="none" stroke="#ffffff" d="M200.5 135.5V135.5"/><path transform="matrix(1,0,0,-1,0,595.276)" stroke-width=".12" stroke-linecap="butt" stroke-miterlimit="10" stroke-linejoin="miter" fill="none" stroke="#ffffff" d="M200.5 135.5V135.5"/><path transform="matrix(1,0,0,-1,0,595.276)" stroke-width=".12" stroke-linecap="butt" stroke-miterlimit="10" stroke-linejoin="miter" fill="none" stroke="#ffffff" d="M200.5 135.5V135.5"/><path transform="matrix(1,0,0,-1,0,595.276)" stroke-width=".12" stroke-linecap="butt" stroke-miterlimit="10" stroke-linejoin="miter" fill="none" stroke="#ffffff" d="M200.5 135.5V135.5"/><path transform="matrix(1,0,0,-1,0,595.276)" d="M200.16 135.916V135.916C200.16 133.156 201.36 131.476 203.4 131.476 204.36 131.476 205.2 131.836 205.8 132.676 206.4 133.396 206.64 134.596 206.64 135.916 206.64 138.676 205.44 140.356 203.4 140.356 202.44 140.356 201.6 139.996 201 139.156 200.4 138.316 200.16 137.236 200.16 135.916ZM200.16 135.916V135.916ZM203.4 132.796C203.16 132.796 202.92 132.916 202.68 133.036 202.44 133.156 202.2 133.396 202.08 133.636 201.72 134.236 201.6 134.956 201.6 135.916 201.6 137.836 202.2 138.916 203.4 138.916 204 138.916 204.36 138.676 204.72 138.196 205.08 137.596 205.2 136.756 205.2 135.916 205.2 133.996 204.6 132.796 203.4 132.796Z" fill="#ffffff" fill-rule="evenodd"/><path transform="matrix(1,0,0,-1,0,595.276)" d="M202.56 120.796 200.88 128.116H202.2L203.28 122.716 204.6 128.116H206.04L207.24 122.716 208.32 128.116H209.64L207.96 120.796H206.52L205.32 126.196 204.12 120.796H204Z" fill="#ffffff" fill-rule="evenodd"/><path transform="matrix(1,0,0,-1,0,595.276)" d="M186.36 126.316H183.96V127.516H186.72V128.356H178.8V127.516H181.56V126.316H179.28V120.676H180V121.156H185.52V120.796H186.36V126.316ZM182.4 127.516H183.12V126.316H182.4V127.516ZM183.96 125.596H185.52V124.276L185.04 124.636H184.92L184.68 124.036 184.44 123.676H184.2L184.08 123.796 183.96 124.036V125.596ZM180 125.596H181.44V124.876L181.32 124.396 181.08 123.916 180.84 123.556 180.48 123.316 180 123.076V125.596ZM180 121.996V123.076L180.48 122.836 180.72 122.476H180.84L181.2 122.836 181.68 123.316 181.92 123.796 182.16 124.396 182.28 124.876V125.596H183.12V123.676L183.24 123.316 183.36 123.196 183.48 123.076 183.84 122.956H184.56L185.04 123.076 185.28 123.436 185.52 123.796V124.036 121.996H180Z" fill="#ffffff" fill-rule="evenodd"/><path transform="matrix(1,0,0,-1,0,595.276)" d="M194.16 120.316C195.84 120.676 197.52 121.516 198.84 122.716 199.2 123.076 199.56 123.556 199.68 124.036 199.92 124.516 200.04 124.996 200.04 125.476V129.076H188.16V125.476C188.16 124.996 188.28 124.516 188.52 124.036 188.64 123.556 189 123.076 189.36 122.716 190.68 121.516 192.36 120.676 194.16 120.316Z" fill="#ffff00" fill-rule="evenodd"/><path transform="matrix(1,0,0,-1,0,595.276)" d="M198.12 125.476C198.12 126.436 197.88 127.276 197.52 127.756 197.16 128.236 196.56 128.476 195.72 128.476 194.88 128.476 194.28 128.236 193.92 127.756 193.56 127.276 193.32 126.436 193.32 125.476 193.32 124.516 193.56 123.796 193.92 123.316 194.28 122.836 194.88 122.596 195.72 122.596 196.56 122.596 197.16 122.836 197.52 123.316 197.88 123.796 198.12 124.516 198.12 125.476ZM196.92 125.476C196.92 124.276 196.56 123.676 195.72 123.676 194.88 123.676 194.52 124.276 194.52 125.476 194.52 126.796 194.88 127.396 195.72 127.396 196.56 127.396 196.92 126.796 196.92 125.476Z" fill-rule="evenodd"/><path transform="matrix(1,0,0,-1,0,595.276)" d="M192 128.236V122.836H190.8V126.676H189.96V127.756C190.32 127.756 190.56 127.756 190.68 127.876 190.8 127.876 190.92 128.116 190.92 128.236H192Z" fill-rule="evenodd"/></g></svg>