<?xml version='1.0' encoding='UTF-8'?>
<svg xmlns="http://www.w3.org/2000/svg" xmlns:xlink="http://www.w3.org/1999/xlink" xmlns:inkscape="http://www.inkscape.org/namespaces/inkscape" version="1.1" width="566.700" height="269.280" viewBox="0 0 566.700 269.280"><g transform="scale(10.0) translate(-165.765, -316.512)"><path transform="matrix(1,0,0,-1,0,595.276)" d="M181.92 277.756H206.28C207 277.756 207.72 277.516 208.32 276.916 208.92 276.316 209.16 275.596 209.16 274.876V255.916C209.16 255.196 208.92 254.476 208.32 253.876 207.72 253.276 207 253.036 206.28 253.036H181.92C181.2 253.036 180.48 253.276 179.88 253.876 179.28 254.476 179.04 255.196 179.04 255.916V274.876C179.04 275.236 179.16 275.596 179.28 275.956 179.4 276.316 179.64 276.676 179.88 276.916 180.48 277.516 181.2 277.756 181.92 277.756Z" fill="#00ff00" fill-rule="evenodd"/><path transform="matrix(1,0,0,-1,0,595.276)" d="M198.24 267.076C198.24 267.556 197.88 267.916 197.4 267.916 196.92 267.916 196.56 267.556 196.56 267.076 196.56 266.596 196.92 266.236 197.4 266.236 197.88 266.236 198.24 266.596 198.24 267.076Z" fill="#ffffff" fill-rule="evenodd"/><path transform="matrix(1,0,0,-1,0,595.276)" stroke-width=".12" stroke-linecap="butt" stroke-miterlimit="10" stroke-linejoin="miter" fill="none" stroke="#ffffff" d="M192.5 270.5V270.5"/><path transform="matrix(1,0,0,-1,0,595.276)" d="M192.6 270.196H191.4V271.516H192.36 192.48 192.6C193.08 271.756 193.44 272.236 193.32 272.836 193.08 273.316 192.6 273.676 192 273.676 191.64 273.796 191.16 273.676 190.8 273.316 190.44 272.956 190.32 272.596 190.32 272.236L188.88 272.476C188.76 273.076 189.12 273.796 189.72 274.276 190.32 274.876 191.16 275.116 192 275.116 193.2 275.116 194.28 274.396 194.76 273.316 195 272.356 194.64 271.396 193.8 270.916 194.76 270.196 195.12 268.996 194.76 268.036 194.28 266.956 193.2 266.236 192 266.236 191.28 266.236 190.32 266.476 189.72 267.076 189.12 267.556 188.76 268.276 188.88 268.876L190.32 269.116C190.2 268.396 190.92 267.676 191.76 267.556 192.12 267.556 192.48 267.676 192.84 267.916 193.2 268.156 193.32 268.516 193.32 268.876 193.44 269.116 193.32 269.476 193.2 269.836 192.96 270.076 192.72 270.196 192.6 270.196Z" fill="#ffffff" fill-rule="evenodd"/><path transform="matrix(1,0,0,-1,0,595.276)" d="M190.32 272.236V272.236Z" fill="#ffffff" fill-rule="evenodd"/><path transform="matrix(1,0,0,-1,0,595.276)" d="M190.32 269.116V269.116Z" fill="#ffffff" fill-rule="evenodd"/><path transform="matrix(1,0,0,-1,0,595.276)" d="M182.76 271.996H181.32V272.596C181.44 273.196 181.68 273.916 182.28 274.396 182.88 274.876 183.6 275.116 184.2 275.116 184.68 275.116 185.16 274.996 185.52 274.756 186 274.636 186.36 274.276 186.72 273.916 186.96 273.436 187.2 272.956 187.2 272.476 187.2 271.996 187.08 271.636 186.96 271.276 186.36 269.956 185.16 268.636 183.72 267.676H187.08V266.356H181.44V267.676C182.52 268.276 183.48 268.996 184.32 269.956 185.04 270.796 185.52 271.636 185.64 272.356 185.64 273.076 185.04 273.796 184.2 273.796 183.84 273.796 183.48 273.676 183.24 273.316 182.88 273.076 182.76 272.716 182.76 272.356V271.996Z" fill="#ffffff" fill-rule="evenodd"/><path transform="matrix(1,0,0,-1,0,595.276)" stroke-width=".12" stroke-linecap="butt" stroke-miterlimit="10" stroke-linejoin="miter" fill="none" stroke="#ffffff" d="M200.5 270.5V270.5"/><path transform="matrix(1,0,0,-1,0,595.276)" stroke-width=".12" stroke-linecap="butt" stroke-miterlimit="10" stroke-linejoin="miter" fill="none" stroke="#ffffff" d="M200.5 270.5V270.5"/><path transform="matrix(1,0,0,-1,0,595.276)" stroke-width=".12" stroke-linecap="butt" stroke-miterlimit="10" stroke-linejoin="miter" fill="none" stroke="#ffffff" d="M200.5 270.5V270.5"/><path transform="matrix(1,0,0,-1,0,595.276)" stroke-width=".12" stroke-linecap="butt" stroke-miterlimit="10" stroke-linejoin="miter" fill="none" stroke="#ffffff" d="M200.5 270.5V270.5"/><path transform="matrix(1,0,0,-1,0,595.276)" stroke-width=".12" stroke-linecap="butt" stroke-linejoin="round" fill="none" stroke="#ffffff" d="M200.16 270.676V270.676"/><path transform="matrix(1,0,0,-1,0,595.276)" stroke-width=".12" stroke-linecap="butt" stroke-miterlimit="10" stroke-linejoin="miter" fill="none" stroke="#ffffff" d="M200.5 270.5V270.5"/><path transform="matrix(1,0,0,-1,0,595.276)" d="M200.16 270.676V270.676C200.16 269.356 200.4 268.156 201 267.436 201.6 266.596 202.44 266.236 203.4 266.236 205.44 266.236 206.64 267.916 206.64 270.676 206.64 271.996 206.4 273.076 205.8 273.916 205.2 274.756 204.36 275.116 203.4 275.116 202.44 275.116 201.6 274.756 201 273.916 200.4 273.076 200.16 271.996 200.16 270.676ZM200.16 270.676V270.676ZM203.4 267.556C202.8 267.556 202.32 267.796 202.08 268.396 201.72 268.996 201.6 269.716 201.6 270.676 201.6 272.596 202.2 273.676 203.4 273.676 204.6 273.676 205.2 272.596 205.2 270.676 205.2 269.716 205.08 268.996 204.72 268.396 204.36 267.796 204 267.556 203.4 267.556Z" fill="#ffffff" fill-rule="evenodd"/><path transform="matrix(1,0,0,-1,0,595.276)" d="M203.16 259.876C203.64 260.116 203.88 260.356 204 260.716 204.12 260.836 204.12 261.076 204.12 261.316 204.12 261.916 203.76 262.516 203.4 262.996 202.92 263.476 202.2 263.596 201.36 263.596H198.48V255.556H201.72C202.32 255.556 203.16 255.676 203.76 256.156 204.24 256.636 204.48 257.356 204.6 258.076 204.6 258.436 204.48 258.676 204.36 259.036 204.24 259.396 203.76 259.756 203.16 259.876ZM199.92 260.356V262.396H201.72C201.96 262.396 202.2 262.276 202.44 262.036 202.68 261.796 202.8 261.556 202.8 261.316 202.8 260.716 202.32 260.356 201.72 260.356H199.92ZM201.72 256.756V256.756H199.92V259.276H201.72C202.56 259.276 203.16 258.676 203.16 258.076 203.16 257.356 202.56 256.756 201.72 256.756Z" fill="#ffffff" fill-rule="evenodd"/><path transform="matrix(1,0,0,-1,0,595.276)" d="M188.88 255.076C190.08 255.436 191.16 256.156 192 257.236 192.84 258.316 193.2 259.636 193.2 260.836V263.836H184.44V260.836C184.44 259.636 184.8 258.316 185.64 257.236 186.48 256.156 187.68 255.436 188.88 255.076Z" fill="#ffff00" fill-rule="evenodd"/><path transform="matrix(1,0,0,-1,0,595.276)" d="M187.08 258.076C187.32 257.236 188.04 256.876 188.88 256.876 189.48 256.876 190.08 257.116 190.44 257.596 190.8 258.076 191.04 258.796 191.04 259.636 191.04 261.676 190.2 262.756 188.76 262.756 188.16 262.756 187.68 262.516 187.32 262.156 186.96 261.796 186.84 261.196 186.84 260.716V260.596C186.84 259.396 187.56 258.676 188.76 258.676 189 258.676 189.24 258.676 189.48 258.796 189.72 258.796 189.84 258.916 189.84 259.036 189.84 258.916 189.84 258.676 189.72 258.556 189.72 258.436 189.72 258.316 189.6 258.196 189.48 258.076 189.24 257.956 188.88 257.956 188.76 257.956 188.64 257.956 188.4 258.076 188.28 258.196 188.16 258.316 188.04 258.556L187.08 258.076ZM188.88 261.676C189.12 261.676 189.24 261.556 189.48 261.436 189.6 261.196 189.72 260.956 189.72 260.716 189.72 260.476 189.6 260.236 189.48 259.996 189.24 259.876 189.12 259.756 188.88 259.756 188.64 259.756 188.4 259.876 188.16 259.996 188.04 260.236 187.92 260.476 187.92 260.716 187.92 261.316 188.28 261.676 188.88 261.676Z" fill-rule="evenodd"/></g></svg>