<?xml version='1.0' encoding='UTF-8'?>
<svg xmlns="http://www.w3.org/2000/svg" xmlns:xlink="http://www.w3.org/1999/xlink" xmlns:inkscape="http://www.inkscape.org/namespaces/inkscape" version="1.1" width="566.700" height="269.280" viewBox="0 0 566.700 269.280"><g transform="scale(10.0) translate(-165.765, -343.440)"><path transform="matrix(1,0,0,-1,0,595.276)" d="M181.92 250.876H206.28C207 250.876 207.72 250.636 208.32 250.036 208.92 249.436 209.16 248.716 209.16 247.996V228.916C209.16 228.316 208.92 227.476 208.32 226.876 207.72 226.276 207 226.036 206.28 226.036H181.92C181.2 226.036 180.48 226.276 179.88 226.876 179.28 227.476 179.04 228.316 179.04 228.916V247.996C179.04 248.356 179.16 248.716 179.28 249.076 179.4 249.436 179.64 249.676 179.88 250.036 180.48 250.636 181.2 250.876 181.92 250.876Z" fill="#0000ff" fill-rule="evenodd"/><path transform="matrix(1,0,0,-1,0,595.276)" d="M198.24 240.196C198.24 240.676 197.88 241.036 197.4 241.036 196.92 241.036 196.56 240.676 196.56 240.196 196.56 239.716 196.92 239.356 197.4 239.356 197.88 239.356 198.24 239.716 198.24 240.196Z" fill="#ffffff" fill-rule="evenodd"/><path transform="matrix(1,0,0,-1,0,595.276)" stroke-width=".12" stroke-linecap="butt" stroke-miterlimit="10" stroke-linejoin="miter" fill="none" stroke="#ffffff" d="M192.5 243.5V243.5"/><path transform="matrix(1,0,0,-1,0,595.276)" d="M192.6 243.316H191.4V244.516H192.36 192.48C192.48 244.516 192.48 244.636 192.6 244.636 193.08 244.876 193.44 245.356 193.32 245.836 193.08 246.436 192.6 246.796 192 246.796 191.64 246.796 191.16 246.796 190.8 246.436 190.44 246.076 190.32 245.716 190.32 245.236L188.88 245.596C188.76 246.196 189.12 246.796 189.72 247.396 190.32 247.876 191.16 248.116 192 248.116 193.2 248.236 194.28 247.516 194.76 246.436 195 245.476 194.64 244.516 193.8 244.036 194.76 243.316 195.12 242.116 194.76 241.036 194.28 239.956 193.2 239.356 192 239.356 191.28 239.356 190.32 239.596 189.72 240.076 189.12 240.676 188.76 241.276 188.88 241.996L190.32 242.236C190.2 241.396 190.92 240.796 191.76 240.676 192.12 240.676 192.48 240.676 192.84 241.036 193.2 241.276 193.32 241.636 193.32 241.996 193.44 242.236 193.32 242.596 193.2 242.836 192.96 243.196 192.72 243.316 192.6 243.316Z" fill="#ffffff" fill-rule="evenodd"/><path transform="matrix(1,0,0,-1,0,595.276)" d="M190.32 245.236V245.236Z" fill="#ffffff" fill-rule="evenodd"/><path transform="matrix(1,0,0,-1,0,595.276)" d="M190.32 242.236V242.236Z" fill="#ffffff" fill-rule="evenodd"/><path transform="matrix(1,0,0,-1,0,595.276)" d="M182.76 245.116H181.32V245.596C181.44 246.316 181.68 246.916 182.28 247.396 182.88 247.996 183.6 248.116 184.2 248.116 184.68 248.116 185.16 248.116 185.52 247.876 186 247.636 186.36 247.396 186.72 246.916 186.96 246.556 187.2 246.076 187.2 245.596 187.2 245.116 187.08 244.756 186.96 244.396V244.276C186.36 243.076 185.16 241.756 183.72 240.676H187.08V239.356H181.44V240.676C182.52 241.276 183.48 242.116 184.32 242.956 185.04 243.916 185.52 244.756 185.64 245.476 185.64 246.196 185.04 246.916 184.2 246.916 183.84 246.916 183.48 246.676 183.24 246.436 182.88 246.196 182.76 245.716 182.76 245.476V245.116Z" fill="#ffffff" fill-rule="evenodd"/><path transform="matrix(1,0,0,-1,0,595.276)" stroke-width=".12" stroke-linecap="butt" stroke-miterlimit="10" stroke-linejoin="miter" fill="none" stroke="#ffffff" d="M200.5 243.5V243.5"/><path transform="matrix(1,0,0,-1,0,595.276)" stroke-width=".12" stroke-linecap="butt" stroke-miterlimit="10" stroke-linejoin="miter" fill="none" stroke="#ffffff" d="M200.5 243.5V243.5"/><path transform="matrix(1,0,0,-1,0,595.276)" stroke-width=".12" stroke-linecap="butt" stroke-miterlimit="10" stroke-linejoin="miter" fill="none" stroke="#ffffff" d="M200.5 243.5V243.5"/><path transform="matrix(1,0,0,-1,0,595.276)" stroke-width=".12" stroke-linecap="butt" stroke-miterlimit="10" stroke-linejoin="miter" fill="none" stroke="#ffffff" d="M200.5 243.5V243.5"/><path transform="matrix(1,0,0,-1,0,595.276)" stroke-width=".12" stroke-linecap="butt" stroke-linejoin="round" fill="none" stroke="#ffffff" d="M200.16 243.796V243.796"/><path transform="matrix(1,0,0,-1,0,595.276)" stroke-width=".12" stroke-linecap="butt" stroke-miterlimit="10" stroke-linejoin="miter" fill="none" stroke="#ffffff" d="M200.5 243.5V243.5"/><path transform="matrix(1,0,0,-1,0,595.276)" d="M200.16 243.796V243.796C200.16 242.356 200.4 241.276 201 240.436 201.6 239.716 202.44 239.356 203.4 239.356 205.44 239.356 206.64 240.916 206.64 243.796 206.64 245.116 206.4 246.196 205.8 247.036 205.2 247.756 204.36 248.116 203.4 248.116 202.44 248.116 201.6 247.756 201 247.036 200.4 246.196 200.16 245.116 200.16 243.796ZM200.16 243.796V243.796ZM203.4 240.676C202.8 240.676 202.32 240.916 202.08 241.516 201.72 241.996 201.6 242.836 201.6 243.796 201.6 245.716 202.2 246.796 203.4 246.796 204.6 246.796 205.2 245.716 205.2 243.796 205.2 242.836 205.08 241.996 204.72 241.516 204.36 240.916 204 240.676 203.4 240.676Z" fill="#ffffff" fill-rule="evenodd"/><path transform="matrix(1,0,0,-1,0,595.276)" d="M188.88 228.196C190.08 228.556 191.16 229.156 192 230.236 192.84 231.436 193.2 232.636 193.2 233.836V236.956H184.44V233.836C184.44 232.636 184.8 231.436 185.64 230.236 186.48 229.156 187.68 228.556 188.88 228.196Z" fill="#ffff00" fill-rule="evenodd"/><path transform="matrix(1,0,0,-1,0,595.276)" d="M187.08 231.076C187.32 230.356 188.04 229.996 188.88 229.996 189.48 229.996 190.08 230.236 190.44 230.716 190.8 231.196 191.04 231.796 191.04 232.756 191.04 234.796 190.2 235.756 188.76 235.756 188.16 235.756 187.68 235.636 187.32 235.276 186.96 234.796 186.84 234.316 186.84 233.836V233.596C186.84 232.516 187.56 231.796 188.76 231.796 189 231.796 189.24 231.796 189.48 231.916 189.72 231.916 189.84 232.036 189.84 232.156 189.84 231.916 189.84 231.796 189.72 231.676 189.72 231.556 189.72 231.436 189.6 231.316 189.48 231.076 189.24 231.076 188.88 231.076 188.76 231.076 188.64 231.076 188.4 231.196 188.28 231.316 188.16 231.436 188.04 231.556L187.08 231.076ZM188.88 234.796C189.12 234.796 189.24 234.676 189.48 234.436 189.6 234.316 189.72 234.076 189.72 233.836 189.72 233.596 189.6 233.236 189.48 233.116 189.24 232.876 189.12 232.876 188.88 232.876 188.64 232.876 188.4 232.876 188.16 233.116 188.04 233.236 187.92 233.596 187.92 233.836 187.92 234.316 188.28 234.796 188.88 234.796Z" fill-rule="evenodd"/><path transform="matrix(1,0,0,-1,0,595.276)" d="M203.16 232.996C203.64 233.236 203.88 233.476 204 233.836 204.12 233.956 204.12 234.196 204.12 234.436 204.12 235.036 203.76 235.636 203.4 235.996 202.92 236.476 202.2 236.716 201.36 236.596H198.48V228.676H201.72C202.32 228.676 203.16 228.796 203.76 229.276 204.24 229.756 204.48 230.356 204.6 231.076 204.6 231.436 204.48 231.796 204.36 232.036 204.24 232.516 203.76 232.756 203.16 232.996ZM199.92 233.356V235.396H201.72C201.96 235.396 202.2 235.396 202.44 235.156 202.68 234.916 202.8 234.676 202.8 234.436 202.8 233.836 202.32 233.356 201.72 233.356H199.92ZM201.72 229.876V229.876H199.92V232.396H201.72C202.56 232.396 203.16 231.796 203.16 231.076 203.16 230.476 202.56 229.876 201.72 229.876Z" fill="#ffffff" fill-rule="evenodd"/></g></svg>