<?xml version='1.0' encoding='UTF-8'?>
<svg xmlns="http://www.w3.org/2000/svg" xmlns:xlink="http://www.w3.org/1999/xlink" xmlns:inkscape="http://www.inkscape.org/namespaces/inkscape" version="1.1" width="566.700" height="269.280" viewBox="0 0 566.700 269.280"><g transform="scale(10.0) translate(-56.655, -505.008)"><path transform="matrix(1,0,0,-1,0,595.276)" d="M72.84 89.236H97.2C97.92 89.236 98.64 88.876 99.24 88.276 99.84 87.796 100.08 86.956 100.08 86.236V67.276C100.08 66.556 99.84 65.836 99.24 65.236 98.64 64.636 97.92 64.396 97.2 64.396H72.84C72.12 64.396 71.4 64.636 70.8 65.236 70.2 65.836 69.96 66.556 69.96 67.276V86.236C69.96 86.596 70.08 86.956 70.2 87.316 70.32 87.676 70.56 88.036 70.8 88.276 71.4 88.876 72.12 89.236 72.84 89.236Z" fill="#0000ff" fill-rule="evenodd"/><path transform="matrix(1,0,0,-1,0,595.276)" d="M92.4 66.916H97.68V68.116H93.72V70.276H97.08V71.476H93.72V73.516H97.44V74.836H92.4Z" fill="#ffffff" fill-rule="evenodd"/><path transform="matrix(1,0,0,-1,0,595.276)" d="M75.48 74.836V73.996H72.24V73.276H75.48V72.676H73.2V69.316H75.36L74.52 68.836 73.68 68.476 72.72 68.116 71.76 67.756 72.48 67.156 73.32 67.396 74.16 67.756 74.88 68.236 75.48 68.716V66.676H76.32V68.716L77.04 68.236 77.76 67.756 78.48 67.396 79.2 67.036 80.16 67.876 79.08 68.116 78.12 68.476 77.28 68.836 76.56 69.316H78.72V72.676H76.32V73.276H79.68V73.996H76.32V74.476L76.44 74.596H76.56L76.44 74.716 76.2 74.836H75.48ZM74.04 71.356V72.076H75.48V71.356H74.04ZM76.32 70.036V70.636H77.88V70.036H76.32ZM76.32 71.356V71.956H77.88V71.356H76.32ZM74.04 70.036V70.636H75.6V70.036H74.04Z" fill="#ffffff" fill-rule="evenodd"/><path transform="matrix(1,0,0,-1,0,595.276)" d="M85.68 66.316C86.88 66.676 87.96 67.396 88.8 68.476 89.64 69.556 90 70.876 90 72.076V75.196H81.24V72.076C81.24 70.876 81.6 69.556 82.44 68.476 83.28 67.396 84.48 66.676 85.68 66.316Z" fill="#ffff00" fill-rule="evenodd"/><path transform="matrix(1,0,0,-1,0,595.276)" d="M87.24 70.396H87.96V69.196H87.24V68.356H86.04V69.196H83.16V70.276L85.8 73.756H87.24V70.396ZM86.04 72.316 84.6 70.396H86.04V72.316Z" fill-rule="evenodd"/><path transform="matrix(1,0,0,-1,0,595.276)" d="M89.16 78.436C89.16 78.916 88.8 79.396 88.32 79.396 87.84 79.396 87.48 78.916 87.48 78.436 87.48 78.076 87.84 77.596 88.32 77.596 88.8 77.596 89.16 78.076 89.16 78.436Z" fill="#ffffff" fill-rule="evenodd"/><path transform="matrix(1,0,0,-1,0,595.276)" stroke-width=".12" stroke-linecap="butt" stroke-miterlimit="10" stroke-linejoin="miter" fill="none" stroke="#ffffff" d="M83.5 81.5V81.5"/><path transform="matrix(1,0,0,-1,0,595.276)" d="M83.52 81.676H82.32V82.876H83.28 83.4 83.52C84 83.116 84.36 83.716 84.12 84.196 84 84.676 83.52 85.156 82.92 85.156 82.56 85.156 82.08 85.036 81.72 84.676 81.36 84.436 81.24 83.956 81.24 83.596L79.68 83.836C79.68 84.436 80.04 85.156 80.64 85.636 81.24 86.236 82.08 86.476 82.92 86.476 84.12 86.476 85.2 85.756 85.68 84.796 85.92 83.836 85.44 82.876 84.72 82.276 85.68 81.676 86.04 80.476 85.68 79.396 85.2 78.316 84.12 77.596 82.92 77.596 82.08 77.596 81.24 77.836 80.64 78.436 80.04 78.916 79.68 79.636 79.8 80.236L81.24 80.476C81.12 79.756 81.84 79.036 82.68 79.036 83.04 78.916 83.4 79.036 83.76 79.276 84.12 79.516 84.24 79.876 84.24 80.236 84.36 80.596 84.24 80.956 84.12 81.196 83.88 81.436 83.64 81.676 83.52 81.676Z" fill="#ffffff" fill-rule="evenodd"/><path transform="matrix(1,0,0,-1,0,595.276)" d="M81.24 83.596V83.596Z" fill="#ffffff" fill-rule="evenodd"/><path transform="matrix(1,0,0,-1,0,595.276)" d="M81.24 80.476V80.476Z" fill="#ffffff" fill-rule="evenodd"/><path transform="matrix(1,0,0,-1,0,595.276)" d="M73.68 83.356H72.24V83.956C72.36 84.556 72.6 85.276 73.2 85.756 73.8 86.236 74.52 86.476 75.12 86.476 75.6 86.476 75.96 86.356 76.44 86.236 76.92 85.996 77.28 85.636 77.64 85.276 77.88 84.796 78.12 84.316 78.12 83.956 78.12 83.476 78 82.996 77.88 82.636 77.28 81.436 76.08 80.116 74.64 79.036H78V77.716H72.36V79.036C73.44 79.636 74.4 80.476 75.24 81.316 75.96 82.156 76.44 82.996 76.56 83.716 76.56 84.556 75.96 85.156 75.12 85.156 74.76 85.156 74.4 85.036 74.16 84.796 73.8 84.436 73.68 84.076 73.68 83.716V83.356Z" fill="#ffffff" fill-rule="evenodd"/><path transform="matrix(1,0,0,-1,0,595.276)" stroke-width=".12" stroke-linecap="butt" stroke-miterlimit="10" stroke-linejoin="miter" fill="none" stroke="#ffffff" d="M91.5 82.5V82.5"/><path transform="matrix(1,0,0,-1,0,595.276)" stroke-width=".12" stroke-linecap="butt" stroke-miterlimit="10" stroke-linejoin="miter" fill="none" stroke="#ffffff" d="M91.5 82.5V82.5"/><path transform="matrix(1,0,0,-1,0,595.276)" stroke-width=".12" stroke-linecap="butt" stroke-miterlimit="10" stroke-linejoin="miter" fill="none" stroke="#ffffff" d="M91.5 82.5V82.5"/><path transform="matrix(1,0,0,-1,0,595.276)" stroke-width=".12" stroke-linecap="butt" stroke-miterlimit="10" stroke-linejoin="miter" fill="none" stroke="#ffffff" d="M91.5 82.5V82.5"/><path transform="matrix(1,0,0,-1,0,595.276)" stroke-width=".12" stroke-linecap="butt" stroke-linejoin="round" fill="none" stroke="#ffffff" d="M91.08 82.036V82.036"/><path transform="matrix(1,0,0,-1,0,595.276)" stroke-width=".12" stroke-linecap="butt" stroke-miterlimit="10" stroke-linejoin="miter" fill="none" stroke="#ffffff" d="M91.5 82.5V82.5"/><path transform="matrix(1,0,0,-1,0,595.276)" d="M91.08 82.036V82.036C91.08 80.716 91.32 79.636 91.92 78.796 92.52 77.956 93.36 77.596 94.32 77.596 96.36 77.596 97.56 79.276 97.56 82.036 97.56 83.356 97.32 84.556 96.72 85.276 96.12 86.116 95.28 86.476 94.32 86.476 93.36 86.476 92.52 86.116 91.92 85.276 91.32 84.556 91.08 83.356 91.08 82.036ZM91.08 82.036V82.036ZM94.32 79.036C93.72 79.036 93.24 79.276 93 79.756 92.64 80.356 92.52 81.196 92.52 82.036 92.52 83.956 93.12 85.156 94.32 85.156 95.4 85.156 96.12 83.956 96.12 82.036 96.12 81.196 96 80.356 95.64 79.756 95.28 79.276 94.8 79.036 94.32 79.036Z" fill="#ffffff" fill-rule="evenodd"/></g></svg>