<?xml version='1.0' encoding='UTF-8'?>
<svg xmlns="http://www.w3.org/2000/svg" xmlns:xlink="http://www.w3.org/1999/xlink" xmlns:inkscape="http://www.inkscape.org/namespaces/inkscape" version="1.1" width="567.000" height="269.280" viewBox="0 0 567.000 269.280"><g transform="scale(10.0) translate(-111.171, -128.016)"><defs><clipPath id="clip_14"><path transform="matrix(1,0,0,-1,0,595.276)" d="M74.37 .046H767.49V595.276H74.37Z"/></clipPath></defs><path transform="matrix(1,0,0,-1,0,595.276)" d="M166.38 463.846V443.266C166.38 443.056 166.35 442.846 166.26 442.606 166.17 442.396 166.02 442.186 165.84 442.006 165.66 441.826 165.48 441.676 165.24 441.616 165.03 441.526 164.79 441.466 164.58 441.466H114.66C114.45 441.466 114.24 441.526 114 441.616 113.79 441.676 113.58 441.826 113.4 442.006 113.22 442.186 113.1 442.396 113.01 442.606 112.92 442.846 112.86 443.056 112.86 443.266V463.846C112.86 464.056 112.92 464.296 113.01 464.506 113.1 464.716 113.22 464.926 113.4 465.106 113.58 465.286 113.79 465.436 114 465.526 114.24 465.616 114.45 465.646 114.66 465.646H164.58C164.79 465.646 165.03 465.616 165.24 465.526 165.48 465.436 165.66 465.286 165.84 465.106 166.02 464.926 166.17 464.716 166.26 464.506 166.35 464.296 166.38 464.056 166.38 463.846ZM114.66 464.746C114.42 464.746 114.21 464.656 114.03 464.476 113.85 464.326 113.76 464.086 113.76 463.846V443.266C113.76 443.176 113.79 443.056 113.82 442.936 113.88 442.816 113.94 442.726 114.03 442.636 114.21 442.456 114.45 442.366 114.66 442.366H164.58C164.79 442.366 165.03 442.456 165.21 442.636 165.39 442.816 165.48 443.056 165.48 443.266V463.846C165.48 464.056 165.39 464.296 165.21 464.476 165.03 464.656 164.79 464.746 164.58 464.746H114.66Z" fill-rule="evenodd"/><path transform="matrix(1,0,0,-1,0,595.276)" d="M114.66 464.746H164.58C164.79 464.746 165.03 464.656 165.21 464.476 165.39 464.296 165.48 464.056 165.48 463.846V443.266C165.48 443.056 165.39 442.816 165.21 442.636 165.03 442.456 164.79 442.366 164.58 442.366H114.66C114.57 442.366 114.45 442.396 114.33 442.426 114.21 442.486 114.12 442.546 114.03 442.636 113.94 442.726 113.88 442.816 113.82 442.936 113.79 443.056 113.76 443.176 113.76 443.266V463.846C113.76 464.056 113.85 464.296 114.03 464.476 114.21 464.656 114.45 464.746 114.66 464.746Z" fill="#ffffff" fill-rule="evenodd"/><path transform="matrix(1,0,0,-1,0,595.276)" d="M150.6 457.666 150.36 456.946C150.09 456.946 149.88 456.976 149.73 457.036 149.58 457.096 149.49 457.186 149.46 457.306 149.4 457.216 149.28 457.126 149.1 457.036 148.95 456.946 148.74 456.916 148.59 456.916 148.14 456.916 147.81 457.006 147.54 457.246 147.3 457.456 147.18 457.786 147.18 458.176 147.18 458.566 147.36 458.836 147.69 459.046 148.05 459.226 148.56 459.316 149.22 459.316V459.466C149.22 459.616 149.19 459.706 149.13 459.766 149.07 459.826 148.95 459.856 148.8 459.856 148.59 459.856 148.41 459.826 148.23 459.766 148.05 459.706 147.87 459.616 147.72 459.466L147.27 460.156C147.63 460.546 148.14 460.726 148.77 460.726 149.22 460.726 149.58 460.636 149.82 460.486 150.06 460.306 150.21 460.066 150.24 459.706V457.906C150.27 457.756 150.36 457.666 150.6 457.666ZM148.2 458.146C148.2 457.996 148.23 457.906 148.32 457.846 148.41 457.756 148.56 457.726 148.77 457.726 149.01 457.756 149.16 457.846 149.22 457.966V458.566C148.89 458.566 148.62 458.536 148.47 458.446 148.29 458.386 148.2 458.266 148.2 458.146Z" fill-rule="evenodd"/><path transform="matrix(1,0,0,-1,0,595.276)" d="M145.65 460.516H146.52V459.706H145.65V458.176C145.65 458.056 145.68 457.966 145.74 457.906 145.8 457.846 145.89 457.786 146.01 457.786 146.07 457.786 146.16 457.786 146.22 457.786 146.31 457.816 146.4 457.846 146.52 457.876L146.67 457.066C146.49 456.946 146.16 456.886 145.68 456.886 145.38 456.886 145.14 456.976 144.99 457.126 144.84 457.276 144.75 457.486 144.72 457.786V459.706H144.12V460.516H144.72V461.626L145.65 461.926V460.516Z" fill-rule="evenodd"/><path transform="matrix(1,0,0,-1,0,595.276)" d="M153.21 460.516H154.23L153.24 458.836 154.35 457.066H153.27L152.67 458.116 152.07 457.066H150.99L152.13 458.836 151.11 460.516H152.16L152.67 459.526Z" fill-rule="evenodd"/><path transform="matrix(1,0,0,-1,0,595.276)" d="M156 457.066V460.516H155.1V457.066Z" fill-rule="evenodd"/><path transform="matrix(1,0,0,-1,0,595.276)" d="M156.12 461.446C156.12 461.746 155.85 461.986 155.55 461.986 155.25 461.986 155.01 461.746 155.01 461.446 155.01 461.146 155.25 460.906 155.55 460.906 155.85 460.906 156.12 461.146 156.12 461.446Z" fill-rule="evenodd"/><path transform="matrix(1,0,0,-1,0,595.276)" d="M159.72 458.116C159.75 458.806 159.36 459.226 158.58 459.346 158.34 459.346 158.13 459.376 158.01 459.406 157.95 459.436 157.92 459.466 157.89 459.496 157.86 459.496 157.86 459.526 157.86 459.556 157.86 459.556 157.86 459.586 157.86 459.616 157.83 459.766 158.01 459.886 158.34 459.916 158.52 459.916 158.64 459.856 158.79 459.796 158.91 459.736 159 459.646 159.09 459.526L159.69 460.186C159.42 460.546 159 460.726 158.37 460.756 157.41 460.756 156.9 460.336 156.87 459.526 156.93 458.896 157.26 458.566 157.89 458.446 158.43 458.446 158.7 458.326 158.7 458.086 158.7 457.996 158.67 457.936 158.61 457.876 158.52 457.816 158.43 457.786 158.28 457.786 158.1 457.786 157.92 457.846 157.74 457.936 157.59 457.996 157.44 458.116 157.29 458.266L156.63 457.606C156.99 457.156 157.56 456.916 158.25 456.916 159.18 456.916 159.72 457.366 159.72 458.116Z" fill-rule="evenodd"/><path transform="matrix(1,0,0,-1,0,595.276)" d="M121.11 461.926V458.116H123.18V457.066H120.06V461.926Z" fill-rule="evenodd"/><path transform="matrix(1,0,0,-1,0,595.276)" d="M127.05 457.666 126.81 456.946C126.54 456.946 126.36 456.976 126.21 457.036 126.06 457.096 125.94 457.186 125.91 457.306 125.88 457.216 125.73 457.126 125.58 457.036 125.4 456.946 125.19 456.916 125.04 456.916 124.62 456.916 124.26 457.006 124.02 457.246 123.75 457.456 123.63 457.786 123.63 458.176 123.63 458.926 124.32 459.316 125.67 459.316V459.466C125.7 459.616 125.67 459.706 125.58 459.766 125.52 459.826 125.4 459.856 125.28 459.856 125.04 459.856 124.86 459.826 124.68 459.766 124.5 459.706 124.32 459.616 124.2 459.466L123.72 460.156C124.08 460.546 124.59 460.726 125.22 460.726 125.67 460.726 126.03 460.636 126.27 460.486 126.51 460.306 126.66 460.066 126.72 459.706V457.906C126.72 457.756 126.84 457.666 127.05 457.666ZM124.65 458.146C124.65 457.996 124.68 457.906 124.8 457.846 124.89 457.756 125.01 457.726 125.22 457.726 125.46 457.756 125.61 457.846 125.67 457.966V458.566C125.34 458.566 125.1 458.536 124.92 458.446 124.74 458.386 124.65 458.266 124.65 458.146Z" fill-rule="evenodd"/><path transform="matrix(1,0,0,-1,0,595.276)" d="M130.8 457.066V459.466 459.526C130.8 460.306 130.35 460.696 129.45 460.696 129.27 460.696 129.12 460.666 128.97 460.606 128.85 460.576 128.73 460.486 128.64 460.366V460.606H127.65V457.066H128.64V459.226 459.256C128.7 459.586 128.91 459.796 129.3 459.826 129.63 459.796 129.81 459.586 129.84 459.256V459.226 459.196 459.166C129.84 459.136 129.84 459.136 129.84 459.106V457.066H130.8Z" fill-rule="evenodd"/><path transform="matrix(1,0,0,-1,0,595.276)" d="M133.02 460.516H133.89V459.706H133.02V458.176C133.02 458.056 133.05 457.966 133.11 457.906 133.17 457.846 133.26 457.786 133.38 457.786 133.44 457.786 133.5 457.786 133.59 457.786 133.68 457.816 133.77 457.846 133.89 457.876L134.04 457.066C133.86 456.946 133.53 456.886 133.02 456.886 132.75 456.886 132.51 456.976 132.36 457.126 132.21 457.276 132.09 457.486 132.06 457.786V459.706H131.49V460.516H132.06V461.626L133.02 461.926V460.516Z" fill-rule="evenodd"/><path transform="matrix(1,0,0,-1,0,595.276)" d="M137.97 457.666 137.73 456.946C137.46 456.946 137.25 456.976 137.1 457.036 136.95 457.096 136.86 457.186 136.8 457.306 136.77 457.216 136.65 457.126 136.47 457.036 136.29 456.946 136.11 456.916 135.96 456.916 135.51 456.916 135.15 457.006 134.91 457.246 134.67 457.456 134.55 457.786 134.55 458.176 134.55 458.926 135.24 459.316 136.59 459.316V459.466C136.59 459.616 136.56 459.706 136.5 459.766 136.44 459.826 136.32 459.856 136.17 459.856 135.96 459.856 135.75 459.826 135.57 459.766 135.39 459.706 135.24 459.616 135.09 459.466L134.64 460.156C135 460.546 135.51 460.726 136.14 460.726 136.59 460.726 136.92 460.636 137.19 460.486 137.43 460.306 137.58 460.066 137.61 459.706V457.906C137.61 457.756 137.73 457.666 137.97 457.666ZM135.57 458.146C135.57 457.996 135.6 457.906 135.69 457.846 135.78 457.756 135.93 457.726 136.11 457.726 136.38 457.756 136.53 457.846 136.59 457.966V458.566C136.26 458.566 135.99 458.536 135.84 458.446 135.66 458.386 135.57 458.266 135.57 458.146Z" fill-rule="evenodd"/><path transform="matrix(1,0,0,-1,0,595.276)" d="M140.82 460.516H141.78V457.006H140.76V457.186C140.76 457.126 140.67 457.036 140.49 456.976 140.31 456.916 140.1 456.916 139.92 456.916 139.59 456.916 139.23 457.006 138.99 457.246 138.72 457.456 138.6 457.756 138.6 458.026V460.516H139.56V458.386C139.56 458.266 139.62 458.146 139.74 458.026 139.89 457.876 140.04 457.846 140.16 457.846 140.31 457.846 140.49 457.906 140.61 458.026 140.7 458.116 140.73 458.176 140.79 458.266 140.82 458.356 140.82 458.446 140.82 458.506V460.516Z" fill-rule="evenodd"/><path transform="matrix(1,0,0,-1,0,595.276)" d="M120.69 453.226 120.21 453.256V451.186H117.21V450.496H120.15L120.09 449.896 119.91 449.356 119.64 448.846 119.28 448.366 118.83 447.916 118.26 447.496 117.63 447.136 116.91 446.806 117.54 446.176 118.2 446.536 118.77 446.926 119.28 447.316 119.7 447.736 120.06 448.156 120.36 448.606 120.57 449.086 120.72 449.566 121.17 448.546 121.77 447.646 122.55 446.866 123.48 446.236 124.14 446.986 123.6 447.256 123.09 447.556 122.64 447.916 122.22 448.336 121.86 448.816 121.53 449.326 121.26 449.896 121.02 450.496H123.93V451.186H120.93V452.866L121.11 452.986 121.14 453.106 120.99 453.166Z" fill-rule="evenodd"/><path transform="matrix(1,0,0,-1,0,595.276)" d="M126.54 446.926H127.11V447.496H128.34V447.106H128.91V447.856H133.68V448.486H133.29V452.866H132.09V452.266H132.63V451.456H132.15V450.886H132.63V450.046H132.15V449.476H132.63V448.486H132V451.186H131.19V451.726H131.97V452.266H131.19V452.986L131.31 453.076 131.34 453.136 131.28 453.196 131.13 453.226 130.62 453.256V450.556H131.4V448.486H131.13V449.986L131.19 450.076 131.22 450.166 131.16 450.196 131.01 450.226 130.62 450.256V448.486H129.93V449.476H130.5V450.016H129.93V450.886H130.47V451.426H129.93V452.296L130.35 452.536 130.5 452.506 130.56 452.536 130.53 452.656 130.41 452.806 130.14 453.106 129.69 452.806 129.45 452.716 129.27 452.836V448.486H128.91V451.516L129 451.606 129.03 451.696 128.94 451.756 128.76 451.786 128.34 451.846V448.156H128.04V452.776L128.16 452.836V452.926L128.1 452.956 127.92 453.016 127.41 453.046V448.156H127.11V451.516L127.2 451.636 127.23 451.726 127.17 451.786 127.05 451.816 126.54 451.846Z" fill-rule="evenodd"/><path transform="matrix(1,0,0,-1,0,595.276)" d="M128.67 446.686 129.27 446.176 130.53 447.076 130.68 447.106 130.74 447.166 130.68 447.286 130.56 447.436 130.2 447.706 129.48 447.136Z" fill-rule="evenodd"/><path transform="matrix(1,0,0,-1,0,595.276)" d="M133.14 446.146 133.74 446.806 132.93 447.166 132.15 447.706 131.64 447.256 132.36 446.686Z" fill-rule="evenodd"/><path transform="matrix(1,0,0,-1,0,595.276)" d="M139.83 453.136 139.23 453.166V447.736H137.1V451.306L137.25 451.456 137.28 451.546 137.16 451.606 136.95 451.636 136.32 451.666V446.236H137.1V447.046H141.99V446.236H142.71V451.336L142.89 451.426 142.92 451.516 142.83 451.576 142.59 451.636 141.99 451.666V447.736H140.04V452.836L140.22 452.926 140.25 453.016 140.13 453.076Z" fill-rule="evenodd"/><path transform="matrix(1,0,0,-1,0,595.276)" d="M147.21 453.256 146.64 452.086H145.71V446.266H146.46V446.866H148.05V446.386H148.77V452.086H147.51L147.9 452.806 148.05 452.896V452.956L147.96 453.046 147.78 453.106 147.21 453.256ZM146.46 449.866V451.396H148.02V449.866H146.46ZM146.46 447.556V449.146H148.05V447.556H146.46Z" fill-rule="evenodd"/><path transform="matrix(1,0,0,-1,0,595.276)" d="M150.66 453.016 150.18 453.196 149.85 452.416 149.52 451.726 149.16 451.126 148.77 450.646 149.46 450.256 149.85 450.766 150.15 451.396H151.83V449.416L151.86 448.876V448.396L151.8 447.976 151.68 447.646 151.53 447.376 151.32 447.196 151.05 447.046 150.72 446.986H150.15L150.48 446.266H150.93L151.35 446.236 151.71 446.326 151.98 446.536 152.22 446.866 152.4 447.316 152.52 447.886 152.58 448.576V449.386 452.086H150.48L150.81 452.716 150.93 452.806V452.866L150.87 452.956Z" fill-rule="evenodd"/><path transform="matrix(1,0,0,-1,0,595.276)" d="M150 450.106 149.49 449.626 150.06 448.966 150.6 448.246 151.14 448.786 150.63 449.506Z" fill-rule="evenodd"/><path transform="matrix(1,0,0,-1,0,595.276)" d="M158.85 453.166 158.22 453.226V450.916H155.1V450.166H158.22V447.376H155.55V446.686H161.67V447.376H159.03V450.166H162.15V450.916H159.03V452.866L159.21 452.986 159.24 453.076 159.12 453.136Z" fill-rule="evenodd"/></g></svg>