<?xml version='1.0' encoding='UTF-8'?>
<svg xmlns="http://www.w3.org/2000/svg" xmlns:xlink="http://www.w3.org/1999/xlink" xmlns:inkscape="http://www.inkscape.org/namespaces/inkscape" version="1.1" width="567.000" height="269.280" viewBox="0 0 567.000 269.280"><g transform="scale(10.0) translate(-220.305, -478.080)"><defs><clipPath id="clip_2"><path transform="matrix(1,0,0,-1,0,595.276)" d="M74.4 .196H767.4V595.276H74.4Z"/></clipPath></defs><path transform="matrix(1,0,0,-1,0,595.276)" d="M229.32 91.036H268.08C268.56 91.036 269.04 91.156 269.52 91.636 269.88 91.996 270.12 92.596 270.12 93.076V114.316C270.12 114.916 269.88 115.396 269.52 115.756 269.04 116.236 268.56 116.356 268.08 116.356H229.32C228.84 116.356 228.36 116.236 227.88 115.756 227.52 115.396 227.28 114.916 227.28 114.316V93.076C227.28 92.836 227.4 92.596 227.4 92.236 227.52 91.996 227.76 91.756 227.88 91.636 228.36 91.156 228.84 91.036 229.32 91.036Z" fill="#ffffff" fill-rule="evenodd"/><path transform="matrix(1,0,0,-1,0,595.276)" d="M229.32 115.396H268.08C268.32 115.396 268.56 115.276 268.8 115.036 268.92 114.916 269.04 114.676 269.04 114.316V93.076C269.04 92.836 268.92 92.476 268.8 92.356 268.56 92.116 268.32 91.996 268.08 91.996H229.32C229.2 91.996 229.08 91.996 228.96 92.116 228.84 92.116 228.72 92.236 228.6 92.356 228.48 92.476 228.48 92.596 228.36 92.716 228.36 92.836 228.36 92.956 228.36 93.076V114.316C228.36 114.676 228.36 114.916 228.6 115.036 228.84 115.276 229.08 115.396 229.32 115.396Z" fill="#0000ff" fill-rule="evenodd"/><path transform="matrix(1,0,0,-1,0,595.276)" d="M260.4 98.356H261.36V92.956H260.4Z" fill="#ffffff" fill-rule="evenodd"/><path transform="matrix(1,0,0,-1,0,595.276)" d="M251.64 98.356H252.72V92.956H251.64Z" fill="#ffffff" fill-rule="evenodd"/><path transform="matrix(1,0,0,-1,0,595.276)" d="M242.64 114.076H243.96V93.316H242.64Z" fill="#ffffff" fill-rule="evenodd"/><path transform="matrix(1,0,0,-1,0,595.276)" d="M234 102.076C234.24 102.076 234.24 102.196 234.36 102.316 234.36 102.436 234.36 102.436 234.36 102.556 234.36 102.796 234.24 103.036 234.12 103.156 233.88 103.276 233.64 103.396 233.4 103.276H232.32V100.516H233.52C233.76 100.516 234 100.516 234.24 100.756 234.36 100.876 234.48 101.116 234.48 101.356 234.48 101.476 234.48 101.596 234.48 101.716 234.36 101.836 234.24 101.956 234 102.076ZM232.8 102.196V102.916H233.52C233.64 102.916 233.76 102.916 233.76 102.796 233.88 102.676 233.88 102.676 233.88 102.556 233.88 102.316 233.76 102.196 233.52 102.196H232.8ZM233.52 100.876V100.876H232.8V101.836H233.52C233.64 101.836 233.76 101.836 233.88 101.716 234 101.596 234 101.476 234 101.356 234 101.116 233.76 100.876 233.52 100.876Z" fill="#ffffff" fill-rule="evenodd"/><path transform="matrix(1,0,0,-1,0,595.276)" stroke-width=".12" stroke-linecap="butt" stroke-miterlimit="10" stroke-linejoin="miter" fill="none" stroke="#ffffff" d="M235.5 101.5V101.5"/><path transform="matrix(1,0,0,-1,0,595.276)" d="M235.08 101.236V101.236 102.556H235.56V101.236 101.116C235.56 100.996 235.68 100.996 235.68 100.996 235.8 100.876 235.8 100.876 235.92 100.876 236.04 100.876 236.16 100.876 236.16 100.996 236.28 100.996 236.28 101.116 236.28 101.236V102.556H236.76V100.516H236.28V100.636C236.16 100.516 236.04 100.516 235.92 100.516 235.56 100.516 235.2 100.876 235.08 101.236Z" fill="#ffffff" fill-rule="evenodd"/><path transform="matrix(1,0,0,-1,0,595.276)" d="M237.84 101.836C237.96 101.836 237.96 101.836 238.08 101.836H238.2C238.44 101.716 238.68 101.596 238.8 101.356 238.92 101.236 238.92 101.116 238.92 101.116 238.92 100.876 238.8 100.756 238.68 100.756 238.56 100.516 238.32 100.516 238.08 100.516 237.72 100.516 237.36 100.636 237.24 100.876L237.48 101.236C237.48 101.116 237.6 100.996 237.72 100.996 237.84 100.876 237.96 100.876 237.96 100.876 238.08 100.876 238.08 100.876 238.2 100.876 238.2 100.876 238.32 100.876 238.32 100.996 238.32 100.996 238.44 100.996 238.44 101.116 238.44 101.236 238.32 101.236 238.32 101.236 238.32 101.356 238.2 101.356 238.08 101.356H237.96 237.84C237.6 101.476 237.48 101.596 237.36 101.716 237.24 101.716 237.24 101.836 237.24 101.956 237.24 102.076 237.36 102.316 237.36 102.316 237.48 102.436 237.72 102.556 237.84 102.556H237.96C238.2 102.556 238.56 102.556 238.8 102.316L238.56 101.956C238.44 102.076 238.2 102.196 238.08 102.196 238.08 102.196 237.96 102.076 237.84 102.076V101.956 101.836Z" fill="#ffffff" fill-rule="evenodd"/><path transform="matrix(1,0,0,-1,0,595.276)" d="M237.84 111.556V109.156L236.28 110.716V104.596H234.72V110.716L233.16 109.156V111.556L235.44 113.836Z" fill="#ffffff" fill-rule="evenodd"/><path transform="matrix(1,0,0,-1,0,595.276)" d="M230.88 98.116V94.756 94.516 94.396L231.12 94.276H231.36 233.88 234.12 234.24L234.36 94.396 234.48 94.516 234.6 94.636 234.72 94.756V94.996 95.236L234.36 95.356 234.24 94.996 234.12 94.876 234 94.756 233.76 94.636H231.48 231.36V94.756H231.24V94.876 96.316H233.76V96.076H234.24V98.116H230.88ZM231.24 96.676V97.756H232.32V96.676H231.24ZM232.68 96.676V97.756H233.76V96.676H232.68Z" fill="#ffffff" fill-rule="evenodd"/><path transform="matrix(1,0,0,-1,0,595.276)" d="M238.44 98.236H238.08V96.916H236.28V96.556H238.08V94.876H236.52V94.516H240V94.876H238.56V96.556H240.36V96.916H238.56V98.116L238.68 98.236H238.56Z" fill="#ffffff" fill-rule="evenodd"/><path transform="matrix(1,0,0,-1,0,595.276)" d="M250.2 107.236V104.836L248.64 106.396V97.876H247.08V106.396L245.52 104.836V107.236L247.8 109.516Z" fill="#ffffff" fill-rule="evenodd"/><path transform="matrix(1,0,0,-1,0,595.276)" d="M258.84 107.236V104.836L257.28 106.396V97.876H255.72V106.396L254.16 104.836V107.236L256.56 109.516Z" fill="#ffffff" fill-rule="evenodd"/><path transform="matrix(1,0,0,-1,0,595.276)" d="M267.6 107.236V104.836L266.04 106.396V97.876H264.48V106.396L262.92 104.836V107.236L265.2 109.516Z" fill="#ffffff" fill-rule="evenodd"/><path transform="matrix(1,0,0,-1,0,595.276)" d="M260.4 114.436H261.36V109.036H260.4Z" fill="#ffffff" fill-rule="evenodd"/><path transform="matrix(1,0,0,-1,0,595.276)" d="M260.4 106.396H261.36V100.996H260.4Z" fill="#ffffff" fill-rule="evenodd"/><path transform="matrix(1,0,0,-1,0,595.276)" d="M251.64 114.436H252.72V109.036H251.64Z" fill="#ffffff" fill-rule="evenodd"/><path transform="matrix(1,0,0,-1,0,595.276)" d="M251.64 106.396H252.72V100.996H251.64Z" fill="#ffffff" fill-rule="evenodd"/><path transform="matrix(1,0,0,-1,0,595.276)" stroke-width=".12" stroke-linecap="round" stroke-linejoin="round" fill="none" stroke="#0000ff" d="M270.12 114.316V93.076C270.12 91.876 269.16 91.036 268.08 91.036H229.32C228.24 91.036 227.28 91.876 227.28 93.076V114.316C227.28 115.516 228.24 116.356 229.32 116.356H268.08C269.16 116.356 270.12 115.516 270.12 114.316"/></g></svg>