<?xml version='1.0' encoding='UTF-8'?>
<svg xmlns="http://www.w3.org/2000/svg" xmlns:xlink="http://www.w3.org/1999/xlink" xmlns:inkscape="http://www.inkscape.org/namespaces/inkscape" version="1.1" width="566.700" height="269.280" viewBox="0 0 566.700 269.280"><g transform="scale(10.0) translate(-274.875, -343.440)"><defs><clipPath id="clip_19"><path transform="matrix(0,1,1,0,0,0)" d="M0 19.875H595.008V822.117H0Z"/></clipPath><clipPath id="clip_20"><path transform="matrix(0,1,1,0,0,0)" d="M0 842.013H595.224V.008972168H0Z"/></clipPath></defs><path transform="matrix(0,1,1,0,321.465,343.926)" d="M0 0V-36.198C0-36.306 .018-36.432 .072-36.558 .108-36.684 .18-36.792 .288-36.882 .378-36.99 .486-37.062 .612-37.116 .738-37.152 .864-37.17 .972-37.17H24.912C25.02-37.17 25.146-37.152 25.272-37.116 25.398-37.062 25.506-36.99 25.596-36.882 25.704-36.792 25.776-36.684 25.812-36.558 25.866-36.432 25.884-36.306 25.884-36.198V0C25.884 .108 25.866 .234 25.812 .36 25.776 .486 25.704 .594 25.596 .684 25.506 .792 25.398 .864 25.272 .918 25.146 .954 25.02 .972 24.912 .972H.972C.864 .972 .738 .954 .612 .918 .486 .864 .378 .792 .288 .684 .18 .594 .108 .486 .072 .36 .018 .234 0 .108 0 0ZM.486 0C.486 .27 .702 .486 .972 .486H24.912C25.02 .486 25.146 .45 25.254 .342 25.362 .252 25.398 .108 25.398 0V-36.198C25.398-36.324 25.362-36.45 25.254-36.54 25.146-36.648 25.02-36.684 24.912-36.684H.972C.918-36.684 .864-36.684 .792-36.648 .738-36.63 .684-36.594 .63-36.54 .576-36.504 .54-36.432 .522-36.378 .504-36.324 .486-36.252 .486-36.198V0" fill-rule="evenodd"/><path transform="matrix(0,1,1,0,285.267,344.412)" d="M0 0V36.198C0 36.306 .036 36.45 .144 36.54 .252 36.648 .378 36.684 .486 36.684H24.426C24.48 36.684 24.534 36.684 24.606 36.648 24.66 36.63 24.714 36.594 24.768 36.54 24.822 36.486 24.858 36.432 24.876 36.378 24.894 36.306 24.912 36.252 24.912 36.198V0C24.912-.126 24.876-.252 24.768-.342 24.66-.45 24.534-.486 24.426-.486H.486C.216-.486 0-.27 0 0" fill="#ffffff" fill-rule="evenodd"/><path transform="matrix(0,1,1,0,286.779,351.198)" d="M0 0V.594 .612C0 .612 0 .612 0 .612-.018 .72-.09 .828-.198 .918-.324 .99-.468 1.026-.594 1.026-.738 1.026-.864 .99-.99 .918-1.098 .846-1.17 .738-1.188 .63V.612C-1.188 .612-1.188 .63-1.188 .612-1.188 .594-1.188 .576-1.188 .558L-1.206 .54V-.414H.702V0H0ZM-.324 0H-.864V.414C-.864 .432-.864 .432-.864 .45-.846 .54-.72 .612-.594 .612-.486 .612-.36 .54-.324 .45V.432C-.324 .432-.324 .45-.324 .432V0" fill-rule="evenodd"/><path transform="matrix(0,1,1,0,0,0)" d="M349.992 288.237H351.9V288.633H349.992Z"/><path transform="matrix(0,1,1,0,292.755,349.992)" d="M0 0 .774-.63 1.908 .072V-.414L1.08-.882 1.314-1.08H1.908V-1.494H0V-1.08H.756L0-.468" fill-rule="evenodd"/><path transform="matrix(0,1,1,0,295.473,349.992)" d="M0 0H1.152 1.206C1.206 0 1.152 0 1.206 0 1.26-.018 1.386-.018 1.458-.018 1.53-.018 1.548-.036 1.584-.054 1.71-.09 1.818-.198 1.872-.342 1.944-.468 1.98-.648 1.98-.792 1.98-.954 1.944-1.116 1.89-1.242 1.818-1.386 1.71-1.494 1.602-1.548H1.584C1.584-1.548 1.602-1.548 1.584-1.548H1.566C1.566-1.548 1.584-1.548 1.566-1.548 1.548-1.548 1.494-1.566 1.44-1.584 1.386-1.584 1.332-1.584 1.224-1.584H0V-1.17H1.152 1.188C1.188-1.17 1.152-1.17 1.188-1.17 1.206-1.17 1.26-1.17 1.296-1.17H1.332C1.386-1.152 1.458-1.098 1.512-1.026 1.548-.954 1.566-.864 1.566-.792 1.566-.72 1.548-.648 1.512-.576 1.476-.504 1.404-.45 1.35-.432H1.332C1.296-.432 1.242-.414 1.224-.414 1.206-.414 1.206-.414 1.188-.414H0V0" fill-rule="evenodd"/><path transform="matrix(0,1,1,0,296.427,351.198)" d="M0 0V.594 .612C0 .612 0 .612 0 .612-.018 .72-.09 .828-.198 .918-.324 .99-.468 1.026-.594 1.026-.738 1.026-.864 .99-.99 .918-1.098 .846-1.17 .738-1.188 .63V.612C-1.188 .612-1.188 .63-1.188 .612-1.188 .594-1.188 .576-1.188 .558L-1.206 .54V-.414H.702V0H0ZM-.324 0H-.864V.414C-.864 .432-.864 .432-.864 .45-.846 .54-.72 .612-.594 .612-.486 .612-.36 .54-.324 .45V.432C-.324 .432-.324 .45-.324 .432V0" fill-rule="evenodd"/><path transform="matrix(0,1,1,0,298.713,350.784)" d="M0 0C-.108-.09-.234-.126-.36-.126-.486-.126-.612-.054-.684 .036-.774 .126-.828 .252-.828 .378-.81 .522-.756 .63-.666 .72-.594 .792-.486 .846-.342 .864-.216 .864-.108 .81-.018 .756-.018 .738-.018 .738 0 .738V.72L.036 .666 .054 .648 .126 .54 .504 .792C.45 .828 .36 .864 .288 .846H.27V1.206C.45 1.224 .684 1.116 .81 .99 .828 1.008 .828 1.026 .828 1.062 .828 1.098 .828 1.134 .81 1.17L1.08 1.242C1.134 1.224 1.17 1.116 1.17 .972 1.17 .882 1.134 .774 1.08 .702 1.152 .63 1.188 .468 1.188 .324 1.188-.072 .936-.342 .558-.342 .288-.342 .09-.234 0 0ZM.324 .198C.36 .144 .414 .09 .504 .072 .576 .054 .648 .072 .72 .108 .846 .198 .882 .36 .774 .504L.324 .198ZM-.162 .342C-.198 .432-.288 .504-.342 .504-.432 .504-.486 .45-.486 .378-.486 .342-.468 .324-.432 .288-.396 .27-.36 .252-.324 .252-.27 .252-.216 .288-.162 .342" fill-rule="evenodd"/><path transform="matrix(0,1,1,0,286.995,354.636)" d="M0 0V-.792H-1.908V0C-1.908 .234-1.836 .432-1.656 .576-1.476 .738-1.224 .81-.954 .81-.684 .81-.45 .738-.27 .576-.09 .432 0 .234 0 0ZM-1.494-.378H-.414V-.072-.054C-.414-.054-.414-.072-.414-.054-.414-.018-.414 .018-.414 .054V.072C-.414 .072-.414 .072-.414 .072-.468 .27-.684 .396-.954 .396-1.224 .396-1.44 .288-1.494 .108V.072C-1.494 .072-1.494 .108-1.494 .072-1.494 .054-1.494 0-1.494-.036V-.054C-1.494-.054-1.494-.054-1.494-.054V-.378" fill-rule="evenodd"/><path transform="matrix(0,1,1,0,288.687,353.916)" d="M0 0H.72V-.414H-1.188V.558C-1.152 .864-.9 1.098-.594 1.08-.342 1.098-.108 .936-.018 .684L.72 1.134V.684L0 .252V0ZM-.378 0V.504 .522C-.378 .522-.378 .522-.378 .522-.396 .594-.486 .648-.594 .648-.702 .648-.792 .594-.81 .486V0H-.378" fill-rule="evenodd"/><path transform="matrix(0,1,1,0,291.081,352.656)" d="M0 0C0 .27 .09 .504 .27 .666 .468 .846 .72 .918 1.026 .918 1.314 .918 1.584 .846 1.764 .666 1.962 .504 2.052 .27 2.052 0 2.052-.252 1.962-.486 1.764-.666 1.584-.828 1.314-.9 1.026-.9 .72-.9 .468-.828 .27-.666 .09-.486 0-.252 0 0ZM1.026 .504C.648 .504 .414 .324 .414 0 .414-.306 .648-.504 1.026-.504 1.404-.504 1.638-.306 1.638 0 1.638 .324 1.404 .504 1.026 .504" fill-rule="evenodd"/><path transform="matrix(0,1,1,0,292.881,353.916)" d="M0 0V.54C0 .558 0 .576 0 .594V.612C-.018 .72-.09 .846-.198 .918-.306 .99-.45 1.026-.594 1.026-.72 1.026-.864 .99-.972 .918-1.08 .846-1.152 .738-1.188 .63V.612C-1.188 .612-1.188 .63-1.188 .612-1.188 .612-1.188 .576-1.188 .558V-.396H.72V0H0ZM-.324 0H-.864V.414C-.864 .432-.864 .432-.864 .45-.828 .54-.702 .612-.594 .612-.468 .612-.342 .54-.324 .45-.324 .432-.324 .414-.324 .414V0" fill-rule="evenodd"/><path transform="matrix(0,1,1,0,295.833,352.656)" d="M0 0C0 .252 .09 .504 .27 .666 .468 .828 .72 .918 1.026 .918 1.314 .918 1.584 .828 1.764 .666 1.962 .504 2.052 .252 2.052 0 2.052-.27 1.962-.504 1.764-.666 1.584-.846 1.314-.918 1.026-.918 .72-.918 .468-.846 .27-.666 .09-.504 0-.27 0 0ZM1.026 .504C.648 .504 .414 .306 .414 0 .414-.306 .648-.504 1.026-.504 1.404-.504 1.638-.306 1.638 0 1.638 .306 1.404 .504 1.026 .504" fill-rule="evenodd"/><path transform="matrix(0,1,1,0,297.633,353.898)" d="M0 0V.738H-.378V0H-.792V.81H-1.17V-.396H.738V0" fill-rule="evenodd"/><path transform="matrix(0,1,1,0,299.271,353.898)" d="M0 0V.738H-.378V0H-.792V.81H-1.17V-.396H.738V0" fill-rule="evenodd"/><path transform="matrix(0,1,1,0,290.811,351.378)" d="M0 0C.36-.108 .612-.45 .594-.81 .594-1.08 .504-1.314 .324-1.494 .126-1.656-.126-1.746-.432-1.746-.72-1.746-.972-1.656-1.17-1.494-1.35-1.314-1.44-1.08-1.44-.828-1.458-.648-1.404-.45-1.278-.288-1.152-.126-.99-.036-.81 0L-.648-.378C-.756-.378-.864-.432-.936-.504-1.008-.594-1.062-.72-1.062-.81-1.062-.954-1.008-1.08-.882-1.17-.774-1.26-.612-1.296-.432-1.296-.036-1.296 .216-1.116 .216-.81 .216-.72 .18-.612 .09-.504 .054-.468 .018-.432-.018-.414-.072-.378-.108-.378-.144-.378L0 0" fill-rule="evenodd"/><path transform="matrix(0,1,1,0,304.329,346.95)" d="M0 0V5.256C0 5.364 .018 5.472 .054 5.58 .09 5.706 .162 5.796 .234 5.886 .324 5.994 .414 6.066 .522 6.12 .63 6.156 .738 6.192 .846 6.21L2.232 6.372C2.34 6.372 2.466 6.354 2.574 6.264 2.628 6.21 2.664 6.156 2.682 6.102 2.718 6.048 2.718 5.994 2.718 5.94L2.79 6.228C2.736 6.318 2.646 6.39 2.538 6.444 2.448 6.498 2.322 6.516 2.214 6.498L.828 6.336C.702 6.336 .576 6.3 .468 6.228 .342 6.174 .234 6.084 .144 5.976 .036 5.886-.018 5.76-.072 5.634-.09 5.58-.108 5.508-.126 5.454-.126 5.382-.144 5.328-.144 5.256V0C-.144-.108-.126-.234-.072-.36-.018-.486 .036-.612 .144-.72 .234-.828 .342-.9 .468-.972 .522-.99 .576-1.026 .648-1.044 .702-1.062 .774-1.062 .828-1.08L2.214-1.242C2.322-1.242 2.448-1.224 2.538-1.17 2.646-1.134 2.736-1.044 2.79-.954L2.718-.666C2.718-.774 2.682-.9 2.574-.99 2.52-1.044 2.466-1.062 2.412-1.08 2.358-1.098 2.286-1.098 2.232-1.098L.846-.936C.63-.918 .414-.81 .234-.63 .072-.432 0-.216 0 0" fill-rule="evenodd"/><path transform="matrix(0,1,1,0,304.689,349.668)" d="M0 0V1.854C-.162 1.602-.27 1.278-.27 .936-.27 .594-.162 .27 0 0" fill-rule="evenodd"/><path transform="matrix(0,1,1,0,301.791,354.582)" d="M0 0V1.62H1.494C1.674 1.404 1.764 1.116 1.764 .81 1.764 .504 1.674 .216 1.494 0H0" fill-rule="evenodd"/><path transform="matrix(0,1,1,0,310.503,356.076)" d="M0 0H-1.494V1.638H0C.18 1.422 .27 1.134 .27 .828 .27 .504 .18 .234 0 0" fill-rule="evenodd"/><path transform="matrix(0,1,1,0,304.743,348.228)" d="M0 0C.234 0 .45 .108 .612 .27 .774 .432 .864 .648 .864 .882 .864 1.116 .774 1.332 .612 1.494 .45 1.656 .234 1.746 0 1.746-.234 1.746-.45 1.656-.612 1.494-.774 1.332-.864 1.116-.864 .882-.864 .648-.774 .432-.612 .27-.45 .108-.234 0 0 0" fill-rule="evenodd"/><path transform="matrix(0,1,1,0,311.115,346.932)" d="M0 0C.234 0 .45 .09 .612 .252 .774 .414 .864 .63 .864 .864 .864 1.098 .774 1.314 .612 1.476 .45 1.656 .234 1.746 0 1.746-.234 1.746-.45 1.656-.612 1.476-.774 1.314-.864 1.098-.864 .864-.864 .63-.774 .414-.612 .252-.45 .09-.234 0 0 0" fill-rule="evenodd"/><path transform="matrix(0,1,1,0,316.155,348.246)" d="M0 0-.972-2.25C-1.062-2.43-1.08-2.664-1.008-2.898-.954-3.132-.792-3.33-.63-3.438-.558-3.492-.486-3.564-.45-3.636-.36-3.816-.198-3.978 .018-4.068 .234-4.176 .45-4.176 .648-4.14L.918-4.068 .558-4.644 1.386-4.464 1.872-3.69 1.224-3.402 2.106-3.15 2.7-2.808 3.222-3.33H4.554L3.474-1.908 5.382-1.152 8.028-.864 7.812-.198 4.68-.18 2.538-.432 1.494-.792 .324-1.44 .576-.576 1.998-.27 1.98-.18 2.322-.09C2.34-.054 2.358-.018 2.34 .018 2.34 .072 2.322 .108 2.304 .144 2.286 .198 2.25 .216 2.214 .252 2.178 .27 2.142 .288 2.106 .288L1.818 .234 1.782 .342 0 0" fill-rule="evenodd"/><path transform="matrix(0,1,1,0,319.179,347.616)" d="M0 0C-.162-.144-.288-.324-.324-.558-.378-.792-.342-1.008-.234-1.188L.576-2.808 .828-2.844 2.358-2.556 1.224-2.232 .828-1.458 2.16-2.16 3.222-2.52 5.328-2.592 6.318-3.078H8.262L8.298-3.024 5.94-1.746 4.014-1.35 5.886-.558 8.532-.36V.342H5.76L4.032-.09 2.988-.414 2.322-.018 2.826-.09 4.32 .756 4.464 .81C4.5 .828 4.554 .846 4.59 .882 4.626 .9 4.644 .936 4.644 .99 4.662 1.062 4.626 1.152 4.536 1.188 4.482 1.206 4.446 1.206 4.392 1.224 4.338 1.224 4.284 1.224 4.23 1.224L4.122 1.206 4.086 1.332 2.682 .666 1.116 .738C.954 .756 .774 .72 .612 .63 .45 .54 .324 .414 .234 .27 .162 .162 .09 .072 0 0" fill-rule="evenodd"/><path transform="matrix(0,1,1,0,319.125,346.932)" d="M0 0C.234 0 .45 .09 .612 .252 .774 .414 .864 .63 .864 .864 .864 1.098 .774 1.314 .612 1.476 .45 1.638 .234 1.746 0 1.746-.234 1.746-.45 1.638-.612 1.476-.774 1.314-.882 1.098-.882 .864-.882 .63-.774 .414-.612 .252-.45 .09-.234 0 0 0" fill-rule="evenodd"/><path transform="matrix(0,1,1,0,307.785,345.456)" d="M0 0V-1.638L.54-1.89V-3.168C.54-3.366 .576-3.546 .63-3.744 .702-3.942 .81-4.14 .936-4.302 1.062-4.464 1.224-4.608 1.404-4.716 1.584-4.824 1.764-4.878 1.962-4.932L4.5-5.472 4.464-5.328 1.98-4.788C1.818-4.752 1.638-4.698 1.476-4.59 1.314-4.5 1.17-4.374 1.044-4.212 .918-4.05 .828-3.888 .756-3.708 .702-3.528 .666-3.348 .666-3.168V1.53C.666 1.692 .702 1.872 .756 2.07 .828 2.25 .918 2.412 1.044 2.574 1.17 2.718 1.314 2.844 1.476 2.952 1.638 3.042 1.818 3.114 1.98 3.15L4.464 3.69 4.5 3.834 1.962 3.276C1.764 3.24 1.584 3.168 1.404 3.06 1.224 2.952 1.062 2.826 .936 2.646 .81 2.484 .702 2.304 .63 2.106 .576 1.908 .54 1.71 .54 1.53V.252L0 0ZM.54 .09V-1.746L.126-1.548V-.09L.54 .09" fill-rule="evenodd"/><path transform="matrix(0,1,1,0,301.791,354.582)" d="M0 0V10.35C0 10.476-.054 10.62-.162 10.728-.27 10.854-.414 10.89-.54 10.89H-3.708C-3.888 10.89-4.086 10.836-4.248 10.692-4.41 10.566-4.518 10.386-4.554 10.206L-4.914 8.478V1.872L-4.554 .144C-4.518-.036-4.41-.216-4.248-.36-4.086-.486-3.888-.558-3.708-.558H-.54C-.396-.558-.27-.486-.162-.396-.054-.288 0-.144 0 0ZM-2.322 1.62C-2.106 1.62-1.89 1.548-1.746 1.386-1.584 1.242-1.494 1.026-1.494 .81-1.494 .594-1.584 .378-1.746 .234-1.89 .072-2.106 0-2.322 0-2.52 0-2.736 .072-2.898 .234-3.06 .396-3.132 .612-3.132 .81-3.132 1.026-3.06 1.242-2.898 1.386-2.754 1.548-2.538 1.62-2.322 1.62ZM-2.322 8.712C-2.538 8.712-2.754 8.802-2.898 8.946-3.06 9.108-3.132 9.324-3.132 9.54-3.132 9.756-3.06 9.954-2.898 10.116-2.754 10.26-2.538 10.35-2.322 10.35-2.106 10.35-1.89 10.26-1.746 10.116-1.584 9.954-1.494 9.756-1.494 9.54-1.494 9.324-1.584 9.108-1.746 8.946-1.89 8.802-2.106 8.712-2.322 8.712" fill="#ff0000" fill-rule="evenodd"/><path transform="matrix(0,1,1,0,305.229,350.532)" d="M0 0V.432H-.306V-.738H0V-.324H1.206V0" fill="#ffffff" fill-rule="evenodd"/><path transform="matrix(0,1,1,0,307.227,351.738)" d="M0 0-1.512-.486V-.954L0-1.422V-1.098L-.252-1.026V-.414L0-.342V0ZM-.54-.504V-.936L-1.206-.72-.54-.504" fill="#ffffff" fill-rule="evenodd"/><path transform="matrix(0,1,1,0,307.335,350.226)" d="M0 0 .72 .432 1.512-.036V.342L1.026 .63 1.512 .918V1.314L.72 .828 0 1.26V.9L.45 .63 0 .36" fill="#ffffff" fill-rule="evenodd"/><path transform="matrix(0,1,1,0,0,0)" d="M350.226 308.919H351.738V309.225H350.226Z" fill="#ffffff"/><path transform="matrix(0,1,1,0,304.329,358.884)" d="M0 0V5.256C0 5.364 .018 5.472 .054 5.58 .108 5.706 .162 5.796 .234 5.886 .324 5.994 .414 6.066 .522 6.12 .63 6.156 .738 6.192 .846 6.21L2.232 6.372C2.358 6.372 2.484 6.354 2.574 6.264 2.628 6.21 2.664 6.156 2.7 6.102 2.718 6.048 2.718 5.994 2.718 5.94L2.79 6.228C2.736 6.318 2.646 6.39 2.538 6.444 2.448 6.498 2.322 6.516 2.232 6.498L.828 6.336C.702 6.336 .576 6.3 .468 6.228 .342 6.174 .234 6.084 .144 5.976 .054 5.886-.018 5.76-.072 5.634-.09 5.58-.108 5.508-.126 5.454-.126 5.382-.144 5.328-.144 5.256V0C-.144-.108-.108-.234-.072-.36-.018-.486 .054-.612 .144-.72 .234-.828 .342-.9 .468-.972 .522-.99 .594-1.026 .648-1.044 .702-1.062 .774-1.062 .828-1.08L2.232-1.242C2.322-1.242 2.448-1.224 2.538-1.17 2.646-1.134 2.736-1.044 2.79-.954L2.718-.666C2.718-.774 2.682-.9 2.574-.99 2.538-1.044 2.466-1.062 2.412-1.08 2.358-1.098 2.286-1.098 2.232-1.098L.846-.936C.63-.918 .414-.81 .234-.63 .072-.432 0-.216 0 0" fill-rule="evenodd"/><path transform="matrix(0,1,1,0,304.689,361.602)" d="M0 0V1.854C-.162 1.602-.252 1.278-.252 .936-.252 .594-.162 .27 0 0" fill-rule="evenodd"/><path transform="matrix(0,1,1,0,301.791,366.516)" d="M0 0V1.62H1.512C1.674 1.404 1.764 1.116 1.764 .81 1.764 .504 1.674 .216 1.512 0H0" fill-rule="evenodd"/><path transform="matrix(0,1,1,0,310.503,368.028)" d="M0 0H-1.512V1.638H0C.162 1.422 .252 1.134 .252 .828 .252 .504 .162 .234 0 0" fill-rule="evenodd"/><path transform="matrix(0,1,1,0,304.743,360.162)" d="M0 0C.234 0 .45 .108 .612 .27 .792 .432 .882 .648 .882 .882 .882 1.116 .792 1.332 .612 1.494 .45 1.656 .234 1.746 0 1.746-.234 1.746-.45 1.656-.612 1.494-.774 1.332-.864 1.116-.864 .882-.864 .648-.774 .432-.612 .27-.45 .108-.234 0 0 0" fill-rule="evenodd"/><path transform="matrix(0,1,1,0,311.115,358.866)" d="M0 0C.234 0 .45 .09 .612 .252 .792 .414 .882 .63 .882 .864 .882 1.098 .792 1.314 .612 1.476 .45 1.656 .234 1.746 0 1.746-.234 1.746-.45 1.656-.612 1.476-.774 1.314-.864 1.098-.864 .864-.864 .63-.774 .414-.612 .252-.45 .09-.234 0 0 0" fill-rule="evenodd"/><path transform="matrix(0,1,1,0,313.347,362.88)" d="M0 0 .522-.522H1.854L.792 .9 2.682 1.656 5.346 1.944 5.112 2.61 1.98 2.628-.162 2.376-1.206 2.016-2.376 1.368-2.124 2.232-.702 2.538-.72 2.628-.36 2.718C-.342 2.79-.342 2.88-.396 2.952-.432 3.042-.522 3.078-.594 3.096L-.882 3.042-.918 3.15-2.7 2.808-3.672 .558C-3.762 .378-3.78 .144-3.708-.09-3.636-.324-3.492-.522-3.312-.63-3.24-.684-3.186-.756-3.15-.828-3.042-1.026-2.88-1.17-2.682-1.26-2.484-1.35-2.25-1.386-2.034-1.332L-1.764-1.26-2.142-1.836-1.314-1.656-.828-.882-1.458-.594-.594-.342 0 0" fill-rule="evenodd"/><path transform="matrix(0,1,1,0,316.623,361.908)" d="M0 0V0" fill-rule="evenodd"/><path transform="matrix(0,1,1,0,316.623,361.908)" d="M0 0-1.116 .324-1.53 1.098-.18 .396 .864 .036 2.97-.036 3.96-.522H5.904L5.94-.468 3.582 .81 1.656 1.206 3.528 1.998 6.174 2.196V2.898H3.402L1.674 2.466 .648 2.142-.036 2.538 .468 2.466 1.962 3.312 2.106 3.366C2.196 3.384 2.268 3.456 2.286 3.546 2.304 3.618 2.268 3.708 2.178 3.744 2.088 3.78 1.98 3.798 1.872 3.78L1.764 3.762 1.728 3.888 .324 3.222-1.224 3.294C-1.602 3.312-1.944 3.132-2.124 2.826-2.178 2.718-2.268 2.628-2.358 2.556-2.52 2.412-2.646 2.214-2.682 1.998-2.718 1.782-2.7 1.566-2.592 1.368L-1.782-.252-1.512-.288 0 0" fill-rule="evenodd"/><path transform="matrix(0,1,1,0,319.125,358.866)" d="M0 0C.234 0 .45 .09 .612 .252 .774 .414 .882 .63 .882 .864 .882 1.098 .774 1.314 .612 1.476 .45 1.638 .234 1.746 0 1.746-.234 1.746-.45 1.638-.612 1.476-.774 1.314-.864 1.098-.864 .864-.864 .63-.774 .414-.612 .252-.45 .09-.234 0 0 0" fill-rule="evenodd"/><path transform="matrix(0,1,1,0,307.785,357.39)" d="M0 0V-1.638L.54-1.89V-3.168C.54-3.366 .576-3.546 .63-3.744 .702-3.942 .81-4.14 .936-4.302 1.08-4.464 1.242-4.608 1.404-4.716 1.584-4.824 1.782-4.878 1.962-4.932L4.5-5.472 4.464-5.328 1.98-4.788C1.818-4.752 1.638-4.698 1.476-4.59 1.314-4.5 1.17-4.374 1.044-4.212 .918-4.05 .828-3.888 .774-3.708 .702-3.528 .684-3.348 .684-3.168V1.53C.684 1.692 .702 1.872 .774 2.07 .828 2.25 .918 2.412 1.044 2.574 1.17 2.718 1.314 2.844 1.476 2.952 1.638 3.042 1.818 3.114 1.98 3.15L4.464 3.69 4.5 3.834 1.962 3.276C1.782 3.24 1.584 3.168 1.404 3.06 1.242 2.952 1.08 2.826 .936 2.646 .81 2.484 .702 2.304 .63 2.106 .576 1.908 .54 1.71 .54 1.53V.252L0 0ZM.54 .09V-1.746L.126-1.548V-.09L.54 .09" fill-rule="evenodd"/><path transform="matrix(0,1,1,0,301.791,366.516)" d="M0 0V10.35C0 10.476-.054 10.62-.162 10.728-.27 10.854-.414 10.89-.54 10.89H-3.69C-3.888 10.89-4.086 10.836-4.248 10.692-4.41 10.566-4.518 10.386-4.554 10.206L-4.914 8.478V1.872L-4.554 .144C-4.518-.036-4.41-.216-4.248-.36-4.086-.486-3.888-.558-3.69-.558H-.54C-.396-.558-.27-.486-.162-.396-.054-.288 0-.144 0 0ZM-2.322 1.62C-2.106 1.62-1.89 1.548-1.746 1.386-1.584 1.242-1.494 1.026-1.494 .81-1.494 .594-1.584 .378-1.746 .234-1.89 .072-2.106 0-2.322 0-2.52 0-2.736 .072-2.898 .234-3.06 .396-3.132 .612-3.132 .81-3.132 1.026-3.042 1.242-2.898 1.386-2.736 1.548-2.538 1.62-2.322 1.62ZM-2.322 8.712C-2.538 8.712-2.736 8.802-2.898 8.946-3.042 9.108-3.132 9.324-3.132 9.54-3.132 9.756-3.042 9.954-2.898 10.116-2.736 10.26-2.538 10.35-2.322 10.35-2.106 10.35-1.89 10.26-1.746 10.116-1.584 9.954-1.494 9.756-1.494 9.54-1.494 9.324-1.584 9.108-1.746 8.946-1.89 8.802-2.106 8.712-2.322 8.712" fill="#00ff00" fill-rule="evenodd"/><path transform="matrix(0,1,1,0,305.229,362.466)" d="M0 0V.432H-.306V-.738H0V-.324H1.224V0" fill="#ffffff" fill-rule="evenodd"/><path transform="matrix(0,1,1,0,307.227,363.69)" d="M0 0-1.53-.486V-.954L0-1.422V-1.098L-.27-1.026V-.414L0-.342V0ZM-.558-.504V-.936L-1.224-.72-.558-.504" fill="#ffffff" fill-rule="evenodd"/><path transform="matrix(0,1,1,0,307.335,362.16)" d="M0 0 .72 .432 1.53-.036V.342L1.026 .63 1.53 .918V1.314L.72 .828 0 1.26V.9L.45 .63 0 .36" fill="#ffffff" fill-rule="evenodd"/><path transform="matrix(0,1,1,0,0,0)" d="M362.16 308.919H363.69V309.225H362.16Z" fill="#ffffff"/><path transform="matrix(0,1,1,0,289.245,356.148)" d="M0 0-.036-.234H2.322V-1.332H2.628V1.44H2.322V.072H1.26V1.152H.99V.072H.126L.072 .144 .036 .162 0 .108" fill-rule="evenodd"/><path transform="matrix(0,1,1,0,291.999,357.084)" d="M0 0H-.414V.702L-.216 .54-.036 .342 .126 .09 .27-.18 .468 .018 .396 .198 .27 .342 .414 .54 .54 .756 .648 .486 .702 .198 .756-.072 .774-.36 1.044-.306 .954 .234H1.854V.522H1.728V1.584H1.854V1.872H.954V.288L.846 .684 .702 1.026 .882 1.656 .99 2.34 .738 2.52 .666 1.89 .54 1.314 .27 1.71 .018 1.998-.18 1.8-.144 1.746V.81L-.216 .9-.234 .954-.252 .99H-.27L-.306 .954-.414 .792V2.088H0V2.394H-.666V1.242H-.81L-.864 1.278-.9 1.296-.918 1.26-.936 1.188-.972 .918H-.666V-.288H0V0ZM.144 .558 .108 .594V1.476L.27 1.26 .432 1.026 .144 .558ZM1.494 .522H1.188V1.5840001H1.494Z" fill-rule="evenodd"/><path transform="matrix(0,1,1,0,295.653,356.31)" d="M0 0H.234V.558H.63C1.29 .497 1.777 .431 2.25-.072L2.394-.27 2.628 0 2.358 .252 2.052 .468 1.71 .63 1.35 .738 1.566 .828 1.746 .954 1.926 1.098 2.052 1.26 2.25 .882 2.376 .468 2.61 .684 2.448 1.098 2.232 1.476 2.43 1.854 2.628 2.304 2.34 2.574 2.214 2.106 2.034 1.692 1.764 1.872 1.458 2.034 1.152 2.178 .81 2.286 .684 2.016 .756 1.998V1.656L.072 1.98-.09 1.71 0 1.674V0ZM.234 .828V1.548L1.062 1.206 1.152 1.458 .99 1.548V1.908L1.26 1.818 1.494 1.728 1.692 1.602 1.872 1.458 1.674 1.224 1.458 1.062 1.224 .936 .99 .864 .234 .828" fill-rule="evenodd"/><path transform="matrix(0,1,1,0,289.785,360.756)" d="M0 0H.252V.756H.432V1.044H.252V1.728H.432V2.034H.252V2.772H0V2.034H-.09L-.126 2.07-.162 2.088-.18 2.052-.198 1.98-.216 1.728H0V1.044H-.054L-.108 1.08H-.144L-.162 1.062-.18 1.008-.198 .756H0" fill-rule="evenodd"/><path transform="matrix(0,1,1,0,290.235,361.188)" d="M0 0 .18-.198 .324 .054 .522 .288 .324 .468 .144 .234" fill-rule="evenodd"/><path transform="matrix(0,1,1,0,289.983,361.71)" d="M0 0 .18-.198 .324 .09 .486 .324 .288 .504 .126 .252" fill-rule="evenodd"/><path transform="matrix(0,1,1,0,289.839,363.132)" d="M0 0 .216 .216V.27L.144 .306-.234 .504-.612 .72-.81 .522-.378 .27" fill-rule="evenodd"/><path transform="matrix(0,1,1,0,290.595,361.89)" d="M0 0 .144 .27-.072 .432 .162 .684 .324 .324 .468-.09 .684 .108 .612 .324H1.458V.63H1.368V1.278H1.458V1.566H.594L.684 1.764 .432 2.016 .306 1.584 .144 1.188-.144 1.476-.468 1.746-.666 1.53-.558 1.422V.756L-.612 .792-.648 .882-.684 .9-.72 .864-.738 .792-.792 .558-.576 .45-.36 .324-.162 .162 0 0ZM-.306 .594V1.242L-.144 1.098 0 .936-.126 .756-.306 .594ZM.576 1.476V.414L.468 .702 .324 .936 .576 1.476ZM1.116 .63H.81000009V1.27798H1.116Z" fill-rule="evenodd"/><path transform="matrix(0,1,1,0,293.871,361.494)" d="M0 0H-.414V.72L-.216 .54-.018 .342 .126 .108 .27-.18 .486 .018 .396 .216 .288 .36 .432 .54 .558 .774 .648 .486 .72 .216 .756-.072 .774-.36 1.044-.288 .954 .252H1.854V.522H1.728V1.602H1.854V1.89H.954V.288L.846 .702 .702 1.026 .882 1.656 1.008 2.358 .738 2.52 .666 1.89 .54 1.314 .27 1.71 .018 2.016-.162 1.8-.144 1.746V.828L-.216 .918-.234 .972-.252 .99H-.27L-.306 .954-.414 .792V2.106H0V2.394H-.648V1.242H-.792L-.846 1.296H-.882L-.918 1.278-.936 1.206-.954 .936H-.648V-.288H0V0ZM.162 .558 .108 .612V1.476L.288 1.278 .432 1.026 .162 .558ZM1.494 .522H1.188V1.602H1.494Z" fill-rule="evenodd"/><path transform="matrix(0,1,1,0,305.409,364.356)" d="M0 0 .27-.144V-.36H1.638V-.18H1.494V.198H1.62V.36H.27V.054L.09 .162 .072 .198H.054L.036 .18 .018 .126 0 0ZM.792-.18H.43197999V.19799H.792ZM1.332-.18H.97198V.19799H1.332Z" fill="#ffffff" fill-rule="evenodd"/><path transform="matrix(0,1,1,0,306.219,364.392)" d="M0 0-.036-.108 .144-.198 .306-.27 .45-.36 .576-.45 .666-.288 .54-.198 .396-.126V.27H.864C1.096 .306 1.405 .319 1.44 .018V-.126L1.602-.036V.072C1.73 .472 1.087 .447 .864 .45H.234V-.036L.072 .036 .054 .072H.036L.018 .054" fill="#ffffff" fill-rule="evenodd"/><path transform="matrix(0,1,1,0,306.057,365.094)" d="M0 0 .108-.108 .432 .144 .306 .288 .144 .162" fill="#ffffff" fill-rule="evenodd"/><path transform="matrix(0,1,1,0,308.163,364.356)" d="M0 0V-.144H.54V-.9H.72V-.144H1.386V-.792H1.548V.666H1.386V.036H.72V.774H.54V.036H.09L.054 .09H.036L.018 .054" fill="#ffffff" fill-rule="evenodd"/><path transform="matrix(0,1,1,0,305.409,352.404)" d="M0 0 .288-.144V-.36H1.656V-.18H1.512V.198H1.638V.36H.288V.054L.108 .162 .09 .198H.072L.054 .18 .036 .126 0 0ZM.81-.18H.44998V.19799H.81ZM1.35-.18H.97201V.19799H1.35Z" fill="#ffffff" fill-rule="evenodd"/><path transform="matrix(0,1,1,0,306.219,352.458)" d="M0 0-.036-.108 .144-.198 .306-.27 .45-.36 .576-.45 .666-.288 .54-.198 .396-.126V.27H.864C1.078 .313 1.412 .303 1.44 .018V-.126L1.602-.036V.072C1.698 .48 1.109 .443 .864 .45H.234V-.036L.072 .036 .054 .072H.036L.018 .054" fill="#ffffff" fill-rule="evenodd"/><path transform="matrix(0,1,1,0,306.057,353.142)" d="M0 0 .126-.108 .27 .018 .45 .144 .324 .288 .144 .162" fill="#ffffff" fill-rule="evenodd"/><path transform="matrix(0,1,1,0,308.163,352.422)" d="M0 0V-.144H.54V-.9H.72V-.144H1.386V-.792H1.548V.666H1.386V.036H.72V.774H.54V.036H.072L.054 .09H.036L.018 .054" fill="#ffffff" fill-rule="evenodd"/></g></svg>