<?xml version='1.0' encoding='UTF-8'?>
<svg xmlns="http://www.w3.org/2000/svg" xmlns:xlink="http://www.w3.org/1999/xlink" xmlns:inkscape="http://www.inkscape.org/namespaces/inkscape" version="1.1" width="566.700" height="269.280" viewBox="0 0 566.700 269.280"><g transform="scale(10.0) translate(-165.765, -370.368)"><defs><clipPath id="clip_19"><path transform="matrix(0,1,1,0,0,0)" d="M0 19.875H595.008V822.117H0Z"/></clipPath><clipPath id="clip_20"><path transform="matrix(0,1,1,0,0,0)" d="M0 842.013H595.224V.008972168H0Z"/></clipPath></defs><path transform="matrix(0,1,1,0,215.679,371.844)" d="M0 0V-42.894C0-43.11 .036-43.344 .126-43.578 .216-43.812 .36-44.028 .54-44.208 .738-44.388 .954-44.532 1.17-44.622 1.404-44.712 1.638-44.748 1.872-44.748H22.374C22.59-44.748 22.824-44.712 23.058-44.622 23.292-44.532 23.508-44.388 23.688-44.208 23.886-44.028 24.012-43.812 24.12-43.578 24.21-43.344 24.246-43.11 24.246-42.894V0C24.246 .216 24.21 .45 24.12 .684 24.012 .918 23.886 1.134 23.688 1.314 23.508 1.512 23.292 1.638 23.058 1.746 22.824 1.836 22.59 1.872 22.374 1.872H1.872C1.368 1.872 .9 1.674 .54 1.314 .198 .972 0 .504 0 0" fill="#00ff00" fill-rule="evenodd"/><path transform="matrix(0,1,1,0,190.983,375.57)" d="M0 0V-13.986C0-14.166 .036-14.328 .108-14.508 .162-14.688 .27-14.85 .414-14.976 .558-15.12 .72-15.228 .882-15.3 1.062-15.372 1.242-15.39 1.404-15.39H15.39C15.552-15.39 15.732-15.372 15.912-15.3 16.074-15.228 16.236-15.12 16.38-14.976 16.524-14.85 16.614-14.688 16.686-14.508 16.758-14.328 16.794-14.166 16.794-13.986V0C16.794 .162 16.758 .324 16.686 .504 16.614 .684 16.524 .846 16.38 .972 16.236 1.116 16.074 1.224 15.912 1.296 15.732 1.368 15.552 1.386 15.39 1.386H1.404C1.242 1.386 1.062 1.368 .882 1.296 .72 1.224 .558 1.116 .414 .972 .27 .846 .162 .684 .108 .504 .036 .324 0 .162 0 0ZM.468 0C.468 .234 .576 .468 .738 .648 .918 .828 1.152 .918 1.404 .918H15.39C15.498 .918 15.624 .9 15.732 .864 15.84 .81 15.948 .738 16.056 .648 16.236 .468 16.326 .216 16.326 0V-13.986C16.326-14.22 16.236-14.472 16.056-14.652 15.858-14.85 15.606-14.922 15.39-14.922H1.404C1.296-14.922 1.17-14.904 1.062-14.868 .936-14.814 .828-14.742 .738-14.652 .558-14.472 .468-14.22 .468-13.986V0" fill="#ff0000" fill-rule="evenodd"/><path transform="matrix(0,1,1,0,176.997,376.038)" d="M0 0V13.986C0 14.094 .018 14.202 .072 14.328 .108 14.436 .18 14.544 .27 14.634 .36 14.724 .468 14.796 .594 14.85 .702 14.886 .828 14.904 .936 14.904H14.922C15.138 14.904 15.39 14.832 15.588 14.634 15.768 14.454 15.858 14.202 15.858 13.986V0C15.858-.234 15.768-.486 15.588-.666 15.39-.864 15.138-.936 14.922-.936H.936C.684-.936 .45-.846 .27-.666 .108-.486 0-.252 0 0" fill="#ffffff" fill-rule="evenodd"/><path transform="matrix(0,1,1,0,184.449,380.7)" d="M0 0V1.404L-3.258 .936V0" fill="#ff0000" fill-rule="evenodd"/><path transform="matrix(0,1,1,0,190.515,381.636)" d="M0 0V-13.068H.936V-12.132C.936-12.024 .972-11.898 1.062-11.79 1.17-11.7 1.278-11.664 1.404-11.664H2.79V-10.728L1.278-10.35C1.188-10.332 1.098-10.278 1.026-10.188 .954-10.098 .936-9.99 .936-9.9V-3.168C.936-3.078 .954-2.97 1.026-2.88 1.098-2.79 1.188-2.736 1.278-2.718L2.79-2.34V-1.404H1.404C1.35-1.404 1.278-1.404 1.224-1.368 1.17-1.35 1.116-1.314 1.062-1.26 1.026-1.224 .99-1.17 .972-1.116 .936-1.044 .936-.99 .936-.936V0H0" fill="#ff0000" fill-rule="evenodd"/><path transform="matrix(0,1,1,0,186.249,383.508)" d="M0 0V-1.8H6.984V.99" fill="#ff0000" fill-rule="evenodd"/><path transform="matrix(0,1,1,0,181.713,383.508)" d="M0 0V1.8H6.984V-.99" fill="#ff0000" fill-rule="evenodd"/><path transform="matrix(0,1,1,0,183.513,380.7)" d="M0 0V-1.404L-3.258-.936V0" fill="#ff0000" fill-rule="evenodd"/><path transform="matrix(0,1,1,0,204.501,392.364)" d="M0 0C-.144 .54-.342 1.098-.576 1.656-.828 2.196-1.116 2.736-1.458 3.258-2.142 4.32-2.988 5.256-4.014 6.048-5.04 6.822-6.174 7.416-7.344 7.812-7.938 8.01-8.532 8.154-9.126 8.244-9.72 8.334-10.314 8.388-10.89 8.388H-16.794V-8.406H-10.89C-10.314-8.406-9.72-8.352-9.126-8.262-8.532-8.172-7.938-8.028-7.344-7.83-6.174-7.434-5.04-6.84-4.014-6.048-2.988-5.274-2.142-4.32-1.458-3.276-1.116-2.754-.828-2.214-.576-1.674-.342-1.116-.144-.558 0 0" fill="#ffff00" fill-rule="evenodd"/><path transform="matrix(0,1,1,0,201.009,386.712)" d="M0 0C.738 .306 1.314 .774 1.692 1.368 2.088 1.962 2.286 2.682 2.286 3.492 2.286 4.122 2.178 4.716 1.944 5.22 1.728 5.742 1.368 6.174 .918 6.516 .45 6.876-.108 7.146-.774 7.326-1.44 7.506-2.196 7.578-3.024 7.578-4.968 7.578-6.444 7.218-7.434 6.498-8.406 5.76-8.892 4.68-8.892 3.222-8.892 2.754-8.82 2.286-8.64 1.836-8.46 1.386-8.19 .972-7.83 .63-7.47 .306-7.038 .036-6.552-.126-6.084-.288-5.58-.378-5.076-.378H-4.806C-4.302-.378-3.816-.288-3.366-.126-2.916 .036-2.52 .288-2.178 .612-1.854 .954-1.602 1.35-1.44 1.8-1.278 2.25-1.206 2.736-1.206 3.24-1.206 3.528-1.224 3.798-1.242 4.05-1.278 4.302-1.332 4.518-1.386 4.716-1.53 5.094-1.71 5.31-1.926 5.364-1.602 5.364-1.296 5.31-1.026 5.238-.774 5.166-.54 5.04-.36 4.896 .018 4.59 .198 4.14 .216 3.6 .216 3.294 .126 2.988-.072 2.7-.27 2.394-.558 2.124-.9 1.872L0 0ZM-6.912 3.438C-6.912 3.654-6.876 3.888-6.786 4.086-6.714 4.302-6.57 4.482-6.408 4.644-6.228 4.788-6.03 4.914-5.796 4.986-5.562 5.076-5.328 5.112-5.094 5.112-4.572 5.112-4.104 4.95-3.78 4.644-3.438 4.338-3.258 3.924-3.258 3.438-3.258 3.222-3.294 3.006-3.384 2.79-3.474 2.592-3.6 2.394-3.78 2.25-3.942 2.088-4.158 1.962-4.374 1.89-4.608 1.818-4.842 1.782-5.094 1.782-5.616 1.782-6.066 1.944-6.408 2.25-6.732 2.556-6.912 2.97-6.912 3.438" fill-rule="evenodd"/></g></svg>