<?xml version='1.0' encoding='UTF-8'?>
<svg xmlns="http://www.w3.org/2000/svg" xmlns:xlink="http://www.w3.org/1999/xlink" xmlns:inkscape="http://www.inkscape.org/namespaces/inkscape" version="1.1" width="567.000" height="269.280" viewBox="0 0 567.000 269.280"><g transform="scale(10.0) translate(-329.439, -531.936)"><defs><clipPath id="clip_2"><path transform="matrix(1,0,0,-1,0,595.276)" d="M74.4 .196H767.4V595.276H74.4Z"/></clipPath></defs><path transform="matrix(1,0,0,-1,0,595.276)" d="M339.48 62.716H376.08C376.2 62.716 376.32 62.716 376.44 62.716 376.56 62.596 376.68 62.596 376.8 62.476 376.92 62.356 377.04 62.236 377.04 62.116 377.04 61.996 377.16 61.876 377.16 61.756V37.996C377.16 37.756 377.04 37.516 376.8 37.276 376.56 37.036 376.32 37.036 376.08 37.036H339.48C339.24 37.036 339 37.036 338.76 37.276 338.52 37.516 338.52 37.756 338.52 37.996V61.756C338.52 61.996 338.52 62.236 338.76 62.476 338.88 62.596 339 62.596 339.12 62.716 339.24 62.716 339.36 62.716 339.48 62.716ZM339.48 62.236C339.36 62.236 339.24 62.236 339.12 62.116 339 61.996 339 61.876 339 61.756V37.996 37.876C339 37.756 339.12 37.756 339.12 37.636 339.24 37.516 339.36 37.516 339.48 37.516H376.08C376.2 37.516 376.2 37.516 376.32 37.516L376.44 37.636C376.56 37.756 376.56 37.876 376.56 37.996V61.756 61.876C376.56 61.996 376.44 61.996 376.44 62.116 376.32 62.236 376.2 62.236 376.08 62.236H339.48Z" fill-rule="evenodd"/><path transform="matrix(1,0,0,-1,0,595.276)" d="M354.12 58.636 354 58.396H353.88C353.76 58.396 353.76 58.516 353.76 58.516 353.64 58.396 353.52 58.396 353.4 58.396 353.04 58.396 352.92 58.516 352.92 58.876 352.92 58.996 352.92 59.116 353.04 59.116 353.16 59.236 353.4 59.236 353.64 59.236V59.356 59.476H353.52C353.4 59.476 353.28 59.476 353.28 59.476 353.16 59.356 353.16 59.356 353.04 59.356L352.92 59.596C353.04 59.716 353.28 59.836 353.52 59.836 353.64 59.836 353.76 59.716 353.88 59.716 354 59.596 354 59.596 354 59.356V58.756C354 58.636 354.12 58.636 354.12 58.636ZM353.28 58.876V58.756C353.28 58.636 353.4 58.636 353.52 58.636L353.64 58.756V58.996C353.52 58.996 353.4 58.996 353.4 58.996L353.28 58.876Z" fill-rule="evenodd"/><path transform="matrix(1,0,0,-1,0,595.276)" d="M355.68 59.476C355.68 59.476 355.56 59.356 355.44 59.236V58.396H355.2V59.356C355.08 59.356 355.08 59.476 354.96 59.476 354.84 59.476 354.72 59.356 354.72 59.236V58.396H354.36V59.716H354.72 354.84C354.96 59.836 354.96 59.836 355.08 59.836 355.2 59.836 355.32 59.716 355.44 59.596 355.44 59.716 355.56 59.836 355.8 59.836 356.04 59.716 356.16 59.716 356.28 59.476V59.356 58.396H355.92V59.356H355.8C355.8 59.476 355.8 59.476 355.68 59.476Z" fill-rule="evenodd"/><path transform="matrix(1,0,0,-1,0,595.276)" d="M351.12 58.396H351.48L352.08 59.836V60.196H350.88V59.836H351.72Z" fill-rule="evenodd"/><path transform="matrix(1,0,0,-1,0,595.276)" d="M357.84 59.236H357.24V58.876H357.84Z" fill-rule="evenodd"/><path transform="matrix(1,0,0,-1,0,595.276)" d="M362.4 59.116C362.4 59.356 362.4 59.476 362.28 59.596 362.16 59.716 361.92 59.836 361.8 59.836 361.68 59.836 361.44 59.716 361.44 59.716H361.08V58.036H361.44V58.516C361.56 58.396 361.68 58.396 361.8 58.396 362.16 58.396 362.4 58.636 362.4 59.116ZM361.8 58.756C361.68 58.756 361.68 58.756 361.56 58.756V58.876H361.44V59.236C361.44 59.356 361.56 59.476 361.68 59.476H361.8L362.04 59.356V59.236 58.996 58.876C362.04 58.756 361.8 58.756 361.8 58.756Z" fill-rule="evenodd"/><path transform="matrix(1,0,0,-1,0,595.276)" d="M364.08 59.476C363.96 59.476 363.84 59.356 363.84 59.236V58.396H363.48V59.356C363.48 59.356 363.36 59.476 363.24 59.476 363.12 59.476 363 59.356 363 59.236V58.396H362.64V59.716H363C363.12 59.716 363.12 59.716 363.24 59.716 363.24 59.836 363.24 59.836 363.36 59.836 363.48 59.836 363.6 59.716 363.72 59.596 363.84 59.716 363.96 59.836 364.08 59.836 364.32 59.716 364.44 59.716 364.56 59.476V59.356 58.396H364.2V59.356L364.08 59.476Z" fill-rule="evenodd"/><path transform="matrix(1,0,0,-1,0,595.276)" d="M358.92 58.756C359.04 58.516 359.16 58.396 359.52 58.396 359.76 58.396 359.88 58.396 360 58.636 360.12 58.756 360.24 58.996 360.24 59.236 360.24 59.596 360.12 59.836 360 60.076 359.88 60.196 359.64 60.316 359.4 60.316 359.28 60.316 359.16 60.196 359.04 60.076 358.92 59.956 358.8 59.836 358.8 59.596 358.8 59.476 358.92 59.236 359.04 59.116 359.16 58.996 359.28 58.996 359.4 58.996 359.52 58.996 359.64 58.996 359.76 58.996V59.116 58.996 58.876C359.64 58.756 359.64 58.756 359.52 58.756H359.4C359.28 58.756 359.28 58.876 359.16 58.876L358.92 58.756ZM359.52 59.956C359.52 59.956 359.64 59.956 359.64 59.836 359.76 59.836 359.76 59.716 359.76 59.596 359.76 59.476 359.64 59.356 359.52 59.356 359.4 59.356 359.28 59.356 359.28 59.356 359.28 59.476 359.16 59.596 359.16 59.596 359.16 59.836 359.28 59.956 359.52 59.956Z" fill-rule="evenodd"/><path transform="matrix(1,0,0,-1,0,595.276)" d="M356.28 50.476H356.64V50.236H356.28V49.636C356.28 49.636 356.28 49.516 356.4 49.516H356.52 356.64L356.76 49.276C356.64 49.156 356.52 49.156 356.28 49.156 356.28 49.156 356.16 49.156 356.04 49.276 356.04 49.276 356.04 49.396 355.92 49.516V50.236H355.8V50.476H355.92V50.956L356.28 51.076V50.476Z" fill-rule="evenodd"/><path transform="matrix(1,0,0,-1,0,595.276)" d="M358.8 49.876C358.8 50.356 358.56 50.596 358.2 50.596 357.96 50.596 357.84 50.476 357.72 50.356 357.6 50.236 357.48 50.116 357.48 49.876 357.48 49.396 357.72 49.156 358.2 49.156 358.32 49.156 358.56 49.276 358.68 49.396 358.8 49.516 358.8 49.636 358.8 49.876ZM358.44 49.876C358.44 49.636 358.32 49.516 358.2 49.516 357.96 49.516 357.96 49.636 357.96 49.876 357.96 50.116 357.96 50.236 358.2 50.236 358.32 50.236 358.44 50.116 358.44 49.876Z" fill-rule="evenodd"/><path transform="matrix(1,0,0,-1,0,595.276)" d="M359.52 50.476H359.88V50.236H359.52V49.636 49.516H359.64 359.76 359.88V49.276C359.88 49.156 359.76 49.156 359.52 49.156 359.4 49.156 359.4 49.156 359.28 49.276 359.28 49.276 359.16 49.396 359.16 49.516V50.236H358.92V50.476H359.16V50.956L359.52 51.076V50.476Z" fill-rule="evenodd"/><path transform="matrix(1,0,0,-1,0,595.276)" d="M360.48 50.476C360.72 50.596 360.84 50.596 361.08 50.476 361.08 50.476 361.2 50.476 361.2 50.356 361.32 50.236 361.32 50.116 361.32 50.116V49.276H360.96V49.996 50.116C360.84 50.236 360.84 50.236 360.72 50.236 360.72 50.236 360.6 50.236 360.6 50.116H360.48V49.996 49.276H360.12V51.076H360.48V50.476Z" fill-rule="evenodd"/><path transform="matrix(1,0,0,-1,0,595.276)" d="M362.88 49.756C362.88 50.236 362.64 50.596 362.28 50.596 361.92 50.596 361.68 50.356 361.68 49.876 361.68 49.636 361.68 49.516 361.8 49.396 361.92 49.276 362.16 49.156 362.28 49.156 362.52 49.156 362.76 49.276 362.76 49.396L362.64 49.636C362.52 49.516 362.4 49.516 362.28 49.516H362.16L362.04 49.636V49.756H362.88ZM362.04 49.996V49.996C362.04 50.116 362.04 50.116 362.04 50.236 362.16 50.236 362.16 50.236 362.28 50.236 362.4 50.236 362.52 50.116 362.52 49.996H362.04Z" fill-rule="evenodd"/><path transform="matrix(1,0,0,-1,0,595.276)" d="M363.12 49.276V50.596H363.48V50.356C363.48 50.476 363.6 50.476 363.6 50.596 363.72 50.596 363.84 50.596 363.96 50.596V50.236C363.84 50.236 363.72 50.116 363.6 50.116L363.48 49.996V49.276H363.12Z" fill-rule="evenodd"/><path transform="matrix(1,0,0,-1,0,595.276)" d="M365.28 50.476H365.64V50.236H365.28V49.636 49.516H365.4 365.52 365.64V49.276C365.64 49.156 365.52 49.156 365.28 49.156 365.16 49.156 365.04 49.156 365.04 49.276 364.92 49.276 364.92 49.396 364.92 49.516V50.236H364.68V50.476H364.92V50.956L365.28 51.076V50.476Z" fill-rule="evenodd"/><path transform="matrix(1,0,0,-1,0,595.276)" d="M366.24 49.276V50.476H365.88V49.276Z" fill-rule="evenodd"/><path transform="matrix(1,0,0,-1,0,595.276)" d="M366.36 50.836C366.36 50.956 366.24 51.076 366.12 51.076 366 51.076 365.88 50.956 365.88 50.836 365.88 50.716 366 50.596 366.12 50.596 366.24 50.596 366.36 50.716 366.36 50.836Z" fill-rule="evenodd"/><path transform="matrix(1,0,0,-1,0,595.276)" d="M367.92 50.236C367.8 50.236 367.8 50.116 367.68 49.996V49.276H367.32V50.116C367.32 50.116 367.32 50.236 367.2 50.236 367.08 50.236 366.96 50.116 366.96 49.996V49.276H366.6V50.476H366.96C366.96 50.476 367.08 50.476 367.08 50.596 367.2 50.596 367.2 50.596 367.32 50.596 367.44 50.596 367.56 50.476 367.68 50.356 367.68 50.476 367.8 50.596 368.04 50.596 368.28 50.596 368.4 50.476 368.52 50.236V50.116 49.276H368.16V50.116C368.16 50.116 368.16 50.236 368.04 50.236H367.92Z" fill-rule="evenodd"/><path transform="matrix(1,0,0,-1,0,595.276)" d="M369.96 49.756C369.96 50.236 369.84 50.596 369.36 50.596 369 50.596 368.88 50.356 368.76 49.876 368.76 49.636 368.88 49.516 369 49.396 369.12 49.276 369.24 49.156 369.48 49.156 369.72 49.156 369.84 49.276 369.96 49.396L369.72 49.636C369.72 49.516 369.6 49.516 369.48 49.516 369.36 49.516 369.36 49.516 369.24 49.516V49.636L369.12 49.756H369.96ZM369.12 49.996V49.996C369.12 50.116 369.24 50.116 369.24 50.236H369.36C369.48 50.236 369.6 50.116 369.6 49.996H369.12Z" fill-rule="evenodd"/><path transform="matrix(1,0,0,-1,0,595.276)" d="M371.28 49.636C371.28 49.876 371.16 49.996 370.92 50.116 370.8 50.116 370.68 50.116 370.68 50.116 370.68 50.236 370.68 50.236 370.8 50.236H370.92C371.04 50.236 371.04 50.236 371.04 50.116L371.28 50.356C371.16 50.476 371.04 50.596 370.8 50.596 370.44 50.596 370.32 50.476 370.2 50.116 370.32 49.876 370.44 49.756 370.68 49.756 370.8 49.756 370.92 49.636 370.92 49.636V49.516H370.8C370.68 49.516 370.68 49.516 370.56 49.516L370.44 49.636 370.2 49.396C370.32 49.276 370.56 49.156 370.8 49.156 371.16 49.156 371.28 49.276 371.28 49.636Z" fill-rule="evenodd"/><path transform="matrix(1,0,0,-1,0,595.276)" d="M344.76 52.276H352.08C352.2 52.276 352.32 52.276 352.44 52.156 352.56 52.036 352.56 51.916 352.56 51.676V39.676C352.56 39.436 352.56 39.316 352.44 39.196 352.32 39.076 352.2 39.076 352.08 39.076H344.76C344.64 39.076 344.4 39.076 344.28 39.196 344.28 39.316 344.16 39.436 344.16 39.676V51.676C344.16 51.796 344.16 51.916 344.16 51.916 344.28 52.036 344.28 52.036 344.28 52.156 344.4 52.156 344.52 52.276 344.52 52.276 344.64 52.276 344.64 52.276 344.76 52.276ZM344.76 52.156C344.64 52.156 344.52 52.036 344.52 52.036 344.4 51.916 344.4 51.796 344.4 51.676V39.676C344.4 39.556 344.4 39.556 344.4 39.436L344.52 39.316C344.52 39.316 344.64 39.196 344.76 39.196H352.08L352.2 39.316H352.32C352.32 39.436 352.44 39.556 352.44 39.676V51.676C352.44 51.796 352.44 51.796 352.44 51.916 352.32 51.916 352.32 51.916 352.32 52.036 352.2 52.036 352.08 52.156 352.08 52.156H344.76Z" fill-rule="evenodd"/><path transform="matrix(1,0,0,-1,0,595.276)" d="M347.28 40.036V40.156 40.276C347.28 40.396 347.28 40.396 347.16 40.516 347.04 40.636 346.92 40.636 346.8 40.636 346.68 40.636 346.56 40.636 346.44 40.516 346.44 40.396 346.32 40.276 346.32 40.156V40.036H345.12C345 40.036 345 40.036 345 40.156 344.88 40.156 344.88 40.156 344.88 40.276V40.636 40.756L345.12 41.356 345.24 42.916 345.36 43.036H345.48 351.48C351.6 43.036 351.72 43.036 351.72 42.916 351.84 42.916 351.84 42.796 351.84 42.796V42.676 40.276L350.4 40.036H350.16V40.156C350.16 40.276 350.04 40.396 350.04 40.516 349.92 40.636 349.8 40.636 349.68 40.636 349.56 40.636 349.44 40.636 349.32 40.516 349.2 40.396 349.2 40.276 349.2 40.156V40.036H347.28ZM350.76 41.716V41.116H351.72V41.716H350.76ZM349.68 41.716V41.116H350.52V41.716H349.68ZM348.6 41.716V41.116H349.44V41.716H348.6ZM347.52 41.716V41.116H348.36V41.716H347.52ZM346.44 41.116H347.28V41.716H346.44V41.116ZM345.72 40.276H346.32V41.716H345.72V40.276ZM345.12 41.236H345.48V41.716H345.24L345.12 41.236ZM345.36 42.316H346.32V42.796H345.48L345.36 42.316ZM346.44 42.316H347.28V42.796H346.44V42.316ZM347.52 42.316H348.36V42.796H347.52V42.316ZM348.6 42.316H349.44V42.796H348.6V42.316ZM350.52 42.316V42.796H349.68V42.316H350.52ZM350.76 42.316H351.72V42.676C351.72 42.796 351.6 42.796 351.48 42.796H350.76V42.316Z" fill-rule="evenodd"/><path transform="matrix(1,0,0,-1,0,595.276)" d="M347.28 40.036V40.036Z" fill-rule="evenodd"/><path transform="matrix(1,0,0,-1,0,595.276)" d="M350.04 40.156C350.04 40.396 349.8 40.516 349.68 40.516 349.44 40.516 349.2 40.396 349.2 40.156 349.2 39.916 349.44 39.796 349.68 39.796 349.8 39.796 350.04 39.916 350.04 40.156ZM349.8 40.156C349.8 40.036 349.8 39.916 349.68 39.916 349.56 39.916 349.44 40.036 349.44 40.156 349.44 40.276 349.56 40.276 349.68 40.276 349.8 40.276 349.8 40.276 349.8 40.156Z" fill-rule="evenodd"/><path transform="matrix(1,0,0,-1,0,595.276)" d="M347.28 40.156C347.28 40.396 347.04 40.516 346.8 40.516 346.68 40.516 346.44 40.396 346.44 40.156 346.44 39.916 346.68 39.796 346.8 39.796 347.04 39.796 347.28 39.916 347.28 40.156ZM347.04 40.156C347.04 40.036 346.92 39.916 346.8 39.916 346.68 39.916 346.68 40.036 346.68 40.156 346.68 40.276 346.68 40.276 346.8 40.276 346.92 40.276 347.04 40.276 347.04 40.156Z" fill-rule="evenodd"/><path transform="matrix(1,0,0,-1,0,595.276)" d="M344.76 51.916H352.08 352.2C352.2 51.796 352.2 51.796 352.2 51.676V43.756 43.636C352.2 43.636 352.08 43.636 352.08 43.516H344.76C344.76 43.516 344.64 43.516 344.64 43.636 344.52 43.636 344.52 43.756 344.52 43.756V51.676C344.52 51.796 344.64 51.916 344.76 51.916Z" fill-rule="evenodd"/><path transform="matrix(1,0,0,-1,0,595.276)" d="M355.68 49.276 355.08 51.076H354.84 354.48L354 49.276H354.36L354.48 49.516H354.84 355.2V49.276H355.68ZM355.08 49.876H354.84 354.6L354.84 50.716 355.08 49.876Z" fill-rule="evenodd"/><path transform="matrix(1,0,0,-1,0,595.276)" d="M347.4 47.116H349.44C349.8 47.116 350.16 47.236 350.52 47.596 350.88 47.836 351 48.316 351 48.676V49.396C351 49.756 350.88 50.236 350.52 50.476 350.16 50.836 349.8 50.956 349.44 50.956H345.84V44.476H347.4V47.116ZM347.4 48.076V49.876H348.72C348.84 49.876 349.08 49.876 349.2 49.756 349.32 49.636 349.32 49.516 349.44 49.396 349.44 49.396 349.44 49.276 349.44 49.156V48.916C349.44 48.676 349.32 48.556 349.2 48.316 349.08 48.196 348.84 48.076 348.72 48.076H347.4Z" fill="#ffffff" fill-rule="evenodd"/><path transform="matrix(1,0,0,-1,0,595.276)" d="M354.48 47.476V47.236H354.96V46.036H354.36V45.796H357V46.036H356.4V47.236H356.88V47.476H356.4V47.596 47.716L356.16 47.836V47.476H355.32V47.716L354.96 47.836V47.476H354.48ZM355.32 46.516V46.756H356.16V46.516H355.32ZM355.32 46.996V47.236H356.16V46.996H355.32ZM355.32 46.036V46.276H356.16V46.036H355.32Z" fill-rule="evenodd"/><path transform="matrix(1,0,0,-1,0,595.276)" d="M354.48 45.316 354.6 45.196H354.84L355.08 45.316 355.2 45.436 355.32 45.556H355.44V45.676L355.2 45.796 355.08 45.676 354.84 45.556 354.72 45.436Z" fill-rule="evenodd"/><path transform="matrix(1,0,0,-1,0,595.276)" d="M356.16 45.796 355.92 45.676 356.28 45.316 356.64 45.196 357 45.316 356.52 45.556Z" fill-rule="evenodd"/><path transform="matrix(1,0,0,-1,0,595.276)" d="M358.68 47.716 358.56 47.836 358.32 47.476 358.2 47.116 358.08 46.876 357.84 46.636 358.08 46.396 358.2 46.636V45.196H358.44V47.116L358.68 47.596H358.8V47.716Z" fill-rule="evenodd"/><path transform="matrix(1,0,0,-1,0,595.276)" d="M358.92 47.476V46.756L358.56 46.636 358.68 46.396 358.92 46.516V45.556 45.436 45.316L359.04 45.196H359.28 360.12 360.24L360.36 45.316H360.48V45.436L360.6 45.676 360.36 45.796 360.24 45.676V45.556H360.12 359.4L359.28 45.436 359.16 45.556V45.676 46.516L359.4 46.636V45.676H359.76V46.756L360.12 46.876V46.396 46.276H360V46.156H359.88 359.76L359.88 45.916H360 360.12L360.24 46.036 360.36 46.276V46.396 47.236L359.76 46.996V47.716L359.64 47.836H359.4V46.876H359.16V47.236L359.28 47.356 359.16 47.476H359.04Z" fill-rule="evenodd"/><path transform="matrix(1,0,0,-1,0,595.276)" d="M363.12 46.876H362.52V46.636H363.48V46.276H362.4V46.036H363.48V45.556 45.436H363.36 363.24 363L363.12 45.196H363.36 363.48 363.6L363.72 45.316V45.436 46.036H364.08V46.276H363.72V46.636H364.08V46.876H363.36V47.236H363.96V47.476H363.36V47.716 47.836H363.12V47.476H362.52V47.236H363.12Z" fill-rule="evenodd"/><path transform="matrix(1,0,0,-1,0,595.276)" d="M362.76 46.036 362.64 45.796 362.76 45.676 362.88 45.436 363.12 45.676 363 45.796Z" fill-rule="evenodd"/><path transform="matrix(1,0,0,-1,0,595.276)" d="M361.44 47.596V45.556 45.436H361.8V45.676H362.04V45.556H362.28V47.596H361.44ZM361.8 46.756V47.356H362.04V46.756H361.8ZM361.8 45.916V46.516H362.04V45.916H361.8Z" fill-rule="evenodd"/><path transform="matrix(1,0,0,-1,0,595.276)" d="M366.48 46.756H367.32V45.556L367.2 45.436H367.08 366.84L366.96 45.196H367.2 367.32 367.44L367.56 45.316V45.436 45.556 47.716H366.48V46.756ZM366.72 46.996V47.116H367.32V46.996H366.72ZM366.72 47.356V47.476H367.32V47.356H366.72Z" fill-rule="evenodd"/><path transform="matrix(1,0,0,-1,0,595.276)" d="M365.04 45.196H365.28V46.756H366.12V47.716H365.04V45.196ZM365.28 46.996V47.116H365.88V46.996H365.28ZM365.28 47.356V47.476H365.88V47.356H365.28Z" fill-rule="evenodd"/><path transform="matrix(1,0,0,-1,0,595.276)" d="M365.76 46.516V45.556H366.84V46.516H365.76ZM366 45.796V45.916H366.6V45.796H366ZM366 46.156V46.396H366.6V46.156H366Z" fill-rule="evenodd"/><path transform="matrix(1,0,0,-1,0,595.276)" d="M354.48 43.516V41.596H355.8V43.516H354.48ZM354.84 42.436V42.676H355.44V42.436H354.84ZM354.84 42.916V43.276H355.44V42.916H354.84ZM354.84 41.836V42.196H355.44V41.836H354.84Z" fill-rule="evenodd"/><path transform="matrix(1,0,0,-1,0,595.276)" d="M354.36 41.116 354.6 40.996 354.84 41.236 354.96 41.356V41.476L354.84 41.596 354.6 41.356Z" fill-rule="evenodd"/><path transform="matrix(1,0,0,-1,0,595.276)" d="M355.56 40.996 355.8 41.116 355.56 41.356 355.44 41.596 355.2 41.476 355.44 41.236Z" fill-rule="evenodd"/><path transform="matrix(1,0,0,-1,0,595.276)" d="M356.04 43.276V41.596H356.28V43.156L356.4 43.276H356.28Z" fill-rule="evenodd"/><path transform="matrix(1,0,0,-1,0,595.276)" d="M356.64 43.636V41.476 41.356L356.52 41.236H356.4 356.28V40.996H356.52 356.76L356.88 41.116V41.236 41.356 43.516Z" fill-rule="evenodd"/><path transform="matrix(1,0,0,-1,0,595.276)" d="M358.32 42.796 358.44 42.916 358.32 43.156 358.08 43.396 357.84 43.156 358.08 42.916Z" fill-rule="evenodd"/><path transform="matrix(1,0,0,-1,0,595.276)" d="M357.84 41.356 357.96 41.236 358.08 41.116H358.2V41.236L358.32 41.596 358.56 41.956 358.44 42.196 358.2 41.716Z" fill-rule="evenodd"/><path transform="matrix(1,0,0,-1,0,595.276)" d="M358.32 42.556 358.56 42.316 358.8 42.676V40.996H359.16V41.116H360.6V41.356H359.88V41.716H360.36V41.956H359.88V42.196H360.36V42.436H359.88V42.796H360.48V43.036H359.88L360 43.276 360.12 43.396 360 43.516H359.76L359.52 43.036H359.04L359.28 43.396V43.516L359.04 43.636 358.92 43.276 358.68 43.036 358.56 42.796 358.32 42.556ZM359.16 41.956V42.196H359.64V41.956H359.16ZM359.16 42.436V42.796H359.64V42.436H359.16ZM359.16 41.356V41.716H359.64V41.356H359.16Z" fill-rule="evenodd"/><path transform="matrix(1,0,0,-1,0,595.276)" d="M361.8 43.516 361.56 43.396 361.8 43.156 362.04 43.036 362.28 43.276Z" fill-rule="evenodd"/><path transform="matrix(1,0,0,-1,0,595.276)" d="M361.68 42.796 361.44 42.676 361.68 42.436 361.92 42.316 362.04 42.436 361.92 42.676Z" fill-rule="evenodd"/><path transform="matrix(1,0,0,-1,0,595.276)" d="M362.16 41.836 362.04 42.076 361.8 41.596 361.44 41.236 361.56 41.116 361.68 40.996H361.8V41.116Z" fill-rule="evenodd"/><path transform="matrix(1,0,0,-1,0,595.276)" d="M362.88 43.156H362.4V40.996H362.64V41.236H363.72V40.996H363.96V43.156H363.24L363.36 43.396H363.48V43.516H363.36L363.12 43.636 362.88 43.156ZM362.64 42.316V42.796H363.72V42.316H362.64ZM362.64 41.476V42.076H363.72V41.476H362.64Z" fill-rule="evenodd"/><path transform="matrix(1,0,0,-1,0,595.276)" d="M365.16 43.396V43.156H366.24V42.916H365.4V41.836H366.24V41.596H365.04V41.356H366.24V40.996H366.48V41.356H367.56V41.596H366.48V41.836H367.2V42.916H366.48V43.156H367.44V43.396H366.48V43.516 43.636H366.24V43.396H365.16ZM365.64 42.436V42.676H366.24V42.436H365.64ZM365.64 42.076V42.196H366.24V42.076H365.64ZM366.48 42.436V42.676H366.96V42.436H366.48ZM366.48 42.076V42.196H366.96V42.076H366.48Z" fill-rule="evenodd"/><path transform="matrix(1,0,0,-1,0,595.276)" d="M340.68 56.476V54.436H341.04V54.556H342.72V54.436H342.96V56.476H342V56.836 56.956H341.88 341.76V56.476H340.68ZM341.04 55.636V56.236H341.76V55.636H341.04ZM342 55.636V56.236H342.72V55.636H342ZM341.04 54.796V55.396H341.76V54.796H341.04ZM342 54.796V55.396H342.72V54.796H342Z" fill-rule="evenodd"/><path transform="matrix(1,0,0,-1,0,595.276)" d="M345.36 56.956 345.12 57.076V54.796H344.04V54.556H346.68V54.796H345.48V55.756H346.44V56.116H345.48V56.836 56.956Z" fill-rule="evenodd"/><path transform="matrix(1,0,0,-1,0,595.276)" d="M347.64 56.116 348 55.996 348.24 56.356H348.96V55.756H347.64V55.516H348.96V54.316H349.2V55.516H350.28V55.756H349.2V56.356H350.04V56.596H348.48L348.6 56.836H348.72L348.6 56.956 348.36 57.076 348 56.596Z" fill-rule="evenodd"/><path transform="matrix(1,0,0,-1,0,595.276)" d="M352.2 56.956H352.08V55.996L351.24 55.876V55.636L352.08 55.756V54.916 54.676 54.556L352.32 54.436H352.44 353.28 353.4L353.52 54.556H353.64V54.676L353.76 55.036 353.52 55.156V54.916L353.4 54.796H353.28L353.16 54.676H352.56L352.44 54.796H352.32V54.916 55.756L353.76 55.876V56.116L352.32 55.996V56.836H352.44V56.956H352.32Z" fill-rule="evenodd"/><path transform="matrix(1,0,0,-1,0,595.276)" d="M356.4 55.996H355.8V55.756H356.76V55.516H355.8V55.276H356.76V54.796 54.676H356.64L356.52 54.556H356.28L356.4 54.316H356.64L356.76 54.436H356.88L357 54.556V54.676 55.276H357.36V55.516H357V55.756H357.36V55.996H356.64V56.476H357.24V56.596H356.64V56.836 56.956H356.76 356.64L356.4 57.076V56.596H355.8V56.476H356.4Z" fill-rule="evenodd"/><path transform="matrix(1,0,0,-1,0,595.276)" d="M356.04 55.156 355.92 55.036 356.04 54.916 356.28 54.676 356.4 54.916 356.28 55.036Z" fill-rule="evenodd"/><path transform="matrix(1,0,0,-1,0,595.276)" d="M354.84 56.716V54.796L354.72 54.676H355.08V54.916H355.32V54.796H355.56V56.716H354.84ZM355.08 55.996V56.476H355.32V55.996H355.08ZM355.08 55.156V55.756H355.32V55.156H355.08Z" fill-rule="evenodd"/><path transform="matrix(1,0,0,-1,0,595.276)" d="M358.44 56.596H359.28L358.92 55.996H358.56V55.756H358.68L360.36 55.876 360.6 55.636 360.84 55.876 360.6 56.236 360.24 56.476 360 56.356 360.24 56.116H359.28L359.64 56.596H360.84V56.836H358.44Z" fill-rule="evenodd"/><path transform="matrix(1,0,0,-1,0,595.276)" d="M358.32 54.436H360.96V54.676H359.76V55.156H360.6V55.396H359.76V55.636 55.756H359.52V55.396H358.56V55.156H359.52V54.676H358.32Z" fill-rule="evenodd"/><path transform="matrix(1,0,0,-1,0,595.276)" d="M361.8 56.836V56.476H363V54.316H363.24V55.876L363.6 55.516 363.96 55.156 364.2 55.396 363.72 55.756 363.24 56.116V56.476H364.44V56.836Z" fill-rule="evenodd"/><path transform="matrix(1,0,0,-1,0,595.276)" d="M365.4 56.116 365.76 55.996 366 56.356H366.72V55.756H365.4V55.516H366.72V54.316H366.96V55.516H368.04V55.756H366.96V56.356H367.8V56.596H366.24L366.36 56.836H366.48L366.36 56.956 366.12 57.076 365.76 56.596Z" fill-rule="evenodd"/><path transform="matrix(1,0,0,-1,0,595.276)" d="M369.12 56.356V56.116H369.72V55.756L369.6 55.396 369.48 55.156 369.36 54.916 369.12 54.676 368.88 54.556 369.12 54.316 369.36 54.556 369.6 54.796 369.72 55.036 369.84 55.276 369.96 55.636V56.116H370.56V54.916 54.676 54.556L370.68 54.436H370.92 371.16 371.4L371.52 54.556 371.64 54.796V55.036L371.4 55.156V54.916L371.28 54.796 371.16 54.676H370.92L370.8 54.796V54.916L370.92 56.356H369.96V56.836L370.08 56.956H369.96L369.72 57.076V56.356Z" fill-rule="evenodd"/><path transform="matrix(1,0,0,-1,0,595.276)" d="M374.16 55.996H373.56V55.756H374.52V55.516H373.56V55.276H374.52V54.796 54.676H374.4L374.28 54.556H374.04L374.16 54.316H374.4L374.52 54.436H374.64L374.76 54.556V54.676 55.276H375.12V55.516H374.76V55.756H375.12V55.996H374.4V56.476H375V56.596H374.4V56.836 56.956H374.52 374.4L374.16 57.076V56.596H373.56V56.476H374.16Z" fill-rule="evenodd"/><path transform="matrix(1,0,0,-1,0,595.276)" d="M373.8 55.156 373.68 55.036 373.8 54.916 374.04 54.676 374.16 54.916 374.04 55.036Z" fill-rule="evenodd"/><path transform="matrix(1,0,0,-1,0,595.276)" d="M372.48 56.716V54.796 54.676H372.84V54.916H373.08V54.796H373.32V56.716H372.48ZM372.84 55.996V56.476H373.08V55.996H372.84ZM372.84 55.156V55.756H373.08V55.156H372.84Z" fill-rule="evenodd"/></g></svg>