<?xml version='1.0' encoding='UTF-8'?>
<svg xmlns="http://www.w3.org/2000/svg" xmlns:xlink="http://www.w3.org/1999/xlink" xmlns:inkscape="http://www.inkscape.org/namespaces/inkscape" version="1.1" width="566.700" height="269.280" viewBox="0 0 566.700 269.280"><g transform="scale(10.0) translate(-56.655, -74.160)"><path transform="matrix(1,0,0,-1,0,595.276)" d="M72.84 519.916H97.2C97.92 519.916 98.64 519.556 99.24 519.076 99.84 518.476 100.08 517.636 100.08 516.916V497.956C100.08 497.236 99.84 496.516 99.24 495.916 98.64 495.316 97.92 495.076 97.2 495.076H72.84C72.12 495.076 71.4 495.316 70.8 495.916 70.2 496.516 69.96 497.236 69.96 497.956V516.916C69.96 517.276 70.08 517.636 70.2 517.996 70.32 518.356 70.56 518.716 70.8 519.076 71.4 519.556 72.12 519.916 72.84 519.916Z" fill="#00ff00" fill-rule="evenodd"/><path transform="matrix(1,0,0,-1,0,595.276)" d="M85.68 497.116C86.88 497.356 87.96 498.076 88.8 499.156 89.64 500.236 90 501.556 90 502.756V505.876H81.24V502.756C81.24 501.556 81.6 500.236 82.44 499.156 83.28 498.076 84.48 497.356 85.68 497.116Z" fill="#ffff00" fill-rule="evenodd"/><path transform="matrix(1,0,0,-1,0,595.276)" stroke-width=".12" stroke-linecap="butt" stroke-miterlimit="10" stroke-linejoin="miter" fill="none" stroke="#ffffff" d="M94.5 502.5V502.5"/><path transform="matrix(1,0,0,-1,0,595.276)" d="M94.32 502.396V502.396C94.2 502.396 94.08 502.516 93.84 502.516 93.6 502.636 93.36 502.996 93.36 503.236 93.36 503.596 93.6 503.956 93.84 504.076 94.08 504.316 94.44 504.436 94.8 504.316 95.4 504.316 96.12 504.076 96.72 503.476L97.8 504.316C96.84 505.156 95.88 505.636 94.8 505.636 94.08 505.636 93.36 505.396 92.76 504.916 92.28 504.556 92.04 503.836 92.04 503.236 92.04 502.636 92.28 502.036 92.76 501.676 93 501.436 93.12 501.436 93.36 501.316 93.84 501.196 94.32 501.076 94.8 500.956H94.92C95.52 500.836 96.12 500.836 96.48 500.356 96.6 499.996 96.6 499.636 96.48 499.276 96.36 498.796 95.64 498.676 95.04 498.676 94.2 498.676 93.48 499.036 92.76 499.756L91.68 498.916C92.04 498.556 92.4 498.316 92.64 498.076 93.36 497.716 94.08 497.476 94.92 497.476 95.76 497.476 96.72 497.716 97.2 498.196 97.44 498.316 97.56 498.556 97.68 498.916 97.8 499.036 97.8 499.156 97.92 499.276 97.92 499.396 97.92 499.516 97.92 499.516V499.636 499.756 499.876 499.756 499.876 499.996 500.116C97.92 500.236 97.92 500.236 97.92 500.356 97.8 500.836 97.56 501.196 97.32 501.556 97.08 501.676 96.96 501.796 96.72 501.916 96.6 501.916 96.36 502.036 96.12 502.036L94.32 502.396Z" fill="#ffffff" fill-rule="evenodd"/><path transform="matrix(1,0,0,-1,0,595.276)" d="M75.48 505.636V504.676H71.88V503.836H75.48V503.116H72.36V497.476H73.2V502.396H78.6V498.796 498.556 498.436L78.36 498.316 78.12 498.196H77.52L77.88 497.356 78.48 497.476 78.96 497.596 79.32 497.836 79.44 498.196V498.556 503.116H76.32V503.956H79.92V504.676H76.32V505.036L76.44 505.156V505.276L76.32 505.396H76.08Z" fill="#ffffff" fill-rule="evenodd"/><path transform="matrix(1,0,0,-1,0,595.276)" d="M74.64 502.276 74.04 501.916 74.52 501.436 74.76 500.956H73.8V500.356H75.6V499.636H73.68V498.916H75.48V497.716H76.32V498.916H78.12V499.636H76.32V500.356H78V501.076H77.04L77.4 501.556 77.76 501.916 77.04 502.276 76.56 501.676 76.32 500.956H75.12L75.48 501.316 75.12 501.796Z" fill="#ffffff" fill-rule="evenodd"/><path transform="matrix(1,0,0,-1,0,595.276)" d="M85.56 498.796C86.16 498.796 86.76 498.916 87.12 499.276 87.48 499.516 87.6 499.996 87.6 500.476 87.6 501.196 87.36 501.556 87.12 501.796 87.36 502.156 87.48 502.516 87.48 502.996 87.48 504.076 86.76 504.676 85.44 504.676 84.84 504.676 84.36 504.556 83.88 504.196 83.76 503.956 83.64 503.836 83.52 503.596 83.4 503.356 83.4 503.116 83.4 502.876L84.48 502.756C84.48 503.236 84.84 503.596 85.44 503.596 85.56 503.596 85.56 503.596 85.68 503.596 86.16 503.476 86.4 503.236 86.4 502.876 86.28 502.636 86.16 502.396 85.92 502.276H85.08V501.316H85.92C86.04 501.316 86.16 501.316 86.28 501.076 86.4 500.956 86.4 500.836 86.4 500.716 86.4 500.236 86.16 499.996 85.56 499.996 85.32 499.996 84.96 499.996 84.84 500.116 84.6 500.356 84.48 500.476 84.48 500.716L83.28 500.596C83.28 499.516 84.12 498.796 85.56 498.796Z" fill-rule="evenodd"/><path transform="matrix(1,0,0,-1,0,595.276)" d="M89.16 509.236C89.16 509.716 88.8 510.076 88.32 510.076 87.84 510.076 87.48 509.716 87.48 509.236 87.48 508.756 87.84 508.276 88.32 508.276 88.8 508.276 89.16 508.756 89.16 509.236Z" fill="#ffffff" fill-rule="evenodd"/><path transform="matrix(1,0,0,-1,0,595.276)" stroke-width=".12" stroke-linecap="butt" stroke-miterlimit="10" stroke-linejoin="miter" fill="none" stroke="#ffffff" d="M83.5 512.5V512.5"/><path transform="matrix(1,0,0,-1,0,595.276)" d="M83.52 512.356H82.32V513.556H83.28 83.4 83.52C84 513.796 84.36 514.396 84.12 514.876 84 515.356 83.52 515.836 82.92 515.836 82.56 515.836 82.08 515.716 81.72 515.476 81.36 515.116 81.24 514.636 81.24 514.276L79.68 514.516C79.68 515.116 80.04 515.836 80.64 516.436 81.24 516.916 82.08 517.156 82.92 517.156 84.12 517.156 85.2 516.436 85.68 515.476 85.92 514.516 85.44 513.556 84.72 512.956 85.68 512.356 86.04 511.156 85.68 510.076 85.2 508.996 84.12 508.276 82.92 508.276 82.08 508.396 81.24 508.636 80.64 509.116 80.04 509.596 79.68 510.316 79.8 510.916L81.24 511.156C81.12 510.436 81.84 509.716 82.68 509.716 83.04 509.596 83.4 509.716 83.76 509.956 84.12 510.196 84.24 510.556 84.24 510.916 84.36 511.276 84.24 511.636 84.12 511.876 83.88 512.236 83.64 512.356 83.52 512.356Z" fill="#ffffff" fill-rule="evenodd"/><path transform="matrix(1,0,0,-1,0,595.276)" d="M81.24 514.276V514.276Z" fill="#ffffff" fill-rule="evenodd"/><path transform="matrix(1,0,0,-1,0,595.276)" d="M81.24 511.156V511.156Z" fill="#ffffff" fill-rule="evenodd"/><path transform="matrix(1,0,0,-1,0,595.276)" d="M73.68 514.156H72.24V514.636C72.36 515.236 72.6 515.956 73.2 516.436 73.8 516.916 74.52 517.156 75.12 517.156 75.6 517.156 75.96 517.156 76.44 516.916 76.92 516.676 77.28 516.316 77.64 515.956 77.88 515.596 78.12 515.116 78.12 514.636 78.12 514.156 78 513.676 77.88 513.316 77.28 512.116 76.08 510.796 74.64 509.716H78V508.396H72.36V509.716C73.44 510.316 74.4 511.156 75.24 511.996 75.96 512.836 76.44 513.676 76.56 514.396 76.56 515.236 75.96 515.836 75.12 515.836 74.76 515.836 74.4 515.716 74.16 515.476 73.8 515.116 73.68 514.756 73.68 514.396V514.156Z" fill="#ffffff" fill-rule="evenodd"/><path transform="matrix(1,0,0,-1,0,595.276)" stroke-width=".12" stroke-linecap="butt" stroke-miterlimit="10" stroke-linejoin="miter" fill="none" stroke="#ffffff" d="M91.5 512.5V512.5"/><path transform="matrix(1,0,0,-1,0,595.276)" stroke-width=".12" stroke-linecap="butt" stroke-miterlimit="10" stroke-linejoin="miter" fill="none" stroke="#ffffff" d="M91.5 512.5V512.5"/><path transform="matrix(1,0,0,-1,0,595.276)" stroke-width=".12" stroke-linecap="butt" stroke-miterlimit="10" stroke-linejoin="miter" fill="none" stroke="#ffffff" d="M91.5 512.5V512.5"/><path transform="matrix(1,0,0,-1,0,595.276)" stroke-width=".12" stroke-linecap="butt" stroke-miterlimit="10" stroke-linejoin="miter" fill="none" stroke="#ffffff" d="M91.5 512.5V512.5"/><path transform="matrix(1,0,0,-1,0,595.276)" stroke-width=".12" stroke-linecap="butt" stroke-linejoin="round" fill="none" stroke="#ffffff" d="M91.08 512.716V512.716"/><path transform="matrix(1,0,0,-1,0,595.276)" stroke-width=".12" stroke-linecap="butt" stroke-miterlimit="10" stroke-linejoin="miter" fill="none" stroke="#ffffff" d="M91.5 512.5V512.5"/><path transform="matrix(1,0,0,-1,0,595.276)" d="M91.08 512.716V512.716C91.08 511.396 91.32 510.316 91.92 509.476 92.52 508.756 93.36 508.276 94.32 508.276 96.36 508.276 97.56 509.956 97.56 512.716 97.56 514.036 97.32 515.236 96.72 515.956 96.12 516.796 95.28 517.156 94.32 517.156 93.36 517.156 92.52 516.796 91.92 515.956 91.32 515.236 91.08 514.036 91.08 512.716ZM91.08 512.716V512.716ZM94.32 509.716C93.72 509.716 93.24 509.956 93 510.556 92.64 511.036 92.52 511.876 92.52 512.716 92.52 514.636 93.12 515.836 94.32 515.836 95.4 515.836 96.12 514.636 96.12 512.716 96.12 511.876 96 511.036 95.64 510.556 95.28 509.956 94.8 509.716 94.32 509.716Z" fill="#ffffff" fill-rule="evenodd"/></g></svg>