<?xml version='1.0' encoding='UTF-8'?>
<svg xmlns="http://www.w3.org/2000/svg" xmlns:xlink="http://www.w3.org/1999/xlink" xmlns:inkscape="http://www.inkscape.org/namespaces/inkscape" version="1.1" width="567.000" height="269.280" viewBox="0 0 567.000 269.280"><g transform="scale(10.0) translate(-111.171, -289.584)"><defs><clipPath id="clip_2"><path transform="matrix(1,0,0,-1,0,595.276)" d="M74.4 .196H767.4V595.276H74.4Z"/></clipPath></defs><path transform="matrix(1,0,0,-1,0,595.276)" d="M123.48 304.396H155.76C155.88 304.396 156 304.396 156.12 304.276 156.24 304.276 156.36 304.156 156.36 304.036 156.48 304.036 156.6 303.916 156.6 303.796 156.72 303.676 156.72 303.556 156.72 303.436V280.876C156.72 280.636 156.6 280.396 156.36 280.276 156.24 280.036 156 279.916 155.76 279.916H123.48C123.36 279.916 123.24 279.916 123.12 280.036 123 280.036 122.88 280.156 122.76 280.276 122.64 280.276 122.64 280.396 122.52 280.516 122.52 280.636 122.52 280.756 122.52 280.876V303.436C122.52 303.676 122.64 303.916 122.76 304.036 122.88 304.156 123 304.276 123.12 304.276 123.24 304.396 123.36 304.396 123.48 304.396Z" fill="#ffffff" fill-rule="evenodd"/><path transform="matrix(1,0,0,-1,0,595.276)" d="M149.64 297.076H131.4C131.16 297.076 130.92 296.956 130.68 296.836 130.44 296.716 130.32 296.476 130.2 296.356L128.4 293.116H134.76V296.116H137.64V293.116H150.84L150.12 296.596C150 296.836 149.88 297.076 149.64 297.076ZM149.4 296.116 149.88 293.596H144.48V296.116H149.4ZM143.52 296.116V293.596H138.6V296.116H143.52ZM133.68 293.596H129.84L131.16 296.116H133.68V293.596Z" fill="#ff0000" fill-rule="evenodd"/><path transform="matrix(1,0,0,-1,0,595.276)" d="M137.64 292.876H150.84V291.436H137.64Z" fill="#ff0000" fill-rule="evenodd"/><path transform="matrix(1,0,0,-1,0,595.276)" d="M150.84 289.276V291.196H137.64V288.196H134.76V291.196H128.4V289.276L127.92 288.676V288.196H130.08C130.08 288.436 130.08 288.676 130.2 288.916 130.32 289.036 130.44 289.276 130.56 289.396 130.92 289.756 131.4 289.996 131.76 289.996 132.24 289.996 132.6 289.756 132.96 289.396 133.32 289.156 133.44 288.676 133.44 288.196V287.716H143.76V288.196C143.76 288.676 143.88 289.156 144.24 289.396 144.6 289.756 145.08 289.996 145.44 289.996 145.92 289.996 146.28 289.756 146.64 289.396 147 289.156 147.12 288.676 147.12 288.196V287.716L151.32 288.196V288.676L150.84 289.276Z" fill="#ff0000" fill-rule="evenodd"/><path transform="matrix(1,0,0,-1,0,595.276)" d="M146.88 288.196C146.88 289.036 146.28 289.756 145.44 289.756 144.6 289.756 144 289.036 144 288.196 144 287.476 144.6 286.756 145.44 286.756 146.28 286.756 146.88 287.476 146.88 288.196ZM146.16 288.196C146.16 287.836 145.92 287.476 145.44 287.476 145.08 287.476 144.72 287.836 144.72 288.196 144.72 288.676 145.08 288.916 145.44 288.916 145.92 288.916 146.16 288.676 146.16 288.196Z" fill="#ff0000" fill-rule="evenodd"/><path transform="matrix(1,0,0,-1,0,595.276)" d="M133.2 288.196C133.2 289.036 132.6 289.756 131.76 289.756 130.92 289.756 130.32 289.036 130.32 288.196 130.32 287.476 130.92 286.756 131.76 286.756 132.6 286.756 133.2 287.476 133.2 288.196ZM132.48 288.196C132.48 287.836 132.24 287.476 131.76 287.476 131.4 287.476 131.04 287.836 131.04 288.196 131.04 288.676 131.4 288.916 131.76 288.916 132.24 288.916 132.48 288.676 132.48 288.196Z" fill="#ff0000" fill-rule="evenodd"/><path transform="matrix(1,0,0,-1,0,595.276)" d="M128.4 292.876H134.76V291.436H128.4Z" fill="#ff0000" fill-rule="evenodd"/><path transform="matrix(1,0,0,-1,0,595.276)" stroke-width=".12" stroke-linecap="round" stroke-linejoin="round" fill="none" stroke="#ff0000" d="M123.48 304.396H155.76C156.24 304.396 156.72 303.916 156.72 303.436V280.876C156.72 280.396 156.24 279.916 155.76 279.916H123.48C122.88 279.916 122.52 280.396 122.52 280.876V303.436C122.52 303.916 122.88 304.396 123.48 304.396"/></g></svg>