<?xml version='1.0' encoding='UTF-8'?>
<svg xmlns="http://www.w3.org/2000/svg" xmlns:xlink="http://www.w3.org/1999/xlink" xmlns:inkscape="http://www.inkscape.org/namespaces/inkscape" version="1.1" width="567.000" height="269.280" viewBox="0 0 567.000 269.280"><g transform="scale(10.0) translate(-220.305, -101.088)"><defs><clipPath id="clip_2"><path transform="matrix(1,0,0,-1,0,595.276)" d="M74.4 .196H767.4V595.276H74.4Z"/></clipPath></defs><path transform="matrix(1,0,0,-1,0,595.276)" d="M234.84 470.956 247.08 492.196C247.2 492.436 247.44 492.676 247.8 492.796 248.04 493.036 248.4 493.156 248.64 493.156 249 493.156 249.36 493.036 249.6 492.796 249.96 492.676 250.2 492.436 250.32 492.196L262.56 470.956C262.92 470.356 262.92 469.636 262.56 469.036 262.44 468.796 262.2 468.556 261.96 468.316 261.6 468.196 261.24 468.076 261 468.076H236.4C235.8 468.076 235.08 468.436 234.84 469.036 234.48 469.636 234.48 470.356 234.84 470.956Z" fill="#ff0000" fill-rule="evenodd"/><path transform="matrix(1,0,0,-1,0,595.276)" d="M259.92 470.596 248.64 489.916 237.48 470.596Z" fill="#ffffff" fill-rule="evenodd"/><path transform="matrix(1,0,0,-1,0,595.276)" d="M252.12 476.236C252.36 477.076 252.24 478.156 251.64 478.996 251.28 479.476 250.92 479.836 250.56 480.076 250.08 480.316 249.6 480.436 249.24 480.556L249.48 482.596C250.2 482.476 250.92 482.236 251.64 481.876 252.36 481.396 252.96 480.796 253.44 479.956 253.92 479.236 254.16 478.396 254.28 477.556 254.4 476.716 254.28 475.996 254.04 475.276L252.72 474.796 252.12 476.236Z" fill-rule="evenodd"/><path transform="matrix(1,0,0,-1,0,595.276)" d="M244.68 474.796 246.24 474.436C246.6 474.196 246.96 473.956 247.44 473.716 247.92 473.596 248.4 473.476 249 473.476 249.48 473.596 249.96 473.716 250.44 473.956 250.8 474.196 251.16 474.556 251.52 474.916L253.08 473.596C252.72 472.996 252.12 472.516 251.4 472.036 250.56 471.676 249.72 471.436 248.88 471.436 247.92 471.436 247.08 471.556 246.36 471.916 245.52 472.276 244.92 472.756 244.44 473.356L244.68 474.796Z" fill-rule="evenodd"/><path transform="matrix(1,0,0,-1,0,595.276)" d="M243.48 474.916C243.24 475.636 243 476.356 243.12 477.196 243.12 478.036 243.36 478.876 243.72 479.716 244.2 480.556 244.8 481.156 245.4 481.636 246.12 482.116 246.84 482.476 247.56 482.596L248.64 481.636 247.68 480.436C247.32 480.316 246.84 480.076 246.48 479.836 246.12 479.476 245.76 479.116 245.52 478.636 245.28 478.156 245.16 477.556 245.16 477.076 245.16 476.596 245.28 476.116 245.4 475.756L243.48 474.916Z" fill-rule="evenodd"/></g></svg>