<?xml version='1.0' encoding='UTF-8'?>
<svg xmlns="http://www.w3.org/2000/svg" xmlns:xlink="http://www.w3.org/1999/xlink" xmlns:inkscape="http://www.inkscape.org/namespaces/inkscape" version="1.1" width="567.000" height="269.280" viewBox="0 0 567.000 269.280"><g transform="scale(10.0) translate(-438.573, -74.160)"><defs><clipPath id="clip_2"><path transform="matrix(1,0,0,-1,0,595.276)" d="M74.4 .196H767.4V595.276H74.4Z"/></clipPath></defs><path transform="matrix(1,0,0,-1,0,595.276)" d="M480.84 497.836 468.48 519.076C468.36 519.316 468.12 519.556 467.88 519.796 467.52 519.916 467.16 520.036 466.92 520.036 466.56 520.036 466.2 519.916 465.96 519.796 465.6 519.556 465.48 519.316 465.24 519.076L453 497.836C452.64 497.236 452.64 496.516 453 495.916 453.12 495.676 453.36 495.436 453.72 495.316 453.96 495.076 454.32 494.956 454.56 494.956H479.16C479.88 494.956 480.48 495.316 480.84 495.916 481.08 496.516 481.08 497.236 480.84 497.836Z" fill="#ff0000" fill-rule="evenodd"/><path transform="matrix(1,0,0,-1,0,595.276)" d="M455.64 497.476 466.92 516.916 478.08 497.476Z" fill="#ffffff" fill-rule="evenodd"/><path transform="matrix(1,0,0,-1,0,595.276)" d="M471.84 501.916H463.56V501.436H471.84Z" fill-rule="evenodd"/><path transform="matrix(1,0,0,-1,0,595.276)" d="M471.84 502.036H471.48V503.596H471.84Z" fill-rule="evenodd"/><path transform="matrix(1,0,0,-1,0,595.276)" d="M471.84 499.996H471.48V501.196H471.84Z" fill-rule="evenodd"/><path transform="matrix(1,0,0,-1,0,595.276)" d="M473.16 503.356H472.32V498.316H473.16Z" fill-rule="evenodd"/><path transform="matrix(1,0,0,-1,0,595.276)" d="M471.84 499.756H463.56V499.396H471.84Z" fill-rule="evenodd"/><path transform="matrix(1,0,0,-1,0,595.276)" d="M467.76 499.996H467.28V501.196H467.76Z" fill-rule="evenodd"/><path transform="matrix(1,0,0,-1,0,595.276)" d="M467.76 502.036H467.28V503.356H467.76Z" fill-rule="evenodd"/><path transform="matrix(1,0,0,-1,0,595.276)" d="M473.4 504.196H463.56V503.596L473.4 503.716Z" fill-rule="evenodd"/><path transform="matrix(1,0,0,-1,0,595.276)" d="M463.08 504.436H462.72V498.316H463.08Z" fill-rule="evenodd"/><path transform="matrix(1,0,0,-1,0,595.276)" d="M463.92 503.356H463.56V502.036H463.92Z" fill-rule="evenodd"/><path transform="matrix(1,0,0,-1,0,595.276)" d="M463.92 501.196H463.56V499.996H463.92Z" fill-rule="evenodd"/><path transform="matrix(1,0,0,-1,0,595.276)" d="M460.68 504.556H462.36V502.876H460.68Z" fill-rule="evenodd"/></g></svg>