<?xml version='1.0' encoding='UTF-8'?>
<svg xmlns="http://www.w3.org/2000/svg" xmlns:xlink="http://www.w3.org/1999/xlink" xmlns:inkscape="http://www.inkscape.org/namespaces/inkscape" version="1.1" width="567.000" height="269.280" viewBox="0 0 567.000 269.280"><g transform="scale(10.0) translate(-111.171, -47.232)"><defs><clipPath id="clip_2"><path transform="matrix(1,0,0,-1,0,595.276)" d="M74.4 .196H767.4V595.276H74.4Z"/></clipPath></defs><path transform="matrix(1,0,0,-1,0,595.276)" d="M125.64 524.716 138 545.956C138.12 546.316 138.36 546.556 138.6 546.676 138.96 546.796 139.32 546.916 139.56 546.916 139.92 546.916 140.28 546.796 140.52 546.676 140.88 546.556 141.12 546.316 141.24 545.956L153.48 524.716C153.84 524.116 153.84 523.396 153.48 522.916 153.36 522.556 153.12 522.316 152.76 522.196 152.52 521.956 152.16 521.956 151.92 521.956H127.32C126.6 521.956 126 522.316 125.64 522.916 125.4 523.396 125.4 524.116 125.64 524.716Z" fill="#ff0000" fill-rule="evenodd"/><path transform="matrix(1,0,0,-1,0,595.276)" d="M150.84 524.476 139.56 543.796 128.4 524.476Z" fill="#ffffff" fill-rule="evenodd"/><path transform="matrix(1,0,0,-1,0,595.276)" d="M137.52 532.996 132.96 528.316 135 526.276 138.6 529.876V525.076H141.48V538.636H138.6V535.396C138.6 534.916 138.48 534.436 138.24 534.076 138.12 533.716 137.88 533.236 137.52 532.996Z" fill-rule="evenodd"/></g></svg>