<?xml version='1.0' encoding='UTF-8'?>
<svg xmlns="http://www.w3.org/2000/svg" xmlns:xlink="http://www.w3.org/1999/xlink" xmlns:inkscape="http://www.inkscape.org/namespaces/inkscape" version="1.1" width="567.000" height="269.280" viewBox="0 0 567.000 269.280"><g transform="scale(10.0) translate(-329.439, -478.080)"><defs><clipPath id="clip_2"><path transform="matrix(1,0,0,-1,0,595.276)" d="M74.4 .196H767.4V595.276H74.4Z"/></clipPath></defs><path transform="matrix(1,0,0,-1,0,595.276)" d="M371.64 94.036 359.4 115.276C359.28 115.516 359.04 115.756 358.68 115.996 358.44 116.116 358.08 116.236 357.84 116.236 357.48 116.236 357.12 116.116 356.88 115.996 356.52 115.756 356.28 115.516 356.16 115.276L343.92 94.036C343.56 93.436 343.56 92.716 343.92 92.116 344.04 91.876 344.28 91.636 344.52 91.396 344.88 91.276 345.24 91.156 345.48 91.156H370.08C370.68 91.156 371.4 91.516 371.64 92.116 372 92.716 372 93.436 371.64 94.036Z" fill="#ff0000" fill-rule="evenodd"/><path transform="matrix(1,0,0,-1,0,595.276)" d="M346.56 93.676 357.84 113.116 369 93.676Z" fill="#ffffff" fill-rule="evenodd"/><path transform="matrix(1,0,0,-1,0,595.276)" d="M359.04 103.996V103.996H358.92C358.92 103.996 358.92 103.876 359.04 103.876V103.996Z" fill-rule="evenodd"/><path transform="matrix(1,0,0,-1,0,595.276)" d="M360.24 105.556C360.24 106.276 359.76 106.876 359.04 106.876 358.32 106.876 357.84 106.276 357.84 105.556 357.84 104.836 358.32 104.356 359.04 104.356 359.76 104.356 360.24 104.836 360.24 105.556Z" fill-rule="evenodd"/><path transform="matrix(1,0,0,-1,0,595.276)" d="M359.76 94.516 359.04 99.316 358.32 94.516H357.6L357.84 99.316V101.956L357 100.996 356.4 99.316 354.24 98.356V97.036L354.48 94.516H354.12L353.64 97.036 353.16 94.516H352.8L352.92 97.036V97.996L352.44 96.916 352.08 97.036 352.68 98.476C352.8 98.596 352.92 98.836 353.16 98.956 353.28 99.076 353.52 99.196 353.76 99.196H355.08L355.8 99.436 356.28 100.996 357.24 102.916C357.36 103.156 357.6 103.516 357.96 103.636 358.32 103.876 358.68 103.996 359.04 103.996 359.52 103.996 359.88 103.876 360.36 103.516 360.72 103.156 360.96 102.676 360.96 102.316L361.44 98.956 360.96 98.836 360.24 101.836V99.316L360.48 94.516H359.76Z" fill-rule="evenodd"/><path transform="matrix(1,0,0,-1,0,595.276)" d="M354.48 100.156C354.48 100.636 354.12 100.996 353.64 100.996 353.16 100.996 352.8 100.636 352.8 100.156 352.8 99.676 353.16 99.316 353.64 99.316 354.12 99.316 354.48 99.676 354.48 100.156Z" fill-rule="evenodd"/></g></svg>