<?xml version='1.0' encoding='UTF-8'?>
<svg xmlns="http://www.w3.org/2000/svg" xmlns:xlink="http://www.w3.org/1999/xlink" xmlns:inkscape="http://www.inkscape.org/namespaces/inkscape" version="1.1" width="567.000" height="269.280" viewBox="0 0 567.000 269.280"><g transform="scale(10.0) translate(-111.171, -235.728)"><defs><clipPath id="clip_2"><path transform="matrix(1,0,0,-1,0,595.276)" d="M74.4 .196H767.4V595.276H74.4Z"/></clipPath></defs><path transform="matrix(1,0,0,-1,0,595.276)" d="M153.48 336.316 141.24 357.556C141.12 357.796 140.88 358.036 140.52 358.276 140.28 358.396 139.92 358.516 139.56 358.516 139.32 358.516 138.96 358.396 138.6 358.276 138.36 358.036 138.12 357.796 138 357.556L125.64 336.316C125.4 335.716 125.4 334.996 125.64 334.396 125.88 334.156 126.12 333.916 126.36 333.676 126.72 333.556 126.96 333.436 127.32 333.436H151.92C152.52 333.436 153.12 333.796 153.48 334.396 153.84 334.996 153.84 335.716 153.48 336.316Z" fill="#ff0000" fill-rule="evenodd"/><path transform="matrix(1,0,0,-1,0,595.276)" d="M128.4 335.956 139.56 355.396 150.84 335.956Z" fill="#ffffff" fill-rule="evenodd"/><path transform="matrix(1,0,0,-1,0,595.276)" d="M137.04 349.156C137.04 350.476 138.24 351.556 139.56 351.556 140.16 351.556 140.88 351.436 141.36 350.836 141.84 350.356 142.08 349.756 142.08 349.156V339.076C142.08 337.756 141 336.556 139.56 336.556 138.96 336.556 138.36 336.796 137.88 337.396 137.64 337.636 137.4 337.876 137.28 338.236 137.16 338.476 137.04 338.836 137.04 339.076V349.156Z" fill-rule="evenodd"/><path transform="matrix(1,0,0,-1,0,595.276)" d="M141.72 349.156C141.72 350.236 140.76 351.196 139.56 351.196 138.48 351.196 137.52 350.236 137.52 349.156 137.52 347.956 138.48 346.996 139.56 346.996 140.76 346.996 141.72 347.956 141.72 349.156Z" fill="#ff0000" fill-rule="evenodd"/><path transform="matrix(1,0,0,-1,0,595.276)" d="M141.72 344.116C141.72 345.316 140.76 346.156 139.56 346.156 138.48 346.156 137.52 345.316 137.52 344.116 137.52 342.916 138.48 342.076 139.56 342.076 140.76 342.076 141.72 342.916 141.72 344.116Z" fill="#ffff00" fill-rule="evenodd"/><path transform="matrix(1,0,0,-1,0,595.276)" d="M141.72 339.076C141.72 340.276 140.76 341.236 139.56 341.236 138.48 341.236 137.52 340.276 137.52 339.076 137.52 337.996 138.48 337.036 139.56 337.036 140.76 337.036 141.72 337.996 141.72 339.076Z" fill="#00ff00" fill-rule="evenodd"/></g></svg>