<?xml version='1.0' encoding='UTF-8'?>
<svg xmlns="http://www.w3.org/2000/svg" xmlns:xlink="http://www.w3.org/1999/xlink" xmlns:inkscape="http://www.inkscape.org/namespaces/inkscape" version="1.1" width="567.000" height="269.280" viewBox="0 0 567.000 269.280"><g transform="scale(10.0) translate(-220.305, -208.800)"><defs><clipPath id="clip_2"><path transform="matrix(1,0,0,-1,0,595.276)" d="M74.4 .196H767.4V595.276H74.4Z"/></clipPath></defs><path transform="matrix(1,0,0,-1,0,595.276)" d="M262.56 363.196 250.32 384.436C250.2 384.796 249.96 385.036 249.6 385.156 249.36 385.276 249 385.396 248.64 385.396 248.4 385.396 248.04 385.276 247.8 385.156 247.44 385.036 247.2 384.796 247.08 384.436L234.84 363.196C234.48 362.596 234.48 361.876 234.84 361.396 234.96 361.036 235.2 360.796 235.44 360.676 235.8 360.436 236.16 360.436 236.4 360.436H261C261.6 360.436 262.2 360.796 262.56 361.396 262.92 361.876 262.92 362.596 262.56 363.196Z" fill="#ff0000" fill-rule="evenodd"/><path transform="matrix(1,0,0,-1,0,595.276)" d="M237.48 362.956 248.64 382.276 259.92 362.956Z" fill="#ffffff" fill-rule="evenodd"/><path transform="matrix(1,0,0,-1,0,595.276)" d="M238.56 363.556 254.64 370.756 258.84 363.556Z" fill-rule="evenodd"/><path transform="matrix(1,0,0,-1,0,595.276)" d="M245.16 371.836 246.96 367.876 246.12 367.516 244.92 370.396 244.32 370.036 243.96 370.876C244.08 370.876 244.2 370.876 244.2 370.996 244.32 370.996 244.32 371.116 244.44 371.116 244.44 371.236 244.44 371.236 244.44 371.356V371.476L245.16 371.836Z" fill-rule="evenodd"/><path transform="matrix(1,0,0,-1,0,595.276)" d="M251.76 371.836 252.24 372.076 252.6 371.236 252.12 370.996 252.36 370.276 251.52 369.916 251.28 370.636 249.12 369.676 248.76 370.396 249.48 373.876 250.56 374.236 251.76 371.836ZM250.2 372.916 249.84 370.876 250.92 371.476 250.2 372.916Z" fill-rule="evenodd"/><path transform="matrix(1,0,0,-1,0,595.276)" d="M248.16 370.516C248.04 370.756 247.68 370.876 247.44 370.756 247.2 370.636 247.2 370.396 247.2 370.156 247.32 369.916 247.68 369.796 247.92 369.916 248.16 370.036 248.16 370.276 248.16 370.516Z" fill-rule="evenodd"/><path transform="matrix(1,0,0,-1,0,595.276)" d="M248.76 369.076C248.64 369.316 248.4 369.436 248.16 369.316 247.92 369.196 247.8 368.956 247.92 368.716 248.04 368.476 248.28 368.356 248.52 368.476 248.76 368.596 248.88 368.836 248.76 369.076Z" fill-rule="evenodd"/></g></svg>