<?xml version='1.0' encoding='UTF-8'?>
<svg xmlns="http://www.w3.org/2000/svg" xmlns:xlink="http://www.w3.org/1999/xlink" xmlns:inkscape="http://www.inkscape.org/namespaces/inkscape" version="1.1" width="567.000" height="269.280" viewBox="0 0 567.000 269.280"><g transform="scale(10.0) translate(-547.707, -20.304)"><defs><clipPath id="clip_2"><path transform="matrix(1,0,0,-1,0,595.276)" d="M74.4 .196H767.4V595.276H74.4Z"/></clipPath></defs><path transform="matrix(1,0,0,-1,0,595.276)" d="M601.68 551.236H550.32C550.08 551.236 549.96 551.236 549.84 551.356 549.72 551.356 549.48 551.476 549.36 551.596 549.36 551.716 549.24 551.836 549.12 552.076 549.12 552.196 549.12 552.316 549.12 552.436V570.196C549.12 570.556 549.12 570.796 549.36 571.036 549.72 571.396 549.96 571.396 550.32 571.396H601.68C602.04 571.396 602.28 571.396 602.52 571.036 602.64 570.916 602.76 570.796 602.88 570.676 602.88 570.556 602.88 570.436 602.88 570.196V552.436C602.88 552.196 602.76 551.836 602.52 551.596 602.28 551.356 602.04 551.236 601.68 551.236ZM601.68 570.796H550.32C550.08 570.796 549.96 570.796 549.84 570.676 549.72 570.556 549.72 570.436 549.72 570.196V552.436C549.72 552.316 549.72 552.196 549.84 552.076 549.96 551.956 549.96 551.956 550.08 551.956 550.08 551.836 550.2 551.836 550.32 551.836H601.68C601.8 551.836 602.04 551.956 602.16 552.076 602.28 552.196 602.28 552.316 602.28 552.436V570.196C602.28 570.436 602.28 570.556 602.16 570.676 602.04 570.796 601.8 570.796 601.68 570.796Z" fill-rule="evenodd"/><path transform="matrix(1,0,0,-1,0,595.276)" d="M550.32 570.796H601.68C601.8 570.796 601.8 570.796 601.92 570.796 602.04 570.796 602.04 570.676 602.16 570.676 602.16 570.556 602.28 570.556 602.28 570.436 602.28 570.436 602.28 570.316 602.28 570.196V552.436C602.28 552.316 602.28 552.196 602.16 552.076 602.04 551.956 602.04 551.956 601.92 551.956 601.8 551.836 601.8 551.836 601.68 551.836H550.32C550.08 551.836 549.96 551.956 549.84 552.076L549.72 552.196C549.72 552.316 549.72 552.436 549.72 552.436V570.196C549.72 570.436 549.72 570.556 549.84 570.676 549.96 570.796 550.08 570.796 550.32 570.796Z" fill="#ffffff" fill-rule="evenodd"/><path transform="matrix(1,0,0,-1,0,595.276)" d="M565.68 569.116C565.68 569.116 565.68 568.996 565.8 568.996 565.8 568.876 565.92 568.876 566.16 568.876 566.64 568.756 567 568.516 567 568.156 566.88 567.556 566.64 567.316 566.04 567.316 565.8 567.316 565.56 567.436 565.32 567.436 565.2 567.556 565.08 567.676 564.84 567.796L565.32 568.156C565.56 567.916 565.8 567.796 566.04 567.796 566.28 567.796 566.4 567.916 566.4 568.156 566.4 568.276 566.16 568.396 565.8 568.396 565.44 568.396 565.2 568.636 565.08 569.116 565.08 569.596 565.44 569.836 566.04 569.836 566.28 569.836 566.4 569.836 566.52 569.716 566.76 569.716 566.88 569.596 567 569.476L566.64 569.116C566.4 569.356 566.16 569.356 566.04 569.356 565.8 569.356 565.68 569.356 565.68 569.116Z" fill-rule="evenodd"/><path transform="matrix(1,0,0,-1,0,595.276)" d="M568.56 569.356H569.16V569.836H567.36V569.356H567.96V567.436H568.56Z" fill-rule="evenodd"/><path transform="matrix(1,0,0,-1,0,595.276)" d="M570.12 568.396H571.08V568.876H570.12V569.356H571.2V569.836H569.64V567.436H571.32V567.916H570.12Z" fill-rule="evenodd"/><path transform="matrix(1,0,0,-1,0,595.276)" d="M572.4 568.396H573.36V568.876H572.4V569.356H573.48V569.836H571.92V567.436H573.6V567.916H572.4Z" fill-rule="evenodd"/><path transform="matrix(1,0,0,-1,0,595.276)" d="M574.68 568.276H575.4 575.52C575.76 568.396 576 568.636 576 569.116 576 569.356 575.76 569.716 575.52 569.836H575.4 574.2V567.436H574.68V568.276ZM574.68 568.756V569.356H575.28C575.4 569.356 575.52 569.236 575.52 569.116 575.52 568.876 575.4 568.756 575.28 568.756H575.16 574.68Z" fill-rule="evenodd"/><path transform="matrix(1,0,0,-1,0,595.276)" d="M577.92 568.276V567.436H577.32V569.836H578.52C578.76 569.836 578.88 569.716 579 569.596 579.12 569.356 579.24 569.236 579.24 569.116 579.24 568.756 579 568.396 578.76 568.396L579.24 567.436H578.76L578.16 568.276H577.92ZM577.92 568.756H578.52C578.64 568.876 578.64 568.876 578.64 569.116 578.64 569.236 578.64 569.356 578.52 569.356H577.92V568.756Z" fill-rule="evenodd"/><path transform="matrix(1,0,0,-1,0,595.276)" d="M580.8 569.836C581.16 569.836 581.52 569.716 581.64 569.596 581.88 569.356 582 568.996 582 568.636 582 568.276 581.88 567.916 581.64 567.676 581.52 567.436 581.16 567.316 580.8 567.316 580.56 567.316 580.2 567.436 580.08 567.676 579.84 567.916 579.72 568.276 579.72 568.636 579.72 568.996 579.84 569.356 580.08 569.596 580.2 569.716 580.56 569.836 580.8 569.836ZM581.52 568.636C581.52 569.116 581.28 569.356 580.8 569.356 580.68 569.356 580.56 569.356 580.44 569.116 580.32 568.996 580.2 568.876 580.2 568.636 580.2 568.156 580.44 567.916 580.8 567.916 581.04 567.916 581.16 567.916 581.28 568.036 581.4 568.156 581.52 568.396 581.52 568.636Z" fill-rule="evenodd"/><path transform="matrix(1,0,0,-1,0,595.276)" d="M584.52 567.436 583.8 569.836H583.44 583.08L582.36 567.436H582.84L582.96 567.796H583.44 583.92L584.04 567.436H584.52ZM583.68 568.276H583.44 583.08L583.44 569.356 583.68 568.276Z" fill-rule="evenodd"/><path transform="matrix(1,0,0,-1,0,595.276)" d="M585.96 567.436H585V569.836H585.96C586.56 569.836 586.92 569.356 586.92 568.636 586.92 567.916 586.56 567.436 585.96 567.436ZM585.48 569.236V567.916H585.84 585.96 586.08C586.32 568.036 586.44 568.276 586.44 568.636 586.44 568.996 586.32 569.236 586.08 569.236H585.96 585.84 585.48Z" fill-rule="evenodd"/><path transform="matrix(1,0,0,-1,0,595.276)" d="M552.96 564.676C552.96 564.556 552.84 564.316 552.6 564.196 552.36 564.076 552.24 563.956 552 563.956 551.64 563.956 551.4 564.076 551.16 564.316 550.92 564.556 550.8 564.916 550.8 565.276 550.8 565.636 550.92 565.996 551.16 566.116 551.4 566.356 551.64 566.476 552 566.476 552.24 566.476 552.48 566.476 552.6 566.356 552.84 566.116 552.96 565.996 552.96 565.756L552.48 565.516C552.48 565.636 552.48 565.756 552.36 565.876 552.24 565.996 552.12 565.996 552 565.996 551.64 565.996 551.4 565.756 551.4 565.276 551.4 564.796 551.64 564.436 552 564.436 552.12 564.436 552.24 564.556 552.36 564.556 552.48 564.676 552.48 564.796 552.48 564.916L552.96 564.676Z" fill-rule="evenodd"/><path transform="matrix(1,0,0,-1,0,595.276)" d="M553.32 566.476 554.04 564.916V564.076H554.28 554.52V564.916L555.24 566.476H554.76L554.28 565.516 553.8 566.476Z" fill-rule="evenodd"/><path transform="matrix(1,0,0,-1,0,595.276)" d="M557.64 564.676C557.64 564.556 557.52 564.316 557.28 564.196 557.16 564.076 556.92 563.956 556.68 563.956 556.32 563.956 556.08 564.076 555.84 564.316 555.6 564.556 555.6 564.916 555.6 565.276 555.6 565.636 555.6 565.996 555.84 566.116 556.08 566.356 556.32 566.476 556.68 566.476 556.92 566.476 557.16 566.476 557.28 566.356 557.52 566.116 557.64 565.996 557.64 565.756L557.28 565.516C557.28 565.636 557.16 565.756 557.04 565.876 556.92 565.996 556.8 565.996 556.68 565.996 556.32 565.996 556.08 565.756 556.08 565.276 556.08 564.796 556.32 564.436 556.68 564.436 556.8 564.436 556.92 564.556 557.04 564.556 557.16 564.676 557.28 564.796 557.28 564.916L557.64 564.676Z" fill-rule="evenodd"/><path transform="matrix(1,0,0,-1,0,595.276)" d="M558.84 566.476V564.556H559.8V564.076H558.24V566.476Z" fill-rule="evenodd"/><path transform="matrix(1,0,0,-1,0,595.276)" d="M560.76 564.076V566.476H560.28V564.076Z" fill-rule="evenodd"/><path transform="matrix(1,0,0,-1,0,595.276)" d="M562.08 565.756C561.96 565.756 562.08 565.636 562.08 565.636 562.2 565.516 562.32 565.516 562.44 565.516 563.04 565.396 563.28 565.156 563.28 564.796 563.28 564.196 562.92 563.956 562.32 563.956 562.08 563.956 561.96 564.076 561.72 564.076 561.6 564.196 561.36 564.316 561.24 564.436L561.72 564.796C561.96 564.556 562.08 564.436 562.32 564.436 562.68 564.436 562.8 564.556 562.8 564.796 562.8 564.916 562.56 565.036 562.2 565.036 561.72 565.036 561.48 565.276 561.48 565.756 561.48 566.236 561.84 566.476 562.44 566.476 562.56 566.476 562.8 566.476 562.92 566.356 563.04 566.356 563.28 566.236 563.4 566.116L563.04 565.756C562.8 565.996 562.56 565.996 562.44 565.996 562.2 565.996 562.08 565.876 562.08 565.756Z" fill-rule="evenodd"/><path transform="matrix(1,0,0,-1,0,595.276)" d="M566.52 565.756C566.52 565.756 566.52 565.636 566.64 565.636 566.76 565.516 566.88 565.516 567 565.516 567.6 565.396 567.84 565.156 567.84 564.796 567.84 564.196 567.48 563.956 566.88 563.956 566.64 563.956 566.4 564.076 566.28 564.076 566.04 564.196 565.92 564.316 565.8 564.436L566.16 564.796C566.4 564.556 566.64 564.436 566.88 564.436 567.12 564.436 567.24 564.556 567.24 564.796 567.24 564.916 567.12 565.036 566.76 565.036 566.28 565.036 566.04 565.276 565.92 565.756 566.04 566.236 566.28 566.476 566.88 566.476 567.12 566.476 567.24 566.476 567.48 566.356 567.6 566.356 567.72 566.236 567.84 566.116L567.48 565.756C567.24 565.996 567.12 565.996 566.88 565.996 566.64 565.996 566.52 565.876 566.52 565.756Z" fill-rule="evenodd"/><path transform="matrix(1,0,0,-1,0,595.276)" d="M572.76 564.076H571.8V566.476H572.76C573.36 566.476 573.72 565.996 573.72 565.276 573.72 564.556 573.36 564.076 572.76 564.076ZM572.28 565.876V564.556H572.64 572.76 572.88C573.12 564.676 573.24 564.916 573.24 565.276 573.24 565.636 573.12 565.876 572.88 565.876H572.76 572.64 572.28Z" fill-rule="evenodd"/><path transform="matrix(1,0,0,-1,0,595.276)" d="M575.4 564.076 576.12 566.476H575.52L575.16 564.796 574.68 566.476H574.2L574.8 564.076H575.16Z" fill-rule="evenodd"/><path transform="matrix(1,0,0,-1,0,595.276)" d="M577.08 564.076V566.476H576.6V564.076Z" fill-rule="evenodd"/><path transform="matrix(1,0,0,-1,0,595.276)" d="M578.28 565.756C578.28 565.756 578.28 565.636 578.4 565.636 578.52 565.516 578.64 565.516 578.76 565.516 579.36 565.396 579.6 565.156 579.6 564.796 579.6 564.196 579.24 563.956 578.64 563.956 578.4 563.956 578.16 564.076 578.04 564.076 577.8 564.196 577.68 564.316 577.56 564.436L577.92 564.796C578.16 564.556 578.4 564.436 578.64 564.436 578.88 564.436 579 564.556 579 564.796 579 564.916 578.88 565.036 578.52 565.036 578.04 565.036 577.8 565.276 577.8 565.756 577.8 566.236 578.04 566.476 578.64 566.476 578.88 566.476 579.12 566.476 579.24 566.356 579.36 566.356 579.48 566.236 579.6 566.116L579.24 565.756C579.12 565.996 578.88 565.996 578.64 565.996 578.4 565.996 578.28 565.876 578.28 565.756Z" fill-rule="evenodd"/><path transform="matrix(1,0,0,-1,0,595.276)" d="M580.8 565.036H581.76V565.516H580.8V565.996H581.88V566.476H580.32V564.076H582V564.556H580.8Z" fill-rule="evenodd"/><path transform="matrix(1,0,0,-1,0,595.276)" d="M583.56 564.076H582.6V566.476H583.56C584.16 566.476 584.52 565.996 584.52 565.276 584.52 564.556 584.16 564.076 583.56 564.076ZM583.08 565.876V564.556H583.44 583.56 583.68C583.92 564.676 584.04 564.916 584.04 565.276 584.04 565.636 583.92 565.876 583.68 565.876 583.56 565.876 583.56 565.876 583.44 565.876H583.08Z" fill-rule="evenodd"/><path transform="matrix(1,0,0,-1,0,595.276)" d="M586.92 565.996H587.52V566.476H585.72V565.996H586.44V564.076H586.92Z" fill-rule="evenodd"/><path transform="matrix(1,0,0,-1,0,595.276)" d="M588.96 566.476C589.32 566.476 589.56 566.356 589.8 566.116 590.04 565.996 590.16 565.636 590.16 565.276 590.16 564.916 590.04 564.556 589.8 564.316 589.56 564.076 589.32 563.956 588.96 563.956 588.72 563.956 588.36 564.076 588.12 564.316 588 564.556 587.88 564.916 587.88 565.276 587.88 565.636 588 565.996 588.12 566.116 588.36 566.356 588.72 566.476 588.96 566.476ZM589.56 565.276C589.56 565.756 589.32 565.996 588.96 565.996 588.84 565.996 588.6 565.996 588.48 565.756 588.48 565.636 588.36 565.516 588.36 565.276 588.36 564.796 588.6 564.556 588.96 564.556 589.2 564.556 589.32 564.556 589.44 564.676 589.56 564.796 589.56 565.036 589.56 565.276Z" fill-rule="evenodd"/><path transform="matrix(1,0,0,-1,0,595.276)" d="M594.36 566.476 593.76 564.076H593.16L592.8 565.516 592.56 564.076H591.96L591.36 566.476H591.96L592.32 565.036 592.56 566.476H592.8 593.16L593.4 565.036 593.76 566.476Z" fill-rule="evenodd"/><path transform="matrix(1,0,0,-1,0,595.276)" d="M597.84 566.476V564.556H598.8V564.076H597.36V566.476Z" fill-rule="evenodd"/><path transform="matrix(1,0,0,-1,0,595.276)" d="M601.2 566.476 600.36 565.516 601.2 564.076H600.6L600 565.156 599.76 564.796V564.076H599.28V566.476H599.76V565.516L600.6 566.476Z" fill-rule="evenodd"/><path transform="matrix(1,0,0,-1,0,595.276)" d="M596.76 564.076 596.04 566.476H595.68 595.32L594.6 564.076H595.08L595.2 564.436H595.68 596.16L596.28 564.076H596.76ZM596.04 564.916H595.68 595.44L595.68 565.996 596.04 564.916Z" fill-rule="evenodd"/><path transform="matrix(1,0,0,-1,0,595.276)" d="M571.32 564.076 570.6 566.476H570.24 569.88L569.16 564.076H569.64L569.76 564.436H570.24 570.72L570.84 564.076H571.32ZM570.48 564.916H570.24 569.88L570.24 565.996 570.48 564.916Z" fill-rule="evenodd"/><path transform="matrix(1,0,0,-1,0,595.276)" d="M564.84 565.996H565.56V566.476H563.76V565.996H564.36V564.076H564.84Z" fill-rule="evenodd"/><path transform="matrix(1,0,0,-1,0,595.276)" d="M555.72 556.636V554.716H556.08V554.836H556.92V554.356L556.8 554.596H556.68L556.8 553.996 556.92 554.116V553.876L556.8 553.756H556.68L556.56 553.636H556.32L556.44 553.276 556.56 553.396H556.8L556.92 553.516H557.04V553.636L557.16 553.756V553.876 554.116 554.236 555.076H556.8V555.316H557.16V555.556H556.8V555.916H557.16V556.156H556.8V556.396H557.16V556.636H555.72ZM556.08 556.156V556.396H556.44V556.156H556.08ZM556.08 555.076V555.316H556.44V555.076H556.08ZM556.08 555.556V555.916H556.44V555.556H556.08Z" fill-rule="evenodd"/><path transform="matrix(1,0,0,-1,0,595.276)" d="M555.96 554.476H555.72L555.6 553.756H555.84Z" fill-rule="evenodd"/><path transform="matrix(1,0,0,-1,0,595.276)" d="M556.2 554.476H555.96L556.08 553.756 556.32 553.876Z" fill-rule="evenodd"/><path transform="matrix(1,0,0,-1,0,595.276)" d="M556.44 554.596 556.32 554.476 556.44 554.236V553.876L556.68 553.996Z" fill-rule="evenodd"/><path transform="matrix(1,0,0,-1,0,595.276)" d="M558 556.756V556.396H557.4V556.156H557.88V555.916L557.76 555.796H557.52L557.28 555.676 557.52 555.436 557.76 555.556H557.88L558.12 555.796 558.24 555.916 558.48 555.676 558.72 555.436 558.96 555.676 558.84 555.796H558.6L558.48 556.036 558.36 556.156H559.08V556.396H558.36V556.516 556.636H558.24Z" fill-rule="evenodd"/><path transform="matrix(1,0,0,-1,0,595.276)" d="M557.28 555.316V555.076H558.6V553.876 553.756L558.48 553.636H558.36 558.12L558.24 553.276H558.36 558.48L558.6 553.396H558.72 558.84V553.516 553.636L558.96 553.756V553.996 555.076H559.08V555.316Z" fill-rule="evenodd"/><path transform="matrix(1,0,0,-1,0,595.276)" d="M557.4 554.836V553.756H557.76V553.996H558V553.876H558.24V554.836H557.4ZM557.76 554.236V554.476H558V554.236H557.76Z" fill-rule="evenodd"/><path transform="matrix(1,0,0,-1,0,595.276)" d="M560.64 556.636V555.796H561.84V556.636H560.64ZM561 556.036V556.396H561.48V556.036H561Z" fill-rule="evenodd"/><path transform="matrix(1,0,0,-1,0,595.276)" d="M560.76 554.116H561.12V554.236H561.84V553.996H560.28V553.756H561.84V553.276H562.2V553.756H563.76V553.996H562.2V554.236H562.92V554.116H563.28V555.676H560.76V554.116ZM562.2 555.076V555.316H562.92V555.076H562.2ZM562.2 554.596V554.836H562.92V554.596H562.2ZM561.12 555.076V555.316H561.84V555.076H561.12ZM561.12 554.596V554.836H561.84V554.596H561.12Z" fill-rule="evenodd"/><path transform="matrix(1,0,0,-1,0,595.276)" d="M562.2 556.636V555.796H563.4V556.636H562.2ZM562.56 556.156V556.396H563.04V556.156H562.56Z" fill-rule="evenodd"/><path transform="matrix(1,0,0,-1,0,595.276)" d="M565.2 556.396V556.156H566.52V555.916H565.56V554.356H566.52V554.116H564.96V553.876H566.52V553.276H566.88V553.876H568.32V554.116H566.88V554.356H567.84V555.916H566.88V556.156H568.2V556.396H566.88V556.636 556.756H566.52V556.396H565.2ZM565.8 555.316V555.556H566.52V555.316H565.8ZM565.8 554.716V554.956H566.52V554.716H565.8ZM566.88 555.316V555.556H567.6V555.316H566.88ZM566.88 554.716V554.956H567.6V554.716H566.88Z" fill-rule="evenodd"/><path transform="matrix(1,0,0,-1,0,595.276)" d="M571.56 555.316H571.8 571.92 573V555.676H571.92L572.28 555.916 572.64 556.276 572.76 556.396H572.64V556.516L572.4 556.636 572.04 556.156V556.276H571.32V556.636H571.44L571.32 556.756H571.2 570.96V556.276H570V556.036H570.96V555.676H569.64V555.316H570.96L570.6 555.076 570.24 554.956 569.88 554.836 569.52 554.716 569.76 554.356 570.48 554.596V553.276H570.84V553.396H572.28V553.276H572.64V554.956H572.16 571.8 571.08L571.32 555.196 571.56 555.316ZM571.32 555.676V556.036H571.8L571.68 555.796 571.44 555.676H571.32ZM570.84 554.356V554.716H572.28V554.356H570.84ZM570.84 553.756V554.116H572.28V553.756H570.84Z" fill-rule="evenodd"/><path transform="matrix(1,0,0,-1,0,595.276)" d="M574.08 553.636 574.44 553.396 574.56 553.756 574.68 554.236 574.8 554.716V555.196L574.92 555.076 575.04 555.316V554.236H575.4V555.316L575.64 555.076 575.76 555.316V554.236H576.12V554.356H577.56V554.596H576.84V554.716H577.44V554.956H576.84V555.196H577.44V555.436H576.84V555.556H577.56V555.796H576.96V555.916L577.08 556.036 576.96 556.156H576.72L576.6 555.796H576.12V556.036H576.24L576.12 556.156H576 577.68V556.516H576.24V556.636L576.36 556.756H576.24L575.88 556.876V556.516H574.44V555.196 554.716L574.32 554.356 574.2 553.876 574.08 553.636ZM576.12 554.956V555.196H576.6V554.956H576.12ZM576.12 555.436V555.556H576.6V555.436H576.12ZM576.12 554.596V554.716H576.6V554.596H576.12ZM575.4 556.156H575.88L575.64 555.676 575.4 555.316V555.676L575.52 555.916 575.64 556.036H575.52L575.4 556.156ZM574.8 556.156H575.4L575.04 555.796 574.8 555.316V556.156Z" fill-rule="evenodd"/><path transform="matrix(1,0,0,-1,0,595.276)" d="M574.68 553.516 575.04 553.396 575.28 553.876V553.996L575.04 554.116 574.92 553.876Z" fill-rule="evenodd"/><path transform="matrix(1,0,0,-1,0,595.276)" d="M575.52 554.236V553.756 553.516 553.396L575.64 553.276H575.88 576.72 576.84L576.96 553.396 577.08 553.516 577.2 553.756 576.84 553.876V553.756L576.72 553.636H576.6 576.48 576 575.88 575.76V553.756 553.996L575.88 554.116 575.76 554.236Z" fill-rule="evenodd"/><path transform="matrix(1,0,0,-1,0,595.276)" d="M576.36 553.756 576.6 553.876 576.36 554.236 576.12 554.116Z" fill-rule="evenodd"/><path transform="matrix(1,0,0,-1,0,595.276)" d="M577.44 553.516 577.8 553.636 577.32 554.236 577.08 553.996 577.32 553.756Z" fill-rule="evenodd"/><path transform="matrix(1,0,0,-1,0,595.276)" d="M578.88 556.516V556.156H580.32V553.276H580.68V555.196L581.16 554.836 581.64 554.476 581.88 554.716 581.4 555.196 580.68 555.676V556.156H582.36V556.516Z" fill-rule="evenodd"/><path transform="matrix(1,0,0,-1,0,595.276)" d="M583.68 556.396V556.156H585.12V555.916H584.04V554.356H585.12V554.116H583.56V553.876H585.12V553.276H585.36V553.876H586.92V554.116H585.36V554.356H586.44V555.916H585.36V556.156H586.8V556.396H585.36V556.636H585.48V556.756H585.36 585.12V556.396H583.68ZM584.4 555.316V555.556H585.12V555.316H584.4ZM584.4 554.716V554.956H585.12V554.716H584.4ZM585.36 555.316V555.556H586.08V555.316H585.36ZM585.36 554.716V554.956H586.08V554.716H585.36Z" fill-rule="evenodd"/><path transform="matrix(1,0,0,-1,0,595.276)" d="M588.24 555.676V555.316H589.8V554.836 554.596L589.68 554.476H589.56 589.32L589.44 554.116H589.68L589.92 554.236 590.04 554.356 590.16 554.476V554.716 555.316H591.6V555.676H590.16V556.036H591.24V556.276H590.16V556.636 556.756H589.8V555.676H589.2V556.276 556.396H588.84V555.676Z" fill-rule="evenodd"/><path transform="matrix(1,0,0,-1,0,595.276)" d="M588.36 554.236 588.6 554.116 588.96 554.476 589.32 554.836V554.956L588.96 555.076 588.72 554.716Z" fill-rule="evenodd"/><path transform="matrix(1,0,0,-1,0,595.276)" d="M588.12 553.636 588.24 553.276 588.72 553.396H589.2L589.56 553.516 589.92 553.636 590.28 553.876 590.64 553.996 591 554.236 591.36 554.596H591.48V554.716L591.12 554.956 590.76 554.596 590.4 554.356 590.04 554.116 589.68 553.876 589.32 553.756H588.96L588.48 553.636Z" fill-rule="evenodd"/><path transform="matrix(1,0,0,-1,0,595.276)" d="M592.8 555.916 593.16 555.796 593.64 556.036 594 556.396 594.12 556.516 594 556.636H593.76L593.28 556.276Z" fill-rule="evenodd"/><path transform="matrix(1,0,0,-1,0,595.276)" d="M592.68 554.836 593.04 554.596 593.4 554.956V553.276H593.76V555.316L594 555.556 594.12 555.796H594.24V555.916H594.12L593.88 556.036 593.64 555.676 593.28 555.316 593.04 555.076Z" fill-rule="evenodd"/><path transform="matrix(1,0,0,-1,0,595.276)" d="M594.48 556.516V556.156H596.04V556.516Z" fill-rule="evenodd"/><path transform="matrix(1,0,0,-1,0,595.276)" d="M595.32 555.196V553.996 553.876L595.2 553.756 595.08 553.636H594.72L594.84 553.276H595.08 595.2 595.32L595.44 553.396H595.56V553.516L595.68 553.636V553.756 553.876 555.196H596.28V555.436H594.12V555.196Z" fill-rule="evenodd"/><path transform="matrix(1,0,0,-1,0,595.276)" d="M571.92 561.196 572.16 560.956 572.28 561.076V560.716H572.88V560.356H572.04V559.996H572.88V559.396 559.276L572.76 559.156H572.64 572.4L572.64 558.796H572.88L573.12 558.916V559.036L573.24 559.276V559.996H573.84V560.356H573.24V560.716H573.72V561.076H572.28L572.52 561.196 572.76 561.436 572.88 561.556 573 561.796 573.36 561.436 573.6 561.076 573.96 561.316 573.48 561.676 573.12 561.916 573.24 562.036V562.156L572.88 562.276 572.76 561.916 572.4 561.556 572.16 561.316Z" fill-rule="evenodd"/><path transform="matrix(1,0,0,-1,0,595.276)" d="M571.92 559.036 572.28 558.916 572.64 559.756 572.28 559.876Z" fill-rule="evenodd"/><path transform="matrix(1,0,0,-1,0,595.276)" d="M573.6 559.756H573.36L573.48 559.276 573.72 558.916 573.96 559.156 573.72 559.396Z" fill-rule="evenodd"/><path transform="matrix(1,0,0,-1,0,595.276)" d="M574.2 561.916 573.84 561.676 574.44 561.196 574.68 561.436Z" fill-rule="evenodd"/><path transform="matrix(1,0,0,-1,0,595.276)" d="M574.2 560.956 573.96 560.716 574.2 560.476 574.32 560.236 574.68 560.476 574.44 560.716Z" fill-rule="evenodd"/><path transform="matrix(1,0,0,-1,0,595.276)" d="M573.84 559.876 573.96 559.516V559.396H574.08V559.516L574.8 559.636V558.796H575.16V559.756L575.4 559.876V560.236L575.16 560.116V562.036 562.156H575.04L574.8 562.276V559.996Z" fill-rule="evenodd"/><path transform="matrix(1,0,0,-1,0,595.276)" d="M576.72 560.836H577.2V559.396L577.08 559.276V560.356 560.476H576.96 576.72V559.276H576.48L576.6 558.916 576.72 558.796V558.916L578.16 559.276V559.636L577.56 559.516V560.116H578.04V560.476H577.56V560.836H577.92V561.316L578.16 561.196 578.52 561.556H579.36L579.12 561.316 578.88 561.076 578.76 561.196V561.436L578.4 561.316 578.52 561.076 578.64 560.836 578.28 560.716 577.92 560.596 578.16 560.236 578.64 560.476 578.88 560.596 579.36 560.356 579.84 560.236 580.08 560.476 579.6 560.716 579.24 560.836 579.6 561.316 579.84 561.676 579.6 561.916H578.76L578.88 562.036H579V562.156H578.88L578.64 562.276 578.28 561.796 577.92 561.436V562.036H576.72V560.836ZM577.08 561.196V561.796H577.56V561.196H577.08Z" fill-rule="evenodd"/><path transform="matrix(1,0,0,-1,0,595.276)" d="M578.28 558.796H578.52V558.916H579.36V558.796H579.72V560.236H578.28V558.796ZM578.52 559.276V559.876H579.36V559.276H578.52Z" fill-rule="evenodd"/></g></svg>