<?xml version='1.0' encoding='UTF-8'?>
<svg xmlns="http://www.w3.org/2000/svg" xmlns:xlink="http://www.w3.org/1999/xlink" xmlns:inkscape="http://www.inkscape.org/namespaces/inkscape" version="1.1" width="567.000" height="269.280" viewBox="0 0 567.000 269.280"><g transform="scale(10.0) translate(-111.171, -289.584)"><defs><clipPath id="clip_2"><path transform="matrix(1,0,0,-1,0,595.276)" d="M74.4 .196H767.4V595.276H74.4Z"/></clipPath></defs><path transform="matrix(1,0,0,-1,0,595.276)" d="M125.64 282.436 138 303.676C138.12 304.036 138.36 304.276 138.6 304.396 138.96 304.516 139.32 304.636 139.56 304.636 139.92 304.636 140.28 304.516 140.52 304.396 140.88 304.276 141.12 304.036 141.24 303.676L153.48 282.436C153.84 281.836 153.84 281.116 153.48 280.636 153.36 280.276 153.12 280.036 152.76 279.916 152.52 279.676 152.16 279.676 151.92 279.676H127.32C126.6 279.676 126 280.036 125.64 280.636 125.4 281.116 125.4 281.836 125.64 282.436Z" fill="#ff0000" fill-rule="evenodd"/><path transform="matrix(1,0,0,-1,0,595.276)" d="M150.84 282.196 139.56 301.516 128.4 282.196Z" fill="#ffffff" fill-rule="evenodd"/><path transform="matrix(1,0,0,-1,0,595.276)" d="M141.24 294.796 137.64 293.476C136.68 293.116 135.72 292.396 135 291.436 134.28 290.476 133.92 289.276 133.92 288.196V282.796H136.68V288.196C136.68 288.796 136.8 289.396 137.16 289.876 137.52 290.356 138.12 290.716 138.6 290.956L142.08 292.156 142.92 293.956 141.24 294.796Z" fill-rule="evenodd"/></g></svg>