<?xml version='1.0' encoding='UTF-8'?>
<svg xmlns="http://www.w3.org/2000/svg" xmlns:xlink="http://www.w3.org/1999/xlink" xmlns:inkscape="http://www.inkscape.org/namespaces/inkscape" version="1.1" width="567.000" height="269.280" viewBox="0 0 567.000 269.280"><g transform="scale(10.0) translate(-220.305, -316.512)"><defs><clipPath id="clip_2"><path transform="matrix(1,0,0,-1,0,595.276)" d="M74.4 .196H767.4V595.276H74.4Z"/></clipPath></defs><path transform="matrix(1,0,0,-1,0,595.276)" d="M234.84 255.556 247.08 276.796C247.2 277.036 247.44 277.276 247.8 277.516 248.04 277.636 248.4 277.756 248.64 277.756 249 277.756 249.36 277.636 249.6 277.516 249.96 277.276 250.2 277.036 250.32 276.796L262.56 255.556C262.92 254.956 262.92 254.236 262.56 253.636 262.44 253.396 262.2 253.156 261.96 252.916 261.6 252.796 261.24 252.676 261 252.676H236.4C235.8 252.676 235.08 253.036 234.84 253.636 234.48 254.236 234.48 254.956 234.84 255.556Z" fill="#ff0000" fill-rule="evenodd"/><path transform="matrix(1,0,0,-1,0,595.276)" d="M259.92 255.196 248.64 274.636 237.48 255.196Z" fill="#ffffff" fill-rule="evenodd"/><path transform="matrix(1,0,0,-1,0,595.276)" d="M242.4 257.356H241.68C241.56 256.876 241.32 256.516 240.84 256.156 240.48 255.916 240 255.916 239.52 256.036 240.6 256.876 241.08 258.196 240.72 259.636 241.08 259.396 241.2 259.156 241.44 258.916L243.48 260.476V262.156C243.48 262.516 243.84 262.876 244.2 262.876H247.08C247.2 262.876 247.32 262.876 247.44 262.996 247.56 262.996 247.68 263.116 247.8 263.236L248.28 264.676C248.4 264.796 248.52 264.916 248.52 264.916 248.64 265.036 248.88 265.036 249 265.036L252.96 265.276C252.96 265.276 253.08 265.276 253.2 265.276 253.32 265.156 253.32 265.156 253.44 265.156 253.56 264.916 253.68 264.796 253.68 264.676V261.676H254.76L254.4 259.156H250.8V258.796H254.28C254.64 258.796 254.88 258.676 255.24 258.436 255.48 258.196 255.6 257.836 255.6 257.596 255.6 257.236 255.48 256.996 255.24 256.636 255 256.396 254.64 256.276 254.4 256.276H243.6C243 256.276 242.52 256.756 242.4 257.356ZM253.92 257.836H244.32C244.2 257.836 243.96 257.716 243.96 257.476 243.96 257.476 244.08 257.356 244.08 257.236 244.2 257.236 244.2 257.236 244.32 257.236H253.92C253.92 257.236 254.04 257.236 254.16 257.236 254.16 257.356 254.16 257.476 254.16 257.476 254.16 257.596 254.16 257.716 254.16 257.716 254.04 257.836 253.92 257.836 253.92 257.836ZM249.24 264.436V260.116H250.68V264.436H249.24ZM251.28 264.436V262.756H252.96V264.436H251.28ZM246.36 259.156H243.96C243.84 259.156 243.72 259.276 243.6 259.276 243.48 259.396 243.48 259.516 243.48 259.636L241.56 258.556C241.68 258.316 241.68 257.956 241.68 257.716H242.4C242.52 258.316 243 258.796 243.6 258.796H246.36V259.156Z" fill-rule="evenodd"/></g></svg>