<?xml version='1.0' encoding='UTF-8'?>
<svg xmlns="http://www.w3.org/2000/svg" xmlns:xlink="http://www.w3.org/1999/xlink" xmlns:inkscape="http://www.inkscape.org/namespaces/inkscape" version="1.1" width="567.000" height="269.280" viewBox="0 0 567.000 269.280"><g transform="scale(10.0) translate(-111.171, -397.296)"><defs><clipPath id="clip_2"><path transform="matrix(1,0,0,-1,0,595.276)" d="M74.4 .196H767.4V595.276H74.4Z"/></clipPath></defs><path transform="matrix(1,0,0,-1,0,595.276)" d="M125.64 174.796 138 196.036C138.12 196.276 138.36 196.516 138.6 196.756 138.96 196.876 139.32 196.996 139.56 196.996 139.92 196.996 140.28 196.876 140.52 196.756 140.88 196.516 141.12 196.276 141.24 196.036L153.48 174.796C153.84 174.196 153.84 173.476 153.48 172.876 153.36 172.636 153.12 172.396 152.76 172.156 152.52 172.036 152.16 171.916 151.92 171.916H127.32C126.6 171.916 126 172.276 125.64 172.876 125.4 173.476 125.4 174.196 125.64 174.796Z" fill="#ff0000" fill-rule="evenodd"/><path transform="matrix(1,0,0,-1,0,595.276)" d="M150.84 174.436 139.56 193.876 128.4 174.436Z" fill="#ffffff" fill-rule="evenodd"/><path transform="matrix(1,0,0,-1,0,595.276)" d="M136.44 182.116C136.32 182.116 136.08 182.116 135.96 182.236 135.84 182.356 135.84 182.476 135.84 182.596V182.956H138.24V182.716L136.92 182.236 137.4 181.516H142.32C142.2 181.636 142.2 181.876 142.32 182.116L142.8 182.956H141.6V183.436H143.16C143.28 183.436 143.4 183.316 143.52 183.196V183.076 182.956L142.68 181.876V181.756L143.28 180.076C143.64 180.196 144 180.316 144.48 180.316 144.96 180.316 145.32 180.076 145.8 179.836 146.16 179.596 146.52 179.116 146.64 178.756 146.88 178.396 146.88 177.916 146.88 177.556 146.88 177.196 146.76 176.836 146.52 176.356 146.28 175.996 145.92 175.636 145.56 175.396 145.08 175.156 144.6 175.036 144.24 175.036 143.76 175.156 143.28 175.276 143.04 175.396 142.68 175.636 142.32 175.876 142.08 176.236 141.84 176.596 141.72 177.076 141.72 177.556 141.6 178.036 141.72 178.516 141.96 178.876 142.2 179.356 142.44 179.596 142.8 179.836L142.68 180.076 139.8 177.676C139.8 177.556 139.8 177.436 139.8 177.316 139.68 177.316 139.68 177.196 139.56 177.076 139.32 176.956 139.08 176.836 138.84 176.956V176.716H138.96V176.596H138.72V176.476H138.6V176.596H138.48V176.716H138.6L138.72 176.956C138.6 177.076 138.6 177.076 138.48 177.196 138.48 177.196 138.36 177.316 138.36 177.436H137.52C137.4 176.716 137.04 176.116 136.44 175.636 135.84 175.156 135 175.036 134.4 175.156 133.68 175.276 133.08 175.636 132.6 176.356 132.24 177.076 132.24 177.916 132.48 178.516 132.6 179.116 133.08 179.716 133.8 180.076 134.64 180.436 135.36 180.316 135.96 180.076L136.8 181.516 136.44 182.116ZM137.52 180.916 138.96 178.516H139.08C139.2 178.516 139.2 178.516 139.32 178.396V178.636H139.2V178.756H139.44V178.876H139.56V178.756H139.68V178.636H139.56L139.44 178.396C139.56 178.396 139.56 178.276 139.68 178.156L142.56 180.556 142.44 180.916H137.52ZM144.36 177.916H144.48V177.796C144.6 177.676 144.48 177.676 144.48 177.556 144.48 177.436 144.36 177.436 144.24 177.436 144 177.556 143.76 177.796 143.52 178.036 143.4 178.276 143.28 178.516 143.16 178.756L142.92 179.356C142.56 178.876 142.08 178.276 142.2 177.436 142.32 176.596 142.8 176.116 143.4 175.876 143.88 175.516 144.72 175.516 145.32 175.876 146.04 176.356 146.4 177.076 146.4 177.676 146.4 178.276 146.16 178.996 145.44 179.476 145.08 179.596 144.72 179.716 144.36 179.716 144 179.836 143.64 179.716 143.4 179.596L143.64 178.876C143.76 178.516 144 178.156 144.36 177.916ZM138.48 177.676C138.48 177.556 138.48 177.316 138.6 177.196 138.72 177.076 138.96 177.076 139.08 177.076 139.2 177.076 139.44 177.076 139.56 177.196 139.68 177.316 139.68 177.556 139.68 177.676 139.68 177.796 139.68 178.036 139.56 178.156 139.44 178.276 139.2 178.396 139.08 178.396 138.96 178.396 138.72 178.276 138.6 178.156 138.48 178.036 138.48 177.796 138.48 177.676ZM138.48 178.156 136.92 180.796 136.44 179.836C136.68 179.596 136.92 179.356 137.16 178.996 137.4 178.636 137.52 178.276 137.52 177.916H138.36C138.36 178.036 138.36 178.156 138.48 178.156ZM136.92 177.916C136.92 178.516 136.56 178.996 136.2 179.356L135.36 177.916H136.92ZM134.88 177.436C134.88 177.436 134.76 177.436 134.64 177.556V177.676 177.796L135.72 179.596C135.24 179.836 134.64 179.836 134.04 179.596 133.44 179.356 133.08 178.876 132.96 178.276 132.72 177.796 132.84 177.196 133.08 176.596 133.44 176.116 133.92 175.756 134.52 175.636 135 175.516 135.6 175.636 136.08 175.996 136.32 176.116 136.56 176.356 136.68 176.596 136.8 176.956 136.92 177.196 136.92 177.436H134.88Z" fill-rule="evenodd"/></g></svg>