<?xml version='1.0' encoding='UTF-8'?>
<svg xmlns="http://www.w3.org/2000/svg" xmlns:xlink="http://www.w3.org/1999/xlink" xmlns:inkscape="http://www.inkscape.org/namespaces/inkscape" version="1.1" width="567.000" height="269.280" viewBox="0 0 567.000 269.280"><g transform="scale(10.0) translate(-438.573, -154.944)"><defs><clipPath id="clip_2"><path transform="matrix(1,0,0,-1,0,595.276)" d="M74.4 .196H767.4V595.276H74.4Z"/></clipPath></defs><path transform="matrix(1,0,0,-1,0,595.276)" d="M493.44 438.196C493.44 438.436 493.44 438.676 493.2 438.796 493.2 438.916 493.08 438.916 492.96 439.036 492.84 439.036 492.72 439.036 492.6 439.036H441.24C441 439.036 440.76 438.916 440.64 438.796 440.4 438.676 440.4 438.436 440.4 438.196V415.156C440.4 414.916 440.4 414.676 440.64 414.556 440.64 414.436 440.76 414.316 440.88 414.316 441 414.316 441.12 414.316 441.24 414.316H492.6C492.84 414.316 493.08 414.316 493.2 414.556 493.44 414.676 493.44 414.916 493.44 415.156V438.196ZM493.08 415.156V415.156C493.08 415.036 493.08 415.036 493.08 414.916L492.96 414.796 492.84 414.676C492.72 414.676 492.72 414.676 492.6 414.676H441.24 441.12C441 414.676 441 414.796 440.88 414.796V414.916C440.76 415.036 440.76 415.036 440.76 415.156V438.196C440.76 438.196 440.76 438.316 440.88 438.316 440.88 438.436 440.88 438.436 440.88 438.556 441 438.556 441 438.556 441.12 438.556 441.12 438.676 441.12 438.676 441.24 438.676H492.6C492.72 438.676 492.84 438.556 492.96 438.556 493.08 438.436 493.08 438.316 493.08 438.196V415.156Z" fill-rule="evenodd"/><path transform="matrix(1,0,0,-1,0,595.276)" d="M492.6 438.676H441.24C441.12 438.676 441 438.556 440.88 438.556 440.88 438.436 440.76 438.316 440.76 438.196V415.156C440.76 415.036 440.88 414.916 440.88 414.796 441 414.676 441.12 414.676 441.24 414.676H492.6C492.72 414.676 492.84 414.676 492.96 414.796 493.08 414.916 493.08 415.036 493.08 415.156V438.196 438.316C493.08 438.436 492.96 438.436 492.96 438.556H492.84C492.72 438.676 492.72 438.676 492.6 438.676Z" fill="#ffffff" fill-rule="evenodd"/><path transform="matrix(1,0,0,-1,0,595.276)" d="M467.16 427.756 467.64 429.556H467.04L466.8 428.476 466.56 429.556H466.32 466.08L465.72 428.476 465.48 429.556H465L465.48 427.756H466.08L466.32 428.716 466.56 427.756Z" fill-rule="evenodd"/><path transform="matrix(1,0,0,-1,0,595.276)" d="M468.36 427.756V429.556H468V427.756Z" fill-rule="evenodd"/><path transform="matrix(1,0,0,-1,0,595.276)" d="M468.48 430.036C468.48 430.156 468.36 430.276 468.24 430.276 468 430.276 467.88 430.156 467.88 430.036 467.88 429.796 468 429.676 468.24 429.676 468.36 429.676 468.48 429.796 468.48 430.036Z" fill-rule="evenodd"/><path transform="matrix(1,0,0,-1,0,595.276)" d="M469.32 430.276V428.236C469.32 428.116 469.44 428.116 469.68 428.236V427.756H469.56C469.56 427.756 469.44 427.756 469.32 427.756 469.08 427.756 468.96 427.876 468.84 427.996V428.116 430.276H469.32Z" fill-rule="evenodd"/><path transform="matrix(1,0,0,-1,0,595.276)" d="M470.52 430.276V428.236C470.52 428.116 470.64 428.116 470.76 428.236L470.88 427.756H470.76C470.64 427.756 470.52 427.756 470.52 427.756 470.28 427.756 470.04 427.876 470.04 427.996V428.116 430.276H470.52Z" fill-rule="evenodd"/><path transform="matrix(1,0,0,-1,0,595.276)" d="M472.92 427.636C473.16 427.636 473.28 427.756 473.4 427.876 473.52 428.116 473.64 428.356 473.64 428.596 473.64 429.196 473.4 429.556 472.92 429.556 472.68 429.556 472.56 429.556 472.44 429.436V430.276H472.08V427.756H472.56C472.68 427.756 472.8 427.636 472.92 427.636ZM472.8 428.116C472.68 428.116 472.56 428.236 472.56 428.356V428.956C472.56 428.956 472.56 429.076 472.68 429.076L472.8 429.196C473.04 429.076 473.16 428.956 473.16 428.596 473.16 428.236 473.04 428.116 472.8 428.116Z" fill-rule="evenodd"/><path transform="matrix(1,0,0,-1,0,595.276)" d="M475.56 428.476C475.56 429.196 475.32 429.556 474.72 429.556 474.24 429.556 474 429.316 473.88 428.596 473.88 428.356 474 428.116 474.12 427.996 474.36 427.756 474.6 427.636 474.84 427.636 474.96 427.636 475.08 427.636 475.32 427.756 475.44 427.876 475.44 427.876 475.56 427.996L475.2 428.236C475.2 428.236 474.96 428.116 474.84 428.116 474.72 428.116 474.6 428.116 474.6 428.236 474.48 428.236 474.48 428.236 474.48 428.356V428.476H475.56ZM474.48 428.836V428.836C474.48 428.956 474.48 428.956 474.6 429.076L474.72 429.196C474.96 429.196 475.08 429.076 475.08 428.836H474.48Z" fill-rule="evenodd"/><path transform="matrix(1,0,0,-1,0,595.276)" d="M476.88 427.756V429.556H477.36V429.436C477.36 429.436 477.48 429.556 477.6 429.556 477.72 429.556 477.84 429.676 477.96 429.556V429.076C477.84 429.076 477.6 429.076 477.6 428.956 477.48 428.956 477.36 428.836 477.36 428.836V427.756H476.88Z" fill-rule="evenodd"/><path transform="matrix(1,0,0,-1,0,595.276)" d="M479.88 428.476C479.88 429.196 479.64 429.556 479.04 429.556 478.56 429.556 478.32 429.316 478.2 428.596 478.2 428.356 478.32 428.116 478.44 427.996 478.68 427.756 478.92 427.636 479.16 427.636 479.28 427.636 479.4 427.636 479.64 427.756 479.76 427.876 479.76 427.876 479.88 427.996L479.52 428.236C479.52 428.236 479.28 428.116 479.16 428.116 479.04 428.116 478.92 428.116 478.92 428.236 478.8 428.236 478.8 428.236 478.8 428.356V428.476H479.88ZM478.8 428.836V428.836C478.8 428.956 478.8 428.956 478.92 429.076L479.04 429.196C479.28 429.196 479.4 429.076 479.4 428.836H478.8Z" fill-rule="evenodd"/><path transform="matrix(1,0,0,-1,0,595.276)" d="M482.04 429.076C481.92 429.076 481.8 428.956 481.8 428.836V427.756H481.32V428.956C481.32 429.076 481.2 429.076 481.08 429.076 480.96 429.076 480.72 428.956 480.72 428.836V427.756H480.24V429.556H480.72V429.436C480.84 429.556 480.84 429.556 480.96 429.556 480.96 429.556 481.08 429.556 481.2 429.556 481.44 429.556 481.56 429.556 481.68 429.316 481.8 429.556 481.92 429.556 482.16 429.556 482.52 429.556 482.64 429.436 482.76 429.196V429.076H482.88V427.756H482.4V428.956C482.4 428.956 482.28 428.956 482.28 429.076 482.28 429.076 482.16 429.076 482.04 429.076Z" fill-rule="evenodd"/><path transform="matrix(1,0,0,-1,0,595.276)" d="M485.04 428.596C485.04 428.956 484.92 429.196 484.8 429.316 484.68 429.556 484.44 429.556 484.2 429.556 483.84 429.556 483.72 429.556 483.48 429.316 483.36 429.196 483.24 428.956 483.24 428.596 483.24 428.356 483.36 428.116 483.48 427.876 483.72 427.756 483.84 427.636 484.2 427.636 484.44 427.636 484.68 427.756 484.8 427.876 484.92 428.116 485.04 428.356 485.04 428.596ZM484.56 428.596C484.56 428.356 484.44 428.116 484.2 428.116 484.08 428.116 483.96 428.236 483.84 428.236 483.84 428.356 483.84 428.476 483.84 428.596 483.84 428.956 483.96 429.076 484.2 429.076 484.32 429.076 484.32 429.076 484.44 428.956 484.44 428.956 484.56 428.836 484.56 428.596Z" fill-rule="evenodd"/><path transform="matrix(1,0,0,-1,0,595.276)" d="M485.88 427.756 485.28 429.556H485.76L486.12 428.356 486.48 429.556H487.08L486.48 427.756H486.12Z" fill-rule="evenodd"/><path transform="matrix(1,0,0,-1,0,595.276)" d="M488.88 428.476C488.88 429.196 488.64 429.556 488.04 429.556 487.56 429.556 487.32 429.316 487.2 428.596 487.2 428.356 487.32 428.116 487.44 427.996 487.68 427.756 487.92 427.636 488.16 427.636 488.28 427.636 488.4 427.636 488.64 427.756 488.76 427.876 488.76 427.876 488.88 427.996L488.52 428.236C488.52 428.236 488.28 428.116 488.16 428.116 488.04 428.116 487.92 428.116 487.92 428.236 487.8 428.236 487.8 428.236 487.8 428.356V428.476H488.88ZM487.8 428.836V428.836C487.8 428.956 487.8 428.956 487.92 429.076L488.04 429.196C488.28 429.196 488.4 429.076 488.4 428.836H487.8Z" fill-rule="evenodd"/><path transform="matrix(1,0,0,-1,0,595.276)" d="M490.44 427.756C490.44 427.756 490.2 427.636 490.08 427.636 489.6 427.636 489.24 427.996 489.24 428.596V428.716 428.836C489.24 429.316 489.6 429.556 489.96 429.556 490.08 429.556 490.32 429.556 490.44 429.436V430.276H490.92V427.756H490.44ZM490.44 428.356V428.836 428.956H490.32C490.32 429.076 490.2 429.076 490.08 429.076 489.84 429.076 489.72 428.956 489.72 428.596 489.72 428.236 489.84 428.116 490.08 428.116 490.32 428.116 490.44 428.236 490.44 428.356Z" fill-rule="evenodd"/><path transform="matrix(1,0,0,-1,0,595.276)" d="M471.36 431.236V433.756H472.2 472.32 472.44 472.56C472.92 433.636 473.16 433.396 473.16 433.036 473.16 432.916 473.16 432.916 473.16 432.796 473.04 432.676 473.04 432.676 472.92 432.556 473.04 432.556 473.16 432.556 473.16 432.436 473.28 432.316 473.28 432.196 473.28 432.076 473.28 431.716 473.04 431.356 472.68 431.356H472.56 472.44L472.32 431.236H471.36ZM472.68 433.036C472.68 433.156 472.56 433.276 472.56 433.276H472.44 472.32 471.84V432.796H472.32 472.44 472.56C472.56 432.796 472.68 432.916 472.68 433.036ZM471.84 431.716H472.32L472.44 431.836H472.56C472.68 431.836 472.8 431.956 472.8 432.076 472.8 432.196 472.68 432.316 472.56 432.316H472.44 472.32 471.84V431.716Z" fill-rule="evenodd"/><path transform="matrix(1,0,0,-1,0,595.276)" d="M474.24 431.236V433.036H473.76V431.236Z" fill-rule="evenodd"/><path transform="matrix(1,0,0,-1,0,595.276)" d="M474.36 433.516C474.36 433.636 474.24 433.876 474 433.876 473.88 433.876 473.76 433.636 473.76 433.516 473.76 433.396 473.88 433.276 474 433.276 474.24 433.276 474.36 433.396 474.36 433.516Z" fill-rule="evenodd"/><path transform="matrix(1,0,0,-1,0,595.276)" d="M475.56 433.156C475.68 433.156 475.92 433.156 476.04 433.036 476.16 432.916 476.28 432.796 476.28 432.556L475.92 432.436C475.8 432.556 475.68 432.676 475.56 432.676 475.32 432.676 475.2 432.556 475.2 432.316L475.08 432.196 475.2 432.076C475.2 431.836 475.32 431.716 475.56 431.716 475.68 431.596 475.68 431.716 475.8 431.716 475.8 431.836 475.92 431.836 475.92 431.956L476.4 431.836C476.28 431.356 475.92 431.236 475.56 431.236 474.96 431.236 474.72 431.596 474.6 432.196 474.72 432.796 474.96 433.156 475.56 433.156Z" fill-rule="evenodd"/><path transform="matrix(1,0,0,-1,0,595.276)" d="M478.2 433.036H477.72L477.36 431.956 477 433.036H476.52L477.12 431.476V431.356 431.236C477.12 431.116 477.12 431.116 477 431.116H476.88 476.76L476.64 430.756C476.88 430.636 477 430.636 477.24 430.636 477.36 430.636 477.36 430.756 477.48 430.756 477.48 430.876 477.6 430.876 477.6 430.996L478.2 433.036Z" fill-rule="evenodd"/><path transform="matrix(1,0,0,-1,0,595.276)" d="M479.4 433.156C479.52 433.156 479.76 433.156 479.88 433.036 480 432.916 480.12 432.796 480.12 432.556L479.76 432.436C479.64 432.556 479.52 432.676 479.4 432.676 479.16 432.676 479.04 432.556 478.92 432.316V432.196 432.076H479.04C479.04 431.836 479.16 431.716 479.4 431.716 479.52 431.596 479.52 431.716 479.64 431.716 479.64 431.836 479.76 431.836 479.76 431.956L480.12 431.836C480 431.356 479.76 431.236 479.4 431.236 478.8 431.236 478.56 431.596 478.44 432.196 478.56 432.796 478.8 433.156 479.4 433.156Z" fill-rule="evenodd"/><path transform="matrix(1,0,0,-1,0,595.276)" d="M480.96 433.756V431.836 431.716C480.96 431.716 481.08 431.716 481.2 431.716L481.32 431.236H481.2C481.08 431.236 480.96 431.236 480.96 431.236 480.72 431.236 480.48 431.356 480.48 431.596V431.716 433.756H480.96Z" fill-rule="evenodd"/><path transform="matrix(1,0,0,-1,0,595.276)" d="M483.24 431.956C483.24 432.796 482.88 433.156 482.4 433.156 481.92 433.156 481.56 432.796 481.56 432.196 481.56 431.956 481.56 431.716 481.8 431.596 481.92 431.356 482.16 431.236 482.4 431.236 482.64 431.236 482.76 431.236 482.88 431.236 483 431.356 483.12 431.476 483.12 431.476L482.88 431.836C482.76 431.716 482.64 431.716 482.4 431.716 482.4 431.596 482.28 431.716 482.16 431.716 482.16 431.836 482.16 431.836 482.04 431.836V431.956H483.24ZM482.04 432.436V432.436C482.04 432.436 482.04 432.556 482.16 432.556 482.28 432.676 482.28 432.676 482.4 432.676 482.52 432.676 482.64 432.556 482.76 432.436H482.04Z" fill-rule="evenodd"/><path transform="matrix(1,0,0,-1,0,595.276)" d="M485.04 431.836C485.04 432.196 484.8 432.436 484.44 432.436 484.32 432.436 484.2 432.436 484.2 432.436L484.08 432.556C484.08 432.676 484.08 432.676 484.32 432.796 484.44 432.796 484.44 432.676 484.56 432.676L484.68 432.556 485.04 432.916C484.92 433.036 484.68 433.156 484.32 433.156 483.84 433.156 483.6 432.916 483.6 432.556 483.6 432.196 483.72 432.076 484.08 431.956 484.32 431.956 484.44 431.956 484.44 431.836V431.716H484.32C484.2 431.716 484.08 431.716 483.96 431.716 483.96 431.716 483.84 431.836 483.72 431.956L483.48 431.596C483.6 431.356 483.96 431.236 484.32 431.236 484.68 431.236 485.04 431.476 485.04 431.836Z" fill-rule="evenodd"/><path transform="matrix(1,0,0,-1,0,595.276)" d="M465.6 434.836V437.356H465.12V434.836Z" fill-rule="evenodd"/><path transform="matrix(1,0,0,-1,0,595.276)" d="M466.68 437.356V435.316C466.68 435.196 466.8 435.196 466.92 435.316L467.04 434.836H466.92C466.8 434.836 466.68 434.836 466.68 434.836 466.44 434.836 466.2 434.956 466.2 435.076V435.196 437.356H466.68Z" fill-rule="evenodd"/><path transform="matrix(1,0,0,-1,0,595.276)" d="M467.76 437.356V435.316C467.76 435.196 467.88 435.196 468.12 435.316V434.836H468C468 434.836 467.88 434.836 467.76 434.836 467.52 434.836 467.4 434.956 467.28 435.076V435.196 437.356H467.76Z" fill-rule="evenodd"/><path transform="matrix(1,0,0,-1,0,595.276)" d="M470.04 435.556C470.04 436.276 469.8 436.636 469.2 436.756 468.72 436.636 468.48 436.396 468.36 435.796 468.36 435.436 468.48 435.196 468.6 435.076 468.84 434.836 469.08 434.716 469.32 434.716 469.44 434.716 469.56 434.716 469.68 434.836 469.92 434.956 469.92 434.956 470.04 435.076L469.68 435.316C469.68 435.316 469.44 435.196 469.32 435.196 469.2 435.196 469.08 435.196 469.08 435.316 468.96 435.316 468.96 435.316 468.96 435.436V435.556H470.04ZM468.96 435.916V435.916C468.96 436.036 468.96 436.036 468.96 436.156 469.08 436.276 469.2 436.276 469.2 436.276 469.44 436.276 469.56 436.156 469.56 435.916H468.96Z" fill-rule="evenodd"/><path transform="matrix(1,0,0,-1,0,595.276)" d="M471.96 434.716V436.636H471.48V436.516C471.48 436.636 471.36 436.756 471.12 436.756 470.64 436.636 470.28 436.396 470.28 435.676 470.4 435.196 470.64 434.956 471.12 434.836 471.24 434.836 471.24 434.836 471.36 434.956H471.48C471.48 434.716 471.36 434.596 471.24 434.596 471.12 434.596 471.12 434.596 471 434.716 470.88 434.716 470.76 434.716 470.52 434.836L470.28 434.476C470.52 434.236 470.88 434.236 471.12 434.116 471.72 434.116 471.96 434.356 471.96 434.716ZM471.48 435.916V435.556C471.48 435.436 471.48 435.436 471.36 435.436 471.36 435.316 471.24 435.316 471.24 435.316 471 435.316 470.88 435.436 470.88 435.796 470.88 436.036 471 436.156 471.24 436.156 471.36 436.156 471.48 436.156 471.48 435.916Z" fill-rule="evenodd"/><path transform="matrix(1,0,0,-1,0,595.276)" d="M474.12 435.196 474 434.716C473.88 434.716 473.76 434.836 473.76 434.836 473.64 434.836 473.64 434.836 473.64 434.956 473.52 434.836 473.28 434.716 473.16 434.716 472.92 434.716 472.68 434.836 472.56 434.956 472.44 435.076 472.44 435.196 472.44 435.436 472.44 435.556 472.56 435.796 472.68 435.796 472.92 435.916 473.16 436.036 473.52 436.036 473.52 436.156 473.4 436.156 473.4 436.156 473.4 436.276 473.28 436.276 473.28 436.276 473.16 436.276 473.04 436.276 472.92 436.156 472.92 436.156 472.8 436.156 472.68 436.036L472.44 436.396C472.68 436.636 472.92 436.756 473.28 436.756 473.52 436.756 473.64 436.636 473.76 436.636 473.88 436.516 474 436.396 474 436.156V435.316C474 435.196 474 435.196 474.12 435.196ZM472.92 435.436C472.92 435.316 472.92 435.316 473.04 435.196 473.04 435.196 473.16 435.196 473.28 435.196 473.4 435.196 473.4 435.196 473.52 435.316V435.556C473.28 435.556 473.16 435.556 473.04 435.556L472.92 435.436Z" fill-rule="evenodd"/><path transform="matrix(1,0,0,-1,0,595.276)" d="M474.96 437.356V435.316C474.96 435.196 475.08 435.196 475.32 435.316V434.836H475.2C475.08 434.836 475.08 434.836 474.96 434.836 474.72 434.836 474.48 434.956 474.48 435.076V435.196 437.356H474.96Z" fill-rule="evenodd"/><path transform="matrix(1,0,0,-1,0,595.276)" d="M476.04 437.356V435.316C476.04 435.196 476.16 435.196 476.4 435.316V434.836H476.28C476.28 434.836 476.16 434.836 476.04 434.836 475.8 434.836 475.68 434.956 475.56 435.076V435.196 437.356H476.04Z" fill-rule="evenodd"/><path transform="matrix(1,0,0,-1,0,595.276)" d="M478.32 436.636H477.84L477.48 435.556 477.12 436.636H476.64L477.24 434.956V434.836 434.716H477.12 477 476.88L476.76 434.236C477 434.236 477.12 434.236 477.36 434.236 477.36 434.236 477.48 434.236 477.6 434.356 477.6 434.356 477.6 434.476 477.72 434.596L478.32 436.636Z" fill-rule="evenodd"/><path transform="matrix(1,0,0,-1,0,595.276)" d="M480.24 435.796H480.96 481.08C481.32 435.796 481.56 436.156 481.56 436.516 481.56 436.876 481.44 437.236 481.08 437.356H480.96 479.76V434.836H480.24V435.796ZM480.24 436.156V436.876H480.84C480.96 436.876 481.08 436.636 481.08 436.516 481.08 436.396 480.96 436.276 480.84 436.156H480.24Z" fill-rule="evenodd"/><path transform="matrix(1,0,0,-1,0,595.276)" d="M483.72 435.196 483.6 434.716C483.36 434.716 483.36 434.836 483.24 434.836 483.12 434.836 483.12 434.836 483.12 434.956 483 434.836 482.76 434.716 482.64 434.716 482.4 434.716 482.28 434.836 482.16 434.956 481.92 435.076 481.92 435.196 481.92 435.436 481.92 435.556 482.04 435.796 482.16 435.796 482.4 435.916 482.64 436.036 483 436.036 483 436.156 483 436.156 482.88 436.156 482.88 436.276 482.88 436.276 482.76 436.276 482.64 436.276 482.52 436.276 482.4 436.156 482.4 436.156 482.28 436.156 482.16 436.036L481.92 436.396C482.16 436.636 482.4 436.756 482.76 436.756 483 436.756 483.12 436.636 483.24 436.636 483.36 436.516 483.48 436.396 483.48 436.156V435.316C483.48 435.196 483.6 435.196 483.72 435.196ZM482.4 435.436C482.4 435.316 482.4 435.316 482.52 435.196 482.52 435.196 482.64 435.196 482.76 435.196 482.88 435.196 482.88 435.196 483 435.316V435.556C482.76 435.556 482.64 435.556 482.52 435.556L482.4 435.436Z" fill-rule="evenodd"/><path transform="matrix(1,0,0,-1,0,595.276)" d="M483.96 434.836V436.636H484.44V436.516C484.44 436.516 484.56 436.636 484.68 436.636 484.8 436.636 484.92 436.756 485.04 436.756V436.156C484.92 436.156 484.68 436.156 484.68 436.036 484.56 436.036 484.44 435.916 484.44 435.916V434.836H483.96Z" fill-rule="evenodd"/><path transform="matrix(1,0,0,-1,0,595.276)" d="M485.4 434.836V437.356H485.88V436.036L486.48 436.636H487.08L486.48 435.916 487.08 434.836H486.6L486.12 435.556 485.88 435.316V434.836Z" fill-rule="evenodd"/><path transform="matrix(1,0,0,-1,0,595.276)" d="M489 435.556C489 436.276 488.76 436.636 488.16 436.756 487.68 436.636 487.44 436.396 487.44 435.796 487.44 435.436 487.44 435.196 487.56 435.076 487.8 434.836 488.04 434.716 488.28 434.716 488.4 434.716 488.64 434.716 488.76 434.836 488.88 434.956 489 434.956 489 435.076L488.64 435.316C488.64 435.316 488.4 435.196 488.28 435.196 488.16 435.196 488.16 435.196 488.04 435.316 488.04 435.316 487.92 435.316 487.92 435.436V435.556H489ZM487.92 435.916V435.916C487.92 436.036 487.92 436.036 488.04 436.156 488.04 436.276 488.16 436.276 488.28 436.276 488.4 436.276 488.52 436.156 488.52 435.916H487.92Z" fill-rule="evenodd"/><path transform="matrix(1,0,0,-1,0,595.276)" d="M490.56 434.836C490.56 434.836 490.44 434.716 490.2 434.716 489.72 434.716 489.36 435.076 489.36 435.676V435.796 435.916C489.36 436.396 489.72 436.636 490.08 436.636 490.32 436.636 490.44 436.636 490.56 436.516V437.356H491.04V434.836H490.56ZM490.56 435.436V435.916 436.036C490.44 436.156 490.32 436.156 490.2 436.156 489.96 436.156 489.84 436.036 489.84 435.676 489.84 435.436 489.96 435.196 490.2 435.196 490.44 435.196 490.56 435.316 490.56 435.436Z" fill-rule="evenodd"/><path transform="matrix(1,0,0,-1,0,595.276)" d="M463.8 426.676C463.8 427.876 463.68 429.196 463.08 430.516 462.6 431.836 461.76 433.156 460.68 434.116 459.72 435.196 458.4 436.036 457.08 436.516 455.76 436.996 454.44 437.236 453.24 437.236 451.92 437.236 450.6 436.996 449.28 436.516 447.96 436.036 446.76 435.196 445.68 434.116 444.72 433.156 443.88 431.836 443.4 430.516 442.8 429.196 442.56 427.876 442.56 426.676 442.56 425.356 442.8 424.036 443.4 422.716 443.88 421.396 444.72 420.196 445.68 419.116 446.76 418.036 447.96 417.316 449.28 416.716 450.6 416.236 451.92 415.996 453.24 415.996 454.44 415.996 455.76 416.236 457.08 416.716 458.4 417.316 459.72 418.036 460.68 419.116 461.76 420.196 462.6 421.396 463.08 422.716 463.68 424.036 463.8 425.356 463.8 426.676ZM446.88 432.316C447.6 433.036 448.32 433.636 449.28 434.116 450.12 434.596 451.2 434.956 452.28 435.076 453.36 435.196 454.44 435.076 455.4 434.836 456.48 434.596 457.32 434.116 458.04 433.636 458.88 433.036 459.6 432.316 460.2 431.476 460.8 430.636 461.28 429.676 461.52 428.596 461.76 427.636 461.76 426.556 461.64 425.476 461.52 424.396 461.16 423.556 460.8 422.716L446.88 432.316ZM459.48 420.916C458.88 420.196 458.16 419.596 457.2 419.116 456.24 418.636 455.28 418.276 454.2 418.156 453.12 418.036 452.04 418.156 451.08 418.396 450 418.756 449.16 419.116 448.32 419.716 447.6 420.196 446.88 420.916 446.28 421.756 445.68 422.596 445.2 423.556 444.96 424.636 444.72 425.716 444.72 426.796 444.84 427.756 444.96 428.836 445.32 429.796 445.68 430.636L459.48 420.916Z" fill="#ff0000" fill-rule="evenodd"/><path transform="matrix(1,0,0,-1,0,595.276)" d="M446.88 432.316C448.32 433.876 450.24 434.836 452.28 435.076 454.32 435.316 456.36 434.836 458.04 433.636 458.88 433.036 459.6 432.316 460.2 431.476 460.8 430.636 461.28 429.676 461.52 428.596 461.76 427.636 461.76 426.556 461.64 425.476 461.52 424.396 461.16 423.556 460.8 422.716L446.88 432.316Z" fill="#0000ff" fill-rule="evenodd"/><path transform="matrix(1,0,0,-1,0,595.276)" d="M459.48 420.916C458.16 419.356 456.24 418.396 454.2 418.156 452.16 417.916 450 418.516 448.32 419.716 447.6 420.196 446.88 420.916 446.28 421.756 445.68 422.596 445.2 423.556 444.96 424.636 444.72 425.716 444.72 426.796 444.84 427.756 444.96 428.836 445.32 429.796 445.68 430.636L459.48 420.916Z" fill="#0000ff" fill-rule="evenodd"/><path transform="matrix(1,0,0,-1,0,595.276)" d="M449.28 430.876C449.16 430.996 449.16 431.116 449.16 431.236 449.28 431.236 449.28 431.356 449.28 431.356 449.4 431.356 449.4 431.356 449.52 431.356H451.2V430.876H449.88L450.48 430.036V429.916 429.796L449.4 430.636 449.28 430.876Z" fill="#ffffff" fill-rule="evenodd"/><path transform="matrix(1,0,0,-1,0,595.276)" d="M455.52 429.436H451.08L451.92 428.836H455.28L454.32 427.156 454.8 426.796 455.88 428.716 456.48 427.756C456.24 427.516 456 427.396 455.88 427.156 455.64 426.916 455.52 426.676 455.4 426.436L455.88 426.076C456 426.316 456.12 426.556 456.24 426.676 456.36 426.916 456.48 427.156 456.72 427.276L457.56 425.836H456.24L456.96 425.236H457.92C458.04 425.236 458.04 425.356 458.04 425.356 458.16 425.356 458.16 425.356 458.16 425.476 458.28 425.476 458.28 425.476 458.28 425.596L458.16 425.716 457.2 427.516C457.56 427.756 458.16 427.756 458.64 427.516 459.24 427.396 459.6 427.036 459.84 426.556 460.08 426.076 460.2 425.596 460.08 424.996 459.96 424.756 459.84 424.516 459.72 424.276 459.48 424.036 459.36 423.916 459.12 423.796L459.6 423.436C460.08 423.796 460.44 424.396 460.56 425.116 460.68 425.716 460.56 426.436 460.2 426.916 459.96 427.396 459.48 427.876 458.76 428.116 458.4 428.236 458.16 428.236 457.8 428.236 457.44 428.236 457.2 428.116 456.84 427.996L456.12 429.436 456.48 430.036C456.6 430.036 456.72 430.156 456.84 430.156 456.96 430.276 456.96 430.276 456.96 430.396 457.08 430.516 457.08 430.516 457.08 430.636V430.876H454.56V430.756L455.88 430.276 455.52 429.436Z" fill="#ffffff" fill-rule="evenodd"/><path transform="matrix(1,0,0,-1,0,595.276)" d="M454.2 424.396H454.44V424.516H454.32 454.2L454.08 424.756 453.84 424.876C453.72 424.876 453.72 424.876 453.6 424.876 453.48 424.876 453.36 424.996 453.36 424.996 453.24 425.116 453.24 425.116 453.12 425.236 453.12 425.236 453.12 425.356 453.12 425.476L452.88 425.596C452.88 425.476 453 425.356 453 425.236 453 425.116 453.12 424.996 453.24 424.876 453.36 424.876 453.48 424.756 453.6 424.756H453.72C453.84 424.756 453.84 424.756 453.96 424.756V424.516H453.84V424.396H454.08 454.2Z" fill="#ffffff" fill-rule="evenodd"/><path transform="matrix(1,0,0,-1,0,595.276)" d="M450.36 427.396C450.6 427.036 450.84 426.676 450.96 426.316 451.08 425.836 451.08 425.356 450.96 424.876 450.84 424.516 450.6 424.036 450.36 423.796 450 423.436 449.64 423.196 449.4 423.076 449.04 422.956 448.56 422.836 448.2 422.956 447.72 422.956 447.24 423.076 446.88 423.436 446.52 423.676 446.16 424.036 446.04 424.396 445.8 424.876 445.8 425.236 445.8 425.596 445.8 425.956 445.8 426.316 446.04 426.796 446.28 427.156 446.52 427.516 446.88 427.756 447.36 427.996 447.84 428.116 448.2 428.236 448.44 428.236 448.68 428.236 448.8 428.116 449.04 428.116 449.28 428.116 449.4 427.996L450.36 427.396ZM448.32 425.836C448.68 426.076 448.92 426.436 449.04 426.796L449.28 427.516C449.04 427.636 448.68 427.636 448.32 427.636 447.96 427.636 447.6 427.516 447.24 427.276 446.52 426.916 446.28 426.196 446.28 425.476 446.28 424.876 446.64 424.156 447.24 423.796 447.96 423.316 448.8 423.436 449.28 423.676 449.88 423.916 450.48 424.516 450.48 425.356 450.6 426.196 450.24 426.796 449.76 427.156L449.52 426.676C449.52 426.316 449.28 426.076 449.16 425.836 448.92 425.596 448.8 425.476 448.56 425.356 448.44 425.236 448.2 425.356 448.2 425.476 448.2 425.476 448.08 425.596 448.2 425.596V425.716L448.32 425.836Z" fill="#ffffff" fill-rule="evenodd"/><path transform="matrix(1,0,0,-1,0,595.276)" d="M469.32 425.836 469.08 425.596 469.56 425.236 469.8 425.476 469.56 425.596Z" fill-rule="evenodd"/><path transform="matrix(1,0,0,-1,0,595.276)" d="M469.08 424.996 468.84 424.756 469.44 424.396 469.68 424.636 469.32 424.876Z" fill-rule="evenodd"/><path transform="matrix(1,0,0,-1,0,595.276)" d="M468.96 424.036V423.796H469.32V422.956L468.72 422.596 469.08 422.236 469.44 422.716 469.68 422.476 469.92 422.356 470.4 422.236H470.88 472.44L472.56 422.596H471.48V422.956H472.44V423.196H471.48V423.436H472.2V423.676H471.48V423.916H472.08V424.636H470.28V423.916H471.12V423.676H470.28L469.92 422.836 470.28 422.716 470.4 422.956H471.12V422.596H470.52 470.16L469.8 422.716 469.68 422.956V424.036H468.96ZM470.4 423.196 470.52 423.436H471.12V423.196H470.4ZM470.64 424.156V424.396H471.72V424.156H470.64Z" fill-rule="evenodd"/><path transform="matrix(1,0,0,-1,0,595.276)" d="M470.76 425.836V425.596H470.28V425.356H470.76L470.64 425.116H469.92V424.876H472.44V425.116H472.08V425.596H471.12V425.836H470.76ZM471 425.116 471.12 425.356H471.6V425.116H471Z" fill-rule="evenodd"/><path transform="matrix(1,0,0,-1,0,595.276)" d="M474.24 425.716 473.88 425.476 474.24 425.236 474.48 424.996 474.84 425.236Z" fill-rule="evenodd"/><path transform="matrix(1,0,0,-1,0,595.276)" d="M474 424.756 473.76 424.396 474.12 424.156 474.36 424.036 474.6 424.276 474.36 424.516Z" fill-rule="evenodd"/><path transform="matrix(1,0,0,-1,0,595.276)" d="M474.84 423.436 474.6 423.676 474.12 423.076 473.76 422.476 473.88 422.236H474 474.12L474.24 422.356Z" fill-rule="evenodd"/><path transform="matrix(1,0,0,-1,0,595.276)" d="M475.8 425.116H475.08V422.236H475.44V422.596H476.76V422.236H477.12V425.116H476.28L476.4 425.596H476.52V425.716H476.4L476.04 425.836 475.8 425.116ZM475.44 424.036V424.756H476.76V424.036H475.44ZM475.44 422.956V423.676H476.76V422.956H475.44Z" fill-rule="evenodd"/><path transform="matrix(1,0,0,-1,0,595.276)" d="M479.04 425.716V424.756H480.24V425.716H479.04ZM479.4 425.116V425.476H479.88V425.116H479.4Z" fill-rule="evenodd"/><path transform="matrix(1,0,0,-1,0,595.276)" d="M479.16 423.076H479.52V423.196H480.24V422.956H478.68V422.596H480.24V422.116H480.6V422.596H482.28V422.956H480.6V423.196H481.44V423.076H481.8V424.636H479.16V423.076ZM480.6 424.036V424.276H481.44V424.036H480.6ZM480.6 423.556V423.796H481.44V423.556H480.6ZM479.52 424.036V424.276H480.24V424.036H479.52ZM479.52 423.556V423.796H480.24V423.556H479.52Z" fill-rule="evenodd"/><path transform="matrix(1,0,0,-1,0,595.276)" d="M480.72 425.716V424.756H481.92V425.716H480.72ZM480.96 425.116V425.476H481.56V425.116H480.96Z" fill-rule="evenodd"/><path transform="matrix(1,0,0,-1,0,595.276)" d="M483.72 425.476V425.116H485.16V424.876H484.08V423.316H485.16V423.076H483.6V422.716H485.16V422.116H485.52V422.716H487.08V423.076H485.52V423.316H486.6V424.876H485.52V425.116H486.96V425.476H485.52V425.596 425.716 425.836H485.16V425.476H483.72ZM484.44 424.276V424.516H485.16V424.276H484.44ZM484.44 423.676V423.916H485.16V423.676H484.44ZM485.52 424.276V424.516H486.24V424.276H485.52ZM485.52 423.676V423.916H486.24V423.676H485.52Z" fill-rule="evenodd"/><path transform="matrix(1,0,0,-1,0,595.276)" d="M468.84 419.236 469.08 418.996 469.92 419.356V419.116H471.48V419.356L471.84 419.116 472.32 418.996 472.56 419.356 472.08 419.476 471.72 419.596 471.36 419.716 471 419.956H471.12 471L470.64 420.076 470.28 419.836 469.8 419.596 469.32 419.476 468.84 419.236ZM470.64 419.716 471 419.476 471.36 419.356H469.92L470.28 419.476 470.64 419.716Z" fill-rule="evenodd"/><path transform="matrix(1,0,0,-1,0,595.276)" d="M469.2 418.876V417.796H469.56V417.916H471.84V417.796H472.2V418.876H469.2ZM469.56 418.156V418.636H470.52V418.156H470.28L470.04 418.636 469.8 418.516 469.92 418.156H469.56ZM470.76 418.156V418.636H471.72V418.156H471.36L471.48 418.276V418.396H471.6 471.48V418.516L471.24 418.636 471 418.156H470.76Z" fill-rule="evenodd"/><path transform="matrix(1,0,0,-1,0,595.276)" d="M469.56 417.676V416.476H469.92V416.596H471.48V416.476H471.84V417.676H469.56ZM469.92 416.836V416.956H471.48V416.836H469.92ZM469.92 417.196V417.436H471.48V417.196H469.92Z" fill-rule="evenodd"/><path transform="matrix(1,0,0,-1,0,595.276)" d="M474.12 419.356H473.76V419.116H474.6L474.12 418.396 473.64 417.916 473.88 417.676 474.24 418.036V416.476H474.6V418.036L474.84 417.796 474.96 417.556 475.32 417.796 474.96 418.036 474.84 418.276H475.08L475.32 418.636 475.08 418.756 474.72 418.396 474.6 418.516 475.08 419.236 474.84 419.476 474.72 419.356H474.48V419.836L474.6 419.956 474.48 420.076H474.12Z" fill-rule="evenodd"/><path transform="matrix(1,0,0,-1,0,595.276)" d="M476.16 419.476H475.32V418.156 417.676L475.2 417.316 474.96 416.956 474.72 416.716 475.08 416.476 475.32 416.836 475.56 417.196 475.68 417.676V418.156H475.8L475.92 417.796V417.556L476.04 417.316 476.28 417.196 475.8 416.956 475.44 416.716 475.68 416.476 476.04 416.596 476.52 416.956 476.76 416.716 477.12 416.476 477.48 416.716 477.12 416.956 476.76 417.196 477 417.556 477.12 418.156H477.24V418.276L477 418.396V418.516H476.88V418.396H476.52V419.116H476.88L476.76 418.876 477.12 418.636 477.48 419.356 477.12 419.596 477 419.476H476.52V419.956H476.64L476.52 420.076H476.16V419.476ZM476.16 418.156H476.76L476.64 417.796 476.52 417.436 476.28 417.796 476.16 418.156ZM475.68 418.396V419.116H476.16V418.396H475.68Z" fill-rule="evenodd"/><path transform="matrix(1,0,0,-1,0,595.276)" d="M478.56 419.716 478.8 419.356 479.28 419.476V418.996H478.68V418.756H479.16L478.92 418.036 478.56 417.436 478.8 417.316 479.04 417.676 479.28 418.036V416.476H479.64V418.156L479.88 417.676 480.24 417.916 479.88 418.276 479.64 418.756H480.12V418.996H479.64V419.596L480 419.716H480.12L480.24 419.836H480.12L479.88 420.076 479.52 419.956 479.28 419.836 478.92 419.716Z" fill-rule="evenodd"/><path transform="matrix(1,0,0,-1,0,595.276)" d="M481.44 419.956 481.08 420.076 480.84 419.836 480.48 419.596 480 419.356 480.24 419.116 480.48 419.236 480.84 419.356H481.44L481.32 419.116 481.08 418.996 480.72 419.236 480.48 418.996 480.72 418.756 480.36 418.516 480 418.396 480.24 418.156 480.84 418.396 481.32 418.636 481.8 419.116 482.04 419.476 481.8 419.836 481.68 419.716H481.2L481.32 419.836H481.44Z" fill-rule="evenodd"/><path transform="matrix(1,0,0,-1,0,595.276)" d="M481.8 418.636 481.56 418.756 481.32 418.396 480.96 418.156 480.6 417.916 480.12 417.676 480.36 417.436 480.84 417.676 481.2 417.916H481.8L481.68 417.676 481.56 417.556 481.44 417.436 481.32 417.316 480.96 417.556 480.72 417.436 480.96 417.076 480.6 416.956 480 416.716 480.24 416.476H480.6L480.96 416.596 481.2 416.836 481.44 416.956 481.68 417.196 481.92 417.436 482.16 417.796 482.28 418.036 482.04 418.276 481.92 418.156H481.56L481.8 418.396 481.92 418.516Z" fill-rule="evenodd"/><path transform="matrix(1,0,0,-1,0,595.276)" d="M484.08 419.596V419.236H485.16V418.756H483.6V418.396H485.16V416.956L484.8 417.196 484.44 417.316 484.68 417.796V417.916L484.2 418.156V417.676L483.96 417.316 483.72 416.956 483.48 416.716 483.84 416.476 484.08 416.716 484.32 417.076 484.56 416.956 484.8 416.836 485.04 416.716 485.28 416.596 486.12 416.476 487.08 416.356 487.2 416.836 486.72 416.716H486.36L485.88 416.836H485.52V417.556H486.72V417.916H485.52V418.396H486.96V418.756H485.52V419.236H486.72V419.596H485.52V419.836L485.64 419.956 485.52 420.076H485.16V419.596Z" fill-rule="evenodd"/></g></svg>