<?xml version='1.0' encoding='UTF-8'?>
<svg xmlns="http://www.w3.org/2000/svg" xmlns:xlink="http://www.w3.org/1999/xlink" xmlns:inkscape="http://www.inkscape.org/namespaces/inkscape" version="1.1" width="567.000" height="269.280" viewBox="0 0 567.000 269.280"><g transform="scale(10.0) translate(-329.439, -208.800)"><defs><clipPath id="clip_2"><path transform="matrix(1,0,0,-1,0,595.276)" d="M74.4 .196H767.4V595.276H74.4Z"/></clipPath></defs><path transform="matrix(1,0,0,-1,0,595.276)" d="M339.48 384.796H376.08C376.32 384.796 376.56 384.676 376.8 384.436 376.92 384.316 377.04 384.076 377.04 383.836V361.996C377.04 361.876 377.04 361.756 377.04 361.636 376.92 361.516 376.92 361.396 376.8 361.396 376.68 361.276 376.56 361.156 376.44 361.156 376.32 361.036 376.2 361.036 376.08 361.036H339.48C339.36 361.036 339.24 361.036 339.12 361.156 339 361.156 338.88 361.276 338.88 361.396 338.76 361.396 338.64 361.516 338.64 361.636 338.52 361.756 338.52 361.876 338.52 361.996V383.836C338.52 384.076 338.64 384.316 338.88 384.436 339 384.676 339.24 384.796 339.48 384.796Z" fill="#e1e1e1" fill-rule="evenodd"/><path transform="matrix(1,0,0,-1,0,595.276)" d="M370.8 381.556H372.12L370.44 383.236H372.96L375.36 380.716 372.96 378.316H370.44L372.12 379.876H370.8C370.2 379.876 369.6 379.636 369 379.156 368.52 378.676 368.28 378.076 368.28 377.476V370.756H366.72V377.476C366.72 377.956 366.72 378.436 366.96 378.916 367.2 379.516 367.44 379.996 367.92 380.356 368.28 380.716 368.76 381.076 369.24 381.316 369.84 381.436 370.32 381.556 370.8 381.556Z" fill-rule="evenodd"/><path transform="matrix(1,0,0,-1,0,595.276)" d="M365.28 376.876H364.44V381.796H365.28Z" fill-rule="evenodd"/><path transform="matrix(1,0,0,-1,0,595.276)" d="M364.44 369.436V374.356H365.28V369.436Z" fill-rule="evenodd"/><path transform="matrix(1,0,0,-1,0,595.276)" d="M354 377.476V370.756H355.68V377.476C355.68 378.076 355.92 378.676 356.4 379.156 356.88 379.756 357.48 379.876 358.08 379.876H359.4L357.84 378.316H360.24L362.76 380.716 360.24 383.236H357.84L359.4 381.556H358.08C357.6 381.556 357.12 381.436 356.64 381.316 356.04 381.076 355.56 380.716 355.2 380.356 354.84 379.996 354.48 379.516 354.24 378.916 354.12 378.436 354 377.956 354 377.476Z" fill-rule="evenodd"/><path transform="matrix(1,0,0,-1,0,595.276)" d="M351.72 369.436V374.356H352.68V369.436Z" fill-rule="evenodd"/><path transform="matrix(1,0,0,-1,0,595.276)" d="M351.72 381.796V376.876H352.68V381.796Z" fill-rule="evenodd"/><path transform="matrix(1,0,0,-1,0,595.276)" d="M349.44 373.396V377.476C349.44 377.956 349.32 378.436 349.08 378.916 348.96 379.516 348.6 379.996 348.24 380.356 347.76 380.716 347.28 381.076 346.8 381.316 346.32 381.436 345.84 381.556 345.36 381.556H344.04L345.6 383.236H343.2L340.68 380.716 343.2 378.316H345.6L344.04 379.876H345.36C345.96 379.876 346.56 379.756 347.04 379.156 347.52 378.676 347.76 378.076 347.76 377.476V373.396H349.44Z" fill-rule="evenodd"/><path transform="matrix(1,0,0,-1,0,595.276)" d="M351.72 366.916H352.68V361.996H351.72Z" fill-rule="evenodd"/><path transform="matrix(1,0,0,-1,0,595.276)" d="M364.44 361.996V366.916H365.28V361.996Z" fill-rule="evenodd"/><path transform="matrix(1,0,0,-1,0,595.276)" d="M339.48 360.196H376.08C376.32 360.196 376.56 360.196 376.8 360.316 377.04 360.316 377.28 360.556 377.4 360.676 377.64 360.916 377.76 361.036 377.88 361.276 378 361.516 378 361.756 378 361.996V383.836C378 384.076 378 384.316 377.88 384.556 377.76 384.676 377.64 384.916 377.4 385.156 377.28 385.276 377.04 385.396 376.8 385.516 376.56 385.636 376.32 385.636 376.08 385.636H339.48C339 385.636 338.52 385.516 338.16 385.156 337.8 384.796 337.68 384.316 337.68 383.836V361.996C337.68 361.516 337.8 361.036 338.16 360.676 338.52 360.316 339 360.196 339.48 360.196ZM377.04 383.836V361.996C377.04 361.756 376.92 361.516 376.8 361.396 376.56 361.156 376.32 361.036 376.08 361.036H339.48C339.36 361.036 339.24 361.036 339.12 361.156 339 361.156 338.88 361.276 338.88 361.396 338.76 361.396 338.64 361.516 338.64 361.636 338.52 361.756 338.52 361.876 338.52 361.996V383.836C338.52 383.956 338.52 384.076 338.64 384.196 338.64 384.316 338.76 384.436 338.88 384.436 338.88 384.556 339 384.676 339.12 384.676 339.24 384.676 339.36 384.796 339.48 384.796H376.08C376.2 384.796 376.32 384.676 376.44 384.676 376.56 384.676 376.68 384.556 376.8 384.436 376.92 384.436 376.92 384.316 377.04 384.196 377.04 384.076 377.04 383.956 377.04 383.836Z" fill-rule="evenodd"/><path transform="matrix(1,0,0,-1,0,595.276)" d="M350.04 367.156C350.04 368.356 349.68 369.676 348.6 370.636 347.64 371.716 346.32 372.196 345.12 372.196 343.92 372.196 342.6 371.716 341.64 370.636 340.68 369.676 340.2 368.356 340.2 367.156 340.2 365.956 340.68 364.756 341.64 363.676 342.6 362.716 343.92 362.236 345.12 362.236 346.32 362.236 347.64 362.716 348.6 363.676 349.68 364.756 350.04 365.956 350.04 367.156ZM349.08 367.156C349.08 366.196 348.72 365.236 348 364.396 347.16 363.556 346.08 363.196 345.12 363.196 344.16 363.196 343.2 363.556 342.36 364.396 341.52 365.236 341.16 366.196 341.16 367.156 341.16 368.116 341.52 369.196 342.36 370.036 343.2 370.756 344.16 371.116 345.12 371.116 346.08 371.116 347.16 370.756 348 370.036 348.72 369.196 349.08 368.116 349.08 367.156Z" fill-rule="evenodd"/><path transform="matrix(1,0,0,-1,0,595.276)" d="M347.4 365.596H347.04L347.28 365.356H346.32V365.116H347.28L347.04 364.756H347.4L347.76 365.236Z" fill-rule="evenodd"/><path transform="matrix(1,0,0,-1,0,595.276)" d="M342.84 365.596H343.2L342.96 365.356H344.04V365.116H342.96L343.2 364.756H342.84L342.48 365.236Z" fill-rule="evenodd"/><path transform="matrix(1,0,0,-1,0,595.276)" d="M342.96 367.036H342.6V367.876 367.756 367.876 367.996C342.72 367.996 342.72 367.996 342.84 368.116L343.32 368.956H342.84V369.556H347.64V367.876H344.4V367.756H347.76V367.396H346.92C347.04 367.396 347.04 367.276 347.04 367.276V367.156C347.04 367.156 347.04 367.276 346.92 367.276 346.92 367.396 346.8 367.396 346.68 367.396 346.56 367.516 346.32 367.396 346.32 367.276V367.396H344.4V367.036H343.8C343.8 367.156 343.68 367.276 343.68 367.276 343.56 367.396 343.44 367.396 343.32 367.396 343.32 367.396 343.2 367.396 343.08 367.276 342.96 367.276 342.96 367.156 342.96 367.036ZM342.96 367.996H343.68V368.836H343.32L342.84 368.116V367.996H342.96Z" fill-rule="evenodd"/><path transform="matrix(1,0,0,-1,0,595.276)" d="M344.52 367.036H345.48V367.396H344.52Z" fill-rule="evenodd"/><path transform="matrix(1,0,0,-1,0,595.276)" d="M347.04 367.036C347.04 367.156 346.92 367.276 346.92 367.276 346.8 367.396 346.68 367.396 346.68 367.396 346.56 367.396 346.44 367.396 346.44 367.276 346.32 367.276 346.32 367.156 346.32 367.036 346.32 366.916 346.32 366.916 346.44 366.796 346.44 366.676 346.56 366.676 346.68 366.676 346.68 366.676 346.8 366.676 346.92 366.796 346.92 366.916 347.04 366.916 347.04 367.036ZM346.8 367.036C346.8 366.916 346.8 366.916 346.68 366.916 346.56 366.916 346.44 366.916 346.44 367.036 346.44 367.156 346.56 367.276 346.68 367.276 346.8 367.276 346.8 367.156 346.8 367.036Z" fill-rule="evenodd"/><path transform="matrix(1,0,0,-1,0,595.276)" d="M343.68 367.036C343.68 367.156 343.68 367.276 343.56 367.276 343.56 367.396 343.44 367.396 343.32 367.396 343.32 367.396 343.2 367.396 343.08 367.276 343.08 367.276 342.96 367.156 342.96 367.036 342.96 366.916 343.08 366.916 343.08 366.796 343.2 366.676 343.32 366.676 343.32 366.676 343.44 366.676 343.56 366.676 343.56 366.796 343.68 366.916 343.68 366.916 343.68 367.036ZM343.56 367.036C343.56 366.916 343.44 366.916 343.32 366.916H343.2V367.036C343.2 367.156 343.2 367.276 343.32 367.276 343.44 367.276 343.44 367.276 343.44 367.156 343.56 367.156 343.56 367.036 343.56 367.036Z" fill-rule="evenodd"/><path transform="matrix(1,0,0,-1,0,595.276)" d="M344.52 365.596V364.756H344.64V365.956H344.52C344.52 365.956 344.52 365.836 344.4 365.836H344.28V365.596H344.52Z" fill-rule="evenodd"/><path transform="matrix(1,0,0,-1,0,595.276)" d="M345 364.276H345.12V363.916H345.24V364.156 364.276H345.36V363.916H345.48V364.276C345.36 364.396 345.36 364.396 345.24 364.396L345.12 364.276C345.12 364.396 345.12 364.396 345 364.396H344.88 344.76V363.916H344.88V364.156C344.88 364.276 345 364.276 345 364.276Z" fill-rule="evenodd"/><path transform="matrix(1,0,0,-1,0,595.276)" d="M345.48 364.756C345.72 364.756 345.84 364.756 345.84 364.876 345.96 364.996 345.96 365.116 345.96 365.356 345.96 365.596 345.96 365.716 345.84 365.836 345.84 365.956 345.72 365.956 345.48 365.956 345.36 365.956 345.24 365.956 345.12 365.836 345 365.716 345 365.596 345 365.356 345 365.116 345 364.996 345.12 364.876 345.24 364.756 345.36 364.756 345.48 364.756ZM345.24 365.356C345.24 365.596 345.36 365.716 345.48 365.716 345.72 365.716 345.72 365.596 345.72 365.356 345.72 365.116 345.72 364.996 345.48 364.996 345.36 364.996 345.24 365.116 345.24 365.356Z" fill-rule="evenodd"/></g></svg>