<?xml version='1.0' encoding='UTF-8'?>
<svg xmlns="http://www.w3.org/2000/svg" xmlns:xlink="http://www.w3.org/1999/xlink" xmlns:inkscape="http://www.inkscape.org/namespaces/inkscape" version="1.1" width="567.000" height="269.280" viewBox="0 0 567.000 269.280"><g transform="scale(10.0) translate(-547.707, -20.304)"><defs><clipPath id="clip_2"><path transform="matrix(1,0,0,-1,0,595.276)" d="M74.4 .196H767.4V595.276H74.4Z"/></clipPath></defs><path transform="matrix(1,0,0,-1,0,595.276)" d="M566.88 549.196V573.556C566.88 573.676 567 573.796 567.12 573.916 567.24 574.036 567.36 574.036 567.48 574.036H584.52C584.52 574.036 584.64 574.036 584.76 574.036L584.88 573.916C584.88 573.796 585 573.796 585 573.676V573.556 549.196C585 549.076 585 548.956 584.88 548.836 584.76 548.716 584.64 548.596 584.52 548.596H567.48C567.12 548.596 566.88 548.836 566.88 549.196Z" fill="#ffff00" fill-rule="evenodd"/><path transform="matrix(1,0,0,-1,0,595.276)" d="M583.2 561.196 576.84 572.236C576.72 572.356 576.6 572.476 576.48 572.596 576.36 572.716 576.12 572.716 576 572.716 575.88 572.716 575.64 572.716 575.52 572.596 575.4 572.476 575.28 572.356 575.16 572.236L568.8 561.196C568.56 560.836 568.56 560.476 568.8 560.236 568.8 560.116 568.92 559.996 569.16 559.876 569.28 559.756 569.4 559.756 569.64 559.756H582.36C582.72 559.756 583.08 559.876 583.2 560.236 583.32 560.476 583.32 560.836 583.2 561.196Z" fill="#ff0000" fill-rule="evenodd"/><path transform="matrix(1,0,0,-1,0,595.276)" d="M581.76 561.076 576 571.036 570.12 561.076Z" fill="#ffffff" fill-rule="evenodd"/><path transform="matrix(1,0,0,-1,0,595.276)" d="M575.16 567.556 576.96 566.956C577.56 566.716 578.04 566.356 578.4 565.876 578.76 565.276 578.88 564.676 578.88 564.196V561.316H577.44V564.196C577.44 564.436 577.44 564.796 577.2 565.036 577.08 565.276 576.84 565.516 576.48 565.636L574.68 566.236 574.2 567.196 575.16 567.556Z" fill-rule="evenodd"/><path transform="matrix(1,0,0,-1,0,595.276)" d="M583.2 559.156C583.32 559.156 583.44 559.156 583.56 559.036 583.68 558.916 583.68 558.796 583.68 558.676V550.276C583.68 550.156 583.68 550.036 583.56 549.916 583.44 549.796 583.44 549.796 583.32 549.796 583.32 549.676 583.2 549.676 583.2 549.676H568.8C568.68 549.676 568.56 549.796 568.44 549.916L568.32 550.036C568.32 550.156 568.32 550.156 568.32 550.276V558.676C568.32 558.796 568.32 558.916 568.44 559.036 568.56 559.156 568.68 559.156 568.8 559.156H583.2ZM568.8 558.916C568.8 558.916 568.68 558.916 568.68 558.796 568.56 558.796 568.56 558.676 568.56 558.676V550.276C568.56 550.156 568.56 550.156 568.68 550.036H568.8 583.2 583.32C583.44 550.156 583.44 550.156 583.44 550.276V558.676C583.44 558.676 583.44 558.796 583.32 558.796 583.32 558.916 583.2 558.916 583.2 558.916H568.8Z" fill="#ffffff" fill-rule="evenodd"/><path transform="matrix(1,0,0,-1,0,595.276)" d="M568.8 558.916H583.2C583.2 558.916 583.32 558.916 583.32 558.796 583.44 558.796 583.44 558.676 583.44 558.676V550.276C583.44 550.156 583.44 550.156 583.32 550.036H583.2 568.8 568.68C568.56 550.156 568.56 550.156 568.56 550.276V558.676 558.796H568.68C568.68 558.916 568.8 558.916 568.8 558.916Z" fill="#ff0000" fill-rule="evenodd"/><path transform="matrix(1,0,0,-1,0,595.276)" stroke-width=".12" stroke-linecap="butt" stroke-miterlimit="10" stroke-linejoin="miter" fill="none" stroke="#ffffff" d="M571.5 556.5V558.5"/><path transform="matrix(1,0,0,-1,0,595.276)" d="M572.64 556.636 572.4 557.236C572.52 557.356 572.64 557.476 572.64 557.716 572.64 557.836 572.64 557.956 572.52 558.076 572.4 558.076 572.4 558.196 572.28 558.196H571.56V556.636H571.8V557.236H572.16L572.4 556.636H572.64ZM571.8 557.476V557.956H572.16C572.28 557.956 572.28 557.836 572.28 557.836 572.4 557.836 572.4 557.716 572.4 557.716 572.4 557.596 572.28 557.476 572.16 557.476H571.8Z" fill="#ffffff" fill-rule="evenodd"/><path transform="matrix(1,0,0,-1,0,595.276)" d="M572.64 556.636V556.636Z" fill="#ffffff" fill-rule="evenodd"/><path transform="matrix(1,0,0,-1,0,595.276)" d="M573.12 556.636H574.08V556.876H573.36V557.236H573.96V557.476H573.36V557.956H574.08V558.196H573.12Z" fill="#ffffff" fill-rule="evenodd"/><path transform="matrix(1,0,0,-1,0,595.276)" d="M575.16 558.196C575.28 558.196 575.4 558.076 575.64 557.956 575.76 557.716 575.76 557.596 575.76 557.356 575.76 557.236 575.76 556.996 575.64 556.876 575.52 556.756 575.4 556.756 575.4 556.636 575.28 556.636 575.16 556.636 575.16 556.636H574.56V558.196H575.16ZM575.16 557.956H574.8V556.876H575.16C575.16 556.876 575.28 556.876 575.4 556.996 575.52 557.116 575.52 557.236 575.52 557.356 575.52 557.476 575.52 557.596 575.4 557.716 575.28 557.836 575.16 557.956 575.16 557.956Z" fill="#ffffff" fill-rule="evenodd"/><path transform="matrix(1,0,0,-1,0,595.276)" d="M578.88 557.596C578.76 557.836 578.64 557.956 578.52 557.956 578.4 557.956 578.28 557.956 578.16 557.836 577.92 557.596 577.92 557.116 578.16 556.996 578.28 556.876 578.4 556.756 578.52 556.876 578.64 556.876 578.64 556.876 578.76 556.876 578.76 556.996 578.76 556.996 578.88 557.116L579.12 556.996C579 556.876 578.88 556.636 578.64 556.636 578.4 556.516 578.16 556.636 578.04 556.756 577.92 556.876 577.8 557.116 577.8 557.356 577.8 557.716 577.92 557.836 578.04 557.956 578.16 558.196 578.4 558.196 578.64 558.196 578.76 558.076 578.88 558.076 578.88 557.956 579 557.956 579 557.836 579.12 557.716L578.88 557.596Z" fill="#ffffff" fill-rule="evenodd"/><path transform="matrix(1,0,0,-1,0,595.276)" stroke-width=".12" stroke-linecap="butt" stroke-miterlimit="10" stroke-linejoin="miter" fill="none" stroke="#ffffff" d="M570.5 554.5V554.5"/><path transform="matrix(1,0,0,-1,0,595.276)" d="M570.36 555.556 570.6 555.796C570.36 555.916 570.24 556.036 570 556.036 569.88 556.036 569.64 555.916 569.64 555.916 569.52 555.796 569.4 555.676 569.4 555.556 569.4 555.436 569.52 555.316 569.64 555.196H569.76C569.76 555.196 569.88 555.076 570 555.076 570.12 555.076 570.24 555.076 570.24 554.956 570.36 554.956 570.36 554.836 570.36 554.836 570.24 554.716 570.12 554.716 570 554.716 569.88 554.716 569.76 554.716 569.64 554.836L569.4 554.716 569.52 554.596C569.76 554.476 569.88 554.476 570 554.476 570.12 554.476 570.36 554.476 570.48 554.596V554.716C570.6 554.716 570.6 554.716 570.6 554.836V554.956C570.6 555.076 570.48 555.196 570.48 555.196L570.36 555.316H570.24L569.88 555.436H569.76V555.556 555.676C569.88 555.796 569.88 555.796 570 555.796 570.12 555.796 570.24 555.676 570.36 555.556Z" fill="#ffffff" fill-rule="evenodd"/><path transform="matrix(1,0,0,-1,0,595.276)" d="M571.68 555.916C571.92 555.916 572.04 555.796 572.04 555.556 572.04 555.436 572.04 555.316 571.92 555.196 571.8 555.076 571.8 555.076 571.68 555.076H571.32V554.476H570.96V555.916H571.68ZM571.32 555.796V555.196H571.56C571.68 555.196 571.68 555.316 571.68 555.316 571.8 555.316 571.8 555.436 571.8 555.556 571.8 555.556 571.8 555.676 571.68 555.676 571.68 555.796 571.56 555.796 571.56 555.796H571.32Z" fill="#ffffff" fill-rule="evenodd"/><path transform="matrix(1,0,0,-1,0,595.276)" d="M572.4 554.476H573.36V554.716H572.64V555.076H573.36V555.316H572.64V555.796H573.36V555.916H572.4Z" fill="#ffffff" fill-rule="evenodd"/><path transform="matrix(1,0,0,-1,0,595.276)" d="M573.84 554.476H574.8V554.716H574.08V555.076H574.8V555.316H574.08V555.796H574.8V555.916H573.84Z" fill="#ffffff" fill-rule="evenodd"/><path transform="matrix(1,0,0,-1,0,595.276)" d="M575.88 555.916C576 555.916 576.12 555.916 576.36 555.796 576.48 555.556 576.48 555.436 576.48 555.196 576.48 555.076 576.48 554.836 576.36 554.716 576.12 554.476 576 554.476 575.88 554.476H575.28V555.916H575.88ZM575.88 555.796H575.52V554.716H575.88 576L576.12 554.836C576.24 554.956 576.24 555.076 576.24 555.196 576.24 555.316 576.24 555.436 576.12 555.556 576 555.676 576 555.796 575.88 555.796Z" fill="#ffffff" fill-rule="evenodd"/><path transform="matrix(1,0,0,-1,0,595.276)" d="M578.52 554.476H578.76V555.916H578.52V554.836L577.8 555.916H577.44V554.476H577.68V555.556Z" fill="#ffffff" fill-rule="evenodd"/><path transform="matrix(1,0,0,-1,0,595.276)" d="M579.84 556.036C579.72 556.036 579.48 555.916 579.36 555.796 579.24 555.676 579.24 555.436 579.24 555.196 579.24 555.076 579.24 554.836 579.36 554.596 579.48 554.476 579.72 554.476 579.84 554.476 580.08 554.476 580.2 554.476 580.32 554.596 580.56 554.836 580.56 555.076 580.56 555.196 580.56 555.436 580.56 555.676 580.32 555.796 580.2 555.916 580.08 556.036 579.84 556.036ZM579.84 555.796C579.96 555.796 580.08 555.676 580.2 555.676 580.32 555.556 580.32 555.316 580.32 555.196 580.32 554.956 580.08 554.716 579.84 554.716 579.72 554.716 579.72 554.716 579.6 554.836 579.48 554.956 579.48 555.076 579.48 555.196 579.48 555.556 579.6 555.796 579.84 555.796Z" fill="#ffffff" fill-rule="evenodd"/><path transform="matrix(1,0,0,-1,0,595.276)" d="M581.16 554.476 580.8 555.916H581.16L581.28 554.836 581.64 555.916H581.88L582.12 554.836 582.36 555.916H582.6L582.24 554.476H582L581.76 555.556 581.52 554.476Z" fill="#ffffff" fill-rule="evenodd"/><path transform="matrix(1,0,0,-1,0,595.276)" d="M576.48 558.196V557.116 556.996C576.6 556.876 576.72 556.876 576.84 556.876 576.84 556.876 576.96 556.876 577.08 556.996V557.116 558.196H577.32V557.116 556.996C577.32 556.876 577.2 556.756 577.2 556.756 577.08 556.636 576.96 556.636 576.84 556.636 576.6 556.636 576.48 556.636 576.36 556.756 576.36 556.756 576.24 556.876 576.24 556.996V557.116 558.196H576.48Z" fill="#ffffff" fill-rule="evenodd"/><path transform="matrix(1,0,0,-1,0,595.276)" d="M579.48 556.636H580.44V556.876H579.72V557.236H580.32V557.476H579.72V557.956H580.44V558.196H579.48Z" fill="#ffffff" fill-rule="evenodd"/><path transform="matrix(1,0,0,-1,0,595.276)" d="M570.48 550.996H570.72V552.316H571.44V553.156H570.48V550.996ZM570.72 552.556V552.676H571.2V552.556H570.72ZM570.72 552.916V553.036H571.2V552.916H570.72Z" fill="#ffffff" fill-rule="evenodd"/><path transform="matrix(1,0,0,-1,0,595.276)" d="M570.96 552.196V551.956H571.2V551.836H570.84V551.596H571.2L571.08 551.356 570.84 551.236 571.08 551.116 571.2 551.236H571.32V551.476L571.44 551.596H571.68V551.116H571.92V551.596H572.28V551.836H571.92V551.956H572.16V552.196H570.96ZM571.44 551.956H571.68V551.836H571.44V551.956Z" fill="#ffffff" fill-rule="evenodd"/><path transform="matrix(1,0,0,-1,0,595.276)" d="M571.68 552.316H572.4V551.476 551.356L572.28 551.236H572.16 572.04L572.16 550.996 572.28 551.116H572.4 572.52V551.236H572.64V551.356 553.156H571.68V552.316ZM571.8 552.556V552.676H572.4V552.556H571.8ZM571.8 552.916V553.036H572.4V552.916H571.8Z" fill="#ffffff" fill-rule="evenodd"/><path transform="matrix(1,0,0,-1,0,595.276)" d="M573.72 553.276 573.6 552.796H573.36V552.556H573.6L573.48 552.076V551.716L573.6 551.596 573.72 551.716 573.84 551.596V551.476H573.72L573.6 551.356 573.36 551.236 573.6 550.996 573.84 551.236 574.08 551.476 574.2 551.236 574.44 551.476 574.08 551.716 574.2 551.956V552.196L574.32 552.436V552.796H573.84L573.96 553.156V553.276H573.72ZM573.84 552.556H574.08V552.196L573.96 551.836 573.72 551.956 573.84 552.556Z" fill="#ffffff" fill-rule="evenodd"/><path transform="matrix(1,0,0,-1,0,595.276)" d="M574.8 553.276 574.56 552.436H574.32V552.316 552.196H574.44L575.4 552.316V552.196H575.64L575.52 552.556 575.28 552.916H575.16L575.28 552.556 574.68 552.436 574.92 553.036 575.04 553.156Z" fill="#ffffff" fill-rule="evenodd"/><path transform="matrix(1,0,0,-1,0,595.276)" d="M574.56 552.076V550.996H574.68V551.236H575.28V550.996H575.52V552.076H574.56ZM574.68 551.356V551.836H575.28V551.356H574.68Z" fill="#ffffff" fill-rule="evenodd"/><path transform="matrix(1,0,0,-1,0,595.276)" d="M576.6 553.276 576.48 553.036 576.72 552.916 576.84 552.796 576.96 553.036 576.84 553.156Z" fill="#ffffff" fill-rule="evenodd"/><path transform="matrix(1,0,0,-1,0,595.276)" d="M576.48 552.676 576.36 552.436 576.6 552.316 576.72 552.196 576.84 552.316 576.72 552.556Z" fill="#ffffff" fill-rule="evenodd"/><path transform="matrix(1,0,0,-1,0,595.276)" d="M576.36 551.236 576.48 551.116H576.6L576.72 551.476 576.96 551.956 576.72 552.076 576.6 551.596Z" fill="#ffffff" fill-rule="evenodd"/><path transform="matrix(1,0,0,-1,0,595.276)" d="M576.96 552.916V552.196 551.836 551.596L576.84 551.356 576.72 551.236 576.96 551.116 577.08 551.236V551.476L577.2 551.716V552.076 552.676H577.92V552.436 552.196 551.836L578.04 551.596 577.8 551.356 577.56 551.236 577.68 550.996 577.92 551.236 578.16 551.356V551.236L578.28 551.116H578.4 578.52V551.236L578.64 551.476 578.52 551.596 578.4 551.476V551.356H578.28V551.596L578.4 551.956 578.52 552.316V552.436L578.28 552.556V552.196L578.16 551.956V552.316L578.04 552.676H578.52V552.916H578.04V553.156H578.16L578.04 553.276H577.92V552.916Z" fill="#ffffff" fill-rule="evenodd"/><path transform="matrix(1,0,0,-1,0,595.276)" d="M578.28 553.276 578.16 553.156 578.4 552.916 578.52 553.036 578.4 553.156Z" fill="#ffffff" fill-rule="evenodd"/><path transform="matrix(1,0,0,-1,0,595.276)" d="M577.32 552.556V552.316H577.8V552.556Z" fill="#ffffff" fill-rule="evenodd"/><path transform="matrix(1,0,0,-1,0,595.276)" d="M577.32 552.196V551.476H577.44V551.596H577.68V551.476H577.8V552.196H577.32ZM577.44 551.836V551.956H577.68V551.836H577.44Z" fill="#ffffff" fill-rule="evenodd"/><path transform="matrix(1,0,0,-1,0,595.276)" d="M579.6 553.276 579.48 553.156 579.6 553.036 579.72 552.916 579.84 553.036 579.72 553.156Z" fill="#ffffff" fill-rule="evenodd"/><path transform="matrix(1,0,0,-1,0,595.276)" d="M579.48 552.796 579.36 552.556 579.6 552.436 579.72 552.316 579.84 552.556 579.72 552.676Z" fill="#ffffff" fill-rule="evenodd"/><path transform="matrix(1,0,0,-1,0,595.276)" d="M579.36 552.196V551.956H579.72V551.476L579.36 551.236 579.48 551.116V550.996 551.116L579.72 551.236H579.84L579.96 551.116H580.08L580.32 550.996H581.52L581.64 551.236H580.44 580.32L580.08 551.356H579.96V551.476 551.596 552.196Z" fill="#ffffff" fill-rule="evenodd"/><path transform="matrix(1,0,0,-1,0,595.276)" d="M580.08 553.036V552.796H580.68V552.676H580.08V552.076H580.56L580.44 551.956 580.32 551.836 580.2 551.716 579.96 551.596 580.2 551.476H580.32L580.44 551.596 580.56 551.716 580.68 551.836V551.356H580.92V551.836L581.16 551.596 581.4 551.476 581.64 551.596 581.28 551.836 580.92 552.076H581.4V552.676H580.92V552.796H581.52V553.036H580.92V553.156 553.276H580.68V553.036H580.08ZM580.32 552.196V552.436H580.68V552.196H580.32ZM580.92 552.196V552.436H581.16V552.196H580.92Z" fill="#ffffff" fill-rule="evenodd"/></g></svg>