<?xml version='1.0' encoding='UTF-8'?>
<svg xmlns="http://www.w3.org/2000/svg" xmlns:xlink="http://www.w3.org/1999/xlink" xmlns:inkscape="http://www.inkscape.org/namespaces/inkscape" version="1.1" width="567.000" height="269.280" viewBox="0 0 567.000 269.280"><g transform="scale(10.0) translate(-438.573, -101.088)"><defs><clipPath id="clip_2"><path transform="matrix(1,0,0,-1,0,595.276)" d="M74.4 .196H767.4V595.276H74.4Z"/></clipPath></defs><path transform="matrix(1,0,0,-1,0,595.276)" d="M459.96 493.276H473.88C474.12 493.276 474.48 493.156 474.72 492.916 474.96 492.556 475.08 492.316 475.08 491.956V469.276C475.08 468.916 474.96 468.556 474.72 468.316 474.48 468.076 474.12 467.956 473.88 467.956H459.96C459.6 467.956 459.36 468.076 459 468.316 458.76 468.556 458.64 468.916 458.64 469.276V491.956C458.64 492.316 458.76 492.556 459 492.916 459.36 493.156 459.6 493.276 459.96 493.276Z" fill="#ffffff" fill-rule="evenodd"/><path transform="matrix(1,0,0,-1,0,595.276)" d="M459.96 492.556H473.88C474 492.556 474.12 492.556 474.24 492.436 474.36 492.316 474.48 492.076 474.48 491.956V469.276C474.48 469.036 474.36 468.916 474.24 468.796 474.12 468.676 474 468.556 473.88 468.556H459.96C459.84 468.556 459.6 468.676 459.48 468.796 459.36 468.916 459.36 469.036 459.36 469.276V491.956C459.36 492.076 459.36 492.316 459.48 492.436 459.6 492.556 459.84 492.556 459.96 492.556Z" fill="#ff0000" fill-rule="evenodd"/><path transform="matrix(1,0,0,-1,0,595.276)" d="M462.84 490.876 462.12 488.476H462.48L462.6 488.956H463.56L463.68 488.476H464.16L463.32 490.876H462.84ZM463.44 489.316H462.72L463.08 490.396 463.44 489.316Z" fill="#ffffff" fill-rule="evenodd"/><path transform="matrix(1,0,0,-1,0,595.276)" d="M467.64 488.716V488.716 488.836H467.52V488.956H467.4V488.836H467.28 467.16 467.04 466.92 466.8V488.956H466.68V489.076 489.196H467.76V489.316 489.556 489.676L467.64 489.796V489.916L467.52 490.036 467.28 490.156H467.16L467.04 490.276 466.92 490.156H466.8 466.68L466.56 490.036 466.44 489.916V489.796H466.32V489.556 489.436L466.2 489.316V489.196H466.32V489.076 488.956L466.44 488.836V488.716L466.56 488.596 466.68 488.476H466.8 467.04 467.16 467.28 467.4L467.52 488.596H467.64V488.716ZM466.68 489.436V489.436 489.556 489.676 489.796H466.8V489.916H466.92 467.04 467.16L467.28 489.796 467.4 489.676V489.556 489.436H466.68Z" fill="#ffffff" fill-rule="evenodd"/><path transform="matrix(1,0,0,-1,0,595.276)" d="M469.44 489.316V489.196 489.076 488.956 488.836H469.56V488.716H469.68L469.44 488.476H469.32L469.2 488.596H469.08L468.96 488.476H468.84 468.72 468.6 468.48 468.36V488.596H468.24V488.716H468.12V488.836 488.956 489.076 489.196L468.24 489.316V489.436H468.36 468.48L468.6 489.556H468.72 468.84 468.96 469.08V489.676 489.796 489.916H468.96 468.84 468.72 468.6 468.48V489.796H468.36L468.12 490.036H468.24V490.156H468.36 468.48L468.6 490.276H468.72 468.84 468.96L469.08 490.156H469.2 469.32V490.036H469.44V489.916 489.796 489.676 489.556 489.436 489.316ZM468.84 489.196V489.196H468.72 468.6 468.48V489.076 488.956 488.836H468.6V488.716H468.72 468.84 468.96V488.836H469.08V488.956 489.076 489.196 489.316H468.96L468.84 489.196Z" fill="#ffffff" fill-rule="evenodd"/><path transform="matrix(1,0,0,-1,0,595.276)" d="M471.12 490.036V490.036 490.156H471 470.88L470.76 490.276H470.64L470.52 490.156H470.4L470.28 490.036H470.16V489.916L470.04 489.796V489.676 489.556L469.92 489.436V489.316L470.04 489.196V489.076 488.956 488.836L470.16 488.716 470.28 488.596H470.4L470.52 488.476H470.64 470.76 470.88 471V488.596H471.12V488.476H471.48V490.876H471.12V490.036ZM470.76 489.916V489.916H470.88 471V489.796H471.12V489.676 489.556 489.436 489.316 489.196 489.076 488.956H471V488.836H470.88 470.76 470.64 470.52V488.956L470.4 489.076V489.196 489.316 489.436 489.556 489.676L470.52 489.796 470.64 489.916H470.76Z" fill="#ffffff" fill-rule="evenodd"/><path transform="matrix(1,0,0,-1,0,595.276)" d="M461.88 472.276 462.84 473.356H463.56L462.48 472.276 463.56 470.836H462.96L462.24 471.916 461.88 471.556V470.836H461.28V474.316H461.88Z" fill="#ffffff" fill-rule="evenodd"/><path transform="matrix(1,0,0,-1,0,595.276)" d="M465.48 470.836V472.396C465.48 472.516 465.48 472.516 465.36 472.636V472.756C465.24 472.756 465.12 472.876 465 472.876 464.88 472.876 464.76 472.756 464.76 472.636 464.64 472.636 464.64 472.636 464.64 472.516V472.396 470.836H464.04V473.356H464.64V473.116C464.64 473.236 464.76 473.236 464.76 473.356 464.88 473.356 465 473.356 465 473.356 465.36 473.356 465.6 473.236 465.84 472.996 465.84 473.116 465.96 473.236 466.08 473.236 466.2 473.356 466.32 473.356 466.44 473.356 466.56 473.356 466.8 473.356 467.04 473.236 467.16 473.116 467.28 472.876 467.4 472.756V472.636 470.836H466.8V472.396C466.8 472.516 466.8 472.516 466.8 472.636L466.68 472.756C466.68 472.756 466.56 472.876 466.44 472.876 466.32 472.876 466.2 472.756 466.08 472.636V472.516C465.96 472.516 465.96 472.396 465.96 472.396V470.836H465.48Z" fill="#ffffff" fill-rule="evenodd"/><path transform="matrix(1,0,0,-1,0,595.276)" d="M470.88 470.836V472.396C470.88 472.636 471.12 472.876 471.48 472.876 471.48 472.876 471.6 472.756 471.72 472.756 471.72 472.636 471.84 472.636 471.84 472.516V472.396 470.836H472.32V472.396C472.32 472.636 472.32 472.876 472.08 473.116 471.96 473.356 471.6 473.356 471.36 473.356 471.36 473.356 471.24 473.356 471.12 473.356 471 473.236 471 473.236 470.88 473.116V474.316H470.28V470.836H470.88Z" fill="#ffffff" fill-rule="evenodd"/><path transform="matrix(1,0,0,-1,0,595.276)" stroke-width=".12" stroke-linecap="butt" stroke-miterlimit="10" stroke-linejoin="miter" fill="none" stroke="#ffffff" d="M466.5 478.5H467.5"/><path transform="matrix(1,0,0,-1,0,595.276)" d="M466.92 478.636V478.636C466.92 479.356 467.04 479.956 467.28 480.436 467.64 480.796 468.12 481.036 468.6 481.036 469.2 481.036 469.68 480.796 469.92 480.436 470.28 479.956 470.4 479.356 470.4 478.636 470.4 477.916 470.28 477.316 469.92 476.836 469.68 476.476 469.2 476.236 468.6 476.236 468.12 476.236 467.64 476.476 467.28 476.836 467.04 477.316 466.92 477.916 466.92 478.636ZM469.68 478.636C469.68 479.116 469.56 479.596 469.32 479.836 469.2 480.196 468.96 480.316 468.6 480.316 468 480.316 467.64 479.716 467.64 478.636 467.64 477.556 468 476.956 468.6 476.956 468.96 476.956 469.2 477.076 469.32 477.436 469.56 477.676 469.68 478.156 469.68 478.636Z" fill="#ffffff" fill-rule="evenodd"/><path transform="matrix(1,0,0,-1,0,595.276)" d="M466.92 478.636V478.636H466.8 466.92Z" fill="#ffffff" fill-rule="evenodd"/><path transform="matrix(1,0,0,-1,0,595.276)" d="M463.68 476.236 465.36 480.316H462.96V481.036H466.2V480.316L464.52 476.236Z" fill="#ffffff" fill-rule="evenodd"/><path transform="matrix(1,0,0,-1,0,595.276)" d="M465.48 489.556V488.476H465.84V489.676C465.84 489.796 465.84 489.916 465.72 489.916 465.6 490.036 465.6 490.156 465.48 490.156 465.36 490.276 465.24 490.276 465.12 490.276 465 490.156 464.88 490.156 464.76 490.036V490.876H464.52V488.476H464.76V489.556C464.76 489.676 464.88 489.676 464.88 489.796 465 489.796 465.12 489.916 465.12 489.916 465.24 489.916 465.36 489.796 465.36 489.796L465.48 489.676V489.556Z" fill="#ffffff" fill-rule="evenodd"/><path transform="matrix(1,0,0,-1,0,595.276)" d="M470.04 474.316 469.56 474.436 467.88 470.116 468.36 469.876Z" fill="#ffffff" fill-rule="evenodd"/><path transform="matrix(1,0,0,-1,0,595.276)" d="M463.68 486.076H462.84V485.716H466.32V486.076H465.36L465.6 486.436V486.556L465.24 486.676 465.12 486.316 465 486.076H464.16L464.04 486.316 463.8 486.676 463.44 486.556 463.68 486.316Z" fill="#ffffff" fill-rule="evenodd"/><path transform="matrix(1,0,0,-1,0,595.276)" d="M463.08 485.476V483.196H463.44V483.916H464.16V483.676 483.556H464.04 463.68L463.92 483.196H464.16L464.28 483.316H464.52V483.556 483.796 485.476H463.08ZM463.44 484.156V484.516H464.16V484.156H463.44ZM463.44 484.756V485.116H464.16V484.756H463.44Z" fill="#ffffff" fill-rule="evenodd"/><path transform="matrix(1,0,0,-1,0,595.276)" d="M465 485.356V483.796H465.24V485.116L465.36 485.236H465.24Z" fill="#ffffff" fill-rule="evenodd"/><path transform="matrix(1,0,0,-1,0,595.276)" d="M465.72 485.476V483.796 483.676 483.556H465.6 465.48 465.12L465.36 483.196H465.6 465.84L465.96 483.316 466.08 483.556V483.676 485.356L466.2 485.476H466.08Z" fill="#ffffff" fill-rule="evenodd"/><path transform="matrix(1,0,0,-1,0,595.276)" d="M467.52 486.436V486.076H469.08L468.96 485.716H467.76V483.196H468.12V483.316H470.4V483.196H470.76V485.716H469.32L469.44 486.076H470.88V486.436H467.52ZM468.84 483.676V484.036H469.56V483.676H468.84ZM468.84 484.996V485.356H469.56V484.996H468.84ZM468.84 484.276V484.756H469.56V484.276H468.84ZM468.12 483.676V485.356H468.6V483.676H468.12ZM469.92 483.676V485.356H470.4V483.676H469.92Z" fill="#ffffff" fill-rule="evenodd"/><path transform="matrix(1,0,0,-1,0,595.276)" stroke-width=".12" stroke-linecap="round" stroke-linejoin="round" fill="none" stroke="#ff0000" d="M475.08 491.956V469.276C475.08 468.556 474.48 467.956 473.88 467.956H459.96C459.24 467.956 458.64 468.556 458.64 469.276V491.956C458.64 492.676 459.24 493.276 459.96 493.276H473.88C474.48 493.276 475.08 492.676 475.08 491.956"/></g></svg>