<?xml version='1.0' encoding='UTF-8'?>
<svg xmlns="http://www.w3.org/2000/svg" xmlns:xlink="http://www.w3.org/1999/xlink" xmlns:inkscape="http://www.inkscape.org/namespaces/inkscape" version="1.1" width="566.700" height="269.280" viewBox="0 0 566.700 269.280"><g transform="scale(10.0) translate(-165.765, -154.944)"><defs><clipPath id="clip_14"><path transform="matrix(1,0,0,-1,0,595.276)" d="M19.8 .046H822.06V595.276H19.8Z"/></clipPath></defs><path transform="matrix(1,0,0,-1,0,595.276)" d="M172.38 438.586H215.97C216.18 438.586 216.39 438.526 216.54 438.376 216.69 438.196 216.78 437.986 216.78 437.806V415.456C216.78 415.276 216.69 415.066 216.54 414.916 216.39 414.736 216.18 414.676 215.97 414.676H172.38C172.2 414.676 171.99 414.736 171.84 414.916 171.66 415.066 171.6 415.276 171.6 415.456V437.806C171.6 437.986 171.66 438.196 171.84 438.376 171.99 438.526 172.2 438.586 172.38 438.586Z" fill="#ffffff" fill-rule="evenodd"/><path transform="matrix(1,0,0,-1,0,595.276)" d="M196.32 434.086V431.956L194.88 433.366V417.076H193.47V433.366L192.06 431.956V434.086L194.19 436.216Z" fill-rule="evenodd"/><path transform="matrix(1,0,0,-1,0,595.276)" d="M211.62 434.086V431.956L210.21 433.366V417.076H208.8V433.366L207.39 431.956V434.086L209.49 436.216Z" fill-rule="evenodd"/><path transform="matrix(1,0,0,-1,0,595.276)" d="M202.23 427.696H201.45V431.956H202.23Z" fill-rule="evenodd"/><path transform="matrix(1,0,0,-1,0,595.276)" d="M202.23 421.336H201.45V425.566H202.23Z" fill-rule="evenodd"/><path transform="matrix(1,0,0,-1,0,595.276)" d="M186.93 421.336H186.12V425.566H186.93Z" fill-rule="evenodd"/><path transform="matrix(1,0,0,-1,0,595.276)" d="M186.93 427.696H186.12V431.956H186.93Z" fill-rule="evenodd"/><path transform="matrix(1,0,0,-1,0,595.276)" d="M176.04 430.876 173.91 428.776 176.04 426.646H178.14L176.73 428.056H178.86C179.1 428.056 179.37 427.996 179.64 427.906 179.91 427.786 180.15 427.636 180.36 427.426 180.57 427.216 180.72 426.976 180.84 426.706 180.93 426.436 180.99 426.166 180.99 425.926V417.076H182.4V433.366L183.81 431.956V434.086L181.71 436.216 179.58 434.086V431.956L180.99 433.366V428.776C180.69 428.986 180.36 429.166 179.97 429.286 179.61 429.406 179.25 429.466 178.86 429.466H176.73L178.14 430.876H176.04Z" fill-rule="evenodd"/><path transform="matrix(1,0,0,-1,0,595.276)" d="M186.12 437.746H186.93V434.086H186.12Z" fill-rule="evenodd"/><path transform="matrix(1,0,0,-1,0,595.276)" d="M202.23 437.746H201.45V434.086H202.23Z" fill-rule="evenodd"/><path transform="matrix(1,0,0,-1,0,595.276)" d="M202.23 415.516H201.45V419.206H202.23Z" fill-rule="evenodd"/><path transform="matrix(1,0,0,-1,0,595.276)" d="M186.12 415.516H186.93V419.206H186.12Z" fill-rule="evenodd"/><path transform="matrix(1,0,0,-1,0,595.276)" d="M215.97 439.396C216.18 439.396 216.36 439.366 216.57 439.276 216.75 439.216 216.93 439.096 217.11 438.916 217.26 438.766 217.38 438.586 217.44 438.376 217.53 438.196 217.56 437.986 217.56 437.806V415.456C217.56 415.276 217.53 415.096 217.44 414.886 217.38 414.676 217.26 414.496 217.11 414.346 216.93 414.196 216.75 414.076 216.57 413.986 216.36 413.926 216.18 413.896 215.97 413.896H172.38C172.2 413.896 171.99 413.926 171.81 413.986 171.6 414.076 171.42 414.196 171.27 414.346 171.12 414.496 171 414.676 170.91 414.886 170.82 415.096 170.79 415.276 170.79 415.456V437.806C170.79 437.986 170.82 438.196 170.91 438.376 171 438.586 171.12 438.766 171.27 438.916 171.42 439.096 171.6 439.216 171.81 439.276 171.99 439.366 172.2 439.396 172.38 439.396H215.97ZM215.97 438.586H172.38C172.29 438.586 172.2 438.586 172.08 438.556 171.99 438.496 171.9 438.436 171.84 438.376 171.66 438.196 171.6 437.986 171.6 437.806V415.456C171.6 415.366 171.6 415.276 171.66 415.186 171.69 415.066 171.75 414.976 171.84 414.916 171.99 414.736 172.2 414.676 172.38 414.676H215.97C216.06 414.676 216.18 414.706 216.27 414.736 216.36 414.766 216.45 414.826 216.54 414.916 216.69 415.066 216.78 415.276 216.78 415.456V437.806C216.78 437.896 216.75 437.986 216.72 438.106 216.69 438.196 216.63 438.286 216.54 438.376 216.39 438.526 216.18 438.586 215.97 438.586Z" fill-rule="evenodd"/></g></svg>