<?xml version='1.0' encoding='UTF-8'?>
<svg xmlns="http://www.w3.org/2000/svg" xmlns:xlink="http://www.w3.org/1999/xlink" xmlns:inkscape="http://www.inkscape.org/namespaces/inkscape" version="1.1" width="566.700" height="269.280" viewBox="0 0 566.700 269.280"><g transform="scale(10.0) translate(-383.985, -558.864)"><defs><clipPath id="clip_14"><path transform="matrix(1,0,0,-1,0,595.276)" d="M19.8 .046H822.06V595.276H19.8Z"/></clipPath></defs><path transform="matrix(1,0,0,-1,0,595.276)" d="M390.75 34.636H427.59C427.71 34.636 427.86 34.606 427.98 34.546 428.1 34.456 428.19 34.366 428.25 34.246L434.91 22.756 428.25 11.236C428.19 11.116 428.1 11.026 427.98 10.936 427.86 10.876 427.71 10.846 427.59 10.846H390.75C390.63 10.846 390.54 10.846 390.45 10.906 390.36 10.936 390.27 10.996 390.18 11.086 390.09 11.146 390.03 11.236 390 11.326 389.97 11.446 389.94 11.536 389.94 11.626V33.856C389.94 34.036 390.03 34.246 390.18 34.426 390.33 34.576 390.54 34.636 390.75 34.636Z" fill-rule="evenodd"/><path transform="matrix(1,0,0,-1,0,595.276)" d="M432.36 22.756 425.94 33.856H422.31L428.73 22.756 422.31 11.626H425.94Z" fill="#ffffff" fill-rule="evenodd"/><path transform="matrix(1,0,0,-1,0,595.276)" d="M392.07 22.546V19.576H393.18C393.33 19.576 393.51 19.606 393.66 19.696 393.81 19.756 393.96 19.876 394.11 20.026 394.35 20.326 394.47 20.716 394.47 21.046 394.47 21.406 394.35 21.796 394.11 22.096 393.96 22.246 393.81 22.366 393.66 22.426 393.51 22.516 393.33 22.546 393.18 22.546H392.07ZM393.18 22.096C393.27 22.096 393.39 22.066 393.48 22.036 393.57 21.976 393.66 21.886 393.75 21.796 393.9 21.586 393.96 21.316 393.96 21.046 393.96 20.806 393.9 20.536 393.75 20.326 393.57 20.116 393.36 20.026 393.18 20.026H392.58V22.096H393.18Z" fill="#ffffff" fill-rule="evenodd"/><path transform="matrix(1,0,0,-1,0,595.276)" d="M400.41 15.256 400.89 14.176 401.19 14.326 400.68 15.376Z" fill="#ffffff" fill-rule="evenodd"/><path transform="matrix(1,0,0,-1,0,595.276)" d="M402.27 16.516 402.15 14.086 402.06 13.636 401.94 13.306 401.76 13.066 401.55 12.916H400.83 400.8V12.946L400.74 13.006 400.68 13.216 400.71 13.276 400.86 13.306H401.43L401.58 13.396 401.7 13.636 401.79 13.996 401.82 14.476 401.94 16.246 401.88 16.276H400.68L400.35 15.706 400.26 15.676 400.2 15.706 400.02 15.796V15.856L400.23 16.156 400.44 16.546 400.62 16.996 400.77 17.536 400.89 17.476 401.1 17.356 401.13 17.326 401.16 17.296 401.1 17.266 401.04 17.236 400.83 16.546H402.21Z" fill="#ffffff" fill-rule="evenodd"/><path transform="matrix(1,0,0,-1,0,595.276)" d="M404.22 15.736V13.846L403.47 13.576 403.53 13.456 403.59 13.336 403.62 13.276 403.68 13.306 403.71 13.396 405.21 13.936V14.206L404.52 13.966V15.736H405.18V16.006H404.52V17.056L404.64 17.146 404.67 17.206 404.61 17.236 404.46 17.266 404.22 17.296V16.006H403.53V15.736Z" fill="#ffffff" fill-rule="evenodd"/><path transform="matrix(1,0,0,-1,0,595.276)" d="M405.93 15.406V13.546L405.96 13.336 406.11 13.216H407.46L407.67 13.276 407.76 13.396 407.88 13.936 407.94 13.966 408.18 13.846V13.756L408.06 13.276 407.97 13.156 407.85 13.036 407.73 12.976 407.55 12.946H406.05L405.9 13.006 405.75 13.066 405.66 13.186 405.6 13.336V15.286L405.18 15.136 405.06 15.376 405.6 15.556V16.966L405.87 16.936H405.99L406.02 16.906V16.846L405.93 16.786V15.676L406.68 15.946V17.476L407.04 17.446 407.13 17.416V17.356L407.07 17.326 406.98 17.266V16.066L407.85 16.396 407.97 16.366 408.06 16.336 407.88 14.656 407.79 14.416 407.61 14.296H407.16L407.1 14.326 407.04 14.536 407.07 14.596H407.46L407.55 14.656 407.61 14.776 407.73 16.066 406.98 15.796V13.936H406.68V15.676Z" fill="#ffffff" fill-rule="evenodd"/><path transform="matrix(1,0,0,-1,0,595.276)" d="M395.25 22.546V19.636H397.17V20.086H395.73V20.896H396.99V21.346H395.73V22.096H397.08V22.546Z" fill="#ffffff" fill-rule="evenodd"/><path transform="matrix(1,0,0,-1,0,595.276)" d="M401.22 19.636H401.7V22.096H402.51V22.546H400.41V22.096H401.22Z" fill="#ffffff" fill-rule="evenodd"/><path transform="matrix(1,0,0,-1,0,595.276)" d="M403.11 19.636H403.59V22.546H403.11Z" fill="#ffffff" fill-rule="evenodd"/><path transform="matrix(1,0,0,-1,0,595.276)" d="M404.61 19.636H405.12V21.766L406.53 19.636H407.1V22.546H406.59V20.416L405.18 22.546H404.61Z" fill="#ffffff" fill-rule="evenodd"/><path transform="matrix(1,0,0,-1,0,595.276)" d="M411.27 19.636H411.78V22.096H412.59V22.546H410.49V22.096H411.27Z" fill="#ffffff" fill-rule="evenodd"/><path transform="matrix(1,0,0,-1,0,595.276)" d="M413.19 19.636H413.67V22.546H413.19Z" fill="#ffffff" fill-rule="evenodd"/><path transform="matrix(1,0,0,-1,0,595.276)" d="M417.93 19.636H418.41V21.766L419.82 19.636H420.42V22.546H419.91V20.416L418.5 22.546H417.93Z" fill="#ffffff" fill-rule="evenodd"/><path transform="matrix(1,0,0,-1,0,595.276)" d="M398.13 20.446C398.37 20.146 398.64 20.056 398.94 20.056 399.18 20.026 399.42 20.086 399.51 20.266 399.54 20.386 399.54 20.536 399.48 20.656 399.36 20.836 399.12 20.866 398.91 20.896H398.88C398.7 20.926 398.52 20.956 398.34 21.016 398.28 21.046 398.19 21.076 398.13 21.136 397.95 21.256 397.86 21.496 397.86 21.706 397.86 21.946 397.95 22.186 398.13 22.336 398.31 22.516 398.61 22.576 398.88 22.576 399.27 22.576 399.6 22.426 399.96 22.096L399.57 21.826C399.36 22.036 399.06 22.126 398.85 22.126 398.73 22.126 398.61 22.126 398.52 22.036 398.43 21.946 398.34 21.826 398.34 21.706 398.37 21.616 398.43 21.526 398.52 21.466 398.58 21.436 398.64 21.406 398.7 21.406L399.36 21.256C399.45 21.256 399.51 21.256 399.57 21.226 399.63 21.196 399.72 21.136 399.78 21.076 399.9 20.986 399.96 20.836 400.02 20.686 400.02 20.626 400.02 20.596 400.02 20.566 400.02 20.536 400.02 20.506 400.02 20.476 400.02 20.446 400.02 20.416 400.02 20.386 399.99 20.356 399.99 20.326 399.99 20.296 399.96 20.236 399.96 20.176 399.93 20.116 399.9 20.026 399.84 19.936 399.75 19.876 399.54 19.696 399.21 19.606 398.94 19.606 398.61 19.606 398.34 19.696 398.1 19.846 397.95 19.936 397.83 20.026 397.74 20.116L398.13 20.446Z" fill="#ffffff" fill-rule="evenodd"/><path transform="matrix(1,0,0,-1,0,595.276)" d="M407.76 19.636H408.21L408.39 20.146H409.62L409.8 19.636H410.25L409.32 22.546H408.69L407.76 19.636ZM408.99 22.036 409.47 20.566H408.51L408.99 22.036Z" fill="#ffffff" fill-rule="evenodd"/><path transform="matrix(1,0,0,-1,0,595.276)" d="M396.09 17.416V13.006H395.76V13.336H393.09V13.006H392.79V17.416H396.09ZM393.09 16.216H395.76V17.176H393.09V16.216ZM393.09 15.946V14.926H395.76V15.946H393.09ZM393.09 14.656V13.606H395.76V14.656H393.09Z" fill="#ffffff" fill-rule="evenodd"/><path transform="matrix(1,0,0,-1,0,595.276)" d="M398.01 16.516V12.946L398.04 12.916H398.28L398.31 12.946V13.336L398.37 13.366H399.39L399.45 13.336V13.096L399.48 13.066H399.72L399.75 13.096V16.516L399.72 16.546H398.94V16.576L399.18 17.296 399.24 17.326 399.3 17.386 399.27 17.416 399.21 17.446 398.94 17.536 398.91 17.476 398.58 16.576 398.52 16.546H398.04L398.01 16.516ZM398.37 16.276H399.39L399.45 16.246V15.136L399.39 15.106H398.37L398.31 15.136V16.246L398.37 16.276ZM398.37 13.636 398.31 13.666V14.806L398.37 14.866H399.39L399.45 14.806V13.666L399.39 13.636H398.37Z" fill="#ffffff" fill-rule="evenodd"/><path transform="matrix(1,0,0,-1,0,595.276)" d="M415.8 22.636C415.47 22.636 415.14 22.486 414.87 22.186 414.6 21.856 414.48 21.466 414.48 21.076 414.48 20.686 414.63 20.296 414.87 19.996 415.11 19.726 415.44 19.546 415.8 19.546 416.13 19.546 416.46 19.696 416.73 19.996 417 20.326 417.12 20.716 417.12 21.076 417.12 21.496 417 21.886 416.73 22.186 416.49 22.456 416.16 22.636 415.8 22.636ZM415.8 22.156C416.01 22.156 416.22 22.066 416.4 21.856 416.55 21.646 416.64 21.346 416.64 21.076 416.64 20.806 416.55 20.536 416.4 20.326 416.22 20.116 416.01 20.026 415.8 20.026 415.59 20.026 415.38 20.116 415.23 20.326 415.05 20.536 414.96 20.836 414.96 21.076 414.96 21.376 415.05 21.646 415.23 21.856 415.38 22.066 415.59 22.156 415.8 22.156Z" fill="#ffffff" fill-rule="evenodd"/><path transform="matrix(1,0,0,-1,0,595.276)" d="M414.69 25.156 414.06 24.886 413.16 24.676 412.32 24.616 411.48 24.646 410.7 24.706 409.92 24.826 409.17 24.916 408.48 24.976H407.79L407.07 24.916 406.38 24.856 405.69 24.736 404.97 24.646 404.28 24.556 403.56 24.466 402.87 24.436 402.18 24.466 401.52 24.556 400.86 24.646 400.23 24.736 399.63 24.856 399 24.916 398.4 24.976H397.77L397.14 24.916 396.45 24.826 395.7 24.706 394.95 24.616 394.14 24.556 393.3 24.586 392.46 24.736 391.8 24.976 391.71 24.676 392.37 24.466 393.27 24.286 394.14 24.256 394.98 24.316 395.76 24.406 396.48 24.526 397.17 24.616 397.8 24.676H398.4L398.97 24.616 399.57 24.556 400.17 24.466 400.8 24.346 401.46 24.256 402.15 24.166 402.87 24.136 403.59 24.166 404.31 24.256 405.03 24.346 405.72 24.436 406.44 24.556 407.1 24.616 407.79 24.676H408.45L409.14 24.616 409.86 24.526 410.64 24.406 411.45 24.346 412.32 24.316 413.22 24.376 414.18 24.616 414.81 24.886Z" fill="#ffffff" fill-rule="evenodd"/><path transform="matrix(.03,0,0,.03,0,0)" stroke-width="5" stroke-linecap="round" stroke-linejoin="round" fill="none" stroke="#ffffff" d="M13292 18949H13293"/><path transform="matrix(.03,0,0,.03,0,0)" stroke-width="5" stroke-linecap="round" stroke-linejoin="round" fill="none" stroke="#ffffff" d="M13205 18949H13206"/><path transform="matrix(1,0,0,-1,0,595.276)" d="M391.89 25.696 392.64 25.426 393.39 25.306 394.14 25.276 394.89 25.306 395.61 25.396 396.36 25.516 397.05 25.606 397.74 25.666 398.43 25.696 399.09 25.636 399.72 25.546 400.35 25.456 400.95 25.336 401.58 25.246 402.21 25.186 402.87 25.156 403.53 25.186 404.19 25.246 404.88 25.336 405.6 25.456 406.29 25.546 407.01 25.636 407.76 25.696 408.51 25.666 409.26 25.606 410.01 25.516 410.76 25.426 411.54 25.336H412.29L413.07 25.396 413.85 25.576 414.63 25.906 414.51 26.146 413.76 25.816 413.07 25.666 413.52 26.806H412.62L411.72 31.786H409.2L408.99 31.036H404.79L404.52 32.596H401.94L401.79 31.036H397.53L397.17 31.756H394.68L393.87 26.806H393.12L393.63 25.516V25.546L393.42 25.576 392.7 25.696 391.98 25.936 391.89 25.696ZM411.18 29.806V26.806H410.07C410.13 26.866 410.16 26.926 410.19 26.986H410.7L410.58 27.346 409.89 27.436 409.71 27.976 408.03 28.156 407.82 27.556 406.98 27.466 406.92 27.046H407.07C407.1 26.956 407.13 26.866 407.22 26.806H406.5V29.806H411.18ZM407.79 27.016H409.53C409.53 26.926 409.59 26.866 409.65 26.806H407.64C407.73 26.866 407.76 26.926 407.79 27.016ZM404.52 26.806C404.64 26.896 404.7 27.016 404.7 27.136H405.42V28.636H402.24L401.97 27.826 401.22 27.676 401.1 27.166H401.55C401.55 27.016 401.64 26.896 401.73 26.806H400.38V29.806H405.99V26.806H404.52ZM402.9 27.766V28.456H405.3V27.766H402.9ZM402.21 26.806C402.24 26.836 402.3 26.896 402.33 26.956 402.36 27.016 402.39 27.106 402.39 27.166H403.92C403.92 27.106 403.92 27.016 403.95 26.956 403.98 26.896 404.04 26.836 404.1 26.806H402.21ZM396.42 26.806C396.54 26.836 396.63 26.926 396.66 27.016L398.22 26.986C398.28 26.896 398.37 26.836 398.46 26.806H396.42ZM396.15 26.806H395.37V29.806H399.87V26.806H398.76C398.82 26.836 398.91 26.896 398.97 26.956H399.57L399.42 27.436 398.76 27.496 398.43 28.246H396.96L396.69 27.586 395.76 27.466 395.67 27.046H395.88V27.076C395.94 26.956 396.03 26.836 396.15 26.806Z" fill="#ffffff" fill-rule="evenodd"/><path transform="matrix(.03,0,0,.03,0,0)" stroke-width="5" stroke-linecap="round" stroke-linejoin="round" fill="none" stroke="#000000" d="M14298 18688 14520 19071C14524 19079 14524 19089 14520 19098L14298 19481C14289 19497 14271 19508 14253 19508H13025C13011 19508 12997 19502 12987 19492 12978 19482 12972 19469 12972 19455V18714C12972 18700 12978 18687 12987 18677 12997 18667 13011 18661 13025 18661H14253C14271 18661 14289 18671 14298 18688"/></g></svg>