<?xml version='1.0' encoding='UTF-8'?>
<svg xmlns="http://www.w3.org/2000/svg" xmlns:xlink="http://www.w3.org/1999/xlink" xmlns:inkscape="http://www.inkscape.org/namespaces/inkscape" version="1.1" width="566.700" height="269.280" viewBox="0 0 566.700 269.280"><g transform="scale(10.0) translate(-165.765, -316.512)"><defs><clipPath id="clip_14"><path transform="matrix(1,0,0,-1,0,595.276)" d="M19.8 .046H822.06V595.276H19.8Z"/></clipPath></defs><path transform="matrix(1,0,0,-1,0,595.276)" d="M175.2 265.816 180.99 275.896C181.26 276.316 181.62 276.706 182.1 276.976 182.58 277.246 183.09 277.366 183.6 277.366H210.39C210.75 277.366 211.11 277.306 211.47 277.156 211.86 277.036 212.19 276.796 212.49 276.496 212.79 276.196 213.03 275.866 213.15 275.476 213.3 275.116 213.36 274.756 213.36 274.396V255.766C213.36 255.406 213.3 255.046 213.15 254.656 213.03 254.296 212.79 253.936 212.49 253.666 212.19 253.366 211.86 253.126 211.47 252.976 211.11 252.826 210.75 252.766 210.39 252.766H183.6C183.09 252.766 182.58 252.916 182.1 253.186 181.62 253.456 181.26 253.846 180.99 254.266L175.2 264.316C174.93 264.796 174.93 265.366 175.2 265.816Z" fill="#ffffff" fill-rule="evenodd"/><path transform="matrix(1,0,0,-1,0,595.276)" d="M183.6 275.896H210.39C210.57 275.896 210.75 275.866 210.93 275.776 211.11 275.716 211.29 275.596 211.44 275.446 211.59 275.296 211.71 275.116 211.77 274.936 211.86 274.756 211.89 274.576 211.89 274.396V255.766C211.89 255.406 211.74 255.016 211.44 254.716 211.29 254.566 211.11 254.446 210.93 254.386 210.75 254.296 210.57 254.266 210.39 254.266H183.6C183.33 254.266 183.09 254.326 182.85 254.476 182.61 254.596 182.43 254.806 182.28 255.016L176.49 265.066 182.28 275.146C182.43 275.356 182.61 275.536 182.85 275.686 183.09 275.806 183.33 275.896 183.6 275.896Z" fill="#0000ff" fill-rule="evenodd"/><path transform="matrix(1,0,0,-1,0,595.276)" d="M184.68 265.066 190.08 274.426H184.92L179.52 265.066 184.92 255.736H190.08Z" fill="#ffffff" fill-rule="evenodd"/><path transform="matrix(1,0,0,-1,0,595.276)" d="M197.94 263.836H194.25C193.77 263.836 193.26 263.956 192.78 264.166 192.3 264.376 191.88 264.706 191.55 265.066 191.88 265.456 192.3 265.786 192.78 265.996 193.26 266.206 193.77 266.326 194.25 266.326H197.94L202.05 273.676C202.08 273.736 202.14 273.826 202.23 273.856 202.32 273.916 202.41 273.946 202.5 273.946H203.43C203.52 273.946 203.58 273.916 203.67 273.886 203.73 273.856 203.82 273.796 203.85 273.736 203.91 273.646 203.94 273.586 203.97 273.496 203.97 273.406 203.97 273.316 203.94 273.256L202.38 267.556V266.326H202.89L206.79 265.786 207.72 267.946C207.75 268.036 207.84 268.126 207.93 268.186 208.02 268.246 208.11 268.276 208.2 268.276H208.74C208.89 268.276 209.01 268.216 209.13 268.126 209.22 268.006 209.28 267.856 209.28 267.736V262.426C209.28 262.366 209.28 262.306 209.25 262.216 209.22 262.156 209.16 262.096 209.13 262.036 209.07 262.006 209.01 261.946 208.95 261.916 208.89 261.916 208.8 261.886 208.74 261.886H208.2C208.11 261.886 208.02 261.916 207.93 261.976 207.84 262.036 207.75 262.126 207.72 262.216L206.79 264.376 202.89 263.836H202.38V262.606L203.94 256.906C203.97 256.816 203.97 256.756 203.97 256.666 203.94 256.576 203.91 256.516 203.85 256.426 203.82 256.366 203.73 256.306 203.67 256.276 203.58 256.246 203.52 256.216 203.43 256.216H202.5C202.41 256.216 202.32 256.246 202.23 256.306 202.14 256.336 202.08 256.426 202.05 256.486L197.94 263.836Z" fill="#ffffff" fill-rule="evenodd"/><path transform="matrix(.03,0,0,.03,0,0)" stroke-width="5" stroke-linecap="round" stroke-linejoin="round" fill="none" stroke="#0000ff" d="M7013 10597C7039 10597 7065 10607 7083 10626 7102 10644 7112 10670 7112 10696V11317C7112 11343 7102 11369 7083 11387 7065 11406 7039 11417 7013 11417H6120C6084 11417 6051 11398 6033 11367L5840 11032C5831 11016 5831 10997 5840 10982L6033 10646C6051 10616 6084 10597 6120 10597H7013"/></g></svg>