<?xml version='1.0' encoding='UTF-8'?>
<svg xmlns="http://www.w3.org/2000/svg" xmlns:xlink="http://www.w3.org/1999/xlink" xmlns:inkscape="http://www.inkscape.org/namespaces/inkscape" version="1.1" width="566.700" height="269.280" viewBox="0 0 566.700 269.280"><g transform="scale(10.0) translate(-274.875, -128.016)"><defs><clipPath id="clip_14"><path transform="matrix(1,0,0,-1,0,595.276)" d="M19.8 .046H822.06V595.276H19.8Z"/></clipPath></defs><path transform="matrix(1,0,0,-1,0,595.276)" d="M327.69 441.766H278.91C278.61 441.766 278.28 441.826 277.95 441.946 277.65 442.066 277.35 442.276 277.08 442.516 276.84 442.756 276.66 443.056 276.51 443.386 276.39 443.716 276.33 444.016 276.33 444.316V462.796C276.33 463.096 276.39 463.426 276.51 463.726 276.66 464.056 276.84 464.356 277.08 464.596 277.35 464.866 277.65 465.046 277.95 465.166 278.28 465.316 278.61 465.346 278.91 465.346H327.69C328.02 465.346 328.32 465.316 328.65 465.166 328.98 465.046 329.25 464.866 329.52 464.596 329.76 464.356 329.97 464.056 330.09 463.726 330.21 463.426 330.27 463.096 330.27 462.796V444.316C330.27 444.016 330.21 443.716 330.09 443.386 329.97 443.056 329.76 442.756 329.52 442.516 329.25 442.276 328.98 442.066 328.65 441.946 328.32 441.826 328.02 441.766 327.69 441.766Z" fill="#ffffff" fill-rule="evenodd"/><path transform="matrix(1,0,0,-1,0,595.276)" d="M327.69 443.056H278.91C278.76 443.056 278.58 443.086 278.43 443.146 278.28 443.206 278.13 443.296 278.01 443.416 277.86 443.536 277.77 443.686 277.71 443.866 277.65 444.016 277.62 444.166 277.62 444.316V462.796C277.62 463.096 277.74 463.456 278.01 463.696 278.13 463.816 278.28 463.936 278.43 463.996 278.58 464.056 278.76 464.086 278.91 464.086H327.69C328.02 464.086 328.35 463.966 328.62 463.696 328.74 463.576 328.83 463.426 328.89 463.276 328.95 463.096 328.98 462.946 328.98 462.796V444.316C328.98 443.986 328.86 443.656 328.62 443.416 328.38 443.176 328.05 443.056 327.69 443.056Z" fill="#0000ff" fill-rule="evenodd"/><path transform="matrix(.03,0,0,.03,0,0)" stroke-width="5" stroke-linecap="round" stroke-linejoin="round" fill="none" stroke="#ffffff" d="M9825 4589H9826"/><path transform="matrix(1,0,0,-1,0,595.276)" d="M295.38 460.546 296.01 460.996C295.44 461.536 294.9 461.776 294.24 461.776 293.82 461.776 293.34 461.686 293.01 461.386 292.74 461.146 292.56 460.756 292.56 460.366 292.56 460.006 292.74 459.646 293.01 459.436 293.13 459.346 293.25 459.286 293.37 459.226 293.64 459.136 293.94 459.106 294.24 459.046 294.27 459.046 294.27 459.046 294.3 459.046 294.63 458.986 295.02 458.926 295.2 458.656 295.32 458.476 295.32 458.206 295.26 458.026 295.11 457.726 294.72 457.666 294.36 457.666 293.88 457.696 293.4 457.846 293.01 458.326L292.38 457.786C292.56 457.606 292.77 457.456 292.95 457.336 293.37 457.096 293.82 456.946 294.33 456.946 294.81 456.946 295.32 457.066 295.65 457.366 295.92 457.606 296.04 457.936 296.1 458.326 296.1 458.446 296.1 458.566 296.07 458.686 296.01 458.926 295.89 459.196 295.68 459.346 295.59 459.436 295.47 459.526 295.35 459.556 295.26 459.616 295.14 459.646 295.02 459.646L293.94 459.886H293.91 293.88C293.85 459.886 293.82 459.916 293.82 459.916 293.76 459.916 293.73 459.946 293.67 459.976 293.52 460.066 293.4 460.216 293.37 460.366 293.34 460.576 293.49 460.786 293.64 460.906 293.82 461.026 293.97 461.056 294.18 461.056 294.54 461.026 295.05 460.876 295.38 460.546Z" fill="#ffffff" fill-rule="evenodd"/><path transform="matrix(1,0,0,-1,0,595.276)" d="M298.53 456.946C298.2 456.946 297.87 457.066 297.6 457.306 297.3 457.576 297.18 457.906 297.15 458.236V460.366H297.9V458.206C297.9 458.056 297.99 457.906 298.11 457.786 298.23 457.666 298.38 457.606 298.53 457.606 298.68 457.606 298.86 457.666 298.98 457.786 299.1 457.906 299.16 458.056 299.19 458.206V460.366H299.94V457.006H299.19V457.186C299.1 457.096 298.98 457.036 298.89 457.006 298.77 456.946 298.65 456.946 298.53 456.946Z" fill="#ffffff" fill-rule="evenodd"/><path transform="matrix(1,0,0,-1,0,595.276)" d="M301.89 460.186C302.07 460.336 302.31 460.426 302.58 460.426 302.85 460.426 303.12 460.366 303.36 460.186 303.63 460.006 303.81 459.766 303.93 459.496 304.05 459.226 304.11 458.926 304.11 458.686 304.11 458.416 304.05 458.146 303.93 457.876 303.81 457.576 303.63 457.336 303.39 457.156 303.12 456.976 302.85 456.916 302.58 456.916 302.31 456.916 302.07 457.006 301.89 457.126 301.86 457.156 301.83 457.156 301.8 457.156V457.126C301.77 457.126 301.77 457.096 301.77 457.096V457.006H301.02V461.716H301.77V460.246C301.77 460.216 301.77 460.216 301.8 460.216V460.186C301.83 460.186 301.83 460.186 301.86 460.186H301.89ZM302.67 457.576C302.79 457.606 302.91 457.636 303.03 457.726 303.21 457.876 303.33 458.056 303.39 458.296 303.45 458.596 303.45 458.896 303.33 459.166 303.24 459.406 303.06 459.586 302.85 459.706 302.64 459.766 302.43 459.766 302.22 459.676 302.04 459.616 301.92 459.466 301.83 459.286 301.8 459.166 301.77 459.046 301.77 458.926V458.386C301.77 458.326 301.77 458.266 301.8 458.206 301.8 458.146 301.8 458.086 301.83 458.026 301.89 457.876 302.01 457.756 302.16 457.666 302.31 457.606 302.49 457.576 302.67 457.576Z" fill="#ffffff" fill-rule="evenodd"/><path transform="matrix(1,0,0,-1,0,595.276)" d="M305.46 460.366 305.94 458.086 306.51 460.366H306.96 307.38L307.95 458.086 308.46 460.366H309.27L308.37 457.006H307.56L306.96 459.376 306.36 457.006H305.52L304.62 460.366Z" fill="#ffffff" fill-rule="evenodd"/><path transform="matrix(1,0,0,-1,0,595.276)" d="M312.9 457.426 312.69 457.546C312.66 457.576 312.63 457.606 312.6 457.636 312.57 457.696 312.57 457.726 312.57 457.786V458.866C312.57 458.986 312.57 459.106 312.57 459.226 312.57 459.346 312.57 459.466 312.54 459.586 312.54 459.766 312.48 459.916 312.36 460.066 312.24 460.186 312.06 460.306 311.88 460.366 311.64 460.456 311.37 460.486 311.13 460.456 310.92 460.456 310.74 460.426 310.56 460.366 310.44 460.336 310.32 460.306 310.23 460.246 310.11 460.186 310.02 460.156 309.93 460.126L310.23 459.556 310.62 459.706C310.74 459.766 310.86 459.796 310.98 459.796 311.13 459.826 311.28 459.826 311.43 459.796 311.55 459.796 311.67 459.736 311.76 459.646 311.79 459.586 311.82 459.526 311.85 459.436 311.85 459.376 311.85 459.316 311.85 459.256V459.106L311.31 459.046C311.19 459.046 311.04 459.046 310.92 459.016 310.77 459.016 310.62 458.956 310.47 458.926 310.29 458.866 310.14 458.746 309.99 458.626 309.87 458.446 309.78 458.206 309.81 457.966 309.81 457.756 309.87 457.546 309.99 457.366 310.11 457.246 310.23 457.126 310.41 457.066 310.56 456.976 310.74 456.946 310.92 456.946 311.1 456.916 311.31 456.946 311.49 457.006 311.67 457.066 311.85 457.156 311.97 457.276 312.03 457.156 312.09 457.066 312.21 457.036 312.33 456.976 312.42 456.946 312.54 456.946L312.9 457.426ZM310.92 457.516C310.83 457.516 310.74 457.576 310.68 457.636 310.59 457.696 310.56 457.786 310.53 457.876 310.53 457.966 310.53 458.056 310.56 458.146 310.59 458.236 310.68 458.326 310.77 458.356 310.86 458.386 310.95 458.416 311.04 458.416 311.19 458.476 311.34 458.506 311.46 458.506 311.61 458.536 311.73 458.536 311.85 458.536V457.936C311.85 457.906 311.82 457.846 311.82 457.786 311.79 457.726 311.76 457.696 311.7 457.636 311.64 457.576 311.52 457.516 311.4 457.486 311.25 457.426 311.07 457.456 310.92 457.516Z" fill="#ffffff" fill-rule="evenodd"/><path transform="matrix(1,0,0,-1,0,595.276)" d="M312.9 457.426V457.426Z" fill="#ffffff" fill-rule="evenodd"/><path transform="matrix(1,0,0,-1,0,595.276)" d="M314.46 456.706C314.4 456.586 314.28 456.526 314.16 456.496 314.01 456.526 313.83 456.526 313.68 456.556L313.56 455.926C313.71 455.926 313.86 455.896 314.01 455.896 314.13 455.866 314.28 455.866 314.4 455.866 314.7 455.866 314.97 456.076 315.06 456.346H315.09C315.3 457.036 315.51 457.696 315.75 458.386 315.96 459.046 316.2 459.706 316.41 460.366H315.57L314.88 458.116 314.19 460.366H313.35L314.52 456.886 314.46 456.706Z" fill="#ffffff" fill-rule="evenodd"/><path transform="matrix(1,0,0,-1,0,595.276)" d="M321.09 459.226C321.09 458.926 321.21 458.656 321.42 458.476 321.6 458.266 321.9 458.146 322.17 458.146 322.47 458.146 322.74 458.266 322.92 458.476 323.13 458.656 323.25 458.926 323.25 459.226 323.25 459.496 323.13 459.796 322.92 459.976 322.74 460.186 322.47 460.306 322.17 460.306 321.9 460.306 321.6 460.186 321.42 459.976 321.21 459.796 321.09 459.496 321.09 459.226Z" fill="#ffffff" fill-rule="evenodd"/><path transform="matrix(1,0,0,-1,0,595.276)" d="M320.82 446.836H319.98L320.13 449.806 321.36 453.166 321.18 455.236 320.7 454.696 319.11 453.346 318.69 453.976 320.07 455.236 320.49 456.466C320.64 456.796 320.88 457.126 321.18 457.336 321.51 457.576 321.9 457.696 322.26 457.726 322.62 457.756 323.01 457.696 323.37 457.516 323.73 457.306 324 457.036 324.21 456.736L324.78 455.836 325.26 452.986 324.6 452.716 323.94 455.446 323.49 455.896 324.99 450.166 326.28 448.096 325.65 447.406 323.31 450.526 322.65 452.146 321.36 449.866 320.82 446.836Z" fill="#ffffff" fill-rule="evenodd"/><path transform="matrix(1,0,0,-1,0,595.276)" d="M282.36 452.356 288.72 458.716 290.31 457.126 283.95 450.796H287.13L284.76 448.396H279.99V453.166L282.36 455.536Z" fill="#ffffff" fill-rule="evenodd"/><path transform="matrix(1,0,0,-1,0,595.276)" d="M296.31 446.326H296.94V448.306L297.21 447.736 297.51 447.826 297.75 447.976 297.96 448.156 298.11 448.366 298.23 448.636 298.26 448.906V449.236L298.23 449.596H298.71V447.796L297.48 447.016 297.72 446.656 297.84 446.506 297.96 446.446 298.05 446.476 298.11 446.626 298.86 447.256 299.07 446.866 299.49 446.596 300.09 446.446 300.93 446.356H302.97L303.21 447.016H300.72 300.39 300.09L299.85 447.106 299.64 447.226 299.49 447.406 299.37 447.616 299.31 447.886V448.216 450.166H298.2V449.716L297.66 450.766 298.38 452.746 297.84 453.226 297.78 453.076H296.31V446.326ZM296.94 452.536H297.63L297.03 450.676 297.27 450.316 297.45 449.926 297.57 449.536 297.6 449.146 297.57 448.816 297.45 448.576 297.24 448.426 296.94 448.396V452.536Z" fill="#ffffff" fill-rule="evenodd"/><path transform="matrix(1,0,0,-1,0,595.276)" d="M299.22 452.086 299.64 452.506 298.95 453.106 298.47 452.656 298.89 452.386Z" fill="#ffffff" fill-rule="evenodd"/><path transform="matrix(1,0,0,-1,0,595.276)" d="M299.13 451.816 299.52 451.336 300.09 451.876V451.426H300.81L300.54 451.156 300.24 450.946 299.88 450.736 299.43 450.556 299.91 450.106 300.84 450.736 300.96 450.436 300.27 449.806 299.43 449.386 299.88 448.936 300.51 449.356 301.14 449.956 301.29 449.536 300.93 449.146 300.54 448.786 300.06 448.486 299.52 448.246 299.85 447.736 300.6 448.186 301.32 448.756 301.26 448.336 301.08 448.066 300.81 447.916 300.48 447.886 300.69 447.286 301.2 447.346 301.59 447.616 301.83 448.036 301.95 448.696 302.34 448.096 302.79 447.616 303.33 448.096 302.85 448.456 302.46 448.876 302.13 449.356 301.89 449.896 302.82 450.406H302.97L303.06 450.436 303.03 450.526 302.91 450.676 302.52 451.036 301.65 450.406 301.2 451.186 301.44 451.426H302.31V451.846L302.88 451.396 303.33 451.876 302.91 452.086 302.55 452.386 302.28 452.716 302.07 453.136H300.81V452.566H301.74L301.92 452.236 302.19 451.966H300.18L300.51 452.386 300.63 452.446 300.66 452.506 300.6 452.566 300.48 452.626 300.09 452.776 299.67 452.236Z" fill="#ffffff" fill-rule="evenodd"/><path transform="matrix(1,0,0,-1,0,595.276)" d="M298.83 450.526 299.31 451.006 298.92 451.366 298.5 451.696 298.05 451.276Z" fill="#ffffff" fill-rule="evenodd"/><path transform="matrix(1,0,0,-1,0,595.276)" d="M306.24 453.286 305.76 452.776 306.24 452.506 306.69 452.176 307.11 452.656 306.69 452.986Z" fill="#ffffff" fill-rule="evenodd"/><path transform="matrix(1,0,0,-1,0,595.276)" d="M305.85 451.816 305.4 451.366 306.39 450.646 306.84 451.126Z" fill="#ffffff" fill-rule="evenodd"/><path transform="matrix(1,0,0,-1,0,595.276)" d="M305.49 450.016V449.326H306.42V447.856L305.34 447.076 305.85 446.446 306.63 447.286 306.87 446.926 307.35 446.656 308.07 446.446 309.06 446.356H312.33L312.51 446.986H309.3L308.37 447.046 307.71 447.226 307.26 447.526 307.11 447.976V450.016Z" fill="#ffffff" fill-rule="evenodd"/><path transform="matrix(1,0,0,-1,0,595.276)" d="M308.73 453.226 308.25 452.926 308.79 452.236H307.59V451.636H309.42L309.21 451.126H308.04V447.376H308.73V447.586H311.01V447.346H311.73V451.126H309.93L310.2 451.636H312.15V452.236H310.86L311.58 453.166 310.86 453.346 310.11 452.236H309.27L309.42 452.356 308.73 453.226ZM308.73 448.126V448.516H311.01V448.126H308.73ZM308.73 449.056V449.476H311.01V449.056H308.73ZM308.73 450.046V450.496H311.01V450.046H308.73Z" fill="#ffffff" fill-rule="evenodd"/><path transform="matrix(.03,0,0,.03,0,0)" stroke-width="5" stroke-linecap="round" stroke-linejoin="round" fill="none" stroke="#0000ff" d="M11009 4416V5032C11009 5054 11000 5076 10984 5092 10968 5108 10946 5117 10923 5117H9297C9274 5117 9252 5108 9236 5092 9220 5076 9211 5054 9211 5032V4416C9211 4393 9220 4372 9236 4356 9252 4340 9274 4331 9297 4331H10923C10946 4331 10968 4340 10984 4356 11000 4372 11009 4393 11009 4416"/></g></svg>