<?xml version='1.0' encoding='UTF-8'?>
<svg xmlns="http://www.w3.org/2000/svg" xmlns:xlink="http://www.w3.org/1999/xlink" xmlns:inkscape="http://www.inkscape.org/namespaces/inkscape" version="1.1" width="566.700" height="269.280" viewBox="0 0 566.700 269.280"><g transform="scale(10.0) translate(-274.875, -478.080)"><defs><clipPath id="clip_14"><path transform="matrix(1,0,0,-1,0,595.276)" d="M19.8 .046H822.06V595.276H19.8Z"/></clipPath></defs><path transform="matrix(1,0,0,-1,0,595.276)" d="M278.01 113.596H323.76C324.12 113.596 324.48 113.506 324.81 113.326 325.14 113.116 325.38 112.876 325.56 112.546L330.48 104.026C330.57 103.876 330.63 103.696 330.63 103.516 330.63 103.336 330.57 103.156 330.48 103.006L325.56 94.486C325.38 94.186 325.14 93.916 324.81 93.736 324.48 93.526 324.12 93.436 323.76 93.436H278.01C277.74 93.436 277.5 93.496 277.23 93.586 276.99 93.706 276.75 93.856 276.54 94.066 276.33 94.246 276.18 94.486 276.06 94.756 275.97 95.026 275.91 95.266 275.91 95.506V111.526C275.91 111.766 275.97 112.036 276.06 112.276 276.18 112.546 276.33 112.786 276.54 112.996 276.75 113.206 276.99 113.356 277.23 113.446 277.5 113.566 277.74 113.596 278.01 113.596Z" fill="#ffffff" fill-rule="evenodd"/><path transform="matrix(1,0,0,-1,0,595.276)" d="M329.58 103.516 324.66 112.036C324.57 112.186 324.45 112.336 324.27 112.426 324.12 112.516 323.94 112.546 323.76 112.546H278.01C277.86 112.546 277.74 112.546 277.62 112.486 277.5 112.426 277.38 112.366 277.26 112.246 277.17 112.156 277.08 112.036 277.02 111.916 276.99 111.766 276.96 111.646 276.96 111.526V95.506C276.96 95.266 277.05 94.996 277.26 94.786 277.47 94.576 277.74 94.486 278.01 94.486H323.76C323.94 94.486 324.12 94.516 324.27 94.636 324.45 94.726 324.57 94.846 324.66 94.996L329.58 103.516Z" fill="#0000ff" fill-rule="evenodd"/><path transform="matrix(1,0,0,-1,0,595.276)" d="M323.04 111.406 327.6 103.516 323.04 95.626H319.32L323.85 103.516 319.32 111.406Z" fill="#ffffff" fill-rule="evenodd"/><path transform="matrix(1,0,0,-1,0,595.276)" d="M287.01 102.166H282.33L281.85 109.006C281.85 109.186 281.85 109.336 281.91 109.516 281.97 109.696 282.09 109.876 282.21 109.996 282.48 110.296 282.84 110.416 283.17 110.416 283.5 110.416 283.86 110.296 284.13 109.996 284.43 109.726 284.52 109.336 284.49 109.006 284.49 108.676 284.34 108.346 284.01 108.076 283.86 107.956 283.71 107.866 283.53 107.836 283.35 107.776 283.17 107.776 283.02 107.776L283.17 105.286H286.56V104.206H283.26L283.32 103.336H287.76L289.56 99.346 290.82 99.886 291.12 99.136 288.81 98.176 287.01 102.166Z" fill="#ffffff" fill-rule="evenodd"/><path transform="matrix(1,0,0,-1,0,595.276)" d="M281.67 103.486C281.49 103.336 281.34 103.186 281.16 102.976 281.01 102.766 280.86 102.556 280.74 102.316 280.53 101.776 280.41 101.206 280.5 100.606 280.56 100.006 280.8 99.436 281.13 99.016 281.31 98.776 281.49 98.596 281.7 98.446 281.88 98.296 282.09 98.146 282.3 98.056 282.51 97.966 282.75 97.876 282.99 97.816 283.23 97.756 283.5 97.726 283.77 97.756 284.34 97.756 284.91 97.936 285.42 98.266 285.93 98.566 286.32 99.016 286.56 99.526 286.71 99.766 286.77 100.036 286.83 100.276 286.89 100.516 286.92 100.786 286.92 100.996L287.7 99.286C287.58 99.016 287.43 98.716 287.25 98.476 287.07 98.206 286.83 97.936 286.56 97.696 286.05 97.246 285.39 96.886 284.64 96.706 283.89 96.556 283.14 96.586 282.45 96.796 282.12 96.886 281.82 97.036 281.52 97.186 281.25 97.336 280.98 97.546 280.77 97.726 280.56 97.936 280.35 98.176 280.14 98.416 279.96 98.686 279.81 98.986 279.66 99.316 279.39 99.976 279.27 100.726 279.36 101.476 279.45 102.226 279.72 102.916 280.14 103.486 280.35 103.786 280.59 104.026 280.83 104.266 281.07 104.476 281.34 104.656 281.58 104.776L281.67 103.486Z" fill="#ffffff" fill-rule="evenodd"/><path transform="matrix(1,0,0,-1,0,595.276)" d="M296.43 109.126C296.37 109.306 296.25 109.456 296.13 109.606 295.98 109.756 295.8 109.846 295.62 109.876 295.44 109.936 295.26 109.906 295.11 109.846 294.93 109.786 294.81 109.696 294.69 109.576 294.42 109.276 294.27 108.856 294.27 108.406 294.27 107.956 294.42 107.536 294.69 107.266 294.81 107.146 294.93 107.026 295.11 106.966 295.26 106.906 295.44 106.906 295.62 106.936 295.8 106.996 295.98 107.086 296.13 107.236 296.25 107.356 296.37 107.536 296.43 107.686L297.09 107.536C297 107.296 296.85 107.026 296.64 106.816 296.43 106.606 296.16 106.426 295.86 106.336 295.56 106.276 295.26 106.276 294.99 106.336 294.72 106.426 294.48 106.576 294.27 106.726 294.09 106.906 293.91 107.146 293.79 107.446 293.64 107.716 293.58 108.076 293.58 108.406 293.58 108.766 293.64 109.096 293.79 109.396 293.91 109.696 294.09 109.906 294.27 110.086 294.48 110.266 294.72 110.416 294.99 110.476 295.26 110.566 295.56 110.566 295.86 110.476 296.16 110.386 296.43 110.236 296.64 110.026 296.85 109.786 297 109.546 297.09 109.276L296.43 109.126Z" fill="#ffffff" fill-rule="evenodd"/><path transform="matrix(1,0,0,-1,0,595.276)" d="M297.69 107.836C297.69 107.476 297.81 107.086 298.08 106.786 298.38 106.486 298.77 106.336 299.1 106.336 299.46 106.336 299.85 106.486 300.12 106.786 300.42 107.086 300.54 107.476 300.54 107.836 300.54 108.196 300.42 108.586 300.12 108.886 299.85 109.186 299.46 109.336 299.1 109.336 298.77 109.336 298.38 109.186 298.08 108.886 297.81 108.586 297.69 108.196 297.69 107.836ZM299.1 108.736C299.31 108.706 299.49 108.646 299.64 108.466 299.82 108.286 299.88 108.046 299.85 107.836 299.88 107.626 299.82 107.386 299.64 107.206 299.49 107.026 299.31 106.966 299.1 106.966 298.92 106.966 298.74 107.026 298.56 107.206 298.41 107.386 298.35 107.626 298.35 107.836 298.35 108.046 298.41 108.286 298.56 108.466 298.74 108.646 298.92 108.706 299.1 108.736Z" fill="#ffffff" fill-rule="evenodd"/><path transform="matrix(1,0,0,-1,0,595.276)" d="M305.37 108.286C305.46 108.256 305.55 108.226 305.67 108.226 305.7 108.226 305.7 108.226 305.73 108.226H305.76 305.82C306.21 108.196 306.54 107.956 306.72 107.626 306.78 107.506 306.81 107.356 306.81 107.206 306.78 106.996 306.69 106.816 306.57 106.696 306.3 106.456 305.91 106.336 305.58 106.336H305.55C305.1 106.336 304.65 106.576 304.38 106.966L304.77 107.386C304.86 107.236 304.98 107.146 305.1 107.056 305.25 106.966 305.4 106.936 305.55 106.936 305.64 106.936 305.7 106.936 305.79 106.966 305.85 106.966 305.94 106.996 305.97 107.026 306.03 107.056 306.09 107.116 306.12 107.206 306.12 107.266 306.12 107.296 306.09 107.356 306.09 107.386 306.06 107.416 306.03 107.446 305.94 107.536 305.76 107.626 305.55 107.626 305.46 107.626 305.4 107.626 305.31 107.656 305.01 107.716 304.77 107.866 304.62 108.046L304.59 108.076C304.5 108.226 304.47 108.376 304.47 108.526 304.5 108.706 304.56 108.916 304.68 109.006 304.86 109.186 305.1 109.306 305.34 109.336H305.37 305.4 305.43C305.88 109.396 306.39 109.276 306.75 108.976L306.33 108.556C306.15 108.676 305.91 108.736 305.67 108.736 305.58 108.736 305.46 108.736 305.37 108.706 305.28 108.676 305.22 108.586 305.22 108.496 305.22 108.406 305.28 108.316 305.37 108.286Z" fill="#ffffff" fill-rule="evenodd"/><path transform="matrix(1,0,0,-1,0,595.276)" d="M308.4 106.336C308.73 106.276 309.06 106.336 309.36 106.456 309.51 106.516 309.63 106.606 309.75 106.726L309.39 107.176 309.27 107.116C309.15 106.996 309 106.906 308.82 106.906 308.61 106.846 308.4 106.906 308.22 106.996 308.13 107.086 308.07 107.176 308.01 107.296 307.95 107.386 307.95 107.506 307.95 107.626H309.87C309.9 107.896 309.87 108.196 309.78 108.436 309.72 108.706 309.57 108.946 309.36 109.096 308.94 109.366 308.4 109.396 307.95 109.156 307.62 108.946 307.41 108.586 307.32 108.196 307.26 107.776 307.29 107.386 307.47 107.026 307.56 106.846 307.68 106.666 307.83 106.546 308.01 106.426 308.19 106.366 308.4 106.336ZM307.92 108.076C307.95 108.226 307.98 108.346 308.07 108.466 308.13 108.586 308.19 108.676 308.31 108.706 308.49 108.796 308.7 108.796 308.91 108.706 309 108.676 309.09 108.586 309.15 108.496 309.21 108.376 309.27 108.226 309.27 108.076H307.92Z" fill="#ffffff" fill-rule="evenodd"/><path transform="matrix(1,0,0,-1,0,595.276)" d="M311.82 106.336C311.55 106.336 311.25 106.456 311.01 106.666 310.77 106.876 310.68 107.176 310.65 107.446V109.276H311.28V107.416C311.28 107.296 311.34 107.176 311.46 107.086 311.58 106.966 311.7 106.936 311.82 106.936 311.97 106.936 312.09 106.966 312.21 107.086 312.3 107.176 312.36 107.296 312.39 107.416V109.276H313.02V106.396H312.39V106.546C312.3 106.486 312.21 106.426 312.12 106.396 312.03 106.366 311.94 106.336 311.85 106.336H311.82Z" fill="#ffffff" fill-rule="evenodd"/><path transform="matrix(1,0,0,-1,0,595.276)" d="M314.58 109.276H313.95V106.396H314.58V108.166C314.58 108.316 314.64 108.436 314.73 108.556 314.85 108.646 314.97 108.706 315.09 108.736 315.18 108.736 315.3 108.706 315.39 108.616 315.45 108.556 315.48 108.496 315.51 108.436 315.54 108.376 315.54 108.316 315.54 108.256V106.396H316.17V108.166C316.2 108.286 316.23 108.436 316.35 108.556 316.44 108.646 316.56 108.706 316.71 108.736 316.8 108.736 316.92 108.706 317.01 108.616 317.04 108.556 317.1 108.496 317.1 108.436 317.13 108.376 317.16 108.316 317.16 108.256V106.396H317.79V108.436C317.79 108.466 317.79 108.496 317.79 108.526 317.79 108.556 317.76 108.586 317.76 108.616 317.7 108.826 317.55 109.036 317.31 109.156 317.1 109.306 316.86 109.336 316.65 109.336 316.5 109.306 316.38 109.276 316.26 109.216 316.14 109.156 316.05 109.036 315.96 108.946 315.75 109.186 315.42 109.336 315.09 109.336 315 109.336 314.91 109.306 314.82 109.246 314.73 109.216 314.64 109.156 314.58 109.066V109.276Z" fill="#ffffff" fill-rule="evenodd"/><path transform="matrix(1,0,0,-1,0,595.276)" d="M301.35 106.936V110.416H301.98V107.056C301.98 107.026 301.98 106.996 302.04 106.936 302.07 106.906 302.1 106.906 302.13 106.906 302.22 106.906 302.28 106.906 302.34 106.906 302.43 106.936 302.49 106.936 302.55 106.966L302.61 106.396C302.49 106.366 302.34 106.366 302.22 106.336 302.07 106.336 301.95 106.366 301.83 106.366 301.68 106.396 301.56 106.456 301.47 106.576 301.38 106.696 301.35 106.816 301.35 106.936Z" fill="#ffffff" fill-rule="evenodd"/><path transform="matrix(1,0,0,-1,0,595.276)" d="M303.81 106.396V109.276H303.18V106.396Z" fill="#ffffff" fill-rule="evenodd"/><path transform="matrix(1,0,0,-1,0,595.276)" d="M303.87 110.116C303.87 110.326 303.69 110.476 303.48 110.476 303.3 110.476 303.12 110.326 303.12 110.116 303.12 109.906 303.3 109.726 303.48 109.726 303.69 109.726 303.87 109.906 303.87 110.116Z" fill="#ffffff" fill-rule="evenodd"/><path transform="matrix(1,0,0,-1,0,595.276)" d="M294.51 101.416H294.12V100.276H294.57V97.396H295.08V98.296H295.98V98.086L295.89 97.936 295.74 97.906H295.47L295.65 97.396H295.92L296.16 97.426 296.37 97.516 296.46 97.726 296.52 98.056V100.216H296.91V101.416H296.61V103.066H294.51V101.416ZM295.83 101.416V101.806H296.1V101.416H295.83ZM295.08 99.676V100.096H295.98V99.676H295.08ZM295.08 98.746V99.196H295.98V98.746H295.08ZM295.35 101.416H295.02V102.556H296.1V102.196H295.35V101.416ZM294.63 100.546V100.936H296.43V100.546H294.63Z" fill="#ffffff" fill-rule="evenodd"/><path transform="matrix(1,0,0,-1,0,595.276)" d="M297.93 103.216V102.826H297.12V100.816H299.94V102.826H299.13V103.006L299.22 103.096V103.156L299.16 103.186 299.04 103.216H298.68V102.826H298.38V103.036L298.47 103.096V103.156L298.41 103.186 298.29 103.216H297.93ZM299.13 101.266V101.626H299.43V101.266H299.13ZM298.38 101.266V101.626H298.68V101.266H298.38ZM299.13 102.016V102.406H299.43V102.016H299.13ZM298.38 102.016V102.406H298.68V102.016H298.38ZM297.57 102.016V102.406H297.9V102.016H297.57ZM297.57 101.266V101.626H297.93V101.266H297.57Z" fill="#ffffff" fill-rule="evenodd"/><path transform="matrix(1,0,0,-1,0,595.276)" d="M297 100.516V100.066H300.09V100.516Z" fill="#ffffff" fill-rule="evenodd"/><path transform="matrix(1,0,0,-1,0,595.276)" d="M297.27 98.476H297.51L297.72 97.906H296.88V97.456H300.18V97.906H299.34L299.49 98.476H299.79V99.736H297.27V98.476ZM298.29 97.906 298.05 98.476H298.95L298.77 97.906H298.29ZM297.78 98.926V99.346H299.25V98.926H297.78Z" fill="#ffffff" fill-rule="evenodd"/><path transform="matrix(1,0,0,-1,0,595.276)" d="M302.13 102.676V102.196H304.14L303.57 101.446 302.31 101.416 302.37 100.876 302.43 100.786H302.52L302.58 100.816 302.64 100.906 306.87 101.146 307.53 100.486 308.04 100.846 307.26 101.566 306.42 102.196H308.01V102.676H305.37V102.946L305.49 103.096 305.4 103.216 304.8 103.276V102.676H302.13ZM304.32 101.506 304.89 102.196H306.09L305.82 101.986 306.36 101.596 304.32 101.506Z" fill="#ffffff" fill-rule="evenodd"/><path transform="matrix(1,0,0,-1,0,595.276)" d="M303.15 100.636V97.336H303.75V98.296H306.48V98.116L306.42 98.026 306.33 97.936 306.18 97.906H305.67L305.88 97.336 306.6 97.456 306.81 97.546 306.96 97.666 307.05 97.876V98.146 100.636H303.15ZM303.75 99.736V100.156H306.48V99.736H303.75ZM303.75 98.806V99.256H306.48V98.806H303.75Z" fill="#ffffff" fill-rule="evenodd"/><path transform="matrix(1,0,0,-1,0,595.276)" d="M311.7 103.096 311.43 103.306 310.68 102.346 309.84 101.536 310.14 101.146 310.86 101.806 311.43 102.496 311.85 101.956 312.36 101.476 312.6 101.746V101.266H313.14V97.336H313.71V97.666H315.18V97.366H315.72V99.316H313.71V99.796H315.51V101.266H315.96V102.496H314.61V102.916L314.7 102.976 314.73 103.036 314.67 103.096H314.49L314.01 103.156V102.496H312.6V101.956L311.76 102.796 311.85 102.826 311.88 102.886 311.82 102.976 311.7 103.096ZM313.71 100.936H314.91V100.336H313.71V100.936ZM313.71 98.176V98.836H315.18V98.176H313.71ZM313.2 101.416V101.986H315.42V101.416H313.2Z" fill="#ffffff" fill-rule="evenodd"/><path transform="matrix(1,0,0,-1,0,595.276)" d="M312.42 97.456 312.87 97.636 312.3 98.956 311.88 98.776 312 98.446 310.92 98.146V99.106H312.51V101.266H311.67V101.626L311.79 101.686 311.82 101.776 311.7 101.836 311.52 101.866 311.16 101.896V101.266H310.38V98.056L310.02 97.936 310.11 97.606 310.17 97.456 310.23 97.366 310.32 97.396 310.41 97.516 312.18 98.026 312.42 97.456ZM310.92 100.426V100.846H311.97V100.426H310.92ZM310.92 99.556V99.976H311.97V99.556H310.92Z" fill="#ffffff" fill-rule="evenodd"/><path transform="matrix(.03,0,0,.03,0,0)" stroke-width="5" stroke-linecap="round" stroke-linejoin="round" fill="none" stroke="#0000ff" d="M9267 16056H10792C10817 16056 10840 16069 10852 16091L11016 16375C11022 16385 11022 16398 11016 16409L10852 16693C10840 16714 10817 16728 10792 16728H9267C9248 16728 9231 16720 9218 16707 9205 16694 9197 16677 9197 16659V16125C9197 16107 9205 16089 9218 16076 9231 16063 9248 16056 9267 16056"/></g></svg>