<?xml version='1.0' encoding='UTF-8'?>
<svg xmlns="http://www.w3.org/2000/svg" xmlns:xlink="http://www.w3.org/1999/xlink" xmlns:inkscape="http://www.inkscape.org/namespaces/inkscape" version="1.1" width="566.700" height="269.280" viewBox="0 0 566.700 269.280"><g transform="scale(10.0) translate(-56.655, -208.800)"><defs><clipPath id="clip_14"><path transform="matrix(1,0,0,-1,0,595.276)" d="M19.8 .046H822.06V595.276H19.8Z"/></clipPath></defs><path transform="matrix(1,0,0,-1,0,595.276)" d="M79.77 360.106H90.36C90.6 360.106 90.87 360.136 91.14 360.256 91.38 360.346 91.65 360.496 91.83 360.706 92.04 360.916 92.22 361.156 92.31 361.426 92.43 361.696 92.46 361.966 92.46 362.206V383.356C92.46 383.596 92.43 383.866 92.31 384.136 92.22 384.406 92.04 384.646 91.83 384.856 91.65 385.066 91.38 385.216 91.14 385.336 90.87 385.426 90.6 385.486 90.36 385.486H79.77C79.53 385.486 79.26 385.426 78.99 385.336 78.72 385.216 78.48 385.066 78.27 384.856 78.06 384.646 77.91 384.406 77.82 384.136 77.7 383.866 77.67 383.596 77.67 383.356V362.206C77.67 361.636 77.88 361.096 78.27 360.706 78.66 360.316 79.2 360.106 79.77 360.106Z" fill="#ffffff" fill-rule="evenodd"/><path transform="matrix(1,0,0,-1,0,595.276)" d="M79.77 360.616H90.36C90.54 360.616 90.75 360.646 90.93 360.736 91.14 360.796 91.32 360.916 91.47 361.096 91.62 361.246 91.74 361.426 91.83 361.636 91.89 361.816 91.92 362.026 91.92 362.206V383.356C91.92 383.536 91.89 383.746 91.83 383.956 91.74 384.136 91.62 384.316 91.47 384.496 91.32 384.646 91.14 384.766 90.93 384.826 90.75 384.916 90.54 384.946 90.36 384.946H79.77C79.59 384.946 79.38 384.916 79.2 384.826 78.99 384.766 78.81 384.646 78.66 384.496 78.48 384.316 78.39 384.136 78.3 383.956 78.21 383.746 78.18 383.536 78.18 383.356V362.206C78.18 361.786 78.36 361.396 78.66 361.096 78.96 360.796 79.35 360.616 79.77 360.616Z" fill="#0000ff" fill-rule="evenodd"/><path transform="matrix(1,0,0,-1,0,595.276)" d="M89.91 381.736 79.23 376.306 80.19 374.416 90.87 379.846Z" fill="#ffffff" fill-rule="evenodd"/><path transform="matrix(1,0,0,-1,0,595.276)" d="M89.91 376.456 79.23 370.996 80.19 369.136 90.87 374.566Z" fill="#ffffff" fill-rule="evenodd"/><path transform="matrix(1,0,0,-1,0,595.276)" d="M89.91 371.146 79.23 365.716 80.19 363.826 90.87 369.286Z" fill="#ffffff" fill-rule="evenodd"/><path transform="matrix(.03,0,0,.03,0,0)" stroke-width="5" stroke-linecap="round" stroke-linejoin="round" fill="none" stroke="#0000ff" d="M3082 7769V7064C3082 7045 3075 7027 3061 7014 3048 7001 3030 6993 3012 6993H2659C2640 6993 2622 7001 2609 7014 2596 7027 2589 7045 2589 7064V7769C2589 7788 2596 7806 2609 7819 2622 7832 2640 7839 2659 7839H3012C3030 7839 3048 7832 3061 7819 3075 7806 3082 7788 3082 7769"/></g></svg>