<?xml version='1.0' encoding='UTF-8'?>
<svg xmlns="http://www.w3.org/2000/svg" xmlns:xlink="http://www.w3.org/1999/xlink" xmlns:inkscape="http://www.inkscape.org/namespaces/inkscape" version="1.1" width="566.700" height="269.280" viewBox="0 0 566.700 269.280"><g transform="scale(10.0) translate(-165.765, -208.800)"><defs><clipPath id="clip_14"><path transform="matrix(1,0,0,-1,0,595.276)" d="M19.8 .046H822.06V595.276H19.8Z"/></clipPath></defs><path transform="matrix(1,0,0,-1,0,595.276)" d="M183.66 360.346H210.42C210.78 360.346 211.14 360.406 211.5 360.526 211.86 360.676 212.19 360.916 212.49 361.186 212.76 361.486 213 361.816 213.12 362.176 213.27 362.536 213.33 362.896 213.33 363.256V382.306C213.33 382.666 213.27 383.026 213.12 383.386 213 383.746 212.76 384.106 212.49 384.376 212.19 384.676 211.86 384.886 211.5 385.036 211.14 385.156 210.78 385.246 210.42 385.246H183.66C183.18 385.246 182.67 385.096 182.22 384.856 181.77 384.586 181.41 384.196 181.14 383.776L175.23 373.516C175.11 373.306 175.02 373.036 175.02 372.796 175.02 372.526 175.11 372.256 175.23 372.046L181.14 361.786C181.41 361.366 181.77 360.976 182.22 360.736 182.67 360.466 183.18 360.346 183.66 360.346ZM210.42 383.776C210.78 383.776 211.17 383.656 211.44 383.356 211.74 383.056 211.89 382.666 211.89 382.306V363.256C211.89 363.076 211.86 362.896 211.77 362.716 211.71 362.536 211.59 362.356 211.44 362.206 211.17 361.936 210.78 361.786 210.42 361.786H183.66C183.42 361.786 183.18 361.846 182.94 361.996 182.73 362.116 182.55 362.296 182.4 362.506L176.49 372.796 182.4 383.056C182.55 383.266 182.73 383.446 182.94 383.596 183.18 383.716 183.42 383.776 183.66 383.776H210.42Z" fill="#0000ff" fill-rule="evenodd"/><path transform="matrix(1,0,0,-1,0,595.276)" d="M210.42 383.776H183.66C183.42 383.776 183.18 383.716 182.94 383.596 182.73 383.446 182.55 383.266 182.4 383.056L176.49 372.796 182.4 362.506C182.55 362.296 182.73 362.116 182.94 361.996 183.18 361.846 183.42 361.786 183.66 361.786H210.42C210.6 361.786 210.78 361.816 210.96 361.906 211.14 361.966 211.32 362.086 211.44 362.206 211.59 362.356 211.71 362.536 211.77 362.716 211.86 362.896 211.89 363.076 211.89 363.256V382.306C211.89 382.696 211.71 383.086 211.44 383.356 211.17 383.626 210.81 383.776 210.42 383.776Z" fill="#ffffff" fill-rule="evenodd"/><path transform="matrix(1,0,0,-1,0,595.276)" d="M191.28 381.856H209.43V363.706H191.28Z" fill="#0000ff" fill-rule="evenodd"/><path transform="matrix(1,0,0,-1,0,595.276)" d="M189.81 363.256H184.83L179.31 372.796 184.83 382.306H189.81L184.32 372.796Z" fill-rule="evenodd"/><path transform="matrix(1,0,0,-1,0,595.276)" d="M198.06 371.356H201.78C202.29 371.356 202.83 371.446 203.37 371.656 203.91 371.866 204.42 372.196 204.84 372.616 205.26 373.036 205.59 373.546 205.8 374.056 206.01 374.596 206.1 375.136 206.1 375.646 206.1 376.156 206.01 376.696 205.8 377.236 205.59 377.776 205.26 378.286 204.84 378.706 204.42 379.126 203.91 379.456 203.37 379.666 202.83 379.876 202.29 379.966 201.78 379.966H194.61V365.596H198.06V371.356ZM198.06 373.636V377.656H200.94C201.12 377.656 201.36 377.626 201.57 377.536 201.78 377.476 201.99 377.326 202.14 377.176 202.32 376.996 202.44 376.786 202.53 376.576 202.62 376.366 202.65 376.156 202.65 375.946V375.376C202.65 375.166 202.62 374.956 202.53 374.746 202.44 374.506 202.32 374.326 202.14 374.146 201.99 373.966 201.78 373.846 201.57 373.756 201.36 373.696 201.12 373.636 200.94 373.636H198.06Z" fill="#ffffff" fill-rule="evenodd"/></g></svg>