<?xml version='1.0' encoding='UTF-8'?>
<svg xmlns="http://www.w3.org/2000/svg" xmlns:xlink="http://www.w3.org/1999/xlink" xmlns:inkscape="http://www.inkscape.org/namespaces/inkscape" version="1.1" width="566.700" height="269.280" viewBox="0 0 566.700 269.280"><g transform="scale(10.0) translate(-383.985, -74.160)"><defs><clipPath id="clip_14"><path transform="matrix(1,0,0,-1,0,595.276)" d="M19.8 .046H822.06V595.276H19.8Z"/></clipPath></defs><path transform="matrix(1,0,0,-1,0,595.276)" d="M399.84 519.676H419.13C419.67 519.676 420.21 519.556 420.72 519.256 421.23 518.956 421.62 518.566 421.89 518.086L427.74 507.976C427.86 507.736 427.95 507.466 427.95 507.166 427.95 506.896 427.86 506.626 427.74 506.386L421.89 496.246C421.62 495.796 421.23 495.376 420.72 495.106 420.21 494.806 419.67 494.686 419.13 494.686H399.84C399.48 494.686 399.09 494.746 398.67 494.896 398.28 495.046 397.92 495.286 397.62 495.616 397.29 495.916 397.05 496.276 396.9 496.666 396.75 497.056 396.69 497.476 396.69 497.836V516.526C396.69 516.886 396.75 517.276 396.9 517.696 397.05 518.086 397.29 518.446 397.62 518.746 397.92 519.076 398.28 519.316 398.67 519.466 399.09 519.616 399.48 519.676 399.84 519.676Z" fill="#ffffff" fill-rule="evenodd"/><path transform="matrix(1,0,0,-1,0,595.276)" d="M399.84 496.246H419.13C419.4 496.246 419.67 496.336 419.94 496.456 420.18 496.606 420.39 496.816 420.51 497.056L426.36 507.166 420.51 517.306C420.39 517.546 420.18 517.756 419.94 517.876 419.67 518.026 419.4 518.086 419.13 518.086H399.84C399.66 518.086 399.45 518.056 399.27 517.996 399.06 517.906 398.88 517.786 398.73 517.636 398.58 517.486 398.46 517.306 398.37 517.096 398.31 516.916 398.25 516.706 398.25 516.526V497.836C398.25 497.656 398.31 497.446 398.37 497.266 398.46 497.056 398.58 496.876 398.73 496.726 398.88 496.576 399.06 496.456 399.27 496.366 399.45 496.306 399.66 496.246 399.84 496.246Z" fill="#0000ff" fill-rule="evenodd"/><path transform="matrix(1,0,0,-1,0,595.276)" d="M407.82 514.186C407.82 514.546 407.67 514.876 407.43 515.116 407.19 515.386 406.83 515.506 406.5 515.506 406.14 515.506 405.78 515.386 405.54 515.116 405.3 514.876 405.15 514.546 405.15 514.186 405.15 513.826 405.3 513.496 405.54 513.226 405.78 512.986 406.14 512.836 406.5 512.836 406.83 512.836 407.19 512.986 407.43 513.226 407.67 513.496 407.82 513.826 407.82 514.186Z" fill="#ffffff" fill-rule="evenodd"/><path transform="matrix(1,0,0,-1,0,595.276)" d="M408.18 498.856H409.2L408.99 502.516 407.49 506.686 407.7 509.266 408.33 508.606 410.28 506.926 410.79 507.706 409.08 509.266 408.57 510.766C408.18 511.666 407.34 512.266 406.38 512.326 405.93 512.386 405.45 512.296 405 512.056 404.55 511.816 404.22 511.486 403.98 511.096L403.26 509.986 402.66 506.476 403.47 506.146 404.31 509.506 404.88 510.046 403.02 502.996 401.4 500.416 402.21 499.546 405.06 503.416 405.9 505.426 407.49 502.606 408.18 498.856Z" fill="#ffffff" fill-rule="evenodd"/><path transform="matrix(1,0,0,-1,0,595.276)" d="M418.26 498.346H412.89L417.99 507.166 412.89 516.016H418.26L423.36 507.166Z" fill="#ffffff" fill-rule="evenodd"/><path transform="matrix(.03,0,0,.03,0,0)" stroke-width="5" stroke-linecap="round" stroke-linejoin="round" fill="none" stroke="#0000ff" d="M13971 3353H13328C13300 3353 13273 3342 13254 3322 13234 3303 13223 3276 13223 3248V2625C13223 2597 13234 2570 13254 2551 13273 2531 13300 2520 13328 2520H13971C14009 2520 14044 2540 14063 2573L14258 2910C14267 2927 14267 2947 14258 2963L14063 3301C14044 3333 14009 3353 13971 3353"/></g></svg>