<?xml version='1.0' encoding='UTF-8'?>
<svg xmlns="http://www.w3.org/2000/svg" xmlns:xlink="http://www.w3.org/1999/xlink" xmlns:inkscape="http://www.inkscape.org/namespaces/inkscape" version="1.1" width="566.700" height="269.280" viewBox="0 0 566.700 269.280"><g transform="scale(10.0) translate(-165.765, -424.224)"><defs><clipPath id="clip_14"><path transform="matrix(1,0,0,-1,0,595.276)" d="M19.8 .046H822.06V595.276H19.8Z"/></clipPath></defs><path transform="matrix(1,0,0,-1,0,595.276)" d="M174.06 168.046H218.94C219.21 168.046 219.45 168.016 219.72 167.896 219.99 167.806 220.23 167.656 220.44 167.446 220.62 167.236 220.8 166.996 220.89 166.726 220.98 166.486 221.04 166.216 221.04 165.976V150.916C221.04 150.676 220.98 150.406 220.89 150.136 220.8 149.896 220.62 149.626 220.44 149.446 220.23 149.236 219.99 149.056 219.72 148.966 219.45 148.876 219.21 148.816 218.94 148.816H174.06C173.7 148.816 173.34 148.906 173.01 149.116 172.68 149.296 172.41 149.566 172.26 149.866L167.61 157.906C167.52 158.056 167.46 158.236 167.46 158.446 167.46 158.626 167.52 158.806 167.61 158.956L172.26 166.996C172.62 167.656 173.31 168.046 174.06 168.046Z" fill="#ffffff" fill-rule="evenodd"/><path transform="matrix(1,0,0,-1,0,595.276)" d="M174.06 166.996H218.94C219.21 166.996 219.48 166.906 219.69 166.696 219.9 166.486 219.99 166.216 219.99 165.976V150.916C219.99 150.646 219.9 150.376 219.69 150.166 219.48 149.956 219.21 149.866 218.94 149.866H174.06C173.88 149.866 173.7 149.896 173.52 150.016 173.37 150.106 173.25 150.226 173.16 150.376L168.51 158.446 173.16 166.486C173.25 166.636 173.37 166.786 173.52 166.876 173.7 166.966 173.88 166.996 174.06 166.996Z" fill="#0000ff" fill-rule="evenodd"/><path transform="matrix(1,0,0,-1,0,595.276)" d="M183.09 162.616C183.09 162.286 183.21 161.896 183.48 161.626 183.75 161.326 184.11 161.206 184.44 161.176 184.8 161.206 185.16 161.326 185.43 161.626 185.7 161.896 185.82 162.286 185.79 162.616 185.82 162.946 185.7 163.306 185.43 163.606 185.16 163.906 184.8 164.026 184.44 164.026 184.11 164.026 183.75 163.906 183.48 163.606 183.21 163.306 183.09 162.946 183.09 162.616ZM184.44 163.456C184.62 163.456 184.83 163.366 184.95 163.216 185.1 163.036 185.16 162.826 185.16 162.616 185.16 162.406 185.1 162.196 184.95 162.016 184.83 161.836 184.62 161.776 184.44 161.776 184.26 161.776 184.08 161.836 183.93 162.016 183.78 162.196 183.72 162.406 183.72 162.616 183.72 162.826 183.78 163.036 183.93 163.216 184.08 163.366 184.26 163.456 184.44 163.456Z" fill="#ffffff" fill-rule="evenodd"/><path transform="matrix(1,0,0,-1,0,595.276)" d="M186.33 162.616C186.33 162.286 186.45 161.896 186.72 161.626 186.99 161.326 187.35 161.206 187.68 161.176 188.04 161.206 188.4 161.326 188.67 161.626 188.94 161.896 189.06 162.286 189.06 162.616 189.06 162.946 188.94 163.306 188.67 163.606 188.4 163.906 188.04 164.026 187.68 164.026 187.35 164.026 186.99 163.906 186.72 163.606 186.45 163.306 186.33 162.946 186.33 162.616ZM187.68 163.456C187.86 163.456 188.07 163.366 188.22 163.216 188.34 163.036 188.4 162.826 188.4 162.616 188.4 162.406 188.34 162.196 188.22 162.016 188.07 161.836 187.86 161.776 187.68 161.776 187.5 161.776 187.32 161.836 187.17 162.016 187.02 162.196 186.96 162.406 186.96 162.616 186.96 162.826 187.02 163.036 187.17 163.216 187.32 163.366 187.5 163.456 187.68 163.456Z" fill="#ffffff" fill-rule="evenodd"/><path transform="matrix(1,0,0,-1,0,595.276)" d="M190.71 161.896C190.71 161.806 190.77 161.716 190.86 161.716 190.95 161.716 191.01 161.716 191.1 161.716 191.19 161.746 191.28 161.746 191.34 161.776L191.43 161.236C191.28 161.206 191.13 161.176 190.95 161.176 190.8 161.176 190.65 161.206 190.5 161.266 190.38 161.326 190.26 161.386 190.2 161.476 190.14 161.566 190.11 161.686 190.11 161.776V163.456H189.57V163.996H190.11V164.866L190.71 165.076V163.996H191.43V163.456H190.71V161.896Z" fill="#ffffff" fill-rule="evenodd"/><path transform="matrix(1,0,0,-1,0,595.276)" d="M192.72 163.846C192.87 163.936 193.08 164.026 193.29 164.026 193.5 164.026 193.74 163.966 193.92 163.846 194.13 163.696 194.28 163.486 194.4 163.276 194.49 163.036 194.52 162.826 194.52 162.616 194.55 162.406 194.49 162.166 194.4 161.956 194.31 161.716 194.13 161.506 193.95 161.386 193.74 161.236 193.5 161.176 193.29 161.176 193.08 161.176 192.9 161.236 192.72 161.356 192.72 161.356 192.69 161.356 192.66 161.356 192.66 161.356 192.63 161.326 192.63 161.296V161.236H192.03V165.076H192.63V163.906C192.63 163.876 192.66 163.846 192.66 163.846H192.69 192.72ZM193.35 161.716C193.47 161.716 193.56 161.776 193.65 161.836 193.8 161.956 193.89 162.106 193.95 162.286 194.01 162.526 193.98 162.796 193.89 163.006 193.83 163.216 193.68 163.366 193.5 163.456 193.35 163.516 193.17 163.486 193.02 163.426 192.87 163.366 192.75 163.246 192.66 163.096 192.63 163.006 192.63 162.916 192.63 162.826V162.376C192.63 162.316 192.63 162.286 192.63 162.226 192.66 162.196 192.66 162.136 192.69 162.076 192.72 161.956 192.81 161.866 192.93 161.776 193.08 161.716 193.2 161.716 193.35 161.716Z" fill="#ffffff" fill-rule="evenodd"/><path transform="matrix(1,0,0,-1,0,595.276)" d="M195.9 163.726C196.02 163.846 196.17 163.936 196.32 163.996 196.5 164.056 196.65 164.056 196.8 164.026V163.426C196.56 163.426 196.35 163.366 196.14 163.276 196.08 163.216 196.02 163.156 195.99 163.096 195.96 163.006 195.93 162.946 195.9 162.856V161.236H195.3V163.996H195.9V163.726Z" fill="#ffffff" fill-rule="evenodd"/><path transform="matrix(1,0,0,-1,0,595.276)" d="M197.88 161.236V163.996H197.28V161.236Z" fill="#ffffff" fill-rule="evenodd"/><path transform="matrix(1,0,0,-1,0,595.276)" d="M197.94 164.776C197.94 164.986 197.79 165.136 197.58 165.136 197.4 165.136 197.22 164.986 197.22 164.776 197.22 164.596 197.4 164.416 197.58 164.416 197.79 164.416 197.94 164.596 197.94 164.776Z" fill="#ffffff" fill-rule="evenodd"/><path transform="matrix(1,0,0,-1,0,595.276)" d="M200.46 161.386C200.34 161.296 200.19 161.236 200.04 161.206 199.98 161.206 199.92 161.176 199.86 161.176 199.77 161.176 199.65 161.206 199.53 161.236 199.17 161.356 198.9 161.626 198.75 161.986 198.6 162.406 198.6 162.916 198.78 163.336 198.81 163.396 198.84 163.456 198.87 163.486 199.02 163.756 199.29 163.966 199.65 164.026 200.01 164.086 200.34 163.996 200.58 163.786H200.61V163.816 165.106H201.18V161.236H200.58V161.386 161.416C200.58 161.416 200.55 161.416 200.52 161.416L200.46 161.386ZM200.1 161.746C200.28 161.776 200.43 161.896 200.52 162.046 200.55 162.166 200.58 162.256 200.58 162.376V162.886C200.58 163.036 200.55 163.156 200.46 163.276 200.37 163.396 200.22 163.486 200.1 163.516 200.07 163.516 200.07 163.516 200.04 163.516 199.89 163.546 199.71 163.486 199.59 163.396 199.5 163.336 199.44 163.276 199.41 163.186 199.23 162.856 199.2 162.436 199.38 162.106 199.44 162.016 199.5 161.956 199.56 161.866 199.62 161.836 199.71 161.776 199.8 161.746 199.92 161.746 200.01 161.746 200.1 161.746Z" fill="#ffffff" fill-rule="evenodd"/><path transform="matrix(1,0,0,-1,0,595.276)" d="M203.13 161.446C203.13 161.446 202.83 161.446 202.53 161.626 202.2 161.776 201.9 162.106 201.9 162.736 201.9 163.396 202.2 163.726 202.53 163.876 202.83 164.026 203.13 164.026 203.13 164.026 203.25 164.056 203.34 164.026 203.46 163.996 203.55 163.966 203.64 163.906 203.73 163.816V163.996H204.3V161.116 161.056 160.996C204.24 160.816 204.12 160.666 203.91 160.516 203.7 160.396 203.43 160.336 203.19 160.306 202.83 160.276 202.41 160.366 202.05 160.546L202.23 161.086C202.35 161.026 202.5 160.966 202.65 160.906 202.8 160.876 202.95 160.846 203.1 160.846 203.37 160.876 203.58 160.996 203.64 161.146 203.64 161.146 203.64 161.176 203.67 161.206 203.67 161.236 203.67 161.266 203.67 161.266V161.296 161.536C203.67 161.566 203.67 161.566 203.67 161.596 203.67 161.596 203.64 161.566 203.58 161.566 203.34 161.446 203.13 161.446 203.13 161.446ZM203.13 163.456C203.13 163.456 202.98 163.456 202.83 163.366 202.68 163.276 202.53 163.096 202.53 162.736 202.53 162.046 203.13 162.046 203.13 162.046 203.13 162.046 203.73 162.046 203.73 162.736 203.73 163.456 203.13 163.456 203.13 163.456Z" fill="#ffffff" fill-rule="evenodd"/><path transform="matrix(1,0,0,-1,0,595.276)" d="M206.1 161.176C206.43 161.116 206.76 161.176 207.03 161.296 207.18 161.356 207.3 161.446 207.42 161.566L207.06 161.986 206.94 161.926C206.82 161.806 206.67 161.746 206.52 161.716 206.31 161.686 206.13 161.716 205.95 161.806 205.86 161.896 205.8 161.986 205.74 162.076 205.71 162.196 205.68 162.316 205.68 162.406H207.54C207.54 162.676 207.51 162.946 207.45 163.186 207.36 163.456 207.24 163.666 207.03 163.816 206.61 164.086 206.1 164.116 205.68 163.876 205.38 163.666 205.17 163.306 205.11 162.946 205.02 162.556 205.08 162.166 205.23 161.836 205.29 161.656 205.41 161.506 205.59 161.386 205.74 161.266 205.92 161.206 206.1 161.176ZM205.68 162.826C205.68 162.976 205.74 163.096 205.8 163.216 205.86 163.336 205.92 163.396 206.04 163.456 206.22 163.546 206.43 163.546 206.61 163.456 206.7 163.396 206.76 163.336 206.82 163.246 206.91 163.126 206.94 162.976 206.94 162.826H205.68Z" fill="#ffffff" fill-rule="evenodd"/><path transform="matrix(1,0,0,-1,0,595.276)" d="M180.9 162.886H182.49V163.486H180.9V164.476H182.64V165.076H180.27V161.236H180.9Z" fill="#ffffff" fill-rule="evenodd"/><path transform="matrix(1,0,0,-1,0,595.276)" d="M213.6 163.066C213.6 162.556 213.99 162.166 214.47 162.166 214.98 162.166 215.37 162.556 215.37 163.066 215.37 163.546 214.98 163.936 214.47 163.936 213.99 163.936 213.6 163.546 213.6 163.066Z" fill="#ffffff" fill-rule="evenodd"/><path transform="matrix(1,0,0,-1,0,595.276)" d="M213.36 152.956H212.7L212.82 155.356 213.84 158.116 213.69 159.826 213.27 159.376 211.98 158.266 211.65 158.776 212.79 159.796 213.12 160.786C213.24 161.086 213.42 161.326 213.69 161.536 213.96 161.716 214.26 161.806 214.56 161.836 214.86 161.866 215.16 161.806 215.46 161.656 215.76 161.506 215.97 161.266 216.12 161.026L216.6 160.276 217.02 157.966 216.45 157.756 215.91 159.976 215.55 160.336 216.78 155.686 217.83 153.976 217.32 153.406 215.43 155.956 214.86 157.276 213.84 155.416 213.36 152.956Z" fill="#ffffff" fill-rule="evenodd"/><path transform="matrix(1,0,0,-1,0,595.276)" d="M174.21 158.446 178.56 165.976H175.02L170.67 158.446 175.02 150.916H178.56Z" fill="#ffffff" fill-rule="evenodd"/><path transform="matrix(1,0,0,-1,0,595.276)" d="M180.57 156.856 181.17 156.526 181.86 157.036 182.55 157.636 182.67 157.726 182.73 157.786 182.7 157.846 182.61 157.876 182.1 158.056 181.38 157.366Z" fill="#ffffff" fill-rule="evenodd"/><path transform="matrix(1,0,0,-1,0,595.276)" d="M180.45 154.936 180.99 154.606 181.59 155.176V152.476H182.19V155.836L182.46 156.226 182.76 156.556 182.88 156.646 182.91 156.706 182.88 156.766 182.79 156.796 182.28 156.976 181.89 156.376 181.44 155.836 180.96 155.356Z" fill="#ffffff" fill-rule="evenodd"/><path transform="matrix(1,0,0,-1,0,595.276)" d="M183.3 157.786V157.186H185.79V157.786Z" fill="#ffffff" fill-rule="evenodd"/><path transform="matrix(1,0,0,-1,0,595.276)" d="M184.65 155.536V153.616L184.62 153.406 184.56 153.286 184.5 153.196 184.38 153.136H183.66L183.9 152.506H184.23 184.5L184.71 152.566 184.92 152.626 185.07 152.746 185.16 152.866 185.25 153.046 185.28 153.256V153.466 155.536H186.24V156.076H182.79V155.536Z" fill="#ffffff" fill-rule="evenodd"/><path transform="matrix(1,0,0,-1,0,595.276)" d="M191.19 158.116H190.68V156.916L190.53 155.956 190.41 155.536 190.23 155.116 189.99 154.756 189.72 154.396 189.39 154.066 189 153.736 188.55 153.436 188.07 153.166 188.58 152.656 189.09 152.986 189.51 153.316 189.9 153.676 190.23 154.036 190.5 154.396 190.74 154.786 190.92 155.176 191.04 155.596 191.49 154.666 191.97 153.886 192.51 153.196 193.08 152.596 193.8 153.046 193.35 153.346 192.99 153.676 192.63 154.066 192.3 154.486 192 154.936 191.76 155.446 191.52 155.986 191.31 156.586 191.28 157.186 191.31 157.816 191.43 157.936 191.46 158.026 191.37 158.086Z" fill="#ffffff" fill-rule="evenodd"/><path transform="matrix(1,0,0,-1,0,595.276)" d="M196.26 157.846V157.306H198.27V156.016H195.84V155.476H198.18L198.09 155.116 197.91 154.756 197.7 154.426 197.4 154.126 197.07 153.826 196.65 153.556 196.17 153.286 195.63 153.046 196.14 152.566 196.65 152.836 197.13 153.106 197.52 153.406 197.88 153.706 198.15 154.006 198.39 154.336 198.54 154.666 198.66 155.026 199.05 154.216 199.56 153.526 200.22 152.986 200.97 152.566 201.45 153.166 201 153.346 200.61 153.526 200.25 153.766 199.95 154.036 199.68 154.336 199.41 154.696 199.2 155.056 199.05 155.476H201.21V156.016H198.87V157.306H200.85V157.846Z" fill="#ffffff" fill-rule="evenodd"/><path transform="matrix(1,0,0,-1,0,595.276)" d="M204.12 158.236V156.946H203.37V156.466H204.12L203.7 155.386 203.16 154.426 203.67 154.096 204.12 155.176V152.506H204.66V155.416L204.78 155.146 204.93 154.876 205.35 155.266 204.93 155.806 204.6 156.466H205.11V156.946H204.66V157.966L204.78 157.996V158.056L204.72 158.116 204.54 158.176Z" fill="#ffffff" fill-rule="evenodd"/><path transform="matrix(1,0,0,-1,0,595.276)" d="M205.26 157.906 205.59 157.486 206.49 157.576 206.4 157.186H205.23V156.706H206.07L205.62 156.286 204.99 155.956 205.35 155.596 206.01 155.956V155.176H207.99V156.016L208.68 155.596 209.07 156.046 208.41 156.316 207.84 156.706H208.65V157.186H206.91L207.06 157.636 208.23 157.786 208.38 157.756 208.47 157.786V157.816L208.44 157.936 208.08 158.236 206.67 158.026 205.26 157.906ZM206.55 155.626V155.926H207.45V155.626H206.55ZM206.7 156.706H207.24L207.66 156.316H206.46L206.7 156.706Z" fill="#ffffff" fill-rule="evenodd"/><path transform="matrix(1,0,0,-1,0,595.276)" d="M205.29 154.906V152.536H205.86V154.486H208.17V153.436 153.226L208.11 153.106 207.99 153.016H207.78 207.6L207.81 152.506H208.11L208.35 152.536 208.56 152.686 208.68 152.926 208.74 153.256V154.906Z" fill="#ffffff" fill-rule="evenodd"/><path transform="matrix(1,0,0,-1,0,595.276)" d="M206.19 154.186V153.046H207.81V154.186H206.19ZM206.67 153.436V153.796H207.3V153.436H206.67Z" fill="#ffffff" fill-rule="evenodd"/><path transform="matrix(.03,0,0,.03,0,0)" stroke-width="5" stroke-linecap="round" stroke-linejoin="round" fill="none" stroke="#0000ff" d="M5802 14241H7298C7317 14241 7334 14248 7348 14261 7361 14274 7368 14292 7368 14310V14812C7368 14831 7361 14848 7348 14861 7334 14874 7317 14882 7298 14882H5802C5777 14882 5754 14869 5742 14847L5587 14579C5580 14568 5580 14555 5587 14544L5742 14276C5754 14254 5777 14241 5802 14241"/></g></svg>