<?xml version='1.0' encoding='UTF-8'?>
<svg xmlns="http://www.w3.org/2000/svg" xmlns:xlink="http://www.w3.org/1999/xlink" xmlns:inkscape="http://www.inkscape.org/namespaces/inkscape" version="1.1" width="566.700" height="269.280" viewBox="0 0 566.700 269.280"><g transform="scale(10.0) translate(-56.655, -424.224)"><defs><clipPath id="clip_14"><path transform="matrix(1,0,0,-1,0,595.276)" d="M19.8 .046H822.06V595.276H19.8Z"/></clipPath></defs><path transform="matrix(1,0,0,-1,0,595.276)" d="M70.29 147.346C70.29 147.046 70.35 146.746 70.47 146.476 70.59 146.176 70.77 145.906 70.98 145.666 71.22 145.426 71.49 145.246 71.79 145.126 72.09 145.036 72.39 144.976 72.66 144.976H97.47C97.74 144.976 98.04 145.036 98.34 145.126 98.61 145.246 98.91 145.426 99.12 145.666 99.36 145.906 99.54 146.176 99.66 146.476 99.78 146.746 99.81 147.046 99.81 147.346V167.416C99.81 167.686 99.78 167.986 99.66 168.286 99.54 168.586 99.36 168.856 99.12 169.096 98.91 169.306 98.61 169.486 98.34 169.606 98.04 169.726 97.74 169.786 97.47 169.786H72.66C72.39 169.786 72.09 169.726 71.79 169.606 71.49 169.486 71.22 169.306 70.98 169.096 70.77 168.856 70.59 168.586 70.47 168.286 70.35 167.986 70.29 167.686 70.29 167.416V147.346Z" fill="#ffffff" fill-rule="evenodd"/><path transform="matrix(1,0,0,-1,0,595.276)" d="M97.47 146.146H72.66C72.51 146.146 72.36 146.176 72.24 146.236 72.09 146.296 71.94 146.386 71.82 146.506 71.7 146.626 71.61 146.746 71.55 146.896 71.49 147.046 71.49 147.196 71.49 147.346V167.416C71.49 167.686 71.58 168.016 71.82 168.256 71.94 168.376 72.09 168.466 72.24 168.496 72.36 168.556 72.51 168.586 72.66 168.586H97.47C97.74 168.586 98.07 168.496 98.31 168.256 98.55 168.016 98.64 167.686 98.64 167.416V147.346C98.64 147.016 98.52 146.716 98.31 146.506 98.07 146.266 97.77 146.146 97.47 146.146Z" fill="#0000ff" fill-rule="evenodd"/><path transform="matrix(1,0,0,-1,0,595.276)" d="M77.49 154.756 73.62 157.006 79.29 166.816 83.16 164.566 81.06 160.876 89.31 156.106C89.49 156.016 89.7 155.956 89.91 155.956 90.12 155.956 90.33 156.016 90.48 156.106 90.66 156.226 90.81 156.376 90.93 156.556 91.02 156.736 91.08 156.946 91.08 157.156V167.416H95.58V147.346H91.08V151.156C91.08 151.336 91.02 151.546 90.93 151.726 90.81 151.906 90.66 152.056 90.48 152.176L79.62 158.446 77.49 154.756Z" fill="#ffffff" fill-rule="evenodd"/><path transform="matrix(1,0,0,-1,0,595.276)" d="M82.77 164.476 77.4 155.146 74.01 157.096 79.38 166.426Z" fill="#ff0000" fill-rule="evenodd"/><path transform="matrix(.03,0,0,.03,0,0)" stroke-width="5" stroke-linecap="round" stroke-linejoin="round" fill="none" stroke="#0000ff" d="M3327 14262V14931C3327 14952 3319 14972 3304 14987 3290 15002 3270 15010 3249 15010H2422C2401 15010 2381 15002 2366 14987 2352 14972 2343 14952 2343 14931V14262C2343 14241 2352 14221 2366 14206 2381 14192 2401 14183 2422 14183H3249C3270 14183 3290 14192 3304 14206 3319 14221 3327 14241 3327 14262"/></g></svg>