<?xml version='1.0' encoding='UTF-8'?>
<svg xmlns="http://www.w3.org/2000/svg" xmlns:xlink="http://www.w3.org/1999/xlink" xmlns:inkscape="http://www.inkscape.org/namespaces/inkscape" version="1.1" width="567.000" height="269.280" viewBox="0 0 567.000 269.280"><g transform="scale(10.0) translate(-438.573, -101.088)"><defs><clipPath id="clip_14"><path transform="matrix(1,0,0,-1,0,595.276)" d="M74.37 .046H767.49V595.276H74.37Z"/></clipPath></defs><path transform="matrix(1,0,0,-1,0,595.276)" d="M480.42 490.846C480.42 491.056 480.39 491.296 480.3 491.536 480.21 491.746 480.06 491.986 479.88 492.166 479.7 492.346 479.49 492.466 479.25 492.556 479.01 492.676 478.8 492.706 478.56 492.706H455.4C455.19 492.706 454.95 492.676 454.71 492.556 454.5 492.466 454.29 492.346 454.08 492.166 453.9 491.986 453.78 491.746 453.69 491.536 453.6 491.296 453.54 491.056 453.54 490.846V470.116C453.54 469.906 453.6 469.666 453.69 469.426 453.78 469.216 453.9 469.006 454.08 468.826 454.29 468.616 454.5 468.496 454.71 468.406 454.95 468.316 455.19 468.256 455.4 468.256H478.56C478.8 468.256 479.01 468.316 479.25 468.406 479.49 468.496 479.7 468.616 479.88 468.826 480.06 469.006 480.21 469.216 480.3 469.426 480.39 469.666 480.42 469.906 480.42 470.116V490.846ZM455.4 491.776H478.56C478.8 491.776 479.04 491.686 479.22 491.506 479.4 491.326 479.49 491.056 479.49 490.846V470.116C479.49 470.026 479.49 469.906 479.43 469.786 479.4 469.666 479.31 469.546 479.22 469.456 479.13 469.366 479.04 469.306 478.92 469.246 478.8 469.216 478.68 469.186 478.56 469.186H455.4C455.19 469.186 454.95 469.276 454.74 469.456 454.65 469.546 454.59 469.666 454.53 469.786 454.5 469.906 454.47 470.026 454.47 470.116V490.846C454.47 491.086 454.59 491.326 454.74 491.506 454.92 491.686 455.16 491.776 455.4 491.776Z" fill-rule="evenodd"/><path transform="matrix(1,0,0,-1,0,595.276)" d="M455.4 491.776H478.56C478.68 491.776 478.8 491.746 478.92 491.716 479.04 491.656 479.13 491.596 479.22 491.506 479.31 491.416 479.4 491.296 479.43 491.176 479.49 491.056 479.49 490.966 479.49 490.846V470.116C479.49 469.906 479.4 469.666 479.22 469.456 479.13 469.366 479.04 469.306 478.92 469.246 478.8 469.216 478.68 469.186 478.56 469.186H455.4C455.19 469.186 454.95 469.276 454.74 469.456 454.65 469.546 454.59 469.666 454.53 469.786 454.5 469.906 454.47 470.026 454.47 470.116V490.846C454.47 491.086 454.59 491.326 454.74 491.506 454.92 491.686 455.16 491.776 455.4 491.776Z" fill="#ffffff" fill-rule="evenodd"/><path transform="matrix(1,0,0,-1,0,595.276)" d="M462.06 486.166H464.13V487.216H462.06V488.236H464.31V489.256H460.95V484.126H464.61V485.146H462.06Z" fill-rule="evenodd"/><path transform="matrix(1,0,0,-1,0,595.276)" d="M468.9 484.126V486.646 486.676 486.706 486.736C468.87 487.546 468.39 487.966 467.46 487.966 467.25 487.966 467.1 487.936 466.95 487.876 466.8 487.816 466.68 487.726 466.59 487.636V487.876H465.54V484.126H466.59V486.406C466.65 486.796 466.89 487.006 467.28 487.036 467.64 487.006 467.82 486.796 467.85 486.436V486.406 486.376C467.85 486.376 467.85 486.346 467.85 486.316V486.286 484.126H468.9Z" fill-rule="evenodd"/><path transform="matrix(1,0,0,-1,0,595.276)" d="M472.35 487.636V489.256H473.34V484.036H472.32V484.216C472.17 484.036 471.87 483.946 471.45 483.946 470.58 483.886 469.86 484.516 469.71 485.776V485.866 486.196 486.286C469.83 487.306 470.49 487.876 471.36 487.906 471.63 487.906 471.96 487.816 472.35 487.636ZM472.32 485.326V486.256C472.32 486.376 472.32 486.466 472.29 486.526 472.26 486.586 472.23 486.646 472.2 486.676 472.17 486.706 472.17 486.706 472.14 486.736 471.99 486.886 471.81 486.946 471.57 486.976 471.03 486.916 470.73 486.586 470.7 485.956 470.7 485.236 471 484.876 471.57 484.816 471.93 484.846 472.17 485.026 472.32 485.326Z" fill-rule="evenodd"/><path transform="matrix(1,0,0,-1,0,595.276)" d="M460.29 479.806 459.84 480.076 459 478.876 458.61 479.176 458.19 478.606 459.57 477.586 458.82 476.536 458.22 476.476 458.34 475.936 458.4 475.726 458.46 475.636 458.55 475.666 458.64 475.846 459.57 476.026V472.606H460.26V476.116L460.89 476.236 461.04 475.696 461.73 475.846 461.46 476.686 461.04 477.556 460.53 477.406 460.74 476.746 459.63 476.626 461.19 478.426 461.37 478.486 461.46 478.576 461.43 478.666 461.31 478.786 460.83 479.086 459.96 478.096 459.51 478.516 460.29 479.416 460.44 479.506 460.53 479.596 460.47 479.686Z" fill-rule="evenodd"/><path transform="matrix(1,0,0,-1,0,595.276)" d="M459.09 475.246 458.52 475.366 458.4 474.346 458.07 473.356 458.76 473.146 459.15 474.886 459.3 475.006 459.33 475.126 459.27 475.186Z" fill-rule="evenodd"/><path transform="matrix(1,0,0,-1,0,595.276)" d="M460.98 475.426 460.47 475.246 460.74 474.436 460.89 473.446 461.61 473.656 461.37 474.526Z" fill-rule="evenodd"/><path transform="matrix(1,0,0,-1,0,595.276)" d="M463.11 479.926 462.69 480.046 462.51 479.356 462.27 478.696 461.91 478.066 461.46 477.466 462.12 477.076 462.66 477.886 462.9 477.316 463.32 476.776 463.08 476.506 462.72 476.236 462.24 475.966 461.64 475.666 462.09 475.066 462.96 475.516 463.8 476.206 464.43 475.666 465.15 475.186 465.93 475.786 465.45 475.936 465.03 476.146 464.64 476.446 464.31 476.776 464.94 477.676 465.48 478.846 465.03 479.326 464.82 479.236H463.17L463.32 479.566 463.5 479.626V479.716L463.38 479.836 463.11 479.926ZM463.08 478.576H464.58L464.25 477.856 463.8 477.256 463.35 477.826 463.08 478.576Z" fill-rule="evenodd"/><path transform="matrix(1,0,0,-1,0,595.276)" d="M462.06 473.566 462.24 472.816 462.33 472.666 462.39 472.606 462.48 472.666 462.57 472.846 464.07 473.146 465.66 473.626V474.256L463.86 473.836Z" fill-rule="evenodd"/><path transform="matrix(1,0,0,-1,0,595.276)" d="M463.44 475.546 463.08 475.066 463.62 474.706 464.13 474.226 464.7 474.676 464.13 475.186Z" fill-rule="evenodd"/><path transform="matrix(1,0,0,-1,0,595.276)" d="M472.71 479.836 472.05 479.896V473.746H470.31V477.166L470.46 477.286 470.49 477.376 470.34 477.436 470.07 477.496 469.5 477.556V473.746H468.21V472.966H475.86V473.746H472.89V476.296H475.08V477.076H472.89V479.506L473.1 479.626 473.13 479.716 473.01 479.806Z" fill-rule="evenodd"/></g></svg>