<?xml version='1.0' encoding='UTF-8'?>
<svg xmlns="http://www.w3.org/2000/svg" xmlns:xlink="http://www.w3.org/1999/xlink" xmlns:inkscape="http://www.inkscape.org/namespaces/inkscape" version="1.1" width="567.000" height="269.280" viewBox="0 0 567.000 269.280"><g transform="scale(10.0) translate(-111.171, -20.304)"><defs><clipPath id="clip_14"><path transform="matrix(1,0,0,-1,0,595.276)" d="M74.37 .046H767.49V595.276H74.37Z"/></clipPath></defs><path transform="matrix(1,0,0,-1,0,595.276)" d="M114.51 573.316H164.73C164.94 573.316 165.18 573.256 165.39 573.166 165.63 573.106 165.84 572.956 166.02 572.776 166.2 572.596 166.32 572.386 166.41 572.176 166.5 571.936 166.56 571.696 166.56 571.486V551.026C166.56 550.816 166.5 550.576 166.41 550.366 166.32 550.126 166.2 549.916 166.02 549.736 165.84 549.556 165.63 549.436 165.39 549.346 165.18 549.256 164.94 549.226 164.73 549.226H114.51C114.3 549.226 114.06 549.256 113.85 549.346 113.61 549.436 113.4 549.556 113.22 549.736 113.04 549.916 112.92 550.126 112.83 550.366 112.74 550.576 112.71 550.816 112.71 551.026V571.486C112.71 571.696 112.74 571.936 112.83 572.176 112.92 572.386 113.04 572.596 113.22 572.776 113.4 572.956 113.61 573.106 113.85 573.166 114.06 573.256 114.3 573.316 114.51 573.316ZM114.51 572.386C114.27 572.386 114.03 572.296 113.88 572.146 113.7 571.966 113.61 571.726 113.61 571.486V551.026C113.61 550.816 113.7 550.576 113.88 550.396 114.06 550.216 114.3 550.126 114.51 550.126H164.73C164.97 550.126 165.18 550.216 165.39 550.396 165.57 550.576 165.63 550.816 165.63 551.026V571.486C165.63 571.726 165.57 571.936 165.39 572.146 165.18 572.326 164.97 572.386 164.73 572.386H114.51Z" fill-rule="evenodd"/><path transform="matrix(1,0,0,-1,0,595.276)" d="M114.51 572.386H164.73C164.97 572.386 165.18 572.326 165.39 572.146 165.57 571.936 165.63 571.726 165.63 571.486V551.026C165.63 550.816 165.57 550.576 165.39 550.396 165.18 550.216 164.97 550.126 164.73 550.126H114.51C114.3 550.126 114.06 550.216 113.88 550.396 113.7 550.576 113.61 550.816 113.61 551.026V571.486C113.61 571.726 113.7 571.936 113.88 572.146 114.06 572.326 114.3 572.386 114.51 572.386Z" fill="#ffffff" fill-rule="evenodd"/><path transform="matrix(1,0,0,-1,0,595.276)" d="M118.71 569.956C119.4 569.956 120 569.716 120.42 569.236 120.84 568.756 121.08 568.096 121.08 567.286 121.08 566.536 120.87 565.846 120.42 565.366 120 564.886 119.4 564.646 118.71 564.646 117.99 564.646 117.39 564.886 116.97 565.366 116.55 565.816 116.34 566.506 116.34 567.286 116.34 568.066 116.52 568.756 116.97 569.236 117.39 569.716 118.02 569.956 118.71 569.956ZM120 567.286C120 567.766 119.91 568.156 119.67 568.456 119.43 568.756 119.07 568.906 118.71 568.906 117.9 568.906 117.39 568.276 117.39 567.286 117.39 566.836 117.51 566.416 117.75 566.146 117.99 565.846 118.32 565.696 118.71 565.696 119.49 565.696 120 566.326 120 567.286Z" fill-rule="evenodd"/><path transform="matrix(1,0,0,-1,0,595.276)" d="M122.82 564.826 121.62 568.366H122.67L123.42 565.966 124.17 568.366H125.22L124.02 564.826H123.42Z" fill-rule="evenodd"/><path transform="matrix(1,0,0,-1,0,595.276)" d="M128.88 566.236C128.91 567.706 128.37 568.486 127.2 568.546 126.24 568.516 125.7 567.886 125.58 566.626 125.58 566.086 125.73 565.666 125.97 565.306 126.15 565.096 126.39 564.946 126.63 564.826 126.9 564.706 127.14 564.646 127.41 564.646 127.68 564.616 127.98 564.706 128.25 564.826 128.49 564.946 128.7 565.126 128.76 565.306L128.19 565.906C128.13 565.786 128.01 565.696 127.86 565.636 127.71 565.576 127.56 565.546 127.41 565.546 127.23 565.546 127.02 565.576 126.87 565.726 126.78 565.816 126.72 565.876 126.69 565.966 126.63 566.056 126.63 566.146 126.63 566.236H128.88ZM126.57 566.986V567.016C126.6 567.166 126.66 567.316 126.81 567.466 126.93 567.586 127.11 567.646 127.26 567.646 127.38 567.646 127.53 567.586 127.68 567.496 127.8 567.376 127.89 567.226 127.92 567.106V567.076 567.016 566.986H126.57Z" fill-rule="evenodd"/><path transform="matrix(1,0,0,-1,0,595.276)" d="M129.69 564.826V568.456H130.62V568.096C130.71 568.246 130.83 568.366 131.04 568.426 131.22 568.516 131.49 568.546 131.79 568.546V567.556C131.43 567.496 131.16 567.436 130.98 567.316 130.8 567.226 130.71 567.076 130.68 566.926V564.826H129.69Z" fill-rule="evenodd"/><path transform="matrix(1,0,0,-1,0,595.276)" d="M136.14 564.646C137.34 564.646 138 565.186 138 566.176 138 566.746 137.82 567.166 137.52 567.376 137.79 567.646 137.94 568.006 137.94 568.396 137.94 568.876 137.76 569.266 137.43 569.566 137.1 569.836 136.62 569.956 136.05 569.956 135.51 569.956 135.03 569.806 134.67 569.506 134.31 569.206 134.13 568.816 134.13 568.366L135.18 568.276C135.18 568.666 135.51 568.936 135.99 568.966 136.08 568.996 136.17 568.996 136.26 568.966 136.68 568.876 136.89 568.666 136.86 568.396 136.86 568.096 136.71 567.916 136.47 567.826H135.75V566.926H136.47C136.5 566.926 136.56 566.896 136.59 566.866 136.65 566.836 136.71 566.806 136.77 566.746 136.86 566.626 136.92 566.506 136.92 566.386 136.92 565.966 136.68 565.726 136.17 565.696 135.87 565.696 135.63 565.756 135.45 565.876 135.27 565.996 135.18 566.176 135.18 566.386L134.1 566.266C134.13 565.246 134.88 564.646 136.14 564.646Z" fill-rule="evenodd"/><path transform="matrix(1,0,0,-1,0,595.276)" d="M142.11 568.366H143.01V567.526H142.11V565.936C142.11 565.816 142.14 565.726 142.2 565.666 142.26 565.606 142.35 565.546 142.47 565.546 142.53 565.546 142.62 565.546 142.71 565.546 142.8 565.576 142.89 565.606 142.98 565.636L143.16 564.826C142.98 564.676 142.62 564.616 142.11 564.616 141.84 564.616 141.6 564.706 141.42 564.856 141.27 565.006 141.18 565.246 141.15 565.546V567.526H140.55V568.366H141.15V569.506L142.11 569.806V568.366Z" fill-rule="evenodd"/><path transform="matrix(1,0,0,-1,0,595.276)" d="M147.21 566.596C147.21 567.196 147.06 567.706 146.73 568.036 146.43 568.366 145.98 568.546 145.44 568.546 144.33 568.546 143.67 567.826 143.67 566.596 143.67 565.336 144.33 564.646 145.44 564.646 146.58 564.646 147.21 565.336 147.21 566.596ZM146.16 566.596C146.16 565.966 145.92 565.636 145.44 565.636 144.99 565.636 144.72 565.966 144.72 566.596 144.72 567.196 144.99 567.556 145.44 567.556 145.68 567.556 145.86 567.466 145.98 567.286 146.1 567.136 146.16 566.896 146.16 566.596Z" fill-rule="evenodd"/><path transform="matrix(1,0,0,-1,0,595.276)" d="M151.11 564.826V567.256 567.286 567.316 567.346C151.08 568.126 150.6 568.546 149.7 568.546 149.52 568.546 149.37 568.516 149.22 568.456 149.07 568.396 148.95 568.306 148.86 568.186V568.426H147.84V564.826H148.86V567.016 567.046C148.92 567.406 149.16 567.586 149.55 567.646 149.88 567.586 150.06 567.406 150.09 567.046V567.016 566.986 566.956C150.09 566.926 150.09 566.926 150.09 566.896V564.826H151.11Z" fill-rule="evenodd"/><path transform="matrix(1,0,0,-1,0,595.276)" d="M155.28 564.826V567.256 567.286 567.316 567.346C155.28 568.126 154.8 568.546 153.9 568.546 153.72 568.546 153.54 568.516 153.42 568.456 153.27 568.396 153.15 568.306 153.06 568.186V568.426H152.04V564.826H153.06V567.016 567.046C153.12 567.406 153.36 567.586 153.72 567.646 154.08 567.586 154.26 567.406 154.29 567.046V567.016 566.986 566.956C154.29 566.926 154.29 566.926 154.29 566.896V564.826H155.28Z" fill-rule="evenodd"/><path transform="matrix(1,0,0,-1,0,595.276)" d="M159.42 566.236C159.48 567.706 158.91 568.486 157.77 568.546 156.78 568.516 156.24 567.886 156.15 566.626 156.15 566.086 156.27 565.666 156.54 565.306 156.72 565.096 156.93 564.946 157.2 564.826 157.44 564.706 157.71 564.646 157.95 564.646 158.22 564.616 158.55 564.706 158.79 564.826 159.06 564.946 159.24 565.126 159.33 565.306L158.76 565.906H158.73C158.67 565.786 158.55 565.696 158.4 565.636 158.28 565.576 158.1 565.546 157.95 565.546 157.77 565.546 157.56 565.576 157.41 565.726 157.35 565.816 157.29 565.876 157.23 565.966 157.2 566.056 157.17 566.146 157.17 566.236H159.42ZM157.14 566.986V567.016C157.14 567.166 157.23 567.316 157.35 567.466 157.5 567.586 157.65 567.646 157.8 567.646 157.95 567.646 158.1 567.586 158.22 567.496 158.37 567.376 158.43 567.226 158.49 567.106V567.076 567.016 566.986H157.14Z" fill-rule="evenodd"/><path transform="matrix(1,0,0,-1,0,595.276)" d="M163.11 565.906C163.14 566.596 162.75 567.016 161.94 567.136 161.67 567.136 161.49 567.166 161.37 567.226 161.25 567.256 161.19 567.316 161.19 567.406 161.19 567.496 161.22 567.556 161.31 567.616 161.4 567.676 161.52 567.706 161.7 567.736 161.85 567.706 162 567.676 162.15 567.616 162.27 567.556 162.39 567.436 162.48 567.316L163.05 568.006C162.81 568.366 162.36 568.576 161.73 568.606 160.74 568.576 160.2 568.156 160.17 567.316 160.23 566.686 160.59 566.326 161.25 566.236 161.79 566.206 162.06 566.086 162.06 565.846 162.06 565.756 162.03 565.696 161.97 565.636 161.88 565.576 161.79 565.546 161.64 565.546 161.43 565.546 161.25 565.606 161.07 565.696 160.92 565.756 160.74 565.876 160.62 566.026L159.93 565.366C160.32 564.886 160.89 564.646 161.61 564.646 162.54 564.646 163.11 565.096 163.11 565.906Z" fill-rule="evenodd"/><path transform="matrix(1,0,0,-1,0,595.276)" d="M122.28 560.926 121.8 560.416 122.37 560.086 122.79 559.696 123.27 560.206 122.82 560.596Z" fill-rule="evenodd"/><path transform="matrix(1,0,0,-1,0,595.276)" d="M121.86 559.456 121.35 558.946 121.92 558.586 122.43 558.196 122.94 558.676 122.43 559.126Z" fill-rule="evenodd"/><path transform="matrix(1,0,0,-1,0,595.276)" d="M121.41 557.506V556.906H122.46V555.436L121.29 554.416 121.8 553.756 122.64 554.686 122.97 554.266 123.45 553.966 124.02 553.786 124.74 553.726H128.49L128.7 554.446H124.74L124.38 554.416 124.05 554.446 123.78 554.536 123.57 554.656 123.39 554.806 123.24 555.016 123.18 555.256 123.12 555.556V557.506Z" fill-rule="evenodd"/><path transform="matrix(1,0,0,-1,0,595.276)" d="M126.63 560.716 125.85 561.046 125.34 560.476 124.71 559.966 124.02 559.516 123.24 559.126 123.84 558.526 124.35 558.796 124.77 559.126V558.646H127.2V559.096L127.74 558.826 128.25 558.646 128.82 559.336 128.1 559.486 127.47 559.726 126.87 560.056 126.33 560.446 126.63 560.716ZM126.96 559.216H124.95L125.97 560.056 126.96 559.216Z" fill-rule="evenodd"/><path transform="matrix(1,0,0,-1,0,595.276)" d="M123.9 558.196V554.806H124.53V555.826H125.25V555.676 555.556L125.19 555.466 125.07 555.436H124.92 124.71L124.98 554.806H125.13L125.49 554.896 125.73 555.076 125.85 555.346 125.88 555.676V558.196H123.9ZM124.53 556.366V556.756H125.25V556.366H124.53ZM124.53 557.236V557.656H125.25V557.236H124.53Z" fill-rule="evenodd"/><path transform="matrix(1,0,0,-1,0,595.276)" d="M126.33 557.896 126.36 555.886H127.02V557.596L127.14 557.716 127.17 557.776 127.05 557.836 126.84 557.866Z" fill-rule="evenodd"/><path transform="matrix(1,0,0,-1,0,595.276)" d="M127.47 558.316V555.856 555.646L127.41 555.496 127.23 555.376 127.02 555.346H126.72L127.02 554.746H127.26L127.71 554.806 128.04 555.016 128.19 555.316V555.766 557.956L128.34 558.046 128.37 558.136 128.25 558.196 128.01 558.226Z" fill-rule="evenodd"/><path transform="matrix(1,0,0,-1,0,595.276)" d="M131.64 560.326V559.606H137.97V560.326Z" fill-rule="evenodd"/><path transform="matrix(1,0,0,-1,0,595.276)" d="M132.03 557.686V556.936H137.55V557.686Z" fill-rule="evenodd"/><path transform="matrix(1,0,0,-1,0,595.276)" d="M131.16 554.806V554.056H138.36V554.806Z" fill-rule="evenodd"/><path transform="matrix(1,0,0,-1,0,595.276)" d="M143.13 559.726 142.56 559.786 142.35 559.006 141.96 558.316 141.42 557.716 140.73 557.146 141.36 556.666 142.05 557.206 142.59 557.836 143.01 558.556 143.28 559.366 143.49 559.486 143.52 559.576 143.4 559.666Z" fill-rule="evenodd"/><path transform="matrix(1,0,0,-1,0,595.276)" d="M144.36 557.956 143.85 558.196 143.16 556.366 142.44 554.746 141.33 554.686 141.45 553.966 141.54 553.726 141.66 553.636 141.75 553.666 141.84 553.846 146.49 554.416 146.94 553.636 147.66 554.086 147.3 554.776 146.85 555.436 146.37 556.066 145.8 556.696 145.23 556.276 146.16 555.046 143.28 554.806 144.48 557.506 144.66 557.596 144.72 557.686 144.6 557.806Z" fill-rule="evenodd"/><path transform="matrix(1,0,0,-1,0,595.276)" d="M143.37 560.596 143.4 559.936H145.11L145.26 559.126 145.74 558.346 146.49 557.506 147.51 556.666 148.29 557.206 147.75 557.566 147.24 557.956 146.85 558.346 146.49 558.766 146.22 559.186 146.04 559.666 145.92 560.116 145.86 560.596Z" fill-rule="evenodd"/><path transform="matrix(1,0,0,-1,0,595.276)" d="M150.75 559.936V554.836H151.38V555.856H151.83V555.436H152.49V559.936H150.75ZM151.38 556.516V559.306H151.83V556.516H151.38Z" fill-rule="evenodd"/><path transform="matrix(1,0,0,-1,0,595.276)" d="M153.63 560.896V559.516L152.61 559.306 153.09 558.796 153.63 558.946V556.186H153.3V558.016L153.45 558.076V558.136L153.36 558.196 153.15 558.256 152.76 558.316V554.986H153.3V555.586H153.63V554.626L153.6 554.326 153.72 554.086 153.93 553.966 154.29 553.906H154.74L155.07 554.026 155.28 554.206 155.37 554.476V554.806L154.83 555.046V554.776L154.8 554.596 154.71 554.506 154.56 554.476H154.44L154.26 554.506 154.2 554.776V555.586H154.53V555.376H155.07V557.986L155.22 558.076 155.25 558.136 155.13 558.226 154.89 558.286 154.53 558.316V556.186H154.2V559.096L155.01 559.396 155.19 559.366 155.25 559.396V559.486L155.19 559.636 154.8 559.996 154.2 559.726V560.566L154.35 560.686V560.776L154.26 560.836 154.05 560.866Z" fill-rule="evenodd"/><path transform="matrix(1,0,0,-1,0,595.276)" d="M155.22 560.656V560.026H156.3L156 559.336H155.4V555.346H156L155.7 554.536 155.34 553.876 155.91 553.636 156.3 554.326 156.57 555.076 156.12 555.346H157.23L156.84 554.986 157.2 554.326 157.5 553.636 158.01 553.996 157.68 554.686 157.32 555.346H157.8V559.336H156.69L156.99 560.026H158.01V560.656H155.22ZM156.06 557.086V557.596H157.2V557.086H156.06ZM156.06 558.166V558.706H157.2V558.166H156.06ZM156.06 555.916V556.486H157.2V555.916H156.06Z" fill-rule="evenodd"/></g></svg>