<?xml version='1.0' encoding='UTF-8'?>
<svg xmlns="http://www.w3.org/2000/svg" xmlns:xlink="http://www.w3.org/1999/xlink" xmlns:inkscape="http://www.inkscape.org/namespaces/inkscape" version="1.1" width="567.000" height="269.280" viewBox="0 0 567.000 269.280"><g transform="scale(10.0) translate(-111.171, -235.728)"><defs><clipPath id="clip_14"><path transform="matrix(1,0,0,-1,0,595.276)" d="M74.37 .046H767.49V595.276H74.37Z"/></clipPath></defs><path transform="matrix(1,0,0,-1,0,595.276)" d="M166.44 356.926C166.44 357.256 166.32 357.616 166.02 357.886 165.75 358.186 165.39 358.306 165.06 358.306H114.18C113.85 358.306 113.49 358.186 113.22 357.886 112.95 357.616 112.8 357.256 112.8 356.926V334.786C112.8 334.456 112.95 334.096 113.22 333.796 113.49 333.526 113.85 333.406 114.18 333.406H165.06C165.39 333.406 165.75 333.526 166.02 333.796 166.17 333.946 166.26 334.096 166.35 334.276 166.41 334.456 166.44 334.636 166.44 334.786V356.926ZM165.75 356.926V334.786C165.75 334.606 165.69 334.426 165.54 334.306 165.39 334.156 165.21 334.096 165.06 334.096H114.18C114.03 334.096 113.85 334.156 113.7 334.306 113.55 334.426 113.49 334.606 113.49 334.786V356.926C113.49 357.076 113.55 357.256 113.7 357.406 113.85 357.556 114.03 357.616 114.18 357.616H165.06C165.15 357.616 165.21 357.586 165.3 357.556 165.39 357.526 165.48 357.466 165.54 357.406 165.69 357.256 165.75 357.076 165.75 356.926Z" fill-rule="evenodd"/><path transform="matrix(1,0,0,-1,0,595.276)" d="M165.06 357.616H114.18C114.03 357.616 113.85 357.556 113.7 357.406 113.55 357.256 113.49 357.076 113.49 356.926V334.786C113.49 334.606 113.55 334.426 113.7 334.306 113.85 334.156 114.03 334.096 114.18 334.096H165.06C165.21 334.096 165.39 334.156 165.54 334.306 165.69 334.426 165.75 334.606 165.75 334.786V356.926C165.75 357.016 165.72 357.106 165.69 357.166 165.66 357.256 165.6 357.346 165.54 357.406 165.39 357.556 165.21 357.616 165.06 357.616Z" fill="#ffffff" fill-rule="evenodd"/><path transform="matrix(1,0,0,-1,0,595.276)" d="M133.8 345.736C134.13 345.736 134.4 345.856 134.61 346.126 134.82 346.396 134.91 346.756 134.91 347.176 134.91 348.136 134.46 348.736 133.77 348.736 133.5 348.736 133.29 348.676 133.11 348.496V349.756H132.45V345.796H133.14V345.946C133.35 345.796 133.59 345.706 133.8 345.736ZM133.68 346.426C133.38 346.426 133.2 346.576 133.14 346.846V347.656C133.2 347.776 133.29 347.896 133.38 347.956 133.47 348.016 133.56 348.046 133.68 348.046 134.07 348.016 134.25 347.746 134.22 347.206 134.19 346.696 134.01 346.456 133.68 346.426Z" fill-rule="evenodd"/><path transform="matrix(1,0,0,-1,0,595.276)" d="M137.28 348.646H138.06V345.796H137.25V345.946C137.22 345.886 137.16 345.826 137.01 345.796 136.86 345.736 136.71 345.736 136.56 345.736 136.29 345.736 136.02 345.796 135.81 345.976 135.69 346.066 135.6 346.186 135.57 346.306 135.51 346.396 135.48 346.516 135.48 346.636V348.646H136.26V346.906C136.26 346.816 136.32 346.726 136.41 346.606 136.53 346.516 136.65 346.486 136.74 346.486 136.86 346.486 137.01 346.516 137.13 346.636 137.19 346.696 137.22 346.756 137.25 346.816 137.28 346.876 137.28 346.966 137.28 347.026V348.646Z" fill-rule="evenodd"/><path transform="matrix(1,0,0,-1,0,595.276)" d="M141.06 346.696C141.09 347.266 140.79 347.596 140.13 347.686 139.95 347.686 139.8 347.716 139.71 347.746 139.65 347.746 139.62 347.776 139.59 347.806 139.56 347.836 139.56 347.866 139.56 347.896 139.56 348.046 139.68 348.106 139.95 348.136 140.07 348.136 140.19 348.106 140.31 348.046 140.4 347.986 140.49 347.926 140.58 347.806L141.03 348.346C140.82 348.646 140.49 348.796 139.98 348.826 139.2 348.826 138.78 348.466 138.75 347.806 138.81 347.326 139.08 347.056 139.59 346.966 140.01 346.966 140.22 346.846 140.22 346.666 140.25 346.606 140.22 346.546 140.16 346.516 140.1 346.456 140.01 346.456 139.92 346.426 139.77 346.456 139.62 346.486 139.47 346.546 139.35 346.606 139.23 346.696 139.11 346.816L138.57 346.276C138.87 345.916 139.32 345.736 139.89 345.736 140.64 345.736 141.06 346.096 141.06 346.696Z" fill-rule="evenodd"/><path transform="matrix(1,0,0,-1,0,595.276)" d="M144.06 346.996C144.09 348.136 143.64 348.736 142.74 348.766 141.96 348.766 141.54 348.256 141.48 347.266 141.48 346.846 141.57 346.516 141.78 346.246 141.93 346.096 142.11 345.946 142.29 345.856 142.5 345.766 142.68 345.736 142.89 345.736 143.34 345.706 143.82 345.946 143.97 346.246L143.52 346.696C143.46 346.636 143.37 346.546 143.25 346.516 143.13 346.456 143.01 346.426 142.89 346.426 142.74 346.426 142.59 346.456 142.47 346.576 142.41 346.636 142.35 346.696 142.32 346.786 142.29 346.846 142.29 346.906 142.29 346.996H144.06ZM142.23 347.566V347.596C142.26 347.686 142.32 347.836 142.41 347.926 142.53 348.046 142.65 348.076 142.77 348.076 143.01 348.076 143.25 347.896 143.31 347.656V347.626 347.566H142.23Z" fill-rule="evenodd"/><path transform="matrix(1,0,0,-1,0,595.276)" d="M146.91 346.696C146.94 347.266 146.64 347.596 146.01 347.686 145.8 347.686 145.65 347.716 145.56 347.746 145.5 347.746 145.47 347.776 145.44 347.806 145.44 347.836 145.41 347.866 145.41 347.896 145.41 348.046 145.53 348.106 145.8 348.136 145.95 348.136 146.07 348.106 146.16 348.046 146.28 347.986 146.34 347.926 146.43 347.806L146.88 348.346C146.67 348.646 146.34 348.796 145.86 348.826 145.05 348.826 144.66 348.466 144.63 347.806 144.66 347.326 144.96 347.056 145.47 346.966 145.89 346.966 146.1 346.846 146.1 346.666 146.1 346.606 146.07 346.546 146.01 346.516 145.98 346.456 145.89 346.456 145.77 346.426 145.62 346.456 145.47 346.486 145.35 346.546 145.2 346.606 145.08 346.696 144.96 346.816L144.45 346.276C144.75 345.916 145.17 345.736 145.74 345.736 146.49 345.736 146.91 346.096 146.91 346.696Z" fill-rule="evenodd"/><path transform="matrix(1,0,0,-1,0,595.276)" d="M116.34 352.966H117.93V353.746H116.34V354.526H118.08V355.306H115.5V351.406H118.29V352.186H116.34Z" fill-rule="evenodd"/><path transform="matrix(1,0,0,-1,0,595.276)" d="M120.66 354.196H121.47L120.69 352.846 121.59 351.406H120.72L120.24 352.246 119.76 351.406H118.86L119.79 352.846 118.98 354.196H119.82L120.24 353.386Z" fill-rule="evenodd"/><path transform="matrix(1,0,0,-1,0,595.276)" d="M123.33 354.346C123.66 354.346 123.9 354.256 124.11 354.136 124.32 353.986 124.5 353.746 124.59 353.476L123.96 353.176C123.84 353.476 123.63 353.626 123.36 353.626 123.03 353.596 122.82 353.386 122.73 352.996 122.73 352.906 122.73 352.876 122.73 352.816 122.73 352.756 122.73 352.666 122.76 352.636V352.606C122.85 352.216 123.06 352.006 123.39 352.006 123.51 351.976 123.63 352.006 123.75 352.096 123.84 352.186 123.9 352.306 123.96 352.486L124.62 352.216C124.44 351.556 124.02 351.256 123.39 351.286 122.49 351.316 122.01 351.826 121.98 352.816 122.07 353.806 122.52 354.316 123.33 354.346Z" fill-rule="evenodd"/><path transform="matrix(1,0,0,-1,0,595.276)" d="M127.53 352.546C127.56 353.686 127.14 354.286 126.24 354.346 125.46 354.316 125.04 353.806 124.95 352.816 124.95 352.426 125.07 352.066 125.28 351.796 125.4 351.646 125.58 351.496 125.79 351.406 125.97 351.316 126.18 351.286 126.39 351.286 126.84 351.256 127.32 351.496 127.47 351.796L126.99 352.246C126.96 352.186 126.87 352.126 126.75 352.066 126.63 352.006 126.51 352.006 126.39 351.976 126.24 351.976 126.09 352.006 125.97 352.126 125.91 352.186 125.85 352.246 125.82 352.336 125.79 352.396 125.76 352.456 125.76 352.546H127.53ZM125.73 353.116V353.146C125.76 353.266 125.79 353.386 125.91 353.476 126.03 353.596 126.15 353.626 126.27 353.656 126.48 353.626 126.72 353.446 126.78 353.206V353.176 353.146 353.116H125.73Z" fill-rule="evenodd"/><path transform="matrix(1,0,0,-1,0,595.276)" d="M130.86 352.846C130.86 353.776 130.38 354.346 129.57 354.346 129.42 354.346 129.24 354.316 129.12 354.286 128.97 354.226 128.88 354.166 128.88 354.136H128.85V354.256H128.16V350.446H128.91V351.526C128.97 351.376 129.3 351.256 129.6 351.286 129.96 351.286 130.29 351.436 130.53 351.706 130.74 351.976 130.86 352.366 130.86 352.846ZM129.48 352.006C129.36 352.006 129.21 352.066 129.09 352.156 129.03 352.216 129 352.276 128.97 352.336 128.94 352.396 128.91 352.456 128.91 352.486V353.236C128.91 353.416 129.18 353.626 129.45 353.656H129.48 129.51C129.57 353.656 129.69 353.626 129.81 353.566 129.93 353.506 130.02 353.386 130.08 353.296V353.266 353.146 353.116 352.546 352.516 352.426 352.396C130.05 352.306 129.93 352.186 129.81 352.096 129.69 352.036 129.57 352.006 129.48 352.006Z" fill-rule="evenodd"/><path transform="matrix(1,0,0,-1,0,595.276)" d="M132.48 354.196H133.17V353.536H132.48V352.306C132.48 352.216 132.48 352.126 132.54 352.066 132.6 352.036 132.66 352.006 132.75 351.976 132.81 351.976 132.87 351.976 132.93 352.006 132.99 352.006 133.08 352.036 133.17 352.066L133.29 351.406C133.14 351.316 132.87 351.256 132.48 351.256 132.24 351.256 132.06 351.316 131.94 351.436 131.82 351.556 131.73 351.736 131.7 351.976V353.536H131.25V354.196H131.7V355.096L132.48 355.336V354.196Z" fill-rule="evenodd"/><path transform="matrix(1,0,0,-1,0,595.276)" d="M137.91 352.846C137.91 353.776 137.43 354.346 136.59 354.346 136.47 354.346 136.29 354.316 136.17 354.286 136.02 354.226 135.93 354.166 135.9 354.136V354.256H135.18V350.446H135.96V351.526C136.02 351.376 136.35 351.256 136.65 351.286 136.98 351.286 137.31 351.406 137.55 351.706 137.82 352.006 137.91 352.396 137.91 352.846ZM136.53 352.006C136.41 352.006 136.26 352.066 136.14 352.156 136.02 352.276 135.96 352.396 135.96 352.486V353.236C135.96 353.416 136.23 353.626 136.5 353.656H136.53C136.62 353.656 136.74 353.626 136.86 353.566 136.98 353.506 137.07 353.386 137.13 353.296V353.266 353.146 353.116 352.546 352.516 352.426 352.396C137.1 352.306 136.98 352.186 136.86 352.096 136.74 352.036 136.62 352.006 136.53 352.006Z" fill-rule="evenodd"/><path transform="matrix(1,0,0,-1,0,595.276)" d="M140.34 354.196H141.12V351.346H140.31V351.496C140.28 351.436 140.22 351.406 140.07 351.346 139.95 351.286 139.77 351.286 139.62 351.286 139.35 351.286 139.08 351.346 138.87 351.526 138.75 351.616 138.69 351.736 138.63 351.856 138.57 351.946 138.54 352.066 138.54 352.186V354.196H139.32V352.456C139.32 352.366 139.38 352.276 139.47 352.156 139.59 352.066 139.71 352.036 139.8 352.036 139.92 352.036 140.07 352.066 140.19 352.186 140.25 352.246 140.28 352.306 140.31 352.366 140.34 352.426 140.34 352.516 140.34 352.576V354.196Z" fill-rule="evenodd"/><path transform="matrix(1,0,0,-1,0,595.276)" d="M143.19 351.286C143.85 351.286 144.3 351.856 144.3 352.726 144.3 353.176 144.21 353.596 144 353.866 143.76 354.166 143.49 354.286 143.13 354.286 142.89 354.316 142.68 354.226 142.5 354.046V355.306H141.84V351.346H142.53V351.496C142.74 351.346 142.95 351.256 143.19 351.286ZM143.07 351.976C142.77 352.006 142.59 352.126 142.53 352.396V353.206C142.59 353.356 142.68 353.446 142.77 353.506 142.86 353.566 142.95 353.596 143.04 353.596 143.43 353.566 143.64 353.296 143.61 352.756 143.58 352.246 143.4 352.006 143.07 351.976Z" fill-rule="evenodd"/><path transform="matrix(1,0,0,-1,0,595.276)" d="M145.56 355.306V352.246 352.156 352.126C145.59 352.066 145.74 352.036 146.04 352.096L146.13 351.406 146.1 351.376C146.07 351.376 146.01 351.376 145.95 351.376 145.83 351.346 145.68 351.346 145.56 351.346 145.17 351.346 144.87 351.526 144.81 351.826 144.78 351.886 144.78 351.916 144.78 351.946 144.78 351.976 144.78 352.006 144.78 352.006V352.036 355.306H145.56Z" fill-rule="evenodd"/><path transform="matrix(1,0,0,-1,0,595.276)" d="M147.39 351.406V354.196H146.67V351.406Z" fill-rule="evenodd"/><path transform="matrix(1,0,0,-1,0,595.276)" d="M147.48 354.916C147.48 355.186 147.27 355.366 147.03 355.366 146.79 355.366 146.58 355.186 146.58 354.916 146.58 354.676 146.79 354.496 147.03 354.496 147.27 354.496 147.48 354.676 147.48 354.916Z" fill-rule="evenodd"/><path transform="matrix(1,0,0,-1,0,595.276)" d="M149.37 354.346C149.7 354.346 149.97 354.256 150.18 354.136 150.39 353.986 150.54 353.746 150.63 353.476L150 353.176C149.88 353.476 149.67 353.626 149.4 353.626 149.07 353.596 148.86 353.386 148.77 352.996 148.77 352.906 148.77 352.876 148.77 352.816 148.77 352.756 148.8 352.666 148.8 352.636V352.606C148.89 352.216 149.1 352.006 149.43 352.006 149.58 351.976 149.7 352.006 149.79 352.096 149.88 352.186 149.97 352.306 150 352.486L150.66 352.216C150.48 351.556 150.09 351.256 149.43 351.286 148.53 351.316 148.05 351.826 148.02 352.816 148.11 353.806 148.56 354.316 149.37 354.346Z" fill-rule="evenodd"/><path transform="matrix(1,0,0,-1,0,595.276)" d="M153.21 355.306V352.246 352.156 352.126C153.24 352.066 153.42 352.036 153.72 352.096L153.81 351.406C153.81 351.406 153.78 351.406 153.75 351.376 153.72 351.376 153.69 351.376 153.63 351.376 153.48 351.346 153.33 351.346 153.21 351.346 152.82 351.346 152.52 351.526 152.46 351.826 152.46 351.886 152.46 351.916 152.46 351.946 152.46 351.976 152.46 352.006 152.46 352.006V352.036 355.306H153.21Z" fill-rule="evenodd"/><path transform="matrix(1,0,0,-1,0,595.276)" d="M155.07 351.406V354.196H154.35V351.406Z" fill-rule="evenodd"/><path transform="matrix(1,0,0,-1,0,595.276)" d="M155.13 354.916C155.13 355.186 154.95 355.366 154.71 355.366 154.44 355.366 154.26 355.186 154.26 354.916 154.26 354.676 154.44 354.496 154.71 354.496 154.95 354.496 155.13 354.676 155.13 354.916Z" fill-rule="evenodd"/><path transform="matrix(1,0,0,-1,0,595.276)" d="M158.28 351.286V354.196H157.53V354.106C157.53 354.226 157.23 354.346 156.9 354.346 156.09 354.286 155.67 353.776 155.67 352.816 155.76 351.946 156.15 351.526 156.9 351.496 157.02 351.496 157.14 351.496 157.26 351.556 157.38 351.586 157.47 351.646 157.47 351.706V351.526C157.44 351.286 157.32 351.136 157.08 351.106 156.96 351.106 156.81 351.106 156.63 351.166 156.45 351.226 156.24 351.316 156.03 351.406L155.67 350.776C155.97 350.566 156.51 350.386 156.99 350.356 157.77 350.356 158.25 350.686 158.28 351.286ZM157.47 353.176V352.546C157.47 352.456 157.41 352.366 157.35 352.306 157.26 352.216 157.17 352.186 157.05 352.156 156.69 352.186 156.45 352.426 156.45 352.876 156.45 353.296 156.66 353.536 156.99 353.566 157.29 353.536 157.47 353.416 157.47 353.176Z" fill-rule="evenodd"/><path transform="matrix(1,0,0,-1,0,595.276)" d="M159.75 354.106C160.08 354.346 160.53 354.406 160.92 354.226 161.07 354.136 161.25 354.016 161.37 353.836 161.46 353.656 161.52 353.446 161.52 353.236V351.406H160.74V353.086C160.74 353.206 160.71 353.326 160.62 353.446 160.5 353.536 160.38 353.566 160.26 353.566 160.14 353.566 160.02 353.536 159.93 353.446 159.87 353.386 159.84 353.326 159.81 353.266 159.78 353.206 159.78 353.146 159.78 353.086V351.406H159V355.306H159.75V354.106Z" fill-rule="evenodd"/><path transform="matrix(1,0,0,-1,0,595.276)" d="M163.35 354.196H164.04V353.536H163.35V352.306C163.35 352.216 163.35 352.126 163.41 352.066 163.47 352.036 163.53 352.006 163.62 351.976 163.68 351.976 163.74 351.976 163.8 352.006 163.86 352.006 163.95 352.036 164.04 352.066L164.16 351.406C164.01 351.316 163.74 351.256 163.35 351.256 163.11 351.256 162.93 351.316 162.81 351.436 162.69 351.556 162.6 351.736 162.57 351.976V353.536H162.12V354.196H162.57V355.096L163.35 355.336V354.196Z" fill-rule="evenodd"/><path transform="matrix(1,0,0,-1,0,595.276)" d="M119.49 341.866 119.04 341.896 118.86 341.296 118.56 340.756 118.14 340.276 117.6 339.856 118.11 339.466 118.62 339.886 119.07 340.396 119.37 340.936 119.61 341.566 119.76 341.656 119.79 341.746 119.7 341.806Z" fill-rule="evenodd"/><path transform="matrix(1,0,0,-1,0,595.276)" d="M120.45 340.456 120.03 340.666 119.52 339.226 118.92 337.966 118.08 337.906 118.17 337.336 118.23 337.156 118.32 337.096 118.38 337.126 118.47 337.246 122.13 337.696 122.46 337.096 123.03 337.456 122.73 337.966 122.4 338.506 122.01 338.986 121.56 339.496 121.11 339.166 121.86 338.206 119.61 337.996 120.54 340.126 120.69 340.186 120.72 340.276 120.63 340.366Z" fill-rule="evenodd"/><path transform="matrix(1,0,0,-1,0,595.276)" d="M119.67 342.556 119.7 342.016H121.02L121.17 341.416 121.53 340.756 122.1 340.126 122.91 339.466 123.51 339.886 123.09 340.156 122.7 340.456 122.37 340.786 122.13 341.116 121.92 341.446 121.74 341.806 121.65 342.166 121.62 342.556Z" fill-rule="evenodd"/><path transform="matrix(1,0,0,-1,0,595.276)" d="M125.79 340.846H126.87V339.586H125.46V339.016H131.01V339.586H129.57V340.846H130.68V341.416H129.57V342.496L129.69 342.586 129.72 342.646 129.66 342.706 129.48 342.736 128.94 342.766V341.416H127.47V342.466L127.59 342.556V342.646L127.53 342.706 127.38 342.736 126.87 342.766V341.416H125.79V340.846ZM127.47 339.586V340.846H128.94V339.586H127.47Z" fill-rule="evenodd"/><path transform="matrix(1,0,0,-1,0,595.276)" d="M125.43 337.486 125.88 337.006 126.42 337.336 126.87 337.666 127.23 337.996 127.5 338.386 127.65 338.416 127.71 338.476 127.68 338.566 127.53 338.656 127.08 338.896 126.78 338.446 126.39 338.086 125.94 337.756Z" fill-rule="evenodd"/><path transform="matrix(1,0,0,-1,0,595.276)" d="M129.33 338.896 128.85 338.536 129.6 337.726 130.5 337.006 131.1 337.426 130.59 337.756 130.11 338.116 129.72 338.476Z" fill-rule="evenodd"/><path transform="matrix(1,0,0,-1,0,595.276)" d="M132.93 338.926 133.59 338.596 134.16 339.766 134.67 340.936 134.79 341.026V341.086L134.73 341.176 134.55 341.266 134.13 341.476 133.86 340.726 133.59 340.066 133.26 339.466Z" fill-rule="evenodd"/><path transform="matrix(1,0,0,-1,0,595.276)" d="M135.99 342.736 135.57 342.796V338.026 337.876L135.51 337.756 135.42 337.726H135.27 134.79L135.06 337.126H135.45 135.78L136.02 337.276 136.14 337.516 136.17 337.906V342.436L136.32 342.556V342.616L136.2 342.676Z" fill-rule="evenodd"/><path transform="matrix(1,0,0,-1,0,595.276)" d="M138.18 338.626 138.87 338.926 138.48 339.466 138.12 340.066 137.85 340.726 137.64 341.446 137.07 341.356 137.28 340.606 137.52 339.886 137.82 339.226Z" fill-rule="evenodd"/><path transform="matrix(1,0,0,-1,0,595.276)" d="M140.88 342.556V337.876L140.91 337.576 141.03 337.336 141.27 337.216 141.57 337.186H145.11L145.38 337.216 145.62 337.276 145.83 337.366 146.01 337.516 146.13 337.696 146.22 337.936 146.31 338.206 146.34 338.536 145.74 338.716 145.68 338.296 145.53 337.996 145.29 337.816 144.99 337.756H141.84 141.69L141.6 337.846 141.54 337.936V338.086 340.006H145.02V339.676H145.62V342.556H140.88ZM141.54 340.606V341.986H142.89V340.606H141.54ZM143.49 340.606V341.986H145.02V340.606H143.49Z" fill-rule="evenodd"/><path transform="matrix(1,0,0,-1,0,595.276)" d="M148.17 340.246 148.62 339.856 148.95 340.336V337.126H149.52V341.386L150 342.406V341.926H150.57L150.45 341.116 150.27 340.426 150.03 339.826 149.7 339.286 150.21 338.896 150.45 339.346 151.08 338.926 150.81 338.536 150.48 338.206 150.12 337.936 149.7 337.726 150.09 337.276 150.57 337.516 150.99 337.816 151.32 338.176 151.62 338.626 151.83 339.106 151.95 339.676 152.04 340.336V341.026H150.99L151.14 341.926H152.1V342.436H150.09L150.12 342.526 150 342.556 149.52 342.826 149.25 342.106 148.92 341.416 148.56 340.816 148.17 340.246ZM150.87 340.516H151.5L151.32 339.466 150.63 339.826 150.87 340.516Z" fill-rule="evenodd"/><path transform="matrix(1,0,0,-1,0,595.276)" d="M152.37 342.016V338.326H152.94V341.776L153 341.866 152.91 341.986Z" fill-rule="evenodd"/><path transform="matrix(1,0,0,-1,0,595.276)" d="M153.42 342.766V338.146L153.39 337.936 153.33 337.756 153.21 337.666H153.06 152.52L152.76 337.096 153.45 337.156 153.66 337.246 153.84 337.396 153.93 337.606 153.96 337.906V342.436L154.05 342.526 154.08 342.586 154.05 342.646 153.96 342.706Z" fill-rule="evenodd"/><path transform="matrix(1,0,0,-1,0,595.276)" d="M157.71 342.736 157.32 342.796 157.17 341.986 156.9 341.236 156.48 340.546 155.97 339.946 156.48 339.466 157.08 340.306 157.5 341.146H158.43L158.28 340.396 158.07 339.736 157.38 340.216 156.96 339.796 157.41 339.496 157.83 339.166 157.56 338.686 157.14 338.296 156.63 337.966 156.03 337.696 156.48 337.156 156.96 337.336 157.38 337.606 157.8 337.996 158.16 338.506 158.49 339.076 158.76 339.796 159 340.576 159.21 341.476 158.79 341.836 158.61 341.686H157.68L157.86 342.406 158.04 342.526 158.07 342.616 157.95 342.676Z" fill-rule="evenodd"/><path transform="matrix(1,0,0,-1,0,595.276)" d="M160.32 342.736 159.96 342.766V340.336L159.57 340.786 159.18 340.486 159.57 339.976 159.96 339.556V337.066H160.59V339.076L161.4 338.596 161.91 339.226 161.16 339.496 160.59 339.886V342.466L160.74 342.556V342.646L160.59 342.706Z" fill-rule="evenodd"/></g></svg>