<?xml version='1.0' encoding='UTF-8'?>
<svg xmlns="http://www.w3.org/2000/svg" xmlns:xlink="http://www.w3.org/1999/xlink" xmlns:inkscape="http://www.inkscape.org/namespaces/inkscape" version="1.1" width="567.000" height="269.280" viewBox="0 0 567.000 269.280"><g transform="scale(10.0) translate(-547.707, -154.944)"><defs><clipPath id="clip_14"><path transform="matrix(1,0,0,-1,0,595.276)" d="M74.37 .046H767.49V595.276H74.37Z"/></clipPath></defs><path transform="matrix(1,0,0,-1,0,595.276)" d="M563.67 437.776V415.486C563.67 415.336 563.7 415.186 563.76 415.006 563.82 414.856 563.94 414.706 564.06 414.586 564.18 414.466 564.33 414.346 564.48 414.286 564.66 414.226 564.81 414.196 564.96 414.196H587.25C587.55 414.196 587.91 414.316 588.15 414.586 588.42 414.856 588.54 415.186 588.54 415.486V437.776C588.54 438.076 588.42 438.436 588.15 438.676 588.03 438.826 587.88 438.916 587.73 438.976 587.55 439.036 587.4 439.066 587.25 439.066H564.96C564.66 439.066 564.33 438.946 564.06 438.676 563.94 438.556 563.82 438.406 563.76 438.256 563.7 438.076 563.67 437.926 563.67 437.776ZM587.25 414.856H564.96C564.81 414.856 564.63 414.916 564.51 415.036 564.45 415.096 564.39 415.186 564.36 415.246 564.33 415.336 564.33 415.426 564.33 415.486V437.776C564.33 437.926 564.39 438.106 564.51 438.226 564.57 438.286 564.66 438.346 564.72 438.376 564.81 438.406 564.9 438.406 564.96 438.406H587.25C587.4 438.406 587.58 438.346 587.7 438.226 587.76 438.166 587.82 438.076 587.85 438.016 587.88 437.926 587.88 437.836 587.88 437.776V415.486C587.88 415.126 587.61 414.856 587.25 414.856Z" fill-rule="evenodd"/><path transform="matrix(1,0,0,-1,0,595.276)" d="M564.96 414.856H587.25C587.31 414.856 587.4 414.856 587.49 414.886 587.58 414.916 587.64 414.976 587.7 415.036 587.76 415.096 587.82 415.186 587.85 415.246 587.88 415.336 587.88 415.426 587.88 415.486V437.776C587.88 437.926 587.85 438.106 587.7 438.226 587.64 438.286 587.58 438.346 587.49 438.376 587.4 438.406 587.31 438.406 587.25 438.406H564.96C564.81 438.406 564.63 438.346 564.51 438.226 564.45 438.166 564.39 438.076 564.36 438.016 564.33 437.926 564.33 437.836 564.33 437.776V415.486C564.33 415.336 564.39 415.156 564.51 415.036 564.63 414.916 564.81 414.856 564.96 414.856Z" fill="#ffffff" fill-rule="evenodd"/><path transform="matrix(1,0,0,-1,0,595.276)" d="M566.49 434.536H567.69V435.166H566.49V435.826H567.81V436.456H565.8V433.306H566.49Z" fill-rule="evenodd"/><path transform="matrix(1,0,0,-1,0,595.276)" d="M570.42 434.446C570.42 434.806 570.33 435.136 570.12 435.346 569.94 435.556 569.64 435.676 569.31 435.676 568.95 435.676 568.68 435.556 568.47 435.346 568.29 435.136 568.2 434.836 568.2 434.446 568.2 434.056 568.29 433.756 568.47 433.516 568.68 433.306 568.95 433.216 569.31 433.216 570.03 433.216 570.42 433.666 570.42 434.446ZM569.76 434.446C569.76 434.266 569.73 434.086 569.64 433.996 569.55 433.876 569.46 433.846 569.31 433.846 569.01 433.846 568.86 434.056 568.86 434.446 568.86 434.836 569.01 435.046 569.31 435.046 569.61 435.046 569.76 434.836 569.76 434.446Z" fill-rule="evenodd"/><path transform="matrix(1,0,0,-1,0,595.276)" d="M570.87 433.306V435.616H571.47V435.376C571.53 435.496 571.62 435.556 571.74 435.616 571.86 435.646 572.01 435.676 572.22 435.676V435.046C571.98 435.016 571.83 434.986 571.71 434.896 571.59 434.836 571.53 434.746 571.5 434.656V433.306H570.87Z" fill-rule="evenodd"/><path transform="matrix(1,0,0,-1,0,595.276)" d="M574.86 436.456V433.306H574.23V435.556H573.75V436.126C573.93 436.126 574.05 436.156 574.14 436.216 574.23 436.276 574.26 436.336 574.26 436.456H574.86Z" fill-rule="evenodd"/><path transform="matrix(1,0,0,-1,0,595.276)" d="M578.4 434.896C578.4 435.436 578.31 435.856 578.07 436.156 577.83 436.426 577.5 436.576 577.02 436.576 576.12 436.576 575.67 436.006 575.67 434.896 575.67 434.326 575.76 433.906 576 433.636 576.24 433.336 576.57 433.216 577.02 433.216 577.5 433.216 577.83 433.336 578.07 433.636 578.31 433.906 578.4 434.326 578.4 434.896ZM577.74 434.896C577.74 434.176 577.5 433.816 577.02 433.816 576.57 433.816 576.33 434.176 576.33 434.896 576.33 435.256 576.39 435.526 576.51 435.706 576.63 435.856 576.81 435.946 577.02 435.946 577.5 435.946 577.74 435.586 577.74 434.896Z" fill-rule="evenodd"/><path transform="matrix(1,0,0,-1,0,595.276)" d="M581.64 434.896C581.64 435.436 581.52 435.856 581.31 436.156 581.07 436.426 580.71 436.576 580.26 436.576 579.36 436.576 578.88 436.006 578.88 434.896 578.88 434.326 579 433.906 579.24 433.636 579.45 433.336 579.81 433.216 580.26 433.216 580.71 433.216 581.07 433.336 581.31 433.636 581.52 433.906 581.64 434.326 581.64 434.896ZM580.98 434.896C580.98 434.176 580.74 433.816 580.26 433.816 579.81 433.816 579.57 434.176 579.57 434.896 579.57 435.256 579.63 435.526 579.75 435.706 579.87 435.856 580.02 435.946 580.26 435.946 580.74 435.946 580.98 435.586 580.98 434.896Z" fill-rule="evenodd"/><path transform="matrix(1,0,0,-1,0,595.276)" d="M585.6 435.046C585.42 435.046 585.21 434.896 585.21 434.746V434.716 433.306H584.58V434.866C584.58 434.986 584.46 435.046 584.28 435.046 584.1 435.046 583.89 434.896 583.89 434.746V434.716 433.306H583.26V435.586H583.89V435.496C583.95 435.556 584.04 435.586 584.13 435.616 584.22 435.646 584.31 435.676 584.4 435.676 584.7 435.676 584.91 435.556 585.03 435.376 585.18 435.556 585.39 435.676 585.66 435.676 586.08 435.646 586.35 435.466 586.5 435.136 586.5 435.106 586.5 435.076 586.5 435.046 586.53 435.016 586.53 434.986 586.53 434.956V433.306H585.9V434.866C585.9 434.896 585.9 434.956 585.84 434.986 585.78 435.046 585.69 435.046 585.6 435.046Z" fill-rule="evenodd"/><path transform="matrix(1,0,0,-1,0,595.276)" d="M566.7 420.466V419.956H571.77V420.466Z" fill-rule="evenodd"/><path transform="matrix(1,0,0,-1,0,595.276)" d="M573.66 421.876H575.79L575.46 421.156H574.2V417.556H574.77V417.826H577.41V417.556H577.95V421.156H576.09L576.36 421.876H578.52V422.386H573.66V421.876ZM574.77 419.776V420.706H577.41V419.776H574.77ZM574.77 418.336V419.296H577.41V418.336H574.77Z" fill-rule="evenodd"/><path transform="matrix(1,0,0,-1,0,595.276)" d="M581.25 422.026 580.86 421.726 581.34 421.306 581.73 420.796 582.21 421.126 581.76 421.606Z" fill-rule="evenodd"/><path transform="matrix(1,0,0,-1,0,595.276)" d="M580.38 420.136H582.42L582.03 419.626 581.55 419.146 580.98 418.696 580.35 418.336 580.83 417.886 581.43 418.366 581.97 418.816 582.36 419.266 582.66 419.686V417.466H583.23V419.746L583.65 419.176 584.1 418.666 584.55 418.246 585 417.916 585.51 418.396 584.91 418.726 584.37 419.146 583.89 419.626 583.47 420.136H585.48V420.676H583.23V422.326L583.32 422.416 583.35 422.506 583.26 422.536 583.11 422.566 582.66 422.596V420.676H580.38Z" fill-rule="evenodd"/><path transform="matrix(1,0,0,-1,0,595.276)" d="M583.68 421.096 584.19 420.826 584.94 421.606 585 421.726 584.97 421.816 584.49 422.026 584.13 421.516Z" fill-rule="evenodd"/><path transform="matrix(1,0,0,-1,0,595.276)" d="M570.03 426.376 570.15 425.926 570.18 425.806 570.24 425.746 570.3 425.776 570.36 425.866 572.82 426.286V426.766L572.07 426.676V428.236H572.82V428.746H572.07V430.246L572.16 430.336V430.396L572.1 430.426 571.98 430.456 571.56 430.486V426.616L571.02 426.526V428.986L571.08 429.076 571.11 429.136 571.05 429.166 570.96 429.196 570.48 429.256V426.466Z" fill-rule="evenodd"/><path transform="matrix(1,0,0,-1,0,595.276)" d="M573.18 430.546V426.436L573.21 426.166 573.33 425.986 573.57 425.836 573.87 425.806H574.5L574.83 425.866 575.07 426.076 575.22 426.406 575.28 426.886 574.8 427.126 574.74 426.766 574.62 426.526 574.47 426.376 574.29 426.346H573.96L573.81 426.376 573.72 426.436 573.69 426.586V426.766 428.236L574.38 428.596 575.01 428.866 575.13 428.926 575.19 428.986 575.16 429.046 575.1 429.136 574.74 429.466 573.69 428.776V430.156L573.84 430.306 573.87 430.396 573.81 430.456 573.63 430.516Z" fill-rule="evenodd"/><path transform="matrix(1,0,0,-1,0,595.276)" d="M577.35 430.396V426.886L576.87 426.826 576.96 426.376 577.02 426.256 577.05 426.196 577.11 426.226 577.17 426.316 577.38 426.346V425.566H577.92V426.466L579.18 426.676V427.156L577.92 426.946V427.636H579V428.116H577.92V428.716H579V429.196H577.92V429.796L578.91 430.096 579.09 430.126 579.15 430.186V430.246L579.09 430.336 578.73 430.696 578.31 430.426 577.71 430.246Z" fill-rule="evenodd"/><path transform="matrix(1,0,0,-1,0,595.276)" d="M579.75 430.456V430.426 429.886L579.63 429.466 579.42 429.136 579.12 428.926 579.45 428.536 579.75 428.806 579.99 429.136 580.14 429.526 580.17 429.976H580.77V429.226L580.8 428.956 580.86 428.776 581.01 428.656 581.19 428.626H581.7L581.91 428.686 582.06 428.836 582.15 429.106 582.18 429.466 581.67 429.586V429.316L581.64 429.136 581.55 429.046 581.43 429.016 581.28 429.076 581.25 429.256V430.456Z" fill-rule="evenodd"/><path transform="matrix(1,0,0,-1,0,595.276)" d="M579.33 428.296V427.786H579.57L579.66 427.426 579.78 427.096 579.99 426.796 580.2 426.526 579.9 426.346 579.6 426.196 579.3 426.106 579 426.076 579.36 425.596 580.02 425.806 580.59 426.136 581.16 425.806 581.7 425.566 582.15 426.076 581.55 426.226 581.01 426.496 581.49 427.216 581.88 428.056 581.46 428.386 581.34 428.296H579.33ZM580.05 427.756V427.786H581.13L580.98 427.426 580.59 426.826 580.41 427.036 580.26 427.246 580.14 427.486 580.05 427.756Z" fill-rule="evenodd"/></g></svg>