<?xml version='1.0' encoding='UTF-8'?>
<svg xmlns="http://www.w3.org/2000/svg" xmlns:xlink="http://www.w3.org/1999/xlink" xmlns:inkscape="http://www.inkscape.org/namespaces/inkscape" version="1.1" width="567.000" height="269.280" viewBox="0 0 567.000 269.280"><g transform="scale(10.0) translate(-329.439, -289.584)"><defs><clipPath id="clip_14"><path transform="matrix(1,0,0,-1,0,595.276)" d="M74.37 .046H767.49V595.276H74.37Z"/></clipPath></defs><path transform="matrix(1,0,0,-1,0,595.276)" d="M374.61 304.456C374.97 304.456 375.33 304.306 375.63 304.036 375.78 303.886 375.9 303.706 375.96 303.526 376.02 303.346 376.05 303.166 376.05 302.986V280.996C376.05 280.666 375.93 280.276 375.63 279.976 375.33 279.676 374.97 279.556 374.61 279.556H341.13C340.77 279.556 340.41 279.676 340.11 279.976 339.81 280.276 339.66 280.666 339.66 280.996V302.986C339.66 303.346 339.81 303.736 340.11 304.036 340.41 304.306 340.77 304.456 341.13 304.456H374.61ZM374.61 303.736H341.13C341.04 303.736 340.95 303.706 340.86 303.676 340.77 303.646 340.68 303.586 340.62 303.496 340.47 303.376 340.41 303.166 340.41 302.986V280.996C340.41 280.846 340.47 280.636 340.62 280.486 340.77 280.336 340.95 280.276 341.13 280.276H374.61C374.7 280.276 374.79 280.306 374.88 280.336 374.97 280.366 375.06 280.426 375.12 280.486 375.27 280.636 375.33 280.846 375.33 280.996V302.986C375.33 303.076 375.33 303.166 375.27 303.256 375.24 303.346 375.18 303.436 375.12 303.496 374.97 303.646 374.79 303.736 374.61 303.736Z" fill-rule="evenodd"/><path transform="matrix(1,0,0,-1,0,595.276)" d="M341.13 303.736H374.61C374.7 303.736 374.79 303.706 374.88 303.676 374.97 303.646 375.06 303.586 375.12 303.496 375.18 303.436 375.24 303.346 375.27 303.256 375.33 303.166 375.33 303.076 375.33 302.986V280.996C375.33 280.846 375.27 280.636 375.12 280.486 374.97 280.336 374.79 280.276 374.61 280.276H341.13C340.95 280.276 340.77 280.336 340.62 280.486 340.47 280.636 340.41 280.846 340.41 280.996V302.986C340.41 303.166 340.47 303.376 340.62 303.496 340.77 303.646 340.95 303.736 341.13 303.736Z" fill="#ffffff" fill-rule="evenodd"/><path transform="matrix(1,0,0,-1,0,595.276)" d="M354.21 300.916H355.35V301.756H352.26V300.916H353.37V297.736H354.21Z" fill-rule="evenodd"/><path transform="matrix(1,0,0,-1,0,595.276)" d="M355.35 297.736V300.676H356.1V300.376C356.19 300.496 356.28 300.616 356.46 300.676 356.61 300.736 356.82 300.766 357.06 300.736V299.926C356.79 299.896 356.55 299.836 356.4 299.776 356.25 299.686 356.16 299.566 356.16 299.416V297.736H355.35Z" fill-rule="evenodd"/><path transform="matrix(1,0,0,-1,0,595.276)" d="M360.18 298.876C360.21 300.076 359.76 300.706 358.83 300.736 358.02 300.736 357.6 300.196 357.51 299.176 357.51 298.756 357.6 298.396 357.81 298.126 357.96 297.946 358.17 297.826 358.35 297.736 358.56 297.646 358.77 297.586 358.98 297.586 359.19 297.586 359.46 297.616 359.67 297.736 359.88 297.826 360.03 297.976 360.09 298.126L359.61 298.606C359.55 298.516 359.46 298.456 359.34 298.396 359.22 298.336 359.1 298.336 358.98 298.306 358.83 298.306 358.65 298.366 358.53 298.456 358.47 298.516 358.41 298.606 358.38 298.666 358.35 298.726 358.35 298.816 358.35 298.876H360.18ZM358.32 299.476V299.506C358.32 299.626 358.38 299.746 358.5 299.866 358.59 299.986 358.74 300.016 358.86 300.016 359.1 300.016 359.34 299.806 359.4 299.566V299.506 299.476H358.32Z" fill-rule="evenodd"/><path transform="matrix(1,0,0,-1,0,595.276)" d="M363.36 298.876C363.39 300.076 362.94 300.706 361.98 300.736 361.2 300.736 360.75 300.196 360.69 299.176 360.69 298.756 360.78 298.396 360.99 298.126 361.14 297.946 361.35 297.826 361.53 297.736 361.74 297.646 361.95 297.586 362.16 297.586 362.37 297.586 362.64 297.616 362.85 297.736 363.06 297.826 363.21 297.976 363.27 298.126L362.79 298.606C362.73 298.516 362.64 298.456 362.52 298.396 362.4 298.336 362.28 298.336 362.16 298.306 362.01 298.306 361.83 298.366 361.71 298.456 361.65 298.516 361.59 298.606 361.56 298.666 361.53 298.726 361.53 298.816 361.53 298.876H363.36ZM361.5 299.476V299.506C361.5 299.626 361.56 299.746 361.68 299.866 361.77 299.986 361.92 300.016 362.04 300.016 362.28 300.016 362.52 299.806 362.58 299.566V299.506 299.476H361.5Z" fill-rule="evenodd"/><path transform="matrix(1,0,0,-1,0,595.276)" d="M349.62 295.006C349.95 295.006 350.22 294.946 350.43 294.796 350.67 294.646 350.82 294.406 350.94 294.106L350.28 293.806C350.16 294.106 349.95 294.256 349.65 294.256 349.29 294.226 349.08 294.016 349.02 293.596 348.99 293.536 348.99 293.476 348.99 293.416 348.99 293.356 349.02 293.296 349.02 293.236V293.206C349.14 292.786 349.35 292.576 349.68 292.576 349.83 292.576 349.95 292.606 350.04 292.696 350.16 292.756 350.22 292.906 350.28 293.086L350.94 292.786C350.76 292.126 350.34 291.826 349.68 291.826 348.75 291.856 348.24 292.396 348.21 293.416 348.3 294.466 348.78 294.976 349.62 295.006Z" fill-rule="evenodd"/><path transform="matrix(1,0,0,-1,0,595.276)" d="M353.31 294.856H354.12V291.916H353.28V292.066C353.25 292.006 353.19 291.946 353.04 291.916 352.89 291.856 352.71 291.826 352.56 291.826 352.29 291.826 352.02 291.916 351.78 292.096 351.57 292.306 351.45 292.546 351.45 292.786V294.856H352.26V293.056C352.26 292.966 352.32 292.876 352.41 292.756 352.53 292.666 352.65 292.606 352.77 292.606 352.89 292.606 353.04 292.666 353.16 292.786 353.28 292.906 353.31 293.056 353.31 293.176V294.856Z" fill-rule="evenodd"/><path transform="matrix(1,0,0,-1,0,595.276)" d="M355.89 294.856H356.64V294.166H355.89V292.876C355.89 292.786 355.92 292.726 355.98 292.666 356.04 292.606 356.1 292.576 356.22 292.576 356.25 292.576 356.31 292.576 356.4 292.576 356.46 292.606 356.52 292.606 356.61 292.636L356.76 291.976C356.61 291.886 356.34 291.826 355.92 291.826 355.68 291.826 355.5 291.886 355.35 292.006 355.23 292.126 355.14 292.336 355.11 292.576V294.166H354.63V294.856H355.11V295.786L355.89 296.026V294.856Z" fill-rule="evenodd"/><path transform="matrix(1,0,0,-1,0,595.276)" d="M358.32 294.856H359.04V294.166H358.32V292.876C358.32 292.786 358.35 292.726 358.38 292.666 358.44 292.606 358.53 292.576 358.62 292.576 358.68 292.576 358.74 292.576 358.8 292.576 358.86 292.606 358.95 292.606 359.04 292.636L359.16 291.976C359.01 291.886 358.74 291.826 358.32 291.826 358.08 291.826 357.9 291.886 357.78 292.006 357.63 292.126 357.54 292.336 357.54 292.576V294.166H357.06V294.856H357.54V295.786L358.32 296.026V294.856Z" fill-rule="evenodd"/><path transform="matrix(1,0,0,-1,0,595.276)" d="M360.51 291.976V294.856H359.76V291.976Z" fill-rule="evenodd"/><path transform="matrix(1,0,0,-1,0,595.276)" d="M360.6 295.606C360.6 295.876 360.39 296.086 360.15 296.086 359.88 296.086 359.67 295.876 359.67 295.606 359.67 295.366 359.88 295.156 360.15 295.156 360.39 295.156 360.6 295.366 360.6 295.606Z" fill-rule="evenodd"/><path transform="matrix(1,0,0,-1,0,595.276)" d="M363.87 291.976V293.956 293.986 294.016C363.87 294.676 363.48 295.006 362.73 295.006 362.58 295.006 362.46 294.976 362.34 294.916 362.25 294.886 362.13 294.826 362.07 294.736V294.916H361.23V291.976H362.07V293.776C362.13 294.076 362.31 294.226 362.61 294.256 362.88 294.226 363.03 294.076 363.06 293.776V293.746 293.716 293.686 291.976H363.87Z" fill-rule="evenodd"/><path transform="matrix(1,0,0,-1,0,595.276)" d="M367.26 291.856V294.856H366.48V294.736C366.48 294.886 366.18 295.006 365.82 295.006 364.98 294.946 364.56 294.436 364.56 293.416 364.65 292.546 365.07 292.096 365.82 292.066 365.94 292.066 366.09 292.066 366.21 292.126 366.33 292.156 366.42 292.216 366.42 292.276V292.096C366.39 291.826 366.27 291.676 366 291.676 365.88 291.646 365.73 291.676 365.55 291.736 365.37 291.796 365.16 291.856 364.92 291.976L364.56 291.316C364.86 291.106 365.43 290.926 365.91 290.896 366.75 290.896 367.23 291.226 367.26 291.856ZM366.42 293.806V293.146C366.42 293.056 366.36 292.966 366.3 292.876 366.21 292.816 366.09 292.786 365.97 292.756 365.61 292.786 365.37 293.026 365.34 293.506 365.37 293.926 365.58 294.196 365.94 294.226 366.24 294.196 366.42 294.046 366.42 293.806Z" fill-rule="evenodd"/><path transform="matrix(1,0,0,-1,0,595.276)" d="M343.23 288.406V287.836H343.98L343.83 287.116 343.59 286.456 343.29 285.916 342.9 285.436 343.35 285.016 343.68 285.466V283.036H344.25V283.906H344.88V283.636H345.45V286.606H344.22L344.43 287.206 344.55 287.836H345.66V288.406H343.23ZM344.25 284.446V286.066H344.88V284.446H344.25Z" fill-rule="evenodd"/><path transform="matrix(1,0,0,-1,0,595.276)" d="M347.04 288.616 346.38 288.796 346.17 287.866 345.96 287.116 345.75 286.546 345.54 286.126 346.14 285.916 346.62 287.146H348.15L347.94 286.576 347.67 286.066 348.24 285.856 348.9 287.566 348.36 287.896 348.3 287.746H346.77Z" fill-rule="evenodd"/><path transform="matrix(1,0,0,-1,0,595.276)" d="M347.46 286.606H346.86L346.83 286.036 346.77 285.496 346.68 285.016 346.5 284.596 346.26 284.236 345.99 283.906 345.63 283.636 345.24 283.426 345.63 282.886 346.23 283.336 346.68 283.816 347.01 284.326 347.19 284.896 347.49 284.206 347.82 283.666 348.21 283.246 348.6 282.946 349.08 283.516 348.57 283.876 348.12 284.326 347.79 284.836 347.55 285.376 347.46 285.706 347.43 286.036V286.336Z" fill-rule="evenodd"/><path transform="matrix(1,0,0,-1,0,595.276)" d="M352.98 288.616 352.59 288.826 352.23 288.016 351.84 287.266 351.36 286.576 350.85 285.916 351.33 285.466 351.81 286.126V282.886H352.44V287.086L353.04 288.256 353.19 288.346 353.22 288.436 353.16 288.526Z" fill-rule="evenodd"/><path transform="matrix(1,0,0,-1,0,595.276)" d="M354.45 288.736 353.91 288.766 353.94 287.026 352.77 286.906V286.336L353.97 286.456 354.06 285.496 354.3 284.626 353.64 284.236 352.77 283.906 353.22 283.366 353.97 283.696 354.57 284.056 354.87 283.606 355.23 283.276 355.62 283.066 356.1 282.946 356.4 283.036 356.64 283.276 356.85 283.666 357.03 284.176 356.46 284.596 356.31 284.026 356.07 283.606 355.77 283.726 355.5 283.876 355.29 284.116 355.08 284.446 355.71 285.136 356.16 285.706 356.31 285.736 356.34 285.796 356.28 285.886 356.1 286.006 355.71 286.246 355.29 285.616 354.84 285.106 354.66 285.706 354.6 286.516 356.7 286.726V287.326L354.57 287.116V288.436L354.72 288.556V288.646L354.66 288.706Z" fill-rule="evenodd"/><path transform="matrix(1,0,0,-1,0,595.276)" d="M355.62 288.526 355.17 288.136 355.53 287.836 355.95 287.416 356.46 287.836 356.04 288.226Z" fill-rule="evenodd"/><path transform="matrix(1,0,0,-1,0,595.276)" d="M359.67 288.826V287.476H358.95V286.966H359.7L359.31 285.886 358.83 284.866 359.31 284.476 359.67 285.496V282.856H360.21V285.856L360.57 285.226 360.96 285.646 360.54 286.246 360.18 286.966H360.72V287.476H360.21V288.556L360.33 288.646V288.706L360.27 288.736 360.09 288.766Z" fill-rule="evenodd"/><path transform="matrix(1,0,0,-1,0,595.276)" d="M361.71 288.856V288.226H360.84V287.716H361.71V287.296H361.02V286.816H362.88V287.296H362.25V287.716H363.06V288.226H362.25V288.556L362.37 288.646V288.736L362.28 288.766 362.1 288.796Z" fill-rule="evenodd"/><path transform="matrix(1,0,0,-1,0,595.276)" d="M361.02 286.396V284.926H362.85V286.396H361.02ZM361.56 285.376V285.946H362.34V285.376H361.56Z" fill-rule="evenodd"/><path transform="matrix(1,0,0,-1,0,595.276)" d="M361.41 284.686 360.93 284.626 361.29 283.786 361.71 283.906Z" fill-rule="evenodd"/><path transform="matrix(1,0,0,-1,0,595.276)" d="M362.31 284.716 362.01 283.756 360.63 283.546 360.72 283.216 360.75 283.036 360.81 282.976 360.87 283.006 360.96 283.096 363.15 283.426V283.876L362.49 283.786 362.88 284.536Z" fill-rule="evenodd"/><path transform="matrix(1,0,0,-1,0,595.276)" d="M363.99 288.856V287.506H363.18V286.966H363.99V283.816L363.96 283.636 363.9 283.516 363.78 283.426H363.6 363.21L363.36 282.886H363.69L364.14 282.976 364.44 283.156 364.56 283.396 364.53 283.726V286.966H364.95V287.506H364.53V288.496L364.62 288.586V288.676L364.56 288.706 364.41 288.736Z" fill-rule="evenodd"/><path transform="matrix(1,0,0,-1,0,595.276)" d="M363.48 286.096 362.97 286.006 363.36 284.926 363.81 285.016Z" fill-rule="evenodd"/><path transform="matrix(1,0,0,-1,0,595.276)" d="M369.93 288.766 369.48 288.796V287.596H367.08V286.996H369.33L368.85 286.246 368.25 285.556 367.53 284.956 366.69 284.416 367.23 283.906 367.92 284.386 368.52 284.956 369.03 285.586 369.48 286.276V282.886H370.14V286.276L370.59 285.586 371.13 284.956 371.73 284.416 372.36 283.936 372.9 284.536 372.18 284.926 371.52 285.466 370.89 286.156 370.26 286.996H372.54V287.596H370.14V288.556L370.23 288.646 370.26 288.706 370.14 288.766Z" fill-rule="evenodd"/></g></svg>