<?xml version='1.0' encoding='UTF-8'?>
<svg xmlns="http://www.w3.org/2000/svg" xmlns:xlink="http://www.w3.org/1999/xlink" xmlns:inkscape="http://www.inkscape.org/namespaces/inkscape" version="1.1" width="567.000" height="269.280" viewBox="0 0 567.000 269.280"><g transform="scale(10.0) translate(-329.439, -235.728)"><defs><clipPath id="clip_14"><path transform="matrix(1,0,0,-1,0,595.276)" d="M74.37 .046H767.49V595.276H74.37Z"/></clipPath></defs><path transform="matrix(1,0,0,-1,0,595.276)" d="M335.76 357.556H379.98C380.1 357.556 380.22 357.526 380.34 357.466 380.46 357.436 380.58 357.346 380.67 357.256 380.76 357.166 380.82 357.046 380.88 356.926 380.94 356.806 380.94 356.686 380.94 356.596V335.116C380.94 334.906 380.85 334.636 380.67 334.456 380.58 334.336 380.46 334.276 380.34 334.216 380.22 334.186 380.1 334.156 379.98 334.156H335.76C335.52 334.156 335.25 334.246 335.07 334.456 334.86 334.636 334.8 334.906 334.8 335.116V356.596C334.8 356.836 334.89 357.076 335.07 357.256 335.25 357.436 335.49 357.556 335.76 357.556Z" fill="#ffffff" fill-rule="evenodd"/><path transform="matrix(1,0,0,-1,0,595.276)" d="M341.61 353.446C341.58 353.296 341.67 353.176 341.82 353.086 342 352.966 342.27 352.906 342.66 352.876 343.89 352.696 344.52 352.126 344.52 351.136 344.46 349.996 343.74 349.426 342.39 349.426 341.82 349.426 341.34 349.516 340.92 349.696 340.5 349.876 340.17 350.146 339.9 350.506L340.8 351.226C341.34 350.746 341.85 350.506 342.39 350.506 342.96 350.506 343.26 350.716 343.26 351.136 343.23 351.496 342.84 351.706 342.06 351.766 341.01 351.886 340.44 352.426 340.32 353.356 340.38 354.496 341.1 355.066 342.45 355.066 342.9 355.066 343.32 355.006 343.65 354.856 344.01 354.736 344.31 354.496 344.58 354.226L343.8 353.476C343.29 353.836 342.87 354.016 342.45 354.016 341.91 353.986 341.64 353.806 341.61 353.446Z" fill-rule="evenodd"/><path transform="matrix(1,0,0,-1,0,595.276)" d="M348.15 353.416H349.2V349.546H348.09V349.726C348.06 349.666 347.97 349.576 347.79 349.516 347.58 349.456 347.34 349.426 347.16 349.426 346.8 349.426 346.41 349.546 346.11 349.786 345.81 350.026 345.69 350.356 345.69 350.686V353.416H346.74V351.076C346.74 350.956 346.8 350.776 346.95 350.656 347.1 350.506 347.28 350.446 347.4 350.446 347.58 350.446 347.76 350.536 347.91 350.686 348.06 350.836 348.15 351.016 348.15 351.196V353.416Z" fill-rule="evenodd"/><path transform="matrix(1,0,0,-1,0,595.276)" d="M350.25 349.636V353.506H351.24V353.116C351.33 353.296 351.48 353.416 351.69 353.506 351.9 353.596 352.17 353.626 352.5 353.596V352.546C352.11 352.516 351.84 352.426 351.63 352.306 351.42 352.186 351.33 352.066 351.3 351.856V349.636H350.25Z" fill-rule="evenodd"/><path transform="matrix(1,0,0,-1,0,595.276)" d="M354.15 349.636 352.86 353.416H354L354.81 350.836 355.62 353.416H356.73L355.44 349.636H354.81Z" fill-rule="evenodd"/><path transform="matrix(1,0,0,-1,0,595.276)" d="M360.66 351.166C360.69 352.726 360.09 353.536 358.86 353.596 357.81 353.596 357.24 352.906 357.12 351.556 357.12 350.986 357.27 350.506 357.54 350.146 357.75 349.936 357.99 349.756 358.26 349.636 358.53 349.516 358.8 349.456 359.07 349.426 359.37 349.426 359.7 349.486 359.97 349.606 360.27 349.756 360.45 349.936 360.54 350.146L359.91 350.776C359.85 350.656 359.73 350.566 359.58 350.506 359.4 350.446 359.25 350.416 359.07 350.386 358.89 350.386 358.68 350.446 358.5 350.596 358.41 350.686 358.35 350.776 358.32 350.866 358.26 350.956 358.26 351.076 358.26 351.166H360.66ZM358.2 351.946V351.976C358.2 352.126 358.29 352.306 358.44 352.456 358.59 352.576 358.77 352.666 358.92 352.666 359.07 352.666 359.22 352.606 359.37 352.486 359.52 352.366 359.61 352.216 359.64 352.066V352.036 351.976 351.946H358.2Z" fill-rule="evenodd"/><path transform="matrix(1,0,0,-1,0,595.276)" d="M364.89 353.416H363.81L363.06 351.136 362.34 353.416H361.23L362.4 349.906C362.43 349.816 362.43 349.726 362.46 349.636 362.46 349.576 362.46 349.486 362.46 349.456 362.46 349.336 362.4 349.276 362.31 349.276 362.19 349.276 362.07 349.276 361.95 349.276 361.83 349.276 361.74 349.306 361.65 349.336L361.47 348.466C361.92 348.346 362.34 348.286 362.73 348.256 362.88 348.286 363 348.346 363.15 348.466 363.27 348.616 363.39 348.796 363.45 349.006L364.89 353.416Z" fill-rule="evenodd"/><path transform="matrix(1,0,0,-1,0,595.276)" d="M366.6 349.636V353.416H365.61V349.636Z" fill-rule="evenodd"/><path transform="matrix(1,0,0,-1,0,595.276)" d="M366.72 354.436C366.72 354.766 366.45 355.036 366.12 355.036 365.76 355.036 365.49 354.766 365.49 354.436 365.49 354.076 365.76 353.806 366.12 353.806 366.45 353.806 366.72 354.076 366.72 354.436Z" fill-rule="evenodd"/><path transform="matrix(1,0,0,-1,0,595.276)" d="M371.04 349.636V352.246 352.306C371.01 353.176 370.53 353.596 369.54 353.596 369.36 353.596 369.18 353.566 369.03 353.506 368.88 353.446 368.76 353.356 368.64 353.236V353.506H367.56V349.636H368.64V351.976 352.006C368.73 352.396 368.97 352.606 369.39 352.636 369.75 352.606 369.93 352.396 369.96 352.006V351.976C369.96 351.946 369.96 351.916 369.96 351.916 369.96 351.886 369.96 351.886 369.96 351.856V349.636H371.04Z" fill-rule="evenodd"/><path transform="matrix(1,0,0,-1,0,595.276)" d="M375.54 349.456V353.416H374.49V353.296C374.49 353.356 374.4 353.446 374.22 353.506 374.07 353.566 373.83 353.596 373.62 353.596 372.51 353.536 371.94 352.846 371.94 351.526 372.06 350.356 372.63 349.756 373.62 349.726 373.77 349.726 373.98 349.756 374.13 349.816 374.31 349.846 374.4 349.936 374.43 349.996V349.786C374.37 349.426 374.19 349.246 373.86 349.216 373.71 349.186 373.5 349.216 373.26 349.276 373.02 349.366 372.75 349.486 372.45 349.636L371.94 348.736C372.36 348.466 373.11 348.226 373.74 348.196 374.82 348.166 375.45 348.616 375.54 349.456ZM374.43 352.036V351.166C374.4 351.046 374.34 350.926 374.22 350.806 374.13 350.716 373.98 350.686 373.83 350.656 373.32 350.656 373.02 351.016 372.99 351.616 373.02 352.186 373.32 352.546 373.77 352.576 374.16 352.546 374.4 352.336 374.43 352.036Z" fill-rule="evenodd"/><path transform="matrix(1,0,0,-1,0,595.276)" d="M379.98 358.516H335.76C335.52 358.516 335.28 358.456 335.04 358.366 334.8 358.276 334.59 358.126 334.38 357.946 334.2 357.766 334.05 357.526 333.96 357.286 333.87 357.046 333.84 356.806 333.84 356.596V335.116C333.84 334.906 333.87 334.666 333.96 334.426 334.05 334.186 334.2 333.946 334.38 333.766 334.59 333.586 334.8 333.436 335.04 333.346 335.28 333.256 335.52 333.196 335.76 333.196H379.98C380.22 333.196 380.46 333.256 380.7 333.346 380.94 333.436 381.15 333.586 381.33 333.766 381.54 333.946 381.69 334.186 381.78 334.426 381.87 334.666 381.9 334.906 381.9 335.116V356.596C381.9 356.806 381.87 357.046 381.78 357.286 381.69 357.526 381.54 357.766 381.33 357.946 381.15 358.126 380.94 358.276 380.7 358.366 380.46 358.456 380.22 358.516 379.98 358.516ZM379.98 357.556C380.25 357.556 380.49 357.436 380.67 357.256 380.85 357.076 380.94 356.836 380.94 356.596V335.116C380.94 334.906 380.85 334.636 380.67 334.456 380.46 334.246 380.22 334.156 379.98 334.156H335.76C335.64 334.156 335.52 334.186 335.4 334.216 335.28 334.276 335.16 334.336 335.07 334.456 334.86 334.636 334.8 334.906 334.8 335.116V356.596C334.8 356.806 334.86 357.076 335.07 357.256 335.25 357.466 335.52 357.556 335.76 357.556H379.98Z" fill-rule="evenodd"/><path transform="matrix(1,0,0,-1,0,595.276)" d="M349.56 345.256 349.05 344.656 349.71 344.236 350.28 343.786 350.73 344.296 350.19 344.806Z" fill-rule="evenodd"/><path transform="matrix(1,0,0,-1,0,595.276)" d="M349.23 343.126 348.69 342.526 349.35 342.076 349.95 341.566 350.46 342.106 349.89 342.646Z" fill-rule="evenodd"/><path transform="matrix(1,0,0,-1,0,595.276)" d="M348.63 338.206 349.17 337.756 349.29 337.696H349.38L349.44 337.786 349.41 337.936 350.55 340.156 350.13 340.636Z" fill-rule="evenodd"/><path transform="matrix(1,0,0,-1,0,595.276)" d="M351 345.076V339.646H353.61V345.076H351ZM351.75 343.426V344.416H352.86V343.426H351.75ZM351.75 341.866V342.826H352.86V341.866H351.75ZM351.75 340.306V341.296H352.86V340.306H351.75Z" fill-rule="evenodd"/><path transform="matrix(1,0,0,-1,0,595.276)" d="M350.46 337.996 351.21 337.666 351.69 338.416 352.11 339.256 351.36 339.556 350.97 338.746Z" fill-rule="evenodd"/><path transform="matrix(1,0,0,-1,0,595.276)" d="M353.31 339.556 352.71 339.196 353.07 338.416 353.52 337.726 354.3 338.206 353.76 338.806Z" fill-rule="evenodd"/><path transform="matrix(1,0,0,-1,0,595.276)" d="M354.24 344.836V339.406H354.93V344.476L355.05 344.656 354.93 344.806Z" fill-rule="evenodd"/><path transform="matrix(1,0,0,-1,0,595.276)" d="M355.59 345.346V338.956L355.56 338.716 355.47 338.536 355.38 338.446H355.23 354.66L354.93 337.696 355.74 337.756 356.01 337.816 356.22 338.026 356.34 338.326 356.4 338.746V344.896L356.52 345.046V345.166L356.43 345.256 356.25 345.316Z" fill-rule="evenodd"/><path transform="matrix(1,0,0,-1,0,595.276)" d="M360.48 345.226V343.006H365.73V345.226H360.48ZM361.26 344.386V344.686H365.01V344.386H361.26ZM361.26 343.576V343.876H365.01V343.576H361.26Z" fill-rule="evenodd"/><path transform="matrix(1,0,0,-1,0,595.276)" d="M359.37 342.736V342.106H366.87V342.736Z" fill-rule="evenodd"/><path transform="matrix(1,0,0,-1,0,595.276)" d="M360.39 339.556H362.7V339.256H360.06V338.686H362.7V338.356H359.28V337.756H366.99V338.356H363.45V338.686H366.15V339.256H363.45V339.556H365.85V341.776H360.39V339.556ZM361.08 340.936V341.266H362.7V340.936H361.08ZM363.45 340.936V341.266H365.1V340.936H363.45ZM361.11 340.066V340.456H362.7V340.066H361.11ZM363.45 340.066V340.456H365.07V340.066H363.45Z" fill-rule="evenodd"/></g></svg>