<?xml version='1.0' encoding='UTF-8'?>
<svg xmlns="http://www.w3.org/2000/svg" xmlns:xlink="http://www.w3.org/1999/xlink" xmlns:inkscape="http://www.inkscape.org/namespaces/inkscape" version="1.1" width="567.000" height="269.280" viewBox="0 0 567.000 269.280"><g transform="scale(10.0) translate(-329.439, -20.304)"><defs><clipPath id="clip_14"><path transform="matrix(1,0,0,-1,0,595.276)" d="M74.37 .046H767.49V595.276H74.37Z"/></clipPath></defs><path transform="matrix(1,0,0,-1,0,595.276)" d="M380.1 573.916H335.64C335.43 573.916 335.19 573.886 334.98 573.796 334.74 573.706 334.53 573.556 334.35 573.376 334.17 573.196 334.05 572.986 333.96 572.776 333.87 572.536 333.84 572.296 333.84 572.086V550.426C333.84 550.216 333.87 549.976 333.96 549.766 334.05 549.526 334.17 549.316 334.35 549.136 334.53 548.956 334.74 548.836 334.98 548.746 335.19 548.656 335.43 548.596 335.64 548.596H380.1C380.31 548.596 380.52 548.656 380.76 548.746 380.97 548.836 381.18 548.956 381.36 549.136 381.54 549.316 381.69 549.526 381.78 549.766 381.87 549.976 381.9 550.216 381.9 550.426V572.086C381.9 572.296 381.87 572.536 381.78 572.776 381.69 572.986 381.54 573.196 381.36 573.376 381.18 573.556 380.97 573.706 380.76 573.796 380.52 573.886 380.31 573.916 380.1 573.916ZM380.1 573.016C380.31 573.016 380.55 572.926 380.73 572.746 380.91 572.566 381 572.326 381 572.086V550.426C381 550.216 380.91 549.976 380.73 549.796 380.55 549.616 380.31 549.526 380.1 549.526H335.64C335.43 549.526 335.19 549.616 335.01 549.796 334.83 549.976 334.74 550.216 334.74 550.426V572.086C334.74 572.326 334.83 572.566 335.01 572.746 335.19 572.926 335.43 573.016 335.64 573.016H380.1Z" fill-rule="evenodd"/><path transform="matrix(1,0,0,-1,0,595.276)" d="M335.64 573.016H380.1C380.19 573.016 380.31 572.986 380.43 572.926 380.52 572.896 380.64 572.836 380.73 572.746 380.82 572.656 380.88 572.536 380.94 572.416 380.97 572.326 381 572.206 381 572.086V550.426C381 550.216 380.91 549.976 380.73 549.796 380.64 549.706 380.52 549.616 380.43 549.586 380.31 549.526 380.19 549.526 380.1 549.526H335.64C335.43 549.526 335.19 549.616 335.01 549.796 334.83 549.976 334.74 550.216 334.74 550.426V572.086C334.74 572.326 334.83 572.566 335.01 572.746 335.16 572.896 335.4 573.016 335.64 573.016Z" fill="#ffffff" fill-rule="evenodd"/><path transform="matrix(1,0,0,-1,0,595.276)" d="M346.98 565.096 345.3 570.406H344.52 343.71L342.06 565.096H343.2L343.47 565.966H344.52 345.57L345.84 565.096H346.98ZM345.24 566.986H344.52 343.8L344.52 569.296 345.24 566.986Z" fill-rule="evenodd"/><path transform="matrix(1,0,0,-1,0,595.276)" d="M349.29 569.056C349.74 569.086 350.1 568.966 350.4 568.786 350.67 568.576 350.88 568.276 351.03 567.886L350.16 567.496C350.01 567.886 349.71 568.096 349.32 568.096 348.87 568.066 348.6 567.766 348.48 567.226 348.48 567.136 348.48 567.076 348.48 566.986 348.48 566.896 348.51 566.806 348.51 566.746V566.686C348.66 566.146 348.93 565.876 349.38 565.876 349.56 565.846 349.74 565.906 349.86 566.026 350.01 566.116 350.1 566.296 350.16 566.536L351.06 566.146C350.82 565.276 350.25 564.856 349.41 564.886 348.15 564.916 347.49 565.636 347.46 566.986 347.58 568.366 348.18 569.056 349.29 569.056Z" fill-rule="evenodd"/><path transform="matrix(1,0,0,-1,0,595.276)" d="M353.34 569.056C353.79 569.086 354.15 568.966 354.45 568.786 354.72 568.576 354.93 568.276 355.08 567.886L354.21 567.496C354.06 567.886 353.76 568.096 353.37 568.096 352.92 568.066 352.65 567.766 352.53 567.226 352.53 567.136 352.53 567.076 352.53 566.986 352.53 566.896 352.56 566.806 352.56 566.746V566.686C352.71 566.146 352.98 565.876 353.43 565.876 353.61 565.846 353.79 565.906 353.91 566.026 354.03 566.116 354.15 566.296 354.21 566.536L355.11 566.146C354.87 565.276 354.3 564.856 353.43 564.886 352.2 564.916 351.54 565.636 351.51 566.986 351.63 568.366 352.23 569.056 353.34 569.056Z" fill-rule="evenodd"/><path transform="matrix(1,0,0,-1,0,595.276)" d="M356.85 565.096V568.876H355.86V565.096Z" fill-rule="evenodd"/><path transform="matrix(1,0,0,-1,0,595.276)" d="M356.97 569.896C356.97 570.226 356.7 570.496 356.37 570.496 356.04 570.496 355.77 570.226 355.77 569.896 355.77 569.536 356.04 569.266 356.37 569.266 356.7 569.266 356.97 569.536 356.97 569.896Z" fill-rule="evenodd"/><path transform="matrix(1,0,0,-1,0,595.276)" d="M360.42 568.726V570.406H361.44V564.976H360.39V565.186C360.24 565.006 359.91 564.916 359.49 564.886 358.59 564.826 357.84 565.486 357.69 566.776V566.866 567.256 567.346C357.81 568.396 358.5 568.966 359.4 568.996 359.67 569.026 360.03 568.936 360.42 568.726ZM360.39 566.326V567.286C360.39 567.436 360.39 567.496 360.36 567.556 360.33 567.616 360.3 567.706 360.27 567.736 360.24 567.766 360.21 567.766 360.21 567.766 360.03 567.916 359.85 568.006 359.61 568.036 359.07 567.976 358.77 567.616 358.71 566.956 358.71 566.236 359.01 565.846 359.61 565.786 359.97 565.846 360.24 566.026 360.39 566.326Z" fill-rule="evenodd"/><path transform="matrix(1,0,0,-1,0,595.276)" d="M365.76 566.626C365.79 568.186 365.19 568.996 363.96 569.056 362.91 569.056 362.34 568.366 362.22 567.016 362.22 566.446 362.37 565.966 362.64 565.606 362.85 565.396 363.09 565.216 363.36 565.096 363.63 564.976 363.9 564.916 364.17 564.886 364.47 564.886 364.8 564.946 365.07 565.066 365.34 565.216 365.55 565.396 365.64 565.606L365.01 566.236C364.95 566.116 364.8 566.026 364.65 565.966 364.5 565.906 364.32 565.876 364.17 565.846 363.96 565.846 363.75 565.906 363.57 566.056 363.51 566.146 363.45 566.236 363.39 566.326 363.36 566.416 363.33 566.506 363.33 566.626H365.76ZM363.27 567.406V567.436C363.3 567.586 363.39 567.766 363.54 567.916 363.66 568.036 363.84 568.126 364.02 568.126 364.14 568.126 364.32 568.066 364.47 567.946 364.59 567.826 364.68 567.676 364.71 567.526V567.496L364.74 567.436V567.406H363.27Z" fill-rule="evenodd"/><path transform="matrix(1,0,0,-1,0,595.276)" d="M370.05 565.096V567.706 567.766C370.05 568.636 369.54 569.056 368.55 569.056 368.37 569.056 368.19 569.026 368.04 568.966 367.89 568.906 367.77 568.816 367.65 568.696V568.966H366.57V565.096H367.65V567.436 567.466C367.74 567.856 367.98 568.066 368.4 568.096 368.76 568.066 368.94 567.856 368.97 567.466V567.436 567.406 567.376C368.97 567.346 368.97 567.346 368.97 567.316V565.096H370.05Z" fill-rule="evenodd"/><path transform="matrix(1,0,0,-1,0,595.276)" d="M372.54 568.876H373.5V567.976H372.54V566.266C372.54 566.146 372.57 566.056 372.63 565.996 372.69 565.906 372.81 565.876 372.93 565.846 372.99 565.846 373.08 565.846 373.17 565.876 373.26 565.876 373.38 565.906 373.47 565.966L373.65 565.096C373.47 564.946 373.08 564.856 372.54 564.856 372.24 564.886 371.97 564.946 371.82 565.126 371.64 565.306 371.52 565.546 371.49 565.846V567.976H370.86V568.876H371.49V570.106L372.54 570.436V568.876Z" fill-rule="evenodd"/><path transform="matrix(1,0,0,-1,0,595.276)" d="M338.97 560.536V559.876H341.13L340.71 559.456 340.26 559.126 339.45 559.756 338.94 559.246 339.57 558.736 338.13 558.256 338.61 557.686 339.48 558.016V557.746H340.98V557.086H339.24L338.97 555.976 338.64 554.986 339.42 554.746 339.54 555.046H340.95L340.92 554.536 340.83 554.236 340.68 554.026 340.41 553.876 340.08 553.816H339.09L339.36 553.126 340.59 553.216 340.98 553.306 341.28 553.486 341.49 553.786 341.58 554.176 341.64 554.986V555.736H339.72L339.81 556.396H341.7V558.496H340.53L341.52 559.276 342.39 560.236 341.97 560.836 341.67 560.536Z" fill-rule="evenodd"/><path transform="matrix(1,0,0,-1,0,595.276)" d="M343.2 560.656 342.48 560.476 342.78 559.816 343.17 559.276 343.62 558.826 344.16 558.496H342.45L342.48 557.776 342.39 557.266 342.15 556.876 341.79 556.666 342.15 556.126 342.6 556.366 342.93 556.726 343.14 557.176 343.2 557.746H343.83V556.846L343.89 556.636 343.98 556.486 344.13 556.366 344.34 556.306 344.82 556.246 345.3 556.276 345.6 556.396 345.81 556.666 345.96 557.356 345.18 557.596V557.266 557.086L345.09 556.996 344.97 556.936H344.82L344.64 556.996 344.58 557.236V558.226L345.78 557.656 346.35 558.346 345 558.856 345.75 559.276H345.87L345.96 559.306V559.366L345.93 559.516 345.39 559.966 344.46 559.186 343.95 559.546 344.76 560.026 344.88 560.056 344.94 560.086 344.97 560.206 344.94 560.356 344.43 560.806 343.59 560.026 343.32 560.296Z" fill-rule="evenodd"/><path transform="matrix(1,0,0,-1,0,595.276)" d="M341.97 556.006V555.376H342.48L342.69 554.716 343.17 554.176 342.36 553.876 341.58 553.696 342.03 553.066 342.9 553.306 343.8 553.726 344.58 553.306 345.48 553.036 346.17 553.726 345.18 553.906 344.37 554.176 344.88 554.836 345.36 555.706 344.88 556.186 344.64 556.006H341.97ZM343.14 555.316H344.28L344.07 554.896 343.74 554.536 343.41 554.896 343.14 555.316Z" fill-rule="evenodd"/><path transform="matrix(1,0,0,-1,0,595.276)" d="M351.24 560.356 350.49 560.626 350.16 559.606 349.77 558.736 349.32 558.016 348.81 557.446 349.59 556.846 350.1 557.566 350.55 558.316H352.59V556.786H350.31V555.976H352.59V554.236H349.05V553.426H356.49V554.236H353.49V555.976H355.71V556.786H353.49V558.316H356.04V559.126H353.49V560.506L353.61 560.626 353.64 560.746 353.52 560.806 353.28 560.866H352.59V559.126H350.88L351.21 560.026 351.42 560.086 351.51 560.176 351.42 560.266Z" fill-rule="evenodd"/><path transform="matrix(1,0,0,-1,0,595.276)" d="M362.76 560.986V560.296H359.85V559.636H361.29L361.71 558.886H359.31V558.256H367.02V558.886H364.77L365.04 559.636H366.6V560.296H363.54V560.566L363.66 560.686 363.69 560.776 363.63 560.836 363.48 560.896 362.76 560.986ZM362.46 558.886 362.1 559.636H364.23L363.96 558.886H362.46Z" fill-rule="evenodd"/><path transform="matrix(1,0,0,-1,0,595.276)" d="M360.69 557.866V555.346H365.7V557.866H360.69ZM361.41 556.906V557.266H364.92V556.906H361.41ZM361.41 555.916V556.366H364.92V555.916H361.41Z" fill-rule="evenodd"/><path transform="matrix(1,0,0,-1,0,595.276)" d="M363.36 555.196 362.88 554.776 363.27 554.356 363.66 553.906 364.26 554.326 363.93 554.776Z" fill-rule="evenodd"/><path transform="matrix(1,0,0,-1,0,595.276)" d="M361.32 555.136V553.846L361.38 553.486 361.53 553.276 361.77 553.126 362.1 553.096H364.86L365.04 553.126 365.19 553.216 365.31 553.396 365.43 553.636 365.64 554.326 364.95 554.626 364.77 554.116 364.56 553.846 364.32 553.756H362.43L362.19 553.846 362.1 554.116V554.716L362.31 554.866 362.37 554.986 362.25 555.076 362.01 555.106Z" fill-rule="evenodd"/><path transform="matrix(1,0,0,-1,0,595.276)" d="M360.75 554.866 360.15 555.136 359.73 554.356 359.19 553.666 359.85 553.216 360.33 553.786 360.72 554.506 360.87 554.596 360.93 554.686 360.87 554.776Z" fill-rule="evenodd"/><path transform="matrix(1,0,0,-1,0,595.276)" d="M365.94 555.196 365.43 554.716 366.06 554.116 366.51 553.366 367.17 553.816 366.63 554.626Z" fill-rule="evenodd"/><path transform="matrix(1,0,0,-1,0,595.276)" d="M372.09 560.806 371.55 560.896 371.34 559.756 370.95 558.736 370.38 557.806 369.69 556.996 370.35 556.336 371.22 557.476 371.76 558.616H373.05L372.84 557.626 372.57 556.696 371.61 557.356 371.04 556.786 371.67 556.366 372.24 555.946 371.85 555.286 371.31 554.746 370.59 554.296 369.78 553.936 370.35 553.186 371.01 553.426 371.64 553.816 372.18 554.356 372.66 555.016 373.11 555.826 373.5 556.786 373.83 557.866 374.1 559.096 373.56 559.576 373.26 559.366H372.03L372.3 560.356 372.51 560.506 372.57 560.626 372.42 560.746Z" fill-rule="evenodd"/><path transform="matrix(1,0,0,-1,0,595.276)" d="M375.63 560.806 375.15 560.866V557.536L374.61 558.136 374.07 557.716 374.61 557.026 375.15 556.486V553.066H376.02V555.826L377.13 555.166 377.79 556.006 376.77 556.396 376.02 556.906V560.446L376.2 560.566V560.686L375.99 560.776Z" fill-rule="evenodd"/></g></svg>