<?xml version='1.0' encoding='UTF-8'?>
<svg xmlns="http://www.w3.org/2000/svg" xmlns:xlink="http://www.w3.org/1999/xlink" xmlns:inkscape="http://www.inkscape.org/namespaces/inkscape" version="1.1" width="567.000" height="269.280" viewBox="0 0 567.000 269.280"><g transform="scale(10.0) translate(-329.439, -397.296)"><defs><clipPath id="clip_14"><path transform="matrix(1,0,0,-1,0,595.276)" d="M74.37 .046H767.49V595.276H74.37Z"/></clipPath></defs><path transform="matrix(1,0,0,-1,0,595.276)" d="M374.61 196.756H341.13C340.95 196.756 340.77 196.726 340.59 196.636 340.41 196.576 340.23 196.456 340.11 196.306 339.96 196.186 339.84 196.006 339.78 195.826 339.69 195.646 339.66 195.466 339.66 195.286V173.296C339.66 172.966 339.81 172.576 340.11 172.276 340.41 171.976 340.77 171.856 341.13 171.856H374.61C374.97 171.856 375.33 171.976 375.63 172.276 375.93 172.576 376.05 172.966 376.05 173.296V195.286C376.05 195.646 375.93 196.036 375.63 196.306 375.33 196.606 374.97 196.756 374.61 196.756ZM374.61 196.006C375 196.006 375.33 195.706 375.33 195.286V173.296C375.33 173.116 375.27 172.936 375.12 172.786 374.97 172.636 374.79 172.576 374.61 172.576H341.13C340.95 172.576 340.77 172.636 340.62 172.786 340.47 172.936 340.41 173.116 340.41 173.296V195.286C340.41 195.376 340.41 195.466 340.44 195.556 340.5 195.646 340.53 195.736 340.62 195.796 340.77 195.946 340.95 196.006 341.13 196.006H374.61Z" fill-rule="evenodd"/><path transform="matrix(1,0,0,-1,0,595.276)" d="M341.13 196.006H374.61C374.79 196.006 374.97 195.946 375.12 195.796 375.27 195.646 375.33 195.466 375.33 195.286V173.296C375.33 173.206 375.33 173.116 375.27 173.026 375.24 172.936 375.18 172.876 375.12 172.786 375.06 172.726 374.97 172.666 374.88 172.636 374.79 172.606 374.7 172.576 374.61 172.576H341.13C340.95 172.576 340.77 172.636 340.62 172.786 340.47 172.936 340.41 173.116 340.41 173.296V195.286C340.41 195.706 340.74 196.006 341.13 196.006Z" fill="#ffffff" fill-rule="evenodd"/><path transform="matrix(1,0,0,-1,0,595.276)" d="M345.96 190.036C345.93 189.916 345.99 189.826 346.14 189.766 346.26 189.676 346.47 189.646 346.74 189.616 347.7 189.466 348.18 189.046 348.18 188.296 348.12 187.426 347.58 187.006 346.56 187.006 346.14 187.006 345.78 187.066 345.45 187.216 345.15 187.336 344.88 187.546 344.67 187.816L345.36 188.356C345.75 187.996 346.17 187.816 346.56 187.816 346.98 187.816 347.22 187.996 347.19 188.296 347.19 188.566 346.89 188.716 346.29 188.776 345.51 188.866 345.09 189.256 345 189.976 345.03 190.846 345.57 191.266 346.59 191.266 346.95 191.266 347.25 191.236 347.52 191.116 347.79 191.026 348.03 190.846 348.21 190.636L347.61 190.066C347.25 190.336 346.92 190.486 346.59 190.456 346.2 190.456 345.99 190.306 345.96 190.036Z" fill-rule="evenodd"/><path transform="matrix(1,0,0,-1,0,595.276)" d="M350.91 190.036H351.72V187.096H350.85V187.246C350.85 187.186 350.79 187.126 350.64 187.066 350.49 187.036 350.31 187.006 350.16 187.006 349.89 187.006 349.59 187.096 349.38 187.276 349.14 187.456 349.05 187.696 349.05 187.936V190.036H349.86V188.236C349.86 188.206 349.86 188.146 349.89 188.086 349.92 188.026 349.95 187.966 350.01 187.936 350.13 187.816 350.25 187.786 350.34 187.786 350.49 187.786 350.64 187.846 350.73 187.936 350.85 188.056 350.91 188.206 350.91 188.356V190.036Z" fill-rule="evenodd"/><path transform="matrix(1,0,0,-1,0,595.276)" d="M352.5 187.156V190.096H353.25V189.796C353.31 189.916 353.43 190.036 353.58 190.096 353.76 190.156 353.97 190.186 354.21 190.156V189.376C353.91 189.316 353.7 189.286 353.55 189.196 353.4 189.106 353.31 188.986 353.31 188.866V187.156H352.5Z" fill-rule="evenodd"/><path transform="matrix(1,0,0,-1,0,595.276)" d="M355.71 187.156V189.346H356.34V190.036H355.71V190.366C355.71 190.426 355.71 190.456 355.74 190.486 355.77 190.516 355.8 190.546 355.86 190.546 355.92 190.546 356.01 190.546 356.1 190.516 356.19 190.516 356.28 190.516 356.37 190.486L356.49 191.146C356.34 191.206 356.16 191.236 355.92 191.266 355.62 191.236 355.38 191.176 355.23 191.086 355.05 190.966 354.99 190.816 354.96 190.606V190.036H354.51V189.346H354.96V187.156H355.71Z" fill-rule="evenodd"/><path transform="matrix(1,0,0,-1,0,595.276)" d="M359.7 187.636 359.52 187.036C359.31 187.036 359.13 187.066 359.01 187.096 358.86 187.156 358.8 187.246 358.77 187.336 358.68 187.186 358.32 187.006 358.05 187.006 357.3 187.006 356.88 187.396 356.88 188.056 356.88 188.686 357.45 189.016 358.56 189.016V189.136C358.59 189.256 358.56 189.346 358.5 189.376 358.44 189.436 358.35 189.466 358.23 189.466 358.05 189.466 357.87 189.436 357.72 189.376 357.57 189.346 357.45 189.256 357.33 189.136L356.94 189.706C357.24 190.036 357.66 190.186 358.2 190.186 358.56 190.186 358.86 190.126 359.07 189.976 359.28 189.826 359.4 189.616 359.43 189.346V187.846C359.43 187.696 359.52 187.636 359.7 187.636ZM357.72 188.026C357.72 187.906 357.75 187.846 357.81 187.786 357.9 187.726 358.02 187.696 358.17 187.696 358.38 187.726 358.5 187.786 358.56 187.906V188.386C358.29 188.386 358.08 188.356 357.93 188.296 357.78 188.236 357.72 188.146 357.72 188.026Z" fill-rule="evenodd"/><path transform="matrix(1,0,0,-1,0,595.276)" d="M361.47 190.156C361.8 190.186 362.07 190.096 362.28 189.946 362.49 189.796 362.67 189.586 362.76 189.256L362.1 188.956C361.98 189.286 361.77 189.436 361.47 189.436 361.14 189.406 360.93 189.196 360.84 188.776 360.84 188.686 360.84 188.656 360.84 188.596 360.84 188.536 360.84 188.446 360.87 188.416V188.356C360.96 187.966 361.2 187.756 361.5 187.756 361.65 187.726 361.77 187.786 361.89 187.846 361.98 187.936 362.07 188.056 362.1 188.236L362.79 187.966C362.61 187.306 362.19 186.976 361.53 187.006 360.57 187.036 360.09 187.576 360.06 188.596 360.15 189.616 360.6 190.156 361.47 190.156Z" fill-rule="evenodd"/><path transform="matrix(1,0,0,-1,0,595.276)" d="M364.08 187.156V190.036H363.33V187.156Z" fill-rule="evenodd"/><path transform="matrix(1,0,0,-1,0,595.276)" d="M364.17 190.786C364.17 191.026 363.96 191.236 363.69 191.236 363.45 191.236 363.24 191.026 363.24 190.786 363.24 190.546 363.45 190.336 363.69 190.336 363.96 190.336 364.17 190.546 364.17 190.786Z" fill-rule="evenodd"/><path transform="matrix(1,0,0,-1,0,595.276)" d="M367.44 187.156V189.136 189.196C367.41 189.826 367.05 190.156 366.3 190.156 366.15 190.156 366.03 190.156 365.91 190.096 365.79 190.066 365.7 189.976 365.61 189.886V190.096H364.8V187.156H365.61V188.926 188.956C365.67 189.256 365.85 189.406 366.18 189.436 366.45 189.406 366.6 189.256 366.63 188.956V188.926C366.63 188.896 366.63 188.896 366.63 188.866V188.836 187.156H367.44Z" fill-rule="evenodd"/><path transform="matrix(1,0,0,-1,0,595.276)" d="M370.83 187.006V190.036H370.05V189.916C370.05 190.066 369.75 190.156 369.39 190.156 368.55 190.126 368.13 189.586 368.1 188.596 368.19 187.696 368.64 187.246 369.39 187.246 369.51 187.216 369.66 187.246 369.78 187.276 369.9 187.336 369.96 187.396 369.99 187.426V187.276C369.96 187.006 369.81 186.856 369.57 186.826 369.45 186.826 369.3 186.856 369.12 186.886 368.94 186.946 368.73 187.036 368.49 187.156L368.1 186.496C368.43 186.256 369 186.106 369.48 186.046 370.29 186.046 370.77 186.406 370.83 187.006ZM369.99 188.986V188.326C369.99 188.206 369.93 188.116 369.84 188.056 369.78 187.996 369.66 187.936 369.54 187.936 369.18 187.936 368.94 188.206 368.91 188.656 368.94 189.106 369.15 189.346 369.48 189.376 369.81 189.346 369.96 189.196 369.99 188.986Z" fill-rule="evenodd"/><path transform="matrix(1,0,0,-1,0,595.276)" d="M344.91 183.736 344.46 184.036 343.8 183.106 342.9 182.176 343.29 181.786 343.59 182.026V181.696H344.22V181.036H343.23V180.496H344.22V178.786L343.17 178.606 343.23 178.246 343.26 178.096 343.32 178.036H343.38L343.47 178.156 345.63 178.546V179.056L344.76 178.876V180.496H345.57V181.036H344.76V181.696H345.36V182.236H343.77L344.55 183.046 344.88 182.656 345.27 182.326 345.66 182.716 345.21 183.046 344.79 183.406 344.91 183.526H345.03L345.09 183.586 345.03 183.646Z" fill-rule="evenodd"/><path transform="matrix(1,0,0,-1,0,595.276)" d="M343.74 180.166 343.23 180.076 343.41 179.536 343.53 178.996 344.01 179.086Z" fill-rule="evenodd"/><path transform="matrix(1,0,0,-1,0,595.276)" d="M345.15 180.256 344.85 179.266 345.3 179.116 345.63 180.076Z" fill-rule="evenodd"/><path transform="matrix(1,0,0,-1,0,595.276)" d="M347.07 183.946V183.226H345.78V182.686H347.07V182.146H345.84V178.126H346.35V179.266H347.07V178.246H347.64V179.266H348.39V178.876L348.3 178.696 348.12 178.636 347.79 178.606 348 178.126H348.24L348.57 178.246 348.78 178.366 348.87 178.576V178.816 182.146H347.64V182.686H347.61 349.05V183.226H348.54L348.81 183.406 348.21 183.976 347.82 183.676 348.27 183.226H347.64V183.706L347.73 183.796V183.886L347.64 183.916H347.49L347.07 183.946ZM346.35 179.806V180.466H347.07V179.806H346.35ZM346.35 180.946V181.636H347.07V180.946H346.35ZM347.64 179.806V180.466H348.39V179.806H347.64ZM347.64 180.946V181.636H348.39V180.946H347.64Z" fill-rule="evenodd"/><path transform="matrix(1,0,0,-1,0,595.276)" d="M353.7 182.686 354.21 182.386 354.63 183.046H355.14L355.41 182.386 355.98 182.506 355.74 183.046H356.7V183.526H354.93L355.02 183.676 355.11 183.766 355.08 183.856 354.48 183.976 354.15 183.316Z" fill-rule="evenodd"/><path transform="matrix(1,0,0,-1,0,595.276)" d="M353.64 181.006 353.91 180.616H353.61V180.136H351.15V179.596H353.46L352.92 179.326 352.35 179.086 351.69 178.906 351 178.786 351.48 178.246 352.08 178.426 352.65 178.606 353.16 178.846 353.61 179.146V178.066H354.21V179.176L355.2 178.636 356.37 178.216 356.97 178.786 356.22 178.906 355.53 179.086 354.9 179.326 354.3 179.596H356.73V180.136H354.21V180.346L354.3 180.466 354.18 180.556 354.03 180.586 354.27 180.796 354.45 181.066 354.57 181.396 354.63 181.756H355.47V180.886L355.5 180.736 355.59 180.616 355.71 180.526 355.89 180.496H356.34L356.58 180.556 356.73 180.736 356.85 181.006 356.94 181.366 356.37 181.546 356.31 181.186 356.19 181.036H356.07L356.04 181.246V182.266H354.12L354.09 181.786 354 181.396 353.85 181.156Z" fill-rule="evenodd"/><path transform="matrix(1,0,0,-1,0,595.276)" d="M350.97 182.686 351.48 182.386 352.02 183.046H352.56L352.77 182.356 353.31 182.476 353.13 183.046H353.82V183.526H352.41L352.47 183.706 352.62 183.766 352.59 183.886 352.02 184.036 351.54 183.286Z" fill-rule="evenodd"/><path transform="matrix(1,0,0,-1,0,595.276)" d="M351.36 182.236V181.696H352.08V181.096L351.12 180.976 351.24 180.466 351.36 180.376 351.48 180.466 353.55 180.856V181.276L352.68 181.156V181.696H353.43V182.236Z" fill-rule="evenodd"/><path transform="matrix(1,0,0,-1,0,595.276)" d="M354.87 181.516 354.51 181.276 355.14 180.706 355.44 181.006 355.17 181.336Z" fill-rule="evenodd"/><path transform="matrix(1,0,0,-1,0,595.276)" d="M359.16 181.696H360.06V179.146L359.73 179.026V180.766L359.79 180.826V180.886L359.73 180.946 359.61 181.006 359.1 181.036V178.906L358.83 178.846 358.95 178.246 359.1 178.186 359.22 178.276 361.56 178.996V179.536L360.66 179.296V180.346H361.35V180.916H360.66V181.696H361.23V182.476L361.65 182.116 362.34 182.866H363.66L363.33 182.416 362.94 181.996 362.73 182.236 362.58 182.566 362.04 182.476 362.19 182.056 362.46 181.666 361.86 181.336 361.23 181.096 361.65 180.616 362.4 180.916 362.94 181.246 363.72 180.826 364.53 180.556 365.01 181.066 364.2 181.336 363.45 181.636 364.08 182.356 364.53 183.076 364.2 183.436H362.73L362.88 183.676 363 183.736 363.03 183.826 363 183.886 362.88 183.946 362.46 184.096 361.83 183.196 361.23 182.596V183.706H359.16V181.696ZM359.76 182.236V183.166H360.6V182.236H359.76Z" fill-rule="evenodd"/><path transform="matrix(1,0,0,-1,0,595.276)" d="M361.8 178.066H362.37V178.426H363.72V178.096H364.35V180.466H361.8V178.066ZM362.37 178.966V179.926H363.72V178.966H362.37Z" fill-rule="evenodd"/><path transform="matrix(1,0,0,-1,0,595.276)" d="M366.84 183.676V183.106H369.54L369.27 182.356H367.23V178.096H367.83V178.396H371.76V178.096H372.33V182.356H369.9L370.14 183.106H372.72V183.676H366.84ZM369.21 178.966V179.536H370.26V178.966H369.21ZM369.21 181.216V181.816H370.26V181.216H369.21ZM369.21 180.046V180.676H370.26V180.046H369.21ZM367.83 178.966V181.816H368.64V178.966H367.83ZM370.89 178.966V181.816H371.76V178.966H370.89Z" fill-rule="evenodd"/></g></svg>