<?xml version='1.0' encoding='UTF-8'?>
<svg xmlns="http://www.w3.org/2000/svg" xmlns:xlink="http://www.w3.org/1999/xlink" xmlns:inkscape="http://www.inkscape.org/namespaces/inkscape" version="1.1" width="567.000" height="269.280" viewBox="0 0 567.000 269.280"><g transform="scale(10.0) translate(-438.573, -181.872)"><defs><clipPath id="clip_2"><path transform="matrix(1,0,0,-1,0,595.276)" d="M74.4 .196H767.4V595.276H74.4Z"/></clipPath></defs><path transform="matrix(1,0,0,-1,0,595.276)" d="M492.48 412.036H440.64C440.64 412.036 440.52 412.036 440.4 411.916 440.4 411.916 440.4 411.796 440.4 411.676V387.916 387.796 387.676H440.52L440.64 387.556H492.48C492.6 387.556 492.72 387.676 492.72 387.676 492.84 387.676 492.84 387.796 492.84 387.796V387.916 411.676C492.84 411.796 492.84 411.916 492.72 411.916 492.72 412.036 492.6 412.036 492.48 412.036Z" fill="#ffffff" fill-rule="evenodd"/><path transform="matrix(1,0,0,-1,0,595.276)" d="M448.56 390.436H447.72L447.84 390.676 447.6 390.796 447.36 390.316 447.12 389.956V389.836H447.24 447.36L447.6 390.196H448.56V389.836H447.6V389.716 389.596H448.56V389.236H447.12L447 389.116V388.996H447.12 450.24V389.116 389.236H448.8V389.596H449.88V389.716 389.836H448.8V390.196H450V390.436H448.8V390.676H448.92L448.8 390.796H448.68 448.56V390.436Z" fill-rule="evenodd"/><path transform="matrix(1,0,0,-1,0,595.276)" d="M464.52 391.996H465.12L465.24 391.516 465.48 391.156 465.72 390.796 465.96 390.556H466.08L466.2 390.676V390.796L465.96 391.036 465.72 391.396 465.48 391.756 465.36 392.116H464.52Z" fill-rule="evenodd"/><path transform="matrix(1,0,0,-1,0,595.276)" d="M464.04 391.996H463.92L463.68 391.636 463.56 391.276 463.2 390.916 462.96 390.556H463.2L463.44 390.796 463.68 391.156 463.92 391.516 464.04 391.876H464.16V391.996Z" fill-rule="evenodd"/><path transform="matrix(1,0,0,-1,0,595.276)" d="M464.64 391.036 464.4 391.156 463.68 389.476 463.2 389.356 463.32 389.116H463.44V389.236L465.6 389.476 465.96 388.996 466.08 389.116 465.72 389.716 465.24 390.316 465.12 390.196 465.48 389.596 464.04 389.476 464.64 391.036H464.76Z" fill-rule="evenodd"/><path transform="matrix(1,0,0,-1,0,595.276)" d="M466.92 389.116 467.16 388.876 467.64 389.236 468 389.596H468.12V389.716L467.88 389.836 467.52 389.356Z" fill-rule="evenodd"/><path transform="matrix(1,0,0,-1,0,595.276)" d="M470.04 388.996 470.16 389.116 470.04 389.236 469.8 389.356 469.68 389.596 469.56 389.716 470.04 390.076H470.16L470.04 390.196 469.92 390.316 469.68 390.076 469.44 389.956 469.32 390.196 469.2 390.556H469.08L469.2 390.076 469.32 389.596 469.44 389.476 469.56 389.356 469.8 389.116 470.04 388.996Z" fill-rule="evenodd"/><path transform="matrix(1,0,0,-1,0,595.276)" d="M474.12 391.996H473.16V391.756H473.88V391.036H473.16V390.916H474.12Z" fill-rule="evenodd"/><path transform="matrix(1,0,0,-1,0,595.276)" d="M471.84 392.116 471.6 392.236 471.48 391.756 471.36 391.396 471.12 391.036 470.88 390.556 471.12 390.436 471.36 390.916V388.876H471.6V391.396L471.84 391.996H471.96V392.116Z" fill-rule="evenodd"/><path transform="matrix(1,0,0,-1,0,595.276)" d="M478.8 390.676 479.04 390.556 479.28 390.916V388.876H479.52V391.396L479.76 391.996H479.88L479.76 392.116 479.52 392.236 479.4 391.756 479.28 391.396 479.04 390.916Z" fill-rule="evenodd"/><path transform="matrix(1,0,0,-1,0,595.276)" d="M481.44 391.636H481.32V389.596H481.56V391.516 391.636Z" fill-rule="evenodd"/><path transform="matrix(1,0,0,-1,0,595.276)" d="M480 391.756H480.24L480.12 391.276 480 390.916 479.88 390.556 479.76 390.316 479.88 390.196H480L480.12 390.556 480.36 391.036H480.72V390.556 390.196L480.24 390.436 480.12 390.196 480.6 389.956 480.48 389.716 480.36 389.476 480.24 389.356 480 389.116 480.12 388.996H480.24L480.36 389.116 480.48 389.356 480.72 389.596V389.836L480.84 390.076 480.96 390.676V391.156H480.36L480.48 391.756H481.08V391.876H480Z" fill-rule="evenodd"/><path transform="matrix(1,0,0,-1,0,595.276)" d="M481.56 388.876H481.8L481.92 388.996H482.04V389.116 389.236 391.996H482.16V392.116H482.04 481.8V389.356 389.236 389.116H481.68 481.56 481.44 481.32 481.44V388.996 388.876Z" fill-rule="evenodd"/><path transform="matrix(1,0,0,-1,0,595.276)" d="M484.92 391.156 484.8 390.916 485.16 390.436V388.876H485.4V390.316L485.76 390.196 486.12 389.956 486.24 390.076 485.76 390.316 485.4 390.556V392.116H485.52V392.236H485.4 485.16V390.796Z" fill-rule="evenodd"/><path transform="matrix(1,0,0,-1,0,595.276)" d="M456.12 406.996H453.96L454.2 407.236V407.356L454.08 407.476H453.96L453.6 406.876 453.24 406.276 453.48 406.036 453.72 406.396 453.84 406.756H454.68V405.676H453.12V405.436H454.68V404.116H454.92V405.436H456.36V405.676H454.92V406.756H456.12Z" fill-rule="evenodd"/><path transform="matrix(1,0,0,-1,0,595.276)" d="M463.56 405.796V405.556 405.436H462.48 462.36V405.316H462.48 463.56V404.476 404.356H463.2V404.236 404.116H463.32 463.68L463.8 404.236V404.356 405.316H464.28V405.436H463.8V405.556 405.796H463.92 463.8L463.68 405.916Z" fill-rule="evenodd"/><path transform="matrix(1,0,0,-1,0,595.276)" d="M462.6 405.076 462.48 404.956 462.72 404.836 462.96 404.596 463.2 404.716 462.84 404.956Z" fill-rule="evenodd"/><path transform="matrix(1,0,0,-1,0,595.276)" d="M466.8 404.476V405.196H468V405.436H466.8V405.796H466.92V405.916H466.8 466.68V405.436H465.36V405.196H466.68V404.476H465.12V404.356H468.36V404.476Z" fill-rule="evenodd"/><path transform="matrix(1,0,0,-1,0,595.276)" d="M449.76 390.916V392.116H447.48V390.916H449.76ZM447.72 391.636V391.636 391.876H449.52V391.636H447.72ZM449.52 391.396V391.396 391.036H447.72V391.396H449.52Z" fill-rule="evenodd"/><path transform="matrix(1,0,0,-1,0,595.276)" d="M453 391.756H452.88 452.64V392.116 392.236H452.4V391.756H451.68V392.116H451.8V392.236H451.68 451.56 451.44V391.756H451.08V391.636 391.516H451.44V389.956H451.08 450.96V389.836L451.08 389.716H452.88L453 389.836V389.956H452.88 452.64V391.516H453V391.636 391.756ZM452.4 390.556H451.68V390.916 391.036H452.4V390.916 390.556ZM452.4 391.516V391.156H451.68V391.516H452.4ZM451.68 390.436H452.4V390.316 389.956H451.68V390.316 390.436Z" fill-rule="evenodd"/><path transform="matrix(1,0,0,-1,0,595.276)" d="M454.08 390.076V389.476 389.356L453.96 389.236 453.84 389.116H453.72 453.6V388.996H453.72 454.08 454.2V389.116 389.356L454.32 389.476V392.116H453.24V391.156L453.12 390.316V389.596L452.88 389.116V388.996H453.12L453.24 389.476 453.36 390.076H454.08ZM454.08 391.036V390.316H453.36V391.036H454.08ZM454.08 391.876V391.156H453.36V391.876H454.08Z" fill-rule="evenodd"/><path transform="matrix(1,0,0,-1,0,595.276)" d="M455.76 389.236H457.56V388.996H457.8V392.116H455.52V388.996H455.76V389.236ZM455.76 390.676H457.56V389.476H455.76V390.676ZM457.56 391.996V390.796H455.76V391.996H457.56Z" fill-rule="evenodd"/><path transform="matrix(1,0,0,-1,0,595.276)" d="M460.2 388.996 460.68 389.236 461.16 389.476 461.64 389.236 462 389.116H462.12L462.24 389.236 461.76 389.356 461.4 389.596 461.52 389.956 461.76 390.196 461.88 390.556 462 390.796V390.916 391.036 391.156H461.88 461.28L461.76 391.996V392.116H461.64 459.24V391.996H459.96V391.276 390.676L459.72 390.196 459.6 389.836 459.24 389.476 459 389.236V389.116L459.12 388.996 459.48 389.356 459.72 389.716 459.96 390.196 460.2 390.556 460.56 390.076 461.04 389.596 460.56 389.356 460.08 389.116H459.96L460.08 388.996H460.2ZM460.68 390.316 460.44 390.676 460.2 391.036V391.996H461.4L460.8 390.916 461.04 390.796 461.16 390.916H461.76L461.64 390.556 461.52 390.316 461.4 390.076 461.16 389.716 460.92 390.076 460.68 390.316Z" fill-rule="evenodd"/><path transform="matrix(1,0,0,-1,0,595.276)" d="M461.16 404.476H461.28 461.4V404.956H461.88V404.836 404.716H462.12V404.836 407.116H461.16V404.476ZM461.4 405.916V406.036H461.88V405.916 405.196H461.4V405.916ZM461.88 406.156H461.4V406.876H461.88V406.156Z" fill-rule="evenodd"/><path transform="matrix(1,0,0,-1,0,595.276)" d="M467.4 391.876V390.916H467.04V390.796H468L467.64 390.436 467.16 390.076 467.28 389.956 467.76 390.316 468.24 390.796H468.84L468.6 390.556 468.36 390.316 468.12 390.196 467.88 389.956 468 389.836 468.48 390.196V388.876H468.72V390.316L469.08 390.796H470.16V390.916H469.8V391.876H468.48L468.72 392.116H468.84L468.72 392.236H468.6L468.24 391.876H467.4ZM468.12 390.916H467.64V391.636H468.12V390.916ZM468.36 391.636H468.84V390.916H468.36V391.636ZM469.56 390.916H469.08V391.636H469.56V390.916Z" fill-rule="evenodd"/><path transform="matrix(1,0,0,-1,0,595.276)" d="M472.2 390.196H472.92V390.436H472.2V390.916H472.92V391.996H471.96V388.876H472.2V389.476H472.92V389.716H472.2V390.196ZM472.8 391.756V391.036H472.2V391.756H472.8Z" fill-rule="evenodd"/><path transform="matrix(1,0,0,-1,0,595.276)" d="M473.52 389.476 473.28 389.236 472.92 389.116V388.996L473.04 388.876 473.16 388.996 473.4 389.116 473.64 389.236 473.88 388.996 474.12 388.876 474.24 388.996V389.116L474 389.236 473.76 389.476 474 389.836 474.24 390.316V390.436H474.12V390.556H474 473.04V390.316H473.16L473.28 390.076V389.836L473.4 389.596 473.52 389.476ZM473.88 390.316 473.76 389.956 473.64 389.596 473.52 389.956 473.4 390.316H473.88Z" fill-rule="evenodd"/><path transform="matrix(1,0,0,-1,0,595.276)" d="M475.44 391.516V389.956H475.32 474.96V389.836 389.716H476.88V389.836 389.956H476.52V391.516H476.88V391.636 391.756H476.52V392.116H476.64L476.52 392.236H476.28V391.756H475.68V392.116 392.236H475.56 475.44V391.756H475.32 475.08V391.636 391.516H475.32 475.44ZM476.28 391.156H475.68V391.516H476.28V391.156ZM475.68 390.556V390.556 390.916 391.036H476.28V390.916 390.556H475.68ZM476.28 390.436V390.316 389.956H475.68V390.316 390.436H476.28Z" fill-rule="evenodd"/><path transform="matrix(1,0,0,-1,0,595.276)" d="M477.96 390.076V389.476 389.356 389.236H477.84V389.116H477.6 477.48 477.6V388.996H477.96 478.08L478.2 389.116V389.356 389.476 392.116H477.12V391.156 390.316L477 389.596 476.88 389.116V388.996H477L477.24 389.476 477.36 390.076H477.96ZM477.36 391.036H477.96V390.316H477.36V391.036ZM477.96 391.156H477.36V391.876H477.96V391.156Z" fill-rule="evenodd"/><path transform="matrix(1,0,0,-1,0,595.276)" d="M483.6 389.596 483.84 389.836 484.08 390.196 483.36 390.676 483.12 390.316 482.88 390.436 483.12 390.796 483.36 391.276 483.6 391.756 483.72 392.236 483.96 392.116H484.08L483.96 391.996 483.84 391.756H484.44L484.56 391.636 484.68 391.516V391.396L484.44 390.676 484.2 390.076 484.08 389.716 483.72 389.356 483.48 389.116 483.12 388.876 483 388.996 483.24 389.236 483.6 389.596ZM484.44 391.516H483.84L483.48 390.796 484.08 390.436 484.32 390.916 484.44 391.516Z" fill-rule="evenodd"/><path transform="matrix(1,0,0,-1,0,595.276)" d="M461.28 395.116 461.52 394.276 461.76 395.116H462.24L461.64 393.436C461.64 393.316 461.64 393.316 461.52 393.196H461.4C461.28 393.196 461.28 393.196 461.16 393.196 461.04 393.196 461.04 393.196 460.92 393.196V393.556C461.04 393.556 461.16 393.556 461.16 393.556H461.28V393.676 393.796L460.8 395.116H461.28Z" fill-rule="evenodd"/><path transform="matrix(1,0,0,-1,0,595.276)" d="M452.52 395.116 452.64 394.996C452.76 394.996 452.88 394.876 453 394.876 453.48 394.876 453.72 394.636 453.72 394.276 453.72 393.796 453.36 393.556 452.88 393.556 452.64 393.556 452.52 393.676 452.28 393.676 452.16 393.796 452.04 393.916 451.92 394.036L452.28 394.276C452.52 394.036 452.64 394.036 452.88 394.036 453.12 394.036 453.24 394.036 453.24 394.276 453.24 394.396 453 394.516 452.76 394.516 452.4 394.516 452.16 394.756 452.04 395.116 452.16 395.476 452.4 395.716 452.88 395.716 453.12 395.716 453.24 395.716 453.36 395.716 453.48 395.596 453.6 395.476 453.72 395.476L453.36 395.116C453.24 395.236 453 395.356 452.88 395.356 452.64 395.356 452.64 395.236 452.52 395.116Z" fill-rule="evenodd"/><path transform="matrix(1,0,0,-1,0,595.276)" d="M455.04 393.676C455.04 393.676 454.8 393.556 454.68 393.556 454.56 393.556 454.32 393.676 454.2 393.676 454.2 393.796 454.2 393.796 454.08 393.916V394.036 395.116H454.56V394.156 394.036C454.68 394.036 454.68 394.036 454.8 394.036H454.92L455.04 394.156V394.276 395.116H455.4V393.676H455.04Z" fill-rule="evenodd"/><path transform="matrix(1,0,0,-1,0,595.276)" d="M455.88 395.116V393.676H456.24V394.516C456.24 394.756 456.36 394.756 456.48 394.876 456.72 394.756 456.72 394.756 456.72 394.516V393.676H457.2V394.636 394.756C457.2 394.996 456.96 395.236 456.6 395.236 456.48 395.236 456.48 395.236 456.36 395.116 456.36 395.116 456.24 395.116 456.24 394.996V395.116H455.88Z" fill-rule="evenodd"/><path transform="matrix(1,0,0,-1,0,595.276)" d="M473.28 393.676C473.28 393.676 473.04 393.556 472.92 393.556 472.8 393.556 472.68 393.676 472.56 393.676 472.44 393.796 472.44 393.796 472.44 393.916 472.32 393.916 472.32 394.036 472.32 394.036V395.116H472.8V394.156 394.036C472.92 394.036 472.92 394.036 473.04 394.036H473.16L473.28 394.156V394.276 395.116H473.76V393.676H473.28Z" fill-rule="evenodd"/><path transform="matrix(1,0,0,-1,0,595.276)" d="M445.8 393.556C446.04 393.556 446.16 393.676 446.28 393.676 446.4 393.796 446.4 393.916 446.52 394.036L446.16 394.276C446.04 394.036 446.04 393.916 445.8 393.916 445.68 393.916 445.56 394.036 445.56 394.276V394.396C445.44 394.396 445.56 394.396 445.56 394.516 445.56 394.636 445.68 394.756 445.8 394.876 445.92 394.876 445.92 394.756 446.04 394.756L446.16 394.636 446.52 394.756C446.4 394.996 446.16 395.236 445.8 395.236 445.44 395.236 445.2 394.876 445.08 394.396 445.08 393.916 445.32 393.556 445.8 393.556Z" fill-rule="evenodd"/><path transform="matrix(1,0,0,-1,0,595.276)" d="M450.24 393.916V394.756H450V395.116H450.24V395.596L450.6 395.716V395.116H450.96V394.756H450.6V394.156 394.036L450.72 393.916H450.84L450.96 394.036V393.676C450.96 393.556 450.84 393.556 450.6 393.556 450.36 393.556 450.24 393.676 450.24 393.916Z" fill-rule="evenodd"/><path transform="matrix(1,0,0,-1,0,595.276)" d="M463.2 394.636C463.44 394.516 463.68 394.396 463.68 394.156 463.68 393.916 463.56 393.796 463.44 393.676 463.32 393.676 463.2 393.556 462.96 393.556 462.84 393.556 462.72 393.676 462.6 393.676 462.48 393.676 462.36 393.796 462.36 393.916L462.6 394.156C462.72 394.036 462.84 393.916 463.08 393.916 463.08 393.916 463.08 394.036 463.2 394.036 463.2 394.156 463.08 394.276 462.84 394.276 462.6 394.276 462.48 394.396 462.48 394.636 462.48 394.996 462.6 395.236 463.08 395.236 463.2 395.236 463.32 395.236 463.44 395.116L463.56 394.996 463.32 394.636C463.32 394.756 463.2 394.876 463.08 394.876 462.96 394.876 462.96 394.876 462.84 394.756L463.2 394.636Z" fill-rule="evenodd"/><path transform="matrix(1,0,0,-1,0,595.276)" d="M466.92 394.876C466.8 394.756 466.68 394.756 466.68 394.516V393.676H466.2V395.116H466.68V394.996C466.68 395.116 466.68 395.116 466.8 395.116 466.8 395.236 466.92 395.236 466.92 395.236 467.4 395.236 467.52 394.996 467.52 394.756V394.636 393.676H467.16V394.516C467.16 394.756 467.04 394.756 466.92 394.876Z" fill-rule="evenodd"/><path transform="matrix(1,0,0,-1,0,595.276)" d="M476.28 395.716V394.156 394.036C476.28 394.036 476.4 394.036 476.52 394.036V393.676H476.4 476.28C476.04 393.676 475.92 393.676 475.8 393.916V394.036 395.716H476.28Z" fill-rule="evenodd"/><path transform="matrix(1,0,0,-1,0,595.276)" d="M476.88 393.676H477.24V395.116H476.88Z" fill-rule="evenodd"/><path transform="matrix(1,0,0,-1,0,595.276)" d="M478.56 394.276C478.56 394.036 478.44 393.916 478.2 393.916 478.08 393.916 477.96 394.036 477.96 394.276V394.396 394.516C477.96 394.636 478.08 394.756 478.2 394.876 478.32 394.876 478.32 394.756 478.44 394.756L478.56 394.636 478.92 394.756C478.8 394.996 478.56 395.236 478.2 395.236 477.84 395.236 477.6 394.876 477.48 394.396 477.48 393.916 477.84 393.556 478.32 393.556 478.44 393.556 478.56 393.676 478.68 393.676 478.8 393.796 478.8 393.916 478.92 394.036L478.56 394.276Z" fill-rule="evenodd"/><path transform="matrix(1,0,0,-1,0,595.276)" d="M479.76 395.716V393.676H480.24V394.516H480.6 481.08V393.676H481.44V395.716H481.08V394.876H480.6 480.24V395.716Z" fill-rule="evenodd"/><path transform="matrix(1,0,0,-1,0,595.276)" d="M483.96 395.716V394.156 394.036C483.96 394.036 484.08 394.036 484.2 394.036L484.32 393.676H484.2C484.08 393.676 484.08 393.676 483.96 393.676 483.72 393.676 483.6 393.676 483.6 393.916V394.036 395.716H483.96Z" fill-rule="evenodd"/><path transform="matrix(1,0,0,-1,0,595.276)" d="M484.56 395.116V393.676H484.92V395.116Z" fill-rule="evenodd"/><path transform="matrix(1,0,0,-1,0,595.276)" d="M490.92 394.636C491.28 394.516 491.4 394.396 491.4 394.156 491.4 393.796 491.16 393.556 490.8 393.556 490.56 393.556 490.44 393.676 490.32 393.676 490.2 393.676 490.2 393.796 490.08 393.916L490.32 394.156C490.44 394.036 490.56 393.916 490.8 393.916L490.92 394.036C490.92 394.156 490.8 394.276 490.56 394.276 490.32 394.276 490.2 394.396 490.2 394.636 490.2 394.996 490.44 395.236 490.8 395.236 490.92 395.236 491.04 395.236 491.16 395.116 491.28 395.116 491.28 394.996 491.4 394.996L491.16 394.636C491.04 394.756 490.92 394.876 490.8 394.876 490.68 394.876 490.68 394.876 490.68 394.756H490.56L490.92 394.636Z" fill-rule="evenodd"/><path transform="matrix(1,0,0,-1,0,595.276)" d="M489.24 394.276 489 395.116H488.52L489 393.796V393.676 393.556H488.88 488.76L488.64 393.196C488.76 393.196 489 393.196 489.12 393.196H489.24C489.36 393.316 489.36 393.316 489.36 393.436L489.96 395.116H489.48L489.24 394.276Z" fill-rule="evenodd"/><path transform="matrix(1,0,0,-1,0,595.276)" d="M444.24 394.156 444 393.676H443.52L444 394.396 443.52 395.116H444L444.24 394.756 444.48 395.116H444.84L444.48 394.396 444.96 393.676H444.48Z" fill-rule="evenodd"/><path transform="matrix(1,0,0,-1,0,595.276)" d="M441.72 393.676H443.16V394.036H442.2V394.516H443.04V394.876H442.2V395.236H443.04V395.716H441.72Z" fill-rule="evenodd"/><path transform="matrix(1,0,0,-1,0,595.276)" d="M477.24 395.476C477.24 395.596 477.12 395.716 477 395.716 476.88 395.716 476.76 395.596 476.76 395.476 476.76 395.356 476.88 395.236 477 395.236 477.12 395.236 477.24 395.356 477.24 395.476Z" fill-rule="evenodd"/><path transform="matrix(1,0,0,-1,0,595.276)" d="M485.04 395.476C485.04 395.596 484.92 395.716 484.8 395.716 484.68 395.716 484.56 395.596 484.56 395.476 484.56 395.356 484.68 395.236 484.8 395.236 484.92 395.236 485.04 395.356 485.04 395.476Z" fill-rule="evenodd"/><path transform="matrix(1,0,0,-1,0,595.276)" d="M447.72 394.156 447.96 393.916C447.96 393.796 447.84 393.676 447.72 393.676 447.6 393.556 447.48 393.556 447.36 393.556 447.24 393.556 447 393.676 446.88 393.916 446.76 394.036 446.64 394.156 446.64 394.396 446.76 394.876 446.88 395.236 447.36 395.236 447.6 395.236 447.72 395.116 447.84 394.876 447.96 394.756 448.08 394.516 447.96 394.276H447.12C447.12 394.156 447.12 394.156 447.24 394.036L447.36 393.916C447.48 393.916 447.72 394.036 447.72 394.156ZM447.12 394.516H447.6V394.636C447.6 394.756 447.48 394.876 447.36 394.876 447.24 394.876 447.24 394.756 447.12 394.756 447.12 394.636 447.12 394.636 447.12 394.516Z" fill-rule="evenodd"/><path transform="matrix(1,0,0,-1,0,595.276)" d="M448.32 395.116H448.68C448.68 395.116 448.92 395.236 449.04 395.236 449.52 395.236 449.76 394.876 449.76 394.396 449.76 394.156 449.64 393.916 449.52 393.796 449.4 393.676 449.28 393.556 449.04 393.556 448.92 393.556 448.8 393.676 448.68 393.676V393.196H448.32V395.116ZM449.04 394.036C449.16 393.916 449.28 394.036 449.28 394.156H449.4V394.276 394.516L449.28 394.636C449.28 394.756 449.16 394.876 449.04 394.876 448.92 394.876 448.68 394.756 448.68 394.636V394.276C448.68 394.156 448.8 394.156 448.8 394.036 448.92 394.036 448.92 394.036 449.04 394.036Z" fill-rule="evenodd"/><path transform="matrix(1,0,0,-1,0,595.276)" d="M458.52 395.116C458.4 395.116 458.28 395.116 458.16 395.116 457.8 395.116 457.56 394.876 457.44 394.516V394.396 394.276C457.56 393.796 457.8 393.556 458.16 393.556 458.4 393.556 458.52 393.676 458.52 393.676H458.88V395.716H458.52V395.116ZM458.52 394.156C458.52 394.036 458.4 393.916 458.28 393.916 458.04 393.916 457.92 394.156 457.92 394.396 457.92 394.636 458.04 394.756 458.28 394.756H458.4C458.4 394.636 458.52 394.636 458.52 394.636V394.516 394.156Z" fill-rule="evenodd"/><path transform="matrix(1,0,0,-1,0,595.276)" d="M460.08 394.636C459.48 394.636 459.24 394.396 459.24 394.156 459.24 393.796 459.36 393.556 459.84 393.556 459.96 393.556 460.08 393.676 460.2 393.796 460.2 393.676 460.2 393.676 460.32 393.676 460.32 393.676 460.44 393.556 460.56 393.556L460.68 393.916H460.56L460.44 394.036V394.756C460.44 395.116 460.2 395.236 459.84 395.236 459.72 395.236 459.6 395.236 459.48 395.116 459.36 395.116 459.36 394.996 459.24 394.996L459.48 394.636C459.6 394.756 459.72 394.876 459.84 394.876 459.96 394.876 459.96 394.876 459.96 394.756H460.08V394.636ZM460.08 394.276V394.036H459.96C459.96 393.916 459.96 393.916 459.84 393.916 459.84 393.916 459.72 393.916 459.72 394.036 459.6 394.036 459.6 394.036 459.6 394.156 459.6 394.276 459.72 394.276 460.08 394.276Z" fill-rule="evenodd"/><path transform="matrix(1,0,0,-1,0,595.276)" d="M465.36 394.636C464.76 394.636 464.52 394.396 464.52 394.156 464.52 393.796 464.76 393.556 465.12 393.556 465.24 393.556 465.48 393.676 465.48 393.796 465.48 393.676 465.48 393.676 465.6 393.676 465.6 393.676 465.72 393.556 465.84 393.556L465.96 393.916H465.84V394.036 394.756C465.72 395.116 465.6 395.236 465.24 395.236 465 395.236 464.88 395.236 464.76 395.116 464.76 395.116 464.64 394.996 464.52 394.996L464.76 394.636C464.88 394.756 465 394.876 465.24 394.876 465.24 394.876 465.36 394.876 465.36 394.756V394.636ZM464.88 394.156C464.88 394.156 465 394.156 465 394.276 465.12 394.276 465.24 394.276 465.36 394.276V394.036C465.36 394.036 465.24 393.916 465.12 393.916 465.12 393.916 465 393.916 465 394.036 465 394.036 464.88 394.036 464.88 394.156Z" fill-rule="evenodd"/><path transform="matrix(1,0,0,-1,0,595.276)" d="M468.96 395.116C468.72 395.116 468.6 395.116 468.48 395.116 468.12 395.116 467.88 394.876 467.88 394.516V394.396 394.276C467.88 393.796 468.24 393.556 468.6 393.556 468.72 393.556 468.84 393.676 468.96 393.676H469.32V395.716H468.96V395.116ZM468.6 393.916C468.36 393.916 468.24 394.156 468.24 394.396 468.24 394.636 468.36 394.756 468.6 394.756 468.72 394.756 468.72 394.756 468.84 394.756V394.636C468.96 394.636 468.96 394.516 468.96 394.516V394.156L468.84 394.036C468.72 393.916 468.72 393.916 468.6 393.916Z" fill-rule="evenodd"/><path transform="matrix(1,0,0,-1,0,595.276)" d="M470.52 395.716V393.676H471V394.396H471.6C471.84 394.516 472.08 394.756 472.08 395.116 472.08 395.356 471.96 395.596 471.6 395.716H470.52ZM471 394.756V395.356H471.48C471.6 395.356 471.6 395.236 471.6 395.116 471.6 394.996 471.6 394.756 471.48 394.756H471.36 471Z" fill-rule="evenodd"/><path transform="matrix(1,0,0,-1,0,595.276)" d="M474.84 395.116C475.08 395.116 475.32 395.116 475.44 394.996 475.56 394.756 475.56 394.636 475.56 394.396 475.56 393.916 475.32 393.556 474.96 393.556 474.72 393.556 474.6 393.676 474.48 393.676H474.12V395.716H474.48V394.996C474.6 395.116 474.72 395.116 474.84 395.116ZM474.84 394.756C474.72 394.756 474.6 394.756 474.48 394.636V394.156C474.6 394.156 474.6 394.036 474.6 394.036 474.72 394.036 474.72 393.916 474.84 393.916 475.08 393.916 475.2 394.156 475.2 394.396 475.2 394.636 475.08 394.756 474.84 394.756Z" fill-rule="evenodd"/><path transform="matrix(1,0,0,-1,0,595.276)" d="M481.92 394.396C481.92 393.916 482.16 393.556 482.64 393.556 483.12 393.556 483.36 393.916 483.36 394.396 483.36 394.876 483.12 395.236 482.64 395.236 482.16 395.236 481.92 394.876 481.92 394.396ZM482.64 394.756C482.76 394.756 482.88 394.636 482.88 394.396 482.88 394.156 482.76 394.036 482.64 394.036 482.52 394.036 482.4 394.036 482.4 394.156 482.28 394.156 482.28 394.276 482.28 394.396 482.28 394.516 482.28 394.636 482.4 394.636 482.4 394.756 482.52 394.756 482.64 394.756Z" fill-rule="evenodd"/><path transform="matrix(1,0,0,-1,0,595.276)" d="M486.24 395.116C486.12 395.116 486 395.116 485.88 395.116 485.52 395.116 485.28 394.876 485.28 394.516V394.396 394.276C485.28 393.796 485.64 393.556 485.88 393.556 486.12 393.556 486.24 393.676 486.24 393.676H486.72V395.716H486.24V395.116ZM486.24 394.156C486.24 394.036 486.12 393.916 486 393.916 485.76 393.916 485.64 394.156 485.64 394.396 485.64 394.636 485.76 394.756 486 394.756 486.12 394.756 486.12 394.756 486.24 394.756V394.636 394.516 394.156Z" fill-rule="evenodd"/><path transform="matrix(1,0,0,-1,0,595.276)" d="M487.8 394.636C487.56 394.636 487.32 394.516 487.2 394.516 487.08 394.396 486.96 394.276 486.96 394.156 486.96 393.916 486.96 393.796 487.08 393.676 487.2 393.676 487.32 393.556 487.56 393.556 487.68 393.556 487.92 393.676 487.92 393.796 487.92 393.676 487.92 393.676 488.04 393.676 488.04 393.676 488.16 393.556 488.28 393.556L488.4 393.916H488.28V394.036 394.756C488.16 395.116 488.04 395.236 487.56 395.236 487.44 395.236 487.32 395.236 487.2 395.116 487.2 395.116 487.08 394.996 486.96 394.996L487.2 394.636C487.32 394.756 487.44 394.876 487.68 394.876 487.68 394.876 487.8 394.876 487.8 394.756V394.636ZM487.32 394.156C487.32 394.156 487.44 394.156 487.44 394.276 487.56 394.276 487.68 394.276 487.8 394.276V394.036C487.8 394.036 487.68 393.916 487.56 393.916 487.56 393.916 487.44 393.916 487.44 394.036 487.44 394.036 487.32 394.036 487.32 394.156Z" fill-rule="evenodd"/><path transform="matrix(1,0,0,-1,0,595.276)" d="M451.92 405.916V406.036H450.6V407.236H450.72V407.356H450.6 450.48 450.36V404.356H449.04V404.236H452.28V404.356H450.6V405.916Z" fill-rule="evenodd"/><path transform="matrix(1,0,0,-1,0,595.276)" d="M457.08 406.156V405.916L458.16 406.036V404.596 404.476L458.28 404.356H458.4 459.48 459.72L459.96 404.476 460.08 404.596 460.2 404.836V405.076L460.08 405.196 459.96 404.716 459.72 404.596 459.6 404.476H458.64L458.52 404.596H458.4V406.036L460.2 406.396V406.516L458.4 406.276V407.356 407.476H458.28 458.16V406.276Z" fill-rule="evenodd"/><path transform="matrix(1,0,0,-1,0,595.276)" d="M476.04 406.996H474L474.12 407.236 474.24 407.356H474.12V407.476H473.88L473.64 406.876 473.16 406.276 473.4 406.036 473.64 406.396 473.88 406.756H474.72V405.676H473.16V405.436H474.72V404.116H474.96V405.436H476.4V405.676H474.96V406.756H476.04Z" fill-rule="evenodd"/><path transform="matrix(1,0,0,-1,0,595.276)" d="M483.6 405.796V405.556 405.436H482.4V405.316H483.6V404.476 404.356H483.48 483.24 483.12V404.236 404.116H483.24 483.6 483.72V404.236H483.84V404.356 405.316H484.2V405.436H483.84V405.556 405.796L483.72 405.916H483.6Z" fill-rule="evenodd"/><path transform="matrix(1,0,0,-1,0,595.276)" d="M482.52 405.076 482.4 404.956 482.76 404.836 483 404.596 483.12 404.716 482.88 404.956Z" fill-rule="evenodd"/><path transform="matrix(1,0,0,-1,0,595.276)" d="M481.08 404.476H481.32V404.956H481.8 481.92V404.836 404.716H482.04L482.16 404.836V407.116H482.04 481.08V404.476ZM481.32 405.916V406.036H481.8L481.92 405.916V405.196H481.8 481.32V405.916ZM481.8 406.156H481.32V406.876H481.8 481.92V406.156H481.8Z" fill-rule="evenodd"/><path transform="matrix(1,0,0,-1,0,595.276)" d="M471.96 405.916V406.036H470.64V407.236 407.356H470.52 470.4V404.356H469.08V404.236H472.2V404.356H470.64V405.916Z" fill-rule="evenodd"/><path transform="matrix(1,0,0,-1,0,595.276)" d="M480.24 405.916V406.036H478.68V407.356H478.8 478.68L478.44 407.476V406.036H477V405.916H478.44V404.116H478.68V405.916Z" fill-rule="evenodd"/><path transform="matrix(1,0,0,-1,0,595.276)" d="M476.04 399.316H473.88L474.12 399.676V399.796H474L473.88 399.916 473.52 399.196 473.16 398.596 473.4 398.476 473.64 398.836 473.76 399.196H474.6V397.996H473.04V397.876H474.6V396.436H474.84V397.876H476.28V397.996H474.84V399.196H476.04Z" fill-rule="evenodd"/><path transform="matrix(1,0,0,-1,0,595.276)" d="M484.2 398.596H483.36V399.196H484.08V399.316H483.36V399.436 399.676 399.796H483.24 483.12V399.436 399.316H482.52 482.4V399.196H482.52 483.12V398.596H482.28V398.476 398.356H484.2 484.32V398.476Z" fill-rule="evenodd"/><path transform="matrix(1,0,0,-1,0,595.276)" d="M483.48 398.236V397.876H482.4 482.28V397.636H482.4 483.48V396.796 396.676H483.12V396.556 396.436H483.24 483.6L483.72 396.556V396.676 397.636H483.84 484.2V397.876H483.84 483.72V398.116H483.84V398.236H483.72 483.6Z" fill-rule="evenodd"/><path transform="matrix(1,0,0,-1,0,595.276)" d="M482.52 397.516 482.4 397.396 482.64 397.156 483 396.916 483.12 397.156 482.76 397.396Z" fill-rule="evenodd"/><path transform="matrix(1,0,0,-1,0,595.276)" d="M481.08 396.916H481.2 481.32V397.396H481.8V397.156H481.92 482.04V399.436H481.08V396.916ZM481.32 398.356V398.356H481.8V397.516H481.32V398.356ZM481.8 398.596H481.32V399.316H481.8V398.596Z" fill-rule="evenodd"/><path transform="matrix(1,0,0,-1,0,595.276)" d="M477 398.476V398.236L478.08 398.476V397.036 396.916L478.2 396.796V396.676H478.32 479.52L479.64 396.796H479.88L480 397.036 480.12 397.276 480.24 397.396 480.12 397.516H480L479.88 397.156 479.64 396.916H479.52 478.68 478.44L478.32 397.036V398.476L480.12 398.716V398.956L478.32 398.716V399.676 399.796H478.08V398.716Z" fill-rule="evenodd"/><path transform="matrix(1,0,0,-1,0,595.276)" d="M467.4 399.196 467.76 398.716 466.08 398.596 466.68 399.436H468.24V399.676H465.24V399.436H466.44L465.84 398.596H465.24L465.36 398.476V398.356L465.48 398.236V398.356L467.88 398.596 468 398.236 468.24 398.356 467.88 398.836 467.64 399.316Z" fill-rule="evenodd"/><path transform="matrix(1,0,0,-1,0,595.276)" d="M466.8 396.916V397.636H468V397.756H466.8V398.116H466.92V398.236H466.8 466.68V397.756H465.36V397.636H466.68V396.916H465.12V396.676H468.36V396.916Z" fill-rule="evenodd"/><path transform="matrix(1,0,0,-1,0,595.276)" d="M469.08 399.796V399.556H470.52V396.676H470.76V398.596L471.24 398.236 471.72 397.876 471.84 398.116 471.36 398.476 470.76 398.836V399.556H472.2V399.796Z" fill-rule="evenodd"/><path transform="matrix(1,0,0,-1,0,595.276)" d="M456.12 399.316H453.96L454.2 399.676V399.796H454.08L453.96 399.916 453.6 399.196 453.24 398.596 453.48 398.476 453.72 398.836 453.84 399.196H454.68V397.996H453.12V397.876H454.68V396.436H454.92V397.876H456.36V397.996H454.92V399.196H456.12Z" fill-rule="evenodd"/><path transform="matrix(1,0,0,-1,0,595.276)" d="M464.28 398.596H463.44V399.196H464.16V399.316H463.44V399.436 399.676 399.796H463.32 463.2V399.436 399.316H462.6 462.48V399.196H462.6 463.2V398.596H462.36L462.24 398.476V398.356H462.36 464.28 464.4V398.476Z" fill-rule="evenodd"/><path transform="matrix(1,0,0,-1,0,595.276)" d="M463.56 398.236V397.876H462.48 462.36V397.636H462.48 463.56V396.796 396.676H463.2V396.556 396.436H463.32 463.68V396.556H463.8V396.676 397.636H464.28V397.876H463.8V398.116H463.92V398.236H463.8 463.68Z" fill-rule="evenodd"/><path transform="matrix(1,0,0,-1,0,595.276)" d="M462.6 397.516 462.48 397.396 462.72 397.156 462.96 396.916 463.2 397.156 462.84 397.396Z" fill-rule="evenodd"/><path transform="matrix(1,0,0,-1,0,595.276)" d="M461.16 396.916H461.28 461.4V397.396H461.88V397.156H462.12V399.436H461.16V396.916ZM461.4 398.356V398.356H461.88V397.516H461.4V398.356ZM461.88 398.596H461.4V399.316H461.88V398.596Z" fill-rule="evenodd"/><path transform="matrix(1,0,0,-1,0,595.276)" d="M449.16 399.796V399.556H450.6V396.676H450.84V398.596L451.32 398.236 451.8 397.876 451.92 398.116 451.44 398.476 450.84 398.836V399.556H452.28V399.796Z" fill-rule="evenodd"/><path transform="matrix(1,0,0,-1,0,595.276)" d="M457.2 399.676H460.08V396.556H459.84V396.916H457.44V396.556H457.2V399.676ZM457.44 399.436V397.036H459.84V399.436H459.12V397.876 397.756H459.36L459.48 397.876 459.6 398.236 459.72 398.116H459.84L459.72 397.876V397.636L459.6 397.516H459.48 459 458.88V397.636 397.756 399.436H458.4V399.076 398.716L458.28 398.476 458.16 398.116 458.04 397.876 457.92 397.756 457.8 397.516 457.68 397.396 457.44 397.636 457.68 397.756 457.8 397.876 457.92 397.996 458.04 398.236V398.476L458.16 398.836V399.076 399.436H457.44Z" fill-rule="evenodd"/><path transform="matrix(1,0,0,-1,0,595.276)" d="M468.36 402.916 467.76 401.236H468.24L468.84 402.916V403.276H467.4V402.916Z" fill-rule="evenodd"/><path transform="matrix(1,0,0,-1,0,595.276)" d="M467.16 401.716H466.44V402.076H467.16Z" fill-rule="evenodd"/><path transform="matrix(1,0,0,-1,0,595.276)" d="M464.4 401.236V402.196C464.4 402.316 464.52 402.436 464.64 402.436 464.76 402.436 464.76 402.316 464.76 402.316V401.236H465.24V402.196C465.24 402.316 465.36 402.436 465.48 402.436H465.6C465.6 402.316 465.6 402.316 465.72 402.316V401.236H466.08V402.316 402.436C465.96 402.676 465.84 402.796 465.48 402.796 465.36 402.796 465.24 402.796 465.12 402.556 465 402.796 464.88 402.796 464.76 402.796 464.64 402.796 464.52 402.796 464.52 402.796L464.4 402.676V402.796H463.92V401.236H464.4Z" fill-rule="evenodd"/><path transform="matrix(1,0,0,-1,0,595.276)" d="M460.44 401.596H459.36V402.076L460.32 403.276H460.92V402.076H461.16V401.596H460.92V401.236H460.44V401.596ZM460.44 402.796 459.96 402.076H460.44V402.796Z" fill-rule="evenodd"/><path transform="matrix(1,0,0,-1,0,595.276)" d="M462.24 400.756V402.796H462.6V402.676C462.6 402.796 462.84 402.796 462.96 402.796 463.44 402.796 463.68 402.556 463.68 402.076 463.68 401.836 463.56 401.596 463.44 401.476 463.32 401.236 463.2 401.236 462.96 401.236 462.84 401.236 462.72 401.236 462.6 401.356V400.756H462.24ZM462.96 401.596C463.08 401.596 463.2 401.716 463.2 401.836V402.196 402.316C463.2 402.436 463.08 402.436 462.96 402.436 462.72 402.436 462.6 402.316 462.6 402.196V401.836L462.72 401.716C462.84 401.596 462.84 401.596 462.96 401.596Z" fill-rule="evenodd"/><path transform="matrix(1,0,0,-1,0,595.276)" d="M471.96 401.236V402.196C471.96 402.316 472.08 402.436 472.2 402.436 472.32 402.436 472.44 402.316 472.44 402.316V401.236H472.8V402.196C472.8 402.316 472.92 402.436 473.04 402.436H473.16L473.28 402.316V401.236H473.64V402.316 402.436C473.52 402.676 473.4 402.796 473.04 402.796 472.92 402.796 472.8 402.796 472.68 402.556 472.56 402.796 472.44 402.796 472.32 402.796 472.2 402.796 472.2 402.796 472.08 402.796L471.96 402.676V402.796H471.6V401.236H471.96Z" fill-rule="evenodd"/><path transform="matrix(1,0,0,-1,0,595.276)" d="M469.8 400.756V402.796H470.16V402.676C470.28 402.796 470.4 402.796 470.52 402.796 471 402.796 471.24 402.556 471.24 402.076 471.24 401.836 471.24 401.596 471.12 401.476 470.88 401.236 470.76 401.236 470.64 401.236 470.4 401.236 470.28 401.236 470.28 401.356V400.756H469.8ZM470.52 401.596C470.64 401.596 470.76 401.716 470.88 401.836V402.196 402.316C470.76 402.436 470.64 402.436 470.52 402.436 470.4 402.436 470.28 402.316 470.28 402.196V401.836 401.716C470.4 401.596 470.4 401.596 470.52 401.596Z" fill-rule="evenodd"/><path transform="matrix(1,0,0,-1,0,595.276)" stroke-width=".12" stroke-linecap="round" stroke-linejoin="round" fill="none" stroke="#000000" d="M440.04 388.036C440.04 387.556 440.28 387.196 440.76 387.196"/><path transform="matrix(1,0,0,-1,0,595.276)" stroke-width=".12" stroke-linecap="round" stroke-linejoin="round" fill="none" stroke="#000000" d="M492.48 387.196C492.84 387.196 493.2 387.556 493.2 388.036"/><path transform="matrix(1,0,0,-1,0,595.276)" stroke-width=".12" stroke-linecap="round" stroke-linejoin="round" fill="none" stroke="#000000" d="M493.2 411.676C493.2 412.036 492.84 412.396 492.48 412.396"/><path transform="matrix(1,0,0,-1,0,595.276)" stroke-width=".12" stroke-linecap="round" stroke-linejoin="round" fill="none" stroke="#000000" d="M440.76 412.396C440.28 412.396 440.04 412.036 440.04 411.676"/><path transform="matrix(1,0,0,-1,0,595.276)" stroke-width=".12" stroke-linecap="round" stroke-linejoin="round" fill="none" stroke="#000000" d="M440.4 387.916C440.4 387.796 440.52 387.556 440.64 387.556"/><path transform="matrix(1,0,0,-1,0,595.276)" stroke-width=".12" stroke-linecap="round" stroke-linejoin="round" fill="none" stroke="#000000" d="M492.48 387.556C492.72 387.556 492.84 387.796 492.84 387.916"/><path transform="matrix(1,0,0,-1,0,595.276)" stroke-width=".12" stroke-linecap="round" stroke-linejoin="round" fill="none" stroke="#000000" d="M492.84 411.676C492.84 411.916 492.72 412.036 492.48 412.036"/><path transform="matrix(1,0,0,-1,0,595.276)" stroke-width=".12" stroke-linecap="round" stroke-linejoin="round" fill="none" stroke="#000000" d="M440.64 412.036C440.52 412.036 440.4 411.916 440.4 411.676"/><path transform="matrix(1,0,0,-1,0,595.276)" stroke-width=".12" stroke-linecap="butt" stroke-miterlimit="10" stroke-linejoin="miter" fill="none" stroke="#000000" d="M440.5 387.5H492.5"/><path transform="matrix(1,0,0,-1,0,595.276)" stroke-width=".12" stroke-linecap="butt" stroke-miterlimit="10" stroke-linejoin="miter" fill="none" stroke="#000000" d="M440.5 387.5H492.5"/><path transform="matrix(1,0,0,-1,0,595.276)" stroke-width=".12" stroke-linecap="butt" stroke-miterlimit="10" stroke-linejoin="miter" fill="none" stroke="#000000" d="M440.5 412.5H492.5"/><path transform="matrix(1,0,0,-1,0,595.276)" stroke-width=".12" stroke-linecap="butt" stroke-miterlimit="10" stroke-linejoin="miter" fill="none" stroke="#000000" d="M440.5 412.5H492.5"/><path transform="matrix(1,0,0,-1,0,595.276)" stroke-width=".12" stroke-linecap="butt" stroke-miterlimit="10" stroke-linejoin="miter" fill="none" stroke="#000000" d="M440.5 388.5V411.5"/><path transform="matrix(1,0,0,-1,0,595.276)" stroke-width=".12" stroke-linecap="butt" stroke-miterlimit="10" stroke-linejoin="miter" fill="none" stroke="#000000" d="M440.5 387.5V411.5"/><path transform="matrix(1,0,0,-1,0,595.276)" stroke-width=".12" stroke-linecap="butt" stroke-miterlimit="10" stroke-linejoin="miter" fill="none" stroke="#000000" d="M492.5 387.5V411.5"/><path transform="matrix(1,0,0,-1,0,595.276)" stroke-width=".12" stroke-linecap="butt" stroke-miterlimit="10" stroke-linejoin="miter" fill="none" stroke="#000000" d="M493.5 388.5V411.5"/><path transform="matrix(1,0,0,-1,0,595.276)" d="M492.48 387.196H440.76C440.64 387.196 440.52 387.316 440.52 387.316 440.4 387.316 440.28 387.436 440.16 387.436 440.16 387.556 440.04 387.676 440.04 387.676 440.04 387.796 440.04 387.916 440.04 388.036V411.676C440.04 411.796 440.04 411.796 440.04 411.916 440.04 412.036 440.16 412.156 440.16 412.156 440.28 412.276 440.4 412.276 440.52 412.396 440.52 412.396 440.64 412.396 440.76 412.396H492.48C492.6 412.396 492.72 412.396 492.72 412.396 492.84 412.276 492.96 412.276 492.96 412.156 493.08 412.156 493.08 412.036 493.2 411.916 493.2 411.796 493.2 411.796 493.2 411.676V388.036C493.2 387.796 493.2 387.676 492.96 387.436 492.84 387.316 492.72 387.196 492.48 387.196ZM440.4 387.916V387.916 387.796 387.676C440.52 387.676 440.64 387.556 440.64 387.556H492.48C492.6 387.556 492.6 387.556 492.6 387.676H492.72C492.84 387.676 492.84 387.796 492.84 387.796V387.916 411.676C492.84 411.796 492.84 411.916 492.72 411.916 492.72 412.036 492.6 412.036 492.48 412.036H440.64C440.64 412.036 440.52 412.036 440.4 411.916 440.4 411.916 440.4 411.796 440.4 411.676V387.916Z" fill-rule="evenodd"/><path transform="matrix(1,0,0,-1,0,595.276)" d="M452.52 388.996 452.76 389.116 452.64 389.356 452.4 389.716 452.16 389.596 452.4 389.236Z" fill-rule="evenodd"/><path transform="matrix(1,0,0,-1,0,595.276)" d="M451.08 388.996 451.32 388.876 451.56 389.116 451.8 389.476V389.596L451.68 389.716 451.32 389.236Z" fill-rule="evenodd"/><path transform="matrix(1,0,0,-1,0,595.276)" d="M476.52 388.996 476.64 389.116 476.52 389.356 476.28 389.716 476.16 389.596 476.28 389.236Z" fill-rule="evenodd"/><path transform="matrix(1,0,0,-1,0,595.276)" d="M475.08 388.996 475.2 388.876 475.44 389.116 475.68 389.476H475.8V389.596H475.68L475.56 389.716 475.32 389.236Z" fill-rule="evenodd"/><path transform="matrix(1,0,0,-1,0,595.276)" d="M464.28 406.156H463.44V406.756H464.16V406.876 406.996H463.44V407.356 407.476H463.32 463.2V406.996H462.6 462.48V406.876 406.756H462.6 463.2V406.156H462.36 462.24V406.036H462.36 464.28 464.4V406.156Z" fill-rule="evenodd"/><path transform="matrix(1,0,0,-1,0,595.276)" d="M467.4 406.876 467.76 406.396 466.08 406.276 466.68 407.116H468.24V407.236H465.24V407.116H466.44L465.84 406.276 465.24 406.156 465.36 406.036V405.916H465.48V406.036L467.88 406.276 468 405.916H468.24L467.88 406.516 467.64 406.876Z" fill-rule="evenodd"/><path transform="matrix(1,0,0,-1,0,595.276)" d="M466.68 409.276H466.08V409.636H466.68Z" fill-rule="evenodd"/><path transform="matrix(1,0,0,-1,0,595.276)" d="M463.92 408.916V409.876C464.04 409.996 464.16 409.996 464.28 409.996 464.4 409.996 464.4 409.996 464.4 409.876V408.916H464.88V409.876C464.88 409.996 465 409.996 465.12 409.996H465.24V409.876 408.916H465.72V409.996 410.116C465.6 410.356 465.36 410.476 465.12 410.476 465 410.476 464.76 410.356 464.76 410.236 464.64 410.356 464.52 410.476 464.28 410.476 464.28 410.476 464.16 410.476 464.16 410.356 464.04 410.356 464.04 410.356 463.92 410.356H463.56V408.916H463.92Z" fill-rule="evenodd"/><path transform="matrix(1,0,0,-1,0,595.276)" d="M470.16 409.876C470.16 410.236 470.04 410.596 469.92 410.716 469.8 410.956 469.56 411.076 469.2 411.076 468.96 411.076 468.72 410.956 468.6 410.716 468.48 410.596 468.36 410.236 468.36 409.876 468.36 409.516 468.48 409.276 468.6 409.156 468.72 408.916 468.96 408.796 469.2 408.796 469.56 408.796 469.8 408.916 469.92 409.156 470.04 409.276 470.16 409.516 470.16 409.876ZM469.68 409.876C469.68 409.756 469.68 409.516 469.56 409.396 469.56 409.276 469.44 409.276 469.2 409.276 468.96 409.276 468.84 409.516 468.84 409.876 468.84 410.116 468.84 410.356 468.96 410.476 468.96 410.596 469.08 410.596 469.2 410.596 469.56 410.596 469.68 410.356 469.68 409.876Z" fill-rule="evenodd"/><path transform="matrix(1,0,0,-1,0,595.276)" d="M462.72 409.876C462.12 409.876 461.88 409.756 461.88 409.396 461.88 409.036 462.12 408.796 462.48 408.796 462.6 408.796 462.84 408.916 462.84 409.036 462.84 408.916 462.84 408.916 462.96 408.916 462.96 408.916 463.08 408.916 463.2 408.916L463.32 409.156H463.2V409.276 409.996C463.08 410.356 462.96 410.476 462.48 410.476 462.36 410.476 462.24 410.476 462.12 410.356 462.12 410.356 462 410.236 461.88 410.236L462.12 409.876C462.24 409.996 462.36 410.116 462.6 410.116L462.72 409.996V409.876ZM462.24 409.396 462.36 409.516C462.48 409.516 462.6 409.516 462.72 409.516V409.276C462.72 409.276 462.6 409.156 462.48 409.156 462.48 409.156 462.36 409.156 462.36 409.276 462.36 409.276 462.24 409.276 462.24 409.396Z" fill-rule="evenodd"/><path transform="matrix(1,0,0,-1,0,595.276)" d="M473.16 408.916V409.876C473.16 409.996 473.4 409.996 473.52 409.996 473.52 409.996 473.64 409.996 473.64 409.876V408.916H474.12V409.876C474.12 409.996 474.24 409.996 474.36 409.996H474.48V409.876 408.916H474.96V409.996C474.96 409.996 474.96 410.116 474.84 410.116 474.84 410.356 474.6 410.476 474.36 410.476 474.12 410.476 474 410.356 473.88 410.236 473.88 410.356 473.76 410.476 473.52 410.476 473.52 410.476 473.4 410.476 473.4 410.356 473.28 410.356 473.28 410.356 473.16 410.356H472.8V408.916H473.16Z" fill-rule="evenodd"/><path transform="matrix(1,0,0,-1,0,595.276)" d="M471.96 409.876C471.36 409.876 471.12 409.756 471.12 409.396 471.12 409.036 471.36 408.796 471.72 408.796 471.84 408.796 471.96 408.916 472.08 409.036 472.08 408.916 472.08 408.916 472.2 408.916 472.2 408.916 472.32 408.916 472.44 408.916L472.56 409.156H472.44V409.276 409.996C472.32 410.356 472.2 410.476 471.72 410.476 471.6 410.476 471.48 410.476 471.36 410.356 471.24 410.356 471.24 410.236 471.12 410.236L471.36 409.876C471.48 409.996 471.6 410.116 471.72 410.116 471.84 410.116 471.84 410.116 471.96 409.996V409.876ZM471.48 409.396 471.6 409.516C471.72 409.516 471.84 409.516 471.96 409.516V409.276C471.96 409.276 471.84 409.156 471.72 409.156 471.72 409.156 471.6 409.156 471.6 409.276 471.48 409.276 471.48 409.276 471.48 409.396Z" fill-rule="evenodd"/><path transform="matrix(1,0,0,-1,0,595.276)" d="M460.56 410.476 459.84 408.916H460.32L461.04 410.476V410.956H459.6V410.476Z" fill-rule="evenodd"/><path transform="matrix(1,0,0,-1,0,595.276)" d="M484.32 406.156H483.48 483.36V406.756H483.48 484.08V406.876 406.996H483.48 483.36V407.356H483.48L483.36 407.476H483.24 483.12V406.996H482.52 482.4V406.876L482.52 406.756H483.12V406.156H482.28V406.036H484.32V406.156Z" fill-rule="evenodd"/><path transform="matrix(1,0,0,-1,0,595.276)" d="M467.88 408.916V410.956H467.52C467.52 410.836 467.4 410.836 467.4 410.836 467.28 410.716 467.28 410.716 467.16 410.716V410.356H467.4V408.916H467.88Z" fill-rule="evenodd"/></g></svg>