<?xml version='1.0' encoding='UTF-8'?>
<svg xmlns="http://www.w3.org/2000/svg" xmlns:xlink="http://www.w3.org/1999/xlink" xmlns:inkscape="http://www.inkscape.org/namespaces/inkscape" version="1.1" width="567.000" height="269.280" viewBox="0 0 567.000 269.280"><g transform="scale(10.0) translate(-438.573, -262.656)"><defs><clipPath id="clip_2"><path transform="matrix(1,0,0,-1,0,595.276)" d="M74.4 .196H767.4V595.276H74.4Z"/></clipPath></defs><path transform="matrix(1,0,0,-1,0,595.276)" d="M440.64 330.796H493.08C493.2 330.796 493.2 330.796 493.32 330.796 493.32 330.676 493.32 330.676 493.44 330.676 493.44 330.556 493.44 330.556 493.56 330.436V330.316 307.756C493.56 307.756 493.56 307.636 493.44 307.516L493.32 307.396C493.2 307.396 493.2 307.396 493.08 307.396H440.64C440.52 307.396 440.4 307.396 440.4 307.516 440.28 307.516 440.28 307.636 440.28 307.636V307.756 330.316C440.28 330.436 440.28 330.556 440.4 330.676 440.4 330.676 440.52 330.796 440.64 330.796Z" fill="#ffffff" fill-rule="evenodd"/><path transform="matrix(1,0,0,-1,0,595.276)" d="M440.64 331.276H493.08C493.2 331.276 493.32 331.156 493.44 331.156 493.56 331.156 493.68 331.036 493.68 330.916 493.8 330.916 493.92 330.796 493.92 330.676 493.92 330.556 494.04 330.436 494.04 330.316V307.756C494.04 307.636 493.92 307.396 493.68 307.156 493.56 307.036 493.32 306.916 493.08 306.916H440.64C440.52 306.916 440.28 307.036 440.04 307.156 439.92 307.276 439.92 307.396 439.8 307.516 439.8 307.636 439.8 307.756 439.8 307.756V330.316C439.8 330.556 439.92 330.796 440.04 330.916 440.28 331.156 440.52 331.276 440.64 331.276ZM440.64 330.796C440.52 330.796 440.4 330.676 440.4 330.676 440.28 330.556 440.28 330.436 440.28 330.316V307.756C440.28 307.756 440.28 307.636 440.4 307.516 440.4 307.396 440.52 307.396 440.64 307.396H493.08C493.2 307.396 493.2 307.396 493.32 307.396L493.44 307.516C493.56 307.636 493.56 307.756 493.56 307.756V330.316C493.56 330.436 493.56 330.556 493.44 330.676 493.32 330.676 493.2 330.796 493.08 330.796H440.64Z" fill-rule="evenodd"/><path transform="matrix(1,0,0,-1,0,595.276)" d="M454.08 328.516H454.68L454.08 327.556 454.8 326.476H454.08L453.72 327.076 453.36 326.476H452.76L453.48 327.556 452.88 328.516H453.48L453.72 327.916Z" fill-rule="evenodd"/><path transform="matrix(1,0,0,-1,0,595.276)" d="M456 328.636C456.24 328.636 456.48 328.636 456.6 328.516 456.72 328.396 456.84 328.276 456.96 328.036L456.48 327.796C456.36 328.036 456.24 328.156 456 328.156 455.76 328.156 455.64 327.916 455.52 327.676V327.556 327.436L455.64 327.316C455.64 327.076 455.76 326.956 456 326.956 456.12 326.956 456.24 326.956 456.36 326.956 456.36 327.076 456.48 327.196 456.48 327.316L456.96 327.076C456.84 326.596 456.48 326.356 456 326.356 455.4 326.356 455.04 326.836 455.04 327.556 455.04 328.276 455.4 328.636 456 328.636Z" fill-rule="evenodd"/><path transform="matrix(1,0,0,-1,0,595.276)" d="M459.12 327.316C459.12 328.156 458.76 328.636 458.16 328.636 457.56 328.636 457.2 328.276 457.2 327.556 457.2 327.196 457.32 326.956 457.44 326.836 457.68 326.476 457.92 326.356 458.28 326.356 458.52 326.356 459 326.596 459 326.716L458.64 327.076C458.64 326.956 458.4 326.956 458.28 326.956 458.16 326.956 458.04 326.956 457.92 327.076 457.92 327.076 457.8 327.076 457.8 327.196V327.316H459.12ZM457.8 327.796V327.796C457.8 327.796 457.8 327.916 457.92 328.036 457.92 328.156 458.04 328.156 458.16 328.156 458.28 328.156 458.52 328.036 458.52 327.796H457.8Z" fill-rule="evenodd"/><path transform="matrix(1,0,0,-1,0,595.276)" d="M461.52 327.556C461.52 327.916 461.52 328.156 461.28 328.396 461.16 328.516 460.92 328.636 460.56 328.636 460.32 328.636 460.08 328.516 460.08 328.516V328.636H459.6V325.756H460.08V326.596C460.2 326.476 460.44 326.356 460.56 326.356 461.16 326.356 461.52 326.836 461.52 327.556ZM460.56 326.956C460.44 326.956 460.32 326.956 460.2 327.076 460.2 327.076 460.08 327.196 460.08 327.316V327.796C460.08 328.036 460.32 328.156 460.56 328.156 460.68 328.156 460.92 328.036 460.92 327.916V327.796H461.04V327.316 327.196H460.92C460.92 327.076 460.68 326.956 460.56 326.956Z" fill-rule="evenodd"/><path transform="matrix(1,0,0,-1,0,595.276)" d="M462.72 328.516H463.32V328.036H462.72V327.196C462.72 327.076 462.72 327.076 462.84 326.956H462.96 463.08 463.2L463.32 326.476C463.2 326.356 463.08 326.356 462.72 326.356 462.6 326.356 462.48 326.476 462.36 326.476 462.24 326.596 462.24 326.716 462.12 326.956V328.036H461.88V328.516H462.12V329.236L462.72 329.356V328.516Z" fill-rule="evenodd"/><path transform="matrix(1,0,0,-1,0,595.276)" d="M465.72 326.356C466.2 326.356 466.56 326.836 466.56 327.436 466.56 327.796 466.44 328.036 466.32 328.276 466.2 328.516 465.96 328.636 465.72 328.636 465.48 328.636 465.36 328.516 465.24 328.396V329.356H464.76V326.476H465.24V326.596C465.36 326.476 465.6 326.356 465.72 326.356ZM465.6 326.956C465.36 326.956 465.24 327.076 465.24 327.196V327.796C465.24 327.916 465.36 328.036 465.36 328.036 465.48 328.036 465.6 328.156 465.6 328.156 465.96 328.036 466.08 327.916 466.08 327.436 465.96 327.076 465.84 326.956 465.6 326.956Z" fill-rule="evenodd"/><path transform="matrix(1,0,0,-1,0,595.276)" d="M468.36 328.516H468.84V326.476H468.24V326.596C468.24 326.476 468.24 326.476 468.12 326.476 468 326.356 467.88 326.356 467.76 326.356 467.52 326.356 467.4 326.476 467.16 326.596 467.16 326.596 467.04 326.716 467.04 326.836 467.04 326.836 466.92 326.956 466.92 327.076V328.516H467.52V327.316 327.196L467.64 327.076C467.76 326.956 467.88 326.956 467.88 326.956 468 326.956 468.12 326.956 468.24 327.076 468.24 327.196 468.36 327.196 468.36 327.316V328.516Z" fill-rule="evenodd"/><path transform="matrix(1,0,0,-1,0,595.276)" d="M471.12 327.076C471.12 327.556 470.88 327.796 470.4 327.796 470.28 327.796 470.16 327.796 470.16 327.916H470.04V328.036C470.04 328.156 470.16 328.156 470.28 328.156 470.4 328.156 470.52 328.156 470.52 328.156 470.64 328.036 470.76 328.036 470.76 327.916L471.12 328.276C471 328.516 470.64 328.636 470.28 328.636 469.8 328.636 469.44 328.396 469.44 327.916 469.44 327.556 469.68 327.316 470.04 327.316 470.4 327.316 470.52 327.196 470.52 327.076 470.52 327.076 470.52 326.956 470.4 326.956H470.28C470.16 326.956 470.04 326.956 469.92 326.956 469.8 327.076 469.8 327.076 469.68 327.196L469.32 326.836C469.56 326.476 469.8 326.356 470.28 326.356 470.76 326.356 471.12 326.716 471.12 327.076Z" fill-rule="evenodd"/><path transform="matrix(1,0,0,-1,0,595.276)" d="M473.28 327.316C473.28 328.156 473.04 328.636 472.32 328.636 471.72 328.636 471.48 328.276 471.36 327.556 471.36 327.196 471.48 326.956 471.6 326.836 471.84 326.476 472.2 326.356 472.44 326.356 472.8 326.356 473.16 326.596 473.28 326.716L472.92 327.076C472.8 326.956 472.68 326.956 472.44 326.956 472.32 326.956 472.2 326.956 472.08 327.076V327.196C471.96 327.196 471.96 327.316 471.96 327.316H473.28ZM471.96 327.796V327.796C471.96 327.796 472.08 327.916 472.08 328.036 472.2 328.156 472.32 328.156 472.32 328.156 472.56 328.156 472.68 328.036 472.8 327.796H471.96Z" fill-rule="evenodd"/><path transform="matrix(1,0,0,-1,0,595.276)" d="M475.44 327.076C475.44 327.556 475.2 327.796 474.72 327.796 474.6 327.796 474.48 327.796 474.48 327.916H474.36V328.036C474.36 328.156 474.48 328.156 474.6 328.156 474.72 328.156 474.84 328.156 474.84 328.156 474.96 328.036 475.08 328.036 475.08 327.916L475.44 328.276C475.32 328.516 475.08 328.636 474.72 328.636 474.12 328.636 473.76 328.396 473.76 327.916 473.76 327.556 474 327.316 474.36 327.316 474.72 327.316 474.84 327.196 474.84 327.076V326.956C474.72 326.956 474.72 326.956 474.6 326.956 474.48 326.956 474.36 326.956 474.24 326.956 474.24 327.076 474.12 327.076 474 327.196L473.64 326.836C473.88 326.476 474.12 326.356 474.6 326.356 475.08 326.356 475.44 326.716 475.44 327.076Z" fill-rule="evenodd"/><path transform="matrix(1,0,0,-1,0,595.276)" d="M478.08 327.796V327.916C478.08 328.036 478.08 328.036 477.96 328.036 477.96 328.156 477.84 328.156 477.84 328.156 477.48 328.156 477.36 328.036 477.12 327.916L476.88 328.276C477 328.396 477.12 328.516 477.24 328.636 477.36 328.636 477.6 328.636 477.72 328.636 478.32 328.636 478.56 328.516 478.68 328.036V326.956 326.836H478.8L478.68 326.476C478.56 326.356 478.44 326.476 478.32 326.476 478.2 326.476 478.2 326.596 478.2 326.596 478.08 326.476 477.84 326.356 477.72 326.356 477.36 326.356 477.24 326.476 477 326.596 476.88 326.716 476.88 326.956 476.88 327.196 476.88 327.556 477.24 327.796 478.08 327.796ZM477.48 327.076V326.956C477.6 326.956 477.6 326.836 477.72 326.836 477.96 326.956 477.96 326.956 478.08 327.076V327.436C477.84 327.436 477.72 327.316 477.6 327.316 477.48 327.316 477.48 327.196 477.48 327.076Z" fill-rule="evenodd"/><path transform="matrix(1,0,0,-1,0,595.276)" d="M481.08 326.476V327.916C481.08 328.396 480.84 328.636 480.24 328.636 480.24 328.636 480.12 328.636 480 328.636 479.88 328.516 479.88 328.516 479.76 328.396V328.636H479.16V326.476H479.76V327.796C479.88 328.036 480 328.156 480.24 328.156 480.36 328.156 480.48 328.036 480.48 327.796V327.676 326.476H481.08Z" fill-rule="evenodd"/><path transform="matrix(1,0,0,-1,0,595.276)" d="M483 326.596C483 326.476 482.76 326.356 482.52 326.356 482.04 326.356 481.68 326.716 481.56 327.436V327.676C481.68 328.276 482.04 328.636 482.52 328.636 482.64 328.636 482.88 328.516 483.12 328.516V329.356H483.6V326.476H483V326.596ZM483 327.196V327.676 327.796 327.916C482.88 328.036 482.76 328.036 482.64 328.036 482.28 328.036 482.16 327.916 482.16 327.556 482.16 327.076 482.28 326.956 482.64 326.836 482.88 326.956 483 326.956 483 327.196Z" fill-rule="evenodd"/><path transform="matrix(1,0,0,-1,0,595.276)" d="M450.96 327.676H452.16V328.276H450.96V328.756H452.28V329.356H450.36V326.476H452.4V327.076H450.96Z" fill-rule="evenodd"/><path transform="matrix(1,0,0,-1,0,595.276)" d="M451.2 323.476C451.2 323.716 451.2 324.076 450.96 324.196 450.84 324.436 450.6 324.556 450.24 324.556 450 324.556 449.76 324.436 449.76 324.436H449.28V321.676H449.76V322.516C449.88 322.396 450.12 322.276 450.24 322.276 450.84 322.276 451.2 322.756 451.2 323.476ZM450.24 322.876C450.12 322.876 450 322.876 449.88 322.876V322.996L449.76 323.116V323.716C449.76 323.836 450 324.076 450.24 324.076 450.36 324.076 450.6 323.956 450.6 323.716H450.72V323.596 323.236 323.116H450.6C450.6 322.876 450.36 322.756 450.24 322.876Z" fill-rule="evenodd"/><path transform="matrix(1,0,0,-1,0,595.276)" d="M451.68 322.396V324.436H452.28V324.316C452.28 324.316 452.4 324.436 452.52 324.436 452.64 324.556 452.76 324.556 452.88 324.556V323.956C452.76 323.956 452.52 323.836 452.52 323.836 452.4 323.716 452.28 323.716 452.28 323.596V322.396H451.68Z" fill-rule="evenodd"/><path transform="matrix(1,0,0,-1,0,595.276)" d="M453.96 322.396V324.436H453.36V322.396Z" fill-rule="evenodd"/><path transform="matrix(1,0,0,-1,0,595.276)" d="M453.96 325.036C453.96 325.156 453.84 325.276 453.6 325.276 453.48 325.276 453.36 325.156 453.36 325.036 453.36 324.796 453.48 324.676 453.6 324.676 453.84 324.676 453.96 324.796 453.96 325.036Z" fill-rule="evenodd"/><path transform="matrix(1,0,0,-1,0,595.276)" d="M455.04 322.396 454.32 324.436H454.92L455.4 322.996 455.76 324.436H456.36L455.76 322.396H455.4Z" fill-rule="evenodd"/><path transform="matrix(1,0,0,-1,0,595.276)" d="M458.64 322.756 458.52 322.276C458.4 322.276 458.28 322.276 458.16 322.396 458.04 322.396 458.04 322.396 458.04 322.516 457.92 322.396 457.68 322.276 457.44 322.276 456.96 322.276 456.6 322.516 456.6 322.996 456.6 323.476 457.08 323.716 457.8 323.716V323.836 323.956C457.8 323.956 457.68 324.076 457.56 324.076 457.44 324.076 457.32 323.956 457.2 323.956 457.2 323.956 457.08 323.836 456.96 323.836L456.72 324.196C456.84 324.436 457.2 324.556 457.56 324.556 457.8 324.556 458.04 324.556 458.16 324.436 458.4 324.316 458.4 324.196 458.52 323.956V322.876C458.52 322.756 458.52 322.756 458.64 322.756ZM457.2 322.996C457.2 322.876 457.32 322.876 457.32 322.876 457.32 322.756 457.44 322.756 457.56 322.756 457.68 322.756 457.8 322.876 457.8 322.876V323.236C457.68 323.236 457.44 323.236 457.44 323.236 457.32 323.116 457.2 323.116 457.2 322.996Z" fill-rule="evenodd"/><path transform="matrix(1,0,0,-1,0,595.276)" d="M459.72 324.436H460.32V323.956H459.72V322.996C459.72 322.996 459.72 322.876 459.84 322.876 459.84 322.876 459.84 322.756 459.96 322.756H460.08C460.2 322.756 460.2 322.876 460.32 322.876V322.396C460.2 322.276 460.08 322.276 459.72 322.276 459.6 322.276 459.48 322.276 459.36 322.396 459.24 322.516 459.24 322.636 459.24 322.756V323.956H458.88V324.436H459.24V325.036L459.72 325.276V324.436Z" fill-rule="evenodd"/><path transform="matrix(1,0,0,-1,0,595.276)" d="M462.48 323.236C462.6 324.076 462.24 324.556 461.52 324.556 461.04 324.556 460.68 324.196 460.68 323.476 460.68 323.116 460.68 322.876 460.8 322.636 461.04 322.396 461.4 322.276 461.64 322.276 462 322.276 462.36 322.396 462.48 322.636L462.12 322.996C462 322.876 461.88 322.756 461.64 322.756 461.52 322.756 461.4 322.876 461.4 322.876L461.28 322.996C461.28 323.116 461.28 323.116 461.28 323.236H462.48ZM461.16 323.596V323.596C461.16 323.716 461.28 323.836 461.28 323.956 461.4 323.956 461.52 324.076 461.64 324.076 461.76 324.076 462 323.836 462 323.716V323.596H461.16Z" fill-rule="evenodd"/><path transform="matrix(1,0,0,-1,0,595.276)" d="M464.52 325.276V322.996 322.876C464.52 322.876 464.64 322.876 464.88 322.876L465 322.396H464.88C464.76 322.276 464.64 322.276 464.52 322.276 464.28 322.276 464.04 322.516 463.92 322.636V322.756 322.876 325.276H464.52Z" fill-rule="evenodd"/><path transform="matrix(1,0,0,-1,0,595.276)" d="M465.84 322.396V324.436H465.36V322.396Z" fill-rule="evenodd"/><path transform="matrix(1,0,0,-1,0,595.276)" d="M465.96 325.036C465.96 325.156 465.84 325.276 465.6 325.276 465.48 325.276 465.24 325.156 465.24 325.036 465.24 324.796 465.48 324.676 465.6 324.676 465.84 324.676 465.96 324.796 465.96 325.036Z" fill-rule="evenodd"/><path transform="matrix(1,0,0,-1,0,595.276)" d="M468.24 322.276V324.436H467.64V324.316C467.64 324.436 467.52 324.556 467.28 324.556 466.56 324.556 466.32 324.076 466.32 323.356 466.32 322.756 466.68 322.396 467.28 322.396 467.28 322.396 467.4 322.396 467.52 322.516 467.64 322.516 467.64 322.516 467.64 322.636V322.516C467.64 322.276 467.52 322.156 467.4 322.156 467.28 322.156 467.16 322.156 467.04 322.156 466.92 322.276 466.8 322.276 466.56 322.396L466.32 321.916C466.56 321.796 466.92 321.676 467.28 321.556 467.88 321.556 468.24 321.796 468.24 322.276ZM467.64 323.716V323.236C467.64 323.116 467.64 323.116 467.52 322.996 467.52 322.996 467.4 322.996 467.28 322.876 467.04 322.996 466.92 323.116 466.92 323.476 466.92 323.716 467.04 323.956 467.28 323.956 467.52 323.956 467.64 323.836 467.64 323.716Z" fill-rule="evenodd"/><path transform="matrix(1,0,0,-1,0,595.276)" d="M469.32 324.316C469.56 324.556 469.92 324.556 470.16 324.436 470.4 324.436 470.52 324.316 470.52 324.196 470.64 324.076 470.64 323.836 470.64 323.716V322.396H470.16V323.596C470.16 323.716 470.04 323.836 470.04 323.836 469.92 323.956 469.8 323.956 469.8 323.956 469.68 323.956 469.56 323.956 469.44 323.836 469.44 323.836 469.44 323.716 469.44 323.596V322.396H468.84V325.276H469.32V324.316Z" fill-rule="evenodd"/><path transform="matrix(1,0,0,-1,0,595.276)" d="M471.96 324.436H472.56V323.956H471.96V322.996L472.08 322.876 472.2 322.756H472.32C472.44 322.756 472.44 322.876 472.56 322.876V322.396C472.56 322.276 472.32 322.276 471.96 322.276 471.84 322.276 471.72 322.276 471.6 322.396 471.48 322.516 471.48 322.636 471.48 322.756V323.956H471.12V324.436H471.48V325.036L471.96 325.276V324.436Z" fill-rule="evenodd"/><path transform="matrix(1,0,0,-1,0,595.276)" d="M474.96 322.276C475.2 322.276 475.44 322.396 475.56 322.516 475.8 322.756 475.8 322.996 475.8 323.356 475.8 323.716 475.8 323.956 475.56 324.196 475.44 324.436 475.2 324.556 474.96 324.556 474.72 324.556 474.6 324.436 474.48 324.316V325.276H474V322.276H474.48V322.396C474.72 322.276 474.84 322.276 474.96 322.276ZM474.84 322.756C474.72 322.756 474.6 322.876 474.48 323.116V323.716C474.6 323.836 474.6 323.836 474.72 323.956H474.84C475.2 323.956 475.32 323.716 475.32 323.356 475.32 322.996 475.2 322.756 474.84 322.756Z" fill-rule="evenodd"/><path transform="matrix(1,0,0,-1,0,595.276)" d="M477.6 324.436H478.2V322.276H477.48V322.396L477.36 322.276C477.24 322.276 477.12 322.276 477 322.276 476.88 322.276 476.64 322.276 476.52 322.516 476.4 322.516 476.28 322.636 476.28 322.636 476.28 322.756 476.28 322.876 476.28 322.996V324.436H476.76V323.116C476.76 323.116 476.88 323.116 476.88 322.996V322.876C477 322.876 477.12 322.876 477.12 322.876 477.24 322.876 477.36 322.876 477.48 322.996 477.48 322.996 477.6 323.116 477.6 323.236V324.436Z" fill-rule="evenodd"/><path transform="matrix(1,0,0,-1,0,595.276)" d="M480.36 322.996C480.36 323.356 480.24 323.596 479.76 323.716 479.52 323.716 479.4 323.716 479.4 323.716L479.28 323.836C479.28 323.956 479.4 324.076 479.52 324.076 479.64 324.076 479.76 324.076 479.88 323.956 479.88 323.956 480 323.956 480 323.836L480.36 324.196C480.24 324.436 480 324.556 479.64 324.556 479.04 324.556 478.68 324.316 478.68 323.836 478.68 323.476 478.92 323.236 479.28 323.236 479.64 323.236 479.76 323.116 479.76 322.996V322.876C479.64 322.876 479.64 322.756 479.52 322.756 479.4 322.756 479.28 322.876 479.28 322.876 479.16 322.876 479.04 322.996 478.92 323.116L478.56 322.636C478.8 322.396 479.16 322.276 479.52 322.276 480.12 322.276 480.36 322.516 480.36 322.996Z" fill-rule="evenodd"/><path transform="matrix(1,0,0,-1,0,595.276)" d="M482.52 323.236C482.64 324.076 482.28 324.556 481.56 324.556 481.08 324.556 480.72 324.196 480.72 323.476 480.72 323.116 480.72 322.876 480.84 322.636 481.08 322.396 481.44 322.276 481.68 322.276 482.04 322.276 482.4 322.396 482.52 322.636L482.16 322.996C482.04 322.876 481.92 322.756 481.68 322.756 481.56 322.756 481.44 322.876 481.44 322.876L481.32 322.996C481.32 323.116 481.32 323.116 481.32 323.236H482.52ZM481.2 323.596V323.596C481.2 323.716 481.32 323.836 481.32 323.956 481.44 323.956 481.56 324.076 481.68 324.076 481.8 324.076 482.04 323.836 482.04 323.716V323.596H481.2Z" fill-rule="evenodd"/><path transform="matrix(1,0,0,-1,0,595.276)" d="M484.68 322.996C484.8 323.356 484.56 323.596 484.08 323.716 483.84 323.716 483.84 323.716 483.72 323.716 483.72 323.836 483.6 323.836 483.6 323.836 483.6 323.956 483.72 324.076 483.96 324.076 483.96 324.076 484.08 324.076 484.2 323.956 484.2 323.956 484.32 323.956 484.32 323.836L484.68 324.196C484.56 324.436 484.32 324.556 483.96 324.556 483.36 324.556 483 324.316 483 323.836 483.12 323.476 483.24 323.236 483.6 323.236 483.96 323.236 484.08 323.116 484.08 322.996V322.876C484.08 322.876 483.96 322.756 483.84 322.756 483.72 322.756 483.6 322.876 483.6 322.876 483.48 322.876 483.36 322.996 483.24 323.116L482.88 322.636C483.12 322.396 483.48 322.276 483.84 322.276 484.08 322.276 484.32 322.396 484.56 322.516 484.68 322.636 484.68 322.756 484.68 322.996Z" fill-rule="evenodd"/><path transform="matrix(1,0,0,-1,0,595.276)" d="M459.24 319.996V316.516 316.276L459.36 316.036H459.48L459.72 315.916H462.36L462.6 316.036H462.72L462.84 316.156H462.96L463.08 316.396 463.2 316.516V316.756 316.996L462.84 317.116 462.72 316.756 462.6 316.516 462.48 316.396H462.24 459.96 459.84 459.72V316.516 316.636 318.076H462.24V317.836H462.72V319.996H459.24ZM459.72 318.556V319.516H460.68V318.556H459.72ZM461.16 318.556V319.516H462.24V318.556H461.16Z" fill-rule="evenodd"/><path transform="matrix(1,0,0,-1,0,595.276)" d="M467.04 320.116H466.68V318.676H464.76V318.316H466.68V316.636H465V316.156H468.72V316.636H467.04V318.316H468.96V318.676H467.04V319.876L467.16 319.996H467.28L467.16 320.116Z" fill-rule="evenodd"/><path transform="matrix(1,0,0,-1,0,595.276)" d="M470.76 319.876V319.516H471.6V318.916 318.436L471.48 317.836 471.36 317.476 471.24 317.116 471 316.756 470.64 316.516 470.4 316.276 470.76 315.916 471.12 316.276 471.48 316.756 471.72 317.236 471.84 317.836 472.08 317.476 472.2 317.236 472.44 316.996 472.68 316.756 472.08 316.396 471.48 316.276 471.84 315.916 472.44 316.156 473.04 316.516 473.64 316.156 474.24 315.916 474.6 316.276 474 316.516 473.28 316.756 473.64 317.236 473.88 317.596 474.12 318.076 474.24 318.676 473.88 318.796 473.76 318.676H473.28L473.76 319.756 473.4 319.996 473.28 319.876H470.76ZM472.08 319.516H473.16L472.56 318.316 473.04 318.076 473.16 318.316H473.64L473.52 317.956 473.4 317.596 473.16 317.236 472.92 316.996 472.68 317.356 472.32 317.716 472.2 317.956 472.08 318.316V319.516Z" fill-rule="evenodd"/><path transform="matrix(1,0,0,-1,0,595.276)" d="M444.96 313.036 445.2 312.676 445.8 312.796V312.196H444.84V311.836H445.68L445.56 311.476 445.32 311.116 445.08 310.756 444.84 310.396 445.2 310.036 445.8 311.116V309.196H446.28V311.236L446.76 310.516 447.12 310.876 446.64 311.356 446.28 311.836H447.12V312.196H446.28V312.796L446.76 313.036 446.88 312.916H447V313.036L446.64 313.396 446.28 313.276 445.8 313.156 445.44 313.036Z" fill-rule="evenodd"/><path transform="matrix(1,0,0,-1,0,595.276)" d="M448.2 313.156 447.72 313.276 447.48 311.596 447 310.036H446.64V309.556H446.76V309.436L446.88 309.556 448.56 309.916 448.68 309.436H449.16L448.92 310.396 448.56 311.236H448.2L448.56 310.276 447.48 310.156 447.84 311.476 448.2 312.916 448.32 313.036Z" fill-rule="evenodd"/><path transform="matrix(1,0,0,-1,0,595.276)" d="M452.4 313.396V313.036H450.72V311.956H451.08V312.676H454.2V311.956H454.68V313.036H452.88V313.276 313.396H452.76Z" fill-rule="evenodd"/><path transform="matrix(1,0,0,-1,0,595.276)" d="M451.32 312.316V311.956H452.28L451.92 311.836 451.56 311.596 451.2 311.476 450.72 311.356 451.08 310.996 451.8 311.356 452.4 311.596 452.64 311.356 452.16 311.116 451.8 310.876 451.32 310.636 450.72 310.516 451.08 310.276 451.56 310.396 452.04 310.636 452.4 310.876 452.76 311.116 452.88 310.876 452.4 310.516 451.92 310.156 451.32 309.916 450.72 309.676 451.08 309.436 451.56 309.556 452.04 309.796 452.52 310.036 452.88 310.396V310.156 309.916L452.76 309.796 452.64 309.676H452.28L452.4 309.316H452.76 453L453.24 309.556 453.36 309.916V310.276L453.84 309.796 454.44 309.436 454.8 309.796 454.32 310.036 453.96 310.276 453.6 310.516 453.36 310.876 454.2 311.356H454.32V311.476 311.596L454.08 311.836 453.24 311.236 453 311.596 452.76 311.956H452.88 453.96V312.316Z" fill-rule="evenodd"/><path transform="matrix(1,0,0,-1,0,595.276)" d="M456.12 310.636 456.6 310.396 457.08 311.236 457.44 312.076 457.56 312.196 457.44 312.316H457.32L457.08 312.436 456.84 311.956 456.6 311.476 456.36 310.996Z" fill-rule="evenodd"/><path transform="matrix(1,0,0,-1,0,595.276)" d="M458.4 313.396 458.04 313.516V309.916 309.796L457.92 309.676H457.8 457.56L457.68 309.316H458.04 458.28 458.4L458.52 309.556V309.796 313.156L458.64 313.276V313.396H458.52Z" fill-rule="evenodd"/><path transform="matrix(1,0,0,-1,0,595.276)" d="M459.96 310.396 460.56 310.636 460.2 310.996 459.96 311.476 459.72 311.956 459.6 312.436H459.24L459.36 311.836 459.48 311.356 459.72 310.876Z" fill-rule="evenodd"/><path transform="matrix(1,0,0,-1,0,595.276)" d="M462 313.276V312.916H462.48V312.196H461.88V311.836H462.48L462.24 311.596 462 311.236 462.24 310.876 462.48 311.116 462.6 311.356 462.72 311.596 462.84 311.836H463.32V310.996H463.68V311.836H464.28V312.196H463.68V312.916H464.04V313.276H462ZM462.84 312.196V312.916H463.32V312.196H462.84Z" fill-rule="evenodd"/><path transform="matrix(1,0,0,-1,0,595.276)" d="M463.8 311.236V310.636H462.36V310.276H463.8V309.796H461.88V309.436H466.08V309.796H464.16V310.276H465.6V310.636H464.16V310.996L464.28 311.116V311.236H464.16Z" fill-rule="evenodd"/><path transform="matrix(1,0,0,-1,0,595.276)" d="M464.52 311.596H465V313.036 313.156H464.88L464.52 313.276Z" fill-rule="evenodd"/><path transform="matrix(1,0,0,-1,0,595.276)" d="M464.88 311.356 465.12 310.876 465.36 310.996H465.6L465.84 311.116V311.356 311.476 313.156L465.96 313.276V313.396H465.84L465.48 313.516V311.596 311.476 311.356H465.36 465.24Z" fill-rule="evenodd"/><path transform="matrix(1,0,0,-1,0,595.276)" d="M467.64 313.276V309.796L467.76 309.556V309.436L468 309.316H468.24 470.88 471 471.24L471.36 309.436 471.48 309.556 471.6 309.676V309.916L471.72 310.036V310.276L471.24 310.396V310.156L471.12 309.916 471 309.796H470.76 468.36 468.24L468.12 309.916V310.036 311.356H470.76V311.116H471.24V313.276H467.64ZM468.12 311.836V312.916H469.2V311.836H468.12ZM469.56 311.836V312.916H470.76V311.836H469.56Z" fill-rule="evenodd"/><path transform="matrix(1,0,0,-1,0,595.276)" d="M475.44 313.396H475.08V312.076H473.28V311.596H475.08V309.916H473.52V309.556H477.12V309.916H475.56V311.596H477.48V312.076H475.56V313.276H475.68V313.396Z" fill-rule="evenodd"/><path transform="matrix(1,0,0,-1,0,595.276)" d="M478.8 311.596 479.04 311.236 479.28 311.716V309.316H479.76V312.436L480.12 313.156V312.796H480.48V312.196L480.36 311.716 480.12 311.236 479.88 310.876 480.24 310.636 480.48 310.876 480.96 310.636 480.72 310.276 480.48 310.036 480.24 309.916 479.88 309.676 480.12 309.316 480.48 309.556 480.84 309.796 481.08 310.036 481.32 310.396 481.44 310.756 481.56 311.116V311.596L481.68 312.196H480.84L480.96 312.796H481.68V313.156H480.24V313.276H480.12L479.76 313.516 479.52 312.916 479.28 312.436 479.04 311.956 478.8 311.596ZM480.72 311.716H481.2L481.08 310.996 480.6 311.236 480.72 311.716Z" fill-rule="evenodd"/><path transform="matrix(1,0,0,-1,0,595.276)" d="M481.92 312.916V310.156H482.28V312.676 312.796 312.916Z" fill-rule="evenodd"/><path transform="matrix(1,0,0,-1,0,595.276)" d="M482.64 313.396V310.036 309.916 309.796L482.52 309.676H482.4 481.92L482.16 309.196 482.64 309.316H482.88L483 309.436V309.676 309.796 313.156L483.12 313.276V313.396H483Z" fill-rule="evenodd"/><path transform="matrix(1,0,0,-1,0,595.276)" d="M485.88 313.396 485.52 313.516 485.4 312.916 485.16 312.316 484.92 311.836 484.56 311.356 484.92 310.996 485.4 311.596 485.64 312.196H486.36L486.24 311.716 486.12 311.236 485.52 311.596 485.28 311.236 485.64 310.996 485.88 310.756 485.76 310.396 485.4 310.156 485.04 309.916 484.56 309.676 484.92 309.316 485.28 309.436 485.64 309.676 485.88 309.916 486.12 310.276 486.36 310.756 486.6 311.236 486.72 311.836 486.96 312.556 486.6 312.796 486.48 312.676H485.76L486 313.156 486.12 313.276 486 313.396Z" fill-rule="evenodd"/><path transform="matrix(1,0,0,-1,0,595.276)" d="M487.8 313.396H487.44V311.716L487.2 311.956 486.96 311.716 487.2 311.356 487.44 311.116V309.196H487.92V310.756L488.52 310.396 488.88 310.876 488.4 310.996 487.92 311.356V313.276H488.04V313.396H487.92Z" fill-rule="evenodd"/></g></svg>