<?xml version='1.0' encoding='UTF-8'?>
<svg xmlns="http://www.w3.org/2000/svg" xmlns:xlink="http://www.w3.org/1999/xlink" xmlns:inkscape="http://www.inkscape.org/namespaces/inkscape" version="1.1" width="567.000" height="269.280" viewBox="0 0 567.000 269.280"><g transform="scale(10.0) translate(-547.707, -505.008)"><defs><clipPath id="clip_14"><path transform="matrix(1,0,0,-1,0,595.276)" d="M74.37 .046H767.49V595.276H74.37Z"/></clipPath></defs><path transform="matrix(1,0,0,-1,0,595.276)" d="M561.03 63.976H591.18C591.45 63.976 591.72 64.066 591.93 64.276 592.14 64.486 592.23 64.786 592.23 65.026V88.156C592.23 88.276 592.23 88.426 592.17 88.546 592.11 88.696 592.05 88.816 591.93 88.906 591.84 89.026 591.69 89.086 591.57 89.146 591.45 89.206 591.3 89.236 591.18 89.236H561.03C560.79 89.236 560.49 89.116 560.28 88.906 560.19 88.816 560.1 88.666 560.04 88.546 560.01 88.426 559.98 88.276 559.98 88.156V65.026C559.98 64.786 560.07 64.486 560.28 64.276 560.4 64.186 560.52 64.096 560.64 64.036 560.79 63.976 560.91 63.976 561.03 63.976ZM561.03 64.486C560.91 64.486 560.76 64.546 560.67 64.666 560.55 64.756 560.52 64.906 560.52 65.026V88.156C560.52 88.276 560.55 88.426 560.67 88.546 560.76 88.636 560.91 88.696 561.03 88.696H591.18C591.3 88.696 591.45 88.636 591.57 88.546 591.66 88.426 591.72 88.276 591.72 88.156V65.026C591.72 64.906 591.66 64.756 591.57 64.666 591.45 64.546 591.3 64.486 591.18 64.486H561.03Z" fill-rule="evenodd"/><path transform="matrix(1,0,0,-1,0,595.276)" d="M561.03 88.696H591.18C591.24 88.696 591.3 88.666 591.36 88.666 591.45 88.636 591.51 88.576 591.57 88.546 591.6 88.486 591.66 88.426 591.66 88.366 591.69 88.276 591.72 88.216 591.72 88.156V65.026C591.72 64.906 591.66 64.756 591.57 64.666 591.51 64.606 591.45 64.576 591.36 64.546 591.3 64.516 591.24 64.486 591.18 64.486H561.03C560.91 64.486 560.76 64.546 560.67 64.666 560.55 64.756 560.52 64.906 560.52 65.026V88.156C560.52 88.456 560.73 88.696 561.03 88.696Z" fill="#ffffff" fill-rule="evenodd"/><path transform="matrix(1,0,0,-1,0,595.276)" d="M568.14 87.196V84.886H569.4V84.256H567.51V87.196Z" fill-rule="evenodd"/><path transform="matrix(1,0,0,-1,0,595.276)" d="M571.77 85.306C571.77 86.026 571.41 86.446 570.72 86.446 570.06 86.446 569.7 86.026 569.7 85.306 569.7 84.556 570.06 84.136 570.72 84.136 571.41 84.136 571.77 84.556 571.77 85.306ZM571.17 85.306C571.17 85.126 571.14 84.976 571.05 84.886 570.99 84.766 570.87 84.736 570.72 84.736 570.45 84.736 570.3 84.916 570.3 85.306 570.3 85.666 570.45 85.876 570.72 85.876 571.02 85.876 571.17 85.666 571.17 85.306Z" fill-rule="evenodd"/><path transform="matrix(1,0,0,-1,0,595.276)" d="M574.65 84.256 575.25 86.356H574.62L574.32 85.036 573.99 86.356H573.66 573.36L573.03 85.036 572.7 86.356H572.07L572.67 84.256H573.36L573.66 85.426 573.99 84.256Z" fill-rule="evenodd"/><path transform="matrix(1,0,0,-1,0,595.276)" d="M578.52 84.136V86.356H577.95V86.266C577.95 86.356 577.74 86.446 577.47 86.446 576.84 86.416 576.54 86.026 576.54 85.306 576.6 84.646 576.9 84.316 577.47 84.286 577.56 84.286 577.65 84.316 577.74 84.346 577.83 84.376 577.89 84.406 577.92 84.436V84.316C577.89 84.136 577.77 84.016 577.59 84.016 577.5 83.986 577.38 84.016 577.26 84.046 577.14 84.106 576.99 84.166 576.81 84.256L576.54 83.746C576.78 83.596 577.17 83.476 577.53 83.446 578.13 83.446 578.49 83.686 578.52 84.136ZM577.92 85.576V85.096C577.89 85.036 577.86 84.946 577.8 84.916 577.74 84.856 577.68 84.826 577.59 84.796 577.29 84.826 577.14 85.006 577.11 85.336 577.14 85.666 577.29 85.846 577.53 85.876 577.77 85.846 577.89 85.756 577.92 85.576Z" fill-rule="evenodd"/><path transform="matrix(1,0,0,-1,0,595.276)" d="M580.98 85.096C580.98 85.966 580.65 86.416 579.99 86.446 579.39 86.446 579.06 86.056 579 85.306 579 85.006 579.09 84.736 579.24 84.526 579.48 84.286 579.78 84.136 580.08 84.136 580.44 84.106 580.8 84.286 580.92 84.526L580.56 84.886C580.47 84.736 580.29 84.676 580.08 84.676 579.99 84.676 579.87 84.706 579.78 84.796 579.72 84.826 579.69 84.886 579.66 84.916 579.63 84.976 579.63 85.036 579.63 85.096H580.98ZM579.6 85.516V85.546C579.6 85.636 579.66 85.726 579.75 85.816 579.81 85.876 579.93 85.936 580.02 85.936 580.17 85.906 580.35 85.786 580.41 85.606V85.576 85.546 85.516H579.6Z" fill-rule="evenodd"/><path transform="matrix(1,0,0,-1,0,595.276)" d="M583.41 84.586 583.26 84.166C583.08 84.166 582.96 84.166 582.87 84.196 582.78 84.256 582.72 84.286 582.69 84.376 582.63 84.256 582.36 84.136 582.18 84.136 581.61 84.136 581.31 84.406 581.31 84.916 581.31 85.156 581.43 85.306 581.64 85.426 581.82 85.546 582.15 85.606 582.57 85.606V85.696C582.57 85.786 582.54 85.846 582.51 85.876 582.45 85.906 582.39 85.936 582.3 85.936 582.18 85.936 582.06 85.906 581.94 85.876 581.85 85.846 581.73 85.786 581.64 85.696L581.37 86.116C581.58 86.356 581.88 86.476 582.3 86.446 582.57 86.476 582.78 86.416 582.93 86.326 583.08 86.206 583.17 86.056 583.2 85.846V84.736C583.2 84.646 583.26 84.616 583.41 84.586ZM581.94 84.886C581.94 84.796 581.97 84.736 582 84.706 582.06 84.646 582.15 84.646 582.27 84.646 582.42 84.676 582.51 84.706 582.57 84.796V85.156C582.36 85.156 582.21 85.126 582.09 85.066 582 85.036 581.94 84.976 581.94 84.886Z" fill-rule="evenodd"/><path transform="matrix(1,0,0,-1,0,595.276)" d="M583.77 84.256V86.386H584.34V86.176C584.4 86.266 584.46 86.356 584.58 86.386 584.7 86.446 584.85 86.446 585.03 86.446V85.846C584.82 85.846 584.67 85.786 584.55 85.726 584.43 85.666 584.37 85.576 584.37 85.486V84.256H583.77Z" fill-rule="evenodd"/><path transform="matrix(1,0,0,-1,0,595.276)" d="M580.02 80.026V82.966H580.62V81.406L581.31 82.126H582.03L581.22 81.256 582.03 80.026H581.4L580.83 80.836 580.62 80.596V80.026Z" fill-rule="evenodd"/><path transform="matrix(1,0,0,-1,0,595.276)" d="M584.61 81.646C584.46 81.646 584.25 81.526 584.25 81.376V81.346 80.026H583.65V81.466 81.496C583.65 81.586 583.53 81.646 583.38 81.646 583.2 81.646 583.02 81.526 582.99 81.376V81.346 80.026H582.42V82.156H582.99V82.066C583.08 82.126 583.14 82.156 583.23 82.186 583.32 82.216 583.41 82.246 583.5 82.246 583.77 82.246 583.95 82.156 584.07 81.946 584.22 82.156 584.4 82.246 584.67 82.246 585.06 82.216 585.33 82.066 585.45 81.736 585.45 81.706 585.48 81.676 585.48 81.646 585.48 81.616 585.48 81.586 585.48 81.586V81.556 80.026H584.91V81.466C584.91 81.526 584.88 81.586 584.82 81.616 584.76 81.646 584.7 81.646 584.61 81.646Z" fill-rule="evenodd"/><path transform="matrix(1,0,0,-1,0,595.276)" d="M576.96 80.026C577.89 80.626 578.1 80.836 578.13 81.046V81.106 81.136C578.1 81.286 577.98 81.406 577.8 81.406 577.68 81.406 577.59 81.406 577.53 81.346 577.44 81.286 577.41 81.196 577.41 81.076H576.93C576.96 81.616 577.26 81.886 577.8 81.886 578.31 81.886 578.61 81.616 578.64 81.136V81.106 81.076 81.046C578.61 80.686 578.31 80.356 577.8 80.026H578.55V79.606H576.96V80.026Z" fill-rule="evenodd"/><path transform="matrix(1,0,0,-1,0,595.276)" d="M576.24 81.076V82.516H575.94V82.936C576.06 82.936 576.12 82.966 576.18 82.996 576.24 83.026 576.27 83.086 576.27 83.146H576.69V81.076H576.24Z" fill-rule="evenodd"/><path transform="matrix(1,0,0,-1,0,595.276)" d="M567.33 80.026V81.646H567.78V82.126H567.33V82.396C567.33 82.426 567.33 82.456 567.36 82.486 567.39 82.486 567.39 82.516 567.45 82.516 567.48 82.516 567.54 82.516 567.63 82.516 567.69 82.516 567.75 82.486 567.81 82.486L567.9 82.966C567.81 82.996 567.66 83.026 567.48 83.026 567.27 83.026 567.09 82.996 566.97 82.906 566.85 82.816 566.79 82.726 566.79 82.546V82.126H566.46V81.646H566.79V80.026H567.33Z" fill-rule="evenodd"/><path transform="matrix(1,0,0,-1,0,595.276)" d="M570.3 81.076C570.3 81.826 569.91 82.246 569.25 82.246 568.59 82.246 568.2 81.826 568.2 81.076 568.2 80.356 568.59 79.936 569.25 79.936 569.91 79.936 570.3 80.356 570.3 81.076ZM569.67 81.076C569.67 80.896 569.64 80.776 569.58 80.656 569.49 80.566 569.37 80.506 569.25 80.506 568.98 80.506 568.83 80.716 568.83 81.076 568.83 81.436 568.98 81.646 569.25 81.646 569.52 81.646 569.67 81.436 569.67 81.076Z" fill-rule="evenodd"/><path transform="matrix(1,0,0,-1,0,595.276)" d="M570.72 80.026V82.186H571.29V81.976C571.35 82.066 571.41 82.126 571.53 82.186 571.65 82.216 571.8 82.246 571.98 82.246V81.646C571.77 81.616 571.62 81.586 571.5 81.526 571.38 81.466 571.32 81.376 571.32 81.286V80.026H570.72Z" fill-rule="evenodd"/><path transform="matrix(1,0,0,-1,0,595.276)" d="M574.47 80.596H575.49V80.026H573.36V80.596C574.62 81.406 574.89 81.706 574.92 81.946V81.976 82.036L574.95 82.066C574.89 82.276 574.74 82.426 574.5 82.456 574.32 82.456 574.17 82.396 574.08 82.306 574.05 82.246 573.99 82.186 573.99 82.126 573.96 82.066 573.93 81.976 573.93 81.886H573.3C573.3 82.666 573.72 83.086 574.5 83.086 575.19 83.086 575.58 82.726 575.61 82.066V82.036 81.976C575.55 81.496 575.16 81.016 574.47 80.596Z" fill-rule="evenodd"/><path transform="matrix(1,0,0,-1,0,595.276)" d="M565.17 68.776 565.5 68.476 565.83 68.956V66.556H566.25V69.856L566.52 70.486 566.61 70.546 566.64 70.606V70.636L566.58 70.666 566.19 70.846 565.98 70.276 565.74 69.736 565.47 69.226Z" fill-rule="evenodd"/><path transform="matrix(1,0,0,-1,0,595.276)" d="M566.79 67.816 566.46 67.756 566.52 67.366 566.55 67.276 566.61 67.246H566.64L566.73 67.336 568.02 67.726V68.116L567.18 67.906V68.956H568.05L568.11 68.266 568.29 67.666 568.53 67.156 568.89 66.736 568.98 66.616 569.1 66.586H569.19L569.31 66.616 569.4 66.736 569.49 66.886 569.61 67.066 569.7 67.336 569.34 67.636 569.28 67.396 569.22 67.246 569.13 67.156 569.07 67.186 568.89 67.426 568.71 67.786 568.56 68.296 568.47 68.956H569.52V69.346H568.44V70.306L569.19 70.426 569.28 70.396H569.31L569.34 70.426 569.31 70.516 569.04 70.846 568.05 70.606 567.36 70.486 566.91 70.456 566.79 70.546V67.816ZM567.18 69.346V70.096L568.02 70.246V69.346H567.18Z" fill-rule="evenodd"/><path transform="matrix(1,0,0,-1,0,595.276)" d="M566.76 67.096V66.676H568.47V67.096Z" fill-rule="evenodd"/><path transform="matrix(1,0,0,-1,0,595.276)" d="M571.68 70.756 571.35 70.426 571.77 70.216 572.13 69.946 572.43 70.246 572.04 70.546Z" fill-rule="evenodd"/><path transform="matrix(1,0,0,-1,0,595.276)" d="M571.41 69.676 571.08 69.346 571.5 69.136 571.89 68.836 572.22 69.166 571.8 69.466Z" fill-rule="evenodd"/><path transform="matrix(1,0,0,-1,0,595.276)" d="M572.19 68.146 571.92 68.446 571.5 67.606 571.08 66.976 571.32 66.706 571.41 66.646H571.5L571.56 66.706 571.59 66.826Z" fill-rule="evenodd"/><path transform="matrix(1,0,0,-1,0,595.276)" d="M572.49 70.216V68.956L572.46 68.266 572.37 67.666 572.19 67.186 571.95 66.796 572.31 66.526 572.55 66.856 572.7 67.306 572.82 67.816 572.91 68.386H573.15L573.27 68.116 573.42 67.846 573.6 67.606 573.81 67.396 573.36 67.156 572.73 66.946 573.06 66.526 573.69 66.826 574.17 67.096 574.65 66.766 575.16 66.556 575.46 66.916 574.95 67.126 574.5 67.396 574.89 67.906 575.31 68.596 574.98 68.896 574.74 68.836H574.14V69.796H574.83L574.56 69.136 575.01 69.016 575.43 70.036 575.1 70.276 574.89 70.216H574.14V70.606L574.23 70.666V70.726L574.17 70.756 574.08 70.786 573.69 70.846V70.216H572.49ZM573.57 68.386H574.68L574.44 67.996 574.14 67.666 573.99 67.786 573.84 67.936 573.69 68.146 573.57 68.386ZM572.91 68.836V69.796H573.69V68.836H572.91Z" fill-rule="evenodd"/><path transform="matrix(1,0,0,-1,0,595.276)" d="M576.87 69.826 577.35 69.586 577.89 69.976 578.43 70.426 578.49 70.486 578.55 70.546 578.52 70.576 578.46 70.606 578.07 70.756 577.5 70.216Z" fill-rule="evenodd"/><path transform="matrix(1,0,0,-1,0,595.276)" d="M576.81 68.356 577.23 68.116 577.68 68.536V66.466H578.13V69.046L578.34 69.346 578.58 69.586 578.67 69.676 578.7 69.706 578.67 69.766 578.58 69.796 578.22 69.916 577.89 69.466 577.56 69.046 577.2 68.686Z" fill-rule="evenodd"/><path transform="matrix(1,0,0,-1,0,595.276)" d="M579 70.546V70.096H580.89V70.546Z" fill-rule="evenodd"/><path transform="matrix(1,0,0,-1,0,595.276)" d="M580.02 68.806V67.336L579.99 67.186 579.96 67.096 579.9 67.036 579.81 67.006H579.24L579.45 66.496H579.69 579.9L580.08 66.526 580.23 66.586 580.32 66.676 580.41 66.766 580.47 66.916 580.5 67.066V67.246 68.806H581.25V69.226H578.58V68.806Z" fill-rule="evenodd"/><path transform="matrix(1,0,0,-1,0,595.276)" d="M582.93 70.426V70.066H584.64V69.706H583.41V67.906H584.64V67.576H582.78V67.156H584.64V66.526H585.06V67.156H586.95V67.576H585.06V67.906H586.38V69.706H585.06V70.066H586.77V70.426H585.06V70.636L585.12 70.696 585.15 70.756 585.12 70.786 585.06 70.846 584.64 70.876V70.426H582.93ZM583.8 68.986V69.346H584.64V68.986H583.8ZM583.8 68.266V68.626H584.64V68.266H583.8ZM585.06 68.986V69.346H585.96V68.986H585.06ZM585.06 68.266V68.626H585.96V68.266H585.06Z" fill-rule="evenodd"/><path transform="matrix(1,0,0,-1,0,595.276)" d="M562.47 77.536V77.146H564.33V76.606H562.62V73.426H563.04V74.446L563.4 74.266 563.73 74.866 563.85 74.566 564.03 74.266 564.33 74.476V73.396H564.75V76.186H566.07V74.206L566.04 74.026 566.01 73.906 565.95 73.846 565.86 73.816H565.5L565.65 73.396 566.07 73.426 566.25 73.486 566.4 73.606 566.46 73.756 566.49 73.936V76.606H564.75V77.146H566.64V77.536H562.47ZM563.04 74.506V76.186H564.33V74.566L564.18 74.776 564.03 75.046 563.97 75.406 563.91 75.826H563.25V75.496H563.55L563.31 74.896 563.04 74.506Z" fill-rule="evenodd"/><path transform="matrix(1,0,0,-1,0,595.276)" d="M564.93 75.826V75.496H565.26L565.05 74.956 564.75 74.476 565.11 74.296 565.41 74.866 565.71 74.296 566.04 74.506 565.86 74.776 565.74 75.106 565.65 75.436V75.826Z" fill-rule="evenodd"/><path transform="matrix(1,0,0,-1,0,595.276)" d="M569.52 76.996 569.19 77.026 569.04 76.576 568.83 76.156 568.5 75.796 568.08 75.466 568.47 75.166 568.86 75.496 569.19 75.886 569.46 76.306 569.61 76.786 569.73 76.846 569.76 76.906 569.67 76.966Z" fill-rule="evenodd"/><path transform="matrix(1,0,0,-1,0,595.276)" d="M570.24 75.946 569.94 76.096 569.55 74.986 569.1 74.056 568.47 73.996 568.53 73.576 568.59 73.426 568.65 73.396H568.71L568.77 73.516 571.53 73.846 571.77 73.396 572.22 73.666 571.98 74.056 571.74 74.446 571.44 74.836 571.11 75.196 570.75 74.956 571.32 74.236 569.61 74.086 570.33 75.676 570.42 75.736 570.45 75.796 570.39 75.856Z" fill-rule="evenodd"/><path transform="matrix(1,0,0,-1,0,595.276)" d="M569.67 77.536 569.7 77.116H570.69L570.78 76.666 571.08 76.186 571.5 75.676 572.13 75.196 572.58 75.496 572.25 75.706 571.98 75.946 571.71 76.186 571.53 76.426 571.35 76.696 571.26 76.966 571.17 77.236 571.14 77.536Z" fill-rule="evenodd"/><path transform="matrix(1,0,0,-1,0,595.276)" d="M574.47 77.536V75.346H575.94V74.866H574.35V74.446H575.94V73.966H573.96V73.576H578.34V73.966H576.42V74.446H578.01V74.866H576.42V75.346H577.89V77.536H574.47ZM576.42 76.666V77.146H577.44V76.666H576.42ZM574.89 76.666V77.146H575.94V76.666H574.89ZM576.42 75.736V76.276H577.44V75.736H576.42ZM574.89 75.736V76.276H575.94V75.736H574.89Z" fill-rule="evenodd"/><path transform="matrix(1,0,0,-1,0,595.276)" d="M581.04 77.326 580.89 77.446 580.41 76.996 579.84 76.576 580.26 76.276 580.74 76.666 581.13 77.056 581.22 77.086 581.25 77.146 581.19 77.236Z" fill-rule="evenodd"/><path transform="matrix(1,0,0,-1,0,595.276)" d="M581.73 76.156H580.23V75.706H581.73V74.956H579.81V74.536H581.73V73.366H582.21V74.536H584.13V74.956H582.21V75.706H583.71V76.156H582.21V77.536L582.27 77.596 582.3 77.626 582.24 77.686 582.12 77.716 581.73 77.746Z" fill-rule="evenodd"/><path transform="matrix(1,0,0,-1,0,595.276)" d="M582.99 77.416 582.63 77.206 583.17 76.636 583.71 76.246 584.1 76.576 583.53 76.936Z" fill-rule="evenodd"/><path transform="matrix(1,0,0,-1,0,595.276)" d="M586.65 77.626V77.266H587.52V76.786H585.81V73.396H586.26V74.686L586.65 74.416 587.01 74.656 587.34 74.926 587.58 75.226 587.79 75.586 588.03 75.226 588.33 74.896 588.63 74.626 588.93 74.386 589.26 74.716V74.116L589.23 74.026 589.17 73.936 589.11 73.906 588.99 73.876H588.54L588.72 73.426 589.26 73.486 589.47 73.516 589.62 73.636 589.68 73.816 589.71 74.056V76.786H588V77.626H586.65ZM588 76.366H589.26V74.806L588.78 75.106 588.39 75.436 588.15 75.856 588 76.366ZM586.26 76.366H587.49V76.096L587.43 75.856 587.31 75.616 587.19 75.406 587.01 75.226 586.8 75.046 586.56 74.896 586.26 74.746V76.366Z" fill-rule="evenodd"/></g></svg>