<?xml version='1.0' encoding='UTF-8'?>
<svg xmlns="http://www.w3.org/2000/svg" xmlns:xlink="http://www.w3.org/1999/xlink" xmlns:inkscape="http://www.inkscape.org/namespaces/inkscape" version="1.1" width="567.000" height="269.280" viewBox="0 0 567.000 269.280"><g transform="scale(10.0) translate(-438.573, -531.936)"><defs><clipPath id="clip_2"><path transform="matrix(1,0,0,-1,0,595.276)" d="M74.4 .196H767.4V595.276H74.4Z"/></clipPath></defs><path transform="matrix(1,0,0,-1,0,595.276)" d="M440.28 59.836H493.56C493.68 59.836 493.8 59.716 493.8 59.596V40.156C493.8 40.156 493.8 40.036 493.68 40.036 493.68 39.916 493.56 39.916 493.56 39.916H440.28C440.16 39.916 440.04 39.916 440.04 40.036 439.92 40.036 439.92 40.156 439.92 40.156V59.596C439.92 59.596 439.92 59.716 440.04 59.716 440.04 59.836 440.16 59.836 440.28 59.836Z" fill="#ffffff" fill-rule="evenodd"/><path transform="matrix(1,0,0,-1,0,595.276)" d="M452.16 42.196H451.44L451.56 42.316V42.436L451.44 42.556 451.2 42.076 451.08 41.836H450.96V41.716H451.08 451.2L451.44 42.076H452.16V41.716H451.44V41.596H452.16V41.476 41.236H450.96V41.116 40.996H453.6V41.116 41.236H452.4V41.476 41.596H453.24V41.716H452.4V42.076H453.36V42.196H452.4V42.436H452.28 452.16V42.196Z" fill-rule="evenodd"/><path transform="matrix(1,0,0,-1,0,595.276)" d="M455.52 40.996 455.64 41.116 455.52 41.356 455.28 41.596 455.16 41.476 455.28 41.236Z" fill-rule="evenodd"/><path transform="matrix(1,0,0,-1,0,595.276)" d="M454.2 40.996H454.44L454.56 41.116 454.8 41.476H454.92 454.8L454.68 41.596 454.44 41.236Z" fill-rule="evenodd"/><path transform="matrix(1,0,0,-1,0,595.276)" d="M465.24 43.516H465.72L465.84 43.156 465.96 42.796 466.2 42.556 466.44 42.316H466.56V42.436L466.32 42.676 466.2 42.916 465.96 43.276 465.84 43.636H465.24Z" fill-rule="evenodd"/><path transform="matrix(1,0,0,-1,0,595.276)" d="M464.88 43.516H464.64L464.52 43.276 464.4 42.916 464.16 42.676 463.92 42.316H464.16L464.28 42.556 464.52 42.796 464.64 43.036 464.88 43.396Z" fill-rule="evenodd"/><path transform="matrix(1,0,0,-1,0,595.276)" d="M465.36 42.796H465.12L464.52 41.356H464.16V41.236 41.116H464.28V41.236L466.08 41.356 466.32 40.996 466.56 41.116 466.2 41.596 465.84 42.076 465.72 41.956 465.96 41.596 464.76 41.476 465.36 42.676Z" fill-rule="evenodd"/><path transform="matrix(1,0,0,-1,0,595.276)" d="M467.16 41.116 467.28 40.996 467.76 41.236 468.12 41.596 468 41.716 467.64 41.356Z" fill-rule="evenodd"/><path transform="matrix(1,0,0,-1,0,595.276)" d="M469.68 40.996 469.8 41.116 469.68 41.236 469.56 41.356 469.44 41.476 469.32 41.596 469.68 41.956H469.8L469.56 42.076 469.44 41.956 469.2 41.836 469.08 42.076V42.316H468.84L468.96 41.956 469.08 41.596 469.2 41.476 469.32 41.356 469.44 41.116 469.68 40.996Z" fill-rule="evenodd"/><path transform="matrix(1,0,0,-1,0,595.276)" d="M473.04 43.516H472.2V43.276H472.8V42.676H472.2V42.556H473.04Z" fill-rule="evenodd"/><path transform="matrix(1,0,0,-1,0,595.276)" d="M471.24 43.636H471L470.88 43.276 470.76 43.036 470.52 42.676 470.4 42.316 470.52 42.196 470.76 42.556V40.876H471V43.036L471.24 43.516Z" fill-rule="evenodd"/><path transform="matrix(1,0,0,-1,0,595.276)" d="M474.96 40.996 475.08 41.116 474.96 41.356 474.84 41.596 474.72 41.476 474.84 41.236Z" fill-rule="evenodd"/><path transform="matrix(1,0,0,-1,0,595.276)" d="M473.76 40.996H473.88L474.12 41.116 474.36 41.476 474.24 41.596 474 41.236Z" fill-rule="evenodd"/><path transform="matrix(1,0,0,-1,0,595.276)" d="M476.88 42.436 477 42.316H477.12L477.24 42.556V40.996H477.48V42.916L477.6 43.516H477.72 477.6L477.48 43.636 477.36 43.276 477.24 42.916 477 42.676Z" fill-rule="evenodd"/><path transform="matrix(1,0,0,-1,0,595.276)" d="M479.04 43.156H478.92V41.596H479.04V43.156Z" fill-rule="evenodd"/><path transform="matrix(1,0,0,-1,0,595.276)" d="M477.84 43.276H477.96V42.916L477.84 42.556 477.72 42.316 477.6 42.076H477.72 477.84L477.96 42.316 478.08 42.676H478.44V42.316L478.32 42.076 477.96 42.196V42.076L478.32 41.836 478.2 41.716 478.08 41.476 477.96 41.356 477.84 41.116 477.96 40.996 478.08 41.116 478.2 41.356 478.32 41.476 478.44 41.716 478.56 41.956V42.436L478.68 42.796H478.08L478.2 43.276H478.68V43.396H477.84Z" fill-rule="evenodd"/><path transform="matrix(1,0,0,-1,0,595.276)" d="M479.04 40.996H479.28 479.4V41.116H479.52V41.236 43.516H479.64 479.52L479.28 43.636V41.356 41.236 41.116H479.16 479.04 478.92L479.04 40.996Z" fill-rule="evenodd"/><path transform="matrix(1,0,0,-1,0,595.276)" d="M481.8 42.796 481.68 42.676 482.04 42.316V40.996H482.28V42.196L482.52 41.956 482.76 41.836 482.88 41.956 482.52 42.196 482.28 42.316V43.636H482.04V42.556Z" fill-rule="evenodd"/><path transform="matrix(1,0,0,-1,0,595.276)" d="M453.12 42.556V43.516 43.636H451.32V43.516 42.556H453.12ZM451.56 43.156V43.156 43.396H453V43.156H451.56ZM453 43.036V43.036 42.796 42.676H451.56V42.796 43.036H453Z" fill-rule="evenodd"/><path transform="matrix(1,0,0,-1,0,595.276)" d="M455.76 43.276V43.276H455.52V43.516 43.636H455.28V43.276H454.8V43.516 43.636H454.68 454.56V43.276H454.32 454.2V43.156H454.32 454.56V41.836H454.2V41.716H455.76V41.836H455.52V43.156H455.76V43.276ZM455.28 42.316H454.8V42.676H455.28V42.316ZM455.28 43.156V42.796H454.8V43.156H455.28ZM454.8 42.196H455.28V41.836H454.8V42.196Z" fill-rule="evenodd"/><path transform="matrix(1,0,0,-1,0,595.276)" d="M456.6 41.956V41.356 41.236L456.48 41.116H456.36 456.24 456.36V40.996H456.72V41.116H456.84V41.236 41.476 43.516H456V42.796 42.076L455.88 41.476 455.76 41.116 455.88 40.996 456 41.356 456.12 41.956H456.6ZM456.6 42.676V42.076H456.12V42.676H456.6ZM456.6 43.396V42.796H456.12V43.396H456.6Z" fill-rule="evenodd"/><path transform="matrix(1,0,0,-1,0,595.276)" d="M458.04 41.236H459.48V40.996H459.72V43.636H457.8V40.996H458.04V41.236ZM458.04 42.436H459.48V41.356H458.04V42.436ZM459.48 43.516V42.556H458.04V43.516H459.48Z" fill-rule="evenodd"/><path transform="matrix(1,0,0,-1,0,595.276)" d="M461.64 40.996 462.12 41.236 462.48 41.476 462.84 41.236 463.2 41.116 463.32 41.236 462.96 41.356 462.6 41.596 462.84 41.836 462.96 42.076 463.08 42.316 463.2 42.556V42.676L463.08 42.796H462.6L462.96 43.396V43.516L462.84 43.636H460.92V43.396H461.52V42.916L461.4 42.316 461.28 42.076 461.16 41.716 460.92 41.476 460.68 41.236V41.116H460.8L461.04 41.356 461.28 41.596 461.52 41.956 461.64 42.316 462 41.956 462.36 41.596 462 41.356 461.52 41.236V41.116L461.64 40.996ZM462 42.076 461.88 42.436 461.64 42.676 461.76 43.396H462.72L462.24 42.556 462.36 42.436 462.48 42.676H462.96L462.84 42.316 462.72 42.076 462.6 41.836 462.48 41.716 462.24 41.836 462 42.076Z" fill-rule="evenodd"/><path transform="matrix(1,0,0,-1,0,595.276)" d="M467.52 43.396V42.676H467.28V42.436H468.12L467.76 42.196 467.28 41.956 467.4 41.836 467.88 42.196 468.24 42.436H468.72L468.48 42.316 468.36 42.196 468.12 41.956 467.88 41.836 468 41.716 468.48 41.956V40.876H468.6V42.196L468.96 42.436H469.8V42.676H469.56V43.396H468.48L468.6 43.516H468.72V43.636H468.6L468.48 43.756 468.24 43.396H467.52ZM468.12 42.676H467.76V43.276H468.12V42.676ZM468.36 43.276H468.72V42.676H468.36V43.276ZM469.32 42.676H468.96V43.276H469.32V42.676Z" fill-rule="evenodd"/><path transform="matrix(1,0,0,-1,0,595.276)" d="M471.48 42.076H472.08V42.196H471.48V42.556H472.08V43.516H471.24V40.996H471.48V41.476H472.08V41.596H471.48V42.076ZM471.96 43.276V42.676H471.48V43.276H471.96Z" fill-rule="evenodd"/><path transform="matrix(1,0,0,-1,0,595.276)" d="M472.56 41.356 472.32 41.236 472.08 41.116V40.996H472.2L472.44 41.116 472.68 41.236 472.8 41.116 473.04 40.996 473.16 41.116 472.92 41.236 472.8 41.356 472.92 41.716 473.16 42.076 473.04 42.196V42.316H472.92 472.2V42.196H472.32V41.956 41.716L472.44 41.596 472.56 41.356ZM472.92 42.196 472.8 41.836 472.68 41.596 472.56 41.836 472.44 42.196H472.92Z" fill-rule="evenodd"/><path transform="matrix(1,0,0,-1,0,595.276)" d="M474.12 43.156V41.836H474 473.76 473.64V41.716H473.76 475.2 475.32V41.836H475.2 475.08 474.96V43.156H475.08 475.32V43.276H475.08 474.96V43.516L475.08 43.636H474.96 474.84V43.276H474.24V43.516L474.36 43.636H474.24 474.12V43.276H474 473.76V43.156H474 474.12ZM474.84 42.796H474.24V43.156H474.84V42.796ZM474.24 42.316V42.316 42.676H474.84V42.316H474.24ZM474.84 42.196V42.196 41.836H474.24V42.196H474.84Z" fill-rule="evenodd"/><path transform="matrix(1,0,0,-1,0,595.276)" d="M476.16 41.956V41.356 41.236H476.04V41.116H475.92 475.8V40.996H475.92 476.16L476.28 41.116 476.4 41.236V41.476 43.516H475.44V42.796 42.076L475.32 41.476 475.2 41.116H475.32V40.996H475.44L475.56 41.356 475.68 41.956H476.16ZM475.68 42.676H476.16V42.076H475.68V42.676ZM476.16 42.796H475.68V43.396H476.16V42.796Z" fill-rule="evenodd"/><path transform="matrix(1,0,0,-1,0,595.276)" d="M480.72 41.476 480.96 41.716 481.08 42.076 480.6 42.436 480.36 42.076 480.12 42.196 480.36 42.556 480.6 42.916 480.72 43.276 480.84 43.636H481.08V43.516L480.96 43.276H481.44 481.56V43.156 43.036L481.44 42.436 481.32 41.956 481.08 41.596 480.84 41.356 480.6 41.116 480.36 40.996H480.24V41.116L480.48 41.236 480.72 41.476ZM481.44 43.156H480.96L480.6 42.556 481.2 42.196 481.32 42.556 481.44 43.156Z" fill-rule="evenodd"/><path transform="matrix(1,0,0,-1,0,595.276)" d="M462.48 53.716 462.72 52.996 462.96 53.716H463.32L462.84 52.396C462.84 52.276 462.84 52.276 462.72 52.156H462.6 462.48C462.36 52.156 462.36 52.156 462.24 52.156L462.36 52.516C462.36 52.396 462.48 52.396 462.48 52.396L462.6 52.516C462.6 52.636 462.6 52.636 462.48 52.636L462.12 53.716H462.48Z" fill-rule="evenodd"/><path transform="matrix(1,0,0,-1,0,595.276)" d="M455.4 53.716 455.52 53.596C455.64 53.596 455.64 53.596 455.76 53.596 456.12 53.476 456.36 53.356 456.36 52.996 456.36 52.636 456.12 52.516 455.76 52.516 455.52 52.516 455.4 52.516 455.28 52.516 455.16 52.636 455.04 52.756 454.92 52.876L455.16 52.996C455.4 52.876 455.52 52.876 455.76 52.876 455.88 52.876 456 52.876 456 52.996 456 53.116 455.88 53.236 455.64 53.236 455.28 53.236 455.04 53.476 455.04 53.716 455.04 54.076 455.28 54.196 455.76 54.196 455.88 54.196 456 54.196 456.12 54.196 456.24 54.196 456.36 54.076 456.36 53.956L456.12 53.716C456 53.836 455.88 53.956 455.76 53.956 455.52 53.956 455.52 53.836 455.4 53.716Z" fill-rule="evenodd"/><path transform="matrix(1,0,0,-1,0,595.276)" d="M457.44 52.636C457.44 52.516 457.32 52.516 457.2 52.516 457.08 52.516 456.96 52.516 456.84 52.636 456.84 52.636 456.72 52.636 456.72 52.756V52.876 53.716H457.08V52.996 52.876C457.2 52.876 457.2 52.756 457.2 52.756 457.32 52.756 457.32 52.876 457.44 52.876V52.996 53.716H457.8V52.516H457.44V52.636Z" fill-rule="evenodd"/><path transform="matrix(1,0,0,-1,0,595.276)" d="M458.16 53.716V52.516H458.4V53.236C458.52 53.356 458.52 53.476 458.64 53.476 458.76 53.476 458.88 53.356 458.88 53.236V52.516H459.24V53.356C459.24 53.716 459 53.836 458.76 53.836 458.64 53.836 458.64 53.836 458.52 53.716H458.4 458.16Z" fill-rule="evenodd"/><path transform="matrix(1,0,0,-1,0,595.276)" d="M472.32 52.636C472.32 52.516 472.2 52.516 472.08 52.516 471.96 52.516 471.84 52.516 471.72 52.636 471.72 52.636 471.6 52.636 471.6 52.756V52.876 53.716H471.96V52.996 52.876C472.08 52.876 472.08 52.756 472.08 52.756 472.2 52.756 472.2 52.876 472.32 52.876V52.996 53.716H472.68V52.516H472.32V52.636Z" fill-rule="evenodd"/><path transform="matrix(1,0,0,-1,0,595.276)" d="M450 52.516C450.12 52.516 450.24 52.516 450.36 52.636 450.36 52.636 450.48 52.756 450.48 52.876L450.24 52.996C450.12 52.876 450.12 52.756 450 52.756 449.88 52.756 449.76 52.876 449.76 52.996V53.116H449.64C449.64 53.116 449.64 53.236 449.76 53.236 449.76 53.356 449.88 53.476 450 53.476H450.12C450.12 53.356 450.24 53.356 450.24 53.356L450.48 53.476C450.36 53.716 450.24 53.836 450 53.836 449.64 53.836 449.4 53.596 449.4 53.116 449.4 52.756 449.64 52.516 450 52.516Z" fill-rule="evenodd"/><path transform="matrix(1,0,0,-1,0,595.276)" d="M453.48 52.756V53.476H453.36V53.716H453.48V54.076L453.84 54.196V53.716H454.2V53.476H453.84V52.876C453.84 52.756 453.96 52.756 453.96 52.756H454.08V52.876L454.2 52.516C454.08 52.516 453.96 52.516 453.84 52.516 453.6 52.516 453.48 52.636 453.48 52.756Z" fill-rule="evenodd"/><path transform="matrix(1,0,0,-1,0,595.276)" d="M464.04 53.356C464.4 53.236 464.52 53.116 464.52 52.876 464.52 52.636 464.28 52.516 463.92 52.516 463.8 52.516 463.8 52.516 463.68 52.516 463.56 52.636 463.44 52.636 463.44 52.756L463.68 52.996C463.68 52.876 463.8 52.756 464.04 52.756V52.876H464.16C464.16 52.996 464.04 52.996 463.8 52.996 463.68 52.996 463.56 53.116 463.44 53.356 463.56 53.716 463.68 53.836 464.04 53.836 464.16 53.836 464.16 53.836 464.28 53.716 464.4 53.716 464.4 53.716 464.52 53.596L464.28 53.356C464.16 53.476 464.16 53.476 464.04 53.476H463.92C463.8 53.476 463.8 53.476 463.8 53.356H464.04Z" fill-rule="evenodd"/><path transform="matrix(1,0,0,-1,0,595.276)" d="M467.16 53.476C467.04 53.476 466.92 53.356 466.92 53.236V52.516H466.56V53.716H466.92 467.04C467.04 53.836 467.16 53.836 467.16 53.836 467.52 53.836 467.64 53.716 467.64 53.356V52.516H467.28V53.236C467.28 53.356 467.28 53.476 467.16 53.476Z" fill-rule="evenodd"/><path transform="matrix(1,0,0,-1,0,595.276)" d="M474.72 54.196V52.876C474.72 52.876 474.84 52.876 474.96 52.876V52.516C474.84 52.516 474.84 52.516 474.72 52.516 474.6 52.516 474.48 52.636 474.48 52.756V54.196H474.72Z" fill-rule="evenodd"/><path transform="matrix(1,0,0,-1,0,595.276)" d="M475.2 52.516H475.56V53.716H475.2Z" fill-rule="evenodd"/><path transform="matrix(1,0,0,-1,0,595.276)" d="M476.64 52.996C476.64 52.876 476.52 52.756 476.4 52.756 476.28 52.756 476.16 52.876 476.16 52.996V53.116 53.236C476.16 53.356 476.28 53.476 476.4 53.476H476.52L476.64 53.356 476.88 53.476C476.88 53.716 476.64 53.836 476.4 53.836 476.04 53.836 475.8 53.596 475.8 53.116 475.8 52.756 476.04 52.516 476.4 52.516 476.52 52.516 476.64 52.516 476.76 52.636 476.88 52.636 476.88 52.756 476.88 52.876L476.64 52.996Z" fill-rule="evenodd"/><path transform="matrix(1,0,0,-1,0,595.276)" d="M477.6 54.196V52.516H477.96V53.236H478.32 478.68V52.516H479.04V54.196H478.68V53.596H478.32 477.96V54.196Z" fill-rule="evenodd"/><path transform="matrix(1,0,0,-1,0,595.276)" d="M481.08 54.196V52.876C481.08 52.876 481.2 52.876 481.32 52.876V52.516H481.2 481.08C480.96 52.516 480.72 52.636 480.72 52.756V54.196H481.08Z" fill-rule="evenodd"/><path transform="matrix(1,0,0,-1,0,595.276)" d="M481.56 53.716V52.516H481.8V53.716Z" fill-rule="evenodd"/><path transform="matrix(1,0,0,-1,0,595.276)" d="M486.72 53.356C486.96 53.236 487.08 53.116 487.08 52.876 487.08 52.756 487.08 52.636 486.96 52.636 486.84 52.516 486.72 52.516 486.6 52.516 486.48 52.516 486.36 52.516 486.24 52.516 486.24 52.636 486.12 52.636 486 52.756L486.24 52.996C486.36 52.876 486.48 52.756 486.6 52.756 486.6 52.756 486.72 52.756 486.72 52.876 486.72 52.996 486.6 52.996 486.48 52.996 486.24 52.996 486.12 53.116 486.12 53.356 486.12 53.716 486.36 53.836 486.6 53.836 486.72 53.836 486.84 53.836 486.96 53.716 486.96 53.716 487.08 53.716 487.08 53.596L486.84 53.356C486.84 53.476 486.72 53.476 486.6 53.476H486.48V53.356H486.72Z" fill-rule="evenodd"/><path transform="matrix(1,0,0,-1,0,595.276)" d="M485.4 52.996 485.16 53.716H484.8L485.16 52.636V52.516 52.396H485.04C485.04 52.396 484.92 52.396 484.92 52.516V52.156C485.04 52.156 485.16 52.156 485.28 52.156H485.4C485.4 52.276 485.52 52.276 485.52 52.396L486 53.716H485.64L485.4 52.996Z" fill-rule="evenodd"/><path transform="matrix(1,0,0,-1,0,595.276)" d="M448.68 52.876 448.44 52.516H448.08L448.44 53.116 448.08 53.716H448.44L448.68 53.356 448.8 53.716H449.16L448.8 53.116 449.16 52.516H448.8Z" fill-rule="evenodd"/><path transform="matrix(1,0,0,-1,0,595.276)" d="M446.64 52.516H447.84V52.876H447V53.236H447.72V53.596H447V53.836H447.72V54.196H446.64Z" fill-rule="evenodd"/><path transform="matrix(1,0,0,-1,0,595.276)" d="M475.56 54.076C475.56 54.196 475.44 54.196 475.44 54.196 475.32 54.196 475.2 54.196 475.2 54.076 475.2 53.956 475.32 53.836 475.44 53.836 475.44 53.836 475.56 53.956 475.56 54.076Z" fill-rule="evenodd"/><path transform="matrix(1,0,0,-1,0,595.276)" d="M481.92 54.076C481.92 54.196 481.8 54.196 481.68 54.196 481.56 54.196 481.56 54.196 481.56 54.076 481.56 53.956 481.56 53.836 481.68 53.836 481.8 53.836 481.92 53.956 481.92 54.076Z" fill-rule="evenodd"/><path transform="matrix(1,0,0,-1,0,595.276)" d="M451.56 52.876 451.68 52.756C451.68 52.636 451.68 52.636 451.56 52.516 451.44 52.516 451.32 52.516 451.2 52.516 451.08 52.516 450.96 52.516 450.72 52.756 450.72 52.876 450.6 52.996 450.6 53.116 450.72 53.596 450.84 53.836 451.2 53.836 451.32 53.836 451.56 53.716 451.56 53.596 451.68 53.476 451.8 53.236 451.8 52.996H450.96C450.96 52.996 450.96 52.876 451.08 52.876 451.08 52.756 451.2 52.756 451.2 52.756 451.32 52.756 451.44 52.876 451.56 52.876ZM450.96 53.236H451.44V53.356C451.44 53.356 451.32 53.476 451.2 53.476H451.08C450.96 53.356 450.96 53.356 450.96 53.236Z" fill-rule="evenodd"/><path transform="matrix(1,0,0,-1,0,595.276)" d="M452.04 53.716H452.28C452.28 53.716 452.52 53.836 452.64 53.836 453 53.836 453.12 53.596 453.12 53.116 453.12 52.996 453.12 52.756 453 52.636 452.88 52.516 452.76 52.516 452.64 52.516 452.52 52.516 452.4 52.516 452.28 52.636V52.156H452.04V53.716ZM452.52 52.756C452.64 52.756 452.76 52.876 452.88 52.996V53.236 53.356C452.76 53.476 452.64 53.476 452.52 53.476 452.4 53.476 452.28 53.356 452.28 53.356V52.996L452.4 52.876 452.52 52.756Z" fill-rule="evenodd"/><path transform="matrix(1,0,0,-1,0,595.276)" d="M460.32 53.716C460.2 53.716 460.08 53.716 459.96 53.716 459.72 53.716 459.48 53.596 459.48 53.236V53.116C459.48 52.636 459.72 52.516 460.08 52.516 460.2 52.516 460.32 52.516 460.32 52.636V52.516H460.68V54.196H460.32V53.716ZM460.32 52.996C460.32 52.876 460.2 52.756 460.08 52.756 459.84 52.756 459.84 52.876 459.84 53.116 459.84 53.356 459.84 53.476 460.08 53.476 460.2 53.476 460.2 53.476 460.2 53.356H460.32V53.236 52.996Z" fill-rule="evenodd"/><path transform="matrix(1,0,0,-1,0,595.276)" d="M461.52 53.356C461.28 53.356 461.16 53.236 461.04 53.236 460.92 53.116 460.92 52.996 460.92 52.876 460.92 52.756 460.92 52.636 461.04 52.636 461.04 52.516 461.16 52.516 461.4 52.516 461.4 52.516 461.64 52.516 461.64 52.636 461.64 52.636 461.64 52.516 461.76 52.516 461.76 52.516 461.88 52.516 462 52.516V52.756C461.88 52.756 461.88 52.756 461.88 52.876V53.476C461.88 53.716 461.76 53.836 461.4 53.836 461.28 53.836 461.16 53.836 461.16 53.716 461.04 53.716 460.92 53.716 460.92 53.596L461.04 53.356C461.16 53.476 461.28 53.476 461.4 53.476H461.52V53.356ZM461.52 53.116V52.876 52.756H461.4 461.28C461.28 52.876 461.16 52.876 461.16 52.876 461.16 52.996 461.28 52.996 461.52 53.116Z" fill-rule="evenodd"/><path transform="matrix(1,0,0,-1,0,595.276)" d="M465.84 53.356C465.48 53.356 465.24 53.236 465.24 52.876 465.24 52.636 465.36 52.516 465.72 52.516 465.84 52.516 465.96 52.516 465.96 52.636 465.96 52.636 465.96 52.516 466.08 52.516 466.08 52.516 466.2 52.516 466.32 52.516V52.756C466.2 52.756 466.2 52.756 466.2 52.876V53.476C466.2 53.716 466.08 53.836 465.72 53.836 465.6 53.836 465.48 53.836 465.48 53.716 465.36 53.716 465.24 53.716 465.24 53.596L465.36 53.356C465.48 53.476 465.6 53.476 465.72 53.476H465.84V53.356ZM465.6 52.876V52.996C465.72 52.996 465.72 53.116 465.84 53.116V52.876C465.84 52.756 465.84 52.756 465.72 52.756H465.6V52.876Z" fill-rule="evenodd"/><path transform="matrix(1,0,0,-1,0,595.276)" d="M468.84 53.716C468.6 53.716 468.6 53.716 468.48 53.716 468.24 53.716 468 53.596 467.88 53.236V53.116C468 52.636 468.24 52.516 468.48 52.516 468.6 52.516 468.72 52.516 468.72 52.636V52.516H469.08V54.196H468.84V53.716ZM468.48 52.756C468.36 52.756 468.24 52.876 468.24 53.116 468.24 53.356 468.36 53.476 468.48 53.476 468.6 53.476 468.72 53.476 468.72 53.356V53.236 52.996 52.876C468.6 52.756 468.6 52.756 468.48 52.756Z" fill-rule="evenodd"/><path transform="matrix(1,0,0,-1,0,595.276)" d="M470.16 54.196V52.516H470.52V53.116H470.88 471C471.24 53.236 471.36 53.476 471.36 53.716 471.36 53.956 471.24 54.196 471 54.196H470.16ZM470.52 53.476V53.956H470.88C471 53.836 471 53.836 471 53.716 471 53.596 471 53.476 470.88 53.476H470.76 470.52Z" fill-rule="evenodd"/><path transform="matrix(1,0,0,-1,0,595.276)" d="M473.64 53.836C473.76 53.836 474 53.716 474.12 53.596 474.12 53.476 474.24 53.356 474.24 53.116 474.24 52.876 474.12 52.756 474.12 52.636 474 52.516 473.88 52.516 473.64 52.516 473.52 52.516 473.4 52.516 473.4 52.636V52.516H473.04V54.196H473.4V53.716C473.4 53.716 473.52 53.836 473.64 53.836ZM473.64 53.476C473.52 53.476 473.4 53.476 473.4 53.356V52.996 52.876C473.52 52.756 473.52 52.756 473.64 52.756 473.76 52.756 473.88 52.876 473.88 53.116 473.88 53.356 473.76 53.476 473.64 53.476Z" fill-rule="evenodd"/><path transform="matrix(1,0,0,-1,0,595.276)" d="M479.4 53.116C479.4 52.756 479.52 52.516 480 52.516 480.12 52.516 480.24 52.516 480.36 52.636 480.48 52.756 480.48 52.996 480.48 53.116 480.48 53.596 480.36 53.836 480 53.836 479.76 53.836 479.64 53.716 479.52 53.596 479.4 53.476 479.4 53.356 479.4 53.116ZM480 53.476C480.12 53.476 480.24 53.356 480.24 53.116 480.24 52.996 480.12 52.996 480.12 52.876H480C479.76 52.876 479.76 52.876 479.76 53.116 479.76 53.236 479.76 53.356 479.76 53.356 479.76 53.476 479.88 53.476 480 53.476Z" fill-rule="evenodd"/><path transform="matrix(1,0,0,-1,0,595.276)" d="M483 53.716C482.88 53.716 482.88 53.716 482.76 53.716H482.64C482.4 53.716 482.16 53.596 482.16 53.236L482.04 53.116C482.16 52.636 482.4 52.516 482.64 52.516 482.76 52.516 482.88 52.516 483 52.636V52.516H483.24V54.196H483V53.716ZM483 52.996C482.88 52.876 482.76 52.756 482.64 52.756 482.52 52.756 482.4 52.876 482.4 53.116 482.4 53.356 482.52 53.476 482.76 53.476 482.76 53.476 482.88 53.476 482.88 53.356 483 53.356 483 53.236 483 53.236V52.996Z" fill-rule="evenodd"/><path transform="matrix(1,0,0,-1,0,595.276)" d="M484.2 53.356C483.72 53.356 483.48 53.236 483.48 52.876 483.48 52.636 483.72 52.516 483.96 52.516 484.08 52.516 484.2 52.516 484.32 52.636V52.516C484.44 52.516 484.44 52.516 484.56 52.516L484.68 52.756H484.56V52.876 53.476C484.56 53.716 484.32 53.836 484.08 53.836 483.96 53.836 483.84 53.836 483.72 53.716 483.6 53.716 483.6 53.716 483.48 53.596L483.72 53.356C483.72 53.476 483.96 53.476 484.08 53.476H484.2V53.356ZM483.84 52.876C483.84 52.996 483.84 52.996 483.96 52.996 483.96 52.996 484.08 53.116 484.2 53.116V52.876C484.2 52.756 484.08 52.756 484.08 52.756 483.96 52.756 483.96 52.756 483.84 52.756V52.876Z" fill-rule="evenodd"/><path transform="matrix(1,0,0,-1,0,595.276)" d="M486 50.956H484.2L484.32 51.196H484.44V51.316H484.32L484.2 51.436 483.96 50.836 483.6 50.356 483.84 50.236 483.96 50.476 484.2 50.836H484.8V49.876H483.6V49.756H484.8V48.556H485.04V49.756H486.24V49.876H485.04V50.836H486Z" fill-rule="evenodd"/><path transform="matrix(1,0,0,-1,0,595.276)" d="M492.72 50.356H492V50.836H492.48V50.956H492V51.196 51.316H491.88 491.76V50.956H491.28 491.16V50.836H491.28 491.76V50.356H491.04V50.236 50.116H492.72V50.236Z" fill-rule="evenodd"/><path transform="matrix(1,0,0,-1,0,595.276)" d="M492.12 49.996V49.756H492 491.16V49.636H492L492.12 49.516V48.916L492 48.796H491.76V48.676H491.88 492.12 492.24V48.796 49.516 49.636H492.6V49.756H492.24V49.996H492.36 492.24 492.12V50.116Z" fill-rule="evenodd"/><path transform="matrix(1,0,0,-1,0,595.276)" d="M491.28 49.516 491.16 49.276 491.4 49.156 491.64 49.036 491.76 49.156 491.52 49.276Z" fill-rule="evenodd"/><path transform="matrix(1,0,0,-1,0,595.276)" d="M490.08 48.916H490.2V49.036 49.276L490.32 49.396H490.68V49.276 49.156H490.92V51.076H490.08V49.036 48.916ZM490.2 50.116H490.32 490.68V49.516H490.32 490.2V50.116ZM490.68 50.356H490.32 490.2V50.956H490.32 490.68V50.356Z" fill-rule="evenodd"/><path transform="matrix(1,0,0,-1,0,595.276)" d="M486.72 50.236V50.116L487.68 50.236V49.036 48.916L487.8 48.796H487.92 488.76 488.88L489.12 48.916 489.24 49.036V49.276L489.36 49.396V49.516H489.24L489.12 49.156 489 49.036 488.76 48.916H488.04L487.92 49.036H487.8V50.236L489.36 50.476V50.596L487.8 50.476V51.196L487.92 51.316H487.8L487.68 51.436V50.356Z" fill-rule="evenodd"/><path transform="matrix(1,0,0,-1,0,595.276)" d="M480.24 51.316V51.196H481.44V48.796H481.68V50.356L482.04 50.116 482.4 49.756 482.52 49.876 482.16 50.236 481.68 50.596V51.196H482.88V51.316Z" fill-rule="evenodd"/><path transform="matrix(1,0,0,-1,0,595.276)" d="M460.68 48.796H463.32V48.916H462.84L462.96 50.236H461.88L462.12 50.956H463.2V51.076H460.92V50.956H461.88L461.76 50.236H461.04V50.116H461.76L461.4 48.916H460.68V48.796ZM461.88 50.116H462.72L462.6 48.916H461.64L461.88 50.116Z" fill-rule="evenodd"/><path transform="matrix(1,0,0,-1,0,595.276)" d="M466.8 58.636 466.2 57.316H466.56L467.16 58.636V58.996H465.96V58.636Z" fill-rule="evenodd"/><path transform="matrix(1,0,0,-1,0,595.276)" d="M463.2 47.116H461.52L461.64 47.356V47.476H461.52L461.16 46.996 460.92 46.516 461.04 46.396 461.28 46.636 461.4 46.996H462.12V46.036H460.8V45.916H462.12V44.716H462.24V45.916H463.44V46.036H462.24V46.996H463.2Z" fill-rule="evenodd"/><path transform="matrix(1,0,0,-1,0,595.276)" d="M469.92 46.516H469.2V46.996H469.8V47.116H469.2V47.356 47.476H469.08 468.96V47.116H468.48 468.36V46.996H468.48 468.96V46.516H468.24V46.396 46.276H469.92V46.396Z" fill-rule="evenodd"/><path transform="matrix(1,0,0,-1,0,595.276)" d="M469.32 46.156V45.916H468.36V45.796H469.32V45.676 45.076 44.956H469.2 468.96V44.836H469.08 469.44L469.56 44.956V45.676 45.796H469.8 469.92V45.916H469.8 469.56V46.156H469.44 469.32Z" fill-rule="evenodd"/><path transform="matrix(1,0,0,-1,0,595.276)" d="M468.48 45.676 468.36 45.436 468.6 45.316 468.84 45.196 468.96 45.316 468.72 45.436Z" fill-rule="evenodd"/><path transform="matrix(1,0,0,-1,0,595.276)" d="M467.28 45.076H467.52V45.436H467.88 468V45.316H468.12V47.236H467.28V45.076ZM467.52 46.276V46.276H467.88 468V45.676H467.88 467.52V46.276ZM467.88 46.516H467.52V46.996 47.116H467.88L468 46.996V46.516H467.88Z" fill-rule="evenodd"/><path transform="matrix(1,0,0,-1,0,595.276)" d="M459.84 46.276V46.396H458.76V47.356L458.64 47.476H458.52V45.076H457.44V44.836H460.08V45.076H458.76V46.276Z" fill-rule="evenodd"/><path transform="matrix(1,0,0,-1,0,595.276)" d="M463.92 46.396 464.04 46.276 464.88 46.396V45.196 45.076H465V44.956H465.12 465.96 466.2L466.32 45.076 466.44 45.196 466.56 45.436V45.556L466.44 45.676 466.32 45.316 466.2 45.196 466.08 45.076H465.36L465.12 45.196V46.396L466.56 46.636V46.756L465.12 46.636V47.356 47.476H465 464.88V46.516Z" fill-rule="evenodd"/><path transform="matrix(1,0,0,-1,0,595.276)" d="M472.32 46.996 472.56 46.756 471.24 46.516 471.72 47.236H473.04V47.356H470.52V47.236H471.48L471 46.516H470.64V46.396L470.76 46.276V46.396L472.68 46.516 472.8 46.276H473.04L472.8 46.756 472.44 47.116Z" fill-rule="evenodd"/><path transform="matrix(1,0,0,-1,0,595.276)" d="M471.84 45.196V45.676H472.8V45.916H471.84V46.156H471.96V46.276H471.84 471.72V45.916H470.76V45.676H471.72V45.196H470.52V44.956H473.04V45.196Z" fill-rule="evenodd"/><path transform="matrix(1,0,0,-1,0,595.276)" d="M469.68 50.956H468L468.12 51.196H468.24V51.316H468.12L468 51.436 467.76 50.836 467.4 50.356 467.52 50.236 467.76 50.476 467.88 50.836H468.6V49.876H467.28V49.756H468.6V48.556H468.72V49.756H469.92V49.876H468.72V50.836H469.68Z" fill-rule="evenodd"/><path transform="matrix(1,0,0,-1,0,595.276)" d="M476.4 50.356H475.68V50.836H476.28V50.956H475.68V51.196 51.316H475.56 475.44V50.956H474.96V50.836H475.44V50.356H474.84L474.72 50.236V50.116H474.84 476.4V50.236Z" fill-rule="evenodd"/><path transform="matrix(1,0,0,-1,0,595.276)" d="M475.8 49.996V49.756H474.84V49.636H475.8V49.516 48.916 48.796H475.56 475.44V48.676H475.56 475.92 476.04V48.796 49.516 49.636H476.28 476.4V49.756H476.28 476.04V49.996H475.92L475.8 50.116Z" fill-rule="evenodd"/><path transform="matrix(1,0,0,-1,0,595.276)" d="M474.96 49.516 474.84 49.276 475.08 49.156 475.32 49.036 475.44 49.156 475.2 49.276Z" fill-rule="evenodd"/><path transform="matrix(1,0,0,-1,0,595.276)" d="M473.76 48.916H474V49.036 49.276 49.396H474.48V49.276 49.156H474.6V51.076H473.76V49.036 48.916ZM474 50.116V50.116H474.48V49.516H474V50.116ZM474.48 50.356H474V50.956H474.48V50.356Z" fill-rule="evenodd"/><path transform="matrix(1,0,0,-1,0,595.276)" d="M466.32 50.116V50.236H465.24V51.196 51.316H465.12 465V48.916H464.04V48.676H466.56V48.916H465.24V50.116Z" fill-rule="evenodd"/><path transform="matrix(1,0,0,-1,0,595.276)" d="M470.52 50.236V50.116L471.36 50.236V49.036 48.916H471.48V48.796H471.6 472.56 472.68L472.8 48.916 472.92 49.036 473.04 49.276 473.16 49.396 473.04 49.516H472.92L472.8 49.156 472.68 49.036 472.56 48.916H471.84L471.6 49.036V50.236L473.04 50.476V50.596L471.6 50.476V51.196 51.316H471.48L471.36 51.436V50.356Z" fill-rule="evenodd"/><path transform="matrix(1,0,0,-1,0,595.276)" d="M478.8 50.956 479.16 50.596 477.72 50.476 478.2 51.076H479.52V51.196H477.12V51.076H477.96L477.48 50.476 477.12 50.356V50.236H477.24V50.116 50.236L479.16 50.476 479.28 50.116H479.52L479.28 50.596 478.92 50.956Z" fill-rule="evenodd"/><path transform="matrix(1,0,0,-1,0,595.276)" d="M478.44 49.036V49.636H479.4V49.756H478.44V49.996 50.116H478.2V49.756H477.24V49.636H478.2V49.036H477V48.796H479.64V49.036Z" fill-rule="evenodd"/><path transform="matrix(1,0,0,-1,0,595.276)" d="M448.92 46.036H448.2L448.32 46.276 448.2 46.396 447.96 45.916 447.72 45.676V45.556H447.84 447.96L448.2 45.916H448.92V45.556H448.2 448.08V45.436H448.2 448.92V45.316 45.076H447.72V44.956 44.836H450.36V44.956 45.076H449.16V45.316 45.436H450V45.556H449.16V45.916H450.12V46.036H449.16V46.276H449.04 448.92V46.036Z" fill-rule="evenodd"/><path transform="matrix(1,0,0,-1,0,595.276)" d="M452.16 44.836 452.4 44.956 452.28 45.196 452.04 45.436 451.92 45.316 452.04 45.076Z" fill-rule="evenodd"/><path transform="matrix(1,0,0,-1,0,595.276)" d="M450.96 44.956 451.2 44.836 451.32 45.076 451.56 45.316H451.68 451.56V45.436H451.44L451.2 45.076Z" fill-rule="evenodd"/><path transform="matrix(1,0,0,-1,0,595.276)" d="M449.88 46.396V47.476H448.08V46.396H449.88ZM448.32 46.996H448.2V47.236H448.32 449.76V46.996H448.32ZM449.76 46.876V46.876 46.636H448.32 448.2V46.876H448.32 449.76Z" fill-rule="evenodd"/><path transform="matrix(1,0,0,-1,0,595.276)" d="M452.52 47.116V47.116H452.28V47.356 47.476H452.04V47.116H451.56 451.44V47.356L451.56 47.476H451.44 451.32V47.116H451.08 450.96V46.996H451.08 451.32V45.676H450.96V45.556H452.52V45.676H452.28V46.996H452.52V47.116ZM452.04 46.156H451.56 451.44V46.516H451.56 452.04V46.156ZM452.04 46.996V46.636H451.56 451.44V46.996H451.56 452.04ZM451.56 46.036H452.04V45.676H451.56 451.44V46.036H451.56Z" fill-rule="evenodd"/><path transform="matrix(1,0,0,-1,0,595.276)" d="M453.36 45.796V45.316 45.196 45.076L453.24 44.956H453.12 453 453.12V44.836H453.48V44.956L453.6 45.076V45.316 47.476H452.76V46.636L452.64 45.916V45.436L452.52 44.956 452.64 44.836 452.76 45.196 452.88 45.796H453.36ZM453.36 46.516V45.916H452.88V46.516H453.36ZM453.36 47.236V46.636H452.88V47.236H453.36Z" fill-rule="evenodd"/><path transform="matrix(1,0,0,-1,0,595.276)" d="M442.44 49.876H441.72L441.84 50.116 441.72 50.236 441.48 49.876 441.24 49.516 441.36 49.396H441.48L441.6 49.756H442.44V49.396H441.6V49.276H442.44V48.916H441.24V48.796H443.76 443.88V48.916H443.76 442.68V49.276H443.52V49.396H442.68V49.756H443.52 443.64V49.876H443.52 442.68V50.116H442.56 442.44V49.876Z" fill-rule="evenodd"/><path transform="matrix(1,0,0,-1,0,595.276)" d="M445.68 48.676 445.92 48.796 445.68 49.036 445.56 49.276 445.44 49.156 445.56 48.916Z" fill-rule="evenodd"/><path transform="matrix(1,0,0,-1,0,595.276)" d="M444.48 48.796 444.72 48.676 444.84 48.916 445.08 49.156V49.276H444.96L444.72 49.036Z" fill-rule="evenodd"/><path transform="matrix(1,0,0,-1,0,595.276)" d="M443.4 50.356V51.316H441.6V50.356 50.236H443.4V50.356ZM441.72 50.836V50.836 51.076H443.16 443.28V50.836H443.16 441.72ZM443.16 50.716H443.28V50.476H443.16 441.72V50.716H443.16Z" fill-rule="evenodd"/><path transform="matrix(1,0,0,-1,0,595.276)" d="M446.04 50.956V50.956H445.8 445.68V51.316H445.8 445.68L445.56 51.436V51.316 50.956H445.08 444.96V51.196L445.08 51.316H444.96 444.84V50.956H444.48V50.836H444.84V49.516H444.48V49.396H446.04V49.516H445.8 445.68V50.836H445.8 446.04V50.956ZM445.56 49.996H445.08 444.96V50.356H445.08 445.56V49.996ZM445.56 50.836V50.596 50.476H445.08L444.96 50.596V50.836H445.08 445.56ZM445.08 49.876H445.56V49.516H445.08 444.96V49.876H445.08Z" fill-rule="evenodd"/><path transform="matrix(1,0,0,-1,0,595.276)" d="M446.88 49.636V49.156 49.036 48.916H446.76 446.64L446.52 48.796H446.64V48.676H446.88L447 48.796V48.916L447.12 49.036V49.156 51.316H446.16V50.596 49.756 49.276L446.04 48.796H445.92 446.04L446.16 48.676 446.28 49.036 446.4 49.636H446.88ZM446.88 50.356V49.756H446.4V50.356H446.88ZM446.88 51.076V50.596H446.4V51.076H446.88Z" fill-rule="evenodd"/><path transform="matrix(1,0,0,-1,0,595.276)" d="M452.88 50.956 453.12 50.596 451.68 50.476 452.16 51.076H453.48V51.196H451.08V51.076H452.04L451.56 50.476 451.08 50.356 451.2 50.236V50.116L451.32 50.236 453.24 50.476 453.36 50.116H453.48L453.24 50.596 453 50.956Z" fill-rule="evenodd"/><path transform="matrix(1,0,0,-1,0,595.276)" d="M452.4 49.036V49.636H453.36V49.756H452.4V49.996 50.116H452.52 452.4 452.16V49.756H451.2V49.636H452.16V49.036H450.96V48.796H453.6V49.036Z" fill-rule="evenodd"/><path transform="matrix(1,0,0,-1,0,595.276)" d="M455.4 49.876H454.68L454.8 50.116 454.68 50.236 454.44 49.876 454.32 49.516H454.2 454.32V49.396H454.44L454.68 49.756H455.4 455.52V49.396H455.4 454.68V49.276H455.4 455.52V48.916H455.4 454.2V48.796H456.84V48.916H455.64V49.276H456.48V49.396H455.64V49.756H456.6V49.876H455.64V50.116H455.76 455.64 455.52V49.876Z" fill-rule="evenodd"/><path transform="matrix(1,0,0,-1,0,595.276)" d="M458.76 48.676 458.88 48.796 458.76 49.036 458.52 49.276 458.4 49.156 458.52 48.916Z" fill-rule="evenodd"/><path transform="matrix(1,0,0,-1,0,595.276)" d="M457.56 48.796 457.68 48.676 457.8 48.916 458.04 49.156H458.16L458.04 49.276H457.92L457.68 49.036Z" fill-rule="evenodd"/><path transform="matrix(1,0,0,-1,0,595.276)" d="M456.48 50.356V51.316H456.36 454.56V50.356 50.236H456.36L456.48 50.356ZM454.8 50.836V50.836 51.076H456.24V50.836H454.8ZM456.24 50.716V50.716 50.476H454.8V50.716H456.24Z" fill-rule="evenodd"/><path transform="matrix(1,0,0,-1,0,595.276)" d="M459 50.956V50.956H458.76V51.316L458.52 51.436V51.316 50.956H458.04V51.196 51.316H457.8V50.956H457.56V50.836H457.8V49.516H457.44V49.396H459V49.516H458.76V50.836H459V50.956ZM458.52 49.996H458.04V50.356H458.52V49.996ZM458.52 50.836V50.596 50.476H458.04V50.596 50.836H458.52ZM458.04 49.876H458.52V49.516H458.04V49.876Z" fill-rule="evenodd"/><path transform="matrix(1,0,0,-1,0,595.276)" d="M459.96 49.636V49.156 49.036L459.84 48.916H459.72 459.6V48.796 48.676H459.96V48.796L460.08 48.916V49.036 49.156 51.316H459.24V50.596 49.756L459.12 49.276 459 48.796 459.12 48.676 459.24 49.036 459.36 49.636H459.96ZM459.96 50.356V49.756H459.36V50.356H459.96ZM459.96 51.076V50.596H459.36V51.076H459.96Z" fill-rule="evenodd"/><path transform="matrix(1,0,0,-1,0,595.276)" d="M479.4 47.116H477.72L477.84 47.356H477.96L477.84 47.476H477.72L477.48 46.996 477.12 46.516 477.24 46.396 477.48 46.636 477.6 46.996H478.32V46.036H477V45.916H478.32V44.716H478.44V45.916H479.64V46.036H478.44V46.996H479.4Z" fill-rule="evenodd"/><path transform="matrix(1,0,0,-1,0,595.276)" d="M486.12 46.516H485.4V46.996H486V47.116H485.4V47.356 47.476H485.28 485.16V47.116H484.68V46.996H485.16V46.516H484.56L484.44 46.396V46.276H484.56 486.12V46.396Z" fill-rule="evenodd"/><path transform="matrix(1,0,0,-1,0,595.276)" d="M485.52 46.156V45.916H484.56V45.796H485.52V45.676 45.076 44.956H485.28 485.16V44.836H485.28 485.64 485.76V44.956 45.676 45.796H486 486.12V45.916H486 485.76V46.156H485.64 485.52Z" fill-rule="evenodd"/><path transform="matrix(1,0,0,-1,0,595.276)" d="M484.68 45.676 484.56 45.436 484.8 45.316 485.04 45.196 485.16 45.316 484.92 45.436Z" fill-rule="evenodd"/><path transform="matrix(1,0,0,-1,0,595.276)" d="M483.48 45.076H483.72V45.436H484.2V45.316H484.32V47.236H483.48V45.076ZM483.72 46.276V46.276H484.2V45.676H483.72V46.276ZM484.2 46.516H483.72V46.996 47.116H484.2V46.996 46.516Z" fill-rule="evenodd"/><path transform="matrix(1,0,0,-1,0,595.276)" d="M473.76 47.476V47.236H474.96V44.956H475.08V46.516L475.56 46.276 475.92 45.916 476.04 46.036 475.56 46.396 475.08 46.636V47.236H476.4V47.476Z" fill-rule="evenodd"/><path transform="matrix(1,0,0,-1,0,595.276)" d="M459.24 56.116 459.36 55.996C459.36 55.996 459.48 55.996 459.6 55.876 459.96 55.876 460.2 55.636 460.2 55.396 460.2 55.036 459.96 54.796 459.48 54.916 459.36 54.916 459.24 54.916 459.12 54.916 459 55.036 458.88 55.036 458.76 55.156L459 55.396C459.24 55.276 459.36 55.156 459.48 55.156 459.72 55.156 459.84 55.276 459.84 55.396 459.84 55.516 459.72 55.516 459.48 55.636 459.12 55.636 458.88 55.756 458.88 56.116 458.88 56.476 459.12 56.596 459.6 56.596 459.72 56.596 459.84 56.596 459.96 56.596 460.08 56.476 460.08 56.476 460.2 56.356L459.96 56.116C459.84 56.236 459.72 56.236 459.6 56.236 459.36 56.236 459.24 56.236 459.24 56.116Z" fill-rule="evenodd"/><path transform="matrix(1,0,0,-1,0,595.276)" d="M461.16 55.636C460.68 55.636 460.44 55.516 460.44 55.276 460.44 55.036 460.68 54.916 460.92 54.916 461.04 54.916 461.28 54.916 461.28 55.036 461.28 54.916 461.28 54.916 461.4 54.916H461.52L461.64 55.156H461.52V55.756C461.52 55.996 461.4 56.116 461.04 56.116 460.92 56.116 460.8 56.116 460.8 56.116 460.68 56.116 460.56 55.996 460.56 55.996L460.68 55.756C460.8 55.876 460.92 55.876 461.04 55.876H461.16V55.756 55.636ZM461.16 55.396V55.276 55.156H461.04 460.92C460.8 55.156 460.8 55.276 460.8 55.276 460.8 55.396 460.92 55.396 461.16 55.396Z" fill-rule="evenodd"/><path transform="matrix(1,0,0,-1,0,595.276)" d="M462 55.156V55.876H461.76V56.116H462V56.476L462.36 56.596V56.116H462.6V55.876H462.36V55.276 55.156H462.48 462.6V54.916C462.6 54.916 462.48 54.796 462.36 54.796 462.12 54.796 462 54.916 462 55.156Z" fill-rule="evenodd"/><path transform="matrix(1,0,0,-1,0,595.276)" d="M457.08 58.396V57.316H456.72V58.996H457.08L457.56 58.276 458.04 58.996H458.4V57.316H458.04V58.396L457.56 57.676Z" fill-rule="evenodd"/><path transform="matrix(1,0,0,-1,0,595.276)" d="M458.76 57.916C458.76 57.436 459 57.196 459.36 57.196 459.72 57.196 459.96 57.436 459.96 57.916 459.96 58.276 459.72 58.516 459.36 58.516 459 58.516 458.76 58.276 458.76 57.916ZM459.36 58.156C459.48 58.156 459.6 58.036 459.6 57.916 459.6 57.676 459.48 57.556 459.36 57.556 459.24 57.556 459.12 57.676 459.12 57.916 459.12 58.036 459.24 58.156 459.36 58.156Z" fill-rule="evenodd"/><path transform="matrix(1,0,0,-1,0,595.276)" d="M460.68 58.276C460.56 58.156 460.56 58.156 460.44 58.036V57.316H460.2V58.516H460.44V58.396C460.56 58.396 460.56 58.516 460.56 58.516 460.68 58.516 460.68 58.516 460.8 58.516 461.04 58.516 461.28 58.396 461.28 58.156V57.316H460.92V58.036C460.92 58.156 460.8 58.156 460.68 58.276Z" fill-rule="evenodd"/><path transform="matrix(1,0,0,-1,0,595.276)" d="M462.96 57.916V57.316H462.6V58.996H463.56V58.636H462.96V58.276H463.56V57.916Z" fill-rule="evenodd"/><path transform="matrix(1,0,0,-1,0,595.276)" d="M464.88 57.316H465.12V58.516H464.88Z" fill-rule="evenodd"/><path transform="matrix(1,0,0,-1,0,595.276)" d="M465.24 58.756C465.24 58.876 465.12 58.996 465 58.996 464.88 58.996 464.76 58.876 464.76 58.756 464.76 58.636 464.88 58.636 465 58.636 465.12 58.636 465.24 58.636 465.24 58.756Z" fill-rule="evenodd"/><path transform="matrix(1,0,0,-1,0,595.276)" d="M464.16 58.036V57.316H463.92V58.516H464.16V58.396L464.28 58.516C464.4 58.516 464.52 58.516 464.52 58.516V58.156C464.52 58.156 464.4 58.156 464.28 58.156 464.28 58.036 464.16 58.036 464.16 58.036Z" fill-rule="evenodd"/><path transform="matrix(1,0,0,-1,0,595.276)" d="M461.52 57.916H462.12V57.556H461.52Z" fill-rule="evenodd"/><path transform="matrix(1,0,0,-1,0,595.276)" d="M472.92 58.636 472.32 57.316H472.68L473.28 58.636V58.996H472.08V58.636Z" fill-rule="evenodd"/><path transform="matrix(1,0,0,-1,0,595.276)" d="M464.16 56.236 463.68 54.916H464.04L464.52 56.236V56.596H463.32V56.236Z" fill-rule="evenodd"/><path transform="matrix(1,0,0,-1,0,595.276)" d="M469.2 55.276H468.72V55.516H469.2Z" fill-rule="evenodd"/><path transform="matrix(1,0,0,-1,0,595.276)" d="M467.04 54.916V55.636C467.04 55.756 467.16 55.876 467.16 55.876 467.28 55.876 467.4 55.756 467.4 55.756V54.916H467.64V55.636C467.76 55.756 467.76 55.876 467.88 55.876 468 55.876 468 55.876 468 55.756H468.12V54.916H468.36V55.756 55.876C468.24 55.996 468.12 56.116 467.88 56.116 467.76 56.116 467.64 56.116 467.64 55.996 467.52 56.116 467.4 56.116 467.28 56.116H467.16 467.04 466.68V54.916H467.04Z" fill-rule="evenodd"/><path transform="matrix(1,0,0,-1,0,595.276)" d="M465.96 55.636C465.48 55.636 465.24 55.516 465.24 55.276 465.24 55.036 465.48 54.916 465.72 54.916 465.84 54.916 466.08 54.916 466.08 55.036 466.08 54.916 466.08 54.916 466.2 54.916H466.32L466.44 55.156H466.32V55.756C466.32 55.996 466.08 56.116 465.84 56.116 465.72 56.116 465.6 56.116 465.48 56.116L465.36 55.996 465.48 55.756C465.6 55.876 465.72 55.876 465.84 55.876H465.96V55.756 55.636ZM465.6 55.276C465.6 55.276 465.6 55.396 465.72 55.396 465.72 55.396 465.84 55.396 465.96 55.396V55.276C465.96 55.156 465.84 55.156 465.84 55.156H465.72C465.6 55.156 465.6 55.276 465.6 55.276Z" fill-rule="evenodd"/><path transform="matrix(1,0,0,-1,0,595.276)" d="M471.84 57.556H471.24V57.916H471.84Z" fill-rule="evenodd"/><path transform="matrix(1,0,0,-1,0,595.276)" d="M469.56 57.316V58.036C469.56 58.156 469.68 58.156 469.8 58.156H469.92V58.036 57.316H470.28V58.036C470.28 58.156 470.4 58.156 470.52 58.156H470.64V58.036 57.316H471V58.156 58.276C470.88 58.396 470.76 58.516 470.52 58.516 470.4 58.516 470.28 58.516 470.16 58.396 470.16 58.516 470.04 58.516 469.8 58.516H469.68C469.68 58.516 469.56 58.516 469.56 58.396V58.516H469.2V57.316H469.56Z" fill-rule="evenodd"/><path transform="matrix(1,0,0,-1,0,595.276)" d="M468.6 58.036C468.12 58.036 467.88 57.916 467.88 57.676 467.88 57.556 467.88 57.436 468 57.316 468.12 57.316 468.24 57.196 468.36 57.196 468.48 57.196 468.6 57.316 468.6 57.316H468.72C468.84 57.196 468.84 57.196 468.96 57.196L469.08 57.436C468.96 57.436 468.96 57.436 468.96 57.556V58.156C468.84 58.396 468.72 58.516 468.36 58.516 468.24 58.516 468.24 58.516 468.12 58.516 468 58.396 468 58.396 467.88 58.396L468 58.156C468.12 58.156 468.24 58.276 468.36 58.276 468.48 58.276 468.48 58.276 468.48 58.156H468.6V58.036ZM468.24 57.676V57.796C468.36 57.796 468.48 57.796 468.6 57.796V57.556C468.48 57.556 468.48 57.556 468.36 57.556H468.24V57.676Z" fill-rule="evenodd"/><path transform="matrix(1,0,0,-1,0,595.276)" d="M476.4 57.316V58.036C476.52 58.156 476.52 58.156 476.64 58.156H476.76C476.88 58.156 476.88 58.156 476.88 58.036V57.316H477.12V58.156 58.276C477.12 58.396 476.88 58.516 476.64 58.516 476.52 58.516 476.4 58.516 476.4 58.396 476.28 58.516 476.16 58.516 476.04 58.516H475.92C475.8 58.516 475.8 58.516 475.8 58.396V58.516H475.44V57.316H475.8V58.036C475.8 58.156 475.92 58.156 475.92 58.156 476.04 58.156 476.16 58.156 476.16 58.156V58.036 57.316H476.4Z" fill-rule="evenodd"/><path transform="matrix(1,0,0,-1,0,595.276)" d="M474.36 58.516H474V56.836H474.36V57.316C474.36 57.316 474.48 57.196 474.6 57.196 474.84 57.196 474.96 57.316 475.08 57.436 475.08 57.556 475.2 57.676 475.2 57.916 475.2 58.276 474.96 58.516 474.6 58.516 474.48 58.516 474.36 58.516 474.36 58.396V58.516ZM474.6 57.556H474.48L474.36 57.676V57.796 58.036C474.36 58.156 474.48 58.276 474.6 58.276 474.72 58.276 474.84 58.156 474.84 58.036V57.796 57.676C474.84 57.556 474.72 57.556 474.6 57.556Z" fill-rule="evenodd"/><path transform="matrix(1,0,0,-1,0,595.276)" d="M474.24 54.916V55.636C474.24 55.756 474.36 55.876 474.48 55.876 474.48 55.876 474.6 55.876 474.6 55.756V54.916H474.96V55.756 55.876C474.84 55.996 474.72 56.116 474.48 56.116 474.36 56.116 474.24 56.116 474.12 55.996 474.12 56.116 474 56.116 473.88 56.116 473.76 56.116 473.76 56.116 473.64 56.116H473.52 473.28V54.916H473.52V55.636C473.52 55.756 473.64 55.876 473.76 55.876 473.88 55.876 473.88 55.756 473.88 55.756V54.916H474.24Z" fill-rule="evenodd"/><path transform="matrix(1,0,0,-1,0,595.276)" d="M472.08 56.116H471.84V54.556H472.2V54.916C472.2 54.916 472.32 54.796 472.44 54.916 472.56 54.916 472.68 54.916 472.8 55.036 472.92 55.156 472.92 55.396 472.92 55.516 472.92 55.756 472.92 55.876 472.8 55.996 472.68 56.116 472.56 56.116 472.44 56.116 472.32 56.116 472.2 56.116 472.08 56.116ZM472.44 55.156C472.32 55.156 472.32 55.156 472.2 55.276V55.396 55.636C472.2 55.756 472.2 55.876 472.32 55.876H472.44C472.44 55.876 472.56 55.756 472.68 55.756V55.636 55.396 55.276C472.56 55.276 472.44 55.156 472.44 55.156Z" fill-rule="evenodd"/><path transform="matrix(1,0,0,-1,0,595.276)" d="M469.44 55.156H470.4V54.916H470.76V55.156H470.88V55.516H470.76V56.596H470.28L469.44 55.516V55.156ZM469.92 55.516 470.4 56.116V55.516H469.92Z" fill-rule="evenodd"/><path transform="matrix(1,0,0,-1,0,595.276)" d="M482.52 45.196V44.956H482.76V47.356H480.36V44.956H480.6V45.196H482.52ZM481.08 46.036 481.2 46.156 481.32 46.396V46.636 46.996 47.236H481.68V45.916 45.796H481.8V45.676H482.28L482.4 45.796V45.916L482.52 46.156 482.4 46.276H482.28V45.916L482.16 45.796H481.92V45.916 47.236H482.52V45.316H480.6V47.236H481.2V46.996L481.08 46.756V46.516 46.276L480.96 46.156 480.84 45.916 480.72 45.796H480.6L480.72 45.556 480.84 45.676 480.96 45.916 481.08 46.036Z" fill-rule="evenodd"/><path transform="matrix(1,0,0,-1,0,595.276)" d="M447.84 50.236V50.116H450.24V50.236Z" fill-rule="evenodd"/><path transform="matrix(1,0,0,-1,0,595.276)" d="M456.84 46.756H455.64V47.356L455.52 47.476H455.4V46.756H454.2V46.636H456.84Z" fill-rule="evenodd"/><path transform="matrix(1,0,0,-1,0,595.276)" d="M455.16 46.156 455.04 46.276 454.8 45.916 454.68 45.676 454.44 45.436 454.2 45.196 454.32 45.076 454.44 44.956 454.8 45.556 455.16 46.036V46.156Z" fill-rule="evenodd"/><path transform="matrix(1,0,0,-1,0,595.276)" d="M456 46.156 455.88 46.036 456 45.796 456.24 45.556 456.36 45.196 456.6 44.956 456.72 45.196 456.6 45.316 456.36 45.556 456.24 45.916Z" fill-rule="evenodd"/><path transform="matrix(1,0,0,-1,0,595.276)" stroke-width=".12" stroke-linecap="butt" stroke-miterlimit="10" stroke-linejoin="miter" fill="none" stroke="#000000" d="M440.5 39.5V39.5"/><path transform="matrix(1,0,0,-1,0,595.276)" d="M494.16 40.276C494.16 40.036 494.04 39.916 493.92 39.796 493.8 39.676 493.68 39.676 493.56 39.676H440.28C440.16 39.676 439.92 39.676 439.8 39.796 439.8 39.796 439.68 39.916 439.68 40.036 439.68 40.036 439.68 40.156 439.68 40.276V59.476C439.68 59.716 439.68 59.836 439.8 59.956 439.92 59.956 439.92 60.076 440.04 60.076 440.16 60.076 440.16 60.076 440.28 60.076H493.56C493.68 60.076 493.8 60.076 493.92 59.956 494.04 59.836 494.16 59.716 494.16 59.476V40.276ZM440.28 39.916V39.916H493.56C493.56 39.916 493.68 39.916 493.68 40.036 493.8 40.036 493.8 40.156 493.8 40.156V59.596 59.716H493.68C493.68 59.836 493.56 59.836 493.56 59.836H440.28C440.04 59.836 439.92 59.716 439.92 59.596V40.156C439.92 40.156 439.92 40.036 440.04 40.036 440.04 39.916 440.16 39.916 440.28 39.916Z" fill-rule="evenodd"/></g></svg>