<?xml version='1.0' encoding='UTF-8'?>
<svg xmlns="http://www.w3.org/2000/svg" xmlns:xlink="http://www.w3.org/1999/xlink" xmlns:inkscape="http://www.inkscape.org/namespaces/inkscape" version="1.1" width="567.000" height="269.280" viewBox="0 0 567.000 269.280"><g transform="scale(10.0) translate(-220.305, -397.296)"><defs><clipPath id="clip_2"><path transform="matrix(1,0,0,-1,0,595.276)" d="M74.4 .196H767.4V595.276H74.4Z"/></clipPath></defs><path transform="matrix(1,0,0,-1,0,595.276)" d="M275.28 177.436H222C221.76 177.436 221.52 177.676 221.52 177.916V190.996C221.52 191.116 221.64 191.236 221.76 191.356 221.76 191.476 221.88 191.476 222 191.476H275.28C275.4 191.476 275.52 191.476 275.64 191.356 275.76 191.236 275.88 191.116 275.88 190.996V177.916C275.88 177.796 275.76 177.676 275.64 177.556 275.52 177.436 275.4 177.436 275.28 177.436Z" fill="#ffffff" fill-rule="evenodd"/><path transform="matrix(1,0,0,-1,0,595.276)" d="M256.08 182.356V182.596H254.28V184.276H254.4V184.396H254.28 254.16L253.92 184.516V180.316H252.12V180.076H256.56V180.316H254.28V182.356Z" fill-rule="evenodd"/><path transform="matrix(1,0,0,-1,0,595.276)" d="M261.72 183.916H258.72L258.96 184.276 259.08 184.396 258.96 184.516 258.72 184.636 258.24 183.676 257.76 182.836 258 182.596 258.36 183.076 258.6 183.556H259.8V182.116H257.64V181.756H259.8V179.836H260.16V181.756H262.08V182.116H260.16V183.556H261.72Z" fill-rule="evenodd"/><path transform="matrix(1,0,0,-1,0,595.276)" d="M263.04 182.596 263.16 182.236 264.72 182.476V180.436 180.196L264.84 180.076H264.96 265.08 266.64 266.88L267.12 180.196 267.36 180.436 267.48 180.796 267.6 181.036V181.156H267.36L267.12 180.676 266.88 180.436 266.64 180.316H265.44 265.08L264.96 180.436V182.476L267.6 182.836V183.196L264.96 182.836V184.276H265.08V184.396H264.96L264.72 184.516V182.836Z" fill-rule="evenodd"/><path transform="matrix(1,0,0,-1,0,595.276)" d="M273.12 182.716H271.92L271.8 182.836V183.676H271.92 272.76V183.916H271.92 271.8V184.396H271.92V184.516H271.8 271.56V183.916H271.44 270.72 270.6 270.48V183.676H270.6 270.72 271.44 271.56V182.836L271.44 182.716H270.36 270.24V182.596L270.36 182.476H273.12V182.596 182.716Z" fill-rule="evenodd"/><path transform="matrix(1,0,0,-1,0,595.276)" d="M272.04 182.356V181.876H270.48V181.756 181.636 181.516H272.04V180.436 180.316L271.92 180.196H271.56 271.44L271.56 179.956H271.68 272.16 272.28L272.4 180.076V180.316 181.516H273V181.636 181.756 181.876H272.4V182.236H272.52 272.4V182.356H272.28 272.16Z" fill-rule="evenodd"/><path transform="matrix(1,0,0,-1,0,595.276)" d="M270.72 181.396 270.48 181.156 270.96 180.796 271.32 180.556 271.44 180.796 271.08 181.156Z" fill-rule="evenodd"/><path transform="matrix(1,0,0,-1,0,595.276)" d="M249.72 183.676 250.08 183.076 247.8 182.836 248.64 184.036H250.8V184.276H246.72V184.036H248.28L247.44 182.836H246.72L246.84 182.596 246.96 182.476H247.08L250.32 182.836 250.56 182.356 250.8 182.476 250.44 183.196 249.96 183.796Z" fill-rule="evenodd"/><path transform="matrix(1,0,0,-1,0,595.276)" d="M248.88 180.436V181.396H250.56V181.756H248.88V182.236H249L249.12 182.356H249 248.88 248.64V181.756H246.96V181.396H248.64V180.436H246.6V180.196H250.92V180.436Z" fill-rule="evenodd"/><path transform="matrix(1,0,0,-1,0,595.276)" d="M224.4 184.396V184.156H226.44V180.076H226.8V182.716L227.52 182.236 228.12 181.876 228.36 181.996 227.64 182.596 226.8 183.076V184.156H228.84V184.396Z" fill-rule="evenodd"/><path transform="matrix(1,0,0,-1,0,595.276)" d="M268.68 180.436H268.92V180.556 181.156H269.04 269.76V180.916 180.796H270V180.916 184.036H268.68V180.556 180.436ZM269.04 182.476H269.76V181.396H269.04 268.92V182.476H269.04ZM268.92 182.836V183.796H269.04 269.76V182.836 182.716H269.04L268.92 182.836Z" fill-rule="evenodd"/><path transform="matrix(1,0,0,-1,0,595.276)" d="M234 183.916H231.12L231.36 184.276 231.48 184.396H231.36L231.24 184.516 231.12 184.636 230.64 183.676 230.16 182.836 230.4 182.596 230.64 183.076 231 183.556H232.2V182.116H229.92V181.756H232.2V179.836H232.44V181.756H234.48V182.116H232.44V183.556H234Z" fill-rule="evenodd"/><path transform="matrix(1,0,0,-1,0,595.276)" d="M235.44 182.596 235.56 182.236 237 182.476V180.436L237.12 180.196V180.076H237.24 237.48 239.04 239.28L239.52 180.196 239.76 180.436 239.88 180.796 240 181.036 239.88 181.156H239.76L239.52 180.676 239.28 180.436 239.04 180.316H237.84 237.48L237.36 180.436V182.476L240 182.836V183.196L237.36 182.836V184.276H237.48L237.36 184.396H237.24L237 184.516V182.836Z" fill-rule="evenodd"/><path transform="matrix(1,0,0,-1,0,595.276)" d="M245.4 182.716H244.2V182.836 183.676H245.16V183.916H244.2V184.396H244.32V184.516H244.2 244.08 243.96 243.84V183.916H243 242.88V183.676H243 243.84V182.836 182.716H242.64V182.596 182.476H245.4L245.52 182.596V182.716Z" fill-rule="evenodd"/><path transform="matrix(1,0,0,-1,0,595.276)" d="M244.44 182.356V181.876H242.88L242.76 181.756V181.636L242.88 181.516H244.44V180.436 180.316L244.32 180.196H243.96 243.84V179.956H243.96 244.56 244.68V180.076H244.8V180.316 181.516H245.28L245.4 181.636V181.756L245.28 181.876H244.8V182.236 182.356H244.56 244.44Z" fill-rule="evenodd"/><path transform="matrix(1,0,0,-1,0,595.276)" d="M243 181.396 242.88 181.156 243.24 180.796 243.6 180.556 243.84 180.796 243.48 181.156Z" fill-rule="evenodd"/><path transform="matrix(1,0,0,-1,0,595.276)" d="M241.08 180.436H241.32V180.556 181.156H242.04 242.16V180.916 180.796H242.4V180.916 184.036H241.08 240.96V180.556L241.08 180.436ZM241.32 182.476H242.04 242.16V181.396H242.04 241.32V182.476ZM241.32 182.836V183.796H242.04 242.16V182.836L242.04 182.716H241.32V182.836Z" fill-rule="evenodd"/><path transform="matrix(1,0,0,-1,0,595.276)" d="M246.6 186.436V187.756C246.6 187.876 246.72 187.996 246.96 187.996H247.08C247.2 187.996 247.2 187.876 247.2 187.876V186.436H247.8V187.876 187.996C247.8 188.116 247.8 188.116 247.68 188.116 247.56 188.356 247.32 188.596 246.96 188.596 246.72 188.596 246.6 188.476 246.36 188.356 246.36 188.476 246.12 188.596 245.88 188.596 245.76 188.596 245.64 188.596 245.64 188.596 245.52 188.476 245.4 188.476 245.4 188.476H244.8V186.436H245.4V187.756C245.4 187.876 245.64 187.996 245.76 187.996 245.88 187.996 246 187.996 246 187.876V186.436H246.6Z" fill-rule="evenodd"/><path transform="matrix(1,0,0,-1,0,595.276)" d="M248.28 187.516H249.24V187.036H248.28Z" fill-rule="evenodd"/><path transform="matrix(1,0,0,-1,0,595.276)" d="M256.8 186.436V187.756C256.8 187.876 256.92 187.996 257.16 187.996H257.28C257.4 187.996 257.4 187.876 257.4 187.876V186.436H257.88V187.876 187.996 188.116C257.76 188.356 257.52 188.596 257.16 188.596 256.92 188.596 256.68 188.476 256.56 188.356 256.44 188.476 256.32 188.596 256.08 188.596 255.96 188.596 255.84 188.596 255.84 188.596 255.72 188.476 255.6 188.476 255.6 188.476H255V186.436H255.6V187.756C255.6 187.876 255.72 187.996 255.96 187.996 256.08 187.996 256.2 187.996 256.2 187.876V186.436H256.8Z" fill-rule="evenodd"/><path transform="matrix(1,0,0,-1,0,595.276)" d="M253.8 187.756C253.08 187.756 252.72 187.516 252.72 187.156 252.72 186.676 252.96 186.436 253.44 186.436 253.68 186.436 253.92 186.556 254.04 186.556 254.04 186.556 254.04 186.436 254.16 186.436 254.28 186.436 254.4 186.436 254.52 186.436L254.64 186.796C254.64 186.796 254.52 186.796 254.52 186.916H254.4V187.996C254.4 188.356 254.16 188.596 253.56 188.596 253.44 188.596 253.2 188.596 253.08 188.476 252.96 188.476 252.84 188.356 252.72 188.236L252.96 187.876C253.2 187.996 253.32 188.116 253.56 188.116 253.68 188.116 253.8 188.116 253.8 187.996V187.876 187.756ZM253.56 186.916C253.44 186.916 253.44 186.916 253.32 186.916L253.2 187.036C253.2 187.156 253.32 187.276 253.44 187.276 253.56 187.276 253.68 187.396 253.8 187.396V187.036C253.8 186.916 253.68 186.916 253.56 186.916Z" fill-rule="evenodd"/><path transform="matrix(1,0,0,-1,0,595.276)" d="M243 188.476H242.4V185.716H243V186.556C243 186.436 243.24 186.316 243.48 186.436 244.08 186.436 244.44 186.796 244.44 187.516 244.44 187.876 244.32 188.116 244.2 188.356 243.96 188.476 243.72 188.596 243.48 188.596 243.24 188.596 243 188.476 243 188.476ZM243.36 186.916C243.36 186.916 243.24 186.916 243.12 187.036 243 187.036 243 187.156 243 187.276V187.756C243 187.876 243.24 188.116 243.36 188.116H243.48C243.6 188.116 243.84 187.996 243.84 187.876V187.756 187.276 187.156C243.84 187.036 243.6 186.916 243.36 186.916Z" fill-rule="evenodd"/><path transform="matrix(1,0,0,-1,0,595.276)" d="M239.64 186.436 240.48 188.716H239.16V189.316H241.2V188.716L240.24 186.436Z" fill-rule="evenodd"/><path transform="matrix(1,0,0,-1,0,595.276)" d="M250.08 186.436 250.92 188.716H249.6V189.316H251.64V188.716L250.68 186.436Z" fill-rule="evenodd"/><path transform="matrix(1,0,0,-1,0,595.276)" d="M221.04 177.916V190.996C221.04 191.116 221.04 191.236 221.16 191.356 221.16 191.476 221.28 191.596 221.4 191.716 221.52 191.956 221.76 191.956 222 191.956H275.28C275.52 191.956 275.88 191.956 276 191.716 276.24 191.476 276.36 191.236 276.36 190.996V177.916C276.36 177.436 275.88 176.956 275.28 176.956H222C221.76 176.956 221.52 177.076 221.4 177.196 221.16 177.436 221.04 177.676 221.04 177.916ZM221.52 177.916C221.52 177.796 221.64 177.676 221.76 177.556 221.76 177.436 221.88 177.436 222 177.436H275.28C275.64 177.436 275.88 177.676 275.88 177.916V190.996C275.88 191.116 275.76 191.236 275.64 191.356 275.52 191.476 275.4 191.476 275.28 191.476H222C221.76 191.476 221.52 191.236 221.52 190.996V177.916Z" fill-rule="evenodd"/></g></svg>