<?xml version='1.0' encoding='UTF-8'?>
<svg xmlns="http://www.w3.org/2000/svg" xmlns:xlink="http://www.w3.org/1999/xlink" xmlns:inkscape="http://www.inkscape.org/namespaces/inkscape" version="1.1" width="567.000" height="269.280" viewBox="0 0 567.000 269.280"><g transform="scale(10.0) translate(-111.171, -208.800)"><defs><clipPath id="clip_2"><path transform="matrix(1,0,0,-1,0,595.276)" d="M74.4 .196H767.4V595.276H74.4Z"/></clipPath></defs><path transform="matrix(1,0,0,-1,0,595.276)" d="M114.24 361.156H164.88C165.12 361.156 165.24 361.156 165.48 361.276 165.72 361.276 165.84 361.396 166.08 361.636 166.2 361.756 166.32 361.996 166.44 362.116 166.44 362.356 166.56 362.596 166.56 362.716V383.116C166.56 383.476 166.32 383.836 166.08 384.196 165.72 384.556 165.24 384.676 164.88 384.676H114.24C113.88 384.676 113.52 384.556 113.16 384.196 113.04 384.076 112.92 383.836 112.8 383.716 112.68 383.476 112.68 383.236 112.68 383.116V362.716C112.68 362.356 112.8 361.876 113.16 361.636 113.52 361.276 113.88 361.156 114.24 361.156ZM114.24 361.996C113.88 361.996 113.52 362.356 113.52 362.716V383.116C113.52 383.116 113.52 383.236 113.52 383.356 113.52 383.476 113.64 383.596 113.76 383.596 113.88 383.836 114.12 383.836 114.24 383.836H164.88C165.12 383.836 165.36 383.836 165.48 383.596 165.6 383.476 165.72 383.236 165.72 383.116V362.716C165.72 362.596 165.72 362.596 165.6 362.476 165.6 362.356 165.6 362.236 165.48 362.236 165.36 361.996 165.12 361.996 164.88 361.996H114.24Z" fill-rule="evenodd"/><path transform="matrix(1,0,0,-1,0,595.276)" d="M114.24 383.836H164.88C165 383.836 165.12 383.836 165.24 383.836 165.24 383.836 165.36 383.716 165.48 383.596 165.6 383.596 165.6 383.476 165.6 383.356 165.72 383.236 165.72 383.116 165.72 383.116V362.716C165.72 362.596 165.6 362.356 165.48 362.236 165.36 362.116 165.24 361.996 165.24 361.996 165.12 361.996 165 361.996 164.88 361.996H114.24C114.12 361.996 113.88 361.996 113.76 362.236 113.64 362.236 113.52 362.356 113.52 362.476 113.52 362.596 113.52 362.596 113.52 362.716V383.116C113.52 383.236 113.52 383.476 113.76 383.596 113.88 383.836 114.12 383.836 114.24 383.836Z" fill="#ffffff" fill-rule="evenodd"/><path transform="matrix(1,0,0,-1,0,595.276)" d="M117.48 375.076 118.68 379.756H117.72L116.76 376.516 115.92 379.756H114.84L116.16 375.076H116.76Z" fill-rule="evenodd"/><path transform="matrix(1,0,0,-1,0,595.276)" d="M120.36 375.076V378.436H119.52V375.076Z" fill-rule="evenodd"/><path transform="matrix(1,0,0,-1,0,595.276)" d="M120.48 379.276C120.48 379.636 120.24 379.876 119.88 379.876 119.64 379.876 119.4 379.636 119.4 379.276 119.4 379.036 119.64 378.796 119.88 378.796 120.24 378.796 120.48 379.036 120.48 379.276Z" fill-rule="evenodd"/><path transform="matrix(1,0,0,-1,0,595.276)" d="M122.16 379.756V376.036 375.916C122.16 375.796 122.4 375.796 122.76 375.916L122.88 375.076H122.76C122.76 375.076 122.76 374.956 122.64 374.956 122.52 374.956 122.28 374.956 122.16 374.956 121.68 374.956 121.32 375.196 121.2 375.556V375.676 375.796 379.756H122.16Z" fill-rule="evenodd"/><path transform="matrix(1,0,0,-1,0,595.276)" d="M124.32 379.756V376.036 375.916C124.32 375.796 124.56 375.796 124.92 375.916L125.04 375.076H124.92C124.92 375.076 124.92 374.956 124.8 374.956 124.68 374.956 124.44 374.956 124.32 374.956 123.84 374.956 123.48 375.196 123.36 375.556V375.676 375.796 379.756H124.32Z" fill-rule="evenodd"/><path transform="matrix(1,0,0,-1,0,595.276)" stroke-width=".12" stroke-linecap="butt" stroke-miterlimit="10" stroke-linejoin="miter" fill="none" stroke="#000000" d="M127.5 377.5V377.5"/><path transform="matrix(1,0,0,-1,0,595.276)" d="M127.32 377.356V377.356C127.32 377.476 127.32 377.596 127.32 377.716 127.2 377.716 127.08 377.716 126.96 377.716 126.72 377.716 126.6 377.716 126.36 377.716 126.24 377.596 126 377.476 125.88 377.356L125.4 378.076C125.76 378.436 126.24 378.556 126.96 378.556 127.32 378.676 127.68 378.556 127.92 378.436 128.16 378.196 128.28 377.956 128.4 377.596V375.916C128.4 375.796 128.4 375.676 128.4 375.676 128.52 375.676 128.64 375.676 128.64 375.676L128.4 374.956C127.92 374.956 127.68 375.076 127.56 375.316 127.44 375.076 127.08 374.956 126.72 374.836 125.88 374.836 125.4 375.316 125.4 376.156 125.4 376.516 125.52 376.756 125.88 376.996 126 377.116 126.24 377.116 126.48 377.116 126.72 377.236 127.08 377.236 127.32 377.236V377.356ZM126.36 376.036V375.916L126.48 375.796C126.6 375.676 126.72 375.676 126.84 375.676 127.08 375.796 127.32 375.796 127.32 375.916V376.516C127.08 376.516 126.72 376.516 126.6 376.396 126.48 376.276 126.36 376.276 126.36 376.036Z" fill-rule="evenodd"/><path transform="matrix(1,0,0,-1,0,595.276)" d="M132.36 374.956V378.436H131.4V378.316C131.4 378.436 131.04 378.556 130.68 378.556 129.6 378.556 129.12 377.956 129.12 376.756 129.24 375.676 129.72 375.196 130.68 375.196 130.8 375.196 130.92 375.196 131.04 375.196 131.28 375.316 131.28 375.316 131.4 375.436V375.196C131.28 374.836 131.16 374.716 130.8 374.716 130.68 374.716 130.56 374.716 130.32 374.716 130.08 374.836 129.84 374.956 129.6 375.076L129.12 374.236C129.48 373.996 130.2 373.876 130.8 373.756 131.76 373.756 132.24 374.116 132.36 374.956ZM131.4 377.236V376.396C131.28 376.276 131.28 376.156 131.16 376.156 131.04 376.036 130.92 376.036 130.8 375.916 130.32 376.036 130.08 376.276 130.08 376.876 130.08 377.356 130.32 377.596 130.8 377.716 131.16 377.596 131.28 377.476 131.4 377.236Z" fill-rule="evenodd"/><path transform="matrix(1,0,0,-1,0,595.276)" d="M136.2 376.396C136.32 377.836 135.72 378.556 134.64 378.556 133.68 378.556 133.2 377.956 133.08 376.756 133.08 376.276 133.2 375.916 133.44 375.556 133.8 375.076 134.4 374.956 134.88 374.836 135.36 374.836 135.96 375.196 136.08 375.556L135.6 376.036C135.48 375.916 135.12 375.796 134.88 375.796 134.64 375.796 134.52 375.796 134.28 375.916 134.28 376.036 134.16 376.036 134.16 376.156 134.16 376.276 134.04 376.396 134.04 376.396H136.2ZM134.04 377.116V377.116C134.04 377.236 134.16 377.476 134.28 377.596 134.4 377.716 134.52 377.716 134.76 377.716 135 377.716 135.24 377.476 135.36 377.236V377.116H134.04Z" fill-rule="evenodd"/><path transform="matrix(1,0,0,-1,0,595.276)" d="M139.56 375.076 138.48 378.436H139.44L140.16 376.156 140.88 378.436H141.84L140.76 375.076H140.16Z" fill-rule="evenodd"/><path transform="matrix(1,0,0,-1,0,595.276)" d="M145.44 376.396C145.44 377.836 144.84 378.556 143.76 378.556 142.92 378.556 142.32 377.956 142.32 376.756 142.32 376.276 142.44 375.916 142.68 375.556 143.04 375.076 143.52 374.956 144 374.836 144.6 374.836 145.08 375.196 145.32 375.556L144.72 376.036C144.6 375.916 144.24 375.796 144 375.796 143.76 375.796 143.64 375.796 143.52 375.916 143.4 376.036 143.4 376.036 143.28 376.156 143.28 376.276 143.28 376.396 143.28 376.396H145.44ZM143.16 377.116V377.116C143.28 377.236 143.28 377.476 143.4 377.596 143.52 377.716 143.76 377.716 143.88 377.716 144.12 377.716 144.36 377.476 144.48 377.236V377.116H143.16Z" fill-rule="evenodd"/><path transform="matrix(1,0,0,-1,0,595.276)" d="M151.2 375.076V378.436H150.36V375.076Z" fill-rule="evenodd"/><path transform="matrix(1,0,0,-1,0,595.276)" d="M151.32 379.276C151.32 379.636 151.08 379.876 150.72 379.876 150.48 379.876 150.24 379.636 150.24 379.276 150.24 379.036 150.48 378.796 150.72 378.796 151.08 378.796 151.32 379.036 151.32 379.276Z" fill-rule="evenodd"/><path transform="matrix(1,0,0,-1,0,595.276)" d="M153.6 378.556C153.96 378.556 154.32 378.556 154.56 378.316 154.8 378.196 155.04 377.956 155.16 377.596L154.32 377.236C154.2 377.596 153.96 377.716 153.6 377.716 153.24 377.716 153 377.476 152.88 376.996 152.88 376.876 152.88 376.876 152.88 376.756 152.88 376.636 152.88 376.636 152.88 376.516 153 376.036 153.24 375.796 153.6 375.796 153.84 375.796 153.96 375.796 154.08 375.916 154.2 376.036 154.32 376.156 154.32 376.396L155.16 376.036C154.92 375.196 154.44 374.836 153.72 374.836 152.52 374.956 152.04 375.556 151.92 376.756 152.04 377.956 152.64 378.556 153.6 378.556Z" fill-rule="evenodd"/><path transform="matrix(1,0,0,-1,0,595.276)" d="M156.6 379.756V376.036 375.916C156.6 375.796 156.84 375.796 157.2 375.916L157.32 375.076H157.2C157.2 375.076 157.2 374.956 157.08 374.956 156.96 374.956 156.72 374.956 156.6 374.956 156.12 374.956 155.76 375.196 155.64 375.556V375.676 375.796 379.756H156.6Z" fill-rule="evenodd"/><path transform="matrix(1,0,0,-1,0,595.276)" d="M160.92 376.396C160.92 377.836 160.32 378.556 159.24 378.556 158.4 378.556 157.8 377.956 157.8 376.756 157.8 376.276 157.92 375.916 158.16 375.556 158.52 375.076 159 374.956 159.48 374.836 160.08 374.836 160.56 375.196 160.8 375.556L160.2 376.036C160.08 375.916 159.72 375.796 159.48 375.796 159.24 375.796 159.12 375.796 159 375.916 158.88 376.036 158.88 376.036 158.76 376.156 158.76 376.276 158.76 376.396 158.76 376.396H160.92ZM158.64 377.116V377.116C158.76 377.236 158.76 377.476 158.88 377.596 159 377.716 159.24 377.716 159.36 377.716 159.6 377.716 159.84 377.476 159.96 377.236V377.116H158.64Z" fill-rule="evenodd"/><path transform="matrix(1,0,0,-1,0,595.276)" d="M164.4 376.036C164.4 376.756 164.04 377.116 163.32 377.236 163.08 377.236 162.84 377.236 162.72 377.356 162.72 377.356 162.6 377.356 162.6 377.476 162.6 377.716 162.72 377.836 163.08 377.836 163.2 377.836 163.32 377.836 163.44 377.716 163.56 377.596 163.68 377.596 163.8 377.476L164.4 378.076C164.16 378.436 163.68 378.676 163.08 378.676 162.12 378.676 161.64 378.196 161.64 377.476 161.64 376.876 162 376.516 162.6 376.396 163.08 376.396 163.44 376.276 163.44 376.036 163.44 375.916 163.32 375.916 163.32 375.796 163.2 375.796 163.2 375.796 162.96 375.796 162.84 375.796 162.6 375.796 162.48 375.916 162.36 375.916 162.12 376.036 162 376.276L161.4 375.556C161.76 375.076 162.24 374.836 162.96 374.836 163.44 374.836 163.8 374.956 164.04 375.196 164.28 375.436 164.4 375.676 164.4 376.036Z" fill-rule="evenodd"/><path transform="matrix(1,0,0,-1,0,595.276)" d="M147 378.316C147.48 378.676 147.96 378.676 148.44 378.436 148.68 378.316 148.92 378.196 149.04 377.956 149.16 377.716 149.16 377.476 149.16 377.236V375.076H148.2V377.116C148.2 377.236 148.2 377.356 148.08 377.476 147.96 377.596 147.84 377.716 147.72 377.716 147.48 377.716 147.36 377.596 147.24 377.476 147.12 377.356 147.12 377.236 147.12 377.116V375.076H146.16V379.756H147V378.316Z" fill-rule="evenodd"/><path transform="matrix(1,0,0,-1,0,595.276)" d="M118.2 366.916 118.68 366.436 119.04 366.676 119.28 366.916 119.52 367.276 119.76 367.636 119.88 367.996 120 368.356 120.12 368.836V369.316H119.64V368.956L119.16 368.836 120 370.396H120.12 120.24L120.12 370.516 120 370.636 119.76 370.756 119.28 370.156 119.04 370.396 119.76 371.476 119.28 371.716 118.68 370.636 118.56 370.756 118.2 370.396 119.04 369.676 118.56 368.716H118.2L118.32 368.356 118.44 368.236H118.56L118.68 368.356 119.52 368.476 119.4 367.996 119.04 367.516 118.68 367.156Z" fill-rule="evenodd"/><path transform="matrix(1,0,0,-1,0,595.276)" d="M120.24 367.036 120 366.916V366.556 366.436L120.12 366.316 120.24 366.436 121.56 366.916 121.68 366.436 122.16 366.676 121.44 368.236 121.08 367.996 121.32 367.276 120.84 367.156V368.356H121.8V370.996H121.32V371.476L121.44 371.596V371.716H121.32 121.2 120.84V370.996H120.24V367.036ZM120.84 369.916V370.516H121.32V369.916H120.84ZM120.84 368.956V369.556H121.32V368.956H120.84Z" fill-rule="evenodd"/><path transform="matrix(1,0,0,-1,0,595.276)" d="M122.28 366.196H122.76V370.876H123.36L122.88 369.436 123.12 369.076 123.36 368.716 123.48 368.356V367.996 367.756L123.36 367.516 123.12 367.396H122.76L123 366.796H123.24L123.48 366.916 123.72 367.036 123.84 367.396 124.08 367.876 123.96 368.356 123.84 368.836 123.36 369.436 123.96 371.116 123.48 371.476 123.36 371.356H122.28Z" fill-rule="evenodd"/><path transform="matrix(1,0,0,-1,0,595.276)" d="M125.76 370.516V370.036H126.84L126.6 369.436 126.24 368.836 126 368.236 125.64 367.756 126.12 367.396 126.48 368.116 126.84 368.956V366.316H127.32V368.956L127.68 368.476 128.04 367.996 128.4 368.356 128.04 368.716 127.8 369.196 127.56 369.556 127.32 370.036H128.16V370.516H127.32V371.476L127.44 371.596V371.716H127.2 126.84V370.516Z" fill-rule="evenodd"/><path transform="matrix(1,0,0,-1,0,595.276)" d="M128.4 370.516V370.036H130.2V367.276 367.036L130.08 366.916 129.96 366.796H129.72 129.12L129.36 366.196H129.84L130.2 366.316 130.44 366.436 130.68 366.676V367.036 370.036H131.28V370.516H130.68V371.476L130.8 371.596 130.68 371.716H130.56 130.2V370.516Z" fill-rule="evenodd"/><path transform="matrix(1,0,0,-1,0,595.276)" d="M129.24 367.996 129.72 368.356 129 369.436 128.52 368.956 129 368.476Z" fill-rule="evenodd"/><path transform="matrix(1,0,0,-1,0,595.276)" d="M133.92 371.716V370.396H133.2V369.916H133.92L133.44 368.956 133.08 367.996 133.56 367.636 133.92 368.596V366.196H134.4V368.956L134.64 368.476 135 368.836 134.64 369.316 134.4 369.916H134.88V370.396H134.4V371.476L134.52 371.596 134.4 371.716H134.16Z" fill-rule="evenodd"/><path transform="matrix(1,0,0,-1,0,595.276)" d="M135.72 371.716 135.24 370.756 135.12 370.876 134.76 370.516 135.48 370.036 135.12 369.436H134.88V369.196 369.076L135 368.956H135.12V369.076L136.08 369.196 136.2 368.836 136.56 368.956 136.32 369.916H135.96L136.08 369.556H135.6L136.44 370.636 136.56 369.676 136.68 368.716H135V368.236H135.48L135.36 367.756 135.24 367.276 135 366.916 134.76 366.556 135.24 366.316 135.6 366.796 135.84 367.396 136.32 366.796 136.68 367.156 136.44 367.516 136.08 367.876 135.84 367.756 135.96 368.236H136.8L136.92 367.636 137.16 367.156 136.68 366.796 136.2 366.556 136.44 366.196 136.92 366.436 137.4 366.796 137.64 366.436 138 366.196H138.12 138.24L138.36 366.316 138.6 366.676 138.84 367.036 138.36 367.396 138.24 366.916 138.12 366.796H138L137.76 367.036 138.24 367.636H138.36V367.756 367.876L138.24 367.996 137.88 368.116 137.52 367.516 137.28 368.236H138.72V368.716H138.24L137.88 369.196 137.52 368.836 137.76 368.716H137.16L137.04 369.556 136.92 370.516 137.64 370.036 137.28 369.556 137.04 369.436 137.16 369.196 137.28 369.076V368.956H137.4V369.076L138.24 369.316 138.36 368.956 138.72 369.076 138.48 370.036 138.12 369.916 138.24 369.676 137.76 369.556 138.6 370.636 138.12 370.996 137.76 370.396 137.64 370.636 138.12 371.596 137.76 371.716 137.28 370.876H137.16L136.92 370.756V371.476H137.04V371.596L136.8 371.716 136.44 371.836V370.636L136.08 370.996 135.72 370.396 135.6 370.636 136.08 371.476Z" fill-rule="evenodd"/><path transform="matrix(1,0,0,-1,0,595.276)" d="M140.64 371.476 140.88 370.996H141.84V370.756H140.52V370.276H141.84V369.916H140.76V368.116H141.84V367.756H140.76V367.276H141.84V366.916L140.64 366.796V366.436 366.316L140.76 366.196 140.88 366.316 143.52 366.676 143.4 366.556 144 366.316 144.36 367.036 144.72 367.876 144.84 368.836 144.96 369.916H145.44V367.756 367.396L145.32 367.156 145.08 366.916H144.84L144.6 366.796 144.72 366.316H145.08L145.56 366.556 145.92 366.796 146.04 367.156V367.516 369.916 370.396H144.96V371.476L145.08 371.596V371.716H144.96 144.84 144.48V370.396H143.88V369.916H144.48L144.36 368.956 144.24 368.116 143.88 367.396 143.52 366.796V367.156L142.44 367.036V367.276H143.4V367.756H142.44V368.116H143.64V369.916H142.44V370.276H143.76V370.756H142.44V371.116L142.92 371.236 143.28 371.356H143.52 143.64V371.476L143.16 371.836 142.68 371.596 142.08 371.476H141.36 140.64ZM142.44 368.596V368.836H143.04V368.596H142.44ZM142.44 369.196V369.556H143.04V369.196H142.44ZM141.36 368.596V368.836H141.96V368.596H141.36ZM141.36 369.196V369.556H141.84V369.196H141.36Z" fill-rule="evenodd"/><path transform="matrix(1,0,0,-1,0,595.276)" d="M148.32 371.236V370.756H150.48V370.276H148.92V367.996H150.48V367.516H148.08V367.036H150.48V366.196H151.08V367.036H153.48V367.516H151.08V367.996H152.76V370.276H151.08V370.756H153.24V371.236H151.08V371.476 371.596H151.2L151.08 371.716 150.48 371.836V371.236H148.32ZM149.4 369.316V369.796H150.48V369.316H149.4ZM149.4 368.476V368.956H150.48V368.476H149.4ZM151.08 369.316V369.796H152.16V369.316H151.08ZM151.08 368.476V368.956H152.16V368.476H151.08Z" fill-rule="evenodd"/><path transform="matrix(1,0,0,-1,0,595.276)" d="M155.4 370.636H156.24V370.276H155.52V367.996H156.24V367.636H155.4V367.036H156.24V366.196H156.72V367.036H157.56V367.636H156.72V367.996H157.56V370.276H156.72V370.636H157.56V371.116H156.72V371.476L156.84 371.596 156.72 371.716H156.6 156.24V371.116H155.4V370.636ZM156.72 369.436V369.796H156.96V369.436H156.72ZM156.72 368.476V368.956H156.96V368.476H156.72ZM156 369.436V369.796H156.24V369.436H156ZM156 368.476V368.956H156.24V368.476H156Z" fill-rule="evenodd"/><path transform="matrix(1,0,0,-1,0,595.276)" d="M157.8 370.876H159.12V370.396H157.8V366.196H158.28V367.636L158.52 367.516 158.76 367.996V367.756L158.88 367.516 159.12 367.636V366.316H159.6V367.636L159.84 367.516 160.08 367.996 160.2 367.516 160.44 367.636V366.916 366.796 366.676H160.32 160.2 159.96L160.08 366.196H160.44 160.68L160.8 366.316 160.92 366.436V366.676 370.396H159.6V370.876H161.04V371.476H157.8V370.876ZM158.28 367.996V368.836H158.52V368.476L158.28 367.996ZM159.6 367.996V368.836H159.84V368.476L159.6 367.996ZM160.32 369.316H159.6V369.796H160.44V367.876L160.32 368.476V369.316ZM159 369.316H158.28V369.796H159.12V367.876L159 368.476V369.316Z" fill-rule="evenodd"/></g></svg>