<?xml version='1.0' encoding='UTF-8'?>
<svg xmlns="http://www.w3.org/2000/svg" xmlns:xlink="http://www.w3.org/1999/xlink" xmlns:inkscape="http://www.inkscape.org/namespaces/inkscape" version="1.1" width="567.000" height="269.280" viewBox="0 0 567.000 269.280"><g transform="scale(10.0) translate(-438.573, -424.224)"><defs><clipPath id="clip_2"><path transform="matrix(1,0,0,-1,0,595.276)" d="M74.4 .196H767.4V595.276H74.4Z"/></clipPath></defs><path transform="matrix(1,0,0,-1,0,595.276)" d="M447.12 169.756V169.756H486.6C486.72 169.756 486.72 169.756 486.84 169.756 486.84 169.636 486.84 169.636 486.84 169.516V145.516 145.396C486.72 145.276 486.72 145.276 486.6 145.276H447.12C447.12 145.276 447 145.276 447 145.396 446.88 145.396 446.88 145.516 446.88 145.516V169.516C446.88 169.756 447 169.756 447.12 169.756Z" fill="#ffffff" fill-rule="evenodd"/><path transform="matrix(1,0,0,-1,0,595.276)" d="M453.12 147.436H452.4L452.52 147.676H452.64 452.52L452.4 147.796 452.28 147.436 452.04 147.076H452.16L452.4 147.316H453.12V147.076 146.956H452.4V146.836H453.12V146.596H452.04L451.92 146.476 452.04 146.356H454.44V146.476 146.596H453.36V146.836H454.08V146.956H453.36V147.076 147.316H454.2V147.436H453.36V147.556 147.676L453.24 147.796 453.12 147.676V147.556Z" fill-rule="evenodd"/><path transform="matrix(1,0,0,-1,0,595.276)" d="M456.24 146.356 456.36 146.476 456.24 146.596 456 146.956 455.88 146.836 456 146.596Z" fill-rule="evenodd"/><path transform="matrix(1,0,0,-1,0,595.276)" d="M455.04 146.356H455.16L455.4 146.476 455.52 146.836H455.64L455.52 146.956 455.28 146.596Z" fill-rule="evenodd"/><path transform="matrix(1,0,0,-1,0,595.276)" d="M465.36 148.636H465.72L465.84 148.396 466.08 148.036 466.2 147.796 466.44 147.556 466.56 147.676 466.32 147.916 466.2 148.156 466.08 148.516 465.96 148.876H465.36Z" fill-rule="evenodd"/><path transform="matrix(1,0,0,-1,0,595.276)" d="M465 148.636 464.76 148.756 464.64 148.396 464.52 148.156 464.28 147.916 464.16 147.676 464.28 147.556 464.52 147.796 464.64 148.036 464.76 148.276 465 148.636Z" fill-rule="evenodd"/><path transform="matrix(1,0,0,-1,0,595.276)" d="M465.36 148.036H465.24L464.64 146.716H464.28L464.4 146.476 464.52 146.596 466.2 146.716 466.32 146.356 466.56 146.476 466.2 146.956 465.84 147.436 465.72 147.316 466.08 146.956 464.88 146.836 465.36 147.916H465.48V148.036Z" fill-rule="evenodd"/><path transform="matrix(1,0,0,-1,0,595.276)" d="M467.16 146.476 467.28 146.356 467.64 146.596 468 146.836V146.956L467.88 147.076 467.52 146.716Z" fill-rule="evenodd"/><path transform="matrix(1,0,0,-1,0,595.276)" d="M469.56 146.356V146.476H469.68L469.44 146.596 469.32 146.716 469.2 146.836 469.08 146.956 469.44 147.196 469.56 147.316 469.44 147.436 469.2 147.196 469.08 147.076 468.96 147.316V147.556H468.72L468.84 147.196 468.96 146.956 469.08 146.716 469.2 146.596 469.32 146.476 469.44 146.356Z" fill-rule="evenodd"/><path transform="matrix(1,0,0,-1,0,595.276)" d="M472.56 148.636H471.84V148.516H472.44V147.916H471.84V147.796H472.56Z" fill-rule="evenodd"/><path transform="matrix(1,0,0,-1,0,595.276)" d="M470.88 148.756 470.76 148.876 470.64 148.516 470.52 148.276 470.28 147.916 470.16 147.676 470.28 147.436 470.52 147.796V146.356H470.64V148.276L470.88 148.756H471Z" fill-rule="evenodd"/><path transform="matrix(1,0,0,-1,0,595.276)" d="M474.48 146.356 474.6 146.476 474.48 146.596 474.24 146.956 474.12 146.836 474.24 146.596Z" fill-rule="evenodd"/><path transform="matrix(1,0,0,-1,0,595.276)" d="M473.28 146.356H473.4L473.64 146.476 473.76 146.836H473.88L473.76 146.956H473.64L473.52 146.596Z" fill-rule="evenodd"/><path transform="matrix(1,0,0,-1,0,595.276)" d="M476.16 147.676 476.28 147.556H476.4L476.52 147.916V146.356H476.76V148.156L476.88 148.636H477V148.756H476.88L476.76 148.876 476.64 148.516 476.52 148.156 476.4 147.916Z" fill-rule="evenodd"/><path transform="matrix(1,0,0,-1,0,595.276)" d="M478.2 148.396H478.08V146.836H478.2V148.276L478.32 148.396Z" fill-rule="evenodd"/><path transform="matrix(1,0,0,-1,0,595.276)" d="M477 148.516H477.24L477.12 148.156V147.916L477 147.556 476.88 147.436 477 147.316H477.12L477.24 147.676 477.36 147.916H477.72L477.6 147.556V147.316L477.24 147.436 477.12 147.316 477.6 147.196 477.48 146.956 477.36 146.836 477.24 146.596 477.12 146.476V146.356H477.24L477.36 146.476 477.48 146.716 477.6 146.836 477.72 147.076V147.196L477.84 147.676V148.036H477.36L477.48 148.516H477.96V148.636H477Z" fill-rule="evenodd"/><path transform="matrix(1,0,0,-1,0,595.276)" d="M478.32 146.356H478.44 478.56V146.476H478.68V146.596 148.636 148.756H478.44V146.716 146.596 146.476H478.32 478.2 478.08 478.2V146.356Z" fill-rule="evenodd"/><path transform="matrix(1,0,0,-1,0,595.276)" d="M480.84 148.036 480.72 147.916 481.08 147.556V146.356H481.2V147.436L481.44 147.316 481.8 147.196V147.316L481.44 147.436 481.2 147.676V148.756H481.32L481.2 148.876H481.08V147.796Z" fill-rule="evenodd"/><path transform="matrix(1,0,0,-1,0,595.276)" d="M458.88 165.916H457.32L457.44 166.156 457.32 166.276H457.2L456.96 165.796 456.72 165.316 456.84 165.196 457.08 165.436 457.2 165.796H457.8V164.956H456.6V164.716H457.8V163.756H458.04V164.716H459.12V164.956H458.04V165.796H458.88Z" fill-rule="evenodd"/><path transform="matrix(1,0,0,-1,0,595.276)" d="M465.12 165.316H464.52V165.796H465V165.916H464.52V166.156 166.276H464.4 464.28V165.916H463.8V165.796H464.28V165.316H463.68 463.56V165.196H463.68 465.12V165.316Z" fill-rule="evenodd"/><path transform="matrix(1,0,0,-1,0,595.276)" d="M464.64 165.076V164.836L464.52 164.716H463.68V164.596H464.52 464.64V163.996L464.52 163.876H464.28V163.756H464.4 464.64 464.76V163.876 164.596H465.12V164.716H464.76V164.836 164.956 165.076H464.64Z" fill-rule="evenodd"/><path transform="matrix(1,0,0,-1,0,595.276)" d="M463.8 164.476 463.68 164.356 463.92 164.236 464.16 164.116 464.28 164.236 464.04 164.356Z" fill-rule="evenodd"/><path transform="matrix(1,0,0,-1,0,595.276)" d="M454.08 147.916V148.756H452.4 452.28V147.916L452.4 147.796H454.08V147.916ZM452.52 148.396V148.396 148.636H453.84V148.396H452.52ZM453.84 148.276V148.276 148.036H452.52V148.276H453.84Z" fill-rule="evenodd"/><path transform="matrix(1,0,0,-1,0,595.276)" d="M456.48 148.516V148.516H456.24V148.756 148.876H456.12 456V148.516H455.52V148.756H455.64L455.52 148.876H455.4V148.516H455.28 455.04V148.396H455.28 455.4V147.196L455.28 147.076H455.04V146.956H456.48V147.076H456.24V147.196 148.396H456.48V148.516ZM456 147.556H455.52V147.676 147.916H456V147.676 147.556ZM456 148.396V148.036H455.52V148.396H456ZM455.52 147.436H456V147.196 147.076H455.52V147.196 147.436Z" fill-rule="evenodd"/><path transform="matrix(1,0,0,-1,0,595.276)" d="M457.32 147.196V146.716 146.596H457.2V146.476H457.08 456.96V146.356H457.08 457.32L457.44 146.476V146.596 146.716 148.756H456.72V148.036L456.6 147.436V146.836L456.48 146.476 456.6 146.356 456.72 146.716 456.84 147.196H457.32ZM457.32 147.916V147.316H456.84V147.916H457.32ZM457.32 148.636V148.036H456.84V148.636H457.32Z" fill-rule="evenodd"/><path transform="matrix(1,0,0,-1,0,595.276)" d="M458.64 146.596H459.96V146.356H460.08V148.756H458.4V146.356H458.64V146.596ZM458.64 147.676H459.96V146.716H458.64V147.676ZM459.96 148.636V147.796H458.64V148.636H459.96Z" fill-rule="evenodd"/><path transform="matrix(1,0,0,-1,0,595.276)" d="M462 146.356 462.36 146.596 462.72 146.836 463.08 146.596 463.44 146.476 463.56 146.596 463.2 146.716 462.84 146.836 463.08 147.076 463.2 147.316 463.32 147.556 463.44 147.796V147.916L463.32 148.036H462.84L463.2 148.636V148.756H463.08 461.28V148.636H461.88V148.156L461.76 147.676 461.64 147.316 461.52 147.076 461.28 146.836 461.04 146.596V146.476H461.16L461.4 146.716 461.64 146.956 461.88 147.316 462 147.676 462.24 147.196 462.6 146.836 462.24 146.716 461.88 146.476 462 146.356ZM462.36 147.436 462.12 147.676 462 147.916V148.636H462.96L462.48 147.796H462.6L462.72 147.916H463.2L463.08 147.676 462.96 147.436 462.84 147.196 462.72 146.956 462.48 147.196 462.36 147.436Z" fill-rule="evenodd"/><path transform="matrix(1,0,0,-1,0,595.276)" d="M462.72 163.996H462.84V164.356H463.32V164.236H463.44V166.036H462.72V163.996ZM462.84 165.076V165.196H463.32V165.076 164.596H462.84V165.076ZM463.32 165.316H462.84V165.796 165.916H463.32V165.796 165.316Z" fill-rule="evenodd"/><path transform="matrix(1,0,0,-1,0,595.276)" d="M467.52 148.636V147.916H467.16V147.796H468L467.64 147.436 467.28 147.316 467.4 147.196 467.76 147.436 468.12 147.796H468.6L468.36 147.556 468.24 147.436 468 147.316 467.88 147.196 468 147.076 468.36 147.316V146.236H468.48V147.436L468.72 147.796H469.56V147.916H469.32V148.636H468.36L468.48 148.756H468.6L468.48 148.876H468.36L468.12 148.636H467.52ZM468 147.916H467.64V148.396H468V147.916ZM468.24 148.396H468.6V147.916H468.24V148.396ZM469.2 147.916H468.72V148.396H469.2V147.916Z" fill-rule="evenodd"/><path transform="matrix(1,0,0,-1,0,595.276)" d="M471.12 147.316H471.72V147.436H471.12V147.796H471.72V148.636H471V146.356H471.12V146.836H471.72V146.956H471.12V147.316ZM471.6 148.516V148.036H471.12V148.516H471.6Z" fill-rule="evenodd"/><path transform="matrix(1,0,0,-1,0,595.276)" d="M472.08 146.716 471.96 146.596 471.72 146.476V146.356H471.84L472.08 146.476 472.2 146.596 472.44 146.476 472.56 146.356H472.68V146.476L472.56 146.596 472.32 146.716 472.56 146.956 472.68 147.436V147.556H472.56 471.84V147.436L471.96 147.196V147.076L472.08 146.836V146.716ZM472.44 147.436 472.32 147.076 472.2 146.836 472.08 147.076V147.436H472.44Z" fill-rule="evenodd"/><path transform="matrix(1,0,0,-1,0,595.276)" d="M473.64 148.396V147.196L473.52 147.076H473.28V146.956H474.72V147.076H474.48V147.196 148.396H474.72V148.516H474.48V148.756 148.876H474.24V148.516H473.76V148.756 148.876H473.64V148.516H473.52 473.28V148.396H473.52 473.64ZM474.24 148.036H473.76V148.396H474.24V148.036ZM473.76 147.556V147.676 147.916H474.24V147.676 147.556H473.76ZM474.24 147.436V147.436 147.196 147.076H473.76V147.196 147.436H474.24Z" fill-rule="evenodd"/><path transform="matrix(1,0,0,-1,0,595.276)" d="M475.56 147.196V146.716 146.596H475.44V146.476H475.2V146.356H475.32 475.56L475.68 146.476V146.596 146.716 148.756H474.84V148.036 147.436 146.836L474.72 146.476 474.84 146.356 474.96 146.716 475.08 147.196H475.56ZM475.08 147.916H475.56V147.316H475.08V147.916ZM475.56 148.036H475.08V148.636H475.56V148.036Z" fill-rule="evenodd"/><path transform="matrix(1,0,0,-1,0,595.276)" d="M479.76 146.836 480 147.076 480.12 147.316 479.64 147.676 479.4 147.436 479.28 147.556 479.52 147.796 479.64 148.156 479.76 148.516 480 148.876 480.12 148.756 480 148.516H480.48L480.6 148.396V148.276L480.48 147.676 480.36 147.196 480.12 146.956 480 146.716 479.76 146.476 479.52 146.356H479.4V146.476L479.52 146.596 479.76 146.836ZM480.48 148.276H480L479.76 147.796 480.24 147.556 480.36 147.916 480.48 148.276Z" fill-rule="evenodd"/><path transform="matrix(1,0,0,-1,0,595.276)" d="M462.84 151.036 462.96 150.436 463.2 151.036H463.56L463.08 149.836C463.08 149.716 463.08 149.716 463.08 149.596H462.96C462.84 149.596 462.84 149.596 462.72 149.596 462.72 149.596 462.6 149.596 462.48 149.596L462.6 149.836H462.72C462.84 149.836 462.84 149.836 462.84 149.956V150.076L462.48 151.036H462.84Z" fill-rule="evenodd"/><path transform="matrix(1,0,0,-1,0,595.276)" d="M456.24 151.036V150.916C456.36 150.916 456.36 150.916 456.48 150.916 456.84 150.796 457.08 150.676 457.08 150.436 457.08 150.076 456.84 149.956 456.36 149.956 456.24 149.956 456.12 149.956 456 149.956 455.88 150.076 455.76 150.076 455.64 150.196L456 150.436C456.12 150.316 456.24 150.196 456.36 150.196 456.6 150.196 456.72 150.316 456.72 150.436 456.72 150.556 456.6 150.556 456.36 150.556 456 150.676 455.88 150.796 455.76 151.036 455.88 151.396 456 151.516 456.48 151.516 456.6 151.516 456.72 151.516 456.84 151.516 456.84 151.396 456.96 151.396 457.08 151.276L456.84 151.036C456.72 151.156 456.6 151.276 456.48 151.276 456.24 151.276 456.24 151.156 456.24 151.036Z" fill-rule="evenodd"/><path transform="matrix(1,0,0,-1,0,595.276)" d="M458.04 149.956C458.04 149.956 457.92 149.956 457.8 149.956 457.68 149.956 457.56 149.956 457.44 149.956 457.44 150.076 457.32 150.196 457.32 150.316V151.036H457.68V150.436 150.316L457.8 150.196C457.92 150.196 457.92 150.196 458.04 150.316V150.436 151.036H458.4V149.956H458.04Z" fill-rule="evenodd"/><path transform="matrix(1,0,0,-1,0,595.276)" d="M458.64 151.036V149.956H459V150.676C459 150.796 459.12 150.796 459.24 150.796 459.36 150.796 459.36 150.796 459.36 150.676V150.556 149.956H459.72V150.676 150.796C459.72 151.036 459.48 151.156 459.24 151.156H459.12L459 151.036H458.64Z" fill-rule="evenodd"/><path transform="matrix(1,0,0,-1,0,595.276)" d="M471.96 149.956C471.96 149.956 471.84 149.956 471.72 149.956 471.6 149.956 471.48 149.956 471.36 149.956 471.36 150.076 471.24 150.196 471.24 150.316V151.036H471.6V150.436 150.316L471.72 150.196C471.84 150.196 471.84 150.196 471.96 150.316V150.436 151.036H472.32V149.956H471.96Z" fill-rule="evenodd"/><path transform="matrix(1,0,0,-1,0,595.276)" d="M451.08 149.956C451.2 149.956 451.32 149.956 451.44 149.956 451.44 150.076 451.56 150.196 451.56 150.316L451.32 150.436C451.2 150.196 451.2 150.196 451.08 150.196 450.96 150.196 450.84 150.316 450.84 150.436V150.556C450.84 150.796 450.96 150.796 451.08 150.796H451.2L451.32 150.676 451.56 150.796C451.44 151.036 451.32 151.156 451.08 151.156 450.72 151.156 450.6 150.916 450.48 150.556 450.48 150.076 450.72 149.956 451.08 149.956Z" fill-rule="evenodd"/><path transform="matrix(1,0,0,-1,0,595.276)" d="M454.32 150.196V150.796H454.2V151.036H454.32V151.396L454.68 151.516V151.036H454.92V150.796H454.68V150.316 150.196H454.8 454.92L455.04 149.956C454.92 149.956 454.8 149.956 454.68 149.956 454.44 149.956 454.44 149.956 454.32 150.196Z" fill-rule="evenodd"/><path transform="matrix(1,0,0,-1,0,595.276)" d="M464.28 150.676C464.52 150.676 464.64 150.556 464.64 150.316 464.64 150.076 464.4 149.956 464.16 149.956 464.04 149.956 463.92 149.956 463.8 149.956L463.68 150.076 463.8 150.316C463.92 150.196 464.04 150.196 464.16 150.196 464.28 150.196 464.28 150.196 464.28 150.316 464.28 150.316 464.16 150.436 464.04 150.436 463.8 150.436 463.68 150.556 463.68 150.796 463.68 151.036 463.92 151.156 464.16 151.156 464.28 151.156 464.4 151.156 464.4 151.036 464.52 151.036 464.52 151.036 464.64 150.916L464.4 150.796C464.4 150.796 464.28 150.916 464.16 150.916L464.04 150.796 464.28 150.676Z" fill-rule="evenodd"/><path transform="matrix(1,0,0,-1,0,595.276)" d="M467.16 150.796C467.04 150.796 466.92 150.796 466.92 150.676V149.956H466.56V151.036H466.92L467.04 151.156H467.16C467.4 151.156 467.64 151.036 467.64 150.796V150.676 149.956H467.28V150.556 150.676C467.28 150.796 467.16 150.796 467.16 150.796Z" fill-rule="evenodd"/><path transform="matrix(1,0,0,-1,0,595.276)" d="M474.24 151.516V150.316 150.196C474.24 150.196 474.36 150.196 474.48 150.196V149.956H474.36 474.24C474.12 149.956 474 149.956 473.88 150.076V150.196 151.516H474.24Z" fill-rule="evenodd"/><path transform="matrix(1,0,0,-1,0,595.276)" d="M474.72 149.956H474.96V151.036H474.72Z" fill-rule="evenodd"/><path transform="matrix(1,0,0,-1,0,595.276)" d="M476.04 150.436C475.92 150.196 475.92 150.196 475.8 150.196 475.68 150.196 475.56 150.316 475.56 150.436 475.56 150.436 475.44 150.436 475.44 150.556H475.56C475.56 150.796 475.56 150.796 475.8 150.796H475.92C475.92 150.796 475.92 150.676 476.04 150.676L476.28 150.796C476.16 151.036 476.04 151.156 475.68 151.156 475.44 151.156 475.2 150.916 475.2 150.556 475.2 150.076 475.44 149.956 475.8 149.956 475.92 149.956 476.04 149.956 476.04 149.956 476.16 150.076 476.16 150.196 476.28 150.316L476.04 150.436Z" fill-rule="evenodd"/><path transform="matrix(1,0,0,-1,0,595.276)" d="M476.88 151.516V149.956H477.24V150.556H477.6 477.84V149.956H478.2V151.516H477.84V150.916H477.6 477.24V151.516Z" fill-rule="evenodd"/><path transform="matrix(1,0,0,-1,0,595.276)" d="M480.12 151.516V150.316 150.196C480.12 150.196 480.24 150.196 480.36 150.196V149.956H480.24 480.12C480 149.956 479.88 149.956 479.76 150.076V150.196 151.516H480.12Z" fill-rule="evenodd"/><path transform="matrix(1,0,0,-1,0,595.276)" d="M480.6 151.036V149.956H480.84V151.036Z" fill-rule="evenodd"/><path transform="matrix(1,0,0,-1,0,595.276)" d="M485.4 150.676C485.64 150.676 485.76 150.556 485.76 150.316 485.76 150.076 485.64 149.956 485.28 149.956 485.16 149.956 485.04 149.956 485.04 149.956 484.92 149.956 484.8 150.076 484.8 150.076L485.04 150.316C485.04 150.196 485.16 150.196 485.28 150.196H485.4V150.316C485.4 150.316 485.4 150.436 485.16 150.436 484.92 150.436 484.92 150.556 484.8 150.796 484.8 151.036 485.04 151.156 485.28 151.156 485.4 151.156 485.52 151.156 485.52 151.036 485.64 151.036 485.76 151.036 485.76 150.916L485.52 150.796C485.52 150.796 485.4 150.916 485.28 150.916 485.28 150.916 485.28 150.796 485.16 150.796L485.4 150.676Z" fill-rule="evenodd"/><path transform="matrix(1,0,0,-1,0,595.276)" d="M484.2 150.436 483.96 151.036H483.6L483.96 150.076V149.956 149.836H483.84 483.72V149.596C483.84 149.596 483.96 149.596 484.08 149.596H484.2C484.2 149.716 484.2 149.716 484.2 149.836L484.68 151.036H484.32L484.2 150.436Z" fill-rule="evenodd"/><path transform="matrix(1,0,0,-1,0,595.276)" d="M449.76 150.316 449.64 149.956H449.28L449.64 150.556 449.28 151.036H449.64L449.76 150.796 450 151.036H450.36L450 150.556 450.36 149.956H450Z" fill-rule="evenodd"/><path transform="matrix(1,0,0,-1,0,595.276)" d="M447.96 149.956H449.04V150.316H448.32V150.556H448.92V150.916H448.32V151.156H448.92V151.516H447.96Z" fill-rule="evenodd"/><path transform="matrix(1,0,0,-1,0,595.276)" d="M474.96 151.396C474.96 151.516 474.96 151.516 474.84 151.516 474.72 151.516 474.6 151.516 474.6 151.396 474.6 151.276 474.72 151.156 474.84 151.156 474.96 151.156 474.96 151.276 474.96 151.396Z" fill-rule="evenodd"/><path transform="matrix(1,0,0,-1,0,595.276)" d="M480.84 151.396C480.84 151.516 480.84 151.516 480.72 151.516 480.6 151.516 480.48 151.516 480.48 151.396 480.48 151.276 480.6 151.156 480.72 151.156 480.84 151.156 480.84 151.276 480.84 151.396Z" fill-rule="evenodd"/><path transform="matrix(1,0,0,-1,0,595.276)" d="M452.52 150.316 452.64 150.076C452.64 150.076 452.64 149.956 452.52 149.956 452.4 149.956 452.28 149.956 452.28 149.956 452.04 149.956 451.92 149.956 451.8 150.076 451.68 150.196 451.68 150.316 451.68 150.556 451.68 150.916 451.92 151.156 452.16 151.156 452.4 151.156 452.52 151.036 452.64 150.916 452.64 150.796 452.76 150.676 452.76 150.436H452.04C452.04 150.316 452.04 150.316 452.04 150.196 452.16 150.196 452.16 150.196 452.28 150.196 452.4 150.196 452.4 150.196 452.52 150.316ZM452.04 150.676H452.4C452.4 150.796 452.28 150.796 452.16 150.796H452.04V150.676Z" fill-rule="evenodd"/><path transform="matrix(1,0,0,-1,0,595.276)" d="M453 151.036H453.24C453.24 151.036 453.36 151.156 453.48 151.156 453.72 151.156 453.84 151.036 453.96 150.916 453.96 150.916 454.08 150.676 454.08 150.556 454.08 150.316 453.96 150.196 453.96 150.076 453.84 149.956 453.72 149.956 453.48 149.956 453.36 149.956 453.24 149.956 453.24 149.956V149.596H453V151.036ZM453.48 150.196C453.6 150.196 453.72 150.196 453.72 150.316V150.436 150.676C453.72 150.796 453.6 150.916 453.48 150.796 453.36 150.796 453.24 150.796 453.24 150.676V150.436 150.316H453.36C453.36 150.196 453.48 150.196 453.48 150.196Z" fill-rule="evenodd"/><path transform="matrix(1,0,0,-1,0,595.276)" d="M460.68 151.036C460.56 151.036 460.56 151.156 460.44 151.156 460.2 151.036 459.96 150.916 459.96 150.676V150.556 150.436C459.96 150.076 460.2 149.836 460.44 149.956 460.56 149.956 460.68 149.956 460.68 149.956H461.04V151.516H460.68V151.036ZM460.68 150.316C460.68 150.196 460.56 150.196 460.44 150.196 460.32 150.196 460.2 150.316 460.2 150.556 460.2 150.676 460.32 150.796 460.56 150.796H460.68V150.676 150.556 150.316Z" fill-rule="evenodd"/><path transform="matrix(1,0,0,-1,0,595.276)" d="M461.88 150.676C461.4 150.676 461.28 150.556 461.28 150.316 461.28 150.076 461.4 149.956 461.64 149.956 461.76 149.956 461.88 149.956 462 150.076 462 149.956 462 149.956 462.12 149.956H462.24L462.36 150.196H462.24V150.796C462.24 151.036 462 151.156 461.76 151.156 461.64 151.156 461.52 151.156 461.52 151.036 461.4 151.036 461.28 151.036 461.28 150.916L461.4 150.676C461.52 150.796 461.64 150.796 461.76 150.796H461.88V150.676ZM461.88 150.436V150.196H461.76 461.64C461.52 150.196 461.52 150.316 461.52 150.316 461.52 150.436 461.64 150.436 461.88 150.436Z" fill-rule="evenodd"/><path transform="matrix(1,0,0,-1,0,595.276)" d="M465.96 150.676C465.48 150.676 465.24 150.556 465.24 150.316 465.24 150.076 465.48 149.956 465.72 149.956 465.84 149.956 465.96 149.956 465.96 150.076L466.08 149.956C466.2 149.956 466.2 149.956 466.32 149.956L466.44 150.196H466.32V150.796C466.2 151.036 466.08 151.156 465.84 151.156 465.72 151.156 465.6 151.156 465.48 151.036 465.48 151.036 465.36 151.036 465.36 150.916L465.48 150.676C465.6 150.796 465.72 150.796 465.84 150.796H465.96V150.676ZM465.6 150.316C465.6 150.316 465.6 150.436 465.72 150.436 465.72 150.436 465.84 150.436 465.96 150.436V150.196H465.84C465.72 150.196 465.72 150.196 465.6 150.196V150.316Z" fill-rule="evenodd"/><path transform="matrix(1,0,0,-1,0,595.276)" d="M468.6 151.036C468.48 151.036 468.48 151.156 468.36 151.156 468.12 151.036 467.88 150.916 467.88 150.676V150.556 150.436C467.88 150.076 468.12 149.836 468.36 149.956 468.48 149.956 468.6 149.956 468.6 149.956H468.96V151.516H468.6V151.036ZM468.36 150.196C468.24 150.196 468.12 150.316 468.12 150.556 468.12 150.676 468.24 150.796 468.36 150.796 468.48 150.796 468.48 150.796 468.6 150.796V150.676 150.556 150.316 150.196C468.48 150.196 468.48 150.196 468.36 150.196Z" fill-rule="evenodd"/><path transform="matrix(1,0,0,-1,0,595.276)" d="M469.92 151.516V149.956H470.28V150.556H470.64 470.76C470.88 150.556 471 150.796 471 151.036 471 151.276 470.88 151.516 470.76 151.516H470.64 469.92ZM470.28 150.796V151.276H470.52 470.64C470.64 151.276 470.76 151.156 470.76 151.036 470.76 150.916 470.64 150.796 470.64 150.796H470.52 470.28Z" fill-rule="evenodd"/><path transform="matrix(1,0,0,-1,0,595.276)" d="M473.16 151.156C473.52 151.156 473.76 150.916 473.76 150.436 473.76 150.316 473.64 150.196 473.64 150.076 473.52 149.956 473.4 149.956 473.16 149.956 473.16 149.956 473.04 149.956 472.92 149.956H472.56V151.516H472.92V151.036C472.92 151.036 473.04 151.156 473.16 151.156ZM473.16 150.796C473.04 150.796 472.92 150.796 472.92 150.676V150.316L473.04 150.196H473.16C473.28 150.196 473.4 150.316 473.4 150.556 473.4 150.676 473.28 150.796 473.16 150.796Z" fill-rule="evenodd"/><path transform="matrix(1,0,0,-1,0,595.276)" d="M478.56 150.556C478.56 150.316 478.56 150.196 478.68 150.076 478.8 149.956 478.92 149.956 479.04 149.956 479.4 149.956 479.64 150.076 479.64 150.556 479.64 150.676 479.52 150.916 479.52 150.916 479.4 151.036 479.28 151.156 479.04 151.156 478.68 151.156 478.56 150.916 478.56 150.556ZM479.04 150.796C479.16 150.796 479.28 150.676 479.28 150.556 479.28 150.316 479.16 150.196 479.04 150.196 479.04 150.196 478.92 150.196 478.92 150.316 478.92 150.316 478.8 150.436 478.8 150.556 478.8 150.676 478.92 150.796 479.04 150.796Z" fill-rule="evenodd"/><path transform="matrix(1,0,0,-1,0,595.276)" d="M481.92 151.036C481.8 151.036 481.8 151.036 481.68 151.036 481.68 151.156 481.56 151.156 481.56 151.156 481.32 151.036 481.08 150.916 481.08 150.676V150.556 150.436C481.08 150.076 481.32 149.836 481.56 149.956 481.68 149.956 481.8 149.956 481.92 149.956H482.16V151.516H481.92V151.036ZM481.92 150.316C481.8 150.196 481.8 150.196 481.68 150.196 481.44 150.196 481.44 150.316 481.32 150.556 481.44 150.676 481.44 150.796 481.68 150.796H481.8V150.676H481.92V150.556 150.316Z" fill-rule="evenodd"/><path transform="matrix(1,0,0,-1,0,595.276)" d="M483 150.676C482.88 150.676 482.64 150.676 482.52 150.556 482.4 150.556 482.4 150.436 482.4 150.316 482.4 150.076 482.52 149.956 482.88 149.956 482.88 149.956 483.12 149.956 483.12 150.076 483.12 149.956 483.12 149.956 483.24 149.956H483.36L483.48 150.196H483.36V150.796C483.36 151.036 483.12 151.156 482.88 151.156 482.76 151.156 482.64 151.156 482.64 151.036 482.52 151.036 482.52 151.036 482.4 150.916L482.52 150.676C482.64 150.796 482.76 150.796 482.88 150.796H483V150.676ZM482.76 150.316V150.436C482.88 150.436 482.88 150.436 483 150.436V150.196H482.88 482.76V150.316Z" fill-rule="evenodd"/><path transform="matrix(1,0,0,-1,0,595.276)" d="M455.76 165.076V165.196H454.68V166.156H454.8 454.68 454.56V163.996H453.48V163.756H455.88V163.996H454.68V165.076Z" fill-rule="evenodd"/><path transform="matrix(1,0,0,-1,0,595.276)" d="M459.6 165.316V165.076L460.44 165.196V164.116 163.996H460.56V163.876H460.68 461.52 461.64L461.76 163.996 461.88 164.116 462 164.236V164.476H461.88L461.76 164.236 461.64 164.116 461.52 163.996H460.8L460.68 164.116H460.56V165.196L462 165.436V165.556L460.56 165.436V166.156H460.68V166.276H460.56 460.44V165.436Z" fill-rule="evenodd"/><path transform="matrix(1,0,0,-1,0,595.276)" d="M474 154.276H472.44L472.56 154.516H472.68L472.56 154.636H472.44L472.2 154.156 471.84 153.676 472.08 153.556 472.2 153.916 472.32 154.156H473.04V153.316H471.84V153.196H473.04V152.116H473.16V153.196H474.24V153.316H473.16V154.156H474Z" fill-rule="evenodd"/><path transform="matrix(1,0,0,-1,0,595.276)" d="M480.36 153.676H479.64V154.156H480.12 480.24V154.276H480.12 479.64V154.516 154.636H479.52V154.276H479.4 479.04 478.92V154.156H479.04 479.4 479.52V153.676H479.4 478.8V153.556H480.36V153.676Z" fill-rule="evenodd"/><path transform="matrix(1,0,0,-1,0,595.276)" d="M479.76 153.436V153.196H478.92V153.076 152.956H479.76V152.356 152.236H479.52 479.4L479.52 152.116H479.88L480 152.236V152.356 152.956H480.24V153.076 153.196H480V153.316 153.436H479.88 479.76Z" fill-rule="evenodd"/><path transform="matrix(1,0,0,-1,0,595.276)" d="M479.04 152.836 478.92 152.716 479.16 152.596 479.28 152.476 479.4 152.596 479.28 152.716Z" fill-rule="evenodd"/><path transform="matrix(1,0,0,-1,0,595.276)" d="M477.96 152.356H478.08V152.476 152.716H478.44V152.596H478.56 478.68V154.396H477.96 477.84V152.476L477.96 152.356ZM478.08 153.556V153.556H478.44V152.956H478.08V153.556ZM478.44 153.676H478.08V154.276H478.44V153.676Z" fill-rule="evenodd"/><path transform="matrix(1,0,0,-1,0,595.276)" d="M474.72 153.676 474.84 153.436 475.68 153.556V152.476 152.356H475.8V152.236H476.64L476.88 152.356H477L477.12 152.476V152.716L477.24 152.836 477.12 152.956V152.836L477 152.596 476.88 152.476H476.76 476.04 475.92 475.8V153.676L477.24 153.796V154.036L475.8 153.796V154.516 154.636H475.68V153.796Z" fill-rule="evenodd"/><path transform="matrix(1,0,0,-1,0,595.276)" d="M467.52 154.156 467.76 153.796 466.44 153.676 466.92 154.396H468.12V154.516H465.84V154.396H466.68L466.32 153.676H465.84L465.96 153.556V153.436H466.08V153.556L467.88 153.676 468 153.436H468.12L467.88 153.916 467.64 154.276Z" fill-rule="evenodd"/><path transform="matrix(1,0,0,-1,0,595.276)" d="M467.04 152.356V152.956H468V153.076H467.04V153.316L467.16 153.436H467.04 466.92V153.076H465.96V152.956H466.92V152.356H465.72V152.236H468.24V152.356Z" fill-rule="evenodd"/><path transform="matrix(1,0,0,-1,0,595.276)" d="M468.72 154.636V154.516H469.8V152.236H470.04V153.676L470.4 153.436 470.76 153.196 470.88 153.316 470.52 153.676 470.04 153.916V154.516H471.24V154.636Z" fill-rule="evenodd"/><path transform="matrix(1,0,0,-1,0,595.276)" d="M458.88 154.276H457.32L457.44 154.516V154.636H457.32 457.2L456.96 154.156 456.72 153.676 456.84 153.556 457.08 153.916 457.2 154.156H457.8V153.316H456.6V153.196H457.8V152.116H458.04V153.196H459.12V153.316H458.04V154.156H458.88Z" fill-rule="evenodd"/><path transform="matrix(1,0,0,-1,0,595.276)" d="M465.12 153.676H464.52V154.156H465V154.276H464.52V154.516 154.636H464.4 464.28V154.276H463.8V154.156H464.28V153.676H463.68 463.56V153.556H463.68 465.12V153.676Z" fill-rule="evenodd"/><path transform="matrix(1,0,0,-1,0,595.276)" d="M464.64 153.436V153.196H464.52 463.68V153.076 152.956H464.52 464.64V152.356H464.52V152.236H464.28V152.116H464.4 464.64 464.76V152.236 152.356 152.956H465.12V153.076 153.196H464.76V153.316 153.436H464.64Z" fill-rule="evenodd"/><path transform="matrix(1,0,0,-1,0,595.276)" d="M463.8 152.836 463.68 152.716 463.92 152.596 464.16 152.476 464.28 152.596 464.04 152.716Z" fill-rule="evenodd"/><path transform="matrix(1,0,0,-1,0,595.276)" d="M462.72 152.356H462.84V152.476 152.716H463.32V152.596H463.44V154.396H462.72V152.476 152.356ZM462.84 153.556V153.556H463.32V152.956H462.84V153.556ZM463.32 153.676H462.84V154.276H463.32V153.676Z" fill-rule="evenodd"/><path transform="matrix(1,0,0,-1,0,595.276)" d="M453.6 154.636V154.516H454.68V152.236H454.8V153.676L455.28 153.436 455.64 153.196 455.76 153.316 455.28 153.676 454.8 153.916V154.516H456V154.636Z" fill-rule="evenodd"/><path transform="matrix(1,0,0,-1,0,595.276)" d="M468.24 157.036 467.76 155.716H468.12L468.6 157.036V157.276H467.52V157.036Z" fill-rule="evenodd"/><path transform="matrix(1,0,0,-1,0,595.276)" d="M467.28 156.076H466.8V156.316H467.28Z" fill-rule="evenodd"/><path transform="matrix(1,0,0,-1,0,595.276)" d="M465.12 155.716V156.436C465.12 156.556 465.24 156.676 465.36 156.676 465.48 156.676 465.48 156.556 465.48 156.556V155.716H465.84V156.436C465.84 156.556 465.96 156.676 465.96 156.676 466.08 156.676 466.08 156.676 466.08 156.556H466.2V155.716H466.44V156.556 156.676C466.32 156.796 466.2 156.916 465.96 156.916 465.84 156.916 465.84 156.916 465.72 156.796 465.6 156.916 465.6 156.916 465.36 156.916H465.24L465.12 156.796V156.916H464.88V155.716H465.12Z" fill-rule="evenodd"/><path transform="matrix(1,0,0,-1,0,595.276)" d="M463.56 155.356V156.916H463.8V156.796C463.8 156.916 463.92 156.916 464.04 156.916 464.28 156.916 464.4 156.916 464.52 156.796 464.52 156.676 464.64 156.556 464.64 156.316 464.64 156.196 464.52 155.956 464.52 155.836 464.4 155.716 464.28 155.716 464.16 155.716 464.04 155.716 463.8 155.716 463.8 155.836V155.356H463.56ZM464.04 155.956C464.16 155.956 464.28 156.076 464.28 156.196V156.436 156.556C464.28 156.556 464.16 156.676 464.04 156.676 463.92 156.676 463.8 156.556 463.8 156.556V156.196 156.076H463.92L464.04 155.956Z" fill-rule="evenodd"/><path transform="matrix(1,0,0,-1,0,595.276)" d="M471 165.076V165.316H469.92V166.156 166.276H469.8V163.996H468.72V163.876H471.24V163.996H469.92V165.076Z" fill-rule="evenodd"/><path transform="matrix(1,0,0,-1,0,595.276)" d="M468.96 160.036 469.2 159.676 467.88 159.556 468.36 160.276H469.56V160.396H467.28V160.276H468.12L467.76 159.556H467.28L467.4 159.436V159.316H467.52V159.436L469.32 159.556 469.44 159.316H469.56L469.32 159.796 469.08 160.156Z" fill-rule="evenodd"/><path transform="matrix(1,0,0,-1,0,595.276)" d="M468.48 158.236V158.836H469.44V158.956H468.48V159.196L468.6 159.316H468.48 468.36V158.956H467.4V158.836H468.36V158.236H467.16V158.116H469.68V158.236Z" fill-rule="evenodd"/><path transform="matrix(1,0,0,-1,0,595.276)" d="M470.28 160.396V160.276H471.36V158.116H471.48V159.556L471.96 159.316 472.32 159.076 472.44 159.196 471.96 159.436 471.48 159.676V160.276H472.68V160.396Z" fill-rule="evenodd"/><path transform="matrix(1,0,0,-1,0,595.276)" d="M475.56 160.156H474L474.12 160.396V160.516H474 473.88L473.64 160.036 473.4 159.556 473.52 159.436 473.76 159.676 473.88 160.036H474.48V159.196H473.28V158.956H474.48V157.996H474.72V158.956H475.8V159.196H474.72V160.036H475.56Z" fill-rule="evenodd"/><path transform="matrix(1,0,0,-1,0,595.276)" d="M481.8 159.556H481.2 481.08V160.036H481.2 481.68V160.156H481.2 481.08V160.396H481.2V160.516H481.08 480.96V160.156H480.48 480.36V160.036H480.48 480.96V159.556H480.24V159.436H481.8V159.556Z" fill-rule="evenodd"/><path transform="matrix(1,0,0,-1,0,595.276)" d="M481.32 159.316V159.076H481.2 480.36V158.956 158.836H481.2 481.32V158.236L481.2 158.116H480.96V157.996H481.08 481.32 481.44V158.116 158.836H481.8V158.956 159.076H481.44V159.196 159.316H481.32Z" fill-rule="evenodd"/><path transform="matrix(1,0,0,-1,0,595.276)" d="M480.48 158.716 480.36 158.596 480.6 158.476 480.84 158.356 480.96 158.476 480.72 158.596Z" fill-rule="evenodd"/><path transform="matrix(1,0,0,-1,0,595.276)" d="M479.4 158.236H479.52V158.356 158.596H480V158.476H480.12V160.276H479.4V158.356 158.236ZM479.52 159.436H480V158.836H479.52V159.436ZM479.52 159.556V160.156H480V159.556H479.52Z" fill-rule="evenodd"/><path transform="matrix(1,0,0,-1,0,595.276)" d="M473.88 161.596V162.316L474 162.436H474.12L474.24 162.316V161.596H474.48V162.436C474.36 162.676 474.24 162.676 474 162.796 473.88 162.796 473.88 162.676 473.76 162.556 473.64 162.676 473.64 162.796 473.4 162.796 473.4 162.796 473.4 162.676 473.28 162.676H473.16 472.92V161.596H473.16V162.316C473.16 162.316 473.28 162.436 473.4 162.436 473.52 162.436 473.52 162.436 473.52 162.316V161.596H473.88Z" fill-rule="evenodd"/><path transform="matrix(1,0,0,-1,0,595.276)" d="M471.84 162.676H471.6V161.236H471.84V161.596C471.84 161.596 472.08 161.476 472.2 161.476 472.44 161.476 472.68 161.716 472.68 162.196 472.68 162.556 472.44 162.796 472.08 162.796 471.96 162.796 471.84 162.676 471.84 162.676ZM472.08 161.836H471.96C471.96 161.956 471.96 161.956 471.84 161.956V162.316C471.84 162.436 471.96 162.436 472.08 162.436 472.2 162.436 472.32 162.436 472.32 162.316V162.076 161.956C472.32 161.836 472.2 161.836 472.08 161.836Z" fill-rule="evenodd"/><path transform="matrix(1,0,0,-1,0,595.276)" d="M467.52 162.316 467.4 162.436C467.28 162.436 467.16 162.316 467.16 162.316 467.16 162.196 467.28 162.076 467.4 162.076 467.4 162.076 467.52 162.196 467.52 162.316Z" fill-rule="evenodd"/><path transform="matrix(1,0,0,-1,0,595.276)" d="M467.52 161.716C467.52 161.836 467.4 161.836 467.4 161.836 467.28 161.836 467.16 161.836 467.16 161.716 467.16 161.596 467.28 161.596 467.4 161.596 467.4 161.596 467.52 161.596 467.52 161.716Z" fill-rule="evenodd"/><path transform="matrix(1,0,0,-1,0,595.276)" d="M470.76 162.316C470.76 162.916 470.52 163.156 470.16 163.156 469.92 163.156 469.68 163.156 469.56 163.036 469.44 162.796 469.44 162.676 469.44 162.316 469.44 162.076 469.44 161.836 469.56 161.716 469.68 161.596 469.92 161.476 470.16 161.476 470.4 161.476 470.52 161.596 470.64 161.716 470.76 161.836 470.76 162.076 470.76 162.316ZM470.16 161.836C469.92 161.836 469.8 161.956 469.8 162.316 469.8 162.676 469.92 162.916 470.16 162.916 470.28 162.916 470.28 162.796 470.4 162.796 470.4 162.676 470.52 162.556 470.52 162.316 470.52 161.956 470.4 161.836 470.16 161.836Z" fill-rule="evenodd"/><path transform="matrix(1,0,0,-1,0,595.276)" d="M465 162.076H465.48V161.836H465Z" fill-rule="evenodd"/><path transform="matrix(1,0,0,-1,0,595.276)" d="M460.56 159.316V159.436H459.36V160.396H459.48V160.516H459.36 459.24V159.436H458.04V159.316H459.24V157.996H459.36V159.316Z" fill-rule="evenodd"/><path transform="matrix(1,0,0,-1,0,595.276)" d="M474 165.916H472.44L472.56 166.156V166.276H472.44V166.396L472.2 165.796 471.84 165.436 471.96 165.316 472.2 165.556 472.32 165.796H472.92V164.956H471.72V164.836H472.92V163.756H473.16V164.836H474.24V164.956H473.16V165.796H474Z" fill-rule="evenodd"/><path transform="matrix(1,0,0,-1,0,595.276)" d="M457.32 160.156H455.64L455.88 160.396V160.516H455.76 455.64L455.4 160.036 455.16 159.556 455.28 159.436 455.4 159.676 455.64 160.036H456.24V159.196H455.04V158.956H456.24V157.996H456.48V158.956H457.56V159.196H456.48V160.036H457.32Z" fill-rule="evenodd"/><path transform="matrix(1,0,0,-1,0,595.276)" d="M466.56 159.556H465.96V160.036H466.44V160.156H465.96V160.396 160.516H465.84 465.72V160.156H465.24V160.036H465.72V159.556H465.12V159.436H466.56 466.68V159.556Z" fill-rule="evenodd"/><path transform="matrix(1,0,0,-1,0,595.276)" d="M466.08 159.316V159.076H465.12V158.956 158.836H466.08V158.236 158.116H465.96 465.72V157.996H465.84 466.08 466.2V158.116 158.836H466.56V158.956 159.076H466.2V159.196H466.32V159.316H466.2 466.08Z" fill-rule="evenodd"/><path transform="matrix(1,0,0,-1,0,595.276)" d="M465.24 158.716V158.596L465.36 158.476 465.6 158.356 465.72 158.476 465.48 158.596Z" fill-rule="evenodd"/><path transform="matrix(1,0,0,-1,0,595.276)" d="M464.16 158.236H464.28L464.4 158.356V158.596H464.76V158.476H464.88 465V160.276H464.88 464.16V158.356 158.236ZM464.4 159.436H464.76V158.836H464.4V159.436ZM464.4 159.556V160.156H464.76V159.556H464.4Z" fill-rule="evenodd"/><path transform="matrix(1,0,0,-1,0,595.276)" d="M480.24 165.316H479.64V165.796H480.12V165.916 166.036H479.64V166.276H479.52 479.4V166.036H478.92V165.916 165.796H479.4V165.316H478.8 478.68V165.196H478.8 480.24 480.36V165.316Z" fill-rule="evenodd"/><path transform="matrix(1,0,0,-1,0,595.276)" d="M479.76 165.076V164.836H478.8V164.716H479.76V163.996H479.64 479.4V163.876 163.756H479.52 479.76 479.88V163.876 163.996 164.716H480.24V164.836H479.88V165.076H479.76Z" fill-rule="evenodd"/><path transform="matrix(1,0,0,-1,0,595.276)" d="M478.92 164.596 478.8 164.476 479.04 164.236 479.28 164.116 479.4 164.236 479.16 164.476Z" fill-rule="evenodd"/><path transform="matrix(1,0,0,-1,0,595.276)" d="M477.84 164.116H477.96V164.476H478.08 478.44V164.356 164.236H478.56V164.356 166.036H477.84V164.116ZM478.08 165.196H478.44V164.596H478.08 477.96V165.196H478.08ZM477.96 165.316V165.916H478.08 478.44V165.316H478.08 477.96Z" fill-rule="evenodd"/><path transform="matrix(1,0,0,-1,0,595.276)" d="M467.4 165.796 467.64 165.556 466.32 165.436 466.8 166.036H468V166.156H465.72V166.036H466.68L466.2 165.436 465.84 165.316V165.196H465.96L467.76 165.436 467.88 165.076 468 165.196 467.76 165.556 467.52 165.916Z" fill-rule="evenodd"/><path transform="matrix(1,0,0,-1,0,595.276)" d="M466.92 164.116V164.596H467.88V164.716H466.92V165.076H467.04L466.92 165.196H466.8V164.716H465.84V164.596H466.8V164.116H465.72V163.876H468.12V164.116Z" fill-rule="evenodd"/><path transform="matrix(1,0,0,-1,0,595.276)" d="M461.4 159.796H463.44V160.036H461.4Z" fill-rule="evenodd"/><path transform="matrix(1,0,0,-1,0,595.276)" d="M461.16 158.236H463.68V158.356H461.16Z" fill-rule="evenodd"/><path transform="matrix(1,0,0,-1,0,595.276)" d="M475.8 165.436H476.4L476.28 163.996 476.4 163.876H476.52 476.88 477.12L477.24 164.236 477.12 164.356V164.236L477 164.116V163.996H476.88 476.52V165.556H475.8V166.156H475.92V166.276H475.8 475.68L475.56 165.556H474.96V165.436H475.56V165.196 164.956L475.44 164.716 475.32 164.596 475.2 164.356 475.08 164.236 474.96 164.116 474.72 163.876H474.84V163.756H474.96L475.08 163.996 475.2 164.116 475.44 164.356 475.56 164.476V164.716L475.68 164.956 475.8 165.196Z" fill-rule="evenodd"/><path transform="matrix(1,0,0,-1,0,595.276)" d="M460.44 162.076 459.72 163.156H459.36V161.596H459.72V162.556L460.44 161.596H460.8V163.156H460.44Z" fill-rule="evenodd"/><path transform="matrix(1,0,0,-1,0,595.276)" d="M463.68 161.596V162.676H464.04 464.16C464.16 162.676 464.16 162.796 464.28 162.796 464.52 162.796 464.64 162.676 464.64 162.316V161.596H464.4V162.196 162.316C464.4 162.436 464.28 162.436 464.16 162.436 464.04 162.436 464.04 162.436 464.04 162.316V161.596H463.68Z" fill-rule="evenodd"/><path transform="matrix(1,0,0,-1,0,595.276)" d="M462.24 162.076C462.24 162.556 462 162.796 461.64 162.796 461.28 162.796 461.04 162.556 461.04 162.076 461.04 161.716 461.28 161.476 461.64 161.476 462 161.476 462.24 161.716 462.24 162.076ZM461.4 162.076C461.4 162.316 461.52 162.436 461.64 162.436 461.76 162.436 461.88 162.316 461.88 162.076 461.88 162.076 461.88 161.956 461.76 161.956 461.76 161.836 461.76 161.836 461.64 161.836 461.52 161.836 461.4 161.956 461.4 162.076Z" fill-rule="evenodd"/><path transform="matrix(1,0,0,-1,0,595.276)" d="M463.44 162.076C463.44 162.316 463.44 162.436 463.32 162.556 463.2 162.676 463.08 162.796 462.96 162.796 462.6 162.796 462.36 162.556 462.36 162.076 462.36 161.956 462.36 161.836 462.48 161.716 462.6 161.596 462.72 161.476 462.96 161.476 463.32 161.476 463.44 161.716 463.44 162.076ZM463.2 162.076C463.2 161.956 463.08 161.836 462.96 161.836 462.84 161.836 462.84 161.836 462.72 161.956V162.076C462.72 162.316 462.72 162.436 462.96 162.436 462.96 162.436 463.08 162.436 463.08 162.316 463.08 162.316 463.2 162.196 463.2 162.076Z" fill-rule="evenodd"/><path transform="matrix(1,0,0,-1,0,595.276)" d="M453.36 158.956V157.996H453.12V159.076H452.28V158.836H452.04V160.036H453.12V160.636H453.24L453.36 160.516V160.036H454.32V158.836H454.08V158.956H453.36ZM453.12 159.196V159.916H452.28V159.196H453.12ZM453.36 159.916V159.196H454.08V159.916H453.36Z" fill-rule="evenodd"/><path transform="matrix(1,0,0,-1,0,595.276)" d="M476.64 159.796H478.56V160.036H476.64Z" fill-rule="evenodd"/><path transform="matrix(1,0,0,-1,0,595.276)" d="M476.4 158.236H478.8V158.356H476.4Z" fill-rule="evenodd"/><path transform="matrix(1,0,0,-1,0,595.276)" d="M459.6 152.236H462V152.356H461.52L461.64 153.556H460.68L460.92 154.276H461.88V154.396H459.72V154.276H460.68L460.56 153.556H459.84V153.436H460.56L460.2 152.356H459.6V152.236ZM460.68 153.436H461.52L461.4 152.356H460.44L460.68 153.436Z" fill-rule="evenodd"/><path transform="matrix(1,0,0,-1,0,595.276)" d="M469.08 167.476C469.08 167.596 468.96 167.716 468.96 167.716 468.84 167.716 468.72 167.596 468.72 167.476 468.72 167.476 468.84 167.356 468.96 167.356L469.08 167.476Z" fill-rule="evenodd"/><path transform="matrix(1,0,0,-1,0,595.276)" d="M469.08 168.076C469.08 168.196 468.96 168.196 468.96 168.196 468.84 168.196 468.72 168.196 468.72 168.076 468.72 167.956 468.84 167.956 468.96 167.956 468.96 167.956 469.08 167.956 469.08 168.076Z" fill-rule="evenodd"/><path transform="matrix(1,0,0,-1,0,595.276)" d="M467.04 167.716H466.44V167.956H467.04Z" fill-rule="evenodd"/><path transform="matrix(1,0,0,-1,0,595.276)" d="M464.88 167.356V168.076C464.88 168.196 465 168.196 465.12 168.196H465.24V167.356H465.6V168.076C465.6 168.196 465.6 168.196 465.72 168.196H465.84V167.356H466.2V168.196 168.316C466.08 168.436 465.96 168.556 465.72 168.556 465.6 168.556 465.48 168.556 465.48 168.436 465.36 168.556 465.24 168.556 465.12 168.556H465L464.88 168.436V168.556H464.64V167.356H464.88Z" fill-rule="evenodd"/><path transform="matrix(1,0,0,-1,0,595.276)" d="M459.36 167.476C459.36 167.596 459.24 167.716 459.12 167.716 459.12 167.716 459 167.596 459 167.476L459.12 167.356C459.24 167.356 459.36 167.476 459.36 167.476Z" fill-rule="evenodd"/><path transform="matrix(1,0,0,-1,0,595.276)" d="M459.36 168.076C459.36 168.196 459.24 168.196 459.12 168.196 459.12 168.196 459 168.196 459 168.076 459 167.956 459.12 167.956 459.12 167.956 459.24 167.956 459.36 167.956 459.36 168.076Z" fill-rule="evenodd"/><path transform="matrix(1,0,0,-1,0,595.276)" d="M462.6 168.196C462.6 168.436 462.48 168.676 462.36 168.796 462.24 168.916 462.12 169.036 461.88 169.036 461.4 169.036 461.16 168.676 461.16 168.196 461.16 167.836 461.28 167.716 461.4 167.596 461.52 167.356 461.64 167.356 461.88 167.356 462.12 167.356 462.24 167.356 462.36 167.596 462.48 167.716 462.6 167.836 462.6 168.196ZM462.24 168.196C462.24 167.836 462.12 167.596 461.88 167.596 461.64 167.596 461.52 167.836 461.52 168.196 461.52 168.316 461.52 168.436 461.64 168.556 461.64 168.676 461.76 168.676 461.88 168.676 462.12 168.676 462.24 168.556 462.24 168.196Z" fill-rule="evenodd"/><path transform="matrix(1,0,0,-1,0,595.276)" d="M463.92 168.076C463.56 168.076 463.32 167.956 463.32 167.716 463.32 167.476 463.44 167.356 463.68 167.356 463.8 167.356 464.04 167.356 464.04 167.476 464.04 167.476 464.04 167.356 464.16 167.356H464.28L464.4 167.596H464.28V168.196C464.28 168.436 464.04 168.556 463.8 168.556 463.68 168.556 463.56 168.556 463.56 168.556 463.44 168.436 463.32 168.436 463.32 168.436L463.44 168.196C463.56 168.196 463.68 168.316 463.8 168.316 463.8 168.316 463.92 168.316 463.92 168.196V168.076ZM463.56 167.716 463.68 167.836C463.8 167.836 463.8 167.836 463.92 167.836V167.716C463.92 167.596 463.92 167.596 463.8 167.596H463.68L463.56 167.716Z" fill-rule="evenodd"/><path transform="matrix(1,0,0,-1,0,595.276)" d="M458.52 168.676 457.92 167.356H458.28L458.76 168.676V168.916H457.68V168.676Z" fill-rule="evenodd"/><path transform="matrix(1,0,0,-1,0,595.276)" d="M467.28 168.436C467.28 168.076 467.52 167.836 467.88 167.836 468 167.836 468 167.836 468.12 167.836V167.956 167.836 167.716C468 167.716 468 167.596 467.88 167.596L467.76 167.716C467.76 167.716 467.64 167.716 467.64 167.836L467.4 167.716C467.52 167.476 467.64 167.356 467.88 167.356 468.24 167.356 468.48 167.596 468.48 168.076 468.48 168.436 468.48 168.676 468.36 168.796 468.24 168.916 468.12 169.036 467.88 169.036 467.76 169.036 467.52 168.916 467.52 168.796 467.4 168.676 467.28 168.556 467.28 168.436ZM468.12 168.436C468.12 168.316 468.12 168.316 468.12 168.196 468 168.196 468 168.196 467.88 168.196H467.76C467.64 168.316 467.64 168.316 467.64 168.436 467.64 168.556 467.76 168.676 467.88 168.676 468 168.676 468.12 168.556 468.12 168.436Z" fill-rule="evenodd"/><path transform="matrix(1,0,0,-1,0,595.276)" d="M460.92 168.196C460.92 168.436 460.92 168.676 460.8 168.796 460.68 168.916 460.44 169.036 460.32 169.036 460.08 169.036 459.84 168.916 459.72 168.796 459.6 168.676 459.6 168.436 459.6 168.196 459.6 167.836 459.6 167.716 459.72 167.596 459.84 167.356 460.08 167.356 460.32 167.356 460.44 167.356 460.68 167.356 460.8 167.596 460.92 167.716 460.92 167.836 460.92 168.196ZM460.68 168.196C460.68 167.836 460.56 167.596 460.32 167.596 460.08 167.596 459.96 167.836 459.96 168.196 459.96 168.556 460.08 168.676 460.32 168.676 460.56 168.676 460.68 168.556 460.68 168.196Z" fill-rule="evenodd"/><path transform="matrix(1,0,0,-1,0,595.276)" d="M474.6 167.356V168.076C474.6 168.196 474.72 168.196 474.84 168.196H474.96V167.356H475.32V168.076C475.32 168.196 475.44 168.196 475.44 168.196H475.56 475.68V167.356H475.92V168.196 168.316C475.8 168.436 475.68 168.556 475.56 168.556 475.32 168.556 475.32 168.556 475.2 168.436 475.08 168.556 475.08 168.556 474.84 168.556H474.72C474.72 168.556 474.72 168.436 474.6 168.436V168.556H474.36V167.356H474.6Z" fill-rule="evenodd"/><path transform="matrix(1,0,0,-1,0,595.276)" d="M472.32 168.196C472.32 168.676 472.08 169.036 471.6 169.036 471.36 169.036 471.24 168.916 471.12 168.796 471 168.676 470.88 168.436 470.88 168.196 470.88 167.836 471 167.716 471.12 167.596 471.24 167.356 471.36 167.356 471.6 167.356 471.84 167.356 471.96 167.356 472.08 167.596 472.2 167.716 472.32 167.836 472.32 168.196ZM471.96 168.196C471.96 167.836 471.84 167.596 471.6 167.596 471.48 167.596 471.36 167.716 471.36 167.716 471.24 167.836 471.24 167.956 471.24 168.196 471.24 168.556 471.36 168.676 471.6 168.676 471.72 168.676 471.84 168.676 471.84 168.556 471.96 168.436 471.96 168.316 471.96 168.196Z" fill-rule="evenodd"/><path transform="matrix(1,0,0,-1,0,595.276)" d="M473.64 168.076C473.52 168.076 473.28 168.076 473.16 167.956 473.04 167.956 473.04 167.836 473.04 167.716 473.04 167.476 473.16 167.356 473.52 167.356 473.64 167.356 473.76 167.356 473.76 167.476 473.76 167.476 473.76 167.356 473.88 167.356H474L474.12 167.596H474V168.196C474 168.436 473.88 168.556 473.52 168.556 473.4 168.556 473.28 168.556 473.28 168.556 473.16 168.436 473.16 168.436 473.04 168.436L473.16 168.196C473.28 168.196 473.4 168.316 473.52 168.316 473.64 168.316 473.64 168.316 473.64 168.196V168.076ZM473.4 167.716V167.836C473.52 167.836 473.52 167.836 473.64 167.836V167.716C473.64 167.596 473.64 167.596 473.52 167.596H473.4V167.716Z" fill-rule="evenodd"/><path transform="matrix(1,0,0,-1,0,595.276)" d="M470.64 168.196C470.64 168.676 470.52 169.036 470.04 169.036 469.8 169.036 469.56 168.916 469.56 168.796 469.44 168.676 469.32 168.436 469.32 168.196 469.32 167.836 469.44 167.716 469.56 167.596 469.56 167.356 469.8 167.356 470.04 167.356 470.28 167.356 470.4 167.356 470.52 167.596 470.64 167.716 470.64 167.836 470.64 168.196ZM470.4 168.196C470.4 167.956 470.28 167.836 470.28 167.716 470.16 167.716 470.16 167.596 470.04 167.596 469.8 167.596 469.68 167.836 469.68 168.196 469.68 168.556 469.8 168.676 470.04 168.676 470.16 168.676 470.16 168.676 470.28 168.556 470.28 168.436 470.4 168.316 470.4 168.196Z" fill-rule="evenodd"/><path transform="matrix(1,0,0,-1,0,595.276)" d="M459.48 155.956 459.36 156.076C459.24 156.076 459.12 155.956 459.12 155.956 459.12 155.836 459.24 155.716 459.36 155.716 459.36 155.716 459.48 155.836 459.48 155.956Z" fill-rule="evenodd"/><path transform="matrix(1,0,0,-1,0,595.276)" d="M459.48 156.436C459.48 156.556 459.36 156.676 459.36 156.676 459.24 156.676 459.12 156.556 459.12 156.436 459.12 156.316 459.24 156.316 459.36 156.316 459.36 156.316 459.48 156.316 459.48 156.436Z" fill-rule="evenodd"/><path transform="matrix(1,0,0,-1,0,595.276)" d="M462.72 156.556C462.72 157.156 462.48 157.396 462 157.396 461.76 157.396 461.64 157.276 461.52 157.156 461.4 157.036 461.4 156.796 461.4 156.556 461.4 156.316 461.4 156.076 461.52 155.956 461.64 155.836 461.76 155.716 462 155.716 462.24 155.716 462.48 155.836 462.6 155.956 462.6 156.076 462.72 156.316 462.72 156.556ZM462.36 156.556C462.36 156.316 462.36 156.196 462.24 156.196 462.24 156.076 462.12 155.956 462 155.956 461.76 155.956 461.64 156.196 461.64 156.556 461.64 156.676 461.76 156.796 461.76 156.916 461.88 157.036 461.88 157.036 462 157.036 462.12 157.036 462.24 157.036 462.24 156.916 462.36 156.796 462.36 156.676 462.36 156.556Z" fill-rule="evenodd"/><path transform="matrix(1,0,0,-1,0,595.276)" d="M461.16 156.556C461.16 157.156 460.92 157.396 460.44 157.396 459.96 157.396 459.72 157.156 459.72 156.556 459.72 156.316 459.84 156.076 459.96 155.956 460.08 155.836 460.2 155.716 460.44 155.716 460.68 155.716 460.8 155.836 460.92 155.956 461.04 156.076 461.16 156.316 461.16 156.556ZM460.8 156.556C460.8 156.316 460.8 156.196 460.68 156.196 460.68 156.076 460.56 155.956 460.44 155.956 460.2 155.956 460.08 156.196 460.08 156.556 460.08 156.676 460.08 156.796 460.2 156.916 460.2 157.036 460.32 157.036 460.44 157.036 460.56 157.036 460.68 157.036 460.68 156.916 460.8 156.796 460.8 156.676 460.8 156.556Z" fill-rule="evenodd"/><path transform="matrix(1,0,0,-1,0,595.276)" stroke-width=".12" stroke-linecap="round" stroke-linejoin="round" fill="none" stroke="#000000" d="M458.28 156.076C458.4 156.076 458.4 156.076 458.28 156.076"/><path transform="matrix(1,0,0,-1,0,595.276)" d="M458.28 156.076V156.076H458.16C458.04 156.076 458.04 156.196 458.04 156.196H457.68C457.68 155.956 457.8 155.836 457.92 155.836 458.04 155.716 458.16 155.716 458.28 155.716 458.64 155.716 458.88 155.956 458.88 156.316 458.88 156.676 458.64 156.916 458.28 156.916H458.16L458.04 156.796V156.916 157.036H458.76V157.276H457.8L457.68 156.556 458.04 156.436C458.04 156.556 458.16 156.556 458.28 156.556 458.28 156.556 458.4 156.556 458.52 156.556V156.436 156.316L458.28 156.076Z" fill-rule="evenodd"/><path transform="matrix(1,0,0,-1,0,595.276)" d="M474.72 155.716V156.436C474.72 156.556 474.84 156.676 474.96 156.676 475.08 156.676 475.08 156.556 475.08 156.556V155.716H475.44V156.436C475.44 156.556 475.56 156.676 475.56 156.676 475.68 156.676 475.68 156.676 475.68 156.556H475.8V155.716H476.04V156.556 156.676C475.92 156.796 475.8 156.916 475.68 156.916 475.44 156.916 475.44 156.916 475.32 156.796 475.2 156.916 475.2 156.916 474.96 156.916H474.84L474.72 156.796V156.916H474.48V155.716H474.72Z" fill-rule="evenodd"/><path transform="matrix(1,0,0,-1,0,595.276)" d="M473.16 155.356V156.916H473.4V156.796C473.4 156.916 473.64 156.916 473.64 156.916 473.88 156.916 474 156.916 474.12 156.796 474.12 156.676 474.24 156.556 474.24 156.316 474.24 155.956 474 155.716 473.76 155.716 473.64 155.716 473.52 155.716 473.4 155.836V155.356H473.16ZM473.64 155.956C473.76 155.956 473.88 156.076 473.88 156.196V156.436 156.556C473.88 156.556 473.76 156.676 473.64 156.676 473.52 156.676 473.4 156.556 473.4 156.556V156.196L473.52 156.076 473.64 155.956Z" fill-rule="evenodd"/><path transform="matrix(1,0,0,-1,0,595.276)" d="M469.08 155.956 468.96 156.076C468.84 156.076 468.72 155.956 468.72 155.956 468.72 155.836 468.84 155.716 468.96 155.716 468.96 155.716 469.08 155.836 469.08 155.956Z" fill-rule="evenodd"/><path transform="matrix(1,0,0,-1,0,595.276)" d="M469.08 156.436C469.08 156.556 468.96 156.676 468.96 156.676 468.84 156.676 468.72 156.556 468.72 156.436 468.72 156.316 468.84 156.316 468.96 156.316 468.96 156.316 469.08 156.316 469.08 156.436Z" fill-rule="evenodd"/><path transform="matrix(1,0,0,-1,0,595.276)" d="M472.32 156.556C472.32 156.796 472.32 157.036 472.2 157.156 472.08 157.276 471.84 157.396 471.6 157.396 471.36 157.396 471.24 157.276 471.12 157.156 471 157.036 471 156.796 471 156.556 471 156.316 471 156.076 471.12 155.956 471.24 155.836 471.36 155.716 471.6 155.716 471.84 155.716 472.08 155.836 472.2 155.956 472.32 156.076 472.32 156.316 472.32 156.556ZM471.96 156.556C471.96 156.196 471.84 155.956 471.6 155.956 471.36 155.956 471.24 156.196 471.24 156.556 471.24 156.916 471.36 157.036 471.6 157.036 471.84 157.036 471.96 156.916 471.96 156.556Z" fill-rule="evenodd"/><path transform="matrix(1,0,0,-1,0,595.276)" d="M470.76 156.556C470.76 156.796 470.64 157.036 470.52 157.156 470.4 157.276 470.28 157.396 470.04 157.396 469.8 157.396 469.68 157.276 469.56 157.156 469.44 157.036 469.32 156.796 469.32 156.556 469.32 156.316 469.44 156.076 469.56 155.956 469.68 155.836 469.8 155.716 470.04 155.716 470.28 155.716 470.4 155.836 470.52 155.956 470.64 156.076 470.76 156.316 470.76 156.556ZM470.4 156.556C470.4 156.196 470.28 155.956 470.04 155.956 469.92 155.956 469.8 156.076 469.8 156.196 469.68 156.196 469.68 156.316 469.68 156.556 469.68 156.916 469.8 157.036 470.04 157.036 470.28 157.036 470.4 156.916 470.4 156.556Z" fill-rule="evenodd"/><path transform="matrix(1,0,0,-1,0,595.276)" d="M469.2 162.316C469.2 162.676 469.2 162.796 469.08 163.036 468.96 163.156 468.72 163.156 468.48 163.156 468.24 163.156 468.12 163.156 468 163.036 467.88 162.796 467.88 162.676 467.88 162.316 467.88 162.076 467.88 161.836 468 161.716 468.12 161.596 468.24 161.476 468.48 161.476 468.72 161.476 468.96 161.596 469.08 161.716 469.2 161.836 469.2 162.076 469.2 162.316ZM468.48 161.836C468.24 161.836 468.12 161.956 468.12 162.316 468.12 162.676 468.24 162.916 468.48 162.916 468.72 162.916 468.84 162.676 468.84 162.316 468.84 161.956 468.72 161.836 468.48 161.836Z" fill-rule="evenodd"/><path transform="matrix(1,0,0,-1,0,595.276)" d="M466.32 162.796C466.44 162.796 466.56 162.796 466.56 162.676V162.556C466.56 162.436 466.32 162.316 465.72 161.836V161.596H466.8V161.836H466.32C466.68 162.076 466.92 162.316 466.92 162.556V162.676C466.92 163.036 466.68 163.156 466.32 163.156 466.08 163.156 465.96 163.156 465.84 163.036 465.84 162.916 465.72 162.916 465.72 162.796 465.72 162.796 465.72 162.676 465.72 162.556H466.08C466.08 162.796 466.08 162.796 466.32 162.796Z" fill-rule="evenodd"/><path transform="matrix(1,0,0,-1,0,595.276)" stroke-width=".12" stroke-linecap="butt" stroke-miterlimit="10" stroke-linejoin="miter" fill="none" stroke="#000000" d="M447.5 169.5V169.5"/><path transform="matrix(1,0,0,-1,0,595.276)" d="M446.64 145.636V169.516C446.64 169.636 446.64 169.756 446.76 169.876 446.88 169.996 447 170.116 447.12 170.116H486.6C486.72 170.116 486.84 169.996 486.96 169.876 487.08 169.756 487.2 169.636 487.2 169.516V145.636C487.2 145.396 487.08 145.276 486.96 145.156 486.84 145.036 486.72 145.036 486.6 145.036H447.12C447 145.036 446.88 145.036 446.76 145.156 446.76 145.276 446.64 145.276 446.64 145.396 446.64 145.396 446.64 145.516 446.64 145.636ZM447.12 169.756C447 169.756 446.88 169.756 446.88 169.516V145.516C446.88 145.516 446.88 145.396 447 145.396 447 145.276 447.12 145.276 447.12 145.276H486.6C486.72 145.276 486.84 145.396 486.84 145.516V169.516C486.84 169.756 486.72 169.756 486.6 169.756H447.12Z" fill-rule="evenodd"/></g></svg>