<?xml version='1.0' encoding='UTF-8'?>
<svg xmlns="http://www.w3.org/2000/svg" xmlns:xlink="http://www.w3.org/1999/xlink" xmlns:inkscape="http://www.inkscape.org/namespaces/inkscape" version="1.1" width="567.000" height="269.280" viewBox="0 0 567.000 269.280"><g transform="scale(10.0) translate(-220.305, -208.800)"><defs><clipPath id="clip_2"><path transform="matrix(1,0,0,-1,0,595.276)" d="M74.4 .196H767.4V595.276H74.4Z"/></clipPath></defs><path transform="matrix(1,0,0,-1,0,595.276)" d="M222.72 379.636H274.68C274.8 379.636 274.92 379.636 275.04 379.516 275.16 379.516 275.28 379.516 275.4 379.396 275.4 379.276 275.52 379.156 275.52 379.036 275.64 378.916 275.64 378.796 275.64 378.676V367.156C275.64 366.916 275.52 366.676 275.4 366.436 275.16 366.316 274.92 366.196 274.68 366.196H222.72C222.48 366.196 222.24 366.316 222 366.436 222 366.556 221.88 366.676 221.88 366.796 221.76 366.916 221.76 367.036 221.76 367.156V378.676C221.76 378.916 221.88 379.156 222 379.396 222.24 379.516 222.48 379.636 222.72 379.636ZM222.72 379.156C222.48 379.156 222.24 378.916 222.24 378.676V367.156C222.24 367.036 222.24 366.916 222.36 366.796 222.48 366.676 222.6 366.676 222.72 366.676H274.68C274.8 366.676 274.92 366.676 275.04 366.796 275.16 366.916 275.16 367.036 275.16 367.156V378.676C275.16 378.796 275.16 378.916 275.04 379.036 274.92 379.156 274.8 379.156 274.68 379.156H222.72Z" fill-rule="evenodd"/><path transform="matrix(1,0,0,-1,0,595.276)" d="M222.72 379.156H274.68 274.8C274.92 379.156 274.92 379.036 275.04 379.036 275.04 379.036 275.04 378.916 275.16 378.916 275.16 378.796 275.16 378.796 275.16 378.676V367.156C275.16 367.036 275.16 366.916 275.04 366.796 274.92 366.676 274.8 366.676 274.68 366.676H222.72C222.6 366.676 222.48 366.676 222.36 366.796 222.24 366.916 222.24 367.036 222.24 367.156V378.676C222.24 378.796 222.24 378.916 222.36 379.036 222.48 379.156 222.6 379.156 222.72 379.156Z" fill="#ffffff" fill-rule="evenodd"/><path transform="matrix(1,0,0,-1,0,595.276)" d="M225.24 377.476V375.436H226.32V374.836H224.64V377.476Z" fill-rule="evenodd"/><path transform="matrix(1,0,0,-1,0,595.276)" d="M228.48 375.556C228.48 376.396 228.24 376.876 227.52 376.876 227.04 376.876 226.68 376.516 226.68 375.796 226.68 375.556 226.8 375.316 226.92 375.076 227.16 374.836 227.4 374.716 227.64 374.716 228 374.716 228.36 374.836 228.36 375.076L228.12 375.436C228 375.316 227.88 375.196 227.64 375.196 227.52 375.196 227.4 375.196 227.4 375.316 227.28 375.316 227.28 375.436 227.28 375.436V375.556H228.48ZM227.28 376.036V376.036C227.28 376.156 227.28 376.156 227.4 376.276 227.4 376.276 227.52 376.396 227.64 376.396 227.76 376.396 227.88 376.276 228 376.036H227.28Z" fill-rule="evenodd"/><path transform="matrix(1,0,0,-1,0,595.276)" d="M230.64 374.836V376.156C230.64 376.636 230.4 376.876 229.92 376.876 229.8 376.876 229.68 376.876 229.68 376.756 229.56 376.756 229.44 376.756 229.44 376.636V376.756H228.84V374.836H229.44V376.036C229.44 376.276 229.56 376.396 229.8 376.396 230.04 376.396 230.04 376.276 230.16 376.036V375.916 374.836H230.64Z" fill-rule="evenodd"/><path transform="matrix(1,0,0,-1,0,595.276)" d="M232.92 374.716V376.756H232.32V376.636C232.32 376.756 232.2 376.876 231.96 376.876 231.36 376.876 231.12 376.516 231.12 375.796 231.12 375.196 231.48 374.956 231.96 374.836 231.96 374.836 232.08 374.836 232.2 374.956 232.32 374.956 232.32 374.956 232.32 375.076V374.956C232.32 374.716 232.2 374.596 232.08 374.596 231.96 374.596 231.84 374.596 231.72 374.716 231.6 374.716 231.48 374.716 231.36 374.836L231.12 374.356C231.24 374.236 231.72 374.116 231.96 374.116 232.56 374.116 232.92 374.356 232.92 374.716ZM232.32 376.036V375.676C232.32 375.556 232.32 375.436 232.2 375.436L232.08 375.316C231.84 375.316 231.6 375.556 231.6 375.796 231.6 376.156 231.72 376.276 231.96 376.276 232.2 376.276 232.32 376.156 232.32 376.036Z" fill-rule="evenodd"/><path transform="matrix(1,0,0,-1,0,595.276)" d="M234.12 376.756H234.6V376.276H234.12V375.436 375.316C234.24 375.196 234.24 375.196 234.36 375.196H234.48L234.6 375.316 234.72 374.836C234.6 374.716 234.36 374.716 234.12 374.716 234 374.716 233.88 374.716 233.76 374.836 233.64 374.956 233.64 375.076 233.64 375.196V376.276H233.28V376.756H233.64V377.356L234.12 377.596V376.756Z" fill-rule="evenodd"/><path transform="matrix(1,0,0,-1,0,595.276)" d="M235.56 376.636C235.8 376.876 236.04 376.876 236.4 376.756 236.52 376.756 236.64 376.636 236.64 376.516 236.76 376.396 236.76 376.276 236.76 376.156V374.836H236.28V376.036L236.16 376.156V376.276C236.04 376.276 236.04 376.276 235.92 376.276 235.8 376.276 235.68 376.276 235.68 376.276 235.56 376.156 235.56 376.036 235.56 376.036V374.836H235.08V377.476H235.56V376.636Z" fill-rule="evenodd"/><path transform="matrix(1,0,0,-1,0,595.276)" d="M240.24 375.796C240.24 376.516 239.88 376.876 239.28 376.876 238.68 376.876 238.32 376.516 238.32 375.796 238.32 375.436 238.32 375.196 238.56 374.956 238.68 374.836 238.92 374.716 239.28 374.716 239.52 374.716 239.76 374.836 240 374.956 240.12 375.196 240.24 375.436 240.24 375.796ZM239.64 375.796C239.64 375.436 239.52 375.316 239.28 375.316 239.04 375.316 238.8 375.436 238.8 375.796 238.8 376.156 239.04 376.276 239.28 376.276 239.52 376.276 239.64 376.156 239.64 375.796Z" fill-rule="evenodd"/><path transform="matrix(1,0,0,-1,0,595.276)" d="M241.08 374.836 240.48 376.756H240.96L241.44 375.436 241.8 376.756H242.4L241.68 374.836H241.44Z" fill-rule="evenodd"/><path transform="matrix(1,0,0,-1,0,595.276)" d="M244.44 375.556C244.44 376.396 244.08 376.876 243.48 376.876 243 376.876 242.64 376.516 242.64 375.796 242.64 375.556 242.64 375.316 242.76 375.076 243 374.836 243.36 374.716 243.6 374.716 243.96 374.716 244.2 374.836 244.32 375.076L243.96 375.436C243.96 375.316 243.72 375.196 243.6 375.196 243.48 375.196 243.36 375.196 243.24 375.316V375.436L243.12 375.556H244.44ZM243.12 376.036V376.036C243.12 376.156 243.24 376.156 243.24 376.276 243.36 376.276 243.48 376.396 243.48 376.396 243.72 376.396 243.84 376.276 243.84 376.036H243.12Z" fill-rule="evenodd"/><path transform="matrix(1,0,0,-1,0,595.276)" d="M244.8 374.836V376.756H245.28V376.636C245.4 376.636 245.4 376.756 245.52 376.756 245.64 376.876 245.76 376.876 246 376.876V376.276C245.76 376.276 245.64 376.276 245.52 376.156 245.4 376.156 245.4 376.036 245.4 375.916V374.836H244.8Z" fill-rule="evenodd"/><path transform="matrix(1,0,0,-1,0,595.276)" d="M270.12 373.276C269.64 373.276 269.16 372.916 269.16 372.556V372.436 369.076H267.6V372.796C267.6 373.036 267.36 373.276 266.88 373.276 266.52 373.276 265.92 372.916 265.92 372.556V372.436 369.076H264.48V374.596H265.92V374.356C266.16 374.476 266.28 374.596 266.52 374.596 266.76 374.716 267 374.716 267.24 374.716 267.96 374.716 268.44 374.476 268.68 373.996 269.04 374.476 269.52 374.716 270.24 374.716 271.2 374.716 271.92 374.236 272.16 373.516 272.28 373.396 272.28 373.276 272.28 373.276 272.28 373.156 272.28 373.156 272.28 373.036V369.076H270.84V372.796C270.84 372.916 270.72 373.036 270.6 373.156 270.48 373.276 270.24 373.276 270.12 373.276Z" fill-rule="evenodd"/><path transform="matrix(1,0,0,-1,0,595.276)" d="M252 376.636V369.076H250.44V374.476H249.36V375.916C249.72 375.916 250.08 375.916 250.32 376.036 250.44 376.156 250.56 376.396 250.56 376.636H252Z" fill-rule="evenodd"/><path transform="matrix(1,0,0,-1,0,595.276)" d="M260.52 372.916C260.52 374.236 260.28 375.196 259.68 375.916 259.2 376.516 258.36 376.876 257.28 376.876 256.2 376.876 255.36 376.516 254.76 375.916 254.16 375.196 253.92 374.236 253.92 372.916 253.92 371.476 254.16 370.516 254.76 369.796 255.36 369.196 256.2 368.836 257.28 368.836 258.36 368.836 259.2 369.196 259.68 369.796 260.28 370.516 260.52 371.476 260.52 372.916ZM258.96 372.916C258.96 371.116 258.36 370.276 257.28 370.276 256.68 370.276 256.2 370.516 255.96 370.876 255.72 371.356 255.6 371.956 255.6 372.916 255.6 374.596 256.08 375.436 257.28 375.436 257.76 375.436 258.24 375.196 258.48 374.836 258.84 374.356 258.96 373.756 258.96 372.916Z" fill-rule="evenodd"/><path transform="matrix(1,0,0,-1,0,595.276)" d="M228.12 372.316V371.956H229.68V371.716H228.48V370.036H229.68V369.676H227.88V369.316H229.68V368.716H230.04V369.316H231.72V369.676H230.04V370.036H231.24V371.716H230.04V371.956H231.6V372.316H230.04V372.556L230.16 372.676H230.04L229.68 372.796V372.316H228.12ZM228.84 370.996V371.356H229.68V370.996H228.84ZM228.84 370.396V370.636H229.68V370.396H228.84ZM230.04 370.996V371.356H230.88V370.996H230.04ZM230.04 370.396V370.636H230.88V370.396H230.04Z" fill-rule="evenodd"/><path transform="matrix(1,0,0,-1,0,595.276)" d="M234 372.676V370.756H233.16V370.396H233.88V369.316H233.28L233.4 369.076V368.836H233.52V368.956L235.44 369.316V369.556L235.8 369.316 236.16 369.076 236.52 368.956 236.88 368.836 237.24 369.196 236.64 369.316 236.16 369.556 236.64 369.916H236.76V370.036H236.64L236.4 370.276 236.16 370.036 235.8 369.796 235.56 370.036 235.32 370.396H237.12V370.756H234.36V370.996H236.52V371.356H234.36V371.716H236.52V371.956H234.36V372.316H236.52V372.676H234ZM234.36 370.396H234.84L235.08 370.036 235.44 369.556 234.36 369.436V370.396Z" fill-rule="evenodd"/><path transform="matrix(1,0,0,-1,0,595.276)" d="M238.92 372.676 238.68 372.436 239.04 372.316 239.28 372.076 239.52 372.316 239.28 372.556Z" fill-rule="evenodd"/><path transform="matrix(1,0,0,-1,0,595.276)" d="M238.8 371.956 238.44 371.596 238.8 371.476 239.04 371.236 239.28 371.476 239.04 371.716Z" fill-rule="evenodd"/><path transform="matrix(1,0,0,-1,0,595.276)" d="M238.44 370.876V370.516H239.04V369.796L238.44 369.196 238.68 368.836 239.16 369.316 239.4 369.076 239.64 368.956 239.88 368.836H240.24 242.4V369.196H240.36 240.12 239.88L239.76 369.316H239.64L239.52 369.436V369.556L239.4 369.676V369.796 370.876Z" fill-rule="evenodd"/><path transform="matrix(1,0,0,-1,0,595.276)" d="M241.32 372.556 240.96 372.796 240.6 372.436 240.24 372.196 239.88 371.956 239.52 371.716 239.76 371.476 240.12 371.596 240.36 371.716V371.476H241.68V371.716L241.92 371.596 242.16 371.476 242.52 371.836 242.16 371.956 241.8 372.076 241.44 372.196 241.2 372.436 241.32 372.556ZM241.56 371.836H240.48L240.96 372.196 241.56 371.836Z" fill-rule="evenodd"/><path transform="matrix(1,0,0,-1,0,595.276)" d="M239.88 371.236V369.436H240.24V369.916H240.6V369.796H240.48 240.36 240.24L240.48 369.436H240.72L240.84 369.556 240.96 369.676V369.916 371.236H239.88ZM240.24 370.276V370.516H240.6V370.276H240.24ZM240.24 370.756V370.996H240.6V370.756H240.24Z" fill-rule="evenodd"/><path transform="matrix(1,0,0,-1,0,595.276)" d="M241.2 371.116V370.036H241.56V370.876 370.996L241.44 371.116Z" fill-rule="evenodd"/><path transform="matrix(1,0,0,-1,0,595.276)" d="M241.8 371.356V370.036 369.916 369.796L241.68 369.676H241.56 241.44L241.56 369.316H241.68L241.92 369.436 242.04 369.556 242.16 369.676V369.916 371.116H242.28V371.236H242.16 242.04Z" fill-rule="evenodd"/></g></svg>