<?xml version='1.0' encoding='UTF-8'?>
<svg xmlns="http://www.w3.org/2000/svg" xmlns:xlink="http://www.w3.org/1999/xlink" xmlns:inkscape="http://www.inkscape.org/namespaces/inkscape" version="1.1" width="567.000" height="269.280" viewBox="0 0 567.000 269.280"><g transform="scale(10.0) translate(-329.439, -47.232)"><defs><clipPath id="clip_2"><path transform="matrix(1,0,0,-1,0,595.276)" d="M74.4 .196H767.4V595.276H74.4Z"/></clipPath></defs><path transform="matrix(1,0,0,-1,0,595.276)" d="M331.44 544.756H384.12C384.24 544.756 384.36 544.756 384.48 544.756 384.6 544.636 384.6 544.636 384.72 544.516 384.84 544.516 384.84 544.396 384.96 544.276 384.96 544.156 384.96 544.036 384.96 543.916V524.956C384.96 524.716 384.84 524.476 384.72 524.356 384.6 524.236 384.6 524.116 384.48 524.116 384.36 524.116 384.24 524.116 384.12 524.116H331.44C331.2 524.116 331.08 524.116 330.84 524.356 330.72 524.476 330.6 524.716 330.6 524.956V543.916C330.6 544.156 330.72 544.396 330.84 544.516 331.08 544.756 331.2 544.756 331.44 544.756ZM331.44 544.396C331.32 544.396 331.2 544.276 331.2 544.276 331.08 544.156 331.08 544.036 331.08 543.916V524.956C331.08 524.836 331.08 524.716 331.2 524.596 331.2 524.476 331.32 524.476 331.44 524.476H384.12C384.24 524.476 384.36 524.476 384.48 524.596 384.48 524.716 384.6 524.836 384.6 524.956V543.916C384.6 544.036 384.48 544.156 384.48 544.276 384.36 544.276 384.24 544.396 384.12 544.396H331.44Z" fill-rule="evenodd"/><path transform="matrix(1,0,0,-1,0,595.276)" d="M331.44 544.396H384.12C384.24 544.396 384.36 544.276 384.48 544.276 384.48 544.156 384.6 544.036 384.6 543.916V524.956C384.6 524.836 384.6 524.836 384.48 524.716V524.596C384.36 524.596 384.36 524.596 384.24 524.476H384.12 331.44C331.32 524.476 331.2 524.476 331.2 524.596 331.08 524.716 331.08 524.836 331.08 524.956V543.916C331.08 544.156 331.2 544.396 331.44 544.396Z" fill="#ffffff" fill-rule="evenodd"/><path transform="matrix(1,0,0,-1,0,595.276)" d="M333.36 537.916H334.32V538.396H333.36V538.756H334.32V539.236H332.88V537.076H334.44V537.556H333.36Z" fill-rule="evenodd"/><path transform="matrix(1,0,0,-1,0,595.276)" d="M335.76 538.636H336.24L335.76 537.916 336.36 537.076H335.88L335.52 537.556 335.28 537.076H334.8L335.28 537.916 334.8 538.636H335.28L335.52 538.156Z" fill-rule="evenodd"/><path transform="matrix(1,0,0,-1,0,595.276)" d="M337.32 538.756C337.44 538.756 337.56 538.636 337.68 538.636 337.8 538.516 337.92 538.396 338.04 538.276L337.68 538.036C337.56 538.276 337.44 538.276 337.32 538.276 337.08 538.276 336.96 538.156 336.96 537.916V537.796 537.676C336.96 537.556 337.08 537.436 337.32 537.436 337.44 537.436 337.44 537.436 337.56 537.436 337.56 537.556 337.56 537.556 337.68 537.676L338.04 537.556C337.92 537.196 337.68 536.956 337.32 536.956 336.84 536.956 336.48 537.316 336.48 537.796 336.6 538.396 336.84 538.636 337.32 538.756Z" fill-rule="evenodd"/><path transform="matrix(1,0,0,-1,0,595.276)" d="M339.72 537.676C339.72 538.396 339.48 538.636 339 538.756 338.52 538.636 338.28 538.396 338.28 537.916 338.28 537.676 338.28 537.436 338.4 537.316 338.52 537.076 338.76 536.956 339 536.956 339.24 536.956 339.6 537.076 339.6 537.316L339.36 537.556C339.36 537.436 339.12 537.436 339 537.436 339 537.436 338.88 537.436 338.76 537.436V537.556L338.64 537.676H339.72ZM338.64 538.036V538.036C338.64 538.156 338.76 538.156 338.76 538.276 338.88 538.276 338.88 538.276 339 538.276 339.12 538.276 339.24 538.156 339.24 538.036H338.64Z" fill-rule="evenodd"/><path transform="matrix(1,0,0,-1,0,595.276)" d="M341.52 537.916C341.52 538.396 341.28 538.756 340.8 538.756 340.68 538.756 340.44 538.636 340.44 538.636H339.96V536.476H340.44V537.076C340.44 537.076 340.68 536.956 340.8 536.956 341.28 536.956 341.52 537.316 341.52 537.916ZM340.8 537.436C340.68 537.436 340.56 537.436 340.56 537.436 340.56 537.556 340.44 537.556 340.44 537.556V537.676 538.036C340.44 538.156 340.56 538.276 340.8 538.276 340.92 538.276 341.04 538.276 341.04 538.156L341.16 538.036V537.676H341.04C341.04 537.436 340.8 537.436 340.8 537.436Z" fill-rule="evenodd"/><path transform="matrix(1,0,0,-1,0,595.276)" d="M342.48 538.636H342.84V538.276H342.48V537.556 537.436H342.6 342.72 342.84L342.96 537.076C342.84 536.956 342.72 536.956 342.48 536.956 342.36 536.956 342.24 537.076 342.12 537.076 342.12 537.196 342 537.316 342 537.436V538.276H341.76V538.636H342V539.116L342.48 539.236V538.636Z" fill-rule="evenodd"/><path transform="matrix(1,0,0,-1,0,595.276)" d="M344.64 538.636C344.64 538.516 344.64 538.516 344.76 538.516 344.88 538.396 345 538.396 345.12 538.396 345.6 538.276 345.84 538.036 345.84 537.676 345.84 537.196 345.6 536.956 345 536.956 344.76 536.956 344.52 537.076 344.4 537.076 344.28 537.196 344.04 537.316 343.92 537.436L344.4 537.676C344.52 537.556 344.76 537.436 345 537.436 345.24 537.436 345.36 537.556 345.36 537.676 345.36 537.796 345.12 537.916 344.88 537.916 344.4 538.036 344.16 538.156 344.16 538.636 344.16 539.116 344.52 539.356 345 539.356 345.24 539.356 345.36 539.236 345.48 539.236 345.72 539.116 345.84 539.116 345.84 538.996L345.6 538.636C345.36 538.756 345.24 538.876 345 538.876 344.76 538.876 344.64 538.756 344.64 538.636Z" fill-rule="evenodd"/><path transform="matrix(1,0,0,-1,0,595.276)" d="M347.4 538.636H347.76V537.076H347.28 347.16C347.16 536.956 347.04 536.956 346.92 536.956 346.8 536.956 346.68 537.076 346.56 537.196 346.44 537.196 346.32 537.316 346.32 537.556V538.636H346.8V537.676C346.8 537.556 346.8 537.556 346.92 537.436H347.04C347.16 537.436 347.16 537.436 347.28 537.556L347.4 537.676V538.636Z" fill-rule="evenodd"/><path transform="matrix(1,0,0,-1,0,595.276)" d="M349.56 537.076V538.156C349.56 538.516 349.44 538.756 348.96 538.756L348.84 538.636C348.72 538.636 348.72 538.636 348.6 538.516V538.636H348.24V537.076H348.6V538.036C348.72 538.156 348.72 538.276 348.96 538.276 349.08 538.276 349.2 538.156 349.2 538.036V537.076H349.56Z" fill-rule="evenodd"/><path transform="matrix(1,0,0,-1,0,595.276)" d="M351.12 538.516V539.236H351.48V537.076H351.12C351 537.076 350.88 536.956 350.76 536.956 350.4 536.956 350.04 537.196 350.04 537.796V537.916 538.036C350.04 538.396 350.28 538.636 350.64 538.636 350.76 538.636 350.88 538.636 351.12 538.516ZM351.12 537.556V537.916 538.036C351.12 538.156 351 538.156 351 538.156 351 538.276 350.88 538.276 350.76 538.276 350.52 538.276 350.4 538.156 350.4 537.796 350.4 537.556 350.52 537.436 350.76 537.316 350.88 537.436 351 537.436 351.12 537.556Z" fill-rule="evenodd"/><path transform="matrix(1,0,0,-1,0,595.276)" d="M353.4 537.316 353.28 536.956C353.16 536.956 353.04 537.076 353.04 537.076 352.92 537.076 352.92 537.076 352.92 537.196 352.8 537.076 352.68 536.956 352.56 536.956 352.08 536.956 351.84 537.196 351.84 537.556 351.84 537.916 352.2 538.036 352.8 538.036V538.156 538.276C352.68 538.276 352.68 538.276 352.56 538.276 352.56 538.276 352.44 538.276 352.32 538.276 352.32 538.276 352.2 538.156 352.08 538.156L351.96 538.516C352.08 538.636 352.32 538.756 352.56 538.756 352.8 538.756 352.92 538.636 353.04 538.636 353.16 538.516 353.28 538.396 353.28 538.276V537.436C353.28 537.316 353.28 537.316 353.4 537.316ZM352.32 537.556C352.32 537.436 352.32 537.436 352.44 537.436L352.56 537.316C352.68 537.436 352.8 537.436 352.8 537.436V537.796C352.68 537.796 352.56 537.676 352.44 537.676 352.32 537.676 352.32 537.556 352.32 537.556Z" fill-rule="evenodd"/><path transform="matrix(1,0,0,-1,0,595.276)" d="M355.08 538.636H354.6L354.36 537.676 354 538.636H353.52L354 537.196C354.12 537.196 354.12 537.076 354.12 537.076V536.956H354 353.88 353.76L353.64 536.596C353.88 536.596 354 536.476 354.24 536.476L354.36 536.596C354.36 536.716 354.48 536.716 354.48 536.836L355.08 538.636Z" fill-rule="evenodd"/><path transform="matrix(1,0,0,-1,0,595.276)" d="M356.64 537.556C356.64 537.796 356.4 538.036 356.04 538.036 355.92 538.036 355.92 538.156 355.8 538.156 355.8 538.276 355.8 538.276 355.92 538.396 356.04 538.396 356.16 538.276 356.16 538.276 356.28 538.276 356.28 538.276 356.28 538.156L356.52 538.516C356.52 538.636 356.28 538.756 356.04 538.756 355.56 538.756 355.32 538.516 355.32 538.156 355.32 537.916 355.44 537.676 355.8 537.676 356.04 537.676 356.16 537.676 356.16 537.556 356.16 537.436 356.16 537.436 356.04 537.436H355.92C355.92 537.436 355.8 537.436 355.68 537.436L355.56 537.556 355.2 537.316C355.32 537.076 355.68 536.956 355.92 536.956 356.4 536.956 356.64 537.196 356.64 537.556Z" fill-rule="evenodd"/><path transform="matrix(1,0,0,-1,0,595.276)" d="M357.96 538.396C357.84 538.636 357.84 538.996 358.08 539.116 358.32 539.356 358.68 539.356 358.8 539.116 359.04 538.876 359.04 538.636 358.8 538.396V538.276H358.68L358.56 538.156 358.92 537.796C358.92 537.796 359.04 537.916 359.04 538.036H358.92 359.4C359.4 537.796 359.28 537.556 359.16 537.436 359.28 537.436 359.28 537.436 359.4 537.436V537.076C359.4 537.076 359.28 537.076 359.16 537.076 359.04 537.076 358.92 537.076 358.8 537.076 358.68 537.076 358.56 536.956 358.32 536.956 357.96 536.956 357.6 537.316 357.6 537.676 357.6 538.036 357.72 538.276 357.96 538.396ZM358.2 538.036C358.08 537.916 358.08 537.676 358.08 537.556 358.2 537.436 358.2 537.436 358.32 537.436 358.44 537.436 358.56 537.436 358.56 537.436L358.2 538.036ZM358.44 538.516C358.44 538.516 358.56 538.636 358.56 538.756 358.56 538.876 358.56 538.876 358.44 538.876 358.32 538.876 358.32 538.876 358.32 538.756 358.32 538.636 358.32 538.636 358.44 538.516Z" fill-rule="evenodd"/><path transform="matrix(1,0,0,-1,0,595.276)" d="M361.08 537.916H361.68 361.8C362.04 537.916 362.28 538.276 362.28 538.516 362.28 538.876 362.16 539.236 361.8 539.236H361.68 360.6V537.076H361.08V537.916ZM361.08 538.276V538.876H361.56 361.68C361.68 538.876 361.8 538.636 361.8 538.516 361.8 538.396 361.68 538.276 361.68 538.276H361.56 361.08Z" fill-rule="evenodd"/><path transform="matrix(1,0,0,-1,0,595.276)" d="M363.6 538.636H364.08V537.076H363.6 363.48C363.36 536.956 363.24 536.956 363.24 536.956 363 536.956 362.88 537.076 362.76 537.196 362.76 537.196 362.64 537.196 362.64 537.316 362.64 537.316 362.64 537.436 362.64 537.556V538.636H363V537.676 537.556C363.12 537.556 363.12 537.556 363.12 537.436 363.12 537.436 363.24 537.436 363.36 537.436 363.36 537.436 363.48 537.436 363.48 537.556 363.6 537.556 363.6 537.676 363.6 537.676V538.636Z" fill-rule="evenodd"/><path transform="matrix(1,0,0,-1,0,595.276)" d="M365.16 536.956C365.4 536.956 365.52 537.076 365.64 537.196 365.76 537.316 365.76 537.556 365.76 537.796 365.76 538.396 365.52 538.636 365.16 538.636 365.04 538.636 364.92 538.636 364.8 538.516V539.236H364.44V537.076H364.8C364.92 537.076 365.04 536.956 365.16 536.956ZM365.16 537.436C364.92 537.436 364.8 537.436 364.8 537.676V538.036C364.8 538.156 364.92 538.156 364.92 538.276 365.04 538.276 365.04 538.276 365.16 538.276 365.28 538.276 365.4 538.156 365.4 537.796 365.4 537.556 365.28 537.436 365.16 537.436Z" fill-rule="evenodd"/><path transform="matrix(1,0,0,-1,0,595.276)" d="M366.48 539.236V537.556 537.436C366.48 537.436 366.6 537.436 366.72 537.436V537.076C366.6 537.076 366.48 537.076 366.48 537.076 366.24 537.076 366.12 537.076 366 537.316V537.436 539.236H366.48Z" fill-rule="evenodd"/><path transform="matrix(1,0,0,-1,0,595.276)" d="M367.44 537.076V538.636H367.08V537.076Z" fill-rule="evenodd"/><path transform="matrix(1,0,0,-1,0,595.276)" d="M367.44 538.996C367.44 539.116 367.44 539.236 367.2 539.236 367.08 539.236 366.96 539.116 366.96 538.996 366.96 538.876 367.08 538.756 367.2 538.756 367.44 538.756 367.44 538.876 367.44 538.996Z" fill-rule="evenodd"/><path transform="matrix(1,0,0,-1,0,595.276)" d="M368.52 538.756C368.76 538.756 368.88 538.636 369 538.636 369.12 538.516 369.24 538.396 369.24 538.276L368.88 538.036C368.88 538.276 368.76 538.276 368.52 538.276 368.4 538.276 368.28 538.156 368.16 537.916V537.796L368.28 537.676C368.28 537.556 368.4 537.436 368.52 537.436 368.64 537.436 368.76 537.436 368.76 537.436 368.88 537.556 368.88 537.556 368.88 537.676L369.24 537.556C369.12 537.196 368.88 536.956 368.64 536.956 368.04 536.956 367.8 537.316 367.8 537.796 367.8 538.396 368.04 538.636 368.52 538.756Z" fill-rule="evenodd"/><path transform="matrix(1,0,0,-1,0,595.276)" d="M370.92 538.396V539.236H370.56V537.076H370.92V537.916H371.4 371.88V537.076H372.24V539.236H371.88V538.396H371.4Z" fill-rule="evenodd"/><path transform="matrix(1,0,0,-1,0,595.276)" d="M374.28 537.796C374.28 538.396 374.04 538.756 373.56 538.756 373.32 538.756 373.08 538.636 372.96 538.516 372.84 538.276 372.72 538.156 372.72 537.796 372.72 537.316 373.08 536.956 373.56 536.956 373.8 536.956 373.92 537.076 374.04 537.196 374.28 537.316 374.28 537.556 374.28 537.796ZM373.8 537.796C373.8 537.676 373.8 537.556 373.8 537.556 373.68 537.436 373.56 537.436 373.56 537.436 373.32 537.436 373.2 537.556 373.2 537.796 373.2 538.036 373.2 538.036 373.32 538.156 373.32 538.276 373.44 538.276 373.56 538.276 373.68 538.276 373.8 538.156 373.8 537.796Z" fill-rule="evenodd"/><path transform="matrix(1,0,0,-1,0,595.276)" d="M374.88 539.236V537.556H375V537.436H375.24V537.076H375.12C375.12 537.076 375 537.076 374.88 537.076 374.76 537.076 374.52 537.076 374.52 537.316V537.436 539.236H374.88Z" fill-rule="evenodd"/><path transform="matrix(1,0,0,-1,0,595.276)" d="M375.96 537.076V538.636H375.48V537.076Z" fill-rule="evenodd"/><path transform="matrix(1,0,0,-1,0,595.276)" d="M375.96 538.996C375.96 539.116 375.84 539.236 375.72 539.236 375.6 539.236 375.48 539.116 375.48 538.996 375.48 538.876 375.6 538.756 375.72 538.756 375.84 538.756 375.96 538.876 375.96 538.996Z" fill-rule="evenodd"/><path transform="matrix(1,0,0,-1,0,595.276)" d="M377.4 538.516V539.236H377.88V537.076H377.4C377.28 537.076 377.16 536.956 377.04 536.956 376.68 536.956 376.32 537.196 376.32 537.796V537.916 538.036C376.32 538.396 376.56 538.636 376.92 538.636 377.04 538.636 377.28 538.636 377.4 538.516ZM377.4 537.556V537.916 538.036C377.4 538.156 377.4 538.156 377.28 538.156 377.28 538.276 377.16 538.276 377.04 538.276 376.8 538.276 376.68 538.156 376.68 537.796 376.68 537.556 376.8 537.436 377.04 537.316 377.16 537.436 377.28 537.436 377.4 537.556Z" fill-rule="evenodd"/><path transform="matrix(1,0,0,-1,0,595.276)" d="M379.68 537.316 379.56 536.956C379.44 536.956 379.44 537.076 379.32 537.076 379.2 537.076 379.2 537.076 379.2 537.196 379.2 537.076 378.96 536.956 378.84 536.956 378.36 536.956 378.12 537.196 378.12 537.556 378.12 537.916 378.48 538.036 379.08 538.036V538.156 538.276H378.96C378.84 538.276 378.72 538.276 378.6 538.276L378.48 538.156 378.24 538.516C378.36 538.636 378.6 538.756 378.84 538.756 379.08 538.756 379.2 538.636 379.32 538.636 379.44 538.516 379.56 538.396 379.56 538.276V537.436C379.56 537.316 379.56 537.316 379.68 537.316ZM378.6 537.556C378.6 537.436 378.6 537.436 378.72 537.436L378.84 537.316C378.96 537.436 379.08 537.436 379.08 537.436V537.796C378.96 537.796 378.84 537.676 378.72 537.676L378.6 537.556Z" fill-rule="evenodd"/><path transform="matrix(1,0,0,-1,0,595.276)" d="M381.36 538.636H380.88L380.64 537.676 380.28 538.636H379.92L380.4 537.196V537.076 536.956H380.28 380.16 380.04L379.92 536.596C380.16 536.596 380.28 536.476 380.52 536.476L380.64 536.596C380.76 536.716 380.76 536.716 380.76 536.836L381.36 538.636Z" fill-rule="evenodd"/><path transform="matrix(1,0,0,-1,0,595.276)" d="M382.92 537.556C382.92 537.796 382.68 538.036 382.32 538.036 382.32 538.036 382.2 538.156 382.08 538.156 382.08 538.276 382.08 538.276 382.32 538.396L382.44 538.276C382.56 538.276 382.56 538.276 382.56 538.156L382.92 538.516C382.8 538.636 382.56 538.756 382.32 538.756 381.84 538.756 381.6 538.516 381.6 538.156 381.6 537.916 381.84 537.676 382.08 537.676 382.32 537.676 382.44 537.676 382.44 537.556V537.436C382.32 537.436 382.32 537.436 382.2 537.436 382.2 537.436 382.08 537.436 381.96 537.436L381.84 537.556 381.48 537.316C381.72 537.076 381.96 536.956 382.2 536.956 382.68 536.956 382.92 537.196 382.92 537.556Z" fill-rule="evenodd"/><path transform="matrix(1,0,0,-1,0,595.276)" d="M344.88 540.196H345.36L345.96 541.876V542.356H344.52V541.876H345.6Z" fill-rule="evenodd"/><path transform="matrix(1,0,0,-1,0,595.276)" d="M347.88 540.076C348.48 540.076 348.72 540.316 348.72 540.796 348.72 541.036 348.72 541.156 348.6 541.276 348.72 541.396 348.72 541.516 348.72 541.756 348.72 542.236 348.48 542.476 347.88 542.476 347.64 542.476 347.4 542.356 347.28 542.236 347.16 542.116 347.16 542.116 347.16 541.996 347.04 541.876 347.04 541.876 347.04 541.756L347.52 541.636C347.52 541.876 347.64 541.996 347.88 541.996H348C348.12 541.996 348.24 541.876 348.24 541.756 348.24 541.636 348.24 541.516 348.12 541.516H347.76V541.156H348.12C348.12 541.156 348.12 541.036 348.24 541.036V540.916C348.24 540.676 348.12 540.556 348 540.556 347.88 540.556 347.76 540.556 347.64 540.676 347.52 540.676 347.52 540.796 347.52 540.916L347.04 540.796C347.04 540.316 347.4 540.076 347.88 540.076Z" fill-rule="evenodd"/><path transform="matrix(1,0,0,-1,0,595.276)" d="M351.12 541.276C351.12 541.996 350.76 542.476 350.16 542.476 349.8 542.476 349.56 542.356 349.44 542.116 349.2 541.996 349.2 541.636 349.2 541.276 349.2 540.916 349.2 540.556 349.44 540.436 349.56 540.196 349.8 540.076 350.16 540.076 350.4 540.076 350.64 540.196 350.88 540.436 351 540.556 351.12 540.916 351.12 541.276ZM350.64 541.276C350.64 540.796 350.4 540.556 350.16 540.556 349.8 540.556 349.68 540.796 349.68 541.276 349.68 541.756 349.8 541.996 350.16 541.996 350.28 541.996 350.4 541.996 350.52 541.876 350.52 541.756 350.64 541.516 350.64 541.276Z" fill-rule="evenodd"/><path transform="matrix(1,0,0,-1,0,595.276)" d="M353.76 540.436 353.64 540.076C353.52 540.076 353.4 540.076 353.4 540.196 353.28 540.196 353.28 540.196 353.28 540.316 353.28 540.196 353.04 540.076 352.92 540.076 352.68 540.076 352.56 540.196 352.44 540.196 352.32 540.316 352.2 540.436 352.2 540.676 352.2 541.036 352.56 541.156 353.16 541.156V541.276 541.396C353.04 541.396 353.04 541.396 352.92 541.396 352.92 541.396 352.8 541.396 352.68 541.396 352.68 541.396 352.56 541.276 352.44 541.276L352.32 541.516C352.44 541.756 352.68 541.756 352.92 541.756 353.16 541.876 353.28 541.756 353.4 541.756 353.52 541.636 353.64 541.516 353.64 541.396V540.556C353.64 540.436 353.64 540.436 353.76 540.436ZM352.68 540.676C352.68 540.556 352.68 540.556 352.8 540.556 352.8 540.436 352.92 540.436 352.92 540.436 353.04 540.436 353.16 540.556 353.16 540.556V540.796C353.04 540.796 352.92 540.796 352.8 540.796 352.68 540.796 352.68 540.676 352.68 540.676Z" fill-rule="evenodd"/><path transform="matrix(1,0,0,-1,0,595.276)" d="M355.68 541.396C355.56 541.396 355.44 541.276 355.32 541.156V540.196H354.96V541.276C354.96 541.276 354.84 541.396 354.72 541.396 354.6 541.396 354.48 541.276 354.48 541.156V540.196H354V541.756H354.48V541.636C354.48 541.756 354.6 541.756 354.6 541.756 354.72 541.756 354.72 541.756 354.84 541.756 355.08 541.756 355.2 541.756 355.2 541.636 355.32 541.756 355.44 541.756 355.68 541.756 355.92 541.756 356.16 541.636 356.28 541.396V541.276 540.196H355.92V541.276C355.92 541.276 355.8 541.276 355.8 541.396H355.68Z" fill-rule="evenodd"/><path transform="matrix(1,0,0,-1,0,595.276)" d="M358.32 541.156H357.6V540.796H358.32Z" fill-rule="evenodd"/><path transform="matrix(1,0,0,-1,0,595.276)" d="M359.64 540.556C359.76 540.316 360 540.076 360.36 540.076 360.6 540.076 360.84 540.196 360.96 540.436 361.08 540.556 361.2 540.916 361.2 541.156 361.2 541.636 361.08 541.876 360.96 542.116 360.84 542.356 360.6 542.476 360.24 542.476 360.12 542.476 359.88 542.356 359.76 542.236 359.64 541.996 359.52 541.876 359.52 541.636V541.516C359.52 541.156 359.88 540.796 360.24 540.796 360.36 540.796 360.48 540.796 360.6 540.916 360.72 540.916 360.72 540.916 360.72 541.036 360.72 540.916 360.72 540.796 360.72 540.796 360.72 540.676 360.72 540.676 360.6 540.676 360.6 540.556 360.48 540.556 360.36 540.556H360.24C360.12 540.676 360.12 540.676 360 540.796L359.64 540.556ZM360.36 541.996C360.48 541.996 360.72 541.876 360.72 541.636 360.72 541.396 360.48 541.276 360.36 541.276 360.12 541.276 360 541.396 360 541.636 360 541.756 360 541.876 360.12 541.876 360.12 541.996 360.24 541.996 360.36 541.996Z" fill-rule="evenodd"/><path transform="matrix(1,0,0,-1,0,595.276)" d="M364.2 541.276C364.2 541.636 364.2 541.996 363.96 542.116 363.84 542.356 363.6 542.476 363.24 542.476 363 542.476 362.76 542.356 362.52 542.116 362.4 541.996 362.28 541.636 362.28 541.276 362.28 540.916 362.4 540.556 362.52 540.436 362.76 540.196 363 540.076 363.24 540.076 363.6 540.076 363.84 540.196 363.96 540.436 364.2 540.556 364.2 540.916 364.2 541.276ZM363.72 541.276C363.72 540.796 363.6 540.556 363.24 540.556 363.12 540.556 363 540.556 362.88 540.676 362.76 540.796 362.76 541.036 362.76 541.276 362.76 541.516 362.76 541.756 362.88 541.876 363 541.996 363.12 541.996 363.24 541.996 363.6 541.996 363.72 541.756 363.72 541.276Z" fill-rule="evenodd"/><path transform="matrix(1,0,0,-1,0,595.276)" d="M366.48 541.276C366.48 541.636 366.36 541.996 366.24 542.116 366.12 542.356 365.88 542.476 365.52 542.476 365.28 542.476 365.04 542.356 364.8 542.116 364.68 541.996 364.56 541.636 364.56 541.276 364.56 540.916 364.68 540.556 364.8 540.436 365.04 540.196 365.28 540.076 365.52 540.076 365.88 540.076 366.12 540.196 366.24 540.436 366.36 540.556 366.48 540.916 366.48 541.276ZM366 541.276C366 540.796 365.88 540.556 365.52 540.556 365.4 540.556 365.28 540.556 365.16 540.676 365.04 540.796 365.04 541.036 365.04 541.276 365.04 541.516 365.04 541.756 365.16 541.876 365.28 541.996 365.4 541.996 365.52 541.996 365.88 541.996 366 541.756 366 541.276Z" fill-rule="evenodd"/><path transform="matrix(1,0,0,-1,0,595.276)" d="M368.4 540.436 368.28 540.076C368.16 540.076 368.04 540.076 368.04 540.196 367.92 540.196 367.92 540.196 367.8 540.316 367.8 540.196 367.68 540.076 367.44 540.076 367.32 540.076 367.08 540.196 366.96 540.196 366.84 540.316 366.84 540.436 366.84 540.676 366.84 541.036 367.2 541.156 367.8 541.156V541.276C367.8 541.396 367.68 541.396 367.68 541.396H367.56C367.44 541.396 367.44 541.396 367.32 541.396 367.2 541.396 367.2 541.276 367.08 541.276L366.84 541.516C367.08 541.756 367.32 541.756 367.56 541.756 367.8 541.876 367.92 541.756 368.04 541.756 368.16 541.636 368.16 541.516 368.16 541.396V540.556C368.28 540.436 368.28 540.436 368.4 540.436ZM367.32 540.676V540.556C367.44 540.436 367.44 540.436 367.56 540.436 367.68 540.436 367.68 540.556 367.8 540.556V540.796C367.56 540.796 367.44 540.796 367.44 540.796 367.32 540.796 367.32 540.676 367.32 540.676Z" fill-rule="evenodd"/><path transform="matrix(1,0,0,-1,0,595.276)" d="M370.2 541.396C370.08 541.396 369.96 541.276 369.96 541.156V540.196H369.6V541.276C369.48 541.276 369.48 541.396 369.36 541.396 369.24 541.396 369.12 541.276 369 541.156V540.196H368.64V541.756H369V541.636C369.12 541.756 369.12 541.756 369.24 541.756 369.24 541.756 369.36 541.756 369.48 541.756 369.6 541.756 369.72 541.756 369.84 541.636 369.96 541.756 370.08 541.756 370.32 541.756 370.56 541.756 370.8 541.636 370.92 541.396V541.276 540.196H370.44V541.276 541.396C370.32 541.396 370.32 541.396 370.2 541.396Z" fill-rule="evenodd"/><path transform="matrix(1,0,0,-1,0,595.276)" d="M346.8 541.156C346.8 541.276 346.68 541.396 346.56 541.396 346.44 541.396 346.32 541.276 346.32 541.156 346.32 541.036 346.44 540.916 346.56 540.916 346.68 540.916 346.8 541.036 346.8 541.156Z" fill-rule="evenodd"/><path transform="matrix(1,0,0,-1,0,595.276)" d="M346.8 540.316C346.8 540.436 346.68 540.556 346.56 540.556 346.44 540.556 346.32 540.436 346.32 540.316 346.32 540.196 346.44 540.076 346.56 540.076 346.68 540.076 346.8 540.196 346.8 540.316Z" fill-rule="evenodd"/><path transform="matrix(1,0,0,-1,0,595.276)" d="M361.92 541.156C361.92 541.276 361.92 541.396 361.8 541.396 361.56 541.396 361.56 541.276 361.56 541.156 361.56 541.036 361.56 540.916 361.8 540.916 361.92 540.916 361.92 541.036 361.92 541.156Z" fill-rule="evenodd"/><path transform="matrix(1,0,0,-1,0,595.276)" d="M361.92 540.316C361.92 540.436 361.92 540.556 361.8 540.556 361.56 540.556 361.56 540.436 361.56 540.316 361.56 540.196 361.56 540.076 361.8 540.076 361.92 540.076 361.92 540.196 361.92 540.316Z" fill-rule="evenodd"/><path transform="matrix(1,0,0,-1,0,595.276)" d="M368.4 535.276 368.04 535.396V532.636H366.84V532.276H369.96V532.636H368.4V533.836H369.72V534.196H368.4V535.156L368.52 535.276Z" fill-rule="evenodd"/><path transform="matrix(1,0,0,-1,0,595.276)" d="M371.16 534.316 371.52 534.076 371.88 534.556H372.6V533.836H371.16V533.476H372.6V532.156H372.96V533.476H374.28V533.836H372.96V534.556H374.04V534.916H372.12L372.24 535.156H372.36V535.276H372.24L372 535.396 371.64 534.796Z" fill-rule="evenodd"/><path transform="matrix(1,0,0,-1,0,595.276)" d="M375.6 534.556V534.316H376.32V533.836L376.2 533.356 376.08 533.116 375.84 532.756 375.6 532.636 375.36 532.396 375.6 532.156 375.96 532.396 376.2 532.636 376.32 532.876 376.44 533.236 376.56 533.716 376.68 534.316H377.4L377.28 532.756V532.516L377.4 532.396 377.52 532.276H377.76 378.12 378.36L378.48 532.396 378.6 532.636V532.876L378.36 533.116V532.876L378.24 532.756 378.12 532.636H378 377.76 377.64V532.876L377.76 534.556H376.68V535.156 535.276L376.56 535.396H376.32V534.556Z" fill-rule="evenodd"/><path transform="matrix(1,0,0,-1,0,595.276)" d="M381.6 534.196H380.88V533.836H382.08V533.596H380.88V533.236H382.08V532.636 532.516H381.96L381.84 532.396H381.48L381.6 532.156H381.96 382.08L382.32 532.276V532.396L382.44 532.516V533.236H382.92V533.596H382.44V533.836H382.8V534.196H381.96V534.676H382.68V534.916H381.96V535.156L382.08 535.276H381.96L381.6 535.396V534.916H381V534.676H381.6Z" fill-rule="evenodd"/><path transform="matrix(1,0,0,-1,0,595.276)" d="M381.24 533.116 381.12 532.996 381.36 532.756 381.48 532.516 381.72 532.756 381.48 532.996Z" fill-rule="evenodd"/><path transform="matrix(1,0,0,-1,0,595.276)" d="M379.68 535.036V532.636 532.516H380.04V532.756H380.4V532.636H380.76V535.036H379.68ZM380.04 534.076V534.796H380.4V534.076H380.04ZM380.04 533.116V533.836H380.4V533.116H380.04Z" fill-rule="evenodd"/><path transform="matrix(1,0,0,-1,0,595.276)" d="M362.76 534.796H363.84L363.36 534.196H362.88V533.836L363 533.716V533.836L365.16 534.076 365.4 533.716 365.64 533.956 365.28 534.316 364.92 534.796 364.68 534.556 364.92 534.316 363.84 534.196 364.2 534.796H365.64V535.156H362.76Z" fill-rule="evenodd"/><path transform="matrix(1,0,0,-1,0,595.276)" d="M362.64 532.276H365.76V532.636H364.32V533.116H365.4V533.476H364.32V533.716H364.44V533.836H364.32 363.96V533.476H363V533.116H363.96V532.636H362.64Z" fill-rule="evenodd"/><path transform="matrix(1,0,0,-1,0,595.276)" d="M334.44 535.276 334.08 535.396V532.636H332.88V532.276H336V532.636H334.44V533.836H335.76V534.196H334.44V535.156L334.56 535.276Z" fill-rule="evenodd"/><path transform="matrix(1,0,0,-1,0,595.276)" d="M337.2 534.316 337.56 534.076 337.92 534.556H338.64V533.836H337.2V533.476H338.64V532.156H339V533.476H340.32V533.836H339V534.556H340.08V534.916H338.16L338.28 535.156H338.4V535.276H338.28L338.04 535.396 337.68 534.796Z" fill-rule="evenodd"/><path transform="matrix(1,0,0,-1,0,595.276)" d="M342.72 535.276 342.48 535.396V534.076L341.4 533.956V533.716L342.48 533.836V532.756 532.516L342.6 532.396 342.72 532.276H342.96 343.92 344.16 344.28L344.4 532.396V532.516L344.64 532.996 344.28 533.116 344.16 532.876V532.756L344.04 532.636H343.92 343.8 343.08 342.96 342.84V532.756 532.876 533.836L344.64 533.956V534.316L342.84 534.196V535.156H342.96V535.276H342.84Z" fill-rule="evenodd"/><path transform="matrix(1,0,0,-1,0,595.276)" d="M347.64 534.196H346.92V533.836H348.12V533.596H346.92V533.236H348.12V532.636 532.516H348L347.88 532.396H347.52L347.64 532.156H348 348.12L348.36 532.276V532.396L348.48 532.516V533.236H348.96V533.596H348.48V533.836H348.84V534.196H348V534.676H348.72V534.916H348V535.156L348.12 535.276H348L347.64 535.396V534.916H347.04V534.676H347.64Z" fill-rule="evenodd"/><path transform="matrix(1,0,0,-1,0,595.276)" d="M347.28 533.116 347.16 532.996 347.4 532.756 347.52 532.516 347.76 532.756 347.52 532.996Z" fill-rule="evenodd"/><path transform="matrix(1,0,0,-1,0,595.276)" d="M345.72 535.036V532.636 532.516H346.08V532.756H346.44V532.636H346.8V535.036H345.72ZM346.08 534.076V534.796H346.44V534.076H346.08ZM346.08 533.116V533.836H346.44V533.116H346.08Z" fill-rule="evenodd"/><path transform="matrix(1,0,0,-1,0,595.276)" d="M350.16 535.036V534.796H353.04V535.036Z" fill-rule="evenodd"/><path transform="matrix(1,0,0,-1,0,595.276)" d="M350.4 533.956V533.596H352.8V533.956Z" fill-rule="evenodd"/><path transform="matrix(1,0,0,-1,0,595.276)" d="M350.04 532.636V532.396H353.16V532.636Z" fill-rule="evenodd"/><path transform="matrix(1,0,0,-1,0,595.276)" d="M355.92 535.276 355.68 535.396V534.196H354.36V533.836H355.68V532.156H356.04V533.836H357.36V534.196H356.04V535.156L356.16 535.276H356.04Z" fill-rule="evenodd"/><path transform="matrix(1,0,0,-1,0,595.276)" d="M359.52 534.796 359.28 534.916 359.16 534.556 359.04 534.316 358.8 534.076 358.44 533.836 358.8 533.596 359.04 533.836 359.28 534.076 359.4 534.316 359.64 534.676V534.796Z" fill-rule="evenodd"/><path transform="matrix(1,0,0,-1,0,595.276)" d="M359.64 535.276V534.916H360.6V534.676L360.72 534.436 360.84 534.196 361.08 533.956H359.16V533.596H359.76V533.356L359.64 533.116 359.52 532.996 359.4 532.756 359.28 532.636 359.16 532.516H358.92L358.68 532.396 359.04 532.156 359.28 532.276 359.52 532.396 359.64 532.516 359.76 532.756 359.88 532.876 360 533.116V533.356L360.12 533.596H360.84L360.72 532.876V532.756 532.636H360.6L360.48 532.516H360L360.24 532.156 360.48 532.276H360.84L360.96 532.396 361.08 532.516V532.756L361.2 533.956 361.56 533.596 361.8 533.836 361.68 533.956 361.44 534.076 361.32 534.316 361.2 534.436 361.08 534.676 360.96 534.796V535.036 535.276Z" fill-rule="evenodd"/><path transform="matrix(1,0,0,-1,0,595.276)" d="M339.84 530.236H337.56V528.916H339.84V530.236ZM337.92 529.636V529.876H339.48V529.636H337.92ZM337.92 529.156V529.396H339.48V529.156H337.92Z" fill-rule="evenodd"/><path transform="matrix(1,0,0,-1,0,595.276)" d="M338.16 528.676 337.8 528.796 337.56 528.436 337.08 527.956 337.44 527.836 337.8 528.316H338.64V527.956H337.68V527.716H338.64V527.476H337.2V527.116H340.32V527.476H339V527.716H339.96V527.956H339V528.316H340.08V528.556H339V528.676 528.796H338.64V528.556H337.92Z" fill-rule="evenodd"/><path transform="matrix(1,0,0,-1,0,595.276)" d="M341.4 529.756V529.516H341.76V528.196H341.4V527.836H343.2V528.196H342.84V529.516H343.2V529.756H342.84V530.116H342.96V530.236H342.84 342.6V529.756H342.12V530.116 530.236H342 341.76V529.756H341.4ZM342.12 528.676V529.036H342.6V528.676H342.12ZM342.12 528.196V528.436H342.6V528.196H342.12ZM342.12 529.276V529.516H342.6V529.276H342.12Z" fill-rule="evenodd"/><path transform="matrix(1,0,0,-1,0,595.276)" d="M341.4 527.236 341.76 526.996 342 527.356 342.24 527.716 341.88 527.836 341.64 527.476Z" fill-rule="evenodd"/><path transform="matrix(1,0,0,-1,0,595.276)" d="M343.32 530.236V528.796 528.316 527.836L343.2 527.596 343.08 527.356 343.32 527.116 343.44 527.356 343.56 527.596V527.836L343.68 528.196H344.16V527.476L343.92 527.356H343.68L343.92 527.116H344.16L344.28 527.236H344.4V527.356 527.596 530.236H343.32ZM343.68 528.436V529.036H344.16V528.436H343.68ZM343.68 529.276V529.876H344.16V529.276H343.68Z" fill-rule="evenodd"/><path transform="matrix(1,0,0,-1,0,595.276)" d="M342.6 527.836 342.48 527.716 342.6 527.356 342.72 527.116 342.96 527.356 342.84 527.596Z" fill-rule="evenodd"/><path transform="matrix(1,0,0,-1,0,595.276)" d="M346.08 527.116H346.44V527.476H348.24V527.116H348.48V530.116H346.08V527.116ZM346.44 527.716V528.556H348.24V527.716H346.44ZM346.44 528.916V529.756H348.24V528.916H346.44Z" fill-rule="evenodd"/><path transform="matrix(1,0,0,-1,0,595.276)" d="M350.28 530.116V529.756H350.88V529.396 528.916L350.76 528.556 350.64 528.316 350.52 527.956 350.4 527.716 350.16 527.476 349.92 527.356 350.28 527.116 350.52 527.356 350.76 527.716 351 528.076 351.12 528.556V528.316L351.36 528.076 351.48 527.836 351.72 527.716 351.24 527.476 350.76 527.356 351 527.116 351.48 527.236 351.96 527.476 352.32 527.236 352.8 527.116 353.16 527.356 352.68 527.596 352.2 527.716 352.32 528.076 352.56 528.436 352.68 528.796 352.8 529.156 352.56 529.276 352.44 529.156H352.08L352.44 529.996 352.2 530.116H352.08 350.28ZM351.24 529.756H351.96L351.6 528.916 351.84 528.796 351.96 528.916H352.44L352.32 528.676 352.2 528.316 352.08 528.076 351.84 527.956 351.6 528.196 351.48 528.436 351.24 528.676V528.916 529.756Z" fill-rule="evenodd"/><path transform="matrix(1,0,0,-1,0,595.276)" d="M355.08 529.756H354.84L354.72 529.396 354.6 529.156 354.36 528.916 354 528.676 354.24 528.436 354.6 528.676 354.84 528.916 354.96 529.276 355.08 529.636H355.2V529.756Z" fill-rule="evenodd"/><path transform="matrix(1,0,0,-1,0,595.276)" d="M355.56 528.916 355.32 529.036 355.08 528.316 354.72 527.596H354.24L354.36 527.236V527.116H354.48L356.52 527.476 356.76 527.116 357 527.236 356.88 527.596 356.76 527.836 356.52 528.196 356.28 528.436 356.04 528.196 356.4 527.716 355.08 527.596 355.68 528.796 355.8 528.916H355.68Z" fill-rule="evenodd"/><path transform="matrix(1,0,0,-1,0,595.276)" d="M355.2 530.116V529.876H355.92L356.04 529.516 356.16 529.156 356.52 528.796 357 528.436 357.36 528.676 357.12 528.796 356.88 528.916 356.64 529.156 356.52 529.276 356.4 529.516 356.28 529.756V529.876 530.116Z" fill-rule="evenodd"/><path transform="matrix(1,0,0,-1,0,595.276)" d="M358.68 530.236V529.276H361.32V530.236H358.68ZM358.92 529.516V529.876H359.4V529.516H358.92ZM359.64 529.516V529.876H360.12V529.516H359.64ZM360.48 529.516V529.876H360.96V529.516H360.48Z" fill-rule="evenodd"/><path transform="matrix(1,0,0,-1,0,595.276)" d="M358.68 528.916 358.92 528.676 359.76 528.796V527.116H360.12V528.796L360.96 528.916H361.08L360.96 529.036 360.84 529.156 359.76 529.036Z" fill-rule="evenodd"/><path transform="matrix(1,0,0,-1,0,595.276)" d="M359.16 528.676 359.04 528.316 358.8 528.076 358.68 527.836 358.56 527.716 358.32 527.596 358.56 527.356 358.8 527.596 359.04 527.836 359.52 527.356 359.76 527.596 359.52 527.836 359.28 528.196 359.4 528.436V528.556Z" fill-rule="evenodd"/><path transform="matrix(1,0,0,-1,0,595.276)" d="M360.72 528.676 360.6 528.316 360.48 528.076V527.836L360.36 527.716 360.12 527.596 360.36 527.356 360.6 527.596 360.72 527.956 360.96 527.716 361.2 527.356 361.44 527.596 361.32 527.716 361.2 527.836 360.96 528.076V528.316 528.436L361.08 528.556H360.96Z" fill-rule="evenodd"/><path transform="matrix(1,0,0,-1,0,595.276)" d="M363.48 530.116 363.24 530.236 363.12 529.876 363 529.516 362.76 529.156 362.52 528.796 362.76 528.556 363 528.916V527.116H363.36V529.516L363.48 529.996H363.6V530.116Z" fill-rule="evenodd"/><path transform="matrix(1,0,0,-1,0,595.276)" d="M363.6 530.116V527.116H363.96V527.596H364.56V527.956H363.96V528.316H364.44V528.556H363.96V529.036H364.56V530.116H363.6ZM363.96 529.276V529.756H364.2V529.276H363.96Z" fill-rule="evenodd"/><path transform="matrix(1,0,0,-1,0,595.276)" d="M364.8 530.116V529.756H365.4V529.276H364.8V529.036H365.76V530.116Z" fill-rule="evenodd"/><path transform="matrix(1,0,0,-1,0,595.276)" d="M364.68 528.796V528.556H365.4L365.28 528.196 365.16 527.836 365.04 528.076 364.92 528.436 364.68 528.316 364.8 527.956 365.04 527.716 364.8 527.476 364.44 527.356 364.56 527.116 364.92 527.236 365.16 527.476 365.4 527.236 365.64 527.116 365.88 527.356 365.64 527.476 365.4 527.716 365.64 528.076 365.76 528.676 365.64 528.796H365.52Z" fill-rule="evenodd"/><path transform="matrix(1,0,0,-1,0,595.276)" d="M366.96 529.756V529.516H367.32V528.196H366.96V527.836H368.76V528.196H368.4V529.516H368.76V529.756H368.4V530.116H368.52V530.236H368.4 368.16V529.756H367.68V530.116 530.236H367.56 367.32V529.756H366.96ZM367.68 528.676V529.036H368.16V528.676H367.68ZM367.68 528.196V528.436H368.16V528.196H367.68ZM367.68 529.276V529.516H368.16V529.276H367.68Z" fill-rule="evenodd"/><path transform="matrix(1,0,0,-1,0,595.276)" d="M366.96 527.236 367.32 526.996 367.56 527.356 367.8 527.716 367.44 527.836 367.2 527.476Z" fill-rule="evenodd"/><path transform="matrix(1,0,0,-1,0,595.276)" d="M368.88 530.236V528.796 528.316 527.836L368.76 527.596 368.52 527.356 368.88 527.116 369 527.356 369.12 527.596V527.836 528.196H369.72V527.476H369.6L369.48 527.356H369.24L369.36 527.116H369.72L369.84 527.236H369.96V527.356 527.596 530.236H368.88ZM369.24 528.436V529.036H369.72V528.436H369.24ZM369.24 529.276V529.876H369.72V529.276H369.24Z" fill-rule="evenodd"/><path transform="matrix(1,0,0,-1,0,595.276)" d="M368.16 527.836 367.92 527.716 368.16 527.356 368.28 527.116 368.52 527.356 368.4 527.596Z" fill-rule="evenodd"/><path transform="matrix(1,0,0,-1,0,595.276)" d="M370.92 528.796 371.16 528.676 371.4 528.916V527.116H371.76V529.516L372 529.996V529.756H372.36L372.24 529.396 372.12 528.916 372 528.556 371.76 528.316 372.12 528.076 372.24 528.316 372.6 528.076 372.48 527.836 372.24 527.716 372 527.596 371.88 527.476 372 527.236 372.36 527.356 372.48 527.476 372.72 527.716 372.84 527.956 372.96 528.196 373.08 528.556V528.916 529.276H372.6V529.756H373.2V530.116H372L371.76 530.236 371.52 529.876 371.4 529.516 371.16 529.156 370.92 528.796ZM372.48 529.036H372.84L372.72 528.436 372.36 528.556 372.48 529.036Z" fill-rule="evenodd"/><path transform="matrix(1,0,0,-1,0,595.276)" d="M373.32 529.876V527.836H373.68V529.756H373.56Z" fill-rule="evenodd"/><path transform="matrix(1,0,0,-1,0,595.276)" d="M373.92 530.236V527.716 527.596L373.8 527.476V527.356H373.68 373.44L373.56 527.116H373.92 374.04L374.16 527.236V527.356 527.596 530.116H374.28V530.236H374.16Z" fill-rule="evenodd"/><path transform="matrix(1,0,0,-1,0,595.276)" d="M376.32 530.236H376.08L375.96 529.756 375.84 529.396 375.6 529.036 375.36 528.676 375.6 528.436 375.96 528.916 376.2 529.396H376.68L376.56 528.916V528.556L376.08 528.796 375.84 528.556 376.08 528.436 376.32 528.196 376.2 527.956 375.96 527.716 375.72 527.596 375.36 527.476 375.6 527.116 375.84 527.236 376.08 527.356 376.32 527.596 376.56 527.836 376.68 528.196 376.92 528.556 377.04 529.036 377.16 529.516 376.92 529.756 376.8 529.636H376.32L376.44 529.996V530.116H376.56L376.44 530.236Z" fill-rule="evenodd"/><path transform="matrix(1,0,0,-1,0,595.276)" d="M377.76 530.236H377.52V528.916L377.28 529.156 377.16 529.036 377.28 528.676 377.52 528.436V527.116H377.88V528.196L378.36 527.956 378.6 528.316 378.24 528.436 377.88 528.676V530.116H378V530.236H377.88Z" fill-rule="evenodd"/></g></svg>