<?xml version='1.0' encoding='UTF-8'?>
<svg xmlns="http://www.w3.org/2000/svg" xmlns:xlink="http://www.w3.org/1999/xlink" xmlns:inkscape="http://www.inkscape.org/namespaces/inkscape" version="1.1" width="567.000" height="269.280" viewBox="0 0 567.000 269.280"><g transform="scale(10.0) translate(-220.305, -47.232)"><defs><clipPath id="clip_19"><path transform="matrix(0,1,1,0,0,0)" d="M0 74.451H595.008V767.55899H0Z"/></clipPath><clipPath id="clip_20"><path transform="matrix(0,1,1,0,0,0)" d="M0 842.013H595.224V.008972168H0Z"/></clipPath></defs><path transform="matrix(0,1,1,0,0,0)" d="M48.51 234.417H73.152V263.163H48.51Z" fill="#ffff00"/><path transform="matrix(0,1,1,0,261.111,60.84)" d="M0 0C-1.62 0-3.222-.306-4.716-.936-6.21-1.548-7.578-2.466-8.712-3.6-9.864-4.752-10.764-6.102-11.394-7.596-12.006-9.09-12.33-10.692-12.33-12.312-12.33-13.932-12.006-15.534-11.394-17.028-10.764-18.522-9.864-19.89-8.712-21.024-7.578-22.176-6.21-23.076-4.716-23.706-3.222-24.318-1.62-24.642 0-24.642 1.62-24.642 3.222-24.318 4.716-23.706 6.21-23.094 7.56-22.176 8.712-21.024 9.846-19.89 10.764-18.522 11.376-17.028 12.006-15.534 12.312-13.932 12.312-12.312 12.312-10.692 12.006-9.09 11.376-7.596 10.764-6.102 9.846-4.752 8.712-3.6 7.56-2.466 6.21-1.548 4.716-.936 3.222-.306 1.62 0 0 0" fill="#ffffff" fill-rule="evenodd"/><path transform="matrix(0,1,1,0,260.751,60.84)" d="M0 0C-1.584 0-3.132-.306-4.572-.918-6.03-1.512-7.344-2.394-8.46-3.51-9.576-4.608-10.44-5.94-11.052-7.38-11.646-8.838-11.952-10.386-11.952-11.952-11.952-13.536-11.646-15.084-11.052-16.542-10.44-17.982-9.576-19.296-8.46-20.412-7.344-21.528-6.03-22.41-4.572-23.004-3.132-23.598-1.584-23.904 0-23.904 1.566-23.904 3.114-23.598 4.572-23.004 6.012-22.41 7.344-21.528 8.442-20.412 9.558-19.296 10.44-17.982 11.034-16.542 11.646-15.084 11.952-13.536 11.952-11.952 11.952-10.386 11.646-8.838 11.034-7.38 10.44-5.94 9.558-4.608 8.442-3.51 7.344-2.394 6.012-1.512 4.572-.918 3.114-.306 1.566 0 0 0" fill="#ff0000" fill-rule="evenodd"/><path transform="matrix(0,1,1,0,239.151,58.518)" d="M0 0V19.278C0 19.404 .018 19.548 .072 19.692 .126 19.836 .216 19.98 .324 20.088 .45 20.196 .576 20.286 .72 20.34 .864 20.394 1.008 20.43 1.152 20.43H3.492C3.618 20.43 3.762 20.394 3.906 20.34 4.05 20.286 4.194 20.196 4.302 20.088 4.41 19.98 4.5 19.836 4.554 19.692 4.608 19.548 4.644 19.404 4.644 19.278V0C4.644-.126 4.608-.27 4.554-.414 4.5-.558 4.41-.684 4.302-.81 4.194-.918 4.05-1.008 3.906-1.062 3.762-1.116 3.618-1.134 3.492-1.134H1.152C1.008-1.134 .864-1.116 .72-1.062 .576-1.008 .45-.918 .324-.81 .216-.684 .126-.558 .072-.414 .018-.27 0-.126 0 0" fill="#ffffff" fill-rule="evenodd"/></g></svg>