<?xml version='1.0' encoding='UTF-8'?>
<svg xmlns="http://www.w3.org/2000/svg" xmlns:xlink="http://www.w3.org/1999/xlink" xmlns:inkscape="http://www.inkscape.org/namespaces/inkscape" version="1.1" width="567.000" height="269.280" viewBox="0 0 567.000 269.280"><g transform="scale(10.0) translate(-329.439, -235.728)"><defs><clipPath id="clip_19"><path transform="matrix(0,1,1,0,0,0)" d="M0 74.451H595.008V767.55899H0Z"/></clipPath><clipPath id="clip_20"><path transform="matrix(0,1,1,0,0,0)" d="M0 842.013H595.224V.008972168H0Z"/></clipPath></defs><path transform="matrix(0,1,1,0,367.383,262.026)" d="M0 0V-18.936C0-19.08-.018-19.224-.09-19.386-.144-19.53-.234-19.674-.36-19.8-.486-19.926-.63-20.016-.774-20.07-.918-20.142-1.08-20.16-1.224-20.16H-24.174C-24.318-20.16-24.462-20.142-24.624-20.07-24.768-20.016-24.912-19.926-25.038-19.8-25.164-19.674-25.254-19.53-25.308-19.386-25.38-19.224-25.398-19.08-25.398-18.936V0C-25.398 .144-25.38 .306-25.308 .45-25.254 .612-25.164 .756-25.038 .864-24.912 .99-24.768 1.08-24.624 1.152-24.462 1.206-24.318 1.242-24.174 1.242H-1.224C-.9 1.224-.594 1.098-.36 .864-.126 .648 0 .324 0 0" fill="#ffffff" fill-rule="evenodd"/><path transform="matrix(0,1,1,0,367.995,237.852)" d="M0 0H22.95C23.022 0 23.094 0 23.166-.036 23.256-.072 23.328-.108 23.382-.18 23.436-.234 23.49-.306 23.526-.378 23.544-.45 23.562-.54 23.562-.612V-19.548C23.562-19.692 23.508-19.854 23.382-19.98 23.328-20.034 23.256-20.088 23.166-20.106 23.094-20.142 23.022-20.16 22.95-20.16H0C-.144-20.16-.306-20.106-.432-19.98-.486-19.908-.54-19.836-.576-19.764-.594-19.692-.612-19.62-.612-19.548V-.612C-.612-.468-.558-.306-.432-.18-.306-.054-.144 0 0 0" fill="#0000ff" fill-rule="evenodd"/><path transform="matrix(0,1,1,0,349.869,238.23)" d="M0 0 2.34-.756V-.396L1.926-.252V.738L2.34 .882V1.242L0 .486V0ZM1.602 .63V-.144L.432 .234 1.602 .63" fill="#ffffff" fill-rule="evenodd"/><path transform="matrix(0,1,1,0,353.145,238.986)" d="M0 0C-.09-.054-.198-.108-.27-.18-.342-.27-.414-.36-.432-.468-.45-.576-.45-.684-.414-.774-.378-.864-.324-.954-.252-1.026-.09-1.17 .162-1.26 .414-1.26 .684-1.26 .918-1.17 1.098-1.026 1.17-.954 1.224-.864 1.26-.774 1.296-.684 1.296-.576 1.278-.468 1.242-.36 1.188-.27 1.116-.18 1.026-.108 .936-.054 .846 0L.918 .378C1.08 .324 1.224 .234 1.35 .108 1.476-.018 1.566-.162 1.62-.342 1.674-.504 1.674-.684 1.62-.846 1.584-1.008 1.494-1.134 1.404-1.26 1.296-1.368 1.152-1.458 .99-1.548 .828-1.62 .63-1.656 .414-1.656 .216-1.656 .018-1.62-.144-1.548-.324-1.458-.45-1.368-.558-1.26-.648-1.134-.738-1.008-.774-.846-.828-.684-.828-.504-.774-.342-.738-.162-.63-.018-.504 .108-.378 .234-.234 .324-.09 .378L0 0" fill="#ffffff" fill-rule="evenodd"/><path transform="matrix(0,1,1,0,355.629,238.986)" d="M0 0C-.09-.054-.198-.108-.27-.18-.342-.27-.414-.36-.432-.468-.45-.576-.45-.666-.414-.774-.378-.864-.324-.954-.252-1.008-.09-1.17 .162-1.26 .414-1.26 .684-1.26 .918-1.17 1.098-1.008 1.17-.954 1.224-.864 1.26-.774 1.296-.666 1.296-.576 1.278-.468 1.242-.36 1.188-.27 1.116-.18 1.026-.108 .936-.054 .846 0L.918 .378C1.08 .324 1.224 .234 1.35 .108 1.476 0 1.566-.162 1.62-.324 1.674-.504 1.674-.684 1.62-.846 1.584-1.008 1.494-1.134 1.404-1.242 1.296-1.368 1.152-1.458 .99-1.548 .828-1.62 .63-1.656 .414-1.656 .216-1.656 .018-1.62-.144-1.548-.324-1.458-.45-1.368-.558-1.242-.648-1.134-.738-1.008-.774-.846-.828-.684-.828-.504-.774-.324-.738-.162-.63 0-.504 .108-.378 .234-.234 .324-.09 .378L0 0" fill="#ffffff" fill-rule="evenodd"/><path transform="matrix(0,1,1,0,356.637,238.23)" stroke-width=".144" stroke-linecap="round" stroke-linejoin="round" fill="none" stroke="#ffffff" d="M2.34 0H0V.396H2.34Z"/><path transform="matrix(0,1,1,0,0,0)" d="M238.23 356.637H240.56999V357.033H238.23Z" fill="#ffffff"/><path transform="matrix(0,1,1,0,358.743,238.23)" d="M0 0C0 .108 .036 .252 .09 .378 .144 .504 .234 .612 .342 .72 .468 .81 .594 .9 .738 .936 .9 .99 1.044 1.008 1.17 1.008 1.314 1.008 1.458 .99 1.602 .936 1.746 .9 1.89 .81 1.998 .72 2.124 .612 2.214 .504 2.268 .378 2.322 .252 2.34 .108 2.34 0V-.882H0V0ZM.36 0V-.486H1.998V0C1.998 .144 1.926 .306 1.764 .432 1.584 .558 1.368 .612 1.17 .612 .972 .612 .756 .558 .594 .432 .432 .306 .36 .144 .36 0" fill="#ffffff" fill-rule="evenodd"/><path transform="matrix(0,1,1,0,360.417,240.57)" d="M0 0V1.548H-.36V.396H-.99V1.386H-1.368V.396H-1.962V1.476H-2.34V0" fill="#ffffff" fill-rule="evenodd"/><path transform="matrix(0,1,1,0,364.179,240.57)" d="M0 0V.468H-2.34V.072H-.63L-2.34-1.08V-1.548H0V-1.134H-1.692" fill="#ffffff" fill-rule="evenodd"/><path transform="matrix(0,1,1,0,366.807,238.23)" d="M0 0V-1.71H.36V-1.062H2.34V-.666H.36V0" fill="#ffffff" fill-rule="evenodd"/><path transform="matrix(0,1,1,0,353.055,247.014)" d="M0 0C0 .144 .054 .306 .216 .432 .36 .558 .558 .612 .738 .612 .9 .612 1.098 .558 1.242 .432 1.314 .378 1.368 .306 1.404 .216 1.458 .144 1.458 .072 1.458 0V-.594H2.34V-.99H0V0ZM.342-.594H1.116V-.108C1.116-.072 1.098-.036 1.08 .018 1.062 .054 1.044 .09 1.008 .126 .918 .18 .828 .216 .738 .216 .63 .216 .54 .18 .45 .126 .414 .09 .396 .054 .378 .018 .36-.036 .342-.072 .342-.108V-.594" fill="#ffffff" fill-rule="evenodd"/><path transform="matrix(0,1,1,0,355.125,246.942)" d="M0 0C0-.126 .018-.252 .09-.378 .144-.522 .234-.648 .36-.756 .486-.846 .63-.936 .774-.99 .936-1.044 1.098-1.062 1.242-1.062 1.386-1.062 1.53-1.044 1.692-.99 1.836-.936 1.98-.846 2.106-.756 2.232-.648 2.322-.522 2.394-.378 2.448-.252 2.466-.126 2.466 0 2.466 .126 2.448 .27 2.394 .396 2.322 .54 2.232 .666 2.106 .756 1.98 .864 1.836 .954 1.692 1.008 1.53 1.062 1.386 1.08 1.242 1.08 1.098 1.08 .936 1.062 .774 1.008 .63 .954 .486 .864 .36 .756 .234 .666 .144 .54 .09 .396 .018 .27 0 .126 0 0ZM.36 0C.36 .162 .45 .342 .63 .486 .792 .612 1.026 .684 1.242 .684 1.458 .684 1.692 .612 1.854 .486 2.016 .36 2.106 .18 2.106 0 2.106-.162 2.034-.324 1.854-.468 1.674-.594 1.44-.666 1.242-.666 1.008-.666 .792-.594 .63-.468 .45-.342 .36-.162 .36 0" fill="#ffffff" fill-rule="evenodd"/><path transform="matrix(0,1,1,0,356.853,249.354)" d="M0 0V1.332H-.36V.396H-2.34V0" fill="#ffffff" fill-rule="evenodd"/><path transform="matrix(0,1,1,0,358.653,247.014)" stroke-width=".144" stroke-linecap="round" stroke-linejoin="round" fill="none" stroke="#ffffff" d="M2.34 0H0V.396H2.34Z"/><path transform="matrix(0,1,1,0,0,0)" d="M247.014 358.653H249.354V359.049H247.014Z" fill="#ffffff"/><path transform="matrix(0,1,1,0,361.353,247.752)" d="M0 0C-.09-.036-.18-.09-.27-.18-.342-.252-.396-.342-.432-.45-.45-.558-.45-.666-.414-.756-.378-.864-.324-.936-.252-1.008-.072-1.152 .162-1.242 .432-1.242 .684-1.242 .936-1.152 1.098-1.008 1.17-.936 1.224-.864 1.26-.756 1.296-.666 1.314-.558 1.278-.45 1.26-.342 1.188-.252 1.116-.18 1.044-.09 .936-.036 .846 0L.936 .396C1.08 .342 1.224 .252 1.35 .126 1.476 0 1.584-.144 1.62-.324 1.674-.486 1.674-.666 1.62-.828 1.584-.99 1.494-1.134 1.404-1.242 1.296-1.35 1.17-1.458 .99-1.53 .828-1.602 .63-1.656 .432-1.656 .216-1.656 .036-1.602-.144-1.53-.306-1.458-.45-1.35-.54-1.242-.648-1.134-.738-.99-.774-.828-.828-.666-.828-.486-.774-.324-.72-.144-.63 0-.504 .126-.378 .252-.234 .342-.072 .396L0 0" fill="#ffffff" fill-rule="evenodd"/><path transform="matrix(0,1,1,0,362.361,249.354)" d="M0 0V1.53H-.378V.378H-1.008V1.386H-1.368V.378H-1.98V1.476H-2.34V0" fill="#ffffff" fill-rule="evenodd"/><path transform="matrix(0,1,1,0,349.383,256.752)" d="M0 0H.234V.504H.378L.288 .36 .63 .126 .9-.144 1.08 .108 .738 .396V1.368L.9 1.35 1.026 1.314 1.098 1.26 1.134 1.188 1.152 1.062 1.404 1.17V1.296L1.386 1.404 1.332 1.476 1.242 1.548 1.134 1.584 .99 1.62H.63L.792 1.872 .576 2.016 .72 2.106 .864 2.25 1.008 1.98 1.116 1.674 1.368 1.926 1.08 2.502 1.26 2.79 1.422 3.132 1.206 3.402 1.062 3.06 .882 2.736 .648 2.916 .396 3.06V3.312H.144V2.286L.018 2.358 0 2.412-.018 2.43-.054 2.412-.09 2.358-.18 2.142 .234 1.89 .576 1.62H.522V.576L.468 .63 .432 .648 .396 .612 .378 .54V.792H.234V1.062H.414V1.35H.234V1.71H0V1.35L-.054 1.422H-.09L-.126 1.386-.144 1.296-.18 1.062H0V.792L-.054 .864-.108 .882-.144 .846-.162 .756V.504H0V0ZM.396 2.178V2.718L.702 2.466 .558 2.304 .396 2.178" fill="#ffffff" fill-rule="evenodd"/><path transform="matrix(0,1,1,0,0,0)" d="M258.516 349.257H258.714V352.731H258.516Z" fill="#ffffff"/><path transform="matrix(0,1,1,0,0,0)" d="M258.192 349.851H258.408V352.191H258.192Z" fill="#ffffff"/><path transform="matrix(0,1,1,0,0,0)" d="M258.84 349.869H259.056V352.17298H258.84Z" fill="#ffffff"/><path transform="matrix(0,1,1,0,0,0)" d="M259.164 349.869H259.362V352.17298H259.164Z" fill="#ffffff"/><path transform="matrix(0,1,1,0,349.743,259.488)" d="M0 0H.55798V2.556H0ZM.36 .342H.21602002V2.196H.36Z" fill="#ffffff" fill-rule="evenodd"/><path transform="matrix(0,1,1,0,349.743,257.616)" d="M0 0H.45001V.702H0ZM.288 .216H.14401999V.46798004H.288Z" fill="#ffffff" fill-rule="evenodd"/><path transform="matrix(0,1,1,0,355.485,256.626)" d="M0 0 .306-.018V-1.512H1.008V-1.188H.576V-.684L.828-.864 1.044-1.062 1.242-1.296 1.404-1.566 1.584-1.314 1.494-1.242 1.746-.918 1.926-1.584 2.16-1.422 2.106-1.134 2.016-.864 1.908-.63 1.764-.396H2.034V.774H1.746V-.36L1.404-.054 .99 .162 1.404 .486 1.728 .846 1.962 1.278 2.088 1.746 1.782 1.944 1.656 1.44 1.458 1.026 .882 1.422 .702 1.152 .756 1.116V.558H1.008V.972L1.296 .792 1.08 .558 .81 .36 .918 .162 .756-.072 .81-.09V-.486L.648-.324 .576-.45V1.476H1.008V1.8H.306V.342H.144L.09 .396 .054 .414 .018 .36V.27L0 0ZM1.062-.702V-.234L1.296-.36 1.062-.702ZM1.35-1.026 1.278-.882 1.368-.684 1.494-.522 1.602-.684 1.35-1.026" fill="#ffffff" fill-rule="evenodd"/><path transform="matrix(0,1,1,0,353.991,258.894)" d="M0 0H.288V1.53H.756L.846 1.476 .882 1.386 .9 1.26V1.044L1.242 1.188V1.368L1.224 1.584 1.134 1.746 .972 1.836 .738 1.854H.288V3.24H0" fill="#ffffff" fill-rule="evenodd"/><path transform="matrix(0,1,1,0,355.161,259.506)" d="M0 0-.198-.252 .306-1.116 .522-.846 .288-.414" fill="#ffffff" fill-rule="evenodd"/><path transform="matrix(0,1,1,0,356.331,259.308)" d="M0 0 .18-.198 .486 .18 .72 .612 .396 .864 .234 .414" fill="#ffffff" fill-rule="evenodd"/><path transform="matrix(0,1,1,0,358.581,257.364)" d="M0 0H.342V.558H1.116L1.296-.054 1.53 .036 1.638 .072 1.692 .126 1.656 .162 1.584 .216 1.44 .558H2.16L2.25 .504 2.304 .432 2.34 .324V-.018L2.7 .126 2.664 .522 2.61 .702 2.502 .828 2.358 .9 2.16 .918H1.332L1.206 1.314H.864L1.008 .918H.342V1.314H0V.918H-.54L-.612 .99H-.666L-.702 .954-.72 .846-.756 .558H0" fill="#ffffff" fill-rule="evenodd"/><path transform="matrix(0,1,1,0,360.057,256.608)" d="M0 0H1.134L1.296 .09 1.386 .234 1.44 .486V1.368L1.404 1.584 1.296 1.764 1.134 1.872 .9 1.944 .756 1.638 .9 1.602 1.008 1.53 1.08 1.404 1.116 1.224V.558L1.098 .45 1.044 .378 .954 .342H.828L.522 1.638 .504 1.728 .486 1.764H.432L.36 1.728 .162 1.494 .378 .918 .504 .342H.27L.162 .432 .09 .45 .036 .396 .018 .288" fill="#ffffff" fill-rule="evenodd"/><path transform="matrix(0,1,1,0,360.057,260.046)" d="M0 0V.342H-.18V1.368H0V1.692H-1.746V0H0ZM-1.134 .342H-1.4399999V1.35H-1.134ZM-.486 .342H-.82800999V1.35H-.486Z" fill="#ffffff" fill-rule="evenodd"/><path transform="matrix(0,1,1,0,0,0)" d="M256.896 363.567H257.22V366.141H256.896Z" fill="#ffffff"/><path transform="matrix(0,1,1,0,363.171,257.742)" d="M0 0H.342V1.566H1.818L1.89 1.53 1.926 1.458 1.962 1.35V.972L2.304 1.134V1.314L2.286 1.602 2.214 1.8 2.052 1.908 1.836 1.926H.342V3.33H0" fill="#ffffff" fill-rule="evenodd"/><path transform="matrix(0,1,1,0,364.125,258.498)" d="M0 0-.09-.216 .252-.396 .558-.612 .81-.828 1.026-1.062 1.224-.684 .72-.27 .162 .072 .144 .162H.108L.054 .108" fill="#ffffff" fill-rule="evenodd"/><path transform="matrix(0,1,1,0,365.745,258.408)" d="M0 0 .18-.306 .828 .072 1.314 .486 1.08 .828 .846 .576 .576 .342 .288 .162" fill="#ffffff" fill-rule="evenodd"/><path transform="matrix(0,1,1,0,354.171,251.37)" d="M0 0H1.152L1.188-.198 1.548-.144 1.584-.09V-.054L1.548-.018 1.476 .018 1.224 1.026 1.458 1.08 1.368 1.404 .918 1.278 .468 1.116 .54 .846 .954 .972 1.098 .36H.378L.162 1.098V1.224L.126 1.242 .072 1.224-.162 .99 .126 .27" fill="#ffffff" fill-rule="evenodd"/><path transform="matrix(0,1,1,0,355.665,251.352)" d="M0 0H.324V.432L.594 .378 .864 .288 1.098 .144 1.314-.036 1.494 .288 1.224 .486 .918 .63 .63 .72 .324 .756V1.26H.738L.936 1.242 1.08 1.188 1.17 1.098 1.206 .972V.774L1.53 .9 1.512 1.08 1.476 1.296 1.35 1.458 1.152 1.548 .9 1.584H0" fill="#ffffff" fill-rule="evenodd"/><path transform="matrix(0,1,1,0,354.387,252.954)" d="M0 0H1.638V.342H1.548V2.196H1.638V2.556H0V0ZM1.224 1.458H.93601V2.1960099H1.224ZM1.224 .36H.93601V1.11598H1.224ZM.612 1.458H.32400999V2.1960099H.612ZM.612 .36H.32400999V1.11598H.612Z" fill="#ffffff" fill-rule="evenodd"/><path transform="matrix(0,1,1,0,360.039,251.154)" d="M0 0H.288V-1.278H.576V-.648L.918-.45V-1.512H1.206V1.89H.918V.9L.576 1.008V1.71H.288V.342H.18L.126 .414H.09L.054 .396 .036 .324 0 0ZM.918-.126 .576-.288V.648L.918 .54V-.126" fill="#ffffff" fill-rule="evenodd"/><path transform="matrix(0,1,1,0,359.139,252.522)" d="M0 0H1.116V2.196H0ZM.414 .324H.26999V1.872H.414ZM.846 .324H.66599V1.872H.846Z" fill="#ffffff" fill-rule="evenodd"/><path transform="matrix(0,1,1,0,360.309,253.692)" d="M0 0 .198-.216 .36-.036 .576 .126 .378 .396 .198 .252" fill="#ffffff" fill-rule="evenodd"/><path transform="matrix(0,1,1,0,359.409,253.728)" d="M0 0H.558L.72 .036 .828 .09 .882 .198V1.638L.828 1.71 .756 1.764 .666 1.8 .36 1.908 .216 1.602 .45 1.53 .576 1.44 .594 1.314V.504L.558 .396 .45 .342H.18L.108 .45 .054 .468 .018 .414 0 .306" fill="#ffffff" fill-rule="evenodd"/><path transform="matrix(0,1,1,0,359.157,253.836)" d="M0 0-.108-.252 .234-.45 .54-.684 .72-.396 .486-.18 .162 0 .126 .054 .072 .09 .036 .054" fill="#ffffff" fill-rule="evenodd"/><path transform="matrix(0,1,1,0,361.443,253.692)" d="M0 0 .216-.216 .486 .054 .81 .252 .612 .558 .252 .306" fill="#ffffff" fill-rule="evenodd"/><path transform="matrix(0,1,1,0,355.431,242.37)" d="M0 0H.306V-1.278H.594V-.648L.936-.45V-1.512H1.206V1.89H.936V.9L.594 1.008V1.71H.306V.342H.18L.144 .414H.09L.072 .396 .054 .324 0 0ZM.936-.126 .594-.288V.648L.936 .54V-.126" fill="#ffffff" fill-rule="evenodd"/><path transform="matrix(0,1,1,0,354.531,243.738)" d="M0 0H1.134V2.196H0ZM.432 .324H.27V1.872H.432ZM.864 .324H.68401V1.872H.864Z" fill="#ffffff" fill-rule="evenodd"/><path transform="matrix(0,1,1,0,355.701,244.926)" d="M0 0 .198-.216 .36-.036 .558 .126 .378 .396 .198 .252" fill="#ffffff" fill-rule="evenodd"/><path transform="matrix(0,1,1,0,354.801,244.962)" d="M0 0H.558L.702 .036 .81 .09 .864 .198 .882 .36V1.638L.828 1.71 .756 1.764 .648 1.8 .342 1.908 .216 1.602 .45 1.53 .558 1.44 .594 1.314V.504L.558 .396 .432 .342H.18L.108 .45 .054 .468 .018 .414 0 .306" fill="#ffffff" fill-rule="evenodd"/><path transform="matrix(0,1,1,0,354.549,245.07)" d="M0 0-.108-.252 .234-.45 .522-.684 .72-.396 .486-.18 .162 0 .108 .054 .072 .09 .036 .054" fill="#ffffff" fill-rule="evenodd"/><path transform="matrix(0,1,1,0,356.835,244.926)" d="M0 0 .198-.216 .486 .054 .81 .252 .594 .558 .252 .306" fill="#ffffff" fill-rule="evenodd"/><path transform="matrix(0,1,1,0,359.535,242.46)" d="M0 0-.036-.234 .45-.324 .9-.486 1.314-.738 1.674-1.044 1.962-.756 1.458-.378 .954-.126V.432L1.404 .342 1.8 .216 1.512-.198 1.764-.45 1.944-.18 2.142 .072 2.43-.09 2.664-.342 2.862-.648 3.024-1.008 3.348-.756 3.24-.45C2.87 .265 2.024 .579 1.296 .774L.756 .9 .54 .666 .63 .54V-.018L.198 .09 .126 .198 .072 .216 .018 .144" fill="#ffffff" fill-rule="evenodd"/><path transform="matrix(0,1,1,0,361.101,242.46)" d="M0 0-.036-.216H1.422L1.17-.45 1.35-.684 1.656-.45 1.908-.216H3.402V.162H2.196L2.484 .666 2.106 .954 1.944 .504 1.71 .162H.162L.09 .252H.054L.018 .162" fill="#ffffff" fill-rule="evenodd"/><path transform="matrix(0,1,1,0,367.383,236.628)" stroke-width=".144" stroke-linecap="round" stroke-linejoin="round" fill="none" stroke="#0000ff" d="M0 0C0 .684 .54 1.242 1.224 1.242"/><path transform="matrix(0,1,1,0,348.447,236.628)" stroke-width=".144" stroke-linecap="round" stroke-linejoin="round" fill="none" stroke="#0000ff" d="M0 0V18.936"/><path transform="matrix(0,1,1,0,347.223,237.852)" stroke-width=".144" stroke-linecap="round" stroke-linejoin="round" fill="none" stroke="#0000ff" d="M0 0C-.684 0-1.224 .558-1.224 1.224"/><path transform="matrix(0,1,1,0,347.223,260.802)" stroke-width=".144" stroke-linecap="round" stroke-linejoin="round" fill="none" stroke="#0000ff" d="M0 0H-22.95"/><path transform="matrix(0,1,1,0,348.447,262.026)" stroke-width=".144" stroke-linecap="round" stroke-linejoin="round" fill="none" stroke="#0000ff" d="M0 0C0-.666-.54-1.224-1.224-1.224"/><path transform="matrix(0,1,1,0,367.383,262.026)" stroke-width=".144" stroke-linecap="round" stroke-linejoin="round" fill="none" stroke="#0000ff" d="M0 0V-18.936"/><path transform="matrix(0,1,1,0,368.625,260.802)" stroke-width=".144" stroke-linecap="round" stroke-linejoin="round" fill="none" stroke="#0000ff" d="M0 0C.684 0 1.224-.558 1.224-1.242"/><path transform="matrix(0,1,1,0,368.607,237.852)" stroke-width=".144" stroke-linecap="round" stroke-linejoin="round" fill="none" stroke="#0000ff" d="M0 0H22.95"/></g></svg>