<?xml version='1.0' encoding='UTF-8'?>
<svg xmlns="http://www.w3.org/2000/svg" xmlns:xlink="http://www.w3.org/1999/xlink" xmlns:inkscape="http://www.inkscape.org/namespaces/inkscape" version="1.1" width="567.000" height="269.280" viewBox="0 0 567.000 269.280"><g transform="scale(10.0) translate(-220.305, -531.936)"><defs><clipPath id="clip_19"><path transform="matrix(0,1,1,0,0,0)" d="M0 74.451H595.008V767.55899H0Z"/></clipPath><clipPath id="clip_20"><path transform="matrix(0,1,1,0,0,0)" d="M0 842.013H595.224V.008972168H0Z"/></clipPath></defs><path transform="matrix(0,1,1,0,264.387,556.704)" d="M0 0H-22.338C-22.536 0-22.734-.036-22.932-.108-23.13-.198-23.31-.306-23.472-.468-23.616-.63-23.742-.81-23.814-1.008-23.904-1.206-23.922-1.404-23.922-1.584V-29.592C-23.922-29.79-23.904-29.988-23.814-30.186-23.742-30.384-23.616-30.564-23.472-30.726-23.31-30.87-23.13-30.996-22.932-31.068-22.734-31.158-22.536-31.176-22.338-31.176H0C.18-31.176 .378-31.158 .576-31.068 .774-30.996 .954-30.87 1.116-30.726 1.278-30.564 1.386-30.384 1.476-30.186 1.548-29.988 1.584-29.79 1.584-29.592V-1.584C1.584-1.404 1.548-1.206 1.476-1.008 1.386-.81 1.278-.63 1.116-.468 .954-.306 .774-.198 .576-.108 .378-.036 .18 0 0 0" fill="#ffffff" fill-rule="evenodd"/><path transform="matrix(0,1,1,0,233.211,534.366)" stroke-width=".144" stroke-linecap="round" stroke-linejoin="round" fill="none" stroke="#0000ff" d="M0 0C-.882 0-1.584 .702-1.584 1.584"/><path transform="matrix(0,1,1,0,233.211,556.70407)" stroke-width=".144" stroke-linecap="round" stroke-linejoin="round" fill="none" stroke="#0000ff" d="M0 0H-22.338"/><path transform="matrix(0,1,1,0,234.795,558.288)" stroke-width=".144" stroke-linecap="round" stroke-linejoin="round" fill="none" stroke="#0000ff" d="M0 0C0-.882-.72-1.584-1.584-1.584"/><path transform="matrix(0,1,1,0,262.803,558.288)" stroke-width=".144" stroke-linecap="round" stroke-linejoin="round" fill="none" stroke="#0000ff" d="M0 0V-28.008"/><path transform="matrix(0,1,1,0,264.38703,556.70407)" stroke-width=".144" stroke-linecap="round" stroke-linejoin="round" fill="none" stroke="#0000ff" d="M0 0C.864 0 1.584-.72 1.584-1.584"/><path transform="matrix(0,1,1,0,264.38703,534.366)" stroke-width=".144" stroke-linecap="round" stroke-linejoin="round" fill="none" stroke="#0000ff" d="M0 0H22.338"/><path transform="matrix(0,1,1,0,262.803,532.78207)" stroke-width=".144" stroke-linecap="round" stroke-linejoin="round" fill="none" stroke="#0000ff" d="M0 0C0 .864 .702 1.584 1.584 1.584"/><path transform="matrix(0,1,1,0,234.79502,532.78207)" stroke-width=".144" stroke-linecap="round" stroke-linejoin="round" fill="none" stroke="#0000ff" d="M0 0V28.008"/><path transform="matrix(0,1,1,0,234.795,533.574)" d="M0 0V28.008C0 28.188 .072 28.404 .234 28.566 .396 28.728 .594 28.8 .792 28.8H23.13C23.22 28.8 23.31 28.782 23.418 28.746 23.508 28.692 23.616 28.638 23.688 28.566 23.76 28.476 23.832 28.386 23.868 28.296 23.904 28.188 23.922 28.098 23.922 28.008V0C23.922-.198 23.85-.396 23.688-.558 23.526-.72 23.31-.792 23.13-.792H.792C.594-.792 .396-.72 .234-.558 .072-.396 0-.198 0 0" fill="#0000ff" fill-rule="evenodd"/><path transform="matrix(0,1,1,0,242.625,534.852)" d="M0 0C0 .198 .108 .396 .288 .558 .45 .702 .702 .774 .936 .774 1.17 .774 1.422 .72 1.602 .558 1.8 .396 1.872 .18 1.872 0V-.756H2.988V-1.26H0V0ZM.45-.756H1.44V-.126C1.44 .09 1.206 .27 .936 .27 .828 .27 .702 .234 .594 .162 .504 .072 .45-.036 .45-.126V-.756" fill="#ffffff" fill-rule="evenodd"/><path transform="matrix(0,1,1,0,245.289,534.78)" d="M0 0C0-.36 .162-.702 .45-.954 .756-1.206 1.152-1.35 1.566-1.35 1.98-1.35 2.376-1.206 2.682-.954 2.97-.702 3.132-.36 3.132 0 3.132 .36 2.97 .702 2.682 .972 2.376 1.224 1.98 1.368 1.566 1.368 1.152 1.368 .756 1.224 .45 .972 .162 .702 0 .36 0 0ZM.468 0C.468 .216 .558 .432 .792 .612 .9 .684 1.026 .756 1.152 .792 1.296 .828 1.44 .846 1.566 .846 1.692 .846 1.836 .828 1.98 .792 2.106 .756 2.232 .684 2.34 .612 2.574 .432 2.664 .216 2.664 0 2.664-.198 2.574-.432 2.34-.594 2.232-.684 2.106-.738 1.98-.792 1.836-.828 1.692-.846 1.566-.846 1.44-.846 1.296-.828 1.152-.792 1.026-.738 .9-.684 .792-.594 .558-.432 .468-.198 .468 0" fill="#ffffff" fill-rule="evenodd"/><path transform="matrix(0,1,1,0,247.467,537.84)" d="M0 0V1.692H-.45V.504H-2.988V0" fill="#ffffff" fill-rule="evenodd"/><path transform="matrix(0,1,1,0,249.735,534.852)" stroke-width=".144" stroke-linecap="round" stroke-linejoin="round" fill="none" stroke="#ffffff" d="M2.988 0H0V.504H2.988Z"/><path transform="matrix(0,1,1,0,0,0)" d="M534.852 249.735H537.83999V250.239H534.852Z" fill="#ffffff"/><path transform="matrix(0,1,1,0,253.173,535.824)" d="M0 0C-.126-.054-.252-.126-.36-.216-.45-.324-.522-.45-.558-.576-.594-.72-.594-.846-.54-.972-.504-1.098-.414-1.188-.324-1.278-.126-1.476 .198-1.584 .522-1.584 .846-1.584 1.17-1.476 1.368-1.278 1.458-1.188 1.548-1.098 1.584-.972 1.638-.846 1.638-.72 1.602-.576 1.584-.45 1.494-.324 1.404-.216 1.296-.126 1.188-.054 1.062 0L1.17 .504C1.35 .432 1.548 .324 1.71 .162 1.872 0 1.98-.198 2.052-.414 2.106-.63 2.106-.846 2.052-1.062 1.998-1.26 1.89-1.44 1.764-1.584 1.638-1.71 1.458-1.854 1.242-1.944 1.026-2.052 .774-2.106 .522-2.106 .27-2.106 .018-2.052-.198-1.944-.414-1.854-.594-1.71-.72-1.584-.846-1.44-.954-1.26-1.008-1.062-1.062-.846-1.062-.63-1.008-.414-.936-.198-.828 0-.666 .162-.504 .324-.306 .432-.126 .504L0 0" fill="#ffffff" fill-rule="evenodd"/><path transform="matrix(0,1,1,0,254.433,537.84)" d="M0 0V1.962H-.468V.486H-1.278V1.764H-1.746V.486H-2.52V1.872H-2.988V0" fill="#ffffff" fill-rule="evenodd"/><path transform="matrix(0,1,1,0,235.659,542.088)" stroke-width=".144" stroke-linecap="round" stroke-linejoin="round" fill="none" stroke="#ffffff" d="M0 0H-2.97"/><path transform="matrix(0,1,1,0,235.659,542.088)" d="M0 0V.504H-1.152V1.008L0 1.584V2.142L-1.188 1.548C-1.26 1.728-1.386 1.872-1.566 1.98-1.764 2.088-1.98 2.124-2.196 2.088-2.394 2.07-2.61 1.98-2.754 1.836-2.916 1.674-2.97 1.494-2.97 1.314V0H0ZM-1.602 .504H-2.538V1.188C-2.538 1.278-2.484 1.386-2.394 1.476-2.304 1.548-2.178 1.584-2.07 1.584-1.944 1.584-1.836 1.548-1.728 1.476-1.692 1.44-1.656 1.386-1.62 1.332-1.602 1.278-1.602 1.242-1.602 1.188V.504" fill="#ffffff" fill-rule="evenodd"/><path transform="matrix(0,1,1,0,239.799,539.028)" d="M0 0C0-.36 .162-.702 .45-.954 .756-1.206 1.152-1.35 1.566-1.35 1.98-1.35 2.394-1.206 2.682-.954 2.97-.702 3.15-.36 3.15 0 3.15 .36 2.97 .72 2.682 .972 2.394 1.224 1.98 1.368 1.566 1.368 1.152 1.368 .756 1.224 .45 .972 .162 .72 0 .36 0 0ZM.468 0C.468 .216 .558 .432 .792 .612 .9 .702 1.026 .756 1.17 .792 1.296 .846 1.44 .864 1.566 .864 1.71 .864 1.836 .846 1.98 .792 2.124 .756 2.25 .702 2.358 .612 2.574 .432 2.682 .216 2.682 0 2.682-.198 2.574-.414 2.358-.594 2.25-.684 2.106-.738 1.98-.774 1.836-.828 1.71-.846 1.566-.846 1.44-.846 1.296-.828 1.17-.774 1.026-.738 .9-.684 .792-.594 .558-.414 .468-.198 .468 0" fill="#ffffff" fill-rule="evenodd"/><path transform="matrix(0,1,1,0,242.589,539.118)" d="M0 0 2.97-.954V-.486L2.43-.306V.954L2.97 1.134V1.602L0 .648V0ZM2.016 .81V-.162L.522 .324 2.016 .81" fill="#ffffff" fill-rule="evenodd"/><path transform="matrix(0,1,1,0,245.991,539.118)" d="M0 0C0 .162 .018 .324 .09 .486 .162 .648 .288 .792 .432 .918 .576 1.044 .756 1.152 .936 1.206 1.116 1.278 1.296 1.296 1.476 1.296 1.872 1.296 2.25 1.17 2.538 .918 2.808 .684 2.97 .342 2.97 0V-1.116H0V0ZM.432 0V-.612H2.52V0C2.52 .198 2.43 .396 2.214 .558 2.106 .63 1.998 .702 1.872 .738 1.728 .774 1.602 .792 1.476 .792 1.206 .792 .936 .702 .738 .558 .54 .414 .432 .216 .432 0" fill="#ffffff" fill-rule="evenodd"/><path transform="matrix(0,1,1,0,249.915,540.468)" d="M0 0C-.072 .144-.162 .252-.288 .306-.36 .324-.45 .342-.522 .342-.756 .342-.99 .234-1.152 .072-1.314-.126-1.386-.36-1.35-.702V-1.764H1.62V-.54C1.62-.306 1.584-.018 1.404 .198 1.242 .378 .972 .504 .702 .522 .576 .522 .45 .504 .342 .45 .18 .378 .072 .216 0 0ZM-.144-1.242H-.918V-.54C-.918-.342-.738-.162-.522-.162-.432-.162-.342-.198-.252-.27-.18-.36-.144-.45-.144-.54V-1.242ZM1.17-.54V-1.242H.234V-.54C.234-.414 .27-.27 .378-.162 .468-.054 .594 0 .702 0 .828 0 .954-.054 1.044-.162 1.116-.27 1.17-.396 1.17-.54" fill="#ffffff" fill-rule="evenodd"/><path transform="matrix(0,1,1,0,251.265,542.088)" d="M0 0V1.71H-.45V.522H-2.97V0" fill="#ffffff" fill-rule="evenodd"/><path transform="matrix(0,1,1,0,254.685,539.028)" d="M0 0C0-.36 .162-.702 .45-.954 .756-1.206 1.152-1.35 1.566-1.35 1.98-1.35 2.394-1.206 2.682-.954 2.97-.702 3.15-.36 3.15 0 3.15 .36 2.97 .702 2.682 .972 2.394 1.224 1.98 1.368 1.566 1.368 1.152 1.368 .756 1.224 .45 .972 .162 .702 0 .36 0 0ZM.468 0C.468 .216 .558 .432 .792 .612 .9 .684 1.026 .756 1.17 .792 1.296 .828 1.44 .846 1.566 .846 1.71 .846 1.836 .828 1.98 .792 2.106 .756 2.25 .684 2.358 .612 2.574 .432 2.682 .216 2.682 0 2.682-.198 2.574-.432 2.358-.594 2.25-.684 2.106-.738 1.98-.792 1.836-.828 1.71-.846 1.566-.846 1.44-.846 1.296-.828 1.17-.792 1.026-.738 .9-.684 .792-.594 .558-.432 .468-.198 .468 0" fill="#ffffff" fill-rule="evenodd"/><path transform="matrix(0,1,1,0,258.753,540.072)" d="M0 0C-.126-.054-.252-.126-.36-.234-.45-.342-.522-.45-.558-.594-.594-.72-.576-.846-.54-.972-.486-1.098-.414-1.206-.324-1.296-.108-1.494 .198-1.602 .522-1.602 .864-1.602 1.17-1.494 1.386-1.296 1.476-1.206 1.548-1.098 1.584-.972 1.638-.846 1.638-.72 1.62-.594 1.584-.45 1.512-.342 1.404-.234 1.314-.126 1.188-.054 1.062 0L1.17 .486C1.35 .414 1.548 .306 1.71 .144 1.872 0 1.998-.198 2.052-.414 2.124-.63 2.106-.864 2.052-1.062 1.998-1.278 1.89-1.44 1.764-1.584 1.638-1.728 1.458-1.854 1.242-1.962 1.026-2.052 .792-2.106 .522-2.106 .27-2.106 .018-2.052-.198-1.962-.414-1.854-.576-1.728-.72-1.584-.846-1.44-.954-1.278-1.008-1.062-1.062-.864-1.062-.63-1.008-.414-.936-.198-.81 0-.648 .144-.486 .306-.306 .414-.108 .486L0 0" fill="#ffffff" fill-rule="evenodd"/><path transform="matrix(0,1,1,0,261.795,542.088)" d="M0 0V.594L-1.818-.504-2.97 .522V-.072L-1.62-1.278H-2.97V-1.8H0V-1.278H-.936L-1.404-.864" fill="#ffffff" fill-rule="evenodd"/><path transform="matrix(0,1,1,0,243.795,544.608)" d="M0 0H.288V.648H.468L.36 .45 .792 .144 1.134-.18 1.368 .126 .936 .504V1.728L1.152 1.71 1.296 1.674 1.404 1.62 1.44 1.512 1.458 1.35 1.782 1.494V1.638L1.764 1.782 1.692 1.89 1.584 1.962 1.44 2.016 1.26 2.052 1.062 2.07 .792 2.052 .99 2.376 .72 2.556 .918 2.682 1.098 2.862 1.278 2.52 1.404 2.124 1.746 2.448 1.386 3.186 1.602 3.564 1.8 3.978 1.512 4.338 1.35 3.888 1.134 3.474 .828 3.708 .486 3.888V4.212H.18V2.898L.036 3.006 0 3.078-.036 3.096-.072 3.078-.126 3.006-.234 2.718 .288 2.412 .72 2.07H.648V.72L.594 .792 .54 .81 .504 .774 .468 .702V1.008H.288V1.35H.522V1.728H.288V2.16H0V1.728L-.072 1.8-.108 1.818-.162 1.764-.198 1.656-.234 1.35H0V1.008L-.072 1.098-.126 1.116-.18 1.08-.216 .954V.648H0V0ZM.486 2.772V3.456L.9 3.15 .72 2.934 .486 2.772" fill="#ffffff" fill-rule="evenodd"/><path transform="matrix(0,1,1,0,0,0)" d="M546.84 243.633H547.11007V248.043H546.84Z" fill="#ffffff"/><path transform="matrix(0,1,1,0,0,0)" d="M546.444 244.389H546.714V247.35901H546.444Z" fill="#ffffff"/><path transform="matrix(0,1,1,0,0,0)" d="M547.254 244.407H547.52407V247.341H547.254Z" fill="#ffffff"/><path transform="matrix(0,1,1,0,0,0)" d="M547.668 244.407H547.93807V247.341H547.668Z" fill="#ffffff"/><path transform="matrix(0,1,1,0,244.245,548.082)" d="M0 0H.72003V3.258H0ZM.468 .45H.26999999V2.808H.468Z" fill="#ffffff" fill-rule="evenodd"/><path transform="matrix(0,1,1,0,244.245,545.706)" d="M0 0H.57599V.90001H0ZM.36 .288H.18001002V.61199H.36Z" fill="#ffffff" fill-rule="evenodd"/><path transform="matrix(0,1,1,0,251.553,544.446)" d="M0 0 .396-.018V-1.908H1.296V-1.494H.738V-.864L1.044-1.08 1.332-1.35 1.566-1.656 1.782-1.998 2.016-1.674 1.908-1.566 2.214-1.17 2.448-2.016 2.736-1.8 2.682-1.44 2.574-1.098 2.43-.792 2.232-.486H2.574V.99H2.214V-.45L1.782-.072 1.26 .216 1.782 .612 2.196 1.08 2.484 1.62 2.664 2.232 2.268 2.466 2.124 1.836 1.854 1.314 1.134 1.818 .9 1.476 .972 1.422V.702H1.278V1.242L1.638 1.008 1.368 .72 1.044 .468 1.17 .216 .972-.09 1.044-.108V-.612L.828-.396 .738-.576V1.89H1.296V2.286H.396V.432H.18L.108 .504 .054 .522 .036 .468 .018 .342 0 0ZM1.35-.882V-.288L1.638-.45 1.35-.882ZM1.728-1.296 1.62-1.116 1.746-.882 1.908-.666 2.052-.864 1.728-1.296" fill="#ffffff" fill-rule="evenodd"/><path transform="matrix(0,1,1,0,249.663,547.326)" d="M0 0H.378V1.926H.972L1.08 1.872 1.134 1.764V1.332L1.584 1.512V1.746L1.566 2.016 1.44 2.214 1.242 2.322 .936 2.34H.378V4.104H0" fill="#ffffff" fill-rule="evenodd"/><path transform="matrix(0,1,1,0,251.139,548.118)" d="M0 0-.27-.324 .378-1.422 .648-1.062 .342-.504" fill="#ffffff" fill-rule="evenodd"/><path transform="matrix(0,1,1,0,252.633,547.866)" d="M0 0 .234-.252 .594 .216 .9 .774 .486 1.098 .288 .522" fill="#ffffff" fill-rule="evenodd"/><path transform="matrix(0,1,1,0,243.867,553.05)" d="M0 0V.666H1.89L1.962 .414H.684L.63 .468H.576L.54 .432 .504 .342 .468-.036H2.052L2.106-.252 2.538-.144 2.592-.054 2.52 .036 1.998 1.782H1.584L1.764 1.116H.99V1.638H.576V1.116H0V1.53H-.576L-.324 1.836-.882 2.358V3.312L-.54 3.078-.234 2.79-.396 2.646-.648 2.538-.594 2.124-.27 2.25 .018 2.448 .27 1.998 .432 1.53 .792 1.854 .576 2.394 .324 2.808 .63 3.366 .828 3.978 .45 4.338 .27 3.726 .036 3.168-.486 3.636-1.026 3.978-1.296 3.726V2.646L-1.476 2.754-1.53 2.844-1.584 2.862-1.62 2.826-1.674 2.754-1.8 2.448-1.116 1.98-.666 1.53H-1.494V0H0ZM-.414 .45H-1.09802V1.0799999H-.414Z" fill="#ffffff" fill-rule="evenodd"/><path transform="matrix(0,1,1,0,245.811,555.732)" d="M0 0V.432H-.27V1.44H-.018V1.89H-1.782V0H0ZM-.684 .432H-1.38597V1.44H-.684Z" fill="#ffffff" fill-rule="evenodd"/><path transform="matrix(0,1,1,0,249.681,555.696)" d="M0 0 .018 .414H-3.798V.864L-2.718 .522C-2.326 .836-1.566 1.143-1.188 .648L-1.116 .45-.702 .594-.774 .864C-1.167 1.54-2.209 1.329-2.736 .954L-3.978 1.386-4.266 .99-4.194 .954V0" fill="#ffffff" fill-rule="evenodd"/><path transform="matrix(0,1,1,0,251.157,551.718)" d="M0 0H.324V.378L.792 .522V-.216H1.152V2.736H.792V2.034L.324 2.142V2.574H0V1.476H-.198L-.252 1.566H-.288L-.342 1.476-.36 1.296-.396 1.044H0V0ZM.792 1.62V.936L.324 .756V1.728L.792 1.62" fill="#ffffff" fill-rule="evenodd"/><path transform="matrix(0,1,1,0,252.201,554.616)" d="M0 0H.288V-1.314H.666V0H1.116V.414H.666V1.746H.288V.414H0V1.404H-1.53V-.954H0V0ZM-.378-.522H-.576V.95399996H-.378ZM-.936-.522H-1.17001V.95399996H-.936Z" fill="#ffffff" fill-rule="evenodd"/></g></svg>