  0
SECTION
  2
HEADER
  9
$ACADVER
  1
AC1024
  9
$ACADMAINTVER
 70
6
  9
$DWGCODEPAGE
  3
ANSI_1252
  9
$LASTSAVEDBY
  1
ezdxf
  9
$INSBASE
 10
0.0
 20
0.0
 30
0.0
  9
$EXTMIN
 10
1e+20
 20
1e+20
 30
1e+20
  9
$EXTMAX
 10
-1e+20
 20
-1e+20
 30
-1e+20
  9
$LIMMIN
 10
0.0
 20
0.0
  9
$LIMMAX
 10
420.0
 20
297.0
  9
$ORTHOMODE
 70
0
  9
$REGENMODE
 70
1
  9
$FILLMODE
 70
1
  9
$QTEXTMODE
 70
0
  9
$MIRRTEXT
 70
1
  9
$LTSCALE
 40
1.0
  9
$ATTMODE
 70
1
  9
$TEXTSIZE
 40
2.5
  9
$TRACEWID
 40
1.0
  9
$TEXTSTYLE
  7
Standard
  9
$CLAYER
  8
0
  9
$CELTYPE
  6
ByLayer
  9
$CECOLOR
 62
256
  9
$CELTSCALE
 40
1.0
  9
$DISPSILH
 70
0
  9
$DIMSCALE
 40
1.0
  9
$DIMASZ
 40
2.5
  9
$DIMEXO
 40
0.625
  9
$DIMDLI
 40
3.75
  9
$DIMRND
 40
0.0
  9
$DIMDLE
 40
0.0
  9
$DIMEXE
 40
1.25
  9
$DIMTP
 40
0.0
  9
$DIMTM
 40
0.0
  9
$DIMTXT
 40
2.5
  9
$DIMCEN
 40
2.5
  9
$DIMTSZ
 40
0.0
  9
$DIMTOL
 70
0
  9
$DIMLIM
 70
0
  9
$DIMTIH
 70
0
  9
$DIMTOH
 70
0
  9
$DIMSE1
 70
0
  9
$DIMSE2
 70
0
  9
$DIMTAD
 70
1
  9
$DIMZIN
 70
8
  9
$DIMBLK
  1

  9
$DIMASO
 70
1
  9
$DIMSHO
 70
1
  9
$DIMPOST
  1

  9
$DIMAPOST
  1

  9
$DIMALT
 70
0
  9
$DIMALTD
 70
3
  9
$DIMALTF
 40
0.03937007874
  9
$DIMLFAC
 40
1.0
  9
$DIMTOFL
 70
1
  9
$DIMTVP
 40
0.0
  9
$DIMTIX
 70
0
  9
$DIMSOXD
 70
0
  9
$DIMSAH
 70
0
  9
$DIMBLK1
  1

  9
$DIMBLK2
  1

  9
$DIMSTYLE
  2
ISO-25
  9
$DIMCLRD
 70
0
  9
$DIMCLRE
 70
0
  9
$DIMCLRT
 70
0
  9
$DIMTFAC
 40
1.0
  9
$DIMGAP
 40
0.625
  9
$DIMJUST
 70
0
  9
$DIMSD1
 70
0
  9
$DIMSD2
 70
0
  9
$DIMTOLJ
 70
0
  9
$DIMTZIN
 70
8
  9
$DIMALTZ
 70
0
  9
$DIMALTTZ
 70
0
  9
$DIMUPT
 70
0
  9
$DIMDEC
 70
2
  9
$DIMTDEC
 70
2
  9
$DIMALTU
 70
2
  9
$DIMALTTD
 70
3
  9
$DIMTXSTY
  7
Standard
  9
$DIMAUNIT
 70
0
  9
$DIMADEC
 70
0
  9
$DIMALTRND
 40
0.0
  9
$DIMAZIN
 70
0
  9
$DIMDSEP
 70
44
  9
$DIMATFIT
 70
3
  9
$DIMFRAC
 70
0
  9
$DIMLDRBLK
  1

  9
$DIMLUNIT
 70
2
  9
$DIMLWD
 70
-2
  9
$DIMLWE
 70
-2
  9
$DIMTMOVE
 70
0
  9
$DIMFXL
 40
1.0
  9
$DIMFXLON
 70
0
  9
$DIMJOGANG
 40
0.785398163397
  9
$DIMTFILL
 70
0
  9
$DIMTFILLCLR
 70
0
  9
$DIMARCSYM
 70
0
  9
$DIMLTYPE
  6

  9
$DIMLTEX1
  6

  9
$DIMLTEX2
  6

  9
$DIMTXTDIRECTION
 70
0
  9
$LUNITS
 70
2
  9
$LUPREC
 70
4
  9
$SKETCHINC
 40
1.0
  9
$FILLETRAD
 40
10.0
  9
$AUNITS
 70
0
  9
$AUPREC
 70
2
  9
$MENU
  1
.
  9
$ELEVATION
 40
0.0
  9
$PELEVATION
 40
0.0
  9
$THICKNESS
 40
0.0
  9
$LIMCHECK
 70
0
  9
$CHAMFERA
 40
0.0
  9
$CHAMFERB
 40
0.0
  9
$CHAMFERC
 40
0.0
  9
$CHAMFERD
 40
0.0
  9
$SKPOLY
 70
0
  9
$TDCREATE
 40
2461232.4120949074
  9
$TDUCREATE
 40
2458532.153996898
  9
$TDUPDATE
 40
2461232.4120949074
  9
$TDUUPDATE
 40
2458532.1544311
  9
$TDINDWG
 40
0.0
  9
$TDUSRTIMER
 40
0.0
  9
$USRTIMER
 70
1
  9
$ANGBASE
 50
0.0
  9
$ANGDIR
 70
0
  9
$PDMODE
 70
0
  9
$PDSIZE
 40
0.0
  9
$PLINEWID
 40
0.0
  9
$SPLFRAME
 70
0
  9
$SPLINETYPE
 70
6
  9
$SPLINESEGS
 70
8
  9
$HANDSEED
  5
5C
  9
$SURFTAB1
 70
6
  9
$SURFTAB2
 70
6
  9
$SURFTYPE
 70
6
  9
$SURFU
 70
6
  9
$SURFV
 70
6
  9
$UCSBASE
  2

  9
$UCSNAME
  2

  9
$UCSORG
 10
0.0
 20
0.0
 30
0.0
  9
$UCSXDIR
 10
1.0
 20
0.0
 30
0.0
  9
$UCSYDIR
 10
0.0
 20
1.0
 30
0.0
  9
$UCSORTHOREF
  2

  9
$UCSORTHOVIEW
 70
0
  9
$UCSORGTOP
 10
0.0
 20
0.0
 30
0.0
  9
$UCSORGBOTTOM
 10
0.0
 20
0.0
 30
0.0
  9
$UCSORGLEFT
 10
0.0
 20
0.0
 30
0.0
  9
$UCSORGRIGHT
 10
0.0
 20
0.0
 30
0.0
  9
$UCSORGFRONT
 10
0.0
 20
0.0
 30
0.0
  9
$UCSORGBACK
 10
0.0
 20
0.0
 30
0.0
  9
$PUCSBASE
  2

  9
$PUCSNAME
  2

  9
$PUCSORG
 10
0.0
 20
0.0
 30
0.0
  9
$PUCSXDIR
 10
1.0
 20
0.0
 30
0.0
  9
$PUCSYDIR
 10
0.0
 20
1.0
 30
0.0
  9
$PUCSORTHOREF
  2

  9
$PUCSORTHOVIEW
 70
0
  9
$PUCSORGTOP
 10
0.0
 20
0.0
 30
0.0
  9
$PUCSORGBOTTOM
 10
0.0
 20
0.0
 30
0.0
  9
$PUCSORGLEFT
 10
0.0
 20
0.0
 30
0.0
  9
$PUCSORGRIGHT
 10
0.0
 20
0.0
 30
0.0
  9
$PUCSORGFRONT
 10
0.0
 20
0.0
 30
0.0
  9
$PUCSORGBACK
 10
0.0
 20
0.0
 30
0.0
  9
$USERI1
 70
0
  9
$USERI2
 70
0
  9
$USERI3
 70
0
  9
$USERI4
 70
0
  9
$USERI5
 70
0
  9
$USERR1
 40
0.0
  9
$USERR2
 40
0.0
  9
$USERR3
 40
0.0
  9
$USERR4
 40
0.0
  9
$USERR5
 40
0.0
  9
$WORLDVIEW
 70
1
  9
$SHADEDGE
 70
3
  9
$SHADEDIF
 70
70
  9
$TILEMODE
 70
1
  9
$MAXACTVP
 70
64
  9
$PINSBASE
 10
0.0
 20
0.0
 30
0.0
  9
$PLIMCHECK
 70
0
  9
$PEXTMIN
 10
1e+20
 20
1e+20
 30
1e+20
  9
$PEXTMAX
 10
-1e+20
 20
-1e+20
 30
-1e+20
  9
$PLIMMIN
 10
0.0
 20
0.0
  9
$PLIMMAX
 10
420.0
 20
297.0
  9
$UNITMODE
 70
0
  9
$VISRETAIN
 70
1
  9
$PLINEGEN
 70
0
  9
$PSLTSCALE
 70
1
  9
$TREEDEPTH
 70
3020
  9
$CMLSTYLE
  2
Standard
  9
$CMLJUST
 70
0
  9
$CMLSCALE
 40
20.0
  9
$PROXYGRAPHICS
 70
1
  9
$MEASUREMENT
 70
1
  9
$CELWEIGHT
370
-1
  9
$ENDCAPS
280
0
  9
$JOINSTYLE
280
0
  9
$LWDISPLAY
290
0
  9
$INSUNITS
 70
6
  9
$HYPERLINKBASE
  1

  9
$STYLESHEET
  1

  9
$XEDIT
290
1
  9
$CEPSNTYPE
380
0
  9
$PSTYLEMODE
290
1
  9
$FINGERPRINTGUID
  2
{C8E3A7D5-9C49-43E1-8867-6261B0863B0C}
  9
$VERSIONGUID
  2
{F10A9E7F-FBE8-4FE9-B5D2-CC8CA1C613A6}
  9
$EXTNAMES
290
1
  9
$PSVPSCALE
 40
0.0
  9
$OLESTARTUP
290
0
  9
$SORTENTS
280
127
  9
$INDEXCTL
280
0
  9
$HIDETEXT
280
1
  9
$XCLIPFRAME
280
1
  9
$HALOGAP
280
0
  9
$OBSCOLOR
 70
257
  9
$OBSLTYPE
280
0
  9
$INTERSECTIONDISPLAY
280
0
  9
$INTERSECTIONCOLOR
 70
257
  9
$DIMASSOC
280
2
  9
$PROJECTNAME
  1

  9
$CAMERADISPLAY
290
0
  9
$LENSLENGTH
 40
50.0
  9
$CAMERAHEIGHT
 40
0.0
  9
$STEPSPERSEC
 40
24.0
  9
$STEPSIZE
 40
100.0
  9
$3DDWFPREC
 40
2.0
  9
$PSOLWIDTH
 40
0.005
  9
$PSOLHEIGHT
 40
0.08
  9
$LOFTANG1
 40
1.570796326795
  9
$LOFTANG2
 40
1.570796326795
  9
$LOFTMAG1
 40
0.0
  9
$LOFTMAG2
 40
0.0
  9
$LOFTPARAM
 70
7
  9
$LOFTNORMALS
280
1
  9
$LATITUDE
 40
37.795
  9
$LONGITUDE
 40
-122.394
  9
$NORTHDIRECTION
 40
0.0
  9
$TIMEZONE
 70
-8000
  9
$LIGHTGLYPHDISPLAY
280
1
  9
$TILEMODELIGHTSYNCH
280
1
  9
$CMATERIAL
347
20
  9
$SOLIDHIST
280
0
  9
$SHOWHIST
280
1
  9
$DWFFRAME
280
2
  9
$DGNFRAME
280
2
  9
$REALWORLDSCALE
290
1
  9
$INTERFERECOLOR
 62
256
  9
$CSHADOW
280
0
  9
$SHADOWPLANELOCATION
 40
0.0
  0
ENDSEC
  0
SECTION
  2
CLASSES
  0
CLASS
  1
ACDBDICTIONARYWDFLT
  2
AcDbDictionaryWithDefault
  3
ObjectDBX Classes
 90
0
 91
0
280
0
281
0
  0
CLASS
  1
SUN
  2
AcDbSun
  3
SCENEOE
 90
1153
 91
0
280
0
281
0
  0
CLASS
  1
VISUALSTYLE
  2
AcDbVisualStyle
  3
ObjectDBX Classes
 90
4095
 91
0
280
0
281
0
  0
CLASS
  1
MATERIAL
  2
AcDbMaterial
  3
ObjectDBX Classes
 90
1153
 91
0
280
0
281
0
  0
CLASS
  1
SCALE
  2
AcDbScale
  3
ObjectDBX Classes
 90
1153
 91
0
280
0
281
0
  0
CLASS
  1
TABLESTYLE
  2
AcDbTableStyle
  3
ObjectDBX Classes
 90
4095
 91
0
280
0
281
0
  0
CLASS
  1
MLEADERSTYLE
  2
AcDbMLeaderStyle
  3
ACDB_MLEADERSTYLE_CLASS
 90
4095
 91
0
280
0
281
0
  0
CLASS
  1
DICTIONARYVAR
  2
AcDbDictionaryVar
  3
ObjectDBX Classes
 90
0
 91
0
280
0
281
0
  0
CLASS
  1
CELLSTYLEMAP
  2
AcDbCellStyleMap
  3
ObjectDBX Classes
 90
1152
 91
0
280
0
281
0
  0
CLASS
  1
MENTALRAYRENDERSETTINGS
  2
AcDbMentalRayRenderSettings
  3
SCENEOE
 90
1024
 91
0
280
0
281
0
  0
CLASS
  1
ACDBDETAILVIEWSTYLE
  2
AcDbDetailViewStyle
  3
ObjectDBX Classes
 90
1025
 91
0
280
0
281
0
  0
CLASS
  1
ACDBSECTIONVIEWSTYLE
  2
AcDbSectionViewStyle
  3
ObjectDBX Classes
 90
1025
 91
0
280
0
281
0
  0
CLASS
  1
RASTERVARIABLES
  2
AcDbRasterVariables
  3
ISM
 90
0
 91
0
280
0
281
0
  0
CLASS
  1
LAYOUT
  2
AcDbLayout
  3
ObjectDBX Classes
 90
0
 91
0
280
0
281
0
  0
CLASS
  1
ACDBPLACEHOLDER
  2
AcDbPlaceHolder
  3
ObjectDBX Classes
 90
0
 91
0
280
0
281
0
  0
ENDSEC
  0
SECTION
  2
TABLES
  0
TABLE
  2
VPORT
  5
8
330
0
100
AcDbSymbolTable
 70
1
  0
VPORT
  5
23
330
8
100
AcDbSymbolTableRecord
100
AcDbViewportTableRecord
  2
*Active
 70
0
 10
0.0
 20
0.0
 11
1.0
 21
1.0
 12
0.0
 22
0.0
 13
0.0
 23
0.0
 14
0.5
 24
0.5
 15
0.5
 25
0.5
 16
0.0
 26
0.0
 36
1.0
 17
0.0
 27
0.0
 37
0.0
 40
1000.0
 41
1.34
 42
50.0
 43
0.0
 44
0.0
 50
0.0
 51
0.0
 71
0
 72
1000
 73
1
 74
3
 75
0
 76
0
 77
0
 78
0
281
0
 65
0
146
0.0
  0
ENDTAB
  0
TABLE
  2
LTYPE
  5
2
330
0
100
AcDbSymbolTable
 70
3
  0
LTYPE
  5
24
330
2
100
AcDbSymbolTableRecord
100
AcDbLinetypeTableRecord
  2
ByBlock
 70
0
  3

 72
65
 73
0
 40
0.0
  0
LTYPE
  5
25
330
2
100
AcDbSymbolTableRecord
100
AcDbLinetypeTableRecord
  2
ByLayer
 70
0
  3

 72
65
 73
0
 40
0.0
  0
LTYPE
  5
26
330
2
100
AcDbSymbolTableRecord
100
AcDbLinetypeTableRecord
  2
Continuous
 70
0
  3

 72
65
 73
0
 40
0.0
  0
ENDTAB
  0
TABLE
  2
LAYER
  5
1
330
0
100
AcDbSymbolTable
 70
5
  0
LAYER
  5
27
330
1
100
AcDbSymbolTableRecord
100
AcDbLayerTableRecord
  2
0
 70
0
 62
7
  6
Continuous
370
-3
390
13
347
21
  0
LAYER
  5
28
330
1
100
AcDbSymbolTableRecord
100
AcDbLayerTableRecord
  2
Defpoints
 70
0
 62
7
  6
Continuous
290
0
370
-3
390
13
347
21
  0
LAYER
  5
2F
330
1
100
AcDbSymbolTableRecord
100
AcDbLayerTableRecord
  2
FILL_WHITE_FFFFFF
 70
0
 62
7
420
16777215
  6
Continuous
370
-3
390
13
347
21
  0
LAYER
  5
32
330
1
100
AcDbSymbolTableRecord
100
AcDbLayerTableRecord
  2
FILL_BLUE_0000FF
 70
0
 62
7
420
255
  6
Continuous
370
-3
390
13
347
21
  0
LAYER
  5
50
330
1
100
AcDbSymbolTableRecord
100
AcDbLayerTableRecord
  2
STROKE_BLUE_0000FF
 70
0
 62
7
420
255
  6
Continuous
370
-3
390
13
347
21
  0
ENDTAB
  0
TABLE
  2
STYLE
  5
5
330
0
100
AcDbSymbolTable
 70
1
  0
STYLE
  5
29
330
5
100
AcDbSymbolTableRecord
100
AcDbTextStyleTableRecord
  2
Standard
 70
0
 40
0.0
 41
1.0
 50
0.0
 71
0
 42
2.5
  3
txt
  4

  0
ENDTAB
  0
TABLE
  2
VIEW
  5
7
330
0
100
AcDbSymbolTable
 70
0
  0
ENDTAB
  0
TABLE
  2
UCS
  5
6
330
0
100
AcDbSymbolTable
 70
0
  0
ENDTAB
  0
TABLE
  2
APPID
  5
3
330
0
100
AcDbSymbolTable
 70
3
  0
APPID
  5
2A
330
3
100
AcDbSymbolTableRecord
100
AcDbRegAppTableRecord
  2
ACAD
 70
0
  0
APPID
  5
59
330
3
100
AcDbSymbolTableRecord
100
AcDbRegAppTableRecord
  2
HATCHBACKGROUNDCOLOR
 70
0
  0
APPID
  5
5A
330
3
100
AcDbSymbolTableRecord
100
AcDbRegAppTableRecord
  2
EZDXF
 70
0
  0
ENDTAB
  0
TABLE
  2
DIMSTYLE
  5
4
330
0
100
AcDbSymbolTable
 70
1
100
AcDbDimStyleTable
  0
DIMSTYLE
105
2B
330
4
100
AcDbSymbolTableRecord
100
AcDbDimStyleTableRecord
  2
Standard
 70
0
 40
1.0
 41
2.5
 42
0.625
 43
3.75
 44
1.25
 45
0.0
 46
0.0
 47
0.0
 48
0.0
 49
2.5
140
2.5
141
2.5
142
0.0
143
0.03937007874
144
1.0
145
0.0
146
1.0
147
0.625
148
0.0
 69
0
 70
0
 71
0
 72
0
 73
0
 74
0
 75
0
 76
0
 77
1
 78
8
 79
3
170
0
171
3
172
1
173
0
174
0
175
0
176
0
177
0
178
0
179
2
271
2
272
2
273
2
274
3
275
0
276
0
277
2
278
44
279
0
280
0
281
0
282
0
283
0
284
8
285
0
286
0
288
0
289
3
290
0
371
-2
372
-2
  0
ENDTAB
  0
TABLE
  2
BLOCK_RECORD
  5
9
330
0
100
AcDbSymbolTable
 70
2
  0
BLOCK_RECORD
  5
17
330
9
100
AcDbSymbolTableRecord
100
AcDbBlockTableRecord
  2
*Model_Space
340
1A
 70
0
280
1
281
0
  0
BLOCK_RECORD
  5
1B
330
9
100
AcDbSymbolTableRecord
100
AcDbBlockTableRecord
  2
*Paper_Space
340
1E
 70
0
280
1
281
0
  0
ENDTAB
  0
ENDSEC
  0
SECTION
  2
BLOCKS
  0
BLOCK
  5
18
330
17
100
AcDbEntity
  8
0
100
AcDbBlockBegin
  2
*Model_Space
 70
0
 10
0.0
 20
0.0
 30
0.0
  3
*Model_Space
  1

  0
ENDBLK
  5
19
330
17
100
AcDbEntity
  8
0
100
AcDbBlockEnd
  0
BLOCK
  5
1C
330
1B
100
AcDbEntity
  8
0
100
AcDbBlockBegin
  2
*Paper_Space
 70
0
 10
0.0
 20
0.0
 30
0.0
  3
*Paper_Space
  1

  0
ENDBLK
  5
1D
330
1B
100
AcDbEntity
  8
0
100
AcDbBlockEnd
  0
ENDSEC
  0
SECTION
  2
ENTITIES
  0
HATCH
  5
30
330
17
100
AcDbEntity
  8
FILL_WHITE_FFFFFF
 62
7
420
16777215
100
AcDbHatch
 10
0.0
 20
0.0
 30
0.0
210
0.0
220
0.0
230
1.0
  2
SOLID
 70
1
 71
0
 91
1
 92
3
 72
0
 73
1
 93
69
 10
91.26
 20
9.0
 10
89.47
 20
9.07
 10
87.64
 20
9.32
 10
85.77
 20
9.76
 10
83.88
 20
10.44
 10
82.0
 20
11.24
 10
80.17
 20
12.29
 10
78.44
 20
13.53
 10
76.86
 20
14.94
 10
75.47
 20
16.49
 10
74.27
 20
18.16
 10
73.24
 20
19.93
 10
72.36
 20
21.78
 10
71.76
 20
23.67
 10
71.3
 20
25.56
 10
71.02
 20
27.45
 10
70.92
 20
29.34
 10
70.92
 20
242.64
 10
71.02
 20
244.53
 10
71.3
 20
246.42
 10
71.76
 20
248.31
 10
72.36
 20
250.2
 10
73.24
 20
252.05
 10
74.27
 20
253.82
 10
75.47
 20
255.49
 10
76.86
 20
257.04
 10
78.41
 20
258.45
 10
80.1
 20
259.7
 10
81.92
 20
260.74
 10
83.88
 20
261.54
 10
85.77
 20
262.22
 10
87.64
 20
262.67
 10
89.47
 20
262.91
 10
91.26
 20
262.98
 10
478.44
 20
262.98
 10
480.33
 20
262.91
 10
482.22
 20
262.67
 10
484.11
 20
262.22
 10
486.0
 20
261.54
 10
487.85
 20
260.74
 10
489.62
 20
259.7
 10
491.29
 20
258.45
 10
492.84
 20
257.04
 10
494.25
 20
255.49
 10
495.49
 20
253.82
 10
496.54
 20
252.05
 10
497.34
 20
250.2
 10
498.02
 20
248.31
 10
498.46
 20
246.42
 10
498.71
 20
244.53
 10
498.78
 20
242.64
 10
498.78
 20
29.34
 10
498.71
 20
27.45
 10
498.46
 20
25.56
 10
498.02
 20
23.67
 10
497.34
 20
21.78
 10
496.54
 20
19.93
 10
495.49
 20
18.16
 10
494.25
 20
16.49
 10
492.84
 20
14.94
 10
491.29
 20
13.53
 10
489.62
 20
12.29
 10
487.85
 20
11.24
 10
486.0
 20
10.44
 10
484.11
 20
9.76
 10
482.22
 20
9.32
 10
480.33
 20
9.07
 10
478.44
 20
9.0
 10
91.26
 20
9.0
 97
0
 75
1
 76
1
 98
0
  0
LWPOLYLINE
  5
31
330
17
100
AcDbEntity
  8
FILL_WHITE_FFFFFF
370
0
420
16777215
100
AcDbPolyline
 90
68
 70
1
 10
91.26
 20
9.0
 10
89.47
 20
9.07
 10
87.64
 20
9.32
 10
85.77
 20
9.76
 10
83.88
 20
10.44
 10
82.0
 20
11.24
 10
80.17
 20
12.29
 10
78.44
 20
13.53
 10
76.86
 20
14.94
 10
75.47
 20
16.49
 10
74.27
 20
18.16
 10
73.24
 20
19.93
 10
72.36
 20
21.78
 10
71.76
 20
23.67
 10
71.3
 20
25.56
 10
71.02
 20
27.45
 10
70.92
 20
29.34
 10
70.92
 20
242.64
 10
71.02
 20
244.53
 10
71.3
 20
246.42
 10
71.76
 20
248.31
 10
72.36
 20
250.2
 10
73.24
 20
252.05
 10
74.27
 20
253.82
 10
75.47
 20
255.49
 10
76.86
 20
257.04
 10
78.41
 20
258.45
 10
80.1
 20
259.7
 10
81.92
 20
260.74
 10
83.88
 20
261.54
 10
85.77
 20
262.22
 10
87.64
 20
262.67
 10
89.47
 20
262.91
 10
91.26
 20
262.98
 10
478.44
 20
262.98
 10
480.33
 20
262.91
 10
482.22
 20
262.67
 10
484.11
 20
262.22
 10
486.0
 20
261.54
 10
487.85
 20
260.74
 10
489.62
 20
259.7
 10
491.29
 20
258.45
 10
492.84
 20
257.04
 10
494.25
 20
255.49
 10
495.49
 20
253.82
 10
496.54
 20
252.05
 10
497.34
 20
250.2
 10
498.02
 20
248.31
 10
498.46
 20
246.42
 10
498.71
 20
244.53
 10
498.78
 20
242.64
 10
498.78
 20
29.34
 10
498.71
 20
27.45
 10
498.46
 20
25.56
 10
498.02
 20
23.67
 10
497.34
 20
21.78
 10
496.54
 20
19.93
 10
495.49
 20
18.16
 10
494.25
 20
16.49
 10
492.84
 20
14.94
 10
491.29
 20
13.53
 10
489.62
 20
12.29
 10
487.85
 20
11.24
 10
486.0
 20
10.44
 10
484.11
 20
9.76
 10
482.22
 20
9.32
 10
480.33
 20
9.07
 10
478.44
 20
9.0
  0
HATCH
  5
33
330
17
100
AcDbEntity
  8
FILL_BLUE_0000FF
 62
7
420
255
100
AcDbHatch
 10
0.0
 20
0.0
 30
0.0
210
0.0
220
0.0
230
1.0
  2
SOLID
 70
1
 71
0
 91
1
 92
3
 72
0
 73
1
 93
54
 10
479.38
 20
252.84
 10
480.33
 20
252.68
 10
482.22
 20
252.18
 10
484.06
 20
251.21
 10
484.9
 20
250.59
 10
485.64
 20
249.84
 10
486.39
 20
249.03
 10
487.01
 20
248.2
 10
487.98
 20
246.42
 10
488.47
 20
244.53
 10
488.64
 20
243.59
 10
488.7
 20
242.64
 10
488.7
 20
29.34
 10
488.64
 20
28.4
 10
488.47
 20
27.45
 10
487.98
 20
25.56
 10
487.01
 20
23.72
 10
486.39
 20
22.88
 10
485.64
 20
22.14
 10
484.9
 20
21.39
 10
484.06
 20
20.77
 10
482.22
 20
19.8
 10
481.27
 20
19.46
 10
480.33
 20
19.24
 10
478.44
 20
19.08
 10
91.26
 20
19.08
 10
89.37
 20
19.24
 10
88.42
 20
19.46
 10
87.48
 20
19.8
 10
85.7
 20
20.77
 10
84.87
 20
21.39
 10
84.06
 20
22.14
 10
83.39
 20
22.88
 10
82.78
 20
23.72
 10
82.26
 20
24.62
 10
81.9
 20
25.56
 10
81.56
 20
26.51
 10
81.34
 20
27.45
 10
81.18
 20
29.34
 10
81.18
 20
242.64
 10
81.34
 20
244.53
 10
81.56
 20
245.48
 10
81.9
 20
246.42
 10
82.26
 20
247.33
 10
82.78
 20
248.2
 10
84.06
 20
249.84
 10
84.87
 20
250.59
 10
85.7
 20
251.21
 10
87.48
 20
252.18
 10
89.37
 20
252.68
 10
90.31
 20
252.84
 10
91.26
 20
252.9
 10
478.44
 20
252.9
 10
479.38
 20
252.84
 97
0
 75
1
 76
1
 98
0
  0
LWPOLYLINE
  5
34
330
17
100
AcDbEntity
  8
FILL_BLUE_0000FF
370
0
420
255
100
AcDbPolyline
 90
53
 70
1
 10
479.38
 20
252.84
 10
480.33
 20
252.68
 10
482.22
 20
252.18
 10
484.06
 20
251.21
 10
484.9
 20
250.59
 10
485.64
 20
249.84
 10
486.39
 20
249.03
 10
487.01
 20
248.2
 10
487.98
 20
246.42
 10
488.47
 20
244.53
 10
488.64
 20
243.59
 10
488.7
 20
242.64
 10
488.7
 20
29.34
 10
488.64
 20
28.4
 10
488.47
 20
27.45
 10
487.98
 20
25.56
 10
487.01
 20
23.72
 10
486.39
 20
22.88
 10
485.64
 20
22.14
 10
484.9
 20
21.39
 10
484.06
 20
20.77
 10
482.22
 20
19.8
 10
481.27
 20
19.46
 10
480.33
 20
19.24
 10
478.44
 20
19.08
 10
91.26
 20
19.08
 10
89.37
 20
19.24
 10
88.42
 20
19.46
 10
87.48
 20
19.8
 10
85.7
 20
20.77
 10
84.87
 20
21.39
 10
84.06
 20
22.14
 10
83.39
 20
22.88
 10
82.78
 20
23.72
 10
82.26
 20
24.62
 10
81.9
 20
25.56
 10
81.56
 20
26.51
 10
81.34
 20
27.45
 10
81.18
 20
29.34
 10
81.18
 20
242.64
 10
81.34
 20
244.53
 10
81.56
 20
245.48
 10
81.9
 20
246.42
 10
82.26
 20
247.33
 10
82.78
 20
248.2
 10
84.06
 20
249.84
 10
84.87
 20
250.59
 10
85.7
 20
251.21
 10
87.48
 20
252.18
 10
89.37
 20
252.68
 10
90.31
 20
252.84
 10
91.26
 20
252.9
 10
478.44
 20
252.9
  0
HATCH
  5
35
330
17
100
AcDbEntity
  8
FILL_WHITE_FFFFFF
 62
7
420
16777215
100
AcDbHatch
 10
0.0
 20
0.0
 30
0.0
210
0.0
220
0.0
230
1.0
  2
SOLID
 70
1
 71
0
 91
14
 92
3
 72
0
 73
1
 93
84
 10
416.16
 20
180.18
 10
415.21
 20
180.12
 10
414.27
 20
179.96
 10
412.38
 20
179.46
 10
411.47
 20
178.99
 10
410.6
 20
178.43
 10
408.96
 20
177.12
 10
407.74
 20
175.48
 10
406.8
 20
173.7
 10
406.46
 20
172.76
 10
406.24
 20
171.81
 10
406.08
 20
169.92
 10
406.08
 20
168.12
 10
368.1
 20
168.12
 10
368.1
 20
169.92
 10
367.94
 20
171.81
 10
367.72
 20
172.76
 10
367.38
 20
173.7
 10
366.43
 20
175.48
 10
365.22
 20
177.12
 10
363.58
 20
178.43
 10
362.71
 20
178.99
 10
361.8
 20
179.46
 10
359.91
 20
179.96
 10
358.96
 20
180.12
 10
358.02
 20
180.18
 10
357.07
 20
180.12
 10
356.13
 20
179.96
 10
354.24
 20
179.46
 10
353.33
 20
178.99
 10
352.46
 20
178.43
 10
350.82
 20
177.12
 10
349.6
 20
175.48
 10
348.66
 20
173.7
 10
348.32
 20
172.76
 10
348.1
 20
171.81
 10
347.94
 20
169.92
 10
347.94
 20
168.12
 10
321.84
 20
168.12
 10
321.14
 20
168.19
 10
320.42
 20
168.39
 10
319.74
 20
168.73
 10
319.14
 20
169.2
 10
318.56
 20
169.9
 10
318.17
 20
170.64
 10
317.95
 20
171.38
 10
317.88
 20
172.08
 10
317.88
 20
180.9
 10
317.99
 20
182.07
 10
318.24
 20
183.24
 10
321.66
 20
194.22
 10
324.72
 20
226.62
 10
325.15
 20
227.95
 10
325.5
 20
228.57
 10
325.98
 20
229.14
 10
326.65
 20
229.61
 10
327.33
 20
229.95
 10
328.0
 20
230.15
 10
328.68
 20
230.22
 10
454.32
 20
230.22
 10
455.8
 20
230.08
 10
457.24
 20
229.66
 10
458.62
 20
228.93
 10
459.9
 20
227.88
 10
460.51
 20
227.28
 10
461.0
 20
226.6
 10
461.7
 20
225.18
 10
462.1
 20
223.65
 10
462.24
 20
222.12
 10
462.24
 20
174.06
 10
433.08
 20
168.12
 10
426.24
 20
168.12
 10
426.24
 20
169.92
 10
426.08
 20
171.81
 10
425.86
 20
172.76
 10
425.52
 20
173.7
 10
424.57
 20
175.48
 10
423.36
 20
177.12
 10
421.72
 20
178.43
 10
420.85
 20
178.99
 10
419.94
 20
179.46
 10
418.05
 20
179.96
 10
417.1
 20
180.12
 10
416.16
 20
180.18
 97
0
 92
18
 72
0
 73
1
 93
5
 10
458.28
 20
190.08
 10
458.28
 20
202.14
 10
438.3
 20
202.14
 10
438.3
 20
190.08
 10
458.28
 20
190.08
 97
0
 92
18
 72
0
 73
1
 93
5
 10
416.16
 20
190.08
 10
434.16
 20
190.08
 10
434.16
 20
202.14
 10
416.16
 20
202.14
 10
416.16
 20
190.08
 97
0
 92
18
 72
0
 73
1
 93
5
 10
394.02
 20
202.14
 10
394.02
 20
190.08
 10
412.2
 20
190.08
 10
412.2
 20
202.14
 10
394.02
 20
202.14
 97
0
 92
18
 72
0
 73
1
 93
5
 10
390.06
 20
202.14
 10
372.06
 20
202.14
 10
372.06
 20
190.08
 10
390.06
 20
190.08
 10
390.06
 20
202.14
 97
0
 92
18
 72
0
 73
1
 93
5
 10
368.1
 20
190.08
 10
368.1
 20
202.14
 10
349.92
 20
202.14
 10
349.92
 20
190.08
 10
368.1
 20
190.08
 97
0
 92
18
 72
0
 73
1
 93
5
 10
333.9
 20
172.08
 10
345.96
 20
172.08
 10
345.96
 20
202.14
 10
333.9
 20
202.14
 10
333.9
 20
172.08
 97
0
 92
18
 72
0
 73
1
 93
5
 10
323.46
 20
192.06
 10
329.94
 20
192.06
 10
329.94
 20
202.14
 10
324.36
 20
202.14
 10
323.46
 20
192.06
 97
0
 92
18
 72
0
 73
1
 93
5
 10
328.68
 20
226.26
 10
327.6
 20
214.2
 10
345.96
 20
214.2
 10
345.96
 20
226.26
 10
328.68
 20
226.26
 97
0
 92
18
 72
0
 73
1
 93
5
 10
368.1
 20
214.2
 10
368.1
 20
226.26
 10
349.92
 20
226.26
 10
349.92
 20
214.2
 10
368.1
 20
214.2
 97
0
 92
18
 72
0
 73
1
 93
5
 10
372.06
 20
214.2
 10
390.06
 20
214.2
 10
390.06
 20
226.26
 10
372.06
 20
226.26
 10
372.06
 20
214.2
 97
0
 92
18
 72
0
 73
1
 93
5
 10
394.02
 20
226.26
 10
394.02
 20
214.2
 10
412.2
 20
214.2
 10
412.2
 20
226.26
 10
394.02
 20
226.26
 97
0
 92
18
 72
0
 73
1
 93
5
 10
416.16
 20
214.2
 10
434.16
 20
214.2
 10
434.16
 20
226.26
 10
416.16
 20
226.26
 10
416.16
 20
214.2
 97
0
 92
18
 72
0
 73
1
 93
13
 10
458.28
 20
222.12
 10
458.2
 20
222.97
 10
457.96
 20
223.75
 10
457.6
 20
224.46
 10
457.11
 20
225.07
 10
456.52
 20
225.57
 10
455.85
 20
225.94
 10
455.11
 20
226.18
 10
454.32
 20
226.26
 10
438.3
 20
226.26
 10
438.3
 20
214.2
 10
458.28
 20
214.2
 10
458.28
 20
222.12
 97
0
 75
1
 76
1
 98
0
  0
LWPOLYLINE
  5
36
330
17
100
AcDbEntity
  8
FILL_WHITE_FFFFFF
370
0
420
16777215
100
AcDbPolyline
 90
83
 70
1
 10
416.16
 20
180.18
 10
415.21
 20
180.12
 10
414.27
 20
179.96
 10
412.38
 20
179.46
 10
411.47
 20
178.99
 10
410.6
 20
178.43
 10
408.96
 20
177.12
 10
407.74
 20
175.48
 10
406.8
 20
173.7
 10
406.46
 20
172.76
 10
406.24
 20
171.81
 10
406.08
 20
169.92
 10
406.08
 20
168.12
 10
368.1
 20
168.12
 10
368.1
 20
169.92
 10
367.94
 20
171.81
 10
367.72
 20
172.76
 10
367.38
 20
173.7
 10
366.43
 20
175.48
 10
365.22
 20
177.12
 10
363.58
 20
178.43
 10
362.71
 20
178.99
 10
361.8
 20
179.46
 10
359.91
 20
179.96
 10
358.96
 20
180.12
 10
358.02
 20
180.18
 10
357.07
 20
180.12
 10
356.13
 20
179.96
 10
354.24
 20
179.46
 10
353.33
 20
178.99
 10
352.46
 20
178.43
 10
350.82
 20
177.12
 10
349.6
 20
175.48
 10
348.66
 20
173.7
 10
348.32
 20
172.76
 10
348.1
 20
171.81
 10
347.94
 20
169.92
 10
347.94
 20
168.12
 10
321.84
 20
168.12
 10
321.14
 20
168.19
 10
320.42
 20
168.39
 10
319.74
 20
168.73
 10
319.14
 20
169.2
 10
318.56
 20
169.9
 10
318.17
 20
170.64
 10
317.95
 20
171.38
 10
317.88
 20
172.08
 10
317.88
 20
180.9
 10
317.99
 20
182.07
 10
318.24
 20
183.24
 10
321.66
 20
194.22
 10
324.72
 20
226.62
 10
325.15
 20
227.95
 10
325.5
 20
228.57
 10
325.98
 20
229.14
 10
326.65
 20
229.61
 10
327.33
 20
229.95
 10
328.0
 20
230.15
 10
328.68
 20
230.22
 10
454.32
 20
230.22
 10
455.8
 20
230.08
 10
457.24
 20
229.66
 10
458.62
 20
228.93
 10
459.9
 20
227.88
 10
460.51
 20
227.28
 10
461.0
 20
226.6
 10
461.7
 20
225.18
 10
462.1
 20
223.65
 10
462.24
 20
222.12
 10
462.24
 20
174.06
 10
433.08
 20
168.12
 10
426.24
 20
168.12
 10
426.24
 20
169.92
 10
426.08
 20
171.81
 10
425.86
 20
172.76
 10
425.52
 20
173.7
 10
424.57
 20
175.48
 10
423.36
 20
177.12
 10
421.72
 20
178.43
 10
420.85
 20
178.99
 10
419.94
 20
179.46
 10
418.05
 20
179.96
 10
417.1
 20
180.12
  0
LWPOLYLINE
  5
37
330
17
100
AcDbEntity
  8
FILL_WHITE_FFFFFF
370
0
420
16777215
100
AcDbPolyline
 90
4
 70
1
 10
458.28
 20
190.08
 10
458.28
 20
202.14
 10
438.3
 20
202.14
 10
438.3
 20
190.08
  0
LWPOLYLINE
  5
38
330
17
100
AcDbEntity
  8
FILL_WHITE_FFFFFF
370
0
420
16777215
100
AcDbPolyline
 90
4
 70
1
 10
416.16
 20
190.08
 10
434.16
 20
190.08
 10
434.16
 20
202.14
 10
416.16
 20
202.14
  0
LWPOLYLINE
  5
39
330
17
100
AcDbEntity
  8
FILL_WHITE_FFFFFF
370
0
420
16777215
100
AcDbPolyline
 90
4
 70
1
 10
394.02
 20
202.14
 10
394.02
 20
190.08
 10
412.2
 20
190.08
 10
412.2
 20
202.14
  0
LWPOLYLINE
  5
3A
330
17
100
AcDbEntity
  8
FILL_WHITE_FFFFFF
370
0
420
16777215
100
AcDbPolyline
 90
4
 70
1
 10
390.06
 20
202.14
 10
372.06
 20
202.14
 10
372.06
 20
190.08
 10
390.06
 20
190.08
  0
LWPOLYLINE
  5
3B
330
17
100
AcDbEntity
  8
FILL_WHITE_FFFFFF
370
0
420
16777215
100
AcDbPolyline
 90
4
 70
1
 10
368.1
 20
190.08
 10
368.1
 20
202.14
 10
349.92
 20
202.14
 10
349.92
 20
190.08
  0
LWPOLYLINE
  5
3C
330
17
100
AcDbEntity
  8
FILL_WHITE_FFFFFF
370
0
420
16777215
100
AcDbPolyline
 90
4
 70
1
 10
333.9
 20
172.08
 10
345.96
 20
172.08
 10
345.96
 20
202.14
 10
333.9
 20
202.14
  0
LWPOLYLINE
  5
3D
330
17
100
AcDbEntity
  8
FILL_WHITE_FFFFFF
370
0
420
16777215
100
AcDbPolyline
 90
4
 70
1
 10
323.46
 20
192.06
 10
329.94
 20
192.06
 10
329.94
 20
202.14
 10
324.36
 20
202.14
  0
LWPOLYLINE
  5
3E
330
17
100
AcDbEntity
  8
FILL_WHITE_FFFFFF
370
0
420
16777215
100
AcDbPolyline
 90
4
 70
1
 10
328.68
 20
226.26
 10
327.6
 20
214.2
 10
345.96
 20
214.2
 10
345.96
 20
226.26
  0
LWPOLYLINE
  5
3F
330
17
100
AcDbEntity
  8
FILL_WHITE_FFFFFF
370
0
420
16777215
100
AcDbPolyline
 90
4
 70
1
 10
368.1
 20
214.2
 10
368.1
 20
226.26
 10
349.92
 20
226.26
 10
349.92
 20
214.2
  0
LWPOLYLINE
  5
40
330
17
100
AcDbEntity
  8
FILL_WHITE_FFFFFF
370
0
420
16777215
100
AcDbPolyline
 90
4
 70
1
 10
372.06
 20
214.2
 10
390.06
 20
214.2
 10
390.06
 20
226.26
 10
372.06
 20
226.26
  0
LWPOLYLINE
  5
41
330
17
100
AcDbEntity
  8
FILL_WHITE_FFFFFF
370
0
420
16777215
100
AcDbPolyline
 90
4
 70
1
 10
394.02
 20
226.26
 10
394.02
 20
214.2
 10
412.2
 20
214.2
 10
412.2
 20
226.26
  0
LWPOLYLINE
  5
42
330
17
100
AcDbEntity
  8
FILL_WHITE_FFFFFF
370
0
420
16777215
100
AcDbPolyline
 90
4
 70
1
 10
416.16
 20
214.2
 10
434.16
 20
214.2
 10
434.16
 20
226.26
 10
416.16
 20
226.26
  0
LWPOLYLINE
  5
43
330
17
100
AcDbEntity
  8
FILL_WHITE_FFFFFF
370
0
420
16777215
100
AcDbPolyline
 90
12
 70
1
 10
458.28
 20
222.12
 10
458.2
 20
222.97
 10
457.96
 20
223.75
 10
457.6
 20
224.46
 10
457.11
 20
225.07
 10
456.52
 20
225.57
 10
455.85
 20
225.94
 10
455.11
 20
226.18
 10
454.32
 20
226.26
 10
438.3
 20
226.26
 10
438.3
 20
214.2
 10
458.28
 20
214.2
  0
HATCH
  5
44
330
17
100
AcDbEntity
  8
FILL_WHITE_FFFFFF
 62
7
420
16777215
100
AcDbHatch
 10
0.0
 20
0.0
 30
0.0
210
0.0
220
0.0
230
1.0
  2
SOLID
 70
1
 71
0
 91
2
 92
3
 72
0
 73
1
 93
33
 10
423.63
 20
167.02
 10
422.89
 20
165.62
 10
421.92
 20
164.34
 10
420.64
 20
163.37
 10
419.24
 20
162.63
 10
417.74
 20
162.16
 10
416.16
 20
162.0
 10
414.58
 20
162.16
 10
413.1
 20
162.63
 10
411.76
 20
163.37
 10
410.58
 20
164.34
 10
409.5
 20
165.62
 10
408.71
 20
167.02
 10
408.23
 20
168.52
 10
408.06
 20
170.1
 10
408.23
 20
171.68
 10
408.71
 20
173.16
 10
409.5
 20
174.5
 10
410.58
 20
175.68
 10
411.76
 20
176.73
 10
413.1
 20
177.46
 10
414.58
 20
177.88
 10
416.16
 20
178.02
 10
417.74
 20
177.88
 10
419.24
 20
177.46
 10
420.64
 20
176.73
 10
421.92
 20
175.68
 10
422.89
 20
174.5
 10
423.63
 20
173.16
 10
424.1
 20
171.68
 10
424.26
 20
170.1
 10
424.1
 20
168.52
 10
423.63
 20
167.02
 97
0
 92
18
 72
0
 73
1
 93
33
 10
419.8
 20
171.63
 10
419.44
 20
172.3
 10
418.95
 20
172.89
 10
418.36
 20
173.38
 10
417.69
 20
173.75
 10
416.95
 20
173.98
 10
416.16
 20
174.06
 10
415.46
 20
173.99
 10
414.72
 20
173.79
 10
413.98
 20
173.45
 10
413.28
 20
172.98
 10
412.81
 20
172.28
 10
412.47
 20
171.54
 10
412.27
 20
170.8
 10
412.2
 20
170.1
 10
412.27
 20
169.32
 10
412.47
 20
168.59
 10
412.81
 20
167.9
 10
413.28
 20
167.22
 10
413.98
 20
166.75
 10
414.72
 20
166.41
 10
415.46
 20
166.21
 10
416.16
 20
166.14
 10
416.95
 20
166.21
 10
417.69
 20
166.43
 10
418.36
 20
166.78
 10
418.95
 20
167.24
 10
419.44
 20
167.82
 10
419.8
 20
168.49
 10
420.04
 20
169.26
 10
420.12
 20
170.1
 10
420.04
 20
170.89
 10
419.8
 20
171.63
 97
0
 75
1
 76
1
 98
0
  0
LWPOLYLINE
  5
45
330
17
100
AcDbEntity
  8
FILL_WHITE_FFFFFF
370
0
420
16777215
100
AcDbPolyline
 90
32
 70
1
 10
423.63
 20
167.02
 10
422.89
 20
165.62
 10
421.92
 20
164.34
 10
420.64
 20
163.37
 10
419.24
 20
162.63
 10
417.74
 20
162.16
 10
416.16
 20
162.0
 10
414.58
 20
162.16
 10
413.1
 20
162.63
 10
411.76
 20
163.37
 10
410.58
 20
164.34
 10
409.5
 20
165.62
 10
408.71
 20
167.02
 10
408.23
 20
168.52
 10
408.06
 20
170.1
 10
408.23
 20
171.68
 10
408.71
 20
173.16
 10
409.5
 20
174.5
 10
410.58
 20
175.68
 10
411.76
 20
176.73
 10
413.1
 20
177.46
 10
414.58
 20
177.88
 10
416.16
 20
178.02
 10
417.74
 20
177.88
 10
419.24
 20
177.46
 10
420.64
 20
176.73
 10
421.92
 20
175.68
 10
422.89
 20
174.5
 10
423.63
 20
173.16
 10
424.1
 20
171.68
 10
424.26
 20
170.1
 10
424.1
 20
168.52
  0
LWPOLYLINE
  5
46
330
17
100
AcDbEntity
  8
FILL_WHITE_FFFFFF
370
0
420
16777215
100
AcDbPolyline
 90
32
 70
1
 10
419.8
 20
171.63
 10
419.44
 20
172.3
 10
418.95
 20
172.89
 10
418.36
 20
173.38
 10
417.69
 20
173.75
 10
416.95
 20
173.98
 10
416.16
 20
174.06
 10
415.46
 20
173.99
 10
414.72
 20
173.79
 10
413.98
 20
173.45
 10
413.28
 20
172.98
 10
412.81
 20
172.28
 10
412.47
 20
171.54
 10
412.27
 20
170.8
 10
412.2
 20
170.1
 10
412.27
 20
169.32
 10
412.47
 20
168.59
 10
412.81
 20
167.9
 10
413.28
 20
167.22
 10
413.98
 20
166.75
 10
414.72
 20
166.41
 10
415.46
 20
166.21
 10
416.16
 20
166.14
 10
416.95
 20
166.21
 10
417.69
 20
166.43
 10
418.36
 20
166.78
 10
418.95
 20
167.24
 10
419.44
 20
167.82
 10
419.8
 20
168.49
 10
420.04
 20
169.26
 10
420.12
 20
170.1
 10
420.04
 20
170.89
  0
HATCH
  5
47
330
17
100
AcDbEntity
  8
FILL_WHITE_FFFFFF
 62
7
420
16777215
100
AcDbHatch
 10
0.0
 20
0.0
 30
0.0
210
0.0
220
0.0
230
1.0
  2
SOLID
 70
1
 71
0
 91
2
 92
3
 72
0
 73
1
 93
33
 10
365.47
 20
167.02
 10
364.68
 20
165.62
 10
363.6
 20
164.34
 10
362.42
 20
163.37
 10
361.08
 20
162.63
 10
359.6
 20
162.16
 10
358.02
 20
162.0
 10
356.44
 20
162.16
 10
354.94
 20
162.63
 10
353.54
 20
163.37
 10
352.26
 20
164.34
 10
351.29
 20
165.62
 10
350.55
 20
167.02
 10
350.08
 20
168.52
 10
349.92
 20
170.1
 10
350.08
 20
171.68
 10
350.55
 20
173.16
 10
351.29
 20
174.5
 10
352.26
 20
175.68
 10
353.54
 20
176.73
 10
354.94
 20
177.46
 10
356.44
 20
177.88
 10
358.02
 20
178.02
 10
359.6
 20
177.88
 10
361.08
 20
177.46
 10
362.42
 20
176.73
 10
363.6
 20
175.68
 10
364.68
 20
174.5
 10
365.47
 20
173.16
 10
365.95
 20
171.68
 10
366.12
 20
170.1
 10
365.95
 20
168.52
 10
365.47
 20
167.02
 97
0
 92
18
 72
0
 73
1
 93
33
 10
361.66
 20
171.63
 10
361.3
 20
172.3
 10
360.81
 20
172.89
 10
360.22
 20
173.38
 10
359.55
 20
173.75
 10
358.81
 20
173.98
 10
358.02
 20
174.06
 10
357.32
 20
173.99
 10
356.58
 20
173.79
 10
355.84
 20
173.45
 10
355.14
 20
172.98
 10
354.67
 20
172.28
 10
354.33
 20
171.54
 10
354.13
 20
170.8
 10
354.06
 20
170.1
 10
354.13
 20
169.32
 10
354.33
 20
168.59
 10
354.67
 20
167.9
 10
355.14
 20
167.22
 10
355.84
 20
166.75
 10
356.58
 20
166.41
 10
357.32
 20
166.21
 10
358.02
 20
166.14
 10
358.81
 20
166.21
 10
359.55
 20
166.43
 10
360.22
 20
166.78
 10
360.81
 20
167.24
 10
361.3
 20
167.82
 10
361.66
 20
168.49
 10
361.9
 20
169.26
 10
361.98
 20
170.1
 10
361.9
 20
170.89
 10
361.66
 20
171.63
 97
0
 75
1
 76
1
 98
0
  0
LWPOLYLINE
  5
48
330
17
100
AcDbEntity
  8
FILL_WHITE_FFFFFF
370
0
420
16777215
100
AcDbPolyline
 90
32
 70
1
 10
365.47
 20
167.02
 10
364.68
 20
165.62
 10
363.6
 20
164.34
 10
362.42
 20
163.37
 10
361.08
 20
162.63
 10
359.6
 20
162.16
 10
358.02
 20
162.0
 10
356.44
 20
162.16
 10
354.94
 20
162.63
 10
353.54
 20
163.37
 10
352.26
 20
164.34
 10
351.29
 20
165.62
 10
350.55
 20
167.02
 10
350.08
 20
168.52
 10
349.92
 20
170.1
 10
350.08
 20
171.68
 10
350.55
 20
173.16
 10
351.29
 20
174.5
 10
352.26
 20
175.68
 10
353.54
 20
176.73
 10
354.94
 20
177.46
 10
356.44
 20
177.88
 10
358.02
 20
178.02
 10
359.6
 20
177.88
 10
361.08
 20
177.46
 10
362.42
 20
176.73
 10
363.6
 20
175.68
 10
364.68
 20
174.5
 10
365.47
 20
173.16
 10
365.95
 20
171.68
 10
366.12
 20
170.1
 10
365.95
 20
168.52
  0
LWPOLYLINE
  5
49
330
17
100
AcDbEntity
  8
FILL_WHITE_FFFFFF
370
0
420
16777215
100
AcDbPolyline
 90
32
 70
1
 10
361.66
 20
171.63
 10
361.3
 20
172.3
 10
360.81
 20
172.89
 10
360.22
 20
173.38
 10
359.55
 20
173.75
 10
358.81
 20
173.98
 10
358.02
 20
174.06
 10
357.32
 20
173.99
 10
356.58
 20
173.79
 10
355.84
 20
173.45
 10
355.14
 20
172.98
 10
354.67
 20
172.28
 10
354.33
 20
171.54
 10
354.13
 20
170.8
 10
354.06
 20
170.1
 10
354.13
 20
169.32
 10
354.33
 20
168.59
 10
354.67
 20
167.9
 10
355.14
 20
167.22
 10
355.84
 20
166.75
 10
356.58
 20
166.41
 10
357.32
 20
166.21
 10
358.02
 20
166.14
 10
358.81
 20
166.21
 10
359.55
 20
166.43
 10
360.22
 20
166.78
 10
360.81
 20
167.24
 10
361.3
 20
167.82
 10
361.66
 20
168.49
 10
361.9
 20
169.26
 10
361.98
 20
170.1
 10
361.9
 20
170.89
  0
HATCH
  5
4A
330
17
100
AcDbEntity
  8
FILL_WHITE_FFFFFF
 62
7
420
16777215
100
AcDbHatch
 10
0.0
 20
0.0
 30
0.0
210
0.0
220
0.0
230
1.0
  2
SOLID
 70
1
 71
0
 91
1
 92
3
 72
0
 73
1
 93
10
 10
363.42
 20
93.24
 10
381.24
 20
75.42
 10
381.24
 20
146.7
 10
399.06
 20
146.7
 10
399.06
 20
75.42
 10
416.88
 20
93.24
 10
416.88
 20
66.42
 10
390.06
 20
39.78
 10
363.42
 20
66.42
 10
363.42
 20
93.24
 97
0
 75
1
 76
1
 98
0
  0
LWPOLYLINE
  5
4B
330
17
100
AcDbEntity
  8
FILL_WHITE_FFFFFF
370
0
420
16777215
100
AcDbPolyline
 90
9
 70
1
 10
363.42
 20
93.24
 10
381.24
 20
75.42
 10
381.24
 20
146.7
 10
399.06
 20
146.7
 10
399.06
 20
75.42
 10
416.88
 20
93.24
 10
416.88
 20
66.42
 10
390.06
 20
39.78
 10
363.42
 20
66.42
  0
HATCH
  5
4C
330
17
100
AcDbEntity
  8
FILL_WHITE_FFFFFF
 62
7
420
16777215
100
AcDbHatch
 10
0.0
 20
0.0
 30
0.0
210
0.0
220
0.0
230
1.0
  2
SOLID
 70
1
 71
0
 91
1
 92
3
 72
0
 73
1
 93
5
 10
291.6
 20
239.4
 10
291.6
 20
32.4
 10
278.1
 20
32.4
 10
278.1
 20
239.4
 10
291.6
 20
239.4
 97
0
 75
1
 76
1
 98
0
  0
LWPOLYLINE
  5
4D
330
17
100
AcDbEntity
  8
FILL_WHITE_FFFFFF
370
0
420
16777215
100
AcDbPolyline
 90
4
 70
1
 10
291.6
 20
239.4
 10
291.6
 20
32.4
 10
278.1
 20
32.4
 10
278.1
 20
239.4
  0
HATCH
  5
4E
330
17
100
AcDbEntity
  8
FILL_WHITE_FFFFFF
 62
7
420
16777215
100
AcDbHatch
 10
0.0
 20
0.0
 30
0.0
210
0.0
220
0.0
230
1.0
  2
SOLID
 70
1
 71
0
 91
1
 92
3
 72
0
 73
1
 93
10
 10
179.64
 20
202.86
 10
206.46
 20
176.04
 10
206.46
 20
149.4
 10
188.64
 20
167.22
 10
188.64
 20
69.12
 10
170.82
 20
69.12
 10
170.82
 20
167.22
 10
152.82
 20
149.4
 10
152.82
 20
176.04
 10
179.64
 20
202.86
 97
0
 75
1
 76
1
 98
0
  0
LWPOLYLINE
  5
4F
330
17
100
AcDbEntity
  8
FILL_WHITE_FFFFFF
370
0
420
16777215
100
AcDbPolyline
 90
9
 70
1
 10
179.64
 20
202.86
 10
206.46
 20
176.04
 10
206.46
 20
149.4
 10
188.64
 20
167.22
 10
188.64
 20
69.12
 10
170.82
 20
69.12
 10
170.82
 20
167.22
 10
152.82
 20
149.4
 10
152.82
 20
176.04
  0
LWPOLYLINE
  5
51
330
17
100
AcDbEntity
  8
STROKE_BLUE_0000FF
370
0
420
255
100
AcDbPolyline
 90
17
 70
0
 10
478.4399999999996
 20
9.000000000000455
 10
480.5372021484371
 20
9.103842773437975
 10
482.5698046874996
 20
9.408867187500448
 10
484.52805175781214
 20
9.905317382812939
 10
486.4021874999996
 20
10.583437500000457
 10
488.18245605468707
 20
11.433471679687955
 10
489.8591015624996
 20
12.445664062500498
 10
491.4223681640621
 20
13.610258789062982
 10
492.8624999999996
 20
14.917500000000473
 10
494.1697412109371
 20
16.35763183593798
 10
495.33433593749953
 20
17.920898437500483
 10
496.3465283203121
 20
19.597543945312964
 10
497.1965624999996
 20
21.37781250000046
 10
497.8746826171871
 20
23.25194824218795
 10
498.3711328124996
 20
25.210195312500446
 10
498.67615722656205
 20
27.242797851562955
 10
498.7799999999996
 20
29.340000000000458
  0
LWPOLYLINE
  5
52
330
17
100
AcDbEntity
  8
STROKE_BLUE_0000FF
370
0
420
255
100
AcDbPolyline
 90
2
 70
0
 10
91.25990000000002
 20
9.000000000000455
 10
478.4399000000001
 20
9.000000000000455
  0
LWPOLYLINE
  5
53
330
17
100
AcDbEntity
  8
STROKE_BLUE_0000FF
370
0
420
255
100
AcDbPolyline
 90
17
 70
0
 10
70.91989999999987
 20
29.33990000000017
 10
71.02572031249987
 20
27.24269785156264
 10
71.33614999999986
 20
25.210095312500158
 10
71.84064218749988
 20
23.251848242187663
 10
72.52864999999987
 20
21.3777125000002
 10
73.38962656249987
 20
19.597443945312676
 10
74.41302499999988
 20
17.920798437500196
 10
75.58829843749987
 20
16.357531835937692
 10
76.90489999999987
 20
14.917400000000157
 10
78.35228281249988
 20
13.610158789062666
 10
79.91989999999987
 20
12.445564062500182
 10
81.59720468749988
 20
11.433371679687696
 10
83.37364999999988
 20
10.583337500000198
 10
85.23868906249987
 20
9.90521738281268
 10
87.18177499999987
 20
9.408767187500189
 10
89.19236093749987
 20
9.103742773437716
 10
91.25989999999987
 20
8.999900000000196
  0
LWPOLYLINE
  5
54
330
17
100
AcDbEntity
  8
STROKE_BLUE_0000FF
370
0
420
255
100
AcDbPolyline
 90
2
 70
0
 10
70.91989999999987
 20
242.64000000000055
 10
70.91989999999987
 20
29.340000000000572
  0
LWPOLYLINE
  5
55
330
17
100
AcDbEntity
  8
STROKE_BLUE_0000FF
370
0
420
255
100
AcDbPolyline
 90
17
 70
0
 10
91.25999999999976
 20
262.98000000000025
 10
89.19246093749976
 20
262.87417968750026
 10
87.18187499999976
 20
262.56375000000025
 10
85.23878906249976
 20
262.0592578125002
 10
83.37374999999977
 20
261.37125000000026
 10
81.59730468749976
 20
260.51027343750025
 10
79.91999999999977
 20
259.4868750000002
 10
78.35238281249977
 20
258.31160156250024
 10
76.90499999999976
 20
256.99500000000023
 10
75.58839843749976
 20
255.54761718750024
 10
74.41312499999975
 20
253.98000000000025
 10
73.38972656249976
 20
252.30269531250025
 10
72.52874999999976
 20
250.52625000000023
 10
71.84074218749976
 20
248.66121093750024
 10
71.33624999999977
 20
246.71812500000024
 10
71.02582031249976
 20
244.70753906250025
 10
70.91999999999976
 20
242.64000000000024
  0
LWPOLYLINE
  5
56
330
17
100
AcDbEntity
  8
STROKE_BLUE_0000FF
370
0
420
255
100
AcDbPolyline
 90
2
 70
0
 10
478.4399999999996
 20
262.98000000000025
 10
91.25999999999954
 20
262.98000000000025
  0
LWPOLYLINE
  5
57
330
17
100
AcDbEntity
  8
STROKE_BLUE_0000FF
370
0
420
255
100
AcDbPolyline
 90
17
 70
0
 10
498.7799
 20
242.6401000000003
 10
498.67605722656253
 20
244.7076390625003
 10
498.3710328125
 20
246.7182250000003
 10
497.87458261718746
 20
248.6613109375003
 10
497.1964625
 20
250.5263500000003
 10
496.34642832031255
 20
252.3027953125003
 10
495.3342359375
 20
253.9801000000003
 10
494.16964121093747
 20
255.5477171875003
 10
492.8624
 20
256.9951000000003
 10
491.4222681640625
 20
258.3117015625003
 10
489.8590015625
 20
259.4869750000003
 10
488.1823560546876
 20
260.5103734375003
 10
486.4020875
 20
261.3713500000003
 10
484.5279517578125
 20
262.0593578125003
 10
482.5697046875
 20
262.5638500000003
 10
480.5371021484375
 20
262.8742796875003
 10
478.4399
 20
262.9801000000003
  0
LWPOLYLINE
  5
58
330
17
100
AcDbEntity
  8
STROKE_BLUE_0000FF
370
0
420
255
100
AcDbPolyline
 90
2
 70
0
 10
498.7799
 20
29.340000000000373
 10
498.7799
 20
242.64000000000036
  0
ENDSEC
  0
SECTION
  2
OBJECTS
  0
DICTIONARY
  5
A
330
0
100
AcDbDictionary
281
1
  3
ACAD_COLOR
350
B
  3
ACAD_GROUP
350
C
  3
ACAD_LAYOUT
350
D
  3
ACAD_MATERIAL
350
E
  3
ACAD_MLEADERSTYLE
350
F
  3
ACAD_MLINESTYLE
350
10
  3
ACAD_PLOTSETTINGS
350
11
  3
ACAD_PLOTSTYLENAME
350
12
  3
ACAD_SCALELIST
350
14
  3
ACAD_TABLESTYLE
350
15
  3
ACAD_VISUALSTYLE
350
16
  3
EZDXF_META
350
2D
  0
DICTIONARY
  5
B
330
A
100
AcDbDictionary
281
1
  0
DICTIONARY
  5
C
330
A
100
AcDbDictionary
281
1
  0
DICTIONARY
  5
D
330
A
100
AcDbDictionary
281
1
  3
Model
350
1A
  3
Layout1
350
1E
  0
DICTIONARY
  5
E
330
A
100
AcDbDictionary
281
1
  3
ByBlock
350
1F
  3
ByLayer
350
20
  3
Global
350
21
  0
DICTIONARY
  5
F
330
A
100
AcDbDictionary
281
1
  3
Standard
350
2C
  0
DICTIONARY
  5
10
330
A
100
AcDbDictionary
281
1
  3
Standard
350
22
  0
DICTIONARY
  5
11
330
A
100
AcDbDictionary
281
1
  0
ACDBDICTIONARYWDFLT
  5
12
330
A
100
AcDbDictionary
281
1
  3
Normal
350
13
100
AcDbDictionaryWithDefault
340
13
  0
ACDBPLACEHOLDER
  5
13
330
12
  0
DICTIONARY
  5
14
330
A
100
AcDbDictionary
281
1
  0
DICTIONARY
  5
15
330
A
100
AcDbDictionary
281
1
  0
DICTIONARY
  5
16
330
A
100
AcDbDictionary
281
1
  0
LAYOUT
  5
1A
330
D
100
AcDbPlotSettings
  1

  4
A3
  6

 40
7.5
 41
20.0
 42
7.5
 43
20.0
 44
420.0
 45
297.0
 46
0.0
 47
0.0
 48
0.0
 49
0.0
140
0.0
141
0.0
142
1.0
143
1.0
 70
1024
 72
1
 73
0
 74
5
  7

 75
16
 76
0
 77
2
 78
300
147
1.0
148
0.0
149
0.0
100
AcDbLayout
  1
Model
 70
1
 71
0
 10
0.0
 20
0.0
 11
420.0
 21
297.0
 12
0.0
 22
0.0
 32
0.0
 14
1e+20
 24
1e+20
 34
1e+20
 15
-1e+20
 25
-1e+20
 35
-1e+20
146
0.0
 13
0.0
 23
0.0
 33
0.0
 16
1.0
 26
0.0
 36
0.0
 17
0.0
 27
1.0
 37
0.0
 76
1
330
17
  0
LAYOUT
  5
1E
330
D
100
AcDbPlotSettings
  1

  4
A3
  6

 40
7.5
 41
20.0
 42
7.5
 43
20.0
 44
420.0
 45
297.0
 46
0.0
 47
0.0
 48
0.0
 49
0.0
140
0.0
141
0.0
142
1.0
143
1.0
 70
0
 72
1
 73
0
 74
5
  7

 75
16
 76
0
 77
2
 78
300
147
1.0
148
0.0
149
0.0
100
AcDbLayout
  1
Layout1
 70
1
 71
1
 10
0.0
 20
0.0
 11
420.0
 21
297.0
 12
0.0
 22
0.0
 32
0.0
 14
1e+20
 24
1e+20
 34
1e+20
 15
-1e+20
 25
-1e+20
 35
-1e+20
146
0.0
 13
0.0
 23
0.0
 33
0.0
 16
1.0
 26
0.0
 36
0.0
 17
0.0
 27
1.0
 37
0.0
 76
1
330
1B
  0
MATERIAL
  5
1F
102
{ACAD_REACTORS
330
E
102
}
330
E
100
AcDbMaterial
  1
ByBlock
  2

 70
0
 40
1.0
 71
1
 41
1.0
 91
-1023410177
 42
1.0
 72
1
  3

 73
1
 74
1
 75
1
 44
0.5
 73
0
 45
1.0
 46
1.0
 77
1
  4

 78
1
 79
1
170
1
 48
1.0
171
1
  6

172
1
173
1
174
1
140
1.0
141
1.0
175
1
  7

176
1
177
1
178
1
143
1.0
179
1
  8

270
1
271
1
272
1
145
1.0
146
1.0
273
1
  9

274
1
275
1
276
1
 42
1.0
 72
1
  3

 73
1
 74
1
 75
1
 94
63
  0
MATERIAL
  5
20
102
{ACAD_REACTORS
330
E
102
}
330
E
100
AcDbMaterial
  1
ByLayer
  2

 70
0
 40
1.0
 71
1
 41
1.0
 91
-1023410177
 42
1.0
 72
1
  3

 73
1
 74
1
 75
1
 44
0.5
 73
0
 45
1.0
 46
1.0
 77
1
  4

 78
1
 79
1
170
1
 48
1.0
171
1
  6

172
1
173
1
174
1
140
1.0
141
1.0
175
1
  7

176
1
177
1
178
1
143
1.0
179
1
  8

270
1
271
1
272
1
145
1.0
146
1.0
273
1
  9

274
1
275
1
276
1
 42
1.0
 72
1
  3

 73
1
 74
1
 75
1
 94
63
  0
MATERIAL
  5
21
102
{ACAD_REACTORS
330
E
102
}
330
E
100
AcDbMaterial
  1
Global
  2

 70
0
 40
1.0
 71
1
 41
1.0
 91
-1023410177
 42
1.0
 72
1
  3

 73
1
 74
1
 75
1
 44
0.5
 73
0
 45
1.0
 46
1.0
 77
1
  4

 78
1
 79
1
170
1
 48
1.0
171
1
  6

172
1
173
1
174
1
140
1.0
141
1.0
175
1
  7

176
1
177
1
178
1
143
1.0
179
1
  8

270
1
271
1
272
1
145
1.0
146
1.0
273
1
  9

274
1
275
1
276
1
 42
1.0
 72
1
  3

 73
1
 74
1
 75
1
 94
63
  0
MLINESTYLE
  5
22
102
{ACAD_REACTORS
330
10
102
}
330
10
100
AcDbMlineStyle
  2
Standard
 70
0
  3

 62
256
 51
90.0
 52
90.0
 71
2
 49
0.5
 62
256
  6
BYLAYER
 49
-0.5
 62
256
  6
BYLAYER
  0
MLEADERSTYLE
  5
2C
102
{ACAD_REACTORS
330
F
102
}
330
F
100
AcDbMLeaderStyle
179
2
170
2
171
1
172
0
 90
2
 40
0.0
 41
0.0
173
1
 91
-1056964608
 92
-2
290
1
 42
2.0
291
1
 43
8.0
  3
Standard
 44
4.0
300

342
29
174
1
175
1
176
0
178
1
 93
-1056964608
 45
4.0
292
0
297
0
 46
4.0
 94
-1056964608
 47
1.0
 49
1.0
140
1.0
294
1
141
0.0
177
0
142
1.0
295
0
296
0
143
3.75
271
0
272
9
273
9
  0
DICTIONARY
  5
2D
330
A
100
AcDbDictionary
280
1
281
1
  3
CREATED_BY_EZDXF
350
2E
  3
WRITTEN_BY_EZDXF
350
5B
  0
DICTIONARYVAR
  5
2E
330
2D
100
DictionaryVariables
280
0
  1
1.4.4 @ 2026-07-10T01:53:25.856347+00:00
  0
DICTIONARYVAR
  5
5B
330
2D
100
DictionaryVariables
280
0
  1
1.4.4 @ 2026-07-10T01:53:25.860446+00:00
  0
ENDSEC
  0
EOF
