  0
SECTION
  2
HEADER
  9
$ACADVER
  1
AC1024
  9
$ACADMAINTVER
 70
6
  9
$DWGCODEPAGE
  3
ANSI_1252
  9
$LASTSAVEDBY
  1
ezdxf
  9
$INSBASE
 10
0.0
 20
0.0
 30
0.0
  9
$EXTMIN
 10
1e+20
 20
1e+20
 30
1e+20
  9
$EXTMAX
 10
-1e+20
 20
-1e+20
 30
-1e+20
  9
$LIMMIN
 10
0.0
 20
0.0
  9
$LIMMAX
 10
420.0
 20
297.0
  9
$ORTHOMODE
 70
0
  9
$REGENMODE
 70
1
  9
$FILLMODE
 70
1
  9
$QTEXTMODE
 70
0
  9
$MIRRTEXT
 70
1
  9
$LTSCALE
 40
1.0
  9
$ATTMODE
 70
1
  9
$TEXTSIZE
 40
2.5
  9
$TRACEWID
 40
1.0
  9
$TEXTSTYLE
  7
Standard
  9
$CLAYER
  8
0
  9
$CELTYPE
  6
ByLayer
  9
$CECOLOR
 62
256
  9
$CELTSCALE
 40
1.0
  9
$DISPSILH
 70
0
  9
$DIMSCALE
 40
1.0
  9
$DIMASZ
 40
2.5
  9
$DIMEXO
 40
0.625
  9
$DIMDLI
 40
3.75
  9
$DIMRND
 40
0.0
  9
$DIMDLE
 40
0.0
  9
$DIMEXE
 40
1.25
  9
$DIMTP
 40
0.0
  9
$DIMTM
 40
0.0
  9
$DIMTXT
 40
2.5
  9
$DIMCEN
 40
2.5
  9
$DIMTSZ
 40
0.0
  9
$DIMTOL
 70
0
  9
$DIMLIM
 70
0
  9
$DIMTIH
 70
0
  9
$DIMTOH
 70
0
  9
$DIMSE1
 70
0
  9
$DIMSE2
 70
0
  9
$DIMTAD
 70
1
  9
$DIMZIN
 70
8
  9
$DIMBLK
  1

  9
$DIMASO
 70
1
  9
$DIMSHO
 70
1
  9
$DIMPOST
  1

  9
$DIMAPOST
  1

  9
$DIMALT
 70
0
  9
$DIMALTD
 70
3
  9
$DIMALTF
 40
0.03937007874
  9
$DIMLFAC
 40
1.0
  9
$DIMTOFL
 70
1
  9
$DIMTVP
 40
0.0
  9
$DIMTIX
 70
0
  9
$DIMSOXD
 70
0
  9
$DIMSAH
 70
0
  9
$DIMBLK1
  1

  9
$DIMBLK2
  1

  9
$DIMSTYLE
  2
ISO-25
  9
$DIMCLRD
 70
0
  9
$DIMCLRE
 70
0
  9
$DIMCLRT
 70
0
  9
$DIMTFAC
 40
1.0
  9
$DIMGAP
 40
0.625
  9
$DIMJUST
 70
0
  9
$DIMSD1
 70
0
  9
$DIMSD2
 70
0
  9
$DIMTOLJ
 70
0
  9
$DIMTZIN
 70
8
  9
$DIMALTZ
 70
0
  9
$DIMALTTZ
 70
0
  9
$DIMUPT
 70
0
  9
$DIMDEC
 70
2
  9
$DIMTDEC
 70
2
  9
$DIMALTU
 70
2
  9
$DIMALTTD
 70
3
  9
$DIMTXSTY
  7
Standard
  9
$DIMAUNIT
 70
0
  9
$DIMADEC
 70
0
  9
$DIMALTRND
 40
0.0
  9
$DIMAZIN
 70
0
  9
$DIMDSEP
 70
44
  9
$DIMATFIT
 70
3
  9
$DIMFRAC
 70
0
  9
$DIMLDRBLK
  1

  9
$DIMLUNIT
 70
2
  9
$DIMLWD
 70
-2
  9
$DIMLWE
 70
-2
  9
$DIMTMOVE
 70
0
  9
$DIMFXL
 40
1.0
  9
$DIMFXLON
 70
0
  9
$DIMJOGANG
 40
0.785398163397
  9
$DIMTFILL
 70
0
  9
$DIMTFILLCLR
 70
0
  9
$DIMARCSYM
 70
0
  9
$DIMLTYPE
  6

  9
$DIMLTEX1
  6

  9
$DIMLTEX2
  6

  9
$DIMTXTDIRECTION
 70
0
  9
$LUNITS
 70
2
  9
$LUPREC
 70
4
  9
$SKETCHINC
 40
1.0
  9
$FILLETRAD
 40
10.0
  9
$AUNITS
 70
0
  9
$AUPREC
 70
2
  9
$MENU
  1
.
  9
$ELEVATION
 40
0.0
  9
$PELEVATION
 40
0.0
  9
$THICKNESS
 40
0.0
  9
$LIMCHECK
 70
0
  9
$CHAMFERA
 40
0.0
  9
$CHAMFERB
 40
0.0
  9
$CHAMFERC
 40
0.0
  9
$CHAMFERD
 40
0.0
  9
$SKPOLY
 70
0
  9
$TDCREATE
 40
2461232.4124189815
  9
$TDUCREATE
 40
2458532.153996898
  9
$TDUPDATE
 40
2461232.4124189815
  9
$TDUUPDATE
 40
2458532.1544311
  9
$TDINDWG
 40
0.0
  9
$TDUSRTIMER
 40
0.0
  9
$USRTIMER
 70
1
  9
$ANGBASE
 50
0.0
  9
$ANGDIR
 70
0
  9
$PDMODE
 70
0
  9
$PDSIZE
 40
0.0
  9
$PLINEWID
 40
0.0
  9
$SPLFRAME
 70
0
  9
$SPLINETYPE
 70
6
  9
$SPLINESEGS
 70
8
  9
$HANDSEED
  5
5B
  9
$SURFTAB1
 70
6
  9
$SURFTAB2
 70
6
  9
$SURFTYPE
 70
6
  9
$SURFU
 70
6
  9
$SURFV
 70
6
  9
$UCSBASE
  2

  9
$UCSNAME
  2

  9
$UCSORG
 10
0.0
 20
0.0
 30
0.0
  9
$UCSXDIR
 10
1.0
 20
0.0
 30
0.0
  9
$UCSYDIR
 10
0.0
 20
1.0
 30
0.0
  9
$UCSORTHOREF
  2

  9
$UCSORTHOVIEW
 70
0
  9
$UCSORGTOP
 10
0.0
 20
0.0
 30
0.0
  9
$UCSORGBOTTOM
 10
0.0
 20
0.0
 30
0.0
  9
$UCSORGLEFT
 10
0.0
 20
0.0
 30
0.0
  9
$UCSORGRIGHT
 10
0.0
 20
0.0
 30
0.0
  9
$UCSORGFRONT
 10
0.0
 20
0.0
 30
0.0
  9
$UCSORGBACK
 10
0.0
 20
0.0
 30
0.0
  9
$PUCSBASE
  2

  9
$PUCSNAME
  2

  9
$PUCSORG
 10
0.0
 20
0.0
 30
0.0
  9
$PUCSXDIR
 10
1.0
 20
0.0
 30
0.0
  9
$PUCSYDIR
 10
0.0
 20
1.0
 30
0.0
  9
$PUCSORTHOREF
  2

  9
$PUCSORTHOVIEW
 70
0
  9
$PUCSORGTOP
 10
0.0
 20
0.0
 30
0.0
  9
$PUCSORGBOTTOM
 10
0.0
 20
0.0
 30
0.0
  9
$PUCSORGLEFT
 10
0.0
 20
0.0
 30
0.0
  9
$PUCSORGRIGHT
 10
0.0
 20
0.0
 30
0.0
  9
$PUCSORGFRONT
 10
0.0
 20
0.0
 30
0.0
  9
$PUCSORGBACK
 10
0.0
 20
0.0
 30
0.0
  9
$USERI1
 70
0
  9
$USERI2
 70
0
  9
$USERI3
 70
0
  9
$USERI4
 70
0
  9
$USERI5
 70
0
  9
$USERR1
 40
0.0
  9
$USERR2
 40
0.0
  9
$USERR3
 40
0.0
  9
$USERR4
 40
0.0
  9
$USERR5
 40
0.0
  9
$WORLDVIEW
 70
1
  9
$SHADEDGE
 70
3
  9
$SHADEDIF
 70
70
  9
$TILEMODE
 70
1
  9
$MAXACTVP
 70
64
  9
$PINSBASE
 10
0.0
 20
0.0
 30
0.0
  9
$PLIMCHECK
 70
0
  9
$PEXTMIN
 10
1e+20
 20
1e+20
 30
1e+20
  9
$PEXTMAX
 10
-1e+20
 20
-1e+20
 30
-1e+20
  9
$PLIMMIN
 10
0.0
 20
0.0
  9
$PLIMMAX
 10
420.0
 20
297.0
  9
$UNITMODE
 70
0
  9
$VISRETAIN
 70
1
  9
$PLINEGEN
 70
0
  9
$PSLTSCALE
 70
1
  9
$TREEDEPTH
 70
3020
  9
$CMLSTYLE
  2
Standard
  9
$CMLJUST
 70
0
  9
$CMLSCALE
 40
20.0
  9
$PROXYGRAPHICS
 70
1
  9
$MEASUREMENT
 70
1
  9
$CELWEIGHT
370
-1
  9
$ENDCAPS
280
0
  9
$JOINSTYLE
280
0
  9
$LWDISPLAY
290
0
  9
$INSUNITS
 70
6
  9
$HYPERLINKBASE
  1

  9
$STYLESHEET
  1

  9
$XEDIT
290
1
  9
$CEPSNTYPE
380
0
  9
$PSTYLEMODE
290
1
  9
$FINGERPRINTGUID
  2
{F9AED399-5420-4704-B04C-E1502BD1EDBE}
  9
$VERSIONGUID
  2
{F4300A87-6B35-4F4D-9EA6-0404B5069FEF}
  9
$EXTNAMES
290
1
  9
$PSVPSCALE
 40
0.0
  9
$OLESTARTUP
290
0
  9
$SORTENTS
280
127
  9
$INDEXCTL
280
0
  9
$HIDETEXT
280
1
  9
$XCLIPFRAME
280
1
  9
$HALOGAP
280
0
  9
$OBSCOLOR
 70
257
  9
$OBSLTYPE
280
0
  9
$INTERSECTIONDISPLAY
280
0
  9
$INTERSECTIONCOLOR
 70
257
  9
$DIMASSOC
280
2
  9
$PROJECTNAME
  1

  9
$CAMERADISPLAY
290
0
  9
$LENSLENGTH
 40
50.0
  9
$CAMERAHEIGHT
 40
0.0
  9
$STEPSPERSEC
 40
24.0
  9
$STEPSIZE
 40
100.0
  9
$3DDWFPREC
 40
2.0
  9
$PSOLWIDTH
 40
0.005
  9
$PSOLHEIGHT
 40
0.08
  9
$LOFTANG1
 40
1.570796326795
  9
$LOFTANG2
 40
1.570796326795
  9
$LOFTMAG1
 40
0.0
  9
$LOFTMAG2
 40
0.0
  9
$LOFTPARAM
 70
7
  9
$LOFTNORMALS
280
1
  9
$LATITUDE
 40
37.795
  9
$LONGITUDE
 40
-122.394
  9
$NORTHDIRECTION
 40
0.0
  9
$TIMEZONE
 70
-8000
  9
$LIGHTGLYPHDISPLAY
280
1
  9
$TILEMODELIGHTSYNCH
280
1
  9
$CMATERIAL
347
20
  9
$SOLIDHIST
280
0
  9
$SHOWHIST
280
1
  9
$DWFFRAME
280
2
  9
$DGNFRAME
280
2
  9
$REALWORLDSCALE
290
1
  9
$INTERFERECOLOR
 62
256
  9
$CSHADOW
280
0
  9
$SHADOWPLANELOCATION
 40
0.0
  0
ENDSEC
  0
SECTION
  2
CLASSES
  0
CLASS
  1
ACDBDICTIONARYWDFLT
  2
AcDbDictionaryWithDefault
  3
ObjectDBX Classes
 90
0
 91
0
280
0
281
0
  0
CLASS
  1
SUN
  2
AcDbSun
  3
SCENEOE
 90
1153
 91
0
280
0
281
0
  0
CLASS
  1
VISUALSTYLE
  2
AcDbVisualStyle
  3
ObjectDBX Classes
 90
4095
 91
0
280
0
281
0
  0
CLASS
  1
MATERIAL
  2
AcDbMaterial
  3
ObjectDBX Classes
 90
1153
 91
0
280
0
281
0
  0
CLASS
  1
SCALE
  2
AcDbScale
  3
ObjectDBX Classes
 90
1153
 91
0
280
0
281
0
  0
CLASS
  1
TABLESTYLE
  2
AcDbTableStyle
  3
ObjectDBX Classes
 90
4095
 91
0
280
0
281
0
  0
CLASS
  1
MLEADERSTYLE
  2
AcDbMLeaderStyle
  3
ACDB_MLEADERSTYLE_CLASS
 90
4095
 91
0
280
0
281
0
  0
CLASS
  1
DICTIONARYVAR
  2
AcDbDictionaryVar
  3
ObjectDBX Classes
 90
0
 91
0
280
0
281
0
  0
CLASS
  1
CELLSTYLEMAP
  2
AcDbCellStyleMap
  3
ObjectDBX Classes
 90
1152
 91
0
280
0
281
0
  0
CLASS
  1
MENTALRAYRENDERSETTINGS
  2
AcDbMentalRayRenderSettings
  3
SCENEOE
 90
1024
 91
0
280
0
281
0
  0
CLASS
  1
ACDBDETAILVIEWSTYLE
  2
AcDbDetailViewStyle
  3
ObjectDBX Classes
 90
1025
 91
0
280
0
281
0
  0
CLASS
  1
ACDBSECTIONVIEWSTYLE
  2
AcDbSectionViewStyle
  3
ObjectDBX Classes
 90
1025
 91
0
280
0
281
0
  0
CLASS
  1
RASTERVARIABLES
  2
AcDbRasterVariables
  3
ISM
 90
0
 91
0
280
0
281
0
  0
CLASS
  1
ACDBPLACEHOLDER
  2
AcDbPlaceHolder
  3
ObjectDBX Classes
 90
0
 91
0
280
0
281
0
  0
CLASS
  1
LAYOUT
  2
AcDbLayout
  3
ObjectDBX Classes
 90
0
 91
0
280
0
281
0
  0
ENDSEC
  0
SECTION
  2
TABLES
  0
TABLE
  2
VPORT
  5
8
330
0
100
AcDbSymbolTable
 70
1
  0
VPORT
  5
23
330
8
100
AcDbSymbolTableRecord
100
AcDbViewportTableRecord
  2
*Active
 70
0
 10
0.0
 20
0.0
 11
1.0
 21
1.0
 12
0.0
 22
0.0
 13
0.0
 23
0.0
 14
0.5
 24
0.5
 15
0.5
 25
0.5
 16
0.0
 26
0.0
 36
1.0
 17
0.0
 27
0.0
 37
0.0
 40
1000.0
 41
1.34
 42
50.0
 43
0.0
 44
0.0
 50
0.0
 51
0.0
 71
0
 72
1000
 73
1
 74
3
 75
0
 76
0
 77
0
 78
0
281
0
 65
0
146
0.0
  0
ENDTAB
  0
TABLE
  2
LTYPE
  5
2
330
0
100
AcDbSymbolTable
 70
3
  0
LTYPE
  5
24
330
2
100
AcDbSymbolTableRecord
100
AcDbLinetypeTableRecord
  2
ByBlock
 70
0
  3

 72
65
 73
0
 40
0.0
  0
LTYPE
  5
25
330
2
100
AcDbSymbolTableRecord
100
AcDbLinetypeTableRecord
  2
ByLayer
 70
0
  3

 72
65
 73
0
 40
0.0
  0
LTYPE
  5
26
330
2
100
AcDbSymbolTableRecord
100
AcDbLinetypeTableRecord
  2
Continuous
 70
0
  3

 72
65
 73
0
 40
0.0
  0
ENDTAB
  0
TABLE
  2
LAYER
  5
1
330
0
100
AcDbSymbolTable
 70
4
  0
LAYER
  5
27
330
1
100
AcDbSymbolTableRecord
100
AcDbLayerTableRecord
  2
0
 70
0
 62
7
  6
Continuous
370
-3
390
13
347
21
  0
LAYER
  5
28
330
1
100
AcDbSymbolTableRecord
100
AcDbLayerTableRecord
  2
Defpoints
 70
0
 62
7
  6
Continuous
290
0
370
-3
390
13
347
21
  0
LAYER
  5
2F
330
1
100
AcDbSymbolTableRecord
100
AcDbLayerTableRecord
  2
FILL_LIME_00FF00
 70
0
 62
7
420
65280
  6
Continuous
370
-3
390
13
347
21
  0
LAYER
  5
56
330
1
100
AcDbSymbolTableRecord
100
AcDbLayerTableRecord
  2
STROKE_BLACK_000000
 70
0
 62
7
420
0
  6
Continuous
370
-3
390
13
347
21
  0
ENDTAB
  0
TABLE
  2
STYLE
  5
5
330
0
100
AcDbSymbolTable
 70
1
  0
STYLE
  5
29
330
5
100
AcDbSymbolTableRecord
100
AcDbTextStyleTableRecord
  2
Standard
 70
0
 40
0.0
 41
1.0
 50
0.0
 71
0
 42
2.5
  3
txt
  4

  0
ENDTAB
  0
TABLE
  2
VIEW
  5
7
330
0
100
AcDbSymbolTable
 70
0
  0
ENDTAB
  0
TABLE
  2
UCS
  5
6
330
0
100
AcDbSymbolTable
 70
0
  0
ENDTAB
  0
TABLE
  2
APPID
  5
3
330
0
100
AcDbSymbolTable
 70
3
  0
APPID
  5
2A
330
3
100
AcDbSymbolTableRecord
100
AcDbRegAppTableRecord
  2
ACAD
 70
0
  0
APPID
  5
58
330
3
100
AcDbSymbolTableRecord
100
AcDbRegAppTableRecord
  2
HATCHBACKGROUNDCOLOR
 70
0
  0
APPID
  5
59
330
3
100
AcDbSymbolTableRecord
100
AcDbRegAppTableRecord
  2
EZDXF
 70
0
  0
ENDTAB
  0
TABLE
  2
DIMSTYLE
  5
4
330
0
100
AcDbSymbolTable
 70
1
100
AcDbDimStyleTable
  0
DIMSTYLE
105
2B
330
4
100
AcDbSymbolTableRecord
100
AcDbDimStyleTableRecord
  2
Standard
 70
0
 40
1.0
 41
2.5
 42
0.625
 43
3.75
 44
1.25
 45
0.0
 46
0.0
 47
0.0
 48
0.0
 49
2.5
140
2.5
141
2.5
142
0.0
143
0.03937007874
144
1.0
145
0.0
146
1.0
147
0.625
148
0.0
 69
0
 70
0
 71
0
 72
0
 73
0
 74
0
 75
0
 76
0
 77
1
 78
8
 79
3
170
0
171
3
172
1
173
0
174
0
175
0
176
0
177
0
178
0
179
2
271
2
272
2
273
2
274
3
275
0
276
0
277
2
278
44
279
0
280
0
281
0
282
0
283
0
284
8
285
0
286
0
288
0
289
3
290
0
371
-2
372
-2
  0
ENDTAB
  0
TABLE
  2
BLOCK_RECORD
  5
9
330
0
100
AcDbSymbolTable
 70
2
  0
BLOCK_RECORD
  5
17
330
9
100
AcDbSymbolTableRecord
100
AcDbBlockTableRecord
  2
*Model_Space
340
1A
 70
0
280
1
281
0
  0
BLOCK_RECORD
  5
1B
330
9
100
AcDbSymbolTableRecord
100
AcDbBlockTableRecord
  2
*Paper_Space
340
1E
 70
0
280
1
281
0
  0
ENDTAB
  0
ENDSEC
  0
SECTION
  2
BLOCKS
  0
BLOCK
  5
18
330
17
100
AcDbEntity
  8
0
100
AcDbBlockBegin
  2
*Model_Space
 70
0
 10
0.0
 20
0.0
 30
0.0
  3
*Model_Space
  1

  0
ENDBLK
  5
19
330
17
100
AcDbEntity
  8
0
100
AcDbBlockEnd
  0
BLOCK
  5
1C
330
1B
100
AcDbEntity
  8
0
100
AcDbBlockBegin
  2
*Paper_Space
 70
0
 10
0.0
 20
0.0
 30
0.0
  3
*Paper_Space
  1

  0
ENDBLK
  5
1D
330
1B
100
AcDbEntity
  8
0
100
AcDbBlockEnd
  0
ENDSEC
  0
SECTION
  2
ENTITIES
  0
HATCH
  5
30
330
17
100
AcDbEntity
  8
FILL_LIME_00FF00
 62
7
420
65280
100
AcDbHatch
 10
0.0
 20
0.0
 30
0.0
210
0.0
220
0.0
230
1.0
  2
SOLID
 70
1
 71
0
 91
1
 92
3
 72
0
 73
1
 93
33
 10
217.84
 20
207.3
 10
217.35
 20
205.7
 10
216.55
 20
204.27
 10
215.46
 20
203.04
 10
214.08
 20
202.03
 10
212.44
 20
201.28
 10
210.55
 20
200.8
 10
208.41
 20
200.64
 10
206.67
 20
200.8
 10
205.07
 20
201.28
 10
203.64
 20
202.03
 10
202.41
 20
203.04
 10
201.4
 20
204.27
 10
200.65
 20
205.7
 10
200.17
 20
207.3
 10
200.01
 20
209.04
 10
200.17
 20
211.18
 10
200.65
 20
213.07
 10
201.4
 20
214.71
 10
202.41
 20
216.09
 10
203.64
 20
217.18
 10
205.07
 20
217.98
 10
206.67
 20
218.47
 10
208.41
 20
218.64
 10
210.55
 20
218.47
 10
212.44
 20
217.98
 10
214.08
 20
217.18
 10
215.46
 20
216.09
 10
216.55
 20
214.71
 10
217.35
 20
213.07
 10
217.84
 20
211.18
 10
218.01
 20
209.04
 10
217.84
 20
207.3
 97
0
 75
1
 76
1
 98
0
  0
LWPOLYLINE
  5
31
330
17
100
AcDbEntity
  8
FILL_LIME_00FF00
370
0
420
65280
100
AcDbPolyline
 90
32
 70
1
 10
217.84
 20
207.3
 10
217.35
 20
205.7
 10
216.55
 20
204.27
 10
215.46
 20
203.04
 10
214.08
 20
202.03
 10
212.44
 20
201.28
 10
210.55
 20
200.8
 10
208.41
 20
200.64
 10
206.67
 20
200.8
 10
205.07
 20
201.28
 10
203.64
 20
202.03
 10
202.41
 20
203.04
 10
201.4
 20
204.27
 10
200.65
 20
205.7
 10
200.17
 20
207.3
 10
200.01
 20
209.04
 10
200.17
 20
211.18
 10
200.65
 20
213.07
 10
201.4
 20
214.71
 10
202.41
 20
216.09
 10
203.64
 20
217.18
 10
205.07
 20
217.98
 10
206.67
 20
218.47
 10
208.41
 20
218.64
 10
210.55
 20
218.47
 10
212.44
 20
217.98
 10
214.08
 20
217.18
 10
215.46
 20
216.09
 10
216.55
 20
214.71
 10
217.35
 20
213.07
 10
217.84
 20
211.18
 10
218.01
 20
209.04
  0
HATCH
  5
32
330
17
100
AcDbEntity
  8
FILL_LIME_00FF00
 62
7
420
65280
100
AcDbHatch
 10
0.0
 20
0.0
 30
0.0
210
0.0
220
0.0
230
1.0
  2
SOLID
 70
1
 71
0
 91
1
 92
3
 72
0
 73
1
 93
41
 10
237.15
 20
190.14
 10
236.99
 20
189.25
 10
236.39
 20
187.51
 10
235.44
 20
185.89
 10
234.21
 20
184.44
 10
232.76
 20
183.21
 10
231.13
 20
182.26
 10
229.4
 20
181.66
 10
228.51
 20
181.5
 10
227.61
 20
181.44
 10
226.71
 20
181.5
 10
225.82
 20
181.66
 10
224.08
 20
182.26
 10
222.46
 20
183.21
 10
221.01
 20
184.44
 10
219.78
 20
185.89
 10
218.83
 20
187.51
 10
218.23
 20
189.25
 10
218.07
 20
190.14
 10
218.01
 20
191.04
 10
218.07
 20
191.94
 10
218.23
 20
192.83
 10
218.83
 20
194.56
 10
219.78
 20
196.19
 10
221.01
 20
197.64
 10
222.46
 20
198.87
 10
224.08
 20
199.81
 10
225.82
 20
200.42
 10
226.71
 20
200.58
 10
227.61
 20
200.64
 10
228.51
 20
200.58
 10
229.4
 20
200.42
 10
231.13
 20
199.81
 10
232.76
 20
198.87
 10
234.21
 20
197.64
 10
235.44
 20
196.19
 10
236.39
 20
194.56
 10
236.99
 20
192.83
 10
237.15
 20
191.94
 10
237.21
 20
191.04
 10
237.15
 20
190.14
 97
0
 75
1
 76
1
 98
0
  0
LWPOLYLINE
  5
33
330
17
100
AcDbEntity
  8
FILL_LIME_00FF00
370
0
420
65280
100
AcDbPolyline
 90
40
 70
1
 10
237.15
 20
190.14
 10
236.99
 20
189.25
 10
236.39
 20
187.51
 10
235.44
 20
185.89
 10
234.21
 20
184.44
 10
232.76
 20
183.21
 10
231.13
 20
182.26
 10
229.4
 20
181.66
 10
228.51
 20
181.5
 10
227.61
 20
181.44
 10
226.71
 20
181.5
 10
225.82
 20
181.66
 10
224.08
 20
182.26
 10
222.46
 20
183.21
 10
221.01
 20
184.44
 10
219.78
 20
185.89
 10
218.83
 20
187.51
 10
218.23
 20
189.25
 10
218.07
 20
190.14
 10
218.01
 20
191.04
 10
218.07
 20
191.94
 10
218.23
 20
192.83
 10
218.83
 20
194.56
 10
219.78
 20
196.19
 10
221.01
 20
197.64
 10
222.46
 20
198.87
 10
224.08
 20
199.81
 10
225.82
 20
200.42
 10
226.71
 20
200.58
 10
227.61
 20
200.64
 10
228.51
 20
200.58
 10
229.4
 20
200.42
 10
231.13
 20
199.81
 10
232.76
 20
198.87
 10
234.21
 20
197.64
 10
235.44
 20
196.19
 10
236.39
 20
194.56
 10
236.99
 20
192.83
 10
237.15
 20
191.94
 10
237.21
 20
191.04
  0
HATCH
  5
34
330
17
100
AcDbEntity
  8
FILL_LIME_00FF00
 62
7
420
65280
100
AcDbHatch
 10
0.0
 20
0.0
 30
0.0
210
0.0
220
0.0
230
1.0
  2
SOLID
 70
1
 71
0
 91
1
 92
3
 72
0
 73
1
 93
41
 10
274.35
 20
152.94
 10
274.19
 20
152.05
 10
273.58
 20
150.31
 10
272.64
 20
148.69
 10
271.41
 20
147.24
 10
269.96
 20
146.01
 10
268.33
 20
145.06
 10
266.6
 20
144.46
 10
265.71
 20
144.3
 10
264.81
 20
144.24
 10
263.91
 20
144.3
 10
263.02
 20
144.46
 10
261.28
 20
145.06
 10
259.66
 20
146.01
 10
258.21
 20
147.24
 10
256.98
 20
148.69
 10
256.03
 20
150.31
 10
255.43
 20
152.05
 10
255.27
 20
152.94
 10
255.21
 20
153.84
 10
255.27
 20
154.74
 10
255.43
 20
155.63
 10
256.03
 20
157.36
 10
256.98
 20
158.99
 10
258.21
 20
160.44
 10
259.66
 20
161.67
 10
261.28
 20
162.61
 10
263.02
 20
163.22
 10
263.91
 20
163.38
 10
264.81
 20
163.44
 10
265.71
 20
163.38
 10
266.6
 20
163.22
 10
268.33
 20
162.61
 10
269.96
 20
161.67
 10
271.41
 20
160.44
 10
272.64
 20
158.99
 10
273.58
 20
157.36
 10
274.19
 20
155.63
 10
274.35
 20
154.74
 10
274.41
 20
153.84
 10
274.35
 20
152.94
 97
0
 75
1
 76
1
 98
0
  0
LWPOLYLINE
  5
35
330
17
100
AcDbEntity
  8
FILL_LIME_00FF00
370
0
420
65280
100
AcDbPolyline
 90
40
 70
1
 10
274.35
 20
152.94
 10
274.19
 20
152.05
 10
273.58
 20
150.31
 10
272.64
 20
148.69
 10
271.41
 20
147.24
 10
269.96
 20
146.01
 10
268.33
 20
145.06
 10
266.6
 20
144.46
 10
265.71
 20
144.3
 10
264.81
 20
144.24
 10
263.91
 20
144.3
 10
263.02
 20
144.46
 10
261.28
 20
145.06
 10
259.66
 20
146.01
 10
258.21
 20
147.24
 10
256.98
 20
148.69
 10
256.03
 20
150.31
 10
255.43
 20
152.05
 10
255.27
 20
152.94
 10
255.21
 20
153.84
 10
255.27
 20
154.74
 10
255.43
 20
155.63
 10
256.03
 20
157.36
 10
256.98
 20
158.99
 10
258.21
 20
160.44
 10
259.66
 20
161.67
 10
261.28
 20
162.61
 10
263.02
 20
163.22
 10
263.91
 20
163.38
 10
264.81
 20
163.44
 10
265.71
 20
163.38
 10
266.6
 20
163.22
 10
268.33
 20
162.61
 10
269.96
 20
161.67
 10
271.41
 20
160.44
 10
272.64
 20
158.99
 10
273.58
 20
157.36
 10
274.19
 20
155.63
 10
274.35
 20
154.74
 10
274.41
 20
153.84
  0
HATCH
  5
36
330
17
100
AcDbEntity
  8
FILL_LIME_00FF00
 62
7
420
65280
100
AcDbHatch
 10
0.0
 20
0.0
 30
0.0
210
0.0
220
0.0
230
1.0
  2
SOLID
 70
1
 71
0
 91
1
 92
3
 72
0
 73
1
 93
33
 10
292.25
 20
132.9
 10
291.77
 20
131.3
 10
291.02
 20
129.87
 10
290.01
 20
128.64
 10
288.78
 20
127.63
 10
287.35
 20
126.88
 10
285.75
 20
126.4
 10
284.01
 20
126.24
 10
281.87
 20
126.4
 10
279.98
 20
126.88
 10
278.34
 20
127.63
 10
276.96
 20
128.64
 10
275.87
 20
129.87
 10
275.07
 20
131.3
 10
274.58
 20
132.9
 10
274.41
 20
134.64
 10
274.58
 20
136.78
 10
275.07
 20
138.67
 10
275.87
 20
140.31
 10
276.96
 20
141.69
 10
278.34
 20
142.78
 10
279.98
 20
143.58
 10
281.87
 20
144.07
 10
284.01
 20
144.24
 10
285.75
 20
144.07
 10
287.35
 20
143.58
 10
288.78
 20
142.78
 10
290.01
 20
141.69
 10
291.02
 20
140.31
 10
291.77
 20
138.67
 10
292.25
 20
136.78
 10
292.41
 20
134.64
 10
292.25
 20
132.9
 97
0
 75
1
 76
1
 98
0
  0
LWPOLYLINE
  5
37
330
17
100
AcDbEntity
  8
FILL_LIME_00FF00
370
0
420
65280
100
AcDbPolyline
 90
32
 70
1
 10
292.25
 20
132.9
 10
291.77
 20
131.3
 10
291.02
 20
129.87
 10
290.01
 20
128.64
 10
288.78
 20
127.63
 10
287.35
 20
126.88
 10
285.75
 20
126.4
 10
284.01
 20
126.24
 10
281.87
 20
126.4
 10
279.98
 20
126.88
 10
278.34
 20
127.63
 10
276.96
 20
128.64
 10
275.87
 20
129.87
 10
275.07
 20
131.3
 10
274.58
 20
132.9
 10
274.41
 20
134.64
 10
274.58
 20
136.78
 10
275.07
 20
138.67
 10
275.87
 20
140.31
 10
276.96
 20
141.69
 10
278.34
 20
142.78
 10
279.98
 20
143.58
 10
281.87
 20
144.07
 10
284.01
 20
144.24
 10
285.75
 20
144.07
 10
287.35
 20
143.58
 10
288.78
 20
142.78
 10
290.01
 20
141.69
 10
291.02
 20
140.31
 10
291.77
 20
138.67
 10
292.25
 20
136.78
 10
292.41
 20
134.64
  0
HATCH
  5
38
330
17
100
AcDbEntity
  8
FILL_LIME_00FF00
 62
7
420
65280
100
AcDbHatch
 10
0.0
 20
0.0
 30
0.0
210
0.0
220
0.0
230
1.0
  2
SOLID
 70
1
 71
0
 91
1
 92
3
 72
0
 73
1
 93
41
 10
311.55
 20
115.74
 10
311.39
 20
114.85
 10
310.78
 20
113.11
 10
309.84
 20
111.49
 10
308.61
 20
110.04
 10
307.16
 20
108.81
 10
305.53
 20
107.86
 10
303.8
 20
107.26
 10
302.91
 20
107.1
 10
302.01
 20
107.04
 10
301.11
 20
107.1
 10
300.22
 20
107.26
 10
298.48
 20
107.86
 10
296.86
 20
108.81
 10
295.41
 20
110.04
 10
294.18
 20
111.49
 10
293.23
 20
113.11
 10
292.63
 20
114.85
 10
292.47
 20
115.74
 10
292.41
 20
116.64
 10
292.47
 20
117.54
 10
292.63
 20
118.43
 10
293.23
 20
120.16
 10
294.18
 20
121.79
 10
295.41
 20
123.24
 10
296.86
 20
124.47
 10
298.48
 20
125.41
 10
300.22
 20
126.02
 10
301.11
 20
126.18
 10
302.01
 20
126.24
 10
302.91
 20
126.18
 10
303.8
 20
126.02
 10
305.53
 20
125.41
 10
307.16
 20
124.47
 10
308.61
 20
123.24
 10
309.84
 20
121.79
 10
310.78
 20
120.16
 10
311.39
 20
118.43
 10
311.55
 20
117.54
 10
311.61
 20
116.64
 10
311.55
 20
115.74
 97
0
 75
1
 76
1
 98
0
  0
LWPOLYLINE
  5
39
330
17
100
AcDbEntity
  8
FILL_LIME_00FF00
370
0
420
65280
100
AcDbPolyline
 90
40
 70
1
 10
311.55
 20
115.74
 10
311.39
 20
114.85
 10
310.78
 20
113.11
 10
309.84
 20
111.49
 10
308.61
 20
110.04
 10
307.16
 20
108.81
 10
305.53
 20
107.86
 10
303.8
 20
107.26
 10
302.91
 20
107.1
 10
302.01
 20
107.04
 10
301.11
 20
107.1
 10
300.22
 20
107.26
 10
298.48
 20
107.86
 10
296.86
 20
108.81
 10
295.41
 20
110.04
 10
294.18
 20
111.49
 10
293.23
 20
113.11
 10
292.63
 20
114.85
 10
292.47
 20
115.74
 10
292.41
 20
116.64
 10
292.47
 20
117.54
 10
292.63
 20
118.43
 10
293.23
 20
120.16
 10
294.18
 20
121.79
 10
295.41
 20
123.24
 10
296.86
 20
124.47
 10
298.48
 20
125.41
 10
300.22
 20
126.02
 10
301.11
 20
126.18
 10
302.01
 20
126.24
 10
302.91
 20
126.18
 10
303.8
 20
126.02
 10
305.53
 20
125.41
 10
307.16
 20
124.47
 10
308.61
 20
123.24
 10
309.84
 20
121.79
 10
310.78
 20
120.16
 10
311.39
 20
118.43
 10
311.55
 20
117.54
 10
311.61
 20
116.64
  0
HATCH
  5
3A
330
17
100
AcDbEntity
  8
FILL_LIME_00FF00
 62
7
420
65280
100
AcDbHatch
 10
0.0
 20
0.0
 30
0.0
210
0.0
220
0.0
230
1.0
  2
SOLID
 70
1
 71
0
 91
1
 92
3
 72
0
 73
1
 93
33
 10
329.45
 20
95.7
 10
328.97
 20
94.1
 10
328.22
 20
92.67
 10
327.21
 20
91.44
 10
325.98
 20
90.43
 10
324.55
 20
89.68
 10
322.95
 20
89.2
 10
321.21
 20
89.04
 10
319.07
 20
89.2
 10
317.18
 20
89.68
 10
315.54
 20
90.43
 10
314.16
 20
91.44
 10
313.07
 20
92.67
 10
312.27
 20
94.1
 10
311.78
 20
95.7
 10
311.61
 20
97.44
 10
311.78
 20
99.58
 10
312.27
 20
101.47
 10
313.07
 20
103.11
 10
314.16
 20
104.49
 10
315.54
 20
105.58
 10
317.18
 20
106.38
 10
319.07
 20
106.87
 10
321.21
 20
107.04
 10
322.95
 20
106.87
 10
324.55
 20
106.38
 10
325.98
 20
105.58
 10
327.21
 20
104.49
 10
328.22
 20
103.11
 10
328.97
 20
101.47
 10
329.45
 20
99.58
 10
329.61
 20
97.44
 10
329.45
 20
95.7
 97
0
 75
1
 76
1
 98
0
  0
LWPOLYLINE
  5
3B
330
17
100
AcDbEntity
  8
FILL_LIME_00FF00
370
0
420
65280
100
AcDbPolyline
 90
32
 70
1
 10
329.45
 20
95.7
 10
328.97
 20
94.1
 10
328.22
 20
92.67
 10
327.21
 20
91.44
 10
325.98
 20
90.43
 10
324.55
 20
89.68
 10
322.95
 20
89.2
 10
321.21
 20
89.04
 10
319.07
 20
89.2
 10
317.18
 20
89.68
 10
315.54
 20
90.43
 10
314.16
 20
91.44
 10
313.07
 20
92.67
 10
312.27
 20
94.1
 10
311.78
 20
95.7
 10
311.61
 20
97.44
 10
311.78
 20
99.58
 10
312.27
 20
101.47
 10
313.07
 20
103.11
 10
314.16
 20
104.49
 10
315.54
 20
105.58
 10
317.18
 20
106.38
 10
319.07
 20
106.87
 10
321.21
 20
107.04
 10
322.95
 20
106.87
 10
324.55
 20
106.38
 10
325.98
 20
105.58
 10
327.21
 20
104.49
 10
328.22
 20
103.11
 10
328.97
 20
101.47
 10
329.45
 20
99.58
 10
329.61
 20
97.44
  0
HATCH
  5
3C
330
17
100
AcDbEntity
  8
FILL_LIME_00FF00
 62
7
420
65280
100
AcDbHatch
 10
0.0
 20
0.0
 30
0.0
210
0.0
220
0.0
230
1.0
  2
SOLID
 70
1
 71
0
 91
1
 92
3
 72
0
 73
1
 93
41
 10
348.75
 20
78.34
 10
348.59
 20
77.3
 10
348.34
 20
76.33
 10
347.98
 20
75.41
 10
347.04
 20
73.77
 10
345.81
 20
72.39
 10
344.36
 20
71.3
 10
342.73
 20
70.5
 10
341.0
 20
70.01
 10
339.21
 20
69.84
 10
337.42
 20
70.01
 10
335.68
 20
70.5
 10
334.06
 20
71.3
 10
332.61
 20
72.39
 10
331.38
 20
73.77
 10
330.43
 20
75.41
 10
330.08
 20
76.33
 10
329.83
 20
77.3
 10
329.67
 20
78.34
 10
329.61
 20
79.44
 10
329.67
 20
80.34
 10
329.83
 20
81.23
 10
330.43
 20
82.96
 10
331.38
 20
84.59
 10
332.61
 20
86.04
 10
334.06
 20
87.27
 10
335.68
 20
88.21
 10
337.42
 20
88.82
 10
338.31
 20
88.98
 10
339.21
 20
89.04
 10
340.11
 20
88.98
 10
341.0
 20
88.82
 10
342.73
 20
88.21
 10
344.36
 20
87.27
 10
345.81
 20
86.04
 10
347.04
 20
84.59
 10
347.98
 20
82.96
 10
348.59
 20
81.23
 10
348.75
 20
80.34
 10
348.81
 20
79.44
 10
348.75
 20
78.34
 97
0
 75
1
 76
1
 98
0
  0
LWPOLYLINE
  5
3D
330
17
100
AcDbEntity
  8
FILL_LIME_00FF00
370
0
420
65280
100
AcDbPolyline
 90
40
 70
1
 10
348.75
 20
78.34
 10
348.59
 20
77.3
 10
348.34
 20
76.33
 10
347.98
 20
75.41
 10
347.04
 20
73.77
 10
345.81
 20
72.39
 10
344.36
 20
71.3
 10
342.73
 20
70.5
 10
341.0
 20
70.01
 10
339.21
 20
69.84
 10
337.42
 20
70.01
 10
335.68
 20
70.5
 10
334.06
 20
71.3
 10
332.61
 20
72.39
 10
331.38
 20
73.77
 10
330.43
 20
75.41
 10
330.08
 20
76.33
 10
329.83
 20
77.3
 10
329.67
 20
78.34
 10
329.61
 20
79.44
 10
329.67
 20
80.34
 10
329.83
 20
81.23
 10
330.43
 20
82.96
 10
331.38
 20
84.59
 10
332.61
 20
86.04
 10
334.06
 20
87.27
 10
335.68
 20
88.21
 10
337.42
 20
88.82
 10
338.31
 20
88.98
 10
339.21
 20
89.04
 10
340.11
 20
88.98
 10
341.0
 20
88.82
 10
342.73
 20
88.21
 10
344.36
 20
87.27
 10
345.81
 20
86.04
 10
347.04
 20
84.59
 10
347.98
 20
82.96
 10
348.59
 20
81.23
 10
348.75
 20
80.34
 10
348.81
 20
79.44
  0
HATCH
  5
3E
330
17
100
AcDbEntity
  8
FILL_LIME_00FF00
 62
7
420
65280
100
AcDbHatch
 10
0.0
 20
0.0
 30
0.0
210
0.0
220
0.0
230
1.0
  2
SOLID
 70
1
 71
0
 91
1
 92
3
 72
0
 73
1
 93
41
 10
385.84
 20
114.85
 10
385.35
 20
113.11
 10
384.55
 20
111.49
 10
383.46
 20
110.04
 10
382.08
 20
108.81
 10
380.44
 20
107.86
 10
379.52
 20
107.51
 10
378.55
 20
107.26
 10
377.51
 20
107.1
 10
376.41
 20
107.04
 10
375.51
 20
107.1
 10
374.62
 20
107.26
 10
372.88
 20
107.86
 10
371.26
 20
108.81
 10
369.81
 20
110.04
 10
368.58
 20
111.49
 10
367.63
 20
113.11
 10
367.03
 20
114.85
 10
366.87
 20
115.74
 10
366.81
 20
116.64
 10
366.87
 20
117.54
 10
367.03
 20
118.43
 10
367.63
 20
120.16
 10
368.58
 20
121.79
 10
369.81
 20
123.24
 10
371.26
 20
124.47
 10
372.88
 20
125.41
 10
374.62
 20
126.02
 10
375.51
 20
126.18
 10
376.41
 20
126.24
 10
377.51
 20
126.18
 10
378.55
 20
126.02
 10
379.52
 20
125.77
 10
380.44
 20
125.41
 10
382.08
 20
124.47
 10
383.46
 20
123.24
 10
384.55
 20
121.79
 10
385.35
 20
120.16
 10
385.84
 20
118.43
 10
386.01
 20
116.64
 10
385.84
 20
114.85
 97
0
 75
1
 76
1
 98
0
  0
LWPOLYLINE
  5
3F
330
17
100
AcDbEntity
  8
FILL_LIME_00FF00
370
0
420
65280
100
AcDbPolyline
 90
40
 70
1
 10
385.84
 20
114.85
 10
385.35
 20
113.11
 10
384.55
 20
111.49
 10
383.46
 20
110.04
 10
382.08
 20
108.81
 10
380.44
 20
107.86
 10
379.52
 20
107.51
 10
378.55
 20
107.26
 10
377.51
 20
107.1
 10
376.41
 20
107.04
 10
375.51
 20
107.1
 10
374.62
 20
107.26
 10
372.88
 20
107.86
 10
371.26
 20
108.81
 10
369.81
 20
110.04
 10
368.58
 20
111.49
 10
367.63
 20
113.11
 10
367.03
 20
114.85
 10
366.87
 20
115.74
 10
366.81
 20
116.64
 10
366.87
 20
117.54
 10
367.03
 20
118.43
 10
367.63
 20
120.16
 10
368.58
 20
121.79
 10
369.81
 20
123.24
 10
371.26
 20
124.47
 10
372.88
 20
125.41
 10
374.62
 20
126.02
 10
375.51
 20
126.18
 10
376.41
 20
126.24
 10
377.51
 20
126.18
 10
378.55
 20
126.02
 10
379.52
 20
125.77
 10
380.44
 20
125.41
 10
382.08
 20
124.47
 10
383.46
 20
123.24
 10
384.55
 20
121.79
 10
385.35
 20
120.16
 10
385.84
 20
118.43
 10
386.01
 20
116.64
  0
HATCH
  5
40
330
17
100
AcDbEntity
  8
FILL_LIME_00FF00
 62
7
420
65280
100
AcDbHatch
 10
0.0
 20
0.0
 30
0.0
210
0.0
220
0.0
230
1.0
  2
SOLID
 70
1
 71
0
 91
1
 92
3
 72
0
 73
1
 93
36
 10
385.84
 20
95.7
 10
385.35
 20
94.1
 10
384.55
 20
92.67
 10
383.46
 20
91.44
 10
382.08
 20
90.43
 10
380.44
 20
89.68
 10
378.55
 20
89.2
 10
376.41
 20
89.04
 10
374.62
 20
89.2
 10
372.88
 20
89.68
 10
371.26
 20
90.43
 10
369.81
 20
91.44
 10
368.58
 20
92.67
 10
367.63
 20
94.1
 10
367.03
 20
95.7
 10
366.87
 20
96.55
 10
366.81
 20
97.44
 10
366.87
 20
98.54
 10
367.03
 20
99.58
 10
367.28
 20
100.55
 10
367.63
 20
101.47
 10
368.58
 20
103.11
 10
369.81
 20
104.49
 10
371.26
 20
105.58
 10
372.88
 20
106.38
 10
374.62
 20
106.87
 10
376.41
 20
107.04
 10
378.55
 20
106.87
 10
380.44
 20
106.38
 10
382.08
 20
105.58
 10
383.46
 20
104.49
 10
384.55
 20
103.11
 10
385.35
 20
101.47
 10
385.84
 20
99.58
 10
386.01
 20
97.44
 10
385.84
 20
95.7
 97
0
 75
1
 76
1
 98
0
  0
LWPOLYLINE
  5
41
330
17
100
AcDbEntity
  8
FILL_LIME_00FF00
370
0
420
65280
100
AcDbPolyline
 90
35
 70
1
 10
385.84
 20
95.7
 10
385.35
 20
94.1
 10
384.55
 20
92.67
 10
383.46
 20
91.44
 10
382.08
 20
90.43
 10
380.44
 20
89.68
 10
378.55
 20
89.2
 10
376.41
 20
89.04
 10
374.62
 20
89.2
 10
372.88
 20
89.68
 10
371.26
 20
90.43
 10
369.81
 20
91.44
 10
368.58
 20
92.67
 10
367.63
 20
94.1
 10
367.03
 20
95.7
 10
366.87
 20
96.55
 10
366.81
 20
97.44
 10
366.87
 20
98.54
 10
367.03
 20
99.58
 10
367.28
 20
100.55
 10
367.63
 20
101.47
 10
368.58
 20
103.11
 10
369.81
 20
104.49
 10
371.26
 20
105.58
 10
372.88
 20
106.38
 10
374.62
 20
106.87
 10
376.41
 20
107.04
 10
378.55
 20
106.87
 10
380.44
 20
106.38
 10
382.08
 20
105.58
 10
383.46
 20
104.49
 10
384.55
 20
103.11
 10
385.35
 20
101.47
 10
385.84
 20
99.58
 10
386.01
 20
97.44
  0
HATCH
  5
42
330
17
100
AcDbEntity
  8
FILL_LIME_00FF00
 62
7
420
65280
100
AcDbHatch
 10
0.0
 20
0.0
 30
0.0
210
0.0
220
0.0
230
1.0
  2
SOLID
 70
1
 71
0
 91
1
 92
3
 72
0
 73
1
 93
39
 10
385.84
 20
77.3
 10
385.35
 20
75.41
 10
384.55
 20
73.77
 10
383.46
 20
72.39
 10
382.08
 20
71.3
 10
380.44
 20
70.5
 10
378.55
 20
70.01
 10
376.41
 20
69.84
 10
374.62
 20
70.01
 10
372.88
 20
70.5
 10
371.26
 20
71.3
 10
369.81
 20
72.39
 10
368.58
 20
73.77
 10
367.63
 20
75.41
 10
367.28
 20
76.33
 10
367.03
 20
77.3
 10
366.87
 20
78.34
 10
366.81
 20
79.44
 10
366.87
 20
80.34
 10
367.03
 20
81.23
 10
367.63
 20
82.96
 10
368.58
 20
84.59
 10
369.81
 20
86.04
 10
371.26
 20
87.27
 10
372.88
 20
88.21
 10
374.62
 20
88.82
 10
375.51
 20
88.98
 10
376.41
 20
89.04
 10
377.51
 20
88.98
 10
378.55
 20
88.82
 10
379.52
 20
88.57
 10
380.44
 20
88.21
 10
382.08
 20
87.27
 10
383.46
 20
86.04
 10
384.55
 20
84.59
 10
385.35
 20
82.96
 10
385.84
 20
81.23
 10
386.01
 20
79.44
 10
385.84
 20
77.3
 97
0
 75
1
 76
1
 98
0
  0
LWPOLYLINE
  5
43
330
17
100
AcDbEntity
  8
FILL_LIME_00FF00
370
0
420
65280
100
AcDbPolyline
 90
38
 70
1
 10
385.84
 20
77.3
 10
385.35
 20
75.41
 10
384.55
 20
73.77
 10
383.46
 20
72.39
 10
382.08
 20
71.3
 10
380.44
 20
70.5
 10
378.55
 20
70.01
 10
376.41
 20
69.84
 10
374.62
 20
70.01
 10
372.88
 20
70.5
 10
371.26
 20
71.3
 10
369.81
 20
72.39
 10
368.58
 20
73.77
 10
367.63
 20
75.41
 10
367.28
 20
76.33
 10
367.03
 20
77.3
 10
366.87
 20
78.34
 10
366.81
 20
79.44
 10
366.87
 20
80.34
 10
367.03
 20
81.23
 10
367.63
 20
82.96
 10
368.58
 20
84.59
 10
369.81
 20
86.04
 10
371.26
 20
87.27
 10
372.88
 20
88.21
 10
374.62
 20
88.82
 10
375.51
 20
88.98
 10
376.41
 20
89.04
 10
377.51
 20
88.98
 10
378.55
 20
88.82
 10
379.52
 20
88.57
 10
380.44
 20
88.21
 10
382.08
 20
87.27
 10
383.46
 20
86.04
 10
384.55
 20
84.59
 10
385.35
 20
82.96
 10
385.84
 20
81.23
 10
386.01
 20
79.44
  0
HATCH
  5
44
330
17
100
AcDbEntity
  8
FILL_LIME_00FF00
 62
7
420
65280
100
AcDbHatch
 10
0.0
 20
0.0
 30
0.0
210
0.0
220
0.0
230
1.0
  2
SOLID
 70
1
 71
0
 91
1
 92
3
 72
0
 73
1
 93
39
 10
385.84
 20
58.45
 10
385.35
 20
56.71
 10
384.55
 20
55.09
 10
383.46
 20
53.64
 10
382.08
 20
52.41
 10
380.44
 20
51.46
 10
379.52
 20
51.11
 10
378.55
 20
50.86
 10
377.51
 20
50.7
 10
376.41
 20
50.64
 10
375.51
 20
50.7
 10
374.62
 20
50.86
 10
372.88
 20
51.46
 10
371.26
 20
52.41
 10
369.81
 20
53.64
 10
368.58
 20
55.09
 10
367.63
 20
56.71
 10
367.03
 20
58.45
 10
366.87
 20
59.34
 10
366.81
 20
60.24
 10
366.87
 20
61.34
 10
367.03
 20
62.38
 10
367.28
 20
63.35
 10
367.63
 20
64.27
 10
368.58
 20
65.91
 10
369.81
 20
67.29
 10
371.26
 20
68.38
 10
372.88
 20
69.18
 10
374.62
 20
69.67
 10
376.41
 20
69.84
 10
378.55
 20
69.67
 10
380.44
 20
69.18
 10
382.08
 20
68.38
 10
383.46
 20
67.29
 10
384.55
 20
65.91
 10
385.35
 20
64.27
 10
385.84
 20
62.38
 10
386.01
 20
60.24
 10
385.84
 20
58.45
 97
0
 75
1
 76
1
 98
0
  0
LWPOLYLINE
  5
45
330
17
100
AcDbEntity
  8
FILL_LIME_00FF00
370
0
420
65280
100
AcDbPolyline
 90
38
 70
1
 10
385.84
 20
58.45
 10
385.35
 20
56.71
 10
384.55
 20
55.09
 10
383.46
 20
53.64
 10
382.08
 20
52.41
 10
380.44
 20
51.46
 10
379.52
 20
51.11
 10
378.55
 20
50.86
 10
377.51
 20
50.7
 10
376.41
 20
50.64
 10
375.51
 20
50.7
 10
374.62
 20
50.86
 10
372.88
 20
51.46
 10
371.26
 20
52.41
 10
369.81
 20
53.64
 10
368.58
 20
55.09
 10
367.63
 20
56.71
 10
367.03
 20
58.45
 10
366.87
 20
59.34
 10
366.81
 20
60.24
 10
366.87
 20
61.34
 10
367.03
 20
62.38
 10
367.28
 20
63.35
 10
367.63
 20
64.27
 10
368.58
 20
65.91
 10
369.81
 20
67.29
 10
371.26
 20
68.38
 10
372.88
 20
69.18
 10
374.62
 20
69.67
 10
376.41
 20
69.84
 10
378.55
 20
69.67
 10
380.44
 20
69.18
 10
382.08
 20
68.38
 10
383.46
 20
67.29
 10
384.55
 20
65.91
 10
385.35
 20
64.27
 10
385.84
 20
62.38
 10
386.01
 20
60.24
  0
HATCH
  5
46
330
17
100
AcDbEntity
  8
FILL_LIME_00FF00
 62
7
420
65280
100
AcDbHatch
 10
0.0
 20
0.0
 30
0.0
210
0.0
220
0.0
230
1.0
  2
SOLID
 70
1
 71
0
 91
1
 92
3
 72
0
 73
1
 93
36
 10
385.84
 20
40.1
 10
385.35
 20
38.21
 10
384.55
 20
36.57
 10
383.46
 20
35.19
 10
382.08
 20
34.1
 10
380.44
 20
33.3
 10
378.55
 20
32.81
 10
376.41
 20
32.64
 10
374.62
 20
32.81
 10
372.88
 20
33.3
 10
371.26
 20
34.1
 10
369.81
 20
35.19
 10
368.58
 20
36.57
 10
367.63
 20
38.21
 10
367.28
 20
39.13
 10
367.03
 20
40.1
 10
366.87
 20
41.14
 10
366.81
 20
42.24
 10
366.87
 20
43.13
 10
367.03
 20
43.98
 10
367.63
 20
45.58
 10
368.58
 20
47.01
 10
369.81
 20
48.24
 10
371.26
 20
49.25
 10
372.88
 20
50.0
 10
374.62
 20
50.48
 10
376.41
 20
50.64
 10
378.55
 20
50.48
 10
380.44
 20
50.0
 10
382.08
 20
49.25
 10
383.46
 20
48.24
 10
384.55
 20
47.01
 10
385.35
 20
45.58
 10
385.84
 20
43.98
 10
386.01
 20
42.24
 10
385.84
 20
40.1
 97
0
 75
1
 76
1
 98
0
  0
LWPOLYLINE
  5
47
330
17
100
AcDbEntity
  8
FILL_LIME_00FF00
370
0
420
65280
100
AcDbPolyline
 90
35
 70
1
 10
385.84
 20
40.1
 10
385.35
 20
38.21
 10
384.55
 20
36.57
 10
383.46
 20
35.19
 10
382.08
 20
34.1
 10
380.44
 20
33.3
 10
378.55
 20
32.81
 10
376.41
 20
32.64
 10
374.62
 20
32.81
 10
372.88
 20
33.3
 10
371.26
 20
34.1
 10
369.81
 20
35.19
 10
368.58
 20
36.57
 10
367.63
 20
38.21
 10
367.28
 20
39.13
 10
367.03
 20
40.1
 10
366.87
 20
41.14
 10
366.81
 20
42.24
 10
366.87
 20
43.13
 10
367.03
 20
43.98
 10
367.63
 20
45.58
 10
368.58
 20
47.01
 10
369.81
 20
48.24
 10
371.26
 20
49.25
 10
372.88
 20
50.0
 10
374.62
 20
50.48
 10
376.41
 20
50.64
 10
378.55
 20
50.48
 10
380.44
 20
50.0
 10
382.08
 20
49.25
 10
383.46
 20
48.24
 10
384.55
 20
47.01
 10
385.35
 20
45.58
 10
385.84
 20
43.98
 10
386.01
 20
42.24
  0
HATCH
  5
48
330
17
100
AcDbEntity
  8
FILL_LIME_00FF00
 62
7
420
65280
100
AcDbHatch
 10
0.0
 20
0.0
 30
0.0
210
0.0
220
0.0
230
1.0
  2
SOLID
 70
1
 71
0
 91
1
 92
3
 72
0
 73
1
 93
36
 10
366.65
 20
58.45
 10
366.17
 20
56.71
 10
365.42
 20
55.09
 10
364.41
 20
53.64
 10
363.18
 20
52.41
 10
361.75
 20
51.46
 10
360.15
 20
50.86
 10
359.3
 20
50.7
 10
358.41
 20
50.64
 10
357.31
 20
50.7
 10
356.27
 20
50.86
 10
355.3
 20
51.11
 10
354.38
 20
51.46
 10
352.74
 20
52.41
 10
351.36
 20
53.64
 10
350.27
 20
55.09
 10
349.47
 20
56.71
 10
348.98
 20
58.45
 10
348.81
 20
60.24
 10
348.98
 20
62.38
 10
349.47
 20
64.27
 10
350.27
 20
65.91
 10
351.36
 20
67.29
 10
352.74
 20
68.38
 10
354.38
 20
69.18
 10
356.27
 20
69.67
 10
358.41
 20
69.84
 10
360.15
 20
69.67
 10
361.75
 20
69.18
 10
363.18
 20
68.38
 10
364.41
 20
67.29
 10
365.42
 20
65.91
 10
366.17
 20
64.27
 10
366.65
 20
62.38
 10
366.81
 20
60.24
 10
366.65
 20
58.45
 97
0
 75
1
 76
1
 98
0
  0
LWPOLYLINE
  5
49
330
17
100
AcDbEntity
  8
FILL_LIME_00FF00
370
0
420
65280
100
AcDbPolyline
 90
35
 70
1
 10
366.65
 20
58.45
 10
366.17
 20
56.71
 10
365.42
 20
55.09
 10
364.41
 20
53.64
 10
363.18
 20
52.41
 10
361.75
 20
51.46
 10
360.15
 20
50.86
 10
359.3
 20
50.7
 10
358.41
 20
50.64
 10
357.31
 20
50.7
 10
356.27
 20
50.86
 10
355.3
 20
51.11
 10
354.38
 20
51.46
 10
352.74
 20
52.41
 10
351.36
 20
53.64
 10
350.27
 20
55.09
 10
349.47
 20
56.71
 10
348.98
 20
58.45
 10
348.81
 20
60.24
 10
348.98
 20
62.38
 10
349.47
 20
64.27
 10
350.27
 20
65.91
 10
351.36
 20
67.29
 10
352.74
 20
68.38
 10
354.38
 20
69.18
 10
356.27
 20
69.67
 10
358.41
 20
69.84
 10
360.15
 20
69.67
 10
361.75
 20
69.18
 10
363.18
 20
68.38
 10
364.41
 20
67.29
 10
365.42
 20
65.91
 10
366.17
 20
64.27
 10
366.65
 20
62.38
 10
366.81
 20
60.24
  0
HATCH
  5
4A
330
17
100
AcDbEntity
  8
FILL_LIME_00FF00
 62
7
420
65280
100
AcDbHatch
 10
0.0
 20
0.0
 30
0.0
210
0.0
220
0.0
230
1.0
  2
SOLID
 70
1
 71
0
 91
1
 92
3
 72
0
 73
1
 93
33
 10
366.65
 20
40.1
 10
366.17
 20
38.21
 10
365.42
 20
36.57
 10
364.41
 20
35.19
 10
363.18
 20
34.1
 10
361.75
 20
33.3
 10
360.15
 20
32.81
 10
358.41
 20
32.64
 10
356.27
 20
32.81
 10
354.38
 20
33.3
 10
352.74
 20
34.1
 10
351.36
 20
35.19
 10
350.27
 20
36.57
 10
349.47
 20
38.21
 10
348.98
 20
40.1
 10
348.81
 20
42.24
 10
348.98
 20
43.98
 10
349.47
 20
45.58
 10
350.27
 20
47.01
 10
351.36
 20
48.24
 10
352.74
 20
49.25
 10
354.38
 20
50.0
 10
356.27
 20
50.48
 10
358.41
 20
50.64
 10
360.15
 20
50.48
 10
361.75
 20
50.0
 10
363.18
 20
49.25
 10
364.41
 20
48.24
 10
365.42
 20
47.01
 10
366.17
 20
45.58
 10
366.65
 20
43.98
 10
366.81
 20
42.24
 10
366.65
 20
40.1
 97
0
 75
1
 76
1
 98
0
  0
LWPOLYLINE
  5
4B
330
17
100
AcDbEntity
  8
FILL_LIME_00FF00
370
0
420
65280
100
AcDbPolyline
 90
32
 70
1
 10
366.65
 20
40.1
 10
366.17
 20
38.21
 10
365.42
 20
36.57
 10
364.41
 20
35.19
 10
363.18
 20
34.1
 10
361.75
 20
33.3
 10
360.15
 20
32.81
 10
358.41
 20
32.64
 10
356.27
 20
32.81
 10
354.38
 20
33.3
 10
352.74
 20
34.1
 10
351.36
 20
35.19
 10
350.27
 20
36.57
 10
349.47
 20
38.21
 10
348.98
 20
40.1
 10
348.81
 20
42.24
 10
348.98
 20
43.98
 10
349.47
 20
45.58
 10
350.27
 20
47.01
 10
351.36
 20
48.24
 10
352.74
 20
49.25
 10
354.38
 20
50.0
 10
356.27
 20
50.48
 10
358.41
 20
50.64
 10
360.15
 20
50.48
 10
361.75
 20
50.0
 10
363.18
 20
49.25
 10
364.41
 20
48.24
 10
365.42
 20
47.01
 10
366.17
 20
45.58
 10
366.65
 20
43.98
 10
366.81
 20
42.24
  0
HATCH
  5
4C
330
17
100
AcDbEntity
  8
FILL_LIME_00FF00
 62
7
420
65280
100
AcDbHatch
 10
0.0
 20
0.0
 30
0.0
210
0.0
220
0.0
230
1.0
  2
SOLID
 70
1
 71
0
 91
1
 92
3
 72
0
 73
1
 93
39
 10
348.75
 20
41.14
 10
348.59
 20
40.1
 10
348.34
 20
39.13
 10
347.98
 20
38.21
 10
347.04
 20
36.57
 10
345.81
 20
35.19
 10
344.36
 20
34.1
 10
342.73
 20
33.3
 10
341.0
 20
32.81
 10
339.21
 20
32.64
 10
337.42
 20
32.81
 10
335.68
 20
33.3
 10
334.06
 20
34.1
 10
332.61
 20
35.19
 10
331.38
 20
36.57
 10
330.43
 20
38.21
 10
330.08
 20
39.13
 10
329.83
 20
40.1
 10
329.67
 20
41.14
 10
329.61
 20
42.24
 10
329.67
 20
43.13
 10
329.83
 20
43.98
 10
330.43
 20
45.58
 10
331.38
 20
47.01
 10
332.61
 20
48.24
 10
334.06
 20
49.25
 10
335.68
 20
50.0
 10
337.42
 20
50.48
 10
339.21
 20
50.64
 10
341.0
 20
50.48
 10
342.73
 20
50.0
 10
344.36
 20
49.25
 10
345.81
 20
48.24
 10
347.04
 20
47.01
 10
347.98
 20
45.58
 10
348.59
 20
43.98
 10
348.75
 20
43.13
 10
348.81
 20
42.24
 10
348.75
 20
41.14
 97
0
 75
1
 76
1
 98
0
  0
LWPOLYLINE
  5
4D
330
17
100
AcDbEntity
  8
FILL_LIME_00FF00
370
0
420
65280
100
AcDbPolyline
 90
38
 70
1
 10
348.75
 20
41.14
 10
348.59
 20
40.1
 10
348.34
 20
39.13
 10
347.98
 20
38.21
 10
347.04
 20
36.57
 10
345.81
 20
35.19
 10
344.36
 20
34.1
 10
342.73
 20
33.3
 10
341.0
 20
32.81
 10
339.21
 20
32.64
 10
337.42
 20
32.81
 10
335.68
 20
33.3
 10
334.06
 20
34.1
 10
332.61
 20
35.19
 10
331.38
 20
36.57
 10
330.43
 20
38.21
 10
330.08
 20
39.13
 10
329.83
 20
40.1
 10
329.67
 20
41.14
 10
329.61
 20
42.24
 10
329.67
 20
43.13
 10
329.83
 20
43.98
 10
330.43
 20
45.58
 10
331.38
 20
47.01
 10
332.61
 20
48.24
 10
334.06
 20
49.25
 10
335.68
 20
50.0
 10
337.42
 20
50.48
 10
339.21
 20
50.64
 10
341.0
 20
50.48
 10
342.73
 20
50.0
 10
344.36
 20
49.25
 10
345.81
 20
48.24
 10
347.04
 20
47.01
 10
347.98
 20
45.58
 10
348.59
 20
43.98
 10
348.75
 20
43.13
 10
348.81
 20
42.24
  0
HATCH
  5
4E
330
17
100
AcDbEntity
  8
FILL_LIME_00FF00
 62
7
420
65280
100
AcDbHatch
 10
0.0
 20
0.0
 30
0.0
210
0.0
220
0.0
230
1.0
  2
SOLID
 70
1
 71
0
 91
1
 92
3
 72
0
 73
1
 93
33
 10
329.45
 20
40.1
 10
328.97
 20
38.21
 10
328.22
 20
36.57
 10
327.21
 20
35.19
 10
325.98
 20
34.1
 10
324.55
 20
33.3
 10
322.95
 20
32.81
 10
321.21
 20
32.64
 10
319.07
 20
32.81
 10
317.18
 20
33.3
 10
315.54
 20
34.1
 10
314.16
 20
35.19
 10
313.07
 20
36.57
 10
312.27
 20
38.21
 10
311.78
 20
40.1
 10
311.61
 20
42.24
 10
311.78
 20
43.98
 10
312.27
 20
45.58
 10
313.07
 20
47.01
 10
314.16
 20
48.24
 10
315.54
 20
49.25
 10
317.18
 20
50.0
 10
319.07
 20
50.48
 10
321.21
 20
50.64
 10
322.95
 20
50.48
 10
324.55
 20
50.0
 10
325.98
 20
49.25
 10
327.21
 20
48.24
 10
328.22
 20
47.01
 10
328.97
 20
45.58
 10
329.45
 20
43.98
 10
329.61
 20
42.24
 10
329.45
 20
40.1
 97
0
 75
1
 76
1
 98
0
  0
LWPOLYLINE
  5
4F
330
17
100
AcDbEntity
  8
FILL_LIME_00FF00
370
0
420
65280
100
AcDbPolyline
 90
32
 70
1
 10
329.45
 20
40.1
 10
328.97
 20
38.21
 10
328.22
 20
36.57
 10
327.21
 20
35.19
 10
325.98
 20
34.1
 10
324.55
 20
33.3
 10
322.95
 20
32.81
 10
321.21
 20
32.64
 10
319.07
 20
32.81
 10
317.18
 20
33.3
 10
315.54
 20
34.1
 10
314.16
 20
35.19
 10
313.07
 20
36.57
 10
312.27
 20
38.21
 10
311.78
 20
40.1
 10
311.61
 20
42.24
 10
311.78
 20
43.98
 10
312.27
 20
45.58
 10
313.07
 20
47.01
 10
314.16
 20
48.24
 10
315.54
 20
49.25
 10
317.18
 20
50.0
 10
319.07
 20
50.48
 10
321.21
 20
50.64
 10
322.95
 20
50.48
 10
324.55
 20
50.0
 10
325.98
 20
49.25
 10
327.21
 20
48.24
 10
328.22
 20
47.01
 10
328.97
 20
45.58
 10
329.45
 20
43.98
 10
329.61
 20
42.24
  0
HATCH
  5
50
330
17
100
AcDbEntity
  8
FILL_LIME_00FF00
 62
7
420
65280
100
AcDbHatch
 10
0.0
 20
0.0
 30
0.0
210
0.0
220
0.0
230
1.0
  2
SOLID
 70
1
 71
0
 91
1
 92
3
 72
0
 73
1
 93
39
 10
311.55
 20
41.14
 10
311.39
 20
40.1
 10
311.14
 20
39.13
 10
310.78
 20
38.21
 10
309.84
 20
36.57
 10
308.61
 20
35.19
 10
307.16
 20
34.1
 10
305.53
 20
33.3
 10
303.8
 20
32.81
 10
302.01
 20
32.64
 10
300.22
 20
32.81
 10
298.48
 20
33.3
 10
296.86
 20
34.1
 10
295.41
 20
35.19
 10
294.18
 20
36.57
 10
293.23
 20
38.21
 10
292.88
 20
39.13
 10
292.63
 20
40.1
 10
292.47
 20
41.14
 10
292.41
 20
42.24
 10
292.47
 20
43.13
 10
292.63
 20
43.98
 10
293.23
 20
45.58
 10
294.18
 20
47.01
 10
295.41
 20
48.24
 10
296.86
 20
49.25
 10
298.48
 20
50.0
 10
300.22
 20
50.48
 10
302.01
 20
50.64
 10
303.8
 20
50.48
 10
305.53
 20
50.0
 10
307.16
 20
49.25
 10
308.61
 20
48.24
 10
309.84
 20
47.01
 10
310.78
 20
45.58
 10
311.39
 20
43.98
 10
311.55
 20
43.13
 10
311.61
 20
42.24
 10
311.55
 20
41.14
 97
0
 75
1
 76
1
 98
0
  0
LWPOLYLINE
  5
51
330
17
100
AcDbEntity
  8
FILL_LIME_00FF00
370
0
420
65280
100
AcDbPolyline
 90
38
 70
1
 10
311.55
 20
41.14
 10
311.39
 20
40.1
 10
311.14
 20
39.13
 10
310.78
 20
38.21
 10
309.84
 20
36.57
 10
308.61
 20
35.19
 10
307.16
 20
34.1
 10
305.53
 20
33.3
 10
303.8
 20
32.81
 10
302.01
 20
32.64
 10
300.22
 20
32.81
 10
298.48
 20
33.3
 10
296.86
 20
34.1
 10
295.41
 20
35.19
 10
294.18
 20
36.57
 10
293.23
 20
38.21
 10
292.88
 20
39.13
 10
292.63
 20
40.1
 10
292.47
 20
41.14
 10
292.41
 20
42.24
 10
292.47
 20
43.13
 10
292.63
 20
43.98
 10
293.23
 20
45.58
 10
294.18
 20
47.01
 10
295.41
 20
48.24
 10
296.86
 20
49.25
 10
298.48
 20
50.0
 10
300.22
 20
50.48
 10
302.01
 20
50.64
 10
303.8
 20
50.48
 10
305.53
 20
50.0
 10
307.16
 20
49.25
 10
308.61
 20
48.24
 10
309.84
 20
47.01
 10
310.78
 20
45.58
 10
311.39
 20
43.98
 10
311.55
 20
43.13
 10
311.61
 20
42.24
  0
HATCH
  5
52
330
17
100
AcDbEntity
  8
FILL_LIME_00FF00
 62
7
420
65280
100
AcDbHatch
 10
0.0
 20
0.0
 30
0.0
210
0.0
220
0.0
230
1.0
  2
SOLID
 70
1
 71
0
 91
1
 92
3
 72
0
 73
1
 93
33
 10
292.25
 20
40.1
 10
291.77
 20
38.21
 10
291.02
 20
36.57
 10
290.01
 20
35.19
 10
288.78
 20
34.1
 10
287.35
 20
33.3
 10
285.75
 20
32.81
 10
284.01
 20
32.64
 10
281.87
 20
32.81
 10
279.98
 20
33.3
 10
278.34
 20
34.1
 10
276.96
 20
35.19
 10
275.87
 20
36.57
 10
275.07
 20
38.21
 10
274.58
 20
40.1
 10
274.41
 20
42.24
 10
274.58
 20
43.98
 10
275.07
 20
45.58
 10
275.87
 20
47.01
 10
276.96
 20
48.24
 10
278.34
 20
49.25
 10
279.98
 20
50.0
 10
281.87
 20
50.48
 10
284.01
 20
50.64
 10
285.75
 20
50.48
 10
287.35
 20
50.0
 10
288.78
 20
49.25
 10
290.01
 20
48.24
 10
291.02
 20
47.01
 10
291.77
 20
45.58
 10
292.25
 20
43.98
 10
292.41
 20
42.24
 10
292.25
 20
40.1
 97
0
 75
1
 76
1
 98
0
  0
LWPOLYLINE
  5
53
330
17
100
AcDbEntity
  8
FILL_LIME_00FF00
370
0
420
65280
100
AcDbPolyline
 90
32
 70
1
 10
292.25
 20
40.1
 10
291.77
 20
38.21
 10
291.02
 20
36.57
 10
290.01
 20
35.19
 10
288.78
 20
34.1
 10
287.35
 20
33.3
 10
285.75
 20
32.81
 10
284.01
 20
32.64
 10
281.87
 20
32.81
 10
279.98
 20
33.3
 10
278.34
 20
34.1
 10
276.96
 20
35.19
 10
275.87
 20
36.57
 10
275.07
 20
38.21
 10
274.58
 20
40.1
 10
274.41
 20
42.24
 10
274.58
 20
43.98
 10
275.07
 20
45.58
 10
275.87
 20
47.01
 10
276.96
 20
48.24
 10
278.34
 20
49.25
 10
279.98
 20
50.0
 10
281.87
 20
50.48
 10
284.01
 20
50.64
 10
285.75
 20
50.48
 10
287.35
 20
50.0
 10
288.78
 20
49.25
 10
290.01
 20
48.24
 10
291.02
 20
47.01
 10
291.77
 20
45.58
 10
292.25
 20
43.98
 10
292.41
 20
42.24
  0
HATCH
  5
54
330
17
100
AcDbEntity
  8
FILL_LIME_00FF00
 62
7
420
65280
100
AcDbHatch
 10
0.0
 20
0.0
 30
0.0
210
0.0
220
0.0
230
1.0
  2
SOLID
 70
1
 71
0
 91
1
 92
3
 72
0
 73
1
 93
33
 10
255.05
 20
170.1
 10
254.57
 20
168.5
 10
253.82
 20
167.07
 10
252.81
 20
165.84
 10
251.58
 20
164.83
 10
250.15
 20
164.08
 10
248.55
 20
163.6
 10
246.81
 20
163.44
 10
244.67
 20
163.6
 10
242.78
 20
164.08
 10
241.14
 20
164.83
 10
239.76
 20
165.84
 10
238.67
 20
167.07
 10
237.87
 20
168.5
 10
237.38
 20
170.1
 10
237.21
 20
171.84
 10
237.38
 20
173.98
 10
237.87
 20
175.87
 10
238.67
 20
177.51
 10
239.76
 20
178.89
 10
241.14
 20
179.98
 10
242.78
 20
180.78
 10
244.67
 20
181.27
 10
246.81
 20
181.44
 10
248.55
 20
181.27
 10
250.15
 20
180.78
 10
251.58
 20
179.98
 10
252.81
 20
178.89
 10
253.82
 20
177.51
 10
254.57
 20
175.87
 10
255.05
 20
173.98
 10
255.21
 20
171.84
 10
255.05
 20
170.1
 97
0
 75
1
 76
1
 98
0
  0
LWPOLYLINE
  5
55
330
17
100
AcDbEntity
  8
FILL_LIME_00FF00
370
0
420
65280
100
AcDbPolyline
 90
32
 70
1
 10
255.05
 20
170.1
 10
254.57
 20
168.5
 10
253.82
 20
167.07
 10
252.81
 20
165.84
 10
251.58
 20
164.83
 10
250.15
 20
164.08
 10
248.55
 20
163.6
 10
246.81
 20
163.44
 10
244.67
 20
163.6
 10
242.78
 20
164.08
 10
241.14
 20
164.83
 10
239.76
 20
165.84
 10
238.67
 20
167.07
 10
237.87
 20
168.5
 10
237.38
 20
170.1
 10
237.21
 20
171.84
 10
237.38
 20
173.98
 10
237.87
 20
175.87
 10
238.67
 20
177.51
 10
239.76
 20
178.89
 10
241.14
 20
179.98
 10
242.78
 20
180.78
 10
244.67
 20
181.27
 10
246.81
 20
181.44
 10
248.55
 20
181.27
 10
250.15
 20
180.78
 10
251.58
 20
179.98
 10
252.81
 20
178.89
 10
253.82
 20
177.51
 10
254.57
 20
175.87
 10
255.05
 20
173.98
 10
255.21
 20
171.84
  0
LWPOLYLINE
  5
57
330
17
100
AcDbEntity
  8
STROKE_BLACK_000000
370
0
420
0
100
AcDbPolyline
 90
69
 70
0
 10
423.2099999999996
 20
32.639999999999645
 10
423.2099999999996
 20
237.8399999999997
 10
423.1130273437496
 20
239.62417968749963
 10
422.8279687499996
 20
241.3696874999996
 10
422.3636132812496
 20
243.06597656249954
 10
421.7287499999996
 20
244.70249999999953
 10
420.9321679687497
 20
246.2687109374995
 10
419.9826562499997
 20
247.75406249999946
 10
418.8890039062496
 20
249.14800781249946
 10
417.6599999999997
 20
250.43999999999946
 10
416.30443359374965
 20
251.61949218749945
 10
414.8310937499997
 20
252.67593749999946
 10
413.24876953124965
 20
253.59878906249946
 10
411.5662499999996
 20
254.37749999999946
 10
409.79232421874957
 20
255.00152343749946
 10
407.93578124999954
 20
255.46031249999947
 10
406.0054101562494
 20
255.74332031249946
 10
404.0099999999993
 20
255.83999999999946
 10
162.80999999999995
 20
255.83999999999946
 10
160.81458984374981
 20
255.74332031249946
 10
158.88421874999975
 20
255.46031249999947
 10
157.02767578124968
 20
255.00152343749946
 10
155.25374999999963
 20
254.37749999999946
 10
153.5712304687496
 20
253.59878906249946
 10
151.9889062499996
 20
252.67593749999946
 10
150.51556640624958
 20
251.61949218749945
 10
149.15999999999957
 20
250.43999999999946
 10
147.93099609374957
 20
249.14800781249946
 10
146.83734374999958
 20
247.75406249999946
 10
145.88783203124962
 20
246.2687109374995
 10
145.0912499999996
 20
244.70249999999953
 10
144.45638671874963
 20
243.06597656249954
 10
143.99203124999966
 20
241.3696874999996
 10
143.70697265624966
 20
239.62417968749963
 10
143.60999999999967
 20
237.8399999999997
 10
143.60999999999967
 20
32.639999999999645
 10
143.7069726562497
 20
30.855820312499617
 10
143.99203124999966
 20
29.110312499999623
 10
144.45638671874966
 20
27.414023437499623
 10
145.09124999999963
 20
25.77749999999952
 10
145.88783203124962
 20
24.21128906249953
 10
146.83734374999958
 20
22.725937499999475
 10
147.93099609374957
 20
21.33199218749951
 10
149.15999999999957
 20
20.03999999999948
 10
150.51556640624958
 20
18.860507812499435
 10
151.9889062499996
 20
17.804062499999475
 10
153.5712304687496
 20
16.881210937499475
 10
155.25374999999963
 20
16.102499999999452
 10
157.02767578124968
 20
15.478476562499395
 10
158.88421874999975
 20
15.019687499999407
 10
160.81458984374981
 20
14.736679687499418
 10
162.80999999999995
 20
14.639999999999418
 10
404.0099999999993
 20
14.639999999999418
 10
406.0054101562494
 20
14.736679687499446
 10
407.9357812499995
 20
15.019687499999407
 10
409.7923242187495
 20
15.478476562499424
 10
411.5662499999996
 20
16.102499999999452
 10
413.24876953124965
 20
16.881210937499446
 10
414.8310937499997
 20
17.804062499999446
 10
416.30443359374965
 20
18.860507812499435
 10
417.6599999999997
 20
20.03999999999948
 10
418.8890039062496
 20
21.33199218749951
 10
419.9826562499997
 20
22.725937499999475
 10
420.9321679687497
 20
24.21128906249953
 10
421.72874999999965
 20
25.77749999999952
 10
422.3636132812496
 20
27.414023437499594
 10
422.82796874999957
 20
29.110312499999623
 10
423.1130273437496
 20
30.855820312499617
 10
423.2099999999996
 20
32.639999999999645
  0
ENDSEC
  0
SECTION
  2
OBJECTS
  0
DICTIONARY
  5
A
330
0
100
AcDbDictionary
281
1
  3
ACAD_COLOR
350
B
  3
ACAD_GROUP
350
C
  3
ACAD_LAYOUT
350
D
  3
ACAD_MATERIAL
350
E
  3
ACAD_MLEADERSTYLE
350
F
  3
ACAD_MLINESTYLE
350
10
  3
ACAD_PLOTSETTINGS
350
11
  3
ACAD_PLOTSTYLENAME
350
12
  3
ACAD_SCALELIST
350
14
  3
ACAD_TABLESTYLE
350
15
  3
ACAD_VISUALSTYLE
350
16
  3
EZDXF_META
350
2D
  0
DICTIONARY
  5
B
330
A
100
AcDbDictionary
281
1
  0
DICTIONARY
  5
C
330
A
100
AcDbDictionary
281
1
  0
DICTIONARY
  5
D
330
A
100
AcDbDictionary
281
1
  3
Model
350
1A
  3
Layout1
350
1E
  0
DICTIONARY
  5
E
330
A
100
AcDbDictionary
281
1
  3
ByBlock
350
1F
  3
ByLayer
350
20
  3
Global
350
21
  0
DICTIONARY
  5
F
330
A
100
AcDbDictionary
281
1
  3
Standard
350
2C
  0
DICTIONARY
  5
10
330
A
100
AcDbDictionary
281
1
  3
Standard
350
22
  0
DICTIONARY
  5
11
330
A
100
AcDbDictionary
281
1
  0
ACDBDICTIONARYWDFLT
  5
12
330
A
100
AcDbDictionary
281
1
  3
Normal
350
13
100
AcDbDictionaryWithDefault
340
13
  0
ACDBPLACEHOLDER
  5
13
330
12
  0
DICTIONARY
  5
14
330
A
100
AcDbDictionary
281
1
  0
DICTIONARY
  5
15
330
A
100
AcDbDictionary
281
1
  0
DICTIONARY
  5
16
330
A
100
AcDbDictionary
281
1
  0
LAYOUT
  5
1A
330
D
100
AcDbPlotSettings
  1

  4
A3
  6

 40
7.5
 41
20.0
 42
7.5
 43
20.0
 44
420.0
 45
297.0
 46
0.0
 47
0.0
 48
0.0
 49
0.0
140
0.0
141
0.0
142
1.0
143
1.0
 70
1024
 72
1
 73
0
 74
5
  7

 75
16
 76
0
 77
2
 78
300
147
1.0
148
0.0
149
0.0
100
AcDbLayout
  1
Model
 70
1
 71
0
 10
0.0
 20
0.0
 11
420.0
 21
297.0
 12
0.0
 22
0.0
 32
0.0
 14
1e+20
 24
1e+20
 34
1e+20
 15
-1e+20
 25
-1e+20
 35
-1e+20
146
0.0
 13
0.0
 23
0.0
 33
0.0
 16
1.0
 26
0.0
 36
0.0
 17
0.0
 27
1.0
 37
0.0
 76
1
330
17
  0
LAYOUT
  5
1E
330
D
100
AcDbPlotSettings
  1

  4
A3
  6

 40
7.5
 41
20.0
 42
7.5
 43
20.0
 44
420.0
 45
297.0
 46
0.0
 47
0.0
 48
0.0
 49
0.0
140
0.0
141
0.0
142
1.0
143
1.0
 70
0
 72
1
 73
0
 74
5
  7

 75
16
 76
0
 77
2
 78
300
147
1.0
148
0.0
149
0.0
100
AcDbLayout
  1
Layout1
 70
1
 71
1
 10
0.0
 20
0.0
 11
420.0
 21
297.0
 12
0.0
 22
0.0
 32
0.0
 14
1e+20
 24
1e+20
 34
1e+20
 15
-1e+20
 25
-1e+20
 35
-1e+20
146
0.0
 13
0.0
 23
0.0
 33
0.0
 16
1.0
 26
0.0
 36
0.0
 17
0.0
 27
1.0
 37
0.0
 76
1
330
1B
  0
MATERIAL
  5
1F
102
{ACAD_REACTORS
330
E
102
}
330
E
100
AcDbMaterial
  1
ByBlock
  2

 70
0
 40
1.0
 71
1
 41
1.0
 91
-1023410177
 42
1.0
 72
1
  3

 73
1
 74
1
 75
1
 44
0.5
 73
0
 45
1.0
 46
1.0
 77
1
  4

 78
1
 79
1
170
1
 48
1.0
171
1
  6

172
1
173
1
174
1
140
1.0
141
1.0
175
1
  7

176
1
177
1
178
1
143
1.0
179
1
  8

270
1
271
1
272
1
145
1.0
146
1.0
273
1
  9

274
1
275
1
276
1
 42
1.0
 72
1
  3

 73
1
 74
1
 75
1
 94
63
  0
MATERIAL
  5
20
102
{ACAD_REACTORS
330
E
102
}
330
E
100
AcDbMaterial
  1
ByLayer
  2

 70
0
 40
1.0
 71
1
 41
1.0
 91
-1023410177
 42
1.0
 72
1
  3

 73
1
 74
1
 75
1
 44
0.5
 73
0
 45
1.0
 46
1.0
 77
1
  4

 78
1
 79
1
170
1
 48
1.0
171
1
  6

172
1
173
1
174
1
140
1.0
141
1.0
175
1
  7

176
1
177
1
178
1
143
1.0
179
1
  8

270
1
271
1
272
1
145
1.0
146
1.0
273
1
  9

274
1
275
1
276
1
 42
1.0
 72
1
  3

 73
1
 74
1
 75
1
 94
63
  0
MATERIAL
  5
21
102
{ACAD_REACTORS
330
E
102
}
330
E
100
AcDbMaterial
  1
Global
  2

 70
0
 40
1.0
 71
1
 41
1.0
 91
-1023410177
 42
1.0
 72
1
  3

 73
1
 74
1
 75
1
 44
0.5
 73
0
 45
1.0
 46
1.0
 77
1
  4

 78
1
 79
1
170
1
 48
1.0
171
1
  6

172
1
173
1
174
1
140
1.0
141
1.0
175
1
  7

176
1
177
1
178
1
143
1.0
179
1
  8

270
1
271
1
272
1
145
1.0
146
1.0
273
1
  9

274
1
275
1
276
1
 42
1.0
 72
1
  3

 73
1
 74
1
 75
1
 94
63
  0
MLINESTYLE
  5
22
102
{ACAD_REACTORS
330
10
102
}
330
10
100
AcDbMlineStyle
  2
Standard
 70
0
  3

 62
256
 51
90.0
 52
90.0
 71
2
 49
0.5
 62
256
  6
BYLAYER
 49
-0.5
 62
256
  6
BYLAYER
  0
MLEADERSTYLE
  5
2C
102
{ACAD_REACTORS
330
F
102
}
330
F
100
AcDbMLeaderStyle
179
2
170
2
171
1
172
0
 90
2
 40
0.0
 41
0.0
173
1
 91
-1056964608
 92
-2
290
1
 42
2.0
291
1
 43
8.0
  3
Standard
 44
4.0
300

342
29
174
1
175
1
176
0
178
1
 93
-1056964608
 45
4.0
292
0
297
0
 46
4.0
 94
-1056964608
 47
1.0
 49
1.0
140
1.0
294
1
141
0.0
177
0
142
1.0
295
0
296
0
143
3.75
271
0
272
9
273
9
  0
DICTIONARY
  5
2D
330
A
100
AcDbDictionary
280
1
281
1
  3
CREATED_BY_EZDXF
350
2E
  3
WRITTEN_BY_EZDXF
350
5A
  0
DICTIONARYVAR
  5
2E
330
2D
100
DictionaryVariables
280
0
  1
1.4.4 @ 2026-07-10T01:53:53.164553+00:00
  0
DICTIONARYVAR
  5
5A
330
2D
100
DictionaryVariables
280
0
  1
1.4.4 @ 2026-07-10T01:53:53.171482+00:00
  0
ENDSEC
  0
EOF
