  0
SECTION
  2
HEADER
  9
$ACADVER
  1
AC1024
  9
$ACADMAINTVER
 70
6
  9
$DWGCODEPAGE
  3
ANSI_1252
  9
$LASTSAVEDBY
  1
ezdxf
  9
$INSBASE
 10
0.0
 20
0.0
 30
0.0
  9
$EXTMIN
 10
1e+20
 20
1e+20
 30
1e+20
  9
$EXTMAX
 10
-1e+20
 20
-1e+20
 30
-1e+20
  9
$LIMMIN
 10
0.0
 20
0.0
  9
$LIMMAX
 10
420.0
 20
297.0
  9
$ORTHOMODE
 70
0
  9
$REGENMODE
 70
1
  9
$FILLMODE
 70
1
  9
$QTEXTMODE
 70
0
  9
$MIRRTEXT
 70
1
  9
$LTSCALE
 40
1.0
  9
$ATTMODE
 70
1
  9
$TEXTSIZE
 40
2.5
  9
$TRACEWID
 40
1.0
  9
$TEXTSTYLE
  7
Standard
  9
$CLAYER
  8
0
  9
$CELTYPE
  6
ByLayer
  9
$CECOLOR
 62
256
  9
$CELTSCALE
 40
1.0
  9
$DISPSILH
 70
0
  9
$DIMSCALE
 40
1.0
  9
$DIMASZ
 40
2.5
  9
$DIMEXO
 40
0.625
  9
$DIMDLI
 40
3.75
  9
$DIMRND
 40
0.0
  9
$DIMDLE
 40
0.0
  9
$DIMEXE
 40
1.25
  9
$DIMTP
 40
0.0
  9
$DIMTM
 40
0.0
  9
$DIMTXT
 40
2.5
  9
$DIMCEN
 40
2.5
  9
$DIMTSZ
 40
0.0
  9
$DIMTOL
 70
0
  9
$DIMLIM
 70
0
  9
$DIMTIH
 70
0
  9
$DIMTOH
 70
0
  9
$DIMSE1
 70
0
  9
$DIMSE2
 70
0
  9
$DIMTAD
 70
1
  9
$DIMZIN
 70
8
  9
$DIMBLK
  1

  9
$DIMASO
 70
1
  9
$DIMSHO
 70
1
  9
$DIMPOST
  1

  9
$DIMAPOST
  1

  9
$DIMALT
 70
0
  9
$DIMALTD
 70
3
  9
$DIMALTF
 40
0.03937007874
  9
$DIMLFAC
 40
1.0
  9
$DIMTOFL
 70
1
  9
$DIMTVP
 40
0.0
  9
$DIMTIX
 70
0
  9
$DIMSOXD
 70
0
  9
$DIMSAH
 70
0
  9
$DIMBLK1
  1

  9
$DIMBLK2
  1

  9
$DIMSTYLE
  2
ISO-25
  9
$DIMCLRD
 70
0
  9
$DIMCLRE
 70
0
  9
$DIMCLRT
 70
0
  9
$DIMTFAC
 40
1.0
  9
$DIMGAP
 40
0.625
  9
$DIMJUST
 70
0
  9
$DIMSD1
 70
0
  9
$DIMSD2
 70
0
  9
$DIMTOLJ
 70
0
  9
$DIMTZIN
 70
8
  9
$DIMALTZ
 70
0
  9
$DIMALTTZ
 70
0
  9
$DIMUPT
 70
0
  9
$DIMDEC
 70
2
  9
$DIMTDEC
 70
2
  9
$DIMALTU
 70
2
  9
$DIMALTTD
 70
3
  9
$DIMTXSTY
  7
Standard
  9
$DIMAUNIT
 70
0
  9
$DIMADEC
 70
0
  9
$DIMALTRND
 40
0.0
  9
$DIMAZIN
 70
0
  9
$DIMDSEP
 70
44
  9
$DIMATFIT
 70
3
  9
$DIMFRAC
 70
0
  9
$DIMLDRBLK
  1

  9
$DIMLUNIT
 70
2
  9
$DIMLWD
 70
-2
  9
$DIMLWE
 70
-2
  9
$DIMTMOVE
 70
0
  9
$DIMFXL
 40
1.0
  9
$DIMFXLON
 70
0
  9
$DIMJOGANG
 40
0.785398163397
  9
$DIMTFILL
 70
0
  9
$DIMTFILLCLR
 70
0
  9
$DIMARCSYM
 70
0
  9
$DIMLTYPE
  6

  9
$DIMLTEX1
  6

  9
$DIMLTEX2
  6

  9
$DIMTXTDIRECTION
 70
0
  9
$LUNITS
 70
2
  9
$LUPREC
 70
4
  9
$SKETCHINC
 40
1.0
  9
$FILLETRAD
 40
10.0
  9
$AUNITS
 70
0
  9
$AUPREC
 70
2
  9
$MENU
  1
.
  9
$ELEVATION
 40
0.0
  9
$PELEVATION
 40
0.0
  9
$THICKNESS
 40
0.0
  9
$LIMCHECK
 70
0
  9
$CHAMFERA
 40
0.0
  9
$CHAMFERB
 40
0.0
  9
$CHAMFERC
 40
0.0
  9
$CHAMFERD
 40
0.0
  9
$SKPOLY
 70
0
  9
$TDCREATE
 40
2461232.4124189815
  9
$TDUCREATE
 40
2458532.153996898
  9
$TDUPDATE
 40
2461232.4124189815
  9
$TDUUPDATE
 40
2458532.1544311
  9
$TDINDWG
 40
0.0
  9
$TDUSRTIMER
 40
0.0
  9
$USRTIMER
 70
1
  9
$ANGBASE
 50
0.0
  9
$ANGDIR
 70
0
  9
$PDMODE
 70
0
  9
$PDSIZE
 40
0.0
  9
$PLINEWID
 40
0.0
  9
$SPLFRAME
 70
0
  9
$SPLINETYPE
 70
6
  9
$SPLINESEGS
 70
8
  9
$HANDSEED
  5
57
  9
$SURFTAB1
 70
6
  9
$SURFTAB2
 70
6
  9
$SURFTYPE
 70
6
  9
$SURFU
 70
6
  9
$SURFV
 70
6
  9
$UCSBASE
  2

  9
$UCSNAME
  2

  9
$UCSORG
 10
0.0
 20
0.0
 30
0.0
  9
$UCSXDIR
 10
1.0
 20
0.0
 30
0.0
  9
$UCSYDIR
 10
0.0
 20
1.0
 30
0.0
  9
$UCSORTHOREF
  2

  9
$UCSORTHOVIEW
 70
0
  9
$UCSORGTOP
 10
0.0
 20
0.0
 30
0.0
  9
$UCSORGBOTTOM
 10
0.0
 20
0.0
 30
0.0
  9
$UCSORGLEFT
 10
0.0
 20
0.0
 30
0.0
  9
$UCSORGRIGHT
 10
0.0
 20
0.0
 30
0.0
  9
$UCSORGFRONT
 10
0.0
 20
0.0
 30
0.0
  9
$UCSORGBACK
 10
0.0
 20
0.0
 30
0.0
  9
$PUCSBASE
  2

  9
$PUCSNAME
  2

  9
$PUCSORG
 10
0.0
 20
0.0
 30
0.0
  9
$PUCSXDIR
 10
1.0
 20
0.0
 30
0.0
  9
$PUCSYDIR
 10
0.0
 20
1.0
 30
0.0
  9
$PUCSORTHOREF
  2

  9
$PUCSORTHOVIEW
 70
0
  9
$PUCSORGTOP
 10
0.0
 20
0.0
 30
0.0
  9
$PUCSORGBOTTOM
 10
0.0
 20
0.0
 30
0.0
  9
$PUCSORGLEFT
 10
0.0
 20
0.0
 30
0.0
  9
$PUCSORGRIGHT
 10
0.0
 20
0.0
 30
0.0
  9
$PUCSORGFRONT
 10
0.0
 20
0.0
 30
0.0
  9
$PUCSORGBACK
 10
0.0
 20
0.0
 30
0.0
  9
$USERI1
 70
0
  9
$USERI2
 70
0
  9
$USERI3
 70
0
  9
$USERI4
 70
0
  9
$USERI5
 70
0
  9
$USERR1
 40
0.0
  9
$USERR2
 40
0.0
  9
$USERR3
 40
0.0
  9
$USERR4
 40
0.0
  9
$USERR5
 40
0.0
  9
$WORLDVIEW
 70
1
  9
$SHADEDGE
 70
3
  9
$SHADEDIF
 70
70
  9
$TILEMODE
 70
1
  9
$MAXACTVP
 70
64
  9
$PINSBASE
 10
0.0
 20
0.0
 30
0.0
  9
$PLIMCHECK
 70
0
  9
$PEXTMIN
 10
1e+20
 20
1e+20
 30
1e+20
  9
$PEXTMAX
 10
-1e+20
 20
-1e+20
 30
-1e+20
  9
$PLIMMIN
 10
0.0
 20
0.0
  9
$PLIMMAX
 10
420.0
 20
297.0
  9
$UNITMODE
 70
0
  9
$VISRETAIN
 70
1
  9
$PLINEGEN
 70
0
  9
$PSLTSCALE
 70
1
  9
$TREEDEPTH
 70
3020
  9
$CMLSTYLE
  2
Standard
  9
$CMLJUST
 70
0
  9
$CMLSCALE
 40
20.0
  9
$PROXYGRAPHICS
 70
1
  9
$MEASUREMENT
 70
1
  9
$CELWEIGHT
370
-1
  9
$ENDCAPS
280
0
  9
$JOINSTYLE
280
0
  9
$LWDISPLAY
290
0
  9
$INSUNITS
 70
6
  9
$HYPERLINKBASE
  1

  9
$STYLESHEET
  1

  9
$XEDIT
290
1
  9
$CEPSNTYPE
380
0
  9
$PSTYLEMODE
290
1
  9
$FINGERPRINTGUID
  2
{3F68ED1F-DD1A-451A-A3B7-3C0959FC7777}
  9
$VERSIONGUID
  2
{14B244BC-20FB-400D-A430-3497E5EEC62C}
  9
$EXTNAMES
290
1
  9
$PSVPSCALE
 40
0.0
  9
$OLESTARTUP
290
0
  9
$SORTENTS
280
127
  9
$INDEXCTL
280
0
  9
$HIDETEXT
280
1
  9
$XCLIPFRAME
280
1
  9
$HALOGAP
280
0
  9
$OBSCOLOR
 70
257
  9
$OBSLTYPE
280
0
  9
$INTERSECTIONDISPLAY
280
0
  9
$INTERSECTIONCOLOR
 70
257
  9
$DIMASSOC
280
2
  9
$PROJECTNAME
  1

  9
$CAMERADISPLAY
290
0
  9
$LENSLENGTH
 40
50.0
  9
$CAMERAHEIGHT
 40
0.0
  9
$STEPSPERSEC
 40
24.0
  9
$STEPSIZE
 40
100.0
  9
$3DDWFPREC
 40
2.0
  9
$PSOLWIDTH
 40
0.005
  9
$PSOLHEIGHT
 40
0.08
  9
$LOFTANG1
 40
1.570796326795
  9
$LOFTANG2
 40
1.570796326795
  9
$LOFTMAG1
 40
0.0
  9
$LOFTMAG2
 40
0.0
  9
$LOFTPARAM
 70
7
  9
$LOFTNORMALS
280
1
  9
$LATITUDE
 40
37.795
  9
$LONGITUDE
 40
-122.394
  9
$NORTHDIRECTION
 40
0.0
  9
$TIMEZONE
 70
-8000
  9
$LIGHTGLYPHDISPLAY
280
1
  9
$TILEMODELIGHTSYNCH
280
1
  9
$CMATERIAL
347
20
  9
$SOLIDHIST
280
0
  9
$SHOWHIST
280
1
  9
$DWFFRAME
280
2
  9
$DGNFRAME
280
2
  9
$REALWORLDSCALE
290
1
  9
$INTERFERECOLOR
 62
256
  9
$CSHADOW
280
0
  9
$SHADOWPLANELOCATION
 40
0.0
  0
ENDSEC
  0
SECTION
  2
CLASSES
  0
CLASS
  1
ACDBDICTIONARYWDFLT
  2
AcDbDictionaryWithDefault
  3
ObjectDBX Classes
 90
0
 91
0
280
0
281
0
  0
CLASS
  1
SUN
  2
AcDbSun
  3
SCENEOE
 90
1153
 91
0
280
0
281
0
  0
CLASS
  1
VISUALSTYLE
  2
AcDbVisualStyle
  3
ObjectDBX Classes
 90
4095
 91
0
280
0
281
0
  0
CLASS
  1
MATERIAL
  2
AcDbMaterial
  3
ObjectDBX Classes
 90
1153
 91
0
280
0
281
0
  0
CLASS
  1
SCALE
  2
AcDbScale
  3
ObjectDBX Classes
 90
1153
 91
0
280
0
281
0
  0
CLASS
  1
TABLESTYLE
  2
AcDbTableStyle
  3
ObjectDBX Classes
 90
4095
 91
0
280
0
281
0
  0
CLASS
  1
MLEADERSTYLE
  2
AcDbMLeaderStyle
  3
ACDB_MLEADERSTYLE_CLASS
 90
4095
 91
0
280
0
281
0
  0
CLASS
  1
DICTIONARYVAR
  2
AcDbDictionaryVar
  3
ObjectDBX Classes
 90
0
 91
0
280
0
281
0
  0
CLASS
  1
CELLSTYLEMAP
  2
AcDbCellStyleMap
  3
ObjectDBX Classes
 90
1152
 91
0
280
0
281
0
  0
CLASS
  1
MENTALRAYRENDERSETTINGS
  2
AcDbMentalRayRenderSettings
  3
SCENEOE
 90
1024
 91
0
280
0
281
0
  0
CLASS
  1
ACDBDETAILVIEWSTYLE
  2
AcDbDetailViewStyle
  3
ObjectDBX Classes
 90
1025
 91
0
280
0
281
0
  0
CLASS
  1
ACDBSECTIONVIEWSTYLE
  2
AcDbSectionViewStyle
  3
ObjectDBX Classes
 90
1025
 91
0
280
0
281
0
  0
CLASS
  1
RASTERVARIABLES
  2
AcDbRasterVariables
  3
ISM
 90
0
 91
0
280
0
281
0
  0
CLASS
  1
ACDBPLACEHOLDER
  2
AcDbPlaceHolder
  3
ObjectDBX Classes
 90
0
 91
0
280
0
281
0
  0
CLASS
  1
LAYOUT
  2
AcDbLayout
  3
ObjectDBX Classes
 90
0
 91
0
280
0
281
0
  0
ENDSEC
  0
SECTION
  2
TABLES
  0
TABLE
  2
VPORT
  5
8
330
0
100
AcDbSymbolTable
 70
1
  0
VPORT
  5
23
330
8
100
AcDbSymbolTableRecord
100
AcDbViewportTableRecord
  2
*Active
 70
0
 10
0.0
 20
0.0
 11
1.0
 21
1.0
 12
0.0
 22
0.0
 13
0.0
 23
0.0
 14
0.5
 24
0.5
 15
0.5
 25
0.5
 16
0.0
 26
0.0
 36
1.0
 17
0.0
 27
0.0
 37
0.0
 40
1000.0
 41
1.34
 42
50.0
 43
0.0
 44
0.0
 50
0.0
 51
0.0
 71
0
 72
1000
 73
1
 74
3
 75
0
 76
0
 77
0
 78
0
281
0
 65
0
146
0.0
  0
ENDTAB
  0
TABLE
  2
LTYPE
  5
2
330
0
100
AcDbSymbolTable
 70
3
  0
LTYPE
  5
24
330
2
100
AcDbSymbolTableRecord
100
AcDbLinetypeTableRecord
  2
ByBlock
 70
0
  3

 72
65
 73
0
 40
0.0
  0
LTYPE
  5
25
330
2
100
AcDbSymbolTableRecord
100
AcDbLinetypeTableRecord
  2
ByLayer
 70
0
  3

 72
65
 73
0
 40
0.0
  0
LTYPE
  5
26
330
2
100
AcDbSymbolTableRecord
100
AcDbLinetypeTableRecord
  2
Continuous
 70
0
  3

 72
65
 73
0
 40
0.0
  0
ENDTAB
  0
TABLE
  2
LAYER
  5
1
330
0
100
AcDbSymbolTable
 70
5
  0
LAYER
  5
27
330
1
100
AcDbSymbolTableRecord
100
AcDbLayerTableRecord
  2
0
 70
0
 62
7
  6
Continuous
370
-3
390
13
347
21
  0
LAYER
  5
28
330
1
100
AcDbSymbolTableRecord
100
AcDbLayerTableRecord
  2
Defpoints
 70
0
 62
7
  6
Continuous
290
0
370
-3
390
13
347
21
  0
LAYER
  5
2F
330
1
100
AcDbSymbolTableRecord
100
AcDbLayerTableRecord
  2
FILL_WHITE_FFFFFF
 70
0
 62
7
420
16777215
  6
Continuous
370
-3
390
13
347
21
  0
LAYER
  5
32
330
1
100
AcDbSymbolTableRecord
100
AcDbLayerTableRecord
  2
FILL_BLUE_0000FF
 70
0
 62
7
420
255
  6
Continuous
370
-3
390
13
347
21
  0
LAYER
  5
52
330
1
100
AcDbSymbolTableRecord
100
AcDbLayerTableRecord
  2
STROKE_BLUE_0000FF
 70
0
 62
7
420
255
  6
Continuous
370
-3
390
13
347
21
  0
ENDTAB
  0
TABLE
  2
STYLE
  5
5
330
0
100
AcDbSymbolTable
 70
1
  0
STYLE
  5
29
330
5
100
AcDbSymbolTableRecord
100
AcDbTextStyleTableRecord
  2
Standard
 70
0
 40
0.0
 41
1.0
 50
0.0
 71
0
 42
2.5
  3
txt
  4

  0
ENDTAB
  0
TABLE
  2
VIEW
  5
7
330
0
100
AcDbSymbolTable
 70
0
  0
ENDTAB
  0
TABLE
  2
UCS
  5
6
330
0
100
AcDbSymbolTable
 70
0
  0
ENDTAB
  0
TABLE
  2
APPID
  5
3
330
0
100
AcDbSymbolTable
 70
3
  0
APPID
  5
2A
330
3
100
AcDbSymbolTableRecord
100
AcDbRegAppTableRecord
  2
ACAD
 70
0
  0
APPID
  5
54
330
3
100
AcDbSymbolTableRecord
100
AcDbRegAppTableRecord
  2
HATCHBACKGROUNDCOLOR
 70
0
  0
APPID
  5
55
330
3
100
AcDbSymbolTableRecord
100
AcDbRegAppTableRecord
  2
EZDXF
 70
0
  0
ENDTAB
  0
TABLE
  2
DIMSTYLE
  5
4
330
0
100
AcDbSymbolTable
 70
1
100
AcDbDimStyleTable
  0
DIMSTYLE
105
2B
330
4
100
AcDbSymbolTableRecord
100
AcDbDimStyleTableRecord
  2
Standard
 70
0
 40
1.0
 41
2.5
 42
0.625
 43
3.75
 44
1.25
 45
0.0
 46
0.0
 47
0.0
 48
0.0
 49
2.5
140
2.5
141
2.5
142
0.0
143
0.03937007874
144
1.0
145
0.0
146
1.0
147
0.625
148
0.0
 69
0
 70
0
 71
0
 72
0
 73
0
 74
0
 75
0
 76
0
 77
1
 78
8
 79
3
170
0
171
3
172
1
173
0
174
0
175
0
176
0
177
0
178
0
179
2
271
2
272
2
273
2
274
3
275
0
276
0
277
2
278
44
279
0
280
0
281
0
282
0
283
0
284
8
285
0
286
0
288
0
289
3
290
0
371
-2
372
-2
  0
ENDTAB
  0
TABLE
  2
BLOCK_RECORD
  5
9
330
0
100
AcDbSymbolTable
 70
2
  0
BLOCK_RECORD
  5
17
330
9
100
AcDbSymbolTableRecord
100
AcDbBlockTableRecord
  2
*Model_Space
340
1A
 70
0
280
1
281
0
  0
BLOCK_RECORD
  5
1B
330
9
100
AcDbSymbolTableRecord
100
AcDbBlockTableRecord
  2
*Paper_Space
340
1E
 70
0
280
1
281
0
  0
ENDTAB
  0
ENDSEC
  0
SECTION
  2
BLOCKS
  0
BLOCK
  5
18
330
17
100
AcDbEntity
  8
0
100
AcDbBlockBegin
  2
*Model_Space
 70
0
 10
0.0
 20
0.0
 30
0.0
  3
*Model_Space
  1

  0
ENDBLK
  5
19
330
17
100
AcDbEntity
  8
0
100
AcDbBlockEnd
  0
BLOCK
  5
1C
330
1B
100
AcDbEntity
  8
0
100
AcDbBlockBegin
  2
*Paper_Space
 70
0
 10
0.0
 20
0.0
 30
0.0
  3
*Paper_Space
  1

  0
ENDBLK
  5
1D
330
1B
100
AcDbEntity
  8
0
100
AcDbBlockEnd
  0
ENDSEC
  0
SECTION
  2
ENTITIES
  0
HATCH
  5
30
330
17
100
AcDbEntity
  8
FILL_WHITE_FFFFFF
 62
7
420
16777215
100
AcDbHatch
 10
0.0
 20
0.0
 30
0.0
210
0.0
220
0.0
230
1.0
  2
SOLID
 70
1
 71
0
 91
1
 92
3
 72
0
 73
1
 93
66
 10
474.75
 20
263.28
 10
476.55
 20
263.26
 10
478.35
 20
263.13
 10
480.15
 20
262.77
 10
481.95
 20
262.08
 10
485.55
 20
260.13
 10
487.35
 20
258.87
 10
489.15
 20
257.28
 10
490.05
 20
256.17
 10
490.95
 20
254.73
 10
492.75
 20
251.28
 10
493.44
 20
249.48
 10
493.8
 20
247.68
 10
493.93
 20
245.88
 10
493.95
 20
244.08
 10
493.95
 20
29.28
 10
493.89
 20
27.48
 10
493.71
 20
25.7
 10
493.38
 20
23.94
 10
492.9
 20
22.23
 10
492.25
 20
20.57
 10
491.42
 20
18.99
 10
490.39
 20
17.48
 10
489.15
 20
16.08
 10
487.35
 20
14.49
 10
485.55
 20
13.23
 10
481.95
 20
11.28
 10
480.15
 20
11.09
 10
478.35
 20
10.68
 10
476.55
 20
10.27
 10
474.75
 20
10.08
 10
91.95
 20
10.08
 10
90.15
 20
10.19
 10
88.35
 20
10.51
 10
86.55
 20
11.03
 10
84.75
 20
11.73
 10
82.95
 20
12.6
 10
81.15
 20
13.62
 10
79.35
 20
14.79
 10
77.55
 20
16.08
 10
76.31
 20
17.48
 10
75.28
 20
18.99
 10
74.45
 20
20.57
 10
73.8
 20
22.23
 10
73.32
 20
23.94
 10
72.99
 20
25.7
 10
72.81
 20
27.48
 10
72.75
 20
29.28
 10
72.75
 20
244.08
 10
72.85
 20
246.08
 10
73.13
 20
248.01
 10
73.6
 20
249.86
 10
74.23
 20
251.64
 10
75.03
 20
253.32
 10
75.98
 20
254.9
 10
77.07
 20
256.37
 10
78.3
 20
257.73
 10
79.66
 20
258.96
 10
81.13
 20
260.05
 10
82.71
 20
261.0
 10
84.39
 20
261.8
 10
86.17
 20
262.43
 10
88.02
 20
262.9
 10
89.95
 20
263.18
 10
91.95
 20
263.28
 10
474.75
 20
263.28
 97
0
 75
1
 76
1
 98
0
  0
LWPOLYLINE
  5
31
330
17
100
AcDbEntity
  8
FILL_WHITE_FFFFFF
370
0
420
16777215
100
AcDbPolyline
 90
65
 70
1
 10
474.75
 20
263.28
 10
476.55
 20
263.26
 10
478.35
 20
263.13
 10
480.15
 20
262.77
 10
481.95
 20
262.08
 10
485.55
 20
260.13
 10
487.35
 20
258.87
 10
489.15
 20
257.28
 10
490.05
 20
256.17
 10
490.95
 20
254.73
 10
492.75
 20
251.28
 10
493.44
 20
249.48
 10
493.8
 20
247.68
 10
493.93
 20
245.88
 10
493.95
 20
244.08
 10
493.95
 20
29.28
 10
493.89
 20
27.48
 10
493.71
 20
25.7
 10
493.38
 20
23.94
 10
492.9
 20
22.23
 10
492.25
 20
20.57
 10
491.42
 20
18.99
 10
490.39
 20
17.48
 10
489.15
 20
16.08
 10
487.35
 20
14.49
 10
485.55
 20
13.23
 10
481.95
 20
11.28
 10
480.15
 20
11.09
 10
478.35
 20
10.68
 10
476.55
 20
10.27
 10
474.75
 20
10.08
 10
91.95
 20
10.08
 10
90.15
 20
10.19
 10
88.35
 20
10.51
 10
86.55
 20
11.03
 10
84.75
 20
11.73
 10
82.95
 20
12.6
 10
81.15
 20
13.62
 10
79.35
 20
14.79
 10
77.55
 20
16.08
 10
76.31
 20
17.48
 10
75.28
 20
18.99
 10
74.45
 20
20.57
 10
73.8
 20
22.23
 10
73.32
 20
23.94
 10
72.99
 20
25.7
 10
72.81
 20
27.48
 10
72.75
 20
29.28
 10
72.75
 20
244.08
 10
72.85
 20
246.08
 10
73.13
 20
248.01
 10
73.6
 20
249.86
 10
74.23
 20
251.64
 10
75.03
 20
253.32
 10
75.98
 20
254.9
 10
77.07
 20
256.37
 10
78.3
 20
257.73
 10
79.66
 20
258.96
 10
81.13
 20
260.05
 10
82.71
 20
261.0
 10
84.39
 20
261.8
 10
86.17
 20
262.43
 10
88.02
 20
262.9
 10
89.95
 20
263.18
 10
91.95
 20
263.28
  0
HATCH
  5
33
330
17
100
AcDbEntity
  8
FILL_BLUE_0000FF
 62
7
420
255
100
AcDbHatch
 10
0.0
 20
0.0
 30
0.0
210
0.0
220
0.0
230
1.0
  2
SOLID
 70
1
 71
0
 91
1
 92
3
 72
0
 73
1
 93
43
 10
474.75
 20
253.68
 10
478.35
 20
253.68
 10
479.25
 20
252.97
 10
480.15
 20
252.48
 10
481.05
 20
251.99
 10
481.95
 20
251.28
 10
482.66
 20
250.38
 10
483.15
 20
249.48
 10
483.64
 20
248.58
 10
484.35
 20
247.68
 10
484.35
 20
244.08
 10
484.35
 20
29.28
 10
484.31
 20
27.48
 10
484.05
 20
25.68
 10
483.76
 20
24.78
 10
483.34
 20
23.88
 10
482.74
 20
22.98
 10
481.95
 20
22.08
 10
480.15
 20
21.2
 10
478.35
 20
20.43
 10
476.55
 20
19.89
 10
474.75
 20
19.68
 10
91.95
 20
19.68
 10
90.15
 20
19.89
 10
88.35
 20
20.43
 10
86.55
 20
21.2
 10
84.75
 20
22.08
 10
83.96
 20
22.98
 10
83.36
 20
23.88
 10
82.94
 20
24.78
 10
82.65
 20
25.68
 10
82.39
 20
27.48
 10
82.35
 20
29.28
 10
82.35
 20
244.08
 10
82.52
 20
246.22
 10
83.01
 20
248.11
 10
83.81
 20
249.75
 10
84.9
 20
251.13
 10
86.28
 20
252.22
 10
87.92
 20
253.02
 10
89.81
 20
253.51
 10
91.95
 20
253.68
 10
474.75
 20
253.68
 97
0
 75
1
 76
1
 98
0
  0
LWPOLYLINE
  5
34
330
17
100
AcDbEntity
  8
FILL_BLUE_0000FF
370
0
420
255
100
AcDbPolyline
 90
42
 70
1
 10
474.75
 20
253.68
 10
478.35
 20
253.68
 10
479.25
 20
252.97
 10
480.15
 20
252.48
 10
481.05
 20
251.99
 10
481.95
 20
251.28
 10
482.66
 20
250.38
 10
483.15
 20
249.48
 10
483.64
 20
248.58
 10
484.35
 20
247.68
 10
484.35
 20
244.08
 10
484.35
 20
29.28
 10
484.31
 20
27.48
 10
484.05
 20
25.68
 10
483.76
 20
24.78
 10
483.34
 20
23.88
 10
482.74
 20
22.98
 10
481.95
 20
22.08
 10
480.15
 20
21.2
 10
478.35
 20
20.43
 10
476.55
 20
19.89
 10
474.75
 20
19.68
 10
91.95
 20
19.68
 10
90.15
 20
19.89
 10
88.35
 20
20.43
 10
86.55
 20
21.2
 10
84.75
 20
22.08
 10
83.96
 20
22.98
 10
83.36
 20
23.88
 10
82.94
 20
24.78
 10
82.65
 20
25.68
 10
82.39
 20
27.48
 10
82.35
 20
29.28
 10
82.35
 20
244.08
 10
82.52
 20
246.22
 10
83.01
 20
248.11
 10
83.81
 20
249.75
 10
84.9
 20
251.13
 10
86.28
 20
252.22
 10
87.92
 20
253.02
 10
89.81
 20
253.51
 10
91.95
 20
253.68
  0
HATCH
  5
35
330
17
100
AcDbEntity
  8
FILL_WHITE_FFFFFF
 62
7
420
16777215
100
AcDbHatch
 10
0.0
 20
0.0
 30
0.0
210
0.0
220
0.0
230
1.0
  2
SOLID
 70
1
 71
0
 91
1
 92
3
 72
0
 73
1
 93
5
 10
255.15
 20
44.88
 10
103.95
 20
44.88
 10
103.95
 20
46.08
 10
255.15
 20
46.08
 10
255.15
 20
44.88
 97
0
 75
1
 76
1
 98
0
  0
LWPOLYLINE
  5
36
330
17
100
AcDbEntity
  8
FILL_WHITE_FFFFFF
370
0
420
16777215
100
AcDbPolyline
 90
4
 70
1
 10
255.15
 20
44.88
 10
103.95
 20
44.88
 10
103.95
 20
46.08
 10
255.15
 20
46.08
  0
HATCH
  5
37
330
17
100
AcDbEntity
  8
FILL_WHITE_FFFFFF
 62
7
420
16777215
100
AcDbHatch
 10
0.0
 20
0.0
 30
0.0
210
0.0
220
0.0
230
1.0
  2
SOLID
 70
1
 71
0
 91
1
 92
3
 72
0
 73
1
 93
10
 10
361.95
 20
149.28
 10
345.15
 20
166.08
 10
345.15
 20
73.68
 10
328.35
 20
73.68
 10
328.35
 20
166.08
 10
311.55
 20
149.28
 10
311.55
 20
174.48
 10
336.75
 20
199.68
 10
361.95
 20
174.48
 10
361.95
 20
149.28
 97
0
 75
1
 76
1
 98
0
  0
LWPOLYLINE
  5
38
330
17
100
AcDbEntity
  8
FILL_WHITE_FFFFFF
370
0
420
16777215
100
AcDbPolyline
 90
9
 70
1
 10
361.95
 20
149.28
 10
345.15
 20
166.08
 10
345.15
 20
73.68
 10
328.35
 20
73.68
 10
328.35
 20
166.08
 10
311.55
 20
149.28
 10
311.55
 20
174.48
 10
336.75
 20
199.68
 10
361.95
 20
174.48
  0
HATCH
  5
39
330
17
100
AcDbEntity
  8
FILL_WHITE_FFFFFF
 62
7
420
16777215
100
AcDbHatch
 10
0.0
 20
0.0
 30
0.0
210
0.0
220
0.0
230
1.0
  2
SOLID
 70
1
 71
0
 91
1
 92
3
 72
0
 73
1
 93
10
 10
463.95
 20
149.28
 10
447.15
 20
166.08
 10
447.15
 20
73.68
 10
430.35
 20
73.68
 10
430.35
 20
166.08
 10
413.55
 20
149.28
 10
413.55
 20
174.48
 10
438.75
 20
199.68
 10
463.95
 20
174.48
 10
463.95
 20
149.28
 97
0
 75
1
 76
1
 98
0
  0
LWPOLYLINE
  5
3A
330
17
100
AcDbEntity
  8
FILL_WHITE_FFFFFF
370
0
420
16777215
100
AcDbPolyline
 90
9
 70
1
 10
463.95
 20
149.28
 10
447.15
 20
166.08
 10
447.15
 20
73.68
 10
430.35
 20
73.68
 10
430.35
 20
166.08
 10
413.55
 20
149.28
 10
413.55
 20
174.48
 10
438.75
 20
199.68
 10
463.95
 20
174.48
  0
HATCH
  5
3B
330
17
100
AcDbEntity
  8
FILL_WHITE_FFFFFF
 62
7
420
16777215
100
AcDbHatch
 10
0.0
 20
0.0
 30
0.0
210
0.0
220
0.0
230
1.0
  2
SOLID
 70
1
 71
0
 91
1
 92
3
 72
0
 73
1
 93
5
 10
289.95
 20
240.48
 10
289.95
 20
32.88
 10
277.95
 20
32.88
 10
277.95
 20
240.48
 10
289.95
 20
240.48
 97
0
 75
1
 76
1
 98
0
  0
LWPOLYLINE
  5
3C
330
17
100
AcDbEntity
  8
FILL_WHITE_FFFFFF
370
0
420
16777215
100
AcDbPolyline
 90
4
 70
1
 10
289.95
 20
240.48
 10
289.95
 20
32.88
 10
277.95
 20
32.88
 10
277.95
 20
240.48
  0
HATCH
  5
3D
330
17
100
AcDbEntity
  8
FILL_WHITE_FFFFFF
 62
7
420
16777215
100
AcDbHatch
 10
0.0
 20
0.0
 30
0.0
210
0.0
220
0.0
230
1.0
  2
SOLID
 70
1
 71
0
 91
1
 92
3
 72
0
 73
1
 93
5
 10
391.95
 20
238.08
 10
391.95
 20
187.68
 10
382.35
 20
187.68
 10
382.35
 20
238.08
 10
391.95
 20
238.08
 97
0
 75
1
 76
1
 98
0
  0
LWPOLYLINE
  5
3E
330
17
100
AcDbEntity
  8
FILL_WHITE_FFFFFF
370
0
420
16777215
100
AcDbPolyline
 90
4
 70
1
 10
391.95
 20
238.08
 10
391.95
 20
187.68
 10
382.35
 20
187.68
 10
382.35
 20
238.08
  0
HATCH
  5
3F
330
17
100
AcDbEntity
  8
FILL_WHITE_FFFFFF
 62
7
420
16777215
100
AcDbHatch
 10
0.0
 20
0.0
 30
0.0
210
0.0
220
0.0
230
1.0
  2
SOLID
 70
1
 71
0
 91
1
 92
3
 72
0
 73
1
 93
5
 10
391.95
 20
162.48
 10
391.95
 20
112.08
 10
382.35
 20
112.08
 10
382.35
 20
162.48
 10
391.95
 20
162.48
 97
0
 75
1
 76
1
 98
0
  0
LWPOLYLINE
  5
40
330
17
100
AcDbEntity
  8
FILL_WHITE_FFFFFF
370
0
420
16777215
100
AcDbPolyline
 90
4
 70
1
 10
391.95
 20
162.48
 10
391.95
 20
112.08
 10
382.35
 20
112.08
 10
382.35
 20
162.48
  0
HATCH
  5
41
330
17
100
AcDbEntity
  8
FILL_WHITE_FFFFFF
 62
7
420
16777215
100
AcDbHatch
 10
0.0
 20
0.0
 30
0.0
210
0.0
220
0.0
230
1.0
  2
SOLID
 70
1
 71
0
 91
1
 92
3
 72
0
 73
1
 93
5
 10
391.95
 20
85.68
 10
391.95
 20
35.28
 10
382.35
 20
35.28
 10
382.35
 20
85.68
 10
391.95
 20
85.68
 97
0
 75
1
 76
1
 98
0
  0
LWPOLYLINE
  5
42
330
17
100
AcDbEntity
  8
FILL_WHITE_FFFFFF
370
0
420
16777215
100
AcDbPolyline
 90
4
 70
1
 10
391.95
 20
85.68
 10
391.95
 20
35.28
 10
382.35
 20
35.28
 10
382.35
 20
85.68
  0
HATCH
  5
43
330
17
100
AcDbEntity
  8
FILL_WHITE_FFFFFF
 62
7
420
16777215
100
AcDbHatch
 10
0.0
 20
0.0
 30
0.0
210
0.0
220
0.0
230
1.0
  2
SOLID
 70
1
 71
0
 91
1
 92
3
 72
0
 73
1
 93
10
 10
204.75
 20
181.68
 10
187.95
 20
198.48
 10
187.95
 20
130.08
 10
171.15
 20
130.08
 10
171.15
 20
198.48
 10
154.35
 20
181.68
 10
154.35
 20
206.88
 10
179.55
 20
232.08
 10
204.75
 20
206.88
 10
204.75
 20
181.68
 97
0
 75
1
 76
1
 98
0
  0
LWPOLYLINE
  5
44
330
17
100
AcDbEntity
  8
FILL_WHITE_FFFFFF
370
0
420
16777215
100
AcDbPolyline
 90
9
 70
1
 10
204.75
 20
181.68
 10
187.95
 20
198.48
 10
187.95
 20
130.08
 10
171.15
 20
130.08
 10
171.15
 20
198.48
 10
154.35
 20
181.68
 10
154.35
 20
206.88
 10
179.55
 20
232.08
 10
204.75
 20
206.88
  0
HATCH
  5
45
330
17
100
AcDbEntity
  8
FILL_WHITE_FFFFFF
 62
7
420
16777215
100
AcDbHatch
 10
0.0
 20
0.0
 30
0.0
210
0.0
220
0.0
230
1.0
  2
SOLID
 70
1
 71
0
 91
12
 92
3
 72
0
 73
1
 93
94
 10
236.58
 20
47.78
 10
236.1
 20
47.13
 10
235.45
 20
46.65
 10
234.62
 20
46.32
 10
233.59
 20
46.14
 10
232.35
 20
46.08
 10
231.15
 20
46.23
 10
230.33
 20
46.59
 10
230.05
 20
46.88
 10
229.95
 20
47.28
 10
229.55
 20
47.33
 10
229.26
 20
47.47
 10
228.9
 20
47.88
 10
228.75
 20
48.48
 10
228.75
 20
50.88
 10
222.75
 20
50.88
 10
222.56
 20
49.98
 10
222.15
 20
49.08
 10
221.74
 20
48.18
 10
221.55
 20
47.28
 10
220.65
 20
46.59
 10
219.75
 20
46.23
 10
218.85
 20
46.1
 10
217.95
 20
46.08
 10
217.05
 20
46.1
 10
216.15
 20
46.23
 10
215.25
 20
46.59
 10
214.35
 20
47.28
 10
213.15
 20
48.48
 10
213.15
 20
50.88
 10
147.15
 20
50.88
 10
146.94
 20
49.98
 10
146.4
 20
49.08
 10
144.75
 20
47.28
 10
144.7
 20
46.88
 10
144.54
 20
46.59
 10
144.0
 20
46.23
 10
143.23
 20
46.1
 10
142.35
 20
46.08
 10
141.45
 20
46.1
 10
140.55
 20
46.23
 10
139.65
 20
46.59
 10
138.75
 20
47.28
 10
138.06
 20
48.18
 10
137.7
 20
49.08
 10
137.57
 20
49.98
 10
137.55
 20
50.88
 10
131.55
 20
50.88
 10
131.53
 20
49.98
 10
131.4
 20
49.08
 10
131.04
 20
48.18
 10
130.35
 20
47.28
 10
129.45
 20
46.59
 10
128.55
 20
46.23
 10
127.65
 20
46.1
 10
126.75
 20
46.08
 10
125.85
 20
46.14
 10
124.99
 20
46.32
 10
124.18
 20
46.65
 10
123.45
 20
47.13
 10
122.84
 20
47.78
 10
122.36
 20
48.61
 10
122.06
 20
49.64
 10
121.95
 20
50.88
 10
108.75
 20
50.88
 10
108.75
 20
55.68
 10
109.95
 20
55.68
 10
109.95
 20
64.08
 10
114.75
 20
73.68
 10
114.75
 20
84.48
 10
112.35
 20
84.48
 10
112.35
 20
89.28
 10
147.15
 20
89.28
 10
147.15
 20
92.88
 10
155.55
 20
92.88
 10
133.95
 20
103.68
 10
155.55
 20
114.48
 10
156.75
 20
114.48
 10
136.35
 20
103.68
 10
156.75
 20
92.88
 10
162.75
 20
92.88
 10
162.75
 20
89.28
 10
246.75
 20
89.28
 10
246.75
 20
84.48
 10
245.55
 20
84.48
 10
245.55
 20
66.48
 10
250.35
 20
66.48
 10
250.35
 20
56.88
 10
246.75
 20
55.68
 10
246.75
 20
50.88
 10
237.15
 20
50.88
 10
237.09
 20
49.64
 10
236.91
 20
48.61
 10
236.58
 20
47.78
 97
0
 92
18
 72
0
 73
1
 93
5
 10
221.55
 20
82.08
 10
221.55
 20
62.88
 10
240.75
 20
62.88
 10
240.75
 20
82.08
 10
221.55
 20
82.08
 97
0
 92
18
 72
0
 73
1
 93
5
 10
217.95
 20
82.08
 10
198.75
 20
82.08
 10
198.75
 20
62.88
 10
217.95
 20
62.88
 10
217.95
 20
82.08
 97
0
 92
18
 72
0
 73
1
 93
5
 10
183.15
 20
83.28
 10
183.15
 20
59.28
 10
191.55
 20
59.28
 10
191.55
 20
83.28
 10
183.15
 20
83.28
 97
0
 92
18
 72
0
 73
1
 93
5
 10
177.15
 20
83.28
 10
167.55
 20
83.28
 10
167.55
 20
59.28
 10
177.15
 20
59.28
 10
177.15
 20
83.28
 97
0
 92
18
 72
0
 73
1
 93
5
 10
142.35
 20
82.08
 10
142.35
 20
62.88
 10
160.35
 20
62.88
 10
160.35
 20
82.08
 10
142.35
 20
82.08
 97
0
 92
18
 72
0
 73
1
 93
5
 10
137.55
 20
82.08
 10
119.55
 20
82.08
 10
119.55
 20
62.88
 10
137.55
 20
62.88
 10
137.55
 20
82.08
 97
0
 92
18
 72
0
 73
1
 93
5
 10
117.15
 20
53.28
 10
241.95
 20
53.28
 10
241.95
 20
55.68
 10
117.15
 20
55.68
 10
117.15
 20
53.28
 97
0
 92
18
 72
0
 73
1
 93
11
 10
125.55
 20
48.48
 10
126.75
 20
48.48
 10
127.63
 20
48.69
 10
128.4
 20
49.23
 10
128.94
 20
50.0
 10
129.15
 20
50.88
 10
124.35
 20
50.88
 10
124.37
 20
50.17
 10
124.5
 20
49.68
 10
124.86
 20
49.19
 10
125.55
 20
48.48
 97
0
 92
18
 72
0
 73
1
 93
7
 10
142.95
 20
49.23
 10
143.36
 20
50.0
 10
143.55
 20
50.88
 10
139.95
 20
50.88
 10
139.95
 20
48.48
 10
142.35
 20
48.48
 10
142.95
 20
49.23
 97
0
 92
18
 72
0
 73
1
 93
12
 10
215.7
 20
49.68
 10
216.06
 20
49.19
 10
216.75
 20
48.48
 10
217.95
 20
48.48
 10
218.35
 20
48.53
 10
218.64
 20
48.69
 10
219.0
 20
49.23
 10
219.13
 20
50.0
 10
219.15
 20
50.88
 10
215.55
 20
50.88
 10
215.57
 20
50.17
 10
215.7
 20
49.68
 97
0
 92
18
 72
0
 73
1
 93
8
 10
231.15
 20
48.48
 10
232.35
 20
48.48
 10
233.23
 20
48.69
 10
234.0
 20
49.23
 10
234.54
 20
50.0
 10
234.75
 20
50.88
 10
231.15
 20
50.88
 10
231.15
 20
48.48
 97
0
 75
1
 76
1
 98
0
  0
LWPOLYLINE
  5
46
330
17
100
AcDbEntity
  8
FILL_WHITE_FFFFFF
370
0
420
16777215
100
AcDbPolyline
 90
93
 70
1
 10
236.58
 20
47.78
 10
236.1
 20
47.13
 10
235.45
 20
46.65
 10
234.62
 20
46.32
 10
233.59
 20
46.14
 10
232.35
 20
46.08
 10
231.15
 20
46.23
 10
230.33
 20
46.59
 10
230.05
 20
46.88
 10
229.95
 20
47.28
 10
229.55
 20
47.33
 10
229.26
 20
47.47
 10
228.9
 20
47.88
 10
228.75
 20
48.48
 10
228.75
 20
50.88
 10
222.75
 20
50.88
 10
222.56
 20
49.98
 10
222.15
 20
49.08
 10
221.74
 20
48.18
 10
221.55
 20
47.28
 10
220.65
 20
46.59
 10
219.75
 20
46.23
 10
218.85
 20
46.1
 10
217.95
 20
46.08
 10
217.05
 20
46.1
 10
216.15
 20
46.23
 10
215.25
 20
46.59
 10
214.35
 20
47.28
 10
213.15
 20
48.48
 10
213.15
 20
50.88
 10
147.15
 20
50.88
 10
146.94
 20
49.98
 10
146.4
 20
49.08
 10
144.75
 20
47.28
 10
144.7
 20
46.88
 10
144.54
 20
46.59
 10
144.0
 20
46.23
 10
143.23
 20
46.1
 10
142.35
 20
46.08
 10
141.45
 20
46.1
 10
140.55
 20
46.23
 10
139.65
 20
46.59
 10
138.75
 20
47.28
 10
138.06
 20
48.18
 10
137.7
 20
49.08
 10
137.57
 20
49.98
 10
137.55
 20
50.88
 10
131.55
 20
50.88
 10
131.53
 20
49.98
 10
131.4
 20
49.08
 10
131.04
 20
48.18
 10
130.35
 20
47.28
 10
129.45
 20
46.59
 10
128.55
 20
46.23
 10
127.65
 20
46.1
 10
126.75
 20
46.08
 10
125.85
 20
46.14
 10
124.99
 20
46.32
 10
124.18
 20
46.65
 10
123.45
 20
47.13
 10
122.84
 20
47.78
 10
122.36
 20
48.61
 10
122.06
 20
49.64
 10
121.95
 20
50.88
 10
108.75
 20
50.88
 10
108.75
 20
55.68
 10
109.95
 20
55.68
 10
109.95
 20
64.08
 10
114.75
 20
73.68
 10
114.75
 20
84.48
 10
112.35
 20
84.48
 10
112.35
 20
89.28
 10
147.15
 20
89.28
 10
147.15
 20
92.88
 10
155.55
 20
92.88
 10
133.95
 20
103.68
 10
155.55
 20
114.48
 10
156.75
 20
114.48
 10
136.35
 20
103.68
 10
156.75
 20
92.88
 10
162.75
 20
92.88
 10
162.75
 20
89.28
 10
246.75
 20
89.28
 10
246.75
 20
84.48
 10
245.55
 20
84.48
 10
245.55
 20
66.48
 10
250.35
 20
66.48
 10
250.35
 20
56.88
 10
246.75
 20
55.68
 10
246.75
 20
50.88
 10
237.15
 20
50.88
 10
237.09
 20
49.64
 10
236.91
 20
48.61
  0
LWPOLYLINE
  5
47
330
17
100
AcDbEntity
  8
FILL_WHITE_FFFFFF
370
0
420
16777215
100
AcDbPolyline
 90
4
 70
1
 10
221.55
 20
82.08
 10
221.55
 20
62.88
 10
240.75
 20
62.88
 10
240.75
 20
82.08
  0
LWPOLYLINE
  5
48
330
17
100
AcDbEntity
  8
FILL_WHITE_FFFFFF
370
0
420
16777215
100
AcDbPolyline
 90
4
 70
1
 10
217.95
 20
82.08
 10
198.75
 20
82.08
 10
198.75
 20
62.88
 10
217.95
 20
62.88
  0
LWPOLYLINE
  5
49
330
17
100
AcDbEntity
  8
FILL_WHITE_FFFFFF
370
0
420
16777215
100
AcDbPolyline
 90
4
 70
1
 10
183.15
 20
83.28
 10
183.15
 20
59.28
 10
191.55
 20
59.28
 10
191.55
 20
83.28
  0
LWPOLYLINE
  5
4A
330
17
100
AcDbEntity
  8
FILL_WHITE_FFFFFF
370
0
420
16777215
100
AcDbPolyline
 90
4
 70
1
 10
177.15
 20
83.28
 10
167.55
 20
83.28
 10
167.55
 20
59.28
 10
177.15
 20
59.28
  0
LWPOLYLINE
  5
4B
330
17
100
AcDbEntity
  8
FILL_WHITE_FFFFFF
370
0
420
16777215
100
AcDbPolyline
 90
4
 70
1
 10
142.35
 20
82.08
 10
142.35
 20
62.88
 10
160.35
 20
62.88
 10
160.35
 20
82.08
  0
LWPOLYLINE
  5
4C
330
17
100
AcDbEntity
  8
FILL_WHITE_FFFFFF
370
0
420
16777215
100
AcDbPolyline
 90
4
 70
1
 10
137.55
 20
82.08
 10
119.55
 20
82.08
 10
119.55
 20
62.88
 10
137.55
 20
62.88
  0
LWPOLYLINE
  5
4D
330
17
100
AcDbEntity
  8
FILL_WHITE_FFFFFF
370
0
420
16777215
100
AcDbPolyline
 90
4
 70
1
 10
117.15
 20
53.28
 10
241.95
 20
53.28
 10
241.95
 20
55.68
 10
117.15
 20
55.68
  0
LWPOLYLINE
  5
4E
330
17
100
AcDbEntity
  8
FILL_WHITE_FFFFFF
370
0
420
16777215
100
AcDbPolyline
 90
10
 70
1
 10
125.55
 20
48.48
 10
126.75
 20
48.48
 10
127.63
 20
48.69
 10
128.4
 20
49.23
 10
128.94
 20
50.0
 10
129.15
 20
50.88
 10
124.35
 20
50.88
 10
124.37
 20
50.17
 10
124.5
 20
49.68
 10
124.86
 20
49.19
  0
LWPOLYLINE
  5
4F
330
17
100
AcDbEntity
  8
FILL_WHITE_FFFFFF
370
0
420
16777215
100
AcDbPolyline
 90
6
 70
1
 10
142.95
 20
49.23
 10
143.36
 20
50.0
 10
143.55
 20
50.88
 10
139.95
 20
50.88
 10
139.95
 20
48.48
 10
142.35
 20
48.48
  0
LWPOLYLINE
  5
50
330
17
100
AcDbEntity
  8
FILL_WHITE_FFFFFF
370
0
420
16777215
100
AcDbPolyline
 90
11
 70
1
 10
215.7
 20
49.68
 10
216.06
 20
49.19
 10
216.75
 20
48.48
 10
217.95
 20
48.48
 10
218.35
 20
48.53
 10
218.64
 20
48.69
 10
219.0
 20
49.23
 10
219.13
 20
50.0
 10
219.15
 20
50.88
 10
215.55
 20
50.88
 10
215.57
 20
50.17
  0
LWPOLYLINE
  5
51
330
17
100
AcDbEntity
  8
FILL_WHITE_FFFFFF
370
0
420
16777215
100
AcDbPolyline
 90
7
 70
1
 10
231.15
 20
48.48
 10
232.35
 20
48.48
 10
233.23
 20
48.69
 10
234.0
 20
49.23
 10
234.54
 20
50.0
 10
234.75
 20
50.88
 10
231.15
 20
50.88
  0
LWPOLYLINE
  5
53
330
17
100
AcDbEntity
  8
STROKE_BLUE_0000FF
370
0
420
255
100
AcDbPolyline
 90
69
 70
0
 10
474.7500000000002
 20
263.27999999999975
 10
476.74541015625016
 20
263.18302734374976
 10
478.67578125000017
 20
262.89796874999973
 10
480.5323242187501
 20
262.4336132812498
 10
482.30625000000015
 20
261.7987499999998
 10
483.9887695312501
 20
261.0021679687498
 10
485.57109375000005
 20
260.05265624999987
 10
487.04443359375006
 20
258.9590039062499
 10
488.4
 20
257.7299999999999
 10
489.62900390625003
 20
256.3744335937499
 10
490.72265625
 20
254.90109374999994
 10
491.67216796875005
 20
253.31876953124996
 10
492.46875
 20
251.63624999999996
 10
493.10361328125003
 20
249.86232421874996
 10
493.56796875000003
 20
248.00578124999998
 10
493.85302734375006
 20
246.07541015624994
 10
493.95000000000005
 20
244.07999999999993
 10
493.95000000000005
 20
29.279999999999745
 10
493.85302734375006
 20
27.28458984374987
 10
493.56796875000003
 20
25.354218749999973
 10
493.10361328125003
 20
23.497675781250024
 10
492.46875
 20
21.723750000000052
 10
491.67216796875005
 20
20.041230468750086
 10
490.72265625
 20
18.458906250000098
 10
489.62900390625003
 20
16.985566406250143
 10
488.4
 20
15.63000000000011
 10
487.04443359375006
 20
14.40099609375011
 10
485.57109375000005
 20
13.30734375000003
 10
483.9887695312501
 20
12.357832031250041
 10
482.3062500000001
 20
11.56125000000003
 10
480.5323242187501
 20
10.926386718749995
 10
478.6757812500001
 20
10.462031249999995
 10
476.74541015625016
 20
10.176972656249916
 10
474.7500000000002
 20
10.079999999999927
 10
91.95000000000027
 20
10.079999999999927
 10
89.95458984375024
 20
10.176972656249916
 10
88.0242187500002
 20
10.462031249999995
 10
86.16767578125018
 20
10.926386718749995
 10
84.39375000000015
 20
11.561249999999973
 10
82.71123046875013
 20
12.357832031250041
 10
81.12890625000011
 20
13.30734375000003
 10
79.65556640625007
 20
14.40099609375011
 10
78.30000000000007
 20
15.63000000000011
 10
77.07099609375005
 20
16.985566406250086
 10
75.97734375000005
 20
18.458906250000098
 10
75.02783203125003
 20
20.041230468750086
 10
74.23125000000002
 20
21.72375000000008
 10
73.59638671875001
 20
23.497675781249995
 10
73.13203125000001
 20
25.354218749999973
 10
72.84697265625
 20
27.28458984374987
 10
72.75
 20
29.279999999999745
 10
72.75
 20
244.07999999999993
 10
72.84697265625
 20
246.07541015624994
 10
73.13203125
 20
248.00578124999998
 10
73.59638671875001
 20
249.86232421874996
 10
74.23125000000002
 20
251.63624999999996
 10
75.02783203125004
 20
253.31876953124996
 10
75.97734375000005
 20
254.90109374999994
 10
77.07099609375005
 20
256.3744335937499
 10
78.30000000000007
 20
257.7299999999999
 10
79.65556640625007
 20
258.9590039062499
 10
81.12890625000011
 20
260.05265624999987
 10
82.71123046875013
 20
261.0021679687498
 10
84.39375000000015
 20
261.7987499999998
 10
86.16767578125018
 20
262.4336132812498
 10
88.0242187500002
 20
262.89796874999973
 10
89.95458984375024
 20
263.18302734374976
 10
91.95000000000027
 20
263.27999999999975
 10
474.7500000000002
 20
263.27999999999975
  0
ENDSEC
  0
SECTION
  2
OBJECTS
  0
DICTIONARY
  5
A
330
0
100
AcDbDictionary
281
1
  3
ACAD_COLOR
350
B
  3
ACAD_GROUP
350
C
  3
ACAD_LAYOUT
350
D
  3
ACAD_MATERIAL
350
E
  3
ACAD_MLEADERSTYLE
350
F
  3
ACAD_MLINESTYLE
350
10
  3
ACAD_PLOTSETTINGS
350
11
  3
ACAD_PLOTSTYLENAME
350
12
  3
ACAD_SCALELIST
350
14
  3
ACAD_TABLESTYLE
350
15
  3
ACAD_VISUALSTYLE
350
16
  3
EZDXF_META
350
2D
  0
DICTIONARY
  5
B
330
A
100
AcDbDictionary
281
1
  0
DICTIONARY
  5
C
330
A
100
AcDbDictionary
281
1
  0
DICTIONARY
  5
D
330
A
100
AcDbDictionary
281
1
  3
Model
350
1A
  3
Layout1
350
1E
  0
DICTIONARY
  5
E
330
A
100
AcDbDictionary
281
1
  3
ByBlock
350
1F
  3
ByLayer
350
20
  3
Global
350
21
  0
DICTIONARY
  5
F
330
A
100
AcDbDictionary
281
1
  3
Standard
350
2C
  0
DICTIONARY
  5
10
330
A
100
AcDbDictionary
281
1
  3
Standard
350
22
  0
DICTIONARY
  5
11
330
A
100
AcDbDictionary
281
1
  0
ACDBDICTIONARYWDFLT
  5
12
330
A
100
AcDbDictionary
281
1
  3
Normal
350
13
100
AcDbDictionaryWithDefault
340
13
  0
ACDBPLACEHOLDER
  5
13
330
12
  0
DICTIONARY
  5
14
330
A
100
AcDbDictionary
281
1
  0
DICTIONARY
  5
15
330
A
100
AcDbDictionary
281
1
  0
DICTIONARY
  5
16
330
A
100
AcDbDictionary
281
1
  0
LAYOUT
  5
1A
330
D
100
AcDbPlotSettings
  1

  4
A3
  6

 40
7.5
 41
20.0
 42
7.5
 43
20.0
 44
420.0
 45
297.0
 46
0.0
 47
0.0
 48
0.0
 49
0.0
140
0.0
141
0.0
142
1.0
143
1.0
 70
1024
 72
1
 73
0
 74
5
  7

 75
16
 76
0
 77
2
 78
300
147
1.0
148
0.0
149
0.0
100
AcDbLayout
  1
Model
 70
1
 71
0
 10
0.0
 20
0.0
 11
420.0
 21
297.0
 12
0.0
 22
0.0
 32
0.0
 14
1e+20
 24
1e+20
 34
1e+20
 15
-1e+20
 25
-1e+20
 35
-1e+20
146
0.0
 13
0.0
 23
0.0
 33
0.0
 16
1.0
 26
0.0
 36
0.0
 17
0.0
 27
1.0
 37
0.0
 76
1
330
17
  0
LAYOUT
  5
1E
330
D
100
AcDbPlotSettings
  1

  4
A3
  6

 40
7.5
 41
20.0
 42
7.5
 43
20.0
 44
420.0
 45
297.0
 46
0.0
 47
0.0
 48
0.0
 49
0.0
140
0.0
141
0.0
142
1.0
143
1.0
 70
0
 72
1
 73
0
 74
5
  7

 75
16
 76
0
 77
2
 78
300
147
1.0
148
0.0
149
0.0
100
AcDbLayout
  1
Layout1
 70
1
 71
1
 10
0.0
 20
0.0
 11
420.0
 21
297.0
 12
0.0
 22
0.0
 32
0.0
 14
1e+20
 24
1e+20
 34
1e+20
 15
-1e+20
 25
-1e+20
 35
-1e+20
146
0.0
 13
0.0
 23
0.0
 33
0.0
 16
1.0
 26
0.0
 36
0.0
 17
0.0
 27
1.0
 37
0.0
 76
1
330
1B
  0
MATERIAL
  5
1F
102
{ACAD_REACTORS
330
E
102
}
330
E
100
AcDbMaterial
  1
ByBlock
  2

 70
0
 40
1.0
 71
1
 41
1.0
 91
-1023410177
 42
1.0
 72
1
  3

 73
1
 74
1
 75
1
 44
0.5
 73
0
 45
1.0
 46
1.0
 77
1
  4

 78
1
 79
1
170
1
 48
1.0
171
1
  6

172
1
173
1
174
1
140
1.0
141
1.0
175
1
  7

176
1
177
1
178
1
143
1.0
179
1
  8

270
1
271
1
272
1
145
1.0
146
1.0
273
1
  9

274
1
275
1
276
1
 42
1.0
 72
1
  3

 73
1
 74
1
 75
1
 94
63
  0
MATERIAL
  5
20
102
{ACAD_REACTORS
330
E
102
}
330
E
100
AcDbMaterial
  1
ByLayer
  2

 70
0
 40
1.0
 71
1
 41
1.0
 91
-1023410177
 42
1.0
 72
1
  3

 73
1
 74
1
 75
1
 44
0.5
 73
0
 45
1.0
 46
1.0
 77
1
  4

 78
1
 79
1
170
1
 48
1.0
171
1
  6

172
1
173
1
174
1
140
1.0
141
1.0
175
1
  7

176
1
177
1
178
1
143
1.0
179
1
  8

270
1
271
1
272
1
145
1.0
146
1.0
273
1
  9

274
1
275
1
276
1
 42
1.0
 72
1
  3

 73
1
 74
1
 75
1
 94
63
  0
MATERIAL
  5
21
102
{ACAD_REACTORS
330
E
102
}
330
E
100
AcDbMaterial
  1
Global
  2

 70
0
 40
1.0
 71
1
 41
1.0
 91
-1023410177
 42
1.0
 72
1
  3

 73
1
 74
1
 75
1
 44
0.5
 73
0
 45
1.0
 46
1.0
 77
1
  4

 78
1
 79
1
170
1
 48
1.0
171
1
  6

172
1
173
1
174
1
140
1.0
141
1.0
175
1
  7

176
1
177
1
178
1
143
1.0
179
1
  8

270
1
271
1
272
1
145
1.0
146
1.0
273
1
  9

274
1
275
1
276
1
 42
1.0
 72
1
  3

 73
1
 74
1
 75
1
 94
63
  0
MLINESTYLE
  5
22
102
{ACAD_REACTORS
330
10
102
}
330
10
100
AcDbMlineStyle
  2
Standard
 70
0
  3

 62
256
 51
90.0
 52
90.0
 71
2
 49
0.5
 62
256
  6
BYLAYER
 49
-0.5
 62
256
  6
BYLAYER
  0
MLEADERSTYLE
  5
2C
102
{ACAD_REACTORS
330
F
102
}
330
F
100
AcDbMLeaderStyle
179
2
170
2
171
1
172
0
 90
2
 40
0.0
 41
0.0
173
1
 91
-1056964608
 92
-2
290
1
 42
2.0
291
1
 43
8.0
  3
Standard
 44
4.0
300

342
29
174
1
175
1
176
0
178
1
 93
-1056964608
 45
4.0
292
0
297
0
 46
4.0
 94
-1056964608
 47
1.0
 49
1.0
140
1.0
294
1
141
0.0
177
0
142
1.0
295
0
296
0
143
3.75
271
0
272
9
273
9
  0
DICTIONARY
  5
2D
330
A
100
AcDbDictionary
280
1
281
1
  3
CREATED_BY_EZDXF
350
2E
  3
WRITTEN_BY_EZDXF
350
56
  0
DICTIONARYVAR
  5
2E
330
2D
100
DictionaryVariables
280
0
  1
1.4.4 @ 2026-07-10T01:53:53.188288+00:00
  0
DICTIONARYVAR
  5
56
330
2D
100
DictionaryVariables
280
0
  1
1.4.4 @ 2026-07-10T01:53:53.193670+00:00
  0
ENDSEC
  0
EOF
