  0
SECTION
  2
HEADER
  9
$ACADVER
  1
AC1024
  9
$ACADMAINTVER
 70
6
  9
$DWGCODEPAGE
  3
ANSI_1252
  9
$LASTSAVEDBY
  1
ezdxf
  9
$INSBASE
 10
0.0
 20
0.0
 30
0.0
  9
$EXTMIN
 10
1e+20
 20
1e+20
 30
1e+20
  9
$EXTMAX
 10
-1e+20
 20
-1e+20
 30
-1e+20
  9
$LIMMIN
 10
0.0
 20
0.0
  9
$LIMMAX
 10
420.0
 20
297.0
  9
$ORTHOMODE
 70
0
  9
$REGENMODE
 70
1
  9
$FILLMODE
 70
1
  9
$QTEXTMODE
 70
0
  9
$MIRRTEXT
 70
1
  9
$LTSCALE
 40
1.0
  9
$ATTMODE
 70
1
  9
$TEXTSIZE
 40
2.5
  9
$TRACEWID
 40
1.0
  9
$TEXTSTYLE
  7
Standard
  9
$CLAYER
  8
0
  9
$CELTYPE
  6
ByLayer
  9
$CECOLOR
 62
256
  9
$CELTSCALE
 40
1.0
  9
$DISPSILH
 70
0
  9
$DIMSCALE
 40
1.0
  9
$DIMASZ
 40
2.5
  9
$DIMEXO
 40
0.625
  9
$DIMDLI
 40
3.75
  9
$DIMRND
 40
0.0
  9
$DIMDLE
 40
0.0
  9
$DIMEXE
 40
1.25
  9
$DIMTP
 40
0.0
  9
$DIMTM
 40
0.0
  9
$DIMTXT
 40
2.5
  9
$DIMCEN
 40
2.5
  9
$DIMTSZ
 40
0.0
  9
$DIMTOL
 70
0
  9
$DIMLIM
 70
0
  9
$DIMTIH
 70
0
  9
$DIMTOH
 70
0
  9
$DIMSE1
 70
0
  9
$DIMSE2
 70
0
  9
$DIMTAD
 70
1
  9
$DIMZIN
 70
8
  9
$DIMBLK
  1

  9
$DIMASO
 70
1
  9
$DIMSHO
 70
1
  9
$DIMPOST
  1

  9
$DIMAPOST
  1

  9
$DIMALT
 70
0
  9
$DIMALTD
 70
3
  9
$DIMALTF
 40
0.03937007874
  9
$DIMLFAC
 40
1.0
  9
$DIMTOFL
 70
1
  9
$DIMTVP
 40
0.0
  9
$DIMTIX
 70
0
  9
$DIMSOXD
 70
0
  9
$DIMSAH
 70
0
  9
$DIMBLK1
  1

  9
$DIMBLK2
  1

  9
$DIMSTYLE
  2
ISO-25
  9
$DIMCLRD
 70
0
  9
$DIMCLRE
 70
0
  9
$DIMCLRT
 70
0
  9
$DIMTFAC
 40
1.0
  9
$DIMGAP
 40
0.625
  9
$DIMJUST
 70
0
  9
$DIMSD1
 70
0
  9
$DIMSD2
 70
0
  9
$DIMTOLJ
 70
0
  9
$DIMTZIN
 70
8
  9
$DIMALTZ
 70
0
  9
$DIMALTTZ
 70
0
  9
$DIMUPT
 70
0
  9
$DIMDEC
 70
2
  9
$DIMTDEC
 70
2
  9
$DIMALTU
 70
2
  9
$DIMALTTD
 70
3
  9
$DIMTXSTY
  7
Standard
  9
$DIMAUNIT
 70
0
  9
$DIMADEC
 70
0
  9
$DIMALTRND
 40
0.0
  9
$DIMAZIN
 70
0
  9
$DIMDSEP
 70
44
  9
$DIMATFIT
 70
3
  9
$DIMFRAC
 70
0
  9
$DIMLDRBLK
  1

  9
$DIMLUNIT
 70
2
  9
$DIMLWD
 70
-2
  9
$DIMLWE
 70
-2
  9
$DIMTMOVE
 70
0
  9
$DIMFXL
 40
1.0
  9
$DIMFXLON
 70
0
  9
$DIMJOGANG
 40
0.785398163397
  9
$DIMTFILL
 70
0
  9
$DIMTFILLCLR
 70
0
  9
$DIMARCSYM
 70
0
  9
$DIMLTYPE
  6

  9
$DIMLTEX1
  6

  9
$DIMLTEX2
  6

  9
$DIMTXTDIRECTION
 70
0
  9
$LUNITS
 70
2
  9
$LUPREC
 70
4
  9
$SKETCHINC
 40
1.0
  9
$FILLETRAD
 40
10.0
  9
$AUNITS
 70
0
  9
$AUPREC
 70
2
  9
$MENU
  1
.
  9
$ELEVATION
 40
0.0
  9
$PELEVATION
 40
0.0
  9
$THICKNESS
 40
0.0
  9
$LIMCHECK
 70
0
  9
$CHAMFERA
 40
0.0
  9
$CHAMFERB
 40
0.0
  9
$CHAMFERC
 40
0.0
  9
$CHAMFERD
 40
0.0
  9
$SKPOLY
 70
0
  9
$TDCREATE
 40
2461232.4124305556
  9
$TDUCREATE
 40
2458532.153996898
  9
$TDUPDATE
 40
2461232.4124305556
  9
$TDUUPDATE
 40
2458532.1544311
  9
$TDINDWG
 40
0.0
  9
$TDUSRTIMER
 40
0.0
  9
$USRTIMER
 70
1
  9
$ANGBASE
 50
0.0
  9
$ANGDIR
 70
0
  9
$PDMODE
 70
0
  9
$PDSIZE
 40
0.0
  9
$PLINEWID
 40
0.0
  9
$SPLFRAME
 70
0
  9
$SPLINETYPE
 70
6
  9
$SPLINESEGS
 70
8
  9
$HANDSEED
  5
75
  9
$SURFTAB1
 70
6
  9
$SURFTAB2
 70
6
  9
$SURFTYPE
 70
6
  9
$SURFU
 70
6
  9
$SURFV
 70
6
  9
$UCSBASE
  2

  9
$UCSNAME
  2

  9
$UCSORG
 10
0.0
 20
0.0
 30
0.0
  9
$UCSXDIR
 10
1.0
 20
0.0
 30
0.0
  9
$UCSYDIR
 10
0.0
 20
1.0
 30
0.0
  9
$UCSORTHOREF
  2

  9
$UCSORTHOVIEW
 70
0
  9
$UCSORGTOP
 10
0.0
 20
0.0
 30
0.0
  9
$UCSORGBOTTOM
 10
0.0
 20
0.0
 30
0.0
  9
$UCSORGLEFT
 10
0.0
 20
0.0
 30
0.0
  9
$UCSORGRIGHT
 10
0.0
 20
0.0
 30
0.0
  9
$UCSORGFRONT
 10
0.0
 20
0.0
 30
0.0
  9
$UCSORGBACK
 10
0.0
 20
0.0
 30
0.0
  9
$PUCSBASE
  2

  9
$PUCSNAME
  2

  9
$PUCSORG
 10
0.0
 20
0.0
 30
0.0
  9
$PUCSXDIR
 10
1.0
 20
0.0
 30
0.0
  9
$PUCSYDIR
 10
0.0
 20
1.0
 30
0.0
  9
$PUCSORTHOREF
  2

  9
$PUCSORTHOVIEW
 70
0
  9
$PUCSORGTOP
 10
0.0
 20
0.0
 30
0.0
  9
$PUCSORGBOTTOM
 10
0.0
 20
0.0
 30
0.0
  9
$PUCSORGLEFT
 10
0.0
 20
0.0
 30
0.0
  9
$PUCSORGRIGHT
 10
0.0
 20
0.0
 30
0.0
  9
$PUCSORGFRONT
 10
0.0
 20
0.0
 30
0.0
  9
$PUCSORGBACK
 10
0.0
 20
0.0
 30
0.0
  9
$USERI1
 70
0
  9
$USERI2
 70
0
  9
$USERI3
 70
0
  9
$USERI4
 70
0
  9
$USERI5
 70
0
  9
$USERR1
 40
0.0
  9
$USERR2
 40
0.0
  9
$USERR3
 40
0.0
  9
$USERR4
 40
0.0
  9
$USERR5
 40
0.0
  9
$WORLDVIEW
 70
1
  9
$SHADEDGE
 70
3
  9
$SHADEDIF
 70
70
  9
$TILEMODE
 70
1
  9
$MAXACTVP
 70
64
  9
$PINSBASE
 10
0.0
 20
0.0
 30
0.0
  9
$PLIMCHECK
 70
0
  9
$PEXTMIN
 10
1e+20
 20
1e+20
 30
1e+20
  9
$PEXTMAX
 10
-1e+20
 20
-1e+20
 30
-1e+20
  9
$PLIMMIN
 10
0.0
 20
0.0
  9
$PLIMMAX
 10
420.0
 20
297.0
  9
$UNITMODE
 70
0
  9
$VISRETAIN
 70
1
  9
$PLINEGEN
 70
0
  9
$PSLTSCALE
 70
1
  9
$TREEDEPTH
 70
3020
  9
$CMLSTYLE
  2
Standard
  9
$CMLJUST
 70
0
  9
$CMLSCALE
 40
20.0
  9
$PROXYGRAPHICS
 70
1
  9
$MEASUREMENT
 70
1
  9
$CELWEIGHT
370
-1
  9
$ENDCAPS
280
0
  9
$JOINSTYLE
280
0
  9
$LWDISPLAY
290
0
  9
$INSUNITS
 70
6
  9
$HYPERLINKBASE
  1

  9
$STYLESHEET
  1

  9
$XEDIT
290
1
  9
$CEPSNTYPE
380
0
  9
$PSTYLEMODE
290
1
  9
$FINGERPRINTGUID
  2
{7CD11118-3AE8-41E8-A3EE-A3BEF5B57527}
  9
$VERSIONGUID
  2
{B91CA3E9-D3E8-4C3E-96F7-554E4665C968}
  9
$EXTNAMES
290
1
  9
$PSVPSCALE
 40
0.0
  9
$OLESTARTUP
290
0
  9
$SORTENTS
280
127
  9
$INDEXCTL
280
0
  9
$HIDETEXT
280
1
  9
$XCLIPFRAME
280
1
  9
$HALOGAP
280
0
  9
$OBSCOLOR
 70
257
  9
$OBSLTYPE
280
0
  9
$INTERSECTIONDISPLAY
280
0
  9
$INTERSECTIONCOLOR
 70
257
  9
$DIMASSOC
280
2
  9
$PROJECTNAME
  1

  9
$CAMERADISPLAY
290
0
  9
$LENSLENGTH
 40
50.0
  9
$CAMERAHEIGHT
 40
0.0
  9
$STEPSPERSEC
 40
24.0
  9
$STEPSIZE
 40
100.0
  9
$3DDWFPREC
 40
2.0
  9
$PSOLWIDTH
 40
0.005
  9
$PSOLHEIGHT
 40
0.08
  9
$LOFTANG1
 40
1.570796326795
  9
$LOFTANG2
 40
1.570796326795
  9
$LOFTMAG1
 40
0.0
  9
$LOFTMAG2
 40
0.0
  9
$LOFTPARAM
 70
7
  9
$LOFTNORMALS
280
1
  9
$LATITUDE
 40
37.795
  9
$LONGITUDE
 40
-122.394
  9
$NORTHDIRECTION
 40
0.0
  9
$TIMEZONE
 70
-8000
  9
$LIGHTGLYPHDISPLAY
280
1
  9
$TILEMODELIGHTSYNCH
280
1
  9
$CMATERIAL
347
20
  9
$SOLIDHIST
280
0
  9
$SHOWHIST
280
1
  9
$DWFFRAME
280
2
  9
$DGNFRAME
280
2
  9
$REALWORLDSCALE
290
1
  9
$INTERFERECOLOR
 62
256
  9
$CSHADOW
280
0
  9
$SHADOWPLANELOCATION
 40
0.0
  0
ENDSEC
  0
SECTION
  2
CLASSES
  0
CLASS
  1
ACDBDICTIONARYWDFLT
  2
AcDbDictionaryWithDefault
  3
ObjectDBX Classes
 90
0
 91
0
280
0
281
0
  0
CLASS
  1
SUN
  2
AcDbSun
  3
SCENEOE
 90
1153
 91
0
280
0
281
0
  0
CLASS
  1
VISUALSTYLE
  2
AcDbVisualStyle
  3
ObjectDBX Classes
 90
4095
 91
0
280
0
281
0
  0
CLASS
  1
MATERIAL
  2
AcDbMaterial
  3
ObjectDBX Classes
 90
1153
 91
0
280
0
281
0
  0
CLASS
  1
SCALE
  2
AcDbScale
  3
ObjectDBX Classes
 90
1153
 91
0
280
0
281
0
  0
CLASS
  1
TABLESTYLE
  2
AcDbTableStyle
  3
ObjectDBX Classes
 90
4095
 91
0
280
0
281
0
  0
CLASS
  1
MLEADERSTYLE
  2
AcDbMLeaderStyle
  3
ACDB_MLEADERSTYLE_CLASS
 90
4095
 91
0
280
0
281
0
  0
CLASS
  1
DICTIONARYVAR
  2
AcDbDictionaryVar
  3
ObjectDBX Classes
 90
0
 91
0
280
0
281
0
  0
CLASS
  1
CELLSTYLEMAP
  2
AcDbCellStyleMap
  3
ObjectDBX Classes
 90
1152
 91
0
280
0
281
0
  0
CLASS
  1
MENTALRAYRENDERSETTINGS
  2
AcDbMentalRayRenderSettings
  3
SCENEOE
 90
1024
 91
0
280
0
281
0
  0
CLASS
  1
ACDBDETAILVIEWSTYLE
  2
AcDbDetailViewStyle
  3
ObjectDBX Classes
 90
1025
 91
0
280
0
281
0
  0
CLASS
  1
ACDBSECTIONVIEWSTYLE
  2
AcDbSectionViewStyle
  3
ObjectDBX Classes
 90
1025
 91
0
280
0
281
0
  0
CLASS
  1
RASTERVARIABLES
  2
AcDbRasterVariables
  3
ISM
 90
0
 91
0
280
0
281
0
  0
CLASS
  1
ACDBPLACEHOLDER
  2
AcDbPlaceHolder
  3
ObjectDBX Classes
 90
0
 91
0
280
0
281
0
  0
CLASS
  1
LAYOUT
  2
AcDbLayout
  3
ObjectDBX Classes
 90
0
 91
0
280
0
281
0
  0
ENDSEC
  0
SECTION
  2
TABLES
  0
TABLE
  2
VPORT
  5
8
330
0
100
AcDbSymbolTable
 70
1
  0
VPORT
  5
23
330
8
100
AcDbSymbolTableRecord
100
AcDbViewportTableRecord
  2
*Active
 70
0
 10
0.0
 20
0.0
 11
1.0
 21
1.0
 12
0.0
 22
0.0
 13
0.0
 23
0.0
 14
0.5
 24
0.5
 15
0.5
 25
0.5
 16
0.0
 26
0.0
 36
1.0
 17
0.0
 27
0.0
 37
0.0
 40
1000.0
 41
1.34
 42
50.0
 43
0.0
 44
0.0
 50
0.0
 51
0.0
 71
0
 72
1000
 73
1
 74
3
 75
0
 76
0
 77
0
 78
0
281
0
 65
0
146
0.0
  0
ENDTAB
  0
TABLE
  2
LTYPE
  5
2
330
0
100
AcDbSymbolTable
 70
3
  0
LTYPE
  5
24
330
2
100
AcDbSymbolTableRecord
100
AcDbLinetypeTableRecord
  2
ByBlock
 70
0
  3

 72
65
 73
0
 40
0.0
  0
LTYPE
  5
25
330
2
100
AcDbSymbolTableRecord
100
AcDbLinetypeTableRecord
  2
ByLayer
 70
0
  3

 72
65
 73
0
 40
0.0
  0
LTYPE
  5
26
330
2
100
AcDbSymbolTableRecord
100
AcDbLinetypeTableRecord
  2
Continuous
 70
0
  3

 72
65
 73
0
 40
0.0
  0
ENDTAB
  0
TABLE
  2
LAYER
  5
1
330
0
100
AcDbSymbolTable
 70
6
  0
LAYER
  5
27
330
1
100
AcDbSymbolTableRecord
100
AcDbLayerTableRecord
  2
0
 70
0
 62
7
  6
Continuous
370
-3
390
13
347
21
  0
LAYER
  5
28
330
1
100
AcDbSymbolTableRecord
100
AcDbLayerTableRecord
  2
Defpoints
 70
0
 62
7
  6
Continuous
290
0
370
-3
390
13
347
21
  0
LAYER
  5
2F
330
1
100
AcDbSymbolTableRecord
100
AcDbLayerTableRecord
  2
FILL_WHITE_FFFFFF
 70
0
 62
7
420
16777215
  6
Continuous
370
-3
390
13
347
21
  0
LAYER
  5
32
330
1
100
AcDbSymbolTableRecord
100
AcDbLayerTableRecord
  2
FILL_BLUE_0000FF
 70
0
 62
7
420
255
  6
Continuous
370
-3
390
13
347
21
  0
LAYER
  5
6E
330
1
100
AcDbSymbolTableRecord
100
AcDbLayerTableRecord
  2
STROKE_WHITE_FFFFFF
 70
0
 62
7
420
16777215
  6
Continuous
370
-3
390
13
347
21
  0
LAYER
  5
70
330
1
100
AcDbSymbolTableRecord
100
AcDbLayerTableRecord
  2
STROKE_BLUE_0000FF
 70
0
 62
7
420
255
  6
Continuous
370
-3
390
13
347
21
  0
ENDTAB
  0
TABLE
  2
STYLE
  5
5
330
0
100
AcDbSymbolTable
 70
1
  0
STYLE
  5
29
330
5
100
AcDbSymbolTableRecord
100
AcDbTextStyleTableRecord
  2
Standard
 70
0
 40
0.0
 41
1.0
 50
0.0
 71
0
 42
2.5
  3
txt
  4

  0
ENDTAB
  0
TABLE
  2
VIEW
  5
7
330
0
100
AcDbSymbolTable
 70
0
  0
ENDTAB
  0
TABLE
  2
UCS
  5
6
330
0
100
AcDbSymbolTable
 70
0
  0
ENDTAB
  0
TABLE
  2
APPID
  5
3
330
0
100
AcDbSymbolTable
 70
3
  0
APPID
  5
2A
330
3
100
AcDbSymbolTableRecord
100
AcDbRegAppTableRecord
  2
ACAD
 70
0
  0
APPID
  5
72
330
3
100
AcDbSymbolTableRecord
100
AcDbRegAppTableRecord
  2
HATCHBACKGROUNDCOLOR
 70
0
  0
APPID
  5
73
330
3
100
AcDbSymbolTableRecord
100
AcDbRegAppTableRecord
  2
EZDXF
 70
0
  0
ENDTAB
  0
TABLE
  2
DIMSTYLE
  5
4
330
0
100
AcDbSymbolTable
 70
1
100
AcDbDimStyleTable
  0
DIMSTYLE
105
2B
330
4
100
AcDbSymbolTableRecord
100
AcDbDimStyleTableRecord
  2
Standard
 70
0
 40
1.0
 41
2.5
 42
0.625
 43
3.75
 44
1.25
 45
0.0
 46
0.0
 47
0.0
 48
0.0
 49
2.5
140
2.5
141
2.5
142
0.0
143
0.03937007874
144
1.0
145
0.0
146
1.0
147
0.625
148
0.0
 69
0
 70
0
 71
0
 72
0
 73
0
 74
0
 75
0
 76
0
 77
1
 78
8
 79
3
170
0
171
3
172
1
173
0
174
0
175
0
176
0
177
0
178
0
179
2
271
2
272
2
273
2
274
3
275
0
276
0
277
2
278
44
279
0
280
0
281
0
282
0
283
0
284
8
285
0
286
0
288
0
289
3
290
0
371
-2
372
-2
  0
ENDTAB
  0
TABLE
  2
BLOCK_RECORD
  5
9
330
0
100
AcDbSymbolTable
 70
2
  0
BLOCK_RECORD
  5
17
330
9
100
AcDbSymbolTableRecord
100
AcDbBlockTableRecord
  2
*Model_Space
340
1A
 70
0
280
1
281
0
  0
BLOCK_RECORD
  5
1B
330
9
100
AcDbSymbolTableRecord
100
AcDbBlockTableRecord
  2
*Paper_Space
340
1E
 70
0
280
1
281
0
  0
ENDTAB
  0
ENDSEC
  0
SECTION
  2
BLOCKS
  0
BLOCK
  5
18
330
17
100
AcDbEntity
  8
0
100
AcDbBlockBegin
  2
*Model_Space
 70
0
 10
0.0
 20
0.0
 30
0.0
  3
*Model_Space
  1

  0
ENDBLK
  5
19
330
17
100
AcDbEntity
  8
0
100
AcDbBlockEnd
  0
BLOCK
  5
1C
330
1B
100
AcDbEntity
  8
0
100
AcDbBlockBegin
  2
*Paper_Space
 70
0
 10
0.0
 20
0.0
 30
0.0
  3
*Paper_Space
  1

  0
ENDBLK
  5
1D
330
1B
100
AcDbEntity
  8
0
100
AcDbBlockEnd
  0
ENDSEC
  0
SECTION
  2
ENTITIES
  0
HATCH
  5
30
330
17
100
AcDbEntity
  8
FILL_WHITE_FFFFFF
 62
7
420
16777215
100
AcDbHatch
 10
0.0
 20
0.0
 30
0.0
210
0.0
220
0.0
230
1.0
  2
SOLID
 70
1
 71
0
 91
1
 92
3
 72
0
 73
1
 93
71
 10
528.12
 20
251.65
 10
530.37
 20
251.31
 10
532.62
 20
250.75
 10
534.87
 20
249.96
 10
537.12
 20
248.95
 10
539.37
 20
247.71
 10
541.62
 20
246.25
 10
543.87
 20
244.56
 10
545.56
 20
242.65
 10
547.02
 20
240.57
 10
548.26
 20
238.34
 10
549.27
 20
236.01
 10
550.06
 20
233.63
 10
550.62
 20
231.23
 10
550.96
 20
228.86
 10
551.07
 20
226.56
 10
551.07
 20
44.16
 10
551.07
 20
41.76
 10
549.87
 20
40.56
 10
549.85
 20
38.97
 10
549.72
 20
37.71
 10
549.36
 20
36.68
 10
548.67
 20
35.76
 10
547.75
 20
33.27
 10
546.72
 20
31.11
 10
545.46
 20
29.18
 10
543.87
 20
27.36
 10
541.88
 20
25.58
 10
539.67
 20
23.91
 10
537.46
 20
22.47
 10
535.47
 20
21.36
 10
532.96
 20
20.67
 10
530.67
 20
20.31
 10
528.38
 20
20.18
 10
525.87
 20
20.16
 10
39.87
 20
20.16
 10
37.62
 20
20.27
 10
35.39
 20
20.61
 10
33.18
 20
21.17
 10
31.02
 20
21.96
 10
28.91
 20
22.97
 10
26.88
 20
24.21
 10
24.92
 20
25.67
 10
23.07
 20
27.36
 10
21.38
 20
29.21
 10
19.92
 20
31.17
 10
18.68
 20
33.2
 10
17.67
 20
35.31
 10
16.88
 20
37.47
 10
16.32
 20
39.68
 10
15.98
 20
41.91
 10
15.87
 20
44.16
 10
15.87
 20
226.56
 10
15.98
 20
228.86
 10
16.32
 20
231.23
 10
16.88
 20
233.63
 10
17.67
 20
236.01
 10
18.68
 20
238.34
 10
19.92
 20
240.57
 10
21.38
 20
242.65
 10
23.07
 20
244.56
 10
24.92
 20
246.25
 10
26.88
 20
247.71
 10
28.91
 20
248.95
 10
31.02
 20
249.96
 10
33.18
 20
250.75
 10
35.39
 20
251.31
 10
37.62
 20
251.65
 10
39.87
 20
251.76
 10
525.87
 20
251.76
 10
528.12
 20
251.65
 97
0
 75
1
 76
1
 98
0
  0
LWPOLYLINE
  5
31
330
17
100
AcDbEntity
  8
FILL_WHITE_FFFFFF
370
0
420
16777215
100
AcDbPolyline
 90
70
 70
1
 10
528.12
 20
251.65
 10
530.37
 20
251.31
 10
532.62
 20
250.75
 10
534.87
 20
249.96
 10
537.12
 20
248.95
 10
539.37
 20
247.71
 10
541.62
 20
246.25
 10
543.87
 20
244.56
 10
545.56
 20
242.65
 10
547.02
 20
240.57
 10
548.26
 20
238.34
 10
549.27
 20
236.01
 10
550.06
 20
233.63
 10
550.62
 20
231.23
 10
550.96
 20
228.86
 10
551.07
 20
226.56
 10
551.07
 20
44.16
 10
551.07
 20
41.76
 10
549.87
 20
40.56
 10
549.85
 20
38.97
 10
549.72
 20
37.71
 10
549.36
 20
36.68
 10
548.67
 20
35.76
 10
547.75
 20
33.27
 10
546.72
 20
31.11
 10
545.46
 20
29.18
 10
543.87
 20
27.36
 10
541.88
 20
25.58
 10
539.67
 20
23.91
 10
537.46
 20
22.47
 10
535.47
 20
21.36
 10
532.96
 20
20.67
 10
530.67
 20
20.31
 10
528.38
 20
20.18
 10
525.87
 20
20.16
 10
39.87
 20
20.16
 10
37.62
 20
20.27
 10
35.39
 20
20.61
 10
33.18
 20
21.17
 10
31.02
 20
21.96
 10
28.91
 20
22.97
 10
26.88
 20
24.21
 10
24.92
 20
25.67
 10
23.07
 20
27.36
 10
21.38
 20
29.21
 10
19.92
 20
31.17
 10
18.68
 20
33.2
 10
17.67
 20
35.31
 10
16.88
 20
37.47
 10
16.32
 20
39.68
 10
15.98
 20
41.91
 10
15.87
 20
44.16
 10
15.87
 20
226.56
 10
15.98
 20
228.86
 10
16.32
 20
231.23
 10
16.88
 20
233.63
 10
17.67
 20
236.01
 10
18.68
 20
238.34
 10
19.92
 20
240.57
 10
21.38
 20
242.65
 10
23.07
 20
244.56
 10
24.92
 20
246.25
 10
26.88
 20
247.71
 10
28.91
 20
248.95
 10
31.02
 20
249.96
 10
33.18
 20
250.75
 10
35.39
 20
251.31
 10
37.62
 20
251.65
 10
39.87
 20
251.76
 10
525.87
 20
251.76
  0
HATCH
  5
33
330
17
100
AcDbEntity
  8
FILL_BLUE_0000FF
 62
7
420
255
100
AcDbHatch
 10
0.0
 20
0.0
 30
0.0
210
0.0
220
0.0
230
1.0
  2
SOLID
 70
1
 71
0
 91
1
 92
3
 72
0
 73
1
 93
64
 10
527.17
 20
239.7
 10
528.36
 20
239.53
 10
529.48
 20
239.25
 10
530.52
 20
238.86
 10
531.51
 20
238.35
 10
532.45
 20
237.73
 10
534.27
 20
236.16
 10
535.85
 20
233.65
 10
536.97
 20
231.36
 10
537.36
 20
230.23
 10
537.65
 20
229.07
 10
537.81
 20
227.86
 10
537.87
 20
226.56
 10
537.87
 20
44.16
 10
537.81
 20
43.21
 10
537.65
 20
42.17
 10
536.97
 20
39.96
 10
536.46
 20
38.84
 10
535.85
 20
37.75
 10
535.11
 20
36.71
 10
534.27
 20
35.76
 10
532.45
 20
34.18
 10
531.51
 20
33.57
 10
530.52
 20
33.06
 10
529.48
 20
32.67
 10
528.36
 20
32.38
 10
527.17
 20
32.22
 10
525.87
 20
32.16
 10
39.87
 20
32.16
 10
38.97
 20
32.18
 10
38.07
 20
32.31
 10
37.17
 20
32.67
 10
36.27
 20
33.36
 10
35.42
 20
33.41
 10
34.68
 20
33.57
 10
33.42
 20
34.11
 10
32.39
 20
34.88
 10
31.47
 20
35.76
 10
30.63
 20
36.71
 10
29.9
 20
37.75
 10
29.28
 20
38.84
 10
28.77
 20
39.96
 10
28.1
 20
42.17
 10
27.93
 20
43.21
 10
27.87
 20
44.16
 10
27.87
 20
226.56
 10
27.94
 20
227.89
 10
28.14
 20
229.19
 10
28.46
 20
230.45
 10
28.9
 20
231.66
 10
29.44
 20
232.81
 10
30.08
 20
233.9
 10
30.81
 20
234.92
 10
31.62
 20
235.86
 10
32.5
 20
236.72
 10
33.44
 20
237.48
 10
34.43
 20
238.15
 10
35.46
 20
238.71
 10
36.53
 20
239.16
 10
37.63
 20
239.49
 10
38.75
 20
239.69
 10
39.87
 20
239.76
 10
525.87
 20
239.76
 10
527.17
 20
239.7
 97
0
 75
1
 76
1
 98
0
  0
LWPOLYLINE
  5
34
330
17
100
AcDbEntity
  8
FILL_BLUE_0000FF
370
0
420
255
100
AcDbPolyline
 90
63
 70
1
 10
527.17
 20
239.7
 10
528.36
 20
239.53
 10
529.48
 20
239.25
 10
530.52
 20
238.86
 10
531.51
 20
238.35
 10
532.45
 20
237.73
 10
534.27
 20
236.16
 10
535.85
 20
233.65
 10
536.97
 20
231.36
 10
537.36
 20
230.23
 10
537.65
 20
229.07
 10
537.81
 20
227.86
 10
537.87
 20
226.56
 10
537.87
 20
44.16
 10
537.81
 20
43.21
 10
537.65
 20
42.17
 10
536.97
 20
39.96
 10
536.46
 20
38.84
 10
535.85
 20
37.75
 10
535.11
 20
36.71
 10
534.27
 20
35.76
 10
532.45
 20
34.18
 10
531.51
 20
33.57
 10
530.52
 20
33.06
 10
529.48
 20
32.67
 10
528.36
 20
32.38
 10
527.17
 20
32.22
 10
525.87
 20
32.16
 10
39.87
 20
32.16
 10
38.97
 20
32.18
 10
38.07
 20
32.31
 10
37.17
 20
32.67
 10
36.27
 20
33.36
 10
35.42
 20
33.41
 10
34.68
 20
33.57
 10
33.42
 20
34.11
 10
32.39
 20
34.88
 10
31.47
 20
35.76
 10
30.63
 20
36.71
 10
29.9
 20
37.75
 10
29.28
 20
38.84
 10
28.77
 20
39.96
 10
28.1
 20
42.17
 10
27.93
 20
43.21
 10
27.87
 20
44.16
 10
27.87
 20
226.56
 10
27.94
 20
227.89
 10
28.14
 20
229.19
 10
28.46
 20
230.45
 10
28.9
 20
231.66
 10
29.44
 20
232.81
 10
30.08
 20
233.9
 10
30.81
 20
234.92
 10
31.62
 20
235.86
 10
32.5
 20
236.72
 10
33.44
 20
237.48
 10
34.43
 20
238.15
 10
35.46
 20
238.71
 10
36.53
 20
239.16
 10
37.63
 20
239.49
 10
38.75
 20
239.69
 10
39.87
 20
239.76
 10
525.87
 20
239.76
  0
HATCH
  5
35
330
17
100
AcDbEntity
  8
FILL_WHITE_FFFFFF
 62
7
420
16777215
100
AcDbHatch
 10
0.0
 20
0.0
 30
0.0
210
0.0
220
0.0
230
1.0
  2
SOLID
 70
1
 71
0
 91
1
 92
3
 72
0
 73
1
 93
13
 10
71.07
 20
190.56
 10
65.07
 20
183.36
 10
65.07
 20
168.96
 10
56.67
 20
168.96
 10
56.67
 20
214.56
 10
65.07
 20
214.56
 10
65.07
 20
194.16
 10
83.07
 20
214.56
 10
92.67
 20
214.56
 10
77.07
 20
196.56
 10
93.87
 20
168.96
 10
84.27
 20
168.96
 10
71.07
 20
190.56
 97
0
 75
1
 76
1
 98
0
  0
LWPOLYLINE
  5
36
330
17
100
AcDbEntity
  8
FILL_WHITE_FFFFFF
370
0
420
16777215
100
AcDbPolyline
 90
12
 70
1
 10
71.07
 20
190.56
 10
65.07
 20
183.36
 10
65.07
 20
168.96
 10
56.67
 20
168.96
 10
56.67
 20
214.56
 10
65.07
 20
214.56
 10
65.07
 20
194.16
 10
83.07
 20
214.56
 10
92.67
 20
214.56
 10
77.07
 20
196.56
 10
93.87
 20
168.96
 10
84.27
 20
168.96
  0
HATCH
  5
37
330
17
100
AcDbEntity
  8
FILL_WHITE_FFFFFF
 62
7
420
16777215
100
AcDbHatch
 10
0.0
 20
0.0
 30
0.0
210
0.0
220
0.0
230
1.0
  2
SOLID
 70
1
 71
0
 91
1
 92
3
 72
0
 73
1
 93
13
 10
102.27
 20
214.56
 10
131.07
 20
214.56
 10
131.07
 20
207.36
 10
109.47
 20
207.36
 10
109.47
 20
195.36
 10
129.87
 20
195.36
 10
129.87
 20
188.16
 10
109.47
 20
188.16
 10
109.47
 20
176.16
 10
132.27
 20
176.16
 10
132.27
 20
168.96
 10
102.27
 20
168.96
 10
102.27
 20
214.56
 97
0
 75
1
 76
1
 98
0
  0
LWPOLYLINE
  5
38
330
17
100
AcDbEntity
  8
FILL_WHITE_FFFFFF
370
0
420
16777215
100
AcDbPolyline
 90
12
 70
1
 10
102.27
 20
214.56
 10
131.07
 20
214.56
 10
131.07
 20
207.36
 10
109.47
 20
207.36
 10
109.47
 20
195.36
 10
129.87
 20
195.36
 10
129.87
 20
188.16
 10
109.47
 20
188.16
 10
109.47
 20
176.16
 10
132.27
 20
176.16
 10
132.27
 20
168.96
 10
102.27
 20
168.96
  0
HATCH
  5
39
330
17
100
AcDbEntity
  8
FILL_WHITE_FFFFFF
 62
7
420
16777215
100
AcDbHatch
 10
0.0
 20
0.0
 30
0.0
210
0.0
220
0.0
230
1.0
  2
SOLID
 70
1
 71
0
 91
1
 92
3
 72
0
 73
1
 93
13
 10
145.47
 20
214.56
 10
175.47
 20
214.56
 10
175.47
 20
207.36
 10
153.87
 20
207.36
 10
153.87
 20
195.36
 10
173.07
 20
195.36
 10
173.07
 20
188.16
 10
153.87
 20
188.16
 10
153.87
 20
176.16
 10
176.67
 20
176.16
 10
176.67
 20
168.96
 10
145.47
 20
168.96
 10
145.47
 20
214.56
 97
0
 75
1
 76
1
 98
0
  0
LWPOLYLINE
  5
3A
330
17
100
AcDbEntity
  8
FILL_WHITE_FFFFFF
370
0
420
16777215
100
AcDbPolyline
 90
12
 70
1
 10
145.47
 20
214.56
 10
175.47
 20
214.56
 10
175.47
 20
207.36
 10
153.87
 20
207.36
 10
153.87
 20
195.36
 10
173.07
 20
195.36
 10
173.07
 20
188.16
 10
153.87
 20
188.16
 10
153.87
 20
176.16
 10
176.67
 20
176.16
 10
176.67
 20
168.96
 10
145.47
 20
168.96
  0
HATCH
  5
3B
330
17
100
AcDbEntity
  8
FILL_WHITE_FFFFFF
 62
7
420
16777215
100
AcDbHatch
 10
0.0
 20
0.0
 30
0.0
210
0.0
220
0.0
230
1.0
  2
SOLID
 70
1
 71
0
 91
2
 92
3
 72
0
 73
1
 93
38
 10
211.65
 20
214.29
 10
212.85
 20
213.95
 10
213.98
 20
213.49
 10
215.04
 20
212.91
 10
216.03
 20
212.22
 10
216.94
 20
211.42
 10
217.77
 20
210.51
 10
218.51
 20
209.51
 10
219.17
 20
208.41
 10
219.74
 20
207.22
 10
220.21
 20
205.95
 10
220.58
 20
204.61
 10
220.85
 20
203.19
 10
221.01
 20
201.71
 10
221.07
 20
200.16
 10
221.01
 20
198.81
 10
220.85
 20
197.48
 10
220.56
 20
196.17
 10
220.17
 20
194.91
 10
219.66
 20
193.7
 10
219.05
 20
192.57
 10
218.31
 20
191.51
 10
217.47
 20
190.56
 10
216.57
 20
189.32
 10
215.65
 20
188.29
 10
214.71
 20
187.46
 10
213.72
 20
186.81
 10
212.68
 20
186.33
 10
211.56
 20
186.0
 10
210.37
 20
185.82
 10
209.07
 20
185.76
 10
197.07
 20
185.76
 10
197.07
 20
168.96
 10
189.87
 20
168.96
 10
189.87
 20
214.56
 10
209.07
 20
214.56
 10
210.39
 20
214.49
 10
211.65
 20
214.29
 97
0
 92
18
 72
0
 73
1
 93
22
 10
206.67
 20
192.96
 10
207.52
 20
193.01
 10
208.26
 20
193.17
 10
209.52
 20
193.71
 10
210.55
 20
194.48
 10
211.47
 20
195.36
 10
212.35
 20
196.45
 10
213.12
 20
197.76
 10
213.66
 20
199.07
 10
213.87
 20
200.16
 10
213.66
 20
201.94
 10
213.12
 20
203.61
 10
212.35
 20
205.05
 10
211.47
 20
206.16
 10
210.55
 20
207.04
 10
209.52
 20
207.81
 10
208.26
 20
208.35
 10
207.52
 20
208.51
 10
206.67
 20
208.56
 10
197.07
 20
208.56
 10
197.07
 20
192.96
 10
206.67
 20
192.96
 97
0
 75
1
 76
1
 98
0
  0
LWPOLYLINE
  5
3C
330
17
100
AcDbEntity
  8
FILL_WHITE_FFFFFF
370
0
420
16777215
100
AcDbPolyline
 90
37
 70
1
 10
211.65
 20
214.29
 10
212.85
 20
213.95
 10
213.98
 20
213.49
 10
215.04
 20
212.91
 10
216.03
 20
212.22
 10
216.94
 20
211.42
 10
217.77
 20
210.51
 10
218.51
 20
209.51
 10
219.17
 20
208.41
 10
219.74
 20
207.22
 10
220.21
 20
205.95
 10
220.58
 20
204.61
 10
220.85
 20
203.19
 10
221.01
 20
201.71
 10
221.07
 20
200.16
 10
221.01
 20
198.81
 10
220.85
 20
197.48
 10
220.56
 20
196.17
 10
220.17
 20
194.91
 10
219.66
 20
193.7
 10
219.05
 20
192.57
 10
218.31
 20
191.51
 10
217.47
 20
190.56
 10
216.57
 20
189.32
 10
215.65
 20
188.29
 10
214.71
 20
187.46
 10
213.72
 20
186.81
 10
212.68
 20
186.33
 10
211.56
 20
186.0
 10
210.37
 20
185.82
 10
209.07
 20
185.76
 10
197.07
 20
185.76
 10
197.07
 20
168.96
 10
189.87
 20
168.96
 10
189.87
 20
214.56
 10
209.07
 20
214.56
 10
210.39
 20
214.49
  0
LWPOLYLINE
  5
3D
330
17
100
AcDbEntity
  8
FILL_WHITE_FFFFFF
370
0
420
16777215
100
AcDbPolyline
 90
21
 70
1
 10
206.67
 20
192.96
 10
207.52
 20
193.01
 10
208.26
 20
193.17
 10
209.52
 20
193.71
 10
210.55
 20
194.48
 10
211.47
 20
195.36
 10
212.35
 20
196.45
 10
213.12
 20
197.76
 10
213.66
 20
199.07
 10
213.87
 20
200.16
 10
213.66
 20
201.94
 10
213.12
 20
203.61
 10
212.35
 20
205.05
 10
211.47
 20
206.16
 10
210.55
 20
207.04
 10
209.52
 20
207.81
 10
208.26
 20
208.35
 10
207.52
 20
208.51
 10
206.67
 20
208.56
 10
197.07
 20
208.56
 10
197.07
 20
192.96
  0
HATCH
  5
3E
330
17
100
AcDbEntity
  8
FILL_WHITE_FFFFFF
 62
7
420
16777215
100
AcDbHatch
 10
0.0
 20
0.0
 30
0.0
210
0.0
220
0.0
230
1.0
  2
SOLID
 70
1
 71
0
 91
1
 92
3
 72
0
 73
1
 93
5
 10
249.87
 20
214.56
 10
257.07
 20
214.56
 10
257.07
 20
168.96
 10
249.87
 20
168.96
 10
249.87
 20
214.56
 97
0
 75
1
 76
1
 98
0
  0
LWPOLYLINE
  5
3F
330
17
100
AcDbEntity
  8
FILL_WHITE_FFFFFF
370
0
420
16777215
100
AcDbPolyline
 90
4
 70
1
 10
249.87
 20
214.56
 10
257.07
 20
214.56
 10
257.07
 20
168.96
 10
249.87
 20
168.96
  0
HATCH
  5
40
330
17
100
AcDbEntity
  8
FILL_WHITE_FFFFFF
 62
7
420
16777215
100
AcDbHatch
 10
0.0
 20
0.0
 30
0.0
210
0.0
220
0.0
230
1.0
  2
SOLID
 70
1
 71
0
 91
1
 92
3
 72
0
 73
1
 93
11
 10
281.07
 20
202.56
 10
281.07
 20
168.96
 10
273.87
 20
168.96
 10
273.87
 20
214.56
 10
282.27
 20
214.56
 10
305.07
 20
180.96
 10
305.07
 20
214.56
 10
313.47
 20
214.56
 10
313.47
 20
168.96
 10
303.87
 20
168.96
 10
281.07
 20
202.56
 97
0
 75
1
 76
1
 98
0
  0
LWPOLYLINE
  5
41
330
17
100
AcDbEntity
  8
FILL_WHITE_FFFFFF
370
0
420
16777215
100
AcDbPolyline
 90
10
 70
1
 10
281.07
 20
202.56
 10
281.07
 20
168.96
 10
273.87
 20
168.96
 10
273.87
 20
214.56
 10
282.27
 20
214.56
 10
305.07
 20
180.96
 10
305.07
 20
214.56
 10
313.47
 20
214.56
 10
313.47
 20
168.96
 10
303.87
 20
168.96
  0
HATCH
  5
42
330
17
100
AcDbEntity
  8
FILL_WHITE_FFFFFF
 62
7
420
16777215
100
AcDbHatch
 10
0.0
 20
0.0
 30
0.0
210
0.0
220
0.0
230
1.0
  2
SOLID
 70
1
 71
0
 91
1
 92
3
 72
0
 73
1
 93
7
 10
345.87
 20
214.56
 10
353.07
 20
214.56
 10
353.07
 20
176.16
 10
372.27
 20
176.16
 10
372.27
 20
168.96
 10
345.87
 20
168.96
 10
345.87
 20
214.56
 97
0
 75
1
 76
1
 98
0
  0
LWPOLYLINE
  5
43
330
17
100
AcDbEntity
  8
FILL_WHITE_FFFFFF
370
0
420
16777215
100
AcDbPolyline
 90
6
 70
1
 10
345.87
 20
214.56
 10
353.07
 20
214.56
 10
353.07
 20
176.16
 10
372.27
 20
176.16
 10
372.27
 20
168.96
 10
345.87
 20
168.96
  0
HATCH
  5
44
330
17
100
AcDbEntity
  8
FILL_WHITE_FFFFFF
 62
7
420
16777215
100
AcDbHatch
 10
0.0
 20
0.0
 30
0.0
210
0.0
220
0.0
230
1.0
  2
SOLID
 70
1
 71
0
 91
2
 92
3
 72
0
 73
1
 93
9
 10
415.47
 20
168.96
 10
408.27
 20
168.96
 10
405.87
 20
177.36
 10
385.47
 20
177.36
 10
383.07
 20
168.96
 10
375.87
 20
168.96
 10
390.27
 20
214.56
 10
401.07
 20
214.56
 10
415.47
 20
168.96
 97
0
 92
18
 72
0
 73
1
 93
4
 10
387.87
 20
183.36
 10
403.47
 20
183.36
 10
396.27
 20
207.36
 10
387.87
 20
183.36
 97
0
 75
1
 76
1
 98
0
  0
LWPOLYLINE
  5
45
330
17
100
AcDbEntity
  8
FILL_WHITE_FFFFFF
370
0
420
16777215
100
AcDbPolyline
 90
8
 70
1
 10
415.47
 20
168.96
 10
408.27
 20
168.96
 10
405.87
 20
177.36
 10
385.47
 20
177.36
 10
383.07
 20
168.96
 10
375.87
 20
168.96
 10
390.27
 20
214.56
 10
401.07
 20
214.56
  0
LWPOLYLINE
  5
46
330
17
100
AcDbEntity
  8
FILL_WHITE_FFFFFF
370
0
420
16777215
100
AcDbPolyline
 90
3
 70
1
 10
387.87
 20
183.36
 10
403.47
 20
183.36
 10
396.27
 20
207.36
  0
HATCH
  5
47
330
17
100
AcDbEntity
  8
FILL_WHITE_FFFFFF
 62
7
420
16777215
100
AcDbHatch
 10
0.0
 20
0.0
 30
0.0
210
0.0
220
0.0
230
1.0
  2
SOLID
 70
1
 71
0
 91
1
 92
3
 72
0
 73
1
 93
11
 10
434.67
 20
202.56
 10
434.67
 20
168.96
 10
426.27
 20
168.96
 10
426.27
 20
214.56
 10
435.87
 20
214.56
 10
457.47
 20
180.96
 10
457.47
 20
214.56
 10
465.87
 20
214.56
 10
465.87
 20
168.96
 10
456.27
 20
168.96
 10
434.67
 20
202.56
 97
0
 75
1
 76
1
 98
0
  0
LWPOLYLINE
  5
48
330
17
100
AcDbEntity
  8
FILL_WHITE_FFFFFF
370
0
420
16777215
100
AcDbPolyline
 90
10
 70
1
 10
434.67
 20
202.56
 10
434.67
 20
168.96
 10
426.27
 20
168.96
 10
426.27
 20
214.56
 10
435.87
 20
214.56
 10
457.47
 20
180.96
 10
457.47
 20
214.56
 10
465.87
 20
214.56
 10
465.87
 20
168.96
 10
456.27
 20
168.96
  0
HATCH
  5
49
330
17
100
AcDbEntity
  8
FILL_WHITE_FFFFFF
 62
7
420
16777215
100
AcDbHatch
 10
0.0
 20
0.0
 30
0.0
210
0.0
220
0.0
230
1.0
  2
SOLID
 70
1
 71
0
 91
1
 92
3
 72
0
 73
1
 93
13
 10
481.47
 20
214.56
 10
511.47
 20
214.56
 10
511.47
 20
207.36
 10
489.87
 20
207.36
 10
489.87
 20
195.36
 10
509.07
 20
195.36
 10
509.07
 20
188.16
 10
489.87
 20
188.16
 10
489.87
 20
176.16
 10
512.67
 20
176.16
 10
512.67
 20
168.96
 10
481.47
 20
168.96
 10
481.47
 20
214.56
 97
0
 75
1
 76
1
 98
0
  0
LWPOLYLINE
  5
4A
330
17
100
AcDbEntity
  8
FILL_WHITE_FFFFFF
370
0
420
16777215
100
AcDbPolyline
 90
12
 70
1
 10
481.47
 20
214.56
 10
511.47
 20
214.56
 10
511.47
 20
207.36
 10
489.87
 20
207.36
 10
489.87
 20
195.36
 10
509.07
 20
195.36
 10
509.07
 20
188.16
 10
489.87
 20
188.16
 10
489.87
 20
176.16
 10
512.67
 20
176.16
 10
512.67
 20
168.96
 10
481.47
 20
168.96
  0
HATCH
  5
4B
330
17
100
AcDbEntity
  8
FILL_WHITE_FFFFFF
 62
7
420
16777215
100
AcDbHatch
 10
0.0
 20
0.0
 30
0.0
210
0.0
220
0.0
230
1.0
  2
SOLID
 70
1
 71
0
 91
2
 92
3
 72
0
 73
1
 93
43
 10
444.27
 20
111.36
 10
441.87
 20
111.36
 10
438.27
 20
107.76
 10
440.67
 20
106.56
 10
443.07
 20
105.36
 10
444.27
 20
106.56
 10
445.47
 20
107.76
 10
446.67
 20
112.56
 10
451.47
 20
108.96
 10
450.27
 20
104.16
 10
447.87
 20
100.56
 10
445.47
 20
99.36
 10
441.87
 20
99.36
 10
437.07
 20
100.56
 10
432.27
 20
104.16
 10
426.27
 20
101.76
 10
419.07
 20
99.36
 10
415.47
 20
104.16
 10
422.67
 20
105.36
 10
428.67
 20
108.96
 10
426.27
 20
111.36
 10
423.87
 20
114.96
 10
416.67
 20
114.96
 10
416.67
 20
119.76
 10
422.67
 20
120.96
 10
422.67
 20
125.76
 10
422.67
 20
131.76
 10
428.67
 20
130.56
 10
429.87
 20
129.36
 10
427.47
 20
126.96
 10
427.47
 20
124.56
 10
428.67
 20
122.16
 10
439.47
 20
122.16
 10
433.47
 20
128.16
 10
437.07
 20
131.76
 10
440.67
 20
129.36
 10
444.27
 20
125.76
 10
440.67
 20
123.36
 10
450.27
 20
123.36
 10
450.27
 20
118.56
 10
439.47
 20
117.36
 10
444.27
 20
112.56
 10
444.27
 20
111.36
 97
0
 92
18
 72
0
 73
1
 93
5
 10
429.87
 20
116.16
 10
432.27
 20
113.76
 10
433.47
 20
111.36
 10
439.47
 20
117.36
 10
429.87
 20
116.16
 97
0
 75
1
 76
1
 98
0
  0
LWPOLYLINE
  5
4C
330
17
100
AcDbEntity
  8
FILL_WHITE_FFFFFF
370
0
420
16777215
100
AcDbPolyline
 90
42
 70
1
 10
444.27
 20
111.36
 10
441.87
 20
111.36
 10
438.27
 20
107.76
 10
440.67
 20
106.56
 10
443.07
 20
105.36
 10
444.27
 20
106.56
 10
445.47
 20
107.76
 10
446.67
 20
112.56
 10
451.47
 20
108.96
 10
450.27
 20
104.16
 10
447.87
 20
100.56
 10
445.47
 20
99.36
 10
441.87
 20
99.36
 10
437.07
 20
100.56
 10
432.27
 20
104.16
 10
426.27
 20
101.76
 10
419.07
 20
99.36
 10
415.47
 20
104.16
 10
422.67
 20
105.36
 10
428.67
 20
108.96
 10
426.27
 20
111.36
 10
423.87
 20
114.96
 10
416.67
 20
114.96
 10
416.67
 20
119.76
 10
422.67
 20
120.96
 10
422.67
 20
125.76
 10
422.67
 20
131.76
 10
428.67
 20
130.56
 10
429.87
 20
129.36
 10
427.47
 20
126.96
 10
427.47
 20
124.56
 10
428.67
 20
122.16
 10
439.47
 20
122.16
 10
433.47
 20
128.16
 10
437.07
 20
131.76
 10
440.67
 20
129.36
 10
444.27
 20
125.76
 10
440.67
 20
123.36
 10
450.27
 20
123.36
 10
450.27
 20
118.56
 10
439.47
 20
117.36
 10
444.27
 20
112.56
  0
LWPOLYLINE
  5
4D
330
17
100
AcDbEntity
  8
FILL_WHITE_FFFFFF
370
0
420
16777215
100
AcDbPolyline
 90
4
 70
1
 10
429.87
 20
116.16
 10
432.27
 20
113.76
 10
433.47
 20
111.36
 10
439.47
 20
117.36
  0
HATCH
  5
4E
330
17
100
AcDbEntity
  8
FILL_WHITE_FFFFFF
 62
7
420
16777215
100
AcDbHatch
 10
0.0
 20
0.0
 30
0.0
210
0.0
220
0.0
230
1.0
  2
SOLID
 70
1
 71
0
 91
2
 92
3
 72
0
 73
1
 93
40
 10
445.47
 20
82.56
 10
446.67
 20
81.36
 10
445.47
 20
80.16
 10
443.07
 20
80.16
 10
437.07
 20
74.16
 10
440.67
 20
72.96
 10
443.07
 20
71.76
 10
445.47
 20
72.96
 10
446.67
 20
74.16
 10
447.87
 20
77.76
 10
452.67
 20
74.16
 10
451.47
 20
70.56
 10
449.07
 20
68.16
 10
446.67
 20
66.96
 10
444.27
 20
65.76
 10
437.07
 20
68.16
 10
432.27
 20
71.76
 10
426.27
 20
68.16
 10
419.07
 20
66.96
 10
416.67
 20
71.76
 10
422.67
 20
72.96
 10
428.67
 20
75.36
 10
426.27
 20
78.96
 10
425.07
 20
83.76
 10
416.67
 20
82.56
 10
416.67
 20
88.56
 10
423.87
 20
88.56
 10
422.67
 20
94.56
 10
422.67
 20
99.36
 10
428.67
 20
99.36
 10
429.87
 20
98.16
 10
429.87
 20
96.96
 10
428.67
 20
95.76
 10
428.67
 20
92.16
 10
429.87
 20
89.76
 10
440.67
 20
90.96
 10
450.27
 20
92.16
 10
450.27
 20
87.36
 10
441.87
 20
86.16
 10
445.47
 20
82.56
 97
0
 92
18
 72
0
 73
1
 93
5
 10
433.47
 20
78.96
 10
440.67
 20
86.16
 10
431.07
 20
83.76
 10
432.27
 20
81.36
 10
433.47
 20
78.96
 97
0
 75
1
 76
1
 98
0
  0
LWPOLYLINE
  5
4F
330
17
100
AcDbEntity
  8
FILL_WHITE_FFFFFF
370
0
420
16777215
100
AcDbPolyline
 90
39
 70
1
 10
445.47
 20
82.56
 10
446.67
 20
81.36
 10
445.47
 20
80.16
 10
443.07
 20
80.16
 10
437.07
 20
74.16
 10
440.67
 20
72.96
 10
443.07
 20
71.76
 10
445.47
 20
72.96
 10
446.67
 20
74.16
 10
447.87
 20
77.76
 10
452.67
 20
74.16
 10
451.47
 20
70.56
 10
449.07
 20
68.16
 10
446.67
 20
66.96
 10
444.27
 20
65.76
 10
437.07
 20
68.16
 10
432.27
 20
71.76
 10
426.27
 20
68.16
 10
419.07
 20
66.96
 10
416.67
 20
71.76
 10
422.67
 20
72.96
 10
428.67
 20
75.36
 10
426.27
 20
78.96
 10
425.07
 20
83.76
 10
416.67
 20
82.56
 10
416.67
 20
88.56
 10
423.87
 20
88.56
 10
422.67
 20
94.56
 10
422.67
 20
99.36
 10
428.67
 20
99.36
 10
429.87
 20
98.16
 10
429.87
 20
96.96
 10
428.67
 20
95.76
 10
428.67
 20
92.16
 10
429.87
 20
89.76
 10
440.67
 20
90.96
 10
450.27
 20
92.16
 10
450.27
 20
87.36
 10
441.87
 20
86.16
  0
LWPOLYLINE
  5
50
330
17
100
AcDbEntity
  8
FILL_WHITE_FFFFFF
370
0
420
16777215
100
AcDbPolyline
 90
4
 70
1
 10
433.47
 20
78.96
 10
440.67
 20
86.16
 10
431.07
 20
83.76
 10
432.27
 20
81.36
  0
HATCH
  5
51
330
17
100
AcDbEntity
  8
FILL_WHITE_FFFFFF
 62
7
420
16777215
100
AcDbHatch
 10
0.0
 20
0.0
 30
0.0
210
0.0
220
0.0
230
1.0
  2
SOLID
 70
1
 71
0
 91
1
 92
3
 72
0
 73
1
 93
5
 10
440.67
 20
90.96
 10
433.47
 20
95.76
 10
435.87
 20
100.56
 10
444.27
 20
95.76
 10
440.67
 20
90.96
 97
0
 75
1
 76
1
 98
0
  0
LWPOLYLINE
  5
52
330
17
100
AcDbEntity
  8
FILL_WHITE_FFFFFF
370
0
420
16777215
100
AcDbPolyline
 90
4
 70
1
 10
440.67
 20
90.96
 10
433.47
 20
95.76
 10
435.87
 20
100.56
 10
444.27
 20
95.76
  0
HATCH
  5
53
330
17
100
AcDbEntity
  8
FILL_WHITE_FFFFFF
 62
7
420
16777215
100
AcDbHatch
 10
0.0
 20
0.0
 30
0.0
210
0.0
220
0.0
230
1.0
  2
SOLID
 70
1
 71
0
 91
1
 92
3
 72
0
 73
1
 93
34
 10
405.87
 20
130.56
 10
405.87
 20
128.16
 10
404.67
 20
126.96
 10
397.47
 20
117.36
 10
401.07
 20
114.96
 10
405.87
 20
122.16
 10
410.67
 20
119.76
 10
411.87
 20
118.56
 10
411.87
 20
117.36
 10
410.67
 20
116.16
 10
398.67
 20
100.56
 10
407.07
 20
101.76
 10
405.87
 20
106.56
 10
410.67
 20
107.76
 10
413.07
 20
100.56
 10
415.47
 20
93.36
 10
409.47
 20
92.16
 10
409.47
 20
96.96
 10
404.67
 20
95.76
 10
404.67
 20
65.76
 10
398.67
 20
65.76
 10
398.67
 20
94.56
 10
390.27
 20
93.36
 10
389.07
 20
92.16
 10
387.87
 20
92.16
 10
387.87
 20
94.56
 10
386.67
 20
99.36
 10
391.47
 20
99.36
 10
397.47
 20
110.16
 10
386.67
 20
117.36
 10
390.27
 20
120.96
 10
392.67
 20
119.76
 10
399.87
 20
132.96
 10
405.87
 20
130.56
 97
0
 75
1
 76
1
 98
0
  0
LWPOLYLINE
  5
54
330
17
100
AcDbEntity
  8
FILL_WHITE_FFFFFF
370
0
420
16777215
100
AcDbPolyline
 90
33
 70
1
 10
405.87
 20
130.56
 10
405.87
 20
128.16
 10
404.67
 20
126.96
 10
397.47
 20
117.36
 10
401.07
 20
114.96
 10
405.87
 20
122.16
 10
410.67
 20
119.76
 10
411.87
 20
118.56
 10
411.87
 20
117.36
 10
410.67
 20
116.16
 10
398.67
 20
100.56
 10
407.07
 20
101.76
 10
405.87
 20
106.56
 10
410.67
 20
107.76
 10
413.07
 20
100.56
 10
415.47
 20
93.36
 10
409.47
 20
92.16
 10
409.47
 20
96.96
 10
404.67
 20
95.76
 10
404.67
 20
65.76
 10
398.67
 20
65.76
 10
398.67
 20
94.56
 10
390.27
 20
93.36
 10
389.07
 20
92.16
 10
387.87
 20
92.16
 10
387.87
 20
94.56
 10
386.67
 20
99.36
 10
391.47
 20
99.36
 10
397.47
 20
110.16
 10
386.67
 20
117.36
 10
390.27
 20
120.96
 10
392.67
 20
119.76
 10
399.87
 20
132.96
  0
HATCH
  5
55
330
17
100
AcDbEntity
  8
FILL_WHITE_FFFFFF
 62
7
420
16777215
100
AcDbHatch
 10
0.0
 20
0.0
 30
0.0
210
0.0
220
0.0
230
1.0
  2
SOLID
 70
1
 71
0
 91
1
 92
3
 72
0
 73
1
 93
10
 10
396.27
 20
89.76
 10
396.27
 20
88.56
 10
395.07
 20
87.36
 10
395.07
 20
77.76
 10
393.87
 20
70.56
 10
386.67
 20
71.76
 10
389.07
 20
80.16
 10
389.07
 20
89.76
 10
393.87
 20
89.76
 10
396.27
 20
89.76
 97
0
 75
1
 76
1
 98
0
  0
LWPOLYLINE
  5
56
330
17
100
AcDbEntity
  8
FILL_WHITE_FFFFFF
370
0
420
16777215
100
AcDbPolyline
 90
9
 70
1
 10
396.27
 20
89.76
 10
396.27
 20
88.56
 10
395.07
 20
87.36
 10
395.07
 20
77.76
 10
393.87
 20
70.56
 10
386.67
 20
71.76
 10
389.07
 20
80.16
 10
389.07
 20
89.76
 10
393.87
 20
89.76
  0
HATCH
  5
57
330
17
100
AcDbEntity
  8
FILL_WHITE_FFFFFF
 62
7
420
16777215
100
AcDbHatch
 10
0.0
 20
0.0
 30
0.0
210
0.0
220
0.0
230
1.0
  2
SOLID
 70
1
 71
0
 91
1
 92
3
 72
0
 73
1
 93
6
 10
414.27
 20
75.36
 10
407.07
 20
72.96
 10
407.07
 20
81.36
 10
405.87
 20
88.56
 10
410.67
 20
89.76
 10
414.27
 20
75.36
 97
0
 75
1
 76
1
 98
0
  0
LWPOLYLINE
  5
58
330
17
100
AcDbEntity
  8
FILL_WHITE_FFFFFF
370
0
420
16777215
100
AcDbPolyline
 90
5
 70
1
 10
414.27
 20
75.36
 10
407.07
 20
72.96
 10
407.07
 20
81.36
 10
405.87
 20
88.56
 10
410.67
 20
89.76
  0
HATCH
  5
59
330
17
100
AcDbEntity
  8
FILL_WHITE_FFFFFF
 62
7
420
16777215
100
AcDbHatch
 10
0.0
 20
0.0
 30
0.0
210
0.0
220
0.0
230
1.0
  2
SOLID
 70
1
 71
0
 91
1
 92
3
 72
0
 73
1
 93
24
 10
180.27
 20
128.16
 10
180.27
 20
120.96
 10
150.27
 20
120.96
 10
144.27
 20
110.16
 10
149.07
 20
110.16
 10
151.47
 20
110.16
 10
152.67
 20
108.96
 10
152.67
 20
107.76
 10
151.47
 20
106.56
 10
151.47
 20
64.56
 10
143.07
 20
64.56
 10
143.07
 20
108.96
 10
138.27
 20
101.76
 10
132.27
 20
95.76
 10
125.07
 20
89.76
 10
117.87
 20
83.76
 10
111.87
 20
89.76
 10
121.47
 20
96.96
 10
129.87
 20
104.16
 10
137.07
 20
112.56
 10
141.87
 20
120.96
 10
113.07
 20
120.96
 10
113.07
 20
128.16
 10
180.27
 20
128.16
 97
0
 75
1
 76
1
 98
0
  0
LWPOLYLINE
  5
5A
330
17
100
AcDbEntity
  8
FILL_WHITE_FFFFFF
370
0
420
16777215
100
AcDbPolyline
 90
23
 70
1
 10
180.27
 20
128.16
 10
180.27
 20
120.96
 10
150.27
 20
120.96
 10
144.27
 20
110.16
 10
149.07
 20
110.16
 10
151.47
 20
110.16
 10
152.67
 20
108.96
 10
152.67
 20
107.76
 10
151.47
 20
106.56
 10
151.47
 20
64.56
 10
143.07
 20
64.56
 10
143.07
 20
108.96
 10
138.27
 20
101.76
 10
132.27
 20
95.76
 10
125.07
 20
89.76
 10
117.87
 20
83.76
 10
111.87
 20
89.76
 10
121.47
 20
96.96
 10
129.87
 20
104.16
 10
137.07
 20
112.56
 10
141.87
 20
120.96
 10
113.07
 20
120.96
 10
113.07
 20
128.16
  0
HATCH
  5
5B
330
17
100
AcDbEntity
  8
FILL_WHITE_FFFFFF
 62
7
420
16777215
100
AcDbHatch
 10
0.0
 20
0.0
 30
0.0
210
0.0
220
0.0
230
1.0
  2
SOLID
 70
1
 71
0
 91
1
 92
3
 72
0
 73
1
 93
9
 10
164.67
 20
96.96
 10
153.87
 20
108.96
 10
159.87
 20
112.56
 10
165.87
 20
106.56
 10
171.87
 20
100.56
 10
176.67
 20
94.56
 10
181.47
 20
87.36
 10
174.27
 20
83.76
 10
164.67
 20
96.96
 97
0
 75
1
 76
1
 98
0
  0
LWPOLYLINE
  5
5C
330
17
100
AcDbEntity
  8
FILL_WHITE_FFFFFF
370
0
420
16777215
100
AcDbPolyline
 90
8
 70
1
 10
164.67
 20
96.96
 10
153.87
 20
108.96
 10
159.87
 20
112.56
 10
165.87
 20
106.56
 10
171.87
 20
100.56
 10
176.67
 20
94.56
 10
181.47
 20
87.36
 10
174.27
 20
83.76
  0
HATCH
  5
5D
330
17
100
AcDbEntity
  8
FILL_WHITE_FFFFFF
 62
7
420
16777215
100
AcDbHatch
 10
0.0
 20
0.0
 30
0.0
210
0.0
220
0.0
230
1.0
  2
SOLID
 70
1
 71
0
 91
1
 92
3
 72
0
 73
1
 93
7
 10
209.07
 20
116.16
 10
203.07
 20
120.96
 10
209.07
 20
125.76
 10
213.87
 20
120.96
 10
218.67
 20
116.16
 10
213.87
 20
111.36
 10
209.07
 20
116.16
 97
0
 75
1
 76
1
 98
0
  0
LWPOLYLINE
  5
5E
330
17
100
AcDbEntity
  8
FILL_WHITE_FFFFFF
370
0
420
16777215
100
AcDbPolyline
 90
6
 70
1
 10
209.07
 20
116.16
 10
203.07
 20
120.96
 10
209.07
 20
125.76
 10
213.87
 20
120.96
 10
218.67
 20
116.16
 10
213.87
 20
111.36
  0
HATCH
  5
5F
330
17
100
AcDbEntity
  8
FILL_WHITE_FFFFFF
 62
7
420
16777215
100
AcDbHatch
 10
0.0
 20
0.0
 30
0.0
210
0.0
220
0.0
230
1.0
  2
SOLID
 70
1
 71
0
 91
1
 92
3
 72
0
 73
1
 93
11
 10
210.27
 20
83.76
 10
217.47
 20
96.96
 10
221.07
 20
90.96
 10
215.07
 20
80.16
 10
211.47
 20
70.56
 10
210.27
 20
69.36
 10
209.07
 20
68.16
 10
207.87
 20
69.36
 10
206.67
 20
70.56
 10
203.07
 20
72.96
 10
210.27
 20
83.76
 97
0
 75
1
 76
1
 98
0
  0
LWPOLYLINE
  5
60
330
17
100
AcDbEntity
  8
FILL_WHITE_FFFFFF
370
0
420
16777215
100
AcDbPolyline
 90
10
 70
1
 10
210.27
 20
83.76
 10
217.47
 20
96.96
 10
221.07
 20
90.96
 10
215.07
 20
80.16
 10
211.47
 20
70.56
 10
210.27
 20
69.36
 10
209.07
 20
68.16
 10
207.87
 20
69.36
 10
206.67
 20
70.56
 10
203.07
 20
72.96
  0
HATCH
  5
61
330
17
100
AcDbEntity
  8
FILL_WHITE_FFFFFF
 62
7
420
16777215
100
AcDbHatch
 10
0.0
 20
0.0
 30
0.0
210
0.0
220
0.0
230
1.0
  2
SOLID
 70
1
 71
0
 91
4
 92
3
 72
0
 73
1
 93
38
 10
233.07
 20
131.76
 10
237.87
 20
129.36
 10
240.27
 20
128.16
 10
240.27
 20
126.96
 10
239.07
 20
125.76
 10
233.07
 20
117.36
 10
246.27
 20
117.36
 10
252.27
 20
129.36
 10
257.07
 20
128.16
 10
259.47
 20
128.16
 10
260.67
 20
126.96
 10
259.47
 20
125.76
 10
258.27
 20
124.56
 10
254.67
 20
117.36
 10
270.27
 20
117.36
 10
270.27
 20
111.36
 10
254.67
 20
111.36
 10
254.67
 20
102.96
 10
267.87
 20
102.96
 10
267.87
 20
96.96
 10
254.67
 20
96.96
 10
254.67
 20
89.76
 10
267.87
 20
89.76
 10
267.87
 20
83.76
 10
254.67
 20
83.76
 10
254.67
 20
75.36
 10
271.47
 20
75.36
 10
271.47
 20
69.36
 10
234.27
 20
69.36
 10
234.27
 20
64.56
 10
228.27
 20
64.56
 10
228.27
 20
107.76
 10
221.07
 20
99.36
 10
215.07
 20
104.16
 10
219.87
 20
110.16
 10
224.67
 20
117.36
 10
229.47
 20
124.56
 10
233.07
 20
131.76
 97
0
 92
18
 72
0
 73
1
 93
5
 10
234.27
 20
89.76
 10
247.47
 20
89.76
 10
247.47
 20
96.96
 10
234.27
 20
96.96
 10
234.27
 20
89.76
 97
0
 92
18
 72
0
 73
1
 93
5
 10
234.27
 20
111.36
 10
234.27
 20
102.96
 10
247.47
 20
102.96
 10
247.47
 20
111.36
 10
234.27
 20
111.36
 97
0
 92
18
 72
0
 73
1
 93
5
 10
247.47
 20
83.76
 10
234.27
 20
83.76
 10
234.27
 20
75.36
 10
247.47
 20
75.36
 10
247.47
 20
83.76
 97
0
 75
1
 76
1
 98
0
  0
LWPOLYLINE
  5
62
330
17
100
AcDbEntity
  8
FILL_WHITE_FFFFFF
370
0
420
16777215
100
AcDbPolyline
 90
37
 70
1
 10
233.07
 20
131.76
 10
237.87
 20
129.36
 10
240.27
 20
128.16
 10
240.27
 20
126.96
 10
239.07
 20
125.76
 10
233.07
 20
117.36
 10
246.27
 20
117.36
 10
252.27
 20
129.36
 10
257.07
 20
128.16
 10
259.47
 20
128.16
 10
260.67
 20
126.96
 10
259.47
 20
125.76
 10
258.27
 20
124.56
 10
254.67
 20
117.36
 10
270.27
 20
117.36
 10
270.27
 20
111.36
 10
254.67
 20
111.36
 10
254.67
 20
102.96
 10
267.87
 20
102.96
 10
267.87
 20
96.96
 10
254.67
 20
96.96
 10
254.67
 20
89.76
 10
267.87
 20
89.76
 10
267.87
 20
83.76
 10
254.67
 20
83.76
 10
254.67
 20
75.36
 10
271.47
 20
75.36
 10
271.47
 20
69.36
 10
234.27
 20
69.36
 10
234.27
 20
64.56
 10
228.27
 20
64.56
 10
228.27
 20
107.76
 10
221.07
 20
99.36
 10
215.07
 20
104.16
 10
219.87
 20
110.16
 10
224.67
 20
117.36
 10
229.47
 20
124.56
  0
LWPOLYLINE
  5
63
330
17
100
AcDbEntity
  8
FILL_WHITE_FFFFFF
370
0
420
16777215
100
AcDbPolyline
 90
4
 70
1
 10
234.27
 20
89.76
 10
247.47
 20
89.76
 10
247.47
 20
96.96
 10
234.27
 20
96.96
  0
LWPOLYLINE
  5
64
330
17
100
AcDbEntity
  8
FILL_WHITE_FFFFFF
370
0
420
16777215
100
AcDbPolyline
 90
4
 70
1
 10
234.27
 20
111.36
 10
234.27
 20
102.96
 10
247.47
 20
102.96
 10
247.47
 20
111.36
  0
LWPOLYLINE
  5
65
330
17
100
AcDbEntity
  8
FILL_WHITE_FFFFFF
370
0
420
16777215
100
AcDbPolyline
 90
4
 70
1
 10
247.47
 20
83.76
 10
234.27
 20
83.76
 10
234.27
 20
75.36
 10
247.47
 20
75.36
  0
HATCH
  5
66
330
17
100
AcDbEntity
  8
FILL_WHITE_FFFFFF
 62
7
420
16777215
100
AcDbHatch
 10
0.0
 20
0.0
 30
0.0
210
0.0
220
0.0
230
1.0
  2
SOLID
 70
1
 71
0
 91
1
 92
3
 72
0
 73
1
 93
40
 10
303.87
 20
114.96
 10
303.87
 20
131.76
 10
308.67
 20
131.76
 10
311.07
 20
130.56
 10
312.27
 20
130.56
 10
311.07
 20
129.36
 10
309.87
 20
128.16
 10
309.87
 20
114.96
 10
318.27
 20
114.96
 10
318.27
 20
107.76
 10
309.87
 20
107.76
 10
309.87
 20
98.16
 10
317.07
 20
101.76
 10
317.07
 20
94.56
 10
309.87
 20
92.16
 10
309.87
 20
72.96
 10
309.87
 20
69.36
 10
308.67
 20
66.96
 10
307.47
 20
65.76
 10
305.07
 20
64.56
 10
301.47
 20
63.36
 10
296.67
 20
63.36
 10
294.27
 20
70.56
 10
299.07
 20
70.56
 10
301.47
 20
70.56
 10
302.67
 20
70.56
 10
303.87
 20
71.76
 10
303.87
 20
74.16
 10
303.87
 20
88.56
 10
299.07
 20
86.16
 10
297.87
 20
84.96
 10
297.87
 20
83.76
 10
296.67
 20
84.96
 10
295.47
 20
86.16
 10
294.27
 20
92.16
 10
303.87
 20
95.76
 10
303.87
 20
107.76
 10
295.47
 20
107.76
 10
295.47
 20
114.96
 10
303.87
 20
114.96
 97
0
 75
1
 76
1
 98
0
  0
LWPOLYLINE
  5
67
330
17
100
AcDbEntity
  8
FILL_WHITE_FFFFFF
370
0
420
16777215
100
AcDbPolyline
 90
39
 70
1
 10
303.87
 20
114.96
 10
303.87
 20
131.76
 10
308.67
 20
131.76
 10
311.07
 20
130.56
 10
312.27
 20
130.56
 10
311.07
 20
129.36
 10
309.87
 20
128.16
 10
309.87
 20
114.96
 10
318.27
 20
114.96
 10
318.27
 20
107.76
 10
309.87
 20
107.76
 10
309.87
 20
98.16
 10
317.07
 20
101.76
 10
317.07
 20
94.56
 10
309.87
 20
92.16
 10
309.87
 20
72.96
 10
309.87
 20
69.36
 10
308.67
 20
66.96
 10
307.47
 20
65.76
 10
305.07
 20
64.56
 10
301.47
 20
63.36
 10
296.67
 20
63.36
 10
294.27
 20
70.56
 10
299.07
 20
70.56
 10
301.47
 20
70.56
 10
302.67
 20
70.56
 10
303.87
 20
71.76
 10
303.87
 20
74.16
 10
303.87
 20
88.56
 10
299.07
 20
86.16
 10
297.87
 20
84.96
 10
297.87
 20
83.76
 10
296.67
 20
84.96
 10
295.47
 20
86.16
 10
294.27
 20
92.16
 10
303.87
 20
95.76
 10
303.87
 20
107.76
 10
295.47
 20
107.76
 10
295.47
 20
114.96
  0
HATCH
  5
68
330
17
100
AcDbEntity
  8
FILL_WHITE_FFFFFF
 62
7
420
16777215
100
AcDbHatch
 10
0.0
 20
0.0
 30
0.0
210
0.0
220
0.0
230
1.0
  2
SOLID
 70
1
 71
0
 91
5
 92
3
 72
0
 73
1
 93
44
 10
329.07
 20
129.36
 10
333.87
 20
134.16
 10
339.87
 20
131.76
 10
341.07
 20
130.56
 10
341.07
 20
129.36
 10
339.87
 20
129.36
 10
338.67
 20
129.36
 10
337.47
 20
128.16
 10
348.27
 20
128.16
 10
349.47
 20
130.56
 10
355.47
 20
125.76
 10
347.07
 20
116.16
 10
360.27
 20
116.16
 10
360.27
 20
88.56
 10
363.87
 20
88.56
 10
363.87
 20
81.36
 10
345.87
 20
81.36
 10
349.47
 20
77.76
 10
353.07
 20
74.16
 10
357.87
 20
71.76
 10
363.87
 20
68.16
 10
357.87
 20
63.36
 10
351.87
 20
66.96
 10
347.07
 20
69.36
 10
343.47
 20
74.16
 10
341.07
 20
78.96
 10
336.27
 20
72.96
 10
331.47
 20
69.36
 10
325.47
 20
65.76
 10
319.47
 20
63.36
 10
314.67
 20
69.36
 10
320.67
 20
71.76
 10
325.47
 20
74.16
 10
330.27
 20
77.76
 10
333.87
 20
81.36
 10
317.07
 20
81.36
 10
317.07
 20
88.56
 10
323.07
 20
88.56
 10
323.07
 20
116.16
 10
320.67
 20
114.96
 10
314.67
 20
118.56
 10
319.47
 20
122.16
 10
324.27
 20
125.76
 10
329.07
 20
129.36
 97
0
 92
18
 72
0
 73
1
 93
5
 10
338.67
 20
116.16
 10
344.67
 20
123.36
 10
332.67
 20
123.36
 10
323.07
 20
116.16
 10
338.67
 20
116.16
 97
0
 92
18
 72
0
 73
1
 93
7
 10
333.87
 20
111.36
 10
329.07
 20
111.36
 10
329.07
 20
99.36
 10
331.47
 20
100.56
 10
332.67
 20
104.16
 10
333.87
 20
106.56
 10
333.87
 20
111.36
 97
0
 92
18
 72
0
 73
1
 93
5
 10
348.27
 20
111.36
 10
348.27
 20
102.96
 10
354.27
 20
102.96
 10
354.27
 20
111.36
 10
348.27
 20
111.36
 97
0
 92
18
 72
0
 73
1
 93
25
 10
337.47
 20
90.96
 10
337.47
 20
94.56
 10
344.67
 20
93.36
 10
345.87
 20
93.36
 10
347.07
 20
92.16
 10
345.87
 20
90.96
 10
344.67
 20
90.96
 10
344.67
 20
88.56
 10
354.27
 20
88.56
 10
354.27
 20
96.96
 10
347.07
 20
96.96
 10
344.67
 20
96.96
 10
344.67
 20
98.16
 10
343.47
 20
99.36
 10
343.47
 20
100.56
 10
343.47
 20
111.36
 10
339.87
 20
111.36
 10
338.67
 20
105.36
 10
337.47
 20
100.56
 10
335.07
 20
96.96
 10
331.47
 20
94.56
 10
329.07
 20
95.76
 10
329.07
 20
88.56
 10
336.27
 20
88.56
 10
337.47
 20
90.96
 97
0
 75
1
 76
1
 98
0
  0
LWPOLYLINE
  5
69
330
17
100
AcDbEntity
  8
FILL_WHITE_FFFFFF
370
0
420
16777215
100
AcDbPolyline
 90
43
 70
1
 10
329.07
 20
129.36
 10
333.87
 20
134.16
 10
339.87
 20
131.76
 10
341.07
 20
130.56
 10
341.07
 20
129.36
 10
339.87
 20
129.36
 10
338.67
 20
129.36
 10
337.47
 20
128.16
 10
348.27
 20
128.16
 10
349.47
 20
130.56
 10
355.47
 20
125.76
 10
347.07
 20
116.16
 10
360.27
 20
116.16
 10
360.27
 20
88.56
 10
363.87
 20
88.56
 10
363.87
 20
81.36
 10
345.87
 20
81.36
 10
349.47
 20
77.76
 10
353.07
 20
74.16
 10
357.87
 20
71.76
 10
363.87
 20
68.16
 10
357.87
 20
63.36
 10
351.87
 20
66.96
 10
347.07
 20
69.36
 10
343.47
 20
74.16
 10
341.07
 20
78.96
 10
336.27
 20
72.96
 10
331.47
 20
69.36
 10
325.47
 20
65.76
 10
319.47
 20
63.36
 10
314.67
 20
69.36
 10
320.67
 20
71.76
 10
325.47
 20
74.16
 10
330.27
 20
77.76
 10
333.87
 20
81.36
 10
317.07
 20
81.36
 10
317.07
 20
88.56
 10
323.07
 20
88.56
 10
323.07
 20
116.16
 10
320.67
 20
114.96
 10
314.67
 20
118.56
 10
319.47
 20
122.16
 10
324.27
 20
125.76
  0
LWPOLYLINE
  5
6A
330
17
100
AcDbEntity
  8
FILL_WHITE_FFFFFF
370
0
420
16777215
100
AcDbPolyline
 90
4
 70
1
 10
338.67
 20
116.16
 10
344.67
 20
123.36
 10
332.67
 20
123.36
 10
323.07
 20
116.16
  0
LWPOLYLINE
  5
6B
330
17
100
AcDbEntity
  8
FILL_WHITE_FFFFFF
370
0
420
16777215
100
AcDbPolyline
 90
6
 70
1
 10
333.87
 20
111.36
 10
329.07
 20
111.36
 10
329.07
 20
99.36
 10
331.47
 20
100.56
 10
332.67
 20
104.16
 10
333.87
 20
106.56
  0
LWPOLYLINE
  5
6C
330
17
100
AcDbEntity
  8
FILL_WHITE_FFFFFF
370
0
420
16777215
100
AcDbPolyline
 90
4
 70
1
 10
348.27
 20
111.36
 10
348.27
 20
102.96
 10
354.27
 20
102.96
 10
354.27
 20
111.36
  0
LWPOLYLINE
  5
6D
330
17
100
AcDbEntity
  8
FILL_WHITE_FFFFFF
370
0
420
16777215
100
AcDbPolyline
 90
24
 70
1
 10
337.47
 20
90.96
 10
337.47
 20
94.56
 10
344.67
 20
93.36
 10
345.87
 20
93.36
 10
347.07
 20
92.16
 10
345.87
 20
90.96
 10
344.67
 20
90.96
 10
344.67
 20
88.56
 10
354.27
 20
88.56
 10
354.27
 20
96.96
 10
347.07
 20
96.96
 10
344.67
 20
96.96
 10
344.67
 20
98.16
 10
343.47
 20
99.36
 10
343.47
 20
100.56
 10
343.47
 20
111.36
 10
339.87
 20
111.36
 10
338.67
 20
105.36
 10
337.47
 20
100.56
 10
335.07
 20
96.96
 10
331.47
 20
94.56
 10
329.07
 20
95.76
 10
329.07
 20
88.56
 10
336.27
 20
88.56
  0
LWPOLYLINE
  5
6F
330
17
100
AcDbEntity
  8
STROKE_WHITE_FFFFFF
370
0
420
16777215
100
AcDbPolyline
 90
5
 70
0
 10
249.8700000000008
 20
214.55999999999767
 10
257.0699999999997
 20
214.55999999999767
 10
257.0699999999997
 20
168.95999999999822
 10
249.8700000000008
 20
168.95999999999822
 10
249.8700000000008
 20
214.55999999999767
  0
LWPOLYLINE
  5
71
330
17
100
AcDbEntity
  8
STROKE_BLUE_0000FF
370
0
420
255
100
AcDbPolyline
 90
69
 70
0
 10
551.0700000000006
 20
44.159999999998035
 10
551.0700000000006
 20
226.55999999999858
 10
550.9320117187507
 20
229.2160546874985
 10
550.5285937500006
 20
231.77718749999846
 10
549.8755664062508
 20
234.23285156249844
 10
548.9887500000007
 20
236.5724999999984
 10
547.8839648437506
 20
238.78558593749838
 10
546.5770312500006
 20
240.86156249999837
 10
545.0837695312507
 20
242.78988281249835
 10
543.4200000000006
 20
244.55999999999835
 10
541.6015429687507
 20
246.16136718749834
 10
539.6442187500006
 20
247.58343749999835
 10
537.5638476562507
 20
248.81566406249837
 10
535.3762500000007
 20
249.84749999999838
 10
533.0972460937508
 20
250.66839843749838
 10
530.7426562500007
 20
251.2678124999984
 10
528.3283007812508
 20
251.6351953124984
 10
525.8700000000008
 20
251.7599999999984
 10
39.8700000000008
 20
251.7599999999984
 10
37.42517578125068
 20
251.6351953124984
 10
35.0489062500006
 20
251.2678124999984
 10
32.753496093750535
 20
250.66839843749838
 10
30.551250000000493
 20
249.84749999999838
 10
28.454472656250477
 20
248.81566406249837
 10
26.47546875000048
 20
247.58343749999835
 10
24.626542968750503
 20
246.16136718749834
 10
22.920000000000528
 20
244.55999999999835
 10
21.368144531250564
 20
242.78988281249835
 10
19.98328125000061
 20
240.86156249999837
 10
18.777714843750655
 20
238.78558593749838
 10
17.763750000000698
 20
236.5724999999984
 10
16.953691406250737
 20
234.23285156249844
 10
16.35984375000077
 20
231.77718749999846
 10
15.994511718750791
 20
229.2160546874985
 10
15.8700000000008
 20
226.55999999999858
 10
15.8700000000008
 20
44.159999999998035
 10
15.994511718750791
 20
41.71517578124809
 10
16.35984375000077
 20
39.33890624999813
 10
16.953691406250737
 20
37.04349609374819
 10
17.763750000000698
 20
34.84124999999824
 10
18.777714843750655
 20
32.74447265624832
 10
19.98328125000061
 20
30.765468749998405
 10
21.368144531250564
 20
28.916542968748473
 10
22.920000000000528
 20
27.20999999999856
 10
24.6265429687505
 20
25.658144531248638
 10
26.47546875000048
 20
24.273281249998718
 10
28.454472656250477
 20
23.067714843748774
 10
30.551250000000493
 20
22.053749999998843
 10
32.75349609375053
 20
21.2436914062489
 10
35.04890625000059
 20
20.649843749998922
 10
37.42517578125068
 20
20.284511718748917
 10
39.8700000000008
 20
20.159999999998945
 10
525.8700000000008
 20
20.159999999998945
 10
528.3283007812507
 20
20.284511718748917
 10
530.7426562500008
 20
20.649843749998922
 10
533.0972460937508
 20
21.24369140624887
 10
535.3762500000007
 20
22.053749999998843
 10
537.5638476562507
 20
23.067714843748774
 10
539.6442187500006
 20
24.273281249998718
 10
541.6015429687507
 20
25.658144531248638
 10
543.4200000000006
 20
27.20999999999856
 10
545.0837695312506
 20
28.916542968748473
 10
546.5770312500006
 20
30.765468749998405
 10
547.8839648437506
 20
32.74447265624832
 10
548.9887500000007
 20
34.84124999999824
 10
549.8755664062506
 20
37.04349609374819
 10
550.5285937500006
 20
39.33890624999813
 10
550.9320117187506
 20
41.71517578124809
 10
551.0700000000006
 20
44.159999999998035
  0
ENDSEC
  0
SECTION
  2
OBJECTS
  0
DICTIONARY
  5
A
330
0
100
AcDbDictionary
281
1
  3
ACAD_COLOR
350
B
  3
ACAD_GROUP
350
C
  3
ACAD_LAYOUT
350
D
  3
ACAD_MATERIAL
350
E
  3
ACAD_MLEADERSTYLE
350
F
  3
ACAD_MLINESTYLE
350
10
  3
ACAD_PLOTSETTINGS
350
11
  3
ACAD_PLOTSTYLENAME
350
12
  3
ACAD_SCALELIST
350
14
  3
ACAD_TABLESTYLE
350
15
  3
ACAD_VISUALSTYLE
350
16
  3
EZDXF_META
350
2D
  0
DICTIONARY
  5
B
330
A
100
AcDbDictionary
281
1
  0
DICTIONARY
  5
C
330
A
100
AcDbDictionary
281
1
  0
DICTIONARY
  5
D
330
A
100
AcDbDictionary
281
1
  3
Model
350
1A
  3
Layout1
350
1E
  0
DICTIONARY
  5
E
330
A
100
AcDbDictionary
281
1
  3
ByBlock
350
1F
  3
ByLayer
350
20
  3
Global
350
21
  0
DICTIONARY
  5
F
330
A
100
AcDbDictionary
281
1
  3
Standard
350
2C
  0
DICTIONARY
  5
10
330
A
100
AcDbDictionary
281
1
  3
Standard
350
22
  0
DICTIONARY
  5
11
330
A
100
AcDbDictionary
281
1
  0
ACDBDICTIONARYWDFLT
  5
12
330
A
100
AcDbDictionary
281
1
  3
Normal
350
13
100
AcDbDictionaryWithDefault
340
13
  0
ACDBPLACEHOLDER
  5
13
330
12
  0
DICTIONARY
  5
14
330
A
100
AcDbDictionary
281
1
  0
DICTIONARY
  5
15
330
A
100
AcDbDictionary
281
1
  0
DICTIONARY
  5
16
330
A
100
AcDbDictionary
281
1
  0
LAYOUT
  5
1A
330
D
100
AcDbPlotSettings
  1

  4
A3
  6

 40
7.5
 41
20.0
 42
7.5
 43
20.0
 44
420.0
 45
297.0
 46
0.0
 47
0.0
 48
0.0
 49
0.0
140
0.0
141
0.0
142
1.0
143
1.0
 70
1024
 72
1
 73
0
 74
5
  7

 75
16
 76
0
 77
2
 78
300
147
1.0
148
0.0
149
0.0
100
AcDbLayout
  1
Model
 70
1
 71
0
 10
0.0
 20
0.0
 11
420.0
 21
297.0
 12
0.0
 22
0.0
 32
0.0
 14
1e+20
 24
1e+20
 34
1e+20
 15
-1e+20
 25
-1e+20
 35
-1e+20
146
0.0
 13
0.0
 23
0.0
 33
0.0
 16
1.0
 26
0.0
 36
0.0
 17
0.0
 27
1.0
 37
0.0
 76
1
330
17
  0
LAYOUT
  5
1E
330
D
100
AcDbPlotSettings
  1

  4
A3
  6

 40
7.5
 41
20.0
 42
7.5
 43
20.0
 44
420.0
 45
297.0
 46
0.0
 47
0.0
 48
0.0
 49
0.0
140
0.0
141
0.0
142
1.0
143
1.0
 70
0
 72
1
 73
0
 74
5
  7

 75
16
 76
0
 77
2
 78
300
147
1.0
148
0.0
149
0.0
100
AcDbLayout
  1
Layout1
 70
1
 71
1
 10
0.0
 20
0.0
 11
420.0
 21
297.0
 12
0.0
 22
0.0
 32
0.0
 14
1e+20
 24
1e+20
 34
1e+20
 15
-1e+20
 25
-1e+20
 35
-1e+20
146
0.0
 13
0.0
 23
0.0
 33
0.0
 16
1.0
 26
0.0
 36
0.0
 17
0.0
 27
1.0
 37
0.0
 76
1
330
1B
  0
MATERIAL
  5
1F
102
{ACAD_REACTORS
330
E
102
}
330
E
100
AcDbMaterial
  1
ByBlock
  2

 70
0
 40
1.0
 71
1
 41
1.0
 91
-1023410177
 42
1.0
 72
1
  3

 73
1
 74
1
 75
1
 44
0.5
 73
0
 45
1.0
 46
1.0
 77
1
  4

 78
1
 79
1
170
1
 48
1.0
171
1
  6

172
1
173
1
174
1
140
1.0
141
1.0
175
1
  7

176
1
177
1
178
1
143
1.0
179
1
  8

270
1
271
1
272
1
145
1.0
146
1.0
273
1
  9

274
1
275
1
276
1
 42
1.0
 72
1
  3

 73
1
 74
1
 75
1
 94
63
  0
MATERIAL
  5
20
102
{ACAD_REACTORS
330
E
102
}
330
E
100
AcDbMaterial
  1
ByLayer
  2

 70
0
 40
1.0
 71
1
 41
1.0
 91
-1023410177
 42
1.0
 72
1
  3

 73
1
 74
1
 75
1
 44
0.5
 73
0
 45
1.0
 46
1.0
 77
1
  4

 78
1
 79
1
170
1
 48
1.0
171
1
  6

172
1
173
1
174
1
140
1.0
141
1.0
175
1
  7

176
1
177
1
178
1
143
1.0
179
1
  8

270
1
271
1
272
1
145
1.0
146
1.0
273
1
  9

274
1
275
1
276
1
 42
1.0
 72
1
  3

 73
1
 74
1
 75
1
 94
63
  0
MATERIAL
  5
21
102
{ACAD_REACTORS
330
E
102
}
330
E
100
AcDbMaterial
  1
Global
  2

 70
0
 40
1.0
 71
1
 41
1.0
 91
-1023410177
 42
1.0
 72
1
  3

 73
1
 74
1
 75
1
 44
0.5
 73
0
 45
1.0
 46
1.0
 77
1
  4

 78
1
 79
1
170
1
 48
1.0
171
1
  6

172
1
173
1
174
1
140
1.0
141
1.0
175
1
  7

176
1
177
1
178
1
143
1.0
179
1
  8

270
1
271
1
272
1
145
1.0
146
1.0
273
1
  9

274
1
275
1
276
1
 42
1.0
 72
1
  3

 73
1
 74
1
 75
1
 94
63
  0
MLINESTYLE
  5
22
102
{ACAD_REACTORS
330
10
102
}
330
10
100
AcDbMlineStyle
  2
Standard
 70
0
  3

 62
256
 51
90.0
 52
90.0
 71
2
 49
0.5
 62
256
  6
BYLAYER
 49
-0.5
 62
256
  6
BYLAYER
  0
MLEADERSTYLE
  5
2C
102
{ACAD_REACTORS
330
F
102
}
330
F
100
AcDbMLeaderStyle
179
2
170
2
171
1
172
0
 90
2
 40
0.0
 41
0.0
173
1
 91
-1056964608
 92
-2
290
1
 42
2.0
291
1
 43
8.0
  3
Standard
 44
4.0
300

342
29
174
1
175
1
176
0
178
1
 93
-1056964608
 45
4.0
292
0
297
0
 46
4.0
 94
-1056964608
 47
1.0
 49
1.0
140
1.0
294
1
141
0.0
177
0
142
1.0
295
0
296
0
143
3.75
271
0
272
9
273
9
  0
DICTIONARY
  5
2D
330
A
100
AcDbDictionary
280
1
281
1
  3
CREATED_BY_EZDXF
350
2E
  3
WRITTEN_BY_EZDXF
350
74
  0
DICTIONARYVAR
  5
2E
330
2D
100
DictionaryVariables
280
0
  1
1.4.4 @ 2026-07-10T01:53:54.296557+00:00
  0
DICTIONARYVAR
  5
74
330
2D
100
DictionaryVariables
280
0
  1
1.4.4 @ 2026-07-10T01:53:54.302295+00:00
  0
ENDSEC
  0
EOF
