  0
SECTION
  2
HEADER
  9
$ACADVER
  1
AC1024
  9
$ACADMAINTVER
 70
6
  9
$DWGCODEPAGE
  3
ANSI_1252
  9
$LASTSAVEDBY
  1
ezdxf
  9
$INSBASE
 10
0.0
 20
0.0
 30
0.0
  9
$EXTMIN
 10
1e+20
 20
1e+20
 30
1e+20
  9
$EXTMAX
 10
-1e+20
 20
-1e+20
 30
-1e+20
  9
$LIMMIN
 10
0.0
 20
0.0
  9
$LIMMAX
 10
420.0
 20
297.0
  9
$ORTHOMODE
 70
0
  9
$REGENMODE
 70
1
  9
$FILLMODE
 70
1
  9
$QTEXTMODE
 70
0
  9
$MIRRTEXT
 70
1
  9
$LTSCALE
 40
1.0
  9
$ATTMODE
 70
1
  9
$TEXTSIZE
 40
2.5
  9
$TRACEWID
 40
1.0
  9
$TEXTSTYLE
  7
Standard
  9
$CLAYER
  8
0
  9
$CELTYPE
  6
ByLayer
  9
$CECOLOR
 62
256
  9
$CELTSCALE
 40
1.0
  9
$DISPSILH
 70
0
  9
$DIMSCALE
 40
1.0
  9
$DIMASZ
 40
2.5
  9
$DIMEXO
 40
0.625
  9
$DIMDLI
 40
3.75
  9
$DIMRND
 40
0.0
  9
$DIMDLE
 40
0.0
  9
$DIMEXE
 40
1.25
  9
$DIMTP
 40
0.0
  9
$DIMTM
 40
0.0
  9
$DIMTXT
 40
2.5
  9
$DIMCEN
 40
2.5
  9
$DIMTSZ
 40
0.0
  9
$DIMTOL
 70
0
  9
$DIMLIM
 70
0
  9
$DIMTIH
 70
0
  9
$DIMTOH
 70
0
  9
$DIMSE1
 70
0
  9
$DIMSE2
 70
0
  9
$DIMTAD
 70
1
  9
$DIMZIN
 70
8
  9
$DIMBLK
  1

  9
$DIMASO
 70
1
  9
$DIMSHO
 70
1
  9
$DIMPOST
  1

  9
$DIMAPOST
  1

  9
$DIMALT
 70
0
  9
$DIMALTD
 70
3
  9
$DIMALTF
 40
0.03937007874
  9
$DIMLFAC
 40
1.0
  9
$DIMTOFL
 70
1
  9
$DIMTVP
 40
0.0
  9
$DIMTIX
 70
0
  9
$DIMSOXD
 70
0
  9
$DIMSAH
 70
0
  9
$DIMBLK1
  1

  9
$DIMBLK2
  1

  9
$DIMSTYLE
  2
ISO-25
  9
$DIMCLRD
 70
0
  9
$DIMCLRE
 70
0
  9
$DIMCLRT
 70
0
  9
$DIMTFAC
 40
1.0
  9
$DIMGAP
 40
0.625
  9
$DIMJUST
 70
0
  9
$DIMSD1
 70
0
  9
$DIMSD2
 70
0
  9
$DIMTOLJ
 70
0
  9
$DIMTZIN
 70
8
  9
$DIMALTZ
 70
0
  9
$DIMALTTZ
 70
0
  9
$DIMUPT
 70
0
  9
$DIMDEC
 70
2
  9
$DIMTDEC
 70
2
  9
$DIMALTU
 70
2
  9
$DIMALTTD
 70
3
  9
$DIMTXSTY
  7
Standard
  9
$DIMAUNIT
 70
0
  9
$DIMADEC
 70
0
  9
$DIMALTRND
 40
0.0
  9
$DIMAZIN
 70
0
  9
$DIMDSEP
 70
44
  9
$DIMATFIT
 70
3
  9
$DIMFRAC
 70
0
  9
$DIMLDRBLK
  1

  9
$DIMLUNIT
 70
2
  9
$DIMLWD
 70
-2
  9
$DIMLWE
 70
-2
  9
$DIMTMOVE
 70
0
  9
$DIMFXL
 40
1.0
  9
$DIMFXLON
 70
0
  9
$DIMJOGANG
 40
0.785398163397
  9
$DIMTFILL
 70
0
  9
$DIMTFILLCLR
 70
0
  9
$DIMARCSYM
 70
0
  9
$DIMLTYPE
  6

  9
$DIMLTEX1
  6

  9
$DIMLTEX2
  6

  9
$DIMTXTDIRECTION
 70
0
  9
$LUNITS
 70
2
  9
$LUPREC
 70
4
  9
$SKETCHINC
 40
1.0
  9
$FILLETRAD
 40
10.0
  9
$AUNITS
 70
0
  9
$AUPREC
 70
2
  9
$MENU
  1
.
  9
$ELEVATION
 40
0.0
  9
$PELEVATION
 40
0.0
  9
$THICKNESS
 40
0.0
  9
$LIMCHECK
 70
0
  9
$CHAMFERA
 40
0.0
  9
$CHAMFERB
 40
0.0
  9
$CHAMFERC
 40
0.0
  9
$CHAMFERD
 40
0.0
  9
$SKPOLY
 70
0
  9
$TDCREATE
 40
2461232.4124305556
  9
$TDUCREATE
 40
2458532.153996898
  9
$TDUPDATE
 40
2461232.4124305556
  9
$TDUUPDATE
 40
2458532.1544311
  9
$TDINDWG
 40
0.0
  9
$TDUSRTIMER
 40
0.0
  9
$USRTIMER
 70
1
  9
$ANGBASE
 50
0.0
  9
$ANGDIR
 70
0
  9
$PDMODE
 70
0
  9
$PDSIZE
 40
0.0
  9
$PLINEWID
 40
0.0
  9
$SPLFRAME
 70
0
  9
$SPLINETYPE
 70
6
  9
$SPLINESEGS
 70
8
  9
$HANDSEED
  5
5B
  9
$SURFTAB1
 70
6
  9
$SURFTAB2
 70
6
  9
$SURFTYPE
 70
6
  9
$SURFU
 70
6
  9
$SURFV
 70
6
  9
$UCSBASE
  2

  9
$UCSNAME
  2

  9
$UCSORG
 10
0.0
 20
0.0
 30
0.0
  9
$UCSXDIR
 10
1.0
 20
0.0
 30
0.0
  9
$UCSYDIR
 10
0.0
 20
1.0
 30
0.0
  9
$UCSORTHOREF
  2

  9
$UCSORTHOVIEW
 70
0
  9
$UCSORGTOP
 10
0.0
 20
0.0
 30
0.0
  9
$UCSORGBOTTOM
 10
0.0
 20
0.0
 30
0.0
  9
$UCSORGLEFT
 10
0.0
 20
0.0
 30
0.0
  9
$UCSORGRIGHT
 10
0.0
 20
0.0
 30
0.0
  9
$UCSORGFRONT
 10
0.0
 20
0.0
 30
0.0
  9
$UCSORGBACK
 10
0.0
 20
0.0
 30
0.0
  9
$PUCSBASE
  2

  9
$PUCSNAME
  2

  9
$PUCSORG
 10
0.0
 20
0.0
 30
0.0
  9
$PUCSXDIR
 10
1.0
 20
0.0
 30
0.0
  9
$PUCSYDIR
 10
0.0
 20
1.0
 30
0.0
  9
$PUCSORTHOREF
  2

  9
$PUCSORTHOVIEW
 70
0
  9
$PUCSORGTOP
 10
0.0
 20
0.0
 30
0.0
  9
$PUCSORGBOTTOM
 10
0.0
 20
0.0
 30
0.0
  9
$PUCSORGLEFT
 10
0.0
 20
0.0
 30
0.0
  9
$PUCSORGRIGHT
 10
0.0
 20
0.0
 30
0.0
  9
$PUCSORGFRONT
 10
0.0
 20
0.0
 30
0.0
  9
$PUCSORGBACK
 10
0.0
 20
0.0
 30
0.0
  9
$USERI1
 70
0
  9
$USERI2
 70
0
  9
$USERI3
 70
0
  9
$USERI4
 70
0
  9
$USERI5
 70
0
  9
$USERR1
 40
0.0
  9
$USERR2
 40
0.0
  9
$USERR3
 40
0.0
  9
$USERR4
 40
0.0
  9
$USERR5
 40
0.0
  9
$WORLDVIEW
 70
1
  9
$SHADEDGE
 70
3
  9
$SHADEDIF
 70
70
  9
$TILEMODE
 70
1
  9
$MAXACTVP
 70
64
  9
$PINSBASE
 10
0.0
 20
0.0
 30
0.0
  9
$PLIMCHECK
 70
0
  9
$PEXTMIN
 10
1e+20
 20
1e+20
 30
1e+20
  9
$PEXTMAX
 10
-1e+20
 20
-1e+20
 30
-1e+20
  9
$PLIMMIN
 10
0.0
 20
0.0
  9
$PLIMMAX
 10
420.0
 20
297.0
  9
$UNITMODE
 70
0
  9
$VISRETAIN
 70
1
  9
$PLINEGEN
 70
0
  9
$PSLTSCALE
 70
1
  9
$TREEDEPTH
 70
3020
  9
$CMLSTYLE
  2
Standard
  9
$CMLJUST
 70
0
  9
$CMLSCALE
 40
20.0
  9
$PROXYGRAPHICS
 70
1
  9
$MEASUREMENT
 70
1
  9
$CELWEIGHT
370
-1
  9
$ENDCAPS
280
0
  9
$JOINSTYLE
280
0
  9
$LWDISPLAY
290
0
  9
$INSUNITS
 70
6
  9
$HYPERLINKBASE
  1

  9
$STYLESHEET
  1

  9
$XEDIT
290
1
  9
$CEPSNTYPE
380
0
  9
$PSTYLEMODE
290
1
  9
$FINGERPRINTGUID
  2
{8517CF86-8BC7-4953-9EF5-C4717B1A79EB}
  9
$VERSIONGUID
  2
{B260A0DC-9DA6-4509-9517-873C15B62604}
  9
$EXTNAMES
290
1
  9
$PSVPSCALE
 40
0.0
  9
$OLESTARTUP
290
0
  9
$SORTENTS
280
127
  9
$INDEXCTL
280
0
  9
$HIDETEXT
280
1
  9
$XCLIPFRAME
280
1
  9
$HALOGAP
280
0
  9
$OBSCOLOR
 70
257
  9
$OBSLTYPE
280
0
  9
$INTERSECTIONDISPLAY
280
0
  9
$INTERSECTIONCOLOR
 70
257
  9
$DIMASSOC
280
2
  9
$PROJECTNAME
  1

  9
$CAMERADISPLAY
290
0
  9
$LENSLENGTH
 40
50.0
  9
$CAMERAHEIGHT
 40
0.0
  9
$STEPSPERSEC
 40
24.0
  9
$STEPSIZE
 40
100.0
  9
$3DDWFPREC
 40
2.0
  9
$PSOLWIDTH
 40
0.005
  9
$PSOLHEIGHT
 40
0.08
  9
$LOFTANG1
 40
1.570796326795
  9
$LOFTANG2
 40
1.570796326795
  9
$LOFTMAG1
 40
0.0
  9
$LOFTMAG2
 40
0.0
  9
$LOFTPARAM
 70
7
  9
$LOFTNORMALS
280
1
  9
$LATITUDE
 40
37.795
  9
$LONGITUDE
 40
-122.394
  9
$NORTHDIRECTION
 40
0.0
  9
$TIMEZONE
 70
-8000
  9
$LIGHTGLYPHDISPLAY
280
1
  9
$TILEMODELIGHTSYNCH
280
1
  9
$CMATERIAL
347
20
  9
$SOLIDHIST
280
0
  9
$SHOWHIST
280
1
  9
$DWFFRAME
280
2
  9
$DGNFRAME
280
2
  9
$REALWORLDSCALE
290
1
  9
$INTERFERECOLOR
 62
256
  9
$CSHADOW
280
0
  9
$SHADOWPLANELOCATION
 40
0.0
  0
ENDSEC
  0
SECTION
  2
CLASSES
  0
CLASS
  1
ACDBDICTIONARYWDFLT
  2
AcDbDictionaryWithDefault
  3
ObjectDBX Classes
 90
0
 91
0
280
0
281
0
  0
CLASS
  1
SUN
  2
AcDbSun
  3
SCENEOE
 90
1153
 91
0
280
0
281
0
  0
CLASS
  1
VISUALSTYLE
  2
AcDbVisualStyle
  3
ObjectDBX Classes
 90
4095
 91
0
280
0
281
0
  0
CLASS
  1
MATERIAL
  2
AcDbMaterial
  3
ObjectDBX Classes
 90
1153
 91
0
280
0
281
0
  0
CLASS
  1
SCALE
  2
AcDbScale
  3
ObjectDBX Classes
 90
1153
 91
0
280
0
281
0
  0
CLASS
  1
TABLESTYLE
  2
AcDbTableStyle
  3
ObjectDBX Classes
 90
4095
 91
0
280
0
281
0
  0
CLASS
  1
MLEADERSTYLE
  2
AcDbMLeaderStyle
  3
ACDB_MLEADERSTYLE_CLASS
 90
4095
 91
0
280
0
281
0
  0
CLASS
  1
DICTIONARYVAR
  2
AcDbDictionaryVar
  3
ObjectDBX Classes
 90
0
 91
0
280
0
281
0
  0
CLASS
  1
CELLSTYLEMAP
  2
AcDbCellStyleMap
  3
ObjectDBX Classes
 90
1152
 91
0
280
0
281
0
  0
CLASS
  1
MENTALRAYRENDERSETTINGS
  2
AcDbMentalRayRenderSettings
  3
SCENEOE
 90
1024
 91
0
280
0
281
0
  0
CLASS
  1
ACDBDETAILVIEWSTYLE
  2
AcDbDetailViewStyle
  3
ObjectDBX Classes
 90
1025
 91
0
280
0
281
0
  0
CLASS
  1
ACDBSECTIONVIEWSTYLE
  2
AcDbSectionViewStyle
  3
ObjectDBX Classes
 90
1025
 91
0
280
0
281
0
  0
CLASS
  1
RASTERVARIABLES
  2
AcDbRasterVariables
  3
ISM
 90
0
 91
0
280
0
281
0
  0
CLASS
  1
LAYOUT
  2
AcDbLayout
  3
ObjectDBX Classes
 90
0
 91
0
280
0
281
0
  0
CLASS
  1
ACDBPLACEHOLDER
  2
AcDbPlaceHolder
  3
ObjectDBX Classes
 90
0
 91
0
280
0
281
0
  0
ENDSEC
  0
SECTION
  2
TABLES
  0
TABLE
  2
VPORT
  5
8
330
0
100
AcDbSymbolTable
 70
1
  0
VPORT
  5
23
330
8
100
AcDbSymbolTableRecord
100
AcDbViewportTableRecord
  2
*Active
 70
0
 10
0.0
 20
0.0
 11
1.0
 21
1.0
 12
0.0
 22
0.0
 13
0.0
 23
0.0
 14
0.5
 24
0.5
 15
0.5
 25
0.5
 16
0.0
 26
0.0
 36
1.0
 17
0.0
 27
0.0
 37
0.0
 40
1000.0
 41
1.34
 42
50.0
 43
0.0
 44
0.0
 50
0.0
 51
0.0
 71
0
 72
1000
 73
1
 74
3
 75
0
 76
0
 77
0
 78
0
281
0
 65
0
146
0.0
  0
ENDTAB
  0
TABLE
  2
LTYPE
  5
2
330
0
100
AcDbSymbolTable
 70
3
  0
LTYPE
  5
24
330
2
100
AcDbSymbolTableRecord
100
AcDbLinetypeTableRecord
  2
ByBlock
 70
0
  3

 72
65
 73
0
 40
0.0
  0
LTYPE
  5
25
330
2
100
AcDbSymbolTableRecord
100
AcDbLinetypeTableRecord
  2
ByLayer
 70
0
  3

 72
65
 73
0
 40
0.0
  0
LTYPE
  5
26
330
2
100
AcDbSymbolTableRecord
100
AcDbLinetypeTableRecord
  2
Continuous
 70
0
  3

 72
65
 73
0
 40
0.0
  0
ENDTAB
  0
TABLE
  2
LAYER
  5
1
330
0
100
AcDbSymbolTable
 70
8
  0
LAYER
  5
27
330
1
100
AcDbSymbolTableRecord
100
AcDbLayerTableRecord
  2
0
 70
0
 62
7
  6
Continuous
370
-3
390
13
347
21
  0
LAYER
  5
28
330
1
100
AcDbSymbolTableRecord
100
AcDbLayerTableRecord
  2
Defpoints
 70
0
 62
7
  6
Continuous
290
0
370
-3
390
13
347
21
  0
LAYER
  5
2F
330
1
100
AcDbSymbolTableRecord
100
AcDbLayerTableRecord
  2
FILL_BLACK_000000
 70
0
 62
7
420
0
  6
Continuous
370
-3
390
13
347
21
  0
LAYER
  5
33
330
1
100
AcDbSymbolTableRecord
100
AcDbLayerTableRecord
  2
FILL_WHITE_FFFFFF
 70
0
 62
7
420
16777215
  6
Continuous
370
-3
390
13
347
21
  0
LAYER
  5
36
330
1
100
AcDbSymbolTableRecord
100
AcDbLayerTableRecord
  2
FILL_BLUE_0000FF
 70
0
 62
7
420
255
  6
Continuous
370
-3
390
13
347
21
  0
LAYER
  5
43
330
1
100
AcDbSymbolTableRecord
100
AcDbLayerTableRecord
  2
FILL_RED_FF0000
 70
0
 62
7
420
16711680
  6
Continuous
370
-3
390
13
347
21
  0
LAYER
  5
48
330
1
100
AcDbSymbolTableRecord
100
AcDbLayerTableRecord
  2
STROKE_BLACK_000000
 70
0
 62
7
420
0
  6
Continuous
370
-3
390
13
347
21
  0
LAYER
  5
54
330
1
100
AcDbSymbolTableRecord
100
AcDbLayerTableRecord
  2
STROKE_BLUE_0000FF
 70
0
 62
7
420
255
  6
Continuous
370
-3
390
13
347
21
  0
ENDTAB
  0
TABLE
  2
STYLE
  5
5
330
0
100
AcDbSymbolTable
 70
1
  0
STYLE
  5
29
330
5
100
AcDbSymbolTableRecord
100
AcDbTextStyleTableRecord
  2
Standard
 70
0
 40
0.0
 41
1.0
 50
0.0
 71
0
 42
2.5
  3
txt
  4

  0
ENDTAB
  0
TABLE
  2
VIEW
  5
7
330
0
100
AcDbSymbolTable
 70
0
  0
ENDTAB
  0
TABLE
  2
UCS
  5
6
330
0
100
AcDbSymbolTable
 70
0
  0
ENDTAB
  0
TABLE
  2
APPID
  5
3
330
0
100
AcDbSymbolTable
 70
3
  0
APPID
  5
2A
330
3
100
AcDbSymbolTableRecord
100
AcDbRegAppTableRecord
  2
ACAD
 70
0
  0
APPID
  5
58
330
3
100
AcDbSymbolTableRecord
100
AcDbRegAppTableRecord
  2
HATCHBACKGROUNDCOLOR
 70
0
  0
APPID
  5
59
330
3
100
AcDbSymbolTableRecord
100
AcDbRegAppTableRecord
  2
EZDXF
 70
0
  0
ENDTAB
  0
TABLE
  2
DIMSTYLE
  5
4
330
0
100
AcDbSymbolTable
 70
1
100
AcDbDimStyleTable
  0
DIMSTYLE
105
2B
330
4
100
AcDbSymbolTableRecord
100
AcDbDimStyleTableRecord
  2
Standard
 70
0
 40
1.0
 41
2.5
 42
0.625
 43
3.75
 44
1.25
 45
0.0
 46
0.0
 47
0.0
 48
0.0
 49
2.5
140
2.5
141
2.5
142
0.0
143
0.03937007874
144
1.0
145
0.0
146
1.0
147
0.625
148
0.0
 69
0
 70
0
 71
0
 72
0
 73
0
 74
0
 75
0
 76
0
 77
1
 78
8
 79
3
170
0
171
3
172
1
173
0
174
0
175
0
176
0
177
0
178
0
179
2
271
2
272
2
273
2
274
3
275
0
276
0
277
2
278
44
279
0
280
0
281
0
282
0
283
0
284
8
285
0
286
0
288
0
289
3
290
0
371
-2
372
-2
  0
ENDTAB
  0
TABLE
  2
BLOCK_RECORD
  5
9
330
0
100
AcDbSymbolTable
 70
2
  0
BLOCK_RECORD
  5
17
330
9
100
AcDbSymbolTableRecord
100
AcDbBlockTableRecord
  2
*Model_Space
340
1A
 70
0
280
1
281
0
  0
BLOCK_RECORD
  5
1B
330
9
100
AcDbSymbolTableRecord
100
AcDbBlockTableRecord
  2
*Paper_Space
340
1E
 70
0
280
1
281
0
  0
ENDTAB
  0
ENDSEC
  0
SECTION
  2
BLOCKS
  0
BLOCK
  5
18
330
17
100
AcDbEntity
  8
0
100
AcDbBlockBegin
  2
*Model_Space
 70
0
 10
0.0
 20
0.0
 30
0.0
  3
*Model_Space
  1

  0
ENDBLK
  5
19
330
17
100
AcDbEntity
  8
0
100
AcDbBlockEnd
  0
BLOCK
  5
1C
330
1B
100
AcDbEntity
  8
0
100
AcDbBlockBegin
  2
*Paper_Space
 70
0
 10
0.0
 20
0.0
 30
0.0
  3
*Paper_Space
  1

  0
ENDBLK
  5
1D
330
1B
100
AcDbEntity
  8
0
100
AcDbBlockEnd
  0
ENDSEC
  0
SECTION
  2
ENTITIES
  0
HATCH
  5
30
330
17
100
AcDbEntity
  8
FILL_BLACK_000000
 62
7
420
0
100
AcDbHatch
 10
0.0
 20
0.0
 30
0.0
210
0.0
220
0.0
230
1.0
  2
SOLID
 70
1
 71
0
 91
2
 92
3
 72
0
 73
1
 93
78
 10
437.9
 20
263.17
 10
440.74
 20
262.81
 10
443.63
 20
262.2
 10
446.55
 20
261.33
 10
449.47
 20
260.17
 10
452.36
 20
258.72
 10
455.2
 20
256.96
 10
457.95
 20
254.88
 10
460.03
 20
252.13
 10
461.79
 20
249.29
 10
463.24
 20
246.4
 10
464.4
 20
243.48
 10
465.27
 20
240.56
 10
465.88
 20
237.67
 10
466.24
 20
234.83
 10
466.35
 20
232.08
 10
466.35
 20
40.08
 10
466.31
 20
37.36
 10
466.05
 20
34.53
 10
465.76
 20
33.04
 10
465.34
 20
31.47
 10
464.74
 20
29.83
 10
463.95
 20
28.08
 10
462.84
 20
25.4
 10
461.4
 20
22.83
 10
459.73
 20
20.49
 10
457.95
 20
18.48
 10
455.25
 20
16.0
 10
452.55
 20
13.98
 10
449.85
 20
12.4
 10
448.5
 20
11.79
 10
447.15
 20
11.28
 10
445.4
 20
10.49
 10
443.76
 20
9.89
 10
442.19
 20
9.47
 10
440.7
 20
9.18
 10
437.87
 20
8.92
 10
435.15
 20
8.88
 10
130.35
 20
8.88
 10
127.2
 20
9.0
 10
124.09
 20
9.37
 10
121.03
 20
10.02
 10
118.05
 20
10.98
 10
115.19
 20
12.28
 10
113.8
 20
13.06
 10
112.46
 20
13.94
 10
111.16
 20
14.92
 10
109.91
 20
16.0
 10
108.7
 20
17.19
 10
107.55
 20
18.48
 10
105.41
 20
20.84
 10
103.52
 20
23.37
 10
101.88
 20
26.05
 10
100.5
 20
28.83
 10
99.41
 20
31.66
 10
98.61
 20
34.51
 10
98.12
 20
37.33
 10
97.95
 20
40.08
 10
97.95
 20
232.08
 10
98.12
 20
234.83
 10
98.61
 20
237.67
 10
99.41
 20
240.56
 10
100.5
 20
243.48
 10
101.88
 20
246.4
 10
103.52
 20
249.29
 10
105.41
 20
252.13
 10
107.55
 20
254.88
 10
112.95
 20
258.33
 10
115.65
 20
259.77
 10
118.35
 20
260.88
 10
119.75
 20
261.67
 10
121.24
 20
262.27
 10
122.78
 20
262.69
 10
124.35
 20
262.98
 10
127.46
 20
263.24
 10
130.35
 20
263.28
 10
435.15
 20
263.28
 10
437.9
 20
263.17
 97
0
 92
18
 72
0
 73
1
 93
65
 10
127.46
 20
247.44
 10
125.92
 20
247.11
 10
124.35
 20
246.63
 10
122.78
 20
245.98
 10
121.24
 20
245.15
 10
119.75
 20
244.12
 10
118.35
 20
242.88
 10
116.77
 20
240.18
 10
116.16
 20
238.83
 10
115.65
 20
237.48
 10
115.26
 20
236.13
 10
114.97
 20
234.78
 10
114.81
 20
233.43
 10
114.75
 20
232.08
 10
114.75
 20
40.08
 10
114.75
 20
34.08
 10
115.65
 20
32.99
 10
116.55
 20
31.68
 10
117.45
 20
30.37
 10
118.35
 20
29.28
 10
119.75
 20
28.04
 10
121.24
 20
27.01
 10
122.78
 20
26.18
 10
124.35
 20
25.53
 10
125.92
 20
25.05
 10
127.46
 20
24.72
 10
128.95
 20
24.54
 10
130.35
 20
24.48
 10
435.15
 20
24.48
 10
437.7
 20
24.63
 10
439.37
 20
24.99
 10
441.15
 20
25.68
 10
442.24
 20
26.58
 10
443.55
 20
27.48
 10
444.86
 20
28.38
 10
445.95
 20
29.28
 10
447.19
 20
30.63
 10
448.22
 20
31.98
 10
449.05
 20
33.33
 10
449.7
 20
34.68
 10
450.18
 20
36.03
 10
450.51
 20
37.38
 10
450.69
 20
38.73
 10
450.75
 20
40.08
 10
450.75
 20
232.08
 10
450.6
 20
234.63
 10
450.24
 20
236.3
 10
449.55
 20
238.08
 10
449.15
 20
238.58
 10
448.82
 20
239.17
 10
448.2
 20
240.48
 10
447.36
 20
241.79
 10
446.74
 20
242.38
 10
445.95
 20
242.88
 10
444.94
 20
244.12
 10
443.76
 20
245.15
 10
442.43
 20
245.98
 10
441.0
 20
246.63
 10
439.52
 20
247.11
 10
438.02
 20
247.44
 10
436.55
 20
247.62
 10
435.15
 20
247.68
 10
130.35
 20
247.68
 10
128.95
 20
247.62
 10
127.46
 20
247.44
 97
0
 75
1
 76
1
 98
0
  0
LWPOLYLINE
  5
31
330
17
100
AcDbEntity
  8
FILL_BLACK_000000
370
0
420
0
100
AcDbPolyline
 90
77
 70
1
 10
437.9
 20
263.17
 10
440.74
 20
262.81
 10
443.63
 20
262.2
 10
446.55
 20
261.33
 10
449.47
 20
260.17
 10
452.36
 20
258.72
 10
455.2
 20
256.96
 10
457.95
 20
254.88
 10
460.03
 20
252.13
 10
461.79
 20
249.29
 10
463.24
 20
246.4
 10
464.4
 20
243.48
 10
465.27
 20
240.56
 10
465.88
 20
237.67
 10
466.24
 20
234.83
 10
466.35
 20
232.08
 10
466.35
 20
40.08
 10
466.31
 20
37.36
 10
466.05
 20
34.53
 10
465.76
 20
33.04
 10
465.34
 20
31.47
 10
464.74
 20
29.83
 10
463.95
 20
28.08
 10
462.84
 20
25.4
 10
461.4
 20
22.83
 10
459.73
 20
20.49
 10
457.95
 20
18.48
 10
455.25
 20
16.0
 10
452.55
 20
13.98
 10
449.85
 20
12.4
 10
448.5
 20
11.79
 10
447.15
 20
11.28
 10
445.4
 20
10.49
 10
443.76
 20
9.89
 10
442.19
 20
9.47
 10
440.7
 20
9.18
 10
437.87
 20
8.92
 10
435.15
 20
8.88
 10
130.35
 20
8.88
 10
127.2
 20
9.0
 10
124.09
 20
9.37
 10
121.03
 20
10.02
 10
118.05
 20
10.98
 10
115.19
 20
12.28
 10
113.8
 20
13.06
 10
112.46
 20
13.94
 10
111.16
 20
14.92
 10
109.91
 20
16.0
 10
108.7
 20
17.19
 10
107.55
 20
18.48
 10
105.41
 20
20.84
 10
103.52
 20
23.37
 10
101.88
 20
26.05
 10
100.5
 20
28.83
 10
99.41
 20
31.66
 10
98.61
 20
34.51
 10
98.12
 20
37.33
 10
97.95
 20
40.08
 10
97.95
 20
232.08
 10
98.12
 20
234.83
 10
98.61
 20
237.67
 10
99.41
 20
240.56
 10
100.5
 20
243.48
 10
101.88
 20
246.4
 10
103.52
 20
249.29
 10
105.41
 20
252.13
 10
107.55
 20
254.88
 10
112.95
 20
258.33
 10
115.65
 20
259.77
 10
118.35
 20
260.88
 10
119.75
 20
261.67
 10
121.24
 20
262.27
 10
122.78
 20
262.69
 10
124.35
 20
262.98
 10
127.46
 20
263.24
 10
130.35
 20
263.28
 10
435.15
 20
263.28
  0
LWPOLYLINE
  5
32
330
17
100
AcDbEntity
  8
FILL_BLACK_000000
370
0
420
0
100
AcDbPolyline
 90
64
 70
1
 10
127.46
 20
247.44
 10
125.92
 20
247.11
 10
124.35
 20
246.63
 10
122.78
 20
245.98
 10
121.24
 20
245.15
 10
119.75
 20
244.12
 10
118.35
 20
242.88
 10
116.77
 20
240.18
 10
116.16
 20
238.83
 10
115.65
 20
237.48
 10
115.26
 20
236.13
 10
114.97
 20
234.78
 10
114.81
 20
233.43
 10
114.75
 20
232.08
 10
114.75
 20
40.08
 10
114.75
 20
34.08
 10
115.65
 20
32.99
 10
116.55
 20
31.68
 10
117.45
 20
30.37
 10
118.35
 20
29.28
 10
119.75
 20
28.04
 10
121.24
 20
27.01
 10
122.78
 20
26.18
 10
124.35
 20
25.53
 10
125.92
 20
25.05
 10
127.46
 20
24.72
 10
128.95
 20
24.54
 10
130.35
 20
24.48
 10
435.15
 20
24.48
 10
437.7
 20
24.63
 10
439.37
 20
24.99
 10
441.15
 20
25.68
 10
442.24
 20
26.58
 10
443.55
 20
27.48
 10
444.86
 20
28.38
 10
445.95
 20
29.28
 10
447.19
 20
30.63
 10
448.22
 20
31.98
 10
449.05
 20
33.33
 10
449.7
 20
34.68
 10
450.18
 20
36.03
 10
450.51
 20
37.38
 10
450.69
 20
38.73
 10
450.75
 20
40.08
 10
450.75
 20
232.08
 10
450.6
 20
234.63
 10
450.24
 20
236.3
 10
449.55
 20
238.08
 10
449.15
 20
238.58
 10
448.82
 20
239.17
 10
448.2
 20
240.48
 10
447.36
 20
241.79
 10
446.74
 20
242.38
 10
445.95
 20
242.88
 10
444.94
 20
244.12
 10
443.76
 20
245.15
 10
442.43
 20
245.98
 10
441.0
 20
246.63
 10
439.52
 20
247.11
 10
438.02
 20
247.44
 10
436.55
 20
247.62
 10
435.15
 20
247.68
 10
130.35
 20
247.68
 10
128.95
 20
247.62
  0
HATCH
  5
34
330
17
100
AcDbEntity
  8
FILL_WHITE_FFFFFF
 62
7
420
16777215
100
AcDbHatch
 10
0.0
 20
0.0
 30
0.0
210
0.0
220
0.0
230
1.0
  2
SOLID
 70
1
 71
0
 91
1
 92
3
 72
0
 73
1
 93
67
 10
435.15
 20
247.68
 10
436.55
 20
247.62
 10
438.02
 20
247.44
 10
439.52
 20
247.11
 10
441.0
 20
246.63
 10
442.43
 20
245.98
 10
443.76
 20
245.15
 10
444.94
 20
244.12
 10
445.95
 20
242.88
 10
447.19
 20
241.87
 10
448.22
 20
240.69
 10
449.05
 20
239.36
 10
449.7
 20
237.93
 10
450.18
 20
236.45
 10
450.51
 20
234.95
 10
450.69
 20
233.48
 10
450.75
 20
232.08
 10
450.75
 20
40.08
 10
450.6
 20
37.53
 10
450.24
 20
35.86
 10
449.55
 20
34.08
 10
449.15
 20
33.58
 10
448.82
 20
32.99
 10
448.2
 20
31.68
 10
447.36
 20
30.37
 10
446.74
 20
29.78
 10
445.95
 20
29.28
 10
444.86
 20
28.38
 10
443.55
 20
27.48
 10
442.24
 20
26.58
 10
441.15
 20
25.68
 10
439.37
 20
24.99
 10
437.7
 20
24.63
 10
435.15
 20
24.48
 10
130.35
 20
24.48
 10
128.95
 20
24.54
 10
127.46
 20
24.72
 10
125.92
 20
25.05
 10
124.35
 20
25.53
 10
122.78
 20
26.18
 10
121.24
 20
27.01
 10
119.75
 20
28.04
 10
118.35
 20
29.28
 10
116.77
 20
31.98
 10
116.16
 20
33.33
 10
115.65
 20
34.68
 10
115.26
 20
36.03
 10
114.97
 20
37.38
 10
114.81
 20
38.73
 10
114.75
 20
40.08
 10
114.75
 20
232.08
 10
114.81
 20
233.43
 10
114.97
 20
234.78
 10
115.26
 20
236.13
 10
115.65
 20
237.48
 10
116.16
 20
238.83
 10
116.77
 20
240.18
 10
118.35
 20
242.88
 10
119.75
 20
244.12
 10
121.24
 20
245.15
 10
122.78
 20
245.98
 10
124.35
 20
246.63
 10
125.92
 20
247.11
 10
127.46
 20
247.44
 10
128.95
 20
247.62
 10
130.35
 20
247.68
 10
435.15
 20
247.68
 97
0
 75
1
 76
1
 98
0
  0
LWPOLYLINE
  5
35
330
17
100
AcDbEntity
  8
FILL_WHITE_FFFFFF
370
0
420
16777215
100
AcDbPolyline
 90
66
 70
1
 10
435.15
 20
247.68
 10
436.55
 20
247.62
 10
438.02
 20
247.44
 10
439.52
 20
247.11
 10
441.0
 20
246.63
 10
442.43
 20
245.98
 10
443.76
 20
245.15
 10
444.94
 20
244.12
 10
445.95
 20
242.88
 10
447.19
 20
241.87
 10
448.22
 20
240.69
 10
449.05
 20
239.36
 10
449.7
 20
237.93
 10
450.18
 20
236.45
 10
450.51
 20
234.95
 10
450.69
 20
233.48
 10
450.75
 20
232.08
 10
450.75
 20
40.08
 10
450.6
 20
37.53
 10
450.24
 20
35.86
 10
449.55
 20
34.08
 10
449.15
 20
33.58
 10
448.82
 20
32.99
 10
448.2
 20
31.68
 10
447.36
 20
30.37
 10
446.74
 20
29.78
 10
445.95
 20
29.28
 10
444.86
 20
28.38
 10
443.55
 20
27.48
 10
442.24
 20
26.58
 10
441.15
 20
25.68
 10
439.37
 20
24.99
 10
437.7
 20
24.63
 10
435.15
 20
24.48
 10
130.35
 20
24.48
 10
128.95
 20
24.54
 10
127.46
 20
24.72
 10
125.92
 20
25.05
 10
124.35
 20
25.53
 10
122.78
 20
26.18
 10
121.24
 20
27.01
 10
119.75
 20
28.04
 10
118.35
 20
29.28
 10
116.77
 20
31.98
 10
116.16
 20
33.33
 10
115.65
 20
34.68
 10
115.26
 20
36.03
 10
114.97
 20
37.38
 10
114.81
 20
38.73
 10
114.75
 20
40.08
 10
114.75
 20
232.08
 10
114.81
 20
233.43
 10
114.97
 20
234.78
 10
115.26
 20
236.13
 10
115.65
 20
237.48
 10
116.16
 20
238.83
 10
116.77
 20
240.18
 10
118.35
 20
242.88
 10
119.75
 20
244.12
 10
121.24
 20
245.15
 10
122.78
 20
245.98
 10
124.35
 20
246.63
 10
125.92
 20
247.11
 10
127.46
 20
247.44
 10
128.95
 20
247.62
 10
130.35
 20
247.68
  0
HATCH
  5
37
330
17
100
AcDbEntity
  8
FILL_BLUE_0000FF
 62
7
420
255
100
AcDbHatch
 10
0.0
 20
0.0
 30
0.0
210
0.0
220
0.0
230
1.0
  2
SOLID
 70
1
 71
0
 91
3
 92
3
 72
0
 73
1
 93
173
 10
305.41
 20
92.01
 10
303.45
 20
90.63
 10
301.37
 20
89.54
 10
299.21
 20
88.74
 10
297.0
 20
88.25
 10
294.75
 20
88.08
 10
226.35
 20
88.08
 10
228.11
 20
90.78
 10
229.65
 20
93.48
 10
230.26
 20
94.83
 10
230.74
 20
96.18
 10
231.04
 20
97.53
 10
231.15
 20
98.88
 10
231.54
 20
100.68
 10
231.83
 20
102.48
 10
231.99
 20
104.28
 10
232.05
 20
106.08
 10
231.99
 20
107.88
 10
231.83
 20
109.68
 10
231.54
 20
111.48
 10
231.15
 20
113.28
 10
230.43
 20
115.04
 10
229.64
 20
116.71
 10
228.77
 20
118.3
 10
227.83
 20
119.8
 10
225.77
 20
122.56
 10
223.5
 20
124.98
 10
221.06
 20
127.06
 10
218.49
 20
128.8
 10
215.84
 20
130.21
 10
213.15
 20
131.28
 10
210.34
 20
132.01
 10
207.36
 20
132.39
 10
204.23
 20
132.4
 10
201.0
 20
132.03
 10
197.72
 20
131.27
 10
194.42
 20
130.1
 10
192.78
 20
129.36
 10
191.15
 20
128.51
 10
189.54
 20
127.55
 10
187.95
 20
126.48
 10
186.43
 20
125.53
 10
185.02
 20
124.47
 10
183.72
 20
123.32
 10
182.53
 20
122.09
 10
181.44
 20
120.79
 10
180.46
 20
119.43
 10
179.58
 20
118.03
 10
178.8
 20
116.58
 10
177.53
 20
113.61
 10
176.64
 20
110.62
 10
176.12
 20
107.68
 10
175.95
 20
104.88
 10
162.75
 20
104.88
 10
162.86
 20
107.18
 10
163.18
 20
109.57
 10
163.7
 20
112.01
 10
164.4
 20
114.48
 10
165.27
 20
116.95
 10
166.29
 20
119.39
 10
167.46
 20
121.78
 10
168.75
 20
124.08
 10
170.21
 20
126.27
 10
171.84
 20
128.34
 10
173.62
 20
130.26
 10
175.5
 20
132.03
 10
177.43
 20
133.63
 10
179.38
 20
135.05
 10
181.3
 20
136.27
 10
183.15
 20
137.28
 10
183.22
 20
138.6
 10
183.42
 20
139.86
 10
183.75
 20
141.06
 10
184.2
 20
142.19
 10
184.76
 20
143.25
 10
185.43
 20
144.24
 10
186.19
 20
145.15
 10
187.05
 20
145.98
 10
187.99
 20
146.72
 10
189.01
 20
147.38
 10
190.1
 20
147.95
 10
191.25
 20
148.42
 10
192.46
 20
148.79
 10
193.72
 20
149.06
 10
195.02
 20
149.22
 10
196.35
 20
149.28
 10
240.75
 20
149.28
 10
240.75
 20
145.68
 10
243.22
 20
147.87
 10
246.11
 20
149.92
 10
249.4
 20
151.8
 10
253.05
 20
153.48
 10
257.04
 20
154.94
 10
261.34
 20
156.14
 10
265.92
 20
157.07
 10
270.75
 20
157.68
 10
273.4
 20
158.02
 10
275.94
 20
158.19
 10
280.8
 20
158.13
 10
285.43
 20
157.85
 10
289.95
 20
157.68
 10
292.63
 20
156.97
 10
295.2
 20
156.48
 10
297.54
 20
155.99
 10
298.6
 20
155.68
 10
299.55
 20
155.28
 10
300.45
 20
155.26
 10
301.35
 20
155.13
 10
302.25
 20
154.77
 10
303.15
 20
154.08
 10
304.35
 20
154.08
 10
305.06
 20
153.39
 10
305.55
 20
153.03
 10
306.04
 20
152.9
 10
306.75
 20
152.88
 10
307.95
 20
152.88
 10
309.15
 20
152.88
 10
309.9
 20
153.03
 10
310.67
 20
153.39
 10
311.55
 20
154.08
 10
311.72
 20
154.98
 10
312.0
 20
155.88
 10
312.06
 20
156.78
 10
311.89
 20
157.23
 10
311.55
 20
157.68
 10
303.15
 20
192.48
 10
303.15
 20
193.68
 10
303.17
 20
194.37
 10
303.3
 20
194.73
 10
303.66
 20
194.86
 10
304.35
 20
194.88
 10
305.25
 20
194.67
 10
306.15
 20
194.13
 10
307.95
 20
192.48
 10
319.95
 20
169.68
 10
320.51
 20
168.38
 10
321.26
 20
167.19
 10
322.19
 20
166.07
 10
323.25
 20
165.03
 10
325.69
 20
163.1
 10
328.35
 20
161.28
 10
329.75
 20
160.44
 10
331.24
 20
159.7
 10
332.78
 20
159.09
 10
334.35
 20
158.58
 10
335.92
 20
158.19
 10
337.46
 20
157.9
 10
338.95
 20
157.74
 10
340.35
 20
157.68
 10
355.95
 20
157.68
 10
355.95
 20
142.08
 10
352.35
 20
142.08
 10
350.55
 20
142.02
 10
348.75
 20
141.85
 10
346.95
 20
141.57
 10
345.15
 20
141.18
 10
343.35
 20
140.67
 10
341.55
 20
140.05
 10
339.75
 20
139.32
 10
337.95
 20
138.48
 10
330.75
 20
134.88
 10
328.76
 20
133.08
 10
326.55
 20
131.28
 10
324.34
 20
129.48
 10
322.35
 20
127.68
 10
321.26
 20
124.98
 10
319.95
 20
122.28
 10
318.64
 20
119.58
 10
317.55
 20
116.88
 10
310.35
 20
97.68
 10
308.89
 20
95.54
 10
307.24
 20
93.65
 10
305.41
 20
92.01
 97
0
 92
18
 72
0
 73
1
 93
21
 10
220.35
 20
137.28
 10
220.35
 20
132.48
 10
222.1
 20
132.37
 10
223.74
 20
132.03
 10
225.31
 20
131.47
 10
226.8
 20
130.68
 10
228.24
 20
129.67
 10
229.63
 20
128.43
 10
231.0
 20
126.97
 10
232.35
 20
125.28
 10
233.59
 20
123.88
 10
234.62
 20
122.39
 10
235.45
 20
120.85
 10
236.1
 20
119.28
 10
236.58
 20
117.71
 10
236.91
 20
116.17
 10
237.09
 20
114.68
 10
237.15
 20
113.28
 10
240.75
 20
113.28
 10
240.75
 20
137.28
 10
220.35
 20
137.28
 97
0
 92
18
 72
0
 73
1
 93
22
 10
286.35
 20
133.68
 10
294.75
 20
133.68
 10
294.75
 20
128.88
 10
286.35
 20
128.88
 10
286.35
 20
125.28
 10
294.75
 20
125.28
 10
294.75
 20
120.48
 10
286.35
 20
120.48
 10
286.35
 20
116.88
 10
291.15
 20
116.88
 10
292.05
 20
116.86
 10
292.95
 20
116.73
 10
293.85
 20
116.37
 10
294.75
 20
115.68
 10
297.45
 20
114.48
 10
298.12
 20
113.99
 10
298.29
 20
113.68
 10
298.35
 20
113.28
 10
303.15
 20
113.28
 10
303.15
 20
137.28
 10
286.35
 20
137.28
 10
286.35
 20
133.68
 97
0
 75
1
 76
1
 98
0
  0
LWPOLYLINE
  5
38
330
17
100
AcDbEntity
  8
FILL_BLUE_0000FF
370
0
420
255
100
AcDbPolyline
 90
172
 70
1
 10
305.41
 20
92.01
 10
303.45
 20
90.63
 10
301.37
 20
89.54
 10
299.21
 20
88.74
 10
297.0
 20
88.25
 10
294.75
 20
88.08
 10
226.35
 20
88.08
 10
228.11
 20
90.78
 10
229.65
 20
93.48
 10
230.26
 20
94.83
 10
230.74
 20
96.18
 10
231.04
 20
97.53
 10
231.15
 20
98.88
 10
231.54
 20
100.68
 10
231.83
 20
102.48
 10
231.99
 20
104.28
 10
232.05
 20
106.08
 10
231.99
 20
107.88
 10
231.83
 20
109.68
 10
231.54
 20
111.48
 10
231.15
 20
113.28
 10
230.43
 20
115.04
 10
229.64
 20
116.71
 10
228.77
 20
118.3
 10
227.83
 20
119.8
 10
225.77
 20
122.56
 10
223.5
 20
124.98
 10
221.06
 20
127.06
 10
218.49
 20
128.8
 10
215.84
 20
130.21
 10
213.15
 20
131.28
 10
210.34
 20
132.01
 10
207.36
 20
132.39
 10
204.23
 20
132.4
 10
201.0
 20
132.03
 10
197.72
 20
131.27
 10
194.42
 20
130.1
 10
192.78
 20
129.36
 10
191.15
 20
128.51
 10
189.54
 20
127.55
 10
187.95
 20
126.48
 10
186.43
 20
125.53
 10
185.02
 20
124.47
 10
183.72
 20
123.32
 10
182.53
 20
122.09
 10
181.44
 20
120.79
 10
180.46
 20
119.43
 10
179.58
 20
118.03
 10
178.8
 20
116.58
 10
177.53
 20
113.61
 10
176.64
 20
110.62
 10
176.12
 20
107.68
 10
175.95
 20
104.88
 10
162.75
 20
104.88
 10
162.86
 20
107.18
 10
163.18
 20
109.57
 10
163.7
 20
112.01
 10
164.4
 20
114.48
 10
165.27
 20
116.95
 10
166.29
 20
119.39
 10
167.46
 20
121.78
 10
168.75
 20
124.08
 10
170.21
 20
126.27
 10
171.84
 20
128.34
 10
173.62
 20
130.26
 10
175.5
 20
132.03
 10
177.43
 20
133.63
 10
179.38
 20
135.05
 10
181.3
 20
136.27
 10
183.15
 20
137.28
 10
183.22
 20
138.6
 10
183.42
 20
139.86
 10
183.75
 20
141.06
 10
184.2
 20
142.19
 10
184.76
 20
143.25
 10
185.43
 20
144.24
 10
186.19
 20
145.15
 10
187.05
 20
145.98
 10
187.99
 20
146.72
 10
189.01
 20
147.38
 10
190.1
 20
147.95
 10
191.25
 20
148.42
 10
192.46
 20
148.79
 10
193.72
 20
149.06
 10
195.02
 20
149.22
 10
196.35
 20
149.28
 10
240.75
 20
149.28
 10
240.75
 20
145.68
 10
243.22
 20
147.87
 10
246.11
 20
149.92
 10
249.4
 20
151.8
 10
253.05
 20
153.48
 10
257.04
 20
154.94
 10
261.34
 20
156.14
 10
265.92
 20
157.07
 10
270.75
 20
157.68
 10
273.4
 20
158.02
 10
275.94
 20
158.19
 10
280.8
 20
158.13
 10
285.43
 20
157.85
 10
289.95
 20
157.68
 10
292.63
 20
156.97
 10
295.2
 20
156.48
 10
297.54
 20
155.99
 10
298.6
 20
155.68
 10
299.55
 20
155.28
 10
300.45
 20
155.26
 10
301.35
 20
155.13
 10
302.25
 20
154.77
 10
303.15
 20
154.08
 10
304.35
 20
154.08
 10
305.06
 20
153.39
 10
305.55
 20
153.03
 10
306.04
 20
152.9
 10
306.75
 20
152.88
 10
307.95
 20
152.88
 10
309.15
 20
152.88
 10
309.9
 20
153.03
 10
310.67
 20
153.39
 10
311.55
 20
154.08
 10
311.72
 20
154.98
 10
312.0
 20
155.88
 10
312.06
 20
156.78
 10
311.89
 20
157.23
 10
311.55
 20
157.68
 10
303.15
 20
192.48
 10
303.15
 20
193.68
 10
303.17
 20
194.37
 10
303.3
 20
194.73
 10
303.66
 20
194.86
 10
304.35
 20
194.88
 10
305.25
 20
194.67
 10
306.15
 20
194.13
 10
307.95
 20
192.48
 10
319.95
 20
169.68
 10
320.51
 20
168.38
 10
321.26
 20
167.19
 10
322.19
 20
166.07
 10
323.25
 20
165.03
 10
325.69
 20
163.1
 10
328.35
 20
161.28
 10
329.75
 20
160.44
 10
331.24
 20
159.7
 10
332.78
 20
159.09
 10
334.35
 20
158.58
 10
335.92
 20
158.19
 10
337.46
 20
157.9
 10
338.95
 20
157.74
 10
340.35
 20
157.68
 10
355.95
 20
157.68
 10
355.95
 20
142.08
 10
352.35
 20
142.08
 10
350.55
 20
142.02
 10
348.75
 20
141.85
 10
346.95
 20
141.57
 10
345.15
 20
141.18
 10
343.35
 20
140.67
 10
341.55
 20
140.05
 10
339.75
 20
139.32
 10
337.95
 20
138.48
 10
330.75
 20
134.88
 10
328.76
 20
133.08
 10
326.55
 20
131.28
 10
324.34
 20
129.48
 10
322.35
 20
127.68
 10
321.26
 20
124.98
 10
319.95
 20
122.28
 10
318.64
 20
119.58
 10
317.55
 20
116.88
 10
310.35
 20
97.68
 10
308.89
 20
95.54
 10
307.24
 20
93.65
  0
LWPOLYLINE
  5
39
330
17
100
AcDbEntity
  8
FILL_BLUE_0000FF
370
0
420
255
100
AcDbPolyline
 90
20
 70
1
 10
220.35
 20
137.28
 10
220.35
 20
132.48
 10
222.1
 20
132.37
 10
223.74
 20
132.03
 10
225.31
 20
131.47
 10
226.8
 20
130.68
 10
228.24
 20
129.67
 10
229.63
 20
128.43
 10
231.0
 20
126.97
 10
232.35
 20
125.28
 10
233.59
 20
123.88
 10
234.62
 20
122.39
 10
235.45
 20
120.85
 10
236.1
 20
119.28
 10
236.58
 20
117.71
 10
236.91
 20
116.17
 10
237.09
 20
114.68
 10
237.15
 20
113.28
 10
240.75
 20
113.28
 10
240.75
 20
137.28
  0
LWPOLYLINE
  5
3A
330
17
100
AcDbEntity
  8
FILL_BLUE_0000FF
370
0
420
255
100
AcDbPolyline
 90
21
 70
1
 10
286.35
 20
133.68
 10
294.75
 20
133.68
 10
294.75
 20
128.88
 10
286.35
 20
128.88
 10
286.35
 20
125.28
 10
294.75
 20
125.28
 10
294.75
 20
120.48
 10
286.35
 20
120.48
 10
286.35
 20
116.88
 10
291.15
 20
116.88
 10
292.05
 20
116.86
 10
292.95
 20
116.73
 10
293.85
 20
116.37
 10
294.75
 20
115.68
 10
297.45
 20
114.48
 10
298.12
 20
113.99
 10
298.29
 20
113.68
 10
298.35
 20
113.28
 10
303.15
 20
113.28
 10
303.15
 20
137.28
 10
286.35
 20
137.28
  0
HATCH
  5
3B
330
17
100
AcDbEntity
  8
FILL_BLACK_000000
 62
7
420
0
100
AcDbHatch
 10
0.0
 20
0.0
 30
0.0
210
0.0
220
0.0
230
1.0
  2
SOLID
 70
1
 71
0
 91
1
 92
3
 72
0
 73
1
 93
7
 10
310.35
 20
166.08
 10
310.35
 20
163.68
 10
249.15
 20
163.68
 10
235.95
 20
149.28
 10
232.35
 20
149.28
 10
247.95
 20
166.08
 10
310.35
 20
166.08
 97
0
 75
1
 76
1
 98
0
  0
LWPOLYLINE
  5
3C
330
17
100
AcDbEntity
  8
FILL_BLACK_000000
370
0
420
0
100
AcDbPolyline
 90
6
 70
1
 10
310.35
 20
166.08
 10
310.35
 20
163.68
 10
249.15
 20
163.68
 10
235.95
 20
149.28
 10
232.35
 20
149.28
 10
247.95
 20
166.08
  0
HATCH
  5
3D
330
17
100
AcDbEntity
  8
FILL_BLACK_000000
 62
7
420
0
100
AcDbHatch
 10
0.0
 20
0.0
 30
0.0
210
0.0
220
0.0
230
1.0
  2
SOLID
 70
1
 71
0
 91
1
 92
3
 72
0
 73
1
 93
12
 10
339.15
 20
157.68
 10
336.75
 20
157.68
 10
336.7
 20
158.08
 10
336.56
 20
158.37
 10
336.15
 20
158.73
 10
335.55
 20
158.88
 10
333.15
 20
163.68
 10
324.75
 20
163.68
 10
323.55
 20
164.88
 10
322.35
 20
166.08
 10
336.75
 20
166.08
 10
339.15
 20
157.68
 97
0
 75
1
 76
1
 98
0
  0
LWPOLYLINE
  5
3E
330
17
100
AcDbEntity
  8
FILL_BLACK_000000
370
0
420
0
100
AcDbPolyline
 90
11
 70
1
 10
339.15
 20
157.68
 10
336.75
 20
157.68
 10
336.7
 20
158.08
 10
336.56
 20
158.37
 10
336.15
 20
158.73
 10
335.55
 20
158.88
 10
333.15
 20
163.68
 10
324.75
 20
163.68
 10
323.55
 20
164.88
 10
322.35
 20
166.08
 10
336.75
 20
166.08
  0
HATCH
  5
3F
330
17
100
AcDbEntity
  8
FILL_BLACK_000000
 62
7
420
0
100
AcDbHatch
 10
0.0
 20
0.0
 30
0.0
210
0.0
220
0.0
230
1.0
  2
SOLID
 70
1
 71
0
 91
3
 92
3
 72
0
 73
1
 93
193
 10
342.75
 20
140.73
 10
343.24
 20
140.86
 10
343.95
 20
140.88
 10
346.35
 20
140.88
 10
347.55
 20
137.28
 10
350.25
 20
137.62
 10
352.95
 20
137.71
 10
355.65
 20
137.55
 10
358.35
 20
137.13
 10
361.05
 20
136.42
 10
363.75
 20
135.42
 10
366.45
 20
134.11
 10
369.15
 20
132.48
 10
371.69
 20
131.02
 10
373.93
 20
129.35
 10
375.92
 20
127.48
 10
377.7
 20
125.43
 10
379.31
 20
123.21
 10
380.79
 20
120.84
 10
383.55
 20
115.68
 10
384.32
 20
112.97
 10
384.85
 20
110.24
 10
385.14
 20
107.51
 10
385.2
 20
104.79
 10
385.03
 20
102.08
 10
384.65
 20
99.42
 10
384.05
 20
96.79
 10
383.25
 20
94.23
 10
382.25
 20
91.74
 10
381.07
 20
89.32
 10
379.7
 20
87.01
 10
378.15
 20
84.8
 10
376.44
 20
82.71
 10
374.56
 20
80.75
 10
372.53
 20
78.94
 10
370.35
 20
77.28
 10
378.75
 20
53.28
 10
139.95
 20
53.28
 10
174.75
 20
89.28
 10
173.87
 20
91.08
 10
173.1
 20
92.88
 10
172.56
 20
94.68
 10
172.35
 20
96.48
 10
171.95
 20
97.43
 10
171.66
 20
98.47
 10
171.3
 20
100.68
 10
171.17
 20
102.89
 10
171.15
 20
104.88
 10
175.95
 20
104.88
 10
176.12
 20
107.68
 10
176.64
 20
110.62
 10
177.53
 20
113.61
 10
178.8
 20
116.58
 10
179.58
 20
118.03
 10
180.46
 20
119.43
 10
181.44
 20
120.79
 10
182.53
 20
122.09
 10
183.72
 20
123.32
 10
185.02
 20
124.47
 10
186.43
 20
125.53
 10
187.95
 20
126.48
 10
189.54
 20
127.55
 10
191.15
 20
128.51
 10
192.78
 20
129.36
 10
194.42
 20
130.1
 10
197.72
 20
131.27
 10
201.0
 20
132.03
 10
204.23
 20
132.4
 10
207.36
 20
132.39
 10
210.34
 20
132.01
 10
213.15
 20
131.28
 10
215.84
 20
130.21
 10
218.49
 20
128.8
 10
221.06
 20
127.06
 10
223.5
 20
124.98
 10
225.77
 20
122.56
 10
227.83
 20
119.8
 10
228.77
 20
118.3
 10
229.64
 20
116.71
 10
230.43
 20
115.04
 10
231.15
 20
113.28
 10
231.54
 20
111.48
 10
231.83
 20
109.68
 10
231.99
 20
107.88
 10
232.05
 20
106.08
 10
231.99
 20
104.28
 10
231.83
 20
102.48
 10
231.54
 20
100.68
 10
231.15
 20
98.88
 10
231.04
 20
97.53
 10
230.74
 20
96.18
 10
230.26
 20
94.83
 10
229.65
 20
93.48
 10
228.11
 20
90.78
 10
226.35
 20
88.08
 10
232.35
 20
88.08
 10
230.33
 20
85.21
 10
227.85
 20
82.23
 10
226.44
 20
80.8
 10
224.93
 20
79.47
 10
223.29
 20
78.29
 10
221.55
 20
77.28
 10
219.75
 20
75.99
 10
217.91
 20
74.82
 10
216.02
 20
73.8
 10
214.05
 20
72.93
 10
211.96
 20
72.23
 10
209.74
 20
71.71
 10
207.34
 20
71.39
 10
204.75
 20
71.28
 10
202.5
 20
71.34
 10
200.27
 20
71.52
 10
198.06
 20
71.85
 10
195.9
 20
72.33
 10
193.79
 20
72.98
 10
191.76
 20
73.81
 10
189.8
 20
74.84
 10
187.95
 20
76.08
 10
186.21
 20
77.04
 10
184.57
 20
78.1
 10
183.06
 20
79.29
 10
181.65
 20
80.58
 10
180.36
 20
81.99
 10
179.17
 20
83.5
 10
178.11
 20
85.14
 10
177.15
 20
86.88
 10
149.55
 20
56.88
 10
372.75
 20
56.88
 10
366.75
 20
74.88
 10
364.95
 20
74.04
 10
363.15
 20
73.3
 10
361.35
 20
72.69
 10
359.55
 20
72.18
 10
357.75
 20
71.79
 10
355.95
 20
71.5
 10
354.15
 20
71.34
 10
352.35
 20
71.28
 10
350.1
 20
71.39
 10
347.87
 20
71.69
 10
345.66
 20
72.17
 10
343.5
 20
72.78
 10
341.39
 20
73.51
 10
339.36
 20
74.32
 10
335.55
 20
76.08
 10
333.8
 20
77.09
 10
332.16
 20
78.29
 10
330.59
 20
79.67
 10
329.1
 20
81.18
 10
326.27
 20
84.52
 10
323.55
 20
88.08
 10
322.71
 20
89.88
 10
321.97
 20
91.68
 10
321.36
 20
93.48
 10
320.85
 20
95.28
 10
320.46
 20
97.08
 10
320.17
 20
98.88
 10
320.01
 20
100.68
 10
319.95
 20
102.48
 10
311.55
 20
102.48
 10
312.75
 20
104.88
 10
318.75
 20
104.88
 10
318.81
 20
106.68
 10
318.99
 20
108.48
 10
319.32
 20
110.28
 10
319.8
 20
112.08
 10
320.45
 20
113.88
 10
321.28
 20
115.68
 10
322.31
 20
117.48
 10
323.55
 20
119.28
 10
325.39
 20
122.84
 10
326.38
 20
124.55
 10
327.45
 20
126.18
 10
328.64
 20
127.69
 10
329.96
 20
129.07
 10
331.46
 20
130.27
 10
333.15
 20
131.28
 10
330.75
 20
134.88
 10
331.65
 20
135.59
 10
332.55
 20
136.08
 10
333.45
 20
136.57
 10
334.35
 20
137.28
 10
335.25
 20
137.47
 10
336.15
 20
137.88
 10
337.05
 20
138.29
 10
337.95
 20
138.48
 10
340.35
 20
134.88
 10
341.25
 20
135.57
 10
342.15
 20
135.93
 10
343.05
 20
136.06
 10
343.95
 20
136.08
 10
341.55
 20
139.68
 10
342.26
 20
140.37
 10
342.75
 20
140.73
 97
0
 92
18
 72
0
 73
1
 93
100
 10
196.55
 20
123.82
 10
194.25
 20
122.73
 10
192.07
 20
121.35
 10
190.05
 20
119.71
 10
188.26
 20
117.82
 10
186.75
 20
115.68
 10
185.57
 20
112.98
 10
184.71
 20
110.32
 10
184.16
 20
107.71
 10
183.9
 20
105.18
 10
183.93
 20
102.77
 10
184.22
 20
100.49
 10
184.76
 20
98.39
 10
185.55
 20
96.48
 10
186.56
 20
94.29
 10
187.82
 20
92.24
 10
189.33
 20
90.36
 10
191.1
 20
88.68
 10
193.16
 20
87.22
 10
195.51
 20
86.02
 10
198.17
 20
85.09
 10
201.15
 20
84.48
 10
203.79
 20
84.2
 10
206.32
 20
84.24
 10
208.74
 20
84.59
 10
211.05
 20
85.23
 10
213.24
 20
86.16
 10
215.32
 20
87.35
 10
217.29
 20
88.79
 10
219.15
 20
90.48
 10
220.49
 20
91.99
 10
221.76
 20
93.8
 10
222.88
 20
95.86
 10
223.8
 20
98.13
 10
224.44
 20
100.57
 10
224.72
 20
103.14
 10
224.71
 20
104.45
 10
224.58
 20
105.79
 10
224.33
 20
107.13
 10
223.95
 20
108.48
 10
223.84
 20
109.83
 10
223.54
 20
111.16
 10
223.06
 20
112.47
 10
222.45
 20
113.73
 10
221.72
 20
114.94
 10
220.91
 20
116.07
 10
219.15
 20
118.08
 10
215.55
 20
121.53
 10
213.75
 20
122.97
 10
211.95
 20
124.08
 10
210.75
 20
115.68
 10
212.53
 20
113.84
 10
214.2
 20
111.78
 10
214.96
 20
110.59
 10
215.64
 20
109.27
 10
216.25
 20
107.77
 10
216.75
 20
106.08
 10
216.69
 20
104.34
 10
216.53
 20
102.7
 10
216.24
 20
101.19
 10
215.85
 20
99.78
 10
215.34
 20
98.49
 10
214.72
 20
97.3
 10
213.99
 20
96.24
 10
213.15
 20
95.28
 10
212.14
 20
94.44
 10
210.96
 20
93.72
 10
209.63
 20
93.15
 10
208.2
 20
92.73
 10
206.72
 20
92.48
 10
205.22
 20
92.41
 10
203.75
 20
92.54
 10
202.35
 20
92.88
 10
200.66
 20
93.04
 10
199.16
 20
93.48
 10
197.84
 20
94.15
 10
196.65
 20
94.98
 10
194.59
 20
96.93
 10
192.75
 20
98.88
 10
192.36
 20
100.23
 10
192.08
 20
101.58
 10
191.91
 20
102.93
 10
191.85
 20
104.28
 10
191.91
 20
105.63
 10
192.08
 20
106.98
 10
192.36
 20
108.33
 10
192.75
 20
109.68
 10
193.67
 20
111.27
 10
194.7
 20
112.53
 10
195.96
 20
113.56
 10
197.55
 20
114.48
 10
198.47
 20
115.36
 10
199.5
 20
116.13
 10
200.76
 20
116.67
 10
201.5
 20
116.83
 10
202.35
 20
116.88
 10
203.55
 20
125.28
 10
201.25
 20
125.11
 10
198.9
 20
124.62
 10
196.55
 20
123.82
 97
0
 92
18
 72
0
 73
1
 93
100
 10
335.83
 20
117.16
 10
334.45
 20
115.1
 10
333.3
 20
112.83
 10
332.44
 20
110.39
 10
331.89
 20
107.82
 10
331.72
 20
105.17
 10
331.78
 20
103.83
 10
331.95
 20
102.48
 10
332.56
 20
99.5
 10
333.47
 20
96.84
 10
334.63
 20
94.49
 10
336.0
 20
92.43
 10
337.54
 20
90.66
 10
339.21
 20
89.15
 10
340.96
 20
87.89
 10
342.75
 20
86.88
 10
344.66
 20
85.7
 10
346.76
 20
84.85
 10
349.04
 20
84.35
 10
351.45
 20
84.18
 10
353.98
 20
84.35
 10
356.59
 20
84.85
 10
359.25
 20
85.7
 10
361.95
 20
86.88
 10
364.43
 20
88.34
 10
366.51
 20
89.99
 10
368.21
 20
91.82
 10
369.6
 20
93.78
 10
370.7
 20
95.86
 10
371.57
 20
98.02
 10
372.24
 20
100.23
 10
372.75
 20
102.48
 10
372.69
 20
104.78
 10
372.47
 20
107.15
 10
372.05
 20
109.55
 10
371.4
 20
111.93
 10
370.46
 20
114.26
 10
369.21
 20
116.49
 10
368.44
 20
117.55
 10
367.58
 20
118.57
 10
366.62
 20
119.55
 10
365.55
 20
120.48
 10
362.87
 20
122.07
 10
360.3
 20
123.33
 10
355.95
 20
125.28
 10
353.27
 20
125.26
 10
350.7
 20
125.13
 10
348.36
 20
124.77
 10
347.3
 20
124.48
 10
346.35
 20
124.08
 10
349.95
 20
116.88
 10
352.65
 20
116.82
 10
354.0
 20
116.69
 10
355.35
 20
116.43
 10
356.7
 20
116.0
 10
358.05
 20
115.36
 10
359.4
 20
114.47
 10
360.75
 20
113.28
 10
361.94
 20
112.27
 10
362.83
 20
111.09
 10
363.47
 20
109.76
 10
363.9
 20
108.33
 10
364.16
 20
106.85
 10
364.29
 20
105.35
 10
364.35
 20
102.48
 10
364.24
 20
101.13
 10
363.92
 20
99.82
 10
363.4
 20
98.56
 10
362.7
 20
97.38
 10
361.83
 20
96.32
 10
360.81
 20
95.39
 10
359.64
 20
94.64
 10
358.35
 20
94.08
 10
356.95
 20
93.29
 10
355.48
 20
92.71
 10
353.98
 20
92.33
 10
352.5
 20
92.13
 10
351.07
 20
92.1
 10
349.74
 20
92.22
 10
348.56
 20
92.49
 10
347.55
 20
92.88
 10
345.08
 20
94.72
 10
344.01
 20
95.71
 10
343.05
 20
96.78
 10
342.21
 20
97.97
 10
341.47
 20
99.29
 10
340.86
 20
100.79
 10
340.35
 20
102.48
 10
340.01
 20
102.98
 10
339.84
 20
103.59
 10
339.9
 20
105.03
 10
340.18
 20
106.7
 10
340.35
 20
108.48
 10
340.56
 20
109.57
 10
341.1
 20
110.88
 10
341.87
 20
112.19
 10
342.75
 20
113.28
 10
339.15
 20
120.48
 10
337.41
 20
118.97
 10
335.83
 20
117.16
 97
0
 75
1
 76
1
 98
0
  0
LWPOLYLINE
  5
40
330
17
100
AcDbEntity
  8
FILL_BLACK_000000
370
0
420
0
100
AcDbPolyline
 90
192
 70
1
 10
342.75
 20
140.73
 10
343.24
 20
140.86
 10
343.95
 20
140.88
 10
346.35
 20
140.88
 10
347.55
 20
137.28
 10
350.25
 20
137.62
 10
352.95
 20
137.71
 10
355.65
 20
137.55
 10
358.35
 20
137.13
 10
361.05
 20
136.42
 10
363.75
 20
135.42
 10
366.45
 20
134.11
 10
369.15
 20
132.48
 10
371.69
 20
131.02
 10
373.93
 20
129.35
 10
375.92
 20
127.48
 10
377.7
 20
125.43
 10
379.31
 20
123.21
 10
380.79
 20
120.84
 10
383.55
 20
115.68
 10
384.32
 20
112.97
 10
384.85
 20
110.24
 10
385.14
 20
107.51
 10
385.2
 20
104.79
 10
385.03
 20
102.08
 10
384.65
 20
99.42
 10
384.05
 20
96.79
 10
383.25
 20
94.23
 10
382.25
 20
91.74
 10
381.07
 20
89.32
 10
379.7
 20
87.01
 10
378.15
 20
84.8
 10
376.44
 20
82.71
 10
374.56
 20
80.75
 10
372.53
 20
78.94
 10
370.35
 20
77.28
 10
378.75
 20
53.28
 10
139.95
 20
53.28
 10
174.75
 20
89.28
 10
173.87
 20
91.08
 10
173.1
 20
92.88
 10
172.56
 20
94.68
 10
172.35
 20
96.48
 10
171.95
 20
97.43
 10
171.66
 20
98.47
 10
171.3
 20
100.68
 10
171.17
 20
102.89
 10
171.15
 20
104.88
 10
175.95
 20
104.88
 10
176.12
 20
107.68
 10
176.64
 20
110.62
 10
177.53
 20
113.61
 10
178.8
 20
116.58
 10
179.58
 20
118.03
 10
180.46
 20
119.43
 10
181.44
 20
120.79
 10
182.53
 20
122.09
 10
183.72
 20
123.32
 10
185.02
 20
124.47
 10
186.43
 20
125.53
 10
187.95
 20
126.48
 10
189.54
 20
127.55
 10
191.15
 20
128.51
 10
192.78
 20
129.36
 10
194.42
 20
130.1
 10
197.72
 20
131.27
 10
201.0
 20
132.03
 10
204.23
 20
132.4
 10
207.36
 20
132.39
 10
210.34
 20
132.01
 10
213.15
 20
131.28
 10
215.84
 20
130.21
 10
218.49
 20
128.8
 10
221.06
 20
127.06
 10
223.5
 20
124.98
 10
225.77
 20
122.56
 10
227.83
 20
119.8
 10
228.77
 20
118.3
 10
229.64
 20
116.71
 10
230.43
 20
115.04
 10
231.15
 20
113.28
 10
231.54
 20
111.48
 10
231.83
 20
109.68
 10
231.99
 20
107.88
 10
232.05
 20
106.08
 10
231.99
 20
104.28
 10
231.83
 20
102.48
 10
231.54
 20
100.68
 10
231.15
 20
98.88
 10
231.04
 20
97.53
 10
230.74
 20
96.18
 10
230.26
 20
94.83
 10
229.65
 20
93.48
 10
228.11
 20
90.78
 10
226.35
 20
88.08
 10
232.35
 20
88.08
 10
230.33
 20
85.21
 10
227.85
 20
82.23
 10
226.44
 20
80.8
 10
224.93
 20
79.47
 10
223.29
 20
78.29
 10
221.55
 20
77.28
 10
219.75
 20
75.99
 10
217.91
 20
74.82
 10
216.02
 20
73.8
 10
214.05
 20
72.93
 10
211.96
 20
72.23
 10
209.74
 20
71.71
 10
207.34
 20
71.39
 10
204.75
 20
71.28
 10
202.5
 20
71.34
 10
200.27
 20
71.52
 10
198.06
 20
71.85
 10
195.9
 20
72.33
 10
193.79
 20
72.98
 10
191.76
 20
73.81
 10
189.8
 20
74.84
 10
187.95
 20
76.08
 10
186.21
 20
77.04
 10
184.57
 20
78.1
 10
183.06
 20
79.29
 10
181.65
 20
80.58
 10
180.36
 20
81.99
 10
179.17
 20
83.5
 10
178.11
 20
85.14
 10
177.15
 20
86.88
 10
149.55
 20
56.88
 10
372.75
 20
56.88
 10
366.75
 20
74.88
 10
364.95
 20
74.04
 10
363.15
 20
73.3
 10
361.35
 20
72.69
 10
359.55
 20
72.18
 10
357.75
 20
71.79
 10
355.95
 20
71.5
 10
354.15
 20
71.34
 10
352.35
 20
71.28
 10
350.1
 20
71.39
 10
347.87
 20
71.69
 10
345.66
 20
72.17
 10
343.5
 20
72.78
 10
341.39
 20
73.51
 10
339.36
 20
74.32
 10
335.55
 20
76.08
 10
333.8
 20
77.09
 10
332.16
 20
78.29
 10
330.59
 20
79.67
 10
329.1
 20
81.18
 10
326.27
 20
84.52
 10
323.55
 20
88.08
 10
322.71
 20
89.88
 10
321.97
 20
91.68
 10
321.36
 20
93.48
 10
320.85
 20
95.28
 10
320.46
 20
97.08
 10
320.17
 20
98.88
 10
320.01
 20
100.68
 10
319.95
 20
102.48
 10
311.55
 20
102.48
 10
312.75
 20
104.88
 10
318.75
 20
104.88
 10
318.81
 20
106.68
 10
318.99
 20
108.48
 10
319.32
 20
110.28
 10
319.8
 20
112.08
 10
320.45
 20
113.88
 10
321.28
 20
115.68
 10
322.31
 20
117.48
 10
323.55
 20
119.28
 10
325.39
 20
122.84
 10
326.38
 20
124.55
 10
327.45
 20
126.18
 10
328.64
 20
127.69
 10
329.96
 20
129.07
 10
331.46
 20
130.27
 10
333.15
 20
131.28
 10
330.75
 20
134.88
 10
331.65
 20
135.59
 10
332.55
 20
136.08
 10
333.45
 20
136.57
 10
334.35
 20
137.28
 10
335.25
 20
137.47
 10
336.15
 20
137.88
 10
337.05
 20
138.29
 10
337.95
 20
138.48
 10
340.35
 20
134.88
 10
341.25
 20
135.57
 10
342.15
 20
135.93
 10
343.05
 20
136.06
 10
343.95
 20
136.08
 10
341.55
 20
139.68
 10
342.26
 20
140.37
  0
LWPOLYLINE
  5
41
330
17
100
AcDbEntity
  8
FILL_BLACK_000000
370
0
420
0
100
AcDbPolyline
 90
99
 70
1
 10
196.55
 20
123.82
 10
194.25
 20
122.73
 10
192.07
 20
121.35
 10
190.05
 20
119.71
 10
188.26
 20
117.82
 10
186.75
 20
115.68
 10
185.57
 20
112.98
 10
184.71
 20
110.32
 10
184.16
 20
107.71
 10
183.9
 20
105.18
 10
183.93
 20
102.77
 10
184.22
 20
100.49
 10
184.76
 20
98.39
 10
185.55
 20
96.48
 10
186.56
 20
94.29
 10
187.82
 20
92.24
 10
189.33
 20
90.36
 10
191.1
 20
88.68
 10
193.16
 20
87.22
 10
195.51
 20
86.02
 10
198.17
 20
85.09
 10
201.15
 20
84.48
 10
203.79
 20
84.2
 10
206.32
 20
84.24
 10
208.74
 20
84.59
 10
211.05
 20
85.23
 10
213.24
 20
86.16
 10
215.32
 20
87.35
 10
217.29
 20
88.79
 10
219.15
 20
90.48
 10
220.49
 20
91.99
 10
221.76
 20
93.8
 10
222.88
 20
95.86
 10
223.8
 20
98.13
 10
224.44
 20
100.57
 10
224.72
 20
103.14
 10
224.71
 20
104.45
 10
224.58
 20
105.79
 10
224.33
 20
107.13
 10
223.95
 20
108.48
 10
223.84
 20
109.83
 10
223.54
 20
111.16
 10
223.06
 20
112.47
 10
222.45
 20
113.73
 10
221.72
 20
114.94
 10
220.91
 20
116.07
 10
219.15
 20
118.08
 10
215.55
 20
121.53
 10
213.75
 20
122.97
 10
211.95
 20
124.08
 10
210.75
 20
115.68
 10
212.53
 20
113.84
 10
214.2
 20
111.78
 10
214.96
 20
110.59
 10
215.64
 20
109.27
 10
216.25
 20
107.77
 10
216.75
 20
106.08
 10
216.69
 20
104.34
 10
216.53
 20
102.7
 10
216.24
 20
101.19
 10
215.85
 20
99.78
 10
215.34
 20
98.49
 10
214.72
 20
97.3
 10
213.99
 20
96.24
 10
213.15
 20
95.28
 10
212.14
 20
94.44
 10
210.96
 20
93.72
 10
209.63
 20
93.15
 10
208.2
 20
92.73
 10
206.72
 20
92.48
 10
205.22
 20
92.41
 10
203.75
 20
92.54
 10
202.35
 20
92.88
 10
200.66
 20
93.04
 10
199.16
 20
93.48
 10
197.84
 20
94.15
 10
196.65
 20
94.98
 10
194.59
 20
96.93
 10
192.75
 20
98.88
 10
192.36
 20
100.23
 10
192.08
 20
101.58
 10
191.91
 20
102.93
 10
191.85
 20
104.28
 10
191.91
 20
105.63
 10
192.08
 20
106.98
 10
192.36
 20
108.33
 10
192.75
 20
109.68
 10
193.67
 20
111.27
 10
194.7
 20
112.53
 10
195.96
 20
113.56
 10
197.55
 20
114.48
 10
198.47
 20
115.36
 10
199.5
 20
116.13
 10
200.76
 20
116.67
 10
201.5
 20
116.83
 10
202.35
 20
116.88
 10
203.55
 20
125.28
 10
201.25
 20
125.11
 10
198.9
 20
124.62
  0
LWPOLYLINE
  5
42
330
17
100
AcDbEntity
  8
FILL_BLACK_000000
370
0
420
0
100
AcDbPolyline
 90
99
 70
1
 10
335.83
 20
117.16
 10
334.45
 20
115.1
 10
333.3
 20
112.83
 10
332.44
 20
110.39
 10
331.89
 20
107.82
 10
331.72
 20
105.17
 10
331.78
 20
103.83
 10
331.95
 20
102.48
 10
332.56
 20
99.5
 10
333.47
 20
96.84
 10
334.63
 20
94.49
 10
336.0
 20
92.43
 10
337.54
 20
90.66
 10
339.21
 20
89.15
 10
340.96
 20
87.89
 10
342.75
 20
86.88
 10
344.66
 20
85.7
 10
346.76
 20
84.85
 10
349.04
 20
84.35
 10
351.45
 20
84.18
 10
353.98
 20
84.35
 10
356.59
 20
84.85
 10
359.25
 20
85.7
 10
361.95
 20
86.88
 10
364.43
 20
88.34
 10
366.51
 20
89.99
 10
368.21
 20
91.82
 10
369.6
 20
93.78
 10
370.7
 20
95.86
 10
371.57
 20
98.02
 10
372.24
 20
100.23
 10
372.75
 20
102.48
 10
372.69
 20
104.78
 10
372.47
 20
107.15
 10
372.05
 20
109.55
 10
371.4
 20
111.93
 10
370.46
 20
114.26
 10
369.21
 20
116.49
 10
368.44
 20
117.55
 10
367.58
 20
118.57
 10
366.62
 20
119.55
 10
365.55
 20
120.48
 10
362.87
 20
122.07
 10
360.3
 20
123.33
 10
355.95
 20
125.28
 10
353.27
 20
125.26
 10
350.7
 20
125.13
 10
348.36
 20
124.77
 10
347.3
 20
124.48
 10
346.35
 20
124.08
 10
349.95
 20
116.88
 10
352.65
 20
116.82
 10
354.0
 20
116.69
 10
355.35
 20
116.43
 10
356.7
 20
116.0
 10
358.05
 20
115.36
 10
359.4
 20
114.47
 10
360.75
 20
113.28
 10
361.94
 20
112.27
 10
362.83
 20
111.09
 10
363.47
 20
109.76
 10
363.9
 20
108.33
 10
364.16
 20
106.85
 10
364.29
 20
105.35
 10
364.35
 20
102.48
 10
364.24
 20
101.13
 10
363.92
 20
99.82
 10
363.4
 20
98.56
 10
362.7
 20
97.38
 10
361.83
 20
96.32
 10
360.81
 20
95.39
 10
359.64
 20
94.64
 10
358.35
 20
94.08
 10
356.95
 20
93.29
 10
355.48
 20
92.71
 10
353.98
 20
92.33
 10
352.5
 20
92.13
 10
351.07
 20
92.1
 10
349.74
 20
92.22
 10
348.56
 20
92.49
 10
347.55
 20
92.88
 10
345.08
 20
94.72
 10
344.01
 20
95.71
 10
343.05
 20
96.78
 10
342.21
 20
97.97
 10
341.47
 20
99.29
 10
340.86
 20
100.79
 10
340.35
 20
102.48
 10
340.01
 20
102.98
 10
339.84
 20
103.59
 10
339.9
 20
105.03
 10
340.18
 20
106.7
 10
340.35
 20
108.48
 10
340.56
 20
109.57
 10
341.1
 20
110.88
 10
341.87
 20
112.19
 10
342.75
 20
113.28
 10
339.15
 20
120.48
 10
337.41
 20
118.97
  0
HATCH
  5
44
330
17
100
AcDbEntity
  8
FILL_RED_FF0000
 62
7
420
16711680
100
AcDbHatch
 10
0.0
 20
0.0
 30
0.0
210
0.0
220
0.0
230
1.0
  2
SOLID
 70
1
 71
0
 91
1
 92
3
 72
0
 73
1
 93
40
 10
384.26
 20
115.38
 10
384.75
 20
116.28
 10
385.24
 20
117.18
 10
385.95
 20
118.08
 10
386.87
 20
119.84
 10
387.9
 20
121.38
 10
388.49
 20
121.99
 10
389.16
 20
122.47
 10
389.9
 20
122.77
 10
390.75
 20
122.88
 10
391.2
 20
123.22
 10
391.65
 20
123.39
 10
392.55
 20
123.33
 10
393.45
 20
123.05
 10
394.35
 20
122.88
 10
396.75
 20
122.88
 10
396.75
 20
125.28
 10
396.75
 20
131.28
 10
401.55
 20
131.28
 10
401.55
 20
125.28
 10
397.95
 20
125.28
 10
397.95
 20
120.48
 10
396.75
 20
120.48
 10
396.75
 20
121.68
 10
395.55
 20
121.68
 10
393.96
 20
121.85
 10
392.7
 20
122.13
 10
391.67
 20
122.19
 10
391.2
 20
122.02
 10
390.75
 20
121.68
 10
390.25
 20
121.57
 10
389.66
 20
121.27
 10
388.35
 20
120.18
 10
387.04
 20
118.64
 10
385.95
 20
116.88
 10
385.74
 20
115.98
 10
385.2
 20
115.08
 10
383.55
 20
113.28
 10
383.55
 20
114.48
 10
384.26
 20
115.38
 97
0
 75
1
 76
1
 98
0
  0
LWPOLYLINE
  5
45
330
17
100
AcDbEntity
  8
FILL_RED_FF0000
370
0
420
16711680
100
AcDbPolyline
 90
39
 70
1
 10
384.26
 20
115.38
 10
384.75
 20
116.28
 10
385.24
 20
117.18
 10
385.95
 20
118.08
 10
386.87
 20
119.84
 10
387.9
 20
121.38
 10
388.49
 20
121.99
 10
389.16
 20
122.47
 10
389.9
 20
122.77
 10
390.75
 20
122.88
 10
391.2
 20
123.22
 10
391.65
 20
123.39
 10
392.55
 20
123.33
 10
393.45
 20
123.05
 10
394.35
 20
122.88
 10
396.75
 20
122.88
 10
396.75
 20
125.28
 10
396.75
 20
131.28
 10
401.55
 20
131.28
 10
401.55
 20
125.28
 10
397.95
 20
125.28
 10
397.95
 20
120.48
 10
396.75
 20
120.48
 10
396.75
 20
121.68
 10
395.55
 20
121.68
 10
393.96
 20
121.85
 10
392.7
 20
122.13
 10
391.67
 20
122.19
 10
391.2
 20
122.02
 10
390.75
 20
121.68
 10
390.25
 20
121.57
 10
389.66
 20
121.27
 10
388.35
 20
120.18
 10
387.04
 20
118.64
 10
385.95
 20
116.88
 10
385.74
 20
115.98
 10
385.2
 20
115.08
 10
383.55
 20
113.28
 10
383.55
 20
114.48
  0
HATCH
  5
46
330
17
100
AcDbEntity
  8
FILL_RED_FF0000
 62
7
420
16711680
100
AcDbHatch
 10
0.0
 20
0.0
 30
0.0
210
0.0
220
0.0
230
1.0
  2
SOLID
 70
1
 71
0
 91
1
 92
3
 72
0
 73
1
 93
38
 10
395.55
 20
115.68
 10
383.55
 20
101.28
 10
382.2
 20
100.68
 10
381.02
 20
100.27
 10
379.95
 20
100.08
 10
378.17
 20
100.1
 10
376.5
 20
100.23
 10
375.06
 20
100.59
 10
374.45
 20
100.88
 10
373.95
 20
101.28
 10
373.1
 20
101.33
 10
372.36
 20
101.49
 10
371.1
 20
102.03
 10
370.07
 20
102.8
 10
369.15
 20
103.68
 10
368.55
 20
103.83
 10
368.14
 20
104.19
 10
368.0
 20
104.48
 10
367.95
 20
104.88
 10
369.15
 20
106.08
 10
372.75
 20
108.48
 10
372.75
 20
107.28
 10
370.35
 20
106.08
 10
370.35
 20
104.88
 10
370.35
 20
103.68
 10
371.27
 20
102.99
 10
372.3
 20
102.63
 10
373.56
 20
102.5
 10
375.15
 20
102.48
 10
375.65
 20
102.08
 10
376.24
 20
101.79
 10
377.55
 20
101.43
 10
379.95
 20
101.28
 10
380.85
 20
101.49
 10
381.75
 20
102.03
 10
383.55
 20
103.68
 10
394.35
 20
115.68
 10
395.55
 20
115.68
 97
0
 75
1
 76
1
 98
0
  0
LWPOLYLINE
  5
47
330
17
100
AcDbEntity
  8
FILL_RED_FF0000
370
0
420
16711680
100
AcDbPolyline
 90
37
 70
1
 10
395.55
 20
115.68
 10
383.55
 20
101.28
 10
382.2
 20
100.68
 10
381.02
 20
100.27
 10
379.95
 20
100.08
 10
378.17
 20
100.1
 10
376.5
 20
100.23
 10
375.06
 20
100.59
 10
374.45
 20
100.88
 10
373.95
 20
101.28
 10
373.1
 20
101.33
 10
372.36
 20
101.49
 10
371.1
 20
102.03
 10
370.07
 20
102.8
 10
369.15
 20
103.68
 10
368.55
 20
103.83
 10
368.14
 20
104.19
 10
368.0
 20
104.48
 10
367.95
 20
104.88
 10
369.15
 20
106.08
 10
372.75
 20
108.48
 10
372.75
 20
107.28
 10
370.35
 20
106.08
 10
370.35
 20
104.88
 10
370.35
 20
103.68
 10
371.27
 20
102.99
 10
372.3
 20
102.63
 10
373.56
 20
102.5
 10
375.15
 20
102.48
 10
375.65
 20
102.08
 10
376.24
 20
101.79
 10
377.55
 20
101.43
 10
379.95
 20
101.28
 10
380.85
 20
101.49
 10
381.75
 20
102.03
 10
383.55
 20
103.68
 10
394.35
 20
115.68
  0
LWPOLYLINE
  5
49
330
17
100
AcDbEntity
  8
STROKE_BLACK_000000
370
0
420
0
100
AcDbPolyline
 90
3
 70
0
 10
235.94999999999982
 20
149.27999999999884
 10
249.14999999999964
 20
163.67999999999893
 10
310.34999999999945
 20
163.67999999999893
  0
LWPOLYLINE
  5
4A
330
17
100
AcDbEntity
  8
STROKE_BLACK_000000
370
0
420
0
100
AcDbPolyline
 90
3
 70
0
 10
310.34999999999945
 20
166.07999999999902
 10
247.94999999999982
 20
166.07999999999902
 10
232.35000000000036
 20
149.27999999999884
  0
LWPOLYLINE
  5
4B
330
17
100
AcDbEntity
  8
STROKE_BLACK_000000
370
0
420
0
100
AcDbPolyline
 90
2
 70
0
 10
382.9499999999998
 20
133.11999999999898
 10
382.9499999999998
 20
123.11999999999898
  0
LWPOLYLINE
  5
4C
330
17
100
AcDbEntity
  8
STROKE_BLACK_000000
370
0
420
0
100
AcDbPolyline
 90
12
 70
0
 10
378.75
 20
124.07999999999902
 10
378.75
 20
130.07999999999902
 10
378.95625
 20
130.96124999999887
 10
379.5
 20
131.72999999999877
 10
380.2687500000001
 20
132.2737499999987
 10
381.15000000000055
 20
132.47999999999865
 10
381.5976562500004
 20
132.82453124999876
 10
382.0312500000003
 20
132.98624999999873
 10
382.43671875000007
 20
133.00734374999877
 10
382.79999999999984
 20
132.92999999999876
 10
383.5499999999993
 20
132.47999999999865
 10
394.34999999999945
 20
122.8799999999992
  0
LWPOLYLINE
  5
4D
330
17
100
AcDbEntity
  8
STROKE_BLACK_000000
370
0
420
0
100
AcDbPolyline
 90
8
 70
0
 10
382.35000000000036
 20
118.07999999999902
 10
382.35000000000036
 20
124.07999999999902
 10
382.3687500000004
 20
124.7737499999989
 10
382.5000000000002
 20
125.12999999999886
 10
382.85624999999993
 20
125.26124999999882
 10
383.5499999999993
 20
125.27999999999884
 10
384.7499999999991
 20
125.27999999999884
 10
388.34999999999945
 20
121.67999999999893
  0
LWPOLYLINE
  5
4E
330
17
100
AcDbEntity
  8
STROKE_BLACK_000000
370
0
420
0
100
AcDbPolyline
 90
17
 70
0
 10
389.5499999999993
 20
120.47999999999865
 10
401.5500000000002
 20
109.67999999999893
 10
403.2375000000002
 20
107.8260937499989
 10
404.7000000000003
 20
105.87374999999889
 10
405.9375000000002
 20
103.83703124999892
 10
406.95000000000016
 20
101.729999999999
 10
407.7375000000001
 20
99.56671874999907
 10
408.30000000000007
 20
97.36124999999913
 10
408.63750000000005
 20
95.12765624999918
 10
408.75
 20
92.8799999999992
 10
406.35000000000036
 20
48.47999999999911
 10
407.2500000000003
 20
47.804999999998955
 10
407.7000000000002
 20
47.63624999999891
 10
408.1500000000001
 20
47.579999999998904
 10
408.6
 20
47.63624999999891
 10
409.04999999999995
 20
47.804999999998955
 10
409.9499999999998
 20
48.47999999999911
  0
LWPOLYLINE
  5
4F
330
17
100
AcDbEntity
  8
STROKE_BLACK_000000
370
0
420
0
100
AcDbPolyline
 90
57
 70
0
 10
376.35000000000036
 20
127.67999999999938
 10
378.75
 20
180.47999999999865
 10
378.80625000000003
 20
181.37765624999884
 10
378.975
 20
182.2612499999989
 10
379.25624999999997
 20
183.11671874999897
 10
379.65
 20
183.92999999999898
 10
380.15625
 20
184.687031249999
 10
380.7750000000001
 20
185.373749999999
 10
381.50625000000025
 20
185.97609374999905
 10
382.35000000000036
 20
186.4799999999991
 10
383.3015625
 20
187.21828124999917
 10
384.3374999999997
 20
187.6612499999992
 10
385.4296874999995
 20
187.85109374999922
 10
386.5499999999994
 20
187.82999999999925
 10
387.67031249999934
 20
187.64015624999925
 10
388.76249999999925
 20
187.32374999999922
 10
390.7499999999991
 20
186.4799999999991
 10
413.5499999999993
 20
170.8799999999992
 10
416.1304687499993
 20
168.51984374999907
 10
418.44374999999934
 20
165.948749999999
 10
420.44765624999945
 20
163.18078124999894
 10
421.3204101562495
 20
161.72736328124893
 10
422.09999999999957
 20
160.22999999999894
 10
422.7811523437496
 20
158.69044921874894
 10
423.35859374999967
 20
157.11046874999892
 10
423.8270507812497
 20
155.49181640624892
 10
424.18124999999975
 20
153.8362499999989
 10
424.4159179687497
 20
152.14552734374888
 10
424.5257812499997
 20
150.42140624999885
 10
424.50556640624956
 20
148.6656445312488
 10
424.34999999999945
 20
146.87999999999874
 10
415.9499999999998
 20
40.07999999999902
 10
415.0499999999997
 20
39.68859374999906
 10
414.1499999999997
 20
39.4237499999991
 10
413.2499999999998
 20
39.29953124999912
 10
412.3499999999999
 20
39.32999999999913
 10
411.45000000000005
 20
39.5292187499991
 10
410.5500000000001
 20
39.91124999999906
 10
409.6500000000001
 20
40.49015624999896
 10
408.75
 20
41.279999999998836
 10
417.14999999999964
 20
148.07999999999902
 10
417.3193359374996
 20
149.42941406249898
 10
417.37968749999953
 20
150.77531249999896
 10
417.3345703124995
 20
152.1141796874989
 10
417.1874999999995
 20
153.4424999999989
 10
416.60156249999943
 20
156.05343749999884
 10
415.6499999999994
 20
158.5799999999988
 10
414.3609374999994
 20
160.9940624999988
 10
412.76249999999953
 20
163.26749999999876
 10
410.8828124999997
 20
165.37218749999877
 10
408.75
 20
167.27999999999884
 10
389.5499999999993
 20
180.47999999999865
 10
385.9499999999998
 20
180.47999999999865
 10
384.2999999999993
 20
178.67999999999887
 10
383.7562499999993
 20
177.77999999999886
 10
383.5499999999993
 20
176.87999999999874
 10
381.15000000000055
 20
132.47999999999865
  0
LWPOLYLINE
  5
50
330
17
100
AcDbEntity
  8
STROKE_BLACK_000000
370
0
420
0
100
AcDbPolyline
 90
35
 70
0
 10
366.75
 20
133.67999999999893
 10
367.9499999999998
 20
155.27999999999884
 10
367.89374999999984
 20
156.62765624999892
 10
367.7249999999998
 20
157.96124999999896
 10
367.4437499999998
 20
159.26671874999894
 10
367.04999999999984
 20
160.5299999999989
 10
366.5437499999998
 20
161.73703124999884
 10
365.9249999999998
 20
162.87374999999878
 10
365.1937499999996
 20
163.92609374999876
 10
364.34999999999945
 20
164.87999999999874
 10
353.5499999999993
 20
174.4799999999991
 10
353.15390624999964
 20
174.42843749999912
 10
352.85624999999993
 20
174.29249999999914
 10
352.5000000000002
 20
173.8799999999992
 10
352.35000000000036
 20
173.2799999999993
 10
352.35000000000036
 20
162.47999999999865
 10
351.63750000000044
 20
161.80499999999876
 10
351.15000000000043
 20
161.5799999999988
 10
350.66250000000025
 20
161.80499999999876
 10
349.9499999999998
 20
162.47999999999865
 10
351.15000000000055
 20
176.87999999999874
 10
351.3000000000005
 20
177.47999999999888
 10
351.65625000000045
 20
177.89249999999896
 10
351.9539062500004
 20
178.028437499999
 10
352.35000000000036
 20
178.07999999999902
 10
353.5499999999993
 20
178.07999999999902
 10
365.5500000000002
 20
167.27999999999884
 10
366.78984375000005
 20
165.87843749999888
 10
367.81874999999985
 20
164.39249999999893
 10
368.6507812499997
 20
162.85031249999898
 10
369.2999999999996
 20
161.279999999999
 10
369.78046874999956
 20
159.709687499999
 10
370.1062499999995
 20
158.167499999999
 10
370.29140624999945
 20
156.68156249999896
 10
370.34999999999945
 20
155.27999999999884
  0
LWPOLYLINE
  5
51
330
17
100
AcDbEntity
  8
STROKE_BLACK_000000
370
0
420
0
100
AcDbPolyline
 90
23
 70
0
 10
372.75
 20
130.07999999999902
 10
377.5500000000002
 20
186.4799999999991
 10
377.43750000000017
 20
188.32687499999903
 10
377.10000000000025
 20
190.22999999999894
 10
376.53750000000025
 20
192.1331249999989
 10
375.7500000000002
 20
193.97999999999888
 10
374.7375000000001
 20
195.71437499999888
 10
373.50000000000006
 20
197.2799999999989
 10
372.0374999999998
 20
198.62062499999888
 10
370.34999999999945
 20
199.67999999999893
 10
357.14999999999964
 20
209.27999999999884
 10
356.2312499999996
 20
209.95499999999873
 10
355.73671874999957
 20
210.12374999999872
 10
355.1999999999996
 20
210.1799999999987
 10
353.94374999999974
 20
209.95499999999873
 10
352.35000000000036
 20
209.27999999999884
 10
351.9023437500004
 20
209.17453124999884
 10
351.4687500000004
 20
208.88624999999882
 10
350.70000000000016
 20
207.92999999999876
 10
350.1562499999999
 20
206.74874999999864
 10
349.9499999999998
 20
205.67999999999847
 10
348.75
 20
164.87999999999874
 10
349.9499999999998
 20
164.87999999999874
  0
LWPOLYLINE
  5
52
330
17
100
AcDbEntity
  8
STROKE_BLACK_000000
370
0
420
0
100
AcDbPolyline
 90
18
 70
0
 10
369.14999999999964
 20
132.47999999999865
 10
372.75
 20
186.4799999999991
 10
373.0359375
 20
188.27531249999902
 10
373.0125
 20
190.042499999999
 10
372.70781249999993
 20
191.75343749999897
 10
372.15
 20
193.37999999999897
 10
371.3671875
 20
194.894062499999
 10
370.38749999999993
 20
196.26749999999902
 10
369.23906249999993
 20
197.47218749999908
 10
367.9499999999998
 20
198.4799999999991
 10
357.14999999999964
 20
205.67999999999847
 10
354.7499999999991
 20
205.67999999999847
 10
354.3539062499991
 20
205.62609374999852
 10
354.0562499999992
 20
205.47374999999857
 10
353.69999999999925
 20
204.9299999999988
 10
353.5687499999993
 20
204.1612499999991
 10
353.5499999999993
 20
203.2799999999993
 10
352.35000000000036
 20
178.07999999999902
  0
LWPOLYLINE
  5
53
330
17
100
AcDbEntity
  8
STROKE_BLACK_000000
370
0
420
0
100
AcDbPolyline
 90
12
 70
0
 10
395.5500000000002
 20
121.67999999999893
 10
405.15000000000055
 20
113.27999999999929
 10
406.2331054687505
 20
112.33898437499926
 10
407.23359375000047
 20
111.32062499999924
 10
408.1532226562505
 20
110.2319531249992
 10
408.9937500000003
 20
109.07999999999919
 10
410.4445312500001
 20
106.61437499999914
 10
411.5999999999999
 20
103.97999999999911
 10
412.4742187499997
 20
101.23312499999909
 10
413.0812499999995
 20
98.4299999999991
 10
413.4351562499993
 20
95.62687499999913
 10
413.5499999999993
 20
92.8799999999992
  0
LWPOLYLINE
  5
55
330
17
100
AcDbEntity
  8
STROKE_BLUE_0000FF
370
0
420
255
100
AcDbPolyline
 90
2
 70
0
 10
312.9499999999998
 20
193.11999999999898
 10
312.9499999999998
 20
193.11999999999898
  0
LWPOLYLINE
  5
56
330
17
100
AcDbEntity
  8
STROKE_BLUE_0000FF
370
0
420
255
100
AcDbPolyline
 90
2
 70
0
 10
312.9499999999998
 20
93.11999999999898
 10
312.9499999999998
 20
93.11999999999898
  0
LWPOLYLINE
  5
57
330
17
100
AcDbEntity
  8
STROKE_BLUE_0000FF
370
0
420
255
100
AcDbPolyline
 90
2
 70
0
 10
312.9499999999998
 20
93.11999999999898
 10
312.9499999999998
 20
93.11999999999898
  0
ENDSEC
  0
SECTION
  2
OBJECTS
  0
DICTIONARY
  5
A
330
0
100
AcDbDictionary
281
1
  3
ACAD_COLOR
350
B
  3
ACAD_GROUP
350
C
  3
ACAD_LAYOUT
350
D
  3
ACAD_MATERIAL
350
E
  3
ACAD_MLEADERSTYLE
350
F
  3
ACAD_MLINESTYLE
350
10
  3
ACAD_PLOTSETTINGS
350
11
  3
ACAD_PLOTSTYLENAME
350
12
  3
ACAD_SCALELIST
350
14
  3
ACAD_TABLESTYLE
350
15
  3
ACAD_VISUALSTYLE
350
16
  3
EZDXF_META
350
2D
  0
DICTIONARY
  5
B
330
A
100
AcDbDictionary
281
1
  0
DICTIONARY
  5
C
330
A
100
AcDbDictionary
281
1
  0
DICTIONARY
  5
D
330
A
100
AcDbDictionary
281
1
  3
Model
350
1A
  3
Layout1
350
1E
  0
DICTIONARY
  5
E
330
A
100
AcDbDictionary
281
1
  3
ByBlock
350
1F
  3
ByLayer
350
20
  3
Global
350
21
  0
DICTIONARY
  5
F
330
A
100
AcDbDictionary
281
1
  3
Standard
350
2C
  0
DICTIONARY
  5
10
330
A
100
AcDbDictionary
281
1
  3
Standard
350
22
  0
DICTIONARY
  5
11
330
A
100
AcDbDictionary
281
1
  0
ACDBDICTIONARYWDFLT
  5
12
330
A
100
AcDbDictionary
281
1
  3
Normal
350
13
100
AcDbDictionaryWithDefault
340
13
  0
ACDBPLACEHOLDER
  5
13
330
12
  0
DICTIONARY
  5
14
330
A
100
AcDbDictionary
281
1
  0
DICTIONARY
  5
15
330
A
100
AcDbDictionary
281
1
  0
DICTIONARY
  5
16
330
A
100
AcDbDictionary
281
1
  0
LAYOUT
  5
1A
330
D
100
AcDbPlotSettings
  1

  4
A3
  6

 40
7.5
 41
20.0
 42
7.5
 43
20.0
 44
420.0
 45
297.0
 46
0.0
 47
0.0
 48
0.0
 49
0.0
140
0.0
141
0.0
142
1.0
143
1.0
 70
1024
 72
1
 73
0
 74
5
  7

 75
16
 76
0
 77
2
 78
300
147
1.0
148
0.0
149
0.0
100
AcDbLayout
  1
Model
 70
1
 71
0
 10
0.0
 20
0.0
 11
420.0
 21
297.0
 12
0.0
 22
0.0
 32
0.0
 14
1e+20
 24
1e+20
 34
1e+20
 15
-1e+20
 25
-1e+20
 35
-1e+20
146
0.0
 13
0.0
 23
0.0
 33
0.0
 16
1.0
 26
0.0
 36
0.0
 17
0.0
 27
1.0
 37
0.0
 76
1
330
17
  0
LAYOUT
  5
1E
330
D
100
AcDbPlotSettings
  1

  4
A3
  6

 40
7.5
 41
20.0
 42
7.5
 43
20.0
 44
420.0
 45
297.0
 46
0.0
 47
0.0
 48
0.0
 49
0.0
140
0.0
141
0.0
142
1.0
143
1.0
 70
0
 72
1
 73
0
 74
5
  7

 75
16
 76
0
 77
2
 78
300
147
1.0
148
0.0
149
0.0
100
AcDbLayout
  1
Layout1
 70
1
 71
1
 10
0.0
 20
0.0
 11
420.0
 21
297.0
 12
0.0
 22
0.0
 32
0.0
 14
1e+20
 24
1e+20
 34
1e+20
 15
-1e+20
 25
-1e+20
 35
-1e+20
146
0.0
 13
0.0
 23
0.0
 33
0.0
 16
1.0
 26
0.0
 36
0.0
 17
0.0
 27
1.0
 37
0.0
 76
1
330
1B
  0
MATERIAL
  5
1F
102
{ACAD_REACTORS
330
E
102
}
330
E
100
AcDbMaterial
  1
ByBlock
  2

 70
0
 40
1.0
 71
1
 41
1.0
 91
-1023410177
 42
1.0
 72
1
  3

 73
1
 74
1
 75
1
 44
0.5
 73
0
 45
1.0
 46
1.0
 77
1
  4

 78
1
 79
1
170
1
 48
1.0
171
1
  6

172
1
173
1
174
1
140
1.0
141
1.0
175
1
  7

176
1
177
1
178
1
143
1.0
179
1
  8

270
1
271
1
272
1
145
1.0
146
1.0
273
1
  9

274
1
275
1
276
1
 42
1.0
 72
1
  3

 73
1
 74
1
 75
1
 94
63
  0
MATERIAL
  5
20
102
{ACAD_REACTORS
330
E
102
}
330
E
100
AcDbMaterial
  1
ByLayer
  2

 70
0
 40
1.0
 71
1
 41
1.0
 91
-1023410177
 42
1.0
 72
1
  3

 73
1
 74
1
 75
1
 44
0.5
 73
0
 45
1.0
 46
1.0
 77
1
  4

 78
1
 79
1
170
1
 48
1.0
171
1
  6

172
1
173
1
174
1
140
1.0
141
1.0
175
1
  7

176
1
177
1
178
1
143
1.0
179
1
  8

270
1
271
1
272
1
145
1.0
146
1.0
273
1
  9

274
1
275
1
276
1
 42
1.0
 72
1
  3

 73
1
 74
1
 75
1
 94
63
  0
MATERIAL
  5
21
102
{ACAD_REACTORS
330
E
102
}
330
E
100
AcDbMaterial
  1
Global
  2

 70
0
 40
1.0
 71
1
 41
1.0
 91
-1023410177
 42
1.0
 72
1
  3

 73
1
 74
1
 75
1
 44
0.5
 73
0
 45
1.0
 46
1.0
 77
1
  4

 78
1
 79
1
170
1
 48
1.0
171
1
  6

172
1
173
1
174
1
140
1.0
141
1.0
175
1
  7

176
1
177
1
178
1
143
1.0
179
1
  8

270
1
271
1
272
1
145
1.0
146
1.0
273
1
  9

274
1
275
1
276
1
 42
1.0
 72
1
  3

 73
1
 74
1
 75
1
 94
63
  0
MLINESTYLE
  5
22
102
{ACAD_REACTORS
330
10
102
}
330
10
100
AcDbMlineStyle
  2
Standard
 70
0
  3

 62
256
 51
90.0
 52
90.0
 71
2
 49
0.5
 62
256
  6
BYLAYER
 49
-0.5
 62
256
  6
BYLAYER
  0
MLEADERSTYLE
  5
2C
102
{ACAD_REACTORS
330
F
102
}
330
F
100
AcDbMLeaderStyle
179
2
170
2
171
1
172
0
 90
2
 40
0.0
 41
0.0
173
1
 91
-1056964608
 92
-2
290
1
 42
2.0
291
1
 43
8.0
  3
Standard
 44
4.0
300

342
29
174
1
175
1
176
0
178
1
 93
-1056964608
 45
4.0
292
0
297
0
 46
4.0
 94
-1056964608
 47
1.0
 49
1.0
140
1.0
294
1
141
0.0
177
0
142
1.0
295
0
296
0
143
3.75
271
0
272
9
273
9
  0
DICTIONARY
  5
2D
330
A
100
AcDbDictionary
280
1
281
1
  3
CREATED_BY_EZDXF
350
2E
  3
WRITTEN_BY_EZDXF
350
5A
  0
DICTIONARYVAR
  5
2E
330
2D
100
DictionaryVariables
280
0
  1
1.4.4 @ 2026-07-10T01:53:54.712019+00:00
  0
DICTIONARYVAR
  5
5A
330
2D
100
DictionaryVariables
280
0
  1
1.4.4 @ 2026-07-10T01:53:54.720437+00:00
  0
ENDSEC
  0
EOF
