  0
SECTION
  2
HEADER
  9
$ACADVER
  1
AC1024
  9
$ACADMAINTVER
 70
6
  9
$DWGCODEPAGE
  3
ANSI_1252
  9
$LASTSAVEDBY
  1
ezdxf
  9
$INSBASE
 10
0.0
 20
0.0
 30
0.0
  9
$EXTMIN
 10
1e+20
 20
1e+20
 30
1e+20
  9
$EXTMAX
 10
-1e+20
 20
-1e+20
 30
-1e+20
  9
$LIMMIN
 10
0.0
 20
0.0
  9
$LIMMAX
 10
420.0
 20
297.0
  9
$ORTHOMODE
 70
0
  9
$REGENMODE
 70
1
  9
$FILLMODE
 70
1
  9
$QTEXTMODE
 70
0
  9
$MIRRTEXT
 70
1
  9
$LTSCALE
 40
1.0
  9
$ATTMODE
 70
1
  9
$TEXTSIZE
 40
2.5
  9
$TRACEWID
 40
1.0
  9
$TEXTSTYLE
  7
Standard
  9
$CLAYER
  8
0
  9
$CELTYPE
  6
ByLayer
  9
$CECOLOR
 62
256
  9
$CELTSCALE
 40
1.0
  9
$DISPSILH
 70
0
  9
$DIMSCALE
 40
1.0
  9
$DIMASZ
 40
2.5
  9
$DIMEXO
 40
0.625
  9
$DIMDLI
 40
3.75
  9
$DIMRND
 40
0.0
  9
$DIMDLE
 40
0.0
  9
$DIMEXE
 40
1.25
  9
$DIMTP
 40
0.0
  9
$DIMTM
 40
0.0
  9
$DIMTXT
 40
2.5
  9
$DIMCEN
 40
2.5
  9
$DIMTSZ
 40
0.0
  9
$DIMTOL
 70
0
  9
$DIMLIM
 70
0
  9
$DIMTIH
 70
0
  9
$DIMTOH
 70
0
  9
$DIMSE1
 70
0
  9
$DIMSE2
 70
0
  9
$DIMTAD
 70
1
  9
$DIMZIN
 70
8
  9
$DIMBLK
  1

  9
$DIMASO
 70
1
  9
$DIMSHO
 70
1
  9
$DIMPOST
  1

  9
$DIMAPOST
  1

  9
$DIMALT
 70
0
  9
$DIMALTD
 70
3
  9
$DIMALTF
 40
0.03937007874
  9
$DIMLFAC
 40
1.0
  9
$DIMTOFL
 70
1
  9
$DIMTVP
 40
0.0
  9
$DIMTIX
 70
0
  9
$DIMSOXD
 70
0
  9
$DIMSAH
 70
0
  9
$DIMBLK1
  1

  9
$DIMBLK2
  1

  9
$DIMSTYLE
  2
ISO-25
  9
$DIMCLRD
 70
0
  9
$DIMCLRE
 70
0
  9
$DIMCLRT
 70
0
  9
$DIMTFAC
 40
1.0
  9
$DIMGAP
 40
0.625
  9
$DIMJUST
 70
0
  9
$DIMSD1
 70
0
  9
$DIMSD2
 70
0
  9
$DIMTOLJ
 70
0
  9
$DIMTZIN
 70
8
  9
$DIMALTZ
 70
0
  9
$DIMALTTZ
 70
0
  9
$DIMUPT
 70
0
  9
$DIMDEC
 70
2
  9
$DIMTDEC
 70
2
  9
$DIMALTU
 70
2
  9
$DIMALTTD
 70
3
  9
$DIMTXSTY
  7
Standard
  9
$DIMAUNIT
 70
0
  9
$DIMADEC
 70
0
  9
$DIMALTRND
 40
0.0
  9
$DIMAZIN
 70
0
  9
$DIMDSEP
 70
44
  9
$DIMATFIT
 70
3
  9
$DIMFRAC
 70
0
  9
$DIMLDRBLK
  1

  9
$DIMLUNIT
 70
2
  9
$DIMLWD
 70
-2
  9
$DIMLWE
 70
-2
  9
$DIMTMOVE
 70
0
  9
$DIMFXL
 40
1.0
  9
$DIMFXLON
 70
0
  9
$DIMJOGANG
 40
0.785398163397
  9
$DIMTFILL
 70
0
  9
$DIMTFILLCLR
 70
0
  9
$DIMARCSYM
 70
0
  9
$DIMLTYPE
  6

  9
$DIMLTEX1
  6

  9
$DIMLTEX2
  6

  9
$DIMTXTDIRECTION
 70
0
  9
$LUNITS
 70
2
  9
$LUPREC
 70
4
  9
$SKETCHINC
 40
1.0
  9
$FILLETRAD
 40
10.0
  9
$AUNITS
 70
0
  9
$AUPREC
 70
2
  9
$MENU
  1
.
  9
$ELEVATION
 40
0.0
  9
$PELEVATION
 40
0.0
  9
$THICKNESS
 40
0.0
  9
$LIMCHECK
 70
0
  9
$CHAMFERA
 40
0.0
  9
$CHAMFERB
 40
0.0
  9
$CHAMFERC
 40
0.0
  9
$CHAMFERD
 40
0.0
  9
$SKPOLY
 70
0
  9
$TDCREATE
 40
2461232.4124421296
  9
$TDUCREATE
 40
2458532.153996898
  9
$TDUPDATE
 40
2461232.4124421296
  9
$TDUUPDATE
 40
2458532.1544311
  9
$TDINDWG
 40
0.0
  9
$TDUSRTIMER
 40
0.0
  9
$USRTIMER
 70
1
  9
$ANGBASE
 50
0.0
  9
$ANGDIR
 70
0
  9
$PDMODE
 70
0
  9
$PDSIZE
 40
0.0
  9
$PLINEWID
 40
0.0
  9
$SPLFRAME
 70
0
  9
$SPLINETYPE
 70
6
  9
$SPLINESEGS
 70
8
  9
$HANDSEED
  5
92
  9
$SURFTAB1
 70
6
  9
$SURFTAB2
 70
6
  9
$SURFTYPE
 70
6
  9
$SURFU
 70
6
  9
$SURFV
 70
6
  9
$UCSBASE
  2

  9
$UCSNAME
  2

  9
$UCSORG
 10
0.0
 20
0.0
 30
0.0
  9
$UCSXDIR
 10
1.0
 20
0.0
 30
0.0
  9
$UCSYDIR
 10
0.0
 20
1.0
 30
0.0
  9
$UCSORTHOREF
  2

  9
$UCSORTHOVIEW
 70
0
  9
$UCSORGTOP
 10
0.0
 20
0.0
 30
0.0
  9
$UCSORGBOTTOM
 10
0.0
 20
0.0
 30
0.0
  9
$UCSORGLEFT
 10
0.0
 20
0.0
 30
0.0
  9
$UCSORGRIGHT
 10
0.0
 20
0.0
 30
0.0
  9
$UCSORGFRONT
 10
0.0
 20
0.0
 30
0.0
  9
$UCSORGBACK
 10
0.0
 20
0.0
 30
0.0
  9
$PUCSBASE
  2

  9
$PUCSNAME
  2

  9
$PUCSORG
 10
0.0
 20
0.0
 30
0.0
  9
$PUCSXDIR
 10
1.0
 20
0.0
 30
0.0
  9
$PUCSYDIR
 10
0.0
 20
1.0
 30
0.0
  9
$PUCSORTHOREF
  2

  9
$PUCSORTHOVIEW
 70
0
  9
$PUCSORGTOP
 10
0.0
 20
0.0
 30
0.0
  9
$PUCSORGBOTTOM
 10
0.0
 20
0.0
 30
0.0
  9
$PUCSORGLEFT
 10
0.0
 20
0.0
 30
0.0
  9
$PUCSORGRIGHT
 10
0.0
 20
0.0
 30
0.0
  9
$PUCSORGFRONT
 10
0.0
 20
0.0
 30
0.0
  9
$PUCSORGBACK
 10
0.0
 20
0.0
 30
0.0
  9
$USERI1
 70
0
  9
$USERI2
 70
0
  9
$USERI3
 70
0
  9
$USERI4
 70
0
  9
$USERI5
 70
0
  9
$USERR1
 40
0.0
  9
$USERR2
 40
0.0
  9
$USERR3
 40
0.0
  9
$USERR4
 40
0.0
  9
$USERR5
 40
0.0
  9
$WORLDVIEW
 70
1
  9
$SHADEDGE
 70
3
  9
$SHADEDIF
 70
70
  9
$TILEMODE
 70
1
  9
$MAXACTVP
 70
64
  9
$PINSBASE
 10
0.0
 20
0.0
 30
0.0
  9
$PLIMCHECK
 70
0
  9
$PEXTMIN
 10
1e+20
 20
1e+20
 30
1e+20
  9
$PEXTMAX
 10
-1e+20
 20
-1e+20
 30
-1e+20
  9
$PLIMMIN
 10
0.0
 20
0.0
  9
$PLIMMAX
 10
420.0
 20
297.0
  9
$UNITMODE
 70
0
  9
$VISRETAIN
 70
1
  9
$PLINEGEN
 70
0
  9
$PSLTSCALE
 70
1
  9
$TREEDEPTH
 70
3020
  9
$CMLSTYLE
  2
Standard
  9
$CMLJUST
 70
0
  9
$CMLSCALE
 40
20.0
  9
$PROXYGRAPHICS
 70
1
  9
$MEASUREMENT
 70
1
  9
$CELWEIGHT
370
-1
  9
$ENDCAPS
280
0
  9
$JOINSTYLE
280
0
  9
$LWDISPLAY
290
0
  9
$INSUNITS
 70
6
  9
$HYPERLINKBASE
  1

  9
$STYLESHEET
  1

  9
$XEDIT
290
1
  9
$CEPSNTYPE
380
0
  9
$PSTYLEMODE
290
1
  9
$FINGERPRINTGUID
  2
{AEFADC8A-CC5A-4DFD-A4E2-01B146569C1B}
  9
$VERSIONGUID
  2
{AD96F7F4-DC94-4AC7-B721-B13E19C59BE6}
  9
$EXTNAMES
290
1
  9
$PSVPSCALE
 40
0.0
  9
$OLESTARTUP
290
0
  9
$SORTENTS
280
127
  9
$INDEXCTL
280
0
  9
$HIDETEXT
280
1
  9
$XCLIPFRAME
280
1
  9
$HALOGAP
280
0
  9
$OBSCOLOR
 70
257
  9
$OBSLTYPE
280
0
  9
$INTERSECTIONDISPLAY
280
0
  9
$INTERSECTIONCOLOR
 70
257
  9
$DIMASSOC
280
2
  9
$PROJECTNAME
  1

  9
$CAMERADISPLAY
290
0
  9
$LENSLENGTH
 40
50.0
  9
$CAMERAHEIGHT
 40
0.0
  9
$STEPSPERSEC
 40
24.0
  9
$STEPSIZE
 40
100.0
  9
$3DDWFPREC
 40
2.0
  9
$PSOLWIDTH
 40
0.005
  9
$PSOLHEIGHT
 40
0.08
  9
$LOFTANG1
 40
1.570796326795
  9
$LOFTANG2
 40
1.570796326795
  9
$LOFTMAG1
 40
0.0
  9
$LOFTMAG2
 40
0.0
  9
$LOFTPARAM
 70
7
  9
$LOFTNORMALS
280
1
  9
$LATITUDE
 40
37.795
  9
$LONGITUDE
 40
-122.394
  9
$NORTHDIRECTION
 40
0.0
  9
$TIMEZONE
 70
-8000
  9
$LIGHTGLYPHDISPLAY
280
1
  9
$TILEMODELIGHTSYNCH
280
1
  9
$CMATERIAL
347
20
  9
$SOLIDHIST
280
0
  9
$SHOWHIST
280
1
  9
$DWFFRAME
280
2
  9
$DGNFRAME
280
2
  9
$REALWORLDSCALE
290
1
  9
$INTERFERECOLOR
 62
256
  9
$CSHADOW
280
0
  9
$SHADOWPLANELOCATION
 40
0.0
  0
ENDSEC
  0
SECTION
  2
CLASSES
  0
CLASS
  1
ACDBDICTIONARYWDFLT
  2
AcDbDictionaryWithDefault
  3
ObjectDBX Classes
 90
0
 91
0
280
0
281
0
  0
CLASS
  1
SUN
  2
AcDbSun
  3
SCENEOE
 90
1153
 91
0
280
0
281
0
  0
CLASS
  1
VISUALSTYLE
  2
AcDbVisualStyle
  3
ObjectDBX Classes
 90
4095
 91
0
280
0
281
0
  0
CLASS
  1
MATERIAL
  2
AcDbMaterial
  3
ObjectDBX Classes
 90
1153
 91
0
280
0
281
0
  0
CLASS
  1
SCALE
  2
AcDbScale
  3
ObjectDBX Classes
 90
1153
 91
0
280
0
281
0
  0
CLASS
  1
TABLESTYLE
  2
AcDbTableStyle
  3
ObjectDBX Classes
 90
4095
 91
0
280
0
281
0
  0
CLASS
  1
MLEADERSTYLE
  2
AcDbMLeaderStyle
  3
ACDB_MLEADERSTYLE_CLASS
 90
4095
 91
0
280
0
281
0
  0
CLASS
  1
DICTIONARYVAR
  2
AcDbDictionaryVar
  3
ObjectDBX Classes
 90
0
 91
0
280
0
281
0
  0
CLASS
  1
CELLSTYLEMAP
  2
AcDbCellStyleMap
  3
ObjectDBX Classes
 90
1152
 91
0
280
0
281
0
  0
CLASS
  1
MENTALRAYRENDERSETTINGS
  2
AcDbMentalRayRenderSettings
  3
SCENEOE
 90
1024
 91
0
280
0
281
0
  0
CLASS
  1
ACDBDETAILVIEWSTYLE
  2
AcDbDetailViewStyle
  3
ObjectDBX Classes
 90
1025
 91
0
280
0
281
0
  0
CLASS
  1
ACDBSECTIONVIEWSTYLE
  2
AcDbSectionViewStyle
  3
ObjectDBX Classes
 90
1025
 91
0
280
0
281
0
  0
CLASS
  1
RASTERVARIABLES
  2
AcDbRasterVariables
  3
ISM
 90
0
 91
0
280
0
281
0
  0
CLASS
  1
ACDBPLACEHOLDER
  2
AcDbPlaceHolder
  3
ObjectDBX Classes
 90
0
 91
0
280
0
281
0
  0
CLASS
  1
LAYOUT
  2
AcDbLayout
  3
ObjectDBX Classes
 90
0
 91
0
280
0
281
0
  0
ENDSEC
  0
SECTION
  2
TABLES
  0
TABLE
  2
VPORT
  5
8
330
0
100
AcDbSymbolTable
 70
1
  0
VPORT
  5
23
330
8
100
AcDbSymbolTableRecord
100
AcDbViewportTableRecord
  2
*Active
 70
0
 10
0.0
 20
0.0
 11
1.0
 21
1.0
 12
0.0
 22
0.0
 13
0.0
 23
0.0
 14
0.5
 24
0.5
 15
0.5
 25
0.5
 16
0.0
 26
0.0
 36
1.0
 17
0.0
 27
0.0
 37
0.0
 40
1000.0
 41
1.34
 42
50.0
 43
0.0
 44
0.0
 50
0.0
 51
0.0
 71
0
 72
1000
 73
1
 74
3
 75
0
 76
0
 77
0
 78
0
281
0
 65
0
146
0.0
  0
ENDTAB
  0
TABLE
  2
LTYPE
  5
2
330
0
100
AcDbSymbolTable
 70
3
  0
LTYPE
  5
24
330
2
100
AcDbSymbolTableRecord
100
AcDbLinetypeTableRecord
  2
ByBlock
 70
0
  3

 72
65
 73
0
 40
0.0
  0
LTYPE
  5
25
330
2
100
AcDbSymbolTableRecord
100
AcDbLinetypeTableRecord
  2
ByLayer
 70
0
  3

 72
65
 73
0
 40
0.0
  0
LTYPE
  5
26
330
2
100
AcDbSymbolTableRecord
100
AcDbLinetypeTableRecord
  2
Continuous
 70
0
  3

 72
65
 73
0
 40
0.0
  0
ENDTAB
  0
TABLE
  2
LAYER
  5
1
330
0
100
AcDbSymbolTable
 70
6
  0
LAYER
  5
27
330
1
100
AcDbSymbolTableRecord
100
AcDbLayerTableRecord
  2
0
 70
0
 62
7
  6
Continuous
370
-3
390
13
347
21
  0
LAYER
  5
28
330
1
100
AcDbSymbolTableRecord
100
AcDbLayerTableRecord
  2
Defpoints
 70
0
 62
7
  6
Continuous
290
0
370
-3
390
13
347
21
  0
LAYER
  5
2F
330
1
100
AcDbSymbolTableRecord
100
AcDbLayerTableRecord
  2
FILL_WHITE_FFFFFF
 70
0
 62
7
420
16777215
  6
Continuous
370
-3
390
13
347
21
  0
LAYER
  5
32
330
1
100
AcDbSymbolTableRecord
100
AcDbLayerTableRecord
  2
FILL_BLUE_0000FF
 70
0
 62
7
420
255
  6
Continuous
370
-3
390
13
347
21
  0
LAYER
  5
8B
330
1
100
AcDbSymbolTableRecord
100
AcDbLayerTableRecord
  2
STROKE_WHITE_FFFFFF
 70
0
 62
7
420
16777215
  6
Continuous
370
-3
390
13
347
21
  0
LAYER
  5
8D
330
1
100
AcDbSymbolTableRecord
100
AcDbLayerTableRecord
  2
STROKE_BLUE_0000FF
 70
0
 62
7
420
255
  6
Continuous
370
-3
390
13
347
21
  0
ENDTAB
  0
TABLE
  2
STYLE
  5
5
330
0
100
AcDbSymbolTable
 70
1
  0
STYLE
  5
29
330
5
100
AcDbSymbolTableRecord
100
AcDbTextStyleTableRecord
  2
Standard
 70
0
 40
0.0
 41
1.0
 50
0.0
 71
0
 42
2.5
  3
txt
  4

  0
ENDTAB
  0
TABLE
  2
VIEW
  5
7
330
0
100
AcDbSymbolTable
 70
0
  0
ENDTAB
  0
TABLE
  2
UCS
  5
6
330
0
100
AcDbSymbolTable
 70
0
  0
ENDTAB
  0
TABLE
  2
APPID
  5
3
330
0
100
AcDbSymbolTable
 70
3
  0
APPID
  5
2A
330
3
100
AcDbSymbolTableRecord
100
AcDbRegAppTableRecord
  2
ACAD
 70
0
  0
APPID
  5
8F
330
3
100
AcDbSymbolTableRecord
100
AcDbRegAppTableRecord
  2
HATCHBACKGROUNDCOLOR
 70
0
  0
APPID
  5
90
330
3
100
AcDbSymbolTableRecord
100
AcDbRegAppTableRecord
  2
EZDXF
 70
0
  0
ENDTAB
  0
TABLE
  2
DIMSTYLE
  5
4
330
0
100
AcDbSymbolTable
 70
1
100
AcDbDimStyleTable
  0
DIMSTYLE
105
2B
330
4
100
AcDbSymbolTableRecord
100
AcDbDimStyleTableRecord
  2
Standard
 70
0
 40
1.0
 41
2.5
 42
0.625
 43
3.75
 44
1.25
 45
0.0
 46
0.0
 47
0.0
 48
0.0
 49
2.5
140
2.5
141
2.5
142
0.0
143
0.03937007874
144
1.0
145
0.0
146
1.0
147
0.625
148
0.0
 69
0
 70
0
 71
0
 72
0
 73
0
 74
0
 75
0
 76
0
 77
1
 78
8
 79
3
170
0
171
3
172
1
173
0
174
0
175
0
176
0
177
0
178
0
179
2
271
2
272
2
273
2
274
3
275
0
276
0
277
2
278
44
279
0
280
0
281
0
282
0
283
0
284
8
285
0
286
0
288
0
289
3
290
0
371
-2
372
-2
  0
ENDTAB
  0
TABLE
  2
BLOCK_RECORD
  5
9
330
0
100
AcDbSymbolTable
 70
2
  0
BLOCK_RECORD
  5
17
330
9
100
AcDbSymbolTableRecord
100
AcDbBlockTableRecord
  2
*Model_Space
340
1A
 70
0
280
1
281
0
  0
BLOCK_RECORD
  5
1B
330
9
100
AcDbSymbolTableRecord
100
AcDbBlockTableRecord
  2
*Paper_Space
340
1E
 70
0
280
1
281
0
  0
ENDTAB
  0
ENDSEC
  0
SECTION
  2
BLOCKS
  0
BLOCK
  5
18
330
17
100
AcDbEntity
  8
0
100
AcDbBlockBegin
  2
*Model_Space
 70
0
 10
0.0
 20
0.0
 30
0.0
  3
*Model_Space
  1

  0
ENDBLK
  5
19
330
17
100
AcDbEntity
  8
0
100
AcDbBlockEnd
  0
BLOCK
  5
1C
330
1B
100
AcDbEntity
  8
0
100
AcDbBlockBegin
  2
*Paper_Space
 70
0
 10
0.0
 20
0.0
 30
0.0
  3
*Paper_Space
  1

  0
ENDBLK
  5
1D
330
1B
100
AcDbEntity
  8
0
100
AcDbBlockEnd
  0
ENDSEC
  0
SECTION
  2
ENTITIES
  0
HATCH
  5
30
330
17
100
AcDbEntity
  8
FILL_WHITE_FFFFFF
 62
7
420
16777215
100
AcDbHatch
 10
0.0
 20
0.0
 30
0.0
210
0.0
220
0.0
230
1.0
  2
SOLID
 70
1
 71
0
 91
1
 92
3
 72
0
 73
1
 93
66
 10
30.87
 20
47.58
 10
29.09
 20
47.76
 10
27.33
 20
48.09
 10
25.62
 20
48.57
 10
23.96
 20
49.22
 10
22.38
 20
50.05
 10
20.87
 20
51.08
 10
19.47
 20
52.32
 10
18.18
 20
53.77
 10
17.01
 20
55.39
 10
15.99
 20
57.13
 10
15.12
 20
58.92
 10
14.42
 20
60.71
 10
13.9
 20
62.44
 10
13.58
 20
64.07
 10
13.47
 20
65.52
 10
13.47
 20
204.72
 10
13.58
 20
206.52
 10
13.9
 20
208.3
 10
14.42
 20
210.06
 10
15.12
 20
211.77
 10
15.99
 20
213.43
 10
17.01
 20
215.01
 10
18.18
 20
216.52
 10
19.47
 20
217.92
 10
20.87
 20
219.21
 10
22.38
 20
220.38
 10
23.96
 20
221.4
 10
25.62
 20
222.27
 10
27.33
 20
222.97
 10
29.09
 20
223.49
 10
30.87
 20
223.81
 10
32.67
 20
223.92
 10
533.07
 20
223.92
 10
534.87
 20
223.81
 10
536.65
 20
223.49
 10
538.41
 20
222.97
 10
540.12
 20
222.27
 10
541.78
 20
221.4
 10
543.36
 20
220.38
 10
544.87
 20
219.21
 10
546.27
 20
217.92
 10
547.91
 20
216.52
 10
549.23
 20
215.01
 10
550.28
 20
213.43
 10
551.07
 20
211.77
 10
551.64
 20
210.06
 10
552.01
 20
208.3
 10
552.21
 20
206.52
 10
552.27
 20
204.72
 10
552.27
 20
65.52
 10
552.12
 20
62.97
 10
551.76
 20
61.3
 10
551.07
 20
59.52
 10
549.12
 20
55.92
 10
547.86
 20
54.12
 10
546.27
 20
52.32
 10
545.16
 20
51.42
 10
543.72
 20
50.52
 10
540.27
 20
48.72
 10
538.47
 20
48.03
 10
536.67
 20
47.67
 10
534.87
 20
47.54
 10
533.07
 20
47.52
 10
32.67
 20
47.52
 10
30.87
 20
47.58
 97
0
 75
1
 76
1
 98
0
  0
LWPOLYLINE
  5
31
330
17
100
AcDbEntity
  8
FILL_WHITE_FFFFFF
370
0
420
16777215
100
AcDbPolyline
 90
65
 70
1
 10
30.87
 20
47.58
 10
29.09
 20
47.76
 10
27.33
 20
48.09
 10
25.62
 20
48.57
 10
23.96
 20
49.22
 10
22.38
 20
50.05
 10
20.87
 20
51.08
 10
19.47
 20
52.32
 10
18.18
 20
53.77
 10
17.01
 20
55.39
 10
15.99
 20
57.13
 10
15.12
 20
58.92
 10
14.42
 20
60.71
 10
13.9
 20
62.44
 10
13.58
 20
64.07
 10
13.47
 20
65.52
 10
13.47
 20
204.72
 10
13.58
 20
206.52
 10
13.9
 20
208.3
 10
14.42
 20
210.06
 10
15.12
 20
211.77
 10
15.99
 20
213.43
 10
17.01
 20
215.01
 10
18.18
 20
216.52
 10
19.47
 20
217.92
 10
20.87
 20
219.21
 10
22.38
 20
220.38
 10
23.96
 20
221.4
 10
25.62
 20
222.27
 10
27.33
 20
222.97
 10
29.09
 20
223.49
 10
30.87
 20
223.81
 10
32.67
 20
223.92
 10
533.07
 20
223.92
 10
534.87
 20
223.81
 10
536.65
 20
223.49
 10
538.41
 20
222.97
 10
540.12
 20
222.27
 10
541.78
 20
221.4
 10
543.36
 20
220.38
 10
544.87
 20
219.21
 10
546.27
 20
217.92
 10
547.91
 20
216.52
 10
549.23
 20
215.01
 10
550.28
 20
213.43
 10
551.07
 20
211.77
 10
551.64
 20
210.06
 10
552.01
 20
208.3
 10
552.21
 20
206.52
 10
552.27
 20
204.72
 10
552.27
 20
65.52
 10
552.12
 20
62.97
 10
551.76
 20
61.3
 10
551.07
 20
59.52
 10
549.12
 20
55.92
 10
547.86
 20
54.12
 10
546.27
 20
52.32
 10
545.16
 20
51.42
 10
543.72
 20
50.52
 10
540.27
 20
48.72
 10
538.47
 20
48.03
 10
536.67
 20
47.67
 10
534.87
 20
47.54
 10
533.07
 20
47.52
 10
32.67
 20
47.52
  0
HATCH
  5
33
330
17
100
AcDbEntity
  8
FILL_BLUE_0000FF
 62
7
420
255
100
AcDbHatch
 10
0.0
 20
0.0
 30
0.0
210
0.0
220
0.0
230
1.0
  2
SOLID
 70
1
 71
0
 91
1
 92
3
 72
0
 73
1
 93
52
 10
30.88
 20
57.28
 10
29.15
 20
57.76
 10
27.52
 20
58.51
 10
26.07
 20
59.52
 10
24.84
 20
60.75
 10
23.9
 20
62.18
 10
23.29
 20
63.78
 10
23.13
 20
64.63
 10
23.07
 20
65.52
 10
23.07
 20
204.72
 10
23.09
 20
205.62
 10
23.22
 20
206.52
 10
23.58
 20
207.42
 10
24.27
 20
208.32
 10
24.48
 20
209.22
 10
25.02
 20
210.12
 10
26.67
 20
211.92
 10
26.72
 20
212.32
 10
26.88
 20
212.61
 10
27.42
 20
212.97
 10
28.19
 20
213.1
 10
29.07
 20
213.12
 10
29.97
 20
213.81
 10
30.87
 20
214.17
 10
31.77
 20
214.3
 10
32.67
 20
214.32
 10
533.07
 20
214.32
 10
534.87
 20
214.11
 10
536.67
 20
213.57
 10
538.47
 20
212.8
 10
540.27
 20
211.92
 10
541.06
 20
211.02
 10
541.66
 20
210.12
 10
542.08
 20
209.22
 10
542.37
 20
208.32
 10
542.63
 20
206.52
 10
542.67
 20
204.72
 10
542.67
 20
65.52
 10
542.63
 20
63.74
 10
542.37
 20
62.07
 10
542.08
 20
61.31
 10
541.66
 20
60.63
 10
541.06
 20
60.02
 10
540.27
 20
59.52
 10
539.37
 20
58.73
 10
538.47
 20
58.13
 10
537.57
 20
57.71
 10
536.67
 20
57.42
 10
534.87
 20
57.16
 10
533.07
 20
57.12
 10
32.67
 20
57.12
 10
30.88
 20
57.28
 97
0
 75
1
 76
1
 98
0
  0
LWPOLYLINE
  5
34
330
17
100
AcDbEntity
  8
FILL_BLUE_0000FF
370
0
420
255
100
AcDbPolyline
 90
51
 70
1
 10
30.88
 20
57.28
 10
29.15
 20
57.76
 10
27.52
 20
58.51
 10
26.07
 20
59.52
 10
24.84
 20
60.75
 10
23.9
 20
62.18
 10
23.29
 20
63.78
 10
23.13
 20
64.63
 10
23.07
 20
65.52
 10
23.07
 20
204.72
 10
23.09
 20
205.62
 10
23.22
 20
206.52
 10
23.58
 20
207.42
 10
24.27
 20
208.32
 10
24.48
 20
209.22
 10
25.02
 20
210.12
 10
26.67
 20
211.92
 10
26.72
 20
212.32
 10
26.88
 20
212.61
 10
27.42
 20
212.97
 10
28.19
 20
213.1
 10
29.07
 20
213.12
 10
29.97
 20
213.81
 10
30.87
 20
214.17
 10
31.77
 20
214.3
 10
32.67
 20
214.32
 10
533.07
 20
214.32
 10
534.87
 20
214.11
 10
536.67
 20
213.57
 10
538.47
 20
212.8
 10
540.27
 20
211.92
 10
541.06
 20
211.02
 10
541.66
 20
210.12
 10
542.08
 20
209.22
 10
542.37
 20
208.32
 10
542.63
 20
206.52
 10
542.67
 20
204.72
 10
542.67
 20
65.52
 10
542.63
 20
63.74
 10
542.37
 20
62.07
 10
542.08
 20
61.31
 10
541.66
 20
60.63
 10
541.06
 20
60.02
 10
540.27
 20
59.52
 10
539.37
 20
58.73
 10
538.47
 20
58.13
 10
537.57
 20
57.71
 10
536.67
 20
57.42
 10
534.87
 20
57.16
 10
533.07
 20
57.12
 10
32.67
 20
57.12
  0
HATCH
  5
35
330
17
100
AcDbEntity
  8
FILL_WHITE_FFFFFF
 62
7
420
16777215
100
AcDbHatch
 10
0.0
 20
0.0
 30
0.0
210
0.0
220
0.0
230
1.0
  2
SOLID
 70
1
 71
0
 91
1
 92
3
 72
0
 73
1
 93
9
 10
65.07
 20
190.32
 10
55.47
 20
190.32
 10
55.47
 20
160.32
 10
49.47
 20
160.32
 10
49.47
 20
190.32
 10
38.67
 20
190.32
 10
38.67
 20
196.32
 10
65.07
 20
196.32
 10
65.07
 20
190.32
 97
0
 75
1
 76
1
 98
0
  0
LWPOLYLINE
  5
36
330
17
100
AcDbEntity
  8
FILL_WHITE_FFFFFF
370
0
420
16777215
100
AcDbPolyline
 90
8
 70
1
 10
65.07
 20
190.32
 10
55.47
 20
190.32
 10
55.47
 20
160.32
 10
49.47
 20
160.32
 10
49.47
 20
190.32
 10
38.67
 20
190.32
 10
38.67
 20
196.32
 10
65.07
 20
196.32
  0
HATCH
  5
37
330
17
100
AcDbEntity
  8
FILL_WHITE_FFFFFF
 62
7
420
16777215
100
AcDbHatch
 10
0.0
 20
0.0
 30
0.0
210
0.0
220
0.0
230
1.0
  2
SOLID
 70
1
 71
0
 91
1
 92
3
 72
0
 73
1
 93
53
 10
78.27
 20
173.52
 10
78.27
 20
171.12
 10
78.46
 20
170.24
 10
78.87
 20
169.47
 10
79.47
 20
168.72
 10
79.97
 20
167.93
 10
80.58
 20
167.33
 10
81.26
 20
166.91
 10
82.02
 20
166.62
 10
83.69
 20
166.36
 10
85.47
 20
166.32
 10
87.25
 20
166.36
 10
88.92
 20
166.62
 10
89.68
 20
166.91
 10
90.36
 20
167.33
 10
90.97
 20
167.93
 10
91.47
 20
168.72
 10
92.07
 20
169.47
 10
92.48
 20
170.24
 10
92.67
 20
171.12
 10
92.67
 20
173.52
 10
92.67
 20
196.32
 10
99.87
 20
196.32
 10
99.87
 20
173.52
 10
99.18
 20
171.93
 10
98.82
 20
170.67
 10
98.69
 20
169.64
 10
98.67
 20
168.72
 10
97.77
 20
167.13
 10
96.87
 20
165.87
 10
95.07
 20
163.92
 10
95.07
 20
162.72
 10
93.06
 20
161.84
 10
90.72
 20
161.07
 10
88.15
 20
160.53
 10
85.47
 20
160.32
 10
82.79
 20
160.53
 10
80.22
 20
161.07
 10
77.88
 20
161.84
 10
75.87
 20
162.72
 10
75.87
 20
163.92
 10
74.99
 20
164.84
 10
74.22
 20
165.87
 10
73.68
 20
167.13
 10
73.52
 20
167.87
 10
73.47
 20
168.72
 10
72.78
 20
169.64
 10
72.42
 20
170.67
 10
72.29
 20
171.93
 10
72.27
 20
173.52
 10
72.27
 20
196.32
 10
78.27
 20
196.32
 10
78.27
 20
173.52
 97
0
 75
1
 76
1
 98
0
  0
LWPOLYLINE
  5
38
330
17
100
AcDbEntity
  8
FILL_WHITE_FFFFFF
370
0
420
16777215
100
AcDbPolyline
 90
52
 70
1
 10
78.27
 20
173.52
 10
78.27
 20
171.12
 10
78.46
 20
170.24
 10
78.87
 20
169.47
 10
79.47
 20
168.72
 10
79.97
 20
167.93
 10
80.58
 20
167.33
 10
81.26
 20
166.91
 10
82.02
 20
166.62
 10
83.69
 20
166.36
 10
85.47
 20
166.32
 10
87.25
 20
166.36
 10
88.92
 20
166.62
 10
89.68
 20
166.91
 10
90.36
 20
167.33
 10
90.97
 20
167.93
 10
91.47
 20
168.72
 10
92.07
 20
169.47
 10
92.48
 20
170.24
 10
92.67
 20
171.12
 10
92.67
 20
173.52
 10
92.67
 20
196.32
 10
99.87
 20
196.32
 10
99.87
 20
173.52
 10
99.18
 20
171.93
 10
98.82
 20
170.67
 10
98.69
 20
169.64
 10
98.67
 20
168.72
 10
97.77
 20
167.13
 10
96.87
 20
165.87
 10
95.07
 20
163.92
 10
95.07
 20
162.72
 10
93.06
 20
161.84
 10
90.72
 20
161.07
 10
88.15
 20
160.53
 10
85.47
 20
160.32
 10
82.79
 20
160.53
 10
80.22
 20
161.07
 10
77.88
 20
161.84
 10
75.87
 20
162.72
 10
75.87
 20
163.92
 10
74.99
 20
164.84
 10
74.22
 20
165.87
 10
73.68
 20
167.13
 10
73.52
 20
167.87
 10
73.47
 20
168.72
 10
72.78
 20
169.64
 10
72.42
 20
170.67
 10
72.29
 20
171.93
 10
72.27
 20
173.52
 10
72.27
 20
196.32
 10
78.27
 20
196.32
  0
HATCH
  5
39
330
17
100
AcDbEntity
  8
FILL_WHITE_FFFFFF
 62
7
420
16777215
100
AcDbHatch
 10
0.0
 20
0.0
 30
0.0
210
0.0
220
0.0
230
1.0
  2
SOLID
 70
1
 71
0
 91
1
 92
3
 72
0
 73
1
 93
11
 10
116.67
 20
186.72
 10
116.67
 20
160.32
 10
110.67
 20
160.32
 10
110.67
 20
196.32
 10
117.87
 20
196.32
 10
135.87
 20
169.92
 10
135.87
 20
196.32
 10
141.87
 20
196.32
 10
141.87
 20
160.32
 10
134.67
 20
160.32
 10
116.67
 20
186.72
 97
0
 75
1
 76
1
 98
0
  0
LWPOLYLINE
  5
3A
330
17
100
AcDbEntity
  8
FILL_WHITE_FFFFFF
370
0
420
16777215
100
AcDbPolyline
 90
10
 70
1
 10
116.67
 20
186.72
 10
116.67
 20
160.32
 10
110.67
 20
160.32
 10
110.67
 20
196.32
 10
117.87
 20
196.32
 10
135.87
 20
169.92
 10
135.87
 20
196.32
 10
141.87
 20
196.32
 10
141.87
 20
160.32
 10
134.67
 20
160.32
  0
HATCH
  5
3B
330
17
100
AcDbEntity
  8
FILL_WHITE_FFFFFF
 62
7
420
16777215
100
AcDbHatch
 10
0.0
 20
0.0
 30
0.0
210
0.0
220
0.0
230
1.0
  2
SOLID
 70
1
 71
0
 91
1
 92
3
 72
0
 73
1
 93
11
 10
159.87
 20
186.72
 10
159.87
 20
160.32
 10
153.87
 20
160.32
 10
153.87
 20
196.32
 10
161.07
 20
196.32
 10
177.87
 20
169.92
 10
177.87
 20
196.32
 10
183.87
 20
196.32
 10
183.87
 20
160.32
 10
176.67
 20
160.32
 10
159.87
 20
186.72
 97
0
 75
1
 76
1
 98
0
  0
LWPOLYLINE
  5
3C
330
17
100
AcDbEntity
  8
FILL_WHITE_FFFFFF
370
0
420
16777215
100
AcDbPolyline
 90
10
 70
1
 10
159.87
 20
186.72
 10
159.87
 20
160.32
 10
153.87
 20
160.32
 10
153.87
 20
196.32
 10
161.07
 20
196.32
 10
177.87
 20
169.92
 10
177.87
 20
196.32
 10
183.87
 20
196.32
 10
183.87
 20
160.32
 10
176.67
 20
160.32
  0
HATCH
  5
3D
330
17
100
AcDbEntity
  8
FILL_WHITE_FFFFFF
 62
7
420
16777215
100
AcDbHatch
 10
0.0
 20
0.0
 30
0.0
210
0.0
220
0.0
230
1.0
  2
SOLID
 70
1
 71
0
 91
1
 92
3
 72
0
 73
1
 93
13
 10
195.87
 20
196.32
 10
218.67
 20
196.32
 10
218.67
 20
190.32
 10
201.87
 20
190.32
 10
201.87
 20
181.92
 10
217.47
 20
181.92
 10
217.47
 20
175.92
 10
201.87
 20
175.92
 10
201.87
 20
166.32
 10
218.67
 20
166.32
 10
218.67
 20
160.32
 10
195.87
 20
160.32
 10
195.87
 20
196.32
 97
0
 75
1
 76
1
 98
0
  0
LWPOLYLINE
  5
3E
330
17
100
AcDbEntity
  8
FILL_WHITE_FFFFFF
370
0
420
16777215
100
AcDbPolyline
 90
12
 70
1
 10
195.87
 20
196.32
 10
218.67
 20
196.32
 10
218.67
 20
190.32
 10
201.87
 20
190.32
 10
201.87
 20
181.92
 10
217.47
 20
181.92
 10
217.47
 20
175.92
 10
201.87
 20
175.92
 10
201.87
 20
166.32
 10
218.67
 20
166.32
 10
218.67
 20
160.32
 10
195.87
 20
160.32
  0
HATCH
  5
3F
330
17
100
AcDbEntity
  8
FILL_WHITE_FFFFFF
 62
7
420
16777215
100
AcDbHatch
 10
0.0
 20
0.0
 30
0.0
210
0.0
220
0.0
230
1.0
  2
SOLID
 70
1
 71
0
 91
1
 92
3
 72
0
 73
1
 93
7
 10
229.47
 20
196.32
 10
235.47
 20
196.32
 10
235.47
 20
166.32
 10
249.87
 20
166.32
 10
249.87
 20
160.32
 10
229.47
 20
160.32
 10
229.47
 20
196.32
 97
0
 75
1
 76
1
 98
0
  0
LWPOLYLINE
  5
40
330
17
100
AcDbEntity
  8
FILL_WHITE_FFFFFF
370
0
420
16777215
100
AcDbPolyline
 90
6
 70
1
 10
229.47
 20
196.32
 10
235.47
 20
196.32
 10
235.47
 20
166.32
 10
249.87
 20
166.32
 10
249.87
 20
160.32
 10
229.47
 20
160.32
  0
HATCH
  5
41
330
17
100
AcDbEntity
  8
FILL_WHITE_FFFFFF
 62
7
420
16777215
100
AcDbHatch
 10
0.0
 20
0.0
 30
0.0
210
0.0
220
0.0
230
1.0
  2
SOLID
 70
1
 71
0
 91
2
 92
3
 72
0
 73
1
 93
9
 10
295.47
 20
160.32
 10
289.47
 20
160.32
 10
287.07
 20
167.52
 10
272.67
 20
167.52
 10
270.27
 20
160.32
 10
265.47
 20
160.32
 10
276.27
 20
196.32
 10
283.47
 20
196.32
 10
295.47
 20
160.32
 97
0
 92
18
 72
0
 73
1
 93
4
 10
273.87
 20
172.32
 10
285.87
 20
172.32
 10
279.87
 20
190.32
 10
273.87
 20
172.32
 97
0
 75
1
 76
1
 98
0
  0
LWPOLYLINE
  5
42
330
17
100
AcDbEntity
  8
FILL_WHITE_FFFFFF
370
0
420
16777215
100
AcDbPolyline
 90
8
 70
1
 10
295.47
 20
160.32
 10
289.47
 20
160.32
 10
287.07
 20
167.52
 10
272.67
 20
167.52
 10
270.27
 20
160.32
 10
265.47
 20
160.32
 10
276.27
 20
196.32
 10
283.47
 20
196.32
  0
LWPOLYLINE
  5
43
330
17
100
AcDbEntity
  8
FILL_WHITE_FFFFFF
370
0
420
16777215
100
AcDbPolyline
 90
3
 70
1
 10
273.87
 20
172.32
 10
285.87
 20
172.32
 10
279.87
 20
190.32
  0
HATCH
  5
44
330
17
100
AcDbEntity
  8
FILL_WHITE_FFFFFF
 62
7
420
16777215
100
AcDbHatch
 10
0.0
 20
0.0
 30
0.0
210
0.0
220
0.0
230
1.0
  2
SOLID
 70
1
 71
0
 91
2
 92
3
 72
0
 73
1
 93
29
 10
315.87
 20
174.72
 10
309.87
 20
174.72
 10
309.87
 20
160.32
 10
303.87
 20
160.32
 10
303.87
 20
196.32
 10
319.47
 20
196.32
 10
320.16
 20
196.26
 10
320.86
 20
196.1
 10
322.3
 20
195.49
 10
323.71
 20
194.55
 10
325.02
 20
193.32
 10
326.16
 20
191.87
 10
327.06
 20
190.24
 10
327.66
 20
188.51
 10
327.82
 20
187.62
 10
327.87
 20
186.72
 10
328.15
 20
184.88
 10
328.11
 20
182.99
 10
327.76
 20
181.13
 10
327.12
 20
179.37
 10
326.19
 20
177.78
 10
325.0
 20
176.43
 10
324.31
 20
175.86
 10
323.56
 20
175.38
 10
322.74
 20
175.0
 10
321.87
 20
174.72
 10
329.07
 20
160.32
 10
321.87
 20
160.32
 10
315.87
 20
174.72
 97
0
 92
18
 72
0
 73
1
 93
20
 10
318.31
 20
179.63
 10
319.34
 20
179.95
 10
320.17
 20
180.47
 10
320.82
 20
181.17
 10
321.3
 20
182.04
 10
321.63
 20
183.06
 10
321.81
 20
184.23
 10
321.87
 20
185.52
 10
321.85
 20
186.42
 10
321.72
 20
187.32
 10
321.36
 20
188.22
 10
320.67
 20
189.12
 10
319.77
 20
189.81
 10
318.87
 20
190.17
 10
317.97
 20
190.3
 10
317.07
 20
190.32
 10
309.87
 20
190.32
 10
309.87
 20
179.52
 10
317.07
 20
179.52
 10
318.31
 20
179.63
 97
0
 75
1
 76
1
 98
0
  0
LWPOLYLINE
  5
45
330
17
100
AcDbEntity
  8
FILL_WHITE_FFFFFF
370
0
420
16777215
100
AcDbPolyline
 90
28
 70
1
 10
315.87
 20
174.72
 10
309.87
 20
174.72
 10
309.87
 20
160.32
 10
303.87
 20
160.32
 10
303.87
 20
196.32
 10
319.47
 20
196.32
 10
320.16
 20
196.26
 10
320.86
 20
196.1
 10
322.3
 20
195.49
 10
323.71
 20
194.55
 10
325.02
 20
193.32
 10
326.16
 20
191.87
 10
327.06
 20
190.24
 10
327.66
 20
188.51
 10
327.82
 20
187.62
 10
327.87
 20
186.72
 10
328.15
 20
184.88
 10
328.11
 20
182.99
 10
327.76
 20
181.13
 10
327.12
 20
179.37
 10
326.19
 20
177.78
 10
325.0
 20
176.43
 10
324.31
 20
175.86
 10
323.56
 20
175.38
 10
322.74
 20
175.0
 10
321.87
 20
174.72
 10
329.07
 20
160.32
 10
321.87
 20
160.32
  0
LWPOLYLINE
  5
46
330
17
100
AcDbEntity
  8
FILL_WHITE_FFFFFF
370
0
420
16777215
100
AcDbPolyline
 90
19
 70
1
 10
318.31
 20
179.63
 10
319.34
 20
179.95
 10
320.17
 20
180.47
 10
320.82
 20
181.17
 10
321.3
 20
182.04
 10
321.63
 20
183.06
 10
321.81
 20
184.23
 10
321.87
 20
185.52
 10
321.85
 20
186.42
 10
321.72
 20
187.32
 10
321.36
 20
188.22
 10
320.67
 20
189.12
 10
319.77
 20
189.81
 10
318.87
 20
190.17
 10
317.97
 20
190.3
 10
317.07
 20
190.32
 10
309.87
 20
190.32
 10
309.87
 20
179.52
 10
317.07
 20
179.52
  0
HATCH
  5
47
330
17
100
AcDbEntity
  8
FILL_WHITE_FFFFFF
 62
7
420
16777215
100
AcDbHatch
 10
0.0
 20
0.0
 30
0.0
210
0.0
220
0.0
230
1.0
  2
SOLID
 70
1
 71
0
 91
1
 92
3
 72
0
 73
1
 93
13
 10
338.67
 20
196.32
 10
361.47
 20
196.32
 10
361.47
 20
190.32
 10
344.67
 20
190.32
 10
344.67
 20
181.92
 10
360.27
 20
181.92
 10
360.27
 20
175.92
 10
344.67
 20
175.92
 10
344.67
 20
166.32
 10
362.67
 20
166.32
 10
362.67
 20
160.32
 10
338.67
 20
160.32
 10
338.67
 20
196.32
 97
0
 75
1
 76
1
 98
0
  0
LWPOLYLINE
  5
48
330
17
100
AcDbEntity
  8
FILL_WHITE_FFFFFF
370
0
420
16777215
100
AcDbPolyline
 90
12
 70
1
 10
338.67
 20
196.32
 10
361.47
 20
196.32
 10
361.47
 20
190.32
 10
344.67
 20
190.32
 10
344.67
 20
181.92
 10
360.27
 20
181.92
 10
360.27
 20
175.92
 10
344.67
 20
175.92
 10
344.67
 20
166.32
 10
362.67
 20
166.32
 10
362.67
 20
160.32
 10
338.67
 20
160.32
  0
HATCH
  5
49
330
17
100
AcDbEntity
  8
FILL_WHITE_FFFFFF
 62
7
420
16777215
100
AcDbHatch
 10
0.0
 20
0.0
 30
0.0
210
0.0
220
0.0
230
1.0
  2
SOLID
 70
1
 71
0
 91
2
 92
3
 72
0
 73
1
 93
9
 10
398.67
 20
160.32
 10
392.67
 20
160.32
 10
391.47
 20
167.52
 10
375.87
 20
167.52
 10
373.47
 20
160.32
 10
368.67
 20
160.32
 10
379.47
 20
196.32
 10
386.67
 20
196.32
 10
398.67
 20
160.32
 97
0
 92
18
 72
0
 73
1
 93
4
 10
377.07
 20
172.32
 10
389.07
 20
172.32
 10
383.07
 20
190.32
 10
377.07
 20
172.32
 97
0
 75
1
 76
1
 98
0
  0
LWPOLYLINE
  5
4A
330
17
100
AcDbEntity
  8
FILL_WHITE_FFFFFF
370
0
420
16777215
100
AcDbPolyline
 90
8
 70
1
 10
398.67
 20
160.32
 10
392.67
 20
160.32
 10
391.47
 20
167.52
 10
375.87
 20
167.52
 10
373.47
 20
160.32
 10
368.67
 20
160.32
 10
379.47
 20
196.32
 10
386.67
 20
196.32
  0
LWPOLYLINE
  5
4B
330
17
100
AcDbEntity
  8
FILL_WHITE_FFFFFF
370
0
420
16777215
100
AcDbPolyline
 90
3
 70
1
 10
377.07
 20
172.32
 10
389.07
 20
172.32
 10
383.07
 20
190.32
  0
HATCH
  5
4C
330
17
100
AcDbEntity
  8
FILL_WHITE_FFFFFF
 62
7
420
16777215
100
AcDbHatch
 10
0.0
 20
0.0
 30
0.0
210
0.0
220
0.0
230
1.0
  2
SOLID
 70
1
 71
0
 91
1
 92
3
 72
0
 73
1
 93
11
 10
458.67
 20
186.72
 10
458.67
 20
160.32
 10
452.67
 20
160.32
 10
452.67
 20
196.32
 10
459.87
 20
196.32
 10
476.67
 20
169.92
 10
476.67
 20
196.32
 10
482.67
 20
196.32
 10
482.67
 20
160.32
 10
475.47
 20
160.32
 10
458.67
 20
186.72
 97
0
 75
1
 76
1
 98
0
  0
LWPOLYLINE
  5
4D
330
17
100
AcDbEntity
  8
FILL_WHITE_FFFFFF
370
0
420
16777215
100
AcDbPolyline
 90
10
 70
1
 10
458.67
 20
186.72
 10
458.67
 20
160.32
 10
452.67
 20
160.32
 10
452.67
 20
196.32
 10
459.87
 20
196.32
 10
476.67
 20
169.92
 10
476.67
 20
196.32
 10
482.67
 20
196.32
 10
482.67
 20
160.32
 10
475.47
 20
160.32
  0
HATCH
  5
4E
330
17
100
AcDbEntity
  8
FILL_WHITE_FFFFFF
 62
7
420
16777215
100
AcDbHatch
 10
0.0
 20
0.0
 30
0.0
210
0.0
220
0.0
230
1.0
  2
SOLID
 70
1
 71
0
 91
2
 92
3
 72
0
 73
1
 93
34
 10
511.77
 20
195.89
 10
513.12
 20
195.37
 10
514.47
 20
194.67
 10
515.82
 20
193.8
 10
517.17
 20
192.78
 10
519.87
 20
190.32
 10
520.71
 20
188.97
 10
521.45
 20
187.6
 10
522.06
 20
186.21
 10
522.57
 20
184.77
 10
522.96
 20
183.28
 10
523.25
 20
181.71
 10
523.41
 20
180.07
 10
523.47
 20
178.32
 10
523.41
 20
176.57
 10
523.25
 20
174.93
 10
522.96
 20
173.36
 10
522.57
 20
171.87
 10
522.06
 20
170.43
 10
521.45
 20
169.04
 10
520.71
 20
167.67
 10
519.87
 20
166.32
 10
517.17
 20
163.86
 10
515.82
 20
162.84
 10
514.47
 20
161.97
 10
513.12
 20
161.27
 10
511.77
 20
160.75
 10
510.42
 20
160.43
 10
509.07
 20
160.32
 10
494.67
 20
160.32
 10
494.67
 20
196.32
 10
509.07
 20
196.32
 10
510.42
 20
196.21
 10
511.77
 20
195.89
 97
0
 92
18
 72
0
 73
1
 93
22
 10
500.67
 20
166.32
 10
509.07
 20
166.32
 10
511.47
 20
166.32
 10
515.07
 20
169.92
 10
515.86
 20
170.87
 10
516.46
 20
171.91
 10
516.88
 20
173.0
 10
517.17
 20
174.12
 10
517.43
 20
176.33
 10
517.47
 20
178.32
 10
517.43
 20
180.81
 10
517.17
 20
182.97
 10
516.88
 20
183.96
 10
516.46
 20
184.9
 10
515.86
 20
185.82
 10
515.07
 20
186.72
 10
513.29
 20
188.29
 10
511.62
 20
189.42
 10
510.18
 20
190.09
 10
509.07
 20
190.32
 10
500.67
 20
190.32
 10
500.67
 20
166.32
 97
0
 75
1
 76
1
 98
0
  0
LWPOLYLINE
  5
4F
330
17
100
AcDbEntity
  8
FILL_WHITE_FFFFFF
370
0
420
16777215
100
AcDbPolyline
 90
33
 70
1
 10
511.77
 20
195.89
 10
513.12
 20
195.37
 10
514.47
 20
194.67
 10
515.82
 20
193.8
 10
517.17
 20
192.78
 10
519.87
 20
190.32
 10
520.71
 20
188.97
 10
521.45
 20
187.6
 10
522.06
 20
186.21
 10
522.57
 20
184.77
 10
522.96
 20
183.28
 10
523.25
 20
181.71
 10
523.41
 20
180.07
 10
523.47
 20
178.32
 10
523.41
 20
176.57
 10
523.25
 20
174.93
 10
522.96
 20
173.36
 10
522.57
 20
171.87
 10
522.06
 20
170.43
 10
521.45
 20
169.04
 10
520.71
 20
167.67
 10
519.87
 20
166.32
 10
517.17
 20
163.86
 10
515.82
 20
162.84
 10
514.47
 20
161.97
 10
513.12
 20
161.27
 10
511.77
 20
160.75
 10
510.42
 20
160.43
 10
509.07
 20
160.32
 10
494.67
 20
160.32
 10
494.67
 20
196.32
 10
509.07
 20
196.32
 10
510.42
 20
196.21
  0
LWPOLYLINE
  5
50
330
17
100
AcDbEntity
  8
FILL_WHITE_FFFFFF
370
0
420
16777215
100
AcDbPolyline
 90
21
 70
1
 10
500.67
 20
166.32
 10
509.07
 20
166.32
 10
511.47
 20
166.32
 10
515.07
 20
169.92
 10
515.86
 20
170.87
 10
516.46
 20
171.91
 10
516.88
 20
173.0
 10
517.17
 20
174.12
 10
517.43
 20
176.33
 10
517.47
 20
178.32
 10
517.43
 20
180.81
 10
517.17
 20
182.97
 10
516.88
 20
183.96
 10
516.46
 20
184.9
 10
515.86
 20
185.82
 10
515.07
 20
186.72
 10
513.29
 20
188.29
 10
511.62
 20
189.42
 10
510.18
 20
190.09
 10
509.07
 20
190.32
 10
500.67
 20
190.32
  0
HATCH
  5
51
330
17
100
AcDbEntity
  8
FILL_WHITE_FFFFFF
 62
7
420
16777215
100
AcDbHatch
 10
0.0
 20
0.0
 30
0.0
210
0.0
220
0.0
230
1.0
  2
SOLID
 70
1
 71
0
 91
1
 92
3
 72
0
 73
1
 93
13
 10
419.07
 20
196.32
 10
441.87
 20
196.32
 10
441.87
 20
190.32
 10
425.07
 20
190.32
 10
425.07
 20
181.92
 10
440.67
 20
181.92
 10
440.67
 20
175.92
 10
425.07
 20
175.92
 10
425.07
 20
166.32
 10
443.07
 20
166.32
 10
443.07
 20
160.32
 10
419.07
 20
160.32
 10
419.07
 20
196.32
 97
0
 75
1
 76
1
 98
0
  0
LWPOLYLINE
  5
52
330
17
100
AcDbEntity
  8
FILL_WHITE_FFFFFF
370
0
420
16777215
100
AcDbPolyline
 90
12
 70
1
 10
419.07
 20
196.32
 10
441.87
 20
196.32
 10
441.87
 20
190.32
 10
425.07
 20
190.32
 10
425.07
 20
181.92
 10
440.67
 20
181.92
 10
440.67
 20
175.92
 10
425.07
 20
175.92
 10
425.07
 20
166.32
 10
443.07
 20
166.32
 10
443.07
 20
160.32
 10
419.07
 20
160.32
  0
HATCH
  5
53
330
17
100
AcDbEntity
  8
FILL_WHITE_FFFFFF
 62
7
420
16777215
100
AcDbHatch
 10
0.0
 20
0.0
 30
0.0
210
0.0
220
0.0
230
1.0
  2
SOLID
 70
1
 71
0
 91
3
 92
3
 72
0
 73
1
 93
45
 10
96.27
 20
131.52
 10
96.27
 20
132.72
 10
101.07
 20
129.12
 10
95.07
 20
113.52
 10
99.87
 20
106.32
 10
99.87
 20
109.92
 10
108.27
 20
109.92
 10
108.27
 20
94.32
 10
108.27
 20
91.92
 10
108.27
 20
90.72
 10
109.47
 20
88.32
 10
110.67
 20
87.12
 10
111.87
 20
87.12
 10
113.07
 20
85.92
 10
115.47
 20
85.92
 10
117.87
 20
85.92
 10
137.07
 20
85.92
 10
134.67
 20
81.12
 10
120.27
 20
81.12
 10
113.07
 20
81.12
 10
109.47
 20
83.52
 10
105.87
 20
84.72
 10
104.67
 20
88.32
 10
98.67
 20
83.52
 10
98.67
 20
82.32
 10
97.47
 20
81.12
 10
96.27
 20
82.32
 10
96.27
 20
83.52
 10
93.87
 20
85.92
 10
103.47
 20
91.92
 10
103.47
 20
105.12
 10
99.87
 20
105.12
 10
99.87
 20
102.72
 10
99.87
 20
100.32
 10
99.87
 20
97.92
 10
98.67
 20
96.72
 10
97.47
 20
94.32
 10
96.27
 20
93.12
 10
93.87
 20
91.92
 10
91.47
 20
91.92
 10
90.27
 20
95.52
 10
90.27
 20
81.12
 10
85.47
 20
81.12
 10
85.47
 20
131.52
 10
96.27
 20
131.52
 97
0
 92
18
 72
0
 73
1
 93
10
 10
92.67
 20
96.72
 10
93.87
 20
97.92
 10
95.07
 20
99.12
 10
95.07
 20
101.52
 10
95.07
 20
105.12
 10
93.87
 20
107.52
 10
92.67
 20
111.12
 10
90.27
 20
113.52
 10
90.27
 20
96.72
 10
92.67
 20
96.72
 97
0
 92
18
 72
0
 73
1
 93
4
 10
95.07
 20
127.92
 10
90.27
 20
127.92
 10
90.27
 20
113.52
 10
95.07
 20
127.92
 97
0
 75
1
 76
1
 98
0
  0
LWPOLYLINE
  5
54
330
17
100
AcDbEntity
  8
FILL_WHITE_FFFFFF
370
0
420
16777215
100
AcDbPolyline
 90
44
 70
1
 10
96.27
 20
131.52
 10
96.27
 20
132.72
 10
101.07
 20
129.12
 10
95.07
 20
113.52
 10
99.87
 20
106.32
 10
99.87
 20
109.92
 10
108.27
 20
109.92
 10
108.27
 20
94.32
 10
108.27
 20
91.92
 10
108.27
 20
90.72
 10
109.47
 20
88.32
 10
110.67
 20
87.12
 10
111.87
 20
87.12
 10
113.07
 20
85.92
 10
115.47
 20
85.92
 10
117.87
 20
85.92
 10
137.07
 20
85.92
 10
134.67
 20
81.12
 10
120.27
 20
81.12
 10
113.07
 20
81.12
 10
109.47
 20
83.52
 10
105.87
 20
84.72
 10
104.67
 20
88.32
 10
98.67
 20
83.52
 10
98.67
 20
82.32
 10
97.47
 20
81.12
 10
96.27
 20
82.32
 10
96.27
 20
83.52
 10
93.87
 20
85.92
 10
103.47
 20
91.92
 10
103.47
 20
105.12
 10
99.87
 20
105.12
 10
99.87
 20
102.72
 10
99.87
 20
100.32
 10
99.87
 20
97.92
 10
98.67
 20
96.72
 10
97.47
 20
94.32
 10
96.27
 20
93.12
 10
93.87
 20
91.92
 10
91.47
 20
91.92
 10
90.27
 20
95.52
 10
90.27
 20
81.12
 10
85.47
 20
81.12
 10
85.47
 20
131.52
  0
LWPOLYLINE
  5
55
330
17
100
AcDbEntity
  8
FILL_WHITE_FFFFFF
370
0
420
16777215
100
AcDbPolyline
 90
9
 70
1
 10
92.67
 20
96.72
 10
93.87
 20
97.92
 10
95.07
 20
99.12
 10
95.07
 20
101.52
 10
95.07
 20
105.12
 10
93.87
 20
107.52
 10
92.67
 20
111.12
 10
90.27
 20
113.52
 10
90.27
 20
96.72
  0
LWPOLYLINE
  5
56
330
17
100
AcDbEntity
  8
FILL_WHITE_FFFFFF
370
0
420
16777215
100
AcDbPolyline
 90
3
 70
1
 10
95.07
 20
127.92
 10
90.27
 20
127.92
 10
90.27
 20
113.52
  0
HATCH
  5
57
330
17
100
AcDbEntity
  8
FILL_WHITE_FFFFFF
 62
7
420
16777215
100
AcDbHatch
 10
0.0
 20
0.0
 30
0.0
210
0.0
220
0.0
230
1.0
  2
SOLID
 70
1
 71
0
 91
1
 92
3
 72
0
 73
1
 93
6
 10
104.67
 20
126.72
 10
101.07
 20
127.92
 10
104.67
 20
131.52
 10
110.67
 20
126.72
 10
107.07
 20
124.32
 10
104.67
 20
126.72
 97
0
 75
1
 76
1
 98
0
  0
LWPOLYLINE
  5
58
330
17
100
AcDbEntity
  8
FILL_WHITE_FFFFFF
370
0
420
16777215
100
AcDbPolyline
 90
5
 70
1
 10
104.67
 20
126.72
 10
101.07
 20
127.92
 10
104.67
 20
131.52
 10
110.67
 20
126.72
 10
107.07
 20
124.32
  0
HATCH
  5
59
330
17
100
AcDbEntity
  8
FILL_WHITE_FFFFFF
 62
7
420
16777215
100
AcDbHatch
 10
0.0
 20
0.0
 30
0.0
210
0.0
220
0.0
230
1.0
  2
SOLID
 70
1
 71
0
 91
1
 92
3
 72
0
 73
1
 93
71
 10
110.67
 20
125.52
 10
113.07
 20
129.12
 10
116.67
 20
127.92
 10
117.87
 20
127.92
 10
117.87
 20
126.72
 10
116.67
 20
126.72
 10
114.27
 20
123.12
 10
128.67
 20
123.12
 10
127.47
 20
125.52
 10
126.27
 20
127.92
 10
119.07
 20
127.92
 10
119.07
 20
131.52
 10
128.67
 20
131.52
 10
129.87
 20
129.12
 10
132.27
 20
126.72
 10
134.67
 20
124.32
 10
138.27
 20
121.92
 10
134.67
 20
119.52
 10
129.87
 20
121.92
 10
129.87
 20
119.52
 10
123.87
 20
119.52
 10
121.47
 20
117.12
 10
125.07
 20
111.12
 10
132.27
 20
115.92
 10
134.67
 20
113.52
 10
135.87
 20
112.32
 10
135.87
 20
111.12
 10
134.67
 20
111.12
 10
133.47
 20
111.12
 10
127.47
 20
107.52
 10
128.67
 20
103.92
 10
131.07
 20
100.32
 10
134.67
 20
96.72
 10
138.27
 20
94.32
 10
133.47
 20
90.72
 10
129.87
 20
94.32
 10
127.47
 20
99.12
 10
126.27
 20
94.32
 10
125.07
 20
90.72
 10
121.47
 20
88.32
 10
117.87
 20
88.32
 10
116.67
 20
93.12
 10
119.07
 20
93.12
 10
121.47
 20
94.32
 10
122.67
 20
95.52
 10
122.67
 20
99.12
 10
117.87
 20
94.32
 10
111.87
 20
91.92
 10
109.47
 20
95.52
 10
113.07
 20
96.72
 10
116.67
 20
99.12
 10
120.27
 20
101.52
 10
122.67
 20
105.12
 10
121.47
 20
107.52
 10
116.67
 20
103.92
 10
111.87
 20
100.32
 10
108.27
 20
103.92
 10
114.27
 20
107.52
 10
120.27
 20
111.12
 10
119.07
 20
113.52
 10
111.87
 20
108.72
 10
108.27
 20
112.32
 10
111.87
 20
113.52
 10
114.27
 20
115.92
 10
116.67
 20
117.12
 10
119.07
 20
119.52
 10
113.07
 20
119.52
 10
113.07
 20
121.92
 10
109.47
 20
118.32
 10
105.87
 20
121.92
 10
110.67
 20
125.52
 97
0
 75
1
 76
1
 98
0
  0
LWPOLYLINE
  5
5A
330
17
100
AcDbEntity
  8
FILL_WHITE_FFFFFF
370
0
420
16777215
100
AcDbPolyline
 90
70
 70
1
 10
110.67
 20
125.52
 10
113.07
 20
129.12
 10
116.67
 20
127.92
 10
117.87
 20
127.92
 10
117.87
 20
126.72
 10
116.67
 20
126.72
 10
114.27
 20
123.12
 10
128.67
 20
123.12
 10
127.47
 20
125.52
 10
126.27
 20
127.92
 10
119.07
 20
127.92
 10
119.07
 20
131.52
 10
128.67
 20
131.52
 10
129.87
 20
129.12
 10
132.27
 20
126.72
 10
134.67
 20
124.32
 10
138.27
 20
121.92
 10
134.67
 20
119.52
 10
129.87
 20
121.92
 10
129.87
 20
119.52
 10
123.87
 20
119.52
 10
121.47
 20
117.12
 10
125.07
 20
111.12
 10
132.27
 20
115.92
 10
134.67
 20
113.52
 10
135.87
 20
112.32
 10
135.87
 20
111.12
 10
134.67
 20
111.12
 10
133.47
 20
111.12
 10
127.47
 20
107.52
 10
128.67
 20
103.92
 10
131.07
 20
100.32
 10
134.67
 20
96.72
 10
138.27
 20
94.32
 10
133.47
 20
90.72
 10
129.87
 20
94.32
 10
127.47
 20
99.12
 10
126.27
 20
94.32
 10
125.07
 20
90.72
 10
121.47
 20
88.32
 10
117.87
 20
88.32
 10
116.67
 20
93.12
 10
119.07
 20
93.12
 10
121.47
 20
94.32
 10
122.67
 20
95.52
 10
122.67
 20
99.12
 10
117.87
 20
94.32
 10
111.87
 20
91.92
 10
109.47
 20
95.52
 10
113.07
 20
96.72
 10
116.67
 20
99.12
 10
120.27
 20
101.52
 10
122.67
 20
105.12
 10
121.47
 20
107.52
 10
116.67
 20
103.92
 10
111.87
 20
100.32
 10
108.27
 20
103.92
 10
114.27
 20
107.52
 10
120.27
 20
111.12
 10
119.07
 20
113.52
 10
111.87
 20
108.72
 10
108.27
 20
112.32
 10
111.87
 20
113.52
 10
114.27
 20
115.92
 10
116.67
 20
117.12
 10
119.07
 20
119.52
 10
113.07
 20
119.52
 10
113.07
 20
121.92
 10
109.47
 20
118.32
 10
105.87
 20
121.92
  0
HATCH
  5
5B
330
17
100
AcDbEntity
  8
FILL_WHITE_FFFFFF
 62
7
420
16777215
100
AcDbHatch
 10
0.0
 20
0.0
 30
0.0
210
0.0
220
0.0
230
1.0
  2
SOLID
 70
1
 71
0
 91
1
 92
3
 72
0
 73
1
 93
6
 10
98.67
 20
118.32
 10
102.27
 20
120.72
 10
104.67
 20
118.32
 10
108.27
 20
115.92
 10
104.67
 20
112.32
 10
98.67
 20
118.32
 97
0
 75
1
 76
1
 98
0
  0
LWPOLYLINE
  5
5C
330
17
100
AcDbEntity
  8
FILL_WHITE_FFFFFF
370
0
420
16777215
100
AcDbPolyline
 90
5
 70
1
 10
98.67
 20
118.32
 10
102.27
 20
120.72
 10
104.67
 20
118.32
 10
108.27
 20
115.92
 10
104.67
 20
112.32
  0
HATCH
  5
5D
330
17
100
AcDbEntity
  8
FILL_WHITE_FFFFFF
 62
7
420
16777215
100
AcDbHatch
 10
0.0
 20
0.0
 30
0.0
210
0.0
220
0.0
230
1.0
  2
SOLID
 70
1
 71
0
 91
1
 92
3
 72
0
 73
1
 93
7
 10
163.47
 20
130.32
 10
165.87
 20
127.92
 10
162.27
 20
124.32
 10
159.87
 20
126.72
 10
156.27
 20
129.12
 10
159.87
 20
132.72
 10
163.47
 20
130.32
 97
0
 75
1
 76
1
 98
0
  0
LWPOLYLINE
  5
5E
330
17
100
AcDbEntity
  8
FILL_WHITE_FFFFFF
370
0
420
16777215
100
AcDbPolyline
 90
6
 70
1
 10
163.47
 20
130.32
 10
165.87
 20
127.92
 10
162.27
 20
124.32
 10
159.87
 20
126.72
 10
156.27
 20
129.12
 10
159.87
 20
132.72
  0
HATCH
  5
5F
330
17
100
AcDbEntity
  8
FILL_WHITE_FFFFFF
 62
7
420
16777215
100
AcDbHatch
 10
0.0
 20
0.0
 30
0.0
210
0.0
220
0.0
230
1.0
  2
SOLID
 70
1
 71
0
 91
1
 92
3
 72
0
 73
1
 93
5
 10
164.67
 20
117.12
 10
161.07
 20
113.52
 10
152.67
 20
118.32
 10
156.27
 20
121.92
 10
164.67
 20
117.12
 97
0
 75
1
 76
1
 98
0
  0
LWPOLYLINE
  5
60
330
17
100
AcDbEntity
  8
FILL_WHITE_FFFFFF
370
0
420
16777215
100
AcDbPolyline
 90
4
 70
1
 10
164.67
 20
117.12
 10
161.07
 20
113.52
 10
152.67
 20
118.32
 10
156.27
 20
121.92
  0
HATCH
  5
61
330
17
100
AcDbEntity
  8
FILL_WHITE_FFFFFF
 62
7
420
16777215
100
AcDbHatch
 10
0.0
 20
0.0
 30
0.0
210
0.0
220
0.0
230
1.0
  2
SOLID
 70
1
 71
0
 91
1
 92
3
 72
0
 73
1
 93
20
 10
165.87
 20
108.72
 10
165.87
 20
93.12
 10
167.07
 20
89.52
 10
170.67
 20
87.12
 10
175.47
 20
85.92
 10
182.67
 20
85.92
 10
206.67
 20
85.92
 10
205.47
 20
81.12
 10
180.27
 20
81.12
 10
173.07
 20
82.32
 10
168.27
 20
83.52
 10
164.67
 20
85.92
 10
162.27
 20
88.32
 10
156.27
 20
81.12
 10
152.67
 20
85.92
 10
161.07
 20
91.92
 10
161.07
 20
103.92
 10
153.87
 20
103.92
 10
153.87
 20
108.72
 10
165.87
 20
108.72
 97
0
 75
1
 76
1
 98
0
  0
LWPOLYLINE
  5
62
330
17
100
AcDbEntity
  8
FILL_WHITE_FFFFFF
370
0
420
16777215
100
AcDbPolyline
 90
19
 70
1
 10
165.87
 20
108.72
 10
165.87
 20
93.12
 10
167.07
 20
89.52
 10
170.67
 20
87.12
 10
175.47
 20
85.92
 10
182.67
 20
85.92
 10
206.67
 20
85.92
 10
205.47
 20
81.12
 10
180.27
 20
81.12
 10
173.07
 20
82.32
 10
168.27
 20
83.52
 10
164.67
 20
85.92
 10
162.27
 20
88.32
 10
156.27
 20
81.12
 10
152.67
 20
85.92
 10
161.07
 20
91.92
 10
161.07
 20
103.92
 10
153.87
 20
103.92
 10
153.87
 20
108.72
  0
HATCH
  5
63
330
17
100
AcDbEntity
  8
FILL_WHITE_FFFFFF
 62
7
420
16777215
100
AcDbHatch
 10
0.0
 20
0.0
 30
0.0
210
0.0
220
0.0
230
1.0
  2
SOLID
 70
1
 71
0
 91
4
 92
3
 72
0
 73
1
 93
25
 10
204.27
 20
125.52
 10
204.27
 20
120.72
 10
188.67
 20
120.72
 10
187.47
 20
117.12
 10
200.67
 20
117.12
 10
200.67
 20
88.32
 10
194.67
 20
88.32
 10
194.67
 20
90.72
 10
177.87
 20
90.72
 10
177.87
 20
88.32
 10
173.07
 20
88.32
 10
173.07
 20
117.12
 10
181.47
 20
117.12
 10
183.87
 20
120.72
 10
169.47
 20
120.72
 10
169.47
 20
125.52
 10
179.07
 20
125.52
 10
174.27
 20
130.32
 10
177.87
 20
132.72
 10
183.87
 20
125.52
 10
188.67
 20
125.52
 10
194.67
 20
133.92
 10
199.47
 20
132.72
 10
194.67
 20
125.52
 10
204.27
 20
125.52
 97
0
 92
18
 72
0
 73
1
 93
5
 10
177.87
 20
94.32
 10
194.67
 20
94.32
 10
194.67
 20
97.92
 10
177.87
 20
97.92
 10
177.87
 20
94.32
 97
0
 92
18
 72
0
 73
1
 93
5
 10
177.87
 20
103.92
 10
177.87
 20
101.52
 10
194.67
 20
101.52
 10
194.67
 20
103.92
 10
177.87
 20
103.92
 97
0
 92
18
 72
0
 73
1
 93
5
 10
194.67
 20
112.32
 10
177.87
 20
112.32
 10
177.87
 20
108.72
 10
194.67
 20
108.72
 10
194.67
 20
112.32
 97
0
 75
1
 76
1
 98
0
  0
LWPOLYLINE
  5
64
330
17
100
AcDbEntity
  8
FILL_WHITE_FFFFFF
370
0
420
16777215
100
AcDbPolyline
 90
24
 70
1
 10
204.27
 20
125.52
 10
204.27
 20
120.72
 10
188.67
 20
120.72
 10
187.47
 20
117.12
 10
200.67
 20
117.12
 10
200.67
 20
88.32
 10
194.67
 20
88.32
 10
194.67
 20
90.72
 10
177.87
 20
90.72
 10
177.87
 20
88.32
 10
173.07
 20
88.32
 10
173.07
 20
117.12
 10
181.47
 20
117.12
 10
183.87
 20
120.72
 10
169.47
 20
120.72
 10
169.47
 20
125.52
 10
179.07
 20
125.52
 10
174.27
 20
130.32
 10
177.87
 20
132.72
 10
183.87
 20
125.52
 10
188.67
 20
125.52
 10
194.67
 20
133.92
 10
199.47
 20
132.72
 10
194.67
 20
125.52
  0
LWPOLYLINE
  5
65
330
17
100
AcDbEntity
  8
FILL_WHITE_FFFFFF
370
0
420
16777215
100
AcDbPolyline
 90
4
 70
1
 10
177.87
 20
94.32
 10
194.67
 20
94.32
 10
194.67
 20
97.92
 10
177.87
 20
97.92
  0
LWPOLYLINE
  5
66
330
17
100
AcDbEntity
  8
FILL_WHITE_FFFFFF
370
0
420
16777215
100
AcDbPolyline
 90
4
 70
1
 10
177.87
 20
103.92
 10
177.87
 20
101.52
 10
194.67
 20
101.52
 10
194.67
 20
103.92
  0
LWPOLYLINE
  5
67
330
17
100
AcDbEntity
  8
FILL_WHITE_FFFFFF
370
0
420
16777215
100
AcDbPolyline
 90
4
 70
1
 10
194.67
 20
112.32
 10
177.87
 20
112.32
 10
177.87
 20
108.72
 10
194.67
 20
108.72
  0
HATCH
  5
68
330
17
100
AcDbEntity
  8
FILL_WHITE_FFFFFF
 62
7
420
16777215
100
AcDbHatch
 10
0.0
 20
0.0
 30
0.0
210
0.0
220
0.0
230
1.0
  2
SOLID
 70
1
 71
0
 91
1
 92
3
 72
0
 73
1
 93
11
 10
275.07
 20
130.32
 10
275.07
 20
126.72
 10
231.87
 20
126.72
 10
231.87
 20
87.12
 10
275.07
 20
87.12
 10
275.07
 20
83.52
 10
231.87
 20
83.52
 10
231.87
 20
81.12
 10
227.07
 20
81.12
 10
227.07
 20
130.32
 10
275.07
 20
130.32
 97
0
 75
1
 76
1
 98
0
  0
LWPOLYLINE
  5
69
330
17
100
AcDbEntity
  8
FILL_WHITE_FFFFFF
370
0
420
16777215
100
AcDbPolyline
 90
10
 70
1
 10
275.07
 20
130.32
 10
275.07
 20
126.72
 10
231.87
 20
126.72
 10
231.87
 20
87.12
 10
275.07
 20
87.12
 10
275.07
 20
83.52
 10
231.87
 20
83.52
 10
231.87
 20
81.12
 10
227.07
 20
81.12
 10
227.07
 20
130.32
  0
HATCH
  5
6A
330
17
100
AcDbEntity
  8
FILL_WHITE_FFFFFF
 62
7
420
16777215
100
AcDbHatch
 10
0.0
 20
0.0
 30
0.0
210
0.0
220
0.0
230
1.0
  2
SOLID
 70
1
 71
0
 91
2
 92
3
 72
0
 73
1
 93
5
 10
264.27
 20
109.92
 10
240.27
 20
109.92
 10
240.27
 20
123.12
 10
264.27
 20
123.12
 10
264.27
 20
109.92
 97
0
 92
18
 72
0
 73
1
 93
5
 10
259.47
 20
118.32
 10
245.07
 20
118.32
 10
245.07
 20
113.52
 10
259.47
 20
113.52
 10
259.47
 20
118.32
 97
0
 75
1
 76
1
 98
0
  0
LWPOLYLINE
  5
6B
330
17
100
AcDbEntity
  8
FILL_WHITE_FFFFFF
370
0
420
16777215
100
AcDbPolyline
 90
4
 70
1
 10
264.27
 20
109.92
 10
240.27
 20
109.92
 10
240.27
 20
123.12
 10
264.27
 20
123.12
  0
LWPOLYLINE
  5
6C
330
17
100
AcDbEntity
  8
FILL_WHITE_FFFFFF
370
0
420
16777215
100
AcDbPolyline
 90
4
 70
1
 10
259.47
 20
118.32
 10
245.07
 20
118.32
 10
245.07
 20
113.52
 10
259.47
 20
113.52
  0
HATCH
  5
6D
330
17
100
AcDbEntity
  8
FILL_WHITE_FFFFFF
 62
7
420
16777215
100
AcDbHatch
 10
0.0
 20
0.0
 30
0.0
210
0.0
220
0.0
230
1.0
  2
SOLID
 70
1
 71
0
 91
2
 92
3
 72
0
 73
1
 93
9
 10
251.07
 20
90.72
 10
246.27
 20
90.72
 10
246.27
 20
91.92
 10
239.07
 20
91.92
 10
239.07
 20
90.72
 10
234.27
 20
90.72
 10
234.27
 20
106.32
 10
251.07
 20
106.32
 10
251.07
 20
90.72
 97
0
 92
18
 72
0
 73
1
 93
5
 10
246.27
 20
101.52
 10
239.07
 20
101.52
 10
239.07
 20
96.72
 10
246.27
 20
96.72
 10
246.27
 20
101.52
 97
0
 75
1
 76
1
 98
0
  0
LWPOLYLINE
  5
6E
330
17
100
AcDbEntity
  8
FILL_WHITE_FFFFFF
370
0
420
16777215
100
AcDbPolyline
 90
8
 70
1
 10
251.07
 20
90.72
 10
246.27
 20
90.72
 10
246.27
 20
91.92
 10
239.07
 20
91.92
 10
239.07
 20
90.72
 10
234.27
 20
90.72
 10
234.27
 20
106.32
 10
251.07
 20
106.32
  0
LWPOLYLINE
  5
6F
330
17
100
AcDbEntity
  8
FILL_WHITE_FFFFFF
370
0
420
16777215
100
AcDbPolyline
 90
4
 70
1
 10
246.27
 20
101.52
 10
239.07
 20
101.52
 10
239.07
 20
96.72
 10
246.27
 20
96.72
  0
HATCH
  5
70
330
17
100
AcDbEntity
  8
FILL_WHITE_FFFFFF
 62
7
420
16777215
100
AcDbHatch
 10
0.0
 20
0.0
 30
0.0
210
0.0
220
0.0
230
1.0
  2
SOLID
 70
1
 71
0
 91
2
 92
3
 72
0
 73
1
 93
9
 10
271.47
 20
90.72
 10
266.67
 20
90.72
 10
266.67
 20
91.92
 10
259.47
 20
91.92
 10
259.47
 20
90.72
 10
254.67
 20
90.72
 10
254.67
 20
106.32
 10
271.47
 20
106.32
 10
271.47
 20
90.72
 97
0
 92
18
 72
0
 73
1
 93
5
 10
266.67
 20
101.52
 10
259.47
 20
101.52
 10
259.47
 20
96.72
 10
266.67
 20
96.72
 10
266.67
 20
101.52
 97
0
 75
1
 76
1
 98
0
  0
LWPOLYLINE
  5
71
330
17
100
AcDbEntity
  8
FILL_WHITE_FFFFFF
370
0
420
16777215
100
AcDbPolyline
 90
8
 70
1
 10
271.47
 20
90.72
 10
266.67
 20
90.72
 10
266.67
 20
91.92
 10
259.47
 20
91.92
 10
259.47
 20
90.72
 10
254.67
 20
90.72
 10
254.67
 20
106.32
 10
271.47
 20
106.32
  0
LWPOLYLINE
  5
72
330
17
100
AcDbEntity
  8
FILL_WHITE_FFFFFF
370
0
420
16777215
100
AcDbPolyline
 90
4
 70
1
 10
266.67
 20
101.52
 10
259.47
 20
101.52
 10
259.47
 20
96.72
 10
266.67
 20
96.72
  0
HATCH
  5
73
330
17
100
AcDbEntity
  8
FILL_WHITE_FFFFFF
 62
7
420
16777215
100
AcDbHatch
 10
0.0
 20
0.0
 30
0.0
210
0.0
220
0.0
230
1.0
  2
SOLID
 70
1
 71
0
 91
1
 92
3
 72
0
 73
1
 93
22
 10
303.87
 20
115.92
 10
308.67
 20
115.92
 10
308.67
 20
112.32
 10
303.87
 20
112.32
 10
303.87
 20
97.92
 10
308.67
 20
99.12
 10
308.67
 20
94.32
 10
295.47
 20
89.52
 10
295.47
 20
88.32
 10
294.27
 20
88.32
 10
293.07
 20
89.52
 10
293.07
 20
94.32
 10
297.87
 20
95.52
 10
297.87
 20
112.32
 10
293.07
 20
112.32
 10
293.07
 20
115.92
 10
297.87
 20
115.92
 10
297.87
 20
130.32
 10
302.67
 20
130.32
 10
303.87
 20
129.12
 10
303.87
 20
127.92
 10
303.87
 20
115.92
 97
0
 75
1
 76
1
 98
0
  0
LWPOLYLINE
  5
74
330
17
100
AcDbEntity
  8
FILL_WHITE_FFFFFF
370
0
420
16777215
100
AcDbPolyline
 90
21
 70
1
 10
303.87
 20
115.92
 10
308.67
 20
115.92
 10
308.67
 20
112.32
 10
303.87
 20
112.32
 10
303.87
 20
97.92
 10
308.67
 20
99.12
 10
308.67
 20
94.32
 10
295.47
 20
89.52
 10
295.47
 20
88.32
 10
294.27
 20
88.32
 10
293.07
 20
89.52
 10
293.07
 20
94.32
 10
297.87
 20
95.52
 10
297.87
 20
112.32
 10
293.07
 20
112.32
 10
293.07
 20
115.92
 10
297.87
 20
115.92
 10
297.87
 20
130.32
 10
302.67
 20
130.32
 10
303.87
 20
129.12
 10
303.87
 20
127.92
  0
HATCH
  5
75
330
17
100
AcDbEntity
  8
FILL_WHITE_FFFFFF
 62
7
420
16777215
100
AcDbHatch
 10
0.0
 20
0.0
 30
0.0
210
0.0
220
0.0
230
1.0
  2
SOLID
 70
1
 71
0
 91
1
 92
3
 72
0
 73
1
 93
51
 10
331.47
 20
131.52
 10
332.67
 20
131.52
 10
332.67
 20
130.32
 10
332.67
 20
123.12
 10
338.67
 20
123.12
 10
337.47
 20
125.52
 10
333.87
 20
129.12
 10
337.47
 20
131.52
 10
339.87
 20
129.12
 10
342.27
 20
126.72
 10
339.87
 20
123.12
 10
344.67
 20
123.12
 10
344.67
 20
118.32
 10
332.67
 20
118.32
 10
332.67
 20
108.72
 10
333.87
 20
100.32
 10
337.47
 20
106.32
 10
339.87
 20
111.12
 10
343.47
 20
109.92
 10
344.67
 20
109.92
 10
344.67
 20
108.72
 10
343.47
 20
107.52
 10
339.87
 20
100.32
 10
336.27
 20
94.32
 10
337.47
 20
90.72
 10
339.87
 20
88.32
 10
341.07
 20
89.52
 10
341.07
 20
93.12
 10
345.87
 20
89.52
 10
343.47
 20
84.72
 10
341.07
 20
82.32
 10
339.87
 20
81.12
 10
338.67
 20
82.32
 10
335.07
 20
85.92
 10
332.67
 20
89.52
 10
326.67
 20
84.72
 10
320.67
 20
81.12
 10
317.07
 20
84.72
 10
321.87
 20
87.12
 10
325.47
 20
89.52
 10
327.87
 20
91.92
 10
330.27
 20
95.52
 10
329.07
 20
100.32
 10
327.87
 20
106.32
 10
327.87
 20
112.32
 10
327.87
 20
118.32
 10
309.87
 20
118.32
 10
309.87
 20
123.12
 10
326.67
 20
123.12
 10
326.67
 20
132.72
 10
331.47
 20
131.52
 97
0
 75
1
 76
1
 98
0
  0
LWPOLYLINE
  5
76
330
17
100
AcDbEntity
  8
FILL_WHITE_FFFFFF
370
0
420
16777215
100
AcDbPolyline
 90
50
 70
1
 10
331.47
 20
131.52
 10
332.67
 20
131.52
 10
332.67
 20
130.32
 10
332.67
 20
123.12
 10
338.67
 20
123.12
 10
337.47
 20
125.52
 10
333.87
 20
129.12
 10
337.47
 20
131.52
 10
339.87
 20
129.12
 10
342.27
 20
126.72
 10
339.87
 20
123.12
 10
344.67
 20
123.12
 10
344.67
 20
118.32
 10
332.67
 20
118.32
 10
332.67
 20
108.72
 10
333.87
 20
100.32
 10
337.47
 20
106.32
 10
339.87
 20
111.12
 10
343.47
 20
109.92
 10
344.67
 20
109.92
 10
344.67
 20
108.72
 10
343.47
 20
107.52
 10
339.87
 20
100.32
 10
336.27
 20
94.32
 10
337.47
 20
90.72
 10
339.87
 20
88.32
 10
341.07
 20
89.52
 10
341.07
 20
93.12
 10
345.87
 20
89.52
 10
343.47
 20
84.72
 10
341.07
 20
82.32
 10
339.87
 20
81.12
 10
338.67
 20
82.32
 10
335.07
 20
85.92
 10
332.67
 20
89.52
 10
326.67
 20
84.72
 10
320.67
 20
81.12
 10
317.07
 20
84.72
 10
321.87
 20
87.12
 10
325.47
 20
89.52
 10
327.87
 20
91.92
 10
330.27
 20
95.52
 10
329.07
 20
100.32
 10
327.87
 20
106.32
 10
327.87
 20
112.32
 10
327.87
 20
118.32
 10
309.87
 20
118.32
 10
309.87
 20
123.12
 10
326.67
 20
123.12
 10
326.67
 20
132.72
  0
HATCH
  5
77
330
17
100
AcDbEntity
  8
FILL_WHITE_FFFFFF
 62
7
420
16777215
100
AcDbHatch
 10
0.0
 20
0.0
 30
0.0
210
0.0
220
0.0
230
1.0
  2
SOLID
 70
1
 71
0
 91
2
 92
3
 72
0
 73
1
 93
5
 10
325.47
 20
100.32
 10
309.87
 20
100.32
 10
309.87
 20
113.52
 10
325.47
 20
113.52
 10
325.47
 20
100.32
 97
0
 92
18
 72
0
 73
1
 93
5
 10
320.67
 20
108.72
 10
314.67
 20
108.72
 10
314.67
 20
103.92
 10
320.67
 20
103.92
 10
320.67
 20
108.72
 97
0
 75
1
 76
1
 98
0
  0
LWPOLYLINE
  5
78
330
17
100
AcDbEntity
  8
FILL_WHITE_FFFFFF
370
0
420
16777215
100
AcDbPolyline
 90
4
 70
1
 10
325.47
 20
100.32
 10
309.87
 20
100.32
 10
309.87
 20
113.52
 10
325.47
 20
113.52
  0
LWPOLYLINE
  5
79
330
17
100
AcDbEntity
  8
FILL_WHITE_FFFFFF
370
0
420
16777215
100
AcDbPolyline
 90
4
 70
1
 10
320.67
 20
108.72
 10
314.67
 20
108.72
 10
314.67
 20
103.92
 10
320.67
 20
103.92
  0
HATCH
  5
7A
330
17
100
AcDbEntity
  8
FILL_WHITE_FFFFFF
 62
7
420
16777215
100
AcDbHatch
 10
0.0
 20
0.0
 30
0.0
210
0.0
220
0.0
230
1.0
  2
SOLID
 70
1
 71
0
 91
1
 92
3
 72
0
 73
1
 93
9
 10
325.47
 20
93.12
 10
312.27
 20
89.52
 10
312.27
 20
88.32
 10
311.07
 20
88.32
 10
311.07
 20
89.52
 10
309.87
 20
90.72
 10
309.87
 20
93.12
 10
325.47
 20
96.72
 10
325.47
 20
93.12
 97
0
 75
1
 76
1
 98
0
  0
LWPOLYLINE
  5
7B
330
17
100
AcDbEntity
  8
FILL_WHITE_FFFFFF
370
0
420
16777215
100
AcDbPolyline
 90
8
 70
1
 10
325.47
 20
93.12
 10
312.27
 20
89.52
 10
312.27
 20
88.32
 10
311.07
 20
88.32
 10
311.07
 20
89.52
 10
309.87
 20
90.72
 10
309.87
 20
93.12
 10
325.47
 20
96.72
  0
HATCH
  5
7C
330
17
100
AcDbEntity
  8
FILL_WHITE_FFFFFF
 62
7
420
16777215
100
AcDbHatch
 10
0.0
 20
0.0
 30
0.0
210
0.0
220
0.0
230
1.0
  2
SOLID
 70
1
 71
0
 91
1
 92
3
 72
0
 73
1
 93
36
 10
378.27
 20
130.32
 10
378.27
 20
129.12
 10
377.07
 20
127.92
 10
371.07
 20
121.92
 10
374.67
 20
119.52
 10
380.67
 20
125.52
 10
384.27
 20
124.32
 10
384.27
 20
123.12
 10
385.47
 20
123.12
 10
384.27
 20
121.92
 10
383.07
 20
121.92
 10
372.27
 20
108.72
 10
379.47
 20
109.92
 10
378.27
 20
114.72
 10
381.87
 20
115.92
 10
385.47
 20
109.92
 10
386.67
 20
103.92
 10
381.87
 20
102.72
 10
380.67
 20
106.32
 10
377.07
 20
105.12
 10
377.07
 20
81.12
 10
372.27
 20
81.12
 10
372.27
 20
105.12
 10
365.07
 20
103.92
 10
365.07
 20
102.72
 10
363.87
 20
102.72
 10
363.87
 20
103.92
 10
362.67
 20
107.52
 10
366.27
 20
108.72
 10
372.27
 20
115.92
 10
362.67
 20
123.12
 10
365.07
 20
126.72
 10
368.67
 20
124.32
 10
373.47
 20
132.72
 10
377.07
 20
131.52
 10
378.27
 20
130.32
 97
0
 75
1
 76
1
 98
0
  0
LWPOLYLINE
  5
7D
330
17
100
AcDbEntity
  8
FILL_WHITE_FFFFFF
370
0
420
16777215
100
AcDbPolyline
 90
35
 70
1
 10
378.27
 20
130.32
 10
378.27
 20
129.12
 10
377.07
 20
127.92
 10
371.07
 20
121.92
 10
374.67
 20
119.52
 10
380.67
 20
125.52
 10
384.27
 20
124.32
 10
384.27
 20
123.12
 10
385.47
 20
123.12
 10
384.27
 20
121.92
 10
383.07
 20
121.92
 10
372.27
 20
108.72
 10
379.47
 20
109.92
 10
378.27
 20
114.72
 10
381.87
 20
115.92
 10
385.47
 20
109.92
 10
386.67
 20
103.92
 10
381.87
 20
102.72
 10
380.67
 20
106.32
 10
377.07
 20
105.12
 10
377.07
 20
81.12
 10
372.27
 20
81.12
 10
372.27
 20
105.12
 10
365.07
 20
103.92
 10
365.07
 20
102.72
 10
363.87
 20
102.72
 10
363.87
 20
103.92
 10
362.67
 20
107.52
 10
366.27
 20
108.72
 10
372.27
 20
115.92
 10
362.67
 20
123.12
 10
365.07
 20
126.72
 10
368.67
 20
124.32
 10
373.47
 20
132.72
 10
377.07
 20
131.52
  0
HATCH
  5
7E
330
17
100
AcDbEntity
  8
FILL_WHITE_FFFFFF
 62
7
420
16777215
100
AcDbHatch
 10
0.0
 20
0.0
 30
0.0
210
0.0
220
0.0
230
1.0
  2
SOLID
 70
1
 71
0
 91
1
 92
3
 72
0
 73
1
 93
9
 10
369.87
 20
99.12
 10
369.87
 20
97.92
 10
368.67
 20
96.72
 10
366.27
 20
84.72
 10
361.47
 20
87.12
 10
363.87
 20
93.12
 10
365.07
 20
100.32
 10
368.67
 20
99.12
 10
369.87
 20
99.12
 97
0
 75
1
 76
1
 98
0
  0
LWPOLYLINE
  5
7F
330
17
100
AcDbEntity
  8
FILL_WHITE_FFFFFF
370
0
420
16777215
100
AcDbPolyline
 90
8
 70
1
 10
369.87
 20
99.12
 10
369.87
 20
97.92
 10
368.67
 20
96.72
 10
366.27
 20
84.72
 10
361.47
 20
87.12
 10
363.87
 20
93.12
 10
365.07
 20
100.32
 10
368.67
 20
99.12
  0
HATCH
  5
80
330
17
100
AcDbEntity
  8
FILL_WHITE_FFFFFF
 62
7
420
16777215
100
AcDbHatch
 10
0.0
 20
0.0
 30
0.0
210
0.0
220
0.0
230
1.0
  2
SOLID
 70
1
 71
0
 91
1
 92
3
 72
0
 73
1
 93
7
 10
384.27
 20
94.32
 10
385.47
 20
88.32
 10
380.67
 20
87.12
 10
379.47
 20
94.32
 10
378.27
 20
99.12
 10
381.87
 20
100.32
 10
384.27
 20
94.32
 97
0
 75
1
 76
1
 98
0
  0
LWPOLYLINE
  5
81
330
17
100
AcDbEntity
  8
FILL_WHITE_FFFFFF
370
0
420
16777215
100
AcDbPolyline
 90
6
 70
1
 10
384.27
 20
94.32
 10
385.47
 20
88.32
 10
380.67
 20
87.12
 10
379.47
 20
94.32
 10
378.27
 20
99.12
 10
381.87
 20
100.32
  0
HATCH
  5
82
330
17
100
AcDbEntity
  8
FILL_WHITE_FFFFFF
 62
7
420
16777215
100
AcDbHatch
 10
0.0
 20
0.0
 30
0.0
210
0.0
220
0.0
230
1.0
  2
SOLID
 70
1
 71
0
 91
2
 92
3
 72
0
 73
1
 93
33
 10
398.67
 20
130.32
 10
397.47
 20
129.12
 10
396.27
 20
126.72
 10
408.27
 20
126.72
 10
409.47
 20
127.92
 10
413.07
 20
124.32
 10
409.47
 20
115.92
 10
404.67
 20
109.92
 10
407.07
 20
107.52
 10
409.47
 20
106.32
 10
413.07
 20
103.92
 10
415.47
 20
103.92
 10
410.67
 20
99.12
 10
405.87
 20
102.72
 10
401.07
 20
106.32
 10
395.07
 20
101.52
 10
389.07
 20
97.92
 10
386.67
 20
102.72
 10
390.27
 20
103.92
 10
393.87
 20
106.32
 10
396.27
 20
108.72
 10
397.47
 20
109.92
 10
395.07
 20
113.52
 10
392.67
 20
118.32
 10
389.07
 20
112.32
 10
385.47
 20
114.72
 10
387.87
 20
119.52
 10
390.27
 20
123.12
 10
392.67
 20
127.92
 10
393.87
 20
132.72
 10
396.27
 20
131.52
 10
398.67
 20
131.52
 10
398.67
 20
130.32
 97
0
 92
18
 72
0
 73
1
 93
6
 10
401.07
 20
113.52
 10
404.67
 20
117.12
 10
405.87
 20
123.12
 10
396.27
 20
123.12
 10
397.47
 20
117.12
 10
401.07
 20
113.52
 97
0
 75
1
 76
1
 98
0
  0
LWPOLYLINE
  5
83
330
17
100
AcDbEntity
  8
FILL_WHITE_FFFFFF
370
0
420
16777215
100
AcDbPolyline
 90
32
 70
1
 10
398.67
 20
130.32
 10
397.47
 20
129.12
 10
396.27
 20
126.72
 10
408.27
 20
126.72
 10
409.47
 20
127.92
 10
413.07
 20
124.32
 10
409.47
 20
115.92
 10
404.67
 20
109.92
 10
407.07
 20
107.52
 10
409.47
 20
106.32
 10
413.07
 20
103.92
 10
415.47
 20
103.92
 10
410.67
 20
99.12
 10
405.87
 20
102.72
 10
401.07
 20
106.32
 10
395.07
 20
101.52
 10
389.07
 20
97.92
 10
386.67
 20
102.72
 10
390.27
 20
103.92
 10
393.87
 20
106.32
 10
396.27
 20
108.72
 10
397.47
 20
109.92
 10
395.07
 20
113.52
 10
392.67
 20
118.32
 10
389.07
 20
112.32
 10
385.47
 20
114.72
 10
387.87
 20
119.52
 10
390.27
 20
123.12
 10
392.67
 20
127.92
 10
393.87
 20
132.72
 10
396.27
 20
131.52
 10
398.67
 20
131.52
  0
LWPOLYLINE
  5
84
330
17
100
AcDbEntity
  8
FILL_WHITE_FFFFFF
370
0
420
16777215
100
AcDbPolyline
 90
5
 70
1
 10
401.07
 20
113.52
 10
404.67
 20
117.12
 10
405.87
 20
123.12
 10
396.27
 20
123.12
 10
397.47
 20
117.12
  0
HATCH
  5
85
330
17
100
AcDbEntity
  8
FILL_WHITE_FFFFFF
 62
7
420
16777215
100
AcDbHatch
 10
0.0
 20
0.0
 30
0.0
210
0.0
220
0.0
230
1.0
  2
SOLID
 70
1
 71
0
 91
1
 92
3
 72
0
 73
1
 93
10
 10
401.07
 20
89.52
 10
414.27
 20
93.12
 10
414.27
 20
88.32
 10
403.47
 20
84.72
 10
392.67
 20
83.52
 10
391.47
 20
82.32
 10
391.47
 20
81.12
 10
390.27
 20
82.32
 10
389.07
 20
88.32
 10
401.07
 20
89.52
 97
0
 75
1
 76
1
 98
0
  0
LWPOLYLINE
  5
86
330
17
100
AcDbEntity
  8
FILL_WHITE_FFFFFF
370
0
420
16777215
100
AcDbPolyline
 90
9
 70
1
 10
401.07
 20
89.52
 10
414.27
 20
93.12
 10
414.27
 20
88.32
 10
403.47
 20
84.72
 10
392.67
 20
83.52
 10
391.47
 20
82.32
 10
391.47
 20
81.12
 10
390.27
 20
82.32
 10
389.07
 20
88.32
  0
HATCH
  5
87
330
17
100
AcDbEntity
  8
FILL_WHITE_FFFFFF
 62
7
420
16777215
100
AcDbHatch
 10
0.0
 20
0.0
 30
0.0
210
0.0
220
0.0
230
1.0
  2
SOLID
 70
1
 71
0
 91
1
 92
3
 72
0
 73
1
 93
7
 10
403.47
 20
99.12
 10
407.07
 20
95.52
 10
403.47
 20
91.92
 10
399.87
 20
95.52
 10
396.27
 20
97.92
 10
398.67
 20
101.52
 10
403.47
 20
99.12
 97
0
 75
1
 76
1
 98
0
  0
LWPOLYLINE
  5
88
330
17
100
AcDbEntity
  8
FILL_WHITE_FFFFFF
370
0
420
16777215
100
AcDbPolyline
 90
6
 70
1
 10
403.47
 20
99.12
 10
407.07
 20
95.52
 10
403.47
 20
91.92
 10
399.87
 20
95.52
 10
396.27
 20
97.92
 10
398.67
 20
101.52
  0
HATCH
  5
89
330
17
100
AcDbEntity
  8
FILL_WHITE_FFFFFF
 62
7
420
16777215
100
AcDbHatch
 10
0.0
 20
0.0
 30
0.0
210
0.0
220
0.0
230
1.0
  2
SOLID
 70
1
 71
0
 91
1
 92
3
 72
0
 73
1
 93
24
 10
464.67
 20
130.32
 10
465.87
 20
130.32
 10
464.67
 20
129.12
 10
463.47
 20
129.12
 10
463.47
 20
112.32
 10
479.07
 20
112.32
 10
479.07
 20
106.32
 10
463.47
 20
106.32
 10
463.47
 20
89.52
 10
483.87
 20
89.52
 10
483.87
 20
83.52
 10
431.07
 20
83.52
 10
431.07
 20
89.52
 10
440.67
 20
89.52
 10
440.67
 20
115.92
 10
444.27
 20
114.72
 10
446.67
 20
114.72
 10
446.67
 20
113.52
 10
445.47
 20
112.32
 10
445.47
 20
89.52
 10
457.47
 20
89.52
 10
457.47
 20
131.52
 10
462.27
 20
131.52
 10
464.67
 20
130.32
 97
0
 75
1
 76
1
 98
0
  0
LWPOLYLINE
  5
8A
330
17
100
AcDbEntity
  8
FILL_WHITE_FFFFFF
370
0
420
16777215
100
AcDbPolyline
 90
23
 70
1
 10
464.67
 20
130.32
 10
465.87
 20
130.32
 10
464.67
 20
129.12
 10
463.47
 20
129.12
 10
463.47
 20
112.32
 10
479.07
 20
112.32
 10
479.07
 20
106.32
 10
463.47
 20
106.32
 10
463.47
 20
89.52
 10
483.87
 20
89.52
 10
483.87
 20
83.52
 10
431.07
 20
83.52
 10
431.07
 20
89.52
 10
440.67
 20
89.52
 10
440.67
 20
115.92
 10
444.27
 20
114.72
 10
446.67
 20
114.72
 10
446.67
 20
113.52
 10
445.47
 20
112.32
 10
445.47
 20
89.52
 10
457.47
 20
89.52
 10
457.47
 20
131.52
 10
462.27
 20
131.52
  0
LWPOLYLINE
  5
8C
330
17
100
AcDbEntity
  8
STROKE_WHITE_FFFFFF
370
0
420
16777215
100
AcDbPolyline
 90
2
 70
0
 10
299.27000000000044
 20
164.5599999999995
 10
299.27000000000044
 20
194.5599999999995
  0
LWPOLYLINE
  5
8E
330
17
100
AcDbEntity
  8
STROKE_BLUE_0000FF
370
0
420
255
100
AcDbPolyline
 90
69
 70
0
 10
32.67000000000007
 20
223.91999999999916
 10
533.0700000000006
 20
223.91999999999916
 10
535.0654101562506
 20
223.82302734374917
 10
536.9957812500004
 20
223.53796874999918
 10
538.8523242187504
 20
223.0736132812492
 10
540.6262500000003
 20
222.43874999999923
 10
542.3087695312502
 20
221.64216796874925
 10
543.8910937500002
 20
220.6926562499993
 10
545.3644335937503
 20
219.5990039062493
 10
546.7200000000003
 20
218.36999999999932
 10
547.9490039062503
 20
217.01443359374935
 10
549.0426562500003
 20
215.54109374999936
 10
549.9921679687503
 20
213.95876953124937
 10
550.7887500000004
 20
212.27624999999938
 10
551.4236132812504
 20
210.50232421874938
 10
551.8879687500005
 20
208.6457812499994
 10
552.1730273437504
 20
206.7154101562494
 10
552.2700000000004
 20
204.71999999999935
 10
552.2700000000004
 20
65.51999999999953
 10
552.1730273437504
 20
63.73582031249961
 10
551.8879687500005
 20
61.9903124999997
 10
551.4236132812504
 20
60.2940234374997
 10
550.7887500000003
 20
58.65749999999974
 10
549.9921679687503
 20
57.09128906249978
 10
549.0426562500003
 20
55.605937499999754
 10
547.9490039062503
 20
54.21199218749979
 10
546.7200000000003
 20
52.91999999999973
 10
545.3644335937502
 20
51.740507812499715
 10
543.8910937500002
 20
50.68406249999964
 10
542.3087695312502
 20
49.76121093749964
 10
540.6262500000003
 20
48.98249999999962
 10
538.8523242187504
 20
48.35847656249956
 10
536.9957812500004
 20
47.89968749999957
 10
535.0654101562504
 20
47.61667968749953
 10
533.0700000000006
 20
47.51999999999953
 10
32.67000000000007
 20
47.51999999999953
 10
30.674589843750194
 20
47.6166796874995
 10
28.744218750000293
 20
47.89968749999957
 10
26.88767578125036
 20
48.35847656249959
 10
25.113750000000408
 20
48.98249999999962
 10
23.431230468750435
 20
49.76121093749967
 10
21.848906250000447
 20
50.68406249999964
 10
20.37556640625045
 20
51.740507812499715
 10
19.020000000000437
 20
52.91999999999973
 10
17.790996093750415
 20
54.21199218749979
 10
16.69734375000039
 20
55.605937499999754
 10
15.747832031250358
 20
57.091289062499754
 10
14.951250000000329
 20
58.65749999999974
 10
14.316386718750302
 20
60.29402343749973
 10
13.852031250000277
 20
61.9903124999997
 10
13.566972656250261
 20
63.73582031249961
 10
13.470000000000255
 20
65.51999999999953
 10
13.470000000000255
 20
204.71999999999935
 10
13.566972656250261
 20
206.71541015624936
 10
13.852031250000277
 20
208.6457812499994
 10
14.316386718750302
 20
210.50232421874938
 10
14.951250000000329
 20
212.27624999999938
 10
15.74783203125036
 20
213.95876953124937
 10
16.69734375000039
 20
215.54109374999936
 10
17.790996093750415
 20
217.01443359374935
 10
19.020000000000437
 20
218.36999999999932
 10
20.37556640625045
 20
219.5990039062493
 10
21.84890625000045
 20
220.6926562499993
 10
23.431230468750435
 20
221.64216796874925
 10
25.113750000000408
 20
222.43874999999923
 10
26.88767578125036
 20
223.0736132812492
 10
28.74421875000029
 20
223.53796874999918
 10
30.674589843750194
 20
223.82302734374917
 10
32.67000000000007
 20
223.91999999999916
  0
ENDSEC
  0
SECTION
  2
OBJECTS
  0
DICTIONARY
  5
A
330
0
100
AcDbDictionary
281
1
  3
ACAD_COLOR
350
B
  3
ACAD_GROUP
350
C
  3
ACAD_LAYOUT
350
D
  3
ACAD_MATERIAL
350
E
  3
ACAD_MLEADERSTYLE
350
F
  3
ACAD_MLINESTYLE
350
10
  3
ACAD_PLOTSETTINGS
350
11
  3
ACAD_PLOTSTYLENAME
350
12
  3
ACAD_SCALELIST
350
14
  3
ACAD_TABLESTYLE
350
15
  3
ACAD_VISUALSTYLE
350
16
  3
EZDXF_META
350
2D
  0
DICTIONARY
  5
B
330
A
100
AcDbDictionary
281
1
  0
DICTIONARY
  5
C
330
A
100
AcDbDictionary
281
1
  0
DICTIONARY
  5
D
330
A
100
AcDbDictionary
281
1
  3
Model
350
1A
  3
Layout1
350
1E
  0
DICTIONARY
  5
E
330
A
100
AcDbDictionary
281
1
  3
ByBlock
350
1F
  3
ByLayer
350
20
  3
Global
350
21
  0
DICTIONARY
  5
F
330
A
100
AcDbDictionary
281
1
  3
Standard
350
2C
  0
DICTIONARY
  5
10
330
A
100
AcDbDictionary
281
1
  3
Standard
350
22
  0
DICTIONARY
  5
11
330
A
100
AcDbDictionary
281
1
  0
ACDBDICTIONARYWDFLT
  5
12
330
A
100
AcDbDictionary
281
1
  3
Normal
350
13
100
AcDbDictionaryWithDefault
340
13
  0
ACDBPLACEHOLDER
  5
13
330
12
  0
DICTIONARY
  5
14
330
A
100
AcDbDictionary
281
1
  0
DICTIONARY
  5
15
330
A
100
AcDbDictionary
281
1
  0
DICTIONARY
  5
16
330
A
100
AcDbDictionary
281
1
  0
LAYOUT
  5
1A
330
D
100
AcDbPlotSettings
  1

  4
A3
  6

 40
7.5
 41
20.0
 42
7.5
 43
20.0
 44
420.0
 45
297.0
 46
0.0
 47
0.0
 48
0.0
 49
0.0
140
0.0
141
0.0
142
1.0
143
1.0
 70
1024
 72
1
 73
0
 74
5
  7

 75
16
 76
0
 77
2
 78
300
147
1.0
148
0.0
149
0.0
100
AcDbLayout
  1
Model
 70
1
 71
0
 10
0.0
 20
0.0
 11
420.0
 21
297.0
 12
0.0
 22
0.0
 32
0.0
 14
1e+20
 24
1e+20
 34
1e+20
 15
-1e+20
 25
-1e+20
 35
-1e+20
146
0.0
 13
0.0
 23
0.0
 33
0.0
 16
1.0
 26
0.0
 36
0.0
 17
0.0
 27
1.0
 37
0.0
 76
1
330
17
  0
LAYOUT
  5
1E
330
D
100
AcDbPlotSettings
  1

  4
A3
  6

 40
7.5
 41
20.0
 42
7.5
 43
20.0
 44
420.0
 45
297.0
 46
0.0
 47
0.0
 48
0.0
 49
0.0
140
0.0
141
0.0
142
1.0
143
1.0
 70
0
 72
1
 73
0
 74
5
  7

 75
16
 76
0
 77
2
 78
300
147
1.0
148
0.0
149
0.0
100
AcDbLayout
  1
Layout1
 70
1
 71
1
 10
0.0
 20
0.0
 11
420.0
 21
297.0
 12
0.0
 22
0.0
 32
0.0
 14
1e+20
 24
1e+20
 34
1e+20
 15
-1e+20
 25
-1e+20
 35
-1e+20
146
0.0
 13
0.0
 23
0.0
 33
0.0
 16
1.0
 26
0.0
 36
0.0
 17
0.0
 27
1.0
 37
0.0
 76
1
330
1B
  0
MATERIAL
  5
1F
102
{ACAD_REACTORS
330
E
102
}
330
E
100
AcDbMaterial
  1
ByBlock
  2

 70
0
 40
1.0
 71
1
 41
1.0
 91
-1023410177
 42
1.0
 72
1
  3

 73
1
 74
1
 75
1
 44
0.5
 73
0
 45
1.0
 46
1.0
 77
1
  4

 78
1
 79
1
170
1
 48
1.0
171
1
  6

172
1
173
1
174
1
140
1.0
141
1.0
175
1
  7

176
1
177
1
178
1
143
1.0
179
1
  8

270
1
271
1
272
1
145
1.0
146
1.0
273
1
  9

274
1
275
1
276
1
 42
1.0
 72
1
  3

 73
1
 74
1
 75
1
 94
63
  0
MATERIAL
  5
20
102
{ACAD_REACTORS
330
E
102
}
330
E
100
AcDbMaterial
  1
ByLayer
  2

 70
0
 40
1.0
 71
1
 41
1.0
 91
-1023410177
 42
1.0
 72
1
  3

 73
1
 74
1
 75
1
 44
0.5
 73
0
 45
1.0
 46
1.0
 77
1
  4

 78
1
 79
1
170
1
 48
1.0
171
1
  6

172
1
173
1
174
1
140
1.0
141
1.0
175
1
  7

176
1
177
1
178
1
143
1.0
179
1
  8

270
1
271
1
272
1
145
1.0
146
1.0
273
1
  9

274
1
275
1
276
1
 42
1.0
 72
1
  3

 73
1
 74
1
 75
1
 94
63
  0
MATERIAL
  5
21
102
{ACAD_REACTORS
330
E
102
}
330
E
100
AcDbMaterial
  1
Global
  2

 70
0
 40
1.0
 71
1
 41
1.0
 91
-1023410177
 42
1.0
 72
1
  3

 73
1
 74
1
 75
1
 44
0.5
 73
0
 45
1.0
 46
1.0
 77
1
  4

 78
1
 79
1
170
1
 48
1.0
171
1
  6

172
1
173
1
174
1
140
1.0
141
1.0
175
1
  7

176
1
177
1
178
1
143
1.0
179
1
  8

270
1
271
1
272
1
145
1.0
146
1.0
273
1
  9

274
1
275
1
276
1
 42
1.0
 72
1
  3

 73
1
 74
1
 75
1
 94
63
  0
MLINESTYLE
  5
22
102
{ACAD_REACTORS
330
10
102
}
330
10
100
AcDbMlineStyle
  2
Standard
 70
0
  3

 62
256
 51
90.0
 52
90.0
 71
2
 49
0.5
 62
256
  6
BYLAYER
 49
-0.5
 62
256
  6
BYLAYER
  0
MLEADERSTYLE
  5
2C
102
{ACAD_REACTORS
330
F
102
}
330
F
100
AcDbMLeaderStyle
179
2
170
2
171
1
172
0
 90
2
 40
0.0
 41
0.0
173
1
 91
-1056964608
 92
-2
290
1
 42
2.0
291
1
 43
8.0
  3
Standard
 44
4.0
300

342
29
174
1
175
1
176
0
178
1
 93
-1056964608
 45
4.0
292
0
297
0
 46
4.0
 94
-1056964608
 47
1.0
 49
1.0
140
1.0
294
1
141
0.0
177
0
142
1.0
295
0
296
0
143
3.75
271
0
272
9
273
9
  0
DICTIONARY
  5
2D
330
A
100
AcDbDictionary
280
1
281
1
  3
CREATED_BY_EZDXF
350
2E
  3
WRITTEN_BY_EZDXF
350
91
  0
DICTIONARYVAR
  5
2E
330
2D
100
DictionaryVariables
280
0
  1
1.4.4 @ 2026-07-10T01:53:55.212936+00:00
  0
DICTIONARYVAR
  5
91
330
2D
100
DictionaryVariables
280
0
  1
1.4.4 @ 2026-07-10T01:53:55.220856+00:00
  0
ENDSEC
  0
EOF
