  0
SECTION
  2
HEADER
  9
$ACADVER
  1
AC1024
  9
$ACADMAINTVER
 70
6
  9
$DWGCODEPAGE
  3
ANSI_1252
  9
$LASTSAVEDBY
  1
ezdxf
  9
$INSBASE
 10
0.0
 20
0.0
 30
0.0
  9
$EXTMIN
 10
1e+20
 20
1e+20
 30
1e+20
  9
$EXTMAX
 10
-1e+20
 20
-1e+20
 30
-1e+20
  9
$LIMMIN
 10
0.0
 20
0.0
  9
$LIMMAX
 10
420.0
 20
297.0
  9
$ORTHOMODE
 70
0
  9
$REGENMODE
 70
1
  9
$FILLMODE
 70
1
  9
$QTEXTMODE
 70
0
  9
$MIRRTEXT
 70
1
  9
$LTSCALE
 40
1.0
  9
$ATTMODE
 70
1
  9
$TEXTSIZE
 40
2.5
  9
$TRACEWID
 40
1.0
  9
$TEXTSTYLE
  7
Standard
  9
$CLAYER
  8
0
  9
$CELTYPE
  6
ByLayer
  9
$CECOLOR
 62
256
  9
$CELTSCALE
 40
1.0
  9
$DISPSILH
 70
0
  9
$DIMSCALE
 40
1.0
  9
$DIMASZ
 40
2.5
  9
$DIMEXO
 40
0.625
  9
$DIMDLI
 40
3.75
  9
$DIMRND
 40
0.0
  9
$DIMDLE
 40
0.0
  9
$DIMEXE
 40
1.25
  9
$DIMTP
 40
0.0
  9
$DIMTM
 40
0.0
  9
$DIMTXT
 40
2.5
  9
$DIMCEN
 40
2.5
  9
$DIMTSZ
 40
0.0
  9
$DIMTOL
 70
0
  9
$DIMLIM
 70
0
  9
$DIMTIH
 70
0
  9
$DIMTOH
 70
0
  9
$DIMSE1
 70
0
  9
$DIMSE2
 70
0
  9
$DIMTAD
 70
1
  9
$DIMZIN
 70
8
  9
$DIMBLK
  1

  9
$DIMASO
 70
1
  9
$DIMSHO
 70
1
  9
$DIMPOST
  1

  9
$DIMAPOST
  1

  9
$DIMALT
 70
0
  9
$DIMALTD
 70
3
  9
$DIMALTF
 40
0.03937007874
  9
$DIMLFAC
 40
1.0
  9
$DIMTOFL
 70
1
  9
$DIMTVP
 40
0.0
  9
$DIMTIX
 70
0
  9
$DIMSOXD
 70
0
  9
$DIMSAH
 70
0
  9
$DIMBLK1
  1

  9
$DIMBLK2
  1

  9
$DIMSTYLE
  2
ISO-25
  9
$DIMCLRD
 70
0
  9
$DIMCLRE
 70
0
  9
$DIMCLRT
 70
0
  9
$DIMTFAC
 40
1.0
  9
$DIMGAP
 40
0.625
  9
$DIMJUST
 70
0
  9
$DIMSD1
 70
0
  9
$DIMSD2
 70
0
  9
$DIMTOLJ
 70
0
  9
$DIMTZIN
 70
8
  9
$DIMALTZ
 70
0
  9
$DIMALTTZ
 70
0
  9
$DIMUPT
 70
0
  9
$DIMDEC
 70
2
  9
$DIMTDEC
 70
2
  9
$DIMALTU
 70
2
  9
$DIMALTTD
 70
3
  9
$DIMTXSTY
  7
Standard
  9
$DIMAUNIT
 70
0
  9
$DIMADEC
 70
0
  9
$DIMALTRND
 40
0.0
  9
$DIMAZIN
 70
0
  9
$DIMDSEP
 70
44
  9
$DIMATFIT
 70
3
  9
$DIMFRAC
 70
0
  9
$DIMLDRBLK
  1

  9
$DIMLUNIT
 70
2
  9
$DIMLWD
 70
-2
  9
$DIMLWE
 70
-2
  9
$DIMTMOVE
 70
0
  9
$DIMFXL
 40
1.0
  9
$DIMFXLON
 70
0
  9
$DIMJOGANG
 40
0.785398163397
  9
$DIMTFILL
 70
0
  9
$DIMTFILLCLR
 70
0
  9
$DIMARCSYM
 70
0
  9
$DIMLTYPE
  6

  9
$DIMLTEX1
  6

  9
$DIMLTEX2
  6

  9
$DIMTXTDIRECTION
 70
0
  9
$LUNITS
 70
2
  9
$LUPREC
 70
4
  9
$SKETCHINC
 40
1.0
  9
$FILLETRAD
 40
10.0
  9
$AUNITS
 70
0
  9
$AUPREC
 70
2
  9
$MENU
  1
.
  9
$ELEVATION
 40
0.0
  9
$PELEVATION
 40
0.0
  9
$THICKNESS
 40
0.0
  9
$LIMCHECK
 70
0
  9
$CHAMFERA
 40
0.0
  9
$CHAMFERB
 40
0.0
  9
$CHAMFERC
 40
0.0
  9
$CHAMFERD
 40
0.0
  9
$SKPOLY
 70
0
  9
$TDCREATE
 40
2461232.4124074075
  9
$TDUCREATE
 40
2458532.153996898
  9
$TDUPDATE
 40
2461232.4124074075
  9
$TDUUPDATE
 40
2458532.1544311
  9
$TDINDWG
 40
0.0
  9
$TDUSRTIMER
 40
0.0
  9
$USRTIMER
 70
1
  9
$ANGBASE
 50
0.0
  9
$ANGDIR
 70
0
  9
$PDMODE
 70
0
  9
$PDSIZE
 40
0.0
  9
$PLINEWID
 40
0.0
  9
$SPLFRAME
 70
0
  9
$SPLINETYPE
 70
6
  9
$SPLINESEGS
 70
8
  9
$HANDSEED
  5
E8
  9
$SURFTAB1
 70
6
  9
$SURFTAB2
 70
6
  9
$SURFTYPE
 70
6
  9
$SURFU
 70
6
  9
$SURFV
 70
6
  9
$UCSBASE
  2

  9
$UCSNAME
  2

  9
$UCSORG
 10
0.0
 20
0.0
 30
0.0
  9
$UCSXDIR
 10
1.0
 20
0.0
 30
0.0
  9
$UCSYDIR
 10
0.0
 20
1.0
 30
0.0
  9
$UCSORTHOREF
  2

  9
$UCSORTHOVIEW
 70
0
  9
$UCSORGTOP
 10
0.0
 20
0.0
 30
0.0
  9
$UCSORGBOTTOM
 10
0.0
 20
0.0
 30
0.0
  9
$UCSORGLEFT
 10
0.0
 20
0.0
 30
0.0
  9
$UCSORGRIGHT
 10
0.0
 20
0.0
 30
0.0
  9
$UCSORGFRONT
 10
0.0
 20
0.0
 30
0.0
  9
$UCSORGBACK
 10
0.0
 20
0.0
 30
0.0
  9
$PUCSBASE
  2

  9
$PUCSNAME
  2

  9
$PUCSORG
 10
0.0
 20
0.0
 30
0.0
  9
$PUCSXDIR
 10
1.0
 20
0.0
 30
0.0
  9
$PUCSYDIR
 10
0.0
 20
1.0
 30
0.0
  9
$PUCSORTHOREF
  2

  9
$PUCSORTHOVIEW
 70
0
  9
$PUCSORGTOP
 10
0.0
 20
0.0
 30
0.0
  9
$PUCSORGBOTTOM
 10
0.0
 20
0.0
 30
0.0
  9
$PUCSORGLEFT
 10
0.0
 20
0.0
 30
0.0
  9
$PUCSORGRIGHT
 10
0.0
 20
0.0
 30
0.0
  9
$PUCSORGFRONT
 10
0.0
 20
0.0
 30
0.0
  9
$PUCSORGBACK
 10
0.0
 20
0.0
 30
0.0
  9
$USERI1
 70
0
  9
$USERI2
 70
0
  9
$USERI3
 70
0
  9
$USERI4
 70
0
  9
$USERI5
 70
0
  9
$USERR1
 40
0.0
  9
$USERR2
 40
0.0
  9
$USERR3
 40
0.0
  9
$USERR4
 40
0.0
  9
$USERR5
 40
0.0
  9
$WORLDVIEW
 70
1
  9
$SHADEDGE
 70
3
  9
$SHADEDIF
 70
70
  9
$TILEMODE
 70
1
  9
$MAXACTVP
 70
64
  9
$PINSBASE
 10
0.0
 20
0.0
 30
0.0
  9
$PLIMCHECK
 70
0
  9
$PEXTMIN
 10
1e+20
 20
1e+20
 30
1e+20
  9
$PEXTMAX
 10
-1e+20
 20
-1e+20
 30
-1e+20
  9
$PLIMMIN
 10
0.0
 20
0.0
  9
$PLIMMAX
 10
420.0
 20
297.0
  9
$UNITMODE
 70
0
  9
$VISRETAIN
 70
1
  9
$PLINEGEN
 70
0
  9
$PSLTSCALE
 70
1
  9
$TREEDEPTH
 70
3020
  9
$CMLSTYLE
  2
Standard
  9
$CMLJUST
 70
0
  9
$CMLSCALE
 40
20.0
  9
$PROXYGRAPHICS
 70
1
  9
$MEASUREMENT
 70
1
  9
$CELWEIGHT
370
-1
  9
$ENDCAPS
280
0
  9
$JOINSTYLE
280
0
  9
$LWDISPLAY
290
0
  9
$INSUNITS
 70
6
  9
$HYPERLINKBASE
  1

  9
$STYLESHEET
  1

  9
$XEDIT
290
1
  9
$CEPSNTYPE
380
0
  9
$PSTYLEMODE
290
1
  9
$FINGERPRINTGUID
  2
{3019211B-64E1-408E-BA6F-E84B2EF1D539}
  9
$VERSIONGUID
  2
{8FD29E57-D1CD-4DAE-825A-7FE1816E39AC}
  9
$EXTNAMES
290
1
  9
$PSVPSCALE
 40
0.0
  9
$OLESTARTUP
290
0
  9
$SORTENTS
280
127
  9
$INDEXCTL
280
0
  9
$HIDETEXT
280
1
  9
$XCLIPFRAME
280
1
  9
$HALOGAP
280
0
  9
$OBSCOLOR
 70
257
  9
$OBSLTYPE
280
0
  9
$INTERSECTIONDISPLAY
280
0
  9
$INTERSECTIONCOLOR
 70
257
  9
$DIMASSOC
280
2
  9
$PROJECTNAME
  1

  9
$CAMERADISPLAY
290
0
  9
$LENSLENGTH
 40
50.0
  9
$CAMERAHEIGHT
 40
0.0
  9
$STEPSPERSEC
 40
24.0
  9
$STEPSIZE
 40
100.0
  9
$3DDWFPREC
 40
2.0
  9
$PSOLWIDTH
 40
0.005
  9
$PSOLHEIGHT
 40
0.08
  9
$LOFTANG1
 40
1.570796326795
  9
$LOFTANG2
 40
1.570796326795
  9
$LOFTMAG1
 40
0.0
  9
$LOFTMAG2
 40
0.0
  9
$LOFTPARAM
 70
7
  9
$LOFTNORMALS
280
1
  9
$LATITUDE
 40
37.795
  9
$LONGITUDE
 40
-122.394
  9
$NORTHDIRECTION
 40
0.0
  9
$TIMEZONE
 70
-8000
  9
$LIGHTGLYPHDISPLAY
280
1
  9
$TILEMODELIGHTSYNCH
280
1
  9
$CMATERIAL
347
20
  9
$SOLIDHIST
280
0
  9
$SHOWHIST
280
1
  9
$DWFFRAME
280
2
  9
$DGNFRAME
280
2
  9
$REALWORLDSCALE
290
1
  9
$INTERFERECOLOR
 62
256
  9
$CSHADOW
280
0
  9
$SHADOWPLANELOCATION
 40
0.0
  0
ENDSEC
  0
SECTION
  2
CLASSES
  0
CLASS
  1
ACDBDICTIONARYWDFLT
  2
AcDbDictionaryWithDefault
  3
ObjectDBX Classes
 90
0
 91
0
280
0
281
0
  0
CLASS
  1
SUN
  2
AcDbSun
  3
SCENEOE
 90
1153
 91
0
280
0
281
0
  0
CLASS
  1
VISUALSTYLE
  2
AcDbVisualStyle
  3
ObjectDBX Classes
 90
4095
 91
0
280
0
281
0
  0
CLASS
  1
MATERIAL
  2
AcDbMaterial
  3
ObjectDBX Classes
 90
1153
 91
0
280
0
281
0
  0
CLASS
  1
SCALE
  2
AcDbScale
  3
ObjectDBX Classes
 90
1153
 91
0
280
0
281
0
  0
CLASS
  1
TABLESTYLE
  2
AcDbTableStyle
  3
ObjectDBX Classes
 90
4095
 91
0
280
0
281
0
  0
CLASS
  1
MLEADERSTYLE
  2
AcDbMLeaderStyle
  3
ACDB_MLEADERSTYLE_CLASS
 90
4095
 91
0
280
0
281
0
  0
CLASS
  1
DICTIONARYVAR
  2
AcDbDictionaryVar
  3
ObjectDBX Classes
 90
0
 91
0
280
0
281
0
  0
CLASS
  1
CELLSTYLEMAP
  2
AcDbCellStyleMap
  3
ObjectDBX Classes
 90
1152
 91
0
280
0
281
0
  0
CLASS
  1
MENTALRAYRENDERSETTINGS
  2
AcDbMentalRayRenderSettings
  3
SCENEOE
 90
1024
 91
0
280
0
281
0
  0
CLASS
  1
ACDBDETAILVIEWSTYLE
  2
AcDbDetailViewStyle
  3
ObjectDBX Classes
 90
1025
 91
0
280
0
281
0
  0
CLASS
  1
ACDBSECTIONVIEWSTYLE
  2
AcDbSectionViewStyle
  3
ObjectDBX Classes
 90
1025
 91
0
280
0
281
0
  0
CLASS
  1
RASTERVARIABLES
  2
AcDbRasterVariables
  3
ISM
 90
0
 91
0
280
0
281
0
  0
CLASS
  1
ACDBPLACEHOLDER
  2
AcDbPlaceHolder
  3
ObjectDBX Classes
 90
0
 91
0
280
0
281
0
  0
CLASS
  1
LAYOUT
  2
AcDbLayout
  3
ObjectDBX Classes
 90
0
 91
0
280
0
281
0
  0
ENDSEC
  0
SECTION
  2
TABLES
  0
TABLE
  2
VPORT
  5
8
330
0
100
AcDbSymbolTable
 70
1
  0
VPORT
  5
23
330
8
100
AcDbSymbolTableRecord
100
AcDbViewportTableRecord
  2
*Active
 70
0
 10
0.0
 20
0.0
 11
1.0
 21
1.0
 12
0.0
 22
0.0
 13
0.0
 23
0.0
 14
0.5
 24
0.5
 15
0.5
 25
0.5
 16
0.0
 26
0.0
 36
1.0
 17
0.0
 27
0.0
 37
0.0
 40
1000.0
 41
1.34
 42
50.0
 43
0.0
 44
0.0
 50
0.0
 51
0.0
 71
0
 72
1000
 73
1
 74
3
 75
0
 76
0
 77
0
 78
0
281
0
 65
0
146
0.0
  0
ENDTAB
  0
TABLE
  2
LTYPE
  5
2
330
0
100
AcDbSymbolTable
 70
3
  0
LTYPE
  5
24
330
2
100
AcDbSymbolTableRecord
100
AcDbLinetypeTableRecord
  2
ByBlock
 70
0
  3

 72
65
 73
0
 40
0.0
  0
LTYPE
  5
25
330
2
100
AcDbSymbolTableRecord
100
AcDbLinetypeTableRecord
  2
ByLayer
 70
0
  3

 72
65
 73
0
 40
0.0
  0
LTYPE
  5
26
330
2
100
AcDbSymbolTableRecord
100
AcDbLinetypeTableRecord
  2
Continuous
 70
0
  3

 72
65
 73
0
 40
0.0
  0
ENDTAB
  0
TABLE
  2
LAYER
  5
1
330
0
100
AcDbSymbolTable
 70
6
  0
LAYER
  5
27
330
1
100
AcDbSymbolTableRecord
100
AcDbLayerTableRecord
  2
0
 70
0
 62
7
  6
Continuous
370
-3
390
13
347
21
  0
LAYER
  5
28
330
1
100
AcDbSymbolTableRecord
100
AcDbLayerTableRecord
  2
Defpoints
 70
0
 62
7
  6
Continuous
290
0
370
-3
390
13
347
21
  0
LAYER
  5
2F
330
1
100
AcDbSymbolTableRecord
100
AcDbLayerTableRecord
  2
FILL_WHITE_FFFFFF
 70
0
 62
7
420
16777215
  6
Continuous
370
-3
390
13
347
21
  0
LAYER
  5
32
330
1
100
AcDbSymbolTableRecord
100
AcDbLayerTableRecord
  2
FILL_BLUE_0000FF
 70
0
 62
7
420
255
  6
Continuous
370
-3
390
13
347
21
  0
LAYER
  5
C5
330
1
100
AcDbSymbolTableRecord
100
AcDbLayerTableRecord
  2
STROKE_WHITE_FFFFFF
 70
0
 62
7
420
16777215
  6
Continuous
370
-3
390
13
347
21
  0
LAYER
  5
E3
330
1
100
AcDbSymbolTableRecord
100
AcDbLayerTableRecord
  2
STROKE_BLUE_0000FF
 70
0
 62
7
420
255
  6
Continuous
370
-3
390
13
347
21
  0
ENDTAB
  0
TABLE
  2
STYLE
  5
5
330
0
100
AcDbSymbolTable
 70
1
  0
STYLE
  5
29
330
5
100
AcDbSymbolTableRecord
100
AcDbTextStyleTableRecord
  2
Standard
 70
0
 40
0.0
 41
1.0
 50
0.0
 71
0
 42
2.5
  3
txt
  4

  0
ENDTAB
  0
TABLE
  2
VIEW
  5
7
330
0
100
AcDbSymbolTable
 70
0
  0
ENDTAB
  0
TABLE
  2
UCS
  5
6
330
0
100
AcDbSymbolTable
 70
0
  0
ENDTAB
  0
TABLE
  2
APPID
  5
3
330
0
100
AcDbSymbolTable
 70
3
  0
APPID
  5
2A
330
3
100
AcDbSymbolTableRecord
100
AcDbRegAppTableRecord
  2
ACAD
 70
0
  0
APPID
  5
E5
330
3
100
AcDbSymbolTableRecord
100
AcDbRegAppTableRecord
  2
HATCHBACKGROUNDCOLOR
 70
0
  0
APPID
  5
E6
330
3
100
AcDbSymbolTableRecord
100
AcDbRegAppTableRecord
  2
EZDXF
 70
0
  0
ENDTAB
  0
TABLE
  2
DIMSTYLE
  5
4
330
0
100
AcDbSymbolTable
 70
1
100
AcDbDimStyleTable
  0
DIMSTYLE
105
2B
330
4
100
AcDbSymbolTableRecord
100
AcDbDimStyleTableRecord
  2
Standard
 70
0
 40
1.0
 41
2.5
 42
0.625
 43
3.75
 44
1.25
 45
0.0
 46
0.0
 47
0.0
 48
0.0
 49
2.5
140
2.5
141
2.5
142
0.0
143
0.03937007874
144
1.0
145
0.0
146
1.0
147
0.625
148
0.0
 69
0
 70
0
 71
0
 72
0
 73
0
 74
0
 75
0
 76
0
 77
1
 78
8
 79
3
170
0
171
3
172
1
173
0
174
0
175
0
176
0
177
0
178
0
179
2
271
2
272
2
273
2
274
3
275
0
276
0
277
2
278
44
279
0
280
0
281
0
282
0
283
0
284
8
285
0
286
0
288
0
289
3
290
0
371
-2
372
-2
  0
ENDTAB
  0
TABLE
  2
BLOCK_RECORD
  5
9
330
0
100
AcDbSymbolTable
 70
2
  0
BLOCK_RECORD
  5
17
330
9
100
AcDbSymbolTableRecord
100
AcDbBlockTableRecord
  2
*Model_Space
340
1A
 70
0
280
1
281
0
  0
BLOCK_RECORD
  5
1B
330
9
100
AcDbSymbolTableRecord
100
AcDbBlockTableRecord
  2
*Paper_Space
340
1E
 70
0
280
1
281
0
  0
ENDTAB
  0
ENDSEC
  0
SECTION
  2
BLOCKS
  0
BLOCK
  5
18
330
17
100
AcDbEntity
  8
0
100
AcDbBlockBegin
  2
*Model_Space
 70
0
 10
0.0
 20
0.0
 30
0.0
  3
*Model_Space
  1

  0
ENDBLK
  5
19
330
17
100
AcDbEntity
  8
0
100
AcDbBlockEnd
  0
BLOCK
  5
1C
330
1B
100
AcDbEntity
  8
0
100
AcDbBlockBegin
  2
*Paper_Space
 70
0
 10
0.0
 20
0.0
 30
0.0
  3
*Paper_Space
  1

  0
ENDBLK
  5
1D
330
1B
100
AcDbEntity
  8
0
100
AcDbBlockEnd
  0
ENDSEC
  0
SECTION
  2
ENTITIES
  0
HATCH
  5
30
330
17
100
AcDbEntity
  8
FILL_WHITE_FFFFFF
 62
7
420
16777215
100
AcDbHatch
 10
0.0
 20
0.0
 30
0.0
210
0.0
220
0.0
230
1.0
  2
SOLID
 70
1
 71
0
 91
1
 92
3
 72
0
 73
1
 93
69
 10
56.25
 20
9.36
 10
54.85
 20
9.42
 10
53.38
 20
9.6
 10
51.88
 20
9.93
 10
50.4
 20
10.41
 10
48.97
 20
11.06
 10
47.64
 20
11.89
 10
46.46
 20
12.92
 10
45.45
 20
14.16
 10
44.21
 20
15.17
 10
43.18
 20
16.35
 10
42.35
 20
17.68
 10
41.7
 20
19.11
 10
41.22
 20
20.59
 10
40.89
 20
22.09
 10
40.71
 20
23.56
 10
40.65
 20
24.96
 10
40.65
 20
246.96
 10
40.71
 20
248.31
 10
40.89
 20
249.66
 10
41.22
 20
251.01
 10
41.7
 20
252.36
 10
42.35
 20
253.71
 10
43.18
 20
255.06
 10
44.21
 20
256.41
 10
45.45
 20
257.76
 10
46.46
 20
259.0
 10
47.64
 20
260.03
 10
48.97
 20
260.86
 10
50.4
 20
261.51
 10
51.88
 20
261.99
 10
53.38
 20
262.32
 10
54.85
 20
262.5
 10
56.25
 20
262.56
 10
511.05
 20
262.56
 10
512.45
 20
262.5
 10
513.92
 20
262.32
 10
515.42
 20
261.99
 10
516.9
 20
261.51
 10
518.33
 20
260.86
 10
519.66
 20
260.03
 10
520.84
 20
259.0
 10
521.85
 20
257.76
 10
523.09
 20
256.41
 10
524.12
 20
255.06
 10
524.95
 20
253.71
 10
525.6
 20
252.36
 10
526.08
 20
251.01
 10
526.41
 20
249.66
 10
526.59
 20
248.31
 10
526.65
 20
246.96
 10
526.65
 20
24.96
 10
526.59
 20
23.56
 10
526.41
 20
22.09
 10
526.08
 20
20.59
 10
525.6
 20
19.11
 10
524.95
 20
17.68
 10
524.12
 20
16.35
 10
523.09
 20
15.17
 10
521.85
 20
14.16
 10
520.84
 20
12.92
 10
519.66
 20
11.89
 10
518.33
 20
11.06
 10
516.9
 20
10.41
 10
515.42
 20
9.93
 10
513.92
 20
9.6
 10
512.45
 20
9.42
 10
511.05
 20
9.36
 10
56.25
 20
9.36
 97
0
 75
1
 76
1
 98
0
  0
LWPOLYLINE
  5
31
330
17
100
AcDbEntity
  8
FILL_WHITE_FFFFFF
370
0
420
16777215
100
AcDbPolyline
 90
68
 70
1
 10
56.25
 20
9.36
 10
54.85
 20
9.42
 10
53.38
 20
9.6
 10
51.88
 20
9.93
 10
50.4
 20
10.41
 10
48.97
 20
11.06
 10
47.64
 20
11.89
 10
46.46
 20
12.92
 10
45.45
 20
14.16
 10
44.21
 20
15.17
 10
43.18
 20
16.35
 10
42.35
 20
17.68
 10
41.7
 20
19.11
 10
41.22
 20
20.59
 10
40.89
 20
22.09
 10
40.71
 20
23.56
 10
40.65
 20
24.96
 10
40.65
 20
246.96
 10
40.71
 20
248.31
 10
40.89
 20
249.66
 10
41.22
 20
251.01
 10
41.7
 20
252.36
 10
42.35
 20
253.71
 10
43.18
 20
255.06
 10
44.21
 20
256.41
 10
45.45
 20
257.76
 10
46.46
 20
259.0
 10
47.64
 20
260.03
 10
48.97
 20
260.86
 10
50.4
 20
261.51
 10
51.88
 20
261.99
 10
53.38
 20
262.32
 10
54.85
 20
262.5
 10
56.25
 20
262.56
 10
511.05
 20
262.56
 10
512.45
 20
262.5
 10
513.92
 20
262.32
 10
515.42
 20
261.99
 10
516.9
 20
261.51
 10
518.33
 20
260.86
 10
519.66
 20
260.03
 10
520.84
 20
259.0
 10
521.85
 20
257.76
 10
523.09
 20
256.41
 10
524.12
 20
255.06
 10
524.95
 20
253.71
 10
525.6
 20
252.36
 10
526.08
 20
251.01
 10
526.41
 20
249.66
 10
526.59
 20
248.31
 10
526.65
 20
246.96
 10
526.65
 20
24.96
 10
526.59
 20
23.56
 10
526.41
 20
22.09
 10
526.08
 20
20.59
 10
525.6
 20
19.11
 10
524.95
 20
17.68
 10
524.12
 20
16.35
 10
523.09
 20
15.17
 10
521.85
 20
14.16
 10
520.84
 20
12.92
 10
519.66
 20
11.89
 10
518.33
 20
11.06
 10
516.9
 20
10.41
 10
515.42
 20
9.93
 10
513.92
 20
9.6
 10
512.45
 20
9.42
 10
511.05
 20
9.36
  0
HATCH
  5
33
330
17
100
AcDbEntity
  8
FILL_BLUE_0000FF
 62
7
420
255
100
AcDbHatch
 10
0.0
 20
0.0
 30
0.0
210
0.0
220
0.0
230
1.0
  2
SOLID
 70
1
 71
0
 91
1
 92
3
 72
0
 73
1
 93
47
 10
56.25
 20
16.56
 10
55.35
 20
16.58
 10
54.45
 20
16.71
 10
53.55
 20
17.07
 10
52.65
 20
17.76
 10
51.9
 20
17.91
 10
51.13
 20
18.27
 10
50.25
 20
18.96
 10
50.2
 20
19.36
 10
50.06
 20
19.67
 10
49.65
 20
20.16
 10
49.24
 20
20.65
 10
49.1
 20
20.96
 10
49.05
 20
21.36
 10
48.36
 20
22.26
 10
48.0
 20
23.16
 10
47.87
 20
24.06
 10
47.85
 20
24.96
 10
47.85
 20
246.96
 10
47.9
 20
247.81
 10
48.06
 20
248.57
 10
48.6
 20
249.96
 10
50.25
 20
252.96
 10
51.13
 20
253.15
 10
51.9
 20
253.56
 10
52.65
 20
254.16
 10
56.25
 20
254.16
 10
511.05
 20
254.16
 10
512.66
 20
254.14
 10
514.05
 20
254.01
 10
515.44
 20
253.65
 10
517.05
 20
252.96
 10
517.24
 20
252.06
 10
517.65
 20
251.16
 10
518.06
 20
250.26
 10
518.25
 20
249.36
 10
518.25
 20
246.96
 10
518.25
 20
24.96
 10
518.14
 20
23.22
 10
517.8
 20
21.62
 10
517.24
 20
20.19
 10
516.45
 20
18.96
 10
515.44
 20
17.95
 10
514.2
 20
17.2
 10
512.74
 20
16.72
 10
511.05
 20
16.56
 10
56.25
 20
16.56
 97
0
 75
1
 76
1
 98
0
  0
LWPOLYLINE
  5
34
330
17
100
AcDbEntity
  8
FILL_BLUE_0000FF
370
0
420
255
100
AcDbPolyline
 90
46
 70
1
 10
56.25
 20
16.56
 10
55.35
 20
16.58
 10
54.45
 20
16.71
 10
53.55
 20
17.07
 10
52.65
 20
17.76
 10
51.9
 20
17.91
 10
51.13
 20
18.27
 10
50.25
 20
18.96
 10
50.2
 20
19.36
 10
50.06
 20
19.67
 10
49.65
 20
20.16
 10
49.24
 20
20.65
 10
49.1
 20
20.96
 10
49.05
 20
21.36
 10
48.36
 20
22.26
 10
48.0
 20
23.16
 10
47.87
 20
24.06
 10
47.85
 20
24.96
 10
47.85
 20
246.96
 10
47.9
 20
247.81
 10
48.06
 20
248.57
 10
48.6
 20
249.96
 10
50.25
 20
252.96
 10
51.13
 20
253.15
 10
51.9
 20
253.56
 10
52.65
 20
254.16
 10
56.25
 20
254.16
 10
511.05
 20
254.16
 10
512.66
 20
254.14
 10
514.05
 20
254.01
 10
515.44
 20
253.65
 10
517.05
 20
252.96
 10
517.24
 20
252.06
 10
517.65
 20
251.16
 10
518.06
 20
250.26
 10
518.25
 20
249.36
 10
518.25
 20
246.96
 10
518.25
 20
24.96
 10
518.14
 20
23.22
 10
517.8
 20
21.62
 10
517.24
 20
20.19
 10
516.45
 20
18.96
 10
515.44
 20
17.95
 10
514.2
 20
17.2
 10
512.74
 20
16.72
 10
511.05
 20
16.56
  0
HATCH
  5
35
330
17
100
AcDbEntity
  8
FILL_WHITE_FFFFFF
 62
7
420
16777215
100
AcDbHatch
 10
0.0
 20
0.0
 30
0.0
210
0.0
220
0.0
230
1.0
  2
SOLID
 70
1
 71
0
 91
1
 92
3
 72
0
 73
1
 93
13
 10
65.85
 20
237.36
 10
82.65
 20
237.36
 10
82.65
 20
232.56
 10
69.45
 20
232.56
 10
69.45
 20
225.36
 10
82.65
 20
225.36
 10
82.65
 20
221.76
 10
69.45
 20
221.76
 10
69.45
 20
213.36
 10
83.85
 20
213.36
 10
83.85
 20
208.56
 10
65.85
 20
208.56
 10
65.85
 20
237.36
 97
0
 75
1
 76
1
 98
0
  0
LWPOLYLINE
  5
36
330
17
100
AcDbEntity
  8
FILL_WHITE_FFFFFF
370
0
420
16777215
100
AcDbPolyline
 90
12
 70
1
 10
65.85
 20
237.36
 10
82.65
 20
237.36
 10
82.65
 20
232.56
 10
69.45
 20
232.56
 10
69.45
 20
225.36
 10
82.65
 20
225.36
 10
82.65
 20
221.76
 10
69.45
 20
221.76
 10
69.45
 20
213.36
 10
83.85
 20
213.36
 10
83.85
 20
208.56
 10
65.85
 20
208.56
  0
HATCH
  5
37
330
17
100
AcDbEntity
  8
FILL_WHITE_FFFFFF
 62
7
420
16777215
100
AcDbHatch
 10
0.0
 20
0.0
 30
0.0
210
0.0
220
0.0
230
1.0
  2
SOLID
 70
1
 71
0
 91
1
 92
3
 72
0
 73
1
 93
13
 10
112.65
 20
208.56
 10
106.65
 20
208.56
 10
100.65
 20
219.36
 10
93.45
 20
208.56
 10
88.65
 20
208.56
 10
97.05
 20
224.16
 10
89.85
 20
237.36
 10
94.65
 20
237.36
 10
100.65
 20
228.96
 10
105.45
 20
237.36
 10
111.45
 20
237.36
 10
103.05
 20
224.16
 10
112.65
 20
208.56
 97
0
 75
1
 76
1
 98
0
  0
LWPOLYLINE
  5
38
330
17
100
AcDbEntity
  8
FILL_WHITE_FFFFFF
370
0
420
16777215
100
AcDbPolyline
 90
12
 70
1
 10
112.65
 20
208.56
 10
106.65
 20
208.56
 10
100.65
 20
219.36
 10
93.45
 20
208.56
 10
88.65
 20
208.56
 10
97.05
 20
224.16
 10
89.85
 20
237.36
 10
94.65
 20
237.36
 10
100.65
 20
228.96
 10
105.45
 20
237.36
 10
111.45
 20
237.36
 10
103.05
 20
224.16
  0
HATCH
  5
39
330
17
100
AcDbEntity
  8
FILL_WHITE_FFFFFF
 62
7
420
16777215
100
AcDbHatch
 10
0.0
 20
0.0
 30
0.0
210
0.0
220
0.0
230
1.0
  2
SOLID
 70
1
 71
0
 91
2
 92
3
 72
0
 73
1
 93
25
 10
132.79
 20
236.72
 10
134.22
 20
235.97
 10
135.45
 20
234.96
 10
136.46
 20
233.73
 10
137.21
 20
232.3
 10
137.69
 20
230.7
 10
137.85
 20
228.96
 10
137.64
 20
227.16
 10
137.1
 20
225.36
 10
136.33
 20
223.56
 10
135.45
 20
221.76
 10
134.57
 20
221.57
 10
133.8
 20
221.16
 10
133.05
 20
220.56
 10
132.15
 20
219.87
 10
131.25
 20
219.51
 10
130.35
 20
219.38
 10
129.45
 20
219.36
 10
123.45
 20
219.36
 10
123.45
 20
208.56
 10
117.45
 20
208.56
 10
117.45
 20
237.36
 10
129.45
 20
237.36
 10
131.19
 20
237.2
 10
132.79
 20
236.72
 97
0
 92
18
 72
0
 73
1
 93
18
 10
128.25
 20
224.16
 10
129.15
 20
224.18
 10
130.05
 20
224.31
 10
130.95
 20
224.67
 10
131.85
 20
225.36
 10
132.04
 20
226.26
 10
132.45
 20
227.16
 10
132.86
 20
228.06
 10
133.05
 20
228.96
 10
132.86
 20
229.84
 10
132.45
 20
230.61
 10
131.85
 20
231.36
 10
130.05
 20
233.01
 10
129.15
 20
233.55
 10
128.25
 20
233.76
 10
123.45
 20
233.76
 10
123.45
 20
224.16
 10
128.25
 20
224.16
 97
0
 75
1
 76
1
 98
0
  0
LWPOLYLINE
  5
3A
330
17
100
AcDbEntity
  8
FILL_WHITE_FFFFFF
370
0
420
16777215
100
AcDbPolyline
 90
24
 70
1
 10
132.79
 20
236.72
 10
134.22
 20
235.97
 10
135.45
 20
234.96
 10
136.46
 20
233.73
 10
137.21
 20
232.3
 10
137.69
 20
230.7
 10
137.85
 20
228.96
 10
137.64
 20
227.16
 10
137.1
 20
225.36
 10
136.33
 20
223.56
 10
135.45
 20
221.76
 10
134.57
 20
221.57
 10
133.8
 20
221.16
 10
133.05
 20
220.56
 10
132.15
 20
219.87
 10
131.25
 20
219.51
 10
130.35
 20
219.38
 10
129.45
 20
219.36
 10
123.45
 20
219.36
 10
123.45
 20
208.56
 10
117.45
 20
208.56
 10
117.45
 20
237.36
 10
129.45
 20
237.36
 10
131.19
 20
237.2
  0
LWPOLYLINE
  5
3B
330
17
100
AcDbEntity
  8
FILL_WHITE_FFFFFF
370
0
420
16777215
100
AcDbPolyline
 90
17
 70
1
 10
128.25
 20
224.16
 10
129.15
 20
224.18
 10
130.05
 20
224.31
 10
130.95
 20
224.67
 10
131.85
 20
225.36
 10
132.04
 20
226.26
 10
132.45
 20
227.16
 10
132.86
 20
228.06
 10
133.05
 20
228.96
 10
132.86
 20
229.84
 10
132.45
 20
230.61
 10
131.85
 20
231.36
 10
130.05
 20
233.01
 10
129.15
 20
233.55
 10
128.25
 20
233.76
 10
123.45
 20
233.76
 10
123.45
 20
224.16
  0
HATCH
  5
3C
330
17
100
AcDbEntity
  8
FILL_WHITE_FFFFFF
 62
7
420
16777215
100
AcDbHatch
 10
0.0
 20
0.0
 30
0.0
210
0.0
220
0.0
230
1.0
  2
SOLID
 70
1
 71
0
 91
2
 92
3
 72
0
 73
1
 93
25
 10
153.45
 20
220.56
 10
148.65
 20
220.56
 10
148.65
 20
208.56
 10
143.85
 20
208.56
 10
143.85
 20
237.36
 10
157.05
 20
237.36
 10
158.25
 20
237.36
 10
159.45
 20
237.36
 10
161.85
 20
234.96
 10
162.73
 20
234.04
 10
163.5
 20
233.01
 10
164.04
 20
231.75
 10
164.2
 20
231.01
 10
164.25
 20
230.16
 10
164.19
 20
228.42
 10
164.01
 20
226.8
 10
163.68
 20
225.33
 10
163.2
 20
224.01
 10
162.55
 20
222.86
 10
161.72
 20
221.89
 10
160.69
 20
221.12
 10
159.45
 20
220.56
 10
164.25
 20
208.56
 10
159.45
 20
208.56
 10
153.45
 20
220.56
 97
0
 92
18
 72
0
 73
1
 93
20
 10
156.56
 20
224.18
 10
157.05
 20
224.31
 10
157.54
 20
224.67
 10
158.25
 20
225.36
 10
158.94
 20
226.26
 10
159.3
 20
227.16
 10
159.43
 20
228.06
 10
159.45
 20
228.96
 10
159.39
 20
229.86
 10
159.23
 20
230.72
 10
158.94
 20
231.53
 10
158.55
 20
232.26
 10
158.04
 20
232.87
 10
157.43
 20
233.35
 10
156.69
 20
233.65
 10
155.85
 20
233.76
 10
148.65
 20
233.76
 10
148.65
 20
224.16
 10
155.85
 20
224.16
 10
156.56
 20
224.18
 97
0
 75
1
 76
1
 98
0
  0
LWPOLYLINE
  5
3D
330
17
100
AcDbEntity
  8
FILL_WHITE_FFFFFF
370
0
420
16777215
100
AcDbPolyline
 90
24
 70
1
 10
153.45
 20
220.56
 10
148.65
 20
220.56
 10
148.65
 20
208.56
 10
143.85
 20
208.56
 10
143.85
 20
237.36
 10
157.05
 20
237.36
 10
158.25
 20
237.36
 10
159.45
 20
237.36
 10
161.85
 20
234.96
 10
162.73
 20
234.04
 10
163.5
 20
233.01
 10
164.04
 20
231.75
 10
164.2
 20
231.01
 10
164.25
 20
230.16
 10
164.19
 20
228.42
 10
164.01
 20
226.8
 10
163.68
 20
225.33
 10
163.2
 20
224.01
 10
162.55
 20
222.86
 10
161.72
 20
221.89
 10
160.69
 20
221.12
 10
159.45
 20
220.56
 10
164.25
 20
208.56
 10
159.45
 20
208.56
  0
LWPOLYLINE
  5
3E
330
17
100
AcDbEntity
  8
FILL_WHITE_FFFFFF
370
0
420
16777215
100
AcDbPolyline
 90
19
 70
1
 10
156.56
 20
224.18
 10
157.05
 20
224.31
 10
157.54
 20
224.67
 10
158.25
 20
225.36
 10
158.94
 20
226.26
 10
159.3
 20
227.16
 10
159.43
 20
228.06
 10
159.45
 20
228.96
 10
159.39
 20
229.86
 10
159.23
 20
230.72
 10
158.94
 20
231.53
 10
158.55
 20
232.26
 10
158.04
 20
232.87
 10
157.43
 20
233.35
 10
156.69
 20
233.65
 10
155.85
 20
233.76
 10
148.65
 20
233.76
 10
148.65
 20
224.16
 10
155.85
 20
224.16
  0
HATCH
  5
3F
330
17
100
AcDbEntity
  8
FILL_WHITE_FFFFFF
 62
7
420
16777215
100
AcDbHatch
 10
0.0
 20
0.0
 30
0.0
210
0.0
220
0.0
230
1.0
  2
SOLID
 70
1
 71
0
 91
1
 92
3
 72
0
 73
1
 93
13
 10
172.65
 20
237.36
 10
190.65
 20
237.36
 10
190.65
 20
232.56
 10
177.45
 20
232.56
 10
177.45
 20
225.36
 10
189.45
 20
225.36
 10
189.45
 20
221.76
 10
177.45
 20
221.76
 10
177.45
 20
213.36
 10
191.85
 20
213.36
 10
191.85
 20
208.56
 10
172.65
 20
208.56
 10
172.65
 20
237.36
 97
0
 75
1
 76
1
 98
0
  0
LWPOLYLINE
  5
40
330
17
100
AcDbEntity
  8
FILL_WHITE_FFFFFF
370
0
420
16777215
100
AcDbPolyline
 90
12
 70
1
 10
172.65
 20
237.36
 10
190.65
 20
237.36
 10
190.65
 20
232.56
 10
177.45
 20
232.56
 10
177.45
 20
225.36
 10
189.45
 20
225.36
 10
189.45
 20
221.76
 10
177.45
 20
221.76
 10
177.45
 20
213.36
 10
191.85
 20
213.36
 10
191.85
 20
208.56
 10
172.65
 20
208.56
  0
HATCH
  5
41
330
17
100
AcDbEntity
  8
FILL_WHITE_FFFFFF
 62
7
420
16777215
100
AcDbHatch
 10
0.0
 20
0.0
 30
0.0
210
0.0
220
0.0
230
1.0
  2
SOLID
 70
1
 71
0
 91
1
 92
3
 72
0
 73
1
 93
102
 10
214.09
 20
231.0
 10
213.36
 20
231.73
 10
212.48
 20
232.35
 10
211.5
 20
232.86
 10
210.47
 20
233.25
 10
209.42
 20
233.53
 10
208.4
 20
233.7
 10
207.45
 20
233.76
 10
206.57
 20
233.74
 10
205.8
 20
233.61
 10
205.26
 20
233.25
 10
205.1
 20
232.96
 10
205.05
 20
232.56
 10
203.4
 20
230.76
 10
202.86
 20
229.86
 10
202.65
 20
228.96
 10
205.05
 20
226.56
 10
206.25
 20
226.56
 10
213.45
 20
225.36
 10
214.05
 20
225.21
 10
214.46
 20
224.85
 10
214.6
 20
224.56
 10
214.65
 20
224.16
 10
215.36
 20
224.14
 10
215.85
 20
224.01
 10
216.34
 20
223.65
 10
217.05
 20
222.96
 10
218.7
 20
221.16
 10
219.24
 20
220.26
 10
219.45
 20
219.36
 10
219.45
 20
216.96
 10
219.24
 20
215.18
 10
218.7
 20
213.51
 10
217.93
 20
212.07
 10
217.05
 20
210.96
 10
215.06
 20
210.08
 10
212.85
 20
209.31
 10
210.64
 20
208.77
 10
208.65
 20
208.56
 10
207.35
 20
208.61
 10
206.16
 20
208.77
 10
204.0
 20
209.31
 10
202.07
 20
210.08
 10
200.25
 20
210.96
 10
198.45
 20
212.61
 10
197.55
 20
213.15
 10
196.65
 20
213.36
 10
201.45
 20
216.96
 10
202.01
 20
216.12
 10
202.74
 20
215.38
 10
203.62
 20
214.77
 10
204.6
 20
214.26
 10
205.63
 20
213.87
 10
206.68
 20
213.58
 10
207.7
 20
213.42
 10
208.65
 20
213.36
 10
210.43
 20
213.4
 10
212.1
 20
213.66
 10
212.86
 20
213.95
 10
213.54
 20
214.37
 10
214.15
 20
214.97
 10
214.65
 20
215.76
 10
214.63
 20
216.66
 10
214.5
 20
217.56
 10
214.14
 20
218.46
 10
213.45
 20
219.36
 10
213.34
 20
219.76
 10
213.04
 20
220.07
 10
211.95
 20
220.56
 10
210.41
 20
221.05
 10
208.65
 20
221.76
 10
207.04
 20
221.78
 10
205.65
 20
221.91
 10
204.26
 20
222.27
 10
202.65
 20
222.96
 10
201.9
 20
223.11
 10
201.13
 20
223.47
 10
200.25
 20
224.16
 10
199.37
 20
225.25
 10
198.6
 20
226.56
 10
198.06
 20
227.87
 10
197.85
 20
228.96
 10
198.06
 20
230.74
 10
198.6
 20
232.41
 10
199.37
 20
233.85
 10
200.25
 20
234.96
 10
201.15
 20
235.75
 10
202.07
 20
236.35
 10
203.01
 20
236.77
 10
204.0
 20
237.06
 10
206.16
 20
237.32
 10
208.65
 20
237.36
 10
210.0
 20
237.3
 10
211.33
 20
237.13
 10
212.64
 20
236.85
 10
213.9
 20
236.46
 10
215.11
 20
235.95
 10
216.24
 20
235.33
 10
217.3
 20
234.6
 10
218.25
 20
233.76
 10
214.65
 20
230.16
 10
214.09
 20
231.0
 97
0
 75
1
 76
1
 98
0
  0
LWPOLYLINE
  5
42
330
17
100
AcDbEntity
  8
FILL_WHITE_FFFFFF
370
0
420
16777215
100
AcDbPolyline
 90
101
 70
1
 10
214.09
 20
231.0
 10
213.36
 20
231.73
 10
212.48
 20
232.35
 10
211.5
 20
232.86
 10
210.47
 20
233.25
 10
209.42
 20
233.53
 10
208.4
 20
233.7
 10
207.45
 20
233.76
 10
206.57
 20
233.74
 10
205.8
 20
233.61
 10
205.26
 20
233.25
 10
205.1
 20
232.96
 10
205.05
 20
232.56
 10
203.4
 20
230.76
 10
202.86
 20
229.86
 10
202.65
 20
228.96
 10
205.05
 20
226.56
 10
206.25
 20
226.56
 10
213.45
 20
225.36
 10
214.05
 20
225.21
 10
214.46
 20
224.85
 10
214.6
 20
224.56
 10
214.65
 20
224.16
 10
215.36
 20
224.14
 10
215.85
 20
224.01
 10
216.34
 20
223.65
 10
217.05
 20
222.96
 10
218.7
 20
221.16
 10
219.24
 20
220.26
 10
219.45
 20
219.36
 10
219.45
 20
216.96
 10
219.24
 20
215.18
 10
218.7
 20
213.51
 10
217.93
 20
212.07
 10
217.05
 20
210.96
 10
215.06
 20
210.08
 10
212.85
 20
209.31
 10
210.64
 20
208.77
 10
208.65
 20
208.56
 10
207.35
 20
208.61
 10
206.16
 20
208.77
 10
204.0
 20
209.31
 10
202.07
 20
210.08
 10
200.25
 20
210.96
 10
198.45
 20
212.61
 10
197.55
 20
213.15
 10
196.65
 20
213.36
 10
201.45
 20
216.96
 10
202.01
 20
216.12
 10
202.74
 20
215.38
 10
203.62
 20
214.77
 10
204.6
 20
214.26
 10
205.63
 20
213.87
 10
206.68
 20
213.58
 10
207.7
 20
213.42
 10
208.65
 20
213.36
 10
210.43
 20
213.4
 10
212.1
 20
213.66
 10
212.86
 20
213.95
 10
213.54
 20
214.37
 10
214.15
 20
214.97
 10
214.65
 20
215.76
 10
214.63
 20
216.66
 10
214.5
 20
217.56
 10
214.14
 20
218.46
 10
213.45
 20
219.36
 10
213.34
 20
219.76
 10
213.04
 20
220.07
 10
211.95
 20
220.56
 10
210.41
 20
221.05
 10
208.65
 20
221.76
 10
207.04
 20
221.78
 10
205.65
 20
221.91
 10
204.26
 20
222.27
 10
202.65
 20
222.96
 10
201.9
 20
223.11
 10
201.13
 20
223.47
 10
200.25
 20
224.16
 10
199.37
 20
225.25
 10
198.6
 20
226.56
 10
198.06
 20
227.87
 10
197.85
 20
228.96
 10
198.06
 20
230.74
 10
198.6
 20
232.41
 10
199.37
 20
233.85
 10
200.25
 20
234.96
 10
201.15
 20
235.75
 10
202.07
 20
236.35
 10
203.01
 20
236.77
 10
204.0
 20
237.06
 10
206.16
 20
237.32
 10
208.65
 20
237.36
 10
210.0
 20
237.3
 10
211.33
 20
237.13
 10
212.64
 20
236.85
 10
213.9
 20
236.46
 10
215.11
 20
235.95
 10
216.24
 20
235.33
 10
217.3
 20
234.6
 10
218.25
 20
233.76
 10
214.65
 20
230.16
  0
HATCH
  5
43
330
17
100
AcDbEntity
  8
FILL_WHITE_FFFFFF
 62
7
420
16777215
100
AcDbHatch
 10
0.0
 20
0.0
 30
0.0
210
0.0
220
0.0
230
1.0
  2
SOLID
 70
1
 71
0
 91
1
 92
3
 72
0
 73
1
 93
106
 10
241.69
 20
231.0
 10
240.96
 20
231.73
 10
240.08
 20
232.35
 10
239.1
 20
232.86
 10
238.07
 20
233.25
 10
237.02
 20
233.53
 10
236.0
 20
233.7
 10
235.05
 20
233.76
 10
234.34
 20
233.74
 10
233.85
 20
233.61
 10
233.36
 20
233.25
 10
232.65
 20
232.56
 10
231.0
 20
230.76
 10
230.46
 20
229.86
 10
230.25
 20
228.96
 10
230.65
 20
228.91
 10
230.96
 20
228.75
 10
231.45
 20
228.21
 10
231.94
 20
227.44
 10
232.65
 20
226.56
 10
233.85
 20
226.56
 10
241.05
 20
225.36
 10
241.65
 20
225.21
 10
242.06
 20
224.85
 10
242.2
 20
224.56
 10
242.25
 20
224.16
 10
242.96
 20
224.14
 10
243.45
 20
224.01
 10
243.94
 20
223.65
 10
244.65
 20
222.96
 10
246.3
 20
221.16
 10
246.84
 20
220.26
 10
247.05
 20
219.36
 10
247.05
 20
216.96
 10
246.84
 20
215.18
 10
246.3
 20
213.51
 10
245.53
 20
212.07
 10
244.65
 20
210.96
 10
242.83
 20
210.08
 10
240.9
 20
209.31
 10
238.74
 20
208.77
 10
237.55
 20
208.61
 10
236.25
 20
208.56
 10
234.26
 20
208.77
 10
232.05
 20
209.31
 10
229.84
 20
210.08
 10
227.85
 20
210.96
 10
226.05
 20
212.61
 10
225.15
 20
213.15
 10
224.25
 20
213.36
 10
229.05
 20
216.96
 10
230.85
 20
215.38
 10
232.65
 20
214.26
 10
233.55
 20
213.87
 10
234.45
 20
213.58
 10
235.35
 20
213.42
 10
236.25
 20
213.36
 10
238.03
 20
213.4
 10
239.7
 20
213.66
 10
240.46
 20
213.95
 10
241.14
 20
214.37
 10
241.75
 20
214.97
 10
242.25
 20
215.76
 10
242.25
 20
219.36
 10
241.75
 20
219.76
 10
241.14
 20
220.07
 10
239.7
 20
220.56
 10
238.03
 20
221.05
 10
236.25
 20
221.76
 10
234.64
 20
221.78
 10
233.25
 20
221.91
 10
231.86
 20
222.27
 10
230.25
 20
222.96
 10
229.65
 20
223.11
 10
229.24
 20
223.47
 10
229.1
 20
223.76
 10
229.05
 20
224.16
 10
228.21
 20
224.66
 10
227.48
 20
225.25
 10
226.86
 20
225.89
 10
226.35
 20
226.56
 10
225.68
 20
227.87
 10
225.45
 20
228.96
 10
225.51
 20
229.86
 10
225.68
 20
230.74
 10
225.96
 20
231.6
 10
226.35
 20
232.41
 10
226.86
 20
233.17
 10
227.48
 20
233.85
 10
228.21
 20
234.46
 10
229.05
 20
234.96
 10
229.61
 20
235.75
 10
230.34
 20
236.35
 10
231.22
 20
236.77
 10
232.2
 20
237.06
 10
234.28
 20
237.32
 10
236.25
 20
237.36
 10
237.6
 20
237.3
 10
238.95
 20
237.13
 10
240.3
 20
236.85
 10
241.65
 20
236.46
 10
243.0
 20
235.95
 10
244.35
 20
235.33
 10
247.05
 20
233.76
 10
242.25
 20
230.16
 10
241.69
 20
231.0
 97
0
 75
1
 76
1
 98
0
  0
LWPOLYLINE
  5
44
330
17
100
AcDbEntity
  8
FILL_WHITE_FFFFFF
370
0
420
16777215
100
AcDbPolyline
 90
105
 70
1
 10
241.69
 20
231.0
 10
240.96
 20
231.73
 10
240.08
 20
232.35
 10
239.1
 20
232.86
 10
238.07
 20
233.25
 10
237.02
 20
233.53
 10
236.0
 20
233.7
 10
235.05
 20
233.76
 10
234.34
 20
233.74
 10
233.85
 20
233.61
 10
233.36
 20
233.25
 10
232.65
 20
232.56
 10
231.0
 20
230.76
 10
230.46
 20
229.86
 10
230.25
 20
228.96
 10
230.65
 20
228.91
 10
230.96
 20
228.75
 10
231.45
 20
228.21
 10
231.94
 20
227.44
 10
232.65
 20
226.56
 10
233.85
 20
226.56
 10
241.05
 20
225.36
 10
241.65
 20
225.21
 10
242.06
 20
224.85
 10
242.2
 20
224.56
 10
242.25
 20
224.16
 10
242.96
 20
224.14
 10
243.45
 20
224.01
 10
243.94
 20
223.65
 10
244.65
 20
222.96
 10
246.3
 20
221.16
 10
246.84
 20
220.26
 10
247.05
 20
219.36
 10
247.05
 20
216.96
 10
246.84
 20
215.18
 10
246.3
 20
213.51
 10
245.53
 20
212.07
 10
244.65
 20
210.96
 10
242.83
 20
210.08
 10
240.9
 20
209.31
 10
238.74
 20
208.77
 10
237.55
 20
208.61
 10
236.25
 20
208.56
 10
234.26
 20
208.77
 10
232.05
 20
209.31
 10
229.84
 20
210.08
 10
227.85
 20
210.96
 10
226.05
 20
212.61
 10
225.15
 20
213.15
 10
224.25
 20
213.36
 10
229.05
 20
216.96
 10
230.85
 20
215.38
 10
232.65
 20
214.26
 10
233.55
 20
213.87
 10
234.45
 20
213.58
 10
235.35
 20
213.42
 10
236.25
 20
213.36
 10
238.03
 20
213.4
 10
239.7
 20
213.66
 10
240.46
 20
213.95
 10
241.14
 20
214.37
 10
241.75
 20
214.97
 10
242.25
 20
215.76
 10
242.25
 20
219.36
 10
241.75
 20
219.76
 10
241.14
 20
220.07
 10
239.7
 20
220.56
 10
238.03
 20
221.05
 10
236.25
 20
221.76
 10
234.64
 20
221.78
 10
233.25
 20
221.91
 10
231.86
 20
222.27
 10
230.25
 20
222.96
 10
229.65
 20
223.11
 10
229.24
 20
223.47
 10
229.1
 20
223.76
 10
229.05
 20
224.16
 10
228.21
 20
224.66
 10
227.48
 20
225.25
 10
226.86
 20
225.89
 10
226.35
 20
226.56
 10
225.68
 20
227.87
 10
225.45
 20
228.96
 10
225.51
 20
229.86
 10
225.68
 20
230.74
 10
225.96
 20
231.6
 10
226.35
 20
232.41
 10
226.86
 20
233.17
 10
227.48
 20
233.85
 10
228.21
 20
234.46
 10
229.05
 20
234.96
 10
229.61
 20
235.75
 10
230.34
 20
236.35
 10
231.22
 20
236.77
 10
232.2
 20
237.06
 10
234.28
 20
237.32
 10
236.25
 20
237.36
 10
237.6
 20
237.3
 10
238.95
 20
237.13
 10
240.3
 20
236.85
 10
241.65
 20
236.46
 10
243.0
 20
235.95
 10
244.35
 20
235.33
 10
247.05
 20
233.76
 10
242.25
 20
230.16
  0
HATCH
  5
45
330
17
100
AcDbEntity
  8
FILL_WHITE_FFFFFF
 62
7
420
16777215
100
AcDbHatch
 10
0.0
 20
0.0
 30
0.0
210
0.0
220
0.0
230
1.0
  2
SOLID
 70
1
 71
0
 91
1
 92
3
 72
0
 73
1
 93
15
 10
251.85
 20
237.36
 10
257.85
 20
237.36
 10
261.45
 20
216.96
 10
266.25
 20
237.36
 10
272.25
 20
237.36
 10
277.05
 20
216.96
 10
280.65
 20
237.36
 10
285.45
 20
237.36
 10
279.45
 20
208.56
 10
273.45
 20
208.56
 10
268.65
 20
230.16
 10
265.05
 20
208.56
 10
263.85
 20
208.56
 10
259.05
 20
208.56
 10
251.85
 20
237.36
 97
0
 75
1
 76
1
 98
0
  0
LWPOLYLINE
  5
46
330
17
100
AcDbEntity
  8
FILL_WHITE_FFFFFF
370
0
420
16777215
100
AcDbPolyline
 90
14
 70
1
 10
251.85
 20
237.36
 10
257.85
 20
237.36
 10
261.45
 20
216.96
 10
266.25
 20
237.36
 10
272.25
 20
237.36
 10
277.05
 20
216.96
 10
280.65
 20
237.36
 10
285.45
 20
237.36
 10
279.45
 20
208.56
 10
273.45
 20
208.56
 10
268.65
 20
230.16
 10
265.05
 20
208.56
 10
263.85
 20
208.56
 10
259.05
 20
208.56
  0
HATCH
  5
47
330
17
100
AcDbEntity
  8
FILL_WHITE_FFFFFF
 62
7
420
16777215
100
AcDbHatch
 10
0.0
 20
0.0
 30
0.0
210
0.0
220
0.0
230
1.0
  2
SOLID
 70
1
 71
0
 91
2
 92
3
 72
0
 73
1
 93
9
 10
314.25
 20
208.56
 10
309.45
 20
208.56
 10
308.25
 20
214.56
 10
296.25
 20
214.56
 10
295.05
 20
208.56
 10
290.25
 20
208.56
 10
298.65
 20
237.36
 10
304.65
 20
237.36
 10
314.25
 20
208.56
 97
0
 92
18
 72
0
 73
1
 93
4
 10
297.45
 20
218.16
 10
307.05
 20
218.16
 10
302.25
 20
232.56
 10
297.45
 20
218.16
 97
0
 75
1
 76
1
 98
0
  0
LWPOLYLINE
  5
48
330
17
100
AcDbEntity
  8
FILL_WHITE_FFFFFF
370
0
420
16777215
100
AcDbPolyline
 90
8
 70
1
 10
314.25
 20
208.56
 10
309.45
 20
208.56
 10
308.25
 20
214.56
 10
296.25
 20
214.56
 10
295.05
 20
208.56
 10
290.25
 20
208.56
 10
298.65
 20
237.36
 10
304.65
 20
237.36
  0
LWPOLYLINE
  5
49
330
17
100
AcDbEntity
  8
FILL_WHITE_FFFFFF
370
0
420
16777215
100
AcDbPolyline
 90
3
 70
1
 10
297.45
 20
218.16
 10
307.05
 20
218.16
 10
302.25
 20
232.56
  0
HATCH
  5
4A
330
17
100
AcDbEntity
  8
FILL_WHITE_FFFFFF
 62
7
420
16777215
100
AcDbHatch
 10
0.0
 20
0.0
 30
0.0
210
0.0
220
0.0
230
1.0
  2
SOLID
 70
1
 71
0
 91
1
 92
3
 72
0
 73
1
 93
10
 10
321.45
 20
237.36
 10
328.65
 20
225.36
 10
334.65
 20
237.36
 10
339.45
 20
237.36
 10
331.05
 20
220.56
 10
331.05
 20
208.56
 10
326.25
 20
208.56
 10
326.25
 20
220.56
 10
316.65
 20
237.36
 10
321.45
 20
237.36
 97
0
 75
1
 76
1
 98
0
  0
LWPOLYLINE
  5
4B
330
17
100
AcDbEntity
  8
FILL_WHITE_FFFFFF
370
0
420
16777215
100
AcDbPolyline
 90
9
 70
1
 10
321.45
 20
237.36
 10
328.65
 20
225.36
 10
334.65
 20
237.36
 10
339.45
 20
237.36
 10
331.05
 20
220.56
 10
331.05
 20
208.56
 10
326.25
 20
208.56
 10
326.25
 20
220.56
 10
316.65
 20
237.36
  0
HATCH
  5
4C
330
17
100
AcDbEntity
  8
FILL_WHITE_FFFFFF
 62
7
420
16777215
100
AcDbHatch
 10
0.0
 20
0.0
 30
0.0
210
0.0
220
0.0
230
1.0
  2
SOLID
 70
1
 71
0
 91
1
 92
3
 72
0
 73
1
 93
105
 10
370.1
 20
231.0
 10
369.38
 20
231.73
 10
368.54
 20
232.35
 10
367.65
 20
232.86
 10
365.93
 20
233.53
 10
364.65
 20
233.76
 10
363.75
 20
233.74
 10
362.85
 20
233.61
 10
361.95
 20
233.25
 10
361.05
 20
232.56
 10
360.19
 20
231.66
 10
359.55
 20
230.76
 10
359.39
 20
230.31
 10
359.36
 20
229.86
 10
359.51
 20
229.41
 10
359.85
 20
228.96
 10
360.0
 20
228.21
 10
360.36
 20
227.44
 10
361.05
 20
226.56
 10
362.25
 20
226.56
 10
369.45
 20
225.36
 10
370.05
 20
225.21
 10
370.46
 20
224.85
 10
370.6
 20
224.56
 10
370.65
 20
224.16
 10
371.53
 20
224.14
 10
372.3
 20
224.01
 10
372.84
 20
223.65
 10
373.0
 20
223.36
 10
373.05
 20
222.96
 10
374.7
 20
221.16
 10
375.24
 20
220.26
 10
375.45
 20
219.36
 10
375.45
 20
216.96
 10
375.24
 20
215.18
 10
374.7
 20
213.51
 10
373.93
 20
212.07
 10
373.05
 20
210.96
 10
371.23
 20
210.08
 10
369.3
 20
209.31
 10
367.14
 20
208.77
 10
365.95
 20
208.61
 10
364.65
 20
208.56
 10
362.66
 20
208.77
 10
360.45
 20
209.31
 10
358.24
 20
210.08
 10
356.25
 20
210.96
 10
353.85
 20
213.36
 10
357.45
 20
216.96
 10
359.25
 20
215.38
 10
361.05
 20
214.26
 10
361.95
 20
213.87
 10
362.85
 20
213.58
 10
363.75
 20
213.42
 10
364.65
 20
213.36
 10
366.43
 20
213.4
 10
368.1
 20
213.66
 10
368.86
 20
213.95
 10
369.54
 20
214.37
 10
370.15
 20
214.97
 10
370.65
 20
215.76
 10
370.65
 20
219.36
 10
370.15
 20
219.76
 10
369.54
 20
220.07
 10
368.1
 20
220.56
 10
366.43
 20
221.05
 10
364.65
 20
221.76
 10
363.06
 20
221.78
 10
361.8
 20
221.91
 10
360.77
 20
222.27
 10
359.85
 20
222.96
 10
358.97
 20
222.98
 10
358.2
 20
223.11
 10
357.66
 20
223.47
 10
357.5
 20
223.76
 10
357.45
 20
224.16
 10
356.61
 20
224.66
 10
355.88
 20
225.25
 10
355.26
 20
225.89
 10
354.75
 20
226.56
 10
354.08
 20
227.87
 10
353.85
 20
228.96
 10
353.91
 20
229.86
 10
354.08
 20
230.74
 10
354.36
 20
231.6
 10
354.75
 20
232.41
 10
355.26
 20
233.17
 10
355.88
 20
233.85
 10
356.61
 20
234.46
 10
357.45
 20
234.96
 10
358.01
 20
235.75
 10
358.74
 20
236.35
 10
359.62
 20
236.77
 10
360.6
 20
237.06
 10
362.68
 20
237.32
 10
364.65
 20
237.36
 10
366.0
 20
237.3
 10
367.35
 20
237.13
 10
368.7
 20
236.85
 10
370.05
 20
236.46
 10
371.4
 20
235.95
 10
372.75
 20
235.33
 10
375.45
 20
233.76
 10
370.65
 20
230.16
 10
370.1
 20
231.0
 97
0
 75
1
 76
1
 98
0
  0
LWPOLYLINE
  5
4D
330
17
100
AcDbEntity
  8
FILL_WHITE_FFFFFF
370
0
420
16777215
100
AcDbPolyline
 90
104
 70
1
 10
370.1
 20
231.0
 10
369.38
 20
231.73
 10
368.54
 20
232.35
 10
367.65
 20
232.86
 10
365.93
 20
233.53
 10
364.65
 20
233.76
 10
363.75
 20
233.74
 10
362.85
 20
233.61
 10
361.95
 20
233.25
 10
361.05
 20
232.56
 10
360.19
 20
231.66
 10
359.55
 20
230.76
 10
359.39
 20
230.31
 10
359.36
 20
229.86
 10
359.51
 20
229.41
 10
359.85
 20
228.96
 10
360.0
 20
228.21
 10
360.36
 20
227.44
 10
361.05
 20
226.56
 10
362.25
 20
226.56
 10
369.45
 20
225.36
 10
370.05
 20
225.21
 10
370.46
 20
224.85
 10
370.6
 20
224.56
 10
370.65
 20
224.16
 10
371.53
 20
224.14
 10
372.3
 20
224.01
 10
372.84
 20
223.65
 10
373.0
 20
223.36
 10
373.05
 20
222.96
 10
374.7
 20
221.16
 10
375.24
 20
220.26
 10
375.45
 20
219.36
 10
375.45
 20
216.96
 10
375.24
 20
215.18
 10
374.7
 20
213.51
 10
373.93
 20
212.07
 10
373.05
 20
210.96
 10
371.23
 20
210.08
 10
369.3
 20
209.31
 10
367.14
 20
208.77
 10
365.95
 20
208.61
 10
364.65
 20
208.56
 10
362.66
 20
208.77
 10
360.45
 20
209.31
 10
358.24
 20
210.08
 10
356.25
 20
210.96
 10
353.85
 20
213.36
 10
357.45
 20
216.96
 10
359.25
 20
215.38
 10
361.05
 20
214.26
 10
361.95
 20
213.87
 10
362.85
 20
213.58
 10
363.75
 20
213.42
 10
364.65
 20
213.36
 10
366.43
 20
213.4
 10
368.1
 20
213.66
 10
368.86
 20
213.95
 10
369.54
 20
214.37
 10
370.15
 20
214.97
 10
370.65
 20
215.76
 10
370.65
 20
219.36
 10
370.15
 20
219.76
 10
369.54
 20
220.07
 10
368.1
 20
220.56
 10
366.43
 20
221.05
 10
364.65
 20
221.76
 10
363.06
 20
221.78
 10
361.8
 20
221.91
 10
360.77
 20
222.27
 10
359.85
 20
222.96
 10
358.97
 20
222.98
 10
358.2
 20
223.11
 10
357.66
 20
223.47
 10
357.5
 20
223.76
 10
357.45
 20
224.16
 10
356.61
 20
224.66
 10
355.88
 20
225.25
 10
355.26
 20
225.89
 10
354.75
 20
226.56
 10
354.08
 20
227.87
 10
353.85
 20
228.96
 10
353.91
 20
229.86
 10
354.08
 20
230.74
 10
354.36
 20
231.6
 10
354.75
 20
232.41
 10
355.26
 20
233.17
 10
355.88
 20
233.85
 10
356.61
 20
234.46
 10
357.45
 20
234.96
 10
358.01
 20
235.75
 10
358.74
 20
236.35
 10
359.62
 20
236.77
 10
360.6
 20
237.06
 10
362.68
 20
237.32
 10
364.65
 20
237.36
 10
366.0
 20
237.3
 10
367.35
 20
237.13
 10
368.7
 20
236.85
 10
370.05
 20
236.46
 10
371.4
 20
235.95
 10
372.75
 20
235.33
 10
375.45
 20
233.76
 10
370.65
 20
230.16
  0
HATCH
  5
4E
330
17
100
AcDbEntity
  8
FILL_WHITE_FFFFFF
 62
7
420
16777215
100
AcDbHatch
 10
0.0
 20
0.0
 30
0.0
210
0.0
220
0.0
230
1.0
  2
SOLID
 70
1
 71
0
 91
1
 92
3
 72
0
 73
1
 93
9
 10
399.45
 20
233.76
 10
392.25
 20
233.76
 10
392.25
 20
208.56
 10
387.45
 20
208.56
 10
387.45
 20
233.76
 10
379.05
 20
233.76
 10
379.05
 20
237.36
 10
399.45
 20
237.36
 10
399.45
 20
233.76
 97
0
 75
1
 76
1
 98
0
  0
LWPOLYLINE
  5
4F
330
17
100
AcDbEntity
  8
FILL_WHITE_FFFFFF
370
0
420
16777215
100
AcDbPolyline
 90
8
 70
1
 10
399.45
 20
233.76
 10
392.25
 20
233.76
 10
392.25
 20
208.56
 10
387.45
 20
208.56
 10
387.45
 20
233.76
 10
379.05
 20
233.76
 10
379.05
 20
237.36
 10
399.45
 20
237.36
  0
HATCH
  5
50
330
17
100
AcDbEntity
  8
FILL_WHITE_FFFFFF
 62
7
420
16777215
100
AcDbHatch
 10
0.0
 20
0.0
 30
0.0
210
0.0
220
0.0
230
1.0
  2
SOLID
 70
1
 71
0
 91
2
 92
3
 72
0
 73
1
 93
9
 10
427.05
 20
208.56
 10
422.25
 20
208.56
 10
421.05
 20
214.56
 10
409.05
 20
214.56
 10
406.65
 20
208.56
 10
401.85
 20
208.56
 10
411.45
 20
237.36
 10
417.45
 20
237.36
 10
427.05
 20
208.56
 97
0
 92
18
 72
0
 73
1
 93
4
 10
410.25
 20
218.16
 10
418.65
 20
218.16
 10
415.05
 20
232.56
 10
410.25
 20
218.16
 97
0
 75
1
 76
1
 98
0
  0
LWPOLYLINE
  5
51
330
17
100
AcDbEntity
  8
FILL_WHITE_FFFFFF
370
0
420
16777215
100
AcDbPolyline
 90
8
 70
1
 10
427.05
 20
208.56
 10
422.25
 20
208.56
 10
421.05
 20
214.56
 10
409.05
 20
214.56
 10
406.65
 20
208.56
 10
401.85
 20
208.56
 10
411.45
 20
237.36
 10
417.45
 20
237.36
  0
LWPOLYLINE
  5
52
330
17
100
AcDbEntity
  8
FILL_WHITE_FFFFFF
370
0
420
16777215
100
AcDbPolyline
 90
3
 70
1
 10
410.25
 20
218.16
 10
418.65
 20
218.16
 10
415.05
 20
232.56
  0
HATCH
  5
53
330
17
100
AcDbEntity
  8
FILL_WHITE_FFFFFF
 62
7
420
16777215
100
AcDbHatch
 10
0.0
 20
0.0
 30
0.0
210
0.0
220
0.0
230
1.0
  2
SOLID
 70
1
 71
0
 91
2
 92
3
 72
0
 73
1
 93
25
 10
442.65
 20
220.56
 10
437.85
 20
220.56
 10
437.85
 20
208.56
 10
433.05
 20
208.56
 10
433.05
 20
237.36
 10
446.25
 20
237.36
 10
447.54
 20
237.2
 10
448.73
 20
236.74
 10
449.79
 20
236.03
 10
450.75
 20
235.11
 10
451.59
 20
234.02
 10
452.33
 20
232.8
 10
452.94
 20
231.5
 10
453.45
 20
230.16
 10
453.34
 20
228.42
 10
453.02
 20
226.8
 10
452.5
 20
225.33
 10
451.8
 20
224.01
 10
450.93
 20
222.86
 10
449.91
 20
221.89
 10
448.74
 20
221.12
 10
447.45
 20
220.56
 10
453.45
 20
208.56
 10
448.65
 20
208.56
 10
442.65
 20
220.56
 97
0
 92
18
 72
0
 73
1
 93
20
 10
445.55
 20
224.27
 10
446.12
 20
224.57
 10
446.72
 20
225.05
 10
447.3
 20
225.66
 10
447.83
 20
226.39
 10
448.26
 20
227.2
 10
448.54
 20
228.06
 10
448.65
 20
228.96
 10
448.46
 20
229.84
 10
448.05
 20
230.61
 10
447.45
 20
231.36
 10
446.25
 20
232.56
 10
445.85
 20
232.61
 10
445.56
 20
232.75
 10
445.2
 20
233.16
 10
445.05
 20
233.76
 10
437.85
 20
233.76
 10
437.85
 20
224.16
 10
445.05
 20
224.16
 10
445.55
 20
224.27
 97
0
 75
1
 76
1
 98
0
  0
LWPOLYLINE
  5
54
330
17
100
AcDbEntity
  8
FILL_WHITE_FFFFFF
370
0
420
16777215
100
AcDbPolyline
 90
24
 70
1
 10
442.65
 20
220.56
 10
437.85
 20
220.56
 10
437.85
 20
208.56
 10
433.05
 20
208.56
 10
433.05
 20
237.36
 10
446.25
 20
237.36
 10
447.54
 20
237.2
 10
448.73
 20
236.74
 10
449.79
 20
236.03
 10
450.75
 20
235.11
 10
451.59
 20
234.02
 10
452.33
 20
232.8
 10
452.94
 20
231.5
 10
453.45
 20
230.16
 10
453.34
 20
228.42
 10
453.02
 20
226.8
 10
452.5
 20
225.33
 10
451.8
 20
224.01
 10
450.93
 20
222.86
 10
449.91
 20
221.89
 10
448.74
 20
221.12
 10
447.45
 20
220.56
 10
453.45
 20
208.56
 10
448.65
 20
208.56
  0
LWPOLYLINE
  5
55
330
17
100
AcDbEntity
  8
FILL_WHITE_FFFFFF
370
0
420
16777215
100
AcDbPolyline
 90
19
 70
1
 10
445.55
 20
224.27
 10
446.12
 20
224.57
 10
446.72
 20
225.05
 10
447.3
 20
225.66
 10
447.83
 20
226.39
 10
448.26
 20
227.2
 10
448.54
 20
228.06
 10
448.65
 20
228.96
 10
448.46
 20
229.84
 10
448.05
 20
230.61
 10
447.45
 20
231.36
 10
446.25
 20
232.56
 10
445.85
 20
232.61
 10
445.56
 20
232.75
 10
445.2
 20
233.16
 10
445.05
 20
233.76
 10
437.85
 20
233.76
 10
437.85
 20
224.16
 10
445.05
 20
224.16
  0
HATCH
  5
56
330
17
100
AcDbEntity
  8
FILL_WHITE_FFFFFF
 62
7
420
16777215
100
AcDbHatch
 10
0.0
 20
0.0
 30
0.0
210
0.0
220
0.0
230
1.0
  2
SOLID
 70
1
 71
0
 91
1
 92
3
 72
0
 73
1
 93
9
 10
478.65
 20
233.76
 10
470.25
 20
233.76
 10
470.25
 20
208.56
 10
465.45
 20
208.56
 10
465.45
 20
233.76
 10
457.05
 20
233.76
 10
457.05
 20
237.36
 10
478.65
 20
237.36
 10
478.65
 20
233.76
 97
0
 75
1
 76
1
 98
0
  0
LWPOLYLINE
  5
57
330
17
100
AcDbEntity
  8
FILL_WHITE_FFFFFF
370
0
420
16777215
100
AcDbPolyline
 90
8
 70
1
 10
478.65
 20
233.76
 10
470.25
 20
233.76
 10
470.25
 20
208.56
 10
465.45
 20
208.56
 10
465.45
 20
233.76
 10
457.05
 20
233.76
 10
457.05
 20
237.36
 10
478.65
 20
237.36
  0
HATCH
  5
58
330
17
100
AcDbEntity
  8
FILL_WHITE_FFFFFF
 62
7
420
16777215
100
AcDbHatch
 10
0.0
 20
0.0
 30
0.0
210
0.0
220
0.0
230
1.0
  2
SOLID
 70
1
 71
0
 91
1
 92
3
 72
0
 73
1
 93
106
 10
497.25
 20
231.73
 10
495.45
 20
232.86
 10
494.55
 20
233.25
 10
493.65
 20
233.53
 10
492.75
 20
233.7
 10
491.85
 20
233.76
 10
490.95
 20
233.74
 10
490.05
 20
233.61
 10
489.15
 20
233.25
 10
488.25
 20
232.56
 10
488.06
 20
231.66
 10
487.65
 20
230.76
 10
487.24
 20
229.86
 10
487.05
 20
228.96
 10
489.45
 20
226.56
 10
490.65
 20
226.56
 10
496.65
 20
225.36
 10
497.53
 20
225.34
 10
498.3
 20
225.21
 10
498.84
 20
224.85
 10
499.0
 20
224.56
 10
499.05
 20
224.16
 10
499.76
 20
224.14
 10
500.25
 20
224.01
 10
500.74
 20
223.65
 10
501.45
 20
222.96
 10
502.16
 20
222.06
 10
502.65
 20
221.16
 10
503.14
 20
220.26
 10
503.85
 20
219.36
 10
503.85
 20
216.96
 10
503.14
 20
215.18
 10
502.65
 20
213.51
 10
502.16
 20
212.07
 10
501.85
 20
211.46
 10
501.45
 20
210.96
 10
499.46
 20
210.08
 10
497.25
 20
209.31
 10
495.04
 20
208.77
 10
493.05
 20
208.56
 10
491.75
 20
208.61
 10
490.56
 20
208.77
 10
488.4
 20
209.31
 10
486.47
 20
210.08
 10
484.65
 20
210.96
 10
482.85
 20
212.61
 10
481.95
 20
213.15
 10
481.05
 20
213.36
 10
484.65
 20
216.96
 10
485.6
 20
216.12
 10
486.64
 20
215.38
 10
487.73
 20
214.77
 10
488.85
 20
214.26
 10
491.06
 20
213.58
 10
492.1
 20
213.42
 10
493.05
 20
213.36
 10
494.81
 20
213.4
 10
496.35
 20
213.66
 10
496.96
 20
213.95
 10
497.44
 20
214.37
 10
497.74
 20
214.97
 10
497.85
 20
215.76
 10
498.53
 20
216.66
 10
498.69
 20
217.11
 10
498.75
 20
217.56
 10
498.69
 20
218.01
 10
498.53
 20
218.46
 10
497.85
 20
219.36
 10
497.35
 20
219.76
 10
496.76
 20
220.07
 10
495.45
 20
220.56
 10
494.14
 20
221.05
 10
493.55
 20
221.36
 10
493.05
 20
221.76
 10
491.85
 20
221.76
 10
489.45
 20
221.91
 10
488.14
 20
222.27
 10
487.55
 20
222.56
 10
487.05
 20
222.96
 10
486.34
 20
222.98
 10
485.85
 20
223.11
 10
485.36
 20
223.47
 10
484.65
 20
224.16
 10
483.77
 20
225.25
 10
483.0
 20
226.56
 10
482.46
 20
227.87
 10
482.25
 20
228.96
 10
482.46
 20
230.74
 10
483.0
 20
232.41
 10
483.77
 20
233.85
 10
484.65
 20
234.96
 10
485.55
 20
235.75
 10
486.45
 20
236.35
 10
487.35
 20
236.77
 10
488.25
 20
237.06
 10
490.05
 20
237.32
 10
491.85
 20
237.36
 10
493.54
 20
237.3
 10
495.06
 20
237.13
 10
496.43
 20
236.85
 10
497.7
 20
236.46
 10
498.92
 20
235.95
 10
500.12
 20
235.33
 10
502.65
 20
233.76
 10
499.05
 20
230.16
 10
497.25
 20
231.73
 97
0
 75
1
 76
1
 98
0
  0
LWPOLYLINE
  5
59
330
17
100
AcDbEntity
  8
FILL_WHITE_FFFFFF
370
0
420
16777215
100
AcDbPolyline
 90
105
 70
1
 10
497.25
 20
231.73
 10
495.45
 20
232.86
 10
494.55
 20
233.25
 10
493.65
 20
233.53
 10
492.75
 20
233.7
 10
491.85
 20
233.76
 10
490.95
 20
233.74
 10
490.05
 20
233.61
 10
489.15
 20
233.25
 10
488.25
 20
232.56
 10
488.06
 20
231.66
 10
487.65
 20
230.76
 10
487.24
 20
229.86
 10
487.05
 20
228.96
 10
489.45
 20
226.56
 10
490.65
 20
226.56
 10
496.65
 20
225.36
 10
497.53
 20
225.34
 10
498.3
 20
225.21
 10
498.84
 20
224.85
 10
499.0
 20
224.56
 10
499.05
 20
224.16
 10
499.76
 20
224.14
 10
500.25
 20
224.01
 10
500.74
 20
223.65
 10
501.45
 20
222.96
 10
502.16
 20
222.06
 10
502.65
 20
221.16
 10
503.14
 20
220.26
 10
503.85
 20
219.36
 10
503.85
 20
216.96
 10
503.14
 20
215.18
 10
502.65
 20
213.51
 10
502.16
 20
212.07
 10
501.85
 20
211.46
 10
501.45
 20
210.96
 10
499.46
 20
210.08
 10
497.25
 20
209.31
 10
495.04
 20
208.77
 10
493.05
 20
208.56
 10
491.75
 20
208.61
 10
490.56
 20
208.77
 10
488.4
 20
209.31
 10
486.47
 20
210.08
 10
484.65
 20
210.96
 10
482.85
 20
212.61
 10
481.95
 20
213.15
 10
481.05
 20
213.36
 10
484.65
 20
216.96
 10
485.6
 20
216.12
 10
486.64
 20
215.38
 10
487.73
 20
214.77
 10
488.85
 20
214.26
 10
491.06
 20
213.58
 10
492.1
 20
213.42
 10
493.05
 20
213.36
 10
494.81
 20
213.4
 10
496.35
 20
213.66
 10
496.96
 20
213.95
 10
497.44
 20
214.37
 10
497.74
 20
214.97
 10
497.85
 20
215.76
 10
498.53
 20
216.66
 10
498.69
 20
217.11
 10
498.75
 20
217.56
 10
498.69
 20
218.01
 10
498.53
 20
218.46
 10
497.85
 20
219.36
 10
497.35
 20
219.76
 10
496.76
 20
220.07
 10
495.45
 20
220.56
 10
494.14
 20
221.05
 10
493.55
 20
221.36
 10
493.05
 20
221.76
 10
491.85
 20
221.76
 10
489.45
 20
221.91
 10
488.14
 20
222.27
 10
487.55
 20
222.56
 10
487.05
 20
222.96
 10
486.34
 20
222.98
 10
485.85
 20
223.11
 10
485.36
 20
223.47
 10
484.65
 20
224.16
 10
483.77
 20
225.25
 10
483.0
 20
226.56
 10
482.46
 20
227.87
 10
482.25
 20
228.96
 10
482.46
 20
230.74
 10
483.0
 20
232.41
 10
483.77
 20
233.85
 10
484.65
 20
234.96
 10
485.55
 20
235.75
 10
486.45
 20
236.35
 10
487.35
 20
236.77
 10
488.25
 20
237.06
 10
490.05
 20
237.32
 10
491.85
 20
237.36
 10
493.54
 20
237.3
 10
495.06
 20
237.13
 10
496.43
 20
236.85
 10
497.7
 20
236.46
 10
498.92
 20
235.95
 10
500.12
 20
235.33
 10
502.65
 20
233.76
 10
499.05
 20
230.16
  0
HATCH
  5
5A
330
17
100
AcDbEntity
  8
FILL_WHITE_FFFFFF
 62
7
420
16777215
100
AcDbHatch
 10
0.0
 20
0.0
 30
0.0
210
0.0
220
0.0
230
1.0
  2
SOLID
 70
1
 71
0
 91
1
 92
3
 72
0
 73
1
 93
82
 10
152.36
 20
176.46
 10
152.66
 20
175.6
 10
153.14
 20
174.79
 10
153.75
 20
174.06
 10
154.48
 20
173.45
 10
155.29
 20
172.97
 10
156.15
 20
172.67
 10
157.05
 20
172.56
 10
158.12
 20
172.77
 10
159.3
 20
173.31
 10
160.26
 20
174.08
 10
160.54
 20
174.51
 10
160.65
 20
174.96
 10
162.3
 20
176.76
 10
162.84
 20
177.66
 10
163.05
 20
178.56
 10
163.0
 20
179.41
 10
162.84
 20
180.15
 10
162.3
 20
181.41
 10
161.53
 20
182.44
 10
160.65
 20
183.36
 10
159.75
 20
184.05
 10
158.85
 20
184.41
 10
157.95
 20
184.54
 10
157.05
 20
184.56
 10
154.65
 20
184.56
 10
153.94
 20
183.68
 10
153.45
 20
182.91
 10
152.96
 20
182.37
 10
152.65
 20
182.21
 10
152.25
 20
182.16
 10
147.45
 20
182.16
 10
149.85
 20
196.56
 10
165.45
 20
196.56
 10
165.45
 20
192.96
 10
153.45
 20
192.96
 10
153.45
 20
188.16
 10
154.05
 20
188.31
 10
154.46
 20
188.67
 10
154.6
 20
188.96
 10
154.65
 20
189.36
 10
157.05
 20
189.36
 10
157.95
 20
189.34
 10
158.85
 20
189.21
 10
159.75
 20
188.85
 10
160.65
 20
188.16
 10
161.55
 20
187.97
 10
162.45
 20
187.56
 10
163.35
 20
187.15
 10
164.25
 20
186.96
 10
165.83
 20
185.16
 10
166.95
 20
183.36
 10
167.34
 20
182.46
 10
167.63
 20
181.56
 10
167.79
 20
180.66
 10
167.85
 20
179.76
 10
167.79
 20
178.46
 10
167.63
 20
177.27
 10
167.34
 20
176.15
 10
166.95
 20
175.11
 10
166.44
 20
174.12
 10
165.83
 20
173.18
 10
164.25
 20
171.36
 10
163.69
 20
170.52
 10
162.96
 20
169.8
 10
162.08
 20
169.23
 10
161.1
 20
168.81
 10
160.07
 20
168.56
 10
159.02
 20
168.49
 10
158.0
 20
168.62
 10
157.05
 20
168.96
 10
155.25
 20
168.98
 10
153.45
 20
169.11
 10
151.65
 20
169.47
 10
149.85
 20
170.16
 10
149.14
 20
171.06
 10
148.65
 20
171.96
 10
148.16
 20
172.86
 10
147.45
 20
173.76
 10
147.45
 20
176.16
 10
152.25
 20
177.36
 10
152.36
 20
176.46
 97
0
 75
1
 76
1
 98
0
  0
LWPOLYLINE
  5
5B
330
17
100
AcDbEntity
  8
FILL_WHITE_FFFFFF
370
0
420
16777215
100
AcDbPolyline
 90
81
 70
1
 10
152.36
 20
176.46
 10
152.66
 20
175.6
 10
153.14
 20
174.79
 10
153.75
 20
174.06
 10
154.48
 20
173.45
 10
155.29
 20
172.97
 10
156.15
 20
172.67
 10
157.05
 20
172.56
 10
158.12
 20
172.77
 10
159.3
 20
173.31
 10
160.26
 20
174.08
 10
160.54
 20
174.51
 10
160.65
 20
174.96
 10
162.3
 20
176.76
 10
162.84
 20
177.66
 10
163.05
 20
178.56
 10
163.0
 20
179.41
 10
162.84
 20
180.15
 10
162.3
 20
181.41
 10
161.53
 20
182.44
 10
160.65
 20
183.36
 10
159.75
 20
184.05
 10
158.85
 20
184.41
 10
157.95
 20
184.54
 10
157.05
 20
184.56
 10
154.65
 20
184.56
 10
153.94
 20
183.68
 10
153.45
 20
182.91
 10
152.96
 20
182.37
 10
152.65
 20
182.21
 10
152.25
 20
182.16
 10
147.45
 20
182.16
 10
149.85
 20
196.56
 10
165.45
 20
196.56
 10
165.45
 20
192.96
 10
153.45
 20
192.96
 10
153.45
 20
188.16
 10
154.05
 20
188.31
 10
154.46
 20
188.67
 10
154.6
 20
188.96
 10
154.65
 20
189.36
 10
157.05
 20
189.36
 10
157.95
 20
189.34
 10
158.85
 20
189.21
 10
159.75
 20
188.85
 10
160.65
 20
188.16
 10
161.55
 20
187.97
 10
162.45
 20
187.56
 10
163.35
 20
187.15
 10
164.25
 20
186.96
 10
165.83
 20
185.16
 10
166.95
 20
183.36
 10
167.34
 20
182.46
 10
167.63
 20
181.56
 10
167.79
 20
180.66
 10
167.85
 20
179.76
 10
167.79
 20
178.46
 10
167.63
 20
177.27
 10
167.34
 20
176.15
 10
166.95
 20
175.11
 10
166.44
 20
174.12
 10
165.83
 20
173.18
 10
164.25
 20
171.36
 10
163.69
 20
170.52
 10
162.96
 20
169.8
 10
162.08
 20
169.23
 10
161.1
 20
168.81
 10
160.07
 20
168.56
 10
159.02
 20
168.49
 10
158.0
 20
168.62
 10
157.05
 20
168.96
 10
155.25
 20
168.98
 10
153.45
 20
169.11
 10
151.65
 20
169.47
 10
149.85
 20
170.16
 10
149.14
 20
171.06
 10
148.65
 20
171.96
 10
148.16
 20
172.86
 10
147.45
 20
173.76
 10
147.45
 20
176.16
 10
152.25
 20
177.36
  0
HATCH
  5
5C
330
17
100
AcDbEntity
  8
FILL_WHITE_FFFFFF
 62
7
420
16777215
100
AcDbHatch
 10
0.0
 20
0.0
 30
0.0
210
0.0
220
0.0
230
1.0
  2
SOLID
 70
1
 71
0
 91
2
 92
3
 72
0
 73
1
 93
57
 10
173.4
 20
188.61
 10
174.17
 20
190.95
 10
175.05
 20
192.96
 10
175.95
 20
194.2
 10
176.87
 20
195.23
 10
177.81
 20
196.06
 10
178.8
 20
196.71
 10
179.84
 20
197.19
 10
180.96
 20
197.52
 10
182.15
 20
197.7
 10
183.45
 20
197.76
 10
184.4
 20
197.7
 10
185.42
 20
197.52
 10
186.47
 20
197.19
 10
187.5
 20
196.71
 10
188.48
 20
196.06
 10
189.36
 20
195.23
 10
190.09
 20
194.2
 10
190.65
 20
192.96
 10
191.49
 20
192.01
 10
192.23
 20
190.95
 10
192.84
 20
189.82
 10
193.35
 20
188.61
 10
193.74
 20
187.35
 10
194.02
 20
186.04
 10
194.19
 20
184.71
 10
194.25
 20
183.36
 10
194.19
 20
181.62
 10
194.03
 20
179.98
 10
193.77
 20
178.47
 10
193.41
 20
177.06
 10
192.95
 20
175.77
 10
192.41
 20
174.58
 10
191.8
 20
173.52
 10
191.1
 20
172.56
 10
190.33
 20
171.72
 10
189.5
 20
170.98
 10
188.61
 20
170.37
 10
187.67
 20
169.86
 10
186.67
 20
169.47
 10
185.64
 20
169.18
 10
184.56
 20
169.02
 10
183.45
 20
168.96
 10
182.15
 20
169.02
 10
180.96
 20
169.18
 10
179.84
 20
169.47
 10
178.8
 20
169.86
 10
177.81
 20
170.37
 10
176.87
 20
170.98
 10
175.05
 20
172.56
 10
174.17
 20
174.58
 10
173.4
 20
177.06
 10
172.86
 20
179.98
 10
172.7
 20
181.62
 10
172.65
 20
183.36
 10
172.86
 20
186.04
 10
173.4
 20
188.61
 97
0
 92
18
 72
0
 73
1
 93
34
 10
185.25
 20
173.31
 10
187.05
 20
174.96
 10
187.93
 20
176.78
 10
188.7
 20
178.71
 10
189.24
 20
180.87
 10
189.4
 20
182.06
 10
189.45
 20
183.36
 10
189.34
 20
185.5
 10
189.02
 20
187.39
 10
188.5
 20
189.03
 10
187.8
 20
190.41
 10
186.93
 20
191.5
 10
185.91
 20
192.3
 10
184.74
 20
192.79
 10
183.45
 20
192.96
 10
182.16
 20
192.79
 10
180.99
 20
192.3
 10
179.97
 20
191.5
 10
179.1
 20
190.41
 10
178.4
 20
189.03
 10
177.88
 20
187.39
 10
177.56
 20
185.5
 10
177.45
 20
183.36
 10
177.47
 20
180.87
 10
177.6
 20
178.71
 10
177.96
 20
176.78
 10
178.65
 20
174.96
 10
179.57
 20
174.08
 10
180.6
 20
173.31
 10
181.86
 20
172.77
 10
182.6
 20
172.61
 10
183.45
 20
172.56
 10
184.35
 20
172.77
 10
185.25
 20
173.31
 97
0
 75
1
 76
1
 98
0
  0
LWPOLYLINE
  5
5D
330
17
100
AcDbEntity
  8
FILL_WHITE_FFFFFF
370
0
420
16777215
100
AcDbPolyline
 90
56
 70
1
 10
173.4
 20
188.61
 10
174.17
 20
190.95
 10
175.05
 20
192.96
 10
175.95
 20
194.2
 10
176.87
 20
195.23
 10
177.81
 20
196.06
 10
178.8
 20
196.71
 10
179.84
 20
197.19
 10
180.96
 20
197.52
 10
182.15
 20
197.7
 10
183.45
 20
197.76
 10
184.4
 20
197.7
 10
185.42
 20
197.52
 10
186.47
 20
197.19
 10
187.5
 20
196.71
 10
188.48
 20
196.06
 10
189.36
 20
195.23
 10
190.09
 20
194.2
 10
190.65
 20
192.96
 10
191.49
 20
192.01
 10
192.23
 20
190.95
 10
192.84
 20
189.82
 10
193.35
 20
188.61
 10
193.74
 20
187.35
 10
194.02
 20
186.04
 10
194.19
 20
184.71
 10
194.25
 20
183.36
 10
194.19
 20
181.62
 10
194.03
 20
179.98
 10
193.77
 20
178.47
 10
193.41
 20
177.06
 10
192.95
 20
175.77
 10
192.41
 20
174.58
 10
191.8
 20
173.52
 10
191.1
 20
172.56
 10
190.33
 20
171.72
 10
189.5
 20
170.98
 10
188.61
 20
170.37
 10
187.67
 20
169.86
 10
186.67
 20
169.47
 10
185.64
 20
169.18
 10
184.56
 20
169.02
 10
183.45
 20
168.96
 10
182.15
 20
169.02
 10
180.96
 20
169.18
 10
179.84
 20
169.47
 10
178.8
 20
169.86
 10
177.81
 20
170.37
 10
176.87
 20
170.98
 10
175.05
 20
172.56
 10
174.17
 20
174.58
 10
173.4
 20
177.06
 10
172.86
 20
179.98
 10
172.7
 20
181.62
 10
172.65
 20
183.36
 10
172.86
 20
186.04
  0
LWPOLYLINE
  5
5E
330
17
100
AcDbEntity
  8
FILL_WHITE_FFFFFF
370
0
420
16777215
100
AcDbPolyline
 90
33
 70
1
 10
185.25
 20
173.31
 10
187.05
 20
174.96
 10
187.93
 20
176.78
 10
188.7
 20
178.71
 10
189.24
 20
180.87
 10
189.4
 20
182.06
 10
189.45
 20
183.36
 10
189.34
 20
185.5
 10
189.02
 20
187.39
 10
188.5
 20
189.03
 10
187.8
 20
190.41
 10
186.93
 20
191.5
 10
185.91
 20
192.3
 10
184.74
 20
192.79
 10
183.45
 20
192.96
 10
182.16
 20
192.79
 10
180.99
 20
192.3
 10
179.97
 20
191.5
 10
179.1
 20
190.41
 10
178.4
 20
189.03
 10
177.88
 20
187.39
 10
177.56
 20
185.5
 10
177.45
 20
183.36
 10
177.47
 20
180.87
 10
177.6
 20
178.71
 10
177.96
 20
176.78
 10
178.65
 20
174.96
 10
179.57
 20
174.08
 10
180.6
 20
173.31
 10
181.86
 20
172.77
 10
182.6
 20
172.61
 10
183.45
 20
172.56
 10
184.35
 20
172.77
  0
HATCH
  5
5F
330
17
100
AcDbEntity
  8
FILL_WHITE_FFFFFF
 62
7
420
16777215
100
AcDbHatch
 10
0.0
 20
0.0
 30
0.0
210
0.0
220
0.0
230
1.0
  2
SOLID
 70
1
 71
0
 91
2
 92
3
 72
0
 73
1
 93
60
 10
199.28
 20
186.04
 10
199.56
 20
187.35
 10
199.95
 20
188.61
 10
200.46
 20
189.82
 10
201.08
 20
190.95
 10
201.81
 20
192.01
 10
202.65
 20
192.96
 10
203.16
 20
194.2
 10
203.78
 20
195.23
 10
204.51
 20
196.06
 10
205.35
 20
196.71
 10
206.31
 20
197.19
 10
207.38
 20
197.52
 10
208.56
 20
197.7
 10
209.85
 20
197.76
 10
211.15
 20
197.7
 10
212.34
 20
197.52
 10
213.46
 20
197.19
 10
214.5
 20
196.71
 10
215.49
 20
196.06
 10
216.43
 20
195.23
 10
217.35
 20
194.2
 10
218.25
 20
192.96
 10
219.13
 20
190.95
 10
219.9
 20
188.61
 10
220.44
 20
186.04
 10
220.65
 20
183.36
 10
220.48
 20
179.98
 10
220.27
 20
178.47
 10
219.98
 20
177.06
 10
219.6
 20
175.77
 10
219.13
 20
174.58
 10
218.58
 20
173.52
 10
217.95
 20
172.56
 10
217.23
 20
171.72
 10
216.43
 20
170.98
 10
215.55
 20
170.37
 10
214.58
 20
169.86
 10
213.52
 20
169.47
 10
212.38
 20
169.18
 10
211.16
 20
169.02
 10
209.85
 20
168.96
 10
208.56
 20
169.02
 10
207.38
 20
169.18
 10
206.31
 20
169.47
 10
205.35
 20
169.86
 10
204.51
 20
170.37
 10
203.78
 20
170.98
 10
203.16
 20
171.72
 10
202.65
 20
172.56
 10
201.81
 20
173.52
 10
201.08
 20
174.58
 10
200.46
 20
175.77
 10
199.95
 20
177.06
 10
199.56
 20
178.47
 10
199.28
 20
179.98
 10
199.11
 20
181.62
 10
199.05
 20
183.36
 10
199.11
 20
184.71
 10
199.28
 20
186.04
 97
0
 92
18
 72
0
 73
1
 93
34
 10
211.44
 20
172.77
 10
212.7
 20
173.31
 10
213.73
 20
174.08
 10
214.65
 20
174.96
 10
215.34
 20
176.78
 10
215.7
 20
178.71
 10
215.83
 20
180.87
 10
215.85
 20
183.36
 10
215.74
 20
185.5
 10
215.42
 20
187.39
 10
214.9
 20
189.03
 10
214.2
 20
190.41
 10
213.33
 20
191.5
 10
212.31
 20
192.3
 10
211.14
 20
192.79
 10
209.85
 20
192.96
 10
208.56
 20
192.79
 10
207.39
 20
192.3
 10
206.37
 20
191.5
 10
205.5
 20
190.41
 10
204.8
 20
189.03
 10
204.28
 20
187.39
 10
203.96
 20
185.5
 10
203.85
 20
183.36
 10
204.04
 20
180.87
 10
204.45
 20
178.71
 10
204.86
 20
176.78
 10
205.05
 20
174.96
 10
206.14
 20
174.08
 10
207.45
 20
173.31
 10
208.76
 20
172.77
 10
209.85
 20
172.56
 10
210.7
 20
172.61
 10
211.44
 20
172.77
 97
0
 75
1
 76
1
 98
0
  0
LWPOLYLINE
  5
60
330
17
100
AcDbEntity
  8
FILL_WHITE_FFFFFF
370
0
420
16777215
100
AcDbPolyline
 90
59
 70
1
 10
199.28
 20
186.04
 10
199.56
 20
187.35
 10
199.95
 20
188.61
 10
200.46
 20
189.82
 10
201.08
 20
190.95
 10
201.81
 20
192.01
 10
202.65
 20
192.96
 10
203.16
 20
194.2
 10
203.78
 20
195.23
 10
204.51
 20
196.06
 10
205.35
 20
196.71
 10
206.31
 20
197.19
 10
207.38
 20
197.52
 10
208.56
 20
197.7
 10
209.85
 20
197.76
 10
211.15
 20
197.7
 10
212.34
 20
197.52
 10
213.46
 20
197.19
 10
214.5
 20
196.71
 10
215.49
 20
196.06
 10
216.43
 20
195.23
 10
217.35
 20
194.2
 10
218.25
 20
192.96
 10
219.13
 20
190.95
 10
219.9
 20
188.61
 10
220.44
 20
186.04
 10
220.65
 20
183.36
 10
220.48
 20
179.98
 10
220.27
 20
178.47
 10
219.98
 20
177.06
 10
219.6
 20
175.77
 10
219.13
 20
174.58
 10
218.58
 20
173.52
 10
217.95
 20
172.56
 10
217.23
 20
171.72
 10
216.43
 20
170.98
 10
215.55
 20
170.37
 10
214.58
 20
169.86
 10
213.52
 20
169.47
 10
212.38
 20
169.18
 10
211.16
 20
169.02
 10
209.85
 20
168.96
 10
208.56
 20
169.02
 10
207.38
 20
169.18
 10
206.31
 20
169.47
 10
205.35
 20
169.86
 10
204.51
 20
170.37
 10
203.78
 20
170.98
 10
203.16
 20
171.72
 10
202.65
 20
172.56
 10
201.81
 20
173.52
 10
201.08
 20
174.58
 10
200.46
 20
175.77
 10
199.95
 20
177.06
 10
199.56
 20
178.47
 10
199.28
 20
179.98
 10
199.11
 20
181.62
 10
199.05
 20
183.36
 10
199.11
 20
184.71
  0
LWPOLYLINE
  5
61
330
17
100
AcDbEntity
  8
FILL_WHITE_FFFFFF
370
0
420
16777215
100
AcDbPolyline
 90
33
 70
1
 10
211.44
 20
172.77
 10
212.7
 20
173.31
 10
213.73
 20
174.08
 10
214.65
 20
174.96
 10
215.34
 20
176.78
 10
215.7
 20
178.71
 10
215.83
 20
180.87
 10
215.85
 20
183.36
 10
215.74
 20
185.5
 10
215.42
 20
187.39
 10
214.9
 20
189.03
 10
214.2
 20
190.41
 10
213.33
 20
191.5
 10
212.31
 20
192.3
 10
211.14
 20
192.79
 10
209.85
 20
192.96
 10
208.56
 20
192.79
 10
207.39
 20
192.3
 10
206.37
 20
191.5
 10
205.5
 20
190.41
 10
204.8
 20
189.03
 10
204.28
 20
187.39
 10
203.96
 20
185.5
 10
203.85
 20
183.36
 10
204.04
 20
180.87
 10
204.45
 20
178.71
 10
204.86
 20
176.78
 10
205.05
 20
174.96
 10
206.14
 20
174.08
 10
207.45
 20
173.31
 10
208.76
 20
172.77
 10
209.85
 20
172.56
 10
210.7
 20
172.61
  0
HATCH
  5
62
330
17
100
AcDbEntity
  8
FILL_WHITE_FFFFFF
 62
7
420
16777215
100
AcDbHatch
 10
0.0
 20
0.0
 30
0.0
210
0.0
220
0.0
230
1.0
  2
SOLID
 70
1
 71
0
 91
1
 92
3
 72
0
 73
1
 93
66
 10
241.05
 20
186.96
 10
241.1
 20
187.36
 10
241.24
 20
187.65
 10
241.65
 20
188.01
 10
242.25
 20
188.16
 10
242.96
 20
188.85
 10
243.45
 20
189.21
 10
243.94
 20
189.34
 10
244.65
 20
189.36
 10
246.43
 20
189.15
 10
248.1
 20
188.61
 10
249.54
 20
187.84
 10
250.65
 20
186.96
 10
251.4
 20
187.56
 10
252.17
 20
187.97
 10
253.05
 20
188.16
 10
253.1
 20
188.56
 10
253.26
 20
188.85
 10
253.8
 20
189.21
 10
254.57
 20
189.34
 10
255.45
 20
189.36
 10
257.85
 20
189.21
 10
259.16
 20
188.85
 10
259.75
 20
188.56
 10
260.25
 20
188.16
 10
261.9
 20
186.36
 10
262.44
 20
185.46
 10
262.65
 20
184.56
 10
263.85
 20
183.36
 10
263.85
 20
168.96
 10
259.05
 20
168.96
 10
259.05
 20
182.16
 10
259.05
 20
183.36
 10
258.36
 20
183.38
 10
258.0
 20
183.51
 10
257.87
 20
183.87
 10
257.85
 20
184.56
 10
255.45
 20
184.56
 10
254.74
 20
184.54
 10
254.25
 20
184.41
 10
253.76
 20
184.05
 10
253.05
 20
183.36
 10
252.45
 20
182.61
 10
252.04
 20
181.84
 10
251.85
 20
180.96
 10
251.85
 20
168.96
 10
247.05
 20
168.96
 10
247.05
 20
182.16
 10
247.05
 20
183.36
 10
247.05
 20
184.56
 10
244.65
 20
184.56
 10
243.77
 20
184.54
 10
243.0
 20
184.41
 10
242.46
 20
184.05
 10
242.3
 20
183.76
 10
242.25
 20
183.36
 10
241.85
 20
183.31
 10
241.56
 20
183.15
 10
241.2
 20
182.61
 10
241.07
 20
181.84
 10
241.05
 20
180.96
 10
241.05
 20
168.96
 10
236.25
 20
168.96
 10
236.25
 20
189.36
 10
241.05
 20
189.36
 10
241.05
 20
186.96
 97
0
 75
1
 76
1
 98
0
  0
LWPOLYLINE
  5
63
330
17
100
AcDbEntity
  8
FILL_WHITE_FFFFFF
370
0
420
16777215
100
AcDbPolyline
 90
65
 70
1
 10
241.05
 20
186.96
 10
241.1
 20
187.36
 10
241.24
 20
187.65
 10
241.65
 20
188.01
 10
242.25
 20
188.16
 10
242.96
 20
188.85
 10
243.45
 20
189.21
 10
243.94
 20
189.34
 10
244.65
 20
189.36
 10
246.43
 20
189.15
 10
248.1
 20
188.61
 10
249.54
 20
187.84
 10
250.65
 20
186.96
 10
251.4
 20
187.56
 10
252.17
 20
187.97
 10
253.05
 20
188.16
 10
253.1
 20
188.56
 10
253.26
 20
188.85
 10
253.8
 20
189.21
 10
254.57
 20
189.34
 10
255.45
 20
189.36
 10
257.85
 20
189.21
 10
259.16
 20
188.85
 10
259.75
 20
188.56
 10
260.25
 20
188.16
 10
261.9
 20
186.36
 10
262.44
 20
185.46
 10
262.65
 20
184.56
 10
263.85
 20
183.36
 10
263.85
 20
168.96
 10
259.05
 20
168.96
 10
259.05
 20
182.16
 10
259.05
 20
183.36
 10
258.36
 20
183.38
 10
258.0
 20
183.51
 10
257.87
 20
183.87
 10
257.85
 20
184.56
 10
255.45
 20
184.56
 10
254.74
 20
184.54
 10
254.25
 20
184.41
 10
253.76
 20
184.05
 10
253.05
 20
183.36
 10
252.45
 20
182.61
 10
252.04
 20
181.84
 10
251.85
 20
180.96
 10
251.85
 20
168.96
 10
247.05
 20
168.96
 10
247.05
 20
182.16
 10
247.05
 20
183.36
 10
247.05
 20
184.56
 10
244.65
 20
184.56
 10
243.77
 20
184.54
 10
243.0
 20
184.41
 10
242.46
 20
184.05
 10
242.3
 20
183.76
 10
242.25
 20
183.36
 10
241.85
 20
183.31
 10
241.56
 20
183.15
 10
241.2
 20
182.61
 10
241.07
 20
181.84
 10
241.05
 20
180.96
 10
241.05
 20
168.96
 10
236.25
 20
168.96
 10
236.25
 20
189.36
 10
241.05
 20
189.36
  0
HATCH
  5
64
330
17
100
AcDbEntity
  8
FILL_WHITE_FFFFFF
 62
7
420
16777215
100
AcDbHatch
 10
0.0
 20
0.0
 30
0.0
210
0.0
220
0.0
230
1.0
  2
SOLID
 70
1
 71
0
 91
2
 92
3
 72
0
 73
1
 93
9
 10
302.25
 20
168.96
 10
298.65
 20
168.96
 10
296.25
 20
173.76
 10
284.25
 20
173.76
 10
283.05
 20
168.96
 10
278.25
 20
168.96
 10
287.85
 20
196.56
 10
293.85
 20
196.56
 10
302.25
 20
168.96
 97
0
 92
18
 72
0
 73
1
 93
4
 10
285.45
 20
177.36
 10
295.05
 20
177.36
 10
290.25
 20
191.76
 10
285.45
 20
177.36
 97
0
 75
1
 76
1
 98
0
  0
LWPOLYLINE
  5
65
330
17
100
AcDbEntity
  8
FILL_WHITE_FFFFFF
370
0
420
16777215
100
AcDbPolyline
 90
8
 70
1
 10
302.25
 20
168.96
 10
298.65
 20
168.96
 10
296.25
 20
173.76
 10
284.25
 20
173.76
 10
283.05
 20
168.96
 10
278.25
 20
168.96
 10
287.85
 20
196.56
 10
293.85
 20
196.56
  0
LWPOLYLINE
  5
66
330
17
100
AcDbEntity
  8
FILL_WHITE_FFFFFF
370
0
420
16777215
100
AcDbPolyline
 90
3
 70
1
 10
285.45
 20
177.36
 10
295.05
 20
177.36
 10
290.25
 20
191.76
  0
HATCH
  5
67
330
17
100
AcDbEntity
  8
FILL_WHITE_FFFFFF
 62
7
420
16777215
100
AcDbHatch
 10
0.0
 20
0.0
 30
0.0
210
0.0
220
0.0
230
1.0
  2
SOLID
 70
1
 71
0
 91
1
 92
3
 72
0
 73
1
 93
13
 10
327.45
 20
182.16
 10
314.25
 20
182.16
 10
314.25
 20
168.96
 10
309.45
 20
168.96
 10
309.45
 20
196.56
 10
314.25
 20
196.56
 10
314.25
 20
185.76
 10
327.45
 20
185.76
 10
327.45
 20
196.56
 10
332.25
 20
196.56
 10
332.25
 20
168.96
 10
327.45
 20
168.96
 10
327.45
 20
182.16
 97
0
 75
1
 76
1
 98
0
  0
LWPOLYLINE
  5
68
330
17
100
AcDbEntity
  8
FILL_WHITE_FFFFFF
370
0
420
16777215
100
AcDbPolyline
 90
12
 70
1
 10
327.45
 20
182.16
 10
314.25
 20
182.16
 10
314.25
 20
168.96
 10
309.45
 20
168.96
 10
309.45
 20
196.56
 10
314.25
 20
196.56
 10
314.25
 20
185.76
 10
327.45
 20
185.76
 10
327.45
 20
196.56
 10
332.25
 20
196.56
 10
332.25
 20
168.96
 10
327.45
 20
168.96
  0
HATCH
  5
69
330
17
100
AcDbEntity
  8
FILL_WHITE_FFFFFF
 62
7
420
16777215
100
AcDbHatch
 10
0.0
 20
0.0
 30
0.0
210
0.0
220
0.0
230
1.0
  2
SOLID
 70
1
 71
0
 91
1
 92
3
 72
0
 73
1
 93
13
 10
341.85
 20
196.56
 10
359.85
 20
196.56
 10
359.85
 20
192.96
 10
346.65
 20
192.96
 10
346.65
 20
185.76
 10
358.65
 20
185.76
 10
358.65
 20
180.96
 10
346.65
 20
180.96
 10
346.65
 20
172.56
 10
359.85
 20
172.56
 10
359.85
 20
168.96
 10
341.85
 20
168.96
 10
341.85
 20
196.56
 97
0
 75
1
 76
1
 98
0
  0
LWPOLYLINE
  5
6A
330
17
100
AcDbEntity
  8
FILL_WHITE_FFFFFF
370
0
420
16777215
100
AcDbPolyline
 90
12
 70
1
 10
341.85
 20
196.56
 10
359.85
 20
196.56
 10
359.85
 20
192.96
 10
346.65
 20
192.96
 10
346.65
 20
185.76
 10
358.65
 20
185.76
 10
358.65
 20
180.96
 10
346.65
 20
180.96
 10
346.65
 20
172.56
 10
359.85
 20
172.56
 10
359.85
 20
168.96
 10
341.85
 20
168.96
  0
HATCH
  5
6B
330
17
100
AcDbEntity
  8
FILL_WHITE_FFFFFF
 62
7
420
16777215
100
AcDbHatch
 10
0.0
 20
0.0
 30
0.0
210
0.0
220
0.0
230
1.0
  2
SOLID
 70
1
 71
0
 91
2
 92
3
 72
0
 73
1
 93
9
 10
389.85
 20
168.96
 10
385.05
 20
168.96
 10
383.85
 20
173.76
 10
371.85
 20
173.76
 10
369.45
 20
168.96
 10
364.65
 20
168.96
 10
374.25
 20
196.56
 10
380.25
 20
196.56
 10
389.85
 20
168.96
 97
0
 92
18
 72
0
 73
1
 93
4
 10
373.05
 20
177.36
 10
381.45
 20
177.36
 10
377.85
 20
191.76
 10
373.05
 20
177.36
 97
0
 75
1
 76
1
 98
0
  0
LWPOLYLINE
  5
6C
330
17
100
AcDbEntity
  8
FILL_WHITE_FFFFFF
370
0
420
16777215
100
AcDbPolyline
 90
8
 70
1
 10
389.85
 20
168.96
 10
385.05
 20
168.96
 10
383.85
 20
173.76
 10
371.85
 20
173.76
 10
369.45
 20
168.96
 10
364.65
 20
168.96
 10
374.25
 20
196.56
 10
380.25
 20
196.56
  0
LWPOLYLINE
  5
6D
330
17
100
AcDbEntity
  8
FILL_WHITE_FFFFFF
370
0
420
16777215
100
AcDbPolyline
 90
3
 70
1
 10
373.05
 20
177.36
 10
381.45
 20
177.36
 10
377.85
 20
191.76
  0
HATCH
  5
6E
330
17
100
AcDbEntity
  8
FILL_WHITE_FFFFFF
 62
7
420
16777215
100
AcDbHatch
 10
0.0
 20
0.0
 30
0.0
210
0.0
220
0.0
230
1.0
  2
SOLID
 70
1
 71
0
 91
2
 92
3
 72
0
 73
1
 93
31
 10
408.64
 20
196.33
 10
410.85
 20
195.66
 10
411.97
 20
195.15
 10
413.06
 20
194.53
 10
414.1
 20
193.8
 10
415.05
 20
192.96
 10
415.89
 20
191.96
 10
416.63
 20
190.78
 10
417.24
 20
189.5
 10
417.75
 20
188.16
 10
418.42
 20
185.53
 10
418.65
 20
183.36
 10
418.59
 20
182.01
 10
418.42
 20
180.66
 10
418.14
 20
179.31
 10
417.75
 20
177.96
 10
417.24
 20
176.61
 10
416.63
 20
175.26
 10
415.05
 20
172.56
 10
414.1
 20
171.72
 10
413.06
 20
170.98
 10
411.97
 20
170.37
 10
410.85
 20
169.86
 10
408.64
 20
169.18
 10
407.6
 20
169.02
 10
406.65
 20
168.96
 10
395.85
 20
168.96
 10
395.85
 20
196.56
 10
406.65
 20
196.56
 10
407.6
 20
196.5
 10
408.64
 20
196.33
 97
0
 92
18
 72
0
 73
1
 93
30
 10
400.65
 20
172.56
 10
406.65
 20
172.56
 10
407.36
 20
172.58
 10
407.85
 20
172.71
 10
408.34
 20
173.07
 10
409.05
 20
173.76
 10
409.93
 20
173.97
 10
410.7
 20
174.51
 10
411.24
 20
175.28
 10
411.45
 20
176.16
 10
412.24
 20
176.72
 10
412.84
 20
177.45
 10
413.26
 20
178.33
 10
413.55
 20
179.31
 10
413.81
 20
181.39
 10
413.85
 20
183.36
 10
413.81
 20
185.14
 10
413.55
 20
186.81
 10
413.26
 20
187.57
 10
412.84
 20
188.25
 10
412.24
 20
188.86
 10
411.45
 20
189.36
 10
410.95
 20
190.2
 10
410.36
 20
190.93
 10
409.72
 20
191.55
 10
409.05
 20
192.06
 10
407.74
 20
192.73
 10
406.65
 20
192.96
 10
400.65
 20
192.96
 10
400.65
 20
172.56
 97
0
 75
1
 76
1
 98
0
  0
LWPOLYLINE
  5
6F
330
17
100
AcDbEntity
  8
FILL_WHITE_FFFFFF
370
0
420
16777215
100
AcDbPolyline
 90
30
 70
1
 10
408.64
 20
196.33
 10
410.85
 20
195.66
 10
411.97
 20
195.15
 10
413.06
 20
194.53
 10
414.1
 20
193.8
 10
415.05
 20
192.96
 10
415.89
 20
191.96
 10
416.63
 20
190.78
 10
417.24
 20
189.5
 10
417.75
 20
188.16
 10
418.42
 20
185.53
 10
418.65
 20
183.36
 10
418.59
 20
182.01
 10
418.42
 20
180.66
 10
418.14
 20
179.31
 10
417.75
 20
177.96
 10
417.24
 20
176.61
 10
416.63
 20
175.26
 10
415.05
 20
172.56
 10
414.1
 20
171.72
 10
413.06
 20
170.98
 10
411.97
 20
170.37
 10
410.85
 20
169.86
 10
408.64
 20
169.18
 10
407.6
 20
169.02
 10
406.65
 20
168.96
 10
395.85
 20
168.96
 10
395.85
 20
196.56
 10
406.65
 20
196.56
 10
407.6
 20
196.5
  0
LWPOLYLINE
  5
70
330
17
100
AcDbEntity
  8
FILL_WHITE_FFFFFF
370
0
420
16777215
100
AcDbPolyline
 90
29
 70
1
 10
400.65
 20
172.56
 10
406.65
 20
172.56
 10
407.36
 20
172.58
 10
407.85
 20
172.71
 10
408.34
 20
173.07
 10
409.05
 20
173.76
 10
409.93
 20
173.97
 10
410.7
 20
174.51
 10
411.24
 20
175.28
 10
411.45
 20
176.16
 10
412.24
 20
176.72
 10
412.84
 20
177.45
 10
413.26
 20
178.33
 10
413.55
 20
179.31
 10
413.81
 20
181.39
 10
413.85
 20
183.36
 10
413.81
 20
185.14
 10
413.55
 20
186.81
 10
413.26
 20
187.57
 10
412.84
 20
188.25
 10
412.24
 20
188.86
 10
411.45
 20
189.36
 10
410.95
 20
190.2
 10
410.36
 20
190.93
 10
409.72
 20
191.55
 10
409.05
 20
192.06
 10
407.74
 20
192.73
 10
406.65
 20
192.96
 10
400.65
 20
192.96
  0
HATCH
  5
71
330
17
100
AcDbEntity
  8
FILL_WHITE_FFFFFF
 62
7
420
16777215
100
AcDbHatch
 10
0.0
 20
0.0
 30
0.0
210
0.0
220
0.0
230
1.0
  2
SOLID
 70
1
 71
0
 91
1
 92
3
 72
0
 73
1
 93
25
 10
69.45
 20
74.16
 10
82.65
 20
74.16
 10
85.05
 20
80.16
 10
87.45
 20
80.16
 10
88.65
 20
80.16
 10
89.85
 20
78.96
 10
88.65
 20
78.96
 10
88.65
 20
77.76
 10
87.45
 20
74.16
 10
107.85
 20
74.16
 10
107.85
 20
69.36
 10
85.05
 20
69.36
 10
82.65
 20
64.56
 10
80.25
 20
60.96
 10
80.25
 20
39.36
 10
75.45
 20
39.36
 10
75.45
 20
56.16
 10
70.65
 20
51.36
 10
67.05
 20
53.76
 10
71.85
 20
57.36
 10
75.45
 20
60.96
 10
77.85
 20
65.76
 10
81.45
 20
69.36
 10
69.45
 20
69.36
 10
69.45
 20
74.16
 97
0
 75
1
 76
1
 98
0
  0
LWPOLYLINE
  5
72
330
17
100
AcDbEntity
  8
FILL_WHITE_FFFFFF
370
0
420
16777215
100
AcDbPolyline
 90
24
 70
1
 10
69.45
 20
74.16
 10
82.65
 20
74.16
 10
85.05
 20
80.16
 10
87.45
 20
80.16
 10
88.65
 20
80.16
 10
89.85
 20
78.96
 10
88.65
 20
78.96
 10
88.65
 20
77.76
 10
87.45
 20
74.16
 10
107.85
 20
74.16
 10
107.85
 20
69.36
 10
85.05
 20
69.36
 10
82.65
 20
64.56
 10
80.25
 20
60.96
 10
80.25
 20
39.36
 10
75.45
 20
39.36
 10
75.45
 20
56.16
 10
70.65
 20
51.36
 10
67.05
 20
53.76
 10
71.85
 20
57.36
 10
75.45
 20
60.96
 10
77.85
 20
65.76
 10
81.45
 20
69.36
 10
69.45
 20
69.36
  0
HATCH
  5
73
330
17
100
AcDbEntity
  8
FILL_WHITE_FFFFFF
 62
7
420
16777215
100
AcDbHatch
 10
0.0
 20
0.0
 30
0.0
210
0.0
220
0.0
230
1.0
  2
SOLID
 70
1
 71
0
 91
1
 92
3
 72
0
 73
1
 93
19
 10
83.85
 20
59.76
 10
93.45
 20
59.76
 10
93.45
 20
66.96
 10
97.05
 20
66.96
 10
98.25
 20
66.96
 10
98.25
 20
65.76
 10
98.25
 20
59.76
 10
106.65
 20
59.76
 10
106.65
 20
54.96
 10
98.25
 20
54.96
 10
98.25
 20
45.36
 10
109.05
 20
45.36
 10
109.05
 20
40.56
 10
81.45
 20
40.56
 10
81.45
 20
45.36
 10
93.45
 20
45.36
 10
93.45
 20
54.96
 10
83.85
 20
54.96
 10
83.85
 20
59.76
 97
0
 75
1
 76
1
 98
0
  0
LWPOLYLINE
  5
74
330
17
100
AcDbEntity
  8
FILL_WHITE_FFFFFF
370
0
420
16777215
100
AcDbPolyline
 90
18
 70
1
 10
83.85
 20
59.76
 10
93.45
 20
59.76
 10
93.45
 20
66.96
 10
97.05
 20
66.96
 10
98.25
 20
66.96
 10
98.25
 20
65.76
 10
98.25
 20
59.76
 10
106.65
 20
59.76
 10
106.65
 20
54.96
 10
98.25
 20
54.96
 10
98.25
 20
45.36
 10
109.05
 20
45.36
 10
109.05
 20
40.56
 10
81.45
 20
40.56
 10
81.45
 20
45.36
 10
93.45
 20
45.36
 10
93.45
 20
54.96
 10
83.85
 20
54.96
  0
HATCH
  5
75
330
17
100
AcDbEntity
  8
FILL_WHITE_FFFFFF
 62
7
420
16777215
100
AcDbHatch
 10
0.0
 20
0.0
 30
0.0
210
0.0
220
0.0
230
1.0
  2
SOLID
 70
1
 71
0
 91
1
 92
3
 72
0
 73
1
 93
18
 10
133.05
 20
76.56
 10
131.85
 20
78.96
 10
135.45
 20
80.16
 10
137.85
 20
76.56
 10
139.05
 20
72.96
 10
148.65
 20
72.96
 10
151.05
 20
76.56
 10
152.25
 20
80.16
 10
155.85
 20
80.16
 10
157.05
 20
78.96
 10
157.05
 20
77.76
 10
154.65
 20
72.96
 10
165.45
 20
72.96
 10
165.45
 20
69.36
 10
123.45
 20
69.36
 10
123.45
 20
72.96
 10
134.25
 20
72.96
 10
133.05
 20
76.56
 97
0
 75
1
 76
1
 98
0
  0
LWPOLYLINE
  5
76
330
17
100
AcDbEntity
  8
FILL_WHITE_FFFFFF
370
0
420
16777215
100
AcDbPolyline
 90
17
 70
1
 10
133.05
 20
76.56
 10
131.85
 20
78.96
 10
135.45
 20
80.16
 10
137.85
 20
76.56
 10
139.05
 20
72.96
 10
148.65
 20
72.96
 10
151.05
 20
76.56
 10
152.25
 20
80.16
 10
155.85
 20
80.16
 10
157.05
 20
78.96
 10
157.05
 20
77.76
 10
154.65
 20
72.96
 10
165.45
 20
72.96
 10
165.45
 20
69.36
 10
123.45
 20
69.36
 10
123.45
 20
72.96
 10
134.25
 20
72.96
  0
HATCH
  5
77
330
17
100
AcDbEntity
  8
FILL_WHITE_FFFFFF
 62
7
420
16777215
100
AcDbHatch
 10
0.0
 20
0.0
 30
0.0
210
0.0
220
0.0
230
1.0
  2
SOLID
 70
1
 71
0
 91
3
 92
3
 72
0
 73
1
 93
19
 10
143.85
 20
42.96
 10
143.85
 20
41.76
 10
141.45
 20
40.56
 10
139.05
 20
39.36
 10
136.65
 20
39.36
 10
134.25
 20
42.96
 10
137.85
 20
42.96
 10
139.05
 20
42.96
 10
139.05
 20
44.16
 10
140.25
 20
44.16
 10
140.25
 20
45.36
 10
140.25
 20
47.76
 10
130.65
 20
47.76
 10
130.65
 20
39.36
 10
127.05
 20
39.36
 10
127.05
 20
65.76
 10
143.85
 20
65.76
 10
143.85
 20
46.56
 10
143.85
 20
42.96
 97
0
 92
18
 72
0
 73
1
 93
5
 10
130.65
 20
54.96
 10
130.65
 20
51.36
 10
140.25
 20
51.36
 10
140.25
 20
54.96
 10
130.65
 20
54.96
 97
0
 92
18
 72
0
 73
1
 93
5
 10
140.25
 20
62.16
 10
130.65
 20
62.16
 10
130.65
 20
58.56
 10
140.25
 20
58.56
 10
140.25
 20
62.16
 97
0
 75
1
 76
1
 98
0
  0
LWPOLYLINE
  5
78
330
17
100
AcDbEntity
  8
FILL_WHITE_FFFFFF
370
0
420
16777215
100
AcDbPolyline
 90
18
 70
1
 10
143.85
 20
42.96
 10
143.85
 20
41.76
 10
141.45
 20
40.56
 10
139.05
 20
39.36
 10
136.65
 20
39.36
 10
134.25
 20
42.96
 10
137.85
 20
42.96
 10
139.05
 20
42.96
 10
139.05
 20
44.16
 10
140.25
 20
44.16
 10
140.25
 20
45.36
 10
140.25
 20
47.76
 10
130.65
 20
47.76
 10
130.65
 20
39.36
 10
127.05
 20
39.36
 10
127.05
 20
65.76
 10
143.85
 20
65.76
 10
143.85
 20
46.56
  0
LWPOLYLINE
  5
79
330
17
100
AcDbEntity
  8
FILL_WHITE_FFFFFF
370
0
420
16777215
100
AcDbPolyline
 90
4
 70
1
 10
130.65
 20
54.96
 10
130.65
 20
51.36
 10
140.25
 20
51.36
 10
140.25
 20
54.96
  0
LWPOLYLINE
  5
7A
330
17
100
AcDbEntity
  8
FILL_WHITE_FFFFFF
370
0
420
16777215
100
AcDbPolyline
 90
4
 70
1
 10
140.25
 20
62.16
 10
130.65
 20
62.16
 10
130.65
 20
58.56
 10
140.25
 20
58.56
  0
HATCH
  5
7B
330
17
100
AcDbEntity
  8
FILL_WHITE_FFFFFF
 62
7
420
16777215
100
AcDbHatch
 10
0.0
 20
0.0
 30
0.0
210
0.0
220
0.0
230
1.0
  2
SOLID
 70
1
 71
0
 91
1
 92
3
 72
0
 73
1
 93
8
 10
152.25
 20
64.56
 10
153.45
 20
64.56
 10
153.45
 20
63.36
 10
153.45
 20
62.16
 10
153.45
 20
45.36
 10
148.65
 20
45.36
 10
148.65
 20
64.56
 10
152.25
 20
64.56
 97
0
 75
1
 76
1
 98
0
  0
LWPOLYLINE
  5
7C
330
17
100
AcDbEntity
  8
FILL_WHITE_FFFFFF
370
0
420
16777215
100
AcDbPolyline
 90
7
 70
1
 10
152.25
 20
64.56
 10
153.45
 20
64.56
 10
153.45
 20
63.36
 10
153.45
 20
62.16
 10
153.45
 20
45.36
 10
148.65
 20
45.36
 10
148.65
 20
64.56
  0
HATCH
  5
7D
330
17
100
AcDbEntity
  8
FILL_WHITE_FFFFFF
 62
7
420
16777215
100
AcDbHatch
 10
0.0
 20
0.0
 30
0.0
210
0.0
220
0.0
230
1.0
  2
SOLID
 70
1
 71
0
 91
1
 92
3
 72
0
 73
1
 93
17
 10
161.85
 20
66.96
 10
163.05
 20
66.96
 10
163.05
 20
65.76
 10
163.05
 20
64.56
 10
163.05
 20
45.36
 10
161.85
 20
42.96
 10
161.85
 20
40.56
 10
159.45
 20
39.36
 10
157.05
 20
39.36
 10
153.45
 20
39.36
 10
151.05
 20
42.96
 10
155.85
 20
42.96
 10
157.05
 20
44.16
 10
158.25
 20
44.16
 10
158.25
 20
45.36
 10
158.25
 20
66.96
 10
161.85
 20
66.96
 97
0
 75
1
 76
1
 98
0
  0
LWPOLYLINE
  5
7E
330
17
100
AcDbEntity
  8
FILL_WHITE_FFFFFF
370
0
420
16777215
100
AcDbPolyline
 90
16
 70
1
 10
161.85
 20
66.96
 10
163.05
 20
66.96
 10
163.05
 20
65.76
 10
163.05
 20
64.56
 10
163.05
 20
45.36
 10
161.85
 20
42.96
 10
161.85
 20
40.56
 10
159.45
 20
39.36
 10
157.05
 20
39.36
 10
153.45
 20
39.36
 10
151.05
 20
42.96
 10
155.85
 20
42.96
 10
157.05
 20
44.16
 10
158.25
 20
44.16
 10
158.25
 20
45.36
 10
158.25
 20
66.96
  0
HATCH
  5
7F
330
17
100
AcDbEntity
  8
FILL_WHITE_FFFFFF
 62
7
420
16777215
100
AcDbHatch
 10
0.0
 20
0.0
 30
0.0
210
0.0
220
0.0
230
1.0
  2
SOLID
 70
1
 71
0
 91
6
 92
3
 72
0
 73
1
 93
17
 10
218.25
 20
39.36
 10
214.65
 20
39.36
 10
214.65
 20
41.76
 10
187.05
 20
41.76
 10
187.05
 20
39.36
 10
182.25
 20
39.36
 10
182.25
 20
69.36
 10
196.65
 20
69.36
 10
199.05
 20
74.16
 10
179.85
 20
74.16
 10
179.85
 20
77.76
 10
220.65
 20
77.76
 10
220.65
 20
74.16
 10
202.65
 20
74.16
 10
201.45
 20
69.36
 10
218.25
 20
69.36
 10
218.25
 20
39.36
 97
0
 92
18
 72
0
 73
1
 93
5
 10
203.85
 20
48.96
 10
196.65
 20
48.96
 10
196.65
 20
45.36
 10
203.85
 20
45.36
 10
203.85
 20
48.96
 97
0
 92
18
 72
0
 73
1
 93
5
 10
203.85
 20
60.96
 10
203.85
 20
65.76
 10
196.65
 20
65.76
 10
196.65
 20
60.96
 10
203.85
 20
60.96
 97
0
 92
18
 72
0
 73
1
 93
5
 10
196.65
 20
52.56
 10
203.85
 20
52.56
 10
203.85
 20
57.36
 10
196.65
 20
57.36
 10
196.65
 20
52.56
 97
0
 92
18
 72
0
 73
1
 93
5
 10
187.05
 20
65.76
 10
187.05
 20
45.36
 10
191.85
 20
45.36
 10
191.85
 20
65.76
 10
187.05
 20
65.76
 97
0
 92
18
 72
0
 73
1
 93
5
 10
214.65
 20
65.76
 10
207.45
 20
65.76
 10
207.45
 20
45.36
 10
214.65
 20
45.36
 10
214.65
 20
65.76
 97
0
 75
1
 76
1
 98
0
  0
LWPOLYLINE
  5
80
330
17
100
AcDbEntity
  8
FILL_WHITE_FFFFFF
370
0
420
16777215
100
AcDbPolyline
 90
16
 70
1
 10
218.25
 20
39.36
 10
214.65
 20
39.36
 10
214.65
 20
41.76
 10
187.05
 20
41.76
 10
187.05
 20
39.36
 10
182.25
 20
39.36
 10
182.25
 20
69.36
 10
196.65
 20
69.36
 10
199.05
 20
74.16
 10
179.85
 20
74.16
 10
179.85
 20
77.76
 10
220.65
 20
77.76
 10
220.65
 20
74.16
 10
202.65
 20
74.16
 10
201.45
 20
69.36
 10
218.25
 20
69.36
  0
LWPOLYLINE
  5
81
330
17
100
AcDbEntity
  8
FILL_WHITE_FFFFFF
370
0
420
16777215
100
AcDbPolyline
 90
4
 70
1
 10
203.85
 20
48.96
 10
196.65
 20
48.96
 10
196.65
 20
45.36
 10
203.85
 20
45.36
  0
LWPOLYLINE
  5
82
330
17
100
AcDbEntity
  8
FILL_WHITE_FFFFFF
370
0
420
16777215
100
AcDbPolyline
 90
4
 70
1
 10
203.85
 20
60.96
 10
203.85
 20
65.76
 10
196.65
 20
65.76
 10
196.65
 20
60.96
  0
LWPOLYLINE
  5
83
330
17
100
AcDbEntity
  8
FILL_WHITE_FFFFFF
370
0
420
16777215
100
AcDbPolyline
 90
4
 70
1
 10
196.65
 20
52.56
 10
203.85
 20
52.56
 10
203.85
 20
57.36
 10
196.65
 20
57.36
  0
LWPOLYLINE
  5
84
330
17
100
AcDbEntity
  8
FILL_WHITE_FFFFFF
370
0
420
16777215
100
AcDbPolyline
 90
4
 70
1
 10
187.05
 20
65.76
 10
187.05
 20
45.36
 10
191.85
 20
45.36
 10
191.85
 20
65.76
  0
LWPOLYLINE
  5
85
330
17
100
AcDbEntity
  8
FILL_WHITE_FFFFFF
370
0
420
16777215
100
AcDbPolyline
 90
4
 70
1
 10
214.65
 20
65.76
 10
207.45
 20
65.76
 10
207.45
 20
45.36
 10
214.65
 20
45.36
  0
HATCH
  5
86
330
17
100
AcDbEntity
  8
FILL_WHITE_FFFFFF
 62
7
420
16777215
100
AcDbHatch
 10
0.0
 20
0.0
 30
0.0
210
0.0
220
0.0
230
1.0
  2
SOLID
 70
1
 71
0
 91
2
 92
3
 72
0
 73
1
 93
19
 10
274.65
 20
74.16
 10
256.65
 20
74.16
 10
254.25
 20
63.36
 10
269.85
 20
63.36
 10
267.45
 20
45.36
 10
277.05
 20
45.36
 10
277.05
 20
40.56
 10
236.25
 20
40.56
 10
236.25
 20
45.36
 10
247.05
 20
45.36
 10
249.45
 20
58.56
 10
239.85
 20
58.56
 10
239.85
 20
63.36
 10
249.45
 20
63.36
 10
251.85
 20
74.16
 10
237.45
 20
74.16
 10
237.45
 20
77.76
 10
274.65
 20
77.76
 10
274.65
 20
74.16
 97
0
 92
18
 72
0
 73
1
 93
5
 10
265.05
 20
58.56
 10
254.25
 20
58.56
 10
251.85
 20
45.36
 10
262.65
 20
45.36
 10
265.05
 20
58.56
 97
0
 75
1
 76
1
 98
0
  0
LWPOLYLINE
  5
87
330
17
100
AcDbEntity
  8
FILL_WHITE_FFFFFF
370
0
420
16777215
100
AcDbPolyline
 90
18
 70
1
 10
274.65
 20
74.16
 10
256.65
 20
74.16
 10
254.25
 20
63.36
 10
269.85
 20
63.36
 10
267.45
 20
45.36
 10
277.05
 20
45.36
 10
277.05
 20
40.56
 10
236.25
 20
40.56
 10
236.25
 20
45.36
 10
247.05
 20
45.36
 10
249.45
 20
58.56
 10
239.85
 20
58.56
 10
239.85
 20
63.36
 10
249.45
 20
63.36
 10
251.85
 20
74.16
 10
237.45
 20
74.16
 10
237.45
 20
77.76
 10
274.65
 20
77.76
  0
LWPOLYLINE
  5
88
330
17
100
AcDbEntity
  8
FILL_WHITE_FFFFFF
370
0
420
16777215
100
AcDbPolyline
 90
4
 70
1
 10
265.05
 20
58.56
 10
254.25
 20
58.56
 10
251.85
 20
45.36
 10
262.65
 20
45.36
  0
HATCH
  5
89
330
17
100
AcDbEntity
  8
FILL_WHITE_FFFFFF
 62
7
420
16777215
100
AcDbHatch
 10
0.0
 20
0.0
 30
0.0
210
0.0
220
0.0
230
1.0
  2
SOLID
 70
1
 71
0
 91
3
 92
3
 72
0
 73
1
 93
17
 10
332.25
 20
75.36
 10
314.25
 20
75.36
 10
311.85
 20
69.36
 10
327.45
 20
69.36
 10
327.45
 20
39.36
 10
322.65
 20
39.36
 10
322.65
 20
41.76
 10
301.05
 20
41.76
 10
301.05
 20
39.36
 10
296.25
 20
39.36
 10
296.25
 20
69.36
 10
307.05
 20
69.36
 10
309.45
 20
75.36
 10
292.65
 20
75.36
 10
292.65
 20
78.96
 10
332.25
 20
78.96
 10
332.25
 20
75.36
 97
0
 92
18
 72
0
 73
1
 93
5
 10
301.05
 20
65.76
 10
301.05
 20
57.36
 10
322.65
 20
57.36
 10
322.65
 20
65.76
 10
301.05
 20
65.76
 97
0
 92
18
 72
0
 73
1
 93
5
 10
322.65
 20
53.76
 10
301.05
 20
53.76
 10
301.05
 20
46.56
 10
322.65
 20
46.56
 10
322.65
 20
53.76
 97
0
 75
1
 76
1
 98
0
  0
LWPOLYLINE
  5
8A
330
17
100
AcDbEntity
  8
FILL_WHITE_FFFFFF
370
0
420
16777215
100
AcDbPolyline
 90
16
 70
1
 10
332.25
 20
75.36
 10
314.25
 20
75.36
 10
311.85
 20
69.36
 10
327.45
 20
69.36
 10
327.45
 20
39.36
 10
322.65
 20
39.36
 10
322.65
 20
41.76
 10
301.05
 20
41.76
 10
301.05
 20
39.36
 10
296.25
 20
39.36
 10
296.25
 20
69.36
 10
307.05
 20
69.36
 10
309.45
 20
75.36
 10
292.65
 20
75.36
 10
292.65
 20
78.96
 10
332.25
 20
78.96
  0
LWPOLYLINE
  5
8B
330
17
100
AcDbEntity
  8
FILL_WHITE_FFFFFF
370
0
420
16777215
100
AcDbPolyline
 90
4
 70
1
 10
301.05
 20
65.76
 10
301.05
 20
57.36
 10
322.65
 20
57.36
 10
322.65
 20
65.76
  0
LWPOLYLINE
  5
8C
330
17
100
AcDbEntity
  8
FILL_WHITE_FFFFFF
370
0
420
16777215
100
AcDbPolyline
 90
4
 70
1
 10
322.65
 20
53.76
 10
301.05
 20
53.76
 10
301.05
 20
46.56
 10
322.65
 20
46.56
  0
HATCH
  5
8D
330
17
100
AcDbEntity
  8
FILL_WHITE_FFFFFF
 62
7
420
16777215
100
AcDbHatch
 10
0.0
 20
0.0
 30
0.0
210
0.0
220
0.0
230
1.0
  2
SOLID
 70
1
 71
0
 91
1
 92
3
 72
0
 73
1
 93
7
 10
358.65
 20
72.96
 10
362.25
 20
68.16
 10
357.45
 20
65.76
 10
355.05
 20
70.56
 10
351.45
 20
74.16
 10
353.85
 20
76.56
 10
358.65
 20
72.96
 97
0
 75
1
 76
1
 98
0
  0
LWPOLYLINE
  5
8E
330
17
100
AcDbEntity
  8
FILL_WHITE_FFFFFF
370
0
420
16777215
100
AcDbPolyline
 90
6
 70
1
 10
358.65
 20
72.96
 10
362.25
 20
68.16
 10
357.45
 20
65.76
 10
355.05
 20
70.56
 10
351.45
 20
74.16
 10
353.85
 20
76.56
  0
HATCH
  5
8F
330
17
100
AcDbEntity
  8
FILL_WHITE_FFFFFF
 62
7
420
16777215
100
AcDbHatch
 10
0.0
 20
0.0
 30
0.0
210
0.0
220
0.0
230
1.0
  2
SOLID
 70
1
 71
0
 91
1
 92
3
 72
0
 73
1
 93
33
 10
346.65
 20
64.56
 10
365.85
 20
64.56
 10
365.85
 20
80.16
 10
369.45
 20
80.16
 10
370.65
 20
80.16
 10
370.65
 20
78.96
 10
370.65
 20
64.56
 10
388.65
 20
64.56
 10
388.65
 20
60.96
 10
371.85
 20
60.96
 10
375.45
 20
56.16
 10
379.05
 20
52.56
 10
383.85
 20
48.96
 10
388.65
 20
46.56
 10
385.05
 20
42.96
 10
380.25
 20
45.36
 10
376.65
 20
48.96
 10
373.05
 20
52.56
 10
370.65
 20
57.36
 10
370.65
 20
39.36
 10
365.85
 20
39.36
 10
365.85
 20
57.36
 10
363.45
 20
53.76
 10
359.85
 20
50.16
 10
355.05
 20
46.56
 10
350.25
 20
41.76
 10
346.65
 20
45.36
 10
351.45
 20
48.96
 10
356.25
 20
52.56
 10
359.85
 20
56.16
 10
363.45
 20
60.96
 10
346.65
 20
60.96
 10
346.65
 20
64.56
 97
0
 75
1
 76
1
 98
0
  0
LWPOLYLINE
  5
90
330
17
100
AcDbEntity
  8
FILL_WHITE_FFFFFF
370
0
420
16777215
100
AcDbPolyline
 90
32
 70
1
 10
346.65
 20
64.56
 10
365.85
 20
64.56
 10
365.85
 20
80.16
 10
369.45
 20
80.16
 10
370.65
 20
80.16
 10
370.65
 20
78.96
 10
370.65
 20
64.56
 10
388.65
 20
64.56
 10
388.65
 20
60.96
 10
371.85
 20
60.96
 10
375.45
 20
56.16
 10
379.05
 20
52.56
 10
383.85
 20
48.96
 10
388.65
 20
46.56
 10
385.05
 20
42.96
 10
380.25
 20
45.36
 10
376.65
 20
48.96
 10
373.05
 20
52.56
 10
370.65
 20
57.36
 10
370.65
 20
39.36
 10
365.85
 20
39.36
 10
365.85
 20
57.36
 10
363.45
 20
53.76
 10
359.85
 20
50.16
 10
355.05
 20
46.56
 10
350.25
 20
41.76
 10
346.65
 20
45.36
 10
351.45
 20
48.96
 10
356.25
 20
52.56
 10
359.85
 20
56.16
 10
363.45
 20
60.96
 10
346.65
 20
60.96
  0
HATCH
  5
91
330
17
100
AcDbEntity
  8
FILL_WHITE_FFFFFF
 62
7
420
16777215
100
AcDbHatch
 10
0.0
 20
0.0
 30
0.0
210
0.0
220
0.0
230
1.0
  2
SOLID
 70
1
 71
0
 91
1
 92
3
 72
0
 73
1
 93
8
 10
377.85
 20
71.76
 10
380.25
 20
76.56
 10
383.85
 20
74.16
 10
385.05
 20
74.16
 10
383.85
 20
72.96
 10
377.85
 20
65.76
 10
374.25
 20
68.16
 10
377.85
 20
71.76
 97
0
 75
1
 76
1
 98
0
  0
LWPOLYLINE
  5
92
330
17
100
AcDbEntity
  8
FILL_WHITE_FFFFFF
370
0
420
16777215
100
AcDbPolyline
 90
7
 70
1
 10
377.85
 20
71.76
 10
380.25
 20
76.56
 10
383.85
 20
74.16
 10
385.05
 20
74.16
 10
383.85
 20
72.96
 10
377.85
 20
65.76
 10
374.25
 20
68.16
  0
HATCH
  5
93
330
17
100
AcDbEntity
  8
FILL_WHITE_FFFFFF
 62
7
420
16777215
100
AcDbHatch
 10
0.0
 20
0.0
 30
0.0
210
0.0
220
0.0
230
1.0
  2
SOLID
 70
1
 71
0
 91
3
 92
3
 72
0
 73
1
 93
7
 10
421.05
 20
63.36
 10
407.85
 20
63.36
 10
407.85
 20
39.36
 10
404.25
 20
39.36
 10
404.25
 20
78.96
 10
421.05
 20
78.96
 10
421.05
 20
63.36
 97
0
 92
18
 72
0
 73
1
 93
5
 10
407.85
 20
69.36
 10
407.85
 20
66.96
 10
417.45
 20
66.96
 10
417.45
 20
69.36
 10
407.85
 20
69.36
 97
0
 92
18
 72
0
 73
1
 93
5
 10
417.45
 20
75.36
 10
407.85
 20
75.36
 10
407.85
 20
72.96
 10
417.45
 20
72.96
 10
417.45
 20
75.36
 97
0
 75
1
 76
1
 98
0
  0
LWPOLYLINE
  5
94
330
17
100
AcDbEntity
  8
FILL_WHITE_FFFFFF
370
0
420
16777215
100
AcDbPolyline
 90
6
 70
1
 10
421.05
 20
63.36
 10
407.85
 20
63.36
 10
407.85
 20
39.36
 10
404.25
 20
39.36
 10
404.25
 20
78.96
 10
421.05
 20
78.96
  0
LWPOLYLINE
  5
95
330
17
100
AcDbEntity
  8
FILL_WHITE_FFFFFF
370
0
420
16777215
100
AcDbPolyline
 90
4
 70
1
 10
407.85
 20
69.36
 10
407.85
 20
66.96
 10
417.45
 20
66.96
 10
417.45
 20
69.36
  0
LWPOLYLINE
  5
96
330
17
100
AcDbEntity
  8
FILL_WHITE_FFFFFF
370
0
420
16777215
100
AcDbPolyline
 90
4
 70
1
 10
417.45
 20
75.36
 10
407.85
 20
75.36
 10
407.85
 20
72.96
 10
417.45
 20
72.96
  0
HATCH
  5
97
330
17
100
AcDbEntity
  8
FILL_WHITE_FFFFFF
 62
7
420
16777215
100
AcDbHatch
 10
0.0
 20
0.0
 30
0.0
210
0.0
220
0.0
230
1.0
  2
SOLID
 70
1
 71
0
 91
2
 92
3
 72
0
 73
1
 93
26
 10
435.45
 20
57.36
 10
430.65
 20
57.36
 10
430.65
 20
52.56
 10
436.65
 20
52.56
 10
436.65
 20
48.96
 10
430.65
 20
48.96
 10
430.65
 20
39.36
 10
427.05
 20
39.36
 10
427.05
 20
48.96
 10
421.05
 20
48.96
 10
419.85
 20
46.56
 10
418.65
 20
44.16
 10
416.25
 20
41.76
 10
413.85
 20
39.36
 10
411.45
 20
42.96
 10
415.05
 20
45.36
 10
417.45
 20
48.96
 10
410.25
 20
48.96
 10
410.25
 20
52.56
 10
417.45
 20
52.56
 10
418.65
 20
54.96
 10
417.45
 20
57.36
 10
411.45
 20
57.36
 10
411.45
 20
60.96
 10
435.45
 20
60.96
 10
435.45
 20
57.36
 97
0
 92
18
 72
0
 73
1
 93
5
 10
427.05
 20
52.56
 10
427.05
 20
57.36
 10
421.05
 20
57.36
 10
421.05
 20
52.56
 10
427.05
 20
52.56
 97
0
 75
1
 76
1
 98
0
  0
LWPOLYLINE
  5
98
330
17
100
AcDbEntity
  8
FILL_WHITE_FFFFFF
370
0
420
16777215
100
AcDbPolyline
 90
25
 70
1
 10
435.45
 20
57.36
 10
430.65
 20
57.36
 10
430.65
 20
52.56
 10
436.65
 20
52.56
 10
436.65
 20
48.96
 10
430.65
 20
48.96
 10
430.65
 20
39.36
 10
427.05
 20
39.36
 10
427.05
 20
48.96
 10
421.05
 20
48.96
 10
419.85
 20
46.56
 10
418.65
 20
44.16
 10
416.25
 20
41.76
 10
413.85
 20
39.36
 10
411.45
 20
42.96
 10
415.05
 20
45.36
 10
417.45
 20
48.96
 10
410.25
 20
48.96
 10
410.25
 20
52.56
 10
417.45
 20
52.56
 10
418.65
 20
54.96
 10
417.45
 20
57.36
 10
411.45
 20
57.36
 10
411.45
 20
60.96
 10
435.45
 20
60.96
  0
LWPOLYLINE
  5
99
330
17
100
AcDbEntity
  8
FILL_WHITE_FFFFFF
370
0
420
16777215
100
AcDbPolyline
 90
4
 70
1
 10
427.05
 20
52.56
 10
427.05
 20
57.36
 10
421.05
 20
57.36
 10
421.05
 20
52.56
  0
HATCH
  5
9A
330
17
100
AcDbEntity
  8
FILL_WHITE_FFFFFF
 62
7
420
16777215
100
AcDbHatch
 10
0.0
 20
0.0
 30
0.0
210
0.0
220
0.0
230
1.0
  2
SOLID
 70
1
 71
0
 91
3
 92
3
 72
0
 73
1
 93
19
 10
443.85
 20
45.36
 10
443.85
 20
44.16
 10
443.85
 20
42.96
 10
442.65
 20
41.76
 10
442.65
 20
40.56
 10
441.45
 20
39.36
 10
439.05
 20
39.36
 10
437.85
 20
39.36
 10
435.45
 20
39.36
 10
433.05
 20
44.16
 10
436.65
 20
42.96
 10
437.85
 20
42.96
 10
439.05
 20
44.16
 10
439.05
 20
46.56
 10
439.05
 20
63.36
 10
425.85
 20
63.36
 10
425.85
 20
78.96
 10
443.85
 20
78.96
 10
443.85
 20
45.36
 97
0
 92
18
 72
0
 73
1
 93
5
 10
429.45
 20
69.36
 10
429.45
 20
66.96
 10
439.05
 20
66.96
 10
439.05
 20
69.36
 10
429.45
 20
69.36
 97
0
 92
18
 72
0
 73
1
 93
5
 10
439.05
 20
75.36
 10
429.45
 20
75.36
 10
429.45
 20
72.96
 10
439.05
 20
72.96
 10
439.05
 20
75.36
 97
0
 75
1
 76
1
 98
0
  0
LWPOLYLINE
  5
9B
330
17
100
AcDbEntity
  8
FILL_WHITE_FFFFFF
370
0
420
16777215
100
AcDbPolyline
 90
18
 70
1
 10
443.85
 20
45.36
 10
443.85
 20
44.16
 10
443.85
 20
42.96
 10
442.65
 20
41.76
 10
442.65
 20
40.56
 10
441.45
 20
39.36
 10
439.05
 20
39.36
 10
437.85
 20
39.36
 10
435.45
 20
39.36
 10
433.05
 20
44.16
 10
436.65
 20
42.96
 10
437.85
 20
42.96
 10
439.05
 20
44.16
 10
439.05
 20
46.56
 10
439.05
 20
63.36
 10
425.85
 20
63.36
 10
425.85
 20
78.96
 10
443.85
 20
78.96
  0
LWPOLYLINE
  5
9C
330
17
100
AcDbEntity
  8
FILL_WHITE_FFFFFF
370
0
420
16777215
100
AcDbPolyline
 90
4
 70
1
 10
429.45
 20
69.36
 10
429.45
 20
66.96
 10
439.05
 20
66.96
 10
439.05
 20
69.36
  0
LWPOLYLINE
  5
9D
330
17
100
AcDbEntity
  8
FILL_WHITE_FFFFFF
370
0
420
16777215
100
AcDbPolyline
 90
4
 70
1
 10
439.05
 20
75.36
 10
429.45
 20
75.36
 10
429.45
 20
72.96
 10
439.05
 20
72.96
  0
HATCH
  5
9E
330
17
100
AcDbEntity
  8
FILL_WHITE_FFFFFF
 62
7
420
16777215
100
AcDbHatch
 10
0.0
 20
0.0
 30
0.0
210
0.0
220
0.0
230
1.0
  2
SOLID
 70
1
 71
0
 91
2
 92
3
 72
0
 73
1
 93
29
 10
469.05
 20
78.96
 10
467.85
 20
77.76
 10
467.85
 20
70.56
 10
475.05
 20
70.56
 10
475.05
 20
65.76
 10
475.05
 20
60.96
 10
473.85
 20
54.96
 10
472.65
 20
51.36
 10
477.45
 20
46.56
 10
473.85
 20
42.96
 10
470.25
 20
46.56
 10
466.65
 20
42.96
 10
461.85
 20
39.36
 10
458.25
 20
42.96
 10
461.85
 20
44.16
 10
464.25
 20
46.56
 10
466.65
 20
47.76
 10
466.65
 20
50.16
 10
464.25
 20
52.56
 10
463.05
 20
48.96
 10
459.45
 20
51.36
 10
461.85
 20
58.56
 10
463.05
 20
66.96
 10
458.25
 20
66.96
 10
458.25
 20
70.56
 10
463.05
 20
70.56
 10
464.25
 20
80.16
 10
469.05
 20
80.16
 10
469.05
 20
78.96
 97
0
 92
18
 72
0
 73
1
 93
6
 10
469.05
 20
53.76
 10
470.25
 20
59.76
 10
471.45
 20
66.96
 10
466.65
 20
66.96
 10
465.45
 20
54.96
 10
469.05
 20
53.76
 97
0
 75
1
 76
1
 98
0
  0
LWPOLYLINE
  5
9F
330
17
100
AcDbEntity
  8
FILL_WHITE_FFFFFF
370
0
420
16777215
100
AcDbPolyline
 90
28
 70
1
 10
469.05
 20
78.96
 10
467.85
 20
77.76
 10
467.85
 20
70.56
 10
475.05
 20
70.56
 10
475.05
 20
65.76
 10
475.05
 20
60.96
 10
473.85
 20
54.96
 10
472.65
 20
51.36
 10
477.45
 20
46.56
 10
473.85
 20
42.96
 10
470.25
 20
46.56
 10
466.65
 20
42.96
 10
461.85
 20
39.36
 10
458.25
 20
42.96
 10
461.85
 20
44.16
 10
464.25
 20
46.56
 10
466.65
 20
47.76
 10
466.65
 20
50.16
 10
464.25
 20
52.56
 10
463.05
 20
48.96
 10
459.45
 20
51.36
 10
461.85
 20
58.56
 10
463.05
 20
66.96
 10
458.25
 20
66.96
 10
458.25
 20
70.56
 10
463.05
 20
70.56
 10
464.25
 20
80.16
 10
469.05
 20
80.16
  0
LWPOLYLINE
  5
A0
330
17
100
AcDbEntity
  8
FILL_WHITE_FFFFFF
370
0
420
16777215
100
AcDbPolyline
 90
5
 70
1
 10
469.05
 20
53.76
 10
470.25
 20
59.76
 10
471.45
 20
66.96
 10
466.65
 20
66.96
 10
465.45
 20
54.96
  0
HATCH
  5
A1
330
17
100
AcDbEntity
  8
FILL_WHITE_FFFFFF
 62
7
420
16777215
100
AcDbHatch
 10
0.0
 20
0.0
 30
0.0
210
0.0
220
0.0
230
1.0
  2
SOLID
 70
1
 71
0
 91
1
 92
3
 72
0
 73
1
 93
19
 10
488.25
 20
78.96
 10
489.45
 20
78.96
 10
489.45
 20
77.76
 10
488.25
 20
76.56
 10
483.45
 20
65.76
 10
494.25
 20
66.96
 10
490.65
 20
72.96
 10
494.25
 20
74.16
 10
497.85
 20
66.96
 10
500.25
 20
60.96
 10
496.65
 20
59.76
 10
495.45
 20
63.36
 10
478.65
 20
60.96
 10
477.45
 20
60.96
 10
476.25
 20
62.16
 10
476.25
 20
65.76
 10
479.85
 20
65.76
 10
484.65
 20
80.16
 10
488.25
 20
78.96
 97
0
 75
1
 76
1
 98
0
  0
LWPOLYLINE
  5
A2
330
17
100
AcDbEntity
  8
FILL_WHITE_FFFFFF
370
0
420
16777215
100
AcDbPolyline
 90
18
 70
1
 10
488.25
 20
78.96
 10
489.45
 20
78.96
 10
489.45
 20
77.76
 10
488.25
 20
76.56
 10
483.45
 20
65.76
 10
494.25
 20
66.96
 10
490.65
 20
72.96
 10
494.25
 20
74.16
 10
497.85
 20
66.96
 10
500.25
 20
60.96
 10
496.65
 20
59.76
 10
495.45
 20
63.36
 10
478.65
 20
60.96
 10
477.45
 20
60.96
 10
476.25
 20
62.16
 10
476.25
 20
65.76
 10
479.85
 20
65.76
 10
484.65
 20
80.16
  0
HATCH
  5
A3
330
17
100
AcDbEntity
  8
FILL_WHITE_FFFFFF
 62
7
420
16777215
100
AcDbHatch
 10
0.0
 20
0.0
 30
0.0
210
0.0
220
0.0
230
1.0
  2
SOLID
 70
1
 71
0
 91
2
 92
3
 72
0
 73
1
 93
9
 10
497.85
 20
39.36
 10
494.25
 20
39.36
 10
494.25
 20
41.76
 10
483.45
 20
41.76
 10
483.45
 20
39.36
 10
479.85
 20
39.36
 10
479.85
 20
57.36
 10
497.85
 20
57.36
 10
497.85
 20
39.36
 97
0
 92
18
 72
0
 73
1
 93
5
 10
494.25
 20
53.76
 10
483.45
 20
53.76
 10
483.45
 20
45.36
 10
494.25
 20
45.36
 10
494.25
 20
53.76
 97
0
 75
1
 76
1
 98
0
  0
LWPOLYLINE
  5
A4
330
17
100
AcDbEntity
  8
FILL_WHITE_FFFFFF
370
0
420
16777215
100
AcDbPolyline
 90
8
 70
1
 10
497.85
 20
39.36
 10
494.25
 20
39.36
 10
494.25
 20
41.76
 10
483.45
 20
41.76
 10
483.45
 20
39.36
 10
479.85
 20
39.36
 10
479.85
 20
57.36
 10
497.85
 20
57.36
  0
LWPOLYLINE
  5
A5
330
17
100
AcDbEntity
  8
FILL_WHITE_FFFFFF
370
0
420
16777215
100
AcDbPolyline
 90
4
 70
1
 10
494.25
 20
53.76
 10
483.45
 20
53.76
 10
483.45
 20
45.36
 10
494.25
 20
45.36
  0
HATCH
  5
A6
330
17
100
AcDbEntity
  8
FILL_WHITE_FFFFFF
 62
7
420
16777215
100
AcDbHatch
 10
0.0
 20
0.0
 30
0.0
210
0.0
220
0.0
230
1.0
  2
SOLID
 70
1
 71
0
 91
1
 92
3
 72
0
 73
1
 93
9
 10
179.85
 20
128.16
 10
181.05
 20
135.36
 10
183.45
 20
135.36
 10
184.65
 20
135.36
 10
184.65
 20
134.16
 10
183.45
 20
128.16
 10
183.45
 20
122.16
 10
178.65
 20
122.16
 10
179.85
 20
128.16
 97
0
 75
1
 76
1
 98
0
  0
LWPOLYLINE
  5
A7
330
17
100
AcDbEntity
  8
FILL_WHITE_FFFFFF
370
0
420
16777215
100
AcDbPolyline
 90
8
 70
1
 10
179.85
 20
128.16
 10
181.05
 20
135.36
 10
183.45
 20
135.36
 10
184.65
 20
135.36
 10
184.65
 20
134.16
 10
183.45
 20
128.16
 10
183.45
 20
122.16
 10
178.65
 20
122.16
  0
HATCH
  5
A8
330
17
100
AcDbEntity
  8
FILL_WHITE_FFFFFF
 62
7
420
16777215
100
AcDbHatch
 10
0.0
 20
0.0
 30
0.0
210
0.0
220
0.0
230
1.0
  2
SOLID
 70
1
 71
0
 91
1
 92
3
 72
0
 73
1
 93
6
 10
191.85
 20
135.36
 10
194.25
 20
136.56
 10
196.65
 20
132.96
 10
197.85
 20
128.16
 10
193.05
 20
128.16
 10
191.85
 20
135.36
 97
0
 75
1
 76
1
 98
0
  0
LWPOLYLINE
  5
A9
330
17
100
AcDbEntity
  8
FILL_WHITE_FFFFFF
370
0
420
16777215
100
AcDbPolyline
 90
5
 70
1
 10
191.85
 20
135.36
 10
194.25
 20
136.56
 10
196.65
 20
132.96
 10
197.85
 20
128.16
 10
193.05
 20
128.16
  0
HATCH
  5
AA
330
17
100
AcDbEntity
  8
FILL_WHITE_FFFFFF
 62
7
420
16777215
100
AcDbHatch
 10
0.0
 20
0.0
 30
0.0
210
0.0
220
0.0
230
1.0
  2
SOLID
 70
1
 71
0
 91
2
 92
3
 72
0
 73
1
 93
37
 10
203.85
 20
146.16
 10
207.45
 20
146.16
 10
208.65
 20
146.16
 10
208.65
 20
144.96
 10
207.45
 20
143.76
 10
207.45
 20
138.96
 10
217.05
 20
138.96
 10
217.05
 20
125.76
 10
220.65
 20
125.76
 10
220.65
 20
120.96
 10
209.85
 20
120.96
 10
211.05
 20
117.36
 10
213.45
 20
113.76
 10
217.05
 20
111.36
 10
220.65
 20
108.96
 10
217.05
 20
104.16
 10
213.45
 20
107.76
 10
211.05
 20
110.16
 10
208.65
 20
113.76
 10
206.25
 20
118.56
 10
205.05
 20
113.76
 10
202.65
 20
110.16
 10
199.05
 20
107.76
 10
195.45
 20
105.36
 10
193.05
 20
107.76
 10
196.65
 20
110.16
 10
199.05
 20
113.76
 10
201.45
 20
117.36
 10
203.85
 20
120.96
 10
194.25
 20
120.96
 10
194.25
 20
125.76
 10
203.85
 20
125.76
 10
203.85
 20
134.16
 10
197.85
 20
134.16
 10
197.85
 20
138.96
 10
203.85
 20
138.96
 10
203.85
 20
146.16
 97
0
 92
18
 72
0
 73
1
 93
5
 10
208.65
 20
134.16
 10
207.45
 20
125.76
 10
213.45
 20
125.76
 10
213.45
 20
134.16
 10
208.65
 20
134.16
 97
0
 75
1
 76
1
 98
0
  0
LWPOLYLINE
  5
AB
330
17
100
AcDbEntity
  8
FILL_WHITE_FFFFFF
370
0
420
16777215
100
AcDbPolyline
 90
36
 70
1
 10
203.85
 20
146.16
 10
207.45
 20
146.16
 10
208.65
 20
146.16
 10
208.65
 20
144.96
 10
207.45
 20
143.76
 10
207.45
 20
138.96
 10
217.05
 20
138.96
 10
217.05
 20
125.76
 10
220.65
 20
125.76
 10
220.65
 20
120.96
 10
209.85
 20
120.96
 10
211.05
 20
117.36
 10
213.45
 20
113.76
 10
217.05
 20
111.36
 10
220.65
 20
108.96
 10
217.05
 20
104.16
 10
213.45
 20
107.76
 10
211.05
 20
110.16
 10
208.65
 20
113.76
 10
206.25
 20
118.56
 10
205.05
 20
113.76
 10
202.65
 20
110.16
 10
199.05
 20
107.76
 10
195.45
 20
105.36
 10
193.05
 20
107.76
 10
196.65
 20
110.16
 10
199.05
 20
113.76
 10
201.45
 20
117.36
 10
203.85
 20
120.96
 10
194.25
 20
120.96
 10
194.25
 20
125.76
 10
203.85
 20
125.76
 10
203.85
 20
134.16
 10
197.85
 20
134.16
 10
197.85
 20
138.96
 10
203.85
 20
138.96
  0
LWPOLYLINE
  5
AC
330
17
100
AcDbEntity
  8
FILL_WHITE_FFFFFF
370
0
420
16777215
100
AcDbPolyline
 90
4
 70
1
 10
208.65
 20
134.16
 10
207.45
 20
125.76
 10
213.45
 20
125.76
 10
213.45
 20
134.16
  0
HATCH
  5
AD
330
17
100
AcDbEntity
  8
FILL_WHITE_FFFFFF
 62
7
420
16777215
100
AcDbHatch
 10
0.0
 20
0.0
 30
0.0
210
0.0
220
0.0
230
1.0
  2
SOLID
 70
1
 71
0
 91
1
 92
3
 72
0
 73
1
 93
7
 10
185.85
 20
146.16
 10
188.25
 20
146.16
 10
190.65
 20
146.16
 10
190.65
 20
144.96
 10
190.65
 20
105.36
 10
185.85
 20
105.36
 10
185.85
 20
146.16
 97
0
 75
1
 76
1
 98
0
  0
LWPOLYLINE
  5
AE
330
17
100
AcDbEntity
  8
FILL_WHITE_FFFFFF
370
0
420
16777215
100
AcDbPolyline
 90
6
 70
1
 10
185.85
 20
146.16
 10
188.25
 20
146.16
 10
190.65
 20
146.16
 10
190.65
 20
144.96
 10
190.65
 20
105.36
 10
185.85
 20
105.36
  0
HATCH
  5
AF
330
17
100
AcDbEntity
  8
FILL_WHITE_FFFFFF
 62
7
420
16777215
100
AcDbHatch
 10
0.0
 20
0.0
 30
0.0
210
0.0
220
0.0
230
1.0
  2
SOLID
 70
1
 71
0
 91
1
 92
3
 72
0
 73
1
 93
7
 10
242.25
 20
144.96
 10
244.65
 20
141.36
 10
242.25
 20
138.96
 10
239.85
 20
141.36
 10
236.25
 20
143.76
 10
238.65
 20
146.16
 10
242.25
 20
144.96
 97
0
 75
1
 76
1
 98
0
  0
LWPOLYLINE
  5
B0
330
17
100
AcDbEntity
  8
FILL_WHITE_FFFFFF
370
0
420
16777215
100
AcDbPolyline
 90
6
 70
1
 10
242.25
 20
144.96
 10
244.65
 20
141.36
 10
242.25
 20
138.96
 10
239.85
 20
141.36
 10
236.25
 20
143.76
 10
238.65
 20
146.16
  0
HATCH
  5
B1
330
17
100
AcDbEntity
  8
FILL_WHITE_FFFFFF
 62
7
420
16777215
100
AcDbHatch
 10
0.0
 20
0.0
 30
0.0
210
0.0
220
0.0
230
1.0
  2
SOLID
 70
1
 71
0
 91
1
 92
3
 72
0
 73
1
 93
7
 10
242.25
 20
134.16
 10
244.65
 20
131.76
 10
242.25
 20
129.36
 10
238.65
 20
131.76
 10
235.05
 20
134.16
 10
237.45
 20
136.56
 10
242.25
 20
134.16
 97
0
 75
1
 76
1
 98
0
  0
LWPOLYLINE
  5
B2
330
17
100
AcDbEntity
  8
FILL_WHITE_FFFFFF
370
0
420
16777215
100
AcDbPolyline
 90
6
 70
1
 10
242.25
 20
134.16
 10
244.65
 20
131.76
 10
242.25
 20
129.36
 10
238.65
 20
131.76
 10
235.05
 20
134.16
 10
237.45
 20
136.56
  0
HATCH
  5
B3
330
17
100
AcDbEntity
  8
FILL_WHITE_FFFFFF
 62
7
420
16777215
100
AcDbHatch
 10
0.0
 20
0.0
 30
0.0
210
0.0
220
0.0
230
1.0
  2
SOLID
 70
1
 71
0
 91
1
 92
3
 72
0
 73
1
 93
25
 10
245.85
 20
126.96
 10
245.85
 20
113.76
 10
245.85
 20
112.56
 10
245.85
 20
111.36
 10
247.05
 20
110.16
 10
248.25
 20
110.16
 10
251.85
 20
108.96
 10
256.65
 20
108.96
 10
278.25
 20
108.96
 10
275.85
 20
105.36
 10
253.05
 20
105.36
 10
249.45
 20
105.36
 10
245.85
 20
106.56
 10
243.45
 20
107.76
 10
242.25
 20
108.96
 10
238.65
 20
105.36
 10
237.45
 20
104.16
 10
237.45
 20
105.36
 10
236.25
 20
105.36
 10
235.05
 20
108.96
 10
241.05
 20
113.76
 10
241.05
 20
122.16
 10
236.25
 20
122.16
 10
236.25
 20
126.96
 10
245.85
 20
126.96
 97
0
 75
1
 76
1
 98
0
  0
LWPOLYLINE
  5
B4
330
17
100
AcDbEntity
  8
FILL_WHITE_FFFFFF
370
0
420
16777215
100
AcDbPolyline
 90
24
 70
1
 10
245.85
 20
126.96
 10
245.85
 20
113.76
 10
245.85
 20
112.56
 10
245.85
 20
111.36
 10
247.05
 20
110.16
 10
248.25
 20
110.16
 10
251.85
 20
108.96
 10
256.65
 20
108.96
 10
278.25
 20
108.96
 10
275.85
 20
105.36
 10
253.05
 20
105.36
 10
249.45
 20
105.36
 10
245.85
 20
106.56
 10
243.45
 20
107.76
 10
242.25
 20
108.96
 10
238.65
 20
105.36
 10
237.45
 20
104.16
 10
237.45
 20
105.36
 10
236.25
 20
105.36
 10
235.05
 20
108.96
 10
241.05
 20
113.76
 10
241.05
 20
122.16
 10
236.25
 20
122.16
 10
236.25
 20
126.96
  0
HATCH
  5
B5
330
17
100
AcDbEntity
  8
FILL_WHITE_FFFFFF
 62
7
420
16777215
100
AcDbHatch
 10
0.0
 20
0.0
 30
0.0
210
0.0
220
0.0
230
1.0
  2
SOLID
 70
1
 71
0
 91
3
 92
3
 72
0
 73
1
 93
38
 10
262.65
 20
146.16
 10
263.85
 20
146.16
 10
265.05
 20
146.16
 10
263.85
 20
144.96
 10
263.85
 20
141.36
 10
275.85
 20
141.36
 10
275.85
 20
137.76
 10
263.85
 20
137.76
 10
263.85
 20
135.36
 10
273.45
 20
135.36
 10
273.45
 20
123.36
 10
265.05
 20
123.36
 10
271.05
 20
118.56
 10
278.25
 20
116.16
 10
274.65
 20
112.56
 10
268.65
 20
114.96
 10
263.85
 20
119.76
 10
263.85
 20
111.36
 10
259.05
 20
111.36
 10
259.05
 20
119.76
 10
256.65
 20
117.36
 10
255.45
 20
114.96
 10
251.85
 20
113.76
 10
249.45
 20
112.56
 10
247.05
 20
116.16
 10
249.45
 20
117.36
 10
253.05
 20
118.56
 10
255.45
 20
120.96
 10
257.85
 20
123.36
 10
249.45
 20
123.36
 10
249.45
 20
135.36
 10
259.05
 20
135.36
 10
259.05
 20
137.76
 10
248.25
 20
137.76
 10
248.25
 20
141.36
 10
259.05
 20
141.36
 10
259.05
 20
147.36
 10
262.65
 20
146.16
 97
0
 92
18
 72
0
 73
1
 93
5
 10
254.25
 20
130.56
 10
254.25
 20
126.96
 10
259.05
 20
126.96
 10
259.05
 20
130.56
 10
254.25
 20
130.56
 97
0
 92
18
 72
0
 73
1
 93
5
 10
269.85
 20
130.56
 10
263.85
 20
130.56
 10
263.85
 20
126.96
 10
269.85
 20
126.96
 10
269.85
 20
130.56
 97
0
 75
1
 76
1
 98
0
  0
LWPOLYLINE
  5
B6
330
17
100
AcDbEntity
  8
FILL_WHITE_FFFFFF
370
0
420
16777215
100
AcDbPolyline
 90
37
 70
1
 10
262.65
 20
146.16
 10
263.85
 20
146.16
 10
265.05
 20
146.16
 10
263.85
 20
144.96
 10
263.85
 20
141.36
 10
275.85
 20
141.36
 10
275.85
 20
137.76
 10
263.85
 20
137.76
 10
263.85
 20
135.36
 10
273.45
 20
135.36
 10
273.45
 20
123.36
 10
265.05
 20
123.36
 10
271.05
 20
118.56
 10
278.25
 20
116.16
 10
274.65
 20
112.56
 10
268.65
 20
114.96
 10
263.85
 20
119.76
 10
263.85
 20
111.36
 10
259.05
 20
111.36
 10
259.05
 20
119.76
 10
256.65
 20
117.36
 10
255.45
 20
114.96
 10
251.85
 20
113.76
 10
249.45
 20
112.56
 10
247.05
 20
116.16
 10
249.45
 20
117.36
 10
253.05
 20
118.56
 10
255.45
 20
120.96
 10
257.85
 20
123.36
 10
249.45
 20
123.36
 10
249.45
 20
135.36
 10
259.05
 20
135.36
 10
259.05
 20
137.76
 10
248.25
 20
137.76
 10
248.25
 20
141.36
 10
259.05
 20
141.36
 10
259.05
 20
147.36
  0
LWPOLYLINE
  5
B7
330
17
100
AcDbEntity
  8
FILL_WHITE_FFFFFF
370
0
420
16777215
100
AcDbPolyline
 90
4
 70
1
 10
254.25
 20
130.56
 10
254.25
 20
126.96
 10
259.05
 20
126.96
 10
259.05
 20
130.56
  0
LWPOLYLINE
  5
B8
330
17
100
AcDbEntity
  8
FILL_WHITE_FFFFFF
370
0
420
16777215
100
AcDbPolyline
 90
4
 70
1
 10
269.85
 20
130.56
 10
263.85
 20
130.56
 10
263.85
 20
126.96
 10
269.85
 20
126.96
  0
HATCH
  5
B9
330
17
100
AcDbEntity
  8
FILL_WHITE_FFFFFF
 62
7
420
16777215
100
AcDbHatch
 10
0.0
 20
0.0
 30
0.0
210
0.0
220
0.0
230
1.0
  2
SOLID
 70
1
 71
0
 91
1
 92
3
 72
0
 73
1
 93
15
 10
304.65
 20
138.96
 10
305.85
 20
138.96
 10
305.85
 20
137.76
 10
304.65
 20
137.76
 10
303.45
 20
132.96
 10
301.05
 20
129.36
 10
297.45
 20
125.76
 10
293.85
 20
122.16
 10
290.25
 20
124.56
 10
293.85
 20
128.16
 10
297.45
 20
131.76
 10
298.65
 20
135.36
 10
301.05
 20
140.16
 10
303.45
 20
138.96
 10
304.65
 20
138.96
 97
0
 75
1
 76
1
 98
0
  0
LWPOLYLINE
  5
BA
330
17
100
AcDbEntity
  8
FILL_WHITE_FFFFFF
370
0
420
16777215
100
AcDbPolyline
 90
14
 70
1
 10
304.65
 20
138.96
 10
305.85
 20
138.96
 10
305.85
 20
137.76
 10
304.65
 20
137.76
 10
303.45
 20
132.96
 10
301.05
 20
129.36
 10
297.45
 20
125.76
 10
293.85
 20
122.16
 10
290.25
 20
124.56
 10
293.85
 20
128.16
 10
297.45
 20
131.76
 10
298.65
 20
135.36
 10
301.05
 20
140.16
 10
303.45
 20
138.96
  0
HATCH
  5
BB
330
17
100
AcDbEntity
  8
FILL_WHITE_FFFFFF
 62
7
420
16777215
100
AcDbHatch
 10
0.0
 20
0.0
 30
0.0
210
0.0
220
0.0
230
1.0
  2
SOLID
 70
1
 71
0
 91
1
 92
3
 72
0
 73
1
 93
25
 10
311.85
 20
128.16
 10
313.05
 20
128.16
 10
313.05
 20
126.96
 10
311.85
 20
126.96
 10
304.65
 20
111.36
 10
321.45
 20
112.56
 10
315.45
 20
119.76
 10
319.05
 20
122.16
 10
322.65
 20
118.56
 10
325.05
 20
114.96
 10
327.45
 20
111.36
 10
329.85
 20
107.76
 10
325.05
 20
105.36
 10
322.65
 20
108.96
 10
296.25
 20
106.56
 10
296.25
 20
105.36
 10
295.05
 20
104.16
 10
295.05
 20
105.36
 10
293.85
 20
106.56
 10
293.85
 20
110.16
 10
299.85
 20
111.36
 10
303.45
 20
119.76
 10
308.25
 20
130.56
 10
310.65
 20
129.36
 10
311.85
 20
128.16
 97
0
 75
1
 76
1
 98
0
  0
LWPOLYLINE
  5
BC
330
17
100
AcDbEntity
  8
FILL_WHITE_FFFFFF
370
0
420
16777215
100
AcDbPolyline
 90
24
 70
1
 10
311.85
 20
128.16
 10
313.05
 20
128.16
 10
313.05
 20
126.96
 10
311.85
 20
126.96
 10
304.65
 20
111.36
 10
321.45
 20
112.56
 10
315.45
 20
119.76
 10
319.05
 20
122.16
 10
322.65
 20
118.56
 10
325.05
 20
114.96
 10
327.45
 20
111.36
 10
329.85
 20
107.76
 10
325.05
 20
105.36
 10
322.65
 20
108.96
 10
296.25
 20
106.56
 10
296.25
 20
105.36
 10
295.05
 20
104.16
 10
295.05
 20
105.36
 10
293.85
 20
106.56
 10
293.85
 20
110.16
 10
299.85
 20
111.36
 10
303.45
 20
119.76
 10
308.25
 20
130.56
 10
310.65
 20
129.36
  0
HATCH
  5
BD
330
17
100
AcDbEntity
  8
FILL_WHITE_FFFFFF
 62
7
420
16777215
100
AcDbHatch
 10
0.0
 20
0.0
 30
0.0
210
0.0
220
0.0
230
1.0
  2
SOLID
 70
1
 71
0
 91
1
 92
3
 72
0
 73
1
 93
17
 10
319.05
 20
144.96
 10
319.05
 20
141.36
 10
320.25
 20
138.96
 10
321.45
 20
136.56
 10
322.65
 20
134.16
 10
325.05
 20
131.76
 10
327.45
 20
129.36
 10
329.85
 20
126.96
 10
333.45
 20
124.56
 10
328.65
 20
122.16
 10
322.65
 20
126.96
 10
319.05
 20
131.76
 10
315.45
 20
136.56
 10
315.45
 20
140.16
 10
305.85
 20
140.16
 10
304.65
 20
144.96
 10
319.05
 20
144.96
 97
0
 75
1
 76
1
 98
0
  0
LWPOLYLINE
  5
BE
330
17
100
AcDbEntity
  8
FILL_WHITE_FFFFFF
370
0
420
16777215
100
AcDbPolyline
 90
16
 70
1
 10
319.05
 20
144.96
 10
319.05
 20
141.36
 10
320.25
 20
138.96
 10
321.45
 20
136.56
 10
322.65
 20
134.16
 10
325.05
 20
131.76
 10
327.45
 20
129.36
 10
329.85
 20
126.96
 10
333.45
 20
124.56
 10
328.65
 20
122.16
 10
322.65
 20
126.96
 10
319.05
 20
131.76
 10
315.45
 20
136.56
 10
315.45
 20
140.16
 10
305.85
 20
140.16
 10
304.65
 20
144.96
  0
HATCH
  5
BF
330
17
100
AcDbEntity
  8
FILL_WHITE_FFFFFF
 62
7
420
16777215
100
AcDbHatch
 10
0.0
 20
0.0
 30
0.0
210
0.0
220
0.0
230
1.0
  2
SOLID
 70
1
 71
0
 91
2
 92
3
 72
0
 73
1
 93
57
 10
363.45
 20
144.96
 10
363.45
 20
136.56
 10
367.05
 20
140.16
 10
371.85
 20
147.36
 10
374.25
 20
146.16
 10
375.45
 20
146.16
 10
375.45
 20
144.96
 10
374.25
 20
143.76
 10
373.05
 20
142.56
 10
383.85
 20
142.56
 10
386.25
 20
140.16
 10
382.65
 20
135.36
 10
379.05
 20
129.36
 10
383.85
 20
128.16
 10
389.85
 20
125.76
 10
386.25
 20
122.16
 10
380.25
 20
124.56
 10
375.45
 20
126.96
 10
370.65
 20
124.56
 10
365.85
 20
122.16
 10
363.45
 20
125.76
 10
367.05
 20
128.16
 10
371.85
 20
130.56
 10
369.45
 20
132.96
 10
368.25
 20
135.36
 10
373.05
 20
136.56
 10
373.05
 20
134.16
 10
375.45
 20
132.96
 10
377.85
 20
135.36
 10
380.25
 20
138.96
 10
370.65
 20
138.96
 10
365.85
 20
132.96
 10
363.45
 20
135.36
 10
363.45
 20
130.56
 10
358.65
 20
130.56
 10
358.65
 20
124.56
 10
363.45
 20
124.56
 10
363.45
 20
120.96
 10
358.65
 20
120.96
 10
358.65
 20
113.76
 10
365.85
 20
114.96
 10
365.85
 20
111.36
 10
349.05
 20
106.56
 10
347.85
 20
105.36
 10
346.65
 20
106.56
 10
345.45
 20
110.16
 10
347.85
 20
110.16
 10
347.85
 20
125.76
 10
351.45
 20
125.76
 10
352.65
 20
124.56
 10
352.65
 20
123.36
 10
352.65
 20
111.36
 10
355.05
 20
112.56
 10
355.05
 20
130.56
 10
347.85
 20
130.56
 10
347.85
 20
144.96
 10
363.45
 20
144.96
 97
0
 92
18
 72
0
 73
1
 93
5
 10
358.65
 20
140.16
 10
352.65
 20
140.16
 10
352.65
 20
134.16
 10
358.65
 20
134.16
 10
358.65
 20
140.16
 97
0
 75
1
 76
1
 98
0
  0
LWPOLYLINE
  5
C0
330
17
100
AcDbEntity
  8
FILL_WHITE_FFFFFF
370
0
420
16777215
100
AcDbPolyline
 90
56
 70
1
 10
363.45
 20
144.96
 10
363.45
 20
136.56
 10
367.05
 20
140.16
 10
371.85
 20
147.36
 10
374.25
 20
146.16
 10
375.45
 20
146.16
 10
375.45
 20
144.96
 10
374.25
 20
143.76
 10
373.05
 20
142.56
 10
383.85
 20
142.56
 10
386.25
 20
140.16
 10
382.65
 20
135.36
 10
379.05
 20
129.36
 10
383.85
 20
128.16
 10
389.85
 20
125.76
 10
386.25
 20
122.16
 10
380.25
 20
124.56
 10
375.45
 20
126.96
 10
370.65
 20
124.56
 10
365.85
 20
122.16
 10
363.45
 20
125.76
 10
367.05
 20
128.16
 10
371.85
 20
130.56
 10
369.45
 20
132.96
 10
368.25
 20
135.36
 10
373.05
 20
136.56
 10
373.05
 20
134.16
 10
375.45
 20
132.96
 10
377.85
 20
135.36
 10
380.25
 20
138.96
 10
370.65
 20
138.96
 10
365.85
 20
132.96
 10
363.45
 20
135.36
 10
363.45
 20
130.56
 10
358.65
 20
130.56
 10
358.65
 20
124.56
 10
363.45
 20
124.56
 10
363.45
 20
120.96
 10
358.65
 20
120.96
 10
358.65
 20
113.76
 10
365.85
 20
114.96
 10
365.85
 20
111.36
 10
349.05
 20
106.56
 10
347.85
 20
105.36
 10
346.65
 20
106.56
 10
345.45
 20
110.16
 10
347.85
 20
110.16
 10
347.85
 20
125.76
 10
351.45
 20
125.76
 10
352.65
 20
124.56
 10
352.65
 20
123.36
 10
352.65
 20
111.36
 10
355.05
 20
112.56
 10
355.05
 20
130.56
 10
347.85
 20
130.56
 10
347.85
 20
144.96
  0
LWPOLYLINE
  5
C1
330
17
100
AcDbEntity
  8
FILL_WHITE_FFFFFF
370
0
420
16777215
100
AcDbPolyline
 90
4
 70
1
 10
358.65
 20
140.16
 10
352.65
 20
140.16
 10
352.65
 20
134.16
 10
358.65
 20
134.16
  0
HATCH
  5
C2
330
17
100
AcDbEntity
  8
FILL_WHITE_FFFFFF
 62
7
420
16777215
100
AcDbHatch
 10
0.0
 20
0.0
 30
0.0
210
0.0
220
0.0
230
1.0
  2
SOLID
 70
1
 71
0
 91
2
 92
3
 72
0
 73
1
 93
9
 10
385.05
 20
122.16
 10
385.05
 20
105.36
 10
380.25
 20
105.36
 10
380.25
 20
107.76
 10
370.65
 20
107.76
 10
370.65
 20
104.16
 10
367.05
 20
104.16
 10
367.05
 20
122.16
 10
385.05
 20
122.16
 97
0
 92
18
 72
0
 73
1
 93
5
 10
380.25
 20
117.36
 10
370.65
 20
117.36
 10
370.65
 20
111.36
 10
380.25
 20
111.36
 10
380.25
 20
117.36
 97
0
 75
1
 76
1
 98
0
  0
LWPOLYLINE
  5
C3
330
17
100
AcDbEntity
  8
FILL_WHITE_FFFFFF
370
0
420
16777215
100
AcDbPolyline
 90
8
 70
1
 10
385.05
 20
122.16
 10
385.05
 20
105.36
 10
380.25
 20
105.36
 10
380.25
 20
107.76
 10
370.65
 20
107.76
 10
370.65
 20
104.16
 10
367.05
 20
104.16
 10
367.05
 20
122.16
  0
LWPOLYLINE
  5
C4
330
17
100
AcDbEntity
  8
FILL_WHITE_FFFFFF
370
0
420
16777215
100
AcDbPolyline
 90
4
 70
1
 10
380.25
 20
117.36
 10
370.65
 20
117.36
 10
370.65
 20
111.36
 10
380.25
 20
111.36
  0
LWPOLYLINE
  5
C6
330
17
100
AcDbEntity
  8
STROKE_WHITE_FFFFFF
370
0
420
16777215
100
AcDbPolyline
 90
2
 70
0
 10
148.45000000000005
 20
203.59999999999945
 10
148.45000000000005
 20
233.59999999999945
  0
LWPOLYLINE
  5
C7
330
17
100
AcDbEntity
  8
STROKE_WHITE_FFFFFF
370
0
420
16777215
100
AcDbPolyline
 90
2
 70
0
 10
208.45000000000005
 20
213.59999999999945
 10
208.45000000000005
 20
213.59999999999945
  0
LWPOLYLINE
  5
C8
330
17
100
AcDbEntity
  8
STROKE_WHITE_FFFFFF
370
0
420
16777215
100
AcDbPolyline
 90
2
 70
0
 10
238.45000000000005
 20
213.59999999999945
 10
238.45000000000005
 20
213.59999999999945
  0
LWPOLYLINE
  5
C9
330
17
100
AcDbEntity
  8
STROKE_WHITE_FFFFFF
370
0
420
16777215
100
AcDbPolyline
 90
2
 70
0
 10
368.45000000000005
 20
213.59999999999945
 10
368.45000000000005
 20
213.59999999999945
  0
LWPOLYLINE
  5
CA
330
17
100
AcDbEntity
  8
STROKE_WHITE_FFFFFF
370
0
420
16777215
100
AcDbPolyline
 90
2
 70
0
 10
428.45000000000005
 20
203.59999999999945
 10
428.45000000000005
 20
233.59999999999945
  0
LWPOLYLINE
  5
CB
330
17
100
AcDbEntity
  8
STROKE_WHITE_FFFFFF
370
0
420
16777215
100
AcDbPolyline
 90
2
 70
0
 10
498.45000000000005
 20
213.59999999999945
 10
498.45000000000005
 20
213.59999999999945
  0
LWPOLYLINE
  5
CC
330
17
100
AcDbEntity
  8
STROKE_WHITE_FFFFFF
370
0
420
16777215
100
AcDbPolyline
 90
2
 70
0
 10
168.45000000000005
 20
183.59999999999945
 10
178.45000000000005
 20
183.59999999999945
  0
LWPOLYLINE
  5
CD
330
17
100
AcDbEntity
  8
STROKE_WHITE_FFFFFF
370
0
420
16777215
100
AcDbPolyline
 90
2
 70
0
 10
168.45000000000005
 20
183.59999999999945
 10
178.45000000000005
 20
183.59999999999945
  0
LWPOLYLINE
  5
CE
330
17
100
AcDbEntity
  8
STROKE_WHITE_FFFFFF
370
0
420
16777215
100
AcDbPolyline
 90
2
 70
0
 10
168.45000000000005
 20
183.59999999999945
 10
178.45000000000005
 20
183.59999999999945
  0
LWPOLYLINE
  5
CF
330
17
100
AcDbEntity
  8
STROKE_WHITE_FFFFFF
370
0
420
16777215
100
AcDbPolyline
 90
2
 70
0
 10
168.45000000000005
 20
183.59999999999945
 10
178.45000000000005
 20
183.59999999999945
  0
LWPOLYLINE
  5
D0
330
17
100
AcDbEntity
  8
STROKE_WHITE_FFFFFF
370
0
420
16777215
100
AcDbPolyline
 90
2
 70
0
 10
168.45000000000005
 20
183.59999999999945
 10
178.45000000000005
 20
183.59999999999945
  0
LWPOLYLINE
  5
D1
330
17
100
AcDbEntity
  8
STROKE_WHITE_FFFFFF
370
0
420
16777215
100
AcDbPolyline
 90
2
 70
0
 10
168.45000000000005
 20
183.59999999999945
 10
178.45000000000005
 20
183.59999999999945
  0
LWPOLYLINE
  5
D2
330
17
100
AcDbEntity
  8
STROKE_WHITE_FFFFFF
370
0
420
16777215
100
AcDbPolyline
 90
2
 70
0
 10
168.45000000000005
 20
183.59999999999945
 10
178.45000000000005
 20
183.59999999999945
  0
LWPOLYLINE
  5
D3
330
17
100
AcDbEntity
  8
STROKE_WHITE_FFFFFF
370
0
420
16777215
100
AcDbPolyline
 90
2
 70
0
 10
168.45000000000005
 20
183.59999999999945
 10
178.45000000000005
 20
183.59999999999945
  0
LWPOLYLINE
  5
D4
330
17
100
AcDbEntity
  8
STROKE_WHITE_FFFFFF
370
0
420
16777215
100
AcDbPolyline
 90
2
 70
0
 10
168.45000000000005
 20
183.59999999999945
 10
178.45000000000005
 20
183.59999999999945
  0
LWPOLYLINE
  5
D5
330
17
100
AcDbEntity
  8
STROKE_WHITE_FFFFFF
370
0
420
16777215
100
AcDbPolyline
 90
2
 70
0
 10
168.45000000000005
 20
183.59999999999945
 10
178.45000000000005
 20
183.59999999999945
  0
LWPOLYLINE
  5
D6
330
17
100
AcDbEntity
  8
STROKE_WHITE_FFFFFF
370
0
420
16777215
100
AcDbPolyline
 90
2
 70
0
 10
168.45000000000005
 20
183.59999999999945
 10
178.45000000000005
 20
183.59999999999945
  0
LWPOLYLINE
  5
D7
330
17
100
AcDbEntity
  8
STROKE_WHITE_FFFFFF
370
0
420
16777215
100
AcDbPolyline
 90
2
 70
0
 10
198.45000000000005
 20
183.59999999999945
 10
198.45000000000005
 20
183.59999999999945
  0
LWPOLYLINE
  5
D8
330
17
100
AcDbEntity
  8
STROKE_WHITE_FFFFFF
370
0
420
16777215
100
AcDbPolyline
 90
2
 70
0
 10
198.45000000000005
 20
183.59999999999945
 10
198.45000000000005
 20
183.59999999999945
  0
LWPOLYLINE
  5
D9
330
17
100
AcDbEntity
  8
STROKE_WHITE_FFFFFF
370
0
420
16777215
100
AcDbPolyline
 90
2
 70
0
 10
198.45000000000005
 20
183.59999999999945
 10
198.45000000000005
 20
183.59999999999945
  0
LWPOLYLINE
  5
DA
330
17
100
AcDbEntity
  8
STROKE_WHITE_FFFFFF
370
0
420
16777215
100
AcDbPolyline
 90
2
 70
0
 10
198.45000000000005
 20
183.59999999999945
 10
198.45000000000005
 20
183.59999999999945
  0
LWPOLYLINE
  5
DB
330
17
100
AcDbEntity
  8
STROKE_WHITE_FFFFFF
370
0
420
16777215
100
AcDbPolyline
 90
2
 70
0
 10
198.45000000000005
 20
183.59999999999945
 10
198.45000000000005
 20
183.59999999999945
  0
LWPOLYLINE
  5
DC
330
17
100
AcDbEntity
  8
STROKE_WHITE_FFFFFF
370
0
420
16777215
100
AcDbPolyline
 90
2
 70
0
 10
198.45000000000005
 20
183.59999999999945
 10
198.45000000000005
 20
183.59999999999945
  0
LWPOLYLINE
  5
DD
330
17
100
AcDbEntity
  8
STROKE_WHITE_FFFFFF
370
0
420
16777215
100
AcDbPolyline
 90
2
 70
0
 10
198.45000000000005
 20
183.59999999999945
 10
198.45000000000005
 20
183.59999999999945
  0
LWPOLYLINE
  5
DE
330
17
100
AcDbEntity
  8
STROKE_WHITE_FFFFFF
370
0
420
16777215
100
AcDbPolyline
 90
2
 70
0
 10
198.45000000000005
 20
183.59999999999945
 10
198.45000000000005
 20
183.59999999999945
  0
LWPOLYLINE
  5
DF
330
17
100
AcDbEntity
  8
STROKE_WHITE_FFFFFF
370
0
420
16777215
100
AcDbPolyline
 90
2
 70
0
 10
198.45000000000005
 20
183.59999999999945
 10
198.45000000000005
 20
183.59999999999945
  0
LWPOLYLINE
  5
E0
330
17
100
AcDbEntity
  8
STROKE_WHITE_FFFFFF
370
0
420
16777215
100
AcDbPolyline
 90
2
 70
0
 10
198.45000000000005
 20
183.59999999999945
 10
198.45000000000005
 20
183.59999999999945
  0
LWPOLYLINE
  5
E1
330
17
100
AcDbEntity
  8
STROKE_WHITE_FFFFFF
370
0
420
16777215
100
AcDbPolyline
 90
2
 70
0
 10
198.45000000000005
 20
183.59999999999945
 10
198.45000000000005
 20
183.59999999999945
  0
LWPOLYLINE
  5
E2
330
17
100
AcDbEntity
  8
STROKE_WHITE_FFFFFF
370
0
420
16777215
100
AcDbPolyline
 90
3
 70
0
 10
327.45000000000005
 20
168.95999999999913
 10
332.25
 20
168.95999999999913
 10
327.45000000000005
 20
168.95999999999913
  0
LWPOLYLINE
  5
E4
330
17
100
AcDbEntity
  8
STROKE_BLUE_0000FF
370
0
420
255
100
AcDbPolyline
 90
69
 70
0
 10
511.0500000000002
 20
262.5599999999995
 10
512.6094726562502
 20
262.47708984374947
 10
514.1320312500002
 20
262.2342187499995
 10
515.60888671875
 20
261.8401757812495
 10
517.0312500000001
 20
261.3037499999995
 10
518.3903320312501
 20
260.63373046874955
 10
519.67734375
 20
259.8389062499996
 10
520.88349609375
 20
258.92806640624957
 10
522.0
 20
257.9099999999996
 10
523.01806640625
 20
256.79349609374964
 10
523.92890625
 20
255.58734374999972
 10
524.7237304687499
 20
254.30033203124975
 10
525.39375
 20
252.9412499999998
 10
525.9301757812499
 20
251.51888671874985
 10
526.3242187499999
 20
250.04203124999992
 10
526.5670898437498
 20
248.51947265624997
 10
526.6499999999999
 20
246.96000000000004
 10
526.6499999999999
 20
24.960000000000036
 10
526.5670898437498
 20
23.4005273437499
 10
526.3242187499999
 20
21.877968749999866
 10
525.9301757812499
 20
20.401113281249792
 10
525.39375
 20
18.978749999999735
 10
524.7237304687499
 20
17.619667968749724
 10
523.92890625
 20
16.3326562499997
 10
523.01806640625
 20
15.126503906249638
 10
522.0
 20
14.00999999999965
 10
520.88349609375
 20
12.99193359374965
 10
519.67734375
 20
12.081093749999638
 10
518.3903320312501
 20
11.286269531249616
 10
517.0312500000001
 20
10.616249999999695
 10
515.6088867187501
 20
10.07982421874965
 10
514.1320312500001
 20
9.68578124999965
 10
512.6094726562502
 20
9.442910156249695
 10
511.0500000000002
 20
9.359999999999673
 10
56.25
 20
9.359999999999673
 10
54.690527343750006
 20
9.442910156249695
 10
53.167968750000014
 20
9.685781249999707
 10
51.69111328125001
 20
10.07982421874965
 10
50.268750000000026
 20
10.616249999999695
 10
48.90966796875003
 20
11.286269531249616
 10
47.622656250000034
 20
12.081093749999638
 10
46.41650390625005
 20
12.99193359374965
 10
45.300000000000054
 20
14.00999999999965
 10
44.28193359375006
 20
15.126503906249638
 10
43.371093750000064
 20
16.332656249999673
 10
42.57626953125007
 20
17.619667968749724
 10
41.90625000000008
 20
18.978749999999735
 10
41.36982421875008
 20
20.401113281249792
 10
40.97578125000009
 20
21.877968749999866
 10
40.73291015625009
 20
23.40052734374993
 10
40.65000000000009
 20
24.960000000000036
 10
40.65000000000009
 20
246.96000000000004
 10
40.73291015625009
 20
248.51947265624997
 10
40.97578125000009
 20
250.04203124999992
 10
41.36982421875008
 20
251.51888671874985
 10
41.90625000000008
 20
252.9412499999998
 10
42.57626953125007
 20
254.30033203124975
 10
43.371093750000064
 20
255.58734374999972
 10
44.28193359375006
 20
256.79349609374964
 10
45.300000000000054
 20
257.9099999999996
 10
46.41650390625005
 20
258.92806640624957
 10
47.622656250000034
 20
259.8389062499996
 10
48.909667968750036
 20
260.63373046874955
 10
50.268750000000026
 20
261.3037499999995
 10
51.69111328125001
 20
261.8401757812495
 10
53.167968750000014
 20
262.2342187499995
 10
54.690527343750006
 20
262.47708984374947
 10
56.25
 20
262.5599999999995
 10
511.0500000000002
 20
262.5599999999995
  0
ENDSEC
  0
SECTION
  2
OBJECTS
  0
DICTIONARY
  5
A
330
0
100
AcDbDictionary
281
1
  3
ACAD_COLOR
350
B
  3
ACAD_GROUP
350
C
  3
ACAD_LAYOUT
350
D
  3
ACAD_MATERIAL
350
E
  3
ACAD_MLEADERSTYLE
350
F
  3
ACAD_MLINESTYLE
350
10
  3
ACAD_PLOTSETTINGS
350
11
  3
ACAD_PLOTSTYLENAME
350
12
  3
ACAD_SCALELIST
350
14
  3
ACAD_TABLESTYLE
350
15
  3
ACAD_VISUALSTYLE
350
16
  3
EZDXF_META
350
2D
  0
DICTIONARY
  5
B
330
A
100
AcDbDictionary
281
1
  0
DICTIONARY
  5
C
330
A
100
AcDbDictionary
281
1
  0
DICTIONARY
  5
D
330
A
100
AcDbDictionary
281
1
  3
Model
350
1A
  3
Layout1
350
1E
  0
DICTIONARY
  5
E
330
A
100
AcDbDictionary
281
1
  3
ByBlock
350
1F
  3
ByLayer
350
20
  3
Global
350
21
  0
DICTIONARY
  5
F
330
A
100
AcDbDictionary
281
1
  3
Standard
350
2C
  0
DICTIONARY
  5
10
330
A
100
AcDbDictionary
281
1
  3
Standard
350
22
  0
DICTIONARY
  5
11
330
A
100
AcDbDictionary
281
1
  0
ACDBDICTIONARYWDFLT
  5
12
330
A
100
AcDbDictionary
281
1
  3
Normal
350
13
100
AcDbDictionaryWithDefault
340
13
  0
ACDBPLACEHOLDER
  5
13
330
12
  0
DICTIONARY
  5
14
330
A
100
AcDbDictionary
281
1
  0
DICTIONARY
  5
15
330
A
100
AcDbDictionary
281
1
  0
DICTIONARY
  5
16
330
A
100
AcDbDictionary
281
1
  0
LAYOUT
  5
1A
330
D
100
AcDbPlotSettings
  1

  4
A3
  6

 40
7.5
 41
20.0
 42
7.5
 43
20.0
 44
420.0
 45
297.0
 46
0.0
 47
0.0
 48
0.0
 49
0.0
140
0.0
141
0.0
142
1.0
143
1.0
 70
1024
 72
1
 73
0
 74
5
  7

 75
16
 76
0
 77
2
 78
300
147
1.0
148
0.0
149
0.0
100
AcDbLayout
  1
Model
 70
1
 71
0
 10
0.0
 20
0.0
 11
420.0
 21
297.0
 12
0.0
 22
0.0
 32
0.0
 14
1e+20
 24
1e+20
 34
1e+20
 15
-1e+20
 25
-1e+20
 35
-1e+20
146
0.0
 13
0.0
 23
0.0
 33
0.0
 16
1.0
 26
0.0
 36
0.0
 17
0.0
 27
1.0
 37
0.0
 76
1
330
17
  0
LAYOUT
  5
1E
330
D
100
AcDbPlotSettings
  1

  4
A3
  6

 40
7.5
 41
20.0
 42
7.5
 43
20.0
 44
420.0
 45
297.0
 46
0.0
 47
0.0
 48
0.0
 49
0.0
140
0.0
141
0.0
142
1.0
143
1.0
 70
0
 72
1
 73
0
 74
5
  7

 75
16
 76
0
 77
2
 78
300
147
1.0
148
0.0
149
0.0
100
AcDbLayout
  1
Layout1
 70
1
 71
1
 10
0.0
 20
0.0
 11
420.0
 21
297.0
 12
0.0
 22
0.0
 32
0.0
 14
1e+20
 24
1e+20
 34
1e+20
 15
-1e+20
 25
-1e+20
 35
-1e+20
146
0.0
 13
0.0
 23
0.0
 33
0.0
 16
1.0
 26
0.0
 36
0.0
 17
0.0
 27
1.0
 37
0.0
 76
1
330
1B
  0
MATERIAL
  5
1F
102
{ACAD_REACTORS
330
E
102
}
330
E
100
AcDbMaterial
  1
ByBlock
  2

 70
0
 40
1.0
 71
1
 41
1.0
 91
-1023410177
 42
1.0
 72
1
  3

 73
1
 74
1
 75
1
 44
0.5
 73
0
 45
1.0
 46
1.0
 77
1
  4

 78
1
 79
1
170
1
 48
1.0
171
1
  6

172
1
173
1
174
1
140
1.0
141
1.0
175
1
  7

176
1
177
1
178
1
143
1.0
179
1
  8

270
1
271
1
272
1
145
1.0
146
1.0
273
1
  9

274
1
275
1
276
1
 42
1.0
 72
1
  3

 73
1
 74
1
 75
1
 94
63
  0
MATERIAL
  5
20
102
{ACAD_REACTORS
330
E
102
}
330
E
100
AcDbMaterial
  1
ByLayer
  2

 70
0
 40
1.0
 71
1
 41
1.0
 91
-1023410177
 42
1.0
 72
1
  3

 73
1
 74
1
 75
1
 44
0.5
 73
0
 45
1.0
 46
1.0
 77
1
  4

 78
1
 79
1
170
1
 48
1.0
171
1
  6

172
1
173
1
174
1
140
1.0
141
1.0
175
1
  7

176
1
177
1
178
1
143
1.0
179
1
  8

270
1
271
1
272
1
145
1.0
146
1.0
273
1
  9

274
1
275
1
276
1
 42
1.0
 72
1
  3

 73
1
 74
1
 75
1
 94
63
  0
MATERIAL
  5
21
102
{ACAD_REACTORS
330
E
102
}
330
E
100
AcDbMaterial
  1
Global
  2

 70
0
 40
1.0
 71
1
 41
1.0
 91
-1023410177
 42
1.0
 72
1
  3

 73
1
 74
1
 75
1
 44
0.5
 73
0
 45
1.0
 46
1.0
 77
1
  4

 78
1
 79
1
170
1
 48
1.0
171
1
  6

172
1
173
1
174
1
140
1.0
141
1.0
175
1
  7

176
1
177
1
178
1
143
1.0
179
1
  8

270
1
271
1
272
1
145
1.0
146
1.0
273
1
  9

274
1
275
1
276
1
 42
1.0
 72
1
  3

 73
1
 74
1
 75
1
 94
63
  0
MLINESTYLE
  5
22
102
{ACAD_REACTORS
330
10
102
}
330
10
100
AcDbMlineStyle
  2
Standard
 70
0
  3

 62
256
 51
90.0
 52
90.0
 71
2
 49
0.5
 62
256
  6
BYLAYER
 49
-0.5
 62
256
  6
BYLAYER
  0
MLEADERSTYLE
  5
2C
102
{ACAD_REACTORS
330
F
102
}
330
F
100
AcDbMLeaderStyle
179
2
170
2
171
1
172
0
 90
2
 40
0.0
 41
0.0
173
1
 91
-1056964608
 92
-2
290
1
 42
2.0
291
1
 43
8.0
  3
Standard
 44
4.0
300

342
29
174
1
175
1
176
0
178
1
 93
-1056964608
 45
4.0
292
0
297
0
 46
4.0
 94
-1056964608
 47
1.0
 49
1.0
140
1.0
294
1
141
0.0
177
0
142
1.0
295
0
296
0
143
3.75
271
0
272
9
273
9
  0
DICTIONARY
  5
2D
330
A
100
AcDbDictionary
280
1
281
1
  3
CREATED_BY_EZDXF
350
2E
  3
WRITTEN_BY_EZDXF
350
E7
  0
DICTIONARYVAR
  5
2E
330
2D
100
DictionaryVariables
280
0
  1
1.4.4 @ 2026-07-10T01:53:52.220253+00:00
  0
DICTIONARYVAR
  5
E7
330
2D
100
DictionaryVariables
280
0
  1
1.4.4 @ 2026-07-10T01:53:52.235719+00:00
  0
ENDSEC
  0
EOF
