  0
SECTION
  2
HEADER
  9
$ACADVER
  1
AC1024
  9
$ACADMAINTVER
 70
6
  9
$DWGCODEPAGE
  3
ANSI_1252
  9
$LASTSAVEDBY
  1
ezdxf
  9
$INSBASE
 10
0.0
 20
0.0
 30
0.0
  9
$EXTMIN
 10
1e+20
 20
1e+20
 30
1e+20
  9
$EXTMAX
 10
-1e+20
 20
-1e+20
 30
-1e+20
  9
$LIMMIN
 10
0.0
 20
0.0
  9
$LIMMAX
 10
420.0
 20
297.0
  9
$ORTHOMODE
 70
0
  9
$REGENMODE
 70
1
  9
$FILLMODE
 70
1
  9
$QTEXTMODE
 70
0
  9
$MIRRTEXT
 70
1
  9
$LTSCALE
 40
1.0
  9
$ATTMODE
 70
1
  9
$TEXTSIZE
 40
2.5
  9
$TRACEWID
 40
1.0
  9
$TEXTSTYLE
  7
Standard
  9
$CLAYER
  8
0
  9
$CELTYPE
  6
ByLayer
  9
$CECOLOR
 62
256
  9
$CELTSCALE
 40
1.0
  9
$DISPSILH
 70
0
  9
$DIMSCALE
 40
1.0
  9
$DIMASZ
 40
2.5
  9
$DIMEXO
 40
0.625
  9
$DIMDLI
 40
3.75
  9
$DIMRND
 40
0.0
  9
$DIMDLE
 40
0.0
  9
$DIMEXE
 40
1.25
  9
$DIMTP
 40
0.0
  9
$DIMTM
 40
0.0
  9
$DIMTXT
 40
2.5
  9
$DIMCEN
 40
2.5
  9
$DIMTSZ
 40
0.0
  9
$DIMTOL
 70
0
  9
$DIMLIM
 70
0
  9
$DIMTIH
 70
0
  9
$DIMTOH
 70
0
  9
$DIMSE1
 70
0
  9
$DIMSE2
 70
0
  9
$DIMTAD
 70
1
  9
$DIMZIN
 70
8
  9
$DIMBLK
  1

  9
$DIMASO
 70
1
  9
$DIMSHO
 70
1
  9
$DIMPOST
  1

  9
$DIMAPOST
  1

  9
$DIMALT
 70
0
  9
$DIMALTD
 70
3
  9
$DIMALTF
 40
0.03937007874
  9
$DIMLFAC
 40
1.0
  9
$DIMTOFL
 70
1
  9
$DIMTVP
 40
0.0
  9
$DIMTIX
 70
0
  9
$DIMSOXD
 70
0
  9
$DIMSAH
 70
0
  9
$DIMBLK1
  1

  9
$DIMBLK2
  1

  9
$DIMSTYLE
  2
ISO-25
  9
$DIMCLRD
 70
0
  9
$DIMCLRE
 70
0
  9
$DIMCLRT
 70
0
  9
$DIMTFAC
 40
1.0
  9
$DIMGAP
 40
0.625
  9
$DIMJUST
 70
0
  9
$DIMSD1
 70
0
  9
$DIMSD2
 70
0
  9
$DIMTOLJ
 70
0
  9
$DIMTZIN
 70
8
  9
$DIMALTZ
 70
0
  9
$DIMALTTZ
 70
0
  9
$DIMUPT
 70
0
  9
$DIMDEC
 70
2
  9
$DIMTDEC
 70
2
  9
$DIMALTU
 70
2
  9
$DIMALTTD
 70
3
  9
$DIMTXSTY
  7
Standard
  9
$DIMAUNIT
 70
0
  9
$DIMADEC
 70
0
  9
$DIMALTRND
 40
0.0
  9
$DIMAZIN
 70
0
  9
$DIMDSEP
 70
44
  9
$DIMATFIT
 70
3
  9
$DIMFRAC
 70
0
  9
$DIMLDRBLK
  1

  9
$DIMLUNIT
 70
2
  9
$DIMLWD
 70
-2
  9
$DIMLWE
 70
-2
  9
$DIMTMOVE
 70
0
  9
$DIMFXL
 40
1.0
  9
$DIMFXLON
 70
0
  9
$DIMJOGANG
 40
0.785398163397
  9
$DIMTFILL
 70
0
  9
$DIMTFILLCLR
 70
0
  9
$DIMARCSYM
 70
0
  9
$DIMLTYPE
  6

  9
$DIMLTEX1
  6

  9
$DIMLTEX2
  6

  9
$DIMTXTDIRECTION
 70
0
  9
$LUNITS
 70
2
  9
$LUPREC
 70
4
  9
$SKETCHINC
 40
1.0
  9
$FILLETRAD
 40
10.0
  9
$AUNITS
 70
0
  9
$AUPREC
 70
2
  9
$MENU
  1
.
  9
$ELEVATION
 40
0.0
  9
$PELEVATION
 40
0.0
  9
$THICKNESS
 40
0.0
  9
$LIMCHECK
 70
0
  9
$CHAMFERA
 40
0.0
  9
$CHAMFERB
 40
0.0
  9
$CHAMFERC
 40
0.0
  9
$CHAMFERD
 40
0.0
  9
$SKPOLY
 70
0
  9
$TDCREATE
 40
2461232.4124189815
  9
$TDUCREATE
 40
2458532.153996898
  9
$TDUPDATE
 40
2461232.4124189815
  9
$TDUUPDATE
 40
2458532.1544311
  9
$TDINDWG
 40
0.0
  9
$TDUSRTIMER
 40
0.0
  9
$USRTIMER
 70
1
  9
$ANGBASE
 50
0.0
  9
$ANGDIR
 70
0
  9
$PDMODE
 70
0
  9
$PDSIZE
 40
0.0
  9
$PLINEWID
 40
0.0
  9
$SPLFRAME
 70
0
  9
$SPLINETYPE
 70
6
  9
$SPLINESEGS
 70
8
  9
$HANDSEED
  5
8E
  9
$SURFTAB1
 70
6
  9
$SURFTAB2
 70
6
  9
$SURFTYPE
 70
6
  9
$SURFU
 70
6
  9
$SURFV
 70
6
  9
$UCSBASE
  2

  9
$UCSNAME
  2

  9
$UCSORG
 10
0.0
 20
0.0
 30
0.0
  9
$UCSXDIR
 10
1.0
 20
0.0
 30
0.0
  9
$UCSYDIR
 10
0.0
 20
1.0
 30
0.0
  9
$UCSORTHOREF
  2

  9
$UCSORTHOVIEW
 70
0
  9
$UCSORGTOP
 10
0.0
 20
0.0
 30
0.0
  9
$UCSORGBOTTOM
 10
0.0
 20
0.0
 30
0.0
  9
$UCSORGLEFT
 10
0.0
 20
0.0
 30
0.0
  9
$UCSORGRIGHT
 10
0.0
 20
0.0
 30
0.0
  9
$UCSORGFRONT
 10
0.0
 20
0.0
 30
0.0
  9
$UCSORGBACK
 10
0.0
 20
0.0
 30
0.0
  9
$PUCSBASE
  2

  9
$PUCSNAME
  2

  9
$PUCSORG
 10
0.0
 20
0.0
 30
0.0
  9
$PUCSXDIR
 10
1.0
 20
0.0
 30
0.0
  9
$PUCSYDIR
 10
0.0
 20
1.0
 30
0.0
  9
$PUCSORTHOREF
  2

  9
$PUCSORTHOVIEW
 70
0
  9
$PUCSORGTOP
 10
0.0
 20
0.0
 30
0.0
  9
$PUCSORGBOTTOM
 10
0.0
 20
0.0
 30
0.0
  9
$PUCSORGLEFT
 10
0.0
 20
0.0
 30
0.0
  9
$PUCSORGRIGHT
 10
0.0
 20
0.0
 30
0.0
  9
$PUCSORGFRONT
 10
0.0
 20
0.0
 30
0.0
  9
$PUCSORGBACK
 10
0.0
 20
0.0
 30
0.0
  9
$USERI1
 70
0
  9
$USERI2
 70
0
  9
$USERI3
 70
0
  9
$USERI4
 70
0
  9
$USERI5
 70
0
  9
$USERR1
 40
0.0
  9
$USERR2
 40
0.0
  9
$USERR3
 40
0.0
  9
$USERR4
 40
0.0
  9
$USERR5
 40
0.0
  9
$WORLDVIEW
 70
1
  9
$SHADEDGE
 70
3
  9
$SHADEDIF
 70
70
  9
$TILEMODE
 70
1
  9
$MAXACTVP
 70
64
  9
$PINSBASE
 10
0.0
 20
0.0
 30
0.0
  9
$PLIMCHECK
 70
0
  9
$PEXTMIN
 10
1e+20
 20
1e+20
 30
1e+20
  9
$PEXTMAX
 10
-1e+20
 20
-1e+20
 30
-1e+20
  9
$PLIMMIN
 10
0.0
 20
0.0
  9
$PLIMMAX
 10
420.0
 20
297.0
  9
$UNITMODE
 70
0
  9
$VISRETAIN
 70
1
  9
$PLINEGEN
 70
0
  9
$PSLTSCALE
 70
1
  9
$TREEDEPTH
 70
3020
  9
$CMLSTYLE
  2
Standard
  9
$CMLJUST
 70
0
  9
$CMLSCALE
 40
20.0
  9
$PROXYGRAPHICS
 70
1
  9
$MEASUREMENT
 70
1
  9
$CELWEIGHT
370
-1
  9
$ENDCAPS
280
0
  9
$JOINSTYLE
280
0
  9
$LWDISPLAY
290
0
  9
$INSUNITS
 70
6
  9
$HYPERLINKBASE
  1

  9
$STYLESHEET
  1

  9
$XEDIT
290
1
  9
$CEPSNTYPE
380
0
  9
$PSTYLEMODE
290
1
  9
$FINGERPRINTGUID
  2
{6B704B83-C32A-4E46-8CEB-233B6258F9D9}
  9
$VERSIONGUID
  2
{00422794-E591-4ECA-B41B-7D0294C692E2}
  9
$EXTNAMES
290
1
  9
$PSVPSCALE
 40
0.0
  9
$OLESTARTUP
290
0
  9
$SORTENTS
280
127
  9
$INDEXCTL
280
0
  9
$HIDETEXT
280
1
  9
$XCLIPFRAME
280
1
  9
$HALOGAP
280
0
  9
$OBSCOLOR
 70
257
  9
$OBSLTYPE
280
0
  9
$INTERSECTIONDISPLAY
280
0
  9
$INTERSECTIONCOLOR
 70
257
  9
$DIMASSOC
280
2
  9
$PROJECTNAME
  1

  9
$CAMERADISPLAY
290
0
  9
$LENSLENGTH
 40
50.0
  9
$CAMERAHEIGHT
 40
0.0
  9
$STEPSPERSEC
 40
24.0
  9
$STEPSIZE
 40
100.0
  9
$3DDWFPREC
 40
2.0
  9
$PSOLWIDTH
 40
0.005
  9
$PSOLHEIGHT
 40
0.08
  9
$LOFTANG1
 40
1.570796326795
  9
$LOFTANG2
 40
1.570796326795
  9
$LOFTMAG1
 40
0.0
  9
$LOFTMAG2
 40
0.0
  9
$LOFTPARAM
 70
7
  9
$LOFTNORMALS
280
1
  9
$LATITUDE
 40
37.795
  9
$LONGITUDE
 40
-122.394
  9
$NORTHDIRECTION
 40
0.0
  9
$TIMEZONE
 70
-8000
  9
$LIGHTGLYPHDISPLAY
280
1
  9
$TILEMODELIGHTSYNCH
280
1
  9
$CMATERIAL
347
20
  9
$SOLIDHIST
280
0
  9
$SHOWHIST
280
1
  9
$DWFFRAME
280
2
  9
$DGNFRAME
280
2
  9
$REALWORLDSCALE
290
1
  9
$INTERFERECOLOR
 62
256
  9
$CSHADOW
280
0
  9
$SHADOWPLANELOCATION
 40
0.0
  0
ENDSEC
  0
SECTION
  2
CLASSES
  0
CLASS
  1
ACDBDICTIONARYWDFLT
  2
AcDbDictionaryWithDefault
  3
ObjectDBX Classes
 90
0
 91
0
280
0
281
0
  0
CLASS
  1
SUN
  2
AcDbSun
  3
SCENEOE
 90
1153
 91
0
280
0
281
0
  0
CLASS
  1
VISUALSTYLE
  2
AcDbVisualStyle
  3
ObjectDBX Classes
 90
4095
 91
0
280
0
281
0
  0
CLASS
  1
MATERIAL
  2
AcDbMaterial
  3
ObjectDBX Classes
 90
1153
 91
0
280
0
281
0
  0
CLASS
  1
SCALE
  2
AcDbScale
  3
ObjectDBX Classes
 90
1153
 91
0
280
0
281
0
  0
CLASS
  1
TABLESTYLE
  2
AcDbTableStyle
  3
ObjectDBX Classes
 90
4095
 91
0
280
0
281
0
  0
CLASS
  1
MLEADERSTYLE
  2
AcDbMLeaderStyle
  3
ACDB_MLEADERSTYLE_CLASS
 90
4095
 91
0
280
0
281
0
  0
CLASS
  1
DICTIONARYVAR
  2
AcDbDictionaryVar
  3
ObjectDBX Classes
 90
0
 91
0
280
0
281
0
  0
CLASS
  1
CELLSTYLEMAP
  2
AcDbCellStyleMap
  3
ObjectDBX Classes
 90
1152
 91
0
280
0
281
0
  0
CLASS
  1
MENTALRAYRENDERSETTINGS
  2
AcDbMentalRayRenderSettings
  3
SCENEOE
 90
1024
 91
0
280
0
281
0
  0
CLASS
  1
ACDBDETAILVIEWSTYLE
  2
AcDbDetailViewStyle
  3
ObjectDBX Classes
 90
1025
 91
0
280
0
281
0
  0
CLASS
  1
ACDBSECTIONVIEWSTYLE
  2
AcDbSectionViewStyle
  3
ObjectDBX Classes
 90
1025
 91
0
280
0
281
0
  0
CLASS
  1
RASTERVARIABLES
  2
AcDbRasterVariables
  3
ISM
 90
0
 91
0
280
0
281
0
  0
CLASS
  1
ACDBPLACEHOLDER
  2
AcDbPlaceHolder
  3
ObjectDBX Classes
 90
0
 91
0
280
0
281
0
  0
CLASS
  1
LAYOUT
  2
AcDbLayout
  3
ObjectDBX Classes
 90
0
 91
0
280
0
281
0
  0
ENDSEC
  0
SECTION
  2
TABLES
  0
TABLE
  2
VPORT
  5
8
330
0
100
AcDbSymbolTable
 70
1
  0
VPORT
  5
23
330
8
100
AcDbSymbolTableRecord
100
AcDbViewportTableRecord
  2
*Active
 70
0
 10
0.0
 20
0.0
 11
1.0
 21
1.0
 12
0.0
 22
0.0
 13
0.0
 23
0.0
 14
0.5
 24
0.5
 15
0.5
 25
0.5
 16
0.0
 26
0.0
 36
1.0
 17
0.0
 27
0.0
 37
0.0
 40
1000.0
 41
1.34
 42
50.0
 43
0.0
 44
0.0
 50
0.0
 51
0.0
 71
0
 72
1000
 73
1
 74
3
 75
0
 76
0
 77
0
 78
0
281
0
 65
0
146
0.0
  0
ENDTAB
  0
TABLE
  2
LTYPE
  5
2
330
0
100
AcDbSymbolTable
 70
3
  0
LTYPE
  5
24
330
2
100
AcDbSymbolTableRecord
100
AcDbLinetypeTableRecord
  2
ByBlock
 70
0
  3

 72
65
 73
0
 40
0.0
  0
LTYPE
  5
25
330
2
100
AcDbSymbolTableRecord
100
AcDbLinetypeTableRecord
  2
ByLayer
 70
0
  3

 72
65
 73
0
 40
0.0
  0
LTYPE
  5
26
330
2
100
AcDbSymbolTableRecord
100
AcDbLinetypeTableRecord
  2
Continuous
 70
0
  3

 72
65
 73
0
 40
0.0
  0
ENDTAB
  0
TABLE
  2
LAYER
  5
1
330
0
100
AcDbSymbolTable
 70
5
  0
LAYER
  5
27
330
1
100
AcDbSymbolTableRecord
100
AcDbLayerTableRecord
  2
0
 70
0
 62
7
  6
Continuous
370
-3
390
13
347
21
  0
LAYER
  5
28
330
1
100
AcDbSymbolTableRecord
100
AcDbLayerTableRecord
  2
Defpoints
 70
0
 62
7
  6
Continuous
290
0
370
-3
390
13
347
21
  0
LAYER
  5
2F
330
1
100
AcDbSymbolTableRecord
100
AcDbLayerTableRecord
  2
FILL_WHITE_FFFFFF
 70
0
 62
7
420
16777215
  6
Continuous
370
-3
390
13
347
21
  0
LAYER
  5
32
330
1
100
AcDbSymbolTableRecord
100
AcDbLayerTableRecord
  2
FILL_BLUE_0000FF
 70
0
 62
7
420
255
  6
Continuous
370
-3
390
13
347
21
  0
LAYER
  5
89
330
1
100
AcDbSymbolTableRecord
100
AcDbLayerTableRecord
  2
STROKE_BLUE_0000FF
 70
0
 62
7
420
255
  6
Continuous
370
-3
390
13
347
21
  0
ENDTAB
  0
TABLE
  2
STYLE
  5
5
330
0
100
AcDbSymbolTable
 70
1
  0
STYLE
  5
29
330
5
100
AcDbSymbolTableRecord
100
AcDbTextStyleTableRecord
  2
Standard
 70
0
 40
0.0
 41
1.0
 50
0.0
 71
0
 42
2.5
  3
txt
  4

  0
ENDTAB
  0
TABLE
  2
VIEW
  5
7
330
0
100
AcDbSymbolTable
 70
0
  0
ENDTAB
  0
TABLE
  2
UCS
  5
6
330
0
100
AcDbSymbolTable
 70
0
  0
ENDTAB
  0
TABLE
  2
APPID
  5
3
330
0
100
AcDbSymbolTable
 70
3
  0
APPID
  5
2A
330
3
100
AcDbSymbolTableRecord
100
AcDbRegAppTableRecord
  2
ACAD
 70
0
  0
APPID
  5
8B
330
3
100
AcDbSymbolTableRecord
100
AcDbRegAppTableRecord
  2
HATCHBACKGROUNDCOLOR
 70
0
  0
APPID
  5
8C
330
3
100
AcDbSymbolTableRecord
100
AcDbRegAppTableRecord
  2
EZDXF
 70
0
  0
ENDTAB
  0
TABLE
  2
DIMSTYLE
  5
4
330
0
100
AcDbSymbolTable
 70
1
100
AcDbDimStyleTable
  0
DIMSTYLE
105
2B
330
4
100
AcDbSymbolTableRecord
100
AcDbDimStyleTableRecord
  2
Standard
 70
0
 40
1.0
 41
2.5
 42
0.625
 43
3.75
 44
1.25
 45
0.0
 46
0.0
 47
0.0
 48
0.0
 49
2.5
140
2.5
141
2.5
142
0.0
143
0.03937007874
144
1.0
145
0.0
146
1.0
147
0.625
148
0.0
 69
0
 70
0
 71
0
 72
0
 73
0
 74
0
 75
0
 76
0
 77
1
 78
8
 79
3
170
0
171
3
172
1
173
0
174
0
175
0
176
0
177
0
178
0
179
2
271
2
272
2
273
2
274
3
275
0
276
0
277
2
278
44
279
0
280
0
281
0
282
0
283
0
284
8
285
0
286
0
288
0
289
3
290
0
371
-2
372
-2
  0
ENDTAB
  0
TABLE
  2
BLOCK_RECORD
  5
9
330
0
100
AcDbSymbolTable
 70
2
  0
BLOCK_RECORD
  5
17
330
9
100
AcDbSymbolTableRecord
100
AcDbBlockTableRecord
  2
*Model_Space
340
1A
 70
0
280
1
281
0
  0
BLOCK_RECORD
  5
1B
330
9
100
AcDbSymbolTableRecord
100
AcDbBlockTableRecord
  2
*Paper_Space
340
1E
 70
0
280
1
281
0
  0
ENDTAB
  0
ENDSEC
  0
SECTION
  2
BLOCKS
  0
BLOCK
  5
18
330
17
100
AcDbEntity
  8
0
100
AcDbBlockBegin
  2
*Model_Space
 70
0
 10
0.0
 20
0.0
 30
0.0
  3
*Model_Space
  1

  0
ENDBLK
  5
19
330
17
100
AcDbEntity
  8
0
100
AcDbBlockEnd
  0
BLOCK
  5
1C
330
1B
100
AcDbEntity
  8
0
100
AcDbBlockBegin
  2
*Paper_Space
 70
0
 10
0.0
 20
0.0
 30
0.0
  3
*Paper_Space
  1

  0
ENDBLK
  5
1D
330
1B
100
AcDbEntity
  8
0
100
AcDbBlockEnd
  0
ENDSEC
  0
SECTION
  2
ENTITIES
  0
HATCH
  5
30
330
17
100
AcDbEntity
  8
FILL_WHITE_FFFFFF
 62
7
420
16777215
100
AcDbHatch
 10
0.0
 20
0.0
 30
0.0
210
0.0
220
0.0
230
1.0
  2
SOLID
 70
1
 71
0
 91
1
 92
3
 72
0
 73
1
 93
70
 10
533.0
 20
240.9
 10
534.94
 20
240.7
 10
536.93
 20
240.33
 10
538.95
 20
239.76
 10
540.97
 20
238.97
 10
542.96
 20
237.92
 10
544.9
 20
236.6
 10
546.75
 20
234.96
 10
548.04
 20
233.16
 10
549.21
 20
231.34
 10
550.23
 20
229.5
 10
551.1
 20
227.61
 10
551.8
 20
225.67
 10
552.32
 20
223.65
 10
552.64
 20
221.56
 10
552.75
 20
219.36
 10
552.75
 20
51.36
 10
552.56
 20
49.54
 10
552.15
 20
47.61
 10
551.74
 20
45.45
 10
551.55
 20
42.96
 10
550.46
 20
41.16
 10
549.15
 20
39.36
 10
547.84
 20
37.56
 10
546.75
 20
35.76
 10
544.9
 20
34.47
 10
542.96
 20
33.3
 10
540.97
 20
32.28
 10
538.95
 20
31.41
 10
536.93
 20
30.71
 10
534.94
 20
30.19
 10
533.0
 20
29.87
 10
531.15
 20
29.76
 10
35.55
 20
29.76
 10
33.75
 20
29.78
 10
31.95
 20
29.91
 10
30.15
 20
30.27
 10
28.35
 20
30.96
 10
27.05
 20
31.46
 10
25.86
 20
32.05
 10
23.7
 20
33.36
 10
21.77
 20
34.67
 10
19.95
 20
35.76
 10
18.66
 20
37.61
 10
17.49
 20
39.55
 10
16.47
 20
41.54
 10
15.6
 20
43.56
 10
14.9
 20
45.58
 10
14.38
 20
47.57
 10
14.06
 20
49.51
 10
13.95
 20
51.36
 10
13.95
 20
219.36
 10
14.14
 20
221.35
 10
14.55
 20
223.56
 10
14.96
 20
225.77
 10
15.15
 20
227.76
 10
16.24
 20
229.56
 10
17.55
 20
231.36
 10
18.86
 20
233.16
 10
19.95
 20
234.96
 10
21.77
 20
236.55
 10
23.7
 20
237.81
 10
25.86
 20
238.84
 10
28.35
 20
239.76
 10
30.15
 20
240.45
 10
31.95
 20
240.81
 10
33.75
 20
240.94
 10
35.55
 20
240.96
 10
531.15
 20
240.96
 10
533.0
 20
240.9
 97
0
 75
1
 76
1
 98
0
  0
LWPOLYLINE
  5
31
330
17
100
AcDbEntity
  8
FILL_WHITE_FFFFFF
370
0
420
16777215
100
AcDbPolyline
 90
69
 70
1
 10
533.0
 20
240.9
 10
534.94
 20
240.7
 10
536.93
 20
240.33
 10
538.95
 20
239.76
 10
540.97
 20
238.97
 10
542.96
 20
237.92
 10
544.9
 20
236.6
 10
546.75
 20
234.96
 10
548.04
 20
233.16
 10
549.21
 20
231.34
 10
550.23
 20
229.5
 10
551.1
 20
227.61
 10
551.8
 20
225.67
 10
552.32
 20
223.65
 10
552.64
 20
221.56
 10
552.75
 20
219.36
 10
552.75
 20
51.36
 10
552.56
 20
49.54
 10
552.15
 20
47.61
 10
551.74
 20
45.45
 10
551.55
 20
42.96
 10
550.46
 20
41.16
 10
549.15
 20
39.36
 10
547.84
 20
37.56
 10
546.75
 20
35.76
 10
544.9
 20
34.47
 10
542.96
 20
33.3
 10
540.97
 20
32.28
 10
538.95
 20
31.41
 10
536.93
 20
30.71
 10
534.94
 20
30.19
 10
533.0
 20
29.87
 10
531.15
 20
29.76
 10
35.55
 20
29.76
 10
33.75
 20
29.78
 10
31.95
 20
29.91
 10
30.15
 20
30.27
 10
28.35
 20
30.96
 10
27.05
 20
31.46
 10
25.86
 20
32.05
 10
23.7
 20
33.36
 10
21.77
 20
34.67
 10
19.95
 20
35.76
 10
18.66
 20
37.61
 10
17.49
 20
39.55
 10
16.47
 20
41.54
 10
15.6
 20
43.56
 10
14.9
 20
45.58
 10
14.38
 20
47.57
 10
14.06
 20
49.51
 10
13.95
 20
51.36
 10
13.95
 20
219.36
 10
14.14
 20
221.35
 10
14.55
 20
223.56
 10
14.96
 20
225.77
 10
15.15
 20
227.76
 10
16.24
 20
229.56
 10
17.55
 20
231.36
 10
18.86
 20
233.16
 10
19.95
 20
234.96
 10
21.77
 20
236.55
 10
23.7
 20
237.81
 10
25.86
 20
238.84
 10
28.35
 20
239.76
 10
30.15
 20
240.45
 10
31.95
 20
240.81
 10
33.75
 20
240.94
 10
35.55
 20
240.96
 10
531.15
 20
240.96
  0
HATCH
  5
33
330
17
100
AcDbEntity
  8
FILL_BLUE_0000FF
 62
7
420
255
100
AcDbHatch
 10
0.0
 20
0.0
 30
0.0
210
0.0
220
0.0
230
1.0
  2
SOLID
 70
1
 71
0
 91
1
 92
3
 72
0
 73
1
 93
59
 10
532.95
 20
230.12
 10
534.75
 20
229.86
 10
535.65
 20
229.57
 10
536.55
 20
229.15
 10
537.45
 20
228.55
 10
538.35
 20
227.76
 10
539.93
 20
225.94
 10
540.54
 20
225.0
 10
541.05
 20
224.01
 10
541.44
 20
222.97
 10
541.73
 20
221.85
 10
541.89
 20
220.66
 10
541.95
 20
219.36
 10
541.95
 20
51.36
 10
541.89
 20
50.41
 10
541.73
 20
49.39
 10
541.44
 20
48.34
 10
541.05
 20
47.31
 10
540.54
 20
46.33
 10
539.93
 20
45.45
 10
539.19
 20
44.72
 10
538.35
 20
44.16
 10
536.55
 20
42.58
 10
534.75
 20
41.46
 10
533.85
 20
41.07
 10
532.95
 20
40.78
 10
532.05
 20
40.62
 10
531.15
 20
40.56
 10
35.55
 20
40.56
 10
34.65
 20
40.58
 10
33.75
 20
40.71
 10
32.85
 20
41.07
 10
31.95
 20
41.76
 10
31.05
 20
41.97
 10
30.15
 20
42.51
 10
28.35
 20
44.16
 10
26.7
 20
45.96
 10
26.16
 20
46.86
 10
25.95
 20
47.76
 10
25.26
 20
48.66
 10
24.9
 20
49.56
 10
24.77
 20
50.46
 10
24.75
 20
51.36
 10
24.75
 20
219.36
 10
24.81
 20
220.66
 10
24.98
 20
221.85
 10
25.26
 20
222.97
 10
25.65
 20
224.01
 10
26.16
 20
225.0
 10
26.78
 20
225.94
 10
28.35
 20
227.76
 10
29.25
 20
228.55
 10
30.15
 20
229.15
 10
31.05
 20
229.57
 10
31.95
 20
229.86
 10
33.75
 20
230.12
 10
35.55
 20
230.16
 10
531.15
 20
230.16
 10
532.95
 20
230.12
 97
0
 75
1
 76
1
 98
0
  0
LWPOLYLINE
  5
34
330
17
100
AcDbEntity
  8
FILL_BLUE_0000FF
370
0
420
255
100
AcDbPolyline
 90
58
 70
1
 10
532.95
 20
230.12
 10
534.75
 20
229.86
 10
535.65
 20
229.57
 10
536.55
 20
229.15
 10
537.45
 20
228.55
 10
538.35
 20
227.76
 10
539.93
 20
225.94
 10
540.54
 20
225.0
 10
541.05
 20
224.01
 10
541.44
 20
222.97
 10
541.73
 20
221.85
 10
541.89
 20
220.66
 10
541.95
 20
219.36
 10
541.95
 20
51.36
 10
541.89
 20
50.41
 10
541.73
 20
49.39
 10
541.44
 20
48.34
 10
541.05
 20
47.31
 10
540.54
 20
46.33
 10
539.93
 20
45.45
 10
539.19
 20
44.72
 10
538.35
 20
44.16
 10
536.55
 20
42.58
 10
534.75
 20
41.46
 10
533.85
 20
41.07
 10
532.95
 20
40.78
 10
532.05
 20
40.62
 10
531.15
 20
40.56
 10
35.55
 20
40.56
 10
34.65
 20
40.58
 10
33.75
 20
40.71
 10
32.85
 20
41.07
 10
31.95
 20
41.76
 10
31.05
 20
41.97
 10
30.15
 20
42.51
 10
28.35
 20
44.16
 10
26.7
 20
45.96
 10
26.16
 20
46.86
 10
25.95
 20
47.76
 10
25.26
 20
48.66
 10
24.9
 20
49.56
 10
24.77
 20
50.46
 10
24.75
 20
51.36
 10
24.75
 20
219.36
 10
24.81
 20
220.66
 10
24.98
 20
221.85
 10
25.26
 20
222.97
 10
25.65
 20
224.01
 10
26.16
 20
225.0
 10
26.78
 20
225.94
 10
28.35
 20
227.76
 10
29.25
 20
228.55
 10
30.15
 20
229.15
 10
31.05
 20
229.57
 10
31.95
 20
229.86
 10
33.75
 20
230.12
 10
35.55
 20
230.16
 10
531.15
 20
230.16
  0
HATCH
  5
35
330
17
100
AcDbEntity
  8
FILL_WHITE_FFFFFF
 62
7
420
16777215
100
AcDbHatch
 10
0.0
 20
0.0
 30
0.0
210
0.0
220
0.0
230
1.0
  2
SOLID
 70
1
 71
0
 91
1
 92
3
 72
0
 73
1
 93
13
 10
49.95
 20
204.96
 10
76.35
 20
204.96
 10
76.35
 20
198.96
 10
57.15
 20
198.96
 10
57.15
 20
188.16
 10
73.95
 20
188.16
 10
73.95
 20
182.16
 10
57.15
 20
182.16
 10
57.15
 20
170.16
 10
77.55
 20
170.16
 10
77.55
 20
164.16
 10
49.95
 20
164.16
 10
49.95
 20
204.96
 97
0
 75
1
 76
1
 98
0
  0
LWPOLYLINE
  5
36
330
17
100
AcDbEntity
  8
FILL_WHITE_FFFFFF
370
0
420
16777215
100
AcDbPolyline
 90
12
 70
1
 10
49.95
 20
204.96
 10
76.35
 20
204.96
 10
76.35
 20
198.96
 10
57.15
 20
198.96
 10
57.15
 20
188.16
 10
73.95
 20
188.16
 10
73.95
 20
182.16
 10
57.15
 20
182.16
 10
57.15
 20
170.16
 10
77.55
 20
170.16
 10
77.55
 20
164.16
 10
49.95
 20
164.16
  0
HATCH
  5
37
330
17
100
AcDbEntity
  8
FILL_WHITE_FFFFFF
 62
7
420
16777215
100
AcDbHatch
 10
0.0
 20
0.0
 30
0.0
210
0.0
220
0.0
230
1.0
  2
SOLID
 70
1
 71
0
 91
1
 92
3
 72
0
 73
1
 93
76
 10
91.95
 20
191.76
 10
92.35
 20
191.81
 10
92.66
 20
191.95
 10
93.15
 20
192.36
 10
93.64
 20
192.77
 10
93.95
 20
192.91
 10
94.35
 20
192.96
 10
95.23
 20
193.15
 10
96.0
 20
193.56
 10
96.75
 20
194.16
 10
98.1
 20
194.1
 10
99.41
 20
193.92
 10
100.67
 20
193.59
 10
101.85
 20
193.11
 10
102.91
 20
192.46
 10
103.84
 20
191.63
 10
104.59
 20
190.6
 10
105.15
 20
189.36
 10
108.75
 20
192.96
 10
109.65
 20
193.15
 10
110.55
 20
193.56
 10
111.45
 20
193.97
 10
112.35
 20
194.16
 10
114.15
 20
193.95
 10
115.95
 20
193.41
 10
117.75
 20
192.64
 10
119.55
 20
191.76
 10
120.4
 20
191.26
 10
121.14
 20
190.67
 10
122.4
 20
189.36
 10
124.35
 20
186.96
 10
124.35
 20
185.76
 10
124.35
 20
184.56
 10
124.35
 20
164.16
 10
117.15
 20
164.16
 10
117.15
 20
183.36
 10
117.15
 20
184.56
 10
117.13
 20
185.27
 10
117.0
 20
185.76
 10
116.64
 20
186.25
 10
115.95
 20
186.96
 10
115.07
 20
187.15
 10
114.3
 20
187.56
 10
113.55
 20
188.16
 10
112.48
 20
187.95
 10
111.3
 20
187.41
 10
110.34
 20
186.64
 10
110.06
 20
186.21
 10
109.95
 20
185.76
 10
108.3
 20
183.96
 10
107.76
 20
183.06
 10
107.55
 20
182.16
 10
107.55
 20
164.16
 10
101.55
 20
164.16
 10
101.55
 20
183.36
 10
101.55
 20
184.56
 10
100.86
 20
185.27
 10
100.5
 20
185.76
 10
100.37
 20
186.25
 10
100.35
 20
186.96
 10
99.45
 20
187.15
 10
98.55
 20
187.56
 10
97.65
 20
187.97
 10
96.75
 20
188.16
 10
95.85
 20
187.95
 10
94.95
 20
187.41
 10
93.15
 20
185.76
 10
92.46
 20
184.86
 10
92.1
 20
183.96
 10
91.97
 20
183.06
 10
91.95
 20
182.16
 10
91.95
 20
164.16
 10
85.95
 20
164.16
 10
85.95
 20
192.96
 10
91.95
 20
192.96
 10
91.95
 20
191.76
 97
0
 75
1
 76
1
 98
0
  0
LWPOLYLINE
  5
38
330
17
100
AcDbEntity
  8
FILL_WHITE_FFFFFF
370
0
420
16777215
100
AcDbPolyline
 90
75
 70
1
 10
91.95
 20
191.76
 10
92.35
 20
191.81
 10
92.66
 20
191.95
 10
93.15
 20
192.36
 10
93.64
 20
192.77
 10
93.95
 20
192.91
 10
94.35
 20
192.96
 10
95.23
 20
193.15
 10
96.0
 20
193.56
 10
96.75
 20
194.16
 10
98.1
 20
194.1
 10
99.41
 20
193.92
 10
100.67
 20
193.59
 10
101.85
 20
193.11
 10
102.91
 20
192.46
 10
103.84
 20
191.63
 10
104.59
 20
190.6
 10
105.15
 20
189.36
 10
108.75
 20
192.96
 10
109.65
 20
193.15
 10
110.55
 20
193.56
 10
111.45
 20
193.97
 10
112.35
 20
194.16
 10
114.15
 20
193.95
 10
115.95
 20
193.41
 10
117.75
 20
192.64
 10
119.55
 20
191.76
 10
120.4
 20
191.26
 10
121.14
 20
190.67
 10
122.4
 20
189.36
 10
124.35
 20
186.96
 10
124.35
 20
185.76
 10
124.35
 20
184.56
 10
124.35
 20
164.16
 10
117.15
 20
164.16
 10
117.15
 20
183.36
 10
117.15
 20
184.56
 10
117.13
 20
185.27
 10
117.0
 20
185.76
 10
116.64
 20
186.25
 10
115.95
 20
186.96
 10
115.07
 20
187.15
 10
114.3
 20
187.56
 10
113.55
 20
188.16
 10
112.48
 20
187.95
 10
111.3
 20
187.41
 10
110.34
 20
186.64
 10
110.06
 20
186.21
 10
109.95
 20
185.76
 10
108.3
 20
183.96
 10
107.76
 20
183.06
 10
107.55
 20
182.16
 10
107.55
 20
164.16
 10
101.55
 20
164.16
 10
101.55
 20
183.36
 10
101.55
 20
184.56
 10
100.86
 20
185.27
 10
100.5
 20
185.76
 10
100.37
 20
186.25
 10
100.35
 20
186.96
 10
99.45
 20
187.15
 10
98.55
 20
187.56
 10
97.65
 20
187.97
 10
96.75
 20
188.16
 10
95.85
 20
187.95
 10
94.95
 20
187.41
 10
93.15
 20
185.76
 10
92.46
 20
184.86
 10
92.1
 20
183.96
 10
91.97
 20
183.06
 10
91.95
 20
182.16
 10
91.95
 20
164.16
 10
85.95
 20
164.16
 10
85.95
 20
192.96
 10
91.95
 20
192.96
  0
HATCH
  5
39
330
17
100
AcDbEntity
  8
FILL_WHITE_FFFFFF
 62
7
420
16777215
100
AcDbHatch
 10
0.0
 20
0.0
 30
0.0
210
0.0
220
0.0
230
1.0
  2
SOLID
 70
1
 71
0
 91
2
 92
3
 72
0
 73
1
 93
64
 10
139.35
 20
164.46
 10
138.67
 20
164.75
 10
137.96
 20
165.17
 10
136.35
 20
166.56
 10
132.75
 20
170.16
 10
131.89
 20
173.05
 10
131.25
 20
176.16
 10
131.09
 20
177.73
 10
131.06
 20
179.27
 10
131.21
 20
180.76
 10
131.55
 20
182.16
 10
131.66
 20
183.51
 10
131.98
 20
184.84
 10
132.5
 20
186.15
 10
133.2
 20
187.41
 10
134.07
 20
188.62
 10
135.09
 20
189.75
 10
136.26
 20
190.81
 10
137.55
 20
191.76
 10
139.35
 20
192.55
 10
141.15
 20
193.11
 10
142.95
 20
193.45
 10
144.75
 20
193.56
 10
146.55
 20
193.45
 10
148.35
 20
193.11
 10
150.15
 20
192.55
 10
151.95
 20
191.76
 10
153.53
 20
189.96
 10
154.65
 20
188.16
 10
155.04
 20
187.26
 10
155.32
 20
186.36
 10
155.49
 20
185.46
 10
155.55
 20
184.56
 10
156.24
 20
182.74
 10
156.6
 20
180.81
 10
156.73
 20
178.65
 10
156.75
 20
176.16
 10
137.55
 20
176.16
 10
137.7
 20
175.41
 10
138.06
 20
174.64
 10
138.75
 20
173.76
 10
138.94
 20
172.86
 10
139.35
 20
171.96
 10
139.76
 20
171.06
 10
139.95
 20
170.16
 10
141.73
 20
169.47
 10
143.4
 20
169.11
 10
145.95
 20
168.96
 10
148.8
 20
170.16
 10
149.83
 20
170.65
 10
150.75
 20
171.36
 10
151.95
 20
172.56
 10
155.55
 20
167.76
 10
153.75
 20
166.11
 10
152.85
 20
165.57
 10
151.95
 20
165.36
 10
149.27
 20
164.5
 10
146.7
 20
163.86
 10
145.49
 20
163.7
 10
144.36
 20
163.67
 10
143.3
 20
163.82
 10
142.35
 20
164.16
 10
140.74
 20
164.2
 10
139.35
 20
164.46
 97
0
 92
18
 72
0
 73
1
 93
17
 10
150.6
 20
183.36
 10
150.24
 20
184.67
 10
149.95
 20
185.26
 10
149.55
 20
185.76
 10
149.5
 20
186.16
 10
149.34
 20
186.47
 10
148.8
 20
186.96
 10
148.03
 20
187.45
 10
147.15
 20
188.16
 10
141.15
 20
188.16
 10
138.75
 20
185.76
 10
138.06
 20
184.17
 10
137.7
 20
182.91
 10
137.57
 20
181.88
 10
137.55
 20
180.96
 10
150.75
 20
180.96
 10
150.6
 20
183.36
 97
0
 75
1
 76
1
 98
0
  0
LWPOLYLINE
  5
3A
330
17
100
AcDbEntity
  8
FILL_WHITE_FFFFFF
370
0
420
16777215
100
AcDbPolyline
 90
63
 70
1
 10
139.35
 20
164.46
 10
138.67
 20
164.75
 10
137.96
 20
165.17
 10
136.35
 20
166.56
 10
132.75
 20
170.16
 10
131.89
 20
173.05
 10
131.25
 20
176.16
 10
131.09
 20
177.73
 10
131.06
 20
179.27
 10
131.21
 20
180.76
 10
131.55
 20
182.16
 10
131.66
 20
183.51
 10
131.98
 20
184.84
 10
132.5
 20
186.15
 10
133.2
 20
187.41
 10
134.07
 20
188.62
 10
135.09
 20
189.75
 10
136.26
 20
190.81
 10
137.55
 20
191.76
 10
139.35
 20
192.55
 10
141.15
 20
193.11
 10
142.95
 20
193.45
 10
144.75
 20
193.56
 10
146.55
 20
193.45
 10
148.35
 20
193.11
 10
150.15
 20
192.55
 10
151.95
 20
191.76
 10
153.53
 20
189.96
 10
154.65
 20
188.16
 10
155.04
 20
187.26
 10
155.32
 20
186.36
 10
155.49
 20
185.46
 10
155.55
 20
184.56
 10
156.24
 20
182.74
 10
156.6
 20
180.81
 10
156.73
 20
178.65
 10
156.75
 20
176.16
 10
137.55
 20
176.16
 10
137.7
 20
175.41
 10
138.06
 20
174.64
 10
138.75
 20
173.76
 10
138.94
 20
172.86
 10
139.35
 20
171.96
 10
139.76
 20
171.06
 10
139.95
 20
170.16
 10
141.73
 20
169.47
 10
143.4
 20
169.11
 10
145.95
 20
168.96
 10
148.8
 20
170.16
 10
149.83
 20
170.65
 10
150.75
 20
171.36
 10
151.95
 20
172.56
 10
155.55
 20
167.76
 10
153.75
 20
166.11
 10
152.85
 20
165.57
 10
151.95
 20
165.36
 10
149.27
 20
164.5
 10
146.7
 20
163.86
 10
145.49
 20
163.7
 10
144.36
 20
163.67
 10
143.3
 20
163.82
 10
142.35
 20
164.16
 10
140.74
 20
164.2
  0
LWPOLYLINE
  5
3B
330
17
100
AcDbEntity
  8
FILL_WHITE_FFFFFF
370
0
420
16777215
100
AcDbPolyline
 90
16
 70
1
 10
150.6
 20
183.36
 10
150.24
 20
184.67
 10
149.95
 20
185.26
 10
149.55
 20
185.76
 10
149.5
 20
186.16
 10
149.34
 20
186.47
 10
148.8
 20
186.96
 10
148.03
 20
187.45
 10
147.15
 20
188.16
 10
141.15
 20
188.16
 10
138.75
 20
185.76
 10
138.06
 20
184.17
 10
137.7
 20
182.91
 10
137.57
 20
181.88
 10
137.55
 20
180.96
 10
150.75
 20
180.96
  0
HATCH
  5
3C
330
17
100
AcDbEntity
  8
FILL_WHITE_FFFFFF
 62
7
420
16777215
100
AcDbHatch
 10
0.0
 20
0.0
 30
0.0
210
0.0
220
0.0
230
1.0
  2
SOLID
 70
1
 71
0
 91
1
 92
3
 72
0
 73
1
 93
25
 10
172.95
 20
192.21
 10
173.85
 20
192.75
 10
174.75
 20
192.96
 10
176.36
 20
193.65
 10
177.75
 20
194.01
 10
179.14
 20
194.14
 10
180.75
 20
194.16
 10
180.75
 20
186.96
 10
178.28
 20
186.94
 10
176.25
 20
186.81
 10
174.68
 20
186.45
 10
174.06
 20
186.16
 10
173.55
 20
185.76
 10
173.15
 20
185.71
 10
172.84
 20
185.55
 10
172.35
 20
185.01
 10
171.86
 20
184.24
 10
171.15
 20
183.36
 10
171.15
 20
180.96
 10
171.15
 20
164.16
 10
163.95
 20
164.16
 10
163.95
 20
192.96
 10
171.15
 20
192.96
 10
171.15
 20
190.56
 10
172.95
 20
192.21
 97
0
 75
1
 76
1
 98
0
  0
LWPOLYLINE
  5
3D
330
17
100
AcDbEntity
  8
FILL_WHITE_FFFFFF
370
0
420
16777215
100
AcDbPolyline
 90
24
 70
1
 10
172.95
 20
192.21
 10
173.85
 20
192.75
 10
174.75
 20
192.96
 10
176.36
 20
193.65
 10
177.75
 20
194.01
 10
179.14
 20
194.14
 10
180.75
 20
194.16
 10
180.75
 20
186.96
 10
178.28
 20
186.94
 10
176.25
 20
186.81
 10
174.68
 20
186.45
 10
174.06
 20
186.16
 10
173.55
 20
185.76
 10
173.15
 20
185.71
 10
172.84
 20
185.55
 10
172.35
 20
185.01
 10
171.86
 20
184.24
 10
171.15
 20
183.36
 10
171.15
 20
180.96
 10
171.15
 20
164.16
 10
163.95
 20
164.16
 10
163.95
 20
192.96
 10
171.15
 20
192.96
 10
171.15
 20
190.56
  0
HATCH
  5
3E
330
17
100
AcDbEntity
  8
FILL_WHITE_FFFFFF
 62
7
420
16777215
100
AcDbHatch
 10
0.0
 20
0.0
 30
0.0
210
0.0
220
0.0
230
1.0
  2
SOLID
 70
1
 71
0
 91
2
 92
3
 72
0
 73
1
 93
65
 10
209.55
 20
192.96
 10
209.55
 20
162.96
 10
208.35
 20
162.96
 10
208.35
 20
161.76
 10
207.74
 20
160.42
 10
206.83
 20
159.12
 10
205.67
 20
157.9
 10
204.3
 20
156.81
 10
202.76
 20
155.89
 10
201.09
 20
155.18
 10
199.34
 20
154.72
 10
197.55
 20
154.56
 10
194.66
 20
154.77
 10
191.55
 20
155.31
 10
188.44
 20
156.08
 10
185.55
 20
156.96
 10
186.75
 20
162.96
 10
188.76
 20
162.08
 10
191.1
 20
161.31
 10
193.67
 20
160.77
 10
196.35
 20
160.56
 10
198.13
 20
160.77
 10
199.8
 20
161.31
 10
201.24
 20
162.08
 10
202.35
 20
162.96
 10
202.35
 20
164.16
 10
202.35
 20
165.36
 10
202.35
 20
167.76
 10
201.15
 20
167.76
 10
199.39
 20
167.07
 10
197.85
 20
166.71
 10
196.35
 20
166.56
 10
194.7
 20
166.86
 10
192.81
 20
167.57
 10
191.64
 20
168.17
 10
190.35
 20
168.96
 10
189.06
 20
169.52
 10
187.89
 20
170.31
 10
186.87
 20
171.32
 10
186.0
 20
172.56
 10
185.3
 20
174.02
 10
184.78
 20
175.71
 10
184.46
 20
177.62
 10
184.35
 20
179.76
 10
184.46
 20
182.29
 10
184.78
 20
184.5
 10
185.3
 20
186.4
 10
186.0
 20
188.01
 10
186.87
 20
189.33
 10
187.89
 20
190.39
 10
189.06
 20
191.2
 10
190.35
 20
191.76
 10
191.64
 20
192.55
 10
192.81
 20
193.15
 10
194.7
 20
193.86
 10
196.35
 20
194.16
 10
197.25
 20
194.14
 10
198.15
 20
194.01
 10
199.05
 20
193.65
 10
199.95
 20
192.96
 10
200.83
 20
192.77
 10
201.6
 20
192.36
 10
202.35
 20
191.76
 10
202.35
 20
192.96
 10
209.55
 20
192.96
 97
0
 92
18
 72
0
 73
1
 93
41
 10
194.45
 20
187.72
 10
193.35
 20
187.11
 10
192.25
 20
186.11
 10
191.74
 20
185.43
 10
191.29
 20
184.62
 10
190.9
 20
183.65
 10
190.61
 20
182.53
 10
190.42
 20
181.24
 10
190.35
 20
179.76
 10
190.42
 20
178.49
 10
190.61
 20
177.38
 10
190.9
 20
176.42
 10
191.29
 20
175.6
 10
191.74
 20
174.9
 10
192.25
 20
174.32
 10
193.35
 20
173.46
 10
194.45
 20
172.94
 10
195.41
 20
172.67
 10
196.35
 20
172.56
 10
197.7
 20
172.71
 10
198.88
 20
173.07
 10
199.45
 20
173.36
 10
199.95
 20
173.76
 10
200.83
 20
174.7
 10
201.6
 20
175.86
 10
201.91
 20
176.6
 10
202.14
 20
177.47
 10
202.3
 20
178.52
 10
202.35
 20
179.76
 10
202.28
 20
181.24
 10
202.09
 20
182.53
 10
201.8
 20
183.65
 10
201.41
 20
184.62
 10
200.96
 20
185.43
 10
200.45
 20
186.11
 10
199.35
 20
187.11
 10
198.25
 20
187.72
 10
197.29
 20
188.03
 10
196.35
 20
188.16
 10
195.41
 20
188.03
 10
194.45
 20
187.72
 97
0
 75
1
 76
1
 98
0
  0
LWPOLYLINE
  5
3F
330
17
100
AcDbEntity
  8
FILL_WHITE_FFFFFF
370
0
420
16777215
100
AcDbPolyline
 90
64
 70
1
 10
209.55
 20
192.96
 10
209.55
 20
162.96
 10
208.35
 20
162.96
 10
208.35
 20
161.76
 10
207.74
 20
160.42
 10
206.83
 20
159.12
 10
205.67
 20
157.9
 10
204.3
 20
156.81
 10
202.76
 20
155.89
 10
201.09
 20
155.18
 10
199.34
 20
154.72
 10
197.55
 20
154.56
 10
194.66
 20
154.77
 10
191.55
 20
155.31
 10
188.44
 20
156.08
 10
185.55
 20
156.96
 10
186.75
 20
162.96
 10
188.76
 20
162.08
 10
191.1
 20
161.31
 10
193.67
 20
160.77
 10
196.35
 20
160.56
 10
198.13
 20
160.77
 10
199.8
 20
161.31
 10
201.24
 20
162.08
 10
202.35
 20
162.96
 10
202.35
 20
164.16
 10
202.35
 20
165.36
 10
202.35
 20
167.76
 10
201.15
 20
167.76
 10
199.39
 20
167.07
 10
197.85
 20
166.71
 10
196.35
 20
166.56
 10
194.7
 20
166.86
 10
192.81
 20
167.57
 10
191.64
 20
168.17
 10
190.35
 20
168.96
 10
189.06
 20
169.52
 10
187.89
 20
170.31
 10
186.87
 20
171.32
 10
186.0
 20
172.56
 10
185.3
 20
174.02
 10
184.78
 20
175.71
 10
184.46
 20
177.62
 10
184.35
 20
179.76
 10
184.46
 20
182.29
 10
184.78
 20
184.5
 10
185.3
 20
186.4
 10
186.0
 20
188.01
 10
186.87
 20
189.33
 10
187.89
 20
190.39
 10
189.06
 20
191.2
 10
190.35
 20
191.76
 10
191.64
 20
192.55
 10
192.81
 20
193.15
 10
194.7
 20
193.86
 10
196.35
 20
194.16
 10
197.25
 20
194.14
 10
198.15
 20
194.01
 10
199.05
 20
193.65
 10
199.95
 20
192.96
 10
200.83
 20
192.77
 10
201.6
 20
192.36
 10
202.35
 20
191.76
 10
202.35
 20
192.96
  0
LWPOLYLINE
  5
40
330
17
100
AcDbEntity
  8
FILL_WHITE_FFFFFF
370
0
420
16777215
100
AcDbPolyline
 90
40
 70
1
 10
194.45
 20
187.72
 10
193.35
 20
187.11
 10
192.25
 20
186.11
 10
191.74
 20
185.43
 10
191.29
 20
184.62
 10
190.9
 20
183.65
 10
190.61
 20
182.53
 10
190.42
 20
181.24
 10
190.35
 20
179.76
 10
190.42
 20
178.49
 10
190.61
 20
177.38
 10
190.9
 20
176.42
 10
191.29
 20
175.6
 10
191.74
 20
174.9
 10
192.25
 20
174.32
 10
193.35
 20
173.46
 10
194.45
 20
172.94
 10
195.41
 20
172.67
 10
196.35
 20
172.56
 10
197.7
 20
172.71
 10
198.88
 20
173.07
 10
199.45
 20
173.36
 10
199.95
 20
173.76
 10
200.83
 20
174.7
 10
201.6
 20
175.86
 10
201.91
 20
176.6
 10
202.14
 20
177.47
 10
202.3
 20
178.52
 10
202.35
 20
179.76
 10
202.28
 20
181.24
 10
202.09
 20
182.53
 10
201.8
 20
183.65
 10
201.41
 20
184.62
 10
200.96
 20
185.43
 10
200.45
 20
186.11
 10
199.35
 20
187.11
 10
198.25
 20
187.72
 10
197.29
 20
188.03
 10
196.35
 20
188.16
 10
195.41
 20
188.03
  0
HATCH
  5
41
330
17
100
AcDbEntity
  8
FILL_WHITE_FFFFFF
 62
7
420
16777215
100
AcDbHatch
 10
0.0
 20
0.0
 30
0.0
210
0.0
220
0.0
230
1.0
  2
SOLID
 70
1
 71
0
 91
2
 92
3
 72
0
 73
1
 93
62
 10
224.55
 20
164.46
 10
223.87
 20
164.75
 10
223.16
 20
165.17
 10
221.55
 20
166.56
 10
217.95
 20
170.16
 10
217.55
 20
171.56
 10
217.26
 20
173.05
 10
216.9
 20
176.16
 10
216.77
 20
179.27
 10
216.75
 20
182.16
 10
217.86
 20
184.84
 10
219.3
 20
187.41
 10
220.97
 20
189.75
 10
222.75
 20
191.76
 10
224.6
 20
192.55
 10
226.52
 20
193.11
 10
228.47
 20
193.45
 10
230.4
 20
193.56
 10
232.28
 20
193.45
 10
234.06
 20
193.11
 10
235.69
 20
192.55
 10
237.15
 20
191.76
 10
238.74
 20
189.96
 10
240.0
 20
188.16
 10
241.95
 20
184.56
 10
242.12
 20
182.74
 10
242.4
 20
180.81
 10
242.48
 20
179.77
 10
242.46
 20
178.65
 10
242.29
 20
177.46
 10
241.95
 20
176.16
 10
222.75
 20
176.16
 10
222.9
 20
175.41
 10
223.26
 20
174.64
 10
223.95
 20
173.76
 10
224.16
 20
172.86
 10
224.7
 20
171.96
 10
226.35
 20
170.16
 10
226.85
 20
169.76
 10
227.46
 20
169.47
 10
228.9
 20
169.11
 10
230.57
 20
168.98
 10
232.35
 20
168.96
 10
233.25
 20
169.67
 10
234.15
 20
170.16
 10
235.05
 20
170.65
 10
235.95
 20
171.36
 10
237.15
 20
172.56
 10
240.75
 20
167.76
 10
240.64
 20
167.31
 10
240.36
 20
166.88
 10
239.4
 20
166.11
 10
238.22
 20
165.57
 10
237.15
 20
165.36
 10
235.14
 20
164.5
 10
232.8
 20
163.86
 10
231.54
 20
163.7
 10
230.23
 20
163.67
 10
228.9
 20
163.82
 10
227.55
 20
164.16
 10
225.94
 20
164.2
 10
224.55
 20
164.46
 97
0
 92
18
 72
0
 73
1
 93
21
 10
235.8
 20
183.36
 10
235.44
 20
184.67
 10
235.15
 20
185.26
 10
234.75
 20
185.76
 10
234.7
 20
186.16
 10
234.54
 20
186.47
 10
234.0
 20
186.96
 10
233.23
 20
187.45
 10
232.35
 20
188.16
 10
226.35
 20
188.16
 10
225.64
 20
187.28
 10
225.15
 20
186.51
 10
224.66
 20
185.97
 10
224.35
 20
185.81
 10
223.95
 20
185.76
 10
223.76
 20
184.17
 10
223.35
 20
182.91
 10
222.94
 20
181.88
 10
222.75
 20
180.96
 10
235.95
 20
180.96
 10
235.8
 20
183.36
 97
0
 75
1
 76
1
 98
0
  0
LWPOLYLINE
  5
42
330
17
100
AcDbEntity
  8
FILL_WHITE_FFFFFF
370
0
420
16777215
100
AcDbPolyline
 90
61
 70
1
 10
224.55
 20
164.46
 10
223.87
 20
164.75
 10
223.16
 20
165.17
 10
221.55
 20
166.56
 10
217.95
 20
170.16
 10
217.55
 20
171.56
 10
217.26
 20
173.05
 10
216.9
 20
176.16
 10
216.77
 20
179.27
 10
216.75
 20
182.16
 10
217.86
 20
184.84
 10
219.3
 20
187.41
 10
220.97
 20
189.75
 10
222.75
 20
191.76
 10
224.6
 20
192.55
 10
226.52
 20
193.11
 10
228.47
 20
193.45
 10
230.4
 20
193.56
 10
232.28
 20
193.45
 10
234.06
 20
193.11
 10
235.69
 20
192.55
 10
237.15
 20
191.76
 10
238.74
 20
189.96
 10
240.0
 20
188.16
 10
241.95
 20
184.56
 10
242.12
 20
182.74
 10
242.4
 20
180.81
 10
242.48
 20
179.77
 10
242.46
 20
178.65
 10
242.29
 20
177.46
 10
241.95
 20
176.16
 10
222.75
 20
176.16
 10
222.9
 20
175.41
 10
223.26
 20
174.64
 10
223.95
 20
173.76
 10
224.16
 20
172.86
 10
224.7
 20
171.96
 10
226.35
 20
170.16
 10
226.85
 20
169.76
 10
227.46
 20
169.47
 10
228.9
 20
169.11
 10
230.57
 20
168.98
 10
232.35
 20
168.96
 10
233.25
 20
169.67
 10
234.15
 20
170.16
 10
235.05
 20
170.65
 10
235.95
 20
171.36
 10
237.15
 20
172.56
 10
240.75
 20
167.76
 10
240.64
 20
167.31
 10
240.36
 20
166.88
 10
239.4
 20
166.11
 10
238.22
 20
165.57
 10
237.15
 20
165.36
 10
235.14
 20
164.5
 10
232.8
 20
163.86
 10
231.54
 20
163.7
 10
230.23
 20
163.67
 10
228.9
 20
163.82
 10
227.55
 20
164.16
 10
225.94
 20
164.2
  0
LWPOLYLINE
  5
43
330
17
100
AcDbEntity
  8
FILL_WHITE_FFFFFF
370
0
420
16777215
100
AcDbPolyline
 90
20
 70
1
 10
235.8
 20
183.36
 10
235.44
 20
184.67
 10
235.15
 20
185.26
 10
234.75
 20
185.76
 10
234.7
 20
186.16
 10
234.54
 20
186.47
 10
234.0
 20
186.96
 10
233.23
 20
187.45
 10
232.35
 20
188.16
 10
226.35
 20
188.16
 10
225.64
 20
187.28
 10
225.15
 20
186.51
 10
224.66
 20
185.97
 10
224.35
 20
185.81
 10
223.95
 20
185.76
 10
223.76
 20
184.17
 10
223.35
 20
182.91
 10
222.94
 20
181.88
 10
222.75
 20
180.96
 10
235.95
 20
180.96
  0
HATCH
  5
44
330
17
100
AcDbEntity
  8
FILL_WHITE_FFFFFF
 62
7
420
16777215
100
AcDbHatch
 10
0.0
 20
0.0
 30
0.0
210
0.0
220
0.0
230
1.0
  2
SOLID
 70
1
 71
0
 91
1
 92
3
 72
0
 73
1
 93
41
 10
261.5
 20
188.11
 10
260.76
 20
187.95
 10
259.5
 20
187.41
 10
258.47
 20
186.64
 10
257.55
 20
185.76
 10
256.86
 20
184.86
 10
256.5
 20
183.96
 10
256.37
 20
183.06
 10
256.35
 20
182.16
 10
256.35
 20
164.16
 10
250.35
 20
164.16
 10
250.35
 20
192.96
 10
256.35
 20
192.96
 10
256.35
 20
191.76
 10
257.27
 20
192.47
 10
258.3
 20
192.96
 10
261.15
 20
194.16
 10
262.76
 20
194.14
 10
264.15
 20
194.01
 10
265.54
 20
193.65
 10
267.15
 20
192.96
 10
267.65
 20
192.56
 10
268.24
 20
192.23
 10
269.55
 20
191.61
 10
270.86
 20
190.77
 10
271.45
 20
190.15
 10
271.95
 20
189.36
 10
272.35
 20
188.86
 10
272.64
 20
188.27
 10
273.0
 20
186.96
 10
273.15
 20
184.56
 10
273.15
 20
164.16
 10
267.15
 20
164.16
 10
267.15
 20
183.36
 10
266.94
 20
184.26
 10
266.4
 20
185.16
 10
264.75
 20
186.96
 10
264.0
 20
187.56
 10
263.23
 20
187.97
 10
262.35
 20
188.16
 10
261.5
 20
188.11
 97
0
 75
1
 76
1
 98
0
  0
LWPOLYLINE
  5
45
330
17
100
AcDbEntity
  8
FILL_WHITE_FFFFFF
370
0
420
16777215
100
AcDbPolyline
 90
40
 70
1
 10
261.5
 20
188.11
 10
260.76
 20
187.95
 10
259.5
 20
187.41
 10
258.47
 20
186.64
 10
257.55
 20
185.76
 10
256.86
 20
184.86
 10
256.5
 20
183.96
 10
256.37
 20
183.06
 10
256.35
 20
182.16
 10
256.35
 20
164.16
 10
250.35
 20
164.16
 10
250.35
 20
192.96
 10
256.35
 20
192.96
 10
256.35
 20
191.76
 10
257.27
 20
192.47
 10
258.3
 20
192.96
 10
261.15
 20
194.16
 10
262.76
 20
194.14
 10
264.15
 20
194.01
 10
265.54
 20
193.65
 10
267.15
 20
192.96
 10
267.65
 20
192.56
 10
268.24
 20
192.23
 10
269.55
 20
191.61
 10
270.86
 20
190.77
 10
271.45
 20
190.15
 10
271.95
 20
189.36
 10
272.35
 20
188.86
 10
272.64
 20
188.27
 10
273.0
 20
186.96
 10
273.15
 20
184.56
 10
273.15
 20
164.16
 10
267.15
 20
164.16
 10
267.15
 20
183.36
 10
266.94
 20
184.26
 10
266.4
 20
185.16
 10
264.75
 20
186.96
 10
264.0
 20
187.56
 10
263.23
 20
187.97
 10
262.35
 20
188.16
  0
HATCH
  5
46
330
17
100
AcDbEntity
  8
FILL_WHITE_FFFFFF
 62
7
420
16777215
100
AcDbHatch
 10
0.0
 20
0.0
 30
0.0
210
0.0
220
0.0
230
1.0
  2
SOLID
 70
1
 71
0
 91
1
 92
3
 72
0
 73
1
 93
106
 10
293.25
 20
168.98
 10
294.15
 20
169.11
 10
295.05
 20
169.47
 10
295.95
 20
170.16
 10
296.83
 20
170.18
 10
297.6
 20
170.31
 10
298.14
 20
170.67
 10
298.3
 20
170.96
 10
298.35
 20
171.36
 10
300.75
 20
173.76
 10
305.55
 20
170.16
 10
304.35
 20
168.96
 10
304.3
 20
168.56
 10
304.14
 20
168.25
 10
303.6
 20
167.76
 10
302.83
 20
167.27
 10
301.95
 20
166.56
 10
301.9
 20
166.16
 10
301.74
 20
165.87
 10
301.2
 20
165.51
 10
300.43
 20
165.38
 10
299.55
 20
165.36
 10
299.05
 20
164.96
 10
298.44
 20
164.67
 10
297.0
 20
164.31
 10
295.33
 20
164.18
 10
293.55
 20
164.16
 10
291.75
 20
164.18
 10
289.95
 20
164.31
 10
288.15
 20
164.67
 10
286.35
 20
165.36
 10
284.59
 20
167.16
 10
283.05
 20
168.96
 10
282.44
 20
169.86
 10
281.96
 20
170.76
 10
281.66
 20
171.66
 10
281.55
 20
172.56
 10
280.86
 20
175.07
 10
280.5
 20
177.36
 10
280.37
 20
179.65
 10
280.35
 20
182.16
 10
280.41
 20
183.06
 10
280.58
 20
183.96
 10
280.86
 20
184.86
 10
281.25
 20
185.76
 10
282.38
 20
187.56
 10
283.95
 20
189.36
 10
285.04
 20
190.26
 10
286.35
 20
191.16
 10
287.66
 20
192.06
 10
288.75
 20
192.96
 10
289.7
 20
193.35
 10
290.74
 20
193.63
 10
291.83
 20
193.8
 10
292.95
 20
193.86
 10
294.07
 20
193.8
 10
295.16
 20
193.63
 10
296.2
 20
193.35
 10
297.15
 20
192.96
 10
298.05
 20
192.9
 10
298.93
 20
192.73
 10
299.79
 20
192.45
 10
300.6
 20
192.06
 10
301.36
 20
191.55
 10
302.04
 20
190.93
 10
302.65
 20
190.2
 10
303.15
 20
189.36
 10
303.55
 20
189.31
 10
303.84
 20
189.17
 10
304.2
 20
188.76
 10
304.35
 20
188.16
 10
305.04
 20
187.45
 10
305.4
 20
186.96
 10
305.53
 20
186.47
 10
305.55
 20
185.76
 10
300.75
 20
183.36
 10
300.04
 20
184.26
 10
299.55
 20
185.16
 10
299.06
 20
186.06
 10
298.35
 20
186.96
 10
297.15
 20
186.96
 10
296.25
 20
187.35
 10
295.37
 20
187.63
 10
294.51
 20
187.8
 10
293.7
 20
187.86
 10
292.94
 20
187.8
 10
292.26
 20
187.63
 10
291.65
 20
187.35
 10
291.15
 20
186.96
 10
287.55
 20
183.36
 10
287.16
 20
182.41
 10
286.88
 20
181.37
 10
286.71
 20
180.28
 10
286.65
 20
179.16
 10
286.71
 20
178.04
 10
286.88
 20
176.95
 10
287.16
 20
175.91
 10
287.55
 20
174.96
 10
287.66
 20
174.06
 10
287.96
 20
173.18
 10
288.44
 20
172.32
 10
289.05
 20
171.51
 10
289.78
 20
170.75
 10
290.59
 20
170.07
 10
292.35
 20
168.96
 10
293.25
 20
168.98
 97
0
 75
1
 76
1
 98
0
  0
LWPOLYLINE
  5
47
330
17
100
AcDbEntity
  8
FILL_WHITE_FFFFFF
370
0
420
16777215
100
AcDbPolyline
 90
105
 70
1
 10
293.25
 20
168.98
 10
294.15
 20
169.11
 10
295.05
 20
169.47
 10
295.95
 20
170.16
 10
296.83
 20
170.18
 10
297.6
 20
170.31
 10
298.14
 20
170.67
 10
298.3
 20
170.96
 10
298.35
 20
171.36
 10
300.75
 20
173.76
 10
305.55
 20
170.16
 10
304.35
 20
168.96
 10
304.3
 20
168.56
 10
304.14
 20
168.25
 10
303.6
 20
167.76
 10
302.83
 20
167.27
 10
301.95
 20
166.56
 10
301.9
 20
166.16
 10
301.74
 20
165.87
 10
301.2
 20
165.51
 10
300.43
 20
165.38
 10
299.55
 20
165.36
 10
299.05
 20
164.96
 10
298.44
 20
164.67
 10
297.0
 20
164.31
 10
295.33
 20
164.18
 10
293.55
 20
164.16
 10
291.75
 20
164.18
 10
289.95
 20
164.31
 10
288.15
 20
164.67
 10
286.35
 20
165.36
 10
284.59
 20
167.16
 10
283.05
 20
168.96
 10
282.44
 20
169.86
 10
281.96
 20
170.76
 10
281.66
 20
171.66
 10
281.55
 20
172.56
 10
280.86
 20
175.07
 10
280.5
 20
177.36
 10
280.37
 20
179.65
 10
280.35
 20
182.16
 10
280.41
 20
183.06
 10
280.58
 20
183.96
 10
280.86
 20
184.86
 10
281.25
 20
185.76
 10
282.38
 20
187.56
 10
283.95
 20
189.36
 10
285.04
 20
190.26
 10
286.35
 20
191.16
 10
287.66
 20
192.06
 10
288.75
 20
192.96
 10
289.7
 20
193.35
 10
290.74
 20
193.63
 10
291.83
 20
193.8
 10
292.95
 20
193.86
 10
294.07
 20
193.8
 10
295.16
 20
193.63
 10
296.2
 20
193.35
 10
297.15
 20
192.96
 10
298.05
 20
192.9
 10
298.93
 20
192.73
 10
299.79
 20
192.45
 10
300.6
 20
192.06
 10
301.36
 20
191.55
 10
302.04
 20
190.93
 10
302.65
 20
190.2
 10
303.15
 20
189.36
 10
303.55
 20
189.31
 10
303.84
 20
189.17
 10
304.2
 20
188.76
 10
304.35
 20
188.16
 10
305.04
 20
187.45
 10
305.4
 20
186.96
 10
305.53
 20
186.47
 10
305.55
 20
185.76
 10
300.75
 20
183.36
 10
300.04
 20
184.26
 10
299.55
 20
185.16
 10
299.06
 20
186.06
 10
298.35
 20
186.96
 10
297.15
 20
186.96
 10
296.25
 20
187.35
 10
295.37
 20
187.63
 10
294.51
 20
187.8
 10
293.7
 20
187.86
 10
292.94
 20
187.8
 10
292.26
 20
187.63
 10
291.65
 20
187.35
 10
291.15
 20
186.96
 10
287.55
 20
183.36
 10
287.16
 20
182.41
 10
286.88
 20
181.37
 10
286.71
 20
180.28
 10
286.65
 20
179.16
 10
286.71
 20
178.04
 10
286.88
 20
176.95
 10
287.16
 20
175.91
 10
287.55
 20
174.96
 10
287.66
 20
174.06
 10
287.96
 20
173.18
 10
288.44
 20
172.32
 10
289.05
 20
171.51
 10
289.78
 20
170.75
 10
290.59
 20
170.07
 10
292.35
 20
168.96
  0
HATCH
  5
48
330
17
100
AcDbEntity
  8
FILL_WHITE_FFFFFF
 62
7
420
16777215
100
AcDbHatch
 10
0.0
 20
0.0
 30
0.0
210
0.0
220
0.0
230
1.0
  2
SOLID
 70
1
 71
0
 91
1
 92
3
 72
0
 73
1
 93
35
 10
318.75
 20
162.96
 10
309.15
 20
192.96
 10
316.35
 20
192.96
 10
321.15
 20
173.76
 10
327.15
 20
192.96
 10
334.35
 20
192.96
 10
333.85
 20
190.76
 10
333.26
 20
188.65
 10
331.95
 20
184.56
 10
330.64
 20
180.47
 10
330.05
 20
178.36
 10
329.55
 20
176.16
 10
326.1
 20
167.31
 10
324.66
 20
163.17
 10
323.55
 20
159.36
 10
323.55
 20
158.16
 10
322.44
 20
157.09
 10
321.0
 20
155.91
 10
320.19
 20
155.38
 10
319.33
 20
154.95
 10
318.45
 20
154.67
 10
317.55
 20
154.56
 10
313.95
 20
154.56
 10
313.05
 20
154.58
 10
312.15
 20
154.71
 10
311.25
 20
155.07
 10
310.35
 20
155.76
 10
311.55
 20
160.56
 10
315.15
 20
160.56
 10
316.03
 20
160.58
 10
316.8
 20
160.71
 10
317.34
 20
161.07
 10
317.5
 20
161.36
 10
317.55
 20
161.76
 10
318.75
 20
162.96
 97
0
 75
1
 76
1
 98
0
  0
LWPOLYLINE
  5
49
330
17
100
AcDbEntity
  8
FILL_WHITE_FFFFFF
370
0
420
16777215
100
AcDbPolyline
 90
34
 70
1
 10
318.75
 20
162.96
 10
309.15
 20
192.96
 10
316.35
 20
192.96
 10
321.15
 20
173.76
 10
327.15
 20
192.96
 10
334.35
 20
192.96
 10
333.85
 20
190.76
 10
333.26
 20
188.65
 10
331.95
 20
184.56
 10
330.64
 20
180.47
 10
330.05
 20
178.36
 10
329.55
 20
176.16
 10
326.1
 20
167.31
 10
324.66
 20
163.17
 10
323.55
 20
159.36
 10
323.55
 20
158.16
 10
322.44
 20
157.09
 10
321.0
 20
155.91
 10
320.19
 20
155.38
 10
319.33
 20
154.95
 10
318.45
 20
154.67
 10
317.55
 20
154.56
 10
313.95
 20
154.56
 10
313.05
 20
154.58
 10
312.15
 20
154.71
 10
311.25
 20
155.07
 10
310.35
 20
155.76
 10
311.55
 20
160.56
 10
315.15
 20
160.56
 10
316.03
 20
160.58
 10
316.8
 20
160.71
 10
317.34
 20
161.07
 10
317.5
 20
161.36
 10
317.55
 20
161.76
  0
HATCH
  5
4A
330
17
100
AcDbEntity
  8
FILL_WHITE_FFFFFF
 62
7
420
16777215
100
AcDbHatch
 10
0.0
 20
0.0
 30
0.0
210
0.0
220
0.0
230
1.0
  2
SOLID
 70
1
 71
0
 91
1
 92
3
 72
0
 73
1
 93
7
 10
357.15
 20
204.96
 10
364.35
 20
204.96
 10
364.35
 20
170.16
 10
381.15
 20
170.16
 10
381.15
 20
164.16
 10
357.15
 20
164.16
 10
357.15
 20
204.96
 97
0
 75
1
 76
1
 98
0
  0
LWPOLYLINE
  5
4B
330
17
100
AcDbEntity
  8
FILL_WHITE_FFFFFF
370
0
420
16777215
100
AcDbPolyline
 90
6
 70
1
 10
357.15
 20
204.96
 10
364.35
 20
204.96
 10
364.35
 20
170.16
 10
381.15
 20
170.16
 10
381.15
 20
164.16
 10
357.15
 20
164.16
  0
HATCH
  5
4C
330
17
100
AcDbEntity
  8
FILL_WHITE_FFFFFF
 62
7
420
16777215
100
AcDbHatch
 10
0.0
 20
0.0
 30
0.0
210
0.0
220
0.0
230
1.0
  2
SOLID
 70
1
 71
0
 91
2
 92
3
 72
0
 73
1
 93
83
 10
391.35
 20
164.31
 10
390.45
 20
164.67
 10
389.55
 20
165.36
 10
388.71
 20
165.41
 10
387.98
 20
165.57
 10
387.36
 20
165.8
 10
386.85
 20
166.11
 10
386.46
 20
166.47
 10
386.18
 20
166.88
 10
386.01
 20
167.31
 10
385.95
 20
167.76
 10
385.07
 20
168.85
 10
384.3
 20
170.16
 10
383.76
 20
171.47
 10
383.55
 20
172.56
 10
383.6
 20
173.41
 10
383.76
 20
174.17
 10
384.3
 20
175.56
 10
385.95
 20
178.56
 10
386.85
 20
179.27
 10
387.75
 20
179.76
 10
388.65
 20
180.25
 10
389.55
 20
180.96
 10
390.45
 20
181.15
 10
391.35
 20
181.56
 10
392.25
 20
181.97
 10
393.15
 20
182.16
 10
396.75
 20
182.16
 10
401.55
 20
182.16
 10
401.55
 20
183.36
 10
401.55
 20
185.76
 10
400.35
 20
186.96
 10
400.3
 20
187.36
 10
400.14
 20
187.65
 10
399.6
 20
188.01
 10
398.83
 20
188.14
 10
397.95
 20
188.16
 10
394.35
 20
188.16
 10
390.75
 20
188.16
 10
387.15
 20
185.76
 10
384.75
 20
190.56
 10
385.46
 20
191.25
 10
385.95
 20
191.61
 10
386.44
 20
191.74
 10
387.15
 20
191.76
 10
388.05
 20
192.45
 10
388.95
 20
192.81
 10
389.85
 20
192.94
 10
390.75
 20
192.96
 10
391.67
 20
193.65
 10
392.7
 20
194.01
 10
393.96
 20
194.14
 10
395.55
 20
194.16
 10
398.1
 20
194.01
 10
399.77
 20
193.65
 10
401.55
 20
192.96
 10
402.64
 20
192.75
 10
403.95
 20
192.21
 10
405.26
 20
191.44
 10
406.35
 20
190.56
 10
406.54
 20
189.66
 10
406.95
 20
188.76
 10
407.36
 20
187.86
 10
407.55
 20
186.96
 10
407.55
 20
180.96
 10
407.55
 20
171.36
 10
407.55
 20
170.16
 10
408.75
 20
168.96
 10
409.95
 20
167.76
 10
407.55
 20
164.16
 10
403.95
 20
164.16
 10
403.9
 20
164.56
 10
403.76
 20
164.87
 10
403.35
 20
165.36
 10
402.94
 20
165.85
 10
402.8
 20
166.16
 10
402.75
 20
166.56
 10
401.83
 20
165.85
 10
400.8
 20
165.36
 10
397.95
 20
164.16
 10
393.15
 20
164.16
 10
392.25
 20
164.18
 10
391.35
 20
164.31
 97
0
 92
18
 72
0
 73
1
 93
38
 10
394.24
 20
168.28
 10
394.88
 20
168.12
 10
395.55
 20
168.06
 10
396.22
 20
168.12
 10
396.86
 20
168.28
 10
397.45
 20
168.57
 10
397.95
 20
168.96
 10
398.7
 20
169.11
 10
399.47
 20
169.47
 10
400.35
 20
170.16
 10
401.55
 20
171.36
 10
401.55
 20
172.56
 10
401.55
 20
177.36
 10
397.95
 20
177.36
 10
397.05
 20
177.34
 10
396.15
 20
177.21
 10
395.25
 20
176.85
 10
394.35
 20
176.16
 10
391.95
 20
176.16
 10
391.55
 20
176.11
 10
391.26
 20
175.95
 10
390.9
 20
175.41
 10
390.77
 20
174.64
 10
390.75
 20
173.76
 10
390.35
 20
173.71
 10
390.06
 20
173.55
 10
389.7
 20
173.01
 10
389.57
 20
172.24
 10
389.55
 20
171.36
 10
389.95
 20
171.31
 10
390.24
 20
171.17
 10
390.6
 20
170.76
 10
390.75
 20
170.16
 10
391.63
 20
169.47
 10
392.4
 20
169.11
 10
393.15
 20
168.96
 10
393.65
 20
168.57
 10
394.24
 20
168.28
 97
0
 75
1
 76
1
 98
0
  0
LWPOLYLINE
  5
4D
330
17
100
AcDbEntity
  8
FILL_WHITE_FFFFFF
370
0
420
16777215
100
AcDbPolyline
 90
82
 70
1
 10
391.35
 20
164.31
 10
390.45
 20
164.67
 10
389.55
 20
165.36
 10
388.71
 20
165.41
 10
387.98
 20
165.57
 10
387.36
 20
165.8
 10
386.85
 20
166.11
 10
386.46
 20
166.47
 10
386.18
 20
166.88
 10
386.01
 20
167.31
 10
385.95
 20
167.76
 10
385.07
 20
168.85
 10
384.3
 20
170.16
 10
383.76
 20
171.47
 10
383.55
 20
172.56
 10
383.6
 20
173.41
 10
383.76
 20
174.17
 10
384.3
 20
175.56
 10
385.95
 20
178.56
 10
386.85
 20
179.27
 10
387.75
 20
179.76
 10
388.65
 20
180.25
 10
389.55
 20
180.96
 10
390.45
 20
181.15
 10
391.35
 20
181.56
 10
392.25
 20
181.97
 10
393.15
 20
182.16
 10
396.75
 20
182.16
 10
401.55
 20
182.16
 10
401.55
 20
183.36
 10
401.55
 20
185.76
 10
400.35
 20
186.96
 10
400.3
 20
187.36
 10
400.14
 20
187.65
 10
399.6
 20
188.01
 10
398.83
 20
188.14
 10
397.95
 20
188.16
 10
394.35
 20
188.16
 10
390.75
 20
188.16
 10
387.15
 20
185.76
 10
384.75
 20
190.56
 10
385.46
 20
191.25
 10
385.95
 20
191.61
 10
386.44
 20
191.74
 10
387.15
 20
191.76
 10
388.05
 20
192.45
 10
388.95
 20
192.81
 10
389.85
 20
192.94
 10
390.75
 20
192.96
 10
391.67
 20
193.65
 10
392.7
 20
194.01
 10
393.96
 20
194.14
 10
395.55
 20
194.16
 10
398.1
 20
194.01
 10
399.77
 20
193.65
 10
401.55
 20
192.96
 10
402.64
 20
192.75
 10
403.95
 20
192.21
 10
405.26
 20
191.44
 10
406.35
 20
190.56
 10
406.54
 20
189.66
 10
406.95
 20
188.76
 10
407.36
 20
187.86
 10
407.55
 20
186.96
 10
407.55
 20
180.96
 10
407.55
 20
171.36
 10
407.55
 20
170.16
 10
408.75
 20
168.96
 10
409.95
 20
167.76
 10
407.55
 20
164.16
 10
403.95
 20
164.16
 10
403.9
 20
164.56
 10
403.76
 20
164.87
 10
403.35
 20
165.36
 10
402.94
 20
165.85
 10
402.8
 20
166.16
 10
402.75
 20
166.56
 10
401.83
 20
165.85
 10
400.8
 20
165.36
 10
397.95
 20
164.16
 10
393.15
 20
164.16
 10
392.25
 20
164.18
  0
LWPOLYLINE
  5
4E
330
17
100
AcDbEntity
  8
FILL_WHITE_FFFFFF
370
0
420
16777215
100
AcDbPolyline
 90
37
 70
1
 10
394.24
 20
168.28
 10
394.88
 20
168.12
 10
395.55
 20
168.06
 10
396.22
 20
168.12
 10
396.86
 20
168.28
 10
397.45
 20
168.57
 10
397.95
 20
168.96
 10
398.7
 20
169.11
 10
399.47
 20
169.47
 10
400.35
 20
170.16
 10
401.55
 20
171.36
 10
401.55
 20
172.56
 10
401.55
 20
177.36
 10
397.95
 20
177.36
 10
397.05
 20
177.34
 10
396.15
 20
177.21
 10
395.25
 20
176.85
 10
394.35
 20
176.16
 10
391.95
 20
176.16
 10
391.55
 20
176.11
 10
391.26
 20
175.95
 10
390.9
 20
175.41
 10
390.77
 20
174.64
 10
390.75
 20
173.76
 10
390.35
 20
173.71
 10
390.06
 20
173.55
 10
389.7
 20
173.01
 10
389.57
 20
172.24
 10
389.55
 20
171.36
 10
389.95
 20
171.31
 10
390.24
 20
171.17
 10
390.6
 20
170.76
 10
390.75
 20
170.16
 10
391.63
 20
169.47
 10
392.4
 20
169.11
 10
393.15
 20
168.96
 10
393.65
 20
168.57
  0
HATCH
  5
4F
330
17
100
AcDbEntity
  8
FILL_WHITE_FFFFFF
 62
7
420
16777215
100
AcDbHatch
 10
0.0
 20
0.0
 30
0.0
210
0.0
220
0.0
230
1.0
  2
SOLID
 70
1
 71
0
 91
1
 92
3
 72
0
 73
1
 93
34
 10
424.35
 20
162.96
 10
414.75
 20
192.96
 10
421.95
 20
192.96
 10
427.95
 20
173.76
 10
432.75
 20
192.96
 10
439.95
 20
192.96
 10
439.45
 20
190.76
 10
438.86
 20
188.65
 10
437.55
 20
184.56
 10
436.24
 20
180.47
 10
435.65
 20
178.36
 10
435.15
 20
176.16
 10
431.7
 20
167.31
 10
430.26
 20
163.17
 10
429.15
 20
159.36
 10
429.15
 20
158.16
 10
428.04
 20
157.09
 10
426.6
 20
155.91
 10
425.79
 20
155.38
 10
424.93
 20
154.95
 10
424.05
 20
154.67
 10
423.15
 20
154.56
 10
419.55
 20
154.56
 10
418.65
 20
154.58
 10
417.75
 20
154.71
 10
416.85
 20
155.07
 10
415.95
 20
155.76
 10
417.15
 20
160.56
 10
420.75
 20
160.56
 10
421.65
 20
160.58
 10
422.55
 20
160.71
 10
423.45
 20
161.07
 10
424.35
 20
161.76
 10
424.35
 20
162.96
 97
0
 75
1
 76
1
 98
0
  0
LWPOLYLINE
  5
50
330
17
100
AcDbEntity
  8
FILL_WHITE_FFFFFF
370
0
420
16777215
100
AcDbPolyline
 90
33
 70
1
 10
424.35
 20
162.96
 10
414.75
 20
192.96
 10
421.95
 20
192.96
 10
427.95
 20
173.76
 10
432.75
 20
192.96
 10
439.95
 20
192.96
 10
439.45
 20
190.76
 10
438.86
 20
188.65
 10
437.55
 20
184.56
 10
436.24
 20
180.47
 10
435.65
 20
178.36
 10
435.15
 20
176.16
 10
431.7
 20
167.31
 10
430.26
 20
163.17
 10
429.15
 20
159.36
 10
429.15
 20
158.16
 10
428.04
 20
157.09
 10
426.6
 20
155.91
 10
425.79
 20
155.38
 10
424.93
 20
154.95
 10
424.05
 20
154.67
 10
423.15
 20
154.56
 10
419.55
 20
154.56
 10
418.65
 20
154.58
 10
417.75
 20
154.71
 10
416.85
 20
155.07
 10
415.95
 20
155.76
 10
417.15
 20
160.56
 10
420.75
 20
160.56
 10
421.65
 20
160.58
 10
422.55
 20
160.71
 10
423.45
 20
161.07
 10
424.35
 20
161.76
  0
HATCH
  5
51
330
17
100
AcDbEntity
  8
FILL_WHITE_FFFFFF
 62
7
420
16777215
100
AcDbHatch
 10
0.0
 20
0.0
 30
0.0
210
0.0
220
0.0
230
1.0
  2
SOLID
 70
1
 71
0
 91
1
 92
3
 72
0
 73
1
 93
5
 10
456.75
 20
182.16
 10
456.75
 20
176.16
 10
444.75
 20
176.16
 10
444.75
 20
182.16
 10
456.75
 20
182.16
 97
0
 75
1
 76
1
 98
0
  0
LWPOLYLINE
  5
52
330
17
100
AcDbEntity
  8
FILL_WHITE_FFFFFF
370
0
420
16777215
100
AcDbPolyline
 90
4
 70
1
 10
456.75
 20
182.16
 10
456.75
 20
176.16
 10
444.75
 20
176.16
 10
444.75
 20
182.16
  0
HATCH
  5
53
330
17
100
AcDbEntity
  8
FILL_WHITE_FFFFFF
 62
7
420
16777215
100
AcDbHatch
 10
0.0
 20
0.0
 30
0.0
210
0.0
220
0.0
230
1.0
  2
SOLID
 70
1
 71
0
 91
2
 92
3
 72
0
 73
1
 93
41
 10
475.24
 20
193.11
 10
476.78
 20
193.45
 10
478.35
 20
193.56
 10
479.92
 20
193.45
 10
481.46
 20
193.11
 10
482.95
 20
192.55
 10
484.35
 20
191.76
 10
486.04
 20
190.36
 10
487.5
 20
188.85
 10
488.74
 20
187.27
 10
489.75
 20
185.61
 10
490.54
 20
183.9
 10
491.1
 20
182.14
 10
491.44
 20
180.36
 10
491.55
 20
178.56
 10
491.44
 20
176.76
 10
491.12
 20
174.98
 10
490.6
 20
173.22
 10
489.9
 20
171.51
 10
489.03
 20
169.85
 10
488.01
 20
168.27
 10
486.84
 20
166.76
 10
485.55
 20
165.36
 10
483.75
 20
164.67
 10
481.95
 20
164.31
 10
480.15
 20
164.18
 10
478.35
 20
164.16
 10
476.57
 20
164.18
 10
474.9
 20
164.31
 10
473.46
 20
164.67
 10
472.85
 20
164.96
 10
472.35
 20
165.36
 10
471.15
 20
165.36
 10
471.15
 20
164.16
 10
465.15
 20
164.16
 10
465.15
 20
204.96
 10
471.15
 20
204.96
 10
471.15
 20
191.76
 10
472.35
 20
191.76
 10
473.75
 20
192.55
 10
475.24
 20
193.11
 97
0
 92
18
 72
0
 73
1
 93
40
 10
480.15
 20
169.56
 10
481.05
 20
169.97
 10
481.95
 20
170.16
 10
482.85
 20
171.25
 10
483.75
 20
172.56
 10
484.65
 20
173.87
 10
485.55
 20
174.96
 10
485.53
 20
177.45
 10
485.4
 20
179.61
 10
485.04
 20
181.54
 10
484.35
 20
183.36
 10
484.24
 20
183.86
 10
483.96
 20
184.43
 10
483.0
 20
185.61
 10
481.82
 20
186.57
 10
481.25
 20
186.85
 10
480.75
 20
186.96
 10
479.14
 20
187.63
 10
478.43
 20
187.8
 10
477.75
 20
187.86
 10
477.07
 20
187.8
 10
476.36
 20
187.63
 10
474.75
 20
186.96
 10
473.85
 20
186.75
 10
472.95
 20
186.21
 10
471.15
 20
184.56
 10
471.15
 20
180.96
 10
471.15
 20
176.16
 10
471.15
 20
174.96
 10
471.15
 20
173.76
 10
472.05
 20
172.35
 10
472.95
 20
171.51
 10
473.85
 20
170.89
 10
474.75
 20
170.16
 10
475.65
 20
169.47
 10
476.55
 20
169.11
 10
477.45
 20
168.98
 10
478.35
 20
168.96
 10
479.25
 20
169.15
 10
480.15
 20
169.56
 97
0
 75
1
 76
1
 98
0
  0
LWPOLYLINE
  5
54
330
17
100
AcDbEntity
  8
FILL_WHITE_FFFFFF
370
0
420
16777215
100
AcDbPolyline
 90
40
 70
1
 10
475.24
 20
193.11
 10
476.78
 20
193.45
 10
478.35
 20
193.56
 10
479.92
 20
193.45
 10
481.46
 20
193.11
 10
482.95
 20
192.55
 10
484.35
 20
191.76
 10
486.04
 20
190.36
 10
487.5
 20
188.85
 10
488.74
 20
187.27
 10
489.75
 20
185.61
 10
490.54
 20
183.9
 10
491.1
 20
182.14
 10
491.44
 20
180.36
 10
491.55
 20
178.56
 10
491.44
 20
176.76
 10
491.12
 20
174.98
 10
490.6
 20
173.22
 10
489.9
 20
171.51
 10
489.03
 20
169.85
 10
488.01
 20
168.27
 10
486.84
 20
166.76
 10
485.55
 20
165.36
 10
483.75
 20
164.67
 10
481.95
 20
164.31
 10
480.15
 20
164.18
 10
478.35
 20
164.16
 10
476.57
 20
164.18
 10
474.9
 20
164.31
 10
473.46
 20
164.67
 10
472.85
 20
164.96
 10
472.35
 20
165.36
 10
471.15
 20
165.36
 10
471.15
 20
164.16
 10
465.15
 20
164.16
 10
465.15
 20
204.96
 10
471.15
 20
204.96
 10
471.15
 20
191.76
 10
472.35
 20
191.76
 10
473.75
 20
192.55
  0
LWPOLYLINE
  5
55
330
17
100
AcDbEntity
  8
FILL_WHITE_FFFFFF
370
0
420
16777215
100
AcDbPolyline
 90
39
 70
1
 10
480.15
 20
169.56
 10
481.05
 20
169.97
 10
481.95
 20
170.16
 10
482.85
 20
171.25
 10
483.75
 20
172.56
 10
484.65
 20
173.87
 10
485.55
 20
174.96
 10
485.53
 20
177.45
 10
485.4
 20
179.61
 10
485.04
 20
181.54
 10
484.35
 20
183.36
 10
484.24
 20
183.86
 10
483.96
 20
184.43
 10
483.0
 20
185.61
 10
481.82
 20
186.57
 10
481.25
 20
186.85
 10
480.75
 20
186.96
 10
479.14
 20
187.63
 10
478.43
 20
187.8
 10
477.75
 20
187.86
 10
477.07
 20
187.8
 10
476.36
 20
187.63
 10
474.75
 20
186.96
 10
473.85
 20
186.75
 10
472.95
 20
186.21
 10
471.15
 20
184.56
 10
471.15
 20
180.96
 10
471.15
 20
176.16
 10
471.15
 20
174.96
 10
471.15
 20
173.76
 10
472.05
 20
172.35
 10
472.95
 20
171.51
 10
473.85
 20
170.89
 10
474.75
 20
170.16
 10
475.65
 20
169.47
 10
476.55
 20
169.11
 10
477.45
 20
168.98
 10
478.35
 20
168.96
 10
479.25
 20
169.15
  0
HATCH
  5
56
330
17
100
AcDbEntity
  8
FILL_WHITE_FFFFFF
 62
7
420
16777215
100
AcDbHatch
 10
0.0
 20
0.0
 30
0.0
210
0.0
220
0.0
230
1.0
  2
SOLID
 70
1
 71
0
 91
1
 92
3
 72
0
 73
1
 93
29
 10
505.95
 20
162.96
 10
495.15
 20
192.96
 10
502.35
 20
192.96
 10
508.35
 20
173.76
 10
514.35
 20
192.96
 10
521.55
 20
192.96
 10
514.35
 20
171.36
 10
512.55
 20
164.91
 10
510.75
 20
159.36
 10
510.75
 20
158.16
 10
509.64
 20
157.09
 10
508.2
 20
155.91
 10
507.39
 20
155.38
 10
506.53
 20
154.95
 10
505.65
 20
154.67
 10
504.75
 20
154.56
 10
501.15
 20
154.56
 10
500.25
 20
154.58
 10
499.35
 20
154.71
 10
498.45
 20
155.07
 10
497.55
 20
155.76
 10
498.75
 20
160.56
 10
502.35
 20
160.56
 10
503.23
 20
160.58
 10
504.0
 20
160.71
 10
504.54
 20
161.07
 10
504.7
 20
161.36
 10
504.75
 20
161.76
 10
505.95
 20
162.96
 97
0
 75
1
 76
1
 98
0
  0
LWPOLYLINE
  5
57
330
17
100
AcDbEntity
  8
FILL_WHITE_FFFFFF
370
0
420
16777215
100
AcDbPolyline
 90
28
 70
1
 10
505.95
 20
162.96
 10
495.15
 20
192.96
 10
502.35
 20
192.96
 10
508.35
 20
173.76
 10
514.35
 20
192.96
 10
521.55
 20
192.96
 10
514.35
 20
171.36
 10
512.55
 20
164.91
 10
510.75
 20
159.36
 10
510.75
 20
158.16
 10
509.64
 20
157.09
 10
508.2
 20
155.91
 10
507.39
 20
155.38
 10
506.53
 20
154.95
 10
505.65
 20
154.67
 10
504.75
 20
154.56
 10
501.15
 20
154.56
 10
500.25
 20
154.58
 10
499.35
 20
154.71
 10
498.45
 20
155.07
 10
497.55
 20
155.76
 10
498.75
 20
160.56
 10
502.35
 20
160.56
 10
503.23
 20
160.58
 10
504.0
 20
160.71
 10
504.54
 20
161.07
 10
504.7
 20
161.36
 10
504.75
 20
161.76
  0
HATCH
  5
58
330
17
100
AcDbEntity
  8
FILL_WHITE_FFFFFF
 62
7
420
16777215
100
AcDbHatch
 10
0.0
 20
0.0
 30
0.0
210
0.0
220
0.0
230
1.0
  2
SOLID
 70
1
 71
0
 91
4
 92
3
 72
0
 73
1
 93
15
 10
114.75
 20
123.36
 10
124.35
 20
123.36
 10
124.35
 20
111.36
 10
114.75
 20
111.36
 10
114.75
 20
108.96
 10
125.55
 20
108.96
 10
125.55
 20
104.16
 10
102.75
 20
104.16
 10
102.75
 20
101.76
 10
96.75
 20
101.76
 10
96.75
 20
131.76
 10
124.35
 20
131.76
 10
124.35
 20
126.96
 10
114.75
 20
126.96
 10
114.75
 20
123.36
 97
0
 92
18
 72
0
 73
1
 93
5
 10
102.75
 20
108.96
 10
108.75
 20
108.96
 10
108.75
 20
111.36
 10
102.75
 20
111.36
 10
102.75
 20
108.96
 97
0
 92
18
 72
0
 73
1
 93
5
 10
102.75
 20
126.96
 10
102.75
 20
123.36
 10
108.75
 20
123.36
 10
108.75
 20
126.96
 10
102.75
 20
126.96
 97
0
 92
18
 72
0
 73
1
 93
5
 10
119.55
 20
119.76
 10
102.75
 20
119.76
 10
102.75
 20
116.16
 10
119.55
 20
116.16
 10
119.55
 20
119.76
 97
0
 75
1
 76
1
 98
0
  0
LWPOLYLINE
  5
59
330
17
100
AcDbEntity
  8
FILL_WHITE_FFFFFF
370
0
420
16777215
100
AcDbPolyline
 90
14
 70
1
 10
114.75
 20
123.36
 10
124.35
 20
123.36
 10
124.35
 20
111.36
 10
114.75
 20
111.36
 10
114.75
 20
108.96
 10
125.55
 20
108.96
 10
125.55
 20
104.16
 10
102.75
 20
104.16
 10
102.75
 20
101.76
 10
96.75
 20
101.76
 10
96.75
 20
131.76
 10
124.35
 20
131.76
 10
124.35
 20
126.96
 10
114.75
 20
126.96
  0
LWPOLYLINE
  5
5A
330
17
100
AcDbEntity
  8
FILL_WHITE_FFFFFF
370
0
420
16777215
100
AcDbPolyline
 90
4
 70
1
 10
102.75
 20
108.96
 10
108.75
 20
108.96
 10
108.75
 20
111.36
 10
102.75
 20
111.36
  0
LWPOLYLINE
  5
5B
330
17
100
AcDbEntity
  8
FILL_WHITE_FFFFFF
370
0
420
16777215
100
AcDbPolyline
 90
4
 70
1
 10
102.75
 20
126.96
 10
102.75
 20
123.36
 10
108.75
 20
123.36
 10
108.75
 20
126.96
  0
LWPOLYLINE
  5
5C
330
17
100
AcDbEntity
  8
FILL_WHITE_FFFFFF
370
0
420
16777215
100
AcDbPolyline
 90
4
 70
1
 10
119.55
 20
119.76
 10
102.75
 20
119.76
 10
102.75
 20
116.16
 10
119.55
 20
116.16
  0
HATCH
  5
5D
330
17
100
AcDbEntity
  8
FILL_WHITE_FFFFFF
 62
7
420
16777215
100
AcDbHatch
 10
0.0
 20
0.0
 30
0.0
210
0.0
220
0.0
230
1.0
  2
SOLID
 70
1
 71
0
 91
1
 92
3
 72
0
 73
1
 93
36
 10
114.75
 20
98.16
 10
120.75
 20
104.16
 10
124.35
 20
101.76
 10
125.55
 20
100.56
 10
124.35
 20
100.56
 10
124.35
 20
99.36
 10
119.55
 20
95.76
 10
124.35
 20
93.36
 10
132.75
 20
102.96
 10
137.55
 20
100.56
 10
138.75
 20
99.36
 10
138.75
 20
98.16
 10
137.55
 20
98.16
 10
136.35
 20
98.16
 10
126.75
 20
90.96
 10
139.95
 20
90.96
 10
136.35
 20
93.36
 10
139.95
 20
96.96
 10
147.15
 20
92.16
 10
153.15
 20
86.16
 10
148.35
 20
82.56
 10
144.75
 20
86.16
 10
126.75
 20
86.16
 10
126.75
 20
72.96
 10
121.95
 20
72.96
 10
121.95
 20
84.96
 10
100.35
 20
84.96
 10
100.35
 20
83.76
 10
99.15
 20
83.76
 10
97.95
 20
83.76
 10
97.95
 20
86.16
 10
96.75
 20
89.76
 10
119.55
 20
89.76
 10
105.15
 20
98.16
 10
108.75
 20
101.76
 10
114.75
 20
98.16
 97
0
 75
1
 76
1
 98
0
  0
LWPOLYLINE
  5
5E
330
17
100
AcDbEntity
  8
FILL_WHITE_FFFFFF
370
0
420
16777215
100
AcDbPolyline
 90
35
 70
1
 10
114.75
 20
98.16
 10
120.75
 20
104.16
 10
124.35
 20
101.76
 10
125.55
 20
100.56
 10
124.35
 20
100.56
 10
124.35
 20
99.36
 10
119.55
 20
95.76
 10
124.35
 20
93.36
 10
132.75
 20
102.96
 10
137.55
 20
100.56
 10
138.75
 20
99.36
 10
138.75
 20
98.16
 10
137.55
 20
98.16
 10
136.35
 20
98.16
 10
126.75
 20
90.96
 10
139.95
 20
90.96
 10
136.35
 20
93.36
 10
139.95
 20
96.96
 10
147.15
 20
92.16
 10
153.15
 20
86.16
 10
148.35
 20
82.56
 10
144.75
 20
86.16
 10
126.75
 20
86.16
 10
126.75
 20
72.96
 10
121.95
 20
72.96
 10
121.95
 20
84.96
 10
100.35
 20
84.96
 10
100.35
 20
83.76
 10
99.15
 20
83.76
 10
97.95
 20
83.76
 10
97.95
 20
86.16
 10
96.75
 20
89.76
 10
119.55
 20
89.76
 10
105.15
 20
98.16
 10
108.75
 20
101.76
  0
HATCH
  5
5F
330
17
100
AcDbEntity
  8
FILL_WHITE_FFFFFF
 62
7
420
16777215
100
AcDbHatch
 10
0.0
 20
0.0
 30
0.0
210
0.0
220
0.0
230
1.0
  2
SOLID
 70
1
 71
0
 91
1
 92
3
 72
0
 73
1
 93
10
 10
105.15
 20
80.16
 10
113.55
 20
83.76
 10
115.95
 20
81.36
 10
117.15
 20
80.16
 10
118.35
 20
78.96
 10
117.15
 20
78.96
 10
115.95
 20
78.96
 10
100.35
 20
72.96
 10
95.55
 20
77.76
 10
105.15
 20
80.16
 97
0
 75
1
 76
1
 98
0
  0
LWPOLYLINE
  5
60
330
17
100
AcDbEntity
  8
FILL_WHITE_FFFFFF
370
0
420
16777215
100
AcDbPolyline
 90
9
 70
1
 10
105.15
 20
80.16
 10
113.55
 20
83.76
 10
115.95
 20
81.36
 10
117.15
 20
80.16
 10
118.35
 20
78.96
 10
117.15
 20
78.96
 10
115.95
 20
78.96
 10
100.35
 20
72.96
 10
95.55
 20
77.76
  0
HATCH
  5
61
330
17
100
AcDbEntity
  8
FILL_WHITE_FFFFFF
 62
7
420
16777215
100
AcDbHatch
 10
0.0
 20
0.0
 30
0.0
210
0.0
220
0.0
230
1.0
  2
SOLID
 70
1
 71
0
 91
2
 92
3
 72
0
 73
1
 93
21
 10
148.35
 20
130.56
 10
153.15
 20
128.16
 10
149.55
 20
119.76
 10
144.75
 20
112.56
 10
149.55
 20
110.16
 10
154.35
 20
107.76
 10
150.75
 20
102.96
 10
139.95
 20
110.16
 10
135.15
 20
106.56
 10
130.35
 20
105.36
 10
125.55
 20
108.96
 10
131.55
 20
111.36
 10
136.35
 20
112.56
 10
133.95
 20
114.96
 10
132.75
 20
118.56
 10
130.35
 20
122.16
 10
130.35
 20
125.76
 10
126.75
 20
125.76
 10
126.75
 20
130.56
 10
147.15
 20
130.56
 10
148.35
 20
130.56
 97
0
 92
18
 72
0
 73
1
 93
8
 10
136.35
 20
119.76
 10
138.75
 20
118.56
 10
139.95
 20
116.16
 10
143.55
 20
120.96
 10
145.95
 20
125.76
 10
135.15
 20
125.76
 10
136.35
 20
122.16
 10
136.35
 20
119.76
 97
0
 75
1
 76
1
 98
0
  0
LWPOLYLINE
  5
62
330
17
100
AcDbEntity
  8
FILL_WHITE_FFFFFF
370
0
420
16777215
100
AcDbPolyline
 90
20
 70
1
 10
148.35
 20
130.56
 10
153.15
 20
128.16
 10
149.55
 20
119.76
 10
144.75
 20
112.56
 10
149.55
 20
110.16
 10
154.35
 20
107.76
 10
150.75
 20
102.96
 10
139.95
 20
110.16
 10
135.15
 20
106.56
 10
130.35
 20
105.36
 10
125.55
 20
108.96
 10
131.55
 20
111.36
 10
136.35
 20
112.56
 10
133.95
 20
114.96
 10
132.75
 20
118.56
 10
130.35
 20
122.16
 10
130.35
 20
125.76
 10
126.75
 20
125.76
 10
126.75
 20
130.56
 10
147.15
 20
130.56
  0
LWPOLYLINE
  5
63
330
17
100
AcDbEntity
  8
FILL_WHITE_FFFFFF
370
0
420
16777215
100
AcDbPolyline
 90
7
 70
1
 10
136.35
 20
119.76
 10
138.75
 20
118.56
 10
139.95
 20
116.16
 10
143.55
 20
120.96
 10
145.95
 20
125.76
 10
135.15
 20
125.76
 10
136.35
 20
122.16
  0
HATCH
  5
64
330
17
100
AcDbEntity
  8
FILL_WHITE_FFFFFF
 62
7
420
16777215
100
AcDbHatch
 10
0.0
 20
0.0
 30
0.0
210
0.0
220
0.0
230
1.0
  2
SOLID
 70
1
 71
0
 91
1
 92
3
 72
0
 73
1
 93
7
 10
144.75
 20
78.96
 10
153.15
 20
76.56
 10
148.35
 20
72.96
 10
138.75
 20
76.56
 10
130.35
 20
80.16
 10
135.15
 20
83.76
 10
144.75
 20
78.96
 97
0
 75
1
 76
1
 98
0
  0
LWPOLYLINE
  5
65
330
17
100
AcDbEntity
  8
FILL_WHITE_FFFFFF
370
0
420
16777215
100
AcDbPolyline
 90
6
 70
1
 10
144.75
 20
78.96
 10
153.15
 20
76.56
 10
148.35
 20
72.96
 10
138.75
 20
76.56
 10
130.35
 20
80.16
 10
135.15
 20
83.76
  0
HATCH
  5
66
330
17
100
AcDbEntity
  8
FILL_WHITE_FFFFFF
 62
7
420
16777215
100
AcDbHatch
 10
0.0
 20
0.0
 30
0.0
210
0.0
220
0.0
230
1.0
  2
SOLID
 70
1
 71
0
 91
2
 92
3
 72
0
 73
1
 93
33
 10
186.75
 20
124.56
 10
191.55
 20
128.16
 10
196.35
 20
132.96
 10
198.75
 20
131.76
 10
201.15
 20
130.56
 10
202.35
 20
129.36
 10
201.15
 20
129.36
 10
199.95
 20
129.36
 10
198.75
 20
128.16
 10
214.35
 20
128.16
 10
216.75
 20
128.16
 10
221.55
 20
124.56
 10
213.15
 20
117.36
 10
226.35
 20
117.36
 10
226.35
 20
107.76
 10
232.35
 20
107.76
 10
232.35
 20
102.96
 10
226.35
 20
102.96
 10
226.35
 20
94.56
 10
184.35
 20
94.56
 10
184.35
 20
99.36
 10
219.15
 20
99.36
 10
219.15
 20
102.96
 10
177.15
 20
102.96
 10
177.15
 20
107.76
 10
219.15
 20
107.76
 10
219.15
 20
111.36
 10
184.35
 20
111.36
 10
184.35
 20
116.16
 10
179.55
 20
113.76
 10
175.95
 20
118.56
 10
181.95
 20
120.96
 10
186.75
 20
124.56
 97
0
 92
18
 72
0
 73
1
 93
6
 10
186.75
 20
117.36
 10
205.95
 20
117.36
 10
210.75
 20
123.36
 10
193.95
 20
123.36
 10
190.35
 20
119.76
 10
186.75
 20
117.36
 97
0
 75
1
 76
1
 98
0
  0
LWPOLYLINE
  5
67
330
17
100
AcDbEntity
  8
FILL_WHITE_FFFFFF
370
0
420
16777215
100
AcDbPolyline
 90
32
 70
1
 10
186.75
 20
124.56
 10
191.55
 20
128.16
 10
196.35
 20
132.96
 10
198.75
 20
131.76
 10
201.15
 20
130.56
 10
202.35
 20
129.36
 10
201.15
 20
129.36
 10
199.95
 20
129.36
 10
198.75
 20
128.16
 10
214.35
 20
128.16
 10
216.75
 20
128.16
 10
221.55
 20
124.56
 10
213.15
 20
117.36
 10
226.35
 20
117.36
 10
226.35
 20
107.76
 10
232.35
 20
107.76
 10
232.35
 20
102.96
 10
226.35
 20
102.96
 10
226.35
 20
94.56
 10
184.35
 20
94.56
 10
184.35
 20
99.36
 10
219.15
 20
99.36
 10
219.15
 20
102.96
 10
177.15
 20
102.96
 10
177.15
 20
107.76
 10
219.15
 20
107.76
 10
219.15
 20
111.36
 10
184.35
 20
111.36
 10
184.35
 20
116.16
 10
179.55
 20
113.76
 10
175.95
 20
118.56
 10
181.95
 20
120.96
  0
LWPOLYLINE
  5
68
330
17
100
AcDbEntity
  8
FILL_WHITE_FFFFFF
370
0
420
16777215
100
AcDbPolyline
 90
5
 70
1
 10
186.75
 20
117.36
 10
205.95
 20
117.36
 10
210.75
 20
123.36
 10
193.95
 20
123.36
 10
190.35
 20
119.76
  0
HATCH
  5
69
330
17
100
AcDbEntity
  8
FILL_WHITE_FFFFFF
 62
7
420
16777215
100
AcDbHatch
 10
0.0
 20
0.0
 30
0.0
210
0.0
220
0.0
230
1.0
  2
SOLID
 70
1
 71
0
 91
1
 92
3
 72
0
 73
1
 93
10
 10
178.35
 20
83.76
 10
180.75
 20
92.16
 10
185.55
 20
89.76
 10
186.75
 20
88.56
 10
186.75
 20
87.36
 10
185.55
 20
87.36
 10
183.15
 20
80.16
 10
179.55
 20
74.16
 10
174.75
 20
77.76
 10
178.35
 20
83.76
 97
0
 75
1
 76
1
 98
0
  0
LWPOLYLINE
  5
6A
330
17
100
AcDbEntity
  8
FILL_WHITE_FFFFFF
370
0
420
16777215
100
AcDbPolyline
 90
9
 70
1
 10
178.35
 20
83.76
 10
180.75
 20
92.16
 10
185.55
 20
89.76
 10
186.75
 20
88.56
 10
186.75
 20
87.36
 10
185.55
 20
87.36
 10
183.15
 20
80.16
 10
179.55
 20
74.16
 10
174.75
 20
77.76
  0
HATCH
  5
6B
330
17
100
AcDbEntity
  8
FILL_WHITE_FFFFFF
 62
7
420
16777215
100
AcDbHatch
 10
0.0
 20
0.0
 30
0.0
210
0.0
220
0.0
230
1.0
  2
SOLID
 70
1
 71
0
 91
1
 92
3
 72
0
 73
1
 93
7
 10
205.95
 20
86.16
 10
201.15
 20
89.76
 10
205.95
 20
93.36
 10
209.55
 20
89.76
 10
213.15
 20
84.96
 10
208.35
 20
82.56
 10
205.95
 20
86.16
 97
0
 75
1
 76
1
 98
0
  0
LWPOLYLINE
  5
6C
330
17
100
AcDbEntity
  8
FILL_WHITE_FFFFFF
370
0
420
16777215
100
AcDbPolyline
 90
6
 70
1
 10
205.95
 20
86.16
 10
201.15
 20
89.76
 10
205.95
 20
93.36
 10
209.55
 20
89.76
 10
213.15
 20
84.96
 10
208.35
 20
82.56
  0
HATCH
  5
6D
330
17
100
AcDbEntity
  8
FILL_WHITE_FFFFFF
 62
7
420
16777215
100
AcDbHatch
 10
0.0
 20
0.0
 30
0.0
210
0.0
220
0.0
230
1.0
  2
SOLID
 70
1
 71
0
 91
1
 92
3
 72
0
 73
1
 93
27
 10
195.15
 20
92.16
 10
197.55
 20
90.96
 10
197.55
 20
89.76
 10
196.35
 20
87.36
 10
196.35
 20
82.56
 10
196.35
 20
81.36
 10
196.35
 20
80.16
 10
197.55
 20
80.16
 10
199.95
 20
78.96
 10
211.95
 20
78.96
 10
213.15
 20
80.16
 10
215.55
 20
81.36
 10
216.75
 20
82.56
 10
216.75
 20
84.96
 10
222.75
 20
82.56
 10
221.55
 20
78.96
 10
220.35
 20
76.56
 10
217.95
 20
75.36
 10
215.55
 20
74.16
 10
211.95
 20
74.16
 10
197.55
 20
74.16
 10
193.95
 20
74.16
 10
191.55
 20
76.56
 10
190.35
 20
77.76
 10
190.35
 20
81.36
 10
190.35
 20
92.16
 10
195.15
 20
92.16
 97
0
 75
1
 76
1
 98
0
  0
LWPOLYLINE
  5
6E
330
17
100
AcDbEntity
  8
FILL_WHITE_FFFFFF
370
0
420
16777215
100
AcDbPolyline
 90
26
 70
1
 10
195.15
 20
92.16
 10
197.55
 20
90.96
 10
197.55
 20
89.76
 10
196.35
 20
87.36
 10
196.35
 20
82.56
 10
196.35
 20
81.36
 10
196.35
 20
80.16
 10
197.55
 20
80.16
 10
199.95
 20
78.96
 10
211.95
 20
78.96
 10
213.15
 20
80.16
 10
215.55
 20
81.36
 10
216.75
 20
82.56
 10
216.75
 20
84.96
 10
222.75
 20
82.56
 10
221.55
 20
78.96
 10
220.35
 20
76.56
 10
217.95
 20
75.36
 10
215.55
 20
74.16
 10
211.95
 20
74.16
 10
197.55
 20
74.16
 10
193.95
 20
74.16
 10
191.55
 20
76.56
 10
190.35
 20
77.76
 10
190.35
 20
81.36
 10
190.35
 20
92.16
  0
HATCH
  5
6F
330
17
100
AcDbEntity
  8
FILL_WHITE_FFFFFF
 62
7
420
16777215
100
AcDbHatch
 10
0.0
 20
0.0
 30
0.0
210
0.0
220
0.0
230
1.0
  2
SOLID
 70
1
 71
0
 91
1
 92
3
 72
0
 73
1
 93
7
 10
225.15
 20
82.56
 10
219.15
 20
88.56
 10
223.95
 20
92.16
 10
229.95
 20
86.16
 10
233.55
 20
78.96
 10
228.75
 20
76.56
 10
225.15
 20
82.56
 97
0
 75
1
 76
1
 98
0
  0
LWPOLYLINE
  5
70
330
17
100
AcDbEntity
  8
FILL_WHITE_FFFFFF
370
0
420
16777215
100
AcDbPolyline
 90
6
 70
1
 10
225.15
 20
82.56
 10
219.15
 20
88.56
 10
223.95
 20
92.16
 10
229.95
 20
86.16
 10
233.55
 20
78.96
 10
228.75
 20
76.56
  0
HATCH
  5
71
330
17
100
AcDbEntity
  8
FILL_WHITE_FFFFFF
 62
7
420
16777215
100
AcDbHatch
 10
0.0
 20
0.0
 30
0.0
210
0.0
220
0.0
230
1.0
  2
SOLID
 70
1
 71
0
 91
3
 92
3
 72
0
 73
1
 93
20
 10
275.55
 20
105.36
 10
289.95
 20
105.36
 10
289.95
 20
82.56
 10
283.95
 20
82.56
 10
283.95
 20
86.16
 10
280.35
 20
86.16
 10
280.35
 20
82.56
 10
274.35
 20
82.56
 10
274.35
 20
96.96
 10
270.75
 20
87.36
 10
265.95
 20
90.96
 10
268.35
 20
95.76
 10
269.55
 20
100.56
 10
270.75
 20
106.56
 10
270.75
 20
112.56
 10
270.75
 20
130.56
 10
288.75
 20
130.56
 10
288.75
 20
111.36
 10
276.75
 20
111.36
 10
275.55
 20
105.36
 97
0
 92
18
 72
0
 73
1
 93
5
 10
280.35
 20
100.56
 10
280.35
 20
90.96
 10
283.95
 20
90.96
 10
283.95
 20
100.56
 10
280.35
 20
100.56
 97
0
 92
18
 72
0
 73
1
 93
5
 10
282.75
 20
124.56
 10
276.75
 20
124.56
 10
276.75
 20
116.16
 10
282.75
 20
116.16
 10
282.75
 20
124.56
 97
0
 75
1
 76
1
 98
0
  0
LWPOLYLINE
  5
72
330
17
100
AcDbEntity
  8
FILL_WHITE_FFFFFF
370
0
420
16777215
100
AcDbPolyline
 90
19
 70
1
 10
275.55
 20
105.36
 10
289.95
 20
105.36
 10
289.95
 20
82.56
 10
283.95
 20
82.56
 10
283.95
 20
86.16
 10
280.35
 20
86.16
 10
280.35
 20
82.56
 10
274.35
 20
82.56
 10
274.35
 20
96.96
 10
270.75
 20
87.36
 10
265.95
 20
90.96
 10
268.35
 20
95.76
 10
269.55
 20
100.56
 10
270.75
 20
106.56
 10
270.75
 20
112.56
 10
270.75
 20
130.56
 10
288.75
 20
130.56
 10
288.75
 20
111.36
 10
276.75
 20
111.36
  0
LWPOLYLINE
  5
73
330
17
100
AcDbEntity
  8
FILL_WHITE_FFFFFF
370
0
420
16777215
100
AcDbPolyline
 90
4
 70
1
 10
280.35
 20
100.56
 10
280.35
 20
90.96
 10
283.95
 20
90.96
 10
283.95
 20
100.56
  0
LWPOLYLINE
  5
74
330
17
100
AcDbEntity
  8
FILL_WHITE_FFFFFF
370
0
420
16777215
100
AcDbPolyline
 90
4
 70
1
 10
282.75
 20
124.56
 10
276.75
 20
124.56
 10
276.75
 20
116.16
 10
282.75
 20
116.16
  0
HATCH
  5
75
330
17
100
AcDbEntity
  8
FILL_WHITE_FFFFFF
 62
7
420
16777215
100
AcDbHatch
 10
0.0
 20
0.0
 30
0.0
210
0.0
220
0.0
230
1.0
  2
SOLID
 70
1
 71
0
 91
1
 92
3
 72
0
 73
1
 93
20
 10
265.95
 20
104.16
 10
265.95
 20
87.36
 10
267.15
 20
83.76
 10
270.75
 20
81.36
 10
275.55
 20
78.96
 10
282.75
 20
78.96
 10
313.95
 20
78.96
 10
312.75
 20
72.96
 10
287.55
 20
72.96
 10
277.95
 20
74.16
 10
270.75
 20
75.36
 10
265.95
 20
77.76
 10
262.35
 20
81.36
 10
257.55
 20
74.16
 10
252.75
 20
78.96
 10
259.95
 20
86.16
 10
259.95
 20
99.36
 10
253.95
 20
99.36
 10
253.95
 20
104.16
 10
265.95
 20
104.16
 97
0
 75
1
 76
1
 98
0
  0
LWPOLYLINE
  5
76
330
17
100
AcDbEntity
  8
FILL_WHITE_FFFFFF
370
0
420
16777215
100
AcDbPolyline
 90
19
 70
1
 10
265.95
 20
104.16
 10
265.95
 20
87.36
 10
267.15
 20
83.76
 10
270.75
 20
81.36
 10
275.55
 20
78.96
 10
282.75
 20
78.96
 10
313.95
 20
78.96
 10
312.75
 20
72.96
 10
287.55
 20
72.96
 10
277.95
 20
74.16
 10
270.75
 20
75.36
 10
265.95
 20
77.76
 10
262.35
 20
81.36
 10
257.55
 20
74.16
 10
252.75
 20
78.96
 10
259.95
 20
86.16
 10
259.95
 20
99.36
 10
253.95
 20
99.36
 10
253.95
 20
104.16
  0
HATCH
  5
77
330
17
100
AcDbEntity
  8
FILL_WHITE_FFFFFF
 62
7
420
16777215
100
AcDbHatch
 10
0.0
 20
0.0
 30
0.0
210
0.0
220
0.0
230
1.0
  2
SOLID
 70
1
 71
0
 91
1
 92
3
 72
0
 73
1
 93
7
 10
264.75
 20
129.36
 10
268.35
 20
126.96
 10
263.55
 20
122.16
 10
259.95
 20
125.76
 10
256.35
 20
128.16
 10
259.95
 20
131.76
 10
264.75
 20
129.36
 97
0
 75
1
 76
1
 98
0
  0
LWPOLYLINE
  5
78
330
17
100
AcDbEntity
  8
FILL_WHITE_FFFFFF
370
0
420
16777215
100
AcDbPolyline
 90
6
 70
1
 10
264.75
 20
129.36
 10
268.35
 20
126.96
 10
263.55
 20
122.16
 10
259.95
 20
125.76
 10
256.35
 20
128.16
 10
259.95
 20
131.76
  0
HATCH
  5
79
330
17
100
AcDbEntity
  8
FILL_WHITE_FFFFFF
 62
7
420
16777215
100
AcDbHatch
 10
0.0
 20
0.0
 30
0.0
210
0.0
220
0.0
230
1.0
  2
SOLID
 70
1
 71
0
 91
1
 92
3
 72
0
 73
1
 93
7
 10
262.35
 20
116.16
 10
265.95
 20
112.56
 10
262.35
 20
107.76
 10
258.75
 20
111.36
 10
253.95
 20
114.96
 10
258.75
 20
118.56
 10
262.35
 20
116.16
 97
0
 75
1
 76
1
 98
0
  0
LWPOLYLINE
  5
7A
330
17
100
AcDbEntity
  8
FILL_WHITE_FFFFFF
370
0
420
16777215
100
AcDbPolyline
 90
6
 70
1
 10
262.35
 20
116.16
 10
265.95
 20
112.56
 10
262.35
 20
107.76
 10
258.75
 20
111.36
 10
253.95
 20
114.96
 10
258.75
 20
118.56
  0
HATCH
  5
7B
330
17
100
AcDbEntity
  8
FILL_WHITE_FFFFFF
 62
7
420
16777215
100
AcDbHatch
 10
0.0
 20
0.0
 30
0.0
210
0.0
220
0.0
230
1.0
  2
SOLID
 70
1
 71
0
 91
2
 92
3
 72
0
 73
1
 93
32
 10
305.55
 20
131.76
 10
305.55
 20
130.56
 10
304.35
 20
129.36
 10
304.35
 20
124.56
 10
312.75
 20
124.56
 10
312.75
 20
118.56
 10
310.35
 20
118.56
 10
309.15
 20
110.16
 10
312.75
 20
110.16
 10
312.75
 20
104.16
 10
305.55
 20
104.16
 10
305.55
 20
98.16
 10
312.75
 20
98.16
 10
312.75
 20
92.16
 10
305.55
 20
92.16
 10
305.55
 20
82.56
 10
299.55
 20
82.56
 10
299.55
 20
92.16
 10
292.35
 20
92.16
 10
292.35
 20
98.16
 10
299.55
 20
98.16
 10
299.55
 20
104.16
 10
291.15
 20
104.16
 10
291.15
 20
110.16
 10
294.75
 20
110.16
 10
293.55
 20
118.56
 10
291.15
 20
118.56
 10
291.15
 20
124.56
 10
298.35
 20
124.56
 10
298.35
 20
131.76
 10
304.35
 20
131.76
 10
305.55
 20
131.76
 97
0
 92
18
 72
0
 73
1
 93
5
 10
305.55
 20
118.56
 10
298.35
 20
118.56
 10
300.75
 20
110.16
 10
304.35
 20
110.16
 10
305.55
 20
118.56
 97
0
 75
1
 76
1
 98
0
  0
LWPOLYLINE
  5
7C
330
17
100
AcDbEntity
  8
FILL_WHITE_FFFFFF
370
0
420
16777215
100
AcDbPolyline
 90
31
 70
1
 10
305.55
 20
131.76
 10
305.55
 20
130.56
 10
304.35
 20
129.36
 10
304.35
 20
124.56
 10
312.75
 20
124.56
 10
312.75
 20
118.56
 10
310.35
 20
118.56
 10
309.15
 20
110.16
 10
312.75
 20
110.16
 10
312.75
 20
104.16
 10
305.55
 20
104.16
 10
305.55
 20
98.16
 10
312.75
 20
98.16
 10
312.75
 20
92.16
 10
305.55
 20
92.16
 10
305.55
 20
82.56
 10
299.55
 20
82.56
 10
299.55
 20
92.16
 10
292.35
 20
92.16
 10
292.35
 20
98.16
 10
299.55
 20
98.16
 10
299.55
 20
104.16
 10
291.15
 20
104.16
 10
291.15
 20
110.16
 10
294.75
 20
110.16
 10
293.55
 20
118.56
 10
291.15
 20
118.56
 10
291.15
 20
124.56
 10
298.35
 20
124.56
 10
298.35
 20
131.76
 10
304.35
 20
131.76
  0
LWPOLYLINE
  5
7D
330
17
100
AcDbEntity
  8
FILL_WHITE_FFFFFF
370
0
420
16777215
100
AcDbPolyline
 90
4
 70
1
 10
305.55
 20
118.56
 10
298.35
 20
118.56
 10
300.75
 20
110.16
 10
304.35
 20
110.16
  0
HATCH
  5
7E
330
17
100
AcDbEntity
  8
FILL_WHITE_FFFFFF
 62
7
420
16777215
100
AcDbHatch
 10
0.0
 20
0.0
 30
0.0
210
0.0
220
0.0
230
1.0
  2
SOLID
 70
1
 71
0
 91
5
 92
3
 72
0
 73
1
 93
32
 10
366.75
 20
130.56
 10
365.55
 20
129.36
 10
365.55
 20
126.96
 10
389.55
 20
126.96
 10
389.55
 20
120.96
 10
365.55
 20
120.96
 10
365.55
 20
117.36
 10
383.55
 20
117.36
 10
383.55
 20
92.16
 10
365.55
 20
92.16
 10
365.55
 20
87.36
 10
391.95
 20
87.36
 10
391.95
 20
82.56
 10
365.55
 20
82.56
 10
365.55
 20
72.96
 10
360.75
 20
72.96
 10
360.75
 20
82.56
 10
334.35
 20
82.56
 10
334.35
 20
87.36
 10
360.75
 20
87.36
 10
360.75
 20
92.16
 10
342.75
 20
92.16
 10
342.75
 20
117.36
 10
360.75
 20
117.36
 10
360.75
 20
120.96
 10
336.75
 20
120.96
 10
336.75
 20
126.96
 10
360.75
 20
126.96
 10
360.75
 20
132.96
 10
365.55
 20
131.76
 10
366.75
 20
131.76
 10
366.75
 20
130.56
 97
0
 92
18
 72
0
 73
1
 93
5
 10
360.75
 20
106.56
 10
360.75
 20
111.36
 10
348.75
 20
111.36
 10
348.75
 20
106.56
 10
360.75
 20
106.56
 97
0
 92
18
 72
0
 73
1
 93
5
 10
348.75
 20
96.96
 10
360.75
 20
96.96
 10
360.75
 20
101.76
 10
348.75
 20
101.76
 10
348.75
 20
96.96
 97
0
 92
18
 72
0
 73
1
 93
5
 10
365.55
 20
111.36
 10
365.55
 20
106.56
 10
378.75
 20
106.56
 10
378.75
 20
111.36
 10
365.55
 20
111.36
 97
0
 92
18
 72
0
 73
1
 93
5
 10
378.75
 20
101.76
 10
365.55
 20
101.76
 10
365.55
 20
96.96
 10
378.75
 20
96.96
 10
378.75
 20
101.76
 97
0
 75
1
 76
1
 98
0
  0
LWPOLYLINE
  5
7F
330
17
100
AcDbEntity
  8
FILL_WHITE_FFFFFF
370
0
420
16777215
100
AcDbPolyline
 90
31
 70
1
 10
366.75
 20
130.56
 10
365.55
 20
129.36
 10
365.55
 20
126.96
 10
389.55
 20
126.96
 10
389.55
 20
120.96
 10
365.55
 20
120.96
 10
365.55
 20
117.36
 10
383.55
 20
117.36
 10
383.55
 20
92.16
 10
365.55
 20
92.16
 10
365.55
 20
87.36
 10
391.95
 20
87.36
 10
391.95
 20
82.56
 10
365.55
 20
82.56
 10
365.55
 20
72.96
 10
360.75
 20
72.96
 10
360.75
 20
82.56
 10
334.35
 20
82.56
 10
334.35
 20
87.36
 10
360.75
 20
87.36
 10
360.75
 20
92.16
 10
342.75
 20
92.16
 10
342.75
 20
117.36
 10
360.75
 20
117.36
 10
360.75
 20
120.96
 10
336.75
 20
120.96
 10
336.75
 20
126.96
 10
360.75
 20
126.96
 10
360.75
 20
132.96
 10
365.55
 20
131.76
 10
366.75
 20
131.76
  0
LWPOLYLINE
  5
80
330
17
100
AcDbEntity
  8
FILL_WHITE_FFFFFF
370
0
420
16777215
100
AcDbPolyline
 90
4
 70
1
 10
360.75
 20
106.56
 10
360.75
 20
111.36
 10
348.75
 20
111.36
 10
348.75
 20
106.56
  0
LWPOLYLINE
  5
81
330
17
100
AcDbEntity
  8
FILL_WHITE_FFFFFF
370
0
420
16777215
100
AcDbPolyline
 90
4
 70
1
 10
348.75
 20
96.96
 10
360.75
 20
96.96
 10
360.75
 20
101.76
 10
348.75
 20
101.76
  0
LWPOLYLINE
  5
82
330
17
100
AcDbEntity
  8
FILL_WHITE_FFFFFF
370
0
420
16777215
100
AcDbPolyline
 90
4
 70
1
 10
365.55
 20
111.36
 10
365.55
 20
106.56
 10
378.75
 20
106.56
 10
378.75
 20
111.36
  0
LWPOLYLINE
  5
83
330
17
100
AcDbEntity
  8
FILL_WHITE_FFFFFF
370
0
420
16777215
100
AcDbPolyline
 90
4
 70
1
 10
378.75
 20
101.76
 10
365.55
 20
101.76
 10
365.55
 20
96.96
 10
378.75
 20
96.96
  0
HATCH
  5
84
330
17
100
AcDbEntity
  8
FILL_WHITE_FFFFFF
 62
7
420
16777215
100
AcDbHatch
 10
0.0
 20
0.0
 30
0.0
210
0.0
220
0.0
230
1.0
  2
SOLID
 70
1
 71
0
 91
2
 92
3
 72
0
 73
1
 93
88
 10
442.35
 20
132.96
 10
444.75
 20
132.96
 10
444.75
 20
131.76
 10
443.55
 20
130.56
 10
443.55
 20
129.36
 10
463.95
 20
129.36
 10
463.95
 20
124.56
 10
443.55
 20
124.56
 10
443.55
 20
122.16
 10
468.75
 20
122.16
 10
468.75
 20
111.36
 10
463.95
 20
111.36
 10
463.95
 20
117.36
 10
443.55
 20
117.36
 10
443.55
 20
113.76
 10
459.15
 20
113.76
 10
459.15
 20
110.16
 10
443.55
 20
110.16
 10
443.55
 20
107.76
 10
444.75
 20
106.56
 10
445.95
 20
105.36
 10
457.95
 20
105.36
 10
459.15
 20
105.36
 10
460.35
 20
106.56
 10
461.55
 20
107.76
 10
461.55
 20
108.96
 10
467.55
 20
106.56
 10
466.35
 20
104.16
 10
465.15
 20
102.96
 10
463.95
 20
101.76
 10
461.55
 20
101.76
 10
442.35
 20
101.76
 10
441.15
 20
101.76
 10
438.75
 20
102.96
 10
438.75
 20
104.16
 10
438.75
 20
105.36
 10
438.75
 20
110.16
 10
426.75
 20
110.16
 10
426.75
 20
113.76
 10
438.75
 20
113.76
 10
438.75
 20
117.36
 10
423.15
 20
117.36
 10
423.15
 20
98.16
 10
423.15
 20
89.76
 10
425.55
 20
93.36
 10
427.95
 20
95.76
 10
430.35
 20
100.56
 10
431.55
 20
105.36
 10
436.35
 20
104.16
 10
437.55
 20
102.96
 10
437.55
 20
101.76
 10
436.35
 20
101.76
 10
435.15
 20
98.16
 10
445.95
 20
98.16
 10
444.75
 20
93.36
 10
443.55
 20
88.56
 10
442.35
 20
84.96
 10
439.95
 20
81.36
 10
443.55
 20
80.16
 10
448.35
 20
78.96
 10
453.15
 20
77.76
 10
457.95
 20
77.76
 10
473.55
 20
77.76
 10
471.15
 20
71.76
 10
457.95
 20
71.76
 10
448.35
 20
72.96
 10
441.15
 20
75.36
 10
435.15
 20
77.76
 10
430.35
 20
75.36
 10
425.55
 20
72.96
 10
420.75
 20
77.76
 10
426.75
 20
78.96
 10
431.55
 20
82.56
 10
430.35
 20
84.96
 10
429.15
 20
87.36
 10
426.75
 20
84.96
 10
423.15
 20
87.36
 10
420.75
 20
78.96
 10
417.15
 20
71.76
 10
412.35
 20
75.36
 10
414.75
 20
80.16
 10
415.95
 20
84.96
 10
417.15
 20
89.76
 10
417.15
 20
95.76
 10
417.15
 20
122.16
 10
438.75
 20
122.16
 10
438.75
 20
132.96
 10
442.35
 20
132.96
 97
0
 92
18
 72
0
 73
1
 93
7
 10
432.75
 20
88.56
 10
436.35
 20
84.96
 10
438.75
 20
88.56
 10
439.95
 20
94.56
 10
432.75
 20
94.56
 10
431.55
 20
92.16
 10
432.75
 20
88.56
 97
0
 75
1
 76
1
 98
0
  0
LWPOLYLINE
  5
85
330
17
100
AcDbEntity
  8
FILL_WHITE_FFFFFF
370
0
420
16777215
100
AcDbPolyline
 90
87
 70
1
 10
442.35
 20
132.96
 10
444.75
 20
132.96
 10
444.75
 20
131.76
 10
443.55
 20
130.56
 10
443.55
 20
129.36
 10
463.95
 20
129.36
 10
463.95
 20
124.56
 10
443.55
 20
124.56
 10
443.55
 20
122.16
 10
468.75
 20
122.16
 10
468.75
 20
111.36
 10
463.95
 20
111.36
 10
463.95
 20
117.36
 10
443.55
 20
117.36
 10
443.55
 20
113.76
 10
459.15
 20
113.76
 10
459.15
 20
110.16
 10
443.55
 20
110.16
 10
443.55
 20
107.76
 10
444.75
 20
106.56
 10
445.95
 20
105.36
 10
457.95
 20
105.36
 10
459.15
 20
105.36
 10
460.35
 20
106.56
 10
461.55
 20
107.76
 10
461.55
 20
108.96
 10
467.55
 20
106.56
 10
466.35
 20
104.16
 10
465.15
 20
102.96
 10
463.95
 20
101.76
 10
461.55
 20
101.76
 10
442.35
 20
101.76
 10
441.15
 20
101.76
 10
438.75
 20
102.96
 10
438.75
 20
104.16
 10
438.75
 20
105.36
 10
438.75
 20
110.16
 10
426.75
 20
110.16
 10
426.75
 20
113.76
 10
438.75
 20
113.76
 10
438.75
 20
117.36
 10
423.15
 20
117.36
 10
423.15
 20
98.16
 10
423.15
 20
89.76
 10
425.55
 20
93.36
 10
427.95
 20
95.76
 10
430.35
 20
100.56
 10
431.55
 20
105.36
 10
436.35
 20
104.16
 10
437.55
 20
102.96
 10
437.55
 20
101.76
 10
436.35
 20
101.76
 10
435.15
 20
98.16
 10
445.95
 20
98.16
 10
444.75
 20
93.36
 10
443.55
 20
88.56
 10
442.35
 20
84.96
 10
439.95
 20
81.36
 10
443.55
 20
80.16
 10
448.35
 20
78.96
 10
453.15
 20
77.76
 10
457.95
 20
77.76
 10
473.55
 20
77.76
 10
471.15
 20
71.76
 10
457.95
 20
71.76
 10
448.35
 20
72.96
 10
441.15
 20
75.36
 10
435.15
 20
77.76
 10
430.35
 20
75.36
 10
425.55
 20
72.96
 10
420.75
 20
77.76
 10
426.75
 20
78.96
 10
431.55
 20
82.56
 10
430.35
 20
84.96
 10
429.15
 20
87.36
 10
426.75
 20
84.96
 10
423.15
 20
87.36
 10
420.75
 20
78.96
 10
417.15
 20
71.76
 10
412.35
 20
75.36
 10
414.75
 20
80.16
 10
415.95
 20
84.96
 10
417.15
 20
89.76
 10
417.15
 20
95.76
 10
417.15
 20
122.16
 10
438.75
 20
122.16
 10
438.75
 20
132.96
  0
LWPOLYLINE
  5
86
330
17
100
AcDbEntity
  8
FILL_WHITE_FFFFFF
370
0
420
16777215
100
AcDbPolyline
 90
6
 70
1
 10
432.75
 20
88.56
 10
436.35
 20
84.96
 10
438.75
 20
88.56
 10
439.95
 20
94.56
 10
432.75
 20
94.56
 10
431.55
 20
92.16
  0
HATCH
  5
87
330
17
100
AcDbEntity
  8
FILL_WHITE_FFFFFF
 62
7
420
16777215
100
AcDbHatch
 10
0.0
 20
0.0
 30
0.0
210
0.0
220
0.0
230
1.0
  2
SOLID
 70
1
 71
0
 91
1
 92
3
 72
0
 73
1
 93
30
 10
462.75
 20
98.16
 10
462.75
 20
87.36
 10
462.75
 20
86.16
 10
463.95
 20
84.96
 10
465.15
 20
84.96
 10
466.35
 20
86.16
 10
467.55
 20
88.56
 10
472.35
 20
87.36
 10
472.35
 20
84.96
 10
472.35
 20
82.56
 10
469.95
 20
80.16
 10
467.55
 20
80.16
 10
462.75
 20
80.16
 10
460.35
 20
80.16
 10
459.15
 20
81.36
 10
457.95
 20
83.76
 10
457.95
 20
84.96
 10
457.95
 20
93.36
 10
454.35
 20
93.36
 10
453.15
 20
88.56
 10
451.95
 20
84.96
 10
450.75
 20
81.36
 10
449.55
 20
80.16
 10
444.75
 20
83.76
 10
447.15
 20
84.96
 10
448.35
 20
87.36
 10
448.35
 20
90.96
 10
449.55
 20
95.76
 10
449.55
 20
98.16
 10
462.75
 20
98.16
 97
0
 75
1
 76
1
 98
0
  0
LWPOLYLINE
  5
88
330
17
100
AcDbEntity
  8
FILL_WHITE_FFFFFF
370
0
420
16777215
100
AcDbPolyline
 90
29
 70
1
 10
462.75
 20
98.16
 10
462.75
 20
87.36
 10
462.75
 20
86.16
 10
463.95
 20
84.96
 10
465.15
 20
84.96
 10
466.35
 20
86.16
 10
467.55
 20
88.56
 10
472.35
 20
87.36
 10
472.35
 20
84.96
 10
472.35
 20
82.56
 10
469.95
 20
80.16
 10
467.55
 20
80.16
 10
462.75
 20
80.16
 10
460.35
 20
80.16
 10
459.15
 20
81.36
 10
457.95
 20
83.76
 10
457.95
 20
84.96
 10
457.95
 20
93.36
 10
454.35
 20
93.36
 10
453.15
 20
88.56
 10
451.95
 20
84.96
 10
450.75
 20
81.36
 10
449.55
 20
80.16
 10
444.75
 20
83.76
 10
447.15
 20
84.96
 10
448.35
 20
87.36
 10
448.35
 20
90.96
 10
449.55
 20
95.76
 10
449.55
 20
98.16
  0
LWPOLYLINE
  5
8A
330
17
100
AcDbEntity
  8
STROKE_BLUE_0000FF
370
0
420
255
100
AcDbPolyline
 90
69
 70
0
 10
531.1500000000003
 20
240.95999999999958
 10
35.549999999999955
 20
240.95999999999958
 10
33.329882812499996
 20
240.8492578124996
 10
31.176562500000024
 20
240.5240624999996
 10
29.100585937500046
 20
239.9949609374996
 10
27.112500000000065
 20
239.27249999999958
 10
25.222851562500075
 20
238.36722656249958
 10
23.44218750000008
 20
237.2896874999996
 10
21.781054687500088
 20
236.05042968749962
 10
20.250000000000085
 20
234.6599999999996
 10
18.859570312500082
 20
233.12894531249958
 10
17.62031250000008
 20
231.46781249999958
 10
16.54277343750007
 20
229.68714843749956
 10
15.637500000000063
 20
227.79749999999956
 10
14.915039062500057
 20
225.80941406249954
 10
14.385937500000052
 20
223.73343749999952
 10
14.060742187500047
 20
221.58011718749947
 10
13.950000000000045
 20
219.35999999999945
 10
13.950000000000045
 20
51.35999999999967
 10
14.060742187500047
 20
49.13988281249965
 10
14.385937500000052
 20
46.98656249999959
 10
14.915039062500055
 20
44.910585937499576
 10
15.637500000000063
 20
42.92249999999956
 10
16.54277343750007
 20
41.0328515624995
 10
17.62031250000008
 20
39.252187499999565
 10
18.859570312500082
 20
37.591054687499536
 10
20.250000000000085
 20
36.05999999999952
 10
21.781054687500088
 20
34.66957031249953
 10
23.44218750000008
 20
33.4303124999995
 10
25.222851562500075
 20
32.352773437499536
 10
27.112500000000065
 20
31.447499999999536
 10
29.10058593750005
 20
30.725039062499548
 10
31.176562500000024
 20
30.19593749999956
 10
33.32988281249999
 20
29.87074218749953
 10
35.549999999999955
 20
29.759999999999536
 10
531.1500000000003
 20
29.759999999999536
 10
533.3701171875003
 20
29.87074218749953
 10
535.5234375000003
 20
30.19593749999953
 10
537.5994140625003
 20
30.725039062499548
 10
539.5875000000003
 20
31.447499999999536
 10
541.4771484375003
 20
32.352773437499536
 10
543.2578125000002
 20
33.43031249999953
 10
544.9189453125002
 20
34.6695703124995
 10
546.4500000000003
 20
36.05999999999952
 10
547.8404296875002
 20
37.59105468749951
 10
549.0796875000003
 20
39.252187499999565
 10
550.1572265625002
 20
41.0328515624995
 10
551.0625000000002
 20
42.92249999999956
 10
551.7849609375003
 20
44.910585937499576
 10
552.3140625000002
 20
46.98656249999959
 10
552.6392578125002
 20
49.13988281249962
 10
552.7500000000002
 20
51.35999999999967
 10
552.7500000000002
 20
219.35999999999945
 10
552.6392578125002
 20
221.58011718749947
 10
552.3140625000003
 20
223.73343749999952
 10
551.7849609375002
 20
225.80941406249954
 10
551.0625000000002
 20
227.79749999999956
 10
550.1572265625002
 20
229.68714843749956
 10
549.0796875000002
 20
231.46781249999958
 10
547.8404296875002
 20
233.12894531249958
 10
546.4500000000003
 20
234.6599999999996
 10
544.9189453125002
 20
236.05042968749962
 10
543.2578125000002
 20
237.2896874999996
 10
541.4771484375003
 20
238.36722656249958
 10
539.5875000000003
 20
239.27249999999958
 10
537.5994140625003
 20
239.99496093749957
 10
535.5234375000003
 20
240.5240624999996
 10
533.3701171875003
 20
240.8492578124996
 10
531.1500000000003
 20
240.95999999999958
  0
ENDSEC
  0
SECTION
  2
OBJECTS
  0
DICTIONARY
  5
A
330
0
100
AcDbDictionary
281
1
  3
ACAD_COLOR
350
B
  3
ACAD_GROUP
350
C
  3
ACAD_LAYOUT
350
D
  3
ACAD_MATERIAL
350
E
  3
ACAD_MLEADERSTYLE
350
F
  3
ACAD_MLINESTYLE
350
10
  3
ACAD_PLOTSETTINGS
350
11
  3
ACAD_PLOTSTYLENAME
350
12
  3
ACAD_SCALELIST
350
14
  3
ACAD_TABLESTYLE
350
15
  3
ACAD_VISUALSTYLE
350
16
  3
EZDXF_META
350
2D
  0
DICTIONARY
  5
B
330
A
100
AcDbDictionary
281
1
  0
DICTIONARY
  5
C
330
A
100
AcDbDictionary
281
1
  0
DICTIONARY
  5
D
330
A
100
AcDbDictionary
281
1
  3
Model
350
1A
  3
Layout1
350
1E
  0
DICTIONARY
  5
E
330
A
100
AcDbDictionary
281
1
  3
ByBlock
350
1F
  3
ByLayer
350
20
  3
Global
350
21
  0
DICTIONARY
  5
F
330
A
100
AcDbDictionary
281
1
  3
Standard
350
2C
  0
DICTIONARY
  5
10
330
A
100
AcDbDictionary
281
1
  3
Standard
350
22
  0
DICTIONARY
  5
11
330
A
100
AcDbDictionary
281
1
  0
ACDBDICTIONARYWDFLT
  5
12
330
A
100
AcDbDictionary
281
1
  3
Normal
350
13
100
AcDbDictionaryWithDefault
340
13
  0
ACDBPLACEHOLDER
  5
13
330
12
  0
DICTIONARY
  5
14
330
A
100
AcDbDictionary
281
1
  0
DICTIONARY
  5
15
330
A
100
AcDbDictionary
281
1
  0
DICTIONARY
  5
16
330
A
100
AcDbDictionary
281
1
  0
LAYOUT
  5
1A
330
D
100
AcDbPlotSettings
  1

  4
A3
  6

 40
7.5
 41
20.0
 42
7.5
 43
20.0
 44
420.0
 45
297.0
 46
0.0
 47
0.0
 48
0.0
 49
0.0
140
0.0
141
0.0
142
1.0
143
1.0
 70
1024
 72
1
 73
0
 74
5
  7

 75
16
 76
0
 77
2
 78
300
147
1.0
148
0.0
149
0.0
100
AcDbLayout
  1
Model
 70
1
 71
0
 10
0.0
 20
0.0
 11
420.0
 21
297.0
 12
0.0
 22
0.0
 32
0.0
 14
1e+20
 24
1e+20
 34
1e+20
 15
-1e+20
 25
-1e+20
 35
-1e+20
146
0.0
 13
0.0
 23
0.0
 33
0.0
 16
1.0
 26
0.0
 36
0.0
 17
0.0
 27
1.0
 37
0.0
 76
1
330
17
  0
LAYOUT
  5
1E
330
D
100
AcDbPlotSettings
  1

  4
A3
  6

 40
7.5
 41
20.0
 42
7.5
 43
20.0
 44
420.0
 45
297.0
 46
0.0
 47
0.0
 48
0.0
 49
0.0
140
0.0
141
0.0
142
1.0
143
1.0
 70
0
 72
1
 73
0
 74
5
  7

 75
16
 76
0
 77
2
 78
300
147
1.0
148
0.0
149
0.0
100
AcDbLayout
  1
Layout1
 70
1
 71
1
 10
0.0
 20
0.0
 11
420.0
 21
297.0
 12
0.0
 22
0.0
 32
0.0
 14
1e+20
 24
1e+20
 34
1e+20
 15
-1e+20
 25
-1e+20
 35
-1e+20
146
0.0
 13
0.0
 23
0.0
 33
0.0
 16
1.0
 26
0.0
 36
0.0
 17
0.0
 27
1.0
 37
0.0
 76
1
330
1B
  0
MATERIAL
  5
1F
102
{ACAD_REACTORS
330
E
102
}
330
E
100
AcDbMaterial
  1
ByBlock
  2

 70
0
 40
1.0
 71
1
 41
1.0
 91
-1023410177
 42
1.0
 72
1
  3

 73
1
 74
1
 75
1
 44
0.5
 73
0
 45
1.0
 46
1.0
 77
1
  4

 78
1
 79
1
170
1
 48
1.0
171
1
  6

172
1
173
1
174
1
140
1.0
141
1.0
175
1
  7

176
1
177
1
178
1
143
1.0
179
1
  8

270
1
271
1
272
1
145
1.0
146
1.0
273
1
  9

274
1
275
1
276
1
 42
1.0
 72
1
  3

 73
1
 74
1
 75
1
 94
63
  0
MATERIAL
  5
20
102
{ACAD_REACTORS
330
E
102
}
330
E
100
AcDbMaterial
  1
ByLayer
  2

 70
0
 40
1.0
 71
1
 41
1.0
 91
-1023410177
 42
1.0
 72
1
  3

 73
1
 74
1
 75
1
 44
0.5
 73
0
 45
1.0
 46
1.0
 77
1
  4

 78
1
 79
1
170
1
 48
1.0
171
1
  6

172
1
173
1
174
1
140
1.0
141
1.0
175
1
  7

176
1
177
1
178
1
143
1.0
179
1
  8

270
1
271
1
272
1
145
1.0
146
1.0
273
1
  9

274
1
275
1
276
1
 42
1.0
 72
1
  3

 73
1
 74
1
 75
1
 94
63
  0
MATERIAL
  5
21
102
{ACAD_REACTORS
330
E
102
}
330
E
100
AcDbMaterial
  1
Global
  2

 70
0
 40
1.0
 71
1
 41
1.0
 91
-1023410177
 42
1.0
 72
1
  3

 73
1
 74
1
 75
1
 44
0.5
 73
0
 45
1.0
 46
1.0
 77
1
  4

 78
1
 79
1
170
1
 48
1.0
171
1
  6

172
1
173
1
174
1
140
1.0
141
1.0
175
1
  7

176
1
177
1
178
1
143
1.0
179
1
  8

270
1
271
1
272
1
145
1.0
146
1.0
273
1
  9

274
1
275
1
276
1
 42
1.0
 72
1
  3

 73
1
 74
1
 75
1
 94
63
  0
MLINESTYLE
  5
22
102
{ACAD_REACTORS
330
10
102
}
330
10
100
AcDbMlineStyle
  2
Standard
 70
0
  3

 62
256
 51
90.0
 52
90.0
 71
2
 49
0.5
 62
256
  6
BYLAYER
 49
-0.5
 62
256
  6
BYLAYER
  0
MLEADERSTYLE
  5
2C
102
{ACAD_REACTORS
330
F
102
}
330
F
100
AcDbMLeaderStyle
179
2
170
2
171
1
172
0
 90
2
 40
0.0
 41
0.0
173
1
 91
-1056964608
 92
-2
290
1
 42
2.0
291
1
 43
8.0
  3
Standard
 44
4.0
300

342
29
174
1
175
1
176
0
178
1
 93
-1056964608
 45
4.0
292
0
297
0
 46
4.0
 94
-1056964608
 47
1.0
 49
1.0
140
1.0
294
1
141
0.0
177
0
142
1.0
295
0
296
0
143
3.75
271
0
272
9
273
9
  0
DICTIONARY
  5
2D
330
A
100
AcDbDictionary
280
1
281
1
  3
CREATED_BY_EZDXF
350
2E
  3
WRITTEN_BY_EZDXF
350
8D
  0
DICTIONARYVAR
  5
2E
330
2D
100
DictionaryVariables
280
0
  1
1.4.4 @ 2026-07-10T01:53:53.676774+00:00
  0
DICTIONARYVAR
  5
8D
330
2D
100
DictionaryVariables
280
0
  1
1.4.4 @ 2026-07-10T01:53:53.691391+00:00
  0
ENDSEC
  0
EOF
