  0
SECTION
  2
HEADER
  9
$ACADVER
  1
AC1024
  9
$ACADMAINTVER
 70
6
  9
$DWGCODEPAGE
  3
ANSI_1252
  9
$LASTSAVEDBY
  1
ezdxf
  9
$INSBASE
 10
0.0
 20
0.0
 30
0.0
  9
$EXTMIN
 10
1e+20
 20
1e+20
 30
1e+20
  9
$EXTMAX
 10
-1e+20
 20
-1e+20
 30
-1e+20
  9
$LIMMIN
 10
0.0
 20
0.0
  9
$LIMMAX
 10
420.0
 20
297.0
  9
$ORTHOMODE
 70
0
  9
$REGENMODE
 70
1
  9
$FILLMODE
 70
1
  9
$QTEXTMODE
 70
0
  9
$MIRRTEXT
 70
1
  9
$LTSCALE
 40
1.0
  9
$ATTMODE
 70
1
  9
$TEXTSIZE
 40
2.5
  9
$TRACEWID
 40
1.0
  9
$TEXTSTYLE
  7
Standard
  9
$CLAYER
  8
0
  9
$CELTYPE
  6
ByLayer
  9
$CECOLOR
 62
256
  9
$CELTSCALE
 40
1.0
  9
$DISPSILH
 70
0
  9
$DIMSCALE
 40
1.0
  9
$DIMASZ
 40
2.5
  9
$DIMEXO
 40
0.625
  9
$DIMDLI
 40
3.75
  9
$DIMRND
 40
0.0
  9
$DIMDLE
 40
0.0
  9
$DIMEXE
 40
1.25
  9
$DIMTP
 40
0.0
  9
$DIMTM
 40
0.0
  9
$DIMTXT
 40
2.5
  9
$DIMCEN
 40
2.5
  9
$DIMTSZ
 40
0.0
  9
$DIMTOL
 70
0
  9
$DIMLIM
 70
0
  9
$DIMTIH
 70
0
  9
$DIMTOH
 70
0
  9
$DIMSE1
 70
0
  9
$DIMSE2
 70
0
  9
$DIMTAD
 70
1
  9
$DIMZIN
 70
8
  9
$DIMBLK
  1

  9
$DIMASO
 70
1
  9
$DIMSHO
 70
1
  9
$DIMPOST
  1

  9
$DIMAPOST
  1

  9
$DIMALT
 70
0
  9
$DIMALTD
 70
3
  9
$DIMALTF
 40
0.03937007874
  9
$DIMLFAC
 40
1.0
  9
$DIMTOFL
 70
1
  9
$DIMTVP
 40
0.0
  9
$DIMTIX
 70
0
  9
$DIMSOXD
 70
0
  9
$DIMSAH
 70
0
  9
$DIMBLK1
  1

  9
$DIMBLK2
  1

  9
$DIMSTYLE
  2
ISO-25
  9
$DIMCLRD
 70
0
  9
$DIMCLRE
 70
0
  9
$DIMCLRT
 70
0
  9
$DIMTFAC
 40
1.0
  9
$DIMGAP
 40
0.625
  9
$DIMJUST
 70
0
  9
$DIMSD1
 70
0
  9
$DIMSD2
 70
0
  9
$DIMTOLJ
 70
0
  9
$DIMTZIN
 70
8
  9
$DIMALTZ
 70
0
  9
$DIMALTTZ
 70
0
  9
$DIMUPT
 70
0
  9
$DIMDEC
 70
2
  9
$DIMTDEC
 70
2
  9
$DIMALTU
 70
2
  9
$DIMALTTD
 70
3
  9
$DIMTXSTY
  7
Standard
  9
$DIMAUNIT
 70
0
  9
$DIMADEC
 70
0
  9
$DIMALTRND
 40
0.0
  9
$DIMAZIN
 70
0
  9
$DIMDSEP
 70
44
  9
$DIMATFIT
 70
3
  9
$DIMFRAC
 70
0
  9
$DIMLDRBLK
  1

  9
$DIMLUNIT
 70
2
  9
$DIMLWD
 70
-2
  9
$DIMLWE
 70
-2
  9
$DIMTMOVE
 70
0
  9
$DIMFXL
 40
1.0
  9
$DIMFXLON
 70
0
  9
$DIMJOGANG
 40
0.785398163397
  9
$DIMTFILL
 70
0
  9
$DIMTFILLCLR
 70
0
  9
$DIMARCSYM
 70
0
  9
$DIMLTYPE
  6

  9
$DIMLTEX1
  6

  9
$DIMLTEX2
  6

  9
$DIMTXTDIRECTION
 70
0
  9
$LUNITS
 70
2
  9
$LUPREC
 70
4
  9
$SKETCHINC
 40
1.0
  9
$FILLETRAD
 40
10.0
  9
$AUNITS
 70
0
  9
$AUPREC
 70
2
  9
$MENU
  1
.
  9
$ELEVATION
 40
0.0
  9
$PELEVATION
 40
0.0
  9
$THICKNESS
 40
0.0
  9
$LIMCHECK
 70
0
  9
$CHAMFERA
 40
0.0
  9
$CHAMFERB
 40
0.0
  9
$CHAMFERC
 40
0.0
  9
$CHAMFERD
 40
0.0
  9
$SKPOLY
 70
0
  9
$TDCREATE
 40
2461232.4124189815
  9
$TDUCREATE
 40
2458532.153996898
  9
$TDUPDATE
 40
2461232.4124189815
  9
$TDUUPDATE
 40
2458532.1544311
  9
$TDINDWG
 40
0.0
  9
$TDUSRTIMER
 40
0.0
  9
$USRTIMER
 70
1
  9
$ANGBASE
 50
0.0
  9
$ANGDIR
 70
0
  9
$PDMODE
 70
0
  9
$PDSIZE
 40
0.0
  9
$PLINEWID
 40
0.0
  9
$SPLFRAME
 70
0
  9
$SPLINETYPE
 70
6
  9
$SPLINESEGS
 70
8
  9
$HANDSEED
  5
4A
  9
$SURFTAB1
 70
6
  9
$SURFTAB2
 70
6
  9
$SURFTYPE
 70
6
  9
$SURFU
 70
6
  9
$SURFV
 70
6
  9
$UCSBASE
  2

  9
$UCSNAME
  2

  9
$UCSORG
 10
0.0
 20
0.0
 30
0.0
  9
$UCSXDIR
 10
1.0
 20
0.0
 30
0.0
  9
$UCSYDIR
 10
0.0
 20
1.0
 30
0.0
  9
$UCSORTHOREF
  2

  9
$UCSORTHOVIEW
 70
0
  9
$UCSORGTOP
 10
0.0
 20
0.0
 30
0.0
  9
$UCSORGBOTTOM
 10
0.0
 20
0.0
 30
0.0
  9
$UCSORGLEFT
 10
0.0
 20
0.0
 30
0.0
  9
$UCSORGRIGHT
 10
0.0
 20
0.0
 30
0.0
  9
$UCSORGFRONT
 10
0.0
 20
0.0
 30
0.0
  9
$UCSORGBACK
 10
0.0
 20
0.0
 30
0.0
  9
$PUCSBASE
  2

  9
$PUCSNAME
  2

  9
$PUCSORG
 10
0.0
 20
0.0
 30
0.0
  9
$PUCSXDIR
 10
1.0
 20
0.0
 30
0.0
  9
$PUCSYDIR
 10
0.0
 20
1.0
 30
0.0
  9
$PUCSORTHOREF
  2

  9
$PUCSORTHOVIEW
 70
0
  9
$PUCSORGTOP
 10
0.0
 20
0.0
 30
0.0
  9
$PUCSORGBOTTOM
 10
0.0
 20
0.0
 30
0.0
  9
$PUCSORGLEFT
 10
0.0
 20
0.0
 30
0.0
  9
$PUCSORGRIGHT
 10
0.0
 20
0.0
 30
0.0
  9
$PUCSORGFRONT
 10
0.0
 20
0.0
 30
0.0
  9
$PUCSORGBACK
 10
0.0
 20
0.0
 30
0.0
  9
$USERI1
 70
0
  9
$USERI2
 70
0
  9
$USERI3
 70
0
  9
$USERI4
 70
0
  9
$USERI5
 70
0
  9
$USERR1
 40
0.0
  9
$USERR2
 40
0.0
  9
$USERR3
 40
0.0
  9
$USERR4
 40
0.0
  9
$USERR5
 40
0.0
  9
$WORLDVIEW
 70
1
  9
$SHADEDGE
 70
3
  9
$SHADEDIF
 70
70
  9
$TILEMODE
 70
1
  9
$MAXACTVP
 70
64
  9
$PINSBASE
 10
0.0
 20
0.0
 30
0.0
  9
$PLIMCHECK
 70
0
  9
$PEXTMIN
 10
1e+20
 20
1e+20
 30
1e+20
  9
$PEXTMAX
 10
-1e+20
 20
-1e+20
 30
-1e+20
  9
$PLIMMIN
 10
0.0
 20
0.0
  9
$PLIMMAX
 10
420.0
 20
297.0
  9
$UNITMODE
 70
0
  9
$VISRETAIN
 70
1
  9
$PLINEGEN
 70
0
  9
$PSLTSCALE
 70
1
  9
$TREEDEPTH
 70
3020
  9
$CMLSTYLE
  2
Standard
  9
$CMLJUST
 70
0
  9
$CMLSCALE
 40
20.0
  9
$PROXYGRAPHICS
 70
1
  9
$MEASUREMENT
 70
1
  9
$CELWEIGHT
370
-1
  9
$ENDCAPS
280
0
  9
$JOINSTYLE
280
0
  9
$LWDISPLAY
290
0
  9
$INSUNITS
 70
6
  9
$HYPERLINKBASE
  1

  9
$STYLESHEET
  1

  9
$XEDIT
290
1
  9
$CEPSNTYPE
380
0
  9
$PSTYLEMODE
290
1
  9
$FINGERPRINTGUID
  2
{E47BBD4C-B518-45F4-A38C-962DD078972F}
  9
$VERSIONGUID
  2
{E288289D-A083-4FE3-BB66-5F48C3C93D80}
  9
$EXTNAMES
290
1
  9
$PSVPSCALE
 40
0.0
  9
$OLESTARTUP
290
0
  9
$SORTENTS
280
127
  9
$INDEXCTL
280
0
  9
$HIDETEXT
280
1
  9
$XCLIPFRAME
280
1
  9
$HALOGAP
280
0
  9
$OBSCOLOR
 70
257
  9
$OBSLTYPE
280
0
  9
$INTERSECTIONDISPLAY
280
0
  9
$INTERSECTIONCOLOR
 70
257
  9
$DIMASSOC
280
2
  9
$PROJECTNAME
  1

  9
$CAMERADISPLAY
290
0
  9
$LENSLENGTH
 40
50.0
  9
$CAMERAHEIGHT
 40
0.0
  9
$STEPSPERSEC
 40
24.0
  9
$STEPSIZE
 40
100.0
  9
$3DDWFPREC
 40
2.0
  9
$PSOLWIDTH
 40
0.005
  9
$PSOLHEIGHT
 40
0.08
  9
$LOFTANG1
 40
1.570796326795
  9
$LOFTANG2
 40
1.570796326795
  9
$LOFTMAG1
 40
0.0
  9
$LOFTMAG2
 40
0.0
  9
$LOFTPARAM
 70
7
  9
$LOFTNORMALS
280
1
  9
$LATITUDE
 40
37.795
  9
$LONGITUDE
 40
-122.394
  9
$NORTHDIRECTION
 40
0.0
  9
$TIMEZONE
 70
-8000
  9
$LIGHTGLYPHDISPLAY
280
1
  9
$TILEMODELIGHTSYNCH
280
1
  9
$CMATERIAL
347
20
  9
$SOLIDHIST
280
0
  9
$SHOWHIST
280
1
  9
$DWFFRAME
280
2
  9
$DGNFRAME
280
2
  9
$REALWORLDSCALE
290
1
  9
$INTERFERECOLOR
 62
256
  9
$CSHADOW
280
0
  9
$SHADOWPLANELOCATION
 40
0.0
  0
ENDSEC
  0
SECTION
  2
CLASSES
  0
CLASS
  1
ACDBDICTIONARYWDFLT
  2
AcDbDictionaryWithDefault
  3
ObjectDBX Classes
 90
0
 91
0
280
0
281
0
  0
CLASS
  1
SUN
  2
AcDbSun
  3
SCENEOE
 90
1153
 91
0
280
0
281
0
  0
CLASS
  1
VISUALSTYLE
  2
AcDbVisualStyle
  3
ObjectDBX Classes
 90
4095
 91
0
280
0
281
0
  0
CLASS
  1
MATERIAL
  2
AcDbMaterial
  3
ObjectDBX Classes
 90
1153
 91
0
280
0
281
0
  0
CLASS
  1
SCALE
  2
AcDbScale
  3
ObjectDBX Classes
 90
1153
 91
0
280
0
281
0
  0
CLASS
  1
TABLESTYLE
  2
AcDbTableStyle
  3
ObjectDBX Classes
 90
4095
 91
0
280
0
281
0
  0
CLASS
  1
MLEADERSTYLE
  2
AcDbMLeaderStyle
  3
ACDB_MLEADERSTYLE_CLASS
 90
4095
 91
0
280
0
281
0
  0
CLASS
  1
DICTIONARYVAR
  2
AcDbDictionaryVar
  3
ObjectDBX Classes
 90
0
 91
0
280
0
281
0
  0
CLASS
  1
CELLSTYLEMAP
  2
AcDbCellStyleMap
  3
ObjectDBX Classes
 90
1152
 91
0
280
0
281
0
  0
CLASS
  1
MENTALRAYRENDERSETTINGS
  2
AcDbMentalRayRenderSettings
  3
SCENEOE
 90
1024
 91
0
280
0
281
0
  0
CLASS
  1
ACDBDETAILVIEWSTYLE
  2
AcDbDetailViewStyle
  3
ObjectDBX Classes
 90
1025
 91
0
280
0
281
0
  0
CLASS
  1
ACDBSECTIONVIEWSTYLE
  2
AcDbSectionViewStyle
  3
ObjectDBX Classes
 90
1025
 91
0
280
0
281
0
  0
CLASS
  1
RASTERVARIABLES
  2
AcDbRasterVariables
  3
ISM
 90
0
 91
0
280
0
281
0
  0
CLASS
  1
ACDBPLACEHOLDER
  2
AcDbPlaceHolder
  3
ObjectDBX Classes
 90
0
 91
0
280
0
281
0
  0
CLASS
  1
LAYOUT
  2
AcDbLayout
  3
ObjectDBX Classes
 90
0
 91
0
280
0
281
0
  0
ENDSEC
  0
SECTION
  2
TABLES
  0
TABLE
  2
VPORT
  5
8
330
0
100
AcDbSymbolTable
 70
1
  0
VPORT
  5
23
330
8
100
AcDbSymbolTableRecord
100
AcDbViewportTableRecord
  2
*Active
 70
0
 10
0.0
 20
0.0
 11
1.0
 21
1.0
 12
0.0
 22
0.0
 13
0.0
 23
0.0
 14
0.5
 24
0.5
 15
0.5
 25
0.5
 16
0.0
 26
0.0
 36
1.0
 17
0.0
 27
0.0
 37
0.0
 40
1000.0
 41
1.34
 42
50.0
 43
0.0
 44
0.0
 50
0.0
 51
0.0
 71
0
 72
1000
 73
1
 74
3
 75
0
 76
0
 77
0
 78
0
281
0
 65
0
146
0.0
  0
ENDTAB
  0
TABLE
  2
LTYPE
  5
2
330
0
100
AcDbSymbolTable
 70
3
  0
LTYPE
  5
24
330
2
100
AcDbSymbolTableRecord
100
AcDbLinetypeTableRecord
  2
ByBlock
 70
0
  3

 72
65
 73
0
 40
0.0
  0
LTYPE
  5
25
330
2
100
AcDbSymbolTableRecord
100
AcDbLinetypeTableRecord
  2
ByLayer
 70
0
  3

 72
65
 73
0
 40
0.0
  0
LTYPE
  5
26
330
2
100
AcDbSymbolTableRecord
100
AcDbLinetypeTableRecord
  2
Continuous
 70
0
  3

 72
65
 73
0
 40
0.0
  0
ENDTAB
  0
TABLE
  2
LAYER
  5
1
330
0
100
AcDbSymbolTable
 70
6
  0
LAYER
  5
27
330
1
100
AcDbSymbolTableRecord
100
AcDbLayerTableRecord
  2
0
 70
0
 62
7
  6
Continuous
370
-3
390
13
347
21
  0
LAYER
  5
28
330
1
100
AcDbSymbolTableRecord
100
AcDbLayerTableRecord
  2
Defpoints
 70
0
 62
7
  6
Continuous
290
0
370
-3
390
13
347
21
  0
LAYER
  5
2F
330
1
100
AcDbSymbolTableRecord
100
AcDbLayerTableRecord
  2
FILL_WHITE_FFFFFF
 70
0
 62
7
420
16777215
  6
Continuous
370
-3
390
13
347
21
  0
LAYER
  5
32
330
1
100
AcDbSymbolTableRecord
100
AcDbLayerTableRecord
  2
FILL_BLUE_0000FF
 70
0
 62
7
420
255
  6
Continuous
370
-3
390
13
347
21
  0
LAYER
  5
39
330
1
100
AcDbSymbolTableRecord
100
AcDbLayerTableRecord
  2
FILL_RED_FF0000
 70
0
 62
7
420
16711680
  6
Continuous
370
-3
390
13
347
21
  0
LAYER
  5
45
330
1
100
AcDbSymbolTableRecord
100
AcDbLayerTableRecord
  2
STROKE_BLUE_0000FF
 70
0
 62
7
420
255
  6
Continuous
370
-3
390
13
347
21
  0
ENDTAB
  0
TABLE
  2
STYLE
  5
5
330
0
100
AcDbSymbolTable
 70
1
  0
STYLE
  5
29
330
5
100
AcDbSymbolTableRecord
100
AcDbTextStyleTableRecord
  2
Standard
 70
0
 40
0.0
 41
1.0
 50
0.0
 71
0
 42
2.5
  3
txt
  4

  0
ENDTAB
  0
TABLE
  2
VIEW
  5
7
330
0
100
AcDbSymbolTable
 70
0
  0
ENDTAB
  0
TABLE
  2
UCS
  5
6
330
0
100
AcDbSymbolTable
 70
0
  0
ENDTAB
  0
TABLE
  2
APPID
  5
3
330
0
100
AcDbSymbolTable
 70
3
  0
APPID
  5
2A
330
3
100
AcDbSymbolTableRecord
100
AcDbRegAppTableRecord
  2
ACAD
 70
0
  0
APPID
  5
47
330
3
100
AcDbSymbolTableRecord
100
AcDbRegAppTableRecord
  2
HATCHBACKGROUNDCOLOR
 70
0
  0
APPID
  5
48
330
3
100
AcDbSymbolTableRecord
100
AcDbRegAppTableRecord
  2
EZDXF
 70
0
  0
ENDTAB
  0
TABLE
  2
DIMSTYLE
  5
4
330
0
100
AcDbSymbolTable
 70
1
100
AcDbDimStyleTable
  0
DIMSTYLE
105
2B
330
4
100
AcDbSymbolTableRecord
100
AcDbDimStyleTableRecord
  2
Standard
 70
0
 40
1.0
 41
2.5
 42
0.625
 43
3.75
 44
1.25
 45
0.0
 46
0.0
 47
0.0
 48
0.0
 49
2.5
140
2.5
141
2.5
142
0.0
143
0.03937007874
144
1.0
145
0.0
146
1.0
147
0.625
148
0.0
 69
0
 70
0
 71
0
 72
0
 73
0
 74
0
 75
0
 76
0
 77
1
 78
8
 79
3
170
0
171
3
172
1
173
0
174
0
175
0
176
0
177
0
178
0
179
2
271
2
272
2
273
2
274
3
275
0
276
0
277
2
278
44
279
0
280
0
281
0
282
0
283
0
284
8
285
0
286
0
288
0
289
3
290
0
371
-2
372
-2
  0
ENDTAB
  0
TABLE
  2
BLOCK_RECORD
  5
9
330
0
100
AcDbSymbolTable
 70
2
  0
BLOCK_RECORD
  5
17
330
9
100
AcDbSymbolTableRecord
100
AcDbBlockTableRecord
  2
*Model_Space
340
1A
 70
0
280
1
281
0
  0
BLOCK_RECORD
  5
1B
330
9
100
AcDbSymbolTableRecord
100
AcDbBlockTableRecord
  2
*Paper_Space
340
1E
 70
0
280
1
281
0
  0
ENDTAB
  0
ENDSEC
  0
SECTION
  2
BLOCKS
  0
BLOCK
  5
18
330
17
100
AcDbEntity
  8
0
100
AcDbBlockBegin
  2
*Model_Space
 70
0
 10
0.0
 20
0.0
 30
0.0
  3
*Model_Space
  1

  0
ENDBLK
  5
19
330
17
100
AcDbEntity
  8
0
100
AcDbBlockEnd
  0
BLOCK
  5
1C
330
1B
100
AcDbEntity
  8
0
100
AcDbBlockBegin
  2
*Paper_Space
 70
0
 10
0.0
 20
0.0
 30
0.0
  3
*Paper_Space
  1

  0
ENDBLK
  5
1D
330
1B
100
AcDbEntity
  8
0
100
AcDbBlockEnd
  0
ENDSEC
  0
SECTION
  2
ENTITIES
  0
HATCH
  5
30
330
17
100
AcDbEntity
  8
FILL_WHITE_FFFFFF
 62
7
420
16777215
100
AcDbHatch
 10
0.0
 20
0.0
 30
0.0
210
0.0
220
0.0
230
1.0
  2
SOLID
 70
1
 71
0
 91
1
 92
3
 72
0
 73
1
 93
76
 10
525.15
 20
263.76
 10
527.85
 20
263.65
 10
530.53
 20
263.29
 10
533.19
 20
262.68
 10
535.8
 20
261.81
 10
538.36
 20
260.65
 10
540.84
 20
259.2
 10
543.25
 20
257.44
 10
545.55
 20
255.36
 10
547.69
 20
253.0
 10
549.58
 20
250.47
 10
551.22
 20
247.79
 10
552.6
 20
245.01
 10
553.69
 20
242.18
 10
554.49
 20
239.33
 10
554.98
 20
236.51
 10
555.15
 20
233.76
 10
555.15
 20
38.16
 10
554.94
 20
35.46
 10
554.4
 20
32.76
 10
553.63
 20
30.06
 10
552.75
 20
27.36
 10
552.24
 20
25.67
 10
551.63
 20
24.15
 10
550.89
 20
22.78
 10
550.05
 20
21.51
 10
548.03
 20
19.09
 10
545.55
 20
16.56
 10
543.54
 20
14.78
 10
541.2
 20
13.11
 10
538.63
 20
11.67
 10
535.95
 20
10.56
 10
534.6
 20
9.77
 10
533.25
 20
9.17
 10
531.9
 20
8.75
 10
530.55
 20
8.46
 10
527.85
 20
8.2
 10
525.15
 20
8.16
 10
43.95
 20
8.16
 10
41.2
 20
8.27
 10
38.38
 20
8.63
 10
35.53
 20
9.24
 10
32.7
 20
10.11
 10
29.92
 20
11.27
 10
27.24
 20
12.72
 10
24.71
 20
14.48
 10
22.35
 20
16.56
 10
18.9
 20
21.51
 10
18.14
 20
22.78
 10
17.46
 20
24.15
 10
16.85
 20
25.67
 10
16.35
 20
27.36
 10
15.56
 20
28.71
 10
14.96
 20
30.06
 10
14.54
 20
31.41
 10
14.25
 20
32.76
 10
13.99
 20
35.46
 10
13.95
 20
38.16
 10
13.95
 20
233.76
 10
14.1
 20
236.87
 10
14.55
 20
239.87
 10
15.28
 20
242.77
 10
16.28
 20
245.53
 10
17.52
 20
248.16
 10
19.01
 20
250.63
 10
20.73
 20
252.94
 10
22.65
 20
255.06
 10
24.77
 20
256.98
 10
27.08
 20
258.7
 10
29.55
 20
260.19
 10
32.18
 20
261.43
 10
34.94
 20
262.43
 10
37.84
 20
263.16
 10
40.84
 20
263.61
 10
43.95
 20
263.76
 10
525.15
 20
263.76
 97
0
 75
1
 76
1
 98
0
  0
LWPOLYLINE
  5
31
330
17
100
AcDbEntity
  8
FILL_WHITE_FFFFFF
370
0
420
16777215
100
AcDbPolyline
 90
75
 70
1
 10
525.15
 20
263.76
 10
527.85
 20
263.65
 10
530.53
 20
263.29
 10
533.19
 20
262.68
 10
535.8
 20
261.81
 10
538.36
 20
260.65
 10
540.84
 20
259.2
 10
543.25
 20
257.44
 10
545.55
 20
255.36
 10
547.69
 20
253.0
 10
549.58
 20
250.47
 10
551.22
 20
247.79
 10
552.6
 20
245.01
 10
553.69
 20
242.18
 10
554.49
 20
239.33
 10
554.98
 20
236.51
 10
555.15
 20
233.76
 10
555.15
 20
38.16
 10
554.94
 20
35.46
 10
554.4
 20
32.76
 10
553.63
 20
30.06
 10
552.75
 20
27.36
 10
552.24
 20
25.67
 10
551.63
 20
24.15
 10
550.89
 20
22.78
 10
550.05
 20
21.51
 10
548.03
 20
19.09
 10
545.55
 20
16.56
 10
543.54
 20
14.78
 10
541.2
 20
13.11
 10
538.63
 20
11.67
 10
535.95
 20
10.56
 10
534.6
 20
9.77
 10
533.25
 20
9.17
 10
531.9
 20
8.75
 10
530.55
 20
8.46
 10
527.85
 20
8.2
 10
525.15
 20
8.16
 10
43.95
 20
8.16
 10
41.2
 20
8.27
 10
38.38
 20
8.63
 10
35.53
 20
9.24
 10
32.7
 20
10.11
 10
29.92
 20
11.27
 10
27.24
 20
12.72
 10
24.71
 20
14.48
 10
22.35
 20
16.56
 10
18.9
 20
21.51
 10
18.14
 20
22.78
 10
17.46
 20
24.15
 10
16.85
 20
25.67
 10
16.35
 20
27.36
 10
15.56
 20
28.71
 10
14.96
 20
30.06
 10
14.54
 20
31.41
 10
14.25
 20
32.76
 10
13.99
 20
35.46
 10
13.95
 20
38.16
 10
13.95
 20
233.76
 10
14.1
 20
236.87
 10
14.55
 20
239.87
 10
15.28
 20
242.77
 10
16.28
 20
245.53
 10
17.52
 20
248.16
 10
19.01
 20
250.63
 10
20.73
 20
252.94
 10
22.65
 20
255.06
 10
24.77
 20
256.98
 10
27.08
 20
258.7
 10
29.55
 20
260.19
 10
32.18
 20
261.43
 10
34.94
 20
262.43
 10
37.84
 20
263.16
 10
40.84
 20
263.61
 10
43.95
 20
263.76
  0
HATCH
  5
33
330
17
100
AcDbEntity
  8
FILL_BLUE_0000FF
 62
7
420
255
100
AcDbHatch
 10
0.0
 20
0.0
 30
0.0
210
0.0
220
0.0
230
1.0
  2
SOLID
 70
1
 71
0
 91
1
 92
3
 72
0
 73
1
 93
65
 10
525.15
 20
248.16
 10
529.95
 20
248.16
 10
531.56
 20
247.26
 10
532.95
 20
246.36
 10
534.34
 20
245.46
 10
535.95
 20
244.56
 10
536.83
 20
243.47
 10
537.6
 20
242.16
 10
538.14
 20
240.85
 10
538.35
 20
239.76
 10
539.04
 20
237.98
 10
539.4
 20
236.31
 10
539.55
 20
233.76
 10
539.55
 20
38.16
 10
539.49
 20
36.76
 10
539.32
 20
35.29
 10
539.04
 20
33.79
 10
538.65
 20
32.31
 10
538.14
 20
30.88
 10
537.53
 20
29.55
 10
536.79
 20
28.37
 10
535.95
 20
27.36
 10
534.34
 20
26.46
 10
532.95
 20
25.56
 10
531.56
 20
24.66
 10
529.95
 20
23.76
 10
529.45
 20
23.36
 10
528.86
 20
23.07
 10
527.55
 20
22.71
 10
525.15
 20
22.56
 10
43.95
 20
22.56
 10
42.55
 20
22.62
 10
41.08
 20
22.8
 10
39.58
 20
23.13
 10
38.1
 20
23.61
 10
36.67
 20
24.26
 10
35.34
 20
25.09
 10
34.16
 20
26.12
 10
33.15
 20
27.36
 10
32.25
 20
28.45
 10
31.35
 20
29.76
 10
30.45
 20
31.07
 10
29.55
 20
32.16
 10
28.86
 20
33.77
 10
28.5
 20
35.16
 10
28.37
 20
36.55
 10
28.35
 20
38.16
 10
28.35
 20
233.76
 10
28.41
 20
235.11
 10
28.59
 20
236.46
 10
28.92
 20
237.81
 10
29.4
 20
239.16
 10
30.05
 20
240.51
 10
30.88
 20
241.86
 10
31.91
 20
243.21
 10
33.15
 20
244.56
 10
34.16
 20
245.4
 10
35.34
 20
246.13
 10
36.67
 20
246.75
 10
38.1
 20
247.26
 10
39.58
 20
247.65
 10
41.08
 20
247.93
 10
42.55
 20
248.1
 10
43.95
 20
248.16
 10
525.15
 20
248.16
 97
0
 75
1
 76
1
 98
0
  0
LWPOLYLINE
  5
34
330
17
100
AcDbEntity
  8
FILL_BLUE_0000FF
370
0
420
255
100
AcDbPolyline
 90
64
 70
1
 10
525.15
 20
248.16
 10
529.95
 20
248.16
 10
531.56
 20
247.26
 10
532.95
 20
246.36
 10
534.34
 20
245.46
 10
535.95
 20
244.56
 10
536.83
 20
243.47
 10
537.6
 20
242.16
 10
538.14
 20
240.85
 10
538.35
 20
239.76
 10
539.04
 20
237.98
 10
539.4
 20
236.31
 10
539.55
 20
233.76
 10
539.55
 20
38.16
 10
539.49
 20
36.76
 10
539.32
 20
35.29
 10
539.04
 20
33.79
 10
538.65
 20
32.31
 10
538.14
 20
30.88
 10
537.53
 20
29.55
 10
536.79
 20
28.37
 10
535.95
 20
27.36
 10
534.34
 20
26.46
 10
532.95
 20
25.56
 10
531.56
 20
24.66
 10
529.95
 20
23.76
 10
529.45
 20
23.36
 10
528.86
 20
23.07
 10
527.55
 20
22.71
 10
525.15
 20
22.56
 10
43.95
 20
22.56
 10
42.55
 20
22.62
 10
41.08
 20
22.8
 10
39.58
 20
23.13
 10
38.1
 20
23.61
 10
36.67
 20
24.26
 10
35.34
 20
25.09
 10
34.16
 20
26.12
 10
33.15
 20
27.36
 10
32.25
 20
28.45
 10
31.35
 20
29.76
 10
30.45
 20
31.07
 10
29.55
 20
32.16
 10
28.86
 20
33.77
 10
28.5
 20
35.16
 10
28.37
 20
36.55
 10
28.35
 20
38.16
 10
28.35
 20
233.76
 10
28.41
 20
235.11
 10
28.59
 20
236.46
 10
28.92
 20
237.81
 10
29.4
 20
239.16
 10
30.05
 20
240.51
 10
30.88
 20
241.86
 10
31.91
 20
243.21
 10
33.15
 20
244.56
 10
34.16
 20
245.4
 10
35.34
 20
246.13
 10
36.67
 20
246.75
 10
38.1
 20
247.26
 10
39.58
 20
247.65
 10
41.08
 20
247.93
 10
42.55
 20
248.1
 10
43.95
 20
248.16
  0
HATCH
  5
35
330
17
100
AcDbEntity
  8
FILL_WHITE_FFFFFF
 62
7
420
16777215
100
AcDbHatch
 10
0.0
 20
0.0
 30
0.0
210
0.0
220
0.0
230
1.0
  2
SOLID
 70
1
 71
0
 91
1
 92
3
 72
0
 73
1
 93
5
 10
515.55
 20
45.36
 10
151.95
 20
45.36
 10
151.95
 20
226.56
 10
515.55
 20
226.56
 10
515.55
 20
45.36
 97
0
 75
1
 76
1
 98
0
  0
LWPOLYLINE
  5
36
330
17
100
AcDbEntity
  8
FILL_WHITE_FFFFFF
370
0
420
255
100
AcDbPolyline
 90
4
 70
1
 10
515.55
 20
45.36
 10
151.95
 20
45.36
 10
151.95
 20
226.56
 10
515.55
 20
226.56
  0
HATCH
  5
37
330
17
100
AcDbEntity
  8
FILL_BLUE_0000FF
 62
7
420
255
100
AcDbHatch
 10
0.0
 20
0.0
 30
0.0
210
0.0
220
0.0
230
1.0
  2
SOLID
 70
1
 71
0
 91
1
 92
3
 72
0
 73
1
 93
5
 10
161.55
 20
216.96
 10
318.75
 20
216.96
 10
318.75
 20
54.96
 10
161.55
 20
54.96
 10
161.55
 20
216.96
 97
0
 75
1
 76
1
 98
0
  0
LWPOLYLINE
  5
38
330
17
100
AcDbEntity
  8
FILL_BLUE_0000FF
370
0
420
255
100
AcDbPolyline
 90
4
 70
1
 10
161.55
 20
216.96
 10
318.75
 20
216.96
 10
318.75
 20
54.96
 10
161.55
 20
54.96
  0
HATCH
  5
3A
330
17
100
AcDbEntity
  8
FILL_RED_FF0000
 62
7
420
16711680
100
AcDbHatch
 10
0.0
 20
0.0
 30
0.0
210
0.0
220
0.0
230
1.0
  2
SOLID
 70
1
 71
0
 91
1
 92
3
 72
0
 73
1
 93
129
 10
417.91
 20
68.24
 10
413.91
 20
68.49
 10
409.95
 20
68.9
 10
406.03
 20
69.47
 10
402.16
 20
70.2
 10
398.35
 20
71.07
 10
394.59
 20
72.09
 10
390.9
 20
73.26
 10
387.28
 20
74.57
 10
383.74
 20
76.01
 10
380.27
 20
77.59
 10
376.89
 20
79.3
 10
373.61
 20
81.13
 10
370.42
 20
83.09
 10
367.33
 20
85.17
 10
364.35
 20
87.36
 10
361.51
 20
89.88
 10
358.84
 20
92.47
 10
356.34
 20
95.15
 10
354.02
 20
97.9
 10
351.87
 20
100.72
 10
349.9
 20
103.6
 10
348.11
 20
106.55
 10
346.5
 20
109.56
 10
345.07
 20
112.63
 10
343.83
 20
115.74
 10
342.77
 20
118.91
 10
341.91
 20
122.12
 10
341.23
 20
125.38
 10
340.74
 20
128.67
 10
340.45
 20
132.0
 10
340.35
 20
135.36
 10
340.45
 20
138.73
 10
340.74
 20
142.1
 10
341.23
 20
145.45
 10
341.91
 20
148.77
 10
342.77
 20
152.05
 10
343.83
 20
155.29
 10
345.07
 20
158.48
 10
346.5
 20
161.61
 10
348.11
 20
164.67
 10
349.9
 20
167.65
 10
351.87
 20
170.54
 10
354.02
 20
173.33
 10
356.34
 20
176.02
 10
358.84
 20
178.59
 10
361.51
 20
181.04
 10
364.35
 20
183.36
 10
367.33
 20
185.76
 10
370.42
 20
188.03
 10
373.61
 20
190.14
 10
376.89
 20
192.12
 10
380.27
 20
193.94
 10
383.74
 20
195.62
 10
387.28
 20
197.14
 10
390.9
 20
198.51
 10
394.59
 20
199.73
 10
398.35
 20
200.79
 10
402.16
 20
201.69
 10
406.03
 20
202.43
 10
409.95
 20
203.01
 10
413.91
 20
203.42
 10
417.91
 20
203.68
 10
421.95
 20
203.76
 10
425.99
 20
203.68
 10
429.99
 20
203.42
 10
433.95
 20
203.01
 10
437.87
 20
202.43
 10
441.74
 20
201.69
 10
445.55
 20
200.79
 10
449.31
 20
199.73
 10
453.0
 20
198.51
 10
456.62
 20
197.14
 10
460.16
 20
195.62
 10
463.63
 20
193.94
 10
467.01
 20
192.12
 10
470.29
 20
190.14
 10
473.48
 20
188.03
 10
476.57
 20
185.76
 10
479.55
 20
183.36
 10
482.39
 20
181.04
 10
485.06
 20
178.59
 10
487.56
 20
176.02
 10
489.88
 20
173.33
 10
492.03
 20
170.54
 10
494.0
 20
167.65
 10
495.79
 20
164.67
 10
497.4
 20
161.61
 10
498.83
 20
158.48
 10
500.07
 20
155.29
 10
501.13
 20
152.05
 10
501.99
 20
148.77
 10
502.67
 20
145.45
 10
503.16
 20
142.1
 10
503.45
 20
138.73
 10
503.55
 20
135.36
 10
503.45
 20
132.0
 10
503.16
 20
128.67
 10
502.67
 20
125.38
 10
501.99
 20
122.12
 10
501.13
 20
118.91
 10
500.07
 20
115.74
 10
498.83
 20
112.63
 10
497.4
 20
109.56
 10
495.79
 20
106.55
 10
494.0
 20
103.6
 10
492.03
 20
100.72
 10
489.88
 20
97.9
 10
487.56
 20
95.15
 10
485.06
 20
92.47
 10
482.39
 20
89.88
 10
479.55
 20
87.36
 10
476.57
 20
85.17
 10
473.48
 20
83.09
 10
470.29
 20
81.13
 10
467.01
 20
79.3
 10
463.63
 20
77.59
 10
460.16
 20
76.01
 10
456.62
 20
74.57
 10
453.0
 20
73.26
 10
449.31
 20
72.09
 10
445.55
 20
71.07
 10
441.74
 20
70.2
 10
437.87
 20
69.47
 10
433.95
 20
68.9
 10
429.99
 20
68.49
 10
425.99
 20
68.24
 10
421.95
 20
68.16
 10
417.91
 20
68.24
 97
0
 75
1
 76
1
 98
0
  0
LWPOLYLINE
  5
3B
330
17
100
AcDbEntity
  8
FILL_RED_FF0000
370
0
420
16711680
100
AcDbPolyline
 90
128
 70
1
 10
417.91
 20
68.24
 10
413.91
 20
68.49
 10
409.95
 20
68.9
 10
406.03
 20
69.47
 10
402.16
 20
70.2
 10
398.35
 20
71.07
 10
394.59
 20
72.09
 10
390.9
 20
73.26
 10
387.28
 20
74.57
 10
383.74
 20
76.01
 10
380.27
 20
77.59
 10
376.89
 20
79.3
 10
373.61
 20
81.13
 10
370.42
 20
83.09
 10
367.33
 20
85.17
 10
364.35
 20
87.36
 10
361.51
 20
89.88
 10
358.84
 20
92.47
 10
356.34
 20
95.15
 10
354.02
 20
97.9
 10
351.87
 20
100.72
 10
349.9
 20
103.6
 10
348.11
 20
106.55
 10
346.5
 20
109.56
 10
345.07
 20
112.63
 10
343.83
 20
115.74
 10
342.77
 20
118.91
 10
341.91
 20
122.12
 10
341.23
 20
125.38
 10
340.74
 20
128.67
 10
340.45
 20
132.0
 10
340.35
 20
135.36
 10
340.45
 20
138.73
 10
340.74
 20
142.1
 10
341.23
 20
145.45
 10
341.91
 20
148.77
 10
342.77
 20
152.05
 10
343.83
 20
155.29
 10
345.07
 20
158.48
 10
346.5
 20
161.61
 10
348.11
 20
164.67
 10
349.9
 20
167.65
 10
351.87
 20
170.54
 10
354.02
 20
173.33
 10
356.34
 20
176.02
 10
358.84
 20
178.59
 10
361.51
 20
181.04
 10
364.35
 20
183.36
 10
367.33
 20
185.76
 10
370.42
 20
188.03
 10
373.61
 20
190.14
 10
376.89
 20
192.12
 10
380.27
 20
193.94
 10
383.74
 20
195.62
 10
387.28
 20
197.14
 10
390.9
 20
198.51
 10
394.59
 20
199.73
 10
398.35
 20
200.79
 10
402.16
 20
201.69
 10
406.03
 20
202.43
 10
409.95
 20
203.01
 10
413.91
 20
203.42
 10
417.91
 20
203.68
 10
421.95
 20
203.76
 10
425.99
 20
203.68
 10
429.99
 20
203.42
 10
433.95
 20
203.01
 10
437.87
 20
202.43
 10
441.74
 20
201.69
 10
445.55
 20
200.79
 10
449.31
 20
199.73
 10
453.0
 20
198.51
 10
456.62
 20
197.14
 10
460.16
 20
195.62
 10
463.63
 20
193.94
 10
467.01
 20
192.12
 10
470.29
 20
190.14
 10
473.48
 20
188.03
 10
476.57
 20
185.76
 10
479.55
 20
183.36
 10
482.39
 20
181.04
 10
485.06
 20
178.59
 10
487.56
 20
176.02
 10
489.88
 20
173.33
 10
492.03
 20
170.54
 10
494.0
 20
167.65
 10
495.79
 20
164.67
 10
497.4
 20
161.61
 10
498.83
 20
158.48
 10
500.07
 20
155.29
 10
501.13
 20
152.05
 10
501.99
 20
148.77
 10
502.67
 20
145.45
 10
503.16
 20
142.1
 10
503.45
 20
138.73
 10
503.55
 20
135.36
 10
503.45
 20
132.0
 10
503.16
 20
128.67
 10
502.67
 20
125.38
 10
501.99
 20
122.12
 10
501.13
 20
118.91
 10
500.07
 20
115.74
 10
498.83
 20
112.63
 10
497.4
 20
109.56
 10
495.79
 20
106.55
 10
494.0
 20
103.6
 10
492.03
 20
100.72
 10
489.88
 20
97.9
 10
487.56
 20
95.15
 10
485.06
 20
92.47
 10
482.39
 20
89.88
 10
479.55
 20
87.36
 10
476.57
 20
85.17
 10
473.48
 20
83.09
 10
470.29
 20
81.13
 10
467.01
 20
79.3
 10
463.63
 20
77.59
 10
460.16
 20
76.01
 10
456.62
 20
74.57
 10
453.0
 20
73.26
 10
449.31
 20
72.09
 10
445.55
 20
71.07
 10
441.74
 20
70.2
 10
437.87
 20
69.47
 10
433.95
 20
68.9
 10
429.99
 20
68.49
 10
425.99
 20
68.24
 10
421.95
 20
68.16
  0
HATCH
  5
3C
330
17
100
AcDbEntity
  8
FILL_WHITE_FFFFFF
 62
7
420
16777215
100
AcDbHatch
 10
0.0
 20
0.0
 30
0.0
210
0.0
220
0.0
230
1.0
  2
SOLID
 70
1
 71
0
 91
1
 92
3
 72
0
 73
1
 93
7
 10
289.95
 20
159.36
 10
289.55
 20
159.41
 10
289.26
 20
159.55
 10
288.9
 20
159.96
 10
288.75
 20
160.56
 10
289.95
 20
160.56
 10
289.95
 20
159.36
 97
0
 75
1
 76
1
 98
0
  0
LWPOLYLINE
  5
3D
330
17
100
AcDbEntity
  8
FILL_WHITE_FFFFFF
370
0
420
16777215
100
AcDbPolyline
 90
6
 70
1
 10
289.95
 20
159.36
 10
289.55
 20
159.41
 10
289.26
 20
159.55
 10
288.9
 20
159.96
 10
288.75
 20
160.56
 10
289.95
 20
160.56
  0
HATCH
  5
3E
330
17
100
AcDbEntity
  8
FILL_WHITE_FFFFFF
 62
7
420
16777215
100
AcDbHatch
 10
0.0
 20
0.0
 30
0.0
210
0.0
220
0.0
230
1.0
  2
SOLID
 70
1
 71
0
 91
1
 92
3
 72
0
 73
1
 93
148
 10
381.32
 20
96.51
 10
381.83
 20
99.64
 10
382.67
 20
102.75
 10
383.85
 20
105.81
 10
385.37
 20
108.82
 10
387.23
 20
111.75
 10
389.42
 20
114.61
 10
391.95
 20
117.36
 10
392.96
 20
118.71
 10
394.14
 20
120.02
 10
395.47
 20
121.28
 10
396.9
 20
122.46
 10
398.38
 20
123.52
 10
399.88
 20
124.45
 10
401.35
 20
125.2
 10
402.75
 20
125.76
 10
406.16
 20
127.35
 10
409.35
 20
128.61
 10
412.54
 20
129.64
 10
415.95
 20
130.56
 10
415.95
 20
141.36
 10
412.75
 20
141.92
 10
409.5
 20
142.73
 10
406.25
 20
143.79
 10
403.05
 20
145.11
 10
399.97
 20
146.72
 10
397.05
 20
148.62
 10
395.67
 20
149.68
 10
394.36
 20
150.83
 10
393.12
 20
152.05
 10
391.95
 20
153.36
 10
390.65
 20
154.76
 10
389.46
 20
156.25
 10
387.3
 20
159.36
 10
383.55
 20
165.36
 10
383.36
 20
167.16
 10
382.95
 20
168.96
 10
382.54
 20
170.76
 10
382.35
 20
172.56
 10
381.66
 20
174.17
 10
381.3
 20
175.56
 10
381.17
 20
176.95
 10
381.15
 20
178.56
 10
395.55
 20
178.56
 10
395.66
 20
176.71
 10
395.98
 20
174.79
 10
396.5
 20
172.84
 10
397.2
 20
170.91
 10
398.07
 20
169.03
 10
399.09
 20
167.25
 10
400.26
 20
165.62
 10
401.55
 20
164.16
 10
402.96
 20
162.47
 10
404.48
 20
160.99
 10
406.11
 20
159.71
 10
407.85
 20
158.61
 10
409.71
 20
157.68
 10
411.68
 20
156.9
 10
413.76
 20
156.27
 10
415.95
 20
155.76
 10
415.95
 20
180.96
 10
427.95
 20
180.96
 10
427.95
 20
155.76
 10
430.14
 20
156.27
 10
432.23
 20
156.9
 10
434.19
 20
157.68
 10
436.05
 20
158.61
 10
437.79
 20
159.71
 10
439.43
 20
160.99
 10
440.94
 20
162.47
 10
442.35
 20
164.16
 10
443.64
 20
165.62
 10
444.81
 20
167.25
 10
445.83
 20
169.03
 10
446.7
 20
170.91
 10
447.4
 20
172.84
 10
447.92
 20
174.79
 10
448.24
 20
176.71
 10
448.35
 20
178.56
 10
462.75
 20
178.56
 10
462.54
 20
175.65
 10
462.0
 20
172.41
 10
460.35
 20
165.36
 10
456.6
 20
159.36
 10
454.44
 20
156.25
 10
453.25
 20
154.76
 10
451.95
 20
153.36
 10
450.94
 20
152.06
 10
449.76
 20
150.87
 10
448.43
 20
149.75
 10
447.0
 20
148.71
 10
441.15
 20
144.96
 10
427.95
 20
141.36
 10
427.95
 20
130.56
 10
431.15
 20
129.94
 10
434.4
 20
129.0
 10
437.65
 20
127.75
 10
440.85
 20
126.21
 10
443.93
 20
124.38
 10
446.85
 20
122.29
 10
449.54
 20
119.95
 10
451.95
 20
117.36
 10
454.44
 20
114.64
 10
456.6
 20
111.81
 10
458.53
 20
108.75
 10
460.35
 20
105.36
 10
461.23
 20
102.47
 10
462.0
 20
99.36
 10
462.54
 20
96.25
 10
462.75
 20
93.36
 10
448.35
 20
93.36
 10
448.24
 20
95.21
 10
447.92
 20
97.13
 10
447.4
 20
99.08
 10
446.7
 20
101.01
 10
445.83
 20
102.89
 10
444.81
 20
104.67
 10
443.64
 20
106.3
 10
442.35
 20
107.76
 10
440.94
 20
109.5
 10
439.43
 20
111.12
 10
437.79
 20
112.59
 10
436.05
 20
113.91
 10
434.19
 20
115.06
 10
432.23
 20
116.03
 10
430.14
 20
116.8
 10
427.95
 20
117.36
 10
427.95
 20
90.96
 10
415.95
 20
90.96
 10
415.95
 20
117.36
 10
413.76
 20
116.8
 10
411.68
 20
116.03
 10
409.71
 20
115.06
 10
407.85
 20
113.91
 10
406.11
 20
112.59
 10
404.48
 20
111.12
 10
402.96
 20
109.5
 10
401.55
 20
107.76
 10
400.26
 20
106.3
 10
399.09
 20
104.67
 10
398.07
 20
102.89
 10
397.2
 20
101.01
 10
396.5
 20
99.08
 10
395.98
 20
97.13
 10
395.66
 20
95.21
 10
395.55
 20
93.36
 10
381.15
 20
93.36
 10
381.32
 20
96.51
 97
0
 75
1
 76
1
 98
0
  0
LWPOLYLINE
  5
3F
330
17
100
AcDbEntity
  8
FILL_WHITE_FFFFFF
370
0
420
16777215
100
AcDbPolyline
 90
147
 70
1
 10
381.32
 20
96.51
 10
381.83
 20
99.64
 10
382.67
 20
102.75
 10
383.85
 20
105.81
 10
385.37
 20
108.82
 10
387.23
 20
111.75
 10
389.42
 20
114.61
 10
391.95
 20
117.36
 10
392.96
 20
118.71
 10
394.14
 20
120.02
 10
395.47
 20
121.28
 10
396.9
 20
122.46
 10
398.38
 20
123.52
 10
399.88
 20
124.45
 10
401.35
 20
125.2
 10
402.75
 20
125.76
 10
406.16
 20
127.35
 10
409.35
 20
128.61
 10
412.54
 20
129.64
 10
415.95
 20
130.56
 10
415.95
 20
141.36
 10
412.75
 20
141.92
 10
409.5
 20
142.73
 10
406.25
 20
143.79
 10
403.05
 20
145.11
 10
399.97
 20
146.72
 10
397.05
 20
148.62
 10
395.67
 20
149.68
 10
394.36
 20
150.83
 10
393.12
 20
152.05
 10
391.95
 20
153.36
 10
390.65
 20
154.76
 10
389.46
 20
156.25
 10
387.3
 20
159.36
 10
383.55
 20
165.36
 10
383.36
 20
167.16
 10
382.95
 20
168.96
 10
382.54
 20
170.76
 10
382.35
 20
172.56
 10
381.66
 20
174.17
 10
381.3
 20
175.56
 10
381.17
 20
176.95
 10
381.15
 20
178.56
 10
395.55
 20
178.56
 10
395.66
 20
176.71
 10
395.98
 20
174.79
 10
396.5
 20
172.84
 10
397.2
 20
170.91
 10
398.07
 20
169.03
 10
399.09
 20
167.25
 10
400.26
 20
165.62
 10
401.55
 20
164.16
 10
402.96
 20
162.47
 10
404.48
 20
160.99
 10
406.11
 20
159.71
 10
407.85
 20
158.61
 10
409.71
 20
157.68
 10
411.68
 20
156.9
 10
413.76
 20
156.27
 10
415.95
 20
155.76
 10
415.95
 20
180.96
 10
427.95
 20
180.96
 10
427.95
 20
155.76
 10
430.14
 20
156.27
 10
432.23
 20
156.9
 10
434.19
 20
157.68
 10
436.05
 20
158.61
 10
437.79
 20
159.71
 10
439.43
 20
160.99
 10
440.94
 20
162.47
 10
442.35
 20
164.16
 10
443.64
 20
165.62
 10
444.81
 20
167.25
 10
445.83
 20
169.03
 10
446.7
 20
170.91
 10
447.4
 20
172.84
 10
447.92
 20
174.79
 10
448.24
 20
176.71
 10
448.35
 20
178.56
 10
462.75
 20
178.56
 10
462.54
 20
175.65
 10
462.0
 20
172.41
 10
460.35
 20
165.36
 10
456.6
 20
159.36
 10
454.44
 20
156.25
 10
453.25
 20
154.76
 10
451.95
 20
153.36
 10
450.94
 20
152.06
 10
449.76
 20
150.87
 10
448.43
 20
149.75
 10
447.0
 20
148.71
 10
441.15
 20
144.96
 10
427.95
 20
141.36
 10
427.95
 20
130.56
 10
431.15
 20
129.94
 10
434.4
 20
129.0
 10
437.65
 20
127.75
 10
440.85
 20
126.21
 10
443.93
 20
124.38
 10
446.85
 20
122.29
 10
449.54
 20
119.95
 10
451.95
 20
117.36
 10
454.44
 20
114.64
 10
456.6
 20
111.81
 10
458.53
 20
108.75
 10
460.35
 20
105.36
 10
461.23
 20
102.47
 10
462.0
 20
99.36
 10
462.54
 20
96.25
 10
462.75
 20
93.36
 10
448.35
 20
93.36
 10
448.24
 20
95.21
 10
447.92
 20
97.13
 10
447.4
 20
99.08
 10
446.7
 20
101.01
 10
445.83
 20
102.89
 10
444.81
 20
104.67
 10
443.64
 20
106.3
 10
442.35
 20
107.76
 10
440.94
 20
109.5
 10
439.43
 20
111.12
 10
437.79
 20
112.59
 10
436.05
 20
113.91
 10
434.19
 20
115.06
 10
432.23
 20
116.03
 10
430.14
 20
116.8
 10
427.95
 20
117.36
 10
427.95
 20
90.96
 10
415.95
 20
90.96
 10
415.95
 20
117.36
 10
413.76
 20
116.8
 10
411.68
 20
116.03
 10
409.71
 20
115.06
 10
407.85
 20
113.91
 10
406.11
 20
112.59
 10
404.48
 20
111.12
 10
402.96
 20
109.5
 10
401.55
 20
107.76
 10
400.26
 20
106.3
 10
399.09
 20
104.67
 10
398.07
 20
102.89
 10
397.2
 20
101.01
 10
396.5
 20
99.08
 10
395.98
 20
97.13
 10
395.66
 20
95.21
 10
395.55
 20
93.36
 10
381.15
 20
93.36
  0
HATCH
  5
40
330
17
100
AcDbEntity
  8
FILL_WHITE_FFFFFF
 62
7
420
16777215
100
AcDbHatch
 10
0.0
 20
0.0
 30
0.0
210
0.0
220
0.0
230
1.0
  2
SOLID
 70
1
 71
0
 91
2
 92
3
 72
0
 73
1
 93
40
 10
191.55
 20
74.16
 10
191.55
 20
197.76
 10
252.75
 20
197.76
 10
254.55
 20
197.7
 10
256.35
 20
197.54
 10
259.91
 20
196.92
 10
263.42
 20
195.92
 10
266.85
 20
194.61
 10
270.16
 20
193.01
 10
273.34
 20
191.18
 10
276.34
 20
189.15
 10
279.15
 20
186.96
 10
281.34
 20
184.15
 10
283.37
 20
181.15
 10
285.2
 20
177.97
 10
286.8
 20
174.66
 10
288.11
 20
171.23
 10
289.11
 20
167.72
 10
289.73
 20
164.16
 10
289.89
 20
162.36
 10
289.95
 20
160.56
 10
289.78
 20
156.96
 10
289.28
 20
153.4
 10
288.43
 20
149.89
 10
287.25
 20
146.46
 10
285.73
 20
143.15
 10
283.88
 20
139.97
 10
281.68
 20
136.97
 10
279.15
 20
134.16
 10
275.95
 20
131.63
 10
272.66
 20
129.43
 10
269.32
 20
127.58
 10
265.95
 20
126.06
 10
262.58
 20
124.88
 10
259.24
 20
124.03
 10
255.95
 20
123.53
 10
252.75
 20
123.36
 10
220.35
 20
123.36
 10
220.35
 20
74.16
 10
191.55
 20
74.16
 97
0
 92
18
 72
0
 73
1
 93
33
 10
246.9
 20
142.67
 10
248.25
 20
142.97
 10
249.6
 20
143.45
 10
250.95
 20
144.06
 10
253.65
 20
145.6
 10
256.35
 20
147.36
 10
257.93
 20
150.06
 10
258.54
 20
151.41
 10
259.05
 20
152.76
 10
259.44
 20
154.11
 10
259.73
 20
155.46
 10
259.89
 20
156.81
 10
259.95
 20
158.16
 10
259.95
 20
162.96
 10
259.8
 20
165.36
 10
259.44
 20
166.67
 10
259.15
 20
167.26
 10
258.75
 20
167.76
 10
258.7
 20
168.61
 10
258.54
 20
169.37
 10
258.0
 20
170.76
 10
256.35
 20
173.76
 10
253.65
 20
175.33
 10
252.3
 20
175.95
 10
250.95
 20
176.46
 10
249.6
 20
176.85
 10
248.25
 20
177.13
 10
246.9
 20
177.3
 10
245.55
 20
177.36
 10
220.35
 20
177.36
 10
220.35
 20
142.56
 10
245.55
 20
142.56
 10
246.9
 20
142.67
 97
0
 75
1
 76
1
 98
0
  0
LWPOLYLINE
  5
41
330
17
100
AcDbEntity
  8
FILL_WHITE_FFFFFF
370
0
420
16777215
100
AcDbPolyline
 90
39
 70
1
 10
191.55
 20
74.16
 10
191.55
 20
197.76
 10
252.75
 20
197.76
 10
254.55
 20
197.7
 10
256.35
 20
197.54
 10
259.91
 20
196.92
 10
263.42
 20
195.92
 10
266.85
 20
194.61
 10
270.16
 20
193.01
 10
273.34
 20
191.18
 10
276.34
 20
189.15
 10
279.15
 20
186.96
 10
281.34
 20
184.15
 10
283.37
 20
181.15
 10
285.2
 20
177.97
 10
286.8
 20
174.66
 10
288.11
 20
171.23
 10
289.11
 20
167.72
 10
289.73
 20
164.16
 10
289.89
 20
162.36
 10
289.95
 20
160.56
 10
289.78
 20
156.96
 10
289.28
 20
153.4
 10
288.43
 20
149.89
 10
287.25
 20
146.46
 10
285.73
 20
143.15
 10
283.88
 20
139.97
 10
281.68
 20
136.97
 10
279.15
 20
134.16
 10
275.95
 20
131.63
 10
272.66
 20
129.43
 10
269.32
 20
127.58
 10
265.95
 20
126.06
 10
262.58
 20
124.88
 10
259.24
 20
124.03
 10
255.95
 20
123.53
 10
252.75
 20
123.36
 10
220.35
 20
123.36
 10
220.35
 20
74.16
  0
LWPOLYLINE
  5
42
330
17
100
AcDbEntity
  8
FILL_WHITE_FFFFFF
370
0
420
16777215
100
AcDbPolyline
 90
32
 70
1
 10
246.9
 20
142.67
 10
248.25
 20
142.97
 10
249.6
 20
143.45
 10
250.95
 20
144.06
 10
253.65
 20
145.6
 10
256.35
 20
147.36
 10
257.93
 20
150.06
 10
258.54
 20
151.41
 10
259.05
 20
152.76
 10
259.44
 20
154.11
 10
259.73
 20
155.46
 10
259.89
 20
156.81
 10
259.95
 20
158.16
 10
259.95
 20
162.96
 10
259.8
 20
165.36
 10
259.44
 20
166.67
 10
259.15
 20
167.26
 10
258.75
 20
167.76
 10
258.7
 20
168.61
 10
258.54
 20
169.37
 10
258.0
 20
170.76
 10
256.35
 20
173.76
 10
253.65
 20
175.33
 10
252.3
 20
175.95
 10
250.95
 20
176.46
 10
249.6
 20
176.85
 10
248.25
 20
177.13
 10
246.9
 20
177.3
 10
245.55
 20
177.36
 10
220.35
 20
177.36
 10
220.35
 20
142.56
 10
245.55
 20
142.56
  0
HATCH
  5
43
330
17
100
AcDbEntity
  8
FILL_WHITE_FFFFFF
 62
7
420
16777215
100
AcDbHatch
 10
0.0
 20
0.0
 30
0.0
210
0.0
220
0.0
230
1.0
  2
SOLID
 70
1
 71
0
 91
1
 92
3
 72
0
 73
1
 93
10
 10
131.55
 20
135.36
 10
105.15
 20
161.76
 10
105.15
 20
57.36
 10
78.75
 20
57.36
 10
78.75
 20
161.76
 10
53.55
 20
135.36
 10
53.55
 20
174.96
 10
91.95
 20
214.56
 10
131.55
 20
174.96
 10
131.55
 20
135.36
 97
0
 75
1
 76
1
 98
0
  0
LWPOLYLINE
  5
44
330
17
100
AcDbEntity
  8
FILL_WHITE_FFFFFF
370
0
420
16777215
100
AcDbPolyline
 90
9
 70
1
 10
131.55
 20
135.36
 10
105.15
 20
161.76
 10
105.15
 20
57.36
 10
78.75
 20
57.36
 10
78.75
 20
161.76
 10
53.55
 20
135.36
 10
53.55
 20
174.96
 10
91.95
 20
214.56
 10
131.55
 20
174.96
  0
LWPOLYLINE
  5
46
330
17
100
AcDbEntity
  8
STROKE_BLUE_0000FF
370
0
420
255
100
AcDbPolyline
 90
69
 70
0
 10
525.1500000000003
 20
263.7599999999993
 10
528.2554687500003
 20
263.6076562499993
 10
531.2625000000003
 20
263.15999999999934
 10
534.1570312500002
 20
262.4310937499993
 10
536.9250000000002
 20
261.4349999999993
 10
539.5523437500002
 20
260.18578124999937
 10
542.0250000000002
 20
258.69749999999937
 10
544.3289062500002
 20
256.98421874999934
 10
546.4500000000003
 20
255.05999999999938
 10
548.3742187500003
 20
252.93890624999938
 10
550.0875000000003
 20
250.6349999999994
 10
551.5757812500002
 20
248.1623437499994
 10
552.8250000000003
 20
245.5349999999994
 10
553.8210937500003
 20
242.76703124999938
 10
554.5500000000003
 20
239.87249999999938
 10
554.9976562500003
 20
236.86546874999934
 10
555.1500000000003
 20
233.7599999999993
 10
555.1500000000003
 20
38.159999999999854
 10
554.9976562500003
 20
35.054531249999826
 10
554.5500000000004
 20
32.047499999999815
 10
553.8210937500003
 20
29.152968749999786
 10
552.8250000000003
 20
26.384999999999764
 10
551.5757812500002
 20
23.75765624999977
 10
550.0875000000002
 20
21.28499999999977
 10
548.3742187500003
 20
18.981093749999786
 10
546.4500000000003
 20
16.859999999999786
 10
544.3289062500002
 20
14.93578124999982
 10
542.0250000000002
 20
13.222499999999854
 10
539.5523437500002
 20
11.734218749999854
 10
536.9250000000002
 20
10.484999999999843
 10
534.1570312500003
 20
9.488906249999843
 10
531.2625000000003
 20
8.759999999999877
 10
528.2554687500003
 20
8.312343749999854
 10
525.1500000000003
 20
8.159999999999854
 10
43.950000000000045
 20
8.159999999999854
 10
40.84453125000005
 20
8.312343749999854
 10
37.837500000000055
 20
8.75999999999982
 10
34.942968750000055
 20
9.488906249999843
 10
32.17500000000007
 20
10.484999999999843
 10
29.547656250000063
 20
11.734218749999798
 10
27.075000000000067
 20
13.222499999999798
 10
24.771093750000066
 20
14.93578124999982
 10
22.650000000000063
 20
16.859999999999786
 10
20.72578125000006
 20
18.981093749999815
 10
19.012500000000056
 20
21.28499999999977
 10
17.524218750000056
 20
23.757656249999798
 10
16.275000000000052
 20
26.384999999999764
 10
15.278906250000048
 20
29.152968749999786
 10
14.550000000000047
 20
32.047499999999786
 10
14.102343750000045
 20
35.054531249999826
 10
13.950000000000045
 20
38.159999999999854
 10
13.950000000000045
 20
233.7599999999993
 10
14.102343750000045
 20
236.86546874999934
 10
14.550000000000047
 20
239.87249999999938
 10
15.27890625000005
 20
242.76703124999938
 10
16.275000000000052
 20
245.5349999999994
 10
17.524218750000053
 20
248.1623437499994
 10
19.012500000000056
 20
250.6349999999994
 10
20.72578125000006
 20
252.93890624999938
 10
22.650000000000063
 20
255.05999999999938
 10
24.771093750000066
 20
256.98421874999934
 10
27.075000000000067
 20
258.69749999999937
 10
29.547656250000067
 20
260.18578124999937
 10
32.17500000000007
 20
261.4349999999993
 10
34.94296875000006
 20
262.4310937499993
 10
37.837500000000055
 20
263.15999999999934
 10
40.84453125000005
 20
263.6076562499993
 10
43.950000000000045
 20
263.7599999999993
 10
525.1500000000003
 20
263.7599999999993
  0
ENDSEC
  0
SECTION
  2
OBJECTS
  0
DICTIONARY
  5
A
330
0
100
AcDbDictionary
281
1
  3
ACAD_COLOR
350
B
  3
ACAD_GROUP
350
C
  3
ACAD_LAYOUT
350
D
  3
ACAD_MATERIAL
350
E
  3
ACAD_MLEADERSTYLE
350
F
  3
ACAD_MLINESTYLE
350
10
  3
ACAD_PLOTSETTINGS
350
11
  3
ACAD_PLOTSTYLENAME
350
12
  3
ACAD_SCALELIST
350
14
  3
ACAD_TABLESTYLE
350
15
  3
ACAD_VISUALSTYLE
350
16
  3
EZDXF_META
350
2D
  0
DICTIONARY
  5
B
330
A
100
AcDbDictionary
281
1
  0
DICTIONARY
  5
C
330
A
100
AcDbDictionary
281
1
  0
DICTIONARY
  5
D
330
A
100
AcDbDictionary
281
1
  3
Model
350
1A
  3
Layout1
350
1E
  0
DICTIONARY
  5
E
330
A
100
AcDbDictionary
281
1
  3
ByBlock
350
1F
  3
ByLayer
350
20
  3
Global
350
21
  0
DICTIONARY
  5
F
330
A
100
AcDbDictionary
281
1
  3
Standard
350
2C
  0
DICTIONARY
  5
10
330
A
100
AcDbDictionary
281
1
  3
Standard
350
22
  0
DICTIONARY
  5
11
330
A
100
AcDbDictionary
281
1
  0
ACDBDICTIONARYWDFLT
  5
12
330
A
100
AcDbDictionary
281
1
  3
Normal
350
13
100
AcDbDictionaryWithDefault
340
13
  0
ACDBPLACEHOLDER
  5
13
330
12
  0
DICTIONARY
  5
14
330
A
100
AcDbDictionary
281
1
  0
DICTIONARY
  5
15
330
A
100
AcDbDictionary
281
1
  0
DICTIONARY
  5
16
330
A
100
AcDbDictionary
281
1
  0
LAYOUT
  5
1A
330
D
100
AcDbPlotSettings
  1

  4
A3
  6

 40
7.5
 41
20.0
 42
7.5
 43
20.0
 44
420.0
 45
297.0
 46
0.0
 47
0.0
 48
0.0
 49
0.0
140
0.0
141
0.0
142
1.0
143
1.0
 70
1024
 72
1
 73
0
 74
5
  7

 75
16
 76
0
 77
2
 78
300
147
1.0
148
0.0
149
0.0
100
AcDbLayout
  1
Model
 70
1
 71
0
 10
0.0
 20
0.0
 11
420.0
 21
297.0
 12
0.0
 22
0.0
 32
0.0
 14
1e+20
 24
1e+20
 34
1e+20
 15
-1e+20
 25
-1e+20
 35
-1e+20
146
0.0
 13
0.0
 23
0.0
 33
0.0
 16
1.0
 26
0.0
 36
0.0
 17
0.0
 27
1.0
 37
0.0
 76
1
330
17
  0
LAYOUT
  5
1E
330
D
100
AcDbPlotSettings
  1

  4
A3
  6

 40
7.5
 41
20.0
 42
7.5
 43
20.0
 44
420.0
 45
297.0
 46
0.0
 47
0.0
 48
0.0
 49
0.0
140
0.0
141
0.0
142
1.0
143
1.0
 70
0
 72
1
 73
0
 74
5
  7

 75
16
 76
0
 77
2
 78
300
147
1.0
148
0.0
149
0.0
100
AcDbLayout
  1
Layout1
 70
1
 71
1
 10
0.0
 20
0.0
 11
420.0
 21
297.0
 12
0.0
 22
0.0
 32
0.0
 14
1e+20
 24
1e+20
 34
1e+20
 15
-1e+20
 25
-1e+20
 35
-1e+20
146
0.0
 13
0.0
 23
0.0
 33
0.0
 16
1.0
 26
0.0
 36
0.0
 17
0.0
 27
1.0
 37
0.0
 76
1
330
1B
  0
MATERIAL
  5
1F
102
{ACAD_REACTORS
330
E
102
}
330
E
100
AcDbMaterial
  1
ByBlock
  2

 70
0
 40
1.0
 71
1
 41
1.0
 91
-1023410177
 42
1.0
 72
1
  3

 73
1
 74
1
 75
1
 44
0.5
 73
0
 45
1.0
 46
1.0
 77
1
  4

 78
1
 79
1
170
1
 48
1.0
171
1
  6

172
1
173
1
174
1
140
1.0
141
1.0
175
1
  7

176
1
177
1
178
1
143
1.0
179
1
  8

270
1
271
1
272
1
145
1.0
146
1.0
273
1
  9

274
1
275
1
276
1
 42
1.0
 72
1
  3

 73
1
 74
1
 75
1
 94
63
  0
MATERIAL
  5
20
102
{ACAD_REACTORS
330
E
102
}
330
E
100
AcDbMaterial
  1
ByLayer
  2

 70
0
 40
1.0
 71
1
 41
1.0
 91
-1023410177
 42
1.0
 72
1
  3

 73
1
 74
1
 75
1
 44
0.5
 73
0
 45
1.0
 46
1.0
 77
1
  4

 78
1
 79
1
170
1
 48
1.0
171
1
  6

172
1
173
1
174
1
140
1.0
141
1.0
175
1
  7

176
1
177
1
178
1
143
1.0
179
1
  8

270
1
271
1
272
1
145
1.0
146
1.0
273
1
  9

274
1
275
1
276
1
 42
1.0
 72
1
  3

 73
1
 74
1
 75
1
 94
63
  0
MATERIAL
  5
21
102
{ACAD_REACTORS
330
E
102
}
330
E
100
AcDbMaterial
  1
Global
  2

 70
0
 40
1.0
 71
1
 41
1.0
 91
-1023410177
 42
1.0
 72
1
  3

 73
1
 74
1
 75
1
 44
0.5
 73
0
 45
1.0
 46
1.0
 77
1
  4

 78
1
 79
1
170
1
 48
1.0
171
1
  6

172
1
173
1
174
1
140
1.0
141
1.0
175
1
  7

176
1
177
1
178
1
143
1.0
179
1
  8

270
1
271
1
272
1
145
1.0
146
1.0
273
1
  9

274
1
275
1
276
1
 42
1.0
 72
1
  3

 73
1
 74
1
 75
1
 94
63
  0
MLINESTYLE
  5
22
102
{ACAD_REACTORS
330
10
102
}
330
10
100
AcDbMlineStyle
  2
Standard
 70
0
  3

 62
256
 51
90.0
 52
90.0
 71
2
 49
0.5
 62
256
  6
BYLAYER
 49
-0.5
 62
256
  6
BYLAYER
  0
MLEADERSTYLE
  5
2C
102
{ACAD_REACTORS
330
F
102
}
330
F
100
AcDbMLeaderStyle
179
2
170
2
171
1
172
0
 90
2
 40
0.0
 41
0.0
173
1
 91
-1056964608
 92
-2
290
1
 42
2.0
291
1
 43
8.0
  3
Standard
 44
4.0
300

342
29
174
1
175
1
176
0
178
1
 93
-1056964608
 45
4.0
292
0
297
0
 46
4.0
 94
-1056964608
 47
1.0
 49
1.0
140
1.0
294
1
141
0.0
177
0
142
1.0
295
0
296
0
143
3.75
271
0
272
9
273
9
  0
DICTIONARY
  5
2D
330
A
100
AcDbDictionary
280
1
281
1
  3
CREATED_BY_EZDXF
350
2E
  3
WRITTEN_BY_EZDXF
350
49
  0
DICTIONARYVAR
  5
2E
330
2D
100
DictionaryVariables
280
0
  1
1.4.4 @ 2026-07-10T01:53:53.281084+00:00
  0
DICTIONARYVAR
  5
49
330
2D
100
DictionaryVariables
280
0
  1
1.4.4 @ 2026-07-10T01:53:53.286503+00:00
  0
ENDSEC
  0
EOF
