  0
SECTION
  2
HEADER
  9
$ACADVER
  1
AC1024
  9
$ACADMAINTVER
 70
6
  9
$DWGCODEPAGE
  3
ANSI_1252
  9
$LASTSAVEDBY
  1
ezdxf
  9
$INSBASE
 10
0.0
 20
0.0
 30
0.0
  9
$EXTMIN
 10
1e+20
 20
1e+20
 30
1e+20
  9
$EXTMAX
 10
-1e+20
 20
-1e+20
 30
-1e+20
  9
$LIMMIN
 10
0.0
 20
0.0
  9
$LIMMAX
 10
420.0
 20
297.0
  9
$ORTHOMODE
 70
0
  9
$REGENMODE
 70
1
  9
$FILLMODE
 70
1
  9
$QTEXTMODE
 70
0
  9
$MIRRTEXT
 70
1
  9
$LTSCALE
 40
1.0
  9
$ATTMODE
 70
1
  9
$TEXTSIZE
 40
2.5
  9
$TRACEWID
 40
1.0
  9
$TEXTSTYLE
  7
Standard
  9
$CLAYER
  8
0
  9
$CELTYPE
  6
ByLayer
  9
$CECOLOR
 62
256
  9
$CELTSCALE
 40
1.0
  9
$DISPSILH
 70
0
  9
$DIMSCALE
 40
1.0
  9
$DIMASZ
 40
2.5
  9
$DIMEXO
 40
0.625
  9
$DIMDLI
 40
3.75
  9
$DIMRND
 40
0.0
  9
$DIMDLE
 40
0.0
  9
$DIMEXE
 40
1.25
  9
$DIMTP
 40
0.0
  9
$DIMTM
 40
0.0
  9
$DIMTXT
 40
2.5
  9
$DIMCEN
 40
2.5
  9
$DIMTSZ
 40
0.0
  9
$DIMTOL
 70
0
  9
$DIMLIM
 70
0
  9
$DIMTIH
 70
0
  9
$DIMTOH
 70
0
  9
$DIMSE1
 70
0
  9
$DIMSE2
 70
0
  9
$DIMTAD
 70
1
  9
$DIMZIN
 70
8
  9
$DIMBLK
  1

  9
$DIMASO
 70
1
  9
$DIMSHO
 70
1
  9
$DIMPOST
  1

  9
$DIMAPOST
  1

  9
$DIMALT
 70
0
  9
$DIMALTD
 70
3
  9
$DIMALTF
 40
0.03937007874
  9
$DIMLFAC
 40
1.0
  9
$DIMTOFL
 70
1
  9
$DIMTVP
 40
0.0
  9
$DIMTIX
 70
0
  9
$DIMSOXD
 70
0
  9
$DIMSAH
 70
0
  9
$DIMBLK1
  1

  9
$DIMBLK2
  1

  9
$DIMSTYLE
  2
ISO-25
  9
$DIMCLRD
 70
0
  9
$DIMCLRE
 70
0
  9
$DIMCLRT
 70
0
  9
$DIMTFAC
 40
1.0
  9
$DIMGAP
 40
0.625
  9
$DIMJUST
 70
0
  9
$DIMSD1
 70
0
  9
$DIMSD2
 70
0
  9
$DIMTOLJ
 70
0
  9
$DIMTZIN
 70
8
  9
$DIMALTZ
 70
0
  9
$DIMALTTZ
 70
0
  9
$DIMUPT
 70
0
  9
$DIMDEC
 70
2
  9
$DIMTDEC
 70
2
  9
$DIMALTU
 70
2
  9
$DIMALTTD
 70
3
  9
$DIMTXSTY
  7
Standard
  9
$DIMAUNIT
 70
0
  9
$DIMADEC
 70
0
  9
$DIMALTRND
 40
0.0
  9
$DIMAZIN
 70
0
  9
$DIMDSEP
 70
44
  9
$DIMATFIT
 70
3
  9
$DIMFRAC
 70
0
  9
$DIMLDRBLK
  1

  9
$DIMLUNIT
 70
2
  9
$DIMLWD
 70
-2
  9
$DIMLWE
 70
-2
  9
$DIMTMOVE
 70
0
  9
$DIMFXL
 40
1.0
  9
$DIMFXLON
 70
0
  9
$DIMJOGANG
 40
0.785398163397
  9
$DIMTFILL
 70
0
  9
$DIMTFILLCLR
 70
0
  9
$DIMARCSYM
 70
0
  9
$DIMLTYPE
  6

  9
$DIMLTEX1
  6

  9
$DIMLTEX2
  6

  9
$DIMTXTDIRECTION
 70
0
  9
$LUNITS
 70
2
  9
$LUPREC
 70
4
  9
$SKETCHINC
 40
1.0
  9
$FILLETRAD
 40
10.0
  9
$AUNITS
 70
0
  9
$AUPREC
 70
2
  9
$MENU
  1
.
  9
$ELEVATION
 40
0.0
  9
$PELEVATION
 40
0.0
  9
$THICKNESS
 40
0.0
  9
$LIMCHECK
 70
0
  9
$CHAMFERA
 40
0.0
  9
$CHAMFERB
 40
0.0
  9
$CHAMFERC
 40
0.0
  9
$CHAMFERD
 40
0.0
  9
$SKPOLY
 70
0
  9
$TDCREATE
 40
2461232.412384259
  9
$TDUCREATE
 40
2458532.153996898
  9
$TDUPDATE
 40
2461232.412384259
  9
$TDUUPDATE
 40
2458532.1544311
  9
$TDINDWG
 40
0.0
  9
$TDUSRTIMER
 40
0.0
  9
$USRTIMER
 70
1
  9
$ANGBASE
 50
0.0
  9
$ANGDIR
 70
0
  9
$PDMODE
 70
0
  9
$PDSIZE
 40
0.0
  9
$PLINEWID
 40
0.0
  9
$SPLFRAME
 70
0
  9
$SPLINETYPE
 70
6
  9
$SPLINESEGS
 70
8
  9
$HANDSEED
  5
40
  9
$SURFTAB1
 70
6
  9
$SURFTAB2
 70
6
  9
$SURFTYPE
 70
6
  9
$SURFU
 70
6
  9
$SURFV
 70
6
  9
$UCSBASE
  2

  9
$UCSNAME
  2

  9
$UCSORG
 10
0.0
 20
0.0
 30
0.0
  9
$UCSXDIR
 10
1.0
 20
0.0
 30
0.0
  9
$UCSYDIR
 10
0.0
 20
1.0
 30
0.0
  9
$UCSORTHOREF
  2

  9
$UCSORTHOVIEW
 70
0
  9
$UCSORGTOP
 10
0.0
 20
0.0
 30
0.0
  9
$UCSORGBOTTOM
 10
0.0
 20
0.0
 30
0.0
  9
$UCSORGLEFT
 10
0.0
 20
0.0
 30
0.0
  9
$UCSORGRIGHT
 10
0.0
 20
0.0
 30
0.0
  9
$UCSORGFRONT
 10
0.0
 20
0.0
 30
0.0
  9
$UCSORGBACK
 10
0.0
 20
0.0
 30
0.0
  9
$PUCSBASE
  2

  9
$PUCSNAME
  2

  9
$PUCSORG
 10
0.0
 20
0.0
 30
0.0
  9
$PUCSXDIR
 10
1.0
 20
0.0
 30
0.0
  9
$PUCSYDIR
 10
0.0
 20
1.0
 30
0.0
  9
$PUCSORTHOREF
  2

  9
$PUCSORTHOVIEW
 70
0
  9
$PUCSORGTOP
 10
0.0
 20
0.0
 30
0.0
  9
$PUCSORGBOTTOM
 10
0.0
 20
0.0
 30
0.0
  9
$PUCSORGLEFT
 10
0.0
 20
0.0
 30
0.0
  9
$PUCSORGRIGHT
 10
0.0
 20
0.0
 30
0.0
  9
$PUCSORGFRONT
 10
0.0
 20
0.0
 30
0.0
  9
$PUCSORGBACK
 10
0.0
 20
0.0
 30
0.0
  9
$USERI1
 70
0
  9
$USERI2
 70
0
  9
$USERI3
 70
0
  9
$USERI4
 70
0
  9
$USERI5
 70
0
  9
$USERR1
 40
0.0
  9
$USERR2
 40
0.0
  9
$USERR3
 40
0.0
  9
$USERR4
 40
0.0
  9
$USERR5
 40
0.0
  9
$WORLDVIEW
 70
1
  9
$SHADEDGE
 70
3
  9
$SHADEDIF
 70
70
  9
$TILEMODE
 70
1
  9
$MAXACTVP
 70
64
  9
$PINSBASE
 10
0.0
 20
0.0
 30
0.0
  9
$PLIMCHECK
 70
0
  9
$PEXTMIN
 10
1e+20
 20
1e+20
 30
1e+20
  9
$PEXTMAX
 10
-1e+20
 20
-1e+20
 30
-1e+20
  9
$PLIMMIN
 10
0.0
 20
0.0
  9
$PLIMMAX
 10
420.0
 20
297.0
  9
$UNITMODE
 70
0
  9
$VISRETAIN
 70
1
  9
$PLINEGEN
 70
0
  9
$PSLTSCALE
 70
1
  9
$TREEDEPTH
 70
3020
  9
$CMLSTYLE
  2
Standard
  9
$CMLJUST
 70
0
  9
$CMLSCALE
 40
20.0
  9
$PROXYGRAPHICS
 70
1
  9
$MEASUREMENT
 70
1
  9
$CELWEIGHT
370
-1
  9
$ENDCAPS
280
0
  9
$JOINSTYLE
280
0
  9
$LWDISPLAY
290
0
  9
$INSUNITS
 70
6
  9
$HYPERLINKBASE
  1

  9
$STYLESHEET
  1

  9
$XEDIT
290
1
  9
$CEPSNTYPE
380
0
  9
$PSTYLEMODE
290
1
  9
$FINGERPRINTGUID
  2
{29BF9952-E3B8-4348-93E5-2FAB97B6AAB4}
  9
$VERSIONGUID
  2
{FDEE1EE4-374F-4277-BD93-5444355A9C48}
  9
$EXTNAMES
290
1
  9
$PSVPSCALE
 40
0.0
  9
$OLESTARTUP
290
0
  9
$SORTENTS
280
127
  9
$INDEXCTL
280
0
  9
$HIDETEXT
280
1
  9
$XCLIPFRAME
280
1
  9
$HALOGAP
280
0
  9
$OBSCOLOR
 70
257
  9
$OBSLTYPE
280
0
  9
$INTERSECTIONDISPLAY
280
0
  9
$INTERSECTIONCOLOR
 70
257
  9
$DIMASSOC
280
2
  9
$PROJECTNAME
  1

  9
$CAMERADISPLAY
290
0
  9
$LENSLENGTH
 40
50.0
  9
$CAMERAHEIGHT
 40
0.0
  9
$STEPSPERSEC
 40
24.0
  9
$STEPSIZE
 40
100.0
  9
$3DDWFPREC
 40
2.0
  9
$PSOLWIDTH
 40
0.005
  9
$PSOLHEIGHT
 40
0.08
  9
$LOFTANG1
 40
1.570796326795
  9
$LOFTANG2
 40
1.570796326795
  9
$LOFTMAG1
 40
0.0
  9
$LOFTMAG2
 40
0.0
  9
$LOFTPARAM
 70
7
  9
$LOFTNORMALS
280
1
  9
$LATITUDE
 40
37.795
  9
$LONGITUDE
 40
-122.394
  9
$NORTHDIRECTION
 40
0.0
  9
$TIMEZONE
 70
-8000
  9
$LIGHTGLYPHDISPLAY
280
1
  9
$TILEMODELIGHTSYNCH
280
1
  9
$CMATERIAL
347
20
  9
$SOLIDHIST
280
0
  9
$SHOWHIST
280
1
  9
$DWFFRAME
280
2
  9
$DGNFRAME
280
2
  9
$REALWORLDSCALE
290
1
  9
$INTERFERECOLOR
 62
256
  9
$CSHADOW
280
0
  9
$SHADOWPLANELOCATION
 40
0.0
  0
ENDSEC
  0
SECTION
  2
CLASSES
  0
CLASS
  1
ACDBDICTIONARYWDFLT
  2
AcDbDictionaryWithDefault
  3
ObjectDBX Classes
 90
0
 91
0
280
0
281
0
  0
CLASS
  1
SUN
  2
AcDbSun
  3
SCENEOE
 90
1153
 91
0
280
0
281
0
  0
CLASS
  1
VISUALSTYLE
  2
AcDbVisualStyle
  3
ObjectDBX Classes
 90
4095
 91
0
280
0
281
0
  0
CLASS
  1
MATERIAL
  2
AcDbMaterial
  3
ObjectDBX Classes
 90
1153
 91
0
280
0
281
0
  0
CLASS
  1
SCALE
  2
AcDbScale
  3
ObjectDBX Classes
 90
1153
 91
0
280
0
281
0
  0
CLASS
  1
TABLESTYLE
  2
AcDbTableStyle
  3
ObjectDBX Classes
 90
4095
 91
0
280
0
281
0
  0
CLASS
  1
MLEADERSTYLE
  2
AcDbMLeaderStyle
  3
ACDB_MLEADERSTYLE_CLASS
 90
4095
 91
0
280
0
281
0
  0
CLASS
  1
DICTIONARYVAR
  2
AcDbDictionaryVar
  3
ObjectDBX Classes
 90
0
 91
0
280
0
281
0
  0
CLASS
  1
CELLSTYLEMAP
  2
AcDbCellStyleMap
  3
ObjectDBX Classes
 90
1152
 91
0
280
0
281
0
  0
CLASS
  1
MENTALRAYRENDERSETTINGS
  2
AcDbMentalRayRenderSettings
  3
SCENEOE
 90
1024
 91
0
280
0
281
0
  0
CLASS
  1
ACDBDETAILVIEWSTYLE
  2
AcDbDetailViewStyle
  3
ObjectDBX Classes
 90
1025
 91
0
280
0
281
0
  0
CLASS
  1
ACDBSECTIONVIEWSTYLE
  2
AcDbSectionViewStyle
  3
ObjectDBX Classes
 90
1025
 91
0
280
0
281
0
  0
CLASS
  1
RASTERVARIABLES
  2
AcDbRasterVariables
  3
ISM
 90
0
 91
0
280
0
281
0
  0
CLASS
  1
ACDBPLACEHOLDER
  2
AcDbPlaceHolder
  3
ObjectDBX Classes
 90
0
 91
0
280
0
281
0
  0
CLASS
  1
LAYOUT
  2
AcDbLayout
  3
ObjectDBX Classes
 90
0
 91
0
280
0
281
0
  0
ENDSEC
  0
SECTION
  2
TABLES
  0
TABLE
  2
VPORT
  5
8
330
0
100
AcDbSymbolTable
 70
1
  0
VPORT
  5
23
330
8
100
AcDbSymbolTableRecord
100
AcDbViewportTableRecord
  2
*Active
 70
0
 10
0.0
 20
0.0
 11
1.0
 21
1.0
 12
0.0
 22
0.0
 13
0.0
 23
0.0
 14
0.5
 24
0.5
 15
0.5
 25
0.5
 16
0.0
 26
0.0
 36
1.0
 17
0.0
 27
0.0
 37
0.0
 40
1000.0
 41
1.34
 42
50.0
 43
0.0
 44
0.0
 50
0.0
 51
0.0
 71
0
 72
1000
 73
1
 74
3
 75
0
 76
0
 77
0
 78
0
281
0
 65
0
146
0.0
  0
ENDTAB
  0
TABLE
  2
LTYPE
  5
2
330
0
100
AcDbSymbolTable
 70
3
  0
LTYPE
  5
24
330
2
100
AcDbSymbolTableRecord
100
AcDbLinetypeTableRecord
  2
ByBlock
 70
0
  3

 72
65
 73
0
 40
0.0
  0
LTYPE
  5
25
330
2
100
AcDbSymbolTableRecord
100
AcDbLinetypeTableRecord
  2
ByLayer
 70
0
  3

 72
65
 73
0
 40
0.0
  0
LTYPE
  5
26
330
2
100
AcDbSymbolTableRecord
100
AcDbLinetypeTableRecord
  2
Continuous
 70
0
  3

 72
65
 73
0
 40
0.0
  0
ENDTAB
  0
TABLE
  2
LAYER
  5
1
330
0
100
AcDbSymbolTable
 70
7
  0
LAYER
  5
27
330
1
100
AcDbSymbolTableRecord
100
AcDbLayerTableRecord
  2
0
 70
0
 62
7
  6
Continuous
370
-3
390
13
347
21
  0
LAYER
  5
28
330
1
100
AcDbSymbolTableRecord
100
AcDbLayerTableRecord
  2
Defpoints
 70
0
 62
7
  6
Continuous
290
0
370
-3
390
13
347
21
  0
LAYER
  5
2F
330
1
100
AcDbSymbolTableRecord
100
AcDbLayerTableRecord
  2
FILL_BLACK_000000
 70
0
 62
7
420
0
  6
Continuous
370
-3
390
13
347
21
  0
LAYER
  5
32
330
1
100
AcDbSymbolTableRecord
100
AcDbLayerTableRecord
  2
FILL_RED_FF0000
 70
0
 62
7
420
16711680
  6
Continuous
370
-3
390
13
347
21
  0
LAYER
  5
35
330
1
100
AcDbSymbolTableRecord
100
AcDbLayerTableRecord
  2
FILL_LIME_00FF00
 70
0
 62
7
420
65280
  6
Continuous
370
-3
390
13
347
21
  0
LAYER
  5
38
330
1
100
AcDbSymbolTableRecord
100
AcDbLayerTableRecord
  2
FILL_YELLOW_FFFF00
 70
0
 62
7
420
16776960
  6
Continuous
370
-3
390
13
347
21
  0
LAYER
  5
3B
330
1
100
AcDbSymbolTableRecord
100
AcDbLayerTableRecord
  2
STROKE_BLACK_000000
 70
0
 62
7
420
0
  6
Continuous
370
-3
390
13
347
21
  0
ENDTAB
  0
TABLE
  2
STYLE
  5
5
330
0
100
AcDbSymbolTable
 70
1
  0
STYLE
  5
29
330
5
100
AcDbSymbolTableRecord
100
AcDbTextStyleTableRecord
  2
Standard
 70
0
 40
0.0
 41
1.0
 50
0.0
 71
0
 42
2.5
  3
txt
  4

  0
ENDTAB
  0
TABLE
  2
VIEW
  5
7
330
0
100
AcDbSymbolTable
 70
0
  0
ENDTAB
  0
TABLE
  2
UCS
  5
6
330
0
100
AcDbSymbolTable
 70
0
  0
ENDTAB
  0
TABLE
  2
APPID
  5
3
330
0
100
AcDbSymbolTable
 70
3
  0
APPID
  5
2A
330
3
100
AcDbSymbolTableRecord
100
AcDbRegAppTableRecord
  2
ACAD
 70
0
  0
APPID
  5
3D
330
3
100
AcDbSymbolTableRecord
100
AcDbRegAppTableRecord
  2
HATCHBACKGROUNDCOLOR
 70
0
  0
APPID
  5
3E
330
3
100
AcDbSymbolTableRecord
100
AcDbRegAppTableRecord
  2
EZDXF
 70
0
  0
ENDTAB
  0
TABLE
  2
DIMSTYLE
  5
4
330
0
100
AcDbSymbolTable
 70
1
100
AcDbDimStyleTable
  0
DIMSTYLE
105
2B
330
4
100
AcDbSymbolTableRecord
100
AcDbDimStyleTableRecord
  2
Standard
 70
0
 40
1.0
 41
2.5
 42
0.625
 43
3.75
 44
1.25
 45
0.0
 46
0.0
 47
0.0
 48
0.0
 49
2.5
140
2.5
141
2.5
142
0.0
143
0.03937007874
144
1.0
145
0.0
146
1.0
147
0.625
148
0.0
 69
0
 70
0
 71
0
 72
0
 73
0
 74
0
 75
0
 76
0
 77
1
 78
8
 79
3
170
0
171
3
172
1
173
0
174
0
175
0
176
0
177
0
178
0
179
2
271
2
272
2
273
2
274
3
275
0
276
0
277
2
278
44
279
0
280
0
281
0
282
0
283
0
284
8
285
0
286
0
288
0
289
3
290
0
371
-2
372
-2
  0
ENDTAB
  0
TABLE
  2
BLOCK_RECORD
  5
9
330
0
100
AcDbSymbolTable
 70
2
  0
BLOCK_RECORD
  5
17
330
9
100
AcDbSymbolTableRecord
100
AcDbBlockTableRecord
  2
*Model_Space
340
1A
 70
0
280
1
281
0
  0
BLOCK_RECORD
  5
1B
330
9
100
AcDbSymbolTableRecord
100
AcDbBlockTableRecord
  2
*Paper_Space
340
1E
 70
0
280
1
281
0
  0
ENDTAB
  0
ENDSEC
  0
SECTION
  2
BLOCKS
  0
BLOCK
  5
18
330
17
100
AcDbEntity
  8
0
100
AcDbBlockBegin
  2
*Model_Space
 70
0
 10
0.0
 20
0.0
 30
0.0
  3
*Model_Space
  1

  0
ENDBLK
  5
19
330
17
100
AcDbEntity
  8
0
100
AcDbBlockEnd
  0
BLOCK
  5
1C
330
1B
100
AcDbEntity
  8
0
100
AcDbBlockBegin
  2
*Paper_Space
 70
0
 10
0.0
 20
0.0
 30
0.0
  3
*Paper_Space
  1

  0
ENDBLK
  5
1D
330
1B
100
AcDbEntity
  8
0
100
AcDbBlockEnd
  0
ENDSEC
  0
SECTION
  2
ENTITIES
  0
HATCH
  5
30
330
17
100
AcDbEntity
  8
FILL_BLACK_000000
 62
7
420
0
100
AcDbHatch
 10
0.0
 20
0.0
 30
0.0
210
0.0
220
0.0
230
1.0
  2
SOLID
 70
1
 71
0
 91
1
 92
3
 72
0
 73
1
 93
125
 10
219.81
 20
203.33
 10
219.98
 20
205.98
 10
220.26
 20
208.6
 10
220.67
 20
211.18
 10
221.19
 20
213.72
 10
221.84
 20
216.21
 10
222.61
 20
218.65
 10
223.5
 20
221.04
 10
224.52
 20
223.37
 10
225.67
 20
225.65
 10
226.95
 20
227.86
 10
228.36
 20
230.0
 10
229.9
 20
232.08
 10
231.58
 20
234.08
 10
233.4
 20
236.0
 10
235.35
 20
237.84
 10
237.19
 20
239.79
 10
239.11
 20
241.61
 10
241.11
 20
243.29
 10
243.19
 20
244.83
 10
245.33
 20
246.24
 10
247.54
 20
247.52
 10
249.82
 20
248.67
 10
252.15
 20
249.69
 10
254.54
 20
250.58
 10
256.98
 20
251.35
 10
259.47
 20
252.0
 10
262.01
 20
252.52
 10
264.59
 20
252.93
 10
267.21
 20
253.21
 10
269.86
 20
253.38
 10
272.55
 20
253.44
 10
274.83
 20
253.38
 10
277.15
 20
253.21
 10
279.51
 20
252.93
 10
281.91
 20
252.52
 10
284.32
 20
252.0
 10
286.75
 20
251.35
 10
289.18
 20
250.58
 10
291.6
 20
249.69
 10
294.01
 20
248.67
 10
296.4
 20
247.52
 10
298.75
 20
246.24
 10
301.07
 20
244.83
 10
303.33
 20
243.29
 10
305.54
 20
241.61
 10
307.68
 20
239.79
 10
309.75
 20
237.84
 10
311.7
 20
235.79
 10
313.52
 20
233.68
 10
315.2
 20
231.53
 10
316.74
 20
229.33
 10
318.15
 20
227.09
 10
319.43
 20
224.8
 10
320.58
 20
222.49
 10
321.6
 20
220.14
 10
322.49
 20
217.76
 10
323.26
 20
215.36
 10
323.91
 20
212.94
 10
324.43
 20
210.5
 10
324.84
 20
208.05
 10
325.12
 20
205.59
 10
325.29
 20
203.11
 10
325.35
 20
200.64
 10
325.35
 20
68.64
 10
325.29
 20
66.39
 10
325.12
 20
64.12
 10
324.84
 20
61.83
 10
324.45
 20
59.49
 10
323.32
 20
54.63
 10
321.75
 20
49.44
 10
320.74
 20
47.19
 10
319.54
 20
44.94
 10
318.16
 20
42.69
 10
316.65
 20
40.44
 10
313.31
 20
35.94
 10
309.75
 20
31.44
 10
307.68
 20
29.49
 10
305.54
 20
27.67
 10
303.33
 20
25.99
 10
301.07
 20
24.45
 10
298.75
 20
23.04
 10
296.4
 20
21.76
 10
294.01
 20
20.61
 10
291.6
 20
19.59
 10
289.18
 20
18.7
 10
286.75
 20
17.93
 10
284.32
 20
17.28
 10
281.91
 20
16.76
 10
279.51
 20
16.35
 10
277.15
 20
16.07
 10
274.83
 20
15.9
 10
272.55
 20
15.84
 10
270.08
 20
15.9
 10
267.6
 20
16.07
 10
265.14
 20
16.35
 10
262.69
 20
16.76
 10
260.25
 20
17.28
 10
257.83
 20
17.93
 10
255.43
 20
18.7
 10
253.05
 20
19.59
 10
250.7
 20
20.61
 10
248.39
 20
21.76
 10
246.1
 20
23.04
 10
243.86
 20
24.45
 10
241.66
 20
25.99
 10
239.51
 20
27.67
 10
237.4
 20
29.49
 10
235.35
 20
31.44
 10
233.21
 20
33.69
 10
231.28
 20
35.94
 10
229.55
 20
38.19
 10
228.0
 20
40.44
 10
226.62
 20
42.69
 10
225.39
 20
44.94
 10
224.31
 20
47.19
 10
223.35
 20
49.44
 10
221.77
 20
54.63
 10
220.65
 20
59.49
 10
220.26
 20
61.83
 10
219.97
 20
64.12
 10
219.81
 20
66.39
 10
219.75
 20
68.64
 10
219.75
 20
200.64
 10
219.81
 20
203.33
 97
0
 75
1
 76
1
 98
0
  0
LWPOLYLINE
  5
31
330
17
100
AcDbEntity
  8
FILL_BLACK_000000
370
0
420
0
100
AcDbPolyline
 90
124
 70
1
 10
219.81
 20
203.33
 10
219.98
 20
205.98
 10
220.26
 20
208.6
 10
220.67
 20
211.18
 10
221.19
 20
213.72
 10
221.84
 20
216.21
 10
222.61
 20
218.65
 10
223.5
 20
221.04
 10
224.52
 20
223.37
 10
225.67
 20
225.65
 10
226.95
 20
227.86
 10
228.36
 20
230.0
 10
229.9
 20
232.08
 10
231.58
 20
234.08
 10
233.4
 20
236.0
 10
235.35
 20
237.84
 10
237.19
 20
239.79
 10
239.11
 20
241.61
 10
241.11
 20
243.29
 10
243.19
 20
244.83
 10
245.33
 20
246.24
 10
247.54
 20
247.52
 10
249.82
 20
248.67
 10
252.15
 20
249.69
 10
254.54
 20
250.58
 10
256.98
 20
251.35
 10
259.47
 20
252.0
 10
262.01
 20
252.52
 10
264.59
 20
252.93
 10
267.21
 20
253.21
 10
269.86
 20
253.38
 10
272.55
 20
253.44
 10
274.83
 20
253.38
 10
277.15
 20
253.21
 10
279.51
 20
252.93
 10
281.91
 20
252.52
 10
284.32
 20
252.0
 10
286.75
 20
251.35
 10
289.18
 20
250.58
 10
291.6
 20
249.69
 10
294.01
 20
248.67
 10
296.4
 20
247.52
 10
298.75
 20
246.24
 10
301.07
 20
244.83
 10
303.33
 20
243.29
 10
305.54
 20
241.61
 10
307.68
 20
239.79
 10
309.75
 20
237.84
 10
311.7
 20
235.79
 10
313.52
 20
233.68
 10
315.2
 20
231.53
 10
316.74
 20
229.33
 10
318.15
 20
227.09
 10
319.43
 20
224.8
 10
320.58
 20
222.49
 10
321.6
 20
220.14
 10
322.49
 20
217.76
 10
323.26
 20
215.36
 10
323.91
 20
212.94
 10
324.43
 20
210.5
 10
324.84
 20
208.05
 10
325.12
 20
205.59
 10
325.29
 20
203.11
 10
325.35
 20
200.64
 10
325.35
 20
68.64
 10
325.29
 20
66.39
 10
325.12
 20
64.12
 10
324.84
 20
61.83
 10
324.45
 20
59.49
 10
323.32
 20
54.63
 10
321.75
 20
49.44
 10
320.74
 20
47.19
 10
319.54
 20
44.94
 10
318.16
 20
42.69
 10
316.65
 20
40.44
 10
313.31
 20
35.94
 10
309.75
 20
31.44
 10
307.68
 20
29.49
 10
305.54
 20
27.67
 10
303.33
 20
25.99
 10
301.07
 20
24.45
 10
298.75
 20
23.04
 10
296.4
 20
21.76
 10
294.01
 20
20.61
 10
291.6
 20
19.59
 10
289.18
 20
18.7
 10
286.75
 20
17.93
 10
284.32
 20
17.28
 10
281.91
 20
16.76
 10
279.51
 20
16.35
 10
277.15
 20
16.07
 10
274.83
 20
15.9
 10
272.55
 20
15.84
 10
270.08
 20
15.9
 10
267.6
 20
16.07
 10
265.14
 20
16.35
 10
262.69
 20
16.76
 10
260.25
 20
17.28
 10
257.83
 20
17.93
 10
255.43
 20
18.7
 10
253.05
 20
19.59
 10
250.7
 20
20.61
 10
248.39
 20
21.76
 10
246.1
 20
23.04
 10
243.86
 20
24.45
 10
241.66
 20
25.99
 10
239.51
 20
27.67
 10
237.4
 20
29.49
 10
235.35
 20
31.44
 10
233.21
 20
33.69
 10
231.28
 20
35.94
 10
229.55
 20
38.19
 10
228.0
 20
40.44
 10
226.62
 20
42.69
 10
225.39
 20
44.94
 10
224.31
 20
47.19
 10
223.35
 20
49.44
 10
221.77
 20
54.63
 10
220.65
 20
59.49
 10
220.26
 20
61.83
 10
219.97
 20
64.12
 10
219.81
 20
66.39
 10
219.75
 20
68.64
 10
219.75
 20
200.64
  0
HATCH
  5
33
330
17
100
AcDbEntity
  8
FILL_RED_FF0000
 62
7
420
16711680
100
AcDbHatch
 10
0.0
 20
0.0
 30
0.0
210
0.0
220
0.0
230
1.0
  2
SOLID
 70
1
 71
0
 91
1
 92
3
 72
0
 73
1
 93
65
 10
298.81
 20
197.97
 10
298.41
 20
195.37
 10
297.75
 20
192.86
 10
296.85
 20
190.44
 10
295.73
 20
188.14
 10
294.39
 20
185.96
 10
292.86
 20
183.92
 10
291.15
 20
182.04
 10
289.27
 20
180.33
 10
287.23
 20
178.8
 10
285.05
 20
177.46
 10
282.75
 20
176.34
 10
280.33
 20
175.44
 10
277.82
 20
174.78
 10
275.22
 20
174.38
 10
272.55
 20
174.24
 10
269.88
 20
174.38
 10
267.28
 20
174.78
 10
264.77
 20
175.44
 10
262.35
 20
176.34
 10
260.05
 20
177.46
 10
257.87
 20
178.8
 10
255.83
 20
180.33
 10
253.95
 20
182.04
 10
252.24
 20
183.92
 10
250.71
 20
185.96
 10
249.37
 20
188.14
 10
248.25
 20
190.44
 10
247.35
 20
192.86
 10
246.69
 20
195.37
 10
246.29
 20
197.97
 10
246.15
 20
200.64
 10
246.29
 20
203.31
 10
246.69
 20
205.91
 10
247.35
 20
208.42
 10
248.25
 20
210.84
 10
249.37
 20
213.14
 10
250.71
 20
215.32
 10
252.24
 20
217.36
 10
253.95
 20
219.24
 10
255.83
 20
220.95
 10
257.87
 20
222.48
 10
260.05
 20
223.82
 10
262.35
 20
224.94
 10
264.77
 20
225.84
 10
267.28
 20
226.5
 10
269.88
 20
226.9
 10
272.55
 20
227.04
 10
275.22
 20
226.9
 10
277.82
 20
226.5
 10
280.33
 20
225.84
 10
282.75
 20
224.94
 10
285.05
 20
223.82
 10
287.23
 20
222.48
 10
289.27
 20
220.95
 10
291.15
 20
219.24
 10
292.86
 20
217.36
 10
294.39
 20
215.32
 10
295.73
 20
213.14
 10
296.85
 20
210.84
 10
297.75
 20
208.42
 10
298.41
 20
205.91
 10
298.81
 20
203.31
 10
298.95
 20
200.64
 10
298.81
 20
197.97
 97
0
 75
1
 76
1
 98
0
  0
LWPOLYLINE
  5
34
330
17
100
AcDbEntity
  8
FILL_RED_FF0000
370
0
420
16711680
100
AcDbPolyline
 90
64
 70
1
 10
298.81
 20
197.97
 10
298.41
 20
195.37
 10
297.75
 20
192.86
 10
296.85
 20
190.44
 10
295.73
 20
188.14
 10
294.39
 20
185.96
 10
292.86
 20
183.92
 10
291.15
 20
182.04
 10
289.27
 20
180.33
 10
287.23
 20
178.8
 10
285.05
 20
177.46
 10
282.75
 20
176.34
 10
280.33
 20
175.44
 10
277.82
 20
174.78
 10
275.22
 20
174.38
 10
272.55
 20
174.24
 10
269.88
 20
174.38
 10
267.28
 20
174.78
 10
264.77
 20
175.44
 10
262.35
 20
176.34
 10
260.05
 20
177.46
 10
257.87
 20
178.8
 10
255.83
 20
180.33
 10
253.95
 20
182.04
 10
252.24
 20
183.92
 10
250.71
 20
185.96
 10
249.37
 20
188.14
 10
248.25
 20
190.44
 10
247.35
 20
192.86
 10
246.69
 20
195.37
 10
246.29
 20
197.97
 10
246.15
 20
200.64
 10
246.29
 20
203.31
 10
246.69
 20
205.91
 10
247.35
 20
208.42
 10
248.25
 20
210.84
 10
249.37
 20
213.14
 10
250.71
 20
215.32
 10
252.24
 20
217.36
 10
253.95
 20
219.24
 10
255.83
 20
220.95
 10
257.87
 20
222.48
 10
260.05
 20
223.82
 10
262.35
 20
224.94
 10
264.77
 20
225.84
 10
267.28
 20
226.5
 10
269.88
 20
226.9
 10
272.55
 20
227.04
 10
275.22
 20
226.9
 10
277.82
 20
226.5
 10
280.33
 20
225.84
 10
282.75
 20
224.94
 10
285.05
 20
223.82
 10
287.23
 20
222.48
 10
289.27
 20
220.95
 10
291.15
 20
219.24
 10
292.86
 20
217.36
 10
294.39
 20
215.32
 10
295.73
 20
213.14
 10
296.85
 20
210.84
 10
297.75
 20
208.42
 10
298.41
 20
205.91
 10
298.81
 20
203.31
 10
298.95
 20
200.64
  0
HATCH
  5
36
330
17
100
AcDbEntity
  8
FILL_LIME_00FF00
 62
7
420
65280
100
AcDbHatch
 10
0.0
 20
0.0
 30
0.0
210
0.0
220
0.0
230
1.0
  2
SOLID
 70
1
 71
0
 91
1
 92
3
 72
0
 73
1
 93
65
 10
298.81
 20
65.97
 10
298.41
 20
63.37
 10
297.75
 20
60.86
 10
296.85
 20
58.44
 10
295.73
 20
56.14
 10
294.39
 20
53.96
 10
292.86
 20
51.92
 10
291.15
 20
50.04
 10
289.27
 20
48.33
 10
287.23
 20
46.8
 10
285.05
 20
45.46
 10
282.75
 20
44.34
 10
280.33
 20
43.44
 10
277.82
 20
42.78
 10
275.22
 20
42.38
 10
272.55
 20
42.24
 10
269.88
 20
42.38
 10
267.28
 20
42.78
 10
264.77
 20
43.44
 10
262.35
 20
44.34
 10
260.05
 20
45.46
 10
257.87
 20
46.8
 10
255.83
 20
48.33
 10
253.95
 20
50.04
 10
252.24
 20
51.92
 10
250.71
 20
53.96
 10
249.37
 20
56.14
 10
248.25
 20
58.44
 10
247.35
 20
60.86
 10
246.69
 20
63.37
 10
246.29
 20
65.97
 10
246.15
 20
68.64
 10
246.29
 20
71.31
 10
246.69
 20
73.91
 10
247.35
 20
76.42
 10
248.25
 20
78.84
 10
249.37
 20
81.14
 10
250.71
 20
83.32
 10
252.24
 20
85.36
 10
253.95
 20
87.24
 10
255.83
 20
88.95
 10
257.87
 20
90.48
 10
260.05
 20
91.82
 10
262.35
 20
92.94
 10
264.77
 20
93.84
 10
267.28
 20
94.5
 10
269.88
 20
94.9
 10
272.55
 20
95.04
 10
275.22
 20
94.9
 10
277.82
 20
94.5
 10
280.33
 20
93.84
 10
282.75
 20
92.94
 10
285.05
 20
91.82
 10
287.23
 20
90.48
 10
289.27
 20
88.95
 10
291.15
 20
87.24
 10
292.86
 20
85.36
 10
294.39
 20
83.32
 10
295.73
 20
81.14
 10
296.85
 20
78.84
 10
297.75
 20
76.42
 10
298.41
 20
73.91
 10
298.81
 20
71.31
 10
298.95
 20
68.64
 10
298.81
 20
65.97
 97
0
 75
1
 76
1
 98
0
  0
LWPOLYLINE
  5
37
330
17
100
AcDbEntity
  8
FILL_LIME_00FF00
370
0
420
65280
100
AcDbPolyline
 90
64
 70
1
 10
298.81
 20
65.97
 10
298.41
 20
63.37
 10
297.75
 20
60.86
 10
296.85
 20
58.44
 10
295.73
 20
56.14
 10
294.39
 20
53.96
 10
292.86
 20
51.92
 10
291.15
 20
50.04
 10
289.27
 20
48.33
 10
287.23
 20
46.8
 10
285.05
 20
45.46
 10
282.75
 20
44.34
 10
280.33
 20
43.44
 10
277.82
 20
42.78
 10
275.22
 20
42.38
 10
272.55
 20
42.24
 10
269.88
 20
42.38
 10
267.28
 20
42.78
 10
264.77
 20
43.44
 10
262.35
 20
44.34
 10
260.05
 20
45.46
 10
257.87
 20
46.8
 10
255.83
 20
48.33
 10
253.95
 20
50.04
 10
252.24
 20
51.92
 10
250.71
 20
53.96
 10
249.37
 20
56.14
 10
248.25
 20
58.44
 10
247.35
 20
60.86
 10
246.69
 20
63.37
 10
246.29
 20
65.97
 10
246.15
 20
68.64
 10
246.29
 20
71.31
 10
246.69
 20
73.91
 10
247.35
 20
76.42
 10
248.25
 20
78.84
 10
249.37
 20
81.14
 10
250.71
 20
83.32
 10
252.24
 20
85.36
 10
253.95
 20
87.24
 10
255.83
 20
88.95
 10
257.87
 20
90.48
 10
260.05
 20
91.82
 10
262.35
 20
92.94
 10
264.77
 20
93.84
 10
267.28
 20
94.5
 10
269.88
 20
94.9
 10
272.55
 20
95.04
 10
275.22
 20
94.9
 10
277.82
 20
94.5
 10
280.33
 20
93.84
 10
282.75
 20
92.94
 10
285.05
 20
91.82
 10
287.23
 20
90.48
 10
289.27
 20
88.95
 10
291.15
 20
87.24
 10
292.86
 20
85.36
 10
294.39
 20
83.32
 10
295.73
 20
81.14
 10
296.85
 20
78.84
 10
297.75
 20
76.42
 10
298.41
 20
73.91
 10
298.81
 20
71.31
 10
298.95
 20
68.64
  0
HATCH
  5
39
330
17
100
AcDbEntity
  8
FILL_YELLOW_FFFF00
 62
7
420
16776960
100
AcDbHatch
 10
0.0
 20
0.0
 30
0.0
210
0.0
220
0.0
230
1.0
  2
SOLID
 70
1
 71
0
 91
1
 92
3
 72
0
 73
1
 93
65
 10
298.81
 20
131.97
 10
298.41
 20
129.37
 10
297.75
 20
126.86
 10
296.85
 20
124.44
 10
295.73
 20
122.14
 10
294.39
 20
119.96
 10
292.86
 20
117.92
 10
291.15
 20
116.04
 10
289.27
 20
114.33
 10
287.23
 20
112.8
 10
285.05
 20
111.46
 10
282.75
 20
110.34
 10
280.33
 20
109.44
 10
277.82
 20
108.78
 10
275.22
 20
108.38
 10
272.55
 20
108.24
 10
269.88
 20
108.38
 10
267.28
 20
108.78
 10
264.77
 20
109.44
 10
262.35
 20
110.34
 10
260.05
 20
111.46
 10
257.87
 20
112.8
 10
255.83
 20
114.33
 10
253.95
 20
116.04
 10
252.24
 20
117.92
 10
250.71
 20
119.96
 10
249.37
 20
122.14
 10
248.25
 20
124.44
 10
247.35
 20
126.86
 10
246.69
 20
129.37
 10
246.29
 20
131.97
 10
246.15
 20
134.64
 10
246.29
 20
137.31
 10
246.69
 20
139.91
 10
247.35
 20
142.42
 10
248.25
 20
144.84
 10
249.37
 20
147.14
 10
250.71
 20
149.32
 10
252.24
 20
151.36
 10
253.95
 20
153.24
 10
255.83
 20
154.95
 10
257.87
 20
156.48
 10
260.05
 20
157.82
 10
262.35
 20
158.94
 10
264.77
 20
159.84
 10
267.28
 20
160.5
 10
269.88
 20
160.9
 10
272.55
 20
161.04
 10
275.22
 20
160.9
 10
277.82
 20
160.5
 10
280.33
 20
159.84
 10
282.75
 20
158.94
 10
285.05
 20
157.82
 10
287.23
 20
156.48
 10
289.27
 20
154.95
 10
291.15
 20
153.24
 10
292.86
 20
151.36
 10
294.39
 20
149.32
 10
295.73
 20
147.14
 10
296.85
 20
144.84
 10
297.75
 20
142.42
 10
298.41
 20
139.91
 10
298.81
 20
137.31
 10
298.95
 20
134.64
 10
298.81
 20
131.97
 97
0
 75
1
 76
1
 98
0
  0
LWPOLYLINE
  5
3A
330
17
100
AcDbEntity
  8
FILL_YELLOW_FFFF00
370
0
420
16776960
100
AcDbPolyline
 90
64
 70
1
 10
298.81
 20
131.97
 10
298.41
 20
129.37
 10
297.75
 20
126.86
 10
296.85
 20
124.44
 10
295.73
 20
122.14
 10
294.39
 20
119.96
 10
292.86
 20
117.92
 10
291.15
 20
116.04
 10
289.27
 20
114.33
 10
287.23
 20
112.8
 10
285.05
 20
111.46
 10
282.75
 20
110.34
 10
280.33
 20
109.44
 10
277.82
 20
108.78
 10
275.22
 20
108.38
 10
272.55
 20
108.24
 10
269.88
 20
108.38
 10
267.28
 20
108.78
 10
264.77
 20
109.44
 10
262.35
 20
110.34
 10
260.05
 20
111.46
 10
257.87
 20
112.8
 10
255.83
 20
114.33
 10
253.95
 20
116.04
 10
252.24
 20
117.92
 10
250.71
 20
119.96
 10
249.37
 20
122.14
 10
248.25
 20
124.44
 10
247.35
 20
126.86
 10
246.69
 20
129.37
 10
246.29
 20
131.97
 10
246.15
 20
134.64
 10
246.29
 20
137.31
 10
246.69
 20
139.91
 10
247.35
 20
142.42
 10
248.25
 20
144.84
 10
249.37
 20
147.14
 10
250.71
 20
149.32
 10
252.24
 20
151.36
 10
253.95
 20
153.24
 10
255.83
 20
154.95
 10
257.87
 20
156.48
 10
260.05
 20
157.82
 10
262.35
 20
158.94
 10
264.77
 20
159.84
 10
267.28
 20
160.5
 10
269.88
 20
160.9
 10
272.55
 20
161.04
 10
275.22
 20
160.9
 10
277.82
 20
160.5
 10
280.33
 20
159.84
 10
282.75
 20
158.94
 10
285.05
 20
157.82
 10
287.23
 20
156.48
 10
289.27
 20
154.95
 10
291.15
 20
153.24
 10
292.86
 20
151.36
 10
294.39
 20
149.32
 10
295.73
 20
147.14
 10
296.85
 20
144.84
 10
297.75
 20
142.42
 10
298.41
 20
139.91
 10
298.81
 20
137.31
 10
298.95
 20
134.64
  0
LWPOLYLINE
  5
3C
330
17
100
AcDbEntity
  8
STROKE_BLACK_000000
370
0
420
0
100
AcDbPolyline
 90
131
 70
0
 10
211.3499999999999
 20
200.63999999999987
 10
211.42031249999988
 20
203.77535156249982
 10
211.63124999999994
 20
206.87906249999978
 10
211.9828124999999
 20
209.94761718749973
 10
212.4749999999999
 20
212.9774999999997
 10
213.1078124999999
 20
215.9651953124997
 10
213.8812499999999
 20
218.90718749999968
 10
214.7953124999999
 20
221.79996093749963
 10
215.8499999999999
 20
224.63999999999965
 10
217.0453124999999
 20
227.42378906249965
 10
218.3812499999999
 20
230.14781249999965
 10
219.8578124999999
 20
232.80855468749968
 10
221.4749999999999
 20
235.40249999999972
 10
223.2328124999999
 20
237.92613281249976
 10
225.1312499999999
 20
240.37593749999982
 10
227.1703124999999
 20
242.74839843749987
 10
229.3499999999999
 20
245.03999999999996
 10
231.43037109374987
 20
247.0219335937499
 10
233.61796874999985
 20
248.91421874999986
 10
235.9075195312498
 20
250.71158203124983
 10
238.2937499999998
 20
252.40874999999977
 10
240.7713867187498
 20
254.00044921874974
 10
243.33515624999978
 20
255.4814062499997
 10
245.9797851562498
 20
256.8463476562497
 10
248.69999999999982
 20
258.08999999999963
 10
251.49052734374982
 20
259.2070898437496
 10
254.34609374999985
 20
260.19234374999957
 10
257.26142578124984
 20
261.04048828124957
 10
260.2312499999998
 20
261.7462499999995
 10
263.2502929687498
 20
262.3043554687495
 10
266.3132812499998
 20
262.70953124999954
 10
269.4149414062498
 20
262.9565039062495
 10
272.5499999999997
 20
263.0399999999995
 10
275.4741210937497
 20
262.9565039062495
 10
278.3929687499997
 20
262.70953124999954
 10
281.3012695312497
 20
262.3043554687495
 10
284.19374999999974
 20
261.7462499999995
 10
287.0651367187497
 20
261.04048828124957
 10
289.9101562499998
 20
260.19234374999957
 10
292.7235351562498
 20
259.2070898437496
 10
295.49999999999983
 20
258.08999999999963
 10
298.23427734374985
 20
256.8463476562497
 10
300.9210937499999
 20
255.4814062499997
 10
303.5551757812499
 20
254.00044921874974
 10
306.1312499999999
 20
252.40874999999977
 10
308.64404296875
 20
250.7115820312498
 10
311.08828124999997
 20
248.91421874999986
 10
313.45869140625
 20
247.0219335937499
 10
315.75
 20
245.03999999999996
 10
317.9296875
 20
242.74839843749987
 10
319.96875
 20
240.37593749999982
 10
321.8671875
 20
237.92613281249976
 10
323.625
 20
235.40249999999972
 10
325.2421875
 20
232.80855468749968
 10
326.71875
 20
230.14781249999965
 10
328.0546875
 20
227.42378906249965
 10
329.25
 20
224.63999999999965
 10
330.3046875
 20
221.79996093749966
 10
331.21875
 20
218.90718749999968
 10
331.9921875
 20
215.96519531249967
 10
332.625
 20
212.9774999999997
 10
333.1171875
 20
209.94761718749976
 10
333.46875
 20
206.87906249999978
 10
333.6796875
 20
203.77535156249982
 10
333.75
 20
200.63999999999987
 10
333.75
 20
68.63999999999942
 10
333.6796875
 20
65.71587890624943
 10
333.46875
 20
62.79703124999946
 10
333.1171875
 20
59.88873046874946
 10
332.625
 20
56.99624999999949
 10
331.9921875
 20
54.12486328124953
 10
331.21875
 20
51.279843749999515
 10
330.3046875
 20
48.46646484374952
 10
329.25
 20
45.68999999999954
 10
328.0546875
 20
42.95572265624952
 10
326.71875
 20
40.26890624999956
 10
325.2421875
 20
37.6348242187496
 10
323.625
 20
35.05874999999958
 10
321.8671875
 20
32.54595703124957
 10
319.96875
 20
30.101718749999634
 10
317.9296875
 20
27.73130859374959
 10
315.75
 20
25.4399999999996
 10
313.45869140625
 20
23.2603124999996
 10
311.08828124999997
 20
21.22124999999963
 10
308.64404296875
 20
19.3228124999996
 10
306.13124999999997
 20
17.5649999999996
 10
303.5551757812499
 20
15.9478124999996
 10
300.9210937499999
 20
14.4712499999996
 10
298.23427734374985
 20
13.1353124999996
 10
295.49999999999983
 20
11.9399999999996
 10
292.7235351562498
 20
10.8853124999996
 10
289.9101562499998
 20
9.9712499999996
 10
287.0651367187497
 20
9.1978124999996
 10
284.19374999999974
 20
8.5649999999996
 10
281.3012695312497
 20
8.0728124999996
 10
278.3929687499997
 20
7.7212499999996
 10
275.4741210937497
 20
7.5103124999996
 10
272.5499999999997
 20
7.4399999999996
 10
269.4149414062498
 20
7.5103124999996
 10
266.3132812499998
 20
7.7212499999996
 10
263.2502929687498
 20
8.0728124999996
 10
260.2312499999998
 20
8.5649999999996
 10
257.26142578124984
 20
9.1978124999996
 10
254.34609374999982
 20
9.9712499999996
 10
251.49052734374982
 20
10.8853124999996
 10
248.69999999999982
 20
11.9399999999996
 10
245.9797851562498
 20
13.1353124999996
 10
243.33515624999978
 20
14.4712499999996
 10
240.7713867187498
 20
15.9478124999996
 10
238.2937499999998
 20
17.5649999999996
 10
235.90751953124982
 20
19.3228124999996
 10
233.61796874999985
 20
21.2212499999996
 10
231.43037109374984
 20
23.2603124999996
 10
229.3499999999999
 20
25.4399999999996
 10
227.17031249999988
 20
27.731308593749617
 10
225.13124999999994
 20
30.101718749999634
 10
223.2328124999999
 20
32.5459570312496
 10
221.4749999999999
 20
35.05874999999958
 10
219.8578124999999
 20
37.6348242187496
 10
218.3812499999999
 20
40.26890624999956
 10
217.0453124999999
 20
42.95572265624952
 10
215.8499999999999
 20
45.68999999999954
 10
214.7953124999999
 20
48.46646484374952
 10
213.8812499999999
 20
51.279843749999515
 10
213.1078124999999
 20
54.12486328124953
 10
212.4749999999999
 20
56.99624999999949
 10
211.9828124999999
 20
59.888730468749486
 10
211.6312499999999
 20
62.79703124999946
 10
211.4203124999999
 20
65.71587890624943
 10
211.3499999999999
 20
68.63999999999942
 10
211.3499999999999
 20
200.63999999999987
  0
ENDSEC
  0
SECTION
  2
OBJECTS
  0
DICTIONARY
  5
A
330
0
100
AcDbDictionary
281
1
  3
ACAD_COLOR
350
B
  3
ACAD_GROUP
350
C
  3
ACAD_LAYOUT
350
D
  3
ACAD_MATERIAL
350
E
  3
ACAD_MLEADERSTYLE
350
F
  3
ACAD_MLINESTYLE
350
10
  3
ACAD_PLOTSETTINGS
350
11
  3
ACAD_PLOTSTYLENAME
350
12
  3
ACAD_SCALELIST
350
14
  3
ACAD_TABLESTYLE
350
15
  3
ACAD_VISUALSTYLE
350
16
  3
EZDXF_META
350
2D
  0
DICTIONARY
  5
B
330
A
100
AcDbDictionary
281
1
  0
DICTIONARY
  5
C
330
A
100
AcDbDictionary
281
1
  0
DICTIONARY
  5
D
330
A
100
AcDbDictionary
281
1
  3
Model
350
1A
  3
Layout1
350
1E
  0
DICTIONARY
  5
E
330
A
100
AcDbDictionary
281
1
  3
ByBlock
350
1F
  3
ByLayer
350
20
  3
Global
350
21
  0
DICTIONARY
  5
F
330
A
100
AcDbDictionary
281
1
  3
Standard
350
2C
  0
DICTIONARY
  5
10
330
A
100
AcDbDictionary
281
1
  3
Standard
350
22
  0
DICTIONARY
  5
11
330
A
100
AcDbDictionary
281
1
  0
ACDBDICTIONARYWDFLT
  5
12
330
A
100
AcDbDictionary
281
1
  3
Normal
350
13
100
AcDbDictionaryWithDefault
340
13
  0
ACDBPLACEHOLDER
  5
13
330
12
  0
DICTIONARY
  5
14
330
A
100
AcDbDictionary
281
1
  0
DICTIONARY
  5
15
330
A
100
AcDbDictionary
281
1
  0
DICTIONARY
  5
16
330
A
100
AcDbDictionary
281
1
  0
LAYOUT
  5
1A
330
D
100
AcDbPlotSettings
  1

  4
A3
  6

 40
7.5
 41
20.0
 42
7.5
 43
20.0
 44
420.0
 45
297.0
 46
0.0
 47
0.0
 48
0.0
 49
0.0
140
0.0
141
0.0
142
1.0
143
1.0
 70
1024
 72
1
 73
0
 74
5
  7

 75
16
 76
0
 77
2
 78
300
147
1.0
148
0.0
149
0.0
100
AcDbLayout
  1
Model
 70
1
 71
0
 10
0.0
 20
0.0
 11
420.0
 21
297.0
 12
0.0
 22
0.0
 32
0.0
 14
1e+20
 24
1e+20
 34
1e+20
 15
-1e+20
 25
-1e+20
 35
-1e+20
146
0.0
 13
0.0
 23
0.0
 33
0.0
 16
1.0
 26
0.0
 36
0.0
 17
0.0
 27
1.0
 37
0.0
 76
1
330
17
  0
LAYOUT
  5
1E
330
D
100
AcDbPlotSettings
  1

  4
A3
  6

 40
7.5
 41
20.0
 42
7.5
 43
20.0
 44
420.0
 45
297.0
 46
0.0
 47
0.0
 48
0.0
 49
0.0
140
0.0
141
0.0
142
1.0
143
1.0
 70
0
 72
1
 73
0
 74
5
  7

 75
16
 76
0
 77
2
 78
300
147
1.0
148
0.0
149
0.0
100
AcDbLayout
  1
Layout1
 70
1
 71
1
 10
0.0
 20
0.0
 11
420.0
 21
297.0
 12
0.0
 22
0.0
 32
0.0
 14
1e+20
 24
1e+20
 34
1e+20
 15
-1e+20
 25
-1e+20
 35
-1e+20
146
0.0
 13
0.0
 23
0.0
 33
0.0
 16
1.0
 26
0.0
 36
0.0
 17
0.0
 27
1.0
 37
0.0
 76
1
330
1B
  0
MATERIAL
  5
1F
102
{ACAD_REACTORS
330
E
102
}
330
E
100
AcDbMaterial
  1
ByBlock
  2

 70
0
 40
1.0
 71
1
 41
1.0
 91
-1023410177
 42
1.0
 72
1
  3

 73
1
 74
1
 75
1
 44
0.5
 73
0
 45
1.0
 46
1.0
 77
1
  4

 78
1
 79
1
170
1
 48
1.0
171
1
  6

172
1
173
1
174
1
140
1.0
141
1.0
175
1
  7

176
1
177
1
178
1
143
1.0
179
1
  8

270
1
271
1
272
1
145
1.0
146
1.0
273
1
  9

274
1
275
1
276
1
 42
1.0
 72
1
  3

 73
1
 74
1
 75
1
 94
63
  0
MATERIAL
  5
20
102
{ACAD_REACTORS
330
E
102
}
330
E
100
AcDbMaterial
  1
ByLayer
  2

 70
0
 40
1.0
 71
1
 41
1.0
 91
-1023410177
 42
1.0
 72
1
  3

 73
1
 74
1
 75
1
 44
0.5
 73
0
 45
1.0
 46
1.0
 77
1
  4

 78
1
 79
1
170
1
 48
1.0
171
1
  6

172
1
173
1
174
1
140
1.0
141
1.0
175
1
  7

176
1
177
1
178
1
143
1.0
179
1
  8

270
1
271
1
272
1
145
1.0
146
1.0
273
1
  9

274
1
275
1
276
1
 42
1.0
 72
1
  3

 73
1
 74
1
 75
1
 94
63
  0
MATERIAL
  5
21
102
{ACAD_REACTORS
330
E
102
}
330
E
100
AcDbMaterial
  1
Global
  2

 70
0
 40
1.0
 71
1
 41
1.0
 91
-1023410177
 42
1.0
 72
1
  3

 73
1
 74
1
 75
1
 44
0.5
 73
0
 45
1.0
 46
1.0
 77
1
  4

 78
1
 79
1
170
1
 48
1.0
171
1
  6

172
1
173
1
174
1
140
1.0
141
1.0
175
1
  7

176
1
177
1
178
1
143
1.0
179
1
  8

270
1
271
1
272
1
145
1.0
146
1.0
273
1
  9

274
1
275
1
276
1
 42
1.0
 72
1
  3

 73
1
 74
1
 75
1
 94
63
  0
MLINESTYLE
  5
22
102
{ACAD_REACTORS
330
10
102
}
330
10
100
AcDbMlineStyle
  2
Standard
 70
0
  3

 62
256
 51
90.0
 52
90.0
 71
2
 49
0.5
 62
256
  6
BYLAYER
 49
-0.5
 62
256
  6
BYLAYER
  0
MLEADERSTYLE
  5
2C
102
{ACAD_REACTORS
330
F
102
}
330
F
100
AcDbMLeaderStyle
179
2
170
2
171
1
172
0
 90
2
 40
0.0
 41
0.0
173
1
 91
-1056964608
 92
-2
290
1
 42
2.0
291
1
 43
8.0
  3
Standard
 44
4.0
300

342
29
174
1
175
1
176
0
178
1
 93
-1056964608
 45
4.0
292
0
297
0
 46
4.0
 94
-1056964608
 47
1.0
 49
1.0
140
1.0
294
1
141
0.0
177
0
142
1.0
295
0
296
0
143
3.75
271
0
272
9
273
9
  0
DICTIONARY
  5
2D
330
A
100
AcDbDictionary
280
1
281
1
  3
CREATED_BY_EZDXF
350
2E
  3
WRITTEN_BY_EZDXF
350
3F
  0
DICTIONARYVAR
  5
2E
330
2D
100
DictionaryVariables
280
0
  1
1.4.4 @ 2026-07-10T01:53:50.957565+00:00
  0
DICTIONARYVAR
  5
3F
330
2D
100
DictionaryVariables
280
0
  1
1.4.4 @ 2026-07-10T01:53:50.960116+00:00
  0
ENDSEC
  0
EOF
