  0
SECTION
  2
HEADER
  9
$ACADVER
  1
AC1024
  9
$ACADMAINTVER
 70
6
  9
$DWGCODEPAGE
  3
ANSI_1252
  9
$LASTSAVEDBY
  1
ezdxf
  9
$INSBASE
 10
0.0
 20
0.0
 30
0.0
  9
$EXTMIN
 10
1e+20
 20
1e+20
 30
1e+20
  9
$EXTMAX
 10
-1e+20
 20
-1e+20
 30
-1e+20
  9
$LIMMIN
 10
0.0
 20
0.0
  9
$LIMMAX
 10
420.0
 20
297.0
  9
$ORTHOMODE
 70
0
  9
$REGENMODE
 70
1
  9
$FILLMODE
 70
1
  9
$QTEXTMODE
 70
0
  9
$MIRRTEXT
 70
1
  9
$LTSCALE
 40
1.0
  9
$ATTMODE
 70
1
  9
$TEXTSIZE
 40
2.5
  9
$TRACEWID
 40
1.0
  9
$TEXTSTYLE
  7
Standard
  9
$CLAYER
  8
0
  9
$CELTYPE
  6
ByLayer
  9
$CECOLOR
 62
256
  9
$CELTSCALE
 40
1.0
  9
$DISPSILH
 70
0
  9
$DIMSCALE
 40
1.0
  9
$DIMASZ
 40
2.5
  9
$DIMEXO
 40
0.625
  9
$DIMDLI
 40
3.75
  9
$DIMRND
 40
0.0
  9
$DIMDLE
 40
0.0
  9
$DIMEXE
 40
1.25
  9
$DIMTP
 40
0.0
  9
$DIMTM
 40
0.0
  9
$DIMTXT
 40
2.5
  9
$DIMCEN
 40
2.5
  9
$DIMTSZ
 40
0.0
  9
$DIMTOL
 70
0
  9
$DIMLIM
 70
0
  9
$DIMTIH
 70
0
  9
$DIMTOH
 70
0
  9
$DIMSE1
 70
0
  9
$DIMSE2
 70
0
  9
$DIMTAD
 70
1
  9
$DIMZIN
 70
8
  9
$DIMBLK
  1

  9
$DIMASO
 70
1
  9
$DIMSHO
 70
1
  9
$DIMPOST
  1

  9
$DIMAPOST
  1

  9
$DIMALT
 70
0
  9
$DIMALTD
 70
3
  9
$DIMALTF
 40
0.03937007874
  9
$DIMLFAC
 40
1.0
  9
$DIMTOFL
 70
1
  9
$DIMTVP
 40
0.0
  9
$DIMTIX
 70
0
  9
$DIMSOXD
 70
0
  9
$DIMSAH
 70
0
  9
$DIMBLK1
  1

  9
$DIMBLK2
  1

  9
$DIMSTYLE
  2
ISO-25
  9
$DIMCLRD
 70
0
  9
$DIMCLRE
 70
0
  9
$DIMCLRT
 70
0
  9
$DIMTFAC
 40
1.0
  9
$DIMGAP
 40
0.625
  9
$DIMJUST
 70
0
  9
$DIMSD1
 70
0
  9
$DIMSD2
 70
0
  9
$DIMTOLJ
 70
0
  9
$DIMTZIN
 70
8
  9
$DIMALTZ
 70
0
  9
$DIMALTTZ
 70
0
  9
$DIMUPT
 70
0
  9
$DIMDEC
 70
2
  9
$DIMTDEC
 70
2
  9
$DIMALTU
 70
2
  9
$DIMALTTD
 70
3
  9
$DIMTXSTY
  7
Standard
  9
$DIMAUNIT
 70
0
  9
$DIMADEC
 70
0
  9
$DIMALTRND
 40
0.0
  9
$DIMAZIN
 70
0
  9
$DIMDSEP
 70
44
  9
$DIMATFIT
 70
3
  9
$DIMFRAC
 70
0
  9
$DIMLDRBLK
  1

  9
$DIMLUNIT
 70
2
  9
$DIMLWD
 70
-2
  9
$DIMLWE
 70
-2
  9
$DIMTMOVE
 70
0
  9
$DIMFXL
 40
1.0
  9
$DIMFXLON
 70
0
  9
$DIMJOGANG
 40
0.785398163397
  9
$DIMTFILL
 70
0
  9
$DIMTFILLCLR
 70
0
  9
$DIMARCSYM
 70
0
  9
$DIMLTYPE
  6

  9
$DIMLTEX1
  6

  9
$DIMLTEX2
  6

  9
$DIMTXTDIRECTION
 70
0
  9
$LUNITS
 70
2
  9
$LUPREC
 70
4
  9
$SKETCHINC
 40
1.0
  9
$FILLETRAD
 40
10.0
  9
$AUNITS
 70
0
  9
$AUPREC
 70
2
  9
$MENU
  1
.
  9
$ELEVATION
 40
0.0
  9
$PELEVATION
 40
0.0
  9
$THICKNESS
 40
0.0
  9
$LIMCHECK
 70
0
  9
$CHAMFERA
 40
0.0
  9
$CHAMFERB
 40
0.0
  9
$CHAMFERC
 40
0.0
  9
$CHAMFERD
 40
0.0
  9
$SKPOLY
 70
0
  9
$TDCREATE
 40
2461232.4124189815
  9
$TDUCREATE
 40
2458532.153996898
  9
$TDUPDATE
 40
2461232.4124189815
  9
$TDUUPDATE
 40
2458532.1544311
  9
$TDINDWG
 40
0.0
  9
$TDUSRTIMER
 40
0.0
  9
$USRTIMER
 70
1
  9
$ANGBASE
 50
0.0
  9
$ANGDIR
 70
0
  9
$PDMODE
 70
0
  9
$PDSIZE
 40
0.0
  9
$PLINEWID
 40
0.0
  9
$SPLFRAME
 70
0
  9
$SPLINETYPE
 70
6
  9
$SPLINESEGS
 70
8
  9
$HANDSEED
  5
44
  9
$SURFTAB1
 70
6
  9
$SURFTAB2
 70
6
  9
$SURFTYPE
 70
6
  9
$SURFU
 70
6
  9
$SURFV
 70
6
  9
$UCSBASE
  2

  9
$UCSNAME
  2

  9
$UCSORG
 10
0.0
 20
0.0
 30
0.0
  9
$UCSXDIR
 10
1.0
 20
0.0
 30
0.0
  9
$UCSYDIR
 10
0.0
 20
1.0
 30
0.0
  9
$UCSORTHOREF
  2

  9
$UCSORTHOVIEW
 70
0
  9
$UCSORGTOP
 10
0.0
 20
0.0
 30
0.0
  9
$UCSORGBOTTOM
 10
0.0
 20
0.0
 30
0.0
  9
$UCSORGLEFT
 10
0.0
 20
0.0
 30
0.0
  9
$UCSORGRIGHT
 10
0.0
 20
0.0
 30
0.0
  9
$UCSORGFRONT
 10
0.0
 20
0.0
 30
0.0
  9
$UCSORGBACK
 10
0.0
 20
0.0
 30
0.0
  9
$PUCSBASE
  2

  9
$PUCSNAME
  2

  9
$PUCSORG
 10
0.0
 20
0.0
 30
0.0
  9
$PUCSXDIR
 10
1.0
 20
0.0
 30
0.0
  9
$PUCSYDIR
 10
0.0
 20
1.0
 30
0.0
  9
$PUCSORTHOREF
  2

  9
$PUCSORTHOVIEW
 70
0
  9
$PUCSORGTOP
 10
0.0
 20
0.0
 30
0.0
  9
$PUCSORGBOTTOM
 10
0.0
 20
0.0
 30
0.0
  9
$PUCSORGLEFT
 10
0.0
 20
0.0
 30
0.0
  9
$PUCSORGRIGHT
 10
0.0
 20
0.0
 30
0.0
  9
$PUCSORGFRONT
 10
0.0
 20
0.0
 30
0.0
  9
$PUCSORGBACK
 10
0.0
 20
0.0
 30
0.0
  9
$USERI1
 70
0
  9
$USERI2
 70
0
  9
$USERI3
 70
0
  9
$USERI4
 70
0
  9
$USERI5
 70
0
  9
$USERR1
 40
0.0
  9
$USERR2
 40
0.0
  9
$USERR3
 40
0.0
  9
$USERR4
 40
0.0
  9
$USERR5
 40
0.0
  9
$WORLDVIEW
 70
1
  9
$SHADEDGE
 70
3
  9
$SHADEDIF
 70
70
  9
$TILEMODE
 70
1
  9
$MAXACTVP
 70
64
  9
$PINSBASE
 10
0.0
 20
0.0
 30
0.0
  9
$PLIMCHECK
 70
0
  9
$PEXTMIN
 10
1e+20
 20
1e+20
 30
1e+20
  9
$PEXTMAX
 10
-1e+20
 20
-1e+20
 30
-1e+20
  9
$PLIMMIN
 10
0.0
 20
0.0
  9
$PLIMMAX
 10
420.0
 20
297.0
  9
$UNITMODE
 70
0
  9
$VISRETAIN
 70
1
  9
$PLINEGEN
 70
0
  9
$PSLTSCALE
 70
1
  9
$TREEDEPTH
 70
3020
  9
$CMLSTYLE
  2
Standard
  9
$CMLJUST
 70
0
  9
$CMLSCALE
 40
20.0
  9
$PROXYGRAPHICS
 70
1
  9
$MEASUREMENT
 70
1
  9
$CELWEIGHT
370
-1
  9
$ENDCAPS
280
0
  9
$JOINSTYLE
280
0
  9
$LWDISPLAY
290
0
  9
$INSUNITS
 70
6
  9
$HYPERLINKBASE
  1

  9
$STYLESHEET
  1

  9
$XEDIT
290
1
  9
$CEPSNTYPE
380
0
  9
$PSTYLEMODE
290
1
  9
$FINGERPRINTGUID
  2
{B4F699B1-950A-481E-97FC-14B5E3563ED9}
  9
$VERSIONGUID
  2
{6681CF5A-F711-4C56-8C56-C93DDB66C0BD}
  9
$EXTNAMES
290
1
  9
$PSVPSCALE
 40
0.0
  9
$OLESTARTUP
290
0
  9
$SORTENTS
280
127
  9
$INDEXCTL
280
0
  9
$HIDETEXT
280
1
  9
$XCLIPFRAME
280
1
  9
$HALOGAP
280
0
  9
$OBSCOLOR
 70
257
  9
$OBSLTYPE
280
0
  9
$INTERSECTIONDISPLAY
280
0
  9
$INTERSECTIONCOLOR
 70
257
  9
$DIMASSOC
280
2
  9
$PROJECTNAME
  1

  9
$CAMERADISPLAY
290
0
  9
$LENSLENGTH
 40
50.0
  9
$CAMERAHEIGHT
 40
0.0
  9
$STEPSPERSEC
 40
24.0
  9
$STEPSIZE
 40
100.0
  9
$3DDWFPREC
 40
2.0
  9
$PSOLWIDTH
 40
0.005
  9
$PSOLHEIGHT
 40
0.08
  9
$LOFTANG1
 40
1.570796326795
  9
$LOFTANG2
 40
1.570796326795
  9
$LOFTMAG1
 40
0.0
  9
$LOFTMAG2
 40
0.0
  9
$LOFTPARAM
 70
7
  9
$LOFTNORMALS
280
1
  9
$LATITUDE
 40
37.795
  9
$LONGITUDE
 40
-122.394
  9
$NORTHDIRECTION
 40
0.0
  9
$TIMEZONE
 70
-8000
  9
$LIGHTGLYPHDISPLAY
280
1
  9
$TILEMODELIGHTSYNCH
280
1
  9
$CMATERIAL
347
20
  9
$SOLIDHIST
280
0
  9
$SHOWHIST
280
1
  9
$DWFFRAME
280
2
  9
$DGNFRAME
280
2
  9
$REALWORLDSCALE
290
1
  9
$INTERFERECOLOR
 62
256
  9
$CSHADOW
280
0
  9
$SHADOWPLANELOCATION
 40
0.0
  0
ENDSEC
  0
SECTION
  2
CLASSES
  0
CLASS
  1
ACDBDICTIONARYWDFLT
  2
AcDbDictionaryWithDefault
  3
ObjectDBX Classes
 90
0
 91
0
280
0
281
0
  0
CLASS
  1
SUN
  2
AcDbSun
  3
SCENEOE
 90
1153
 91
0
280
0
281
0
  0
CLASS
  1
VISUALSTYLE
  2
AcDbVisualStyle
  3
ObjectDBX Classes
 90
4095
 91
0
280
0
281
0
  0
CLASS
  1
MATERIAL
  2
AcDbMaterial
  3
ObjectDBX Classes
 90
1153
 91
0
280
0
281
0
  0
CLASS
  1
SCALE
  2
AcDbScale
  3
ObjectDBX Classes
 90
1153
 91
0
280
0
281
0
  0
CLASS
  1
TABLESTYLE
  2
AcDbTableStyle
  3
ObjectDBX Classes
 90
4095
 91
0
280
0
281
0
  0
CLASS
  1
MLEADERSTYLE
  2
AcDbMLeaderStyle
  3
ACDB_MLEADERSTYLE_CLASS
 90
4095
 91
0
280
0
281
0
  0
CLASS
  1
DICTIONARYVAR
  2
AcDbDictionaryVar
  3
ObjectDBX Classes
 90
0
 91
0
280
0
281
0
  0
CLASS
  1
CELLSTYLEMAP
  2
AcDbCellStyleMap
  3
ObjectDBX Classes
 90
1152
 91
0
280
0
281
0
  0
CLASS
  1
MENTALRAYRENDERSETTINGS
  2
AcDbMentalRayRenderSettings
  3
SCENEOE
 90
1024
 91
0
280
0
281
0
  0
CLASS
  1
ACDBDETAILVIEWSTYLE
  2
AcDbDetailViewStyle
  3
ObjectDBX Classes
 90
1025
 91
0
280
0
281
0
  0
CLASS
  1
ACDBSECTIONVIEWSTYLE
  2
AcDbSectionViewStyle
  3
ObjectDBX Classes
 90
1025
 91
0
280
0
281
0
  0
CLASS
  1
RASTERVARIABLES
  2
AcDbRasterVariables
  3
ISM
 90
0
 91
0
280
0
281
0
  0
CLASS
  1
ACDBPLACEHOLDER
  2
AcDbPlaceHolder
  3
ObjectDBX Classes
 90
0
 91
0
280
0
281
0
  0
CLASS
  1
LAYOUT
  2
AcDbLayout
  3
ObjectDBX Classes
 90
0
 91
0
280
0
281
0
  0
ENDSEC
  0
SECTION
  2
TABLES
  0
TABLE
  2
VPORT
  5
8
330
0
100
AcDbSymbolTable
 70
1
  0
VPORT
  5
23
330
8
100
AcDbSymbolTableRecord
100
AcDbViewportTableRecord
  2
*Active
 70
0
 10
0.0
 20
0.0
 11
1.0
 21
1.0
 12
0.0
 22
0.0
 13
0.0
 23
0.0
 14
0.5
 24
0.5
 15
0.5
 25
0.5
 16
0.0
 26
0.0
 36
1.0
 17
0.0
 27
0.0
 37
0.0
 40
1000.0
 41
1.34
 42
50.0
 43
0.0
 44
0.0
 50
0.0
 51
0.0
 71
0
 72
1000
 73
1
 74
3
 75
0
 76
0
 77
0
 78
0
281
0
 65
0
146
0.0
  0
ENDTAB
  0
TABLE
  2
LTYPE
  5
2
330
0
100
AcDbSymbolTable
 70
3
  0
LTYPE
  5
24
330
2
100
AcDbSymbolTableRecord
100
AcDbLinetypeTableRecord
  2
ByBlock
 70
0
  3

 72
65
 73
0
 40
0.0
  0
LTYPE
  5
25
330
2
100
AcDbSymbolTableRecord
100
AcDbLinetypeTableRecord
  2
ByLayer
 70
0
  3

 72
65
 73
0
 40
0.0
  0
LTYPE
  5
26
330
2
100
AcDbSymbolTableRecord
100
AcDbLinetypeTableRecord
  2
Continuous
 70
0
  3

 72
65
 73
0
 40
0.0
  0
ENDTAB
  0
TABLE
  2
LAYER
  5
1
330
0
100
AcDbSymbolTable
 70
5
  0
LAYER
  5
27
330
1
100
AcDbSymbolTableRecord
100
AcDbLayerTableRecord
  2
0
 70
0
 62
7
  6
Continuous
370
-3
390
13
347
21
  0
LAYER
  5
28
330
1
100
AcDbSymbolTableRecord
100
AcDbLayerTableRecord
  2
Defpoints
 70
0
 62
7
  6
Continuous
290
0
370
-3
390
13
347
21
  0
LAYER
  5
2F
330
1
100
AcDbSymbolTableRecord
100
AcDbLayerTableRecord
  2
FILL_WHITE_FFFFFF
 70
0
 62
7
420
16777215
  6
Continuous
370
-3
390
13
347
21
  0
LAYER
  5
32
330
1
100
AcDbSymbolTableRecord
100
AcDbLayerTableRecord
  2
FILL_BLUE_0000FF
 70
0
 62
7
420
255
  6
Continuous
370
-3
390
13
347
21
  0
LAYER
  5
3F
330
1
100
AcDbSymbolTableRecord
100
AcDbLayerTableRecord
  2
STROKE_BLUE_0000FF
 70
0
 62
7
420
255
  6
Continuous
370
-3
390
13
347
21
  0
ENDTAB
  0
TABLE
  2
STYLE
  5
5
330
0
100
AcDbSymbolTable
 70
1
  0
STYLE
  5
29
330
5
100
AcDbSymbolTableRecord
100
AcDbTextStyleTableRecord
  2
Standard
 70
0
 40
0.0
 41
1.0
 50
0.0
 71
0
 42
2.5
  3
txt
  4

  0
ENDTAB
  0
TABLE
  2
VIEW
  5
7
330
0
100
AcDbSymbolTable
 70
0
  0
ENDTAB
  0
TABLE
  2
UCS
  5
6
330
0
100
AcDbSymbolTable
 70
0
  0
ENDTAB
  0
TABLE
  2
APPID
  5
3
330
0
100
AcDbSymbolTable
 70
3
  0
APPID
  5
2A
330
3
100
AcDbSymbolTableRecord
100
AcDbRegAppTableRecord
  2
ACAD
 70
0
  0
APPID
  5
41
330
3
100
AcDbSymbolTableRecord
100
AcDbRegAppTableRecord
  2
HATCHBACKGROUNDCOLOR
 70
0
  0
APPID
  5
42
330
3
100
AcDbSymbolTableRecord
100
AcDbRegAppTableRecord
  2
EZDXF
 70
0
  0
ENDTAB
  0
TABLE
  2
DIMSTYLE
  5
4
330
0
100
AcDbSymbolTable
 70
1
100
AcDbDimStyleTable
  0
DIMSTYLE
105
2B
330
4
100
AcDbSymbolTableRecord
100
AcDbDimStyleTableRecord
  2
Standard
 70
0
 40
1.0
 41
2.5
 42
0.625
 43
3.75
 44
1.25
 45
0.0
 46
0.0
 47
0.0
 48
0.0
 49
2.5
140
2.5
141
2.5
142
0.0
143
0.03937007874
144
1.0
145
0.0
146
1.0
147
0.625
148
0.0
 69
0
 70
0
 71
0
 72
0
 73
0
 74
0
 75
0
 76
0
 77
1
 78
8
 79
3
170
0
171
3
172
1
173
0
174
0
175
0
176
0
177
0
178
0
179
2
271
2
272
2
273
2
274
3
275
0
276
0
277
2
278
44
279
0
280
0
281
0
282
0
283
0
284
8
285
0
286
0
288
0
289
3
290
0
371
-2
372
-2
  0
ENDTAB
  0
TABLE
  2
BLOCK_RECORD
  5
9
330
0
100
AcDbSymbolTable
 70
2
  0
BLOCK_RECORD
  5
17
330
9
100
AcDbSymbolTableRecord
100
AcDbBlockTableRecord
  2
*Model_Space
340
1A
 70
0
280
1
281
0
  0
BLOCK_RECORD
  5
1B
330
9
100
AcDbSymbolTableRecord
100
AcDbBlockTableRecord
  2
*Paper_Space
340
1E
 70
0
280
1
281
0
  0
ENDTAB
  0
ENDSEC
  0
SECTION
  2
BLOCKS
  0
BLOCK
  5
18
330
17
100
AcDbEntity
  8
0
100
AcDbBlockBegin
  2
*Model_Space
 70
0
 10
0.0
 20
0.0
 30
0.0
  3
*Model_Space
  1

  0
ENDBLK
  5
19
330
17
100
AcDbEntity
  8
0
100
AcDbBlockEnd
  0
BLOCK
  5
1C
330
1B
100
AcDbEntity
  8
0
100
AcDbBlockBegin
  2
*Paper_Space
 70
0
 10
0.0
 20
0.0
 30
0.0
  3
*Paper_Space
  1

  0
ENDBLK
  5
1D
330
1B
100
AcDbEntity
  8
0
100
AcDbBlockEnd
  0
ENDSEC
  0
SECTION
  2
ENTITIES
  0
HATCH
  5
30
330
17
100
AcDbEntity
  8
FILL_WHITE_FFFFFF
 62
7
420
16777215
100
AcDbHatch
 10
0.0
 20
0.0
 30
0.0
210
0.0
220
0.0
230
1.0
  2
SOLID
 70
1
 71
0
 91
1
 92
3
 72
0
 73
1
 93
69
 10
457.8
 20
261.25
 10
460.03
 20
260.91
 10
462.24
 20
260.35
 10
464.4
 20
259.56
 10
466.51
 20
258.55
 10
468.54
 20
257.31
 10
470.5
 20
255.85
 10
472.35
 20
254.16
 10
474.04
 20
252.26
 10
475.5
 20
250.18
 10
476.74
 20
248.0
 10
477.75
 20
245.76
 10
478.54
 20
243.52
 10
479.1
 20
241.33
 10
479.44
 20
239.26
 10
479.55
 20
237.36
 10
479.55
 20
33.36
 10
479.44
 20
31.06
 10
479.1
 20
28.69
 10
478.54
 20
26.29
 10
477.75
 20
23.91
 10
476.74
 20
21.58
 10
475.5
 20
19.35
 10
474.04
 20
17.27
 10
472.35
 20
15.36
 10
470.53
 20
13.77
 10
468.6
 20
12.51
 10
466.44
 20
11.48
 10
463.95
 20
10.56
 10
461.96
 20
9.68
 10
459.75
 20
8.91
 10
457.54
 20
8.37
 10
455.55
 20
8.16
 10
111.15
 20
8.16
 10
108.9
 20
8.27
 10
106.67
 20
8.61
 10
104.46
 20
9.17
 10
102.3
 20
9.96
 10
100.19
 20
10.97
 10
98.16
 20
12.21
 10
96.2
 20
13.67
 10
94.35
 20
15.36
 10
93.5
 20
16.31
 10
92.76
 20
17.35
 10
91.5
 20
19.56
 10
89.55
 20
23.76
 10
87.9
 20
28.56
 10
87.36
 20
30.85
 10
87.2
 20
32.06
 10
87.15
 20
33.36
 10
87.15
 20
237.36
 10
87.26
 20
239.26
 10
87.6
 20
241.33
 10
88.16
 20
243.52
 10
88.95
 20
245.76
 10
89.96
 20
248.0
 10
91.2
 20
250.18
 10
92.66
 20
252.26
 10
94.35
 20
254.16
 10
96.2
 20
255.85
 10
98.16
 20
257.31
 10
100.19
 20
258.55
 10
102.3
 20
259.56
 10
104.46
 20
260.35
 10
106.67
 20
260.91
 10
108.9
 20
261.25
 10
111.15
 20
261.36
 10
455.55
 20
261.36
 10
457.8
 20
261.25
 97
0
 75
1
 76
1
 98
0
  0
LWPOLYLINE
  5
31
330
17
100
AcDbEntity
  8
FILL_WHITE_FFFFFF
370
0
420
16777215
100
AcDbPolyline
 90
68
 70
1
 10
457.8
 20
261.25
 10
460.03
 20
260.91
 10
462.24
 20
260.35
 10
464.4
 20
259.56
 10
466.51
 20
258.55
 10
468.54
 20
257.31
 10
470.5
 20
255.85
 10
472.35
 20
254.16
 10
474.04
 20
252.26
 10
475.5
 20
250.18
 10
476.74
 20
248.0
 10
477.75
 20
245.76
 10
478.54
 20
243.52
 10
479.1
 20
241.33
 10
479.44
 20
239.26
 10
479.55
 20
237.36
 10
479.55
 20
33.36
 10
479.44
 20
31.06
 10
479.1
 20
28.69
 10
478.54
 20
26.29
 10
477.75
 20
23.91
 10
476.74
 20
21.58
 10
475.5
 20
19.35
 10
474.04
 20
17.27
 10
472.35
 20
15.36
 10
470.53
 20
13.77
 10
468.6
 20
12.51
 10
466.44
 20
11.48
 10
463.95
 20
10.56
 10
461.96
 20
9.68
 10
459.75
 20
8.91
 10
457.54
 20
8.37
 10
455.55
 20
8.16
 10
111.15
 20
8.16
 10
108.9
 20
8.27
 10
106.67
 20
8.61
 10
104.46
 20
9.17
 10
102.3
 20
9.96
 10
100.19
 20
10.97
 10
98.16
 20
12.21
 10
96.2
 20
13.67
 10
94.35
 20
15.36
 10
93.5
 20
16.31
 10
92.76
 20
17.35
 10
91.5
 20
19.56
 10
89.55
 20
23.76
 10
87.9
 20
28.56
 10
87.36
 20
30.85
 10
87.2
 20
32.06
 10
87.15
 20
33.36
 10
87.15
 20
237.36
 10
87.26
 20
239.26
 10
87.6
 20
241.33
 10
88.16
 20
243.52
 10
88.95
 20
245.76
 10
89.96
 20
248.0
 10
91.2
 20
250.18
 10
92.66
 20
252.26
 10
94.35
 20
254.16
 10
96.2
 20
255.85
 10
98.16
 20
257.31
 10
100.19
 20
258.55
 10
102.3
 20
259.56
 10
104.46
 20
260.35
 10
106.67
 20
260.91
 10
108.9
 20
261.25
 10
111.15
 20
261.36
 10
455.55
 20
261.36
  0
HATCH
  5
33
330
17
100
AcDbEntity
  8
FILL_BLUE_0000FF
 62
7
420
255
100
AcDbHatch
 10
0.0
 20
0.0
 30
0.0
210
0.0
220
0.0
230
1.0
  2
SOLID
 70
1
 71
0
 91
1
 92
3
 72
0
 73
1
 93
65
 10
455.55
 20
249.36
 10
456.5
 20
249.3
 10
457.54
 20
249.13
 10
459.75
 20
248.46
 10
460.87
 20
247.95
 10
461.96
 20
247.33
 10
463.0
 20
246.6
 10
463.95
 20
245.76
 10
464.79
 20
244.81
 10
465.53
 20
243.77
 10
466.14
 20
242.68
 10
466.65
 20
241.56
 10
467.33
 20
239.35
 10
467.49
 20
238.31
 10
467.55
 20
237.36
 10
467.55
 20
33.36
 10
467.53
 20
31.77
 10
467.4
 20
30.51
 10
467.04
 20
29.48
 10
466.35
 20
28.56
 10
466.14
 20
27.47
 10
465.6
 20
26.16
 10
464.83
 20
24.85
 10
463.95
 20
23.76
 10
463.03
 20
23.05
 10
462.0
 20
22.56
 10
459.15
 20
21.36
 10
455.55
 20
21.36
 10
269.55
 20
21.36
 10
269.55
 20
95.76
 10
257.55
 20
95.76
 10
181.95
 20
21.36
 10
111.15
 20
21.36
 10
109.16
 20
21.4
 10
106.95
 20
21.66
 10
105.83
 20
21.95
 10
104.74
 20
22.37
 10
103.7
 20
22.97
 10
102.75
 20
23.76
 10
101.91
 20
24.71
 10
101.18
 20
25.77
 10
100.56
 20
26.9
 10
100.05
 20
28.11
 10
99.66
 20
29.37
 10
99.38
 20
30.68
 10
99.21
 20
32.01
 10
99.15
 20
33.36
 10
99.15
 20
98.16
 10
125.55
 20
123.36
 10
127.74
 20
125.67
 10
129.82
 20
128.08
 10
131.79
 20
130.62
 10
133.65
 20
133.26
 10
135.39
 20
136.02
 10
137.03
 20
138.88
 10
138.54
 20
141.87
 10
139.95
 20
144.96
 10
141.71
 20
151.24
 10
143.25
 20
157.41
 10
143.86
 20
160.42
 10
144.34
 20
163.35
 10
144.64
 20
166.21
 10
144.75
 20
168.96
 10
144.75
 20
249.36
 10
455.55
 20
249.36
 97
0
 75
1
 76
1
 98
0
  0
LWPOLYLINE
  5
34
330
17
100
AcDbEntity
  8
FILL_BLUE_0000FF
370
0
420
255
100
AcDbPolyline
 90
64
 70
1
 10
455.55
 20
249.36
 10
456.5
 20
249.3
 10
457.54
 20
249.13
 10
459.75
 20
248.46
 10
460.87
 20
247.95
 10
461.96
 20
247.33
 10
463.0
 20
246.6
 10
463.95
 20
245.76
 10
464.79
 20
244.81
 10
465.53
 20
243.77
 10
466.14
 20
242.68
 10
466.65
 20
241.56
 10
467.33
 20
239.35
 10
467.49
 20
238.31
 10
467.55
 20
237.36
 10
467.55
 20
33.36
 10
467.53
 20
31.77
 10
467.4
 20
30.51
 10
467.04
 20
29.48
 10
466.35
 20
28.56
 10
466.14
 20
27.47
 10
465.6
 20
26.16
 10
464.83
 20
24.85
 10
463.95
 20
23.76
 10
463.03
 20
23.05
 10
462.0
 20
22.56
 10
459.15
 20
21.36
 10
455.55
 20
21.36
 10
269.55
 20
21.36
 10
269.55
 20
95.76
 10
257.55
 20
95.76
 10
181.95
 20
21.36
 10
111.15
 20
21.36
 10
109.16
 20
21.4
 10
106.95
 20
21.66
 10
105.83
 20
21.95
 10
104.74
 20
22.37
 10
103.7
 20
22.97
 10
102.75
 20
23.76
 10
101.91
 20
24.71
 10
101.18
 20
25.77
 10
100.56
 20
26.9
 10
100.05
 20
28.11
 10
99.66
 20
29.37
 10
99.38
 20
30.68
 10
99.21
 20
32.01
 10
99.15
 20
33.36
 10
99.15
 20
98.16
 10
125.55
 20
123.36
 10
127.74
 20
125.67
 10
129.82
 20
128.08
 10
131.79
 20
130.62
 10
133.65
 20
133.26
 10
135.39
 20
136.02
 10
137.03
 20
138.88
 10
138.54
 20
141.87
 10
139.95
 20
144.96
 10
141.71
 20
151.24
 10
143.25
 20
157.41
 10
143.86
 20
160.42
 10
144.34
 20
163.35
 10
144.64
 20
166.21
 10
144.75
 20
168.96
 10
144.75
 20
249.36
  0
HATCH
  5
35
330
17
100
AcDbEntity
  8
FILL_WHITE_FFFFFF
 62
7
420
16777215
100
AcDbHatch
 10
0.0
 20
0.0
 30
0.0
210
0.0
220
0.0
230
1.0
  2
SOLID
 70
1
 71
0
 91
1
 92
3
 72
0
 73
1
 93
10
 10
447.15
 20
198.96
 10
447.15
 20
166.56
 10
425.55
 20
188.16
 10
425.55
 20
38.16
 10
403.95
 20
38.16
 10
403.95
 20
188.16
 10
382.35
 20
166.56
 10
382.35
 20
198.96
 10
414.75
 20
231.36
 10
447.15
 20
198.96
 97
0
 75
1
 76
1
 98
0
  0
LWPOLYLINE
  5
36
330
17
100
AcDbEntity
  8
FILL_WHITE_FFFFFF
370
0
420
255
100
AcDbPolyline
 90
9
 70
1
 10
447.15
 20
198.96
 10
447.15
 20
166.56
 10
425.55
 20
188.16
 10
425.55
 20
38.16
 10
403.95
 20
38.16
 10
403.95
 20
188.16
 10
382.35
 20
166.56
 10
382.35
 20
198.96
 10
414.75
 20
231.36
  0
HATCH
  5
37
330
17
100
AcDbEntity
  8
FILL_WHITE_FFFFFF
 62
7
420
16777215
100
AcDbHatch
 10
0.0
 20
0.0
 30
0.0
210
0.0
220
0.0
230
1.0
  2
SOLID
 70
1
 71
0
 91
1
 92
3
 72
0
 73
1
 93
10
 10
358.35
 20
166.56
 10
336.75
 20
188.16
 10
336.75
 20
38.16
 10
315.15
 20
38.16
 10
315.15
 20
188.16
 10
293.55
 20
166.56
 10
293.55
 20
198.96
 10
325.95
 20
231.36
 10
358.35
 20
198.96
 10
358.35
 20
166.56
 97
0
 75
1
 76
1
 98
0
  0
LWPOLYLINE
  5
38
330
17
100
AcDbEntity
  8
FILL_WHITE_FFFFFF
370
0
420
255
100
AcDbPolyline
 90
9
 70
1
 10
358.35
 20
166.56
 10
336.75
 20
188.16
 10
336.75
 20
38.16
 10
315.15
 20
38.16
 10
315.15
 20
188.16
 10
293.55
 20
166.56
 10
293.55
 20
198.96
 10
325.95
 20
231.36
 10
358.35
 20
198.96
  0
HATCH
  5
39
330
17
100
AcDbEntity
  8
FILL_WHITE_FFFFFF
 62
7
420
16777215
100
AcDbHatch
 10
0.0
 20
0.0
 30
0.0
210
0.0
220
0.0
230
1.0
  2
SOLID
 70
1
 71
0
 91
1
 92
3
 72
0
 73
1
 93
5
 10
269.55
 20
228.96
 10
269.55
 20
180.96
 10
257.55
 20
180.96
 10
257.55
 20
228.96
 10
269.55
 20
228.96
 97
0
 75
1
 76
1
 98
0
  0
LWPOLYLINE
  5
3A
330
17
100
AcDbEntity
  8
FILL_WHITE_FFFFFF
370
0
420
16777215
100
AcDbPolyline
 90
4
 70
1
 10
269.55
 20
228.96
 10
269.55
 20
180.96
 10
257.55
 20
180.96
 10
257.55
 20
228.96
  0
HATCH
  5
3B
330
17
100
AcDbEntity
  8
FILL_WHITE_FFFFFF
 62
7
420
16777215
100
AcDbHatch
 10
0.0
 20
0.0
 30
0.0
210
0.0
220
0.0
230
1.0
  2
SOLID
 70
1
 71
0
 91
1
 92
3
 72
0
 73
1
 93
5
 10
269.55
 20
155.76
 10
269.55
 20
107.76
 10
257.55
 20
107.76
 10
257.55
 20
155.76
 10
269.55
 20
155.76
 97
0
 75
1
 76
1
 98
0
  0
LWPOLYLINE
  5
3C
330
17
100
AcDbEntity
  8
FILL_WHITE_FFFFFF
370
0
420
16777215
100
AcDbPolyline
 90
4
 70
1
 10
269.55
 20
155.76
 10
269.55
 20
107.76
 10
257.55
 20
107.76
 10
257.55
 20
155.76
  0
HATCH
  5
3D
330
17
100
AcDbEntity
  8
FILL_WHITE_FFFFFF
 62
7
420
16777215
100
AcDbHatch
 10
0.0
 20
0.0
 30
0.0
210
0.0
220
0.0
230
1.0
  2
SOLID
 70
1
 71
0
 91
1
 92
3
 72
0
 73
1
 93
44
 10
135.15
 20
39.36
 10
120.75
 20
53.76
 10
174.75
 20
107.76
 10
176.49
 20
109.62
 10
178.13
 20
111.58
 10
179.64
 20
113.67
 10
181.05
 20
115.86
 10
182.34
 20
118.17
 10
183.53
 20
120.58
 10
184.59
 20
123.12
 10
185.55
 20
125.76
 10
186.79
 20
128.06
 10
187.82
 20
130.47
 10
188.65
 20
132.95
 10
189.3
 20
135.51
 10
189.78
 20
138.12
 10
190.11
 20
140.78
 10
190.29
 20
143.46
 10
190.35
 20
146.16
 10
190.35
 20
188.16
 10
168.75
 20
166.56
 10
168.75
 20
198.96
 10
201.15
 20
231.36
 10
233.55
 20
198.96
 10
233.55
 20
166.56
 10
211.95
 20
188.16
 10
211.95
 20
146.16
 10
211.84
 20
142.56
 10
211.52
 20
138.96
 10
211.0
 20
135.36
 10
210.3
 20
131.76
 10
209.43
 20
128.16
 10
208.41
 20
124.56
 10
207.24
 20
120.96
 10
205.95
 20
117.36
 10
204.49
 20
113.82
 10
202.82
 20
110.4
 10
200.95
 20
107.13
 10
198.9
 20
104.01
 10
196.68
 20
101.06
 10
194.31
 20
98.29
 10
191.79
 20
95.72
 10
189.15
 20
93.36
 10
135.15
 20
39.36
 97
0
 75
1
 76
1
 98
0
  0
LWPOLYLINE
  5
3E
330
17
100
AcDbEntity
  8
FILL_WHITE_FFFFFF
370
0
420
255
100
AcDbPolyline
 90
43
 70
1
 10
135.15
 20
39.36
 10
120.75
 20
53.76
 10
174.75
 20
107.76
 10
176.49
 20
109.62
 10
178.13
 20
111.58
 10
179.64
 20
113.67
 10
181.05
 20
115.86
 10
182.34
 20
118.17
 10
183.53
 20
120.58
 10
184.59
 20
123.12
 10
185.55
 20
125.76
 10
186.79
 20
128.06
 10
187.82
 20
130.47
 10
188.65
 20
132.95
 10
189.3
 20
135.51
 10
189.78
 20
138.12
 10
190.11
 20
140.78
 10
190.29
 20
143.46
 10
190.35
 20
146.16
 10
190.35
 20
188.16
 10
168.75
 20
166.56
 10
168.75
 20
198.96
 10
201.15
 20
231.36
 10
233.55
 20
198.96
 10
233.55
 20
166.56
 10
211.95
 20
188.16
 10
211.95
 20
146.16
 10
211.84
 20
142.56
 10
211.52
 20
138.96
 10
211.0
 20
135.36
 10
210.3
 20
131.76
 10
209.43
 20
128.16
 10
208.41
 20
124.56
 10
207.24
 20
120.96
 10
205.95
 20
117.36
 10
204.49
 20
113.82
 10
202.82
 20
110.4
 10
200.95
 20
107.13
 10
198.9
 20
104.01
 10
196.68
 20
101.06
 10
194.31
 20
98.29
 10
191.79
 20
95.72
 10
189.15
 20
93.36
  0
LWPOLYLINE
  5
40
330
17
100
AcDbEntity
  8
STROKE_BLUE_0000FF
370
0
420
255
100
AcDbPolyline
 90
69
 70
0
 10
479.54999999999995
 20
33.35999999999899
 10
479.54999999999995
 20
237.359999999999
 10
479.42548828124995
 20
239.804824218749
 10
479.06015625
 20
242.18109374999898
 10
478.46630859375
 20
244.47650390624898
 10
477.65624999999994
 20
246.67874999999898
 10
476.64228515624995
 20
248.775527343749
 10
475.4367187499999
 20
250.754531249999
 10
474.05185546874986
 20
252.60345703124898
 10
472.4999999999999
 20
254.30999999999898
 10
470.7934570312499
 20
255.86185546874898
 10
468.9445312499999
 20
257.246718749999
 10
466.96552734374984
 20
258.452285156249
 10
464.86874999999986
 20
259.466249999999
 10
462.6665039062499
 20
260.276308593749
 10
460.3710937499999
 20
260.870156249999
 10
457.9948242187499
 20
261.235488281249
 10
455.54999999999995
 20
261.359999999999
 10
111.15000000000009
 20
261.359999999999
 10
108.70517578125009
 20
261.235488281249
 10
106.32890625000009
 20
260.870156249999
 10
104.03349609375006
 20
260.276308593749
 10
101.83125000000007
 20
259.466249999999
 10
99.73447265625006
 20
258.452285156249
 10
97.75546875000006
 20
257.246718749999
 10
95.90654296875006
 20
255.86185546874898
 10
94.20000000000007
 20
254.30999999999898
 10
92.64814453125007
 20
252.60345703124898
 10
91.26328125000009
 20
250.754531249999
 10
90.05771484375009
 20
248.775527343749
 10
89.04375000000009
 20
246.67874999999898
 10
88.23369140625007
 20
244.47650390624898
 10
87.63984375000008
 20
242.18109374999898
 10
87.27451171875009
 20
239.804824218749
 10
87.15000000000009
 20
237.359999999999
 10
87.15000000000009
 20
33.35999999999899
 10
87.27451171875009
 20
30.703945312499002
 10
87.63984375000008
 20
28.142812499998996
 10
88.23369140625009
 20
25.68714843749899
 10
89.04375000000007
 20
23.347499999998973
 10
90.05771484375009
 20
21.13441406249899
 10
91.26328125000009
 20
19.058437499999002
 10
92.64814453125008
 20
17.130117187498996
 10
94.20000000000007
 20
15.359999999999019
 10
95.90654296875007
 20
13.758632812499002
 10
97.75546875000006
 20
12.33656249999899
 10
99.73447265625006
 20
11.104335937499002
 10
101.83125000000007
 20
10.072499999999025
 10
104.03349609375007
 20
9.25160156249899
 10
106.32890625000007
 20
8.652187499999002
 10
108.70517578125008
 20
8.28480468749899
 10
111.15000000000009
 20
8.159999999999002
 10
455.54999999999995
 20
8.159999999999002
 10
457.9948242187499
 20
8.28480468749899
 10
460.3710937499999
 20
8.652187499999002
 10
462.6665039062499
 20
9.25160156249899
 10
464.86874999999986
 20
10.072499999999025
 10
466.96552734374984
 20
11.104335937499002
 10
468.9445312499999
 20
12.336562499999047
 10
470.7934570312499
 20
13.758632812499002
 10
472.4999999999999
 20
15.359999999999019
 10
474.05185546874986
 20
17.130117187498996
 10
475.4367187499999
 20
19.058437499999002
 10
476.64228515624995
 20
21.13441406249899
 10
477.65624999999994
 20
23.347499999999002
 10
478.46630859374994
 20
25.68714843749899
 10
479.06015625
 20
28.142812499998996
 10
479.42548828124995
 20
30.703945312499002
 10
479.54999999999995
 20
33.35999999999899
  0
ENDSEC
  0
SECTION
  2
OBJECTS
  0
DICTIONARY
  5
A
330
0
100
AcDbDictionary
281
1
  3
ACAD_COLOR
350
B
  3
ACAD_GROUP
350
C
  3
ACAD_LAYOUT
350
D
  3
ACAD_MATERIAL
350
E
  3
ACAD_MLEADERSTYLE
350
F
  3
ACAD_MLINESTYLE
350
10
  3
ACAD_PLOTSETTINGS
350
11
  3
ACAD_PLOTSTYLENAME
350
12
  3
ACAD_SCALELIST
350
14
  3
ACAD_TABLESTYLE
350
15
  3
ACAD_VISUALSTYLE
350
16
  3
EZDXF_META
350
2D
  0
DICTIONARY
  5
B
330
A
100
AcDbDictionary
281
1
  0
DICTIONARY
  5
C
330
A
100
AcDbDictionary
281
1
  0
DICTIONARY
  5
D
330
A
100
AcDbDictionary
281
1
  3
Model
350
1A
  3
Layout1
350
1E
  0
DICTIONARY
  5
E
330
A
100
AcDbDictionary
281
1
  3
ByBlock
350
1F
  3
ByLayer
350
20
  3
Global
350
21
  0
DICTIONARY
  5
F
330
A
100
AcDbDictionary
281
1
  3
Standard
350
2C
  0
DICTIONARY
  5
10
330
A
100
AcDbDictionary
281
1
  3
Standard
350
22
  0
DICTIONARY
  5
11
330
A
100
AcDbDictionary
281
1
  0
ACDBDICTIONARYWDFLT
  5
12
330
A
100
AcDbDictionary
281
1
  3
Normal
350
13
100
AcDbDictionaryWithDefault
340
13
  0
ACDBPLACEHOLDER
  5
13
330
12
  0
DICTIONARY
  5
14
330
A
100
AcDbDictionary
281
1
  0
DICTIONARY
  5
15
330
A
100
AcDbDictionary
281
1
  0
DICTIONARY
  5
16
330
A
100
AcDbDictionary
281
1
  0
LAYOUT
  5
1A
330
D
100
AcDbPlotSettings
  1

  4
A3
  6

 40
7.5
 41
20.0
 42
7.5
 43
20.0
 44
420.0
 45
297.0
 46
0.0
 47
0.0
 48
0.0
 49
0.0
140
0.0
141
0.0
142
1.0
143
1.0
 70
1024
 72
1
 73
0
 74
5
  7

 75
16
 76
0
 77
2
 78
300
147
1.0
148
0.0
149
0.0
100
AcDbLayout
  1
Model
 70
1
 71
0
 10
0.0
 20
0.0
 11
420.0
 21
297.0
 12
0.0
 22
0.0
 32
0.0
 14
1e+20
 24
1e+20
 34
1e+20
 15
-1e+20
 25
-1e+20
 35
-1e+20
146
0.0
 13
0.0
 23
0.0
 33
0.0
 16
1.0
 26
0.0
 36
0.0
 17
0.0
 27
1.0
 37
0.0
 76
1
330
17
  0
LAYOUT
  5
1E
330
D
100
AcDbPlotSettings
  1

  4
A3
  6

 40
7.5
 41
20.0
 42
7.5
 43
20.0
 44
420.0
 45
297.0
 46
0.0
 47
0.0
 48
0.0
 49
0.0
140
0.0
141
0.0
142
1.0
143
1.0
 70
0
 72
1
 73
0
 74
5
  7

 75
16
 76
0
 77
2
 78
300
147
1.0
148
0.0
149
0.0
100
AcDbLayout
  1
Layout1
 70
1
 71
1
 10
0.0
 20
0.0
 11
420.0
 21
297.0
 12
0.0
 22
0.0
 32
0.0
 14
1e+20
 24
1e+20
 34
1e+20
 15
-1e+20
 25
-1e+20
 35
-1e+20
146
0.0
 13
0.0
 23
0.0
 33
0.0
 16
1.0
 26
0.0
 36
0.0
 17
0.0
 27
1.0
 37
0.0
 76
1
330
1B
  0
MATERIAL
  5
1F
102
{ACAD_REACTORS
330
E
102
}
330
E
100
AcDbMaterial
  1
ByBlock
  2

 70
0
 40
1.0
 71
1
 41
1.0
 91
-1023410177
 42
1.0
 72
1
  3

 73
1
 74
1
 75
1
 44
0.5
 73
0
 45
1.0
 46
1.0
 77
1
  4

 78
1
 79
1
170
1
 48
1.0
171
1
  6

172
1
173
1
174
1
140
1.0
141
1.0
175
1
  7

176
1
177
1
178
1
143
1.0
179
1
  8

270
1
271
1
272
1
145
1.0
146
1.0
273
1
  9

274
1
275
1
276
1
 42
1.0
 72
1
  3

 73
1
 74
1
 75
1
 94
63
  0
MATERIAL
  5
20
102
{ACAD_REACTORS
330
E
102
}
330
E
100
AcDbMaterial
  1
ByLayer
  2

 70
0
 40
1.0
 71
1
 41
1.0
 91
-1023410177
 42
1.0
 72
1
  3

 73
1
 74
1
 75
1
 44
0.5
 73
0
 45
1.0
 46
1.0
 77
1
  4

 78
1
 79
1
170
1
 48
1.0
171
1
  6

172
1
173
1
174
1
140
1.0
141
1.0
175
1
  7

176
1
177
1
178
1
143
1.0
179
1
  8

270
1
271
1
272
1
145
1.0
146
1.0
273
1
  9

274
1
275
1
276
1
 42
1.0
 72
1
  3

 73
1
 74
1
 75
1
 94
63
  0
MATERIAL
  5
21
102
{ACAD_REACTORS
330
E
102
}
330
E
100
AcDbMaterial
  1
Global
  2

 70
0
 40
1.0
 71
1
 41
1.0
 91
-1023410177
 42
1.0
 72
1
  3

 73
1
 74
1
 75
1
 44
0.5
 73
0
 45
1.0
 46
1.0
 77
1
  4

 78
1
 79
1
170
1
 48
1.0
171
1
  6

172
1
173
1
174
1
140
1.0
141
1.0
175
1
  7

176
1
177
1
178
1
143
1.0
179
1
  8

270
1
271
1
272
1
145
1.0
146
1.0
273
1
  9

274
1
275
1
276
1
 42
1.0
 72
1
  3

 73
1
 74
1
 75
1
 94
63
  0
MLINESTYLE
  5
22
102
{ACAD_REACTORS
330
10
102
}
330
10
100
AcDbMlineStyle
  2
Standard
 70
0
  3

 62
256
 51
90.0
 52
90.0
 71
2
 49
0.5
 62
256
  6
BYLAYER
 49
-0.5
 62
256
  6
BYLAYER
  0
MLEADERSTYLE
  5
2C
102
{ACAD_REACTORS
330
F
102
}
330
F
100
AcDbMLeaderStyle
179
2
170
2
171
1
172
0
 90
2
 40
0.0
 41
0.0
173
1
 91
-1056964608
 92
-2
290
1
 42
2.0
291
1
 43
8.0
  3
Standard
 44
4.0
300

342
29
174
1
175
1
176
0
178
1
 93
-1056964608
 45
4.0
292
0
297
0
 46
4.0
 94
-1056964608
 47
1.0
 49
1.0
140
1.0
294
1
141
0.0
177
0
142
1.0
295
0
296
0
143
3.75
271
0
272
9
273
9
  0
DICTIONARY
  5
2D
330
A
100
AcDbDictionary
280
1
281
1
  3
CREATED_BY_EZDXF
350
2E
  3
WRITTEN_BY_EZDXF
350
43
  0
DICTIONARYVAR
  5
2E
330
2D
100
DictionaryVariables
280
0
  1
1.4.4 @ 2026-07-10T01:53:53.746078+00:00
  0
DICTIONARYVAR
  5
43
330
2D
100
DictionaryVariables
280
0
  1
1.4.4 @ 2026-07-10T01:53:53.749401+00:00
  0
ENDSEC
  0
EOF
