  0
SECTION
  2
HEADER
  9
$ACADVER
  1
AC1024
  9
$ACADMAINTVER
 70
6
  9
$DWGCODEPAGE
  3
ANSI_1252
  9
$LASTSAVEDBY
  1
ezdxf
  9
$INSBASE
 10
0.0
 20
0.0
 30
0.0
  9
$EXTMIN
 10
1e+20
 20
1e+20
 30
1e+20
  9
$EXTMAX
 10
-1e+20
 20
-1e+20
 30
-1e+20
  9
$LIMMIN
 10
0.0
 20
0.0
  9
$LIMMAX
 10
420.0
 20
297.0
  9
$ORTHOMODE
 70
0
  9
$REGENMODE
 70
1
  9
$FILLMODE
 70
1
  9
$QTEXTMODE
 70
0
  9
$MIRRTEXT
 70
1
  9
$LTSCALE
 40
1.0
  9
$ATTMODE
 70
1
  9
$TEXTSIZE
 40
2.5
  9
$TRACEWID
 40
1.0
  9
$TEXTSTYLE
  7
Standard
  9
$CLAYER
  8
0
  9
$CELTYPE
  6
ByLayer
  9
$CECOLOR
 62
256
  9
$CELTSCALE
 40
1.0
  9
$DISPSILH
 70
0
  9
$DIMSCALE
 40
1.0
  9
$DIMASZ
 40
2.5
  9
$DIMEXO
 40
0.625
  9
$DIMDLI
 40
3.75
  9
$DIMRND
 40
0.0
  9
$DIMDLE
 40
0.0
  9
$DIMEXE
 40
1.25
  9
$DIMTP
 40
0.0
  9
$DIMTM
 40
0.0
  9
$DIMTXT
 40
2.5
  9
$DIMCEN
 40
2.5
  9
$DIMTSZ
 40
0.0
  9
$DIMTOL
 70
0
  9
$DIMLIM
 70
0
  9
$DIMTIH
 70
0
  9
$DIMTOH
 70
0
  9
$DIMSE1
 70
0
  9
$DIMSE2
 70
0
  9
$DIMTAD
 70
1
  9
$DIMZIN
 70
8
  9
$DIMBLK
  1

  9
$DIMASO
 70
1
  9
$DIMSHO
 70
1
  9
$DIMPOST
  1

  9
$DIMAPOST
  1

  9
$DIMALT
 70
0
  9
$DIMALTD
 70
3
  9
$DIMALTF
 40
0.03937007874
  9
$DIMLFAC
 40
1.0
  9
$DIMTOFL
 70
1
  9
$DIMTVP
 40
0.0
  9
$DIMTIX
 70
0
  9
$DIMSOXD
 70
0
  9
$DIMSAH
 70
0
  9
$DIMBLK1
  1

  9
$DIMBLK2
  1

  9
$DIMSTYLE
  2
ISO-25
  9
$DIMCLRD
 70
0
  9
$DIMCLRE
 70
0
  9
$DIMCLRT
 70
0
  9
$DIMTFAC
 40
1.0
  9
$DIMGAP
 40
0.625
  9
$DIMJUST
 70
0
  9
$DIMSD1
 70
0
  9
$DIMSD2
 70
0
  9
$DIMTOLJ
 70
0
  9
$DIMTZIN
 70
8
  9
$DIMALTZ
 70
0
  9
$DIMALTTZ
 70
0
  9
$DIMUPT
 70
0
  9
$DIMDEC
 70
2
  9
$DIMTDEC
 70
2
  9
$DIMALTU
 70
2
  9
$DIMALTTD
 70
3
  9
$DIMTXSTY
  7
Standard
  9
$DIMAUNIT
 70
0
  9
$DIMADEC
 70
0
  9
$DIMALTRND
 40
0.0
  9
$DIMAZIN
 70
0
  9
$DIMDSEP
 70
44
  9
$DIMATFIT
 70
3
  9
$DIMFRAC
 70
0
  9
$DIMLDRBLK
  1

  9
$DIMLUNIT
 70
2
  9
$DIMLWD
 70
-2
  9
$DIMLWE
 70
-2
  9
$DIMTMOVE
 70
0
  9
$DIMFXL
 40
1.0
  9
$DIMFXLON
 70
0
  9
$DIMJOGANG
 40
0.785398163397
  9
$DIMTFILL
 70
0
  9
$DIMTFILLCLR
 70
0
  9
$DIMARCSYM
 70
0
  9
$DIMLTYPE
  6

  9
$DIMLTEX1
  6

  9
$DIMLTEX2
  6

  9
$DIMTXTDIRECTION
 70
0
  9
$LUNITS
 70
2
  9
$LUPREC
 70
4
  9
$SKETCHINC
 40
1.0
  9
$FILLETRAD
 40
10.0
  9
$AUNITS
 70
0
  9
$AUPREC
 70
2
  9
$MENU
  1
.
  9
$ELEVATION
 40
0.0
  9
$PELEVATION
 40
0.0
  9
$THICKNESS
 40
0.0
  9
$LIMCHECK
 70
0
  9
$CHAMFERA
 40
0.0
  9
$CHAMFERB
 40
0.0
  9
$CHAMFERC
 40
0.0
  9
$CHAMFERD
 40
0.0
  9
$SKPOLY
 70
0
  9
$TDCREATE
 40
2461232.4124421296
  9
$TDUCREATE
 40
2458532.153996898
  9
$TDUPDATE
 40
2461232.4124421296
  9
$TDUUPDATE
 40
2458532.1544311
  9
$TDINDWG
 40
0.0
  9
$TDUSRTIMER
 40
0.0
  9
$USRTIMER
 70
1
  9
$ANGBASE
 50
0.0
  9
$ANGDIR
 70
0
  9
$PDMODE
 70
0
  9
$PDSIZE
 40
0.0
  9
$PLINEWID
 40
0.0
  9
$SPLFRAME
 70
0
  9
$SPLINETYPE
 70
6
  9
$SPLINESEGS
 70
8
  9
$HANDSEED
  5
8B
  9
$SURFTAB1
 70
6
  9
$SURFTAB2
 70
6
  9
$SURFTYPE
 70
6
  9
$SURFU
 70
6
  9
$SURFV
 70
6
  9
$UCSBASE
  2

  9
$UCSNAME
  2

  9
$UCSORG
 10
0.0
 20
0.0
 30
0.0
  9
$UCSXDIR
 10
1.0
 20
0.0
 30
0.0
  9
$UCSYDIR
 10
0.0
 20
1.0
 30
0.0
  9
$UCSORTHOREF
  2

  9
$UCSORTHOVIEW
 70
0
  9
$UCSORGTOP
 10
0.0
 20
0.0
 30
0.0
  9
$UCSORGBOTTOM
 10
0.0
 20
0.0
 30
0.0
  9
$UCSORGLEFT
 10
0.0
 20
0.0
 30
0.0
  9
$UCSORGRIGHT
 10
0.0
 20
0.0
 30
0.0
  9
$UCSORGFRONT
 10
0.0
 20
0.0
 30
0.0
  9
$UCSORGBACK
 10
0.0
 20
0.0
 30
0.0
  9
$PUCSBASE
  2

  9
$PUCSNAME
  2

  9
$PUCSORG
 10
0.0
 20
0.0
 30
0.0
  9
$PUCSXDIR
 10
1.0
 20
0.0
 30
0.0
  9
$PUCSYDIR
 10
0.0
 20
1.0
 30
0.0
  9
$PUCSORTHOREF
  2

  9
$PUCSORTHOVIEW
 70
0
  9
$PUCSORGTOP
 10
0.0
 20
0.0
 30
0.0
  9
$PUCSORGBOTTOM
 10
0.0
 20
0.0
 30
0.0
  9
$PUCSORGLEFT
 10
0.0
 20
0.0
 30
0.0
  9
$PUCSORGRIGHT
 10
0.0
 20
0.0
 30
0.0
  9
$PUCSORGFRONT
 10
0.0
 20
0.0
 30
0.0
  9
$PUCSORGBACK
 10
0.0
 20
0.0
 30
0.0
  9
$USERI1
 70
0
  9
$USERI2
 70
0
  9
$USERI3
 70
0
  9
$USERI4
 70
0
  9
$USERI5
 70
0
  9
$USERR1
 40
0.0
  9
$USERR2
 40
0.0
  9
$USERR3
 40
0.0
  9
$USERR4
 40
0.0
  9
$USERR5
 40
0.0
  9
$WORLDVIEW
 70
1
  9
$SHADEDGE
 70
3
  9
$SHADEDIF
 70
70
  9
$TILEMODE
 70
1
  9
$MAXACTVP
 70
64
  9
$PINSBASE
 10
0.0
 20
0.0
 30
0.0
  9
$PLIMCHECK
 70
0
  9
$PEXTMIN
 10
1e+20
 20
1e+20
 30
1e+20
  9
$PEXTMAX
 10
-1e+20
 20
-1e+20
 30
-1e+20
  9
$PLIMMIN
 10
0.0
 20
0.0
  9
$PLIMMAX
 10
420.0
 20
297.0
  9
$UNITMODE
 70
0
  9
$VISRETAIN
 70
1
  9
$PLINEGEN
 70
0
  9
$PSLTSCALE
 70
1
  9
$TREEDEPTH
 70
3020
  9
$CMLSTYLE
  2
Standard
  9
$CMLJUST
 70
0
  9
$CMLSCALE
 40
20.0
  9
$PROXYGRAPHICS
 70
1
  9
$MEASUREMENT
 70
1
  9
$CELWEIGHT
370
-1
  9
$ENDCAPS
280
0
  9
$JOINSTYLE
280
0
  9
$LWDISPLAY
290
0
  9
$INSUNITS
 70
6
  9
$HYPERLINKBASE
  1

  9
$STYLESHEET
  1

  9
$XEDIT
290
1
  9
$CEPSNTYPE
380
0
  9
$PSTYLEMODE
290
1
  9
$FINGERPRINTGUID
  2
{6E84F633-4C64-4D21-BDC4-71C592939E31}
  9
$VERSIONGUID
  2
{91186BA4-F495-4251-8659-16B8BE1DAE4A}
  9
$EXTNAMES
290
1
  9
$PSVPSCALE
 40
0.0
  9
$OLESTARTUP
290
0
  9
$SORTENTS
280
127
  9
$INDEXCTL
280
0
  9
$HIDETEXT
280
1
  9
$XCLIPFRAME
280
1
  9
$HALOGAP
280
0
  9
$OBSCOLOR
 70
257
  9
$OBSLTYPE
280
0
  9
$INTERSECTIONDISPLAY
280
0
  9
$INTERSECTIONCOLOR
 70
257
  9
$DIMASSOC
280
2
  9
$PROJECTNAME
  1

  9
$CAMERADISPLAY
290
0
  9
$LENSLENGTH
 40
50.0
  9
$CAMERAHEIGHT
 40
0.0
  9
$STEPSPERSEC
 40
24.0
  9
$STEPSIZE
 40
100.0
  9
$3DDWFPREC
 40
2.0
  9
$PSOLWIDTH
 40
0.005
  9
$PSOLHEIGHT
 40
0.08
  9
$LOFTANG1
 40
1.570796326795
  9
$LOFTANG2
 40
1.570796326795
  9
$LOFTMAG1
 40
0.0
  9
$LOFTMAG2
 40
0.0
  9
$LOFTPARAM
 70
7
  9
$LOFTNORMALS
280
1
  9
$LATITUDE
 40
37.795
  9
$LONGITUDE
 40
-122.394
  9
$NORTHDIRECTION
 40
0.0
  9
$TIMEZONE
 70
-8000
  9
$LIGHTGLYPHDISPLAY
280
1
  9
$TILEMODELIGHTSYNCH
280
1
  9
$CMATERIAL
347
20
  9
$SOLIDHIST
280
0
  9
$SHOWHIST
280
1
  9
$DWFFRAME
280
2
  9
$DGNFRAME
280
2
  9
$REALWORLDSCALE
290
1
  9
$INTERFERECOLOR
 62
256
  9
$CSHADOW
280
0
  9
$SHADOWPLANELOCATION
 40
0.0
  0
ENDSEC
  0
SECTION
  2
CLASSES
  0
CLASS
  1
ACDBDICTIONARYWDFLT
  2
AcDbDictionaryWithDefault
  3
ObjectDBX Classes
 90
0
 91
0
280
0
281
0
  0
CLASS
  1
SUN
  2
AcDbSun
  3
SCENEOE
 90
1153
 91
0
280
0
281
0
  0
CLASS
  1
VISUALSTYLE
  2
AcDbVisualStyle
  3
ObjectDBX Classes
 90
4095
 91
0
280
0
281
0
  0
CLASS
  1
MATERIAL
  2
AcDbMaterial
  3
ObjectDBX Classes
 90
1153
 91
0
280
0
281
0
  0
CLASS
  1
SCALE
  2
AcDbScale
  3
ObjectDBX Classes
 90
1153
 91
0
280
0
281
0
  0
CLASS
  1
TABLESTYLE
  2
AcDbTableStyle
  3
ObjectDBX Classes
 90
4095
 91
0
280
0
281
0
  0
CLASS
  1
MLEADERSTYLE
  2
AcDbMLeaderStyle
  3
ACDB_MLEADERSTYLE_CLASS
 90
4095
 91
0
280
0
281
0
  0
CLASS
  1
DICTIONARYVAR
  2
AcDbDictionaryVar
  3
ObjectDBX Classes
 90
0
 91
0
280
0
281
0
  0
CLASS
  1
CELLSTYLEMAP
  2
AcDbCellStyleMap
  3
ObjectDBX Classes
 90
1152
 91
0
280
0
281
0
  0
CLASS
  1
MENTALRAYRENDERSETTINGS
  2
AcDbMentalRayRenderSettings
  3
SCENEOE
 90
1024
 91
0
280
0
281
0
  0
CLASS
  1
ACDBDETAILVIEWSTYLE
  2
AcDbDetailViewStyle
  3
ObjectDBX Classes
 90
1025
 91
0
280
0
281
0
  0
CLASS
  1
ACDBSECTIONVIEWSTYLE
  2
AcDbSectionViewStyle
  3
ObjectDBX Classes
 90
1025
 91
0
280
0
281
0
  0
CLASS
  1
RASTERVARIABLES
  2
AcDbRasterVariables
  3
ISM
 90
0
 91
0
280
0
281
0
  0
CLASS
  1
ACDBPLACEHOLDER
  2
AcDbPlaceHolder
  3
ObjectDBX Classes
 90
0
 91
0
280
0
281
0
  0
CLASS
  1
LAYOUT
  2
AcDbLayout
  3
ObjectDBX Classes
 90
0
 91
0
280
0
281
0
  0
ENDSEC
  0
SECTION
  2
TABLES
  0
TABLE
  2
VPORT
  5
8
330
0
100
AcDbSymbolTable
 70
1
  0
VPORT
  5
23
330
8
100
AcDbSymbolTableRecord
100
AcDbViewportTableRecord
  2
*Active
 70
0
 10
0.0
 20
0.0
 11
1.0
 21
1.0
 12
0.0
 22
0.0
 13
0.0
 23
0.0
 14
0.5
 24
0.5
 15
0.5
 25
0.5
 16
0.0
 26
0.0
 36
1.0
 17
0.0
 27
0.0
 37
0.0
 40
1000.0
 41
1.34
 42
50.0
 43
0.0
 44
0.0
 50
0.0
 51
0.0
 71
0
 72
1000
 73
1
 74
3
 75
0
 76
0
 77
0
 78
0
281
0
 65
0
146
0.0
  0
ENDTAB
  0
TABLE
  2
LTYPE
  5
2
330
0
100
AcDbSymbolTable
 70
3
  0
LTYPE
  5
24
330
2
100
AcDbSymbolTableRecord
100
AcDbLinetypeTableRecord
  2
ByBlock
 70
0
  3

 72
65
 73
0
 40
0.0
  0
LTYPE
  5
25
330
2
100
AcDbSymbolTableRecord
100
AcDbLinetypeTableRecord
  2
ByLayer
 70
0
  3

 72
65
 73
0
 40
0.0
  0
LTYPE
  5
26
330
2
100
AcDbSymbolTableRecord
100
AcDbLinetypeTableRecord
  2
Continuous
 70
0
  3

 72
65
 73
0
 40
0.0
  0
ENDTAB
  0
TABLE
  2
LAYER
  5
1
330
0
100
AcDbSymbolTable
 70
6
  0
LAYER
  5
27
330
1
100
AcDbSymbolTableRecord
100
AcDbLayerTableRecord
  2
0
 70
0
 62
7
  6
Continuous
370
-3
390
13
347
21
  0
LAYER
  5
28
330
1
100
AcDbSymbolTableRecord
100
AcDbLayerTableRecord
  2
Defpoints
 70
0
 62
7
  6
Continuous
290
0
370
-3
390
13
347
21
  0
LAYER
  5
2F
330
1
100
AcDbSymbolTableRecord
100
AcDbLayerTableRecord
  2
FILL_WHITE_FFFFFF
 70
0
 62
7
420
16777215
  6
Continuous
370
-3
390
13
347
21
  0
LAYER
  5
32
330
1
100
AcDbSymbolTableRecord
100
AcDbLayerTableRecord
  2
FILL_BLUE_0000FF
 70
0
 62
7
420
255
  6
Continuous
370
-3
390
13
347
21
  0
LAYER
  5
82
330
1
100
AcDbSymbolTableRecord
100
AcDbLayerTableRecord
  2
STROKE_WHITE_FFFFFF
 70
0
 62
7
420
16777215
  6
Continuous
370
-3
390
13
347
21
  0
LAYER
  5
86
330
1
100
AcDbSymbolTableRecord
100
AcDbLayerTableRecord
  2
STROKE_BLUE_0000FF
 70
0
 62
7
420
255
  6
Continuous
370
-3
390
13
347
21
  0
ENDTAB
  0
TABLE
  2
STYLE
  5
5
330
0
100
AcDbSymbolTable
 70
1
  0
STYLE
  5
29
330
5
100
AcDbSymbolTableRecord
100
AcDbTextStyleTableRecord
  2
Standard
 70
0
 40
0.0
 41
1.0
 50
0.0
 71
0
 42
2.5
  3
txt
  4

  0
ENDTAB
  0
TABLE
  2
VIEW
  5
7
330
0
100
AcDbSymbolTable
 70
0
  0
ENDTAB
  0
TABLE
  2
UCS
  5
6
330
0
100
AcDbSymbolTable
 70
0
  0
ENDTAB
  0
TABLE
  2
APPID
  5
3
330
0
100
AcDbSymbolTable
 70
3
  0
APPID
  5
2A
330
3
100
AcDbSymbolTableRecord
100
AcDbRegAppTableRecord
  2
ACAD
 70
0
  0
APPID
  5
88
330
3
100
AcDbSymbolTableRecord
100
AcDbRegAppTableRecord
  2
HATCHBACKGROUNDCOLOR
 70
0
  0
APPID
  5
89
330
3
100
AcDbSymbolTableRecord
100
AcDbRegAppTableRecord
  2
EZDXF
 70
0
  0
ENDTAB
  0
TABLE
  2
DIMSTYLE
  5
4
330
0
100
AcDbSymbolTable
 70
1
100
AcDbDimStyleTable
  0
DIMSTYLE
105
2B
330
4
100
AcDbSymbolTableRecord
100
AcDbDimStyleTableRecord
  2
Standard
 70
0
 40
1.0
 41
2.5
 42
0.625
 43
3.75
 44
1.25
 45
0.0
 46
0.0
 47
0.0
 48
0.0
 49
2.5
140
2.5
141
2.5
142
0.0
143
0.03937007874
144
1.0
145
0.0
146
1.0
147
0.625
148
0.0
 69
0
 70
0
 71
0
 72
0
 73
0
 74
0
 75
0
 76
0
 77
1
 78
8
 79
3
170
0
171
3
172
1
173
0
174
0
175
0
176
0
177
0
178
0
179
2
271
2
272
2
273
2
274
3
275
0
276
0
277
2
278
44
279
0
280
0
281
0
282
0
283
0
284
8
285
0
286
0
288
0
289
3
290
0
371
-2
372
-2
  0
ENDTAB
  0
TABLE
  2
BLOCK_RECORD
  5
9
330
0
100
AcDbSymbolTable
 70
2
  0
BLOCK_RECORD
  5
17
330
9
100
AcDbSymbolTableRecord
100
AcDbBlockTableRecord
  2
*Model_Space
340
1A
 70
0
280
1
281
0
  0
BLOCK_RECORD
  5
1B
330
9
100
AcDbSymbolTableRecord
100
AcDbBlockTableRecord
  2
*Paper_Space
340
1E
 70
0
280
1
281
0
  0
ENDTAB
  0
ENDSEC
  0
SECTION
  2
BLOCKS
  0
BLOCK
  5
18
330
17
100
AcDbEntity
  8
0
100
AcDbBlockBegin
  2
*Model_Space
 70
0
 10
0.0
 20
0.0
 30
0.0
  3
*Model_Space
  1

  0
ENDBLK
  5
19
330
17
100
AcDbEntity
  8
0
100
AcDbBlockEnd
  0
BLOCK
  5
1C
330
1B
100
AcDbEntity
  8
0
100
AcDbBlockBegin
  2
*Paper_Space
 70
0
 10
0.0
 20
0.0
 30
0.0
  3
*Paper_Space
  1

  0
ENDBLK
  5
1D
330
1B
100
AcDbEntity
  8
0
100
AcDbBlockEnd
  0
ENDSEC
  0
SECTION
  2
ENTITIES
  0
HATCH
  5
30
330
17
100
AcDbEntity
  8
FILL_WHITE_FFFFFF
 62
7
420
16777215
100
AcDbHatch
 10
0.0
 20
0.0
 30
0.0
210
0.0
220
0.0
230
1.0
  2
SOLID
 70
1
 71
0
 91
1
 92
3
 72
0
 73
1
 93
71
 10
444.84
 20
262.96
 10
446.55
 20
262.71
 10
448.19
 20
262.31
 10
449.75
 20
261.76
 10
451.22
 20
261.08
 10
452.6
 20
260.26
 10
453.89
 20
259.31
 10
455.07
 20
258.24
 10
456.14
 20
257.06
 10
457.09
 20
255.77
 10
457.91
 20
254.39
 10
458.6
 20
252.92
 10
459.14
 20
251.36
 10
459.54
 20
249.72
 10
459.79
 20
248.01
 10
459.87
 20
246.24
 10
459.87
 20
25.44
 10
459.72
 20
22.89
 10
459.36
 20
21.22
 10
458.67
 20
19.44
 10
458.61
 20
18.59
 10
458.45
 20
17.83
 10
458.16
 20
17.12
 10
457.77
 20
16.44
 10
456.65
 20
15.05
 10
455.07
 20
13.44
 10
453.72
 20
12.2
 10
452.35
 20
11.17
 10
450.96
 20
10.34
 10
449.52
 20
9.69
 10
448.03
 20
9.21
 10
446.46
 20
8.88
 10
444.82
 20
8.7
 10
443.07
 20
8.64
 10
122.67
 20
8.64
 10
121.27
 20
8.7
 10
119.78
 20
8.88
 10
118.24
 20
9.21
 10
116.67
 20
9.69
 10
115.1
 20
10.34
 10
113.56
 20
11.17
 10
112.07
 20
12.2
 10
110.67
 20
13.44
 10
109.43
 20
14.84
 10
108.4
 20
16.33
 10
107.57
 20
17.87
 10
106.92
 20
19.44
 10
106.44
 20
21.01
 10
106.11
 20
22.55
 10
105.93
 20
24.04
 10
105.87
 20
25.44
 10
105.87
 20
246.24
 10
105.89
 20
248.02
 10
106.02
 20
249.69
 10
106.38
 20
251.13
 10
106.67
 20
251.74
 10
107.07
 20
252.24
 10
108.87
 20
255.69
 10
109.77
 20
257.13
 10
110.67
 20
258.24
 10
112.28
 20
259.82
 10
113.67
 20
260.94
 10
114.35
 20
261.33
 10
115.06
 20
261.62
 10
115.82
 20
261.78
 10
116.67
 20
261.84
 10
118.45
 20
262.53
 10
120.12
 20
262.89
 10
122.67
 20
263.04
 10
443.07
 20
263.04
 10
444.84
 20
262.96
 97
0
 75
1
 76
1
 98
0
  0
LWPOLYLINE
  5
31
330
17
100
AcDbEntity
  8
FILL_WHITE_FFFFFF
370
0
420
16777215
100
AcDbPolyline
 90
70
 70
1
 10
444.84
 20
262.96
 10
446.55
 20
262.71
 10
448.19
 20
262.31
 10
449.75
 20
261.76
 10
451.22
 20
261.08
 10
452.6
 20
260.26
 10
453.89
 20
259.31
 10
455.07
 20
258.24
 10
456.14
 20
257.06
 10
457.09
 20
255.77
 10
457.91
 20
254.39
 10
458.6
 20
252.92
 10
459.14
 20
251.36
 10
459.54
 20
249.72
 10
459.79
 20
248.01
 10
459.87
 20
246.24
 10
459.87
 20
25.44
 10
459.72
 20
22.89
 10
459.36
 20
21.22
 10
458.67
 20
19.44
 10
458.61
 20
18.59
 10
458.45
 20
17.83
 10
458.16
 20
17.12
 10
457.77
 20
16.44
 10
456.65
 20
15.05
 10
455.07
 20
13.44
 10
453.72
 20
12.2
 10
452.35
 20
11.17
 10
450.96
 20
10.34
 10
449.52
 20
9.69
 10
448.03
 20
9.21
 10
446.46
 20
8.88
 10
444.82
 20
8.7
 10
443.07
 20
8.64
 10
122.67
 20
8.64
 10
121.27
 20
8.7
 10
119.78
 20
8.88
 10
118.24
 20
9.21
 10
116.67
 20
9.69
 10
115.1
 20
10.34
 10
113.56
 20
11.17
 10
112.07
 20
12.2
 10
110.67
 20
13.44
 10
109.43
 20
14.84
 10
108.4
 20
16.33
 10
107.57
 20
17.87
 10
106.92
 20
19.44
 10
106.44
 20
21.01
 10
106.11
 20
22.55
 10
105.93
 20
24.04
 10
105.87
 20
25.44
 10
105.87
 20
246.24
 10
105.89
 20
248.02
 10
106.02
 20
249.69
 10
106.38
 20
251.13
 10
106.67
 20
251.74
 10
107.07
 20
252.24
 10
108.87
 20
255.69
 10
109.77
 20
257.13
 10
110.67
 20
258.24
 10
112.28
 20
259.82
 10
113.67
 20
260.94
 10
114.35
 20
261.33
 10
115.06
 20
261.62
 10
115.82
 20
261.78
 10
116.67
 20
261.84
 10
118.45
 20
262.53
 10
120.12
 20
262.89
 10
122.67
 20
263.04
 10
443.07
 20
263.04
  0
HATCH
  5
33
330
17
100
AcDbEntity
  8
FILL_BLUE_0000FF
 62
7
420
255
100
AcDbHatch
 10
0.0
 20
0.0
 30
0.0
210
0.0
220
0.0
230
1.0
  2
SOLID
 70
1
 71
0
 91
1
 92
3
 72
0
 73
1
 93
41
 10
444.81
 20
254.48
 10
446.41
 20
254.0
 10
447.84
 20
253.25
 10
449.07
 20
252.24
 10
450.08
 20
251.01
 10
450.83
 20
249.58
 10
451.31
 20
247.98
 10
451.47
 20
246.24
 10
451.47
 20
25.44
 10
451.43
 20
24.33
 10
451.17
 20
22.89
 10
450.88
 20
22.08
 10
450.46
 20
21.22
 10
449.86
 20
20.34
 10
449.07
 20
19.44
 10
447.96
 20
18.56
 10
446.52
 20
17.79
 10
444.85
 20
17.25
 10
443.07
 20
17.04
 10
122.67
 20
17.04
 10
121.82
 20
17.09
 10
121.06
 20
17.25
 10
119.67
 20
17.79
 10
116.67
 20
19.44
 10
115.02
 20
22.89
 10
114.48
 20
24.33
 10
114.27
 20
25.44
 10
114.27
 20
246.24
 10
114.29
 20
247.14
 10
114.42
 20
248.04
 10
114.78
 20
248.94
 10
115.47
 20
249.84
 10
115.66
 20
250.72
 10
116.07
 20
251.49
 10
116.67
 20
252.24
 10
118.47
 20
253.89
 10
119.37
 20
254.43
 10
120.27
 20
254.64
 10
122.67
 20
254.64
 10
443.07
 20
254.64
 10
444.81
 20
254.48
 97
0
 75
1
 76
1
 98
0
  0
LWPOLYLINE
  5
34
330
17
100
AcDbEntity
  8
FILL_BLUE_0000FF
370
0
420
255
100
AcDbPolyline
 90
40
 70
1
 10
444.81
 20
254.48
 10
446.41
 20
254.0
 10
447.84
 20
253.25
 10
449.07
 20
252.24
 10
450.08
 20
251.01
 10
450.83
 20
249.58
 10
451.31
 20
247.98
 10
451.47
 20
246.24
 10
451.47
 20
25.44
 10
451.43
 20
24.33
 10
451.17
 20
22.89
 10
450.88
 20
22.08
 10
450.46
 20
21.22
 10
449.86
 20
20.34
 10
449.07
 20
19.44
 10
447.96
 20
18.56
 10
446.52
 20
17.79
 10
444.85
 20
17.25
 10
443.07
 20
17.04
 10
122.67
 20
17.04
 10
121.82
 20
17.09
 10
121.06
 20
17.25
 10
119.67
 20
17.79
 10
116.67
 20
19.44
 10
115.02
 20
22.89
 10
114.48
 20
24.33
 10
114.27
 20
25.44
 10
114.27
 20
246.24
 10
114.29
 20
247.14
 10
114.42
 20
248.04
 10
114.78
 20
248.94
 10
115.47
 20
249.84
 10
115.66
 20
250.72
 10
116.07
 20
251.49
 10
116.67
 20
252.24
 10
118.47
 20
253.89
 10
119.37
 20
254.43
 10
120.27
 20
254.64
 10
122.67
 20
254.64
 10
443.07
 20
254.64
  0
HATCH
  5
35
330
17
100
AcDbEntity
  8
FILL_WHITE_FFFFFF
 62
7
420
16777215
100
AcDbHatch
 10
0.0
 20
0.0
 30
0.0
210
0.0
220
0.0
230
1.0
  2
SOLID
 70
1
 71
0
 91
1
 92
3
 72
0
 73
1
 93
13
 10
135.87
 20
145.44
 10
155.07
 20
145.44
 10
155.07
 20
140.64
 10
140.67
 20
140.64
 10
140.67
 20
132.24
 10
153.87
 20
132.24
 10
153.87
 20
127.44
 10
140.67
 20
127.44
 10
140.67
 20
119.04
 10
156.27
 20
119.04
 10
156.27
 20
114.24
 10
135.87
 20
114.24
 10
135.87
 20
145.44
 97
0
 75
1
 76
1
 98
0
  0
LWPOLYLINE
  5
36
330
17
100
AcDbEntity
  8
FILL_WHITE_FFFFFF
370
0
420
16777215
100
AcDbPolyline
 90
12
 70
1
 10
135.87
 20
145.44
 10
155.07
 20
145.44
 10
155.07
 20
140.64
 10
140.67
 20
140.64
 10
140.67
 20
132.24
 10
153.87
 20
132.24
 10
153.87
 20
127.44
 10
140.67
 20
127.44
 10
140.67
 20
119.04
 10
156.27
 20
119.04
 10
156.27
 20
114.24
 10
135.87
 20
114.24
  0
HATCH
  5
37
330
17
100
AcDbEntity
  8
FILL_WHITE_FFFFFF
 62
7
420
16777215
100
AcDbHatch
 10
0.0
 20
0.0
 30
0.0
210
0.0
220
0.0
230
1.0
  2
SOLID
 70
1
 71
0
 91
1
 92
3
 72
0
 73
1
 93
13
 10
170.67
 20
121.44
 10
165.87
 20
114.24
 10
159.87
 20
114.24
 10
168.27
 20
125.04
 10
161.07
 20
135.84
 10
165.87
 20
135.84
 10
170.67
 20
128.64
 10
175.47
 20
135.84
 10
180.27
 20
135.84
 10
174.27
 20
125.04
 10
181.47
 20
114.24
 10
175.47
 20
114.24
 10
170.67
 20
121.44
 97
0
 75
1
 76
1
 98
0
  0
LWPOLYLINE
  5
38
330
17
100
AcDbEntity
  8
FILL_WHITE_FFFFFF
370
0
420
16777215
100
AcDbPolyline
 90
12
 70
1
 10
170.67
 20
121.44
 10
165.87
 20
114.24
 10
159.87
 20
114.24
 10
168.27
 20
125.04
 10
161.07
 20
135.84
 10
165.87
 20
135.84
 10
170.67
 20
128.64
 10
175.47
 20
135.84
 10
180.27
 20
135.84
 10
174.27
 20
125.04
 10
181.47
 20
114.24
 10
175.47
 20
114.24
  0
HATCH
  5
39
330
17
100
AcDbEntity
  8
FILL_WHITE_FFFFFF
 62
7
420
16777215
100
AcDbHatch
 10
0.0
 20
0.0
 30
0.0
210
0.0
220
0.0
230
1.0
  2
SOLID
 70
1
 71
0
 91
2
 92
3
 72
0
 73
1
 93
82
 10
185.78
 20
134.66
 10
186.27
 20
134.79
 10
186.76
 20
135.15
 10
187.47
 20
135.84
 10
188.22
 20
135.99
 10
188.99
 20
136.35
 10
189.87
 20
137.04
 10
193.47
 20
137.04
 10
195.87
 20
136.89
 10
197.18
 20
136.53
 10
197.77
 20
136.24
 10
198.27
 20
135.84
 10
199.17
 20
135.82
 10
200.07
 20
135.69
 10
200.97
 20
135.33
 10
201.87
 20
134.64
 10
202.06
 20
133.74
 10
202.47
 20
132.84
 10
202.88
 20
131.94
 10
203.07
 20
131.04
 10
203.07
 20
126.24
 10
203.07
 20
119.04
 10
203.07
 20
117.84
 10
204.27
 20
116.64
 10
203.07
 20
114.24
 10
200.67
 20
114.24
 10
200.27
 20
114.29
 10
199.96
 20
114.45
 10
199.47
 20
114.99
 10
198.98
 20
115.76
 10
198.27
 20
116.64
 10
198.06
 20
115.76
 10
197.52
 20
114.99
 10
196.75
 20
114.45
 10
195.87
 20
114.24
 10
192.27
 20
114.24
 10
188.67
 20
114.24
 10
187.79
 20
114.95
 10
187.02
 20
115.44
 10
186.48
 20
115.93
 10
186.32
 20
116.24
 10
186.27
 20
116.64
 10
185.41
 20
117.54
 10
184.77
 20
118.44
 10
184.61
 20
118.89
 10
184.58
 20
119.34
 10
184.73
 20
119.79
 10
185.07
 20
120.24
 10
184.73
 20
121.09
 10
184.58
 20
121.83
 10
184.61
 20
122.5
 10
184.77
 20
123.09
 10
185.41
 20
124.12
 10
186.27
 20
125.04
 10
186.32
 20
125.44
 10
186.48
 20
125.75
 10
187.02
 20
126.24
 10
187.79
 20
126.73
 10
188.67
 20
127.44
 10
192.27
 20
127.44
 10
194.67
 20
127.44
 10
198.27
 20
128.64
 10
198.27
 20
129.84
 10
198.22
 20
130.24
 10
198.08
 20
130.53
 10
197.67
 20
130.89
 10
197.07
 20
131.04
 10
197.02
 20
131.44
 10
196.86
 20
131.73
 10
196.32
 20
132.09
 10
195.55
 20
132.22
 10
194.67
 20
132.24
 10
193.92
 20
132.69
 10
193.56
 20
132.77
 10
193.15
 20
132.75
 10
192.72
 20
132.58
 10
192.27
 20
132.24
 10
191.07
 20
132.24
 10
189.87
 20
132.24
 10
187.47
 20
131.04
 10
185.07
 20
134.64
 10
185.78
 20
134.66
 97
0
 92
18
 72
0
 73
1
 93
36
 10
192.48
 20
117.16
 10
192.71
 20
117.0
 10
193.02
 20
116.94
 10
193.79
 20
117.16
 10
194.67
 20
117.84
 10
195.38
 20
117.86
 10
195.87
 20
117.99
 10
196.36
 20
118.35
 10
197.07
 20
119.04
 10
198.27
 20
120.24
 10
198.27
 20
123.84
 10
195.87
 20
123.84
 10
192.27
 20
123.84
 10
191.67
 20
123.69
 10
191.26
 20
123.33
 10
191.12
 20
123.04
 10
191.07
 20
122.64
 10
190.38
 20
122.62
 10
190.02
 20
122.49
 10
189.89
 20
122.13
 10
189.87
 20
121.44
 10
189.48
 20
121.39
 10
189.2
 20
121.25
 10
189.03
 20
121.06
 10
188.97
 20
120.84
 10
189.03
 20
120.62
 10
189.2
 20
120.43
 10
189.48
 20
120.29
 10
189.87
 20
120.24
 10
189.87
 20
119.04
 10
190.58
 20
118.35
 10
191.07
 20
117.99
 10
191.56
 20
117.86
 10
192.27
 20
117.84
 10
192.32
 20
117.45
 10
192.48
 20
117.16
 97
0
 75
1
 76
1
 98
0
  0
LWPOLYLINE
  5
3A
330
17
100
AcDbEntity
  8
FILL_WHITE_FFFFFF
370
0
420
16777215
100
AcDbPolyline
 90
81
 70
1
 10
185.78
 20
134.66
 10
186.27
 20
134.79
 10
186.76
 20
135.15
 10
187.47
 20
135.84
 10
188.22
 20
135.99
 10
188.99
 20
136.35
 10
189.87
 20
137.04
 10
193.47
 20
137.04
 10
195.87
 20
136.89
 10
197.18
 20
136.53
 10
197.77
 20
136.24
 10
198.27
 20
135.84
 10
199.17
 20
135.82
 10
200.07
 20
135.69
 10
200.97
 20
135.33
 10
201.87
 20
134.64
 10
202.06
 20
133.74
 10
202.47
 20
132.84
 10
202.88
 20
131.94
 10
203.07
 20
131.04
 10
203.07
 20
126.24
 10
203.07
 20
119.04
 10
203.07
 20
117.84
 10
204.27
 20
116.64
 10
203.07
 20
114.24
 10
200.67
 20
114.24
 10
200.27
 20
114.29
 10
199.96
 20
114.45
 10
199.47
 20
114.99
 10
198.98
 20
115.76
 10
198.27
 20
116.64
 10
198.06
 20
115.76
 10
197.52
 20
114.99
 10
196.75
 20
114.45
 10
195.87
 20
114.24
 10
192.27
 20
114.24
 10
188.67
 20
114.24
 10
187.79
 20
114.95
 10
187.02
 20
115.44
 10
186.48
 20
115.93
 10
186.32
 20
116.24
 10
186.27
 20
116.64
 10
185.41
 20
117.54
 10
184.77
 20
118.44
 10
184.61
 20
118.89
 10
184.58
 20
119.34
 10
184.73
 20
119.79
 10
185.07
 20
120.24
 10
184.73
 20
121.09
 10
184.58
 20
121.83
 10
184.61
 20
122.5
 10
184.77
 20
123.09
 10
185.41
 20
124.12
 10
186.27
 20
125.04
 10
186.32
 20
125.44
 10
186.48
 20
125.75
 10
187.02
 20
126.24
 10
187.79
 20
126.73
 10
188.67
 20
127.44
 10
192.27
 20
127.44
 10
194.67
 20
127.44
 10
198.27
 20
128.64
 10
198.27
 20
129.84
 10
198.22
 20
130.24
 10
198.08
 20
130.53
 10
197.67
 20
130.89
 10
197.07
 20
131.04
 10
197.02
 20
131.44
 10
196.86
 20
131.73
 10
196.32
 20
132.09
 10
195.55
 20
132.22
 10
194.67
 20
132.24
 10
193.92
 20
132.69
 10
193.56
 20
132.77
 10
193.15
 20
132.75
 10
192.72
 20
132.58
 10
192.27
 20
132.24
 10
191.07
 20
132.24
 10
189.87
 20
132.24
 10
187.47
 20
131.04
 10
185.07
 20
134.64
  0
LWPOLYLINE
  5
3B
330
17
100
AcDbEntity
  8
FILL_WHITE_FFFFFF
370
0
420
16777215
100
AcDbPolyline
 90
35
 70
1
 10
192.48
 20
117.16
 10
192.71
 20
117.0
 10
193.02
 20
116.94
 10
193.79
 20
117.16
 10
194.67
 20
117.84
 10
195.38
 20
117.86
 10
195.87
 20
117.99
 10
196.36
 20
118.35
 10
197.07
 20
119.04
 10
198.27
 20
120.24
 10
198.27
 20
123.84
 10
195.87
 20
123.84
 10
192.27
 20
123.84
 10
191.67
 20
123.69
 10
191.26
 20
123.33
 10
191.12
 20
123.04
 10
191.07
 20
122.64
 10
190.38
 20
122.62
 10
190.02
 20
122.49
 10
189.89
 20
122.13
 10
189.87
 20
121.44
 10
189.48
 20
121.39
 10
189.2
 20
121.25
 10
189.03
 20
121.06
 10
188.97
 20
120.84
 10
189.03
 20
120.62
 10
189.2
 20
120.43
 10
189.48
 20
120.29
 10
189.87
 20
120.24
 10
189.87
 20
119.04
 10
190.58
 20
118.35
 10
191.07
 20
117.99
 10
191.56
 20
117.86
 10
192.27
 20
117.84
 10
192.32
 20
117.45
  0
HATCH
  5
3C
330
17
100
AcDbEntity
  8
FILL_WHITE_FFFFFF
 62
7
420
16777215
100
AcDbHatch
 10
0.0
 20
0.0
 30
0.0
210
0.0
220
0.0
230
1.0
  2
SOLID
 70
1
 71
0
 91
1
 92
3
 72
0
 73
1
 93
80
 10
221.07
 20
117.84
 10
221.78
 20
118.53
 10
222.27
 20
118.89
 10
222.76
 20
119.02
 10
223.47
 20
119.04
 10
223.52
 20
119.44
 10
223.66
 20
119.75
 10
224.07
 20
120.24
 10
224.48
 20
120.73
 10
224.62
 20
121.04
 10
224.67
 20
121.44
 10
228.27
 20
119.04
 10
228.27
 20
117.84
 10
225.87
 20
115.44
 10
225.27
 20
115.29
 10
224.86
 20
114.93
 10
224.72
 20
114.64
 10
224.67
 20
114.24
 10
223.08
 20
114.07
 10
221.82
 20
113.79
 10
220.79
 20
113.73
 10
220.32
 20
113.9
 10
219.87
 20
114.24
 10
218.09
 20
114.26
 10
216.42
 20
114.39
 10
214.98
 20
114.75
 10
214.37
 20
115.04
 10
213.87
 20
115.44
 10
212.3
 20
116.36
 10
211.68
 20
116.85
 10
211.17
 20
117.39
 10
210.78
 20
117.98
 10
210.5
 20
118.65
 10
210.33
 20
119.39
 10
210.27
 20
120.24
 10
209.58
 20
122.04
 10
209.22
 20
123.84
 10
209.09
 20
125.64
 10
209.07
 20
127.44
 10
209.78
 20
129.05
 10
210.27
 20
130.44
 10
210.76
 20
131.83
 10
211.47
 20
133.44
 10
212.39
 20
134.32
 10
213.42
 20
135.09
 10
214.68
 20
135.63
 10
215.42
 20
135.79
 10
216.27
 20
135.84
 10
216.77
 20
136.24
 10
217.38
 20
136.53
 10
218.82
 20
136.89
 10
220.49
 20
137.02
 10
222.27
 20
137.04
 10
223.36
 20
136.14
 10
224.67
 20
135.24
 10
225.98
 20
134.34
 10
227.07
 20
133.44
 10
228.27
 20
132.24
 10
228.27
 20
131.04
 10
224.67
 20
128.64
 10
224.48
 20
129.52
 10
224.07
 20
130.29
 10
223.47
 20
131.04
 10
223.07
 20
131.09
 10
222.78
 20
131.23
 10
222.42
 20
131.64
 10
222.27
 20
132.24
 10
217.47
 20
132.24
 10
215.82
 20
130.44
 10
215.28
 20
129.54
 10
215.07
 20
128.64
 10
214.38
 20
127.03
 10
214.02
 20
125.64
 10
213.89
 20
124.25
 10
213.87
 20
122.64
 10
214.79
 20
121.05
 10
215.82
 20
119.79
 10
217.08
 20
118.76
 10
218.67
 20
117.84
 10
221.07
 20
117.84
 97
0
 75
1
 76
1
 98
0
  0
LWPOLYLINE
  5
3D
330
17
100
AcDbEntity
  8
FILL_WHITE_FFFFFF
370
0
420
16777215
100
AcDbPolyline
 90
79
 70
1
 10
221.07
 20
117.84
 10
221.78
 20
118.53
 10
222.27
 20
118.89
 10
222.76
 20
119.02
 10
223.47
 20
119.04
 10
223.52
 20
119.44
 10
223.66
 20
119.75
 10
224.07
 20
120.24
 10
224.48
 20
120.73
 10
224.62
 20
121.04
 10
224.67
 20
121.44
 10
228.27
 20
119.04
 10
228.27
 20
117.84
 10
225.87
 20
115.44
 10
225.27
 20
115.29
 10
224.86
 20
114.93
 10
224.72
 20
114.64
 10
224.67
 20
114.24
 10
223.08
 20
114.07
 10
221.82
 20
113.79
 10
220.79
 20
113.73
 10
220.32
 20
113.9
 10
219.87
 20
114.24
 10
218.09
 20
114.26
 10
216.42
 20
114.39
 10
214.98
 20
114.75
 10
214.37
 20
115.04
 10
213.87
 20
115.44
 10
212.3
 20
116.36
 10
211.68
 20
116.85
 10
211.17
 20
117.39
 10
210.78
 20
117.98
 10
210.5
 20
118.65
 10
210.33
 20
119.39
 10
210.27
 20
120.24
 10
209.58
 20
122.04
 10
209.22
 20
123.84
 10
209.09
 20
125.64
 10
209.07
 20
127.44
 10
209.78
 20
129.05
 10
210.27
 20
130.44
 10
210.76
 20
131.83
 10
211.47
 20
133.44
 10
212.39
 20
134.32
 10
213.42
 20
135.09
 10
214.68
 20
135.63
 10
215.42
 20
135.79
 10
216.27
 20
135.84
 10
216.77
 20
136.24
 10
217.38
 20
136.53
 10
218.82
 20
136.89
 10
220.49
 20
137.02
 10
222.27
 20
137.04
 10
223.36
 20
136.14
 10
224.67
 20
135.24
 10
225.98
 20
134.34
 10
227.07
 20
133.44
 10
228.27
 20
132.24
 10
228.27
 20
131.04
 10
224.67
 20
128.64
 10
224.48
 20
129.52
 10
224.07
 20
130.29
 10
223.47
 20
131.04
 10
223.07
 20
131.09
 10
222.78
 20
131.23
 10
222.42
 20
131.64
 10
222.27
 20
132.24
 10
217.47
 20
132.24
 10
215.82
 20
130.44
 10
215.28
 20
129.54
 10
215.07
 20
128.64
 10
214.38
 20
127.03
 10
214.02
 20
125.64
 10
213.89
 20
124.25
 10
213.87
 20
122.64
 10
214.79
 20
121.05
 10
215.82
 20
119.79
 10
217.08
 20
118.76
 10
218.67
 20
117.84
  0
HATCH
  5
3E
330
17
100
AcDbEntity
  8
FILL_WHITE_FFFFFF
 62
7
420
16777215
100
AcDbHatch
 10
0.0
 20
0.0
 30
0.0
210
0.0
220
0.0
230
1.0
  2
SOLID
 70
1
 71
0
 91
1
 92
3
 72
0
 73
1
 93
29
 10
241.62
 20
118.44
 10
241.98
 20
118.03
 10
242.27
 20
117.89
 10
242.67
 20
117.84
 10
243.87
 20
117.84
 10
244.58
 20
117.86
 10
245.07
 20
117.99
 10
245.56
 20
118.35
 10
246.27
 20
119.04
 10
247.47
 20
114.24
 10
245.48
 20
114.07
 10
243.27
 20
113.79
 10
241.06
 20
113.73
 10
240.02
 20
113.9
 10
239.07
 20
114.24
 10
236.67
 20
116.64
 10
236.67
 20
119.04
 10
236.67
 20
132.24
 10
231.87
 20
132.24
 10
231.87
 20
135.84
 10
236.67
 20
135.84
 10
236.67
 20
143.04
 10
241.47
 20
145.44
 10
241.47
 20
135.84
 10
247.47
 20
135.84
 10
247.47
 20
132.24
 10
241.47
 20
132.24
 10
241.47
 20
119.04
 10
241.62
 20
118.44
 97
0
 75
1
 76
1
 98
0
  0
LWPOLYLINE
  5
3F
330
17
100
AcDbEntity
  8
FILL_WHITE_FFFFFF
370
0
420
16777215
100
AcDbPolyline
 90
28
 70
1
 10
241.62
 20
118.44
 10
241.98
 20
118.03
 10
242.27
 20
117.89
 10
242.67
 20
117.84
 10
243.87
 20
117.84
 10
244.58
 20
117.86
 10
245.07
 20
117.99
 10
245.56
 20
118.35
 10
246.27
 20
119.04
 10
247.47
 20
114.24
 10
245.48
 20
114.07
 10
243.27
 20
113.79
 10
241.06
 20
113.73
 10
240.02
 20
113.9
 10
239.07
 20
114.24
 10
236.67
 20
116.64
 10
236.67
 20
119.04
 10
236.67
 20
132.24
 10
231.87
 20
132.24
 10
231.87
 20
135.84
 10
236.67
 20
135.84
 10
236.67
 20
143.04
 10
241.47
 20
145.44
 10
241.47
 20
135.84
 10
247.47
 20
135.84
 10
247.47
 20
132.24
 10
241.47
 20
132.24
 10
241.47
 20
119.04
  0
HATCH
  5
40
330
17
100
AcDbEntity
  8
FILL_WHITE_FFFFFF
 62
7
420
16777215
100
AcDbHatch
 10
0.0
 20
0.0
 30
0.0
210
0.0
220
0.0
230
1.0
  2
SOLID
 70
1
 71
0
 91
2
 92
3
 72
0
 73
1
 93
37
 10
271.01
 20
136.62
 10
272.22
 20
136.59
 10
273.48
 20
136.39
 10
274.79
 20
136.01
 10
276.12
 20
135.43
 10
277.47
 20
134.64
 10
278.71
 20
133.69
 10
279.74
 20
132.63
 10
280.57
 20
131.5
 10
281.22
 20
130.29
 10
281.7
 20
129.03
 10
282.03
 20
127.72
 10
282.21
 20
126.39
 10
282.27
 20
125.04
 10
282.56
 20
123.69
 10
282.55
 20
122.36
 10
282.29
 20
121.05
 10
281.82
 20
119.79
 10
281.18
 20
118.58
 10
280.41
 20
117.45
 10
278.67
 20
115.44
 10
275.67
 20
113.79
 10
274.28
 20
113.25
 10
273.52
 20
113.09
 10
272.67
 20
113.04
 10
271.58
 20
113.25
 10
270.27
 20
113.79
 10
268.96
 20
114.56
 10
267.87
 20
115.44
 10
267.87
 20
114.24
 10
267.87
 20
107.04
 10
263.07
 20
107.04
 10
263.07
 20
135.84
 10
267.87
 20
135.84
 10
268.82
 20
136.23
 10
269.88
 20
136.5
 10
271.01
 20
136.62
 97
0
 92
18
 72
0
 73
1
 93
34
 10
268.02
 20
129.24
 10
267.89
 20
128.34
 10
267.87
 20
127.44
 10
267.87
 20
123.84
 10
267.87
 20
122.64
 10
267.89
 20
121.74
 10
268.02
 20
120.84
 10
268.38
 20
119.94
 10
269.07
 20
119.04
 10
269.97
 20
118.85
 10
270.87
 20
118.44
 10
271.77
 20
118.03
 10
272.67
 20
117.84
 10
275.37
 20
119.04
 10
276.05
 20
119.53
 10
276.21
 20
119.84
 10
276.27
 20
120.24
 10
277.06
 20
121.59
 10
277.62
 20
122.92
 10
277.96
 20
124.23
 10
278.07
 20
125.49
 10
277.96
 20
126.7
 10
277.62
 20
127.83
 10
277.06
 20
128.89
 10
276.27
 20
129.84
 10
274.47
 20
131.49
 10
273.57
 20
132.03
 10
272.67
 20
132.24
 10
271.77
 20
132.05
 10
270.87
 20
131.64
 10
269.97
 20
131.23
 10
269.07
 20
131.04
 10
268.38
 20
130.14
 10
268.02
 20
129.24
 97
0
 75
1
 76
1
 98
0
  0
LWPOLYLINE
  5
41
330
17
100
AcDbEntity
  8
FILL_WHITE_FFFFFF
370
0
420
16777215
100
AcDbPolyline
 90
36
 70
1
 10
271.01
 20
136.62
 10
272.22
 20
136.59
 10
273.48
 20
136.39
 10
274.79
 20
136.01
 10
276.12
 20
135.43
 10
277.47
 20
134.64
 10
278.71
 20
133.69
 10
279.74
 20
132.63
 10
280.57
 20
131.5
 10
281.22
 20
130.29
 10
281.7
 20
129.03
 10
282.03
 20
127.72
 10
282.21
 20
126.39
 10
282.27
 20
125.04
 10
282.56
 20
123.69
 10
282.55
 20
122.36
 10
282.29
 20
121.05
 10
281.82
 20
119.79
 10
281.18
 20
118.58
 10
280.41
 20
117.45
 10
278.67
 20
115.44
 10
275.67
 20
113.79
 10
274.28
 20
113.25
 10
273.52
 20
113.09
 10
272.67
 20
113.04
 10
271.58
 20
113.25
 10
270.27
 20
113.79
 10
268.96
 20
114.56
 10
267.87
 20
115.44
 10
267.87
 20
114.24
 10
267.87
 20
107.04
 10
263.07
 20
107.04
 10
263.07
 20
135.84
 10
267.87
 20
135.84
 10
268.82
 20
136.23
 10
269.88
 20
136.5
  0
LWPOLYLINE
  5
42
330
17
100
AcDbEntity
  8
FILL_WHITE_FFFFFF
370
0
420
16777215
100
AcDbPolyline
 90
33
 70
1
 10
268.02
 20
129.24
 10
267.89
 20
128.34
 10
267.87
 20
127.44
 10
267.87
 20
123.84
 10
267.87
 20
122.64
 10
267.89
 20
121.74
 10
268.02
 20
120.84
 10
268.38
 20
119.94
 10
269.07
 20
119.04
 10
269.97
 20
118.85
 10
270.87
 20
118.44
 10
271.77
 20
118.03
 10
272.67
 20
117.84
 10
275.37
 20
119.04
 10
276.05
 20
119.53
 10
276.21
 20
119.84
 10
276.27
 20
120.24
 10
277.06
 20
121.59
 10
277.62
 20
122.92
 10
277.96
 20
124.23
 10
278.07
 20
125.49
 10
277.96
 20
126.7
 10
277.62
 20
127.83
 10
277.06
 20
128.89
 10
276.27
 20
129.84
 10
274.47
 20
131.49
 10
273.57
 20
132.03
 10
272.67
 20
132.24
 10
271.77
 20
132.05
 10
270.87
 20
131.64
 10
269.97
 20
131.23
 10
269.07
 20
131.04
 10
268.38
 20
130.14
  0
HATCH
  5
43
330
17
100
AcDbEntity
  8
FILL_WHITE_FFFFFF
 62
7
420
16777215
100
AcDbHatch
 10
0.0
 20
0.0
 30
0.0
210
0.0
220
0.0
230
1.0
  2
SOLID
 70
1
 71
0
 91
2
 92
3
 72
0
 73
1
 93
77
 10
289.47
 20
134.79
 10
289.96
 20
135.15
 10
290.67
 20
135.84
 10
291.42
 20
135.99
 10
292.19
 20
136.35
 10
293.07
 20
137.04
 10
296.67
 20
137.04
 10
299.07
 20
136.89
 10
300.38
 20
136.53
 10
300.97
 20
136.24
 10
301.47
 20
135.84
 10
302.37
 20
135.82
 10
303.27
 20
135.69
 10
304.17
 20
135.33
 10
305.07
 20
134.64
 10
305.26
 20
133.74
 10
305.67
 20
132.84
 10
306.08
 20
131.94
 10
306.27
 20
131.04
 10
306.27
 20
126.24
 10
306.27
 20
119.04
 10
306.27
 20
117.84
 10
307.47
 20
116.64
 10
306.27
 20
114.24
 10
303.87
 20
114.24
 10
303.47
 20
114.29
 10
303.16
 20
114.45
 10
302.67
 20
114.99
 10
302.18
 20
115.76
 10
301.47
 20
116.64
 10
301.26
 20
115.76
 10
300.72
 20
114.99
 10
299.95
 20
114.45
 10
299.07
 20
114.24
 10
295.47
 20
114.24
 10
291.87
 20
114.24
 10
290.99
 20
114.95
 10
290.22
 20
115.44
 10
289.68
 20
115.93
 10
289.52
 20
116.24
 10
289.47
 20
116.64
 10
287.82
 20
118.44
 10
287.28
 20
119.34
 10
287.07
 20
120.24
 10
287.12
 20
121.09
 10
287.28
 20
121.83
 10
287.82
 20
123.09
 10
288.59
 20
124.12
 10
289.47
 20
125.04
 10
289.52
 20
125.44
 10
289.68
 20
125.75
 10
290.22
 20
126.24
 10
290.99
 20
126.73
 10
291.87
 20
127.44
 10
295.47
 20
127.44
 10
297.87
 20
127.44
 10
301.47
 20
128.64
 10
301.47
 20
129.84
 10
301.42
 20
130.24
 10
301.28
 20
130.53
 10
300.87
 20
130.89
 10
300.27
 20
131.04
 10
300.22
 20
131.44
 10
300.06
 20
131.73
 10
299.52
 20
132.09
 10
298.75
 20
132.22
 10
297.87
 20
132.24
 10
297.12
 20
132.69
 10
296.76
 20
132.77
 10
296.35
 20
132.75
 10
295.92
 20
132.58
 10
295.47
 20
132.24
 10
293.07
 20
132.24
 10
290.67
 20
131.04
 10
288.27
 20
134.64
 10
288.98
 20
134.66
 10
289.47
 20
134.79
 97
0
 92
18
 72
0
 73
1
 93
33
 10
295.68
 20
117.16
 10
295.91
 20
117.0
 10
296.22
 20
116.94
 10
296.99
 20
117.16
 10
297.87
 20
117.84
 10
298.58
 20
117.86
 10
299.07
 20
117.99
 10
299.56
 20
118.35
 10
300.27
 20
119.04
 10
301.47
 20
120.24
 10
301.47
 20
123.84
 10
299.07
 20
123.84
 10
295.47
 20
123.84
 10
294.87
 20
123.69
 10
294.46
 20
123.33
 10
294.32
 20
123.04
 10
294.27
 20
122.64
 10
293.58
 20
122.62
 10
293.22
 20
122.49
 10
293.09
 20
122.13
 10
293.07
 20
121.44
 10
292.67
 20
121.39
 10
292.38
 20
121.25
 10
292.02
 20
120.84
 10
291.87
 20
120.24
 10
293.07
 20
119.04
 10
293.12
 20
118.64
 10
293.26
 20
118.35
 10
293.67
 20
117.99
 10
294.27
 20
117.84
 10
295.47
 20
117.84
 10
295.52
 20
117.45
 10
295.68
 20
117.16
 97
0
 75
1
 76
1
 98
0
  0
LWPOLYLINE
  5
44
330
17
100
AcDbEntity
  8
FILL_WHITE_FFFFFF
370
0
420
16777215
100
AcDbPolyline
 90
76
 70
1
 10
289.47
 20
134.79
 10
289.96
 20
135.15
 10
290.67
 20
135.84
 10
291.42
 20
135.99
 10
292.19
 20
136.35
 10
293.07
 20
137.04
 10
296.67
 20
137.04
 10
299.07
 20
136.89
 10
300.38
 20
136.53
 10
300.97
 20
136.24
 10
301.47
 20
135.84
 10
302.37
 20
135.82
 10
303.27
 20
135.69
 10
304.17
 20
135.33
 10
305.07
 20
134.64
 10
305.26
 20
133.74
 10
305.67
 20
132.84
 10
306.08
 20
131.94
 10
306.27
 20
131.04
 10
306.27
 20
126.24
 10
306.27
 20
119.04
 10
306.27
 20
117.84
 10
307.47
 20
116.64
 10
306.27
 20
114.24
 10
303.87
 20
114.24
 10
303.47
 20
114.29
 10
303.16
 20
114.45
 10
302.67
 20
114.99
 10
302.18
 20
115.76
 10
301.47
 20
116.64
 10
301.26
 20
115.76
 10
300.72
 20
114.99
 10
299.95
 20
114.45
 10
299.07
 20
114.24
 10
295.47
 20
114.24
 10
291.87
 20
114.24
 10
290.99
 20
114.95
 10
290.22
 20
115.44
 10
289.68
 20
115.93
 10
289.52
 20
116.24
 10
289.47
 20
116.64
 10
287.82
 20
118.44
 10
287.28
 20
119.34
 10
287.07
 20
120.24
 10
287.12
 20
121.09
 10
287.28
 20
121.83
 10
287.82
 20
123.09
 10
288.59
 20
124.12
 10
289.47
 20
125.04
 10
289.52
 20
125.44
 10
289.68
 20
125.75
 10
290.22
 20
126.24
 10
290.99
 20
126.73
 10
291.87
 20
127.44
 10
295.47
 20
127.44
 10
297.87
 20
127.44
 10
301.47
 20
128.64
 10
301.47
 20
129.84
 10
301.42
 20
130.24
 10
301.28
 20
130.53
 10
300.87
 20
130.89
 10
300.27
 20
131.04
 10
300.22
 20
131.44
 10
300.06
 20
131.73
 10
299.52
 20
132.09
 10
298.75
 20
132.22
 10
297.87
 20
132.24
 10
297.12
 20
132.69
 10
296.76
 20
132.77
 10
296.35
 20
132.75
 10
295.92
 20
132.58
 10
295.47
 20
132.24
 10
293.07
 20
132.24
 10
290.67
 20
131.04
 10
288.27
 20
134.64
 10
288.98
 20
134.66
  0
LWPOLYLINE
  5
45
330
17
100
AcDbEntity
  8
FILL_WHITE_FFFFFF
370
0
420
16777215
100
AcDbPolyline
 90
32
 70
1
 10
295.68
 20
117.16
 10
295.91
 20
117.0
 10
296.22
 20
116.94
 10
296.99
 20
117.16
 10
297.87
 20
117.84
 10
298.58
 20
117.86
 10
299.07
 20
117.99
 10
299.56
 20
118.35
 10
300.27
 20
119.04
 10
301.47
 20
120.24
 10
301.47
 20
123.84
 10
299.07
 20
123.84
 10
295.47
 20
123.84
 10
294.87
 20
123.69
 10
294.46
 20
123.33
 10
294.32
 20
123.04
 10
294.27
 20
122.64
 10
293.58
 20
122.62
 10
293.22
 20
122.49
 10
293.09
 20
122.13
 10
293.07
 20
121.44
 10
292.67
 20
121.39
 10
292.38
 20
121.25
 10
292.02
 20
120.84
 10
291.87
 20
120.24
 10
293.07
 20
119.04
 10
293.12
 20
118.64
 10
293.26
 20
118.35
 10
293.67
 20
117.99
 10
294.27
 20
117.84
 10
295.47
 20
117.84
 10
295.52
 20
117.45
  0
HATCH
  5
46
330
17
100
AcDbEntity
  8
FILL_WHITE_FFFFFF
 62
7
420
16777215
100
AcDbHatch
 10
0.0
 20
0.0
 30
0.0
210
0.0
220
0.0
230
1.0
  2
SOLID
 70
1
 71
0
 91
1
 92
3
 72
0
 73
1
 93
30
 10
318.27
 20
113.04
 10
311.07
 20
135.84
 10
317.07
 20
135.84
 10
320.67
 20
121.44
 10
325.47
 20
135.84
 10
331.47
 20
135.84
 10
330.62
 20
134.44
 10
329.88
 20
132.95
 10
328.62
 20
129.84
 10
326.67
 20
123.84
 10
325.75
 20
120.24
 10
324.72
 20
116.64
 10
323.46
 20
113.04
 10
321.87
 20
109.44
 10
321.76
 20
108.99
 10
321.48
 20
108.56
 10
320.52
 20
107.79
 10
319.34
 20
107.25
 10
318.27
 20
107.04
 10
314.67
 20
107.04
 10
312.27
 20
107.04
 10
313.47
 20
111.84
 10
314.18
 20
111.15
 10
314.67
 20
110.79
 10
315.16
 20
110.66
 10
315.87
 20
110.64
 10
316.75
 20
110.83
 10
317.52
 20
111.24
 10
318.27
 20
111.84
 10
318.27
 20
113.04
 97
0
 75
1
 76
1
 98
0
  0
LWPOLYLINE
  5
47
330
17
100
AcDbEntity
  8
FILL_WHITE_FFFFFF
370
0
420
16777215
100
AcDbPolyline
 90
29
 70
1
 10
318.27
 20
113.04
 10
311.07
 20
135.84
 10
317.07
 20
135.84
 10
320.67
 20
121.44
 10
325.47
 20
135.84
 10
331.47
 20
135.84
 10
330.62
 20
134.44
 10
329.88
 20
132.95
 10
328.62
 20
129.84
 10
326.67
 20
123.84
 10
325.75
 20
120.24
 10
324.72
 20
116.64
 10
323.46
 20
113.04
 10
321.87
 20
109.44
 10
321.76
 20
108.99
 10
321.48
 20
108.56
 10
320.52
 20
107.79
 10
319.34
 20
107.25
 10
318.27
 20
107.04
 10
314.67
 20
107.04
 10
312.27
 20
107.04
 10
313.47
 20
111.84
 10
314.18
 20
111.15
 10
314.67
 20
110.79
 10
315.16
 20
110.66
 10
315.87
 20
110.64
 10
316.75
 20
110.83
 10
317.52
 20
111.24
 10
318.27
 20
111.84
  0
HATCH
  5
48
330
17
100
AcDbEntity
  8
FILL_WHITE_FFFFFF
 62
7
420
16777215
100
AcDbHatch
 10
0.0
 20
0.0
 30
0.0
210
0.0
220
0.0
230
1.0
  2
SOLID
 70
1
 71
0
 91
1
 92
3
 72
0
 73
1
 93
73
 10
339.87
 20
134.64
 10
340.58
 20
135.33
 10
341.07
 20
135.69
 10
341.56
 20
135.82
 10
342.27
 20
135.84
 10
342.32
 20
136.24
 10
342.48
 20
136.53
 10
343.02
 20
136.89
 10
343.79
 20
137.02
 10
344.67
 20
137.04
 10
345.57
 20
136.98
 10
346.45
 20
136.82
 10
347.31
 20
136.53
 10
348.12
 20
136.14
 10
348.88
 20
135.63
 10
349.56
 20
135.02
 10
350.17
 20
134.28
 10
350.67
 20
133.44
 10
351.38
 20
134.32
 10
351.87
 20
135.09
 10
352.36
 20
135.63
 10
352.67
 20
135.79
 10
353.07
 20
135.84
 10
353.95
 20
136.03
 10
354.72
 20
136.44
 10
355.47
 20
137.04
 10
357.08
 20
137.02
 10
358.47
 20
136.89
 10
359.86
 20
136.53
 10
361.47
 20
135.84
 10
363.27
 20
133.89
 10
364.17
 20
132.63
 10
365.07
 20
131.04
 10
365.07
 20
129.84
 10
365.07
 20
114.24
 10
360.27
 20
114.24
 10
360.27
 20
128.64
 10
360.12
 20
129.24
 10
359.76
 20
129.65
 10
359.47
 20
129.79
 10
359.07
 20
129.84
 10
359.07
 20
131.04
 10
358.19
 20
131.73
 10
357.42
 20
132.09
 10
356.67
 20
132.24
 10
355.79
 20
132.05
 10
355.02
 20
131.64
 10
354.27
 20
131.04
 10
353.58
 20
130.14
 10
353.22
 20
129.24
 10
353.09
 20
128.34
 10
353.07
 20
127.44
 10
353.07
 20
114.24
 10
347.07
 20
114.24
 10
347.07
 20
128.64
 10
347.07
 20
129.84
 10
347.07
 20
131.04
 10
346.19
 20
131.73
 10
345.42
 20
132.09
 10
344.67
 20
132.24
 10
343.77
 20
132.05
 10
342.87
 20
131.64
 10
341.97
 20
131.23
 10
341.07
 20
131.04
 10
340.88
 20
130.14
 10
340.47
 20
129.24
 10
340.06
 20
128.34
 10
339.87
 20
127.44
 10
339.87
 20
114.24
 10
335.07
 20
114.24
 10
335.07
 20
135.84
 10
339.87
 20
135.84
 10
339.87
 20
134.64
 97
0
 75
1
 76
1
 98
0
  0
LWPOLYLINE
  5
49
330
17
100
AcDbEntity
  8
FILL_WHITE_FFFFFF
370
0
420
16777215
100
AcDbPolyline
 90
72
 70
1
 10
339.87
 20
134.64
 10
340.58
 20
135.33
 10
341.07
 20
135.69
 10
341.56
 20
135.82
 10
342.27
 20
135.84
 10
342.32
 20
136.24
 10
342.48
 20
136.53
 10
343.02
 20
136.89
 10
343.79
 20
137.02
 10
344.67
 20
137.04
 10
345.57
 20
136.98
 10
346.45
 20
136.82
 10
347.31
 20
136.53
 10
348.12
 20
136.14
 10
348.88
 20
135.63
 10
349.56
 20
135.02
 10
350.17
 20
134.28
 10
350.67
 20
133.44
 10
351.38
 20
134.32
 10
351.87
 20
135.09
 10
352.36
 20
135.63
 10
352.67
 20
135.79
 10
353.07
 20
135.84
 10
353.95
 20
136.03
 10
354.72
 20
136.44
 10
355.47
 20
137.04
 10
357.08
 20
137.02
 10
358.47
 20
136.89
 10
359.86
 20
136.53
 10
361.47
 20
135.84
 10
363.27
 20
133.89
 10
364.17
 20
132.63
 10
365.07
 20
131.04
 10
365.07
 20
129.84
 10
365.07
 20
114.24
 10
360.27
 20
114.24
 10
360.27
 20
128.64
 10
360.12
 20
129.24
 10
359.76
 20
129.65
 10
359.47
 20
129.79
 10
359.07
 20
129.84
 10
359.07
 20
131.04
 10
358.19
 20
131.73
 10
357.42
 20
132.09
 10
356.67
 20
132.24
 10
355.79
 20
132.05
 10
355.02
 20
131.64
 10
354.27
 20
131.04
 10
353.58
 20
130.14
 10
353.22
 20
129.24
 10
353.09
 20
128.34
 10
353.07
 20
127.44
 10
353.07
 20
114.24
 10
347.07
 20
114.24
 10
347.07
 20
128.64
 10
347.07
 20
129.84
 10
347.07
 20
131.04
 10
346.19
 20
131.73
 10
345.42
 20
132.09
 10
344.67
 20
132.24
 10
343.77
 20
132.05
 10
342.87
 20
131.64
 10
341.97
 20
131.23
 10
341.07
 20
131.04
 10
340.88
 20
130.14
 10
340.47
 20
129.24
 10
340.06
 20
128.34
 10
339.87
 20
127.44
 10
339.87
 20
114.24
 10
335.07
 20
114.24
 10
335.07
 20
135.84
 10
339.87
 20
135.84
  0
HATCH
  5
4A
330
17
100
AcDbEntity
  8
FILL_WHITE_FFFFFF
 62
7
420
16777215
100
AcDbHatch
 10
0.0
 20
0.0
 30
0.0
210
0.0
220
0.0
230
1.0
  2
SOLID
 70
1
 71
0
 91
2
 92
3
 72
0
 73
1
 93
61
 10
376.62
 20
114.39
 10
375.59
 20
114.75
 10
374.67
 20
115.44
 10
373.02
 20
117.24
 10
372.48
 20
118.14
 10
372.27
 20
119.04
 10
371.41
 20
121.03
 10
370.77
 20
123.24
 10
370.61
 20
124.36
 10
370.58
 20
125.45
 10
370.73
 20
126.49
 10
371.07
 20
127.44
 10
371.18
 20
128.74
 10
371.48
 20
129.93
 10
371.96
 20
131.05
 10
372.57
 20
132.09
 10
374.11
 20
134.02
 10
375.87
 20
135.84
 10
377.22
 20
136.23
 10
378.57
 20
136.5
 10
379.92
 20
136.62
 10
381.27
 20
136.59
 10
382.62
 20
136.39
 10
383.97
 20
136.01
 10
385.32
 20
135.43
 10
386.67
 20
134.64
 10
387.55
 20
133.72
 10
388.32
 20
132.69
 10
388.86
 20
131.43
 10
389.02
 20
130.69
 10
389.07
 20
129.84
 10
389.76
 20
128.23
 10
390.12
 20
126.84
 10
390.25
 20
125.45
 10
390.27
 20
123.84
 10
375.87
 20
123.84
 10
375.87
 20
121.44
 10
376.06
 20
120.56
 10
376.47
 20
119.79
 10
377.07
 20
119.04
 10
378.66
 20
118.35
 10
379.92
 20
117.99
 10
380.95
 20
117.86
 10
381.87
 20
117.84
 10
382.77
 20
118.05
 10
383.67
 20
118.59
 10
385.47
 20
120.24
 10
386.67
 20
120.24
 10
389.07
 20
116.64
 10
389.02
 20
116.24
 10
388.86
 20
115.93
 10
388.32
 20
115.44
 10
387.55
 20
114.95
 10
386.67
 20
114.24
 10
384.87
 20
114.07
 10
383.07
 20
113.79
 10
381.27
 20
113.73
 10
380.37
 20
113.9
 10
379.47
 20
114.24
 10
377.88
 20
114.26
 10
376.62
 20
114.39
 97
0
 92
18
 72
0
 73
1
 93
17
 10
385.45
 20
128.32
 10
385.32
 20
129.09
 10
384.96
 20
129.63
 10
384.67
 20
129.79
 10
384.27
 20
129.84
 10
384.08
 20
130.72
 10
383.67
 20
131.49
 10
383.07
 20
132.24
 10
378.27
 20
132.24
 10
377.87
 20
132.19
 10
377.56
 20
132.03
 10
377.07
 20
131.49
 10
376.58
 20
130.72
 10
375.87
 20
129.84
 10
375.87
 20
127.44
 10
385.47
 20
127.44
 10
385.45
 20
128.32
 97
0
 75
1
 76
1
 98
0
  0
LWPOLYLINE
  5
4B
330
17
100
AcDbEntity
  8
FILL_WHITE_FFFFFF
370
0
420
16777215
100
AcDbPolyline
 90
60
 70
1
 10
376.62
 20
114.39
 10
375.59
 20
114.75
 10
374.67
 20
115.44
 10
373.02
 20
117.24
 10
372.48
 20
118.14
 10
372.27
 20
119.04
 10
371.41
 20
121.03
 10
370.77
 20
123.24
 10
370.61
 20
124.36
 10
370.58
 20
125.45
 10
370.73
 20
126.49
 10
371.07
 20
127.44
 10
371.18
 20
128.74
 10
371.48
 20
129.93
 10
371.96
 20
131.05
 10
372.57
 20
132.09
 10
374.11
 20
134.02
 10
375.87
 20
135.84
 10
377.22
 20
136.23
 10
378.57
 20
136.5
 10
379.92
 20
136.62
 10
381.27
 20
136.59
 10
382.62
 20
136.39
 10
383.97
 20
136.01
 10
385.32
 20
135.43
 10
386.67
 20
134.64
 10
387.55
 20
133.72
 10
388.32
 20
132.69
 10
388.86
 20
131.43
 10
389.02
 20
130.69
 10
389.07
 20
129.84
 10
389.76
 20
128.23
 10
390.12
 20
126.84
 10
390.25
 20
125.45
 10
390.27
 20
123.84
 10
375.87
 20
123.84
 10
375.87
 20
121.44
 10
376.06
 20
120.56
 10
376.47
 20
119.79
 10
377.07
 20
119.04
 10
378.66
 20
118.35
 10
379.92
 20
117.99
 10
380.95
 20
117.86
 10
381.87
 20
117.84
 10
382.77
 20
118.05
 10
383.67
 20
118.59
 10
385.47
 20
120.24
 10
386.67
 20
120.24
 10
389.07
 20
116.64
 10
389.02
 20
116.24
 10
388.86
 20
115.93
 10
388.32
 20
115.44
 10
387.55
 20
114.95
 10
386.67
 20
114.24
 10
384.87
 20
114.07
 10
383.07
 20
113.79
 10
381.27
 20
113.73
 10
380.37
 20
113.9
 10
379.47
 20
114.24
 10
377.88
 20
114.26
  0
LWPOLYLINE
  5
4C
330
17
100
AcDbEntity
  8
FILL_WHITE_FFFFFF
370
0
420
16777215
100
AcDbPolyline
 90
16
 70
1
 10
385.45
 20
128.32
 10
385.32
 20
129.09
 10
384.96
 20
129.63
 10
384.67
 20
129.79
 10
384.27
 20
129.84
 10
384.08
 20
130.72
 10
383.67
 20
131.49
 10
383.07
 20
132.24
 10
378.27
 20
132.24
 10
377.87
 20
132.19
 10
377.56
 20
132.03
 10
377.07
 20
131.49
 10
376.58
 20
130.72
 10
375.87
 20
129.84
 10
375.87
 20
127.44
 10
385.47
 20
127.44
  0
HATCH
  5
4D
330
17
100
AcDbEntity
  8
FILL_WHITE_FFFFFF
 62
7
420
16777215
100
AcDbHatch
 10
0.0
 20
0.0
 30
0.0
210
0.0
220
0.0
230
1.0
  2
SOLID
 70
1
 71
0
 91
1
 92
3
 72
0
 73
1
 93
38
 10
403.92
 20
132.09
 10
403.15
 20
131.73
 10
402.27
 20
131.04
 10
401.58
 20
130.14
 10
401.22
 20
129.24
 10
401.09
 20
128.34
 10
401.07
 20
127.44
 10
401.07
 20
114.24
 10
396.27
 20
114.24
 10
396.27
 20
135.84
 10
401.07
 20
135.84
 10
401.07
 20
134.64
 10
401.97
 20
135.35
 10
402.87
 20
135.84
 10
403.77
 20
136.33
 10
404.67
 20
137.04
 10
407.07
 20
136.89
 10
408.38
 20
136.53
 10
408.97
 20
136.24
 10
409.47
 20
135.84
 10
410.37
 20
135.63
 10
411.27
 20
135.09
 10
413.07
 20
133.44
 10
413.26
 20
132.54
 10
413.67
 20
131.64
 10
414.08
 20
130.74
 10
414.27
 20
129.84
 10
414.27
 20
114.24
 10
409.47
 20
114.24
 10
409.47
 20
128.64
 10
409.28
 20
129.52
 10
408.87
 20
130.29
 10
408.27
 20
131.04
 10
407.37
 20
131.73
 10
406.47
 20
132.09
 10
405.57
 20
132.22
 10
404.67
 20
132.24
 10
403.92
 20
132.09
 97
0
 75
1
 76
1
 98
0
  0
LWPOLYLINE
  5
4E
330
17
100
AcDbEntity
  8
FILL_WHITE_FFFFFF
370
0
420
16777215
100
AcDbPolyline
 90
37
 70
1
 10
403.92
 20
132.09
 10
403.15
 20
131.73
 10
402.27
 20
131.04
 10
401.58
 20
130.14
 10
401.22
 20
129.24
 10
401.09
 20
128.34
 10
401.07
 20
127.44
 10
401.07
 20
114.24
 10
396.27
 20
114.24
 10
396.27
 20
135.84
 10
401.07
 20
135.84
 10
401.07
 20
134.64
 10
401.97
 20
135.35
 10
402.87
 20
135.84
 10
403.77
 20
136.33
 10
404.67
 20
137.04
 10
407.07
 20
136.89
 10
408.38
 20
136.53
 10
408.97
 20
136.24
 10
409.47
 20
135.84
 10
410.37
 20
135.63
 10
411.27
 20
135.09
 10
413.07
 20
133.44
 10
413.26
 20
132.54
 10
413.67
 20
131.64
 10
414.08
 20
130.74
 10
414.27
 20
129.84
 10
414.27
 20
114.24
 10
409.47
 20
114.24
 10
409.47
 20
128.64
 10
409.28
 20
129.52
 10
408.87
 20
130.29
 10
408.27
 20
131.04
 10
407.37
 20
131.73
 10
406.47
 20
132.09
 10
405.57
 20
132.22
 10
404.67
 20
132.24
  0
HATCH
  5
4F
330
17
100
AcDbEntity
  8
FILL_WHITE_FFFFFF
 62
7
420
16777215
100
AcDbHatch
 10
0.0
 20
0.0
 30
0.0
210
0.0
220
0.0
230
1.0
  2
SOLID
 70
1
 71
0
 91
1
 92
3
 72
0
 73
1
 93
34
 10
434.67
 20
114.24
 10
432.68
 20
114.07
 10
430.47
 20
113.79
 10
428.26
 20
113.73
 10
427.22
 20
113.9
 10
426.27
 20
114.24
 10
425.48
 20
114.69
 10
424.88
 20
115.16
 10
424.46
 20
115.65
 10
424.17
 20
116.19
 10
423.91
 20
117.45
 10
423.87
 20
119.04
 10
423.87
 20
132.24
 10
419.07
 20
132.24
 10
419.07
 20
135.84
 10
423.87
 20
135.84
 10
423.87
 20
143.04
 10
428.67
 20
145.44
 10
428.67
 20
135.84
 10
434.67
 20
135.84
 10
434.67
 20
132.24
 10
428.67
 20
132.24
 10
428.67
 20
119.04
 10
428.72
 20
118.64
 10
428.86
 20
118.35
 10
429.27
 20
117.99
 10
429.87
 20
117.84
 10
431.07
 20
117.84
 10
431.95
 20
117.86
 10
432.72
 20
117.99
 10
433.26
 20
118.35
 10
433.42
 20
118.64
 10
433.47
 20
119.04
 10
434.67
 20
114.24
 97
0
 75
1
 76
1
 98
0
  0
LWPOLYLINE
  5
50
330
17
100
AcDbEntity
  8
FILL_WHITE_FFFFFF
370
0
420
16777215
100
AcDbPolyline
 90
33
 70
1
 10
434.67
 20
114.24
 10
432.68
 20
114.07
 10
430.47
 20
113.79
 10
428.26
 20
113.73
 10
427.22
 20
113.9
 10
426.27
 20
114.24
 10
425.48
 20
114.69
 10
424.88
 20
115.16
 10
424.46
 20
115.65
 10
424.17
 20
116.19
 10
423.91
 20
117.45
 10
423.87
 20
119.04
 10
423.87
 20
132.24
 10
419.07
 20
132.24
 10
419.07
 20
135.84
 10
423.87
 20
135.84
 10
423.87
 20
143.04
 10
428.67
 20
145.44
 10
428.67
 20
135.84
 10
434.67
 20
135.84
 10
434.67
 20
132.24
 10
428.67
 20
132.24
 10
428.67
 20
119.04
 10
428.72
 20
118.64
 10
428.86
 20
118.35
 10
429.27
 20
117.99
 10
429.87
 20
117.84
 10
431.07
 20
117.84
 10
431.95
 20
117.86
 10
432.72
 20
117.99
 10
433.26
 20
118.35
 10
433.42
 20
118.64
 10
433.47
 20
119.04
  0
HATCH
  5
51
330
17
100
AcDbEntity
  8
FILL_WHITE_FFFFFF
 62
7
420
16777215
100
AcDbHatch
 10
0.0
 20
0.0
 30
0.0
210
0.0
220
0.0
230
1.0
  2
SOLID
 70
1
 71
0
 91
1
 92
3
 72
0
 73
1
 93
9
 10
195.87
 20
74.64
 10
195.87
 20
73.44
 10
194.67
 20
72.24
 10
194.67
 20
44.64
 10
189.87
 20
44.64
 10
189.87
 20
74.64
 10
193.47
 20
74.64
 10
194.67
 20
74.64
 10
195.87
 20
74.64
 97
0
 75
1
 76
1
 98
0
  0
LWPOLYLINE
  5
52
330
17
100
AcDbEntity
  8
FILL_WHITE_FFFFFF
370
0
420
16777215
100
AcDbPolyline
 90
8
 70
1
 10
195.87
 20
74.64
 10
195.87
 20
73.44
 10
194.67
 20
72.24
 10
194.67
 20
44.64
 10
189.87
 20
44.64
 10
189.87
 20
74.64
 10
193.47
 20
74.64
 10
194.67
 20
74.64
  0
HATCH
  5
53
330
17
100
AcDbEntity
  8
FILL_WHITE_FFFFFF
 62
7
420
16777215
100
AcDbHatch
 10
0.0
 20
0.0
 30
0.0
210
0.0
220
0.0
230
1.0
  2
SOLID
 70
1
 71
0
 91
1
 92
3
 72
0
 73
1
 93
16
 10
176.67
 20
61.44
 10
171.87
 20
57.84
 10
168.27
 20
61.44
 10
174.27
 20
66.24
 10
180.27
 20
71.04
 10
185.07
 20
75.84
 10
188.67
 20
81.84
 10
168.27
 20
81.84
 10
168.27
 20
86.64
 10
213.87
 20
86.64
 10
213.87
 20
81.84
 10
194.67
 20
81.84
 10
189.87
 20
74.64
 10
186.27
 20
69.84
 10
181.47
 20
65.04
 10
176.67
 20
61.44
 97
0
 75
1
 76
1
 98
0
  0
LWPOLYLINE
  5
54
330
17
100
AcDbEntity
  8
FILL_WHITE_FFFFFF
370
0
420
16777215
100
AcDbPolyline
 90
15
 70
1
 10
176.67
 20
61.44
 10
171.87
 20
57.84
 10
168.27
 20
61.44
 10
174.27
 20
66.24
 10
180.27
 20
71.04
 10
185.07
 20
75.84
 10
188.67
 20
81.84
 10
168.27
 20
81.84
 10
168.27
 20
86.64
 10
213.87
 20
86.64
 10
213.87
 20
81.84
 10
194.67
 20
81.84
 10
189.87
 20
74.64
 10
186.27
 20
69.84
 10
181.47
 20
65.04
  0
HATCH
  5
55
330
17
100
AcDbEntity
  8
FILL_WHITE_FFFFFF
 62
7
420
16777215
100
AcDbHatch
 10
0.0
 20
0.0
 30
0.0
210
0.0
220
0.0
230
1.0
  2
SOLID
 70
1
 71
0
 91
1
 92
3
 72
0
 73
1
 93
9
 10
204.27
 20
66.24
 10
197.07
 20
73.44
 10
200.67
 20
77.04
 10
204.27
 20
72.24
 10
207.87
 20
68.64
 10
211.47
 20
63.84
 10
215.07
 20
60.24
 10
210.27
 20
56.64
 10
204.27
 20
66.24
 97
0
 75
1
 76
1
 98
0
  0
LWPOLYLINE
  5
56
330
17
100
AcDbEntity
  8
FILL_WHITE_FFFFFF
370
0
420
16777215
100
AcDbPolyline
 90
8
 70
1
 10
204.27
 20
66.24
 10
197.07
 20
73.44
 10
200.67
 20
77.04
 10
204.27
 20
72.24
 10
207.87
 20
68.64
 10
211.47
 20
63.84
 10
215.07
 20
60.24
 10
210.27
 20
56.64
  0
HATCH
  5
57
330
17
100
AcDbEntity
  8
FILL_WHITE_FFFFFF
 62
7
420
16777215
100
AcDbHatch
 10
0.0
 20
0.0
 30
0.0
210
0.0
220
0.0
230
1.0
  2
SOLID
 70
1
 71
0
 91
1
 92
3
 72
0
 73
1
 93
5
 10
246.27
 20
89.04
 10
246.27
 20
84.24
 10
231.87
 20
84.24
 10
231.87
 20
89.04
 10
246.27
 20
89.04
 97
0
 75
1
 76
1
 98
0
  0
LWPOLYLINE
  5
58
330
17
100
AcDbEntity
  8
FILL_WHITE_FFFFFF
370
0
420
16777215
100
AcDbPolyline
 90
4
 70
1
 10
246.27
 20
89.04
 10
246.27
 20
84.24
 10
231.87
 20
84.24
 10
231.87
 20
89.04
  0
HATCH
  5
59
330
17
100
AcDbEntity
  8
FILL_WHITE_FFFFFF
 62
7
420
16777215
100
AcDbHatch
 10
0.0
 20
0.0
 30
0.0
210
0.0
220
0.0
230
1.0
  2
SOLID
 70
1
 71
0
 91
1
 92
3
 72
0
 73
1
 93
5
 10
247.47
 20
81.84
 10
247.47
 20
78.24
 10
230.67
 20
78.24
 10
230.67
 20
81.84
 10
247.47
 20
81.84
 97
0
 75
1
 76
1
 98
0
  0
LWPOLYLINE
  5
5A
330
17
100
AcDbEntity
  8
FILL_WHITE_FFFFFF
370
0
420
16777215
100
AcDbPolyline
 90
4
 70
1
 10
247.47
 20
81.84
 10
247.47
 20
78.24
 10
230.67
 20
78.24
 10
230.67
 20
81.84
  0
HATCH
  5
5B
330
17
100
AcDbEntity
  8
FILL_WHITE_FFFFFF
 62
7
420
16777215
100
AcDbHatch
 10
0.0
 20
0.0
 30
0.0
210
0.0
220
0.0
230
1.0
  2
SOLID
 70
1
 71
0
 91
1
 92
3
 72
0
 73
1
 93
5
 10
246.27
 20
74.64
 10
246.27
 20
71.04
 10
231.87
 20
71.04
 10
231.87
 20
74.64
 10
246.27
 20
74.64
 97
0
 75
1
 76
1
 98
0
  0
LWPOLYLINE
  5
5C
330
17
100
AcDbEntity
  8
FILL_WHITE_FFFFFF
370
0
420
16777215
100
AcDbPolyline
 90
4
 70
1
 10
246.27
 20
74.64
 10
246.27
 20
71.04
 10
231.87
 20
71.04
 10
231.87
 20
74.64
  0
HATCH
  5
5D
330
17
100
AcDbEntity
  8
FILL_WHITE_FFFFFF
 62
7
420
16777215
100
AcDbHatch
 10
0.0
 20
0.0
 30
0.0
210
0.0
220
0.0
230
1.0
  2
SOLID
 70
1
 71
0
 91
1
 92
3
 72
0
 73
1
 93
5
 10
246.27
 20
68.64
 10
246.27
 20
63.84
 10
231.87
 20
63.84
 10
231.87
 20
68.64
 10
246.27
 20
68.64
 97
0
 75
1
 76
1
 98
0
  0
LWPOLYLINE
  5
5E
330
17
100
AcDbEntity
  8
FILL_WHITE_FFFFFF
370
0
420
16777215
100
AcDbPolyline
 90
4
 70
1
 10
246.27
 20
68.64
 10
246.27
 20
63.84
 10
231.87
 20
63.84
 10
231.87
 20
68.64
  0
HATCH
  5
5F
330
17
100
AcDbEntity
  8
FILL_WHITE_FFFFFF
 62
7
420
16777215
100
AcDbHatch
 10
0.0
 20
0.0
 30
0.0
210
0.0
220
0.0
230
1.0
  2
SOLID
 70
1
 71
0
 91
2
 92
3
 72
0
 73
1
 93
9
 10
242.67
 20
44.64
 10
242.67
 20
47.04
 10
235.47
 20
47.04
 10
235.47
 20
44.64
 10
231.87
 20
44.64
 10
231.87
 20
60.24
 10
247.47
 20
60.24
 10
247.47
 20
44.64
 10
242.67
 20
44.64
 97
0
 92
18
 72
0
 73
1
 93
5
 10
242.67
 20
56.64
 10
235.47
 20
56.64
 10
235.47
 20
50.64
 10
242.67
 20
50.64
 10
242.67
 20
56.64
 97
0
 75
1
 76
1
 98
0
  0
LWPOLYLINE
  5
60
330
17
100
AcDbEntity
  8
FILL_WHITE_FFFFFF
370
0
420
16777215
100
AcDbPolyline
 90
8
 70
1
 10
242.67
 20
44.64
 10
242.67
 20
47.04
 10
235.47
 20
47.04
 10
235.47
 20
44.64
 10
231.87
 20
44.64
 10
231.87
 20
60.24
 10
247.47
 20
60.24
 10
247.47
 20
44.64
  0
LWPOLYLINE
  5
61
330
17
100
AcDbEntity
  8
FILL_WHITE_FFFFFF
370
0
420
16777215
100
AcDbPolyline
 90
4
 70
1
 10
242.67
 20
56.64
 10
235.47
 20
56.64
 10
235.47
 20
50.64
 10
242.67
 20
50.64
  0
HATCH
  5
62
330
17
100
AcDbEntity
  8
FILL_WHITE_FFFFFF
 62
7
420
16777215
100
AcDbHatch
 10
0.0
 20
0.0
 30
0.0
210
0.0
220
0.0
230
1.0
  2
SOLID
 70
1
 71
0
 91
1
 92
3
 72
0
 73
1
 93
32
 10
266.67
 20
87.84
 10
266.67
 20
77.04
 10
266.67
 20
75.84
 10
267.87
 20
75.84
 10
269.07
 20
75.84
 10
270.27
 20
75.84
 10
271.47
 20
77.04
 10
271.47
 20
79.44
 10
276.27
 20
78.24
 10
275.07
 20
74.64
 10
275.07
 20
73.44
 10
273.87
 20
72.24
 10
272.67
 20
72.24
 10
271.47
 20
72.24
 10
266.67
 20
72.24
 10
264.27
 20
72.24
 10
263.07
 20
72.24
 10
263.07
 20
73.44
 10
263.07
 20
75.84
 10
263.07
 20
84.24
 10
257.07
 20
84.24
 10
257.07
 20
80.64
 10
255.87
 20
77.04
 10
253.47
 20
73.44
 10
251.07
 20
69.84
 10
246.27
 20
73.44
 10
248.67
 20
74.64
 10
249.87
 20
75.84
 10
251.07
 20
79.44
 10
252.27
 20
83.04
 10
252.27
 20
87.84
 10
266.67
 20
87.84
 97
0
 75
1
 76
1
 98
0
  0
LWPOLYLINE
  5
63
330
17
100
AcDbEntity
  8
FILL_WHITE_FFFFFF
370
0
420
16777215
100
AcDbPolyline
 90
31
 70
1
 10
266.67
 20
87.84
 10
266.67
 20
77.04
 10
266.67
 20
75.84
 10
267.87
 20
75.84
 10
269.07
 20
75.84
 10
270.27
 20
75.84
 10
271.47
 20
77.04
 10
271.47
 20
79.44
 10
276.27
 20
78.24
 10
275.07
 20
74.64
 10
275.07
 20
73.44
 10
273.87
 20
72.24
 10
272.67
 20
72.24
 10
271.47
 20
72.24
 10
266.67
 20
72.24
 10
264.27
 20
72.24
 10
263.07
 20
72.24
 10
263.07
 20
73.44
 10
263.07
 20
75.84
 10
263.07
 20
84.24
 10
257.07
 20
84.24
 10
257.07
 20
80.64
 10
255.87
 20
77.04
 10
253.47
 20
73.44
 10
251.07
 20
69.84
 10
246.27
 20
73.44
 10
248.67
 20
74.64
 10
249.87
 20
75.84
 10
251.07
 20
79.44
 10
252.27
 20
83.04
 10
252.27
 20
87.84
  0
HATCH
  5
64
330
17
100
AcDbEntity
  8
FILL_WHITE_FFFFFF
 62
7
420
16777215
100
AcDbHatch
 10
0.0
 20
0.0
 30
0.0
210
0.0
220
0.0
230
1.0
  2
SOLID
 70
1
 71
0
 91
1
 92
3
 72
0
 73
1
 93
24
 10
267.87
 20
68.64
 10
271.47
 20
66.24
 10
267.87
 20
57.84
 10
264.27
 20
51.84
 10
269.07
 20
50.64
 10
275.07
 20
49.44
 10
271.47
 20
44.64
 10
266.67
 20
47.04
 10
261.87
 20
49.44
 10
257.07
 20
47.04
 10
251.07
 20
44.64
 10
247.47
 20
48.24
 10
253.47
 20
49.44
 10
258.27
 20
53.04
 10
254.67
 20
56.64
 10
252.27
 20
61.44
 10
255.87
 20
62.64
 10
258.27
 20
59.04
 10
260.67
 20
55.44
 10
263.07
 20
59.04
 10
265.47
 20
63.84
 10
249.87
 20
63.84
 10
249.87
 20
68.64
 10
267.87
 20
68.64
 97
0
 75
1
 76
1
 98
0
  0
LWPOLYLINE
  5
65
330
17
100
AcDbEntity
  8
FILL_WHITE_FFFFFF
370
0
420
16777215
100
AcDbPolyline
 90
23
 70
1
 10
267.87
 20
68.64
 10
271.47
 20
66.24
 10
267.87
 20
57.84
 10
264.27
 20
51.84
 10
269.07
 20
50.64
 10
275.07
 20
49.44
 10
271.47
 20
44.64
 10
266.67
 20
47.04
 10
261.87
 20
49.44
 10
257.07
 20
47.04
 10
251.07
 20
44.64
 10
247.47
 20
48.24
 10
253.47
 20
49.44
 10
258.27
 20
53.04
 10
254.67
 20
56.64
 10
252.27
 20
61.44
 10
255.87
 20
62.64
 10
258.27
 20
59.04
 10
260.67
 20
55.44
 10
263.07
 20
59.04
 10
265.47
 20
63.84
 10
249.87
 20
63.84
 10
249.87
 20
68.64
  0
HATCH
  5
66
330
17
100
AcDbEntity
  8
FILL_WHITE_FFFFFF
 62
7
420
16777215
100
AcDbHatch
 10
0.0
 20
0.0
 30
0.0
210
0.0
220
0.0
230
1.0
  2
SOLID
 70
1
 71
0
 91
1
 92
3
 72
0
 73
1
 93
37
 10
299.07
 20
79.44
 10
299.07
 20
90.24
 10
301.47
 20
89.04
 10
303.87
 20
89.04
 10
303.87
 20
87.84
 10
302.67
 20
86.64
 10
302.67
 20
79.44
 10
309.87
 20
79.44
 10
309.87
 20
74.64
 10
302.67
 20
74.64
 10
302.67
 20
66.24
 10
309.87
 20
68.64
 10
309.87
 20
63.84
 10
302.67
 20
61.44
 10
302.67
 20
49.44
 10
302.67
 20
47.04
 10
302.67
 20
45.84
 10
300.27
 20
44.64
 10
297.87
 20
43.44
 10
294.27
 20
43.44
 10
293.07
 20
48.24
 10
295.47
 20
48.24
 10
296.67
 20
48.24
 10
297.87
 20
48.24
 10
299.07
 20
49.44
 10
299.07
 20
51.84
 10
299.07
 20
60.24
 10
293.07
 20
57.84
 10
293.07
 20
56.64
 10
291.87
 20
56.64
 10
290.67
 20
59.04
 10
289.47
 20
61.44
 10
299.07
 20
65.04
 10
299.07
 20
74.64
 10
291.87
 20
74.64
 10
291.87
 20
79.44
 10
299.07
 20
79.44
 97
0
 75
1
 76
1
 98
0
  0
LWPOLYLINE
  5
67
330
17
100
AcDbEntity
  8
FILL_WHITE_FFFFFF
370
0
420
16777215
100
AcDbPolyline
 90
36
 70
1
 10
299.07
 20
79.44
 10
299.07
 20
90.24
 10
301.47
 20
89.04
 10
303.87
 20
89.04
 10
303.87
 20
87.84
 10
302.67
 20
86.64
 10
302.67
 20
79.44
 10
309.87
 20
79.44
 10
309.87
 20
74.64
 10
302.67
 20
74.64
 10
302.67
 20
66.24
 10
309.87
 20
68.64
 10
309.87
 20
63.84
 10
302.67
 20
61.44
 10
302.67
 20
49.44
 10
302.67
 20
47.04
 10
302.67
 20
45.84
 10
300.27
 20
44.64
 10
297.87
 20
43.44
 10
294.27
 20
43.44
 10
293.07
 20
48.24
 10
295.47
 20
48.24
 10
296.67
 20
48.24
 10
297.87
 20
48.24
 10
299.07
 20
49.44
 10
299.07
 20
51.84
 10
299.07
 20
60.24
 10
293.07
 20
57.84
 10
293.07
 20
56.64
 10
291.87
 20
56.64
 10
290.67
 20
59.04
 10
289.47
 20
61.44
 10
299.07
 20
65.04
 10
299.07
 20
74.64
 10
291.87
 20
74.64
 10
291.87
 20
79.44
  0
HATCH
  5
68
330
17
100
AcDbEntity
  8
FILL_WHITE_FFFFFF
 62
7
420
16777215
100
AcDbHatch
 10
0.0
 20
0.0
 30
0.0
210
0.0
220
0.0
230
1.0
  2
SOLID
 70
1
 71
0
 91
1
 92
3
 72
0
 73
1
 93
50
 10
317.07
 20
77.04
 10
317.07
 20
90.24
 10
320.67
 20
89.04
 10
321.87
 20
89.04
 10
321.87
 20
87.84
 10
321.87
 20
86.64
 10
321.87
 20
78.24
 10
335.07
 20
80.64
 10
335.07
 20
75.84
 10
321.87
 20
73.44
 10
321.87
 20
68.64
 10
323.07
 20
62.64
 10
325.47
 20
66.24
 10
327.87
 20
71.04
 10
331.47
 20
69.84
 10
332.67
 20
68.64
 10
332.67
 20
67.44
 10
331.47
 20
66.24
 10
327.87
 20
61.44
 10
325.47
 20
57.84
 10
326.67
 20
53.04
 10
327.87
 20
50.64
 10
329.07
 20
49.44
 10
330.27
 20
50.64
 10
331.47
 20
51.84
 10
332.67
 20
56.64
 10
336.27
 20
54.24
 10
335.07
 20
50.64
 10
333.87
 20
48.24
 10
332.67
 20
47.04
 10
331.47
 20
45.84
 10
330.27
 20
44.64
 10
329.07
 20
44.64
 10
327.87
 20
44.64
 10
326.67
 20
44.64
 10
326.67
 20
45.84
 10
323.07
 20
49.44
 10
321.87
 20
54.24
 10
317.07
 20
50.64
 10
311.07
 20
47.04
 10
308.67
 20
50.64
 10
311.07
 20
51.84
 10
314.67
 20
54.24
 10
317.07
 20
56.64
 10
320.67
 20
59.04
 10
318.27
 20
65.04
 10
317.07
 20
73.44
 10
311.07
 20
71.04
 10
311.07
 20
75.84
 10
317.07
 20
77.04
 97
0
 75
1
 76
1
 98
0
  0
LWPOLYLINE
  5
69
330
17
100
AcDbEntity
  8
FILL_WHITE_FFFFFF
370
0
420
16777215
100
AcDbPolyline
 90
49
 70
1
 10
317.07
 20
77.04
 10
317.07
 20
90.24
 10
320.67
 20
89.04
 10
321.87
 20
89.04
 10
321.87
 20
87.84
 10
321.87
 20
86.64
 10
321.87
 20
78.24
 10
335.07
 20
80.64
 10
335.07
 20
75.84
 10
321.87
 20
73.44
 10
321.87
 20
68.64
 10
323.07
 20
62.64
 10
325.47
 20
66.24
 10
327.87
 20
71.04
 10
331.47
 20
69.84
 10
332.67
 20
68.64
 10
332.67
 20
67.44
 10
331.47
 20
66.24
 10
327.87
 20
61.44
 10
325.47
 20
57.84
 10
326.67
 20
53.04
 10
327.87
 20
50.64
 10
329.07
 20
49.44
 10
330.27
 20
50.64
 10
331.47
 20
51.84
 10
332.67
 20
56.64
 10
336.27
 20
54.24
 10
335.07
 20
50.64
 10
333.87
 20
48.24
 10
332.67
 20
47.04
 10
331.47
 20
45.84
 10
330.27
 20
44.64
 10
329.07
 20
44.64
 10
327.87
 20
44.64
 10
326.67
 20
44.64
 10
326.67
 20
45.84
 10
323.07
 20
49.44
 10
321.87
 20
54.24
 10
317.07
 20
50.64
 10
311.07
 20
47.04
 10
308.67
 20
50.64
 10
311.07
 20
51.84
 10
314.67
 20
54.24
 10
317.07
 20
56.64
 10
320.67
 20
59.04
 10
318.27
 20
65.04
 10
317.07
 20
73.44
 10
311.07
 20
71.04
 10
311.07
 20
75.84
  0
HATCH
  5
6A
330
17
100
AcDbEntity
  8
FILL_WHITE_FFFFFF
 62
7
420
16777215
100
AcDbHatch
 10
0.0
 20
0.0
 30
0.0
210
0.0
220
0.0
230
1.0
  2
SOLID
 70
1
 71
0
 91
1
 92
3
 72
0
 73
1
 93
7
 10
327.87
 20
83.04
 10
324.27
 20
85.44
 10
327.87
 20
89.04
 10
330.27
 20
86.64
 10
333.87
 20
84.24
 10
330.27
 20
80.64
 10
327.87
 20
83.04
 97
0
 75
1
 76
1
 98
0
  0
LWPOLYLINE
  5
6B
330
17
100
AcDbEntity
  8
FILL_WHITE_FFFFFF
370
0
420
16777215
100
AcDbPolyline
 90
6
 70
1
 10
327.87
 20
83.04
 10
324.27
 20
85.44
 10
327.87
 20
89.04
 10
330.27
 20
86.64
 10
333.87
 20
84.24
 10
330.27
 20
80.64
  0
HATCH
  5
6C
330
17
100
AcDbEntity
  8
FILL_WHITE_FFFFFF
 62
7
420
16777215
100
AcDbHatch
 10
0.0
 20
0.0
 30
0.0
210
0.0
220
0.0
230
1.0
  2
SOLID
 70
1
 71
0
 91
1
 92
3
 72
0
 73
1
 93
33
 10
355.47
 20
81.84
 10
360.27
 20
90.24
 10
362.67
 20
87.84
 10
363.87
 20
87.84
 10
363.87
 20
86.64
 10
362.67
 20
86.64
 10
359.07
 20
79.44
 10
361.47
 20
78.24
 10
365.07
 20
84.24
 10
368.67
 20
81.84
 10
368.67
 20
80.64
 10
367.47
 20
79.44
 10
360.27
 20
69.84
 10
365.07
 20
69.84
 10
363.87
 20
72.24
 10
367.47
 20
73.44
 10
368.67
 20
69.84
 10
369.87
 20
65.04
 10
366.27
 20
63.84
 10
366.27
 20
66.24
 10
363.87
 20
66.24
 10
363.87
 20
44.64
 10
359.07
 20
44.64
 10
359.07
 20
65.04
 10
354.27
 20
65.04
 10
353.07
 20
63.84
 10
353.07
 20
65.04
 10
351.87
 20
68.64
 10
354.27
 20
68.64
 10
359.07
 20
74.64
 10
351.87
 20
80.64
 10
354.27
 20
83.04
 10
355.47
 20
81.84
 97
0
 75
1
 76
1
 98
0
  0
LWPOLYLINE
  5
6D
330
17
100
AcDbEntity
  8
FILL_WHITE_FFFFFF
370
0
420
16777215
100
AcDbPolyline
 90
32
 70
1
 10
355.47
 20
81.84
 10
360.27
 20
90.24
 10
362.67
 20
87.84
 10
363.87
 20
87.84
 10
363.87
 20
86.64
 10
362.67
 20
86.64
 10
359.07
 20
79.44
 10
361.47
 20
78.24
 10
365.07
 20
84.24
 10
368.67
 20
81.84
 10
368.67
 20
80.64
 10
367.47
 20
79.44
 10
360.27
 20
69.84
 10
365.07
 20
69.84
 10
363.87
 20
72.24
 10
367.47
 20
73.44
 10
368.67
 20
69.84
 10
369.87
 20
65.04
 10
366.27
 20
63.84
 10
366.27
 20
66.24
 10
363.87
 20
66.24
 10
363.87
 20
44.64
 10
359.07
 20
44.64
 10
359.07
 20
65.04
 10
354.27
 20
65.04
 10
353.07
 20
63.84
 10
353.07
 20
65.04
 10
351.87
 20
68.64
 10
354.27
 20
68.64
 10
359.07
 20
74.64
 10
351.87
 20
80.64
 10
354.27
 20
83.04
  0
HATCH
  5
6E
330
17
100
AcDbEntity
  8
FILL_WHITE_FFFFFF
 62
7
420
16777215
100
AcDbHatch
 10
0.0
 20
0.0
 30
0.0
210
0.0
220
0.0
230
1.0
  2
SOLID
 70
1
 71
0
 91
1
 92
3
 72
0
 73
1
 93
9
 10
353.07
 20
54.24
 10
353.07
 20
61.44
 10
357.87
 20
61.44
 10
357.87
 20
60.24
 10
357.87
 20
59.04
 10
356.67
 20
53.04
 10
356.67
 20
47.04
 10
351.87
 20
48.24
 10
353.07
 20
54.24
 97
0
 75
1
 76
1
 98
0
  0
LWPOLYLINE
  5
6F
330
17
100
AcDbEntity
  8
FILL_WHITE_FFFFFF
370
0
420
16777215
100
AcDbPolyline
 90
8
 70
1
 10
353.07
 20
54.24
 10
353.07
 20
61.44
 10
357.87
 20
61.44
 10
357.87
 20
60.24
 10
357.87
 20
59.04
 10
356.67
 20
53.04
 10
356.67
 20
47.04
 10
351.87
 20
48.24
  0
HATCH
  5
70
330
17
100
AcDbEntity
  8
FILL_WHITE_FFFFFF
 62
7
420
16777215
100
AcDbHatch
 10
0.0
 20
0.0
 30
0.0
210
0.0
220
0.0
230
1.0
  2
SOLID
 70
1
 71
0
 91
1
 92
3
 72
0
 73
1
 93
19
 10
380.67
 20
86.64
 10
380.67
 20
90.24
 10
384.27
 20
89.04
 10
385.47
 20
89.04
 10
385.47
 20
87.84
 10
384.27
 20
86.64
 10
397.47
 20
86.64
 10
397.47
 20
84.24
 10
384.27
 20
84.24
 10
384.27
 20
83.04
 10
395.07
 20
83.04
 10
395.07
 20
79.44
 10
371.07
 20
79.44
 10
371.07
 20
83.04
 10
380.67
 20
83.04
 10
380.67
 20
84.24
 10
368.67
 20
84.24
 10
368.67
 20
86.64
 10
380.67
 20
86.64
 97
0
 75
1
 76
1
 98
0
  0
LWPOLYLINE
  5
71
330
17
100
AcDbEntity
  8
FILL_WHITE_FFFFFF
370
0
420
16777215
100
AcDbPolyline
 90
18
 70
1
 10
380.67
 20
86.64
 10
380.67
 20
90.24
 10
384.27
 20
89.04
 10
385.47
 20
89.04
 10
385.47
 20
87.84
 10
384.27
 20
86.64
 10
397.47
 20
86.64
 10
397.47
 20
84.24
 10
384.27
 20
84.24
 10
384.27
 20
83.04
 10
395.07
 20
83.04
 10
395.07
 20
79.44
 10
371.07
 20
79.44
 10
371.07
 20
83.04
 10
380.67
 20
83.04
 10
380.67
 20
84.24
 10
368.67
 20
84.24
 10
368.67
 20
86.64
  0
HATCH
  5
72
330
17
100
AcDbEntity
  8
FILL_WHITE_FFFFFF
 62
7
420
16777215
100
AcDbHatch
 10
0.0
 20
0.0
 30
0.0
210
0.0
220
0.0
230
1.0
  2
SOLID
 70
1
 71
0
 91
2
 92
3
 72
0
 73
1
 93
5
 10
396.27
 20
67.44
 10
369.87
 20
67.44
 10
369.87
 20
78.24
 10
396.27
 20
78.24
 10
396.27
 20
67.44
 97
0
 92
18
 72
0
 73
1
 93
5
 10
379.47
 20
75.84
 10
373.47
 20
75.84
 10
373.47
 20
73.44
 10
377.07
 20
73.44
 10
379.47
 20
75.84
 97
0
 75
1
 76
1
 98
0
  0
LWPOLYLINE
  5
73
330
17
100
AcDbEntity
  8
FILL_WHITE_FFFFFF
370
0
420
16777215
100
AcDbPolyline
 90
4
 70
1
 10
396.27
 20
67.44
 10
369.87
 20
67.44
 10
369.87
 20
78.24
 10
396.27
 20
78.24
  0
LWPOLYLINE
  5
74
330
17
100
AcDbEntity
  8
FILL_WHITE_FFFFFF
370
0
420
16777215
100
AcDbPolyline
 90
4
 70
1
 10
379.47
 20
75.84
 10
373.47
 20
75.84
 10
373.47
 20
73.44
 10
377.07
 20
73.44
  0
HATCH
  5
75
330
17
100
AcDbEntity
  8
FILL_WHITE_FFFFFF
 62
7
420
16777215
100
AcDbHatch
 10
0.0
 20
0.0
 30
0.0
210
0.0
220
0.0
230
1.0
  2
SOLID
 70
1
 71
0
 91
4
 92
3
 72
0
 73
1
 93
18
 10
392.67
 20
48.24
 10
397.47
 20
47.04
 10
393.87
 20
44.64
 10
389.07
 20
45.84
 10
385.47
 20
48.24
 10
387.87
 20
50.64
 10
379.47
 20
50.64
 10
381.87
 20
48.24
 10
371.07
 20
44.64
 10
368.67
 20
47.04
 10
372.27
 20
48.24
 10
377.07
 20
50.64
 10
372.27
 20
50.64
 10
372.27
 20
66.24
 10
393.87
 20
66.24
 10
393.87
 20
50.64
 10
389.07
 20
50.64
 10
392.67
 20
48.24
 97
0
 92
18
 72
0
 73
1
 93
5
 10
375.87
 20
61.44
 10
390.27
 20
61.44
 10
390.27
 20
63.84
 10
375.87
 20
63.84
 10
375.87
 20
61.44
 97
0
 92
18
 72
0
 73
1
 93
5
 10
375.87
 20
54.24
 10
375.87
 20
53.04
 10
390.27
 20
53.04
 10
390.27
 20
54.24
 10
375.87
 20
54.24
 97
0
 92
18
 72
0
 73
1
 93
5
 10
390.27
 20
59.04
 10
375.87
 20
59.04
 10
375.87
 20
56.64
 10
390.27
 20
56.64
 10
390.27
 20
59.04
 97
0
 75
1
 76
1
 98
0
  0
LWPOLYLINE
  5
76
330
17
100
AcDbEntity
  8
FILL_WHITE_FFFFFF
370
0
420
16777215
100
AcDbPolyline
 90
17
 70
1
 10
392.67
 20
48.24
 10
397.47
 20
47.04
 10
393.87
 20
44.64
 10
389.07
 20
45.84
 10
385.47
 20
48.24
 10
387.87
 20
50.64
 10
379.47
 20
50.64
 10
381.87
 20
48.24
 10
371.07
 20
44.64
 10
368.67
 20
47.04
 10
372.27
 20
48.24
 10
377.07
 20
50.64
 10
372.27
 20
50.64
 10
372.27
 20
66.24
 10
393.87
 20
66.24
 10
393.87
 20
50.64
 10
389.07
 20
50.64
  0
LWPOLYLINE
  5
77
330
17
100
AcDbEntity
  8
FILL_WHITE_FFFFFF
370
0
420
16777215
100
AcDbPolyline
 90
4
 70
1
 10
375.87
 20
61.44
 10
390.27
 20
61.44
 10
390.27
 20
63.84
 10
375.87
 20
63.84
  0
LWPOLYLINE
  5
78
330
17
100
AcDbEntity
  8
FILL_WHITE_FFFFFF
370
0
420
16777215
100
AcDbPolyline
 90
4
 70
1
 10
375.87
 20
54.24
 10
375.87
 20
53.04
 10
390.27
 20
53.04
 10
390.27
 20
54.24
  0
LWPOLYLINE
  5
79
330
17
100
AcDbEntity
  8
FILL_WHITE_FFFFFF
370
0
420
16777215
100
AcDbPolyline
 90
4
 70
1
 10
390.27
 20
59.04
 10
375.87
 20
59.04
 10
375.87
 20
56.64
 10
390.27
 20
56.64
  0
HATCH
  5
7A
330
17
100
AcDbEntity
  8
FILL_WHITE_FFFFFF
 62
7
420
16777215
100
AcDbHatch
 10
0.0
 20
0.0
 30
0.0
210
0.0
220
0.0
230
1.0
  2
SOLID
 70
1
 71
0
 91
1
 92
3
 72
0
 73
1
 93
6
 10
369.87
 20
56.64
 10
371.07
 20
51.84
 10
366.27
 20
50.64
 10
365.07
 20
61.44
 10
368.67
 20
61.44
 10
369.87
 20
56.64
 97
0
 75
1
 76
1
 98
0
  0
LWPOLYLINE
  5
7B
330
17
100
AcDbEntity
  8
FILL_WHITE_FFFFFF
370
0
420
16777215
100
AcDbPolyline
 90
5
 70
1
 10
369.87
 20
56.64
 10
371.07
 20
51.84
 10
366.27
 20
50.64
 10
365.07
 20
61.44
 10
368.67
 20
61.44
  0
HATCH
  5
7C
330
17
100
AcDbEntity
  8
FILL_WHITE_FFFFFF
 62
7
420
16777215
100
AcDbHatch
 10
0.0
 20
0.0
 30
0.0
210
0.0
220
0.0
230
1.0
  2
SOLID
 70
1
 71
0
 91
1
 92
3
 72
0
 73
1
 93
117
 10
293.68
 20
186.46
 10
294.61
 20
184.44
 10
295.81
 20
182.65
 10
297.27
 20
181.14
 10
298.09
 20
180.51
 10
298.95
 20
179.97
 10
299.87
 20
179.53
 10
300.83
 20
179.19
 10
301.84
 20
178.97
 10
302.88
 20
178.86
 10
303.96
 20
178.88
 10
305.07
 20
179.04
 10
306.37
 20
179.1
 10
307.56
 20
179.27
 10
308.68
 20
179.55
 10
309.72
 20
179.94
 10
310.71
 20
180.45
 10
311.65
 20
181.07
 10
313.47
 20
182.64
 10
314.31
 20
183.59
 10
315.05
 20
184.65
 10
315.66
 20
185.78
 10
316.17
 20
186.99
 10
316.56
 20
188.25
 10
316.84
 20
189.56
 10
317.01
 20
190.89
 10
317.07
 20
192.24
 10
317.01
 20
193.59
 10
316.84
 20
194.92
 10
316.56
 20
196.23
 10
316.17
 20
197.49
 10
315.66
 20
198.7
 10
315.05
 20
199.83
 10
314.31
 20
200.89
 10
313.47
 20
201.84
 10
311.65
 20
203.41
 10
310.71
 20
204.03
 10
309.72
 20
204.54
 10
308.68
 20
204.93
 10
307.56
 20
205.22
 10
306.37
 20
205.38
 10
305.07
 20
205.44
 10
304.22
 20
205.39
 10
303.46
 20
205.23
 10
302.07
 20
204.69
 10
299.07
 20
203.04
 10
297.5
 20
202.12
 10
296.88
 20
201.63
 10
296.37
 20
201.09
 10
295.98
 20
200.5
 10
295.7
 20
199.83
 10
295.53
 20
199.09
 10
295.47
 20
198.24
 10
283.47
 20
200.64
 10
289.47
 20
231.84
 10
324.27
 20
231.84
 10
324.27
 20
222.24
 10
297.87
 20
222.24
 10
295.47
 20
211.44
 10
298.32
 20
212.64
 10
299.35
 20
213.13
 10
300.27
 20
213.84
 10
302.67
 20
213.99
 10
303.98
 20
214.35
 10
304.57
 20
214.64
 10
305.07
 20
215.04
 10
307.06
 20
214.83
 10
309.27
 20
214.29
 10
311.48
 20
213.52
 10
313.47
 20
212.64
 10
314.37
 20
212.53
 10
315.27
 20
212.23
 10
316.17
 20
211.75
 10
317.07
 20
211.14
 10
318.87
 20
209.6
 10
320.67
 20
207.84
 10
322.31
 20
206.38
 10
323.63
 20
204.73
 10
324.68
 20
202.9
 10
325.47
 20
200.94
 10
326.04
 20
198.86
 10
326.41
 20
196.7
 10
326.61
 20
194.49
 10
326.67
 20
192.24
 10
326.95
 20
190.34
 10
326.91
 20
188.26
 10
326.56
 20
186.08
 10
325.92
 20
183.84
 10
324.99
 20
181.6
 10
323.8
 20
179.42
 10
322.36
 20
177.34
 10
320.67
 20
175.44
 10
319.21
 20
173.8
 10
317.56
 20
172.48
 10
315.73
 20
171.43
 10
313.77
 20
170.64
 10
311.69
 20
170.07
 10
309.53
 20
169.7
 10
307.32
 20
169.5
 10
305.07
 20
169.44
 10
303.22
 20
169.5
 10
301.28
 20
169.68
 10
299.29
 20
170.01
 10
297.27
 20
170.49
 10
295.25
 20
171.14
 10
293.26
 20
171.97
 10
291.32
 20
173.0
 10
289.47
 20
174.24
 10
288.62
 20
174.74
 10
287.88
 20
175.33
 10
286.62
 20
176.64
 10
284.67
 20
179.04
 10
283.98
 20
180.82
 10
283.62
 20
182.49
 10
283.47
 20
185.04
 10
293.07
 20
188.64
 10
293.68
 20
186.46
 97
0
 75
1
 76
1
 98
0
  0
LWPOLYLINE
  5
7D
330
17
100
AcDbEntity
  8
FILL_WHITE_FFFFFF
370
0
420
16777215
100
AcDbPolyline
 90
116
 70
1
 10
293.68
 20
186.46
 10
294.61
 20
184.44
 10
295.81
 20
182.65
 10
297.27
 20
181.14
 10
298.09
 20
180.51
 10
298.95
 20
179.97
 10
299.87
 20
179.53
 10
300.83
 20
179.19
 10
301.84
 20
178.97
 10
302.88
 20
178.86
 10
303.96
 20
178.88
 10
305.07
 20
179.04
 10
306.37
 20
179.1
 10
307.56
 20
179.27
 10
308.68
 20
179.55
 10
309.72
 20
179.94
 10
310.71
 20
180.45
 10
311.65
 20
181.07
 10
313.47
 20
182.64
 10
314.31
 20
183.59
 10
315.05
 20
184.65
 10
315.66
 20
185.78
 10
316.17
 20
186.99
 10
316.56
 20
188.25
 10
316.84
 20
189.56
 10
317.01
 20
190.89
 10
317.07
 20
192.24
 10
317.01
 20
193.59
 10
316.84
 20
194.92
 10
316.56
 20
196.23
 10
316.17
 20
197.49
 10
315.66
 20
198.7
 10
315.05
 20
199.83
 10
314.31
 20
200.89
 10
313.47
 20
201.84
 10
311.65
 20
203.41
 10
310.71
 20
204.03
 10
309.72
 20
204.54
 10
308.68
 20
204.93
 10
307.56
 20
205.22
 10
306.37
 20
205.38
 10
305.07
 20
205.44
 10
304.22
 20
205.39
 10
303.46
 20
205.23
 10
302.07
 20
204.69
 10
299.07
 20
203.04
 10
297.5
 20
202.12
 10
296.88
 20
201.63
 10
296.37
 20
201.09
 10
295.98
 20
200.5
 10
295.7
 20
199.83
 10
295.53
 20
199.09
 10
295.47
 20
198.24
 10
283.47
 20
200.64
 10
289.47
 20
231.84
 10
324.27
 20
231.84
 10
324.27
 20
222.24
 10
297.87
 20
222.24
 10
295.47
 20
211.44
 10
298.32
 20
212.64
 10
299.35
 20
213.13
 10
300.27
 20
213.84
 10
302.67
 20
213.99
 10
303.98
 20
214.35
 10
304.57
 20
214.64
 10
305.07
 20
215.04
 10
307.06
 20
214.83
 10
309.27
 20
214.29
 10
311.48
 20
213.52
 10
313.47
 20
212.64
 10
314.37
 20
212.53
 10
315.27
 20
212.23
 10
316.17
 20
211.75
 10
317.07
 20
211.14
 10
318.87
 20
209.6
 10
320.67
 20
207.84
 10
322.31
 20
206.38
 10
323.63
 20
204.73
 10
324.68
 20
202.9
 10
325.47
 20
200.94
 10
326.04
 20
198.86
 10
326.41
 20
196.7
 10
326.61
 20
194.49
 10
326.67
 20
192.24
 10
326.95
 20
190.34
 10
326.91
 20
188.26
 10
326.56
 20
186.08
 10
325.92
 20
183.84
 10
324.99
 20
181.6
 10
323.8
 20
179.42
 10
322.36
 20
177.34
 10
320.67
 20
175.44
 10
319.21
 20
173.8
 10
317.56
 20
172.48
 10
315.73
 20
171.43
 10
313.77
 20
170.64
 10
311.69
 20
170.07
 10
309.53
 20
169.7
 10
307.32
 20
169.5
 10
305.07
 20
169.44
 10
303.22
 20
169.5
 10
301.28
 20
169.68
 10
299.29
 20
170.01
 10
297.27
 20
170.49
 10
295.25
 20
171.14
 10
293.26
 20
171.97
 10
291.32
 20
173.0
 10
289.47
 20
174.24
 10
288.62
 20
174.74
 10
287.88
 20
175.33
 10
286.62
 20
176.64
 10
284.67
 20
179.04
 10
283.98
 20
180.82
 10
283.62
 20
182.49
 10
283.47
 20
185.04
 10
293.07
 20
188.64
  0
HATCH
  5
7E
330
17
100
AcDbEntity
  8
FILL_WHITE_FFFFFF
 62
7
420
16777215
100
AcDbHatch
 10
0.0
 20
0.0
 30
0.0
210
0.0
220
0.0
230
1.0
  2
SOLID
 70
1
 71
0
 91
3
 92
3
 72
0
 73
1
 93
106
 10
249.56
 20
188.02
 10
250.17
 20
186.99
 10
250.9
 20
186.01
 10
251.71
 20
185.13
 10
252.57
 20
184.4
 10
253.47
 20
183.84
 10
253.47
 20
198.24
 10
252.12
 20
198.35
 10
250.79
 20
198.65
 10
249.48
 20
199.13
 10
248.22
 20
199.74
 10
247.01
 20
200.47
 10
245.88
 20
201.28
 10
243.87
 20
203.04
 10
242.3
 20
205.72
 10
241.17
 20
208.29
 10
240.5
 20
210.63
 10
240.33
 20
211.69
 10
240.27
 20
212.64
 10
240.34
 20
213.98
 10
240.54
 20
215.28
 10
240.87
 20
216.55
 10
241.32
 20
217.78
 10
241.88
 20
218.97
 10
242.55
 20
220.11
 10
243.31
 20
221.2
 10
244.17
 20
222.24
 10
246.13
 20
224.15
 10
248.37
 20
225.8
 10
250.84
 20
227.18
 10
253.47
 20
228.24
 10
253.47
 20
231.84
 10
258.27
 20
231.84
 10
258.27
 20
228.24
 10
259.61
 20
227.96
 10
260.91
 20
227.57
 10
262.17
 20
227.09
 10
263.39
 20
226.52
 10
265.67
 20
225.12
 10
267.72
 20
223.44
 10
269.48
 20
221.54
 10
270.93
 20
219.47
 10
272.0
 20
217.28
 10
272.39
 20
216.16
 10
272.67
 20
215.04
 10
264.27
 20
213.84
 10
263.56
 20
214.74
 10
263.07
 20
215.64
 10
262.58
 20
216.54
 10
261.87
 20
217.44
 10
260.97
 20
218.15
 10
260.07
 20
218.64
 10
259.17
 20
219.13
 10
258.27
 20
219.84
 10
258.27
 20
206.64
 10
261.65
 20
205.7
 10
263.16
 20
205.16
 10
264.57
 20
204.54
 10
265.86
 20
203.8
 10
267.05
 20
202.93
 10
268.11
 20
201.88
 10
269.07
 20
200.64
 10
270.31
 20
199.29
 10
271.34
 20
197.94
 10
272.17
 20
196.59
 10
272.82
 20
195.24
 10
273.3
 20
193.89
 10
273.63
 20
192.54
 10
273.81
 20
191.19
 10
273.87
 20
189.84
 10
273.8
 20
188.49
 10
273.59
 20
187.15
 10
273.25
 20
185.83
 10
272.78
 20
184.53
 10
272.19
 20
183.27
 10
271.47
 20
182.06
 10
270.63
 20
180.89
 10
269.67
 20
179.79
 10
268.6
 20
178.76
 10
267.42
 20
177.8
 10
266.14
 20
176.94
 10
264.76
 20
176.17
 10
263.27
 20
175.51
 10
261.7
 20
174.96
 10
260.03
 20
174.53
 10
258.27
 20
174.24
 10
258.27
 20
168.24
 10
253.47
 20
168.24
 10
253.47
 20
174.24
 10
250.79
 20
175.18
 10
248.22
 20
176.34
 10
247.01
 20
177.08
 10
245.88
 20
177.95
 10
244.82
 20
179.0
 10
243.87
 20
180.24
 10
243.02
 20
181.2
 10
242.28
 20
182.27
 10
241.61
 20
183.45
 10
241.02
 20
184.74
 10
239.99
 20
187.67
 10
239.07
 20
191.04
 10
240.27
 20
191.04
 10
248.67
 20
191.04
 10
248.78
 20
190.09
 10
249.08
 20
189.07
 10
249.56
 20
188.02
 97
0
 92
18
 72
0
 73
1
 93
19
 10
251.82
 20
218.64
 10
251.28
 20
218.15
 10
251.12
 20
217.84
 10
251.07
 20
217.44
 10
250.38
 20
216.54
 10
250.02
 20
215.64
 10
249.89
 20
214.74
 10
249.87
 20
213.84
 10
249.93
 20
212.94
 10
250.1
 20
212.06
 10
250.38
 20
211.2
 10
250.77
 20
210.39
 10
251.28
 20
209.63
 10
251.9
 20
208.95
 10
252.63
 20
208.34
 10
253.47
 20
207.84
 10
253.47
 20
219.84
 10
252.59
 20
219.13
 10
251.82
 20
218.64
 97
0
 92
18
 72
0
 73
1
 93
23
 10
258.72
 20
183.5
 10
259.15
 20
183.33
 10
259.56
 20
183.31
 10
259.92
 20
183.39
 10
260.67
 20
183.84
 10
261.38
 20
183.86
 10
261.87
 20
183.99
 10
262.36
 20
184.35
 10
263.07
 20
185.04
 10
263.47
 20
185.54
 10
263.76
 20
186.13
 10
264.12
 20
187.44
 10
264.27
 20
189.84
 10
264.12
 20
192.24
 10
263.76
 20
193.55
 10
263.47
 20
194.14
 10
263.07
 20
194.64
 10
262.15
 20
195.33
 10
261.12
 20
195.69
 10
259.86
 20
195.82
 10
258.27
 20
195.84
 10
258.27
 20
183.84
 10
258.72
 20
183.5
 97
0
 75
1
 76
1
 98
0
  0
LWPOLYLINE
  5
7F
330
17
100
AcDbEntity
  8
FILL_WHITE_FFFFFF
370
0
420
16777215
100
AcDbPolyline
 90
105
 70
1
 10
249.56
 20
188.02
 10
250.17
 20
186.99
 10
250.9
 20
186.01
 10
251.71
 20
185.13
 10
252.57
 20
184.4
 10
253.47
 20
183.84
 10
253.47
 20
198.24
 10
252.12
 20
198.35
 10
250.79
 20
198.65
 10
249.48
 20
199.13
 10
248.22
 20
199.74
 10
247.01
 20
200.47
 10
245.88
 20
201.28
 10
243.87
 20
203.04
 10
242.3
 20
205.72
 10
241.17
 20
208.29
 10
240.5
 20
210.63
 10
240.33
 20
211.69
 10
240.27
 20
212.64
 10
240.34
 20
213.98
 10
240.54
 20
215.28
 10
240.87
 20
216.55
 10
241.32
 20
217.78
 10
241.88
 20
218.97
 10
242.55
 20
220.11
 10
243.31
 20
221.2
 10
244.17
 20
222.24
 10
246.13
 20
224.15
 10
248.37
 20
225.8
 10
250.84
 20
227.18
 10
253.47
 20
228.24
 10
253.47
 20
231.84
 10
258.27
 20
231.84
 10
258.27
 20
228.24
 10
259.61
 20
227.96
 10
260.91
 20
227.57
 10
262.17
 20
227.09
 10
263.39
 20
226.52
 10
265.67
 20
225.12
 10
267.72
 20
223.44
 10
269.48
 20
221.54
 10
270.93
 20
219.47
 10
272.0
 20
217.28
 10
272.39
 20
216.16
 10
272.67
 20
215.04
 10
264.27
 20
213.84
 10
263.56
 20
214.74
 10
263.07
 20
215.64
 10
262.58
 20
216.54
 10
261.87
 20
217.44
 10
260.97
 20
218.15
 10
260.07
 20
218.64
 10
259.17
 20
219.13
 10
258.27
 20
219.84
 10
258.27
 20
206.64
 10
261.65
 20
205.7
 10
263.16
 20
205.16
 10
264.57
 20
204.54
 10
265.86
 20
203.8
 10
267.05
 20
202.93
 10
268.11
 20
201.88
 10
269.07
 20
200.64
 10
270.31
 20
199.29
 10
271.34
 20
197.94
 10
272.17
 20
196.59
 10
272.82
 20
195.24
 10
273.3
 20
193.89
 10
273.63
 20
192.54
 10
273.81
 20
191.19
 10
273.87
 20
189.84
 10
273.8
 20
188.49
 10
273.59
 20
187.15
 10
273.25
 20
185.83
 10
272.78
 20
184.53
 10
272.19
 20
183.27
 10
271.47
 20
182.06
 10
270.63
 20
180.89
 10
269.67
 20
179.79
 10
268.6
 20
178.76
 10
267.42
 20
177.8
 10
266.14
 20
176.94
 10
264.76
 20
176.17
 10
263.27
 20
175.51
 10
261.7
 20
174.96
 10
260.03
 20
174.53
 10
258.27
 20
174.24
 10
258.27
 20
168.24
 10
253.47
 20
168.24
 10
253.47
 20
174.24
 10
250.79
 20
175.18
 10
248.22
 20
176.34
 10
247.01
 20
177.08
 10
245.88
 20
177.95
 10
244.82
 20
179.0
 10
243.87
 20
180.24
 10
243.02
 20
181.2
 10
242.28
 20
182.27
 10
241.61
 20
183.45
 10
241.02
 20
184.74
 10
239.99
 20
187.67
 10
239.07
 20
191.04
 10
240.27
 20
191.04
 10
248.67
 20
191.04
 10
248.78
 20
190.09
 10
249.08
 20
189.07
  0
LWPOLYLINE
  5
80
330
17
100
AcDbEntity
  8
FILL_WHITE_FFFFFF
370
0
420
16777215
100
AcDbPolyline
 90
18
 70
1
 10
251.82
 20
218.64
 10
251.28
 20
218.15
 10
251.12
 20
217.84
 10
251.07
 20
217.44
 10
250.38
 20
216.54
 10
250.02
 20
215.64
 10
249.89
 20
214.74
 10
249.87
 20
213.84
 10
249.93
 20
212.94
 10
250.1
 20
212.06
 10
250.38
 20
211.2
 10
250.77
 20
210.39
 10
251.28
 20
209.63
 10
251.9
 20
208.95
 10
252.63
 20
208.34
 10
253.47
 20
207.84
 10
253.47
 20
219.84
 10
252.59
 20
219.13
  0
LWPOLYLINE
  5
81
330
17
100
AcDbEntity
  8
FILL_WHITE_FFFFFF
370
0
420
16777215
100
AcDbPolyline
 90
22
 70
1
 10
258.72
 20
183.5
 10
259.15
 20
183.33
 10
259.56
 20
183.31
 10
259.92
 20
183.39
 10
260.67
 20
183.84
 10
261.38
 20
183.86
 10
261.87
 20
183.99
 10
262.36
 20
184.35
 10
263.07
 20
185.04
 10
263.47
 20
185.54
 10
263.76
 20
186.13
 10
264.12
 20
187.44
 10
264.27
 20
189.84
 10
264.12
 20
192.24
 10
263.76
 20
193.55
 10
263.47
 20
194.14
 10
263.07
 20
194.64
 10
262.15
 20
195.33
 10
261.12
 20
195.69
 10
259.86
 20
195.82
 10
258.27
 20
195.84
 10
258.27
 20
183.84
  0
LWPOLYLINE
  5
83
330
17
100
AcDbEntity
  8
STROKE_WHITE_FFFFFF
370
0
420
16777215
100
AcDbPolyline
 90
2
 70
0
 10
269.27000000000044
 20
140.48000000000002
 10
269.27000000000044
 20
140.48000000000002
  0
LWPOLYLINE
  5
84
330
17
100
AcDbEntity
  8
STROKE_WHITE_FFFFFF
370
0
420
16777215
100
AcDbPolyline
 90
2
 70
0
 10
439.27000000000044
 20
110.48000000000002
 10
439.27000000000044
 20
110.48000000000002
  0
LWPOLYLINE
  5
85
330
17
100
AcDbEntity
  8
STROKE_WHITE_FFFFFF
370
0
420
16777215
100
AcDbPolyline
 90
2
 70
0
 10
249.27000000000044
 20
190.48000000000002
 10
249.27000000000044
 20
190.48000000000002
  0
LWPOLYLINE
  5
87
330
17
100
AcDbEntity
  8
STROKE_BLUE_0000FF
370
0
420
255
100
AcDbPolyline
 90
69
 70
0
 10
443.0700000000006
 20
263.0399999999995
 10
444.8407031250006
 20
262.9567968749995
 10
446.5481250000004
 20
262.7118749999995
 10
448.1852343750004
 20
262.31226562499955
 10
449.74500000000046
 20
261.7649999999996
 10
451.2203906250004
 20
261.0771093749997
 10
452.60437500000046
 20
260.2556249999997
 10
453.8899218750005
 20
259.3075781249998
 10
455.0700000000005
 20
258.23999999999984
 10
456.1375781250006
 20
257.05992187499993
 10
457.0856250000006
 20
255.77437499999996
 10
457.9071093750006
 20
254.390390625
 10
458.5950000000007
 20
252.91500000000008
 10
459.14226562500073
 20
251.35523437500012
 10
459.5418750000008
 20
249.71812500000019
 10
459.78679687500085
 20
248.01070312500022
 10
459.8700000000008
 20
246.24000000000024
 10
459.8700000000008
 20
25.440000000000055
 10
459.78679687500085
 20
23.66929687500007
 10
459.5418750000008
 20
21.96187500000005
 10
459.14226562500073
 20
20.324765625000083
 10
458.5950000000007
 20
18.76500000000007
 10
457.9071093750006
 20
17.289609375000055
 10
457.0856250000006
 20
15.905625000000043
 10
456.1375781250006
 20
14.62007812500002
 10
455.0700000000005
 20
13.439999999999998
 10
453.8899218750004
 20
12.37242187499993
 10
452.60437500000046
 20
11.42437499999994
 10
451.2203906250004
 20
10.60289062499993
 10
449.7450000000004
 20
9.914999999999907
 10
448.1852343750004
 20
9.367734374999884
 10
446.5481250000004
 20
8.968124999999873
 10
444.8407031250005
 20
8.723203124999884
 10
443.0700000000006
 20
8.639999999999873
 10
122.67000000000007
 20
8.639999999999873
 10
120.89929687500016
 20
8.723203124999884
 10
119.19187500000027
 20
8.968124999999873
 10
117.55476562500034
 20
9.367734374999884
 10
115.99500000000042
 20
9.914999999999964
 10
114.5196093750005
 20
10.60289062499993
 10
113.13562500000054
 20
11.42437499999994
 10
111.8500781250006
 20
12.37242187499993
 10
110.67000000000064
 20
13.439999999999998
 10
109.60242187500069
 20
14.62007812500002
 10
108.65437500000073
 20
15.905625000000043
 10
107.83289062500074
 20
17.289609375000026
 10
107.14500000000076
 20
18.76500000000007
 10
106.59773437500078
 20
20.324765625000083
 10
106.19812500000079
 20
21.96187500000005
 10
105.9532031250008
 20
23.66929687500007
 10
105.8700000000008
 20
25.440000000000055
 10
105.8700000000008
 20
246.24000000000024
 10
105.9532031250008
 20
248.01070312500022
 10
106.19812500000079
 20
249.71812500000019
 10
106.59773437500078
 20
251.35523437500012
 10
107.14500000000076
 20
252.91500000000008
 10
107.83289062500074
 20
254.39039062500004
 10
108.65437500000073
 20
255.77437499999996
 10
109.60242187500069
 20
257.05992187499993
 10
110.67000000000064
 20
258.23999999999984
 10
111.8500781250006
 20
259.3075781249998
 10
113.13562500000054
 20
260.2556249999997
 10
114.5196093750005
 20
261.0771093749997
 10
115.99500000000042
 20
261.7649999999996
 10
117.55476562500034
 20
262.31226562499955
 10
119.19187500000027
 20
262.7118749999995
 10
120.89929687500016
 20
262.9567968749995
 10
122.67000000000007
 20
263.0399999999995
 10
443.0700000000006
 20
263.0399999999995
  0
ENDSEC
  0
SECTION
  2
OBJECTS
  0
DICTIONARY
  5
A
330
0
100
AcDbDictionary
281
1
  3
ACAD_COLOR
350
B
  3
ACAD_GROUP
350
C
  3
ACAD_LAYOUT
350
D
  3
ACAD_MATERIAL
350
E
  3
ACAD_MLEADERSTYLE
350
F
  3
ACAD_MLINESTYLE
350
10
  3
ACAD_PLOTSETTINGS
350
11
  3
ACAD_PLOTSTYLENAME
350
12
  3
ACAD_SCALELIST
350
14
  3
ACAD_TABLESTYLE
350
15
  3
ACAD_VISUALSTYLE
350
16
  3
EZDXF_META
350
2D
  0
DICTIONARY
  5
B
330
A
100
AcDbDictionary
281
1
  0
DICTIONARY
  5
C
330
A
100
AcDbDictionary
281
1
  0
DICTIONARY
  5
D
330
A
100
AcDbDictionary
281
1
  3
Model
350
1A
  3
Layout1
350
1E
  0
DICTIONARY
  5
E
330
A
100
AcDbDictionary
281
1
  3
ByBlock
350
1F
  3
ByLayer
350
20
  3
Global
350
21
  0
DICTIONARY
  5
F
330
A
100
AcDbDictionary
281
1
  3
Standard
350
2C
  0
DICTIONARY
  5
10
330
A
100
AcDbDictionary
281
1
  3
Standard
350
22
  0
DICTIONARY
  5
11
330
A
100
AcDbDictionary
281
1
  0
ACDBDICTIONARYWDFLT
  5
12
330
A
100
AcDbDictionary
281
1
  3
Normal
350
13
100
AcDbDictionaryWithDefault
340
13
  0
ACDBPLACEHOLDER
  5
13
330
12
  0
DICTIONARY
  5
14
330
A
100
AcDbDictionary
281
1
  0
DICTIONARY
  5
15
330
A
100
AcDbDictionary
281
1
  0
DICTIONARY
  5
16
330
A
100
AcDbDictionary
281
1
  0
LAYOUT
  5
1A
330
D
100
AcDbPlotSettings
  1

  4
A3
  6

 40
7.5
 41
20.0
 42
7.5
 43
20.0
 44
420.0
 45
297.0
 46
0.0
 47
0.0
 48
0.0
 49
0.0
140
0.0
141
0.0
142
1.0
143
1.0
 70
1024
 72
1
 73
0
 74
5
  7

 75
16
 76
0
 77
2
 78
300
147
1.0
148
0.0
149
0.0
100
AcDbLayout
  1
Model
 70
1
 71
0
 10
0.0
 20
0.0
 11
420.0
 21
297.0
 12
0.0
 22
0.0
 32
0.0
 14
1e+20
 24
1e+20
 34
1e+20
 15
-1e+20
 25
-1e+20
 35
-1e+20
146
0.0
 13
0.0
 23
0.0
 33
0.0
 16
1.0
 26
0.0
 36
0.0
 17
0.0
 27
1.0
 37
0.0
 76
1
330
17
  0
LAYOUT
  5
1E
330
D
100
AcDbPlotSettings
  1

  4
A3
  6

 40
7.5
 41
20.0
 42
7.5
 43
20.0
 44
420.0
 45
297.0
 46
0.0
 47
0.0
 48
0.0
 49
0.0
140
0.0
141
0.0
142
1.0
143
1.0
 70
0
 72
1
 73
0
 74
5
  7

 75
16
 76
0
 77
2
 78
300
147
1.0
148
0.0
149
0.0
100
AcDbLayout
  1
Layout1
 70
1
 71
1
 10
0.0
 20
0.0
 11
420.0
 21
297.0
 12
0.0
 22
0.0
 32
0.0
 14
1e+20
 24
1e+20
 34
1e+20
 15
-1e+20
 25
-1e+20
 35
-1e+20
146
0.0
 13
0.0
 23
0.0
 33
0.0
 16
1.0
 26
0.0
 36
0.0
 17
0.0
 27
1.0
 37
0.0
 76
1
330
1B
  0
MATERIAL
  5
1F
102
{ACAD_REACTORS
330
E
102
}
330
E
100
AcDbMaterial
  1
ByBlock
  2

 70
0
 40
1.0
 71
1
 41
1.0
 91
-1023410177
 42
1.0
 72
1
  3

 73
1
 74
1
 75
1
 44
0.5
 73
0
 45
1.0
 46
1.0
 77
1
  4

 78
1
 79
1
170
1
 48
1.0
171
1
  6

172
1
173
1
174
1
140
1.0
141
1.0
175
1
  7

176
1
177
1
178
1
143
1.0
179
1
  8

270
1
271
1
272
1
145
1.0
146
1.0
273
1
  9

274
1
275
1
276
1
 42
1.0
 72
1
  3

 73
1
 74
1
 75
1
 94
63
  0
MATERIAL
  5
20
102
{ACAD_REACTORS
330
E
102
}
330
E
100
AcDbMaterial
  1
ByLayer
  2

 70
0
 40
1.0
 71
1
 41
1.0
 91
-1023410177
 42
1.0
 72
1
  3

 73
1
 74
1
 75
1
 44
0.5
 73
0
 45
1.0
 46
1.0
 77
1
  4

 78
1
 79
1
170
1
 48
1.0
171
1
  6

172
1
173
1
174
1
140
1.0
141
1.0
175
1
  7

176
1
177
1
178
1
143
1.0
179
1
  8

270
1
271
1
272
1
145
1.0
146
1.0
273
1
  9

274
1
275
1
276
1
 42
1.0
 72
1
  3

 73
1
 74
1
 75
1
 94
63
  0
MATERIAL
  5
21
102
{ACAD_REACTORS
330
E
102
}
330
E
100
AcDbMaterial
  1
Global
  2

 70
0
 40
1.0
 71
1
 41
1.0
 91
-1023410177
 42
1.0
 72
1
  3

 73
1
 74
1
 75
1
 44
0.5
 73
0
 45
1.0
 46
1.0
 77
1
  4

 78
1
 79
1
170
1
 48
1.0
171
1
  6

172
1
173
1
174
1
140
1.0
141
1.0
175
1
  7

176
1
177
1
178
1
143
1.0
179
1
  8

270
1
271
1
272
1
145
1.0
146
1.0
273
1
  9

274
1
275
1
276
1
 42
1.0
 72
1
  3

 73
1
 74
1
 75
1
 94
63
  0
MLINESTYLE
  5
22
102
{ACAD_REACTORS
330
10
102
}
330
10
100
AcDbMlineStyle
  2
Standard
 70
0
  3

 62
256
 51
90.0
 52
90.0
 71
2
 49
0.5
 62
256
  6
BYLAYER
 49
-0.5
 62
256
  6
BYLAYER
  0
MLEADERSTYLE
  5
2C
102
{ACAD_REACTORS
330
F
102
}
330
F
100
AcDbMLeaderStyle
179
2
170
2
171
1
172
0
 90
2
 40
0.0
 41
0.0
173
1
 91
-1056964608
 92
-2
290
1
 42
2.0
291
1
 43
8.0
  3
Standard
 44
4.0
300

342
29
174
1
175
1
176
0
178
1
 93
-1056964608
 45
4.0
292
0
297
0
 46
4.0
 94
-1056964608
 47
1.0
 49
1.0
140
1.0
294
1
141
0.0
177
0
142
1.0
295
0
296
0
143
3.75
271
0
272
9
273
9
  0
DICTIONARY
  5
2D
330
A
100
AcDbDictionary
280
1
281
1
  3
CREATED_BY_EZDXF
350
2E
  3
WRITTEN_BY_EZDXF
350
8A
  0
DICTIONARYVAR
  5
2E
330
2D
100
DictionaryVariables
280
0
  1
1.4.4 @ 2026-07-10T01:53:55.667190+00:00
  0
DICTIONARYVAR
  5
8A
330
2D
100
DictionaryVariables
280
0
  1
1.4.4 @ 2026-07-10T01:53:55.680877+00:00
  0
ENDSEC
  0
EOF
