  0
SECTION
  2
HEADER
  9
$ACADVER
  1
AC1024
  9
$ACADMAINTVER
 70
6
  9
$DWGCODEPAGE
  3
ANSI_1252
  9
$LASTSAVEDBY
  1
ezdxf
  9
$INSBASE
 10
0.0
 20
0.0
 30
0.0
  9
$EXTMIN
 10
1e+20
 20
1e+20
 30
1e+20
  9
$EXTMAX
 10
-1e+20
 20
-1e+20
 30
-1e+20
  9
$LIMMIN
 10
0.0
 20
0.0
  9
$LIMMAX
 10
420.0
 20
297.0
  9
$ORTHOMODE
 70
0
  9
$REGENMODE
 70
1
  9
$FILLMODE
 70
1
  9
$QTEXTMODE
 70
0
  9
$MIRRTEXT
 70
1
  9
$LTSCALE
 40
1.0
  9
$ATTMODE
 70
1
  9
$TEXTSIZE
 40
2.5
  9
$TRACEWID
 40
1.0
  9
$TEXTSTYLE
  7
Standard
  9
$CLAYER
  8
0
  9
$CELTYPE
  6
ByLayer
  9
$CECOLOR
 62
256
  9
$CELTSCALE
 40
1.0
  9
$DISPSILH
 70
0
  9
$DIMSCALE
 40
1.0
  9
$DIMASZ
 40
2.5
  9
$DIMEXO
 40
0.625
  9
$DIMDLI
 40
3.75
  9
$DIMRND
 40
0.0
  9
$DIMDLE
 40
0.0
  9
$DIMEXE
 40
1.25
  9
$DIMTP
 40
0.0
  9
$DIMTM
 40
0.0
  9
$DIMTXT
 40
2.5
  9
$DIMCEN
 40
2.5
  9
$DIMTSZ
 40
0.0
  9
$DIMTOL
 70
0
  9
$DIMLIM
 70
0
  9
$DIMTIH
 70
0
  9
$DIMTOH
 70
0
  9
$DIMSE1
 70
0
  9
$DIMSE2
 70
0
  9
$DIMTAD
 70
1
  9
$DIMZIN
 70
8
  9
$DIMBLK
  1

  9
$DIMASO
 70
1
  9
$DIMSHO
 70
1
  9
$DIMPOST
  1

  9
$DIMAPOST
  1

  9
$DIMALT
 70
0
  9
$DIMALTD
 70
3
  9
$DIMALTF
 40
0.03937007874
  9
$DIMLFAC
 40
1.0
  9
$DIMTOFL
 70
1
  9
$DIMTVP
 40
0.0
  9
$DIMTIX
 70
0
  9
$DIMSOXD
 70
0
  9
$DIMSAH
 70
0
  9
$DIMBLK1
  1

  9
$DIMBLK2
  1

  9
$DIMSTYLE
  2
ISO-25
  9
$DIMCLRD
 70
0
  9
$DIMCLRE
 70
0
  9
$DIMCLRT
 70
0
  9
$DIMTFAC
 40
1.0
  9
$DIMGAP
 40
0.625
  9
$DIMJUST
 70
0
  9
$DIMSD1
 70
0
  9
$DIMSD2
 70
0
  9
$DIMTOLJ
 70
0
  9
$DIMTZIN
 70
8
  9
$DIMALTZ
 70
0
  9
$DIMALTTZ
 70
0
  9
$DIMUPT
 70
0
  9
$DIMDEC
 70
2
  9
$DIMTDEC
 70
2
  9
$DIMALTU
 70
2
  9
$DIMALTTD
 70
3
  9
$DIMTXSTY
  7
Standard
  9
$DIMAUNIT
 70
0
  9
$DIMADEC
 70
0
  9
$DIMALTRND
 40
0.0
  9
$DIMAZIN
 70
0
  9
$DIMDSEP
 70
44
  9
$DIMATFIT
 70
3
  9
$DIMFRAC
 70
0
  9
$DIMLDRBLK
  1

  9
$DIMLUNIT
 70
2
  9
$DIMLWD
 70
-2
  9
$DIMLWE
 70
-2
  9
$DIMTMOVE
 70
0
  9
$DIMFXL
 40
1.0
  9
$DIMFXLON
 70
0
  9
$DIMJOGANG
 40
0.785398163397
  9
$DIMTFILL
 70
0
  9
$DIMTFILLCLR
 70
0
  9
$DIMARCSYM
 70
0
  9
$DIMLTYPE
  6

  9
$DIMLTEX1
  6

  9
$DIMLTEX2
  6

  9
$DIMTXTDIRECTION
 70
0
  9
$LUNITS
 70
2
  9
$LUPREC
 70
4
  9
$SKETCHINC
 40
1.0
  9
$FILLETRAD
 40
10.0
  9
$AUNITS
 70
0
  9
$AUPREC
 70
2
  9
$MENU
  1
.
  9
$ELEVATION
 40
0.0
  9
$PELEVATION
 40
0.0
  9
$THICKNESS
 40
0.0
  9
$LIMCHECK
 70
0
  9
$CHAMFERA
 40
0.0
  9
$CHAMFERB
 40
0.0
  9
$CHAMFERC
 40
0.0
  9
$CHAMFERD
 40
0.0
  9
$SKPOLY
 70
0
  9
$TDCREATE
 40
2461232.4124074075
  9
$TDUCREATE
 40
2458532.153996898
  9
$TDUPDATE
 40
2461232.4124074075
  9
$TDUUPDATE
 40
2458532.1544311
  9
$TDINDWG
 40
0.0
  9
$TDUSRTIMER
 40
0.0
  9
$USRTIMER
 70
1
  9
$ANGBASE
 50
0.0
  9
$ANGDIR
 70
0
  9
$PDMODE
 70
0
  9
$PDSIZE
 40
0.0
  9
$PLINEWID
 40
0.0
  9
$SPLFRAME
 70
0
  9
$SPLINETYPE
 70
6
  9
$SPLINESEGS
 70
8
  9
$HANDSEED
  5
83
  9
$SURFTAB1
 70
6
  9
$SURFTAB2
 70
6
  9
$SURFTYPE
 70
6
  9
$SURFU
 70
6
  9
$SURFV
 70
6
  9
$UCSBASE
  2

  9
$UCSNAME
  2

  9
$UCSORG
 10
0.0
 20
0.0
 30
0.0
  9
$UCSXDIR
 10
1.0
 20
0.0
 30
0.0
  9
$UCSYDIR
 10
0.0
 20
1.0
 30
0.0
  9
$UCSORTHOREF
  2

  9
$UCSORTHOVIEW
 70
0
  9
$UCSORGTOP
 10
0.0
 20
0.0
 30
0.0
  9
$UCSORGBOTTOM
 10
0.0
 20
0.0
 30
0.0
  9
$UCSORGLEFT
 10
0.0
 20
0.0
 30
0.0
  9
$UCSORGRIGHT
 10
0.0
 20
0.0
 30
0.0
  9
$UCSORGFRONT
 10
0.0
 20
0.0
 30
0.0
  9
$UCSORGBACK
 10
0.0
 20
0.0
 30
0.0
  9
$PUCSBASE
  2

  9
$PUCSNAME
  2

  9
$PUCSORG
 10
0.0
 20
0.0
 30
0.0
  9
$PUCSXDIR
 10
1.0
 20
0.0
 30
0.0
  9
$PUCSYDIR
 10
0.0
 20
1.0
 30
0.0
  9
$PUCSORTHOREF
  2

  9
$PUCSORTHOVIEW
 70
0
  9
$PUCSORGTOP
 10
0.0
 20
0.0
 30
0.0
  9
$PUCSORGBOTTOM
 10
0.0
 20
0.0
 30
0.0
  9
$PUCSORGLEFT
 10
0.0
 20
0.0
 30
0.0
  9
$PUCSORGRIGHT
 10
0.0
 20
0.0
 30
0.0
  9
$PUCSORGFRONT
 10
0.0
 20
0.0
 30
0.0
  9
$PUCSORGBACK
 10
0.0
 20
0.0
 30
0.0
  9
$USERI1
 70
0
  9
$USERI2
 70
0
  9
$USERI3
 70
0
  9
$USERI4
 70
0
  9
$USERI5
 70
0
  9
$USERR1
 40
0.0
  9
$USERR2
 40
0.0
  9
$USERR3
 40
0.0
  9
$USERR4
 40
0.0
  9
$USERR5
 40
0.0
  9
$WORLDVIEW
 70
1
  9
$SHADEDGE
 70
3
  9
$SHADEDIF
 70
70
  9
$TILEMODE
 70
1
  9
$MAXACTVP
 70
64
  9
$PINSBASE
 10
0.0
 20
0.0
 30
0.0
  9
$PLIMCHECK
 70
0
  9
$PEXTMIN
 10
1e+20
 20
1e+20
 30
1e+20
  9
$PEXTMAX
 10
-1e+20
 20
-1e+20
 30
-1e+20
  9
$PLIMMIN
 10
0.0
 20
0.0
  9
$PLIMMAX
 10
420.0
 20
297.0
  9
$UNITMODE
 70
0
  9
$VISRETAIN
 70
1
  9
$PLINEGEN
 70
0
  9
$PSLTSCALE
 70
1
  9
$TREEDEPTH
 70
3020
  9
$CMLSTYLE
  2
Standard
  9
$CMLJUST
 70
0
  9
$CMLSCALE
 40
20.0
  9
$PROXYGRAPHICS
 70
1
  9
$MEASUREMENT
 70
1
  9
$CELWEIGHT
370
-1
  9
$ENDCAPS
280
0
  9
$JOINSTYLE
280
0
  9
$LWDISPLAY
290
0
  9
$INSUNITS
 70
6
  9
$HYPERLINKBASE
  1

  9
$STYLESHEET
  1

  9
$XEDIT
290
1
  9
$CEPSNTYPE
380
0
  9
$PSTYLEMODE
290
1
  9
$FINGERPRINTGUID
  2
{839242D4-4EF1-4E92-926A-703A1E6CCC75}
  9
$VERSIONGUID
  2
{AC76CE6B-E23C-42CC-AAE0-3B099C9B662B}
  9
$EXTNAMES
290
1
  9
$PSVPSCALE
 40
0.0
  9
$OLESTARTUP
290
0
  9
$SORTENTS
280
127
  9
$INDEXCTL
280
0
  9
$HIDETEXT
280
1
  9
$XCLIPFRAME
280
1
  9
$HALOGAP
280
0
  9
$OBSCOLOR
 70
257
  9
$OBSLTYPE
280
0
  9
$INTERSECTIONDISPLAY
280
0
  9
$INTERSECTIONCOLOR
 70
257
  9
$DIMASSOC
280
2
  9
$PROJECTNAME
  1

  9
$CAMERADISPLAY
290
0
  9
$LENSLENGTH
 40
50.0
  9
$CAMERAHEIGHT
 40
0.0
  9
$STEPSPERSEC
 40
24.0
  9
$STEPSIZE
 40
100.0
  9
$3DDWFPREC
 40
2.0
  9
$PSOLWIDTH
 40
0.005
  9
$PSOLHEIGHT
 40
0.08
  9
$LOFTANG1
 40
1.570796326795
  9
$LOFTANG2
 40
1.570796326795
  9
$LOFTMAG1
 40
0.0
  9
$LOFTMAG2
 40
0.0
  9
$LOFTPARAM
 70
7
  9
$LOFTNORMALS
280
1
  9
$LATITUDE
 40
37.795
  9
$LONGITUDE
 40
-122.394
  9
$NORTHDIRECTION
 40
0.0
  9
$TIMEZONE
 70
-8000
  9
$LIGHTGLYPHDISPLAY
280
1
  9
$TILEMODELIGHTSYNCH
280
1
  9
$CMATERIAL
347
20
  9
$SOLIDHIST
280
0
  9
$SHOWHIST
280
1
  9
$DWFFRAME
280
2
  9
$DGNFRAME
280
2
  9
$REALWORLDSCALE
290
1
  9
$INTERFERECOLOR
 62
256
  9
$CSHADOW
280
0
  9
$SHADOWPLANELOCATION
 40
0.0
  0
ENDSEC
  0
SECTION
  2
CLASSES
  0
CLASS
  1
ACDBDICTIONARYWDFLT
  2
AcDbDictionaryWithDefault
  3
ObjectDBX Classes
 90
0
 91
0
280
0
281
0
  0
CLASS
  1
SUN
  2
AcDbSun
  3
SCENEOE
 90
1153
 91
0
280
0
281
0
  0
CLASS
  1
VISUALSTYLE
  2
AcDbVisualStyle
  3
ObjectDBX Classes
 90
4095
 91
0
280
0
281
0
  0
CLASS
  1
MATERIAL
  2
AcDbMaterial
  3
ObjectDBX Classes
 90
1153
 91
0
280
0
281
0
  0
CLASS
  1
SCALE
  2
AcDbScale
  3
ObjectDBX Classes
 90
1153
 91
0
280
0
281
0
  0
CLASS
  1
TABLESTYLE
  2
AcDbTableStyle
  3
ObjectDBX Classes
 90
4095
 91
0
280
0
281
0
  0
CLASS
  1
MLEADERSTYLE
  2
AcDbMLeaderStyle
  3
ACDB_MLEADERSTYLE_CLASS
 90
4095
 91
0
280
0
281
0
  0
CLASS
  1
DICTIONARYVAR
  2
AcDbDictionaryVar
  3
ObjectDBX Classes
 90
0
 91
0
280
0
281
0
  0
CLASS
  1
CELLSTYLEMAP
  2
AcDbCellStyleMap
  3
ObjectDBX Classes
 90
1152
 91
0
280
0
281
0
  0
CLASS
  1
MENTALRAYRENDERSETTINGS
  2
AcDbMentalRayRenderSettings
  3
SCENEOE
 90
1024
 91
0
280
0
281
0
  0
CLASS
  1
ACDBDETAILVIEWSTYLE
  2
AcDbDetailViewStyle
  3
ObjectDBX Classes
 90
1025
 91
0
280
0
281
0
  0
CLASS
  1
ACDBSECTIONVIEWSTYLE
  2
AcDbSectionViewStyle
  3
ObjectDBX Classes
 90
1025
 91
0
280
0
281
0
  0
CLASS
  1
RASTERVARIABLES
  2
AcDbRasterVariables
  3
ISM
 90
0
 91
0
280
0
281
0
  0
CLASS
  1
ACDBPLACEHOLDER
  2
AcDbPlaceHolder
  3
ObjectDBX Classes
 90
0
 91
0
280
0
281
0
  0
CLASS
  1
LAYOUT
  2
AcDbLayout
  3
ObjectDBX Classes
 90
0
 91
0
280
0
281
0
  0
ENDSEC
  0
SECTION
  2
TABLES
  0
TABLE
  2
VPORT
  5
8
330
0
100
AcDbSymbolTable
 70
1
  0
VPORT
  5
23
330
8
100
AcDbSymbolTableRecord
100
AcDbViewportTableRecord
  2
*Active
 70
0
 10
0.0
 20
0.0
 11
1.0
 21
1.0
 12
0.0
 22
0.0
 13
0.0
 23
0.0
 14
0.5
 24
0.5
 15
0.5
 25
0.5
 16
0.0
 26
0.0
 36
1.0
 17
0.0
 27
0.0
 37
0.0
 40
1000.0
 41
1.34
 42
50.0
 43
0.0
 44
0.0
 50
0.0
 51
0.0
 71
0
 72
1000
 73
1
 74
3
 75
0
 76
0
 77
0
 78
0
281
0
 65
0
146
0.0
  0
ENDTAB
  0
TABLE
  2
LTYPE
  5
2
330
0
100
AcDbSymbolTable
 70
3
  0
LTYPE
  5
24
330
2
100
AcDbSymbolTableRecord
100
AcDbLinetypeTableRecord
  2
ByBlock
 70
0
  3

 72
65
 73
0
 40
0.0
  0
LTYPE
  5
25
330
2
100
AcDbSymbolTableRecord
100
AcDbLinetypeTableRecord
  2
ByLayer
 70
0
  3

 72
65
 73
0
 40
0.0
  0
LTYPE
  5
26
330
2
100
AcDbSymbolTableRecord
100
AcDbLinetypeTableRecord
  2
Continuous
 70
0
  3

 72
65
 73
0
 40
0.0
  0
ENDTAB
  0
TABLE
  2
LAYER
  5
1
330
0
100
AcDbSymbolTable
 70
4
  0
LAYER
  5
27
330
1
100
AcDbSymbolTableRecord
100
AcDbLayerTableRecord
  2
0
 70
0
 62
7
  6
Continuous
370
-3
390
13
347
21
  0
LAYER
  5
28
330
1
100
AcDbSymbolTableRecord
100
AcDbLayerTableRecord
  2
Defpoints
 70
0
 62
7
  6
Continuous
290
0
370
-3
390
13
347
21
  0
LAYER
  5
2F
330
1
100
AcDbSymbolTableRecord
100
AcDbLayerTableRecord
  2
FILL_RED_FF0000
 70
0
 62
7
420
16711680
  6
Continuous
370
-3
390
13
347
21
  0
LAYER
  5
7E
330
1
100
AcDbSymbolTableRecord
100
AcDbLayerTableRecord
  2
STROKE_BLACK_000000
 70
0
 62
7
420
0
  6
Continuous
370
-3
390
13
347
21
  0
ENDTAB
  0
TABLE
  2
STYLE
  5
5
330
0
100
AcDbSymbolTable
 70
1
  0
STYLE
  5
29
330
5
100
AcDbSymbolTableRecord
100
AcDbTextStyleTableRecord
  2
Standard
 70
0
 40
0.0
 41
1.0
 50
0.0
 71
0
 42
2.5
  3
txt
  4

  0
ENDTAB
  0
TABLE
  2
VIEW
  5
7
330
0
100
AcDbSymbolTable
 70
0
  0
ENDTAB
  0
TABLE
  2
UCS
  5
6
330
0
100
AcDbSymbolTable
 70
0
  0
ENDTAB
  0
TABLE
  2
APPID
  5
3
330
0
100
AcDbSymbolTable
 70
3
  0
APPID
  5
2A
330
3
100
AcDbSymbolTableRecord
100
AcDbRegAppTableRecord
  2
ACAD
 70
0
  0
APPID
  5
80
330
3
100
AcDbSymbolTableRecord
100
AcDbRegAppTableRecord
  2
HATCHBACKGROUNDCOLOR
 70
0
  0
APPID
  5
81
330
3
100
AcDbSymbolTableRecord
100
AcDbRegAppTableRecord
  2
EZDXF
 70
0
  0
ENDTAB
  0
TABLE
  2
DIMSTYLE
  5
4
330
0
100
AcDbSymbolTable
 70
1
100
AcDbDimStyleTable
  0
DIMSTYLE
105
2B
330
4
100
AcDbSymbolTableRecord
100
AcDbDimStyleTableRecord
  2
Standard
 70
0
 40
1.0
 41
2.5
 42
0.625
 43
3.75
 44
1.25
 45
0.0
 46
0.0
 47
0.0
 48
0.0
 49
2.5
140
2.5
141
2.5
142
0.0
143
0.03937007874
144
1.0
145
0.0
146
1.0
147
0.625
148
0.0
 69
0
 70
0
 71
0
 72
0
 73
0
 74
0
 75
0
 76
0
 77
1
 78
8
 79
3
170
0
171
3
172
1
173
0
174
0
175
0
176
0
177
0
178
0
179
2
271
2
272
2
273
2
274
3
275
0
276
0
277
2
278
44
279
0
280
0
281
0
282
0
283
0
284
8
285
0
286
0
288
0
289
3
290
0
371
-2
372
-2
  0
ENDTAB
  0
TABLE
  2
BLOCK_RECORD
  5
9
330
0
100
AcDbSymbolTable
 70
2
  0
BLOCK_RECORD
  5
17
330
9
100
AcDbSymbolTableRecord
100
AcDbBlockTableRecord
  2
*Model_Space
340
1A
 70
0
280
1
281
0
  0
BLOCK_RECORD
  5
1B
330
9
100
AcDbSymbolTableRecord
100
AcDbBlockTableRecord
  2
*Paper_Space
340
1E
 70
0
280
1
281
0
  0
ENDTAB
  0
ENDSEC
  0
SECTION
  2
BLOCKS
  0
BLOCK
  5
18
330
17
100
AcDbEntity
  8
0
100
AcDbBlockBegin
  2
*Model_Space
 70
0
 10
0.0
 20
0.0
 30
0.0
  3
*Model_Space
  1

  0
ENDBLK
  5
19
330
17
100
AcDbEntity
  8
0
100
AcDbBlockEnd
  0
BLOCK
  5
1C
330
1B
100
AcDbEntity
  8
0
100
AcDbBlockBegin
  2
*Paper_Space
 70
0
 10
0.0
 20
0.0
 30
0.0
  3
*Paper_Space
  1

  0
ENDBLK
  5
1D
330
1B
100
AcDbEntity
  8
0
100
AcDbBlockEnd
  0
ENDSEC
  0
SECTION
  2
ENTITIES
  0
HATCH
  5
30
330
17
100
AcDbEntity
  8
FILL_RED_FF0000
 62
7
420
16711680
100
AcDbHatch
 10
0.0
 20
0.0
 30
0.0
210
0.0
220
0.0
230
1.0
  2
SOLID
 70
1
 71
0
 91
1
 92
3
 72
0
 73
1
 93
33
 10
292.25
 20
114.18
 10
291.77
 20
112.58
 10
291.02
 20
111.15
 10
290.01
 20
109.92
 10
288.78
 20
108.91
 10
287.35
 20
108.16
 10
285.75
 20
107.68
 10
284.01
 20
107.52
 10
281.87
 20
107.68
 10
279.98
 20
108.16
 10
278.34
 20
108.91
 10
276.96
 20
109.92
 10
275.87
 20
111.15
 10
275.07
 20
112.58
 10
274.58
 20
114.18
 10
274.41
 20
115.92
 10
274.58
 20
118.06
 10
275.07
 20
119.95
 10
275.87
 20
121.59
 10
276.96
 20
122.97
 10
278.34
 20
124.06
 10
279.98
 20
124.86
 10
281.87
 20
125.35
 10
284.01
 20
125.52
 10
285.75
 20
125.35
 10
287.35
 20
124.86
 10
288.78
 20
124.06
 10
290.01
 20
122.97
 10
291.02
 20
121.59
 10
291.77
 20
119.95
 10
292.25
 20
118.06
 10
292.41
 20
115.92
 10
292.25
 20
114.18
 97
0
 75
1
 76
1
 98
0
  0
LWPOLYLINE
  5
31
330
17
100
AcDbEntity
  8
FILL_RED_FF0000
370
0
420
16711680
100
AcDbPolyline
 90
32
 70
1
 10
292.25
 20
114.18
 10
291.77
 20
112.58
 10
291.02
 20
111.15
 10
290.01
 20
109.92
 10
288.78
 20
108.91
 10
287.35
 20
108.16
 10
285.75
 20
107.68
 10
284.01
 20
107.52
 10
281.87
 20
107.68
 10
279.98
 20
108.16
 10
278.34
 20
108.91
 10
276.96
 20
109.92
 10
275.87
 20
111.15
 10
275.07
 20
112.58
 10
274.58
 20
114.18
 10
274.41
 20
115.92
 10
274.58
 20
118.06
 10
275.07
 20
119.95
 10
275.87
 20
121.59
 10
276.96
 20
122.97
 10
278.34
 20
124.06
 10
279.98
 20
124.86
 10
281.87
 20
125.35
 10
284.01
 20
125.52
 10
285.75
 20
125.35
 10
287.35
 20
124.86
 10
288.78
 20
124.06
 10
290.01
 20
122.97
 10
291.02
 20
121.59
 10
291.77
 20
119.95
 10
292.25
 20
118.06
 10
292.41
 20
115.92
  0
HATCH
  5
32
330
17
100
AcDbEntity
  8
FILL_RED_FF0000
 62
7
420
16711680
100
AcDbHatch
 10
0.0
 20
0.0
 30
0.0
210
0.0
220
0.0
230
1.0
  2
SOLID
 70
1
 71
0
 91
1
 92
3
 72
0
 73
1
 93
33
 10
217.84
 20
226.58
 10
217.35
 20
224.69
 10
216.55
 20
223.05
 10
215.46
 20
221.67
 10
214.08
 20
220.58
 10
212.44
 20
219.78
 10
210.55
 20
219.29
 10
208.41
 20
219.12
 10
206.67
 20
219.29
 10
205.07
 20
219.78
 10
203.64
 20
220.58
 10
202.41
 20
221.67
 10
201.4
 20
223.05
 10
200.65
 20
224.69
 10
200.17
 20
226.58
 10
200.01
 20
228.72
 10
200.17
 20
230.46
 10
200.65
 20
232.06
 10
201.4
 20
233.49
 10
202.41
 20
234.72
 10
203.64
 20
235.73
 10
205.07
 20
236.48
 10
206.67
 20
236.96
 10
208.41
 20
237.12
 10
210.55
 20
236.96
 10
212.44
 20
236.48
 10
214.08
 20
235.73
 10
215.46
 20
234.72
 10
216.55
 20
233.49
 10
217.35
 20
232.06
 10
217.84
 20
230.46
 10
218.01
 20
228.72
 10
217.84
 20
226.58
 97
0
 75
1
 76
1
 98
0
  0
LWPOLYLINE
  5
33
330
17
100
AcDbEntity
  8
FILL_RED_FF0000
370
0
420
16711680
100
AcDbPolyline
 90
32
 70
1
 10
217.84
 20
226.58
 10
217.35
 20
224.69
 10
216.55
 20
223.05
 10
215.46
 20
221.67
 10
214.08
 20
220.58
 10
212.44
 20
219.78
 10
210.55
 20
219.29
 10
208.41
 20
219.12
 10
206.67
 20
219.29
 10
205.07
 20
219.78
 10
203.64
 20
220.58
 10
202.41
 20
221.67
 10
201.4
 20
223.05
 10
200.65
 20
224.69
 10
200.17
 20
226.58
 10
200.01
 20
228.72
 10
200.17
 20
230.46
 10
200.65
 20
232.06
 10
201.4
 20
233.49
 10
202.41
 20
234.72
 10
203.64
 20
235.73
 10
205.07
 20
236.48
 10
206.67
 20
236.96
 10
208.41
 20
237.12
 10
210.55
 20
236.96
 10
212.44
 20
236.48
 10
214.08
 20
235.73
 10
215.46
 20
234.72
 10
216.55
 20
233.49
 10
217.35
 20
232.06
 10
217.84
 20
230.46
 10
218.01
 20
228.72
  0
HATCH
  5
34
330
17
100
AcDbEntity
  8
FILL_RED_FF0000
 62
7
420
16711680
100
AcDbHatch
 10
0.0
 20
0.0
 30
0.0
210
0.0
220
0.0
230
1.0
  2
SOLID
 70
1
 71
0
 91
1
 92
3
 72
0
 73
1
 93
39
 10
199.95
 20
227.62
 10
199.79
 20
226.58
 10
199.54
 20
225.61
 10
199.18
 20
224.69
 10
198.24
 20
223.05
 10
197.01
 20
221.67
 10
195.56
 20
220.58
 10
193.93
 20
219.78
 10
192.2
 20
219.29
 10
190.41
 20
219.12
 10
188.62
 20
219.29
 10
186.88
 20
219.78
 10
185.26
 20
220.58
 10
183.81
 20
221.67
 10
182.58
 20
223.05
 10
181.63
 20
224.69
 10
181.28
 20
225.61
 10
181.03
 20
226.58
 10
180.87
 20
227.62
 10
180.81
 20
228.72
 10
180.87
 20
229.61
 10
181.03
 20
230.46
 10
181.63
 20
232.06
 10
182.58
 20
233.49
 10
183.81
 20
234.72
 10
185.26
 20
235.73
 10
186.88
 20
236.48
 10
188.62
 20
236.96
 10
190.41
 20
237.12
 10
192.2
 20
236.96
 10
193.93
 20
236.48
 10
195.56
 20
235.73
 10
197.01
 20
234.72
 10
198.24
 20
233.49
 10
199.18
 20
232.06
 10
199.79
 20
230.46
 10
199.95
 20
229.61
 10
200.01
 20
228.72
 10
199.95
 20
227.62
 97
0
 75
1
 76
1
 98
0
  0
LWPOLYLINE
  5
35
330
17
100
AcDbEntity
  8
FILL_RED_FF0000
370
0
420
16711680
100
AcDbPolyline
 90
38
 70
1
 10
199.95
 20
227.62
 10
199.79
 20
226.58
 10
199.54
 20
225.61
 10
199.18
 20
224.69
 10
198.24
 20
223.05
 10
197.01
 20
221.67
 10
195.56
 20
220.58
 10
193.93
 20
219.78
 10
192.2
 20
219.29
 10
190.41
 20
219.12
 10
188.62
 20
219.29
 10
186.88
 20
219.78
 10
185.26
 20
220.58
 10
183.81
 20
221.67
 10
182.58
 20
223.05
 10
181.63
 20
224.69
 10
181.28
 20
225.61
 10
181.03
 20
226.58
 10
180.87
 20
227.62
 10
180.81
 20
228.72
 10
180.87
 20
229.61
 10
181.03
 20
230.46
 10
181.63
 20
232.06
 10
182.58
 20
233.49
 10
183.81
 20
234.72
 10
185.26
 20
235.73
 10
186.88
 20
236.48
 10
188.62
 20
236.96
 10
190.41
 20
237.12
 10
192.2
 20
236.96
 10
193.93
 20
236.48
 10
195.56
 20
235.73
 10
197.01
 20
234.72
 10
198.24
 20
233.49
 10
199.18
 20
232.06
 10
199.79
 20
230.46
 10
199.95
 20
229.61
 10
200.01
 20
228.72
  0
HATCH
  5
36
330
17
100
AcDbEntity
  8
FILL_RED_FF0000
 62
7
420
16711680
100
AcDbHatch
 10
0.0
 20
0.0
 30
0.0
210
0.0
220
0.0
230
1.0
  2
SOLID
 70
1
 71
0
 91
1
 92
3
 72
0
 73
1
 93
39
 10
217.84
 20
207.73
 10
217.35
 20
205.99
 10
216.55
 20
204.37
 10
215.46
 20
202.92
 10
214.08
 20
201.69
 10
212.44
 20
200.74
 10
211.52
 20
200.39
 10
210.55
 20
200.14
 10
209.51
 20
199.98
 10
208.41
 20
199.92
 10
207.52
 20
199.98
 10
206.67
 20
200.14
 10
205.07
 20
200.74
 10
203.64
 20
201.69
 10
202.41
 20
202.92
 10
201.4
 20
204.37
 10
200.65
 20
205.99
 10
200.17
 20
207.73
 10
200.01
 20
209.52
 10
200.17
 20
211.31
 10
200.65
 20
213.04
 10
201.4
 20
214.67
 10
202.41
 20
216.12
 10
203.64
 20
217.35
 10
205.07
 20
218.29
 10
206.67
 20
218.9
 10
207.52
 20
219.06
 10
208.41
 20
219.12
 10
209.51
 20
219.06
 10
210.55
 20
218.9
 10
211.52
 20
218.65
 10
212.44
 20
218.29
 10
214.08
 20
217.35
 10
215.46
 20
216.12
 10
216.55
 20
214.67
 10
217.35
 20
213.04
 10
217.84
 20
211.31
 10
218.01
 20
209.52
 10
217.84
 20
207.73
 97
0
 75
1
 76
1
 98
0
  0
LWPOLYLINE
  5
37
330
17
100
AcDbEntity
  8
FILL_RED_FF0000
370
0
420
16711680
100
AcDbPolyline
 90
38
 70
1
 10
217.84
 20
207.73
 10
217.35
 20
205.99
 10
216.55
 20
204.37
 10
215.46
 20
202.92
 10
214.08
 20
201.69
 10
212.44
 20
200.74
 10
211.52
 20
200.39
 10
210.55
 20
200.14
 10
209.51
 20
199.98
 10
208.41
 20
199.92
 10
207.52
 20
199.98
 10
206.67
 20
200.14
 10
205.07
 20
200.74
 10
203.64
 20
201.69
 10
202.41
 20
202.92
 10
201.4
 20
204.37
 10
200.65
 20
205.99
 10
200.17
 20
207.73
 10
200.01
 20
209.52
 10
200.17
 20
211.31
 10
200.65
 20
213.04
 10
201.4
 20
214.67
 10
202.41
 20
216.12
 10
203.64
 20
217.35
 10
205.07
 20
218.29
 10
206.67
 20
218.9
 10
207.52
 20
219.06
 10
208.41
 20
219.12
 10
209.51
 20
219.06
 10
210.55
 20
218.9
 10
211.52
 20
218.65
 10
212.44
 20
218.29
 10
214.08
 20
217.35
 10
215.46
 20
216.12
 10
216.55
 20
214.67
 10
217.35
 20
213.04
 10
217.84
 20
211.31
 10
218.01
 20
209.52
  0
HATCH
  5
38
330
17
100
AcDbEntity
  8
FILL_RED_FF0000
 62
7
420
16711680
100
AcDbHatch
 10
0.0
 20
0.0
 30
0.0
210
0.0
220
0.0
230
1.0
  2
SOLID
 70
1
 71
0
 91
1
 92
3
 72
0
 73
1
 93
41
 10
237.15
 20
208.62
 10
236.99
 20
207.73
 10
236.39
 20
205.99
 10
235.44
 20
204.37
 10
234.21
 20
202.92
 10
232.76
 20
201.69
 10
231.13
 20
200.74
 10
229.4
 20
200.14
 10
228.51
 20
199.98
 10
227.61
 20
199.92
 10
226.71
 20
199.98
 10
225.82
 20
200.14
 10
224.08
 20
200.74
 10
222.46
 20
201.69
 10
221.01
 20
202.92
 10
219.78
 20
204.37
 10
218.83
 20
205.99
 10
218.23
 20
207.73
 10
218.07
 20
208.62
 10
218.01
 20
209.52
 10
218.07
 20
210.42
 10
218.23
 20
211.31
 10
218.83
 20
213.04
 10
219.78
 20
214.67
 10
221.01
 20
216.12
 10
222.46
 20
217.35
 10
224.08
 20
218.29
 10
225.82
 20
218.9
 10
226.71
 20
219.06
 10
227.61
 20
219.12
 10
228.51
 20
219.06
 10
229.4
 20
218.9
 10
231.13
 20
218.29
 10
232.76
 20
217.35
 10
234.21
 20
216.12
 10
235.44
 20
214.67
 10
236.39
 20
213.04
 10
236.99
 20
211.31
 10
237.15
 20
210.42
 10
237.21
 20
209.52
 10
237.15
 20
208.62
 97
0
 75
1
 76
1
 98
0
  0
LWPOLYLINE
  5
39
330
17
100
AcDbEntity
  8
FILL_RED_FF0000
370
0
420
16711680
100
AcDbPolyline
 90
40
 70
1
 10
237.15
 20
208.62
 10
236.99
 20
207.73
 10
236.39
 20
205.99
 10
235.44
 20
204.37
 10
234.21
 20
202.92
 10
232.76
 20
201.69
 10
231.13
 20
200.74
 10
229.4
 20
200.14
 10
228.51
 20
199.98
 10
227.61
 20
199.92
 10
226.71
 20
199.98
 10
225.82
 20
200.14
 10
224.08
 20
200.74
 10
222.46
 20
201.69
 10
221.01
 20
202.92
 10
219.78
 20
204.37
 10
218.83
 20
205.99
 10
218.23
 20
207.73
 10
218.07
 20
208.62
 10
218.01
 20
209.52
 10
218.07
 20
210.42
 10
218.23
 20
211.31
 10
218.83
 20
213.04
 10
219.78
 20
214.67
 10
221.01
 20
216.12
 10
222.46
 20
217.35
 10
224.08
 20
218.29
 10
225.82
 20
218.9
 10
226.71
 20
219.06
 10
227.61
 20
219.12
 10
228.51
 20
219.06
 10
229.4
 20
218.9
 10
231.13
 20
218.29
 10
232.76
 20
217.35
 10
234.21
 20
216.12
 10
235.44
 20
214.67
 10
236.39
 20
213.04
 10
236.99
 20
211.31
 10
237.15
 20
210.42
 10
237.21
 20
209.52
  0
HATCH
  5
3A
330
17
100
AcDbEntity
  8
FILL_RED_FF0000
 62
7
420
16711680
100
AcDbHatch
 10
0.0
 20
0.0
 30
0.0
210
0.0
220
0.0
230
1.0
  2
SOLID
 70
1
 71
0
 91
1
 92
3
 72
0
 73
1
 93
39
 10
237.15
 20
190.42
 10
236.99
 20
189.38
 10
236.74
 20
188.41
 10
236.39
 20
187.49
 10
235.44
 20
185.85
 10
234.21
 20
184.47
 10
232.76
 20
183.38
 10
231.13
 20
182.58
 10
229.4
 20
182.09
 10
227.61
 20
181.92
 10
225.82
 20
182.09
 10
224.08
 20
182.58
 10
222.46
 20
183.38
 10
221.01
 20
184.47
 10
219.78
 20
185.85
 10
218.83
 20
187.49
 10
218.48
 20
188.41
 10
218.23
 20
189.38
 10
218.07
 20
190.42
 10
218.01
 20
191.52
 10
218.07
 20
192.41
 10
218.23
 20
193.26
 10
218.83
 20
194.86
 10
219.78
 20
196.29
 10
221.01
 20
197.52
 10
222.46
 20
198.53
 10
224.08
 20
199.28
 10
225.82
 20
199.76
 10
227.61
 20
199.92
 10
229.4
 20
199.76
 10
231.13
 20
199.28
 10
232.76
 20
198.53
 10
234.21
 20
197.52
 10
235.44
 20
196.29
 10
236.39
 20
194.86
 10
236.99
 20
193.26
 10
237.15
 20
192.41
 10
237.21
 20
191.52
 10
237.15
 20
190.42
 97
0
 75
1
 76
1
 98
0
  0
LWPOLYLINE
  5
3B
330
17
100
AcDbEntity
  8
FILL_RED_FF0000
370
0
420
16711680
100
AcDbPolyline
 90
38
 70
1
 10
237.15
 20
190.42
 10
236.99
 20
189.38
 10
236.74
 20
188.41
 10
236.39
 20
187.49
 10
235.44
 20
185.85
 10
234.21
 20
184.47
 10
232.76
 20
183.38
 10
231.13
 20
182.58
 10
229.4
 20
182.09
 10
227.61
 20
181.92
 10
225.82
 20
182.09
 10
224.08
 20
182.58
 10
222.46
 20
183.38
 10
221.01
 20
184.47
 10
219.78
 20
185.85
 10
218.83
 20
187.49
 10
218.48
 20
188.41
 10
218.23
 20
189.38
 10
218.07
 20
190.42
 10
218.01
 20
191.52
 10
218.07
 20
192.41
 10
218.23
 20
193.26
 10
218.83
 20
194.86
 10
219.78
 20
196.29
 10
221.01
 20
197.52
 10
222.46
 20
198.53
 10
224.08
 20
199.28
 10
225.82
 20
199.76
 10
227.61
 20
199.92
 10
229.4
 20
199.76
 10
231.13
 20
199.28
 10
232.76
 20
198.53
 10
234.21
 20
197.52
 10
235.44
 20
196.29
 10
236.39
 20
194.86
 10
236.99
 20
193.26
 10
237.15
 20
192.41
 10
237.21
 20
191.52
  0
HATCH
  5
3C
330
17
100
AcDbEntity
  8
FILL_RED_FF0000
 62
7
420
16711680
100
AcDbHatch
 10
0.0
 20
0.0
 30
0.0
210
0.0
220
0.0
230
1.0
  2
SOLID
 70
1
 71
0
 91
1
 92
3
 72
0
 73
1
 93
33
 10
255.05
 20
189.38
 10
254.57
 20
187.49
 10
253.82
 20
185.85
 10
252.81
 20
184.47
 10
251.58
 20
183.38
 10
250.15
 20
182.58
 10
248.55
 20
182.09
 10
246.81
 20
181.92
 10
244.67
 20
182.09
 10
242.78
 20
182.58
 10
241.14
 20
183.38
 10
239.76
 20
184.47
 10
238.67
 20
185.85
 10
237.87
 20
187.49
 10
237.38
 20
189.38
 10
237.21
 20
191.52
 10
237.38
 20
193.26
 10
237.87
 20
194.86
 10
238.67
 20
196.29
 10
239.76
 20
197.52
 10
241.14
 20
198.53
 10
242.78
 20
199.28
 10
244.67
 20
199.76
 10
246.81
 20
199.92
 10
248.55
 20
199.76
 10
250.15
 20
199.28
 10
251.58
 20
198.53
 10
252.81
 20
197.52
 10
253.82
 20
196.29
 10
254.57
 20
194.86
 10
255.05
 20
193.26
 10
255.21
 20
191.52
 10
255.05
 20
189.38
 97
0
 75
1
 76
1
 98
0
  0
LWPOLYLINE
  5
3D
330
17
100
AcDbEntity
  8
FILL_RED_FF0000
370
0
420
16711680
100
AcDbPolyline
 90
32
 70
1
 10
255.05
 20
189.38
 10
254.57
 20
187.49
 10
253.82
 20
185.85
 10
252.81
 20
184.47
 10
251.58
 20
183.38
 10
250.15
 20
182.58
 10
248.55
 20
182.09
 10
246.81
 20
181.92
 10
244.67
 20
182.09
 10
242.78
 20
182.58
 10
241.14
 20
183.38
 10
239.76
 20
184.47
 10
238.67
 20
185.85
 10
237.87
 20
187.49
 10
237.38
 20
189.38
 10
237.21
 20
191.52
 10
237.38
 20
193.26
 10
237.87
 20
194.86
 10
238.67
 20
196.29
 10
239.76
 20
197.52
 10
241.14
 20
198.53
 10
242.78
 20
199.28
 10
244.67
 20
199.76
 10
246.81
 20
199.92
 10
248.55
 20
199.76
 10
250.15
 20
199.28
 10
251.58
 20
198.53
 10
252.81
 20
197.52
 10
253.82
 20
196.29
 10
254.57
 20
194.86
 10
255.05
 20
193.26
 10
255.21
 20
191.52
  0
HATCH
  5
3E
330
17
100
AcDbEntity
  8
FILL_RED_FF0000
 62
7
420
16711680
100
AcDbHatch
 10
0.0
 20
0.0
 30
0.0
210
0.0
220
0.0
230
1.0
  2
SOLID
 70
1
 71
0
 91
1
 92
3
 72
0
 73
1
 93
39
 10
255.05
 20
170.53
 10
254.57
 20
168.79
 10
253.82
 20
167.17
 10
252.81
 20
165.72
 10
251.58
 20
164.49
 10
250.15
 20
163.54
 10
248.55
 20
162.94
 10
247.7
 20
162.78
 10
246.81
 20
162.72
 10
245.71
 20
162.78
 10
244.67
 20
162.94
 10
243.7
 20
163.19
 10
242.78
 20
163.54
 10
241.14
 20
164.49
 10
239.76
 20
165.72
 10
238.67
 20
167.17
 10
237.87
 20
168.79
 10
237.38
 20
170.53
 10
237.21
 20
172.32
 10
237.38
 20
174.11
 10
237.87
 20
175.84
 10
238.67
 20
177.47
 10
239.76
 20
178.92
 10
241.14
 20
180.15
 10
242.78
 20
181.09
 10
243.7
 20
181.45
 10
244.67
 20
181.7
 10
245.71
 20
181.86
 10
246.81
 20
181.92
 10
247.7
 20
181.86
 10
248.55
 20
181.7
 10
250.15
 20
181.09
 10
251.58
 20
180.15
 10
252.81
 20
178.92
 10
253.82
 20
177.47
 10
254.57
 20
175.84
 10
255.05
 20
174.11
 10
255.21
 20
172.32
 10
255.05
 20
170.53
 97
0
 75
1
 76
1
 98
0
  0
LWPOLYLINE
  5
3F
330
17
100
AcDbEntity
  8
FILL_RED_FF0000
370
0
420
16711680
100
AcDbPolyline
 90
38
 70
1
 10
255.05
 20
170.53
 10
254.57
 20
168.79
 10
253.82
 20
167.17
 10
252.81
 20
165.72
 10
251.58
 20
164.49
 10
250.15
 20
163.54
 10
248.55
 20
162.94
 10
247.7
 20
162.78
 10
246.81
 20
162.72
 10
245.71
 20
162.78
 10
244.67
 20
162.94
 10
243.7
 20
163.19
 10
242.78
 20
163.54
 10
241.14
 20
164.49
 10
239.76
 20
165.72
 10
238.67
 20
167.17
 10
237.87
 20
168.79
 10
237.38
 20
170.53
 10
237.21
 20
172.32
 10
237.38
 20
174.11
 10
237.87
 20
175.84
 10
238.67
 20
177.47
 10
239.76
 20
178.92
 10
241.14
 20
180.15
 10
242.78
 20
181.09
 10
243.7
 20
181.45
 10
244.67
 20
181.7
 10
245.71
 20
181.86
 10
246.81
 20
181.92
 10
247.7
 20
181.86
 10
248.55
 20
181.7
 10
250.15
 20
181.09
 10
251.58
 20
180.15
 10
252.81
 20
178.92
 10
253.82
 20
177.47
 10
254.57
 20
175.84
 10
255.05
 20
174.11
 10
255.21
 20
172.32
  0
HATCH
  5
40
330
17
100
AcDbEntity
  8
FILL_RED_FF0000
 62
7
420
16711680
100
AcDbHatch
 10
0.0
 20
0.0
 30
0.0
210
0.0
220
0.0
230
1.0
  2
SOLID
 70
1
 71
0
 91
1
 92
3
 72
0
 73
1
 93
41
 10
274.35
 20
171.42
 10
274.19
 20
170.53
 10
273.58
 20
168.79
 10
272.64
 20
167.17
 10
271.41
 20
165.72
 10
269.96
 20
164.49
 10
268.33
 20
163.54
 10
266.6
 20
162.94
 10
265.71
 20
162.78
 10
264.81
 20
162.72
 10
263.91
 20
162.78
 10
263.02
 20
162.94
 10
261.28
 20
163.54
 10
259.66
 20
164.49
 10
258.21
 20
165.72
 10
256.98
 20
167.17
 10
256.03
 20
168.79
 10
255.43
 20
170.53
 10
255.27
 20
171.42
 10
255.21
 20
172.32
 10
255.27
 20
173.22
 10
255.43
 20
174.11
 10
256.03
 20
175.84
 10
256.98
 20
177.47
 10
258.21
 20
178.92
 10
259.66
 20
180.15
 10
261.28
 20
181.09
 10
263.02
 20
181.7
 10
263.91
 20
181.86
 10
264.81
 20
181.92
 10
265.71
 20
181.86
 10
266.6
 20
181.7
 10
268.33
 20
181.09
 10
269.96
 20
180.15
 10
271.41
 20
178.92
 10
272.64
 20
177.47
 10
273.58
 20
175.84
 10
274.19
 20
174.11
 10
274.35
 20
173.22
 10
274.41
 20
172.32
 10
274.35
 20
171.42
 97
0
 75
1
 76
1
 98
0
  0
LWPOLYLINE
  5
41
330
17
100
AcDbEntity
  8
FILL_RED_FF0000
370
0
420
16711680
100
AcDbPolyline
 90
40
 70
1
 10
274.35
 20
171.42
 10
274.19
 20
170.53
 10
273.58
 20
168.79
 10
272.64
 20
167.17
 10
271.41
 20
165.72
 10
269.96
 20
164.49
 10
268.33
 20
163.54
 10
266.6
 20
162.94
 10
265.71
 20
162.78
 10
264.81
 20
162.72
 10
263.91
 20
162.78
 10
263.02
 20
162.94
 10
261.28
 20
163.54
 10
259.66
 20
164.49
 10
258.21
 20
165.72
 10
256.98
 20
167.17
 10
256.03
 20
168.79
 10
255.43
 20
170.53
 10
255.27
 20
171.42
 10
255.21
 20
172.32
 10
255.27
 20
173.22
 10
255.43
 20
174.11
 10
256.03
 20
175.84
 10
256.98
 20
177.47
 10
258.21
 20
178.92
 10
259.66
 20
180.15
 10
261.28
 20
181.09
 10
263.02
 20
181.7
 10
263.91
 20
181.86
 10
264.81
 20
181.92
 10
265.71
 20
181.86
 10
266.6
 20
181.7
 10
268.33
 20
181.09
 10
269.96
 20
180.15
 10
271.41
 20
178.92
 10
272.64
 20
177.47
 10
273.58
 20
175.84
 10
274.19
 20
174.11
 10
274.35
 20
173.22
 10
274.41
 20
172.32
  0
HATCH
  5
42
330
17
100
AcDbEntity
  8
FILL_RED_FF0000
 62
7
420
16711680
100
AcDbHatch
 10
0.0
 20
0.0
 30
0.0
210
0.0
220
0.0
230
1.0
  2
SOLID
 70
1
 71
0
 91
1
 92
3
 72
0
 73
1
 93
39
 10
274.35
 20
152.23
 10
274.19
 20
151.38
 10
273.58
 20
149.78
 10
272.64
 20
148.35
 10
271.41
 20
147.12
 10
269.96
 20
146.11
 10
268.33
 20
145.36
 10
266.6
 20
144.88
 10
264.81
 20
144.72
 10
263.02
 20
144.88
 10
261.28
 20
145.36
 10
259.66
 20
146.11
 10
258.21
 20
147.12
 10
256.98
 20
148.35
 10
256.03
 20
149.78
 10
255.43
 20
151.38
 10
255.27
 20
152.23
 10
255.21
 20
153.12
 10
255.27
 20
154.22
 10
255.43
 20
155.26
 10
255.68
 20
156.23
 10
256.03
 20
157.15
 10
256.98
 20
158.79
 10
258.21
 20
160.17
 10
259.66
 20
161.26
 10
261.28
 20
162.06
 10
263.02
 20
162.55
 10
264.81
 20
162.72
 10
266.6
 20
162.55
 10
268.33
 20
162.06
 10
269.96
 20
161.26
 10
271.41
 20
160.17
 10
272.64
 20
158.79
 10
273.58
 20
157.15
 10
273.94
 20
156.23
 10
274.19
 20
155.26
 10
274.35
 20
154.22
 10
274.41
 20
153.12
 10
274.35
 20
152.23
 97
0
 75
1
 76
1
 98
0
  0
LWPOLYLINE
  5
43
330
17
100
AcDbEntity
  8
FILL_RED_FF0000
370
0
420
16711680
100
AcDbPolyline
 90
38
 70
1
 10
274.35
 20
152.23
 10
274.19
 20
151.38
 10
273.58
 20
149.78
 10
272.64
 20
148.35
 10
271.41
 20
147.12
 10
269.96
 20
146.11
 10
268.33
 20
145.36
 10
266.6
 20
144.88
 10
264.81
 20
144.72
 10
263.02
 20
144.88
 10
261.28
 20
145.36
 10
259.66
 20
146.11
 10
258.21
 20
147.12
 10
256.98
 20
148.35
 10
256.03
 20
149.78
 10
255.43
 20
151.38
 10
255.27
 20
152.23
 10
255.21
 20
153.12
 10
255.27
 20
154.22
 10
255.43
 20
155.26
 10
255.68
 20
156.23
 10
256.03
 20
157.15
 10
256.98
 20
158.79
 10
258.21
 20
160.17
 10
259.66
 20
161.26
 10
261.28
 20
162.06
 10
263.02
 20
162.55
 10
264.81
 20
162.72
 10
266.6
 20
162.55
 10
268.33
 20
162.06
 10
269.96
 20
161.26
 10
271.41
 20
160.17
 10
272.64
 20
158.79
 10
273.58
 20
157.15
 10
273.94
 20
156.23
 10
274.19
 20
155.26
 10
274.35
 20
154.22
 10
274.41
 20
153.12
  0
HATCH
  5
44
330
17
100
AcDbEntity
  8
FILL_RED_FF0000
 62
7
420
16711680
100
AcDbHatch
 10
0.0
 20
0.0
 30
0.0
210
0.0
220
0.0
230
1.0
  2
SOLID
 70
1
 71
0
 91
1
 92
3
 72
0
 73
1
 93
33
 10
292.25
 20
151.38
 10
291.77
 20
149.78
 10
291.02
 20
148.35
 10
290.01
 20
147.12
 10
288.78
 20
146.11
 10
287.35
 20
145.36
 10
285.75
 20
144.88
 10
284.01
 20
144.72
 10
281.87
 20
144.88
 10
279.98
 20
145.36
 10
278.34
 20
146.11
 10
276.96
 20
147.12
 10
275.87
 20
148.35
 10
275.07
 20
149.78
 10
274.58
 20
151.38
 10
274.41
 20
153.12
 10
274.58
 20
155.26
 10
275.07
 20
157.15
 10
275.87
 20
158.79
 10
276.96
 20
160.17
 10
278.34
 20
161.26
 10
279.98
 20
162.06
 10
281.87
 20
162.55
 10
284.01
 20
162.72
 10
285.75
 20
162.55
 10
287.35
 20
162.06
 10
288.78
 20
161.26
 10
290.01
 20
160.17
 10
291.02
 20
158.79
 10
291.77
 20
157.15
 10
292.25
 20
155.26
 10
292.41
 20
153.12
 10
292.25
 20
151.38
 97
0
 75
1
 76
1
 98
0
  0
LWPOLYLINE
  5
45
330
17
100
AcDbEntity
  8
FILL_RED_FF0000
370
0
420
16711680
100
AcDbPolyline
 90
32
 70
1
 10
292.25
 20
151.38
 10
291.77
 20
149.78
 10
291.02
 20
148.35
 10
290.01
 20
147.12
 10
288.78
 20
146.11
 10
287.35
 20
145.36
 10
285.75
 20
144.88
 10
284.01
 20
144.72
 10
281.87
 20
144.88
 10
279.98
 20
145.36
 10
278.34
 20
146.11
 10
276.96
 20
147.12
 10
275.87
 20
148.35
 10
275.07
 20
149.78
 10
274.58
 20
151.38
 10
274.41
 20
153.12
 10
274.58
 20
155.26
 10
275.07
 20
157.15
 10
275.87
 20
158.79
 10
276.96
 20
160.17
 10
278.34
 20
161.26
 10
279.98
 20
162.06
 10
281.87
 20
162.55
 10
284.01
 20
162.72
 10
285.75
 20
162.55
 10
287.35
 20
162.06
 10
288.78
 20
161.26
 10
290.01
 20
160.17
 10
291.02
 20
158.79
 10
291.77
 20
157.15
 10
292.25
 20
155.26
 10
292.41
 20
153.12
  0
HATCH
  5
46
330
17
100
AcDbEntity
  8
FILL_RED_FF0000
 62
7
420
16711680
100
AcDbHatch
 10
0.0
 20
0.0
 30
0.0
210
0.0
220
0.0
230
1.0
  2
SOLID
 70
1
 71
0
 91
1
 92
3
 72
0
 73
1
 93
39
 10
292.25
 20
133.33
 10
291.77
 20
131.59
 10
291.02
 20
129.97
 10
290.01
 20
128.52
 10
288.78
 20
127.29
 10
287.35
 20
126.34
 10
285.75
 20
125.74
 10
284.9
 20
125.58
 10
284.01
 20
125.52
 10
282.91
 20
125.58
 10
281.87
 20
125.74
 10
280.9
 20
125.99
 10
279.98
 20
126.34
 10
278.34
 20
127.29
 10
276.96
 20
128.52
 10
275.87
 20
129.97
 10
275.07
 20
131.59
 10
274.58
 20
133.33
 10
274.41
 20
135.12
 10
274.58
 20
136.91
 10
275.07
 20
138.64
 10
275.87
 20
140.27
 10
276.96
 20
141.72
 10
278.34
 20
142.95
 10
279.98
 20
143.89
 10
280.9
 20
144.25
 10
281.87
 20
144.5
 10
282.91
 20
144.66
 10
284.01
 20
144.72
 10
284.9
 20
144.66
 10
285.75
 20
144.5
 10
287.35
 20
143.89
 10
288.78
 20
142.95
 10
290.01
 20
141.72
 10
291.02
 20
140.27
 10
291.77
 20
138.64
 10
292.25
 20
136.91
 10
292.41
 20
135.12
 10
292.25
 20
133.33
 97
0
 75
1
 76
1
 98
0
  0
LWPOLYLINE
  5
47
330
17
100
AcDbEntity
  8
FILL_RED_FF0000
370
0
420
16711680
100
AcDbPolyline
 90
38
 70
1
 10
292.25
 20
133.33
 10
291.77
 20
131.59
 10
291.02
 20
129.97
 10
290.01
 20
128.52
 10
288.78
 20
127.29
 10
287.35
 20
126.34
 10
285.75
 20
125.74
 10
284.9
 20
125.58
 10
284.01
 20
125.52
 10
282.91
 20
125.58
 10
281.87
 20
125.74
 10
280.9
 20
125.99
 10
279.98
 20
126.34
 10
278.34
 20
127.29
 10
276.96
 20
128.52
 10
275.87
 20
129.97
 10
275.07
 20
131.59
 10
274.58
 20
133.33
 10
274.41
 20
135.12
 10
274.58
 20
136.91
 10
275.07
 20
138.64
 10
275.87
 20
140.27
 10
276.96
 20
141.72
 10
278.34
 20
142.95
 10
279.98
 20
143.89
 10
280.9
 20
144.25
 10
281.87
 20
144.5
 10
282.91
 20
144.66
 10
284.01
 20
144.72
 10
284.9
 20
144.66
 10
285.75
 20
144.5
 10
287.35
 20
143.89
 10
288.78
 20
142.95
 10
290.01
 20
141.72
 10
291.02
 20
140.27
 10
291.77
 20
138.64
 10
292.25
 20
136.91
 10
292.41
 20
135.12
  0
HATCH
  5
48
330
17
100
AcDbEntity
  8
FILL_RED_FF0000
 62
7
420
16711680
100
AcDbHatch
 10
0.0
 20
0.0
 30
0.0
210
0.0
220
0.0
230
1.0
  2
SOLID
 70
1
 71
0
 91
1
 92
3
 72
0
 73
1
 93
41
 10
311.55
 20
134.22
 10
311.39
 20
133.33
 10
310.78
 20
131.59
 10
309.84
 20
129.97
 10
308.61
 20
128.52
 10
307.16
 20
127.29
 10
305.53
 20
126.34
 10
303.8
 20
125.74
 10
302.91
 20
125.58
 10
302.01
 20
125.52
 10
301.11
 20
125.58
 10
300.22
 20
125.74
 10
298.48
 20
126.34
 10
296.86
 20
127.29
 10
295.41
 20
128.52
 10
294.18
 20
129.97
 10
293.23
 20
131.59
 10
292.63
 20
133.33
 10
292.47
 20
134.22
 10
292.41
 20
135.12
 10
292.47
 20
136.02
 10
292.63
 20
136.91
 10
293.23
 20
138.64
 10
294.18
 20
140.27
 10
295.41
 20
141.72
 10
296.86
 20
142.95
 10
298.48
 20
143.89
 10
300.22
 20
144.5
 10
301.11
 20
144.66
 10
302.01
 20
144.72
 10
302.91
 20
144.66
 10
303.8
 20
144.5
 10
305.53
 20
143.89
 10
307.16
 20
142.95
 10
308.61
 20
141.72
 10
309.84
 20
140.27
 10
310.78
 20
138.64
 10
311.39
 20
136.91
 10
311.55
 20
136.02
 10
311.61
 20
135.12
 10
311.55
 20
134.22
 97
0
 75
1
 76
1
 98
0
  0
LWPOLYLINE
  5
49
330
17
100
AcDbEntity
  8
FILL_RED_FF0000
370
0
420
16711680
100
AcDbPolyline
 90
40
 70
1
 10
311.55
 20
134.22
 10
311.39
 20
133.33
 10
310.78
 20
131.59
 10
309.84
 20
129.97
 10
308.61
 20
128.52
 10
307.16
 20
127.29
 10
305.53
 20
126.34
 10
303.8
 20
125.74
 10
302.91
 20
125.58
 10
302.01
 20
125.52
 10
301.11
 20
125.58
 10
300.22
 20
125.74
 10
298.48
 20
126.34
 10
296.86
 20
127.29
 10
295.41
 20
128.52
 10
294.18
 20
129.97
 10
293.23
 20
131.59
 10
292.63
 20
133.33
 10
292.47
 20
134.22
 10
292.41
 20
135.12
 10
292.47
 20
136.02
 10
292.63
 20
136.91
 10
293.23
 20
138.64
 10
294.18
 20
140.27
 10
295.41
 20
141.72
 10
296.86
 20
142.95
 10
298.48
 20
143.89
 10
300.22
 20
144.5
 10
301.11
 20
144.66
 10
302.01
 20
144.72
 10
302.91
 20
144.66
 10
303.8
 20
144.5
 10
305.53
 20
143.89
 10
307.16
 20
142.95
 10
308.61
 20
141.72
 10
309.84
 20
140.27
 10
310.78
 20
138.64
 10
311.39
 20
136.91
 10
311.55
 20
136.02
 10
311.61
 20
135.12
  0
HATCH
  5
4A
330
17
100
AcDbEntity
  8
FILL_RED_FF0000
 62
7
420
16711680
100
AcDbHatch
 10
0.0
 20
0.0
 30
0.0
210
0.0
220
0.0
230
1.0
  2
SOLID
 70
1
 71
0
 91
1
 92
3
 72
0
 73
1
 93
39
 10
311.55
 20
152.23
 10
311.39
 20
151.38
 10
310.78
 20
149.78
 10
309.84
 20
148.35
 10
308.61
 20
147.12
 10
307.16
 20
146.11
 10
305.53
 20
145.36
 10
303.8
 20
144.88
 10
302.01
 20
144.72
 10
300.22
 20
144.88
 10
298.48
 20
145.36
 10
296.86
 20
146.11
 10
295.41
 20
147.12
 10
294.18
 20
148.35
 10
293.23
 20
149.78
 10
292.63
 20
151.38
 10
292.47
 20
152.23
 10
292.41
 20
153.12
 10
292.47
 20
154.22
 10
292.63
 20
155.26
 10
292.88
 20
156.23
 10
293.23
 20
157.15
 10
294.18
 20
158.79
 10
295.41
 20
160.17
 10
296.86
 20
161.26
 10
298.48
 20
162.06
 10
300.22
 20
162.55
 10
302.01
 20
162.72
 10
303.8
 20
162.55
 10
305.53
 20
162.06
 10
307.16
 20
161.26
 10
308.61
 20
160.17
 10
309.84
 20
158.79
 10
310.78
 20
157.15
 10
311.14
 20
156.23
 10
311.39
 20
155.26
 10
311.55
 20
154.22
 10
311.61
 20
153.12
 10
311.55
 20
152.23
 97
0
 75
1
 76
1
 98
0
  0
LWPOLYLINE
  5
4B
330
17
100
AcDbEntity
  8
FILL_RED_FF0000
370
0
420
16711680
100
AcDbPolyline
 90
38
 70
1
 10
311.55
 20
152.23
 10
311.39
 20
151.38
 10
310.78
 20
149.78
 10
309.84
 20
148.35
 10
308.61
 20
147.12
 10
307.16
 20
146.11
 10
305.53
 20
145.36
 10
303.8
 20
144.88
 10
302.01
 20
144.72
 10
300.22
 20
144.88
 10
298.48
 20
145.36
 10
296.86
 20
146.11
 10
295.41
 20
147.12
 10
294.18
 20
148.35
 10
293.23
 20
149.78
 10
292.63
 20
151.38
 10
292.47
 20
152.23
 10
292.41
 20
153.12
 10
292.47
 20
154.22
 10
292.63
 20
155.26
 10
292.88
 20
156.23
 10
293.23
 20
157.15
 10
294.18
 20
158.79
 10
295.41
 20
160.17
 10
296.86
 20
161.26
 10
298.48
 20
162.06
 10
300.22
 20
162.55
 10
302.01
 20
162.72
 10
303.8
 20
162.55
 10
305.53
 20
162.06
 10
307.16
 20
161.26
 10
308.61
 20
160.17
 10
309.84
 20
158.79
 10
310.78
 20
157.15
 10
311.14
 20
156.23
 10
311.39
 20
155.26
 10
311.55
 20
154.22
 10
311.61
 20
153.12
  0
HATCH
  5
4C
330
17
100
AcDbEntity
  8
FILL_RED_FF0000
 62
7
420
16711680
100
AcDbHatch
 10
0.0
 20
0.0
 30
0.0
210
0.0
220
0.0
230
1.0
  2
SOLID
 70
1
 71
0
 91
1
 92
3
 72
0
 73
1
 93
41
 10
274.35
 20
134.22
 10
274.19
 20
133.33
 10
273.58
 20
131.59
 10
272.64
 20
129.97
 10
271.41
 20
128.52
 10
269.96
 20
127.29
 10
268.33
 20
126.34
 10
266.6
 20
125.74
 10
265.71
 20
125.58
 10
264.81
 20
125.52
 10
263.91
 20
125.58
 10
263.02
 20
125.74
 10
261.28
 20
126.34
 10
259.66
 20
127.29
 10
258.21
 20
128.52
 10
256.98
 20
129.97
 10
256.03
 20
131.59
 10
255.43
 20
133.33
 10
255.27
 20
134.22
 10
255.21
 20
135.12
 10
255.27
 20
136.02
 10
255.43
 20
136.91
 10
256.03
 20
138.64
 10
256.98
 20
140.27
 10
258.21
 20
141.72
 10
259.66
 20
142.95
 10
261.28
 20
143.89
 10
263.02
 20
144.5
 10
263.91
 20
144.66
 10
264.81
 20
144.72
 10
265.71
 20
144.66
 10
266.6
 20
144.5
 10
268.33
 20
143.89
 10
269.96
 20
142.95
 10
271.41
 20
141.72
 10
272.64
 20
140.27
 10
273.58
 20
138.64
 10
274.19
 20
136.91
 10
274.35
 20
136.02
 10
274.41
 20
135.12
 10
274.35
 20
134.22
 97
0
 75
1
 76
1
 98
0
  0
LWPOLYLINE
  5
4D
330
17
100
AcDbEntity
  8
FILL_RED_FF0000
370
0
420
16711680
100
AcDbPolyline
 90
40
 70
1
 10
274.35
 20
134.22
 10
274.19
 20
133.33
 10
273.58
 20
131.59
 10
272.64
 20
129.97
 10
271.41
 20
128.52
 10
269.96
 20
127.29
 10
268.33
 20
126.34
 10
266.6
 20
125.74
 10
265.71
 20
125.58
 10
264.81
 20
125.52
 10
263.91
 20
125.58
 10
263.02
 20
125.74
 10
261.28
 20
126.34
 10
259.66
 20
127.29
 10
258.21
 20
128.52
 10
256.98
 20
129.97
 10
256.03
 20
131.59
 10
255.43
 20
133.33
 10
255.27
 20
134.22
 10
255.21
 20
135.12
 10
255.27
 20
136.02
 10
255.43
 20
136.91
 10
256.03
 20
138.64
 10
256.98
 20
140.27
 10
258.21
 20
141.72
 10
259.66
 20
142.95
 10
261.28
 20
143.89
 10
263.02
 20
144.5
 10
263.91
 20
144.66
 10
264.81
 20
144.72
 10
265.71
 20
144.66
 10
266.6
 20
144.5
 10
268.33
 20
143.89
 10
269.96
 20
142.95
 10
271.41
 20
141.72
 10
272.64
 20
140.27
 10
273.58
 20
138.64
 10
274.19
 20
136.91
 10
274.35
 20
136.02
 10
274.41
 20
135.12
  0
HATCH
  5
4E
330
17
100
AcDbEntity
  8
FILL_RED_FF0000
 62
7
420
16711680
100
AcDbHatch
 10
0.0
 20
0.0
 30
0.0
210
0.0
220
0.0
230
1.0
  2
SOLID
 70
1
 71
0
 91
1
 92
3
 72
0
 73
1
 93
39
 10
274.35
 20
115.03
 10
274.19
 20
114.18
 10
273.58
 20
112.58
 10
272.64
 20
111.15
 10
271.41
 20
109.92
 10
269.96
 20
108.91
 10
268.33
 20
108.16
 10
266.6
 20
107.68
 10
264.81
 20
107.52
 10
263.02
 20
107.68
 10
261.28
 20
108.16
 10
259.66
 20
108.91
 10
258.21
 20
109.92
 10
256.98
 20
111.15
 10
256.03
 20
112.58
 10
255.43
 20
114.18
 10
255.27
 20
115.03
 10
255.21
 20
115.92
 10
255.27
 20
117.02
 10
255.43
 20
118.06
 10
255.68
 20
119.03
 10
256.03
 20
119.95
 10
256.98
 20
121.59
 10
258.21
 20
122.97
 10
259.66
 20
124.06
 10
261.28
 20
124.86
 10
263.02
 20
125.35
 10
264.81
 20
125.52
 10
266.6
 20
125.35
 10
268.33
 20
124.86
 10
269.96
 20
124.06
 10
271.41
 20
122.97
 10
272.64
 20
121.59
 10
273.58
 20
119.95
 10
273.94
 20
119.03
 10
274.19
 20
118.06
 10
274.35
 20
117.02
 10
274.41
 20
115.92
 10
274.35
 20
115.03
 97
0
 75
1
 76
1
 98
0
  0
LWPOLYLINE
  5
4F
330
17
100
AcDbEntity
  8
FILL_RED_FF0000
370
0
420
16711680
100
AcDbPolyline
 90
38
 70
1
 10
274.35
 20
115.03
 10
274.19
 20
114.18
 10
273.58
 20
112.58
 10
272.64
 20
111.15
 10
271.41
 20
109.92
 10
269.96
 20
108.91
 10
268.33
 20
108.16
 10
266.6
 20
107.68
 10
264.81
 20
107.52
 10
263.02
 20
107.68
 10
261.28
 20
108.16
 10
259.66
 20
108.91
 10
258.21
 20
109.92
 10
256.98
 20
111.15
 10
256.03
 20
112.58
 10
255.43
 20
114.18
 10
255.27
 20
115.03
 10
255.21
 20
115.92
 10
255.27
 20
117.02
 10
255.43
 20
118.06
 10
255.68
 20
119.03
 10
256.03
 20
119.95
 10
256.98
 20
121.59
 10
258.21
 20
122.97
 10
259.66
 20
124.06
 10
261.28
 20
124.86
 10
263.02
 20
125.35
 10
264.81
 20
125.52
 10
266.6
 20
125.35
 10
268.33
 20
124.86
 10
269.96
 20
124.06
 10
271.41
 20
122.97
 10
272.64
 20
121.59
 10
273.58
 20
119.95
 10
273.94
 20
119.03
 10
274.19
 20
118.06
 10
274.35
 20
117.02
 10
274.41
 20
115.92
  0
HATCH
  5
50
330
17
100
AcDbEntity
  8
FILL_RED_FF0000
 62
7
420
16711680
100
AcDbHatch
 10
0.0
 20
0.0
 30
0.0
210
0.0
220
0.0
230
1.0
  2
SOLID
 70
1
 71
0
 91
1
 92
3
 72
0
 73
1
 93
33
 10
255.05
 20
114.18
 10
254.57
 20
112.58
 10
253.82
 20
111.15
 10
252.81
 20
109.92
 10
251.58
 20
108.91
 10
250.15
 20
108.16
 10
248.55
 20
107.68
 10
246.81
 20
107.52
 10
244.67
 20
107.68
 10
242.78
 20
108.16
 10
241.14
 20
108.91
 10
239.76
 20
109.92
 10
238.67
 20
111.15
 10
237.87
 20
112.58
 10
237.38
 20
114.18
 10
237.21
 20
115.92
 10
237.38
 20
118.06
 10
237.87
 20
119.95
 10
238.67
 20
121.59
 10
239.76
 20
122.97
 10
241.14
 20
124.06
 10
242.78
 20
124.86
 10
244.67
 20
125.35
 10
246.81
 20
125.52
 10
248.55
 20
125.35
 10
250.15
 20
124.86
 10
251.58
 20
124.06
 10
252.81
 20
122.97
 10
253.82
 20
121.59
 10
254.57
 20
119.95
 10
255.05
 20
118.06
 10
255.21
 20
115.92
 10
255.05
 20
114.18
 97
0
 75
1
 76
1
 98
0
  0
LWPOLYLINE
  5
51
330
17
100
AcDbEntity
  8
FILL_RED_FF0000
370
0
420
16711680
100
AcDbPolyline
 90
32
 70
1
 10
255.05
 20
114.18
 10
254.57
 20
112.58
 10
253.82
 20
111.15
 10
252.81
 20
109.92
 10
251.58
 20
108.91
 10
250.15
 20
108.16
 10
248.55
 20
107.68
 10
246.81
 20
107.52
 10
244.67
 20
107.68
 10
242.78
 20
108.16
 10
241.14
 20
108.91
 10
239.76
 20
109.92
 10
238.67
 20
111.15
 10
237.87
 20
112.58
 10
237.38
 20
114.18
 10
237.21
 20
115.92
 10
237.38
 20
118.06
 10
237.87
 20
119.95
 10
238.67
 20
121.59
 10
239.76
 20
122.97
 10
241.14
 20
124.06
 10
242.78
 20
124.86
 10
244.67
 20
125.35
 10
246.81
 20
125.52
 10
248.55
 20
125.35
 10
250.15
 20
124.86
 10
251.58
 20
124.06
 10
252.81
 20
122.97
 10
253.82
 20
121.59
 10
254.57
 20
119.95
 10
255.05
 20
118.06
 10
255.21
 20
115.92
  0
HATCH
  5
52
330
17
100
AcDbEntity
  8
FILL_RED_FF0000
 62
7
420
16711680
100
AcDbHatch
 10
0.0
 20
0.0
 30
0.0
210
0.0
220
0.0
230
1.0
  2
SOLID
 70
1
 71
0
 91
1
 92
3
 72
0
 73
1
 93
39
 10
255.05
 20
96.13
 10
254.57
 20
94.39
 10
253.82
 20
92.77
 10
252.81
 20
91.32
 10
251.58
 20
90.09
 10
250.15
 20
89.14
 10
248.55
 20
88.54
 10
247.7
 20
88.38
 10
246.81
 20
88.32
 10
245.71
 20
88.38
 10
244.67
 20
88.54
 10
243.7
 20
88.79
 10
242.78
 20
89.14
 10
241.14
 20
90.09
 10
239.76
 20
91.32
 10
238.67
 20
92.77
 10
237.87
 20
94.39
 10
237.38
 20
96.13
 10
237.21
 20
97.92
 10
237.38
 20
99.71
 10
237.87
 20
101.44
 10
238.67
 20
103.07
 10
239.76
 20
104.52
 10
241.14
 20
105.75
 10
242.78
 20
106.69
 10
243.7
 20
107.05
 10
244.67
 20
107.3
 10
245.71
 20
107.46
 10
246.81
 20
107.52
 10
247.7
 20
107.46
 10
248.55
 20
107.3
 10
250.15
 20
106.69
 10
251.58
 20
105.75
 10
252.81
 20
104.52
 10
253.82
 20
103.07
 10
254.57
 20
101.44
 10
255.05
 20
99.71
 10
255.21
 20
97.92
 10
255.05
 20
96.13
 97
0
 75
1
 76
1
 98
0
  0
LWPOLYLINE
  5
53
330
17
100
AcDbEntity
  8
FILL_RED_FF0000
370
0
420
16711680
100
AcDbPolyline
 90
38
 70
1
 10
255.05
 20
96.13
 10
254.57
 20
94.39
 10
253.82
 20
92.77
 10
252.81
 20
91.32
 10
251.58
 20
90.09
 10
250.15
 20
89.14
 10
248.55
 20
88.54
 10
247.7
 20
88.38
 10
246.81
 20
88.32
 10
245.71
 20
88.38
 10
244.67
 20
88.54
 10
243.7
 20
88.79
 10
242.78
 20
89.14
 10
241.14
 20
90.09
 10
239.76
 20
91.32
 10
238.67
 20
92.77
 10
237.87
 20
94.39
 10
237.38
 20
96.13
 10
237.21
 20
97.92
 10
237.38
 20
99.71
 10
237.87
 20
101.44
 10
238.67
 20
103.07
 10
239.76
 20
104.52
 10
241.14
 20
105.75
 10
242.78
 20
106.69
 10
243.7
 20
107.05
 10
244.67
 20
107.3
 10
245.71
 20
107.46
 10
246.81
 20
107.52
 10
247.7
 20
107.46
 10
248.55
 20
107.3
 10
250.15
 20
106.69
 10
251.58
 20
105.75
 10
252.81
 20
104.52
 10
253.82
 20
103.07
 10
254.57
 20
101.44
 10
255.05
 20
99.71
 10
255.21
 20
97.92
  0
HATCH
  5
54
330
17
100
AcDbEntity
  8
FILL_RED_FF0000
 62
7
420
16711680
100
AcDbHatch
 10
0.0
 20
0.0
 30
0.0
210
0.0
220
0.0
230
1.0
  2
SOLID
 70
1
 71
0
 91
1
 92
3
 72
0
 73
1
 93
41
 10
237.15
 20
97.02
 10
236.99
 20
96.13
 10
236.39
 20
94.39
 10
235.44
 20
92.77
 10
234.21
 20
91.32
 10
232.76
 20
90.09
 10
231.13
 20
89.14
 10
229.4
 20
88.54
 10
228.51
 20
88.38
 10
227.61
 20
88.32
 10
226.71
 20
88.38
 10
225.82
 20
88.54
 10
224.08
 20
89.14
 10
222.46
 20
90.09
 10
221.01
 20
91.32
 10
219.78
 20
92.77
 10
218.83
 20
94.39
 10
218.23
 20
96.13
 10
218.07
 20
97.02
 10
218.01
 20
97.92
 10
218.07
 20
98.82
 10
218.23
 20
99.71
 10
218.83
 20
101.44
 10
219.78
 20
103.07
 10
221.01
 20
104.52
 10
222.46
 20
105.75
 10
224.08
 20
106.69
 10
225.82
 20
107.3
 10
226.71
 20
107.46
 10
227.61
 20
107.52
 10
228.51
 20
107.46
 10
229.4
 20
107.3
 10
231.13
 20
106.69
 10
232.76
 20
105.75
 10
234.21
 20
104.52
 10
235.44
 20
103.07
 10
236.39
 20
101.44
 10
236.99
 20
99.71
 10
237.15
 20
98.82
 10
237.21
 20
97.92
 10
237.15
 20
97.02
 97
0
 75
1
 76
1
 98
0
  0
LWPOLYLINE
  5
55
330
17
100
AcDbEntity
  8
FILL_RED_FF0000
370
0
420
16711680
100
AcDbPolyline
 90
40
 70
1
 10
237.15
 20
97.02
 10
236.99
 20
96.13
 10
236.39
 20
94.39
 10
235.44
 20
92.77
 10
234.21
 20
91.32
 10
232.76
 20
90.09
 10
231.13
 20
89.14
 10
229.4
 20
88.54
 10
228.51
 20
88.38
 10
227.61
 20
88.32
 10
226.71
 20
88.38
 10
225.82
 20
88.54
 10
224.08
 20
89.14
 10
222.46
 20
90.09
 10
221.01
 20
91.32
 10
219.78
 20
92.77
 10
218.83
 20
94.39
 10
218.23
 20
96.13
 10
218.07
 20
97.02
 10
218.01
 20
97.92
 10
218.07
 20
98.82
 10
218.23
 20
99.71
 10
218.83
 20
101.44
 10
219.78
 20
103.07
 10
221.01
 20
104.52
 10
222.46
 20
105.75
 10
224.08
 20
106.69
 10
225.82
 20
107.3
 10
226.71
 20
107.46
 10
227.61
 20
107.52
 10
228.51
 20
107.46
 10
229.4
 20
107.3
 10
231.13
 20
106.69
 10
232.76
 20
105.75
 10
234.21
 20
104.52
 10
235.44
 20
103.07
 10
236.39
 20
101.44
 10
236.99
 20
99.71
 10
237.15
 20
98.82
 10
237.21
 20
97.92
  0
HATCH
  5
56
330
17
100
AcDbEntity
  8
FILL_RED_FF0000
 62
7
420
16711680
100
AcDbHatch
 10
0.0
 20
0.0
 30
0.0
210
0.0
220
0.0
230
1.0
  2
SOLID
 70
1
 71
0
 91
1
 92
3
 72
0
 73
1
 93
39
 10
237.15
 20
77.83
 10
236.99
 20
76.98
 10
236.39
 20
75.38
 10
235.44
 20
73.95
 10
234.21
 20
72.72
 10
232.76
 20
71.71
 10
231.13
 20
70.96
 10
229.4
 20
70.48
 10
227.61
 20
70.32
 10
225.82
 20
70.48
 10
224.08
 20
70.96
 10
222.46
 20
71.71
 10
221.01
 20
72.72
 10
219.78
 20
73.95
 10
218.83
 20
75.38
 10
218.23
 20
76.98
 10
218.07
 20
77.83
 10
218.01
 20
78.72
 10
218.07
 20
79.82
 10
218.23
 20
80.86
 10
218.48
 20
81.83
 10
218.83
 20
82.75
 10
219.78
 20
84.39
 10
221.01
 20
85.77
 10
222.46
 20
86.86
 10
224.08
 20
87.66
 10
225.82
 20
88.15
 10
227.61
 20
88.32
 10
229.4
 20
88.15
 10
231.13
 20
87.66
 10
232.76
 20
86.86
 10
234.21
 20
85.77
 10
235.44
 20
84.39
 10
236.39
 20
82.75
 10
236.74
 20
81.83
 10
236.99
 20
80.86
 10
237.15
 20
79.82
 10
237.21
 20
78.72
 10
237.15
 20
77.83
 97
0
 75
1
 76
1
 98
0
  0
LWPOLYLINE
  5
57
330
17
100
AcDbEntity
  8
FILL_RED_FF0000
370
0
420
16711680
100
AcDbPolyline
 90
38
 70
1
 10
237.15
 20
77.83
 10
236.99
 20
76.98
 10
236.39
 20
75.38
 10
235.44
 20
73.95
 10
234.21
 20
72.72
 10
232.76
 20
71.71
 10
231.13
 20
70.96
 10
229.4
 20
70.48
 10
227.61
 20
70.32
 10
225.82
 20
70.48
 10
224.08
 20
70.96
 10
222.46
 20
71.71
 10
221.01
 20
72.72
 10
219.78
 20
73.95
 10
218.83
 20
75.38
 10
218.23
 20
76.98
 10
218.07
 20
77.83
 10
218.01
 20
78.72
 10
218.07
 20
79.82
 10
218.23
 20
80.86
 10
218.48
 20
81.83
 10
218.83
 20
82.75
 10
219.78
 20
84.39
 10
221.01
 20
85.77
 10
222.46
 20
86.86
 10
224.08
 20
87.66
 10
225.82
 20
88.15
 10
227.61
 20
88.32
 10
229.4
 20
88.15
 10
231.13
 20
87.66
 10
232.76
 20
86.86
 10
234.21
 20
85.77
 10
235.44
 20
84.39
 10
236.39
 20
82.75
 10
236.74
 20
81.83
 10
236.99
 20
80.86
 10
237.15
 20
79.82
 10
237.21
 20
78.72
  0
HATCH
  5
58
330
17
100
AcDbEntity
  8
FILL_RED_FF0000
 62
7
420
16711680
100
AcDbHatch
 10
0.0
 20
0.0
 30
0.0
210
0.0
220
0.0
230
1.0
  2
SOLID
 70
1
 71
0
 91
1
 92
3
 72
0
 73
1
 93
33
 10
217.84
 20
76.98
 10
217.35
 20
75.38
 10
216.55
 20
73.95
 10
215.46
 20
72.72
 10
214.08
 20
71.71
 10
212.44
 20
70.96
 10
210.55
 20
70.48
 10
208.41
 20
70.32
 10
206.67
 20
70.48
 10
205.07
 20
70.96
 10
203.64
 20
71.71
 10
202.41
 20
72.72
 10
201.4
 20
73.95
 10
200.65
 20
75.38
 10
200.17
 20
76.98
 10
200.01
 20
78.72
 10
200.17
 20
80.86
 10
200.65
 20
82.75
 10
201.4
 20
84.39
 10
202.41
 20
85.77
 10
203.64
 20
86.86
 10
205.07
 20
87.66
 10
206.67
 20
88.15
 10
208.41
 20
88.32
 10
210.55
 20
88.15
 10
212.44
 20
87.66
 10
214.08
 20
86.86
 10
215.46
 20
85.77
 10
216.55
 20
84.39
 10
217.35
 20
82.75
 10
217.84
 20
80.86
 10
218.01
 20
78.72
 10
217.84
 20
76.98
 97
0
 75
1
 76
1
 98
0
  0
LWPOLYLINE
  5
59
330
17
100
AcDbEntity
  8
FILL_RED_FF0000
370
0
420
16711680
100
AcDbPolyline
 90
32
 70
1
 10
217.84
 20
76.98
 10
217.35
 20
75.38
 10
216.55
 20
73.95
 10
215.46
 20
72.72
 10
214.08
 20
71.71
 10
212.44
 20
70.96
 10
210.55
 20
70.48
 10
208.41
 20
70.32
 10
206.67
 20
70.48
 10
205.07
 20
70.96
 10
203.64
 20
71.71
 10
202.41
 20
72.72
 10
201.4
 20
73.95
 10
200.65
 20
75.38
 10
200.17
 20
76.98
 10
200.01
 20
78.72
 10
200.17
 20
80.86
 10
200.65
 20
82.75
 10
201.4
 20
84.39
 10
202.41
 20
85.77
 10
203.64
 20
86.86
 10
205.07
 20
87.66
 10
206.67
 20
88.15
 10
208.41
 20
88.32
 10
210.55
 20
88.15
 10
212.44
 20
87.66
 10
214.08
 20
86.86
 10
215.46
 20
85.77
 10
216.55
 20
84.39
 10
217.35
 20
82.75
 10
217.84
 20
80.86
 10
218.01
 20
78.72
  0
HATCH
  5
5A
330
17
100
AcDbEntity
  8
FILL_RED_FF0000
 62
7
420
16711680
100
AcDbHatch
 10
0.0
 20
0.0
 30
0.0
210
0.0
220
0.0
230
1.0
  2
SOLID
 70
1
 71
0
 91
1
 92
3
 72
0
 73
1
 93
39
 10
217.84
 20
58.93
 10
217.35
 20
57.19
 10
216.55
 20
55.57
 10
215.46
 20
54.12
 10
214.08
 20
52.89
 10
212.44
 20
51.94
 10
211.52
 20
51.59
 10
210.55
 20
51.34
 10
209.51
 20
51.18
 10
208.41
 20
51.12
 10
207.52
 20
51.18
 10
206.67
 20
51.34
 10
205.07
 20
51.94
 10
203.64
 20
52.89
 10
202.41
 20
54.12
 10
201.4
 20
55.57
 10
200.65
 20
57.19
 10
200.17
 20
58.93
 10
200.01
 20
60.72
 10
200.17
 20
62.51
 10
200.65
 20
64.24
 10
201.4
 20
65.87
 10
202.41
 20
67.32
 10
203.64
 20
68.55
 10
205.07
 20
69.49
 10
206.67
 20
70.1
 10
207.52
 20
70.26
 10
208.41
 20
70.32
 10
209.51
 20
70.26
 10
210.55
 20
70.1
 10
211.52
 20
69.85
 10
212.44
 20
69.49
 10
214.08
 20
68.55
 10
215.46
 20
67.32
 10
216.55
 20
65.87
 10
217.35
 20
64.24
 10
217.84
 20
62.51
 10
218.01
 20
60.72
 10
217.84
 20
58.93
 97
0
 75
1
 76
1
 98
0
  0
LWPOLYLINE
  5
5B
330
17
100
AcDbEntity
  8
FILL_RED_FF0000
370
0
420
16711680
100
AcDbPolyline
 90
38
 70
1
 10
217.84
 20
58.93
 10
217.35
 20
57.19
 10
216.55
 20
55.57
 10
215.46
 20
54.12
 10
214.08
 20
52.89
 10
212.44
 20
51.94
 10
211.52
 20
51.59
 10
210.55
 20
51.34
 10
209.51
 20
51.18
 10
208.41
 20
51.12
 10
207.52
 20
51.18
 10
206.67
 20
51.34
 10
205.07
 20
51.94
 10
203.64
 20
52.89
 10
202.41
 20
54.12
 10
201.4
 20
55.57
 10
200.65
 20
57.19
 10
200.17
 20
58.93
 10
200.01
 20
60.72
 10
200.17
 20
62.51
 10
200.65
 20
64.24
 10
201.4
 20
65.87
 10
202.41
 20
67.32
 10
203.64
 20
68.55
 10
205.07
 20
69.49
 10
206.67
 20
70.1
 10
207.52
 20
70.26
 10
208.41
 20
70.32
 10
209.51
 20
70.26
 10
210.55
 20
70.1
 10
211.52
 20
69.85
 10
212.44
 20
69.49
 10
214.08
 20
68.55
 10
215.46
 20
67.32
 10
216.55
 20
65.87
 10
217.35
 20
64.24
 10
217.84
 20
62.51
 10
218.01
 20
60.72
  0
HATCH
  5
5C
330
17
100
AcDbEntity
  8
FILL_RED_FF0000
 62
7
420
16711680
100
AcDbHatch
 10
0.0
 20
0.0
 30
0.0
210
0.0
220
0.0
230
1.0
  2
SOLID
 70
1
 71
0
 91
1
 92
3
 72
0
 73
1
 93
41
 10
199.95
 20
59.82
 10
199.79
 20
58.93
 10
199.18
 20
57.19
 10
198.24
 20
55.57
 10
197.01
 20
54.12
 10
195.56
 20
52.89
 10
193.93
 20
51.94
 10
192.2
 20
51.34
 10
191.31
 20
51.18
 10
190.41
 20
51.12
 10
189.51
 20
51.18
 10
188.62
 20
51.34
 10
186.88
 20
51.94
 10
185.26
 20
52.89
 10
183.81
 20
54.12
 10
182.58
 20
55.57
 10
181.63
 20
57.19
 10
181.03
 20
58.93
 10
180.87
 20
59.82
 10
180.81
 20
60.72
 10
180.87
 20
61.62
 10
181.03
 20
62.51
 10
181.63
 20
64.24
 10
182.58
 20
65.87
 10
183.81
 20
67.32
 10
185.26
 20
68.55
 10
186.88
 20
69.49
 10
188.62
 20
70.1
 10
189.51
 20
70.26
 10
190.41
 20
70.32
 10
191.31
 20
70.26
 10
192.2
 20
70.1
 10
193.93
 20
69.49
 10
195.56
 20
68.55
 10
197.01
 20
67.32
 10
198.24
 20
65.87
 10
199.18
 20
64.24
 10
199.79
 20
62.51
 10
199.95
 20
61.62
 10
200.01
 20
60.72
 10
199.95
 20
59.82
 97
0
 75
1
 76
1
 98
0
  0
LWPOLYLINE
  5
5D
330
17
100
AcDbEntity
  8
FILL_RED_FF0000
370
0
420
16711680
100
AcDbPolyline
 90
40
 70
1
 10
199.95
 20
59.82
 10
199.79
 20
58.93
 10
199.18
 20
57.19
 10
198.24
 20
55.57
 10
197.01
 20
54.12
 10
195.56
 20
52.89
 10
193.93
 20
51.94
 10
192.2
 20
51.34
 10
191.31
 20
51.18
 10
190.41
 20
51.12
 10
189.51
 20
51.18
 10
188.62
 20
51.34
 10
186.88
 20
51.94
 10
185.26
 20
52.89
 10
183.81
 20
54.12
 10
182.58
 20
55.57
 10
181.63
 20
57.19
 10
181.03
 20
58.93
 10
180.87
 20
59.82
 10
180.81
 20
60.72
 10
180.87
 20
61.62
 10
181.03
 20
62.51
 10
181.63
 20
64.24
 10
182.58
 20
65.87
 10
183.81
 20
67.32
 10
185.26
 20
68.55
 10
186.88
 20
69.49
 10
188.62
 20
70.1
 10
189.51
 20
70.26
 10
190.41
 20
70.32
 10
191.31
 20
70.26
 10
192.2
 20
70.1
 10
193.93
 20
69.49
 10
195.56
 20
68.55
 10
197.01
 20
67.32
 10
198.24
 20
65.87
 10
199.18
 20
64.24
 10
199.79
 20
62.51
 10
199.95
 20
61.62
 10
200.01
 20
60.72
  0
HATCH
  5
5E
330
17
100
AcDbEntity
  8
FILL_RED_FF0000
 62
7
420
16711680
100
AcDbHatch
 10
0.0
 20
0.0
 30
0.0
210
0.0
220
0.0
230
1.0
  2
SOLID
 70
1
 71
0
 91
1
 92
3
 72
0
 73
1
 93
33
 10
329.45
 20
114.18
 10
328.97
 20
112.58
 10
328.22
 20
111.15
 10
327.21
 20
109.92
 10
325.98
 20
108.91
 10
324.55
 20
108.16
 10
322.95
 20
107.68
 10
321.21
 20
107.52
 10
319.07
 20
107.68
 10
317.18
 20
108.16
 10
315.54
 20
108.91
 10
314.16
 20
109.92
 10
313.07
 20
111.15
 10
312.27
 20
112.58
 10
311.78
 20
114.18
 10
311.61
 20
115.92
 10
311.78
 20
118.06
 10
312.27
 20
119.95
 10
313.07
 20
121.59
 10
314.16
 20
122.97
 10
315.54
 20
124.06
 10
317.18
 20
124.86
 10
319.07
 20
125.35
 10
321.21
 20
125.52
 10
322.95
 20
125.35
 10
324.55
 20
124.86
 10
325.98
 20
124.06
 10
327.21
 20
122.97
 10
328.22
 20
121.59
 10
328.97
 20
119.95
 10
329.45
 20
118.06
 10
329.61
 20
115.92
 10
329.45
 20
114.18
 97
0
 75
1
 76
1
 98
0
  0
LWPOLYLINE
  5
5F
330
17
100
AcDbEntity
  8
FILL_RED_FF0000
370
0
420
16711680
100
AcDbPolyline
 90
32
 70
1
 10
329.45
 20
114.18
 10
328.97
 20
112.58
 10
328.22
 20
111.15
 10
327.21
 20
109.92
 10
325.98
 20
108.91
 10
324.55
 20
108.16
 10
322.95
 20
107.68
 10
321.21
 20
107.52
 10
319.07
 20
107.68
 10
317.18
 20
108.16
 10
315.54
 20
108.91
 10
314.16
 20
109.92
 10
313.07
 20
111.15
 10
312.27
 20
112.58
 10
311.78
 20
114.18
 10
311.61
 20
115.92
 10
311.78
 20
118.06
 10
312.27
 20
119.95
 10
313.07
 20
121.59
 10
314.16
 20
122.97
 10
315.54
 20
124.06
 10
317.18
 20
124.86
 10
319.07
 20
125.35
 10
321.21
 20
125.52
 10
322.95
 20
125.35
 10
324.55
 20
124.86
 10
325.98
 20
124.06
 10
327.21
 20
122.97
 10
328.22
 20
121.59
 10
328.97
 20
119.95
 10
329.45
 20
118.06
 10
329.61
 20
115.92
  0
HATCH
  5
60
330
17
100
AcDbEntity
  8
FILL_RED_FF0000
 62
7
420
16711680
100
AcDbHatch
 10
0.0
 20
0.0
 30
0.0
210
0.0
220
0.0
230
1.0
  2
SOLID
 70
1
 71
0
 91
1
 92
3
 72
0
 73
1
 93
39
 10
311.55
 20
115.03
 10
311.39
 20
114.18
 10
310.78
 20
112.58
 10
309.84
 20
111.15
 10
308.61
 20
109.92
 10
307.16
 20
108.91
 10
305.53
 20
108.16
 10
303.8
 20
107.68
 10
302.01
 20
107.52
 10
300.22
 20
107.68
 10
298.48
 20
108.16
 10
296.86
 20
108.91
 10
295.41
 20
109.92
 10
294.18
 20
111.15
 10
293.23
 20
112.58
 10
292.63
 20
114.18
 10
292.47
 20
115.03
 10
292.41
 20
115.92
 10
292.47
 20
117.02
 10
292.63
 20
118.06
 10
292.88
 20
119.03
 10
293.23
 20
119.95
 10
294.18
 20
121.59
 10
295.41
 20
122.97
 10
296.86
 20
124.06
 10
298.48
 20
124.86
 10
300.22
 20
125.35
 10
302.01
 20
125.52
 10
303.8
 20
125.35
 10
305.53
 20
124.86
 10
307.16
 20
124.06
 10
308.61
 20
122.97
 10
309.84
 20
121.59
 10
310.78
 20
119.95
 10
311.14
 20
119.03
 10
311.39
 20
118.06
 10
311.55
 20
117.02
 10
311.61
 20
115.92
 10
311.55
 20
115.03
 97
0
 75
1
 76
1
 98
0
  0
LWPOLYLINE
  5
61
330
17
100
AcDbEntity
  8
FILL_RED_FF0000
370
0
420
16711680
100
AcDbPolyline
 90
38
 70
1
 10
311.55
 20
115.03
 10
311.39
 20
114.18
 10
310.78
 20
112.58
 10
309.84
 20
111.15
 10
308.61
 20
109.92
 10
307.16
 20
108.91
 10
305.53
 20
108.16
 10
303.8
 20
107.68
 10
302.01
 20
107.52
 10
300.22
 20
107.68
 10
298.48
 20
108.16
 10
296.86
 20
108.91
 10
295.41
 20
109.92
 10
294.18
 20
111.15
 10
293.23
 20
112.58
 10
292.63
 20
114.18
 10
292.47
 20
115.03
 10
292.41
 20
115.92
 10
292.47
 20
117.02
 10
292.63
 20
118.06
 10
292.88
 20
119.03
 10
293.23
 20
119.95
 10
294.18
 20
121.59
 10
295.41
 20
122.97
 10
296.86
 20
124.06
 10
298.48
 20
124.86
 10
300.22
 20
125.35
 10
302.01
 20
125.52
 10
303.8
 20
125.35
 10
305.53
 20
124.86
 10
307.16
 20
124.06
 10
308.61
 20
122.97
 10
309.84
 20
121.59
 10
310.78
 20
119.95
 10
311.14
 20
119.03
 10
311.39
 20
118.06
 10
311.55
 20
117.02
 10
311.61
 20
115.92
  0
HATCH
  5
62
330
17
100
AcDbEntity
  8
FILL_RED_FF0000
 62
7
420
16711680
100
AcDbHatch
 10
0.0
 20
0.0
 30
0.0
210
0.0
220
0.0
230
1.0
  2
SOLID
 70
1
 71
0
 91
1
 92
3
 72
0
 73
1
 93
41
 10
348.75
 20
97.02
 10
348.59
 20
96.13
 10
347.98
 20
94.39
 10
347.04
 20
92.77
 10
345.81
 20
91.32
 10
344.36
 20
90.09
 10
342.73
 20
89.14
 10
341.0
 20
88.54
 10
340.11
 20
88.38
 10
339.21
 20
88.32
 10
338.31
 20
88.38
 10
337.42
 20
88.54
 10
335.68
 20
89.14
 10
334.06
 20
90.09
 10
332.61
 20
91.32
 10
331.38
 20
92.77
 10
330.43
 20
94.39
 10
329.83
 20
96.13
 10
329.67
 20
97.02
 10
329.61
 20
97.92
 10
329.67
 20
98.82
 10
329.83
 20
99.71
 10
330.43
 20
101.44
 10
331.38
 20
103.07
 10
332.61
 20
104.52
 10
334.06
 20
105.75
 10
335.68
 20
106.69
 10
337.42
 20
107.3
 10
338.31
 20
107.46
 10
339.21
 20
107.52
 10
340.11
 20
107.46
 10
341.0
 20
107.3
 10
342.73
 20
106.69
 10
344.36
 20
105.75
 10
345.81
 20
104.52
 10
347.04
 20
103.07
 10
347.98
 20
101.44
 10
348.59
 20
99.71
 10
348.75
 20
98.82
 10
348.81
 20
97.92
 10
348.75
 20
97.02
 97
0
 75
1
 76
1
 98
0
  0
LWPOLYLINE
  5
63
330
17
100
AcDbEntity
  8
FILL_RED_FF0000
370
0
420
16711680
100
AcDbPolyline
 90
40
 70
1
 10
348.75
 20
97.02
 10
348.59
 20
96.13
 10
347.98
 20
94.39
 10
347.04
 20
92.77
 10
345.81
 20
91.32
 10
344.36
 20
90.09
 10
342.73
 20
89.14
 10
341.0
 20
88.54
 10
340.11
 20
88.38
 10
339.21
 20
88.32
 10
338.31
 20
88.38
 10
337.42
 20
88.54
 10
335.68
 20
89.14
 10
334.06
 20
90.09
 10
332.61
 20
91.32
 10
331.38
 20
92.77
 10
330.43
 20
94.39
 10
329.83
 20
96.13
 10
329.67
 20
97.02
 10
329.61
 20
97.92
 10
329.67
 20
98.82
 10
329.83
 20
99.71
 10
330.43
 20
101.44
 10
331.38
 20
103.07
 10
332.61
 20
104.52
 10
334.06
 20
105.75
 10
335.68
 20
106.69
 10
337.42
 20
107.3
 10
338.31
 20
107.46
 10
339.21
 20
107.52
 10
340.11
 20
107.46
 10
341.0
 20
107.3
 10
342.73
 20
106.69
 10
344.36
 20
105.75
 10
345.81
 20
104.52
 10
347.04
 20
103.07
 10
347.98
 20
101.44
 10
348.59
 20
99.71
 10
348.75
 20
98.82
 10
348.81
 20
97.92
  0
HATCH
  5
64
330
17
100
AcDbEntity
  8
FILL_RED_FF0000
 62
7
420
16711680
100
AcDbHatch
 10
0.0
 20
0.0
 30
0.0
210
0.0
220
0.0
230
1.0
  2
SOLID
 70
1
 71
0
 91
1
 92
3
 72
0
 73
1
 93
39
 10
329.45
 20
96.13
 10
328.97
 20
94.39
 10
328.22
 20
92.77
 10
327.21
 20
91.32
 10
325.98
 20
90.09
 10
324.55
 20
89.14
 10
322.95
 20
88.54
 10
322.1
 20
88.38
 10
321.21
 20
88.32
 10
320.11
 20
88.38
 10
319.07
 20
88.54
 10
318.1
 20
88.79
 10
317.18
 20
89.14
 10
315.54
 20
90.09
 10
314.16
 20
91.32
 10
313.07
 20
92.77
 10
312.27
 20
94.39
 10
311.78
 20
96.13
 10
311.61
 20
97.92
 10
311.78
 20
99.71
 10
312.27
 20
101.44
 10
313.07
 20
103.07
 10
314.16
 20
104.52
 10
315.54
 20
105.75
 10
317.18
 20
106.69
 10
318.1
 20
107.05
 10
319.07
 20
107.3
 10
320.11
 20
107.46
 10
321.21
 20
107.52
 10
322.1
 20
107.46
 10
322.95
 20
107.3
 10
324.55
 20
106.69
 10
325.98
 20
105.75
 10
327.21
 20
104.52
 10
328.22
 20
103.07
 10
328.97
 20
101.44
 10
329.45
 20
99.71
 10
329.61
 20
97.92
 10
329.45
 20
96.13
 97
0
 75
1
 76
1
 98
0
  0
LWPOLYLINE
  5
65
330
17
100
AcDbEntity
  8
FILL_RED_FF0000
370
0
420
16711680
100
AcDbPolyline
 90
38
 70
1
 10
329.45
 20
96.13
 10
328.97
 20
94.39
 10
328.22
 20
92.77
 10
327.21
 20
91.32
 10
325.98
 20
90.09
 10
324.55
 20
89.14
 10
322.95
 20
88.54
 10
322.1
 20
88.38
 10
321.21
 20
88.32
 10
320.11
 20
88.38
 10
319.07
 20
88.54
 10
318.1
 20
88.79
 10
317.18
 20
89.14
 10
315.54
 20
90.09
 10
314.16
 20
91.32
 10
313.07
 20
92.77
 10
312.27
 20
94.39
 10
311.78
 20
96.13
 10
311.61
 20
97.92
 10
311.78
 20
99.71
 10
312.27
 20
101.44
 10
313.07
 20
103.07
 10
314.16
 20
104.52
 10
315.54
 20
105.75
 10
317.18
 20
106.69
 10
318.1
 20
107.05
 10
319.07
 20
107.3
 10
320.11
 20
107.46
 10
321.21
 20
107.52
 10
322.1
 20
107.46
 10
322.95
 20
107.3
 10
324.55
 20
106.69
 10
325.98
 20
105.75
 10
327.21
 20
104.52
 10
328.22
 20
103.07
 10
328.97
 20
101.44
 10
329.45
 20
99.71
 10
329.61
 20
97.92
  0
HATCH
  5
66
330
17
100
AcDbEntity
  8
FILL_RED_FF0000
 62
7
420
16711680
100
AcDbHatch
 10
0.0
 20
0.0
 30
0.0
210
0.0
220
0.0
230
1.0
  2
SOLID
 70
1
 71
0
 91
1
 92
3
 72
0
 73
1
 93
33
 10
366.65
 20
76.98
 10
366.17
 20
75.38
 10
365.42
 20
73.95
 10
364.41
 20
72.72
 10
363.18
 20
71.71
 10
361.75
 20
70.96
 10
360.15
 20
70.48
 10
358.41
 20
70.32
 10
356.27
 20
70.48
 10
354.38
 20
70.96
 10
352.74
 20
71.71
 10
351.36
 20
72.72
 10
350.27
 20
73.95
 10
349.47
 20
75.38
 10
348.98
 20
76.98
 10
348.81
 20
78.72
 10
348.98
 20
80.86
 10
349.47
 20
82.75
 10
350.27
 20
84.39
 10
351.36
 20
85.77
 10
352.74
 20
86.86
 10
354.38
 20
87.66
 10
356.27
 20
88.15
 10
358.41
 20
88.32
 10
360.15
 20
88.15
 10
361.75
 20
87.66
 10
363.18
 20
86.86
 10
364.41
 20
85.77
 10
365.42
 20
84.39
 10
366.17
 20
82.75
 10
366.65
 20
80.86
 10
366.81
 20
78.72
 10
366.65
 20
76.98
 97
0
 75
1
 76
1
 98
0
  0
LWPOLYLINE
  5
67
330
17
100
AcDbEntity
  8
FILL_RED_FF0000
370
0
420
16711680
100
AcDbPolyline
 90
32
 70
1
 10
366.65
 20
76.98
 10
366.17
 20
75.38
 10
365.42
 20
73.95
 10
364.41
 20
72.72
 10
363.18
 20
71.71
 10
361.75
 20
70.96
 10
360.15
 20
70.48
 10
358.41
 20
70.32
 10
356.27
 20
70.48
 10
354.38
 20
70.96
 10
352.74
 20
71.71
 10
351.36
 20
72.72
 10
350.27
 20
73.95
 10
349.47
 20
75.38
 10
348.98
 20
76.98
 10
348.81
 20
78.72
 10
348.98
 20
80.86
 10
349.47
 20
82.75
 10
350.27
 20
84.39
 10
351.36
 20
85.77
 10
352.74
 20
86.86
 10
354.38
 20
87.66
 10
356.27
 20
88.15
 10
358.41
 20
88.32
 10
360.15
 20
88.15
 10
361.75
 20
87.66
 10
363.18
 20
86.86
 10
364.41
 20
85.77
 10
365.42
 20
84.39
 10
366.17
 20
82.75
 10
366.65
 20
80.86
 10
366.81
 20
78.72
  0
HATCH
  5
68
330
17
100
AcDbEntity
  8
FILL_RED_FF0000
 62
7
420
16711680
100
AcDbHatch
 10
0.0
 20
0.0
 30
0.0
210
0.0
220
0.0
230
1.0
  2
SOLID
 70
1
 71
0
 91
1
 92
3
 72
0
 73
1
 93
39
 10
348.75
 20
77.83
 10
348.59
 20
76.98
 10
347.98
 20
75.38
 10
347.04
 20
73.95
 10
345.81
 20
72.72
 10
344.36
 20
71.71
 10
342.73
 20
70.96
 10
341.0
 20
70.48
 10
339.21
 20
70.32
 10
337.42
 20
70.48
 10
335.68
 20
70.96
 10
334.06
 20
71.71
 10
332.61
 20
72.72
 10
331.38
 20
73.95
 10
330.43
 20
75.38
 10
329.83
 20
76.98
 10
329.67
 20
77.83
 10
329.61
 20
78.72
 10
329.67
 20
79.82
 10
329.83
 20
80.86
 10
330.08
 20
81.83
 10
330.43
 20
82.75
 10
331.38
 20
84.39
 10
332.61
 20
85.77
 10
334.06
 20
86.86
 10
335.68
 20
87.66
 10
337.42
 20
88.15
 10
339.21
 20
88.32
 10
341.0
 20
88.15
 10
342.73
 20
87.66
 10
344.36
 20
86.86
 10
345.81
 20
85.77
 10
347.04
 20
84.39
 10
347.98
 20
82.75
 10
348.34
 20
81.83
 10
348.59
 20
80.86
 10
348.75
 20
79.82
 10
348.81
 20
78.72
 10
348.75
 20
77.83
 97
0
 75
1
 76
1
 98
0
  0
LWPOLYLINE
  5
69
330
17
100
AcDbEntity
  8
FILL_RED_FF0000
370
0
420
16711680
100
AcDbPolyline
 90
38
 70
1
 10
348.75
 20
77.83
 10
348.59
 20
76.98
 10
347.98
 20
75.38
 10
347.04
 20
73.95
 10
345.81
 20
72.72
 10
344.36
 20
71.71
 10
342.73
 20
70.96
 10
341.0
 20
70.48
 10
339.21
 20
70.32
 10
337.42
 20
70.48
 10
335.68
 20
70.96
 10
334.06
 20
71.71
 10
332.61
 20
72.72
 10
331.38
 20
73.95
 10
330.43
 20
75.38
 10
329.83
 20
76.98
 10
329.67
 20
77.83
 10
329.61
 20
78.72
 10
329.67
 20
79.82
 10
329.83
 20
80.86
 10
330.08
 20
81.83
 10
330.43
 20
82.75
 10
331.38
 20
84.39
 10
332.61
 20
85.77
 10
334.06
 20
86.86
 10
335.68
 20
87.66
 10
337.42
 20
88.15
 10
339.21
 20
88.32
 10
341.0
 20
88.15
 10
342.73
 20
87.66
 10
344.36
 20
86.86
 10
345.81
 20
85.77
 10
347.04
 20
84.39
 10
347.98
 20
82.75
 10
348.34
 20
81.83
 10
348.59
 20
80.86
 10
348.75
 20
79.82
 10
348.81
 20
78.72
  0
HATCH
  5
6A
330
17
100
AcDbEntity
  8
FILL_RED_FF0000
 62
7
420
16711680
100
AcDbHatch
 10
0.0
 20
0.0
 30
0.0
210
0.0
220
0.0
230
1.0
  2
SOLID
 70
1
 71
0
 91
1
 92
3
 72
0
 73
1
 93
39
 10
366.65
 20
58.93
 10
366.17
 20
57.19
 10
365.42
 20
55.57
 10
364.41
 20
54.12
 10
363.18
 20
52.89
 10
361.75
 20
51.94
 10
360.15
 20
51.34
 10
359.3
 20
51.18
 10
358.41
 20
51.12
 10
357.31
 20
51.18
 10
356.27
 20
51.34
 10
355.3
 20
51.59
 10
354.38
 20
51.94
 10
352.74
 20
52.89
 10
351.36
 20
54.12
 10
350.27
 20
55.57
 10
349.47
 20
57.19
 10
348.98
 20
58.93
 10
348.81
 20
60.72
 10
348.98
 20
62.51
 10
349.47
 20
64.24
 10
350.27
 20
65.87
 10
351.36
 20
67.32
 10
352.74
 20
68.55
 10
354.38
 20
69.49
 10
355.3
 20
69.85
 10
356.27
 20
70.1
 10
357.31
 20
70.26
 10
358.41
 20
70.32
 10
359.3
 20
70.26
 10
360.15
 20
70.1
 10
361.75
 20
69.49
 10
363.18
 20
68.55
 10
364.41
 20
67.32
 10
365.42
 20
65.87
 10
366.17
 20
64.24
 10
366.65
 20
62.51
 10
366.81
 20
60.72
 10
366.65
 20
58.93
 97
0
 75
1
 76
1
 98
0
  0
LWPOLYLINE
  5
6B
330
17
100
AcDbEntity
  8
FILL_RED_FF0000
370
0
420
16711680
100
AcDbPolyline
 90
38
 70
1
 10
366.65
 20
58.93
 10
366.17
 20
57.19
 10
365.42
 20
55.57
 10
364.41
 20
54.12
 10
363.18
 20
52.89
 10
361.75
 20
51.94
 10
360.15
 20
51.34
 10
359.3
 20
51.18
 10
358.41
 20
51.12
 10
357.31
 20
51.18
 10
356.27
 20
51.34
 10
355.3
 20
51.59
 10
354.38
 20
51.94
 10
352.74
 20
52.89
 10
351.36
 20
54.12
 10
350.27
 20
55.57
 10
349.47
 20
57.19
 10
348.98
 20
58.93
 10
348.81
 20
60.72
 10
348.98
 20
62.51
 10
349.47
 20
64.24
 10
350.27
 20
65.87
 10
351.36
 20
67.32
 10
352.74
 20
68.55
 10
354.38
 20
69.49
 10
355.3
 20
69.85
 10
356.27
 20
70.1
 10
357.31
 20
70.26
 10
358.41
 20
70.32
 10
359.3
 20
70.26
 10
360.15
 20
70.1
 10
361.75
 20
69.49
 10
363.18
 20
68.55
 10
364.41
 20
67.32
 10
365.42
 20
65.87
 10
366.17
 20
64.24
 10
366.65
 20
62.51
 10
366.81
 20
60.72
  0
HATCH
  5
6C
330
17
100
AcDbEntity
  8
FILL_RED_FF0000
 62
7
420
16711680
100
AcDbHatch
 10
0.0
 20
0.0
 30
0.0
210
0.0
220
0.0
230
1.0
  2
SOLID
 70
1
 71
0
 91
1
 92
3
 72
0
 73
1
 93
41
 10
311.55
 20
171.42
 10
311.39
 20
170.53
 10
310.78
 20
168.79
 10
309.84
 20
167.17
 10
308.61
 20
165.72
 10
307.16
 20
164.49
 10
305.53
 20
163.54
 10
303.8
 20
162.94
 10
302.91
 20
162.78
 10
302.01
 20
162.72
 10
301.11
 20
162.78
 10
300.22
 20
162.94
 10
298.48
 20
163.54
 10
296.86
 20
164.49
 10
295.41
 20
165.72
 10
294.18
 20
167.17
 10
293.23
 20
168.79
 10
292.63
 20
170.53
 10
292.47
 20
171.42
 10
292.41
 20
172.32
 10
292.47
 20
173.22
 10
292.63
 20
174.11
 10
293.23
 20
175.84
 10
294.18
 20
177.47
 10
295.41
 20
178.92
 10
296.86
 20
180.15
 10
298.48
 20
181.09
 10
300.22
 20
181.7
 10
301.11
 20
181.86
 10
302.01
 20
181.92
 10
302.91
 20
181.86
 10
303.8
 20
181.7
 10
305.53
 20
181.09
 10
307.16
 20
180.15
 10
308.61
 20
178.92
 10
309.84
 20
177.47
 10
310.78
 20
175.84
 10
311.39
 20
174.11
 10
311.55
 20
173.22
 10
311.61
 20
172.32
 10
311.55
 20
171.42
 97
0
 75
1
 76
1
 98
0
  0
LWPOLYLINE
  5
6D
330
17
100
AcDbEntity
  8
FILL_RED_FF0000
370
0
420
16711680
100
AcDbPolyline
 90
40
 70
1
 10
311.55
 20
171.42
 10
311.39
 20
170.53
 10
310.78
 20
168.79
 10
309.84
 20
167.17
 10
308.61
 20
165.72
 10
307.16
 20
164.49
 10
305.53
 20
163.54
 10
303.8
 20
162.94
 10
302.91
 20
162.78
 10
302.01
 20
162.72
 10
301.11
 20
162.78
 10
300.22
 20
162.94
 10
298.48
 20
163.54
 10
296.86
 20
164.49
 10
295.41
 20
165.72
 10
294.18
 20
167.17
 10
293.23
 20
168.79
 10
292.63
 20
170.53
 10
292.47
 20
171.42
 10
292.41
 20
172.32
 10
292.47
 20
173.22
 10
292.63
 20
174.11
 10
293.23
 20
175.84
 10
294.18
 20
177.47
 10
295.41
 20
178.92
 10
296.86
 20
180.15
 10
298.48
 20
181.09
 10
300.22
 20
181.7
 10
301.11
 20
181.86
 10
302.01
 20
181.92
 10
302.91
 20
181.86
 10
303.8
 20
181.7
 10
305.53
 20
181.09
 10
307.16
 20
180.15
 10
308.61
 20
178.92
 10
309.84
 20
177.47
 10
310.78
 20
175.84
 10
311.39
 20
174.11
 10
311.55
 20
173.22
 10
311.61
 20
172.32
  0
HATCH
  5
6E
330
17
100
AcDbEntity
  8
FILL_RED_FF0000
 62
7
420
16711680
100
AcDbHatch
 10
0.0
 20
0.0
 30
0.0
210
0.0
220
0.0
230
1.0
  2
SOLID
 70
1
 71
0
 91
1
 92
3
 72
0
 73
1
 93
39
 10
329.45
 20
170.53
 10
328.97
 20
168.79
 10
328.22
 20
167.17
 10
327.21
 20
165.72
 10
325.98
 20
164.49
 10
324.55
 20
163.54
 10
322.95
 20
162.94
 10
322.1
 20
162.78
 10
321.21
 20
162.72
 10
320.11
 20
162.78
 10
319.07
 20
162.94
 10
318.1
 20
163.19
 10
317.18
 20
163.54
 10
315.54
 20
164.49
 10
314.16
 20
165.72
 10
313.07
 20
167.17
 10
312.27
 20
168.79
 10
311.78
 20
170.53
 10
311.61
 20
172.32
 10
311.78
 20
174.11
 10
312.27
 20
175.84
 10
313.07
 20
177.47
 10
314.16
 20
178.92
 10
315.54
 20
180.15
 10
317.18
 20
181.09
 10
318.1
 20
181.45
 10
319.07
 20
181.7
 10
320.11
 20
181.86
 10
321.21
 20
181.92
 10
322.1
 20
181.86
 10
322.95
 20
181.7
 10
324.55
 20
181.09
 10
325.98
 20
180.15
 10
327.21
 20
178.92
 10
328.22
 20
177.47
 10
328.97
 20
175.84
 10
329.45
 20
174.11
 10
329.61
 20
172.32
 10
329.45
 20
170.53
 97
0
 75
1
 76
1
 98
0
  0
LWPOLYLINE
  5
6F
330
17
100
AcDbEntity
  8
FILL_RED_FF0000
370
0
420
16711680
100
AcDbPolyline
 90
38
 70
1
 10
329.45
 20
170.53
 10
328.97
 20
168.79
 10
328.22
 20
167.17
 10
327.21
 20
165.72
 10
325.98
 20
164.49
 10
324.55
 20
163.54
 10
322.95
 20
162.94
 10
322.1
 20
162.78
 10
321.21
 20
162.72
 10
320.11
 20
162.78
 10
319.07
 20
162.94
 10
318.1
 20
163.19
 10
317.18
 20
163.54
 10
315.54
 20
164.49
 10
314.16
 20
165.72
 10
313.07
 20
167.17
 10
312.27
 20
168.79
 10
311.78
 20
170.53
 10
311.61
 20
172.32
 10
311.78
 20
174.11
 10
312.27
 20
175.84
 10
313.07
 20
177.47
 10
314.16
 20
178.92
 10
315.54
 20
180.15
 10
317.18
 20
181.09
 10
318.1
 20
181.45
 10
319.07
 20
181.7
 10
320.11
 20
181.86
 10
321.21
 20
181.92
 10
322.1
 20
181.86
 10
322.95
 20
181.7
 10
324.55
 20
181.09
 10
325.98
 20
180.15
 10
327.21
 20
178.92
 10
328.22
 20
177.47
 10
328.97
 20
175.84
 10
329.45
 20
174.11
 10
329.61
 20
172.32
  0
HATCH
  5
70
330
17
100
AcDbEntity
  8
FILL_RED_FF0000
 62
7
420
16711680
100
AcDbHatch
 10
0.0
 20
0.0
 30
0.0
210
0.0
220
0.0
230
1.0
  2
SOLID
 70
1
 71
0
 91
1
 92
3
 72
0
 73
1
 93
33
 10
329.45
 20
189.38
 10
328.97
 20
187.49
 10
328.22
 20
185.85
 10
327.21
 20
184.47
 10
325.98
 20
183.38
 10
324.55
 20
182.58
 10
322.95
 20
182.09
 10
321.21
 20
181.92
 10
319.07
 20
182.09
 10
317.18
 20
182.58
 10
315.54
 20
183.38
 10
314.16
 20
184.47
 10
313.07
 20
185.85
 10
312.27
 20
187.49
 10
311.78
 20
189.38
 10
311.61
 20
191.52
 10
311.78
 20
193.26
 10
312.27
 20
194.86
 10
313.07
 20
196.29
 10
314.16
 20
197.52
 10
315.54
 20
198.53
 10
317.18
 20
199.28
 10
319.07
 20
199.76
 10
321.21
 20
199.92
 10
322.95
 20
199.76
 10
324.55
 20
199.28
 10
325.98
 20
198.53
 10
327.21
 20
197.52
 10
328.22
 20
196.29
 10
328.97
 20
194.86
 10
329.45
 20
193.26
 10
329.61
 20
191.52
 10
329.45
 20
189.38
 97
0
 75
1
 76
1
 98
0
  0
LWPOLYLINE
  5
71
330
17
100
AcDbEntity
  8
FILL_RED_FF0000
370
0
420
16711680
100
AcDbPolyline
 90
32
 70
1
 10
329.45
 20
189.38
 10
328.97
 20
187.49
 10
328.22
 20
185.85
 10
327.21
 20
184.47
 10
325.98
 20
183.38
 10
324.55
 20
182.58
 10
322.95
 20
182.09
 10
321.21
 20
181.92
 10
319.07
 20
182.09
 10
317.18
 20
182.58
 10
315.54
 20
183.38
 10
314.16
 20
184.47
 10
313.07
 20
185.85
 10
312.27
 20
187.49
 10
311.78
 20
189.38
 10
311.61
 20
191.52
 10
311.78
 20
193.26
 10
312.27
 20
194.86
 10
313.07
 20
196.29
 10
314.16
 20
197.52
 10
315.54
 20
198.53
 10
317.18
 20
199.28
 10
319.07
 20
199.76
 10
321.21
 20
199.92
 10
322.95
 20
199.76
 10
324.55
 20
199.28
 10
325.98
 20
198.53
 10
327.21
 20
197.52
 10
328.22
 20
196.29
 10
328.97
 20
194.86
 10
329.45
 20
193.26
 10
329.61
 20
191.52
  0
HATCH
  5
72
330
17
100
AcDbEntity
  8
FILL_RED_FF0000
 62
7
420
16711680
100
AcDbHatch
 10
0.0
 20
0.0
 30
0.0
210
0.0
220
0.0
230
1.0
  2
SOLID
 70
1
 71
0
 91
1
 92
3
 72
0
 73
1
 93
39
 10
348.75
 20
190.42
 10
348.59
 20
189.38
 10
348.34
 20
188.41
 10
347.98
 20
187.49
 10
347.04
 20
185.85
 10
345.81
 20
184.47
 10
344.36
 20
183.38
 10
342.73
 20
182.58
 10
341.0
 20
182.09
 10
339.21
 20
181.92
 10
337.42
 20
182.09
 10
335.68
 20
182.58
 10
334.06
 20
183.38
 10
332.61
 20
184.47
 10
331.38
 20
185.85
 10
330.43
 20
187.49
 10
330.08
 20
188.41
 10
329.83
 20
189.38
 10
329.67
 20
190.42
 10
329.61
 20
191.52
 10
329.67
 20
192.41
 10
329.83
 20
193.26
 10
330.43
 20
194.86
 10
331.38
 20
196.29
 10
332.61
 20
197.52
 10
334.06
 20
198.53
 10
335.68
 20
199.28
 10
337.42
 20
199.76
 10
339.21
 20
199.92
 10
341.0
 20
199.76
 10
342.73
 20
199.28
 10
344.36
 20
198.53
 10
345.81
 20
197.52
 10
347.04
 20
196.29
 10
347.98
 20
194.86
 10
348.59
 20
193.26
 10
348.75
 20
192.41
 10
348.81
 20
191.52
 10
348.75
 20
190.42
 97
0
 75
1
 76
1
 98
0
  0
LWPOLYLINE
  5
73
330
17
100
AcDbEntity
  8
FILL_RED_FF0000
370
0
420
16711680
100
AcDbPolyline
 90
38
 70
1
 10
348.75
 20
190.42
 10
348.59
 20
189.38
 10
348.34
 20
188.41
 10
347.98
 20
187.49
 10
347.04
 20
185.85
 10
345.81
 20
184.47
 10
344.36
 20
183.38
 10
342.73
 20
182.58
 10
341.0
 20
182.09
 10
339.21
 20
181.92
 10
337.42
 20
182.09
 10
335.68
 20
182.58
 10
334.06
 20
183.38
 10
332.61
 20
184.47
 10
331.38
 20
185.85
 10
330.43
 20
187.49
 10
330.08
 20
188.41
 10
329.83
 20
189.38
 10
329.67
 20
190.42
 10
329.61
 20
191.52
 10
329.67
 20
192.41
 10
329.83
 20
193.26
 10
330.43
 20
194.86
 10
331.38
 20
196.29
 10
332.61
 20
197.52
 10
334.06
 20
198.53
 10
335.68
 20
199.28
 10
337.42
 20
199.76
 10
339.21
 20
199.92
 10
341.0
 20
199.76
 10
342.73
 20
199.28
 10
344.36
 20
198.53
 10
345.81
 20
197.52
 10
347.04
 20
196.29
 10
347.98
 20
194.86
 10
348.59
 20
193.26
 10
348.75
 20
192.41
 10
348.81
 20
191.52
  0
HATCH
  5
74
330
17
100
AcDbEntity
  8
FILL_RED_FF0000
 62
7
420
16711680
100
AcDbHatch
 10
0.0
 20
0.0
 30
0.0
210
0.0
220
0.0
230
1.0
  2
SOLID
 70
1
 71
0
 91
1
 92
3
 72
0
 73
1
 93
41
 10
348.75
 20
208.62
 10
348.59
 20
207.73
 10
347.98
 20
205.99
 10
347.04
 20
204.37
 10
345.81
 20
202.92
 10
344.36
 20
201.69
 10
342.73
 20
200.74
 10
341.0
 20
200.14
 10
340.11
 20
199.98
 10
339.21
 20
199.92
 10
338.31
 20
199.98
 10
337.42
 20
200.14
 10
335.68
 20
200.74
 10
334.06
 20
201.69
 10
332.61
 20
202.92
 10
331.38
 20
204.37
 10
330.43
 20
205.99
 10
329.83
 20
207.73
 10
329.67
 20
208.62
 10
329.61
 20
209.52
 10
329.67
 20
210.42
 10
329.83
 20
211.31
 10
330.43
 20
213.04
 10
331.38
 20
214.67
 10
332.61
 20
216.12
 10
334.06
 20
217.35
 10
335.68
 20
218.29
 10
337.42
 20
218.9
 10
338.31
 20
219.06
 10
339.21
 20
219.12
 10
340.11
 20
219.06
 10
341.0
 20
218.9
 10
342.73
 20
218.29
 10
344.36
 20
217.35
 10
345.81
 20
216.12
 10
347.04
 20
214.67
 10
347.98
 20
213.04
 10
348.59
 20
211.31
 10
348.75
 20
210.42
 10
348.81
 20
209.52
 10
348.75
 20
208.62
 97
0
 75
1
 76
1
 98
0
  0
LWPOLYLINE
  5
75
330
17
100
AcDbEntity
  8
FILL_RED_FF0000
370
0
420
16711680
100
AcDbPolyline
 90
40
 70
1
 10
348.75
 20
208.62
 10
348.59
 20
207.73
 10
347.98
 20
205.99
 10
347.04
 20
204.37
 10
345.81
 20
202.92
 10
344.36
 20
201.69
 10
342.73
 20
200.74
 10
341.0
 20
200.14
 10
340.11
 20
199.98
 10
339.21
 20
199.92
 10
338.31
 20
199.98
 10
337.42
 20
200.14
 10
335.68
 20
200.74
 10
334.06
 20
201.69
 10
332.61
 20
202.92
 10
331.38
 20
204.37
 10
330.43
 20
205.99
 10
329.83
 20
207.73
 10
329.67
 20
208.62
 10
329.61
 20
209.52
 10
329.67
 20
210.42
 10
329.83
 20
211.31
 10
330.43
 20
213.04
 10
331.38
 20
214.67
 10
332.61
 20
216.12
 10
334.06
 20
217.35
 10
335.68
 20
218.29
 10
337.42
 20
218.9
 10
338.31
 20
219.06
 10
339.21
 20
219.12
 10
340.11
 20
219.06
 10
341.0
 20
218.9
 10
342.73
 20
218.29
 10
344.36
 20
217.35
 10
345.81
 20
216.12
 10
347.04
 20
214.67
 10
347.98
 20
213.04
 10
348.59
 20
211.31
 10
348.75
 20
210.42
 10
348.81
 20
209.52
  0
HATCH
  5
76
330
17
100
AcDbEntity
  8
FILL_RED_FF0000
 62
7
420
16711680
100
AcDbHatch
 10
0.0
 20
0.0
 30
0.0
210
0.0
220
0.0
230
1.0
  2
SOLID
 70
1
 71
0
 91
1
 92
3
 72
0
 73
1
 93
39
 10
366.65
 20
207.73
 10
366.17
 20
205.99
 10
365.42
 20
204.37
 10
364.41
 20
202.92
 10
363.18
 20
201.69
 10
361.75
 20
200.74
 10
360.15
 20
200.14
 10
359.3
 20
199.98
 10
358.41
 20
199.92
 10
357.31
 20
199.98
 10
356.27
 20
200.14
 10
355.3
 20
200.39
 10
354.38
 20
200.74
 10
352.74
 20
201.69
 10
351.36
 20
202.92
 10
350.27
 20
204.37
 10
349.47
 20
205.99
 10
348.98
 20
207.73
 10
348.81
 20
209.52
 10
348.98
 20
211.31
 10
349.47
 20
213.04
 10
350.27
 20
214.67
 10
351.36
 20
216.12
 10
352.74
 20
217.35
 10
354.38
 20
218.29
 10
355.3
 20
218.65
 10
356.27
 20
218.9
 10
357.31
 20
219.06
 10
358.41
 20
219.12
 10
359.3
 20
219.06
 10
360.15
 20
218.9
 10
361.75
 20
218.29
 10
363.18
 20
217.35
 10
364.41
 20
216.12
 10
365.42
 20
214.67
 10
366.17
 20
213.04
 10
366.65
 20
211.31
 10
366.81
 20
209.52
 10
366.65
 20
207.73
 97
0
 75
1
 76
1
 98
0
  0
LWPOLYLINE
  5
77
330
17
100
AcDbEntity
  8
FILL_RED_FF0000
370
0
420
16711680
100
AcDbPolyline
 90
38
 70
1
 10
366.65
 20
207.73
 10
366.17
 20
205.99
 10
365.42
 20
204.37
 10
364.41
 20
202.92
 10
363.18
 20
201.69
 10
361.75
 20
200.74
 10
360.15
 20
200.14
 10
359.3
 20
199.98
 10
358.41
 20
199.92
 10
357.31
 20
199.98
 10
356.27
 20
200.14
 10
355.3
 20
200.39
 10
354.38
 20
200.74
 10
352.74
 20
201.69
 10
351.36
 20
202.92
 10
350.27
 20
204.37
 10
349.47
 20
205.99
 10
348.98
 20
207.73
 10
348.81
 20
209.52
 10
348.98
 20
211.31
 10
349.47
 20
213.04
 10
350.27
 20
214.67
 10
351.36
 20
216.12
 10
352.74
 20
217.35
 10
354.38
 20
218.29
 10
355.3
 20
218.65
 10
356.27
 20
218.9
 10
357.31
 20
219.06
 10
358.41
 20
219.12
 10
359.3
 20
219.06
 10
360.15
 20
218.9
 10
361.75
 20
218.29
 10
363.18
 20
217.35
 10
364.41
 20
216.12
 10
365.42
 20
214.67
 10
366.17
 20
213.04
 10
366.65
 20
211.31
 10
366.81
 20
209.52
  0
HATCH
  5
78
330
17
100
AcDbEntity
  8
FILL_RED_FF0000
 62
7
420
16711680
100
AcDbHatch
 10
0.0
 20
0.0
 30
0.0
210
0.0
220
0.0
230
1.0
  2
SOLID
 70
1
 71
0
 91
1
 92
3
 72
0
 73
1
 93
33
 10
366.65
 20
226.58
 10
366.17
 20
224.69
 10
365.42
 20
223.05
 10
364.41
 20
221.67
 10
363.18
 20
220.58
 10
361.75
 20
219.78
 10
360.15
 20
219.29
 10
358.41
 20
219.12
 10
356.27
 20
219.29
 10
354.38
 20
219.78
 10
352.74
 20
220.58
 10
351.36
 20
221.67
 10
350.27
 20
223.05
 10
349.47
 20
224.69
 10
348.98
 20
226.58
 10
348.81
 20
228.72
 10
348.98
 20
230.46
 10
349.47
 20
232.06
 10
350.27
 20
233.49
 10
351.36
 20
234.72
 10
352.74
 20
235.73
 10
354.38
 20
236.48
 10
356.27
 20
236.96
 10
358.41
 20
237.12
 10
360.15
 20
236.96
 10
361.75
 20
236.48
 10
363.18
 20
235.73
 10
364.41
 20
234.72
 10
365.42
 20
233.49
 10
366.17
 20
232.06
 10
366.65
 20
230.46
 10
366.81
 20
228.72
 10
366.65
 20
226.58
 97
0
 75
1
 76
1
 98
0
  0
LWPOLYLINE
  5
79
330
17
100
AcDbEntity
  8
FILL_RED_FF0000
370
0
420
16711680
100
AcDbPolyline
 90
32
 70
1
 10
366.65
 20
226.58
 10
366.17
 20
224.69
 10
365.42
 20
223.05
 10
364.41
 20
221.67
 10
363.18
 20
220.58
 10
361.75
 20
219.78
 10
360.15
 20
219.29
 10
358.41
 20
219.12
 10
356.27
 20
219.29
 10
354.38
 20
219.78
 10
352.74
 20
220.58
 10
351.36
 20
221.67
 10
350.27
 20
223.05
 10
349.47
 20
224.69
 10
348.98
 20
226.58
 10
348.81
 20
228.72
 10
348.98
 20
230.46
 10
349.47
 20
232.06
 10
350.27
 20
233.49
 10
351.36
 20
234.72
 10
352.74
 20
235.73
 10
354.38
 20
236.48
 10
356.27
 20
236.96
 10
358.41
 20
237.12
 10
360.15
 20
236.96
 10
361.75
 20
236.48
 10
363.18
 20
235.73
 10
364.41
 20
234.72
 10
365.42
 20
233.49
 10
366.17
 20
232.06
 10
366.65
 20
230.46
 10
366.81
 20
228.72
  0
HATCH
  5
7A
330
17
100
AcDbEntity
  8
FILL_RED_FF0000
 62
7
420
16711680
100
AcDbHatch
 10
0.0
 20
0.0
 30
0.0
210
0.0
220
0.0
230
1.0
  2
SOLID
 70
1
 71
0
 91
1
 92
3
 72
0
 73
1
 93
36
 10
385.84
 20
226.58
 10
385.35
 20
224.69
 10
384.55
 20
223.05
 10
383.46
 20
221.67
 10
382.08
 20
220.58
 10
380.44
 20
219.78
 10
378.55
 20
219.29
 10
376.41
 20
219.12
 10
374.62
 20
219.29
 10
372.88
 20
219.78
 10
371.26
 20
220.58
 10
369.81
 20
221.67
 10
368.58
 20
223.05
 10
367.63
 20
224.69
 10
367.28
 20
225.61
 10
367.03
 20
226.58
 10
366.87
 20
227.62
 10
366.81
 20
228.72
 10
366.87
 20
229.61
 10
367.03
 20
230.46
 10
367.63
 20
232.06
 10
368.58
 20
233.49
 10
369.81
 20
234.72
 10
371.26
 20
235.73
 10
372.88
 20
236.48
 10
374.62
 20
236.96
 10
376.41
 20
237.12
 10
378.55
 20
236.96
 10
380.44
 20
236.48
 10
382.08
 20
235.73
 10
383.46
 20
234.72
 10
384.55
 20
233.49
 10
385.35
 20
232.06
 10
385.84
 20
230.46
 10
386.01
 20
228.72
 10
385.84
 20
226.58
 97
0
 75
1
 76
1
 98
0
  0
LWPOLYLINE
  5
7B
330
17
100
AcDbEntity
  8
FILL_RED_FF0000
370
0
420
16711680
100
AcDbPolyline
 90
35
 70
1
 10
385.84
 20
226.58
 10
385.35
 20
224.69
 10
384.55
 20
223.05
 10
383.46
 20
221.67
 10
382.08
 20
220.58
 10
380.44
 20
219.78
 10
378.55
 20
219.29
 10
376.41
 20
219.12
 10
374.62
 20
219.29
 10
372.88
 20
219.78
 10
371.26
 20
220.58
 10
369.81
 20
221.67
 10
368.58
 20
223.05
 10
367.63
 20
224.69
 10
367.28
 20
225.61
 10
367.03
 20
226.58
 10
366.87
 20
227.62
 10
366.81
 20
228.72
 10
366.87
 20
229.61
 10
367.03
 20
230.46
 10
367.63
 20
232.06
 10
368.58
 20
233.49
 10
369.81
 20
234.72
 10
371.26
 20
235.73
 10
372.88
 20
236.48
 10
374.62
 20
236.96
 10
376.41
 20
237.12
 10
378.55
 20
236.96
 10
380.44
 20
236.48
 10
382.08
 20
235.73
 10
383.46
 20
234.72
 10
384.55
 20
233.49
 10
385.35
 20
232.06
 10
385.84
 20
230.46
 10
386.01
 20
228.72
  0
HATCH
  5
7C
330
17
100
AcDbEntity
  8
FILL_RED_FF0000
 62
7
420
16711680
100
AcDbHatch
 10
0.0
 20
0.0
 30
0.0
210
0.0
220
0.0
230
1.0
  2
SOLID
 70
1
 71
0
 91
1
 92
3
 72
0
 73
1
 93
41
 10
385.84
 20
58.93
 10
385.35
 20
57.19
 10
384.55
 20
55.57
 10
383.46
 20
54.12
 10
382.08
 20
52.89
 10
380.44
 20
51.94
 10
379.52
 20
51.59
 10
378.55
 20
51.34
 10
377.51
 20
51.18
 10
376.41
 20
51.12
 10
375.51
 20
51.18
 10
374.62
 20
51.34
 10
372.88
 20
51.94
 10
371.26
 20
52.89
 10
369.81
 20
54.12
 10
368.58
 20
55.57
 10
367.63
 20
57.19
 10
367.03
 20
58.93
 10
366.87
 20
59.82
 10
366.81
 20
60.72
 10
366.87
 20
61.62
 10
367.03
 20
62.51
 10
367.63
 20
64.24
 10
368.58
 20
65.87
 10
369.81
 20
67.32
 10
371.26
 20
68.55
 10
372.88
 20
69.49
 10
374.62
 20
70.1
 10
375.51
 20
70.26
 10
376.41
 20
70.32
 10
377.51
 20
70.26
 10
378.55
 20
70.1
 10
379.52
 20
69.85
 10
380.44
 20
69.49
 10
382.08
 20
68.55
 10
383.46
 20
67.32
 10
384.55
 20
65.87
 10
385.35
 20
64.24
 10
385.84
 20
62.51
 10
386.01
 20
60.72
 10
385.84
 20
58.93
 97
0
 75
1
 76
1
 98
0
  0
LWPOLYLINE
  5
7D
330
17
100
AcDbEntity
  8
FILL_RED_FF0000
370
0
420
16711680
100
AcDbPolyline
 90
40
 70
1
 10
385.84
 20
58.93
 10
385.35
 20
57.19
 10
384.55
 20
55.57
 10
383.46
 20
54.12
 10
382.08
 20
52.89
 10
380.44
 20
51.94
 10
379.52
 20
51.59
 10
378.55
 20
51.34
 10
377.51
 20
51.18
 10
376.41
 20
51.12
 10
375.51
 20
51.18
 10
374.62
 20
51.34
 10
372.88
 20
51.94
 10
371.26
 20
52.89
 10
369.81
 20
54.12
 10
368.58
 20
55.57
 10
367.63
 20
57.19
 10
367.03
 20
58.93
 10
366.87
 20
59.82
 10
366.81
 20
60.72
 10
366.87
 20
61.62
 10
367.03
 20
62.51
 10
367.63
 20
64.24
 10
368.58
 20
65.87
 10
369.81
 20
67.32
 10
371.26
 20
68.55
 10
372.88
 20
69.49
 10
374.62
 20
70.1
 10
375.51
 20
70.26
 10
376.41
 20
70.32
 10
377.51
 20
70.26
 10
378.55
 20
70.1
 10
379.52
 20
69.85
 10
380.44
 20
69.49
 10
382.08
 20
68.55
 10
383.46
 20
67.32
 10
384.55
 20
65.87
 10
385.35
 20
64.24
 10
385.84
 20
62.51
 10
386.01
 20
60.72
  0
LWPOLYLINE
  5
7F
330
17
100
AcDbEntity
  8
STROKE_BLACK_000000
370
0
420
0
100
AcDbPolyline
 90
69
 70
0
 10
405.2099999999996
 20
256.31999999999925
 10
406.99417968749964
 20
256.22302734374927
 10
408.73968749999966
 20
255.93796874999924
 10
410.4359765624997
 20
255.47361328124924
 10
412.07249999999976
 20
254.83874999999924
 10
413.6387109374997
 20
254.04216796874925
 10
415.12406249999975
 20
253.09265624999924
 10
416.51800781249966
 20
251.99900390624924
 10
417.8099999999997
 20
250.76999999999924
 10
418.98949218749965
 20
249.41443359374924
 10
420.0459374999997
 20
247.94109374999925
 10
420.9687890624997
 20
246.35876953124927
 10
421.7474999999996
 20
244.6762499999993
 10
422.37152343749966
 20
242.90232421874933
 10
422.8303124999996
 20
241.04578124999935
 10
423.1133203124996
 20
239.1154101562494
 10
423.2099999999996
 20
237.11999999999944
 10
423.2099999999996
 20
33.119999999999436
 10
423.1133203124996
 20
31.124589843749447
 10
422.8303124999996
 20
29.194218749999465
 10
422.3715234374996
 20
27.337675781249487
 10
421.7474999999996
 20
25.563749999999487
 10
420.9687890624997
 20
23.881230468749493
 10
420.0459374999997
 20
22.298906249999504
 10
418.98949218749965
 20
20.825566406249493
 10
417.8099999999997
 20
19.469999999999544
 10
416.51800781249966
 20
18.240996093749573
 10
415.12406249999975
 20
17.14734374999955
 10
413.6387109374997
 20
16.197832031249618
 10
412.07249999999976
 20
15.401249999999635
 10
410.4359765624997
 20
14.766386718749573
 10
408.7396874999997
 20
14.302031249999601
 10
406.99417968749964
 20
14.016972656249607
 10
405.2099999999996
 20
13.919999999999618
 10
162.80999999999995
 20
13.919999999999618
 10
160.81458984374981
 20
14.016972656249607
 10
158.88421874999975
 20
14.30203124999963
 10
157.02767578124968
 20
14.766386718749573
 10
155.25374999999963
 20
15.401249999999635
 10
153.5712304687496
 20
16.197832031249618
 10
151.9889062499996
 20
17.14734374999955
 10
150.51556640624958
 20
18.240996093749573
 10
149.15999999999957
 20
19.469999999999544
 10
147.93099609374957
 20
20.825566406249493
 10
146.83734374999958
 20
22.298906249999504
 10
145.88783203124962
 20
23.881230468749493
 10
145.0912499999996
 20
25.563749999999487
 10
144.45638671874963
 20
27.337675781249487
 10
143.99203124999966
 20
29.194218749999465
 10
143.70697265624966
 20
31.124589843749447
 10
143.60999999999967
 20
33.119999999999436
 10
143.60999999999967
 20
237.11999999999944
 10
143.7069726562497
 20
239.1154101562494
 10
143.99203124999966
 20
241.04578124999935
 10
144.45638671874966
 20
242.9023242187493
 10
145.09124999999963
 20
244.6762499999993
 10
145.88783203124962
 20
246.35876953124927
 10
146.83734374999958
 20
247.94109374999925
 10
147.93099609374957
 20
249.41443359374924
 10
149.15999999999957
 20
250.76999999999924
 10
150.51556640624958
 20
251.99900390624924
 10
151.9889062499996
 20
253.09265624999924
 10
153.5712304687496
 20
254.04216796874925
 10
155.25374999999963
 20
254.83874999999924
 10
157.02767578124968
 20
255.47361328124924
 10
158.88421874999975
 20
255.93796874999924
 10
160.81458984374981
 20
256.22302734374927
 10
162.80999999999995
 20
256.31999999999925
 10
405.2099999999996
 20
256.31999999999925
  0
ENDSEC
  0
SECTION
  2
OBJECTS
  0
DICTIONARY
  5
A
330
0
100
AcDbDictionary
281
1
  3
ACAD_COLOR
350
B
  3
ACAD_GROUP
350
C
  3
ACAD_LAYOUT
350
D
  3
ACAD_MATERIAL
350
E
  3
ACAD_MLEADERSTYLE
350
F
  3
ACAD_MLINESTYLE
350
10
  3
ACAD_PLOTSETTINGS
350
11
  3
ACAD_PLOTSTYLENAME
350
12
  3
ACAD_SCALELIST
350
14
  3
ACAD_TABLESTYLE
350
15
  3
ACAD_VISUALSTYLE
350
16
  3
EZDXF_META
350
2D
  0
DICTIONARY
  5
B
330
A
100
AcDbDictionary
281
1
  0
DICTIONARY
  5
C
330
A
100
AcDbDictionary
281
1
  0
DICTIONARY
  5
D
330
A
100
AcDbDictionary
281
1
  3
Model
350
1A
  3
Layout1
350
1E
  0
DICTIONARY
  5
E
330
A
100
AcDbDictionary
281
1
  3
ByBlock
350
1F
  3
ByLayer
350
20
  3
Global
350
21
  0
DICTIONARY
  5
F
330
A
100
AcDbDictionary
281
1
  3
Standard
350
2C
  0
DICTIONARY
  5
10
330
A
100
AcDbDictionary
281
1
  3
Standard
350
22
  0
DICTIONARY
  5
11
330
A
100
AcDbDictionary
281
1
  0
ACDBDICTIONARYWDFLT
  5
12
330
A
100
AcDbDictionary
281
1
  3
Normal
350
13
100
AcDbDictionaryWithDefault
340
13
  0
ACDBPLACEHOLDER
  5
13
330
12
  0
DICTIONARY
  5
14
330
A
100
AcDbDictionary
281
1
  0
DICTIONARY
  5
15
330
A
100
AcDbDictionary
281
1
  0
DICTIONARY
  5
16
330
A
100
AcDbDictionary
281
1
  0
LAYOUT
  5
1A
330
D
100
AcDbPlotSettings
  1

  4
A3
  6

 40
7.5
 41
20.0
 42
7.5
 43
20.0
 44
420.0
 45
297.0
 46
0.0
 47
0.0
 48
0.0
 49
0.0
140
0.0
141
0.0
142
1.0
143
1.0
 70
1024
 72
1
 73
0
 74
5
  7

 75
16
 76
0
 77
2
 78
300
147
1.0
148
0.0
149
0.0
100
AcDbLayout
  1
Model
 70
1
 71
0
 10
0.0
 20
0.0
 11
420.0
 21
297.0
 12
0.0
 22
0.0
 32
0.0
 14
1e+20
 24
1e+20
 34
1e+20
 15
-1e+20
 25
-1e+20
 35
-1e+20
146
0.0
 13
0.0
 23
0.0
 33
0.0
 16
1.0
 26
0.0
 36
0.0
 17
0.0
 27
1.0
 37
0.0
 76
1
330
17
  0
LAYOUT
  5
1E
330
D
100
AcDbPlotSettings
  1

  4
A3
  6

 40
7.5
 41
20.0
 42
7.5
 43
20.0
 44
420.0
 45
297.0
 46
0.0
 47
0.0
 48
0.0
 49
0.0
140
0.0
141
0.0
142
1.0
143
1.0
 70
0
 72
1
 73
0
 74
5
  7

 75
16
 76
0
 77
2
 78
300
147
1.0
148
0.0
149
0.0
100
AcDbLayout
  1
Layout1
 70
1
 71
1
 10
0.0
 20
0.0
 11
420.0
 21
297.0
 12
0.0
 22
0.0
 32
0.0
 14
1e+20
 24
1e+20
 34
1e+20
 15
-1e+20
 25
-1e+20
 35
-1e+20
146
0.0
 13
0.0
 23
0.0
 33
0.0
 16
1.0
 26
0.0
 36
0.0
 17
0.0
 27
1.0
 37
0.0
 76
1
330
1B
  0
MATERIAL
  5
1F
102
{ACAD_REACTORS
330
E
102
}
330
E
100
AcDbMaterial
  1
ByBlock
  2

 70
0
 40
1.0
 71
1
 41
1.0
 91
-1023410177
 42
1.0
 72
1
  3

 73
1
 74
1
 75
1
 44
0.5
 73
0
 45
1.0
 46
1.0
 77
1
  4

 78
1
 79
1
170
1
 48
1.0
171
1
  6

172
1
173
1
174
1
140
1.0
141
1.0
175
1
  7

176
1
177
1
178
1
143
1.0
179
1
  8

270
1
271
1
272
1
145
1.0
146
1.0
273
1
  9

274
1
275
1
276
1
 42
1.0
 72
1
  3

 73
1
 74
1
 75
1
 94
63
  0
MATERIAL
  5
20
102
{ACAD_REACTORS
330
E
102
}
330
E
100
AcDbMaterial
  1
ByLayer
  2

 70
0
 40
1.0
 71
1
 41
1.0
 91
-1023410177
 42
1.0
 72
1
  3

 73
1
 74
1
 75
1
 44
0.5
 73
0
 45
1.0
 46
1.0
 77
1
  4

 78
1
 79
1
170
1
 48
1.0
171
1
  6

172
1
173
1
174
1
140
1.0
141
1.0
175
1
  7

176
1
177
1
178
1
143
1.0
179
1
  8

270
1
271
1
272
1
145
1.0
146
1.0
273
1
  9

274
1
275
1
276
1
 42
1.0
 72
1
  3

 73
1
 74
1
 75
1
 94
63
  0
MATERIAL
  5
21
102
{ACAD_REACTORS
330
E
102
}
330
E
100
AcDbMaterial
  1
Global
  2

 70
0
 40
1.0
 71
1
 41
1.0
 91
-1023410177
 42
1.0
 72
1
  3

 73
1
 74
1
 75
1
 44
0.5
 73
0
 45
1.0
 46
1.0
 77
1
  4

 78
1
 79
1
170
1
 48
1.0
171
1
  6

172
1
173
1
174
1
140
1.0
141
1.0
175
1
  7

176
1
177
1
178
1
143
1.0
179
1
  8

270
1
271
1
272
1
145
1.0
146
1.0
273
1
  9

274
1
275
1
276
1
 42
1.0
 72
1
  3

 73
1
 74
1
 75
1
 94
63
  0
MLINESTYLE
  5
22
102
{ACAD_REACTORS
330
10
102
}
330
10
100
AcDbMlineStyle
  2
Standard
 70
0
  3

 62
256
 51
90.0
 52
90.0
 71
2
 49
0.5
 62
256
  6
BYLAYER
 49
-0.5
 62
256
  6
BYLAYER
  0
MLEADERSTYLE
  5
2C
102
{ACAD_REACTORS
330
F
102
}
330
F
100
AcDbMLeaderStyle
179
2
170
2
171
1
172
0
 90
2
 40
0.0
 41
0.0
173
1
 91
-1056964608
 92
-2
290
1
 42
2.0
291
1
 43
8.0
  3
Standard
 44
4.0
300

342
29
174
1
175
1
176
0
178
1
 93
-1056964608
 45
4.0
292
0
297
0
 46
4.0
 94
-1056964608
 47
1.0
 49
1.0
140
1.0
294
1
141
0.0
177
0
142
1.0
295
0
296
0
143
3.75
271
0
272
9
273
9
  0
DICTIONARY
  5
2D
330
A
100
AcDbDictionary
280
1
281
1
  3
CREATED_BY_EZDXF
350
2E
  3
WRITTEN_BY_EZDXF
350
82
  0
DICTIONARYVAR
  5
2E
330
2D
100
DictionaryVariables
280
0
  1
1.4.4 @ 2026-07-10T01:53:52.564295+00:00
  0
DICTIONARYVAR
  5
82
330
2D
100
DictionaryVariables
280
0
  1
1.4.4 @ 2026-07-10T01:53:52.572750+00:00
  0
ENDSEC
  0
EOF
