  0
SECTION
  2
HEADER
  9
$ACADVER
  1
AC1024
  9
$ACADMAINTVER
 70
6
  9
$DWGCODEPAGE
  3
ANSI_1252
  9
$LASTSAVEDBY
  1
ezdxf
  9
$INSBASE
 10
0.0
 20
0.0
 30
0.0
  9
$EXTMIN
 10
1e+20
 20
1e+20
 30
1e+20
  9
$EXTMAX
 10
-1e+20
 20
-1e+20
 30
-1e+20
  9
$LIMMIN
 10
0.0
 20
0.0
  9
$LIMMAX
 10
420.0
 20
297.0
  9
$ORTHOMODE
 70
0
  9
$REGENMODE
 70
1
  9
$FILLMODE
 70
1
  9
$QTEXTMODE
 70
0
  9
$MIRRTEXT
 70
1
  9
$LTSCALE
 40
1.0
  9
$ATTMODE
 70
1
  9
$TEXTSIZE
 40
2.5
  9
$TRACEWID
 40
1.0
  9
$TEXTSTYLE
  7
Standard
  9
$CLAYER
  8
0
  9
$CELTYPE
  6
ByLayer
  9
$CECOLOR
 62
256
  9
$CELTSCALE
 40
1.0
  9
$DISPSILH
 70
0
  9
$DIMSCALE
 40
1.0
  9
$DIMASZ
 40
2.5
  9
$DIMEXO
 40
0.625
  9
$DIMDLI
 40
3.75
  9
$DIMRND
 40
0.0
  9
$DIMDLE
 40
0.0
  9
$DIMEXE
 40
1.25
  9
$DIMTP
 40
0.0
  9
$DIMTM
 40
0.0
  9
$DIMTXT
 40
2.5
  9
$DIMCEN
 40
2.5
  9
$DIMTSZ
 40
0.0
  9
$DIMTOL
 70
0
  9
$DIMLIM
 70
0
  9
$DIMTIH
 70
0
  9
$DIMTOH
 70
0
  9
$DIMSE1
 70
0
  9
$DIMSE2
 70
0
  9
$DIMTAD
 70
1
  9
$DIMZIN
 70
8
  9
$DIMBLK
  1

  9
$DIMASO
 70
1
  9
$DIMSHO
 70
1
  9
$DIMPOST
  1

  9
$DIMAPOST
  1

  9
$DIMALT
 70
0
  9
$DIMALTD
 70
3
  9
$DIMALTF
 40
0.03937007874
  9
$DIMLFAC
 40
1.0
  9
$DIMTOFL
 70
1
  9
$DIMTVP
 40
0.0
  9
$DIMTIX
 70
0
  9
$DIMSOXD
 70
0
  9
$DIMSAH
 70
0
  9
$DIMBLK1
  1

  9
$DIMBLK2
  1

  9
$DIMSTYLE
  2
ISO-25
  9
$DIMCLRD
 70
0
  9
$DIMCLRE
 70
0
  9
$DIMCLRT
 70
0
  9
$DIMTFAC
 40
1.0
  9
$DIMGAP
 40
0.625
  9
$DIMJUST
 70
0
  9
$DIMSD1
 70
0
  9
$DIMSD2
 70
0
  9
$DIMTOLJ
 70
0
  9
$DIMTZIN
 70
8
  9
$DIMALTZ
 70
0
  9
$DIMALTTZ
 70
0
  9
$DIMUPT
 70
0
  9
$DIMDEC
 70
2
  9
$DIMTDEC
 70
2
  9
$DIMALTU
 70
2
  9
$DIMALTTD
 70
3
  9
$DIMTXSTY
  7
Standard
  9
$DIMAUNIT
 70
0
  9
$DIMADEC
 70
0
  9
$DIMALTRND
 40
0.0
  9
$DIMAZIN
 70
0
  9
$DIMDSEP
 70
44
  9
$DIMATFIT
 70
3
  9
$DIMFRAC
 70
0
  9
$DIMLDRBLK
  1

  9
$DIMLUNIT
 70
2
  9
$DIMLWD
 70
-2
  9
$DIMLWE
 70
-2
  9
$DIMTMOVE
 70
0
  9
$DIMFXL
 40
1.0
  9
$DIMFXLON
 70
0
  9
$DIMJOGANG
 40
0.785398163397
  9
$DIMTFILL
 70
0
  9
$DIMTFILLCLR
 70
0
  9
$DIMARCSYM
 70
0
  9
$DIMLTYPE
  6

  9
$DIMLTEX1
  6

  9
$DIMLTEX2
  6

  9
$DIMTXTDIRECTION
 70
0
  9
$LUNITS
 70
2
  9
$LUPREC
 70
4
  9
$SKETCHINC
 40
1.0
  9
$FILLETRAD
 40
10.0
  9
$AUNITS
 70
0
  9
$AUPREC
 70
2
  9
$MENU
  1
.
  9
$ELEVATION
 40
0.0
  9
$PELEVATION
 40
0.0
  9
$THICKNESS
 40
0.0
  9
$LIMCHECK
 70
0
  9
$CHAMFERA
 40
0.0
  9
$CHAMFERB
 40
0.0
  9
$CHAMFERC
 40
0.0
  9
$CHAMFERD
 40
0.0
  9
$SKPOLY
 70
0
  9
$TDCREATE
 40
2461232.4122337964
  9
$TDUCREATE
 40
2458532.153996898
  9
$TDUPDATE
 40
2461232.4122337964
  9
$TDUUPDATE
 40
2458532.1544311
  9
$TDINDWG
 40
0.0
  9
$TDUSRTIMER
 40
0.0
  9
$USRTIMER
 70
1
  9
$ANGBASE
 50
0.0
  9
$ANGDIR
 70
0
  9
$PDMODE
 70
0
  9
$PDSIZE
 40
0.0
  9
$PLINEWID
 40
0.0
  9
$SPLFRAME
 70
0
  9
$SPLINETYPE
 70
6
  9
$SPLINESEGS
 70
8
  9
$HANDSEED
  5
99
  9
$SURFTAB1
 70
6
  9
$SURFTAB2
 70
6
  9
$SURFTYPE
 70
6
  9
$SURFU
 70
6
  9
$SURFV
 70
6
  9
$UCSBASE
  2

  9
$UCSNAME
  2

  9
$UCSORG
 10
0.0
 20
0.0
 30
0.0
  9
$UCSXDIR
 10
1.0
 20
0.0
 30
0.0
  9
$UCSYDIR
 10
0.0
 20
1.0
 30
0.0
  9
$UCSORTHOREF
  2

  9
$UCSORTHOVIEW
 70
0
  9
$UCSORGTOP
 10
0.0
 20
0.0
 30
0.0
  9
$UCSORGBOTTOM
 10
0.0
 20
0.0
 30
0.0
  9
$UCSORGLEFT
 10
0.0
 20
0.0
 30
0.0
  9
$UCSORGRIGHT
 10
0.0
 20
0.0
 30
0.0
  9
$UCSORGFRONT
 10
0.0
 20
0.0
 30
0.0
  9
$UCSORGBACK
 10
0.0
 20
0.0
 30
0.0
  9
$PUCSBASE
  2

  9
$PUCSNAME
  2

  9
$PUCSORG
 10
0.0
 20
0.0
 30
0.0
  9
$PUCSXDIR
 10
1.0
 20
0.0
 30
0.0
  9
$PUCSYDIR
 10
0.0
 20
1.0
 30
0.0
  9
$PUCSORTHOREF
  2

  9
$PUCSORTHOVIEW
 70
0
  9
$PUCSORGTOP
 10
0.0
 20
0.0
 30
0.0
  9
$PUCSORGBOTTOM
 10
0.0
 20
0.0
 30
0.0
  9
$PUCSORGLEFT
 10
0.0
 20
0.0
 30
0.0
  9
$PUCSORGRIGHT
 10
0.0
 20
0.0
 30
0.0
  9
$PUCSORGFRONT
 10
0.0
 20
0.0
 30
0.0
  9
$PUCSORGBACK
 10
0.0
 20
0.0
 30
0.0
  9
$USERI1
 70
0
  9
$USERI2
 70
0
  9
$USERI3
 70
0
  9
$USERI4
 70
0
  9
$USERI5
 70
0
  9
$USERR1
 40
0.0
  9
$USERR2
 40
0.0
  9
$USERR3
 40
0.0
  9
$USERR4
 40
0.0
  9
$USERR5
 40
0.0
  9
$WORLDVIEW
 70
1
  9
$SHADEDGE
 70
3
  9
$SHADEDIF
 70
70
  9
$TILEMODE
 70
1
  9
$MAXACTVP
 70
64
  9
$PINSBASE
 10
0.0
 20
0.0
 30
0.0
  9
$PLIMCHECK
 70
0
  9
$PEXTMIN
 10
1e+20
 20
1e+20
 30
1e+20
  9
$PEXTMAX
 10
-1e+20
 20
-1e+20
 30
-1e+20
  9
$PLIMMIN
 10
0.0
 20
0.0
  9
$PLIMMAX
 10
420.0
 20
297.0
  9
$UNITMODE
 70
0
  9
$VISRETAIN
 70
1
  9
$PLINEGEN
 70
0
  9
$PSLTSCALE
 70
1
  9
$TREEDEPTH
 70
3020
  9
$CMLSTYLE
  2
Standard
  9
$CMLJUST
 70
0
  9
$CMLSCALE
 40
20.0
  9
$PROXYGRAPHICS
 70
1
  9
$MEASUREMENT
 70
1
  9
$CELWEIGHT
370
-1
  9
$ENDCAPS
280
0
  9
$JOINSTYLE
280
0
  9
$LWDISPLAY
290
0
  9
$INSUNITS
 70
6
  9
$HYPERLINKBASE
  1

  9
$STYLESHEET
  1

  9
$XEDIT
290
1
  9
$CEPSNTYPE
380
0
  9
$PSTYLEMODE
290
1
  9
$FINGERPRINTGUID
  2
{483EBBBF-9034-4594-A9FA-61BAB51BB8B0}
  9
$VERSIONGUID
  2
{4D74FBAC-7FFB-4CDC-BAF6-194E8B05BFC4}
  9
$EXTNAMES
290
1
  9
$PSVPSCALE
 40
0.0
  9
$OLESTARTUP
290
0
  9
$SORTENTS
280
127
  9
$INDEXCTL
280
0
  9
$HIDETEXT
280
1
  9
$XCLIPFRAME
280
1
  9
$HALOGAP
280
0
  9
$OBSCOLOR
 70
257
  9
$OBSLTYPE
280
0
  9
$INTERSECTIONDISPLAY
280
0
  9
$INTERSECTIONCOLOR
 70
257
  9
$DIMASSOC
280
2
  9
$PROJECTNAME
  1

  9
$CAMERADISPLAY
290
0
  9
$LENSLENGTH
 40
50.0
  9
$CAMERAHEIGHT
 40
0.0
  9
$STEPSPERSEC
 40
24.0
  9
$STEPSIZE
 40
100.0
  9
$3DDWFPREC
 40
2.0
  9
$PSOLWIDTH
 40
0.005
  9
$PSOLHEIGHT
 40
0.08
  9
$LOFTANG1
 40
1.570796326795
  9
$LOFTANG2
 40
1.570796326795
  9
$LOFTMAG1
 40
0.0
  9
$LOFTMAG2
 40
0.0
  9
$LOFTPARAM
 70
7
  9
$LOFTNORMALS
280
1
  9
$LATITUDE
 40
37.795
  9
$LONGITUDE
 40
-122.394
  9
$NORTHDIRECTION
 40
0.0
  9
$TIMEZONE
 70
-8000
  9
$LIGHTGLYPHDISPLAY
280
1
  9
$TILEMODELIGHTSYNCH
280
1
  9
$CMATERIAL
347
20
  9
$SOLIDHIST
280
0
  9
$SHOWHIST
280
1
  9
$DWFFRAME
280
2
  9
$DGNFRAME
280
2
  9
$REALWORLDSCALE
290
1
  9
$INTERFERECOLOR
 62
256
  9
$CSHADOW
280
0
  9
$SHADOWPLANELOCATION
 40
0.0
  0
ENDSEC
  0
SECTION
  2
CLASSES
  0
CLASS
  1
ACDBDICTIONARYWDFLT
  2
AcDbDictionaryWithDefault
  3
ObjectDBX Classes
 90
0
 91
0
280
0
281
0
  0
CLASS
  1
SUN
  2
AcDbSun
  3
SCENEOE
 90
1153
 91
0
280
0
281
0
  0
CLASS
  1
VISUALSTYLE
  2
AcDbVisualStyle
  3
ObjectDBX Classes
 90
4095
 91
0
280
0
281
0
  0
CLASS
  1
MATERIAL
  2
AcDbMaterial
  3
ObjectDBX Classes
 90
1153
 91
0
280
0
281
0
  0
CLASS
  1
SCALE
  2
AcDbScale
  3
ObjectDBX Classes
 90
1153
 91
0
280
0
281
0
  0
CLASS
  1
TABLESTYLE
  2
AcDbTableStyle
  3
ObjectDBX Classes
 90
4095
 91
0
280
0
281
0
  0
CLASS
  1
MLEADERSTYLE
  2
AcDbMLeaderStyle
  3
ACDB_MLEADERSTYLE_CLASS
 90
4095
 91
0
280
0
281
0
  0
CLASS
  1
DICTIONARYVAR
  2
AcDbDictionaryVar
  3
ObjectDBX Classes
 90
0
 91
0
280
0
281
0
  0
CLASS
  1
CELLSTYLEMAP
  2
AcDbCellStyleMap
  3
ObjectDBX Classes
 90
1152
 91
0
280
0
281
0
  0
CLASS
  1
MENTALRAYRENDERSETTINGS
  2
AcDbMentalRayRenderSettings
  3
SCENEOE
 90
1024
 91
0
280
0
281
0
  0
CLASS
  1
ACDBDETAILVIEWSTYLE
  2
AcDbDetailViewStyle
  3
ObjectDBX Classes
 90
1025
 91
0
280
0
281
0
  0
CLASS
  1
ACDBSECTIONVIEWSTYLE
  2
AcDbSectionViewStyle
  3
ObjectDBX Classes
 90
1025
 91
0
280
0
281
0
  0
CLASS
  1
RASTERVARIABLES
  2
AcDbRasterVariables
  3
ISM
 90
0
 91
0
280
0
281
0
  0
CLASS
  1
LAYOUT
  2
AcDbLayout
  3
ObjectDBX Classes
 90
0
 91
0
280
0
281
0
  0
CLASS
  1
ACDBPLACEHOLDER
  2
AcDbPlaceHolder
  3
ObjectDBX Classes
 90
0
 91
0
280
0
281
0
  0
ENDSEC
  0
SECTION
  2
TABLES
  0
TABLE
  2
VPORT
  5
8
330
0
100
AcDbSymbolTable
 70
1
  0
VPORT
  5
23
330
8
100
AcDbSymbolTableRecord
100
AcDbViewportTableRecord
  2
*Active
 70
0
 10
0.0
 20
0.0
 11
1.0
 21
1.0
 12
0.0
 22
0.0
 13
0.0
 23
0.0
 14
0.5
 24
0.5
 15
0.5
 25
0.5
 16
0.0
 26
0.0
 36
1.0
 17
0.0
 27
0.0
 37
0.0
 40
1000.0
 41
1.34
 42
50.0
 43
0.0
 44
0.0
 50
0.0
 51
0.0
 71
0
 72
1000
 73
1
 74
3
 75
0
 76
0
 77
0
 78
0
281
0
 65
0
146
0.0
  0
ENDTAB
  0
TABLE
  2
LTYPE
  5
2
330
0
100
AcDbSymbolTable
 70
3
  0
LTYPE
  5
24
330
2
100
AcDbSymbolTableRecord
100
AcDbLinetypeTableRecord
  2
ByBlock
 70
0
  3

 72
65
 73
0
 40
0.0
  0
LTYPE
  5
25
330
2
100
AcDbSymbolTableRecord
100
AcDbLinetypeTableRecord
  2
ByLayer
 70
0
  3

 72
65
 73
0
 40
0.0
  0
LTYPE
  5
26
330
2
100
AcDbSymbolTableRecord
100
AcDbLinetypeTableRecord
  2
Continuous
 70
0
  3

 72
65
 73
0
 40
0.0
  0
ENDTAB
  0
TABLE
  2
LAYER
  5
1
330
0
100
AcDbSymbolTable
 70
6
  0
LAYER
  5
27
330
1
100
AcDbSymbolTableRecord
100
AcDbLayerTableRecord
  2
0
 70
0
 62
7
  6
Continuous
370
-3
390
13
347
21
  0
LAYER
  5
28
330
1
100
AcDbSymbolTableRecord
100
AcDbLayerTableRecord
  2
Defpoints
 70
0
 62
7
  6
Continuous
290
0
370
-3
390
13
347
21
  0
LAYER
  5
2F
330
1
100
AcDbSymbolTableRecord
100
AcDbLayerTableRecord
  2
FILL_WHITE_FFFFFF
 70
0
 62
7
420
16777215
  6
Continuous
370
-3
390
13
347
21
  0
LAYER
  5
32
330
1
100
AcDbSymbolTableRecord
100
AcDbLayerTableRecord
  2
FILL_BLUE_0000FF
 70
0
 62
7
420
255
  6
Continuous
370
-3
390
13
347
21
  0
LAYER
  5
56
330
1
100
AcDbSymbolTableRecord
100
AcDbLayerTableRecord
  2
FILL_BLACK_000000
 70
0
 62
7
420
0
  6
Continuous
370
-3
390
13
347
21
  0
LAYER
  5
8D
330
1
100
AcDbSymbolTableRecord
100
AcDbLayerTableRecord
  2
STROKE_BLUE_0000FF
 70
0
 62
7
420
255
  6
Continuous
370
-3
390
13
347
21
  0
ENDTAB
  0
TABLE
  2
STYLE
  5
5
330
0
100
AcDbSymbolTable
 70
1
  0
STYLE
  5
29
330
5
100
AcDbSymbolTableRecord
100
AcDbTextStyleTableRecord
  2
Standard
 70
0
 40
0.0
 41
1.0
 50
0.0
 71
0
 42
2.5
  3
txt
  4

  0
ENDTAB
  0
TABLE
  2
VIEW
  5
7
330
0
100
AcDbSymbolTable
 70
0
  0
ENDTAB
  0
TABLE
  2
UCS
  5
6
330
0
100
AcDbSymbolTable
 70
0
  0
ENDTAB
  0
TABLE
  2
APPID
  5
3
330
0
100
AcDbSymbolTable
 70
3
  0
APPID
  5
2A
330
3
100
AcDbSymbolTableRecord
100
AcDbRegAppTableRecord
  2
ACAD
 70
0
  0
APPID
  5
96
330
3
100
AcDbSymbolTableRecord
100
AcDbRegAppTableRecord
  2
HATCHBACKGROUNDCOLOR
 70
0
  0
APPID
  5
97
330
3
100
AcDbSymbolTableRecord
100
AcDbRegAppTableRecord
  2
EZDXF
 70
0
  0
ENDTAB
  0
TABLE
  2
DIMSTYLE
  5
4
330
0
100
AcDbSymbolTable
 70
1
100
AcDbDimStyleTable
  0
DIMSTYLE
105
2B
330
4
100
AcDbSymbolTableRecord
100
AcDbDimStyleTableRecord
  2
Standard
 70
0
 40
1.0
 41
2.5
 42
0.625
 43
3.75
 44
1.25
 45
0.0
 46
0.0
 47
0.0
 48
0.0
 49
2.5
140
2.5
141
2.5
142
0.0
143
0.03937007874
144
1.0
145
0.0
146
1.0
147
0.625
148
0.0
 69
0
 70
0
 71
0
 72
0
 73
0
 74
0
 75
0
 76
0
 77
1
 78
8
 79
3
170
0
171
3
172
1
173
0
174
0
175
0
176
0
177
0
178
0
179
2
271
2
272
2
273
2
274
3
275
0
276
0
277
2
278
44
279
0
280
0
281
0
282
0
283
0
284
8
285
0
286
0
288
0
289
3
290
0
371
-2
372
-2
  0
ENDTAB
  0
TABLE
  2
BLOCK_RECORD
  5
9
330
0
100
AcDbSymbolTable
 70
2
  0
BLOCK_RECORD
  5
17
330
9
100
AcDbSymbolTableRecord
100
AcDbBlockTableRecord
  2
*Model_Space
340
1A
 70
0
280
1
281
0
  0
BLOCK_RECORD
  5
1B
330
9
100
AcDbSymbolTableRecord
100
AcDbBlockTableRecord
  2
*Paper_Space
340
1E
 70
0
280
1
281
0
  0
ENDTAB
  0
ENDSEC
  0
SECTION
  2
BLOCKS
  0
BLOCK
  5
18
330
17
100
AcDbEntity
  8
0
100
AcDbBlockBegin
  2
*Model_Space
 70
0
 10
0.0
 20
0.0
 30
0.0
  3
*Model_Space
  1

  0
ENDBLK
  5
19
330
17
100
AcDbEntity
  8
0
100
AcDbBlockEnd
  0
BLOCK
  5
1C
330
1B
100
AcDbEntity
  8
0
100
AcDbBlockBegin
  2
*Paper_Space
 70
0
 10
0.0
 20
0.0
 30
0.0
  3
*Paper_Space
  1

  0
ENDBLK
  5
1D
330
1B
100
AcDbEntity
  8
0
100
AcDbBlockEnd
  0
ENDSEC
  0
SECTION
  2
ENTITIES
  0
HATCH
  5
30
330
17
100
AcDbEntity
  8
FILL_WHITE_FFFFFF
 62
7
420
16777215
100
AcDbHatch
 10
0.0
 20
0.0
 30
0.0
210
0.0
220
0.0
230
1.0
  2
SOLID
 70
1
 71
0
 91
1
 92
3
 72
0
 73
1
 93
61
 10
446.58
 20
266.04
 10
447.77
 20
266.0
 10
448.92
 20
265.86
 10
450.07
 20
265.58
 10
451.26
 20
265.14
 10
452.34
 20
264.67
 10
453.4
 20
264.06
 10
454.42
 20
263.32
 10
455.4
 20
262.44
 10
456.28
 20
261.46
 10
457.04
 20
260.44
 10
458.28
 20
258.3
 10
458.62
 20
257.09
 10
458.84
 20
255.89
 10
459.0
 20
253.62
 10
459.0
 20
18.36
 10
458.84
 20
16.02
 10
458.62
 20
14.87
 10
458.28
 20
13.68
 10
457.04
 20
11.54
 10
456.28
 20
10.52
 10
455.4
 20
9.54
 10
454.42
 20
8.66
 10
453.4
 20
7.9
 10
451.26
 20
6.66
 10
450.07
 20
6.32
 10
448.92
 20
6.1
 10
446.58
 20
5.94
 10
122.76
 20
5.94
 10
120.42
 20
6.1
 10
119.27
 20
6.32
 10
118.08
 20
6.66
 10
115.94
 20
7.9
 10
114.92
 20
8.66
 10
113.94
 20
9.54
 10
113.06
 20
10.52
 10
112.32
 20
11.54
 10
111.71
 20
12.6
 10
111.24
 20
13.68
 10
110.8
 20
14.87
 10
110.52
 20
16.02
 10
110.38
 20
17.17
 10
110.34
 20
18.36
 10
110.34
 20
253.62
 10
110.4
 20
254.89
 10
110.57
 20
256.11
 10
110.86
 20
257.3
 10
111.26
 20
258.44
 10
111.77
 20
259.52
 10
112.39
 20
260.56
 10
113.11
 20
261.53
 10
113.94
 20
262.44
 10
114.85
 20
263.27
 10
115.82
 20
263.99
 10
116.86
 20
264.61
 10
117.95
 20
265.12
 10
119.08
 20
265.52
 10
120.27
 20
265.81
 10
121.5
 20
265.98
 10
122.76
 20
266.04
 10
446.58
 20
266.04
 97
0
 75
1
 76
1
 98
0
  0
LWPOLYLINE
  5
31
330
17
100
AcDbEntity
  8
FILL_WHITE_FFFFFF
370
0
420
16777215
100
AcDbPolyline
 90
60
 70
1
 10
446.58
 20
266.04
 10
447.77
 20
266.0
 10
448.92
 20
265.86
 10
450.07
 20
265.58
 10
451.26
 20
265.14
 10
452.34
 20
264.67
 10
453.4
 20
264.06
 10
454.42
 20
263.32
 10
455.4
 20
262.44
 10
456.28
 20
261.46
 10
457.04
 20
260.44
 10
458.28
 20
258.3
 10
458.62
 20
257.09
 10
458.84
 20
255.89
 10
459.0
 20
253.62
 10
459.0
 20
18.36
 10
458.84
 20
16.02
 10
458.62
 20
14.87
 10
458.28
 20
13.68
 10
457.04
 20
11.54
 10
456.28
 20
10.52
 10
455.4
 20
9.54
 10
454.42
 20
8.66
 10
453.4
 20
7.9
 10
451.26
 20
6.66
 10
450.07
 20
6.32
 10
448.92
 20
6.1
 10
446.58
 20
5.94
 10
122.76
 20
5.94
 10
120.42
 20
6.1
 10
119.27
 20
6.32
 10
118.08
 20
6.66
 10
115.94
 20
7.9
 10
114.92
 20
8.66
 10
113.94
 20
9.54
 10
113.06
 20
10.52
 10
112.32
 20
11.54
 10
111.71
 20
12.6
 10
111.24
 20
13.68
 10
110.8
 20
14.87
 10
110.52
 20
16.02
 10
110.38
 20
17.17
 10
110.34
 20
18.36
 10
110.34
 20
253.62
 10
110.4
 20
254.89
 10
110.57
 20
256.11
 10
110.86
 20
257.3
 10
111.26
 20
258.44
 10
111.77
 20
259.52
 10
112.39
 20
260.56
 10
113.11
 20
261.53
 10
113.94
 20
262.44
 10
114.85
 20
263.27
 10
115.82
 20
263.99
 10
116.86
 20
264.61
 10
117.95
 20
265.12
 10
119.08
 20
265.52
 10
120.27
 20
265.81
 10
121.5
 20
265.98
 10
122.76
 20
266.04
  0
HATCH
  5
33
330
17
100
AcDbEntity
  8
FILL_BLUE_0000FF
 62
7
420
255
100
AcDbHatch
 10
0.0
 20
0.0
 30
0.0
210
0.0
220
0.0
230
1.0
  2
SOLID
 70
1
 71
0
 91
1
 92
3
 72
0
 73
1
 93
37
 10
446.58
 20
259.92
 10
447.79
 20
259.82
 10
448.97
 20
259.49
 10
450.07
 20
258.93
 10
451.08
 20
258.12
 10
451.89
 20
257.11
 10
452.45
 20
256.01
 10
452.78
 20
254.83
 10
452.88
 20
253.62
 10
452.88
 20
18.36
 10
452.75
 20
17.12
 10
452.34
 20
16.02
 10
451.85
 20
14.94
 10
451.08
 20
13.86
 10
450.0
 20
13.1
 10
448.92
 20
12.6
 10
447.82
 20
12.2
 10
446.58
 20
12.06
 10
122.76
 20
12.06
 10
121.55
 20
12.16
 10
120.38
 20
12.49
 10
119.27
 20
13.05
 10
118.26
 20
13.86
 10
117.45
 20
14.87
 10
116.89
 20
15.98
 10
116.56
 20
17.15
 10
116.46
 20
18.36
 10
116.46
 20
253.62
 10
116.56
 20
254.83
 10
116.89
 20
256.01
 10
117.45
 20
257.11
 10
118.26
 20
258.12
 10
119.27
 20
258.93
 10
120.38
 20
259.49
 10
121.55
 20
259.82
 10
122.76
 20
259.92
 10
446.58
 20
259.92
 97
0
 75
1
 76
1
 98
0
  0
LWPOLYLINE
  5
34
330
17
100
AcDbEntity
  8
FILL_BLUE_0000FF
370
0
420
255
100
AcDbPolyline
 90
36
 70
1
 10
446.58
 20
259.92
 10
447.79
 20
259.82
 10
448.97
 20
259.49
 10
450.07
 20
258.93
 10
451.08
 20
258.12
 10
451.89
 20
257.11
 10
452.45
 20
256.01
 10
452.78
 20
254.83
 10
452.88
 20
253.62
 10
452.88
 20
18.36
 10
452.75
 20
17.12
 10
452.34
 20
16.02
 10
451.85
 20
14.94
 10
451.08
 20
13.86
 10
450.0
 20
13.1
 10
448.92
 20
12.6
 10
447.82
 20
12.2
 10
446.58
 20
12.06
 10
122.76
 20
12.06
 10
121.55
 20
12.16
 10
120.38
 20
12.49
 10
119.27
 20
13.05
 10
118.26
 20
13.86
 10
117.45
 20
14.87
 10
116.89
 20
15.98
 10
116.56
 20
17.15
 10
116.46
 20
18.36
 10
116.46
 20
253.62
 10
116.56
 20
254.83
 10
116.89
 20
256.01
 10
117.45
 20
257.11
 10
118.26
 20
258.12
 10
119.27
 20
258.93
 10
120.38
 20
259.49
 10
121.55
 20
259.82
 10
122.76
 20
259.92
  0
HATCH
  5
35
330
17
100
AcDbEntity
  8
FILL_WHITE_FFFFFF
 62
7
420
16777215
100
AcDbHatch
 10
0.0
 20
0.0
 30
0.0
210
0.0
220
0.0
230
1.0
  2
SOLID
 70
1
 71
0
 91
1
 92
3
 72
0
 73
1
 93
10
 10
424.8
 20
94.5
 10
408.06
 20
111.06
 10
408.06
 20
127.62
 10
419.22
 20
116.64
 10
419.22
 20
177.48
 10
430.2
 20
177.48
 10
430.2
 20
116.64
 10
441.36
 20
127.62
 10
441.36
 20
111.06
 10
424.8
 20
94.5
 97
0
 75
1
 76
1
 98
0
  0
LWPOLYLINE
  5
36
330
17
100
AcDbEntity
  8
FILL_WHITE_FFFFFF
370
0
420
16777215
100
AcDbPolyline
 90
9
 70
1
 10
424.8
 20
94.5
 10
408.06
 20
111.06
 10
408.06
 20
127.62
 10
419.22
 20
116.64
 10
419.22
 20
177.48
 10
430.2
 20
177.48
 10
430.2
 20
116.64
 10
441.36
 20
127.62
 10
441.36
 20
111.06
  0
HATCH
  5
37
330
17
100
AcDbEntity
  8
FILL_WHITE_FFFFFF
 62
7
420
16777215
100
AcDbHatch
 10
0.0
 20
0.0
 30
0.0
210
0.0
220
0.0
230
1.0
  2
SOLID
 70
1
 71
0
 91
1
 92
3
 72
0
 73
1
 93
5
 10
384.3
 20
253.62
 10
384.3
 20
18.36
 10
378.0
 20
18.36
 10
378.0
 20
253.62
 10
384.3
 20
253.62
 97
0
 75
1
 76
1
 98
0
  0
LWPOLYLINE
  5
38
330
17
100
AcDbEntity
  8
FILL_WHITE_FFFFFF
370
0
420
16777215
100
AcDbPolyline
 90
4
 70
1
 10
384.3
 20
253.62
 10
384.3
 20
18.36
 10
378.0
 20
18.36
 10
378.0
 20
253.62
  0
HATCH
  5
39
330
17
100
AcDbEntity
  8
FILL_WHITE_FFFFFF
 62
7
420
16777215
100
AcDbHatch
 10
0.0
 20
0.0
 30
0.0
210
0.0
220
0.0
230
1.0
  2
SOLID
 70
1
 71
0
 91
1
 92
3
 72
0
 73
1
 93
5
 10
181.08
 20
251.46
 10
181.08
 20
20.52
 10
172.8
 20
20.52
 10
172.8
 20
251.46
 10
181.08
 20
251.46
 97
0
 75
1
 76
1
 98
0
  0
LWPOLYLINE
  5
3A
330
17
100
AcDbEntity
  8
FILL_WHITE_FFFFFF
370
0
420
16777215
100
AcDbPolyline
 90
4
 70
1
 10
181.08
 20
251.46
 10
181.08
 20
20.52
 10
172.8
 20
20.52
 10
172.8
 20
251.46
  0
HATCH
  5
3B
330
17
100
AcDbEntity
  8
FILL_WHITE_FFFFFF
 62
7
420
16777215
100
AcDbHatch
 10
0.0
 20
0.0
 30
0.0
210
0.0
220
0.0
230
1.0
  2
SOLID
 70
1
 71
0
 91
1
 92
3
 72
0
 73
1
 93
5
 10
396.54
 20
253.62
 10
396.54
 20
18.36
 10
390.42
 20
18.36
 10
390.42
 20
253.62
 10
396.54
 20
253.62
 97
0
 75
1
 76
1
 98
0
  0
LWPOLYLINE
  5
3C
330
17
100
AcDbEntity
  8
FILL_WHITE_FFFFFF
370
0
420
16777215
100
AcDbPolyline
 90
4
 70
1
 10
396.54
 20
253.62
 10
396.54
 20
18.36
 10
390.42
 20
18.36
 10
390.42
 20
253.62
  0
HATCH
  5
3D
330
17
100
AcDbEntity
  8
FILL_WHITE_FFFFFF
 62
7
420
16777215
100
AcDbHatch
 10
0.0
 20
0.0
 30
0.0
210
0.0
220
0.0
230
1.0
  2
SOLID
 70
1
 71
0
 91
1
 92
3
 72
0
 73
1
 93
10
 10
161.28
 20
144.36
 10
150.12
 20
155.34
 10
150.12
 20
94.5
 10
139.14
 20
94.5
 10
139.14
 20
155.34
 10
127.98
 20
144.36
 10
127.98
 20
160.92
 10
144.54
 20
177.48
 10
161.28
 20
160.92
 10
161.28
 20
144.36
 97
0
 75
1
 76
1
 98
0
  0
LWPOLYLINE
  5
3E
330
17
100
AcDbEntity
  8
FILL_WHITE_FFFFFF
370
0
420
16777215
100
AcDbPolyline
 90
9
 70
1
 10
161.28
 20
144.36
 10
150.12
 20
155.34
 10
150.12
 20
94.5
 10
139.14
 20
94.5
 10
139.14
 20
155.34
 10
127.98
 20
144.36
 10
127.98
 20
160.92
 10
144.54
 20
177.48
 10
161.28
 20
160.92
  0
HATCH
  5
3F
330
17
100
AcDbEntity
  8
FILL_WHITE_FFFFFF
 62
7
420
16777215
100
AcDbHatch
 10
0.0
 20
0.0
 30
0.0
210
0.0
220
0.0
230
1.0
  2
SOLID
 70
1
 71
0
 91
14
 92
3
 72
0
 73
1
 93
73
 10
247.14
 20
108.0
 10
245.99
 20
106.59
 10
245.21
 20
105.08
 10
244.76
 20
103.49
 10
244.62
 20
101.88
 10
244.62
 20
100.44
 10
223.2
 20
100.44
 10
222.48
 20
100.51
 10
221.83
 20
100.69
 10
221.25
 20
100.99
 10
220.75
 20
101.39
 10
220.34
 20
101.86
 10
220.04
 20
102.41
 10
219.85
 20
103.02
 10
219.78
 20
103.68
 10
219.78
 20
111.06
 10
219.78
 20
111.96
 10
220.14
 20
113.04
 10
222.84
 20
122.22
 10
225.36
 20
148.86
 10
225.48
 20
149.51
 10
225.72
 20
150.1
 10
226.05
 20
150.62
 10
226.46
 20
151.07
 10
226.95
 20
151.43
 10
227.51
 20
151.7
 10
228.12
 20
151.86
 10
228.78
 20
151.92
 10
332.82
 20
151.92
 10
333.99
 20
151.79
 10
335.16
 20
151.38
 10
335.8
 20
151.18
 10
336.4
 20
150.86
 10
337.5
 20
149.94
 10
338.31
 20
148.91
 10
338.87
 20
147.74
 10
339.2
 20
146.5
 10
339.3
 20
145.26
 10
339.3
 20
105.48
 10
315.18
 20
100.44
 10
309.42
 20
100.44
 10
309.42
 20
101.88
 10
309.28
 20
103.49
 10
308.86
 20
105.08
 10
308.13
 20
106.59
 10
307.08
 20
108.0
 10
305.75
 20
109.05
 10
304.25
 20
109.78
 10
302.68
 20
110.2
 10
301.14
 20
110.34
 10
299.63
 20
110.2
 10
298.1
 20
109.78
 10
296.61
 20
109.05
 10
295.2
 20
108.0
 10
294.17
 20
106.56
 10
293.4
 20
105.12
 10
293.0
 20
103.5
 10
292.86
 20
101.88
 10
292.86
 20
100.44
 10
261.36
 20
100.44
 10
261.36
 20
101.88
 10
261.22
 20
103.49
 10
260.78
 20
105.08
 10
259.99
 20
106.59
 10
258.84
 20
108.0
 10
257.54
 20
109.05
 10
256.1
 20
109.78
 10
254.59
 20
110.2
 10
253.08
 20
110.34
 10
251.47
 20
110.2
 10
249.91
 20
109.78
 10
248.45
 20
109.05
 10
247.14
 20
108.0
 97
0
 92
18
 72
0
 73
1
 93
5
 10
229.68
 20
128.7
 10
225.18
 20
128.7
 10
224.28
 20
120.24
 10
229.68
 20
120.24
 10
229.68
 20
128.7
 97
0
 92
18
 72
0
 73
1
 93
5
 10
243.0
 20
103.68
 10
243.0
 20
128.7
 10
233.1
 20
128.7
 10
233.1
 20
103.68
 10
243.0
 20
103.68
 97
0
 92
18
 72
0
 73
1
 93
5
 10
246.42
 20
118.62
 10
261.36
 20
118.62
 10
261.36
 20
128.7
 10
246.42
 20
128.7
 10
246.42
 20
118.62
 97
0
 92
18
 72
0
 73
1
 93
5
 10
264.6
 20
128.7
 10
264.6
 20
118.62
 10
279.54
 20
118.62
 10
279.54
 20
128.7
 10
264.6
 20
128.7
 97
0
 92
18
 72
0
 73
1
 93
5
 10
297.9
 20
128.7
 10
282.96
 20
128.7
 10
282.96
 20
118.62
 10
297.9
 20
118.62
 10
297.9
 20
128.7
 97
0
 92
18
 72
0
 73
1
 93
5
 10
316.08
 20
118.62
 10
316.08
 20
128.7
 10
301.14
 20
128.7
 10
301.14
 20
118.62
 10
316.08
 20
118.62
 97
0
 92
18
 72
0
 73
1
 93
5
 10
319.5
 20
118.62
 10
336.06
 20
118.62
 10
336.06
 20
128.7
 10
319.5
 20
128.7
 10
319.5
 20
118.62
 97
0
 92
18
 72
0
 73
1
 93
13
 10
334.64
 20
148.07
 10
334.09
 20
148.4
 10
333.48
 20
148.61
 10
332.82
 20
148.68
 10
319.5
 20
148.68
 10
319.5
 20
138.6
 10
336.06
 20
138.6
 10
336.06
 20
145.26
 10
335.99
 20
145.92
 10
335.81
 20
146.55
 10
335.51
 20
147.13
 10
335.12
 20
147.65
 10
334.64
 20
148.07
 97
0
 92
18
 72
0
 73
1
 93
5
 10
301.14
 20
138.6
 10
316.08
 20
138.6
 10
316.08
 20
148.68
 10
301.14
 20
148.68
 10
301.14
 20
138.6
 97
0
 92
18
 72
0
 73
1
 93
5
 10
297.9
 20
138.6
 10
297.9
 20
148.68
 10
282.96
 20
148.68
 10
282.96
 20
138.6
 10
297.9
 20
138.6
 97
0
 92
18
 72
0
 73
1
 93
5
 10
264.6
 20
138.6
 10
279.54
 20
138.6
 10
279.54
 20
148.68
 10
264.6
 20
148.68
 10
264.6
 20
138.6
 97
0
 92
18
 72
0
 73
1
 93
5
 10
246.42
 20
148.68
 10
246.42
 20
138.6
 10
261.36
 20
138.6
 10
261.36
 20
148.68
 10
246.42
 20
148.68
 97
0
 92
18
 72
0
 73
1
 93
5
 10
243.0
 20
148.68
 10
228.78
 20
148.68
 10
227.88
 20
138.6
 10
243.0
 20
138.6
 10
243.0
 20
148.68
 97
0
 75
1
 76
1
 98
0
  0
LWPOLYLINE
  5
40
330
17
100
AcDbEntity
  8
FILL_WHITE_FFFFFF
370
0
420
16777215
100
AcDbPolyline
 90
72
 70
1
 10
247.14
 20
108.0
 10
245.99
 20
106.59
 10
245.21
 20
105.08
 10
244.76
 20
103.49
 10
244.62
 20
101.88
 10
244.62
 20
100.44
 10
223.2
 20
100.44
 10
222.48
 20
100.51
 10
221.83
 20
100.69
 10
221.25
 20
100.99
 10
220.75
 20
101.39
 10
220.34
 20
101.86
 10
220.04
 20
102.41
 10
219.85
 20
103.02
 10
219.78
 20
103.68
 10
219.78
 20
111.06
 10
219.78
 20
111.96
 10
220.14
 20
113.04
 10
222.84
 20
122.22
 10
225.36
 20
148.86
 10
225.48
 20
149.51
 10
225.72
 20
150.1
 10
226.05
 20
150.62
 10
226.46
 20
151.07
 10
226.95
 20
151.43
 10
227.51
 20
151.7
 10
228.12
 20
151.86
 10
228.78
 20
151.92
 10
332.82
 20
151.92
 10
333.99
 20
151.79
 10
335.16
 20
151.38
 10
335.8
 20
151.18
 10
336.4
 20
150.86
 10
337.5
 20
149.94
 10
338.31
 20
148.91
 10
338.87
 20
147.74
 10
339.2
 20
146.5
 10
339.3
 20
145.26
 10
339.3
 20
105.48
 10
315.18
 20
100.44
 10
309.42
 20
100.44
 10
309.42
 20
101.88
 10
309.28
 20
103.49
 10
308.86
 20
105.08
 10
308.13
 20
106.59
 10
307.08
 20
108.0
 10
305.75
 20
109.05
 10
304.25
 20
109.78
 10
302.68
 20
110.2
 10
301.14
 20
110.34
 10
299.63
 20
110.2
 10
298.1
 20
109.78
 10
296.61
 20
109.05
 10
295.2
 20
108.0
 10
294.17
 20
106.56
 10
293.4
 20
105.12
 10
293.0
 20
103.5
 10
292.86
 20
101.88
 10
292.86
 20
100.44
 10
261.36
 20
100.44
 10
261.36
 20
101.88
 10
261.22
 20
103.49
 10
260.78
 20
105.08
 10
259.99
 20
106.59
 10
258.84
 20
108.0
 10
257.54
 20
109.05
 10
256.1
 20
109.78
 10
254.59
 20
110.2
 10
253.08
 20
110.34
 10
251.47
 20
110.2
 10
249.91
 20
109.78
 10
248.45
 20
109.05
  0
LWPOLYLINE
  5
41
330
17
100
AcDbEntity
  8
FILL_WHITE_FFFFFF
370
0
420
16777215
100
AcDbPolyline
 90
4
 70
1
 10
229.68
 20
128.7
 10
225.18
 20
128.7
 10
224.28
 20
120.24
 10
229.68
 20
120.24
  0
LWPOLYLINE
  5
42
330
17
100
AcDbEntity
  8
FILL_WHITE_FFFFFF
370
0
420
16777215
100
AcDbPolyline
 90
4
 70
1
 10
243.0
 20
103.68
 10
243.0
 20
128.7
 10
233.1
 20
128.7
 10
233.1
 20
103.68
  0
LWPOLYLINE
  5
43
330
17
100
AcDbEntity
  8
FILL_WHITE_FFFFFF
370
0
420
16777215
100
AcDbPolyline
 90
4
 70
1
 10
246.42
 20
118.62
 10
261.36
 20
118.62
 10
261.36
 20
128.7
 10
246.42
 20
128.7
  0
LWPOLYLINE
  5
44
330
17
100
AcDbEntity
  8
FILL_WHITE_FFFFFF
370
0
420
16777215
100
AcDbPolyline
 90
4
 70
1
 10
264.6
 20
128.7
 10
264.6
 20
118.62
 10
279.54
 20
118.62
 10
279.54
 20
128.7
  0
LWPOLYLINE
  5
45
330
17
100
AcDbEntity
  8
FILL_WHITE_FFFFFF
370
0
420
16777215
100
AcDbPolyline
 90
4
 70
1
 10
297.9
 20
128.7
 10
282.96
 20
128.7
 10
282.96
 20
118.62
 10
297.9
 20
118.62
  0
LWPOLYLINE
  5
46
330
17
100
AcDbEntity
  8
FILL_WHITE_FFFFFF
370
0
420
16777215
100
AcDbPolyline
 90
4
 70
1
 10
316.08
 20
118.62
 10
316.08
 20
128.7
 10
301.14
 20
128.7
 10
301.14
 20
118.62
  0
LWPOLYLINE
  5
47
330
17
100
AcDbEntity
  8
FILL_WHITE_FFFFFF
370
0
420
16777215
100
AcDbPolyline
 90
4
 70
1
 10
319.5
 20
118.62
 10
336.06
 20
118.62
 10
336.06
 20
128.7
 10
319.5
 20
128.7
  0
LWPOLYLINE
  5
48
330
17
100
AcDbEntity
  8
FILL_WHITE_FFFFFF
370
0
420
16777215
100
AcDbPolyline
 90
12
 70
1
 10
334.64
 20
148.07
 10
334.09
 20
148.4
 10
333.48
 20
148.61
 10
332.82
 20
148.68
 10
319.5
 20
148.68
 10
319.5
 20
138.6
 10
336.06
 20
138.6
 10
336.06
 20
145.26
 10
335.99
 20
145.92
 10
335.81
 20
146.55
 10
335.51
 20
147.13
 10
335.12
 20
147.65
  0
LWPOLYLINE
  5
49
330
17
100
AcDbEntity
  8
FILL_WHITE_FFFFFF
370
0
420
16777215
100
AcDbPolyline
 90
4
 70
1
 10
301.14
 20
138.6
 10
316.08
 20
138.6
 10
316.08
 20
148.68
 10
301.14
 20
148.68
  0
LWPOLYLINE
  5
4A
330
17
100
AcDbEntity
  8
FILL_WHITE_FFFFFF
370
0
420
16777215
100
AcDbPolyline
 90
4
 70
1
 10
297.9
 20
138.6
 10
297.9
 20
148.68
 10
282.96
 20
148.68
 10
282.96
 20
138.6
  0
LWPOLYLINE
  5
4B
330
17
100
AcDbEntity
  8
FILL_WHITE_FFFFFF
370
0
420
16777215
100
AcDbPolyline
 90
4
 70
1
 10
264.6
 20
138.6
 10
279.54
 20
138.6
 10
279.54
 20
148.68
 10
264.6
 20
148.68
  0
LWPOLYLINE
  5
4C
330
17
100
AcDbEntity
  8
FILL_WHITE_FFFFFF
370
0
420
16777215
100
AcDbPolyline
 90
4
 70
1
 10
246.42
 20
148.68
 10
246.42
 20
138.6
 10
261.36
 20
138.6
 10
261.36
 20
148.68
  0
LWPOLYLINE
  5
4D
330
17
100
AcDbEntity
  8
FILL_WHITE_FFFFFF
370
0
420
16777215
100
AcDbPolyline
 90
4
 70
1
 10
243.0
 20
148.68
 10
228.78
 20
148.68
 10
227.88
 20
138.6
 10
243.0
 20
138.6
  0
HATCH
  5
4E
330
17
100
AcDbEntity
  8
FILL_WHITE_FFFFFF
 62
7
420
16777215
100
AcDbHatch
 10
0.0
 20
0.0
 30
0.0
210
0.0
220
0.0
230
1.0
  2
SOLID
 70
1
 71
0
 91
2
 92
3
 72
0
 73
1
 93
33
 10
307.28
 20
99.52
 10
306.66
 20
98.39
 10
305.82
 20
97.38
 10
304.81
 20
96.54
 10
303.68
 20
95.92
 10
302.45
 20
95.53
 10
301.14
 20
95.4
 10
299.83
 20
95.53
 10
298.6
 20
95.92
 10
297.47
 20
96.54
 10
296.46
 20
97.38
 10
295.62
 20
98.39
 10
295.0
 20
99.52
 10
294.61
 20
100.75
 10
294.48
 20
102.06
 10
294.61
 20
103.37
 10
295.0
 20
104.6
 10
295.62
 20
105.73
 10
296.46
 20
106.74
 10
297.47
 20
107.58
 10
298.6
 20
108.2
 10
299.83
 20
108.59
 10
301.14
 20
108.72
 10
302.45
 20
108.59
 10
303.68
 20
108.2
 10
304.81
 20
107.58
 10
305.82
 20
106.74
 10
306.66
 20
105.73
 10
307.28
 20
104.6
 10
307.67
 20
103.37
 10
307.8
 20
102.06
 10
307.67
 20
100.75
 10
307.28
 20
99.52
 97
0
 92
18
 72
0
 73
1
 93
33
 10
304.28
 20
103.35
 10
303.95
 20
103.93
 10
303.53
 20
104.45
 10
303.01
 20
104.87
 10
302.43
 20
105.2
 10
301.8
 20
105.41
 10
301.14
 20
105.48
 10
300.48
 20
105.41
 10
299.87
 20
105.2
 10
299.32
 20
104.87
 10
298.85
 20
104.45
 10
298.45
 20
103.93
 10
298.15
 20
103.35
 10
297.97
 20
102.72
 10
297.9
 20
102.06
 10
297.97
 20
101.4
 10
298.15
 20
100.79
 10
298.45
 20
100.24
 10
298.85
 20
99.77
 10
299.32
 20
99.37
 10
299.87
 20
99.07
 10
300.48
 20
98.89
 10
301.14
 20
98.82
 10
301.8
 20
98.89
 10
302.43
 20
99.07
 10
303.01
 20
99.37
 10
303.53
 20
99.77
 10
303.95
 20
100.24
 10
304.28
 20
100.79
 10
304.49
 20
101.4
 10
304.56
 20
102.06
 10
304.49
 20
102.72
 10
304.28
 20
103.35
 97
0
 75
1
 76
1
 98
0
  0
LWPOLYLINE
  5
4F
330
17
100
AcDbEntity
  8
FILL_WHITE_FFFFFF
370
0
420
16777215
100
AcDbPolyline
 90
32
 70
1
 10
307.28
 20
99.52
 10
306.66
 20
98.39
 10
305.82
 20
97.38
 10
304.81
 20
96.54
 10
303.68
 20
95.92
 10
302.45
 20
95.53
 10
301.14
 20
95.4
 10
299.83
 20
95.53
 10
298.6
 20
95.92
 10
297.47
 20
96.54
 10
296.46
 20
97.38
 10
295.62
 20
98.39
 10
295.0
 20
99.52
 10
294.61
 20
100.75
 10
294.48
 20
102.06
 10
294.61
 20
103.37
 10
295.0
 20
104.6
 10
295.62
 20
105.73
 10
296.46
 20
106.74
 10
297.47
 20
107.58
 10
298.6
 20
108.2
 10
299.83
 20
108.59
 10
301.14
 20
108.72
 10
302.45
 20
108.59
 10
303.68
 20
108.2
 10
304.81
 20
107.58
 10
305.82
 20
106.74
 10
306.66
 20
105.73
 10
307.28
 20
104.6
 10
307.67
 20
103.37
 10
307.8
 20
102.06
 10
307.67
 20
100.75
  0
LWPOLYLINE
  5
50
330
17
100
AcDbEntity
  8
FILL_WHITE_FFFFFF
370
0
420
16777215
100
AcDbPolyline
 90
32
 70
1
 10
304.28
 20
103.35
 10
303.95
 20
103.93
 10
303.53
 20
104.45
 10
303.01
 20
104.87
 10
302.43
 20
105.2
 10
301.8
 20
105.41
 10
301.14
 20
105.48
 10
300.48
 20
105.41
 10
299.87
 20
105.2
 10
299.32
 20
104.87
 10
298.85
 20
104.45
 10
298.45
 20
103.93
 10
298.15
 20
103.35
 10
297.97
 20
102.72
 10
297.9
 20
102.06
 10
297.97
 20
101.4
 10
298.15
 20
100.79
 10
298.45
 20
100.24
 10
298.85
 20
99.77
 10
299.32
 20
99.37
 10
299.87
 20
99.07
 10
300.48
 20
98.89
 10
301.14
 20
98.82
 10
301.8
 20
98.89
 10
302.43
 20
99.07
 10
303.01
 20
99.37
 10
303.53
 20
99.77
 10
303.95
 20
100.24
 10
304.28
 20
100.79
 10
304.49
 20
101.4
 10
304.56
 20
102.06
 10
304.49
 20
102.72
  0
HATCH
  5
51
330
17
100
AcDbEntity
  8
FILL_WHITE_FFFFFF
 62
7
420
16777215
100
AcDbHatch
 10
0.0
 20
0.0
 30
0.0
210
0.0
220
0.0
230
1.0
  2
SOLID
 70
1
 71
0
 91
2
 92
3
 72
0
 73
1
 93
33
 10
259.22
 20
99.52
 10
258.6
 20
98.39
 10
257.76
 20
97.38
 10
256.73
 20
96.54
 10
255.56
 20
95.92
 10
254.32
 20
95.53
 10
253.08
 20
95.4
 10
251.74
 20
95.53
 10
250.47
 20
95.92
 10
249.33
 20
96.54
 10
248.4
 20
97.38
 10
247.56
 20
98.39
 10
246.94
 20
99.52
 10
246.55
 20
100.75
 10
246.42
 20
102.06
 10
246.55
 20
103.37
 10
246.94
 20
104.6
 10
247.56
 20
105.73
 10
248.4
 20
106.74
 10
249.33
 20
107.58
 10
250.47
 20
108.2
 10
251.74
 20
108.59
 10
253.08
 20
108.72
 10
254.32
 20
108.59
 10
255.56
 20
108.2
 10
256.73
 20
107.58
 10
257.76
 20
106.74
 10
258.6
 20
105.73
 10
259.22
 20
104.6
 10
259.61
 20
103.37
 10
259.74
 20
102.06
 10
259.61
 20
100.75
 10
259.22
 20
99.52
 97
0
 92
18
 72
0
 73
1
 93
33
 10
256.07
 20
103.35
 10
255.77
 20
103.93
 10
255.38
 20
104.45
 10
254.9
 20
104.87
 10
254.35
 20
105.2
 10
253.74
 20
105.41
 10
253.08
 20
105.48
 10
252.36
 20
105.41
 10
251.71
 20
105.2
 10
251.13
 20
104.87
 10
250.63
 20
104.45
 10
250.22
 20
103.93
 10
249.92
 20
103.35
 10
249.73
 20
102.72
 10
249.66
 20
102.06
 10
249.73
 20
101.4
 10
249.92
 20
100.79
 10
250.22
 20
100.24
 10
250.63
 20
99.77
 10
251.13
 20
99.37
 10
251.71
 20
99.07
 10
252.36
 20
98.89
 10
253.08
 20
98.82
 10
253.74
 20
98.89
 10
254.35
 20
99.07
 10
254.9
 20
99.37
 10
255.38
 20
99.77
 10
255.77
 20
100.24
 10
256.07
 20
100.79
 10
256.25
 20
101.4
 10
256.32
 20
102.06
 10
256.25
 20
102.72
 10
256.07
 20
103.35
 97
0
 75
1
 76
1
 98
0
  0
LWPOLYLINE
  5
52
330
17
100
AcDbEntity
  8
FILL_WHITE_FFFFFF
370
0
420
16777215
100
AcDbPolyline
 90
32
 70
1
 10
259.22
 20
99.52
 10
258.6
 20
98.39
 10
257.76
 20
97.38
 10
256.73
 20
96.54
 10
255.56
 20
95.92
 10
254.32
 20
95.53
 10
253.08
 20
95.4
 10
251.74
 20
95.53
 10
250.47
 20
95.92
 10
249.33
 20
96.54
 10
248.4
 20
97.38
 10
247.56
 20
98.39
 10
246.94
 20
99.52
 10
246.55
 20
100.75
 10
246.42
 20
102.06
 10
246.55
 20
103.37
 10
246.94
 20
104.6
 10
247.56
 20
105.73
 10
248.4
 20
106.74
 10
249.33
 20
107.58
 10
250.47
 20
108.2
 10
251.74
 20
108.59
 10
253.08
 20
108.72
 10
254.32
 20
108.59
 10
255.56
 20
108.2
 10
256.73
 20
107.58
 10
257.76
 20
106.74
 10
258.6
 20
105.73
 10
259.22
 20
104.6
 10
259.61
 20
103.37
 10
259.74
 20
102.06
 10
259.61
 20
100.75
  0
LWPOLYLINE
  5
53
330
17
100
AcDbEntity
  8
FILL_WHITE_FFFFFF
370
0
420
16777215
100
AcDbPolyline
 90
32
 70
1
 10
256.07
 20
103.35
 10
255.77
 20
103.93
 10
255.38
 20
104.45
 10
254.9
 20
104.87
 10
254.35
 20
105.2
 10
253.74
 20
105.41
 10
253.08
 20
105.48
 10
252.36
 20
105.41
 10
251.71
 20
105.2
 10
251.13
 20
104.87
 10
250.63
 20
104.45
 10
250.22
 20
103.93
 10
249.92
 20
103.35
 10
249.73
 20
102.72
 10
249.66
 20
102.06
 10
249.73
 20
101.4
 10
249.92
 20
100.79
 10
250.22
 20
100.24
 10
250.63
 20
99.77
 10
251.13
 20
99.37
 10
251.71
 20
99.07
 10
252.36
 20
98.89
 10
253.08
 20
98.82
 10
253.74
 20
98.89
 10
254.35
 20
99.07
 10
254.9
 20
99.37
 10
255.38
 20
99.77
 10
255.77
 20
100.24
 10
256.07
 20
100.79
 10
256.25
 20
101.4
 10
256.32
 20
102.06
 10
256.25
 20
102.72
  0
HATCH
  5
54
330
17
100
AcDbEntity
  8
FILL_WHITE_FFFFFF
 62
7
420
16777215
100
AcDbHatch
 10
0.0
 20
0.0
 30
0.0
210
0.0
220
0.0
230
1.0
  2
SOLID
 70
1
 71
0
 91
1
 92
3
 72
0
 73
1
 93
5
 10
366.3
 20
84.24
 10
366.3
 20
27.0
 10
192.78
 20
27.0
 10
192.78
 20
84.24
 10
366.3
 20
84.24
 97
0
 75
1
 76
1
 98
0
  0
LWPOLYLINE
  5
55
330
17
100
AcDbEntity
  8
FILL_WHITE_FFFFFF
370
0
420
255
100
AcDbPolyline
 90
4
 70
1
 10
366.3
 20
84.24
 10
366.3
 20
27.0
 10
192.78
 20
27.0
 10
192.78
 20
84.24
  0
HATCH
  5
57
330
17
100
AcDbEntity
  8
FILL_BLACK_000000
 62
7
420
0
100
AcDbHatch
 10
0.0
 20
0.0
 30
0.0
210
0.0
220
0.0
230
1.0
  2
SOLID
 70
1
 71
0
 91
2
 92
3
 72
0
 73
1
 93
43
 10
212.06
 20
62.12
 10
211.5
 20
62.28
 10
211.1
 20
62.42
 10
210.96
 20
62.82
 10
210.71
 20
62.56
 10
210.29
 20
62.33
 10
209.34
 20
62.1
 10
208.16
 20
62.24
 10
207.69
 20
62.41
 10
207.32
 20
62.66
 10
207.02
 20
62.99
 10
206.81
 20
63.39
 10
206.64
 20
64.44
 10
206.68
 20
64.95
 10
206.82
 20
65.39
 10
207.1
 20
65.76
 10
207.54
 20
66.06
 10
208.78
 20
66.47
 10
210.42
 20
66.6
 10
210.42
 20
66.96
 10
210.47
 20
67.23
 10
210.24
 20
67.5
 10
210.11
 20
67.66
 10
209.7
 20
67.68
 10
209.16
 20
67.66
 10
208.62
 20
67.5
 10
207.54
 20
66.96
 10
206.64
 20
68.22
 10
207.24
 20
68.69
 10
207.97
 20
69.03
 10
208.79
 20
69.23
 10
209.7
 20
69.3
 10
210.76
 20
69.26
 10
211.24
 20
69.15
 10
211.68
 20
68.94
 10
212.18
 20
68.27
 10
212.34
 20
67.83
 10
212.4
 20
67.32
 10
212.4
 20
63.9
 10
212.69
 20
63.65
 10
213.12
 20
63.54
 10
212.76
 20
62.1
 10
212.06
 20
62.12
 97
0
 92
18
 72
0
 73
1
 93
11
 10
208.8
 20
63.72
 10
209.52
 20
63.54
 10
210.17
 20
63.81
 10
210.42
 20
64.08
 10
210.42
 20
65.16
 10
209.63
 20
65.14
 10
208.98
 20
64.98
 10
208.64
 20
64.71
 10
208.44
 20
64.44
 10
208.55
 20
64.01
 10
208.8
 20
63.72
 97
0
 75
1
 76
1
 98
0
  0
LWPOLYLINE
  5
58
330
17
100
AcDbEntity
  8
FILL_BLACK_000000
370
0
420
0
100
AcDbPolyline
 90
42
 70
1
 10
212.06
 20
62.12
 10
211.5
 20
62.28
 10
211.1
 20
62.42
 10
210.96
 20
62.82
 10
210.71
 20
62.56
 10
210.29
 20
62.33
 10
209.34
 20
62.1
 10
208.16
 20
62.24
 10
207.69
 20
62.41
 10
207.32
 20
62.66
 10
207.02
 20
62.99
 10
206.81
 20
63.39
 10
206.64
 20
64.44
 10
206.68
 20
64.95
 10
206.82
 20
65.39
 10
207.1
 20
65.76
 10
207.54
 20
66.06
 10
208.78
 20
66.47
 10
210.42
 20
66.6
 10
210.42
 20
66.96
 10
210.47
 20
67.23
 10
210.24
 20
67.5
 10
210.11
 20
67.66
 10
209.7
 20
67.68
 10
209.16
 20
67.66
 10
208.62
 20
67.5
 10
207.54
 20
66.96
 10
206.64
 20
68.22
 10
207.24
 20
68.69
 10
207.97
 20
69.03
 10
208.79
 20
69.23
 10
209.7
 20
69.3
 10
210.76
 20
69.26
 10
211.24
 20
69.15
 10
211.68
 20
68.94
 10
212.18
 20
68.27
 10
212.34
 20
67.83
 10
212.4
 20
67.32
 10
212.4
 20
63.9
 10
212.69
 20
63.65
 10
213.12
 20
63.54
 10
212.76
 20
62.1
  0
LWPOLYLINE
  5
59
330
17
100
AcDbEntity
  8
FILL_BLACK_000000
370
0
420
0
100
AcDbPolyline
 90
10
 70
1
 10
208.8
 20
63.72
 10
209.52
 20
63.54
 10
210.17
 20
63.81
 10
210.42
 20
64.08
 10
210.42
 20
65.16
 10
209.63
 20
65.14
 10
208.98
 20
64.98
 10
208.64
 20
64.71
 10
208.44
 20
64.44
 10
208.55
 20
64.01
  0
HATCH
  5
5A
330
17
100
AcDbEntity
  8
FILL_BLACK_000000
 62
7
420
0
100
AcDbHatch
 10
0.0
 20
0.0
 30
0.0
210
0.0
220
0.0
230
1.0
  2
SOLID
 70
1
 71
0
 91
1
 92
3
 72
0
 73
1
 93
45
 10
220.39
 20
67.19
 10
220.08
 20
66.89
 10
219.96
 20
66.6
 10
219.96
 20
62.28
 10
218.16
 20
62.28
 10
218.16
 20
66.96
 10
218.1
 20
67.2
 10
217.91
 20
67.37
 10
217.26
 20
67.5
 10
216.86
 20
67.41
 10
216.49
 20
67.19
 10
216.0
 20
66.6
 10
216.0
 20
62.28
 10
214.2
 20
62.28
 10
214.2
 20
69.12
 10
216.0
 20
69.12
 10
216.0
 20
68.76
 10
216.72
 20
69.12
 10
217.17
 20
69.28
 10
217.62
 20
69.3
 10
218.23
 20
69.24
 10
218.72
 20
69.05
 10
219.11
 20
68.77
 10
219.42
 20
68.4
 10
220.25
 20
69.05
 10
220.71
 20
69.24
 10
221.22
 20
69.3
 10
222.09
 20
69.2
 10
222.82
 20
68.9
 10
223.37
 20
68.39
 10
223.74
 20
67.68
 10
223.92
 20
67.5
 10
223.92
 20
67.39
 10
223.92
 20
67.32
 10
223.92
 20
67.21
 10
223.92
 20
67.14
 10
223.92
 20
62.28
 10
222.12
 20
62.28
 10
222.12
 20
66.96
 10
222.01
 20
67.14
 10
221.76
 20
67.32
 10
221.49
 20
67.48
 10
221.22
 20
67.5
 10
220.8
 20
67.41
 10
220.39
 20
67.19
 97
0
 75
1
 76
1
 98
0
  0
LWPOLYLINE
  5
5B
330
17
100
AcDbEntity
  8
FILL_BLACK_000000
370
0
420
0
100
AcDbPolyline
 90
44
 70
1
 10
220.39
 20
67.19
 10
220.08
 20
66.89
 10
219.96
 20
66.6
 10
219.96
 20
62.28
 10
218.16
 20
62.28
 10
218.16
 20
66.96
 10
218.1
 20
67.2
 10
217.91
 20
67.37
 10
217.26
 20
67.5
 10
216.86
 20
67.41
 10
216.49
 20
67.19
 10
216.0
 20
66.6
 10
216.0
 20
62.28
 10
214.2
 20
62.28
 10
214.2
 20
69.12
 10
216.0
 20
69.12
 10
216.0
 20
68.76
 10
216.72
 20
69.12
 10
217.17
 20
69.28
 10
217.62
 20
69.3
 10
218.23
 20
69.24
 10
218.72
 20
69.05
 10
219.11
 20
68.77
 10
219.42
 20
68.4
 10
220.25
 20
69.05
 10
220.71
 20
69.24
 10
221.22
 20
69.3
 10
222.09
 20
69.2
 10
222.82
 20
68.9
 10
223.37
 20
68.39
 10
223.74
 20
67.68
 10
223.92
 20
67.5
 10
223.92
 20
67.39
 10
223.92
 20
67.32
 10
223.92
 20
67.21
 10
223.92
 20
67.14
 10
223.92
 20
62.28
 10
222.12
 20
62.28
 10
222.12
 20
66.96
 10
222.01
 20
67.14
 10
221.76
 20
67.32
 10
221.49
 20
67.48
 10
221.22
 20
67.5
 10
220.8
 20
67.41
  0
HATCH
  5
5C
330
17
100
AcDbEntity
  8
FILL_BLACK_000000
 62
7
420
0
100
AcDbHatch
 10
0.0
 20
0.0
 30
0.0
210
0.0
220
0.0
230
1.0
  2
SOLID
 70
1
 71
0
 91
1
 92
3
 72
0
 73
1
 93
44
 10
292.66
 20
73.85
 10
292.41
 20
73.55
 10
292.32
 20
73.26
 10
292.32
 20
68.94
 10
290.52
 20
68.94
 10
290.52
 20
73.62
 10
290.14
 20
74.03
 10
289.62
 20
74.16
 10
289.2
 20
74.07
 10
288.79
 20
73.85
 10
288.48
 20
73.55
 10
288.36
 20
73.26
 10
288.36
 20
68.94
 10
286.56
 20
68.94
 10
286.56
 20
75.78
 10
288.36
 20
75.78
 10
288.36
 20
75.42
 10
288.72
 20
75.67
 10
289.08
 20
75.78
 10
289.53
 20
75.94
 10
289.98
 20
75.96
 10
290.51
 20
75.9
 10
291.02
 20
75.71
 10
291.45
 20
75.43
 10
291.78
 20
75.06
 10
292.11
 20
75.43
 10
292.55
 20
75.71
 10
293.05
 20
75.9
 10
293.58
 20
75.96
 10
294.45
 20
75.86
 10
295.18
 20
75.56
 10
295.73
 20
75.05
 10
296.1
 20
74.34
 10
296.1
 20
73.98
 10
296.1
 20
73.8
 10
296.28
 20
73.8
 10
296.28
 20
68.94
 10
294.3
 20
68.94
 10
294.3
 20
73.62
 10
294.12
 20
73.98
 10
293.83
 20
74.14
 10
293.4
 20
74.16
 10
293.0
 20
74.07
 10
292.66
 20
73.85
 97
0
 75
1
 76
1
 98
0
  0
LWPOLYLINE
  5
5D
330
17
100
AcDbEntity
  8
FILL_BLACK_000000
370
0
420
0
100
AcDbPolyline
 90
43
 70
1
 10
292.66
 20
73.85
 10
292.41
 20
73.55
 10
292.32
 20
73.26
 10
292.32
 20
68.94
 10
290.52
 20
68.94
 10
290.52
 20
73.62
 10
290.14
 20
74.03
 10
289.62
 20
74.16
 10
289.2
 20
74.07
 10
288.79
 20
73.85
 10
288.48
 20
73.55
 10
288.36
 20
73.26
 10
288.36
 20
68.94
 10
286.56
 20
68.94
 10
286.56
 20
75.78
 10
288.36
 20
75.78
 10
288.36
 20
75.42
 10
288.72
 20
75.67
 10
289.08
 20
75.78
 10
289.53
 20
75.94
 10
289.98
 20
75.96
 10
290.51
 20
75.9
 10
291.02
 20
75.71
 10
291.45
 20
75.43
 10
291.78
 20
75.06
 10
292.11
 20
75.43
 10
292.55
 20
75.71
 10
293.05
 20
75.9
 10
293.58
 20
75.96
 10
294.45
 20
75.86
 10
295.18
 20
75.56
 10
295.73
 20
75.05
 10
296.1
 20
74.34
 10
296.1
 20
73.98
 10
296.1
 20
73.8
 10
296.28
 20
73.8
 10
296.28
 20
68.94
 10
294.3
 20
68.94
 10
294.3
 20
73.62
 10
294.12
 20
73.98
 10
293.83
 20
74.14
 10
293.4
 20
74.16
 10
293.0
 20
74.07
  0
HATCH
  5
5E
330
17
100
AcDbEntity
  8
FILL_BLACK_000000
 62
7
420
0
100
AcDbHatch
 10
0.0
 20
0.0
 30
0.0
210
0.0
220
0.0
230
1.0
  2
SOLID
 70
1
 71
0
 91
1
 92
3
 72
0
 73
1
 93
5
 10
300.06
 20
75.6
 10
300.06
 20
68.94
 10
298.44
 20
68.94
 10
298.44
 20
75.6
 10
300.06
 20
75.6
 97
0
 75
1
 76
1
 98
0
  0
LWPOLYLINE
  5
5F
330
17
100
AcDbEntity
  8
FILL_BLACK_000000
370
0
420
0
100
AcDbPolyline
 90
4
 70
1
 10
300.06
 20
75.6
 10
300.06
 20
68.94
 10
298.44
 20
68.94
 10
298.44
 20
75.6
  0
HATCH
  5
60
330
17
100
AcDbEntity
  8
FILL_BLACK_000000
 62
7
420
0
100
AcDbHatch
 10
0.0
 20
0.0
 30
0.0
210
0.0
220
0.0
230
1.0
  2
SOLID
 70
1
 71
0
 91
1
 92
3
 72
0
 73
1
 93
17
 10
300.17
 20
77.0
 10
299.97
 20
76.66
 10
299.63
 20
76.41
 10
299.16
 20
76.32
 10
298.79
 20
76.41
 10
298.51
 20
76.66
 10
298.32
 20
77.0
 10
298.26
 20
77.4
 10
298.32
 20
77.8
 10
298.51
 20
78.14
 10
298.79
 20
78.39
 10
299.16
 20
78.48
 10
299.63
 20
78.39
 10
299.97
 20
78.14
 10
300.17
 20
77.8
 10
300.24
 20
77.4
 10
300.17
 20
77.0
 97
0
 75
1
 76
1
 98
0
  0
LWPOLYLINE
  5
61
330
17
100
AcDbEntity
  8
FILL_BLACK_000000
370
0
420
0
100
AcDbPolyline
 90
16
 70
1
 10
300.17
 20
77.0
 10
299.97
 20
76.66
 10
299.63
 20
76.41
 10
299.16
 20
76.32
 10
298.79
 20
76.41
 10
298.51
 20
76.66
 10
298.32
 20
77.0
 10
298.26
 20
77.4
 10
298.32
 20
77.8
 10
298.51
 20
78.14
 10
298.79
 20
78.39
 10
299.16
 20
78.48
 10
299.63
 20
78.39
 10
299.97
 20
78.14
 10
300.17
 20
77.8
 10
300.24
 20
77.4
  0
HATCH
  5
62
330
17
100
AcDbEntity
  8
FILL_BLACK_000000
 62
7
420
0
100
AcDbHatch
 10
0.0
 20
0.0
 30
0.0
210
0.0
220
0.0
230
1.0
  2
SOLID
 70
1
 71
0
 91
1
 92
3
 72
0
 73
1
 93
5
 10
312.84
 20
73.08
 10
312.84
 20
71.46
 10
309.96
 20
71.46
 10
309.96
 20
73.08
 10
312.84
 20
73.08
 97
0
 75
1
 76
1
 98
0
  0
LWPOLYLINE
  5
63
330
17
100
AcDbEntity
  8
FILL_BLACK_000000
370
0
420
0
100
AcDbPolyline
 90
4
 70
1
 10
312.84
 20
73.08
 10
312.84
 20
71.46
 10
309.96
 20
71.46
 10
309.96
 20
73.08
  0
HATCH
  5
64
330
17
100
AcDbEntity
  8
FILL_BLACK_000000
 62
7
420
0
100
AcDbHatch
 10
0.0
 20
0.0
 30
0.0
210
0.0
220
0.0
230
1.0
  2
SOLID
 70
1
 71
0
 91
1
 92
3
 72
0
 73
1
 93
28
 10
288.12
 20
60.31
 10
287.93
 20
60.62
 10
287.65
 20
60.85
 10
287.28
 20
61.02
 10
286.78
 20
60.85
 10
286.38
 20
60.62
 10
286.12
 20
60.31
 10
286.02
 20
59.94
 10
286.02
 20
55.62
 10
284.04
 20
55.62
 10
284.04
 20
62.46
 10
286.02
 20
62.46
 10
286.02
 20
62.1
 10
286.29
 20
62.35
 10
286.56
 20
62.46
 10
287.01
 20
62.62
 10
287.46
 20
62.64
 10
288.64
 20
62.51
 10
289.48
 20
62.1
 10
289.78
 20
61.8
 10
289.99
 20
61.43
 10
290.16
 20
60.48
 10
290.16
 20
55.62
 10
288.18
 20
55.62
 10
288.18
 20
59.76
 10
288.18
 20
59.83
 10
288.18
 20
59.94
 10
288.12
 20
60.31
 97
0
 75
1
 76
1
 98
0
  0
LWPOLYLINE
  5
65
330
17
100
AcDbEntity
  8
FILL_BLACK_000000
370
0
420
0
100
AcDbPolyline
 90
27
 70
1
 10
288.12
 20
60.31
 10
287.93
 20
60.62
 10
287.65
 20
60.85
 10
287.28
 20
61.02
 10
286.78
 20
60.85
 10
286.38
 20
60.62
 10
286.12
 20
60.31
 10
286.02
 20
59.94
 10
286.02
 20
55.62
 10
284.04
 20
55.62
 10
284.04
 20
62.46
 10
286.02
 20
62.46
 10
286.02
 20
62.1
 10
286.29
 20
62.35
 10
286.56
 20
62.46
 10
287.01
 20
62.62
 10
287.46
 20
62.64
 10
288.64
 20
62.51
 10
289.48
 20
62.1
 10
289.78
 20
61.8
 10
289.99
 20
61.43
 10
290.16
 20
60.48
 10
290.16
 20
55.62
 10
288.18
 20
55.62
 10
288.18
 20
59.76
 10
288.18
 20
59.83
 10
288.18
 20
59.94
  0
HATCH
  5
66
330
17
100
AcDbEntity
  8
FILL_BLACK_000000
 62
7
420
0
100
AcDbHatch
 10
0.0
 20
0.0
 30
0.0
210
0.0
220
0.0
230
1.0
  2
SOLID
 70
1
 71
0
 91
1
 92
3
 72
0
 73
1
 93
5
 10
293.94
 20
62.28
 10
293.94
 20
55.62
 10
292.32
 20
55.62
 10
292.32
 20
62.28
 10
293.94
 20
62.28
 97
0
 75
1
 76
1
 98
0
  0
LWPOLYLINE
  5
67
330
17
100
AcDbEntity
  8
FILL_BLACK_000000
370
0
420
0
100
AcDbPolyline
 90
4
 70
1
 10
293.94
 20
62.28
 10
293.94
 20
55.62
 10
292.32
 20
55.62
 10
292.32
 20
62.28
  0
HATCH
  5
68
330
17
100
AcDbEntity
  8
FILL_BLACK_000000
 62
7
420
0
100
AcDbHatch
 10
0.0
 20
0.0
 30
0.0
210
0.0
220
0.0
230
1.0
  2
SOLID
 70
1
 71
0
 91
1
 92
3
 72
0
 73
1
 93
17
 10
294.21
 20
63.68
 10
293.96
 20
63.34
 10
293.62
 20
63.09
 10
293.22
 20
63.0
 10
292.75
 20
63.09
 10
292.41
 20
63.34
 10
292.21
 20
63.68
 10
292.14
 20
64.08
 10
292.21
 20
64.48
 10
292.41
 20
64.82
 10
292.75
 20
65.07
 10
293.22
 20
65.16
 10
293.62
 20
65.07
 10
293.96
 20
64.82
 10
294.21
 20
64.48
 10
294.3
 20
64.08
 10
294.21
 20
63.68
 97
0
 75
1
 76
1
 98
0
  0
LWPOLYLINE
  5
69
330
17
100
AcDbEntity
  8
FILL_BLACK_000000
370
0
420
0
100
AcDbPolyline
 90
16
 70
1
 10
294.21
 20
63.68
 10
293.96
 20
63.34
 10
293.62
 20
63.09
 10
293.22
 20
63.0
 10
292.75
 20
63.09
 10
292.41
 20
63.34
 10
292.21
 20
63.68
 10
292.14
 20
64.08
 10
292.21
 20
64.48
 10
292.41
 20
64.82
 10
292.75
 20
65.07
 10
293.22
 20
65.16
 10
293.62
 20
65.07
 10
293.96
 20
64.82
 10
294.21
 20
64.48
 10
294.3
 20
64.08
  0
HATCH
  5
6A
330
17
100
AcDbEntity
  8
FILL_BLACK_000000
 62
7
420
0
100
AcDbHatch
 10
0.0
 20
0.0
 30
0.0
210
0.0
220
0.0
230
1.0
  2
SOLID
 70
1
 71
0
 91
2
 92
3
 72
0
 73
1
 93
41
 10
301.38
 20
54.47
 10
301.11
 20
54.07
 10
300.76
 20
53.73
 10
299.83
 20
53.26
 10
298.62
 20
53.1
 10
296.8
 20
53.51
 10
296.01
 20
53.81
 10
295.38
 20
54.18
 10
296.28
 20
55.62
 10
297.72
 20
55.08
 10
298.8
 20
54.9
 10
299.17
 20
55.07
 10
299.45
 20
55.31
 10
299.64
 20
55.61
 10
299.7
 20
55.98
 10
299.7
 20
56.34
 10
299.59
 20
56.16
 10
299.34
 20
55.98
 10
298.44
 20
55.8
 10
297.23
 20
56.1
 10
296.73
 20
56.38
 10
296.3
 20
56.75
 10
295.95
 20
57.19
 10
295.68
 20
57.72
 10
295.38
 20
59.04
 10
295.43
 20
59.87
 10
295.58
 20
60.59
 10
295.83
 20
61.21
 10
296.17
 20
61.72
 10
296.6
 20
62.12
 10
297.13
 20
62.41
 10
297.74
 20
62.58
 10
298.44
 20
62.64
 10
298.98
 20
62.62
 10
299.52
 20
62.46
 10
299.61
 20
62.44
 10
299.7
 20
62.28
 10
299.88
 20
62.28
 10
301.68
 20
62.28
 10
301.68
 20
55.44
 10
301.38
 20
54.47
 97
0
 92
18
 72
0
 73
1
 93
17
 10
299.43
 20
60.59
 10
299.09
 20
60.78
 10
298.62
 20
60.84
 10
298.12
 20
60.71
 10
297.7
 20
60.37
 10
297.38
 20
59.85
 10
297.18
 20
59.22
 10
297.38
 20
58.51
 10
297.72
 20
57.98
 10
298.19
 20
57.63
 10
298.8
 20
57.42
 10
299.52
 20
57.78
 10
299.68
 20
58.07
 10
299.7
 20
58.5
 10
299.7
 20
59.94
 10
299.63
 20
60.31
 10
299.43
 20
60.59
 97
0
 75
1
 76
1
 98
0
  0
LWPOLYLINE
  5
6B
330
17
100
AcDbEntity
  8
FILL_BLACK_000000
370
0
420
0
100
AcDbPolyline
 90
40
 70
1
 10
301.38
 20
54.47
 10
301.11
 20
54.07
 10
300.76
 20
53.73
 10
299.83
 20
53.26
 10
298.62
 20
53.1
 10
296.8
 20
53.51
 10
296.01
 20
53.81
 10
295.38
 20
54.18
 10
296.28
 20
55.62
 10
297.72
 20
55.08
 10
298.8
 20
54.9
 10
299.17
 20
55.07
 10
299.45
 20
55.31
 10
299.64
 20
55.61
 10
299.7
 20
55.98
 10
299.7
 20
56.34
 10
299.59
 20
56.16
 10
299.34
 20
55.98
 10
298.44
 20
55.8
 10
297.23
 20
56.1
 10
296.73
 20
56.38
 10
296.3
 20
56.75
 10
295.95
 20
57.19
 10
295.68
 20
57.72
 10
295.38
 20
59.04
 10
295.43
 20
59.87
 10
295.58
 20
60.59
 10
295.83
 20
61.21
 10
296.17
 20
61.72
 10
296.6
 20
62.12
 10
297.13
 20
62.41
 10
297.74
 20
62.58
 10
298.44
 20
62.64
 10
298.98
 20
62.62
 10
299.52
 20
62.46
 10
299.61
 20
62.44
 10
299.7
 20
62.28
 10
299.88
 20
62.28
 10
301.68
 20
62.28
 10
301.68
 20
55.44
  0
LWPOLYLINE
  5
6C
330
17
100
AcDbEntity
  8
FILL_BLACK_000000
370
0
420
0
100
AcDbPolyline
 90
16
 70
1
 10
299.43
 20
60.59
 10
299.09
 20
60.78
 10
298.62
 20
60.84
 10
298.12
 20
60.71
 10
297.7
 20
60.37
 10
297.38
 20
59.85
 10
297.18
 20
59.22
 10
297.38
 20
58.51
 10
297.72
 20
57.98
 10
298.19
 20
57.63
 10
298.8
 20
57.42
 10
299.52
 20
57.78
 10
299.68
 20
58.07
 10
299.7
 20
58.5
 10
299.7
 20
59.94
 10
299.63
 20
60.31
  0
HATCH
  5
6D
330
17
100
AcDbEntity
  8
FILL_BLACK_000000
 62
7
420
0
100
AcDbHatch
 10
0.0
 20
0.0
 30
0.0
210
0.0
220
0.0
230
1.0
  2
SOLID
 70
1
 71
0
 91
1
 92
3
 72
0
 73
1
 93
25
 10
305.88
 20
62.51
 10
306.56
 20
62.69
 10
307.28
 20
62.66
 10
307.98
 20
62.46
 10
308.66
 20
62.06
 10
309.06
 20
61.38
 10
309.47
 20
60.75
 10
309.6
 20
60.12
 10
309.6
 20
55.62
 10
307.62
 20
55.62
 10
307.62
 20
59.76
 10
307.58
 20
60.12
 10
307.26
 20
60.48
 10
306.9
 20
60.8
 10
306.54
 20
60.84
 10
306.09
 20
60.8
 10
305.64
 20
60.48
 10
305.39
 20
60.12
 10
305.28
 20
59.76
 10
305.28
 20
55.62
 10
303.48
 20
55.62
 10
303.48
 20
64.98
 10
305.28
 20
64.98
 10
305.28
 20
62.1
 10
305.88
 20
62.51
 97
0
 75
1
 76
1
 98
0
  0
LWPOLYLINE
  5
6E
330
17
100
AcDbEntity
  8
FILL_BLACK_000000
370
0
420
0
100
AcDbPolyline
 90
24
 70
1
 10
305.88
 20
62.51
 10
306.56
 20
62.69
 10
307.28
 20
62.66
 10
307.98
 20
62.46
 10
308.66
 20
62.06
 10
309.06
 20
61.38
 10
309.47
 20
60.75
 10
309.6
 20
60.12
 10
309.6
 20
55.62
 10
307.62
 20
55.62
 10
307.62
 20
59.76
 10
307.58
 20
60.12
 10
307.26
 20
60.48
 10
306.9
 20
60.8
 10
306.54
 20
60.84
 10
306.09
 20
60.8
 10
305.64
 20
60.48
 10
305.39
 20
60.12
 10
305.28
 20
59.76
 10
305.28
 20
55.62
 10
303.48
 20
55.62
 10
303.48
 20
64.98
 10
305.28
 20
64.98
 10
305.28
 20
62.1
  0
HATCH
  5
6F
330
17
100
AcDbEntity
  8
FILL_BLACK_000000
 62
7
420
0
100
AcDbHatch
 10
0.0
 20
0.0
 30
0.0
210
0.0
220
0.0
230
1.0
  2
SOLID
 70
1
 71
0
 91
1
 92
3
 72
0
 73
1
 93
23
 10
315.54
 20
62.28
 10
315.54
 20
60.84
 10
313.74
 20
60.84
 10
313.74
 20
57.78
 10
313.92
 20
57.24
 10
314.46
 20
57.06
 10
315.0
 20
57.06
 10
315.54
 20
57.24
 10
315.72
 20
55.62
 10
315.02
 20
55.37
 10
313.92
 20
55.26
 10
313.13
 20
55.4
 10
312.48
 20
55.8
 10
312.21
 20
56.3
 10
311.94
 20
57.06
 10
311.94
 20
60.84
 10
310.86
 20
60.84
 10
310.86
 20
62.28
 10
311.94
 20
62.28
 10
311.94
 20
64.44
 10
313.74
 20
64.98
 10
313.74
 20
62.28
 10
315.54
 20
62.28
 97
0
 75
1
 76
1
 98
0
  0
LWPOLYLINE
  5
70
330
17
100
AcDbEntity
  8
FILL_BLACK_000000
370
0
420
0
100
AcDbPolyline
 90
22
 70
1
 10
315.54
 20
62.28
 10
315.54
 20
60.84
 10
313.74
 20
60.84
 10
313.74
 20
57.78
 10
313.92
 20
57.24
 10
314.46
 20
57.06
 10
315.0
 20
57.06
 10
315.54
 20
57.24
 10
315.72
 20
55.62
 10
315.02
 20
55.37
 10
313.92
 20
55.26
 10
313.13
 20
55.4
 10
312.48
 20
55.8
 10
312.21
 20
56.3
 10
311.94
 20
57.06
 10
311.94
 20
60.84
 10
310.86
 20
60.84
 10
310.86
 20
62.28
 10
311.94
 20
62.28
 10
311.94
 20
64.44
 10
313.74
 20
64.98
 10
313.74
 20
62.28
  0
HATCH
  5
71
330
17
100
AcDbEntity
  8
FILL_BLACK_000000
 62
7
420
0
100
AcDbHatch
 10
0.0
 20
0.0
 30
0.0
210
0.0
220
0.0
230
1.0
  2
SOLID
 70
1
 71
0
 91
2
 92
3
 72
0
 73
1
 93
28
 10
305.68
 20
68.78
 10
304.74
 20
68.58
 10
304.15
 20
68.63
 10
303.6
 20
68.79
 10
303.1
 20
69.05
 10
302.65
 20
69.41
 10
302.26
 20
69.89
 10
301.93
 20
70.48
 10
301.68
 20
71.18
 10
301.5
 20
72.0
 10
301.5
 20
72.9
 10
301.62
 20
73.54
 10
301.83
 20
74.11
 10
302.12
 20
74.6
 10
302.49
 20
75.02
 10
302.93
 20
75.34
 10
303.42
 20
75.58
 10
303.97
 20
75.73
 10
304.56
 20
75.78
 10
305.39
 20
75.74
 10
306.36
 20
75.42
 10
306.36
 20
78.3
 10
308.16
 20
78.3
 10
308.16
 20
68.76
 10
306.36
 20
68.76
 10
306.36
 20
69.12
 10
306.06
 20
68.91
 10
305.68
 20
68.78
 97
0
 92
18
 72
0
 73
1
 93
18
 10
306.34
 20
73.15
 10
306.18
 20
73.26
 10
306.16
 20
73.51
 10
306.0
 20
73.62
 10
305.46
 20
74.03
 10
304.92
 20
74.16
 10
304.31
 20
73.95
 10
303.84
 20
73.6
 10
303.5
 20
73.07
 10
303.3
 20
72.36
 10
303.4
 20
71.52
 10
303.7
 20
70.88
 10
304.21
 20
70.44
 10
304.92
 20
70.2
 10
305.77
 20
70.52
 10
306.36
 20
71.1
 10
306.36
 20
72.9
 10
306.34
 20
73.15
 97
0
 75
1
 76
1
 98
0
  0
LWPOLYLINE
  5
72
330
17
100
AcDbEntity
  8
FILL_BLACK_000000
370
0
420
0
100
AcDbPolyline
 90
27
 70
1
 10
305.68
 20
68.78
 10
304.74
 20
68.58
 10
304.15
 20
68.63
 10
303.6
 20
68.79
 10
303.1
 20
69.05
 10
302.65
 20
69.41
 10
302.26
 20
69.89
 10
301.93
 20
70.48
 10
301.68
 20
71.18
 10
301.5
 20
72.0
 10
301.5
 20
72.9
 10
301.62
 20
73.54
 10
301.83
 20
74.11
 10
302.12
 20
74.6
 10
302.49
 20
75.02
 10
302.93
 20
75.34
 10
303.42
 20
75.58
 10
303.97
 20
75.73
 10
304.56
 20
75.78
 10
305.39
 20
75.74
 10
306.36
 20
75.42
 10
306.36
 20
78.3
 10
308.16
 20
78.3
 10
308.16
 20
68.76
 10
306.36
 20
68.76
 10
306.36
 20
69.12
 10
306.06
 20
68.91
  0
LWPOLYLINE
  5
73
330
17
100
AcDbEntity
  8
FILL_BLACK_000000
370
0
420
0
100
AcDbPolyline
 90
17
 70
1
 10
306.34
 20
73.15
 10
306.18
 20
73.26
 10
306.16
 20
73.51
 10
306.0
 20
73.62
 10
305.46
 20
74.03
 10
304.92
 20
74.16
 10
304.31
 20
73.95
 10
303.84
 20
73.6
 10
303.5
 20
73.07
 10
303.3
 20
72.36
 10
303.4
 20
71.52
 10
303.7
 20
70.88
 10
304.21
 20
70.44
 10
304.92
 20
70.2
 10
305.77
 20
70.52
 10
306.36
 20
71.1
 10
306.36
 20
72.9
  0
HATCH
  5
74
330
17
100
AcDbEntity
  8
FILL_BLACK_000000
 62
7
420
0
100
AcDbHatch
 10
0.0
 20
0.0
 30
0.0
210
0.0
220
0.0
230
1.0
  2
SOLID
 70
1
 71
0
 91
1
 92
3
 72
0
 73
1
 93
5
 10
276.66
 20
57.78
 10
276.66
 20
53.46
 10
263.34
 20
53.46
 10
263.34
 20
57.78
 10
276.66
 20
57.78
 97
0
 75
1
 76
1
 98
0
  0
LWPOLYLINE
  5
75
330
17
100
AcDbEntity
  8
FILL_BLACK_000000
370
0
420
0
100
AcDbPolyline
 90
4
 70
1
 10
276.66
 20
57.78
 10
276.66
 20
53.46
 10
263.34
 20
53.46
 10
263.34
 20
57.78
  0
HATCH
  5
76
330
17
100
AcDbEntity
  8
FILL_BLACK_000000
 62
7
420
0
100
AcDbHatch
 10
0.0
 20
0.0
 30
0.0
210
0.0
220
0.0
230
1.0
  2
SOLID
 70
1
 71
0
 91
1
 92
3
 72
0
 73
1
 93
8
 10
252.0
 20
63.54
 10
239.22
 20
63.54
 10
239.22
 20
68.94
 10
257.76
 20
68.94
 10
257.76
 20
63.54
 10
249.3
 20
42.48
 10
243.54
 20
42.48
 10
252.0
 20
63.54
 97
0
 75
1
 76
1
 98
0
  0
LWPOLYLINE
  5
77
330
17
100
AcDbEntity
  8
FILL_BLACK_000000
370
0
420
0
100
AcDbPolyline
 90
7
 70
1
 10
252.0
 20
63.54
 10
239.22
 20
63.54
 10
239.22
 20
68.94
 10
257.76
 20
68.94
 10
257.76
 20
63.54
 10
249.3
 20
42.48
 10
243.54
 20
42.48
  0
HATCH
  5
78
330
17
100
AcDbEntity
  8
FILL_BLACK_000000
 62
7
420
0
100
AcDbHatch
 10
0.0
 20
0.0
 30
0.0
210
0.0
220
0.0
230
1.0
  2
SOLID
 70
1
 71
0
 91
1
 92
3
 72
0
 73
1
 93
15
 10
334.08
 20
42.48
 10
328.68
 20
42.48
 10
328.68
 20
61.38
 10
324.54
 20
61.38
 10
324.54
 20
66.24
 10
325.66
 20
66.26
 10
326.52
 20
66.42
 10
327.31
 20
66.62
 10
327.96
 20
66.96
 10
328.39
 20
67.25
 10
328.68
 20
67.68
 10
328.93
 20
68.24
 10
329.04
 20
68.94
 10
334.08
 20
68.94
 10
334.08
 20
42.48
 97
0
 75
1
 76
1
 98
0
  0
LWPOLYLINE
  5
79
330
17
100
AcDbEntity
  8
FILL_BLACK_000000
370
0
420
0
100
AcDbPolyline
 90
14
 70
1
 10
334.08
 20
42.48
 10
328.68
 20
42.48
 10
328.68
 20
61.38
 10
324.54
 20
61.38
 10
324.54
 20
66.24
 10
325.66
 20
66.26
 10
326.52
 20
66.42
 10
327.31
 20
66.62
 10
327.96
 20
66.96
 10
328.39
 20
67.25
 10
328.68
 20
67.68
 10
328.93
 20
68.24
 10
329.04
 20
68.94
 10
334.08
 20
68.94
  0
HATCH
  5
7A
330
17
100
AcDbEntity
  8
FILL_BLACK_000000
 62
7
420
0
100
AcDbHatch
 10
0.0
 20
0.0
 30
0.0
210
0.0
220
0.0
230
1.0
  2
SOLID
 70
1
 71
0
 91
1
 92
3
 72
0
 73
1
 93
59
 10
358.92
 20
47.52
 10
358.92
 20
42.48
 10
340.02
 20
42.48
 10
340.02
 20
47.52
 10
346.84
 20
52.22
 10
349.21
 20
54.02
 10
351.0
 20
55.53
 10
352.28
 20
56.8
 10
353.13
 20
57.9
 10
353.64
 20
58.87
 10
353.88
 20
59.76
 10
353.88
 20
60.66
 10
353.7
 20
61.42
 10
353.44
 20
62.08
 10
353.09
 20
62.65
 10
352.64
 20
63.14
 10
352.11
 20
63.53
 10
351.48
 20
63.85
 10
349.92
 20
64.26
 10
348.88
 20
64.16
 10
347.92
 20
63.88
 10
347.06
 20
63.42
 10
346.32
 20
62.82
 10
345.8
 20
62.15
 10
345.42
 20
61.2
 10
345.17
 20
60.19
 10
345.06
 20
59.04
 10
339.48
 20
59.04
 10
339.65
 20
61.47
 10
340.16
 20
63.63
 10
340.53
 20
64.61
 10
341.0
 20
65.52
 10
341.55
 20
66.36
 10
342.18
 20
67.14
 10
342.9
 20
67.77
 10
343.69
 20
68.32
 10
344.57
 20
68.79
 10
345.51
 20
69.17
 10
347.6
 20
69.67
 10
349.92
 20
69.84
 10
352.15
 20
69.69
 10
354.1
 20
69.24
 10
355.78
 20
68.5
 10
357.19
 20
67.48
 10
358.31
 20
66.18
 10
359.16
 20
64.6
 10
359.72
 20
62.76
 10
360.0
 20
60.66
 10
359.82
 20
60.48
 10
359.82
 20
59.94
 10
359.54
 20
58.28
 10
358.98
 20
56.66
 10
358.13
 20
55.08
 10
357.01
 20
53.53
 10
355.6
 20
52.0
 10
353.92
 20
50.5
 10
351.97
 20
49.01
 10
349.74
 20
47.52
 10
358.92
 20
47.52
 97
0
 75
1
 76
1
 98
0
  0
LWPOLYLINE
  5
7B
330
17
100
AcDbEntity
  8
FILL_BLACK_000000
370
0
420
0
100
AcDbPolyline
 90
58
 70
1
 10
358.92
 20
47.52
 10
358.92
 20
42.48
 10
340.02
 20
42.48
 10
340.02
 20
47.52
 10
346.84
 20
52.22
 10
349.21
 20
54.02
 10
351.0
 20
55.53
 10
352.28
 20
56.8
 10
353.13
 20
57.9
 10
353.64
 20
58.87
 10
353.88
 20
59.76
 10
353.88
 20
60.66
 10
353.7
 20
61.42
 10
353.44
 20
62.08
 10
353.09
 20
62.65
 10
352.64
 20
63.14
 10
352.11
 20
63.53
 10
351.48
 20
63.85
 10
349.92
 20
64.26
 10
348.88
 20
64.16
 10
347.92
 20
63.88
 10
347.06
 20
63.42
 10
346.32
 20
62.82
 10
345.8
 20
62.15
 10
345.42
 20
61.2
 10
345.17
 20
60.19
 10
345.06
 20
59.04
 10
339.48
 20
59.04
 10
339.65
 20
61.47
 10
340.16
 20
63.63
 10
340.53
 20
64.61
 10
341.0
 20
65.52
 10
341.55
 20
66.36
 10
342.18
 20
67.14
 10
342.9
 20
67.77
 10
343.69
 20
68.32
 10
344.57
 20
68.79
 10
345.51
 20
69.17
 10
347.6
 20
69.67
 10
349.92
 20
69.84
 10
352.15
 20
69.69
 10
354.1
 20
69.24
 10
355.78
 20
68.5
 10
357.19
 20
67.48
 10
358.31
 20
66.18
 10
359.16
 20
64.6
 10
359.72
 20
62.76
 10
360.0
 20
60.66
 10
359.82
 20
60.48
 10
359.82
 20
59.94
 10
359.54
 20
58.28
 10
358.98
 20
56.66
 10
358.13
 20
55.08
 10
357.01
 20
53.53
 10
355.6
 20
52.0
 10
353.92
 20
50.5
 10
351.97
 20
49.01
 10
349.74
 20
47.52
  0
HATCH
  5
7C
330
17
100
AcDbEntity
  8
FILL_WHITE_FFFFFF
 62
7
420
16777215
100
AcDbHatch
 10
0.0
 20
0.0
 30
0.0
210
0.0
220
0.0
230
1.0
  2
SOLID
 70
1
 71
0
 91
1
 92
3
 72
0
 73
1
 93
10
 10
296.28
 20
211.86
 10
285.12
 20
222.84
 10
285.12
 20
162.0
 10
273.96
 20
162.0
 10
273.96
 20
222.84
 10
262.98
 20
211.86
 10
262.98
 20
228.42
 10
279.54
 20
244.98
 10
296.28
 20
228.42
 10
296.28
 20
211.86
 97
0
 75
1
 76
1
 98
0
  0
LWPOLYLINE
  5
7D
330
17
100
AcDbEntity
  8
FILL_WHITE_FFFFFF
370
0
420
16777215
100
AcDbPolyline
 90
9
 70
1
 10
296.28
 20
211.86
 10
285.12
 20
222.84
 10
285.12
 20
162.0
 10
273.96
 20
162.0
 10
273.96
 20
222.84
 10
262.98
 20
211.86
 10
262.98
 20
228.42
 10
279.54
 20
244.98
 10
296.28
 20
228.42
  0
HATCH
  5
7E
330
17
100
AcDbEntity
  8
FILL_BLACK_000000
 62
7
420
0
100
AcDbHatch
 10
0.0
 20
0.0
 30
0.0
210
0.0
220
0.0
230
1.0
  2
SOLID
 70
1
 71
0
 91
1
 92
3
 72
0
 73
1
 93
26
 10
285.84
 20
45.9
 10
287.46
 20
48.42
 10
288.54
 20
48.06
 10
288.9
 20
47.88
 10
289.08
 20
47.7
 10
288.9
 20
47.52
 10
288.54
 20
47.52
 10
288.0
 20
46.44
 10
296.28
 20
46.44
 10
296.28
 20
45.0
 10
291.6
 20
45.0
 10
291.6
 20
41.94
 10
297.18
 20
41.94
 10
297.18
 20
40.5
 10
291.6
 20
40.5
 10
291.6
 20
34.74
 10
290.34
 20
34.74
 10
290.34
 20
40.5
 10
283.68
 20
40.5
 10
283.68
 20
41.94
 10
290.34
 20
41.94
 10
290.34
 20
45.0
 10
287.1
 20
45.0
 10
285.3
 20
43.02
 10
283.86
 20
43.74
 10
285.84
 20
45.9
 97
0
 75
1
 76
1
 98
0
  0
LWPOLYLINE
  5
7F
330
17
100
AcDbEntity
  8
FILL_BLACK_000000
370
0
420
0
100
AcDbPolyline
 90
25
 70
1
 10
285.84
 20
45.9
 10
287.46
 20
48.42
 10
288.54
 20
48.06
 10
288.9
 20
47.88
 10
289.08
 20
47.7
 10
288.9
 20
47.52
 10
288.54
 20
47.52
 10
288.0
 20
46.44
 10
296.28
 20
46.44
 10
296.28
 20
45.0
 10
291.6
 20
45.0
 10
291.6
 20
41.94
 10
297.18
 20
41.94
 10
297.18
 20
40.5
 10
291.6
 20
40.5
 10
291.6
 20
34.74
 10
290.34
 20
34.74
 10
290.34
 20
40.5
 10
283.68
 20
40.5
 10
283.68
 20
41.94
 10
290.34
 20
41.94
 10
290.34
 20
45.0
 10
287.1
 20
45.0
 10
285.3
 20
43.02
 10
283.86
 20
43.74
  0
HATCH
  5
80
330
17
100
AcDbEntity
  8
FILL_BLACK_000000
 62
7
420
0
100
AcDbHatch
 10
0.0
 20
0.0
 30
0.0
210
0.0
220
0.0
230
1.0
  2
SOLID
 70
1
 71
0
 91
1
 92
3
 72
0
 73
1
 93
12
 10
308.16
 20
46.8
 10
308.16
 20
48.42
 10
309.6
 20
48.24
 10
309.78
 20
48.24
 10
309.78
 20
47.88
 10
309.6
 20
47.7
 10
309.6
 20
46.8
 10
315.18
 20
46.8
 10
315.18
 20
45.36
 10
302.4
 20
45.36
 10
302.4
 20
46.8
 10
308.16
 20
46.8
 97
0
 75
1
 76
1
 98
0
  0
LWPOLYLINE
  5
81
330
17
100
AcDbEntity
  8
FILL_BLACK_000000
370
0
420
0
100
AcDbPolyline
 90
11
 70
1
 10
308.16
 20
46.8
 10
308.16
 20
48.42
 10
309.6
 20
48.24
 10
309.78
 20
48.24
 10
309.78
 20
47.88
 10
309.6
 20
47.7
 10
309.6
 20
46.8
 10
315.18
 20
46.8
 10
315.18
 20
45.36
 10
302.4
 20
45.36
 10
302.4
 20
46.8
  0
HATCH
  5
82
330
17
100
AcDbEntity
  8
FILL_BLACK_000000
 62
7
420
0
100
AcDbHatch
 10
0.0
 20
0.0
 30
0.0
210
0.0
220
0.0
230
1.0
  2
SOLID
 70
1
 71
0
 91
2
 92
3
 72
0
 73
1
 93
30
 10
310.32
 20
44.46
 10
310.14
 20
44.46
 10
309.78
 20
43.56
 10
313.02
 20
43.56
 10
313.38
 20
43.92
 10
314.28
 20
43.02
 10
313.74
 20
41.22
 10
313.2
 20
39.78
 10
312.48
 20
38.52
 10
311.58
 20
37.44
 10
313.56
 20
36.54
 10
315.72
 20
36.0
 10
314.28
 20
34.74
 10
312.48
 20
35.46
 10
310.5
 20
36.54
 10
308.88
 20
35.64
 10
306.72
 20
34.56
 10
305.82
 20
36.0
 10
307.8
 20
36.54
 10
309.42
 20
37.44
 10
307.62
 20
39.78
 10
306.9
 20
39.06
 10
305.64
 20
39.78
 10
306.72
 20
41.04
 10
307.62
 20
42.3
 10
308.52
 20
43.74
 10
309.06
 20
45.36
 10
310.14
 20
44.82
 10
310.5
 20
44.64
 10
310.32
 20
44.46
 97
0
 92
18
 72
0
 73
1
 93
7
 10
310.5
 20
38.34
 10
311.76
 20
40.14
 10
312.48
 20
42.3
 10
309.24
 20
42.3
 10
308.34
 20
41.04
 10
309.42
 20
39.42
 10
310.5
 20
38.34
 97
0
 75
1
 76
1
 98
0
  0
LWPOLYLINE
  5
83
330
17
100
AcDbEntity
  8
FILL_BLACK_000000
370
0
420
0
100
AcDbPolyline
 90
29
 70
1
 10
310.32
 20
44.46
 10
310.14
 20
44.46
 10
309.78
 20
43.56
 10
313.02
 20
43.56
 10
313.38
 20
43.92
 10
314.28
 20
43.02
 10
313.74
 20
41.22
 10
313.2
 20
39.78
 10
312.48
 20
38.52
 10
311.58
 20
37.44
 10
313.56
 20
36.54
 10
315.72
 20
36.0
 10
314.28
 20
34.74
 10
312.48
 20
35.46
 10
310.5
 20
36.54
 10
308.88
 20
35.64
 10
306.72
 20
34.56
 10
305.82
 20
36.0
 10
307.8
 20
36.54
 10
309.42
 20
37.44
 10
307.62
 20
39.78
 10
306.9
 20
39.06
 10
305.64
 20
39.78
 10
306.72
 20
41.04
 10
307.62
 20
42.3
 10
308.52
 20
43.74
 10
309.06
 20
45.36
 10
310.14
 20
44.82
 10
310.5
 20
44.64
  0
LWPOLYLINE
  5
84
330
17
100
AcDbEntity
  8
FILL_BLACK_000000
370
0
420
0
100
AcDbPolyline
 90
6
 70
1
 10
310.5
 20
38.34
 10
311.76
 20
40.14
 10
312.48
 20
42.3
 10
309.24
 20
42.3
 10
308.34
 20
41.04
 10
309.42
 20
39.42
  0
HATCH
  5
85
330
17
100
AcDbEntity
  8
FILL_BLACK_000000
 62
7
420
0
100
AcDbHatch
 10
0.0
 20
0.0
 30
0.0
210
0.0
220
0.0
230
1.0
  2
SOLID
 70
1
 71
0
 91
1
 92
3
 72
0
 73
1
 93
7
 10
310.68
 20
41.22
 10
311.58
 20
40.5
 10
310.68
 20
39.6
 10
309.96
 20
40.5
 10
309.06
 20
41.22
 10
309.96
 20
41.94
 10
310.68
 20
41.22
 97
0
 75
1
 76
1
 98
0
  0
LWPOLYLINE
  5
86
330
17
100
AcDbEntity
  8
FILL_BLACK_000000
370
0
420
0
100
AcDbPolyline
 90
6
 70
1
 10
310.68
 20
41.22
 10
311.58
 20
40.5
 10
310.68
 20
39.6
 10
309.96
 20
40.5
 10
309.06
 20
41.22
 10
309.96
 20
41.94
  0
HATCH
  5
87
330
17
100
AcDbEntity
  8
FILL_BLACK_000000
 62
7
420
0
100
AcDbHatch
 10
0.0
 20
0.0
 30
0.0
210
0.0
220
0.0
230
1.0
  2
SOLID
 70
1
 71
0
 91
1
 92
3
 72
0
 73
1
 93
16
 10
306.9
 20
44.64
 10
306.9
 20
44.46
 10
306.72
 20
44.46
 10
306.54
 20
44.28
 10
305.46
 20
42.12
 10
305.46
 20
34.74
 10
304.02
 20
34.74
 10
304.02
 20
40.32
 10
302.76
 20
39.06
 10
301.68
 20
40.14
 10
302.94
 20
41.4
 10
304.02
 20
42.66
 10
304.74
 20
43.92
 10
305.28
 20
45.18
 10
306.72
 20
44.82
 10
306.9
 20
44.64
 97
0
 75
1
 76
1
 98
0
  0
LWPOLYLINE
  5
88
330
17
100
AcDbEntity
  8
FILL_BLACK_000000
370
0
420
0
100
AcDbPolyline
 90
15
 70
1
 10
306.9
 20
44.64
 10
306.9
 20
44.46
 10
306.72
 20
44.46
 10
306.54
 20
44.28
 10
305.46
 20
42.12
 10
305.46
 20
34.74
 10
304.02
 20
34.74
 10
304.02
 20
40.32
 10
302.76
 20
39.06
 10
301.68
 20
40.14
 10
302.94
 20
41.4
 10
304.02
 20
42.66
 10
304.74
 20
43.92
 10
305.28
 20
45.18
 10
306.72
 20
44.82
  0
HATCH
  5
89
330
17
100
AcDbEntity
  8
FILL_BLACK_000000
 62
7
420
0
100
AcDbHatch
 10
0.0
 20
0.0
 30
0.0
210
0.0
220
0.0
230
1.0
  2
SOLID
 70
1
 71
0
 91
1
 92
3
 72
0
 73
1
 93
17
 10
206.64
 20
54.9
 10
206.82
 20
54.72
 10
206.82
 20
54.54
 10
206.46
 20
54.36
 10
206.46
 20
50.04
 10
211.68
 20
50.04
 10
211.68
 20
48.78
 10
206.46
 20
48.78
 10
206.46
 20
43.56
 10
213.12
 20
43.56
 10
213.12
 20
42.12
 10
199.62
 20
42.12
 10
199.62
 20
43.56
 10
205.02
 20
43.56
 10
205.02
 20
55.08
 10
206.1
 20
54.9
 10
206.64
 20
54.9
 97
0
 75
1
 76
1
 98
0
  0
LWPOLYLINE
  5
8A
330
17
100
AcDbEntity
  8
FILL_BLACK_000000
370
0
420
0
100
AcDbPolyline
 90
16
 70
1
 10
206.64
 20
54.9
 10
206.82
 20
54.72
 10
206.82
 20
54.54
 10
206.46
 20
54.36
 10
206.46
 20
50.04
 10
211.68
 20
50.04
 10
211.68
 20
48.78
 10
206.46
 20
48.78
 10
206.46
 20
43.56
 10
213.12
 20
43.56
 10
213.12
 20
42.12
 10
199.62
 20
42.12
 10
199.62
 20
43.56
 10
205.02
 20
43.56
 10
205.02
 20
55.08
 10
206.1
 20
54.9
  0
HATCH
  5
8B
330
17
100
AcDbEntity
  8
FILL_BLACK_000000
 62
7
420
0
100
AcDbHatch
 10
0.0
 20
0.0
 30
0.0
210
0.0
220
0.0
230
1.0
  2
SOLID
 70
1
 71
0
 91
1
 92
3
 72
0
 73
1
 93
26
 10
219.96
 20
52.56
 10
221.76
 20
55.08
 10
222.66
 20
54.72
 10
223.02
 20
54.54
 10
223.2
 20
54.36
 10
223.02
 20
54.18
 10
222.84
 20
54.18
 10
222.12
 20
52.92
 10
230.4
 20
52.92
 10
230.4
 20
51.66
 10
225.9
 20
51.66
 10
225.9
 20
48.6
 10
231.48
 20
48.6
 10
231.48
 20
47.16
 10
225.9
 20
47.16
 10
225.9
 20
41.4
 10
224.46
 20
41.4
 10
224.46
 20
47.16
 10
217.98
 20
47.16
 10
217.98
 20
48.6
 10
224.46
 20
48.6
 10
224.46
 20
51.66
 10
221.22
 20
51.66
 10
219.42
 20
49.5
 10
218.16
 20
50.4
 10
219.96
 20
52.56
 97
0
 75
1
 76
1
 98
0
  0
LWPOLYLINE
  5
8C
330
17
100
AcDbEntity
  8
FILL_BLACK_000000
370
0
420
0
100
AcDbPolyline
 90
25
 70
1
 10
219.96
 20
52.56
 10
221.76
 20
55.08
 10
222.66
 20
54.72
 10
223.02
 20
54.54
 10
223.2
 20
54.36
 10
223.02
 20
54.18
 10
222.84
 20
54.18
 10
222.12
 20
52.92
 10
230.4
 20
52.92
 10
230.4
 20
51.66
 10
225.9
 20
51.66
 10
225.9
 20
48.6
 10
231.48
 20
48.6
 10
231.48
 20
47.16
 10
225.9
 20
47.16
 10
225.9
 20
41.4
 10
224.46
 20
41.4
 10
224.46
 20
47.16
 10
217.98
 20
47.16
 10
217.98
 20
48.6
 10
224.46
 20
48.6
 10
224.46
 20
51.66
 10
221.22
 20
51.66
 10
219.42
 20
49.5
 10
218.16
 20
50.4
  0
LWPOLYLINE
  5
8E
330
17
100
AcDbEntity
  8
STROKE_BLUE_0000FF
370
0
420
255
100
AcDbPolyline
 90
17
 70
0
 10
122.76000000000022
 20
266.0401999999999
 10
121.49332031250023
 20
265.9758640624999
 10
120.26250000000022
 20
265.7870749999999
 10
119.07386718750021
 20
265.48016093749993
 10
117.93375000000022
 20
265.0614499999999
 10
116.84847656250021
 20
264.5372703124999
 10
115.82437500000023
 20
263.9139499999999
 10
114.86777343750022
 20
263.19781718749994
 10
113.98500000000023
 20
262.39519999999993
 10
113.18238281250021
 20
261.5124265624999
 10
112.46625000000023
 20
260.5558249999999
 10
111.8429296875002
 20
259.5317234374999
 10
111.31875000000022
 20
258.4464499999999
 10
110.90003906250021
 20
257.30633281249993
 10
110.59312500000021
 20
256.1176999999999
 10
110.40433593750022
 20
254.8868796874999
 10
110.34000000000022
 20
253.6201999999999
  0
LWPOLYLINE
  5
8F
330
17
100
AcDbEntity
  8
STROKE_BLUE_0000FF
370
0
420
255
100
AcDbPolyline
 90
2
 70
0
 10
446.5799999999999
 20
266.0401999999999
 10
122.75999999999993
 20
266.0401999999999
  0
LWPOLYLINE
  5
90
330
17
100
AcDbEntity
  8
STROKE_BLUE_0000FF
370
0
420
255
100
AcDbPolyline
 90
17
 70
0
 10
459.0
 20
253.62009999999987
 10
458.9356640625
 20
254.88677968749985
 10
458.746875
 20
256.11759999999987
 10
458.43996093749996
 20
257.30623281249984
 10
458.02125
 20
258.4463499999999
 10
457.4970703125
 20
259.5316234374999
 10
456.87375000000003
 20
260.5557249999999
 10
456.15761718749997
 20
261.5123265624999
 10
455.355
 20
262.39509999999984
 10
454.4722265625
 20
263.19771718749985
 10
453.515625
 20
263.91384999999985
 10
452.4915234375
 20
264.5371703124999
 10
451.40625000000006
 20
265.0613499999999
 10
450.2661328125
 20
265.48006093749984
 10
449.0775
 20
265.78697499999987
 10
447.8466796875
 20
265.9757640624999
 10
446.58
 20
266.0400999999999
  0
LWPOLYLINE
  5
91
330
17
100
AcDbEntity
  8
STROKE_BLUE_0000FF
370
0
420
255
100
AcDbPolyline
 90
2
 70
0
 10
459.0
 20
18.360099999999647
 10
459.0
 20
253.62009999999964
  0
LWPOLYLINE
  5
92
330
17
100
AcDbEntity
  8
STROKE_BLUE_0000FF
370
0
420
255
100
AcDbPolyline
 90
17
 70
0
 10
446.5799999999999
 20
5.939999999999827
 10
447.87634277343744
 20
6.002358398437309
 10
449.1291796874999
 20
6.185742187499841
 10
450.33297363281247
 20
6.484614257812382
 10
451.4821874999999
 20
6.893437499999834
 10
452.5712841796874
 20
7.406674804687327
 10
453.5947265624999
 20
8.018789062499877
 10
454.5469775390625
 20
8.72424316406233
 10
455.42249999999996
 20
9.517499999999814
 10
456.21575683593744
 20
10.393022460937289
 10
456.9212109374999
 20
11.345273437499827
 10
457.5333251953124
 20
12.368715820312332
 10
458.04656249999994
 20
13.457812499999818
 10
458.45538574218745
 20
14.607026367187302
 10
458.75425781249993
 20
15.8108203124998
 10
458.9376416015624
 20
17.063657226562327
 10
458.99999999999994
 20
18.359999999999815
  0
LWPOLYLINE
  5
93
330
17
100
AcDbEntity
  8
STROKE_BLUE_0000FF
370
0
420
255
100
AcDbPolyline
 90
2
 70
0
 10
122.76000000000022
 20
5.939999999999827
 10
446.5800000000002
 20
5.939999999999827
  0
LWPOLYLINE
  5
94
330
17
100
AcDbEntity
  8
STROKE_BLUE_0000FF
370
0
420
255
100
AcDbPolyline
 90
17
 70
0
 10
110.33990000000085
 20
18.360099999999647
 10
110.40423593750086
 20
17.06375722656213
 10
110.59302500000085
 20
15.810920312499604
 10
110.89993906250085
 20
14.607126367187163
 10
111.31865000000086
 20
13.45791249999968
 10
111.84282968750084
 20
12.368815820312193
 10
112.46615000000085
 20
11.345373437499632
 10
113.18228281250084
 20
10.39312246093715
 10
113.98490000000085
 20
9.517599999999618
 10
114.86767343750083
 20
8.724343164062077
 10
115.82427500000085
 20
8.018889062499625
 10
116.84837656250085
 20
7.406774804687132
 10
117.93365000000085
 20
6.893537499999638
 10
119.07376718750085
 20
6.484714257812129
 10
120.26240000000085
 20
6.185842187499645
 10
121.49322031250085
 20
6.002458398437113
 10
122.75990000000085
 20
5.940099999999632
  0
LWPOLYLINE
  5
95
330
17
100
AcDbEntity
  8
STROKE_BLUE_0000FF
370
0
420
255
100
AcDbPolyline
 90
2
 70
0
 10
110.33990000000085
 20
253.62009999999987
 10
110.33990000000085
 20
18.360099999999875
  0
ENDSEC
  0
SECTION
  2
OBJECTS
  0
DICTIONARY
  5
A
330
0
100
AcDbDictionary
281
1
  3
ACAD_COLOR
350
B
  3
ACAD_GROUP
350
C
  3
ACAD_LAYOUT
350
D
  3
ACAD_MATERIAL
350
E
  3
ACAD_MLEADERSTYLE
350
F
  3
ACAD_MLINESTYLE
350
10
  3
ACAD_PLOTSETTINGS
350
11
  3
ACAD_PLOTSTYLENAME
350
12
  3
ACAD_SCALELIST
350
14
  3
ACAD_TABLESTYLE
350
15
  3
ACAD_VISUALSTYLE
350
16
  3
EZDXF_META
350
2D
  0
DICTIONARY
  5
B
330
A
100
AcDbDictionary
281
1
  0
DICTIONARY
  5
C
330
A
100
AcDbDictionary
281
1
  0
DICTIONARY
  5
D
330
A
100
AcDbDictionary
281
1
  3
Model
350
1A
  3
Layout1
350
1E
  0
DICTIONARY
  5
E
330
A
100
AcDbDictionary
281
1
  3
ByBlock
350
1F
  3
ByLayer
350
20
  3
Global
350
21
  0
DICTIONARY
  5
F
330
A
100
AcDbDictionary
281
1
  3
Standard
350
2C
  0
DICTIONARY
  5
10
330
A
100
AcDbDictionary
281
1
  3
Standard
350
22
  0
DICTIONARY
  5
11
330
A
100
AcDbDictionary
281
1
  0
ACDBDICTIONARYWDFLT
  5
12
330
A
100
AcDbDictionary
281
1
  3
Normal
350
13
100
AcDbDictionaryWithDefault
340
13
  0
ACDBPLACEHOLDER
  5
13
330
12
  0
DICTIONARY
  5
14
330
A
100
AcDbDictionary
281
1
  0
DICTIONARY
  5
15
330
A
100
AcDbDictionary
281
1
  0
DICTIONARY
  5
16
330
A
100
AcDbDictionary
281
1
  0
LAYOUT
  5
1A
330
D
100
AcDbPlotSettings
  1

  4
A3
  6

 40
7.5
 41
20.0
 42
7.5
 43
20.0
 44
420.0
 45
297.0
 46
0.0
 47
0.0
 48
0.0
 49
0.0
140
0.0
141
0.0
142
1.0
143
1.0
 70
1024
 72
1
 73
0
 74
5
  7

 75
16
 76
0
 77
2
 78
300
147
1.0
148
0.0
149
0.0
100
AcDbLayout
  1
Model
 70
1
 71
0
 10
0.0
 20
0.0
 11
420.0
 21
297.0
 12
0.0
 22
0.0
 32
0.0
 14
1e+20
 24
1e+20
 34
1e+20
 15
-1e+20
 25
-1e+20
 35
-1e+20
146
0.0
 13
0.0
 23
0.0
 33
0.0
 16
1.0
 26
0.0
 36
0.0
 17
0.0
 27
1.0
 37
0.0
 76
1
330
17
  0
LAYOUT
  5
1E
330
D
100
AcDbPlotSettings
  1

  4
A3
  6

 40
7.5
 41
20.0
 42
7.5
 43
20.0
 44
420.0
 45
297.0
 46
0.0
 47
0.0
 48
0.0
 49
0.0
140
0.0
141
0.0
142
1.0
143
1.0
 70
0
 72
1
 73
0
 74
5
  7

 75
16
 76
0
 77
2
 78
300
147
1.0
148
0.0
149
0.0
100
AcDbLayout
  1
Layout1
 70
1
 71
1
 10
0.0
 20
0.0
 11
420.0
 21
297.0
 12
0.0
 22
0.0
 32
0.0
 14
1e+20
 24
1e+20
 34
1e+20
 15
-1e+20
 25
-1e+20
 35
-1e+20
146
0.0
 13
0.0
 23
0.0
 33
0.0
 16
1.0
 26
0.0
 36
0.0
 17
0.0
 27
1.0
 37
0.0
 76
1
330
1B
  0
MATERIAL
  5
1F
102
{ACAD_REACTORS
330
E
102
}
330
E
100
AcDbMaterial
  1
ByBlock
  2

 70
0
 40
1.0
 71
1
 41
1.0
 91
-1023410177
 42
1.0
 72
1
  3

 73
1
 74
1
 75
1
 44
0.5
 73
0
 45
1.0
 46
1.0
 77
1
  4

 78
1
 79
1
170
1
 48
1.0
171
1
  6

172
1
173
1
174
1
140
1.0
141
1.0
175
1
  7

176
1
177
1
178
1
143
1.0
179
1
  8

270
1
271
1
272
1
145
1.0
146
1.0
273
1
  9

274
1
275
1
276
1
 42
1.0
 72
1
  3

 73
1
 74
1
 75
1
 94
63
  0
MATERIAL
  5
20
102
{ACAD_REACTORS
330
E
102
}
330
E
100
AcDbMaterial
  1
ByLayer
  2

 70
0
 40
1.0
 71
1
 41
1.0
 91
-1023410177
 42
1.0
 72
1
  3

 73
1
 74
1
 75
1
 44
0.5
 73
0
 45
1.0
 46
1.0
 77
1
  4

 78
1
 79
1
170
1
 48
1.0
171
1
  6

172
1
173
1
174
1
140
1.0
141
1.0
175
1
  7

176
1
177
1
178
1
143
1.0
179
1
  8

270
1
271
1
272
1
145
1.0
146
1.0
273
1
  9

274
1
275
1
276
1
 42
1.0
 72
1
  3

 73
1
 74
1
 75
1
 94
63
  0
MATERIAL
  5
21
102
{ACAD_REACTORS
330
E
102
}
330
E
100
AcDbMaterial
  1
Global
  2

 70
0
 40
1.0
 71
1
 41
1.0
 91
-1023410177
 42
1.0
 72
1
  3

 73
1
 74
1
 75
1
 44
0.5
 73
0
 45
1.0
 46
1.0
 77
1
  4

 78
1
 79
1
170
1
 48
1.0
171
1
  6

172
1
173
1
174
1
140
1.0
141
1.0
175
1
  7

176
1
177
1
178
1
143
1.0
179
1
  8

270
1
271
1
272
1
145
1.0
146
1.0
273
1
  9

274
1
275
1
276
1
 42
1.0
 72
1
  3

 73
1
 74
1
 75
1
 94
63
  0
MLINESTYLE
  5
22
102
{ACAD_REACTORS
330
10
102
}
330
10
100
AcDbMlineStyle
  2
Standard
 70
0
  3

 62
256
 51
90.0
 52
90.0
 71
2
 49
0.5
 62
256
  6
BYLAYER
 49
-0.5
 62
256
  6
BYLAYER
  0
MLEADERSTYLE
  5
2C
102
{ACAD_REACTORS
330
F
102
}
330
F
100
AcDbMLeaderStyle
179
2
170
2
171
1
172
0
 90
2
 40
0.0
 41
0.0
173
1
 91
-1056964608
 92
-2
290
1
 42
2.0
291
1
 43
8.0
  3
Standard
 44
4.0
300

342
29
174
1
175
1
176
0
178
1
 93
-1056964608
 45
4.0
292
0
297
0
 46
4.0
 94
-1056964608
 47
1.0
 49
1.0
140
1.0
294
1
141
0.0
177
0
142
1.0
295
0
296
0
143
3.75
271
0
272
9
273
9
  0
DICTIONARY
  5
2D
330
A
100
AcDbDictionary
280
1
281
1
  3
CREATED_BY_EZDXF
350
2E
  3
WRITTEN_BY_EZDXF
350
98
  0
DICTIONARYVAR
  5
2E
330
2D
100
DictionaryVariables
280
0
  1
1.4.4 @ 2026-07-10T01:53:37.193197+00:00
  0
DICTIONARYVAR
  5
98
330
2D
100
DictionaryVariables
280
0
  1
1.4.4 @ 2026-07-10T01:53:37.201197+00:00
  0
ENDSEC
  0
EOF
