  0
SECTION
  2
HEADER
  9
$ACADVER
  1
AC1024
  9
$ACADMAINTVER
 70
6
  9
$DWGCODEPAGE
  3
ANSI_1252
  9
$LASTSAVEDBY
  1
ezdxf
  9
$INSBASE
 10
0.0
 20
0.0
 30
0.0
  9
$EXTMIN
 10
1e+20
 20
1e+20
 30
1e+20
  9
$EXTMAX
 10
-1e+20
 20
-1e+20
 30
-1e+20
  9
$LIMMIN
 10
0.0
 20
0.0
  9
$LIMMAX
 10
420.0
 20
297.0
  9
$ORTHOMODE
 70
0
  9
$REGENMODE
 70
1
  9
$FILLMODE
 70
1
  9
$QTEXTMODE
 70
0
  9
$MIRRTEXT
 70
1
  9
$LTSCALE
 40
1.0
  9
$ATTMODE
 70
1
  9
$TEXTSIZE
 40
2.5
  9
$TRACEWID
 40
1.0
  9
$TEXTSTYLE
  7
Standard
  9
$CLAYER
  8
0
  9
$CELTYPE
  6
ByLayer
  9
$CECOLOR
 62
256
  9
$CELTSCALE
 40
1.0
  9
$DISPSILH
 70
0
  9
$DIMSCALE
 40
1.0
  9
$DIMASZ
 40
2.5
  9
$DIMEXO
 40
0.625
  9
$DIMDLI
 40
3.75
  9
$DIMRND
 40
0.0
  9
$DIMDLE
 40
0.0
  9
$DIMEXE
 40
1.25
  9
$DIMTP
 40
0.0
  9
$DIMTM
 40
0.0
  9
$DIMTXT
 40
2.5
  9
$DIMCEN
 40
2.5
  9
$DIMTSZ
 40
0.0
  9
$DIMTOL
 70
0
  9
$DIMLIM
 70
0
  9
$DIMTIH
 70
0
  9
$DIMTOH
 70
0
  9
$DIMSE1
 70
0
  9
$DIMSE2
 70
0
  9
$DIMTAD
 70
1
  9
$DIMZIN
 70
8
  9
$DIMBLK
  1

  9
$DIMASO
 70
1
  9
$DIMSHO
 70
1
  9
$DIMPOST
  1

  9
$DIMAPOST
  1

  9
$DIMALT
 70
0
  9
$DIMALTD
 70
3
  9
$DIMALTF
 40
0.03937007874
  9
$DIMLFAC
 40
1.0
  9
$DIMTOFL
 70
1
  9
$DIMTVP
 40
0.0
  9
$DIMTIX
 70
0
  9
$DIMSOXD
 70
0
  9
$DIMSAH
 70
0
  9
$DIMBLK1
  1

  9
$DIMBLK2
  1

  9
$DIMSTYLE
  2
ISO-25
  9
$DIMCLRD
 70
0
  9
$DIMCLRE
 70
0
  9
$DIMCLRT
 70
0
  9
$DIMTFAC
 40
1.0
  9
$DIMGAP
 40
0.625
  9
$DIMJUST
 70
0
  9
$DIMSD1
 70
0
  9
$DIMSD2
 70
0
  9
$DIMTOLJ
 70
0
  9
$DIMTZIN
 70
8
  9
$DIMALTZ
 70
0
  9
$DIMALTTZ
 70
0
  9
$DIMUPT
 70
0
  9
$DIMDEC
 70
2
  9
$DIMTDEC
 70
2
  9
$DIMALTU
 70
2
  9
$DIMALTTD
 70
3
  9
$DIMTXSTY
  7
Standard
  9
$DIMAUNIT
 70
0
  9
$DIMADEC
 70
0
  9
$DIMALTRND
 40
0.0
  9
$DIMAZIN
 70
0
  9
$DIMDSEP
 70
44
  9
$DIMATFIT
 70
3
  9
$DIMFRAC
 70
0
  9
$DIMLDRBLK
  1

  9
$DIMLUNIT
 70
2
  9
$DIMLWD
 70
-2
  9
$DIMLWE
 70
-2
  9
$DIMTMOVE
 70
0
  9
$DIMFXL
 40
1.0
  9
$DIMFXLON
 70
0
  9
$DIMJOGANG
 40
0.785398163397
  9
$DIMTFILL
 70
0
  9
$DIMTFILLCLR
 70
0
  9
$DIMARCSYM
 70
0
  9
$DIMLTYPE
  6

  9
$DIMLTEX1
  6

  9
$DIMLTEX2
  6

  9
$DIMTXTDIRECTION
 70
0
  9
$LUNITS
 70
2
  9
$LUPREC
 70
4
  9
$SKETCHINC
 40
1.0
  9
$FILLETRAD
 40
10.0
  9
$AUNITS
 70
0
  9
$AUPREC
 70
2
  9
$MENU
  1
.
  9
$ELEVATION
 40
0.0
  9
$PELEVATION
 40
0.0
  9
$THICKNESS
 40
0.0
  9
$LIMCHECK
 70
0
  9
$CHAMFERA
 40
0.0
  9
$CHAMFERB
 40
0.0
  9
$CHAMFERC
 40
0.0
  9
$CHAMFERD
 40
0.0
  9
$SKPOLY
 70
0
  9
$TDCREATE
 40
2461232.4124305556
  9
$TDUCREATE
 40
2458532.153996898
  9
$TDUPDATE
 40
2461232.4124305556
  9
$TDUUPDATE
 40
2458532.1544311
  9
$TDINDWG
 40
0.0
  9
$TDUSRTIMER
 40
0.0
  9
$USRTIMER
 70
1
  9
$ANGBASE
 50
0.0
  9
$ANGDIR
 70
0
  9
$PDMODE
 70
0
  9
$PDSIZE
 40
0.0
  9
$PLINEWID
 40
0.0
  9
$SPLFRAME
 70
0
  9
$SPLINETYPE
 70
6
  9
$SPLINESEGS
 70
8
  9
$HANDSEED
  5
54
  9
$SURFTAB1
 70
6
  9
$SURFTAB2
 70
6
  9
$SURFTYPE
 70
6
  9
$SURFU
 70
6
  9
$SURFV
 70
6
  9
$UCSBASE
  2

  9
$UCSNAME
  2

  9
$UCSORG
 10
0.0
 20
0.0
 30
0.0
  9
$UCSXDIR
 10
1.0
 20
0.0
 30
0.0
  9
$UCSYDIR
 10
0.0
 20
1.0
 30
0.0
  9
$UCSORTHOREF
  2

  9
$UCSORTHOVIEW
 70
0
  9
$UCSORGTOP
 10
0.0
 20
0.0
 30
0.0
  9
$UCSORGBOTTOM
 10
0.0
 20
0.0
 30
0.0
  9
$UCSORGLEFT
 10
0.0
 20
0.0
 30
0.0
  9
$UCSORGRIGHT
 10
0.0
 20
0.0
 30
0.0
  9
$UCSORGFRONT
 10
0.0
 20
0.0
 30
0.0
  9
$UCSORGBACK
 10
0.0
 20
0.0
 30
0.0
  9
$PUCSBASE
  2

  9
$PUCSNAME
  2

  9
$PUCSORG
 10
0.0
 20
0.0
 30
0.0
  9
$PUCSXDIR
 10
1.0
 20
0.0
 30
0.0
  9
$PUCSYDIR
 10
0.0
 20
1.0
 30
0.0
  9
$PUCSORTHOREF
  2

  9
$PUCSORTHOVIEW
 70
0
  9
$PUCSORGTOP
 10
0.0
 20
0.0
 30
0.0
  9
$PUCSORGBOTTOM
 10
0.0
 20
0.0
 30
0.0
  9
$PUCSORGLEFT
 10
0.0
 20
0.0
 30
0.0
  9
$PUCSORGRIGHT
 10
0.0
 20
0.0
 30
0.0
  9
$PUCSORGFRONT
 10
0.0
 20
0.0
 30
0.0
  9
$PUCSORGBACK
 10
0.0
 20
0.0
 30
0.0
  9
$USERI1
 70
0
  9
$USERI2
 70
0
  9
$USERI3
 70
0
  9
$USERI4
 70
0
  9
$USERI5
 70
0
  9
$USERR1
 40
0.0
  9
$USERR2
 40
0.0
  9
$USERR3
 40
0.0
  9
$USERR4
 40
0.0
  9
$USERR5
 40
0.0
  9
$WORLDVIEW
 70
1
  9
$SHADEDGE
 70
3
  9
$SHADEDIF
 70
70
  9
$TILEMODE
 70
1
  9
$MAXACTVP
 70
64
  9
$PINSBASE
 10
0.0
 20
0.0
 30
0.0
  9
$PLIMCHECK
 70
0
  9
$PEXTMIN
 10
1e+20
 20
1e+20
 30
1e+20
  9
$PEXTMAX
 10
-1e+20
 20
-1e+20
 30
-1e+20
  9
$PLIMMIN
 10
0.0
 20
0.0
  9
$PLIMMAX
 10
420.0
 20
297.0
  9
$UNITMODE
 70
0
  9
$VISRETAIN
 70
1
  9
$PLINEGEN
 70
0
  9
$PSLTSCALE
 70
1
  9
$TREEDEPTH
 70
3020
  9
$CMLSTYLE
  2
Standard
  9
$CMLJUST
 70
0
  9
$CMLSCALE
 40
20.0
  9
$PROXYGRAPHICS
 70
1
  9
$MEASUREMENT
 70
1
  9
$CELWEIGHT
370
-1
  9
$ENDCAPS
280
0
  9
$JOINSTYLE
280
0
  9
$LWDISPLAY
290
0
  9
$INSUNITS
 70
6
  9
$HYPERLINKBASE
  1

  9
$STYLESHEET
  1

  9
$XEDIT
290
1
  9
$CEPSNTYPE
380
0
  9
$PSTYLEMODE
290
1
  9
$FINGERPRINTGUID
  2
{478CCCD0-41E7-4659-958F-8EE9B66A0A77}
  9
$VERSIONGUID
  2
{5F383BB8-0457-4A10-AECF-B467D4A6FACD}
  9
$EXTNAMES
290
1
  9
$PSVPSCALE
 40
0.0
  9
$OLESTARTUP
290
0
  9
$SORTENTS
280
127
  9
$INDEXCTL
280
0
  9
$HIDETEXT
280
1
  9
$XCLIPFRAME
280
1
  9
$HALOGAP
280
0
  9
$OBSCOLOR
 70
257
  9
$OBSLTYPE
280
0
  9
$INTERSECTIONDISPLAY
280
0
  9
$INTERSECTIONCOLOR
 70
257
  9
$DIMASSOC
280
2
  9
$PROJECTNAME
  1

  9
$CAMERADISPLAY
290
0
  9
$LENSLENGTH
 40
50.0
  9
$CAMERAHEIGHT
 40
0.0
  9
$STEPSPERSEC
 40
24.0
  9
$STEPSIZE
 40
100.0
  9
$3DDWFPREC
 40
2.0
  9
$PSOLWIDTH
 40
0.005
  9
$PSOLHEIGHT
 40
0.08
  9
$LOFTANG1
 40
1.570796326795
  9
$LOFTANG2
 40
1.570796326795
  9
$LOFTMAG1
 40
0.0
  9
$LOFTMAG2
 40
0.0
  9
$LOFTPARAM
 70
7
  9
$LOFTNORMALS
280
1
  9
$LATITUDE
 40
37.795
  9
$LONGITUDE
 40
-122.394
  9
$NORTHDIRECTION
 40
0.0
  9
$TIMEZONE
 70
-8000
  9
$LIGHTGLYPHDISPLAY
280
1
  9
$TILEMODELIGHTSYNCH
280
1
  9
$CMATERIAL
347
20
  9
$SOLIDHIST
280
0
  9
$SHOWHIST
280
1
  9
$DWFFRAME
280
2
  9
$DGNFRAME
280
2
  9
$REALWORLDSCALE
290
1
  9
$INTERFERECOLOR
 62
256
  9
$CSHADOW
280
0
  9
$SHADOWPLANELOCATION
 40
0.0
  0
ENDSEC
  0
SECTION
  2
CLASSES
  0
CLASS
  1
ACDBDICTIONARYWDFLT
  2
AcDbDictionaryWithDefault
  3
ObjectDBX Classes
 90
0
 91
0
280
0
281
0
  0
CLASS
  1
SUN
  2
AcDbSun
  3
SCENEOE
 90
1153
 91
0
280
0
281
0
  0
CLASS
  1
VISUALSTYLE
  2
AcDbVisualStyle
  3
ObjectDBX Classes
 90
4095
 91
0
280
0
281
0
  0
CLASS
  1
MATERIAL
  2
AcDbMaterial
  3
ObjectDBX Classes
 90
1153
 91
0
280
0
281
0
  0
CLASS
  1
SCALE
  2
AcDbScale
  3
ObjectDBX Classes
 90
1153
 91
0
280
0
281
0
  0
CLASS
  1
TABLESTYLE
  2
AcDbTableStyle
  3
ObjectDBX Classes
 90
4095
 91
0
280
0
281
0
  0
CLASS
  1
MLEADERSTYLE
  2
AcDbMLeaderStyle
  3
ACDB_MLEADERSTYLE_CLASS
 90
4095
 91
0
280
0
281
0
  0
CLASS
  1
DICTIONARYVAR
  2
AcDbDictionaryVar
  3
ObjectDBX Classes
 90
0
 91
0
280
0
281
0
  0
CLASS
  1
CELLSTYLEMAP
  2
AcDbCellStyleMap
  3
ObjectDBX Classes
 90
1152
 91
0
280
0
281
0
  0
CLASS
  1
MENTALRAYRENDERSETTINGS
  2
AcDbMentalRayRenderSettings
  3
SCENEOE
 90
1024
 91
0
280
0
281
0
  0
CLASS
  1
ACDBDETAILVIEWSTYLE
  2
AcDbDetailViewStyle
  3
ObjectDBX Classes
 90
1025
 91
0
280
0
281
0
  0
CLASS
  1
ACDBSECTIONVIEWSTYLE
  2
AcDbSectionViewStyle
  3
ObjectDBX Classes
 90
1025
 91
0
280
0
281
0
  0
CLASS
  1
RASTERVARIABLES
  2
AcDbRasterVariables
  3
ISM
 90
0
 91
0
280
0
281
0
  0
CLASS
  1
ACDBPLACEHOLDER
  2
AcDbPlaceHolder
  3
ObjectDBX Classes
 90
0
 91
0
280
0
281
0
  0
CLASS
  1
LAYOUT
  2
AcDbLayout
  3
ObjectDBX Classes
 90
0
 91
0
280
0
281
0
  0
ENDSEC
  0
SECTION
  2
TABLES
  0
TABLE
  2
VPORT
  5
8
330
0
100
AcDbSymbolTable
 70
1
  0
VPORT
  5
23
330
8
100
AcDbSymbolTableRecord
100
AcDbViewportTableRecord
  2
*Active
 70
0
 10
0.0
 20
0.0
 11
1.0
 21
1.0
 12
0.0
 22
0.0
 13
0.0
 23
0.0
 14
0.5
 24
0.5
 15
0.5
 25
0.5
 16
0.0
 26
0.0
 36
1.0
 17
0.0
 27
0.0
 37
0.0
 40
1000.0
 41
1.34
 42
50.0
 43
0.0
 44
0.0
 50
0.0
 51
0.0
 71
0
 72
1000
 73
1
 74
3
 75
0
 76
0
 77
0
 78
0
281
0
 65
0
146
0.0
  0
ENDTAB
  0
TABLE
  2
LTYPE
  5
2
330
0
100
AcDbSymbolTable
 70
3
  0
LTYPE
  5
24
330
2
100
AcDbSymbolTableRecord
100
AcDbLinetypeTableRecord
  2
ByBlock
 70
0
  3

 72
65
 73
0
 40
0.0
  0
LTYPE
  5
25
330
2
100
AcDbSymbolTableRecord
100
AcDbLinetypeTableRecord
  2
ByLayer
 70
0
  3

 72
65
 73
0
 40
0.0
  0
LTYPE
  5
26
330
2
100
AcDbSymbolTableRecord
100
AcDbLinetypeTableRecord
  2
Continuous
 70
0
  3

 72
65
 73
0
 40
0.0
  0
ENDTAB
  0
TABLE
  2
LAYER
  5
1
330
0
100
AcDbSymbolTable
 70
7
  0
LAYER
  5
27
330
1
100
AcDbSymbolTableRecord
100
AcDbLayerTableRecord
  2
0
 70
0
 62
7
  6
Continuous
370
-3
390
13
347
21
  0
LAYER
  5
28
330
1
100
AcDbSymbolTableRecord
100
AcDbLayerTableRecord
  2
Defpoints
 70
0
 62
7
  6
Continuous
290
0
370
-3
390
13
347
21
  0
LAYER
  5
2F
330
1
100
AcDbSymbolTableRecord
100
AcDbLayerTableRecord
  2
FILL_WHITE_FFFFFF
 70
0
 62
7
420
16777215
  6
Continuous
370
-3
390
13
347
21
  0
LAYER
  5
32
330
1
100
AcDbSymbolTableRecord
100
AcDbLayerTableRecord
  2
FILL_BLUE_0000FF
 70
0
 62
7
420
255
  6
Continuous
370
-3
390
13
347
21
  0
LAYER
  5
3D
330
1
100
AcDbSymbolTableRecord
100
AcDbLayerTableRecord
  2
FILL_RED_FF0000
 70
0
 62
7
420
16711680
  6
Continuous
370
-3
390
13
347
21
  0
LAYER
  5
44
330
1
100
AcDbSymbolTableRecord
100
AcDbLayerTableRecord
  2
STROKE_WHITE_FFFFFF
 70
0
 62
7
420
16777215
  6
Continuous
370
-3
390
13
347
21
  0
LAYER
  5
4F
330
1
100
AcDbSymbolTableRecord
100
AcDbLayerTableRecord
  2
STROKE_BLUE_0000FF
 70
0
 62
7
420
255
  6
Continuous
370
-3
390
13
347
21
  0
ENDTAB
  0
TABLE
  2
STYLE
  5
5
330
0
100
AcDbSymbolTable
 70
1
  0
STYLE
  5
29
330
5
100
AcDbSymbolTableRecord
100
AcDbTextStyleTableRecord
  2
Standard
 70
0
 40
0.0
 41
1.0
 50
0.0
 71
0
 42
2.5
  3
txt
  4

  0
ENDTAB
  0
TABLE
  2
VIEW
  5
7
330
0
100
AcDbSymbolTable
 70
0
  0
ENDTAB
  0
TABLE
  2
UCS
  5
6
330
0
100
AcDbSymbolTable
 70
0
  0
ENDTAB
  0
TABLE
  2
APPID
  5
3
330
0
100
AcDbSymbolTable
 70
3
  0
APPID
  5
2A
330
3
100
AcDbSymbolTableRecord
100
AcDbRegAppTableRecord
  2
ACAD
 70
0
  0
APPID
  5
51
330
3
100
AcDbSymbolTableRecord
100
AcDbRegAppTableRecord
  2
HATCHBACKGROUNDCOLOR
 70
0
  0
APPID
  5
52
330
3
100
AcDbSymbolTableRecord
100
AcDbRegAppTableRecord
  2
EZDXF
 70
0
  0
ENDTAB
  0
TABLE
  2
DIMSTYLE
  5
4
330
0
100
AcDbSymbolTable
 70
1
100
AcDbDimStyleTable
  0
DIMSTYLE
105
2B
330
4
100
AcDbSymbolTableRecord
100
AcDbDimStyleTableRecord
  2
Standard
 70
0
 40
1.0
 41
2.5
 42
0.625
 43
3.75
 44
1.25
 45
0.0
 46
0.0
 47
0.0
 48
0.0
 49
2.5
140
2.5
141
2.5
142
0.0
143
0.03937007874
144
1.0
145
0.0
146
1.0
147
0.625
148
0.0
 69
0
 70
0
 71
0
 72
0
 73
0
 74
0
 75
0
 76
0
 77
1
 78
8
 79
3
170
0
171
3
172
1
173
0
174
0
175
0
176
0
177
0
178
0
179
2
271
2
272
2
273
2
274
3
275
0
276
0
277
2
278
44
279
0
280
0
281
0
282
0
283
0
284
8
285
0
286
0
288
0
289
3
290
0
371
-2
372
-2
  0
ENDTAB
  0
TABLE
  2
BLOCK_RECORD
  5
9
330
0
100
AcDbSymbolTable
 70
2
  0
BLOCK_RECORD
  5
17
330
9
100
AcDbSymbolTableRecord
100
AcDbBlockTableRecord
  2
*Model_Space
340
1A
 70
0
280
1
281
0
  0
BLOCK_RECORD
  5
1B
330
9
100
AcDbSymbolTableRecord
100
AcDbBlockTableRecord
  2
*Paper_Space
340
1E
 70
0
280
1
281
0
  0
ENDTAB
  0
ENDSEC
  0
SECTION
  2
BLOCKS
  0
BLOCK
  5
18
330
17
100
AcDbEntity
  8
0
100
AcDbBlockBegin
  2
*Model_Space
 70
0
 10
0.0
 20
0.0
 30
0.0
  3
*Model_Space
  1

  0
ENDBLK
  5
19
330
17
100
AcDbEntity
  8
0
100
AcDbBlockEnd
  0
BLOCK
  5
1C
330
1B
100
AcDbEntity
  8
0
100
AcDbBlockBegin
  2
*Paper_Space
 70
0
 10
0.0
 20
0.0
 30
0.0
  3
*Paper_Space
  1

  0
ENDBLK
  5
1D
330
1B
100
AcDbEntity
  8
0
100
AcDbBlockEnd
  0
ENDSEC
  0
SECTION
  2
ENTITIES
  0
HATCH
  5
30
330
17
100
AcDbEntity
  8
FILL_WHITE_FFFFFF
 62
7
420
16777215
100
AcDbHatch
 10
0.0
 20
0.0
 30
0.0
210
0.0
220
0.0
230
1.0
  2
SOLID
 70
1
 71
0
 91
1
 92
3
 72
0
 73
1
 93
69
 10
531.79
 20
243.0
 10
534.17
 20
242.63
 10
536.47
 20
242.03
 10
538.67
 20
241.21
 10
540.77
 20
240.18
 10
542.74
 20
238.94
 10
544.59
 20
237.52
 10
546.3
 20
235.92
 10
547.85
 20
234.15
 10
549.24
 20
232.22
 10
550.44
 20
230.15
 10
551.46
 20
227.93
 10
552.27
 20
225.59
 10
552.86
 20
223.14
 10
553.23
 20
220.58
 10
553.35
 20
217.92
 10
553.35
 20
54.72
 10
553.24
 20
52.42
 10
552.9
 20
50.05
 10
552.34
 20
47.65
 10
551.55
 20
45.27
 10
550.54
 20
42.94
 10
549.3
 20
40.71
 10
547.84
 20
38.63
 10
546.15
 20
36.72
 10
544.3
 20
35.03
 10
542.34
 20
33.57
 10
540.31
 20
32.33
 10
538.2
 20
31.32
 10
536.04
 20
30.53
 10
533.83
 20
29.97
 10
531.6
 20
29.63
 10
529.35
 20
29.52
 10
37.35
 20
29.52
 10
36.05
 20
29.57
 10
34.84
 20
29.73
 10
32.55
 20
30.27
 10
27.75
 20
31.92
 10
23.55
 20
33.87
 10
21.34
 20
35.13
 10
20.3
 20
35.87
 10
19.35
 20
36.72
 10
17.57
 20
38.71
 10
15.9
 20
40.92
 10
14.46
 20
43.13
 10
13.35
 20
45.12
 10
12.66
 20
47.63
 10
12.3
 20
49.92
 10
12.17
 20
52.21
 10
12.15
 20
54.72
 10
12.15
 20
217.92
 10
12.26
 20
220.22
 10
12.6
 20
222.59
 10
13.16
 20
224.99
 10
13.95
 20
227.37
 10
14.96
 20
229.7
 10
16.2
 20
231.93
 10
17.66
 20
234.01
 10
19.35
 20
235.92
 10
21.26
 20
237.61
 10
23.34
 20
239.07
 10
25.57
 20
240.31
 10
27.9
 20
241.32
 10
30.28
 20
242.11
 10
32.68
 20
242.67
 10
35.05
 20
243.01
 10
37.35
 20
243.12
 10
529.35
 20
243.12
 10
531.79
 20
243.0
 97
0
 75
1
 76
1
 98
0
  0
LWPOLYLINE
  5
31
330
17
100
AcDbEntity
  8
FILL_WHITE_FFFFFF
370
0
420
16777215
100
AcDbPolyline
 90
68
 70
1
 10
531.79
 20
243.0
 10
534.17
 20
242.63
 10
536.47
 20
242.03
 10
538.67
 20
241.21
 10
540.77
 20
240.18
 10
542.74
 20
238.94
 10
544.59
 20
237.52
 10
546.3
 20
235.92
 10
547.85
 20
234.15
 10
549.24
 20
232.22
 10
550.44
 20
230.15
 10
551.46
 20
227.93
 10
552.27
 20
225.59
 10
552.86
 20
223.14
 10
553.23
 20
220.58
 10
553.35
 20
217.92
 10
553.35
 20
54.72
 10
553.24
 20
52.42
 10
552.9
 20
50.05
 10
552.34
 20
47.65
 10
551.55
 20
45.27
 10
550.54
 20
42.94
 10
549.3
 20
40.71
 10
547.84
 20
38.63
 10
546.15
 20
36.72
 10
544.3
 20
35.03
 10
542.34
 20
33.57
 10
540.31
 20
32.33
 10
538.2
 20
31.32
 10
536.04
 20
30.53
 10
533.83
 20
29.97
 10
531.6
 20
29.63
 10
529.35
 20
29.52
 10
37.35
 20
29.52
 10
36.05
 20
29.57
 10
34.84
 20
29.73
 10
32.55
 20
30.27
 10
27.75
 20
31.92
 10
23.55
 20
33.87
 10
21.34
 20
35.13
 10
20.3
 20
35.87
 10
19.35
 20
36.72
 10
17.57
 20
38.71
 10
15.9
 20
40.92
 10
14.46
 20
43.13
 10
13.35
 20
45.12
 10
12.66
 20
47.63
 10
12.3
 20
49.92
 10
12.17
 20
52.21
 10
12.15
 20
54.72
 10
12.15
 20
217.92
 10
12.26
 20
220.22
 10
12.6
 20
222.59
 10
13.16
 20
224.99
 10
13.95
 20
227.37
 10
14.96
 20
229.7
 10
16.2
 20
231.93
 10
17.66
 20
234.01
 10
19.35
 20
235.92
 10
21.26
 20
237.61
 10
23.34
 20
239.07
 10
25.57
 20
240.31
 10
27.9
 20
241.32
 10
30.28
 20
242.11
 10
32.68
 20
242.67
 10
35.05
 20
243.01
 10
37.35
 20
243.12
 10
529.35
 20
243.12
  0
HATCH
  5
33
330
17
100
AcDbEntity
  8
FILL_BLUE_0000FF
 62
7
420
255
100
AcDbHatch
 10
0.0
 20
0.0
 30
0.0
210
0.0
220
0.0
230
1.0
  2
SOLID
 70
1
 71
0
 91
1
 92
3
 72
0
 73
1
 93
62
 10
531.34
 20
229.86
 10
532.43
 20
229.73
 10
533.55
 20
229.47
 10
534.67
 20
229.04
 10
535.76
 20
228.4
 10
536.8
 20
227.51
 10
537.75
 20
226.32
 10
539.32
 20
224.5
 10
539.94
 20
223.56
 10
540.45
 20
222.57
 10
540.84
 20
221.53
 10
541.12
 20
220.41
 10
541.29
 20
219.22
 10
541.35
 20
217.92
 10
541.35
 20
54.72
 10
541.2
 20
52.32
 10
540.84
 20
51.01
 10
540.55
 20
50.42
 10
540.15
 20
49.92
 10
539.94
 20
49.02
 10
539.4
 20
48.12
 10
537.75
 20
46.32
 10
536.8
 20
45.08
 10
535.76
 20
44.05
 10
534.67
 20
43.22
 10
533.55
 20
42.57
 10
532.43
 20
42.09
 10
531.34
 20
41.76
 10
530.3
 20
41.58
 10
529.35
 20
41.52
 10
37.35
 20
41.52
 10
36.05
 20
41.58
 10
34.84
 20
41.76
 10
33.68
 20
42.09
 10
32.55
 20
42.57
 10
31.42
 20
43.22
 10
30.26
 20
44.05
 10
29.05
 20
45.08
 10
27.75
 20
46.32
 10
26.17
 20
48.14
 10
25.56
 20
49.08
 10
25.05
 20
50.07
 10
24.66
 20
51.11
 10
24.37
 20
52.23
 10
24.21
 20
53.42
 10
24.15
 20
54.72
 10
24.15
 20
217.92
 10
24.34
 20
219.01
 10
24.75
 20
220.32
 10
25.16
 20
221.63
 10
25.35
 20
222.72
 10
26.06
 20
223.62
 10
26.55
 20
224.52
 10
27.04
 20
225.42
 10
27.75
 20
226.32
 10
28.84
 20
227.22
 10
30.15
 20
228.12
 10
31.46
 20
229.02
 10
32.55
 20
229.92
 10
37.35
 20
229.92
 10
529.35
 20
229.92
 10
531.34
 20
229.86
 97
0
 75
1
 76
1
 98
0
  0
LWPOLYLINE
  5
34
330
17
100
AcDbEntity
  8
FILL_BLUE_0000FF
370
0
420
255
100
AcDbPolyline
 90
61
 70
1
 10
531.34
 20
229.86
 10
532.43
 20
229.73
 10
533.55
 20
229.47
 10
534.67
 20
229.04
 10
535.76
 20
228.4
 10
536.8
 20
227.51
 10
537.75
 20
226.32
 10
539.32
 20
224.5
 10
539.94
 20
223.56
 10
540.45
 20
222.57
 10
540.84
 20
221.53
 10
541.12
 20
220.41
 10
541.29
 20
219.22
 10
541.35
 20
217.92
 10
541.35
 20
54.72
 10
541.2
 20
52.32
 10
540.84
 20
51.01
 10
540.55
 20
50.42
 10
540.15
 20
49.92
 10
539.94
 20
49.02
 10
539.4
 20
48.12
 10
537.75
 20
46.32
 10
536.8
 20
45.08
 10
535.76
 20
44.05
 10
534.67
 20
43.22
 10
533.55
 20
42.57
 10
532.43
 20
42.09
 10
531.34
 20
41.76
 10
530.3
 20
41.58
 10
529.35
 20
41.52
 10
37.35
 20
41.52
 10
36.05
 20
41.58
 10
34.84
 20
41.76
 10
33.68
 20
42.09
 10
32.55
 20
42.57
 10
31.42
 20
43.22
 10
30.26
 20
44.05
 10
29.05
 20
45.08
 10
27.75
 20
46.32
 10
26.17
 20
48.14
 10
25.56
 20
49.08
 10
25.05
 20
50.07
 10
24.66
 20
51.11
 10
24.37
 20
52.23
 10
24.21
 20
53.42
 10
24.15
 20
54.72
 10
24.15
 20
217.92
 10
24.34
 20
219.01
 10
24.75
 20
220.32
 10
25.16
 20
221.63
 10
25.35
 20
222.72
 10
26.06
 20
223.62
 10
26.55
 20
224.52
 10
27.04
 20
225.42
 10
27.75
 20
226.32
 10
28.84
 20
227.22
 10
30.15
 20
228.12
 10
31.46
 20
229.02
 10
32.55
 20
229.92
 10
37.35
 20
229.92
 10
529.35
 20
229.92
  0
HATCH
  5
35
330
17
100
AcDbEntity
  8
FILL_WHITE_FFFFFF
 62
7
420
16777215
100
AcDbHatch
 10
0.0
 20
0.0
 30
0.0
210
0.0
220
0.0
230
1.0
  2
SOLID
 70
1
 71
0
 91
1
 92
3
 72
0
 73
1
 93
57
 10
464.61
 20
192.63
 10
464.77
 20
193.71
 10
465.03
 20
194.74
 10
465.39
 20
195.74
 10
465.85
 20
196.68
 10
466.39
 20
197.57
 10
467.7
 20
199.17
 10
469.3
 20
200.48
 10
470.19
 20
201.02
 10
471.13
 20
201.48
 10
472.13
 20
201.84
 10
473.16
 20
202.1
 10
474.24
 20
202.26
 10
475.35
 20
202.32
 10
476.46
 20
202.26
 10
477.54
 20
202.1
 10
478.57
 20
201.84
 10
479.57
 20
201.48
 10
480.51
 20
201.02
 10
481.4
 20
200.48
 10
483.0
 20
199.17
 10
484.31
 20
197.57
 10
484.85
 20
196.68
 10
485.31
 20
195.74
 10
485.67
 20
194.74
 10
485.93
 20
193.71
 10
486.09
 20
192.63
 10
486.15
 20
191.52
 10
486.09
 20
190.41
 10
485.93
 20
189.33
 10
485.67
 20
188.3
 10
485.31
 20
187.3
 10
484.85
 20
186.36
 10
484.31
 20
185.47
 10
483.0
 20
183.87
 10
481.4
 20
182.56
 10
480.51
 20
182.02
 10
479.57
 20
181.56
 10
478.57
 20
181.2
 10
477.54
 20
180.94
 10
476.46
 20
180.78
 10
475.35
 20
180.72
 10
474.24
 20
180.78
 10
473.16
 20
180.94
 10
472.13
 20
181.2
 10
471.13
 20
181.56
 10
470.19
 20
182.02
 10
469.3
 20
182.56
 10
467.7
 20
183.87
 10
466.39
 20
185.47
 10
465.85
 20
186.36
 10
465.39
 20
187.3
 10
465.03
 20
188.3
 10
464.77
 20
189.33
 10
464.61
 20
190.41
 10
464.55
 20
191.52
 10
464.61
 20
192.63
 97
0
 75
1
 76
1
 98
0
  0
LWPOLYLINE
  5
36
330
17
100
AcDbEntity
  8
FILL_WHITE_FFFFFF
370
0
420
16777215
100
AcDbPolyline
 90
56
 70
1
 10
464.61
 20
192.63
 10
464.77
 20
193.71
 10
465.03
 20
194.74
 10
465.39
 20
195.74
 10
465.85
 20
196.68
 10
466.39
 20
197.57
 10
467.7
 20
199.17
 10
469.3
 20
200.48
 10
470.19
 20
201.02
 10
471.13
 20
201.48
 10
472.13
 20
201.84
 10
473.16
 20
202.1
 10
474.24
 20
202.26
 10
475.35
 20
202.32
 10
476.46
 20
202.26
 10
477.54
 20
202.1
 10
478.57
 20
201.84
 10
479.57
 20
201.48
 10
480.51
 20
201.02
 10
481.4
 20
200.48
 10
483.0
 20
199.17
 10
484.31
 20
197.57
 10
484.85
 20
196.68
 10
485.31
 20
195.74
 10
485.67
 20
194.74
 10
485.93
 20
193.71
 10
486.09
 20
192.63
 10
486.15
 20
191.52
 10
486.09
 20
190.41
 10
485.93
 20
189.33
 10
485.67
 20
188.3
 10
485.31
 20
187.3
 10
484.85
 20
186.36
 10
484.31
 20
185.47
 10
483.0
 20
183.87
 10
481.4
 20
182.56
 10
480.51
 20
182.02
 10
479.57
 20
181.56
 10
478.57
 20
181.2
 10
477.54
 20
180.94
 10
476.46
 20
180.78
 10
475.35
 20
180.72
 10
474.24
 20
180.78
 10
473.16
 20
180.94
 10
472.13
 20
181.2
 10
471.13
 20
181.56
 10
470.19
 20
182.02
 10
469.3
 20
182.56
 10
467.7
 20
183.87
 10
466.39
 20
185.47
 10
465.85
 20
186.36
 10
465.39
 20
187.3
 10
465.03
 20
188.3
 10
464.77
 20
189.33
 10
464.61
 20
190.41
 10
464.55
 20
191.52
  0
HATCH
  5
37
330
17
100
AcDbEntity
  8
FILL_WHITE_FFFFFF
 62
7
420
16777215
100
AcDbHatch
 10
0.0
 20
0.0
 30
0.0
210
0.0
220
0.0
230
1.0
  2
SOLID
 70
1
 71
0
 91
1
 92
3
 72
0
 73
1
 93
45
 10
453.75
 20
70.32
 10
454.95
 20
99.12
 10
466.95
 20
132.72
 10
465.75
 20
153.12
 10
460.95
 20
147.12
 10
445.35
 20
133.92
 10
441.75
 20
139.92
 10
454.95
 20
153.12
 10
458.55
 20
163.92
 10
459.06
 20
165.27
 10
459.67
 20
166.6
 10
460.41
 20
167.91
 10
461.25
 20
169.17
 10
462.21
 20
170.38
 10
463.27
 20
171.51
 10
464.46
 20
172.57
 10
465.75
 20
173.52
 10
468.45
 20
175.09
 10
469.8
 20
175.71
 10
471.15
 20
176.22
 10
472.5
 20
176.61
 10
473.85
 20
176.89
 10
475.2
 20
177.06
 10
476.55
 20
177.12
 10
479.25
 20
176.91
 10
481.95
 20
176.37
 10
484.65
 20
175.6
 10
487.35
 20
174.72
 10
491.4
 20
171.12
 10
493.26
 20
169.32
 10
493.99
 20
168.42
 10
494.55
 20
167.52
 10
500.55
 20
157.92
 10
505.35
 20
130.32
 10
499.35
 20
127.92
 10
492.15
 20
154.32
 10
487.35
 20
159.12
 10
502.95
 20
102.72
 10
514.95
 20
83.52
 10
508.95
 20
76.32
 10
486.15
 20
106.32
 10
480.15
 20
121.92
 10
466.95
 20
100.32
 10
462.15
 20
70.32
 10
453.75
 20
70.32
 97
0
 75
1
 76
1
 98
0
  0
LWPOLYLINE
  5
38
330
17
100
AcDbEntity
  8
FILL_WHITE_FFFFFF
370
0
420
16777215
100
AcDbPolyline
 90
44
 70
1
 10
453.75
 20
70.32
 10
454.95
 20
99.12
 10
466.95
 20
132.72
 10
465.75
 20
153.12
 10
460.95
 20
147.12
 10
445.35
 20
133.92
 10
441.75
 20
139.92
 10
454.95
 20
153.12
 10
458.55
 20
163.92
 10
459.06
 20
165.27
 10
459.67
 20
166.6
 10
460.41
 20
167.91
 10
461.25
 20
169.17
 10
462.21
 20
170.38
 10
463.27
 20
171.51
 10
464.46
 20
172.57
 10
465.75
 20
173.52
 10
468.45
 20
175.09
 10
469.8
 20
175.71
 10
471.15
 20
176.22
 10
472.5
 20
176.61
 10
473.85
 20
176.89
 10
475.2
 20
177.06
 10
476.55
 20
177.12
 10
479.25
 20
176.91
 10
481.95
 20
176.37
 10
484.65
 20
175.6
 10
487.35
 20
174.72
 10
491.4
 20
171.12
 10
493.26
 20
169.32
 10
493.99
 20
168.42
 10
494.55
 20
167.52
 10
500.55
 20
157.92
 10
505.35
 20
130.32
 10
499.35
 20
127.92
 10
492.15
 20
154.32
 10
487.35
 20
159.12
 10
502.95
 20
102.72
 10
514.95
 20
83.52
 10
508.95
 20
76.32
 10
486.15
 20
106.32
 10
480.15
 20
121.92
 10
466.95
 20
100.32
 10
462.15
 20
70.32
  0
HATCH
  5
39
330
17
100
AcDbEntity
  8
FILL_WHITE_FFFFFF
 62
7
420
16777215
100
AcDbHatch
 10
0.0
 20
0.0
 30
0.0
210
0.0
220
0.0
230
1.0
  2
SOLID
 70
1
 71
0
 91
1
 92
3
 72
0
 73
1
 93
51
 10
338.55
 20
93.12
 10
320.55
 20
100.32
 10
322.95
 20
106.32
 10
332.55
 20
102.72
 10
348.15
 20
135.12
 10
384.15
 20
135.12
 10
384.15
 20
142.32
 10
357.75
 20
142.32
 10
357.75
 20
150.72
 10
385.35
 20
150.72
 10
386.55
 20
171.12
 10
381.75
 20
171.12
 10
380.85
 20
171.83
 10
379.95
 20
172.32
 10
379.05
 20
172.81
 10
378.15
 20
173.52
 10
376.57
 20
175.32
 10
375.45
 20
177.12
 10
375.06
 20
178.02
 10
374.77
 20
178.92
 10
374.61
 20
179.82
 10
374.55
 20
180.72
 10
374.59
 20
183.21
 10
374.85
 20
185.37
 10
375.14
 20
186.36
 10
375.56
 20
187.3
 10
376.16
 20
188.22
 10
376.95
 20
189.12
 10
378.77
 20
190.69
 10
379.71
 20
191.31
 10
380.7
 20
191.82
 10
381.74
 20
192.21
 10
382.86
 20
192.49
 10
384.05
 20
192.66
 10
385.35
 20
192.72
 10
386.25
 20
192.66
 10
387.15
 20
192.49
 10
388.05
 20
192.21
 10
388.95
 20
191.82
 10
390.75
 20
190.69
 10
392.55
 20
189.12
 10
394.2
 20
187.32
 10
394.74
 20
186.42
 10
394.95
 20
185.52
 10
395.35
 20
185.02
 10
395.64
 20
184.43
 10
396.0
 20
183.12
 10
396.15
 20
180.72
 10
391.35
 20
125.52
 10
354.15
 20
125.52
 10
338.55
 20
93.12
 97
0
 75
1
 76
1
 98
0
  0
LWPOLYLINE
  5
3A
330
17
100
AcDbEntity
  8
FILL_WHITE_FFFFFF
370
0
420
16777215
100
AcDbPolyline
 90
50
 70
1
 10
338.55
 20
93.12
 10
320.55
 20
100.32
 10
322.95
 20
106.32
 10
332.55
 20
102.72
 10
348.15
 20
135.12
 10
384.15
 20
135.12
 10
384.15
 20
142.32
 10
357.75
 20
142.32
 10
357.75
 20
150.72
 10
385.35
 20
150.72
 10
386.55
 20
171.12
 10
381.75
 20
171.12
 10
380.85
 20
171.83
 10
379.95
 20
172.32
 10
379.05
 20
172.81
 10
378.15
 20
173.52
 10
376.57
 20
175.32
 10
375.45
 20
177.12
 10
375.06
 20
178.02
 10
374.77
 20
178.92
 10
374.61
 20
179.82
 10
374.55
 20
180.72
 10
374.59
 20
183.21
 10
374.85
 20
185.37
 10
375.14
 20
186.36
 10
375.56
 20
187.3
 10
376.16
 20
188.22
 10
376.95
 20
189.12
 10
378.77
 20
190.69
 10
379.71
 20
191.31
 10
380.7
 20
191.82
 10
381.74
 20
192.21
 10
382.86
 20
192.49
 10
384.05
 20
192.66
 10
385.35
 20
192.72
 10
386.25
 20
192.66
 10
387.15
 20
192.49
 10
388.05
 20
192.21
 10
388.95
 20
191.82
 10
390.75
 20
190.69
 10
392.55
 20
189.12
 10
394.2
 20
187.32
 10
394.74
 20
186.42
 10
394.95
 20
185.52
 10
395.35
 20
185.02
 10
395.64
 20
184.43
 10
396.0
 20
183.12
 10
396.15
 20
180.72
 10
391.35
 20
125.52
 10
354.15
 20
125.52
  0
HATCH
  5
3B
330
17
100
AcDbEntity
  8
FILL_WHITE_FFFFFF
 62
7
420
16777215
100
AcDbHatch
 10
0.0
 20
0.0
 30
0.0
210
0.0
220
0.0
230
1.0
  2
SOLID
 70
1
 71
0
 91
1
 92
3
 72
0
 73
1
 93
104
 10
398.55
 20
147.12
 10
401.42
 20
145.09
 10
404.4
 20
142.62
 10
405.83
 20
141.21
 10
407.16
 20
139.69
 10
408.34
 20
138.06
 10
409.35
 20
136.32
 10
410.64
 20
134.47
 10
411.82
 20
132.51
 10
412.89
 20
130.48
 10
413.85
 20
128.37
 10
414.69
 20
126.21
 10
415.42
 20
124.0
 10
416.04
 20
121.77
 10
416.55
 20
119.52
 10
416.34
 20
115.02
 10
415.8
 20
110.52
 10
415.03
 20
106.02
 10
414.15
 20
101.52
 10
412.14
 20
97.96
 10
411.01
 20
96.25
 10
409.8
 20
94.62
 10
408.54
 20
93.11
 10
407.23
 20
91.73
 10
405.9
 20
90.53
 10
404.55
 20
89.52
 10
403.15
 20
88.22
 10
401.64
 20
87.03
 10
398.4
 20
84.87
 10
394.93
 20
82.94
 10
391.35
 20
81.12
 10
389.1
 20
80.73
 10
386.85
 20
80.44
 10
384.6
 20
80.28
 10
382.35
 20
80.22
 10
380.1
 20
80.28
 10
377.85
 20
80.44
 10
375.6
 20
80.73
 10
373.35
 20
81.12
 10
371.1
 20
81.63
 10
368.89
 20
82.26
 10
366.73
 20
83.04
 10
364.65
 20
83.97
 10
362.69
 20
85.07
 10
360.86
 20
86.35
 10
359.21
 20
87.83
 10
357.75
 20
89.52
 10
356.06
 20
90.87
 10
354.56
 20
92.24
 10
353.24
 20
93.63
 10
352.05
 20
95.07
 10
350.98
 20
96.56
 10
349.99
 20
98.13
 10
348.15
 20
101.52
 10
354.15
 20
115.92
 10
354.21
 20
114.52
 10
354.37
 20
113.03
 10
354.66
 20
111.49
 10
355.05
 20
109.92
 10
355.56
 20
108.35
 10
356.17
 20
106.81
 10
356.91
 20
105.32
 10
357.75
 20
103.92
 10
358.31
 20
102.18
 10
359.06
 20
100.54
 10
359.99
 20
99.03
 10
361.05
 20
97.62
 10
362.23
 20
96.33
 10
363.49
 20
95.14
 10
364.8
 20
94.08
 10
366.15
 20
93.12
 10
369.75
 20
91.54
 10
373.31
 20
90.4
 10
376.82
 20
89.68
 10
380.25
 20
89.37
 10
383.56
 20
89.45
 10
386.74
 20
89.91
 10
389.74
 20
90.74
 10
392.55
 20
91.92
 10
394.84
 20
93.44
 10
397.16
 20
95.28
 10
399.43
 20
97.43
 10
401.55
 20
99.87
 10
403.45
 20
102.6
 10
404.29
 20
104.06
 10
405.04
 20
105.59
 10
405.69
 20
107.18
 10
406.23
 20
108.83
 10
406.66
 20
110.55
 10
406.95
 20
112.32
 10
407.11
 20
114.32
 10
407.13
 20
116.26
 10
407.02
 20
118.13
 10
406.8
 20
119.95
 10
406.46
 20
121.71
 10
406.02
 20
123.39
 10
405.48
 20
125.02
 10
404.85
 20
126.57
 10
404.13
 20
128.05
 10
403.34
 20
129.46
 10
401.55
 20
132.06
 10
399.53
 20
134.35
 10
397.35
 20
136.32
 10
398.55
 20
147.12
 97
0
 75
1
 76
1
 98
0
  0
LWPOLYLINE
  5
3C
330
17
100
AcDbEntity
  8
FILL_WHITE_FFFFFF
370
0
420
16777215
100
AcDbPolyline
 90
103
 70
1
 10
398.55
 20
147.12
 10
401.42
 20
145.09
 10
404.4
 20
142.62
 10
405.83
 20
141.21
 10
407.16
 20
139.69
 10
408.34
 20
138.06
 10
409.35
 20
136.32
 10
410.64
 20
134.47
 10
411.82
 20
132.51
 10
412.89
 20
130.48
 10
413.85
 20
128.37
 10
414.69
 20
126.21
 10
415.42
 20
124.0
 10
416.04
 20
121.77
 10
416.55
 20
119.52
 10
416.34
 20
115.02
 10
415.8
 20
110.52
 10
415.03
 20
106.02
 10
414.15
 20
101.52
 10
412.14
 20
97.96
 10
411.01
 20
96.25
 10
409.8
 20
94.62
 10
408.54
 20
93.11
 10
407.23
 20
91.73
 10
405.9
 20
90.53
 10
404.55
 20
89.52
 10
403.15
 20
88.22
 10
401.64
 20
87.03
 10
398.4
 20
84.87
 10
394.93
 20
82.94
 10
391.35
 20
81.12
 10
389.1
 20
80.73
 10
386.85
 20
80.44
 10
384.6
 20
80.28
 10
382.35
 20
80.22
 10
380.1
 20
80.28
 10
377.85
 20
80.44
 10
375.6
 20
80.73
 10
373.35
 20
81.12
 10
371.1
 20
81.63
 10
368.89
 20
82.26
 10
366.73
 20
83.04
 10
364.65
 20
83.97
 10
362.69
 20
85.07
 10
360.86
 20
86.35
 10
359.21
 20
87.83
 10
357.75
 20
89.52
 10
356.06
 20
90.87
 10
354.56
 20
92.24
 10
353.24
 20
93.63
 10
352.05
 20
95.07
 10
350.98
 20
96.56
 10
349.99
 20
98.13
 10
348.15
 20
101.52
 10
354.15
 20
115.92
 10
354.21
 20
114.52
 10
354.37
 20
113.03
 10
354.66
 20
111.49
 10
355.05
 20
109.92
 10
355.56
 20
108.35
 10
356.17
 20
106.81
 10
356.91
 20
105.32
 10
357.75
 20
103.92
 10
358.31
 20
102.18
 10
359.06
 20
100.54
 10
359.99
 20
99.03
 10
361.05
 20
97.62
 10
362.23
 20
96.33
 10
363.49
 20
95.14
 10
364.8
 20
94.08
 10
366.15
 20
93.12
 10
369.75
 20
91.54
 10
373.31
 20
90.4
 10
376.82
 20
89.68
 10
380.25
 20
89.37
 10
383.56
 20
89.45
 10
386.74
 20
89.91
 10
389.74
 20
90.74
 10
392.55
 20
91.92
 10
394.84
 20
93.44
 10
397.16
 20
95.28
 10
399.43
 20
97.43
 10
401.55
 20
99.87
 10
403.45
 20
102.6
 10
404.29
 20
104.06
 10
405.04
 20
105.59
 10
405.69
 20
107.18
 10
406.23
 20
108.83
 10
406.66
 20
110.55
 10
406.95
 20
112.32
 10
407.11
 20
114.32
 10
407.13
 20
116.26
 10
407.02
 20
118.13
 10
406.8
 20
119.95
 10
406.46
 20
121.71
 10
406.02
 20
123.39
 10
405.48
 20
125.02
 10
404.85
 20
126.57
 10
404.13
 20
128.05
 10
403.34
 20
129.46
 10
401.55
 20
132.06
 10
399.53
 20
134.35
 10
397.35
 20
136.32
  0
HATCH
  5
3E
330
17
100
AcDbEntity
  8
FILL_RED_FF0000
 62
7
420
16711680
100
AcDbHatch
 10
0.0
 20
0.0
 30
0.0
210
0.0
220
0.0
230
1.0
  2
SOLID
 70
1
 71
0
 91
1
 92
3
 72
0
 73
1
 93
129
 10
209.7
 20
66.8
 10
205.66
 20
67.06
 10
201.64
 20
67.47
 10
197.64
 20
68.05
 10
193.68
 20
68.79
 10
189.77
 20
69.69
 10
185.9
 20
70.75
 10
182.1
 20
71.97
 10
178.37
 20
73.34
 10
174.71
 20
74.86
 10
171.15
 20
76.54
 10
167.68
 20
78.36
 10
164.32
 20
80.34
 10
161.07
 20
82.45
 10
157.94
 20
84.72
 10
154.95
 20
87.12
 10
152.1
 20
89.65
 10
149.39
 20
92.29
 10
146.83
 20
95.02
 10
144.43
 20
97.84
 10
142.19
 20
100.75
 10
140.12
 20
103.74
 10
138.22
 20
106.8
 10
136.5
 20
109.92
 10
134.96
 20
113.1
 10
133.61
 20
116.32
 10
132.45
 20
119.59
 10
131.49
 20
122.89
 10
130.74
 20
126.23
 10
130.19
 20
129.58
 10
129.86
 20
132.95
 10
129.75
 20
136.32
 10
129.86
 20
139.69
 10
130.19
 20
143.06
 10
130.74
 20
146.41
 10
131.49
 20
149.74
 10
132.45
 20
153.05
 10
133.61
 20
156.32
 10
134.96
 20
159.54
 10
136.5
 20
162.72
 10
138.22
 20
165.84
 10
140.12
 20
168.9
 10
142.19
 20
171.89
 10
144.43
 20
174.79
 10
146.83
 20
177.62
 10
149.39
 20
180.35
 10
152.1
 20
182.99
 10
154.95
 20
185.52
 10
157.94
 20
187.92
 10
161.07
 20
190.19
 10
164.32
 20
192.3
 10
167.68
 20
194.28
 10
171.15
 20
196.1
 10
174.71
 20
197.78
 10
178.37
 20
199.3
 10
182.1
 20
200.67
 10
185.9
 20
201.89
 10
189.77
 20
202.95
 10
193.68
 20
203.85
 10
197.64
 20
204.59
 10
201.64
 20
205.17
 10
205.66
 20
205.58
 10
209.7
 20
205.84
 10
213.75
 20
205.92
 10
218.01
 20
205.84
 10
222.23
 20
205.58
 10
226.42
 20
205.17
 10
230.55
 20
204.59
 10
234.63
 20
203.85
 10
238.64
 20
202.95
 10
242.58
 20
201.89
 10
246.45
 20
200.67
 10
250.23
 20
199.3
 10
253.92
 20
197.78
 10
257.51
 20
196.1
 10
261.0
 20
194.28
 10
264.37
 20
192.3
 10
267.63
 20
190.19
 10
270.76
 20
187.92
 10
273.75
 20
185.52
 10
276.59
 20
182.99
 10
279.26
 20
180.35
 10
281.76
 20
177.62
 10
284.08
 20
174.79
 10
286.23
 20
171.89
 10
288.2
 20
168.9
 10
289.99
 20
165.84
 10
291.6
 20
162.72
 10
293.03
 20
159.54
 10
294.27
 20
156.32
 10
295.33
 20
153.05
 10
296.19
 20
149.74
 10
296.87
 20
146.41
 10
297.36
 20
143.06
 10
297.65
 20
139.69
 10
297.75
 20
136.32
 10
297.65
 20
132.95
 10
297.36
 20
129.58
 10
296.87
 20
126.23
 10
296.19
 20
122.89
 10
295.33
 20
119.59
 10
294.27
 20
116.32
 10
293.03
 20
113.1
 10
291.6
 20
109.92
 10
289.99
 20
106.8
 10
288.2
 20
103.74
 10
286.23
 20
100.75
 10
284.08
 20
97.84
 10
281.76
 20
95.02
 10
279.26
 20
92.29
 10
276.59
 20
89.65
 10
273.75
 20
87.12
 10
270.76
 20
84.72
 10
267.63
 20
82.45
 10
264.37
 20
80.34
 10
261.0
 20
78.36
 10
257.51
 20
76.54
 10
253.92
 20
74.86
 10
250.23
 20
73.34
 10
246.45
 20
71.97
 10
242.58
 20
70.75
 10
238.64
 20
69.69
 10
234.63
 20
68.79
 10
230.55
 20
68.05
 10
226.42
 20
67.47
 10
222.23
 20
67.06
 10
218.01
 20
66.8
 10
213.75
 20
66.72
 10
209.7
 20
66.8
 97
0
 75
1
 76
1
 98
0
  0
LWPOLYLINE
  5
3F
330
17
100
AcDbEntity
  8
FILL_RED_FF0000
370
0
420
16711680
100
AcDbPolyline
 90
128
 70
1
 10
209.7
 20
66.8
 10
205.66
 20
67.06
 10
201.64
 20
67.47
 10
197.64
 20
68.05
 10
193.68
 20
68.79
 10
189.77
 20
69.69
 10
185.9
 20
70.75
 10
182.1
 20
71.97
 10
178.37
 20
73.34
 10
174.71
 20
74.86
 10
171.15
 20
76.54
 10
167.68
 20
78.36
 10
164.32
 20
80.34
 10
161.07
 20
82.45
 10
157.94
 20
84.72
 10
154.95
 20
87.12
 10
152.1
 20
89.65
 10
149.39
 20
92.29
 10
146.83
 20
95.02
 10
144.43
 20
97.84
 10
142.19
 20
100.75
 10
140.12
 20
103.74
 10
138.22
 20
106.8
 10
136.5
 20
109.92
 10
134.96
 20
113.1
 10
133.61
 20
116.32
 10
132.45
 20
119.59
 10
131.49
 20
122.89
 10
130.74
 20
126.23
 10
130.19
 20
129.58
 10
129.86
 20
132.95
 10
129.75
 20
136.32
 10
129.86
 20
139.69
 10
130.19
 20
143.06
 10
130.74
 20
146.41
 10
131.49
 20
149.74
 10
132.45
 20
153.05
 10
133.61
 20
156.32
 10
134.96
 20
159.54
 10
136.5
 20
162.72
 10
138.22
 20
165.84
 10
140.12
 20
168.9
 10
142.19
 20
171.89
 10
144.43
 20
174.79
 10
146.83
 20
177.62
 10
149.39
 20
180.35
 10
152.1
 20
182.99
 10
154.95
 20
185.52
 10
157.94
 20
187.92
 10
161.07
 20
190.19
 10
164.32
 20
192.3
 10
167.68
 20
194.28
 10
171.15
 20
196.1
 10
174.71
 20
197.78
 10
178.37
 20
199.3
 10
182.1
 20
200.67
 10
185.9
 20
201.89
 10
189.77
 20
202.95
 10
193.68
 20
203.85
 10
197.64
 20
204.59
 10
201.64
 20
205.17
 10
205.66
 20
205.58
 10
209.7
 20
205.84
 10
213.75
 20
205.92
 10
218.01
 20
205.84
 10
222.23
 20
205.58
 10
226.42
 20
205.17
 10
230.55
 20
204.59
 10
234.63
 20
203.85
 10
238.64
 20
202.95
 10
242.58
 20
201.89
 10
246.45
 20
200.67
 10
250.23
 20
199.3
 10
253.92
 20
197.78
 10
257.51
 20
196.1
 10
261.0
 20
194.28
 10
264.37
 20
192.3
 10
267.63
 20
190.19
 10
270.76
 20
187.92
 10
273.75
 20
185.52
 10
276.59
 20
182.99
 10
279.26
 20
180.35
 10
281.76
 20
177.62
 10
284.08
 20
174.79
 10
286.23
 20
171.89
 10
288.2
 20
168.9
 10
289.99
 20
165.84
 10
291.6
 20
162.72
 10
293.03
 20
159.54
 10
294.27
 20
156.32
 10
295.33
 20
153.05
 10
296.19
 20
149.74
 10
296.87
 20
146.41
 10
297.36
 20
143.06
 10
297.65
 20
139.69
 10
297.75
 20
136.32
 10
297.65
 20
132.95
 10
297.36
 20
129.58
 10
296.87
 20
126.23
 10
296.19
 20
122.89
 10
295.33
 20
119.59
 10
294.27
 20
116.32
 10
293.03
 20
113.1
 10
291.6
 20
109.92
 10
289.99
 20
106.8
 10
288.2
 20
103.74
 10
286.23
 20
100.75
 10
284.08
 20
97.84
 10
281.76
 20
95.02
 10
279.26
 20
92.29
 10
276.59
 20
89.65
 10
273.75
 20
87.12
 10
270.76
 20
84.72
 10
267.63
 20
82.45
 10
264.37
 20
80.34
 10
261.0
 20
78.36
 10
257.51
 20
76.54
 10
253.92
 20
74.86
 10
250.23
 20
73.34
 10
246.45
 20
71.97
 10
242.58
 20
70.75
 10
238.64
 20
69.69
 10
234.63
 20
68.79
 10
230.55
 20
68.05
 10
226.42
 20
67.47
 10
222.23
 20
67.06
 10
218.01
 20
66.8
 10
213.75
 20
66.72
  0
HATCH
  5
40
330
17
100
AcDbEntity
  8
FILL_WHITE_FFFFFF
 62
7
420
16777215
100
AcDbHatch
 10
0.0
 20
0.0
 30
0.0
210
0.0
220
0.0
230
1.0
  2
SOLID
 70
1
 71
0
 91
1
 92
3
 72
0
 73
1
 93
151
 10
241.35
 20
91.92
 10
241.04
 20
94.15
 10
240.57
 20
96.35
 10
239.95
 20
98.5
 10
239.17
 20
100.58
 10
238.26
 20
102.6
 10
237.22
 20
104.53
 10
236.04
 20
106.38
 10
234.75
 20
108.12
 10
233.34
 20
109.75
 10
231.83
 20
111.26
 10
230.23
 20
112.63
 10
228.52
 20
113.86
 10
226.74
 20
114.93
 10
224.88
 20
115.84
 10
222.95
 20
116.57
 10
220.95
 20
117.12
 10
220.95
 20
89.52
 10
207.75
 20
89.52
 10
207.75
 20
117.12
 10
205.56
 20
116.56
 10
203.47
 20
115.79
 10
201.51
 20
114.82
 10
199.65
 20
113.67
 10
197.91
 20
112.35
 10
196.27
 20
110.88
 10
194.76
 20
109.26
 10
193.35
 20
107.52
 10
191.71
 20
106.06
 10
190.37
 20
104.41
 10
189.28
 20
102.58
 10
188.4
 20
100.62
 10
187.69
 20
98.54
 10
187.11
 20
96.38
 10
186.15
 20
91.92
 10
171.75
 20
91.92
 10
171.81
 20
93.72
 10
171.97
 20
95.5
 10
172.26
 20
97.26
 10
172.65
 20
98.97
 10
173.16
 20
100.63
 10
173.77
 20
102.21
 10
174.51
 20
103.72
 10
175.35
 20
105.12
 10
175.86
 20
106.92
 10
176.47
 20
108.7
 10
177.21
 20
110.46
 10
178.05
 20
112.17
 10
179.01
 20
113.83
 10
180.07
 20
115.41
 10
181.26
 20
116.92
 10
182.55
 20
118.32
 10
185.31
 20
120.85
 10
188.17
 20
123.06
 10
191.16
 20
124.96
 10
194.25
 20
126.57
 10
197.46
 20
127.89
 10
200.77
 20
128.95
 10
204.21
 20
129.76
 10
207.75
 20
130.32
 10
207.75
 20
142.32
 10
204.21
 20
142.88
 10
200.77
 20
143.69
 10
197.46
 20
144.75
 10
194.25
 20
146.07
 10
191.16
 20
147.68
 10
188.17
 20
149.58
 10
185.31
 20
151.79
 10
182.55
 20
154.32
 10
180.07
 20
157.47
 10
177.99
 20
160.64
 10
176.29
 20
163.83
 10
174.9
 20
167.07
 10
173.8
 20
170.36
 10
172.93
 20
173.73
 10
172.26
 20
177.17
 10
171.75
 20
180.72
 10
186.15
 20
180.72
 10
187.11
 20
176.43
 10
187.69
 20
174.41
 10
188.4
 20
172.47
 10
189.28
 20
170.58
 10
190.37
 20
168.74
 10
191.71
 20
166.92
 10
193.35
 20
165.12
 10
194.76
 20
163.43
 10
196.27
 20
161.95
 10
197.91
 20
160.67
 10
199.65
 20
159.57
 10
201.51
 20
158.64
 10
203.47
 20
157.86
 10
205.56
 20
157.23
 10
207.75
 20
156.72
 10
207.75
 20
183.12
 10
220.95
 20
183.12
 10
220.95
 20
156.72
 10
222.95
 20
157.25
 10
224.88
 20
157.95
 10
226.74
 20
158.8
 10
228.52
 20
159.79
 10
230.23
 20
160.93
 10
231.83
 20
162.2
 10
233.34
 20
163.6
 10
234.75
 20
165.12
 10
236.04
 20
166.75
 10
237.22
 20
168.49
 10
238.26
 20
170.32
 10
239.17
 20
172.24
 10
239.95
 20
174.25
 10
240.57
 20
176.34
 10
241.04
 20
178.5
 10
241.35
 20
180.72
 10
255.75
 20
180.72
 10
255.58
 20
177.17
 10
255.07
 20
173.73
 10
254.23
 20
170.36
 10
253.05
 20
167.07
 10
251.53
 20
163.83
 10
249.67
 20
160.64
 10
247.48
 20
157.47
 10
244.95
 20
154.32
 10
242.2
 20
151.79
 10
239.34
 20
149.58
 10
236.41
 20
147.68
 10
233.4
 20
146.07
 10
230.34
 20
144.75
 10
227.23
 20
143.69
 10
224.1
 20
142.88
 10
220.95
 20
142.32
 10
220.95
 20
130.32
 10
223.35
 20
130.32
 10
224.25
 20
129.63
 10
225.15
 20
129.27
 10
226.05
 20
129.14
 10
226.95
 20
129.12
 10
228.75
 20
128.41
 10
230.55
 20
127.92
 10
232.35
 20
127.43
 10
234.15
 20
126.72
 10
239.55
 20
122.97
 10
242.25
 20
120.81
 10
244.95
 20
118.32
 10
247.48
 20
115.17
 10
249.67
 20
112.0
 10
251.53
 20
108.81
 10
253.05
 20
105.57
 10
254.23
 20
102.28
 10
255.07
 20
98.91
 10
255.58
 20
95.47
 10
255.75
 20
91.92
 10
241.35
 20
91.92
 97
0
 75
1
 76
1
 98
0
  0
LWPOLYLINE
  5
41
330
17
100
AcDbEntity
  8
FILL_WHITE_FFFFFF
370
0
420
16777215
100
AcDbPolyline
 90
150
 70
1
 10
241.35
 20
91.92
 10
241.04
 20
94.15
 10
240.57
 20
96.35
 10
239.95
 20
98.5
 10
239.17
 20
100.58
 10
238.26
 20
102.6
 10
237.22
 20
104.53
 10
236.04
 20
106.38
 10
234.75
 20
108.12
 10
233.34
 20
109.75
 10
231.83
 20
111.26
 10
230.23
 20
112.63
 10
228.52
 20
113.86
 10
226.74
 20
114.93
 10
224.88
 20
115.84
 10
222.95
 20
116.57
 10
220.95
 20
117.12
 10
220.95
 20
89.52
 10
207.75
 20
89.52
 10
207.75
 20
117.12
 10
205.56
 20
116.56
 10
203.47
 20
115.79
 10
201.51
 20
114.82
 10
199.65
 20
113.67
 10
197.91
 20
112.35
 10
196.27
 20
110.88
 10
194.76
 20
109.26
 10
193.35
 20
107.52
 10
191.71
 20
106.06
 10
190.37
 20
104.41
 10
189.28
 20
102.58
 10
188.4
 20
100.62
 10
187.69
 20
98.54
 10
187.11
 20
96.38
 10
186.15
 20
91.92
 10
171.75
 20
91.92
 10
171.81
 20
93.72
 10
171.97
 20
95.5
 10
172.26
 20
97.26
 10
172.65
 20
98.97
 10
173.16
 20
100.63
 10
173.77
 20
102.21
 10
174.51
 20
103.72
 10
175.35
 20
105.12
 10
175.86
 20
106.92
 10
176.47
 20
108.7
 10
177.21
 20
110.46
 10
178.05
 20
112.17
 10
179.01
 20
113.83
 10
180.07
 20
115.41
 10
181.26
 20
116.92
 10
182.55
 20
118.32
 10
185.31
 20
120.85
 10
188.17
 20
123.06
 10
191.16
 20
124.96
 10
194.25
 20
126.57
 10
197.46
 20
127.89
 10
200.77
 20
128.95
 10
204.21
 20
129.76
 10
207.75
 20
130.32
 10
207.75
 20
142.32
 10
204.21
 20
142.88
 10
200.77
 20
143.69
 10
197.46
 20
144.75
 10
194.25
 20
146.07
 10
191.16
 20
147.68
 10
188.17
 20
149.58
 10
185.31
 20
151.79
 10
182.55
 20
154.32
 10
180.07
 20
157.47
 10
177.99
 20
160.64
 10
176.29
 20
163.83
 10
174.9
 20
167.07
 10
173.8
 20
170.36
 10
172.93
 20
173.73
 10
172.26
 20
177.17
 10
171.75
 20
180.72
 10
186.15
 20
180.72
 10
187.11
 20
176.43
 10
187.69
 20
174.41
 10
188.4
 20
172.47
 10
189.28
 20
170.58
 10
190.37
 20
168.74
 10
191.71
 20
166.92
 10
193.35
 20
165.12
 10
194.76
 20
163.43
 10
196.27
 20
161.95
 10
197.91
 20
160.67
 10
199.65
 20
159.57
 10
201.51
 20
158.64
 10
203.47
 20
157.86
 10
205.56
 20
157.23
 10
207.75
 20
156.72
 10
207.75
 20
183.12
 10
220.95
 20
183.12
 10
220.95
 20
156.72
 10
222.95
 20
157.25
 10
224.88
 20
157.95
 10
226.74
 20
158.8
 10
228.52
 20
159.79
 10
230.23
 20
160.93
 10
231.83
 20
162.2
 10
233.34
 20
163.6
 10
234.75
 20
165.12
 10
236.04
 20
166.75
 10
237.22
 20
168.49
 10
238.26
 20
170.32
 10
239.17
 20
172.24
 10
239.95
 20
174.25
 10
240.57
 20
176.34
 10
241.04
 20
178.5
 10
241.35
 20
180.72
 10
255.75
 20
180.72
 10
255.58
 20
177.17
 10
255.07
 20
173.73
 10
254.23
 20
170.36
 10
253.05
 20
167.07
 10
251.53
 20
163.83
 10
249.67
 20
160.64
 10
247.48
 20
157.47
 10
244.95
 20
154.32
 10
242.2
 20
151.79
 10
239.34
 20
149.58
 10
236.41
 20
147.68
 10
233.4
 20
146.07
 10
230.34
 20
144.75
 10
227.23
 20
143.69
 10
224.1
 20
142.88
 10
220.95
 20
142.32
 10
220.95
 20
130.32
 10
223.35
 20
130.32
 10
224.25
 20
129.63
 10
225.15
 20
129.27
 10
226.05
 20
129.14
 10
226.95
 20
129.12
 10
228.75
 20
128.41
 10
230.55
 20
127.92
 10
232.35
 20
127.43
 10
234.15
 20
126.72
 10
239.55
 20
122.97
 10
242.25
 20
120.81
 10
244.95
 20
118.32
 10
247.48
 20
115.17
 10
249.67
 20
112.0
 10
251.53
 20
108.81
 10
253.05
 20
105.57
 10
254.23
 20
102.28
 10
255.07
 20
98.91
 10
255.58
 20
95.47
 10
255.75
 20
91.92
  0
HATCH
  5
42
330
17
100
AcDbEntity
  8
FILL_WHITE_FFFFFF
 62
7
420
16777215
100
AcDbHatch
 10
0.0
 20
0.0
 30
0.0
210
0.0
220
0.0
230
1.0
  2
SOLID
 70
1
 71
0
 91
1
 92
3
 72
0
 73
1
 93
10
 10
90.15
 20
114.72
 10
111.75
 20
136.32
 10
111.75
 20
103.92
 10
79.35
 20
70.32
 10
46.95
 20
103.92
 10
46.95
 20
136.32
 10
68.55
 20
114.72
 10
68.55
 20
202.32
 10
90.15
 20
202.32
 10
90.15
 20
114.72
 97
0
 75
1
 76
1
 98
0
  0
LWPOLYLINE
  5
43
330
17
100
AcDbEntity
  8
FILL_WHITE_FFFFFF
370
0
420
16777215
100
AcDbPolyline
 90
9
 70
1
 10
90.15
 20
114.72
 10
111.75
 20
136.32
 10
111.75
 20
103.92
 10
79.35
 20
70.32
 10
46.95
 20
103.92
 10
46.95
 20
136.32
 10
68.55
 20
114.72
 10
68.55
 20
202.32
 10
90.15
 20
202.32
  0
LWPOLYLINE
  5
45
330
17
100
AcDbEntity
  8
STROKE_WHITE_FFFFFF
370
0
420
16777215
100
AcDbPolyline
 90
2
 70
0
 10
255.14999999999964
 20
95.75999999999931
 10
255.14999999999964
 20
95.75999999999931
  0
LWPOLYLINE
  5
46
330
17
100
AcDbEntity
  8
STROKE_WHITE_FFFFFF
370
0
420
16777215
100
AcDbPolyline
 90
2
 70
0
 10
185.14999999999964
 20
95.75999999999931
 10
185.14999999999964
 20
95.75999999999931
  0
LWPOLYLINE
  5
47
330
17
100
AcDbEntity
  8
STROKE_WHITE_FFFFFF
370
0
420
16777215
100
AcDbPolyline
 90
2
 70
0
 10
175.14999999999964
 20
95.75999999999931
 10
175.14999999999964
 20
95.75999999999931
  0
LWPOLYLINE
  5
48
330
17
100
AcDbEntity
  8
STROKE_WHITE_FFFFFF
370
0
420
16777215
100
AcDbPolyline
 90
2
 70
0
 10
175.14999999999964
 20
175.7599999999993
 10
175.14999999999964
 20
175.7599999999993
  0
LWPOLYLINE
  5
49
330
17
100
AcDbEntity
  8
STROKE_WHITE_FFFFFF
370
0
420
16777215
100
AcDbPolyline
 90
2
 70
0
 10
175.14999999999964
 20
175.7599999999993
 10
175.14999999999964
 20
175.7599999999993
  0
LWPOLYLINE
  5
4A
330
17
100
AcDbEntity
  8
STROKE_WHITE_FFFFFF
370
0
420
16777215
100
AcDbPolyline
 90
2
 70
0
 10
175.14999999999964
 20
175.7599999999993
 10
175.14999999999964
 20
175.7599999999993
  0
LWPOLYLINE
  5
4B
330
17
100
AcDbEntity
  8
STROKE_WHITE_FFFFFF
370
0
420
16777215
100
AcDbPolyline
 90
2
 70
0
 10
185.14999999999964
 20
175.7599999999993
 10
185.14999999999964
 20
175.7599999999993
  0
LWPOLYLINE
  5
4C
330
17
100
AcDbEntity
  8
STROKE_WHITE_FFFFFF
370
0
420
16777215
100
AcDbPolyline
 90
2
 70
0
 10
185.14999999999964
 20
175.7599999999993
 10
185.14999999999964
 20
175.7599999999993
  0
LWPOLYLINE
  5
4D
330
17
100
AcDbEntity
  8
STROKE_WHITE_FFFFFF
370
0
420
16777215
100
AcDbPolyline
 90
2
 70
0
 10
185.14999999999964
 20
175.7599999999993
 10
185.14999999999964
 20
175.7599999999993
  0
LWPOLYLINE
  5
4E
330
17
100
AcDbEntity
  8
STROKE_WHITE_FFFFFF
370
0
420
16777215
100
AcDbPolyline
 90
2
 70
0
 10
255.14999999999964
 20
175.7599999999993
 10
255.14999999999964
 20
175.7599999999993
  0
LWPOLYLINE
  5
50
330
17
100
AcDbEntity
  8
STROKE_BLUE_0000FF
370
0
420
255
100
AcDbPolyline
 90
69
 70
0
 10
37.34999999999991
 20
243.11999999999898
 10
529.3499999999995
 20
243.11999999999898
 10
531.7948242187495
 20
242.995195312499
 10
534.1710937499994
 20
242.627812499999
 10
536.4665039062495
 20
242.02839843749905
 10
538.6687499999994
 20
241.20749999999907
 10
540.7655273437493
 20
240.17566406249912
 10
542.7445312499993
 20
238.94343749999916
 10
544.5934570312495
 20
237.52136718749924
 10
546.2999999999994
 20
235.91999999999928
 10
547.8518554687494
 20
234.1498828124993
 10
549.2367187499993
 20
232.22156249999935
 10
550.4422851562493
 20
230.14558593749936
 10
551.4562499999995
 20
227.93249999999938
 10
552.2663085937495
 20
225.59285156249933
 10
552.8601562499995
 20
223.1371874999993
 10
553.2254882812495
 20
220.57605468749927
 10
553.3499999999995
 20
217.91999999999916
 10
553.3499999999995
 20
54.719999999999345
 10
553.2254882812495
 20
52.063945312499385
 10
552.8601562499994
 20
49.502812499999465
 10
552.2663085937495
 20
47.04714843749949
 10
551.4562499999994
 20
44.70749999999953
 10
550.4422851562493
 20
42.494414062499544
 10
549.2367187499995
 20
40.418437499999555
 10
547.8518554687494
 20
38.49011718749958
 10
546.2999999999994
 20
36.71999999999957
 10
544.5934570312494
 20
35.118632812499555
 10
542.7445312499993
 20
33.69656249999957
 10
540.7655273437493
 20
32.46433593749953
 10
538.6687499999994
 20
31.43249999999955
 10
536.4665039062494
 20
30.611601562499516
 10
534.1710937499994
 20
30.012187499999527
 10
531.7948242187495
 20
29.644804687499544
 10
529.3499999999995
 20
29.519999999999527
 10
37.34999999999991
 20
29.519999999999527
 10
34.693945312499814
 20
29.644804687499544
 10
32.132812499999744
 20
30.012187499999527
 10
29.67714843749968
 20
30.611601562499516
 10
27.337499999999636
 20
31.43249999999955
 10
25.124414062499604
 20
32.464335937499555
 10
23.048437499999583
 20
33.69656249999957
 10
21.120117187499574
 20
35.118632812499555
 10
19.349999999999568
 20
36.71999999999957
 10
17.74863281249957
 20
38.49011718749958
 10
16.32656249999958
 20
40.418437499999555
 10
15.09433593749959
 20
42.494414062499516
 10
14.062499999999602
 20
44.70749999999953
 10
13.241601562499614
 20
47.04714843749949
 10
12.642187499999626
 20
49.502812499999465
 10
12.274804687499632
 20
52.06394531249941
 10
12.149999999999636
 20
54.719999999999345
 10
12.149999999999636
 20
217.91999999999916
 10
12.274804687499632
 20
220.57605468749927
 10
12.642187499999626
 20
223.1371874999993
 10
13.241601562499614
 20
225.59285156249933
 10
14.062499999999602
 20
227.93249999999938
 10
15.09433593749959
 20
230.14558593749936
 10
16.32656249999958
 20
232.22156249999935
 10
17.748632812499572
 20
234.14988281249933
 10
19.349999999999568
 20
235.91999999999928
 10
21.12011718749957
 20
237.52136718749924
 10
23.048437499999583
 20
238.9434374999992
 10
25.124414062499604
 20
240.17566406249915
 10
27.337499999999636
 20
241.20749999999907
 10
29.67714843749968
 20
242.02839843749905
 10
32.13281249999974
 20
242.627812499999
 10
34.693945312499814
 20
242.995195312499
 10
37.34999999999991
 20
243.11999999999898
  0
ENDSEC
  0
SECTION
  2
OBJECTS
  0
DICTIONARY
  5
A
330
0
100
AcDbDictionary
281
1
  3
ACAD_COLOR
350
B
  3
ACAD_GROUP
350
C
  3
ACAD_LAYOUT
350
D
  3
ACAD_MATERIAL
350
E
  3
ACAD_MLEADERSTYLE
350
F
  3
ACAD_MLINESTYLE
350
10
  3
ACAD_PLOTSETTINGS
350
11
  3
ACAD_PLOTSTYLENAME
350
12
  3
ACAD_SCALELIST
350
14
  3
ACAD_TABLESTYLE
350
15
  3
ACAD_VISUALSTYLE
350
16
  3
EZDXF_META
350
2D
  0
DICTIONARY
  5
B
330
A
100
AcDbDictionary
281
1
  0
DICTIONARY
  5
C
330
A
100
AcDbDictionary
281
1
  0
DICTIONARY
  5
D
330
A
100
AcDbDictionary
281
1
  3
Model
350
1A
  3
Layout1
350
1E
  0
DICTIONARY
  5
E
330
A
100
AcDbDictionary
281
1
  3
ByBlock
350
1F
  3
ByLayer
350
20
  3
Global
350
21
  0
DICTIONARY
  5
F
330
A
100
AcDbDictionary
281
1
  3
Standard
350
2C
  0
DICTIONARY
  5
10
330
A
100
AcDbDictionary
281
1
  3
Standard
350
22
  0
DICTIONARY
  5
11
330
A
100
AcDbDictionary
281
1
  0
ACDBDICTIONARYWDFLT
  5
12
330
A
100
AcDbDictionary
281
1
  3
Normal
350
13
100
AcDbDictionaryWithDefault
340
13
  0
ACDBPLACEHOLDER
  5
13
330
12
  0
DICTIONARY
  5
14
330
A
100
AcDbDictionary
281
1
  0
DICTIONARY
  5
15
330
A
100
AcDbDictionary
281
1
  0
DICTIONARY
  5
16
330
A
100
AcDbDictionary
281
1
  0
LAYOUT
  5
1A
330
D
100
AcDbPlotSettings
  1

  4
A3
  6

 40
7.5
 41
20.0
 42
7.5
 43
20.0
 44
420.0
 45
297.0
 46
0.0
 47
0.0
 48
0.0
 49
0.0
140
0.0
141
0.0
142
1.0
143
1.0
 70
1024
 72
1
 73
0
 74
5
  7

 75
16
 76
0
 77
2
 78
300
147
1.0
148
0.0
149
0.0
100
AcDbLayout
  1
Model
 70
1
 71
0
 10
0.0
 20
0.0
 11
420.0
 21
297.0
 12
0.0
 22
0.0
 32
0.0
 14
1e+20
 24
1e+20
 34
1e+20
 15
-1e+20
 25
-1e+20
 35
-1e+20
146
0.0
 13
0.0
 23
0.0
 33
0.0
 16
1.0
 26
0.0
 36
0.0
 17
0.0
 27
1.0
 37
0.0
 76
1
330
17
  0
LAYOUT
  5
1E
330
D
100
AcDbPlotSettings
  1

  4
A3
  6

 40
7.5
 41
20.0
 42
7.5
 43
20.0
 44
420.0
 45
297.0
 46
0.0
 47
0.0
 48
0.0
 49
0.0
140
0.0
141
0.0
142
1.0
143
1.0
 70
0
 72
1
 73
0
 74
5
  7

 75
16
 76
0
 77
2
 78
300
147
1.0
148
0.0
149
0.0
100
AcDbLayout
  1
Layout1
 70
1
 71
1
 10
0.0
 20
0.0
 11
420.0
 21
297.0
 12
0.0
 22
0.0
 32
0.0
 14
1e+20
 24
1e+20
 34
1e+20
 15
-1e+20
 25
-1e+20
 35
-1e+20
146
0.0
 13
0.0
 23
0.0
 33
0.0
 16
1.0
 26
0.0
 36
0.0
 17
0.0
 27
1.0
 37
0.0
 76
1
330
1B
  0
MATERIAL
  5
1F
102
{ACAD_REACTORS
330
E
102
}
330
E
100
AcDbMaterial
  1
ByBlock
  2

 70
0
 40
1.0
 71
1
 41
1.0
 91
-1023410177
 42
1.0
 72
1
  3

 73
1
 74
1
 75
1
 44
0.5
 73
0
 45
1.0
 46
1.0
 77
1
  4

 78
1
 79
1
170
1
 48
1.0
171
1
  6

172
1
173
1
174
1
140
1.0
141
1.0
175
1
  7

176
1
177
1
178
1
143
1.0
179
1
  8

270
1
271
1
272
1
145
1.0
146
1.0
273
1
  9

274
1
275
1
276
1
 42
1.0
 72
1
  3

 73
1
 74
1
 75
1
 94
63
  0
MATERIAL
  5
20
102
{ACAD_REACTORS
330
E
102
}
330
E
100
AcDbMaterial
  1
ByLayer
  2

 70
0
 40
1.0
 71
1
 41
1.0
 91
-1023410177
 42
1.0
 72
1
  3

 73
1
 74
1
 75
1
 44
0.5
 73
0
 45
1.0
 46
1.0
 77
1
  4

 78
1
 79
1
170
1
 48
1.0
171
1
  6

172
1
173
1
174
1
140
1.0
141
1.0
175
1
  7

176
1
177
1
178
1
143
1.0
179
1
  8

270
1
271
1
272
1
145
1.0
146
1.0
273
1
  9

274
1
275
1
276
1
 42
1.0
 72
1
  3

 73
1
 74
1
 75
1
 94
63
  0
MATERIAL
  5
21
102
{ACAD_REACTORS
330
E
102
}
330
E
100
AcDbMaterial
  1
Global
  2

 70
0
 40
1.0
 71
1
 41
1.0
 91
-1023410177
 42
1.0
 72
1
  3

 73
1
 74
1
 75
1
 44
0.5
 73
0
 45
1.0
 46
1.0
 77
1
  4

 78
1
 79
1
170
1
 48
1.0
171
1
  6

172
1
173
1
174
1
140
1.0
141
1.0
175
1
  7

176
1
177
1
178
1
143
1.0
179
1
  8

270
1
271
1
272
1
145
1.0
146
1.0
273
1
  9

274
1
275
1
276
1
 42
1.0
 72
1
  3

 73
1
 74
1
 75
1
 94
63
  0
MLINESTYLE
  5
22
102
{ACAD_REACTORS
330
10
102
}
330
10
100
AcDbMlineStyle
  2
Standard
 70
0
  3

 62
256
 51
90.0
 52
90.0
 71
2
 49
0.5
 62
256
  6
BYLAYER
 49
-0.5
 62
256
  6
BYLAYER
  0
MLEADERSTYLE
  5
2C
102
{ACAD_REACTORS
330
F
102
}
330
F
100
AcDbMLeaderStyle
179
2
170
2
171
1
172
0
 90
2
 40
0.0
 41
0.0
173
1
 91
-1056964608
 92
-2
290
1
 42
2.0
291
1
 43
8.0
  3
Standard
 44
4.0
300

342
29
174
1
175
1
176
0
178
1
 93
-1056964608
 45
4.0
292
0
297
0
 46
4.0
 94
-1056964608
 47
1.0
 49
1.0
140
1.0
294
1
141
0.0
177
0
142
1.0
295
0
296
0
143
3.75
271
0
272
9
273
9
  0
DICTIONARY
  5
2D
330
A
100
AcDbDictionary
280
1
281
1
  3
CREATED_BY_EZDXF
350
2E
  3
WRITTEN_BY_EZDXF
350
53
  0
DICTIONARYVAR
  5
2E
330
2D
100
DictionaryVariables
280
0
  1
1.4.4 @ 2026-07-10T01:53:54.037322+00:00
  0
DICTIONARYVAR
  5
53
330
2D
100
DictionaryVariables
280
0
  1
1.4.4 @ 2026-07-10T01:53:54.044040+00:00
  0
ENDSEC
  0
EOF
