  0
SECTION
  2
HEADER
  9
$ACADVER
  1
AC1024
  9
$ACADMAINTVER
 70
6
  9
$DWGCODEPAGE
  3
ANSI_1252
  9
$LASTSAVEDBY
  1
ezdxf
  9
$INSBASE
 10
0.0
 20
0.0
 30
0.0
  9
$EXTMIN
 10
1e+20
 20
1e+20
 30
1e+20
  9
$EXTMAX
 10
-1e+20
 20
-1e+20
 30
-1e+20
  9
$LIMMIN
 10
0.0
 20
0.0
  9
$LIMMAX
 10
420.0
 20
297.0
  9
$ORTHOMODE
 70
0
  9
$REGENMODE
 70
1
  9
$FILLMODE
 70
1
  9
$QTEXTMODE
 70
0
  9
$MIRRTEXT
 70
1
  9
$LTSCALE
 40
1.0
  9
$ATTMODE
 70
1
  9
$TEXTSIZE
 40
2.5
  9
$TRACEWID
 40
1.0
  9
$TEXTSTYLE
  7
Standard
  9
$CLAYER
  8
0
  9
$CELTYPE
  6
ByLayer
  9
$CECOLOR
 62
256
  9
$CELTSCALE
 40
1.0
  9
$DISPSILH
 70
0
  9
$DIMSCALE
 40
1.0
  9
$DIMASZ
 40
2.5
  9
$DIMEXO
 40
0.625
  9
$DIMDLI
 40
3.75
  9
$DIMRND
 40
0.0
  9
$DIMDLE
 40
0.0
  9
$DIMEXE
 40
1.25
  9
$DIMTP
 40
0.0
  9
$DIMTM
 40
0.0
  9
$DIMTXT
 40
2.5
  9
$DIMCEN
 40
2.5
  9
$DIMTSZ
 40
0.0
  9
$DIMTOL
 70
0
  9
$DIMLIM
 70
0
  9
$DIMTIH
 70
0
  9
$DIMTOH
 70
0
  9
$DIMSE1
 70
0
  9
$DIMSE2
 70
0
  9
$DIMTAD
 70
1
  9
$DIMZIN
 70
8
  9
$DIMBLK
  1

  9
$DIMASO
 70
1
  9
$DIMSHO
 70
1
  9
$DIMPOST
  1

  9
$DIMAPOST
  1

  9
$DIMALT
 70
0
  9
$DIMALTD
 70
3
  9
$DIMALTF
 40
0.03937007874
  9
$DIMLFAC
 40
1.0
  9
$DIMTOFL
 70
1
  9
$DIMTVP
 40
0.0
  9
$DIMTIX
 70
0
  9
$DIMSOXD
 70
0
  9
$DIMSAH
 70
0
  9
$DIMBLK1
  1

  9
$DIMBLK2
  1

  9
$DIMSTYLE
  2
ISO-25
  9
$DIMCLRD
 70
0
  9
$DIMCLRE
 70
0
  9
$DIMCLRT
 70
0
  9
$DIMTFAC
 40
1.0
  9
$DIMGAP
 40
0.625
  9
$DIMJUST
 70
0
  9
$DIMSD1
 70
0
  9
$DIMSD2
 70
0
  9
$DIMTOLJ
 70
0
  9
$DIMTZIN
 70
8
  9
$DIMALTZ
 70
0
  9
$DIMALTTZ
 70
0
  9
$DIMUPT
 70
0
  9
$DIMDEC
 70
2
  9
$DIMTDEC
 70
2
  9
$DIMALTU
 70
2
  9
$DIMALTTD
 70
3
  9
$DIMTXSTY
  7
Standard
  9
$DIMAUNIT
 70
0
  9
$DIMADEC
 70
0
  9
$DIMALTRND
 40
0.0
  9
$DIMAZIN
 70
0
  9
$DIMDSEP
 70
44
  9
$DIMATFIT
 70
3
  9
$DIMFRAC
 70
0
  9
$DIMLDRBLK
  1

  9
$DIMLUNIT
 70
2
  9
$DIMLWD
 70
-2
  9
$DIMLWE
 70
-2
  9
$DIMTMOVE
 70
0
  9
$DIMFXL
 40
1.0
  9
$DIMFXLON
 70
0
  9
$DIMJOGANG
 40
0.785398163397
  9
$DIMTFILL
 70
0
  9
$DIMTFILLCLR
 70
0
  9
$DIMARCSYM
 70
0
  9
$DIMLTYPE
  6

  9
$DIMLTEX1
  6

  9
$DIMLTEX2
  6

  9
$DIMTXTDIRECTION
 70
0
  9
$LUNITS
 70
2
  9
$LUPREC
 70
4
  9
$SKETCHINC
 40
1.0
  9
$FILLETRAD
 40
10.0
  9
$AUNITS
 70
0
  9
$AUPREC
 70
2
  9
$MENU
  1
.
  9
$ELEVATION
 40
0.0
  9
$PELEVATION
 40
0.0
  9
$THICKNESS
 40
0.0
  9
$LIMCHECK
 70
0
  9
$CHAMFERA
 40
0.0
  9
$CHAMFERB
 40
0.0
  9
$CHAMFERC
 40
0.0
  9
$CHAMFERD
 40
0.0
  9
$SKPOLY
 70
0
  9
$TDCREATE
 40
2461232.4124652776
  9
$TDUCREATE
 40
2458532.153996898
  9
$TDUPDATE
 40
2461232.4124652776
  9
$TDUUPDATE
 40
2458532.1544311
  9
$TDINDWG
 40
0.0
  9
$TDUSRTIMER
 40
0.0
  9
$USRTIMER
 70
1
  9
$ANGBASE
 50
0.0
  9
$ANGDIR
 70
0
  9
$PDMODE
 70
0
  9
$PDSIZE
 40
0.0
  9
$PLINEWID
 40
0.0
  9
$SPLFRAME
 70
0
  9
$SPLINETYPE
 70
6
  9
$SPLINESEGS
 70
8
  9
$HANDSEED
  5
4F
  9
$SURFTAB1
 70
6
  9
$SURFTAB2
 70
6
  9
$SURFTYPE
 70
6
  9
$SURFU
 70
6
  9
$SURFV
 70
6
  9
$UCSBASE
  2

  9
$UCSNAME
  2

  9
$UCSORG
 10
0.0
 20
0.0
 30
0.0
  9
$UCSXDIR
 10
1.0
 20
0.0
 30
0.0
  9
$UCSYDIR
 10
0.0
 20
1.0
 30
0.0
  9
$UCSORTHOREF
  2

  9
$UCSORTHOVIEW
 70
0
  9
$UCSORGTOP
 10
0.0
 20
0.0
 30
0.0
  9
$UCSORGBOTTOM
 10
0.0
 20
0.0
 30
0.0
  9
$UCSORGLEFT
 10
0.0
 20
0.0
 30
0.0
  9
$UCSORGRIGHT
 10
0.0
 20
0.0
 30
0.0
  9
$UCSORGFRONT
 10
0.0
 20
0.0
 30
0.0
  9
$UCSORGBACK
 10
0.0
 20
0.0
 30
0.0
  9
$PUCSBASE
  2

  9
$PUCSNAME
  2

  9
$PUCSORG
 10
0.0
 20
0.0
 30
0.0
  9
$PUCSXDIR
 10
1.0
 20
0.0
 30
0.0
  9
$PUCSYDIR
 10
0.0
 20
1.0
 30
0.0
  9
$PUCSORTHOREF
  2

  9
$PUCSORTHOVIEW
 70
0
  9
$PUCSORGTOP
 10
0.0
 20
0.0
 30
0.0
  9
$PUCSORGBOTTOM
 10
0.0
 20
0.0
 30
0.0
  9
$PUCSORGLEFT
 10
0.0
 20
0.0
 30
0.0
  9
$PUCSORGRIGHT
 10
0.0
 20
0.0
 30
0.0
  9
$PUCSORGFRONT
 10
0.0
 20
0.0
 30
0.0
  9
$PUCSORGBACK
 10
0.0
 20
0.0
 30
0.0
  9
$USERI1
 70
0
  9
$USERI2
 70
0
  9
$USERI3
 70
0
  9
$USERI4
 70
0
  9
$USERI5
 70
0
  9
$USERR1
 40
0.0
  9
$USERR2
 40
0.0
  9
$USERR3
 40
0.0
  9
$USERR4
 40
0.0
  9
$USERR5
 40
0.0
  9
$WORLDVIEW
 70
1
  9
$SHADEDGE
 70
3
  9
$SHADEDIF
 70
70
  9
$TILEMODE
 70
1
  9
$MAXACTVP
 70
64
  9
$PINSBASE
 10
0.0
 20
0.0
 30
0.0
  9
$PLIMCHECK
 70
0
  9
$PEXTMIN
 10
1e+20
 20
1e+20
 30
1e+20
  9
$PEXTMAX
 10
-1e+20
 20
-1e+20
 30
-1e+20
  9
$PLIMMIN
 10
0.0
 20
0.0
  9
$PLIMMAX
 10
420.0
 20
297.0
  9
$UNITMODE
 70
0
  9
$VISRETAIN
 70
1
  9
$PLINEGEN
 70
0
  9
$PSLTSCALE
 70
1
  9
$TREEDEPTH
 70
3020
  9
$CMLSTYLE
  2
Standard
  9
$CMLJUST
 70
0
  9
$CMLSCALE
 40
20.0
  9
$PROXYGRAPHICS
 70
1
  9
$MEASUREMENT
 70
1
  9
$CELWEIGHT
370
-1
  9
$ENDCAPS
280
0
  9
$JOINSTYLE
280
0
  9
$LWDISPLAY
290
0
  9
$INSUNITS
 70
6
  9
$HYPERLINKBASE
  1

  9
$STYLESHEET
  1

  9
$XEDIT
290
1
  9
$CEPSNTYPE
380
0
  9
$PSTYLEMODE
290
1
  9
$FINGERPRINTGUID
  2
{80A34F1E-300B-49B7-8F42-79F1E27766B7}
  9
$VERSIONGUID
  2
{D7867309-9D9A-47E9-BAD4-57CAEC781E27}
  9
$EXTNAMES
290
1
  9
$PSVPSCALE
 40
0.0
  9
$OLESTARTUP
290
0
  9
$SORTENTS
280
127
  9
$INDEXCTL
280
0
  9
$HIDETEXT
280
1
  9
$XCLIPFRAME
280
1
  9
$HALOGAP
280
0
  9
$OBSCOLOR
 70
257
  9
$OBSLTYPE
280
0
  9
$INTERSECTIONDISPLAY
280
0
  9
$INTERSECTIONCOLOR
 70
257
  9
$DIMASSOC
280
2
  9
$PROJECTNAME
  1

  9
$CAMERADISPLAY
290
0
  9
$LENSLENGTH
 40
50.0
  9
$CAMERAHEIGHT
 40
0.0
  9
$STEPSPERSEC
 40
24.0
  9
$STEPSIZE
 40
100.0
  9
$3DDWFPREC
 40
2.0
  9
$PSOLWIDTH
 40
0.005
  9
$PSOLHEIGHT
 40
0.08
  9
$LOFTANG1
 40
1.570796326795
  9
$LOFTANG2
 40
1.570796326795
  9
$LOFTMAG1
 40
0.0
  9
$LOFTMAG2
 40
0.0
  9
$LOFTPARAM
 70
7
  9
$LOFTNORMALS
280
1
  9
$LATITUDE
 40
37.795
  9
$LONGITUDE
 40
-122.394
  9
$NORTHDIRECTION
 40
0.0
  9
$TIMEZONE
 70
-8000
  9
$LIGHTGLYPHDISPLAY
280
1
  9
$TILEMODELIGHTSYNCH
280
1
  9
$CMATERIAL
347
20
  9
$SOLIDHIST
280
0
  9
$SHOWHIST
280
1
  9
$DWFFRAME
280
2
  9
$DGNFRAME
280
2
  9
$REALWORLDSCALE
290
1
  9
$INTERFERECOLOR
 62
256
  9
$CSHADOW
280
0
  9
$SHADOWPLANELOCATION
 40
0.0
  0
ENDSEC
  0
SECTION
  2
CLASSES
  0
CLASS
  1
ACDBDICTIONARYWDFLT
  2
AcDbDictionaryWithDefault
  3
ObjectDBX Classes
 90
0
 91
0
280
0
281
0
  0
CLASS
  1
SUN
  2
AcDbSun
  3
SCENEOE
 90
1153
 91
0
280
0
281
0
  0
CLASS
  1
VISUALSTYLE
  2
AcDbVisualStyle
  3
ObjectDBX Classes
 90
4095
 91
0
280
0
281
0
  0
CLASS
  1
MATERIAL
  2
AcDbMaterial
  3
ObjectDBX Classes
 90
1153
 91
0
280
0
281
0
  0
CLASS
  1
SCALE
  2
AcDbScale
  3
ObjectDBX Classes
 90
1153
 91
0
280
0
281
0
  0
CLASS
  1
TABLESTYLE
  2
AcDbTableStyle
  3
ObjectDBX Classes
 90
4095
 91
0
280
0
281
0
  0
CLASS
  1
MLEADERSTYLE
  2
AcDbMLeaderStyle
  3
ACDB_MLEADERSTYLE_CLASS
 90
4095
 91
0
280
0
281
0
  0
CLASS
  1
DICTIONARYVAR
  2
AcDbDictionaryVar
  3
ObjectDBX Classes
 90
0
 91
0
280
0
281
0
  0
CLASS
  1
CELLSTYLEMAP
  2
AcDbCellStyleMap
  3
ObjectDBX Classes
 90
1152
 91
0
280
0
281
0
  0
CLASS
  1
MENTALRAYRENDERSETTINGS
  2
AcDbMentalRayRenderSettings
  3
SCENEOE
 90
1024
 91
0
280
0
281
0
  0
CLASS
  1
ACDBDETAILVIEWSTYLE
  2
AcDbDetailViewStyle
  3
ObjectDBX Classes
 90
1025
 91
0
280
0
281
0
  0
CLASS
  1
ACDBSECTIONVIEWSTYLE
  2
AcDbSectionViewStyle
  3
ObjectDBX Classes
 90
1025
 91
0
280
0
281
0
  0
CLASS
  1
RASTERVARIABLES
  2
AcDbRasterVariables
  3
ISM
 90
0
 91
0
280
0
281
0
  0
CLASS
  1
LAYOUT
  2
AcDbLayout
  3
ObjectDBX Classes
 90
0
 91
0
280
0
281
0
  0
CLASS
  1
ACDBPLACEHOLDER
  2
AcDbPlaceHolder
  3
ObjectDBX Classes
 90
0
 91
0
280
0
281
0
  0
ENDSEC
  0
SECTION
  2
TABLES
  0
TABLE
  2
VPORT
  5
8
330
0
100
AcDbSymbolTable
 70
1
  0
VPORT
  5
23
330
8
100
AcDbSymbolTableRecord
100
AcDbViewportTableRecord
  2
*Active
 70
0
 10
0.0
 20
0.0
 11
1.0
 21
1.0
 12
0.0
 22
0.0
 13
0.0
 23
0.0
 14
0.5
 24
0.5
 15
0.5
 25
0.5
 16
0.0
 26
0.0
 36
1.0
 17
0.0
 27
0.0
 37
0.0
 40
1000.0
 41
1.34
 42
50.0
 43
0.0
 44
0.0
 50
0.0
 51
0.0
 71
0
 72
1000
 73
1
 74
3
 75
0
 76
0
 77
0
 78
0
281
0
 65
0
146
0.0
  0
ENDTAB
  0
TABLE
  2
LTYPE
  5
2
330
0
100
AcDbSymbolTable
 70
3
  0
LTYPE
  5
24
330
2
100
AcDbSymbolTableRecord
100
AcDbLinetypeTableRecord
  2
ByBlock
 70
0
  3

 72
65
 73
0
 40
0.0
  0
LTYPE
  5
25
330
2
100
AcDbSymbolTableRecord
100
AcDbLinetypeTableRecord
  2
ByLayer
 70
0
  3

 72
65
 73
0
 40
0.0
  0
LTYPE
  5
26
330
2
100
AcDbSymbolTableRecord
100
AcDbLinetypeTableRecord
  2
Continuous
 70
0
  3

 72
65
 73
0
 40
0.0
  0
ENDTAB
  0
TABLE
  2
LAYER
  5
1
330
0
100
AcDbSymbolTable
 70
5
  0
LAYER
  5
27
330
1
100
AcDbSymbolTableRecord
100
AcDbLayerTableRecord
  2
0
 70
0
 62
7
  6
Continuous
370
-3
390
13
347
21
  0
LAYER
  5
28
330
1
100
AcDbSymbolTableRecord
100
AcDbLayerTableRecord
  2
Defpoints
 70
0
 62
7
  6
Continuous
290
0
370
-3
390
13
347
21
  0
LAYER
  5
2F
330
1
100
AcDbSymbolTableRecord
100
AcDbLayerTableRecord
  2
FILL_WHITE_FFFFFF
 70
0
 62
7
420
16777215
  6
Continuous
370
-3
390
13
347
21
  0
LAYER
  5
32
330
1
100
AcDbSymbolTableRecord
100
AcDbLayerTableRecord
  2
FILL_LIME_00FF00
 70
0
 62
7
420
65280
  6
Continuous
370
-3
390
13
347
21
  0
LAYER
  5
43
330
1
100
AcDbSymbolTableRecord
100
AcDbLayerTableRecord
  2
STROKE_LIME_00FF00
 70
0
 62
7
420
65280
  6
Continuous
370
-3
390
13
347
21
  0
ENDTAB
  0
TABLE
  2
STYLE
  5
5
330
0
100
AcDbSymbolTable
 70
1
  0
STYLE
  5
29
330
5
100
AcDbSymbolTableRecord
100
AcDbTextStyleTableRecord
  2
Standard
 70
0
 40
0.0
 41
1.0
 50
0.0
 71
0
 42
2.5
  3
txt
  4

  0
ENDTAB
  0
TABLE
  2
VIEW
  5
7
330
0
100
AcDbSymbolTable
 70
0
  0
ENDTAB
  0
TABLE
  2
UCS
  5
6
330
0
100
AcDbSymbolTable
 70
0
  0
ENDTAB
  0
TABLE
  2
APPID
  5
3
330
0
100
AcDbSymbolTable
 70
3
  0
APPID
  5
2A
330
3
100
AcDbSymbolTableRecord
100
AcDbRegAppTableRecord
  2
ACAD
 70
0
  0
APPID
  5
4C
330
3
100
AcDbSymbolTableRecord
100
AcDbRegAppTableRecord
  2
HATCHBACKGROUNDCOLOR
 70
0
  0
APPID
  5
4D
330
3
100
AcDbSymbolTableRecord
100
AcDbRegAppTableRecord
  2
EZDXF
 70
0
  0
ENDTAB
  0
TABLE
  2
DIMSTYLE
  5
4
330
0
100
AcDbSymbolTable
 70
1
100
AcDbDimStyleTable
  0
DIMSTYLE
105
2B
330
4
100
AcDbSymbolTableRecord
100
AcDbDimStyleTableRecord
  2
Standard
 70
0
 40
1.0
 41
2.5
 42
0.625
 43
3.75
 44
1.25
 45
0.0
 46
0.0
 47
0.0
 48
0.0
 49
2.5
140
2.5
141
2.5
142
0.0
143
0.03937007874
144
1.0
145
0.0
146
1.0
147
0.625
148
0.0
 69
0
 70
0
 71
0
 72
0
 73
0
 74
0
 75
0
 76
0
 77
1
 78
8
 79
3
170
0
171
3
172
1
173
0
174
0
175
0
176
0
177
0
178
0
179
2
271
2
272
2
273
2
274
3
275
0
276
0
277
2
278
44
279
0
280
0
281
0
282
0
283
0
284
8
285
0
286
0
288
0
289
3
290
0
371
-2
372
-2
  0
ENDTAB
  0
TABLE
  2
BLOCK_RECORD
  5
9
330
0
100
AcDbSymbolTable
 70
2
  0
BLOCK_RECORD
  5
17
330
9
100
AcDbSymbolTableRecord
100
AcDbBlockTableRecord
  2
*Model_Space
340
1A
 70
0
280
1
281
0
  0
BLOCK_RECORD
  5
1B
330
9
100
AcDbSymbolTableRecord
100
AcDbBlockTableRecord
  2
*Paper_Space
340
1E
 70
0
280
1
281
0
  0
ENDTAB
  0
ENDSEC
  0
SECTION
  2
BLOCKS
  0
BLOCK
  5
18
330
17
100
AcDbEntity
  8
0
100
AcDbBlockBegin
  2
*Model_Space
 70
0
 10
0.0
 20
0.0
 30
0.0
  3
*Model_Space
  1

  0
ENDBLK
  5
19
330
17
100
AcDbEntity
  8
0
100
AcDbBlockEnd
  0
BLOCK
  5
1C
330
1B
100
AcDbEntity
  8
0
100
AcDbBlockBegin
  2
*Paper_Space
 70
0
 10
0.0
 20
0.0
 30
0.0
  3
*Paper_Space
  1

  0
ENDBLK
  5
1D
330
1B
100
AcDbEntity
  8
0
100
AcDbBlockEnd
  0
ENDSEC
  0
SECTION
  2
ENTITIES
  0
HATCH
  5
30
330
17
100
AcDbEntity
  8
FILL_WHITE_FFFFFF
 62
7
420
16777215
100
AcDbHatch
 10
0.0
 20
0.0
 30
0.0
210
0.0
220
0.0
230
1.0
  2
SOLID
 70
1
 71
0
 91
1
 92
3
 72
0
 73
1
 93
69
 10
134.7
 20
7.27
 10
133.27
 20
7.47
 10
131.8
 20
7.81
 10
130.32
 20
8.28
 10
128.76
 20
8.92
 10
127.33
 20
9.74
 10
125.99
 20
10.74
 10
124.74
 20
11.88
 10
123.7
 20
13.13
 10
122.74
 20
14.44
 10
121.88
 20
15.83
 10
121.14
 20
17.28
 10
120.67
 20
18.76
 10
120.33
 20
20.25
 10
120.13
 20
21.73
 10
120.06
 20
23.22
 10
120.06
 20
248.76
 10
120.13
 20
250.24
 10
120.33
 20
251.73
 10
120.67
 20
253.21
 10
121.14
 20
254.7
 10
121.88
 20
256.18
 10
122.74
 20
257.6
 10
123.7
 20
258.93
 10
124.74
 20
260.1
 10
125.99
 20
261.24
 10
127.33
 20
262.24
 10
128.76
 20
263.06
 10
130.32
 20
263.7
 10
131.8
 20
264.25
 10
133.27
 20
264.58
 10
134.7
 20
264.74
 10
136.08
 20
264.78
 10
433.26
 20
264.78
 10
434.75
 20
264.74
 10
436.23
 20
264.58
 10
437.72
 20
264.25
 10
439.2
 20
263.7
 10
440.68
 20
263.06
 10
442.1
 20
262.24
 10
443.43
 20
261.24
 10
444.6
 20
260.1
 10
445.74
 20
258.93
 10
446.74
 20
257.6
 10
447.56
 20
256.18
 10
448.2
 20
254.7
 10
448.75
 20
253.21
 10
449.08
 20
251.73
 10
449.24
 20
250.24
 10
449.28
 20
248.76
 10
449.28
 20
23.22
 10
449.24
 20
21.73
 10
449.08
 20
20.25
 10
448.75
 20
18.76
 10
448.2
 20
17.28
 10
447.56
 20
15.83
 10
446.74
 20
14.44
 10
445.74
 20
13.13
 10
444.6
 20
11.88
 10
443.43
 20
10.74
 10
442.1
 20
9.74
 10
440.68
 20
8.92
 10
439.2
 20
8.28
 10
437.72
 20
7.81
 10
436.23
 20
7.47
 10
434.75
 20
7.27
 10
433.26
 20
7.2
 10
136.08
 20
7.2
 10
134.7
 20
7.27
 97
0
 75
1
 76
1
 98
0
  0
LWPOLYLINE
  5
31
330
17
100
AcDbEntity
  8
FILL_WHITE_FFFFFF
370
0
420
16777215
100
AcDbPolyline
 90
68
 70
1
 10
134.7
 20
7.27
 10
133.27
 20
7.47
 10
131.8
 20
7.81
 10
130.32
 20
8.28
 10
128.76
 20
8.92
 10
127.33
 20
9.74
 10
125.99
 20
10.74
 10
124.74
 20
11.88
 10
123.7
 20
13.13
 10
122.74
 20
14.44
 10
121.88
 20
15.83
 10
121.14
 20
17.28
 10
120.67
 20
18.76
 10
120.33
 20
20.25
 10
120.13
 20
21.73
 10
120.06
 20
23.22
 10
120.06
 20
248.76
 10
120.13
 20
250.24
 10
120.33
 20
251.73
 10
120.67
 20
253.21
 10
121.14
 20
254.7
 10
121.88
 20
256.18
 10
122.74
 20
257.6
 10
123.7
 20
258.93
 10
124.74
 20
260.1
 10
125.99
 20
261.24
 10
127.33
 20
262.24
 10
128.76
 20
263.06
 10
130.32
 20
263.7
 10
131.8
 20
264.25
 10
133.27
 20
264.58
 10
134.7
 20
264.74
 10
136.08
 20
264.78
 10
433.26
 20
264.78
 10
434.75
 20
264.74
 10
436.23
 20
264.58
 10
437.72
 20
264.25
 10
439.2
 20
263.7
 10
440.68
 20
263.06
 10
442.1
 20
262.24
 10
443.43
 20
261.24
 10
444.6
 20
260.1
 10
445.74
 20
258.93
 10
446.74
 20
257.6
 10
447.56
 20
256.18
 10
448.2
 20
254.7
 10
448.75
 20
253.21
 10
449.08
 20
251.73
 10
449.24
 20
250.24
 10
449.28
 20
248.76
 10
449.28
 20
23.22
 10
449.24
 20
21.73
 10
449.08
 20
20.25
 10
448.75
 20
18.76
 10
448.2
 20
17.28
 10
447.56
 20
15.83
 10
446.74
 20
14.44
 10
445.74
 20
13.13
 10
444.6
 20
11.88
 10
443.43
 20
10.74
 10
442.1
 20
9.74
 10
440.68
 20
8.92
 10
439.2
 20
8.28
 10
437.72
 20
7.81
 10
436.23
 20
7.47
 10
434.75
 20
7.27
 10
433.26
 20
7.2
 10
136.08
 20
7.2
  0
HATCH
  5
33
330
17
100
AcDbEntity
  8
FILL_LIME_00FF00
 62
7
420
65280
100
AcDbHatch
 10
0.0
 20
0.0
 30
0.0
210
0.0
220
0.0
230
1.0
  2
SOLID
 70
1
 71
0
 91
1
 92
3
 72
0
 73
1
 93
50
 10
433.26
 20
256.86
 10
434.79
 20
256.72
 10
436.32
 20
256.32
 10
437.67
 20
255.55
 10
439.02
 20
254.52
 10
440.06
 20
253.17
 10
440.82
 20
251.82
 10
441.23
 20
250.29
 10
441.36
 20
248.76
 10
441.36
 20
23.22
 10
441.22
 20
21.71
 10
440.8
 20
20.2
 10
440.07
 20
18.76
 10
439.02
 20
17.46
 10
437.67
 20
16.51
 10
436.32
 20
15.84
 10
434.79
 20
15.28
 10
433.26
 20
15.12
 10
306.9
 20
15.12
 10
306.9
 20
106.02
 10
298.98
 20
106.02
 10
208.08
 20
15.12
 10
136.08
 20
15.12
 10
134.64
 20
15.28
 10
133.9
 20
15.5
 10
133.2
 20
15.84
 10
131.72
 20
16.51
 10
130.5
 20
17.46
 10
129.89
 20
18.14
 10
129.4
 20
18.83
 10
128.7
 20
20.34
 10
128.3
 20
21.78
 10
128.16
 20
23.22
 10
128.16
 20
170.64
 10
151.92
 20
194.4
 10
153.36
 20
195.92
 10
154.72
 20
197.5
 10
157.21
 20
200.86
 10
159.39
 20
204.45
 10
161.28
 20
208.26
 10
162.04
 20
210.29
 10
162.7
 20
212.34
 10
163.25
 20
214.4
 10
163.71
 20
216.47
 10
164.06
 20
218.55
 10
164.32
 20
220.64
 10
164.47
 20
222.73
 10
164.52
 20
224.82
 10
164.52
 20
256.86
 10
433.26
 20
256.86
 97
0
 75
1
 76
1
 98
0
  0
LWPOLYLINE
  5
34
330
17
100
AcDbEntity
  8
FILL_LIME_00FF00
370
0
420
65280
100
AcDbPolyline
 90
49
 70
1
 10
433.26
 20
256.86
 10
434.79
 20
256.72
 10
436.32
 20
256.32
 10
437.67
 20
255.55
 10
439.02
 20
254.52
 10
440.06
 20
253.17
 10
440.82
 20
251.82
 10
441.23
 20
250.29
 10
441.36
 20
248.76
 10
441.36
 20
23.22
 10
441.22
 20
21.71
 10
440.8
 20
20.2
 10
440.07
 20
18.76
 10
439.02
 20
17.46
 10
437.67
 20
16.51
 10
436.32
 20
15.84
 10
434.79
 20
15.28
 10
433.26
 20
15.12
 10
306.9
 20
15.12
 10
306.9
 20
106.02
 10
298.98
 20
106.02
 10
208.08
 20
15.12
 10
136.08
 20
15.12
 10
134.64
 20
15.28
 10
133.9
 20
15.5
 10
133.2
 20
15.84
 10
131.72
 20
16.51
 10
130.5
 20
17.46
 10
129.89
 20
18.14
 10
129.4
 20
18.83
 10
128.7
 20
20.34
 10
128.3
 20
21.78
 10
128.16
 20
23.22
 10
128.16
 20
170.64
 10
151.92
 20
194.4
 10
153.36
 20
195.92
 10
154.72
 20
197.5
 10
157.21
 20
200.86
 10
159.39
 20
204.45
 10
161.28
 20
208.26
 10
162.04
 20
210.29
 10
162.7
 20
212.34
 10
163.25
 20
214.4
 10
163.71
 20
216.47
 10
164.06
 20
218.55
 10
164.32
 20
220.64
 10
164.47
 20
222.73
 10
164.52
 20
224.82
 10
164.52
 20
256.86
  0
HATCH
  5
35
330
17
100
AcDbEntity
  8
FILL_WHITE_FFFFFF
 62
7
420
16777215
100
AcDbHatch
 10
0.0
 20
0.0
 30
0.0
210
0.0
220
0.0
230
1.0
  2
SOLID
 70
1
 71
0
 91
1
 92
3
 72
0
 73
1
 93
10
 10
425.16
 20
221.94
 10
425.16
 20
200.52
 10
410.76
 20
214.74
 10
410.76
 20
28.62
 10
396.54
 20
28.62
 10
396.54
 20
214.74
 10
382.14
 20
200.52
 10
382.14
 20
221.94
 10
403.74
 20
243.36
 10
425.16
 20
221.94
 97
0
 75
1
 76
1
 98
0
  0
LWPOLYLINE
  5
36
330
17
100
AcDbEntity
  8
FILL_WHITE_FFFFFF
370
0
420
16777215
100
AcDbPolyline
 90
9
 70
1
 10
425.16
 20
221.94
 10
425.16
 20
200.52
 10
410.76
 20
214.74
 10
410.76
 20
28.62
 10
396.54
 20
28.62
 10
396.54
 20
214.74
 10
382.14
 20
200.52
 10
382.14
 20
221.94
 10
403.74
 20
243.36
  0
HATCH
  5
37
330
17
100
AcDbEntity
  8
FILL_WHITE_FFFFFF
 62
7
420
16777215
100
AcDbHatch
 10
0.0
 20
0.0
 30
0.0
210
0.0
220
0.0
230
1.0
  2
SOLID
 70
1
 71
0
 91
1
 92
3
 72
0
 73
1
 93
10
 10
366.12
 20
221.94
 10
366.12
 20
200.52
 10
351.72
 20
214.74
 10
351.72
 20
28.62
 10
337.32
 20
28.62
 10
337.32
 20
214.74
 10
323.1
 20
200.52
 10
323.1
 20
221.94
 10
344.52
 20
243.36
 10
366.12
 20
221.94
 97
0
 75
1
 76
1
 98
0
  0
LWPOLYLINE
  5
38
330
17
100
AcDbEntity
  8
FILL_WHITE_FFFFFF
370
0
420
16777215
100
AcDbPolyline
 90
9
 70
1
 10
366.12
 20
221.94
 10
366.12
 20
200.52
 10
351.72
 20
214.74
 10
351.72
 20
28.62
 10
337.32
 20
28.62
 10
337.32
 20
214.74
 10
323.1
 20
200.52
 10
323.1
 20
221.94
 10
344.52
 20
243.36
  0
HATCH
  5
39
330
17
100
AcDbEntity
  8
FILL_WHITE_FFFFFF
 62
7
420
16777215
100
AcDbHatch
 10
0.0
 20
0.0
 30
0.0
210
0.0
220
0.0
230
1.0
  2
SOLID
 70
1
 71
0
 91
1
 92
3
 72
0
 73
1
 93
5
 10
306.9
 20
243.0
 10
306.9
 20
210.78
 10
298.98
 20
210.78
 10
298.98
 20
243.0
 10
306.9
 20
243.0
 97
0
 75
1
 76
1
 98
0
  0
LWPOLYLINE
  5
3A
330
17
100
AcDbEntity
  8
FILL_WHITE_FFFFFF
370
0
420
16777215
100
AcDbPolyline
 90
4
 70
1
 10
306.9
 20
243.0
 10
306.9
 20
210.78
 10
298.98
 20
210.78
 10
298.98
 20
243.0
  0
HATCH
  5
3B
330
17
100
AcDbEntity
  8
FILL_WHITE_FFFFFF
 62
7
420
16777215
100
AcDbHatch
 10
0.0
 20
0.0
 30
0.0
210
0.0
220
0.0
230
1.0
  2
SOLID
 70
1
 71
0
 91
1
 92
3
 72
0
 73
1
 93
5
 10
306.9
 20
194.58
 10
306.9
 20
162.36
 10
298.98
 20
162.36
 10
298.98
 20
194.58
 10
306.9
 20
194.58
 97
0
 75
1
 76
1
 98
0
  0
LWPOLYLINE
  5
3C
330
17
100
AcDbEntity
  8
FILL_WHITE_FFFFFF
370
0
420
16777215
100
AcDbPolyline
 90
4
 70
1
 10
306.9
 20
194.58
 10
306.9
 20
162.36
 10
298.98
 20
162.36
 10
298.98
 20
194.58
  0
HATCH
  5
3D
330
17
100
AcDbEntity
  8
FILL_WHITE_FFFFFF
 62
7
420
16777215
100
AcDbHatch
 10
0.0
 20
0.0
 30
0.0
210
0.0
220
0.0
230
1.0
  2
SOLID
 70
1
 71
0
 91
1
 92
3
 72
0
 73
1
 93
5
 10
306.9
 20
146.16
 10
306.9
 20
113.94
 10
298.98
 20
113.94
 10
298.98
 20
146.16
 10
306.9
 20
146.16
 97
0
 75
1
 76
1
 98
0
  0
LWPOLYLINE
  5
3E
330
17
100
AcDbEntity
  8
FILL_WHITE_FFFFFF
370
0
420
16777215
100
AcDbPolyline
 90
4
 70
1
 10
306.9
 20
146.16
 10
306.9
 20
113.94
 10
298.98
 20
113.94
 10
298.98
 20
146.16
  0
HATCH
  5
3F
330
17
100
AcDbEntity
  8
FILL_WHITE_FFFFFF
 62
7
420
16777215
100
AcDbHatch
 10
0.0
 20
0.0
 30
0.0
210
0.0
220
0.0
230
1.0
  2
SOLID
 70
1
 71
0
 91
1
 92
3
 72
0
 73
1
 93
37
 10
268.32
 20
159.57
 10
268.14
 20
157.15
 10
267.85
 20
154.73
 10
267.44
 20
152.32
 10
266.9
 20
149.94
 10
266.25
 20
147.57
 10
265.49
 20
145.23
 10
264.6
 20
142.92
 10
263.6
 20
140.6
 10
262.48
 20
138.36
 10
261.26
 20
136.2
 10
259.94
 20
134.12
 10
258.53
 20
132.12
 10
257.03
 20
130.19
 10
255.45
 20
128.33
 10
253.8
 20
126.54
 10
154.44
 20
27.36
 10
144.36
 20
37.44
 10
243.54
 20
136.8
 10
245.86
 20
139.33
 10
247.95
 20
142.09
 10
249.77
 20
145.08
 10
250.56
 20
146.67
 10
251.28
 20
148.32
 10
252.57
 20
151.72
 10
253.46
 20
155.16
 10
253.99
 20
158.6
 10
254.16
 20
162.0
 10
254.16
 20
214.74
 10
239.76
 20
200.52
 10
239.76
 20
221.94
 10
261.18
 20
243.36
 10
282.78
 20
221.94
 10
282.78
 20
200.52
 10
268.38
 20
214.74
 10
268.38
 20
162.0
 10
268.32
 20
159.57
 97
0
 75
1
 76
1
 98
0
  0
LWPOLYLINE
  5
40
330
17
100
AcDbEntity
  8
FILL_WHITE_FFFFFF
370
0
420
16777215
100
AcDbPolyline
 90
36
 70
1
 10
268.32
 20
159.57
 10
268.14
 20
157.15
 10
267.85
 20
154.73
 10
267.44
 20
152.32
 10
266.9
 20
149.94
 10
266.25
 20
147.57
 10
265.49
 20
145.23
 10
264.6
 20
142.92
 10
263.6
 20
140.6
 10
262.48
 20
138.36
 10
261.26
 20
136.2
 10
259.94
 20
134.12
 10
258.53
 20
132.12
 10
257.03
 20
130.19
 10
255.45
 20
128.33
 10
253.8
 20
126.54
 10
154.44
 20
27.36
 10
144.36
 20
37.44
 10
243.54
 20
136.8
 10
245.86
 20
139.33
 10
247.95
 20
142.09
 10
249.77
 20
145.08
 10
250.56
 20
146.67
 10
251.28
 20
148.32
 10
252.57
 20
151.72
 10
253.46
 20
155.16
 10
253.99
 20
158.6
 10
254.16
 20
162.0
 10
254.16
 20
214.74
 10
239.76
 20
200.52
 10
239.76
 20
221.94
 10
261.18
 20
243.36
 10
282.78
 20
221.94
 10
282.78
 20
200.52
 10
268.38
 20
214.74
 10
268.38
 20
162.0
  0
HATCH
  5
41
330
17
100
AcDbEntity
  8
FILL_WHITE_FFFFFF
 62
7
420
16777215
100
AcDbHatch
 10
0.0
 20
0.0
 30
0.0
210
0.0
220
0.0
230
1.0
  2
SOLID
 70
1
 71
0
 91
1
 92
3
 72
0
 73
1
 93
36
 10
154.44
 20
110.88
 10
144.36
 20
120.96
 10
184.5
 20
161.28
 10
186.82
 20
163.81
 10
188.91
 20
166.57
 10
190.73
 20
169.56
 10
191.52
 20
171.15
 10
192.24
 20
172.8
 10
193.42
 20
176.2
 10
194.27
 20
179.64
 10
194.77
 20
183.08
 10
194.94
 20
186.48
 10
194.94
 20
214.74
 10
180.72
 20
200.52
 10
180.72
 20
221.94
 10
202.14
 20
243.36
 10
223.56
 20
221.94
 10
223.56
 20
200.52
 10
209.34
 20
214.74
 10
209.34
 20
186.48
 10
209.28
 20
184.05
 10
209.1
 20
181.63
 10
208.81
 20
179.21
 10
208.4
 20
176.8
 10
207.86
 20
174.42
 10
207.21
 20
172.05
 10
206.45
 20
169.71
 10
205.56
 20
167.4
 10
204.5
 20
165.08
 10
203.34
 20
162.84
 10
202.09
 20
160.68
 10
200.75
 20
158.6
 10
199.32
 20
156.6
 10
197.81
 20
154.67
 10
194.58
 20
151.02
 10
154.44
 20
110.88
 97
0
 75
1
 76
1
 98
0
  0
LWPOLYLINE
  5
42
330
17
100
AcDbEntity
  8
FILL_WHITE_FFFFFF
370
0
420
16777215
100
AcDbPolyline
 90
35
 70
1
 10
154.44
 20
110.88
 10
144.36
 20
120.96
 10
184.5
 20
161.28
 10
186.82
 20
163.81
 10
188.91
 20
166.57
 10
190.73
 20
169.56
 10
191.52
 20
171.15
 10
192.24
 20
172.8
 10
193.42
 20
176.2
 10
194.27
 20
179.64
 10
194.77
 20
183.08
 10
194.94
 20
186.48
 10
194.94
 20
214.74
 10
180.72
 20
200.52
 10
180.72
 20
221.94
 10
202.14
 20
243.36
 10
223.56
 20
221.94
 10
223.56
 20
200.52
 10
209.34
 20
214.74
 10
209.34
 20
186.48
 10
209.28
 20
184.05
 10
209.1
 20
181.63
 10
208.81
 20
179.21
 10
208.4
 20
176.8
 10
207.86
 20
174.42
 10
207.21
 20
172.05
 10
206.45
 20
169.71
 10
205.56
 20
167.4
 10
204.5
 20
165.08
 10
203.34
 20
162.84
 10
202.09
 20
160.68
 10
200.75
 20
158.6
 10
199.32
 20
156.6
 10
197.81
 20
154.67
 10
194.58
 20
151.02
  0
LWPOLYLINE
  5
44
330
17
100
AcDbEntity
  8
STROKE_LIME_00FF00
370
0
420
65280
100
AcDbPolyline
 90
2
 70
0
 10
136.08000000000015
 20
264.7799
 10
433.26000000000016
 20
264.7799
  0
LWPOLYLINE
  5
45
330
17
100
AcDbEntity
  8
STROKE_LIME_00FF00
370
0
420
65280
100
AcDbPolyline
 90
17
 70
0
 10
120.05999999999995
 20
248.76000000000022
 10
120.14301269531245
 20
250.4230664062502
 10
120.38660156249995
 20
252.03234375000022
 10
120.78259277343744
 20
253.58044921875023
 10
121.32281249999994
 20
255.06000000000023
 10
121.99908691406246
 20
256.4636132812502
 10
122.80324218749993
 20
257.7839062500002
 10
123.72710449218745
 20
259.01349609375023
 10
124.76249999999993
 20
260.1450000000002
 10
125.90125488281244
 20
261.17103515625024
 10
127.13519531249993
 20
262.0842187500002
 10
128.45614746093747
 20
262.8771679687502
 10
129.85593749999992
 20
263.54250000000025
 10
131.32639160156245
 20
264.07283203125024
 10
132.85933593749996
 20
264.4607812500002
 10
134.44659667968745
 20
264.6989648437502
 10
136.07999999999996
 20
264.7800000000002
  0
LWPOLYLINE
  5
46
330
17
100
AcDbEntity
  8
STROKE_LIME_00FF00
370
0
420
65280
100
AcDbPolyline
 90
2
 70
0
 10
120.05999999999995
 20
23.219900000000052
 10
120.05999999999995
 20
248.75990000000004
  0
LWPOLYLINE
  5
47
330
17
100
AcDbEntity
  8
STROKE_LIME_00FF00
370
0
420
65280
100
AcDbPolyline
 90
17
 70
0
 10
136.08000000000015
 20
7.199900000000525
 10
134.44659667968767
 20
7.28291269531303
 10
132.85933593750013
 20
7.526501562500528
 10
131.32639160156268
 20
7.922492773438023
 10
129.85593750000015
 20
8.46271250000052
 10
128.45614746093767
 20
9.138986914063025
 10
127.13519531250016
 20
9.943142187500541
 10
125.90125488281267
 20
10.867004492188016
 10
124.76250000000016
 20
11.902400000000569
 10
123.72710449218766
 20
13.041154882813032
 10
122.80324218750016
 20
14.275095312500525
 10
121.99908691406264
 20
15.596047460937996
 10
121.32281250000015
 20
16.995837500000505
 10
120.78259277343767
 20
18.466291601563
 10
120.38660156250016
 20
19.999235937500544
 10
120.14301269531265
 20
21.586496679688054
 10
120.06000000000016
 20
23.219900000000536
  0
LWPOLYLINE
  5
48
330
17
100
AcDbEntity
  8
STROKE_LIME_00FF00
370
0
420
65280
100
AcDbPolyline
 90
2
 70
0
 10
433.26
 20
7.199900000000525
 10
136.07999999999998
 20
7.199900000000525
  0
LWPOLYLINE
  5
49
330
17
100
AcDbEntity
  8
STROKE_LIME_00FF00
370
0
420
65280
100
AcDbPolyline
 90
17
 70
0
 10
449.2801000000002
 20
23.219900000000052
 10
449.1990648437502
 20
21.58649667968757
 10
448.96088125000017
 20
19.999235937500032
 10
448.5729320312502
 20
18.466291601562546
 10
448.0426000000001
 20
16.99583750000005
 10
447.3772679687501
 20
15.596047460937541
 10
446.58431875000014
 20
14.27509531250007
 10
445.6711351562502
 20
13.041154882812577
 10
444.6451000000002
 20
11.902400000000057
 10
443.51359609375015
 20
10.867004492187561
 10
442.2840062500002
 20
9.943142187500086
 10
440.96371328125014
 20
9.13898691406257
 10
439.5601000000002
 20
8.462712500000066
 10
438.0805492187502
 20
7.922492773437568
 10
436.5324437500002
 20
7.526501562500073
 10
434.9231664062502
 20
7.282912695312575
 10
433.2601000000002
 20
7.199900000000071
  0
LWPOLYLINE
  5
4A
330
17
100
AcDbEntity
  8
STROKE_LIME_00FF00
370
0
420
65280
100
AcDbPolyline
 90
2
 70
0
 10
449.2801000000002
 20
248.76000000000022
 10
449.2801000000002
 20
23.220000000000226
  0
LWPOLYLINE
  5
4B
330
17
100
AcDbEntity
  8
STROKE_LIME_00FF00
370
0
420
65280
100
AcDbPolyline
 90
17
 70
0
 10
433.26
 20
264.7799
 10
434.92306640625003
 20
264.69886484375
 10
436.53234374999994
 20
264.46068125
 10
438.08044921875
 20
264.07273203125
 10
439.56
 20
263.5424
 10
440.96361328125
 20
262.87706796875
 10
442.28390625
 20
262.08411875
 10
443.51349609375
 20
261.17093515625
 10
444.645
 20
260.1449
 10
445.67103515625
 20
259.01339609375
 10
446.58421874999993
 20
257.78380625
 10
447.37716796875
 20
256.46351328125
 10
448.0424999999999
 20
255.0599
 10
448.57283203124996
 20
253.58034921875
 10
448.96078124999997
 20
252.03224375
 10
449.19896484375
 20
250.42296640625
 10
449.28
 20
248.7599
  0
ENDSEC
  0
SECTION
  2
OBJECTS
  0
DICTIONARY
  5
A
330
0
100
AcDbDictionary
281
1
  3
ACAD_COLOR
350
B
  3
ACAD_GROUP
350
C
  3
ACAD_LAYOUT
350
D
  3
ACAD_MATERIAL
350
E
  3
ACAD_MLEADERSTYLE
350
F
  3
ACAD_MLINESTYLE
350
10
  3
ACAD_PLOTSETTINGS
350
11
  3
ACAD_PLOTSTYLENAME
350
12
  3
ACAD_SCALELIST
350
14
  3
ACAD_TABLESTYLE
350
15
  3
ACAD_VISUALSTYLE
350
16
  3
EZDXF_META
350
2D
  0
DICTIONARY
  5
B
330
A
100
AcDbDictionary
281
1
  0
DICTIONARY
  5
C
330
A
100
AcDbDictionary
281
1
  0
DICTIONARY
  5
D
330
A
100
AcDbDictionary
281
1
  3
Model
350
1A
  3
Layout1
350
1E
  0
DICTIONARY
  5
E
330
A
100
AcDbDictionary
281
1
  3
ByBlock
350
1F
  3
ByLayer
350
20
  3
Global
350
21
  0
DICTIONARY
  5
F
330
A
100
AcDbDictionary
281
1
  3
Standard
350
2C
  0
DICTIONARY
  5
10
330
A
100
AcDbDictionary
281
1
  3
Standard
350
22
  0
DICTIONARY
  5
11
330
A
100
AcDbDictionary
281
1
  0
ACDBDICTIONARYWDFLT
  5
12
330
A
100
AcDbDictionary
281
1
  3
Normal
350
13
100
AcDbDictionaryWithDefault
340
13
  0
ACDBPLACEHOLDER
  5
13
330
12
  0
DICTIONARY
  5
14
330
A
100
AcDbDictionary
281
1
  0
DICTIONARY
  5
15
330
A
100
AcDbDictionary
281
1
  0
DICTIONARY
  5
16
330
A
100
AcDbDictionary
281
1
  0
LAYOUT
  5
1A
330
D
100
AcDbPlotSettings
  1

  4
A3
  6

 40
7.5
 41
20.0
 42
7.5
 43
20.0
 44
420.0
 45
297.0
 46
0.0
 47
0.0
 48
0.0
 49
0.0
140
0.0
141
0.0
142
1.0
143
1.0
 70
1024
 72
1
 73
0
 74
5
  7

 75
16
 76
0
 77
2
 78
300
147
1.0
148
0.0
149
0.0
100
AcDbLayout
  1
Model
 70
1
 71
0
 10
0.0
 20
0.0
 11
420.0
 21
297.0
 12
0.0
 22
0.0
 32
0.0
 14
1e+20
 24
1e+20
 34
1e+20
 15
-1e+20
 25
-1e+20
 35
-1e+20
146
0.0
 13
0.0
 23
0.0
 33
0.0
 16
1.0
 26
0.0
 36
0.0
 17
0.0
 27
1.0
 37
0.0
 76
1
330
17
  0
LAYOUT
  5
1E
330
D
100
AcDbPlotSettings
  1

  4
A3
  6

 40
7.5
 41
20.0
 42
7.5
 43
20.0
 44
420.0
 45
297.0
 46
0.0
 47
0.0
 48
0.0
 49
0.0
140
0.0
141
0.0
142
1.0
143
1.0
 70
0
 72
1
 73
0
 74
5
  7

 75
16
 76
0
 77
2
 78
300
147
1.0
148
0.0
149
0.0
100
AcDbLayout
  1
Layout1
 70
1
 71
1
 10
0.0
 20
0.0
 11
420.0
 21
297.0
 12
0.0
 22
0.0
 32
0.0
 14
1e+20
 24
1e+20
 34
1e+20
 15
-1e+20
 25
-1e+20
 35
-1e+20
146
0.0
 13
0.0
 23
0.0
 33
0.0
 16
1.0
 26
0.0
 36
0.0
 17
0.0
 27
1.0
 37
0.0
 76
1
330
1B
  0
MATERIAL
  5
1F
102
{ACAD_REACTORS
330
E
102
}
330
E
100
AcDbMaterial
  1
ByBlock
  2

 70
0
 40
1.0
 71
1
 41
1.0
 91
-1023410177
 42
1.0
 72
1
  3

 73
1
 74
1
 75
1
 44
0.5
 73
0
 45
1.0
 46
1.0
 77
1
  4

 78
1
 79
1
170
1
 48
1.0
171
1
  6

172
1
173
1
174
1
140
1.0
141
1.0
175
1
  7

176
1
177
1
178
1
143
1.0
179
1
  8

270
1
271
1
272
1
145
1.0
146
1.0
273
1
  9

274
1
275
1
276
1
 42
1.0
 72
1
  3

 73
1
 74
1
 75
1
 94
63
  0
MATERIAL
  5
20
102
{ACAD_REACTORS
330
E
102
}
330
E
100
AcDbMaterial
  1
ByLayer
  2

 70
0
 40
1.0
 71
1
 41
1.0
 91
-1023410177
 42
1.0
 72
1
  3

 73
1
 74
1
 75
1
 44
0.5
 73
0
 45
1.0
 46
1.0
 77
1
  4

 78
1
 79
1
170
1
 48
1.0
171
1
  6

172
1
173
1
174
1
140
1.0
141
1.0
175
1
  7

176
1
177
1
178
1
143
1.0
179
1
  8

270
1
271
1
272
1
145
1.0
146
1.0
273
1
  9

274
1
275
1
276
1
 42
1.0
 72
1
  3

 73
1
 74
1
 75
1
 94
63
  0
MATERIAL
  5
21
102
{ACAD_REACTORS
330
E
102
}
330
E
100
AcDbMaterial
  1
Global
  2

 70
0
 40
1.0
 71
1
 41
1.0
 91
-1023410177
 42
1.0
 72
1
  3

 73
1
 74
1
 75
1
 44
0.5
 73
0
 45
1.0
 46
1.0
 77
1
  4

 78
1
 79
1
170
1
 48
1.0
171
1
  6

172
1
173
1
174
1
140
1.0
141
1.0
175
1
  7

176
1
177
1
178
1
143
1.0
179
1
  8

270
1
271
1
272
1
145
1.0
146
1.0
273
1
  9

274
1
275
1
276
1
 42
1.0
 72
1
  3

 73
1
 74
1
 75
1
 94
63
  0
MLINESTYLE
  5
22
102
{ACAD_REACTORS
330
10
102
}
330
10
100
AcDbMlineStyle
  2
Standard
 70
0
  3

 62
256
 51
90.0
 52
90.0
 71
2
 49
0.5
 62
256
  6
BYLAYER
 49
-0.5
 62
256
  6
BYLAYER
  0
MLEADERSTYLE
  5
2C
102
{ACAD_REACTORS
330
F
102
}
330
F
100
AcDbMLeaderStyle
179
2
170
2
171
1
172
0
 90
2
 40
0.0
 41
0.0
173
1
 91
-1056964608
 92
-2
290
1
 42
2.0
291
1
 43
8.0
  3
Standard
 44
4.0
300

342
29
174
1
175
1
176
0
178
1
 93
-1056964608
 45
4.0
292
0
297
0
 46
4.0
 94
-1056964608
 47
1.0
 49
1.0
140
1.0
294
1
141
0.0
177
0
142
1.0
295
0
296
0
143
3.75
271
0
272
9
273
9
  0
DICTIONARY
  5
2D
330
A
100
AcDbDictionary
280
1
281
1
  3
CREATED_BY_EZDXF
350
2E
  3
WRITTEN_BY_EZDXF
350
4E
  0
DICTIONARYVAR
  5
2E
330
2D
100
DictionaryVariables
280
0
  1
1.4.4 @ 2026-07-10T01:53:57.393385+00:00
  0
DICTIONARYVAR
  5
4E
330
2D
100
DictionaryVariables
280
0
  1
1.4.4 @ 2026-07-10T01:53:57.397757+00:00
  0
ENDSEC
  0
EOF
