  0
SECTION
  2
HEADER
  9
$ACADVER
  1
AC1024
  9
$ACADMAINTVER
 70
6
  9
$DWGCODEPAGE
  3
ANSI_1252
  9
$LASTSAVEDBY
  1
ezdxf
  9
$INSBASE
 10
0.0
 20
0.0
 30
0.0
  9
$EXTMIN
 10
1e+20
 20
1e+20
 30
1e+20
  9
$EXTMAX
 10
-1e+20
 20
-1e+20
 30
-1e+20
  9
$LIMMIN
 10
0.0
 20
0.0
  9
$LIMMAX
 10
420.0
 20
297.0
  9
$ORTHOMODE
 70
0
  9
$REGENMODE
 70
1
  9
$FILLMODE
 70
1
  9
$QTEXTMODE
 70
0
  9
$MIRRTEXT
 70
1
  9
$LTSCALE
 40
1.0
  9
$ATTMODE
 70
1
  9
$TEXTSIZE
 40
2.5
  9
$TRACEWID
 40
1.0
  9
$TEXTSTYLE
  7
Standard
  9
$CLAYER
  8
0
  9
$CELTYPE
  6
ByLayer
  9
$CECOLOR
 62
256
  9
$CELTSCALE
 40
1.0
  9
$DISPSILH
 70
0
  9
$DIMSCALE
 40
1.0
  9
$DIMASZ
 40
2.5
  9
$DIMEXO
 40
0.625
  9
$DIMDLI
 40
3.75
  9
$DIMRND
 40
0.0
  9
$DIMDLE
 40
0.0
  9
$DIMEXE
 40
1.25
  9
$DIMTP
 40
0.0
  9
$DIMTM
 40
0.0
  9
$DIMTXT
 40
2.5
  9
$DIMCEN
 40
2.5
  9
$DIMTSZ
 40
0.0
  9
$DIMTOL
 70
0
  9
$DIMLIM
 70
0
  9
$DIMTIH
 70
0
  9
$DIMTOH
 70
0
  9
$DIMSE1
 70
0
  9
$DIMSE2
 70
0
  9
$DIMTAD
 70
1
  9
$DIMZIN
 70
8
  9
$DIMBLK
  1

  9
$DIMASO
 70
1
  9
$DIMSHO
 70
1
  9
$DIMPOST
  1

  9
$DIMAPOST
  1

  9
$DIMALT
 70
0
  9
$DIMALTD
 70
3
  9
$DIMALTF
 40
0.03937007874
  9
$DIMLFAC
 40
1.0
  9
$DIMTOFL
 70
1
  9
$DIMTVP
 40
0.0
  9
$DIMTIX
 70
0
  9
$DIMSOXD
 70
0
  9
$DIMSAH
 70
0
  9
$DIMBLK1
  1

  9
$DIMBLK2
  1

  9
$DIMSTYLE
  2
ISO-25
  9
$DIMCLRD
 70
0
  9
$DIMCLRE
 70
0
  9
$DIMCLRT
 70
0
  9
$DIMTFAC
 40
1.0
  9
$DIMGAP
 40
0.625
  9
$DIMJUST
 70
0
  9
$DIMSD1
 70
0
  9
$DIMSD2
 70
0
  9
$DIMTOLJ
 70
0
  9
$DIMTZIN
 70
8
  9
$DIMALTZ
 70
0
  9
$DIMALTTZ
 70
0
  9
$DIMUPT
 70
0
  9
$DIMDEC
 70
2
  9
$DIMTDEC
 70
2
  9
$DIMALTU
 70
2
  9
$DIMALTTD
 70
3
  9
$DIMTXSTY
  7
Standard
  9
$DIMAUNIT
 70
0
  9
$DIMADEC
 70
0
  9
$DIMALTRND
 40
0.0
  9
$DIMAZIN
 70
0
  9
$DIMDSEP
 70
44
  9
$DIMATFIT
 70
3
  9
$DIMFRAC
 70
0
  9
$DIMLDRBLK
  1

  9
$DIMLUNIT
 70
2
  9
$DIMLWD
 70
-2
  9
$DIMLWE
 70
-2
  9
$DIMTMOVE
 70
0
  9
$DIMFXL
 40
1.0
  9
$DIMFXLON
 70
0
  9
$DIMJOGANG
 40
0.785398163397
  9
$DIMTFILL
 70
0
  9
$DIMTFILLCLR
 70
0
  9
$DIMARCSYM
 70
0
  9
$DIMLTYPE
  6

  9
$DIMLTEX1
  6

  9
$DIMLTEX2
  6

  9
$DIMTXTDIRECTION
 70
0
  9
$LUNITS
 70
2
  9
$LUPREC
 70
4
  9
$SKETCHINC
 40
1.0
  9
$FILLETRAD
 40
10.0
  9
$AUNITS
 70
0
  9
$AUPREC
 70
2
  9
$MENU
  1
.
  9
$ELEVATION
 40
0.0
  9
$PELEVATION
 40
0.0
  9
$THICKNESS
 40
0.0
  9
$LIMCHECK
 70
0
  9
$CHAMFERA
 40
0.0
  9
$CHAMFERB
 40
0.0
  9
$CHAMFERC
 40
0.0
  9
$CHAMFERD
 40
0.0
  9
$SKPOLY
 70
0
  9
$TDCREATE
 40
2461232.412488426
  9
$TDUCREATE
 40
2458532.153996898
  9
$TDUPDATE
 40
2461232.412488426
  9
$TDUUPDATE
 40
2458532.1544311
  9
$TDINDWG
 40
0.0
  9
$TDUSRTIMER
 40
0.0
  9
$USRTIMER
 70
1
  9
$ANGBASE
 50
0.0
  9
$ANGDIR
 70
0
  9
$PDMODE
 70
0
  9
$PDSIZE
 40
0.0
  9
$PLINEWID
 40
0.0
  9
$SPLFRAME
 70
0
  9
$SPLINETYPE
 70
6
  9
$SPLINESEGS
 70
8
  9
$HANDSEED
  5
4E
  9
$SURFTAB1
 70
6
  9
$SURFTAB2
 70
6
  9
$SURFTYPE
 70
6
  9
$SURFU
 70
6
  9
$SURFV
 70
6
  9
$UCSBASE
  2

  9
$UCSNAME
  2

  9
$UCSORG
 10
0.0
 20
0.0
 30
0.0
  9
$UCSXDIR
 10
1.0
 20
0.0
 30
0.0
  9
$UCSYDIR
 10
0.0
 20
1.0
 30
0.0
  9
$UCSORTHOREF
  2

  9
$UCSORTHOVIEW
 70
0
  9
$UCSORGTOP
 10
0.0
 20
0.0
 30
0.0
  9
$UCSORGBOTTOM
 10
0.0
 20
0.0
 30
0.0
  9
$UCSORGLEFT
 10
0.0
 20
0.0
 30
0.0
  9
$UCSORGRIGHT
 10
0.0
 20
0.0
 30
0.0
  9
$UCSORGFRONT
 10
0.0
 20
0.0
 30
0.0
  9
$UCSORGBACK
 10
0.0
 20
0.0
 30
0.0
  9
$PUCSBASE
  2

  9
$PUCSNAME
  2

  9
$PUCSORG
 10
0.0
 20
0.0
 30
0.0
  9
$PUCSXDIR
 10
1.0
 20
0.0
 30
0.0
  9
$PUCSYDIR
 10
0.0
 20
1.0
 30
0.0
  9
$PUCSORTHOREF
  2

  9
$PUCSORTHOVIEW
 70
0
  9
$PUCSORGTOP
 10
0.0
 20
0.0
 30
0.0
  9
$PUCSORGBOTTOM
 10
0.0
 20
0.0
 30
0.0
  9
$PUCSORGLEFT
 10
0.0
 20
0.0
 30
0.0
  9
$PUCSORGRIGHT
 10
0.0
 20
0.0
 30
0.0
  9
$PUCSORGFRONT
 10
0.0
 20
0.0
 30
0.0
  9
$PUCSORGBACK
 10
0.0
 20
0.0
 30
0.0
  9
$USERI1
 70
0
  9
$USERI2
 70
0
  9
$USERI3
 70
0
  9
$USERI4
 70
0
  9
$USERI5
 70
0
  9
$USERR1
 40
0.0
  9
$USERR2
 40
0.0
  9
$USERR3
 40
0.0
  9
$USERR4
 40
0.0
  9
$USERR5
 40
0.0
  9
$WORLDVIEW
 70
1
  9
$SHADEDGE
 70
3
  9
$SHADEDIF
 70
70
  9
$TILEMODE
 70
1
  9
$MAXACTVP
 70
64
  9
$PINSBASE
 10
0.0
 20
0.0
 30
0.0
  9
$PLIMCHECK
 70
0
  9
$PEXTMIN
 10
1e+20
 20
1e+20
 30
1e+20
  9
$PEXTMAX
 10
-1e+20
 20
-1e+20
 30
-1e+20
  9
$PLIMMIN
 10
0.0
 20
0.0
  9
$PLIMMAX
 10
420.0
 20
297.0
  9
$UNITMODE
 70
0
  9
$VISRETAIN
 70
1
  9
$PLINEGEN
 70
0
  9
$PSLTSCALE
 70
1
  9
$TREEDEPTH
 70
3020
  9
$CMLSTYLE
  2
Standard
  9
$CMLJUST
 70
0
  9
$CMLSCALE
 40
20.0
  9
$PROXYGRAPHICS
 70
1
  9
$MEASUREMENT
 70
1
  9
$CELWEIGHT
370
-1
  9
$ENDCAPS
280
0
  9
$JOINSTYLE
280
0
  9
$LWDISPLAY
290
0
  9
$INSUNITS
 70
6
  9
$HYPERLINKBASE
  1

  9
$STYLESHEET
  1

  9
$XEDIT
290
1
  9
$CEPSNTYPE
380
0
  9
$PSTYLEMODE
290
1
  9
$FINGERPRINTGUID
  2
{CA32BC09-0595-479B-8040-35F228D01527}
  9
$VERSIONGUID
  2
{8D26E786-39E0-49CD-B3CD-BAFD420F6866}
  9
$EXTNAMES
290
1
  9
$PSVPSCALE
 40
0.0
  9
$OLESTARTUP
290
0
  9
$SORTENTS
280
127
  9
$INDEXCTL
280
0
  9
$HIDETEXT
280
1
  9
$XCLIPFRAME
280
1
  9
$HALOGAP
280
0
  9
$OBSCOLOR
 70
257
  9
$OBSLTYPE
280
0
  9
$INTERSECTIONDISPLAY
280
0
  9
$INTERSECTIONCOLOR
 70
257
  9
$DIMASSOC
280
2
  9
$PROJECTNAME
  1

  9
$CAMERADISPLAY
290
0
  9
$LENSLENGTH
 40
50.0
  9
$CAMERAHEIGHT
 40
0.0
  9
$STEPSPERSEC
 40
24.0
  9
$STEPSIZE
 40
100.0
  9
$3DDWFPREC
 40
2.0
  9
$PSOLWIDTH
 40
0.005
  9
$PSOLHEIGHT
 40
0.08
  9
$LOFTANG1
 40
1.570796326795
  9
$LOFTANG2
 40
1.570796326795
  9
$LOFTMAG1
 40
0.0
  9
$LOFTMAG2
 40
0.0
  9
$LOFTPARAM
 70
7
  9
$LOFTNORMALS
280
1
  9
$LATITUDE
 40
37.795
  9
$LONGITUDE
 40
-122.394
  9
$NORTHDIRECTION
 40
0.0
  9
$TIMEZONE
 70
-8000
  9
$LIGHTGLYPHDISPLAY
280
1
  9
$TILEMODELIGHTSYNCH
280
1
  9
$CMATERIAL
347
20
  9
$SOLIDHIST
280
0
  9
$SHOWHIST
280
1
  9
$DWFFRAME
280
2
  9
$DGNFRAME
280
2
  9
$REALWORLDSCALE
290
1
  9
$INTERFERECOLOR
 62
256
  9
$CSHADOW
280
0
  9
$SHADOWPLANELOCATION
 40
0.0
  0
ENDSEC
  0
SECTION
  2
CLASSES
  0
CLASS
  1
ACDBDICTIONARYWDFLT
  2
AcDbDictionaryWithDefault
  3
ObjectDBX Classes
 90
0
 91
0
280
0
281
0
  0
CLASS
  1
SUN
  2
AcDbSun
  3
SCENEOE
 90
1153
 91
0
280
0
281
0
  0
CLASS
  1
VISUALSTYLE
  2
AcDbVisualStyle
  3
ObjectDBX Classes
 90
4095
 91
0
280
0
281
0
  0
CLASS
  1
MATERIAL
  2
AcDbMaterial
  3
ObjectDBX Classes
 90
1153
 91
0
280
0
281
0
  0
CLASS
  1
SCALE
  2
AcDbScale
  3
ObjectDBX Classes
 90
1153
 91
0
280
0
281
0
  0
CLASS
  1
TABLESTYLE
  2
AcDbTableStyle
  3
ObjectDBX Classes
 90
4095
 91
0
280
0
281
0
  0
CLASS
  1
MLEADERSTYLE
  2
AcDbMLeaderStyle
  3
ACDB_MLEADERSTYLE_CLASS
 90
4095
 91
0
280
0
281
0
  0
CLASS
  1
DICTIONARYVAR
  2
AcDbDictionaryVar
  3
ObjectDBX Classes
 90
0
 91
0
280
0
281
0
  0
CLASS
  1
CELLSTYLEMAP
  2
AcDbCellStyleMap
  3
ObjectDBX Classes
 90
1152
 91
0
280
0
281
0
  0
CLASS
  1
MENTALRAYRENDERSETTINGS
  2
AcDbMentalRayRenderSettings
  3
SCENEOE
 90
1024
 91
0
280
0
281
0
  0
CLASS
  1
ACDBDETAILVIEWSTYLE
  2
AcDbDetailViewStyle
  3
ObjectDBX Classes
 90
1025
 91
0
280
0
281
0
  0
CLASS
  1
ACDBSECTIONVIEWSTYLE
  2
AcDbSectionViewStyle
  3
ObjectDBX Classes
 90
1025
 91
0
280
0
281
0
  0
CLASS
  1
RASTERVARIABLES
  2
AcDbRasterVariables
  3
ISM
 90
0
 91
0
280
0
281
0
  0
CLASS
  1
LAYOUT
  2
AcDbLayout
  3
ObjectDBX Classes
 90
0
 91
0
280
0
281
0
  0
CLASS
  1
ACDBPLACEHOLDER
  2
AcDbPlaceHolder
  3
ObjectDBX Classes
 90
0
 91
0
280
0
281
0
  0
ENDSEC
  0
SECTION
  2
TABLES
  0
TABLE
  2
VPORT
  5
8
330
0
100
AcDbSymbolTable
 70
1
  0
VPORT
  5
23
330
8
100
AcDbSymbolTableRecord
100
AcDbViewportTableRecord
  2
*Active
 70
0
 10
0.0
 20
0.0
 11
1.0
 21
1.0
 12
0.0
 22
0.0
 13
0.0
 23
0.0
 14
0.5
 24
0.5
 15
0.5
 25
0.5
 16
0.0
 26
0.0
 36
1.0
 17
0.0
 27
0.0
 37
0.0
 40
1000.0
 41
1.34
 42
50.0
 43
0.0
 44
0.0
 50
0.0
 51
0.0
 71
0
 72
1000
 73
1
 74
3
 75
0
 76
0
 77
0
 78
0
281
0
 65
0
146
0.0
  0
ENDTAB
  0
TABLE
  2
LTYPE
  5
2
330
0
100
AcDbSymbolTable
 70
3
  0
LTYPE
  5
24
330
2
100
AcDbSymbolTableRecord
100
AcDbLinetypeTableRecord
  2
ByBlock
 70
0
  3

 72
65
 73
0
 40
0.0
  0
LTYPE
  5
25
330
2
100
AcDbSymbolTableRecord
100
AcDbLinetypeTableRecord
  2
ByLayer
 70
0
  3

 72
65
 73
0
 40
0.0
  0
LTYPE
  5
26
330
2
100
AcDbSymbolTableRecord
100
AcDbLinetypeTableRecord
  2
Continuous
 70
0
  3

 72
65
 73
0
 40
0.0
  0
ENDTAB
  0
TABLE
  2
LAYER
  5
1
330
0
100
AcDbSymbolTable
 70
5
  0
LAYER
  5
27
330
1
100
AcDbSymbolTableRecord
100
AcDbLayerTableRecord
  2
0
 70
0
 62
7
  6
Continuous
370
-3
390
13
347
21
  0
LAYER
  5
28
330
1
100
AcDbSymbolTableRecord
100
AcDbLayerTableRecord
  2
Defpoints
 70
0
 62
7
  6
Continuous
290
0
370
-3
390
13
347
21
  0
LAYER
  5
2F
330
1
100
AcDbSymbolTableRecord
100
AcDbLayerTableRecord
  2
FILL_WHITE_FFFFFF
 70
0
 62
7
420
16777215
  6
Continuous
370
-3
390
13
347
21
  0
LAYER
  5
32
330
1
100
AcDbSymbolTableRecord
100
AcDbLayerTableRecord
  2
FILL_BLUE_0000FF
 70
0
 62
7
420
255
  6
Continuous
370
-3
390
13
347
21
  0
LAYER
  5
49
330
1
100
AcDbSymbolTableRecord
100
AcDbLayerTableRecord
  2
STROKE_BLUE_0000FF
 70
0
 62
7
420
255
  6
Continuous
370
-3
390
13
347
21
  0
ENDTAB
  0
TABLE
  2
STYLE
  5
5
330
0
100
AcDbSymbolTable
 70
1
  0
STYLE
  5
29
330
5
100
AcDbSymbolTableRecord
100
AcDbTextStyleTableRecord
  2
Standard
 70
0
 40
0.0
 41
1.0
 50
0.0
 71
0
 42
2.5
  3
txt
  4

  0
ENDTAB
  0
TABLE
  2
VIEW
  5
7
330
0
100
AcDbSymbolTable
 70
0
  0
ENDTAB
  0
TABLE
  2
UCS
  5
6
330
0
100
AcDbSymbolTable
 70
0
  0
ENDTAB
  0
TABLE
  2
APPID
  5
3
330
0
100
AcDbSymbolTable
 70
3
  0
APPID
  5
2A
330
3
100
AcDbSymbolTableRecord
100
AcDbRegAppTableRecord
  2
ACAD
 70
0
  0
APPID
  5
4B
330
3
100
AcDbSymbolTableRecord
100
AcDbRegAppTableRecord
  2
HATCHBACKGROUNDCOLOR
 70
0
  0
APPID
  5
4C
330
3
100
AcDbSymbolTableRecord
100
AcDbRegAppTableRecord
  2
EZDXF
 70
0
  0
ENDTAB
  0
TABLE
  2
DIMSTYLE
  5
4
330
0
100
AcDbSymbolTable
 70
1
100
AcDbDimStyleTable
  0
DIMSTYLE
105
2B
330
4
100
AcDbSymbolTableRecord
100
AcDbDimStyleTableRecord
  2
Standard
 70
0
 40
1.0
 41
2.5
 42
0.625
 43
3.75
 44
1.25
 45
0.0
 46
0.0
 47
0.0
 48
0.0
 49
2.5
140
2.5
141
2.5
142
0.0
143
0.03937007874
144
1.0
145
0.0
146
1.0
147
0.625
148
0.0
 69
0
 70
0
 71
0
 72
0
 73
0
 74
0
 75
0
 76
0
 77
1
 78
8
 79
3
170
0
171
3
172
1
173
0
174
0
175
0
176
0
177
0
178
0
179
2
271
2
272
2
273
2
274
3
275
0
276
0
277
2
278
44
279
0
280
0
281
0
282
0
283
0
284
8
285
0
286
0
288
0
289
3
290
0
371
-2
372
-2
  0
ENDTAB
  0
TABLE
  2
BLOCK_RECORD
  5
9
330
0
100
AcDbSymbolTable
 70
2
  0
BLOCK_RECORD
  5
17
330
9
100
AcDbSymbolTableRecord
100
AcDbBlockTableRecord
  2
*Model_Space
340
1A
 70
0
280
1
281
0
  0
BLOCK_RECORD
  5
1B
330
9
100
AcDbSymbolTableRecord
100
AcDbBlockTableRecord
  2
*Paper_Space
340
1E
 70
0
280
1
281
0
  0
ENDTAB
  0
ENDSEC
  0
SECTION
  2
BLOCKS
  0
BLOCK
  5
18
330
17
100
AcDbEntity
  8
0
100
AcDbBlockBegin
  2
*Model_Space
 70
0
 10
0.0
 20
0.0
 30
0.0
  3
*Model_Space
  1

  0
ENDBLK
  5
19
330
17
100
AcDbEntity
  8
0
100
AcDbBlockEnd
  0
BLOCK
  5
1C
330
1B
100
AcDbEntity
  8
0
100
AcDbBlockBegin
  2
*Paper_Space
 70
0
 10
0.0
 20
0.0
 30
0.0
  3
*Paper_Space
  1

  0
ENDBLK
  5
1D
330
1B
100
AcDbEntity
  8
0
100
AcDbBlockEnd
  0
ENDSEC
  0
SECTION
  2
ENTITIES
  0
HATCH
  5
30
330
17
100
AcDbEntity
  8
FILL_WHITE_FFFFFF
 62
7
420
16777215
100
AcDbHatch
 10
0.0
 20
0.0
 30
0.0
210
0.0
220
0.0
230
1.0
  2
SOLID
 70
1
 71
0
 91
1
 92
3
 72
0
 73
1
 93
68
 10
89.61
 20
8.16
 10
87.81
 20
8.18
 10
86.01
 20
8.31
 10
84.21
 20
8.67
 10
82.41
 20
9.36
 10
78.81
 20
11.31
 10
77.01
 20
12.57
 10
75.21
 20
14.16
 10
74.14
 20
15.27
 10
72.96
 20
16.71
 10
72.43
 20
17.52
 10
72.0
 20
18.38
 10
71.72
 20
19.26
 10
71.61
 20
20.16
 10
69.96
 20
24.81
 10
69.42
 20
26.74
 10
69.21
 20
28.56
 10
69.21
 20
240.96
 10
69.32
 20
243.15
 10
69.64
 20
245.23
 10
70.16
 20
247.2
 10
70.86
 20
249.06
 10
71.73
 20
250.8
 10
72.75
 20
252.43
 10
73.92
 20
253.95
 10
75.21
 20
255.36
 10
77.01
 20
256.95
 10
78.81
 20
258.21
 10
82.41
 20
260.16
 10
84.21
 20
260.85
 10
86.01
 20
261.21
 10
87.81
 20
261.34
 10
89.61
 20
261.36
 10
477.21
 20
261.36
 10
479.01
 20
261.3
 10
480.81
 20
261.1
 10
482.61
 20
260.73
 10
484.41
 20
260.16
 10
486.21
 20
259.37
 10
488.01
 20
258.32
 10
489.81
 20
257.0
 10
491.61
 20
255.36
 10
492.9
 20
253.95
 10
494.07
 20
252.43
 10
495.09
 20
250.8
 10
495.96
 20
249.06
 10
496.66
 20
247.2
 10
497.18
 20
245.23
 10
497.5
 20
243.15
 10
497.61
 20
240.96
 10
497.61
 20
28.56
 10
497.5
 20
26.35
 10
497.18
 20
24.24
 10
496.65
 20
22.22
 10
495.94
 20
20.31
 10
495.05
 20
18.51
 10
494.0
 20
16.83
 10
492.8
 20
15.28
 10
491.46
 20
13.86
 10
489.99
 20
12.58
 10
488.41
 20
11.45
 10
486.73
 20
10.47
 10
484.95
 20
9.66
 10
483.1
 20
9.01
 10
481.19
 20
8.54
 10
479.22
 20
8.26
 10
477.21
 20
8.16
 10
89.61
 20
8.16
 97
0
 75
1
 76
1
 98
0
  0
LWPOLYLINE
  5
31
330
17
100
AcDbEntity
  8
FILL_WHITE_FFFFFF
370
0
420
16777215
100
AcDbPolyline
 90
67
 70
1
 10
89.61
 20
8.16
 10
87.81
 20
8.18
 10
86.01
 20
8.31
 10
84.21
 20
8.67
 10
82.41
 20
9.36
 10
78.81
 20
11.31
 10
77.01
 20
12.57
 10
75.21
 20
14.16
 10
74.14
 20
15.27
 10
72.96
 20
16.71
 10
72.43
 20
17.52
 10
72.0
 20
18.38
 10
71.72
 20
19.26
 10
71.61
 20
20.16
 10
69.96
 20
24.81
 10
69.42
 20
26.74
 10
69.21
 20
28.56
 10
69.21
 20
240.96
 10
69.32
 20
243.15
 10
69.64
 20
245.23
 10
70.16
 20
247.2
 10
70.86
 20
249.06
 10
71.73
 20
250.8
 10
72.75
 20
252.43
 10
73.92
 20
253.95
 10
75.21
 20
255.36
 10
77.01
 20
256.95
 10
78.81
 20
258.21
 10
82.41
 20
260.16
 10
84.21
 20
260.85
 10
86.01
 20
261.21
 10
87.81
 20
261.34
 10
89.61
 20
261.36
 10
477.21
 20
261.36
 10
479.01
 20
261.3
 10
480.81
 20
261.1
 10
482.61
 20
260.73
 10
484.41
 20
260.16
 10
486.21
 20
259.37
 10
488.01
 20
258.32
 10
489.81
 20
257.0
 10
491.61
 20
255.36
 10
492.9
 20
253.95
 10
494.07
 20
252.43
 10
495.09
 20
250.8
 10
495.96
 20
249.06
 10
496.66
 20
247.2
 10
497.18
 20
245.23
 10
497.5
 20
243.15
 10
497.61
 20
240.96
 10
497.61
 20
28.56
 10
497.5
 20
26.35
 10
497.18
 20
24.24
 10
496.65
 20
22.22
 10
495.94
 20
20.31
 10
495.05
 20
18.51
 10
494.0
 20
16.83
 10
492.8
 20
15.28
 10
491.46
 20
13.86
 10
489.99
 20
12.58
 10
488.41
 20
11.45
 10
486.73
 20
10.47
 10
484.95
 20
9.66
 10
483.1
 20
9.01
 10
481.19
 20
8.54
 10
479.22
 20
8.26
 10
477.21
 20
8.16
  0
HATCH
  5
33
330
17
100
AcDbEntity
  8
FILL_BLUE_0000FF
 62
7
420
255
100
AcDbHatch
 10
0.0
 20
0.0
 30
0.0
210
0.0
220
0.0
230
1.0
  2
SOLID
 70
1
 71
0
 91
1
 92
3
 72
0
 73
1
 93
53
 10
478.31
 20
251.7
 10
479.35
 20
251.54
 10
480.32
 20
251.28
 10
481.24
 20
250.92
 10
482.1
 20
250.46
 10
482.88
 20
249.92
 10
483.61
 20
249.31
 10
484.26
 20
248.61
 10
485.35
 20
247.01
 10
486.15
 20
245.18
 10
486.64
 20
243.15
 10
486.81
 20
240.96
 10
486.81
 20
28.56
 10
486.77
 20
26.59
 10
486.51
 20
24.51
 10
486.22
 20
23.53
 10
485.8
 20
22.65
 10
485.2
 20
21.92
 10
484.41
 20
21.36
 10
482.61
 20
19.78
 10
480.81
 20
18.66
 10
479.91
 20
18.27
 10
479.01
 20
17.98
 10
478.11
 20
17.82
 10
477.21
 20
17.76
 10
89.61
 20
17.76
 10
88.71
 20
17.82
 10
87.81
 20
17.98
 10
86.91
 20
18.27
 10
86.01
 20
18.66
 10
84.21
 20
19.78
 10
82.41
 20
21.36
 10
81.96
 20
21.92
 10
81.53
 20
22.65
 10
80.76
 20
24.51
 10
80.22
 20
26.59
 10
80.01
 20
28.56
 10
80.01
 20
240.96
 10
80.01
 20
245.76
 10
80.72
 20
246.64
 10
81.21
 20
247.41
 10
81.7
 20
247.95
 10
82.01
 20
248.11
 10
82.41
 20
248.16
 10
84.21
 20
249.81
 10
85.11
 20
250.35
 10
86.01
 20
250.56
 10
86.91
 20
251.25
 10
87.81
 20
251.61
 10
88.71
 20
251.74
 10
89.61
 20
251.76
 10
477.21
 20
251.76
 10
478.31
 20
251.7
 97
0
 75
1
 76
1
 98
0
  0
LWPOLYLINE
  5
34
330
17
100
AcDbEntity
  8
FILL_BLUE_0000FF
370
0
420
255
100
AcDbPolyline
 90
52
 70
1
 10
478.31
 20
251.7
 10
479.35
 20
251.54
 10
480.32
 20
251.28
 10
481.24
 20
250.92
 10
482.1
 20
250.46
 10
482.88
 20
249.92
 10
483.61
 20
249.31
 10
484.26
 20
248.61
 10
485.35
 20
247.01
 10
486.15
 20
245.18
 10
486.64
 20
243.15
 10
486.81
 20
240.96
 10
486.81
 20
28.56
 10
486.77
 20
26.59
 10
486.51
 20
24.51
 10
486.22
 20
23.53
 10
485.8
 20
22.65
 10
485.2
 20
21.92
 10
484.41
 20
21.36
 10
482.61
 20
19.78
 10
480.81
 20
18.66
 10
479.91
 20
18.27
 10
479.01
 20
17.98
 10
478.11
 20
17.82
 10
477.21
 20
17.76
 10
89.61
 20
17.76
 10
88.71
 20
17.82
 10
87.81
 20
17.98
 10
86.91
 20
18.27
 10
86.01
 20
18.66
 10
84.21
 20
19.78
 10
82.41
 20
21.36
 10
81.96
 20
21.92
 10
81.53
 20
22.65
 10
80.76
 20
24.51
 10
80.22
 20
26.59
 10
80.01
 20
28.56
 10
80.01
 20
240.96
 10
80.01
 20
245.76
 10
80.72
 20
246.64
 10
81.21
 20
247.41
 10
81.7
 20
247.95
 10
82.01
 20
248.11
 10
82.41
 20
248.16
 10
84.21
 20
249.81
 10
85.11
 20
250.35
 10
86.01
 20
250.56
 10
86.91
 20
251.25
 10
87.81
 20
251.61
 10
88.71
 20
251.74
 10
89.61
 20
251.76
 10
477.21
 20
251.76
  0
HATCH
  5
35
330
17
100
AcDbEntity
  8
FILL_WHITE_FFFFFF
 62
7
420
16777215
100
AcDbHatch
 10
0.0
 20
0.0
 30
0.0
210
0.0
220
0.0
230
1.0
  2
SOLID
 70
1
 71
0
 91
1
 92
3
 72
0
 73
1
 93
5
 10
290.01
 20
30.96
 10
276.81
 20
30.96
 10
276.81
 20
238.56
 10
290.01
 20
238.56
 10
290.01
 20
30.96
 97
0
 75
1
 76
1
 98
0
  0
LWPOLYLINE
  5
36
330
17
100
AcDbEntity
  8
FILL_WHITE_FFFFFF
370
0
420
16777215
100
AcDbPolyline
 90
4
 70
1
 10
290.01
 20
30.96
 10
276.81
 20
30.96
 10
276.81
 20
238.56
 10
290.01
 20
238.56
  0
HATCH
  5
37
330
17
100
AcDbEntity
  8
FILL_WHITE_FFFFFF
 62
7
420
16777215
100
AcDbHatch
 10
0.0
 20
0.0
 30
0.0
210
0.0
220
0.0
230
1.0
  2
SOLID
 70
1
 71
0
 91
1
 92
3
 72
0
 73
1
 93
10
 10
178.41
 20
201.36
 10
204.81
 20
174.96
 10
204.81
 20
148.56
 10
186.81
 20
166.56
 10
186.81
 20
68.16
 10
168.81
 20
68.16
 10
168.81
 20
166.56
 10
152.01
 20
148.56
 10
152.01
 20
174.96
 10
178.41
 20
201.36
 97
0
 75
1
 76
1
 98
0
  0
LWPOLYLINE
  5
38
330
17
100
AcDbEntity
  8
FILL_WHITE_FFFFFF
370
0
420
16777215
100
AcDbPolyline
 90
9
 70
1
 10
178.41
 20
201.36
 10
204.81
 20
174.96
 10
204.81
 20
148.56
 10
186.81
 20
166.56
 10
186.81
 20
68.16
 10
168.81
 20
68.16
 10
168.81
 20
166.56
 10
152.01
 20
148.56
 10
152.01
 20
174.96
  0
HATCH
  5
39
330
17
100
AcDbEntity
  8
FILL_WHITE_FFFFFF
 62
7
420
16777215
100
AcDbHatch
 10
0.0
 20
0.0
 30
0.0
210
0.0
220
0.0
230
1.0
  2
SOLID
 70
1
 71
0
 91
3
 92
3
 72
0
 73
1
 93
30
 10
378.81
 20
210.96
 10
378.81
 20
207.36
 10
378.6
 20
205.58
 10
378.06
 20
203.91
 10
377.29
 20
202.47
 10
376.41
 20
201.36
 10
375.51
 20
200.57
 10
374.61
 20
199.97
 10
373.71
 20
199.55
 10
372.81
 20
199.26
 10
371.01
 20
199.0
 10
369.21
 20
198.96
 10
357.21
 20
198.96
 10
357.21
 20
227.76
 10
368.01
 20
227.76
 10
369.81
 20
227.55
 10
371.61
 20
227.01
 10
373.41
 20
226.24
 10
375.21
 20
225.36
 10
376.09
 20
224.25
 10
376.86
 20
222.81
 10
377.4
 20
221.14
 10
377.61
 20
219.36
 10
377.61
 20
216.96
 10
375.81
 20
215.31
 10
374.91
 20
214.77
 10
374.01
 20
214.56
 10
375.6
 20
213.66
 10
376.86
 20
212.76
 10
378.81
 20
210.96
 97
0
 92
18
 72
0
 73
1
 93
20
 10
370.88
 20
216.27
 10
371.46
 20
216.66
 10
371.99
 20
217.17
 10
372.42
 20
217.78
 10
372.7
 20
218.52
 10
372.81
 20
219.36
 10
372.79
 20
220.24
 10
372.66
 20
221.01
 10
372.3
 20
221.55
 10
372.01
 20
221.71
 10
371.61
 20
221.76
 10
370.9
 20
222.45
 10
370.41
 20
222.81
 10
369.92
 20
222.94
 10
369.21
 20
222.96
 10
362.01
 20
222.96
 10
362.01
 20
215.76
 10
369.21
 20
215.76
 10
370.28
 20
215.98
 10
370.88
 20
216.27
 97
0
 92
18
 72
0
 73
1
 93
20
 10
370.97
 20
203.98
 10
371.78
 20
204.27
 10
372.51
 20
204.66
 10
373.12
 20
205.17
 10
373.6
 20
205.78
 10
373.9
 20
206.52
 10
374.01
 20
207.36
 10
373.99
 20
208.26
 10
373.86
 20
209.16
 10
373.5
 20
210.06
 10
372.81
 20
210.96
 10
371.91
 20
211.65
 10
371.01
 20
212.01
 10
370.11
 20
212.14
 10
369.21
 20
212.16
 10
362.01
 20
212.16
 10
362.01
 20
203.76
 10
369.21
 20
203.76
 10
370.11
 20
203.82
 10
370.97
 20
203.98
 97
0
 75
1
 76
1
 98
0
  0
LWPOLYLINE
  5
3A
330
17
100
AcDbEntity
  8
FILL_WHITE_FFFFFF
370
0
420
16777215
100
AcDbPolyline
 90
29
 70
1
 10
378.81
 20
210.96
 10
378.81
 20
207.36
 10
378.6
 20
205.58
 10
378.06
 20
203.91
 10
377.29
 20
202.47
 10
376.41
 20
201.36
 10
375.51
 20
200.57
 10
374.61
 20
199.97
 10
373.71
 20
199.55
 10
372.81
 20
199.26
 10
371.01
 20
199.0
 10
369.21
 20
198.96
 10
357.21
 20
198.96
 10
357.21
 20
227.76
 10
368.01
 20
227.76
 10
369.81
 20
227.55
 10
371.61
 20
227.01
 10
373.41
 20
226.24
 10
375.21
 20
225.36
 10
376.09
 20
224.25
 10
376.86
 20
222.81
 10
377.4
 20
221.14
 10
377.61
 20
219.36
 10
377.61
 20
216.96
 10
375.81
 20
215.31
 10
374.91
 20
214.77
 10
374.01
 20
214.56
 10
375.6
 20
213.66
 10
376.86
 20
212.76
  0
LWPOLYLINE
  5
3B
330
17
100
AcDbEntity
  8
FILL_WHITE_FFFFFF
370
0
420
16777215
100
AcDbPolyline
 90
19
 70
1
 10
370.88
 20
216.27
 10
371.46
 20
216.66
 10
371.99
 20
217.17
 10
372.42
 20
217.78
 10
372.7
 20
218.52
 10
372.81
 20
219.36
 10
372.79
 20
220.24
 10
372.66
 20
221.01
 10
372.3
 20
221.55
 10
372.01
 20
221.71
 10
371.61
 20
221.76
 10
370.9
 20
222.45
 10
370.41
 20
222.81
 10
369.92
 20
222.94
 10
369.21
 20
222.96
 10
362.01
 20
222.96
 10
362.01
 20
215.76
 10
369.21
 20
215.76
 10
370.28
 20
215.98
  0
LWPOLYLINE
  5
3C
330
17
100
AcDbEntity
  8
FILL_WHITE_FFFFFF
370
0
420
16777215
100
AcDbPolyline
 90
19
 70
1
 10
370.97
 20
203.98
 10
371.78
 20
204.27
 10
372.51
 20
204.66
 10
373.12
 20
205.17
 10
373.6
 20
205.78
 10
373.9
 20
206.52
 10
374.01
 20
207.36
 10
373.99
 20
208.26
 10
373.86
 20
209.16
 10
373.5
 20
210.06
 10
372.81
 20
210.96
 10
371.91
 20
211.65
 10
371.01
 20
212.01
 10
370.11
 20
212.14
 10
369.21
 20
212.16
 10
362.01
 20
212.16
 10
362.01
 20
203.76
 10
369.21
 20
203.76
 10
370.11
 20
203.82
  0
HATCH
  5
3D
330
17
100
AcDbEntity
  8
FILL_WHITE_FFFFFF
 62
7
420
16777215
100
AcDbHatch
 10
0.0
 20
0.0
 30
0.0
210
0.0
220
0.0
230
1.0
  2
SOLID
 70
1
 71
0
 91
1
 92
3
 72
0
 73
1
 93
37
 10
391.6
 20
199.0
 10
390.21
 20
199.26
 10
389.53
 20
199.55
 10
388.82
 20
199.97
 10
387.21
 20
201.36
 10
386.33
 20
202.45
 10
385.56
 20
203.76
 10
385.02
 20
205.07
 10
384.81
 20
206.16
 10
384.81
 20
219.36
 10
389.61
 20
219.36
 10
389.61
 20
206.16
 10
389.63
 20
205.45
 10
389.76
 20
204.96
 10
390.12
 20
204.47
 10
390.81
 20
203.76
 10
391.56
 20
203.16
 10
392.33
 20
202.75
 10
393.21
 20
202.56
 10
393.61
 20
202.61
 10
393.92
 20
202.75
 10
394.41
 20
203.16
 10
394.9
 20
203.57
 10
395.21
 20
203.71
 10
395.61
 20
203.76
 10
396.3
 20
204.47
 10
396.66
 20
204.96
 10
396.79
 20
205.45
 10
396.81
 20
206.16
 10
396.81
 20
219.36
 10
401.61
 20
219.36
 10
401.61
 20
198.96
 10
396.81
 20
198.96
 10
396.81
 20
200.16
 10
395.61
 20
198.96
 10
393.21
 20
198.96
 10
391.6
 20
199.0
 97
0
 75
1
 76
1
 98
0
  0
LWPOLYLINE
  5
3E
330
17
100
AcDbEntity
  8
FILL_WHITE_FFFFFF
370
0
420
16777215
100
AcDbPolyline
 90
36
 70
1
 10
391.6
 20
199.0
 10
390.21
 20
199.26
 10
389.53
 20
199.55
 10
388.82
 20
199.97
 10
387.21
 20
201.36
 10
386.33
 20
202.45
 10
385.56
 20
203.76
 10
385.02
 20
205.07
 10
384.81
 20
206.16
 10
384.81
 20
219.36
 10
389.61
 20
219.36
 10
389.61
 20
206.16
 10
389.63
 20
205.45
 10
389.76
 20
204.96
 10
390.12
 20
204.47
 10
390.81
 20
203.76
 10
391.56
 20
203.16
 10
392.33
 20
202.75
 10
393.21
 20
202.56
 10
393.61
 20
202.61
 10
393.92
 20
202.75
 10
394.41
 20
203.16
 10
394.9
 20
203.57
 10
395.21
 20
203.71
 10
395.61
 20
203.76
 10
396.3
 20
204.47
 10
396.66
 20
204.96
 10
396.79
 20
205.45
 10
396.81
 20
206.16
 10
396.81
 20
219.36
 10
401.61
 20
219.36
 10
401.61
 20
198.96
 10
396.81
 20
198.96
 10
396.81
 20
200.16
 10
395.61
 20
198.96
 10
393.21
 20
198.96
  0
HATCH
  5
3F
330
17
100
AcDbEntity
  8
FILL_WHITE_FFFFFF
 62
7
420
16777215
100
AcDbHatch
 10
0.0
 20
0.0
 30
0.0
210
0.0
220
0.0
230
1.0
  2
SOLID
 70
1
 71
0
 91
1
 92
3
 72
0
 73
1
 93
83
 10
414.81
 20
212.16
 10
416.01
 20
212.16
 10
416.91
 20
212.05
 10
417.79
 20
211.75
 10
418.65
 20
211.27
 10
419.46
 20
210.66
 10
420.22
 20
209.93
 10
420.9
 20
209.12
 10
422.01
 20
207.36
 10
422.01
 20
204.96
 10
421.99
 20
204.06
 10
421.86
 20
203.16
 10
421.5
 20
202.26
 10
420.81
 20
201.36
 10
419.01
 20
200.48
 10
417.21
 20
199.71
 10
415.41
 20
199.17
 10
413.61
 20
198.96
 10
412.66
 20
199.02
 10
411.62
 20
199.18
 10
409.41
 20
199.86
 10
408.29
 20
200.37
 10
407.2
 20
200.98
 10
406.16
 20
201.72
 10
405.21
 20
202.56
 10
408.81
 20
206.16
 10
409.02
 20
205.28
 10
409.56
 20
204.51
 10
410.33
 20
203.97
 10
411.21
 20
203.76
 10
411.96
 20
203.16
 10
412.73
 20
202.75
 10
413.61
 20
202.56
 10
416.01
 20
202.56
 10
416.03
 20
203.25
 10
416.16
 20
203.61
 10
416.52
 20
203.74
 10
417.21
 20
203.76
 10
417.21
 20
204.96
 10
417.21
 20
206.16
 10
416.31
 20
206.85
 10
415.41
 20
207.21
 10
414.51
 20
207.34
 10
413.61
 20
207.36
 10
412.41
 20
207.36
 10
410.82
 20
208.26
 10
409.56
 20
209.16
 10
407.61
 20
210.96
 10
406.92
 20
211.86
 10
406.56
 20
212.76
 10
406.43
 20
213.66
 10
406.41
 20
214.56
 10
406.43
 20
215.44
 10
406.56
 20
216.21
 10
406.92
 20
216.75
 10
407.21
 20
216.91
 10
407.61
 20
216.96
 10
408.7
 20
217.84
 10
410.01
 20
218.61
 10
411.32
 20
219.15
 10
412.41
 20
219.36
 10
413.76
 20
219.7
 10
415.09
 20
219.83
 10
416.4
 20
219.76
 10
417.66
 20
219.51
 10
418.87
 20
219.09
 10
420.0
 20
218.52
 10
421.06
 20
217.8
 10
422.01
 20
216.96
 10
419.61
 20
214.56
 10
418.52
 20
214.75
 10
417.21
 20
215.16
 10
415.9
 20
215.57
 10
414.81
 20
215.76
 10
412.41
 20
215.76
 10
412.36
 20
215.36
 10
412.22
 20
215.05
 10
411.81
 20
214.56
 10
411.4
 20
214.07
 10
411.26
 20
213.76
 10
411.21
 20
213.36
 10
412.41
 20
212.16
 10
414.81
 20
212.16
 97
0
 75
1
 76
1
 98
0
  0
LWPOLYLINE
  5
40
330
17
100
AcDbEntity
  8
FILL_WHITE_FFFFFF
370
0
420
16777215
100
AcDbPolyline
 90
82
 70
1
 10
414.81
 20
212.16
 10
416.01
 20
212.16
 10
416.91
 20
212.05
 10
417.79
 20
211.75
 10
418.65
 20
211.27
 10
419.46
 20
210.66
 10
420.22
 20
209.93
 10
420.9
 20
209.12
 10
422.01
 20
207.36
 10
422.01
 20
204.96
 10
421.99
 20
204.06
 10
421.86
 20
203.16
 10
421.5
 20
202.26
 10
420.81
 20
201.36
 10
419.01
 20
200.48
 10
417.21
 20
199.71
 10
415.41
 20
199.17
 10
413.61
 20
198.96
 10
412.66
 20
199.02
 10
411.62
 20
199.18
 10
409.41
 20
199.86
 10
408.29
 20
200.37
 10
407.2
 20
200.98
 10
406.16
 20
201.72
 10
405.21
 20
202.56
 10
408.81
 20
206.16
 10
409.02
 20
205.28
 10
409.56
 20
204.51
 10
410.33
 20
203.97
 10
411.21
 20
203.76
 10
411.96
 20
203.16
 10
412.73
 20
202.75
 10
413.61
 20
202.56
 10
416.01
 20
202.56
 10
416.03
 20
203.25
 10
416.16
 20
203.61
 10
416.52
 20
203.74
 10
417.21
 20
203.76
 10
417.21
 20
204.96
 10
417.21
 20
206.16
 10
416.31
 20
206.85
 10
415.41
 20
207.21
 10
414.51
 20
207.34
 10
413.61
 20
207.36
 10
412.41
 20
207.36
 10
410.82
 20
208.26
 10
409.56
 20
209.16
 10
407.61
 20
210.96
 10
406.92
 20
211.86
 10
406.56
 20
212.76
 10
406.43
 20
213.66
 10
406.41
 20
214.56
 10
406.43
 20
215.44
 10
406.56
 20
216.21
 10
406.92
 20
216.75
 10
407.21
 20
216.91
 10
407.61
 20
216.96
 10
408.7
 20
217.84
 10
410.01
 20
218.61
 10
411.32
 20
219.15
 10
412.41
 20
219.36
 10
413.76
 20
219.7
 10
415.09
 20
219.83
 10
416.4
 20
219.76
 10
417.66
 20
219.51
 10
418.87
 20
219.09
 10
420.0
 20
218.52
 10
421.06
 20
217.8
 10
422.01
 20
216.96
 10
419.61
 20
214.56
 10
418.52
 20
214.75
 10
417.21
 20
215.16
 10
415.9
 20
215.57
 10
414.81
 20
215.76
 10
412.41
 20
215.76
 10
412.36
 20
215.36
 10
412.22
 20
215.05
 10
411.81
 20
214.56
 10
411.4
 20
214.07
 10
411.26
 20
213.76
 10
411.21
 20
213.36
 10
412.41
 20
212.16
  0
HATCH
  5
41
330
17
100
AcDbEntity
  8
FILL_WHITE_FFFFFF
 62
7
420
16777215
100
AcDbHatch
 10
0.0
 20
0.0
 30
0.0
210
0.0
220
0.0
230
1.0
  2
SOLID
 70
1
 71
0
 91
1
 92
3
 72
0
 73
1
 93
10
 10
369.21
 20
74.16
 10
382.41
 20
59.76
 10
382.41
 20
113.76
 10
395.61
 20
113.76
 10
395.61
 20
59.76
 10
408.81
 20
74.16
 10
408.81
 20
53.76
 10
388.41
 20
33.36
 10
369.21
 20
53.76
 10
369.21
 20
74.16
 97
0
 75
1
 76
1
 98
0
  0
LWPOLYLINE
  5
42
330
17
100
AcDbEntity
  8
FILL_WHITE_FFFFFF
370
0
420
16777215
100
AcDbPolyline
 90
9
 70
1
 10
369.21
 20
74.16
 10
382.41
 20
59.76
 10
382.41
 20
113.76
 10
395.61
 20
113.76
 10
395.61
 20
59.76
 10
408.81
 20
74.16
 10
408.81
 20
53.76
 10
388.41
 20
33.36
 10
369.21
 20
53.76
  0
HATCH
  5
43
330
17
100
AcDbEntity
  8
FILL_WHITE_FFFFFF
 62
7
420
16777215
100
AcDbHatch
 10
0.0
 20
0.0
 30
0.0
210
0.0
220
0.0
230
1.0
  2
SOLID
 70
1
 71
0
 91
3
 92
3
 72
0
 73
1
 93
30
 10
371.61
 20
154.56
 10
371.61
 20
156.96
 10
346.41
 20
156.96
 10
346.41
 20
142.56
 10
347.61
 20
141.36
 10
347.61
 20
140.16
 10
348.81
 20
140.16
 10
371.61
 20
140.16
 10
374.01
 20
141.36
 10
375.21
 20
142.56
 10
376.41
 20
144.96
 10
377.61
 20
147.36
 10
381.21
 20
146.16
 10
381.21
 20
143.76
 10
380.01
 20
142.56
 10
380.01
 20
140.16
 10
378.81
 20
138.96
 10
377.61
 20
137.76
 10
376.41
 20
136.56
 10
374.01
 20
136.56
 10
372.81
 20
136.56
 10
346.41
 20
136.56
 10
345.21
 20
136.56
 10
342.81
 20
137.76
 10
341.61
 20
138.96
 10
341.61
 20
141.36
 10
341.61
 20
174.96
 10
376.41
 20
174.96
 10
376.41
 20
154.56
 10
371.61
 20
154.56
 97
0
 92
18
 72
0
 73
1
 93
5
 10
346.41
 20
171.36
 10
346.41
 20
161.76
 10
356.01
 20
161.76
 10
356.01
 20
171.36
 10
346.41
 20
171.36
 97
0
 92
18
 72
0
 73
1
 93
5
 10
371.61
 20
171.36
 10
360.81
 20
171.36
 10
360.81
 20
161.76
 10
371.61
 20
161.76
 10
371.61
 20
171.36
 97
0
 75
1
 76
1
 98
0
  0
LWPOLYLINE
  5
44
330
17
100
AcDbEntity
  8
FILL_WHITE_FFFFFF
370
0
420
16777215
100
AcDbPolyline
 90
29
 70
1
 10
371.61
 20
154.56
 10
371.61
 20
156.96
 10
346.41
 20
156.96
 10
346.41
 20
142.56
 10
347.61
 20
141.36
 10
347.61
 20
140.16
 10
348.81
 20
140.16
 10
371.61
 20
140.16
 10
374.01
 20
141.36
 10
375.21
 20
142.56
 10
376.41
 20
144.96
 10
377.61
 20
147.36
 10
381.21
 20
146.16
 10
381.21
 20
143.76
 10
380.01
 20
142.56
 10
380.01
 20
140.16
 10
378.81
 20
138.96
 10
377.61
 20
137.76
 10
376.41
 20
136.56
 10
374.01
 20
136.56
 10
372.81
 20
136.56
 10
346.41
 20
136.56
 10
345.21
 20
136.56
 10
342.81
 20
137.76
 10
341.61
 20
138.96
 10
341.61
 20
141.36
 10
341.61
 20
174.96
 10
376.41
 20
174.96
 10
376.41
 20
154.56
  0
LWPOLYLINE
  5
45
330
17
100
AcDbEntity
  8
FILL_WHITE_FFFFFF
370
0
420
16777215
100
AcDbPolyline
 90
4
 70
1
 10
346.41
 20
171.36
 10
346.41
 20
161.76
 10
356.01
 20
161.76
 10
356.01
 20
171.36
  0
LWPOLYLINE
  5
46
330
17
100
AcDbEntity
  8
FILL_WHITE_FFFFFF
370
0
420
16777215
100
AcDbPolyline
 90
4
 70
1
 10
371.61
 20
171.36
 10
360.81
 20
171.36
 10
360.81
 20
161.76
 10
371.61
 20
161.76
  0
HATCH
  5
47
330
17
100
AcDbEntity
  8
FILL_WHITE_FFFFFF
 62
7
420
16777215
100
AcDbHatch
 10
0.0
 20
0.0
 30
0.0
210
0.0
220
0.0
230
1.0
  2
SOLID
 70
1
 71
0
 91
1
 92
3
 72
0
 73
1
 93
20
 10
419.61
 20
176.16
 10
419.61
 20
174.96
 10
418.41
 20
174.96
 10
418.41
 20
162.96
 10
437.61
 20
162.96
 10
437.61
 20
159.36
 10
418.41
 20
159.36
 10
418.41
 20
142.56
 10
434.01
 20
142.56
 10
434.01
 20
138.96
 10
399.21
 20
138.96
 10
399.21
 20
142.56
 10
414.81
 20
142.56
 10
414.81
 20
159.36
 10
395.61
 20
159.36
 10
395.61
 20
162.96
 10
414.81
 20
162.96
 10
414.81
 20
177.36
 10
417.21
 20
176.16
 10
419.61
 20
176.16
 97
0
 75
1
 76
1
 98
0
  0
LWPOLYLINE
  5
48
330
17
100
AcDbEntity
  8
FILL_WHITE_FFFFFF
370
0
420
16777215
100
AcDbPolyline
 90
19
 70
1
 10
419.61
 20
176.16
 10
419.61
 20
174.96
 10
418.41
 20
174.96
 10
418.41
 20
162.96
 10
437.61
 20
162.96
 10
437.61
 20
159.36
 10
418.41
 20
159.36
 10
418.41
 20
142.56
 10
434.01
 20
142.56
 10
434.01
 20
138.96
 10
399.21
 20
138.96
 10
399.21
 20
142.56
 10
414.81
 20
142.56
 10
414.81
 20
159.36
 10
395.61
 20
159.36
 10
395.61
 20
162.96
 10
414.81
 20
162.96
 10
414.81
 20
177.36
 10
417.21
 20
176.16
  0
LWPOLYLINE
  5
4A
330
17
100
AcDbEntity
  8
STROKE_BLUE_0000FF
370
0
420
255
100
AcDbPolyline
 90
69
 70
0
 10
69.21000000000004
 20
240.95999999999896
 10
69.21000000000004
 20
28.559999999999036
 10
69.32044921875003
 20
26.35335937499903
 10
69.64359375000001
 20
24.23812499999903
 10
70.16712890624999
 20
22.22132812499902
 10
70.87874999999995
 20
20.309999999999008
 10
71.76615234374992
 20
18.511171874999008
 10
72.81703124999987
 20
16.831874999999002
 10
74.01908203124982
 20
15.279140624999002
 10
75.35999999999979
 20
13.85999999999899
 10
76.82748046874976
 20
12.581484374998979
 10
78.40921874999972
 20
11.450624999999036
 10
80.09291015624967
 20
10.474453124999002
 10
81.86624999999965
 20
9.659999999999002
 10
83.71693359374964
 20
9.01429687499899
 10
85.63265624999963
 20
8.544374999999036
 10
87.60111328124964
 20
8.257265624998979
 10
89.60999999999967
 20
8.159999999999002
 10
477.21000000000004
 20
8.159999999999002
 10
479.21888671875007
 20
8.257265624998979
 10
481.18734374999985
 20
8.544374999999036
 10
483.10306640624987
 20
9.01429687499899
 10
484.9537499999999
 20
9.659999999999002
 10
486.72708984374987
 20
10.474453124999002
 10
488.41078124999984
 20
11.450624999999036
 10
489.9925195312498
 20
12.581484374999036
 10
491.45999999999975
 20
13.85999999999899
 10
492.8009179687497
 20
15.279140624999002
 10
494.0029687499998
 20
16.831874999999002
 10
495.0538476562497
 20
18.511171874999008
 10
495.9412499999997
 20
20.309999999999036
 10
496.6528710937497
 20
22.22132812499902
 10
497.1764062499997
 20
24.23812499999903
 10
497.4995507812497
 20
26.35335937499903
 10
497.6099999999997
 20
28.559999999999036
 10
497.6099999999997
 20
240.95999999999896
 10
497.49955078124964
 20
243.16664062499896
 10
497.1764062499997
 20
245.28187499999896
 10
496.6528710937497
 20
247.29867187499897
 10
495.9412499999997
 20
249.20999999999898
 10
495.0538476562497
 20
251.00882812499898
 10
494.00296874999975
 20
252.688124999999
 10
492.8009179687497
 20
254.240859374999
 10
491.45999999999975
 20
255.659999999999
 10
489.9925195312498
 20
256.938515624999
 10
488.41078124999984
 20
258.069374999999
 10
486.72708984374987
 20
259.045546874999
 10
484.9537499999999
 20
259.859999999999
 10
483.1030664062499
 20
260.505703124999
 10
481.1873437499999
 20
260.975624999999
 10
479.21888671875
 20
261.262734374999
 10
477.21000000000004
 20
261.359999999999
 10
89.60999999999967
 20
261.359999999999
 10
87.60111328124965
 20
261.262734374999
 10
85.63265624999964
 20
260.975624999999
 10
83.71693359374963
 20
260.505703124999
 10
81.86624999999965
 20
259.859999999999
 10
80.09291015624967
 20
259.045546874999
 10
78.40921874999971
 20
258.069374999999
 10
76.82748046874976
 20
256.938515624999
 10
75.35999999999979
 20
255.659999999999
 10
74.01908203124984
 20
254.240859374999
 10
72.81703124999987
 20
252.688124999999
 10
71.76615234374992
 20
251.00882812499898
 10
70.87874999999995
 20
249.20999999999898
 10
70.16712890624999
 20
247.29867187499897
 10
69.64359375000001
 20
245.281874999999
 10
69.32044921875003
 20
243.16664062499896
 10
69.21000000000004
 20
240.95999999999896
  0
ENDSEC
  0
SECTION
  2
OBJECTS
  0
DICTIONARY
  5
A
330
0
100
AcDbDictionary
281
1
  3
ACAD_COLOR
350
B
  3
ACAD_GROUP
350
C
  3
ACAD_LAYOUT
350
D
  3
ACAD_MATERIAL
350
E
  3
ACAD_MLEADERSTYLE
350
F
  3
ACAD_MLINESTYLE
350
10
  3
ACAD_PLOTSETTINGS
350
11
  3
ACAD_PLOTSTYLENAME
350
12
  3
ACAD_SCALELIST
350
14
  3
ACAD_TABLESTYLE
350
15
  3
ACAD_VISUALSTYLE
350
16
  3
EZDXF_META
350
2D
  0
DICTIONARY
  5
B
330
A
100
AcDbDictionary
281
1
  0
DICTIONARY
  5
C
330
A
100
AcDbDictionary
281
1
  0
DICTIONARY
  5
D
330
A
100
AcDbDictionary
281
1
  3
Model
350
1A
  3
Layout1
350
1E
  0
DICTIONARY
  5
E
330
A
100
AcDbDictionary
281
1
  3
ByBlock
350
1F
  3
ByLayer
350
20
  3
Global
350
21
  0
DICTIONARY
  5
F
330
A
100
AcDbDictionary
281
1
  3
Standard
350
2C
  0
DICTIONARY
  5
10
330
A
100
AcDbDictionary
281
1
  3
Standard
350
22
  0
DICTIONARY
  5
11
330
A
100
AcDbDictionary
281
1
  0
ACDBDICTIONARYWDFLT
  5
12
330
A
100
AcDbDictionary
281
1
  3
Normal
350
13
100
AcDbDictionaryWithDefault
340
13
  0
ACDBPLACEHOLDER
  5
13
330
12
  0
DICTIONARY
  5
14
330
A
100
AcDbDictionary
281
1
  0
DICTIONARY
  5
15
330
A
100
AcDbDictionary
281
1
  0
DICTIONARY
  5
16
330
A
100
AcDbDictionary
281
1
  0
LAYOUT
  5
1A
330
D
100
AcDbPlotSettings
  1

  4
A3
  6

 40
7.5
 41
20.0
 42
7.5
 43
20.0
 44
420.0
 45
297.0
 46
0.0
 47
0.0
 48
0.0
 49
0.0
140
0.0
141
0.0
142
1.0
143
1.0
 70
1024
 72
1
 73
0
 74
5
  7

 75
16
 76
0
 77
2
 78
300
147
1.0
148
0.0
149
0.0
100
AcDbLayout
  1
Model
 70
1
 71
0
 10
0.0
 20
0.0
 11
420.0
 21
297.0
 12
0.0
 22
0.0
 32
0.0
 14
1e+20
 24
1e+20
 34
1e+20
 15
-1e+20
 25
-1e+20
 35
-1e+20
146
0.0
 13
0.0
 23
0.0
 33
0.0
 16
1.0
 26
0.0
 36
0.0
 17
0.0
 27
1.0
 37
0.0
 76
1
330
17
  0
LAYOUT
  5
1E
330
D
100
AcDbPlotSettings
  1

  4
A3
  6

 40
7.5
 41
20.0
 42
7.5
 43
20.0
 44
420.0
 45
297.0
 46
0.0
 47
0.0
 48
0.0
 49
0.0
140
0.0
141
0.0
142
1.0
143
1.0
 70
0
 72
1
 73
0
 74
5
  7

 75
16
 76
0
 77
2
 78
300
147
1.0
148
0.0
149
0.0
100
AcDbLayout
  1
Layout1
 70
1
 71
1
 10
0.0
 20
0.0
 11
420.0
 21
297.0
 12
0.0
 22
0.0
 32
0.0
 14
1e+20
 24
1e+20
 34
1e+20
 15
-1e+20
 25
-1e+20
 35
-1e+20
146
0.0
 13
0.0
 23
0.0
 33
0.0
 16
1.0
 26
0.0
 36
0.0
 17
0.0
 27
1.0
 37
0.0
 76
1
330
1B
  0
MATERIAL
  5
1F
102
{ACAD_REACTORS
330
E
102
}
330
E
100
AcDbMaterial
  1
ByBlock
  2

 70
0
 40
1.0
 71
1
 41
1.0
 91
-1023410177
 42
1.0
 72
1
  3

 73
1
 74
1
 75
1
 44
0.5
 73
0
 45
1.0
 46
1.0
 77
1
  4

 78
1
 79
1
170
1
 48
1.0
171
1
  6

172
1
173
1
174
1
140
1.0
141
1.0
175
1
  7

176
1
177
1
178
1
143
1.0
179
1
  8

270
1
271
1
272
1
145
1.0
146
1.0
273
1
  9

274
1
275
1
276
1
 42
1.0
 72
1
  3

 73
1
 74
1
 75
1
 94
63
  0
MATERIAL
  5
20
102
{ACAD_REACTORS
330
E
102
}
330
E
100
AcDbMaterial
  1
ByLayer
  2

 70
0
 40
1.0
 71
1
 41
1.0
 91
-1023410177
 42
1.0
 72
1
  3

 73
1
 74
1
 75
1
 44
0.5
 73
0
 45
1.0
 46
1.0
 77
1
  4

 78
1
 79
1
170
1
 48
1.0
171
1
  6

172
1
173
1
174
1
140
1.0
141
1.0
175
1
  7

176
1
177
1
178
1
143
1.0
179
1
  8

270
1
271
1
272
1
145
1.0
146
1.0
273
1
  9

274
1
275
1
276
1
 42
1.0
 72
1
  3

 73
1
 74
1
 75
1
 94
63
  0
MATERIAL
  5
21
102
{ACAD_REACTORS
330
E
102
}
330
E
100
AcDbMaterial
  1
Global
  2

 70
0
 40
1.0
 71
1
 41
1.0
 91
-1023410177
 42
1.0
 72
1
  3

 73
1
 74
1
 75
1
 44
0.5
 73
0
 45
1.0
 46
1.0
 77
1
  4

 78
1
 79
1
170
1
 48
1.0
171
1
  6

172
1
173
1
174
1
140
1.0
141
1.0
175
1
  7

176
1
177
1
178
1
143
1.0
179
1
  8

270
1
271
1
272
1
145
1.0
146
1.0
273
1
  9

274
1
275
1
276
1
 42
1.0
 72
1
  3

 73
1
 74
1
 75
1
 94
63
  0
MLINESTYLE
  5
22
102
{ACAD_REACTORS
330
10
102
}
330
10
100
AcDbMlineStyle
  2
Standard
 70
0
  3

 62
256
 51
90.0
 52
90.0
 71
2
 49
0.5
 62
256
  6
BYLAYER
 49
-0.5
 62
256
  6
BYLAYER
  0
MLEADERSTYLE
  5
2C
102
{ACAD_REACTORS
330
F
102
}
330
F
100
AcDbMLeaderStyle
179
2
170
2
171
1
172
0
 90
2
 40
0.0
 41
0.0
173
1
 91
-1056964608
 92
-2
290
1
 42
2.0
291
1
 43
8.0
  3
Standard
 44
4.0
300

342
29
174
1
175
1
176
0
178
1
 93
-1056964608
 45
4.0
292
0
297
0
 46
4.0
 94
-1056964608
 47
1.0
 49
1.0
140
1.0
294
1
141
0.0
177
0
142
1.0
295
0
296
0
143
3.75
271
0
272
9
273
9
  0
DICTIONARY
  5
2D
330
A
100
AcDbDictionary
280
1
281
1
  3
CREATED_BY_EZDXF
350
2E
  3
WRITTEN_BY_EZDXF
350
4D
  0
DICTIONARYVAR
  5
2E
330
2D
100
DictionaryVariables
280
0
  1
1.4.4 @ 2026-07-10T01:53:59.102310+00:00
  0
DICTIONARYVAR
  5
4D
330
2D
100
DictionaryVariables
280
0
  1
1.4.4 @ 2026-07-10T01:53:59.114621+00:00
  0
ENDSEC
  0
EOF
