  0
SECTION
  2
HEADER
  9
$ACADVER
  1
AC1024
  9
$ACADMAINTVER
 70
6
  9
$DWGCODEPAGE
  3
ANSI_1252
  9
$LASTSAVEDBY
  1
ezdxf
  9
$INSBASE
 10
0.0
 20
0.0
 30
0.0
  9
$EXTMIN
 10
1e+20
 20
1e+20
 30
1e+20
  9
$EXTMAX
 10
-1e+20
 20
-1e+20
 30
-1e+20
  9
$LIMMIN
 10
0.0
 20
0.0
  9
$LIMMAX
 10
420.0
 20
297.0
  9
$ORTHOMODE
 70
0
  9
$REGENMODE
 70
1
  9
$FILLMODE
 70
1
  9
$QTEXTMODE
 70
0
  9
$MIRRTEXT
 70
1
  9
$LTSCALE
 40
1.0
  9
$ATTMODE
 70
1
  9
$TEXTSIZE
 40
2.5
  9
$TRACEWID
 40
1.0
  9
$TEXTSTYLE
  7
Standard
  9
$CLAYER
  8
0
  9
$CELTYPE
  6
ByLayer
  9
$CECOLOR
 62
256
  9
$CELTSCALE
 40
1.0
  9
$DISPSILH
 70
0
  9
$DIMSCALE
 40
1.0
  9
$DIMASZ
 40
2.5
  9
$DIMEXO
 40
0.625
  9
$DIMDLI
 40
3.75
  9
$DIMRND
 40
0.0
  9
$DIMDLE
 40
0.0
  9
$DIMEXE
 40
1.25
  9
$DIMTP
 40
0.0
  9
$DIMTM
 40
0.0
  9
$DIMTXT
 40
2.5
  9
$DIMCEN
 40
2.5
  9
$DIMTSZ
 40
0.0
  9
$DIMTOL
 70
0
  9
$DIMLIM
 70
0
  9
$DIMTIH
 70
0
  9
$DIMTOH
 70
0
  9
$DIMSE1
 70
0
  9
$DIMSE2
 70
0
  9
$DIMTAD
 70
1
  9
$DIMZIN
 70
8
  9
$DIMBLK
  1

  9
$DIMASO
 70
1
  9
$DIMSHO
 70
1
  9
$DIMPOST
  1

  9
$DIMAPOST
  1

  9
$DIMALT
 70
0
  9
$DIMALTD
 70
3
  9
$DIMALTF
 40
0.03937007874
  9
$DIMLFAC
 40
1.0
  9
$DIMTOFL
 70
1
  9
$DIMTVP
 40
0.0
  9
$DIMTIX
 70
0
  9
$DIMSOXD
 70
0
  9
$DIMSAH
 70
0
  9
$DIMBLK1
  1

  9
$DIMBLK2
  1

  9
$DIMSTYLE
  2
ISO-25
  9
$DIMCLRD
 70
0
  9
$DIMCLRE
 70
0
  9
$DIMCLRT
 70
0
  9
$DIMTFAC
 40
1.0
  9
$DIMGAP
 40
0.625
  9
$DIMJUST
 70
0
  9
$DIMSD1
 70
0
  9
$DIMSD2
 70
0
  9
$DIMTOLJ
 70
0
  9
$DIMTZIN
 70
8
  9
$DIMALTZ
 70
0
  9
$DIMALTTZ
 70
0
  9
$DIMUPT
 70
0
  9
$DIMDEC
 70
2
  9
$DIMTDEC
 70
2
  9
$DIMALTU
 70
2
  9
$DIMALTTD
 70
3
  9
$DIMTXSTY
  7
Standard
  9
$DIMAUNIT
 70
0
  9
$DIMADEC
 70
0
  9
$DIMALTRND
 40
0.0
  9
$DIMAZIN
 70
0
  9
$DIMDSEP
 70
44
  9
$DIMATFIT
 70
3
  9
$DIMFRAC
 70
0
  9
$DIMLDRBLK
  1

  9
$DIMLUNIT
 70
2
  9
$DIMLWD
 70
-2
  9
$DIMLWE
 70
-2
  9
$DIMTMOVE
 70
0
  9
$DIMFXL
 40
1.0
  9
$DIMFXLON
 70
0
  9
$DIMJOGANG
 40
0.785398163397
  9
$DIMTFILL
 70
0
  9
$DIMTFILLCLR
 70
0
  9
$DIMARCSYM
 70
0
  9
$DIMLTYPE
  6

  9
$DIMLTEX1
  6

  9
$DIMLTEX2
  6

  9
$DIMTXTDIRECTION
 70
0
  9
$LUNITS
 70
2
  9
$LUPREC
 70
4
  9
$SKETCHINC
 40
1.0
  9
$FILLETRAD
 40
10.0
  9
$AUNITS
 70
0
  9
$AUPREC
 70
2
  9
$MENU
  1
.
  9
$ELEVATION
 40
0.0
  9
$PELEVATION
 40
0.0
  9
$THICKNESS
 40
0.0
  9
$LIMCHECK
 70
0
  9
$CHAMFERA
 40
0.0
  9
$CHAMFERB
 40
0.0
  9
$CHAMFERC
 40
0.0
  9
$CHAMFERD
 40
0.0
  9
$SKPOLY
 70
0
  9
$TDCREATE
 40
2461232.4124537036
  9
$TDUCREATE
 40
2458532.153996898
  9
$TDUPDATE
 40
2461232.4124537036
  9
$TDUUPDATE
 40
2458532.1544311
  9
$TDINDWG
 40
0.0
  9
$TDUSRTIMER
 40
0.0
  9
$USRTIMER
 70
1
  9
$ANGBASE
 50
0.0
  9
$ANGDIR
 70
0
  9
$PDMODE
 70
0
  9
$PDSIZE
 40
0.0
  9
$PLINEWID
 40
0.0
  9
$SPLFRAME
 70
0
  9
$SPLINETYPE
 70
6
  9
$SPLINESEGS
 70
8
  9
$HANDSEED
  5
62
  9
$SURFTAB1
 70
6
  9
$SURFTAB2
 70
6
  9
$SURFTYPE
 70
6
  9
$SURFU
 70
6
  9
$SURFV
 70
6
  9
$UCSBASE
  2

  9
$UCSNAME
  2

  9
$UCSORG
 10
0.0
 20
0.0
 30
0.0
  9
$UCSXDIR
 10
1.0
 20
0.0
 30
0.0
  9
$UCSYDIR
 10
0.0
 20
1.0
 30
0.0
  9
$UCSORTHOREF
  2

  9
$UCSORTHOVIEW
 70
0
  9
$UCSORGTOP
 10
0.0
 20
0.0
 30
0.0
  9
$UCSORGBOTTOM
 10
0.0
 20
0.0
 30
0.0
  9
$UCSORGLEFT
 10
0.0
 20
0.0
 30
0.0
  9
$UCSORGRIGHT
 10
0.0
 20
0.0
 30
0.0
  9
$UCSORGFRONT
 10
0.0
 20
0.0
 30
0.0
  9
$UCSORGBACK
 10
0.0
 20
0.0
 30
0.0
  9
$PUCSBASE
  2

  9
$PUCSNAME
  2

  9
$PUCSORG
 10
0.0
 20
0.0
 30
0.0
  9
$PUCSXDIR
 10
1.0
 20
0.0
 30
0.0
  9
$PUCSYDIR
 10
0.0
 20
1.0
 30
0.0
  9
$PUCSORTHOREF
  2

  9
$PUCSORTHOVIEW
 70
0
  9
$PUCSORGTOP
 10
0.0
 20
0.0
 30
0.0
  9
$PUCSORGBOTTOM
 10
0.0
 20
0.0
 30
0.0
  9
$PUCSORGLEFT
 10
0.0
 20
0.0
 30
0.0
  9
$PUCSORGRIGHT
 10
0.0
 20
0.0
 30
0.0
  9
$PUCSORGFRONT
 10
0.0
 20
0.0
 30
0.0
  9
$PUCSORGBACK
 10
0.0
 20
0.0
 30
0.0
  9
$USERI1
 70
0
  9
$USERI2
 70
0
  9
$USERI3
 70
0
  9
$USERI4
 70
0
  9
$USERI5
 70
0
  9
$USERR1
 40
0.0
  9
$USERR2
 40
0.0
  9
$USERR3
 40
0.0
  9
$USERR4
 40
0.0
  9
$USERR5
 40
0.0
  9
$WORLDVIEW
 70
1
  9
$SHADEDGE
 70
3
  9
$SHADEDIF
 70
70
  9
$TILEMODE
 70
1
  9
$MAXACTVP
 70
64
  9
$PINSBASE
 10
0.0
 20
0.0
 30
0.0
  9
$PLIMCHECK
 70
0
  9
$PEXTMIN
 10
1e+20
 20
1e+20
 30
1e+20
  9
$PEXTMAX
 10
-1e+20
 20
-1e+20
 30
-1e+20
  9
$PLIMMIN
 10
0.0
 20
0.0
  9
$PLIMMAX
 10
420.0
 20
297.0
  9
$UNITMODE
 70
0
  9
$VISRETAIN
 70
1
  9
$PLINEGEN
 70
0
  9
$PSLTSCALE
 70
1
  9
$TREEDEPTH
 70
3020
  9
$CMLSTYLE
  2
Standard
  9
$CMLJUST
 70
0
  9
$CMLSCALE
 40
20.0
  9
$PROXYGRAPHICS
 70
1
  9
$MEASUREMENT
 70
1
  9
$CELWEIGHT
370
-1
  9
$ENDCAPS
280
0
  9
$JOINSTYLE
280
0
  9
$LWDISPLAY
290
0
  9
$INSUNITS
 70
6
  9
$HYPERLINKBASE
  1

  9
$STYLESHEET
  1

  9
$XEDIT
290
1
  9
$CEPSNTYPE
380
0
  9
$PSTYLEMODE
290
1
  9
$FINGERPRINTGUID
  2
{F70A25D9-C2DB-4D61-9972-C25FE944A0E1}
  9
$VERSIONGUID
  2
{C3697344-A757-41CE-8A61-42401C68595E}
  9
$EXTNAMES
290
1
  9
$PSVPSCALE
 40
0.0
  9
$OLESTARTUP
290
0
  9
$SORTENTS
280
127
  9
$INDEXCTL
280
0
  9
$HIDETEXT
280
1
  9
$XCLIPFRAME
280
1
  9
$HALOGAP
280
0
  9
$OBSCOLOR
 70
257
  9
$OBSLTYPE
280
0
  9
$INTERSECTIONDISPLAY
280
0
  9
$INTERSECTIONCOLOR
 70
257
  9
$DIMASSOC
280
2
  9
$PROJECTNAME
  1

  9
$CAMERADISPLAY
290
0
  9
$LENSLENGTH
 40
50.0
  9
$CAMERAHEIGHT
 40
0.0
  9
$STEPSPERSEC
 40
24.0
  9
$STEPSIZE
 40
100.0
  9
$3DDWFPREC
 40
2.0
  9
$PSOLWIDTH
 40
0.005
  9
$PSOLHEIGHT
 40
0.08
  9
$LOFTANG1
 40
1.570796326795
  9
$LOFTANG2
 40
1.570796326795
  9
$LOFTMAG1
 40
0.0
  9
$LOFTMAG2
 40
0.0
  9
$LOFTPARAM
 70
7
  9
$LOFTNORMALS
280
1
  9
$LATITUDE
 40
37.795
  9
$LONGITUDE
 40
-122.394
  9
$NORTHDIRECTION
 40
0.0
  9
$TIMEZONE
 70
-8000
  9
$LIGHTGLYPHDISPLAY
280
1
  9
$TILEMODELIGHTSYNCH
280
1
  9
$CMATERIAL
347
20
  9
$SOLIDHIST
280
0
  9
$SHOWHIST
280
1
  9
$DWFFRAME
280
2
  9
$DGNFRAME
280
2
  9
$REALWORLDSCALE
290
1
  9
$INTERFERECOLOR
 62
256
  9
$CSHADOW
280
0
  9
$SHADOWPLANELOCATION
 40
0.0
  0
ENDSEC
  0
SECTION
  2
CLASSES
  0
CLASS
  1
ACDBDICTIONARYWDFLT
  2
AcDbDictionaryWithDefault
  3
ObjectDBX Classes
 90
0
 91
0
280
0
281
0
  0
CLASS
  1
SUN
  2
AcDbSun
  3
SCENEOE
 90
1153
 91
0
280
0
281
0
  0
CLASS
  1
VISUALSTYLE
  2
AcDbVisualStyle
  3
ObjectDBX Classes
 90
4095
 91
0
280
0
281
0
  0
CLASS
  1
MATERIAL
  2
AcDbMaterial
  3
ObjectDBX Classes
 90
1153
 91
0
280
0
281
0
  0
CLASS
  1
SCALE
  2
AcDbScale
  3
ObjectDBX Classes
 90
1153
 91
0
280
0
281
0
  0
CLASS
  1
TABLESTYLE
  2
AcDbTableStyle
  3
ObjectDBX Classes
 90
4095
 91
0
280
0
281
0
  0
CLASS
  1
MLEADERSTYLE
  2
AcDbMLeaderStyle
  3
ACDB_MLEADERSTYLE_CLASS
 90
4095
 91
0
280
0
281
0
  0
CLASS
  1
DICTIONARYVAR
  2
AcDbDictionaryVar
  3
ObjectDBX Classes
 90
0
 91
0
280
0
281
0
  0
CLASS
  1
CELLSTYLEMAP
  2
AcDbCellStyleMap
  3
ObjectDBX Classes
 90
1152
 91
0
280
0
281
0
  0
CLASS
  1
MENTALRAYRENDERSETTINGS
  2
AcDbMentalRayRenderSettings
  3
SCENEOE
 90
1024
 91
0
280
0
281
0
  0
CLASS
  1
ACDBDETAILVIEWSTYLE
  2
AcDbDetailViewStyle
  3
ObjectDBX Classes
 90
1025
 91
0
280
0
281
0
  0
CLASS
  1
ACDBSECTIONVIEWSTYLE
  2
AcDbSectionViewStyle
  3
ObjectDBX Classes
 90
1025
 91
0
280
0
281
0
  0
CLASS
  1
RASTERVARIABLES
  2
AcDbRasterVariables
  3
ISM
 90
0
 91
0
280
0
281
0
  0
CLASS
  1
ACDBPLACEHOLDER
  2
AcDbPlaceHolder
  3
ObjectDBX Classes
 90
0
 91
0
280
0
281
0
  0
CLASS
  1
LAYOUT
  2
AcDbLayout
  3
ObjectDBX Classes
 90
0
 91
0
280
0
281
0
  0
ENDSEC
  0
SECTION
  2
TABLES
  0
TABLE
  2
VPORT
  5
8
330
0
100
AcDbSymbolTable
 70
1
  0
VPORT
  5
23
330
8
100
AcDbSymbolTableRecord
100
AcDbViewportTableRecord
  2
*Active
 70
0
 10
0.0
 20
0.0
 11
1.0
 21
1.0
 12
0.0
 22
0.0
 13
0.0
 23
0.0
 14
0.5
 24
0.5
 15
0.5
 25
0.5
 16
0.0
 26
0.0
 36
1.0
 17
0.0
 27
0.0
 37
0.0
 40
1000.0
 41
1.34
 42
50.0
 43
0.0
 44
0.0
 50
0.0
 51
0.0
 71
0
 72
1000
 73
1
 74
3
 75
0
 76
0
 77
0
 78
0
281
0
 65
0
146
0.0
  0
ENDTAB
  0
TABLE
  2
LTYPE
  5
2
330
0
100
AcDbSymbolTable
 70
3
  0
LTYPE
  5
24
330
2
100
AcDbSymbolTableRecord
100
AcDbLinetypeTableRecord
  2
ByBlock
 70
0
  3

 72
65
 73
0
 40
0.0
  0
LTYPE
  5
25
330
2
100
AcDbSymbolTableRecord
100
AcDbLinetypeTableRecord
  2
ByLayer
 70
0
  3

 72
65
 73
0
 40
0.0
  0
LTYPE
  5
26
330
2
100
AcDbSymbolTableRecord
100
AcDbLinetypeTableRecord
  2
Continuous
 70
0
  3

 72
65
 73
0
 40
0.0
  0
ENDTAB
  0
TABLE
  2
LAYER
  5
1
330
0
100
AcDbSymbolTable
 70
5
  0
LAYER
  5
27
330
1
100
AcDbSymbolTableRecord
100
AcDbLayerTableRecord
  2
0
 70
0
 62
7
  6
Continuous
370
-3
390
13
347
21
  0
LAYER
  5
28
330
1
100
AcDbSymbolTableRecord
100
AcDbLayerTableRecord
  2
Defpoints
 70
0
 62
7
  6
Continuous
290
0
370
-3
390
13
347
21
  0
LAYER
  5
2F
330
1
100
AcDbSymbolTableRecord
100
AcDbLayerTableRecord
  2
FILL_WHITE_FFFFFF
 70
0
 62
7
420
16777215
  6
Continuous
370
-3
390
13
347
21
  0
LAYER
  5
32
330
1
100
AcDbSymbolTableRecord
100
AcDbLayerTableRecord
  2
FILL_LIME_00FF00
 70
0
 62
7
420
65280
  6
Continuous
370
-3
390
13
347
21
  0
LAYER
  5
5D
330
1
100
AcDbSymbolTableRecord
100
AcDbLayerTableRecord
  2
STROKE_LIME_00FF00
 70
0
 62
7
420
65280
  6
Continuous
370
-3
390
13
347
21
  0
ENDTAB
  0
TABLE
  2
STYLE
  5
5
330
0
100
AcDbSymbolTable
 70
1
  0
STYLE
  5
29
330
5
100
AcDbSymbolTableRecord
100
AcDbTextStyleTableRecord
  2
Standard
 70
0
 40
0.0
 41
1.0
 50
0.0
 71
0
 42
2.5
  3
txt
  4

  0
ENDTAB
  0
TABLE
  2
VIEW
  5
7
330
0
100
AcDbSymbolTable
 70
0
  0
ENDTAB
  0
TABLE
  2
UCS
  5
6
330
0
100
AcDbSymbolTable
 70
0
  0
ENDTAB
  0
TABLE
  2
APPID
  5
3
330
0
100
AcDbSymbolTable
 70
3
  0
APPID
  5
2A
330
3
100
AcDbSymbolTableRecord
100
AcDbRegAppTableRecord
  2
ACAD
 70
0
  0
APPID
  5
5F
330
3
100
AcDbSymbolTableRecord
100
AcDbRegAppTableRecord
  2
HATCHBACKGROUNDCOLOR
 70
0
  0
APPID
  5
60
330
3
100
AcDbSymbolTableRecord
100
AcDbRegAppTableRecord
  2
EZDXF
 70
0
  0
ENDTAB
  0
TABLE
  2
DIMSTYLE
  5
4
330
0
100
AcDbSymbolTable
 70
1
100
AcDbDimStyleTable
  0
DIMSTYLE
105
2B
330
4
100
AcDbSymbolTableRecord
100
AcDbDimStyleTableRecord
  2
Standard
 70
0
 40
1.0
 41
2.5
 42
0.625
 43
3.75
 44
1.25
 45
0.0
 46
0.0
 47
0.0
 48
0.0
 49
2.5
140
2.5
141
2.5
142
0.0
143
0.03937007874
144
1.0
145
0.0
146
1.0
147
0.625
148
0.0
 69
0
 70
0
 71
0
 72
0
 73
0
 74
0
 75
0
 76
0
 77
1
 78
8
 79
3
170
0
171
3
172
1
173
0
174
0
175
0
176
0
177
0
178
0
179
2
271
2
272
2
273
2
274
3
275
0
276
0
277
2
278
44
279
0
280
0
281
0
282
0
283
0
284
8
285
0
286
0
288
0
289
3
290
0
371
-2
372
-2
  0
ENDTAB
  0
TABLE
  2
BLOCK_RECORD
  5
9
330
0
100
AcDbSymbolTable
 70
2
  0
BLOCK_RECORD
  5
17
330
9
100
AcDbSymbolTableRecord
100
AcDbBlockTableRecord
  2
*Model_Space
340
1A
 70
0
280
1
281
0
  0
BLOCK_RECORD
  5
1B
330
9
100
AcDbSymbolTableRecord
100
AcDbBlockTableRecord
  2
*Paper_Space
340
1E
 70
0
280
1
281
0
  0
ENDTAB
  0
ENDSEC
  0
SECTION
  2
BLOCKS
  0
BLOCK
  5
18
330
17
100
AcDbEntity
  8
0
100
AcDbBlockBegin
  2
*Model_Space
 70
0
 10
0.0
 20
0.0
 30
0.0
  3
*Model_Space
  1

  0
ENDBLK
  5
19
330
17
100
AcDbEntity
  8
0
100
AcDbBlockEnd
  0
BLOCK
  5
1C
330
1B
100
AcDbEntity
  8
0
100
AcDbBlockBegin
  2
*Paper_Space
 70
0
 10
0.0
 20
0.0
 30
0.0
  3
*Paper_Space
  1

  0
ENDBLK
  5
1D
330
1B
100
AcDbEntity
  8
0
100
AcDbBlockEnd
  0
ENDSEC
  0
SECTION
  2
ENTITIES
  0
HATCH
  5
30
330
17
100
AcDbEntity
  8
FILL_WHITE_FFFFFF
 62
7
420
16777215
100
AcDbHatch
 10
0.0
 20
0.0
 30
0.0
210
0.0
220
0.0
230
1.0
  2
SOLID
 70
1
 71
0
 91
1
 92
3
 72
0
 73
1
 93
69
 10
514.29
 20
258.72
 10
515.69
 20
258.66
 10
517.18
 20
258.48
 10
518.72
 20
258.15
 10
520.29
 20
257.67
 10
521.86
 20
257.02
 10
523.4
 20
256.19
 10
524.89
 20
255.16
 10
526.29
 20
253.92
 10
527.93
 20
252.52
 10
529.25
 20
251.01
 10
530.3
 20
249.43
 10
531.09
 20
247.77
 10
531.66
 20
246.06
 10
532.03
 20
244.3
 10
532.23
 20
242.52
 10
532.29
 20
240.72
 10
532.29
 20
29.52
 10
532.23
 20
27.72
 10
532.03
 20
25.94
 10
531.66
 20
24.18
 10
531.09
 20
22.47
 10
530.3
 20
20.81
 10
529.25
 20
19.23
 10
527.93
 20
17.72
 10
526.29
 20
16.32
 10
524.89
 20
15.08
 10
523.4
 20
14.05
 10
521.86
 20
13.22
 10
520.29
 20
12.57
 10
518.72
 20
12.09
 10
517.18
 20
11.76
 10
515.69
 20
11.58
 10
514.29
 20
11.52
 10
54.69
 20
11.52
 10
52.89
 20
11.58
 10
51.11
 20
11.76
 10
49.35
 20
12.09
 10
47.64
 20
12.57
 10
45.98
 20
13.22
 10
44.4
 20
14.05
 10
42.89
 20
15.08
 10
41.49
 20
16.32
 10
40.25
 20
17.72
 10
39.22
 20
19.23
 10
38.39
 20
20.81
 10
37.74
 20
22.47
 10
37.26
 20
24.18
 10
36.93
 20
25.94
 10
36.75
 20
27.72
 10
36.69
 20
29.52
 10
36.69
 20
240.72
 10
36.75
 20
242.52
 10
36.93
 20
244.3
 10
37.26
 20
246.06
 10
37.74
 20
247.77
 10
38.39
 20
249.43
 10
39.22
 20
251.01
 10
40.25
 20
252.52
 10
41.49
 20
253.92
 10
42.89
 20
255.16
 10
44.4
 20
256.19
 10
45.98
 20
257.02
 10
47.64
 20
257.67
 10
49.35
 20
258.15
 10
51.11
 20
258.48
 10
52.89
 20
258.66
 10
54.69
 20
258.72
 10
514.29
 20
258.72
 97
0
 75
1
 76
1
 98
0
  0
LWPOLYLINE
  5
31
330
17
100
AcDbEntity
  8
FILL_WHITE_FFFFFF
370
0
420
16777215
100
AcDbPolyline
 90
68
 70
1
 10
514.29
 20
258.72
 10
515.69
 20
258.66
 10
517.18
 20
258.48
 10
518.72
 20
258.15
 10
520.29
 20
257.67
 10
521.86
 20
257.02
 10
523.4
 20
256.19
 10
524.89
 20
255.16
 10
526.29
 20
253.92
 10
527.93
 20
252.52
 10
529.25
 20
251.01
 10
530.3
 20
249.43
 10
531.09
 20
247.77
 10
531.66
 20
246.06
 10
532.03
 20
244.3
 10
532.23
 20
242.52
 10
532.29
 20
240.72
 10
532.29
 20
29.52
 10
532.23
 20
27.72
 10
532.03
 20
25.94
 10
531.66
 20
24.18
 10
531.09
 20
22.47
 10
530.3
 20
20.81
 10
529.25
 20
19.23
 10
527.93
 20
17.72
 10
526.29
 20
16.32
 10
524.89
 20
15.08
 10
523.4
 20
14.05
 10
521.86
 20
13.22
 10
520.29
 20
12.57
 10
518.72
 20
12.09
 10
517.18
 20
11.76
 10
515.69
 20
11.58
 10
514.29
 20
11.52
 10
54.69
 20
11.52
 10
52.89
 20
11.58
 10
51.11
 20
11.76
 10
49.35
 20
12.09
 10
47.64
 20
12.57
 10
45.98
 20
13.22
 10
44.4
 20
14.05
 10
42.89
 20
15.08
 10
41.49
 20
16.32
 10
40.25
 20
17.72
 10
39.22
 20
19.23
 10
38.39
 20
20.81
 10
37.74
 20
22.47
 10
37.26
 20
24.18
 10
36.93
 20
25.94
 10
36.75
 20
27.72
 10
36.69
 20
29.52
 10
36.69
 20
240.72
 10
36.75
 20
242.52
 10
36.93
 20
244.3
 10
37.26
 20
246.06
 10
37.74
 20
247.77
 10
38.39
 20
249.43
 10
39.22
 20
251.01
 10
40.25
 20
252.52
 10
41.49
 20
253.92
 10
42.89
 20
255.16
 10
44.4
 20
256.19
 10
45.98
 20
257.02
 10
47.64
 20
257.67
 10
49.35
 20
258.15
 10
51.11
 20
258.48
 10
52.89
 20
258.66
 10
54.69
 20
258.72
  0
HATCH
  5
33
330
17
100
AcDbEntity
  8
FILL_LIME_00FF00
 62
7
420
65280
100
AcDbHatch
 10
0.0
 20
0.0
 30
0.0
210
0.0
220
0.0
230
1.0
  2
SOLID
 70
1
 71
0
 91
1
 92
3
 72
0
 73
1
 93
61
 10
53.79
 20
19.98
 10
52.91
 20
20.14
 10
52.05
 20
20.43
 10
51.24
 20
20.82
 10
50.48
 20
21.33
 10
49.8
 20
21.94
 10
49.19
 20
22.68
 10
48.69
 20
23.52
 10
47.85
 20
24.02
 10
47.12
 20
24.63
 10
46.5
 20
25.31
 10
45.99
 20
26.07
 10
45.6
 20
26.88
 10
45.32
 20
27.74
 10
45.15
 20
28.62
 10
45.09
 20
29.52
 10
45.09
 20
240.72
 10
45.28
 20
241.62
 10
45.69
 20
242.52
 10
46.1
 20
243.42
 10
46.29
 20
244.32
 10
46.5
 20
245.2
 10
47.04
 20
245.97
 10
47.81
 20
246.51
 10
48.69
 20
246.72
 10
49.19
 20
247.56
 10
49.8
 20
248.29
 10
50.48
 20
248.91
 10
51.24
 20
249.42
 10
52.05
 20
249.81
 10
52.91
 20
250.09
 10
53.79
 20
250.26
 10
54.69
 20
250.32
 10
514.29
 20
250.32
 10
515.04
 20
249.72
 10
515.81
 20
249.31
 10
516.69
 20
249.12
 10
517.59
 20
248.91
 10
518.49
 20
248.37
 10
520.29
 20
246.72
 10
521.08
 20
246.22
 10
521.68
 20
245.61
 10
522.1
 20
244.93
 10
522.39
 20
244.17
 10
522.65
 20
242.5
 10
522.69
 20
240.72
 10
522.69
 20
29.52
 10
522.69
 20
25.92
 10
521.98
 20
25.04
 10
521.49
 20
24.27
 10
521.0
 20
23.73
 10
520.69
 20
23.57
 10
520.29
 20
23.52
 10
518.49
 20
21.87
 10
517.59
 20
21.33
 10
516.69
 20
21.12
 10
515.81
 20
20.43
 10
515.04
 20
20.07
 10
514.29
 20
19.92
 10
54.69
 20
19.92
 10
53.79
 20
19.98
 97
0
 75
1
 76
1
 98
0
  0
LWPOLYLINE
  5
34
330
17
100
AcDbEntity
  8
FILL_LIME_00FF00
370
0
420
65280
100
AcDbPolyline
 90
60
 70
1
 10
53.79
 20
19.98
 10
52.91
 20
20.14
 10
52.05
 20
20.43
 10
51.24
 20
20.82
 10
50.48
 20
21.33
 10
49.8
 20
21.94
 10
49.19
 20
22.68
 10
48.69
 20
23.52
 10
47.85
 20
24.02
 10
47.12
 20
24.63
 10
46.5
 20
25.31
 10
45.99
 20
26.07
 10
45.6
 20
26.88
 10
45.32
 20
27.74
 10
45.15
 20
28.62
 10
45.09
 20
29.52
 10
45.09
 20
240.72
 10
45.28
 20
241.62
 10
45.69
 20
242.52
 10
46.1
 20
243.42
 10
46.29
 20
244.32
 10
46.5
 20
245.2
 10
47.04
 20
245.97
 10
47.81
 20
246.51
 10
48.69
 20
246.72
 10
49.19
 20
247.56
 10
49.8
 20
248.29
 10
50.48
 20
248.91
 10
51.24
 20
249.42
 10
52.05
 20
249.81
 10
52.91
 20
250.09
 10
53.79
 20
250.26
 10
54.69
 20
250.32
 10
514.29
 20
250.32
 10
515.04
 20
249.72
 10
515.81
 20
249.31
 10
516.69
 20
249.12
 10
517.59
 20
248.91
 10
518.49
 20
248.37
 10
520.29
 20
246.72
 10
521.08
 20
246.22
 10
521.68
 20
245.61
 10
522.1
 20
244.93
 10
522.39
 20
244.17
 10
522.65
 20
242.5
 10
522.69
 20
240.72
 10
522.69
 20
29.52
 10
522.69
 20
25.92
 10
521.98
 20
25.04
 10
521.49
 20
24.27
 10
521.0
 20
23.73
 10
520.69
 20
23.57
 10
520.29
 20
23.52
 10
518.49
 20
21.87
 10
517.59
 20
21.33
 10
516.69
 20
21.12
 10
515.81
 20
20.43
 10
515.04
 20
20.07
 10
514.29
 20
19.92
 10
54.69
 20
19.92
  0
HATCH
  5
35
330
17
100
AcDbEntity
  8
FILL_WHITE_FFFFFF
 62
7
420
16777215
100
AcDbHatch
 10
0.0
 20
0.0
 30
0.0
210
0.0
220
0.0
230
1.0
  2
SOLID
 70
1
 71
0
 91
1
 92
3
 72
0
 73
1
 93
9
 10
85.89
 20
171.12
 10
85.89
 20
213.12
 10
71.49
 20
213.12
 10
71.49
 20
220.32
 10
108.69
 20
220.32
 10
108.69
 20
213.12
 10
94.29
 20
213.12
 10
94.29
 20
171.12
 10
85.89
 20
171.12
 97
0
 75
1
 76
1
 98
0
  0
LWPOLYLINE
  5
36
330
17
100
AcDbEntity
  8
FILL_WHITE_FFFFFF
370
0
420
16777215
100
AcDbPolyline
 90
8
 70
1
 10
85.89
 20
171.12
 10
85.89
 20
213.12
 10
71.49
 20
213.12
 10
71.49
 20
220.32
 10
108.69
 20
220.32
 10
108.69
 20
213.12
 10
94.29
 20
213.12
 10
94.29
 20
171.12
  0
HATCH
  5
37
330
17
100
AcDbEntity
  8
FILL_WHITE_FFFFFF
 62
7
420
16777215
100
AcDbHatch
 10
0.0
 20
0.0
 30
0.0
210
0.0
220
0.0
230
1.0
  2
SOLID
 70
1
 71
0
 91
1
 92
3
 72
0
 73
1
 93
13
 10
201.09
 20
171.12
 10
191.49
 20
171.12
 10
180.69
 20
189.12
 10
168.69
 20
171.12
 10
159.09
 20
171.12
 10
175.89
 20
197.52
 10
161.49
 20
220.32
 10
171.09
 20
220.32
 10
180.69
 20
204.72
 10
190.29
 20
220.32
 10
199.89
 20
220.32
 10
185.49
 20
197.52
 10
201.09
 20
171.12
 97
0
 75
1
 76
1
 98
0
  0
LWPOLYLINE
  5
38
330
17
100
AcDbEntity
  8
FILL_WHITE_FFFFFF
370
0
420
16777215
100
AcDbPolyline
 90
12
 70
1
 10
201.09
 20
171.12
 10
191.49
 20
171.12
 10
180.69
 20
189.12
 10
168.69
 20
171.12
 10
159.09
 20
171.12
 10
175.89
 20
197.52
 10
161.49
 20
220.32
 10
171.09
 20
220.32
 10
180.69
 20
204.72
 10
190.29
 20
220.32
 10
199.89
 20
220.32
 10
185.49
 20
197.52
  0
HATCH
  5
39
330
17
100
AcDbEntity
  8
FILL_WHITE_FFFFFF
 62
7
420
16777215
100
AcDbHatch
 10
0.0
 20
0.0
 30
0.0
210
0.0
220
0.0
230
1.0
  2
SOLID
 70
1
 71
0
 91
1
 92
3
 72
0
 73
1
 93
5
 10
220.29
 20
171.12
 10
211.89
 20
171.12
 10
211.89
 20
220.32
 10
220.29
 20
220.32
 10
220.29
 20
171.12
 97
0
 75
1
 76
1
 98
0
  0
LWPOLYLINE
  5
3A
330
17
100
AcDbEntity
  8
FILL_WHITE_FFFFFF
370
0
420
16777215
100
AcDbPolyline
 90
4
 70
1
 10
220.29
 20
171.12
 10
211.89
 20
171.12
 10
211.89
 20
220.32
 10
220.29
 20
220.32
  0
HATCH
  5
3B
330
17
100
AcDbEntity
  8
FILL_WHITE_FFFFFF
 62
7
420
16777215
100
AcDbHatch
 10
0.0
 20
0.0
 30
0.0
210
0.0
220
0.0
230
1.0
  2
SOLID
 70
1
 71
0
 91
1
 92
3
 72
0
 73
1
 93
141
 10
257.49
 20
185.52
 10
258.9
 20
183.49
 10
260.41
 20
181.86
 10
262.05
 20
180.61
 10
263.79
 20
179.67
 10
265.65
 20
179.02
 10
267.62
 20
178.6
 10
269.7
 20
178.38
 10
271.89
 20
178.32
 10
274.55
 20
178.38
 10
275.81
 20
178.51
 10
276.99
 20
178.77
 10
278.05
 20
179.2
 10
278.98
 20
179.84
 10
279.73
 20
180.73
 10
280.29
 20
181.92
 10
280.68
 20
182.82
 10
280.96
 20
183.72
 10
281.13
 20
184.62
 10
281.19
 20
185.52
 10
281.13
 20
186.42
 10
280.96
 20
187.32
 10
280.68
 20
188.22
 10
280.29
 20
189.12
 10
279.68
 20
189.91
 10
278.79
 20
190.53
 10
277.67
 20
191.0
 10
276.39
 20
191.37
 10
273.54
 20
191.99
 10
270.69
 20
192.72
 10
269.39
 20
192.77
 10
268.18
 20
192.93
 10
265.89
 20
193.47
 10
261.09
 20
195.12
 10
260.19
 20
195.31
 10
259.29
 20
195.72
 10
258.39
 20
196.13
 10
257.49
 20
196.32
 10
256.25
 20
197.28
 10
255.22
 20
198.34
 10
254.39
 20
199.53
 10
253.74
 20
200.82
 10
253.26
 20
202.23
 10
252.93
 20
203.74
 10
252.75
 20
205.38
 10
252.69
 20
207.12
 10
252.75
 20
208.47
 10
252.93
 20
209.8
 10
253.26
 20
211.11
 10
253.74
 20
212.37
 10
254.39
 20
213.58
 10
255.22
 20
214.71
 10
256.25
 20
215.77
 10
257.49
 20
216.72
 10
258.89
 20
217.96
 10
260.4
 20
218.99
 10
261.98
 20
219.82
 10
263.64
 20
220.47
 10
265.35
 20
220.95
 10
267.11
 20
221.28
 10
268.89
 20
221.46
 10
270.69
 20
221.52
 10
272.94
 20
221.41
 10
275.19
 20
221.05
 10
277.44
 20
220.44
 10
279.69
 20
219.57
 10
281.94
 20
218.41
 10
284.19
 20
216.96
 10
286.44
 20
215.2
 10
288.69
 20
213.12
 10
282.69
 20
208.32
 10
281.24
 20
209.56
 10
279.62
 20
210.61
 10
277.88
 20
211.48
 10
276.09
 20
212.22
 10
272.57
 20
213.38
 10
269.49
 20
214.32
 10
268.64
 20
214.27
 10
267.88
 20
214.11
 10
266.49
 20
213.57
 10
263.49
 20
211.92
 10
262.61
 20
210.83
 10
261.84
 20
209.52
 10
261.3
 20
208.21
 10
261.09
 20
207.12
 10
261.15
 20
206.27
 10
261.31
 20
205.53
 10
261.6
 20
204.86
 10
261.99
 20
204.27
 10
262.5
 20
203.73
 10
263.11
 20
203.24
 10
264.69
 20
202.32
 10
265.44
 20
201.72
 10
266.21
 20
201.31
 10
267.09
 20
201.12
 10
279.09
 20
198.72
 10
279.97
 20
198.7
 10
280.74
 20
198.57
 10
281.28
 20
198.21
 10
281.44
 20
197.92
 10
281.49
 20
197.52
 10
282.28
 20
197.47
 10
282.9
 20
197.33
 10
283.74
 20
196.92
 10
284.36
 20
196.51
 10
285.09
 20
196.32
 10
286.68
 20
194.52
 10
287.94
 20
192.72
 10
289.89
 20
189.12
 10
289.89
 20
186.72
 10
289.89
 20
185.52
 10
289.89
 20
184.32
 10
289.87
 20
183.61
 10
289.74
 20
183.12
 10
289.38
 20
182.63
 10
288.69
 20
181.92
 10
288.69
 20
179.52
 10
287.79
 20
178.43
 10
286.89
 20
177.12
 10
285.99
 20
175.81
 10
285.09
 20
174.72
 10
282.16
 20
172.98
 10
280.53
 20
172.21
 10
278.79
 20
171.57
 10
276.93
 20
171.1
 10
274.96
 20
170.84
 10
272.88
 20
170.83
 10
270.69
 20
171.12
 10
268.89
 20
171.18
 10
267.09
 20
171.34
 10
265.29
 20
171.63
 10
263.49
 20
172.02
 10
261.69
 20
172.53
 10
259.89
 20
173.14
 10
258.09
 20
173.88
 10
256.29
 20
174.72
 10
255.18
 20
175.64
 10
253.74
 20
176.67
 10
252.07
 20
177.93
 10
250.29
 20
179.52
 10
257.49
 20
185.52
 97
0
 75
1
 76
1
 98
0
  0
LWPOLYLINE
  5
3C
330
17
100
AcDbEntity
  8
FILL_WHITE_FFFFFF
370
0
420
16777215
100
AcDbPolyline
 90
140
 70
1
 10
257.49
 20
185.52
 10
258.9
 20
183.49
 10
260.41
 20
181.86
 10
262.05
 20
180.61
 10
263.79
 20
179.67
 10
265.65
 20
179.02
 10
267.62
 20
178.6
 10
269.7
 20
178.38
 10
271.89
 20
178.32
 10
274.55
 20
178.38
 10
275.81
 20
178.51
 10
276.99
 20
178.77
 10
278.05
 20
179.2
 10
278.98
 20
179.84
 10
279.73
 20
180.73
 10
280.29
 20
181.92
 10
280.68
 20
182.82
 10
280.96
 20
183.72
 10
281.13
 20
184.62
 10
281.19
 20
185.52
 10
281.13
 20
186.42
 10
280.96
 20
187.32
 10
280.68
 20
188.22
 10
280.29
 20
189.12
 10
279.68
 20
189.91
 10
278.79
 20
190.53
 10
277.67
 20
191.0
 10
276.39
 20
191.37
 10
273.54
 20
191.99
 10
270.69
 20
192.72
 10
269.39
 20
192.77
 10
268.18
 20
192.93
 10
265.89
 20
193.47
 10
261.09
 20
195.12
 10
260.19
 20
195.31
 10
259.29
 20
195.72
 10
258.39
 20
196.13
 10
257.49
 20
196.32
 10
256.25
 20
197.28
 10
255.22
 20
198.34
 10
254.39
 20
199.53
 10
253.74
 20
200.82
 10
253.26
 20
202.23
 10
252.93
 20
203.74
 10
252.75
 20
205.38
 10
252.69
 20
207.12
 10
252.75
 20
208.47
 10
252.93
 20
209.8
 10
253.26
 20
211.11
 10
253.74
 20
212.37
 10
254.39
 20
213.58
 10
255.22
 20
214.71
 10
256.25
 20
215.77
 10
257.49
 20
216.72
 10
258.89
 20
217.96
 10
260.4
 20
218.99
 10
261.98
 20
219.82
 10
263.64
 20
220.47
 10
265.35
 20
220.95
 10
267.11
 20
221.28
 10
268.89
 20
221.46
 10
270.69
 20
221.52
 10
272.94
 20
221.41
 10
275.19
 20
221.05
 10
277.44
 20
220.44
 10
279.69
 20
219.57
 10
281.94
 20
218.41
 10
284.19
 20
216.96
 10
286.44
 20
215.2
 10
288.69
 20
213.12
 10
282.69
 20
208.32
 10
281.24
 20
209.56
 10
279.62
 20
210.61
 10
277.88
 20
211.48
 10
276.09
 20
212.22
 10
272.57
 20
213.38
 10
269.49
 20
214.32
 10
268.64
 20
214.27
 10
267.88
 20
214.11
 10
266.49
 20
213.57
 10
263.49
 20
211.92
 10
262.61
 20
210.83
 10
261.84
 20
209.52
 10
261.3
 20
208.21
 10
261.09
 20
207.12
 10
261.15
 20
206.27
 10
261.31
 20
205.53
 10
261.6
 20
204.86
 10
261.99
 20
204.27
 10
262.5
 20
203.73
 10
263.11
 20
203.24
 10
264.69
 20
202.32
 10
265.44
 20
201.72
 10
266.21
 20
201.31
 10
267.09
 20
201.12
 10
279.09
 20
198.72
 10
279.97
 20
198.7
 10
280.74
 20
198.57
 10
281.28
 20
198.21
 10
281.44
 20
197.92
 10
281.49
 20
197.52
 10
282.28
 20
197.47
 10
282.9
 20
197.33
 10
283.74
 20
196.92
 10
284.36
 20
196.51
 10
285.09
 20
196.32
 10
286.68
 20
194.52
 10
287.94
 20
192.72
 10
289.89
 20
189.12
 10
289.89
 20
186.72
 10
289.89
 20
185.52
 10
289.89
 20
184.32
 10
289.87
 20
183.61
 10
289.74
 20
183.12
 10
289.38
 20
182.63
 10
288.69
 20
181.92
 10
288.69
 20
179.52
 10
287.79
 20
178.43
 10
286.89
 20
177.12
 10
285.99
 20
175.81
 10
285.09
 20
174.72
 10
282.16
 20
172.98
 10
280.53
 20
172.21
 10
278.79
 20
171.57
 10
276.93
 20
171.1
 10
274.96
 20
170.84
 10
272.88
 20
170.83
 10
270.69
 20
171.12
 10
268.89
 20
171.18
 10
267.09
 20
171.34
 10
265.29
 20
171.63
 10
263.49
 20
172.02
 10
261.69
 20
172.53
 10
259.89
 20
173.14
 10
258.09
 20
173.88
 10
256.29
 20
174.72
 10
255.18
 20
175.64
 10
253.74
 20
176.67
 10
252.07
 20
177.93
 10
250.29
 20
179.52
  0
HATCH
  5
3D
330
17
100
AcDbEntity
  8
FILL_WHITE_FFFFFF
 62
7
420
16777215
100
AcDbHatch
 10
0.0
 20
0.0
 30
0.0
210
0.0
220
0.0
230
1.0
  2
SOLID
 70
1
 71
0
 91
1
 92
3
 72
0
 73
1
 93
9
 10
318.69
 20
171.12
 10
310.29
 20
171.12
 10
310.29
 20
213.12
 10
295.89
 20
213.12
 10
295.89
 20
220.32
 10
331.89
 20
220.32
 10
331.89
 20
213.12
 10
318.69
 20
213.12
 10
318.69
 20
171.12
 97
0
 75
1
 76
1
 98
0
  0
LWPOLYLINE
  5
3E
330
17
100
AcDbEntity
  8
FILL_WHITE_FFFFFF
370
0
420
16777215
100
AcDbPolyline
 90
8
 70
1
 10
318.69
 20
171.12
 10
310.29
 20
171.12
 10
310.29
 20
213.12
 10
295.89
 20
213.12
 10
295.89
 20
220.32
 10
331.89
 20
220.32
 10
331.89
 20
213.12
 10
318.69
 20
213.12
  0
HATCH
  5
3F
330
17
100
AcDbEntity
  8
FILL_WHITE_FFFFFF
 62
7
420
16777215
100
AcDbHatch
 10
0.0
 20
0.0
 30
0.0
210
0.0
220
0.0
230
1.0
  2
SOLID
 70
1
 71
0
 91
1
 92
3
 72
0
 73
1
 93
11
 10
390.69
 20
220.32
 10
400.29
 20
220.32
 10
424.29
 20
184.32
 10
424.29
 20
220.32
 10
432.69
 20
220.32
 10
432.69
 20
171.12
 10
423.09
 20
171.12
 10
399.09
 20
207.12
 10
399.09
 20
171.12
 10
390.69
 20
171.12
 10
390.69
 20
220.32
 97
0
 75
1
 76
1
 98
0
  0
LWPOLYLINE
  5
40
330
17
100
AcDbEntity
  8
FILL_WHITE_FFFFFF
370
0
420
16777215
100
AcDbPolyline
 90
10
 70
1
 10
390.69
 20
220.32
 10
400.29
 20
220.32
 10
424.29
 20
184.32
 10
424.29
 20
220.32
 10
432.69
 20
220.32
 10
432.69
 20
171.12
 10
423.09
 20
171.12
 10
399.09
 20
207.12
 10
399.09
 20
171.12
 10
390.69
 20
171.12
  0
HATCH
  5
41
330
17
100
AcDbEntity
  8
FILL_WHITE_FFFFFF
 62
7
420
16777215
100
AcDbHatch
 10
0.0
 20
0.0
 30
0.0
210
0.0
220
0.0
230
1.0
  2
SOLID
 70
1
 71
0
 91
2
 92
3
 72
0
 73
1
 93
9
 10
155.49
 20
171.12
 10
147.09
 20
171.12
 10
144.69
 20
179.52
 10
123.09
 20
179.52
 10
120.69
 20
171.12
 10
112.29
 20
171.12
 10
127.89
 20
220.32
 10
138.69
 20
220.32
 10
155.49
 20
171.12
 97
0
 92
18
 72
0
 73
1
 93
4
 10
142.29
 20
186.72
 10
133.89
 20
211.92
 10
125.49
 20
186.72
 10
142.29
 20
186.72
 97
0
 75
1
 76
1
 98
0
  0
LWPOLYLINE
  5
42
330
17
100
AcDbEntity
  8
FILL_WHITE_FFFFFF
370
0
420
16777215
100
AcDbPolyline
 90
8
 70
1
 10
155.49
 20
171.12
 10
147.09
 20
171.12
 10
144.69
 20
179.52
 10
123.09
 20
179.52
 10
120.69
 20
171.12
 10
112.29
 20
171.12
 10
127.89
 20
220.32
 10
138.69
 20
220.32
  0
LWPOLYLINE
  5
43
330
17
100
AcDbEntity
  8
FILL_WHITE_FFFFFF
370
0
420
16777215
100
AcDbPolyline
 90
3
 70
1
 10
142.29
 20
186.72
 10
133.89
 20
211.92
 10
125.49
 20
186.72
  0
HATCH
  5
44
330
17
100
AcDbEntity
  8
FILL_WHITE_FFFFFF
 62
7
420
16777215
100
AcDbHatch
 10
0.0
 20
0.0
 30
0.0
210
0.0
220
0.0
230
1.0
  2
SOLID
 70
1
 71
0
 91
2
 92
3
 72
0
 73
1
 93
9
 10
378.69
 20
171.12
 10
371.49
 20
171.12
 10
367.89
 20
179.52
 10
347.49
 20
179.52
 10
343.89
 20
171.12
 10
336.69
 20
171.12
 10
352.29
 20
220.32
 10
363.09
 20
220.32
 10
378.69
 20
171.12
 97
0
 92
18
 72
0
 73
1
 93
4
 10
366.69
 20
186.72
 10
358.29
 20
211.92
 10
349.89
 20
186.72
 10
366.69
 20
186.72
 97
0
 75
1
 76
1
 98
0
  0
LWPOLYLINE
  5
45
330
17
100
AcDbEntity
  8
FILL_WHITE_FFFFFF
370
0
420
16777215
100
AcDbPolyline
 90
8
 70
1
 10
378.69
 20
171.12
 10
371.49
 20
171.12
 10
367.89
 20
179.52
 10
347.49
 20
179.52
 10
343.89
 20
171.12
 10
336.69
 20
171.12
 10
352.29
 20
220.32
 10
363.09
 20
220.32
  0
LWPOLYLINE
  5
46
330
17
100
AcDbEntity
  8
FILL_WHITE_FFFFFF
370
0
420
16777215
100
AcDbPolyline
 90
3
 70
1
 10
366.69
 20
186.72
 10
358.29
 20
211.92
 10
349.89
 20
186.72
  0
HATCH
  5
47
330
17
100
AcDbEntity
  8
FILL_WHITE_FFFFFF
 62
7
420
16777215
100
AcDbHatch
 10
0.0
 20
0.0
 30
0.0
210
0.0
220
0.0
230
1.0
  2
SOLID
 70
1
 71
0
 91
2
 92
3
 72
0
 73
1
 93
36
 10
468.69
 20
220.32
 10
470.54
 20
220.26
 10
472.48
 20
220.04
 10
474.47
 20
219.62
 10
476.49
 20
218.97
 10
478.51
 20
218.03
 10
480.5
 20
216.78
 10
482.44
 20
215.15
 10
484.29
 20
213.12
 10
485.58
 20
211.27
 10
486.75
 20
209.31
 10
487.77
 20
207.28
 10
488.64
 20
205.17
 10
489.34
 20
203.01
 10
489.86
 20
200.8
 10
490.18
 20
198.57
 10
490.29
 20
196.32
 10
490.18
 20
194.02
 10
489.86
 20
191.65
 10
489.34
 20
189.25
 10
488.64
 20
186.87
 10
487.77
 20
184.54
 10
486.75
 20
182.31
 10
485.58
 20
180.23
 10
484.29
 20
178.32
 10
482.44
 20
176.63
 10
480.5
 20
175.17
 10
478.51
 20
173.93
 10
476.49
 20
172.92
 10
474.47
 20
172.13
 10
472.48
 20
171.57
 10
470.54
 20
171.23
 10
468.69
 20
171.12
 10
449.49
 20
171.12
 10
449.49
 20
220.32
 10
468.69
 20
220.32
 97
0
 92
18
 72
0
 73
1
 93
36
 10
468.69
 20
178.32
 10
470.02
 20
178.42
 10
471.32
 20
178.7
 10
472.58
 20
179.16
 10
473.79
 20
179.78
 10
474.94
 20
180.56
 10
476.03
 20
181.48
 10
477.05
 20
182.54
 10
477.99
 20
183.72
 10
478.85
 20
185.01
 10
479.61
 20
186.41
 10
480.28
 20
187.89
 10
480.84
 20
189.46
 10
481.29
 20
191.09
 10
481.62
 20
192.79
 10
481.82
 20
194.54
 10
481.89
 20
196.32
 10
481.83
 20
197.72
 10
481.67
 20
199.21
 10
481.38
 20
200.75
 10
480.99
 20
202.32
 10
480.48
 20
203.89
 10
479.87
 20
205.43
 10
479.13
 20
206.92
 10
478.29
 20
208.32
 10
477.34
 20
209.56
 10
476.28
 20
210.59
 10
475.15
 20
211.42
 10
473.94
 20
212.07
 10
472.68
 20
212.55
 10
471.37
 20
212.88
 10
470.04
 20
213.06
 10
468.69
 20
213.12
 10
459.09
 20
213.12
 10
459.09
 20
178.32
 10
468.69
 20
178.32
 97
0
 75
1
 76
1
 98
0
  0
LWPOLYLINE
  5
48
330
17
100
AcDbEntity
  8
FILL_WHITE_FFFFFF
370
0
420
16777215
100
AcDbPolyline
 90
35
 70
1
 10
468.69
 20
220.32
 10
470.54
 20
220.26
 10
472.48
 20
220.04
 10
474.47
 20
219.62
 10
476.49
 20
218.97
 10
478.51
 20
218.03
 10
480.5
 20
216.78
 10
482.44
 20
215.15
 10
484.29
 20
213.12
 10
485.58
 20
211.27
 10
486.75
 20
209.31
 10
487.77
 20
207.28
 10
488.64
 20
205.17
 10
489.34
 20
203.01
 10
489.86
 20
200.8
 10
490.18
 20
198.57
 10
490.29
 20
196.32
 10
490.18
 20
194.02
 10
489.86
 20
191.65
 10
489.34
 20
189.25
 10
488.64
 20
186.87
 10
487.77
 20
184.54
 10
486.75
 20
182.31
 10
485.58
 20
180.23
 10
484.29
 20
178.32
 10
482.44
 20
176.63
 10
480.5
 20
175.17
 10
478.51
 20
173.93
 10
476.49
 20
172.92
 10
474.47
 20
172.13
 10
472.48
 20
171.57
 10
470.54
 20
171.23
 10
468.69
 20
171.12
 10
449.49
 20
171.12
 10
449.49
 20
220.32
  0
LWPOLYLINE
  5
49
330
17
100
AcDbEntity
  8
FILL_WHITE_FFFFFF
370
0
420
16777215
100
AcDbPolyline
 90
35
 70
1
 10
468.69
 20
178.32
 10
470.02
 20
178.42
 10
471.32
 20
178.7
 10
472.58
 20
179.16
 10
473.79
 20
179.78
 10
474.94
 20
180.56
 10
476.03
 20
181.48
 10
477.05
 20
182.54
 10
477.99
 20
183.72
 10
478.85
 20
185.01
 10
479.61
 20
186.41
 10
480.28
 20
187.89
 10
480.84
 20
189.46
 10
481.29
 20
191.09
 10
481.62
 20
192.79
 10
481.82
 20
194.54
 10
481.89
 20
196.32
 10
481.83
 20
197.72
 10
481.67
 20
199.21
 10
481.38
 20
200.75
 10
480.99
 20
202.32
 10
480.48
 20
203.89
 10
479.87
 20
205.43
 10
479.13
 20
206.92
 10
478.29
 20
208.32
 10
477.34
 20
209.56
 10
476.28
 20
210.59
 10
475.15
 20
211.42
 10
473.94
 20
212.07
 10
472.68
 20
212.55
 10
471.37
 20
212.88
 10
470.04
 20
213.06
 10
468.69
 20
213.12
 10
459.09
 20
213.12
 10
459.09
 20
178.32
  0
HATCH
  5
4A
330
17
100
AcDbEntity
  8
FILL_WHITE_FFFFFF
 62
7
420
16777215
100
AcDbHatch
 10
0.0
 20
0.0
 30
0.0
210
0.0
220
0.0
230
1.0
  2
SOLID
 70
1
 71
0
 91
3
 92
3
 72
0
 73
1
 93
17
 10
175.89
 20
129.12
 10
175.89
 20
127.92
 10
173.49
 20
127.92
 10
169.89
 20
119.52
 10
183.09
 20
119.52
 10
183.09
 20
61.92
 10
175.89
 20
61.92
 10
175.89
 20
66.72
 10
159.09
 20
66.72
 10
159.09
 20
59.52
 10
151.89
 20
59.52
 10
151.89
 20
119.52
 10
161.49
 20
119.52
 10
167.49
 20
131.52
 10
172.29
 20
130.32
 10
174.69
 20
129.12
 10
175.89
 20
129.12
 97
0
 92
18
 72
0
 73
1
 93
5
 10
159.09
 20
112.32
 10
159.09
 20
96.72
 10
175.89
 20
96.72
 10
175.89
 20
112.32
 10
159.09
 20
112.32
 97
0
 92
18
 72
0
 73
1
 93
5
 10
175.89
 20
89.52
 10
159.09
 20
89.52
 10
159.09
 20
73.92
 10
175.89
 20
73.92
 10
175.89
 20
89.52
 97
0
 75
1
 76
1
 98
0
  0
LWPOLYLINE
  5
4B
330
17
100
AcDbEntity
  8
FILL_WHITE_FFFFFF
370
0
420
16777215
100
AcDbPolyline
 90
16
 70
1
 10
175.89
 20
129.12
 10
175.89
 20
127.92
 10
173.49
 20
127.92
 10
169.89
 20
119.52
 10
183.09
 20
119.52
 10
183.09
 20
61.92
 10
175.89
 20
61.92
 10
175.89
 20
66.72
 10
159.09
 20
66.72
 10
159.09
 20
59.52
 10
151.89
 20
59.52
 10
151.89
 20
119.52
 10
161.49
 20
119.52
 10
167.49
 20
131.52
 10
172.29
 20
130.32
 10
174.69
 20
129.12
  0
LWPOLYLINE
  5
4C
330
17
100
AcDbEntity
  8
FILL_WHITE_FFFFFF
370
0
420
16777215
100
AcDbPolyline
 90
4
 70
1
 10
159.09
 20
112.32
 10
159.09
 20
96.72
 10
175.89
 20
96.72
 10
175.89
 20
112.32
  0
LWPOLYLINE
  5
4D
330
17
100
AcDbEntity
  8
FILL_WHITE_FFFFFF
370
0
420
16777215
100
AcDbPolyline
 90
4
 70
1
 10
175.89
 20
89.52
 10
159.09
 20
89.52
 10
159.09
 20
73.92
 10
175.89
 20
73.92
  0
HATCH
  5
4E
330
17
100
AcDbEntity
  8
FILL_WHITE_FFFFFF
 62
7
420
16777215
100
AcDbHatch
 10
0.0
 20
0.0
 30
0.0
210
0.0
220
0.0
230
1.0
  2
SOLID
 70
1
 71
0
 91
1
 92
3
 72
0
 73
1
 93
37
 10
204.69
 20
129.12
 10
204.69
 20
127.92
 10
204.69
 20
126.72
 10
203.49
 20
126.72
 10
201.09
 20
119.52
 10
221.49
 20
119.52
 10
221.49
 20
91.92
 10
221.49
 20
83.52
 10
221.49
 20
76.32
 10
220.29
 20
71.52
 10
217.89
 20
66.72
 10
215.49
 20
63.12
 10
213.09
 20
60.72
 10
209.49
 20
59.52
 10
204.69
 20
59.52
 10
199.89
 20
59.52
 10
197.49
 20
67.92
 10
203.49
 20
67.92
 10
205.89
 20
67.92
 10
209.49
 20
69.12
 10
210.69
 20
71.52
 10
213.09
 20
73.92
 10
214.29
 20
77.52
 10
214.29
 20
82.32
 10
214.29
 20
87.12
 10
214.29
 20
91.92
 10
214.29
 20
112.32
 10
197.49
 20
112.32
 10
193.89
 20
106.32
 10
190.29
 20
101.52
 10
183.09
 20
105.12
 10
186.69
 20
109.92
 10
190.29
 20
115.92
 10
193.89
 20
123.12
 10
197.49
 20
131.52
 10
202.29
 20
129.12
 10
204.69
 20
129.12
 97
0
 75
1
 76
1
 98
0
  0
LWPOLYLINE
  5
4F
330
17
100
AcDbEntity
  8
FILL_WHITE_FFFFFF
370
0
420
16777215
100
AcDbPolyline
 90
36
 70
1
 10
204.69
 20
129.12
 10
204.69
 20
127.92
 10
204.69
 20
126.72
 10
203.49
 20
126.72
 10
201.09
 20
119.52
 10
221.49
 20
119.52
 10
221.49
 20
91.92
 10
221.49
 20
83.52
 10
221.49
 20
76.32
 10
220.29
 20
71.52
 10
217.89
 20
66.72
 10
215.49
 20
63.12
 10
213.09
 20
60.72
 10
209.49
 20
59.52
 10
204.69
 20
59.52
 10
199.89
 20
59.52
 10
197.49
 20
67.92
 10
203.49
 20
67.92
 10
205.89
 20
67.92
 10
209.49
 20
69.12
 10
210.69
 20
71.52
 10
213.09
 20
73.92
 10
214.29
 20
77.52
 10
214.29
 20
82.32
 10
214.29
 20
87.12
 10
214.29
 20
91.92
 10
214.29
 20
112.32
 10
197.49
 20
112.32
 10
193.89
 20
106.32
 10
190.29
 20
101.52
 10
183.09
 20
105.12
 10
186.69
 20
109.92
 10
190.29
 20
115.92
 10
193.89
 20
123.12
 10
197.49
 20
131.52
 10
202.29
 20
129.12
  0
HATCH
  5
50
330
17
100
AcDbEntity
  8
FILL_WHITE_FFFFFF
 62
7
420
16777215
100
AcDbHatch
 10
0.0
 20
0.0
 30
0.0
210
0.0
220
0.0
230
1.0
  2
SOLID
 70
1
 71
0
 91
1
 92
3
 72
0
 73
1
 93
7
 10
202.29
 20
93.12
 10
207.09
 20
85.92
 10
202.29
 20
81.12
 10
196.29
 20
88.32
 10
190.29
 20
94.32
 10
195.09
 20
100.32
 10
202.29
 20
93.12
 97
0
 75
1
 76
1
 98
0
  0
LWPOLYLINE
  5
51
330
17
100
AcDbEntity
  8
FILL_WHITE_FFFFFF
370
0
420
16777215
100
AcDbPolyline
 90
6
 70
1
 10
202.29
 20
93.12
 10
207.09
 20
85.92
 10
202.29
 20
81.12
 10
196.29
 20
88.32
 10
190.29
 20
94.32
 10
195.09
 20
100.32
  0
HATCH
  5
52
330
17
100
AcDbEntity
  8
FILL_WHITE_FFFFFF
 62
7
420
16777215
100
AcDbHatch
 10
0.0
 20
0.0
 30
0.0
210
0.0
220
0.0
230
1.0
  2
SOLID
 70
1
 71
0
 91
1
 92
3
 72
0
 73
1
 93
21
 10
288.69
 20
130.32
 10
289.89
 20
130.32
 10
289.89
 20
129.12
 10
287.49
 20
127.92
 10
287.49
 20
107.52
 10
319.89
 20
107.52
 10
319.89
 20
100.32
 10
287.49
 20
100.32
 10
287.49
 20
71.52
 10
315.09
 20
71.52
 10
315.09
 20
64.32
 10
252.69
 20
64.32
 10
252.69
 20
71.52
 10
280.29
 20
71.52
 10
280.29
 20
100.32
 10
247.89
 20
100.32
 10
247.89
 20
107.52
 10
280.29
 20
107.52
 10
280.29
 20
131.52
 10
286.29
 20
131.52
 10
288.69
 20
130.32
 97
0
 75
1
 76
1
 98
0
  0
LWPOLYLINE
  5
53
330
17
100
AcDbEntity
  8
FILL_WHITE_FFFFFF
370
0
420
16777215
100
AcDbPolyline
 90
20
 70
1
 10
288.69
 20
130.32
 10
289.89
 20
130.32
 10
289.89
 20
129.12
 10
287.49
 20
127.92
 10
287.49
 20
107.52
 10
319.89
 20
107.52
 10
319.89
 20
100.32
 10
287.49
 20
100.32
 10
287.49
 20
71.52
 10
315.09
 20
71.52
 10
315.09
 20
64.32
 10
252.69
 20
64.32
 10
252.69
 20
71.52
 10
280.29
 20
71.52
 10
280.29
 20
100.32
 10
247.89
 20
100.32
 10
247.89
 20
107.52
 10
280.29
 20
107.52
 10
280.29
 20
131.52
 10
286.29
 20
131.52
  0
HATCH
  5
54
330
17
100
AcDbEntity
  8
FILL_WHITE_FFFFFF
 62
7
420
16777215
100
AcDbHatch
 10
0.0
 20
0.0
 30
0.0
210
0.0
220
0.0
230
1.0
  2
SOLID
 70
1
 71
0
 91
1
 92
3
 72
0
 73
1
 93
13
 10
358.29
 20
117.12
 10
358.29
 20
131.52
 10
365.49
 20
131.52
 10
366.69
 20
131.52
 10
367.89
 20
130.32
 10
367.89
 20
129.12
 10
366.69
 20
129.12
 10
366.69
 20
117.12
 10
378.69
 20
117.12
 10
378.69
 20
109.92
 10
345.09
 20
109.92
 10
345.09
 20
117.12
 10
358.29
 20
117.12
 97
0
 75
1
 76
1
 98
0
  0
LWPOLYLINE
  5
55
330
17
100
AcDbEntity
  8
FILL_WHITE_FFFFFF
370
0
420
16777215
100
AcDbPolyline
 90
12
 70
1
 10
358.29
 20
117.12
 10
358.29
 20
131.52
 10
365.49
 20
131.52
 10
366.69
 20
131.52
 10
367.89
 20
130.32
 10
367.89
 20
129.12
 10
366.69
 20
129.12
 10
366.69
 20
117.12
 10
378.69
 20
117.12
 10
378.69
 20
109.92
 10
345.09
 20
109.92
 10
345.09
 20
117.12
  0
HATCH
  5
56
330
17
100
AcDbEntity
  8
FILL_WHITE_FFFFFF
 62
7
420
16777215
100
AcDbHatch
 10
0.0
 20
0.0
 30
0.0
210
0.0
220
0.0
230
1.0
  2
SOLID
 70
1
 71
0
 91
1
 92
3
 72
0
 73
1
 93
16
 10
361.89
 20
73.92
 10
365.49
 20
90.72
 10
369.09
 20
107.52
 10
375.09
 20
105.12
 10
376.29
 20
103.92
 10
376.29
 20
102.72
 10
375.09
 20
101.52
 10
370.29
 20
76.32
 10
377.49
 20
77.52
 10
377.49
 20
70.32
 10
349.89
 20
64.32
 10
348.69
 20
63.12
 10
347.49
 20
63.12
 10
347.49
 20
64.32
 10
345.09
 20
72.72
 10
361.89
 20
73.92
 97
0
 75
1
 76
1
 98
0
  0
LWPOLYLINE
  5
57
330
17
100
AcDbEntity
  8
FILL_WHITE_FFFFFF
370
0
420
16777215
100
AcDbPolyline
 90
15
 70
1
 10
361.89
 20
73.92
 10
365.49
 20
90.72
 10
369.09
 20
107.52
 10
375.09
 20
105.12
 10
376.29
 20
103.92
 10
376.29
 20
102.72
 10
375.09
 20
101.52
 10
370.29
 20
76.32
 10
377.49
 20
77.52
 10
377.49
 20
70.32
 10
349.89
 20
64.32
 10
348.69
 20
63.12
 10
347.49
 20
63.12
 10
347.49
 20
64.32
 10
345.09
 20
72.72
  0
HATCH
  5
58
330
17
100
AcDbEntity
  8
FILL_WHITE_FFFFFF
 62
7
420
16777215
100
AcDbHatch
 10
0.0
 20
0.0
 30
0.0
210
0.0
220
0.0
230
1.0
  2
SOLID
 70
1
 71
0
 91
1
 92
3
 72
0
 73
1
 93
6
 10
347.49
 20
105.12
 10
354.69
 20
106.32
 10
357.09
 20
94.32
 10
359.49
 20
79.92
 10
352.29
 20
77.52
 10
347.49
 20
105.12
 97
0
 75
1
 76
1
 98
0
  0
LWPOLYLINE
  5
59
330
17
100
AcDbEntity
  8
FILL_WHITE_FFFFFF
370
0
420
16777215
100
AcDbPolyline
 90
5
 70
1
 10
347.49
 20
105.12
 10
354.69
 20
106.32
 10
357.09
 20
94.32
 10
359.49
 20
79.92
 10
352.29
 20
77.52
  0
HATCH
  5
5A
330
17
100
AcDbEntity
  8
FILL_WHITE_FFFFFF
 62
7
420
16777215
100
AcDbHatch
 10
0.0
 20
0.0
 30
0.0
210
0.0
220
0.0
230
1.0
  2
SOLID
 70
1
 71
0
 91
2
 92
3
 72
0
 73
1
 93
21
 10
389.49
 20
132.72
 10
397.89
 20
131.52
 10
399.09
 20
131.52
 10
399.09
 20
130.32
 10
399.09
 20
129.12
 10
397.89
 20
129.12
 10
397.89
 20
117.12
 10
418.29
 20
117.12
 10
418.29
 20
109.92
 10
397.89
 20
109.92
 10
397.89
 20
96.72
 10
415.89
 20
96.72
 10
415.89
 20
59.52
 10
407.49
 20
59.52
 10
407.49
 20
64.32
 10
387.09
 20
64.32
 10
387.09
 20
59.52
 10
378.69
 20
59.52
 10
378.69
 20
96.72
 10
389.49
 20
96.72
 10
389.49
 20
132.72
 97
0
 92
18
 72
0
 73
1
 93
5
 10
407.49
 20
89.52
 10
387.09
 20
89.52
 10
387.09
 20
71.52
 10
407.49
 20
71.52
 10
407.49
 20
89.52
 97
0
 75
1
 76
1
 98
0
  0
LWPOLYLINE
  5
5B
330
17
100
AcDbEntity
  8
FILL_WHITE_FFFFFF
370
0
420
16777215
100
AcDbPolyline
 90
20
 70
1
 10
389.49
 20
132.72
 10
397.89
 20
131.52
 10
399.09
 20
131.52
 10
399.09
 20
130.32
 10
399.09
 20
129.12
 10
397.89
 20
129.12
 10
397.89
 20
117.12
 10
418.29
 20
117.12
 10
418.29
 20
109.92
 10
397.89
 20
109.92
 10
397.89
 20
96.72
 10
415.89
 20
96.72
 10
415.89
 20
59.52
 10
407.49
 20
59.52
 10
407.49
 20
64.32
 10
387.09
 20
64.32
 10
387.09
 20
59.52
 10
378.69
 20
59.52
 10
378.69
 20
96.72
 10
389.49
 20
96.72
  0
LWPOLYLINE
  5
5C
330
17
100
AcDbEntity
  8
FILL_WHITE_FFFFFF
370
0
420
16777215
100
AcDbPolyline
 90
4
 70
1
 10
407.49
 20
89.52
 10
387.09
 20
89.52
 10
387.09
 20
71.52
 10
407.49
 20
71.52
  0
LWPOLYLINE
  5
5E
330
17
100
AcDbEntity
  8
STROKE_LIME_00FF00
370
0
420
65280
100
AcDbPolyline
 90
69
 70
0
 10
532.29
 20
240.71999999999935
 10
532.1933203125
 20
242.50417968749935
 10
531.9103124999999
 20
244.2496874999993
 10
531.4515234375
 20
245.9459765624993
 10
530.8275
 20
247.5824999999993
 10
530.0487890625
 20
249.14871093749932
 10
529.1259375
 20
250.63406249999932
 10
528.0694921874999
 20
252.0280078124993
 10
526.8899999999999
 20
253.3199999999993
 10
525.5980078124999
 20
254.4994921874993
 10
524.2040624999998
 20
255.55593749999932
 10
522.7187109375
 20
256.47878906249935
 10
521.1524999999999
 20
257.2574999999993
 10
519.5159765624999
 20
257.8815234374993
 10
517.8196875
 20
258.34031249999936
 10
516.0741796875
 20
258.62332031249935
 10
514.29
 20
258.71999999999935
 10
54.690000000000055
 20
258.71999999999935
 10
52.90582031250007
 20
258.62332031249935
 10
51.16031250000008
 20
258.34031249999936
 10
49.46402343750009
 20
257.8815234374993
 10
47.82750000000009
 20
257.2574999999993
 10
46.26128906250009
 20
256.47878906249935
 10
44.7759375000001
 20
255.55593749999932
 10
43.381992187500096
 20
254.4994921874993
 10
42.09000000000009
 20
253.3199999999993
 10
40.910507812500086
 20
252.0280078124993
 10
39.854062500000076
 20
250.63406249999932
 10
38.93121093750007
 20
249.14871093749932
 10
38.15250000000007
 20
247.5824999999993
 10
37.52847656250006
 20
245.9459765624993
 10
37.06968750000006
 20
244.2496874999993
 10
36.786679687500055
 20
242.50417968749935
 10
36.690000000000055
 20
240.71999999999935
 10
36.690000000000055
 20
29.519999999999527
 10
36.786679687500055
 20
27.5380664062495
 10
37.06968750000005
 20
25.64578124999946
 10
37.52847656250006
 20
23.84841796874946
 10
38.15250000000007
 20
22.151249999999436
 10
38.93121093750007
 20
20.559550781249442
 10
39.854062500000076
 20
19.078593749999442
 10
40.910507812500086
 20
17.71365234374943
 10
42.09000000000009
 20
16.46999999999946
 10
43.381992187500096
 20
15.352910156249465
 10
44.7759375000001
 20
14.36765624999947
 10
46.26128906250009
 20
13.519511718749527
 10
47.82750000000009
 20
12.813749999999516
 10
49.46402343750009
 20
12.255644531249516
 10
51.16031250000009
 20
11.85046874999955
 10
52.90582031250007
 20
11.603496093749527
 10
54.690000000000055
 20
11.519999999999527
 10
514.29
 20
11.519999999999527
 10
516.0741796875
 20
11.603496093749527
 10
517.8196875
 20
11.850468749999493
 10
519.5159765624999
 20
12.255644531249516
 10
521.1524999999999
 20
12.813749999999516
 10
522.7187109375
 20
13.51951171874947
 10
524.2040625
 20
14.367656249999499
 10
525.5980078124999
 20
15.352910156249465
 10
526.8899999999999
 20
16.46999999999946
 10
528.0694921874999
 20
17.71365234374943
 10
529.1259375
 20
19.078593749999413
 10
530.0487890625
 20
20.559550781249442
 10
530.8274999999999
 20
22.151249999999436
 10
531.4515234375
 20
23.84841796874946
 10
531.9103124999999
 20
25.64578124999946
 10
532.1933203125
 20
27.5380664062495
 10
532.29
 20
29.519999999999527
 10
532.29
 20
240.71999999999935
  0
ENDSEC
  0
SECTION
  2
OBJECTS
  0
DICTIONARY
  5
A
330
0
100
AcDbDictionary
281
1
  3
ACAD_COLOR
350
B
  3
ACAD_GROUP
350
C
  3
ACAD_LAYOUT
350
D
  3
ACAD_MATERIAL
350
E
  3
ACAD_MLEADERSTYLE
350
F
  3
ACAD_MLINESTYLE
350
10
  3
ACAD_PLOTSETTINGS
350
11
  3
ACAD_PLOTSTYLENAME
350
12
  3
ACAD_SCALELIST
350
14
  3
ACAD_TABLESTYLE
350
15
  3
ACAD_VISUALSTYLE
350
16
  3
EZDXF_META
350
2D
  0
DICTIONARY
  5
B
330
A
100
AcDbDictionary
281
1
  0
DICTIONARY
  5
C
330
A
100
AcDbDictionary
281
1
  0
DICTIONARY
  5
D
330
A
100
AcDbDictionary
281
1
  3
Model
350
1A
  3
Layout1
350
1E
  0
DICTIONARY
  5
E
330
A
100
AcDbDictionary
281
1
  3
ByBlock
350
1F
  3
ByLayer
350
20
  3
Global
350
21
  0
DICTIONARY
  5
F
330
A
100
AcDbDictionary
281
1
  3
Standard
350
2C
  0
DICTIONARY
  5
10
330
A
100
AcDbDictionary
281
1
  3
Standard
350
22
  0
DICTIONARY
  5
11
330
A
100
AcDbDictionary
281
1
  0
ACDBDICTIONARYWDFLT
  5
12
330
A
100
AcDbDictionary
281
1
  3
Normal
350
13
100
AcDbDictionaryWithDefault
340
13
  0
ACDBPLACEHOLDER
  5
13
330
12
  0
DICTIONARY
  5
14
330
A
100
AcDbDictionary
281
1
  0
DICTIONARY
  5
15
330
A
100
AcDbDictionary
281
1
  0
DICTIONARY
  5
16
330
A
100
AcDbDictionary
281
1
  0
LAYOUT
  5
1A
330
D
100
AcDbPlotSettings
  1

  4
A3
  6

 40
7.5
 41
20.0
 42
7.5
 43
20.0
 44
420.0
 45
297.0
 46
0.0
 47
0.0
 48
0.0
 49
0.0
140
0.0
141
0.0
142
1.0
143
1.0
 70
1024
 72
1
 73
0
 74
5
  7

 75
16
 76
0
 77
2
 78
300
147
1.0
148
0.0
149
0.0
100
AcDbLayout
  1
Model
 70
1
 71
0
 10
0.0
 20
0.0
 11
420.0
 21
297.0
 12
0.0
 22
0.0
 32
0.0
 14
1e+20
 24
1e+20
 34
1e+20
 15
-1e+20
 25
-1e+20
 35
-1e+20
146
0.0
 13
0.0
 23
0.0
 33
0.0
 16
1.0
 26
0.0
 36
0.0
 17
0.0
 27
1.0
 37
0.0
 76
1
330
17
  0
LAYOUT
  5
1E
330
D
100
AcDbPlotSettings
  1

  4
A3
  6

 40
7.5
 41
20.0
 42
7.5
 43
20.0
 44
420.0
 45
297.0
 46
0.0
 47
0.0
 48
0.0
 49
0.0
140
0.0
141
0.0
142
1.0
143
1.0
 70
0
 72
1
 73
0
 74
5
  7

 75
16
 76
0
 77
2
 78
300
147
1.0
148
0.0
149
0.0
100
AcDbLayout
  1
Layout1
 70
1
 71
1
 10
0.0
 20
0.0
 11
420.0
 21
297.0
 12
0.0
 22
0.0
 32
0.0
 14
1e+20
 24
1e+20
 34
1e+20
 15
-1e+20
 25
-1e+20
 35
-1e+20
146
0.0
 13
0.0
 23
0.0
 33
0.0
 16
1.0
 26
0.0
 36
0.0
 17
0.0
 27
1.0
 37
0.0
 76
1
330
1B
  0
MATERIAL
  5
1F
102
{ACAD_REACTORS
330
E
102
}
330
E
100
AcDbMaterial
  1
ByBlock
  2

 70
0
 40
1.0
 71
1
 41
1.0
 91
-1023410177
 42
1.0
 72
1
  3

 73
1
 74
1
 75
1
 44
0.5
 73
0
 45
1.0
 46
1.0
 77
1
  4

 78
1
 79
1
170
1
 48
1.0
171
1
  6

172
1
173
1
174
1
140
1.0
141
1.0
175
1
  7

176
1
177
1
178
1
143
1.0
179
1
  8

270
1
271
1
272
1
145
1.0
146
1.0
273
1
  9

274
1
275
1
276
1
 42
1.0
 72
1
  3

 73
1
 74
1
 75
1
 94
63
  0
MATERIAL
  5
20
102
{ACAD_REACTORS
330
E
102
}
330
E
100
AcDbMaterial
  1
ByLayer
  2

 70
0
 40
1.0
 71
1
 41
1.0
 91
-1023410177
 42
1.0
 72
1
  3

 73
1
 74
1
 75
1
 44
0.5
 73
0
 45
1.0
 46
1.0
 77
1
  4

 78
1
 79
1
170
1
 48
1.0
171
1
  6

172
1
173
1
174
1
140
1.0
141
1.0
175
1
  7

176
1
177
1
178
1
143
1.0
179
1
  8

270
1
271
1
272
1
145
1.0
146
1.0
273
1
  9

274
1
275
1
276
1
 42
1.0
 72
1
  3

 73
1
 74
1
 75
1
 94
63
  0
MATERIAL
  5
21
102
{ACAD_REACTORS
330
E
102
}
330
E
100
AcDbMaterial
  1
Global
  2

 70
0
 40
1.0
 71
1
 41
1.0
 91
-1023410177
 42
1.0
 72
1
  3

 73
1
 74
1
 75
1
 44
0.5
 73
0
 45
1.0
 46
1.0
 77
1
  4

 78
1
 79
1
170
1
 48
1.0
171
1
  6

172
1
173
1
174
1
140
1.0
141
1.0
175
1
  7

176
1
177
1
178
1
143
1.0
179
1
  8

270
1
271
1
272
1
145
1.0
146
1.0
273
1
  9

274
1
275
1
276
1
 42
1.0
 72
1
  3

 73
1
 74
1
 75
1
 94
63
  0
MLINESTYLE
  5
22
102
{ACAD_REACTORS
330
10
102
}
330
10
100
AcDbMlineStyle
  2
Standard
 70
0
  3

 62
256
 51
90.0
 52
90.0
 71
2
 49
0.5
 62
256
  6
BYLAYER
 49
-0.5
 62
256
  6
BYLAYER
  0
MLEADERSTYLE
  5
2C
102
{ACAD_REACTORS
330
F
102
}
330
F
100
AcDbMLeaderStyle
179
2
170
2
171
1
172
0
 90
2
 40
0.0
 41
0.0
173
1
 91
-1056964608
 92
-2
290
1
 42
2.0
291
1
 43
8.0
  3
Standard
 44
4.0
300

342
29
174
1
175
1
176
0
178
1
 93
-1056964608
 45
4.0
292
0
297
0
 46
4.0
 94
-1056964608
 47
1.0
 49
1.0
140
1.0
294
1
141
0.0
177
0
142
1.0
295
0
296
0
143
3.75
271
0
272
9
273
9
  0
DICTIONARY
  5
2D
330
A
100
AcDbDictionary
280
1
281
1
  3
CREATED_BY_EZDXF
350
2E
  3
WRITTEN_BY_EZDXF
350
61
  0
DICTIONARYVAR
  5
2E
330
2D
100
DictionaryVariables
280
0
  1
1.4.4 @ 2026-07-10T01:53:56.401736+00:00
  0
DICTIONARYVAR
  5
61
330
2D
100
DictionaryVariables
280
0
  1
1.4.4 @ 2026-07-10T01:53:56.409033+00:00
  0
ENDSEC
  0
EOF
