  0
SECTION
  2
HEADER
  9
$ACADVER
  1
AC1024
  9
$ACADMAINTVER
 70
6
  9
$DWGCODEPAGE
  3
ANSI_1252
  9
$LASTSAVEDBY
  1
ezdxf
  9
$INSBASE
 10
0.0
 20
0.0
 30
0.0
  9
$EXTMIN
 10
1e+20
 20
1e+20
 30
1e+20
  9
$EXTMAX
 10
-1e+20
 20
-1e+20
 30
-1e+20
  9
$LIMMIN
 10
0.0
 20
0.0
  9
$LIMMAX
 10
420.0
 20
297.0
  9
$ORTHOMODE
 70
0
  9
$REGENMODE
 70
1
  9
$FILLMODE
 70
1
  9
$QTEXTMODE
 70
0
  9
$MIRRTEXT
 70
1
  9
$LTSCALE
 40
1.0
  9
$ATTMODE
 70
1
  9
$TEXTSIZE
 40
2.5
  9
$TRACEWID
 40
1.0
  9
$TEXTSTYLE
  7
Standard
  9
$CLAYER
  8
0
  9
$CELTYPE
  6
ByLayer
  9
$CECOLOR
 62
256
  9
$CELTSCALE
 40
1.0
  9
$DISPSILH
 70
0
  9
$DIMSCALE
 40
1.0
  9
$DIMASZ
 40
2.5
  9
$DIMEXO
 40
0.625
  9
$DIMDLI
 40
3.75
  9
$DIMRND
 40
0.0
  9
$DIMDLE
 40
0.0
  9
$DIMEXE
 40
1.25
  9
$DIMTP
 40
0.0
  9
$DIMTM
 40
0.0
  9
$DIMTXT
 40
2.5
  9
$DIMCEN
 40
2.5
  9
$DIMTSZ
 40
0.0
  9
$DIMTOL
 70
0
  9
$DIMLIM
 70
0
  9
$DIMTIH
 70
0
  9
$DIMTOH
 70
0
  9
$DIMSE1
 70
0
  9
$DIMSE2
 70
0
  9
$DIMTAD
 70
1
  9
$DIMZIN
 70
8
  9
$DIMBLK
  1

  9
$DIMASO
 70
1
  9
$DIMSHO
 70
1
  9
$DIMPOST
  1

  9
$DIMAPOST
  1

  9
$DIMALT
 70
0
  9
$DIMALTD
 70
3
  9
$DIMALTF
 40
0.03937007874
  9
$DIMLFAC
 40
1.0
  9
$DIMTOFL
 70
1
  9
$DIMTVP
 40
0.0
  9
$DIMTIX
 70
0
  9
$DIMSOXD
 70
0
  9
$DIMSAH
 70
0
  9
$DIMBLK1
  1

  9
$DIMBLK2
  1

  9
$DIMSTYLE
  2
ISO-25
  9
$DIMCLRD
 70
0
  9
$DIMCLRE
 70
0
  9
$DIMCLRT
 70
0
  9
$DIMTFAC
 40
1.0
  9
$DIMGAP
 40
0.625
  9
$DIMJUST
 70
0
  9
$DIMSD1
 70
0
  9
$DIMSD2
 70
0
  9
$DIMTOLJ
 70
0
  9
$DIMTZIN
 70
8
  9
$DIMALTZ
 70
0
  9
$DIMALTTZ
 70
0
  9
$DIMUPT
 70
0
  9
$DIMDEC
 70
2
  9
$DIMTDEC
 70
2
  9
$DIMALTU
 70
2
  9
$DIMALTTD
 70
3
  9
$DIMTXSTY
  7
Standard
  9
$DIMAUNIT
 70
0
  9
$DIMADEC
 70
0
  9
$DIMALTRND
 40
0.0
  9
$DIMAZIN
 70
0
  9
$DIMDSEP
 70
44
  9
$DIMATFIT
 70
3
  9
$DIMFRAC
 70
0
  9
$DIMLDRBLK
  1

  9
$DIMLUNIT
 70
2
  9
$DIMLWD
 70
-2
  9
$DIMLWE
 70
-2
  9
$DIMTMOVE
 70
0
  9
$DIMFXL
 40
1.0
  9
$DIMFXLON
 70
0
  9
$DIMJOGANG
 40
0.785398163397
  9
$DIMTFILL
 70
0
  9
$DIMTFILLCLR
 70
0
  9
$DIMARCSYM
 70
0
  9
$DIMLTYPE
  6

  9
$DIMLTEX1
  6

  9
$DIMLTEX2
  6

  9
$DIMTXTDIRECTION
 70
0
  9
$LUNITS
 70
2
  9
$LUPREC
 70
4
  9
$SKETCHINC
 40
1.0
  9
$FILLETRAD
 40
10.0
  9
$AUNITS
 70
0
  9
$AUPREC
 70
2
  9
$MENU
  1
.
  9
$ELEVATION
 40
0.0
  9
$PELEVATION
 40
0.0
  9
$THICKNESS
 40
0.0
  9
$LIMCHECK
 70
0
  9
$CHAMFERA
 40
0.0
  9
$CHAMFERB
 40
0.0
  9
$CHAMFERC
 40
0.0
  9
$CHAMFERD
 40
0.0
  9
$SKPOLY
 70
0
  9
$TDCREATE
 40
2461232.4124537036
  9
$TDUCREATE
 40
2458532.153996898
  9
$TDUPDATE
 40
2461232.4124537036
  9
$TDUUPDATE
 40
2458532.1544311
  9
$TDINDWG
 40
0.0
  9
$TDUSRTIMER
 40
0.0
  9
$USRTIMER
 70
1
  9
$ANGBASE
 50
0.0
  9
$ANGDIR
 70
0
  9
$PDMODE
 70
0
  9
$PDSIZE
 40
0.0
  9
$PLINEWID
 40
0.0
  9
$SPLFRAME
 70
0
  9
$SPLINETYPE
 70
6
  9
$SPLINESEGS
 70
8
  9
$HANDSEED
  5
5F
  9
$SURFTAB1
 70
6
  9
$SURFTAB2
 70
6
  9
$SURFTYPE
 70
6
  9
$SURFU
 70
6
  9
$SURFV
 70
6
  9
$UCSBASE
  2

  9
$UCSNAME
  2

  9
$UCSORG
 10
0.0
 20
0.0
 30
0.0
  9
$UCSXDIR
 10
1.0
 20
0.0
 30
0.0
  9
$UCSYDIR
 10
0.0
 20
1.0
 30
0.0
  9
$UCSORTHOREF
  2

  9
$UCSORTHOVIEW
 70
0
  9
$UCSORGTOP
 10
0.0
 20
0.0
 30
0.0
  9
$UCSORGBOTTOM
 10
0.0
 20
0.0
 30
0.0
  9
$UCSORGLEFT
 10
0.0
 20
0.0
 30
0.0
  9
$UCSORGRIGHT
 10
0.0
 20
0.0
 30
0.0
  9
$UCSORGFRONT
 10
0.0
 20
0.0
 30
0.0
  9
$UCSORGBACK
 10
0.0
 20
0.0
 30
0.0
  9
$PUCSBASE
  2

  9
$PUCSNAME
  2

  9
$PUCSORG
 10
0.0
 20
0.0
 30
0.0
  9
$PUCSXDIR
 10
1.0
 20
0.0
 30
0.0
  9
$PUCSYDIR
 10
0.0
 20
1.0
 30
0.0
  9
$PUCSORTHOREF
  2

  9
$PUCSORTHOVIEW
 70
0
  9
$PUCSORGTOP
 10
0.0
 20
0.0
 30
0.0
  9
$PUCSORGBOTTOM
 10
0.0
 20
0.0
 30
0.0
  9
$PUCSORGLEFT
 10
0.0
 20
0.0
 30
0.0
  9
$PUCSORGRIGHT
 10
0.0
 20
0.0
 30
0.0
  9
$PUCSORGFRONT
 10
0.0
 20
0.0
 30
0.0
  9
$PUCSORGBACK
 10
0.0
 20
0.0
 30
0.0
  9
$USERI1
 70
0
  9
$USERI2
 70
0
  9
$USERI3
 70
0
  9
$USERI4
 70
0
  9
$USERI5
 70
0
  9
$USERR1
 40
0.0
  9
$USERR2
 40
0.0
  9
$USERR3
 40
0.0
  9
$USERR4
 40
0.0
  9
$USERR5
 40
0.0
  9
$WORLDVIEW
 70
1
  9
$SHADEDGE
 70
3
  9
$SHADEDIF
 70
70
  9
$TILEMODE
 70
1
  9
$MAXACTVP
 70
64
  9
$PINSBASE
 10
0.0
 20
0.0
 30
0.0
  9
$PLIMCHECK
 70
0
  9
$PEXTMIN
 10
1e+20
 20
1e+20
 30
1e+20
  9
$PEXTMAX
 10
-1e+20
 20
-1e+20
 30
-1e+20
  9
$PLIMMIN
 10
0.0
 20
0.0
  9
$PLIMMAX
 10
420.0
 20
297.0
  9
$UNITMODE
 70
0
  9
$VISRETAIN
 70
1
  9
$PLINEGEN
 70
0
  9
$PSLTSCALE
 70
1
  9
$TREEDEPTH
 70
3020
  9
$CMLSTYLE
  2
Standard
  9
$CMLJUST
 70
0
  9
$CMLSCALE
 40
20.0
  9
$PROXYGRAPHICS
 70
1
  9
$MEASUREMENT
 70
1
  9
$CELWEIGHT
370
-1
  9
$ENDCAPS
280
0
  9
$JOINSTYLE
280
0
  9
$LWDISPLAY
290
0
  9
$INSUNITS
 70
6
  9
$HYPERLINKBASE
  1

  9
$STYLESHEET
  1

  9
$XEDIT
290
1
  9
$CEPSNTYPE
380
0
  9
$PSTYLEMODE
290
1
  9
$FINGERPRINTGUID
  2
{60BB4766-946B-4580-8D7D-781545A75732}
  9
$VERSIONGUID
  2
{959BA557-6171-4023-9B14-9B2A73D4F800}
  9
$EXTNAMES
290
1
  9
$PSVPSCALE
 40
0.0
  9
$OLESTARTUP
290
0
  9
$SORTENTS
280
127
  9
$INDEXCTL
280
0
  9
$HIDETEXT
280
1
  9
$XCLIPFRAME
280
1
  9
$HALOGAP
280
0
  9
$OBSCOLOR
 70
257
  9
$OBSLTYPE
280
0
  9
$INTERSECTIONDISPLAY
280
0
  9
$INTERSECTIONCOLOR
 70
257
  9
$DIMASSOC
280
2
  9
$PROJECTNAME
  1

  9
$CAMERADISPLAY
290
0
  9
$LENSLENGTH
 40
50.0
  9
$CAMERAHEIGHT
 40
0.0
  9
$STEPSPERSEC
 40
24.0
  9
$STEPSIZE
 40
100.0
  9
$3DDWFPREC
 40
2.0
  9
$PSOLWIDTH
 40
0.005
  9
$PSOLHEIGHT
 40
0.08
  9
$LOFTANG1
 40
1.570796326795
  9
$LOFTANG2
 40
1.570796326795
  9
$LOFTMAG1
 40
0.0
  9
$LOFTMAG2
 40
0.0
  9
$LOFTPARAM
 70
7
  9
$LOFTNORMALS
280
1
  9
$LATITUDE
 40
37.795
  9
$LONGITUDE
 40
-122.394
  9
$NORTHDIRECTION
 40
0.0
  9
$TIMEZONE
 70
-8000
  9
$LIGHTGLYPHDISPLAY
280
1
  9
$TILEMODELIGHTSYNCH
280
1
  9
$CMATERIAL
347
20
  9
$SOLIDHIST
280
0
  9
$SHOWHIST
280
1
  9
$DWFFRAME
280
2
  9
$DGNFRAME
280
2
  9
$REALWORLDSCALE
290
1
  9
$INTERFERECOLOR
 62
256
  9
$CSHADOW
280
0
  9
$SHADOWPLANELOCATION
 40
0.0
  0
ENDSEC
  0
SECTION
  2
CLASSES
  0
CLASS
  1
ACDBDICTIONARYWDFLT
  2
AcDbDictionaryWithDefault
  3
ObjectDBX Classes
 90
0
 91
0
280
0
281
0
  0
CLASS
  1
SUN
  2
AcDbSun
  3
SCENEOE
 90
1153
 91
0
280
0
281
0
  0
CLASS
  1
VISUALSTYLE
  2
AcDbVisualStyle
  3
ObjectDBX Classes
 90
4095
 91
0
280
0
281
0
  0
CLASS
  1
MATERIAL
  2
AcDbMaterial
  3
ObjectDBX Classes
 90
1153
 91
0
280
0
281
0
  0
CLASS
  1
SCALE
  2
AcDbScale
  3
ObjectDBX Classes
 90
1153
 91
0
280
0
281
0
  0
CLASS
  1
TABLESTYLE
  2
AcDbTableStyle
  3
ObjectDBX Classes
 90
4095
 91
0
280
0
281
0
  0
CLASS
  1
MLEADERSTYLE
  2
AcDbMLeaderStyle
  3
ACDB_MLEADERSTYLE_CLASS
 90
4095
 91
0
280
0
281
0
  0
CLASS
  1
DICTIONARYVAR
  2
AcDbDictionaryVar
  3
ObjectDBX Classes
 90
0
 91
0
280
0
281
0
  0
CLASS
  1
CELLSTYLEMAP
  2
AcDbCellStyleMap
  3
ObjectDBX Classes
 90
1152
 91
0
280
0
281
0
  0
CLASS
  1
MENTALRAYRENDERSETTINGS
  2
AcDbMentalRayRenderSettings
  3
SCENEOE
 90
1024
 91
0
280
0
281
0
  0
CLASS
  1
ACDBDETAILVIEWSTYLE
  2
AcDbDetailViewStyle
  3
ObjectDBX Classes
 90
1025
 91
0
280
0
281
0
  0
CLASS
  1
ACDBSECTIONVIEWSTYLE
  2
AcDbSectionViewStyle
  3
ObjectDBX Classes
 90
1025
 91
0
280
0
281
0
  0
CLASS
  1
RASTERVARIABLES
  2
AcDbRasterVariables
  3
ISM
 90
0
 91
0
280
0
281
0
  0
CLASS
  1
LAYOUT
  2
AcDbLayout
  3
ObjectDBX Classes
 90
0
 91
0
280
0
281
0
  0
CLASS
  1
ACDBPLACEHOLDER
  2
AcDbPlaceHolder
  3
ObjectDBX Classes
 90
0
 91
0
280
0
281
0
  0
ENDSEC
  0
SECTION
  2
TABLES
  0
TABLE
  2
VPORT
  5
8
330
0
100
AcDbSymbolTable
 70
1
  0
VPORT
  5
23
330
8
100
AcDbSymbolTableRecord
100
AcDbViewportTableRecord
  2
*Active
 70
0
 10
0.0
 20
0.0
 11
1.0
 21
1.0
 12
0.0
 22
0.0
 13
0.0
 23
0.0
 14
0.5
 24
0.5
 15
0.5
 25
0.5
 16
0.0
 26
0.0
 36
1.0
 17
0.0
 27
0.0
 37
0.0
 40
1000.0
 41
1.34
 42
50.0
 43
0.0
 44
0.0
 50
0.0
 51
0.0
 71
0
 72
1000
 73
1
 74
3
 75
0
 76
0
 77
0
 78
0
281
0
 65
0
146
0.0
  0
ENDTAB
  0
TABLE
  2
LTYPE
  5
2
330
0
100
AcDbSymbolTable
 70
3
  0
LTYPE
  5
24
330
2
100
AcDbSymbolTableRecord
100
AcDbLinetypeTableRecord
  2
ByBlock
 70
0
  3

 72
65
 73
0
 40
0.0
  0
LTYPE
  5
25
330
2
100
AcDbSymbolTableRecord
100
AcDbLinetypeTableRecord
  2
ByLayer
 70
0
  3

 72
65
 73
0
 40
0.0
  0
LTYPE
  5
26
330
2
100
AcDbSymbolTableRecord
100
AcDbLinetypeTableRecord
  2
Continuous
 70
0
  3

 72
65
 73
0
 40
0.0
  0
ENDTAB
  0
TABLE
  2
LAYER
  5
1
330
0
100
AcDbSymbolTable
 70
5
  0
LAYER
  5
27
330
1
100
AcDbSymbolTableRecord
100
AcDbLayerTableRecord
  2
0
 70
0
 62
7
  6
Continuous
370
-3
390
13
347
21
  0
LAYER
  5
28
330
1
100
AcDbSymbolTableRecord
100
AcDbLayerTableRecord
  2
Defpoints
 70
0
 62
7
  6
Continuous
290
0
370
-3
390
13
347
21
  0
LAYER
  5
2F
330
1
100
AcDbSymbolTableRecord
100
AcDbLayerTableRecord
  2
FILL_WHITE_FFFFFF
 70
0
 62
7
420
16777215
  6
Continuous
370
-3
390
13
347
21
  0
LAYER
  5
32
330
1
100
AcDbSymbolTableRecord
100
AcDbLayerTableRecord
  2
FILL_BLUE_0000FF
 70
0
 62
7
420
255
  6
Continuous
370
-3
390
13
347
21
  0
LAYER
  5
5A
330
1
100
AcDbSymbolTableRecord
100
AcDbLayerTableRecord
  2
STROKE_BLUE_0000FF
 70
0
 62
7
420
255
  6
Continuous
370
-3
390
13
347
21
  0
ENDTAB
  0
TABLE
  2
STYLE
  5
5
330
0
100
AcDbSymbolTable
 70
1
  0
STYLE
  5
29
330
5
100
AcDbSymbolTableRecord
100
AcDbTextStyleTableRecord
  2
Standard
 70
0
 40
0.0
 41
1.0
 50
0.0
 71
0
 42
2.5
  3
txt
  4

  0
ENDTAB
  0
TABLE
  2
VIEW
  5
7
330
0
100
AcDbSymbolTable
 70
0
  0
ENDTAB
  0
TABLE
  2
UCS
  5
6
330
0
100
AcDbSymbolTable
 70
0
  0
ENDTAB
  0
TABLE
  2
APPID
  5
3
330
0
100
AcDbSymbolTable
 70
3
  0
APPID
  5
2A
330
3
100
AcDbSymbolTableRecord
100
AcDbRegAppTableRecord
  2
ACAD
 70
0
  0
APPID
  5
5C
330
3
100
AcDbSymbolTableRecord
100
AcDbRegAppTableRecord
  2
HATCHBACKGROUNDCOLOR
 70
0
  0
APPID
  5
5D
330
3
100
AcDbSymbolTableRecord
100
AcDbRegAppTableRecord
  2
EZDXF
 70
0
  0
ENDTAB
  0
TABLE
  2
DIMSTYLE
  5
4
330
0
100
AcDbSymbolTable
 70
1
100
AcDbDimStyleTable
  0
DIMSTYLE
105
2B
330
4
100
AcDbSymbolTableRecord
100
AcDbDimStyleTableRecord
  2
Standard
 70
0
 40
1.0
 41
2.5
 42
0.625
 43
3.75
 44
1.25
 45
0.0
 46
0.0
 47
0.0
 48
0.0
 49
2.5
140
2.5
141
2.5
142
0.0
143
0.03937007874
144
1.0
145
0.0
146
1.0
147
0.625
148
0.0
 69
0
 70
0
 71
0
 72
0
 73
0
 74
0
 75
0
 76
0
 77
1
 78
8
 79
3
170
0
171
3
172
1
173
0
174
0
175
0
176
0
177
0
178
0
179
2
271
2
272
2
273
2
274
3
275
0
276
0
277
2
278
44
279
0
280
0
281
0
282
0
283
0
284
8
285
0
286
0
288
0
289
3
290
0
371
-2
372
-2
  0
ENDTAB
  0
TABLE
  2
BLOCK_RECORD
  5
9
330
0
100
AcDbSymbolTable
 70
2
  0
BLOCK_RECORD
  5
17
330
9
100
AcDbSymbolTableRecord
100
AcDbBlockTableRecord
  2
*Model_Space
340
1A
 70
0
280
1
281
0
  0
BLOCK_RECORD
  5
1B
330
9
100
AcDbSymbolTableRecord
100
AcDbBlockTableRecord
  2
*Paper_Space
340
1E
 70
0
280
1
281
0
  0
ENDTAB
  0
ENDSEC
  0
SECTION
  2
BLOCKS
  0
BLOCK
  5
18
330
17
100
AcDbEntity
  8
0
100
AcDbBlockBegin
  2
*Model_Space
 70
0
 10
0.0
 20
0.0
 30
0.0
  3
*Model_Space
  1

  0
ENDBLK
  5
19
330
17
100
AcDbEntity
  8
0
100
AcDbBlockEnd
  0
BLOCK
  5
1C
330
1B
100
AcDbEntity
  8
0
100
AcDbBlockBegin
  2
*Paper_Space
 70
0
 10
0.0
 20
0.0
 30
0.0
  3
*Paper_Space
  1

  0
ENDBLK
  5
1D
330
1B
100
AcDbEntity
  8
0
100
AcDbBlockEnd
  0
ENDSEC
  0
SECTION
  2
ENTITIES
  0
HATCH
  5
30
330
17
100
AcDbEntity
  8
FILL_WHITE_FFFFFF
 62
7
420
16777215
100
AcDbHatch
 10
0.0
 20
0.0
 30
0.0
210
0.0
220
0.0
230
1.0
  2
SOLID
 70
1
 71
0
 91
1
 92
3
 72
0
 73
1
 93
69
 10
88.35
 20
8.51
 10
86.55
 20
8.83
 10
84.75
 20
9.35
 10
82.95
 20
10.05
 10
81.15
 20
10.92
 10
79.35
 20
11.94
 10
77.55
 20
13.11
 10
75.75
 20
14.4
 10
74.46
 20
16.2
 10
73.29
 20
18.0
 10
72.27
 20
19.8
 10
71.4
 20
21.6
 10
70.7
 20
23.4
 10
70.18
 20
25.2
 10
69.86
 20
27.0
 10
69.75
 20
28.8
 10
69.75
 20
242.4
 10
69.86
 20
244.2
 10
70.18
 20
246.0
 10
70.7
 20
247.8
 10
71.4
 20
249.6
 10
72.27
 20
251.4
 10
73.29
 20
253.2
 10
74.46
 20
255.0
 10
75.75
 20
256.8
 10
77.55
 20
258.09
 10
79.35
 20
259.26
 10
81.15
 20
260.28
 10
82.95
 20
261.15
 10
84.75
 20
261.85
 10
86.55
 20
262.37
 10
88.35
 20
262.69
 10
90.15
 20
262.8
 10
477.75
 20
262.8
 10
479.55
 20
262.69
 10
481.35
 20
262.37
 10
483.15
 20
261.85
 10
484.95
 20
261.15
 10
486.75
 20
260.28
 10
488.55
 20
259.26
 10
490.35
 20
258.09
 10
492.15
 20
256.8
 10
493.44
 20
255.0
 10
494.61
 20
253.2
 10
495.63
 20
251.4
 10
496.5
 20
249.6
 10
497.2
 20
247.8
 10
497.72
 20
246.0
 10
498.04
 20
244.2
 10
498.15
 20
242.4
 10
498.15
 20
28.8
 10
498.04
 20
27.0
 10
497.72
 20
25.2
 10
497.2
 20
23.4
 10
496.5
 20
21.6
 10
495.63
 20
19.8
 10
494.61
 20
18.0
 10
493.44
 20
16.2
 10
492.15
 20
14.4
 10
490.35
 20
13.11
 10
488.55
 20
11.94
 10
486.75
 20
10.92
 10
484.95
 20
10.05
 10
483.15
 20
9.35
 10
481.35
 20
8.83
 10
479.55
 20
8.51
 10
477.75
 20
8.4
 10
90.15
 20
8.4
 10
88.35
 20
8.51
 97
0
 75
1
 76
1
 98
0
  0
LWPOLYLINE
  5
31
330
17
100
AcDbEntity
  8
FILL_WHITE_FFFFFF
370
0
420
16777215
100
AcDbPolyline
 90
68
 70
1
 10
88.35
 20
8.51
 10
86.55
 20
8.83
 10
84.75
 20
9.35
 10
82.95
 20
10.05
 10
81.15
 20
10.92
 10
79.35
 20
11.94
 10
77.55
 20
13.11
 10
75.75
 20
14.4
 10
74.46
 20
16.2
 10
73.29
 20
18.0
 10
72.27
 20
19.8
 10
71.4
 20
21.6
 10
70.7
 20
23.4
 10
70.18
 20
25.2
 10
69.86
 20
27.0
 10
69.75
 20
28.8
 10
69.75
 20
242.4
 10
69.86
 20
244.2
 10
70.18
 20
246.0
 10
70.7
 20
247.8
 10
71.4
 20
249.6
 10
72.27
 20
251.4
 10
73.29
 20
253.2
 10
74.46
 20
255.0
 10
75.75
 20
256.8
 10
77.55
 20
258.09
 10
79.35
 20
259.26
 10
81.15
 20
260.28
 10
82.95
 20
261.15
 10
84.75
 20
261.85
 10
86.55
 20
262.37
 10
88.35
 20
262.69
 10
90.15
 20
262.8
 10
477.75
 20
262.8
 10
479.55
 20
262.69
 10
481.35
 20
262.37
 10
483.15
 20
261.85
 10
484.95
 20
261.15
 10
486.75
 20
260.28
 10
488.55
 20
259.26
 10
490.35
 20
258.09
 10
492.15
 20
256.8
 10
493.44
 20
255.0
 10
494.61
 20
253.2
 10
495.63
 20
251.4
 10
496.5
 20
249.6
 10
497.2
 20
247.8
 10
497.72
 20
246.0
 10
498.04
 20
244.2
 10
498.15
 20
242.4
 10
498.15
 20
28.8
 10
498.04
 20
27.0
 10
497.72
 20
25.2
 10
497.2
 20
23.4
 10
496.5
 20
21.6
 10
495.63
 20
19.8
 10
494.61
 20
18.0
 10
493.44
 20
16.2
 10
492.15
 20
14.4
 10
490.35
 20
13.11
 10
488.55
 20
11.94
 10
486.75
 20
10.92
 10
484.95
 20
10.05
 10
483.15
 20
9.35
 10
481.35
 20
8.83
 10
479.55
 20
8.51
 10
477.75
 20
8.4
 10
90.15
 20
8.4
  0
HATCH
  5
33
330
17
100
AcDbEntity
  8
FILL_BLUE_0000FF
 62
7
420
255
100
AcDbHatch
 10
0.0
 20
0.0
 30
0.0
210
0.0
220
0.0
230
1.0
  2
SOLID
 70
1
 71
0
 91
1
 92
3
 72
0
 73
1
 93
48
 10
477.75
 20
252.0
 10
479.55
 20
251.96
 10
481.35
 20
251.7
 10
482.25
 20
251.41
 10
483.15
 20
250.99
 10
484.05
 20
250.39
 10
484.95
 20
249.6
 10
485.83
 20
247.8
 10
486.6
 20
246.0
 10
487.14
 20
244.2
 10
487.35
 20
242.4
 10
487.35
 20
28.8
 10
487.14
 20
27.0
 10
486.6
 20
25.2
 10
485.83
 20
23.4
 10
484.95
 20
21.6
 10
484.05
 20
20.81
 10
483.15
 20
20.21
 10
482.25
 20
19.79
 10
481.35
 20
19.5
 10
479.55
 20
19.24
 10
477.75
 20
19.2
 10
90.15
 20
19.2
 10
88.35
 20
19.24
 10
86.55
 20
19.5
 10
85.65
 20
19.79
 10
84.75
 20
20.21
 10
83.85
 20
20.81
 10
82.95
 20
21.6
 10
82.16
 20
22.5
 10
81.56
 20
23.4
 10
81.14
 20
24.3
 10
80.85
 20
25.2
 10
80.59
 20
27.0
 10
80.55
 20
28.8
 10
80.55
 20
242.4
 10
80.55
 20
246.0
 10
81.26
 20
246.9
 10
81.75
 20
247.8
 10
82.24
 20
248.7
 10
82.95
 20
249.6
 10
83.85
 20
250.39
 10
84.75
 20
250.99
 10
85.65
 20
251.41
 10
86.55
 20
251.7
 10
88.35
 20
251.96
 10
90.15
 20
252.0
 10
477.75
 20
252.0
 97
0
 75
1
 76
1
 98
0
  0
LWPOLYLINE
  5
34
330
17
100
AcDbEntity
  8
FILL_BLUE_0000FF
370
0
420
255
100
AcDbPolyline
 90
47
 70
1
 10
477.75
 20
252.0
 10
479.55
 20
251.96
 10
481.35
 20
251.7
 10
482.25
 20
251.41
 10
483.15
 20
250.99
 10
484.05
 20
250.39
 10
484.95
 20
249.6
 10
485.83
 20
247.8
 10
486.6
 20
246.0
 10
487.14
 20
244.2
 10
487.35
 20
242.4
 10
487.35
 20
28.8
 10
487.14
 20
27.0
 10
486.6
 20
25.2
 10
485.83
 20
23.4
 10
484.95
 20
21.6
 10
484.05
 20
20.81
 10
483.15
 20
20.21
 10
482.25
 20
19.79
 10
481.35
 20
19.5
 10
479.55
 20
19.24
 10
477.75
 20
19.2
 10
90.15
 20
19.2
 10
88.35
 20
19.24
 10
86.55
 20
19.5
 10
85.65
 20
19.79
 10
84.75
 20
20.21
 10
83.85
 20
20.81
 10
82.95
 20
21.6
 10
82.16
 20
22.5
 10
81.56
 20
23.4
 10
81.14
 20
24.3
 10
80.85
 20
25.2
 10
80.59
 20
27.0
 10
80.55
 20
28.8
 10
80.55
 20
242.4
 10
80.55
 20
246.0
 10
81.26
 20
246.9
 10
81.75
 20
247.8
 10
82.24
 20
248.7
 10
82.95
 20
249.6
 10
83.85
 20
250.39
 10
84.75
 20
250.99
 10
85.65
 20
251.41
 10
86.55
 20
251.7
 10
88.35
 20
251.96
 10
90.15
 20
252.0
  0
HATCH
  5
35
330
17
100
AcDbEntity
  8
FILL_WHITE_FFFFFF
 62
7
420
16777215
100
AcDbHatch
 10
0.0
 20
0.0
 30
0.0
210
0.0
220
0.0
230
1.0
  2
SOLID
 70
1
 71
0
 91
1
 92
3
 72
0
 73
1
 93
10
 10
126.15
 20
202.8
 10
152.55
 20
175.2
 10
152.55
 20
148.8
 10
134.55
 20
166.8
 10
134.55
 20
68.4
 10
116.55
 20
68.4
 10
116.55
 20
166.8
 10
98.55
 20
148.8
 10
98.55
 20
175.2
 10
126.15
 20
202.8
 97
0
 75
1
 76
1
 98
0
  0
LWPOLYLINE
  5
36
330
17
100
AcDbEntity
  8
FILL_WHITE_FFFFFF
370
0
420
16777215
100
AcDbPolyline
 90
9
 70
1
 10
126.15
 20
202.8
 10
152.55
 20
175.2
 10
152.55
 20
148.8
 10
134.55
 20
166.8
 10
134.55
 20
68.4
 10
116.55
 20
68.4
 10
116.55
 20
166.8
 10
98.55
 20
148.8
 10
98.55
 20
175.2
  0
HATCH
  5
37
330
17
100
AcDbEntity
  8
FILL_WHITE_FFFFFF
 62
7
420
16777215
100
AcDbHatch
 10
0.0
 20
0.0
 30
0.0
210
0.0
220
0.0
230
1.0
  2
SOLID
 70
1
 71
0
 91
1
 92
3
 72
0
 73
1
 93
5
 10
396.15
 20
242.4
 10
396.15
 20
28.8
 10
386.55
 20
28.8
 10
386.55
 20
242.4
 10
396.15
 20
242.4
 97
0
 75
1
 76
1
 98
0
  0
LWPOLYLINE
  5
38
330
17
100
AcDbEntity
  8
FILL_WHITE_FFFFFF
370
0
420
16777215
100
AcDbPolyline
 90
4
 70
1
 10
396.15
 20
242.4
 10
396.15
 20
28.8
 10
386.55
 20
28.8
 10
386.55
 20
242.4
  0
HATCH
  5
39
330
17
100
AcDbEntity
  8
FILL_WHITE_FFFFFF
 62
7
420
16777215
100
AcDbHatch
 10
0.0
 20
0.0
 30
0.0
210
0.0
220
0.0
230
1.0
  2
SOLID
 70
1
 71
0
 91
14
 92
3
 72
0
 73
1
 93
79
 10
243.75
 20
60.0
 10
241.78
 20
59.79
 10
239.7
 20
59.25
 10
237.84
 20
58.48
 10
237.11
 20
58.05
 10
236.55
 20
57.6
 10
234.97
 20
55.8
 10
233.85
 20
54.0
 10
233.46
 20
53.1
 10
233.17
 20
52.2
 10
233.01
 20
51.3
 10
232.95
 20
50.4
 10
232.95
 20
48.0
 10
207.75
 20
48.0
 10
206.85
 20
48.02
 10
205.95
 20
48.15
 10
205.05
 20
48.51
 10
204.15
 20
49.2
 10
203.46
 20
50.08
 10
203.1
 20
50.85
 10
202.95
 20
51.6
 10
202.95
 20
61.2
 10
202.95
 20
63.6
 10
206.55
 20
74.4
 10
210.15
 20
106.8
 10
210.17
 20
107.51
 10
210.3
 20
108.0
 10
210.66
 20
108.49
 10
211.35
 20
109.2
 10
212.06
 20
109.89
 10
212.55
 20
110.25
 10
213.04
 20
110.38
 10
213.75
 20
110.4
 10
339.75
 20
110.4
 10
340.86
 20
110.19
 10
342.3
 20
109.65
 10
345.75
 20
108.0
 10
346.44
 20
106.39
 10
346.8
 20
105.0
 10
346.93
 20
103.61
 10
346.95
 20
102.0
 10
346.95
 20
54.0
 10
318.15
 20
48.0
 10
310.95
 20
48.0
 10
310.95
 20
50.4
 10
310.91
 20
52.2
 10
310.65
 20
54.0
 10
310.36
 20
54.9
 10
309.94
 20
55.8
 10
309.34
 20
56.7
 10
308.55
 20
57.6
 10
306.75
 20
58.48
 10
304.95
 20
59.25
 10
303.15
 20
59.79
 10
301.35
 20
60.0
 10
299.55
 20
59.79
 10
297.75
 20
59.25
 10
295.95
 20
58.48
 10
294.15
 20
57.6
 10
293.44
 20
56.7
 10
292.95
 20
55.8
 10
292.46
 20
54.9
 10
291.75
 20
54.0
 10
291.75
 20
50.4
 10
291.75
 20
48.0
 10
253.35
 20
48.0
 10
253.35
 20
50.4
 10
253.33
 20
51.3
 10
253.2
 20
52.2
 10
252.84
 20
53.1
 10
252.15
 20
54.0
 10
251.96
 20
54.9
 10
251.55
 20
55.8
 10
251.14
 20
56.7
 10
250.95
 20
57.6
 10
249.15
 20
58.48
 10
247.35
 20
59.25
 10
245.55
 20
59.79
 10
243.75
 20
60.0
 97
0
 92
18
 72
0
 73
1
 93
5
 10
343.35
 20
69.6
 10
343.35
 20
81.6
 10
322.95
 20
81.6
 10
322.95
 20
69.6
 10
343.35
 20
69.6
 97
0
 92
18
 72
0
 73
1
 93
5
 10
301.35
 20
69.6
 10
319.35
 20
69.6
 10
319.35
 20
81.6
 10
301.35
 20
81.6
 10
301.35
 20
69.6
 97
0
 92
18
 72
0
 73
1
 93
5
 10
279.75
 20
81.6
 10
279.75
 20
69.6
 10
297.75
 20
69.6
 10
297.75
 20
81.6
 10
279.75
 20
81.6
 97
0
 92
18
 72
0
 73
1
 93
5
 10
274.95
 20
81.6
 10
256.95
 20
81.6
 10
256.95
 20
69.6
 10
274.95
 20
69.6
 10
274.95
 20
81.6
 97
0
 92
18
 72
0
 73
1
 93
5
 10
253.35
 20
81.6
 10
235.35
 20
81.6
 10
235.35
 20
69.6
 10
253.35
 20
69.6
 10
253.35
 20
81.6
 97
0
 92
18
 72
0
 73
1
 93
5
 10
231.75
 20
51.6
 10
231.75
 20
81.6
 10
219.75
 20
81.6
 10
219.75
 20
51.6
 10
231.75
 20
51.6
 97
0
 92
18
 72
0
 73
1
 93
5
 10
208.95
 20
72.0
 10
214.95
 20
72.0
 10
214.95
 20
81.6
 10
210.15
 20
81.6
 10
208.95
 20
72.0
 97
0
 92
18
 72
0
 73
1
 93
5
 10
213.75
 20
105.6
 10
212.55
 20
93.6
 10
231.75
 20
93.6
 10
231.75
 20
105.6
 10
213.75
 20
105.6
 97
0
 92
18
 72
0
 73
1
 93
5
 10
253.35
 20
105.6
 10
235.35
 20
105.6
 10
235.35
 20
93.6
 10
253.35
 20
93.6
 10
253.35
 20
105.6
 97
0
 92
18
 72
0
 73
1
 93
5
 10
274.95
 20
93.6
 10
274.95
 20
105.6
 10
256.95
 20
105.6
 10
256.95
 20
93.6
 10
274.95
 20
93.6
 97
0
 92
18
 72
0
 73
1
 93
5
 10
279.75
 20
93.6
 10
297.75
 20
93.6
 10
297.75
 20
105.6
 10
279.75
 20
105.6
 10
279.75
 20
93.6
 97
0
 92
18
 72
0
 73
1
 93
5
 10
301.35
 20
93.6
 10
319.35
 20
93.6
 10
319.35
 20
105.6
 10
301.35
 20
105.6
 10
301.35
 20
93.6
 97
0
 92
18
 72
0
 73
1
 93
14
 10
343.35
 20
102.0
 10
343.33
 20
102.88
 10
343.2
 20
103.65
 10
342.84
 20
104.19
 10
342.55
 20
104.35
 10
342.15
 20
104.4
 10
341.44
 20
105.09
 10
340.95
 20
105.45
 10
340.46
 20
105.58
 10
339.75
 20
105.6
 10
322.95
 20
105.6
 10
322.95
 20
93.6
 10
343.35
 20
93.6
 10
343.35
 20
102.0
 97
0
 75
1
 76
1
 98
0
  0
LWPOLYLINE
  5
3A
330
17
100
AcDbEntity
  8
FILL_WHITE_FFFFFF
370
0
420
16777215
100
AcDbPolyline
 90
78
 70
1
 10
243.75
 20
60.0
 10
241.78
 20
59.79
 10
239.7
 20
59.25
 10
237.84
 20
58.48
 10
237.11
 20
58.05
 10
236.55
 20
57.6
 10
234.97
 20
55.8
 10
233.85
 20
54.0
 10
233.46
 20
53.1
 10
233.17
 20
52.2
 10
233.01
 20
51.3
 10
232.95
 20
50.4
 10
232.95
 20
48.0
 10
207.75
 20
48.0
 10
206.85
 20
48.02
 10
205.95
 20
48.15
 10
205.05
 20
48.51
 10
204.15
 20
49.2
 10
203.46
 20
50.08
 10
203.1
 20
50.85
 10
202.95
 20
51.6
 10
202.95
 20
61.2
 10
202.95
 20
63.6
 10
206.55
 20
74.4
 10
210.15
 20
106.8
 10
210.17
 20
107.51
 10
210.3
 20
108.0
 10
210.66
 20
108.49
 10
211.35
 20
109.2
 10
212.06
 20
109.89
 10
212.55
 20
110.25
 10
213.04
 20
110.38
 10
213.75
 20
110.4
 10
339.75
 20
110.4
 10
340.86
 20
110.19
 10
342.3
 20
109.65
 10
345.75
 20
108.0
 10
346.44
 20
106.39
 10
346.8
 20
105.0
 10
346.93
 20
103.61
 10
346.95
 20
102.0
 10
346.95
 20
54.0
 10
318.15
 20
48.0
 10
310.95
 20
48.0
 10
310.95
 20
50.4
 10
310.91
 20
52.2
 10
310.65
 20
54.0
 10
310.36
 20
54.9
 10
309.94
 20
55.8
 10
309.34
 20
56.7
 10
308.55
 20
57.6
 10
306.75
 20
58.48
 10
304.95
 20
59.25
 10
303.15
 20
59.79
 10
301.35
 20
60.0
 10
299.55
 20
59.79
 10
297.75
 20
59.25
 10
295.95
 20
58.48
 10
294.15
 20
57.6
 10
293.44
 20
56.7
 10
292.95
 20
55.8
 10
292.46
 20
54.9
 10
291.75
 20
54.0
 10
291.75
 20
50.4
 10
291.75
 20
48.0
 10
253.35
 20
48.0
 10
253.35
 20
50.4
 10
253.33
 20
51.3
 10
253.2
 20
52.2
 10
252.84
 20
53.1
 10
252.15
 20
54.0
 10
251.96
 20
54.9
 10
251.55
 20
55.8
 10
251.14
 20
56.7
 10
250.95
 20
57.6
 10
249.15
 20
58.48
 10
247.35
 20
59.25
 10
245.55
 20
59.79
  0
LWPOLYLINE
  5
3B
330
17
100
AcDbEntity
  8
FILL_WHITE_FFFFFF
370
0
420
16777215
100
AcDbPolyline
 90
4
 70
1
 10
343.35
 20
69.6
 10
343.35
 20
81.6
 10
322.95
 20
81.6
 10
322.95
 20
69.6
  0
LWPOLYLINE
  5
3C
330
17
100
AcDbEntity
  8
FILL_WHITE_FFFFFF
370
0
420
16777215
100
AcDbPolyline
 90
4
 70
1
 10
301.35
 20
69.6
 10
319.35
 20
69.6
 10
319.35
 20
81.6
 10
301.35
 20
81.6
  0
LWPOLYLINE
  5
3D
330
17
100
AcDbEntity
  8
FILL_WHITE_FFFFFF
370
0
420
16777215
100
AcDbPolyline
 90
4
 70
1
 10
279.75
 20
81.6
 10
279.75
 20
69.6
 10
297.75
 20
69.6
 10
297.75
 20
81.6
  0
LWPOLYLINE
  5
3E
330
17
100
AcDbEntity
  8
FILL_WHITE_FFFFFF
370
0
420
16777215
100
AcDbPolyline
 90
4
 70
1
 10
274.95
 20
81.6
 10
256.95
 20
81.6
 10
256.95
 20
69.6
 10
274.95
 20
69.6
  0
LWPOLYLINE
  5
3F
330
17
100
AcDbEntity
  8
FILL_WHITE_FFFFFF
370
0
420
16777215
100
AcDbPolyline
 90
4
 70
1
 10
253.35
 20
81.6
 10
235.35
 20
81.6
 10
235.35
 20
69.6
 10
253.35
 20
69.6
  0
LWPOLYLINE
  5
40
330
17
100
AcDbEntity
  8
FILL_WHITE_FFFFFF
370
0
420
16777215
100
AcDbPolyline
 90
4
 70
1
 10
231.75
 20
51.6
 10
231.75
 20
81.6
 10
219.75
 20
81.6
 10
219.75
 20
51.6
  0
LWPOLYLINE
  5
41
330
17
100
AcDbEntity
  8
FILL_WHITE_FFFFFF
370
0
420
16777215
100
AcDbPolyline
 90
4
 70
1
 10
208.95
 20
72.0
 10
214.95
 20
72.0
 10
214.95
 20
81.6
 10
210.15
 20
81.6
  0
LWPOLYLINE
  5
42
330
17
100
AcDbEntity
  8
FILL_WHITE_FFFFFF
370
0
420
16777215
100
AcDbPolyline
 90
4
 70
1
 10
213.75
 20
105.6
 10
212.55
 20
93.6
 10
231.75
 20
93.6
 10
231.75
 20
105.6
  0
LWPOLYLINE
  5
43
330
17
100
AcDbEntity
  8
FILL_WHITE_FFFFFF
370
0
420
16777215
100
AcDbPolyline
 90
4
 70
1
 10
253.35
 20
105.6
 10
235.35
 20
105.6
 10
235.35
 20
93.6
 10
253.35
 20
93.6
  0
LWPOLYLINE
  5
44
330
17
100
AcDbEntity
  8
FILL_WHITE_FFFFFF
370
0
420
16777215
100
AcDbPolyline
 90
4
 70
1
 10
274.95
 20
93.6
 10
274.95
 20
105.6
 10
256.95
 20
105.6
 10
256.95
 20
93.6
  0
LWPOLYLINE
  5
45
330
17
100
AcDbEntity
  8
FILL_WHITE_FFFFFF
370
0
420
16777215
100
AcDbPolyline
 90
4
 70
1
 10
279.75
 20
93.6
 10
297.75
 20
93.6
 10
297.75
 20
105.6
 10
279.75
 20
105.6
  0
LWPOLYLINE
  5
46
330
17
100
AcDbEntity
  8
FILL_WHITE_FFFFFF
370
0
420
16777215
100
AcDbPolyline
 90
4
 70
1
 10
301.35
 20
93.6
 10
319.35
 20
93.6
 10
319.35
 20
105.6
 10
301.35
 20
105.6
  0
LWPOLYLINE
  5
47
330
17
100
AcDbEntity
  8
FILL_WHITE_FFFFFF
370
0
420
16777215
100
AcDbPolyline
 90
13
 70
1
 10
343.35
 20
102.0
 10
343.33
 20
102.88
 10
343.2
 20
103.65
 10
342.84
 20
104.19
 10
342.55
 20
104.35
 10
342.15
 20
104.4
 10
341.44
 20
105.09
 10
340.95
 20
105.45
 10
340.46
 20
105.58
 10
339.75
 20
105.6
 10
322.95
 20
105.6
 10
322.95
 20
93.6
 10
343.35
 20
93.6
  0
HATCH
  5
48
330
17
100
AcDbEntity
  8
FILL_WHITE_FFFFFF
 62
7
420
16777215
100
AcDbHatch
 10
0.0
 20
0.0
 30
0.0
210
0.0
220
0.0
230
1.0
  2
SOLID
 70
1
 71
0
 91
2
 92
3
 72
0
 73
1
 93
33
 10
309.11
 20
47.06
 10
308.36
 20
45.63
 10
307.35
 20
44.4
 10
306.12
 20
43.39
 10
304.69
 20
42.64
 10
303.09
 20
42.16
 10
301.35
 20
42.0
 10
299.61
 20
42.16
 10
298.01
 20
42.64
 10
296.58
 20
43.39
 10
295.35
 20
44.4
 10
294.34
 20
45.63
 10
293.59
 20
47.06
 10
293.11
 20
48.66
 10
292.95
 20
50.4
 10
293.11
 20
51.74
 10
293.59
 20
53.04
 10
294.34
 20
54.26
 10
295.35
 20
55.35
 10
296.58
 20
56.27
 10
298.01
 20
56.98
 10
299.61
 20
57.44
 10
301.35
 20
57.6
 10
303.09
 20
57.44
 10
304.69
 20
56.98
 10
306.12
 20
56.27
 10
307.35
 20
55.35
 10
308.36
 20
54.26
 10
309.11
 20
53.04
 10
309.59
 20
51.74
 10
309.75
 20
50.4
 10
309.59
 20
48.66
 10
309.11
 20
47.06
 97
0
 92
18
 72
0
 73
1
 93
32
 10
304.72
 20
51.97
 10
304.44
 20
52.59
 10
304.05
 20
53.1
 10
303.54
 20
53.49
 10
302.92
 20
53.77
 10
302.19
 20
53.94
 10
301.35
 20
54.0
 10
300.47
 20
53.98
 10
299.7
 20
53.85
 10
299.16
 20
53.49
 10
299.0
 20
53.2
 10
298.95
 20
52.8
 10
298.26
 20
51.92
 10
297.9
 20
51.15
 10
297.75
 20
50.4
 10
297.77
 20
49.5
 10
297.9
 20
48.6
 10
298.26
 20
47.7
 10
298.95
 20
46.8
 10
299.7
 20
46.2
 10
300.47
 20
45.79
 10
301.35
 20
45.6
 10
302.19
 20
45.71
 10
302.92
 20
46.01
 10
303.54
 20
46.49
 10
304.05
 20
47.1
 10
304.44
 20
47.83
 10
304.72
 20
48.64
 10
304.89
 20
49.5
 10
304.95
 20
50.4
 10
304.89
 20
51.24
 10
304.72
 20
51.97
 97
0
 75
1
 76
1
 98
0
  0
LWPOLYLINE
  5
49
330
17
100
AcDbEntity
  8
FILL_WHITE_FFFFFF
370
0
420
16777215
100
AcDbPolyline
 90
32
 70
1
 10
309.11
 20
47.06
 10
308.36
 20
45.63
 10
307.35
 20
44.4
 10
306.12
 20
43.39
 10
304.69
 20
42.64
 10
303.09
 20
42.16
 10
301.35
 20
42.0
 10
299.61
 20
42.16
 10
298.01
 20
42.64
 10
296.58
 20
43.39
 10
295.35
 20
44.4
 10
294.34
 20
45.63
 10
293.59
 20
47.06
 10
293.11
 20
48.66
 10
292.95
 20
50.4
 10
293.11
 20
51.74
 10
293.59
 20
53.04
 10
294.34
 20
54.26
 10
295.35
 20
55.35
 10
296.58
 20
56.27
 10
298.01
 20
56.98
 10
299.61
 20
57.44
 10
301.35
 20
57.6
 10
303.09
 20
57.44
 10
304.69
 20
56.98
 10
306.12
 20
56.27
 10
307.35
 20
55.35
 10
308.36
 20
54.26
 10
309.11
 20
53.04
 10
309.59
 20
51.74
 10
309.75
 20
50.4
 10
309.59
 20
48.66
  0
LWPOLYLINE
  5
4A
330
17
100
AcDbEntity
  8
FILL_WHITE_FFFFFF
370
0
420
16777215
100
AcDbPolyline
 90
31
 70
1
 10
304.72
 20
51.97
 10
304.44
 20
52.59
 10
304.05
 20
53.1
 10
303.54
 20
53.49
 10
302.92
 20
53.77
 10
302.19
 20
53.94
 10
301.35
 20
54.0
 10
300.47
 20
53.98
 10
299.7
 20
53.85
 10
299.16
 20
53.49
 10
299.0
 20
53.2
 10
298.95
 20
52.8
 10
298.26
 20
51.92
 10
297.9
 20
51.15
 10
297.75
 20
50.4
 10
297.77
 20
49.5
 10
297.9
 20
48.6
 10
298.26
 20
47.7
 10
298.95
 20
46.8
 10
299.7
 20
46.2
 10
300.47
 20
45.79
 10
301.35
 20
45.6
 10
302.19
 20
45.71
 10
302.92
 20
46.01
 10
303.54
 20
46.49
 10
304.05
 20
47.1
 10
304.44
 20
47.83
 10
304.72
 20
48.64
 10
304.89
 20
49.5
 10
304.95
 20
50.4
 10
304.89
 20
51.24
  0
HATCH
  5
4B
330
17
100
AcDbEntity
  8
FILL_WHITE_FFFFFF
 62
7
420
16777215
100
AcDbHatch
 10
0.0
 20
0.0
 30
0.0
210
0.0
220
0.0
230
1.0
  2
SOLID
 70
1
 71
0
 91
2
 92
3
 72
0
 73
1
 93
33
 10
250.33
 20
47.06
 10
249.62
 20
45.63
 10
248.7
 20
44.4
 10
247.61
 20
43.39
 10
246.39
 20
42.64
 10
245.09
 20
42.16
 10
243.75
 20
42.0
 10
242.01
 20
42.16
 10
240.41
 20
42.64
 10
238.98
 20
43.39
 10
237.75
 20
44.4
 10
236.74
 20
45.63
 10
235.99
 20
47.06
 10
235.51
 20
48.66
 10
235.35
 20
50.4
 10
235.51
 20
51.74
 10
235.99
 20
53.04
 10
236.74
 20
54.26
 10
237.75
 20
55.35
 10
238.98
 20
56.27
 10
240.41
 20
56.98
 10
242.01
 20
57.44
 10
243.75
 20
57.6
 10
245.09
 20
57.44
 10
246.39
 20
56.98
 10
247.61
 20
56.27
 10
248.7
 20
55.35
 10
249.62
 20
54.26
 10
250.33
 20
53.04
 10
250.79
 20
51.74
 10
250.95
 20
50.4
 10
250.79
 20
48.66
 10
250.33
 20
47.06
 97
0
 92
18
 72
0
 73
1
 93
31
 10
246.96
 20
51.97
 10
246.53
 20
52.59
 10
246.0
 20
53.1
 10
245.42
 20
53.49
 10
244.82
 20
53.77
 10
243.75
 20
54.0
 10
242.85
 20
53.98
 10
241.95
 20
53.85
 10
241.05
 20
53.49
 10
240.15
 20
52.8
 10
239.96
 20
51.92
 10
239.55
 20
51.15
 10
238.95
 20
50.4
 10
239.14
 20
49.5
 10
239.55
 20
48.6
 10
239.96
 20
47.7
 10
240.15
 20
46.8
 10
241.05
 20
46.61
 10
241.95
 20
46.2
 10
242.85
 20
45.79
 10
243.75
 20
45.6
 10
244.25
 20
45.71
 10
244.82
 20
46.01
 10
245.42
 20
46.49
 10
246.0
 20
47.1
 10
246.53
 20
47.83
 10
246.96
 20
48.64
 10
247.24
 20
49.5
 10
247.35
 20
50.4
 10
247.24
 20
51.24
 10
246.96
 20
51.97
 97
0
 75
1
 76
1
 98
0
  0
LWPOLYLINE
  5
4C
330
17
100
AcDbEntity
  8
FILL_WHITE_FFFFFF
370
0
420
16777215
100
AcDbPolyline
 90
32
 70
1
 10
250.33
 20
47.06
 10
249.62
 20
45.63
 10
248.7
 20
44.4
 10
247.61
 20
43.39
 10
246.39
 20
42.64
 10
245.09
 20
42.16
 10
243.75
 20
42.0
 10
242.01
 20
42.16
 10
240.41
 20
42.64
 10
238.98
 20
43.39
 10
237.75
 20
44.4
 10
236.74
 20
45.63
 10
235.99
 20
47.06
 10
235.51
 20
48.66
 10
235.35
 20
50.4
 10
235.51
 20
51.74
 10
235.99
 20
53.04
 10
236.74
 20
54.26
 10
237.75
 20
55.35
 10
238.98
 20
56.27
 10
240.41
 20
56.98
 10
242.01
 20
57.44
 10
243.75
 20
57.6
 10
245.09
 20
57.44
 10
246.39
 20
56.98
 10
247.61
 20
56.27
 10
248.7
 20
55.35
 10
249.62
 20
54.26
 10
250.33
 20
53.04
 10
250.79
 20
51.74
 10
250.95
 20
50.4
 10
250.79
 20
48.66
  0
LWPOLYLINE
  5
4D
330
17
100
AcDbEntity
  8
FILL_WHITE_FFFFFF
370
0
420
16777215
100
AcDbPolyline
 90
30
 70
1
 10
246.96
 20
51.97
 10
246.53
 20
52.59
 10
246.0
 20
53.1
 10
245.42
 20
53.49
 10
244.82
 20
53.77
 10
243.75
 20
54.0
 10
242.85
 20
53.98
 10
241.95
 20
53.85
 10
241.05
 20
53.49
 10
240.15
 20
52.8
 10
239.96
 20
51.92
 10
239.55
 20
51.15
 10
238.95
 20
50.4
 10
239.14
 20
49.5
 10
239.55
 20
48.6
 10
239.96
 20
47.7
 10
240.15
 20
46.8
 10
241.05
 20
46.61
 10
241.95
 20
46.2
 10
242.85
 20
45.79
 10
243.75
 20
45.6
 10
244.25
 20
45.71
 10
244.82
 20
46.01
 10
245.42
 20
46.49
 10
246.0
 20
47.1
 10
246.53
 20
47.83
 10
246.96
 20
48.64
 10
247.24
 20
49.5
 10
247.35
 20
50.4
 10
247.24
 20
51.24
  0
HATCH
  5
4E
330
17
100
AcDbEntity
  8
FILL_WHITE_FFFFFF
 62
7
420
16777215
100
AcDbHatch
 10
0.0
 20
0.0
 30
0.0
210
0.0
220
0.0
230
1.0
  2
SOLID
 70
1
 71
0
 91
1
 92
3
 72
0
 73
1
 93
5
 10
366.15
 20
148.8
 10
376.95
 20
148.8
 10
376.95
 20
122.4
 10
366.15
 20
122.4
 10
366.15
 20
148.8
 97
0
 75
1
 76
1
 98
0
  0
LWPOLYLINE
  5
4F
330
17
100
AcDbEntity
  8
FILL_WHITE_FFFFFF
370
0
420
16777215
100
AcDbPolyline
 90
4
 70
1
 10
366.15
 20
148.8
 10
376.95
 20
148.8
 10
376.95
 20
122.4
 10
366.15
 20
122.4
  0
HATCH
  5
50
330
17
100
AcDbEntity
  8
FILL_WHITE_FFFFFF
 62
7
420
16777215
100
AcDbHatch
 10
0.0
 20
0.0
 30
0.0
210
0.0
220
0.0
230
1.0
  2
SOLID
 70
1
 71
0
 91
1
 92
3
 72
0
 73
1
 93
5
 10
366.15
 20
68.4
 10
376.95
 20
68.4
 10
376.95
 20
42.0
 10
366.15
 20
42.0
 10
366.15
 20
68.4
 97
0
 75
1
 76
1
 98
0
  0
LWPOLYLINE
  5
51
330
17
100
AcDbEntity
  8
FILL_WHITE_FFFFFF
370
0
420
16777215
100
AcDbPolyline
 90
4
 70
1
 10
366.15
 20
68.4
 10
376.95
 20
68.4
 10
376.95
 20
42.0
 10
366.15
 20
42.0
  0
HATCH
  5
52
330
17
100
AcDbEntity
  8
FILL_WHITE_FFFFFF
 62
7
420
16777215
100
AcDbHatch
 10
0.0
 20
0.0
 30
0.0
210
0.0
220
0.0
230
1.0
  2
SOLID
 70
1
 71
0
 91
1
 92
3
 72
0
 73
1
 93
5
 10
184.95
 20
32.4
 10
170.55
 20
32.4
 10
170.55
 20
238.8
 10
184.95
 20
238.8
 10
184.95
 20
32.4
 97
0
 75
1
 76
1
 98
0
  0
LWPOLYLINE
  5
53
330
17
100
AcDbEntity
  8
FILL_WHITE_FFFFFF
370
0
420
16777215
100
AcDbPolyline
 90
4
 70
1
 10
184.95
 20
32.4
 10
170.55
 20
32.4
 10
170.55
 20
238.8
 10
184.95
 20
238.8
  0
HATCH
  5
54
330
17
100
AcDbEntity
  8
FILL_WHITE_FFFFFF
 62
7
420
16777215
100
AcDbHatch
 10
0.0
 20
0.0
 30
0.0
210
0.0
220
0.0
230
1.0
  2
SOLID
 70
1
 71
0
 91
1
 92
3
 72
0
 73
1
 93
10
 10
274.95
 20
231.6
 10
302.55
 20
204.0
 10
302.55
 20
177.6
 10
284.55
 20
195.6
 10
284.55
 20
123.6
 10
266.55
 20
123.6
 10
266.55
 20
195.6
 10
248.55
 20
177.6
 10
248.55
 20
204.0
 10
274.95
 20
231.6
 97
0
 75
1
 76
1
 98
0
  0
LWPOLYLINE
  5
55
330
17
100
AcDbEntity
  8
FILL_WHITE_FFFFFF
370
0
420
16777215
100
AcDbPolyline
 90
9
 70
1
 10
274.95
 20
231.6
 10
302.55
 20
204.0
 10
302.55
 20
177.6
 10
284.55
 20
195.6
 10
284.55
 20
123.6
 10
266.55
 20
123.6
 10
266.55
 20
195.6
 10
248.55
 20
177.6
 10
248.55
 20
204.0
  0
HATCH
  5
56
330
17
100
AcDbEntity
  8
FILL_WHITE_FFFFFF
 62
7
420
16777215
100
AcDbHatch
 10
0.0
 20
0.0
 30
0.0
210
0.0
220
0.0
230
1.0
  2
SOLID
 70
1
 71
0
 91
1
 92
3
 72
0
 73
1
 93
5
 10
366.15
 20
229.2
 10
376.95
 20
229.2
 10
376.95
 20
202.8
 10
366.15
 20
202.8
 10
366.15
 20
229.2
 97
0
 75
1
 76
1
 98
0
  0
LWPOLYLINE
  5
57
330
17
100
AcDbEntity
  8
FILL_WHITE_FFFFFF
370
0
420
16777215
100
AcDbPolyline
 90
4
 70
1
 10
366.15
 20
229.2
 10
376.95
 20
229.2
 10
376.95
 20
202.8
 10
366.15
 20
202.8
  0
HATCH
  5
58
330
17
100
AcDbEntity
  8
FILL_WHITE_FFFFFF
 62
7
420
16777215
100
AcDbHatch
 10
0.0
 20
0.0
 30
0.0
210
0.0
220
0.0
230
1.0
  2
SOLID
 70
1
 71
0
 91
1
 92
3
 72
0
 73
1
 93
10
 10
469.35
 20
148.8
 10
451.35
 20
166.8
 10
451.35
 20
68.4
 10
433.35
 20
68.4
 10
433.35
 20
166.8
 10
415.35
 20
148.8
 10
415.35
 20
175.2
 10
441.75
 20
202.8
 10
469.35
 20
175.2
 10
469.35
 20
148.8
 97
0
 75
1
 76
1
 98
0
  0
LWPOLYLINE
  5
59
330
17
100
AcDbEntity
  8
FILL_WHITE_FFFFFF
370
0
420
16777215
100
AcDbPolyline
 90
9
 70
1
 10
469.35
 20
148.8
 10
451.35
 20
166.8
 10
451.35
 20
68.4
 10
433.35
 20
68.4
 10
433.35
 20
166.8
 10
415.35
 20
148.8
 10
415.35
 20
175.2
 10
441.75
 20
202.8
 10
469.35
 20
175.2
  0
LWPOLYLINE
  5
5B
330
17
100
AcDbEntity
  8
STROKE_BLUE_0000FF
370
0
420
255
100
AcDbPolyline
 90
69
 70
0
 10
498.14999999999964
 20
28.799999999998818
 10
498.14999999999964
 20
242.39999999999918
 10
498.03955078124966
 20
244.40888671874913
 10
497.71640624999964
 20
246.3773437499991
 10
497.19287109374966
 20
248.2930664062491
 10
496.4812499999997
 20
250.14374999999907
 10
495.59384765624975
 20
251.91708984374907
 10
494.5429687499998
 20
253.6007812499991
 10
493.3409179687498
 20
255.1825195312491
 10
491.99999999999983
 20
256.6499999999991
 10
490.5325195312498
 20
257.99091796874916
 10
488.95078124999986
 20
259.1929687499992
 10
487.2670898437499
 20
260.2438476562492
 10
485.49374999999975
 20
261.1312499999992
 10
483.6430664062498
 20
261.84287109374924
 10
481.72734374999976
 20
262.3664062499993
 10
479.75888671874964
 20
262.6895507812493
 10
477.74999999999955
 20
262.7999999999993
 10
90.14999999999964
 20
262.7999999999993
 10
88.14111328124969
 20
262.6895507812493
 10
86.17265624999973
 20
262.3664062499993
 10
84.25693359374978
 20
261.84287109374924
 10
82.4062499999998
 20
261.1312499999992
 10
80.63291015624984
 20
260.2438476562492
 10
78.94921874999987
 20
259.1929687499992
 10
77.3674804687499
 20
257.99091796874916
 10
75.89999999999992
 20
256.6499999999991
 10
74.55908203124994
 20
255.1825195312491
 10
73.35703124999996
 20
253.6007812499991
 10
72.30615234374997
 20
251.91708984374907
 10
71.41874999999999
 20
250.14374999999907
 10
70.70712890624999
 20
248.2930664062491
 10
70.18359375
 20
246.3773437499991
 10
69.86044921875
 20
244.40888671874913
 10
69.75
 20
242.39999999999918
 10
69.75
 20
28.799999999998818
 10
69.86044921875
 20
26.79111328124887
 10
70.18359375
 20
24.822656249998914
 10
70.70712890624999
 20
22.90693359374896
 10
71.41874999999999
 20
21.056249999998983
 10
72.30615234374996
 20
19.282910156249017
 10
73.35703124999995
 20
17.59921874999904
 10
74.55908203124994
 20
16.017480468749056
 10
75.89999999999992
 20
14.549999999999102
 10
77.3674804687499
 20
13.209082031249125
 10
78.94921874999987
 20
12.007031249999159
 10
80.63291015624984
 20
10.956152343749125
 10
82.4062499999998
 20
10.06874999999917
 10
84.25693359374978
 20
9.357128906249159
 10
86.17265624999973
 20
8.833593749999181
 10
88.14111328124969
 20
8.510449218749159
 10
90.14999999999964
 20
8.399999999999181
 10
477.74999999999955
 20
8.399999999999181
 10
479.75888671874964
 20
8.510449218749216
 10
481.72734374999976
 20
8.833593749999181
 10
483.64306640624983
 20
9.357128906249159
 10
485.49374999999986
 20
10.068749999999113
 10
487.2670898437499
 20
10.956152343749125
 10
488.95078124999986
 20
12.007031249999102
 10
490.5325195312499
 20
13.209082031249125
 10
491.99999999999983
 20
14.549999999999102
 10
493.34091796874975
 20
16.017480468749056
 10
494.5429687499998
 20
17.59921874999904
 10
495.59384765624975
 20
19.282910156249045
 10
496.4812499999997
 20
21.056249999998983
 10
497.19287109374966
 20
22.90693359374893
 10
497.71640624999964
 20
24.822656249998914
 10
498.03955078124966
 20
26.791113281248897
 10
498.14999999999964
 20
28.799999999998818
  0
ENDSEC
  0
SECTION
  2
OBJECTS
  0
DICTIONARY
  5
A
330
0
100
AcDbDictionary
281
1
  3
ACAD_COLOR
350
B
  3
ACAD_GROUP
350
C
  3
ACAD_LAYOUT
350
D
  3
ACAD_MATERIAL
350
E
  3
ACAD_MLEADERSTYLE
350
F
  3
ACAD_MLINESTYLE
350
10
  3
ACAD_PLOTSETTINGS
350
11
  3
ACAD_PLOTSTYLENAME
350
12
  3
ACAD_SCALELIST
350
14
  3
ACAD_TABLESTYLE
350
15
  3
ACAD_VISUALSTYLE
350
16
  3
EZDXF_META
350
2D
  0
DICTIONARY
  5
B
330
A
100
AcDbDictionary
281
1
  0
DICTIONARY
  5
C
330
A
100
AcDbDictionary
281
1
  0
DICTIONARY
  5
D
330
A
100
AcDbDictionary
281
1
  3
Model
350
1A
  3
Layout1
350
1E
  0
DICTIONARY
  5
E
330
A
100
AcDbDictionary
281
1
  3
ByBlock
350
1F
  3
ByLayer
350
20
  3
Global
350
21
  0
DICTIONARY
  5
F
330
A
100
AcDbDictionary
281
1
  3
Standard
350
2C
  0
DICTIONARY
  5
10
330
A
100
AcDbDictionary
281
1
  3
Standard
350
22
  0
DICTIONARY
  5
11
330
A
100
AcDbDictionary
281
1
  0
ACDBDICTIONARYWDFLT
  5
12
330
A
100
AcDbDictionary
281
1
  3
Normal
350
13
100
AcDbDictionaryWithDefault
340
13
  0
ACDBPLACEHOLDER
  5
13
330
12
  0
DICTIONARY
  5
14
330
A
100
AcDbDictionary
281
1
  0
DICTIONARY
  5
15
330
A
100
AcDbDictionary
281
1
  0
DICTIONARY
  5
16
330
A
100
AcDbDictionary
281
1
  0
LAYOUT
  5
1A
330
D
100
AcDbPlotSettings
  1

  4
A3
  6

 40
7.5
 41
20.0
 42
7.5
 43
20.0
 44
420.0
 45
297.0
 46
0.0
 47
0.0
 48
0.0
 49
0.0
140
0.0
141
0.0
142
1.0
143
1.0
 70
1024
 72
1
 73
0
 74
5
  7

 75
16
 76
0
 77
2
 78
300
147
1.0
148
0.0
149
0.0
100
AcDbLayout
  1
Model
 70
1
 71
0
 10
0.0
 20
0.0
 11
420.0
 21
297.0
 12
0.0
 22
0.0
 32
0.0
 14
1e+20
 24
1e+20
 34
1e+20
 15
-1e+20
 25
-1e+20
 35
-1e+20
146
0.0
 13
0.0
 23
0.0
 33
0.0
 16
1.0
 26
0.0
 36
0.0
 17
0.0
 27
1.0
 37
0.0
 76
1
330
17
  0
LAYOUT
  5
1E
330
D
100
AcDbPlotSettings
  1

  4
A3
  6

 40
7.5
 41
20.0
 42
7.5
 43
20.0
 44
420.0
 45
297.0
 46
0.0
 47
0.0
 48
0.0
 49
0.0
140
0.0
141
0.0
142
1.0
143
1.0
 70
0
 72
1
 73
0
 74
5
  7

 75
16
 76
0
 77
2
 78
300
147
1.0
148
0.0
149
0.0
100
AcDbLayout
  1
Layout1
 70
1
 71
1
 10
0.0
 20
0.0
 11
420.0
 21
297.0
 12
0.0
 22
0.0
 32
0.0
 14
1e+20
 24
1e+20
 34
1e+20
 15
-1e+20
 25
-1e+20
 35
-1e+20
146
0.0
 13
0.0
 23
0.0
 33
0.0
 16
1.0
 26
0.0
 36
0.0
 17
0.0
 27
1.0
 37
0.0
 76
1
330
1B
  0
MATERIAL
  5
1F
102
{ACAD_REACTORS
330
E
102
}
330
E
100
AcDbMaterial
  1
ByBlock
  2

 70
0
 40
1.0
 71
1
 41
1.0
 91
-1023410177
 42
1.0
 72
1
  3

 73
1
 74
1
 75
1
 44
0.5
 73
0
 45
1.0
 46
1.0
 77
1
  4

 78
1
 79
1
170
1
 48
1.0
171
1
  6

172
1
173
1
174
1
140
1.0
141
1.0
175
1
  7

176
1
177
1
178
1
143
1.0
179
1
  8

270
1
271
1
272
1
145
1.0
146
1.0
273
1
  9

274
1
275
1
276
1
 42
1.0
 72
1
  3

 73
1
 74
1
 75
1
 94
63
  0
MATERIAL
  5
20
102
{ACAD_REACTORS
330
E
102
}
330
E
100
AcDbMaterial
  1
ByLayer
  2

 70
0
 40
1.0
 71
1
 41
1.0
 91
-1023410177
 42
1.0
 72
1
  3

 73
1
 74
1
 75
1
 44
0.5
 73
0
 45
1.0
 46
1.0
 77
1
  4

 78
1
 79
1
170
1
 48
1.0
171
1
  6

172
1
173
1
174
1
140
1.0
141
1.0
175
1
  7

176
1
177
1
178
1
143
1.0
179
1
  8

270
1
271
1
272
1
145
1.0
146
1.0
273
1
  9

274
1
275
1
276
1
 42
1.0
 72
1
  3

 73
1
 74
1
 75
1
 94
63
  0
MATERIAL
  5
21
102
{ACAD_REACTORS
330
E
102
}
330
E
100
AcDbMaterial
  1
Global
  2

 70
0
 40
1.0
 71
1
 41
1.0
 91
-1023410177
 42
1.0
 72
1
  3

 73
1
 74
1
 75
1
 44
0.5
 73
0
 45
1.0
 46
1.0
 77
1
  4

 78
1
 79
1
170
1
 48
1.0
171
1
  6

172
1
173
1
174
1
140
1.0
141
1.0
175
1
  7

176
1
177
1
178
1
143
1.0
179
1
  8

270
1
271
1
272
1
145
1.0
146
1.0
273
1
  9

274
1
275
1
276
1
 42
1.0
 72
1
  3

 73
1
 74
1
 75
1
 94
63
  0
MLINESTYLE
  5
22
102
{ACAD_REACTORS
330
10
102
}
330
10
100
AcDbMlineStyle
  2
Standard
 70
0
  3

 62
256
 51
90.0
 52
90.0
 71
2
 49
0.5
 62
256
  6
BYLAYER
 49
-0.5
 62
256
  6
BYLAYER
  0
MLEADERSTYLE
  5
2C
102
{ACAD_REACTORS
330
F
102
}
330
F
100
AcDbMLeaderStyle
179
2
170
2
171
1
172
0
 90
2
 40
0.0
 41
0.0
173
1
 91
-1056964608
 92
-2
290
1
 42
2.0
291
1
 43
8.0
  3
Standard
 44
4.0
300

342
29
174
1
175
1
176
0
178
1
 93
-1056964608
 45
4.0
292
0
297
0
 46
4.0
 94
-1056964608
 47
1.0
 49
1.0
140
1.0
294
1
141
0.0
177
0
142
1.0
295
0
296
0
143
3.75
271
0
272
9
273
9
  0
DICTIONARY
  5
2D
330
A
100
AcDbDictionary
280
1
281
1
  3
CREATED_BY_EZDXF
350
2E
  3
WRITTEN_BY_EZDXF
350
5E
  0
DICTIONARYVAR
  5
2E
330
2D
100
DictionaryVariables
280
0
  1
1.4.4 @ 2026-07-10T01:53:56.751117+00:00
  0
DICTIONARYVAR
  5
5E
330
2D
100
DictionaryVariables
280
0
  1
1.4.4 @ 2026-07-10T01:53:56.757252+00:00
  0
ENDSEC
  0
EOF
