  0
SECTION
  2
HEADER
  9
$ACADVER
  1
AC1024
  9
$ACADMAINTVER
 70
6
  9
$DWGCODEPAGE
  3
ANSI_1252
  9
$LASTSAVEDBY
  1
ezdxf
  9
$INSBASE
 10
0.0
 20
0.0
 30
0.0
  9
$EXTMIN
 10
1e+20
 20
1e+20
 30
1e+20
  9
$EXTMAX
 10
-1e+20
 20
-1e+20
 30
-1e+20
  9
$LIMMIN
 10
0.0
 20
0.0
  9
$LIMMAX
 10
420.0
 20
297.0
  9
$ORTHOMODE
 70
0
  9
$REGENMODE
 70
1
  9
$FILLMODE
 70
1
  9
$QTEXTMODE
 70
0
  9
$MIRRTEXT
 70
1
  9
$LTSCALE
 40
1.0
  9
$ATTMODE
 70
1
  9
$TEXTSIZE
 40
2.5
  9
$TRACEWID
 40
1.0
  9
$TEXTSTYLE
  7
Standard
  9
$CLAYER
  8
0
  9
$CELTYPE
  6
ByLayer
  9
$CECOLOR
 62
256
  9
$CELTSCALE
 40
1.0
  9
$DISPSILH
 70
0
  9
$DIMSCALE
 40
1.0
  9
$DIMASZ
 40
2.5
  9
$DIMEXO
 40
0.625
  9
$DIMDLI
 40
3.75
  9
$DIMRND
 40
0.0
  9
$DIMDLE
 40
0.0
  9
$DIMEXE
 40
1.25
  9
$DIMTP
 40
0.0
  9
$DIMTM
 40
0.0
  9
$DIMTXT
 40
2.5
  9
$DIMCEN
 40
2.5
  9
$DIMTSZ
 40
0.0
  9
$DIMTOL
 70
0
  9
$DIMLIM
 70
0
  9
$DIMTIH
 70
0
  9
$DIMTOH
 70
0
  9
$DIMSE1
 70
0
  9
$DIMSE2
 70
0
  9
$DIMTAD
 70
1
  9
$DIMZIN
 70
8
  9
$DIMBLK
  1

  9
$DIMASO
 70
1
  9
$DIMSHO
 70
1
  9
$DIMPOST
  1

  9
$DIMAPOST
  1

  9
$DIMALT
 70
0
  9
$DIMALTD
 70
3
  9
$DIMALTF
 40
0.03937007874
  9
$DIMLFAC
 40
1.0
  9
$DIMTOFL
 70
1
  9
$DIMTVP
 40
0.0
  9
$DIMTIX
 70
0
  9
$DIMSOXD
 70
0
  9
$DIMSAH
 70
0
  9
$DIMBLK1
  1

  9
$DIMBLK2
  1

  9
$DIMSTYLE
  2
ISO-25
  9
$DIMCLRD
 70
0
  9
$DIMCLRE
 70
0
  9
$DIMCLRT
 70
0
  9
$DIMTFAC
 40
1.0
  9
$DIMGAP
 40
0.625
  9
$DIMJUST
 70
0
  9
$DIMSD1
 70
0
  9
$DIMSD2
 70
0
  9
$DIMTOLJ
 70
0
  9
$DIMTZIN
 70
8
  9
$DIMALTZ
 70
0
  9
$DIMALTTZ
 70
0
  9
$DIMUPT
 70
0
  9
$DIMDEC
 70
2
  9
$DIMTDEC
 70
2
  9
$DIMALTU
 70
2
  9
$DIMALTTD
 70
3
  9
$DIMTXSTY
  7
Standard
  9
$DIMAUNIT
 70
0
  9
$DIMADEC
 70
0
  9
$DIMALTRND
 40
0.0
  9
$DIMAZIN
 70
0
  9
$DIMDSEP
 70
44
  9
$DIMATFIT
 70
3
  9
$DIMFRAC
 70
0
  9
$DIMLDRBLK
  1

  9
$DIMLUNIT
 70
2
  9
$DIMLWD
 70
-2
  9
$DIMLWE
 70
-2
  9
$DIMTMOVE
 70
0
  9
$DIMFXL
 40
1.0
  9
$DIMFXLON
 70
0
  9
$DIMJOGANG
 40
0.785398163397
  9
$DIMTFILL
 70
0
  9
$DIMTFILLCLR
 70
0
  9
$DIMARCSYM
 70
0
  9
$DIMLTYPE
  6

  9
$DIMLTEX1
  6

  9
$DIMLTEX2
  6

  9
$DIMTXTDIRECTION
 70
0
  9
$LUNITS
 70
2
  9
$LUPREC
 70
4
  9
$SKETCHINC
 40
1.0
  9
$FILLETRAD
 40
10.0
  9
$AUNITS
 70
0
  9
$AUPREC
 70
2
  9
$MENU
  1
.
  9
$ELEVATION
 40
0.0
  9
$PELEVATION
 40
0.0
  9
$THICKNESS
 40
0.0
  9
$LIMCHECK
 70
0
  9
$CHAMFERA
 40
0.0
  9
$CHAMFERB
 40
0.0
  9
$CHAMFERC
 40
0.0
  9
$CHAMFERD
 40
0.0
  9
$SKPOLY
 70
0
  9
$TDCREATE
 40
2461232.4124652776
  9
$TDUCREATE
 40
2458532.153996898
  9
$TDUPDATE
 40
2461232.4124652776
  9
$TDUUPDATE
 40
2458532.1544311
  9
$TDINDWG
 40
0.0
  9
$TDUSRTIMER
 40
0.0
  9
$USRTIMER
 70
1
  9
$ANGBASE
 50
0.0
  9
$ANGDIR
 70
0
  9
$PDMODE
 70
0
  9
$PDSIZE
 40
0.0
  9
$PLINEWID
 40
0.0
  9
$SPLFRAME
 70
0
  9
$SPLINETYPE
 70
6
  9
$SPLINESEGS
 70
8
  9
$HANDSEED
  5
51
  9
$SURFTAB1
 70
6
  9
$SURFTAB2
 70
6
  9
$SURFTYPE
 70
6
  9
$SURFU
 70
6
  9
$SURFV
 70
6
  9
$UCSBASE
  2

  9
$UCSNAME
  2

  9
$UCSORG
 10
0.0
 20
0.0
 30
0.0
  9
$UCSXDIR
 10
1.0
 20
0.0
 30
0.0
  9
$UCSYDIR
 10
0.0
 20
1.0
 30
0.0
  9
$UCSORTHOREF
  2

  9
$UCSORTHOVIEW
 70
0
  9
$UCSORGTOP
 10
0.0
 20
0.0
 30
0.0
  9
$UCSORGBOTTOM
 10
0.0
 20
0.0
 30
0.0
  9
$UCSORGLEFT
 10
0.0
 20
0.0
 30
0.0
  9
$UCSORGRIGHT
 10
0.0
 20
0.0
 30
0.0
  9
$UCSORGFRONT
 10
0.0
 20
0.0
 30
0.0
  9
$UCSORGBACK
 10
0.0
 20
0.0
 30
0.0
  9
$PUCSBASE
  2

  9
$PUCSNAME
  2

  9
$PUCSORG
 10
0.0
 20
0.0
 30
0.0
  9
$PUCSXDIR
 10
1.0
 20
0.0
 30
0.0
  9
$PUCSYDIR
 10
0.0
 20
1.0
 30
0.0
  9
$PUCSORTHOREF
  2

  9
$PUCSORTHOVIEW
 70
0
  9
$PUCSORGTOP
 10
0.0
 20
0.0
 30
0.0
  9
$PUCSORGBOTTOM
 10
0.0
 20
0.0
 30
0.0
  9
$PUCSORGLEFT
 10
0.0
 20
0.0
 30
0.0
  9
$PUCSORGRIGHT
 10
0.0
 20
0.0
 30
0.0
  9
$PUCSORGFRONT
 10
0.0
 20
0.0
 30
0.0
  9
$PUCSORGBACK
 10
0.0
 20
0.0
 30
0.0
  9
$USERI1
 70
0
  9
$USERI2
 70
0
  9
$USERI3
 70
0
  9
$USERI4
 70
0
  9
$USERI5
 70
0
  9
$USERR1
 40
0.0
  9
$USERR2
 40
0.0
  9
$USERR3
 40
0.0
  9
$USERR4
 40
0.0
  9
$USERR5
 40
0.0
  9
$WORLDVIEW
 70
1
  9
$SHADEDGE
 70
3
  9
$SHADEDIF
 70
70
  9
$TILEMODE
 70
1
  9
$MAXACTVP
 70
64
  9
$PINSBASE
 10
0.0
 20
0.0
 30
0.0
  9
$PLIMCHECK
 70
0
  9
$PEXTMIN
 10
1e+20
 20
1e+20
 30
1e+20
  9
$PEXTMAX
 10
-1e+20
 20
-1e+20
 30
-1e+20
  9
$PLIMMIN
 10
0.0
 20
0.0
  9
$PLIMMAX
 10
420.0
 20
297.0
  9
$UNITMODE
 70
0
  9
$VISRETAIN
 70
1
  9
$PLINEGEN
 70
0
  9
$PSLTSCALE
 70
1
  9
$TREEDEPTH
 70
3020
  9
$CMLSTYLE
  2
Standard
  9
$CMLJUST
 70
0
  9
$CMLSCALE
 40
20.0
  9
$PROXYGRAPHICS
 70
1
  9
$MEASUREMENT
 70
1
  9
$CELWEIGHT
370
-1
  9
$ENDCAPS
280
0
  9
$JOINSTYLE
280
0
  9
$LWDISPLAY
290
0
  9
$INSUNITS
 70
6
  9
$HYPERLINKBASE
  1

  9
$STYLESHEET
  1

  9
$XEDIT
290
1
  9
$CEPSNTYPE
380
0
  9
$PSTYLEMODE
290
1
  9
$FINGERPRINTGUID
  2
{95157A41-9E87-4D45-8B80-DC9E71CFF5D6}
  9
$VERSIONGUID
  2
{D46F79C7-514D-4661-9D78-4884108482AC}
  9
$EXTNAMES
290
1
  9
$PSVPSCALE
 40
0.0
  9
$OLESTARTUP
290
0
  9
$SORTENTS
280
127
  9
$INDEXCTL
280
0
  9
$HIDETEXT
280
1
  9
$XCLIPFRAME
280
1
  9
$HALOGAP
280
0
  9
$OBSCOLOR
 70
257
  9
$OBSLTYPE
280
0
  9
$INTERSECTIONDISPLAY
280
0
  9
$INTERSECTIONCOLOR
 70
257
  9
$DIMASSOC
280
2
  9
$PROJECTNAME
  1

  9
$CAMERADISPLAY
290
0
  9
$LENSLENGTH
 40
50.0
  9
$CAMERAHEIGHT
 40
0.0
  9
$STEPSPERSEC
 40
24.0
  9
$STEPSIZE
 40
100.0
  9
$3DDWFPREC
 40
2.0
  9
$PSOLWIDTH
 40
0.005
  9
$PSOLHEIGHT
 40
0.08
  9
$LOFTANG1
 40
1.570796326795
  9
$LOFTANG2
 40
1.570796326795
  9
$LOFTMAG1
 40
0.0
  9
$LOFTMAG2
 40
0.0
  9
$LOFTPARAM
 70
7
  9
$LOFTNORMALS
280
1
  9
$LATITUDE
 40
37.795
  9
$LONGITUDE
 40
-122.394
  9
$NORTHDIRECTION
 40
0.0
  9
$TIMEZONE
 70
-8000
  9
$LIGHTGLYPHDISPLAY
280
1
  9
$TILEMODELIGHTSYNCH
280
1
  9
$CMATERIAL
347
20
  9
$SOLIDHIST
280
0
  9
$SHOWHIST
280
1
  9
$DWFFRAME
280
2
  9
$DGNFRAME
280
2
  9
$REALWORLDSCALE
290
1
  9
$INTERFERECOLOR
 62
256
  9
$CSHADOW
280
0
  9
$SHADOWPLANELOCATION
 40
0.0
  0
ENDSEC
  0
SECTION
  2
CLASSES
  0
CLASS
  1
ACDBDICTIONARYWDFLT
  2
AcDbDictionaryWithDefault
  3
ObjectDBX Classes
 90
0
 91
0
280
0
281
0
  0
CLASS
  1
SUN
  2
AcDbSun
  3
SCENEOE
 90
1153
 91
0
280
0
281
0
  0
CLASS
  1
VISUALSTYLE
  2
AcDbVisualStyle
  3
ObjectDBX Classes
 90
4095
 91
0
280
0
281
0
  0
CLASS
  1
MATERIAL
  2
AcDbMaterial
  3
ObjectDBX Classes
 90
1153
 91
0
280
0
281
0
  0
CLASS
  1
SCALE
  2
AcDbScale
  3
ObjectDBX Classes
 90
1153
 91
0
280
0
281
0
  0
CLASS
  1
TABLESTYLE
  2
AcDbTableStyle
  3
ObjectDBX Classes
 90
4095
 91
0
280
0
281
0
  0
CLASS
  1
MLEADERSTYLE
  2
AcDbMLeaderStyle
  3
ACDB_MLEADERSTYLE_CLASS
 90
4095
 91
0
280
0
281
0
  0
CLASS
  1
DICTIONARYVAR
  2
AcDbDictionaryVar
  3
ObjectDBX Classes
 90
0
 91
0
280
0
281
0
  0
CLASS
  1
CELLSTYLEMAP
  2
AcDbCellStyleMap
  3
ObjectDBX Classes
 90
1152
 91
0
280
0
281
0
  0
CLASS
  1
MENTALRAYRENDERSETTINGS
  2
AcDbMentalRayRenderSettings
  3
SCENEOE
 90
1024
 91
0
280
0
281
0
  0
CLASS
  1
ACDBDETAILVIEWSTYLE
  2
AcDbDetailViewStyle
  3
ObjectDBX Classes
 90
1025
 91
0
280
0
281
0
  0
CLASS
  1
ACDBSECTIONVIEWSTYLE
  2
AcDbSectionViewStyle
  3
ObjectDBX Classes
 90
1025
 91
0
280
0
281
0
  0
CLASS
  1
RASTERVARIABLES
  2
AcDbRasterVariables
  3
ISM
 90
0
 91
0
280
0
281
0
  0
CLASS
  1
ACDBPLACEHOLDER
  2
AcDbPlaceHolder
  3
ObjectDBX Classes
 90
0
 91
0
280
0
281
0
  0
CLASS
  1
LAYOUT
  2
AcDbLayout
  3
ObjectDBX Classes
 90
0
 91
0
280
0
281
0
  0
ENDSEC
  0
SECTION
  2
TABLES
  0
TABLE
  2
VPORT
  5
8
330
0
100
AcDbSymbolTable
 70
1
  0
VPORT
  5
23
330
8
100
AcDbSymbolTableRecord
100
AcDbViewportTableRecord
  2
*Active
 70
0
 10
0.0
 20
0.0
 11
1.0
 21
1.0
 12
0.0
 22
0.0
 13
0.0
 23
0.0
 14
0.5
 24
0.5
 15
0.5
 25
0.5
 16
0.0
 26
0.0
 36
1.0
 17
0.0
 27
0.0
 37
0.0
 40
1000.0
 41
1.34
 42
50.0
 43
0.0
 44
0.0
 50
0.0
 51
0.0
 71
0
 72
1000
 73
1
 74
3
 75
0
 76
0
 77
0
 78
0
281
0
 65
0
146
0.0
  0
ENDTAB
  0
TABLE
  2
LTYPE
  5
2
330
0
100
AcDbSymbolTable
 70
3
  0
LTYPE
  5
24
330
2
100
AcDbSymbolTableRecord
100
AcDbLinetypeTableRecord
  2
ByBlock
 70
0
  3

 72
65
 73
0
 40
0.0
  0
LTYPE
  5
25
330
2
100
AcDbSymbolTableRecord
100
AcDbLinetypeTableRecord
  2
ByLayer
 70
0
  3

 72
65
 73
0
 40
0.0
  0
LTYPE
  5
26
330
2
100
AcDbSymbolTableRecord
100
AcDbLinetypeTableRecord
  2
Continuous
 70
0
  3

 72
65
 73
0
 40
0.0
  0
ENDTAB
  0
TABLE
  2
LAYER
  5
1
330
0
100
AcDbSymbolTable
 70
5
  0
LAYER
  5
27
330
1
100
AcDbSymbolTableRecord
100
AcDbLayerTableRecord
  2
0
 70
0
 62
7
  6
Continuous
370
-3
390
13
347
21
  0
LAYER
  5
28
330
1
100
AcDbSymbolTableRecord
100
AcDbLayerTableRecord
  2
Defpoints
 70
0
 62
7
  6
Continuous
290
0
370
-3
390
13
347
21
  0
LAYER
  5
2F
330
1
100
AcDbSymbolTableRecord
100
AcDbLayerTableRecord
  2
FILL_BLACK_000000
 70
0
 62
7
420
0
  6
Continuous
370
-3
390
13
347
21
  0
LAYER
  5
33
330
1
100
AcDbSymbolTableRecord
100
AcDbLayerTableRecord
  2
FILL_PINK_E1E1E1
 70
0
 62
7
420
14803425
  6
Continuous
370
-3
390
13
347
21
  0
LAYER
  5
45
330
1
100
AcDbSymbolTableRecord
100
AcDbLayerTableRecord
  2
STROKE_BLACK_000000
 70
0
 62
7
420
0
  6
Continuous
370
-3
390
13
347
21
  0
ENDTAB
  0
TABLE
  2
STYLE
  5
5
330
0
100
AcDbSymbolTable
 70
1
  0
STYLE
  5
29
330
5
100
AcDbSymbolTableRecord
100
AcDbTextStyleTableRecord
  2
Standard
 70
0
 40
0.0
 41
1.0
 50
0.0
 71
0
 42
2.5
  3
txt
  4

  0
ENDTAB
  0
TABLE
  2
VIEW
  5
7
330
0
100
AcDbSymbolTable
 70
0
  0
ENDTAB
  0
TABLE
  2
UCS
  5
6
330
0
100
AcDbSymbolTable
 70
0
  0
ENDTAB
  0
TABLE
  2
APPID
  5
3
330
0
100
AcDbSymbolTable
 70
3
  0
APPID
  5
2A
330
3
100
AcDbSymbolTableRecord
100
AcDbRegAppTableRecord
  2
ACAD
 70
0
  0
APPID
  5
4E
330
3
100
AcDbSymbolTableRecord
100
AcDbRegAppTableRecord
  2
HATCHBACKGROUNDCOLOR
 70
0
  0
APPID
  5
4F
330
3
100
AcDbSymbolTableRecord
100
AcDbRegAppTableRecord
  2
EZDXF
 70
0
  0
ENDTAB
  0
TABLE
  2
DIMSTYLE
  5
4
330
0
100
AcDbSymbolTable
 70
1
100
AcDbDimStyleTable
  0
DIMSTYLE
105
2B
330
4
100
AcDbSymbolTableRecord
100
AcDbDimStyleTableRecord
  2
Standard
 70
0
 40
1.0
 41
2.5
 42
0.625
 43
3.75
 44
1.25
 45
0.0
 46
0.0
 47
0.0
 48
0.0
 49
2.5
140
2.5
141
2.5
142
0.0
143
0.03937007874
144
1.0
145
0.0
146
1.0
147
0.625
148
0.0
 69
0
 70
0
 71
0
 72
0
 73
0
 74
0
 75
0
 76
0
 77
1
 78
8
 79
3
170
0
171
3
172
1
173
0
174
0
175
0
176
0
177
0
178
0
179
2
271
2
272
2
273
2
274
3
275
0
276
0
277
2
278
44
279
0
280
0
281
0
282
0
283
0
284
8
285
0
286
0
288
0
289
3
290
0
371
-2
372
-2
  0
ENDTAB
  0
TABLE
  2
BLOCK_RECORD
  5
9
330
0
100
AcDbSymbolTable
 70
2
  0
BLOCK_RECORD
  5
17
330
9
100
AcDbSymbolTableRecord
100
AcDbBlockTableRecord
  2
*Model_Space
340
1A
 70
0
280
1
281
0
  0
BLOCK_RECORD
  5
1B
330
9
100
AcDbSymbolTableRecord
100
AcDbBlockTableRecord
  2
*Paper_Space
340
1E
 70
0
280
1
281
0
  0
ENDTAB
  0
ENDSEC
  0
SECTION
  2
BLOCKS
  0
BLOCK
  5
18
330
17
100
AcDbEntity
  8
0
100
AcDbBlockBegin
  2
*Model_Space
 70
0
 10
0.0
 20
0.0
 30
0.0
  3
*Model_Space
  1

  0
ENDBLK
  5
19
330
17
100
AcDbEntity
  8
0
100
AcDbBlockEnd
  0
BLOCK
  5
1C
330
1B
100
AcDbEntity
  8
0
100
AcDbBlockBegin
  2
*Paper_Space
 70
0
 10
0.0
 20
0.0
 30
0.0
  3
*Paper_Space
  1

  0
ENDBLK
  5
1D
330
1B
100
AcDbEntity
  8
0
100
AcDbBlockEnd
  0
ENDSEC
  0
SECTION
  2
ENTITIES
  0
HATCH
  5
30
330
17
100
AcDbEntity
  8
FILL_BLACK_000000
 62
7
420
0
100
AcDbHatch
 10
0.0
 20
0.0
 30
0.0
210
0.0
220
0.0
230
1.0
  2
SOLID
 70
1
 71
0
 91
2
 92
3
 72
0
 73
1
 93
64
 10
255.9
 20
219.32
 10
257.22
 20
218.88
 10
258.53
 20
218.28
 10
259.76
 20
217.55
 10
260.89
 20
216.73
 10
261.9
 20
215.82
 10
262.91
 20
214.71
 10
263.79
 20
213.53
 10
264.53
 20
212.28
 10
265.14
 20
210.96
 10
265.58
 20
209.72
 10
265.86
 20
208.44
 10
266.04
 20
205.92
 10
266.04
 20
66.06
 10
265.86
 20
63.52
 10
265.58
 20
62.19
 10
265.14
 20
60.84
 10
264.53
 20
59.53
 10
263.79
 20
58.3
 10
262.91
 20
57.17
 10
261.9
 20
56.16
 10
260.89
 20
55.15
 10
259.76
 20
54.29
 10
258.53
 20
53.6
 10
257.22
 20
53.1
 10
255.9
 20
52.63
 10
254.63
 20
52.29
 10
253.4
 20
52.09
 10
252.18
 20
52.02
 10
112.32
 20
52.02
 10
111.0
 20
52.09
 10
109.71
 20
52.29
 10
108.42
 20
52.63
 10
107.1
 20
53.1
 10
105.79
 20
53.6
 10
104.56
 20
54.29
 10
103.43
 20
55.15
 10
102.42
 20
56.16
 10
101.41
 20
57.19
 10
100.53
 20
58.37
 10
99.79
 20
59.6
 10
99.18
 20
60.84
 10
98.74
 20
62.19
 10
98.46
 20
63.52
 10
98.28
 20
66.06
 10
98.28
 20
205.92
 10
98.46
 20
208.44
 10
98.74
 20
209.72
 10
99.18
 20
210.96
 10
99.79
 20
212.28
 10
100.53
 20
213.53
 10
101.41
 20
214.71
 10
102.42
 20
215.82
 10
103.43
 20
216.73
 10
104.56
 20
217.55
 10
105.79
 20
218.28
 10
107.1
 20
218.88
 10
108.42
 20
219.32
 10
109.71
 20
219.6
 10
111.0
 20
219.74
 10
112.32
 20
219.78
 10
252.18
 20
219.78
 10
254.63
 20
219.6
 10
255.9
 20
219.32
 97
0
 92
18
 72
0
 73
1
 93
43
 10
110.55
 20
215.11
 10
108.79
 20
214.58
 10
107.94
 20
214.18
 10
107.13
 20
213.69
 10
106.37
 20
213.09
 10
105.66
 20
212.4
 10
104.45
 20
210.94
 10
103.5
 20
209.34
 10
103.1
 20
207.56
 10
102.96
 20
205.92
 10
102.96
 20
66.06
 10
103.1
 20
64.31
 10
103.57
 20
62.6
 10
104.4
 20
60.95
 10
104.98
 20
60.16
 10
105.66
 20
59.4
 10
106.37
 20
58.77
 10
107.13
 20
58.22
 10
108.79
 20
57.38
 10
110.55
 20
56.87
 10
112.32
 20
56.7
 10
252.18
 20
56.7
 10
253.85
 20
56.87
 10
255.56
 20
57.38
 10
257.19
 20
58.22
 10
257.95
 20
58.77
 10
258.66
 20
59.4
 10
259.88
 20
60.88
 10
260.82
 20
62.64
 10
261.23
 20
64.35
 10
261.36
 20
66.06
 10
261.36
 20
205.92
 10
261.19
 20
207.69
 10
260.69
 20
209.43
 10
259.84
 20
211.03
 10
259.29
 20
211.75
 10
258.66
 20
212.4
 10
257.22
 20
213.61
 10
255.62
 20
214.52
 10
253.93
 20
215.08
 10
252.18
 20
215.28
 10
112.32
 20
215.28
 10
110.55
 20
215.11
 97
0
 75
1
 76
1
 98
0
  0
LWPOLYLINE
  5
31
330
17
100
AcDbEntity
  8
FILL_BLACK_000000
370
0
420
0
100
AcDbPolyline
 90
63
 70
1
 10
255.9
 20
219.32
 10
257.22
 20
218.88
 10
258.53
 20
218.28
 10
259.76
 20
217.55
 10
260.89
 20
216.73
 10
261.9
 20
215.82
 10
262.91
 20
214.71
 10
263.79
 20
213.53
 10
264.53
 20
212.28
 10
265.14
 20
210.96
 10
265.58
 20
209.72
 10
265.86
 20
208.44
 10
266.04
 20
205.92
 10
266.04
 20
66.06
 10
265.86
 20
63.52
 10
265.58
 20
62.19
 10
265.14
 20
60.84
 10
264.53
 20
59.53
 10
263.79
 20
58.3
 10
262.91
 20
57.17
 10
261.9
 20
56.16
 10
260.89
 20
55.15
 10
259.76
 20
54.29
 10
258.53
 20
53.6
 10
257.22
 20
53.1
 10
255.9
 20
52.63
 10
254.63
 20
52.29
 10
253.4
 20
52.09
 10
252.18
 20
52.02
 10
112.32
 20
52.02
 10
111.0
 20
52.09
 10
109.71
 20
52.29
 10
108.42
 20
52.63
 10
107.1
 20
53.1
 10
105.79
 20
53.6
 10
104.56
 20
54.29
 10
103.43
 20
55.15
 10
102.42
 20
56.16
 10
101.41
 20
57.19
 10
100.53
 20
58.37
 10
99.79
 20
59.6
 10
99.18
 20
60.84
 10
98.74
 20
62.19
 10
98.46
 20
63.52
 10
98.28
 20
66.06
 10
98.28
 20
205.92
 10
98.46
 20
208.44
 10
98.74
 20
209.72
 10
99.18
 20
210.96
 10
99.79
 20
212.28
 10
100.53
 20
213.53
 10
101.41
 20
214.71
 10
102.42
 20
215.82
 10
103.43
 20
216.73
 10
104.56
 20
217.55
 10
105.79
 20
218.28
 10
107.1
 20
218.88
 10
108.42
 20
219.32
 10
109.71
 20
219.6
 10
111.0
 20
219.74
 10
112.32
 20
219.78
 10
252.18
 20
219.78
 10
254.63
 20
219.6
  0
LWPOLYLINE
  5
32
330
17
100
AcDbEntity
  8
FILL_BLACK_000000
370
0
420
0
100
AcDbPolyline
 90
42
 70
1
 10
110.55
 20
215.11
 10
108.79
 20
214.58
 10
107.94
 20
214.18
 10
107.13
 20
213.69
 10
106.37
 20
213.09
 10
105.66
 20
212.4
 10
104.45
 20
210.94
 10
103.5
 20
209.34
 10
103.1
 20
207.56
 10
102.96
 20
205.92
 10
102.96
 20
66.06
 10
103.1
 20
64.31
 10
103.57
 20
62.6
 10
104.4
 20
60.95
 10
104.98
 20
60.16
 10
105.66
 20
59.4
 10
106.37
 20
58.77
 10
107.13
 20
58.22
 10
108.79
 20
57.38
 10
110.55
 20
56.87
 10
112.32
 20
56.7
 10
252.18
 20
56.7
 10
253.85
 20
56.87
 10
255.56
 20
57.38
 10
257.19
 20
58.22
 10
257.95
 20
58.77
 10
258.66
 20
59.4
 10
259.88
 20
60.88
 10
260.82
 20
62.64
 10
261.23
 20
64.35
 10
261.36
 20
66.06
 10
261.36
 20
205.92
 10
261.19
 20
207.69
 10
260.69
 20
209.43
 10
259.84
 20
211.03
 10
259.29
 20
211.75
 10
258.66
 20
212.4
 10
257.22
 20
213.61
 10
255.62
 20
214.52
 10
253.93
 20
215.08
 10
252.18
 20
215.28
 10
112.32
 20
215.28
  0
HATCH
  5
34
330
17
100
AcDbEntity
  8
FILL_PINK_E1E1E1
 62
7
420
14803425
100
AcDbHatch
 10
0.0
 20
0.0
 30
0.0
210
0.0
220
0.0
230
1.0
  2
SOLID
 70
1
 71
0
 91
1
 92
3
 72
0
 73
1
 93
43
 10
252.18
 20
215.28
 10
253.82
 20
215.06
 10
255.6
 20
214.56
 10
257.2
 20
213.68
 10
257.95
 20
213.12
 10
258.66
 20
212.4
 10
259.88
 20
210.94
 10
260.82
 20
209.34
 10
261.23
 20
207.56
 10
261.36
 20
205.92
 10
261.36
 20
66.06
 10
261.22
 20
64.31
 10
260.75
 20
62.6
 10
259.92
 20
60.95
 10
259.34
 20
60.16
 10
258.66
 20
59.4
 10
257.95
 20
58.77
 10
257.19
 20
58.22
 10
255.56
 20
57.38
 10
253.85
 20
56.87
 10
252.18
 20
56.7
 10
112.32
 20
56.7
 10
110.55
 20
56.87
 10
108.79
 20
57.38
 10
107.13
 20
58.22
 10
106.37
 20
58.77
 10
105.66
 20
59.4
 10
104.98
 20
60.16
 10
104.4
 20
60.95
 10
103.57
 20
62.6
 10
103.1
 20
64.31
 10
102.96
 20
66.06
 10
102.96
 20
205.92
 10
103.13
 20
207.69
 10
103.64
 20
209.43
 10
104.48
 20
211.03
 10
105.03
 20
211.75
 10
105.66
 20
212.4
 10
107.11
 20
213.61
 10
108.72
 20
214.52
 10
110.47
 20
215.08
 10
112.32
 20
215.28
 10
252.18
 20
215.28
 97
0
 75
1
 76
1
 98
0
  0
LWPOLYLINE
  5
35
330
17
100
AcDbEntity
  8
FILL_PINK_E1E1E1
370
0
420
14803425
100
AcDbPolyline
 90
42
 70
1
 10
252.18
 20
215.28
 10
253.82
 20
215.06
 10
255.6
 20
214.56
 10
257.2
 20
213.68
 10
257.95
 20
213.12
 10
258.66
 20
212.4
 10
259.88
 20
210.94
 10
260.82
 20
209.34
 10
261.23
 20
207.56
 10
261.36
 20
205.92
 10
261.36
 20
66.06
 10
261.22
 20
64.31
 10
260.75
 20
62.6
 10
259.92
 20
60.95
 10
259.34
 20
60.16
 10
258.66
 20
59.4
 10
257.95
 20
58.77
 10
257.19
 20
58.22
 10
255.56
 20
57.38
 10
253.85
 20
56.87
 10
252.18
 20
56.7
 10
112.32
 20
56.7
 10
110.55
 20
56.87
 10
108.79
 20
57.38
 10
107.13
 20
58.22
 10
106.37
 20
58.77
 10
105.66
 20
59.4
 10
104.98
 20
60.16
 10
104.4
 20
60.95
 10
103.57
 20
62.6
 10
103.1
 20
64.31
 10
102.96
 20
66.06
 10
102.96
 20
205.92
 10
103.13
 20
207.69
 10
103.64
 20
209.43
 10
104.48
 20
211.03
 10
105.03
 20
211.75
 10
105.66
 20
212.4
 10
107.11
 20
213.61
 10
108.72
 20
214.52
 10
110.47
 20
215.08
 10
112.32
 20
215.28
  0
HATCH
  5
36
330
17
100
AcDbEntity
  8
FILL_BLACK_000000
 62
7
420
0
100
AcDbHatch
 10
0.0
 20
0.0
 30
0.0
210
0.0
220
0.0
230
1.0
  2
SOLID
 70
1
 71
0
 91
1
 92
3
 72
0
 73
1
 93
5
 10
186.84
 20
201.24
 10
196.2
 20
201.24
 10
200.88
 20
168.66
 10
186.84
 20
168.66
 10
186.84
 20
201.24
 97
0
 75
1
 76
1
 98
0
  0
LWPOLYLINE
  5
37
330
17
100
AcDbEntity
  8
FILL_BLACK_000000
370
0
420
0
100
AcDbPolyline
 90
4
 70
1
 10
186.84
 20
201.24
 10
196.2
 20
201.24
 10
200.88
 20
168.66
 10
186.84
 20
168.66
  0
HATCH
  5
38
330
17
100
AcDbEntity
  8
FILL_BLACK_000000
 62
7
420
0
100
AcDbHatch
 10
0.0
 20
0.0
 30
0.0
210
0.0
220
0.0
230
1.0
  2
SOLID
 70
1
 71
0
 91
1
 92
3
 72
0
 73
1
 93
45
 10
247.5
 20
149.94
 10
238.14
 20
149.94
 10
237.24
 20
149.83
 10
236.34
 20
149.58
 10
235.55
 20
149.18
 10
234.9
 20
148.5
 10
234.23
 20
147.85
 10
233.82
 20
147.06
 10
233.51
 20
146.09
 10
233.46
 20
145.26
 10
233.46
 20
131.22
 10
224.1
 20
131.22
 10
220.32
 20
146.34
 10
220.12
 20
147.11
 10
219.78
 20
147.8
 10
219.31
 20
148.39
 10
218.7
 20
148.86
 10
218.0
 20
149.33
 10
217.26
 20
149.67
 10
216.52
 20
149.87
 10
215.82
 20
149.94
 10
148.5
 20
149.94
 10
147.8
 20
149.87
 10
147.06
 20
149.67
 10
146.32
 20
149.33
 10
145.62
 20
148.86
 10
145.01
 20
148.39
 10
144.54
 20
147.8
 10
144.2
 20
147.11
 10
144.0
 20
146.34
 10
140.22
 20
131.22
 10
130.86
 20
131.22
 10
130.86
 20
145.26
 10
130.79
 20
146.1
 10
130.57
 20
146.95
 10
130.18
 20
147.77
 10
129.6
 20
148.5
 10
128.76
 20
149.18
 10
127.89
 20
149.63
 10
127.02
 20
149.87
 10
126.18
 20
149.94
 10
116.82
 20
149.94
 10
116.82
 20
159.3
 10
247.5
 20
159.3
 10
247.5
 20
149.94
 97
0
 75
1
 76
1
 98
0
  0
LWPOLYLINE
  5
39
330
17
100
AcDbEntity
  8
FILL_BLACK_000000
370
0
420
0
100
AcDbPolyline
 90
44
 70
1
 10
247.5
 20
149.94
 10
238.14
 20
149.94
 10
237.24
 20
149.83
 10
236.34
 20
149.58
 10
235.55
 20
149.18
 10
234.9
 20
148.5
 10
234.23
 20
147.85
 10
233.82
 20
147.06
 10
233.51
 20
146.09
 10
233.46
 20
145.26
 10
233.46
 20
131.22
 10
224.1
 20
131.22
 10
220.32
 20
146.34
 10
220.12
 20
147.11
 10
219.78
 20
147.8
 10
219.31
 20
148.39
 10
218.7
 20
148.86
 10
218.0
 20
149.33
 10
217.26
 20
149.67
 10
216.52
 20
149.87
 10
215.82
 20
149.94
 10
148.5
 20
149.94
 10
147.8
 20
149.87
 10
147.06
 20
149.67
 10
146.32
 20
149.33
 10
145.62
 20
148.86
 10
145.01
 20
148.39
 10
144.54
 20
147.8
 10
144.2
 20
147.11
 10
144.0
 20
146.34
 10
140.22
 20
131.22
 10
130.86
 20
131.22
 10
130.86
 20
145.26
 10
130.79
 20
146.1
 10
130.57
 20
146.95
 10
130.18
 20
147.77
 10
129.6
 20
148.5
 10
128.76
 20
149.18
 10
127.89
 20
149.63
 10
127.02
 20
149.87
 10
126.18
 20
149.94
 10
116.82
 20
149.94
 10
116.82
 20
159.3
 10
247.5
 20
159.3
  0
HATCH
  5
3A
330
17
100
AcDbEntity
  8
FILL_BLACK_000000
 62
7
420
0
100
AcDbHatch
 10
0.0
 20
0.0
 30
0.0
210
0.0
220
0.0
230
1.0
  2
SOLID
 70
1
 71
0
 91
1
 92
3
 72
0
 73
1
 93
5
 10
214.74
 20
70.74
 10
186.84
 20
70.74
 10
186.84
 20
140.58
 10
204.84
 20
140.58
 10
214.74
 20
70.74
 97
0
 75
1
 76
1
 98
0
  0
LWPOLYLINE
  5
3B
330
17
100
AcDbEntity
  8
FILL_BLACK_000000
370
0
420
0
100
AcDbPolyline
 90
4
 70
1
 10
214.74
 20
70.74
 10
186.84
 20
70.74
 10
186.84
 20
140.58
 10
204.84
 20
140.58
  0
HATCH
  5
3C
330
17
100
AcDbEntity
  8
FILL_BLACK_000000
 62
7
420
0
100
AcDbHatch
 10
0.0
 20
0.0
 30
0.0
210
0.0
220
0.0
230
1.0
  2
SOLID
 70
1
 71
0
 91
1
 92
3
 72
0
 73
1
 93
5
 10
177.48
 20
140.58
 10
177.48
 20
70.74
 10
149.58
 20
70.74
 10
159.48
 20
140.58
 10
177.48
 20
140.58
 97
0
 75
1
 76
1
 98
0
  0
LWPOLYLINE
  5
3D
330
17
100
AcDbEntity
  8
FILL_BLACK_000000
370
0
420
0
100
AcDbPolyline
 90
4
 70
1
 10
177.48
 20
140.58
 10
177.48
 20
70.74
 10
149.58
 20
70.74
 10
159.48
 20
140.58
  0
HATCH
  5
3E
330
17
100
AcDbEntity
  8
FILL_BLACK_000000
 62
7
420
0
100
AcDbHatch
 10
0.0
 20
0.0
 30
0.0
210
0.0
220
0.0
230
1.0
  2
SOLID
 70
1
 71
0
 91
1
 92
3
 72
0
 73
1
 93
5
 10
163.44
 20
168.66
 10
168.12
 20
201.24
 10
177.48
 20
201.24
 10
177.48
 20
168.66
 10
163.44
 20
168.66
 97
0
 75
1
 76
1
 98
0
  0
LWPOLYLINE
  5
3F
330
17
100
AcDbEntity
  8
FILL_BLACK_000000
370
0
420
0
100
AcDbPolyline
 90
4
 70
1
 10
163.44
 20
168.66
 10
168.12
 20
201.24
 10
177.48
 20
201.24
 10
177.48
 20
168.66
  0
HATCH
  5
40
330
17
100
AcDbEntity
  8
FILL_BLACK_000000
 62
7
420
0
100
AcDbHatch
 10
0.0
 20
0.0
 30
0.0
210
0.0
220
0.0
230
1.0
  2
SOLID
 70
1
 71
0
 91
1
 92
3
 72
0
 73
1
 93
68
 10
383.18
 20
53.2
 10
378.99
 20
54.56
 10
374.81
 20
56.1
 10
370.62
 20
57.78
 10
366.57
 20
59.74
 10
362.54
 20
61.83
 10
358.55
 20
64.06
 10
354.6
 20
66.42
 10
350.73
 20
69.07
 10
346.95
 20
71.88
 10
343.28
 20
74.86
 10
339.73
 20
78.01
 10
336.3
 20
81.31
 10
333.01
 20
84.77
 10
329.87
 20
88.39
 10
326.88
 20
92.16
 10
324.0
 20
96.0
 10
321.31
 20
99.95
 10
318.81
 20
103.99
 10
316.49
 20
108.14
 10
314.35
 20
112.36
 10
312.4
 20
116.66
 10
310.64
 20
121.03
 10
309.06
 20
125.46
 10
307.68
 20
129.92
 10
306.5
 20
134.37
 10
305.52
 20
138.82
 10
304.74
 20
143.28
 10
304.14
 20
147.7
 10
303.68
 20
152.08
 10
303.4
 20
156.42
 10
303.3
 20
160.74
 10
303.3
 20
219.78
 10
471.24
 20
219.78
 10
471.24
 20
160.74
 10
471.14
 20
156.42
 10
470.86
 20
152.08
 10
470.4
 20
147.7
 10
469.8
 20
143.28
 10
469.02
 20
138.82
 10
468.05
 20
134.37
 10
466.86
 20
129.92
 10
465.48
 20
125.46
 10
463.9
 20
121.03
 10
462.14
 20
116.66
 10
460.2
 20
112.36
 10
458.08
 20
108.14
 10
455.78
 20
103.99
 10
453.3
 20
99.95
 10
450.66
 20
96.0
 10
447.84
 20
92.16
 10
444.8
 20
88.39
 10
441.63
 20
84.77
 10
438.33
 20
81.31
 10
434.9
 20
78.01
 10
431.35
 20
74.86
 10
427.67
 20
71.88
 10
423.86
 20
69.07
 10
419.94
 20
66.42
 10
415.99
 20
64.06
 10
412.0
 20
61.83
 10
407.97
 20
59.74
 10
403.92
 20
57.78
 10
399.74
 20
56.1
 10
395.57
 20
54.56
 10
391.44
 20
53.2
 10
387.36
 20
52.02
 10
383.18
 20
53.2
 97
0
 75
1
 76
1
 98
0
  0
LWPOLYLINE
  5
41
330
17
100
AcDbEntity
  8
FILL_BLACK_000000
370
0
420
0
100
AcDbPolyline
 90
67
 70
1
 10
383.18
 20
53.2
 10
378.99
 20
54.56
 10
374.81
 20
56.1
 10
370.62
 20
57.78
 10
366.57
 20
59.74
 10
362.54
 20
61.83
 10
358.55
 20
64.06
 10
354.6
 20
66.42
 10
350.73
 20
69.07
 10
346.95
 20
71.88
 10
343.28
 20
74.86
 10
339.73
 20
78.01
 10
336.3
 20
81.31
 10
333.01
 20
84.77
 10
329.87
 20
88.39
 10
326.88
 20
92.16
 10
324.0
 20
96.0
 10
321.31
 20
99.95
 10
318.81
 20
103.99
 10
316.49
 20
108.14
 10
314.35
 20
112.36
 10
312.4
 20
116.66
 10
310.64
 20
121.03
 10
309.06
 20
125.46
 10
307.68
 20
129.92
 10
306.5
 20
134.37
 10
305.52
 20
138.82
 10
304.74
 20
143.28
 10
304.14
 20
147.7
 10
303.68
 20
152.08
 10
303.4
 20
156.42
 10
303.3
 20
160.74
 10
303.3
 20
219.78
 10
471.24
 20
219.78
 10
471.24
 20
160.74
 10
471.14
 20
156.42
 10
470.86
 20
152.08
 10
470.4
 20
147.7
 10
469.8
 20
143.28
 10
469.02
 20
138.82
 10
468.05
 20
134.37
 10
466.86
 20
129.92
 10
465.48
 20
125.46
 10
463.9
 20
121.03
 10
462.14
 20
116.66
 10
460.2
 20
112.36
 10
458.08
 20
108.14
 10
455.78
 20
103.99
 10
453.3
 20
99.95
 10
450.66
 20
96.0
 10
447.84
 20
92.16
 10
444.8
 20
88.39
 10
441.63
 20
84.77
 10
438.33
 20
81.31
 10
434.9
 20
78.01
 10
431.35
 20
74.86
 10
427.67
 20
71.88
 10
423.86
 20
69.07
 10
419.94
 20
66.42
 10
415.99
 20
64.06
 10
412.0
 20
61.83
 10
407.97
 20
59.74
 10
403.92
 20
57.78
 10
399.74
 20
56.1
 10
395.57
 20
54.56
 10
391.44
 20
53.2
 10
387.36
 20
52.02
  0
HATCH
  5
42
330
17
100
AcDbEntity
  8
FILL_PINK_E1E1E1
 62
7
420
14803425
100
AcDbHatch
 10
0.0
 20
0.0
 30
0.0
210
0.0
220
0.0
230
1.0
  2
SOLID
 70
1
 71
0
 91
2
 92
3
 72
0
 73
1
 93
146
 10
369.23
 20
156.94
 10
369.8
 20
157.69
 10
370.62
 20
158.4
 10
371.5
 20
159.04
 10
372.53
 20
159.64
 10
375.12
 20
160.74
 10
378.18
 20
161.53
 10
381.78
 20
162.18
 10
385.54
 20
162.43
 10
389.7
 20
162.54
 10
393.44
 20
162.4
 10
397.1
 20
161.98
 10
400.66
 20
161.25
 10
404.1
 20
160.2
 10
407.4
 20
158.82
 10
410.51
 20
157.12
 10
413.39
 20
155.11
 10
414.72
 20
154.0
 10
415.98
 20
152.82
 10
418.27
 20
150.15
 10
420.28
 20
147.29
 10
421.98
 20
144.21
 10
423.36
 20
140.94
 10
423.99
 20
139.24
 10
424.51
 20
137.5
 10
425.3
 20
133.94
 10
425.74
 20
130.28
 10
425.88
 20
126.54
 10
425.88
 20
123.84
 10
425.71
 20
119.79
 10
425.22
 20
115.89
 10
424.4
 20
112.15
 10
423.27
 20
108.58
 10
421.84
 20
105.2
 10
420.11
 20
102.02
 10
418.09
 20
99.05
 10
415.8
 20
96.3
 10
413.25
 20
93.88
 10
410.46
 20
91.76
 10
407.46
 20
89.93
 10
404.26
 20
88.43
 10
400.88
 20
87.24
 10
397.35
 20
86.38
 10
393.67
 20
85.86
 10
389.88
 20
85.68
 10
387.22
 20
85.74
 10
384.64
 20
85.91
 10
382.14
 20
86.19
 10
379.73
 20
86.59
 10
377.39
 20
87.1
 10
375.14
 20
87.73
 10
372.97
 20
88.47
 10
370.89
 20
89.33
 10
368.89
 20
90.29
 10
366.98
 20
91.38
 10
365.15
 20
92.57
 10
363.4
 20
93.88
 10
361.75
 20
95.31
 10
360.18
 20
96.84
 10
358.69
 20
98.49
 10
357.3
 20
100.26
 10
355.96
 20
102.17
 10
354.71
 20
104.2
 10
353.55
 20
106.34
 10
352.47
 20
108.59
 10
351.48
 20
110.96
 10
350.58
 20
113.44
 10
349.77
 20
116.03
 10
349.04
 20
118.73
 10
348.4
 20
121.55
 10
347.85
 20
124.47
 10
347.38
 20
127.51
 10
347.0
 20
130.66
 10
346.49
 20
137.29
 10
346.32
 20
144.36
 10
346.49
 20
150.43
 10
346.97
 20
156.22
 10
347.76
 20
161.7
 10
348.84
 20
166.86
 10
349.56
 20
169.31
 10
350.36
 20
171.66
 10
351.24
 20
173.91
 10
352.22
 20
176.06
 10
353.27
 20
178.13
 10
354.41
 20
180.1
 10
355.63
 20
181.98
 10
356.94
 20
183.78
 10
358.27
 20
185.42
 10
359.7
 20
186.98
 10
361.21
 20
188.43
 10
362.81
 20
189.79
 10
364.49
 20
191.03
 10
366.23
 20
192.16
 10
368.04
 20
193.16
 10
369.9
 20
194.04
 10
371.88
 20
194.86
 10
373.92
 20
195.56
 10
376.01
 20
196.15
 10
378.16
 20
196.63
 10
380.36
 20
196.99
 10
382.63
 20
197.25
 10
384.96
 20
197.41
 10
387.36
 20
197.46
 10
390.24
 20
197.37
 10
393.06
 20
197.09
 10
395.81
 20
196.62
 10
398.5
 20
195.98
 10
401.11
 20
195.14
 10
403.64
 20
194.12
 10
406.08
 20
192.91
 10
408.42
 20
191.52
 10
410.64
 20
189.96
 10
412.72
 20
188.26
 10
414.62
 20
186.38
 10
416.34
 20
184.32
 10
418.02
 20
182.09
 10
419.56
 20
179.73
 10
420.92
 20
177.23
 10
422.1
 20
174.6
 10
403.38
 20
165.6
 10
401.44
 20
168.15
 10
399.42
 20
170.38
 10
397.32
 20
172.3
 10
395.17
 20
173.88
 10
392.97
 20
175.13
 10
390.75
 20
176.03
 10
388.51
 20
176.58
 10
386.28
 20
176.76
 10
384.24
 20
176.62
 10
382.3
 20
176.32
 10
380.48
 20
175.86
 10
378.77
 20
175.23
 10
377.17
 20
174.44
 10
375.7
 20
173.47
 10
374.35
 20
172.33
 10
373.14
 20
171.0
 10
372.1
 20
169.55
 10
371.16
 20
167.94
 10
370.36
 20
166.19
 10
369.72
 20
164.34
 10
369.2
 20
162.25
 10
368.82
 20
160.02
 10
368.64
 20
157.68
 10
368.64
 20
155.34
 10
368.85
 20
156.15
 10
369.23
 20
156.94
 97
0
 92
18
 72
0
 73
1
 93
65
 10
384.48
 20
141.73
 10
382.86
 20
141.34
 10
381.24
 20
140.76
 10
379.76
 20
140.01
 10
378.32
 20
139.12
 10
376.94
 20
138.05
 10
375.66
 20
136.8
 10
374.62
 20
135.49
 10
373.68
 20
134.03
 10
372.88
 20
132.47
 10
372.24
 20
130.86
 10
371.77
 20
129.1
 10
371.43
 20
127.33
 10
371.23
 20
125.52
 10
371.16
 20
123.66
 10
371.24
 20
121.74
 10
371.46
 20
119.89
 10
371.82
 20
118.11
 10
372.33
 20
116.42
 10
372.97
 20
114.8
 10
373.74
 20
113.28
 10
374.64
 20
111.85
 10
375.66
 20
110.52
 10
376.86
 20
109.37
 10
378.18
 20
108.37
 10
379.59
 20
107.5
 10
381.08
 20
106.79
 10
382.65
 20
106.22
 10
384.29
 20
105.81
 10
385.98
 20
105.56
 10
387.72
 20
105.48
 10
389.34
 20
105.55
 10
390.96
 20
105.77
 10
392.58
 20
106.16
 10
394.2
 20
106.74
 10
395.68
 20
107.41
 10
397.1
 20
108.29
 10
398.43
 20
109.35
 10
399.6
 20
110.52
 10
400.74
 20
111.91
 10
401.74
 20
113.38
 10
402.56
 20
114.95
 10
403.2
 20
116.64
 10
403.67
 20
118.39
 10
404.01
 20
120.15
 10
404.21
 20
121.91
 10
404.28
 20
123.66
 10
404.21
 20
125.52
 10
404.01
 20
127.33
 10
403.67
 20
129.1
 10
403.2
 20
130.86
 10
402.56
 20
132.47
 10
401.74
 20
134.03
 10
400.74
 20
135.49
 10
399.6
 20
136.8
 10
398.43
 20
138.05
 10
397.1
 20
139.12
 10
395.68
 20
140.01
 10
394.2
 20
140.76
 10
392.58
 20
141.34
 10
390.96
 20
141.73
 10
389.34
 20
141.95
 10
387.72
 20
142.02
 10
386.1
 20
141.95
 10
384.48
 20
141.73
 97
0
 75
1
 76
1
 98
0
  0
LWPOLYLINE
  5
43
330
17
100
AcDbEntity
  8
FILL_PINK_E1E1E1
370
0
420
14803425
100
AcDbPolyline
 90
145
 70
1
 10
369.23
 20
156.94
 10
369.8
 20
157.69
 10
370.62
 20
158.4
 10
371.5
 20
159.04
 10
372.53
 20
159.64
 10
375.12
 20
160.74
 10
378.18
 20
161.53
 10
381.78
 20
162.18
 10
385.54
 20
162.43
 10
389.7
 20
162.54
 10
393.44
 20
162.4
 10
397.1
 20
161.98
 10
400.66
 20
161.25
 10
404.1
 20
160.2
 10
407.4
 20
158.82
 10
410.51
 20
157.12
 10
413.39
 20
155.11
 10
414.72
 20
154.0
 10
415.98
 20
152.82
 10
418.27
 20
150.15
 10
420.28
 20
147.29
 10
421.98
 20
144.21
 10
423.36
 20
140.94
 10
423.99
 20
139.24
 10
424.51
 20
137.5
 10
425.3
 20
133.94
 10
425.74
 20
130.28
 10
425.88
 20
126.54
 10
425.88
 20
123.84
 10
425.71
 20
119.79
 10
425.22
 20
115.89
 10
424.4
 20
112.15
 10
423.27
 20
108.58
 10
421.84
 20
105.2
 10
420.11
 20
102.02
 10
418.09
 20
99.05
 10
415.8
 20
96.3
 10
413.25
 20
93.88
 10
410.46
 20
91.76
 10
407.46
 20
89.93
 10
404.26
 20
88.43
 10
400.88
 20
87.24
 10
397.35
 20
86.38
 10
393.67
 20
85.86
 10
389.88
 20
85.68
 10
387.22
 20
85.74
 10
384.64
 20
85.91
 10
382.14
 20
86.19
 10
379.73
 20
86.59
 10
377.39
 20
87.1
 10
375.14
 20
87.73
 10
372.97
 20
88.47
 10
370.89
 20
89.33
 10
368.89
 20
90.29
 10
366.98
 20
91.38
 10
365.15
 20
92.57
 10
363.4
 20
93.88
 10
361.75
 20
95.31
 10
360.18
 20
96.84
 10
358.69
 20
98.49
 10
357.3
 20
100.26
 10
355.96
 20
102.17
 10
354.71
 20
104.2
 10
353.55
 20
106.34
 10
352.47
 20
108.59
 10
351.48
 20
110.96
 10
350.58
 20
113.44
 10
349.77
 20
116.03
 10
349.04
 20
118.73
 10
348.4
 20
121.55
 10
347.85
 20
124.47
 10
347.38
 20
127.51
 10
347.0
 20
130.66
 10
346.49
 20
137.29
 10
346.32
 20
144.36
 10
346.49
 20
150.43
 10
346.97
 20
156.22
 10
347.76
 20
161.7
 10
348.84
 20
166.86
 10
349.56
 20
169.31
 10
350.36
 20
171.66
 10
351.24
 20
173.91
 10
352.22
 20
176.06
 10
353.27
 20
178.13
 10
354.41
 20
180.1
 10
355.63
 20
181.98
 10
356.94
 20
183.78
 10
358.27
 20
185.42
 10
359.7
 20
186.98
 10
361.21
 20
188.43
 10
362.81
 20
189.79
 10
364.49
 20
191.03
 10
366.23
 20
192.16
 10
368.04
 20
193.16
 10
369.9
 20
194.04
 10
371.88
 20
194.86
 10
373.92
 20
195.56
 10
376.01
 20
196.15
 10
378.16
 20
196.63
 10
380.36
 20
196.99
 10
382.63
 20
197.25
 10
384.96
 20
197.41
 10
387.36
 20
197.46
 10
390.24
 20
197.37
 10
393.06
 20
197.09
 10
395.81
 20
196.62
 10
398.5
 20
195.98
 10
401.11
 20
195.14
 10
403.64
 20
194.12
 10
406.08
 20
192.91
 10
408.42
 20
191.52
 10
410.64
 20
189.96
 10
412.72
 20
188.26
 10
414.62
 20
186.38
 10
416.34
 20
184.32
 10
418.02
 20
182.09
 10
419.56
 20
179.73
 10
420.92
 20
177.23
 10
422.1
 20
174.6
 10
403.38
 20
165.6
 10
401.44
 20
168.15
 10
399.42
 20
170.38
 10
397.32
 20
172.3
 10
395.17
 20
173.88
 10
392.97
 20
175.13
 10
390.75
 20
176.03
 10
388.51
 20
176.58
 10
386.28
 20
176.76
 10
384.24
 20
176.62
 10
382.3
 20
176.32
 10
380.48
 20
175.86
 10
378.77
 20
175.23
 10
377.17
 20
174.44
 10
375.7
 20
173.47
 10
374.35
 20
172.33
 10
373.14
 20
171.0
 10
372.1
 20
169.55
 10
371.16
 20
167.94
 10
370.36
 20
166.19
 10
369.72
 20
164.34
 10
369.2
 20
162.25
 10
368.82
 20
160.02
 10
368.64
 20
157.68
 10
368.64
 20
155.34
 10
368.85
 20
156.15
  0
LWPOLYLINE
  5
44
330
17
100
AcDbEntity
  8
FILL_PINK_E1E1E1
370
0
420
14803425
100
AcDbPolyline
 90
64
 70
1
 10
384.48
 20
141.73
 10
382.86
 20
141.34
 10
381.24
 20
140.76
 10
379.76
 20
140.01
 10
378.32
 20
139.12
 10
376.94
 20
138.05
 10
375.66
 20
136.8
 10
374.62
 20
135.49
 10
373.68
 20
134.03
 10
372.88
 20
132.47
 10
372.24
 20
130.86
 10
371.77
 20
129.1
 10
371.43
 20
127.33
 10
371.23
 20
125.52
 10
371.16
 20
123.66
 10
371.24
 20
121.74
 10
371.46
 20
119.89
 10
371.82
 20
118.11
 10
372.33
 20
116.42
 10
372.97
 20
114.8
 10
373.74
 20
113.28
 10
374.64
 20
111.85
 10
375.66
 20
110.52
 10
376.86
 20
109.37
 10
378.18
 20
108.37
 10
379.59
 20
107.5
 10
381.08
 20
106.79
 10
382.65
 20
106.22
 10
384.29
 20
105.81
 10
385.98
 20
105.56
 10
387.72
 20
105.48
 10
389.34
 20
105.55
 10
390.96
 20
105.77
 10
392.58
 20
106.16
 10
394.2
 20
106.74
 10
395.68
 20
107.41
 10
397.1
 20
108.29
 10
398.43
 20
109.35
 10
399.6
 20
110.52
 10
400.74
 20
111.91
 10
401.74
 20
113.38
 10
402.56
 20
114.95
 10
403.2
 20
116.64
 10
403.67
 20
118.39
 10
404.01
 20
120.15
 10
404.21
 20
121.91
 10
404.28
 20
123.66
 10
404.21
 20
125.52
 10
404.01
 20
127.33
 10
403.67
 20
129.1
 10
403.2
 20
130.86
 10
402.56
 20
132.47
 10
401.74
 20
134.03
 10
400.74
 20
135.49
 10
399.6
 20
136.8
 10
398.43
 20
138.05
 10
397.1
 20
139.12
 10
395.68
 20
140.01
 10
394.2
 20
140.76
 10
392.58
 20
141.34
 10
390.96
 20
141.73
 10
389.34
 20
141.95
 10
387.72
 20
142.02
 10
386.1
 20
141.95
  0
LWPOLYLINE
  5
46
330
17
100
AcDbEntity
  8
STROKE_BLACK_000000
370
0
420
0
100
AcDbPolyline
 90
17
 70
0
 10
517.8599999999999
 20
238.5
 10
517.7624853515624
 20
240.4010302734375
 10
517.4764453124999
 20
242.2501171875
 10
517.0116357421873
 20
244.0375048828125
 10
516.3778124999999
 20
245.7534375
 10
515.5847314453124
 20
247.3881591796875
 10
514.6421484374998
 20
248.9319140625
 10
513.5598193359374
 20
250.3749462890625
 10
512.3474999999999
 20
251.7075
 10
511.0149462890624
 20
252.91981933593752
 10
509.5719140624999
 20
254.0021484375
 10
508.02815917968735
 20
254.9447314453125
 10
506.3934374999999
 20
255.73781250000002
 10
504.67750488281234
 20
256.3716357421875
 10
502.89011718749987
 20
256.8364453125
 10
501.0410302734374
 20
257.1224853515625
 10
499.1399999999999
 20
257.22
  0
LWPOLYLINE
  5
47
330
17
100
AcDbEntity
  8
STROKE_BLACK_000000
370
0
420
0
100
AcDbPolyline
 90
2
 70
0
 10
517.8599999999999
 20
33.30000000000004
 10
517.8599999999999
 20
238.50000000000003
  0
LWPOLYLINE
  5
48
330
17
100
AcDbEntity
  8
STROKE_BLACK_000000
370
0
420
0
100
AcDbPolyline
 90
17
 70
0
 10
499.1400000000001
 20
14.759999999999991
 10
501.04103027343757
 20
14.855493164062523
 10
502.8901171875001
 20
15.135820312500016
 10
504.67750488281257
 20
15.591752929687459
 10
506.39343750000006
 20
16.214062499999983
 10
508.02815917968763
 20
16.99352050781249
 10
509.57191406250007
 20
17.9208984375
 10
511.0149462890626
 20
18.9869677734375
 10
512.3475000000001
 20
20.182499999999976
 10
513.5598193359376
 20
21.498266601562477
 10
514.6421484375002
 20
22.92503906249999
 10
515.5847314453126
 20
24.453588867187477
 10
516.3778125000001
 20
26.07468750000001
 10
517.0116357421877
 20
27.779106445312493
 10
517.4764453125001
 20
29.5576171875
 10
517.7624853515626
 20
31.40099121093749
 10
517.8600000000001
 20
33.29999999999998
  0
LWPOLYLINE
  5
49
330
17
100
AcDbEntity
  8
STROKE_BLACK_000000
370
0
420
0
100
AcDbPolyline
 90
2
 70
0
 10
70.20000000000005
 20
14.759999999999991
 10
499.14000000000004
 20
14.759999999999991
  0
LWPOLYLINE
  5
4A
330
17
100
AcDbEntity
  8
STROKE_BLACK_000000
370
0
420
0
100
AcDbPolyline
 90
17
 70
0
 10
51.66000000000031
 20
33.30000000000004
 10
51.75549316406281
 20
31.400991210937548
 10
52.03582031250031
 20
29.557617187500057
 10
52.491752929687806
 20
27.77910644531255
 10
53.11406250000031
 20
26.074687500000067
 10
53.8935205078128
 20
24.453588867187563
 10
54.820898437500304
 20
22.925039062500048
 10
55.88696777343781
 20
21.498266601562563
 10
57.08250000000031
 20
20.182500000000005
 10
58.39826660156281
 20
18.986967773437556
 10
59.82503906250031
 20
17.92089843750003
 10
61.35358886718781
 20
16.993520507812548
 10
62.9746875000003
 20
16.214062500000068
 10
64.67910644531281
 20
15.591752929687573
 10
66.4576171875003
 20
15.135820312500073
 10
68.30099121093781
 20
14.855493164062523
 10
70.2000000000003
 20
14.760000000000048
  0
LWPOLYLINE
  5
4B
330
17
100
AcDbEntity
  8
STROKE_BLACK_000000
370
0
420
0
100
AcDbPolyline
 90
2
 70
0
 10
51.66000000000031
 20
238.5
 10
51.66000000000031
 20
33.30000000000001
  0
LWPOLYLINE
  5
4C
330
17
100
AcDbEntity
  8
STROKE_BLACK_000000
370
0
420
0
100
AcDbPolyline
 90
17
 70
0
 10
70.20000000000005
 20
257.22
 10
68.30099121093754
 20
257.1224853515625
 10
66.45761718750006
 20
256.8364453125
 10
64.67910644531256
 20
256.3716357421875
 10
62.974687500000044
 20
255.7378125
 10
61.35358886718754
 20
254.9447314453125
 10
59.82503906250005
 20
254.0021484375
 10
58.39826660156254
 20
252.9198193359375
 10
57.082500000000046
 20
251.7075
 10
55.88696777343755
 20
250.3749462890625
 10
54.82089843750005
 20
248.9319140625
 10
53.89352050781255
 20
247.3881591796875
 10
53.114062500000045
 20
245.7534375
 10
52.49175292968754
 20
244.0375048828125
 10
52.03582031250005
 20
242.2501171875
 10
51.75549316406254
 20
240.4010302734375
 10
51.660000000000046
 20
238.5
  0
LWPOLYLINE
  5
4D
330
17
100
AcDbEntity
  8
STROKE_BLACK_000000
370
0
420
0
100
AcDbPolyline
 90
2
 70
0
 10
499.1400000000001
 20
257.22
 10
70.2000000000001
 20
257.22
  0
ENDSEC
  0
SECTION
  2
OBJECTS
  0
DICTIONARY
  5
A
330
0
100
AcDbDictionary
281
1
  3
ACAD_COLOR
350
B
  3
ACAD_GROUP
350
C
  3
ACAD_LAYOUT
350
D
  3
ACAD_MATERIAL
350
E
  3
ACAD_MLEADERSTYLE
350
F
  3
ACAD_MLINESTYLE
350
10
  3
ACAD_PLOTSETTINGS
350
11
  3
ACAD_PLOTSTYLENAME
350
12
  3
ACAD_SCALELIST
350
14
  3
ACAD_TABLESTYLE
350
15
  3
ACAD_VISUALSTYLE
350
16
  3
EZDXF_META
350
2D
  0
DICTIONARY
  5
B
330
A
100
AcDbDictionary
281
1
  0
DICTIONARY
  5
C
330
A
100
AcDbDictionary
281
1
  0
DICTIONARY
  5
D
330
A
100
AcDbDictionary
281
1
  3
Model
350
1A
  3
Layout1
350
1E
  0
DICTIONARY
  5
E
330
A
100
AcDbDictionary
281
1
  3
ByBlock
350
1F
  3
ByLayer
350
20
  3
Global
350
21
  0
DICTIONARY
  5
F
330
A
100
AcDbDictionary
281
1
  3
Standard
350
2C
  0
DICTIONARY
  5
10
330
A
100
AcDbDictionary
281
1
  3
Standard
350
22
  0
DICTIONARY
  5
11
330
A
100
AcDbDictionary
281
1
  0
ACDBDICTIONARYWDFLT
  5
12
330
A
100
AcDbDictionary
281
1
  3
Normal
350
13
100
AcDbDictionaryWithDefault
340
13
  0
ACDBPLACEHOLDER
  5
13
330
12
  0
DICTIONARY
  5
14
330
A
100
AcDbDictionary
281
1
  0
DICTIONARY
  5
15
330
A
100
AcDbDictionary
281
1
  0
DICTIONARY
  5
16
330
A
100
AcDbDictionary
281
1
  0
LAYOUT
  5
1A
330
D
100
AcDbPlotSettings
  1

  4
A3
  6

 40
7.5
 41
20.0
 42
7.5
 43
20.0
 44
420.0
 45
297.0
 46
0.0
 47
0.0
 48
0.0
 49
0.0
140
0.0
141
0.0
142
1.0
143
1.0
 70
1024
 72
1
 73
0
 74
5
  7

 75
16
 76
0
 77
2
 78
300
147
1.0
148
0.0
149
0.0
100
AcDbLayout
  1
Model
 70
1
 71
0
 10
0.0
 20
0.0
 11
420.0
 21
297.0
 12
0.0
 22
0.0
 32
0.0
 14
1e+20
 24
1e+20
 34
1e+20
 15
-1e+20
 25
-1e+20
 35
-1e+20
146
0.0
 13
0.0
 23
0.0
 33
0.0
 16
1.0
 26
0.0
 36
0.0
 17
0.0
 27
1.0
 37
0.0
 76
1
330
17
  0
LAYOUT
  5
1E
330
D
100
AcDbPlotSettings
  1

  4
A3
  6

 40
7.5
 41
20.0
 42
7.5
 43
20.0
 44
420.0
 45
297.0
 46
0.0
 47
0.0
 48
0.0
 49
0.0
140
0.0
141
0.0
142
1.0
143
1.0
 70
0
 72
1
 73
0
 74
5
  7

 75
16
 76
0
 77
2
 78
300
147
1.0
148
0.0
149
0.0
100
AcDbLayout
  1
Layout1
 70
1
 71
1
 10
0.0
 20
0.0
 11
420.0
 21
297.0
 12
0.0
 22
0.0
 32
0.0
 14
1e+20
 24
1e+20
 34
1e+20
 15
-1e+20
 25
-1e+20
 35
-1e+20
146
0.0
 13
0.0
 23
0.0
 33
0.0
 16
1.0
 26
0.0
 36
0.0
 17
0.0
 27
1.0
 37
0.0
 76
1
330
1B
  0
MATERIAL
  5
1F
102
{ACAD_REACTORS
330
E
102
}
330
E
100
AcDbMaterial
  1
ByBlock
  2

 70
0
 40
1.0
 71
1
 41
1.0
 91
-1023410177
 42
1.0
 72
1
  3

 73
1
 74
1
 75
1
 44
0.5
 73
0
 45
1.0
 46
1.0
 77
1
  4

 78
1
 79
1
170
1
 48
1.0
171
1
  6

172
1
173
1
174
1
140
1.0
141
1.0
175
1
  7

176
1
177
1
178
1
143
1.0
179
1
  8

270
1
271
1
272
1
145
1.0
146
1.0
273
1
  9

274
1
275
1
276
1
 42
1.0
 72
1
  3

 73
1
 74
1
 75
1
 94
63
  0
MATERIAL
  5
20
102
{ACAD_REACTORS
330
E
102
}
330
E
100
AcDbMaterial
  1
ByLayer
  2

 70
0
 40
1.0
 71
1
 41
1.0
 91
-1023410177
 42
1.0
 72
1
  3

 73
1
 74
1
 75
1
 44
0.5
 73
0
 45
1.0
 46
1.0
 77
1
  4

 78
1
 79
1
170
1
 48
1.0
171
1
  6

172
1
173
1
174
1
140
1.0
141
1.0
175
1
  7

176
1
177
1
178
1
143
1.0
179
1
  8

270
1
271
1
272
1
145
1.0
146
1.0
273
1
  9

274
1
275
1
276
1
 42
1.0
 72
1
  3

 73
1
 74
1
 75
1
 94
63
  0
MATERIAL
  5
21
102
{ACAD_REACTORS
330
E
102
}
330
E
100
AcDbMaterial
  1
Global
  2

 70
0
 40
1.0
 71
1
 41
1.0
 91
-1023410177
 42
1.0
 72
1
  3

 73
1
 74
1
 75
1
 44
0.5
 73
0
 45
1.0
 46
1.0
 77
1
  4

 78
1
 79
1
170
1
 48
1.0
171
1
  6

172
1
173
1
174
1
140
1.0
141
1.0
175
1
  7

176
1
177
1
178
1
143
1.0
179
1
  8

270
1
271
1
272
1
145
1.0
146
1.0
273
1
  9

274
1
275
1
276
1
 42
1.0
 72
1
  3

 73
1
 74
1
 75
1
 94
63
  0
MLINESTYLE
  5
22
102
{ACAD_REACTORS
330
10
102
}
330
10
100
AcDbMlineStyle
  2
Standard
 70
0
  3

 62
256
 51
90.0
 52
90.0
 71
2
 49
0.5
 62
256
  6
BYLAYER
 49
-0.5
 62
256
  6
BYLAYER
  0
MLEADERSTYLE
  5
2C
102
{ACAD_REACTORS
330
F
102
}
330
F
100
AcDbMLeaderStyle
179
2
170
2
171
1
172
0
 90
2
 40
0.0
 41
0.0
173
1
 91
-1056964608
 92
-2
290
1
 42
2.0
291
1
 43
8.0
  3
Standard
 44
4.0
300

342
29
174
1
175
1
176
0
178
1
 93
-1056964608
 45
4.0
292
0
297
0
 46
4.0
 94
-1056964608
 47
1.0
 49
1.0
140
1.0
294
1
141
0.0
177
0
142
1.0
295
0
296
0
143
3.75
271
0
272
9
273
9
  0
DICTIONARY
  5
2D
330
A
100
AcDbDictionary
280
1
281
1
  3
CREATED_BY_EZDXF
350
2E
  3
WRITTEN_BY_EZDXF
350
50
  0
DICTIONARYVAR
  5
2E
330
2D
100
DictionaryVariables
280
0
  1
1.4.4 @ 2026-07-10T01:53:57.321261+00:00
  0
DICTIONARYVAR
  5
50
330
2D
100
DictionaryVariables
280
0
  1
1.4.4 @ 2026-07-10T01:53:57.324661+00:00
  0
ENDSEC
  0
EOF
