  0
SECTION
  2
HEADER
  9
$ACADVER
  1
AC1024
  9
$ACADMAINTVER
 70
6
  9
$DWGCODEPAGE
  3
ANSI_1252
  9
$LASTSAVEDBY
  1
ezdxf
  9
$INSBASE
 10
0.0
 20
0.0
 30
0.0
  9
$EXTMIN
 10
1e+20
 20
1e+20
 30
1e+20
  9
$EXTMAX
 10
-1e+20
 20
-1e+20
 30
-1e+20
  9
$LIMMIN
 10
0.0
 20
0.0
  9
$LIMMAX
 10
420.0
 20
297.0
  9
$ORTHOMODE
 70
0
  9
$REGENMODE
 70
1
  9
$FILLMODE
 70
1
  9
$QTEXTMODE
 70
0
  9
$MIRRTEXT
 70
1
  9
$LTSCALE
 40
1.0
  9
$ATTMODE
 70
1
  9
$TEXTSIZE
 40
2.5
  9
$TRACEWID
 40
1.0
  9
$TEXTSTYLE
  7
Standard
  9
$CLAYER
  8
0
  9
$CELTYPE
  6
ByLayer
  9
$CECOLOR
 62
256
  9
$CELTSCALE
 40
1.0
  9
$DISPSILH
 70
0
  9
$DIMSCALE
 40
1.0
  9
$DIMASZ
 40
2.5
  9
$DIMEXO
 40
0.625
  9
$DIMDLI
 40
3.75
  9
$DIMRND
 40
0.0
  9
$DIMDLE
 40
0.0
  9
$DIMEXE
 40
1.25
  9
$DIMTP
 40
0.0
  9
$DIMTM
 40
0.0
  9
$DIMTXT
 40
2.5
  9
$DIMCEN
 40
2.5
  9
$DIMTSZ
 40
0.0
  9
$DIMTOL
 70
0
  9
$DIMLIM
 70
0
  9
$DIMTIH
 70
0
  9
$DIMTOH
 70
0
  9
$DIMSE1
 70
0
  9
$DIMSE2
 70
0
  9
$DIMTAD
 70
1
  9
$DIMZIN
 70
8
  9
$DIMBLK
  1

  9
$DIMASO
 70
1
  9
$DIMSHO
 70
1
  9
$DIMPOST
  1

  9
$DIMAPOST
  1

  9
$DIMALT
 70
0
  9
$DIMALTD
 70
3
  9
$DIMALTF
 40
0.03937007874
  9
$DIMLFAC
 40
1.0
  9
$DIMTOFL
 70
1
  9
$DIMTVP
 40
0.0
  9
$DIMTIX
 70
0
  9
$DIMSOXD
 70
0
  9
$DIMSAH
 70
0
  9
$DIMBLK1
  1

  9
$DIMBLK2
  1

  9
$DIMSTYLE
  2
ISO-25
  9
$DIMCLRD
 70
0
  9
$DIMCLRE
 70
0
  9
$DIMCLRT
 70
0
  9
$DIMTFAC
 40
1.0
  9
$DIMGAP
 40
0.625
  9
$DIMJUST
 70
0
  9
$DIMSD1
 70
0
  9
$DIMSD2
 70
0
  9
$DIMTOLJ
 70
0
  9
$DIMTZIN
 70
8
  9
$DIMALTZ
 70
0
  9
$DIMALTTZ
 70
0
  9
$DIMUPT
 70
0
  9
$DIMDEC
 70
2
  9
$DIMTDEC
 70
2
  9
$DIMALTU
 70
2
  9
$DIMALTTD
 70
3
  9
$DIMTXSTY
  7
Standard
  9
$DIMAUNIT
 70
0
  9
$DIMADEC
 70
0
  9
$DIMALTRND
 40
0.0
  9
$DIMAZIN
 70
0
  9
$DIMDSEP
 70
44
  9
$DIMATFIT
 70
3
  9
$DIMFRAC
 70
0
  9
$DIMLDRBLK
  1

  9
$DIMLUNIT
 70
2
  9
$DIMLWD
 70
-2
  9
$DIMLWE
 70
-2
  9
$DIMTMOVE
 70
0
  9
$DIMFXL
 40
1.0
  9
$DIMFXLON
 70
0
  9
$DIMJOGANG
 40
0.785398163397
  9
$DIMTFILL
 70
0
  9
$DIMTFILLCLR
 70
0
  9
$DIMARCSYM
 70
0
  9
$DIMLTYPE
  6

  9
$DIMLTEX1
  6

  9
$DIMLTEX2
  6

  9
$DIMTXTDIRECTION
 70
0
  9
$LUNITS
 70
2
  9
$LUPREC
 70
4
  9
$SKETCHINC
 40
1.0
  9
$FILLETRAD
 40
10.0
  9
$AUNITS
 70
0
  9
$AUPREC
 70
2
  9
$MENU
  1
.
  9
$ELEVATION
 40
0.0
  9
$PELEVATION
 40
0.0
  9
$THICKNESS
 40
0.0
  9
$LIMCHECK
 70
0
  9
$CHAMFERA
 40
0.0
  9
$CHAMFERB
 40
0.0
  9
$CHAMFERC
 40
0.0
  9
$CHAMFERD
 40
0.0
  9
$SKPOLY
 70
0
  9
$TDCREATE
 40
2461232.4124652776
  9
$TDUCREATE
 40
2458532.153996898
  9
$TDUPDATE
 40
2461232.4124652776
  9
$TDUUPDATE
 40
2458532.1544311
  9
$TDINDWG
 40
0.0
  9
$TDUSRTIMER
 40
0.0
  9
$USRTIMER
 70
1
  9
$ANGBASE
 50
0.0
  9
$ANGDIR
 70
0
  9
$PDMODE
 70
0
  9
$PDSIZE
 40
0.0
  9
$PLINEWID
 40
0.0
  9
$SPLFRAME
 70
0
  9
$SPLINETYPE
 70
6
  9
$SPLINESEGS
 70
8
  9
$HANDSEED
  5
5F
  9
$SURFTAB1
 70
6
  9
$SURFTAB2
 70
6
  9
$SURFTYPE
 70
6
  9
$SURFU
 70
6
  9
$SURFV
 70
6
  9
$UCSBASE
  2

  9
$UCSNAME
  2

  9
$UCSORG
 10
0.0
 20
0.0
 30
0.0
  9
$UCSXDIR
 10
1.0
 20
0.0
 30
0.0
  9
$UCSYDIR
 10
0.0
 20
1.0
 30
0.0
  9
$UCSORTHOREF
  2

  9
$UCSORTHOVIEW
 70
0
  9
$UCSORGTOP
 10
0.0
 20
0.0
 30
0.0
  9
$UCSORGBOTTOM
 10
0.0
 20
0.0
 30
0.0
  9
$UCSORGLEFT
 10
0.0
 20
0.0
 30
0.0
  9
$UCSORGRIGHT
 10
0.0
 20
0.0
 30
0.0
  9
$UCSORGFRONT
 10
0.0
 20
0.0
 30
0.0
  9
$UCSORGBACK
 10
0.0
 20
0.0
 30
0.0
  9
$PUCSBASE
  2

  9
$PUCSNAME
  2

  9
$PUCSORG
 10
0.0
 20
0.0
 30
0.0
  9
$PUCSXDIR
 10
1.0
 20
0.0
 30
0.0
  9
$PUCSYDIR
 10
0.0
 20
1.0
 30
0.0
  9
$PUCSORTHOREF
  2

  9
$PUCSORTHOVIEW
 70
0
  9
$PUCSORGTOP
 10
0.0
 20
0.0
 30
0.0
  9
$PUCSORGBOTTOM
 10
0.0
 20
0.0
 30
0.0
  9
$PUCSORGLEFT
 10
0.0
 20
0.0
 30
0.0
  9
$PUCSORGRIGHT
 10
0.0
 20
0.0
 30
0.0
  9
$PUCSORGFRONT
 10
0.0
 20
0.0
 30
0.0
  9
$PUCSORGBACK
 10
0.0
 20
0.0
 30
0.0
  9
$USERI1
 70
0
  9
$USERI2
 70
0
  9
$USERI3
 70
0
  9
$USERI4
 70
0
  9
$USERI5
 70
0
  9
$USERR1
 40
0.0
  9
$USERR2
 40
0.0
  9
$USERR3
 40
0.0
  9
$USERR4
 40
0.0
  9
$USERR5
 40
0.0
  9
$WORLDVIEW
 70
1
  9
$SHADEDGE
 70
3
  9
$SHADEDIF
 70
70
  9
$TILEMODE
 70
1
  9
$MAXACTVP
 70
64
  9
$PINSBASE
 10
0.0
 20
0.0
 30
0.0
  9
$PLIMCHECK
 70
0
  9
$PEXTMIN
 10
1e+20
 20
1e+20
 30
1e+20
  9
$PEXTMAX
 10
-1e+20
 20
-1e+20
 30
-1e+20
  9
$PLIMMIN
 10
0.0
 20
0.0
  9
$PLIMMAX
 10
420.0
 20
297.0
  9
$UNITMODE
 70
0
  9
$VISRETAIN
 70
1
  9
$PLINEGEN
 70
0
  9
$PSLTSCALE
 70
1
  9
$TREEDEPTH
 70
3020
  9
$CMLSTYLE
  2
Standard
  9
$CMLJUST
 70
0
  9
$CMLSCALE
 40
20.0
  9
$PROXYGRAPHICS
 70
1
  9
$MEASUREMENT
 70
1
  9
$CELWEIGHT
370
-1
  9
$ENDCAPS
280
0
  9
$JOINSTYLE
280
0
  9
$LWDISPLAY
290
0
  9
$INSUNITS
 70
6
  9
$HYPERLINKBASE
  1

  9
$STYLESHEET
  1

  9
$XEDIT
290
1
  9
$CEPSNTYPE
380
0
  9
$PSTYLEMODE
290
1
  9
$FINGERPRINTGUID
  2
{6A8D4CF5-F340-4AF3-B51F-56A8B4E513C3}
  9
$VERSIONGUID
  2
{4A2989BA-6EC1-42C1-B068-6B576FCE6FD9}
  9
$EXTNAMES
290
1
  9
$PSVPSCALE
 40
0.0
  9
$OLESTARTUP
290
0
  9
$SORTENTS
280
127
  9
$INDEXCTL
280
0
  9
$HIDETEXT
280
1
  9
$XCLIPFRAME
280
1
  9
$HALOGAP
280
0
  9
$OBSCOLOR
 70
257
  9
$OBSLTYPE
280
0
  9
$INTERSECTIONDISPLAY
280
0
  9
$INTERSECTIONCOLOR
 70
257
  9
$DIMASSOC
280
2
  9
$PROJECTNAME
  1

  9
$CAMERADISPLAY
290
0
  9
$LENSLENGTH
 40
50.0
  9
$CAMERAHEIGHT
 40
0.0
  9
$STEPSPERSEC
 40
24.0
  9
$STEPSIZE
 40
100.0
  9
$3DDWFPREC
 40
2.0
  9
$PSOLWIDTH
 40
0.005
  9
$PSOLHEIGHT
 40
0.08
  9
$LOFTANG1
 40
1.570796326795
  9
$LOFTANG2
 40
1.570796326795
  9
$LOFTMAG1
 40
0.0
  9
$LOFTMAG2
 40
0.0
  9
$LOFTPARAM
 70
7
  9
$LOFTNORMALS
280
1
  9
$LATITUDE
 40
37.795
  9
$LONGITUDE
 40
-122.394
  9
$NORTHDIRECTION
 40
0.0
  9
$TIMEZONE
 70
-8000
  9
$LIGHTGLYPHDISPLAY
280
1
  9
$TILEMODELIGHTSYNCH
280
1
  9
$CMATERIAL
347
20
  9
$SOLIDHIST
280
0
  9
$SHOWHIST
280
1
  9
$DWFFRAME
280
2
  9
$DGNFRAME
280
2
  9
$REALWORLDSCALE
290
1
  9
$INTERFERECOLOR
 62
256
  9
$CSHADOW
280
0
  9
$SHADOWPLANELOCATION
 40
0.0
  0
ENDSEC
  0
SECTION
  2
CLASSES
  0
CLASS
  1
ACDBDICTIONARYWDFLT
  2
AcDbDictionaryWithDefault
  3
ObjectDBX Classes
 90
0
 91
0
280
0
281
0
  0
CLASS
  1
SUN
  2
AcDbSun
  3
SCENEOE
 90
1153
 91
0
280
0
281
0
  0
CLASS
  1
VISUALSTYLE
  2
AcDbVisualStyle
  3
ObjectDBX Classes
 90
4095
 91
0
280
0
281
0
  0
CLASS
  1
MATERIAL
  2
AcDbMaterial
  3
ObjectDBX Classes
 90
1153
 91
0
280
0
281
0
  0
CLASS
  1
SCALE
  2
AcDbScale
  3
ObjectDBX Classes
 90
1153
 91
0
280
0
281
0
  0
CLASS
  1
TABLESTYLE
  2
AcDbTableStyle
  3
ObjectDBX Classes
 90
4095
 91
0
280
0
281
0
  0
CLASS
  1
MLEADERSTYLE
  2
AcDbMLeaderStyle
  3
ACDB_MLEADERSTYLE_CLASS
 90
4095
 91
0
280
0
281
0
  0
CLASS
  1
DICTIONARYVAR
  2
AcDbDictionaryVar
  3
ObjectDBX Classes
 90
0
 91
0
280
0
281
0
  0
CLASS
  1
CELLSTYLEMAP
  2
AcDbCellStyleMap
  3
ObjectDBX Classes
 90
1152
 91
0
280
0
281
0
  0
CLASS
  1
MENTALRAYRENDERSETTINGS
  2
AcDbMentalRayRenderSettings
  3
SCENEOE
 90
1024
 91
0
280
0
281
0
  0
CLASS
  1
ACDBDETAILVIEWSTYLE
  2
AcDbDetailViewStyle
  3
ObjectDBX Classes
 90
1025
 91
0
280
0
281
0
  0
CLASS
  1
ACDBSECTIONVIEWSTYLE
  2
AcDbSectionViewStyle
  3
ObjectDBX Classes
 90
1025
 91
0
280
0
281
0
  0
CLASS
  1
RASTERVARIABLES
  2
AcDbRasterVariables
  3
ISM
 90
0
 91
0
280
0
281
0
  0
CLASS
  1
ACDBPLACEHOLDER
  2
AcDbPlaceHolder
  3
ObjectDBX Classes
 90
0
 91
0
280
0
281
0
  0
CLASS
  1
LAYOUT
  2
AcDbLayout
  3
ObjectDBX Classes
 90
0
 91
0
280
0
281
0
  0
ENDSEC
  0
SECTION
  2
TABLES
  0
TABLE
  2
VPORT
  5
8
330
0
100
AcDbSymbolTable
 70
1
  0
VPORT
  5
23
330
8
100
AcDbSymbolTableRecord
100
AcDbViewportTableRecord
  2
*Active
 70
0
 10
0.0
 20
0.0
 11
1.0
 21
1.0
 12
0.0
 22
0.0
 13
0.0
 23
0.0
 14
0.5
 24
0.5
 15
0.5
 25
0.5
 16
0.0
 26
0.0
 36
1.0
 17
0.0
 27
0.0
 37
0.0
 40
1000.0
 41
1.34
 42
50.0
 43
0.0
 44
0.0
 50
0.0
 51
0.0
 71
0
 72
1000
 73
1
 74
3
 75
0
 76
0
 77
0
 78
0
281
0
 65
0
146
0.0
  0
ENDTAB
  0
TABLE
  2
LTYPE
  5
2
330
0
100
AcDbSymbolTable
 70
3
  0
LTYPE
  5
24
330
2
100
AcDbSymbolTableRecord
100
AcDbLinetypeTableRecord
  2
ByBlock
 70
0
  3

 72
65
 73
0
 40
0.0
  0
LTYPE
  5
25
330
2
100
AcDbSymbolTableRecord
100
AcDbLinetypeTableRecord
  2
ByLayer
 70
0
  3

 72
65
 73
0
 40
0.0
  0
LTYPE
  5
26
330
2
100
AcDbSymbolTableRecord
100
AcDbLinetypeTableRecord
  2
Continuous
 70
0
  3

 72
65
 73
0
 40
0.0
  0
ENDTAB
  0
TABLE
  2
LAYER
  5
1
330
0
100
AcDbSymbolTable
 70
5
  0
LAYER
  5
27
330
1
100
AcDbSymbolTableRecord
100
AcDbLayerTableRecord
  2
0
 70
0
 62
7
  6
Continuous
370
-3
390
13
347
21
  0
LAYER
  5
28
330
1
100
AcDbSymbolTableRecord
100
AcDbLayerTableRecord
  2
Defpoints
 70
0
 62
7
  6
Continuous
290
0
370
-3
390
13
347
21
  0
LAYER
  5
2F
330
1
100
AcDbSymbolTableRecord
100
AcDbLayerTableRecord
  2
FILL_WHITE_FFFFFF
 70
0
 62
7
420
16777215
  6
Continuous
370
-3
390
13
347
21
  0
LAYER
  5
32
330
1
100
AcDbSymbolTableRecord
100
AcDbLayerTableRecord
  2
FILL_LIME_00FF00
 70
0
 62
7
420
65280
  6
Continuous
370
-3
390
13
347
21
  0
LAYER
  5
53
330
1
100
AcDbSymbolTableRecord
100
AcDbLayerTableRecord
  2
STROKE_LIME_00FF00
 70
0
 62
7
420
65280
  6
Continuous
370
-3
390
13
347
21
  0
ENDTAB
  0
TABLE
  2
STYLE
  5
5
330
0
100
AcDbSymbolTable
 70
1
  0
STYLE
  5
29
330
5
100
AcDbSymbolTableRecord
100
AcDbTextStyleTableRecord
  2
Standard
 70
0
 40
0.0
 41
1.0
 50
0.0
 71
0
 42
2.5
  3
txt
  4

  0
ENDTAB
  0
TABLE
  2
VIEW
  5
7
330
0
100
AcDbSymbolTable
 70
0
  0
ENDTAB
  0
TABLE
  2
UCS
  5
6
330
0
100
AcDbSymbolTable
 70
0
  0
ENDTAB
  0
TABLE
  2
APPID
  5
3
330
0
100
AcDbSymbolTable
 70
3
  0
APPID
  5
2A
330
3
100
AcDbSymbolTableRecord
100
AcDbRegAppTableRecord
  2
ACAD
 70
0
  0
APPID
  5
5C
330
3
100
AcDbSymbolTableRecord
100
AcDbRegAppTableRecord
  2
HATCHBACKGROUNDCOLOR
 70
0
  0
APPID
  5
5D
330
3
100
AcDbSymbolTableRecord
100
AcDbRegAppTableRecord
  2
EZDXF
 70
0
  0
ENDTAB
  0
TABLE
  2
DIMSTYLE
  5
4
330
0
100
AcDbSymbolTable
 70
1
100
AcDbDimStyleTable
  0
DIMSTYLE
105
2B
330
4
100
AcDbSymbolTableRecord
100
AcDbDimStyleTableRecord
  2
Standard
 70
0
 40
1.0
 41
2.5
 42
0.625
 43
3.75
 44
1.25
 45
0.0
 46
0.0
 47
0.0
 48
0.0
 49
2.5
140
2.5
141
2.5
142
0.0
143
0.03937007874
144
1.0
145
0.0
146
1.0
147
0.625
148
0.0
 69
0
 70
0
 71
0
 72
0
 73
0
 74
0
 75
0
 76
0
 77
1
 78
8
 79
3
170
0
171
3
172
1
173
0
174
0
175
0
176
0
177
0
178
0
179
2
271
2
272
2
273
2
274
3
275
0
276
0
277
2
278
44
279
0
280
0
281
0
282
0
283
0
284
8
285
0
286
0
288
0
289
3
290
0
371
-2
372
-2
  0
ENDTAB
  0
TABLE
  2
BLOCK_RECORD
  5
9
330
0
100
AcDbSymbolTable
 70
2
  0
BLOCK_RECORD
  5
17
330
9
100
AcDbSymbolTableRecord
100
AcDbBlockTableRecord
  2
*Model_Space
340
1A
 70
0
280
1
281
0
  0
BLOCK_RECORD
  5
1B
330
9
100
AcDbSymbolTableRecord
100
AcDbBlockTableRecord
  2
*Paper_Space
340
1E
 70
0
280
1
281
0
  0
ENDTAB
  0
ENDSEC
  0
SECTION
  2
BLOCKS
  0
BLOCK
  5
18
330
17
100
AcDbEntity
  8
0
100
AcDbBlockBegin
  2
*Model_Space
 70
0
 10
0.0
 20
0.0
 30
0.0
  3
*Model_Space
  1

  0
ENDBLK
  5
19
330
17
100
AcDbEntity
  8
0
100
AcDbBlockEnd
  0
BLOCK
  5
1C
330
1B
100
AcDbEntity
  8
0
100
AcDbBlockBegin
  2
*Paper_Space
 70
0
 10
0.0
 20
0.0
 30
0.0
  3
*Paper_Space
  1

  0
ENDBLK
  5
1D
330
1B
100
AcDbEntity
  8
0
100
AcDbBlockEnd
  0
ENDSEC
  0
SECTION
  2
ENTITIES
  0
HATCH
  5
30
330
17
100
AcDbEntity
  8
FILL_WHITE_FFFFFF
 62
7
420
16777215
100
AcDbHatch
 10
0.0
 20
0.0
 30
0.0
210
0.0
220
0.0
230
1.0
  2
SOLID
 70
1
 71
0
 91
1
 92
3
 72
0
 73
1
 93
56
 10
145.07
 20
7.26
 10
143.9
 20
7.43
 10
142.75
 20
7.71
 10
141.65
 20
8.1
 10
140.59
 20
8.59
 10
139.6
 20
9.17
 10
138.67
 20
9.85
 10
137.82
 20
10.62
 10
136.99
 20
11.53
 10
136.27
 20
12.5
 10
135.65
 20
13.53
 10
135.14
 20
14.6
 10
134.74
 20
15.72
 10
134.45
 20
16.87
 10
134.28
 20
18.05
 10
134.22
 20
19.26
 10
134.22
 20
252.9
 10
134.28
 20
253.98
 10
134.47
 20
255.06
 10
135.12
 20
257.22
 10
135.59
 20
258.37
 10
136.2
 20
259.43
 10
136.94
 20
260.41
 10
137.82
 20
261.36
 10
138.69
 20
262.14
 10
139.67
 20
262.85
 10
141.78
 20
264.06
 10
142.96
 20
264.4
 10
144.1
 20
264.62
 10
146.28
 20
264.78
 10
422.76
 20
264.78
 10
425.01
 20
264.62
 10
426.15
 20
264.4
 10
427.26
 20
264.06
 10
429.4
 20
262.85
 10
431.4
 20
261.36
 10
432.89
 20
259.43
 10
433.53
 20
258.37
 10
434.1
 20
257.22
 10
434.44
 20
256.14
 10
434.66
 20
255.06
 10
434.82
 20
252.9
 10
434.82
 20
19.26
 10
434.66
 20
17.01
 10
434.44
 20
15.87
 10
434.1
 20
14.76
 10
432.89
 20
12.62
 10
431.4
 20
10.62
 10
429.4
 20
9.16
 10
428.34
 20
8.57
 10
427.26
 20
8.1
 10
426.15
 20
7.66
 10
425.01
 20
7.38
 10
422.76
 20
7.2
 10
146.28
 20
7.2
 10
145.07
 20
7.26
 97
0
 75
1
 76
1
 98
0
  0
LWPOLYLINE
  5
31
330
17
100
AcDbEntity
  8
FILL_WHITE_FFFFFF
370
0
420
16777215
100
AcDbPolyline
 90
55
 70
1
 10
145.07
 20
7.26
 10
143.9
 20
7.43
 10
142.75
 20
7.71
 10
141.65
 20
8.1
 10
140.59
 20
8.59
 10
139.6
 20
9.17
 10
138.67
 20
9.85
 10
137.82
 20
10.62
 10
136.99
 20
11.53
 10
136.27
 20
12.5
 10
135.65
 20
13.53
 10
135.14
 20
14.6
 10
134.74
 20
15.72
 10
134.45
 20
16.87
 10
134.28
 20
18.05
 10
134.22
 20
19.26
 10
134.22
 20
252.9
 10
134.28
 20
253.98
 10
134.47
 20
255.06
 10
135.12
 20
257.22
 10
135.59
 20
258.37
 10
136.2
 20
259.43
 10
136.94
 20
260.41
 10
137.82
 20
261.36
 10
138.69
 20
262.14
 10
139.67
 20
262.85
 10
141.78
 20
264.06
 10
142.96
 20
264.4
 10
144.1
 20
264.62
 10
146.28
 20
264.78
 10
422.76
 20
264.78
 10
425.01
 20
264.62
 10
426.15
 20
264.4
 10
427.26
 20
264.06
 10
429.4
 20
262.85
 10
431.4
 20
261.36
 10
432.89
 20
259.43
 10
433.53
 20
258.37
 10
434.1
 20
257.22
 10
434.44
 20
256.14
 10
434.66
 20
255.06
 10
434.82
 20
252.9
 10
434.82
 20
19.26
 10
434.66
 20
17.01
 10
434.44
 20
15.87
 10
434.1
 20
14.76
 10
432.89
 20
12.62
 10
431.4
 20
10.62
 10
429.4
 20
9.16
 10
428.34
 20
8.57
 10
427.26
 20
8.1
 10
426.15
 20
7.66
 10
425.01
 20
7.38
 10
422.76
 20
7.2
 10
146.28
 20
7.2
  0
HATCH
  5
33
330
17
100
AcDbEntity
  8
FILL_LIME_00FF00
 62
7
420
65280
100
AcDbHatch
 10
0.0
 20
0.0
 30
0.0
210
0.0
220
0.0
230
1.0
  2
SOLID
 70
1
 71
0
 91
1
 92
3
 72
0
 73
1
 93
44
 10
239.34
 20
63.36
 10
233.4
 20
63.36
 10
183.18
 20
13.14
 10
146.28
 20
13.14
 10
145.17
 20
13.24
 10
144.05
 20
13.57
 10
142.96
 20
14.13
 10
141.96
 20
14.94
 10
141.25
 20
15.94
 10
140.75
 20
17.03
 10
140.44
 20
18.15
 10
140.34
 20
19.26
 10
140.34
 20
138.6
 10
229.98
 20
228.24
 10
232.04
 20
230.53
 10
233.87
 20
233.06
 10
235.47
 20
235.78
 10
236.82
 20
238.68
 10
237.45
 20
240.18
 10
237.97
 20
241.71
 10
238.76
 20
244.82
 10
239.2
 20
247.97
 10
239.34
 20
251.1
 10
239.34
 20
258.84
 10
422.76
 20
258.84
 10
423.94
 20
258.74
 10
425.06
 20
258.41
 10
426.1
 20
257.85
 10
427.08
 20
257.04
 10
427.89
 20
256.06
 10
428.45
 20
255.04
 10
428.78
 20
253.98
 10
428.88
 20
252.9
 10
428.88
 20
19.26
 10
428.78
 20
18.15
 10
428.45
 20
17.03
 10
427.89
 20
15.94
 10
427.08
 20
14.94
 10
426.1
 20
14.13
 10
425.06
 20
13.57
 10
423.94
 20
13.24
 10
422.76
 20
13.14
 10
239.34
 20
13.14
 10
239.34
 20
63.36
 97
0
 75
1
 76
1
 98
0
  0
LWPOLYLINE
  5
34
330
17
100
AcDbEntity
  8
FILL_LIME_00FF00
370
0
420
65280
100
AcDbPolyline
 90
43
 70
1
 10
239.34
 20
63.36
 10
233.4
 20
63.36
 10
183.18
 20
13.14
 10
146.28
 20
13.14
 10
145.17
 20
13.24
 10
144.05
 20
13.57
 10
142.96
 20
14.13
 10
141.96
 20
14.94
 10
141.25
 20
15.94
 10
140.75
 20
17.03
 10
140.44
 20
18.15
 10
140.34
 20
19.26
 10
140.34
 20
138.6
 10
229.98
 20
228.24
 10
232.04
 20
230.53
 10
233.87
 20
233.06
 10
235.47
 20
235.78
 10
236.82
 20
238.68
 10
237.45
 20
240.18
 10
237.97
 20
241.71
 10
238.76
 20
244.82
 10
239.2
 20
247.97
 10
239.34
 20
251.1
 10
239.34
 20
258.84
 10
422.76
 20
258.84
 10
423.94
 20
258.74
 10
425.06
 20
258.41
 10
426.1
 20
257.85
 10
427.08
 20
257.04
 10
427.89
 20
256.06
 10
428.45
 20
255.04
 10
428.78
 20
253.98
 10
428.88
 20
252.9
 10
428.88
 20
19.26
 10
428.78
 20
18.15
 10
428.45
 20
17.03
 10
427.89
 20
15.94
 10
427.08
 20
14.94
 10
426.1
 20
14.13
 10
425.06
 20
13.57
 10
423.94
 20
13.24
 10
422.76
 20
13.14
 10
239.34
 20
13.14
  0
HATCH
  5
35
330
17
100
AcDbEntity
  8
FILL_WHITE_FFFFFF
 62
7
420
16777215
100
AcDbHatch
 10
0.0
 20
0.0
 30
0.0
210
0.0
220
0.0
230
1.0
  2
SOLID
 70
1
 71
0
 91
1
 92
3
 72
0
 73
1
 93
10
 10
267.6
 20
248.76
 10
283.62
 20
232.74
 10
283.62
 20
216.54
 10
273.0
 20
227.34
 10
273.0
 20
23.22
 10
262.2
 20
23.22
 10
262.2
 20
227.34
 10
251.4
 20
216.54
 10
251.4
 20
232.74
 10
267.6
 20
248.76
 97
0
 75
1
 76
1
 98
0
  0
LWPOLYLINE
  5
36
330
17
100
AcDbEntity
  8
FILL_WHITE_FFFFFF
370
0
420
16777215
100
AcDbPolyline
 90
9
 70
1
 10
267.6
 20
248.76
 10
283.62
 20
232.74
 10
283.62
 20
216.54
 10
273.0
 20
227.34
 10
273.0
 20
23.22
 10
262.2
 20
23.22
 10
262.2
 20
227.34
 10
251.4
 20
216.54
 10
251.4
 20
232.74
  0
HATCH
  5
37
330
17
100
AcDbEntity
  8
FILL_WHITE_FFFFFF
 62
7
420
16777215
100
AcDbHatch
 10
0.0
 20
0.0
 30
0.0
210
0.0
220
0.0
230
1.0
  2
SOLID
 70
1
 71
0
 91
1
 92
3
 72
0
 73
1
 93
5
 10
239.34
 20
133.92
 10
239.34
 20
117.72
 10
233.4
 20
117.72
 10
233.4
 20
133.92
 10
239.34
 20
133.92
 97
0
 75
1
 76
1
 98
0
  0
LWPOLYLINE
  5
38
330
17
100
AcDbEntity
  8
FILL_WHITE_FFFFFF
370
0
420
16777215
100
AcDbPolyline
 90
4
 70
1
 10
239.34
 20
133.92
 10
239.34
 20
117.72
 10
233.4
 20
117.72
 10
233.4
 20
133.92
  0
HATCH
  5
39
330
17
100
AcDbEntity
  8
FILL_WHITE_FFFFFF
 62
7
420
16777215
100
AcDbHatch
 10
0.0
 20
0.0
 30
0.0
210
0.0
220
0.0
230
1.0
  2
SOLID
 70
1
 71
0
 91
1
 92
3
 72
0
 73
1
 93
5
 10
239.34
 20
109.62
 10
239.34
 20
93.6
 10
233.4
 20
93.6
 10
233.4
 20
109.62
 10
239.34
 20
109.62
 97
0
 75
1
 76
1
 98
0
  0
LWPOLYLINE
  5
3A
330
17
100
AcDbEntity
  8
FILL_WHITE_FFFFFF
370
0
420
16777215
100
AcDbPolyline
 90
4
 70
1
 10
239.34
 20
109.62
 10
239.34
 20
93.6
 10
233.4
 20
93.6
 10
233.4
 20
109.62
  0
HATCH
  5
3B
330
17
100
AcDbEntity
  8
FILL_WHITE_FFFFFF
 62
7
420
16777215
100
AcDbHatch
 10
0.0
 20
0.0
 30
0.0
210
0.0
220
0.0
230
1.0
  2
SOLID
 70
1
 71
0
 91
1
 92
3
 72
0
 73
1
 93
10
 10
154.74
 20
32.4
 10
202.26
 20
79.92
 10
186.96
 20
79.92
 10
198.48
 20
91.26
 10
221.16
 20
91.26
 10
221.16
 20
68.4
 10
209.82
 20
57.06
 10
209.82
 20
72.18
 10
162.3
 20
24.84
 10
154.74
 20
32.4
 97
0
 75
1
 76
1
 98
0
  0
LWPOLYLINE
  5
3C
330
17
100
AcDbEntity
  8
FILL_WHITE_FFFFFF
370
0
420
16777215
100
AcDbPolyline
 90
9
 70
1
 10
154.74
 20
32.4
 10
202.26
 20
79.92
 10
186.96
 20
79.92
 10
198.48
 20
91.26
 10
221.16
 20
91.26
 10
221.16
 20
68.4
 10
209.82
 20
57.06
 10
209.82
 20
72.18
 10
162.3
 20
24.84
  0
HATCH
  5
3D
330
17
100
AcDbEntity
  8
FILL_WHITE_FFFFFF
 62
7
420
16777215
100
AcDbHatch
 10
0.0
 20
0.0
 30
0.0
210
0.0
220
0.0
230
1.0
  2
SOLID
 70
1
 71
0
 91
1
 92
3
 72
0
 73
1
 93
5
 10
239.34
 20
85.5
 10
239.34
 20
69.48
 10
233.4
 20
69.48
 10
233.4
 20
85.5
 10
239.34
 20
85.5
 97
0
 75
1
 76
1
 98
0
  0
LWPOLYLINE
  5
3E
330
17
100
AcDbEntity
  8
FILL_WHITE_FFFFFF
370
0
420
16777215
100
AcDbPolyline
 90
4
 70
1
 10
239.34
 20
85.5
 10
239.34
 20
69.48
 10
233.4
 20
69.48
 10
233.4
 20
85.5
  0
HATCH
  5
3F
330
17
100
AcDbEntity
  8
FILL_WHITE_FFFFFF
 62
7
420
16777215
100
AcDbHatch
 10
0.0
 20
0.0
 30
0.0
210
0.0
220
0.0
230
1.0
  2
SOLID
 70
1
 71
0
 91
1
 92
3
 72
0
 73
1
 93
5
 10
204.42
 20
122.94
 10
208.74
 20
118.62
 10
191.64
 20
101.52
 10
187.32
 20
105.84
 10
204.42
 20
122.94
 97
0
 75
1
 76
1
 98
0
  0
LWPOLYLINE
  5
40
330
17
100
AcDbEntity
  8
FILL_WHITE_FFFFFF
370
0
420
16777215
100
AcDbPolyline
 90
4
 70
1
 10
204.42
 20
122.94
 10
208.74
 20
118.62
 10
191.64
 20
101.52
 10
187.32
 20
105.84
  0
HATCH
  5
41
330
17
100
AcDbEntity
  8
FILL_WHITE_FFFFFF
 62
7
420
16777215
100
AcDbHatch
 10
0.0
 20
0.0
 30
0.0
210
0.0
220
0.0
230
1.0
  2
SOLID
 70
1
 71
0
 91
1
 92
3
 72
0
 73
1
 93
5
 10
178.86
 20
97.2
 10
183.0
 20
93.06
 10
165.9
 20
75.96
 10
161.76
 20
80.1
 10
178.86
 20
97.2
 97
0
 75
1
 76
1
 98
0
  0
LWPOLYLINE
  5
42
330
17
100
AcDbEntity
  8
FILL_WHITE_FFFFFF
370
0
420
16777215
100
AcDbPolyline
 90
4
 70
1
 10
178.86
 20
97.2
 10
183.0
 20
93.06
 10
165.9
 20
75.96
 10
161.76
 20
80.1
  0
HATCH
  5
43
330
17
100
AcDbEntity
  8
FILL_WHITE_FFFFFF
 62
7
420
16777215
100
AcDbHatch
 10
0.0
 20
0.0
 30
0.0
210
0.0
220
0.0
230
1.0
  2
SOLID
 70
1
 71
0
 91
1
 92
3
 72
0
 73
1
 93
10
 10
154.74
 20
120.78
 10
202.26
 20
168.12
 10
186.96
 20
168.12
 10
198.48
 20
179.64
 10
221.16
 20
179.64
 10
221.16
 20
156.78
 10
209.82
 20
145.44
 10
209.82
 20
160.56
 10
162.3
 20
113.22
 10
154.74
 20
120.78
 97
0
 75
1
 76
1
 98
0
  0
LWPOLYLINE
  5
44
330
17
100
AcDbEntity
  8
FILL_WHITE_FFFFFF
370
0
420
16777215
100
AcDbPolyline
 90
9
 70
1
 10
154.74
 20
120.78
 10
202.26
 20
168.12
 10
186.96
 20
168.12
 10
198.48
 20
179.64
 10
221.16
 20
179.64
 10
221.16
 20
156.78
 10
209.82
 20
145.44
 10
209.82
 20
160.56
 10
162.3
 20
113.22
  0
HATCH
  5
45
330
17
100
AcDbEntity
  8
FILL_WHITE_FFFFFF
 62
7
420
16777215
100
AcDbHatch
 10
0.0
 20
0.0
 30
0.0
210
0.0
220
0.0
230
1.0
  2
SOLID
 70
1
 71
0
 91
1
 92
3
 72
0
 73
1
 93
5
 10
239.34
 20
226.8
 10
239.34
 20
210.78
 10
233.4
 20
210.78
 10
233.4
 20
226.8
 10
239.34
 20
226.8
 97
0
 75
1
 76
1
 98
0
  0
LWPOLYLINE
  5
46
330
17
100
AcDbEntity
  8
FILL_WHITE_FFFFFF
370
0
420
16777215
100
AcDbPolyline
 90
4
 70
1
 10
239.34
 20
226.8
 10
239.34
 20
210.78
 10
233.4
 20
210.78
 10
233.4
 20
226.8
  0
HATCH
  5
47
330
17
100
AcDbEntity
  8
FILL_WHITE_FFFFFF
 62
7
420
16777215
100
AcDbHatch
 10
0.0
 20
0.0
 30
0.0
210
0.0
220
0.0
230
1.0
  2
SOLID
 70
1
 71
0
 91
1
 92
3
 72
0
 73
1
 93
5
 10
239.34
 20
202.68
 10
239.34
 20
186.66
 10
233.4
 20
186.66
 10
233.4
 20
202.68
 10
239.34
 20
202.68
 97
0
 75
1
 76
1
 98
0
  0
LWPOLYLINE
  5
48
330
17
100
AcDbEntity
  8
FILL_WHITE_FFFFFF
370
0
420
16777215
100
AcDbPolyline
 90
4
 70
1
 10
239.34
 20
202.68
 10
239.34
 20
186.66
 10
233.4
 20
186.66
 10
233.4
 20
202.68
  0
HATCH
  5
49
330
17
100
AcDbEntity
  8
FILL_WHITE_FFFFFF
 62
7
420
16777215
100
AcDbHatch
 10
0.0
 20
0.0
 30
0.0
210
0.0
220
0.0
230
1.0
  2
SOLID
 70
1
 71
0
 91
1
 92
3
 72
0
 73
1
 93
5
 10
239.34
 20
178.56
 10
239.34
 20
162.54
 10
233.4
 20
162.54
 10
233.4
 20
178.56
 10
239.34
 20
178.56
 97
0
 75
1
 76
1
 98
0
  0
LWPOLYLINE
  5
4A
330
17
100
AcDbEntity
  8
FILL_WHITE_FFFFFF
370
0
420
16777215
100
AcDbPolyline
 90
4
 70
1
 10
239.34
 20
178.56
 10
239.34
 20
162.54
 10
233.4
 20
162.54
 10
233.4
 20
178.56
  0
HATCH
  5
4B
330
17
100
AcDbEntity
  8
FILL_WHITE_FFFFFF
 62
7
420
16777215
100
AcDbHatch
 10
0.0
 20
0.0
 30
0.0
210
0.0
220
0.0
230
1.0
  2
SOLID
 70
1
 71
0
 91
1
 92
3
 72
0
 73
1
 93
10
 10
311.88
 20
248.76
 10
328.08
 20
232.74
 10
328.08
 20
216.54
 10
317.28
 20
227.34
 10
317.28
 20
23.22
 10
306.48
 20
23.22
 10
306.48
 20
227.34
 10
295.86
 20
216.54
 10
295.86
 20
232.74
 10
311.88
 20
248.76
 97
0
 75
1
 76
1
 98
0
  0
LWPOLYLINE
  5
4C
330
17
100
AcDbEntity
  8
FILL_WHITE_FFFFFF
370
0
420
16777215
100
AcDbPolyline
 90
9
 70
1
 10
311.88
 20
248.76
 10
328.08
 20
232.74
 10
328.08
 20
216.54
 10
317.28
 20
227.34
 10
317.28
 20
23.22
 10
306.48
 20
23.22
 10
306.48
 20
227.34
 10
295.86
 20
216.54
 10
295.86
 20
232.74
  0
HATCH
  5
4D
330
17
100
AcDbEntity
  8
FILL_WHITE_FFFFFF
 62
7
420
16777215
100
AcDbHatch
 10
0.0
 20
0.0
 30
0.0
210
0.0
220
0.0
230
1.0
  2
SOLID
 70
1
 71
0
 91
1
 92
3
 72
0
 73
1
 93
10
 10
400.62
 20
248.76
 10
416.64
 20
232.74
 10
416.64
 20
216.54
 10
406.02
 20
227.34
 10
406.02
 20
23.22
 10
395.22
 20
23.22
 10
395.22
 20
227.34
 10
384.6
 20
216.54
 10
384.6
 20
232.74
 10
400.62
 20
248.76
 97
0
 75
1
 76
1
 98
0
  0
LWPOLYLINE
  5
4E
330
17
100
AcDbEntity
  8
FILL_WHITE_FFFFFF
370
0
420
16777215
100
AcDbPolyline
 90
9
 70
1
 10
400.62
 20
248.76
 10
416.64
 20
232.74
 10
416.64
 20
216.54
 10
406.02
 20
227.34
 10
406.02
 20
23.22
 10
395.22
 20
23.22
 10
395.22
 20
227.34
 10
384.6
 20
216.54
 10
384.6
 20
232.74
  0
HATCH
  5
4F
330
17
100
AcDbEntity
  8
FILL_WHITE_FFFFFF
 62
7
420
16777215
100
AcDbHatch
 10
0.0
 20
0.0
 30
0.0
210
0.0
220
0.0
230
1.0
  2
SOLID
 70
1
 71
0
 91
1
 92
3
 72
0
 73
1
 93
33
 10
230.34
 20
154.44
 10
230.99
 20
155.14
 10
231.78
 20
155.7
 10
232.7
 20
156.2
 10
233.22
 20
156.36
 10
233.76
 20
156.42
 10
234.91
 20
156.43
 10
235.94
 20
156.2
 10
236.87
 20
155.76
 10
237.72
 20
155.16
 10
238.35
 20
154.42
 10
238.87
 20
153.56
 10
239.21
 20
152.6
 10
239.34
 20
151.56
 10
239.23
 20
150.48
 10
238.98
 20
149.4
 10
237.9
 20
147.78
 10
215.04
 20
125.1
 10
214.6
 20
124.69
 10
214.11
 20
124.39
 10
213.59
 20
124.2
 10
213.04
 20
124.13
 10
212.48
 20
124.17
 10
211.93
 20
124.32
 10
211.4
 20
124.57
 10
210.9
 20
124.92
 10
210.54
 20
125.36
 10
210.26
 20
125.85
 10
209.98
 20
126.92
 10
210.06
 20
128.03
 10
210.25
 20
128.56
 10
210.54
 20
129.06
 10
230.34
 20
154.44
 97
0
 75
1
 76
1
 98
0
  0
LWPOLYLINE
  5
50
330
17
100
AcDbEntity
  8
FILL_WHITE_FFFFFF
370
0
420
16777215
100
AcDbPolyline
 90
32
 70
1
 10
230.34
 20
154.44
 10
230.99
 20
155.14
 10
231.78
 20
155.7
 10
232.7
 20
156.2
 10
233.22
 20
156.36
 10
233.76
 20
156.42
 10
234.91
 20
156.43
 10
235.94
 20
156.2
 10
236.87
 20
155.76
 10
237.72
 20
155.16
 10
238.35
 20
154.42
 10
238.87
 20
153.56
 10
239.21
 20
152.6
 10
239.34
 20
151.56
 10
239.23
 20
150.48
 10
238.98
 20
149.4
 10
237.9
 20
147.78
 10
215.04
 20
125.1
 10
214.6
 20
124.69
 10
214.11
 20
124.39
 10
213.59
 20
124.2
 10
213.04
 20
124.13
 10
212.48
 20
124.17
 10
211.93
 20
124.32
 10
211.4
 20
124.57
 10
210.9
 20
124.92
 10
210.54
 20
125.36
 10
210.26
 20
125.85
 10
209.98
 20
126.92
 10
210.06
 20
128.03
 10
210.25
 20
128.56
 10
210.54
 20
129.06
  0
HATCH
  5
51
330
17
100
AcDbEntity
  8
FILL_WHITE_FFFFFF
 62
7
420
16777215
100
AcDbHatch
 10
0.0
 20
0.0
 30
0.0
210
0.0
220
0.0
230
1.0
  2
SOLID
 70
1
 71
0
 91
1
 92
3
 72
0
 73
1
 93
10
 10
356.34
 20
248.76
 10
372.36
 20
232.74
 10
372.36
 20
216.54
 10
361.56
 20
227.34
 10
361.56
 20
23.22
 10
350.94
 20
23.22
 10
350.94
 20
227.34
 10
340.14
 20
216.54
 10
340.14
 20
232.74
 10
356.34
 20
248.76
 97
0
 75
1
 76
1
 98
0
  0
LWPOLYLINE
  5
52
330
17
100
AcDbEntity
  8
FILL_WHITE_FFFFFF
370
0
420
16777215
100
AcDbPolyline
 90
9
 70
1
 10
356.34
 20
248.76
 10
372.36
 20
232.74
 10
372.36
 20
216.54
 10
361.56
 20
227.34
 10
361.56
 20
23.22
 10
350.94
 20
23.22
 10
350.94
 20
227.34
 10
340.14
 20
216.54
 10
340.14
 20
232.74
  0
LWPOLYLINE
  5
54
330
17
100
AcDbEntity
  8
STROKE_LIME_00FF00
370
0
420
65280
100
AcDbPolyline
 90
2
 70
0
 10
146.2800000000001
 20
264.7800000000006
 10
422.7600000000001
 20
264.7800000000006
  0
LWPOLYLINE
  5
55
330
17
100
AcDbEntity
  8
STROKE_LIME_00FF00
370
0
420
65280
100
AcDbPolyline
 90
17
 70
0
 10
134.21999000000005
 20
252.9000000000005
 10
134.28226050781254
 20
254.13095214843798
 10
134.46502906250004
 20
255.3226171875005
 10
134.76223121093756
 20
256.469458007813
 10
135.16780250000008
 20
257.5659375000005
 10
135.67567847656255
 20
258.60651855468797
 10
136.27979468750004
 20
259.5856640625005
 10
136.97408667968756
 20
260.497836914063
 10
137.75249000000005
 20
261.3375000000005
 10
138.60894019531258
 20
262.099116210938
 10
139.53737281250005
 20
262.7771484375005
 10
140.53172339843758
 20
263.366059570313
 10
141.58592750000005
 20
263.8603125000005
 10
142.69392066406255
 20
264.254370117188
 10
143.84963843750006
 20
264.5426953125005
 10
145.04701636718755
 20
264.719750976563
 10
146.27999000000005
 20
264.7800000000005
  0
LWPOLYLINE
  5
56
330
17
100
AcDbEntity
  8
STROKE_LIME_00FF00
370
0
420
65280
100
AcDbPolyline
 90
2
 70
0
 10
134.21999000000005
 20
19.26000000000107
 10
134.21999000000005
 20
252.90000000000109
  0
LWPOLYLINE
  5
57
330
17
100
AcDbEntity
  8
STROKE_LIME_00FF00
370
0
420
65280
100
AcDbPolyline
 90
17
 70
0
 10
146.2800000000001
 20
7.200000000000671
 10
145.04702636718758
 20
7.262270507813184
 10
143.8496484375001
 20
7.445039062500655
 10
142.69393066406258
 20
7.742241210938175
 10
141.58593750000009
 20
8.147812500000612
 10
140.53173339843755
 20
8.65568847656317
 10
139.5373828125001
 20
9.259804687500605
 10
138.6089501953126
 20
9.954096679688178
 10
137.75250000000008
 20
10.732500000000641
 10
136.9740966796876
 20
11.588950195313203
 10
136.27980468750008
 20
12.51738281250067
 10
135.67568847656258
 20
13.511733398438139
 10
135.16781250000008
 20
14.565937500000643
 10
134.7622412109376
 20
15.673930664063164
 10
134.46503906250007
 20
16.82964843750068
 10
134.2822705078126
 20
18.02702636718817
 10
134.22000000000008
 20
19.260000000000673
  0
LWPOLYLINE
  5
58
330
17
100
AcDbEntity
  8
STROKE_LIME_00FF00
370
0
420
65280
100
AcDbPolyline
 90
2
 70
0
 10
422.76
 20
7.200000000000671
 10
146.27999999999997
 20
7.200000000000671
  0
LWPOLYLINE
  5
59
330
17
100
AcDbEntity
  8
STROKE_LIME_00FF00
370
0
420
65280
100
AcDbPolyline
 90
17
 70
0
 10
434.82000000000005
 20
19.26000000000107
 10
434.7577294921876
 20
18.02702636718857
 10
434.57496093750007
 20
16.82964843750105
 10
434.27775878906255
 20
15.673930664063562
 10
433.87218750000005
 20
14.565937500001098
 10
433.36431152343755
 20
13.511733398438537
 10
432.7601953125
 20
12.517382812501069
 10
432.0659033203125
 20
11.588950195313544
 10
431.2875000000001
 20
10.732500000001039
 10
430.4310498046876
 20
9.954096679688575
 10
429.50261718750005
 20
9.259804687501116
 10
428.5082666015625
 20
8.655688476563569
 10
427.4540625
 20
8.147812500001066
 10
426.3460693359375
 20
7.742241210938573
 10
425.19035156250004
 20
7.445039062501053
 10
423.99297363281255
 20
7.262270507813582
 10
422.76000000000005
 20
7.200000000001069
  0
LWPOLYLINE
  5
5A
330
17
100
AcDbEntity
  8
STROKE_LIME_00FF00
370
0
420
65280
100
AcDbPolyline
 90
2
 70
0
 10
434.82000000000005
 20
252.9000000000005
 10
434.82000000000005
 20
19.260000000000474
  0
LWPOLYLINE
  5
5B
330
17
100
AcDbEntity
  8
STROKE_LIME_00FF00
370
0
420
65280
100
AcDbPolyline
 90
17
 70
0
 10
422.76
 20
264.7800000000006
 10
423.9929736328125
 20
264.7197509765631
 10
425.1903515625
 20
264.5426953125006
 10
426.34606933593744
 20
264.2543701171881
 10
427.45406249999996
 20
263.8603125000006
 10
428.50826660156247
 20
263.3660595703131
 10
429.50261718750005
 20
262.7771484375006
 10
430.4310498046875
 20
262.0991162109381
 10
431.2875000000001
 20
261.3375000000006
 10
432.0659033203125
 20
260.4978369140631
 10
432.7601953125
 20
259.5856640625006
 10
433.36431152343744
 20
258.6065185546881
 10
433.8721875
 20
257.5659375000006
 10
434.27775878906255
 20
256.4694580078131
 10
434.5749609375
 20
255.3226171875006
 10
434.75772949218754
 20
254.1309521484381
 10
434.82
 20
252.9000000000006
  0
ENDSEC
  0
SECTION
  2
OBJECTS
  0
DICTIONARY
  5
A
330
0
100
AcDbDictionary
281
1
  3
ACAD_COLOR
350
B
  3
ACAD_GROUP
350
C
  3
ACAD_LAYOUT
350
D
  3
ACAD_MATERIAL
350
E
  3
ACAD_MLEADERSTYLE
350
F
  3
ACAD_MLINESTYLE
350
10
  3
ACAD_PLOTSETTINGS
350
11
  3
ACAD_PLOTSTYLENAME
350
12
  3
ACAD_SCALELIST
350
14
  3
ACAD_TABLESTYLE
350
15
  3
ACAD_VISUALSTYLE
350
16
  3
EZDXF_META
350
2D
  0
DICTIONARY
  5
B
330
A
100
AcDbDictionary
281
1
  0
DICTIONARY
  5
C
330
A
100
AcDbDictionary
281
1
  0
DICTIONARY
  5
D
330
A
100
AcDbDictionary
281
1
  3
Model
350
1A
  3
Layout1
350
1E
  0
DICTIONARY
  5
E
330
A
100
AcDbDictionary
281
1
  3
ByBlock
350
1F
  3
ByLayer
350
20
  3
Global
350
21
  0
DICTIONARY
  5
F
330
A
100
AcDbDictionary
281
1
  3
Standard
350
2C
  0
DICTIONARY
  5
10
330
A
100
AcDbDictionary
281
1
  3
Standard
350
22
  0
DICTIONARY
  5
11
330
A
100
AcDbDictionary
281
1
  0
ACDBDICTIONARYWDFLT
  5
12
330
A
100
AcDbDictionary
281
1
  3
Normal
350
13
100
AcDbDictionaryWithDefault
340
13
  0
ACDBPLACEHOLDER
  5
13
330
12
  0
DICTIONARY
  5
14
330
A
100
AcDbDictionary
281
1
  0
DICTIONARY
  5
15
330
A
100
AcDbDictionary
281
1
  0
DICTIONARY
  5
16
330
A
100
AcDbDictionary
281
1
  0
LAYOUT
  5
1A
330
D
100
AcDbPlotSettings
  1

  4
A3
  6

 40
7.5
 41
20.0
 42
7.5
 43
20.0
 44
420.0
 45
297.0
 46
0.0
 47
0.0
 48
0.0
 49
0.0
140
0.0
141
0.0
142
1.0
143
1.0
 70
1024
 72
1
 73
0
 74
5
  7

 75
16
 76
0
 77
2
 78
300
147
1.0
148
0.0
149
0.0
100
AcDbLayout
  1
Model
 70
1
 71
0
 10
0.0
 20
0.0
 11
420.0
 21
297.0
 12
0.0
 22
0.0
 32
0.0
 14
1e+20
 24
1e+20
 34
1e+20
 15
-1e+20
 25
-1e+20
 35
-1e+20
146
0.0
 13
0.0
 23
0.0
 33
0.0
 16
1.0
 26
0.0
 36
0.0
 17
0.0
 27
1.0
 37
0.0
 76
1
330
17
  0
LAYOUT
  5
1E
330
D
100
AcDbPlotSettings
  1

  4
A3
  6

 40
7.5
 41
20.0
 42
7.5
 43
20.0
 44
420.0
 45
297.0
 46
0.0
 47
0.0
 48
0.0
 49
0.0
140
0.0
141
0.0
142
1.0
143
1.0
 70
0
 72
1
 73
0
 74
5
  7

 75
16
 76
0
 77
2
 78
300
147
1.0
148
0.0
149
0.0
100
AcDbLayout
  1
Layout1
 70
1
 71
1
 10
0.0
 20
0.0
 11
420.0
 21
297.0
 12
0.0
 22
0.0
 32
0.0
 14
1e+20
 24
1e+20
 34
1e+20
 15
-1e+20
 25
-1e+20
 35
-1e+20
146
0.0
 13
0.0
 23
0.0
 33
0.0
 16
1.0
 26
0.0
 36
0.0
 17
0.0
 27
1.0
 37
0.0
 76
1
330
1B
  0
MATERIAL
  5
1F
102
{ACAD_REACTORS
330
E
102
}
330
E
100
AcDbMaterial
  1
ByBlock
  2

 70
0
 40
1.0
 71
1
 41
1.0
 91
-1023410177
 42
1.0
 72
1
  3

 73
1
 74
1
 75
1
 44
0.5
 73
0
 45
1.0
 46
1.0
 77
1
  4

 78
1
 79
1
170
1
 48
1.0
171
1
  6

172
1
173
1
174
1
140
1.0
141
1.0
175
1
  7

176
1
177
1
178
1
143
1.0
179
1
  8

270
1
271
1
272
1
145
1.0
146
1.0
273
1
  9

274
1
275
1
276
1
 42
1.0
 72
1
  3

 73
1
 74
1
 75
1
 94
63
  0
MATERIAL
  5
20
102
{ACAD_REACTORS
330
E
102
}
330
E
100
AcDbMaterial
  1
ByLayer
  2

 70
0
 40
1.0
 71
1
 41
1.0
 91
-1023410177
 42
1.0
 72
1
  3

 73
1
 74
1
 75
1
 44
0.5
 73
0
 45
1.0
 46
1.0
 77
1
  4

 78
1
 79
1
170
1
 48
1.0
171
1
  6

172
1
173
1
174
1
140
1.0
141
1.0
175
1
  7

176
1
177
1
178
1
143
1.0
179
1
  8

270
1
271
1
272
1
145
1.0
146
1.0
273
1
  9

274
1
275
1
276
1
 42
1.0
 72
1
  3

 73
1
 74
1
 75
1
 94
63
  0
MATERIAL
  5
21
102
{ACAD_REACTORS
330
E
102
}
330
E
100
AcDbMaterial
  1
Global
  2

 70
0
 40
1.0
 71
1
 41
1.0
 91
-1023410177
 42
1.0
 72
1
  3

 73
1
 74
1
 75
1
 44
0.5
 73
0
 45
1.0
 46
1.0
 77
1
  4

 78
1
 79
1
170
1
 48
1.0
171
1
  6

172
1
173
1
174
1
140
1.0
141
1.0
175
1
  7

176
1
177
1
178
1
143
1.0
179
1
  8

270
1
271
1
272
1
145
1.0
146
1.0
273
1
  9

274
1
275
1
276
1
 42
1.0
 72
1
  3

 73
1
 74
1
 75
1
 94
63
  0
MLINESTYLE
  5
22
102
{ACAD_REACTORS
330
10
102
}
330
10
100
AcDbMlineStyle
  2
Standard
 70
0
  3

 62
256
 51
90.0
 52
90.0
 71
2
 49
0.5
 62
256
  6
BYLAYER
 49
-0.5
 62
256
  6
BYLAYER
  0
MLEADERSTYLE
  5
2C
102
{ACAD_REACTORS
330
F
102
}
330
F
100
AcDbMLeaderStyle
179
2
170
2
171
1
172
0
 90
2
 40
0.0
 41
0.0
173
1
 91
-1056964608
 92
-2
290
1
 42
2.0
291
1
 43
8.0
  3
Standard
 44
4.0
300

342
29
174
1
175
1
176
0
178
1
 93
-1056964608
 45
4.0
292
0
297
0
 46
4.0
 94
-1056964608
 47
1.0
 49
1.0
140
1.0
294
1
141
0.0
177
0
142
1.0
295
0
296
0
143
3.75
271
0
272
9
273
9
  0
DICTIONARY
  5
2D
330
A
100
AcDbDictionary
280
1
281
1
  3
CREATED_BY_EZDXF
350
2E
  3
WRITTEN_BY_EZDXF
350
5E
  0
DICTIONARYVAR
  5
2E
330
2D
100
DictionaryVariables
280
0
  1
1.4.4 @ 2026-07-10T01:53:57.278464+00:00
  0
DICTIONARYVAR
  5
5E
330
2D
100
DictionaryVariables
280
0
  1
1.4.4 @ 2026-07-10T01:53:57.281806+00:00
  0
ENDSEC
  0
EOF
