  0
SECTION
  2
HEADER
  9
$ACADVER
  1
AC1024
  9
$ACADMAINTVER
 70
6
  9
$DWGCODEPAGE
  3
ANSI_1252
  9
$LASTSAVEDBY
  1
ezdxf
  9
$INSBASE
 10
0.0
 20
0.0
 30
0.0
  9
$EXTMIN
 10
1e+20
 20
1e+20
 30
1e+20
  9
$EXTMAX
 10
-1e+20
 20
-1e+20
 30
-1e+20
  9
$LIMMIN
 10
0.0
 20
0.0
  9
$LIMMAX
 10
420.0
 20
297.0
  9
$ORTHOMODE
 70
0
  9
$REGENMODE
 70
1
  9
$FILLMODE
 70
1
  9
$QTEXTMODE
 70
0
  9
$MIRRTEXT
 70
1
  9
$LTSCALE
 40
1.0
  9
$ATTMODE
 70
1
  9
$TEXTSIZE
 40
2.5
  9
$TRACEWID
 40
1.0
  9
$TEXTSTYLE
  7
Standard
  9
$CLAYER
  8
0
  9
$CELTYPE
  6
ByLayer
  9
$CECOLOR
 62
256
  9
$CELTSCALE
 40
1.0
  9
$DISPSILH
 70
0
  9
$DIMSCALE
 40
1.0
  9
$DIMASZ
 40
2.5
  9
$DIMEXO
 40
0.625
  9
$DIMDLI
 40
3.75
  9
$DIMRND
 40
0.0
  9
$DIMDLE
 40
0.0
  9
$DIMEXE
 40
1.25
  9
$DIMTP
 40
0.0
  9
$DIMTM
 40
0.0
  9
$DIMTXT
 40
2.5
  9
$DIMCEN
 40
2.5
  9
$DIMTSZ
 40
0.0
  9
$DIMTOL
 70
0
  9
$DIMLIM
 70
0
  9
$DIMTIH
 70
0
  9
$DIMTOH
 70
0
  9
$DIMSE1
 70
0
  9
$DIMSE2
 70
0
  9
$DIMTAD
 70
1
  9
$DIMZIN
 70
8
  9
$DIMBLK
  1

  9
$DIMASO
 70
1
  9
$DIMSHO
 70
1
  9
$DIMPOST
  1

  9
$DIMAPOST
  1

  9
$DIMALT
 70
0
  9
$DIMALTD
 70
3
  9
$DIMALTF
 40
0.03937007874
  9
$DIMLFAC
 40
1.0
  9
$DIMTOFL
 70
1
  9
$DIMTVP
 40
0.0
  9
$DIMTIX
 70
0
  9
$DIMSOXD
 70
0
  9
$DIMSAH
 70
0
  9
$DIMBLK1
  1

  9
$DIMBLK2
  1

  9
$DIMSTYLE
  2
ISO-25
  9
$DIMCLRD
 70
0
  9
$DIMCLRE
 70
0
  9
$DIMCLRT
 70
0
  9
$DIMTFAC
 40
1.0
  9
$DIMGAP
 40
0.625
  9
$DIMJUST
 70
0
  9
$DIMSD1
 70
0
  9
$DIMSD2
 70
0
  9
$DIMTOLJ
 70
0
  9
$DIMTZIN
 70
8
  9
$DIMALTZ
 70
0
  9
$DIMALTTZ
 70
0
  9
$DIMUPT
 70
0
  9
$DIMDEC
 70
2
  9
$DIMTDEC
 70
2
  9
$DIMALTU
 70
2
  9
$DIMALTTD
 70
3
  9
$DIMTXSTY
  7
Standard
  9
$DIMAUNIT
 70
0
  9
$DIMADEC
 70
0
  9
$DIMALTRND
 40
0.0
  9
$DIMAZIN
 70
0
  9
$DIMDSEP
 70
44
  9
$DIMATFIT
 70
3
  9
$DIMFRAC
 70
0
  9
$DIMLDRBLK
  1

  9
$DIMLUNIT
 70
2
  9
$DIMLWD
 70
-2
  9
$DIMLWE
 70
-2
  9
$DIMTMOVE
 70
0
  9
$DIMFXL
 40
1.0
  9
$DIMFXLON
 70
0
  9
$DIMJOGANG
 40
0.785398163397
  9
$DIMTFILL
 70
0
  9
$DIMTFILLCLR
 70
0
  9
$DIMARCSYM
 70
0
  9
$DIMLTYPE
  6

  9
$DIMLTEX1
  6

  9
$DIMLTEX2
  6

  9
$DIMTXTDIRECTION
 70
0
  9
$LUNITS
 70
2
  9
$LUPREC
 70
4
  9
$SKETCHINC
 40
1.0
  9
$FILLETRAD
 40
10.0
  9
$AUNITS
 70
0
  9
$AUPREC
 70
2
  9
$MENU
  1
.
  9
$ELEVATION
 40
0.0
  9
$PELEVATION
 40
0.0
  9
$THICKNESS
 40
0.0
  9
$LIMCHECK
 70
0
  9
$CHAMFERA
 40
0.0
  9
$CHAMFERB
 40
0.0
  9
$CHAMFERC
 40
0.0
  9
$CHAMFERD
 40
0.0
  9
$SKPOLY
 70
0
  9
$TDCREATE
 40
2461232.4124537036
  9
$TDUCREATE
 40
2458532.153996898
  9
$TDUPDATE
 40
2461232.4124537036
  9
$TDUUPDATE
 40
2458532.1544311
  9
$TDINDWG
 40
0.0
  9
$TDUSRTIMER
 40
0.0
  9
$USRTIMER
 70
1
  9
$ANGBASE
 50
0.0
  9
$ANGDIR
 70
0
  9
$PDMODE
 70
0
  9
$PDSIZE
 40
0.0
  9
$PLINEWID
 40
0.0
  9
$SPLFRAME
 70
0
  9
$SPLINETYPE
 70
6
  9
$SPLINESEGS
 70
8
  9
$HANDSEED
  5
49
  9
$SURFTAB1
 70
6
  9
$SURFTAB2
 70
6
  9
$SURFTYPE
 70
6
  9
$SURFU
 70
6
  9
$SURFV
 70
6
  9
$UCSBASE
  2

  9
$UCSNAME
  2

  9
$UCSORG
 10
0.0
 20
0.0
 30
0.0
  9
$UCSXDIR
 10
1.0
 20
0.0
 30
0.0
  9
$UCSYDIR
 10
0.0
 20
1.0
 30
0.0
  9
$UCSORTHOREF
  2

  9
$UCSORTHOVIEW
 70
0
  9
$UCSORGTOP
 10
0.0
 20
0.0
 30
0.0
  9
$UCSORGBOTTOM
 10
0.0
 20
0.0
 30
0.0
  9
$UCSORGLEFT
 10
0.0
 20
0.0
 30
0.0
  9
$UCSORGRIGHT
 10
0.0
 20
0.0
 30
0.0
  9
$UCSORGFRONT
 10
0.0
 20
0.0
 30
0.0
  9
$UCSORGBACK
 10
0.0
 20
0.0
 30
0.0
  9
$PUCSBASE
  2

  9
$PUCSNAME
  2

  9
$PUCSORG
 10
0.0
 20
0.0
 30
0.0
  9
$PUCSXDIR
 10
1.0
 20
0.0
 30
0.0
  9
$PUCSYDIR
 10
0.0
 20
1.0
 30
0.0
  9
$PUCSORTHOREF
  2

  9
$PUCSORTHOVIEW
 70
0
  9
$PUCSORGTOP
 10
0.0
 20
0.0
 30
0.0
  9
$PUCSORGBOTTOM
 10
0.0
 20
0.0
 30
0.0
  9
$PUCSORGLEFT
 10
0.0
 20
0.0
 30
0.0
  9
$PUCSORGRIGHT
 10
0.0
 20
0.0
 30
0.0
  9
$PUCSORGFRONT
 10
0.0
 20
0.0
 30
0.0
  9
$PUCSORGBACK
 10
0.0
 20
0.0
 30
0.0
  9
$USERI1
 70
0
  9
$USERI2
 70
0
  9
$USERI3
 70
0
  9
$USERI4
 70
0
  9
$USERI5
 70
0
  9
$USERR1
 40
0.0
  9
$USERR2
 40
0.0
  9
$USERR3
 40
0.0
  9
$USERR4
 40
0.0
  9
$USERR5
 40
0.0
  9
$WORLDVIEW
 70
1
  9
$SHADEDGE
 70
3
  9
$SHADEDIF
 70
70
  9
$TILEMODE
 70
1
  9
$MAXACTVP
 70
64
  9
$PINSBASE
 10
0.0
 20
0.0
 30
0.0
  9
$PLIMCHECK
 70
0
  9
$PEXTMIN
 10
1e+20
 20
1e+20
 30
1e+20
  9
$PEXTMAX
 10
-1e+20
 20
-1e+20
 30
-1e+20
  9
$PLIMMIN
 10
0.0
 20
0.0
  9
$PLIMMAX
 10
420.0
 20
297.0
  9
$UNITMODE
 70
0
  9
$VISRETAIN
 70
1
  9
$PLINEGEN
 70
0
  9
$PSLTSCALE
 70
1
  9
$TREEDEPTH
 70
3020
  9
$CMLSTYLE
  2
Standard
  9
$CMLJUST
 70
0
  9
$CMLSCALE
 40
20.0
  9
$PROXYGRAPHICS
 70
1
  9
$MEASUREMENT
 70
1
  9
$CELWEIGHT
370
-1
  9
$ENDCAPS
280
0
  9
$JOINSTYLE
280
0
  9
$LWDISPLAY
290
0
  9
$INSUNITS
 70
6
  9
$HYPERLINKBASE
  1

  9
$STYLESHEET
  1

  9
$XEDIT
290
1
  9
$CEPSNTYPE
380
0
  9
$PSTYLEMODE
290
1
  9
$FINGERPRINTGUID
  2
{C09183D7-29B5-45B9-B2F9-FB43574A4D78}
  9
$VERSIONGUID
  2
{47184CF0-14B0-4569-9841-33176C081F76}
  9
$EXTNAMES
290
1
  9
$PSVPSCALE
 40
0.0
  9
$OLESTARTUP
290
0
  9
$SORTENTS
280
127
  9
$INDEXCTL
280
0
  9
$HIDETEXT
280
1
  9
$XCLIPFRAME
280
1
  9
$HALOGAP
280
0
  9
$OBSCOLOR
 70
257
  9
$OBSLTYPE
280
0
  9
$INTERSECTIONDISPLAY
280
0
  9
$INTERSECTIONCOLOR
 70
257
  9
$DIMASSOC
280
2
  9
$PROJECTNAME
  1

  9
$CAMERADISPLAY
290
0
  9
$LENSLENGTH
 40
50.0
  9
$CAMERAHEIGHT
 40
0.0
  9
$STEPSPERSEC
 40
24.0
  9
$STEPSIZE
 40
100.0
  9
$3DDWFPREC
 40
2.0
  9
$PSOLWIDTH
 40
0.005
  9
$PSOLHEIGHT
 40
0.08
  9
$LOFTANG1
 40
1.570796326795
  9
$LOFTANG2
 40
1.570796326795
  9
$LOFTMAG1
 40
0.0
  9
$LOFTMAG2
 40
0.0
  9
$LOFTPARAM
 70
7
  9
$LOFTNORMALS
280
1
  9
$LATITUDE
 40
37.795
  9
$LONGITUDE
 40
-122.394
  9
$NORTHDIRECTION
 40
0.0
  9
$TIMEZONE
 70
-8000
  9
$LIGHTGLYPHDISPLAY
280
1
  9
$TILEMODELIGHTSYNCH
280
1
  9
$CMATERIAL
347
20
  9
$SOLIDHIST
280
0
  9
$SHOWHIST
280
1
  9
$DWFFRAME
280
2
  9
$DGNFRAME
280
2
  9
$REALWORLDSCALE
290
1
  9
$INTERFERECOLOR
 62
256
  9
$CSHADOW
280
0
  9
$SHADOWPLANELOCATION
 40
0.0
  0
ENDSEC
  0
SECTION
  2
CLASSES
  0
CLASS
  1
ACDBDICTIONARYWDFLT
  2
AcDbDictionaryWithDefault
  3
ObjectDBX Classes
 90
0
 91
0
280
0
281
0
  0
CLASS
  1
SUN
  2
AcDbSun
  3
SCENEOE
 90
1153
 91
0
280
0
281
0
  0
CLASS
  1
VISUALSTYLE
  2
AcDbVisualStyle
  3
ObjectDBX Classes
 90
4095
 91
0
280
0
281
0
  0
CLASS
  1
MATERIAL
  2
AcDbMaterial
  3
ObjectDBX Classes
 90
1153
 91
0
280
0
281
0
  0
CLASS
  1
SCALE
  2
AcDbScale
  3
ObjectDBX Classes
 90
1153
 91
0
280
0
281
0
  0
CLASS
  1
TABLESTYLE
  2
AcDbTableStyle
  3
ObjectDBX Classes
 90
4095
 91
0
280
0
281
0
  0
CLASS
  1
MLEADERSTYLE
  2
AcDbMLeaderStyle
  3
ACDB_MLEADERSTYLE_CLASS
 90
4095
 91
0
280
0
281
0
  0
CLASS
  1
DICTIONARYVAR
  2
AcDbDictionaryVar
  3
ObjectDBX Classes
 90
0
 91
0
280
0
281
0
  0
CLASS
  1
CELLSTYLEMAP
  2
AcDbCellStyleMap
  3
ObjectDBX Classes
 90
1152
 91
0
280
0
281
0
  0
CLASS
  1
MENTALRAYRENDERSETTINGS
  2
AcDbMentalRayRenderSettings
  3
SCENEOE
 90
1024
 91
0
280
0
281
0
  0
CLASS
  1
ACDBDETAILVIEWSTYLE
  2
AcDbDetailViewStyle
  3
ObjectDBX Classes
 90
1025
 91
0
280
0
281
0
  0
CLASS
  1
ACDBSECTIONVIEWSTYLE
  2
AcDbSectionViewStyle
  3
ObjectDBX Classes
 90
1025
 91
0
280
0
281
0
  0
CLASS
  1
RASTERVARIABLES
  2
AcDbRasterVariables
  3
ISM
 90
0
 91
0
280
0
281
0
  0
CLASS
  1
ACDBPLACEHOLDER
  2
AcDbPlaceHolder
  3
ObjectDBX Classes
 90
0
 91
0
280
0
281
0
  0
CLASS
  1
LAYOUT
  2
AcDbLayout
  3
ObjectDBX Classes
 90
0
 91
0
280
0
281
0
  0
ENDSEC
  0
SECTION
  2
TABLES
  0
TABLE
  2
VPORT
  5
8
330
0
100
AcDbSymbolTable
 70
1
  0
VPORT
  5
23
330
8
100
AcDbSymbolTableRecord
100
AcDbViewportTableRecord
  2
*Active
 70
0
 10
0.0
 20
0.0
 11
1.0
 21
1.0
 12
0.0
 22
0.0
 13
0.0
 23
0.0
 14
0.5
 24
0.5
 15
0.5
 25
0.5
 16
0.0
 26
0.0
 36
1.0
 17
0.0
 27
0.0
 37
0.0
 40
1000.0
 41
1.34
 42
50.0
 43
0.0
 44
0.0
 50
0.0
 51
0.0
 71
0
 72
1000
 73
1
 74
3
 75
0
 76
0
 77
0
 78
0
281
0
 65
0
146
0.0
  0
ENDTAB
  0
TABLE
  2
LTYPE
  5
2
330
0
100
AcDbSymbolTable
 70
3
  0
LTYPE
  5
24
330
2
100
AcDbSymbolTableRecord
100
AcDbLinetypeTableRecord
  2
ByBlock
 70
0
  3

 72
65
 73
0
 40
0.0
  0
LTYPE
  5
25
330
2
100
AcDbSymbolTableRecord
100
AcDbLinetypeTableRecord
  2
ByLayer
 70
0
  3

 72
65
 73
0
 40
0.0
  0
LTYPE
  5
26
330
2
100
AcDbSymbolTableRecord
100
AcDbLinetypeTableRecord
  2
Continuous
 70
0
  3

 72
65
 73
0
 40
0.0
  0
ENDTAB
  0
TABLE
  2
LAYER
  5
1
330
0
100
AcDbSymbolTable
 70
5
  0
LAYER
  5
27
330
1
100
AcDbSymbolTableRecord
100
AcDbLayerTableRecord
  2
0
 70
0
 62
7
  6
Continuous
370
-3
390
13
347
21
  0
LAYER
  5
28
330
1
100
AcDbSymbolTableRecord
100
AcDbLayerTableRecord
  2
Defpoints
 70
0
 62
7
  6
Continuous
290
0
370
-3
390
13
347
21
  0
LAYER
  5
2F
330
1
100
AcDbSymbolTableRecord
100
AcDbLayerTableRecord
  2
FILL_WHITE_FFFFFF
 70
0
 62
7
420
16777215
  6
Continuous
370
-3
390
13
347
21
  0
LAYER
  5
32
330
1
100
AcDbSymbolTableRecord
100
AcDbLayerTableRecord
  2
FILL_LIME_00FF00
 70
0
 62
7
420
65280
  6
Continuous
370
-3
390
13
347
21
  0
LAYER
  5
44
330
1
100
AcDbSymbolTableRecord
100
AcDbLayerTableRecord
  2
STROKE_LIME_00FF00
 70
0
 62
7
420
65280
  6
Continuous
370
-3
390
13
347
21
  0
ENDTAB
  0
TABLE
  2
STYLE
  5
5
330
0
100
AcDbSymbolTable
 70
1
  0
STYLE
  5
29
330
5
100
AcDbSymbolTableRecord
100
AcDbTextStyleTableRecord
  2
Standard
 70
0
 40
0.0
 41
1.0
 50
0.0
 71
0
 42
2.5
  3
txt
  4

  0
ENDTAB
  0
TABLE
  2
VIEW
  5
7
330
0
100
AcDbSymbolTable
 70
0
  0
ENDTAB
  0
TABLE
  2
UCS
  5
6
330
0
100
AcDbSymbolTable
 70
0
  0
ENDTAB
  0
TABLE
  2
APPID
  5
3
330
0
100
AcDbSymbolTable
 70
3
  0
APPID
  5
2A
330
3
100
AcDbSymbolTableRecord
100
AcDbRegAppTableRecord
  2
ACAD
 70
0
  0
APPID
  5
46
330
3
100
AcDbSymbolTableRecord
100
AcDbRegAppTableRecord
  2
HATCHBACKGROUNDCOLOR
 70
0
  0
APPID
  5
47
330
3
100
AcDbSymbolTableRecord
100
AcDbRegAppTableRecord
  2
EZDXF
 70
0
  0
ENDTAB
  0
TABLE
  2
DIMSTYLE
  5
4
330
0
100
AcDbSymbolTable
 70
1
100
AcDbDimStyleTable
  0
DIMSTYLE
105
2B
330
4
100
AcDbSymbolTableRecord
100
AcDbDimStyleTableRecord
  2
Standard
 70
0
 40
1.0
 41
2.5
 42
0.625
 43
3.75
 44
1.25
 45
0.0
 46
0.0
 47
0.0
 48
0.0
 49
2.5
140
2.5
141
2.5
142
0.0
143
0.03937007874
144
1.0
145
0.0
146
1.0
147
0.625
148
0.0
 69
0
 70
0
 71
0
 72
0
 73
0
 74
0
 75
0
 76
0
 77
1
 78
8
 79
3
170
0
171
3
172
1
173
0
174
0
175
0
176
0
177
0
178
0
179
2
271
2
272
2
273
2
274
3
275
0
276
0
277
2
278
44
279
0
280
0
281
0
282
0
283
0
284
8
285
0
286
0
288
0
289
3
290
0
371
-2
372
-2
  0
ENDTAB
  0
TABLE
  2
BLOCK_RECORD
  5
9
330
0
100
AcDbSymbolTable
 70
2
  0
BLOCK_RECORD
  5
17
330
9
100
AcDbSymbolTableRecord
100
AcDbBlockTableRecord
  2
*Model_Space
340
1A
 70
0
280
1
281
0
  0
BLOCK_RECORD
  5
1B
330
9
100
AcDbSymbolTableRecord
100
AcDbBlockTableRecord
  2
*Paper_Space
340
1E
 70
0
280
1
281
0
  0
ENDTAB
  0
ENDSEC
  0
SECTION
  2
BLOCKS
  0
BLOCK
  5
18
330
17
100
AcDbEntity
  8
0
100
AcDbBlockBegin
  2
*Model_Space
 70
0
 10
0.0
 20
0.0
 30
0.0
  3
*Model_Space
  1

  0
ENDBLK
  5
19
330
17
100
AcDbEntity
  8
0
100
AcDbBlockEnd
  0
BLOCK
  5
1C
330
1B
100
AcDbEntity
  8
0
100
AcDbBlockBegin
  2
*Paper_Space
 70
0
 10
0.0
 20
0.0
 30
0.0
  3
*Paper_Space
  1

  0
ENDBLK
  5
1D
330
1B
100
AcDbEntity
  8
0
100
AcDbBlockEnd
  0
ENDSEC
  0
SECTION
  2
ENTITIES
  0
HATCH
  5
30
330
17
100
AcDbEntity
  8
FILL_WHITE_FFFFFF
 62
7
420
16777215
100
AcDbHatch
 10
0.0
 20
0.0
 30
0.0
210
0.0
220
0.0
230
1.0
  2
SOLID
 70
1
 71
0
 91
1
 92
3
 72
0
 73
1
 93
57
 10
445.89
 20
258.24
 10
446.79
 20
258.22
 10
447.69
 20
258.09
 10
448.59
 20
257.73
 10
449.49
 20
257.04
 10
450.37
 20
256.85
 10
451.14
 20
256.44
 10
451.89
 20
255.84
 10
453.54
 20
254.04
 10
454.08
 20
253.14
 10
454.29
 20
252.24
 10
454.98
 20
251.34
 10
455.34
 20
250.44
 10
455.47
 20
249.54
 10
455.49
 20
248.64
 10
455.49
 20
24.24
 10
455.43
 20
23.34
 10
455.27
 20
22.44
 10
454.98
 20
21.54
 10
454.59
 20
20.64
 10
453.47
 20
18.84
 10
451.89
 20
17.04
 10
451.39
 20
16.2
 10
450.78
 20
15.46
 10
450.1
 20
14.85
 10
449.34
 20
14.34
 10
448.53
 20
13.95
 10
447.67
 20
13.66
 10
446.79
 20
13.5
 10
445.89
 20
13.44
 10
123.09
 20
13.44
 10
122.19
 20
13.63
 10
121.29
 20
14.04
 10
120.39
 20
14.45
 10
119.49
 20
14.64
 10
118.59
 20
14.85
 10
117.69
 20
15.39
 10
115.89
 20
17.04
 10
115.18
 20
17.94
 10
114.69
 20
18.84
 10
114.2
 20
19.74
 10
113.49
 20
20.64
 10
113.49
 20
24.24
 10
113.49
 20
248.64
 10
113.7
 20
250.44
 10
114.24
 20
252.24
 10
115.01
 20
254.04
 10
115.89
 20
255.84
 10
116.79
 20
256.03
 10
117.69
 20
256.44
 10
118.59
 20
256.85
 10
119.49
 20
257.04
 10
120.39
 20
257.73
 10
121.29
 20
258.09
 10
122.19
 20
258.22
 10
123.09
 20
258.24
 10
445.89
 20
258.24
 97
0
 75
1
 76
1
 98
0
  0
LWPOLYLINE
  5
31
330
17
100
AcDbEntity
  8
FILL_WHITE_FFFFFF
370
0
420
16777215
100
AcDbPolyline
 90
56
 70
1
 10
445.89
 20
258.24
 10
446.79
 20
258.22
 10
447.69
 20
258.09
 10
448.59
 20
257.73
 10
449.49
 20
257.04
 10
450.37
 20
256.85
 10
451.14
 20
256.44
 10
451.89
 20
255.84
 10
453.54
 20
254.04
 10
454.08
 20
253.14
 10
454.29
 20
252.24
 10
454.98
 20
251.34
 10
455.34
 20
250.44
 10
455.47
 20
249.54
 10
455.49
 20
248.64
 10
455.49
 20
24.24
 10
455.43
 20
23.34
 10
455.27
 20
22.44
 10
454.98
 20
21.54
 10
454.59
 20
20.64
 10
453.47
 20
18.84
 10
451.89
 20
17.04
 10
451.39
 20
16.2
 10
450.78
 20
15.46
 10
450.1
 20
14.85
 10
449.34
 20
14.34
 10
448.53
 20
13.95
 10
447.67
 20
13.66
 10
446.79
 20
13.5
 10
445.89
 20
13.44
 10
123.09
 20
13.44
 10
122.19
 20
13.63
 10
121.29
 20
14.04
 10
120.39
 20
14.45
 10
119.49
 20
14.64
 10
118.59
 20
14.85
 10
117.69
 20
15.39
 10
115.89
 20
17.04
 10
115.18
 20
17.94
 10
114.69
 20
18.84
 10
114.2
 20
19.74
 10
113.49
 20
20.64
 10
113.49
 20
24.24
 10
113.49
 20
248.64
 10
113.7
 20
250.44
 10
114.24
 20
252.24
 10
115.01
 20
254.04
 10
115.89
 20
255.84
 10
116.79
 20
256.03
 10
117.69
 20
256.44
 10
118.59
 20
256.85
 10
119.49
 20
257.04
 10
120.39
 20
257.73
 10
121.29
 20
258.09
 10
122.19
 20
258.22
 10
123.09
 20
258.24
  0
HATCH
  5
33
330
17
100
AcDbEntity
  8
FILL_LIME_00FF00
 62
7
420
65280
100
AcDbHatch
 10
0.0
 20
0.0
 30
0.0
210
0.0
220
0.0
230
1.0
  2
SOLID
 70
1
 71
0
 91
4
 92
3
 72
0
 73
1
 93
24
 10
387.54
 20
184.14
 10
388.08
 20
183.63
 10
388.57
 20
183.01
 10
389.49
 20
181.44
 10
396.69
 20
145.44
 10
264.69
 20
145.44
 10
264.69
 20
175.44
 10
235.89
 20
175.44
 10
235.89
 20
145.44
 10
172.29
 20
145.44
 10
190.29
 20
177.84
 10
191.21
 20
179.43
 10
192.24
 20
180.69
 10
193.5
 20
181.72
 10
195.09
 20
182.64
 10
196.89
 20
183.52
 10
198.69
 20
184.29
 10
200.49
 20
184.83
 10
202.29
 20
185.04
 10
384.69
 20
185.04
 10
385.54
 20
184.98
 10
386.28
 20
184.81
 10
386.95
 20
184.53
 10
387.54
 20
184.14
 97
0
 92
18
 72
0
 73
1
 93
5
 10
382.29
 20
175.44
 10
333.09
 20
175.44
 10
333.09
 20
150.24
 10
387.09
 20
150.24
 10
382.29
 20
175.44
 97
0
 92
18
 72
0
 73
1
 93
5
 10
323.49
 20
150.24
 10
323.49
 20
175.44
 10
274.29
 20
175.44
 10
274.29
 20
150.24
 10
323.49
 20
150.24
 97
0
 92
18
 72
0
 73
1
 93
5
 10
199.89
 20
175.44
 10
186.69
 20
150.24
 10
225.09
 20
150.24
 10
225.09
 20
175.44
 10
199.89
 20
175.44
 97
0
 75
1
 76
1
 98
0
  0
LWPOLYLINE
  5
34
330
17
100
AcDbEntity
  8
FILL_LIME_00FF00
370
0
420
65280
100
AcDbPolyline
 90
23
 70
1
 10
387.54
 20
184.14
 10
388.08
 20
183.63
 10
388.57
 20
183.01
 10
389.49
 20
181.44
 10
396.69
 20
145.44
 10
264.69
 20
145.44
 10
264.69
 20
175.44
 10
235.89
 20
175.44
 10
235.89
 20
145.44
 10
172.29
 20
145.44
 10
190.29
 20
177.84
 10
191.21
 20
179.43
 10
192.24
 20
180.69
 10
193.5
 20
181.72
 10
195.09
 20
182.64
 10
196.89
 20
183.52
 10
198.69
 20
184.29
 10
200.49
 20
184.83
 10
202.29
 20
185.04
 10
384.69
 20
185.04
 10
385.54
 20
184.98
 10
386.28
 20
184.81
 10
386.95
 20
184.53
  0
LWPOLYLINE
  5
35
330
17
100
AcDbEntity
  8
FILL_LIME_00FF00
370
0
420
65280
100
AcDbPolyline
 90
4
 70
1
 10
382.29
 20
175.44
 10
333.09
 20
175.44
 10
333.09
 20
150.24
 10
387.09
 20
150.24
  0
LWPOLYLINE
  5
36
330
17
100
AcDbEntity
  8
FILL_LIME_00FF00
370
0
420
65280
100
AcDbPolyline
 90
4
 70
1
 10
323.49
 20
150.24
 10
323.49
 20
175.44
 10
274.29
 20
175.44
 10
274.29
 20
150.24
  0
LWPOLYLINE
  5
37
330
17
100
AcDbEntity
  8
FILL_LIME_00FF00
370
0
420
65280
100
AcDbPolyline
 90
4
 70
1
 10
199.89
 20
175.44
 10
186.69
 20
150.24
 10
225.09
 20
150.24
 10
225.09
 20
175.44
  0
HATCH
  5
38
330
17
100
AcDbEntity
  8
FILL_LIME_00FF00
 62
7
420
65280
100
AcDbHatch
 10
0.0
 20
0.0
 30
0.0
210
0.0
220
0.0
230
1.0
  2
SOLID
 70
1
 71
0
 91
1
 92
3
 72
0
 73
1
 93
5
 10
396.69
 20
143.04
 10
396.69
 20
128.64
 10
264.69
 20
128.64
 10
264.69
 20
143.04
 10
396.69
 20
143.04
 97
0
 75
1
 76
1
 98
0
  0
LWPOLYLINE
  5
39
330
17
100
AcDbEntity
  8
FILL_LIME_00FF00
370
0
420
65280
100
AcDbPolyline
 90
4
 70
1
 10
396.69
 20
143.04
 10
396.69
 20
128.64
 10
264.69
 20
128.64
 10
264.69
 20
143.04
  0
HATCH
  5
3A
330
17
100
AcDbEntity
  8
FILL_LIME_00FF00
 62
7
420
65280
100
AcDbHatch
 10
0.0
 20
0.0
 30
0.0
210
0.0
220
0.0
230
1.0
  2
SOLID
 70
1
 71
0
 91
1
 92
3
 72
0
 73
1
 93
81
 10
401.49
 20
102.24
 10
401.49
 20
97.44
 10
359.49
 20
92.64
 10
359.49
 20
97.44
 10
359.43
 20
98.84
 10
359.25
 20
100.33
 10
358.92
 20
101.87
 10
358.44
 20
103.44
 10
357.79
 20
105.01
 10
356.96
 20
106.55
 10
355.93
 20
108.04
 10
354.69
 20
109.44
 10
353.34
 20
110.68
 10
351.97
 20
111.71
 10
350.58
 20
112.54
 10
349.14
 20
113.19
 10
347.65
 20
113.67
 10
346.08
 20
114.0
 10
344.44
 20
114.18
 10
342.69
 20
114.24
 10
341.29
 20
114.18
 10
339.8
 20
114.0
 10
338.26
 20
113.67
 10
336.69
 20
113.19
 10
335.12
 20
112.54
 10
333.58
 20
111.71
 10
332.09
 20
110.68
 10
330.69
 20
109.44
 10
329.45
 20
108.04
 10
328.42
 20
106.55
 10
327.59
 20
105.01
 10
326.94
 20
103.44
 10
326.46
 20
101.87
 10
326.13
 20
100.33
 10
325.95
 20
98.84
 10
325.89
 20
97.44
 10
325.89
 20
92.64
 10
222.69
 20
92.64
 10
222.69
 20
97.44
 10
222.63
 20
98.84
 10
222.45
 20
100.33
 10
222.12
 20
101.87
 10
221.64
 20
103.44
 10
220.99
 20
105.01
 10
220.16
 20
106.55
 10
219.13
 20
108.04
 10
217.89
 20
109.44
 10
216.54
 20
110.68
 10
215.17
 20
111.71
 10
213.78
 20
112.54
 10
212.34
 20
113.19
 10
210.85
 20
113.67
 10
209.28
 20
114.0
 10
207.64
 20
114.18
 10
205.89
 20
114.24
 10
204.49
 20
114.18
 10
203.0
 20
114.0
 10
201.46
 20
113.67
 10
199.89
 20
113.19
 10
198.32
 20
112.54
 10
196.78
 20
111.71
 10
195.29
 20
110.68
 10
193.89
 20
109.44
 10
192.99
 20
107.83
 10
192.09
 20
106.44
 10
191.19
 20
105.05
 10
190.29
 20
103.44
 10
189.6
 20
101.66
 10
189.24
 20
99.99
 10
189.09
 20
97.44
 10
167.49
 20
97.44
 10
167.49
 20
102.24
 10
172.29
 20
107.04
 10
172.29
 20
126.24
 10
235.89
 20
126.24
 10
235.89
 20
97.44
 10
264.69
 20
97.44
 10
264.69
 20
126.24
 10
396.69
 20
126.24
 10
396.69
 20
107.04
 10
401.49
 20
102.24
 97
0
 75
1
 76
1
 98
0
  0
LWPOLYLINE
  5
3B
330
17
100
AcDbEntity
  8
FILL_LIME_00FF00
370
0
420
65280
100
AcDbPolyline
 90
80
 70
1
 10
401.49
 20
102.24
 10
401.49
 20
97.44
 10
359.49
 20
92.64
 10
359.49
 20
97.44
 10
359.43
 20
98.84
 10
359.25
 20
100.33
 10
358.92
 20
101.87
 10
358.44
 20
103.44
 10
357.79
 20
105.01
 10
356.96
 20
106.55
 10
355.93
 20
108.04
 10
354.69
 20
109.44
 10
353.34
 20
110.68
 10
351.97
 20
111.71
 10
350.58
 20
112.54
 10
349.14
 20
113.19
 10
347.65
 20
113.67
 10
346.08
 20
114.0
 10
344.44
 20
114.18
 10
342.69
 20
114.24
 10
341.29
 20
114.18
 10
339.8
 20
114.0
 10
338.26
 20
113.67
 10
336.69
 20
113.19
 10
335.12
 20
112.54
 10
333.58
 20
111.71
 10
332.09
 20
110.68
 10
330.69
 20
109.44
 10
329.45
 20
108.04
 10
328.42
 20
106.55
 10
327.59
 20
105.01
 10
326.94
 20
103.44
 10
326.46
 20
101.87
 10
326.13
 20
100.33
 10
325.95
 20
98.84
 10
325.89
 20
97.44
 10
325.89
 20
92.64
 10
222.69
 20
92.64
 10
222.69
 20
97.44
 10
222.63
 20
98.84
 10
222.45
 20
100.33
 10
222.12
 20
101.87
 10
221.64
 20
103.44
 10
220.99
 20
105.01
 10
220.16
 20
106.55
 10
219.13
 20
108.04
 10
217.89
 20
109.44
 10
216.54
 20
110.68
 10
215.17
 20
111.71
 10
213.78
 20
112.54
 10
212.34
 20
113.19
 10
210.85
 20
113.67
 10
209.28
 20
114.0
 10
207.64
 20
114.18
 10
205.89
 20
114.24
 10
204.49
 20
114.18
 10
203.0
 20
114.0
 10
201.46
 20
113.67
 10
199.89
 20
113.19
 10
198.32
 20
112.54
 10
196.78
 20
111.71
 10
195.29
 20
110.68
 10
193.89
 20
109.44
 10
192.99
 20
107.83
 10
192.09
 20
106.44
 10
191.19
 20
105.05
 10
190.29
 20
103.44
 10
189.6
 20
101.66
 10
189.24
 20
99.99
 10
189.09
 20
97.44
 10
167.49
 20
97.44
 10
167.49
 20
102.24
 10
172.29
 20
107.04
 10
172.29
 20
126.24
 10
235.89
 20
126.24
 10
235.89
 20
97.44
 10
264.69
 20
97.44
 10
264.69
 20
126.24
 10
396.69
 20
126.24
 10
396.69
 20
107.04
  0
HATCH
  5
3C
330
17
100
AcDbEntity
  8
FILL_LIME_00FF00
 62
7
420
65280
100
AcDbHatch
 10
0.0
 20
0.0
 30
0.0
210
0.0
220
0.0
230
1.0
  2
SOLID
 70
1
 71
0
 91
2
 92
3
 72
0
 73
1
 93
65
 10
356.82
 20
94.36
 10
356.48
 20
92.88
 10
356.02
 20
91.46
 10
355.44
 20
90.1
 10
354.75
 20
88.81
 10
353.95
 20
87.61
 10
353.04
 20
86.49
 10
352.04
 20
85.47
 10
350.94
 20
84.56
 10
349.75
 20
83.77
 10
348.48
 20
83.1
 10
347.14
 20
82.56
 10
345.72
 20
82.17
 10
344.24
 20
81.92
 10
342.69
 20
81.84
 10
341.14
 20
81.92
 10
339.66
 20
82.17
 10
338.24
 20
82.56
 10
336.9
 20
83.1
 10
335.63
 20
83.77
 10
334.44
 20
84.56
 10
333.34
 20
85.47
 10
332.34
 20
86.49
 10
331.43
 20
87.61
 10
330.63
 20
88.81
 10
329.94
 20
90.1
 10
329.36
 20
91.46
 10
328.9
 20
92.88
 10
328.56
 20
94.36
 10
328.36
 20
95.88
 10
328.29
 20
97.44
 10
328.36
 20
98.79
 10
328.56
 20
100.13
 10
328.9
 20
101.44
 10
329.36
 20
102.73
 10
329.94
 20
103.97
 10
330.63
 20
105.16
 10
331.43
 20
106.29
 10
332.34
 20
107.34
 10
333.34
 20
108.31
 10
334.44
 20
109.18
 10
335.63
 20
109.95
 10
336.9
 20
110.6
 10
338.24
 20
111.13
 10
339.66
 20
111.52
 10
341.14
 20
111.76
 10
342.69
 20
111.84
 10
344.24
 20
111.76
 10
345.72
 20
111.52
 10
347.14
 20
111.13
 10
348.48
 20
110.6
 10
349.75
 20
109.95
 10
350.94
 20
109.18
 10
352.04
 20
108.31
 10
353.04
 20
107.34
 10
353.95
 20
106.29
 10
354.75
 20
105.16
 10
355.44
 20
103.97
 10
356.02
 20
102.73
 10
356.48
 20
101.44
 10
356.82
 20
100.13
 10
357.02
 20
98.79
 10
357.09
 20
97.44
 10
357.02
 20
95.88
 10
356.82
 20
94.36
 97
0
 92
18
 72
0
 73
1
 93
33
 10
349.44
 20
100.08
 10
348.88
 20
101.3
 10
348.09
 20
102.39
 10
347.08
 20
103.31
 10
345.84
 20
104.02
 10
344.38
 20
104.48
 10
342.69
 20
104.64
 10
341.35
 20
104.48
 10
340.05
 20
104.02
 10
338.83
 20
103.31
 10
337.74
 20
102.39
 10
336.82
 20
101.3
 10
336.11
 20
100.08
 10
335.65
 20
98.78
 10
335.49
 20
97.44
 10
335.65
 20
95.75
 10
336.11
 20
94.29
 10
336.82
 20
93.05
 10
337.74
 20
92.04
 10
338.83
 20
91.25
 10
340.05
 20
90.69
 10
341.35
 20
90.35
 10
342.69
 20
90.24
 10
344.38
 20
90.35
 10
345.84
 20
90.69
 10
347.08
 20
91.25
 10
348.09
 20
92.04
 10
348.88
 20
93.05
 10
349.44
 20
94.29
 10
349.78
 20
95.75
 10
349.89
 20
97.44
 10
349.78
 20
98.78
 10
349.44
 20
100.08
 97
0
 75
1
 76
1
 98
0
  0
LWPOLYLINE
  5
3D
330
17
100
AcDbEntity
  8
FILL_LIME_00FF00
370
0
420
65280
100
AcDbPolyline
 90
64
 70
1
 10
356.82
 20
94.36
 10
356.48
 20
92.88
 10
356.02
 20
91.46
 10
355.44
 20
90.1
 10
354.75
 20
88.81
 10
353.95
 20
87.61
 10
353.04
 20
86.49
 10
352.04
 20
85.47
 10
350.94
 20
84.56
 10
349.75
 20
83.77
 10
348.48
 20
83.1
 10
347.14
 20
82.56
 10
345.72
 20
82.17
 10
344.24
 20
81.92
 10
342.69
 20
81.84
 10
341.14
 20
81.92
 10
339.66
 20
82.17
 10
338.24
 20
82.56
 10
336.9
 20
83.1
 10
335.63
 20
83.77
 10
334.44
 20
84.56
 10
333.34
 20
85.47
 10
332.34
 20
86.49
 10
331.43
 20
87.61
 10
330.63
 20
88.81
 10
329.94
 20
90.1
 10
329.36
 20
91.46
 10
328.9
 20
92.88
 10
328.56
 20
94.36
 10
328.36
 20
95.88
 10
328.29
 20
97.44
 10
328.36
 20
98.79
 10
328.56
 20
100.13
 10
328.9
 20
101.44
 10
329.36
 20
102.73
 10
329.94
 20
103.97
 10
330.63
 20
105.16
 10
331.43
 20
106.29
 10
332.34
 20
107.34
 10
333.34
 20
108.31
 10
334.44
 20
109.18
 10
335.63
 20
109.95
 10
336.9
 20
110.6
 10
338.24
 20
111.13
 10
339.66
 20
111.52
 10
341.14
 20
111.76
 10
342.69
 20
111.84
 10
344.24
 20
111.76
 10
345.72
 20
111.52
 10
347.14
 20
111.13
 10
348.48
 20
110.6
 10
349.75
 20
109.95
 10
350.94
 20
109.18
 10
352.04
 20
108.31
 10
353.04
 20
107.34
 10
353.95
 20
106.29
 10
354.75
 20
105.16
 10
355.44
 20
103.97
 10
356.02
 20
102.73
 10
356.48
 20
101.44
 10
356.82
 20
100.13
 10
357.02
 20
98.79
 10
357.09
 20
97.44
 10
357.02
 20
95.88
  0
LWPOLYLINE
  5
3E
330
17
100
AcDbEntity
  8
FILL_LIME_00FF00
370
0
420
65280
100
AcDbPolyline
 90
32
 70
1
 10
349.44
 20
100.08
 10
348.88
 20
101.3
 10
348.09
 20
102.39
 10
347.08
 20
103.31
 10
345.84
 20
104.02
 10
344.38
 20
104.48
 10
342.69
 20
104.64
 10
341.35
 20
104.48
 10
340.05
 20
104.02
 10
338.83
 20
103.31
 10
337.74
 20
102.39
 10
336.82
 20
101.3
 10
336.11
 20
100.08
 10
335.65
 20
98.78
 10
335.49
 20
97.44
 10
335.65
 20
95.75
 10
336.11
 20
94.29
 10
336.82
 20
93.05
 10
337.74
 20
92.04
 10
338.83
 20
91.25
 10
340.05
 20
90.69
 10
341.35
 20
90.35
 10
342.69
 20
90.24
 10
344.38
 20
90.35
 10
345.84
 20
90.69
 10
347.08
 20
91.25
 10
348.09
 20
92.04
 10
348.88
 20
93.05
 10
349.44
 20
94.29
 10
349.78
 20
95.75
 10
349.89
 20
97.44
 10
349.78
 20
98.78
  0
HATCH
  5
3F
330
17
100
AcDbEntity
  8
FILL_LIME_00FF00
 62
7
420
65280
100
AcDbHatch
 10
0.0
 20
0.0
 30
0.0
210
0.0
220
0.0
230
1.0
  2
SOLID
 70
1
 71
0
 91
2
 92
3
 72
0
 73
1
 93
65
 10
220.02
 20
94.36
 10
219.68
 20
92.88
 10
219.22
 20
91.46
 10
218.64
 20
90.1
 10
217.95
 20
88.81
 10
217.15
 20
87.61
 10
216.24
 20
86.49
 10
215.24
 20
85.47
 10
214.14
 20
84.56
 10
212.95
 20
83.77
 10
211.68
 20
83.1
 10
210.34
 20
82.56
 10
208.92
 20
82.17
 10
207.44
 20
81.92
 10
205.89
 20
81.84
 10
204.34
 20
81.92
 10
202.86
 20
82.17
 10
201.44
 20
82.56
 10
200.1
 20
83.1
 10
198.83
 20
83.77
 10
197.64
 20
84.56
 10
196.54
 20
85.47
 10
195.54
 20
86.49
 10
194.63
 20
87.61
 10
193.83
 20
88.81
 10
193.14
 20
90.1
 10
192.56
 20
91.46
 10
192.1
 20
92.88
 10
191.76
 20
94.36
 10
191.56
 20
95.88
 10
191.49
 20
97.44
 10
191.56
 20
98.79
 10
191.76
 20
100.13
 10
192.1
 20
101.44
 10
192.56
 20
102.73
 10
193.14
 20
103.97
 10
193.83
 20
105.16
 10
194.63
 20
106.29
 10
195.54
 20
107.34
 10
196.54
 20
108.31
 10
197.64
 20
109.18
 10
198.83
 20
109.95
 10
200.1
 20
110.6
 10
201.44
 20
111.13
 10
202.86
 20
111.52
 10
204.34
 20
111.76
 10
205.89
 20
111.84
 10
207.44
 20
111.76
 10
208.92
 20
111.52
 10
210.34
 20
111.13
 10
211.68
 20
110.6
 10
212.95
 20
109.95
 10
214.14
 20
109.18
 10
215.24
 20
108.31
 10
216.24
 20
107.34
 10
217.15
 20
106.29
 10
217.95
 20
105.16
 10
218.64
 20
103.97
 10
219.22
 20
102.73
 10
219.68
 20
101.44
 10
220.02
 20
100.13
 10
220.22
 20
98.79
 10
220.29
 20
97.44
 10
220.22
 20
95.88
 10
220.02
 20
94.36
 97
0
 92
18
 72
0
 73
1
 93
33
 10
212.64
 20
100.08
 10
212.08
 20
101.3
 10
211.29
 20
102.39
 10
210.28
 20
103.31
 10
209.04
 20
104.02
 10
207.58
 20
104.48
 10
205.89
 20
104.64
 10
204.55
 20
104.48
 10
203.25
 20
104.02
 10
202.03
 20
103.31
 10
200.94
 20
102.39
 10
200.02
 20
101.3
 10
199.31
 20
100.08
 10
198.85
 20
98.78
 10
198.69
 20
97.44
 10
198.85
 20
95.75
 10
199.31
 20
94.29
 10
200.02
 20
93.05
 10
200.94
 20
92.04
 10
202.03
 20
91.25
 10
203.25
 20
90.69
 10
204.55
 20
90.35
 10
205.89
 20
90.24
 10
207.58
 20
90.35
 10
209.04
 20
90.69
 10
210.28
 20
91.25
 10
211.29
 20
92.04
 10
212.08
 20
93.05
 10
212.64
 20
94.29
 10
212.98
 20
95.75
 10
213.09
 20
97.44
 10
212.98
 20
98.78
 10
212.64
 20
100.08
 97
0
 75
1
 76
1
 98
0
  0
LWPOLYLINE
  5
40
330
17
100
AcDbEntity
  8
FILL_LIME_00FF00
370
0
420
65280
100
AcDbPolyline
 90
64
 70
1
 10
220.02
 20
94.36
 10
219.68
 20
92.88
 10
219.22
 20
91.46
 10
218.64
 20
90.1
 10
217.95
 20
88.81
 10
217.15
 20
87.61
 10
216.24
 20
86.49
 10
215.24
 20
85.47
 10
214.14
 20
84.56
 10
212.95
 20
83.77
 10
211.68
 20
83.1
 10
210.34
 20
82.56
 10
208.92
 20
82.17
 10
207.44
 20
81.92
 10
205.89
 20
81.84
 10
204.34
 20
81.92
 10
202.86
 20
82.17
 10
201.44
 20
82.56
 10
200.1
 20
83.1
 10
198.83
 20
83.77
 10
197.64
 20
84.56
 10
196.54
 20
85.47
 10
195.54
 20
86.49
 10
194.63
 20
87.61
 10
193.83
 20
88.81
 10
193.14
 20
90.1
 10
192.56
 20
91.46
 10
192.1
 20
92.88
 10
191.76
 20
94.36
 10
191.56
 20
95.88
 10
191.49
 20
97.44
 10
191.56
 20
98.79
 10
191.76
 20
100.13
 10
192.1
 20
101.44
 10
192.56
 20
102.73
 10
193.14
 20
103.97
 10
193.83
 20
105.16
 10
194.63
 20
106.29
 10
195.54
 20
107.34
 10
196.54
 20
108.31
 10
197.64
 20
109.18
 10
198.83
 20
109.95
 10
200.1
 20
110.6
 10
201.44
 20
111.13
 10
202.86
 20
111.52
 10
204.34
 20
111.76
 10
205.89
 20
111.84
 10
207.44
 20
111.76
 10
208.92
 20
111.52
 10
210.34
 20
111.13
 10
211.68
 20
110.6
 10
212.95
 20
109.95
 10
214.14
 20
109.18
 10
215.24
 20
108.31
 10
216.24
 20
107.34
 10
217.15
 20
106.29
 10
217.95
 20
105.16
 10
218.64
 20
103.97
 10
219.22
 20
102.73
 10
219.68
 20
101.44
 10
220.02
 20
100.13
 10
220.22
 20
98.79
 10
220.29
 20
97.44
 10
220.22
 20
95.88
  0
LWPOLYLINE
  5
41
330
17
100
AcDbEntity
  8
FILL_LIME_00FF00
370
0
420
65280
100
AcDbPolyline
 90
32
 70
1
 10
212.64
 20
100.08
 10
212.08
 20
101.3
 10
211.29
 20
102.39
 10
210.28
 20
103.31
 10
209.04
 20
104.02
 10
207.58
 20
104.48
 10
205.89
 20
104.64
 10
204.55
 20
104.48
 10
203.25
 20
104.02
 10
202.03
 20
103.31
 10
200.94
 20
102.39
 10
200.02
 20
101.3
 10
199.31
 20
100.08
 10
198.85
 20
98.78
 10
198.69
 20
97.44
 10
198.85
 20
95.75
 10
199.31
 20
94.29
 10
200.02
 20
93.05
 10
200.94
 20
92.04
 10
202.03
 20
91.25
 10
203.25
 20
90.69
 10
204.55
 20
90.35
 10
205.89
 20
90.24
 10
207.58
 20
90.35
 10
209.04
 20
90.69
 10
210.28
 20
91.25
 10
211.29
 20
92.04
 10
212.08
 20
93.05
 10
212.64
 20
94.29
 10
212.98
 20
95.75
 10
213.09
 20
97.44
 10
212.98
 20
98.78
  0
HATCH
  5
42
330
17
100
AcDbEntity
  8
FILL_LIME_00FF00
 62
7
420
65280
100
AcDbHatch
 10
0.0
 20
0.0
 30
0.0
210
0.0
220
0.0
230
1.0
  2
SOLID
 70
1
 71
0
 91
1
 92
3
 72
0
 73
1
 93
5
 10
235.89
 20
143.04
 10
235.89
 20
128.64
 10
172.29
 20
128.64
 10
172.29
 20
143.04
 10
235.89
 20
143.04
 97
0
 75
1
 76
1
 98
0
  0
LWPOLYLINE
  5
43
330
17
100
AcDbEntity
  8
FILL_LIME_00FF00
370
0
420
65280
100
AcDbPolyline
 90
4
 70
1
 10
235.89
 20
143.04
 10
235.89
 20
128.64
 10
172.29
 20
128.64
 10
172.29
 20
143.04
  0
LWPOLYLINE
  5
45
330
17
100
AcDbEntity
  8
STROKE_LIME_00FF00
370
0
420
65280
100
AcDbPolyline
 90
48
 70
0
 10
123.08999999999992
 20
258.2399999999993
 10
445.8899999999999
 20
258.2399999999993
 10
446.7888281249999
 20
258.1849218749993
 10
447.6806249999999
 20
258.02437499999934
 10
449.415
 20
257.4149999999993
 10
451.03687500000007
 20
256.46812499999925
 10
452.49
 20
255.2399999999992
 10
453.71812500000004
 20
253.78687499999916
 10
454.66499999999996
 20
252.1649999999991
 10
455.2743750000001
 20
250.43062499999903
 10
455.434921875
 20
249.538828124999
 10
455.49
 20
248.63999999999896
 10
455.49
 20
24.239999999998872
 10
455.434921875
 20
23.129941406248975
 10
455.2743750000001
 20
22.053281249999003
 10
455.015390625
 20
21.015292968749065
 10
454.66499999999996
 20
20.02124999999907
 10
453.71812500000004
 20
18.186093749999145
 10
452.48999999999995
 20
16.58999999999918
 10
451.036875
 20
15.275156249999156
 10
449.41499999999996
 20
14.283749999999202
 10
447.68062499999996
 20
13.6579687499991
 10
446.7888281249999
 20
13.495371093749156
 10
445.8899999999999
 20
13.439999999999145
 10
123.08999999999992
 20
13.439999999999145
 10
121.99341796874991
 20
13.495371093749156
 10
120.95484374999992
 20
13.6579687499991
 10
119.97603515624992
 20
13.92251953124918
 10
119.05874999999993
 20
14.283749999999202
 10
118.20474609374995
 20
14.736386718749145
 10
117.41578124999997
 20
15.275156249999213
 10
116.69361328124995
 20
15.894785156249156
 10
116.03999999999996
 20
16.58999999999918
 10
114.94546874999997
 20
18.186093749999145
 10
114.14625
 20
20.0212499999991
 10
113.65640625
 20
22.05328124999903
 10
113.49000000000001
 20
24.239999999998872
 10
113.49000000000001
 20
248.63999999999896
 10
113.65640624999999
 20
250.43062499999903
 10
114.14625
 20
252.1649999999991
 10
114.94546874999997
 20
253.78687499999916
 10
116.03999999999996
 20
255.2399999999992
 10
117.41578124999995
 20
256.46812499999925
 10
119.05874999999993
 20
257.4149999999993
 10
119.97603515624994
 20
257.7653906249993
 10
120.95484374999992
 20
258.02437499999934
 10
121.99341796874992
 20
258.1849218749993
 10
123.08999999999992
 20
258.2399999999993
  0
ENDSEC
  0
SECTION
  2
OBJECTS
  0
DICTIONARY
  5
A
330
0
100
AcDbDictionary
281
1
  3
ACAD_COLOR
350
B
  3
ACAD_GROUP
350
C
  3
ACAD_LAYOUT
350
D
  3
ACAD_MATERIAL
350
E
  3
ACAD_MLEADERSTYLE
350
F
  3
ACAD_MLINESTYLE
350
10
  3
ACAD_PLOTSETTINGS
350
11
  3
ACAD_PLOTSTYLENAME
350
12
  3
ACAD_SCALELIST
350
14
  3
ACAD_TABLESTYLE
350
15
  3
ACAD_VISUALSTYLE
350
16
  3
EZDXF_META
350
2D
  0
DICTIONARY
  5
B
330
A
100
AcDbDictionary
281
1
  0
DICTIONARY
  5
C
330
A
100
AcDbDictionary
281
1
  0
DICTIONARY
  5
D
330
A
100
AcDbDictionary
281
1
  3
Model
350
1A
  3
Layout1
350
1E
  0
DICTIONARY
  5
E
330
A
100
AcDbDictionary
281
1
  3
ByBlock
350
1F
  3
ByLayer
350
20
  3
Global
350
21
  0
DICTIONARY
  5
F
330
A
100
AcDbDictionary
281
1
  3
Standard
350
2C
  0
DICTIONARY
  5
10
330
A
100
AcDbDictionary
281
1
  3
Standard
350
22
  0
DICTIONARY
  5
11
330
A
100
AcDbDictionary
281
1
  0
ACDBDICTIONARYWDFLT
  5
12
330
A
100
AcDbDictionary
281
1
  3
Normal
350
13
100
AcDbDictionaryWithDefault
340
13
  0
ACDBPLACEHOLDER
  5
13
330
12
  0
DICTIONARY
  5
14
330
A
100
AcDbDictionary
281
1
  0
DICTIONARY
  5
15
330
A
100
AcDbDictionary
281
1
  0
DICTIONARY
  5
16
330
A
100
AcDbDictionary
281
1
  0
LAYOUT
  5
1A
330
D
100
AcDbPlotSettings
  1

  4
A3
  6

 40
7.5
 41
20.0
 42
7.5
 43
20.0
 44
420.0
 45
297.0
 46
0.0
 47
0.0
 48
0.0
 49
0.0
140
0.0
141
0.0
142
1.0
143
1.0
 70
1024
 72
1
 73
0
 74
5
  7

 75
16
 76
0
 77
2
 78
300
147
1.0
148
0.0
149
0.0
100
AcDbLayout
  1
Model
 70
1
 71
0
 10
0.0
 20
0.0
 11
420.0
 21
297.0
 12
0.0
 22
0.0
 32
0.0
 14
1e+20
 24
1e+20
 34
1e+20
 15
-1e+20
 25
-1e+20
 35
-1e+20
146
0.0
 13
0.0
 23
0.0
 33
0.0
 16
1.0
 26
0.0
 36
0.0
 17
0.0
 27
1.0
 37
0.0
 76
1
330
17
  0
LAYOUT
  5
1E
330
D
100
AcDbPlotSettings
  1

  4
A3
  6

 40
7.5
 41
20.0
 42
7.5
 43
20.0
 44
420.0
 45
297.0
 46
0.0
 47
0.0
 48
0.0
 49
0.0
140
0.0
141
0.0
142
1.0
143
1.0
 70
0
 72
1
 73
0
 74
5
  7

 75
16
 76
0
 77
2
 78
300
147
1.0
148
0.0
149
0.0
100
AcDbLayout
  1
Layout1
 70
1
 71
1
 10
0.0
 20
0.0
 11
420.0
 21
297.0
 12
0.0
 22
0.0
 32
0.0
 14
1e+20
 24
1e+20
 34
1e+20
 15
-1e+20
 25
-1e+20
 35
-1e+20
146
0.0
 13
0.0
 23
0.0
 33
0.0
 16
1.0
 26
0.0
 36
0.0
 17
0.0
 27
1.0
 37
0.0
 76
1
330
1B
  0
MATERIAL
  5
1F
102
{ACAD_REACTORS
330
E
102
}
330
E
100
AcDbMaterial
  1
ByBlock
  2

 70
0
 40
1.0
 71
1
 41
1.0
 91
-1023410177
 42
1.0
 72
1
  3

 73
1
 74
1
 75
1
 44
0.5
 73
0
 45
1.0
 46
1.0
 77
1
  4

 78
1
 79
1
170
1
 48
1.0
171
1
  6

172
1
173
1
174
1
140
1.0
141
1.0
175
1
  7

176
1
177
1
178
1
143
1.0
179
1
  8

270
1
271
1
272
1
145
1.0
146
1.0
273
1
  9

274
1
275
1
276
1
 42
1.0
 72
1
  3

 73
1
 74
1
 75
1
 94
63
  0
MATERIAL
  5
20
102
{ACAD_REACTORS
330
E
102
}
330
E
100
AcDbMaterial
  1
ByLayer
  2

 70
0
 40
1.0
 71
1
 41
1.0
 91
-1023410177
 42
1.0
 72
1
  3

 73
1
 74
1
 75
1
 44
0.5
 73
0
 45
1.0
 46
1.0
 77
1
  4

 78
1
 79
1
170
1
 48
1.0
171
1
  6

172
1
173
1
174
1
140
1.0
141
1.0
175
1
  7

176
1
177
1
178
1
143
1.0
179
1
  8

270
1
271
1
272
1
145
1.0
146
1.0
273
1
  9

274
1
275
1
276
1
 42
1.0
 72
1
  3

 73
1
 74
1
 75
1
 94
63
  0
MATERIAL
  5
21
102
{ACAD_REACTORS
330
E
102
}
330
E
100
AcDbMaterial
  1
Global
  2

 70
0
 40
1.0
 71
1
 41
1.0
 91
-1023410177
 42
1.0
 72
1
  3

 73
1
 74
1
 75
1
 44
0.5
 73
0
 45
1.0
 46
1.0
 77
1
  4

 78
1
 79
1
170
1
 48
1.0
171
1
  6

172
1
173
1
174
1
140
1.0
141
1.0
175
1
  7

176
1
177
1
178
1
143
1.0
179
1
  8

270
1
271
1
272
1
145
1.0
146
1.0
273
1
  9

274
1
275
1
276
1
 42
1.0
 72
1
  3

 73
1
 74
1
 75
1
 94
63
  0
MLINESTYLE
  5
22
102
{ACAD_REACTORS
330
10
102
}
330
10
100
AcDbMlineStyle
  2
Standard
 70
0
  3

 62
256
 51
90.0
 52
90.0
 71
2
 49
0.5
 62
256
  6
BYLAYER
 49
-0.5
 62
256
  6
BYLAYER
  0
MLEADERSTYLE
  5
2C
102
{ACAD_REACTORS
330
F
102
}
330
F
100
AcDbMLeaderStyle
179
2
170
2
171
1
172
0
 90
2
 40
0.0
 41
0.0
173
1
 91
-1056964608
 92
-2
290
1
 42
2.0
291
1
 43
8.0
  3
Standard
 44
4.0
300

342
29
174
1
175
1
176
0
178
1
 93
-1056964608
 45
4.0
292
0
297
0
 46
4.0
 94
-1056964608
 47
1.0
 49
1.0
140
1.0
294
1
141
0.0
177
0
142
1.0
295
0
296
0
143
3.75
271
0
272
9
273
9
  0
DICTIONARY
  5
2D
330
A
100
AcDbDictionary
280
1
281
1
  3
CREATED_BY_EZDXF
350
2E
  3
WRITTEN_BY_EZDXF
350
48
  0
DICTIONARYVAR
  5
2E
330
2D
100
DictionaryVariables
280
0
  1
1.4.4 @ 2026-07-10T01:53:56.195123+00:00
  0
DICTIONARYVAR
  5
48
330
2D
100
DictionaryVariables
280
0
  1
1.4.4 @ 2026-07-10T01:53:56.198204+00:00
  0
ENDSEC
  0
EOF
