  0
SECTION
  2
HEADER
  9
$ACADVER
  1
AC1024
  9
$ACADMAINTVER
 70
6
  9
$DWGCODEPAGE
  3
ANSI_1252
  9
$LASTSAVEDBY
  1
ezdxf
  9
$INSBASE
 10
0.0
 20
0.0
 30
0.0
  9
$EXTMIN
 10
1e+20
 20
1e+20
 30
1e+20
  9
$EXTMAX
 10
-1e+20
 20
-1e+20
 30
-1e+20
  9
$LIMMIN
 10
0.0
 20
0.0
  9
$LIMMAX
 10
420.0
 20
297.0
  9
$ORTHOMODE
 70
0
  9
$REGENMODE
 70
1
  9
$FILLMODE
 70
1
  9
$QTEXTMODE
 70
0
  9
$MIRRTEXT
 70
1
  9
$LTSCALE
 40
1.0
  9
$ATTMODE
 70
1
  9
$TEXTSIZE
 40
2.5
  9
$TRACEWID
 40
1.0
  9
$TEXTSTYLE
  7
Standard
  9
$CLAYER
  8
0
  9
$CELTYPE
  6
ByLayer
  9
$CECOLOR
 62
256
  9
$CELTSCALE
 40
1.0
  9
$DISPSILH
 70
0
  9
$DIMSCALE
 40
1.0
  9
$DIMASZ
 40
2.5
  9
$DIMEXO
 40
0.625
  9
$DIMDLI
 40
3.75
  9
$DIMRND
 40
0.0
  9
$DIMDLE
 40
0.0
  9
$DIMEXE
 40
1.25
  9
$DIMTP
 40
0.0
  9
$DIMTM
 40
0.0
  9
$DIMTXT
 40
2.5
  9
$DIMCEN
 40
2.5
  9
$DIMTSZ
 40
0.0
  9
$DIMTOL
 70
0
  9
$DIMLIM
 70
0
  9
$DIMTIH
 70
0
  9
$DIMTOH
 70
0
  9
$DIMSE1
 70
0
  9
$DIMSE2
 70
0
  9
$DIMTAD
 70
1
  9
$DIMZIN
 70
8
  9
$DIMBLK
  1

  9
$DIMASO
 70
1
  9
$DIMSHO
 70
1
  9
$DIMPOST
  1

  9
$DIMAPOST
  1

  9
$DIMALT
 70
0
  9
$DIMALTD
 70
3
  9
$DIMALTF
 40
0.03937007874
  9
$DIMLFAC
 40
1.0
  9
$DIMTOFL
 70
1
  9
$DIMTVP
 40
0.0
  9
$DIMTIX
 70
0
  9
$DIMSOXD
 70
0
  9
$DIMSAH
 70
0
  9
$DIMBLK1
  1

  9
$DIMBLK2
  1

  9
$DIMSTYLE
  2
ISO-25
  9
$DIMCLRD
 70
0
  9
$DIMCLRE
 70
0
  9
$DIMCLRT
 70
0
  9
$DIMTFAC
 40
1.0
  9
$DIMGAP
 40
0.625
  9
$DIMJUST
 70
0
  9
$DIMSD1
 70
0
  9
$DIMSD2
 70
0
  9
$DIMTOLJ
 70
0
  9
$DIMTZIN
 70
8
  9
$DIMALTZ
 70
0
  9
$DIMALTTZ
 70
0
  9
$DIMUPT
 70
0
  9
$DIMDEC
 70
2
  9
$DIMTDEC
 70
2
  9
$DIMALTU
 70
2
  9
$DIMALTTD
 70
3
  9
$DIMTXSTY
  7
Standard
  9
$DIMAUNIT
 70
0
  9
$DIMADEC
 70
0
  9
$DIMALTRND
 40
0.0
  9
$DIMAZIN
 70
0
  9
$DIMDSEP
 70
44
  9
$DIMATFIT
 70
3
  9
$DIMFRAC
 70
0
  9
$DIMLDRBLK
  1

  9
$DIMLUNIT
 70
2
  9
$DIMLWD
 70
-2
  9
$DIMLWE
 70
-2
  9
$DIMTMOVE
 70
0
  9
$DIMFXL
 40
1.0
  9
$DIMFXLON
 70
0
  9
$DIMJOGANG
 40
0.785398163397
  9
$DIMTFILL
 70
0
  9
$DIMTFILLCLR
 70
0
  9
$DIMARCSYM
 70
0
  9
$DIMLTYPE
  6

  9
$DIMLTEX1
  6

  9
$DIMLTEX2
  6

  9
$DIMTXTDIRECTION
 70
0
  9
$LUNITS
 70
2
  9
$LUPREC
 70
4
  9
$SKETCHINC
 40
1.0
  9
$FILLETRAD
 40
10.0
  9
$AUNITS
 70
0
  9
$AUPREC
 70
2
  9
$MENU
  1
.
  9
$ELEVATION
 40
0.0
  9
$PELEVATION
 40
0.0
  9
$THICKNESS
 40
0.0
  9
$LIMCHECK
 70
0
  9
$CHAMFERA
 40
0.0
  9
$CHAMFERB
 40
0.0
  9
$CHAMFERC
 40
0.0
  9
$CHAMFERD
 40
0.0
  9
$SKPOLY
 70
0
  9
$TDCREATE
 40
2461232.4125
  9
$TDUCREATE
 40
2458532.153996898
  9
$TDUPDATE
 40
2461232.4125
  9
$TDUUPDATE
 40
2458532.1544311
  9
$TDINDWG
 40
0.0
  9
$TDUSRTIMER
 40
0.0
  9
$USRTIMER
 70
1
  9
$ANGBASE
 50
0.0
  9
$ANGDIR
 70
0
  9
$PDMODE
 70
0
  9
$PDSIZE
 40
0.0
  9
$PLINEWID
 40
0.0
  9
$SPLFRAME
 70
0
  9
$SPLINETYPE
 70
6
  9
$SPLINESEGS
 70
8
  9
$HANDSEED
  5
61
  9
$SURFTAB1
 70
6
  9
$SURFTAB2
 70
6
  9
$SURFTYPE
 70
6
  9
$SURFU
 70
6
  9
$SURFV
 70
6
  9
$UCSBASE
  2

  9
$UCSNAME
  2

  9
$UCSORG
 10
0.0
 20
0.0
 30
0.0
  9
$UCSXDIR
 10
1.0
 20
0.0
 30
0.0
  9
$UCSYDIR
 10
0.0
 20
1.0
 30
0.0
  9
$UCSORTHOREF
  2

  9
$UCSORTHOVIEW
 70
0
  9
$UCSORGTOP
 10
0.0
 20
0.0
 30
0.0
  9
$UCSORGBOTTOM
 10
0.0
 20
0.0
 30
0.0
  9
$UCSORGLEFT
 10
0.0
 20
0.0
 30
0.0
  9
$UCSORGRIGHT
 10
0.0
 20
0.0
 30
0.0
  9
$UCSORGFRONT
 10
0.0
 20
0.0
 30
0.0
  9
$UCSORGBACK
 10
0.0
 20
0.0
 30
0.0
  9
$PUCSBASE
  2

  9
$PUCSNAME
  2

  9
$PUCSORG
 10
0.0
 20
0.0
 30
0.0
  9
$PUCSXDIR
 10
1.0
 20
0.0
 30
0.0
  9
$PUCSYDIR
 10
0.0
 20
1.0
 30
0.0
  9
$PUCSORTHOREF
  2

  9
$PUCSORTHOVIEW
 70
0
  9
$PUCSORGTOP
 10
0.0
 20
0.0
 30
0.0
  9
$PUCSORGBOTTOM
 10
0.0
 20
0.0
 30
0.0
  9
$PUCSORGLEFT
 10
0.0
 20
0.0
 30
0.0
  9
$PUCSORGRIGHT
 10
0.0
 20
0.0
 30
0.0
  9
$PUCSORGFRONT
 10
0.0
 20
0.0
 30
0.0
  9
$PUCSORGBACK
 10
0.0
 20
0.0
 30
0.0
  9
$USERI1
 70
0
  9
$USERI2
 70
0
  9
$USERI3
 70
0
  9
$USERI4
 70
0
  9
$USERI5
 70
0
  9
$USERR1
 40
0.0
  9
$USERR2
 40
0.0
  9
$USERR3
 40
0.0
  9
$USERR4
 40
0.0
  9
$USERR5
 40
0.0
  9
$WORLDVIEW
 70
1
  9
$SHADEDGE
 70
3
  9
$SHADEDIF
 70
70
  9
$TILEMODE
 70
1
  9
$MAXACTVP
 70
64
  9
$PINSBASE
 10
0.0
 20
0.0
 30
0.0
  9
$PLIMCHECK
 70
0
  9
$PEXTMIN
 10
1e+20
 20
1e+20
 30
1e+20
  9
$PEXTMAX
 10
-1e+20
 20
-1e+20
 30
-1e+20
  9
$PLIMMIN
 10
0.0
 20
0.0
  9
$PLIMMAX
 10
420.0
 20
297.0
  9
$UNITMODE
 70
0
  9
$VISRETAIN
 70
1
  9
$PLINEGEN
 70
0
  9
$PSLTSCALE
 70
1
  9
$TREEDEPTH
 70
3020
  9
$CMLSTYLE
  2
Standard
  9
$CMLJUST
 70
0
  9
$CMLSCALE
 40
20.0
  9
$PROXYGRAPHICS
 70
1
  9
$MEASUREMENT
 70
1
  9
$CELWEIGHT
370
-1
  9
$ENDCAPS
280
0
  9
$JOINSTYLE
280
0
  9
$LWDISPLAY
290
0
  9
$INSUNITS
 70
6
  9
$HYPERLINKBASE
  1

  9
$STYLESHEET
  1

  9
$XEDIT
290
1
  9
$CEPSNTYPE
380
0
  9
$PSTYLEMODE
290
1
  9
$FINGERPRINTGUID
  2
{6E824285-7801-4C31-8016-D4BA980EFD4B}
  9
$VERSIONGUID
  2
{2BB41572-D9B8-4A75-847B-F07328F41548}
  9
$EXTNAMES
290
1
  9
$PSVPSCALE
 40
0.0
  9
$OLESTARTUP
290
0
  9
$SORTENTS
280
127
  9
$INDEXCTL
280
0
  9
$HIDETEXT
280
1
  9
$XCLIPFRAME
280
1
  9
$HALOGAP
280
0
  9
$OBSCOLOR
 70
257
  9
$OBSLTYPE
280
0
  9
$INTERSECTIONDISPLAY
280
0
  9
$INTERSECTIONCOLOR
 70
257
  9
$DIMASSOC
280
2
  9
$PROJECTNAME
  1

  9
$CAMERADISPLAY
290
0
  9
$LENSLENGTH
 40
50.0
  9
$CAMERAHEIGHT
 40
0.0
  9
$STEPSPERSEC
 40
24.0
  9
$STEPSIZE
 40
100.0
  9
$3DDWFPREC
 40
2.0
  9
$PSOLWIDTH
 40
0.005
  9
$PSOLHEIGHT
 40
0.08
  9
$LOFTANG1
 40
1.570796326795
  9
$LOFTANG2
 40
1.570796326795
  9
$LOFTMAG1
 40
0.0
  9
$LOFTMAG2
 40
0.0
  9
$LOFTPARAM
 70
7
  9
$LOFTNORMALS
280
1
  9
$LATITUDE
 40
37.795
  9
$LONGITUDE
 40
-122.394
  9
$NORTHDIRECTION
 40
0.0
  9
$TIMEZONE
 70
-8000
  9
$LIGHTGLYPHDISPLAY
280
1
  9
$TILEMODELIGHTSYNCH
280
1
  9
$CMATERIAL
347
20
  9
$SOLIDHIST
280
0
  9
$SHOWHIST
280
1
  9
$DWFFRAME
280
2
  9
$DGNFRAME
280
2
  9
$REALWORLDSCALE
290
1
  9
$INTERFERECOLOR
 62
256
  9
$CSHADOW
280
0
  9
$SHADOWPLANELOCATION
 40
0.0
  0
ENDSEC
  0
SECTION
  2
CLASSES
  0
CLASS
  1
ACDBDICTIONARYWDFLT
  2
AcDbDictionaryWithDefault
  3
ObjectDBX Classes
 90
0
 91
0
280
0
281
0
  0
CLASS
  1
SUN
  2
AcDbSun
  3
SCENEOE
 90
1153
 91
0
280
0
281
0
  0
CLASS
  1
VISUALSTYLE
  2
AcDbVisualStyle
  3
ObjectDBX Classes
 90
4095
 91
0
280
0
281
0
  0
CLASS
  1
MATERIAL
  2
AcDbMaterial
  3
ObjectDBX Classes
 90
1153
 91
0
280
0
281
0
  0
CLASS
  1
SCALE
  2
AcDbScale
  3
ObjectDBX Classes
 90
1153
 91
0
280
0
281
0
  0
CLASS
  1
TABLESTYLE
  2
AcDbTableStyle
  3
ObjectDBX Classes
 90
4095
 91
0
280
0
281
0
  0
CLASS
  1
MLEADERSTYLE
  2
AcDbMLeaderStyle
  3
ACDB_MLEADERSTYLE_CLASS
 90
4095
 91
0
280
0
281
0
  0
CLASS
  1
DICTIONARYVAR
  2
AcDbDictionaryVar
  3
ObjectDBX Classes
 90
0
 91
0
280
0
281
0
  0
CLASS
  1
CELLSTYLEMAP
  2
AcDbCellStyleMap
  3
ObjectDBX Classes
 90
1152
 91
0
280
0
281
0
  0
CLASS
  1
MENTALRAYRENDERSETTINGS
  2
AcDbMentalRayRenderSettings
  3
SCENEOE
 90
1024
 91
0
280
0
281
0
  0
CLASS
  1
ACDBDETAILVIEWSTYLE
  2
AcDbDetailViewStyle
  3
ObjectDBX Classes
 90
1025
 91
0
280
0
281
0
  0
CLASS
  1
ACDBSECTIONVIEWSTYLE
  2
AcDbSectionViewStyle
  3
ObjectDBX Classes
 90
1025
 91
0
280
0
281
0
  0
CLASS
  1
RASTERVARIABLES
  2
AcDbRasterVariables
  3
ISM
 90
0
 91
0
280
0
281
0
  0
CLASS
  1
LAYOUT
  2
AcDbLayout
  3
ObjectDBX Classes
 90
0
 91
0
280
0
281
0
  0
CLASS
  1
ACDBPLACEHOLDER
  2
AcDbPlaceHolder
  3
ObjectDBX Classes
 90
0
 91
0
280
0
281
0
  0
ENDSEC
  0
SECTION
  2
TABLES
  0
TABLE
  2
VPORT
  5
8
330
0
100
AcDbSymbolTable
 70
1
  0
VPORT
  5
23
330
8
100
AcDbSymbolTableRecord
100
AcDbViewportTableRecord
  2
*Active
 70
0
 10
0.0
 20
0.0
 11
1.0
 21
1.0
 12
0.0
 22
0.0
 13
0.0
 23
0.0
 14
0.5
 24
0.5
 15
0.5
 25
0.5
 16
0.0
 26
0.0
 36
1.0
 17
0.0
 27
0.0
 37
0.0
 40
1000.0
 41
1.34
 42
50.0
 43
0.0
 44
0.0
 50
0.0
 51
0.0
 71
0
 72
1000
 73
1
 74
3
 75
0
 76
0
 77
0
 78
0
281
0
 65
0
146
0.0
  0
ENDTAB
  0
TABLE
  2
LTYPE
  5
2
330
0
100
AcDbSymbolTable
 70
3
  0
LTYPE
  5
24
330
2
100
AcDbSymbolTableRecord
100
AcDbLinetypeTableRecord
  2
ByBlock
 70
0
  3

 72
65
 73
0
 40
0.0
  0
LTYPE
  5
25
330
2
100
AcDbSymbolTableRecord
100
AcDbLinetypeTableRecord
  2
ByLayer
 70
0
  3

 72
65
 73
0
 40
0.0
  0
LTYPE
  5
26
330
2
100
AcDbSymbolTableRecord
100
AcDbLinetypeTableRecord
  2
Continuous
 70
0
  3

 72
65
 73
0
 40
0.0
  0
ENDTAB
  0
TABLE
  2
LAYER
  5
1
330
0
100
AcDbSymbolTable
 70
5
  0
LAYER
  5
27
330
1
100
AcDbSymbolTableRecord
100
AcDbLayerTableRecord
  2
0
 70
0
 62
7
  6
Continuous
370
-3
390
13
347
21
  0
LAYER
  5
28
330
1
100
AcDbSymbolTableRecord
100
AcDbLayerTableRecord
  2
Defpoints
 70
0
 62
7
  6
Continuous
290
0
370
-3
390
13
347
21
  0
LAYER
  5
2F
330
1
100
AcDbSymbolTableRecord
100
AcDbLayerTableRecord
  2
FILL_WHITE_FFFFFF
 70
0
 62
7
420
16777215
  6
Continuous
370
-3
390
13
347
21
  0
LAYER
  5
32
330
1
100
AcDbSymbolTableRecord
100
AcDbLayerTableRecord
  2
FILL_BLUE_0000FF
 70
0
 62
7
420
255
  6
Continuous
370
-3
390
13
347
21
  0
LAYER
  5
58
330
1
100
AcDbSymbolTableRecord
100
AcDbLayerTableRecord
  2
STROKE_BLUE_0000FF
 70
0
 62
7
420
255
  6
Continuous
370
-3
390
13
347
21
  0
ENDTAB
  0
TABLE
  2
STYLE
  5
5
330
0
100
AcDbSymbolTable
 70
1
  0
STYLE
  5
29
330
5
100
AcDbSymbolTableRecord
100
AcDbTextStyleTableRecord
  2
Standard
 70
0
 40
0.0
 41
1.0
 50
0.0
 71
0
 42
2.5
  3
txt
  4

  0
ENDTAB
  0
TABLE
  2
VIEW
  5
7
330
0
100
AcDbSymbolTable
 70
0
  0
ENDTAB
  0
TABLE
  2
UCS
  5
6
330
0
100
AcDbSymbolTable
 70
0
  0
ENDTAB
  0
TABLE
  2
APPID
  5
3
330
0
100
AcDbSymbolTable
 70
3
  0
APPID
  5
2A
330
3
100
AcDbSymbolTableRecord
100
AcDbRegAppTableRecord
  2
ACAD
 70
0
  0
APPID
  5
5E
330
3
100
AcDbSymbolTableRecord
100
AcDbRegAppTableRecord
  2
HATCHBACKGROUNDCOLOR
 70
0
  0
APPID
  5
5F
330
3
100
AcDbSymbolTableRecord
100
AcDbRegAppTableRecord
  2
EZDXF
 70
0
  0
ENDTAB
  0
TABLE
  2
DIMSTYLE
  5
4
330
0
100
AcDbSymbolTable
 70
1
100
AcDbDimStyleTable
  0
DIMSTYLE
105
2B
330
4
100
AcDbSymbolTableRecord
100
AcDbDimStyleTableRecord
  2
Standard
 70
0
 40
1.0
 41
2.5
 42
0.625
 43
3.75
 44
1.25
 45
0.0
 46
0.0
 47
0.0
 48
0.0
 49
2.5
140
2.5
141
2.5
142
0.0
143
0.03937007874
144
1.0
145
0.0
146
1.0
147
0.625
148
0.0
 69
0
 70
0
 71
0
 72
0
 73
0
 74
0
 75
0
 76
0
 77
1
 78
8
 79
3
170
0
171
3
172
1
173
0
174
0
175
0
176
0
177
0
178
0
179
2
271
2
272
2
273
2
274
3
275
0
276
0
277
2
278
44
279
0
280
0
281
0
282
0
283
0
284
8
285
0
286
0
288
0
289
3
290
0
371
-2
372
-2
  0
ENDTAB
  0
TABLE
  2
BLOCK_RECORD
  5
9
330
0
100
AcDbSymbolTable
 70
2
  0
BLOCK_RECORD
  5
17
330
9
100
AcDbSymbolTableRecord
100
AcDbBlockTableRecord
  2
*Model_Space
340
1A
 70
0
280
1
281
0
  0
BLOCK_RECORD
  5
1B
330
9
100
AcDbSymbolTableRecord
100
AcDbBlockTableRecord
  2
*Paper_Space
340
1E
 70
0
280
1
281
0
  0
ENDTAB
  0
ENDSEC
  0
SECTION
  2
BLOCKS
  0
BLOCK
  5
18
330
17
100
AcDbEntity
  8
0
100
AcDbBlockBegin
  2
*Model_Space
 70
0
 10
0.0
 20
0.0
 30
0.0
  3
*Model_Space
  1

  0
ENDBLK
  5
19
330
17
100
AcDbEntity
  8
0
100
AcDbBlockEnd
  0
BLOCK
  5
1C
330
1B
100
AcDbEntity
  8
0
100
AcDbBlockBegin
  2
*Paper_Space
 70
0
 10
0.0
 20
0.0
 30
0.0
  3
*Paper_Space
  1

  0
ENDBLK
  5
1D
330
1B
100
AcDbEntity
  8
0
100
AcDbBlockEnd
  0
ENDSEC
  0
SECTION
  2
ENTITIES
  0
HATCH
  5
30
330
17
100
AcDbEntity
  8
FILL_WHITE_FFFFFF
 62
7
420
16777215
100
AcDbHatch
 10
0.0
 20
0.0
 30
0.0
210
0.0
220
0.0
230
1.0
  2
SOLID
 70
1
 71
0
 91
1
 92
3
 72
0
 73
1
 93
62
 10
144.0
 20
10.43
 10
142.67
 20
10.73
 10
141.36
 20
11.21
 10
140.1
 20
11.82
 10
138.89
 20
12.55
 10
137.76
 20
13.36
 10
135.75
 20
15.12
 10
134.51
 20
16.07
 10
133.48
 20
17.13
 10
132.65
 20
18.26
 10
132.0
 20
19.47
 10
131.52
 20
20.73
 10
131.19
 20
22.04
 10
131.01
 20
23.37
 10
130.95
 20
24.72
 10
130.95
 20
247.92
 10
131.14
 20
249.01
 10
131.55
 20
250.32
 10
131.96
 20
251.63
 10
132.15
 20
252.72
 10
133.5
 20
255.57
 10
133.87
 20
256.11
 10
134.34
 20
256.6
 10
134.96
 20
257.07
 10
135.75
 20
257.52
 10
139.35
 20
261.12
 10
145.35
 20
261.12
 10
422.55
 20
261.12
 10
423.9
 20
261.06
 10
425.23
 20
260.89
 10
426.54
 20
260.61
 10
427.8
 20
260.22
 10
429.01
 20
259.71
 10
430.14
 20
259.09
 10
431.2
 20
258.36
 10
432.15
 20
257.52
 10
433.39
 20
256.57
 10
434.42
 20
255.51
 10
435.25
 20
254.38
 10
435.9
 20
253.17
 10
436.38
 20
251.91
 10
436.71
 20
250.6
 10
436.89
 20
249.27
 10
436.95
 20
247.92
 10
436.95
 20
24.72
 10
436.89
 20
23.37
 10
436.71
 20
22.04
 10
436.38
 20
20.73
 10
435.9
 20
19.47
 10
435.25
 20
18.26
 10
434.42
 20
17.13
 10
433.39
 20
16.07
 10
432.15
 20
15.12
 10
430.14
 20
13.36
 10
429.01
 20
12.55
 10
427.8
 20
11.82
 10
426.54
 20
11.21
 10
425.23
 20
10.73
 10
423.9
 20
10.43
 10
422.55
 20
10.32
 10
145.35
 20
10.32
 10
144.0
 20
10.43
 97
0
 75
1
 76
1
 98
0
  0
LWPOLYLINE
  5
31
330
17
100
AcDbEntity
  8
FILL_WHITE_FFFFFF
370
0
420
16777215
100
AcDbPolyline
 90
61
 70
1
 10
144.0
 20
10.43
 10
142.67
 20
10.73
 10
141.36
 20
11.21
 10
140.1
 20
11.82
 10
138.89
 20
12.55
 10
137.76
 20
13.36
 10
135.75
 20
15.12
 10
134.51
 20
16.07
 10
133.48
 20
17.13
 10
132.65
 20
18.26
 10
132.0
 20
19.47
 10
131.52
 20
20.73
 10
131.19
 20
22.04
 10
131.01
 20
23.37
 10
130.95
 20
24.72
 10
130.95
 20
247.92
 10
131.14
 20
249.01
 10
131.55
 20
250.32
 10
131.96
 20
251.63
 10
132.15
 20
252.72
 10
133.5
 20
255.57
 10
133.87
 20
256.11
 10
134.34
 20
256.6
 10
134.96
 20
257.07
 10
135.75
 20
257.52
 10
139.35
 20
261.12
 10
145.35
 20
261.12
 10
422.55
 20
261.12
 10
423.9
 20
261.06
 10
425.23
 20
260.89
 10
426.54
 20
260.61
 10
427.8
 20
260.22
 10
429.01
 20
259.71
 10
430.14
 20
259.09
 10
431.2
 20
258.36
 10
432.15
 20
257.52
 10
433.39
 20
256.57
 10
434.42
 20
255.51
 10
435.25
 20
254.38
 10
435.9
 20
253.17
 10
436.38
 20
251.91
 10
436.71
 20
250.6
 10
436.89
 20
249.27
 10
436.95
 20
247.92
 10
436.95
 20
24.72
 10
436.89
 20
23.37
 10
436.71
 20
22.04
 10
436.38
 20
20.73
 10
435.9
 20
19.47
 10
435.25
 20
18.26
 10
434.42
 20
17.13
 10
433.39
 20
16.07
 10
432.15
 20
15.12
 10
430.14
 20
13.36
 10
429.01
 20
12.55
 10
427.8
 20
11.82
 10
426.54
 20
11.21
 10
425.23
 20
10.73
 10
423.9
 20
10.43
 10
422.55
 20
10.32
 10
145.35
 20
10.32
  0
HATCH
  5
33
330
17
100
AcDbEntity
  8
FILL_BLUE_0000FF
 62
7
420
255
100
AcDbHatch
 10
0.0
 20
0.0
 30
0.0
210
0.0
220
0.0
230
1.0
  2
SOLID
 70
1
 71
0
 91
1
 92
3
 72
0
 73
1
 93
53
 10
144.01
 20
17.68
 10
142.71
 20
18.14
 10
141.49
 20
18.85
 10
140.4
 20
19.77
 10
139.48
 20
20.86
 10
138.77
 20
22.08
 10
138.31
 20
23.38
 10
138.15
 20
24.72
 10
138.15
 20
247.92
 10
138.19
 20
249.01
 10
138.45
 20
250.32
 10
138.74
 20
250.99
 10
139.16
 20
251.63
 10
139.76
 20
252.22
 10
140.55
 20
252.72
 10
141.47
 20
253.6
 10
142.5
 20
254.37
 10
143.76
 20
254.91
 10
144.5
 20
255.07
 10
145.35
 20
255.12
 10
422.55
 20
255.12
 10
423.4
 20
255.07
 10
424.14
 20
254.91
 10
425.4
 20
254.37
 10
426.43
 20
253.6
 10
427.35
 20
252.72
 10
428.23
 20
251.63
 10
429.0
 20
250.32
 10
429.54
 20
249.01
 10
429.75
 20
247.92
 10
429.75
 20
24.72
 10
429.73
 20
23.84
 10
429.6
 20
23.07
 10
429.24
 20
22.53
 10
428.95
 20
22.37
 10
428.55
 20
22.32
 10
428.53
 20
21.44
 10
428.4
 20
20.67
 10
428.04
 20
20.13
 10
427.75
 20
19.97
 10
427.35
 20
19.92
 10
427.3
 20
19.52
 10
427.14
 20
19.23
 10
426.6
 20
18.87
 10
425.83
 20
18.74
 10
424.95
 20
18.72
 10
424.9
 20
18.32
 10
424.74
 20
18.03
 10
424.2
 20
17.67
 10
423.43
 20
17.54
 10
422.55
 20
17.52
 10
145.35
 20
17.52
 10
144.01
 20
17.68
 97
0
 75
1
 76
1
 98
0
  0
LWPOLYLINE
  5
34
330
17
100
AcDbEntity
  8
FILL_BLUE_0000FF
370
0
420
255
100
AcDbPolyline
 90
52
 70
1
 10
144.01
 20
17.68
 10
142.71
 20
18.14
 10
141.49
 20
18.85
 10
140.4
 20
19.77
 10
139.48
 20
20.86
 10
138.77
 20
22.08
 10
138.31
 20
23.38
 10
138.15
 20
24.72
 10
138.15
 20
247.92
 10
138.19
 20
249.01
 10
138.45
 20
250.32
 10
138.74
 20
250.99
 10
139.16
 20
251.63
 10
139.76
 20
252.22
 10
140.55
 20
252.72
 10
141.47
 20
253.6
 10
142.5
 20
254.37
 10
143.76
 20
254.91
 10
144.5
 20
255.07
 10
145.35
 20
255.12
 10
422.55
 20
255.12
 10
423.4
 20
255.07
 10
424.14
 20
254.91
 10
425.4
 20
254.37
 10
426.43
 20
253.6
 10
427.35
 20
252.72
 10
428.23
 20
251.63
 10
429.0
 20
250.32
 10
429.54
 20
249.01
 10
429.75
 20
247.92
 10
429.75
 20
24.72
 10
429.73
 20
23.84
 10
429.6
 20
23.07
 10
429.24
 20
22.53
 10
428.95
 20
22.37
 10
428.55
 20
22.32
 10
428.53
 20
21.44
 10
428.4
 20
20.67
 10
428.04
 20
20.13
 10
427.75
 20
19.97
 10
427.35
 20
19.92
 10
427.3
 20
19.52
 10
427.14
 20
19.23
 10
426.6
 20
18.87
 10
425.83
 20
18.74
 10
424.95
 20
18.72
 10
424.9
 20
18.32
 10
424.74
 20
18.03
 10
424.2
 20
17.67
 10
423.43
 20
17.54
 10
422.55
 20
17.52
 10
145.35
 20
17.52
  0
HATCH
  5
35
330
17
100
AcDbEntity
  8
FILL_WHITE_FFFFFF
 62
7
420
16777215
100
AcDbHatch
 10
0.0
 20
0.0
 30
0.0
210
0.0
220
0.0
230
1.0
  2
SOLID
 70
1
 71
0
 91
1
 92
3
 72
0
 73
1
 93
71
 10
205.35
 20
49.92
 10
205.4
 20
50.32
 10
205.54
 20
50.61
 10
205.95
 20
50.97
 10
206.55
 20
51.12
 10
207.26
 20
51.81
 10
207.75
 20
52.17
 10
208.24
 20
52.3
 10
208.95
 20
52.32
 10
210.04
 20
52.11
 10
211.35
 20
51.57
 10
212.66
 20
50.8
 10
213.75
 20
49.92
 10
214.15
 20
49.97
 10
214.46
 20
50.11
 10
214.95
 20
50.52
 10
215.44
 20
50.93
 10
215.75
 20
51.07
 10
216.15
 20
51.12
 10
216.2
 20
51.52
 10
216.36
 20
51.81
 10
216.9
 20
52.17
 10
217.67
 20
52.3
 10
218.55
 20
52.32
 10
219.45
 20
52.3
 10
220.35
 20
52.17
 10
221.25
 20
51.81
 10
222.15
 20
51.12
 10
225.75
 20
47.52
 10
225.75
 20
46.32
 10
225.75
 20
33.12
 10
220.95
 20
33.12
 10
220.95
 20
45.12
 10
220.95
 20
46.32
 10
220.95
 20
47.52
 10
220.24
 20
48.21
 10
219.75
 20
48.57
 10
219.26
 20
48.7
 10
218.55
 20
48.72
 10
218.15
 20
48.67
 10
217.84
 20
48.53
 10
217.35
 20
48.12
 10
216.86
 20
47.71
 10
216.55
 20
47.57
 10
216.15
 20
47.52
 10
215.96
 20
46.64
 10
215.55
 20
45.87
 10
214.95
 20
45.12
 10
214.95
 20
33.12
 10
211.35
 20
33.12
 10
211.35
 20
45.12
 10
211.35
 20
46.32
 10
211.3
 20
46.72
 10
211.16
 20
47.01
 10
210.75
 20
47.37
 10
210.15
 20
47.52
 10
210.1
 20
47.92
 10
209.96
 20
48.21
 10
209.55
 20
48.57
 10
208.95
 20
48.72
 10
208.07
 20
48.53
 10
207.3
 20
48.12
 10
206.55
 20
47.52
 10
205.86
 20
46.64
 10
205.5
 20
45.87
 10
205.35
 20
45.12
 10
205.35
 20
33.12
 10
201.75
 20
33.12
 10
201.75
 20
52.32
 10
205.35
 20
52.32
 10
205.35
 20
49.92
 97
0
 75
1
 76
1
 98
0
  0
LWPOLYLINE
  5
36
330
17
100
AcDbEntity
  8
FILL_WHITE_FFFFFF
370
0
420
16777215
100
AcDbPolyline
 90
70
 70
1
 10
205.35
 20
49.92
 10
205.4
 20
50.32
 10
205.54
 20
50.61
 10
205.95
 20
50.97
 10
206.55
 20
51.12
 10
207.26
 20
51.81
 10
207.75
 20
52.17
 10
208.24
 20
52.3
 10
208.95
 20
52.32
 10
210.04
 20
52.11
 10
211.35
 20
51.57
 10
212.66
 20
50.8
 10
213.75
 20
49.92
 10
214.15
 20
49.97
 10
214.46
 20
50.11
 10
214.95
 20
50.52
 10
215.44
 20
50.93
 10
215.75
 20
51.07
 10
216.15
 20
51.12
 10
216.2
 20
51.52
 10
216.36
 20
51.81
 10
216.9
 20
52.17
 10
217.67
 20
52.3
 10
218.55
 20
52.32
 10
219.45
 20
52.3
 10
220.35
 20
52.17
 10
221.25
 20
51.81
 10
222.15
 20
51.12
 10
225.75
 20
47.52
 10
225.75
 20
46.32
 10
225.75
 20
33.12
 10
220.95
 20
33.12
 10
220.95
 20
45.12
 10
220.95
 20
46.32
 10
220.95
 20
47.52
 10
220.24
 20
48.21
 10
219.75
 20
48.57
 10
219.26
 20
48.7
 10
218.55
 20
48.72
 10
218.15
 20
48.67
 10
217.84
 20
48.53
 10
217.35
 20
48.12
 10
216.86
 20
47.71
 10
216.55
 20
47.57
 10
216.15
 20
47.52
 10
215.96
 20
46.64
 10
215.55
 20
45.87
 10
214.95
 20
45.12
 10
214.95
 20
33.12
 10
211.35
 20
33.12
 10
211.35
 20
45.12
 10
211.35
 20
46.32
 10
211.3
 20
46.72
 10
211.16
 20
47.01
 10
210.75
 20
47.37
 10
210.15
 20
47.52
 10
210.1
 20
47.92
 10
209.96
 20
48.21
 10
209.55
 20
48.57
 10
208.95
 20
48.72
 10
208.07
 20
48.53
 10
207.3
 20
48.12
 10
206.55
 20
47.52
 10
205.86
 20
46.64
 10
205.5
 20
45.87
 10
205.35
 20
45.12
 10
205.35
 20
33.12
 10
201.75
 20
33.12
 10
201.75
 20
52.32
 10
205.35
 20
52.32
  0
HATCH
  5
37
330
17
100
AcDbEntity
  8
FILL_WHITE_FFFFFF
 62
7
420
16777215
100
AcDbHatch
 10
0.0
 20
0.0
 30
0.0
210
0.0
220
0.0
230
1.0
  2
SOLID
 70
1
 71
0
 91
1
 92
3
 72
0
 73
1
 93
13
 10
190.95
 20
52.32
 10
196.95
 20
52.32
 10
189.75
 20
43.92
 10
196.95
 20
33.12
 10
192.15
 20
33.12
 10
187.35
 20
41.52
 10
184.95
 20
39.12
 10
184.95
 20
33.12
 10
180.15
 20
33.12
 10
180.15
 20
59.52
 10
184.95
 20
59.52
 10
184.95
 20
43.92
 10
190.95
 20
52.32
 97
0
 75
1
 76
1
 98
0
  0
LWPOLYLINE
  5
38
330
17
100
AcDbEntity
  8
FILL_WHITE_FFFFFF
370
0
420
16777215
100
AcDbPolyline
 90
12
 70
1
 10
190.95
 20
52.32
 10
196.95
 20
52.32
 10
189.75
 20
43.92
 10
196.95
 20
33.12
 10
192.15
 20
33.12
 10
187.35
 20
41.52
 10
184.95
 20
39.12
 10
184.95
 20
33.12
 10
180.15
 20
33.12
 10
180.15
 20
59.52
 10
184.95
 20
59.52
 10
184.95
 20
43.92
  0
HATCH
  5
39
330
17
100
AcDbEntity
  8
FILL_WHITE_FFFFFF
 62
7
420
16777215
100
AcDbHatch
 10
0.0
 20
0.0
 30
0.0
210
0.0
220
0.0
230
1.0
  2
SOLID
 70
1
 71
0
 91
1
 92
3
 72
0
 73
1
 93
13
 10
153.75
 20
54.72
 10
150.15
 20
54.72
 10
150.15
 20
57.12
 10
151.35
 20
57.12
 10
152.06
 20
57.14
 10
152.55
 20
57.27
 10
153.04
 20
57.63
 10
153.75
 20
58.32
 10
153.75
 20
59.52
 10
156.15
 20
59.52
 10
156.15
 20
42.72
 10
153.75
 20
42.72
 10
153.75
 20
54.72
 97
0
 75
1
 76
1
 98
0
  0
LWPOLYLINE
  5
3A
330
17
100
AcDbEntity
  8
FILL_WHITE_FFFFFF
370
0
420
16777215
100
AcDbPolyline
 90
12
 70
1
 10
153.75
 20
54.72
 10
150.15
 20
54.72
 10
150.15
 20
57.12
 10
151.35
 20
57.12
 10
152.06
 20
57.14
 10
152.55
 20
57.27
 10
153.04
 20
57.63
 10
153.75
 20
58.32
 10
153.75
 20
59.52
 10
156.15
 20
59.52
 10
156.15
 20
42.72
 10
153.75
 20
42.72
  0
HATCH
  5
3B
330
17
100
AcDbEntity
  8
FILL_WHITE_FFFFFF
 62
7
420
16777215
100
AcDbHatch
 10
0.0
 20
0.0
 30
0.0
210
0.0
220
0.0
230
1.0
  2
SOLID
 70
1
 71
0
 91
1
 92
3
 72
0
 73
1
 93
57
 10
158.26
 20
44.01
 10
158.29
 20
45.19
 10
158.59
 20
46.26
 10
159.15
 20
47.22
 10
159.93
 20
48.06
 10
160.91
 20
48.79
 10
162.06
 20
49.41
 10
163.35
 20
49.92
 10
164.65
 20
50.21
 10
165.84
 20
50.2
 10
166.96
 20
49.94
 10
168.0
 20
49.47
 10
168.99
 20
48.83
 10
169.93
 20
48.06
 10
171.75
 20
46.32
 10
171.75
 20
42.72
 10
171.04
 20
41.82
 10
170.55
 20
40.92
 10
170.06
 20
40.02
 10
169.35
 20
39.12
 10
167.76
 20
38.22
 10
166.5
 20
37.32
 10
164.55
 20
35.52
 10
171.75
 20
35.52
 10
171.75
 20
33.12
 10
158.55
 20
33.12
 10
158.55
 20
35.52
 10
159.64
 20
36.42
 10
160.95
 20
37.32
 10
162.26
 20
38.22
 10
163.35
 20
39.12
 10
164.92
 20
40.02
 10
166.05
 20
40.92
 10
166.72
 20
41.82
 10
166.89
 20
42.27
 10
166.95
 20
42.72
 10
167.62
 20
43.62
 10
167.79
 20
44.07
 10
167.85
 20
44.52
 10
167.79
 20
44.97
 10
167.62
 20
45.42
 10
166.95
 20
46.32
 10
166.05
 20
46.49
 10
165.15
 20
46.77
 10
164.25
 20
46.83
 10
163.8
 20
46.66
 10
163.35
 20
46.32
 10
162.95
 20
46.27
 10
162.64
 20
46.13
 10
162.15
 20
45.72
 10
161.66
 20
45.31
 10
161.35
 20
45.17
 10
160.95
 20
45.12
 10
160.95
 20
43.92
 10
160.95
 20
42.72
 10
158.55
 20
42.72
 10
158.26
 20
44.01
 97
0
 75
1
 76
1
 98
0
  0
LWPOLYLINE
  5
3C
330
17
100
AcDbEntity
  8
FILL_WHITE_FFFFFF
370
0
420
16777215
100
AcDbPolyline
 90
56
 70
1
 10
158.26
 20
44.01
 10
158.29
 20
45.19
 10
158.59
 20
46.26
 10
159.15
 20
47.22
 10
159.93
 20
48.06
 10
160.91
 20
48.79
 10
162.06
 20
49.41
 10
163.35
 20
49.92
 10
164.65
 20
50.21
 10
165.84
 20
50.2
 10
166.96
 20
49.94
 10
168.0
 20
49.47
 10
168.99
 20
48.83
 10
169.93
 20
48.06
 10
171.75
 20
46.32
 10
171.75
 20
42.72
 10
171.04
 20
41.82
 10
170.55
 20
40.92
 10
170.06
 20
40.02
 10
169.35
 20
39.12
 10
167.76
 20
38.22
 10
166.5
 20
37.32
 10
164.55
 20
35.52
 10
171.75
 20
35.52
 10
171.75
 20
33.12
 10
158.55
 20
33.12
 10
158.55
 20
35.52
 10
159.64
 20
36.42
 10
160.95
 20
37.32
 10
162.26
 20
38.22
 10
163.35
 20
39.12
 10
164.92
 20
40.02
 10
166.05
 20
40.92
 10
166.72
 20
41.82
 10
166.89
 20
42.27
 10
166.95
 20
42.72
 10
167.62
 20
43.62
 10
167.79
 20
44.07
 10
167.85
 20
44.52
 10
167.79
 20
44.97
 10
167.62
 20
45.42
 10
166.95
 20
46.32
 10
166.05
 20
46.49
 10
165.15
 20
46.77
 10
164.25
 20
46.83
 10
163.8
 20
46.66
 10
163.35
 20
46.32
 10
162.95
 20
46.27
 10
162.64
 20
46.13
 10
162.15
 20
45.72
 10
161.66
 20
45.31
 10
161.35
 20
45.17
 10
160.95
 20
45.12
 10
160.95
 20
43.92
 10
160.95
 20
42.72
 10
158.55
 20
42.72
  0
HATCH
  5
3D
330
17
100
AcDbEntity
  8
FILL_WHITE_FFFFFF
 62
7
420
16777215
100
AcDbHatch
 10
0.0
 20
0.0
 30
0.0
210
0.0
220
0.0
230
1.0
  2
SOLID
 70
1
 71
0
 91
1
 92
3
 72
0
 73
1
 93
49
 10
390.15
 20
70.47
 10
391.46
 20
70.83
 10
392.05
 20
71.12
 10
392.55
 20
71.52
 10
393.75
 20
72.72
 10
393.75
 20
75.12
 10
393.75
 20
137.52
 10
381.75
 20
125.52
 10
381.75
 20
143.52
 10
399.75
 20
161.52
 10
417.75
 20
143.52
 10
417.75
 20
125.52
 10
405.75
 20
137.52
 10
405.75
 20
24.72
 10
393.75
 20
24.72
 10
393.75
 20
52.32
 10
393.73
 20
53.22
 10
393.6
 20
54.12
 10
393.24
 20
55.02
 10
392.55
 20
55.92
 10
391.8
 20
56.52
 10
391.03
 20
56.93
 10
390.15
 20
57.12
 10
219.75
 20
102.72
 10
217.07
 20
103.83
 10
214.5
 20
105.27
 10
212.16
 20
106.94
 10
210.15
 20
108.72
 10
208.57
 20
111.42
 10
207.96
 20
112.77
 10
207.45
 20
114.12
 10
207.06
 20
115.47
 10
206.77
 20
116.82
 10
206.61
 20
118.17
 10
206.55
 20
119.52
 10
206.55
 20
137.52
 10
194.55
 20
125.52
 10
194.55
 20
143.52
 10
212.55
 20
161.52
 10
231.75
 20
143.52
 10
231.75
 20
125.52
 10
218.55
 20
137.52
 10
218.55
 20
119.52
 10
218.74
 20
118.64
 10
219.15
 20
117.87
 10
219.75
 20
117.12
 10
222.15
 20
114.72
 10
387.75
 20
70.32
 10
390.15
 20
70.47
 97
0
 75
1
 76
1
 98
0
  0
LWPOLYLINE
  5
3E
330
17
100
AcDbEntity
  8
FILL_WHITE_FFFFFF
370
0
420
255
100
AcDbPolyline
 90
48
 70
1
 10
390.15
 20
70.47
 10
391.46
 20
70.83
 10
392.05
 20
71.12
 10
392.55
 20
71.52
 10
393.75
 20
72.72
 10
393.75
 20
75.12
 10
393.75
 20
137.52
 10
381.75
 20
125.52
 10
381.75
 20
143.52
 10
399.75
 20
161.52
 10
417.75
 20
143.52
 10
417.75
 20
125.52
 10
405.75
 20
137.52
 10
405.75
 20
24.72
 10
393.75
 20
24.72
 10
393.75
 20
52.32
 10
393.73
 20
53.22
 10
393.6
 20
54.12
 10
393.24
 20
55.02
 10
392.55
 20
55.92
 10
391.8
 20
56.52
 10
391.03
 20
56.93
 10
390.15
 20
57.12
 10
219.75
 20
102.72
 10
217.07
 20
103.83
 10
214.5
 20
105.27
 10
212.16
 20
106.94
 10
210.15
 20
108.72
 10
208.57
 20
111.42
 10
207.96
 20
112.77
 10
207.45
 20
114.12
 10
207.06
 20
115.47
 10
206.77
 20
116.82
 10
206.61
 20
118.17
 10
206.55
 20
119.52
 10
206.55
 20
137.52
 10
194.55
 20
125.52
 10
194.55
 20
143.52
 10
212.55
 20
161.52
 10
231.75
 20
143.52
 10
231.75
 20
125.52
 10
218.55
 20
137.52
 10
218.55
 20
119.52
 10
218.74
 20
118.64
 10
219.15
 20
117.87
 10
219.75
 20
117.12
 10
222.15
 20
114.72
 10
387.75
 20
70.32
  0
HATCH
  5
3F
330
17
100
AcDbEntity
  8
FILL_WHITE_FFFFFF
 62
7
420
16777215
100
AcDbHatch
 10
0.0
 20
0.0
 30
0.0
210
0.0
220
0.0
230
1.0
  2
SOLID
 70
1
 71
0
 91
1
 92
3
 72
0
 73
1
 93
5
 10
292.95
 20
138.72
 10
292.95
 20
102.72
 10
285.75
 20
102.72
 10
285.75
 20
138.72
 10
292.95
 20
138.72
 97
0
 75
1
 76
1
 98
0
  0
LWPOLYLINE
  5
40
330
17
100
AcDbEntity
  8
FILL_WHITE_FFFFFF
370
0
420
16777215
100
AcDbPolyline
 90
4
 70
1
 10
292.95
 20
138.72
 10
292.95
 20
102.72
 10
285.75
 20
102.72
 10
285.75
 20
138.72
  0
HATCH
  5
41
330
17
100
AcDbEntity
  8
FILL_WHITE_FFFFFF
 62
7
420
16777215
100
AcDbHatch
 10
0.0
 20
0.0
 30
0.0
210
0.0
220
0.0
230
1.0
  2
SOLID
 70
1
 71
0
 91
1
 92
3
 72
0
 73
1
 93
5
 10
292.95
 20
193.92
 10
292.95
 20
156.72
 10
285.75
 20
156.72
 10
285.75
 20
193.92
 10
292.95
 20
193.92
 97
0
 75
1
 76
1
 98
0
  0
LWPOLYLINE
  5
42
330
17
100
AcDbEntity
  8
FILL_WHITE_FFFFFF
370
0
420
16777215
100
AcDbPolyline
 90
4
 70
1
 10
292.95
 20
193.92
 10
292.95
 20
156.72
 10
285.75
 20
156.72
 10
285.75
 20
193.92
  0
HATCH
  5
43
330
17
100
AcDbEntity
  8
FILL_WHITE_FFFFFF
 62
7
420
16777215
100
AcDbHatch
 10
0.0
 20
0.0
 30
0.0
210
0.0
220
0.0
230
1.0
  2
SOLID
 70
1
 71
0
 91
1
 92
3
 72
0
 73
1
 93
5
 10
292.95
 20
247.92
 10
292.95
 20
211.92
 10
285.75
 20
211.92
 10
285.75
 20
247.92
 10
292.95
 20
247.92
 97
0
 75
1
 76
1
 98
0
  0
LWPOLYLINE
  5
44
330
17
100
AcDbEntity
  8
FILL_WHITE_FFFFFF
370
0
420
16777215
100
AcDbPolyline
 90
4
 70
1
 10
292.95
 20
247.92
 10
292.95
 20
211.92
 10
285.75
 20
211.92
 10
285.75
 20
247.92
  0
HATCH
  5
45
330
17
100
AcDbEntity
  8
FILL_WHITE_FFFFFF
 62
7
420
16777215
100
AcDbHatch
 10
0.0
 20
0.0
 30
0.0
210
0.0
220
0.0
230
1.0
  2
SOLID
 70
1
 71
0
 91
2
 92
3
 72
0
 73
1
 93
83
 10
241.35
 20
189.12
 10
196.95
 20
189.12
 10
196.95
 20
179.52
 10
178.95
 20
179.52
 10
178.95
 20
183.12
 10
177.75
 20
185.82
 10
177.26
 20
186.49
 10
176.95
 20
186.66
 10
176.55
 20
186.72
 10
174.75
 20
188.29
 10
172.95
 20
189.42
 10
172.05
 20
189.81
 10
171.15
 20
190.09
 10
170.25
 20
190.26
 10
169.35
 20
190.32
 10
168.24
 20
190.26
 10
167.16
 20
190.1
 10
166.13
 20
189.84
 10
165.13
 20
189.48
 10
164.19
 20
189.02
 10
163.3
 20
188.48
 10
161.7
 20
187.17
 10
160.39
 20
185.57
 10
159.85
 20
184.68
 10
159.39
 20
183.74
 10
159.03
 20
182.74
 10
158.77
 20
181.71
 10
158.61
 20
180.63
 10
158.55
 20
179.52
 10
148.95
 20
179.52
 10
148.95
 20
197.52
 10
149.0
 20
197.92
 10
149.14
 20
198.23
 10
149.55
 20
198.72
 10
149.96
 20
199.21
 10
150.1
 20
199.52
 10
150.15
 20
199.92
 10
150.17
 20
200.63
 10
150.3
 20
201.12
 10
150.66
 20
201.61
 10
151.35
 20
202.32
 10
169.35
 20
228.72
 10
157.35
 20
228.72
 10
157.35
 20
243.12
 10
273.75
 20
243.12
 10
273.75
 20
201.12
 10
196.95
 20
201.12
 10
196.95
 20
198.72
 10
276.15
 20
198.72
 10
276.15
 20
189.12
 10
258.15
 20
189.12
 10
258.15
 20
186.72
 10
258.55
 20
186.67
 10
258.84
 20
186.53
 10
259.2
 20
186.12
 10
259.35
 20
185.52
 10
259.35
 20
180.72
 10
259.14
 20
182.5
 10
258.6
 20
184.17
 10
257.83
 20
185.61
 10
256.95
 20
186.72
 10
255.34
 20
188.29
 10
253.95
 20
189.42
 10
253.27
 20
189.81
 10
252.56
 20
190.09
 10
251.8
 20
190.26
 10
250.95
 20
190.32
 10
249.15
 20
190.3
 10
247.35
 20
190.17
 10
245.55
 20
189.81
 10
243.75
 20
189.12
 10
243.7
 20
188.72
 10
243.54
 20
188.41
 10
243.0
 20
187.92
 10
242.23
 20
187.43
 10
241.35
 20
186.72
 10
241.2
 20
186.12
 10
240.84
 20
185.71
 10
240.55
 20
185.57
 10
240.15
 20
185.52
 10
240.15
 20
186.72
 10
241.35
 20
187.92
 10
241.35
 20
189.12
 97
0
 92
18
 72
0
 73
1
 93
12
 10
157.35
 20
208.32
 10
157.35
 20
207.12
 10
157.5
 20
206.52
 10
157.86
 20
206.11
 10
158.15
 20
205.97
 10
158.55
 20
205.92
 10
159.75
 20
205.92
 10
178.95
 20
205.92
 10
178.95
 20
225.12
 10
168.15
 20
225.12
 10
157.35
 20
209.52
 10
157.35
 20
208.32
 97
0
 75
1
 76
1
 98
0
  0
LWPOLYLINE
  5
46
330
17
100
AcDbEntity
  8
FILL_WHITE_FFFFFF
370
0
420
255
100
AcDbPolyline
 90
82
 70
1
 10
241.35
 20
189.12
 10
196.95
 20
189.12
 10
196.95
 20
179.52
 10
178.95
 20
179.52
 10
178.95
 20
183.12
 10
177.75
 20
185.82
 10
177.26
 20
186.49
 10
176.95
 20
186.66
 10
176.55
 20
186.72
 10
174.75
 20
188.29
 10
172.95
 20
189.42
 10
172.05
 20
189.81
 10
171.15
 20
190.09
 10
170.25
 20
190.26
 10
169.35
 20
190.32
 10
168.24
 20
190.26
 10
167.16
 20
190.1
 10
166.13
 20
189.84
 10
165.13
 20
189.48
 10
164.19
 20
189.02
 10
163.3
 20
188.48
 10
161.7
 20
187.17
 10
160.39
 20
185.57
 10
159.85
 20
184.68
 10
159.39
 20
183.74
 10
159.03
 20
182.74
 10
158.77
 20
181.71
 10
158.61
 20
180.63
 10
158.55
 20
179.52
 10
148.95
 20
179.52
 10
148.95
 20
197.52
 10
149.0
 20
197.92
 10
149.14
 20
198.23
 10
149.55
 20
198.72
 10
149.96
 20
199.21
 10
150.1
 20
199.52
 10
150.15
 20
199.92
 10
150.17
 20
200.63
 10
150.3
 20
201.12
 10
150.66
 20
201.61
 10
151.35
 20
202.32
 10
169.35
 20
228.72
 10
157.35
 20
228.72
 10
157.35
 20
243.12
 10
273.75
 20
243.12
 10
273.75
 20
201.12
 10
196.95
 20
201.12
 10
196.95
 20
198.72
 10
276.15
 20
198.72
 10
276.15
 20
189.12
 10
258.15
 20
189.12
 10
258.15
 20
186.72
 10
258.55
 20
186.67
 10
258.84
 20
186.53
 10
259.2
 20
186.12
 10
259.35
 20
185.52
 10
259.35
 20
180.72
 10
259.14
 20
182.5
 10
258.6
 20
184.17
 10
257.83
 20
185.61
 10
256.95
 20
186.72
 10
255.34
 20
188.29
 10
253.95
 20
189.42
 10
253.27
 20
189.81
 10
252.56
 20
190.09
 10
251.8
 20
190.26
 10
250.95
 20
190.32
 10
249.15
 20
190.3
 10
247.35
 20
190.17
 10
245.55
 20
189.81
 10
243.75
 20
189.12
 10
243.7
 20
188.72
 10
243.54
 20
188.41
 10
243.0
 20
187.92
 10
242.23
 20
187.43
 10
241.35
 20
186.72
 10
241.2
 20
186.12
 10
240.84
 20
185.71
 10
240.55
 20
185.57
 10
240.15
 20
185.52
 10
240.15
 20
186.72
 10
241.35
 20
187.92
  0
LWPOLYLINE
  5
47
330
17
100
AcDbEntity
  8
FILL_WHITE_FFFFFF
370
0
420
255
100
AcDbPolyline
 90
11
 70
1
 10
157.35
 20
208.32
 10
157.35
 20
207.12
 10
157.5
 20
206.52
 10
157.86
 20
206.11
 10
158.15
 20
205.97
 10
158.55
 20
205.92
 10
159.75
 20
205.92
 10
178.95
 20
205.92
 10
178.95
 20
225.12
 10
168.15
 20
225.12
 10
157.35
 20
209.52
  0
HATCH
  5
48
330
17
100
AcDbEntity
  8
FILL_WHITE_FFFFFF
 62
7
420
16777215
100
AcDbHatch
 10
0.0
 20
0.0
 30
0.0
210
0.0
220
0.0
230
1.0
  2
SOLID
 70
1
 71
0
 91
2
 92
3
 72
0
 73
1
 93
37
 10
177.11
 20
176.18
 10
176.36
 20
174.75
 10
175.35
 20
173.52
 10
174.12
 20
172.51
 10
172.69
 20
171.76
 10
171.09
 20
171.28
 10
169.35
 20
171.12
 10
167.56
 20
171.28
 10
165.82
 20
171.76
 10
164.2
 20
172.51
 10
162.75
 20
173.52
 10
161.52
 20
174.75
 10
160.57
 20
176.18
 10
159.97
 20
177.78
 10
159.81
 20
178.63
 10
159.75
 20
179.52
 10
159.81
 20
180.42
 10
159.97
 20
181.31
 10
160.57
 20
183.04
 10
161.52
 20
184.67
 10
162.75
 20
186.12
 10
164.2
 20
187.35
 10
165.82
 20
188.29
 10
167.56
 20
188.9
 10
168.45
 20
189.06
 10
169.35
 20
189.12
 10
170.24
 20
189.06
 10
171.09
 20
188.9
 10
172.69
 20
188.29
 10
174.12
 20
187.35
 10
175.35
 20
186.12
 10
176.36
 20
184.67
 10
177.11
 20
183.04
 10
177.59
 20
181.31
 10
177.75
 20
179.52
 10
177.59
 20
177.78
 10
177.11
 20
176.18
 97
0
 92
18
 72
0
 73
1
 93
33
 10
172.72
 20
181.28
 10
172.44
 20
182.09
 10
172.05
 20
182.82
 10
171.54
 20
183.43
 10
170.92
 20
183.91
 10
170.19
 20
184.21
 10
169.35
 20
184.32
 10
168.45
 20
184.21
 10
167.59
 20
183.91
 10
166.78
 20
183.43
 10
166.05
 20
182.82
 10
165.44
 20
182.09
 10
164.96
 20
181.28
 10
164.66
 20
180.42
 10
164.55
 20
179.52
 10
164.66
 20
178.62
 10
164.96
 20
177.76
 10
165.44
 20
176.95
 10
166.05
 20
176.22
 10
166.78
 20
175.61
 10
167.59
 20
175.13
 10
168.45
 20
174.83
 10
169.35
 20
174.72
 10
170.19
 20
174.83
 10
170.92
 20
175.13
 10
171.54
 20
175.61
 10
172.05
 20
176.22
 10
172.44
 20
176.95
 10
172.72
 20
177.76
 10
172.89
 20
178.62
 10
172.95
 20
179.52
 10
172.89
 20
180.42
 10
172.72
 20
181.28
 97
0
 75
1
 76
1
 98
0
  0
LWPOLYLINE
  5
49
330
17
100
AcDbEntity
  8
FILL_WHITE_FFFFFF
370
0
420
16777215
100
AcDbPolyline
 90
36
 70
1
 10
177.11
 20
176.18
 10
176.36
 20
174.75
 10
175.35
 20
173.52
 10
174.12
 20
172.51
 10
172.69
 20
171.76
 10
171.09
 20
171.28
 10
169.35
 20
171.12
 10
167.56
 20
171.28
 10
165.82
 20
171.76
 10
164.2
 20
172.51
 10
162.75
 20
173.52
 10
161.52
 20
174.75
 10
160.57
 20
176.18
 10
159.97
 20
177.78
 10
159.81
 20
178.63
 10
159.75
 20
179.52
 10
159.81
 20
180.42
 10
159.97
 20
181.31
 10
160.57
 20
183.04
 10
161.52
 20
184.67
 10
162.75
 20
186.12
 10
164.2
 20
187.35
 10
165.82
 20
188.29
 10
167.56
 20
188.9
 10
168.45
 20
189.06
 10
169.35
 20
189.12
 10
170.24
 20
189.06
 10
171.09
 20
188.9
 10
172.69
 20
188.29
 10
174.12
 20
187.35
 10
175.35
 20
186.12
 10
176.36
 20
184.67
 10
177.11
 20
183.04
 10
177.59
 20
181.31
 10
177.75
 20
179.52
 10
177.59
 20
177.78
  0
LWPOLYLINE
  5
4A
330
17
100
AcDbEntity
  8
FILL_WHITE_FFFFFF
370
0
420
16777215
100
AcDbPolyline
 90
32
 70
1
 10
172.72
 20
181.28
 10
172.44
 20
182.09
 10
172.05
 20
182.82
 10
171.54
 20
183.43
 10
170.92
 20
183.91
 10
170.19
 20
184.21
 10
169.35
 20
184.32
 10
168.45
 20
184.21
 10
167.59
 20
183.91
 10
166.78
 20
183.43
 10
166.05
 20
182.82
 10
165.44
 20
182.09
 10
164.96
 20
181.28
 10
164.66
 20
180.42
 10
164.55
 20
179.52
 10
164.66
 20
178.62
 10
164.96
 20
177.76
 10
165.44
 20
176.95
 10
166.05
 20
176.22
 10
166.78
 20
175.61
 10
167.59
 20
175.13
 10
168.45
 20
174.83
 10
169.35
 20
174.72
 10
170.19
 20
174.83
 10
170.92
 20
175.13
 10
171.54
 20
175.61
 10
172.05
 20
176.22
 10
172.44
 20
176.95
 10
172.72
 20
177.76
 10
172.89
 20
178.62
 10
172.95
 20
179.52
 10
172.89
 20
180.42
  0
HATCH
  5
4B
330
17
100
AcDbEntity
  8
FILL_BLUE_0000FF
 62
7
420
255
100
AcDbHatch
 10
0.0
 20
0.0
 30
0.0
210
0.0
220
0.0
230
1.0
  2
SOLID
 70
1
 71
0
 91
1
 92
3
 72
0
 73
1
 93
74
 10
211.35
 20
228.72
 10
212.64
 20
228.67
 10
213.82
 20
228.51
 10
215.85
 20
227.97
 10
217.42
 20
227.2
 10
218.55
 20
226.32
 10
219.43
 20
225.19
 10
220.2
 20
223.62
 10
220.74
 20
221.59
 10
220.9
 20
220.41
 10
220.95
 20
219.12
 10
220.74
 20
217.32
 10
220.2
 20
215.52
 10
219.43
 20
213.72
 10
218.55
 20
211.92
 10
216.75
 20
211.04
 10
214.95
 20
210.27
 10
213.15
 20
209.73
 10
211.35
 20
209.52
 10
209.57
 20
209.73
 10
207.9
 20
210.27
 10
206.46
 20
211.04
 10
205.35
 20
211.92
 10
204.51
 20
212.03
 10
203.77
 20
212.33
 10
203.16
 20
212.81
 10
202.65
 20
213.42
 10
202.26
 20
214.15
 10
201.97
 20
214.96
 10
201.81
 20
215.82
 10
201.75
 20
216.72
 10
206.55
 20
217.92
 10
206.6
 20
217.52
 10
206.74
 20
217.21
 10
207.15
 20
216.72
 10
207.56
 20
216.23
 10
207.7
 20
215.92
 10
207.75
 20
215.52
 10
208.65
 20
215.33
 10
209.55
 20
214.92
 10
210.45
 20
214.51
 10
211.35
 20
214.32
 10
212.92
 20
215.24
 10
213.54
 20
215.73
 10
214.05
 20
216.27
 10
214.44
 20
216.86
 10
214.72
 20
217.53
 10
214.89
 20
218.27
 10
214.95
 20
219.12
 10
214.93
 20
220.02
 10
214.8
 20
220.92
 10
214.44
 20
221.82
 10
213.75
 20
222.72
 10
213.7
 20
223.12
 10
213.54
 20
223.41
 10
213.0
 20
223.77
 10
212.23
 20
223.9
 10
211.35
 20
223.92
 10
210.51
 20
223.87
 10
209.77
 20
223.71
 10
209.16
 20
223.48
 10
208.65
 20
223.17
 10
208.26
 20
222.81
 10
207.98
 20
222.4
 10
207.81
 20
221.97
 10
207.75
 20
221.52
 10
201.75
 20
222.72
 10
202.95
 20
235.92
 10
218.55
 20
235.92
 10
218.55
 20
231.12
 10
207.75
 20
231.12
 10
207.75
 20
228.72
 10
208.95
 20
228.72
 10
211.35
 20
228.72
 97
0
 75
1
 76
1
 98
0
  0
LWPOLYLINE
  5
4C
330
17
100
AcDbEntity
  8
FILL_BLUE_0000FF
370
0
420
255
100
AcDbPolyline
 90
73
 70
1
 10
211.35
 20
228.72
 10
212.64
 20
228.67
 10
213.82
 20
228.51
 10
215.85
 20
227.97
 10
217.42
 20
227.2
 10
218.55
 20
226.32
 10
219.43
 20
225.19
 10
220.2
 20
223.62
 10
220.74
 20
221.59
 10
220.9
 20
220.41
 10
220.95
 20
219.12
 10
220.74
 20
217.32
 10
220.2
 20
215.52
 10
219.43
 20
213.72
 10
218.55
 20
211.92
 10
216.75
 20
211.04
 10
214.95
 20
210.27
 10
213.15
 20
209.73
 10
211.35
 20
209.52
 10
209.57
 20
209.73
 10
207.9
 20
210.27
 10
206.46
 20
211.04
 10
205.35
 20
211.92
 10
204.51
 20
212.03
 10
203.77
 20
212.33
 10
203.16
 20
212.81
 10
202.65
 20
213.42
 10
202.26
 20
214.15
 10
201.97
 20
214.96
 10
201.81
 20
215.82
 10
201.75
 20
216.72
 10
206.55
 20
217.92
 10
206.6
 20
217.52
 10
206.74
 20
217.21
 10
207.15
 20
216.72
 10
207.56
 20
216.23
 10
207.7
 20
215.92
 10
207.75
 20
215.52
 10
208.65
 20
215.33
 10
209.55
 20
214.92
 10
210.45
 20
214.51
 10
211.35
 20
214.32
 10
212.92
 20
215.24
 10
213.54
 20
215.73
 10
214.05
 20
216.27
 10
214.44
 20
216.86
 10
214.72
 20
217.53
 10
214.89
 20
218.27
 10
214.95
 20
219.12
 10
214.93
 20
220.02
 10
214.8
 20
220.92
 10
214.44
 20
221.82
 10
213.75
 20
222.72
 10
213.7
 20
223.12
 10
213.54
 20
223.41
 10
213.0
 20
223.77
 10
212.23
 20
223.9
 10
211.35
 20
223.92
 10
210.51
 20
223.87
 10
209.77
 20
223.71
 10
209.16
 20
223.48
 10
208.65
 20
223.17
 10
208.26
 20
222.81
 10
207.98
 20
222.4
 10
207.81
 20
221.97
 10
207.75
 20
221.52
 10
201.75
 20
222.72
 10
202.95
 20
235.92
 10
218.55
 20
235.92
 10
218.55
 20
231.12
 10
207.75
 20
231.12
 10
207.75
 20
228.72
 10
208.95
 20
228.72
  0
HATCH
  5
4D
330
17
100
AcDbEntity
  8
FILL_BLUE_0000FF
 62
7
420
255
100
AcDbHatch
 10
0.0
 20
0.0
 30
0.0
210
0.0
220
0.0
230
1.0
  2
SOLID
 70
1
 71
0
 91
1
 92
3
 72
0
 73
1
 93
25
 10
230.5
 20
212.28
 10
230.34
 20
211.54
 10
230.11
 20
210.93
 10
229.8
 20
210.42
 10
229.44
 20
210.03
 10
229.03
 20
209.74
 10
228.6
 20
209.58
 10
228.15
 20
209.52
 10
227.7
 20
209.58
 10
227.27
 20
209.74
 10
226.86
 20
210.03
 10
226.5
 20
210.42
 10
226.19
 20
210.93
 10
225.96
 20
211.54
 10
225.8
 20
212.28
 10
225.75
 20
213.12
 10
225.96
 20
214.0
 10
226.5
 20
214.77
 10
227.27
 20
215.31
 10
228.15
 20
215.52
 10
229.03
 20
215.31
 10
229.8
 20
214.77
 10
230.34
 20
214.0
 10
230.55
 20
213.12
 10
230.5
 20
212.28
 97
0
 75
1
 76
1
 98
0
  0
LWPOLYLINE
  5
4E
330
17
100
AcDbEntity
  8
FILL_BLUE_0000FF
370
0
420
255
100
AcDbPolyline
 90
24
 70
1
 10
230.5
 20
212.28
 10
230.34
 20
211.54
 10
230.11
 20
210.93
 10
229.8
 20
210.42
 10
229.44
 20
210.03
 10
229.03
 20
209.74
 10
228.6
 20
209.58
 10
228.15
 20
209.52
 10
227.7
 20
209.58
 10
227.27
 20
209.74
 10
226.86
 20
210.03
 10
226.5
 20
210.42
 10
226.19
 20
210.93
 10
225.96
 20
211.54
 10
225.8
 20
212.28
 10
225.75
 20
213.12
 10
225.96
 20
214.0
 10
226.5
 20
214.77
 10
227.27
 20
215.31
 10
228.15
 20
215.52
 10
229.03
 20
215.31
 10
229.8
 20
214.77
 10
230.34
 20
214.0
 10
230.55
 20
213.12
  0
HATCH
  5
4F
330
17
100
AcDbEntity
  8
FILL_BLUE_0000FF
 62
7
420
255
100
AcDbHatch
 10
0.0
 20
0.0
 30
0.0
210
0.0
220
0.0
230
1.0
  2
SOLID
 70
1
 71
0
 91
1
 92
3
 72
0
 73
1
 93
74
 10
244.95
 20
228.72
 10
246.24
 20
228.67
 10
247.42
 20
228.51
 10
249.45
 20
227.97
 10
251.02
 20
227.2
 10
252.15
 20
226.32
 10
253.03
 20
225.19
 10
253.8
 20
223.62
 10
254.34
 20
221.59
 10
254.5
 20
220.41
 10
254.55
 20
219.12
 10
254.34
 20
217.32
 10
253.8
 20
215.52
 10
253.03
 20
213.72
 10
252.15
 20
211.92
 10
250.35
 20
211.04
 10
248.55
 20
210.27
 10
246.75
 20
209.73
 10
244.95
 20
209.52
 10
243.17
 20
209.73
 10
241.5
 20
210.27
 10
240.06
 20
211.04
 10
238.95
 20
211.92
 10
238.11
 20
212.03
 10
237.37
 20
212.33
 10
236.76
 20
212.81
 10
236.25
 20
213.42
 10
235.86
 20
214.15
 10
235.57
 20
214.96
 10
235.41
 20
215.82
 10
235.35
 20
216.72
 10
240.15
 20
217.92
 10
240.2
 20
217.52
 10
240.34
 20
217.21
 10
240.75
 20
216.72
 10
241.16
 20
216.23
 10
241.3
 20
215.92
 10
241.35
 20
215.52
 10
242.25
 20
215.33
 10
243.15
 20
214.92
 10
244.05
 20
214.51
 10
244.95
 20
214.32
 10
246.52
 20
215.24
 10
247.14
 20
215.73
 10
247.65
 20
216.27
 10
248.04
 20
216.86
 10
248.32
 20
217.53
 10
248.49
 20
218.27
 10
248.55
 20
219.12
 10
248.53
 20
220.02
 10
248.4
 20
220.92
 10
248.04
 20
221.82
 10
247.35
 20
222.72
 10
247.3
 20
223.12
 10
247.14
 20
223.41
 10
246.6
 20
223.77
 10
245.83
 20
223.9
 10
244.95
 20
223.92
 10
244.11
 20
223.87
 10
243.37
 20
223.71
 10
242.76
 20
223.48
 10
242.25
 20
223.17
 10
241.86
 20
222.81
 10
241.57
 20
222.4
 10
241.41
 20
221.97
 10
241.35
 20
221.52
 10
235.35
 20
222.72
 10
236.55
 20
235.92
 10
252.15
 20
235.92
 10
252.15
 20
231.12
 10
241.35
 20
231.12
 10
241.35
 20
228.72
 10
242.55
 20
228.72
 10
244.95
 20
228.72
 97
0
 75
1
 76
1
 98
0
  0
LWPOLYLINE
  5
50
330
17
100
AcDbEntity
  8
FILL_BLUE_0000FF
370
0
420
255
100
AcDbPolyline
 90
73
 70
1
 10
244.95
 20
228.72
 10
246.24
 20
228.67
 10
247.42
 20
228.51
 10
249.45
 20
227.97
 10
251.02
 20
227.2
 10
252.15
 20
226.32
 10
253.03
 20
225.19
 10
253.8
 20
223.62
 10
254.34
 20
221.59
 10
254.5
 20
220.41
 10
254.55
 20
219.12
 10
254.34
 20
217.32
 10
253.8
 20
215.52
 10
253.03
 20
213.72
 10
252.15
 20
211.92
 10
250.35
 20
211.04
 10
248.55
 20
210.27
 10
246.75
 20
209.73
 10
244.95
 20
209.52
 10
243.17
 20
209.73
 10
241.5
 20
210.27
 10
240.06
 20
211.04
 10
238.95
 20
211.92
 10
238.11
 20
212.03
 10
237.37
 20
212.33
 10
236.76
 20
212.81
 10
236.25
 20
213.42
 10
235.86
 20
214.15
 10
235.57
 20
214.96
 10
235.41
 20
215.82
 10
235.35
 20
216.72
 10
240.15
 20
217.92
 10
240.2
 20
217.52
 10
240.34
 20
217.21
 10
240.75
 20
216.72
 10
241.16
 20
216.23
 10
241.3
 20
215.92
 10
241.35
 20
215.52
 10
242.25
 20
215.33
 10
243.15
 20
214.92
 10
244.05
 20
214.51
 10
244.95
 20
214.32
 10
246.52
 20
215.24
 10
247.14
 20
215.73
 10
247.65
 20
216.27
 10
248.04
 20
216.86
 10
248.32
 20
217.53
 10
248.49
 20
218.27
 10
248.55
 20
219.12
 10
248.53
 20
220.02
 10
248.4
 20
220.92
 10
248.04
 20
221.82
 10
247.35
 20
222.72
 10
247.3
 20
223.12
 10
247.14
 20
223.41
 10
246.6
 20
223.77
 10
245.83
 20
223.9
 10
244.95
 20
223.92
 10
244.11
 20
223.87
 10
243.37
 20
223.71
 10
242.76
 20
223.48
 10
242.25
 20
223.17
 10
241.86
 20
222.81
 10
241.57
 20
222.4
 10
241.41
 20
221.97
 10
241.35
 20
221.52
 10
235.35
 20
222.72
 10
236.55
 20
235.92
 10
252.15
 20
235.92
 10
252.15
 20
231.12
 10
241.35
 20
231.12
 10
241.35
 20
228.72
 10
242.55
 20
228.72
  0
HATCH
  5
51
330
17
100
AcDbEntity
  8
FILL_BLUE_0000FF
 62
7
420
255
100
AcDbHatch
 10
0.0
 20
0.0
 30
0.0
210
0.0
220
0.0
230
1.0
  2
SOLID
 70
1
 71
0
 91
1
 92
3
 72
0
 73
1
 93
33
 10
270.15
 20
228.72
 10
270.15
 20
223.92
 10
265.35
 20
223.92
 10
265.35
 20
216.72
 10
265.37
 20
216.01
 10
265.5
 20
215.52
 10
265.86
 20
215.03
 10
266.55
 20
214.32
 10
267.75
 20
214.32
 10
268.95
 20
214.32
 10
270.15
 20
214.32
 10
271.35
 20
210.72
 10
270.85
 20
210.32
 10
270.24
 20
210.03
 10
268.8
 20
209.67
 10
267.13
 20
209.54
 10
265.35
 20
209.52
 10
264.45
 20
209.54
 10
263.55
 20
209.67
 10
262.65
 20
210.03
 10
261.75
 20
210.72
 10
261.06
 20
211.62
 10
260.7
 20
212.52
 10
260.57
 20
213.42
 10
260.55
 20
214.32
 10
260.55
 20
223.92
 10
256.95
 20
223.92
 10
256.95
 20
228.72
 10
260.55
 20
228.72
 10
260.55
 20
234.72
 10
265.35
 20
235.92
 10
265.35
 20
228.72
 10
270.15
 20
228.72
 97
0
 75
1
 76
1
 98
0
  0
LWPOLYLINE
  5
52
330
17
100
AcDbEntity
  8
FILL_BLUE_0000FF
370
0
420
255
100
AcDbPolyline
 90
32
 70
1
 10
270.15
 20
228.72
 10
270.15
 20
223.92
 10
265.35
 20
223.92
 10
265.35
 20
216.72
 10
265.37
 20
216.01
 10
265.5
 20
215.52
 10
265.86
 20
215.03
 10
266.55
 20
214.32
 10
267.75
 20
214.32
 10
268.95
 20
214.32
 10
270.15
 20
214.32
 10
271.35
 20
210.72
 10
270.85
 20
210.32
 10
270.24
 20
210.03
 10
268.8
 20
209.67
 10
267.13
 20
209.54
 10
265.35
 20
209.52
 10
264.45
 20
209.54
 10
263.55
 20
209.67
 10
262.65
 20
210.03
 10
261.75
 20
210.72
 10
261.06
 20
211.62
 10
260.7
 20
212.52
 10
260.57
 20
213.42
 10
260.55
 20
214.32
 10
260.55
 20
223.92
 10
256.95
 20
223.92
 10
256.95
 20
228.72
 10
260.55
 20
228.72
 10
260.55
 20
234.72
 10
265.35
 20
235.92
 10
265.35
 20
228.72
  0
HATCH
  5
53
330
17
100
AcDbEntity
  8
FILL_WHITE_FFFFFF
 62
7
420
16777215
100
AcDbHatch
 10
0.0
 20
0.0
 30
0.0
210
0.0
220
0.0
230
1.0
  2
SOLID
 70
1
 71
0
 91
1
 92
3
 72
0
 73
1
 93
5
 10
199.35
 20
187.92
 10
222.15
 20
187.92
 10
222.15
 20
180.72
 10
199.35
 20
180.72
 10
199.35
 20
187.92
 97
0
 75
1
 76
1
 98
0
  0
LWPOLYLINE
  5
54
330
17
100
AcDbEntity
  8
FILL_WHITE_FFFFFF
370
0
420
16777215
100
AcDbPolyline
 90
4
 70
1
 10
199.35
 20
187.92
 10
222.15
 20
187.92
 10
222.15
 20
180.72
 10
199.35
 20
180.72
  0
HATCH
  5
55
330
17
100
AcDbEntity
  8
FILL_WHITE_FFFFFF
 62
7
420
16777215
100
AcDbHatch
 10
0.0
 20
0.0
 30
0.0
210
0.0
220
0.0
230
1.0
  2
SOLID
 70
1
 71
0
 91
2
 92
3
 72
0
 73
1
 93
36
 10
257.51
 20
176.18
 10
256.76
 20
174.75
 10
255.75
 20
173.52
 10
254.52
 20
172.51
 10
253.09
 20
171.76
 10
251.49
 20
171.28
 10
249.75
 20
171.12
 10
247.61
 20
171.28
 10
245.72
 20
171.76
 10
244.08
 20
172.51
 10
242.7
 20
173.52
 10
241.61
 20
174.75
 10
240.81
 20
176.18
 10
240.32
 20
177.78
 10
240.15
 20
179.52
 10
240.32
 20
181.31
 10
240.81
 20
183.04
 10
241.61
 20
184.67
 10
242.7
 20
186.12
 10
244.08
 20
187.35
 10
245.72
 20
188.29
 10
246.64
 20
188.65
 10
247.61
 20
188.9
 10
248.65
 20
189.06
 10
249.75
 20
189.12
 10
250.64
 20
189.06
 10
251.49
 20
188.9
 10
253.09
 20
188.29
 10
254.52
 20
187.35
 10
255.75
 20
186.12
 10
256.76
 20
184.67
 10
257.51
 20
183.04
 10
257.99
 20
181.31
 10
258.15
 20
179.52
 10
257.99
 20
177.78
 10
257.51
 20
176.18
 97
0
 92
18
 72
0
 73
1
 93
33
 10
253.12
 20
181.28
 10
252.84
 20
182.09
 10
252.45
 20
182.82
 10
251.94
 20
183.43
 10
251.32
 20
183.91
 10
250.59
 20
184.21
 10
249.75
 20
184.32
 10
248.85
 20
184.21
 10
247.99
 20
183.91
 10
247.18
 20
183.43
 10
246.45
 20
182.82
 10
245.84
 20
182.09
 10
245.36
 20
181.28
 10
245.06
 20
180.42
 10
244.95
 20
179.52
 10
245.06
 20
178.62
 10
245.36
 20
177.76
 10
245.84
 20
176.95
 10
246.45
 20
176.22
 10
247.18
 20
175.61
 10
247.99
 20
175.13
 10
248.85
 20
174.83
 10
249.75
 20
174.72
 10
250.59
 20
174.83
 10
251.32
 20
175.13
 10
251.94
 20
175.61
 10
252.45
 20
176.22
 10
252.84
 20
176.95
 10
253.12
 20
177.76
 10
253.29
 20
178.62
 10
253.35
 20
179.52
 10
253.29
 20
180.42
 10
253.12
 20
181.28
 97
0
 75
1
 76
1
 98
0
  0
LWPOLYLINE
  5
56
330
17
100
AcDbEntity
  8
FILL_WHITE_FFFFFF
370
0
420
16777215
100
AcDbPolyline
 90
35
 70
1
 10
257.51
 20
176.18
 10
256.76
 20
174.75
 10
255.75
 20
173.52
 10
254.52
 20
172.51
 10
253.09
 20
171.76
 10
251.49
 20
171.28
 10
249.75
 20
171.12
 10
247.61
 20
171.28
 10
245.72
 20
171.76
 10
244.08
 20
172.51
 10
242.7
 20
173.52
 10
241.61
 20
174.75
 10
240.81
 20
176.18
 10
240.32
 20
177.78
 10
240.15
 20
179.52
 10
240.32
 20
181.31
 10
240.81
 20
183.04
 10
241.61
 20
184.67
 10
242.7
 20
186.12
 10
244.08
 20
187.35
 10
245.72
 20
188.29
 10
246.64
 20
188.65
 10
247.61
 20
188.9
 10
248.65
 20
189.06
 10
249.75
 20
189.12
 10
250.64
 20
189.06
 10
251.49
 20
188.9
 10
253.09
 20
188.29
 10
254.52
 20
187.35
 10
255.75
 20
186.12
 10
256.76
 20
184.67
 10
257.51
 20
183.04
 10
257.99
 20
181.31
 10
258.15
 20
179.52
 10
257.99
 20
177.78
  0
LWPOLYLINE
  5
57
330
17
100
AcDbEntity
  8
FILL_WHITE_FFFFFF
370
0
420
16777215
100
AcDbPolyline
 90
32
 70
1
 10
253.12
 20
181.28
 10
252.84
 20
182.09
 10
252.45
 20
182.82
 10
251.94
 20
183.43
 10
251.32
 20
183.91
 10
250.59
 20
184.21
 10
249.75
 20
184.32
 10
248.85
 20
184.21
 10
247.99
 20
183.91
 10
247.18
 20
183.43
 10
246.45
 20
182.82
 10
245.84
 20
182.09
 10
245.36
 20
181.28
 10
245.06
 20
180.42
 10
244.95
 20
179.52
 10
245.06
 20
178.62
 10
245.36
 20
177.76
 10
245.84
 20
176.95
 10
246.45
 20
176.22
 10
247.18
 20
175.61
 10
247.99
 20
175.13
 10
248.85
 20
174.83
 10
249.75
 20
174.72
 10
250.59
 20
174.83
 10
251.32
 20
175.13
 10
251.94
 20
175.61
 10
252.45
 20
176.22
 10
252.84
 20
176.95
 10
253.12
 20
177.76
 10
253.29
 20
178.62
 10
253.35
 20
179.52
 10
253.29
 20
180.42
  0
LWPOLYLINE
  5
59
330
17
100
AcDbEntity
  8
STROKE_BLUE_0000FF
370
0
420
255
100
AcDbPolyline
 90
2
 70
0
 10
211.94999999999982
 20
217.35999999999922
 10
211.94999999999982
 20
217.35999999999922
  0
LWPOLYLINE
  5
5A
330
17
100
AcDbEntity
  8
STROKE_BLUE_0000FF
370
0
420
255
100
AcDbPolyline
 90
2
 70
0
 10
211.94999999999982
 20
217.35999999999922
 10
211.94999999999982
 20
217.35999999999922
  0
LWPOLYLINE
  5
5B
330
17
100
AcDbEntity
  8
STROKE_BLUE_0000FF
370
0
420
255
100
AcDbPolyline
 90
2
 70
0
 10
241.94999999999982
 20
217.35999999999922
 10
241.94999999999982
 20
217.35999999999922
  0
LWPOLYLINE
  5
5C
330
17
100
AcDbEntity
  8
STROKE_BLUE_0000FF
370
0
420
255
100
AcDbPolyline
 90
2
 70
0
 10
241.94999999999982
 20
217.35999999999922
 10
241.94999999999982
 20
217.35999999999922
  0
LWPOLYLINE
  5
5D
330
17
100
AcDbEntity
  8
STROKE_BLUE_0000FF
370
0
420
255
100
AcDbPolyline
 90
69
 70
0
 10
436.9499999999998
 20
24.719999999999118
 10
436.9499999999998
 20
247.91999999999916
 10
436.8673828124998
 20
249.2547656249992
 10
436.6265624999998
 20
250.55437499999925
 10
436.2380859374998
 20
251.8117968749993
 10
435.7124999999998
 20
253.01999999999933
 10
435.06035156249976
 20
254.17195312499933
 10
434.2921874999997
 20
255.26062499999938
 10
433.4185546874997
 20
256.27898437499937
 10
432.4499999999997
 20
257.2199999999994
 10
431.39707031249964
 20
258.0766406249994
 10
430.2703124999997
 20
258.84187499999945
 10
429.08027343749967
 20
259.50867187499944
 10
427.83749999999964
 20
260.0699999999994
 10
426.5525390624997
 20
260.51882812499946
 10
425.23593749999964
 20
260.8481249999994
 10
423.8982421874997
 20
261.05085937499945
 10
422.5499999999997
 20
261.11999999999944
 10
145.3499999999999
 20
261.11999999999944
 10
143.80400390624987
 20
261.05085937499945
 10
142.31953124999987
 20
260.8481249999994
 10
140.90185546874986
 20
260.51882812499946
 10
139.55624999999986
 20
260.0699999999994
 10
138.28798828124985
 20
259.50867187499944
 10
137.10234374999985
 20
258.84187499999945
 10
136.00458984374984
 20
258.0766406249994
 10
134.99999999999983
 20
257.2199999999994
 10
134.0938476562498
 20
256.27898437499937
 10
133.29140624999982
 20
255.26062499999938
 10
132.59794921874982
 20
254.17195312499933
 10
132.01874999999984
 20
253.01999999999933
 10
131.55908203124983
 20
251.8117968749993
 10
131.2242187499998
 20
250.55437499999925
 10
131.01943359374982
 20
249.2547656249992
 10
130.94999999999982
 20
247.91999999999916
 10
130.94999999999982
 20
24.719999999999118
 10
131.0194335937498
 20
23.371757812499112
 10
131.22421874999984
 20
22.034062499999123
 10
131.55908203124983
 20
20.717460937499112
 10
132.0187499999998
 20
19.432499999999152
 10
132.59794921874982
 20
18.189726562499146
 10
133.29140624999982
 20
16.99968749999914
 10
134.0938476562498
 20
15.87292968749918
 10
134.99999999999983
 20
14.81999999999914
 10
136.0045898437498
 20
13.851445312499209
 10
137.10234374999985
 20
12.977812499999175
 10
138.28798828124985
 20
12.209648437499197
 10
139.55624999999986
 20
11.557499999999209
 10
140.90185546874986
 20
11.031914062499254
 10
142.31953124999987
 20
10.643437499999266
 10
143.8040039062499
 20
10.402617187499231
 10
145.3499999999999
 20
10.319999999999254
 10
422.5499999999997
 20
10.319999999999254
 10
423.8982421874997
 20
10.402617187499231
 10
425.2359374999997
 20
10.643437499999266
 10
426.55253906249965
 20
11.031914062499254
 10
427.8374999999997
 20
11.557499999999209
 10
429.08027343749967
 20
12.209648437499197
 10
430.2703124999997
 20
12.977812499999175
 10
431.39707031249964
 20
13.851445312499209
 10
432.4499999999997
 20
14.81999999999914
 10
433.4185546874997
 20
15.87292968749918
 10
434.2921874999997
 20
16.99968749999914
 10
435.06035156249976
 20
18.189726562499118
 10
435.71249999999975
 20
19.432499999999152
 10
436.23808593749976
 20
20.717460937499112
 10
436.62656249999986
 20
22.034062499999095
 10
436.8673828124998
 20
23.371757812499112
 10
436.9499999999998
 20
24.719999999999118
  0
ENDSEC
  0
SECTION
  2
OBJECTS
  0
DICTIONARY
  5
A
330
0
100
AcDbDictionary
281
1
  3
ACAD_COLOR
350
B
  3
ACAD_GROUP
350
C
  3
ACAD_LAYOUT
350
D
  3
ACAD_MATERIAL
350
E
  3
ACAD_MLEADERSTYLE
350
F
  3
ACAD_MLINESTYLE
350
10
  3
ACAD_PLOTSETTINGS
350
11
  3
ACAD_PLOTSTYLENAME
350
12
  3
ACAD_SCALELIST
350
14
  3
ACAD_TABLESTYLE
350
15
  3
ACAD_VISUALSTYLE
350
16
  3
EZDXF_META
350
2D
  0
DICTIONARY
  5
B
330
A
100
AcDbDictionary
281
1
  0
DICTIONARY
  5
C
330
A
100
AcDbDictionary
281
1
  0
DICTIONARY
  5
D
330
A
100
AcDbDictionary
281
1
  3
Model
350
1A
  3
Layout1
350
1E
  0
DICTIONARY
  5
E
330
A
100
AcDbDictionary
281
1
  3
ByBlock
350
1F
  3
ByLayer
350
20
  3
Global
350
21
  0
DICTIONARY
  5
F
330
A
100
AcDbDictionary
281
1
  3
Standard
350
2C
  0
DICTIONARY
  5
10
330
A
100
AcDbDictionary
281
1
  3
Standard
350
22
  0
DICTIONARY
  5
11
330
A
100
AcDbDictionary
281
1
  0
ACDBDICTIONARYWDFLT
  5
12
330
A
100
AcDbDictionary
281
1
  3
Normal
350
13
100
AcDbDictionaryWithDefault
340
13
  0
ACDBPLACEHOLDER
  5
13
330
12
  0
DICTIONARY
  5
14
330
A
100
AcDbDictionary
281
1
  0
DICTIONARY
  5
15
330
A
100
AcDbDictionary
281
1
  0
DICTIONARY
  5
16
330
A
100
AcDbDictionary
281
1
  0
LAYOUT
  5
1A
330
D
100
AcDbPlotSettings
  1

  4
A3
  6

 40
7.5
 41
20.0
 42
7.5
 43
20.0
 44
420.0
 45
297.0
 46
0.0
 47
0.0
 48
0.0
 49
0.0
140
0.0
141
0.0
142
1.0
143
1.0
 70
1024
 72
1
 73
0
 74
5
  7

 75
16
 76
0
 77
2
 78
300
147
1.0
148
0.0
149
0.0
100
AcDbLayout
  1
Model
 70
1
 71
0
 10
0.0
 20
0.0
 11
420.0
 21
297.0
 12
0.0
 22
0.0
 32
0.0
 14
1e+20
 24
1e+20
 34
1e+20
 15
-1e+20
 25
-1e+20
 35
-1e+20
146
0.0
 13
0.0
 23
0.0
 33
0.0
 16
1.0
 26
0.0
 36
0.0
 17
0.0
 27
1.0
 37
0.0
 76
1
330
17
  0
LAYOUT
  5
1E
330
D
100
AcDbPlotSettings
  1

  4
A3
  6

 40
7.5
 41
20.0
 42
7.5
 43
20.0
 44
420.0
 45
297.0
 46
0.0
 47
0.0
 48
0.0
 49
0.0
140
0.0
141
0.0
142
1.0
143
1.0
 70
0
 72
1
 73
0
 74
5
  7

 75
16
 76
0
 77
2
 78
300
147
1.0
148
0.0
149
0.0
100
AcDbLayout
  1
Layout1
 70
1
 71
1
 10
0.0
 20
0.0
 11
420.0
 21
297.0
 12
0.0
 22
0.0
 32
0.0
 14
1e+20
 24
1e+20
 34
1e+20
 15
-1e+20
 25
-1e+20
 35
-1e+20
146
0.0
 13
0.0
 23
0.0
 33
0.0
 16
1.0
 26
0.0
 36
0.0
 17
0.0
 27
1.0
 37
0.0
 76
1
330
1B
  0
MATERIAL
  5
1F
102
{ACAD_REACTORS
330
E
102
}
330
E
100
AcDbMaterial
  1
ByBlock
  2

 70
0
 40
1.0
 71
1
 41
1.0
 91
-1023410177
 42
1.0
 72
1
  3

 73
1
 74
1
 75
1
 44
0.5
 73
0
 45
1.0
 46
1.0
 77
1
  4

 78
1
 79
1
170
1
 48
1.0
171
1
  6

172
1
173
1
174
1
140
1.0
141
1.0
175
1
  7

176
1
177
1
178
1
143
1.0
179
1
  8

270
1
271
1
272
1
145
1.0
146
1.0
273
1
  9

274
1
275
1
276
1
 42
1.0
 72
1
  3

 73
1
 74
1
 75
1
 94
63
  0
MATERIAL
  5
20
102
{ACAD_REACTORS
330
E
102
}
330
E
100
AcDbMaterial
  1
ByLayer
  2

 70
0
 40
1.0
 71
1
 41
1.0
 91
-1023410177
 42
1.0
 72
1
  3

 73
1
 74
1
 75
1
 44
0.5
 73
0
 45
1.0
 46
1.0
 77
1
  4

 78
1
 79
1
170
1
 48
1.0
171
1
  6

172
1
173
1
174
1
140
1.0
141
1.0
175
1
  7

176
1
177
1
178
1
143
1.0
179
1
  8

270
1
271
1
272
1
145
1.0
146
1.0
273
1
  9

274
1
275
1
276
1
 42
1.0
 72
1
  3

 73
1
 74
1
 75
1
 94
63
  0
MATERIAL
  5
21
102
{ACAD_REACTORS
330
E
102
}
330
E
100
AcDbMaterial
  1
Global
  2

 70
0
 40
1.0
 71
1
 41
1.0
 91
-1023410177
 42
1.0
 72
1
  3

 73
1
 74
1
 75
1
 44
0.5
 73
0
 45
1.0
 46
1.0
 77
1
  4

 78
1
 79
1
170
1
 48
1.0
171
1
  6

172
1
173
1
174
1
140
1.0
141
1.0
175
1
  7

176
1
177
1
178
1
143
1.0
179
1
  8

270
1
271
1
272
1
145
1.0
146
1.0
273
1
  9

274
1
275
1
276
1
 42
1.0
 72
1
  3

 73
1
 74
1
 75
1
 94
63
  0
MLINESTYLE
  5
22
102
{ACAD_REACTORS
330
10
102
}
330
10
100
AcDbMlineStyle
  2
Standard
 70
0
  3

 62
256
 51
90.0
 52
90.0
 71
2
 49
0.5
 62
256
  6
BYLAYER
 49
-0.5
 62
256
  6
BYLAYER
  0
MLEADERSTYLE
  5
2C
102
{ACAD_REACTORS
330
F
102
}
330
F
100
AcDbMLeaderStyle
179
2
170
2
171
1
172
0
 90
2
 40
0.0
 41
0.0
173
1
 91
-1056964608
 92
-2
290
1
 42
2.0
291
1
 43
8.0
  3
Standard
 44
4.0
300

342
29
174
1
175
1
176
0
178
1
 93
-1056964608
 45
4.0
292
0
297
0
 46
4.0
 94
-1056964608
 47
1.0
 49
1.0
140
1.0
294
1
141
0.0
177
0
142
1.0
295
0
296
0
143
3.75
271
0
272
9
273
9
  0
DICTIONARY
  5
2D
330
A
100
AcDbDictionary
280
1
281
1
  3
CREATED_BY_EZDXF
350
2E
  3
WRITTEN_BY_EZDXF
350
60
  0
DICTIONARYVAR
  5
2E
330
2D
100
DictionaryVariables
280
0
  1
1.4.4 @ 2026-07-10T01:54:00.922368+00:00
  0
DICTIONARYVAR
  5
60
330
2D
100
DictionaryVariables
280
0
  1
1.4.4 @ 2026-07-10T01:54:00.928430+00:00
  0
ENDSEC
  0
EOF
