  0
SECTION
  2
HEADER
  9
$ACADVER
  1
AC1024
  9
$ACADMAINTVER
 70
6
  9
$DWGCODEPAGE
  3
ANSI_1252
  9
$LASTSAVEDBY
  1
ezdxf
  9
$INSBASE
 10
0.0
 20
0.0
 30
0.0
  9
$EXTMIN
 10
1e+20
 20
1e+20
 30
1e+20
  9
$EXTMAX
 10
-1e+20
 20
-1e+20
 30
-1e+20
  9
$LIMMIN
 10
0.0
 20
0.0
  9
$LIMMAX
 10
420.0
 20
297.0
  9
$ORTHOMODE
 70
0
  9
$REGENMODE
 70
1
  9
$FILLMODE
 70
1
  9
$QTEXTMODE
 70
0
  9
$MIRRTEXT
 70
1
  9
$LTSCALE
 40
1.0
  9
$ATTMODE
 70
1
  9
$TEXTSIZE
 40
2.5
  9
$TRACEWID
 40
1.0
  9
$TEXTSTYLE
  7
Standard
  9
$CLAYER
  8
0
  9
$CELTYPE
  6
ByLayer
  9
$CECOLOR
 62
256
  9
$CELTSCALE
 40
1.0
  9
$DISPSILH
 70
0
  9
$DIMSCALE
 40
1.0
  9
$DIMASZ
 40
2.5
  9
$DIMEXO
 40
0.625
  9
$DIMDLI
 40
3.75
  9
$DIMRND
 40
0.0
  9
$DIMDLE
 40
0.0
  9
$DIMEXE
 40
1.25
  9
$DIMTP
 40
0.0
  9
$DIMTM
 40
0.0
  9
$DIMTXT
 40
2.5
  9
$DIMCEN
 40
2.5
  9
$DIMTSZ
 40
0.0
  9
$DIMTOL
 70
0
  9
$DIMLIM
 70
0
  9
$DIMTIH
 70
0
  9
$DIMTOH
 70
0
  9
$DIMSE1
 70
0
  9
$DIMSE2
 70
0
  9
$DIMTAD
 70
1
  9
$DIMZIN
 70
8
  9
$DIMBLK
  1

  9
$DIMASO
 70
1
  9
$DIMSHO
 70
1
  9
$DIMPOST
  1

  9
$DIMAPOST
  1

  9
$DIMALT
 70
0
  9
$DIMALTD
 70
3
  9
$DIMALTF
 40
0.03937007874
  9
$DIMLFAC
 40
1.0
  9
$DIMTOFL
 70
1
  9
$DIMTVP
 40
0.0
  9
$DIMTIX
 70
0
  9
$DIMSOXD
 70
0
  9
$DIMSAH
 70
0
  9
$DIMBLK1
  1

  9
$DIMBLK2
  1

  9
$DIMSTYLE
  2
ISO-25
  9
$DIMCLRD
 70
0
  9
$DIMCLRE
 70
0
  9
$DIMCLRT
 70
0
  9
$DIMTFAC
 40
1.0
  9
$DIMGAP
 40
0.625
  9
$DIMJUST
 70
0
  9
$DIMSD1
 70
0
  9
$DIMSD2
 70
0
  9
$DIMTOLJ
 70
0
  9
$DIMTZIN
 70
8
  9
$DIMALTZ
 70
0
  9
$DIMALTTZ
 70
0
  9
$DIMUPT
 70
0
  9
$DIMDEC
 70
2
  9
$DIMTDEC
 70
2
  9
$DIMALTU
 70
2
  9
$DIMALTTD
 70
3
  9
$DIMTXSTY
  7
Standard
  9
$DIMAUNIT
 70
0
  9
$DIMADEC
 70
0
  9
$DIMALTRND
 40
0.0
  9
$DIMAZIN
 70
0
  9
$DIMDSEP
 70
44
  9
$DIMATFIT
 70
3
  9
$DIMFRAC
 70
0
  9
$DIMLDRBLK
  1

  9
$DIMLUNIT
 70
2
  9
$DIMLWD
 70
-2
  9
$DIMLWE
 70
-2
  9
$DIMTMOVE
 70
0
  9
$DIMFXL
 40
1.0
  9
$DIMFXLON
 70
0
  9
$DIMJOGANG
 40
0.785398163397
  9
$DIMTFILL
 70
0
  9
$DIMTFILLCLR
 70
0
  9
$DIMARCSYM
 70
0
  9
$DIMLTYPE
  6

  9
$DIMLTEX1
  6

  9
$DIMLTEX2
  6

  9
$DIMTXTDIRECTION
 70
0
  9
$LUNITS
 70
2
  9
$LUPREC
 70
4
  9
$SKETCHINC
 40
1.0
  9
$FILLETRAD
 40
10.0
  9
$AUNITS
 70
0
  9
$AUPREC
 70
2
  9
$MENU
  1
.
  9
$ELEVATION
 40
0.0
  9
$PELEVATION
 40
0.0
  9
$THICKNESS
 40
0.0
  9
$LIMCHECK
 70
0
  9
$CHAMFERA
 40
0.0
  9
$CHAMFERB
 40
0.0
  9
$CHAMFERC
 40
0.0
  9
$CHAMFERD
 40
0.0
  9
$SKPOLY
 70
0
  9
$TDCREATE
 40
2461232.412523148
  9
$TDUCREATE
 40
2458532.153996898
  9
$TDUPDATE
 40
2461232.412523148
  9
$TDUUPDATE
 40
2458532.1544311
  9
$TDINDWG
 40
0.0
  9
$TDUSRTIMER
 40
0.0
  9
$USRTIMER
 70
1
  9
$ANGBASE
 50
0.0
  9
$ANGDIR
 70
0
  9
$PDMODE
 70
0
  9
$PDSIZE
 40
0.0
  9
$PLINEWID
 40
0.0
  9
$SPLFRAME
 70
0
  9
$SPLINETYPE
 70
6
  9
$SPLINESEGS
 70
8
  9
$HANDSEED
  5
73
  9
$SURFTAB1
 70
6
  9
$SURFTAB2
 70
6
  9
$SURFTYPE
 70
6
  9
$SURFU
 70
6
  9
$SURFV
 70
6
  9
$UCSBASE
  2

  9
$UCSNAME
  2

  9
$UCSORG
 10
0.0
 20
0.0
 30
0.0
  9
$UCSXDIR
 10
1.0
 20
0.0
 30
0.0
  9
$UCSYDIR
 10
0.0
 20
1.0
 30
0.0
  9
$UCSORTHOREF
  2

  9
$UCSORTHOVIEW
 70
0
  9
$UCSORGTOP
 10
0.0
 20
0.0
 30
0.0
  9
$UCSORGBOTTOM
 10
0.0
 20
0.0
 30
0.0
  9
$UCSORGLEFT
 10
0.0
 20
0.0
 30
0.0
  9
$UCSORGRIGHT
 10
0.0
 20
0.0
 30
0.0
  9
$UCSORGFRONT
 10
0.0
 20
0.0
 30
0.0
  9
$UCSORGBACK
 10
0.0
 20
0.0
 30
0.0
  9
$PUCSBASE
  2

  9
$PUCSNAME
  2

  9
$PUCSORG
 10
0.0
 20
0.0
 30
0.0
  9
$PUCSXDIR
 10
1.0
 20
0.0
 30
0.0
  9
$PUCSYDIR
 10
0.0
 20
1.0
 30
0.0
  9
$PUCSORTHOREF
  2

  9
$PUCSORTHOVIEW
 70
0
  9
$PUCSORGTOP
 10
0.0
 20
0.0
 30
0.0
  9
$PUCSORGBOTTOM
 10
0.0
 20
0.0
 30
0.0
  9
$PUCSORGLEFT
 10
0.0
 20
0.0
 30
0.0
  9
$PUCSORGRIGHT
 10
0.0
 20
0.0
 30
0.0
  9
$PUCSORGFRONT
 10
0.0
 20
0.0
 30
0.0
  9
$PUCSORGBACK
 10
0.0
 20
0.0
 30
0.0
  9
$USERI1
 70
0
  9
$USERI2
 70
0
  9
$USERI3
 70
0
  9
$USERI4
 70
0
  9
$USERI5
 70
0
  9
$USERR1
 40
0.0
  9
$USERR2
 40
0.0
  9
$USERR3
 40
0.0
  9
$USERR4
 40
0.0
  9
$USERR5
 40
0.0
  9
$WORLDVIEW
 70
1
  9
$SHADEDGE
 70
3
  9
$SHADEDIF
 70
70
  9
$TILEMODE
 70
1
  9
$MAXACTVP
 70
64
  9
$PINSBASE
 10
0.0
 20
0.0
 30
0.0
  9
$PLIMCHECK
 70
0
  9
$PEXTMIN
 10
1e+20
 20
1e+20
 30
1e+20
  9
$PEXTMAX
 10
-1e+20
 20
-1e+20
 30
-1e+20
  9
$PLIMMIN
 10
0.0
 20
0.0
  9
$PLIMMAX
 10
420.0
 20
297.0
  9
$UNITMODE
 70
0
  9
$VISRETAIN
 70
1
  9
$PLINEGEN
 70
0
  9
$PSLTSCALE
 70
1
  9
$TREEDEPTH
 70
3020
  9
$CMLSTYLE
  2
Standard
  9
$CMLJUST
 70
0
  9
$CMLSCALE
 40
20.0
  9
$PROXYGRAPHICS
 70
1
  9
$MEASUREMENT
 70
1
  9
$CELWEIGHT
370
-1
  9
$ENDCAPS
280
0
  9
$JOINSTYLE
280
0
  9
$LWDISPLAY
290
0
  9
$INSUNITS
 70
6
  9
$HYPERLINKBASE
  1

  9
$STYLESHEET
  1

  9
$XEDIT
290
1
  9
$CEPSNTYPE
380
0
  9
$PSTYLEMODE
290
1
  9
$FINGERPRINTGUID
  2
{E9DE5A83-A47A-4669-8E17-A55097B069CA}
  9
$VERSIONGUID
  2
{ADCB7246-E28A-4B00-BBCC-C036D22331A2}
  9
$EXTNAMES
290
1
  9
$PSVPSCALE
 40
0.0
  9
$OLESTARTUP
290
0
  9
$SORTENTS
280
127
  9
$INDEXCTL
280
0
  9
$HIDETEXT
280
1
  9
$XCLIPFRAME
280
1
  9
$HALOGAP
280
0
  9
$OBSCOLOR
 70
257
  9
$OBSLTYPE
280
0
  9
$INTERSECTIONDISPLAY
280
0
  9
$INTERSECTIONCOLOR
 70
257
  9
$DIMASSOC
280
2
  9
$PROJECTNAME
  1

  9
$CAMERADISPLAY
290
0
  9
$LENSLENGTH
 40
50.0
  9
$CAMERAHEIGHT
 40
0.0
  9
$STEPSPERSEC
 40
24.0
  9
$STEPSIZE
 40
100.0
  9
$3DDWFPREC
 40
2.0
  9
$PSOLWIDTH
 40
0.005
  9
$PSOLHEIGHT
 40
0.08
  9
$LOFTANG1
 40
1.570796326795
  9
$LOFTANG2
 40
1.570796326795
  9
$LOFTMAG1
 40
0.0
  9
$LOFTMAG2
 40
0.0
  9
$LOFTPARAM
 70
7
  9
$LOFTNORMALS
280
1
  9
$LATITUDE
 40
37.795
  9
$LONGITUDE
 40
-122.394
  9
$NORTHDIRECTION
 40
0.0
  9
$TIMEZONE
 70
-8000
  9
$LIGHTGLYPHDISPLAY
280
1
  9
$TILEMODELIGHTSYNCH
280
1
  9
$CMATERIAL
347
20
  9
$SOLIDHIST
280
0
  9
$SHOWHIST
280
1
  9
$DWFFRAME
280
2
  9
$DGNFRAME
280
2
  9
$REALWORLDSCALE
290
1
  9
$INTERFERECOLOR
 62
256
  9
$CSHADOW
280
0
  9
$SHADOWPLANELOCATION
 40
0.0
  0
ENDSEC
  0
SECTION
  2
CLASSES
  0
CLASS
  1
ACDBDICTIONARYWDFLT
  2
AcDbDictionaryWithDefault
  3
ObjectDBX Classes
 90
0
 91
0
280
0
281
0
  0
CLASS
  1
SUN
  2
AcDbSun
  3
SCENEOE
 90
1153
 91
0
280
0
281
0
  0
CLASS
  1
VISUALSTYLE
  2
AcDbVisualStyle
  3
ObjectDBX Classes
 90
4095
 91
0
280
0
281
0
  0
CLASS
  1
MATERIAL
  2
AcDbMaterial
  3
ObjectDBX Classes
 90
1153
 91
0
280
0
281
0
  0
CLASS
  1
SCALE
  2
AcDbScale
  3
ObjectDBX Classes
 90
1153
 91
0
280
0
281
0
  0
CLASS
  1
TABLESTYLE
  2
AcDbTableStyle
  3
ObjectDBX Classes
 90
4095
 91
0
280
0
281
0
  0
CLASS
  1
MLEADERSTYLE
  2
AcDbMLeaderStyle
  3
ACDB_MLEADERSTYLE_CLASS
 90
4095
 91
0
280
0
281
0
  0
CLASS
  1
DICTIONARYVAR
  2
AcDbDictionaryVar
  3
ObjectDBX Classes
 90
0
 91
0
280
0
281
0
  0
CLASS
  1
CELLSTYLEMAP
  2
AcDbCellStyleMap
  3
ObjectDBX Classes
 90
1152
 91
0
280
0
281
0
  0
CLASS
  1
MENTALRAYRENDERSETTINGS
  2
AcDbMentalRayRenderSettings
  3
SCENEOE
 90
1024
 91
0
280
0
281
0
  0
CLASS
  1
ACDBDETAILVIEWSTYLE
  2
AcDbDetailViewStyle
  3
ObjectDBX Classes
 90
1025
 91
0
280
0
281
0
  0
CLASS
  1
ACDBSECTIONVIEWSTYLE
  2
AcDbSectionViewStyle
  3
ObjectDBX Classes
 90
1025
 91
0
280
0
281
0
  0
CLASS
  1
RASTERVARIABLES
  2
AcDbRasterVariables
  3
ISM
 90
0
 91
0
280
0
281
0
  0
CLASS
  1
ACDBPLACEHOLDER
  2
AcDbPlaceHolder
  3
ObjectDBX Classes
 90
0
 91
0
280
0
281
0
  0
CLASS
  1
LAYOUT
  2
AcDbLayout
  3
ObjectDBX Classes
 90
0
 91
0
280
0
281
0
  0
ENDSEC
  0
SECTION
  2
TABLES
  0
TABLE
  2
VPORT
  5
8
330
0
100
AcDbSymbolTable
 70
1
  0
VPORT
  5
23
330
8
100
AcDbSymbolTableRecord
100
AcDbViewportTableRecord
  2
*Active
 70
0
 10
0.0
 20
0.0
 11
1.0
 21
1.0
 12
0.0
 22
0.0
 13
0.0
 23
0.0
 14
0.5
 24
0.5
 15
0.5
 25
0.5
 16
0.0
 26
0.0
 36
1.0
 17
0.0
 27
0.0
 37
0.0
 40
1000.0
 41
1.34
 42
50.0
 43
0.0
 44
0.0
 50
0.0
 51
0.0
 71
0
 72
1000
 73
1
 74
3
 75
0
 76
0
 77
0
 78
0
281
0
 65
0
146
0.0
  0
ENDTAB
  0
TABLE
  2
LTYPE
  5
2
330
0
100
AcDbSymbolTable
 70
3
  0
LTYPE
  5
24
330
2
100
AcDbSymbolTableRecord
100
AcDbLinetypeTableRecord
  2
ByBlock
 70
0
  3

 72
65
 73
0
 40
0.0
  0
LTYPE
  5
25
330
2
100
AcDbSymbolTableRecord
100
AcDbLinetypeTableRecord
  2
ByLayer
 70
0
  3

 72
65
 73
0
 40
0.0
  0
LTYPE
  5
26
330
2
100
AcDbSymbolTableRecord
100
AcDbLinetypeTableRecord
  2
Continuous
 70
0
  3

 72
65
 73
0
 40
0.0
  0
ENDTAB
  0
TABLE
  2
LAYER
  5
1
330
0
100
AcDbSymbolTable
 70
5
  0
LAYER
  5
27
330
1
100
AcDbSymbolTableRecord
100
AcDbLayerTableRecord
  2
0
 70
0
 62
7
  6
Continuous
370
-3
390
13
347
21
  0
LAYER
  5
28
330
1
100
AcDbSymbolTableRecord
100
AcDbLayerTableRecord
  2
Defpoints
 70
0
 62
7
  6
Continuous
290
0
370
-3
390
13
347
21
  0
LAYER
  5
2F
330
1
100
AcDbSymbolTableRecord
100
AcDbLayerTableRecord
  2
FILL_WHITE_FFFFFF
 70
0
 62
7
420
16777215
  6
Continuous
370
-3
390
13
347
21
  0
LAYER
  5
32
330
1
100
AcDbSymbolTableRecord
100
AcDbLayerTableRecord
  2
FILL_BLUE_0000FF
 70
0
 62
7
420
255
  6
Continuous
370
-3
390
13
347
21
  0
LAYER
  5
6E
330
1
100
AcDbSymbolTableRecord
100
AcDbLayerTableRecord
  2
STROKE_BLUE_0000FF
 70
0
 62
7
420
255
  6
Continuous
370
-3
390
13
347
21
  0
ENDTAB
  0
TABLE
  2
STYLE
  5
5
330
0
100
AcDbSymbolTable
 70
1
  0
STYLE
  5
29
330
5
100
AcDbSymbolTableRecord
100
AcDbTextStyleTableRecord
  2
Standard
 70
0
 40
0.0
 41
1.0
 50
0.0
 71
0
 42
2.5
  3
txt
  4

  0
ENDTAB
  0
TABLE
  2
VIEW
  5
7
330
0
100
AcDbSymbolTable
 70
0
  0
ENDTAB
  0
TABLE
  2
UCS
  5
6
330
0
100
AcDbSymbolTable
 70
0
  0
ENDTAB
  0
TABLE
  2
APPID
  5
3
330
0
100
AcDbSymbolTable
 70
3
  0
APPID
  5
2A
330
3
100
AcDbSymbolTableRecord
100
AcDbRegAppTableRecord
  2
ACAD
 70
0
  0
APPID
  5
70
330
3
100
AcDbSymbolTableRecord
100
AcDbRegAppTableRecord
  2
HATCHBACKGROUNDCOLOR
 70
0
  0
APPID
  5
71
330
3
100
AcDbSymbolTableRecord
100
AcDbRegAppTableRecord
  2
EZDXF
 70
0
  0
ENDTAB
  0
TABLE
  2
DIMSTYLE
  5
4
330
0
100
AcDbSymbolTable
 70
1
100
AcDbDimStyleTable
  0
DIMSTYLE
105
2B
330
4
100
AcDbSymbolTableRecord
100
AcDbDimStyleTableRecord
  2
Standard
 70
0
 40
1.0
 41
2.5
 42
0.625
 43
3.75
 44
1.25
 45
0.0
 46
0.0
 47
0.0
 48
0.0
 49
2.5
140
2.5
141
2.5
142
0.0
143
0.03937007874
144
1.0
145
0.0
146
1.0
147
0.625
148
0.0
 69
0
 70
0
 71
0
 72
0
 73
0
 74
0
 75
0
 76
0
 77
1
 78
8
 79
3
170
0
171
3
172
1
173
0
174
0
175
0
176
0
177
0
178
0
179
2
271
2
272
2
273
2
274
3
275
0
276
0
277
2
278
44
279
0
280
0
281
0
282
0
283
0
284
8
285
0
286
0
288
0
289
3
290
0
371
-2
372
-2
  0
ENDTAB
  0
TABLE
  2
BLOCK_RECORD
  5
9
330
0
100
AcDbSymbolTable
 70
2
  0
BLOCK_RECORD
  5
17
330
9
100
AcDbSymbolTableRecord
100
AcDbBlockTableRecord
  2
*Model_Space
340
1A
 70
0
280
1
281
0
  0
BLOCK_RECORD
  5
1B
330
9
100
AcDbSymbolTableRecord
100
AcDbBlockTableRecord
  2
*Paper_Space
340
1E
 70
0
280
1
281
0
  0
ENDTAB
  0
ENDSEC
  0
SECTION
  2
BLOCKS
  0
BLOCK
  5
18
330
17
100
AcDbEntity
  8
0
100
AcDbBlockBegin
  2
*Model_Space
 70
0
 10
0.0
 20
0.0
 30
0.0
  3
*Model_Space
  1

  0
ENDBLK
  5
19
330
17
100
AcDbEntity
  8
0
100
AcDbBlockEnd
  0
BLOCK
  5
1C
330
1B
100
AcDbEntity
  8
0
100
AcDbBlockBegin
  2
*Paper_Space
 70
0
 10
0.0
 20
0.0
 30
0.0
  3
*Paper_Space
  1

  0
ENDBLK
  5
1D
330
1B
100
AcDbEntity
  8
0
100
AcDbBlockEnd
  0
ENDSEC
  0
SECTION
  2
ENTITIES
  0
HATCH
  5
30
330
17
100
AcDbEntity
  8
FILL_WHITE_FFFFFF
 62
7
420
16777215
100
AcDbHatch
 10
0.0
 20
0.0
 30
0.0
210
0.0
220
0.0
230
1.0
  2
SOLID
 70
1
 71
0
 91
1
 92
3
 72
0
 73
1
 93
66
 10
531.75
 20
222.36
 10
533.73
 20
222.29
 10
535.65
 20
222.06
 10
537.57
 20
221.6
 10
539.55
 20
220.86
 10
541.52
 20
220.07
 10
543.38
 20
219.06
 10
545.12
 20
217.82
 10
546.75
 20
216.36
 10
548.09
 20
214.73
 10
549.34
 20
212.98
 10
550.42
 20
211.13
 10
551.25
 20
209.16
 10
551.86
 20
207.31
 10
552.34
 20
205.41
 10
552.64
 20
203.51
 10
552.75
 20
201.66
 10
552.75
 20
51.06
 10
552.64
 20
49.21
 10
552.34
 20
47.27
 10
551.86
 20
45.28
 10
551.25
 20
43.26
 10
550.42
 20
41.42
 10
549.34
 20
39.58
 10
548.09
 20
37.86
 10
546.75
 20
36.36
 10
545.12
 20
34.85
 10
543.38
 20
33.51
 10
541.52
 20
32.39
 10
539.55
 20
31.56
 10
537.57
 20
30.95
 10
535.65
 20
30.47
 10
533.73
 20
30.17
 10
531.75
 20
30.06
 10
82.95
 20
30.06
 10
80.25
 20
30.23
 10
77.59
 20
30.77
 10
76.27
 20
31.19
 10
74.98
 20
31.71
 10
73.7
 20
32.33
 10
72.45
 20
33.06
 10
70.1
 20
34.57
 10
68.03
 20
36.36
 10
67.11
 20
37.34
 10
66.29
 20
38.38
 10
65.57
 20
39.45
 10
64.95
 20
40.56
 10
18.45
 20
120.96
 10
17.84
 20
122.14
 10
17.36
 20
123.43
 10
17.06
 20
124.84
 10
16.95
 20
126.36
 10
17.06
 20
127.71
 10
17.36
 20
129.02
 10
17.84
 20
130.28
 10
18.45
 20
131.46
 10
64.95
 20
211.86
 10
66.45
 20
214.21
 10
68.23
 20
216.28
 10
70.25
 20
218.08
 10
72.49
 20
219.58
 10
74.91
 20
220.78
 10
77.48
 20
221.65
 10
80.17
 20
222.18
 10
82.95
 20
222.36
 10
531.75
 20
222.36
 97
0
 75
1
 76
1
 98
0
  0
LWPOLYLINE
  5
31
330
17
100
AcDbEntity
  8
FILL_WHITE_FFFFFF
370
0
420
16777215
100
AcDbPolyline
 90
65
 70
1
 10
531.75
 20
222.36
 10
533.73
 20
222.29
 10
535.65
 20
222.06
 10
537.57
 20
221.6
 10
539.55
 20
220.86
 10
541.52
 20
220.07
 10
543.38
 20
219.06
 10
545.12
 20
217.82
 10
546.75
 20
216.36
 10
548.09
 20
214.73
 10
549.34
 20
212.98
 10
550.42
 20
211.13
 10
551.25
 20
209.16
 10
551.86
 20
207.31
 10
552.34
 20
205.41
 10
552.64
 20
203.51
 10
552.75
 20
201.66
 10
552.75
 20
51.06
 10
552.64
 20
49.21
 10
552.34
 20
47.27
 10
551.86
 20
45.28
 10
551.25
 20
43.26
 10
550.42
 20
41.42
 10
549.34
 20
39.58
 10
548.09
 20
37.86
 10
546.75
 20
36.36
 10
545.12
 20
34.85
 10
543.38
 20
33.51
 10
541.52
 20
32.39
 10
539.55
 20
31.56
 10
537.57
 20
30.95
 10
535.65
 20
30.47
 10
533.73
 20
30.17
 10
531.75
 20
30.06
 10
82.95
 20
30.06
 10
80.25
 20
30.23
 10
77.59
 20
30.77
 10
76.27
 20
31.19
 10
74.98
 20
31.71
 10
73.7
 20
32.33
 10
72.45
 20
33.06
 10
70.1
 20
34.57
 10
68.03
 20
36.36
 10
67.11
 20
37.34
 10
66.29
 20
38.38
 10
65.57
 20
39.45
 10
64.95
 20
40.56
 10
18.45
 20
120.96
 10
17.84
 20
122.14
 10
17.36
 20
123.43
 10
17.06
 20
124.84
 10
16.95
 20
126.36
 10
17.06
 20
127.71
 10
17.36
 20
129.02
 10
17.84
 20
130.28
 10
18.45
 20
131.46
 10
64.95
 20
211.86
 10
66.45
 20
214.21
 10
68.23
 20
216.28
 10
70.25
 20
218.08
 10
72.49
 20
219.58
 10
74.91
 20
220.78
 10
77.48
 20
221.65
 10
80.17
 20
222.18
 10
82.95
 20
222.36
  0
HATCH
  5
33
330
17
100
AcDbEntity
  8
FILL_BLUE_0000FF
 62
7
420
255
100
AcDbHatch
 10
0.0
 20
0.0
 30
0.0
210
0.0
220
0.0
230
1.0
  2
SOLID
 70
1
 71
0
 91
1
 92
3
 72
0
 73
1
 93
46
 10
531.75
 20
211.86
 10
533.77
 20
211.69
 10
535.73
 20
211.15
 10
536.67
 20
210.73
 10
537.57
 20
210.21
 10
538.44
 20
209.59
 10
539.25
 20
208.86
 10
539.98
 20
208.05
 10
540.6
 20
207.19
 10
541.12
 20
206.29
 10
541.54
 20
205.37
 10
542.08
 20
203.5
 10
542.25
 20
201.66
 10
542.25
 20
51.06
 10
542.08
 20
49.04
 10
541.54
 20
47.08
 10
541.12
 20
46.14
 10
540.6
 20
45.24
 10
539.98
 20
44.37
 10
539.25
 20
43.56
 10
538.44
 20
42.83
 10
537.57
 20
42.21
 10
536.67
 20
41.69
 10
535.73
 20
41.27
 10
533.77
 20
40.73
 10
531.75
 20
40.56
 10
82.95
 20
40.56
 10
81.6
 20
40.63
 10
80.25
 20
40.86
 10
78.9
 20
41.32
 10
77.55
 20
42.06
 10
76.48
 20
42.79
 10
75.53
 20
43.63
 10
74.68
 20
44.59
 10
73.95
 20
45.66
 10
27.45
 20
126.36
 10
73.95
 20
206.76
 10
74.68
 20
207.88
 10
75.53
 20
208.93
 10
76.48
 20
209.88
 10
77.55
 20
210.66
 10
78.9
 20
211.23
 10
80.25
 20
211.6
 10
81.6
 20
211.8
 10
82.95
 20
211.86
 10
531.75
 20
211.86
 97
0
 75
1
 76
1
 98
0
  0
LWPOLYLINE
  5
34
330
17
100
AcDbEntity
  8
FILL_BLUE_0000FF
370
0
420
255
100
AcDbPolyline
 90
45
 70
1
 10
531.75
 20
211.86
 10
533.77
 20
211.69
 10
535.73
 20
211.15
 10
536.67
 20
210.73
 10
537.57
 20
210.21
 10
538.44
 20
209.59
 10
539.25
 20
208.86
 10
539.98
 20
208.05
 10
540.6
 20
207.19
 10
541.12
 20
206.29
 10
541.54
 20
205.37
 10
542.08
 20
203.5
 10
542.25
 20
201.66
 10
542.25
 20
51.06
 10
542.08
 20
49.04
 10
541.54
 20
47.08
 10
541.12
 20
46.14
 10
540.6
 20
45.24
 10
539.98
 20
44.37
 10
539.25
 20
43.56
 10
538.44
 20
42.83
 10
537.57
 20
42.21
 10
536.67
 20
41.69
 10
535.73
 20
41.27
 10
533.77
 20
40.73
 10
531.75
 20
40.56
 10
82.95
 20
40.56
 10
81.6
 20
40.63
 10
80.25
 20
40.86
 10
78.9
 20
41.32
 10
77.55
 20
42.06
 10
76.48
 20
42.79
 10
75.53
 20
43.63
 10
74.68
 20
44.59
 10
73.95
 20
45.66
 10
27.45
 20
126.36
 10
73.95
 20
206.76
 10
74.68
 20
207.88
 10
75.53
 20
208.93
 10
76.48
 20
209.88
 10
77.55
 20
210.66
 10
78.9
 20
211.23
 10
80.25
 20
211.6
 10
81.6
 20
211.8
 10
82.95
 20
211.86
  0
HATCH
  5
35
330
17
100
AcDbEntity
  8
FILL_WHITE_FFFFFF
 62
7
420
16777215
100
AcDbHatch
 10
0.0
 20
0.0
 30
0.0
210
0.0
220
0.0
230
1.0
  2
SOLID
 70
1
 71
0
 91
2
 92
3
 72
0
 73
1
 93
63
 10
173.48
 20
170.58
 10
173.77
 20
171.85
 10
174.19
 20
173.12
 10
174.73
 20
174.38
 10
175.4
 20
175.61
 10
176.21
 20
176.81
 10
177.15
 20
177.96
 10
178.2
 20
179.0
 10
179.33
 20
179.88
 10
180.5
 20
180.61
 10
181.73
 20
181.18
 10
182.97
 20
181.62
 10
184.24
 20
181.93
 10
185.5
 20
182.1
 10
186.75
 20
182.16
 10
188.1
 20
182.1
 10
189.44
 20
181.93
 10
190.75
 20
181.62
 10
192.04
 20
181.18
 10
193.28
 20
180.61
 10
194.47
 20
179.88
 10
195.6
 20
179.0
 10
196.65
 20
177.96
 10
197.59
 20
176.81
 10
198.39
 20
175.61
 10
199.05
 20
174.38
 10
199.58
 20
173.12
 10
199.95
 20
171.85
 10
200.19
 20
170.58
 10
200.29
 20
169.31
 10
200.25
 20
168.06
 10
200.29
 20
166.8
 10
200.19
 20
165.5
 10
199.95
 20
164.19
 10
199.58
 20
162.88
 10
199.05
 20
161.61
 10
198.39
 20
160.38
 10
197.59
 20
159.23
 10
196.65
 20
158.16
 10
195.6
 20
157.12
 10
194.47
 20
156.23
 10
193.28
 20
155.5
 10
192.04
 20
154.9
 10
190.75
 20
154.42
 10
189.44
 20
154.07
 10
186.75
 20
153.66
 10
184.24
 20
154.07
 10
182.97
 20
154.42
 10
181.73
 20
154.9
 10
180.5
 20
155.5
 10
179.33
 20
156.23
 10
178.2
 20
157.12
 10
177.15
 20
158.16
 10
176.21
 20
159.23
 10
175.4
 20
160.38
 10
174.73
 20
161.61
 10
174.19
 20
162.88
 10
173.77
 20
164.19
 10
173.48
 20
165.5
 10
173.31
 20
166.8
 10
173.25
 20
168.06
 10
173.31
 20
169.31
 10
173.48
 20
170.58
 97
0
 92
18
 72
0
 73
1
 93
35
 10
184.09
 20
175.82
 10
182.83
 20
175.07
 10
181.65
 20
174.06
 10
180.69
 20
172.66
 10
180.04
 20
171.17
 10
179.67
 20
169.63
 10
179.55
 20
168.06
 10
179.67
 20
166.49
 10
180.04
 20
164.95
 10
180.69
 20
163.46
 10
181.65
 20
162.06
 10
182.83
 20
160.93
 10
184.09
 20
160.18
 10
185.4
 20
159.78
 10
186.75
 20
159.66
 10
188.14
 20
159.78
 10
189.53
 20
160.18
 10
190.18
 20
160.51
 10
190.8
 20
160.93
 10
191.36
 20
161.44
 10
191.85
 20
162.06
 10
192.81
 20
163.46
 10
193.46
 20
164.95
 10
193.83
 20
166.49
 10
193.95
 20
168.06
 10
193.83
 20
169.63
 10
193.46
 20
171.17
 10
192.81
 20
172.66
 10
191.85
 20
174.06
 10
190.8
 20
175.07
 10
189.53
 20
175.82
 10
188.14
 20
176.3
 10
186.75
 20
176.46
 10
185.4
 20
176.3
 10
184.09
 20
175.82
 97
0
 75
1
 76
1
 98
0
  0
LWPOLYLINE
  5
36
330
17
100
AcDbEntity
  8
FILL_WHITE_FFFFFF
370
0
420
16777215
100
AcDbPolyline
 90
62
 70
1
 10
173.48
 20
170.58
 10
173.77
 20
171.85
 10
174.19
 20
173.12
 10
174.73
 20
174.38
 10
175.4
 20
175.61
 10
176.21
 20
176.81
 10
177.15
 20
177.96
 10
178.2
 20
179.0
 10
179.33
 20
179.88
 10
180.5
 20
180.61
 10
181.73
 20
181.18
 10
182.97
 20
181.62
 10
184.24
 20
181.93
 10
185.5
 20
182.1
 10
186.75
 20
182.16
 10
188.1
 20
182.1
 10
189.44
 20
181.93
 10
190.75
 20
181.62
 10
192.04
 20
181.18
 10
193.28
 20
180.61
 10
194.47
 20
179.88
 10
195.6
 20
179.0
 10
196.65
 20
177.96
 10
197.59
 20
176.81
 10
198.39
 20
175.61
 10
199.05
 20
174.38
 10
199.58
 20
173.12
 10
199.95
 20
171.85
 10
200.19
 20
170.58
 10
200.29
 20
169.31
 10
200.25
 20
168.06
 10
200.29
 20
166.8
 10
200.19
 20
165.5
 10
199.95
 20
164.19
 10
199.58
 20
162.88
 10
199.05
 20
161.61
 10
198.39
 20
160.38
 10
197.59
 20
159.23
 10
196.65
 20
158.16
 10
195.6
 20
157.12
 10
194.47
 20
156.23
 10
193.28
 20
155.5
 10
192.04
 20
154.9
 10
190.75
 20
154.42
 10
189.44
 20
154.07
 10
186.75
 20
153.66
 10
184.24
 20
154.07
 10
182.97
 20
154.42
 10
181.73
 20
154.9
 10
180.5
 20
155.5
 10
179.33
 20
156.23
 10
178.2
 20
157.12
 10
177.15
 20
158.16
 10
176.21
 20
159.23
 10
175.4
 20
160.38
 10
174.73
 20
161.61
 10
174.19
 20
162.88
 10
173.77
 20
164.19
 10
173.48
 20
165.5
 10
173.31
 20
166.8
 10
173.25
 20
168.06
 10
173.31
 20
169.31
  0
LWPOLYLINE
  5
37
330
17
100
AcDbEntity
  8
FILL_WHITE_FFFFFF
370
0
420
16777215
100
AcDbPolyline
 90
34
 70
1
 10
184.09
 20
175.82
 10
182.83
 20
175.07
 10
181.65
 20
174.06
 10
180.69
 20
172.66
 10
180.04
 20
171.17
 10
179.67
 20
169.63
 10
179.55
 20
168.06
 10
179.67
 20
166.49
 10
180.04
 20
164.95
 10
180.69
 20
163.46
 10
181.65
 20
162.06
 10
182.83
 20
160.93
 10
184.09
 20
160.18
 10
185.4
 20
159.78
 10
186.75
 20
159.66
 10
188.14
 20
159.78
 10
189.53
 20
160.18
 10
190.18
 20
160.51
 10
190.8
 20
160.93
 10
191.36
 20
161.44
 10
191.85
 20
162.06
 10
192.81
 20
163.46
 10
193.46
 20
164.95
 10
193.83
 20
166.49
 10
193.95
 20
168.06
 10
193.83
 20
169.63
 10
193.46
 20
171.17
 10
192.81
 20
172.66
 10
191.85
 20
174.06
 10
190.8
 20
175.07
 10
189.53
 20
175.82
 10
188.14
 20
176.3
 10
186.75
 20
176.46
 10
185.4
 20
176.3
  0
HATCH
  5
38
330
17
100
AcDbEntity
  8
FILL_WHITE_FFFFFF
 62
7
420
16777215
100
AcDbHatch
 10
0.0
 20
0.0
 30
0.0
210
0.0
220
0.0
230
1.0
  2
SOLID
 70
1
 71
0
 91
2
 92
3
 72
0
 73
1
 93
63
 10
205.88
 20
170.58
 10
206.17
 20
171.85
 10
206.59
 20
173.12
 10
207.13
 20
174.38
 10
207.8
 20
175.61
 10
208.61
 20
176.81
 10
209.55
 20
177.96
 10
210.6
 20
179.0
 10
211.73
 20
179.88
 10
212.9
 20
180.61
 10
214.13
 20
181.18
 10
215.37
 20
181.62
 10
216.64
 20
181.93
 10
217.9
 20
182.1
 10
219.15
 20
182.16
 10
220.5
 20
182.1
 10
221.84
 20
181.93
 10
223.15
 20
181.62
 10
224.44
 20
181.18
 10
225.68
 20
180.61
 10
226.87
 20
179.88
 10
228.0
 20
179.0
 10
229.05
 20
177.96
 10
229.99
 20
176.81
 10
230.8
 20
175.61
 10
231.47
 20
174.38
 10
232.01
 20
173.12
 10
232.43
 20
171.85
 10
232.72
 20
170.58
 10
232.89
 20
169.31
 10
232.95
 20
168.06
 10
232.89
 20
166.8
 10
232.72
 20
165.5
 10
232.43
 20
164.19
 10
232.01
 20
162.88
 10
231.47
 20
161.61
 10
230.8
 20
160.38
 10
229.99
 20
159.23
 10
229.05
 20
158.16
 10
228.0
 20
157.12
 10
226.87
 20
156.23
 10
225.68
 20
155.5
 10
224.44
 20
154.9
 10
223.15
 20
154.42
 10
221.84
 20
154.07
 10
219.15
 20
153.66
 10
216.64
 20
154.07
 10
215.37
 20
154.42
 10
214.13
 20
154.9
 10
212.9
 20
155.5
 10
211.73
 20
156.23
 10
210.6
 20
157.12
 10
209.55
 20
158.16
 10
208.61
 20
159.23
 10
207.8
 20
160.38
 10
207.13
 20
161.61
 10
206.59
 20
162.88
 10
206.17
 20
164.19
 10
205.88
 20
165.5
 10
205.71
 20
166.8
 10
205.65
 20
168.06
 10
205.71
 20
169.31
 10
205.88
 20
170.58
 97
0
 92
18
 72
0
 73
1
 93
34
 10
216.49
 20
175.82
 10
215.23
 20
175.07
 10
214.05
 20
174.06
 10
213.09
 20
172.66
 10
212.44
 20
171.17
 10
212.07
 20
169.63
 10
211.95
 20
168.06
 10
212.07
 20
166.49
 10
212.44
 20
164.95
 10
213.09
 20
163.46
 10
214.05
 20
162.06
 10
215.23
 20
160.93
 10
216.49
 20
160.18
 10
217.8
 20
159.78
 10
219.15
 20
159.66
 10
220.54
 20
159.78
 10
221.96
 20
160.18
 10
223.33
 20
160.93
 10
223.96
 20
161.44
 10
224.55
 20
162.06
 10
225.34
 20
163.46
 10
225.9
 20
164.95
 10
226.24
 20
166.49
 10
226.35
 20
168.06
 10
226.24
 20
169.63
 10
225.9
 20
171.17
 10
225.34
 20
172.66
 10
224.55
 20
174.06
 10
223.33
 20
175.07
 10
221.96
 20
175.82
 10
220.54
 20
176.3
 10
219.15
 20
176.46
 10
217.8
 20
176.3
 10
216.49
 20
175.82
 97
0
 75
1
 76
1
 98
0
  0
LWPOLYLINE
  5
39
330
17
100
AcDbEntity
  8
FILL_WHITE_FFFFFF
370
0
420
16777215
100
AcDbPolyline
 90
62
 70
1
 10
205.88
 20
170.58
 10
206.17
 20
171.85
 10
206.59
 20
173.12
 10
207.13
 20
174.38
 10
207.8
 20
175.61
 10
208.61
 20
176.81
 10
209.55
 20
177.96
 10
210.6
 20
179.0
 10
211.73
 20
179.88
 10
212.9
 20
180.61
 10
214.13
 20
181.18
 10
215.37
 20
181.62
 10
216.64
 20
181.93
 10
217.9
 20
182.1
 10
219.15
 20
182.16
 10
220.5
 20
182.1
 10
221.84
 20
181.93
 10
223.15
 20
181.62
 10
224.44
 20
181.18
 10
225.68
 20
180.61
 10
226.87
 20
179.88
 10
228.0
 20
179.0
 10
229.05
 20
177.96
 10
229.99
 20
176.81
 10
230.8
 20
175.61
 10
231.47
 20
174.38
 10
232.01
 20
173.12
 10
232.43
 20
171.85
 10
232.72
 20
170.58
 10
232.89
 20
169.31
 10
232.95
 20
168.06
 10
232.89
 20
166.8
 10
232.72
 20
165.5
 10
232.43
 20
164.19
 10
232.01
 20
162.88
 10
231.47
 20
161.61
 10
230.8
 20
160.38
 10
229.99
 20
159.23
 10
229.05
 20
158.16
 10
228.0
 20
157.12
 10
226.87
 20
156.23
 10
225.68
 20
155.5
 10
224.44
 20
154.9
 10
223.15
 20
154.42
 10
221.84
 20
154.07
 10
219.15
 20
153.66
 10
216.64
 20
154.07
 10
215.37
 20
154.42
 10
214.13
 20
154.9
 10
212.9
 20
155.5
 10
211.73
 20
156.23
 10
210.6
 20
157.12
 10
209.55
 20
158.16
 10
208.61
 20
159.23
 10
207.8
 20
160.38
 10
207.13
 20
161.61
 10
206.59
 20
162.88
 10
206.17
 20
164.19
 10
205.88
 20
165.5
 10
205.71
 20
166.8
 10
205.65
 20
168.06
 10
205.71
 20
169.31
  0
LWPOLYLINE
  5
3A
330
17
100
AcDbEntity
  8
FILL_WHITE_FFFFFF
370
0
420
16777215
100
AcDbPolyline
 90
33
 70
1
 10
216.49
 20
175.82
 10
215.23
 20
175.07
 10
214.05
 20
174.06
 10
213.09
 20
172.66
 10
212.44
 20
171.17
 10
212.07
 20
169.63
 10
211.95
 20
168.06
 10
212.07
 20
166.49
 10
212.44
 20
164.95
 10
213.09
 20
163.46
 10
214.05
 20
162.06
 10
215.23
 20
160.93
 10
216.49
 20
160.18
 10
217.8
 20
159.78
 10
219.15
 20
159.66
 10
220.54
 20
159.78
 10
221.96
 20
160.18
 10
223.33
 20
160.93
 10
223.96
 20
161.44
 10
224.55
 20
162.06
 10
225.34
 20
163.46
 10
225.9
 20
164.95
 10
226.24
 20
166.49
 10
226.35
 20
168.06
 10
226.24
 20
169.63
 10
225.9
 20
171.17
 10
225.34
 20
172.66
 10
224.55
 20
174.06
 10
223.33
 20
175.07
 10
221.96
 20
175.82
 10
220.54
 20
176.3
 10
219.15
 20
176.46
 10
217.8
 20
176.3
  0
HATCH
  5
3B
330
17
100
AcDbEntity
  8
FILL_WHITE_FFFFFF
 62
7
420
16777215
100
AcDbHatch
 10
0.0
 20
0.0
 30
0.0
210
0.0
220
0.0
230
1.0
  2
SOLID
 70
1
 71
0
 91
1
 92
3
 72
0
 73
1
 93
33
 10
249.56
 20
160.2
 10
249.86
 20
159.62
 10
250.34
 20
159.21
 10
250.95
 20
159.06
 10
253.35
 20
159.06
 10
254.66
 20
159.36
 10
255.75
 20
159.66
 10
256.65
 20
154.26
 10
254.36
 20
153.85
 10
251.85
 20
153.66
 10
250.73
 20
153.72
 10
249.6
 20
153.88
 10
248.48
 20
154.17
 10
247.35
 20
154.56
 10
245.63
 20
155.5
 10
244.9
 20
156.04
 10
244.35
 20
156.66
 10
243.96
 20
157.38
 10
243.68
 20
158.16
 10
243.51
 20
158.94
 10
243.45
 20
159.66
 10
243.45
 20
176.46
 10
238.05
 20
176.46
 10
238.05
 20
181.86
 10
243.45
 20
181.86
 10
243.45
 20
190.56
 10
249.45
 20
192.66
 10
249.45
 20
181.86
 10
256.65
 20
181.86
 10
256.65
 20
176.46
 10
249.45
 20
176.46
 10
249.45
 20
160.86
 10
249.56
 20
160.2
 97
0
 75
1
 76
1
 98
0
  0
LWPOLYLINE
  5
3C
330
17
100
AcDbEntity
  8
FILL_WHITE_FFFFFF
370
0
420
16777215
100
AcDbPolyline
 90
32
 70
1
 10
249.56
 20
160.2
 10
249.86
 20
159.62
 10
250.34
 20
159.21
 10
250.95
 20
159.06
 10
253.35
 20
159.06
 10
254.66
 20
159.36
 10
255.75
 20
159.66
 10
256.65
 20
154.26
 10
254.36
 20
153.85
 10
251.85
 20
153.66
 10
250.73
 20
153.72
 10
249.6
 20
153.88
 10
248.48
 20
154.17
 10
247.35
 20
154.56
 10
245.63
 20
155.5
 10
244.9
 20
156.04
 10
244.35
 20
156.66
 10
243.96
 20
157.38
 10
243.68
 20
158.16
 10
243.51
 20
158.94
 10
243.45
 20
159.66
 10
243.45
 20
176.46
 10
238.05
 20
176.46
 10
238.05
 20
181.86
 10
243.45
 20
181.86
 10
243.45
 20
190.56
 10
249.45
 20
192.66
 10
249.45
 20
181.86
 10
256.65
 20
181.86
 10
256.65
 20
176.46
 10
249.45
 20
176.46
 10
249.45
 20
160.86
  0
HATCH
  5
3D
330
17
100
AcDbEntity
  8
FILL_WHITE_FFFFFF
 62
7
420
16777215
100
AcDbHatch
 10
0.0
 20
0.0
 30
0.0
210
0.0
220
0.0
230
1.0
  2
SOLID
 70
1
 71
0
 91
2
 92
3
 72
0
 73
1
 93
45
 10
272.18
 20
181.6
 10
273.68
 20
182.01
 10
275.25
 20
182.16
 10
276.87
 20
182.05
 10
278.51
 20
181.71
 10
280.1
 20
181.15
 10
281.55
 20
180.36
 10
283.02
 20
179.13
 10
284.29
 20
177.73
 10
285.39
 20
176.23
 10
286.35
 20
174.66
 10
286.92
 20
172.91
 10
287.29
 20
171.25
 10
287.49
 20
169.64
 10
287.55
 20
168.06
 10
287.62
 20
166.44
 10
287.4
 20
164.76
 10
286.96
 20
163.08
 10
286.35
 20
161.46
 10
285.52
 20
159.73
 10
284.44
 20
158.16
 10
283.19
 20
156.82
 10
281.85
 20
155.76
 10
280.23
 20
154.8
 10
278.55
 20
154.15
 10
276.87
 20
153.78
 10
275.25
 20
153.66
 10
273.73
 20
153.77
 10
272.29
 20
154.11
 10
270.9
 20
154.67
 10
269.55
 20
155.46
 10
268.95
 20
155.46
 10
268.8
 20
155.27
 10
268.65
 20
154.86
 10
268.65
 20
154.26
 10
262.65
 20
154.26
 10
262.65
 20
192.66
 10
268.65
 20
192.66
 10
268.65
 20
180.96
 10
268.8
 20
180.55
 10
268.95
 20
180.36
 10
269.25
 20
180.36
 10
269.55
 20
180.36
 10
270.78
 20
181.02
 10
272.18
 20
181.6
 97
0
 92
18
 72
0
 73
1
 93
37
 10
277.46
 20
159.43
 10
278.85
 20
160.26
 10
279.87
 20
161.22
 10
280.69
 20
162.28
 10
281.34
 20
163.47
 10
281.85
 20
164.76
 10
282.14
 20
166.6
 10
282.11
 20
168.47
 10
281.81
 20
170.29
 10
281.25
 20
171.96
 10
280.64
 20
173.42
 10
279.75
 20
174.66
 10
278.63
 20
175.67
 10
277.35
 20
176.46
 10
276.18
 20
176.75
 10
274.95
 20
176.76
 10
273.72
 20
176.54
 10
272.55
 20
176.16
 10
271.48
 20
175.6
 10
270.53
 20
174.85
 10
269.68
 20
173.92
 10
268.95
 20
172.86
 10
268.69
 20
171.51
 10
268.65
 20
170.16
 10
268.65
 20
165.66
 10
268.65
 20
164.16
 10
268.95
 20
163.52
 10
269.25
 20
162.66
 10
269.58
 20
161.81
 10
270.11
 20
161.05
 10
270.81
 20
160.34
 10
271.65
 20
159.66
 10
272.73
 20
159.31
 10
273.75
 20
159.13
 10
275.85
 20
159.06
 10
276.7
 20
159.16
 10
277.46
 20
159.43
 97
0
 75
1
 76
1
 98
0
  0
LWPOLYLINE
  5
3E
330
17
100
AcDbEntity
  8
FILL_WHITE_FFFFFF
370
0
420
16777215
100
AcDbPolyline
 90
44
 70
1
 10
272.18
 20
181.6
 10
273.68
 20
182.01
 10
275.25
 20
182.16
 10
276.87
 20
182.05
 10
278.51
 20
181.71
 10
280.1
 20
181.15
 10
281.55
 20
180.36
 10
283.02
 20
179.13
 10
284.29
 20
177.73
 10
285.39
 20
176.23
 10
286.35
 20
174.66
 10
286.92
 20
172.91
 10
287.29
 20
171.25
 10
287.49
 20
169.64
 10
287.55
 20
168.06
 10
287.62
 20
166.44
 10
287.4
 20
164.76
 10
286.96
 20
163.08
 10
286.35
 20
161.46
 10
285.52
 20
159.73
 10
284.44
 20
158.16
 10
283.19
 20
156.82
 10
281.85
 20
155.76
 10
280.23
 20
154.8
 10
278.55
 20
154.15
 10
276.87
 20
153.78
 10
275.25
 20
153.66
 10
273.73
 20
153.77
 10
272.29
 20
154.11
 10
270.9
 20
154.67
 10
269.55
 20
155.46
 10
268.95
 20
155.46
 10
268.8
 20
155.27
 10
268.65
 20
154.86
 10
268.65
 20
154.26
 10
262.65
 20
154.26
 10
262.65
 20
192.66
 10
268.65
 20
192.66
 10
268.65
 20
180.96
 10
268.8
 20
180.55
 10
268.95
 20
180.36
 10
269.25
 20
180.36
 10
269.55
 20
180.36
 10
270.78
 20
181.02
  0
LWPOLYLINE
  5
3F
330
17
100
AcDbEntity
  8
FILL_WHITE_FFFFFF
370
0
420
16777215
100
AcDbPolyline
 90
36
 70
1
 10
277.46
 20
159.43
 10
278.85
 20
160.26
 10
279.87
 20
161.22
 10
280.69
 20
162.28
 10
281.34
 20
163.47
 10
281.85
 20
164.76
 10
282.14
 20
166.6
 10
282.11
 20
168.47
 10
281.81
 20
170.29
 10
281.25
 20
171.96
 10
280.64
 20
173.42
 10
279.75
 20
174.66
 10
278.63
 20
175.67
 10
277.35
 20
176.46
 10
276.18
 20
176.75
 10
274.95
 20
176.76
 10
273.72
 20
176.54
 10
272.55
 20
176.16
 10
271.48
 20
175.6
 10
270.53
 20
174.85
 10
269.68
 20
173.92
 10
268.95
 20
172.86
 10
268.69
 20
171.51
 10
268.65
 20
170.16
 10
268.65
 20
165.66
 10
268.65
 20
164.16
 10
268.95
 20
163.52
 10
269.25
 20
162.66
 10
269.58
 20
161.81
 10
270.11
 20
161.05
 10
270.81
 20
160.34
 10
271.65
 20
159.66
 10
272.73
 20
159.31
 10
273.75
 20
159.13
 10
275.85
 20
159.06
 10
276.7
 20
159.16
  0
HATCH
  5
40
330
17
100
AcDbEntity
  8
FILL_WHITE_FFFFFF
 62
7
420
16777215
100
AcDbHatch
 10
0.0
 20
0.0
 30
0.0
210
0.0
220
0.0
230
1.0
  2
SOLID
 70
1
 71
0
 91
1
 92
3
 72
0
 73
1
 93
22
 10
302.3
 20
180.0
 10
303.34
 20
180.73
 10
304.43
 20
181.35
 10
305.55
 20
181.86
 10
306.85
 20
182.2
 10
308.06
 20
182.35
 10
309.22
 20
182.32
 10
310.35
 20
182.16
 10
310.35
 20
176.16
 10
308.6
 20
176.05
 10
306.94
 20
175.75
 10
305.33
 20
175.27
 10
303.75
 20
174.66
 10
302.89
 20
173.76
 10
302.25
 20
172.86
 10
301.35
 20
170.46
 10
301.35
 20
154.26
 10
295.35
 20
154.26
 10
295.35
 20
181.86
 10
301.35
 20
181.86
 10
301.35
 20
179.16
 10
302.3
 20
180.0
 97
0
 75
1
 76
1
 98
0
  0
LWPOLYLINE
  5
41
330
17
100
AcDbEntity
  8
FILL_WHITE_FFFFFF
370
0
420
16777215
100
AcDbPolyline
 90
21
 70
1
 10
302.3
 20
180.0
 10
303.34
 20
180.73
 10
304.43
 20
181.35
 10
305.55
 20
181.86
 10
306.85
 20
182.2
 10
308.06
 20
182.35
 10
309.22
 20
182.32
 10
310.35
 20
182.16
 10
310.35
 20
176.16
 10
308.6
 20
176.05
 10
306.94
 20
175.75
 10
305.33
 20
175.27
 10
303.75
 20
174.66
 10
302.89
 20
173.76
 10
302.25
 20
172.86
 10
301.35
 20
170.46
 10
301.35
 20
154.26
 10
295.35
 20
154.26
 10
295.35
 20
181.86
 10
301.35
 20
181.86
 10
301.35
 20
179.16
  0
HATCH
  5
42
330
17
100
AcDbEntity
  8
FILL_WHITE_FFFFFF
 62
7
420
16777215
100
AcDbHatch
 10
0.0
 20
0.0
 30
0.0
210
0.0
220
0.0
230
1.0
  2
SOLID
 70
1
 71
0
 91
1
 92
3
 72
0
 73
1
 93
5
 10
315.15
 20
154.26
 10
315.15
 20
181.86
 10
321.15
 20
181.86
 10
321.15
 20
154.26
 10
315.15
 20
154.26
 97
0
 75
1
 76
1
 98
0
  0
LWPOLYLINE
  5
43
330
17
100
AcDbEntity
  8
FILL_WHITE_FFFFFF
370
0
420
16777215
100
AcDbPolyline
 90
4
 70
1
 10
315.15
 20
154.26
 10
315.15
 20
181.86
 10
321.15
 20
181.86
 10
321.15
 20
154.26
  0
HATCH
  5
44
330
17
100
AcDbEntity
  8
FILL_WHITE_FFFFFF
 62
7
420
16777215
100
AcDbHatch
 10
0.0
 20
0.0
 30
0.0
210
0.0
220
0.0
230
1.0
  2
SOLID
 70
1
 71
0
 91
1
 92
3
 72
0
 73
1
 93
33
 10
321.68
 20
188.99
 10
321.48
 20
188.34
 10
321.16
 20
187.73
 10
320.74
 20
187.18
 10
320.21
 20
186.72
 10
319.6
 20
186.37
 10
318.91
 20
186.14
 10
318.15
 20
186.06
 10
317.48
 20
186.14
 10
316.83
 20
186.37
 10
316.22
 20
186.72
 10
315.68
 20
187.18
 10
315.21
 20
187.73
 10
314.86
 20
188.34
 10
314.63
 20
188.99
 10
314.55
 20
189.66
 10
314.63
 20
190.42
 10
314.86
 20
191.11
 10
315.21
 20
191.72
 10
315.68
 20
192.25
 10
316.22
 20
192.67
 10
316.83
 20
192.99
 10
317.48
 20
193.19
 10
318.15
 20
193.26
 10
318.91
 20
193.19
 10
319.6
 20
192.99
 10
320.21
 20
192.67
 10
320.74
 20
192.25
 10
321.16
 20
191.72
 10
321.48
 20
191.11
 10
321.68
 20
190.42
 10
321.75
 20
189.66
 10
321.68
 20
188.99
 97
0
 75
1
 76
1
 98
0
  0
LWPOLYLINE
  5
45
330
17
100
AcDbEntity
  8
FILL_WHITE_FFFFFF
370
0
420
16777215
100
AcDbPolyline
 90
32
 70
1
 10
321.68
 20
188.99
 10
321.48
 20
188.34
 10
321.16
 20
187.73
 10
320.74
 20
187.18
 10
320.21
 20
186.72
 10
319.6
 20
186.37
 10
318.91
 20
186.14
 10
318.15
 20
186.06
 10
317.48
 20
186.14
 10
316.83
 20
186.37
 10
316.22
 20
186.72
 10
315.68
 20
187.18
 10
315.21
 20
187.73
 10
314.86
 20
188.34
 10
314.63
 20
188.99
 10
314.55
 20
189.66
 10
314.63
 20
190.42
 10
314.86
 20
191.11
 10
315.21
 20
191.72
 10
315.68
 20
192.25
 10
316.22
 20
192.67
 10
316.83
 20
192.99
 10
317.48
 20
193.19
 10
318.15
 20
193.26
 10
318.91
 20
193.19
 10
319.6
 20
192.99
 10
320.21
 20
192.67
 10
320.74
 20
192.25
 10
321.16
 20
191.72
 10
321.48
 20
191.11
 10
321.68
 20
190.42
 10
321.75
 20
189.66
  0
HATCH
  5
46
330
17
100
AcDbEntity
  8
FILL_WHITE_FFFFFF
 62
7
420
16777215
100
AcDbHatch
 10
0.0
 20
0.0
 30
0.0
210
0.0
220
0.0
230
1.0
  2
SOLID
 70
1
 71
0
 91
2
 92
3
 72
0
 73
1
 93
52
 10
344.96
 20
154.63
 10
343.87
 20
154.24
 10
342.75
 20
153.96
 10
340.95
 20
153.66
 10
339.41
 20
153.85
 10
337.65
 20
154.26
 10
336.34
 20
154.78
 10
335.12
 20
155.43
 10
334.0
 20
156.21
 10
332.96
 20
157.11
 10
332.03
 20
158.12
 10
331.2
 20
159.24
 10
330.47
 20
160.45
 10
329.85
 20
161.76
 10
329.36
 20
163.37
 10
329.01
 20
165.05
 10
328.81
 20
166.77
 10
328.76
 20
168.51
 10
328.87
 20
170.25
 10
329.13
 20
171.97
 10
329.56
 20
173.65
 10
330.15
 20
175.26
 10
330.6
 20
176.12
 10
331.05
 20
176.76
 10
331.67
 20
177.74
 10
332.4
 20
178.66
 10
333.23
 20
179.5
 10
334.16
 20
180.25
 10
335.2
 20
180.9
 10
336.32
 20
181.44
 10
337.54
 20
181.87
 10
338.85
 20
182.16
 10
340.18
 20
182.32
 10
341.48
 20
182.33
 10
342.74
 20
182.22
 10
343.95
 20
181.97
 10
345.1
 20
181.6
 10
346.19
 20
181.11
 10
347.21
 20
180.49
 10
348.15
 20
179.76
 10
348.45
 20
179.76
 10
348.45
 20
180.06
 10
348.45
 20
192.96
 10
354.15
 20
192.96
 10
354.15
 20
154.26
 10
348.15
 20
154.26
 10
348.15
 20
155.76
 10
348.15
 20
156.06
 10
347.55
 20
156.06
 10
346.95
 20
155.76
 10
346.0
 20
155.14
 10
344.96
 20
154.63
 97
0
 92
18
 72
0
 73
1
 93
36
 10
345.79
 20
160.41
 10
346.77
 20
161.3
 10
347.55
 20
162.36
 10
347.96
 20
164.01
 10
348.15
 20
165.66
 10
348.15
 20
170.76
 10
348.09
 20
171.83
 10
347.89
 20
172.82
 10
347.52
 20
173.76
 10
346.95
 20
174.66
 10
346.18
 20
175.5
 10
345.26
 20
176.2
 10
344.29
 20
176.73
 10
343.35
 20
177.06
 10
342.75
 20
177.06
 10
341.58
 20
177.13
 10
340.39
 20
176.91
 10
339.25
 20
176.47
 10
338.25
 20
175.86
 10
337.13
 20
174.92
 10
336.73
 20
174.38
 10
336.45
 20
173.76
 10
335.85
 20
172.48
 10
335.39
 20
171.14
 10
335.09
 20
169.76
 10
334.95
 20
168.36
 10
334.98
 20
166.96
 10
335.18
 20
165.58
 10
335.57
 20
164.24
 10
336.15
 20
162.96
 10
337.95
 20
160.56
 10
339.04
 20
159.96
 10
340.35
 20
159.36
 10
343.35
 20
159.36
 10
344.64
 20
159.74
 10
345.79
 20
160.41
 97
0
 75
1
 76
1
 98
0
  0
LWPOLYLINE
  5
47
330
17
100
AcDbEntity
  8
FILL_WHITE_FFFFFF
370
0
420
16777215
100
AcDbPolyline
 90
51
 70
1
 10
344.96
 20
154.63
 10
343.87
 20
154.24
 10
342.75
 20
153.96
 10
340.95
 20
153.66
 10
339.41
 20
153.85
 10
337.65
 20
154.26
 10
336.34
 20
154.78
 10
335.12
 20
155.43
 10
334.0
 20
156.21
 10
332.96
 20
157.11
 10
332.03
 20
158.12
 10
331.2
 20
159.24
 10
330.47
 20
160.45
 10
329.85
 20
161.76
 10
329.36
 20
163.37
 10
329.01
 20
165.05
 10
328.81
 20
166.77
 10
328.76
 20
168.51
 10
328.87
 20
170.25
 10
329.13
 20
171.97
 10
329.56
 20
173.65
 10
330.15
 20
175.26
 10
330.6
 20
176.12
 10
331.05
 20
176.76
 10
331.67
 20
177.74
 10
332.4
 20
178.66
 10
333.23
 20
179.5
 10
334.16
 20
180.25
 10
335.2
 20
180.9
 10
336.32
 20
181.44
 10
337.54
 20
181.87
 10
338.85
 20
182.16
 10
340.18
 20
182.32
 10
341.48
 20
182.33
 10
342.74
 20
182.22
 10
343.95
 20
181.97
 10
345.1
 20
181.6
 10
346.19
 20
181.11
 10
347.21
 20
180.49
 10
348.15
 20
179.76
 10
348.45
 20
179.76
 10
348.45
 20
180.06
 10
348.45
 20
192.96
 10
354.15
 20
192.96
 10
354.15
 20
154.26
 10
348.15
 20
154.26
 10
348.15
 20
155.76
 10
348.15
 20
156.06
 10
347.55
 20
156.06
 10
346.95
 20
155.76
 10
346.0
 20
155.14
  0
LWPOLYLINE
  5
48
330
17
100
AcDbEntity
  8
FILL_WHITE_FFFFFF
370
0
420
16777215
100
AcDbPolyline
 90
35
 70
1
 10
345.79
 20
160.41
 10
346.77
 20
161.3
 10
347.55
 20
162.36
 10
347.96
 20
164.01
 10
348.15
 20
165.66
 10
348.15
 20
170.76
 10
348.09
 20
171.83
 10
347.89
 20
172.82
 10
347.52
 20
173.76
 10
346.95
 20
174.66
 10
346.18
 20
175.5
 10
345.26
 20
176.2
 10
344.29
 20
176.73
 10
343.35
 20
177.06
 10
342.75
 20
177.06
 10
341.58
 20
177.13
 10
340.39
 20
176.91
 10
339.25
 20
176.47
 10
338.25
 20
175.86
 10
337.13
 20
174.92
 10
336.73
 20
174.38
 10
336.45
 20
173.76
 10
335.85
 20
172.48
 10
335.39
 20
171.14
 10
335.09
 20
169.76
 10
334.95
 20
168.36
 10
334.98
 20
166.96
 10
335.18
 20
165.58
 10
335.57
 20
164.24
 10
336.15
 20
162.96
 10
337.95
 20
160.56
 10
339.04
 20
159.96
 10
340.35
 20
159.36
 10
343.35
 20
159.36
 10
344.64
 20
159.74
  0
HATCH
  5
49
330
17
100
AcDbEntity
  8
FILL_WHITE_FFFFFF
 62
7
420
16777215
100
AcDbHatch
 10
0.0
 20
0.0
 30
0.0
210
0.0
220
0.0
230
1.0
  2
SOLID
 70
1
 71
0
 91
2
 92
3
 72
0
 73
1
 93
70
 10
369.85
 20
157.12
 10
368.77
 20
157.57
 10
367.65
 20
158.16
 10
366.43
 20
158.81
 10
365.27
 20
159.64
 10
364.21
 20
160.67
 10
363.26
 20
161.91
 10
362.47
 20
163.37
 10
361.87
 20
165.08
 10
361.49
 20
167.04
 10
361.35
 20
169.26
 10
361.49
 20
171.58
 10
361.87
 20
173.61
 10
362.47
 20
175.37
 10
363.26
 20
176.87
 10
364.21
 20
178.13
 10
365.27
 20
179.17
 10
366.43
 20
180.01
 10
367.65
 20
180.66
 10
368.77
 20
181.16
 10
369.85
 20
181.53
 10
371.78
 20
181.97
 10
373.65
 20
182.16
 10
374.5
 20
182.28
 10
375.3
 20
182.23
 10
376.95
 20
181.86
 10
377.63
 20
181.58
 10
378.3
 20
181.18
 10
379.65
 20
180.06
 10
379.65
 20
181.86
 10
385.35
 20
181.86
 10
385.35
 20
153.06
 10
385.35
 20
152.46
 10
385.35
 20
151.86
 10
384.78
 20
150.56
 10
383.96
 20
149.35
 10
382.86
 20
148.19
 10
381.45
 20
147.06
 10
379.78
 20
146.27
 10
377.96
 20
145.67
 10
376.09
 20
145.25
 10
374.25
 20
144.96
 10
372.87
 20
144.9
 10
371.46
 20
144.96
 10
368.55
 20
145.37
 10
365.64
 20
146.18
 10
362.85
 20
147.36
 10
364.65
 20
152.76
 10
368.85
 20
150.96
 10
371.1
 20
150.55
 10
373.35
 20
150.36
 10
375.25
 20
150.74
 10
376.84
 20
151.41
 10
377.49
 20
151.83
 10
378.03
 20
152.3
 10
378.46
 20
152.81
 10
378.75
 20
153.36
 10
378.79
 20
153.55
 10
379.05
 20
153.96
 10
379.05
 20
154.56
 10
379.05
 20
154.86
 10
379.05
 20
157.26
 10
379.05
 20
157.86
 10
378.83
 20
157.71
 10
378.15
 20
157.56
 10
376.43
 20
156.87
 10
375.0
 20
156.51
 10
373.65
 20
156.36
 10
371.78
 20
156.58
 10
369.85
 20
157.12
 97
0
 92
18
 72
0
 73
1
 93
41
 10
371.75
 20
176.08
 10
370.65
 20
175.56
 10
369.55
 20
174.7
 10
369.04
 20
174.12
 10
368.59
 20
173.42
 10
368.2
 20
172.6
 10
367.91
 20
171.64
 10
367.72
 20
170.53
 10
367.65
 20
169.26
 10
367.72
 20
168.05
 10
367.91
 20
166.98
 10
368.2
 20
166.06
 10
368.59
 20
165.27
 10
369.04
 20
164.6
 10
369.55
 20
164.04
 10
370.65
 20
163.22
 10
371.75
 20
162.72
 10
372.71
 20
162.47
 10
373.65
 20
162.36
 10
374.59
 20
162.47
 10
375.55
 20
162.72
 10
376.65
 20
163.22
 10
377.75
 20
164.04
 10
378.26
 20
164.6
 10
378.71
 20
165.27
 10
379.1
 20
166.06
 10
379.39
 20
166.98
 10
379.58
 20
168.05
 10
379.65
 20
169.26
 10
379.58
 20
170.53
 10
379.39
 20
171.64
 10
379.1
 20
172.6
 10
378.71
 20
173.42
 10
378.26
 20
174.12
 10
377.75
 20
174.7
 10
376.65
 20
175.56
 10
375.55
 20
176.08
 10
374.59
 20
176.35
 10
373.65
 20
176.46
 10
372.71
 20
176.35
 10
371.75
 20
176.08
 97
0
 75
1
 76
1
 98
0
  0
LWPOLYLINE
  5
4A
330
17
100
AcDbEntity
  8
FILL_WHITE_FFFFFF
370
0
420
16777215
100
AcDbPolyline
 90
69
 70
1
 10
369.85
 20
157.12
 10
368.77
 20
157.57
 10
367.65
 20
158.16
 10
366.43
 20
158.81
 10
365.27
 20
159.64
 10
364.21
 20
160.67
 10
363.26
 20
161.91
 10
362.47
 20
163.37
 10
361.87
 20
165.08
 10
361.49
 20
167.04
 10
361.35
 20
169.26
 10
361.49
 20
171.58
 10
361.87
 20
173.61
 10
362.47
 20
175.37
 10
363.26
 20
176.87
 10
364.21
 20
178.13
 10
365.27
 20
179.17
 10
366.43
 20
180.01
 10
367.65
 20
180.66
 10
368.77
 20
181.16
 10
369.85
 20
181.53
 10
371.78
 20
181.97
 10
373.65
 20
182.16
 10
374.5
 20
182.28
 10
375.3
 20
182.23
 10
376.95
 20
181.86
 10
377.63
 20
181.58
 10
378.3
 20
181.18
 10
379.65
 20
180.06
 10
379.65
 20
181.86
 10
385.35
 20
181.86
 10
385.35
 20
153.06
 10
385.35
 20
152.46
 10
385.35
 20
151.86
 10
384.78
 20
150.56
 10
383.96
 20
149.35
 10
382.86
 20
148.19
 10
381.45
 20
147.06
 10
379.78
 20
146.27
 10
377.96
 20
145.67
 10
376.09
 20
145.25
 10
374.25
 20
144.96
 10
372.87
 20
144.9
 10
371.46
 20
144.96
 10
368.55
 20
145.37
 10
365.64
 20
146.18
 10
362.85
 20
147.36
 10
364.65
 20
152.76
 10
368.85
 20
150.96
 10
371.1
 20
150.55
 10
373.35
 20
150.36
 10
375.25
 20
150.74
 10
376.84
 20
151.41
 10
377.49
 20
151.83
 10
378.03
 20
152.3
 10
378.46
 20
152.81
 10
378.75
 20
153.36
 10
378.79
 20
153.55
 10
379.05
 20
153.96
 10
379.05
 20
154.56
 10
379.05
 20
154.86
 10
379.05
 20
157.26
 10
379.05
 20
157.86
 10
378.83
 20
157.71
 10
378.15
 20
157.56
 10
376.43
 20
156.87
 10
375.0
 20
156.51
 10
373.65
 20
156.36
 10
371.78
 20
156.58
  0
LWPOLYLINE
  5
4B
330
17
100
AcDbEntity
  8
FILL_WHITE_FFFFFF
370
0
420
16777215
100
AcDbPolyline
 90
40
 70
1
 10
371.75
 20
176.08
 10
370.65
 20
175.56
 10
369.55
 20
174.7
 10
369.04
 20
174.12
 10
368.59
 20
173.42
 10
368.2
 20
172.6
 10
367.91
 20
171.64
 10
367.72
 20
170.53
 10
367.65
 20
169.26
 10
367.72
 20
168.05
 10
367.91
 20
166.98
 10
368.2
 20
166.06
 10
368.59
 20
165.27
 10
369.04
 20
164.6
 10
369.55
 20
164.04
 10
370.65
 20
163.22
 10
371.75
 20
162.72
 10
372.71
 20
162.47
 10
373.65
 20
162.36
 10
374.59
 20
162.47
 10
375.55
 20
162.72
 10
376.65
 20
163.22
 10
377.75
 20
164.04
 10
378.26
 20
164.6
 10
378.71
 20
165.27
 10
379.1
 20
166.06
 10
379.39
 20
166.98
 10
379.58
 20
168.05
 10
379.65
 20
169.26
 10
379.58
 20
170.53
 10
379.39
 20
171.64
 10
379.1
 20
172.6
 10
378.71
 20
173.42
 10
378.26
 20
174.12
 10
377.75
 20
174.7
 10
376.65
 20
175.56
 10
375.55
 20
176.08
 10
374.59
 20
176.35
 10
373.65
 20
176.46
 10
372.71
 20
176.35
  0
HATCH
  5
4C
330
17
100
AcDbEntity
  8
FILL_WHITE_FFFFFF
 62
7
420
16777215
100
AcDbHatch
 10
0.0
 20
0.0
 30
0.0
210
0.0
220
0.0
230
1.0
  2
SOLID
 70
1
 71
0
 91
2
 92
3
 72
0
 73
1
 93
65
 10
400.69
 20
154.37
 10
399.43
 20
154.97
 10
398.25
 20
155.76
 10
397.01
 20
156.72
 10
396.0
 20
157.78
 10
395.21
 20
158.97
 10
394.65
 20
160.26
 10
394.13
 20
161.52
 10
393.7
 20
162.84
 10
393.37
 20
164.19
 10
393.15
 20
165.58
 10
393.04
 20
167.0
 10
393.05
 20
168.44
 10
393.18
 20
169.9
 10
393.45
 20
171.36
 10
393.74
 20
172.71
 10
394.17
 20
174.04
 10
394.73
 20
175.33
 10
395.4
 20
176.57
 10
396.19
 20
177.74
 10
397.08
 20
178.83
 10
398.07
 20
179.81
 10
399.15
 20
180.66
 10
400.76
 20
181.43
 10
402.44
 20
181.96
 10
404.16
 20
182.24
 10
405.9
 20
182.27
 10
407.64
 20
182.07
 10
409.36
 20
181.63
 10
411.04
 20
180.96
 10
412.65
 20
180.06
 10
414.07
 20
178.82
 10
415.2
 20
177.36
 10
416.11
 20
175.67
 10
416.85
 20
173.76
 10
417.24
 20
171.91
 10
417.53
 20
169.97
 10
417.69
 20
167.98
 10
417.75
 20
165.96
 10
399.15
 20
165.96
 10
399.34
 20
164.42
 10
399.75
 20
162.66
 10
400.69
 20
161.31
 10
401.85
 20
159.96
 10
403.2
 20
159.4
 10
404.59
 20
159.06
 10
406.03
 20
158.95
 10
407.55
 20
159.06
 10
408.67
 20
159.35
 10
409.76
 20
159.77
 10
410.8
 20
160.37
 10
411.75
 20
161.16
 10
412.95
 20
161.76
 10
416.55
 20
157.56
 10
415.65
 20
156.72
 10
414.71
 20
155.98
 10
413.72
 20
155.37
 10
412.65
 20
154.86
 10
410.52
 20
154.08
 10
408.23
 20
153.58
 10
405.82
 20
153.43
 10
404.59
 20
153.49
 10
403.35
 20
153.66
 10
402.0
 20
153.95
 10
400.69
 20
154.37
 97
0
 92
18
 72
0
 73
1
 93
19
 10
411.69
 20
171.28
 10
411.49
 20
172.37
 10
411.12
 20
173.41
 10
410.55
 20
174.36
 10
409.61
 20
175.52
 10
408.45
 20
176.46
 10
407.05
 20
176.97
 10
405.6
 20
177.13
 10
404.15
 20
176.97
 10
402.75
 20
176.46
 10
401.95
 20
176.0
 10
401.33
 20
175.48
 10
400.81
 20
174.86
 10
400.35
 20
174.06
 10
399.53
 20
172.22
 10
399.25
 20
171.23
 10
399.15
 20
170.16
 10
411.75
 20
170.16
 10
411.69
 20
171.28
 97
0
 75
1
 76
1
 98
0
  0
LWPOLYLINE
  5
4D
330
17
100
AcDbEntity
  8
FILL_WHITE_FFFFFF
370
0
420
16777215
100
AcDbPolyline
 90
64
 70
1
 10
400.69
 20
154.37
 10
399.43
 20
154.97
 10
398.25
 20
155.76
 10
397.01
 20
156.72
 10
396.0
 20
157.78
 10
395.21
 20
158.97
 10
394.65
 20
160.26
 10
394.13
 20
161.52
 10
393.7
 20
162.84
 10
393.37
 20
164.19
 10
393.15
 20
165.58
 10
393.04
 20
167.0
 10
393.05
 20
168.44
 10
393.18
 20
169.9
 10
393.45
 20
171.36
 10
393.74
 20
172.71
 10
394.17
 20
174.04
 10
394.73
 20
175.33
 10
395.4
 20
176.57
 10
396.19
 20
177.74
 10
397.08
 20
178.83
 10
398.07
 20
179.81
 10
399.15
 20
180.66
 10
400.76
 20
181.43
 10
402.44
 20
181.96
 10
404.16
 20
182.24
 10
405.9
 20
182.27
 10
407.64
 20
182.07
 10
409.36
 20
181.63
 10
411.04
 20
180.96
 10
412.65
 20
180.06
 10
414.07
 20
178.82
 10
415.2
 20
177.36
 10
416.11
 20
175.67
 10
416.85
 20
173.76
 10
417.24
 20
171.91
 10
417.53
 20
169.97
 10
417.69
 20
167.98
 10
417.75
 20
165.96
 10
399.15
 20
165.96
 10
399.34
 20
164.42
 10
399.75
 20
162.66
 10
400.69
 20
161.31
 10
401.85
 20
159.96
 10
403.2
 20
159.4
 10
404.59
 20
159.06
 10
406.03
 20
158.95
 10
407.55
 20
159.06
 10
408.67
 20
159.35
 10
409.76
 20
159.77
 10
410.8
 20
160.37
 10
411.75
 20
161.16
 10
412.95
 20
161.76
 10
416.55
 20
157.56
 10
415.65
 20
156.72
 10
414.71
 20
155.98
 10
413.72
 20
155.37
 10
412.65
 20
154.86
 10
410.52
 20
154.08
 10
408.23
 20
153.58
 10
405.82
 20
153.43
 10
404.59
 20
153.49
 10
403.35
 20
153.66
 10
402.0
 20
153.95
  0
LWPOLYLINE
  5
4E
330
17
100
AcDbEntity
  8
FILL_WHITE_FFFFFF
370
0
420
16777215
100
AcDbPolyline
 90
18
 70
1
 10
411.69
 20
171.28
 10
411.49
 20
172.37
 10
411.12
 20
173.41
 10
410.55
 20
174.36
 10
409.61
 20
175.52
 10
408.45
 20
176.46
 10
407.05
 20
176.97
 10
405.6
 20
177.13
 10
404.15
 20
176.97
 10
402.75
 20
176.46
 10
401.95
 20
176.0
 10
401.33
 20
175.48
 10
400.81
 20
174.86
 10
400.35
 20
174.06
 10
399.53
 20
172.22
 10
399.25
 20
171.23
 10
399.15
 20
170.16
 10
411.75
 20
170.16
  0
HATCH
  5
4F
330
17
100
AcDbEntity
  8
FILL_WHITE_FFFFFF
 62
7
420
16777215
100
AcDbHatch
 10
0.0
 20
0.0
 30
0.0
210
0.0
220
0.0
230
1.0
  2
SOLID
 70
1
 71
0
 91
1
 92
3
 72
0
 73
1
 93
11
 10
151.35
 20
154.26
 10
145.05
 20
154.26
 10
145.05
 20
192.66
 10
168.75
 20
192.66
 10
168.75
 20
186.66
 10
151.35
 20
186.66
 10
151.35
 20
176.76
 10
167.25
 20
176.76
 10
167.25
 20
170.76
 10
151.35
 20
170.76
 10
151.35
 20
154.26
 97
0
 75
1
 76
1
 98
0
  0
LWPOLYLINE
  5
50
330
17
100
AcDbEntity
  8
FILL_WHITE_FFFFFF
370
0
420
16777215
100
AcDbPolyline
 90
10
 70
1
 10
151.35
 20
154.26
 10
145.05
 20
154.26
 10
145.05
 20
192.66
 10
168.75
 20
192.66
 10
168.75
 20
186.66
 10
151.35
 20
186.66
 10
151.35
 20
176.76
 10
167.25
 20
176.76
 10
167.25
 20
170.76
 10
151.35
 20
170.76
  0
HATCH
  5
51
330
17
100
AcDbEntity
  8
FILL_WHITE_FFFFFF
 62
7
420
16777215
100
AcDbHatch
 10
0.0
 20
0.0
 30
0.0
210
0.0
220
0.0
230
1.0
  2
SOLID
 70
1
 71
0
 91
1
 92
3
 72
0
 73
1
 93
33
 10
478.53
 20
174.31
 10
479.03
 20
175.94
 10
479.84
 20
177.42
 10
480.9
 20
178.71
 10
482.19
 20
179.77
 10
483.67
 20
180.58
 10
485.3
 20
181.08
 10
487.05
 20
181.26
 10
488.9
 20
181.08
 10
490.61
 20
180.58
 10
492.14
 20
179.77
 10
493.46
 20
178.71
 10
494.55
 20
177.42
 10
495.36
 20
175.94
 10
495.87
 20
174.31
 10
496.05
 20
172.56
 10
495.87
 20
170.71
 10
495.36
 20
169.0
 10
494.55
 20
167.47
 10
493.46
 20
166.15
 10
492.14
 20
165.06
 10
490.61
 20
164.25
 10
488.9
 20
163.74
 10
487.05
 20
163.56
 10
485.3
 20
163.74
 10
483.67
 20
164.25
 10
482.19
 20
165.06
 10
480.9
 20
166.15
 10
479.84
 20
167.47
 10
479.03
 20
169.0
 10
478.53
 20
170.71
 10
478.35
 20
172.56
 10
478.53
 20
174.31
 97
0
 75
1
 76
1
 98
0
  0
LWPOLYLINE
  5
52
330
17
100
AcDbEntity
  8
FILL_WHITE_FFFFFF
370
0
420
16777215
100
AcDbPolyline
 90
32
 70
1
 10
478.53
 20
174.31
 10
479.03
 20
175.94
 10
479.84
 20
177.42
 10
480.9
 20
178.71
 10
482.19
 20
179.77
 10
483.67
 20
180.58
 10
485.3
 20
181.08
 10
487.05
 20
181.26
 10
488.9
 20
181.08
 10
490.61
 20
180.58
 10
492.14
 20
179.77
 10
493.46
 20
178.71
 10
494.55
 20
177.42
 10
495.36
 20
175.94
 10
495.87
 20
174.31
 10
496.05
 20
172.56
 10
495.87
 20
170.71
 10
495.36
 20
169.0
 10
494.55
 20
167.47
 10
493.46
 20
166.15
 10
492.14
 20
165.06
 10
490.61
 20
164.25
 10
488.9
 20
163.74
 10
487.05
 20
163.56
 10
485.3
 20
163.74
 10
483.67
 20
164.25
 10
482.19
 20
165.06
 10
480.9
 20
166.15
 10
479.84
 20
167.47
 10
479.03
 20
169.0
 10
478.53
 20
170.71
 10
478.35
 20
172.56
  0
HATCH
  5
53
330
17
100
AcDbEntity
  8
FILL_WHITE_FFFFFF
 62
7
420
16777215
100
AcDbHatch
 10
0.0
 20
0.0
 30
0.0
210
0.0
220
0.0
230
1.0
  2
SOLID
 70
1
 71
0
 91
1
 92
3
 72
0
 73
1
 93
39
 10
469.35
 20
71.46
 10
470.55
 20
95.46
 10
480.75
 20
123.06
 10
479.25
 20
140.16
 10
475.05
 20
135.66
 10
462.15
 20
124.56
 10
458.85
 20
129.66
 10
470.25
 20
139.86
 10
473.55
 20
149.76
 10
474.57
 20
151.9
 10
475.84
 20
153.85
 10
477.39
 20
155.62
 10
479.25
 20
157.26
 10
481.33
 20
158.45
 10
483.49
 20
159.32
 10
485.7
 20
159.92
 10
487.95
 20
160.26
 10
490.2
 20
160.32
 10
492.45
 20
160.03
 10
494.7
 20
159.42
 10
496.95
 20
158.46
 10
498.03
 20
157.86
 10
499.04
 20
157.18
 10
500.81
 20
155.65
 10
502.31
 20
153.95
 10
503.55
 20
152.16
 10
508.35
 20
144.66
 10
512.55
 20
121.56
 10
506.85
 20
119.46
 10
501.45
 20
141.66
 10
497.85
 20
145.26
 10
510.15
 20
98.76
 10
520.65
 20
81.66
 10
515.55
 20
75.96
 10
496.65
 20
101.46
 10
490.95
 20
114.66
 10
480.75
 20
96.06
 10
475.95
 20
71.46
 10
469.35
 20
71.46
 97
0
 75
1
 76
1
 98
0
  0
LWPOLYLINE
  5
54
330
17
100
AcDbEntity
  8
FILL_WHITE_FFFFFF
370
0
420
16777215
100
AcDbPolyline
 90
38
 70
1
 10
469.35
 20
71.46
 10
470.55
 20
95.46
 10
480.75
 20
123.06
 10
479.25
 20
140.16
 10
475.05
 20
135.66
 10
462.15
 20
124.56
 10
458.85
 20
129.66
 10
470.25
 20
139.86
 10
473.55
 20
149.76
 10
474.57
 20
151.9
 10
475.84
 20
153.85
 10
477.39
 20
155.62
 10
479.25
 20
157.26
 10
481.33
 20
158.45
 10
483.49
 20
159.32
 10
485.7
 20
159.92
 10
487.95
 20
160.26
 10
490.2
 20
160.32
 10
492.45
 20
160.03
 10
494.7
 20
159.42
 10
496.95
 20
158.46
 10
498.03
 20
157.86
 10
499.04
 20
157.18
 10
500.81
 20
155.65
 10
502.31
 20
153.95
 10
503.55
 20
152.16
 10
508.35
 20
144.66
 10
512.55
 20
121.56
 10
506.85
 20
119.46
 10
501.45
 20
141.66
 10
497.85
 20
145.26
 10
510.15
 20
98.76
 10
520.65
 20
81.66
 10
515.55
 20
75.96
 10
496.65
 20
101.46
 10
490.95
 20
114.66
 10
480.75
 20
96.06
 10
475.95
 20
71.46
  0
HATCH
  5
55
330
17
100
AcDbEntity
  8
FILL_WHITE_FFFFFF
 62
7
420
16777215
100
AcDbHatch
 10
0.0
 20
0.0
 30
0.0
210
0.0
220
0.0
230
1.0
  2
SOLID
 70
1
 71
0
 91
1
 92
3
 72
0
 73
1
 93
7
 10
127.95
 20
51.06
 10
92.55
 20
51.06
 10
49.05
 20
126.36
 10
92.55
 20
201.66
 10
127.95
 20
201.66
 10
84.45
 20
126.36
 10
127.95
 20
51.06
 97
0
 75
1
 76
1
 98
0
  0
LWPOLYLINE
  5
56
330
17
100
AcDbEntity
  8
FILL_WHITE_FFFFFF
370
0
420
255
100
AcDbPolyline
 90
6
 70
1
 10
127.95
 20
51.06
 10
92.55
 20
51.06
 10
49.05
 20
126.36
 10
92.55
 20
201.66
 10
127.95
 20
201.66
 10
84.45
 20
126.36
  0
HATCH
  5
57
330
17
100
AcDbEntity
  8
FILL_WHITE_FFFFFF
 62
7
420
16777215
100
AcDbHatch
 10
0.0
 20
0.0
 30
0.0
210
0.0
220
0.0
230
1.0
  2
SOLID
 70
1
 71
0
 91
1
 92
3
 72
0
 73
1
 93
11
 10
156.15
 20
115.56
 10
163.35
 20
122.46
 10
168.45
 20
120.66
 10
169.35
 20
120.36
 10
169.65
 20
119.76
 10
169.05
 20
119.16
 10
167.85
 20
118.26
 10
160.95
 20
112.26
 10
154.05
 20
107.16
 10
148.05
 20
110.46
 10
156.15
 20
115.56
 97
0
 75
1
 76
1
 98
0
  0
LWPOLYLINE
  5
58
330
17
100
AcDbEntity
  8
FILL_WHITE_FFFFFF
370
0
420
16777215
100
AcDbPolyline
 90
10
 70
1
 10
156.15
 20
115.56
 10
163.35
 20
122.46
 10
168.45
 20
120.66
 10
169.35
 20
120.36
 10
169.65
 20
119.76
 10
169.05
 20
119.16
 10
167.85
 20
118.26
 10
160.95
 20
112.26
 10
154.05
 20
107.16
 10
148.05
 20
110.46
  0
HATCH
  5
59
330
17
100
AcDbEntity
  8
FILL_WHITE_FFFFFF
 62
7
420
16777215
100
AcDbHatch
 10
0.0
 20
0.0
 30
0.0
210
0.0
220
0.0
230
1.0
  2
SOLID
 70
1
 71
0
 91
1
 92
3
 72
0
 73
1
 93
17
 10
151.95
 20
95.46
 10
156.75
 20
100.26
 10
161.25
 20
105.66
 10
165.15
 20
111.66
 10
170.25
 20
109.86
 10
171.15
 20
109.56
 10
171.45
 20
108.96
 10
171.15
 20
108.36
 10
169.95
 20
107.46
 10
166.95
 20
104.16
 10
164.25
 20
100.26
 10
164.25
 20
66.66
 10
158.25
 20
66.66
 10
158.25
 20
93.66
 10
152.25
 20
87.96
 10
146.85
 20
91.26
 10
151.95
 20
95.46
 97
0
 75
1
 76
1
 98
0
  0
LWPOLYLINE
  5
5A
330
17
100
AcDbEntity
  8
FILL_WHITE_FFFFFF
370
0
420
16777215
100
AcDbPolyline
 90
16
 70
1
 10
151.95
 20
95.46
 10
156.75
 20
100.26
 10
161.25
 20
105.66
 10
165.15
 20
111.66
 10
170.25
 20
109.86
 10
171.15
 20
109.56
 10
171.45
 20
108.96
 10
171.15
 20
108.36
 10
169.95
 20
107.46
 10
166.95
 20
104.16
 10
164.25
 20
100.26
 10
164.25
 20
66.66
 10
158.25
 20
66.66
 10
158.25
 20
93.66
 10
152.25
 20
87.96
 10
146.85
 20
91.26
  0
HATCH
  5
5B
330
17
100
AcDbEntity
  8
FILL_WHITE_FFFFFF
 62
7
420
16777215
100
AcDbHatch
 10
0.0
 20
0.0
 30
0.0
210
0.0
220
0.0
230
1.0
  2
SOLID
 70
1
 71
0
 91
1
 92
3
 72
0
 73
1
 93
5
 10
200.25
 20
119.76
 10
200.25
 20
113.76
 10
175.35
 20
113.76
 10
175.35
 20
119.76
 10
200.25
 20
119.76
 97
0
 75
1
 76
1
 98
0
  0
LWPOLYLINE
  5
5C
330
17
100
AcDbEntity
  8
FILL_WHITE_FFFFFF
370
0
420
16777215
100
AcDbPolyline
 90
4
 70
1
 10
200.25
 20
119.76
 10
200.25
 20
113.76
 10
175.35
 20
113.76
 10
175.35
 20
119.76
  0
HATCH
  5
5D
330
17
100
AcDbEntity
  8
FILL_WHITE_FFFFFF
 62
7
420
16777215
100
AcDbHatch
 10
0.0
 20
0.0
 30
0.0
210
0.0
220
0.0
230
1.0
  2
SOLID
 70
1
 71
0
 91
1
 92
3
 72
0
 73
1
 93
23
 10
170.25
 20
97.26
 10
170.25
 20
102.66
 10
204.75
 20
102.66
 10
204.75
 20
97.26
 10
195.15
 20
97.26
 10
195.15
 20
76.56
 10
195.15
 20
74.46
 10
194.85
 20
72.36
 10
193.95
 20
70.56
 10
193.05
 20
69.36
 10
191.55
 20
68.16
 10
189.45
 20
67.56
 10
187.35
 20
66.96
 10
184.65
 20
66.96
 10
181.35
 20
66.96
 10
178.95
 20
73.26
 10
186.15
 20
73.26
 10
187.35
 20
73.86
 10
187.95
 20
74.76
 10
188.55
 20
75.96
 10
188.85
 20
78.06
 10
188.85
 20
97.26
 10
170.25
 20
97.26
 97
0
 75
1
 76
1
 98
0
  0
LWPOLYLINE
  5
5E
330
17
100
AcDbEntity
  8
FILL_WHITE_FFFFFF
370
0
420
16777215
100
AcDbPolyline
 90
22
 70
1
 10
170.25
 20
97.26
 10
170.25
 20
102.66
 10
204.75
 20
102.66
 10
204.75
 20
97.26
 10
195.15
 20
97.26
 10
195.15
 20
76.56
 10
195.15
 20
74.46
 10
194.85
 20
72.36
 10
193.95
 20
70.56
 10
193.05
 20
69.36
 10
191.55
 20
68.16
 10
189.45
 20
67.56
 10
187.35
 20
66.96
 10
184.65
 20
66.96
 10
181.35
 20
66.96
 10
178.95
 20
73.26
 10
186.15
 20
73.26
 10
187.35
 20
73.86
 10
187.95
 20
74.76
 10
188.55
 20
75.96
 10
188.85
 20
78.06
 10
188.85
 20
97.26
  0
HATCH
  5
5F
330
17
100
AcDbEntity
  8
FILL_WHITE_FFFFFF
 62
7
420
16777215
100
AcDbHatch
 10
0.0
 20
0.0
 30
0.0
210
0.0
220
0.0
230
1.0
  2
SOLID
 70
1
 71
0
 91
1
 92
3
 72
0
 73
1
 93
40
 10
256.05
 20
122.76
 10
256.95
 20
122.16
 10
256.65
 20
121.26
 10
255.45
 20
120.06
 10
255.15
 20
113.76
 10
255.45
 20
107.76
 10
257.55
 20
101.76
 10
259.95
 20
96.36
 10
262.35
 20
91.26
 10
265.35
 20
86.76
 10
268.65
 20
82.56
 10
272.25
 20
78.66
 10
275.85
 20
75.36
 10
280.35
 20
72.36
 10
273.15
 20
67.86
 10
267.45
 20
73.86
 10
262.05
 20
80.76
 10
257.25
 20
88.56
 10
252.75
 20
97.86
 10
251.55
 20
93.66
 10
249.75
 20
89.76
 10
247.35
 20
85.86
 10
244.65
 20
82.26
 10
241.35
 20
78.66
 10
237.45
 20
75.06
 10
233.25
 20
71.76
 10
228.15
 20
68.46
 10
223.05
 20
73.56
 10
227.85
 20
76.26
 10
232.35
 20
79.26
 10
236.25
 20
82.56
 10
239.55
 20
85.86
 10
242.25
 20
89.46
 10
244.65
 20
93.06
 10
246.45
 20
97.26
 10
247.65
 20
101.46
 10
249.15
 20
111.06
 10
249.15
 20
123.06
 10
254.25
 20
123.06
 10
256.05
 20
122.76
 97
0
 75
1
 76
1
 98
0
  0
LWPOLYLINE
  5
60
330
17
100
AcDbEntity
  8
FILL_WHITE_FFFFFF
370
0
420
16777215
100
AcDbPolyline
 90
39
 70
1
 10
256.05
 20
122.76
 10
256.95
 20
122.16
 10
256.65
 20
121.26
 10
255.45
 20
120.06
 10
255.15
 20
113.76
 10
255.45
 20
107.76
 10
257.55
 20
101.76
 10
259.95
 20
96.36
 10
262.35
 20
91.26
 10
265.35
 20
86.76
 10
268.65
 20
82.56
 10
272.25
 20
78.66
 10
275.85
 20
75.36
 10
280.35
 20
72.36
 10
273.15
 20
67.86
 10
267.45
 20
73.86
 10
262.05
 20
80.76
 10
257.25
 20
88.56
 10
252.75
 20
97.86
 10
251.55
 20
93.66
 10
249.75
 20
89.76
 10
247.35
 20
85.86
 10
244.65
 20
82.26
 10
241.35
 20
78.66
 10
237.45
 20
75.06
 10
233.25
 20
71.76
 10
228.15
 20
68.46
 10
223.05
 20
73.56
 10
227.85
 20
76.26
 10
232.35
 20
79.26
 10
236.25
 20
82.56
 10
239.55
 20
85.86
 10
242.25
 20
89.46
 10
244.65
 20
93.06
 10
246.45
 20
97.26
 10
247.65
 20
101.46
 10
249.15
 20
111.06
 10
249.15
 20
123.06
 10
254.25
 20
123.06
  0
HATCH
  5
61
330
17
100
AcDbEntity
  8
FILL_WHITE_FFFFFF
 62
7
420
16777215
100
AcDbHatch
 10
0.0
 20
0.0
 30
0.0
210
0.0
220
0.0
230
1.0
  2
SOLID
 70
1
 71
0
 91
1
 92
3
 72
0
 73
1
 93
44
 10
350.85
 20
120.36
 10
350.85
 20
114.96
 10
331.05
 20
114.96
 10
331.05
 20
102.06
 10
354.45
 20
102.06
 10
354.45
 20
96.66
 10
332.85
 20
96.66
 10
334.35
 20
92.46
 10
336.45
 20
88.86
 10
339.15
 20
85.26
 10
341.85
 20
82.26
 10
344.85
 20
79.56
 10
348.45
 20
77.16
 10
352.35
 20
75.36
 10
356.85
 20
73.56
 10
352.05
 20
67.56
 10
344.55
 20
71.76
 10
337.95
 20
77.16
 10
332.85
 20
84.06
 10
328.95
 20
92.16
 10
327.75
 20
88.56
 10
326.25
 20
85.26
 10
323.85
 20
81.96
 10
321.15
 20
78.96
 10
317.55
 20
75.96
 10
313.65
 20
72.96
 10
308.85
 20
70.26
 10
303.75
 20
67.56
 10
298.65
 20
72.36
 10
304.05
 20
74.76
 10
308.85
 20
77.46
 10
313.05
 20
80.16
 10
316.35
 20
83.16
 10
319.35
 20
86.16
 10
321.45
 20
89.46
 10
323.25
 20
93.06
 10
324.15
 20
96.66
 10
300.75
 20
96.66
 10
300.75
 20
102.06
 10
325.05
 20
102.06
 10
325.05
 20
114.96
 10
304.95
 20
114.96
 10
304.95
 20
120.36
 10
350.85
 20
120.36
 97
0
 75
1
 76
1
 98
0
  0
LWPOLYLINE
  5
62
330
17
100
AcDbEntity
  8
FILL_WHITE_FFFFFF
370
0
420
16777215
100
AcDbPolyline
 90
43
 70
1
 10
350.85
 20
120.36
 10
350.85
 20
114.96
 10
331.05
 20
114.96
 10
331.05
 20
102.06
 10
354.45
 20
102.06
 10
354.45
 20
96.66
 10
332.85
 20
96.66
 10
334.35
 20
92.46
 10
336.45
 20
88.86
 10
339.15
 20
85.26
 10
341.85
 20
82.26
 10
344.85
 20
79.56
 10
348.45
 20
77.16
 10
352.35
 20
75.36
 10
356.85
 20
73.56
 10
352.05
 20
67.56
 10
344.55
 20
71.76
 10
337.95
 20
77.16
 10
332.85
 20
84.06
 10
328.95
 20
92.16
 10
327.75
 20
88.56
 10
326.25
 20
85.26
 10
323.85
 20
81.96
 10
321.15
 20
78.96
 10
317.55
 20
75.96
 10
313.65
 20
72.96
 10
308.85
 20
70.26
 10
303.75
 20
67.56
 10
298.65
 20
72.36
 10
304.05
 20
74.76
 10
308.85
 20
77.46
 10
313.05
 20
80.16
 10
316.35
 20
83.16
 10
319.35
 20
86.16
 10
321.45
 20
89.46
 10
323.25
 20
93.06
 10
324.15
 20
96.66
 10
300.75
 20
96.66
 10
300.75
 20
102.06
 10
325.05
 20
102.06
 10
325.05
 20
114.96
 10
304.95
 20
114.96
 10
304.95
 20
120.36
  0
HATCH
  5
63
330
17
100
AcDbEntity
  8
FILL_WHITE_FFFFFF
 62
7
420
16777215
100
AcDbHatch
 10
0.0
 20
0.0
 30
0.0
210
0.0
220
0.0
230
1.0
  2
SOLID
 70
1
 71
0
 91
1
 92
3
 72
0
 73
1
 93
26
 10
387.75
 20
123.66
 10
389.55
 20
123.06
 10
390.15
 20
122.46
 10
390.15
 20
121.86
 10
388.95
 20
121.56
 10
388.95
 20
111.36
 10
393.45
 20
111.36
 10
393.45
 20
106.56
 10
388.35
 20
106.56
 10
391.65
 20
99.96
 10
395.85
 20
94.56
 10
391.65
 20
90.66
 10
390.15
 20
93.36
 10
388.95
 20
96.06
 10
388.95
 20
66.96
 10
383.55
 20
66.96
 10
383.55
 20
93.66
 10
379.05
 20
82.86
 10
373.95
 20
86.16
 10
379.35
 20
95.76
 10
383.55
 20
106.56
 10
376.05
 20
106.56
 10
376.05
 20
111.36
 10
383.55
 20
111.36
 10
383.55
 20
124.26
 10
387.75
 20
123.66
 97
0
 75
1
 76
1
 98
0
  0
LWPOLYLINE
  5
64
330
17
100
AcDbEntity
  8
FILL_WHITE_FFFFFF
370
0
420
16777215
100
AcDbPolyline
 90
25
 70
1
 10
387.75
 20
123.66
 10
389.55
 20
123.06
 10
390.15
 20
122.46
 10
390.15
 20
121.86
 10
388.95
 20
121.56
 10
388.95
 20
111.36
 10
393.45
 20
111.36
 10
393.45
 20
106.56
 10
388.35
 20
106.56
 10
391.65
 20
99.96
 10
395.85
 20
94.56
 10
391.65
 20
90.66
 10
390.15
 20
93.36
 10
388.95
 20
96.06
 10
388.95
 20
66.96
 10
383.55
 20
66.96
 10
383.55
 20
93.66
 10
379.05
 20
82.86
 10
373.95
 20
86.16
 10
379.35
 20
95.76
 10
383.55
 20
106.56
 10
376.05
 20
106.56
 10
376.05
 20
111.36
 10
383.55
 20
111.36
 10
383.55
 20
124.26
  0
HATCH
  5
65
330
17
100
AcDbEntity
  8
FILL_WHITE_FFFFFF
 62
7
420
16777215
100
AcDbHatch
 10
0.0
 20
0.0
 30
0.0
210
0.0
220
0.0
230
1.0
  2
SOLID
 70
1
 71
0
 91
3
 92
3
 72
0
 73
1
 93
30
 10
426.75
 20
121.26
 10
427.05
 20
120.06
 10
427.05
 20
119.76
 10
426.15
 20
119.46
 10
424.65
 20
119.76
 10
412.95
 20
118.26
 10
411.45
 20
113.76
 10
428.85
 20
113.76
 10
428.85
 20
108.96
 10
420.75
 20
108.96
 10
426.45
 20
105.06
 10
433.05
 20
102.36
 10
429.15
 20
97.86
 10
422.25
 20
102.06
 10
422.25
 20
93.66
 10
402.45
 20
93.66
 10
402.45
 20
101.46
 10
395.85
 20
97.86
 10
392.25
 20
101.46
 10
398.55
 20
104.76
 10
403.05
 20
108.96
 10
394.65
 20
108.96
 10
394.65
 20
113.76
 10
406.35
 20
113.76
 10
407.25
 20
117.66
 10
398.25
 20
116.76
 10
394.95
 20
120.96
 10
409.05
 20
122.16
 10
423.15
 20
124.26
 10
426.75
 20
121.26
 97
0
 92
18
 72
0
 73
1
 93
5
 10
407.85
 20
101.16
 10
407.85
 20
98.16
 10
416.85
 20
98.16
 10
416.85
 20
101.16
 10
407.85
 20
101.16
 97
0
 92
18
 72
0
 73
1
 93
5
 10
418.95
 20
105.06
 10
414.75
 20
108.96
 10
409.35
 20
108.96
 10
406.95
 20
105.06
 10
418.95
 20
105.06
 97
0
 75
1
 76
1
 98
0
  0
LWPOLYLINE
  5
66
330
17
100
AcDbEntity
  8
FILL_WHITE_FFFFFF
370
0
420
16777215
100
AcDbPolyline
 90
29
 70
1
 10
426.75
 20
121.26
 10
427.05
 20
120.06
 10
427.05
 20
119.76
 10
426.15
 20
119.46
 10
424.65
 20
119.76
 10
412.95
 20
118.26
 10
411.45
 20
113.76
 10
428.85
 20
113.76
 10
428.85
 20
108.96
 10
420.75
 20
108.96
 10
426.45
 20
105.06
 10
433.05
 20
102.36
 10
429.15
 20
97.86
 10
422.25
 20
102.06
 10
422.25
 20
93.66
 10
402.45
 20
93.66
 10
402.45
 20
101.46
 10
395.85
 20
97.86
 10
392.25
 20
101.46
 10
398.55
 20
104.76
 10
403.05
 20
108.96
 10
394.65
 20
108.96
 10
394.65
 20
113.76
 10
406.35
 20
113.76
 10
407.25
 20
117.66
 10
398.25
 20
116.76
 10
394.95
 20
120.96
 10
409.05
 20
122.16
 10
423.15
 20
124.26
  0
LWPOLYLINE
  5
67
330
17
100
AcDbEntity
  8
FILL_WHITE_FFFFFF
370
0
420
16777215
100
AcDbPolyline
 90
4
 70
1
 10
407.85
 20
101.16
 10
407.85
 20
98.16
 10
416.85
 20
98.16
 10
416.85
 20
101.16
  0
LWPOLYLINE
  5
68
330
17
100
AcDbEntity
  8
FILL_WHITE_FFFFFF
370
0
420
16777215
100
AcDbPolyline
 90
4
 70
1
 10
418.95
 20
105.06
 10
414.75
 20
108.96
 10
409.35
 20
108.96
 10
406.95
 20
105.06
  0
HATCH
  5
69
330
17
100
AcDbEntity
  8
FILL_WHITE_FFFFFF
 62
7
420
16777215
100
AcDbHatch
 10
0.0
 20
0.0
 30
0.0
210
0.0
220
0.0
230
1.0
  2
SOLID
 70
1
 71
0
 91
1
 92
3
 72
0
 73
1
 93
19
 10
429.75
 20
90.96
 10
429.75
 20
74.46
 10
429.15
 20
71.16
 10
427.95
 20
68.76
 10
425.85
 20
67.26
 10
423.45
 20
66.96
 10
420.45
 20
66.96
 10
418.35
 20
72.06
 10
420.15
 20
72.06
 10
422.25
 20
72.06
 10
423.45
 20
72.96
 10
424.05
 20
74.16
 10
424.05
 20
76.26
 10
424.05
 20
86.76
 10
400.95
 20
86.76
 10
400.95
 20
67.26
 10
395.25
 20
67.26
 10
395.25
 20
90.96
 10
429.75
 20
90.96
 97
0
 75
1
 76
1
 98
0
  0
LWPOLYLINE
  5
6A
330
17
100
AcDbEntity
  8
FILL_WHITE_FFFFFF
370
0
420
16777215
100
AcDbPolyline
 90
18
 70
1
 10
429.75
 20
90.96
 10
429.75
 20
74.46
 10
429.15
 20
71.16
 10
427.95
 20
68.76
 10
425.85
 20
67.26
 10
423.45
 20
66.96
 10
420.45
 20
66.96
 10
418.35
 20
72.06
 10
420.15
 20
72.06
 10
422.25
 20
72.06
 10
423.45
 20
72.96
 10
424.05
 20
74.16
 10
424.05
 20
76.26
 10
424.05
 20
86.76
 10
400.95
 20
86.76
 10
400.95
 20
67.26
 10
395.25
 20
67.26
 10
395.25
 20
90.96
  0
HATCH
  5
6B
330
17
100
AcDbEntity
  8
FILL_WHITE_FFFFFF
 62
7
420
16777215
100
AcDbHatch
 10
0.0
 20
0.0
 30
0.0
210
0.0
220
0.0
230
1.0
  2
SOLID
 70
1
 71
0
 91
2
 92
3
 72
0
 73
1
 93
5
 10
420.45
 20
72.36
 10
404.25
 20
72.36
 10
404.25
 20
83.76
 10
420.45
 20
83.76
 10
420.45
 20
72.36
 97
0
 92
18
 72
0
 73
1
 93
5
 10
415.35
 20
79.86
 10
409.05
 20
79.86
 10
409.05
 20
76.26
 10
415.35
 20
76.26
 10
415.35
 20
79.86
 97
0
 75
1
 76
1
 98
0
  0
LWPOLYLINE
  5
6C
330
17
100
AcDbEntity
  8
FILL_WHITE_FFFFFF
370
0
420
16777215
100
AcDbPolyline
 90
4
 70
1
 10
420.45
 20
72.36
 10
404.25
 20
72.36
 10
404.25
 20
83.76
 10
420.45
 20
83.76
  0
LWPOLYLINE
  5
6D
330
17
100
AcDbEntity
  8
FILL_WHITE_FFFFFF
370
0
420
16777215
100
AcDbPolyline
 90
4
 70
1
 10
415.35
 20
79.86
 10
409.05
 20
79.86
 10
409.05
 20
76.26
 10
415.35
 20
76.26
  0
LWPOLYLINE
  5
6F
330
17
100
AcDbEntity
  8
STROKE_BLUE_0000FF
370
0
420
255
100
AcDbPolyline
 90
62
 70
0
 10
82.95000000000005
 20
222.35999999999876
 10
531.7500000000002
 20
222.35999999999876
 10
533.8587890625001
 20
222.26214843749878
 10
535.9078125000001
 20
221.97093749999885
 10
537.8935546875001
 20
221.4898828124989
 10
539.8125
 20
220.82249999999897
 10
541.6611328125
 20
219.972304687499
 10
543.4359375000001
 20
218.94281249999898
 10
545.1333984375001
 20
217.7375390624989
 10
546.7500000000002
 20
216.35999999999876
 10
548.1275390625001
 20
214.8301171874989
 10
549.3328125
 20
213.17718749999904
 10
550.3623046875
 20
211.41878906249912
 10
551.2125000000001
 20
209.5724999999992
 10
551.8798828125
 20
207.65589843749922
 10
552.3609375000002
 20
205.68656249999918
 10
552.6521484375003
 20
203.68207031249912
 10
552.7500000000002
 20
201.65999999999894
 10
552.7500000000002
 20
51.05999999999949
 10
552.6521484375003
 20
48.951796874999275
 10
552.3609375000002
 20
46.90687499999916
 10
551.8798828125
 20
44.932265624999104
 10
551.2125000000001
 20
43.03499999999906
 10
550.3623046875
 20
41.222109374999036
 10
549.3328125
 20
39.50062499999899
 10
548.1275390625001
 20
37.877578124998934
 10
546.7500000000002
 20
36.35999999999876
 10
545.1333984375001
 20
34.96957031249892
 10
543.4359375000001
 20
33.730312499999
 10
541.6611328125
 20
32.65277343749912
 10
539.8125
 20
31.747499999999263
 10
537.8935546875
 20
31.02503906249939
 10
535.9078125000001
 20
30.495937499999457
 10
533.8587890625001
 20
30.170742187499457
 10
531.7500000000002
 20
30.05999999999949
 10
82.95000000000005
 20
30.05999999999949
 10
80.17089843750004
 20
30.24046874999945
 10
77.47968750000007
 20
30.77249999999941
 10
74.90800781250007
 20
31.642031249999434
 10
72.4875000000001
 20
32.834999999999354
 10
70.2498046875001
 20
34.33734374999932
 10
68.2265625000001
 20
36.13499999999934
 10
66.4494140625001
 20
38.21390624999938
 10
64.95000000000005
 20
40.55999999999949
 10
18.450000000000045
 20
120.95999999999913
 10
17.760937500000075
 20
122.22328124999916
 10
17.268750000000097
 20
123.52874999999918
 10
16.97343750000011
 20
124.86234374999916
 10
16.875000000000114
 20
126.20999999999913
 10
16.97343750000011
 20
127.5576562499991
 10
17.268750000000097
 20
128.89124999999908
 10
17.760937500000075
 20
130.1967187499991
 10
18.450000000000045
 20
131.45999999999913
 10
64.95000000000005
 20
211.85999999999876
 10
66.44941406250008
 20
214.20609374999887
 10
68.2265625000001
 20
216.28499999999892
 10
70.2498046875001
 20
218.08265624999893
 10
72.4875000000001
 20
219.5849999999989
 10
74.90800781250007
 20
220.77796874999885
 10
77.47968750000007
 20
221.64749999999881
 10
80.17089843750006
 20
222.17953124999877
 10
82.95000000000005
 20
222.35999999999876
  0
ENDSEC
  0
SECTION
  2
OBJECTS
  0
DICTIONARY
  5
A
330
0
100
AcDbDictionary
281
1
  3
ACAD_COLOR
350
B
  3
ACAD_GROUP
350
C
  3
ACAD_LAYOUT
350
D
  3
ACAD_MATERIAL
350
E
  3
ACAD_MLEADERSTYLE
350
F
  3
ACAD_MLINESTYLE
350
10
  3
ACAD_PLOTSETTINGS
350
11
  3
ACAD_PLOTSTYLENAME
350
12
  3
ACAD_SCALELIST
350
14
  3
ACAD_TABLESTYLE
350
15
  3
ACAD_VISUALSTYLE
350
16
  3
EZDXF_META
350
2D
  0
DICTIONARY
  5
B
330
A
100
AcDbDictionary
281
1
  0
DICTIONARY
  5
C
330
A
100
AcDbDictionary
281
1
  0
DICTIONARY
  5
D
330
A
100
AcDbDictionary
281
1
  3
Model
350
1A
  3
Layout1
350
1E
  0
DICTIONARY
  5
E
330
A
100
AcDbDictionary
281
1
  3
ByBlock
350
1F
  3
ByLayer
350
20
  3
Global
350
21
  0
DICTIONARY
  5
F
330
A
100
AcDbDictionary
281
1
  3
Standard
350
2C
  0
DICTIONARY
  5
10
330
A
100
AcDbDictionary
281
1
  3
Standard
350
22
  0
DICTIONARY
  5
11
330
A
100
AcDbDictionary
281
1
  0
ACDBDICTIONARYWDFLT
  5
12
330
A
100
AcDbDictionary
281
1
  3
Normal
350
13
100
AcDbDictionaryWithDefault
340
13
  0
ACDBPLACEHOLDER
  5
13
330
12
  0
DICTIONARY
  5
14
330
A
100
AcDbDictionary
281
1
  0
DICTIONARY
  5
15
330
A
100
AcDbDictionary
281
1
  0
DICTIONARY
  5
16
330
A
100
AcDbDictionary
281
1
  0
LAYOUT
  5
1A
330
D
100
AcDbPlotSettings
  1

  4
A3
  6

 40
7.5
 41
20.0
 42
7.5
 43
20.0
 44
420.0
 45
297.0
 46
0.0
 47
0.0
 48
0.0
 49
0.0
140
0.0
141
0.0
142
1.0
143
1.0
 70
1024
 72
1
 73
0
 74
5
  7

 75
16
 76
0
 77
2
 78
300
147
1.0
148
0.0
149
0.0
100
AcDbLayout
  1
Model
 70
1
 71
0
 10
0.0
 20
0.0
 11
420.0
 21
297.0
 12
0.0
 22
0.0
 32
0.0
 14
1e+20
 24
1e+20
 34
1e+20
 15
-1e+20
 25
-1e+20
 35
-1e+20
146
0.0
 13
0.0
 23
0.0
 33
0.0
 16
1.0
 26
0.0
 36
0.0
 17
0.0
 27
1.0
 37
0.0
 76
1
330
17
  0
LAYOUT
  5
1E
330
D
100
AcDbPlotSettings
  1

  4
A3
  6

 40
7.5
 41
20.0
 42
7.5
 43
20.0
 44
420.0
 45
297.0
 46
0.0
 47
0.0
 48
0.0
 49
0.0
140
0.0
141
0.0
142
1.0
143
1.0
 70
0
 72
1
 73
0
 74
5
  7

 75
16
 76
0
 77
2
 78
300
147
1.0
148
0.0
149
0.0
100
AcDbLayout
  1
Layout1
 70
1
 71
1
 10
0.0
 20
0.0
 11
420.0
 21
297.0
 12
0.0
 22
0.0
 32
0.0
 14
1e+20
 24
1e+20
 34
1e+20
 15
-1e+20
 25
-1e+20
 35
-1e+20
146
0.0
 13
0.0
 23
0.0
 33
0.0
 16
1.0
 26
0.0
 36
0.0
 17
0.0
 27
1.0
 37
0.0
 76
1
330
1B
  0
MATERIAL
  5
1F
102
{ACAD_REACTORS
330
E
102
}
330
E
100
AcDbMaterial
  1
ByBlock
  2

 70
0
 40
1.0
 71
1
 41
1.0
 91
-1023410177
 42
1.0
 72
1
  3

 73
1
 74
1
 75
1
 44
0.5
 73
0
 45
1.0
 46
1.0
 77
1
  4

 78
1
 79
1
170
1
 48
1.0
171
1
  6

172
1
173
1
174
1
140
1.0
141
1.0
175
1
  7

176
1
177
1
178
1
143
1.0
179
1
  8

270
1
271
1
272
1
145
1.0
146
1.0
273
1
  9

274
1
275
1
276
1
 42
1.0
 72
1
  3

 73
1
 74
1
 75
1
 94
63
  0
MATERIAL
  5
20
102
{ACAD_REACTORS
330
E
102
}
330
E
100
AcDbMaterial
  1
ByLayer
  2

 70
0
 40
1.0
 71
1
 41
1.0
 91
-1023410177
 42
1.0
 72
1
  3

 73
1
 74
1
 75
1
 44
0.5
 73
0
 45
1.0
 46
1.0
 77
1
  4

 78
1
 79
1
170
1
 48
1.0
171
1
  6

172
1
173
1
174
1
140
1.0
141
1.0
175
1
  7

176
1
177
1
178
1
143
1.0
179
1
  8

270
1
271
1
272
1
145
1.0
146
1.0
273
1
  9

274
1
275
1
276
1
 42
1.0
 72
1
  3

 73
1
 74
1
 75
1
 94
63
  0
MATERIAL
  5
21
102
{ACAD_REACTORS
330
E
102
}
330
E
100
AcDbMaterial
  1
Global
  2

 70
0
 40
1.0
 71
1
 41
1.0
 91
-1023410177
 42
1.0
 72
1
  3

 73
1
 74
1
 75
1
 44
0.5
 73
0
 45
1.0
 46
1.0
 77
1
  4

 78
1
 79
1
170
1
 48
1.0
171
1
  6

172
1
173
1
174
1
140
1.0
141
1.0
175
1
  7

176
1
177
1
178
1
143
1.0
179
1
  8

270
1
271
1
272
1
145
1.0
146
1.0
273
1
  9

274
1
275
1
276
1
 42
1.0
 72
1
  3

 73
1
 74
1
 75
1
 94
63
  0
MLINESTYLE
  5
22
102
{ACAD_REACTORS
330
10
102
}
330
10
100
AcDbMlineStyle
  2
Standard
 70
0
  3

 62
256
 51
90.0
 52
90.0
 71
2
 49
0.5
 62
256
  6
BYLAYER
 49
-0.5
 62
256
  6
BYLAYER
  0
MLEADERSTYLE
  5
2C
102
{ACAD_REACTORS
330
F
102
}
330
F
100
AcDbMLeaderStyle
179
2
170
2
171
1
172
0
 90
2
 40
0.0
 41
0.0
173
1
 91
-1056964608
 92
-2
290
1
 42
2.0
291
1
 43
8.0
  3
Standard
 44
4.0
300

342
29
174
1
175
1
176
0
178
1
 93
-1056964608
 45
4.0
292
0
297
0
 46
4.0
 94
-1056964608
 47
1.0
 49
1.0
140
1.0
294
1
141
0.0
177
0
142
1.0
295
0
296
0
143
3.75
271
0
272
9
273
9
  0
DICTIONARY
  5
2D
330
A
100
AcDbDictionary
280
1
281
1
  3
CREATED_BY_EZDXF
350
2E
  3
WRITTEN_BY_EZDXF
350
72
  0
DICTIONARYVAR
  5
2E
330
2D
100
DictionaryVariables
280
0
  1
1.4.4 @ 2026-07-10T01:54:02.160817+00:00
  0
DICTIONARYVAR
  5
72
330
2D
100
DictionaryVariables
280
0
  1
1.4.4 @ 2026-07-10T01:54:02.172363+00:00
  0
ENDSEC
  0
EOF
