  0
SECTION
  2
HEADER
  9
$ACADVER
  1
AC1024
  9
$ACADMAINTVER
 70
6
  9
$DWGCODEPAGE
  3
ANSI_1252
  9
$LASTSAVEDBY
  1
ezdxf
  9
$INSBASE
 10
0.0
 20
0.0
 30
0.0
  9
$EXTMIN
 10
1e+20
 20
1e+20
 30
1e+20
  9
$EXTMAX
 10
-1e+20
 20
-1e+20
 30
-1e+20
  9
$LIMMIN
 10
0.0
 20
0.0
  9
$LIMMAX
 10
420.0
 20
297.0
  9
$ORTHOMODE
 70
0
  9
$REGENMODE
 70
1
  9
$FILLMODE
 70
1
  9
$QTEXTMODE
 70
0
  9
$MIRRTEXT
 70
1
  9
$LTSCALE
 40
1.0
  9
$ATTMODE
 70
1
  9
$TEXTSIZE
 40
2.5
  9
$TRACEWID
 40
1.0
  9
$TEXTSTYLE
  7
Standard
  9
$CLAYER
  8
0
  9
$CELTYPE
  6
ByLayer
  9
$CECOLOR
 62
256
  9
$CELTSCALE
 40
1.0
  9
$DISPSILH
 70
0
  9
$DIMSCALE
 40
1.0
  9
$DIMASZ
 40
2.5
  9
$DIMEXO
 40
0.625
  9
$DIMDLI
 40
3.75
  9
$DIMRND
 40
0.0
  9
$DIMDLE
 40
0.0
  9
$DIMEXE
 40
1.25
  9
$DIMTP
 40
0.0
  9
$DIMTM
 40
0.0
  9
$DIMTXT
 40
2.5
  9
$DIMCEN
 40
2.5
  9
$DIMTSZ
 40
0.0
  9
$DIMTOL
 70
0
  9
$DIMLIM
 70
0
  9
$DIMTIH
 70
0
  9
$DIMTOH
 70
0
  9
$DIMSE1
 70
0
  9
$DIMSE2
 70
0
  9
$DIMTAD
 70
1
  9
$DIMZIN
 70
8
  9
$DIMBLK
  1

  9
$DIMASO
 70
1
  9
$DIMSHO
 70
1
  9
$DIMPOST
  1

  9
$DIMAPOST
  1

  9
$DIMALT
 70
0
  9
$DIMALTD
 70
3
  9
$DIMALTF
 40
0.03937007874
  9
$DIMLFAC
 40
1.0
  9
$DIMTOFL
 70
1
  9
$DIMTVP
 40
0.0
  9
$DIMTIX
 70
0
  9
$DIMSOXD
 70
0
  9
$DIMSAH
 70
0
  9
$DIMBLK1
  1

  9
$DIMBLK2
  1

  9
$DIMSTYLE
  2
ISO-25
  9
$DIMCLRD
 70
0
  9
$DIMCLRE
 70
0
  9
$DIMCLRT
 70
0
  9
$DIMTFAC
 40
1.0
  9
$DIMGAP
 40
0.625
  9
$DIMJUST
 70
0
  9
$DIMSD1
 70
0
  9
$DIMSD2
 70
0
  9
$DIMTOLJ
 70
0
  9
$DIMTZIN
 70
8
  9
$DIMALTZ
 70
0
  9
$DIMALTTZ
 70
0
  9
$DIMUPT
 70
0
  9
$DIMDEC
 70
2
  9
$DIMTDEC
 70
2
  9
$DIMALTU
 70
2
  9
$DIMALTTD
 70
3
  9
$DIMTXSTY
  7
Standard
  9
$DIMAUNIT
 70
0
  9
$DIMADEC
 70
0
  9
$DIMALTRND
 40
0.0
  9
$DIMAZIN
 70
0
  9
$DIMDSEP
 70
44
  9
$DIMATFIT
 70
3
  9
$DIMFRAC
 70
0
  9
$DIMLDRBLK
  1

  9
$DIMLUNIT
 70
2
  9
$DIMLWD
 70
-2
  9
$DIMLWE
 70
-2
  9
$DIMTMOVE
 70
0
  9
$DIMFXL
 40
1.0
  9
$DIMFXLON
 70
0
  9
$DIMJOGANG
 40
0.785398163397
  9
$DIMTFILL
 70
0
  9
$DIMTFILLCLR
 70
0
  9
$DIMARCSYM
 70
0
  9
$DIMLTYPE
  6

  9
$DIMLTEX1
  6

  9
$DIMLTEX2
  6

  9
$DIMTXTDIRECTION
 70
0
  9
$LUNITS
 70
2
  9
$LUPREC
 70
4
  9
$SKETCHINC
 40
1.0
  9
$FILLETRAD
 40
10.0
  9
$AUNITS
 70
0
  9
$AUPREC
 70
2
  9
$MENU
  1
.
  9
$ELEVATION
 40
0.0
  9
$PELEVATION
 40
0.0
  9
$THICKNESS
 40
0.0
  9
$LIMCHECK
 70
0
  9
$CHAMFERA
 40
0.0
  9
$CHAMFERB
 40
0.0
  9
$CHAMFERC
 40
0.0
  9
$CHAMFERD
 40
0.0
  9
$SKPOLY
 70
0
  9
$TDCREATE
 40
2461232.412523148
  9
$TDUCREATE
 40
2458532.153996898
  9
$TDUPDATE
 40
2461232.412523148
  9
$TDUUPDATE
 40
2458532.1544311
  9
$TDINDWG
 40
0.0
  9
$TDUSRTIMER
 40
0.0
  9
$USRTIMER
 70
1
  9
$ANGBASE
 50
0.0
  9
$ANGDIR
 70
0
  9
$PDMODE
 70
0
  9
$PDSIZE
 40
0.0
  9
$PLINEWID
 40
0.0
  9
$SPLFRAME
 70
0
  9
$SPLINETYPE
 70
6
  9
$SPLINESEGS
 70
8
  9
$HANDSEED
  5
40
  9
$SURFTAB1
 70
6
  9
$SURFTAB2
 70
6
  9
$SURFTYPE
 70
6
  9
$SURFU
 70
6
  9
$SURFV
 70
6
  9
$UCSBASE
  2

  9
$UCSNAME
  2

  9
$UCSORG
 10
0.0
 20
0.0
 30
0.0
  9
$UCSXDIR
 10
1.0
 20
0.0
 30
0.0
  9
$UCSYDIR
 10
0.0
 20
1.0
 30
0.0
  9
$UCSORTHOREF
  2

  9
$UCSORTHOVIEW
 70
0
  9
$UCSORGTOP
 10
0.0
 20
0.0
 30
0.0
  9
$UCSORGBOTTOM
 10
0.0
 20
0.0
 30
0.0
  9
$UCSORGLEFT
 10
0.0
 20
0.0
 30
0.0
  9
$UCSORGRIGHT
 10
0.0
 20
0.0
 30
0.0
  9
$UCSORGFRONT
 10
0.0
 20
0.0
 30
0.0
  9
$UCSORGBACK
 10
0.0
 20
0.0
 30
0.0
  9
$PUCSBASE
  2

  9
$PUCSNAME
  2

  9
$PUCSORG
 10
0.0
 20
0.0
 30
0.0
  9
$PUCSXDIR
 10
1.0
 20
0.0
 30
0.0
  9
$PUCSYDIR
 10
0.0
 20
1.0
 30
0.0
  9
$PUCSORTHOREF
  2

  9
$PUCSORTHOVIEW
 70
0
  9
$PUCSORGTOP
 10
0.0
 20
0.0
 30
0.0
  9
$PUCSORGBOTTOM
 10
0.0
 20
0.0
 30
0.0
  9
$PUCSORGLEFT
 10
0.0
 20
0.0
 30
0.0
  9
$PUCSORGRIGHT
 10
0.0
 20
0.0
 30
0.0
  9
$PUCSORGFRONT
 10
0.0
 20
0.0
 30
0.0
  9
$PUCSORGBACK
 10
0.0
 20
0.0
 30
0.0
  9
$USERI1
 70
0
  9
$USERI2
 70
0
  9
$USERI3
 70
0
  9
$USERI4
 70
0
  9
$USERI5
 70
0
  9
$USERR1
 40
0.0
  9
$USERR2
 40
0.0
  9
$USERR3
 40
0.0
  9
$USERR4
 40
0.0
  9
$USERR5
 40
0.0
  9
$WORLDVIEW
 70
1
  9
$SHADEDGE
 70
3
  9
$SHADEDIF
 70
70
  9
$TILEMODE
 70
1
  9
$MAXACTVP
 70
64
  9
$PINSBASE
 10
0.0
 20
0.0
 30
0.0
  9
$PLIMCHECK
 70
0
  9
$PEXTMIN
 10
1e+20
 20
1e+20
 30
1e+20
  9
$PEXTMAX
 10
-1e+20
 20
-1e+20
 30
-1e+20
  9
$PLIMMIN
 10
0.0
 20
0.0
  9
$PLIMMAX
 10
420.0
 20
297.0
  9
$UNITMODE
 70
0
  9
$VISRETAIN
 70
1
  9
$PLINEGEN
 70
0
  9
$PSLTSCALE
 70
1
  9
$TREEDEPTH
 70
3020
  9
$CMLSTYLE
  2
Standard
  9
$CMLJUST
 70
0
  9
$CMLSCALE
 40
20.0
  9
$PROXYGRAPHICS
 70
1
  9
$MEASUREMENT
 70
1
  9
$CELWEIGHT
370
-1
  9
$ENDCAPS
280
0
  9
$JOINSTYLE
280
0
  9
$LWDISPLAY
290
0
  9
$INSUNITS
 70
6
  9
$HYPERLINKBASE
  1

  9
$STYLESHEET
  1

  9
$XEDIT
290
1
  9
$CEPSNTYPE
380
0
  9
$PSTYLEMODE
290
1
  9
$FINGERPRINTGUID
  2
{FC561C6D-54DE-487E-BC6F-EDE4292F4FC5}
  9
$VERSIONGUID
  2
{8C5B6B27-285A-43DC-AB37-7C75AF5D07C6}
  9
$EXTNAMES
290
1
  9
$PSVPSCALE
 40
0.0
  9
$OLESTARTUP
290
0
  9
$SORTENTS
280
127
  9
$INDEXCTL
280
0
  9
$HIDETEXT
280
1
  9
$XCLIPFRAME
280
1
  9
$HALOGAP
280
0
  9
$OBSCOLOR
 70
257
  9
$OBSLTYPE
280
0
  9
$INTERSECTIONDISPLAY
280
0
  9
$INTERSECTIONCOLOR
 70
257
  9
$DIMASSOC
280
2
  9
$PROJECTNAME
  1

  9
$CAMERADISPLAY
290
0
  9
$LENSLENGTH
 40
50.0
  9
$CAMERAHEIGHT
 40
0.0
  9
$STEPSPERSEC
 40
24.0
  9
$STEPSIZE
 40
100.0
  9
$3DDWFPREC
 40
2.0
  9
$PSOLWIDTH
 40
0.005
  9
$PSOLHEIGHT
 40
0.08
  9
$LOFTANG1
 40
1.570796326795
  9
$LOFTANG2
 40
1.570796326795
  9
$LOFTMAG1
 40
0.0
  9
$LOFTMAG2
 40
0.0
  9
$LOFTPARAM
 70
7
  9
$LOFTNORMALS
280
1
  9
$LATITUDE
 40
37.795
  9
$LONGITUDE
 40
-122.394
  9
$NORTHDIRECTION
 40
0.0
  9
$TIMEZONE
 70
-8000
  9
$LIGHTGLYPHDISPLAY
280
1
  9
$TILEMODELIGHTSYNCH
280
1
  9
$CMATERIAL
347
20
  9
$SOLIDHIST
280
0
  9
$SHOWHIST
280
1
  9
$DWFFRAME
280
2
  9
$DGNFRAME
280
2
  9
$REALWORLDSCALE
290
1
  9
$INTERFERECOLOR
 62
256
  9
$CSHADOW
280
0
  9
$SHADOWPLANELOCATION
 40
0.0
  0
ENDSEC
  0
SECTION
  2
CLASSES
  0
CLASS
  1
ACDBDICTIONARYWDFLT
  2
AcDbDictionaryWithDefault
  3
ObjectDBX Classes
 90
0
 91
0
280
0
281
0
  0
CLASS
  1
SUN
  2
AcDbSun
  3
SCENEOE
 90
1153
 91
0
280
0
281
0
  0
CLASS
  1
VISUALSTYLE
  2
AcDbVisualStyle
  3
ObjectDBX Classes
 90
4095
 91
0
280
0
281
0
  0
CLASS
  1
MATERIAL
  2
AcDbMaterial
  3
ObjectDBX Classes
 90
1153
 91
0
280
0
281
0
  0
CLASS
  1
SCALE
  2
AcDbScale
  3
ObjectDBX Classes
 90
1153
 91
0
280
0
281
0
  0
CLASS
  1
TABLESTYLE
  2
AcDbTableStyle
  3
ObjectDBX Classes
 90
4095
 91
0
280
0
281
0
  0
CLASS
  1
MLEADERSTYLE
  2
AcDbMLeaderStyle
  3
ACDB_MLEADERSTYLE_CLASS
 90
4095
 91
0
280
0
281
0
  0
CLASS
  1
DICTIONARYVAR
  2
AcDbDictionaryVar
  3
ObjectDBX Classes
 90
0
 91
0
280
0
281
0
  0
CLASS
  1
CELLSTYLEMAP
  2
AcDbCellStyleMap
  3
ObjectDBX Classes
 90
1152
 91
0
280
0
281
0
  0
CLASS
  1
MENTALRAYRENDERSETTINGS
  2
AcDbMentalRayRenderSettings
  3
SCENEOE
 90
1024
 91
0
280
0
281
0
  0
CLASS
  1
ACDBDETAILVIEWSTYLE
  2
AcDbDetailViewStyle
  3
ObjectDBX Classes
 90
1025
 91
0
280
0
281
0
  0
CLASS
  1
ACDBSECTIONVIEWSTYLE
  2
AcDbSectionViewStyle
  3
ObjectDBX Classes
 90
1025
 91
0
280
0
281
0
  0
CLASS
  1
RASTERVARIABLES
  2
AcDbRasterVariables
  3
ISM
 90
0
 91
0
280
0
281
0
  0
CLASS
  1
LAYOUT
  2
AcDbLayout
  3
ObjectDBX Classes
 90
0
 91
0
280
0
281
0
  0
CLASS
  1
ACDBPLACEHOLDER
  2
AcDbPlaceHolder
  3
ObjectDBX Classes
 90
0
 91
0
280
0
281
0
  0
ENDSEC
  0
SECTION
  2
TABLES
  0
TABLE
  2
VPORT
  5
8
330
0
100
AcDbSymbolTable
 70
1
  0
VPORT
  5
23
330
8
100
AcDbSymbolTableRecord
100
AcDbViewportTableRecord
  2
*Active
 70
0
 10
0.0
 20
0.0
 11
1.0
 21
1.0
 12
0.0
 22
0.0
 13
0.0
 23
0.0
 14
0.5
 24
0.5
 15
0.5
 25
0.5
 16
0.0
 26
0.0
 36
1.0
 17
0.0
 27
0.0
 37
0.0
 40
1000.0
 41
1.34
 42
50.0
 43
0.0
 44
0.0
 50
0.0
 51
0.0
 71
0
 72
1000
 73
1
 74
3
 75
0
 76
0
 77
0
 78
0
281
0
 65
0
146
0.0
  0
ENDTAB
  0
TABLE
  2
LTYPE
  5
2
330
0
100
AcDbSymbolTable
 70
3
  0
LTYPE
  5
24
330
2
100
AcDbSymbolTableRecord
100
AcDbLinetypeTableRecord
  2
ByBlock
 70
0
  3

 72
65
 73
0
 40
0.0
  0
LTYPE
  5
25
330
2
100
AcDbSymbolTableRecord
100
AcDbLinetypeTableRecord
  2
ByLayer
 70
0
  3

 72
65
 73
0
 40
0.0
  0
LTYPE
  5
26
330
2
100
AcDbSymbolTableRecord
100
AcDbLinetypeTableRecord
  2
Continuous
 70
0
  3

 72
65
 73
0
 40
0.0
  0
ENDTAB
  0
TABLE
  2
LAYER
  5
1
330
0
100
AcDbSymbolTable
 70
5
  0
LAYER
  5
27
330
1
100
AcDbSymbolTableRecord
100
AcDbLayerTableRecord
  2
0
 70
0
 62
7
  6
Continuous
370
-3
390
13
347
21
  0
LAYER
  5
28
330
1
100
AcDbSymbolTableRecord
100
AcDbLayerTableRecord
  2
Defpoints
 70
0
 62
7
  6
Continuous
290
0
370
-3
390
13
347
21
  0
LAYER
  5
2F
330
1
100
AcDbSymbolTableRecord
100
AcDbLayerTableRecord
  2
FILL_WHITE_FFFFFF
 70
0
 62
7
420
16777215
  6
Continuous
370
-3
390
13
347
21
  0
LAYER
  5
32
330
1
100
AcDbSymbolTableRecord
100
AcDbLayerTableRecord
  2
FILL_BLUE_0000FF
 70
0
 62
7
420
255
  6
Continuous
370
-3
390
13
347
21
  0
LAYER
  5
3B
330
1
100
AcDbSymbolTableRecord
100
AcDbLayerTableRecord
  2
STROKE_BLUE_0000FF
 70
0
 62
7
420
255
  6
Continuous
370
-3
390
13
347
21
  0
ENDTAB
  0
TABLE
  2
STYLE
  5
5
330
0
100
AcDbSymbolTable
 70
1
  0
STYLE
  5
29
330
5
100
AcDbSymbolTableRecord
100
AcDbTextStyleTableRecord
  2
Standard
 70
0
 40
0.0
 41
1.0
 50
0.0
 71
0
 42
2.5
  3
txt
  4

  0
ENDTAB
  0
TABLE
  2
VIEW
  5
7
330
0
100
AcDbSymbolTable
 70
0
  0
ENDTAB
  0
TABLE
  2
UCS
  5
6
330
0
100
AcDbSymbolTable
 70
0
  0
ENDTAB
  0
TABLE
  2
APPID
  5
3
330
0
100
AcDbSymbolTable
 70
3
  0
APPID
  5
2A
330
3
100
AcDbSymbolTableRecord
100
AcDbRegAppTableRecord
  2
ACAD
 70
0
  0
APPID
  5
3D
330
3
100
AcDbSymbolTableRecord
100
AcDbRegAppTableRecord
  2
HATCHBACKGROUNDCOLOR
 70
0
  0
APPID
  5
3E
330
3
100
AcDbSymbolTableRecord
100
AcDbRegAppTableRecord
  2
EZDXF
 70
0
  0
ENDTAB
  0
TABLE
  2
DIMSTYLE
  5
4
330
0
100
AcDbSymbolTable
 70
1
100
AcDbDimStyleTable
  0
DIMSTYLE
105
2B
330
4
100
AcDbSymbolTableRecord
100
AcDbDimStyleTableRecord
  2
Standard
 70
0
 40
1.0
 41
2.5
 42
0.625
 43
3.75
 44
1.25
 45
0.0
 46
0.0
 47
0.0
 48
0.0
 49
2.5
140
2.5
141
2.5
142
0.0
143
0.03937007874
144
1.0
145
0.0
146
1.0
147
0.625
148
0.0
 69
0
 70
0
 71
0
 72
0
 73
0
 74
0
 75
0
 76
0
 77
1
 78
8
 79
3
170
0
171
3
172
1
173
0
174
0
175
0
176
0
177
0
178
0
179
2
271
2
272
2
273
2
274
3
275
0
276
0
277
2
278
44
279
0
280
0
281
0
282
0
283
0
284
8
285
0
286
0
288
0
289
3
290
0
371
-2
372
-2
  0
ENDTAB
  0
TABLE
  2
BLOCK_RECORD
  5
9
330
0
100
AcDbSymbolTable
 70
2
  0
BLOCK_RECORD
  5
17
330
9
100
AcDbSymbolTableRecord
100
AcDbBlockTableRecord
  2
*Model_Space
340
1A
 70
0
280
1
281
0
  0
BLOCK_RECORD
  5
1B
330
9
100
AcDbSymbolTableRecord
100
AcDbBlockTableRecord
  2
*Paper_Space
340
1E
 70
0
280
1
281
0
  0
ENDTAB
  0
ENDSEC
  0
SECTION
  2
BLOCKS
  0
BLOCK
  5
18
330
17
100
AcDbEntity
  8
0
100
AcDbBlockBegin
  2
*Model_Space
 70
0
 10
0.0
 20
0.0
 30
0.0
  3
*Model_Space
  1

  0
ENDBLK
  5
19
330
17
100
AcDbEntity
  8
0
100
AcDbBlockEnd
  0
BLOCK
  5
1C
330
1B
100
AcDbEntity
  8
0
100
AcDbBlockBegin
  2
*Paper_Space
 70
0
 10
0.0
 20
0.0
 30
0.0
  3
*Paper_Space
  1

  0
ENDBLK
  5
1D
330
1B
100
AcDbEntity
  8
0
100
AcDbBlockEnd
  0
ENDSEC
  0
SECTION
  2
ENTITIES
  0
HATCH
  5
30
330
17
100
AcDbEntity
  8
FILL_WHITE_FFFFFF
 62
7
420
16777215
100
AcDbHatch
 10
0.0
 20
0.0
 30
0.0
210
0.0
220
0.0
230
1.0
  2
SOLID
 70
1
 71
0
 91
1
 92
3
 72
0
 73
1
 93
78
 10
351.45
 20
264.3
 10
353.47
 20
264.24
 10
355.5
 20
264.07
 10
357.51
 20
263.76
 10
359.51
 20
263.33
 10
361.5
 20
262.75
 10
363.47
 20
262.02
 10
365.42
 20
261.14
 10
367.35
 20
260.1
 10
369.21
 20
258.93
 10
370.95
 20
257.68
 10
372.58
 20
256.35
 10
374.1
 20
254.93
 10
375.51
 20
253.42
 10
376.8
 20
251.83
 10
377.98
 20
250.16
 10
379.05
 20
248.4
 10
437.55
 20
147.3
 10
438.38
 20
145.44
 10
439.05
 20
143.47
 10
439.49
 20
141.39
 10
439.65
 20
139.2
 10
439.49
 20
137.18
 10
439.05
 20
135.19
 10
438.38
 20
133.25
 10
437.55
 20
131.4
 10
379.05
 20
30.0
 10
377.98
 20
28.33
 10
376.8
 20
26.7
 10
375.51
 20
25.13
 10
374.1
 20
23.63
 10
372.58
 20
22.21
 10
370.95
 20
20.89
 10
369.21
 20
19.68
 10
367.35
 20
18.6
 10
365.42
 20
17.56
 10
363.47
 20
16.68
 10
361.5
 20
15.95
 10
359.51
 20
15.37
 10
357.51
 20
14.94
 10
355.5
 20
14.63
 10
353.47
 20
14.46
 10
351.45
 20
14.4
 10
158.55
 20
14.4
 10
155.79
 20
14.52
 10
152.92
 20
14.89
 10
149.94
 20
15.54
 10
146.85
 20
16.5
 10
143.99
 20
17.79
 10
141.26
 20
19.42
 10
138.71
 20
21.39
 10
136.35
 20
23.7
 10
134.04
 20
26.06
 10
132.07
 20
28.61
 10
130.44
 20
31.34
 10
129.15
 20
34.2
 10
128.19
 20
37.17
 10
127.54
 20
40.16
 10
127.17
 20
43.1
 10
127.05
 20
45.9
 10
127.05
 20
232.8
 10
127.17
 20
235.56
 10
127.54
 20
238.42
 10
128.19
 20
241.41
 10
129.15
 20
244.5
 10
130.44
 20
247.36
 10
132.07
 20
250.09
 10
134.04
 20
252.64
 10
136.35
 20
255.0
 10
138.71
 20
257.31
 10
141.26
 20
259.27
 10
143.99
 20
260.91
 10
146.85
 20
262.2
 10
149.94
 20
263.16
 10
152.92
 20
263.81
 10
155.79
 20
264.18
 10
158.55
 20
264.3
 10
351.45
 20
264.3
 97
0
 75
1
 76
1
 98
0
  0
LWPOLYLINE
  5
31
330
17
100
AcDbEntity
  8
FILL_WHITE_FFFFFF
370
0
420
16777215
100
AcDbPolyline
 90
77
 70
1
 10
351.45
 20
264.3
 10
353.47
 20
264.24
 10
355.5
 20
264.07
 10
357.51
 20
263.76
 10
359.51
 20
263.33
 10
361.5
 20
262.75
 10
363.47
 20
262.02
 10
365.42
 20
261.14
 10
367.35
 20
260.1
 10
369.21
 20
258.93
 10
370.95
 20
257.68
 10
372.58
 20
256.35
 10
374.1
 20
254.93
 10
375.51
 20
253.42
 10
376.8
 20
251.83
 10
377.98
 20
250.16
 10
379.05
 20
248.4
 10
437.55
 20
147.3
 10
438.38
 20
145.44
 10
439.05
 20
143.47
 10
439.49
 20
141.39
 10
439.65
 20
139.2
 10
439.49
 20
137.18
 10
439.05
 20
135.19
 10
438.38
 20
133.25
 10
437.55
 20
131.4
 10
379.05
 20
30.0
 10
377.98
 20
28.33
 10
376.8
 20
26.7
 10
375.51
 20
25.13
 10
374.1
 20
23.63
 10
372.58
 20
22.21
 10
370.95
 20
20.89
 10
369.21
 20
19.68
 10
367.35
 20
18.6
 10
365.42
 20
17.56
 10
363.47
 20
16.68
 10
361.5
 20
15.95
 10
359.51
 20
15.37
 10
357.51
 20
14.94
 10
355.5
 20
14.63
 10
353.47
 20
14.46
 10
351.45
 20
14.4
 10
158.55
 20
14.4
 10
155.79
 20
14.52
 10
152.92
 20
14.89
 10
149.94
 20
15.54
 10
146.85
 20
16.5
 10
143.99
 20
17.79
 10
141.26
 20
19.42
 10
138.71
 20
21.39
 10
136.35
 20
23.7
 10
134.04
 20
26.06
 10
132.07
 20
28.61
 10
130.44
 20
31.34
 10
129.15
 20
34.2
 10
128.19
 20
37.17
 10
127.54
 20
40.16
 10
127.17
 20
43.1
 10
127.05
 20
45.9
 10
127.05
 20
232.8
 10
127.17
 20
235.56
 10
127.54
 20
238.42
 10
128.19
 20
241.41
 10
129.15
 20
244.5
 10
130.44
 20
247.36
 10
132.07
 20
250.09
 10
134.04
 20
252.64
 10
136.35
 20
255.0
 10
138.71
 20
257.31
 10
141.26
 20
259.27
 10
143.99
 20
260.91
 10
146.85
 20
262.2
 10
149.94
 20
263.16
 10
152.92
 20
263.81
 10
155.79
 20
264.18
 10
158.55
 20
264.3
  0
HATCH
  5
33
330
17
100
AcDbEntity
  8
FILL_BLUE_0000FF
 62
7
420
255
100
AcDbHatch
 10
0.0
 20
0.0
 30
0.0
210
0.0
220
0.0
230
1.0
  2
SOLID
 70
1
 71
0
 91
1
 92
3
 72
0
 73
1
 93
51
 10
157.15
 20
30.1
 10
155.7
 20
30.37
 10
152.85
 20
31.2
 10
151.33
 20
31.93
 10
149.92
 20
32.78
 10
148.63
 20
33.73
 10
147.45
 20
34.8
 10
146.38
 20
35.98
 10
145.42
 20
37.27
 10
144.58
 20
38.68
 10
143.85
 20
40.2
 10
143.02
 20
43.05
 10
142.75
 20
44.5
 10
142.65
 20
45.9
 10
142.65
 20
232.8
 10
142.75
 20
234.2
 10
143.02
 20
235.65
 10
143.85
 20
238.5
 10
144.58
 20
240.02
 10
145.42
 20
241.42
 10
146.38
 20
242.72
 10
147.45
 20
243.9
 10
148.63
 20
244.97
 10
149.92
 20
245.92
 10
151.33
 20
246.77
 10
152.85
 20
247.5
 10
154.25
 20
247.89
 10
155.7
 20
248.18
 10
157.15
 20
248.34
 10
158.55
 20
248.4
 10
351.45
 20
248.4
 10
353.47
 20
248.28
 10
355.5
 20
247.91
 10
357.52
 20
247.26
 10
359.55
 20
246.3
 10
361.28
 20
245.24
 10
362.85
 20
243.9
 10
364.19
 20
242.33
 10
365.25
 20
240.6
 10
423.75
 20
139.2
 10
365.25
 20
38.1
 10
364.19
 20
36.36
 10
362.85
 20
34.76
 10
361.28
 20
33.33
 10
359.55
 20
32.1
 10
357.52
 20
31.27
 10
355.5
 20
30.6
 10
353.47
 20
30.16
 10
351.45
 20
30.0
 10
158.55
 20
30.0
 10
157.15
 20
30.1
 97
0
 75
1
 76
1
 98
0
  0
LWPOLYLINE
  5
34
330
17
100
AcDbEntity
  8
FILL_BLUE_0000FF
370
0
420
255
100
AcDbPolyline
 90
50
 70
1
 10
157.15
 20
30.1
 10
155.7
 20
30.37
 10
152.85
 20
31.2
 10
151.33
 20
31.93
 10
149.92
 20
32.78
 10
148.63
 20
33.73
 10
147.45
 20
34.8
 10
146.38
 20
35.98
 10
145.42
 20
37.27
 10
144.58
 20
38.68
 10
143.85
 20
40.2
 10
143.02
 20
43.05
 10
142.75
 20
44.5
 10
142.65
 20
45.9
 10
142.65
 20
232.8
 10
142.75
 20
234.2
 10
143.02
 20
235.65
 10
143.85
 20
238.5
 10
144.58
 20
240.02
 10
145.42
 20
241.42
 10
146.38
 20
242.72
 10
147.45
 20
243.9
 10
148.63
 20
244.97
 10
149.92
 20
245.92
 10
151.33
 20
246.77
 10
152.85
 20
247.5
 10
154.25
 20
247.89
 10
155.7
 20
248.18
 10
157.15
 20
248.34
 10
158.55
 20
248.4
 10
351.45
 20
248.4
 10
353.47
 20
248.28
 10
355.5
 20
247.91
 10
357.52
 20
247.26
 10
359.55
 20
246.3
 10
361.28
 20
245.24
 10
362.85
 20
243.9
 10
364.19
 20
242.33
 10
365.25
 20
240.6
 10
423.75
 20
139.2
 10
365.25
 20
38.1
 10
364.19
 20
36.36
 10
362.85
 20
34.76
 10
361.28
 20
33.33
 10
359.55
 20
32.1
 10
357.52
 20
31.27
 10
355.5
 20
30.6
 10
353.47
 20
30.16
 10
351.45
 20
30.0
 10
158.55
 20
30.0
  0
HATCH
  5
35
330
17
100
AcDbEntity
  8
FILL_WHITE_FFFFFF
 62
7
420
16777215
100
AcDbHatch
 10
0.0
 20
0.0
 30
0.0
210
0.0
220
0.0
230
1.0
  2
SOLID
 70
1
 71
0
 91
1
 92
3
 72
0
 73
1
 93
65
 10
238.28
 20
208.06
 10
238.08
 20
206.76
 10
237.75
 20
205.49
 10
237.3
 20
204.26
 10
236.74
 20
203.07
 10
236.07
 20
201.93
 10
235.31
 20
200.84
 10
234.45
 20
199.8
 10
233.5
 20
198.94
 10
232.45
 20
198.18
 10
231.32
 20
197.51
 10
230.14
 20
196.95
 10
228.91
 20
196.5
 10
227.66
 20
196.17
 10
226.4
 20
195.97
 10
225.15
 20
195.9
 10
223.8
 20
195.97
 10
222.47
 20
196.17
 10
221.16
 20
196.5
 10
219.9
 20
196.95
 10
218.69
 20
197.51
 10
217.56
 20
198.18
 10
216.5
 20
198.94
 10
215.55
 20
199.8
 10
214.69
 20
200.84
 10
213.93
 20
201.93
 10
213.26
 20
203.07
 10
212.7
 20
204.26
 10
212.25
 20
205.49
 10
211.92
 20
206.76
 10
211.72
 20
208.06
 10
211.65
 20
209.4
 10
211.72
 20
210.73
 10
211.92
 20
212.03
 10
212.25
 20
213.29
 10
212.7
 20
214.5
 10
213.26
 20
215.65
 10
213.93
 20
216.74
 10
214.69
 20
217.76
 10
215.55
 20
218.7
 10
216.5
 20
219.64
 10
217.56
 20
220.45
 10
218.69
 20
221.12
 10
219.9
 20
221.66
 10
221.16
 20
222.08
 10
222.47
 20
222.37
 10
223.8
 20
222.54
 10
225.15
 20
222.6
 10
226.4
 20
222.54
 10
227.66
 20
222.37
 10
228.91
 20
222.08
 10
230.14
 20
221.66
 10
231.32
 20
221.12
 10
232.45
 20
220.45
 10
233.5
 20
219.64
 10
234.45
 20
218.7
 10
235.31
 20
217.76
 10
236.07
 20
216.74
 10
236.74
 20
215.65
 10
237.3
 20
214.5
 10
237.75
 20
213.29
 10
238.08
 20
212.03
 10
238.28
 20
210.73
 10
238.35
 20
209.4
 10
238.28
 20
208.06
 97
0
 75
1
 76
1
 98
0
  0
LWPOLYLINE
  5
36
330
17
100
AcDbEntity
  8
FILL_WHITE_FFFFFF
370
0
420
16777215
100
AcDbPolyline
 90
64
 70
1
 10
238.28
 20
208.06
 10
238.08
 20
206.76
 10
237.75
 20
205.49
 10
237.3
 20
204.26
 10
236.74
 20
203.07
 10
236.07
 20
201.93
 10
235.31
 20
200.84
 10
234.45
 20
199.8
 10
233.5
 20
198.94
 10
232.45
 20
198.18
 10
231.32
 20
197.51
 10
230.14
 20
196.95
 10
228.91
 20
196.5
 10
227.66
 20
196.17
 10
226.4
 20
195.97
 10
225.15
 20
195.9
 10
223.8
 20
195.97
 10
222.47
 20
196.17
 10
221.16
 20
196.5
 10
219.9
 20
196.95
 10
218.69
 20
197.51
 10
217.56
 20
198.18
 10
216.5
 20
198.94
 10
215.55
 20
199.8
 10
214.69
 20
200.84
 10
213.93
 20
201.93
 10
213.26
 20
203.07
 10
212.7
 20
204.26
 10
212.25
 20
205.49
 10
211.92
 20
206.76
 10
211.72
 20
208.06
 10
211.65
 20
209.4
 10
211.72
 20
210.73
 10
211.92
 20
212.03
 10
212.25
 20
213.29
 10
212.7
 20
214.5
 10
213.26
 20
215.65
 10
213.93
 20
216.74
 10
214.69
 20
217.76
 10
215.55
 20
218.7
 10
216.5
 20
219.64
 10
217.56
 20
220.45
 10
218.69
 20
221.12
 10
219.9
 20
221.66
 10
221.16
 20
222.08
 10
222.47
 20
222.37
 10
223.8
 20
222.54
 10
225.15
 20
222.6
 10
226.4
 20
222.54
 10
227.66
 20
222.37
 10
228.91
 20
222.08
 10
230.14
 20
221.66
 10
231.32
 20
221.12
 10
232.45
 20
220.45
 10
233.5
 20
219.64
 10
234.45
 20
218.7
 10
235.31
 20
217.76
 10
236.07
 20
216.74
 10
236.74
 20
215.65
 10
237.3
 20
214.5
 10
237.75
 20
213.29
 10
238.08
 20
212.03
 10
238.28
 20
210.73
 10
238.35
 20
209.4
  0
HATCH
  5
37
330
17
100
AcDbEntity
  8
FILL_WHITE_FFFFFF
 62
7
420
16777215
100
AcDbHatch
 10
0.0
 20
0.0
 30
0.0
210
0.0
220
0.0
230
1.0
  2
SOLID
 70
1
 71
0
 91
1
 92
3
 72
0
 73
1
 93
54
 10
235.05
 20
93.6
 10
219.15
 20
121.8
 10
210.75
 20
101.7
 10
182.25
 20
63.0
 10
174.15
 20
71.7
 10
190.35
 20
97.5
 10
208.95
 20
168.0
 10
203.25
 20
162.6
 10
194.85
 20
129.0
 10
186.75
 20
132.3
 10
192.75
 20
167.4
 10
199.95
 20
178.5
 10
200.89
 20
179.93
 10
201.92
 20
181.31
 10
203.05
 20
182.62
 10
204.26
 20
183.86
 10
205.58
 20
185.04
 10
207.0
 20
186.14
 10
208.52
 20
187.16
 10
210.15
 20
188.1
 10
211.85
 20
188.93
 10
213.57
 20
189.62
 10
215.31
 20
190.17
 10
217.05
 20
190.58
 10
218.79
 20
190.84
 10
220.53
 20
190.97
 10
222.25
 20
190.95
 10
223.95
 20
190.8
 10
225.74
 20
190.62
 10
227.49
 20
190.33
 10
229.2
 20
189.91
 10
230.87
 20
189.37
 10
232.5
 20
188.73
 10
234.07
 20
187.97
 10
235.58
 20
187.11
 10
237.04
 20
186.15
 10
238.42
 20
185.09
 10
239.74
 20
183.93
 10
240.98
 20
182.69
 10
242.13
 20
181.35
 10
243.2
 20
179.93
 10
244.18
 20
178.43
 10
245.07
 20
176.85
 10
245.85
 20
175.2
 10
250.95
 20
160.2
 10
268.05
 20
144.6
 10
262.95
 20
136.8
 10
243.45
 20
153.6
 10
237.15
 20
160.2
 10
235.05
 20
134.4
 10
250.05
 20
92.7
 10
252.15
 20
56.1
 10
241.95
 20
56.1
 10
235.05
 20
93.6
 97
0
 75
1
 76
1
 98
0
  0
LWPOLYLINE
  5
38
330
17
100
AcDbEntity
  8
FILL_WHITE_FFFFFF
370
0
420
255
100
AcDbPolyline
 90
53
 70
1
 10
235.05
 20
93.6
 10
219.15
 20
121.8
 10
210.75
 20
101.7
 10
182.25
 20
63.0
 10
174.15
 20
71.7
 10
190.35
 20
97.5
 10
208.95
 20
168.0
 10
203.25
 20
162.6
 10
194.85
 20
129.0
 10
186.75
 20
132.3
 10
192.75
 20
167.4
 10
199.95
 20
178.5
 10
200.89
 20
179.93
 10
201.92
 20
181.31
 10
203.05
 20
182.62
 10
204.26
 20
183.86
 10
205.58
 20
185.04
 10
207.0
 20
186.14
 10
208.52
 20
187.16
 10
210.15
 20
188.1
 10
211.85
 20
188.93
 10
213.57
 20
189.62
 10
215.31
 20
190.17
 10
217.05
 20
190.58
 10
218.79
 20
190.84
 10
220.53
 20
190.97
 10
222.25
 20
190.95
 10
223.95
 20
190.8
 10
225.74
 20
190.62
 10
227.49
 20
190.33
 10
229.2
 20
189.91
 10
230.87
 20
189.37
 10
232.5
 20
188.73
 10
234.07
 20
187.97
 10
235.58
 20
187.11
 10
237.04
 20
186.15
 10
238.42
 20
185.09
 10
239.74
 20
183.93
 10
240.98
 20
182.69
 10
242.13
 20
181.35
 10
243.2
 20
179.93
 10
244.18
 20
178.43
 10
245.07
 20
176.85
 10
245.85
 20
175.2
 10
250.95
 20
160.2
 10
268.05
 20
144.6
 10
262.95
 20
136.8
 10
243.45
 20
153.6
 10
237.15
 20
160.2
 10
235.05
 20
134.4
 10
250.05
 20
92.7
 10
252.15
 20
56.1
 10
241.95
 20
56.1
  0
HATCH
  5
39
330
17
100
AcDbEntity
  8
FILL_WHITE_FFFFFF
 62
7
420
16777215
100
AcDbHatch
 10
0.0
 20
0.0
 30
0.0
210
0.0
220
0.0
230
1.0
  2
SOLID
 70
1
 71
0
 91
1
 92
3
 72
0
 73
1
 93
7
 10
289.05
 20
51.0
 10
340.05
 20
139.2
 10
289.05
 20
227.7
 10
342.75
 20
227.7
 10
393.75
 20
139.2
 10
342.75
 20
51.0
 10
289.05
 20
51.0
 97
0
 75
1
 76
1
 98
0
  0
LWPOLYLINE
  5
3A
330
17
100
AcDbEntity
  8
FILL_WHITE_FFFFFF
370
0
420
255
100
AcDbPolyline
 90
6
 70
1
 10
289.05
 20
51.0
 10
340.05
 20
139.2
 10
289.05
 20
227.7
 10
342.75
 20
227.7
 10
393.75
 20
139.2
 10
342.75
 20
51.0
  0
LWPOLYLINE
  5
3C
330
17
100
AcDbEntity
  8
STROKE_BLUE_0000FF
370
0
420
255
100
AcDbPolyline
 90
78
 70
0
 10
351.4499999999998
 20
14.39999999999975
 10
158.54999999999927
 20
14.39999999999975
 10
155.4181640624994
 20
14.553515624999761
 10
152.33906249999944
 20
15.00937499999975
 10
149.33730468749945
 20
15.760546874999761
 10
146.43749999999943
 20
16.799999999999784
 10
143.6642578124994
 20
18.12070312499975
 10
141.0421874999994
 20
19.715624999999818
 10
138.59589843749941
 20
21.577734374999807
 10
136.34999999999945
 20
23.699999999999818
 10
134.22773437499947
 20
25.945898437499807
 10
132.36562499999943
 20
28.39218749999978
 10
130.7707031249994
 20
31.01425781249975
 10
129.44999999999936
 20
33.78749999999974
 10
128.4105468749993
 20
36.68730468749976
 10
127.6593749999993
 20
39.68906249999978
 10
127.20351562499927
 20
42.76816406249975
 10
127.04999999999927
 20
45.89999999999975
 10
127.04999999999927
 20
232.79999999999973
 10
127.20351562499927
 20
235.93183593749973
 10
127.6593749999993
 20
239.01093749999973
 10
128.4105468749993
 20
242.01269531249972
 10
129.44999999999936
 20
244.91249999999974
 10
130.7707031249994
 20
247.68574218749973
 10
132.36562499999943
 20
250.30781249999976
 10
134.22773437499944
 20
252.75410156249976
 10
136.34999999999945
 20
254.99999999999977
 10
138.59589843749941
 20
257.1222656249998
 10
141.0421874999994
 20
258.9843749999998
 10
143.6642578124994
 20
260.5792968749997
 10
146.43749999999943
 20
261.89999999999975
 10
149.33730468749945
 20
262.9394531249997
 10
152.33906249999944
 20
263.6906249999997
 10
155.4181640624994
 20
264.1464843749997
 10
158.54999999999927
 20
264.2999999999997
 10
351.4499999999998
 20
264.2999999999997
 10
353.5760009765622
 20
264.23020019531225
 10
355.6751953124997
 20
264.02285156249974
 10
357.7418701171872
 20
263.6810302734372
 10
359.7703124999996
 20
263.2078124999997
 10
361.7548095703121
 20
262.6062744140622
 10
363.6896484374995
 20
261.87949218749975
 10
365.569116210937
 20
261.03054199218724
 10
367.3874999999995
 20
260.0624999999997
 10
369.139086914062
 20
258.9784423828122
 10
370.8181640624994
 20
257.7814453124997
 10
372.41901855468694
 20
256.47458496093725
 10
373.9359374999994
 20
255.06093749999974
 10
375.36320800781186
 20
253.54357910156224
 10
376.6951171874993
 20
251.92558593749973
 10
377.92595214843675
 20
250.21003417968726
 10
379.0499999999993
 20
248.39999999999975
 10
437.5499999999993
 20
147.29999999999973
 10
438.4359374999992
 20
145.3494140624997
 10
439.06874999999917
 20
143.33906249999973
 10
439.4484374999992
 20
141.2935546874997
 10
439.57499999999914
 20
139.23749999999973
 10
439.4484374999992
 20
137.19550781249973
 10
439.06874999999917
 20
135.19218749999973
 10
438.4359374999992
 20
133.25214843749973
 10
437.5499999999993
 20
131.39999999999975
 10
379.0499999999993
 20
29.999999999999773
 10
377.92595214843675
 20
28.24277343749975
 10
376.69511718749936
 20
26.573437499999756
 10
375.36320800781186
 20
24.995507812499767
 10
373.9359374999994
 20
23.51249999999976
 10
372.41901855468694
 20
22.127929687499716
 10
370.8181640624994
 20
20.84531249999975
 10
369.139086914062
 20
19.668164062499727
 10
367.3874999999995
 20
18.59999999999974
 10
365.569116210937
 20
17.64433593749976
 10
363.6896484374995
 20
16.804687499999773
 10
361.7548095703121
 20
16.08457031249975
 10
359.7703124999996
 20
15.487499999999727
 10
357.74187011718715
 20
15.016992187499795
 10
355.6751953124997
 20
14.676562499999761
 10
353.5760009765622
 20
14.469726562499773
 10
351.4499999999998
 20
14.39999999999975
  0
ENDSEC
  0
SECTION
  2
OBJECTS
  0
DICTIONARY
  5
A
330
0
100
AcDbDictionary
281
1
  3
ACAD_COLOR
350
B
  3
ACAD_GROUP
350
C
  3
ACAD_LAYOUT
350
D
  3
ACAD_MATERIAL
350
E
  3
ACAD_MLEADERSTYLE
350
F
  3
ACAD_MLINESTYLE
350
10
  3
ACAD_PLOTSETTINGS
350
11
  3
ACAD_PLOTSTYLENAME
350
12
  3
ACAD_SCALELIST
350
14
  3
ACAD_TABLESTYLE
350
15
  3
ACAD_VISUALSTYLE
350
16
  3
EZDXF_META
350
2D
  0
DICTIONARY
  5
B
330
A
100
AcDbDictionary
281
1
  0
DICTIONARY
  5
C
330
A
100
AcDbDictionary
281
1
  0
DICTIONARY
  5
D
330
A
100
AcDbDictionary
281
1
  3
Model
350
1A
  3
Layout1
350
1E
  0
DICTIONARY
  5
E
330
A
100
AcDbDictionary
281
1
  3
ByBlock
350
1F
  3
ByLayer
350
20
  3
Global
350
21
  0
DICTIONARY
  5
F
330
A
100
AcDbDictionary
281
1
  3
Standard
350
2C
  0
DICTIONARY
  5
10
330
A
100
AcDbDictionary
281
1
  3
Standard
350
22
  0
DICTIONARY
  5
11
330
A
100
AcDbDictionary
281
1
  0
ACDBDICTIONARYWDFLT
  5
12
330
A
100
AcDbDictionary
281
1
  3
Normal
350
13
100
AcDbDictionaryWithDefault
340
13
  0
ACDBPLACEHOLDER
  5
13
330
12
  0
DICTIONARY
  5
14
330
A
100
AcDbDictionary
281
1
  0
DICTIONARY
  5
15
330
A
100
AcDbDictionary
281
1
  0
DICTIONARY
  5
16
330
A
100
AcDbDictionary
281
1
  0
LAYOUT
  5
1A
330
D
100
AcDbPlotSettings
  1

  4
A3
  6

 40
7.5
 41
20.0
 42
7.5
 43
20.0
 44
420.0
 45
297.0
 46
0.0
 47
0.0
 48
0.0
 49
0.0
140
0.0
141
0.0
142
1.0
143
1.0
 70
1024
 72
1
 73
0
 74
5
  7

 75
16
 76
0
 77
2
 78
300
147
1.0
148
0.0
149
0.0
100
AcDbLayout
  1
Model
 70
1
 71
0
 10
0.0
 20
0.0
 11
420.0
 21
297.0
 12
0.0
 22
0.0
 32
0.0
 14
1e+20
 24
1e+20
 34
1e+20
 15
-1e+20
 25
-1e+20
 35
-1e+20
146
0.0
 13
0.0
 23
0.0
 33
0.0
 16
1.0
 26
0.0
 36
0.0
 17
0.0
 27
1.0
 37
0.0
 76
1
330
17
  0
LAYOUT
  5
1E
330
D
100
AcDbPlotSettings
  1

  4
A3
  6

 40
7.5
 41
20.0
 42
7.5
 43
20.0
 44
420.0
 45
297.0
 46
0.0
 47
0.0
 48
0.0
 49
0.0
140
0.0
141
0.0
142
1.0
143
1.0
 70
0
 72
1
 73
0
 74
5
  7

 75
16
 76
0
 77
2
 78
300
147
1.0
148
0.0
149
0.0
100
AcDbLayout
  1
Layout1
 70
1
 71
1
 10
0.0
 20
0.0
 11
420.0
 21
297.0
 12
0.0
 22
0.0
 32
0.0
 14
1e+20
 24
1e+20
 34
1e+20
 15
-1e+20
 25
-1e+20
 35
-1e+20
146
0.0
 13
0.0
 23
0.0
 33
0.0
 16
1.0
 26
0.0
 36
0.0
 17
0.0
 27
1.0
 37
0.0
 76
1
330
1B
  0
MATERIAL
  5
1F
102
{ACAD_REACTORS
330
E
102
}
330
E
100
AcDbMaterial
  1
ByBlock
  2

 70
0
 40
1.0
 71
1
 41
1.0
 91
-1023410177
 42
1.0
 72
1
  3

 73
1
 74
1
 75
1
 44
0.5
 73
0
 45
1.0
 46
1.0
 77
1
  4

 78
1
 79
1
170
1
 48
1.0
171
1
  6

172
1
173
1
174
1
140
1.0
141
1.0
175
1
  7

176
1
177
1
178
1
143
1.0
179
1
  8

270
1
271
1
272
1
145
1.0
146
1.0
273
1
  9

274
1
275
1
276
1
 42
1.0
 72
1
  3

 73
1
 74
1
 75
1
 94
63
  0
MATERIAL
  5
20
102
{ACAD_REACTORS
330
E
102
}
330
E
100
AcDbMaterial
  1
ByLayer
  2

 70
0
 40
1.0
 71
1
 41
1.0
 91
-1023410177
 42
1.0
 72
1
  3

 73
1
 74
1
 75
1
 44
0.5
 73
0
 45
1.0
 46
1.0
 77
1
  4

 78
1
 79
1
170
1
 48
1.0
171
1
  6

172
1
173
1
174
1
140
1.0
141
1.0
175
1
  7

176
1
177
1
178
1
143
1.0
179
1
  8

270
1
271
1
272
1
145
1.0
146
1.0
273
1
  9

274
1
275
1
276
1
 42
1.0
 72
1
  3

 73
1
 74
1
 75
1
 94
63
  0
MATERIAL
  5
21
102
{ACAD_REACTORS
330
E
102
}
330
E
100
AcDbMaterial
  1
Global
  2

 70
0
 40
1.0
 71
1
 41
1.0
 91
-1023410177
 42
1.0
 72
1
  3

 73
1
 74
1
 75
1
 44
0.5
 73
0
 45
1.0
 46
1.0
 77
1
  4

 78
1
 79
1
170
1
 48
1.0
171
1
  6

172
1
173
1
174
1
140
1.0
141
1.0
175
1
  7

176
1
177
1
178
1
143
1.0
179
1
  8

270
1
271
1
272
1
145
1.0
146
1.0
273
1
  9

274
1
275
1
276
1
 42
1.0
 72
1
  3

 73
1
 74
1
 75
1
 94
63
  0
MLINESTYLE
  5
22
102
{ACAD_REACTORS
330
10
102
}
330
10
100
AcDbMlineStyle
  2
Standard
 70
0
  3

 62
256
 51
90.0
 52
90.0
 71
2
 49
0.5
 62
256
  6
BYLAYER
 49
-0.5
 62
256
  6
BYLAYER
  0
MLEADERSTYLE
  5
2C
102
{ACAD_REACTORS
330
F
102
}
330
F
100
AcDbMLeaderStyle
179
2
170
2
171
1
172
0
 90
2
 40
0.0
 41
0.0
173
1
 91
-1056964608
 92
-2
290
1
 42
2.0
291
1
 43
8.0
  3
Standard
 44
4.0
300

342
29
174
1
175
1
176
0
178
1
 93
-1056964608
 45
4.0
292
0
297
0
 46
4.0
 94
-1056964608
 47
1.0
 49
1.0
140
1.0
294
1
141
0.0
177
0
142
1.0
295
0
296
0
143
3.75
271
0
272
9
273
9
  0
DICTIONARY
  5
2D
330
A
100
AcDbDictionary
280
1
281
1
  3
CREATED_BY_EZDXF
350
2E
  3
WRITTEN_BY_EZDXF
350
3F
  0
DICTIONARYVAR
  5
2E
330
2D
100
DictionaryVariables
280
0
  1
1.4.4 @ 2026-07-10T01:54:02.285672+00:00
  0
DICTIONARYVAR
  5
3F
330
2D
100
DictionaryVariables
280
0
  1
1.4.4 @ 2026-07-10T01:54:02.287941+00:00
  0
ENDSEC
  0
EOF
