  0
SECTION
  2
HEADER
  9
$ACADVER
  1
AC1024
  9
$ACADMAINTVER
 70
6
  9
$DWGCODEPAGE
  3
ANSI_1252
  9
$LASTSAVEDBY
  1
ezdxf
  9
$INSBASE
 10
0.0
 20
0.0
 30
0.0
  9
$EXTMIN
 10
1e+20
 20
1e+20
 30
1e+20
  9
$EXTMAX
 10
-1e+20
 20
-1e+20
 30
-1e+20
  9
$LIMMIN
 10
0.0
 20
0.0
  9
$LIMMAX
 10
420.0
 20
297.0
  9
$ORTHOMODE
 70
0
  9
$REGENMODE
 70
1
  9
$FILLMODE
 70
1
  9
$QTEXTMODE
 70
0
  9
$MIRRTEXT
 70
1
  9
$LTSCALE
 40
1.0
  9
$ATTMODE
 70
1
  9
$TEXTSIZE
 40
2.5
  9
$TRACEWID
 40
1.0
  9
$TEXTSTYLE
  7
Standard
  9
$CLAYER
  8
0
  9
$CELTYPE
  6
ByLayer
  9
$CECOLOR
 62
256
  9
$CELTSCALE
 40
1.0
  9
$DISPSILH
 70
0
  9
$DIMSCALE
 40
1.0
  9
$DIMASZ
 40
2.5
  9
$DIMEXO
 40
0.625
  9
$DIMDLI
 40
3.75
  9
$DIMRND
 40
0.0
  9
$DIMDLE
 40
0.0
  9
$DIMEXE
 40
1.25
  9
$DIMTP
 40
0.0
  9
$DIMTM
 40
0.0
  9
$DIMTXT
 40
2.5
  9
$DIMCEN
 40
2.5
  9
$DIMTSZ
 40
0.0
  9
$DIMTOL
 70
0
  9
$DIMLIM
 70
0
  9
$DIMTIH
 70
0
  9
$DIMTOH
 70
0
  9
$DIMSE1
 70
0
  9
$DIMSE2
 70
0
  9
$DIMTAD
 70
1
  9
$DIMZIN
 70
8
  9
$DIMBLK
  1

  9
$DIMASO
 70
1
  9
$DIMSHO
 70
1
  9
$DIMPOST
  1

  9
$DIMAPOST
  1

  9
$DIMALT
 70
0
  9
$DIMALTD
 70
3
  9
$DIMALTF
 40
0.03937007874
  9
$DIMLFAC
 40
1.0
  9
$DIMTOFL
 70
1
  9
$DIMTVP
 40
0.0
  9
$DIMTIX
 70
0
  9
$DIMSOXD
 70
0
  9
$DIMSAH
 70
0
  9
$DIMBLK1
  1

  9
$DIMBLK2
  1

  9
$DIMSTYLE
  2
ISO-25
  9
$DIMCLRD
 70
0
  9
$DIMCLRE
 70
0
  9
$DIMCLRT
 70
0
  9
$DIMTFAC
 40
1.0
  9
$DIMGAP
 40
0.625
  9
$DIMJUST
 70
0
  9
$DIMSD1
 70
0
  9
$DIMSD2
 70
0
  9
$DIMTOLJ
 70
0
  9
$DIMTZIN
 70
8
  9
$DIMALTZ
 70
0
  9
$DIMALTTZ
 70
0
  9
$DIMUPT
 70
0
  9
$DIMDEC
 70
2
  9
$DIMTDEC
 70
2
  9
$DIMALTU
 70
2
  9
$DIMALTTD
 70
3
  9
$DIMTXSTY
  7
Standard
  9
$DIMAUNIT
 70
0
  9
$DIMADEC
 70
0
  9
$DIMALTRND
 40
0.0
  9
$DIMAZIN
 70
0
  9
$DIMDSEP
 70
44
  9
$DIMATFIT
 70
3
  9
$DIMFRAC
 70
0
  9
$DIMLDRBLK
  1

  9
$DIMLUNIT
 70
2
  9
$DIMLWD
 70
-2
  9
$DIMLWE
 70
-2
  9
$DIMTMOVE
 70
0
  9
$DIMFXL
 40
1.0
  9
$DIMFXLON
 70
0
  9
$DIMJOGANG
 40
0.785398163397
  9
$DIMTFILL
 70
0
  9
$DIMTFILLCLR
 70
0
  9
$DIMARCSYM
 70
0
  9
$DIMLTYPE
  6

  9
$DIMLTEX1
  6

  9
$DIMLTEX2
  6

  9
$DIMTXTDIRECTION
 70
0
  9
$LUNITS
 70
2
  9
$LUPREC
 70
4
  9
$SKETCHINC
 40
1.0
  9
$FILLETRAD
 40
10.0
  9
$AUNITS
 70
0
  9
$AUPREC
 70
2
  9
$MENU
  1
.
  9
$ELEVATION
 40
0.0
  9
$PELEVATION
 40
0.0
  9
$THICKNESS
 40
0.0
  9
$LIMCHECK
 70
0
  9
$CHAMFERA
 40
0.0
  9
$CHAMFERB
 40
0.0
  9
$CHAMFERC
 40
0.0
  9
$CHAMFERD
 40
0.0
  9
$SKPOLY
 70
0
  9
$TDCREATE
 40
2461232.412511574
  9
$TDUCREATE
 40
2458532.153996898
  9
$TDUPDATE
 40
2461232.412511574
  9
$TDUUPDATE
 40
2458532.1544311
  9
$TDINDWG
 40
0.0
  9
$TDUSRTIMER
 40
0.0
  9
$USRTIMER
 70
1
  9
$ANGBASE
 50
0.0
  9
$ANGDIR
 70
0
  9
$PDMODE
 70
0
  9
$PDSIZE
 40
0.0
  9
$PLINEWID
 40
0.0
  9
$SPLFRAME
 70
0
  9
$SPLINETYPE
 70
6
  9
$SPLINESEGS
 70
8
  9
$HANDSEED
  5
47
  9
$SURFTAB1
 70
6
  9
$SURFTAB2
 70
6
  9
$SURFTYPE
 70
6
  9
$SURFU
 70
6
  9
$SURFV
 70
6
  9
$UCSBASE
  2

  9
$UCSNAME
  2

  9
$UCSORG
 10
0.0
 20
0.0
 30
0.0
  9
$UCSXDIR
 10
1.0
 20
0.0
 30
0.0
  9
$UCSYDIR
 10
0.0
 20
1.0
 30
0.0
  9
$UCSORTHOREF
  2

  9
$UCSORTHOVIEW
 70
0
  9
$UCSORGTOP
 10
0.0
 20
0.0
 30
0.0
  9
$UCSORGBOTTOM
 10
0.0
 20
0.0
 30
0.0
  9
$UCSORGLEFT
 10
0.0
 20
0.0
 30
0.0
  9
$UCSORGRIGHT
 10
0.0
 20
0.0
 30
0.0
  9
$UCSORGFRONT
 10
0.0
 20
0.0
 30
0.0
  9
$UCSORGBACK
 10
0.0
 20
0.0
 30
0.0
  9
$PUCSBASE
  2

  9
$PUCSNAME
  2

  9
$PUCSORG
 10
0.0
 20
0.0
 30
0.0
  9
$PUCSXDIR
 10
1.0
 20
0.0
 30
0.0
  9
$PUCSYDIR
 10
0.0
 20
1.0
 30
0.0
  9
$PUCSORTHOREF
  2

  9
$PUCSORTHOVIEW
 70
0
  9
$PUCSORGTOP
 10
0.0
 20
0.0
 30
0.0
  9
$PUCSORGBOTTOM
 10
0.0
 20
0.0
 30
0.0
  9
$PUCSORGLEFT
 10
0.0
 20
0.0
 30
0.0
  9
$PUCSORGRIGHT
 10
0.0
 20
0.0
 30
0.0
  9
$PUCSORGFRONT
 10
0.0
 20
0.0
 30
0.0
  9
$PUCSORGBACK
 10
0.0
 20
0.0
 30
0.0
  9
$USERI1
 70
0
  9
$USERI2
 70
0
  9
$USERI3
 70
0
  9
$USERI4
 70
0
  9
$USERI5
 70
0
  9
$USERR1
 40
0.0
  9
$USERR2
 40
0.0
  9
$USERR3
 40
0.0
  9
$USERR4
 40
0.0
  9
$USERR5
 40
0.0
  9
$WORLDVIEW
 70
1
  9
$SHADEDGE
 70
3
  9
$SHADEDIF
 70
70
  9
$TILEMODE
 70
1
  9
$MAXACTVP
 70
64
  9
$PINSBASE
 10
0.0
 20
0.0
 30
0.0
  9
$PLIMCHECK
 70
0
  9
$PEXTMIN
 10
1e+20
 20
1e+20
 30
1e+20
  9
$PEXTMAX
 10
-1e+20
 20
-1e+20
 30
-1e+20
  9
$PLIMMIN
 10
0.0
 20
0.0
  9
$PLIMMAX
 10
420.0
 20
297.0
  9
$UNITMODE
 70
0
  9
$VISRETAIN
 70
1
  9
$PLINEGEN
 70
0
  9
$PSLTSCALE
 70
1
  9
$TREEDEPTH
 70
3020
  9
$CMLSTYLE
  2
Standard
  9
$CMLJUST
 70
0
  9
$CMLSCALE
 40
20.0
  9
$PROXYGRAPHICS
 70
1
  9
$MEASUREMENT
 70
1
  9
$CELWEIGHT
370
-1
  9
$ENDCAPS
280
0
  9
$JOINSTYLE
280
0
  9
$LWDISPLAY
290
0
  9
$INSUNITS
 70
6
  9
$HYPERLINKBASE
  1

  9
$STYLESHEET
  1

  9
$XEDIT
290
1
  9
$CEPSNTYPE
380
0
  9
$PSTYLEMODE
290
1
  9
$FINGERPRINTGUID
  2
{435A17A2-AA8E-4333-9CA0-E5355A886A41}
  9
$VERSIONGUID
  2
{B2988FD5-FEAF-46B5-B39D-CB91E7300377}
  9
$EXTNAMES
290
1
  9
$PSVPSCALE
 40
0.0
  9
$OLESTARTUP
290
0
  9
$SORTENTS
280
127
  9
$INDEXCTL
280
0
  9
$HIDETEXT
280
1
  9
$XCLIPFRAME
280
1
  9
$HALOGAP
280
0
  9
$OBSCOLOR
 70
257
  9
$OBSLTYPE
280
0
  9
$INTERSECTIONDISPLAY
280
0
  9
$INTERSECTIONCOLOR
 70
257
  9
$DIMASSOC
280
2
  9
$PROJECTNAME
  1

  9
$CAMERADISPLAY
290
0
  9
$LENSLENGTH
 40
50.0
  9
$CAMERAHEIGHT
 40
0.0
  9
$STEPSPERSEC
 40
24.0
  9
$STEPSIZE
 40
100.0
  9
$3DDWFPREC
 40
2.0
  9
$PSOLWIDTH
 40
0.005
  9
$PSOLHEIGHT
 40
0.08
  9
$LOFTANG1
 40
1.570796326795
  9
$LOFTANG2
 40
1.570796326795
  9
$LOFTMAG1
 40
0.0
  9
$LOFTMAG2
 40
0.0
  9
$LOFTPARAM
 70
7
  9
$LOFTNORMALS
280
1
  9
$LATITUDE
 40
37.795
  9
$LONGITUDE
 40
-122.394
  9
$NORTHDIRECTION
 40
0.0
  9
$TIMEZONE
 70
-8000
  9
$LIGHTGLYPHDISPLAY
280
1
  9
$TILEMODELIGHTSYNCH
280
1
  9
$CMATERIAL
347
20
  9
$SOLIDHIST
280
0
  9
$SHOWHIST
280
1
  9
$DWFFRAME
280
2
  9
$DGNFRAME
280
2
  9
$REALWORLDSCALE
290
1
  9
$INTERFERECOLOR
 62
256
  9
$CSHADOW
280
0
  9
$SHADOWPLANELOCATION
 40
0.0
  0
ENDSEC
  0
SECTION
  2
CLASSES
  0
CLASS
  1
ACDBDICTIONARYWDFLT
  2
AcDbDictionaryWithDefault
  3
ObjectDBX Classes
 90
0
 91
0
280
0
281
0
  0
CLASS
  1
SUN
  2
AcDbSun
  3
SCENEOE
 90
1153
 91
0
280
0
281
0
  0
CLASS
  1
VISUALSTYLE
  2
AcDbVisualStyle
  3
ObjectDBX Classes
 90
4095
 91
0
280
0
281
0
  0
CLASS
  1
MATERIAL
  2
AcDbMaterial
  3
ObjectDBX Classes
 90
1153
 91
0
280
0
281
0
  0
CLASS
  1
SCALE
  2
AcDbScale
  3
ObjectDBX Classes
 90
1153
 91
0
280
0
281
0
  0
CLASS
  1
TABLESTYLE
  2
AcDbTableStyle
  3
ObjectDBX Classes
 90
4095
 91
0
280
0
281
0
  0
CLASS
  1
MLEADERSTYLE
  2
AcDbMLeaderStyle
  3
ACDB_MLEADERSTYLE_CLASS
 90
4095
 91
0
280
0
281
0
  0
CLASS
  1
DICTIONARYVAR
  2
AcDbDictionaryVar
  3
ObjectDBX Classes
 90
0
 91
0
280
0
281
0
  0
CLASS
  1
CELLSTYLEMAP
  2
AcDbCellStyleMap
  3
ObjectDBX Classes
 90
1152
 91
0
280
0
281
0
  0
CLASS
  1
MENTALRAYRENDERSETTINGS
  2
AcDbMentalRayRenderSettings
  3
SCENEOE
 90
1024
 91
0
280
0
281
0
  0
CLASS
  1
ACDBDETAILVIEWSTYLE
  2
AcDbDetailViewStyle
  3
ObjectDBX Classes
 90
1025
 91
0
280
0
281
0
  0
CLASS
  1
ACDBSECTIONVIEWSTYLE
  2
AcDbSectionViewStyle
  3
ObjectDBX Classes
 90
1025
 91
0
280
0
281
0
  0
CLASS
  1
RASTERVARIABLES
  2
AcDbRasterVariables
  3
ISM
 90
0
 91
0
280
0
281
0
  0
CLASS
  1
LAYOUT
  2
AcDbLayout
  3
ObjectDBX Classes
 90
0
 91
0
280
0
281
0
  0
CLASS
  1
ACDBPLACEHOLDER
  2
AcDbPlaceHolder
  3
ObjectDBX Classes
 90
0
 91
0
280
0
281
0
  0
ENDSEC
  0
SECTION
  2
TABLES
  0
TABLE
  2
VPORT
  5
8
330
0
100
AcDbSymbolTable
 70
1
  0
VPORT
  5
23
330
8
100
AcDbSymbolTableRecord
100
AcDbViewportTableRecord
  2
*Active
 70
0
 10
0.0
 20
0.0
 11
1.0
 21
1.0
 12
0.0
 22
0.0
 13
0.0
 23
0.0
 14
0.5
 24
0.5
 15
0.5
 25
0.5
 16
0.0
 26
0.0
 36
1.0
 17
0.0
 27
0.0
 37
0.0
 40
1000.0
 41
1.34
 42
50.0
 43
0.0
 44
0.0
 50
0.0
 51
0.0
 71
0
 72
1000
 73
1
 74
3
 75
0
 76
0
 77
0
 78
0
281
0
 65
0
146
0.0
  0
ENDTAB
  0
TABLE
  2
LTYPE
  5
2
330
0
100
AcDbSymbolTable
 70
3
  0
LTYPE
  5
24
330
2
100
AcDbSymbolTableRecord
100
AcDbLinetypeTableRecord
  2
ByBlock
 70
0
  3

 72
65
 73
0
 40
0.0
  0
LTYPE
  5
25
330
2
100
AcDbSymbolTableRecord
100
AcDbLinetypeTableRecord
  2
ByLayer
 70
0
  3

 72
65
 73
0
 40
0.0
  0
LTYPE
  5
26
330
2
100
AcDbSymbolTableRecord
100
AcDbLinetypeTableRecord
  2
Continuous
 70
0
  3

 72
65
 73
0
 40
0.0
  0
ENDTAB
  0
TABLE
  2
LAYER
  5
1
330
0
100
AcDbSymbolTable
 70
6
  0
LAYER
  5
27
330
1
100
AcDbSymbolTableRecord
100
AcDbLayerTableRecord
  2
0
 70
0
 62
7
  6
Continuous
370
-3
390
13
347
21
  0
LAYER
  5
28
330
1
100
AcDbSymbolTableRecord
100
AcDbLayerTableRecord
  2
Defpoints
 70
0
 62
7
  6
Continuous
290
0
370
-3
390
13
347
21
  0
LAYER
  5
2F
330
1
100
AcDbSymbolTableRecord
100
AcDbLayerTableRecord
  2
FILL_BLACK_000000
 70
0
 62
7
420
0
  6
Continuous
370
-3
390
13
347
21
  0
LAYER
  5
32
330
1
100
AcDbSymbolTableRecord
100
AcDbLayerTableRecord
  2
FILL_WHITE_FFFFFF
 70
0
 62
7
420
16777215
  6
Continuous
370
-3
390
13
347
21
  0
LAYER
  5
40
330
1
100
AcDbSymbolTableRecord
100
AcDbLayerTableRecord
  2
STROKE_BLACK_000000
 70
0
 62
7
420
0
  6
Continuous
370
-3
390
13
347
21
  0
LAYER
  5
42
330
1
100
AcDbSymbolTableRecord
100
AcDbLayerTableRecord
  2
STROKE_WHITE_FFFFFF
 70
0
 62
7
420
16777215
  6
Continuous
370
-3
390
13
347
21
  0
ENDTAB
  0
TABLE
  2
STYLE
  5
5
330
0
100
AcDbSymbolTable
 70
1
  0
STYLE
  5
29
330
5
100
AcDbSymbolTableRecord
100
AcDbTextStyleTableRecord
  2
Standard
 70
0
 40
0.0
 41
1.0
 50
0.0
 71
0
 42
2.5
  3
txt
  4

  0
ENDTAB
  0
TABLE
  2
VIEW
  5
7
330
0
100
AcDbSymbolTable
 70
0
  0
ENDTAB
  0
TABLE
  2
UCS
  5
6
330
0
100
AcDbSymbolTable
 70
0
  0
ENDTAB
  0
TABLE
  2
APPID
  5
3
330
0
100
AcDbSymbolTable
 70
3
  0
APPID
  5
2A
330
3
100
AcDbSymbolTableRecord
100
AcDbRegAppTableRecord
  2
ACAD
 70
0
  0
APPID
  5
44
330
3
100
AcDbSymbolTableRecord
100
AcDbRegAppTableRecord
  2
HATCHBACKGROUNDCOLOR
 70
0
  0
APPID
  5
45
330
3
100
AcDbSymbolTableRecord
100
AcDbRegAppTableRecord
  2
EZDXF
 70
0
  0
ENDTAB
  0
TABLE
  2
DIMSTYLE
  5
4
330
0
100
AcDbSymbolTable
 70
1
100
AcDbDimStyleTable
  0
DIMSTYLE
105
2B
330
4
100
AcDbSymbolTableRecord
100
AcDbDimStyleTableRecord
  2
Standard
 70
0
 40
1.0
 41
2.5
 42
0.625
 43
3.75
 44
1.25
 45
0.0
 46
0.0
 47
0.0
 48
0.0
 49
2.5
140
2.5
141
2.5
142
0.0
143
0.03937007874
144
1.0
145
0.0
146
1.0
147
0.625
148
0.0
 69
0
 70
0
 71
0
 72
0
 73
0
 74
0
 75
0
 76
0
 77
1
 78
8
 79
3
170
0
171
3
172
1
173
0
174
0
175
0
176
0
177
0
178
0
179
2
271
2
272
2
273
2
274
3
275
0
276
0
277
2
278
44
279
0
280
0
281
0
282
0
283
0
284
8
285
0
286
0
288
0
289
3
290
0
371
-2
372
-2
  0
ENDTAB
  0
TABLE
  2
BLOCK_RECORD
  5
9
330
0
100
AcDbSymbolTable
 70
2
  0
BLOCK_RECORD
  5
17
330
9
100
AcDbSymbolTableRecord
100
AcDbBlockTableRecord
  2
*Model_Space
340
1A
 70
0
280
1
281
0
  0
BLOCK_RECORD
  5
1B
330
9
100
AcDbSymbolTableRecord
100
AcDbBlockTableRecord
  2
*Paper_Space
340
1E
 70
0
280
1
281
0
  0
ENDTAB
  0
ENDSEC
  0
SECTION
  2
BLOCKS
  0
BLOCK
  5
18
330
17
100
AcDbEntity
  8
0
100
AcDbBlockBegin
  2
*Model_Space
 70
0
 10
0.0
 20
0.0
 30
0.0
  3
*Model_Space
  1

  0
ENDBLK
  5
19
330
17
100
AcDbEntity
  8
0
100
AcDbBlockEnd
  0
BLOCK
  5
1C
330
1B
100
AcDbEntity
  8
0
100
AcDbBlockBegin
  2
*Paper_Space
 70
0
 10
0.0
 20
0.0
 30
0.0
  3
*Paper_Space
  1

  0
ENDBLK
  5
1D
330
1B
100
AcDbEntity
  8
0
100
AcDbBlockEnd
  0
ENDSEC
  0
SECTION
  2
ENTITIES
  0
HATCH
  5
30
330
17
100
AcDbEntity
  8
FILL_BLACK_000000
 62
7
420
0
100
AcDbHatch
 10
0.0
 20
0.0
 30
0.0
210
0.0
220
0.0
230
1.0
  2
SOLID
 70
1
 71
0
 91
1
 92
3
 72
0
 73
1
 93
48
 10
29.85
 20
42.12
 10
28.01
 20
42.29
 10
26.14
 20
42.8
 10
24.32
 20
43.64
 10
22.65
 20
44.82
 10
21.47
 20
46.49
 10
20.63
 20
48.31
 10
20.12
 20
50.18
 10
19.95
 20
52.02
 10
19.95
 20
221.22
 10
20.12
 20
223.02
 10
20.63
 20
224.78
 10
21.47
 20
226.49
 10
22.65
 20
228.12
 10
23.46
 20
228.85
 10
24.32
 20
229.47
 10
25.22
 20
229.99
 10
26.14
 20
230.41
 10
28.01
 20
230.95
 10
29.85
 20
231.12
 10
538.35
 20
231.12
 10
540.19
 20
230.95
 10
542.03
 20
230.41
 10
542.91
 20
229.99
 10
543.75
 20
229.47
 10
544.54
 20
228.85
 10
545.25
 20
228.12
 10
546.05
 20
227.39
 10
546.67
 20
226.58
 10
547.65
 20
224.82
 10
547.95
 20
223.02
 10
548.21
 20
222.57
 10
548.25
 20
222.12
 10
548.25
 20
221.52
 10
548.25
 20
221.22
 10
548.25
 20
52.02
 10
548.08
 20
50.18
 10
547.54
 20
48.31
 10
547.12
 20
47.39
 10
546.6
 20
46.49
 10
545.98
 20
45.63
 10
545.25
 20
44.82
 10
544.54
 20
44.19
 10
543.75
 20
43.64
 10
542.03
 20
42.8
 10
540.19
 20
42.29
 10
538.35
 20
42.12
 10
29.85
 20
42.12
 97
0
 75
1
 76
1
 98
0
  0
LWPOLYLINE
  5
31
330
17
100
AcDbEntity
  8
FILL_BLACK_000000
370
0
420
0
100
AcDbPolyline
 90
47
 70
1
 10
29.85
 20
42.12
 10
28.01
 20
42.29
 10
26.14
 20
42.8
 10
24.32
 20
43.64
 10
22.65
 20
44.82
 10
21.47
 20
46.49
 10
20.63
 20
48.31
 10
20.12
 20
50.18
 10
19.95
 20
52.02
 10
19.95
 20
221.22
 10
20.12
 20
223.02
 10
20.63
 20
224.78
 10
21.47
 20
226.49
 10
22.65
 20
228.12
 10
23.46
 20
228.85
 10
24.32
 20
229.47
 10
25.22
 20
229.99
 10
26.14
 20
230.41
 10
28.01
 20
230.95
 10
29.85
 20
231.12
 10
538.35
 20
231.12
 10
540.19
 20
230.95
 10
542.03
 20
230.41
 10
542.91
 20
229.99
 10
543.75
 20
229.47
 10
544.54
 20
228.85
 10
545.25
 20
228.12
 10
546.05
 20
227.39
 10
546.67
 20
226.58
 10
547.65
 20
224.82
 10
547.95
 20
223.02
 10
548.21
 20
222.57
 10
548.25
 20
222.12
 10
548.25
 20
221.52
 10
548.25
 20
221.22
 10
548.25
 20
52.02
 10
548.08
 20
50.18
 10
547.54
 20
48.31
 10
547.12
 20
47.39
 10
546.6
 20
46.49
 10
545.98
 20
45.63
 10
545.25
 20
44.82
 10
544.54
 20
44.19
 10
543.75
 20
43.64
 10
542.03
 20
42.8
 10
540.19
 20
42.29
 10
538.35
 20
42.12
  0
HATCH
  5
33
330
17
100
AcDbEntity
  8
FILL_WHITE_FFFFFF
 62
7
420
16777215
100
AcDbHatch
 10
0.0
 20
0.0
 30
0.0
210
0.0
220
0.0
230
1.0
  2
SOLID
 70
1
 71
0
 91
1
 92
3
 72
0
 73
1
 93
10
 10
69.75
 20
157.92
 10
119.25
 20
108.72
 10
106.95
 20
96.42
 10
57.75
 20
145.92
 10
57.75
 20
121.02
 10
39.15
 20
139.62
 10
39.15
 20
176.52
 10
76.05
 20
176.52
 10
94.65
 20
157.92
 10
69.75
 20
157.92
 97
0
 75
1
 76
1
 98
0
  0
LWPOLYLINE
  5
34
330
17
100
AcDbEntity
  8
FILL_WHITE_FFFFFF
370
0
420
16777215
100
AcDbPolyline
 90
9
 70
1
 10
69.75
 20
157.92
 10
119.25
 20
108.72
 10
106.95
 20
96.42
 10
57.75
 20
145.92
 10
57.75
 20
121.02
 10
39.15
 20
139.62
 10
39.15
 20
176.52
 10
76.05
 20
176.52
 10
94.65
 20
157.92
  0
HATCH
  5
35
330
17
100
AcDbEntity
  8
FILL_WHITE_FFFFFF
 62
7
420
16777215
100
AcDbHatch
 10
0.0
 20
0.0
 30
0.0
210
0.0
220
0.0
230
1.0
  2
SOLID
 70
1
 71
0
 91
1
 92
3
 72
0
 73
1
 93
67
 10
516.45
 20
73.32
 10
500.85
 20
69.72
 10
485.55
 20
68.22
 10
471.15
 20
68.82
 10
457.35
 20
70.02
 10
444.45
 20
71.82
 10
432.15
 20
73.32
 10
420.45
 20
74.22
 10
409.35
 20
74.52
 10
397.95
 20
73.62
 10
386.55
 20
72.42
 10
374.85
 20
70.62
 10
363.15
 20
68.82
 10
351.15
 20
67.32
 10
338.85
 20
66.12
 10
326.85
 20
65.52
 10
314.55
 20
66.12
 10
303.15
 20
67.32
 10
292.05
 20
68.82
 10
281.55
 20
70.62
 10
271.35
 20
72.42
 10
261.45
 20
73.62
 10
251.55
 20
74.52
 10
241.65
 20
74.22
 10
231.15
 20
73.32
 10
219.75
 20
71.82
 10
207.45
 20
70.02
 10
194.25
 20
68.22
 10
180.45
 20
67.62
 10
165.75
 20
67.92
 10
150.75
 20
70.62
 10
139.35
 20
74.82
 10
141.15
 20
79.62
 10
152.25
 20
75.42
 10
166.35
 20
73.02
 10
180.15
 20
72.42
 10
193.65
 20
73.32
 10
206.55
 20
74.82
 10
218.85
 20
76.62
 10
230.55
 20
78.42
 10
241.35
 20
79.32
 10
251.85
 20
79.32
 10
262.05
 20
78.72
 10
272.25
 20
77.22
 10
282.75
 20
75.72
 10
293.25
 20
73.92
 10
304.05
 20
72.12
 10
315.15
 20
70.92
 10
326.85
 20
70.62
 10
338.55
 20
70.92
 10
350.25
 20
72.12
 10
362.25
 20
73.92
 10
373.95
 20
75.72
 10
385.65
 20
77.22
 10
397.35
 20
78.72
 10
409.05
 20
79.32
 10
420.75
 20
79.32
 10
432.75
 20
78.42
 10
445.05
 20
76.92
 10
457.95
 20
75.12
 10
471.45
 20
73.62
 10
485.25
 20
73.32
 10
499.65
 20
74.52
 10
514.65
 20
78.12
 10
525.15
 20
82.62
 10
527.25
 20
78.12
 10
516.45
 20
73.32
 97
0
 75
1
 76
1
 98
0
  0
LWPOLYLINE
  5
36
330
17
100
AcDbEntity
  8
FILL_WHITE_FFFFFF
370
0
420
16777215
100
AcDbPolyline
 90
66
 70
1
 10
516.45
 20
73.32
 10
500.85
 20
69.72
 10
485.55
 20
68.22
 10
471.15
 20
68.82
 10
457.35
 20
70.02
 10
444.45
 20
71.82
 10
432.15
 20
73.32
 10
420.45
 20
74.22
 10
409.35
 20
74.52
 10
397.95
 20
73.62
 10
386.55
 20
72.42
 10
374.85
 20
70.62
 10
363.15
 20
68.82
 10
351.15
 20
67.32
 10
338.85
 20
66.12
 10
326.85
 20
65.52
 10
314.55
 20
66.12
 10
303.15
 20
67.32
 10
292.05
 20
68.82
 10
281.55
 20
70.62
 10
271.35
 20
72.42
 10
261.45
 20
73.62
 10
251.55
 20
74.52
 10
241.65
 20
74.22
 10
231.15
 20
73.32
 10
219.75
 20
71.82
 10
207.45
 20
70.02
 10
194.25
 20
68.22
 10
180.45
 20
67.62
 10
165.75
 20
67.92
 10
150.75
 20
70.62
 10
139.35
 20
74.82
 10
141.15
 20
79.62
 10
152.25
 20
75.42
 10
166.35
 20
73.02
 10
180.15
 20
72.42
 10
193.65
 20
73.32
 10
206.55
 20
74.82
 10
218.85
 20
76.62
 10
230.55
 20
78.42
 10
241.35
 20
79.32
 10
251.85
 20
79.32
 10
262.05
 20
78.72
 10
272.25
 20
77.22
 10
282.75
 20
75.72
 10
293.25
 20
73.92
 10
304.05
 20
72.12
 10
315.15
 20
70.92
 10
326.85
 20
70.62
 10
338.55
 20
70.92
 10
350.25
 20
72.12
 10
362.25
 20
73.92
 10
373.95
 20
75.72
 10
385.65
 20
77.22
 10
397.35
 20
78.72
 10
409.05
 20
79.32
 10
420.75
 20
79.32
 10
432.75
 20
78.42
 10
445.05
 20
76.92
 10
457.95
 20
75.12
 10
471.45
 20
73.62
 10
485.25
 20
73.32
 10
499.65
 20
74.52
 10
514.65
 20
78.12
 10
525.15
 20
82.62
 10
527.25
 20
78.12
  0
HATCH
  5
37
330
17
100
AcDbEntity
  8
FILL_WHITE_FFFFFF
 62
7
420
16777215
100
AcDbHatch
 10
0.0
 20
0.0
 30
0.0
210
0.0
220
0.0
230
1.0
  2
SOLID
 70
1
 71
0
 91
8
 92
3
 72
0
 73
1
 93
55
 10
354.75
 20
207.42
 10
358.95
 20
181.32
 10
429.45
 20
181.32
 10
433.05
 20
193.92
 10
475.35
 20
193.92
 10
490.65
 20
110.22
 10
505.65
 20
110.22
 10
497.85
 20
91.02
 10
509.85
 20
93.72
 10
522.15
 20
99.12
 10
523.95
 20
95.22
 10
511.35
 20
89.52
 10
498.15
 20
86.52
 10
484.95
 20
85.32
 10
472.05
 20
85.62
 10
459.15
 20
87.12
 10
446.55
 20
88.62
 10
433.95
 20
90.42
 10
421.35
 20
91.32
 10
408.75
 20
91.32
 10
396.45
 20
90.72
 10
384.45
 20
89.22
 10
372.45
 20
87.42
 10
360.75
 20
85.62
 10
349.05
 20
84.12
 10
337.65
 20
82.92
 10
326.85
 20
82.62
 10
316.05
 20
82.92
 10
305.25
 20
84.12
 10
294.75
 20
85.62
 10
284.25
 20
87.42
 10
273.75
 20
89.22
 10
263.25
 20
90.72
 10
252.15
 20
91.32
 10
241.05
 20
91.32
 10
229.35
 20
90.42
 10
217.35
 20
88.62
 10
205.05
 20
86.82
 10
192.75
 20
85.32
 10
180.15
 20
84.42
 10
167.55
 20
85.02
 10
154.95
 20
87.12
 10
142.35
 20
91.62
 10
143.85
 20
95.82
 10
156.15
 20
91.62
 10
167.85
 20
89.52
 10
171.75
 20
89.22
 10
163.35
 20
110.22
 10
175.65
 20
110.22
 10
189.45
 20
193.02
 10
230.85
 20
193.02
 10
237.45
 20
181.32
 10
308.55
 20
181.32
 10
311.25
 20
207.42
 10
354.75
 20
207.42
 97
0
 92
18
 72
0
 73
1
 93
5
 10
327.45
 20
126.12
 10
367.65
 20
126.12
 10
367.65
 20
137.82
 10
327.45
 20
137.82
 10
327.45
 20
126.12
 97
0
 92
18
 72
0
 73
1
 93
11
 10
220.95
 20
111.72
 10
219.86
 20
110.86
 10
218.55
 20
110.22
 10
253.05
 20
110.22
 10
251.76
 20
110.78
 10
250.61
 20
111.53
 10
249.63
 20
112.46
 10
248.85
 20
113.52
 10
222.75
 20
113.52
 10
222.08
 20
112.62
 10
220.95
 20
111.72
 97
0
 92
18
 72
0
 73
1
 93
24
 10
209.87
 20
113.75
 10
209.55
 20
114.42
 10
205.95
 20
114.42
 10
207.75
 20
121.32
 10
223.35
 20
123.12
 10
227.55
 20
134.52
 10
252.45
 20
134.52
 10
258.15
 20
121.62
 10
268.65
 20
120.72
 10
271.65
 20
112.62
 10
261.15
 20
112.62
 10
259.61
 20
111.31
 10
257.85
 20
110.22
 10
276.45
 20
110.22
 10
276.45
 20
160.62
 10
200.85
 20
160.62
 10
200.85
 20
110.22
 10
214.35
 20
110.22
 10
213.5
 20
110.5
 10
212.74
 20
110.9
 10
212.03
 20
111.4
 10
211.35
 20
112.02
 10
210.34
 20
113.11
 10
209.87
 20
113.75
 97
0
 92
18
 72
0
 73
1
 93
19
 10
317.85
 20
112.92
 10
317.35
 20
112.08
 10
316.76
 20
111.35
 10
316.12
 20
110.73
 10
315.45
 20
110.22
 10
347.25
 20
110.22
 10
346.58
 20
110.73
 10
345.98
 20
111.35
 10
345.48
 20
112.08
 10
345.15
 20
112.92
 10
344.76
 20
113.65
 10
344.48
 20
114.46
 10
344.31
 20
115.32
 10
344.25
 20
116.22
 10
318.75
 20
116.22
 10
318.69
 20
115.32
 10
318.53
 20
114.46
 10
318.24
 20
113.65
 10
317.85
 20
112.92
 97
0
 92
18
 72
0
 73
1
 93
25
 10
305.14
 20
113.66
 10
304.87
 20
114.48
 10
304.71
 20
115.33
 10
304.65
 20
116.22
 10
296.85
 20
116.22
 10
298.95
 20
124.62
 10
311.85
 20
127.32
 10
316.05
 20
141.12
 10
369.75
 20
141.12
 10
369.75
 20
115.92
 10
357.75
 20
115.92
 10
357.69
 20
115.13
 10
357.53
 20
114.35
 10
356.93
 20
112.85
 10
355.98
 20
111.45
 10
354.75
 20
110.22
 10
379.05
 20
110.22
 10
379.05
 20
160.62
 10
285.15
 20
160.62
 10
285.15
 20
110.22
 10
307.95
 20
110.22
 10
306.55
 20
111.45
 10
305.98
 20
112.14
 10
305.51
 20
112.88
 10
305.14
 20
113.66
 97
0
 92
18
 72
0
 73
1
 93
10
 10
438.78
 20
112.62
 10
438.45
 20
113.52
 10
409.35
 20
113.82
 10
409.16
 20
112.92
 10
408.75
 20
112.02
 10
407.25
 20
110.22
 10
440.85
 20
110.22
 10
440.01
 20
110.95
 10
439.31
 20
111.76
 10
438.78
 20
112.62
 97
0
 92
18
 72
0
 73
1
 93
22
 10
466.05
 20
160.62
 10
387.75
 20
160.62
 10
387.75
 20
110.22
 10
399.75
 20
110.22
 10
398.91
 20
111.0
 10
398.21
 20
111.95
 10
397.68
 20
113.0
 10
397.35
 20
114.12
 10
394.65
 20
114.12
 10
395.55
 20
121.32
 10
409.65
 20
123.12
 10
413.55
 20
133.02
 10
441.75
 20
130.02
 10
444.45
 20
120.42
 10
456.15
 20
119.22
 10
458.25
 20
113.22
 10
449.85
 20
113.22
 10
448.88
 20
111.61
 10
448.25
 20
110.9
 10
447.45
 20
110.22
 10
466.05
 20
110.22
 10
466.05
 20
160.62
 97
0
 75
1
 76
1
 98
0
  0
LWPOLYLINE
  5
38
330
17
100
AcDbEntity
  8
FILL_WHITE_FFFFFF
370
0
420
0
100
AcDbPolyline
 90
54
 70
1
 10
354.75
 20
207.42
 10
358.95
 20
181.32
 10
429.45
 20
181.32
 10
433.05
 20
193.92
 10
475.35
 20
193.92
 10
490.65
 20
110.22
 10
505.65
 20
110.22
 10
497.85
 20
91.02
 10
509.85
 20
93.72
 10
522.15
 20
99.12
 10
523.95
 20
95.22
 10
511.35
 20
89.52
 10
498.15
 20
86.52
 10
484.95
 20
85.32
 10
472.05
 20
85.62
 10
459.15
 20
87.12
 10
446.55
 20
88.62
 10
433.95
 20
90.42
 10
421.35
 20
91.32
 10
408.75
 20
91.32
 10
396.45
 20
90.72
 10
384.45
 20
89.22
 10
372.45
 20
87.42
 10
360.75
 20
85.62
 10
349.05
 20
84.12
 10
337.65
 20
82.92
 10
326.85
 20
82.62
 10
316.05
 20
82.92
 10
305.25
 20
84.12
 10
294.75
 20
85.62
 10
284.25
 20
87.42
 10
273.75
 20
89.22
 10
263.25
 20
90.72
 10
252.15
 20
91.32
 10
241.05
 20
91.32
 10
229.35
 20
90.42
 10
217.35
 20
88.62
 10
205.05
 20
86.82
 10
192.75
 20
85.32
 10
180.15
 20
84.42
 10
167.55
 20
85.02
 10
154.95
 20
87.12
 10
142.35
 20
91.62
 10
143.85
 20
95.82
 10
156.15
 20
91.62
 10
167.85
 20
89.52
 10
171.75
 20
89.22
 10
163.35
 20
110.22
 10
175.65
 20
110.22
 10
189.45
 20
193.02
 10
230.85
 20
193.02
 10
237.45
 20
181.32
 10
308.55
 20
181.32
 10
311.25
 20
207.42
  0
LWPOLYLINE
  5
39
330
17
100
AcDbEntity
  8
FILL_WHITE_FFFFFF
370
0
420
0
100
AcDbPolyline
 90
4
 70
1
 10
327.45
 20
126.12
 10
367.65
 20
126.12
 10
367.65
 20
137.82
 10
327.45
 20
137.82
  0
LWPOLYLINE
  5
3A
330
17
100
AcDbEntity
  8
FILL_WHITE_FFFFFF
370
0
420
0
100
AcDbPolyline
 90
10
 70
1
 10
220.95
 20
111.72
 10
219.86
 20
110.86
 10
218.55
 20
110.22
 10
253.05
 20
110.22
 10
251.76
 20
110.78
 10
250.61
 20
111.53
 10
249.63
 20
112.46
 10
248.85
 20
113.52
 10
222.75
 20
113.52
 10
222.08
 20
112.62
  0
LWPOLYLINE
  5
3B
330
17
100
AcDbEntity
  8
FILL_WHITE_FFFFFF
370
0
420
0
100
AcDbPolyline
 90
23
 70
1
 10
209.87
 20
113.75
 10
209.55
 20
114.42
 10
205.95
 20
114.42
 10
207.75
 20
121.32
 10
223.35
 20
123.12
 10
227.55
 20
134.52
 10
252.45
 20
134.52
 10
258.15
 20
121.62
 10
268.65
 20
120.72
 10
271.65
 20
112.62
 10
261.15
 20
112.62
 10
259.61
 20
111.31
 10
257.85
 20
110.22
 10
276.45
 20
110.22
 10
276.45
 20
160.62
 10
200.85
 20
160.62
 10
200.85
 20
110.22
 10
214.35
 20
110.22
 10
213.5
 20
110.5
 10
212.74
 20
110.9
 10
212.03
 20
111.4
 10
211.35
 20
112.02
 10
210.34
 20
113.11
  0
LWPOLYLINE
  5
3C
330
17
100
AcDbEntity
  8
FILL_WHITE_FFFFFF
370
0
420
0
100
AcDbPolyline
 90
18
 70
1
 10
317.85
 20
112.92
 10
317.35
 20
112.08
 10
316.76
 20
111.35
 10
316.12
 20
110.73
 10
315.45
 20
110.22
 10
347.25
 20
110.22
 10
346.58
 20
110.73
 10
345.98
 20
111.35
 10
345.48
 20
112.08
 10
345.15
 20
112.92
 10
344.76
 20
113.65
 10
344.48
 20
114.46
 10
344.31
 20
115.32
 10
344.25
 20
116.22
 10
318.75
 20
116.22
 10
318.69
 20
115.32
 10
318.53
 20
114.46
 10
318.24
 20
113.65
  0
LWPOLYLINE
  5
3D
330
17
100
AcDbEntity
  8
FILL_WHITE_FFFFFF
370
0
420
0
100
AcDbPolyline
 90
24
 70
1
 10
305.14
 20
113.66
 10
304.87
 20
114.48
 10
304.71
 20
115.33
 10
304.65
 20
116.22
 10
296.85
 20
116.22
 10
298.95
 20
124.62
 10
311.85
 20
127.32
 10
316.05
 20
141.12
 10
369.75
 20
141.12
 10
369.75
 20
115.92
 10
357.75
 20
115.92
 10
357.69
 20
115.13
 10
357.53
 20
114.35
 10
356.93
 20
112.85
 10
355.98
 20
111.45
 10
354.75
 20
110.22
 10
379.05
 20
110.22
 10
379.05
 20
160.62
 10
285.15
 20
160.62
 10
285.15
 20
110.22
 10
307.95
 20
110.22
 10
306.55
 20
111.45
 10
305.98
 20
112.14
 10
305.51
 20
112.88
  0
LWPOLYLINE
  5
3E
330
17
100
AcDbEntity
  8
FILL_WHITE_FFFFFF
370
0
420
0
100
AcDbPolyline
 90
9
 70
1
 10
438.78
 20
112.62
 10
438.45
 20
113.52
 10
409.35
 20
113.82
 10
409.16
 20
112.92
 10
408.75
 20
112.02
 10
407.25
 20
110.22
 10
440.85
 20
110.22
 10
440.01
 20
110.95
 10
439.31
 20
111.76
  0
LWPOLYLINE
  5
3F
330
17
100
AcDbEntity
  8
FILL_WHITE_FFFFFF
370
0
420
0
100
AcDbPolyline
 90
21
 70
1
 10
466.05
 20
160.62
 10
387.75
 20
160.62
 10
387.75
 20
110.22
 10
399.75
 20
110.22
 10
398.91
 20
111.0
 10
398.21
 20
111.95
 10
397.68
 20
113.0
 10
397.35
 20
114.12
 10
394.65
 20
114.12
 10
395.55
 20
121.32
 10
409.65
 20
123.12
 10
413.55
 20
133.02
 10
441.75
 20
130.02
 10
444.45
 20
120.42
 10
456.15
 20
119.22
 10
458.25
 20
113.22
 10
449.85
 20
113.22
 10
448.88
 20
111.61
 10
448.25
 20
110.9
 10
447.45
 20
110.22
 10
466.05
 20
110.22
  0
LWPOLYLINE
  5
41
330
17
100
AcDbEntity
  8
STROKE_BLACK_000000
370
0
420
0
100
AcDbPolyline
 90
69
 70
0
 10
10.050000000000068
 20
221.22000000000025
 10
10.050000000000068
 20
52.01999999999953
 10
10.147265625000063
 20
50.01140624999965
 10
10.434375000000054
 20
48.044999999999675
 10
10.90429687500004
 20
46.13484374999973
 10
11.550000000000026
 20
44.29499999999973
 10
12.364453125000011
 20
42.539531249999754
 10
13.340625000000001
 20
40.88249999999982
 10
14.471484374999996
 20
39.3379687499999
 10
15.75
 20
37.92000000000007
 10
17.16796875000001
 20
36.641484374999976
 10
18.712500000000013
 20
35.51062499999995
 10
20.369531250000023
 20
34.53445312499994
 10
22.12500000000003
 20
33.72000000000003
 10
23.964843750000036
 20
33.07429687500013
 10
25.875000000000032
 20
32.604375000000175
 10
27.84140625000003
 20
32.31726562500023
 10
29.850000000000023
 20
32.220000000000255
 10
538.3499999999999
 20
32.220000000000255
 10
540.26015625
 20
32.31726562500023
 10
542.1562499999999
 20
32.604375000000175
 10
544.02421875
 20
33.07429687500013
 10
545.85
 20
33.72000000000003
 10
547.61953125
 20
34.53445312499997
 10
549.31875
 20
35.51062499999995
 10
550.93359375
 20
36.641484375000005
 10
552.45
 20
37.92000000000007
 10
553.728515625
 20
39.3379687499999
 10
554.859375
 20
40.88249999999982
 10
555.835546875
 20
42.539531249999754
 10
556.6500000000001
 20
44.29499999999973
 10
557.295703125
 20
46.13484374999973
 10
557.765625
 20
48.044999999999675
 10
558.0527343750001
 20
50.01140624999965
 10
558.1500000000001
 20
52.01999999999953
 10
558.1500000000001
 20
221.22000000000025
 10
558.0527343750001
 20
223.1295703125001
 10
557.765625
 20
225.0215625
 10
557.295703125
 20
226.87839843749992
 10
556.6500000000001
 20
228.6824999999999
 10
555.835546875
 20
230.41628906249986
 10
554.859375
 20
232.0621874999998
 10
553.728515625
 20
233.6026171874997
 10
552.45
 20
235.01999999999953
 10
550.93359375
 20
236.39753906249967
 10
549.31875
 20
237.60281249999974
 10
547.61953125
 20
238.63230468749975
 10
545.8499999999999
 20
239.48249999999973
 10
544.0242187499999
 20
240.14988281249967
 10
542.15625
 20
240.63093749999962
 10
540.2601562499999
 20
240.92214843749954
 10
538.3499999999999
 20
241.01999999999953
 10
29.850000000000023
 20
241.01999999999953
 10
27.84140625000003
 20
240.92214843749954
 10
25.875000000000032
 20
240.63093749999962
 10
23.964843750000032
 20
240.14988281249967
 10
22.12500000000003
 20
239.48249999999973
 10
20.369531250000023
 20
238.63230468749975
 10
18.712500000000016
 20
237.60281249999974
 10
17.167968750000007
 20
236.39753906249967
 10
15.75
 20
235.01999999999953
 10
14.471484374999998
 20
233.6026171874997
 10
13.340625000000001
 20
232.0621874999998
 10
12.364453125000011
 20
230.41628906249986
 10
11.550000000000026
 20
228.6824999999999
 10
10.904296875000043
 20
226.87839843749992
 10
10.434375000000054
 20
225.0215625
 10
10.147265625000063
 20
223.1295703125001
 10
10.050000000000068
 20
221.22000000000025
  0
LWPOLYLINE
  5
43
330
17
100
AcDbEntity
  8
STROKE_WHITE_FFFFFF
370
0
420
16777215
100
AcDbPolyline
 90
3
 70
0
 10
171.75
 20
89.22000000000025
 10
172.05000000000007
 20
88.61999999999989
 10
171.75
 20
89.22000000000025
  0
ENDSEC
  0
SECTION
  2
OBJECTS
  0
DICTIONARY
  5
A
330
0
100
AcDbDictionary
281
1
  3
ACAD_COLOR
350
B
  3
ACAD_GROUP
350
C
  3
ACAD_LAYOUT
350
D
  3
ACAD_MATERIAL
350
E
  3
ACAD_MLEADERSTYLE
350
F
  3
ACAD_MLINESTYLE
350
10
  3
ACAD_PLOTSETTINGS
350
11
  3
ACAD_PLOTSTYLENAME
350
12
  3
ACAD_SCALELIST
350
14
  3
ACAD_TABLESTYLE
350
15
  3
ACAD_VISUALSTYLE
350
16
  3
EZDXF_META
350
2D
  0
DICTIONARY
  5
B
330
A
100
AcDbDictionary
281
1
  0
DICTIONARY
  5
C
330
A
100
AcDbDictionary
281
1
  0
DICTIONARY
  5
D
330
A
100
AcDbDictionary
281
1
  3
Model
350
1A
  3
Layout1
350
1E
  0
DICTIONARY
  5
E
330
A
100
AcDbDictionary
281
1
  3
ByBlock
350
1F
  3
ByLayer
350
20
  3
Global
350
21
  0
DICTIONARY
  5
F
330
A
100
AcDbDictionary
281
1
  3
Standard
350
2C
  0
DICTIONARY
  5
10
330
A
100
AcDbDictionary
281
1
  3
Standard
350
22
  0
DICTIONARY
  5
11
330
A
100
AcDbDictionary
281
1
  0
ACDBDICTIONARYWDFLT
  5
12
330
A
100
AcDbDictionary
281
1
  3
Normal
350
13
100
AcDbDictionaryWithDefault
340
13
  0
ACDBPLACEHOLDER
  5
13
330
12
  0
DICTIONARY
  5
14
330
A
100
AcDbDictionary
281
1
  0
DICTIONARY
  5
15
330
A
100
AcDbDictionary
281
1
  0
DICTIONARY
  5
16
330
A
100
AcDbDictionary
281
1
  0
LAYOUT
  5
1A
330
D
100
AcDbPlotSettings
  1

  4
A3
  6

 40
7.5
 41
20.0
 42
7.5
 43
20.0
 44
420.0
 45
297.0
 46
0.0
 47
0.0
 48
0.0
 49
0.0
140
0.0
141
0.0
142
1.0
143
1.0
 70
1024
 72
1
 73
0
 74
5
  7

 75
16
 76
0
 77
2
 78
300
147
1.0
148
0.0
149
0.0
100
AcDbLayout
  1
Model
 70
1
 71
0
 10
0.0
 20
0.0
 11
420.0
 21
297.0
 12
0.0
 22
0.0
 32
0.0
 14
1e+20
 24
1e+20
 34
1e+20
 15
-1e+20
 25
-1e+20
 35
-1e+20
146
0.0
 13
0.0
 23
0.0
 33
0.0
 16
1.0
 26
0.0
 36
0.0
 17
0.0
 27
1.0
 37
0.0
 76
1
330
17
  0
LAYOUT
  5
1E
330
D
100
AcDbPlotSettings
  1

  4
A3
  6

 40
7.5
 41
20.0
 42
7.5
 43
20.0
 44
420.0
 45
297.0
 46
0.0
 47
0.0
 48
0.0
 49
0.0
140
0.0
141
0.0
142
1.0
143
1.0
 70
0
 72
1
 73
0
 74
5
  7

 75
16
 76
0
 77
2
 78
300
147
1.0
148
0.0
149
0.0
100
AcDbLayout
  1
Layout1
 70
1
 71
1
 10
0.0
 20
0.0
 11
420.0
 21
297.0
 12
0.0
 22
0.0
 32
0.0
 14
1e+20
 24
1e+20
 34
1e+20
 15
-1e+20
 25
-1e+20
 35
-1e+20
146
0.0
 13
0.0
 23
0.0
 33
0.0
 16
1.0
 26
0.0
 36
0.0
 17
0.0
 27
1.0
 37
0.0
 76
1
330
1B
  0
MATERIAL
  5
1F
102
{ACAD_REACTORS
330
E
102
}
330
E
100
AcDbMaterial
  1
ByBlock
  2

 70
0
 40
1.0
 71
1
 41
1.0
 91
-1023410177
 42
1.0
 72
1
  3

 73
1
 74
1
 75
1
 44
0.5
 73
0
 45
1.0
 46
1.0
 77
1
  4

 78
1
 79
1
170
1
 48
1.0
171
1
  6

172
1
173
1
174
1
140
1.0
141
1.0
175
1
  7

176
1
177
1
178
1
143
1.0
179
1
  8

270
1
271
1
272
1
145
1.0
146
1.0
273
1
  9

274
1
275
1
276
1
 42
1.0
 72
1
  3

 73
1
 74
1
 75
1
 94
63
  0
MATERIAL
  5
20
102
{ACAD_REACTORS
330
E
102
}
330
E
100
AcDbMaterial
  1
ByLayer
  2

 70
0
 40
1.0
 71
1
 41
1.0
 91
-1023410177
 42
1.0
 72
1
  3

 73
1
 74
1
 75
1
 44
0.5
 73
0
 45
1.0
 46
1.0
 77
1
  4

 78
1
 79
1
170
1
 48
1.0
171
1
  6

172
1
173
1
174
1
140
1.0
141
1.0
175
1
  7

176
1
177
1
178
1
143
1.0
179
1
  8

270
1
271
1
272
1
145
1.0
146
1.0
273
1
  9

274
1
275
1
276
1
 42
1.0
 72
1
  3

 73
1
 74
1
 75
1
 94
63
  0
MATERIAL
  5
21
102
{ACAD_REACTORS
330
E
102
}
330
E
100
AcDbMaterial
  1
Global
  2

 70
0
 40
1.0
 71
1
 41
1.0
 91
-1023410177
 42
1.0
 72
1
  3

 73
1
 74
1
 75
1
 44
0.5
 73
0
 45
1.0
 46
1.0
 77
1
  4

 78
1
 79
1
170
1
 48
1.0
171
1
  6

172
1
173
1
174
1
140
1.0
141
1.0
175
1
  7

176
1
177
1
178
1
143
1.0
179
1
  8

270
1
271
1
272
1
145
1.0
146
1.0
273
1
  9

274
1
275
1
276
1
 42
1.0
 72
1
  3

 73
1
 74
1
 75
1
 94
63
  0
MLINESTYLE
  5
22
102
{ACAD_REACTORS
330
10
102
}
330
10
100
AcDbMlineStyle
  2
Standard
 70
0
  3

 62
256
 51
90.0
 52
90.0
 71
2
 49
0.5
 62
256
  6
BYLAYER
 49
-0.5
 62
256
  6
BYLAYER
  0
MLEADERSTYLE
  5
2C
102
{ACAD_REACTORS
330
F
102
}
330
F
100
AcDbMLeaderStyle
179
2
170
2
171
1
172
0
 90
2
 40
0.0
 41
0.0
173
1
 91
-1056964608
 92
-2
290
1
 42
2.0
291
1
 43
8.0
  3
Standard
 44
4.0
300

342
29
174
1
175
1
176
0
178
1
 93
-1056964608
 45
4.0
292
0
297
0
 46
4.0
 94
-1056964608
 47
1.0
 49
1.0
140
1.0
294
1
141
0.0
177
0
142
1.0
295
0
296
0
143
3.75
271
0
272
9
273
9
  0
DICTIONARY
  5
2D
330
A
100
AcDbDictionary
280
1
281
1
  3
CREATED_BY_EZDXF
350
2E
  3
WRITTEN_BY_EZDXF
350
46
  0
DICTIONARYVAR
  5
2E
330
2D
100
DictionaryVariables
280
0
  1
1.4.4 @ 2026-07-10T01:54:01.584209+00:00
  0
DICTIONARYVAR
  5
46
330
2D
100
DictionaryVariables
280
0
  1
1.4.4 @ 2026-07-10T01:54:01.586912+00:00
  0
ENDSEC
  0
EOF
