  0
SECTION
  2
HEADER
  9
$ACADVER
  1
AC1024
  9
$ACADMAINTVER
 70
6
  9
$DWGCODEPAGE
  3
ANSI_1252
  9
$LASTSAVEDBY
  1
ezdxf
  9
$INSBASE
 10
0.0
 20
0.0
 30
0.0
  9
$EXTMIN
 10
1e+20
 20
1e+20
 30
1e+20
  9
$EXTMAX
 10
-1e+20
 20
-1e+20
 30
-1e+20
  9
$LIMMIN
 10
0.0
 20
0.0
  9
$LIMMAX
 10
420.0
 20
297.0
  9
$ORTHOMODE
 70
0
  9
$REGENMODE
 70
1
  9
$FILLMODE
 70
1
  9
$QTEXTMODE
 70
0
  9
$MIRRTEXT
 70
1
  9
$LTSCALE
 40
1.0
  9
$ATTMODE
 70
1
  9
$TEXTSIZE
 40
2.5
  9
$TRACEWID
 40
1.0
  9
$TEXTSTYLE
  7
Standard
  9
$CLAYER
  8
0
  9
$CELTYPE
  6
ByLayer
  9
$CECOLOR
 62
256
  9
$CELTSCALE
 40
1.0
  9
$DISPSILH
 70
0
  9
$DIMSCALE
 40
1.0
  9
$DIMASZ
 40
2.5
  9
$DIMEXO
 40
0.625
  9
$DIMDLI
 40
3.75
  9
$DIMRND
 40
0.0
  9
$DIMDLE
 40
0.0
  9
$DIMEXE
 40
1.25
  9
$DIMTP
 40
0.0
  9
$DIMTM
 40
0.0
  9
$DIMTXT
 40
2.5
  9
$DIMCEN
 40
2.5
  9
$DIMTSZ
 40
0.0
  9
$DIMTOL
 70
0
  9
$DIMLIM
 70
0
  9
$DIMTIH
 70
0
  9
$DIMTOH
 70
0
  9
$DIMSE1
 70
0
  9
$DIMSE2
 70
0
  9
$DIMTAD
 70
1
  9
$DIMZIN
 70
8
  9
$DIMBLK
  1

  9
$DIMASO
 70
1
  9
$DIMSHO
 70
1
  9
$DIMPOST
  1

  9
$DIMAPOST
  1

  9
$DIMALT
 70
0
  9
$DIMALTD
 70
3
  9
$DIMALTF
 40
0.03937007874
  9
$DIMLFAC
 40
1.0
  9
$DIMTOFL
 70
1
  9
$DIMTVP
 40
0.0
  9
$DIMTIX
 70
0
  9
$DIMSOXD
 70
0
  9
$DIMSAH
 70
0
  9
$DIMBLK1
  1

  9
$DIMBLK2
  1

  9
$DIMSTYLE
  2
ISO-25
  9
$DIMCLRD
 70
0
  9
$DIMCLRE
 70
0
  9
$DIMCLRT
 70
0
  9
$DIMTFAC
 40
1.0
  9
$DIMGAP
 40
0.625
  9
$DIMJUST
 70
0
  9
$DIMSD1
 70
0
  9
$DIMSD2
 70
0
  9
$DIMTOLJ
 70
0
  9
$DIMTZIN
 70
8
  9
$DIMALTZ
 70
0
  9
$DIMALTTZ
 70
0
  9
$DIMUPT
 70
0
  9
$DIMDEC
 70
2
  9
$DIMTDEC
 70
2
  9
$DIMALTU
 70
2
  9
$DIMALTTD
 70
3
  9
$DIMTXSTY
  7
Standard
  9
$DIMAUNIT
 70
0
  9
$DIMADEC
 70
0
  9
$DIMALTRND
 40
0.0
  9
$DIMAZIN
 70
0
  9
$DIMDSEP
 70
44
  9
$DIMATFIT
 70
3
  9
$DIMFRAC
 70
0
  9
$DIMLDRBLK
  1

  9
$DIMLUNIT
 70
2
  9
$DIMLWD
 70
-2
  9
$DIMLWE
 70
-2
  9
$DIMTMOVE
 70
0
  9
$DIMFXL
 40
1.0
  9
$DIMFXLON
 70
0
  9
$DIMJOGANG
 40
0.785398163397
  9
$DIMTFILL
 70
0
  9
$DIMTFILLCLR
 70
0
  9
$DIMARCSYM
 70
0
  9
$DIMLTYPE
  6

  9
$DIMLTEX1
  6

  9
$DIMLTEX2
  6

  9
$DIMTXTDIRECTION
 70
0
  9
$LUNITS
 70
2
  9
$LUPREC
 70
4
  9
$SKETCHINC
 40
1.0
  9
$FILLETRAD
 40
10.0
  9
$AUNITS
 70
0
  9
$AUPREC
 70
2
  9
$MENU
  1
.
  9
$ELEVATION
 40
0.0
  9
$PELEVATION
 40
0.0
  9
$THICKNESS
 40
0.0
  9
$LIMCHECK
 70
0
  9
$CHAMFERA
 40
0.0
  9
$CHAMFERB
 40
0.0
  9
$CHAMFERC
 40
0.0
  9
$CHAMFERD
 40
0.0
  9
$SKPOLY
 70
0
  9
$TDCREATE
 40
2461232.412511574
  9
$TDUCREATE
 40
2458532.153996898
  9
$TDUPDATE
 40
2461232.412511574
  9
$TDUUPDATE
 40
2458532.1544311
  9
$TDINDWG
 40
0.0
  9
$TDUSRTIMER
 40
0.0
  9
$USRTIMER
 70
1
  9
$ANGBASE
 50
0.0
  9
$ANGDIR
 70
0
  9
$PDMODE
 70
0
  9
$PDSIZE
 40
0.0
  9
$PLINEWID
 40
0.0
  9
$SPLFRAME
 70
0
  9
$SPLINETYPE
 70
6
  9
$SPLINESEGS
 70
8
  9
$HANDSEED
  5
49
  9
$SURFTAB1
 70
6
  9
$SURFTAB2
 70
6
  9
$SURFTYPE
 70
6
  9
$SURFU
 70
6
  9
$SURFV
 70
6
  9
$UCSBASE
  2

  9
$UCSNAME
  2

  9
$UCSORG
 10
0.0
 20
0.0
 30
0.0
  9
$UCSXDIR
 10
1.0
 20
0.0
 30
0.0
  9
$UCSYDIR
 10
0.0
 20
1.0
 30
0.0
  9
$UCSORTHOREF
  2

  9
$UCSORTHOVIEW
 70
0
  9
$UCSORGTOP
 10
0.0
 20
0.0
 30
0.0
  9
$UCSORGBOTTOM
 10
0.0
 20
0.0
 30
0.0
  9
$UCSORGLEFT
 10
0.0
 20
0.0
 30
0.0
  9
$UCSORGRIGHT
 10
0.0
 20
0.0
 30
0.0
  9
$UCSORGFRONT
 10
0.0
 20
0.0
 30
0.0
  9
$UCSORGBACK
 10
0.0
 20
0.0
 30
0.0
  9
$PUCSBASE
  2

  9
$PUCSNAME
  2

  9
$PUCSORG
 10
0.0
 20
0.0
 30
0.0
  9
$PUCSXDIR
 10
1.0
 20
0.0
 30
0.0
  9
$PUCSYDIR
 10
0.0
 20
1.0
 30
0.0
  9
$PUCSORTHOREF
  2

  9
$PUCSORTHOVIEW
 70
0
  9
$PUCSORGTOP
 10
0.0
 20
0.0
 30
0.0
  9
$PUCSORGBOTTOM
 10
0.0
 20
0.0
 30
0.0
  9
$PUCSORGLEFT
 10
0.0
 20
0.0
 30
0.0
  9
$PUCSORGRIGHT
 10
0.0
 20
0.0
 30
0.0
  9
$PUCSORGFRONT
 10
0.0
 20
0.0
 30
0.0
  9
$PUCSORGBACK
 10
0.0
 20
0.0
 30
0.0
  9
$USERI1
 70
0
  9
$USERI2
 70
0
  9
$USERI3
 70
0
  9
$USERI4
 70
0
  9
$USERI5
 70
0
  9
$USERR1
 40
0.0
  9
$USERR2
 40
0.0
  9
$USERR3
 40
0.0
  9
$USERR4
 40
0.0
  9
$USERR5
 40
0.0
  9
$WORLDVIEW
 70
1
  9
$SHADEDGE
 70
3
  9
$SHADEDIF
 70
70
  9
$TILEMODE
 70
1
  9
$MAXACTVP
 70
64
  9
$PINSBASE
 10
0.0
 20
0.0
 30
0.0
  9
$PLIMCHECK
 70
0
  9
$PEXTMIN
 10
1e+20
 20
1e+20
 30
1e+20
  9
$PEXTMAX
 10
-1e+20
 20
-1e+20
 30
-1e+20
  9
$PLIMMIN
 10
0.0
 20
0.0
  9
$PLIMMAX
 10
420.0
 20
297.0
  9
$UNITMODE
 70
0
  9
$VISRETAIN
 70
1
  9
$PLINEGEN
 70
0
  9
$PSLTSCALE
 70
1
  9
$TREEDEPTH
 70
3020
  9
$CMLSTYLE
  2
Standard
  9
$CMLJUST
 70
0
  9
$CMLSCALE
 40
20.0
  9
$PROXYGRAPHICS
 70
1
  9
$MEASUREMENT
 70
1
  9
$CELWEIGHT
370
-1
  9
$ENDCAPS
280
0
  9
$JOINSTYLE
280
0
  9
$LWDISPLAY
290
0
  9
$INSUNITS
 70
6
  9
$HYPERLINKBASE
  1

  9
$STYLESHEET
  1

  9
$XEDIT
290
1
  9
$CEPSNTYPE
380
0
  9
$PSTYLEMODE
290
1
  9
$FINGERPRINTGUID
  2
{AD52AD7D-BF23-4745-B5B4-A49D25D0FE5A}
  9
$VERSIONGUID
  2
{1E19A073-2561-40B8-B38B-D796BFB32D25}
  9
$EXTNAMES
290
1
  9
$PSVPSCALE
 40
0.0
  9
$OLESTARTUP
290
0
  9
$SORTENTS
280
127
  9
$INDEXCTL
280
0
  9
$HIDETEXT
280
1
  9
$XCLIPFRAME
280
1
  9
$HALOGAP
280
0
  9
$OBSCOLOR
 70
257
  9
$OBSLTYPE
280
0
  9
$INTERSECTIONDISPLAY
280
0
  9
$INTERSECTIONCOLOR
 70
257
  9
$DIMASSOC
280
2
  9
$PROJECTNAME
  1

  9
$CAMERADISPLAY
290
0
  9
$LENSLENGTH
 40
50.0
  9
$CAMERAHEIGHT
 40
0.0
  9
$STEPSPERSEC
 40
24.0
  9
$STEPSIZE
 40
100.0
  9
$3DDWFPREC
 40
2.0
  9
$PSOLWIDTH
 40
0.005
  9
$PSOLHEIGHT
 40
0.08
  9
$LOFTANG1
 40
1.570796326795
  9
$LOFTANG2
 40
1.570796326795
  9
$LOFTMAG1
 40
0.0
  9
$LOFTMAG2
 40
0.0
  9
$LOFTPARAM
 70
7
  9
$LOFTNORMALS
280
1
  9
$LATITUDE
 40
37.795
  9
$LONGITUDE
 40
-122.394
  9
$NORTHDIRECTION
 40
0.0
  9
$TIMEZONE
 70
-8000
  9
$LIGHTGLYPHDISPLAY
280
1
  9
$TILEMODELIGHTSYNCH
280
1
  9
$CMATERIAL
347
20
  9
$SOLIDHIST
280
0
  9
$SHOWHIST
280
1
  9
$DWFFRAME
280
2
  9
$DGNFRAME
280
2
  9
$REALWORLDSCALE
290
1
  9
$INTERFERECOLOR
 62
256
  9
$CSHADOW
280
0
  9
$SHADOWPLANELOCATION
 40
0.0
  0
ENDSEC
  0
SECTION
  2
CLASSES
  0
CLASS
  1
ACDBDICTIONARYWDFLT
  2
AcDbDictionaryWithDefault
  3
ObjectDBX Classes
 90
0
 91
0
280
0
281
0
  0
CLASS
  1
SUN
  2
AcDbSun
  3
SCENEOE
 90
1153
 91
0
280
0
281
0
  0
CLASS
  1
VISUALSTYLE
  2
AcDbVisualStyle
  3
ObjectDBX Classes
 90
4095
 91
0
280
0
281
0
  0
CLASS
  1
MATERIAL
  2
AcDbMaterial
  3
ObjectDBX Classes
 90
1153
 91
0
280
0
281
0
  0
CLASS
  1
SCALE
  2
AcDbScale
  3
ObjectDBX Classes
 90
1153
 91
0
280
0
281
0
  0
CLASS
  1
TABLESTYLE
  2
AcDbTableStyle
  3
ObjectDBX Classes
 90
4095
 91
0
280
0
281
0
  0
CLASS
  1
MLEADERSTYLE
  2
AcDbMLeaderStyle
  3
ACDB_MLEADERSTYLE_CLASS
 90
4095
 91
0
280
0
281
0
  0
CLASS
  1
DICTIONARYVAR
  2
AcDbDictionaryVar
  3
ObjectDBX Classes
 90
0
 91
0
280
0
281
0
  0
CLASS
  1
CELLSTYLEMAP
  2
AcDbCellStyleMap
  3
ObjectDBX Classes
 90
1152
 91
0
280
0
281
0
  0
CLASS
  1
MENTALRAYRENDERSETTINGS
  2
AcDbMentalRayRenderSettings
  3
SCENEOE
 90
1024
 91
0
280
0
281
0
  0
CLASS
  1
ACDBDETAILVIEWSTYLE
  2
AcDbDetailViewStyle
  3
ObjectDBX Classes
 90
1025
 91
0
280
0
281
0
  0
CLASS
  1
ACDBSECTIONVIEWSTYLE
  2
AcDbSectionViewStyle
  3
ObjectDBX Classes
 90
1025
 91
0
280
0
281
0
  0
CLASS
  1
RASTERVARIABLES
  2
AcDbRasterVariables
  3
ISM
 90
0
 91
0
280
0
281
0
  0
CLASS
  1
LAYOUT
  2
AcDbLayout
  3
ObjectDBX Classes
 90
0
 91
0
280
0
281
0
  0
CLASS
  1
ACDBPLACEHOLDER
  2
AcDbPlaceHolder
  3
ObjectDBX Classes
 90
0
 91
0
280
0
281
0
  0
ENDSEC
  0
SECTION
  2
TABLES
  0
TABLE
  2
VPORT
  5
8
330
0
100
AcDbSymbolTable
 70
1
  0
VPORT
  5
23
330
8
100
AcDbSymbolTableRecord
100
AcDbViewportTableRecord
  2
*Active
 70
0
 10
0.0
 20
0.0
 11
1.0
 21
1.0
 12
0.0
 22
0.0
 13
0.0
 23
0.0
 14
0.5
 24
0.5
 15
0.5
 25
0.5
 16
0.0
 26
0.0
 36
1.0
 17
0.0
 27
0.0
 37
0.0
 40
1000.0
 41
1.34
 42
50.0
 43
0.0
 44
0.0
 50
0.0
 51
0.0
 71
0
 72
1000
 73
1
 74
3
 75
0
 76
0
 77
0
 78
0
281
0
 65
0
146
0.0
  0
ENDTAB
  0
TABLE
  2
LTYPE
  5
2
330
0
100
AcDbSymbolTable
 70
3
  0
LTYPE
  5
24
330
2
100
AcDbSymbolTableRecord
100
AcDbLinetypeTableRecord
  2
ByBlock
 70
0
  3

 72
65
 73
0
 40
0.0
  0
LTYPE
  5
25
330
2
100
AcDbSymbolTableRecord
100
AcDbLinetypeTableRecord
  2
ByLayer
 70
0
  3

 72
65
 73
0
 40
0.0
  0
LTYPE
  5
26
330
2
100
AcDbSymbolTableRecord
100
AcDbLinetypeTableRecord
  2
Continuous
 70
0
  3

 72
65
 73
0
 40
0.0
  0
ENDTAB
  0
TABLE
  2
LAYER
  5
1
330
0
100
AcDbSymbolTable
 70
6
  0
LAYER
  5
27
330
1
100
AcDbSymbolTableRecord
100
AcDbLayerTableRecord
  2
0
 70
0
 62
7
  6
Continuous
370
-3
390
13
347
21
  0
LAYER
  5
28
330
1
100
AcDbSymbolTableRecord
100
AcDbLayerTableRecord
  2
Defpoints
 70
0
 62
7
  6
Continuous
290
0
370
-3
390
13
347
21
  0
LAYER
  5
2F
330
1
100
AcDbSymbolTableRecord
100
AcDbLayerTableRecord
  2
FILL_BLACK_000000
 70
0
 62
7
420
0
  6
Continuous
370
-3
390
13
347
21
  0
LAYER
  5
32
330
1
100
AcDbSymbolTableRecord
100
AcDbLayerTableRecord
  2
FILL_WHITE_FFFFFF
 70
0
 62
7
420
16777215
  6
Continuous
370
-3
390
13
347
21
  0
LAYER
  5
40
330
1
100
AcDbSymbolTableRecord
100
AcDbLayerTableRecord
  2
STROKE_BLACK_000000
 70
0
 62
7
420
0
  6
Continuous
370
-3
390
13
347
21
  0
LAYER
  5
43
330
1
100
AcDbSymbolTableRecord
100
AcDbLayerTableRecord
  2
STROKE_WHITE_FFFFFF
 70
0
 62
7
420
16777215
  6
Continuous
370
-3
390
13
347
21
  0
ENDTAB
  0
TABLE
  2
STYLE
  5
5
330
0
100
AcDbSymbolTable
 70
1
  0
STYLE
  5
29
330
5
100
AcDbSymbolTableRecord
100
AcDbTextStyleTableRecord
  2
Standard
 70
0
 40
0.0
 41
1.0
 50
0.0
 71
0
 42
2.5
  3
txt
  4

  0
ENDTAB
  0
TABLE
  2
VIEW
  5
7
330
0
100
AcDbSymbolTable
 70
0
  0
ENDTAB
  0
TABLE
  2
UCS
  5
6
330
0
100
AcDbSymbolTable
 70
0
  0
ENDTAB
  0
TABLE
  2
APPID
  5
3
330
0
100
AcDbSymbolTable
 70
3
  0
APPID
  5
2A
330
3
100
AcDbSymbolTableRecord
100
AcDbRegAppTableRecord
  2
ACAD
 70
0
  0
APPID
  5
46
330
3
100
AcDbSymbolTableRecord
100
AcDbRegAppTableRecord
  2
HATCHBACKGROUNDCOLOR
 70
0
  0
APPID
  5
47
330
3
100
AcDbSymbolTableRecord
100
AcDbRegAppTableRecord
  2
EZDXF
 70
0
  0
ENDTAB
  0
TABLE
  2
DIMSTYLE
  5
4
330
0
100
AcDbSymbolTable
 70
1
100
AcDbDimStyleTable
  0
DIMSTYLE
105
2B
330
4
100
AcDbSymbolTableRecord
100
AcDbDimStyleTableRecord
  2
Standard
 70
0
 40
1.0
 41
2.5
 42
0.625
 43
3.75
 44
1.25
 45
0.0
 46
0.0
 47
0.0
 48
0.0
 49
2.5
140
2.5
141
2.5
142
0.0
143
0.03937007874
144
1.0
145
0.0
146
1.0
147
0.625
148
0.0
 69
0
 70
0
 71
0
 72
0
 73
0
 74
0
 75
0
 76
0
 77
1
 78
8
 79
3
170
0
171
3
172
1
173
0
174
0
175
0
176
0
177
0
178
0
179
2
271
2
272
2
273
2
274
3
275
0
276
0
277
2
278
44
279
0
280
0
281
0
282
0
283
0
284
8
285
0
286
0
288
0
289
3
290
0
371
-2
372
-2
  0
ENDTAB
  0
TABLE
  2
BLOCK_RECORD
  5
9
330
0
100
AcDbSymbolTable
 70
2
  0
BLOCK_RECORD
  5
17
330
9
100
AcDbSymbolTableRecord
100
AcDbBlockTableRecord
  2
*Model_Space
340
1A
 70
0
280
1
281
0
  0
BLOCK_RECORD
  5
1B
330
9
100
AcDbSymbolTableRecord
100
AcDbBlockTableRecord
  2
*Paper_Space
340
1E
 70
0
280
1
281
0
  0
ENDTAB
  0
ENDSEC
  0
SECTION
  2
BLOCKS
  0
BLOCK
  5
18
330
17
100
AcDbEntity
  8
0
100
AcDbBlockBegin
  2
*Model_Space
 70
0
 10
0.0
 20
0.0
 30
0.0
  3
*Model_Space
  1

  0
ENDBLK
  5
19
330
17
100
AcDbEntity
  8
0
100
AcDbBlockEnd
  0
BLOCK
  5
1C
330
1B
100
AcDbEntity
  8
0
100
AcDbBlockBegin
  2
*Paper_Space
 70
0
 10
0.0
 20
0.0
 30
0.0
  3
*Paper_Space
  1

  0
ENDBLK
  5
1D
330
1B
100
AcDbEntity
  8
0
100
AcDbBlockEnd
  0
ENDSEC
  0
SECTION
  2
ENTITIES
  0
HATCH
  5
30
330
17
100
AcDbEntity
  8
FILL_BLACK_000000
 62
7
420
0
100
AcDbHatch
 10
0.0
 20
0.0
 30
0.0
210
0.0
220
0.0
230
1.0
  2
SOLID
 70
1
 71
0
 91
1
 92
3
 72
0
 73
1
 93
31
 10
75.38
 20
230.07
 10
76.46
 20
230.93
 10
77.71
 20
231.51
 10
78.38
 20
231.67
 10
79.05
 20
231.72
 10
547.95
 20
231.72
 10
549.04
 20
231.61
 10
550.06
 20
231.3
 10
550.98
 20
230.8
 10
551.78
 20
230.15
 10
552.43
 20
229.35
 10
552.93
 20
228.43
 10
553.24
 20
227.41
 10
553.35
 20
226.32
 10
553.35
 20
47.22
 10
553.24
 20
46.28
 10
552.94
 20
45.31
 10
552.46
 20
44.39
 10
551.85
 20
43.62
 10
550.95
 20
42.88
 10
550.01
 20
42.42
 10
549.02
 20
42.19
 10
547.95
 20
42.12
 10
79.05
 20
42.12
 10
77.71
 20
42.28
 10
76.46
 20
42.76
 10
75.38
 20
43.51
 10
74.55
 20
44.52
 10
21.15
 20
136.92
 10
74.55
 20
229.02
 10
75.38
 20
230.07
 97
0
 75
1
 76
1
 98
0
  0
LWPOLYLINE
  5
31
330
17
100
AcDbEntity
  8
FILL_BLACK_000000
370
0
420
0
100
AcDbPolyline
 90
30
 70
1
 10
75.38
 20
230.07
 10
76.46
 20
230.93
 10
77.71
 20
231.51
 10
78.38
 20
231.67
 10
79.05
 20
231.72
 10
547.95
 20
231.72
 10
549.04
 20
231.61
 10
550.06
 20
231.3
 10
550.98
 20
230.8
 10
551.78
 20
230.15
 10
552.43
 20
229.35
 10
552.93
 20
228.43
 10
553.24
 20
227.41
 10
553.35
 20
226.32
 10
553.35
 20
47.22
 10
553.24
 20
46.28
 10
552.94
 20
45.31
 10
552.46
 20
44.39
 10
551.85
 20
43.62
 10
550.95
 20
42.88
 10
550.01
 20
42.42
 10
549.02
 20
42.19
 10
547.95
 20
42.12
 10
79.05
 20
42.12
 10
77.71
 20
42.28
 10
76.46
 20
42.76
 10
75.38
 20
43.51
 10
74.55
 20
44.52
 10
21.15
 20
136.92
 10
74.55
 20
229.02
  0
HATCH
  5
33
330
17
100
AcDbEntity
  8
FILL_WHITE_FFFFFF
 62
7
420
16777215
100
AcDbHatch
 10
0.0
 20
0.0
 30
0.0
210
0.0
220
0.0
230
1.0
  2
SOLID
 70
1
 71
0
 91
1
 92
3
 72
0
 73
1
 93
7
 10
89.85
 20
222.42
 10
114.75
 20
222.42
 10
65.55
 20
136.92
 10
114.75
 20
51.12
 10
89.85
 20
51.12
 10
40.35
 20
136.92
 10
89.85
 20
222.42
 97
0
 75
1
 76
1
 98
0
  0
LWPOLYLINE
  5
34
330
17
100
AcDbEntity
  8
FILL_WHITE_FFFFFF
370
0
420
16777215
100
AcDbPolyline
 90
6
 70
1
 10
89.85
 20
222.42
 10
114.75
 20
222.42
 10
65.55
 20
136.92
 10
114.75
 20
51.12
 10
89.85
 20
51.12
 10
40.35
 20
136.92
  0
HATCH
  5
35
330
17
100
AcDbEntity
  8
FILL_WHITE_FFFFFF
 62
7
420
16777215
100
AcDbHatch
 10
0.0
 20
0.0
 30
0.0
210
0.0
220
0.0
230
1.0
  2
SOLID
 70
1
 71
0
 91
1
 92
3
 72
0
 73
1
 93
67
 10
537.75
 20
74.22
 10
526.35
 20
69.42
 10
509.55
 20
65.22
 10
493.35
 20
63.72
 10
477.75
 20
64.32
 10
463.05
 20
65.82
 10
448.95
 20
67.62
 10
435.75
 20
69.12
 10
423.45
 20
70.32
 10
411.45
 20
70.32
 10
399.45
 20
69.42
 10
387.15
 20
68.22
 10
374.55
 20
66.42
 10
361.95
 20
64.32
 10
349.05
 20
62.52
 10
336.15
 20
61.32
 10
322.95
 20
60.72
 10
310.05
 20
61.32
 10
297.75
 20
62.52
 10
286.05
 20
64.32
 10
274.65
 20
66.42
 10
263.85
 20
68.22
 10
253.05
 20
69.42
 10
242.55
 20
70.32
 10
232.05
 20
70.32
 10
220.95
 20
69.12
 10
208.65
 20
67.62
 10
195.15
 20
65.52
 10
181.05
 20
63.72
 10
166.35
 20
62.82
 10
150.75
 20
63.42
 10
134.55
 20
66.42
 10
122.55
 20
70.62
 10
124.35
 20
75.72
 10
136.35
 20
71.52
 10
151.35
 20
68.82
 10
166.05
 20
68.22
 10
180.45
 20
69.12
 10
194.25
 20
70.92
 10
207.45
 20
72.72
 10
220.05
 20
74.52
 10
231.75
 20
75.72
 10
242.85
 20
75.72
 10
253.95
 20
74.82
 10
264.75
 20
73.62
 10
275.85
 20
71.82
 10
287.25
 20
69.72
 10
298.65
 20
67.92
 10
310.65
 20
66.72
 10
322.95
 20
66.12
 10
335.55
 20
66.72
 10
348.45
 20
67.92
 10
361.05
 20
69.72
 10
373.65
 20
71.52
 10
386.25
 20
73.32
 10
398.85
 20
74.82
 10
411.45
 20
75.72
 10
423.75
 20
75.72
 10
436.65
 20
74.52
 10
449.85
 20
73.02
 10
463.65
 20
70.92
 10
478.05
 20
69.72
 10
493.05
 20
69.12
 10
508.35
 20
70.62
 10
524.25
 20
74.22
 10
535.65
 20
79.32
 10
537.75
 20
74.22
 97
0
 75
1
 76
1
 98
0
  0
LWPOLYLINE
  5
36
330
17
100
AcDbEntity
  8
FILL_WHITE_FFFFFF
370
0
420
16777215
100
AcDbPolyline
 90
66
 70
1
 10
537.75
 20
74.22
 10
526.35
 20
69.42
 10
509.55
 20
65.22
 10
493.35
 20
63.72
 10
477.75
 20
64.32
 10
463.05
 20
65.82
 10
448.95
 20
67.62
 10
435.75
 20
69.12
 10
423.45
 20
70.32
 10
411.45
 20
70.32
 10
399.45
 20
69.42
 10
387.15
 20
68.22
 10
374.55
 20
66.42
 10
361.95
 20
64.32
 10
349.05
 20
62.52
 10
336.15
 20
61.32
 10
322.95
 20
60.72
 10
310.05
 20
61.32
 10
297.75
 20
62.52
 10
286.05
 20
64.32
 10
274.65
 20
66.42
 10
263.85
 20
68.22
 10
253.05
 20
69.42
 10
242.55
 20
70.32
 10
232.05
 20
70.32
 10
220.95
 20
69.12
 10
208.65
 20
67.62
 10
195.15
 20
65.52
 10
181.05
 20
63.72
 10
166.35
 20
62.82
 10
150.75
 20
63.42
 10
134.55
 20
66.42
 10
122.55
 20
70.62
 10
124.35
 20
75.72
 10
136.35
 20
71.52
 10
151.35
 20
68.82
 10
166.05
 20
68.22
 10
180.45
 20
69.12
 10
194.25
 20
70.92
 10
207.45
 20
72.72
 10
220.05
 20
74.52
 10
231.75
 20
75.72
 10
242.85
 20
75.72
 10
253.95
 20
74.82
 10
264.75
 20
73.62
 10
275.85
 20
71.82
 10
287.25
 20
69.72
 10
298.65
 20
67.92
 10
310.65
 20
66.72
 10
322.95
 20
66.12
 10
335.55
 20
66.72
 10
348.45
 20
67.92
 10
361.05
 20
69.72
 10
373.65
 20
71.52
 10
386.25
 20
73.32
 10
398.85
 20
74.82
 10
411.45
 20
75.72
 10
423.75
 20
75.72
 10
436.65
 20
74.52
 10
449.85
 20
73.02
 10
463.65
 20
70.92
 10
478.05
 20
69.72
 10
493.05
 20
69.12
 10
508.35
 20
70.62
 10
524.25
 20
74.22
 10
535.65
 20
79.32
  0
HATCH
  5
37
330
17
100
AcDbEntity
  8
FILL_WHITE_FFFFFF
 62
7
420
16777215
100
AcDbHatch
 10
0.0
 20
0.0
 30
0.0
210
0.0
220
0.0
230
1.0
  2
SOLID
 70
1
 71
0
 91
8
 92
3
 72
0
 73
1
 93
56
 10
436.95
 20
198.12
 10
482.25
 20
198.12
 10
498.45
 20
108.72
 10
514.65
 20
108.72
 10
506.55
 20
88.02
 10
519.15
 20
91.02
 10
532.35
 20
96.72
 10
534.45
 20
92.52
 10
520.65
 20
86.52
 10
506.55
 20
83.22
 10
492.75
 20
82.02
 10
478.65
 20
82.32
 10
465.15
 20
83.82
 10
451.35
 20
85.62
 10
437.85
 20
87.42
 10
424.35
 20
88.32
 10
411.15
 20
88.62
 10
397.95
 20
87.72
 10
384.75
 20
86.22
 10
372.15
 20
84.42
 10
359.55
 20
82.32
 10
346.95
 20
80.82
 10
334.95
 20
79.62
 10
322.95
 20
79.02
 10
311.55
 20
79.62
 10
300.15
 20
80.82
 10
289.05
 20
82.32
 10
277.65
 20
84.42
 10
266.25
 20
86.22
 10
254.85
 20
87.72
 10
243.15
 20
88.62
 10
231.15
 20
88.32
 10
218.85
 20
87.42
 10
205.95
 20
85.62
 10
192.75
 20
83.52
 10
179.55
 20
82.02
 10
166.05
 20
81.12
 10
152.55
 20
81.72
 10
139.05
 20
84.12
 10
125.85
 20
88.92
 10
127.35
 20
93.12
 10
140.25
 20
88.62
 10
153.15
 20
86.22
 10
157.05
 20
86.22
 10
157.35
 20
85.62
 10
148.05
 20
108.72
 10
161.25
 20
108.72
 10
175.95
 20
197.52
 10
220.35
 20
197.52
 10
227.55
 20
184.92
 10
303.75
 20
184.92
 10
306.45
 20
212.82
 10
352.95
 20
212.82
 10
357.45
 20
184.92
 10
433.05
 20
184.92
 10
436.95
 20
198.12
 97
0
 92
18
 72
0
 73
1
 93
5
 10
323.85
 20
125.82
 10
367.05
 20
125.82
 10
367.05
 20
138.12
 10
323.85
 20
138.12
 10
323.85
 20
125.82
 97
0
 92
18
 72
0
 73
1
 93
13
 10
211.37
 20
111.7
 10
210.98
 20
111.16
 10
209.85
 20
110.22
 10
208.5
 20
109.36
 10
207.15
 20
108.72
 10
244.05
 20
108.72
 10
242.74
 20
109.36
 10
241.65
 20
110.22
 10
241.03
 20
110.54
 10
240.49
 20
111.01
 10
239.55
 20
112.02
 10
211.65
 20
112.32
 10
211.37
 20
111.7
 97
0
 92
18
 72
0
 73
1
 93
16
 10
341.91
 20
114.12
 10
341.85
 20
115.02
 10
314.55
 20
115.02
 10
314.49
 20
114.12
 10
314.33
 20
113.22
 10
314.04
 20
112.32
 10
313.65
 20
111.42
 10
312.53
 20
110.07
 10
310.95
 20
108.72
 10
345.15
 20
108.72
 10
344.48
 20
109.27
 10
343.84
 20
109.96
 10
342.75
 20
111.42
 10
342.36
 20
112.32
 10
342.08
 20
113.22
 10
341.91
 20
114.12
 97
0
 92
18
 72
0
 73
1
 93
9
 10
411.41
 20
111.5
 10
410.85
 20
110.45
 10
410.06
 20
109.5
 10
409.05
 20
108.72
 10
445.05
 20
108.72
 10
443.55
 20
110.22
 10
442.65
 20
112.32
 10
411.75
 20
112.62
 10
411.41
 20
111.5
 97
0
 92
18
 72
0
 73
1
 93
22
 10
388.35
 20
108.72
 10
401.25
 20
108.72
 10
400.41
 20
109.63
 10
399.71
 20
110.6
 10
399.18
 20
111.67
 10
398.85
 20
112.92
 10
395.85
 20
112.92
 10
397.05
 20
120.72
 10
412.05
 20
122.52
 10
415.95
 20
133.02
 10
446.25
 20
129.72
 10
449.25
 20
119.82
 10
461.85
 20
118.32
 10
463.95
 20
112.02
 10
454.95
 20
112.02
 10
454.05
 20
110.22
 10
453.15
 20
109.32
 10
452.55
 20
108.72
 10
472.35
 20
108.72
 10
472.35
 20
162.72
 10
388.35
 20
162.72
 10
388.35
 20
108.72
 97
0
 92
18
 72
0
 73
1
 93
25
 10
278.55
 20
162.72
 10
278.55
 20
108.72
 10
302.85
 20
108.72
 10
302.11
 20
109.32
 10
301.45
 20
110.0
 10
300.88
 20
110.74
 10
300.41
 20
111.53
 10
300.04
 20
112.37
 10
299.77
 20
113.23
 10
299.61
 20
114.12
 10
299.55
 20
115.02
 10
291.15
 20
115.02
 10
293.25
 20
124.32
 10
307.05
 20
127.02
 10
311.55
 20
141.72
 10
369.15
 20
141.72
 10
369.15
 20
114.72
 10
356.25
 20
114.72
 10
356.03
 20
113.18
 10
355.35
 20
111.42
 10
354.45
 20
109.92
 10
352.95
 20
108.72
 10
379.05
 20
108.72
 10
379.05
 20
162.72
 10
278.55
 20
162.72
 97
0
 92
18
 72
0
 73
1
 93
23
 10
269.25
 20
162.72
 10
188.25
 20
162.72
 10
188.25
 20
108.72
 10
202.65
 20
108.72
 10
200.97
 20
109.51
 10
199.54
 20
110.52
 10
198.39
 20
111.76
 10
197.55
 20
113.22
 10
193.65
 20
113.22
 10
195.45
 20
120.42
 10
212.25
 20
122.52
 10
216.75
 20
134.52
 10
243.45
 20
134.52
 10
249.45
 20
121.02
 10
260.85
 20
119.82
 10
263.85
 20
111.42
 10
253.05
 20
111.42
 10
252.15
 20
110.58
 10
251.21
 20
109.85
 10
250.22
 20
109.23
 10
249.15
 20
108.72
 10
269.25
 20
108.72
 10
269.25
 20
162.72
 97
0
 75
1
 76
1
 98
0
  0
LWPOLYLINE
  5
38
330
17
100
AcDbEntity
  8
FILL_WHITE_FFFFFF
370
0
420
0
100
AcDbPolyline
 90
55
 70
1
 10
436.95
 20
198.12
 10
482.25
 20
198.12
 10
498.45
 20
108.72
 10
514.65
 20
108.72
 10
506.55
 20
88.02
 10
519.15
 20
91.02
 10
532.35
 20
96.72
 10
534.45
 20
92.52
 10
520.65
 20
86.52
 10
506.55
 20
83.22
 10
492.75
 20
82.02
 10
478.65
 20
82.32
 10
465.15
 20
83.82
 10
451.35
 20
85.62
 10
437.85
 20
87.42
 10
424.35
 20
88.32
 10
411.15
 20
88.62
 10
397.95
 20
87.72
 10
384.75
 20
86.22
 10
372.15
 20
84.42
 10
359.55
 20
82.32
 10
346.95
 20
80.82
 10
334.95
 20
79.62
 10
322.95
 20
79.02
 10
311.55
 20
79.62
 10
300.15
 20
80.82
 10
289.05
 20
82.32
 10
277.65
 20
84.42
 10
266.25
 20
86.22
 10
254.85
 20
87.72
 10
243.15
 20
88.62
 10
231.15
 20
88.32
 10
218.85
 20
87.42
 10
205.95
 20
85.62
 10
192.75
 20
83.52
 10
179.55
 20
82.02
 10
166.05
 20
81.12
 10
152.55
 20
81.72
 10
139.05
 20
84.12
 10
125.85
 20
88.92
 10
127.35
 20
93.12
 10
140.25
 20
88.62
 10
153.15
 20
86.22
 10
157.05
 20
86.22
 10
157.35
 20
85.62
 10
148.05
 20
108.72
 10
161.25
 20
108.72
 10
175.95
 20
197.52
 10
220.35
 20
197.52
 10
227.55
 20
184.92
 10
303.75
 20
184.92
 10
306.45
 20
212.82
 10
352.95
 20
212.82
 10
357.45
 20
184.92
 10
433.05
 20
184.92
  0
LWPOLYLINE
  5
39
330
17
100
AcDbEntity
  8
FILL_WHITE_FFFFFF
370
0
420
0
100
AcDbPolyline
 90
4
 70
1
 10
323.85
 20
125.82
 10
367.05
 20
125.82
 10
367.05
 20
138.12
 10
323.85
 20
138.12
  0
LWPOLYLINE
  5
3A
330
17
100
AcDbEntity
  8
FILL_WHITE_FFFFFF
370
0
420
0
100
AcDbPolyline
 90
12
 70
1
 10
211.37
 20
111.7
 10
210.98
 20
111.16
 10
209.85
 20
110.22
 10
208.5
 20
109.36
 10
207.15
 20
108.72
 10
244.05
 20
108.72
 10
242.74
 20
109.36
 10
241.65
 20
110.22
 10
241.03
 20
110.54
 10
240.49
 20
111.01
 10
239.55
 20
112.02
 10
211.65
 20
112.32
  0
LWPOLYLINE
  5
3B
330
17
100
AcDbEntity
  8
FILL_WHITE_FFFFFF
370
0
420
0
100
AcDbPolyline
 90
15
 70
1
 10
341.91
 20
114.12
 10
341.85
 20
115.02
 10
314.55
 20
115.02
 10
314.49
 20
114.12
 10
314.33
 20
113.22
 10
314.04
 20
112.32
 10
313.65
 20
111.42
 10
312.53
 20
110.07
 10
310.95
 20
108.72
 10
345.15
 20
108.72
 10
344.48
 20
109.27
 10
343.84
 20
109.96
 10
342.75
 20
111.42
 10
342.36
 20
112.32
 10
342.08
 20
113.22
  0
LWPOLYLINE
  5
3C
330
17
100
AcDbEntity
  8
FILL_WHITE_FFFFFF
370
0
420
0
100
AcDbPolyline
 90
8
 70
1
 10
411.41
 20
111.5
 10
410.85
 20
110.45
 10
410.06
 20
109.5
 10
409.05
 20
108.72
 10
445.05
 20
108.72
 10
443.55
 20
110.22
 10
442.65
 20
112.32
 10
411.75
 20
112.62
  0
LWPOLYLINE
  5
3D
330
17
100
AcDbEntity
  8
FILL_WHITE_FFFFFF
370
0
420
0
100
AcDbPolyline
 90
21
 70
1
 10
388.35
 20
108.72
 10
401.25
 20
108.72
 10
400.41
 20
109.63
 10
399.71
 20
110.6
 10
399.18
 20
111.67
 10
398.85
 20
112.92
 10
395.85
 20
112.92
 10
397.05
 20
120.72
 10
412.05
 20
122.52
 10
415.95
 20
133.02
 10
446.25
 20
129.72
 10
449.25
 20
119.82
 10
461.85
 20
118.32
 10
463.95
 20
112.02
 10
454.95
 20
112.02
 10
454.05
 20
110.22
 10
453.15
 20
109.32
 10
452.55
 20
108.72
 10
472.35
 20
108.72
 10
472.35
 20
162.72
 10
388.35
 20
162.72
  0
LWPOLYLINE
  5
3E
330
17
100
AcDbEntity
  8
FILL_WHITE_FFFFFF
370
0
420
0
100
AcDbPolyline
 90
24
 70
1
 10
278.55
 20
162.72
 10
278.55
 20
108.72
 10
302.85
 20
108.72
 10
302.11
 20
109.32
 10
301.45
 20
110.0
 10
300.88
 20
110.74
 10
300.41
 20
111.53
 10
300.04
 20
112.37
 10
299.77
 20
113.23
 10
299.61
 20
114.12
 10
299.55
 20
115.02
 10
291.15
 20
115.02
 10
293.25
 20
124.32
 10
307.05
 20
127.02
 10
311.55
 20
141.72
 10
369.15
 20
141.72
 10
369.15
 20
114.72
 10
356.25
 20
114.72
 10
356.03
 20
113.18
 10
355.35
 20
111.42
 10
354.45
 20
109.92
 10
352.95
 20
108.72
 10
379.05
 20
108.72
 10
379.05
 20
162.72
  0
LWPOLYLINE
  5
3F
330
17
100
AcDbEntity
  8
FILL_WHITE_FFFFFF
370
0
420
0
100
AcDbPolyline
 90
22
 70
1
 10
269.25
 20
162.72
 10
188.25
 20
162.72
 10
188.25
 20
108.72
 10
202.65
 20
108.72
 10
200.97
 20
109.51
 10
199.54
 20
110.52
 10
198.39
 20
111.76
 10
197.55
 20
113.22
 10
193.65
 20
113.22
 10
195.45
 20
120.42
 10
212.25
 20
122.52
 10
216.75
 20
134.52
 10
243.45
 20
134.52
 10
249.45
 20
121.02
 10
260.85
 20
119.82
 10
263.85
 20
111.42
 10
253.05
 20
111.42
 10
252.15
 20
110.58
 10
251.21
 20
109.85
 10
250.22
 20
109.23
 10
249.15
 20
108.72
 10
269.25
 20
108.72
  0
LWPOLYLINE
  5
41
330
17
100
AcDbEntity
  8
STROKE_BLACK_000000
370
0
420
0
100
AcDbPolyline
 90
2
 70
0
 10
74.55000000000018
 20
229.01999999999998
 10
74.85000000000014
 20
229.01999999999998
  0
LWPOLYLINE
  5
42
330
17
100
AcDbEntity
  8
STROKE_BLACK_000000
370
0
420
0
100
AcDbPolyline
 90
47
 70
0
 10
70.05000000000018
 20
231.72000000000003
 10
70.79355468750018
 20
232.80046875000002
 10
71.66718750000015
 20
233.78250000000006
 10
72.66035156250014
 20
234.65203125000005
 10
73.76250000000013
 20
235.3950000000001
 10
74.96308593750014
 20
235.9973437500001
 10
76.25156250000013
 20
236.44500000000014
 10
77.61738281250015
 20
236.72390625000017
 10
79.05000000000018
 20
236.82000000000016
 10
547.95
 20
236.82000000000016
 10
549.0474609375001
 20
236.76492187500017
 10
550.0921875
 20
236.60437500000015
 10
551.0876953125
 20
236.34539062500016
 10
552.0375
 20
235.99500000000015
 10
553.8140625000001
 20
235.04812500000014
 10
555.45
 20
233.82000000000016
 10
556.6781250000001
 20
232.1840625000001
 10
557.6250000000001
 20
230.4075000000001
 10
557.975390625
 20
229.4576953125001
 10
558.234375
 20
228.46218750000014
 10
558.394921875
 20
227.41746093750015
 10
558.45
 20
226.32000000000016
 10
558.45
 20
47.22000000000003
 10
558.394921875
 20
46.2092578125
 10
558.234375
 20
45.209062500000044
 10
557.6250000000001
 20
43.282500000000056
 10
556.6781250000001
 20
41.52468750000003
 10
555.45
 20
40.01999999999998
 10
554.6478515625
 20
39.288164062500016
 10
553.8140625000001
 20
38.66531250000003
 10
552.9451171875002
 20
38.14792968750001
 10
552.0375
 20
37.732500000000016
 10
551.0876953125
 20
37.41550781250004
 10
550.0921875000001
 20
37.19343749999999
 10
547.95
 20
37.01999999999998
 10
79.05000000000018
 20
37.01999999999998
 10
77.61738281250015
 20
37.1037890625
 10
76.25156250000013
 20
37.35281250000003
 10
74.96308593750014
 20
37.76355468750006
 10
73.76250000000013
 20
38.33250000000007
 10
72.66035156250014
 20
39.056132812500095
 10
71.66718750000015
 20
39.93093750000011
 10
70.79355468750018
 20
40.95339843750014
 10
70.05000000000018
 20
42.12000000000012
 10
16.65000000000009
 20
134.22000000000003
 10
16.65000000000009
 20
139.32000000000016
 10
70.05000000000018
 20
231.72000000000003
  0
LWPOLYLINE
  5
44
330
17
100
AcDbEntity
  8
STROKE_WHITE_FFFFFF
370
0
420
16777215
100
AcDbPolyline
 90
2
 70
0
 10
401.2500000000002
 20
108.72000000000003
 10
401.54999999999995
 20
108.72000000000003
  0
LWPOLYLINE
  5
45
330
17
100
AcDbEntity
  8
STROKE_WHITE_FFFFFF
370
0
420
16777215
100
AcDbPolyline
 90
2
 70
0
 10
398.85000000000014
 20
112.92000000000007
 10
399.14999999999986
 20
112.92000000000007
  0
ENDSEC
  0
SECTION
  2
OBJECTS
  0
DICTIONARY
  5
A
330
0
100
AcDbDictionary
281
1
  3
ACAD_COLOR
350
B
  3
ACAD_GROUP
350
C
  3
ACAD_LAYOUT
350
D
  3
ACAD_MATERIAL
350
E
  3
ACAD_MLEADERSTYLE
350
F
  3
ACAD_MLINESTYLE
350
10
  3
ACAD_PLOTSETTINGS
350
11
  3
ACAD_PLOTSTYLENAME
350
12
  3
ACAD_SCALELIST
350
14
  3
ACAD_TABLESTYLE
350
15
  3
ACAD_VISUALSTYLE
350
16
  3
EZDXF_META
350
2D
  0
DICTIONARY
  5
B
330
A
100
AcDbDictionary
281
1
  0
DICTIONARY
  5
C
330
A
100
AcDbDictionary
281
1
  0
DICTIONARY
  5
D
330
A
100
AcDbDictionary
281
1
  3
Model
350
1A
  3
Layout1
350
1E
  0
DICTIONARY
  5
E
330
A
100
AcDbDictionary
281
1
  3
ByBlock
350
1F
  3
ByLayer
350
20
  3
Global
350
21
  0
DICTIONARY
  5
F
330
A
100
AcDbDictionary
281
1
  3
Standard
350
2C
  0
DICTIONARY
  5
10
330
A
100
AcDbDictionary
281
1
  3
Standard
350
22
  0
DICTIONARY
  5
11
330
A
100
AcDbDictionary
281
1
  0
ACDBDICTIONARYWDFLT
  5
12
330
A
100
AcDbDictionary
281
1
  3
Normal
350
13
100
AcDbDictionaryWithDefault
340
13
  0
ACDBPLACEHOLDER
  5
13
330
12
  0
DICTIONARY
  5
14
330
A
100
AcDbDictionary
281
1
  0
DICTIONARY
  5
15
330
A
100
AcDbDictionary
281
1
  0
DICTIONARY
  5
16
330
A
100
AcDbDictionary
281
1
  0
LAYOUT
  5
1A
330
D
100
AcDbPlotSettings
  1

  4
A3
  6

 40
7.5
 41
20.0
 42
7.5
 43
20.0
 44
420.0
 45
297.0
 46
0.0
 47
0.0
 48
0.0
 49
0.0
140
0.0
141
0.0
142
1.0
143
1.0
 70
1024
 72
1
 73
0
 74
5
  7

 75
16
 76
0
 77
2
 78
300
147
1.0
148
0.0
149
0.0
100
AcDbLayout
  1
Model
 70
1
 71
0
 10
0.0
 20
0.0
 11
420.0
 21
297.0
 12
0.0
 22
0.0
 32
0.0
 14
1e+20
 24
1e+20
 34
1e+20
 15
-1e+20
 25
-1e+20
 35
-1e+20
146
0.0
 13
0.0
 23
0.0
 33
0.0
 16
1.0
 26
0.0
 36
0.0
 17
0.0
 27
1.0
 37
0.0
 76
1
330
17
  0
LAYOUT
  5
1E
330
D
100
AcDbPlotSettings
  1

  4
A3
  6

 40
7.5
 41
20.0
 42
7.5
 43
20.0
 44
420.0
 45
297.0
 46
0.0
 47
0.0
 48
0.0
 49
0.0
140
0.0
141
0.0
142
1.0
143
1.0
 70
0
 72
1
 73
0
 74
5
  7

 75
16
 76
0
 77
2
 78
300
147
1.0
148
0.0
149
0.0
100
AcDbLayout
  1
Layout1
 70
1
 71
1
 10
0.0
 20
0.0
 11
420.0
 21
297.0
 12
0.0
 22
0.0
 32
0.0
 14
1e+20
 24
1e+20
 34
1e+20
 15
-1e+20
 25
-1e+20
 35
-1e+20
146
0.0
 13
0.0
 23
0.0
 33
0.0
 16
1.0
 26
0.0
 36
0.0
 17
0.0
 27
1.0
 37
0.0
 76
1
330
1B
  0
MATERIAL
  5
1F
102
{ACAD_REACTORS
330
E
102
}
330
E
100
AcDbMaterial
  1
ByBlock
  2

 70
0
 40
1.0
 71
1
 41
1.0
 91
-1023410177
 42
1.0
 72
1
  3

 73
1
 74
1
 75
1
 44
0.5
 73
0
 45
1.0
 46
1.0
 77
1
  4

 78
1
 79
1
170
1
 48
1.0
171
1
  6

172
1
173
1
174
1
140
1.0
141
1.0
175
1
  7

176
1
177
1
178
1
143
1.0
179
1
  8

270
1
271
1
272
1
145
1.0
146
1.0
273
1
  9

274
1
275
1
276
1
 42
1.0
 72
1
  3

 73
1
 74
1
 75
1
 94
63
  0
MATERIAL
  5
20
102
{ACAD_REACTORS
330
E
102
}
330
E
100
AcDbMaterial
  1
ByLayer
  2

 70
0
 40
1.0
 71
1
 41
1.0
 91
-1023410177
 42
1.0
 72
1
  3

 73
1
 74
1
 75
1
 44
0.5
 73
0
 45
1.0
 46
1.0
 77
1
  4

 78
1
 79
1
170
1
 48
1.0
171
1
  6

172
1
173
1
174
1
140
1.0
141
1.0
175
1
  7

176
1
177
1
178
1
143
1.0
179
1
  8

270
1
271
1
272
1
145
1.0
146
1.0
273
1
  9

274
1
275
1
276
1
 42
1.0
 72
1
  3

 73
1
 74
1
 75
1
 94
63
  0
MATERIAL
  5
21
102
{ACAD_REACTORS
330
E
102
}
330
E
100
AcDbMaterial
  1
Global
  2

 70
0
 40
1.0
 71
1
 41
1.0
 91
-1023410177
 42
1.0
 72
1
  3

 73
1
 74
1
 75
1
 44
0.5
 73
0
 45
1.0
 46
1.0
 77
1
  4

 78
1
 79
1
170
1
 48
1.0
171
1
  6

172
1
173
1
174
1
140
1.0
141
1.0
175
1
  7

176
1
177
1
178
1
143
1.0
179
1
  8

270
1
271
1
272
1
145
1.0
146
1.0
273
1
  9

274
1
275
1
276
1
 42
1.0
 72
1
  3

 73
1
 74
1
 75
1
 94
63
  0
MLINESTYLE
  5
22
102
{ACAD_REACTORS
330
10
102
}
330
10
100
AcDbMlineStyle
  2
Standard
 70
0
  3

 62
256
 51
90.0
 52
90.0
 71
2
 49
0.5
 62
256
  6
BYLAYER
 49
-0.5
 62
256
  6
BYLAYER
  0
MLEADERSTYLE
  5
2C
102
{ACAD_REACTORS
330
F
102
}
330
F
100
AcDbMLeaderStyle
179
2
170
2
171
1
172
0
 90
2
 40
0.0
 41
0.0
173
1
 91
-1056964608
 92
-2
290
1
 42
2.0
291
1
 43
8.0
  3
Standard
 44
4.0
300

342
29
174
1
175
1
176
0
178
1
 93
-1056964608
 45
4.0
292
0
297
0
 46
4.0
 94
-1056964608
 47
1.0
 49
1.0
140
1.0
294
1
141
0.0
177
0
142
1.0
295
0
296
0
143
3.75
271
0
272
9
273
9
  0
DICTIONARY
  5
2D
330
A
100
AcDbDictionary
280
1
281
1
  3
CREATED_BY_EZDXF
350
2E
  3
WRITTEN_BY_EZDXF
350
48
  0
DICTIONARYVAR
  5
2E
330
2D
100
DictionaryVariables
280
0
  1
1.4.4 @ 2026-07-10T01:54:01.755830+00:00
  0
DICTIONARYVAR
  5
48
330
2D
100
DictionaryVariables
280
0
  1
1.4.4 @ 2026-07-10T01:54:01.759561+00:00
  0
ENDSEC
  0
EOF
