  0
SECTION
  2
HEADER
  9
$ACADVER
  1
AC1024
  9
$ACADMAINTVER
 70
6
  9
$DWGCODEPAGE
  3
ANSI_1252
  9
$LASTSAVEDBY
  1
ezdxf
  9
$INSBASE
 10
0.0
 20
0.0
 30
0.0
  9
$EXTMIN
 10
1e+20
 20
1e+20
 30
1e+20
  9
$EXTMAX
 10
-1e+20
 20
-1e+20
 30
-1e+20
  9
$LIMMIN
 10
0.0
 20
0.0
  9
$LIMMAX
 10
420.0
 20
297.0
  9
$ORTHOMODE
 70
0
  9
$REGENMODE
 70
1
  9
$FILLMODE
 70
1
  9
$QTEXTMODE
 70
0
  9
$MIRRTEXT
 70
1
  9
$LTSCALE
 40
1.0
  9
$ATTMODE
 70
1
  9
$TEXTSIZE
 40
2.5
  9
$TRACEWID
 40
1.0
  9
$TEXTSTYLE
  7
Standard
  9
$CLAYER
  8
0
  9
$CELTYPE
  6
ByLayer
  9
$CECOLOR
 62
256
  9
$CELTSCALE
 40
1.0
  9
$DISPSILH
 70
0
  9
$DIMSCALE
 40
1.0
  9
$DIMASZ
 40
2.5
  9
$DIMEXO
 40
0.625
  9
$DIMDLI
 40
3.75
  9
$DIMRND
 40
0.0
  9
$DIMDLE
 40
0.0
  9
$DIMEXE
 40
1.25
  9
$DIMTP
 40
0.0
  9
$DIMTM
 40
0.0
  9
$DIMTXT
 40
2.5
  9
$DIMCEN
 40
2.5
  9
$DIMTSZ
 40
0.0
  9
$DIMTOL
 70
0
  9
$DIMLIM
 70
0
  9
$DIMTIH
 70
0
  9
$DIMTOH
 70
0
  9
$DIMSE1
 70
0
  9
$DIMSE2
 70
0
  9
$DIMTAD
 70
1
  9
$DIMZIN
 70
8
  9
$DIMBLK
  1

  9
$DIMASO
 70
1
  9
$DIMSHO
 70
1
  9
$DIMPOST
  1

  9
$DIMAPOST
  1

  9
$DIMALT
 70
0
  9
$DIMALTD
 70
3
  9
$DIMALTF
 40
0.03937007874
  9
$DIMLFAC
 40
1.0
  9
$DIMTOFL
 70
1
  9
$DIMTVP
 40
0.0
  9
$DIMTIX
 70
0
  9
$DIMSOXD
 70
0
  9
$DIMSAH
 70
0
  9
$DIMBLK1
  1

  9
$DIMBLK2
  1

  9
$DIMSTYLE
  2
ISO-25
  9
$DIMCLRD
 70
0
  9
$DIMCLRE
 70
0
  9
$DIMCLRT
 70
0
  9
$DIMTFAC
 40
1.0
  9
$DIMGAP
 40
0.625
  9
$DIMJUST
 70
0
  9
$DIMSD1
 70
0
  9
$DIMSD2
 70
0
  9
$DIMTOLJ
 70
0
  9
$DIMTZIN
 70
8
  9
$DIMALTZ
 70
0
  9
$DIMALTTZ
 70
0
  9
$DIMUPT
 70
0
  9
$DIMDEC
 70
2
  9
$DIMTDEC
 70
2
  9
$DIMALTU
 70
2
  9
$DIMALTTD
 70
3
  9
$DIMTXSTY
  7
Standard
  9
$DIMAUNIT
 70
0
  9
$DIMADEC
 70
0
  9
$DIMALTRND
 40
0.0
  9
$DIMAZIN
 70
0
  9
$DIMDSEP
 70
44
  9
$DIMATFIT
 70
3
  9
$DIMFRAC
 70
0
  9
$DIMLDRBLK
  1

  9
$DIMLUNIT
 70
2
  9
$DIMLWD
 70
-2
  9
$DIMLWE
 70
-2
  9
$DIMTMOVE
 70
0
  9
$DIMFXL
 40
1.0
  9
$DIMFXLON
 70
0
  9
$DIMJOGANG
 40
0.785398163397
  9
$DIMTFILL
 70
0
  9
$DIMTFILLCLR
 70
0
  9
$DIMARCSYM
 70
0
  9
$DIMLTYPE
  6

  9
$DIMLTEX1
  6

  9
$DIMLTEX2
  6

  9
$DIMTXTDIRECTION
 70
0
  9
$LUNITS
 70
2
  9
$LUPREC
 70
4
  9
$SKETCHINC
 40
1.0
  9
$FILLETRAD
 40
10.0
  9
$AUNITS
 70
0
  9
$AUPREC
 70
2
  9
$MENU
  1
.
  9
$ELEVATION
 40
0.0
  9
$PELEVATION
 40
0.0
  9
$THICKNESS
 40
0.0
  9
$LIMCHECK
 70
0
  9
$CHAMFERA
 40
0.0
  9
$CHAMFERB
 40
0.0
  9
$CHAMFERC
 40
0.0
  9
$CHAMFERD
 40
0.0
  9
$SKPOLY
 70
0
  9
$TDCREATE
 40
2461232.412523148
  9
$TDUCREATE
 40
2458532.153996898
  9
$TDUPDATE
 40
2461232.412523148
  9
$TDUUPDATE
 40
2458532.1544311
  9
$TDINDWG
 40
0.0
  9
$TDUSRTIMER
 40
0.0
  9
$USRTIMER
 70
1
  9
$ANGBASE
 50
0.0
  9
$ANGDIR
 70
0
  9
$PDMODE
 70
0
  9
$PDSIZE
 40
0.0
  9
$PLINEWID
 40
0.0
  9
$SPLFRAME
 70
0
  9
$SPLINETYPE
 70
6
  9
$SPLINESEGS
 70
8
  9
$HANDSEED
  5
EE
  9
$SURFTAB1
 70
6
  9
$SURFTAB2
 70
6
  9
$SURFTYPE
 70
6
  9
$SURFU
 70
6
  9
$SURFV
 70
6
  9
$UCSBASE
  2

  9
$UCSNAME
  2

  9
$UCSORG
 10
0.0
 20
0.0
 30
0.0
  9
$UCSXDIR
 10
1.0
 20
0.0
 30
0.0
  9
$UCSYDIR
 10
0.0
 20
1.0
 30
0.0
  9
$UCSORTHOREF
  2

  9
$UCSORTHOVIEW
 70
0
  9
$UCSORGTOP
 10
0.0
 20
0.0
 30
0.0
  9
$UCSORGBOTTOM
 10
0.0
 20
0.0
 30
0.0
  9
$UCSORGLEFT
 10
0.0
 20
0.0
 30
0.0
  9
$UCSORGRIGHT
 10
0.0
 20
0.0
 30
0.0
  9
$UCSORGFRONT
 10
0.0
 20
0.0
 30
0.0
  9
$UCSORGBACK
 10
0.0
 20
0.0
 30
0.0
  9
$PUCSBASE
  2

  9
$PUCSNAME
  2

  9
$PUCSORG
 10
0.0
 20
0.0
 30
0.0
  9
$PUCSXDIR
 10
1.0
 20
0.0
 30
0.0
  9
$PUCSYDIR
 10
0.0
 20
1.0
 30
0.0
  9
$PUCSORTHOREF
  2

  9
$PUCSORTHOVIEW
 70
0
  9
$PUCSORGTOP
 10
0.0
 20
0.0
 30
0.0
  9
$PUCSORGBOTTOM
 10
0.0
 20
0.0
 30
0.0
  9
$PUCSORGLEFT
 10
0.0
 20
0.0
 30
0.0
  9
$PUCSORGRIGHT
 10
0.0
 20
0.0
 30
0.0
  9
$PUCSORGFRONT
 10
0.0
 20
0.0
 30
0.0
  9
$PUCSORGBACK
 10
0.0
 20
0.0
 30
0.0
  9
$USERI1
 70
0
  9
$USERI2
 70
0
  9
$USERI3
 70
0
  9
$USERI4
 70
0
  9
$USERI5
 70
0
  9
$USERR1
 40
0.0
  9
$USERR2
 40
0.0
  9
$USERR3
 40
0.0
  9
$USERR4
 40
0.0
  9
$USERR5
 40
0.0
  9
$WORLDVIEW
 70
1
  9
$SHADEDGE
 70
3
  9
$SHADEDIF
 70
70
  9
$TILEMODE
 70
1
  9
$MAXACTVP
 70
64
  9
$PINSBASE
 10
0.0
 20
0.0
 30
0.0
  9
$PLIMCHECK
 70
0
  9
$PEXTMIN
 10
1e+20
 20
1e+20
 30
1e+20
  9
$PEXTMAX
 10
-1e+20
 20
-1e+20
 30
-1e+20
  9
$PLIMMIN
 10
0.0
 20
0.0
  9
$PLIMMAX
 10
420.0
 20
297.0
  9
$UNITMODE
 70
0
  9
$VISRETAIN
 70
1
  9
$PLINEGEN
 70
0
  9
$PSLTSCALE
 70
1
  9
$TREEDEPTH
 70
3020
  9
$CMLSTYLE
  2
Standard
  9
$CMLJUST
 70
0
  9
$CMLSCALE
 40
20.0
  9
$PROXYGRAPHICS
 70
1
  9
$MEASUREMENT
 70
1
  9
$CELWEIGHT
370
-1
  9
$ENDCAPS
280
0
  9
$JOINSTYLE
280
0
  9
$LWDISPLAY
290
0
  9
$INSUNITS
 70
6
  9
$HYPERLINKBASE
  1

  9
$STYLESHEET
  1

  9
$XEDIT
290
1
  9
$CEPSNTYPE
380
0
  9
$PSTYLEMODE
290
1
  9
$FINGERPRINTGUID
  2
{5A53822D-62B0-4E48-B1FA-94627D73D077}
  9
$VERSIONGUID
  2
{078FAF7C-DD12-4C8A-A0FA-99C5D862BA63}
  9
$EXTNAMES
290
1
  9
$PSVPSCALE
 40
0.0
  9
$OLESTARTUP
290
0
  9
$SORTENTS
280
127
  9
$INDEXCTL
280
0
  9
$HIDETEXT
280
1
  9
$XCLIPFRAME
280
1
  9
$HALOGAP
280
0
  9
$OBSCOLOR
 70
257
  9
$OBSLTYPE
280
0
  9
$INTERSECTIONDISPLAY
280
0
  9
$INTERSECTIONCOLOR
 70
257
  9
$DIMASSOC
280
2
  9
$PROJECTNAME
  1

  9
$CAMERADISPLAY
290
0
  9
$LENSLENGTH
 40
50.0
  9
$CAMERAHEIGHT
 40
0.0
  9
$STEPSPERSEC
 40
24.0
  9
$STEPSIZE
 40
100.0
  9
$3DDWFPREC
 40
2.0
  9
$PSOLWIDTH
 40
0.005
  9
$PSOLHEIGHT
 40
0.08
  9
$LOFTANG1
 40
1.570796326795
  9
$LOFTANG2
 40
1.570796326795
  9
$LOFTMAG1
 40
0.0
  9
$LOFTMAG2
 40
0.0
  9
$LOFTPARAM
 70
7
  9
$LOFTNORMALS
280
1
  9
$LATITUDE
 40
37.795
  9
$LONGITUDE
 40
-122.394
  9
$NORTHDIRECTION
 40
0.0
  9
$TIMEZONE
 70
-8000
  9
$LIGHTGLYPHDISPLAY
280
1
  9
$TILEMODELIGHTSYNCH
280
1
  9
$CMATERIAL
347
20
  9
$SOLIDHIST
280
0
  9
$SHOWHIST
280
1
  9
$DWFFRAME
280
2
  9
$DGNFRAME
280
2
  9
$REALWORLDSCALE
290
1
  9
$INTERFERECOLOR
 62
256
  9
$CSHADOW
280
0
  9
$SHADOWPLANELOCATION
 40
0.0
  0
ENDSEC
  0
SECTION
  2
CLASSES
  0
CLASS
  1
ACDBDICTIONARYWDFLT
  2
AcDbDictionaryWithDefault
  3
ObjectDBX Classes
 90
0
 91
0
280
0
281
0
  0
CLASS
  1
SUN
  2
AcDbSun
  3
SCENEOE
 90
1153
 91
0
280
0
281
0
  0
CLASS
  1
VISUALSTYLE
  2
AcDbVisualStyle
  3
ObjectDBX Classes
 90
4095
 91
0
280
0
281
0
  0
CLASS
  1
MATERIAL
  2
AcDbMaterial
  3
ObjectDBX Classes
 90
1153
 91
0
280
0
281
0
  0
CLASS
  1
SCALE
  2
AcDbScale
  3
ObjectDBX Classes
 90
1153
 91
0
280
0
281
0
  0
CLASS
  1
TABLESTYLE
  2
AcDbTableStyle
  3
ObjectDBX Classes
 90
4095
 91
0
280
0
281
0
  0
CLASS
  1
MLEADERSTYLE
  2
AcDbMLeaderStyle
  3
ACDB_MLEADERSTYLE_CLASS
 90
4095
 91
0
280
0
281
0
  0
CLASS
  1
DICTIONARYVAR
  2
AcDbDictionaryVar
  3
ObjectDBX Classes
 90
0
 91
0
280
0
281
0
  0
CLASS
  1
CELLSTYLEMAP
  2
AcDbCellStyleMap
  3
ObjectDBX Classes
 90
1152
 91
0
280
0
281
0
  0
CLASS
  1
MENTALRAYRENDERSETTINGS
  2
AcDbMentalRayRenderSettings
  3
SCENEOE
 90
1024
 91
0
280
0
281
0
  0
CLASS
  1
ACDBDETAILVIEWSTYLE
  2
AcDbDetailViewStyle
  3
ObjectDBX Classes
 90
1025
 91
0
280
0
281
0
  0
CLASS
  1
ACDBSECTIONVIEWSTYLE
  2
AcDbSectionViewStyle
  3
ObjectDBX Classes
 90
1025
 91
0
280
0
281
0
  0
CLASS
  1
RASTERVARIABLES
  2
AcDbRasterVariables
  3
ISM
 90
0
 91
0
280
0
281
0
  0
CLASS
  1
LAYOUT
  2
AcDbLayout
  3
ObjectDBX Classes
 90
0
 91
0
280
0
281
0
  0
CLASS
  1
ACDBPLACEHOLDER
  2
AcDbPlaceHolder
  3
ObjectDBX Classes
 90
0
 91
0
280
0
281
0
  0
ENDSEC
  0
SECTION
  2
TABLES
  0
TABLE
  2
VPORT
  5
8
330
0
100
AcDbSymbolTable
 70
1
  0
VPORT
  5
23
330
8
100
AcDbSymbolTableRecord
100
AcDbViewportTableRecord
  2
*Active
 70
0
 10
0.0
 20
0.0
 11
1.0
 21
1.0
 12
0.0
 22
0.0
 13
0.0
 23
0.0
 14
0.5
 24
0.5
 15
0.5
 25
0.5
 16
0.0
 26
0.0
 36
1.0
 17
0.0
 27
0.0
 37
0.0
 40
1000.0
 41
1.34
 42
50.0
 43
0.0
 44
0.0
 50
0.0
 51
0.0
 71
0
 72
1000
 73
1
 74
3
 75
0
 76
0
 77
0
 78
0
281
0
 65
0
146
0.0
  0
ENDTAB
  0
TABLE
  2
LTYPE
  5
2
330
0
100
AcDbSymbolTable
 70
3
  0
LTYPE
  5
24
330
2
100
AcDbSymbolTableRecord
100
AcDbLinetypeTableRecord
  2
ByBlock
 70
0
  3

 72
65
 73
0
 40
0.0
  0
LTYPE
  5
25
330
2
100
AcDbSymbolTableRecord
100
AcDbLinetypeTableRecord
  2
ByLayer
 70
0
  3

 72
65
 73
0
 40
0.0
  0
LTYPE
  5
26
330
2
100
AcDbSymbolTableRecord
100
AcDbLinetypeTableRecord
  2
Continuous
 70
0
  3

 72
65
 73
0
 40
0.0
  0
ENDTAB
  0
TABLE
  2
LAYER
  5
1
330
0
100
AcDbSymbolTable
 70
6
  0
LAYER
  5
27
330
1
100
AcDbSymbolTableRecord
100
AcDbLayerTableRecord
  2
0
 70
0
 62
7
  6
Continuous
370
-3
390
13
347
21
  0
LAYER
  5
28
330
1
100
AcDbSymbolTableRecord
100
AcDbLayerTableRecord
  2
Defpoints
 70
0
 62
7
  6
Continuous
290
0
370
-3
390
13
347
21
  0
LAYER
  5
2F
330
1
100
AcDbSymbolTableRecord
100
AcDbLayerTableRecord
  2
FILL_WHITE_FFFFFF
 70
0
 62
7
420
16777215
  6
Continuous
370
-3
390
13
347
21
  0
LAYER
  5
32
330
1
100
AcDbSymbolTableRecord
100
AcDbLayerTableRecord
  2
FILL_BLUE_0000FF
 70
0
 62
7
420
255
  6
Continuous
370
-3
390
13
347
21
  0
LAYER
  5
E0
330
1
100
AcDbSymbolTableRecord
100
AcDbLayerTableRecord
  2
STROKE_WHITE_FFFFFF
 70
0
 62
7
420
16777215
  6
Continuous
370
-3
390
13
347
21
  0
LAYER
  5
E9
330
1
100
AcDbSymbolTableRecord
100
AcDbLayerTableRecord
  2
STROKE_BLUE_0000FF
 70
0
 62
7
420
255
  6
Continuous
370
-3
390
13
347
21
  0
ENDTAB
  0
TABLE
  2
STYLE
  5
5
330
0
100
AcDbSymbolTable
 70
1
  0
STYLE
  5
29
330
5
100
AcDbSymbolTableRecord
100
AcDbTextStyleTableRecord
  2
Standard
 70
0
 40
0.0
 41
1.0
 50
0.0
 71
0
 42
2.5
  3
txt
  4

  0
ENDTAB
  0
TABLE
  2
VIEW
  5
7
330
0
100
AcDbSymbolTable
 70
0
  0
ENDTAB
  0
TABLE
  2
UCS
  5
6
330
0
100
AcDbSymbolTable
 70
0
  0
ENDTAB
  0
TABLE
  2
APPID
  5
3
330
0
100
AcDbSymbolTable
 70
3
  0
APPID
  5
2A
330
3
100
AcDbSymbolTableRecord
100
AcDbRegAppTableRecord
  2
ACAD
 70
0
  0
APPID
  5
EB
330
3
100
AcDbSymbolTableRecord
100
AcDbRegAppTableRecord
  2
HATCHBACKGROUNDCOLOR
 70
0
  0
APPID
  5
EC
330
3
100
AcDbSymbolTableRecord
100
AcDbRegAppTableRecord
  2
EZDXF
 70
0
  0
ENDTAB
  0
TABLE
  2
DIMSTYLE
  5
4
330
0
100
AcDbSymbolTable
 70
1
100
AcDbDimStyleTable
  0
DIMSTYLE
105
2B
330
4
100
AcDbSymbolTableRecord
100
AcDbDimStyleTableRecord
  2
Standard
 70
0
 40
1.0
 41
2.5
 42
0.625
 43
3.75
 44
1.25
 45
0.0
 46
0.0
 47
0.0
 48
0.0
 49
2.5
140
2.5
141
2.5
142
0.0
143
0.03937007874
144
1.0
145
0.0
146
1.0
147
0.625
148
0.0
 69
0
 70
0
 71
0
 72
0
 73
0
 74
0
 75
0
 76
0
 77
1
 78
8
 79
3
170
0
171
3
172
1
173
0
174
0
175
0
176
0
177
0
178
0
179
2
271
2
272
2
273
2
274
3
275
0
276
0
277
2
278
44
279
0
280
0
281
0
282
0
283
0
284
8
285
0
286
0
288
0
289
3
290
0
371
-2
372
-2
  0
ENDTAB
  0
TABLE
  2
BLOCK_RECORD
  5
9
330
0
100
AcDbSymbolTable
 70
2
  0
BLOCK_RECORD
  5
17
330
9
100
AcDbSymbolTableRecord
100
AcDbBlockTableRecord
  2
*Model_Space
340
1A
 70
0
280
1
281
0
  0
BLOCK_RECORD
  5
1B
330
9
100
AcDbSymbolTableRecord
100
AcDbBlockTableRecord
  2
*Paper_Space
340
1E
 70
0
280
1
281
0
  0
ENDTAB
  0
ENDSEC
  0
SECTION
  2
BLOCKS
  0
BLOCK
  5
18
330
17
100
AcDbEntity
  8
0
100
AcDbBlockBegin
  2
*Model_Space
 70
0
 10
0.0
 20
0.0
 30
0.0
  3
*Model_Space
  1

  0
ENDBLK
  5
19
330
17
100
AcDbEntity
  8
0
100
AcDbBlockEnd
  0
BLOCK
  5
1C
330
1B
100
AcDbEntity
  8
0
100
AcDbBlockBegin
  2
*Paper_Space
 70
0
 10
0.0
 20
0.0
 30
0.0
  3
*Paper_Space
  1

  0
ENDBLK
  5
1D
330
1B
100
AcDbEntity
  8
0
100
AcDbBlockEnd
  0
ENDSEC
  0
SECTION
  2
ENTITIES
  0
HATCH
  5
30
330
17
100
AcDbEntity
  8
FILL_WHITE_FFFFFF
 62
7
420
16777215
100
AcDbHatch
 10
0.0
 20
0.0
 30
0.0
210
0.0
220
0.0
230
1.0
  2
SOLID
 70
1
 71
0
 91
1
 92
3
 72
0
 73
1
 93
67
 10
473.89
 20
259.5
 10
475.11
 20
259.33
 10
476.3
 20
259.05
 10
477.45
 20
258.66
 10
478.54
 20
258.15
 10
479.57
 20
257.54
 10
480.51
 20
256.8
 10
481.35
 20
255.96
 10
482.21
 20
255.02
 10
482.97
 20
254.01
 10
483.64
 20
252.93
 10
484.2
 20
251.8
 10
484.65
 20
250.63
 10
484.98
 20
249.42
 10
485.18
 20
248.2
 10
485.25
 20
246.96
 10
485.25
 20
26.76
 10
485.19
 20
25.62
 10
485.02
 20
24.47
 10
484.73
 20
23.32
 10
484.31
 20
22.19
 10
483.77
 20
21.08
 10
483.1
 20
20.01
 10
482.29
 20
19.0
 10
481.35
 20
18.06
 10
480.41
 20
17.13
 10
479.4
 20
16.36
 10
478.33
 20
15.73
 10
477.23
 20
15.25
 10
476.09
 20
14.89
 10
474.94
 20
14.64
 10
472.65
 20
14.46
 10
95.85
 20
14.46
 10
93.43
 20
14.64
 10
92.26
 20
14.89
 10
91.13
 20
15.25
 10
90.01
 20
15.73
 10
88.93
 20
16.36
 10
87.88
 20
17.13
 10
86.85
 20
18.06
 10
86.01
 20
19.0
 10
85.28
 20
20.01
 10
84.66
 20
21.08
 10
84.15
 20
22.19
 10
83.76
 20
23.32
 10
83.48
 20
24.47
 10
83.31
 20
25.62
 10
83.25
 20
26.76
 10
83.25
 20
246.96
 10
83.31
 20
248.13
 10
83.48
 20
249.36
 10
83.76
 20
250.59
 10
84.15
 20
251.76
 10
84.66
 20
252.88
 10
85.28
 20
253.97
 10
86.01
 20
255.01
 10
86.85
 20
255.96
 10
87.8
 20
256.8
 10
88.84
 20
257.54
 10
89.93
 20
258.15
 10
91.05
 20
258.66
 10
92.22
 20
259.05
 10
93.45
 20
259.34
 10
94.68
 20
259.5
 10
95.85
 20
259.56
 10
472.65
 20
259.56
 10
473.89
 20
259.5
 97
0
 75
1
 76
1
 98
0
  0
LWPOLYLINE
  5
31
330
17
100
AcDbEntity
  8
FILL_WHITE_FFFFFF
370
0
420
16777215
100
AcDbPolyline
 90
66
 70
1
 10
473.89
 20
259.5
 10
475.11
 20
259.33
 10
476.3
 20
259.05
 10
477.45
 20
258.66
 10
478.54
 20
258.15
 10
479.57
 20
257.54
 10
480.51
 20
256.8
 10
481.35
 20
255.96
 10
482.21
 20
255.02
 10
482.97
 20
254.01
 10
483.64
 20
252.93
 10
484.2
 20
251.8
 10
484.65
 20
250.63
 10
484.98
 20
249.42
 10
485.18
 20
248.2
 10
485.25
 20
246.96
 10
485.25
 20
26.76
 10
485.19
 20
25.62
 10
485.02
 20
24.47
 10
484.73
 20
23.32
 10
484.31
 20
22.19
 10
483.77
 20
21.08
 10
483.1
 20
20.01
 10
482.29
 20
19.0
 10
481.35
 20
18.06
 10
480.41
 20
17.13
 10
479.4
 20
16.36
 10
478.33
 20
15.73
 10
477.23
 20
15.25
 10
476.09
 20
14.89
 10
474.94
 20
14.64
 10
472.65
 20
14.46
 10
95.85
 20
14.46
 10
93.43
 20
14.64
 10
92.26
 20
14.89
 10
91.13
 20
15.25
 10
90.01
 20
15.73
 10
88.93
 20
16.36
 10
87.88
 20
17.13
 10
86.85
 20
18.06
 10
86.01
 20
19.0
 10
85.28
 20
20.01
 10
84.66
 20
21.08
 10
84.15
 20
22.19
 10
83.76
 20
23.32
 10
83.48
 20
24.47
 10
83.31
 20
25.62
 10
83.25
 20
26.76
 10
83.25
 20
246.96
 10
83.31
 20
248.13
 10
83.48
 20
249.36
 10
83.76
 20
250.59
 10
84.15
 20
251.76
 10
84.66
 20
252.88
 10
85.28
 20
253.97
 10
86.01
 20
255.01
 10
86.85
 20
255.96
 10
87.8
 20
256.8
 10
88.84
 20
257.54
 10
89.93
 20
258.15
 10
91.05
 20
258.66
 10
92.22
 20
259.05
 10
93.45
 20
259.34
 10
94.68
 20
259.5
 10
95.85
 20
259.56
 10
472.65
 20
259.56
  0
HATCH
  5
33
330
17
100
AcDbEntity
  8
FILL_BLUE_0000FF
 62
7
420
255
100
AcDbHatch
 10
0.0
 20
0.0
 30
0.0
210
0.0
220
0.0
230
1.0
  2
SOLID
 70
1
 71
0
 91
1
 92
3
 72
0
 73
1
 93
40
 10
473.87
 20
253.14
 10
475.03
 20
252.78
 10
476.09
 20
252.22
 10
477.04
 20
251.46
 10
477.83
 20
250.54
 10
478.43
 20
249.46
 10
478.81
 20
248.26
 10
478.95
 20
246.96
 10
478.95
 20
26.76
 10
478.76
 20
25.71
 10
478.35
 20
24.66
 10
477.86
 20
23.5
 10
477.15
 20
22.56
 10
476.03
 20
21.6
 10
474.9
 20
20.95
 10
473.78
 20
20.58
 10
472.65
 20
20.46
 10
95.85
 20
20.46
 10
94.68
 20
20.58
 10
93.49
 20
20.95
 10
92.35
 20
21.6
 10
91.35
 20
22.56
 10
90.56
 20
23.51
 10
90.0
 20
24.55
 10
89.66
 20
25.64
 10
89.55
 20
26.76
 10
89.55
 20
246.96
 10
89.59
 20
248.16
 10
89.85
 20
249.36
 10
90.13
 20
249.98
 10
90.49
 20
250.52
 10
91.35
 20
251.46
 10
92.29
 20
252.32
 10
92.83
 20
252.68
 10
93.45
 20
252.96
 10
93.95
 20
253.13
 10
94.54
 20
253.22
 10
95.85
 20
253.26
 10
472.65
 20
253.26
 10
473.87
 20
253.14
 97
0
 75
1
 76
1
 98
0
  0
LWPOLYLINE
  5
34
330
17
100
AcDbEntity
  8
FILL_BLUE_0000FF
370
0
420
255
100
AcDbPolyline
 90
39
 70
1
 10
473.87
 20
253.14
 10
475.03
 20
252.78
 10
476.09
 20
252.22
 10
477.04
 20
251.46
 10
477.83
 20
250.54
 10
478.43
 20
249.46
 10
478.81
 20
248.26
 10
478.95
 20
246.96
 10
478.95
 20
26.76
 10
478.76
 20
25.71
 10
478.35
 20
24.66
 10
477.86
 20
23.5
 10
477.15
 20
22.56
 10
476.03
 20
21.6
 10
474.9
 20
20.95
 10
473.78
 20
20.58
 10
472.65
 20
20.46
 10
95.85
 20
20.46
 10
94.68
 20
20.58
 10
93.49
 20
20.95
 10
92.35
 20
21.6
 10
91.35
 20
22.56
 10
90.56
 20
23.51
 10
90.0
 20
24.55
 10
89.66
 20
25.64
 10
89.55
 20
26.76
 10
89.55
 20
246.96
 10
89.59
 20
248.16
 10
89.85
 20
249.36
 10
90.13
 20
249.98
 10
90.49
 20
250.52
 10
91.35
 20
251.46
 10
92.29
 20
252.32
 10
92.83
 20
252.68
 10
93.45
 20
252.96
 10
93.95
 20
253.13
 10
94.54
 20
253.22
 10
95.85
 20
253.26
 10
472.65
 20
253.26
  0
HATCH
  5
35
330
17
100
AcDbEntity
  8
FILL_WHITE_FFFFFF
 62
7
420
16777215
100
AcDbHatch
 10
0.0
 20
0.0
 30
0.0
210
0.0
220
0.0
230
1.0
  2
SOLID
 70
1
 71
0
 91
1
 92
3
 72
0
 73
1
 93
79
 10
160.16
 20
233.46
 10
159.11
 20
234.77
 10
158.49
 20
235.33
 10
157.79
 20
235.8
 10
157.01
 20
236.18
 10
156.15
 20
236.46
 10
155.36
 20
236.62
 10
154.58
 20
236.64
 10
153.82
 20
236.55
 10
153.08
 20
236.35
 10
151.68
 20
235.66
 10
150.45
 20
234.66
 10
149.44
 20
233.2
 10
148.69
 20
231.55
 10
148.21
 20
229.72
 10
148.05
 20
227.76
 10
148.21
 20
225.8
 10
148.69
 20
223.97
 10
149.44
 20
222.32
 10
150.45
 20
220.86
 10
151.68
 20
219.86
 10
153.08
 20
219.17
 10
153.82
 20
218.97
 10
154.58
 20
218.88
 10
155.36
 20
218.9
 10
156.15
 20
219.06
 10
157.0
 20
219.34
 10
157.76
 20
219.7
 10
159.15
 20
220.56
 10
160.05
 20
221.95
 10
160.95
 20
223.56
 10
164.85
 20
222.66
 10
164.34
 20
221.54
 10
163.73
 20
220.41
 10
162.15
 20
218.16
 10
161.19
 20
217.32
 10
160.13
 20
216.59
 10
158.94
 20
215.97
 10
157.65
 20
215.46
 10
156.3
 20
215.16
 10
154.95
 20
215.12
 10
152.25
 20
215.46
 10
150.08
 20
216.44
 10
149.13
 20
217.06
 10
148.35
 20
217.86
 10
147.46
 20
218.64
 10
146.63
 20
219.62
 10
145.9
 20
220.77
 10
145.35
 20
222.06
 10
144.78
 20
223.29
 10
144.41
 20
224.69
 10
144.21
 20
226.19
 10
144.15
 20
227.76
 10
144.21
 20
229.28
 10
144.41
 20
230.72
 10
144.78
 20
232.11
 10
145.35
 20
233.46
 10
145.9
 20
234.75
 10
146.63
 20
235.9
 10
147.46
 20
236.88
 10
148.35
 20
237.66
 10
149.13
 20
238.33
 10
150.08
 20
238.97
 10
151.13
 20
239.56
 10
152.25
 20
240.06
 10
153.6
 20
240.23
 10
154.95
 20
240.29
 10
156.3
 20
240.23
 10
157.65
 20
240.06
 10
158.82
 20
239.55
 10
160.01
 20
238.9
 10
161.15
 20
238.08
 10
162.15
 20
237.06
 10
162.99
 20
236.11
 10
163.73
 20
235.07
 10
164.34
 20
233.98
 10
164.85
 20
232.86
 10
160.95
 20
231.96
 10
160.16
 20
233.46
 97
0
 75
1
 76
1
 98
0
  0
LWPOLYLINE
  5
36
330
17
100
AcDbEntity
  8
FILL_WHITE_FFFFFF
370
0
420
16777215
100
AcDbPolyline
 90
78
 70
1
 10
160.16
 20
233.46
 10
159.11
 20
234.77
 10
158.49
 20
235.33
 10
157.79
 20
235.8
 10
157.01
 20
236.18
 10
156.15
 20
236.46
 10
155.36
 20
236.62
 10
154.58
 20
236.64
 10
153.82
 20
236.55
 10
153.08
 20
236.35
 10
151.68
 20
235.66
 10
150.45
 20
234.66
 10
149.44
 20
233.2
 10
148.69
 20
231.55
 10
148.21
 20
229.72
 10
148.05
 20
227.76
 10
148.21
 20
225.8
 10
148.69
 20
223.97
 10
149.44
 20
222.32
 10
150.45
 20
220.86
 10
151.68
 20
219.86
 10
153.08
 20
219.17
 10
153.82
 20
218.97
 10
154.58
 20
218.88
 10
155.36
 20
218.9
 10
156.15
 20
219.06
 10
157.0
 20
219.34
 10
157.76
 20
219.7
 10
159.15
 20
220.56
 10
160.05
 20
221.95
 10
160.95
 20
223.56
 10
164.85
 20
222.66
 10
164.34
 20
221.54
 10
163.73
 20
220.41
 10
162.15
 20
218.16
 10
161.19
 20
217.32
 10
160.13
 20
216.59
 10
158.94
 20
215.97
 10
157.65
 20
215.46
 10
156.3
 20
215.16
 10
154.95
 20
215.12
 10
152.25
 20
215.46
 10
150.08
 20
216.44
 10
149.13
 20
217.06
 10
148.35
 20
217.86
 10
147.46
 20
218.64
 10
146.63
 20
219.62
 10
145.9
 20
220.77
 10
145.35
 20
222.06
 10
144.78
 20
223.29
 10
144.41
 20
224.69
 10
144.21
 20
226.19
 10
144.15
 20
227.76
 10
144.21
 20
229.28
 10
144.41
 20
230.72
 10
144.78
 20
232.11
 10
145.35
 20
233.46
 10
145.9
 20
234.75
 10
146.63
 20
235.9
 10
147.46
 20
236.88
 10
148.35
 20
237.66
 10
149.13
 20
238.33
 10
150.08
 20
238.97
 10
151.13
 20
239.56
 10
152.25
 20
240.06
 10
153.6
 20
240.23
 10
154.95
 20
240.29
 10
156.3
 20
240.23
 10
157.65
 20
240.06
 10
158.82
 20
239.55
 10
160.01
 20
238.9
 10
161.15
 20
238.08
 10
162.15
 20
237.06
 10
162.99
 20
236.11
 10
163.73
 20
235.07
 10
164.34
 20
233.98
 10
164.85
 20
232.86
 10
160.95
 20
231.96
  0
HATCH
  5
37
330
17
100
AcDbEntity
  8
FILL_WHITE_FFFFFF
 62
7
420
16777215
100
AcDbHatch
 10
0.0
 20
0.0
 30
0.0
210
0.0
220
0.0
230
1.0
  2
SOLID
 70
1
 71
0
 91
2
 92
3
 72
0
 73
1
 93
57
 10
182.21
 20
240.14
 10
183.25
 20
239.85
 10
184.28
 20
239.46
 10
185.27
 20
238.95
 10
186.23
 20
238.34
 10
187.12
 20
237.6
 10
187.95
 20
236.76
 10
189.35
 20
234.64
 10
190.39
 20
232.37
 10
191.03
 20
230.05
 10
191.19
 20
228.9
 10
191.25
 20
227.76
 10
191.19
 20
226.62
 10
191.03
 20
225.47
 10
190.39
 20
223.15
 10
189.35
 20
220.88
 10
187.95
 20
218.76
 10
187.12
 20
217.92
 10
186.23
 20
217.19
 10
185.27
 20
216.57
 10
184.28
 20
216.06
 10
183.25
 20
215.67
 10
182.21
 20
215.39
 10
181.17
 20
215.22
 10
180.15
 20
215.16
 10
179.22
 20
215.22
 10
178.26
 20
215.39
 10
177.28
 20
215.67
 10
176.29
 20
216.06
 10
175.31
 20
216.57
 10
174.37
 20
217.19
 10
173.48
 20
217.92
 10
172.65
 20
218.76
 10
171.82
 20
219.8
 10
171.12
 20
220.88
 10
170.55
 20
222.0
 10
170.1
 20
223.15
 10
169.76
 20
224.31
 10
169.53
 20
225.47
 10
169.35
 20
227.76
 10
169.53
 20
230.05
 10
169.76
 20
231.21
 10
170.1
 20
232.37
 10
170.55
 20
233.52
 10
171.12
 20
234.64
 10
171.82
 20
235.72
 10
172.65
 20
236.76
 10
173.48
 20
237.6
 10
174.37
 20
238.34
 10
175.31
 20
238.95
 10
176.29
 20
239.46
 10
177.28
 20
239.85
 10
178.26
 20
240.14
 10
179.22
 20
240.3
 10
180.15
 20
240.36
 10
181.17
 20
240.3
 10
182.21
 20
240.14
 97
0
 92
18
 72
0
 73
1
 93
33
 10
177.75
 20
235.94
 10
176.52
 20
235.19
 10
175.35
 20
234.06
 10
174.56
 20
232.61
 10
174.0
 20
231.02
 10
173.66
 20
229.38
 10
173.55
 20
227.76
 10
173.69
 20
226.0
 10
174.08
 20
224.33
 10
174.69
 20
222.8
 10
175.5
 20
221.46
 10
176.48
 20
220.34
 10
177.6
 20
219.49
 10
178.83
 20
218.95
 10
180.15
 20
218.76
 10
181.49
 20
218.93
 10
182.78
 20
219.44
 10
183.95
 20
220.28
 10
184.95
 20
221.46
 10
185.91
 20
222.91
 10
186.56
 20
224.5
 10
186.93
 20
226.14
 10
187.05
 20
227.76
 10
186.91
 20
229.51
 10
186.52
 20
231.14
 10
185.9
 20
232.62
 10
185.06
 20
233.91
 10
184.05
 20
234.97
 10
182.87
 20
235.78
 10
181.57
 20
236.28
 10
180.15
 20
236.46
 10
178.98
 20
236.34
 10
177.75
 20
235.94
 97
0
 75
1
 76
1
 98
0
  0
LWPOLYLINE
  5
38
330
17
100
AcDbEntity
  8
FILL_WHITE_FFFFFF
370
0
420
16777215
100
AcDbPolyline
 90
56
 70
1
 10
182.21
 20
240.14
 10
183.25
 20
239.85
 10
184.28
 20
239.46
 10
185.27
 20
238.95
 10
186.23
 20
238.34
 10
187.12
 20
237.6
 10
187.95
 20
236.76
 10
189.35
 20
234.64
 10
190.39
 20
232.37
 10
191.03
 20
230.05
 10
191.19
 20
228.9
 10
191.25
 20
227.76
 10
191.19
 20
226.62
 10
191.03
 20
225.47
 10
190.39
 20
223.15
 10
189.35
 20
220.88
 10
187.95
 20
218.76
 10
187.12
 20
217.92
 10
186.23
 20
217.19
 10
185.27
 20
216.57
 10
184.28
 20
216.06
 10
183.25
 20
215.67
 10
182.21
 20
215.39
 10
181.17
 20
215.22
 10
180.15
 20
215.16
 10
179.22
 20
215.22
 10
178.26
 20
215.39
 10
177.28
 20
215.67
 10
176.29
 20
216.06
 10
175.31
 20
216.57
 10
174.37
 20
217.19
 10
173.48
 20
217.92
 10
172.65
 20
218.76
 10
171.82
 20
219.8
 10
171.12
 20
220.88
 10
170.55
 20
222.0
 10
170.1
 20
223.15
 10
169.76
 20
224.31
 10
169.53
 20
225.47
 10
169.35
 20
227.76
 10
169.53
 20
230.05
 10
169.76
 20
231.21
 10
170.1
 20
232.37
 10
170.55
 20
233.52
 10
171.12
 20
234.64
 10
171.82
 20
235.72
 10
172.65
 20
236.76
 10
173.48
 20
237.6
 10
174.37
 20
238.34
 10
175.31
 20
238.95
 10
176.29
 20
239.46
 10
177.28
 20
239.85
 10
178.26
 20
240.14
 10
179.22
 20
240.3
 10
180.15
 20
240.36
 10
181.17
 20
240.3
  0
LWPOLYLINE
  5
39
330
17
100
AcDbEntity
  8
FILL_WHITE_FFFFFF
370
0
420
16777215
100
AcDbPolyline
 90
32
 70
1
 10
177.75
 20
235.94
 10
176.52
 20
235.19
 10
175.35
 20
234.06
 10
174.56
 20
232.61
 10
174.0
 20
231.02
 10
173.66
 20
229.38
 10
173.55
 20
227.76
 10
173.69
 20
226.0
 10
174.08
 20
224.33
 10
174.69
 20
222.8
 10
175.5
 20
221.46
 10
176.48
 20
220.34
 10
177.6
 20
219.49
 10
178.83
 20
218.95
 10
180.15
 20
218.76
 10
181.49
 20
218.93
 10
182.78
 20
219.44
 10
183.95
 20
220.28
 10
184.95
 20
221.46
 10
185.91
 20
222.91
 10
186.56
 20
224.5
 10
186.93
 20
226.14
 10
187.05
 20
227.76
 10
186.91
 20
229.51
 10
186.52
 20
231.14
 10
185.9
 20
232.62
 10
185.06
 20
233.91
 10
184.05
 20
234.97
 10
182.87
 20
235.78
 10
181.57
 20
236.28
 10
180.15
 20
236.46
 10
178.98
 20
236.34
  0
HATCH
  5
3A
330
17
100
AcDbEntity
  8
FILL_WHITE_FFFFFF
 62
7
420
16777215
100
AcDbHatch
 10
0.0
 20
0.0
 30
0.0
210
0.0
220
0.0
230
1.0
  2
SOLID
 70
1
 71
0
 91
1
 92
3
 72
0
 73
1
 93
11
 10
201.75
 20
233.16
 10
201.75
 20
215.76
 10
197.85
 20
215.76
 10
197.85
 20
239.76
 10
202.65
 20
239.76
 10
214.05
 20
222.36
 10
214.05
 20
239.76
 10
218.25
 20
239.76
 10
218.25
 20
215.76
 10
213.45
 20
215.76
 10
201.75
 20
233.16
 97
0
 75
1
 76
1
 98
0
  0
LWPOLYLINE
  5
3B
330
17
100
AcDbEntity
  8
FILL_WHITE_FFFFFF
370
0
420
16777215
100
AcDbPolyline
 90
10
 70
1
 10
201.75
 20
233.16
 10
201.75
 20
215.76
 10
197.85
 20
215.76
 10
197.85
 20
239.76
 10
202.65
 20
239.76
 10
214.05
 20
222.36
 10
214.05
 20
239.76
 10
218.25
 20
239.76
 10
218.25
 20
215.76
 10
213.45
 20
215.76
  0
HATCH
  5
3C
330
17
100
AcDbEntity
  8
FILL_WHITE_FFFFFF
 62
7
420
16777215
100
AcDbHatch
 10
0.0
 20
0.0
 30
0.0
210
0.0
220
0.0
230
1.0
  2
SOLID
 70
1
 71
0
 91
1
 92
3
 72
0
 73
1
 93
9
 10
240.15
 20
236.16
 10
233.55
 20
236.16
 10
233.55
 20
215.76
 10
229.35
 20
215.76
 10
229.35
 20
236.16
 10
222.75
 20
236.16
 10
222.75
 20
239.76
 10
240.15
 20
239.76
 10
240.15
 20
236.16
 97
0
 75
1
 76
1
 98
0
  0
LWPOLYLINE
  5
3D
330
17
100
AcDbEntity
  8
FILL_WHITE_FFFFFF
370
0
420
16777215
100
AcDbPolyline
 90
8
 70
1
 10
240.15
 20
236.16
 10
233.55
 20
236.16
 10
233.55
 20
215.76
 10
229.35
 20
215.76
 10
229.35
 20
236.16
 10
222.75
 20
236.16
 10
222.75
 20
239.76
 10
240.15
 20
239.76
  0
HATCH
  5
3E
330
17
100
AcDbEntity
  8
FILL_WHITE_FFFFFF
 62
7
420
16777215
100
AcDbHatch
 10
0.0
 20
0.0
 30
0.0
210
0.0
220
0.0
230
1.0
  2
SOLID
 70
1
 71
0
 91
2
 92
3
 72
0
 73
1
 93
25
 10
253.05
 20
225.06
 10
249.15
 20
225.06
 10
249.15
 20
215.76
 10
244.95
 20
215.76
 10
244.95
 20
239.76
 10
255.45
 20
239.76
 10
256.64
 20
239.64
 10
257.74
 20
239.28
 10
258.74
 20
238.72
 10
259.61
 20
237.96
 10
260.36
 20
237.04
 10
260.98
 20
235.96
 10
261.44
 20
234.76
 10
261.75
 20
233.46
 10
261.77
 20
232.12
 10
261.6
 20
230.8
 10
261.25
 20
229.55
 10
260.74
 20
228.4
 10
260.07
 20
227.37
 10
259.26
 20
226.5
 10
258.32
 20
225.82
 10
257.25
 20
225.36
 10
262.05
 20
215.76
 10
257.85
 20
215.76
 10
253.05
 20
225.06
 97
0
 92
18
 72
0
 73
1
 93
20
 10
255.21
 20
228.73
 10
255.83
 20
228.93
 10
256.39
 20
229.25
 10
256.88
 20
229.67
 10
257.28
 20
230.2
 10
257.59
 20
230.81
 10
257.78
 20
231.5
 10
257.85
 20
232.26
 10
257.79
 20
232.98
 10
257.59
 20
233.72
 10
257.22
 20
234.41
 10
256.65
 20
234.96
 10
256.15
 20
235.53
 10
255.6
 20
235.9
 10
255.05
 20
236.1
 10
254.55
 20
236.16
 10
249.15
 20
236.16
 10
249.15
 20
228.66
 10
254.55
 20
228.66
 10
255.21
 20
228.73
 97
0
 75
1
 76
1
 98
0
  0
LWPOLYLINE
  5
3F
330
17
100
AcDbEntity
  8
FILL_WHITE_FFFFFF
370
0
420
16777215
100
AcDbPolyline
 90
24
 70
1
 10
253.05
 20
225.06
 10
249.15
 20
225.06
 10
249.15
 20
215.76
 10
244.95
 20
215.76
 10
244.95
 20
239.76
 10
255.45
 20
239.76
 10
256.64
 20
239.64
 10
257.74
 20
239.28
 10
258.74
 20
238.72
 10
259.61
 20
237.96
 10
260.36
 20
237.04
 10
260.98
 20
235.96
 10
261.44
 20
234.76
 10
261.75
 20
233.46
 10
261.77
 20
232.12
 10
261.6
 20
230.8
 10
261.25
 20
229.55
 10
260.74
 20
228.4
 10
260.07
 20
227.37
 10
259.26
 20
226.5
 10
258.32
 20
225.82
 10
257.25
 20
225.36
 10
262.05
 20
215.76
 10
257.85
 20
215.76
  0
LWPOLYLINE
  5
40
330
17
100
AcDbEntity
  8
FILL_WHITE_FFFFFF
370
0
420
16777215
100
AcDbPolyline
 90
19
 70
1
 10
255.21
 20
228.73
 10
255.83
 20
228.93
 10
256.39
 20
229.25
 10
256.88
 20
229.67
 10
257.28
 20
230.2
 10
257.59
 20
230.81
 10
257.78
 20
231.5
 10
257.85
 20
232.26
 10
257.79
 20
232.98
 10
257.59
 20
233.72
 10
257.22
 20
234.41
 10
256.65
 20
234.96
 10
256.15
 20
235.53
 10
255.6
 20
235.9
 10
255.05
 20
236.1
 10
254.55
 20
236.16
 10
249.15
 20
236.16
 10
249.15
 20
228.66
 10
254.55
 20
228.66
  0
HATCH
  5
41
330
17
100
AcDbEntity
  8
FILL_WHITE_FFFFFF
 62
7
420
16777215
100
AcDbHatch
 10
0.0
 20
0.0
 30
0.0
210
0.0
220
0.0
230
1.0
  2
SOLID
 70
1
 71
0
 91
2
 92
3
 72
0
 73
1
 93
61
 10
280.14
 20
240.14
 10
281.12
 20
239.85
 10
282.11
 20
239.46
 10
283.09
 20
238.95
 10
284.03
 20
238.34
 10
284.92
 20
237.6
 10
285.75
 20
236.76
 10
286.58
 20
235.72
 10
287.28
 20
234.64
 10
287.85
 20
233.52
 10
288.3
 20
232.37
 10
288.64
 20
231.21
 10
288.87
 20
230.05
 10
289.05
 20
227.76
 10
288.87
 20
225.47
 10
288.64
 20
224.31
 10
288.3
 20
223.15
 10
287.85
 20
222.0
 10
287.28
 20
220.88
 10
286.58
 20
219.8
 10
285.75
 20
218.76
 10
284.92
 20
217.92
 10
284.03
 20
217.19
 10
283.09
 20
216.57
 10
282.11
 20
216.06
 10
281.12
 20
215.67
 10
280.14
 20
215.39
 10
279.18
 20
215.22
 10
278.25
 20
215.16
 10
277.23
 20
215.22
 10
276.19
 20
215.39
 10
275.15
 20
215.67
 10
274.13
 20
216.06
 10
273.13
 20
216.57
 10
272.18
 20
217.19
 10
271.28
 20
217.92
 10
270.45
 20
218.76
 10
269.62
 20
219.8
 10
268.92
 20
220.88
 10
268.35
 20
222.0
 10
267.9
 20
223.15
 10
267.56
 20
224.31
 10
267.33
 20
225.47
 10
267.15
 20
227.76
 10
267.33
 20
230.05
 10
267.56
 20
231.21
 10
267.9
 20
232.37
 10
268.35
 20
233.52
 10
268.92
 20
234.64
 10
269.62
 20
235.72
 10
270.45
 20
236.76
 10
271.28
 20
237.6
 10
272.18
 20
238.34
 10
273.13
 20
238.95
 10
274.13
 20
239.46
 10
275.15
 20
239.85
 10
276.19
 20
240.14
 10
277.23
 20
240.3
 10
278.25
 20
240.36
 10
279.18
 20
240.3
 10
280.14
 20
240.14
 97
0
 92
18
 72
0
 73
1
 93
33
 10
275.59
 20
235.94
 10
274.33
 20
235.19
 10
273.15
 20
234.06
 10
272.36
 20
232.61
 10
271.8
 20
231.02
 10
271.46
 20
229.38
 10
271.35
 20
227.76
 10
271.49
 20
226.0
 10
271.88
 20
224.33
 10
272.5
 20
222.8
 10
273.34
 20
221.46
 10
274.35
 20
220.34
 10
275.53
 20
219.49
 10
276.83
 20
218.95
 10
278.25
 20
218.76
 10
279.42
 20
218.93
 10
280.65
 20
219.44
 10
281.88
 20
220.28
 10
283.05
 20
221.46
 10
283.84
 20
222.91
 10
284.4
 20
224.5
 10
284.74
 20
226.14
 10
284.85
 20
227.76
 10
284.71
 20
229.51
 10
284.33
 20
231.14
 10
283.71
 20
232.62
 10
282.9
 20
233.91
 10
281.92
 20
234.97
 10
280.8
 20
235.78
 10
279.57
 20
236.28
 10
278.25
 20
236.46
 10
276.9
 20
236.34
 10
275.59
 20
235.94
 97
0
 75
1
 76
1
 98
0
  0
LWPOLYLINE
  5
42
330
17
100
AcDbEntity
  8
FILL_WHITE_FFFFFF
370
0
420
16777215
100
AcDbPolyline
 90
60
 70
1
 10
280.14
 20
240.14
 10
281.12
 20
239.85
 10
282.11
 20
239.46
 10
283.09
 20
238.95
 10
284.03
 20
238.34
 10
284.92
 20
237.6
 10
285.75
 20
236.76
 10
286.58
 20
235.72
 10
287.28
 20
234.64
 10
287.85
 20
233.52
 10
288.3
 20
232.37
 10
288.64
 20
231.21
 10
288.87
 20
230.05
 10
289.05
 20
227.76
 10
288.87
 20
225.47
 10
288.64
 20
224.31
 10
288.3
 20
223.15
 10
287.85
 20
222.0
 10
287.28
 20
220.88
 10
286.58
 20
219.8
 10
285.75
 20
218.76
 10
284.92
 20
217.92
 10
284.03
 20
217.19
 10
283.09
 20
216.57
 10
282.11
 20
216.06
 10
281.12
 20
215.67
 10
280.14
 20
215.39
 10
279.18
 20
215.22
 10
278.25
 20
215.16
 10
277.23
 20
215.22
 10
276.19
 20
215.39
 10
275.15
 20
215.67
 10
274.13
 20
216.06
 10
273.13
 20
216.57
 10
272.18
 20
217.19
 10
271.28
 20
217.92
 10
270.45
 20
218.76
 10
269.62
 20
219.8
 10
268.92
 20
220.88
 10
268.35
 20
222.0
 10
267.9
 20
223.15
 10
267.56
 20
224.31
 10
267.33
 20
225.47
 10
267.15
 20
227.76
 10
267.33
 20
230.05
 10
267.56
 20
231.21
 10
267.9
 20
232.37
 10
268.35
 20
233.52
 10
268.92
 20
234.64
 10
269.62
 20
235.72
 10
270.45
 20
236.76
 10
271.28
 20
237.6
 10
272.18
 20
238.34
 10
273.13
 20
238.95
 10
274.13
 20
239.46
 10
275.15
 20
239.85
 10
276.19
 20
240.14
 10
277.23
 20
240.3
 10
278.25
 20
240.36
 10
279.18
 20
240.3
  0
LWPOLYLINE
  5
43
330
17
100
AcDbEntity
  8
FILL_WHITE_FFFFFF
370
0
420
16777215
100
AcDbPolyline
 90
32
 70
1
 10
275.59
 20
235.94
 10
274.33
 20
235.19
 10
273.15
 20
234.06
 10
272.36
 20
232.61
 10
271.8
 20
231.02
 10
271.46
 20
229.38
 10
271.35
 20
227.76
 10
271.49
 20
226.0
 10
271.88
 20
224.33
 10
272.5
 20
222.8
 10
273.34
 20
221.46
 10
274.35
 20
220.34
 10
275.53
 20
219.49
 10
276.83
 20
218.95
 10
278.25
 20
218.76
 10
279.42
 20
218.93
 10
280.65
 20
219.44
 10
281.88
 20
220.28
 10
283.05
 20
221.46
 10
283.84
 20
222.91
 10
284.4
 20
224.5
 10
284.74
 20
226.14
 10
284.85
 20
227.76
 10
284.71
 20
229.51
 10
284.33
 20
231.14
 10
283.71
 20
232.62
 10
282.9
 20
233.91
 10
281.92
 20
234.97
 10
280.8
 20
235.78
 10
279.57
 20
236.28
 10
278.25
 20
236.46
 10
276.9
 20
236.34
  0
HATCH
  5
44
330
17
100
AcDbEntity
  8
FILL_WHITE_FFFFFF
 62
7
420
16777215
100
AcDbHatch
 10
0.0
 20
0.0
 30
0.0
210
0.0
220
0.0
230
1.0
  2
SOLID
 70
1
 71
0
 91
1
 92
3
 72
0
 73
1
 93
7
 10
295.65
 20
239.76
 10
299.85
 20
239.76
 10
299.85
 20
219.36
 10
309.15
 20
219.36
 10
309.15
 20
215.76
 10
295.65
 20
215.76
 10
295.65
 20
239.76
 97
0
 75
1
 76
1
 98
0
  0
LWPOLYLINE
  5
45
330
17
100
AcDbEntity
  8
FILL_WHITE_FFFFFF
370
0
420
16777215
100
AcDbPolyline
 90
6
 70
1
 10
295.65
 20
239.76
 10
299.85
 20
239.76
 10
299.85
 20
219.36
 10
309.15
 20
219.36
 10
309.15
 20
215.76
 10
295.65
 20
215.76
  0
HATCH
  5
46
330
17
100
AcDbEntity
  8
FILL_WHITE_FFFFFF
 62
7
420
16777215
100
AcDbHatch
 10
0.0
 20
0.0
 30
0.0
210
0.0
220
0.0
230
1.0
  2
SOLID
 70
1
 71
0
 91
2
 92
3
 72
0
 73
1
 93
24
 10
334.73
 20
239.12
 10
335.79
 20
238.37
 10
336.75
 20
237.36
 10
337.66
 20
236.18
 10
338.21
 20
234.92
 10
338.48
 20
233.61
 10
338.55
 20
232.26
 10
338.48
 20
230.87
 10
338.21
 20
229.45
 10
337.66
 20
228.08
 10
337.26
 20
227.45
 10
336.75
 20
226.86
 10
335.81
 20
225.96
 10
334.65
 20
225.06
 10
334.15
 20
224.89
 10
333.56
 20
224.8
 10
332.25
 20
224.76
 10
326.55
 20
224.76
 10
326.55
 20
215.76
 10
322.35
 20
215.76
 10
322.35
 20
239.76
 10
332.25
 20
239.76
 10
333.54
 20
239.6
 10
334.73
 20
239.12
 97
0
 92
18
 72
0
 73
1
 93
17
 10
331.35
 20
228.36
 10
331.98
 20
228.42
 10
332.55
 20
228.59
 10
333.75
 20
229.26
 10
334.14
 20
229.94
 10
334.43
 20
230.65
 10
334.59
 20
231.41
 10
334.65
 20
232.26
 10
334.59
 20
232.94
 10
334.43
 20
233.61
 10
334.14
 20
234.29
 10
333.75
 20
234.96
 10
332.55
 20
235.86
 10
331.35
 20
236.16
 10
326.55
 20
236.16
 10
326.55
 20
228.36
 10
331.35
 20
228.36
 97
0
 75
1
 76
1
 98
0
  0
LWPOLYLINE
  5
47
330
17
100
AcDbEntity
  8
FILL_WHITE_FFFFFF
370
0
420
16777215
100
AcDbPolyline
 90
23
 70
1
 10
334.73
 20
239.12
 10
335.79
 20
238.37
 10
336.75
 20
237.36
 10
337.66
 20
236.18
 10
338.21
 20
234.92
 10
338.48
 20
233.61
 10
338.55
 20
232.26
 10
338.48
 20
230.87
 10
338.21
 20
229.45
 10
337.66
 20
228.08
 10
337.26
 20
227.45
 10
336.75
 20
226.86
 10
335.81
 20
225.96
 10
334.65
 20
225.06
 10
334.15
 20
224.89
 10
333.56
 20
224.8
 10
332.25
 20
224.76
 10
326.55
 20
224.76
 10
326.55
 20
215.76
 10
322.35
 20
215.76
 10
322.35
 20
239.76
 10
332.25
 20
239.76
 10
333.54
 20
239.6
  0
LWPOLYLINE
  5
48
330
17
100
AcDbEntity
  8
FILL_WHITE_FFFFFF
370
0
420
16777215
100
AcDbPolyline
 90
16
 70
1
 10
331.35
 20
228.36
 10
331.98
 20
228.42
 10
332.55
 20
228.59
 10
333.75
 20
229.26
 10
334.14
 20
229.94
 10
334.43
 20
230.65
 10
334.59
 20
231.41
 10
334.65
 20
232.26
 10
334.59
 20
232.94
 10
334.43
 20
233.61
 10
334.14
 20
234.29
 10
333.75
 20
234.96
 10
332.55
 20
235.86
 10
331.35
 20
236.16
 10
326.55
 20
236.16
 10
326.55
 20
228.36
  0
HATCH
  5
49
330
17
100
AcDbEntity
  8
FILL_WHITE_FFFFFF
 62
7
420
16777215
100
AcDbHatch
 10
0.0
 20
0.0
 30
0.0
210
0.0
220
0.0
230
1.0
  2
SOLID
 70
1
 71
0
 91
2
 92
3
 72
0
 73
1
 93
55
 10
355.57
 20
240.14
 10
356.57
 20
239.85
 10
357.56
 20
239.46
 10
358.54
 20
238.95
 10
359.5
 20
238.34
 10
360.44
 20
237.6
 10
361.35
 20
236.76
 10
362.75
 20
234.64
 10
363.79
 20
232.37
 10
364.43
 20
230.05
 10
364.59
 20
228.9
 10
364.65
 20
227.76
 10
364.59
 20
226.62
 10
364.43
 20
225.47
 10
363.79
 20
223.15
 10
362.75
 20
220.88
 10
361.35
 20
218.76
 10
360.44
 20
217.92
 10
359.5
 20
217.19
 10
358.54
 20
216.57
 10
357.56
 20
216.06
 10
356.57
 20
215.67
 10
355.57
 20
215.39
 10
354.56
 20
215.22
 10
353.55
 20
215.16
 10
352.54
 20
215.22
 10
351.53
 20
215.39
 10
350.53
 20
215.67
 10
349.54
 20
216.06
 10
348.56
 20
216.57
 10
347.6
 20
217.19
 10
346.66
 20
217.92
 10
345.75
 20
218.76
 10
345.02
 20
219.8
 10
344.4
 20
220.88
 10
343.88
 20
222.0
 10
343.46
 20
223.15
 10
342.92
 20
225.47
 10
342.75
 20
227.76
 10
342.92
 20
230.05
 10
343.46
 20
232.37
 10
343.88
 20
233.52
 10
344.4
 20
234.64
 10
345.02
 20
235.72
 10
345.75
 20
236.76
 10
346.66
 20
237.6
 10
347.6
 20
238.34
 10
348.56
 20
238.95
 10
349.54
 20
239.46
 10
350.53
 20
239.85
 10
351.53
 20
240.14
 10
352.54
 20
240.3
 10
353.55
 20
240.36
 10
354.56
 20
240.3
 10
355.57
 20
240.14
 97
0
 92
18
 72
0
 73
1
 93
33
 10
351.15
 20
235.94
 10
349.92
 20
235.19
 10
348.75
 20
234.06
 10
347.79
 20
232.61
 10
347.14
 20
231.02
 10
346.77
 20
229.38
 10
346.65
 20
227.76
 10
346.8
 20
226.0
 10
347.22
 20
224.33
 10
347.88
 20
222.8
 10
348.75
 20
221.46
 10
349.78
 20
220.34
 10
350.95
 20
219.49
 10
352.22
 20
218.95
 10
353.55
 20
218.76
 10
354.89
 20
218.93
 10
356.18
 20
219.44
 10
357.35
 20
220.28
 10
358.35
 20
221.46
 10
359.31
 20
222.91
 10
359.96
 20
224.5
 10
360.33
 20
226.14
 10
360.45
 20
227.76
 10
360.31
 20
229.51
 10
359.92
 20
231.14
 10
359.3
 20
232.62
 10
358.46
 20
233.91
 10
357.45
 20
234.97
 10
356.27
 20
235.78
 10
354.97
 20
236.28
 10
353.55
 20
236.46
 10
352.38
 20
236.34
 10
351.15
 20
235.94
 97
0
 75
1
 76
1
 98
0
  0
LWPOLYLINE
  5
4A
330
17
100
AcDbEntity
  8
FILL_WHITE_FFFFFF
370
0
420
16777215
100
AcDbPolyline
 90
54
 70
1
 10
355.57
 20
240.14
 10
356.57
 20
239.85
 10
357.56
 20
239.46
 10
358.54
 20
238.95
 10
359.5
 20
238.34
 10
360.44
 20
237.6
 10
361.35
 20
236.76
 10
362.75
 20
234.64
 10
363.79
 20
232.37
 10
364.43
 20
230.05
 10
364.59
 20
228.9
 10
364.65
 20
227.76
 10
364.59
 20
226.62
 10
364.43
 20
225.47
 10
363.79
 20
223.15
 10
362.75
 20
220.88
 10
361.35
 20
218.76
 10
360.44
 20
217.92
 10
359.5
 20
217.19
 10
358.54
 20
216.57
 10
357.56
 20
216.06
 10
356.57
 20
215.67
 10
355.57
 20
215.39
 10
354.56
 20
215.22
 10
353.55
 20
215.16
 10
352.54
 20
215.22
 10
351.53
 20
215.39
 10
350.53
 20
215.67
 10
349.54
 20
216.06
 10
348.56
 20
216.57
 10
347.6
 20
217.19
 10
346.66
 20
217.92
 10
345.75
 20
218.76
 10
345.02
 20
219.8
 10
344.4
 20
220.88
 10
343.88
 20
222.0
 10
343.46
 20
223.15
 10
342.92
 20
225.47
 10
342.75
 20
227.76
 10
342.92
 20
230.05
 10
343.46
 20
232.37
 10
343.88
 20
233.52
 10
344.4
 20
234.64
 10
345.02
 20
235.72
 10
345.75
 20
236.76
 10
346.66
 20
237.6
 10
347.6
 20
238.34
 10
348.56
 20
238.95
 10
349.54
 20
239.46
 10
350.53
 20
239.85
 10
351.53
 20
240.14
 10
352.54
 20
240.3
 10
353.55
 20
240.36
 10
354.56
 20
240.3
  0
LWPOLYLINE
  5
4B
330
17
100
AcDbEntity
  8
FILL_WHITE_FFFFFF
370
0
420
16777215
100
AcDbPolyline
 90
32
 70
1
 10
351.15
 20
235.94
 10
349.92
 20
235.19
 10
348.75
 20
234.06
 10
347.79
 20
232.61
 10
347.14
 20
231.02
 10
346.77
 20
229.38
 10
346.65
 20
227.76
 10
346.8
 20
226.0
 10
347.22
 20
224.33
 10
347.88
 20
222.8
 10
348.75
 20
221.46
 10
349.78
 20
220.34
 10
350.95
 20
219.49
 10
352.22
 20
218.95
 10
353.55
 20
218.76
 10
354.89
 20
218.93
 10
356.18
 20
219.44
 10
357.35
 20
220.28
 10
358.35
 20
221.46
 10
359.31
 20
222.91
 10
359.96
 20
224.5
 10
360.33
 20
226.14
 10
360.45
 20
227.76
 10
360.31
 20
229.51
 10
359.92
 20
231.14
 10
359.3
 20
232.62
 10
358.46
 20
233.91
 10
357.45
 20
234.97
 10
356.27
 20
235.78
 10
354.97
 20
236.28
 10
353.55
 20
236.46
 10
352.38
 20
236.34
  0
HATCH
  5
4C
330
17
100
AcDbEntity
  8
FILL_WHITE_FFFFFF
 62
7
420
16777215
100
AcDbHatch
 10
0.0
 20
0.0
 30
0.0
210
0.0
220
0.0
230
1.0
  2
SOLID
 70
1
 71
0
 91
1
 92
3
 72
0
 73
1
 93
5
 10
371.25
 20
239.76
 10
375.15
 20
239.76
 10
375.15
 20
215.76
 10
371.25
 20
215.76
 10
371.25
 20
239.76
 97
0
 75
1
 76
1
 98
0
  0
LWPOLYLINE
  5
4D
330
17
100
AcDbEntity
  8
FILL_WHITE_FFFFFF
370
0
420
16777215
100
AcDbPolyline
 90
4
 70
1
 10
371.25
 20
239.76
 10
375.15
 20
239.76
 10
375.15
 20
215.76
 10
371.25
 20
215.76
  0
HATCH
  5
4E
330
17
100
AcDbEntity
  8
FILL_WHITE_FFFFFF
 62
7
420
16777215
100
AcDbHatch
 10
0.0
 20
0.0
 30
0.0
210
0.0
220
0.0
230
1.0
  2
SOLID
 70
1
 71
0
 91
1
 92
3
 72
0
 73
1
 93
11
 10
387.75
 20
233.16
 10
387.75
 20
215.76
 10
383.55
 20
215.76
 10
383.55
 20
239.76
 10
388.35
 20
239.76
 10
400.05
 20
222.36
 10
400.05
 20
239.76
 10
403.95
 20
239.76
 10
403.95
 20
215.76
 10
399.45
 20
215.76
 10
387.75
 20
233.16
 97
0
 75
1
 76
1
 98
0
  0
LWPOLYLINE
  5
4F
330
17
100
AcDbEntity
  8
FILL_WHITE_FFFFFF
370
0
420
16777215
100
AcDbPolyline
 90
10
 70
1
 10
387.75
 20
233.16
 10
387.75
 20
215.76
 10
383.55
 20
215.76
 10
383.55
 20
239.76
 10
388.35
 20
239.76
 10
400.05
 20
222.36
 10
400.05
 20
239.76
 10
403.95
 20
239.76
 10
403.95
 20
215.76
 10
399.45
 20
215.76
  0
HATCH
  5
50
330
17
100
AcDbEntity
  8
FILL_WHITE_FFFFFF
 62
7
420
16777215
100
AcDbHatch
 10
0.0
 20
0.0
 30
0.0
210
0.0
220
0.0
230
1.0
  2
SOLID
 70
1
 71
0
 91
1
 92
3
 72
0
 73
1
 93
9
 10
426.15
 20
236.16
 10
419.55
 20
236.16
 10
419.55
 20
215.76
 10
415.35
 20
215.76
 10
415.35
 20
236.16
 10
408.75
 20
236.16
 10
408.75
 20
239.76
 10
426.15
 20
239.76
 10
426.15
 20
236.16
 97
0
 75
1
 76
1
 98
0
  0
LWPOLYLINE
  5
51
330
17
100
AcDbEntity
  8
FILL_WHITE_FFFFFF
370
0
420
16777215
100
AcDbPolyline
 90
8
 70
1
 10
426.15
 20
236.16
 10
419.55
 20
236.16
 10
419.55
 20
215.76
 10
415.35
 20
215.76
 10
415.35
 20
236.16
 10
408.75
 20
236.16
 10
408.75
 20
239.76
 10
426.15
 20
239.76
  0
HATCH
  5
52
330
17
100
AcDbEntity
  8
FILL_WHITE_FFFFFF
 62
7
420
16777215
100
AcDbHatch
 10
0.0
 20
0.0
 30
0.0
210
0.0
220
0.0
230
1.0
  2
SOLID
 70
1
 71
0
 91
2
 92
3
 72
0
 73
1
 93
9
 10
244.65
 20
181.86
 10
241.05
 20
181.86
 10
239.55
 20
186.06
 10
229.65
 20
186.06
 10
228.15
 20
181.86
 10
224.25
 20
181.86
 10
232.05
 20
205.56
 10
237.15
 20
205.56
 10
244.65
 20
181.86
 97
0
 92
18
 72
0
 73
1
 93
4
 10
230.55
 20
189.36
 10
238.65
 20
189.36
 10
234.45
 20
201.36
 10
230.55
 20
189.36
 97
0
 75
1
 76
1
 98
0
  0
LWPOLYLINE
  5
53
330
17
100
AcDbEntity
  8
FILL_WHITE_FFFFFF
370
0
420
16777215
100
AcDbPolyline
 90
8
 70
1
 10
244.65
 20
181.86
 10
241.05
 20
181.86
 10
239.55
 20
186.06
 10
229.65
 20
186.06
 10
228.15
 20
181.86
 10
224.25
 20
181.86
 10
232.05
 20
205.56
 10
237.15
 20
205.56
  0
LWPOLYLINE
  5
54
330
17
100
AcDbEntity
  8
FILL_WHITE_FFFFFF
370
0
420
16777215
100
AcDbPolyline
 90
3
 70
1
 10
230.55
 20
189.36
 10
238.65
 20
189.36
 10
234.45
 20
201.36
  0
HATCH
  5
55
330
17
100
AcDbEntity
  8
FILL_WHITE_FFFFFF
 62
7
420
16777215
100
AcDbHatch
 10
0.0
 20
0.0
 30
0.0
210
0.0
220
0.0
230
1.0
  2
SOLID
 70
1
 71
0
 91
1
 92
3
 72
0
 73
1
 93
13
 10
265.35
 20
192.66
 10
254.25
 20
192.66
 10
254.25
 20
181.86
 10
250.35
 20
181.86
 10
250.35
 20
205.56
 10
254.25
 20
205.56
 10
254.25
 20
196.26
 10
265.35
 20
196.26
 10
265.35
 20
205.56
 10
269.25
 20
205.56
 10
269.25
 20
181.86
 10
265.35
 20
181.86
 10
265.35
 20
192.66
 97
0
 75
1
 76
1
 98
0
  0
LWPOLYLINE
  5
56
330
17
100
AcDbEntity
  8
FILL_WHITE_FFFFFF
370
0
420
16777215
100
AcDbPolyline
 90
12
 70
1
 10
265.35
 20
192.66
 10
254.25
 20
192.66
 10
254.25
 20
181.86
 10
250.35
 20
181.86
 10
250.35
 20
205.56
 10
254.25
 20
205.56
 10
254.25
 20
196.26
 10
265.35
 20
196.26
 10
265.35
 20
205.56
 10
269.25
 20
205.56
 10
269.25
 20
181.86
 10
265.35
 20
181.86
  0
HATCH
  5
57
330
17
100
AcDbEntity
  8
FILL_WHITE_FFFFFF
 62
7
420
16777215
100
AcDbHatch
 10
0.0
 20
0.0
 30
0.0
210
0.0
220
0.0
230
1.0
  2
SOLID
 70
1
 71
0
 91
1
 92
3
 72
0
 73
1
 93
13
 10
277.35
 20
205.56
 10
292.35
 20
205.56
 10
292.35
 20
201.96
 10
281.55
 20
201.96
 10
281.55
 20
195.66
 10
291.75
 20
195.66
 10
291.75
 20
192.06
 10
281.55
 20
192.06
 10
281.55
 20
185.46
 10
293.25
 20
185.46
 10
293.25
 20
181.86
 10
277.35
 20
181.86
 10
277.35
 20
205.56
 97
0
 75
1
 76
1
 98
0
  0
LWPOLYLINE
  5
58
330
17
100
AcDbEntity
  8
FILL_WHITE_FFFFFF
370
0
420
16777215
100
AcDbPolyline
 90
12
 70
1
 10
277.35
 20
205.56
 10
292.35
 20
205.56
 10
292.35
 20
201.96
 10
281.55
 20
201.96
 10
281.55
 20
195.66
 10
291.75
 20
195.66
 10
291.75
 20
192.06
 10
281.55
 20
192.06
 10
281.55
 20
185.46
 10
293.25
 20
185.46
 10
293.25
 20
181.86
 10
277.35
 20
181.86
  0
HATCH
  5
59
330
17
100
AcDbEntity
  8
FILL_WHITE_FFFFFF
 62
7
420
16777215
100
AcDbHatch
 10
0.0
 20
0.0
 30
0.0
210
0.0
220
0.0
230
1.0
  2
SOLID
 70
1
 71
0
 91
2
 92
3
 72
0
 73
1
 93
9
 10
317.85
 20
181.86
 10
313.95
 20
181.86
 10
312.75
 20
186.06
 10
302.55
 20
186.06
 10
301.05
 20
181.86
 10
297.45
 20
181.86
 10
304.95
 20
205.56
 10
310.05
 20
205.56
 10
317.85
 20
181.86
 97
0
 92
18
 72
0
 73
1
 93
4
 10
303.75
 20
189.36
 10
311.55
 20
189.36
 10
307.65
 20
201.36
 10
303.75
 20
189.36
 97
0
 75
1
 76
1
 98
0
  0
LWPOLYLINE
  5
5A
330
17
100
AcDbEntity
  8
FILL_WHITE_FFFFFF
370
0
420
16777215
100
AcDbPolyline
 90
8
 70
1
 10
317.85
 20
181.86
 10
313.95
 20
181.86
 10
312.75
 20
186.06
 10
302.55
 20
186.06
 10
301.05
 20
181.86
 10
297.45
 20
181.86
 10
304.95
 20
205.56
 10
310.05
 20
205.56
  0
LWPOLYLINE
  5
5B
330
17
100
AcDbEntity
  8
FILL_WHITE_FFFFFF
370
0
420
16777215
100
AcDbPolyline
 90
3
 70
1
 10
303.75
 20
189.36
 10
311.55
 20
189.36
 10
307.65
 20
201.36
  0
HATCH
  5
5C
330
17
100
AcDbEntity
  8
FILL_WHITE_FFFFFF
 62
7
420
16777215
100
AcDbHatch
 10
0.0
 20
0.0
 30
0.0
210
0.0
220
0.0
230
1.0
  2
SOLID
 70
1
 71
0
 91
2
 92
3
 72
0
 73
1
 93
28
 10
335.26
 20
205.13
 10
336.23
 20
204.77
 10
337.17
 20
204.29
 10
338.07
 20
203.66
 10
338.94
 20
202.89
 10
339.75
 20
201.96
 10
340.48
 20
201.03
 10
341.1
 20
200.06
 10
341.62
 20
199.04
 10
342.04
 20
197.99
 10
342.58
 20
195.8
 10
342.75
 20
193.56
 10
342.58
 20
191.45
 10
342.04
 20
189.25
 10
341.62
 20
188.16
 10
341.1
 20
187.11
 10
340.48
 20
186.1
 10
339.75
 20
185.16
 10
337.95
 20
183.59
 10
336.15
 20
182.46
 10
335.2
 20
182.11
 10
334.2
 20
181.94
 10
332.25
 20
181.86
 10
323.25
 20
181.86
 10
323.25
 20
205.56
 10
332.25
 20
205.56
 10
334.27
 20
205.38
 10
335.26
 20
205.13
 97
0
 92
18
 72
0
 73
1
 93
22
 10
327.45
 20
185.46
 10
332.25
 20
185.46
 10
333.42
 20
185.58
 10
334.61
 20
185.99
 10
335.75
 20
186.73
 10
336.27
 20
187.24
 10
336.75
 20
187.86
 10
337.54
 20
189.13
 10
338.1
 20
190.6
 10
338.44
 20
192.12
 10
338.55
 20
193.56
 10
338.44
 20
195.13
 10
338.1
 20
196.67
 10
337.54
 20
198.16
 10
336.75
 20
199.56
 10
336.27
 20
200.18
 10
335.75
 20
200.69
 10
334.61
 20
201.44
 10
333.42
 20
201.84
 10
332.25
 20
201.96
 10
327.45
 20
201.96
 10
327.45
 20
185.46
 97
0
 75
1
 76
1
 98
0
  0
LWPOLYLINE
  5
5D
330
17
100
AcDbEntity
  8
FILL_WHITE_FFFFFF
370
0
420
16777215
100
AcDbPolyline
 90
27
 70
1
 10
335.26
 20
205.13
 10
336.23
 20
204.77
 10
337.17
 20
204.29
 10
338.07
 20
203.66
 10
338.94
 20
202.89
 10
339.75
 20
201.96
 10
340.48
 20
201.03
 10
341.1
 20
200.06
 10
341.62
 20
199.04
 10
342.04
 20
197.99
 10
342.58
 20
195.8
 10
342.75
 20
193.56
 10
342.58
 20
191.45
 10
342.04
 20
189.25
 10
341.62
 20
188.16
 10
341.1
 20
187.11
 10
340.48
 20
186.1
 10
339.75
 20
185.16
 10
337.95
 20
183.59
 10
336.15
 20
182.46
 10
335.2
 20
182.11
 10
334.2
 20
181.94
 10
332.25
 20
181.86
 10
323.25
 20
181.86
 10
323.25
 20
205.56
 10
332.25
 20
205.56
 10
334.27
 20
205.38
  0
LWPOLYLINE
  5
5E
330
17
100
AcDbEntity
  8
FILL_WHITE_FFFFFF
370
0
420
16777215
100
AcDbPolyline
 90
21
 70
1
 10
327.45
 20
185.46
 10
332.25
 20
185.46
 10
333.42
 20
185.58
 10
334.61
 20
185.99
 10
335.75
 20
186.73
 10
336.27
 20
187.24
 10
336.75
 20
187.86
 10
337.54
 20
189.13
 10
338.1
 20
190.6
 10
338.44
 20
192.12
 10
338.55
 20
193.56
 10
338.44
 20
195.13
 10
338.1
 20
196.67
 10
337.54
 20
198.16
 10
336.75
 20
199.56
 10
336.27
 20
200.18
 10
335.75
 20
200.69
 10
334.61
 20
201.44
 10
333.42
 20
201.84
 10
332.25
 20
201.96
 10
327.45
 20
201.96
  0
HATCH
  5
5F
330
17
100
AcDbEntity
  8
FILL_WHITE_FFFFFF
 62
7
420
16777215
100
AcDbHatch
 10
0.0
 20
0.0
 30
0.0
210
0.0
220
0.0
230
1.0
  2
SOLID
 70
1
 71
0
 91
1
 92
3
 72
0
 73
1
 93
13
 10
128.55
 20
171.66
 10
143.55
 20
171.66
 10
143.55
 20
167.76
 10
132.75
 20
167.76
 10
132.75
 20
161.76
 10
142.95
 20
161.76
 10
142.95
 20
157.86
 10
132.75
 20
157.86
 10
132.75
 20
151.56
 10
144.45
 20
151.56
 10
144.45
 20
147.66
 10
128.55
 20
147.66
 10
128.55
 20
171.66
 97
0
 75
1
 76
1
 98
0
  0
LWPOLYLINE
  5
60
330
17
100
AcDbEntity
  8
FILL_WHITE_FFFFFF
370
0
420
16777215
100
AcDbPolyline
 90
12
 70
1
 10
128.55
 20
171.66
 10
143.55
 20
171.66
 10
143.55
 20
167.76
 10
132.75
 20
167.76
 10
132.75
 20
161.76
 10
142.95
 20
161.76
 10
142.95
 20
157.86
 10
132.75
 20
157.86
 10
132.75
 20
151.56
 10
144.45
 20
151.56
 10
144.45
 20
147.66
 10
128.55
 20
147.66
  0
HATCH
  5
61
330
17
100
AcDbEntity
  8
FILL_WHITE_FFFFFF
 62
7
420
16777215
100
AcDbHatch
 10
0.0
 20
0.0
 30
0.0
210
0.0
220
0.0
230
1.0
  2
SOLID
 70
1
 71
0
 91
2
 92
3
 72
0
 73
1
 93
34
 10
162.19
 20
171.44
 10
163.13
 20
171.15
 10
164.06
 20
170.76
 10
164.98
 20
170.25
 10
165.88
 20
169.64
 10
166.74
 20
168.9
 10
167.55
 20
168.06
 10
168.38
 20
167.12
 10
169.08
 20
166.11
 10
169.65
 20
165.06
 10
170.1
 20
163.97
 10
170.44
 20
162.87
 10
170.67
 20
161.77
 10
170.85
 20
159.66
 10
170.67
 20
157.42
 10
170.44
 20
156.32
 10
170.1
 20
155.24
 10
169.65
 20
154.18
 10
169.08
 20
153.16
 10
168.38
 20
152.19
 10
167.55
 20
151.26
 10
166.74
 20
150.42
 10
165.88
 20
149.69
 10
164.98
 20
149.07
 10
164.06
 20
148.56
 10
163.13
 20
148.17
 10
162.19
 20
147.89
 10
161.26
 20
147.72
 10
160.35
 20
147.66
 10
151.35
 20
147.66
 10
151.35
 20
171.66
 10
160.35
 20
171.66
 10
161.26
 20
171.6
 10
162.19
 20
171.44
 97
0
 92
18
 72
0
 73
1
 93
21
 10
155.55
 20
151.26
 10
160.35
 20
151.26
 10
161.44
 20
151.45
 10
162.75
 20
151.86
 10
163.8
 20
152.54
 10
164.35
 20
153.04
 10
164.85
 20
153.66
 10
165.64
 20
155.06
 10
166.2
 20
156.55
 10
166.54
 20
158.09
 10
166.65
 20
159.66
 10
166.54
 20
161.23
 10
166.2
 20
162.74
 10
165.64
 20
164.13
 10
164.85
 20
165.36
 10
163.85
 20
166.54
 10
162.71
 20
167.39
 10
161.52
 20
167.89
 10
160.35
 20
168.06
 10
155.55
 20
168.06
 10
155.55
 20
151.26
 97
0
 75
1
 76
1
 98
0
  0
LWPOLYLINE
  5
62
330
17
100
AcDbEntity
  8
FILL_WHITE_FFFFFF
370
0
420
16777215
100
AcDbPolyline
 90
33
 70
1
 10
162.19
 20
171.44
 10
163.13
 20
171.15
 10
164.06
 20
170.76
 10
164.98
 20
170.25
 10
165.88
 20
169.64
 10
166.74
 20
168.9
 10
167.55
 20
168.06
 10
168.38
 20
167.12
 10
169.08
 20
166.11
 10
169.65
 20
165.06
 10
170.1
 20
163.97
 10
170.44
 20
162.87
 10
170.67
 20
161.77
 10
170.85
 20
159.66
 10
170.67
 20
157.42
 10
170.44
 20
156.32
 10
170.1
 20
155.24
 10
169.65
 20
154.18
 10
169.08
 20
153.16
 10
168.38
 20
152.19
 10
167.55
 20
151.26
 10
166.74
 20
150.42
 10
165.88
 20
149.69
 10
164.98
 20
149.07
 10
164.06
 20
148.56
 10
163.13
 20
148.17
 10
162.19
 20
147.89
 10
161.26
 20
147.72
 10
160.35
 20
147.66
 10
151.35
 20
147.66
 10
151.35
 20
171.66
 10
160.35
 20
171.66
 10
161.26
 20
171.6
  0
LWPOLYLINE
  5
63
330
17
100
AcDbEntity
  8
FILL_WHITE_FFFFFF
370
0
420
16777215
100
AcDbPolyline
 90
20
 70
1
 10
155.55
 20
151.26
 10
160.35
 20
151.26
 10
161.44
 20
151.45
 10
162.75
 20
151.86
 10
163.8
 20
152.54
 10
164.35
 20
153.04
 10
164.85
 20
153.66
 10
165.64
 20
155.06
 10
166.2
 20
156.55
 10
166.54
 20
158.09
 10
166.65
 20
159.66
 10
166.54
 20
161.23
 10
166.2
 20
162.74
 10
165.64
 20
164.13
 10
164.85
 20
165.36
 10
163.85
 20
166.54
 10
162.71
 20
167.39
 10
161.52
 20
167.89
 10
160.35
 20
168.06
 10
155.55
 20
168.06
  0
HATCH
  5
64
330
17
100
AcDbEntity
  8
FILL_WHITE_FFFFFF
 62
7
420
16777215
100
AcDbHatch
 10
0.0
 20
0.0
 30
0.0
210
0.0
220
0.0
230
1.0
  2
SOLID
 70
1
 71
0
 91
1
 92
3
 72
0
 73
1
 93
44
 10
181.35
 20
156.06
 10
181.39
 20
155.31
 10
181.65
 20
154.56
 10
181.75
 20
154.11
 10
181.99
 20
153.66
 10
182.55
 20
152.76
 10
183.33
 20
152.1
 10
184.28
 20
151.52
 10
185.33
 20
151.11
 10
186.45
 20
150.96
 10
187.57
 20
151.11
 10
188.63
 20
151.52
 10
189.57
 20
152.1
 10
190.35
 20
152.76
 10
191.06
 20
153.66
 10
191.55
 20
154.56
 10
191.85
 20
156.06
 10
191.85
 20
171.66
 10
195.75
 20
171.66
 10
195.75
 20
156.06
 10
195.56
 20
154.41
 10
195.15
 20
152.76
 10
194.21
 20
151.0
 10
193.67
 20
150.19
 10
193.05
 20
149.46
 10
192.75
 20
149.46
 10
192.15
 20
148.94
 10
191.47
 20
148.5
 10
189.94
 20
147.85
 10
188.24
 20
147.48
 10
186.45
 20
147.36
 10
184.71
 20
147.48
 10
183.08
 20
147.85
 10
181.56
 20
148.5
 10
180.15
 20
149.46
 10
178.88
 20
151.0
 10
178.38
 20
151.86
 10
178.05
 20
152.76
 10
177.7
 20
153.61
 10
177.49
 20
154.41
 10
177.15
 20
156.06
 10
177.15
 20
171.66
 10
181.35
 20
171.66
 10
181.35
 20
156.06
 97
0
 75
1
 76
1
 98
0
  0
LWPOLYLINE
  5
65
330
17
100
AcDbEntity
  8
FILL_WHITE_FFFFFF
370
0
420
16777215
100
AcDbPolyline
 90
43
 70
1
 10
181.35
 20
156.06
 10
181.39
 20
155.31
 10
181.65
 20
154.56
 10
181.75
 20
154.11
 10
181.99
 20
153.66
 10
182.55
 20
152.76
 10
183.33
 20
152.1
 10
184.28
 20
151.52
 10
185.33
 20
151.11
 10
186.45
 20
150.96
 10
187.57
 20
151.11
 10
188.63
 20
151.52
 10
189.57
 20
152.1
 10
190.35
 20
152.76
 10
191.06
 20
153.66
 10
191.55
 20
154.56
 10
191.85
 20
156.06
 10
191.85
 20
171.66
 10
195.75
 20
171.66
 10
195.75
 20
156.06
 10
195.56
 20
154.41
 10
195.15
 20
152.76
 10
194.21
 20
151.0
 10
193.67
 20
150.19
 10
193.05
 20
149.46
 10
192.75
 20
149.46
 10
192.15
 20
148.94
 10
191.47
 20
148.5
 10
189.94
 20
147.85
 10
188.24
 20
147.48
 10
186.45
 20
147.36
 10
184.71
 20
147.48
 10
183.08
 20
147.85
 10
181.56
 20
148.5
 10
180.15
 20
149.46
 10
178.88
 20
151.0
 10
178.38
 20
151.86
 10
178.05
 20
152.76
 10
177.7
 20
153.61
 10
177.49
 20
154.41
 10
177.15
 20
156.06
 10
177.15
 20
171.66
 10
181.35
 20
171.66
  0
HATCH
  5
66
330
17
100
AcDbEntity
  8
FILL_WHITE_FFFFFF
 62
7
420
16777215
100
AcDbHatch
 10
0.0
 20
0.0
 30
0.0
210
0.0
220
0.0
230
1.0
  2
SOLID
 70
1
 71
0
 91
1
 92
3
 72
0
 73
1
 93
80
 10
218.06
 20
165.36
 10
217.01
 20
166.67
 10
216.39
 20
167.23
 10
215.69
 20
167.7
 10
214.91
 20
168.08
 10
214.05
 20
168.36
 10
213.26
 20
168.52
 10
212.48
 20
168.54
 10
211.72
 20
168.45
 10
210.98
 20
168.25
 10
209.58
 20
167.56
 10
208.35
 20
166.56
 10
207.34
 20
165.1
 10
206.59
 20
163.45
 10
206.11
 20
161.62
 10
205.95
 20
159.66
 10
206.11
 20
157.7
 10
206.59
 20
155.87
 10
207.34
 20
154.22
 10
208.35
 20
152.76
 10
209.58
 20
151.76
 10
210.98
 20
151.07
 10
211.72
 20
150.87
 10
212.48
 20
150.78
 10
213.26
 20
150.8
 10
214.05
 20
150.96
 10
214.9
 20
151.24
 10
215.66
 20
151.6
 10
217.05
 20
152.46
 10
217.95
 20
153.85
 10
218.85
 20
155.46
 10
222.75
 20
154.56
 10
222.24
 20
153.44
 10
221.63
 20
152.31
 10
220.05
 20
150.06
 10
219.09
 20
149.22
 10
218.03
 20
148.49
 10
216.84
 20
147.87
 10
215.55
 20
147.36
 10
214.2
 20
147.02
 10
212.89
 20
146.91
 10
211.63
 20
147.02
 10
210.45
 20
147.36
 10
209.16
 20
147.69
 10
208.01
 20
148.22
 10
207.03
 20
148.92
 10
206.25
 20
149.76
 10
205.36
 20
150.54
 10
204.53
 20
151.49
 10
203.8
 20
152.54
 10
203.25
 20
153.66
 10
202.68
 20
155.06
 10
202.31
 20
156.55
 10
202.11
 20
158.09
 10
202.05
 20
159.66
 10
202.11
 20
161.18
 10
202.31
 20
162.62
 10
202.68
 20
164.01
 10
203.25
 20
165.36
 10
203.8
 20
166.61
 10
204.53
 20
167.69
 10
206.25
 20
169.56
 10
207.03
 20
170.23
 10
208.01
 20
170.87
 10
209.16
 20
171.46
 10
210.45
 20
171.96
 10
211.63
 20
172.13
 10
212.89
 20
172.19
 10
214.2
 20
172.13
 10
215.55
 20
171.96
 10
216.84
 20
171.45
 10
218.03
 20
170.8
 10
219.09
 20
169.98
 10
220.05
 20
168.96
 10
220.89
 20
168.01
 10
221.63
 20
166.97
 10
222.24
 20
165.88
 10
222.75
 20
164.76
 10
218.85
 20
163.86
 10
218.06
 20
165.36
 97
0
 75
1
 76
1
 98
0
  0
LWPOLYLINE
  5
67
330
17
100
AcDbEntity
  8
FILL_WHITE_FFFFFF
370
0
420
16777215
100
AcDbPolyline
 90
79
 70
1
 10
218.06
 20
165.36
 10
217.01
 20
166.67
 10
216.39
 20
167.23
 10
215.69
 20
167.7
 10
214.91
 20
168.08
 10
214.05
 20
168.36
 10
213.26
 20
168.52
 10
212.48
 20
168.54
 10
211.72
 20
168.45
 10
210.98
 20
168.25
 10
209.58
 20
167.56
 10
208.35
 20
166.56
 10
207.34
 20
165.1
 10
206.59
 20
163.45
 10
206.11
 20
161.62
 10
205.95
 20
159.66
 10
206.11
 20
157.7
 10
206.59
 20
155.87
 10
207.34
 20
154.22
 10
208.35
 20
152.76
 10
209.58
 20
151.76
 10
210.98
 20
151.07
 10
211.72
 20
150.87
 10
212.48
 20
150.78
 10
213.26
 20
150.8
 10
214.05
 20
150.96
 10
214.9
 20
151.24
 10
215.66
 20
151.6
 10
217.05
 20
152.46
 10
217.95
 20
153.85
 10
218.85
 20
155.46
 10
222.75
 20
154.56
 10
222.24
 20
153.44
 10
221.63
 20
152.31
 10
220.05
 20
150.06
 10
219.09
 20
149.22
 10
218.03
 20
148.49
 10
216.84
 20
147.87
 10
215.55
 20
147.36
 10
214.2
 20
147.02
 10
212.89
 20
146.91
 10
211.63
 20
147.02
 10
210.45
 20
147.36
 10
209.16
 20
147.69
 10
208.01
 20
148.22
 10
207.03
 20
148.92
 10
206.25
 20
149.76
 10
205.36
 20
150.54
 10
204.53
 20
151.49
 10
203.8
 20
152.54
 10
203.25
 20
153.66
 10
202.68
 20
155.06
 10
202.31
 20
156.55
 10
202.11
 20
158.09
 10
202.05
 20
159.66
 10
202.11
 20
161.18
 10
202.31
 20
162.62
 10
202.68
 20
164.01
 10
203.25
 20
165.36
 10
203.8
 20
166.61
 10
204.53
 20
167.69
 10
206.25
 20
169.56
 10
207.03
 20
170.23
 10
208.01
 20
170.87
 10
209.16
 20
171.46
 10
210.45
 20
171.96
 10
211.63
 20
172.13
 10
212.89
 20
172.19
 10
214.2
 20
172.13
 10
215.55
 20
171.96
 10
216.84
 20
171.45
 10
218.03
 20
170.8
 10
219.09
 20
169.98
 10
220.05
 20
168.96
 10
220.89
 20
168.01
 10
221.63
 20
166.97
 10
222.24
 20
165.88
 10
222.75
 20
164.76
 10
218.85
 20
163.86
  0
HATCH
  5
68
330
17
100
AcDbEntity
  8
FILL_WHITE_FFFFFF
 62
7
420
16777215
100
AcDbHatch
 10
0.0
 20
0.0
 30
0.0
210
0.0
220
0.0
230
1.0
  2
SOLID
 70
1
 71
0
 91
1
 92
3
 72
0
 73
1
 93
13
 10
229.05
 20
171.66
 10
244.05
 20
171.66
 10
244.05
 20
167.76
 10
232.95
 20
167.76
 10
232.95
 20
161.76
 10
243.15
 20
161.76
 10
243.15
 20
157.86
 10
232.95
 20
157.86
 10
232.95
 20
151.56
 10
244.65
 20
151.56
 10
244.65
 20
147.66
 10
229.05
 20
147.66
 10
229.05
 20
171.66
 97
0
 75
1
 76
1
 98
0
  0
LWPOLYLINE
  5
69
330
17
100
AcDbEntity
  8
FILL_WHITE_FFFFFF
370
0
420
16777215
100
AcDbPolyline
 90
12
 70
1
 10
229.05
 20
171.66
 10
244.05
 20
171.66
 10
244.05
 20
167.76
 10
232.95
 20
167.76
 10
232.95
 20
161.76
 10
243.15
 20
161.76
 10
243.15
 20
157.86
 10
232.95
 20
157.86
 10
232.95
 20
151.56
 10
244.65
 20
151.56
 10
244.65
 20
147.66
 10
229.05
 20
147.66
  0
HATCH
  5
6A
330
17
100
AcDbEntity
  8
FILL_WHITE_FFFFFF
 62
7
420
16777215
100
AcDbHatch
 10
0.0
 20
0.0
 30
0.0
210
0.0
220
0.0
230
1.0
  2
SOLID
 70
1
 71
0
 91
1
 92
3
 72
0
 73
1
 93
92
 10
276.46
 20
153.05
 10
276.0
 20
151.67
 10
275.32
 20
150.47
 10
274.35
 20
149.46
 10
273.73
 20
148.94
 10
273.02
 20
148.5
 10
271.39
 20
147.85
 10
269.58
 20
147.48
 10
267.75
 20
147.36
 10
265.83
 20
147.52
 10
264.08
 20
147.96
 10
262.43
 20
148.63
 10
260.85
 20
149.46
 10
259.35
 20
150.4
 10
258.57
 20
150.94
 10
257.85
 20
151.56
 10
261.15
 20
154.26
 10
261.94
 20
153.44
 10
262.73
 20
152.77
 10
263.54
 20
152.24
 10
264.38
 20
151.82
 10
266.13
 20
151.26
 10
268.05
 20
150.96
 10
269.39
 20
151.03
 10
270.64
 20
151.3
 10
271.72
 20
151.85
 10
272.17
 20
152.25
 10
272.55
 20
152.76
 10
272.71
 20
153.53
 10
272.74
 20
154.41
 10
272.59
 20
155.29
 10
272.25
 20
156.06
 10
271.86
 20
156.56
 10
271.37
 20
156.93
 10
270.19
 20
157.41
 10
267.45
 20
157.86
 10
265.09
 20
158.35
 10
262.95
 20
159.06
 10
261.15
 20
159.96
 10
260.62
 20
160.35
 10
260.14
 20
160.84
 10
259.39
 20
162.02
 10
258.91
 20
163.38
 10
258.75
 20
164.76
 10
258.91
 20
166.15
 10
259.39
 20
167.54
 10
260.14
 20
168.81
 10
261.15
 20
169.86
 10
261.75
 20
170.38
 10
262.43
 20
170.82
 10
263.96
 20
171.47
 10
265.66
 20
171.84
 10
267.45
 20
171.96
 10
268.57
 20
171.9
 10
269.7
 20
171.73
 10
270.81
 20
171.44
 10
271.91
 20
171.02
 10
273.0
 20
170.48
 10
274.07
 20
169.81
 10
275.12
 20
169.0
 10
276.15
 20
168.06
 10
273.15
 20
165.66
 10
271.71
 20
166.67
 10
270.15
 20
167.42
 10
268.59
 20
167.9
 10
267.15
 20
168.06
 10
266.31
 20
168.18
 10
265.58
 20
168.1
 10
264.96
 20
167.85
 10
264.45
 20
167.46
 10
263.84
 20
166.91
 10
263.36
 20
166.22
 10
263.06
 20
165.48
 10
262.95
 20
164.76
 10
263.1
 20
164.14
 10
263.48
 20
163.6
 10
264.45
 20
162.66
 10
265.05
 20
162.36
 10
265.35
 20
162.36
 10
265.95
 20
162.36
 10
271.35
 20
161.16
 10
272.21
 20
160.86
 10
272.85
 20
160.56
 10
274.65
 20
159.66
 10
275.27
 20
158.93
 10
275.78
 20
158.09
 10
276.17
 20
157.13
 10
276.45
 20
156.06
 10
276.62
 20
155.78
 10
276.71
 20
155.42
 10
276.75
 20
154.56
 10
276.46
 20
153.05
 97
0
 75
1
 76
1
 98
0
  0
LWPOLYLINE
  5
6B
330
17
100
AcDbEntity
  8
FILL_WHITE_FFFFFF
370
0
420
16777215
100
AcDbPolyline
 90
91
 70
1
 10
276.46
 20
153.05
 10
276.0
 20
151.67
 10
275.32
 20
150.47
 10
274.35
 20
149.46
 10
273.73
 20
148.94
 10
273.02
 20
148.5
 10
271.39
 20
147.85
 10
269.58
 20
147.48
 10
267.75
 20
147.36
 10
265.83
 20
147.52
 10
264.08
 20
147.96
 10
262.43
 20
148.63
 10
260.85
 20
149.46
 10
259.35
 20
150.4
 10
258.57
 20
150.94
 10
257.85
 20
151.56
 10
261.15
 20
154.26
 10
261.94
 20
153.44
 10
262.73
 20
152.77
 10
263.54
 20
152.24
 10
264.38
 20
151.82
 10
266.13
 20
151.26
 10
268.05
 20
150.96
 10
269.39
 20
151.03
 10
270.64
 20
151.3
 10
271.72
 20
151.85
 10
272.17
 20
152.25
 10
272.55
 20
152.76
 10
272.71
 20
153.53
 10
272.74
 20
154.41
 10
272.59
 20
155.29
 10
272.25
 20
156.06
 10
271.86
 20
156.56
 10
271.37
 20
156.93
 10
270.19
 20
157.41
 10
267.45
 20
157.86
 10
265.09
 20
158.35
 10
262.95
 20
159.06
 10
261.15
 20
159.96
 10
260.62
 20
160.35
 10
260.14
 20
160.84
 10
259.39
 20
162.02
 10
258.91
 20
163.38
 10
258.75
 20
164.76
 10
258.91
 20
166.15
 10
259.39
 20
167.54
 10
260.14
 20
168.81
 10
261.15
 20
169.86
 10
261.75
 20
170.38
 10
262.43
 20
170.82
 10
263.96
 20
171.47
 10
265.66
 20
171.84
 10
267.45
 20
171.96
 10
268.57
 20
171.9
 10
269.7
 20
171.73
 10
270.81
 20
171.44
 10
271.91
 20
171.02
 10
273.0
 20
170.48
 10
274.07
 20
169.81
 10
275.12
 20
169.0
 10
276.15
 20
168.06
 10
273.15
 20
165.66
 10
271.71
 20
166.67
 10
270.15
 20
167.42
 10
268.59
 20
167.9
 10
267.15
 20
168.06
 10
266.31
 20
168.18
 10
265.58
 20
168.1
 10
264.96
 20
167.85
 10
264.45
 20
167.46
 10
263.84
 20
166.91
 10
263.36
 20
166.22
 10
263.06
 20
165.48
 10
262.95
 20
164.76
 10
263.1
 20
164.14
 10
263.48
 20
163.6
 10
264.45
 20
162.66
 10
265.05
 20
162.36
 10
265.35
 20
162.36
 10
265.95
 20
162.36
 10
271.35
 20
161.16
 10
272.21
 20
160.86
 10
272.85
 20
160.56
 10
274.65
 20
159.66
 10
275.27
 20
158.93
 10
275.78
 20
158.09
 10
276.17
 20
157.13
 10
276.45
 20
156.06
 10
276.62
 20
155.78
 10
276.71
 20
155.42
 10
276.75
 20
154.56
  0
HATCH
  5
6C
330
17
100
AcDbEntity
  8
FILL_WHITE_FFFFFF
 62
7
420
16777215
100
AcDbHatch
 10
0.0
 20
0.0
 30
0.0
210
0.0
220
0.0
230
1.0
  2
SOLID
 70
1
 71
0
 91
2
 92
3
 72
0
 73
1
 93
22
 10
295.91
 20
171.02
 10
297.05
 20
170.27
 10
298.05
 20
169.26
 10
298.84
 20
168.08
 10
299.4
 20
166.82
 10
299.74
 20
165.51
 10
299.85
 20
164.16
 10
299.74
 20
162.64
 10
299.4
 20
161.24
 10
298.84
 20
159.94
 10
298.05
 20
158.76
 10
297.05
 20
157.8
 10
295.91
 20
157.15
 10
294.72
 20
156.78
 10
293.55
 20
156.66
 10
287.55
 20
156.66
 10
287.55
 20
147.66
 10
283.35
 20
147.66
 10
283.35
 20
171.66
 10
293.55
 20
171.66
 10
294.72
 20
171.5
 10
295.91
 20
171.02
 97
0
 92
18
 72
0
 73
1
 93
20
 10
292.65
 20
159.96
 10
293.3
 20
160.04
 10
293.88
 20
160.28
 10
294.39
 20
160.66
 10
294.83
 20
161.16
 10
295.18
 20
161.78
 10
295.43
 20
162.49
 10
295.59
 20
163.29
 10
295.65
 20
164.16
 10
295.59
 20
164.93
 10
295.43
 20
165.66
 10
295.18
 20
166.32
 10
294.83
 20
166.9
 10
294.39
 20
167.38
 10
293.88
 20
167.75
 10
293.3
 20
167.98
 10
292.65
 20
168.06
 10
287.55
 20
168.06
 10
287.55
 20
159.96
 10
292.65
 20
159.96
 97
0
 75
1
 76
1
 98
0
  0
LWPOLYLINE
  5
6D
330
17
100
AcDbEntity
  8
FILL_WHITE_FFFFFF
370
0
420
16777215
100
AcDbPolyline
 90
21
 70
1
 10
295.91
 20
171.02
 10
297.05
 20
170.27
 10
298.05
 20
169.26
 10
298.84
 20
168.08
 10
299.4
 20
166.82
 10
299.74
 20
165.51
 10
299.85
 20
164.16
 10
299.74
 20
162.64
 10
299.4
 20
161.24
 10
298.84
 20
159.94
 10
298.05
 20
158.76
 10
297.05
 20
157.8
 10
295.91
 20
157.15
 10
294.72
 20
156.78
 10
293.55
 20
156.66
 10
287.55
 20
156.66
 10
287.55
 20
147.66
 10
283.35
 20
147.66
 10
283.35
 20
171.66
 10
293.55
 20
171.66
 10
294.72
 20
171.5
  0
LWPOLYLINE
  5
6E
330
17
100
AcDbEntity
  8
FILL_WHITE_FFFFFF
370
0
420
16777215
100
AcDbPolyline
 90
19
 70
1
 10
292.65
 20
159.96
 10
293.3
 20
160.04
 10
293.88
 20
160.28
 10
294.39
 20
160.66
 10
294.83
 20
161.16
 10
295.18
 20
161.78
 10
295.43
 20
162.49
 10
295.59
 20
163.29
 10
295.65
 20
164.16
 10
295.59
 20
164.93
 10
295.43
 20
165.66
 10
295.18
 20
166.32
 10
294.83
 20
166.9
 10
294.39
 20
167.38
 10
293.88
 20
167.75
 10
293.3
 20
167.98
 10
292.65
 20
168.06
 10
287.55
 20
168.06
 10
287.55
 20
159.96
  0
HATCH
  5
6F
330
17
100
AcDbEntity
  8
FILL_WHITE_FFFFFF
 62
7
420
16777215
100
AcDbHatch
 10
0.0
 20
0.0
 30
0.0
210
0.0
220
0.0
230
1.0
  2
SOLID
 70
1
 71
0
 91
1
 92
3
 72
0
 73
1
 93
13
 10
305.55
 20
171.66
 10
320.55
 20
171.66
 10
320.55
 20
167.76
 10
309.45
 20
167.76
 10
309.45
 20
161.76
 10
319.65
 20
161.76
 10
319.65
 20
157.86
 10
309.45
 20
157.86
 10
309.45
 20
151.56
 10
321.15
 20
151.56
 10
321.15
 20
147.66
 10
305.55
 20
147.66
 10
305.55
 20
171.66
 97
0
 75
1
 76
1
 98
0
  0
LWPOLYLINE
  5
70
330
17
100
AcDbEntity
  8
FILL_WHITE_FFFFFF
370
0
420
16777215
100
AcDbPolyline
 90
12
 70
1
 10
305.55
 20
171.66
 10
320.55
 20
171.66
 10
320.55
 20
167.76
 10
309.45
 20
167.76
 10
309.45
 20
161.76
 10
319.65
 20
161.76
 10
319.65
 20
157.86
 10
309.45
 20
157.86
 10
309.45
 20
151.56
 10
321.15
 20
151.56
 10
321.15
 20
147.66
 10
305.55
 20
147.66
  0
HATCH
  5
71
330
17
100
AcDbEntity
  8
FILL_WHITE_FFFFFF
 62
7
420
16777215
100
AcDbHatch
 10
0.0
 20
0.0
 30
0.0
210
0.0
220
0.0
230
1.0
  2
SOLID
 70
1
 71
0
 91
1
 92
3
 72
0
 73
1
 93
13
 10
328.05
 20
171.66
 10
343.05
 20
171.66
 10
343.05
 20
167.76
 10
332.25
 20
167.76
 10
332.25
 20
161.76
 10
342.45
 20
161.76
 10
342.45
 20
157.86
 10
332.25
 20
157.86
 10
332.25
 20
151.56
 10
343.95
 20
151.56
 10
343.95
 20
147.66
 10
328.05
 20
147.66
 10
328.05
 20
171.66
 97
0
 75
1
 76
1
 98
0
  0
LWPOLYLINE
  5
72
330
17
100
AcDbEntity
  8
FILL_WHITE_FFFFFF
370
0
420
16777215
100
AcDbPolyline
 90
12
 70
1
 10
328.05
 20
171.66
 10
343.05
 20
171.66
 10
343.05
 20
167.76
 10
332.25
 20
167.76
 10
332.25
 20
161.76
 10
342.45
 20
161.76
 10
342.45
 20
157.86
 10
332.25
 20
157.86
 10
332.25
 20
151.56
 10
343.95
 20
151.56
 10
343.95
 20
147.66
 10
328.05
 20
147.66
  0
HATCH
  5
73
330
17
100
AcDbEntity
  8
FILL_WHITE_FFFFFF
 62
7
420
16777215
100
AcDbHatch
 10
0.0
 20
0.0
 30
0.0
210
0.0
220
0.0
230
1.0
  2
SOLID
 70
1
 71
0
 91
2
 92
3
 72
0
 73
1
 93
32
 10
361.69
 20
171.44
 10
362.63
 20
171.15
 10
363.56
 20
170.76
 10
364.48
 20
170.25
 10
365.38
 20
169.64
 10
366.24
 20
168.9
 10
367.05
 20
168.06
 10
367.79
 20
167.12
 10
368.45
 20
166.11
 10
369.49
 20
163.97
 10
370.13
 20
161.77
 10
370.29
 20
160.7
 10
370.35
 20
159.66
 10
370.29
 20
158.54
 10
370.13
 20
157.42
 10
369.86
 20
156.32
 10
369.49
 20
155.24
 10
369.02
 20
154.18
 10
368.45
 20
153.16
 10
367.05
 20
151.26
 10
366.32
 20
150.42
 10
365.51
 20
149.69
 10
364.65
 20
149.07
 10
363.75
 20
148.56
 10
361.69
 20
147.89
 10
360.75
 20
147.72
 10
359.85
 20
147.66
 10
350.85
 20
147.66
 10
350.85
 20
171.66
 10
359.85
 20
171.66
 10
360.76
 20
171.6
 10
361.69
 20
171.44
 97
0
 92
18
 72
0
 73
1
 93
21
 10
354.75
 20
151.26
 10
359.85
 20
151.26
 10
361.02
 20
151.38
 10
362.21
 20
151.79
 10
363.35
 20
152.53
 10
363.87
 20
153.04
 10
364.35
 20
153.66
 10
365.14
 20
155.06
 10
365.7
 20
156.55
 10
366.04
 20
158.09
 10
366.15
 20
159.66
 10
366.04
 20
161.23
 10
365.7
 20
162.74
 10
365.14
 20
164.13
 10
364.35
 20
165.36
 10
363.3
 20
166.52
 10
362.25
 20
167.46
 10
360.94
 20
167.87
 10
359.85
 20
168.06
 10
354.75
 20
168.06
 10
354.75
 20
151.26
 97
0
 75
1
 76
1
 98
0
  0
LWPOLYLINE
  5
74
330
17
100
AcDbEntity
  8
FILL_WHITE_FFFFFF
370
0
420
16777215
100
AcDbPolyline
 90
31
 70
1
 10
361.69
 20
171.44
 10
362.63
 20
171.15
 10
363.56
 20
170.76
 10
364.48
 20
170.25
 10
365.38
 20
169.64
 10
366.24
 20
168.9
 10
367.05
 20
168.06
 10
367.79
 20
167.12
 10
368.45
 20
166.11
 10
369.49
 20
163.97
 10
370.13
 20
161.77
 10
370.29
 20
160.7
 10
370.35
 20
159.66
 10
370.29
 20
158.54
 10
370.13
 20
157.42
 10
369.86
 20
156.32
 10
369.49
 20
155.24
 10
369.02
 20
154.18
 10
368.45
 20
153.16
 10
367.05
 20
151.26
 10
366.32
 20
150.42
 10
365.51
 20
149.69
 10
364.65
 20
149.07
 10
363.75
 20
148.56
 10
361.69
 20
147.89
 10
360.75
 20
147.72
 10
359.85
 20
147.66
 10
350.85
 20
147.66
 10
350.85
 20
171.66
 10
359.85
 20
171.66
 10
360.76
 20
171.6
  0
LWPOLYLINE
  5
75
330
17
100
AcDbEntity
  8
FILL_WHITE_FFFFFF
370
0
420
16777215
100
AcDbPolyline
 90
20
 70
1
 10
354.75
 20
151.26
 10
359.85
 20
151.26
 10
361.02
 20
151.38
 10
362.21
 20
151.79
 10
363.35
 20
152.53
 10
363.87
 20
153.04
 10
364.35
 20
153.66
 10
365.14
 20
155.06
 10
365.7
 20
156.55
 10
366.04
 20
158.09
 10
366.15
 20
159.66
 10
366.04
 20
161.23
 10
365.7
 20
162.74
 10
365.14
 20
164.13
 10
364.35
 20
165.36
 10
363.3
 20
166.52
 10
362.25
 20
167.46
 10
360.94
 20
167.87
 10
359.85
 20
168.06
 10
354.75
 20
168.06
  0
HATCH
  5
76
330
17
100
AcDbEntity
  8
FILL_WHITE_FFFFFF
 62
7
420
16777215
100
AcDbHatch
 10
0.0
 20
0.0
 30
0.0
210
0.0
220
0.0
230
1.0
  2
SOLID
 70
1
 71
0
 91
1
 92
3
 72
0
 73
1
 93
11
 10
389.55
 20
165.06
 10
389.55
 20
147.66
 10
385.35
 20
147.66
 10
385.35
 20
171.66
 10
390.15
 20
171.66
 10
401.85
 20
154.26
 10
401.85
 20
171.66
 10
405.75
 20
171.66
 10
405.75
 20
147.66
 10
400.95
 20
147.66
 10
389.55
 20
165.06
 97
0
 75
1
 76
1
 98
0
  0
LWPOLYLINE
  5
77
330
17
100
AcDbEntity
  8
FILL_WHITE_FFFFFF
370
0
420
16777215
100
AcDbPolyline
 90
10
 70
1
 10
389.55
 20
165.06
 10
389.55
 20
147.66
 10
385.35
 20
147.66
 10
385.35
 20
171.66
 10
390.15
 20
171.66
 10
401.85
 20
154.26
 10
401.85
 20
171.66
 10
405.75
 20
171.66
 10
405.75
 20
147.66
 10
400.95
 20
147.66
  0
HATCH
  5
78
330
17
100
AcDbEntity
  8
FILL_WHITE_FFFFFF
 62
7
420
16777215
100
AcDbHatch
 10
0.0
 20
0.0
 30
0.0
210
0.0
220
0.0
230
1.0
  2
SOLID
 70
1
 71
0
 91
2
 92
3
 72
0
 73
1
 93
60
 10
425.21
 20
172.03
 10
426.25
 20
171.74
 10
427.28
 20
171.32
 10
428.27
 20
170.78
 10
429.23
 20
170.11
 10
430.12
 20
169.3
 10
430.95
 20
168.36
 10
431.69
 20
167.42
 10
432.35
 20
166.41
 10
432.92
 20
165.34
 10
433.39
 20
164.24
 10
433.76
 20
163.1
 10
434.03
 20
161.95
 10
434.19
 20
160.8
 10
434.25
 20
159.66
 10
434.19
 20
158.52
 10
434.03
 20
157.37
 10
433.39
 20
155.05
 10
432.35
 20
152.78
 10
430.95
 20
150.66
 10
430.12
 20
149.82
 10
429.23
 20
149.09
 10
428.27
 20
148.47
 10
427.28
 20
147.96
 10
426.25
 20
147.57
 10
425.21
 20
147.28
 10
424.17
 20
147.12
 10
423.15
 20
147.06
 10
422.14
 20
147.12
 10
421.13
 20
147.28
 10
420.14
 20
147.57
 10
419.18
 20
147.96
 10
418.23
 20
148.47
 10
417.33
 20
149.09
 10
416.46
 20
149.82
 10
415.65
 20
150.66
 10
414.82
 20
151.7
 10
414.12
 20
152.78
 10
413.55
 20
153.9
 10
413.1
 20
155.05
 10
412.76
 20
156.21
 10
412.53
 20
157.37
 10
412.35
 20
159.66
 10
412.53
 20
161.95
 10
412.76
 20
163.1
 10
413.1
 20
164.24
 10
413.55
 20
165.34
 10
414.12
 20
166.41
 10
414.82
 20
167.42
 10
415.65
 20
168.36
 10
416.46
 20
169.3
 10
417.33
 20
170.11
 10
418.23
 20
170.78
 10
419.18
 20
171.32
 10
420.14
 20
171.74
 10
421.13
 20
172.03
 10
422.14
 20
172.2
 10
423.15
 20
172.26
 10
424.17
 20
172.2
 10
425.21
 20
172.03
 97
0
 92
18
 72
0
 73
1
 93
33
 10
420.75
 20
167.84
 10
419.52
 20
167.09
 10
418.35
 20
165.96
 10
417.56
 20
164.51
 10
417.0
 20
162.92
 10
416.66
 20
161.28
 10
416.55
 20
159.66
 10
416.69
 20
157.81
 10
417.07
 20
156.1
 10
417.69
 20
154.57
 10
418.5
 20
153.25
 10
419.48
 20
152.16
 10
420.6
 20
151.35
 10
421.83
 20
150.84
 10
423.15
 20
150.66
 10
424.49
 20
150.83
 10
425.78
 20
151.34
 10
426.95
 20
152.18
 10
427.95
 20
153.36
 10
428.91
 20
154.81
 10
429.56
 20
156.4
 10
429.93
 20
158.04
 10
430.05
 20
159.66
 10
429.91
 20
161.41
 10
429.52
 20
163.04
 10
428.9
 20
164.52
 10
428.06
 20
165.81
 10
427.05
 20
166.87
 10
425.87
 20
167.68
 10
424.57
 20
168.18
 10
423.15
 20
168.36
 10
421.98
 20
168.24
 10
420.75
 20
167.84
 97
0
 75
1
 76
1
 98
0
  0
LWPOLYLINE
  5
79
330
17
100
AcDbEntity
  8
FILL_WHITE_FFFFFF
370
0
420
16777215
100
AcDbPolyline
 90
59
 70
1
 10
425.21
 20
172.03
 10
426.25
 20
171.74
 10
427.28
 20
171.32
 10
428.27
 20
170.78
 10
429.23
 20
170.11
 10
430.12
 20
169.3
 10
430.95
 20
168.36
 10
431.69
 20
167.42
 10
432.35
 20
166.41
 10
432.92
 20
165.34
 10
433.39
 20
164.24
 10
433.76
 20
163.1
 10
434.03
 20
161.95
 10
434.19
 20
160.8
 10
434.25
 20
159.66
 10
434.19
 20
158.52
 10
434.03
 20
157.37
 10
433.39
 20
155.05
 10
432.35
 20
152.78
 10
430.95
 20
150.66
 10
430.12
 20
149.82
 10
429.23
 20
149.09
 10
428.27
 20
148.47
 10
427.28
 20
147.96
 10
426.25
 20
147.57
 10
425.21
 20
147.28
 10
424.17
 20
147.12
 10
423.15
 20
147.06
 10
422.14
 20
147.12
 10
421.13
 20
147.28
 10
420.14
 20
147.57
 10
419.18
 20
147.96
 10
418.23
 20
148.47
 10
417.33
 20
149.09
 10
416.46
 20
149.82
 10
415.65
 20
150.66
 10
414.82
 20
151.7
 10
414.12
 20
152.78
 10
413.55
 20
153.9
 10
413.1
 20
155.05
 10
412.76
 20
156.21
 10
412.53
 20
157.37
 10
412.35
 20
159.66
 10
412.53
 20
161.95
 10
412.76
 20
163.1
 10
413.1
 20
164.24
 10
413.55
 20
165.34
 10
414.12
 20
166.41
 10
414.82
 20
167.42
 10
415.65
 20
168.36
 10
416.46
 20
169.3
 10
417.33
 20
170.11
 10
418.23
 20
170.78
 10
419.18
 20
171.32
 10
420.14
 20
171.74
 10
421.13
 20
172.03
 10
422.14
 20
172.2
 10
423.15
 20
172.26
 10
424.17
 20
172.2
  0
LWPOLYLINE
  5
7A
330
17
100
AcDbEntity
  8
FILL_WHITE_FFFFFF
370
0
420
16777215
100
AcDbPolyline
 90
32
 70
1
 10
420.75
 20
167.84
 10
419.52
 20
167.09
 10
418.35
 20
165.96
 10
417.56
 20
164.51
 10
417.0
 20
162.92
 10
416.66
 20
161.28
 10
416.55
 20
159.66
 10
416.69
 20
157.81
 10
417.07
 20
156.1
 10
417.69
 20
154.57
 10
418.5
 20
153.25
 10
419.48
 20
152.16
 10
420.6
 20
151.35
 10
421.83
 20
150.84
 10
423.15
 20
150.66
 10
424.49
 20
150.83
 10
425.78
 20
151.34
 10
426.95
 20
152.18
 10
427.95
 20
153.36
 10
428.91
 20
154.81
 10
429.56
 20
156.4
 10
429.93
 20
158.04
 10
430.05
 20
159.66
 10
429.91
 20
161.41
 10
429.52
 20
163.04
 10
428.9
 20
164.52
 10
428.06
 20
165.81
 10
427.05
 20
166.87
 10
425.87
 20
167.68
 10
424.57
 20
168.18
 10
423.15
 20
168.36
 10
421.98
 20
168.24
  0
HATCH
  5
7B
330
17
100
AcDbEntity
  8
FILL_WHITE_FFFFFF
 62
7
420
16777215
100
AcDbHatch
 10
0.0
 20
0.0
 30
0.0
210
0.0
220
0.0
230
1.0
  2
SOLID
 70
1
 71
0
 91
1
 92
3
 72
0
 73
1
 93
14
 10
438.45
 20
171.66
 10
442.65
 20
171.66
 10
446.25
 20
153.96
 10
450.15
 20
171.66
 10
454.95
 20
171.66
 10
458.85
 20
153.96
 10
462.45
 20
171.66
 10
466.65
 20
171.66
 10
461.25
 20
147.66
 10
456.45
 20
147.66
 10
452.55
 20
165.36
 10
448.65
 20
147.66
 10
444.15
 20
147.66
 10
438.45
 20
171.66
 97
0
 75
1
 76
1
 98
0
  0
LWPOLYLINE
  5
7C
330
17
100
AcDbEntity
  8
FILL_WHITE_FFFFFF
370
0
420
16777215
100
AcDbPolyline
 90
13
 70
1
 10
438.45
 20
171.66
 10
442.65
 20
171.66
 10
446.25
 20
153.96
 10
450.15
 20
171.66
 10
454.95
 20
171.66
 10
458.85
 20
153.96
 10
462.45
 20
171.66
 10
466.65
 20
171.66
 10
461.25
 20
147.66
 10
456.45
 20
147.66
 10
452.55
 20
165.36
 10
448.65
 20
147.66
 10
444.15
 20
147.66
  0
HATCH
  5
7D
330
17
100
AcDbEntity
  8
FILL_WHITE_FFFFFF
 62
7
420
16777215
100
AcDbHatch
 10
0.0
 20
0.0
 30
0.0
210
0.0
220
0.0
230
1.0
  2
SOLID
 70
1
 71
0
 91
2
 92
3
 72
0
 73
1
 93
25
 10
115.35
 20
171.66
 10
116.46
 20
171.54
 10
117.52
 20
171.18
 10
118.5
 20
170.62
 10
119.4
 20
169.86
 10
120.18
 20
168.94
 10
120.83
 20
167.86
 10
121.33
 20
166.66
 10
121.65
 20
165.36
 10
121.67
 20
164.02
 10
121.5
 20
162.7
 10
121.15
 20
161.45
 10
120.64
 20
160.3
 10
119.97
 20
159.27
 10
119.16
 20
158.4
 10
118.22
 20
157.72
 10
117.15
 20
157.26
 10
121.95
 20
147.66
 10
117.45
 20
147.66
 10
112.95
 20
156.96
 10
108.75
 20
156.96
 10
108.75
 20
147.66
 10
104.85
 20
147.66
 10
104.85
 20
171.66
 10
115.35
 20
171.66
 97
0
 92
18
 72
0
 73
1
 93
19
 10
114.81
 20
160.63
 10
115.43
 20
160.83
 10
115.99
 20
161.15
 10
116.48
 20
161.57
 10
116.88
 20
162.1
 10
117.19
 20
162.71
 10
117.38
 20
163.4
 10
117.45
 20
164.16
 10
117.39
 20
164.84
 10
117.23
 20
165.51
 10
116.94
 20
166.19
 10
116.55
 20
166.86
 10
115.46
 20
167.69
 10
114.82
 20
167.96
 10
114.15
 20
168.06
 10
108.75
 20
168.06
 10
108.75
 20
160.56
 10
114.15
 20
160.56
 10
114.81
 20
160.63
 97
0
 75
1
 76
1
 98
0
  0
LWPOLYLINE
  5
7E
330
17
100
AcDbEntity
  8
FILL_WHITE_FFFFFF
370
0
420
16777215
100
AcDbPolyline
 90
24
 70
1
 10
115.35
 20
171.66
 10
116.46
 20
171.54
 10
117.52
 20
171.18
 10
118.5
 20
170.62
 10
119.4
 20
169.86
 10
120.18
 20
168.94
 10
120.83
 20
167.86
 10
121.33
 20
166.66
 10
121.65
 20
165.36
 10
121.67
 20
164.02
 10
121.5
 20
162.7
 10
121.15
 20
161.45
 10
120.64
 20
160.3
 10
119.97
 20
159.27
 10
119.16
 20
158.4
 10
118.22
 20
157.72
 10
117.15
 20
157.26
 10
121.95
 20
147.66
 10
117.45
 20
147.66
 10
112.95
 20
156.96
 10
108.75
 20
156.96
 10
108.75
 20
147.66
 10
104.85
 20
147.66
 10
104.85
 20
171.66
  0
LWPOLYLINE
  5
7F
330
17
100
AcDbEntity
  8
FILL_WHITE_FFFFFF
370
0
420
16777215
100
AcDbPolyline
 90
18
 70
1
 10
114.81
 20
160.63
 10
115.43
 20
160.83
 10
115.99
 20
161.15
 10
116.48
 20
161.57
 10
116.88
 20
162.1
 10
117.19
 20
162.71
 10
117.38
 20
163.4
 10
117.45
 20
164.16
 10
117.39
 20
164.84
 10
117.23
 20
165.51
 10
116.94
 20
166.19
 10
116.55
 20
166.86
 10
115.46
 20
167.69
 10
114.82
 20
167.96
 10
114.15
 20
168.06
 10
108.75
 20
168.06
 10
108.75
 20
160.56
 10
114.15
 20
160.56
  0
HATCH
  5
80
330
17
100
AcDbEntity
  8
FILL_WHITE_FFFFFF
 62
7
420
16777215
100
AcDbHatch
 10
0.0
 20
0.0
 30
0.0
210
0.0
220
0.0
230
1.0
  2
SOLID
 70
1
 71
0
 91
1
 92
3
 72
0
 73
1
 93
20
 10
180.75
 20
125.16
 10
179.25
 20
127.86
 10
182.85
 20
128.76
 10
184.65
 20
126.06
 10
186.15
 20
123.06
 10
193.95
 20
123.06
 10
195.75
 20
125.46
 10
196.95
 20
128.76
 10
200.25
 20
128.16
 10
201.15
 20
127.86
 10
201.15
 20
127.56
 10
201.15
 20
127.26
 10
200.55
 20
126.66
 10
198.75
 20
122.76
 10
207.75
 20
122.76
 10
207.75
 20
119.46
 10
173.25
 20
119.46
 10
173.25
 20
122.76
 10
181.65
 20
122.76
 10
180.75
 20
125.16
 97
0
 75
1
 76
1
 98
0
  0
LWPOLYLINE
  5
81
330
17
100
AcDbEntity
  8
FILL_WHITE_FFFFFF
370
0
420
16777215
100
AcDbPolyline
 90
19
 70
1
 10
180.75
 20
125.16
 10
179.25
 20
127.86
 10
182.85
 20
128.76
 10
184.65
 20
126.06
 10
186.15
 20
123.06
 10
193.95
 20
123.06
 10
195.75
 20
125.46
 10
196.95
 20
128.76
 10
200.25
 20
128.16
 10
201.15
 20
127.86
 10
201.15
 20
127.56
 10
201.15
 20
127.26
 10
200.55
 20
126.66
 10
198.75
 20
122.76
 10
207.75
 20
122.76
 10
207.75
 20
119.46
 10
173.25
 20
119.46
 10
173.25
 20
122.76
 10
181.65
 20
122.76
  0
HATCH
  5
82
330
17
100
AcDbEntity
  8
FILL_WHITE_FFFFFF
 62
7
420
16777215
100
AcDbHatch
 10
0.0
 20
0.0
 30
0.0
210
0.0
220
0.0
230
1.0
  2
SOLID
 70
1
 71
0
 91
3
 92
3
 72
0
 73
1
 93
19
 10
190.05
 20
97.56
 10
189.45
 20
95.76
 10
187.95
 20
94.86
 10
186.15
 20
94.56
 10
183.45
 20
94.26
 10
181.95
 20
97.56
 10
184.65
 20
97.56
 10
185.55
 20
97.56
 10
186.15
 20
97.86
 10
186.45
 20
98.46
 10
186.45
 20
99.36
 10
186.45
 20
101.16
 10
178.95
 20
101.16
 10
178.95
 20
93.96
 10
175.35
 20
93.96
 10
175.35
 20
116.76
 10
190.05
 20
116.76
 10
190.05
 20
99.96
 10
190.05
 20
97.56
 97
0
 92
18
 72
0
 73
1
 93
5
 10
178.95
 20
107.46
 10
178.95
 20
104.16
 10
186.45
 20
104.16
 10
186.45
 20
107.46
 10
178.95
 20
107.46
 97
0
 92
18
 72
0
 73
1
 93
5
 10
186.45
 20
113.76
 10
178.95
 20
113.76
 10
178.95
 20
110.16
 10
186.45
 20
110.16
 10
186.45
 20
113.76
 97
0
 75
1
 76
1
 98
0
  0
LWPOLYLINE
  5
83
330
17
100
AcDbEntity
  8
FILL_WHITE_FFFFFF
370
0
420
16777215
100
AcDbPolyline
 90
18
 70
1
 10
190.05
 20
97.56
 10
189.45
 20
95.76
 10
187.95
 20
94.86
 10
186.15
 20
94.56
 10
183.45
 20
94.26
 10
181.95
 20
97.56
 10
184.65
 20
97.56
 10
185.55
 20
97.56
 10
186.15
 20
97.86
 10
186.45
 20
98.46
 10
186.45
 20
99.36
 10
186.45
 20
101.16
 10
178.95
 20
101.16
 10
178.95
 20
93.96
 10
175.35
 20
93.96
 10
175.35
 20
116.76
 10
190.05
 20
116.76
 10
190.05
 20
99.96
  0
LWPOLYLINE
  5
84
330
17
100
AcDbEntity
  8
FILL_WHITE_FFFFFF
370
0
420
16777215
100
AcDbPolyline
 90
4
 70
1
 10
178.95
 20
107.46
 10
178.95
 20
104.16
 10
186.45
 20
104.16
 10
186.45
 20
107.46
  0
LWPOLYLINE
  5
85
330
17
100
AcDbEntity
  8
FILL_WHITE_FFFFFF
370
0
420
16777215
100
AcDbPolyline
 90
4
 70
1
 10
186.45
 20
113.76
 10
178.95
 20
113.76
 10
178.95
 20
110.16
 10
186.45
 20
110.16
  0
HATCH
  5
86
330
17
100
AcDbEntity
  8
FILL_WHITE_FFFFFF
 62
7
420
16777215
100
AcDbHatch
 10
0.0
 20
0.0
 30
0.0
210
0.0
220
0.0
230
1.0
  2
SOLID
 70
1
 71
0
 91
1
 92
3
 72
0
 73
1
 93
9
 10
196.95
 20
115.26
 10
197.85
 20
114.96
 10
198.15
 20
114.66
 10
198.15
 20
114.36
 10
197.55
 20
113.46
 10
197.55
 20
99.66
 10
194.25
 20
99.66
 10
194.25
 20
115.56
 10
196.95
 20
115.26
 97
0
 75
1
 76
1
 98
0
  0
LWPOLYLINE
  5
87
330
17
100
AcDbEntity
  8
FILL_WHITE_FFFFFF
370
0
420
16777215
100
AcDbPolyline
 90
8
 70
1
 10
196.95
 20
115.26
 10
197.85
 20
114.96
 10
198.15
 20
114.66
 10
198.15
 20
114.36
 10
197.55
 20
113.46
 10
197.55
 20
99.66
 10
194.25
 20
99.66
 10
194.25
 20
115.56
  0
HATCH
  5
88
330
17
100
AcDbEntity
  8
FILL_WHITE_FFFFFF
 62
7
420
16777215
100
AcDbHatch
 10
0.0
 20
0.0
 30
0.0
210
0.0
220
0.0
230
1.0
  2
SOLID
 70
1
 71
0
 91
1
 92
3
 72
0
 73
1
 93
19
 10
205.35
 20
117.06
 10
206.25
 20
117.06
 10
206.25
 20
116.76
 10
206.25
 20
116.16
 10
205.65
 20
115.26
 10
205.65
 20
99.36
 10
205.35
 20
97.26
 10
204.45
 20
95.46
 10
202.95
 20
94.56
 10
200.85
 20
93.96
 10
197.85
 20
93.96
 10
196.35
 20
97.56
 10
199.95
 20
97.56
 10
200.85
 20
97.86
 10
201.45
 20
98.16
 10
201.75
 20
98.76
 10
202.05
 20
99.66
 10
202.05
 20
117.66
 10
205.35
 20
117.06
 97
0
 75
1
 76
1
 98
0
  0
LWPOLYLINE
  5
89
330
17
100
AcDbEntity
  8
FILL_WHITE_FFFFFF
370
0
420
16777215
100
AcDbPolyline
 90
18
 70
1
 10
205.35
 20
117.06
 10
206.25
 20
117.06
 10
206.25
 20
116.76
 10
206.25
 20
116.16
 10
205.65
 20
115.26
 10
205.65
 20
99.36
 10
205.35
 20
97.26
 10
204.45
 20
95.46
 10
202.95
 20
94.56
 10
200.85
 20
93.96
 10
197.85
 20
93.96
 10
196.35
 20
97.56
 10
199.95
 20
97.56
 10
200.85
 20
97.86
 10
201.45
 20
98.16
 10
201.75
 20
98.76
 10
202.05
 20
99.66
 10
202.05
 20
117.66
  0
HATCH
  5
8A
330
17
100
AcDbEntity
  8
FILL_WHITE_FFFFFF
 62
7
420
16777215
100
AcDbHatch
 10
0.0
 20
0.0
 30
0.0
210
0.0
220
0.0
230
1.0
  2
SOLID
 70
1
 71
0
 91
6
 92
3
 72
0
 73
1
 93
17
 10
252.45
 20
93.96
 10
248.85
 20
93.96
 10
248.85
 20
95.76
 10
225.75
 20
95.76
 10
225.75
 20
93.96
 10
222.15
 20
93.96
 10
222.15
 20
119.16
 10
234.15
 20
119.16
 10
235.95
 20
123.66
 10
219.75
 20
123.66
 10
219.75
 20
126.96
 10
254.55
 20
126.96
 10
254.55
 20
123.66
 10
239.55
 20
123.66
 10
238.05
 20
119.16
 10
252.45
 20
119.16
 10
252.45
 20
93.96
 97
0
 92
18
 72
0
 73
1
 93
5
 10
240.15
 20
102.66
 10
233.85
 20
102.66
 10
233.85
 20
99.06
 10
240.15
 20
99.06
 10
240.15
 20
102.66
 97
0
 92
18
 72
0
 73
1
 93
5
 10
240.15
 20
112.56
 10
240.15
 20
116.16
 10
233.85
 20
116.16
 10
233.85
 20
112.56
 10
240.15
 20
112.56
 97
0
 92
18
 72
0
 73
1
 93
5
 10
233.85
 20
105.66
 10
240.15
 20
105.66
 10
240.15
 20
109.26
 10
233.85
 20
109.26
 10
233.85
 20
105.66
 97
0
 92
18
 72
0
 73
1
 93
5
 10
225.75
 20
116.16
 10
225.75
 20
99.06
 10
230.55
 20
99.06
 10
230.55
 20
116.16
 10
225.75
 20
116.16
 97
0
 92
18
 72
0
 73
1
 93
5
 10
248.85
 20
116.16
 10
243.75
 20
116.16
 10
243.75
 20
99.06
 10
248.85
 20
99.06
 10
248.85
 20
116.16
 97
0
 75
1
 76
1
 98
0
  0
LWPOLYLINE
  5
8B
330
17
100
AcDbEntity
  8
FILL_WHITE_FFFFFF
370
0
420
16777215
100
AcDbPolyline
 90
16
 70
1
 10
252.45
 20
93.96
 10
248.85
 20
93.96
 10
248.85
 20
95.76
 10
225.75
 20
95.76
 10
225.75
 20
93.96
 10
222.15
 20
93.96
 10
222.15
 20
119.16
 10
234.15
 20
119.16
 10
235.95
 20
123.66
 10
219.75
 20
123.66
 10
219.75
 20
126.96
 10
254.55
 20
126.96
 10
254.55
 20
123.66
 10
239.55
 20
123.66
 10
238.05
 20
119.16
 10
252.45
 20
119.16
  0
LWPOLYLINE
  5
8C
330
17
100
AcDbEntity
  8
FILL_WHITE_FFFFFF
370
0
420
16777215
100
AcDbPolyline
 90
4
 70
1
 10
240.15
 20
102.66
 10
233.85
 20
102.66
 10
233.85
 20
99.06
 10
240.15
 20
99.06
  0
LWPOLYLINE
  5
8D
330
17
100
AcDbEntity
  8
FILL_WHITE_FFFFFF
370
0
420
16777215
100
AcDbPolyline
 90
4
 70
1
 10
240.15
 20
112.56
 10
240.15
 20
116.16
 10
233.85
 20
116.16
 10
233.85
 20
112.56
  0
LWPOLYLINE
  5
8E
330
17
100
AcDbEntity
  8
FILL_WHITE_FFFFFF
370
0
420
16777215
100
AcDbPolyline
 90
4
 70
1
 10
233.85
 20
105.66
 10
240.15
 20
105.66
 10
240.15
 20
109.26
 10
233.85
 20
109.26
  0
LWPOLYLINE
  5
8F
330
17
100
AcDbEntity
  8
FILL_WHITE_FFFFFF
370
0
420
16777215
100
AcDbPolyline
 90
4
 70
1
 10
225.75
 20
116.16
 10
225.75
 20
99.06
 10
230.55
 20
99.06
 10
230.55
 20
116.16
  0
LWPOLYLINE
  5
90
330
17
100
AcDbEntity
  8
FILL_WHITE_FFFFFF
370
0
420
16777215
100
AcDbPolyline
 90
4
 70
1
 10
248.85
 20
116.16
 10
243.75
 20
116.16
 10
243.75
 20
99.06
 10
248.85
 20
99.06
  0
HATCH
  5
91
330
17
100
AcDbEntity
  8
FILL_WHITE_FFFFFF
 62
7
420
16777215
100
AcDbHatch
 10
0.0
 20
0.0
 30
0.0
210
0.0
220
0.0
230
1.0
  2
SOLID
 70
1
 71
0
 91
1
 92
3
 72
0
 73
1
 93
19
 10
270.45
 20
125.16
 10
272.85
 20
129.36
 10
276.45
 20
128.46
 10
277.05
 20
128.16
 10
277.05
 20
127.86
 10
276.75
 20
127.56
 10
276.15
 20
127.56
 10
275.25
 20
126.06
 10
283.35
 20
126.06
 10
283.35
 20
123.06
 10
278.85
 20
123.06
 10
280.35
 20
120.06
 10
277.05
 20
119.46
 10
275.25
 20
123.06
 10
273.15
 20
123.06
 10
271.65
 20
121.26
 10
269.85
 20
119.46
 10
266.85
 20
121.26
 10
270.45
 20
125.16
 97
0
 75
1
 76
1
 98
0
  0
LWPOLYLINE
  5
92
330
17
100
AcDbEntity
  8
FILL_WHITE_FFFFFF
370
0
420
16777215
100
AcDbPolyline
 90
18
 70
1
 10
270.45
 20
125.16
 10
272.85
 20
129.36
 10
276.45
 20
128.46
 10
277.05
 20
128.16
 10
277.05
 20
127.86
 10
276.75
 20
127.56
 10
276.15
 20
127.56
 10
275.25
 20
126.06
 10
283.35
 20
126.06
 10
283.35
 20
123.06
 10
278.85
 20
123.06
 10
280.35
 20
120.06
 10
277.05
 20
119.46
 10
275.25
 20
123.06
 10
273.15
 20
123.06
 10
271.65
 20
121.26
 10
269.85
 20
119.46
 10
266.85
 20
121.26
  0
HATCH
  5
93
330
17
100
AcDbEntity
  8
FILL_WHITE_FFFFFF
 62
7
420
16777215
100
AcDbHatch
 10
0.0
 20
0.0
 30
0.0
210
0.0
220
0.0
230
1.0
  2
SOLID
 70
1
 71
0
 91
1
 92
3
 72
0
 73
1
 93
35
 10
285.45
 20
125.16
 10
287.55
 20
129.36
 10
290.85
 20
128.16
 10
291.45
 20
127.86
 10
291.45
 20
127.26
 10
290.85
 20
126.96
 10
290.25
 20
126.66
 10
289.95
 20
126.06
 10
301.65
 20
126.06
 10
301.65
 20
123.06
 10
295.05
 20
123.06
 10
296.55
 20
120.06
 10
293.25
 20
119.46
 10
291.75
 20
123.06
 10
288.15
 20
123.06
 10
287.25
 20
121.56
 10
286.35
 20
120.36
 10
286.95
 20
120.06
 10
287.25
 20
119.76
 10
286.95
 20
119.76
 10
286.35
 20
119.46
 10
286.35
 20
117.96
 10
300.75
 20
117.96
 10
300.75
 20
109.86
 10
296.85
 20
109.86
 10
296.85
 20
114.96
 10
271.65
 20
114.96
 10
271.65
 20
109.86
 10
268.05
 20
109.86
 10
268.05
 20
117.96
 10
282.75
 20
117.96
 10
282.75
 20
120.66
 10
283.95
 20
120.66
 10
282.75
 20
121.56
 10
285.45
 20
125.16
 97
0
 75
1
 76
1
 98
0
  0
LWPOLYLINE
  5
94
330
17
100
AcDbEntity
  8
FILL_WHITE_FFFFFF
370
0
420
16777215
100
AcDbPolyline
 90
34
 70
1
 10
285.45
 20
125.16
 10
287.55
 20
129.36
 10
290.85
 20
128.16
 10
291.45
 20
127.86
 10
291.45
 20
127.26
 10
290.85
 20
126.96
 10
290.25
 20
126.66
 10
289.95
 20
126.06
 10
301.65
 20
126.06
 10
301.65
 20
123.06
 10
295.05
 20
123.06
 10
296.55
 20
120.06
 10
293.25
 20
119.46
 10
291.75
 20
123.06
 10
288.15
 20
123.06
 10
287.25
 20
121.56
 10
286.35
 20
120.36
 10
286.95
 20
120.06
 10
287.25
 20
119.76
 10
286.95
 20
119.76
 10
286.35
 20
119.46
 10
286.35
 20
117.96
 10
300.75
 20
117.96
 10
300.75
 20
109.86
 10
296.85
 20
109.86
 10
296.85
 20
114.96
 10
271.65
 20
114.96
 10
271.65
 20
109.86
 10
268.05
 20
109.86
 10
268.05
 20
117.96
 10
282.75
 20
117.96
 10
282.75
 20
120.66
 10
283.95
 20
120.66
 10
282.75
 20
121.56
  0
HATCH
  5
95
330
17
100
AcDbEntity
  8
FILL_WHITE_FFFFFF
 62
7
420
16777215
100
AcDbHatch
 10
0.0
 20
0.0
 30
0.0
210
0.0
220
0.0
230
1.0
  2
SOLID
 70
1
 71
0
 91
3
 92
3
 72
0
 73
1
 93
13
 10
277.95
 20
105.36
 10
277.95
 20
103.26
 10
295.35
 20
103.26
 10
295.35
 20
93.96
 10
291.75
 20
93.96
 10
291.75
 20
95.46
 10
277.95
 20
95.46
 10
277.95
 20
93.96
 10
274.35
 20
93.96
 10
274.35
 20
113.16
 10
293.85
 20
113.16
 10
293.85
 20
105.36
 10
277.95
 20
105.36
 97
0
 92
18
 72
0
 73
1
 93
5
 10
277.95
 20
110.46
 10
277.95
 20
108.36
 10
290.25
 20
108.36
 10
290.25
 20
110.46
 10
277.95
 20
110.46
 97
0
 92
18
 72
0
 73
1
 93
5
 10
291.75
 20
100.56
 10
277.95
 20
100.56
 10
277.95
 20
98.16
 10
291.75
 20
98.16
 10
291.75
 20
100.56
 97
0
 75
1
 76
1
 98
0
  0
LWPOLYLINE
  5
96
330
17
100
AcDbEntity
  8
FILL_WHITE_FFFFFF
370
0
420
16777215
100
AcDbPolyline
 90
12
 70
1
 10
277.95
 20
105.36
 10
277.95
 20
103.26
 10
295.35
 20
103.26
 10
295.35
 20
93.96
 10
291.75
 20
93.96
 10
291.75
 20
95.46
 10
277.95
 20
95.46
 10
277.95
 20
93.96
 10
274.35
 20
93.96
 10
274.35
 20
113.16
 10
293.85
 20
113.16
 10
293.85
 20
105.36
  0
LWPOLYLINE
  5
97
330
17
100
AcDbEntity
  8
FILL_WHITE_FFFFFF
370
0
420
16777215
100
AcDbPolyline
 90
4
 70
1
 10
277.95
 20
110.46
 10
277.95
 20
108.36
 10
290.25
 20
108.36
 10
290.25
 20
110.46
  0
LWPOLYLINE
  5
98
330
17
100
AcDbEntity
  8
FILL_WHITE_FFFFFF
370
0
420
16777215
100
AcDbPolyline
 90
4
 70
1
 10
291.75
 20
100.56
 10
277.95
 20
100.56
 10
277.95
 20
98.16
 10
291.75
 20
98.16
  0
HATCH
  5
99
330
17
100
AcDbEntity
  8
FILL_WHITE_FFFFFF
 62
7
420
16777215
100
AcDbHatch
 10
0.0
 20
0.0
 30
0.0
210
0.0
220
0.0
230
1.0
  2
SOLID
 70
1
 71
0
 91
1
 92
3
 72
0
 73
1
 93
56
 10
314.55
 20
120.36
 10
315.75
 20
122.46
 10
316.65
 20
125.16
 10
317.25
 20
127.86
 10
320.55
 20
126.96
 10
321.15
 20
126.66
 10
321.15
 20
126.06
 10
321.15
 20
125.76
 10
320.55
 20
125.16
 10
320.25
 20
123.66
 10
323.55
 20
123.66
 10
323.55
 20
129.06
 10
326.85
 20
128.76
 10
327.45
 20
128.16
 10
327.75
 20
127.86
 10
327.45
 20
127.56
 10
326.85
 20
127.26
 10
326.85
 20
123.66
 10
334.95
 20
123.66
 10
334.95
 20
120.06
 10
326.85
 20
120.06
 10
326.85
 20
116.16
 10
335.85
 20
116.16
 10
335.85
 20
112.86
 10
326.85
 20
112.86
 10
326.85
 20
109.26
 10
334.95
 20
109.26
 10
334.95
 20
99.66
 10
334.65
 20
98.16
 10
334.35
 20
96.96
 10
333.45
 20
96.06
 10
332.25
 20
95.76
 10
329.55
 20
95.46
 10
328.35
 20
99.06
 10
330.15
 20
99.06
 10
331.05
 20
99.36
 10
331.35
 20
100.56
 10
331.35
 20
105.96
 10
326.85
 20
105.96
 10
326.85
 20
93.96
 10
323.55
 20
93.96
 10
323.55
 20
105.96
 10
319.05
 20
105.96
 10
319.05
 20
95.76
 10
315.75
 20
95.76
 10
315.75
 20
109.26
 10
323.55
 20
109.26
 10
323.55
 20
112.86
 10
314.25
 20
112.86
 10
314.25
 20
116.16
 10
323.55
 20
116.16
 10
323.55
 20
120.06
 10
318.75
 20
120.06
 10
316.65
 20
117.06
 10
313.05
 20
118.26
 10
314.55
 20
120.36
 97
0
 75
1
 76
1
 98
0
  0
LWPOLYLINE
  5
9A
330
17
100
AcDbEntity
  8
FILL_WHITE_FFFFFF
370
0
420
16777215
100
AcDbPolyline
 90
55
 70
1
 10
314.55
 20
120.36
 10
315.75
 20
122.46
 10
316.65
 20
125.16
 10
317.25
 20
127.86
 10
320.55
 20
126.96
 10
321.15
 20
126.66
 10
321.15
 20
126.06
 10
321.15
 20
125.76
 10
320.55
 20
125.16
 10
320.25
 20
123.66
 10
323.55
 20
123.66
 10
323.55
 20
129.06
 10
326.85
 20
128.76
 10
327.45
 20
128.16
 10
327.75
 20
127.86
 10
327.45
 20
127.56
 10
326.85
 20
127.26
 10
326.85
 20
123.66
 10
334.95
 20
123.66
 10
334.95
 20
120.06
 10
326.85
 20
120.06
 10
326.85
 20
116.16
 10
335.85
 20
116.16
 10
335.85
 20
112.86
 10
326.85
 20
112.86
 10
326.85
 20
109.26
 10
334.95
 20
109.26
 10
334.95
 20
99.66
 10
334.65
 20
98.16
 10
334.35
 20
96.96
 10
333.45
 20
96.06
 10
332.25
 20
95.76
 10
329.55
 20
95.46
 10
328.35
 20
99.06
 10
330.15
 20
99.06
 10
331.05
 20
99.36
 10
331.35
 20
100.56
 10
331.35
 20
105.96
 10
326.85
 20
105.96
 10
326.85
 20
93.96
 10
323.55
 20
93.96
 10
323.55
 20
105.96
 10
319.05
 20
105.96
 10
319.05
 20
95.76
 10
315.75
 20
95.76
 10
315.75
 20
109.26
 10
323.55
 20
109.26
 10
323.55
 20
112.86
 10
314.25
 20
112.86
 10
314.25
 20
116.16
 10
323.55
 20
116.16
 10
323.55
 20
120.06
 10
318.75
 20
120.06
 10
316.65
 20
117.06
 10
313.05
 20
118.26
  0
HATCH
  5
9B
330
17
100
AcDbEntity
  8
FILL_WHITE_FFFFFF
 62
7
420
16777215
100
AcDbHatch
 10
0.0
 20
0.0
 30
0.0
210
0.0
220
0.0
230
1.0
  2
SOLID
 70
1
 71
0
 91
1
 92
3
 72
0
 73
1
 93
9
 10
340.95
 20
125.76
 10
341.85
 20
125.46
 10
342.15
 20
125.16
 10
341.85
 20
124.56
 10
341.55
 20
124.26
 10
341.55
 20
101.46
 10
337.95
 20
101.46
 10
337.95
 20
126.06
 10
340.95
 20
125.76
 97
0
 75
1
 76
1
 98
0
  0
LWPOLYLINE
  5
9C
330
17
100
AcDbEntity
  8
FILL_WHITE_FFFFFF
370
0
420
16777215
100
AcDbPolyline
 90
8
 70
1
 10
340.95
 20
125.76
 10
341.85
 20
125.46
 10
342.15
 20
125.16
 10
341.85
 20
124.56
 10
341.55
 20
124.26
 10
341.55
 20
101.46
 10
337.95
 20
101.46
 10
337.95
 20
126.06
  0
HATCH
  5
9D
330
17
100
AcDbEntity
  8
FILL_WHITE_FFFFFF
 62
7
420
16777215
100
AcDbHatch
 10
0.0
 20
0.0
 30
0.0
210
0.0
220
0.0
230
1.0
  2
SOLID
 70
1
 71
0
 91
1
 92
3
 72
0
 73
1
 93
19
 10
347.85
 20
128.76
 10
348.75
 20
128.16
 10
349.05
 20
127.86
 10
349.05
 20
127.26
 10
348.45
 20
126.66
 10
348.45
 20
99.06
 10
348.15
 20
96.96
 10
347.55
 20
95.76
 10
346.65
 20
94.56
 10
345.15
 20
93.96
 10
340.35
 20
93.36
 10
338.85
 20
97.26
 10
342.45
 20
97.26
 10
343.35
 20
97.26
 10
344.25
 20
97.86
 10
344.85
 20
98.76
 10
344.85
 20
99.96
 10
344.85
 20
128.76
 10
347.85
 20
128.76
 97
0
 75
1
 76
1
 98
0
  0
LWPOLYLINE
  5
9E
330
17
100
AcDbEntity
  8
FILL_WHITE_FFFFFF
370
0
420
16777215
100
AcDbPolyline
 90
18
 70
1
 10
347.85
 20
128.76
 10
348.75
 20
128.16
 10
349.05
 20
127.86
 10
349.05
 20
127.26
 10
348.45
 20
126.66
 10
348.45
 20
99.06
 10
348.15
 20
96.96
 10
347.55
 20
95.76
 10
346.65
 20
94.56
 10
345.15
 20
93.96
 10
340.35
 20
93.36
 10
338.85
 20
97.26
 10
342.45
 20
97.26
 10
343.35
 20
97.26
 10
344.25
 20
97.86
 10
344.85
 20
98.76
 10
344.85
 20
99.96
 10
344.85
 20
128.76
  0
HATCH
  5
9F
330
17
100
AcDbEntity
  8
FILL_WHITE_FFFFFF
 62
7
420
16777215
100
AcDbHatch
 10
0.0
 20
0.0
 30
0.0
210
0.0
220
0.0
230
1.0
  2
SOLID
 70
1
 71
0
 91
1
 92
3
 72
0
 73
1
 93
13
 10
367.35
 20
121.86
 10
367.35
 20
128.76
 10
370.65
 20
128.76
 10
371.25
 20
128.46
 10
371.55
 20
128.16
 10
371.55
 20
127.86
 10
371.25
 20
127.26
 10
371.25
 20
121.86
 10
376.65
 20
121.86
 10
376.65
 20
118.56
 10
361.05
 20
118.56
 10
361.05
 20
121.86
 10
367.35
 20
121.86
 97
0
 75
1
 76
1
 98
0
  0
LWPOLYLINE
  5
A0
330
17
100
AcDbEntity
  8
FILL_WHITE_FFFFFF
370
0
420
16777215
100
AcDbPolyline
 90
12
 70
1
 10
367.35
 20
121.86
 10
367.35
 20
128.76
 10
370.65
 20
128.76
 10
371.25
 20
128.46
 10
371.55
 20
128.16
 10
371.55
 20
127.86
 10
371.25
 20
127.26
 10
371.25
 20
121.86
 10
376.65
 20
121.86
 10
376.65
 20
118.56
 10
361.05
 20
118.56
 10
361.05
 20
121.86
  0
HATCH
  5
A1
330
17
100
AcDbEntity
  8
FILL_WHITE_FFFFFF
 62
7
420
16777215
100
AcDbHatch
 10
0.0
 20
0.0
 30
0.0
210
0.0
220
0.0
230
1.0
  2
SOLID
 70
1
 71
0
 91
1
 92
3
 72
0
 73
1
 93
18
 10
369.15
 20
101.16
 10
370.65
 20
108.66
 10
372.15
 20
117.06
 10
375.15
 20
115.86
 10
375.75
 20
115.56
 10
376.05
 20
115.26
 10
375.75
 20
114.66
 10
375.15
 20
114.36
 10
372.45
 20
101.76
 10
376.05
 20
102.66
 10
376.05
 20
99.36
 10
362.85
 20
96.36
 10
362.55
 20
95.76
 10
362.25
 20
95.76
 10
361.95
 20
95.76
 10
361.65
 20
96.36
 10
360.75
 20
100.26
 10
369.15
 20
101.16
 97
0
 75
1
 76
1
 98
0
  0
LWPOLYLINE
  5
A2
330
17
100
AcDbEntity
  8
FILL_WHITE_FFFFFF
370
0
420
16777215
100
AcDbPolyline
 90
17
 70
1
 10
369.15
 20
101.16
 10
370.65
 20
108.66
 10
372.15
 20
117.06
 10
375.15
 20
115.86
 10
375.75
 20
115.56
 10
376.05
 20
115.26
 10
375.75
 20
114.66
 10
375.15
 20
114.36
 10
372.45
 20
101.76
 10
376.05
 20
102.66
 10
376.05
 20
99.36
 10
362.85
 20
96.36
 10
362.55
 20
95.76
 10
362.25
 20
95.76
 10
361.95
 20
95.76
 10
361.65
 20
96.36
 10
360.75
 20
100.26
  0
HATCH
  5
A3
330
17
100
AcDbEntity
  8
FILL_WHITE_FFFFFF
 62
7
420
16777215
100
AcDbHatch
 10
0.0
 20
0.0
 30
0.0
210
0.0
220
0.0
230
1.0
  2
SOLID
 70
1
 71
0
 91
1
 92
3
 72
0
 73
1
 93
6
 10
361.65
 20
115.86
 10
365.25
 20
116.46
 10
366.45
 20
111.06
 10
367.35
 20
103.56
 10
364.05
 20
102.66
 10
361.65
 20
115.86
 97
0
 75
1
 76
1
 98
0
  0
LWPOLYLINE
  5
A4
330
17
100
AcDbEntity
  8
FILL_WHITE_FFFFFF
370
0
420
16777215
100
AcDbPolyline
 90
5
 70
1
 10
361.65
 20
115.86
 10
365.25
 20
116.46
 10
366.45
 20
111.06
 10
367.35
 20
103.56
 10
364.05
 20
102.66
  0
HATCH
  5
A5
330
17
100
AcDbEntity
  8
FILL_WHITE_FFFFFF
 62
7
420
16777215
100
AcDbHatch
 10
0.0
 20
0.0
 30
0.0
210
0.0
220
0.0
230
1.0
  2
SOLID
 70
1
 71
0
 91
2
 92
3
 72
0
 73
1
 93
21
 10
382.35
 20
129.06
 10
386.25
 20
128.76
 10
386.55
 20
128.46
 10
386.85
 20
128.16
 10
386.85
 20
127.86
 10
386.25
 20
127.26
 10
386.25
 20
121.86
 10
395.55
 20
121.86
 10
395.55
 20
118.56
 10
386.25
 20
118.56
 10
386.25
 20
111.96
 10
394.65
 20
111.96
 10
394.65
 20
93.96
 10
391.05
 20
93.96
 10
391.05
 20
96.36
 10
380.85
 20
96.36
 10
380.85
 20
93.96
 10
377.25
 20
93.96
 10
377.25
 20
111.96
 10
382.35
 20
111.96
 10
382.35
 20
129.06
 97
0
 92
18
 72
0
 73
1
 93
5
 10
391.05
 20
108.36
 10
380.85
 20
108.36
 10
380.85
 20
99.96
 10
391.05
 20
99.96
 10
391.05
 20
108.36
 97
0
 75
1
 76
1
 98
0
  0
LWPOLYLINE
  5
A6
330
17
100
AcDbEntity
  8
FILL_WHITE_FFFFFF
370
0
420
16777215
100
AcDbPolyline
 90
20
 70
1
 10
382.35
 20
129.06
 10
386.25
 20
128.76
 10
386.55
 20
128.46
 10
386.85
 20
128.16
 10
386.85
 20
127.86
 10
386.25
 20
127.26
 10
386.25
 20
121.86
 10
395.55
 20
121.86
 10
395.55
 20
118.56
 10
386.25
 20
118.56
 10
386.25
 20
111.96
 10
394.65
 20
111.96
 10
394.65
 20
93.96
 10
391.05
 20
93.96
 10
391.05
 20
96.36
 10
380.85
 20
96.36
 10
380.85
 20
93.96
 10
377.25
 20
93.96
 10
377.25
 20
111.96
 10
382.35
 20
111.96
  0
LWPOLYLINE
  5
A7
330
17
100
AcDbEntity
  8
FILL_WHITE_FFFFFF
370
0
420
16777215
100
AcDbPolyline
 90
4
 70
1
 10
391.05
 20
108.36
 10
380.85
 20
108.36
 10
380.85
 20
99.96
 10
391.05
 20
99.96
  0
HATCH
  5
A8
330
17
100
AcDbEntity
  8
FILL_WHITE_FFFFFF
 62
7
420
16777215
100
AcDbHatch
 10
0.0
 20
0.0
 30
0.0
210
0.0
220
0.0
230
1.0
  2
SOLID
 70
1
 71
0
 91
1
 92
3
 72
0
 73
1
 93
29
 10
211.35
 20
71.16
 10
219.15
 20
71.16
 10
219.15
 20
73.86
 10
222.45
 20
73.86
 10
223.05
 20
73.56
 10
223.65
 20
73.26
 10
223.35
 20
72.96
 10
223.05
 20
72.36
 10
223.05
 20
71.16
 10
230.85
 20
71.16
 10
230.85
 20
68.16
 10
223.05
 20
68.16
 10
223.05
 20
66.06
 10
229.65
 20
66.06
 10
229.65
 20
63.06
 10
223.05
 20
63.06
 10
223.05
 20
61.26
 10
231.45
 20
61.26
 10
231.45
 20
57.96
 10
210.75
 20
57.96
 10
210.75
 20
61.26
 10
219.15
 20
61.26
 10
219.15
 20
63.06
 10
212.55
 20
63.06
 10
212.55
 20
66.06
 10
219.15
 20
66.06
 10
219.15
 20
68.16
 10
211.35
 20
68.16
 10
211.35
 20
71.16
 97
0
 75
1
 76
1
 98
0
  0
LWPOLYLINE
  5
A9
330
17
100
AcDbEntity
  8
FILL_WHITE_FFFFFF
370
0
420
16777215
100
AcDbPolyline
 90
28
 70
1
 10
211.35
 20
71.16
 10
219.15
 20
71.16
 10
219.15
 20
73.86
 10
222.45
 20
73.86
 10
223.05
 20
73.56
 10
223.65
 20
73.26
 10
223.35
 20
72.96
 10
223.05
 20
72.36
 10
223.05
 20
71.16
 10
230.85
 20
71.16
 10
230.85
 20
68.16
 10
223.05
 20
68.16
 10
223.05
 20
66.06
 10
229.65
 20
66.06
 10
229.65
 20
63.06
 10
223.05
 20
63.06
 10
223.05
 20
61.26
 10
231.45
 20
61.26
 10
231.45
 20
57.96
 10
210.75
 20
57.96
 10
210.75
 20
61.26
 10
219.15
 20
61.26
 10
219.15
 20
63.06
 10
212.55
 20
63.06
 10
212.55
 20
66.06
 10
219.15
 20
66.06
 10
219.15
 20
68.16
 10
211.35
 20
68.16
  0
HATCH
  5
AA
330
17
100
AcDbEntity
  8
FILL_WHITE_FFFFFF
 62
7
420
16777215
100
AcDbHatch
 10
0.0
 20
0.0
 30
0.0
210
0.0
220
0.0
230
1.0
  2
SOLID
 70
1
 71
0
 91
3
 92
3
 72
0
 73
1
 93
17
 10
229.65
 20
42.36
 10
229.65
 20
40.86
 10
229.05
 20
39.66
 10
227.55
 20
38.76
 10
225.75
 20
38.16
 10
223.95
 20
38.16
 10
222.15
 20
41.76
 10
224.85
 20
41.76
 10
225.75
 20
42.06
 10
226.05
 20
42.96
 10
226.05
 20
43.56
 10
215.85
 20
43.56
 10
215.85
 20
38.46
 10
212.25
 20
38.46
 10
212.25
 20
56.46
 10
229.65
 20
56.46
 10
229.65
 20
42.36
 97
0
 92
18
 72
0
 73
1
 93
5
 10
215.85
 20
53.16
 10
215.85
 20
51.36
 10
226.05
 20
51.36
 10
226.05
 20
53.16
 10
215.85
 20
53.16
 97
0
 92
18
 72
0
 73
1
 93
5
 10
226.05
 20
48.36
 10
215.85
 20
48.36
 10
215.85
 20
46.56
 10
226.05
 20
46.56
 10
226.05
 20
48.36
 97
0
 75
1
 76
1
 98
0
  0
LWPOLYLINE
  5
AB
330
17
100
AcDbEntity
  8
FILL_WHITE_FFFFFF
370
0
420
16777215
100
AcDbPolyline
 90
16
 70
1
 10
229.65
 20
42.36
 10
229.65
 20
40.86
 10
229.05
 20
39.66
 10
227.55
 20
38.76
 10
225.75
 20
38.16
 10
223.95
 20
38.16
 10
222.15
 20
41.76
 10
224.85
 20
41.76
 10
225.75
 20
42.06
 10
226.05
 20
42.96
 10
226.05
 20
43.56
 10
215.85
 20
43.56
 10
215.85
 20
38.46
 10
212.25
 20
38.46
 10
212.25
 20
56.46
 10
229.65
 20
56.46
  0
LWPOLYLINE
  5
AC
330
17
100
AcDbEntity
  8
FILL_WHITE_FFFFFF
370
0
420
16777215
100
AcDbPolyline
 90
4
 70
1
 10
215.85
 20
53.16
 10
215.85
 20
51.36
 10
226.05
 20
51.36
 10
226.05
 20
53.16
  0
LWPOLYLINE
  5
AD
330
17
100
AcDbEntity
  8
FILL_WHITE_FFFFFF
370
0
420
16777215
100
AcDbPolyline
 90
4
 70
1
 10
226.05
 20
48.36
 10
215.85
 20
48.36
 10
215.85
 20
46.56
 10
226.05
 20
46.56
  0
HATCH
  5
AE
330
17
100
AcDbEntity
  8
FILL_WHITE_FFFFFF
 62
7
420
16777215
100
AcDbHatch
 10
0.0
 20
0.0
 30
0.0
210
0.0
220
0.0
230
1.0
  2
SOLID
 70
1
 71
0
 91
1
 92
3
 72
0
 73
1
 93
5
 10
208.65
 20
72.36
 10
208.65
 20
69.36
 10
198.15
 20
69.36
 10
198.15
 20
72.36
 10
208.65
 20
72.36
 97
0
 75
1
 76
1
 98
0
  0
LWPOLYLINE
  5
AF
330
17
100
AcDbEntity
  8
FILL_WHITE_FFFFFF
370
0
420
16777215
100
AcDbPolyline
 90
4
 70
1
 10
208.65
 20
72.36
 10
208.65
 20
69.36
 10
198.15
 20
69.36
 10
198.15
 20
72.36
  0
HATCH
  5
B0
330
17
100
AcDbEntity
  8
FILL_WHITE_FFFFFF
 62
7
420
16777215
100
AcDbHatch
 10
0.0
 20
0.0
 30
0.0
210
0.0
220
0.0
230
1.0
  2
SOLID
 70
1
 71
0
 91
1
 92
3
 72
0
 73
1
 93
5
 10
210.45
 20
67.26
 10
210.45
 20
63.96
 10
196.35
 20
63.96
 10
196.35
 20
67.26
 10
210.45
 20
67.26
 97
0
 75
1
 76
1
 98
0
  0
LWPOLYLINE
  5
B1
330
17
100
AcDbEntity
  8
FILL_WHITE_FFFFFF
370
0
420
16777215
100
AcDbPolyline
 90
4
 70
1
 10
210.45
 20
67.26
 10
210.45
 20
63.96
 10
196.35
 20
63.96
 10
196.35
 20
67.26
  0
HATCH
  5
B2
330
17
100
AcDbEntity
  8
FILL_WHITE_FFFFFF
 62
7
420
16777215
100
AcDbHatch
 10
0.0
 20
0.0
 30
0.0
210
0.0
220
0.0
230
1.0
  2
SOLID
 70
1
 71
0
 91
1
 92
3
 72
0
 73
1
 93
5
 10
208.65
 20
61.86
 10
208.65
 20
58.56
 10
198.45
 20
58.56
 10
198.45
 20
61.86
 10
208.65
 20
61.86
 97
0
 75
1
 76
1
 98
0
  0
LWPOLYLINE
  5
B3
330
17
100
AcDbEntity
  8
FILL_WHITE_FFFFFF
370
0
420
16777215
100
AcDbPolyline
 90
4
 70
1
 10
208.65
 20
61.86
 10
208.65
 20
58.56
 10
198.45
 20
58.56
 10
198.45
 20
61.86
  0
HATCH
  5
B4
330
17
100
AcDbEntity
  8
FILL_WHITE_FFFFFF
 62
7
420
16777215
100
AcDbHatch
 10
0.0
 20
0.0
 30
0.0
210
0.0
220
0.0
230
1.0
  2
SOLID
 70
1
 71
0
 91
1
 92
3
 72
0
 73
1
 93
5
 10
208.65
 20
56.46
 10
208.65
 20
53.46
 10
198.45
 20
53.46
 10
198.45
 20
56.46
 10
208.65
 20
56.46
 97
0
 75
1
 76
1
 98
0
  0
LWPOLYLINE
  5
B5
330
17
100
AcDbEntity
  8
FILL_WHITE_FFFFFF
370
0
420
16777215
100
AcDbPolyline
 90
4
 70
1
 10
208.65
 20
56.46
 10
208.65
 20
53.46
 10
198.45
 20
53.46
 10
198.45
 20
56.46
  0
HATCH
  5
B6
330
17
100
AcDbEntity
  8
FILL_WHITE_FFFFFF
 62
7
420
16777215
100
AcDbHatch
 10
0.0
 20
0.0
 30
0.0
210
0.0
220
0.0
230
1.0
  2
SOLID
 70
1
 71
0
 91
2
 92
3
 72
0
 73
1
 93
9
 10
209.25
 20
51.36
 10
209.25
 20
38.46
 10
205.95
 20
38.46
 10
205.95
 20
40.56
 10
201.15
 20
40.56
 10
201.15
 20
38.76
 10
197.55
 20
38.76
 10
197.55
 20
51.36
 10
209.25
 20
51.36
 97
0
 92
18
 72
0
 73
1
 93
5
 10
205.65
 20
48.06
 10
201.15
 20
48.06
 10
201.15
 20
43.56
 10
205.65
 20
43.56
 10
205.65
 20
48.06
 97
0
 75
1
 76
1
 98
0
  0
LWPOLYLINE
  5
B7
330
17
100
AcDbEntity
  8
FILL_WHITE_FFFFFF
370
0
420
16777215
100
AcDbPolyline
 90
8
 70
1
 10
209.25
 20
51.36
 10
209.25
 20
38.46
 10
205.95
 20
38.46
 10
205.95
 20
40.56
 10
201.15
 20
40.56
 10
201.15
 20
38.76
 10
197.55
 20
38.76
 10
197.55
 20
51.36
  0
LWPOLYLINE
  5
B8
330
17
100
AcDbEntity
  8
FILL_WHITE_FFFFFF
370
0
420
16777215
100
AcDbPolyline
 90
4
 70
1
 10
205.65
 20
48.06
 10
201.15
 20
48.06
 10
201.15
 20
43.56
 10
205.65
 20
43.56
  0
HATCH
  5
B9
330
17
100
AcDbEntity
  8
FILL_WHITE_FFFFFF
 62
7
420
16777215
100
AcDbHatch
 10
0.0
 20
0.0
 30
0.0
210
0.0
220
0.0
230
1.0
  2
SOLID
 70
1
 71
0
 91
3
 92
3
 72
0
 73
1
 93
20
 10
260.55
 20
54.36
 10
249.45
 20
54.36
 10
249.45
 20
45.66
 10
256.95
 20
47.46
 10
255.45
 20
50.46
 10
257.85
 20
52.26
 10
260.25
 20
48.06
 10
262.65
 20
43.26
 10
259.35
 20
41.16
 10
258.15
 20
44.76
 10
245.55
 20
41.16
 10
244.95
 20
40.56
 10
244.35
 20
40.56
 10
244.05
 20
40.86
 10
243.75
 20
41.76
 10
243.15
 20
44.76
 10
245.85
 20
45.36
 10
245.85
 20
71.76
 10
260.55
 20
71.76
 10
260.55
 20
54.36
 97
0
 92
18
 72
0
 73
1
 93
5
 10
249.45
 20
68.76
 10
249.45
 20
64.86
 10
257.25
 20
64.86
 10
257.25
 20
68.76
 10
249.45
 20
68.76
 97
0
 92
18
 72
0
 73
1
 93
5
 10
257.25
 20
61.56
 10
249.45
 20
61.56
 10
249.45
 20
57.66
 10
257.25
 20
57.66
 10
257.25
 20
61.56
 97
0
 75
1
 76
1
 98
0
  0
LWPOLYLINE
  5
BA
330
17
100
AcDbEntity
  8
FILL_WHITE_FFFFFF
370
0
420
16777215
100
AcDbPolyline
 90
19
 70
1
 10
260.55
 20
54.36
 10
249.45
 20
54.36
 10
249.45
 20
45.66
 10
256.95
 20
47.46
 10
255.45
 20
50.46
 10
257.85
 20
52.26
 10
260.25
 20
48.06
 10
262.65
 20
43.26
 10
259.35
 20
41.16
 10
258.15
 20
44.76
 10
245.55
 20
41.16
 10
244.95
 20
40.56
 10
244.35
 20
40.56
 10
244.05
 20
40.86
 10
243.75
 20
41.76
 10
243.15
 20
44.76
 10
245.85
 20
45.36
 10
245.85
 20
71.76
 10
260.55
 20
71.76
  0
LWPOLYLINE
  5
BB
330
17
100
AcDbEntity
  8
FILL_WHITE_FFFFFF
370
0
420
16777215
100
AcDbPolyline
 90
4
 70
1
 10
249.45
 20
68.76
 10
249.45
 20
64.86
 10
257.25
 20
64.86
 10
257.25
 20
68.76
  0
LWPOLYLINE
  5
BC
330
17
100
AcDbEntity
  8
FILL_WHITE_FFFFFF
370
0
420
16777215
100
AcDbPolyline
 90
4
 70
1
 10
257.25
 20
61.56
 10
249.45
 20
61.56
 10
249.45
 20
57.66
 10
257.25
 20
57.66
  0
HATCH
  5
BD
330
17
100
AcDbEntity
  8
FILL_WHITE_FFFFFF
 62
7
420
16777215
100
AcDbHatch
 10
0.0
 20
0.0
 30
0.0
210
0.0
220
0.0
230
1.0
  2
SOLID
 70
1
 71
0
 91
1
 92
3
 72
0
 73
1
 93
18
 10
263.55
 20
71.76
 10
276.75
 20
71.76
 10
276.75
 20
48.06
 10
276.45
 20
45.66
 10
275.55
 20
44.16
 10
273.75
 20
43.26
 10
271.05
 20
43.26
 10
269.85
 20
46.86
 10
271.65
 20
46.86
 10
272.55
 20
46.86
 10
273.15
 20
47.16
 10
273.15
 20
47.76
 10
273.15
 20
48.66
 10
273.15
 20
68.76
 10
267.15
 20
68.76
 10
267.15
 20
38.46
 10
263.55
 20
38.46
 10
263.55
 20
71.76
 97
0
 75
1
 76
1
 98
0
  0
LWPOLYLINE
  5
BE
330
17
100
AcDbEntity
  8
FILL_WHITE_FFFFFF
370
0
420
16777215
100
AcDbPolyline
 90
17
 70
1
 10
263.55
 20
71.76
 10
276.75
 20
71.76
 10
276.75
 20
48.06
 10
276.45
 20
45.66
 10
275.55
 20
44.16
 10
273.75
 20
43.26
 10
271.05
 20
43.26
 10
269.85
 20
46.86
 10
271.65
 20
46.86
 10
272.55
 20
46.86
 10
273.15
 20
47.16
 10
273.15
 20
47.76
 10
273.15
 20
48.66
 10
273.15
 20
68.76
 10
267.15
 20
68.76
 10
267.15
 20
38.46
 10
263.55
 20
38.46
  0
HATCH
  5
BF
330
17
100
AcDbEntity
  8
FILL_WHITE_FFFFFF
 62
7
420
16777215
100
AcDbHatch
 10
0.0
 20
0.0
 30
0.0
210
0.0
220
0.0
230
1.0
  2
SOLID
 70
1
 71
0
 91
1
 92
3
 72
0
 73
1
 93
9
 10
290.55
 20
60.36
 10
290.85
 20
66.36
 10
293.85
 20
66.06
 10
294.45
 20
65.46
 10
293.85
 20
64.86
 10
293.85
 20
58.86
 10
293.25
 20
54.36
 10
289.65
 20
54.96
 10
290.55
 20
60.36
 97
0
 75
1
 76
1
 98
0
  0
LWPOLYLINE
  5
C0
330
17
100
AcDbEntity
  8
FILL_WHITE_FFFFFF
370
0
420
16777215
100
AcDbPolyline
 90
8
 70
1
 10
290.55
 20
60.36
 10
290.85
 20
66.36
 10
293.85
 20
66.06
 10
294.45
 20
65.46
 10
293.85
 20
64.86
 10
293.85
 20
58.86
 10
293.25
 20
54.36
 10
289.65
 20
54.96
  0
HATCH
  5
C1
330
17
100
AcDbEntity
  8
FILL_WHITE_FFFFFF
 62
7
420
16777215
100
AcDbHatch
 10
0.0
 20
0.0
 30
0.0
210
0.0
220
0.0
230
1.0
  2
SOLID
 70
1
 71
0
 91
1
 92
3
 72
0
 73
1
 93
6
 10
303.15
 20
63.36
 10
303.75
 20
59.46
 10
300.75
 20
58.86
 10
299.55
 20
65.76
 10
302.25
 20
66.66
 10
303.15
 20
63.36
 97
0
 75
1
 76
1
 98
0
  0
LWPOLYLINE
  5
C2
330
17
100
AcDbEntity
  8
FILL_WHITE_FFFFFF
370
0
420
16777215
100
AcDbPolyline
 90
5
 70
1
 10
303.15
 20
63.36
 10
303.75
 20
59.46
 10
300.75
 20
58.86
 10
299.55
 20
65.76
 10
302.25
 20
66.66
  0
HATCH
  5
C3
330
17
100
AcDbEntity
  8
FILL_WHITE_FFFFFF
 62
7
420
16777215
100
AcDbHatch
 10
0.0
 20
0.0
 30
0.0
210
0.0
220
0.0
230
1.0
  2
SOLID
 70
1
 71
0
 91
3
 92
3
 72
0
 73
1
 93
5
 10
306.75
 20
62.76
 10
306.75
 20
73.26
 10
323.25
 20
73.26
 10
323.25
 20
62.76
 10
306.75
 20
62.76
 97
0
 92
18
 72
0
 73
1
 93
5
 10
310.05
 20
70.86
 10
310.05
 20
69.36
 10
319.95
 20
69.36
 10
319.95
 20
70.86
 10
310.05
 20
70.86
 97
0
 92
18
 72
0
 73
1
 93
5
 10
319.95
 20
66.96
 10
310.05
 20
66.96
 10
310.05
 20
65.46
 10
319.95
 20
65.46
 10
319.95
 20
66.96
 97
0
 75
1
 76
1
 98
0
  0
LWPOLYLINE
  5
C4
330
17
100
AcDbEntity
  8
FILL_WHITE_FFFFFF
370
0
420
16777215
100
AcDbPolyline
 90
4
 70
1
 10
306.75
 20
62.76
 10
306.75
 20
73.26
 10
323.25
 20
73.26
 10
323.25
 20
62.76
  0
LWPOLYLINE
  5
C5
330
17
100
AcDbEntity
  8
FILL_WHITE_FFFFFF
370
0
420
16777215
100
AcDbPolyline
 90
4
 70
1
 10
310.05
 20
70.86
 10
310.05
 20
69.36
 10
319.95
 20
69.36
 10
319.95
 20
70.86
  0
LWPOLYLINE
  5
C6
330
17
100
AcDbEntity
  8
FILL_WHITE_FFFFFF
370
0
420
16777215
100
AcDbPolyline
 90
4
 70
1
 10
319.95
 20
66.96
 10
310.05
 20
66.96
 10
310.05
 20
65.46
 10
319.95
 20
65.46
  0
HATCH
  5
C7
330
17
100
AcDbEntity
  8
FILL_WHITE_FFFFFF
 62
7
420
16777215
100
AcDbHatch
 10
0.0
 20
0.0
 30
0.0
210
0.0
220
0.0
230
1.0
  2
SOLID
 70
1
 71
0
 91
4
 92
3
 72
0
 73
1
 93
5
 10
304.35
 20
60.96
 10
325.35
 20
60.96
 10
325.35
 20
53.16
 10
304.35
 20
53.16
 10
304.35
 20
60.96
 97
0
 92
18
 72
0
 73
1
 93
5
 10
313.35
 20
55.86
 10
316.05
 20
55.86
 10
316.05
 20
58.26
 10
313.35
 20
58.26
 10
313.35
 20
55.86
 97
0
 92
18
 72
0
 73
1
 93
5
 10
307.65
 20
58.26
 10
307.65
 20
55.86
 10
310.35
 20
55.86
 10
310.35
 20
58.26
 10
307.65
 20
58.26
 97
0
 92
18
 72
0
 73
1
 93
5
 10
322.05
 20
58.26
 10
319.35
 20
58.26
 10
319.35
 20
55.86
 10
322.05
 20
55.86
 10
322.05
 20
58.26
 97
0
 75
1
 76
1
 98
0
  0
LWPOLYLINE
  5
C8
330
17
100
AcDbEntity
  8
FILL_WHITE_FFFFFF
370
0
420
16777215
100
AcDbPolyline
 90
4
 70
1
 10
304.35
 20
60.96
 10
325.35
 20
60.96
 10
325.35
 20
53.16
 10
304.35
 20
53.16
  0
LWPOLYLINE
  5
C9
330
17
100
AcDbEntity
  8
FILL_WHITE_FFFFFF
370
0
420
16777215
100
AcDbPolyline
 90
4
 70
1
 10
313.35
 20
55.86
 10
316.05
 20
55.86
 10
316.05
 20
58.26
 10
313.35
 20
58.26
  0
LWPOLYLINE
  5
CA
330
17
100
AcDbEntity
  8
FILL_WHITE_FFFFFF
370
0
420
16777215
100
AcDbPolyline
 90
4
 70
1
 10
307.65
 20
58.26
 10
307.65
 20
55.86
 10
310.35
 20
55.86
 10
310.35
 20
58.26
  0
LWPOLYLINE
  5
CB
330
17
100
AcDbEntity
  8
FILL_WHITE_FFFFFF
370
0
420
16777215
100
AcDbPolyline
 90
4
 70
1
 10
322.05
 20
58.26
 10
319.35
 20
58.26
 10
319.35
 20
55.86
 10
322.05
 20
55.86
  0
HATCH
  5
CC
330
17
100
AcDbEntity
  8
FILL_WHITE_FFFFFF
 62
7
420
16777215
100
AcDbHatch
 10
0.0
 20
0.0
 30
0.0
210
0.0
220
0.0
230
1.0
  2
SOLID
 70
1
 71
0
 91
2
 92
3
 72
0
 73
1
 93
20
 10
322.65
 20
51.66
 10
324.15
 20
49.56
 10
321.45
 20
46.26
 10
318.45
 20
43.56
 10
322.05
 20
42.06
 10
325.95
 20
40.86
 10
322.95
 20
38.16
 10
318.75
 20
39.66
 10
315.15
 20
41.76
 10
310.05
 20
39.66
 10
304.95
 20
38.46
 10
302.55
 20
40.86
 10
307.35
 20
41.76
 10
312.15
 20
43.86
 10
309.75
 20
45.96
 10
307.65
 20
48.36
 10
305.25
 20
48.36
 10
305.25
 20
51.06
 10
321.45
 20
51.06
 10
322.65
 20
51.66
 97
0
 92
18
 72
0
 73
1
 93
6
 10
315.15
 20
45.36
 10
317.25
 20
46.56
 10
318.75
 20
48.36
 10
311.55
 20
48.36
 10
313.35
 20
46.56
 10
315.15
 20
45.36
 97
0
 75
1
 76
1
 98
0
  0
LWPOLYLINE
  5
CD
330
17
100
AcDbEntity
  8
FILL_WHITE_FFFFFF
370
0
420
16777215
100
AcDbPolyline
 90
19
 70
1
 10
322.65
 20
51.66
 10
324.15
 20
49.56
 10
321.45
 20
46.26
 10
318.45
 20
43.56
 10
322.05
 20
42.06
 10
325.95
 20
40.86
 10
322.95
 20
38.16
 10
318.75
 20
39.66
 10
315.15
 20
41.76
 10
310.05
 20
39.66
 10
304.95
 20
38.46
 10
302.55
 20
40.86
 10
307.35
 20
41.76
 10
312.15
 20
43.86
 10
309.75
 20
45.96
 10
307.65
 20
48.36
 10
305.25
 20
48.36
 10
305.25
 20
51.06
 10
321.45
 20
51.06
  0
LWPOLYLINE
  5
CE
330
17
100
AcDbEntity
  8
FILL_WHITE_FFFFFF
370
0
420
16777215
100
AcDbPolyline
 90
5
 70
1
 10
315.15
 20
45.36
 10
317.25
 20
46.56
 10
318.75
 20
48.36
 10
311.55
 20
48.36
 10
313.35
 20
46.56
  0
HATCH
  5
CF
330
17
100
AcDbEntity
  8
FILL_WHITE_FFFFFF
 62
7
420
16777215
100
AcDbHatch
 10
0.0
 20
0.0
 30
0.0
210
0.0
220
0.0
230
1.0
  2
SOLID
 70
1
 71
0
 91
1
 92
3
 72
0
 73
1
 93
7
 10
298.95
 20
73.56
 10
299.55
 20
72.66
 10
298.95
 20
72.06
 10
298.95
 20
38.46
 10
295.65
 20
38.46
 10
295.65
 20
73.56
 10
298.95
 20
73.56
 97
0
 75
1
 76
1
 98
0
  0
LWPOLYLINE
  5
D0
330
17
100
AcDbEntity
  8
FILL_WHITE_FFFFFF
370
0
420
16777215
100
AcDbPolyline
 90
6
 70
1
 10
298.95
 20
73.56
 10
299.55
 20
72.66
 10
298.95
 20
72.06
 10
298.95
 20
38.46
 10
295.65
 20
38.46
 10
295.65
 20
73.56
  0
HATCH
  5
D1
330
17
100
AcDbEntity
  8
FILL_WHITE_FFFFFF
 62
7
420
16777215
100
AcDbHatch
 10
0.0
 20
0.0
 30
0.0
210
0.0
220
0.0
230
1.0
  2
SOLID
 70
1
 71
0
 91
4
 92
3
 72
0
 73
1
 93
40
 10
348.45
 20
67.56
 10
352.65
 20
67.56
 10
352.65
 20
64.56
 10
348.45
 20
64.56
 10
348.45
 20
61.86
 10
352.65
 20
61.86
 10
352.65
 20
58.86
 10
348.45
 20
58.86
 10
348.45
 20
56.46
 10
353.25
 20
56.46
 10
352.95
 20
48.36
 10
352.95
 20
46.26
 10
352.95
 20
44.76
 10
352.35
 20
43.26
 10
351.75
 20
41.76
 10
350.55
 20
40.86
 10
349.35
 20
39.96
 10
347.85
 20
39.36
 10
346.05
 20
39.06
 10
344.85
 20
38.76
 10
343.65
 20
41.76
 10
345.75
 20
41.76
 10
347.85
 20
42.36
 10
349.05
 20
43.26
 10
349.95
 20
44.46
 10
350.25
 20
45.96
 10
348.75
 20
45.66
 10
347.85
 20
48.36
 10
346.65
 20
51.06
 10
348.45
 20
51.36
 10
350.25
 20
47.46
 10
350.25
 20
53.76
 10
341.25
 20
53.76
 10
341.25
 20
51.96
 10
337.95
 20
51.96
 10
337.95
 20
72.96
 10
353.25
 20
72.96
 10
353.25
 20
69.96
 10
348.45
 20
69.96
 10
348.45
 20
67.56
 97
0
 92
18
 72
0
 73
1
 93
5
 10
341.25
 20
67.56
 10
345.45
 20
67.56
 10
345.45
 20
69.96
 10
341.25
 20
69.96
 10
341.25
 20
67.56
 97
0
 92
18
 72
0
 73
1
 93
5
 10
341.25
 20
64.56
 10
341.25
 20
61.86
 10
345.45
 20
61.86
 10
345.45
 20
64.56
 10
341.25
 20
64.56
 97
0
 92
18
 72
0
 73
1
 93
5
 10
345.45
 20
58.86
 10
341.25
 20
58.86
 10
341.25
 20
56.46
 10
345.45
 20
56.46
 10
345.45
 20
58.86
 97
0
 75
1
 76
1
 98
0
  0
LWPOLYLINE
  5
D2
330
17
100
AcDbEntity
  8
FILL_WHITE_FFFFFF
370
0
420
16777215
100
AcDbPolyline
 90
39
 70
1
 10
348.45
 20
67.56
 10
352.65
 20
67.56
 10
352.65
 20
64.56
 10
348.45
 20
64.56
 10
348.45
 20
61.86
 10
352.65
 20
61.86
 10
352.65
 20
58.86
 10
348.45
 20
58.86
 10
348.45
 20
56.46
 10
353.25
 20
56.46
 10
352.95
 20
48.36
 10
352.95
 20
46.26
 10
352.95
 20
44.76
 10
352.35
 20
43.26
 10
351.75
 20
41.76
 10
350.55
 20
40.86
 10
349.35
 20
39.96
 10
347.85
 20
39.36
 10
346.05
 20
39.06
 10
344.85
 20
38.76
 10
343.65
 20
41.76
 10
345.75
 20
41.76
 10
347.85
 20
42.36
 10
349.05
 20
43.26
 10
349.95
 20
44.46
 10
350.25
 20
45.96
 10
348.75
 20
45.66
 10
347.85
 20
48.36
 10
346.65
 20
51.06
 10
348.45
 20
51.36
 10
350.25
 20
47.46
 10
350.25
 20
53.76
 10
341.25
 20
53.76
 10
341.25
 20
51.96
 10
337.95
 20
51.96
 10
337.95
 20
72.96
 10
353.25
 20
72.96
 10
353.25
 20
69.96
 10
348.45
 20
69.96
  0
LWPOLYLINE
  5
D3
330
17
100
AcDbEntity
  8
FILL_WHITE_FFFFFF
370
0
420
16777215
100
AcDbPolyline
 90
4
 70
1
 10
341.25
 20
67.56
 10
345.45
 20
67.56
 10
345.45
 20
69.96
 10
341.25
 20
69.96
  0
LWPOLYLINE
  5
D4
330
17
100
AcDbEntity
  8
FILL_WHITE_FFFFFF
370
0
420
16777215
100
AcDbPolyline
 90
4
 70
1
 10
341.25
 20
64.56
 10
341.25
 20
61.86
 10
345.45
 20
61.86
 10
345.45
 20
64.56
  0
LWPOLYLINE
  5
D5
330
17
100
AcDbEntity
  8
FILL_WHITE_FFFFFF
370
0
420
16777215
100
AcDbPolyline
 90
4
 70
1
 10
345.45
 20
58.86
 10
341.25
 20
58.86
 10
341.25
 20
56.46
 10
345.45
 20
56.46
  0
HATCH
  5
D6
330
17
100
AcDbEntity
  8
FILL_WHITE_FFFFFF
 62
7
420
16777215
100
AcDbHatch
 10
0.0
 20
0.0
 30
0.0
210
0.0
220
0.0
230
1.0
  2
SOLID
 70
1
 71
0
 91
1
 92
3
 72
0
 73
1
 93
5
 10
347.25
 20
44.76
 10
345.15
 20
44.46
 10
343.65
 20
50.46
 10
345.75
 20
50.46
 10
347.25
 20
44.76
 97
0
 75
1
 76
1
 98
0
  0
LWPOLYLINE
  5
D7
330
17
100
AcDbEntity
  8
FILL_WHITE_FFFFFF
370
0
420
16777215
100
AcDbPolyline
 90
4
 70
1
 10
347.25
 20
44.76
 10
345.15
 20
44.46
 10
343.65
 20
50.46
 10
345.75
 20
50.46
  0
HATCH
  5
D8
330
17
100
AcDbEntity
  8
FILL_WHITE_FFFFFF
 62
7
420
16777215
100
AcDbHatch
 10
0.0
 20
0.0
 30
0.0
210
0.0
220
0.0
230
1.0
  2
SOLID
 70
1
 71
0
 91
1
 92
3
 72
0
 73
1
 93
6
 10
343.35
 20
44.16
 10
340.95
 20
43.86
 10
340.95
 20
46.86
 10
340.65
 20
49.86
 10
342.75
 20
50.16
 10
343.35
 20
44.16
 97
0
 75
1
 76
1
 98
0
  0
LWPOLYLINE
  5
D9
330
17
100
AcDbEntity
  8
FILL_WHITE_FFFFFF
370
0
420
16777215
100
AcDbPolyline
 90
5
 70
1
 10
343.35
 20
44.16
 10
340.95
 20
43.86
 10
340.95
 20
46.86
 10
340.65
 20
49.86
 10
342.75
 20
50.16
  0
HATCH
  5
DA
330
17
100
AcDbEntity
  8
FILL_WHITE_FFFFFF
 62
7
420
16777215
100
AcDbHatch
 10
0.0
 20
0.0
 30
0.0
210
0.0
220
0.0
230
1.0
  2
SOLID
 70
1
 71
0
 91
1
 92
3
 72
0
 73
1
 93
6
 10
338.85
 20
42.96
 10
336.15
 20
42.96
 10
336.75
 20
46.26
 10
337.05
 20
50.16
 10
339.45
 20
49.86
 10
338.85
 20
42.96
 97
0
 75
1
 76
1
 98
0
  0
LWPOLYLINE
  5
DB
330
17
100
AcDbEntity
  8
FILL_WHITE_FFFFFF
370
0
420
16777215
100
AcDbPolyline
 90
5
 70
1
 10
338.85
 20
42.96
 10
336.15
 20
42.96
 10
336.75
 20
46.26
 10
337.05
 20
50.16
 10
339.45
 20
49.86
  0
HATCH
  5
DC
330
17
100
AcDbEntity
  8
FILL_WHITE_FFFFFF
 62
7
420
16777215
100
AcDbHatch
 10
0.0
 20
0.0
 30
0.0
210
0.0
220
0.0
230
1.0
  2
SOLID
 70
1
 71
0
 91
3
 92
3
 72
0
 73
1
 93
34
 10
365.25
 20
72.66
 10
365.25
 20
72.36
 10
364.65
 20
72.06
 10
364.65
 20
68.16
 10
371.55
 20
68.16
 10
371.55
 20
54.66
 10
364.65
 20
54.66
 10
364.35
 20
50.16
 10
363.45
 20
45.96
 10
367.95
 20
43.56
 10
372.75
 20
41.76
 10
370.95
 20
38.76
 10
366.15
 20
40.56
 10
361.65
 20
43.26
 10
358.65
 20
40.56
 10
355.05
 20
38.46
 10
352.95
 20
42.06
 10
354.75
 20
42.36
 10
356.55
 20
43.26
 10
358.05
 20
44.16
 10
359.55
 20
45.66
 10
357.45
 20
48.36
 10
355.65
 20
51.66
 10
357.75
 20
53.16
 10
359.25
 20
50.76
 10
360.75
 20
48.96
 10
361.35
 20
54.66
 10
354.75
 20
54.66
 10
354.75
 20
68.16
 10
361.35
 20
68.16
 10
361.35
 20
73.56
 10
364.05
 20
73.26
 10
364.95
 20
72.96
 10
365.25
 20
72.66
 97
0
 92
18
 72
0
 73
1
 93
5
 10
358.35
 20
65.46
 10
358.35
 20
57.66
 10
361.35
 20
57.66
 10
361.35
 20
65.46
 10
358.35
 20
65.46
 97
0
 92
18
 72
0
 73
1
 93
5
 10
368.25
 20
65.46
 10
364.65
 20
65.46
 10
364.65
 20
57.66
 10
368.25
 20
57.66
 10
368.25
 20
65.46
 97
0
 75
1
 76
1
 98
0
  0
LWPOLYLINE
  5
DD
330
17
100
AcDbEntity
  8
FILL_WHITE_FFFFFF
370
0
420
16777215
100
AcDbPolyline
 90
33
 70
1
 10
365.25
 20
72.66
 10
365.25
 20
72.36
 10
364.65
 20
72.06
 10
364.65
 20
68.16
 10
371.55
 20
68.16
 10
371.55
 20
54.66
 10
364.65
 20
54.66
 10
364.35
 20
50.16
 10
363.45
 20
45.96
 10
367.95
 20
43.56
 10
372.75
 20
41.76
 10
370.95
 20
38.76
 10
366.15
 20
40.56
 10
361.65
 20
43.26
 10
358.65
 20
40.56
 10
355.05
 20
38.46
 10
352.95
 20
42.06
 10
354.75
 20
42.36
 10
356.55
 20
43.26
 10
358.05
 20
44.16
 10
359.55
 20
45.66
 10
357.45
 20
48.36
 10
355.65
 20
51.66
 10
357.75
 20
53.16
 10
359.25
 20
50.76
 10
360.75
 20
48.96
 10
361.35
 20
54.66
 10
354.75
 20
54.66
 10
354.75
 20
68.16
 10
361.35
 20
68.16
 10
361.35
 20
73.56
 10
364.05
 20
73.26
 10
364.95
 20
72.96
  0
LWPOLYLINE
  5
DE
330
17
100
AcDbEntity
  8
FILL_WHITE_FFFFFF
370
0
420
16777215
100
AcDbPolyline
 90
4
 70
1
 10
358.35
 20
65.46
 10
358.35
 20
57.66
 10
361.35
 20
57.66
 10
361.35
 20
65.46
  0
LWPOLYLINE
  5
DF
330
17
100
AcDbEntity
  8
FILL_WHITE_FFFFFF
370
0
420
16777215
100
AcDbPolyline
 90
4
 70
1
 10
368.25
 20
65.46
 10
364.65
 20
65.46
 10
364.65
 20
57.66
 10
368.25
 20
57.66
  0
LWPOLYLINE
  5
E1
330
17
100
AcDbEntity
  8
STROKE_WHITE_FFFFFF
370
0
420
16777215
100
AcDbPolyline
 90
2
 70
0
 10
244.95000000000005
 20
215.75999999999996
 10
244.95000000000005
 20
239.76
  0
LWPOLYLINE
  5
E2
330
17
100
AcDbEntity
  8
STROKE_WHITE_FFFFFF
370
0
420
16777215
100
AcDbPolyline
 90
2
 70
0
 10
262.04999999999995
 20
215.75999999999996
 10
262.35000000000014
 20
215.75999999999996
  0
LWPOLYLINE
  5
E3
330
17
100
AcDbEntity
  8
STROKE_WHITE_FFFFFF
370
0
420
16777215
100
AcDbPolyline
 90
5
 70
0
 10
371.25
 20
239.76
 10
375.1500000000001
 20
239.76
 10
375.1500000000001
 20
215.75999999999996
 10
371.25
 20
215.75999999999996
 10
371.25
 20
239.76
  0
LWPOLYLINE
  5
E4
330
17
100
AcDbEntity
  8
STROKE_WHITE_FFFFFF
370
0
420
16777215
100
AcDbPolyline
 90
3
 70
0
 10
265.35000000000014
 20
181.85999999999999
 10
269.25
 20
181.85999999999999
 10
265.35000000000014
 20
181.85999999999999
  0
LWPOLYLINE
  5
E5
330
17
100
AcDbEntity
  8
STROKE_WHITE_FFFFFF
370
0
420
16777215
100
AcDbPolyline
 90
2
 70
0
 10
269.85000000000014
 20
150.66
 10
270.1500000000001
 20
150.66
  0
LWPOLYLINE
  5
E6
330
17
100
AcDbEntity
  8
STROKE_WHITE_FFFFFF
370
0
420
16777215
100
AcDbPolyline
 90
2
 70
0
 10
276.75
 20
154.55999999999997
 10
277.04999999999995
 20
154.55999999999997
  0
LWPOLYLINE
  5
E7
330
17
100
AcDbEntity
  8
STROKE_WHITE_FFFFFF
370
0
420
16777215
100
AcDbPolyline
 90
2
 70
0
 10
276.75
 20
154.55999999999997
 10
277.04999999999995
 20
154.55999999999997
  0
LWPOLYLINE
  5
E8
330
17
100
AcDbEntity
  8
STROKE_WHITE_FFFFFF
370
0
420
16777215
100
AcDbPolyline
 90
2
 70
0
 10
104.85000000000014
 20
147.66
 10
104.85000000000014
 20
171.66
  0
LWPOLYLINE
  5
EA
330
17
100
AcDbEntity
  8
STROKE_BLUE_0000FF
370
0
420
255
100
AcDbPolyline
 90
69
 70
0
 10
472.64999999999986
 20
259.55999999999995
 10
95.85000000000014
 20
259.55999999999995
 10
94.52812500000009
 20
259.50374999999997
 10
93.26250000000006
 20
259.335
 10
92.05312500000004
 20
259.05375
 10
90.90000000000003
 20
258.65999999999997
 10
89.80312500000004
 20
258.15375
 10
88.76250000000006
 20
257.53499999999997
 10
87.77812500000009
 20
256.80375
 10
86.85000000000014
 20
255.95999999999998
 10
86.00625000000011
 20
255.01957031249998
 10
85.27500000000008
 20
254.00531249999997
 10
84.65625000000006
 20
252.92777343749998
 10
84.15000000000003
 20
251.79749999999999
 10
83.75625000000002
 20
250.62503906249998
 10
83.47500000000001
 20
249.42093749999998
 10
83.30625
 20
248.19574218749997
 10
83.25
 20
246.95999999999998
 10
83.25
 20
26.759999999999962
 10
83.30624999999999
 20
25.53714843749995
 10
83.47500000000001
 20
24.34593749999999
 10
83.75625000000002
 20
23.189882812500002
 10
84.15000000000003
 20
22.07249999999999
 10
84.65625000000006
 20
20.99730468749999
 10
85.27500000000008
 20
19.96781249999998
 10
86.00625000000011
 20
18.98753906249999
 10
86.85000000000014
 20
18.059999999999974
 10
87.77812500000009
 20
17.216249999999945
 10
88.76250000000006
 20
16.484999999999957
 10
89.80312500000004
 20
15.86624999999998
 10
90.90000000000003
 20
15.360000000000014
 10
92.05312500000004
 20
14.966250000000002
 10
93.26250000000006
 20
14.68500000000006
 10
94.52812500000009
 20
14.516250000000014
 10
95.85000000000014
 20
14.460000000000036
 10
472.64999999999986
 20
14.460000000000036
 10
473.88515624999997
 20
14.51625000000007
 10
475.10624999999993
 20
14.685000000000002
 10
476.29921875000014
 20
14.966250000000002
 10
477.45000000000016
 20
15.360000000000014
 10
478.5445312500001
 20
15.866250000000036
 10
479.5687500000002
 20
16.485000000000014
 10
480.50859375000016
 20
17.216249999999945
 10
481.35000000000014
 20
18.059999999999974
 10
482.2066406250002
 20
18.98753906250002
 10
482.9718750000002
 20
19.96781249999998
 10
483.6386718750002
 20
20.99730468749999
 10
484.20000000000016
 20
22.07249999999999
 10
484.64882812500025
 20
23.189882812500002
 10
484.9781250000002
 20
24.34593749999999
 10
485.1808593750003
 20
25.53714843749998
 10
485.2500000000002
 20
26.759999999999962
 10
485.2500000000002
 20
246.95999999999998
 10
485.18085937500024
 20
248.19574218749997
 10
484.9781250000002
 20
249.42093749999998
 10
484.64882812500025
 20
250.62503906249998
 10
484.2000000000003
 20
251.79749999999999
 10
483.6386718750002
 20
252.92777343749998
 10
482.9718750000002
 20
254.00531249999997
 10
482.2066406250002
 20
255.01957031249998
 10
481.35000000000014
 20
255.95999999999998
 10
480.50859375000016
 20
256.80375
 10
479.5687500000002
 20
257.53499999999997
 10
478.5445312500001
 20
258.15375
 10
477.45000000000005
 20
258.65999999999997
 10
476.29921875000014
 20
259.05375
 10
475.10624999999993
 20
259.335
 10
473.8851562499999
 20
259.50374999999997
 10
472.64999999999986
 20
259.55999999999995
  0
ENDSEC
  0
SECTION
  2
OBJECTS
  0
DICTIONARY
  5
A
330
0
100
AcDbDictionary
281
1
  3
ACAD_COLOR
350
B
  3
ACAD_GROUP
350
C
  3
ACAD_LAYOUT
350
D
  3
ACAD_MATERIAL
350
E
  3
ACAD_MLEADERSTYLE
350
F
  3
ACAD_MLINESTYLE
350
10
  3
ACAD_PLOTSETTINGS
350
11
  3
ACAD_PLOTSTYLENAME
350
12
  3
ACAD_SCALELIST
350
14
  3
ACAD_TABLESTYLE
350
15
  3
ACAD_VISUALSTYLE
350
16
  3
EZDXF_META
350
2D
  0
DICTIONARY
  5
B
330
A
100
AcDbDictionary
281
1
  0
DICTIONARY
  5
C
330
A
100
AcDbDictionary
281
1
  0
DICTIONARY
  5
D
330
A
100
AcDbDictionary
281
1
  3
Model
350
1A
  3
Layout1
350
1E
  0
DICTIONARY
  5
E
330
A
100
AcDbDictionary
281
1
  3
ByBlock
350
1F
  3
ByLayer
350
20
  3
Global
350
21
  0
DICTIONARY
  5
F
330
A
100
AcDbDictionary
281
1
  3
Standard
350
2C
  0
DICTIONARY
  5
10
330
A
100
AcDbDictionary
281
1
  3
Standard
350
22
  0
DICTIONARY
  5
11
330
A
100
AcDbDictionary
281
1
  0
ACDBDICTIONARYWDFLT
  5
12
330
A
100
AcDbDictionary
281
1
  3
Normal
350
13
100
AcDbDictionaryWithDefault
340
13
  0
ACDBPLACEHOLDER
  5
13
330
12
  0
DICTIONARY
  5
14
330
A
100
AcDbDictionary
281
1
  0
DICTIONARY
  5
15
330
A
100
AcDbDictionary
281
1
  0
DICTIONARY
  5
16
330
A
100
AcDbDictionary
281
1
  0
LAYOUT
  5
1A
330
D
100
AcDbPlotSettings
  1

  4
A3
  6

 40
7.5
 41
20.0
 42
7.5
 43
20.0
 44
420.0
 45
297.0
 46
0.0
 47
0.0
 48
0.0
 49
0.0
140
0.0
141
0.0
142
1.0
143
1.0
 70
1024
 72
1
 73
0
 74
5
  7

 75
16
 76
0
 77
2
 78
300
147
1.0
148
0.0
149
0.0
100
AcDbLayout
  1
Model
 70
1
 71
0
 10
0.0
 20
0.0
 11
420.0
 21
297.0
 12
0.0
 22
0.0
 32
0.0
 14
1e+20
 24
1e+20
 34
1e+20
 15
-1e+20
 25
-1e+20
 35
-1e+20
146
0.0
 13
0.0
 23
0.0
 33
0.0
 16
1.0
 26
0.0
 36
0.0
 17
0.0
 27
1.0
 37
0.0
 76
1
330
17
  0
LAYOUT
  5
1E
330
D
100
AcDbPlotSettings
  1

  4
A3
  6

 40
7.5
 41
20.0
 42
7.5
 43
20.0
 44
420.0
 45
297.0
 46
0.0
 47
0.0
 48
0.0
 49
0.0
140
0.0
141
0.0
142
1.0
143
1.0
 70
0
 72
1
 73
0
 74
5
  7

 75
16
 76
0
 77
2
 78
300
147
1.0
148
0.0
149
0.0
100
AcDbLayout
  1
Layout1
 70
1
 71
1
 10
0.0
 20
0.0
 11
420.0
 21
297.0
 12
0.0
 22
0.0
 32
0.0
 14
1e+20
 24
1e+20
 34
1e+20
 15
-1e+20
 25
-1e+20
 35
-1e+20
146
0.0
 13
0.0
 23
0.0
 33
0.0
 16
1.0
 26
0.0
 36
0.0
 17
0.0
 27
1.0
 37
0.0
 76
1
330
1B
  0
MATERIAL
  5
1F
102
{ACAD_REACTORS
330
E
102
}
330
E
100
AcDbMaterial
  1
ByBlock
  2

 70
0
 40
1.0
 71
1
 41
1.0
 91
-1023410177
 42
1.0
 72
1
  3

 73
1
 74
1
 75
1
 44
0.5
 73
0
 45
1.0
 46
1.0
 77
1
  4

 78
1
 79
1
170
1
 48
1.0
171
1
  6

172
1
173
1
174
1
140
1.0
141
1.0
175
1
  7

176
1
177
1
178
1
143
1.0
179
1
  8

270
1
271
1
272
1
145
1.0
146
1.0
273
1
  9

274
1
275
1
276
1
 42
1.0
 72
1
  3

 73
1
 74
1
 75
1
 94
63
  0
MATERIAL
  5
20
102
{ACAD_REACTORS
330
E
102
}
330
E
100
AcDbMaterial
  1
ByLayer
  2

 70
0
 40
1.0
 71
1
 41
1.0
 91
-1023410177
 42
1.0
 72
1
  3

 73
1
 74
1
 75
1
 44
0.5
 73
0
 45
1.0
 46
1.0
 77
1
  4

 78
1
 79
1
170
1
 48
1.0
171
1
  6

172
1
173
1
174
1
140
1.0
141
1.0
175
1
  7

176
1
177
1
178
1
143
1.0
179
1
  8

270
1
271
1
272
1
145
1.0
146
1.0
273
1
  9

274
1
275
1
276
1
 42
1.0
 72
1
  3

 73
1
 74
1
 75
1
 94
63
  0
MATERIAL
  5
21
102
{ACAD_REACTORS
330
E
102
}
330
E
100
AcDbMaterial
  1
Global
  2

 70
0
 40
1.0
 71
1
 41
1.0
 91
-1023410177
 42
1.0
 72
1
  3

 73
1
 74
1
 75
1
 44
0.5
 73
0
 45
1.0
 46
1.0
 77
1
  4

 78
1
 79
1
170
1
 48
1.0
171
1
  6

172
1
173
1
174
1
140
1.0
141
1.0
175
1
  7

176
1
177
1
178
1
143
1.0
179
1
  8

270
1
271
1
272
1
145
1.0
146
1.0
273
1
  9

274
1
275
1
276
1
 42
1.0
 72
1
  3

 73
1
 74
1
 75
1
 94
63
  0
MLINESTYLE
  5
22
102
{ACAD_REACTORS
330
10
102
}
330
10
100
AcDbMlineStyle
  2
Standard
 70
0
  3

 62
256
 51
90.0
 52
90.0
 71
2
 49
0.5
 62
256
  6
BYLAYER
 49
-0.5
 62
256
  6
BYLAYER
  0
MLEADERSTYLE
  5
2C
102
{ACAD_REACTORS
330
F
102
}
330
F
100
AcDbMLeaderStyle
179
2
170
2
171
1
172
0
 90
2
 40
0.0
 41
0.0
173
1
 91
-1056964608
 92
-2
290
1
 42
2.0
291
1
 43
8.0
  3
Standard
 44
4.0
300

342
29
174
1
175
1
176
0
178
1
 93
-1056964608
 45
4.0
292
0
297
0
 46
4.0
 94
-1056964608
 47
1.0
 49
1.0
140
1.0
294
1
141
0.0
177
0
142
1.0
295
0
296
0
143
3.75
271
0
272
9
273
9
  0
DICTIONARY
  5
2D
330
A
100
AcDbDictionary
280
1
281
1
  3
CREATED_BY_EZDXF
350
2E
  3
WRITTEN_BY_EZDXF
350
ED
  0
DICTIONARYVAR
  5
2E
330
2D
100
DictionaryVariables
280
0
  1
1.4.4 @ 2026-07-10T01:54:02.305712+00:00
  0
DICTIONARYVAR
  5
ED
330
2D
100
DictionaryVariables
280
0
  1
1.4.4 @ 2026-07-10T01:54:02.330581+00:00
  0
ENDSEC
  0
EOF
