  0
SECTION
  2
HEADER
  9
$ACADVER
  1
AC1024
  9
$ACADMAINTVER
 70
6
  9
$DWGCODEPAGE
  3
ANSI_1252
  9
$LASTSAVEDBY
  1
ezdxf
  9
$INSBASE
 10
0.0
 20
0.0
 30
0.0
  9
$EXTMIN
 10
1e+20
 20
1e+20
 30
1e+20
  9
$EXTMAX
 10
-1e+20
 20
-1e+20
 30
-1e+20
  9
$LIMMIN
 10
0.0
 20
0.0
  9
$LIMMAX
 10
420.0
 20
297.0
  9
$ORTHOMODE
 70
0
  9
$REGENMODE
 70
1
  9
$FILLMODE
 70
1
  9
$QTEXTMODE
 70
0
  9
$MIRRTEXT
 70
1
  9
$LTSCALE
 40
1.0
  9
$ATTMODE
 70
1
  9
$TEXTSIZE
 40
2.5
  9
$TRACEWID
 40
1.0
  9
$TEXTSTYLE
  7
Standard
  9
$CLAYER
  8
0
  9
$CELTYPE
  6
ByLayer
  9
$CECOLOR
 62
256
  9
$CELTSCALE
 40
1.0
  9
$DISPSILH
 70
0
  9
$DIMSCALE
 40
1.0
  9
$DIMASZ
 40
2.5
  9
$DIMEXO
 40
0.625
  9
$DIMDLI
 40
3.75
  9
$DIMRND
 40
0.0
  9
$DIMDLE
 40
0.0
  9
$DIMEXE
 40
1.25
  9
$DIMTP
 40
0.0
  9
$DIMTM
 40
0.0
  9
$DIMTXT
 40
2.5
  9
$DIMCEN
 40
2.5
  9
$DIMTSZ
 40
0.0
  9
$DIMTOL
 70
0
  9
$DIMLIM
 70
0
  9
$DIMTIH
 70
0
  9
$DIMTOH
 70
0
  9
$DIMSE1
 70
0
  9
$DIMSE2
 70
0
  9
$DIMTAD
 70
1
  9
$DIMZIN
 70
8
  9
$DIMBLK
  1

  9
$DIMASO
 70
1
  9
$DIMSHO
 70
1
  9
$DIMPOST
  1

  9
$DIMAPOST
  1

  9
$DIMALT
 70
0
  9
$DIMALTD
 70
3
  9
$DIMALTF
 40
0.03937007874
  9
$DIMLFAC
 40
1.0
  9
$DIMTOFL
 70
1
  9
$DIMTVP
 40
0.0
  9
$DIMTIX
 70
0
  9
$DIMSOXD
 70
0
  9
$DIMSAH
 70
0
  9
$DIMBLK1
  1

  9
$DIMBLK2
  1

  9
$DIMSTYLE
  2
ISO-25
  9
$DIMCLRD
 70
0
  9
$DIMCLRE
 70
0
  9
$DIMCLRT
 70
0
  9
$DIMTFAC
 40
1.0
  9
$DIMGAP
 40
0.625
  9
$DIMJUST
 70
0
  9
$DIMSD1
 70
0
  9
$DIMSD2
 70
0
  9
$DIMTOLJ
 70
0
  9
$DIMTZIN
 70
8
  9
$DIMALTZ
 70
0
  9
$DIMALTTZ
 70
0
  9
$DIMUPT
 70
0
  9
$DIMDEC
 70
2
  9
$DIMTDEC
 70
2
  9
$DIMALTU
 70
2
  9
$DIMALTTD
 70
3
  9
$DIMTXSTY
  7
Standard
  9
$DIMAUNIT
 70
0
  9
$DIMADEC
 70
0
  9
$DIMALTRND
 40
0.0
  9
$DIMAZIN
 70
0
  9
$DIMDSEP
 70
44
  9
$DIMATFIT
 70
3
  9
$DIMFRAC
 70
0
  9
$DIMLDRBLK
  1

  9
$DIMLUNIT
 70
2
  9
$DIMLWD
 70
-2
  9
$DIMLWE
 70
-2
  9
$DIMTMOVE
 70
0
  9
$DIMFXL
 40
1.0
  9
$DIMFXLON
 70
0
  9
$DIMJOGANG
 40
0.785398163397
  9
$DIMTFILL
 70
0
  9
$DIMTFILLCLR
 70
0
  9
$DIMARCSYM
 70
0
  9
$DIMLTYPE
  6

  9
$DIMLTEX1
  6

  9
$DIMLTEX2
  6

  9
$DIMTXTDIRECTION
 70
0
  9
$LUNITS
 70
2
  9
$LUPREC
 70
4
  9
$SKETCHINC
 40
1.0
  9
$FILLETRAD
 40
10.0
  9
$AUNITS
 70
0
  9
$AUPREC
 70
2
  9
$MENU
  1
.
  9
$ELEVATION
 40
0.0
  9
$PELEVATION
 40
0.0
  9
$THICKNESS
 40
0.0
  9
$LIMCHECK
 70
0
  9
$CHAMFERA
 40
0.0
  9
$CHAMFERB
 40
0.0
  9
$CHAMFERC
 40
0.0
  9
$CHAMFERD
 40
0.0
  9
$SKPOLY
 70
0
  9
$TDCREATE
 40
2461232.412523148
  9
$TDUCREATE
 40
2458532.153996898
  9
$TDUPDATE
 40
2461232.412523148
  9
$TDUUPDATE
 40
2458532.1544311
  9
$TDINDWG
 40
0.0
  9
$TDUSRTIMER
 40
0.0
  9
$USRTIMER
 70
1
  9
$ANGBASE
 50
0.0
  9
$ANGDIR
 70
0
  9
$PDMODE
 70
0
  9
$PDSIZE
 40
0.0
  9
$PLINEWID
 40
0.0
  9
$SPLFRAME
 70
0
  9
$SPLINETYPE
 70
6
  9
$SPLINESEGS
 70
8
  9
$HANDSEED
  5
73
  9
$SURFTAB1
 70
6
  9
$SURFTAB2
 70
6
  9
$SURFTYPE
 70
6
  9
$SURFU
 70
6
  9
$SURFV
 70
6
  9
$UCSBASE
  2

  9
$UCSNAME
  2

  9
$UCSORG
 10
0.0
 20
0.0
 30
0.0
  9
$UCSXDIR
 10
1.0
 20
0.0
 30
0.0
  9
$UCSYDIR
 10
0.0
 20
1.0
 30
0.0
  9
$UCSORTHOREF
  2

  9
$UCSORTHOVIEW
 70
0
  9
$UCSORGTOP
 10
0.0
 20
0.0
 30
0.0
  9
$UCSORGBOTTOM
 10
0.0
 20
0.0
 30
0.0
  9
$UCSORGLEFT
 10
0.0
 20
0.0
 30
0.0
  9
$UCSORGRIGHT
 10
0.0
 20
0.0
 30
0.0
  9
$UCSORGFRONT
 10
0.0
 20
0.0
 30
0.0
  9
$UCSORGBACK
 10
0.0
 20
0.0
 30
0.0
  9
$PUCSBASE
  2

  9
$PUCSNAME
  2

  9
$PUCSORG
 10
0.0
 20
0.0
 30
0.0
  9
$PUCSXDIR
 10
1.0
 20
0.0
 30
0.0
  9
$PUCSYDIR
 10
0.0
 20
1.0
 30
0.0
  9
$PUCSORTHOREF
  2

  9
$PUCSORTHOVIEW
 70
0
  9
$PUCSORGTOP
 10
0.0
 20
0.0
 30
0.0
  9
$PUCSORGBOTTOM
 10
0.0
 20
0.0
 30
0.0
  9
$PUCSORGLEFT
 10
0.0
 20
0.0
 30
0.0
  9
$PUCSORGRIGHT
 10
0.0
 20
0.0
 30
0.0
  9
$PUCSORGFRONT
 10
0.0
 20
0.0
 30
0.0
  9
$PUCSORGBACK
 10
0.0
 20
0.0
 30
0.0
  9
$USERI1
 70
0
  9
$USERI2
 70
0
  9
$USERI3
 70
0
  9
$USERI4
 70
0
  9
$USERI5
 70
0
  9
$USERR1
 40
0.0
  9
$USERR2
 40
0.0
  9
$USERR3
 40
0.0
  9
$USERR4
 40
0.0
  9
$USERR5
 40
0.0
  9
$WORLDVIEW
 70
1
  9
$SHADEDGE
 70
3
  9
$SHADEDIF
 70
70
  9
$TILEMODE
 70
1
  9
$MAXACTVP
 70
64
  9
$PINSBASE
 10
0.0
 20
0.0
 30
0.0
  9
$PLIMCHECK
 70
0
  9
$PEXTMIN
 10
1e+20
 20
1e+20
 30
1e+20
  9
$PEXTMAX
 10
-1e+20
 20
-1e+20
 30
-1e+20
  9
$PLIMMIN
 10
0.0
 20
0.0
  9
$PLIMMAX
 10
420.0
 20
297.0
  9
$UNITMODE
 70
0
  9
$VISRETAIN
 70
1
  9
$PLINEGEN
 70
0
  9
$PSLTSCALE
 70
1
  9
$TREEDEPTH
 70
3020
  9
$CMLSTYLE
  2
Standard
  9
$CMLJUST
 70
0
  9
$CMLSCALE
 40
20.0
  9
$PROXYGRAPHICS
 70
1
  9
$MEASUREMENT
 70
1
  9
$CELWEIGHT
370
-1
  9
$ENDCAPS
280
0
  9
$JOINSTYLE
280
0
  9
$LWDISPLAY
290
0
  9
$INSUNITS
 70
6
  9
$HYPERLINKBASE
  1

  9
$STYLESHEET
  1

  9
$XEDIT
290
1
  9
$CEPSNTYPE
380
0
  9
$PSTYLEMODE
290
1
  9
$FINGERPRINTGUID
  2
{C1129A9D-7C92-4231-BEB6-B9E0B490DD91}
  9
$VERSIONGUID
  2
{2AA646F7-DEF3-499A-98F9-9899FEF45E1A}
  9
$EXTNAMES
290
1
  9
$PSVPSCALE
 40
0.0
  9
$OLESTARTUP
290
0
  9
$SORTENTS
280
127
  9
$INDEXCTL
280
0
  9
$HIDETEXT
280
1
  9
$XCLIPFRAME
280
1
  9
$HALOGAP
280
0
  9
$OBSCOLOR
 70
257
  9
$OBSLTYPE
280
0
  9
$INTERSECTIONDISPLAY
280
0
  9
$INTERSECTIONCOLOR
 70
257
  9
$DIMASSOC
280
2
  9
$PROJECTNAME
  1

  9
$CAMERADISPLAY
290
0
  9
$LENSLENGTH
 40
50.0
  9
$CAMERAHEIGHT
 40
0.0
  9
$STEPSPERSEC
 40
24.0
  9
$STEPSIZE
 40
100.0
  9
$3DDWFPREC
 40
2.0
  9
$PSOLWIDTH
 40
0.005
  9
$PSOLHEIGHT
 40
0.08
  9
$LOFTANG1
 40
1.570796326795
  9
$LOFTANG2
 40
1.570796326795
  9
$LOFTMAG1
 40
0.0
  9
$LOFTMAG2
 40
0.0
  9
$LOFTPARAM
 70
7
  9
$LOFTNORMALS
280
1
  9
$LATITUDE
 40
37.795
  9
$LONGITUDE
 40
-122.394
  9
$NORTHDIRECTION
 40
0.0
  9
$TIMEZONE
 70
-8000
  9
$LIGHTGLYPHDISPLAY
280
1
  9
$TILEMODELIGHTSYNCH
280
1
  9
$CMATERIAL
347
20
  9
$SOLIDHIST
280
0
  9
$SHOWHIST
280
1
  9
$DWFFRAME
280
2
  9
$DGNFRAME
280
2
  9
$REALWORLDSCALE
290
1
  9
$INTERFERECOLOR
 62
256
  9
$CSHADOW
280
0
  9
$SHADOWPLANELOCATION
 40
0.0
  0
ENDSEC
  0
SECTION
  2
CLASSES
  0
CLASS
  1
ACDBDICTIONARYWDFLT
  2
AcDbDictionaryWithDefault
  3
ObjectDBX Classes
 90
0
 91
0
280
0
281
0
  0
CLASS
  1
SUN
  2
AcDbSun
  3
SCENEOE
 90
1153
 91
0
280
0
281
0
  0
CLASS
  1
VISUALSTYLE
  2
AcDbVisualStyle
  3
ObjectDBX Classes
 90
4095
 91
0
280
0
281
0
  0
CLASS
  1
MATERIAL
  2
AcDbMaterial
  3
ObjectDBX Classes
 90
1153
 91
0
280
0
281
0
  0
CLASS
  1
SCALE
  2
AcDbScale
  3
ObjectDBX Classes
 90
1153
 91
0
280
0
281
0
  0
CLASS
  1
TABLESTYLE
  2
AcDbTableStyle
  3
ObjectDBX Classes
 90
4095
 91
0
280
0
281
0
  0
CLASS
  1
MLEADERSTYLE
  2
AcDbMLeaderStyle
  3
ACDB_MLEADERSTYLE_CLASS
 90
4095
 91
0
280
0
281
0
  0
CLASS
  1
DICTIONARYVAR
  2
AcDbDictionaryVar
  3
ObjectDBX Classes
 90
0
 91
0
280
0
281
0
  0
CLASS
  1
CELLSTYLEMAP
  2
AcDbCellStyleMap
  3
ObjectDBX Classes
 90
1152
 91
0
280
0
281
0
  0
CLASS
  1
MENTALRAYRENDERSETTINGS
  2
AcDbMentalRayRenderSettings
  3
SCENEOE
 90
1024
 91
0
280
0
281
0
  0
CLASS
  1
ACDBDETAILVIEWSTYLE
  2
AcDbDetailViewStyle
  3
ObjectDBX Classes
 90
1025
 91
0
280
0
281
0
  0
CLASS
  1
ACDBSECTIONVIEWSTYLE
  2
AcDbSectionViewStyle
  3
ObjectDBX Classes
 90
1025
 91
0
280
0
281
0
  0
CLASS
  1
RASTERVARIABLES
  2
AcDbRasterVariables
  3
ISM
 90
0
 91
0
280
0
281
0
  0
CLASS
  1
LAYOUT
  2
AcDbLayout
  3
ObjectDBX Classes
 90
0
 91
0
280
0
281
0
  0
CLASS
  1
ACDBPLACEHOLDER
  2
AcDbPlaceHolder
  3
ObjectDBX Classes
 90
0
 91
0
280
0
281
0
  0
ENDSEC
  0
SECTION
  2
TABLES
  0
TABLE
  2
VPORT
  5
8
330
0
100
AcDbSymbolTable
 70
1
  0
VPORT
  5
23
330
8
100
AcDbSymbolTableRecord
100
AcDbViewportTableRecord
  2
*Active
 70
0
 10
0.0
 20
0.0
 11
1.0
 21
1.0
 12
0.0
 22
0.0
 13
0.0
 23
0.0
 14
0.5
 24
0.5
 15
0.5
 25
0.5
 16
0.0
 26
0.0
 36
1.0
 17
0.0
 27
0.0
 37
0.0
 40
1000.0
 41
1.34
 42
50.0
 43
0.0
 44
0.0
 50
0.0
 51
0.0
 71
0
 72
1000
 73
1
 74
3
 75
0
 76
0
 77
0
 78
0
281
0
 65
0
146
0.0
  0
ENDTAB
  0
TABLE
  2
LTYPE
  5
2
330
0
100
AcDbSymbolTable
 70
3
  0
LTYPE
  5
24
330
2
100
AcDbSymbolTableRecord
100
AcDbLinetypeTableRecord
  2
ByBlock
 70
0
  3

 72
65
 73
0
 40
0.0
  0
LTYPE
  5
25
330
2
100
AcDbSymbolTableRecord
100
AcDbLinetypeTableRecord
  2
ByLayer
 70
0
  3

 72
65
 73
0
 40
0.0
  0
LTYPE
  5
26
330
2
100
AcDbSymbolTableRecord
100
AcDbLinetypeTableRecord
  2
Continuous
 70
0
  3

 72
65
 73
0
 40
0.0
  0
ENDTAB
  0
TABLE
  2
LAYER
  5
1
330
0
100
AcDbSymbolTable
 70
5
  0
LAYER
  5
27
330
1
100
AcDbSymbolTableRecord
100
AcDbLayerTableRecord
  2
0
 70
0
 62
7
  6
Continuous
370
-3
390
13
347
21
  0
LAYER
  5
28
330
1
100
AcDbSymbolTableRecord
100
AcDbLayerTableRecord
  2
Defpoints
 70
0
 62
7
  6
Continuous
290
0
370
-3
390
13
347
21
  0
LAYER
  5
2F
330
1
100
AcDbSymbolTableRecord
100
AcDbLayerTableRecord
  2
FILL_WHITE_FFFFFF
 70
0
 62
7
420
16777215
  6
Continuous
370
-3
390
13
347
21
  0
LAYER
  5
32
330
1
100
AcDbSymbolTableRecord
100
AcDbLayerTableRecord
  2
FILL_BLUE_0000FF
 70
0
 62
7
420
255
  6
Continuous
370
-3
390
13
347
21
  0
LAYER
  5
6E
330
1
100
AcDbSymbolTableRecord
100
AcDbLayerTableRecord
  2
STROKE_BLUE_0000FF
 70
0
 62
7
420
255
  6
Continuous
370
-3
390
13
347
21
  0
ENDTAB
  0
TABLE
  2
STYLE
  5
5
330
0
100
AcDbSymbolTable
 70
1
  0
STYLE
  5
29
330
5
100
AcDbSymbolTableRecord
100
AcDbTextStyleTableRecord
  2
Standard
 70
0
 40
0.0
 41
1.0
 50
0.0
 71
0
 42
2.5
  3
txt
  4

  0
ENDTAB
  0
TABLE
  2
VIEW
  5
7
330
0
100
AcDbSymbolTable
 70
0
  0
ENDTAB
  0
TABLE
  2
UCS
  5
6
330
0
100
AcDbSymbolTable
 70
0
  0
ENDTAB
  0
TABLE
  2
APPID
  5
3
330
0
100
AcDbSymbolTable
 70
3
  0
APPID
  5
2A
330
3
100
AcDbSymbolTableRecord
100
AcDbRegAppTableRecord
  2
ACAD
 70
0
  0
APPID
  5
70
330
3
100
AcDbSymbolTableRecord
100
AcDbRegAppTableRecord
  2
HATCHBACKGROUNDCOLOR
 70
0
  0
APPID
  5
71
330
3
100
AcDbSymbolTableRecord
100
AcDbRegAppTableRecord
  2
EZDXF
 70
0
  0
ENDTAB
  0
TABLE
  2
DIMSTYLE
  5
4
330
0
100
AcDbSymbolTable
 70
1
100
AcDbDimStyleTable
  0
DIMSTYLE
105
2B
330
4
100
AcDbSymbolTableRecord
100
AcDbDimStyleTableRecord
  2
Standard
 70
0
 40
1.0
 41
2.5
 42
0.625
 43
3.75
 44
1.25
 45
0.0
 46
0.0
 47
0.0
 48
0.0
 49
2.5
140
2.5
141
2.5
142
0.0
143
0.03937007874
144
1.0
145
0.0
146
1.0
147
0.625
148
0.0
 69
0
 70
0
 71
0
 72
0
 73
0
 74
0
 75
0
 76
0
 77
1
 78
8
 79
3
170
0
171
3
172
1
173
0
174
0
175
0
176
0
177
0
178
0
179
2
271
2
272
2
273
2
274
3
275
0
276
0
277
2
278
44
279
0
280
0
281
0
282
0
283
0
284
8
285
0
286
0
288
0
289
3
290
0
371
-2
372
-2
  0
ENDTAB
  0
TABLE
  2
BLOCK_RECORD
  5
9
330
0
100
AcDbSymbolTable
 70
2
  0
BLOCK_RECORD
  5
17
330
9
100
AcDbSymbolTableRecord
100
AcDbBlockTableRecord
  2
*Model_Space
340
1A
 70
0
280
1
281
0
  0
BLOCK_RECORD
  5
1B
330
9
100
AcDbSymbolTableRecord
100
AcDbBlockTableRecord
  2
*Paper_Space
340
1E
 70
0
280
1
281
0
  0
ENDTAB
  0
ENDSEC
  0
SECTION
  2
BLOCKS
  0
BLOCK
  5
18
330
17
100
AcDbEntity
  8
0
100
AcDbBlockBegin
  2
*Model_Space
 70
0
 10
0.0
 20
0.0
 30
0.0
  3
*Model_Space
  1

  0
ENDBLK
  5
19
330
17
100
AcDbEntity
  8
0
100
AcDbBlockEnd
  0
BLOCK
  5
1C
330
1B
100
AcDbEntity
  8
0
100
AcDbBlockBegin
  2
*Paper_Space
 70
0
 10
0.0
 20
0.0
 30
0.0
  3
*Paper_Space
  1

  0
ENDBLK
  5
1D
330
1B
100
AcDbEntity
  8
0
100
AcDbBlockEnd
  0
ENDSEC
  0
SECTION
  2
ENTITIES
  0
HATCH
  5
30
330
17
100
AcDbEntity
  8
FILL_WHITE_FFFFFF
 62
7
420
16777215
100
AcDbHatch
 10
0.0
 20
0.0
 30
0.0
210
0.0
220
0.0
230
1.0
  2
SOLID
 70
1
 71
0
 91
1
 92
3
 72
0
 73
1
 93
64
 10
488.32
 20
243.36
 10
490.98
 20
242.83
 10
493.51
 20
241.96
 10
495.9
 20
240.77
 10
498.12
 20
239.26
 10
500.15
 20
237.47
 10
501.96
 20
235.39
 10
503.55
 20
233.04
 10
550.05
 20
152.64
 10
550.66
 20
151.46
 10
551.14
 20
150.17
 10
551.44
 20
148.76
 10
551.55
 20
147.24
 10
551.44
 20
145.89
 10
551.14
 20
144.58
 10
550.66
 20
143.32
 10
550.05
 20
142.14
 10
503.55
 20
61.74
 10
502.83
 20
60.53
 10
502.04
 20
59.38
 10
500.21
 20
57.28
 10
498.11
 20
55.45
 10
496.96
 20
54.66
 10
495.75
 20
53.94
 10
493.23
 20
52.76
 10
490.65
 20
51.92
 10
488.07
 20
51.41
 10
485.55
 20
51.24
 10
36.45
 20
51.24
 10
34.6
 20
51.31
 10
32.7
 20
51.54
 10
30.8
 20
52.0
 10
28.95
 20
52.74
 10
26.98
 20
53.53
 10
25.13
 20
54.54
 10
23.38
 20
55.78
 10
21.75
 20
57.24
 10
20.28
 20
58.87
 10
19.01
 20
60.61
 10
17.91
 20
62.47
 10
16.95
 20
64.44
 10
16.38
 20
66.29
 10
16.01
 20
68.19
 10
15.81
 20
70.09
 10
15.75
 20
71.94
 10
15.75
 20
222.54
 10
15.81
 20
224.52
 10
16.01
 20
226.44
 10
16.38
 20
228.36
 10
16.95
 20
230.34
 10
17.91
 20
232.3
 10
19.01
 20
234.13
 10
20.28
 20
235.78
 10
21.75
 20
237.24
 10
23.38
 20
238.75
 10
25.13
 20
240.09
 10
26.98
 20
241.21
 10
28.95
 20
242.04
 10
30.8
 20
242.65
 10
32.7
 20
243.13
 10
34.6
 20
243.43
 10
36.45
 20
243.54
 10
485.55
 20
243.54
 10
488.32
 20
243.36
 97
0
 75
1
 76
1
 98
0
  0
LWPOLYLINE
  5
31
330
17
100
AcDbEntity
  8
FILL_WHITE_FFFFFF
370
0
420
16777215
100
AcDbPolyline
 90
63
 70
1
 10
488.32
 20
243.36
 10
490.98
 20
242.83
 10
493.51
 20
241.96
 10
495.9
 20
240.77
 10
498.12
 20
239.26
 10
500.15
 20
237.47
 10
501.96
 20
235.39
 10
503.55
 20
233.04
 10
550.05
 20
152.64
 10
550.66
 20
151.46
 10
551.14
 20
150.17
 10
551.44
 20
148.76
 10
551.55
 20
147.24
 10
551.44
 20
145.89
 10
551.14
 20
144.58
 10
550.66
 20
143.32
 10
550.05
 20
142.14
 10
503.55
 20
61.74
 10
502.83
 20
60.53
 10
502.04
 20
59.38
 10
500.21
 20
57.28
 10
498.11
 20
55.45
 10
496.96
 20
54.66
 10
495.75
 20
53.94
 10
493.23
 20
52.76
 10
490.65
 20
51.92
 10
488.07
 20
51.41
 10
485.55
 20
51.24
 10
36.45
 20
51.24
 10
34.6
 20
51.31
 10
32.7
 20
51.54
 10
30.8
 20
52.0
 10
28.95
 20
52.74
 10
26.98
 20
53.53
 10
25.13
 20
54.54
 10
23.38
 20
55.78
 10
21.75
 20
57.24
 10
20.28
 20
58.87
 10
19.01
 20
60.61
 10
17.91
 20
62.47
 10
16.95
 20
64.44
 10
16.38
 20
66.29
 10
16.01
 20
68.19
 10
15.81
 20
70.09
 10
15.75
 20
71.94
 10
15.75
 20
222.54
 10
15.81
 20
224.52
 10
16.01
 20
226.44
 10
16.38
 20
228.36
 10
16.95
 20
230.34
 10
17.91
 20
232.3
 10
19.01
 20
234.13
 10
20.28
 20
235.78
 10
21.75
 20
237.24
 10
23.38
 20
238.75
 10
25.13
 20
240.09
 10
26.98
 20
241.21
 10
28.95
 20
242.04
 10
30.8
 20
242.65
 10
32.7
 20
243.13
 10
34.6
 20
243.43
 10
36.45
 20
243.54
 10
485.55
 20
243.54
  0
HATCH
  5
33
330
17
100
AcDbEntity
  8
FILL_BLUE_0000FF
 62
7
420
255
100
AcDbHatch
 10
0.0
 20
0.0
 30
0.0
210
0.0
220
0.0
230
1.0
  2
SOLID
 70
1
 71
0
 91
1
 92
3
 72
0
 73
1
 93
44
 10
486.9
 20
232.97
 10
488.21
 20
232.74
 10
489.47
 20
232.28
 10
490.65
 20
231.54
 10
491.89
 20
230.81
 10
492.94
 20
229.97
 10
493.81
 20
229.01
 10
494.55
 20
227.94
 10
541.05
 20
147.24
 10
494.55
 20
66.84
 10
493.81
 20
65.72
 10
492.94
 20
64.67
 10
491.89
 20
63.72
 10
490.65
 20
62.94
 10
489.47
 20
62.37
 10
488.21
 20
62.0
 10
486.9
 20
61.8
 10
485.55
 20
61.74
 10
36.45
 20
61.74
 10
34.61
 20
61.81
 10
33.62
 20
61.99
 10
32.55
 20
62.34
 10
30.79
 20
63.32
 10
29.98
 20
63.94
 10
29.25
 20
64.74
 10
27.85
 20
66.41
 10
26.81
 20
68.23
 10
26.17
 20
70.1
 10
26.01
 20
71.03
 10
25.95
 20
71.94
 10
25.95
 20
222.54
 10
26.01
 20
223.49
 10
26.18
 20
224.49
 10
26.46
 20
225.49
 10
26.85
 20
226.44
 10
27.83
 20
228.24
 10
28.45
 20
229.14
 10
29.25
 20
230.04
 10
30.79
 20
231.35
 10
32.55
 20
232.44
 10
34.61
 20
232.85
 10
36.45
 20
233.04
 10
485.55
 20
233.04
 10
486.9
 20
232.97
 97
0
 75
1
 76
1
 98
0
  0
LWPOLYLINE
  5
34
330
17
100
AcDbEntity
  8
FILL_BLUE_0000FF
370
0
420
255
100
AcDbPolyline
 90
43
 70
1
 10
486.9
 20
232.97
 10
488.21
 20
232.74
 10
489.47
 20
232.28
 10
490.65
 20
231.54
 10
491.89
 20
230.81
 10
492.94
 20
229.97
 10
493.81
 20
229.01
 10
494.55
 20
227.94
 10
541.05
 20
147.24
 10
494.55
 20
66.84
 10
493.81
 20
65.72
 10
492.94
 20
64.67
 10
491.89
 20
63.72
 10
490.65
 20
62.94
 10
489.47
 20
62.37
 10
488.21
 20
62.0
 10
486.9
 20
61.8
 10
485.55
 20
61.74
 10
36.45
 20
61.74
 10
34.61
 20
61.81
 10
33.62
 20
61.99
 10
32.55
 20
62.34
 10
30.79
 20
63.32
 10
29.98
 20
63.94
 10
29.25
 20
64.74
 10
27.85
 20
66.41
 10
26.81
 20
68.23
 10
26.17
 20
70.1
 10
26.01
 20
71.03
 10
25.95
 20
71.94
 10
25.95
 20
222.54
 10
26.01
 20
223.49
 10
26.18
 20
224.49
 10
26.46
 20
225.49
 10
26.85
 20
226.44
 10
27.83
 20
228.24
 10
28.45
 20
229.14
 10
29.25
 20
230.04
 10
30.79
 20
231.35
 10
32.55
 20
232.44
 10
34.61
 20
232.85
 10
36.45
 20
233.04
 10
485.55
 20
233.04
  0
HATCH
  5
35
330
17
100
AcDbEntity
  8
FILL_WHITE_FFFFFF
 62
7
420
16777215
100
AcDbHatch
 10
0.0
 20
0.0
 30
0.0
210
0.0
220
0.0
230
1.0
  2
SOLID
 70
1
 71
0
 91
2
 92
3
 72
0
 73
1
 93
63
 10
161.99
 20
193.03
 10
162.38
 20
194.3
 10
162.9
 20
195.56
 10
163.58
 20
196.79
 10
164.42
 20
197.99
 10
165.45
 20
199.14
 10
166.5
 20
200.1
 10
167.63
 20
200.94
 10
168.8
 20
201.66
 10
170.03
 20
202.25
 10
171.27
 20
202.72
 10
172.54
 20
203.06
 10
173.8
 20
203.27
 10
175.05
 20
203.34
 10
176.3
 20
203.27
 10
177.57
 20
203.06
 10
178.84
 20
202.72
 10
180.11
 20
202.25
 10
181.37
 20
201.66
 10
182.6
 20
200.94
 10
183.8
 20
200.1
 10
184.95
 20
199.14
 10
185.89
 20
197.99
 10
186.69
 20
196.79
 10
187.35
 20
195.56
 10
187.88
 20
194.3
 10
188.25
 20
193.03
 10
188.49
 20
191.76
 10
188.59
 20
190.49
 10
188.55
 20
189.24
 10
188.59
 20
187.89
 10
188.49
 20
186.55
 10
188.25
 20
185.22
 10
187.88
 20
183.92
 10
187.35
 20
182.64
 10
186.69
 20
181.39
 10
185.89
 20
180.19
 10
184.95
 20
179.04
 10
183.8
 20
178.08
 10
182.6
 20
177.24
 10
181.37
 20
176.52
 10
180.11
 20
175.93
 10
178.84
 20
175.46
 10
177.57
 20
175.12
 10
176.3
 20
174.91
 10
175.05
 20
174.84
 10
173.8
 20
174.91
 10
172.54
 20
175.12
 10
171.27
 20
175.46
 10
170.03
 20
175.93
 10
168.8
 20
176.52
 10
167.63
 20
177.24
 10
166.5
 20
178.08
 10
165.45
 20
179.04
 10
164.42
 20
180.19
 10
163.58
 20
181.39
 10
162.9
 20
182.64
 10
162.38
 20
183.92
 10
161.99
 20
185.22
 10
161.74
 20
186.55
 10
161.55
 20
189.24
 10
161.74
 20
191.76
 10
161.99
 20
193.03
 97
0
 92
18
 72
0
 73
1
 93
37
 10
172.39
 20
196.96
 10
171.13
 20
196.12
 10
169.95
 20
194.94
 10
169.43
 20
194.34
 10
168.99
 20
193.67
 10
168.34
 20
192.2
 10
167.97
 20
190.68
 10
167.85
 20
189.24
 10
167.97
 20
187.63
 10
168.34
 20
186.02
 10
168.99
 20
184.52
 10
169.43
 20
183.84
 10
169.95
 20
183.24
 10
171.13
 20
182.06
 10
172.39
 20
181.22
 10
173.7
 20
180.71
 10
175.05
 20
180.54
 10
176.4
 20
180.71
 10
177.71
 20
181.22
 10
178.97
 20
182.06
 10
180.15
 20
183.24
 10
180.67
 20
183.84
 10
181.11
 20
184.52
 10
181.76
 20
186.02
 10
182.13
 20
187.63
 10
182.25
 20
189.24
 10
182.13
 20
190.68
 10
181.76
 20
192.2
 10
181.11
 20
193.67
 10
180.67
 20
194.34
 10
180.15
 20
194.94
 10
178.97
 20
196.12
 10
177.71
 20
196.96
 10
176.4
 20
197.47
 10
175.05
 20
197.64
 10
173.7
 20
197.47
 10
172.39
 20
196.96
 97
0
 75
1
 76
1
 98
0
  0
LWPOLYLINE
  5
36
330
17
100
AcDbEntity
  8
FILL_WHITE_FFFFFF
370
0
420
16777215
100
AcDbPolyline
 90
62
 70
1
 10
161.99
 20
193.03
 10
162.38
 20
194.3
 10
162.9
 20
195.56
 10
163.58
 20
196.79
 10
164.42
 20
197.99
 10
165.45
 20
199.14
 10
166.5
 20
200.1
 10
167.63
 20
200.94
 10
168.8
 20
201.66
 10
170.03
 20
202.25
 10
171.27
 20
202.72
 10
172.54
 20
203.06
 10
173.8
 20
203.27
 10
175.05
 20
203.34
 10
176.3
 20
203.27
 10
177.57
 20
203.06
 10
178.84
 20
202.72
 10
180.11
 20
202.25
 10
181.37
 20
201.66
 10
182.6
 20
200.94
 10
183.8
 20
200.1
 10
184.95
 20
199.14
 10
185.89
 20
197.99
 10
186.69
 20
196.79
 10
187.35
 20
195.56
 10
187.88
 20
194.3
 10
188.25
 20
193.03
 10
188.49
 20
191.76
 10
188.59
 20
190.49
 10
188.55
 20
189.24
 10
188.59
 20
187.89
 10
188.49
 20
186.55
 10
188.25
 20
185.22
 10
187.88
 20
183.92
 10
187.35
 20
182.64
 10
186.69
 20
181.39
 10
185.89
 20
180.19
 10
184.95
 20
179.04
 10
183.8
 20
178.08
 10
182.6
 20
177.24
 10
181.37
 20
176.52
 10
180.11
 20
175.93
 10
178.84
 20
175.46
 10
177.57
 20
175.12
 10
176.3
 20
174.91
 10
175.05
 20
174.84
 10
173.8
 20
174.91
 10
172.54
 20
175.12
 10
171.27
 20
175.46
 10
170.03
 20
175.93
 10
168.8
 20
176.52
 10
167.63
 20
177.24
 10
166.5
 20
178.08
 10
165.45
 20
179.04
 10
164.42
 20
180.19
 10
163.58
 20
181.39
 10
162.9
 20
182.64
 10
162.38
 20
183.92
 10
161.99
 20
185.22
 10
161.74
 20
186.55
 10
161.55
 20
189.24
 10
161.74
 20
191.76
  0
LWPOLYLINE
  5
37
330
17
100
AcDbEntity
  8
FILL_WHITE_FFFFFF
370
0
420
16777215
100
AcDbPolyline
 90
36
 70
1
 10
172.39
 20
196.96
 10
171.13
 20
196.12
 10
169.95
 20
194.94
 10
169.43
 20
194.34
 10
168.99
 20
193.67
 10
168.34
 20
192.2
 10
167.97
 20
190.68
 10
167.85
 20
189.24
 10
167.97
 20
187.63
 10
168.34
 20
186.02
 10
168.99
 20
184.52
 10
169.43
 20
183.84
 10
169.95
 20
183.24
 10
171.13
 20
182.06
 10
172.39
 20
181.22
 10
173.7
 20
180.71
 10
175.05
 20
180.54
 10
176.4
 20
180.71
 10
177.71
 20
181.22
 10
178.97
 20
182.06
 10
180.15
 20
183.24
 10
180.67
 20
183.84
 10
181.11
 20
184.52
 10
181.76
 20
186.02
 10
182.13
 20
187.63
 10
182.25
 20
189.24
 10
182.13
 20
190.68
 10
181.76
 20
192.2
 10
181.11
 20
193.67
 10
180.67
 20
194.34
 10
180.15
 20
194.94
 10
178.97
 20
196.12
 10
177.71
 20
196.96
 10
176.4
 20
197.47
 10
175.05
 20
197.64
 10
173.7
 20
197.47
  0
HATCH
  5
38
330
17
100
AcDbEntity
  8
FILL_WHITE_FFFFFF
 62
7
420
16777215
100
AcDbHatch
 10
0.0
 20
0.0
 30
0.0
210
0.0
220
0.0
230
1.0
  2
SOLID
 70
1
 71
0
 91
2
 92
3
 72
0
 73
1
 93
63
 10
194.39
 20
193.03
 10
194.78
 20
194.3
 10
195.3
 20
195.56
 10
195.98
 20
196.79
 10
196.82
 20
197.99
 10
197.85
 20
199.14
 10
198.9
 20
200.1
 10
200.03
 20
200.94
 10
201.2
 20
201.66
 10
202.43
 20
202.25
 10
203.67
 20
202.72
 10
204.94
 20
203.06
 10
206.2
 20
203.27
 10
207.45
 20
203.34
 10
208.7
 20
203.27
 10
209.97
 20
203.06
 10
211.24
 20
202.72
 10
212.51
 20
202.25
 10
213.77
 20
201.66
 10
215.0
 20
200.94
 10
216.2
 20
200.1
 10
217.35
 20
199.14
 10
218.29
 20
197.99
 10
219.09
 20
196.79
 10
219.75
 20
195.56
 10
220.28
 20
194.3
 10
220.65
 20
193.03
 10
220.89
 20
191.76
 10
220.99
 20
190.49
 10
220.95
 20
189.24
 10
220.99
 20
187.89
 10
220.89
 20
186.55
 10
220.65
 20
185.22
 10
220.28
 20
183.92
 10
219.75
 20
182.64
 10
219.09
 20
181.39
 10
218.29
 20
180.19
 10
217.35
 20
179.04
 10
216.2
 20
178.08
 10
215.0
 20
177.24
 10
213.77
 20
176.52
 10
212.51
 20
175.93
 10
211.24
 20
175.46
 10
209.97
 20
175.12
 10
208.7
 20
174.91
 10
207.45
 20
174.84
 10
206.2
 20
174.91
 10
204.94
 20
175.12
 10
203.67
 20
175.46
 10
202.43
 20
175.93
 10
201.2
 20
176.52
 10
200.03
 20
177.24
 10
198.9
 20
178.08
 10
197.85
 20
179.04
 10
196.82
 20
180.19
 10
195.98
 20
181.39
 10
195.3
 20
182.64
 10
194.78
 20
183.92
 10
194.39
 20
185.22
 10
194.14
 20
186.55
 10
193.95
 20
189.24
 10
194.14
 20
191.76
 10
194.39
 20
193.03
 97
0
 92
18
 72
0
 73
1
 93
37
 10
204.79
 20
196.96
 10
203.53
 20
196.12
 10
202.35
 20
194.94
 10
201.83
 20
194.34
 10
201.39
 20
193.67
 10
200.74
 20
192.2
 10
200.37
 20
190.68
 10
200.25
 20
189.24
 10
200.37
 20
187.63
 10
200.74
 20
186.02
 10
201.39
 20
184.52
 10
201.83
 20
183.84
 10
202.35
 20
183.24
 10
203.53
 20
182.06
 10
204.79
 20
181.22
 10
206.1
 20
180.71
 10
207.45
 20
180.54
 10
208.8
 20
180.71
 10
210.11
 20
181.22
 10
211.37
 20
182.06
 10
212.55
 20
183.24
 10
213.07
 20
183.84
 10
213.51
 20
184.52
 10
214.16
 20
186.02
 10
214.53
 20
187.63
 10
214.65
 20
189.24
 10
214.53
 20
190.68
 10
214.16
 20
192.2
 10
213.51
 20
193.67
 10
213.07
 20
194.34
 10
212.55
 20
194.94
 10
211.37
 20
196.12
 10
210.11
 20
196.96
 10
208.8
 20
197.47
 10
207.45
 20
197.64
 10
206.1
 20
197.47
 10
204.79
 20
196.96
 97
0
 75
1
 76
1
 98
0
  0
LWPOLYLINE
  5
39
330
17
100
AcDbEntity
  8
FILL_WHITE_FFFFFF
370
0
420
16777215
100
AcDbPolyline
 90
62
 70
1
 10
194.39
 20
193.03
 10
194.78
 20
194.3
 10
195.3
 20
195.56
 10
195.98
 20
196.79
 10
196.82
 20
197.99
 10
197.85
 20
199.14
 10
198.9
 20
200.1
 10
200.03
 20
200.94
 10
201.2
 20
201.66
 10
202.43
 20
202.25
 10
203.67
 20
202.72
 10
204.94
 20
203.06
 10
206.2
 20
203.27
 10
207.45
 20
203.34
 10
208.7
 20
203.27
 10
209.97
 20
203.06
 10
211.24
 20
202.72
 10
212.51
 20
202.25
 10
213.77
 20
201.66
 10
215.0
 20
200.94
 10
216.2
 20
200.1
 10
217.35
 20
199.14
 10
218.29
 20
197.99
 10
219.09
 20
196.79
 10
219.75
 20
195.56
 10
220.28
 20
194.3
 10
220.65
 20
193.03
 10
220.89
 20
191.76
 10
220.99
 20
190.49
 10
220.95
 20
189.24
 10
220.99
 20
187.89
 10
220.89
 20
186.55
 10
220.65
 20
185.22
 10
220.28
 20
183.92
 10
219.75
 20
182.64
 10
219.09
 20
181.39
 10
218.29
 20
180.19
 10
217.35
 20
179.04
 10
216.2
 20
178.08
 10
215.0
 20
177.24
 10
213.77
 20
176.52
 10
212.51
 20
175.93
 10
211.24
 20
175.46
 10
209.97
 20
175.12
 10
208.7
 20
174.91
 10
207.45
 20
174.84
 10
206.2
 20
174.91
 10
204.94
 20
175.12
 10
203.67
 20
175.46
 10
202.43
 20
175.93
 10
201.2
 20
176.52
 10
200.03
 20
177.24
 10
198.9
 20
178.08
 10
197.85
 20
179.04
 10
196.82
 20
180.19
 10
195.98
 20
181.39
 10
195.3
 20
182.64
 10
194.78
 20
183.92
 10
194.39
 20
185.22
 10
194.14
 20
186.55
 10
193.95
 20
189.24
 10
194.14
 20
191.76
  0
LWPOLYLINE
  5
3A
330
17
100
AcDbEntity
  8
FILL_WHITE_FFFFFF
370
0
420
16777215
100
AcDbPolyline
 90
36
 70
1
 10
204.79
 20
196.96
 10
203.53
 20
196.12
 10
202.35
 20
194.94
 10
201.83
 20
194.34
 10
201.39
 20
193.67
 10
200.74
 20
192.2
 10
200.37
 20
190.68
 10
200.25
 20
189.24
 10
200.37
 20
187.63
 10
200.74
 20
186.02
 10
201.39
 20
184.52
 10
201.83
 20
183.84
 10
202.35
 20
183.24
 10
203.53
 20
182.06
 10
204.79
 20
181.22
 10
206.1
 20
180.71
 10
207.45
 20
180.54
 10
208.8
 20
180.71
 10
210.11
 20
181.22
 10
211.37
 20
182.06
 10
212.55
 20
183.24
 10
213.07
 20
183.84
 10
213.51
 20
184.52
 10
214.16
 20
186.02
 10
214.53
 20
187.63
 10
214.65
 20
189.24
 10
214.53
 20
190.68
 10
214.16
 20
192.2
 10
213.51
 20
193.67
 10
213.07
 20
194.34
 10
212.55
 20
194.94
 10
211.37
 20
196.12
 10
210.11
 20
196.96
 10
208.8
 20
197.47
 10
207.45
 20
197.64
 10
206.1
 20
197.47
  0
HATCH
  5
3B
330
17
100
AcDbEntity
  8
FILL_WHITE_FFFFFF
 62
7
420
16777215
100
AcDbHatch
 10
0.0
 20
0.0
 30
0.0
210
0.0
220
0.0
230
1.0
  2
SOLID
 70
1
 71
0
 91
1
 92
3
 72
0
 73
1
 93
33
 10
237.86
 20
181.13
 10
238.16
 20
180.65
 10
238.64
 20
180.35
 10
239.25
 20
180.24
 10
241.65
 20
180.24
 10
244.05
 20
180.54
 10
244.95
 20
175.44
 10
242.55
 20
175.03
 10
240.15
 20
174.84
 10
238.98
 20
174.9
 10
237.79
 20
175.06
 10
236.65
 20
175.35
 10
235.65
 20
175.74
 10
234.63
 20
176.19
 10
233.81
 20
176.68
 10
233.16
 20
177.22
 10
232.65
 20
177.84
 10
232.08
 20
178.52
 10
231.71
 20
179.23
 10
231.51
 20
179.99
 10
231.45
 20
180.84
 10
231.45
 20
197.64
 10
226.35
 20
197.64
 10
226.35
 20
202.74
 10
231.45
 20
202.74
 10
231.45
 20
211.74
 10
237.75
 20
213.84
 10
237.75
 20
202.74
 10
244.95
 20
202.74
 10
244.95
 20
197.64
 10
237.75
 20
197.64
 10
237.75
 20
181.74
 10
237.86
 20
181.13
 97
0
 75
1
 76
1
 98
0
  0
LWPOLYLINE
  5
3C
330
17
100
AcDbEntity
  8
FILL_WHITE_FFFFFF
370
0
420
16777215
100
AcDbPolyline
 90
32
 70
1
 10
237.86
 20
181.13
 10
238.16
 20
180.65
 10
238.64
 20
180.35
 10
239.25
 20
180.24
 10
241.65
 20
180.24
 10
244.05
 20
180.54
 10
244.95
 20
175.44
 10
242.55
 20
175.03
 10
240.15
 20
174.84
 10
238.98
 20
174.9
 10
237.79
 20
175.06
 10
236.65
 20
175.35
 10
235.65
 20
175.74
 10
234.63
 20
176.19
 10
233.81
 20
176.68
 10
233.16
 20
177.22
 10
232.65
 20
177.84
 10
232.08
 20
178.52
 10
231.71
 20
179.23
 10
231.51
 20
179.99
 10
231.45
 20
180.84
 10
231.45
 20
197.64
 10
226.35
 20
197.64
 10
226.35
 20
202.74
 10
231.45
 20
202.74
 10
231.45
 20
211.74
 10
237.75
 20
213.84
 10
237.75
 20
202.74
 10
244.95
 20
202.74
 10
244.95
 20
197.64
 10
237.75
 20
197.64
 10
237.75
 20
181.74
  0
HATCH
  5
3D
330
17
100
AcDbEntity
  8
FILL_WHITE_FFFFFF
 62
7
420
16777215
100
AcDbHatch
 10
0.0
 20
0.0
 30
0.0
210
0.0
220
0.0
230
1.0
  2
SOLID
 70
1
 71
0
 91
2
 92
3
 72
0
 73
1
 93
47
 10
260.36
 20
202.67
 10
261.86
 20
203.06
 10
263.55
 20
203.34
 10
265.13
 20
203.22
 10
266.7
 20
202.85
 10
268.28
 20
202.2
 10
269.85
 20
201.24
 10
271.32
 20
200.18
 10
272.59
 20
198.84
 10
273.69
 20
197.27
 10
274.65
 20
195.54
 10
275.22
 20
193.92
 10
275.59
 20
192.24
 10
275.79
 20
190.56
 10
275.85
 20
188.94
 10
275.79
 20
187.36
 10
275.59
 20
185.75
 10
275.22
 20
184.09
 10
274.65
 20
182.34
 10
273.69
 20
180.77
 10
272.59
 20
179.27
 10
271.32
 20
177.87
 10
269.85
 20
176.64
 10
268.4
 20
175.68
 10
266.81
 20
175.03
 10
265.17
 20
174.66
 10
263.55
 20
174.54
 10
261.98
 20
174.82
 10
260.48
 20
175.21
 10
259.08
 20
175.72
 10
257.85
 20
176.34
 10
257.85
 20
176.64
 10
257.25
 20
176.64
 10
256.99
 20
176.34
 10
256.95
 20
176.04
 10
256.95
 20
175.44
 10
250.95
 20
175.44
 10
250.95
 20
213.84
 10
256.95
 20
213.84
 10
256.95
 20
201.84
 10
256.99
 20
201.58
 10
257.25
 20
201.54
 10
257.4
 20
201.28
 10
257.55
 20
201.24
 10
257.85
 20
201.54
 10
259.04
 20
202.16
 10
260.36
 20
202.67
 97
0
 92
18
 72
0
 73
1
 93
38
 10
265.65
 20
180.5
 10
266.43
 20
180.87
 10
267.15
 20
181.44
 10
268.17
 20
182.27
 10
268.99
 20
183.35
 10
269.64
 20
184.6
 10
270.15
 20
185.94
 10
270.31
 20
187.74
 10
270.3
 20
189.54
 10
270.07
 20
191.34
 10
269.55
 20
193.14
 10
268.94
 20
194.43
 10
268.05
 20
195.58
 10
266.93
 20
196.56
 10
265.65
 20
197.34
 10
264.47
 20
197.68
 10
263.21
 20
197.79
 10
261.9
 20
197.68
 10
260.55
 20
197.34
 10
259.49
 20
196.78
 10
258.56
 20
196.03
 10
257.81
 20
195.1
 10
257.25
 20
194.04
 10
256.99
 20
192.65
 10
256.95
 20
191.04
 10
256.95
 20
186.84
 10
256.95
 20
185.34
 10
257.25
 20
183.84
 10
257.76
 20
182.95
 10
258.38
 20
182.11
 10
259.11
 20
181.39
 10
259.95
 20
180.84
 10
260.9
 20
180.45
 10
261.94
 20
180.2
 10
263.03
 20
180.12
 10
264.15
 20
180.24
 10
264.87
 20
180.3
 10
265.65
 20
180.5
 97
0
 75
1
 76
1
 98
0
  0
LWPOLYLINE
  5
3E
330
17
100
AcDbEntity
  8
FILL_WHITE_FFFFFF
370
0
420
16777215
100
AcDbPolyline
 90
46
 70
1
 10
260.36
 20
202.67
 10
261.86
 20
203.06
 10
263.55
 20
203.34
 10
265.13
 20
203.22
 10
266.7
 20
202.85
 10
268.28
 20
202.2
 10
269.85
 20
201.24
 10
271.32
 20
200.18
 10
272.59
 20
198.84
 10
273.69
 20
197.27
 10
274.65
 20
195.54
 10
275.22
 20
193.92
 10
275.59
 20
192.24
 10
275.79
 20
190.56
 10
275.85
 20
188.94
 10
275.79
 20
187.36
 10
275.59
 20
185.75
 10
275.22
 20
184.09
 10
274.65
 20
182.34
 10
273.69
 20
180.77
 10
272.59
 20
179.27
 10
271.32
 20
177.87
 10
269.85
 20
176.64
 10
268.4
 20
175.68
 10
266.81
 20
175.03
 10
265.17
 20
174.66
 10
263.55
 20
174.54
 10
261.98
 20
174.82
 10
260.48
 20
175.21
 10
259.08
 20
175.72
 10
257.85
 20
176.34
 10
257.85
 20
176.64
 10
257.25
 20
176.64
 10
256.99
 20
176.34
 10
256.95
 20
176.04
 10
256.95
 20
175.44
 10
250.95
 20
175.44
 10
250.95
 20
213.84
 10
256.95
 20
213.84
 10
256.95
 20
201.84
 10
256.99
 20
201.58
 10
257.25
 20
201.54
 10
257.4
 20
201.28
 10
257.55
 20
201.24
 10
257.85
 20
201.54
 10
259.04
 20
202.16
  0
LWPOLYLINE
  5
3F
330
17
100
AcDbEntity
  8
FILL_WHITE_FFFFFF
370
0
420
16777215
100
AcDbPolyline
 90
37
 70
1
 10
265.65
 20
180.5
 10
266.43
 20
180.87
 10
267.15
 20
181.44
 10
268.17
 20
182.27
 10
268.99
 20
183.35
 10
269.64
 20
184.6
 10
270.15
 20
185.94
 10
270.31
 20
187.74
 10
270.3
 20
189.54
 10
270.07
 20
191.34
 10
269.55
 20
193.14
 10
268.94
 20
194.43
 10
268.05
 20
195.58
 10
266.93
 20
196.56
 10
265.65
 20
197.34
 10
264.47
 20
197.68
 10
263.21
 20
197.79
 10
261.9
 20
197.68
 10
260.55
 20
197.34
 10
259.49
 20
196.78
 10
258.56
 20
196.03
 10
257.81
 20
195.1
 10
257.25
 20
194.04
 10
256.99
 20
192.65
 10
256.95
 20
191.04
 10
256.95
 20
186.84
 10
256.95
 20
185.34
 10
257.25
 20
183.84
 10
257.76
 20
182.95
 10
258.38
 20
182.11
 10
259.11
 20
181.39
 10
259.95
 20
180.84
 10
260.9
 20
180.45
 10
261.94
 20
180.2
 10
263.03
 20
180.12
 10
264.15
 20
180.24
 10
264.87
 20
180.3
  0
HATCH
  5
40
330
17
100
AcDbEntity
  8
FILL_WHITE_FFFFFF
 62
7
420
16777215
100
AcDbHatch
 10
0.0
 20
0.0
 30
0.0
210
0.0
220
0.0
230
1.0
  2
SOLID
 70
1
 71
0
 91
1
 92
3
 72
0
 73
1
 93
26
 10
290.56
 20
201.18
 10
291.53
 20
201.92
 10
292.6
 20
202.53
 10
293.85
 20
203.04
 10
295.02
 20
203.38
 10
296.25
 20
203.53
 10
297.48
 20
203.5
 10
298.65
 20
203.34
 10
298.65
 20
197.34
 10
296.86
 20
197.23
 10
295.13
 20
196.89
 10
293.5
 20
196.33
 10
292.05
 20
195.54
 10
291.6
 20
195.26
 10
291.19
 20
194.87
 10
290.83
 20
194.36
 10
290.55
 20
193.74
 10
290.16
 20
193.24
 10
289.88
 20
192.69
 10
289.65
 20
191.64
 10
289.65
 20
175.44
 10
283.65
 20
175.44
 10
283.65
 20
202.74
 10
289.65
 20
202.74
 10
289.65
 20
200.34
 10
290.56
 20
201.18
 97
0
 75
1
 76
1
 98
0
  0
LWPOLYLINE
  5
41
330
17
100
AcDbEntity
  8
FILL_WHITE_FFFFFF
370
0
420
16777215
100
AcDbPolyline
 90
25
 70
1
 10
290.56
 20
201.18
 10
291.53
 20
201.92
 10
292.6
 20
202.53
 10
293.85
 20
203.04
 10
295.02
 20
203.38
 10
296.25
 20
203.53
 10
297.48
 20
203.5
 10
298.65
 20
203.34
 10
298.65
 20
197.34
 10
296.86
 20
197.23
 10
295.13
 20
196.89
 10
293.5
 20
196.33
 10
292.05
 20
195.54
 10
291.6
 20
195.26
 10
291.19
 20
194.87
 10
290.83
 20
194.36
 10
290.55
 20
193.74
 10
290.16
 20
193.24
 10
289.88
 20
192.69
 10
289.65
 20
191.64
 10
289.65
 20
175.44
 10
283.65
 20
175.44
 10
283.65
 20
202.74
 10
289.65
 20
202.74
 10
289.65
 20
200.34
  0
HATCH
  5
42
330
17
100
AcDbEntity
  8
FILL_WHITE_FFFFFF
 62
7
420
16777215
100
AcDbHatch
 10
0.0
 20
0.0
 30
0.0
210
0.0
220
0.0
230
1.0
  2
SOLID
 70
1
 71
0
 91
1
 92
3
 72
0
 73
1
 93
5
 10
303.45
 20
175.44
 10
303.45
 20
202.74
 10
309.45
 20
202.74
 10
309.45
 20
175.44
 10
303.45
 20
175.44
 97
0
 75
1
 76
1
 98
0
  0
LWPOLYLINE
  5
43
330
17
100
AcDbEntity
  8
FILL_WHITE_FFFFFF
370
0
420
16777215
100
AcDbPolyline
 90
4
 70
1
 10
303.45
 20
175.44
 10
303.45
 20
202.74
 10
309.45
 20
202.74
 10
309.45
 20
175.44
  0
HATCH
  5
44
330
17
100
AcDbEntity
  8
FILL_WHITE_FFFFFF
 62
7
420
16777215
100
AcDbHatch
 10
0.0
 20
0.0
 30
0.0
210
0.0
220
0.0
230
1.0
  2
SOLID
 70
1
 71
0
 91
1
 92
3
 72
0
 73
1
 93
33
 10
309.98
 20
210.08
 10
309.78
 20
209.39
 10
309.46
 20
208.78
 10
309.04
 20
208.25
 10
308.51
 20
207.83
 10
307.9
 20
207.51
 10
307.21
 20
207.31
 10
306.45
 20
207.24
 10
305.69
 20
207.31
 10
305.0
 20
207.51
 10
304.39
 20
207.83
 10
303.86
 20
208.25
 10
303.44
 20
208.78
 10
303.12
 20
209.39
 10
302.92
 20
210.08
 10
302.85
 20
210.84
 10
302.92
 20
211.51
 10
303.12
 20
212.16
 10
303.44
 20
212.77
 10
303.86
 20
213.32
 10
304.39
 20
213.78
 10
305.0
 20
214.13
 10
305.69
 20
214.36
 10
306.45
 20
214.44
 10
307.21
 20
214.36
 10
307.9
 20
214.13
 10
308.51
 20
213.78
 10
309.04
 20
213.32
 10
309.46
 20
212.77
 10
309.78
 20
212.16
 10
309.98
 20
211.51
 10
310.05
 20
210.84
 10
309.98
 20
210.08
 97
0
 75
1
 76
1
 98
0
  0
LWPOLYLINE
  5
45
330
17
100
AcDbEntity
  8
FILL_WHITE_FFFFFF
370
0
420
16777215
100
AcDbPolyline
 90
32
 70
1
 10
309.98
 20
210.08
 10
309.78
 20
209.39
 10
309.46
 20
208.78
 10
309.04
 20
208.25
 10
308.51
 20
207.83
 10
307.9
 20
207.51
 10
307.21
 20
207.31
 10
306.45
 20
207.24
 10
305.69
 20
207.31
 10
305.0
 20
207.51
 10
304.39
 20
207.83
 10
303.86
 20
208.25
 10
303.44
 20
208.78
 10
303.12
 20
209.39
 10
302.92
 20
210.08
 10
302.85
 20
210.84
 10
302.92
 20
211.51
 10
303.12
 20
212.16
 10
303.44
 20
212.77
 10
303.86
 20
213.32
 10
304.39
 20
213.78
 10
305.0
 20
214.13
 10
305.69
 20
214.36
 10
306.45
 20
214.44
 10
307.21
 20
214.36
 10
307.9
 20
214.13
 10
308.51
 20
213.78
 10
309.04
 20
213.32
 10
309.46
 20
212.77
 10
309.78
 20
212.16
 10
309.98
 20
211.51
 10
310.05
 20
210.84
  0
HATCH
  5
46
330
17
100
AcDbEntity
  8
FILL_WHITE_FFFFFF
 62
7
420
16777215
100
AcDbHatch
 10
0.0
 20
0.0
 30
0.0
210
0.0
220
0.0
230
1.0
  2
SOLID
 70
1
 71
0
 91
2
 92
3
 72
0
 73
1
 93
51
 10
333.26
 20
175.55
 10
332.17
 20
175.25
 10
331.05
 20
175.14
 10
330.15
 20
174.88
 10
329.25
 20
174.84
 10
327.49
 20
174.91
 10
326.68
 20
175.09
 10
325.95
 20
175.44
 10
324.64
 20
175.96
 10
323.42
 20
176.61
 10
322.3
 20
177.38
 10
321.26
 20
178.25
 10
320.33
 20
179.23
 10
319.5
 20
180.29
 10
318.77
 20
181.43
 10
318.15
 20
182.64
 10
317.57
 20
184.34
 10
317.18
 20
186.06
 10
316.98
 20
187.8
 10
316.95
 20
189.54
 10
317.09
 20
191.28
 10
317.39
 20
193.02
 10
317.85
 20
194.74
 10
318.45
 20
196.44
 10
319.35
 20
197.94
 10
320.7
 20
199.71
 10
321.53
 20
200.55
 10
322.46
 20
201.32
 10
323.5
 20
202.0
 10
324.62
 20
202.58
 10
325.84
 20
203.03
 10
327.15
 20
203.34
 10
328.48
 20
203.48
 10
329.78
 20
203.47
 10
331.04
 20
203.32
 10
332.25
 20
203.04
 10
333.4
 20
202.65
 10
334.49
 20
202.16
 10
335.51
 20
201.58
 10
336.45
 20
200.94
 10
336.45
 20
213.84
 10
342.45
 20
213.84
 10
342.45
 20
175.44
 10
336.45
 20
175.44
 10
336.45
 20
176.64
 10
336.45
 20
176.94
 10
336.15
 20
177.17
 10
335.85
 20
176.94
 10
335.25
 20
176.64
 10
334.3
 20
176.03
 10
333.26
 20
175.55
 97
0
 92
18
 72
0
 73
1
 93
43
 10
334.05
 20
181.59
 10
335.06
 20
182.48
 10
335.85
 20
183.54
 10
336.26
 20
185.04
 10
336.45
 20
186.54
 10
336.45
 20
191.94
 10
336.38
 20
192.89
 10
336.15
 20
193.89
 10
335.69
 20
194.89
 10
334.95
 20
195.84
 10
334.22
 20
196.63
 10
333.41
 20
197.23
 10
332.55
 20
197.65
 10
331.65
 20
197.94
 10
331.05
 20
197.94
 10
329.88
 20
198.05
 10
328.69
 20
197.94
 10
327.55
 20
197.6
 10
326.55
 20
197.04
 10
325.93
 20
196.54
 10
325.39
 20
195.95
 10
324.45
 20
194.64
 10
323.86
 20
193.38
 10
323.44
 20
192.07
 10
323.18
 20
190.74
 10
323.1
 20
189.39
 10
323.18
 20
188.04
 10
323.44
 20
186.71
 10
323.86
 20
185.4
 10
324.45
 20
184.14
 10
324.73
 20
183.47
 10
325.13
 20
182.83
 10
325.63
 20
182.24
 10
326.25
 20
181.74
 10
326.75
 20
181.34
 10
327.34
 20
181.03
 10
328.65
 20
180.54
 10
329.33
 20
180.37
 10
330.0
 20
180.32
 10
330.68
 20
180.37
 10
331.35
 20
180.54
 10
332.81
 20
180.92
 10
334.05
 20
181.59
 97
0
 75
1
 76
1
 98
0
  0
LWPOLYLINE
  5
47
330
17
100
AcDbEntity
  8
FILL_WHITE_FFFFFF
370
0
420
16777215
100
AcDbPolyline
 90
50
 70
1
 10
333.26
 20
175.55
 10
332.17
 20
175.25
 10
331.05
 20
175.14
 10
330.15
 20
174.88
 10
329.25
 20
174.84
 10
327.49
 20
174.91
 10
326.68
 20
175.09
 10
325.95
 20
175.44
 10
324.64
 20
175.96
 10
323.42
 20
176.61
 10
322.3
 20
177.38
 10
321.26
 20
178.25
 10
320.33
 20
179.23
 10
319.5
 20
180.29
 10
318.77
 20
181.43
 10
318.15
 20
182.64
 10
317.57
 20
184.34
 10
317.18
 20
186.06
 10
316.98
 20
187.8
 10
316.95
 20
189.54
 10
317.09
 20
191.28
 10
317.39
 20
193.02
 10
317.85
 20
194.74
 10
318.45
 20
196.44
 10
319.35
 20
197.94
 10
320.7
 20
199.71
 10
321.53
 20
200.55
 10
322.46
 20
201.32
 10
323.5
 20
202.0
 10
324.62
 20
202.58
 10
325.84
 20
203.03
 10
327.15
 20
203.34
 10
328.48
 20
203.48
 10
329.78
 20
203.47
 10
331.04
 20
203.32
 10
332.25
 20
203.04
 10
333.4
 20
202.65
 10
334.49
 20
202.16
 10
335.51
 20
201.58
 10
336.45
 20
200.94
 10
336.45
 20
213.84
 10
342.45
 20
213.84
 10
342.45
 20
175.44
 10
336.45
 20
175.44
 10
336.45
 20
176.64
 10
336.45
 20
176.94
 10
336.15
 20
177.17
 10
335.85
 20
176.94
 10
335.25
 20
176.64
 10
334.3
 20
176.03
  0
LWPOLYLINE
  5
48
330
17
100
AcDbEntity
  8
FILL_WHITE_FFFFFF
370
0
420
16777215
100
AcDbPolyline
 90
42
 70
1
 10
334.05
 20
181.59
 10
335.06
 20
182.48
 10
335.85
 20
183.54
 10
336.26
 20
185.04
 10
336.45
 20
186.54
 10
336.45
 20
191.94
 10
336.38
 20
192.89
 10
336.15
 20
193.89
 10
335.69
 20
194.89
 10
334.95
 20
195.84
 10
334.22
 20
196.63
 10
333.41
 20
197.23
 10
332.55
 20
197.65
 10
331.65
 20
197.94
 10
331.05
 20
197.94
 10
329.88
 20
198.05
 10
328.69
 20
197.94
 10
327.55
 20
197.6
 10
326.55
 20
197.04
 10
325.93
 20
196.54
 10
325.39
 20
195.95
 10
324.45
 20
194.64
 10
323.86
 20
193.38
 10
323.44
 20
192.07
 10
323.18
 20
190.74
 10
323.1
 20
189.39
 10
323.18
 20
188.04
 10
323.44
 20
186.71
 10
323.86
 20
185.4
 10
324.45
 20
184.14
 10
324.73
 20
183.47
 10
325.13
 20
182.83
 10
325.63
 20
182.24
 10
326.25
 20
181.74
 10
326.75
 20
181.34
 10
327.34
 20
181.03
 10
328.65
 20
180.54
 10
329.33
 20
180.37
 10
330.0
 20
180.32
 10
330.68
 20
180.37
 10
331.35
 20
180.54
 10
332.81
 20
180.92
  0
HATCH
  5
49
330
17
100
AcDbEntity
  8
FILL_WHITE_FFFFFF
 62
7
420
16777215
100
AcDbHatch
 10
0.0
 20
0.0
 30
0.0
210
0.0
220
0.0
230
1.0
  2
SOLID
 70
1
 71
0
 91
2
 92
3
 72
0
 73
1
 93
70
 10
373.65
 20
174.24
 10
373.65
 20
173.64
 10
373.65
 20
173.04
 10
373.08
 20
171.7
 10
372.26
 20
170.42
 10
371.16
 20
169.24
 10
369.75
 20
168.24
 10
368.08
 20
167.41
 10
366.26
 20
166.74
 10
364.39
 20
166.3
 10
362.55
 20
166.14
 10
361.2
 20
166.02
 10
359.81
 20
166.07
 10
356.85
 20
166.44
 10
353.85
 20
167.38
 10
350.85
 20
168.54
 10
352.65
 20
173.64
 10
354.75
 20
172.78
 10
356.85
 20
172.14
 10
358.02
 20
171.79
 10
359.21
 20
171.61
 10
361.35
 20
171.54
 10
362.42
 20
171.6
 10
363.38
 20
171.76
 10
364.23
 20
172.01
 10
364.99
 20
172.37
 10
365.64
 20
172.8
 10
366.2
 20
173.31
 10
366.67
 20
173.89
 10
367.05
 20
174.54
 10
367.09
 20
174.73
 10
367.35
 20
175.14
 10
367.35
 20
175.74
 10
367.35
 20
178.14
 10
367.35
 20
178.74
 10
366.45
 20
178.44
 10
364.73
 20
177.92
 10
363.3
 20
177.65
 10
361.95
 20
177.54
 10
360.03
 20
177.74
 10
358.06
 20
178.22
 10
356.95
 20
178.62
 10
355.8
 20
179.15
 10
354.65
 20
179.84
 10
353.54
 20
180.69
 10
352.5
 20
181.73
 10
351.57
 20
182.98
 10
350.79
 20
184.46
 10
350.18
 20
186.18
 10
349.79
 20
188.17
 10
349.65
 20
190.44
 10
349.78
 20
192.75
 10
350.17
 20
194.75
 10
350.76
 20
196.47
 10
351.53
 20
197.94
 10
352.43
 20
199.18
 10
353.45
 20
200.23
 10
354.53
 20
201.1
 10
355.65
 20
201.84
 10
358.03
 20
202.71
 10
360.04
 20
203.15
 10
361.95
 20
203.34
 10
363.49
 20
203.27
 10
364.35
 20
203.09
 10
365.25
 20
202.74
 10
366.6
 20
202.1
 10
367.95
 20
201.24
 10
367.95
 20
202.74
 10
373.65
 20
202.74
 10
373.65
 20
174.24
 97
0
 92
18
 72
0
 73
1
 93
41
 10
360.05
 20
197.26
 10
358.95
 20
196.74
 10
357.85
 20
195.88
 10
357.34
 20
195.3
 10
356.89
 20
194.6
 10
356.5
 20
193.78
 10
356.21
 20
192.82
 10
356.02
 20
191.71
 10
355.95
 20
190.44
 10
356.02
 20
189.17
 10
356.21
 20
188.06
 10
356.5
 20
187.1
 10
356.89
 20
186.28
 10
357.34
 20
185.58
 10
357.85
 20
185.0
 10
358.95
 20
184.14
 10
360.05
 20
183.62
 10
361.01
 20
183.35
 10
361.95
 20
183.24
 10
362.89
 20
183.35
 10
363.85
 20
183.62
 10
364.95
 20
184.14
 10
366.05
 20
185.0
 10
366.56
 20
185.58
 10
367.01
 20
186.28
 10
367.4
 20
187.1
 10
367.69
 20
188.06
 10
367.88
 20
189.17
 10
367.95
 20
190.44
 10
367.88
 20
191.71
 10
367.69
 20
192.82
 10
367.4
 20
193.78
 10
367.01
 20
194.6
 10
366.56
 20
195.3
 10
366.05
 20
195.88
 10
364.95
 20
196.74
 10
363.85
 20
197.26
 10
362.89
 20
197.53
 10
361.95
 20
197.64
 10
361.01
 20
197.53
 10
360.05
 20
197.26
 97
0
 75
1
 76
1
 98
0
  0
LWPOLYLINE
  5
4A
330
17
100
AcDbEntity
  8
FILL_WHITE_FFFFFF
370
0
420
16777215
100
AcDbPolyline
 90
69
 70
1
 10
373.65
 20
174.24
 10
373.65
 20
173.64
 10
373.65
 20
173.04
 10
373.08
 20
171.7
 10
372.26
 20
170.42
 10
371.16
 20
169.24
 10
369.75
 20
168.24
 10
368.08
 20
167.41
 10
366.26
 20
166.74
 10
364.39
 20
166.3
 10
362.55
 20
166.14
 10
361.2
 20
166.02
 10
359.81
 20
166.07
 10
356.85
 20
166.44
 10
353.85
 20
167.38
 10
350.85
 20
168.54
 10
352.65
 20
173.64
 10
354.75
 20
172.78
 10
356.85
 20
172.14
 10
358.02
 20
171.79
 10
359.21
 20
171.61
 10
361.35
 20
171.54
 10
362.42
 20
171.6
 10
363.38
 20
171.76
 10
364.23
 20
172.01
 10
364.99
 20
172.37
 10
365.64
 20
172.8
 10
366.2
 20
173.31
 10
366.67
 20
173.89
 10
367.05
 20
174.54
 10
367.09
 20
174.73
 10
367.35
 20
175.14
 10
367.35
 20
175.74
 10
367.35
 20
178.14
 10
367.35
 20
178.74
 10
366.45
 20
178.44
 10
364.73
 20
177.92
 10
363.3
 20
177.65
 10
361.95
 20
177.54
 10
360.03
 20
177.74
 10
358.06
 20
178.22
 10
356.95
 20
178.62
 10
355.8
 20
179.15
 10
354.65
 20
179.84
 10
353.54
 20
180.69
 10
352.5
 20
181.73
 10
351.57
 20
182.98
 10
350.79
 20
184.46
 10
350.18
 20
186.18
 10
349.79
 20
188.17
 10
349.65
 20
190.44
 10
349.78
 20
192.75
 10
350.17
 20
194.75
 10
350.76
 20
196.47
 10
351.53
 20
197.94
 10
352.43
 20
199.18
 10
353.45
 20
200.23
 10
354.53
 20
201.1
 10
355.65
 20
201.84
 10
358.03
 20
202.71
 10
360.04
 20
203.15
 10
361.95
 20
203.34
 10
363.49
 20
203.27
 10
364.35
 20
203.09
 10
365.25
 20
202.74
 10
366.6
 20
202.1
 10
367.95
 20
201.24
 10
367.95
 20
202.74
 10
373.65
 20
202.74
  0
LWPOLYLINE
  5
4B
330
17
100
AcDbEntity
  8
FILL_WHITE_FFFFFF
370
0
420
16777215
100
AcDbPolyline
 90
40
 70
1
 10
360.05
 20
197.26
 10
358.95
 20
196.74
 10
357.85
 20
195.88
 10
357.34
 20
195.3
 10
356.89
 20
194.6
 10
356.5
 20
193.78
 10
356.21
 20
192.82
 10
356.02
 20
191.71
 10
355.95
 20
190.44
 10
356.02
 20
189.17
 10
356.21
 20
188.06
 10
356.5
 20
187.1
 10
356.89
 20
186.28
 10
357.34
 20
185.58
 10
357.85
 20
185.0
 10
358.95
 20
184.14
 10
360.05
 20
183.62
 10
361.01
 20
183.35
 10
361.95
 20
183.24
 10
362.89
 20
183.35
 10
363.85
 20
183.62
 10
364.95
 20
184.14
 10
366.05
 20
185.0
 10
366.56
 20
185.58
 10
367.01
 20
186.28
 10
367.4
 20
187.1
 10
367.69
 20
188.06
 10
367.88
 20
189.17
 10
367.95
 20
190.44
 10
367.88
 20
191.71
 10
367.69
 20
192.82
 10
367.4
 20
193.78
 10
367.01
 20
194.6
 10
366.56
 20
195.3
 10
366.05
 20
195.88
 10
364.95
 20
196.74
 10
363.85
 20
197.26
 10
362.89
 20
197.53
 10
361.95
 20
197.64
 10
361.01
 20
197.53
  0
HATCH
  5
4C
330
17
100
AcDbEntity
  8
FILL_WHITE_FFFFFF
 62
7
420
16777215
100
AcDbHatch
 10
0.0
 20
0.0
 30
0.0
210
0.0
220
0.0
230
1.0
  2
SOLID
 70
1
 71
0
 91
2
 92
3
 72
0
 73
1
 93
66
 10
388.95
 20
175.55
 10
387.6
 20
176.15
 10
386.25
 20
176.94
 10
385.19
 20
177.89
 10
384.26
 20
178.93
 10
383.51
 20
180.02
 10
382.95
 20
181.14
 10
382.34
 20
182.5
 10
381.87
 20
183.89
 10
381.53
 20
185.3
 10
381.3
 20
186.73
 10
381.19
 20
188.17
 10
381.18
 20
189.62
 10
381.45
 20
192.54
 10
381.74
 20
193.87
 10
382.18
 20
195.17
 10
382.74
 20
196.43
 10
383.44
 20
197.64
 10
384.26
 20
198.79
 10
385.2
 20
199.88
 10
386.27
 20
200.9
 10
387.45
 20
201.84
 10
389.06
 20
202.53
 10
390.74
 20
203.01
 10
392.46
 20
203.28
 10
394.2
 20
203.34
 10
395.94
 20
203.17
 10
397.66
 20
202.77
 10
399.34
 20
202.13
 10
400.95
 20
201.24
 10
402.23
 20
199.96
 10
403.35
 20
198.43
 10
404.24
 20
196.73
 10
404.85
 20
194.94
 10
405.41
 20
193.09
 10
405.75
 20
191.15
 10
405.86
 20
189.16
 10
405.75
 20
187.14
 10
387.45
 20
187.14
 10
387.53
 20
185.38
 10
387.7
 20
184.57
 10
388.05
 20
183.84
 10
388.99
 20
182.26
 10
389.53
 20
181.65
 10
390.15
 20
181.14
 10
391.38
 20
180.54
 10
392.78
 20
180.13
 10
394.28
 20
180.0
 10
395.85
 20
180.24
 10
396.97
 20
180.39
 10
398.06
 20
180.8
 10
399.1
 20
181.38
 10
400.05
 20
182.04
 10
401.25
 20
182.64
 10
404.55
 20
178.44
 10
402.98
 20
177.13
 10
402.02
 20
176.54
 10
400.95
 20
176.04
 10
399.81
 20
175.53
 10
398.65
 20
175.14
 10
397.48
 20
174.84
 10
396.3
 20
174.65
 10
393.95
 20
174.56
 10
391.65
 20
174.84
 10
390.3
 20
175.13
 10
388.95
 20
175.55
 97
0
 92
18
 72
0
 73
1
 93
21
 10
399.99
 20
192.42
 10
399.79
 20
193.44
 10
399.42
 20
194.46
 10
398.85
 20
195.54
 10
398.35
 20
196.16
 10
397.76
 20
196.66
 10
397.12
 20
197.06
 10
396.45
 20
197.34
 10
395.06
 20
197.85
 10
393.64
 20
198.02
 10
392.27
 20
197.85
 10
391.05
 20
197.34
 10
390.21
 20
197.01
 10
389.51
 20
196.52
 10
388.98
 20
195.91
 10
388.65
 20
195.24
 10
388.08
 20
194.29
 10
387.68
 20
193.29
 10
387.15
 20
191.34
 10
400.05
 20
191.34
 10
399.99
 20
192.42
 97
0
 75
1
 76
1
 98
0
  0
LWPOLYLINE
  5
4D
330
17
100
AcDbEntity
  8
FILL_WHITE_FFFFFF
370
0
420
16777215
100
AcDbPolyline
 90
65
 70
1
 10
388.95
 20
175.55
 10
387.6
 20
176.15
 10
386.25
 20
176.94
 10
385.19
 20
177.89
 10
384.26
 20
178.93
 10
383.51
 20
180.02
 10
382.95
 20
181.14
 10
382.34
 20
182.5
 10
381.87
 20
183.89
 10
381.53
 20
185.3
 10
381.3
 20
186.73
 10
381.19
 20
188.17
 10
381.18
 20
189.62
 10
381.45
 20
192.54
 10
381.74
 20
193.87
 10
382.18
 20
195.17
 10
382.74
 20
196.43
 10
383.44
 20
197.64
 10
384.26
 20
198.79
 10
385.2
 20
199.88
 10
386.27
 20
200.9
 10
387.45
 20
201.84
 10
389.06
 20
202.53
 10
390.74
 20
203.01
 10
392.46
 20
203.28
 10
394.2
 20
203.34
 10
395.94
 20
203.17
 10
397.66
 20
202.77
 10
399.34
 20
202.13
 10
400.95
 20
201.24
 10
402.23
 20
199.96
 10
403.35
 20
198.43
 10
404.24
 20
196.73
 10
404.85
 20
194.94
 10
405.41
 20
193.09
 10
405.75
 20
191.15
 10
405.86
 20
189.16
 10
405.75
 20
187.14
 10
387.45
 20
187.14
 10
387.53
 20
185.38
 10
387.7
 20
184.57
 10
388.05
 20
183.84
 10
388.99
 20
182.26
 10
389.53
 20
181.65
 10
390.15
 20
181.14
 10
391.38
 20
180.54
 10
392.78
 20
180.13
 10
394.28
 20
180.0
 10
395.85
 20
180.24
 10
396.97
 20
180.39
 10
398.06
 20
180.8
 10
399.1
 20
181.38
 10
400.05
 20
182.04
 10
401.25
 20
182.64
 10
404.55
 20
178.44
 10
402.98
 20
177.13
 10
402.02
 20
176.54
 10
400.95
 20
176.04
 10
399.81
 20
175.53
 10
398.65
 20
175.14
 10
397.48
 20
174.84
 10
396.3
 20
174.65
 10
393.95
 20
174.56
 10
391.65
 20
174.84
 10
390.3
 20
175.13
  0
LWPOLYLINE
  5
4E
330
17
100
AcDbEntity
  8
FILL_WHITE_FFFFFF
370
0
420
16777215
100
AcDbPolyline
 90
20
 70
1
 10
399.99
 20
192.42
 10
399.79
 20
193.44
 10
399.42
 20
194.46
 10
398.85
 20
195.54
 10
398.35
 20
196.16
 10
397.76
 20
196.66
 10
397.12
 20
197.06
 10
396.45
 20
197.34
 10
395.06
 20
197.85
 10
393.64
 20
198.02
 10
392.27
 20
197.85
 10
391.05
 20
197.34
 10
390.21
 20
197.01
 10
389.51
 20
196.52
 10
388.98
 20
195.91
 10
388.65
 20
195.24
 10
388.08
 20
194.29
 10
387.68
 20
193.29
 10
387.15
 20
191.34
 10
400.05
 20
191.34
  0
HATCH
  5
4F
330
17
100
AcDbEntity
  8
FILL_WHITE_FFFFFF
 62
7
420
16777215
100
AcDbHatch
 10
0.0
 20
0.0
 30
0.0
210
0.0
220
0.0
230
1.0
  2
SOLID
 70
1
 71
0
 91
1
 92
3
 72
0
 73
1
 93
11
 10
139.65
 20
175.44
 10
133.35
 20
175.44
 10
133.35
 20
213.84
 10
156.75
 20
213.84
 10
156.75
 20
207.84
 10
139.65
 20
207.84
 10
139.65
 20
197.94
 10
155.55
 20
197.94
 10
155.55
 20
191.94
 10
139.65
 20
191.94
 10
139.65
 20
175.44
 97
0
 75
1
 76
1
 98
0
  0
LWPOLYLINE
  5
50
330
17
100
AcDbEntity
  8
FILL_WHITE_FFFFFF
370
0
420
16777215
100
AcDbPolyline
 90
10
 70
1
 10
139.65
 20
175.44
 10
133.35
 20
175.44
 10
133.35
 20
213.84
 10
156.75
 20
213.84
 10
156.75
 20
207.84
 10
139.65
 20
207.84
 10
139.65
 20
197.94
 10
155.55
 20
197.94
 10
155.55
 20
191.94
 10
139.65
 20
191.94
  0
HATCH
  5
51
330
17
100
AcDbEntity
  8
FILL_WHITE_FFFFFF
 62
7
420
16777215
100
AcDbHatch
 10
0.0
 20
0.0
 30
0.0
210
0.0
220
0.0
230
1.0
  2
SOLID
 70
1
 71
0
 91
1
 92
3
 72
0
 73
1
 93
7
 10
440.25
 20
222.54
 10
475.95
 20
222.54
 10
519.45
 20
147.24
 10
475.95
 20
71.94
 10
440.25
 20
71.94
 10
483.75
 20
147.24
 10
440.25
 20
222.54
 97
0
 75
1
 76
1
 98
0
  0
LWPOLYLINE
  5
52
330
17
100
AcDbEntity
  8
FILL_WHITE_FFFFFF
370
0
420
255
100
AcDbPolyline
 90
6
 70
1
 10
440.25
 20
222.54
 10
475.95
 20
222.54
 10
519.45
 20
147.24
 10
475.95
 20
71.94
 10
440.25
 20
71.94
 10
483.75
 20
147.24
  0
HATCH
  5
53
330
17
100
AcDbEntity
  8
FILL_WHITE_FFFFFF
 62
7
420
16777215
100
AcDbHatch
 10
0.0
 20
0.0
 30
0.0
210
0.0
220
0.0
230
1.0
  2
SOLID
 70
1
 71
0
 91
1
 92
3
 72
0
 73
1
 93
39
 10
87.75
 20
117.24
 10
77.25
 20
135.84
 10
71.85
 20
122.64
 10
52.95
 20
97.14
 10
47.55
 20
102.54
 10
58.35
 20
119.64
 10
70.65
 20
166.14
 10
66.75
 20
162.84
 10
61.35
 20
140.34
 10
55.95
 20
142.74
 10
59.85
 20
165.84
 10
64.65
 20
173.04
 10
65.93
 20
174.95
 10
67.5
 20
176.64
 10
69.29
 20
178.1
 10
71.25
 20
179.34
 10
73.55
 20
180.3
 10
75.9
 20
180.95
 10
78.25
 20
181.32
 10
80.55
 20
181.44
 10
82.8
 20
181.09
 10
85.01
 20
180.47
 10
87.17
 20
179.5
 10
88.22
 20
178.87
 10
89.25
 20
178.14
 10
90.98
 20
176.64
 10
92.55
 20
174.88
 10
93.89
 20
172.95
 10
94.95
 20
170.94
 10
98.25
 20
161.04
 10
109.35
 20
150.84
 10
106.35
 20
145.74
 10
93.15
 20
156.54
 10
89.25
 20
161.04
 10
87.75
 20
143.94
 10
97.65
 20
116.64
 10
99.15
 20
92.34
 10
92.25
 20
92.34
 10
87.75
 20
117.24
 97
0
 75
1
 76
1
 98
0
  0
LWPOLYLINE
  5
54
330
17
100
AcDbEntity
  8
FILL_WHITE_FFFFFF
370
0
420
16777215
100
AcDbPolyline
 90
38
 70
1
 10
87.75
 20
117.24
 10
77.25
 20
135.84
 10
71.85
 20
122.64
 10
52.95
 20
97.14
 10
47.55
 20
102.54
 10
58.35
 20
119.64
 10
70.65
 20
166.14
 10
66.75
 20
162.84
 10
61.35
 20
140.34
 10
55.95
 20
142.74
 10
59.85
 20
165.84
 10
64.65
 20
173.04
 10
65.93
 20
174.95
 10
67.5
 20
176.64
 10
69.29
 20
178.1
 10
71.25
 20
179.34
 10
73.55
 20
180.3
 10
75.9
 20
180.95
 10
78.25
 20
181.32
 10
80.55
 20
181.44
 10
82.8
 20
181.09
 10
85.01
 20
180.47
 10
87.17
 20
179.5
 10
88.22
 20
178.87
 10
89.25
 20
178.14
 10
90.98
 20
176.64
 10
92.55
 20
174.88
 10
93.89
 20
172.95
 10
94.95
 20
170.94
 10
98.25
 20
161.04
 10
109.35
 20
150.84
 10
106.35
 20
145.74
 10
93.15
 20
156.54
 10
89.25
 20
161.04
 10
87.75
 20
143.94
 10
97.65
 20
116.64
 10
99.15
 20
92.34
 10
92.25
 20
92.34
  0
HATCH
  5
55
330
17
100
AcDbEntity
  8
FILL_WHITE_FFFFFF
 62
7
420
16777215
100
AcDbHatch
 10
0.0
 20
0.0
 30
0.0
210
0.0
220
0.0
230
1.0
  2
SOLID
 70
1
 71
0
 91
1
 92
3
 72
0
 73
1
 93
33
 10
89.67
 20
191.69
 10
89.17
 20
190.06
 10
88.36
 20
188.58
 10
87.3
 20
187.29
 10
86.01
 20
186.23
 10
84.53
 20
185.42
 10
82.9
 20
184.92
 10
81.15
 20
184.74
 10
79.4
 20
184.92
 10
77.77
 20
185.42
 10
76.29
 20
186.23
 10
75.0
 20
187.29
 10
73.94
 20
188.58
 10
73.13
 20
190.06
 10
72.63
 20
191.69
 10
72.45
 20
193.44
 10
72.63
 20
195.19
 10
73.13
 20
196.82
 10
73.94
 20
198.3
 10
75.0
 20
199.59
 10
76.29
 20
200.65
 10
77.77
 20
201.46
 10
79.4
 20
201.96
 10
81.15
 20
202.14
 10
82.9
 20
201.96
 10
84.53
 20
201.46
 10
86.01
 20
200.65
 10
87.3
 20
199.59
 10
88.36
 20
198.3
 10
89.17
 20
196.82
 10
89.67
 20
195.19
 10
89.85
 20
193.44
 10
89.67
 20
191.69
 97
0
 75
1
 76
1
 98
0
  0
LWPOLYLINE
  5
56
330
17
100
AcDbEntity
  8
FILL_WHITE_FFFFFF
370
0
420
16777215
100
AcDbPolyline
 90
32
 70
1
 10
89.67
 20
191.69
 10
89.17
 20
190.06
 10
88.36
 20
188.58
 10
87.3
 20
187.29
 10
86.01
 20
186.23
 10
84.53
 20
185.42
 10
82.9
 20
184.92
 10
81.15
 20
184.74
 10
79.4
 20
184.92
 10
77.77
 20
185.42
 10
76.29
 20
186.23
 10
75.0
 20
187.29
 10
73.94
 20
188.58
 10
73.13
 20
190.06
 10
72.63
 20
191.69
 10
72.45
 20
193.44
 10
72.63
 20
195.19
 10
73.13
 20
196.82
 10
73.94
 20
198.3
 10
75.0
 20
199.59
 10
76.29
 20
200.65
 10
77.77
 20
201.46
 10
79.4
 20
201.96
 10
81.15
 20
202.14
 10
82.9
 20
201.96
 10
84.53
 20
201.46
 10
86.01
 20
200.65
 10
87.3
 20
199.59
 10
88.36
 20
198.3
 10
89.17
 20
196.82
 10
89.67
 20
195.19
 10
89.85
 20
193.44
  0
HATCH
  5
57
330
17
100
AcDbEntity
  8
FILL_WHITE_FFFFFF
 62
7
420
16777215
100
AcDbHatch
 10
0.0
 20
0.0
 30
0.0
210
0.0
220
0.0
230
1.0
  2
SOLID
 70
1
 71
0
 91
1
 92
3
 72
0
 73
1
 93
11
 10
144.15
 20
136.74
 10
151.65
 20
143.64
 10
156.75
 20
141.84
 10
157.65
 20
141.54
 10
157.65
 20
140.94
 10
157.35
 20
140.04
 10
156.15
 20
139.44
 10
149.25
 20
133.44
 10
142.05
 20
128.34
 10
136.05
 20
131.34
 10
144.15
 20
136.74
 97
0
 75
1
 76
1
 98
0
  0
LWPOLYLINE
  5
58
330
17
100
AcDbEntity
  8
FILL_WHITE_FFFFFF
370
0
420
16777215
100
AcDbPolyline
 90
10
 70
1
 10
144.15
 20
136.74
 10
151.65
 20
143.64
 10
156.75
 20
141.84
 10
157.65
 20
141.54
 10
157.65
 20
140.94
 10
157.35
 20
140.04
 10
156.15
 20
139.44
 10
149.25
 20
133.44
 10
142.05
 20
128.34
 10
136.05
 20
131.34
  0
HATCH
  5
59
330
17
100
AcDbEntity
  8
FILL_WHITE_FFFFFF
 62
7
420
16777215
100
AcDbHatch
 10
0.0
 20
0.0
 30
0.0
210
0.0
220
0.0
230
1.0
  2
SOLID
 70
1
 71
0
 91
1
 92
3
 72
0
 73
1
 93
17
 10
140.25
 20
116.64
 10
145.05
 20
121.44
 10
149.55
 20
126.54
 10
153.45
 20
132.54
 10
158.25
 20
131.04
 10
159.45
 20
130.74
 10
159.75
 20
130.14
 10
159.45
 20
129.24
 10
158.25
 20
128.34
 10
155.25
 20
125.04
 10
152.55
 20
121.14
 10
152.55
 20
87.54
 10
146.25
 20
87.54
 10
146.25
 20
114.84
 10
140.55
 20
109.14
 10
135.15
 20
112.44
 10
140.25
 20
116.64
 97
0
 75
1
 76
1
 98
0
  0
LWPOLYLINE
  5
5A
330
17
100
AcDbEntity
  8
FILL_WHITE_FFFFFF
370
0
420
16777215
100
AcDbPolyline
 90
16
 70
1
 10
140.25
 20
116.64
 10
145.05
 20
121.44
 10
149.55
 20
126.54
 10
153.45
 20
132.54
 10
158.25
 20
131.04
 10
159.45
 20
130.74
 10
159.75
 20
130.14
 10
159.45
 20
129.24
 10
158.25
 20
128.34
 10
155.25
 20
125.04
 10
152.55
 20
121.14
 10
152.55
 20
87.54
 10
146.25
 20
87.54
 10
146.25
 20
114.84
 10
140.55
 20
109.14
 10
135.15
 20
112.44
  0
HATCH
  5
5B
330
17
100
AcDbEntity
  8
FILL_WHITE_FFFFFF
 62
7
420
16777215
100
AcDbHatch
 10
0.0
 20
0.0
 30
0.0
210
0.0
220
0.0
230
1.0
  2
SOLID
 70
1
 71
0
 91
1
 92
3
 72
0
 73
1
 93
5
 10
188.55
 20
140.64
 10
188.55
 20
134.94
 10
163.65
 20
134.94
 10
163.65
 20
140.64
 10
188.55
 20
140.64
 97
0
 75
1
 76
1
 98
0
  0
LWPOLYLINE
  5
5C
330
17
100
AcDbEntity
  8
FILL_WHITE_FFFFFF
370
0
420
16777215
100
AcDbPolyline
 90
4
 70
1
 10
188.55
 20
140.64
 10
188.55
 20
134.94
 10
163.65
 20
134.94
 10
163.65
 20
140.64
  0
HATCH
  5
5D
330
17
100
AcDbEntity
  8
FILL_WHITE_FFFFFF
 62
7
420
16777215
100
AcDbHatch
 10
0.0
 20
0.0
 30
0.0
210
0.0
220
0.0
230
1.0
  2
SOLID
 70
1
 71
0
 91
1
 92
3
 72
0
 73
1
 93
23
 10
158.55
 20
118.44
 10
158.55
 20
123.84
 10
193.05
 20
123.84
 10
193.05
 20
118.44
 10
183.45
 20
118.44
 10
183.45
 20
97.74
 10
183.45
 20
95.34
 10
183.15
 20
93.24
 10
182.25
 20
91.74
 10
181.05
 20
90.24
 10
179.55
 20
89.34
 10
177.75
 20
88.44
 10
175.35
 20
88.14
 10
172.95
 20
88.14
 10
169.65
 20
88.14
 10
166.95
 20
94.44
 10
174.15
 20
94.44
 10
175.35
 20
94.74
 10
176.25
 20
95.64
 10
176.85
 20
97.14
 10
176.85
 20
98.94
 10
176.85
 20
118.44
 10
158.55
 20
118.44
 97
0
 75
1
 76
1
 98
0
  0
LWPOLYLINE
  5
5E
330
17
100
AcDbEntity
  8
FILL_WHITE_FFFFFF
370
0
420
16777215
100
AcDbPolyline
 90
22
 70
1
 10
158.55
 20
118.44
 10
158.55
 20
123.84
 10
193.05
 20
123.84
 10
193.05
 20
118.44
 10
183.45
 20
118.44
 10
183.45
 20
97.74
 10
183.45
 20
95.34
 10
183.15
 20
93.24
 10
182.25
 20
91.74
 10
181.05
 20
90.24
 10
179.55
 20
89.34
 10
177.75
 20
88.44
 10
175.35
 20
88.14
 10
172.95
 20
88.14
 10
169.65
 20
88.14
 10
166.95
 20
94.44
 10
174.15
 20
94.44
 10
175.35
 20
94.74
 10
176.25
 20
95.64
 10
176.85
 20
97.14
 10
176.85
 20
98.94
 10
176.85
 20
118.44
  0
HATCH
  5
5F
330
17
100
AcDbEntity
  8
FILL_WHITE_FFFFFF
 62
7
420
16777215
100
AcDbHatch
 10
0.0
 20
0.0
 30
0.0
210
0.0
220
0.0
230
1.0
  2
SOLID
 70
1
 71
0
 91
1
 92
3
 72
0
 73
1
 93
40
 10
244.35
 20
143.94
 10
245.25
 20
143.34
 10
244.95
 20
142.44
 10
243.75
 20
141.24
 10
243.15
 20
134.94
 10
243.75
 20
128.64
 10
245.85
 20
122.94
 10
247.95
 20
117.24
 10
250.65
 20
112.44
 10
253.65
 20
107.64
 10
256.65
 20
103.44
 10
260.25
 20
99.84
 10
264.15
 20
96.54
 10
268.35
 20
93.54
 10
261.45
 20
89.04
 10
255.45
 20
94.74
 10
250.05
 20
101.64
 10
245.25
 20
109.74
 10
241.05
 20
119.04
 10
239.85
 20
114.84
 10
238.05
 20
110.94
 10
235.65
 20
107.04
 10
232.95
 20
103.14
 10
229.65
 20
99.54
 10
225.75
 20
96.24
 10
221.25
 20
92.94
 10
216.45
 20
89.64
 10
211.35
 20
94.74
 10
216.15
 20
97.44
 10
220.35
 20
100.44
 10
224.25
 20
103.44
 10
227.55
 20
106.74
 10
230.55
 20
110.34
 10
232.65
 20
114.24
 10
234.45
 20
118.14
 10
235.95
 20
122.64
 10
237.45
 20
131.94
 10
237.45
 20
143.94
 10
242.55
 20
143.94
 10
244.35
 20
143.94
 97
0
 75
1
 76
1
 98
0
  0
LWPOLYLINE
  5
60
330
17
100
AcDbEntity
  8
FILL_WHITE_FFFFFF
370
0
420
16777215
100
AcDbPolyline
 90
39
 70
1
 10
244.35
 20
143.94
 10
245.25
 20
143.34
 10
244.95
 20
142.44
 10
243.75
 20
141.24
 10
243.15
 20
134.94
 10
243.75
 20
128.64
 10
245.85
 20
122.94
 10
247.95
 20
117.24
 10
250.65
 20
112.44
 10
253.65
 20
107.64
 10
256.65
 20
103.44
 10
260.25
 20
99.84
 10
264.15
 20
96.54
 10
268.35
 20
93.54
 10
261.45
 20
89.04
 10
255.45
 20
94.74
 10
250.05
 20
101.64
 10
245.25
 20
109.74
 10
241.05
 20
119.04
 10
239.85
 20
114.84
 10
238.05
 20
110.94
 10
235.65
 20
107.04
 10
232.95
 20
103.14
 10
229.65
 20
99.54
 10
225.75
 20
96.24
 10
221.25
 20
92.94
 10
216.45
 20
89.64
 10
211.35
 20
94.74
 10
216.15
 20
97.44
 10
220.35
 20
100.44
 10
224.25
 20
103.44
 10
227.55
 20
106.74
 10
230.55
 20
110.34
 10
232.65
 20
114.24
 10
234.45
 20
118.14
 10
235.95
 20
122.64
 10
237.45
 20
131.94
 10
237.45
 20
143.94
 10
242.55
 20
143.94
  0
HATCH
  5
61
330
17
100
AcDbEntity
  8
FILL_WHITE_FFFFFF
 62
7
420
16777215
100
AcDbHatch
 10
0.0
 20
0.0
 30
0.0
210
0.0
220
0.0
230
1.0
  2
SOLID
 70
1
 71
0
 91
1
 92
3
 72
0
 73
1
 93
44
 10
338.85
 20
141.54
 10
338.85
 20
136.14
 10
319.35
 20
136.14
 10
319.35
 20
123.24
 10
342.75
 20
123.24
 10
342.75
 20
117.84
 10
320.85
 20
117.84
 10
322.65
 20
113.64
 10
324.75
 20
109.74
 10
327.15
 20
106.44
 10
330.15
 20
103.44
 10
333.15
 20
100.74
 10
336.75
 20
98.34
 10
340.65
 20
96.24
 10
344.85
 20
94.74
 10
340.35
 20
88.44
 10
332.55
 20
92.64
 10
326.25
 20
98.34
 10
321.15
 20
104.94
 10
317.25
 20
113.04
 10
316.05
 20
109.74
 10
314.25
 20
106.44
 10
312.15
 20
103.14
 10
309.15
 20
100.14
 10
305.85
 20
97.14
 10
301.65
 20
94.14
 10
297.15
 20
91.14
 10
291.75
 20
88.44
 10
286.95
 20
93.24
 10
292.35
 20
95.64
 10
297.15
 20
98.34
 10
301.05
 20
101.04
 10
304.65
 20
104.04
 10
307.65
 20
107.34
 10
309.75
 20
110.64
 10
311.25
 20
114.24
 10
312.15
 20
117.84
 10
289.05
 20
117.84
 10
289.05
 20
123.24
 10
313.05
 20
123.24
 10
313.05
 20
136.14
 10
292.95
 20
136.14
 10
292.95
 20
141.54
 10
338.85
 20
141.54
 97
0
 75
1
 76
1
 98
0
  0
LWPOLYLINE
  5
62
330
17
100
AcDbEntity
  8
FILL_WHITE_FFFFFF
370
0
420
16777215
100
AcDbPolyline
 90
43
 70
1
 10
338.85
 20
141.54
 10
338.85
 20
136.14
 10
319.35
 20
136.14
 10
319.35
 20
123.24
 10
342.75
 20
123.24
 10
342.75
 20
117.84
 10
320.85
 20
117.84
 10
322.65
 20
113.64
 10
324.75
 20
109.74
 10
327.15
 20
106.44
 10
330.15
 20
103.44
 10
333.15
 20
100.74
 10
336.75
 20
98.34
 10
340.65
 20
96.24
 10
344.85
 20
94.74
 10
340.35
 20
88.44
 10
332.55
 20
92.64
 10
326.25
 20
98.34
 10
321.15
 20
104.94
 10
317.25
 20
113.04
 10
316.05
 20
109.74
 10
314.25
 20
106.44
 10
312.15
 20
103.14
 10
309.15
 20
100.14
 10
305.85
 20
97.14
 10
301.65
 20
94.14
 10
297.15
 20
91.14
 10
291.75
 20
88.44
 10
286.95
 20
93.24
 10
292.35
 20
95.64
 10
297.15
 20
98.34
 10
301.05
 20
101.04
 10
304.65
 20
104.04
 10
307.65
 20
107.34
 10
309.75
 20
110.64
 10
311.25
 20
114.24
 10
312.15
 20
117.84
 10
289.05
 20
117.84
 10
289.05
 20
123.24
 10
313.05
 20
123.24
 10
313.05
 20
136.14
 10
292.95
 20
136.14
 10
292.95
 20
141.54
  0
HATCH
  5
63
330
17
100
AcDbEntity
  8
FILL_WHITE_FFFFFF
 62
7
420
16777215
100
AcDbHatch
 10
0.0
 20
0.0
 30
0.0
210
0.0
220
0.0
230
1.0
  2
SOLID
 70
1
 71
0
 91
1
 92
3
 72
0
 73
1
 93
26
 10
376.05
 20
144.84
 10
377.85
 20
144.24
 10
378.45
 20
143.64
 10
378.45
 20
143.04
 10
377.25
 20
142.44
 10
377.25
 20
132.54
 10
381.75
 20
132.54
 10
381.75
 20
127.44
 10
376.65
 20
127.44
 10
379.95
 20
120.84
 10
383.85
 20
115.44
 10
379.95
 20
111.54
 10
378.45
 20
114.24
 10
377.25
 20
117.24
 10
377.25
 20
88.14
 10
371.85
 20
88.14
 10
371.85
 20
114.54
 10
367.35
 20
104.04
 10
362.25
 20
107.04
 10
367.35
 20
116.94
 10
371.85
 20
127.44
 10
364.05
 20
127.44
 10
364.05
 20
132.54
 10
371.85
 20
132.54
 10
371.85
 20
145.14
 10
376.05
 20
144.84
 97
0
 75
1
 76
1
 98
0
  0
LWPOLYLINE
  5
64
330
17
100
AcDbEntity
  8
FILL_WHITE_FFFFFF
370
0
420
16777215
100
AcDbPolyline
 90
25
 70
1
 10
376.05
 20
144.84
 10
377.85
 20
144.24
 10
378.45
 20
143.64
 10
378.45
 20
143.04
 10
377.25
 20
142.44
 10
377.25
 20
132.54
 10
381.75
 20
132.54
 10
381.75
 20
127.44
 10
376.65
 20
127.44
 10
379.95
 20
120.84
 10
383.85
 20
115.44
 10
379.95
 20
111.54
 10
378.45
 20
114.24
 10
377.25
 20
117.24
 10
377.25
 20
88.14
 10
371.85
 20
88.14
 10
371.85
 20
114.54
 10
367.35
 20
104.04
 10
362.25
 20
107.04
 10
367.35
 20
116.94
 10
371.85
 20
127.44
 10
364.05
 20
127.44
 10
364.05
 20
132.54
 10
371.85
 20
132.54
 10
371.85
 20
145.14
  0
HATCH
  5
65
330
17
100
AcDbEntity
  8
FILL_WHITE_FFFFFF
 62
7
420
16777215
100
AcDbHatch
 10
0.0
 20
0.0
 30
0.0
210
0.0
220
0.0
230
1.0
  2
SOLID
 70
1
 71
0
 91
3
 92
3
 72
0
 73
1
 93
30
 10
415.05
 20
142.14
 10
415.35
 20
141.24
 10
415.35
 20
140.64
 10
414.45
 20
140.64
 10
412.95
 20
140.94
 10
401.25
 20
139.14
 10
399.75
 20
134.94
 10
417.15
 20
134.94
 10
417.15
 20
130.14
 10
408.75
 20
130.14
 10
414.75
 20
126.24
 10
421.35
 20
123.54
 10
417.45
 20
119.04
 10
410.55
 20
123.24
 10
410.55
 20
114.84
 10
390.75
 20
114.84
 10
390.75
 20
122.64
 10
384.15
 20
119.04
 10
380.25
 20
122.64
 10
386.85
 20
125.94
 10
391.35
 20
130.14
 10
382.95
 20
130.14
 10
382.95
 20
134.94
 10
394.35
 20
134.94
 10
395.55
 20
138.54
 10
386.55
 20
137.94
 10
382.95
 20
141.84
 10
397.05
 20
143.34
 10
411.45
 20
145.44
 10
415.05
 20
142.14
 97
0
 92
18
 72
0
 73
1
 93
5
 10
396.15
 20
122.04
 10
396.15
 20
119.34
 10
405.15
 20
119.34
 10
405.15
 20
122.04
 10
396.15
 20
122.04
 97
0
 92
18
 72
0
 73
1
 93
5
 10
406.95
 20
126.24
 10
403.05
 20
130.14
 10
397.65
 20
130.14
 10
394.95
 20
126.24
 10
406.95
 20
126.24
 97
0
 75
1
 76
1
 98
0
  0
LWPOLYLINE
  5
66
330
17
100
AcDbEntity
  8
FILL_WHITE_FFFFFF
370
0
420
16777215
100
AcDbPolyline
 90
29
 70
1
 10
415.05
 20
142.14
 10
415.35
 20
141.24
 10
415.35
 20
140.64
 10
414.45
 20
140.64
 10
412.95
 20
140.94
 10
401.25
 20
139.14
 10
399.75
 20
134.94
 10
417.15
 20
134.94
 10
417.15
 20
130.14
 10
408.75
 20
130.14
 10
414.75
 20
126.24
 10
421.35
 20
123.54
 10
417.45
 20
119.04
 10
410.55
 20
123.24
 10
410.55
 20
114.84
 10
390.75
 20
114.84
 10
390.75
 20
122.64
 10
384.15
 20
119.04
 10
380.25
 20
122.64
 10
386.85
 20
125.94
 10
391.35
 20
130.14
 10
382.95
 20
130.14
 10
382.95
 20
134.94
 10
394.35
 20
134.94
 10
395.55
 20
138.54
 10
386.55
 20
137.94
 10
382.95
 20
141.84
 10
397.05
 20
143.34
 10
411.45
 20
145.44
  0
LWPOLYLINE
  5
67
330
17
100
AcDbEntity
  8
FILL_WHITE_FFFFFF
370
0
420
16777215
100
AcDbPolyline
 90
4
 70
1
 10
396.15
 20
122.04
 10
396.15
 20
119.34
 10
405.15
 20
119.34
 10
405.15
 20
122.04
  0
LWPOLYLINE
  5
68
330
17
100
AcDbEntity
  8
FILL_WHITE_FFFFFF
370
0
420
16777215
100
AcDbPolyline
 90
4
 70
1
 10
406.95
 20
126.24
 10
403.05
 20
130.14
 10
397.65
 20
130.14
 10
394.95
 20
126.24
  0
HATCH
  5
69
330
17
100
AcDbEntity
  8
FILL_WHITE_FFFFFF
 62
7
420
16777215
100
AcDbHatch
 10
0.0
 20
0.0
 30
0.0
210
0.0
220
0.0
230
1.0
  2
SOLID
 70
1
 71
0
 91
1
 92
3
 72
0
 73
1
 93
19
 10
418.05
 20
112.14
 10
418.05
 20
95.64
 10
417.45
 20
92.34
 10
415.95
 20
89.94
 10
414.15
 20
88.44
 10
411.75
 20
88.14
 10
408.45
 20
88.14
 10
406.65
 20
92.94
 10
408.45
 20
92.94
 10
410.25
 20
93.24
 10
411.75
 20
93.84
 10
412.35
 20
95.34
 10
412.35
 20
97.14
 10
412.35
 20
107.94
 10
389.25
 20
107.94
 10
389.25
 20
88.44
 10
383.55
 20
88.44
 10
383.55
 20
112.14
 10
418.05
 20
112.14
 97
0
 75
1
 76
1
 98
0
  0
LWPOLYLINE
  5
6A
330
17
100
AcDbEntity
  8
FILL_WHITE_FFFFFF
370
0
420
16777215
100
AcDbPolyline
 90
18
 70
1
 10
418.05
 20
112.14
 10
418.05
 20
95.64
 10
417.45
 20
92.34
 10
415.95
 20
89.94
 10
414.15
 20
88.44
 10
411.75
 20
88.14
 10
408.45
 20
88.14
 10
406.65
 20
92.94
 10
408.45
 20
92.94
 10
410.25
 20
93.24
 10
411.75
 20
93.84
 10
412.35
 20
95.34
 10
412.35
 20
97.14
 10
412.35
 20
107.94
 10
389.25
 20
107.94
 10
389.25
 20
88.44
 10
383.55
 20
88.44
 10
383.55
 20
112.14
  0
HATCH
  5
6B
330
17
100
AcDbEntity
  8
FILL_WHITE_FFFFFF
 62
7
420
16777215
100
AcDbHatch
 10
0.0
 20
0.0
 30
0.0
210
0.0
220
0.0
230
1.0
  2
SOLID
 70
1
 71
0
 91
2
 92
3
 72
0
 73
1
 93
5
 10
408.75
 20
93.54
 10
392.25
 20
93.54
 10
392.25
 20
104.64
 10
408.75
 20
104.64
 10
408.75
 20
93.54
 97
0
 92
18
 72
0
 73
1
 93
5
 10
403.65
 20
100.74
 10
397.35
 20
100.74
 10
397.35
 20
97.14
 10
403.65
 20
97.14
 10
403.65
 20
100.74
 97
0
 75
1
 76
1
 98
0
  0
LWPOLYLINE
  5
6C
330
17
100
AcDbEntity
  8
FILL_WHITE_FFFFFF
370
0
420
16777215
100
AcDbPolyline
 90
4
 70
1
 10
408.75
 20
93.54
 10
392.25
 20
93.54
 10
392.25
 20
104.64
 10
408.75
 20
104.64
  0
LWPOLYLINE
  5
6D
330
17
100
AcDbEntity
  8
FILL_WHITE_FFFFFF
370
0
420
16777215
100
AcDbPolyline
 90
4
 70
1
 10
403.65
 20
100.74
 10
397.35
 20
100.74
 10
397.35
 20
97.14
 10
403.65
 20
97.14
  0
LWPOLYLINE
  5
6F
330
17
100
AcDbEntity
  8
STROKE_BLUE_0000FF
370
0
420
255
100
AcDbPolyline
 90
62
 70
0
 10
550.05
 20
142.13999999999987
 10
503.54999999999995
 20
61.73999999999933
 10
501.9644531249999
 20
59.3939062499995
 10
500.14687499999985
 20
57.31499999999954
 10
498.1183593749999
 20
55.517343749999554
 10
495.9
 20
54.01499999999953
 10
493.51289062499995
 20
52.82203124999947
 10
490.9781249999999
 20
51.95249999999942
 10
488.31679687499997
 20
51.420468749999344
 10
485.54999999999995
 20
51.23999999999933
 10
36.450000000000045
 20
51.23999999999933
 10
34.42792968750008
 20
51.33785156249934
 10
32.423437500000105
 20
51.62906249999935
 10
30.454101562500114
 20
52.11011718749941
 10
28.537500000000108
 20
52.77749999999946
 10
26.69121093750009
 20
53.62769531249947
 10
24.932812500000065
 20
54.65718749999951
 10
23.279882812500034
 20
55.86246093749946
 10
21.75
 20
57.23999999999933
 10
20.372460937500037
 20
58.7698828124995
 10
19.167187500000058
 20
60.422812499999566
 10
18.13769531250006
 20
62.1812109374996
 10
17.28750000000005
 20
64.02749999999958
 10
16.620117187500036
 20
65.9441015624995
 10
16.13906250000002
 20
67.91343749999942
 10
15.847851562500006
 20
69.91792968749928
 10
15.75
 20
71.93999999999915
 10
15.75
 20
222.5399999999995
 10
15.847851562500006
 20
224.64820312499944
 10
16.13906250000002
 20
226.69312499999944
 10
16.620117187500036
 20
228.66773437499947
 10
17.28750000000005
 20
230.5649999999995
 10
18.13769531250006
 20
232.37789062499948
 10
19.167187500000058
 20
234.0993749999995
 10
20.372460937500037
 20
235.72242187499944
 10
21.75
 20
237.23999999999933
 10
23.279882812500034
 20
238.7165624999994
 10
24.932812500000065
 20
239.99624999999946
 10
26.69121093750009
 20
241.0790624999995
 10
28.537500000000108
 20
241.96499999999952
 10
30.454101562500114
 20
242.65406249999953
 10
32.423437500000105
 20
243.14624999999953
 10
34.42792968750008
 20
243.44156249999952
 10
36.450000000000045
 20
243.5399999999995
 10
485.54999999999995
 20
243.5399999999995
 10
488.3167968749999
 20
243.35953124999952
 10
490.9781249999999
 20
242.8274999999995
 10
493.51289062499995
 20
241.95796874999948
 10
495.9
 20
240.76499999999947
 10
498.1183593749999
 20
239.26265624999945
 10
500.14687499999985
 20
237.46499999999946
 10
501.964453125
 20
235.38609374999947
 10
503.54999999999995
 20
233.0399999999995
 10
550.05
 20
152.63999999999987
 10
550.640625
 20
151.37671874999978
 10
551.0625000000001
 20
150.07124999999968
 10
551.3156250000001
 20
148.7376562499996
 10
551.4000000000001
 20
147.38999999999953
 10
551.3156250000002
 20
146.0423437499995
 10
551.0625
 20
144.70874999999955
 10
550.640625
 20
143.40328124999965
 10
550.05
 20
142.13999999999987
  0
ENDSEC
  0
SECTION
  2
OBJECTS
  0
DICTIONARY
  5
A
330
0
100
AcDbDictionary
281
1
  3
ACAD_COLOR
350
B
  3
ACAD_GROUP
350
C
  3
ACAD_LAYOUT
350
D
  3
ACAD_MATERIAL
350
E
  3
ACAD_MLEADERSTYLE
350
F
  3
ACAD_MLINESTYLE
350
10
  3
ACAD_PLOTSETTINGS
350
11
  3
ACAD_PLOTSTYLENAME
350
12
  3
ACAD_SCALELIST
350
14
  3
ACAD_TABLESTYLE
350
15
  3
ACAD_VISUALSTYLE
350
16
  3
EZDXF_META
350
2D
  0
DICTIONARY
  5
B
330
A
100
AcDbDictionary
281
1
  0
DICTIONARY
  5
C
330
A
100
AcDbDictionary
281
1
  0
DICTIONARY
  5
D
330
A
100
AcDbDictionary
281
1
  3
Model
350
1A
  3
Layout1
350
1E
  0
DICTIONARY
  5
E
330
A
100
AcDbDictionary
281
1
  3
ByBlock
350
1F
  3
ByLayer
350
20
  3
Global
350
21
  0
DICTIONARY
  5
F
330
A
100
AcDbDictionary
281
1
  3
Standard
350
2C
  0
DICTIONARY
  5
10
330
A
100
AcDbDictionary
281
1
  3
Standard
350
22
  0
DICTIONARY
  5
11
330
A
100
AcDbDictionary
281
1
  0
ACDBDICTIONARYWDFLT
  5
12
330
A
100
AcDbDictionary
281
1
  3
Normal
350
13
100
AcDbDictionaryWithDefault
340
13
  0
ACDBPLACEHOLDER
  5
13
330
12
  0
DICTIONARY
  5
14
330
A
100
AcDbDictionary
281
1
  0
DICTIONARY
  5
15
330
A
100
AcDbDictionary
281
1
  0
DICTIONARY
  5
16
330
A
100
AcDbDictionary
281
1
  0
LAYOUT
  5
1A
330
D
100
AcDbPlotSettings
  1

  4
A3
  6

 40
7.5
 41
20.0
 42
7.5
 43
20.0
 44
420.0
 45
297.0
 46
0.0
 47
0.0
 48
0.0
 49
0.0
140
0.0
141
0.0
142
1.0
143
1.0
 70
1024
 72
1
 73
0
 74
5
  7

 75
16
 76
0
 77
2
 78
300
147
1.0
148
0.0
149
0.0
100
AcDbLayout
  1
Model
 70
1
 71
0
 10
0.0
 20
0.0
 11
420.0
 21
297.0
 12
0.0
 22
0.0
 32
0.0
 14
1e+20
 24
1e+20
 34
1e+20
 15
-1e+20
 25
-1e+20
 35
-1e+20
146
0.0
 13
0.0
 23
0.0
 33
0.0
 16
1.0
 26
0.0
 36
0.0
 17
0.0
 27
1.0
 37
0.0
 76
1
330
17
  0
LAYOUT
  5
1E
330
D
100
AcDbPlotSettings
  1

  4
A3
  6

 40
7.5
 41
20.0
 42
7.5
 43
20.0
 44
420.0
 45
297.0
 46
0.0
 47
0.0
 48
0.0
 49
0.0
140
0.0
141
0.0
142
1.0
143
1.0
 70
0
 72
1
 73
0
 74
5
  7

 75
16
 76
0
 77
2
 78
300
147
1.0
148
0.0
149
0.0
100
AcDbLayout
  1
Layout1
 70
1
 71
1
 10
0.0
 20
0.0
 11
420.0
 21
297.0
 12
0.0
 22
0.0
 32
0.0
 14
1e+20
 24
1e+20
 34
1e+20
 15
-1e+20
 25
-1e+20
 35
-1e+20
146
0.0
 13
0.0
 23
0.0
 33
0.0
 16
1.0
 26
0.0
 36
0.0
 17
0.0
 27
1.0
 37
0.0
 76
1
330
1B
  0
MATERIAL
  5
1F
102
{ACAD_REACTORS
330
E
102
}
330
E
100
AcDbMaterial
  1
ByBlock
  2

 70
0
 40
1.0
 71
1
 41
1.0
 91
-1023410177
 42
1.0
 72
1
  3

 73
1
 74
1
 75
1
 44
0.5
 73
0
 45
1.0
 46
1.0
 77
1
  4

 78
1
 79
1
170
1
 48
1.0
171
1
  6

172
1
173
1
174
1
140
1.0
141
1.0
175
1
  7

176
1
177
1
178
1
143
1.0
179
1
  8

270
1
271
1
272
1
145
1.0
146
1.0
273
1
  9

274
1
275
1
276
1
 42
1.0
 72
1
  3

 73
1
 74
1
 75
1
 94
63
  0
MATERIAL
  5
20
102
{ACAD_REACTORS
330
E
102
}
330
E
100
AcDbMaterial
  1
ByLayer
  2

 70
0
 40
1.0
 71
1
 41
1.0
 91
-1023410177
 42
1.0
 72
1
  3

 73
1
 74
1
 75
1
 44
0.5
 73
0
 45
1.0
 46
1.0
 77
1
  4

 78
1
 79
1
170
1
 48
1.0
171
1
  6

172
1
173
1
174
1
140
1.0
141
1.0
175
1
  7

176
1
177
1
178
1
143
1.0
179
1
  8

270
1
271
1
272
1
145
1.0
146
1.0
273
1
  9

274
1
275
1
276
1
 42
1.0
 72
1
  3

 73
1
 74
1
 75
1
 94
63
  0
MATERIAL
  5
21
102
{ACAD_REACTORS
330
E
102
}
330
E
100
AcDbMaterial
  1
Global
  2

 70
0
 40
1.0
 71
1
 41
1.0
 91
-1023410177
 42
1.0
 72
1
  3

 73
1
 74
1
 75
1
 44
0.5
 73
0
 45
1.0
 46
1.0
 77
1
  4

 78
1
 79
1
170
1
 48
1.0
171
1
  6

172
1
173
1
174
1
140
1.0
141
1.0
175
1
  7

176
1
177
1
178
1
143
1.0
179
1
  8

270
1
271
1
272
1
145
1.0
146
1.0
273
1
  9

274
1
275
1
276
1
 42
1.0
 72
1
  3

 73
1
 74
1
 75
1
 94
63
  0
MLINESTYLE
  5
22
102
{ACAD_REACTORS
330
10
102
}
330
10
100
AcDbMlineStyle
  2
Standard
 70
0
  3

 62
256
 51
90.0
 52
90.0
 71
2
 49
0.5
 62
256
  6
BYLAYER
 49
-0.5
 62
256
  6
BYLAYER
  0
MLEADERSTYLE
  5
2C
102
{ACAD_REACTORS
330
F
102
}
330
F
100
AcDbMLeaderStyle
179
2
170
2
171
1
172
0
 90
2
 40
0.0
 41
0.0
173
1
 91
-1056964608
 92
-2
290
1
 42
2.0
291
1
 43
8.0
  3
Standard
 44
4.0
300

342
29
174
1
175
1
176
0
178
1
 93
-1056964608
 45
4.0
292
0
297
0
 46
4.0
 94
-1056964608
 47
1.0
 49
1.0
140
1.0
294
1
141
0.0
177
0
142
1.0
295
0
296
0
143
3.75
271
0
272
9
273
9
  0
DICTIONARY
  5
2D
330
A
100
AcDbDictionary
280
1
281
1
  3
CREATED_BY_EZDXF
350
2E
  3
WRITTEN_BY_EZDXF
350
72
  0
DICTIONARYVAR
  5
2E
330
2D
100
DictionaryVariables
280
0
  1
1.4.4 @ 2026-07-10T01:54:02.089980+00:00
  0
DICTIONARYVAR
  5
72
330
2D
100
DictionaryVariables
280
0
  1
1.4.4 @ 2026-07-10T01:54:02.097541+00:00
  0
ENDSEC
  0
EOF
