<?xml version='1.0' encoding='UTF-8'?>
<svg width="432.69" height="264.21" viewBox="68.33 3.89 432.69 264.21" xmlns="http://www.w3.org/2000/svg" xmlns:xlink="http://www.w3.org/1999/xlink" xmlns:inkscape="http://www.inkscape.org/namespaces/inkscape" version="1.1"><g transform="scale(10.0) translate(-547.707, -128.016)"><defs><clipPath id="clip_19"><path transform="matrix(0,1,1,0,0,0)" d="M0 74.451H595.008V767.55899H0Z"/></clipPath><clipPath id="clip_20"><path transform="matrix(0,1,1,0,0,0)" d="M0 842.013H595.224V.008972168H0Z"/></clipPath></defs><path transform="matrix(0,1,1,0,556.293,143.478)" d="M0 0V39.762C0 39.906-.054 40.068-.18 40.176-.306 40.302-.45 40.356-.594 40.356H-13.32C-13.392 40.356-13.464 40.338-13.536 40.32-13.608 40.284-13.68 40.248-13.734 40.176-13.788 40.122-13.842 40.05-13.878 39.978-13.896 39.906-13.914 39.834-13.914 39.762V0C-13.914-.072-13.896-.144-13.878-.216-13.842-.288-13.788-.36-13.734-.414-13.68-.486-13.608-.522-13.536-.558-13.464-.576-13.392-.594-13.32-.594H-.594C-.45-.594-.306-.54-.18-.414-.054-.306 0-.144 0 0" fill="#ffff00" fill-rule="evenodd"/><path transform="matrix(0,1,1,0,596.055,144.054)" d="M0 0V-39.762C0-39.906 .054-40.068 .18-40.176 .306-40.302 .45-40.356 .594-40.356H9.018C9.162-40.356 9.324-40.302 9.432-40.176 9.558-40.068 9.612-39.906 9.612-39.762V0C9.612 .144 9.558 .306 9.432 .414 9.324 .54 9.162 .594 9.018 .594H.594C.522 .594 .45 .576 .378 .558 .306 .522 .234 .486 .18 .414 .126 .36 .072 .288 .054 .216 .018 .144 0 .072 0 0" fill="#ffffff" fill-rule="evenodd"/><path transform="matrix(0,1,1,0,556.293,128.97)" d="M0 0V39.762C0 39.906 .036 40.05 .09 40.194 .144 40.356 .234 40.482 .36 40.608 .468 40.716 .612 40.806 .756 40.86 .9 40.914 1.044 40.95 1.188 40.95H24.102C24.426 40.95 24.714 40.824 24.948 40.608 25.164 40.374 25.29 40.086 25.29 39.762V0C25.29-.144 25.254-.288 25.2-.432 25.146-.594 25.056-.72 24.948-.846 24.822-.954 24.696-1.044 24.534-1.098 24.39-1.152 24.246-1.188 24.102-1.188H1.188C1.044-1.188 .9-1.152 .756-1.098 .612-1.044 .468-.954 .36-.846 .234-.72 .144-.594 .09-.432 .036-.288 0-.144 0 0ZM.594 39.762V0C.594-.162 .666-.306 .774-.414 .882-.54 1.026-.594 1.188-.594H13.914C14.058-.594 14.202-.54 14.328-.414 14.454-.306 14.508-.144 14.508 0V39.762C14.508 39.924 14.436 40.068 14.328 40.176 14.22 40.302 14.076 40.356 13.914 40.356H1.188C1.044 40.356 .882 40.302 .774 40.176 .648 40.068 .594 39.906 .594 39.762ZM15.084 39.762V0C15.084-.144 15.138-.306 15.264-.414 15.39-.54 15.534-.594 15.678-.594H24.102C24.246-.594 24.408-.54 24.516-.414 24.642-.306 24.696-.144 24.696 0V39.762C24.696 39.906 24.642 40.068 24.516 40.176 24.462 40.248 24.39 40.284 24.318 40.32 24.246 40.338 24.174 40.356 24.102 40.356H15.678C15.516 40.356 15.372 40.302 15.264 40.176 15.156 40.068 15.084 39.924 15.084 39.762" fill-rule="evenodd"/><path transform="matrix(0,1,1,0,582.537,136.566)" d="M0 0C-.36 0-.756-.018-1.134-.108-1.53-.18-1.926-.288-2.322-.432-3.096-.756-3.834-1.224-4.464-1.836-5.094-2.466-5.562-3.204-5.868-3.996-6.03-4.374-6.138-4.77-6.21-5.166-6.282-5.562-6.318-5.94-6.318-6.318-6.318-6.678-6.282-7.074-6.21-7.47-6.138-7.848-6.03-8.244-5.868-8.64-5.562-9.432-5.094-10.152-4.464-10.782-3.834-11.412-3.096-11.88-2.322-12.186-1.926-12.348-1.53-12.456-1.134-12.528-.756-12.6-.36-12.636 0-12.636 .378-12.636 .774-12.6 1.152-12.528 1.548-12.456 1.944-12.348 2.34-12.186 3.114-11.88 3.852-11.412 4.482-10.782 5.094-10.152 5.58-9.432 5.886-8.64 6.03-8.244 6.156-7.848 6.228-7.47 6.3-7.074 6.318-6.678 6.318-6.318 6.318-5.94 6.3-5.562 6.228-5.166 6.156-4.77 6.03-4.374 5.886-3.996 5.58-3.204 5.094-2.466 4.482-1.836 3.852-1.224 3.114-.756 2.34-.432 1.944-.288 1.548-.18 1.152-.108 .756-.018 .378 0 0 0ZM3.006-10.368C2.592-10.674 2.124-10.926 1.62-11.106 1.098-11.286 .54-11.376-.018-11.376-.576-11.376-1.116-11.286-1.638-11.106-2.16-10.926-2.628-10.674-3.024-10.368L-.018-7.362 3.006-10.368ZM1.026-6.318 4.05-3.294C4.698-4.176 5.04-5.238 5.04-6.318 5.04-7.398 4.698-8.46 4.05-9.324L1.026-6.318ZM3.006-2.25V-2.25ZM3.006-2.25-.018-5.274-3.024-2.25C-2.934-2.178-2.826-2.106-2.718-2.034-2.61-1.98-2.484-1.908-2.376-1.854-2.142-1.728-1.89-1.62-1.638-1.53-1.116-1.35-.576-1.26-.018-1.26 .558-1.26 1.098-1.35 1.62-1.53 2.124-1.71 2.592-1.962 3.006-2.25ZM-4.068-9.324V-9.324ZM-4.068-9.324C-4.374-8.928-4.626-8.46-4.806-7.938-4.968-7.434-5.076-6.876-5.076-6.318-5.076-5.76-4.968-5.202-4.806-4.68-4.716-4.428-4.608-4.176-4.482-3.96-4.428-3.834-4.356-3.726-4.284-3.618-4.248-3.564-4.212-3.51-4.176-3.456-4.158-3.42-4.14-3.402-4.122-3.384-4.122-3.366-4.122-3.366-4.104-3.348V-3.33C-4.104-3.33-4.104-3.348-4.104-3.33H-4.086V-3.312L-4.068-3.294-1.062-6.318-4.068-9.324" fill-rule="evenodd"/><path transform="matrix(0,1,1,0,580.287,133.542)" d="M0 0 3.006-3.024 6.03 0C5.616 .288 5.148 .54 4.644 .72 4.122 .9 3.564 .99 3.006 .99 2.448 .99 1.908 .9 1.386 .72 .864 .54 .396 .288 0 0" fill="#e1e1e1" fill-rule="evenodd"/><path transform="matrix(0,1,1,0,579.243,132.498)" d="M0 0 3.006-3.024 0-6.03C-.306-5.634-.558-5.166-.738-4.644-.9-4.14-1.008-3.582-1.008-3.024-1.008-2.466-.9-1.908-.738-1.386-.558-.882-.306-.414 0 0" fill="#e1e1e1" fill-rule="evenodd"/><path transform="matrix(0,1,1,0,579.243,140.616)" d="M0 0-3.024-3.024 0-6.03C.288-5.634 .54-5.166 .72-4.644 .9-4.14 .99-3.582 .99-3.024 .99-2.466 .9-1.908 .72-1.386 .54-.882 .288-.414 0 0" fill="#e1e1e1" fill-rule="evenodd"/><path transform="matrix(0,1,1,0,572.169,139.572)" d="M0 0-3.024 3.006-6.03 0C-5.634-.306-5.166-.558-4.644-.738-4.122-.918-3.582-1.008-3.024-1.008-2.466-1.008-1.908-.918-1.386-.738-.882-.558-.414-.306 0 0" fill="#e1e1e1" fill-rule="evenodd"/><path transform="matrix(0,1,1,0,579.981,145.476)" stroke-width=".288" stroke-linecap="round" stroke-linejoin="round" fill="none" stroke="#000000" d="M0 0V-.414"/><path transform="matrix(0,1,1,0,579.981,147.06)" stroke-width=".288" stroke-linecap="round" stroke-linejoin="round" fill="none" stroke="#000000" d="M0 0H-1.584"/><path transform="matrix(0,1,1,0,579.567,147.06)" stroke-width=".288" stroke-linecap="round" stroke-linejoin="round" fill="none" stroke="#000000" d="M0 0V.414"/><path transform="matrix(0,1,1,0,579.567,145.476)" stroke-width=".288" stroke-linecap="round" stroke-linejoin="round" fill="none" stroke="#000000" d="M0 0H1.584"/><path transform="matrix(0,1,1,0,570.297,146.736)" d="M0 0C.27 .036 .414 .18 .414 .45 .414 .558 .414 .648 .396 .72 .378 .81 .36 .864 .324 .9L-.036 .828C0 .738 .018 .666 0 .612 0 .558-.018 .504-.054 .486-.072 .45-.126 .432-.18 .432H-.882V.846H-1.26V.432H-1.89L-1.764 0H-1.26V-.252H-.882V0H0" fill-rule="evenodd"/><path transform="matrix(0,1,1,0,574.041,145.44)" d="M0 0H1.62V.45H.63C.468 .486 .378 .576 .36 .756 .378 .9 .468 .99 .63 .99H.648C.648 .99 .63 .99 .648 .99H.666 .684C.684 .99 .684 .99 .684 .99H1.62V1.44H.504C.144 1.44-.036 1.224-.036 .828-.036 .738-.018 .666 0 .612 .018 .54 .072 .486 .108 .45H0V0" fill-rule="evenodd"/><path transform="matrix(0,1,1,0,575.985,147.186)" d="M0 0 .36-.072C.396 .018 .414 .108 .414 .198 .432 .288 .432 .378 .45 .45 .432 .504 .414 .576 .36 .63 .288 .684 .216 .72 .144 .756L-1.71 1.35V.9L-.756 .594-1.71 .288V-.162L-.234 .306C-.198 .324-.162 .342-.126 .342-.108 .342-.072 .342-.054 .342 0 .342 .018 .324 .018 .288 .018 .18 .018 .09 0 0" fill-rule="evenodd"/><path transform="matrix(0,1,1,0,578.325,146.736)" d="M0 0C.27 .036 .414 .18 .414 .432 .414 .558 .414 .648 .396 .72 .378 .81 .36 .864 .324 .9L-.036 .828C0 .738 .018 .648 0 .594 0 .54-.018 .504-.054 .486-.072 .45-.126 .432-.18 .432H-.882V.846H-1.26V.432H-1.89L-1.764 0H-1.26V-.252H-.882V0H0" fill-rule="evenodd"/><path transform="matrix(0,1,1,0,0,0)" d="M145.476 579.567H147.06V579.981H145.476Z"/><path transform="matrix(0,1,1,0,580.809,147.06)" d="M0 0V-.432H-1.602V0H-1.53C-1.566 .054-1.602 .108-1.62 .18-1.638 .234-1.656 .306-1.656 .378-1.656 .576-1.584 .72-1.44 .792-1.584 .918-1.656 1.062-1.656 1.242-1.638 1.548-1.512 1.746-1.278 1.836-1.26 1.836-1.242 1.854-1.242 1.854H-1.224C-1.224 1.854-1.224 1.854-1.224 1.854-1.206 1.854-1.206 1.854-1.188 1.854-1.188 1.854-1.17 1.854-1.152 1.854L-1.134 1.872H0V1.44H-1.08C-1.098 1.44-1.116 1.422-1.134 1.422-1.152 1.404-1.17 1.386-1.188 1.368-1.206 1.332-1.224 1.278-1.224 1.224-1.224 1.152-1.206 1.08-1.152 1.026-1.098 .972-1.044 .936-.99 .936H0V.504H-1.098C-1.17 .486-1.224 .396-1.224 .288-1.224 .234-1.206 .162-1.152 .09-1.098 .036-1.044 0-.99 0H0" fill-rule="evenodd"/><path transform="matrix(0,1,1,0,580.017,145.062)" d="M0 0C-.144 0-.252-.108-.252-.252-.252-.396-.144-.504 0-.504 .144-.504 .252-.396 .252-.252 .252-.108 .144 0 0 0" fill-rule="evenodd"/><path transform="matrix(0,1,1,0,583.509,146.43)" d="M0 0V1.008C-.324 1.026-.576 .954-.756 .846-.918 .72-1.008 .522-1.026 .27-1.026-.162-.738-.414-.162-.45 .072-.45 .252-.396 .414-.288 .504-.198 .576-.09 .63 .018 .684 .126 .702 .234 .72 .36 .72 .612 .594 .882 .414 .972L.144 .702C.198 .684 .234 .63 .27 .558 .288 .486 .306 .414 .306 .36 .306 .27 .288 .18 .234 .108 .162 .036 .072 0 0 0ZM-.342-.018C-.414 0-.486 .018-.54 .09-.594 .144-.63 .216-.63 .288-.63 .414-.522 .558-.378 .594H-.342V-.018" fill-rule="evenodd"/><path transform="matrix(0,1,1,0,568.857,146.7)" d="M0 0V.432L.36 .558V1.026L-1.854 .342V-.324L.36-1.026V-.558L0-.432V0ZM-.432 0V-.306L-1.404 0-.432 .306V0" fill-rule="evenodd"/><path transform="matrix(0,1,1,0,572.439,145.962)" d="M0 0-.306-.216C-.396-.126-.468-.036-.504 .09-.54 .198-.558 .324-.558 .486-.576 .684-.54 .846-.45 .954-.378 1.062-.252 1.134-.108 1.152H.72C.756 1.152 .792 1.17 .81 1.188 .828 1.224 .828 1.26 .828 1.314L1.152 1.206C1.17 .972 1.116 .828 .99 .792 1.08 .738 1.17 .54 1.188 .396 1.188 .198 1.134 .036 1.026-.09 .918-.198 .774-.252 .594-.252 .432-.252 .288-.18 .198-.018 .126 .144 .072 .378 .072 .684H0C-.054 .684-.108 .666-.126 .648-.162 .612-.162 .558-.162 .486-.162 .396-.162 .306-.126 .216-.108 .144-.054 .072 0 0ZM.414 .684C.432 .378 .486 .216 .612 .216 .684 .216 .72 .234 .756 .27 .792 .324 .792 .378 .792 .468 .792 .576 .756 .648 .684 .684H.414" fill-rule="evenodd"/><path transform="matrix(0,1,1,0,571.341,150.228)" d="M0 0-.09 .126-.126 .162-.162 .126-.396-.306-.666-.702-.99-1.08-1.332-1.422-1.35-1.332-1.386-1.296-1.44-1.332-1.494-1.422-1.584-1.602-1.566-1.638-1.17-1.998-.81-2.394-.504-2.808-.234-3.276-.18-3.366H-.126L-.054-3.24-.018-3.186V-3.132L-.27-2.718-.54-2.322-.846-1.944-1.17-1.602-.828-1.278-.522-.918-.234-.522 0-.09 .018-.036" fill-rule="evenodd"/><path transform="matrix(0,1,1,0,568.119,151.956)" d="M0 0H.216V3.276H0V1.746H-.738V2.808H-.954V1.746H-1.62V2.808H-1.818V.378H-1.62V1.512H-.954V.432H-.738V1.512H0" fill-rule="evenodd"/><path transform="matrix(0,1,1,0,575.049,152.1)" d="M0 0V.216H-3.402V-2.178H-.036V-1.926H-.306V0H0ZM-3.204 0H-1.998V-1.926H-3.204ZM-1.998 0ZM-1.8 0H-.52199998V-1.908H-1.8ZM-.522 0" fill-rule="evenodd"/><path transform="matrix(0,1,1,0,578.595,148.716)" d="M0 0-.036-.234H.792V-1.188L.27-1.008 .234-.936 .198-.918 .18-.936 .144-1.008 .054-1.224 .45-1.35 .828-1.494 1.152-1.656 1.458-1.854 1.512-1.872 1.548-1.836 1.656-1.728 1.62-1.674 1.314-1.44 1.008-1.26V-.234H1.926V-1.44H2.124V-.234H3.204V-1.89H3.42V1.53H3.204V.036H2.124V1.17H1.926V.036H1.008V1.332H.792V.036H.126L.09 .108 .054 .126 .036 .09" fill-rule="evenodd"/><path transform="matrix(0,1,1,0,581.853,148.626)" d="M0 0H.63V-.81H.828V.99H.63V.252H.162L.126 .306 .108 .342H.072L.054 .306" fill-rule="evenodd"/><path transform="matrix(0,1,1,0,581.673,149.742)" d="M0 0-.09-.198 .27-.396 .576-.666 .63-.702 .666-.666 .72-.54V-.486L.45-.234 .126-.018 .09 .036 .072 .072 .036 .054" fill-rule="evenodd"/><path transform="matrix(0,1,1,0,582.663,150.462)" d="M0 0-.162 .18-.486-.036-.828-.324-.666-.486-.414-.27-.162-.09-.27-.396 .108-.522 .468-.648 .018-1.134 .198-1.314 .432-1.026 .702-.792 .936-.99 1.152-1.188 1.332-1.386 1.476-1.602 1.53-1.674 1.566-1.656 1.674-1.548 1.692-1.494 1.53-1.26 1.35-1.044 1.134-.81 .882-.612 1.17-.414 1.44-.27 1.314-.054 .99-.234 .63-.468 .306-.324-.036-.216-.09-.072" fill-rule="evenodd"/><path transform="matrix(0,1,1,0,584.517,149.382)" d="M0 0V-1.134L-.558-1.008-.594-.936-.63-.918-.648-.936-.684-1.008-.756-1.224 .036-1.422 .63-1.674 .72-1.692 .738-1.656 .792-1.53 .756-1.458 .648-1.404 1.044-1.35 1.404-1.26 1.728-1.17 2.016-1.044 2.34-1.386 2.592-1.782 2.646-1.836 2.7-1.782 2.754-1.728 2.79-1.71V-1.656L2.52-1.242 2.214-.9 2.538-.558 2.79-.18 2.772-.126 2.664-.018 2.628 .036 2.592 .018 2.448-.234 2.286-.45 2.142-.612 1.98-.738 1.656-.612 1.26-.522 .774-.432 .198-.378V0H0ZM.522-1.152V-1.332L.198-1.206V-.63L.648-.666 1.062-.72 1.44-.792 1.782-.9 1.224-1.062 .522-1.152" fill-rule="evenodd"/></g></svg>