<?xml version='1.0' encoding='UTF-8'?>
<svg width="371.18" height="263.90" viewBox="99.35 3.95 371.18 263.90" xmlns="http://www.w3.org/2000/svg" xmlns:xlink="http://www.w3.org/1999/xlink" xmlns:inkscape="http://www.inkscape.org/namespaces/inkscape" version="1.1"><g transform="scale(10.0) translate(-220.305, -505.008)"><defs><clipPath id="clip_19"><path transform="matrix(0,1,1,0,0,0)" d="M0 74.451H595.008V767.55899H0Z"/></clipPath><clipPath id="clip_20"><path transform="matrix(0,1,1,0,0,0)" d="M0 842.013H595.224V.008972168H0Z"/></clipPath></defs><path transform="matrix(0,1,1,0,242.463,515.142)" stroke-width=".288" stroke-linecap="round" stroke-linejoin="round" fill="none" stroke="#000000" d="M0 0V.018"/><path transform="matrix(0,1,1,0,244.461,515.142)" stroke-width=".288" stroke-linecap="round" stroke-linejoin="round" fill="none" stroke="#000000" d="M0 0V.018"/><path transform="matrix(0,1,1,0,243.885,515.44808)" stroke-width=".288" stroke-linecap="round" stroke-linejoin="round" fill="none" stroke="#000000" d="M0 0V.018"/><path transform="matrix(0,1,1,0,241.86899,515.44808)" stroke-width=".288" stroke-linecap="round" stroke-linejoin="round" fill="none" stroke="#000000" d="M0 0V.018"/><path transform="matrix(0,1,1,0,239.889,518.238)" d="M0 0-.198-.216-.414-.432-.684-.648-.162-1.116 .252-1.584 .126-1.674 .09-1.71 .054-1.692 .036-1.656-.18-1.404-.432-1.17-.72-.918-1.062-.684-.972-.468-.954-.432-.918-.414H-.9L-.882-.45-.864-.54-.612-.342-.378-.09-.18 .162 0 .45 .018 .468 .054 .45 .162 .324 .126 .234" fill-rule="evenodd"/><path transform="matrix(0,1,1,0,239.421,518.544)" d="M0 0V.468L-.018 .504H-.18L-.198 .468V-.81L-.18-.846H-.018L0-.81V-.288L.036-.252H.54L.558-.288V-1.062L.576-1.098H.756V-1.134-.288L.774-.252H1.512C1.781-.291 1.811-.258 1.8-.576V-.648L1.836-.666 1.944-.63 2.016-.594 2.034-.504V-.432L1.998-.27 1.908-.144 1.764-.054 1.566-.018H.774L.756 0V.81L.738 .828H.594L.558 .81V0L.54-.018H.036" fill-rule="evenodd"/><path transform="matrix(0,1,1,0,240.393,520.128)" d="M0 0-.306-.288-.54-.54-.396-.684V-.666L-.36-.63 .18-.144" fill-rule="evenodd"/><path transform="matrix(0,1,1,0,238.629,519.57)" d="M0 0 .378-.27 .666-.504 .792-.36 .504-.108 .18 .126V.162L.162 .18H.144L.108 .144" fill-rule="evenodd"/><path transform="matrix(0,1,1,0,238.143,519.156)" d="M0 0 .342 .018 .576 0 .684-.054 .774-.126 .828-.234 .864-.342V-.576L.81-.612 .666-.648 .648-.63 .63-.522V-.468L.612-.36 .54-.288 .414-.234H.234L.018-.27-.198-.36-.432-.468-.666-.63-1.584-.18-1.62-.198V-.828-.81L-1.584-.792H1.44L1.458-.828V-.99L1.44-1.026H-1.782L-1.8-.99V-.072L-1.782 .036-1.728 .09-1.656 .108-.72-.396-.342-.162" fill-rule="evenodd"/><path transform="matrix(0,1,1,0,237.459,510.696)" d="M0 0 1.62 .972V1.656L-.468 .396-1.8 1.584V.9L-.234-.486H-1.8V-1.062H1.62V-.486H.54" fill-rule="evenodd"/><path transform="matrix(0,1,1,0,241.995,512.316)" d="M0 0V-2.232H-3.42V-.09H-2.88V-1.674H-2.016V-.216H-1.476V-1.674H-.54V0" fill-rule="evenodd"/><path transform="matrix(0,1,1,0,242.985,512.316)" d="M0 0V2.232H-.54V.558H-1.476V2.016H-2.016V.558H-2.88V2.142H-3.42V0" fill-rule="evenodd"/><path transform="matrix(0,1,1,0,250.599,512.316)" d="M0 0V1.944H-.522V.594H-3.42V0" fill-rule="evenodd"/><path transform="matrix(0,1,1,0,255.459,512.316)" d="M0 0V-2.25H-3.42V-.108H-2.88V-1.692H-2.016V-.216H-1.476V-1.692H-.54V0" fill-rule="evenodd"/><path transform="matrix(0,1,1,0,256.431,512.316)" d="M0 0V.558H-1.476V1.98H-2.016V.558H-2.88V2.106H-3.42V0" fill-rule="evenodd"/><path transform="matrix(0,1,1,0,260.355,509.4)" d="M0 0H2.916V-.576H0V-1.53H-.504V.954H0" fill-rule="evenodd"/><path transform="matrix(0,1,1,0,262.425,513.666)" d="M0 0H2.052V-.396L.558-1.404H2.052V-1.746H0V-1.332L1.494-.342H0" fill-rule="evenodd"/><path transform="matrix(0,1,1,0,0,0)" d="M513.666 259.617H515.718V259.95899H513.666Z"/><path transform="matrix(0,1,1,0,258.825,515.718)" d="M0 0-.972-.594-.63-.882H0V-1.242H-2.034V-.882H-1.098L-2.034-.054V.36L-1.242-.36 0 .396" fill-rule="evenodd"/><path transform="matrix(0,1,1,0,254.271,513.99)" d="M0 0H1.728V.342H0V.918H-.324V-.576H0" fill-rule="evenodd"/><path transform="matrix(0,1,1,0,251.355,515.394)" d="M0 0V-1.008H-.54V-.144H-.864V-1.008H-1.404V-.054H-1.728V-1.35H.324V0" fill-rule="evenodd"/><path transform="matrix(0,1,1,0,248.907,515.718)" d="M0 0V-.432L-2.052-1.026V-.666L-.468-.216-2.052 .216V.576" fill-rule="evenodd"/><path transform="matrix(0,1,1,0,239.097,515.718)" d="M0 0V1.35H-.324V.324H-.864V1.206H-1.188V.324H-1.728V1.278H-2.052V0" fill-rule="evenodd"/><path transform="matrix(0,1,1,0,238.737,515.718)" d="M0 0V-1.17H-2.052V-.81H-.306V0" fill-rule="evenodd"/><path transform="matrix(0,1,1,0,235.515,513.666)" d="M0 0 1.494 1.008H0V1.35H2.052V.936L.558-.054H2.052V-.414H0" fill-rule="evenodd"/><path transform="matrix(0,1,1,0,234.075,514.998)" d="M0 0C.054 0 .09 0 .144-.018 .198-.036 .252-.072 .288-.108 .378-.198 .432-.324 .432-.45 .432-.576 .378-.702 .288-.774 .252-.828 .198-.846 .144-.864 .09-.882 .054-.9 0-.882H-1.332V-1.242H0C.09-1.242 .198-1.206 .288-1.17 .396-1.134 .504-1.062 .576-.99 .702-.846 .756-.648 .756-.45 .756-.234 .702-.036 .576 .09 .504 .18 .396 .252 .288 .288 .198 .324 .09 .342 0 .36H-1.332V0H0" fill-rule="evenodd"/><path transform="matrix(0,1,1,0,242.859,525.708)" d="M0 0V1.782H.324V0H.684V1.638H.99V0H1.386V1.89H1.692V0H2.304V-.378H-.306V0" fill-rule="evenodd"/><path transform="matrix(0,1,1,0,241.653,525.6)" d="M0 0H1.26L1.206 .378H1.53L1.602-.036 2.088-.342 2.484-.738 2.448-.828 2.286-1.116 2.25-1.134 2.178-1.044 1.692-.54 1.926-1.89 2.07-1.962 2.124-2.034 2.088-2.106 1.98-2.16 1.584-2.304 1.332-.45 1.242-.396 1.098-.378V-1.98H.792V-.378H.432V-2.124H.108V-.378H-.288L-.198 0-.18 .108-.144 .144-.09 .108" fill-rule="evenodd"/><path transform="matrix(0,1,1,0,244.641,523.62)" d="M0 0H.306V-5.166H0V-2.718H-.468V-3.978L-.072-4.392-.234-4.806-.738-4.32-1.26-3.888-1.116-3.6-1.08-3.51-1.026-3.492-.972-3.528-.918-3.618-.774-3.762V-2.718H-1.26L-1.242-2.34-1.206-2.232-1.17-2.196-1.116-2.232-1.044-2.34H-.774V-.666H-.468V-2.34H0" fill-rule="evenodd"/><path transform="matrix(0,1,1,0,248.043,523.908)" d="M0 0V-1.782H-.342V.09L-1.404 .324-1.26 .72-1.224 .81-1.17 .828-1.134 .81-1.098 .702-.342 .558V3.366H0V.432L1.242-.018V3.096H1.548V1.494H3.708V3.546H4.032V-1.08H3.708V1.098H1.548V-.144L2.142-.558 2.628-.954 3.06-1.332 3.384-1.71 3.15-2.052 2.448-1.404 1.674-.828 .864-.36" fill-rule="evenodd"/><path transform="matrix(0,1,1,0,253.191,526.608)" d="M0 0 1.044-.108 .972-.522 .522-.45-.054-.396" fill-rule="evenodd"/><path transform="matrix(0,1,1,0,253.659,526.518)" d="M0 0 .846 .216 .918-.198 .072-.342" fill-rule="evenodd"/><path transform="matrix(0,1,1,0,253.857,526.446)" d="M0 0 .774 .252 .702 .612-.09 .306" fill-rule="evenodd"/><path transform="matrix(0,1,1,0,259.473,518.958)" d="M0 0H1.638V.216H.144L.36 .54 .558 .918 .378 1.008 .162 .576-.108 .216H-1.638L-1.656 .27-1.692 .288-1.71 .27-1.746 .198-1.764 0H-.306L-.612-.288-.45-.414" fill-rule="evenodd"/><path transform="matrix(0,1,1,0,252.147,518.382)" d="M0 0H1.746L1.926-.018 2.052-.072 2.142-.18 2.196-.306V-.576L2.178-.594 2.016-.666 1.998-.648C1.928-.461 2.082-.27 1.764-.234H-.144V-.054L-.108 .036-.09 .072-.054 .054" fill-rule="evenodd"/><path transform="matrix(0,1,1,0,251.391,520.02)" d="M0 0V-.162L-.018-.198H-1.584V-.054L-1.566 .036-1.53 .09H-1.512L-1.476 .036H-.018" fill-rule="evenodd"/><path transform="matrix(0,1,1,0,249.123,517.896)" d="M0 0V3.312H-.198V2.394L-.342 2.52-.54 2.646-.558 2.682-.576 2.7H-.594L-.63 2.664-.702 2.466-.432 2.304-.234 2.142-.198 2.268V1.152L-.252 1.224-.702 .9-.612 .684-.414 .846-.198 .99V0" fill-rule="evenodd"/><path transform="matrix(0,1,1,0,248.403,520.47)" d="M0 0V.018 0" fill-rule="evenodd"/><path transform="matrix(0,1,1,0,248.403,520.47)" d="M0 0V-2.286L-.054-2.43-.126-2.556-.234-2.682-.378-2.808-.108-3.15-.018-3.186 0-3.222-.018-3.276-.108-3.312-.252-3.366-.306-3.294-.63-2.862H-1.476V-3.312H-1.692V-2.628H-.594L-.468-2.556-.378-2.466-.288-2.34-.234-2.196V.018L-.216 .072H-.18L-.036 .018" fill-rule="evenodd"/><path transform="matrix(0,1,1,0,245.505,518.238)" d="M0 0-.126-.306 .054-.432 .198-.144 .36 .162 .162 .288" fill-rule="evenodd"/><path transform="matrix(0,1,1,0,245.865,517.698)" d="M0 0-.288-.54-.126-.684 .18-.144" fill-rule="evenodd"/><path transform="matrix(0,1,1,0,243.903,517.41)" d="M0 0-.108 .162 .09 .306 .288 .414 .378 .234 .198 .126" fill-rule="evenodd"/><path transform="matrix(0,1,1,0,244.299,519.39)" d="M0 0 .144 .126H.198L.432 .036 .576-.054 .648-.162V-.27L.504-.396 .324-.522 .702-.972 .558-1.116 .36-.846 .108-.594-.558-.756-1.296-.828V-1.224H.162L.018-.9 .18-.864 .54-1.602 .63-1.638 .666-1.674 .63-1.728 .54-1.782 .414-1.836 .234-1.458H-1.494V-.864H-2.178L-2.142-.594-2.106-.558-2.034-.63H-1.494V.054H-1.296V-.612L-.702-.558-.108-.45-.522-.27-.936-.144-.864 .072-.828 .108H-.81L-.792 .09-.756 .036-.288-.144 .126-.342 .288-.252 .342-.18 .198-.126 0-.09-.036-.036" fill-rule="evenodd"/><path transform="matrix(0,1,1,0,243.399,520.542)" d="M0 0-.018 .918-.054 1.008-.306 1.098V1.062L-.216 .216-.198-.522-.234-1.062-.306-1.332H-.99V-.864H-1.188V-1.332H-1.746V-.774H-1.944V-1.332H-2.556V-.864H-2.754V-1.332H-3.168L-3.222-1.26-3.258-1.224-3.276-1.242-3.294-1.296-3.366-1.548H-2.754V-2.16H-2.556V-1.548H-1.944V-2.268H-1.746V-1.548H-.36L-.504-1.782-.666-1.944-1.296-1.854-1.314-1.8-1.35-1.782-1.368-1.8-1.404-1.872-1.44-2.088-.756-2.178-.432-2.232-.126-2.34-.018-2.376 .036-2.232 .054-2.178 .018-2.142-.18-2.07-.486-1.998-.324-1.782-.18-1.548-.09-1.26-.018-.936" fill-rule="evenodd"/><path transform="matrix(0,1,1,0,263.919,515.79)" stroke-width=".288" stroke-linecap="round" stroke-linejoin="round" fill="none" stroke="#000000" d="M0 0V.018"/><path transform="matrix(0,1,1,0,263.919,515.79)" stroke-width=".288" stroke-linecap="round" stroke-linejoin="round" fill="none" stroke="#000000" d="M0 0V.018"/><path transform="matrix(0,1,1,0,263.919,515.79)" stroke-width=".288" stroke-linecap="round" stroke-linejoin="round" fill="none" stroke="#000000" d="M0 0V.018"/><path transform="matrix(0,1,1,0,263.919,515.79)" d="M0 0V-.036C-.018-.054-.018-.072-.018-.09-.018-.126-.018-.162-.036-.198-.054-.27-.09-.36-.126-.432-.216-.576-.36-.702-.54-.792-.72-.9-.918-.936-1.116-.936-1.314-.918-1.476-.882-1.62-.81-1.764-.738-1.89-.648-1.998-.504-2.106-.36-2.178-.198-2.178-.018-2.178 .18-2.124 .342-2.016 .486-1.926 .63-1.782 .738-1.656 .81L-1.494 .504C-1.584 .45-1.674 .396-1.746 .306-1.818 .216-1.854 .108-1.854-.018-1.854-.126-1.8-.234-1.728-.324-1.656-.396-1.548-.468-1.458-.504-1.368-.54-1.242-.576-1.098-.576-.972-.576-.828-.558-.702-.504-.576-.432-.486-.36-.414-.27-.36-.18-.324-.072-.324 0-.342 .306-.54 .54-.792 .54H-.918V-.054H-1.206V.846H-.072V.54H-.252C-.09 .396 0 .198 0 0" fill-rule="evenodd"/><path transform="matrix(0,1,1,0,264.423,514.296)" d="M0 0V0" fill-rule="evenodd"/><path transform="matrix(0,1,1,0,243.129,515.142)" d="M0 0C.216 .162 .288 .36 .288 .576 .306 .738 .27 .9 .144 .954 .054 .99-.054 .99-.126 .936-.252 .864-.27 .72-.306 .576-.306 .558-.306 .54-.306 .522-.324 .396-.342 .27-.396 .144-.414 .09-.432 .036-.468-.018-.558-.126-.72-.198-.882-.198-1.044-.198-1.206-.126-1.314-.018-1.44 .126-1.494 .342-1.494 .522-1.494 .81-1.386 1.044-1.152 1.296L-.954 1.008C-1.098 .864-1.17 .666-1.17 .504-1.188 .414-1.17 .342-1.116 .27-1.062 .216-.99 .162-.918 .144-.9 .144-.9 .144-.882 .144-.81 .162-.738 .216-.702 .288-.684 .324-.666 .36-.666 .396L-.576 .864C-.558 .918-.558 .972-.522 1.008-.504 1.062-.486 1.116-.45 1.152-.36 1.242-.252 1.296-.144 1.314-.126 1.332-.108 1.332-.072 1.332-.054 1.332-.018 1.332 0 1.332 .018 1.332 .036 1.332 .054 1.332 .09 1.314 .108 1.314 .126 1.314 .162 1.296 .198 1.278 .234 1.278 .306 1.242 .378 1.188 .414 1.134 .558 .99 .612 .774 .612 .558 .612 .342 .54 .144 .432-.036 .378-.126 .306-.198 .234-.288L0 0" fill-rule="evenodd"/><path transform="matrix(0,1,1,0,242.409,513.99)" d="M0 0 .198-.27C.054-.414-.018-.63-.018-.774-.036-.882-.018-.954 .036-1.026 .09-1.08 .162-1.134 .234-1.134 .252-1.134 .252-1.134 .27-1.134 .342-1.134 .414-1.062 .45-1.008 .468-.972 .486-.936 .486-.882L.576-.414C.594-.36 .594-.324 .63-.27 .648-.216 .666-.18 .702-.126 .792-.054 .9 .018 1.008 .036 1.044 .054 1.098 .054 1.152 .054 1.332 .018 1.476-.036 1.566-.144 1.71-.288 1.764-.522 1.764-.72 1.764-.954 1.692-1.134 1.584-1.314 1.53-1.404 1.458-1.494 1.386-1.566L1.152-1.296C1.368-1.116 1.44-.918 1.44-.702 1.458-.54 1.422-.378 1.296-.324 1.206-.288 1.098-.306 1.026-.342 .9-.414 .882-.558 .846-.702 .846-.72 .846-.738 .846-.756 .828-.9 .81-1.008 .756-1.134 .738-1.188 .72-1.242 .684-1.296 .594-1.422 .432-1.494 .27-1.494 .108-1.494-.054-1.422-.162-1.296-.288-1.152-.342-.954-.342-.756-.342-.486-.234-.252 0 0" fill-rule="evenodd"/><path transform="matrix(0,1,1,0,246.189,512.316)" d="M0 0V.594H-1.278V1.44C-1.278 1.548-1.296 1.674-1.35 1.782-1.404 1.89-1.494 1.998-1.584 2.088-1.692 2.178-1.818 2.25-1.962 2.286-2.088 2.34-2.214 2.358-2.358 2.358-2.484 2.358-2.61 2.34-2.754 2.286-2.88 2.25-3.006 2.178-3.114 2.088-3.33 1.908-3.42 1.674-3.42 1.44V0H0ZM-1.782 1.296V.594H-2.916V1.296C-2.916 1.35-2.898 1.422-2.88 1.476-2.844 1.53-2.808 1.584-2.754 1.638-2.628 1.728-2.484 1.764-2.358 1.764-2.214 1.764-2.07 1.728-1.962 1.638-1.836 1.53-1.782 1.422-1.782 1.296" fill-rule="evenodd"/><path transform="matrix(0,1,1,0,251.931,515.718)" d="M0 0V.36H-.792V.702L0 1.098V1.476L-.81 1.062C-.9 1.332-1.206 1.494-1.512 1.44-1.818 1.404-2.052 1.188-2.052 .918V0H0ZM-1.728 .828C-1.728 .9-1.71 .972-1.638 1.026-1.584 1.08-1.494 1.098-1.422 1.098-1.332 1.098-1.26 1.08-1.188 1.026-1.116 .972-1.098 .9-1.098 .828V.36H-1.728V.828" fill-rule="evenodd"/><path transform="matrix(0,1,1,0,256.683,515.358)" d="M0 0 .36 .108V.432L-1.692-.216V-.666L.36-1.314V-.99L0-.882V0ZM-1.314-.45-.288-.108V-.774L-1.314-.45" fill-rule="evenodd"/><path transform="matrix(0,1,1,0,247.431,519.66)" d="M0 0V-.594H.126V-.828H-.792V.252H.126V0H0ZM-.198 0H-.594V-.59399H-.198Z" fill-rule="evenodd"/><path transform="matrix(0,1,1,0,248.223,518.454)" d="M0 0H1.404L1.512-.036 1.584-.09 1.638-.18V-.27L1.62-.396 1.584-.432 1.44-.486H1.404L1.386-.414V-.27L1.332-.234H.18V-1.926H1.584V-2.142H0V-1.926H-1.242V-.342H0V0ZM-.468-1.026H.000019997359V-.55801H-.468ZM0-1.026ZM-.648-.558H-1.044V-1.692H0V-1.26H-.648V-.558" fill-rule="evenodd"/><path transform="matrix(0,1,1,0,250.725,520.11)" d="M0 0 .126-.018 .234-.054 .324-.126 .396-.234 .468-.45 .45-.504 .414-.54 .324-.558 .27-.576 .252-.54 .216-.36 .126-.27-.036-.234H-.27V-1.044L-.252-1.062H.45L.468-1.098V-1.26L.45-1.296H-1.782L-1.8-1.26V-.036L-1.782 0H0ZM-.954-.27V-1.044L-.936-1.062H-.486L-.468-1.044V-.27L-.486-.234H-.936L-.954-.27ZM-1.602-1.044-1.584-1.062H-1.188L-1.152-1.044V-.27L-1.188-.234H-1.584L-1.602-.27V-1.044" fill-rule="evenodd"/><path transform="matrix(0,1,1,0,256.413,520.002)" d="M0 0V-1.476L.018-1.512H.576L.612-1.53V-1.71L.576-1.728H.018L0-1.764V-3.258L-.018-3.276H-.162L-.198-3.258V-1.764L-.216-1.728H-.54L-.576-1.764V-2.79L-.594-2.826H-1.854L-1.872-2.79V-1.764L-1.89-1.728H-2.196L-2.214-1.764V-3.06L-2.232-3.078H-2.376L-2.394-3.06V-1.764L-2.43-1.728H-2.808V-1.476L-2.79-1.44-2.772-1.422-2.736-1.458-2.7-1.512H-2.43L-2.394-1.476V-.216L-2.376-.18H-2.232L-2.214-.216V-1.476L-2.196-1.512H-1.89L-1.872-1.476V-.486L-1.854-.432H-.594L-.576-.486V-1.476L-.54-1.512H-.216L-.198-1.476V0L-.162 .018H-.018L0 0ZM-1.134-.702V-1.476L-1.098-1.512H-.774L-.756-1.476V-.702L-.774-.666H-1.098L-1.134-.702ZM-1.674-.702V-1.476L-1.656-1.512H-1.35L-1.314-1.476V-.702L-1.35-.666H-1.656L-1.674-.702ZM-1.314-2.574V-1.764L-1.35-1.728H-1.656L-1.674-1.764V-2.574L-1.656-2.592H-1.35L-1.314-2.574ZM-.756-1.764-.774-1.728H-1.098L-1.134-1.764V-2.574L-1.098-2.592H-.774L-.756-2.574V-1.764" fill-rule="evenodd"/><path transform="matrix(0,1,1,0,257.781,519.93)" d="M0 0 .27-.288 .504-.594H.558L.666-.468V-.414L.414-.072 .126 .216-.18 .486-.54 .72-1.17 .954-1.89 1.098-2.034 1.116-2.124 1.08-2.178 1.008-2.214 .9V.324L-2.538 .414-2.574 .486-2.61 .522-2.628 .504-2.664 .432-2.718 .198-2.214 .036-1.746-.162-1.296-.396-.9-.684-.792-.468-1.152-.198-.684 .504-.324 .27 0 0ZM-2.016 .882-1.386 .756-.9 .594-1.332-.09-2.016 .234V.882" fill-rule="evenodd"/><path transform="matrix(0,1,1,0,256.629,527.22)" d="M0 0 .432-.45 .756-.954 .774-1.026 .756-1.062 .522-1.296 .468-1.332 .396-1.242 .072-.702-.306-.324-.612-.54-.99-.756-.702-.99-.954-1.296-1.44-.9-1.512-.81-1.548-.72-1.512-.63-1.44-.522-.972-.306-.756-.144-1.692-.054V-1.134H-3.654V-.054H-4.788L-4.77 .252-4.752 .414-4.698 .486-4.644 .45-4.572 .324H-3.654V1.368H-1.692V.324L-.972 .288-.396 .198 .054 .828 .432 1.602 .486 1.692 .54 1.656 .738 1.422 .81 1.296 .432 .612 0 0ZM-3.348 .324H-2.034V.99002H-3.348ZM-2.034-.054H-3.348V-.75601H-2.034ZM-3.348-.054" fill-rule="evenodd"/><path transform="matrix(0,1,1,0,252.831,522.63)" d="M0 0H3.474V.378H3.222V2.052L3.996 2.034 3.528 1.818 3.618 1.494 4.356 1.8 4.266 2.034 4.572 1.962 4.734 1.908 4.842 1.836 4.896 1.746 4.914 1.656V1.296L4.932 1.242 4.968 1.224 5.238 1.296 5.328 1.35C5.395 1.842 5.384 2.131 4.878 2.322L4.032 2.412 2.916 2.43V1.53H2.25V2.268H1.944V1.53H1.314V2.268H.99V1.53H.306V2.376H0V0ZM2.25 1.152H2.91595V.37799997H2.25ZM2.916 1.152ZM1.314 1.152H1.944V.37799997H1.314ZM.306 1.152H.99002V.37799997H.306ZM.99 1.152" fill-rule="evenodd"/><path transform="matrix(0,1,1,0,243.885,524.214)" d="M0 0H1.062V-3.618H0ZM.324-3.24H.75601V-.37800003H.324Z" fill-rule="evenodd"/><path transform="matrix(0,1,1,0,246.603,513.612)" d="M0 0C0-.216 .108-.468 .324-.666 .432-.756 .558-.828 .684-.864 .828-.918 .954-.936 1.08-.936 1.224-.936 1.35-.918 1.494-.864 1.62-.828 1.746-.756 1.854-.666 2.07-.468 2.178-.216 2.178 0 2.178 .234 2.07 .468 1.854 .666 1.746 .756 1.62 .828 1.494 .882 1.35 .918 1.224 .936 1.08 .936 .954 .936 .828 .918 .684 .882 .558 .828 .432 .756 .324 .666 .108 .468 0 .234 0 0ZM.324 0C.324 .162 .414 .306 .558 .414 .684 .522 .882 .594 1.08 .594 1.278 .594 1.476 .54 1.62 .414 1.782 .306 1.854 .144 1.854 0 1.854-.144 1.764-.306 1.62-.414 1.476-.522 1.296-.576 1.08-.576 .9-.576 .702-.522 .558-.414 .396-.288 .324-.144 .324 0" fill-rule="evenodd"/><path transform="matrix(0,1,1,0,265.053,505.908)" d="M0 0V-32.526C0-32.742 .036-32.958 .126-33.174 .216-33.408 .36-33.606 .54-33.786 .702-33.966 .918-34.11 1.134-34.182 1.368-34.272 1.584-34.308 1.8-34.308H23.58C23.796-34.308 24.03-34.272 24.246-34.182 24.48-34.11 24.678-33.966 24.858-33.786 25.038-33.606 25.164-33.408 25.254-33.174 25.344-32.958 25.38-32.742 25.38-32.526V0C25.38 .216 25.344 .432 25.254 .666 25.164 .882 25.038 1.098 24.858 1.278 24.678 1.44 24.48 1.584 24.246 1.674 24.03 1.764 23.796 1.8 23.58 1.8H1.8C1.584 1.8 1.368 1.764 1.134 1.674 .918 1.584 .702 1.44 .54 1.278 .36 1.098 .216 .882 .126 .666 .036 .432 0 .216 0 0ZM1.8 .9H23.58C23.832 .9 24.048 .81 24.228 .63 24.39 .468 24.48 .234 24.48 0V-32.526C24.48-32.76 24.39-32.994 24.228-33.156 24.048-33.318 23.832-33.426 23.58-33.426H1.8C1.566-33.426 1.332-33.318 1.17-33.156 1.008-32.994 .9-32.76 .9-32.526V0C.9 .234 1.008 .468 1.17 .63 1.332 .81 1.566 .9 1.8 .9" fill-rule="evenodd"/></g></svg>