<?xml version='1.0' encoding='UTF-8'?>
<svg width="429.62" height="261.14" viewBox="69.95 5.33 429.62 261.14" xmlns="http://www.w3.org/2000/svg" xmlns:xlink="http://www.w3.org/1999/xlink" xmlns:inkscape="http://www.inkscape.org/namespaces/inkscape" version="1.1"><g transform="scale(10.0) translate(-438.573, -558.864)"><defs><clipPath id="clip_19"><path transform="matrix(0,1,1,0,0,0)" d="M0 74.451H595.008V767.55899H0Z"/></clipPath><clipPath id="clip_20"><path transform="matrix(0,1,1,0,0,0)" d="M0 842.013H595.224V.008972168H0Z"/></clipPath></defs><path transform="matrix(0,1,1,0,447.159,574.308)" d="M0 0V39.78C0 39.924-.054 40.068-.162 40.194-.288 40.32-.45 40.356-.594 40.356H-13.302C-13.446 40.356-13.608 40.32-13.734 40.194-13.842 40.068-13.896 39.924-13.896 39.78V0C-13.896-.144-13.842-.288-13.734-.414-13.608-.54-13.446-.594-13.302-.594H-.594C-.45-.594-.288-.54-.162-.414-.054-.288 0-.144 0 0" fill="#ffff00" fill-rule="evenodd"/><path transform="matrix(0,1,1,0,486.939,584.514)" d="M0 0V-39.78C0-39.852-.018-39.924-.054-39.996-.072-40.068-.126-40.14-.18-40.194-.234-40.248-.306-40.302-.378-40.32-.45-40.356-.522-40.374-.594-40.374H-9.018C-9.162-40.374-9.324-40.32-9.432-40.194-9.558-40.068-9.612-39.924-9.612-39.78V0C-9.612 .072-9.594 .144-9.576 .216-9.54 .288-9.504 .36-9.432 .414-9.378 .468-9.306 .522-9.234 .54-9.162 .576-9.09 .576-9.018 .576H-.594C-.522 .576-.45 .576-.378 .54-.306 .522-.234 .468-.18 .414-.126 .36-.072 .288-.054 .216-.018 .144 0 .072 0 0" fill="#ffffff" fill-rule="evenodd"/><path transform="matrix(0,1,1,0,447.159,559.818)" d="M0 0V39.78C0 40.086 .126 40.392 .342 40.608 .576 40.824 .864 40.95 1.188 40.95H24.102C24.408 40.95 24.714 40.824 24.93 40.608 25.164 40.392 25.272 40.086 25.272 39.78V0C25.272-.306 25.164-.612 24.93-.828 24.714-1.062 24.408-1.17 24.102-1.17H1.188C1.044-1.17 .9-1.152 .738-1.098 .594-1.044 .468-.954 .342-.828 .234-.72 .144-.576 .09-.432 .018-.288 0-.144 0 0ZM.594 39.78V0C.594-.072 .612-.144 .63-.216 .666-.288 .702-.36 .756-.414 .882-.54 1.044-.594 1.188-.594H13.896C14.04-.594 14.202-.54 14.328-.414 14.436-.288 14.49-.144 14.49 0V39.78C14.49 39.924 14.436 40.086 14.328 40.194 14.202 40.302 14.058 40.356 13.896 40.356H1.188C1.044 40.356 .882 40.32 .756 40.194 .702 40.14 .666 40.068 .63 39.996 .612 39.924 .594 39.852 .594 39.78ZM15.084 39.78V0C15.084-.144 15.138-.288 15.264-.414 15.372-.54 15.534-.594 15.678-.594H24.102C24.246-.594 24.39-.54 24.516-.414 24.642-.288 24.696-.144 24.696 0V39.78C24.696 39.924 24.642 40.068 24.516 40.194 24.39 40.32 24.246 40.356 24.102 40.356H15.678C15.534 40.356 15.372 40.32 15.264 40.194 15.138 40.068 15.084 39.924 15.084 39.78" fill-rule="evenodd"/><path transform="matrix(0,1,1,0,447.951,582.966)" d="M0 0V3.438H-.216V1.674H-1.818V3.114H-2.016V1.674H-3.294L-3.33 1.728H-3.366L-3.402 1.674-3.42 1.566V1.422H-.216V0" fill-rule="evenodd"/><path transform="matrix(0,1,1,0,454.197,581.58)" d="M0 0V1.53H-.198V0H-1.368V1.206H-1.584V-1.026L-1.926-.846-1.944-.774-1.98-.756-2.034-.792-2.07-.9-2.142-1.044-1.44-1.386-.792-1.818-.648-1.62-1.008-1.368-1.368-1.134V-.234H-.198V-1.926H0V-.234H1.494V0" fill-rule="evenodd"/><path transform="matrix(0,1,1,0,458.049,581.04)" d="M0 0-.27 2.034-.504 2.016-.234 0H-1.332L-1.368 .054-1.404 .072-1.44 .036-1.458-.036-1.494-.234H-.198L-.036-1.458 .216-1.422 .036-.234H1.638L1.746-.216 1.836-.162 1.89-.054 1.926 .054V1.278L1.872 1.494 1.782 1.692 1.602 1.836 1.368 1.962 1.116 2.052 1.062 1.998 1.008 1.854 1.044 1.836 1.458 1.674 1.638 1.512 1.71 1.314V.342L1.692 .108 1.602 0" fill-rule="evenodd"/><path transform="matrix(0,1,1,0,463.467,580.842)" d="M0 0V.9L.018 .936H.18L.198 .9V-1.224L.18-1.242H.018L0-1.224V-.324L-.018-.288H-.648L-.684-.324V-1.026L-.702-1.062H-.864L-.882-1.026V-.324L-.9-.288H-1.35L-1.386-.252-1.35-.108-1.332-.018-1.314 .018H-1.278L-1.224-.036H-.9L-.882 0V.684L-.864 .702H-.702L-.684 .684V0L-.648-.036H-.018" fill-rule="evenodd"/><path transform="matrix(0,1,1,0,463.881,581.778)" d="M0 0V.396L-.018 .432H-.18L-.198 .396V0L-.234-.036H-.486L-.522 .018H-.558L-.594-.054-.612-.162V-.234L-.594-.288H-.234L-.198-.306V-1.512L-.18-1.548H-.018L0-1.512V-.306L.018-.288H.9L.99-.306 1.026-.378V-.684L1.044-.738H1.08L1.206-.702 1.242-.666 1.26-.612V-.198L1.224-.126 1.17-.072 1.098-.036H.018" fill-rule="evenodd"/><path transform="matrix(0,1,1,0,462.981,582.552)" d="M0 0-.198 .144-.432-.144-.612-.468-.432-.612-.234-.288" fill-rule="evenodd"/><path transform="matrix(0,1,1,0,467.139,581.868)" d="M0 0V1.278H-.198V0H-.576L-.63 .108-.684 .126-.72 .108-.738 0V-.234H-.198V-1.53H0V-.234H.756V-1.818H.954V1.602H.756V0" fill-rule="evenodd"/><path transform="matrix(0,1,1,0,467.733,580.14)" d="M0 0 .45 .342 .63-1.44-.27-.792V.882H-.468V-2.322H-.27V-1.08L.63-1.692 .666-2.25 .828-2.196 .918-2.142 .972-2.088 .954-2.052 .9-2.034 .63 .468 1.026 .666 .954 .9 .396 .576-.108 .198" fill-rule="evenodd"/><path transform="matrix(0,1,1,0,471.459,580.86)" d="M0 0 .342 .558 .702 1.062 .54 1.224 .108 .648-.27 0H-1.08V1.638H-1.278V-1.818H-1.08V-.27H2.052V0" fill-rule="evenodd"/><path transform="matrix(0,1,1,0,475.905,581.58)" d="M0 0V1.53H-.198V0H-1.368V1.206H-1.584V-1.026L-1.926-.846-1.944-.774-1.98-.756-2.034-.792-2.07-.9-2.142-1.044-1.44-1.386-.792-1.818-.648-1.62-1.008-1.368-1.368-1.134V-.252H-.198V-1.926H0V-.252H1.494V0" fill-rule="evenodd"/><path transform="matrix(0,1,1,0,481.791,580.77)" d="M0 0 .27-2.034H1.872L1.962-1.926 1.98-1.692V-.72L1.908-.522 1.728-.36 1.314-.216 1.278-.198 1.332-.036 1.386 .018 1.638-.072 1.872-.198 2.052-.342 2.142-.54 2.196-.774V-1.98L2.16-2.106 2.106-2.196 2.016-2.25 1.908-2.286H.306L.486-3.456 .234-3.51 .072-2.286H-1.224L-1.188-2.07-1.17-1.998-1.134-1.962-1.098-1.98-1.062-2.034H.036L-.234-.018" fill-rule="evenodd"/><path transform="matrix(0,1,1,0,485.157,580.842)" d="M0 0V.918L.018 .954H.18L.198 .918V-1.206L.18-1.242H.018L0-1.206V-.306L-.018-.27H-.648L-.684-.306V-1.008L-.702-1.044H-.864L-.882-1.008V-.306L-.9-.27H-1.35L-1.386-.234-1.35-.09-1.332-.018-1.314 .036-1.278 .018-1.224-.018H-.9L-.882 0V.702L-.864 .72H-.702L-.684 .702V0L-.648-.018H-.018" fill-rule="evenodd"/><path transform="matrix(0,1,1,0,484.401,582.318)" d="M0 0 .234 .288 .036 .432-.198 .144-.378-.18-.198-.324" fill-rule="evenodd"/><path transform="matrix(0,1,1,0,485.301,582.678)" d="M0 0 .09-.018 .126-.09V-.396L.144-.45H.18L.306-.414 .342-.378 .36-.324V.09L.324 .162 .27 .216 .198 .252H-.882L-.9 .288V.684L-.918 .72H-1.08L-1.098 .684V.288L-1.134 .252H-1.386L-1.422 .306H-1.458L-1.494 .234-1.512 .126V.036L-1.494 0H-1.134L-1.098-.018V-1.224L-1.08-1.26H-.918L-.9-1.224V-.018L-.882 0" fill-rule="evenodd"/><path transform="matrix(0,1,1,0,461.811,582.12)" d="M0 0H.18L.216 .018V.198L.18 .234H-2.268L-2.286 .198V-.828L-2.268-.864H.468L.486-.828V-.648L.468-.612H0L-.018-.576V-.036L0 0ZM-.216-.036V-.576L-.234-.612H-1.062L-1.08-.576V-.036L-1.062 0H-.234L-.216-.036ZM-1.278-.036V-.576L-1.296-.612H-2.07L-2.088-.576V-.036L-2.07 0H-1.296L-1.278-.036" fill-rule="evenodd"/><path transform="matrix(0,1,1,0,483.483,582.102)" d="M0 0 .018 .018H.198L.234 .054V.234L.198 .27H-2.25L-2.268 .234V-.81L-2.25-.828H.486L.504-.81V-.612L.486-.576H.018L0-.54V0ZM-1.062-.54V0L-1.044 .018H-.216L-.198 0V-.54L-.216-.576H-1.044L-1.062-.54ZM-2.052 .018H-1.278L-1.26 0V-.54L-1.278-.576H-2.052L-2.07-.54V0L-2.052 .018" fill-rule="evenodd"/><path transform="matrix(0,1,1,0,473.421,567.414)" d="M0 0C-.378 0-.756-.036-1.152-.108-1.548-.18-1.944-.288-2.322-.45-3.114-.756-3.852-1.224-4.464-1.854-5.094-2.484-5.562-3.204-5.868-3.996-6.03-4.392-6.138-4.788-6.21-5.166-6.282-5.562-6.318-5.958-6.318-6.318-6.318-6.696-6.282-7.074-6.21-7.47-6.138-7.866-6.03-8.262-5.868-8.658-5.562-9.432-5.094-10.17-4.464-10.8-3.852-11.412-3.114-11.898-2.322-12.204-1.944-12.348-1.548-12.474-1.152-12.546-.756-12.618-.378-12.636 0-12.636 .378-12.636 .756-12.618 1.152-12.546 1.548-12.474 1.944-12.348 2.322-12.204 3.114-11.898 3.852-11.412 4.464-10.8 5.094-10.17 5.562-9.432 5.868-8.658 6.03-8.262 6.138-7.866 6.21-7.47 6.282-7.074 6.318-6.696 6.318-6.318 6.318-5.958 6.282-5.562 6.21-5.166 6.138-4.788 6.03-4.392 5.868-3.996 5.562-3.204 5.094-2.484 4.464-1.854 3.852-1.224 3.114-.756 2.322-.45 1.944-.288 1.548-.18 1.152-.108 .756-.036 .378 0 0 0ZM-4.086-3.312-1.062-6.318-4.086-9.342C-4.374-8.928-4.626-8.478-4.806-7.956-4.986-7.434-5.076-6.894-5.076-6.318-5.076-5.76-4.986-5.22-4.806-4.698-4.626-4.176-4.374-3.708-4.086-3.312ZM2.988-10.386C2.124-11.034 1.062-11.376-.018-11.376-1.098-11.376-2.16-11.034-3.042-10.386L-.018-7.362 2.988-10.386ZM1.026-6.318 4.032-3.312C4.68-4.176 5.04-5.238 5.04-6.318 5.04-7.416 4.68-8.478 4.032-9.342L1.026-6.318ZM-3.042-2.268C-2.16-1.62-1.098-1.278-.018-1.278 1.062-1.278 2.124-1.62 2.988-2.268L-.018-5.292-3.042-2.268" fill-rule="evenodd"/><path transform="matrix(0,1,1,0,471.153,564.372)" d="M0 0 3.024-3.024 6.03 0C5.634 .306 5.166 .558 4.644 .72 4.14 .9 3.582 .99 3.024 .99 2.466 .99 1.908 .9 1.386 .72 .882 .558 .414 .306 0 0" fill="#e1e1e1" fill-rule="evenodd"/><path transform="matrix(0,1,1,0,470.109,563.328)" d="M0 0 3.024-3.006 0-6.03C-.288-5.616-.54-5.166-.72-4.644-.9-4.122-.99-3.582-.99-3.006-.99-2.448-.9-1.908-.72-1.386-.54-.864-.288-.396 0 0" fill="#e1e1e1" fill-rule="evenodd"/><path transform="matrix(0,1,1,0,470.109,571.446)" d="M0 0-3.006-3.006 0-6.03C.306-5.616 .558-5.166 .738-4.644 .918-4.122 1.008-3.582 1.008-3.006 1.008-2.448 .918-1.908 .738-1.386 .558-.864 .306-.396 0 0" fill="#e1e1e1" fill-rule="evenodd"/><path transform="matrix(0,1,1,0,463.035,570.402)" d="M0 0-3.006 3.024-6.03 0C-5.616-.306-5.148-.558-4.644-.72-4.122-.9-3.564-.99-3.006-.99-2.448-.99-1.89-.9-1.386-.72-.864-.558-.396-.306 0 0" fill="#e1e1e1" fill-rule="evenodd"/><path transform="matrix(0,1,1,0,460.011,577.944)" d="M0 0V.486L-1.764 1.206H-2.214V-.36H-1.764V.72" fill-rule="evenodd"/><path transform="matrix(0,1,1,0,464.529,576.666)" d="M0 0C0 .126 .054 .216 .126 .216H1.224V.648H.216C.18 .666 .108 .684 .072 .738 .018 .81 0 .882 0 .936 0 .99 .018 1.044 .036 1.098 .072 1.134 .108 1.152 .144 1.152H1.224V1.584H.072C.054 1.584 .036 1.584 .036 1.584 .018 1.584 .018 1.566 0 1.566H-.018C-.018 1.566 0 1.566-.018 1.566-.018 1.566-.036 1.566-.054 1.548-.288 1.458-.414 1.26-.432 .972-.432 .774-.36 .63-.216 .522-.36 .432-.432 .288-.432 .09-.432 .018-.414-.036-.396-.108-.378-.162-.342-.234-.306-.288H-.378V-.72H1.224V-.27H.234C.18-.27 .126-.252 .072-.18 .018-.126 0-.054 0 0" fill-rule="evenodd"/><path transform="matrix(0,1,1,0,0,0)" d="M577.098 466.527H577.458V467.247H577.098Z"/><path transform="matrix(0,1,1,0,468.615,576.126)" d="M0 0 1.764-.702V-.216L0 .486H-.45V-1.08H0" fill-rule="evenodd"/><path transform="matrix(0,1,1,0,473.421,577.926)" d="M0 0V-.45H-1.098C-1.17-.45-1.224-.54-1.224-.666-1.224-.72-1.206-.792-1.17-.846-1.116-.9-1.062-.936-1.008-.936H0V-1.368H-1.602V-.954H-1.53C-1.584-.882-1.602-.828-1.638-.774-1.656-.702-1.674-.648-1.674-.576-1.656-.36-1.584-.216-1.44-.144-1.602-.036-1.674 .126-1.674 .306-1.656 .612-1.53 .81-1.296 .9-1.26 .9-1.26 .9-1.242 .918H-1.206C-1.188 .918-1.17 .918-1.17 .918H0V.486H-1.098C-1.134 .486-1.17 .468-1.188 .432-1.224 .396-1.224 .324-1.224 .27-1.224 .216-1.206 .144-1.17 .09-1.116 .036-1.062 0-1.008 0H0" fill-rule="evenodd"/><path transform="matrix(0,1,1,0,471.711,577.116)" d="M0 0C.234 0 .468-.054 .63-.198 .81-.324 .882-.522 .882-.72 .882-.882 .828-1.062 .738-1.098H1.35V-1.548H-.81V-1.134H-.738C-.774-1.116-.792-1.08-.828-.99-.846-.918-.864-.81-.864-.738-.864-.27-.54 0 0 0ZM.198-1.098C.324-1.098 .468-.936 .468-.792 .468-.738 .45-.666 .414-.594 .378-.522 .306-.468 .252-.45H.234L.18-.432H-.18L-.234-.45H-.252C-.324-.468-.378-.522-.414-.594-.468-.666-.468-.72-.468-.774V-.81C-.45-.954-.342-1.098-.234-1.098H.198" fill-rule="evenodd"/><path transform="matrix(0,1,1,0,462.603,577.962)" d="M0 0C0 .162-.09 .36-.18 .396-.108 .414-.072 .468-.054 .54-.018 .612-.018 .702-.018 .81L-.342 .918C-.342 .882-.342 .828-.36 .81-.378 .792-.414 .774-.45 .774H-1.278C-1.584 .72-1.746 .504-1.728 .09-1.728-.054-1.71-.18-1.674-.306-1.638-.414-1.566-.522-1.476-.594L-1.17-.378C-1.278-.252-1.35-.09-1.332 .108-1.332 .18-1.332 .216-1.296 .252-1.278 .27-1.26 .288-1.242 .288-1.224 .306-1.188 .306-1.17 .306H-1.098C-1.098-.324-.918-.63-.576-.63-.396-.63-.252-.576-.144-.468-.036-.36 0-.198 0 0ZM-.486 .306C-.414 .27-.378 .198-.378 .09-.378 0-.378-.072-.414-.108-.45-.162-.486-.18-.558-.18-.612-.162-.666-.126-.702-.054-.738 .036-.756 .144-.756 .306H-.486" fill-rule="evenodd"/></g></svg>