<?xml version='1.0' encoding='UTF-8'?>
<svg width="255.02" height="255.02" viewBox="157.34 8.48 255.02 255.02" xmlns="http://www.w3.org/2000/svg" xmlns:xlink="http://www.w3.org/1999/xlink" xmlns:inkscape="http://www.inkscape.org/namespaces/inkscape" version="1.1"><g transform="scale(10.0) translate(-329.439, -262.656)"><defs><clipPath id="clip_19"><path transform="matrix(0,1,1,0,0,0)" d="M0 74.451H595.008V767.55899H0Z"/></clipPath><clipPath id="clip_20"><path transform="matrix(0,1,1,0,0,0)" d="M0 842.013H595.224V.008972168H0Z"/></clipPath></defs><path transform="matrix(0,1,1,0,370.425,276.264)" d="M0 0C-1.656 0-3.276-.324-4.788-.954-6.318-1.584-7.686-2.502-8.856-3.654-10.008-4.824-10.926-6.21-11.556-7.722-12.186-9.234-12.51-10.872-12.51-12.51-12.51-14.148-12.186-15.768-11.556-17.298-10.926-18.81-10.008-20.178-8.856-21.348-7.686-22.5-6.318-23.436-4.788-24.066-3.276-24.678-1.656-25.002 0-25.002 1.638-25.002 3.258-24.678 4.77-24.066 6.3-23.436 7.668-22.5 8.838-21.348 9.99-20.178 10.908-18.81 11.538-17.298 12.168-15.768 12.492-14.148 12.492-12.51 12.492-10.872 12.168-9.234 11.538-7.722 10.908-6.21 9.99-4.824 8.838-3.654 7.668-2.502 6.3-1.584 4.77-.954 3.258-.324 1.638 0 0 0" fill="#ff0000" fill-rule="evenodd"/><path transform="matrix(0,1,1,0,367.923,276.264)" d="M0 0C-1.314 0-2.628-.252-3.834-.756-5.058-1.26-6.156-1.998-7.074-2.934-8.01-3.852-8.748-4.968-9.252-6.174-9.756-7.38-10.008-8.694-10.008-10.008-10.008-11.322-9.756-12.618-9.252-13.824-8.748-15.048-8.01-16.146-7.074-17.082-6.156-18-5.058-18.738-3.834-19.242-2.628-19.746-1.314-20.016 0-20.016 1.296-20.016 2.61-19.746 3.816-19.242 5.04-18.738 6.138-18 7.074-17.082 7.992-16.146 8.73-15.048 9.234-13.824 9.738-12.618 9.99-11.322 9.99-10.008 9.99-8.694 9.738-7.38 9.234-6.174 8.73-4.968 7.992-3.852 7.074-2.934 6.138-1.998 5.04-1.26 3.816-.756 2.61-.252 1.296 0 0 0" fill="#ffffff" fill-rule="evenodd"/><path transform="matrix(0,1,1,0,357.915,270.414)" d="M0 0-3.33-2.502V2.502" fill-rule="evenodd"/><path transform="matrix(0,1,1,0,357.915,282.096)" d="M0 0 3.33 2.502V-2.502" fill-rule="evenodd"/><path transform="matrix(0,1,1,0,361.731,276.444)" d="M0 0C0-.126 .036-.27 .126-.378 .216-.486 .342-.558 .432-.558H2.412V-1.422H.252C.108-1.44 0-1.62 0-1.854 0-1.962 .036-2.106 .126-2.232 .216-2.34 .342-2.394 .432-2.412H2.412V-3.276H-.756V-2.43H-.612C-.684-2.304-.756-2.196-.792-2.07-.846-1.944-.864-1.818-.864-1.674-.864-1.278-.72-.99-.432-.828-.72-.612-.864-.324-.864 .054-.846 .648-.594 1.044-.126 1.224-.072 1.242-.054 1.242-.036 1.242-.018 1.26 0 1.26 0 1.26 .018 1.26 .036 1.26 .054 1.26 .072 1.26 .108 1.278 .126 1.278H2.412V.414H.27C.234 .414 .198 .414 .162 .396 .126 .378 .108 .342 .072 .306 .018 .216 0 .108 0 0" fill-rule="evenodd"/><path transform="matrix(0,1,1,0,354.351,279.018)" d="M0 0C0 .522-.108 .954-.342 1.224-.576 1.512-.918 1.638-1.368 1.638-1.872 1.638-2.232 1.494-2.412 1.224-2.646 1.458-2.97 1.584-3.312 1.584-3.744 1.584-4.086 1.44-4.338 1.152-4.572 .864-4.698 .432-4.698-.09-4.698-.306-4.662-.54-4.59-.756-4.536-.954-4.428-1.152-4.302-1.296-4.176-1.458-4.014-1.566-3.834-1.656-3.672-1.728-3.474-1.764-3.276-1.764L-3.204-.846C-3.546-.846-3.798-.558-3.834-.126-3.834-.036-3.834 .036-3.816 .108-3.744 .468-3.546 .666-3.312 .648-3.06 .63-2.88 .504-2.826 .288H-2.808V-.342H-2.016V.288C-2.016 .36-1.962 .468-1.854 .558-1.746 .648-1.638 .684-1.548 .684-1.17 .702-.954 .468-.918 .036-.918-.234-.972-.45-1.098-.612-1.206-.774-1.368-.846-1.548-.846L-1.422-1.8C-.99-1.8-.63-1.62-.378-1.314-.126-.99 0-.54 0 0" fill-rule="evenodd"/></g></svg>