<?xml version='1.0' encoding='UTF-8'?>
<svg width="425.03" height="258.53" viewBox="72.15 6.81 425.03 258.53" xmlns="http://www.w3.org/2000/svg" xmlns:xlink="http://www.w3.org/1999/xlink" xmlns:inkscape="http://www.inkscape.org/namespaces/inkscape" version="1.1"><g transform="scale(10.0) translate(-547.707, -101.088)"><defs><clipPath id="clip_19"><path transform="matrix(0,1,1,0,0,0)" d="M0 74.451H595.008V767.55899H0Z"/></clipPath><clipPath id="clip_20"><path transform="matrix(0,1,1,0,0,0)" d="M0 842.013H595.224V.008972168H0Z"/></clipPath></defs><path transform="matrix(0,1,1,0,595.857,117.108)" d="M0 0V-39.348C0-39.492 .054-39.654 .18-39.762 .288-39.888 .45-39.942 .594-39.942H8.928C9.072-39.942 9.216-39.888 9.342-39.762 9.45-39.654 9.504-39.492 9.504-39.348V0C9.504 .126 9.45 .288 9.342 .414 9.216 .522 9.072 .576 8.928 .576H.594C.522 .576 .45 .558 .378 .54 .306 .504 .234 .468 .18 .414 .126 .342 .072 .288 .054 .216 .018 .126 0 .054 0 0" fill="#ffffff" fill-rule="evenodd"/><path transform="matrix(0,1,1,0,595.857,116.532)" d="M0 0V-39.348C0-39.492-.054-39.654-.18-39.762-.288-39.888-.45-39.942-.594-39.942H-13.176C-13.248-39.942-13.32-39.924-13.392-39.906-13.464-39.87-13.536-39.834-13.59-39.762-13.644-39.708-13.68-39.636-13.716-39.564-13.752-39.492-13.752-39.42-13.752-39.348V0C-13.752 .126-13.698 .288-13.59 .414-13.536 .468-13.464 .504-13.392 .54-13.32 .558-13.248 .576-13.176 .576H-.594C-.45 .576-.288 .522-.18 .414-.054 .288 0 .126 0 0" fill="#ffff00" fill-rule="evenodd"/><path transform="matrix(0,1,1,0,567.147,118.386)" d="M0 0 .036-.036C.512-.319 1.041-.526 1.602-.54H1.656V-.882H1.602L1.494-.864C1.226-.808 1.057-.827 .792-.72L.702-.702 .594-.648C.464-.576 .223-.503 .09-.414L.054-.378 0-.342V-1.062H-.324V0" fill-rule="evenodd"/><path transform="matrix(0,1,1,0,0,0)" d="M118.944 572.817H119.142V573.465H118.944Z"/><path transform="matrix(0,1,1,0,574.239,118.062)" d="M0 0H1.962V.306H.486L.576 .324 1.962 .63V.954L.576 1.26 .486 1.278H1.962V1.584H0V1.116L1.332 .81 1.494 .792 1.332 .774 0 .468" fill-rule="evenodd"/><path transform="matrix(0,1,1,0,0,0)" d="M118.602 576.741H120.023998V577.029H118.602Z"/><path transform="matrix(0,1,1,0,0,0)" d="M118.062 576.741H118.38601V577.029H118.062Z"/><path transform="matrix(0,1,1,0,579.873,119.178)" d="M0 0H.846V-.342H-.63V-.036L-.486-.018-.594 .054-.63 .09C-.639 .203-.74 .254-.648 .432L-.63 .486V.504C-.518 .658-.319 .687-.144 .702H-.054L.846 .72V.378H-.036L-.108 .36H-.162L-.216 .324-.306 .27-.324 .252V.126L-.306 .108-.216 .054-.198 .036-.162 .018H-.126L-.054 0H-.018" fill-rule="evenodd"/><path transform="matrix(0,1,1,0,0,0)" d="M118.602 581.205H120.023998V581.49307H118.602Z"/><path transform="matrix(0,1,1,0,0,0)" d="M118.062 581.205H118.38601V581.49307H118.062Z"/><path transform="matrix(0,1,1,0,584.643,119.106)" d="M0 0H.918V.306H-.126C-.245 .259-.403 .234-.468 .108L-.486 .09-.504 .072C-.579-.048-.578-.15-.504-.27L-.468-.324-.36-.396V-.414H-1.044V-.72H.918V-.396H-.018L-.09-.378-.162-.306-.18-.27-.198-.216V-.198L-.18-.126-.144-.09-.126-.036H-.09L-.054-.018" fill-rule="evenodd"/><path transform="matrix(0,1,1,0,585.759,118.062)" d="M0 0V.288H.486V.504H.738V.288H1.494L1.548 .324 1.62 .36 1.638 .396 1.656 .45V.522H1.962V.234L1.944 .162 1.872 .09 1.836 .036 1.782 .018 1.746 0H1.692L1.638-.018H.738V-.18H.486V-.018H0" fill-rule="evenodd"/><path transform="matrix(0,1,1,0,572.133,120.024)" d="M0 0V-.324H-.882L-.954-.342H-1.008L-1.062-.378-1.152-.432-1.17-.468V-.576L-1.152-.594-1.062-.666H-1.044L-.972-.702H0V-1.026H-.882L-.954-1.044H-1.008L-1.062-1.08-1.152-1.134-1.17-1.17V-1.278L-1.152-1.296-1.062-1.35-1.044-1.368-.972-1.404H0V-1.746H-1.476V-1.44H-1.332L-1.44-1.35-1.476-1.314V-1.278L-1.512-1.206-1.53-1.152V-1.08L-1.512-1.008-1.494-.972-1.476-.936V-.9L-1.422-.846-1.386-.81-1.332-.774-1.26-.738-1.35-.702H-1.386V-.684L-1.404-.666H-1.422L-1.476-.612V-.576L-1.512-.504-1.53-.45V-.378L-1.512-.306-1.494-.27-1.476-.234V-.198L-1.386-.108-1.332-.072-1.278-.054-1.188-.036-1.134-.018-1.062 0H-.9" fill-rule="evenodd"/><path transform="matrix(0,1,1,0,569.649,120.024)" d="M0 0V-.324L-.18-.342-.108-.396-.054-.432C.326-.873-.461-1.379-.756-.936L-.792-.882-.828-.828-.846-.756-.864-.72-.9-.576V-.432L-.954-.378-.99-.36H-1.062L-1.098-.378-1.152-.414-1.188-.486V-.594L-1.17-.648-1.152-.684-1.116-.72-1.062-.738-.99-.756-1.008-1.026H-1.08L-1.17-.99C-1.418-.91-1.53-.634-1.458-.396L-1.44-.342-1.404-.288-1.368-.234-1.314-.18-1.278-.144-1.224-.108-1.17-.09-1.026-.054H-.144L-.072-.036H-.018L0 0ZM-.738-.342-.72-.378-.702-.396-.63-.648-.594-.72-.54-.774H-.522L-.432-.792-.378-.774H-.342L-.324-.738-.288-.684-.27-.648-.252-.612-.27-.54-.306-.486-.324-.432-.396-.396-.432-.378-.522-.36-.738-.342" fill-rule="evenodd"/><path transform="matrix(0,1,1,0,577.677,119.178)" d="M0 0H.09C.281-.011 .458 .053 .63 .126L.702 .18 .792 .27 .81 .306 .828 .324 .846 .342V.378L.864 .468V.504L.846 .594V.63L.828 .666 .81 .702 .756 .756 .72 .81 .846 .828V1.134H-1.116V.828H-.414L-.45 .81-.504 .774-.54 .72-.576 .684-.612 .63-.63 .576V.432L-.612 .378-.576 .306-.486 .216-.45 .198-.432 .162-.414 .144H-.396L-.342 .108H-.324L-.306 .09-.27 .072H-.234L-.216 .054-.162 .036H-.108L-.054 .018H-.036L0 0ZM-.306 .576-.288 .63-.252 .684C-.156 .796 .004 .815 .144 .81H.234L.306 .792 .342 .774H.378L.414 .738 .504 .684 .522 .63 .54 .576V.558L.522 .504 .504 .468 .414 .396V.378H.378C.171 .28-.221 .3-.306 .558V.576" fill-rule="evenodd"/><path transform="matrix(0,1,1,0,582.933,118.692)" d="M0 0-.054-.054-.108-.126C-.321-.43-.007-.776 .288-.828L.396-.864H.594C.801-.884 .886-.821 1.044-.72L1.116-.666 1.188-.594 1.242-.504 1.26-.468V-.252L1.224-.108 1.188-.054 1.17-.036 1.116 .036H1.332L1.404 .018 1.458-.018 1.494-.036 1.53-.09 1.548-.144 1.566-.198V-.306L1.548-.36 1.53-.396 1.494-.432 1.386-.468 1.404-.792H1.44L1.566-.756 1.656-.702 1.692-.666 1.746-.63 1.782-.558 1.854-.45V-.144L1.836 0C1.661 .247 1.75 .24 1.404 .324H-.126V.036L0 0ZM.594 .018 .702 0 .756-.036 .81-.054 .864-.09 .9-.126 .918-.198 .936-.252 .918-.324 .9-.36 .882-.432 .828-.468 .702-.54 .63-.558H.54C.142-.53-.011-.175 .396 0L.486 .018H.594" fill-rule="evenodd"/><path transform="matrix(0,1,1,0,556.491,124.812)" d="M0 0V3.186H-.198V1.566H-1.674V2.88H-1.854V1.566H-3.042L-3.078 1.602H-3.114L-3.132 1.566-3.15 1.458-3.168 1.314H-.198V0" fill-rule="evenodd"/><path transform="matrix(0,1,1,0,562.287,123.534)" d="M0 0V1.404H-.198V0H-1.278V1.098H-1.458V-.954L-1.782-.792-1.8-.72-1.836-.702-1.872-.756-1.908-.846-1.98-.99-1.332-1.296-.738-1.692-.594-1.512-.936-1.278-1.278-1.062V-.234H-.198V-1.8H0V-.234H1.386V0" fill-rule="evenodd"/><path transform="matrix(0,1,1,0,565.833,123.03)" d="M0 0-.252 1.872-.468 1.854-.216 0H-1.224L-1.26 .054H-1.296L-1.314 .036-1.35-.036-1.386-.234H-.18L-.036-1.35 .198-1.314 .036-.234H1.512L1.62-.198 1.71-.144 1.764-.054 1.782 .054V1.17L1.746 1.368 1.638 1.548 1.494 1.692 1.26 1.818 1.044 1.89 .99 1.836 .936 1.692H.972L1.35 1.548 1.512 1.386 1.584 1.206V.324L1.566 .09 1.494 0" fill-rule="evenodd"/><path transform="matrix(0,1,1,0,570.819,122.85)" d="M0 0V.846L.018 .882H.162L.18 .846V-1.116L.162-1.134H.018L0-1.116V-.27L-.018-.252H-.612L-.63-.27V-.936L-.648-.954H-.792L-.81-.936V-.27L-.828-.252H-1.242L-1.278-.216-1.242-.09V-.018L-1.206 .018H-1.17L-1.116-.018H-.828L-.81 0V.648L-.792 .666H-.648L-.63 .648V0L-.612-.018H-.018" fill-rule="evenodd"/><path transform="matrix(0,1,1,0,571.215,123.714)" d="M0 0V.36L-.018 .396H-.162L-.18 .36V0L-.216-.036H-.45L-.486 .018H-.522L-.54-.036-.558-.144-.576-.216-.54-.27H-.216L-.18-.288V-1.404L-.162-1.44H-.018L0-1.404V-.288L.018-.27H.828L.918-.288 .954-.342V-.63L.972-.684H1.008L1.116-.648 1.152-.612 1.17-.558V-.18L1.134-.126 1.08-.072 1.008-.036H.018" fill-rule="evenodd"/><path transform="matrix(0,1,1,0,570.387,124.434)" d="M0 0-.18 .126-.396-.144-.558-.432-.396-.558-.216-.27" fill-rule="evenodd"/><path transform="matrix(0,1,1,0,574.221,123.804)" d="M0 0V1.188H-.198V0H-.54L-.594 .09-.63 .126-.666 .09-.684 0V-.198H-.198V-1.404H0V-.198H.702V-1.674H.882V1.476H.702V0" fill-rule="evenodd"/><path transform="matrix(0,1,1,0,574.779,122.202)" d="M0 0 .432 .324 .594-1.332-.234-.756V.81H-.432V-2.142H-.234V-.99L.594-1.584 .612-2.088 .756-2.034 .846-1.98 .9-1.944 .882-1.908 .828-1.872 .594 .432 .936 .594 .882 .81 .36 .522-.108 .162" fill-rule="evenodd"/><path transform="matrix(0,1,1,0,578.379,123.534)" d="M0 0V1.404H-.198V0H-1.278V1.116H-1.458V-.954L-1.782-.792-1.8-.72-1.836-.702-1.872-.756-1.908-.846-1.98-.972-1.332-1.296-.738-1.692-.594-1.512-.936-1.26-1.278-1.062V-.234H-.198V-1.782H0V-.234H1.386V0" fill-rule="evenodd"/><path transform="matrix(0,1,1,0,594.885,122.85)" d="M0 0V.828L.018 .864H.162L.18 .828V-1.134L.162-1.152H.018L0-1.134V-.288L-.018-.27H-.612L-.63-.288V-.954L-.666-.972H-.792L-.81-.954-.828-.882V-.288L-.846-.27H-1.242L-1.278-.234-1.242-.108V-.018L-1.206 .018-1.17 0-1.116-.036H-.846L-.828 0V.63L-.792 .648H-.666L-.63 .63V0L-.612-.036H-.018" fill-rule="evenodd"/><path transform="matrix(0,1,1,0,594.165,124.218)" d="M0 0 .198 .27 .036 .396-.18 .126-.36-.162-.18-.288" fill-rule="evenodd"/><path transform="matrix(0,1,1,0,595.011,124.542)" d="M0 0 .09-.018 .126-.09V-.378L.144-.432H.18L.288-.396 .324-.36 .342-.306V.072L.306 .144 .252 .18 .18 .216 .09 .234H-.81L-.828 .252V.612L-.846 .648H-.99L-1.026 .612V.252L-1.044 .234H-1.278L-1.314 .27H-1.35L-1.368 .216-1.386 .108-1.404 .036-1.386 0H-1.044L-1.026-.036V-1.152L-.99-1.188H-.846L-.828-1.152V-.036L-.81 0" fill-rule="evenodd"/><path transform="matrix(0,1,1,0,569.289,124.038)" d="M0 0H.162L.18 .036V.198L.162 .234H-2.088L-2.124 .198V-.756L-2.088-.774H.414L.45-.756V-.576L.414-.558H0L-.018-.522V-.018L0 0ZM-.216-.018V-.522L-.234-.558H-.972L-1.008-.522V-.018L-.972 0H-.234L-.216-.018ZM-1.188-.018V-.522L-1.206-.558H-1.908L-1.926-.522V-.018L-1.908 0H-1.206L-1.188-.018" fill-rule="evenodd"/><path transform="matrix(0,1,1,0,593.319,124.02)" d="M0 0 .018 .036H.18L.198 .054V.216L.18 .252H-2.088L-2.106 .216V-.738L-2.088-.756H.432L.468-.738V-.558L.432-.522H.018L0-.504V0ZM-.99-.504V0L-.972 .036H-.216L-.198 0V-.504L-.216-.522H-.972L-.99-.504ZM-1.89 .036H-1.188L-1.17 0V-.504L-1.188-.522H-1.89L-1.926-.504V0L-1.89 .036" fill-rule="evenodd"/><path transform="matrix(0,1,1,0,586.011,124.92)" d="M0 0V.234H-1.8V1.782H-1.998V.234H-3.258L-3.294 .306-3.33 .324-3.348 .306-3.366 .252-3.402 0H-1.998V-1.494H-1.8V0" fill-rule="evenodd"/><path transform="matrix(0,1,1,0,580.377,106.704)" d="M0 0C-.09 0-.144-.054-.144-.144-.144-.216-.09-.288 0-.288 .072-.288 .144-.216 .144-.144 .144-.054 .072 0 0 0" fill="#0000ff" fill-rule="evenodd"/><path transform="matrix(0,1,1,0,579.351,105.678)" d="M0 0C-.09 0-.144-.072-.144-.144-.144-.234-.09-.288 0-.288 .072-.288 .144-.234 .144-.144 .144-.072 .072 0 0 0" fill="#0000ff" fill-rule="evenodd"/><path transform="matrix(0,1,1,0,555.339,126.036)" d="M0 0H-22.68C-22.986 0-23.292 .108-23.508 .342-23.724 .558-23.85 .846-23.85 1.17V40.518C-23.85 40.644-23.814 40.788-23.76 40.932-23.706 41.094-23.616 41.22-23.508 41.328-23.382 41.454-23.256 41.544-23.112 41.598-22.968 41.652-22.824 41.67-22.68 41.67H0C.126 41.67 .288 41.652 .432 41.598 .576 41.544 .702 41.454 .828 41.328 .936 41.22 1.026 41.076 1.08 40.932 1.134 40.788 1.17 40.644 1.17 40.518V1.17C1.17 1.026 1.134 .882 1.08 .738 1.026 .594 .936 .45 .828 .342 .702 .216 .576 .126 .432 .072 .288 .018 .144 0 0 0ZM-8.928 40.518V1.17C-8.928 1.026-8.874 .864-8.748 .756-8.64 .63-8.478 .576-8.334 .576H0C.144 .576 .288 .63 .414 .756 .522 .864 .576 1.026 .576 1.17V40.518C.576 40.644 .522 40.806 .414 40.932 .288 41.04 .144 41.094 0 41.094H-8.334C-8.478 41.094-8.64 41.04-8.748 40.932-8.874 40.806-8.928 40.644-8.928 40.518ZM-9.504 40.518C-9.504 40.662-9.576 40.806-9.684 40.932-9.792 41.04-9.936 41.094-10.098 41.094H-22.68C-22.824 41.094-22.968 41.04-23.094 40.932-23.202 40.806-23.256 40.644-23.256 40.518V1.17C-23.256 1.098-23.256 1.026-23.22 .954-23.184 .882-23.148 .81-23.094 .756-22.968 .63-22.824 .576-22.68 .576H-10.098C-9.954 .576-9.792 .63-9.684 .756-9.558 .864-9.504 1.026-9.504 1.17V40.518" fill-rule="evenodd"/><path transform="matrix(0,1,1,0,582.501,109.692)" d="M0 0C-.81 0-1.62-.162-2.394-.486-3.15-.792-3.834-1.26-4.41-1.836-5.004-2.412-5.454-3.096-5.778-3.87-6.084-4.626-6.246-5.436-6.246-6.246-6.246-7.074-6.084-7.884-5.778-8.64-5.454-9.414-5.004-10.098-4.41-10.674-3.834-11.25-3.15-11.718-2.394-12.024-1.62-12.348-.81-12.51 0-12.51 .828-12.51 1.638-12.348 2.394-12.024 3.15-11.718 3.852-11.25 4.428-10.674 5.004-10.098 5.472-9.414 5.778-8.64 6.102-7.884 6.264-7.074 6.264-6.246 6.264-5.436 6.102-4.626 5.778-3.87 5.472-3.096 5.004-2.412 4.428-1.836 3.852-1.26 3.15-.792 2.394-.486 1.638-.162 .828 0 0 0" fill-rule="evenodd"/><path transform="matrix(0,1,1,0,576.219,108.648)" d="M0 0-2.97-2.988C-3.276-2.574-3.528-2.124-3.69-1.602-3.87-1.098-3.96-.558-3.96 0-3.96 .558-3.87 1.098-3.69 1.62-3.618 1.872-3.51 2.106-3.384 2.34-3.33 2.448-3.258 2.574-3.186 2.682-3.168 2.718-3.114 2.79-3.096 2.826-3.06 2.862-3.06 2.88-3.042 2.916-3.024 2.934-3.024 2.934-3.006 2.952L-2.97 2.988 0 0" fill="#e1e1e1" fill-rule="evenodd"/><path transform="matrix(0,1,1,0,575.193,109.692)" d="M0 0-2.988-2.988C-2.592-3.276-2.124-3.528-1.62-3.708-1.098-3.888-.558-3.978 0-3.978 .54-3.978 1.098-3.888 1.602-3.708 1.854-3.618 2.106-3.51 2.34-3.384 2.448-3.33 2.556-3.276 2.664-3.204 2.718-3.168 2.772-3.132 2.826-3.096 2.844-3.078 2.88-3.06 2.898-3.042 2.898-3.042 2.934-3.024 2.934-3.006H2.952L2.97-2.988 0 0" fill="#e1e1e1" fill-rule="evenodd"/><path transform="matrix(0,1,1,0,576.219,110.718)" d="M0 0 2.988 2.988C3.276 2.592 3.528 2.124 3.708 1.62 3.87 1.098 3.96 .558 3.96 0 3.96-.558 3.87-1.098 3.708-1.602 3.528-2.124 3.276-2.574 2.988-2.988L0 0" fill="#e1e1e1" fill-rule="evenodd"/><path transform="matrix(0,1,1,0,577.245,109.692)" d="M0 0 2.97 2.988C2.574 3.294 2.124 3.546 1.602 3.708 1.098 3.888 .54 3.978 0 3.978-.558 3.978-1.098 3.888-1.62 3.708-2.124 3.546-2.592 3.294-2.988 2.988L0 0" fill="#e1e1e1" fill-rule="evenodd"/><path transform="matrix(0,1,1,0,580.485,122.22)" d="M0 0V3.24H-.198V1.728H-.558L-.576 1.782-.612 1.8-.63 1.782-.648 1.728-.684 1.512H-.198V0" fill-rule="evenodd"/><path transform="matrix(0,1,1,0,582.411,123.102)" d="M0 0 .144-.108 .558 .27 .396 .396 .18 .216" fill-rule="evenodd"/><path transform="matrix(0,1,1,0,581.583,124.794)" d="M0 0 .126 .09 .162 .108V.162L-.09 .63-.342 1.044-.108 1.458 .126 1.962 .144 2.034 .126 2.088-.036 2.196H-.09L-.126 2.124-.306 1.656-.522 1.224-.828 1.404-1.17 1.566-1.512 1.71-1.89 1.818H-1.998L-2.034 1.782V.828L-2.232 .936-2.268 .99-2.286 1.008-2.322 .972-2.376 .9-2.448 .756-2.088 .576-1.764 .378-1.494 .162-1.242-.054-1.098 .054-1.062 .126-1.296 .324-.918 .54-.522 .846-.27 .468-.09 .054-.054 0H0ZM-1.854 .738V1.548L-1.548 1.458-1.242 1.35-.954 1.206-.684 1.026-1.08 .72-1.476 .486-1.854 .738" fill-rule="evenodd"/><path transform="matrix(0,1,1,0,581.241,124.92)" d="M0 0H-1.8L-1.836 .072H-1.89L-1.908 .036-2.376 .306-2.412 .36-2.43 .378-2.466 .36-2.502 .306-2.61 .126-2.214-.09-1.872-.306-1.566-.558-1.296-.81-1.188-.684-1.152-.648-1.17-.612-1.566-.234H0" fill-rule="evenodd"/><path transform="matrix(0,1,1,0,0,0)" d="M122.094 588.855H122.292V591.44699H122.094Z"/><path transform="matrix(0,1,1,0,0,0)" d="M124.236 588.531H124.41599V591.789H124.236Z"/></g></svg>