<?xml version='1.0' encoding='UTF-8'?>
<svg width="250.74" height="250.74" viewBox="159.39 10.53 250.74 250.74" xmlns="http://www.w3.org/2000/svg" xmlns:xlink="http://www.w3.org/1999/xlink" xmlns:inkscape="http://www.inkscape.org/namespaces/inkscape" version="1.1"><g transform="scale(10.0) translate(-438.573, -478.080)"><defs><clipPath id="clip_19"><path transform="matrix(0,1,1,0,0,0)" d="M0 74.451H595.008V767.55899H0Z"/></clipPath><clipPath id="clip_20"><path transform="matrix(0,1,1,0,0,0)" d="M0 842.013H595.224V.008972168H0Z"/></clipPath></defs><path transform="matrix(0,1,1,0,479.199,491.67)" d="M0 0C-1.584 0-3.168-.324-4.644-.936-6.12-1.548-7.452-2.43-8.586-3.564-9.72-4.698-10.602-6.03-11.214-7.506-11.826-8.982-12.15-10.548-12.15-12.15-12.15-13.752-11.826-15.318-11.214-16.794-10.602-18.27-9.72-19.62-8.586-20.736-7.452-21.87-6.12-22.77-4.644-23.382-3.168-23.994-1.584-24.3 0-24.3 1.602-24.3 3.186-23.994 4.662-23.382 6.12-22.77 7.47-21.87 8.604-20.736 9.72-19.62 10.62-18.27 11.232-16.794 11.844-15.318 12.15-13.752 12.15-12.15 12.15-10.548 11.844-8.982 11.232-7.506 10.62-6.03 9.72-4.698 8.604-3.564 7.47-2.43 6.12-1.548 4.662-.936 3.186-.324 1.602 0 0 0" fill="#ffffff" fill-rule="evenodd"/><path transform="matrix(0,1,1,0,478.713,491.67)" d="M0 0C-1.53 0-3.042-.306-4.464-.9-5.868-1.476-7.164-2.34-8.244-3.42-9.324-4.5-10.188-5.796-10.764-7.2-11.358-8.622-11.664-10.134-11.664-11.664-11.664-13.194-11.358-14.706-10.764-16.128-10.188-17.55-9.324-18.828-8.244-19.908-7.164-20.988-5.868-21.852-4.464-22.446-3.042-23.022-1.53-23.328 0-23.328 1.53-23.328 3.06-23.022 4.464-22.446 5.886-21.852 7.164-20.988 8.244-19.908 9.342-18.828 10.188-17.55 10.782-16.128 11.358-14.706 11.664-13.194 11.664-11.664 11.664-10.134 11.358-8.622 10.782-7.2 10.188-5.796 9.342-4.5 8.244-3.42 7.164-2.34 5.886-1.476 4.464-.9 3.06-.306 1.53 0 0 0" fill="#0000ff" fill-rule="evenodd"/><path transform="matrix(0,1,1,0,471.711,486.936)" d="M0 0C0 .09 0 .198-.036 .288-.072 .396-.126 .504-.198 .594-.27 .666-.36 .738-.468 .774-.558 .828-.666 .846-.756 .846H-1.134V-2.772H-.954L-.216-.756 .954-1.404V-8.568C.648-8.406 .27-8.424-.018-8.586L-1.134-9.378V-7.506H-1.908V-9.918C-1.908-10.098-1.8-10.26-1.638-10.35-1.566-10.386-1.494-10.404-1.404-10.404-1.314-10.386-1.224-10.35-1.152-10.314L.378-9.234C.414-9.234 .45-9.216 .486-9.216 .522-9.216 .558-9.234 .594-9.252L2.952-10.008C2.844-10.26 2.772-10.53 2.718-10.836 2.664-11.124 2.646-11.43 2.664-11.772 2.682-12.096 2.754-12.42 2.862-12.744 2.988-13.068 3.132-13.392 3.348-13.68 3.546-13.968 3.78-14.22 4.05-14.436 4.32-14.652 4.608-14.832 4.914-14.958 5.202-15.102 5.508-15.192 5.814-15.246 6.102-15.282 6.39-15.3 6.66-15.282 6.93-15.282 7.2-15.228 7.488-15.138 7.776-15.066 8.082-14.94 8.352-14.778 8.64-14.616 8.91-14.418 9.144-14.166 9.396-13.914 9.612-13.644 9.774-13.32 9.954-13.014 10.062-12.69 10.152-12.348 10.224-12.024 10.26-11.682 10.242-11.358 10.224-11.034 10.17-10.71 10.098-10.422 10.008-10.134 9.9-9.882 9.756-9.648 9.63-9.414 9.468-9.18 9.27-8.946 9.072-8.73 8.838-8.514 8.568-8.334 8.28-8.154 7.992-8.01 7.65-7.902 7.326-7.794 6.984-7.722 6.624-7.704 6.282-7.686 5.922-7.722 5.598-7.794 5.256-7.884 4.932-7.992 4.644-8.154 4.356-8.316 4.104-8.496 3.888-8.694 3.672-8.892 3.474-9.108 3.33-9.342L3.042-9.252 6.426-5.04C6.588-5.04 6.75-5.022 6.912-4.95 7.074-4.878 7.218-4.752 7.344-4.608 7.47-4.464 7.542-4.284 7.578-4.122 7.596-3.942 7.596-3.762 7.56-3.618L7.866-3.51V-3.708H8.064V-3.438H8.154V-3.204H8.064V-2.952H7.866V-3.258L7.47-3.402C7.416-3.276 7.326-3.15 7.218-3.06 7.092-2.952 6.966-2.88 6.822-2.826V-1.602C7.056-1.584 7.308-1.53 7.542-1.458 7.794-1.386 8.028-1.296 8.262-1.17 8.748-.9 9.18-.54 9.504-.072 9.846 .378 10.062 .9 10.17 1.44 10.224 1.71 10.242 1.962 10.242 2.214 10.242 2.466 10.206 2.718 10.17 2.952 10.116 3.168 10.044 3.42 9.954 3.654 9.846 3.888 9.72 4.104 9.576 4.338 9.27 4.77 8.856 5.166 8.352 5.454 7.866 5.742 7.326 5.904 6.786 5.958 6.516 5.976 6.246 5.976 5.994 5.94 5.742 5.904 5.508 5.85 5.292 5.778 5.058 5.706 4.842 5.616 4.608 5.49 4.392 5.364 4.176 5.22 3.978 5.04 3.564 4.68 3.222 4.248 2.988 3.726 2.754 3.204 2.646 2.646 2.646 2.106 2.664 1.836 2.7 1.566 2.754 1.332 2.808 1.08 2.88 .846 2.988 .63L.954-.54 0 0ZM6.822 2.178C6.822 2.286 6.786 2.412 6.642 2.484 6.588 2.538 6.516 2.556 6.462 2.556 6.39 2.556 6.336 2.538 6.282 2.502L3.636 1.008C3.582 1.188 3.51 1.368 3.474 1.566 3.438 1.764 3.42 1.962 3.42 2.178 3.42 2.61 3.51 3.042 3.69 3.456 3.888 3.87 4.158 4.212 4.5 4.5 4.662 4.626 4.824 4.752 5.004 4.842 5.184 4.932 5.364 5.004 5.544 5.076 5.724 5.13 5.904 5.166 6.102 5.184 6.318 5.202 6.516 5.22 6.732 5.202 7.164 5.148 7.578 5.022 7.974 4.788 8.37 4.572 8.694 4.266 8.946 3.906 9.054 3.744 9.162 3.546 9.234 3.366 9.324 3.186 9.378 3.006 9.414 2.808 9.45 2.628 9.486 2.448 9.486 2.232 9.486 2.034 9.468 1.836 9.432 1.62 9.36 1.206 9.198 .792 8.928 .414 8.676 .054 8.334-.252 7.956-.468 7.776-.576 7.596-.648 7.398-.72 7.2-.774 7.02-.828 6.822-.846V2.178ZM6.066-.846C5.256-.738 4.518-.306 4.014 .342L6.066 1.512V-.846ZM5.706-3.042 1.926-.846 3.366-.036C3.672-.468 4.068-.828 4.536-1.116 5.022-1.386 5.544-1.548 6.066-1.602V-2.826C5.94-2.88 5.814-2.952 5.706-3.042ZM6.444-2.952C6.57-2.952 6.678-2.97 6.804-3.024 6.912-3.06 7.02-3.132 7.128-3.24 7.218-3.33 7.29-3.438 7.326-3.564 7.38-3.672 7.398-3.798 7.398-3.906 7.398-4.014 7.38-4.14 7.326-4.248 7.29-4.374 7.218-4.482 7.128-4.572 7.02-4.662 6.912-4.734 6.804-4.788 6.678-4.842 6.57-4.86 6.444-4.86 6.336-4.86 6.21-4.842 6.102-4.788 5.976-4.734 5.868-4.662 5.778-4.572 5.688-4.482 5.616-4.374 5.562-4.248 5.526-4.14 5.508-4.014 5.508-3.906 5.508-3.798 5.526-3.672 5.562-3.564 5.616-3.438 5.688-3.33 5.778-3.24 5.868-3.132 5.976-3.06 6.102-3.024 6.21-2.97 6.336-2.952 6.444-2.952ZM6.048-11.574 6.138-11.718C6.246-11.88 6.462-11.916 6.642-11.826 6.804-11.736 6.876-11.538 6.804-11.358 6.588-10.998 6.318-10.692 5.994-10.44 5.67-10.17 5.31-9.972 4.914-9.846L4.086-9.576C4.23-9.414 4.392-9.252 4.572-9.108 4.752-8.964 4.968-8.838 5.202-8.73 5.688-8.514 6.228-8.424 6.804-8.478 7.362-8.55 7.866-8.766 8.298-9.072 8.496-9.234 8.676-9.414 8.82-9.594 8.964-9.792 9.09-9.972 9.18-10.17 9.27-10.368 9.36-10.584 9.414-10.8 9.468-11.034 9.486-11.286 9.486-11.556 9.486-12.078 9.324-12.6 9.036-13.086 8.73-13.572 8.316-13.95 7.866-14.184 7.632-14.31 7.398-14.4 7.164-14.454 6.93-14.508 6.714-14.526 6.498-14.526 6.282-14.544 6.048-14.526 5.814-14.472 5.58-14.418 5.346-14.346 5.112-14.22 4.644-14.004 4.23-13.644 3.906-13.158 3.6-12.69 3.438-12.15 3.42-11.628 3.402-11.376 3.42-11.124 3.474-10.89 3.528-10.656 3.6-10.44 3.69-10.242L4.698-10.584C5.238-10.764 5.706-11.106 6.048-11.574ZM5.688-4.752V-4.752ZM5.688-4.752 2.268-9 1.71-8.802V-1.602L5.328-3.69C5.31-3.78 5.31-3.852 5.31-3.942 5.31-4.032 5.328-4.104 5.346-4.194L5.022-4.302V-4.086H4.842V-4.374H4.734V-4.608H4.842V-4.86H5.022V-4.536L5.418-4.392C5.454-4.464 5.49-4.536 5.544-4.59 5.58-4.644 5.634-4.698 5.688-4.752" fill="#ffffff" fill-rule="evenodd"/><path transform="matrix(0,1,1,0,479.199,491.67)" stroke-width=".288" stroke-linecap="round" stroke-linejoin="round" fill="none" stroke="#0000ff" d="M0 0C-3.222 0-6.3-1.278-8.586-3.564-10.854-5.832-12.15-8.928-12.15-12.15-12.15-15.372-10.854-18.468-8.586-20.736-6.3-23.022-3.222-24.3 0-24.3 3.222-24.3 6.318-23.022 8.604-20.736 10.872-18.468 12.15-15.372 12.15-12.15 12.15-8.928 10.872-5.832 8.604-3.564 6.318-1.278 3.222 0 0 0"/></g></svg>