<?xml version='1.0' encoding='UTF-8'?>
<svg width="250.25" height="250.25" viewBox="159.73 10.87 250.25 250.25" xmlns="http://www.w3.org/2000/svg" xmlns:xlink="http://www.w3.org/1999/xlink" xmlns:inkscape="http://www.inkscape.org/namespaces/inkscape" version="1.1"><g transform="scale(10.0) translate(-220.305, -289.584)"><defs><clipPath id="clip_19"><path transform="matrix(0,1,1,0,0,0)" d="M0 74.451H595.008V767.55899H0Z"/></clipPath><clipPath id="clip_20"><path transform="matrix(0,1,1,0,0,0)" d="M0 842.013H595.224V.008972168H0Z"/></clipPath></defs><path transform="matrix(0,1,1,0,236.523,303.174)" d="M0 0C1.62 0 3.222 .324 4.698 .936 6.192 1.548 7.542 2.466 8.676 3.6 9.828 4.734 10.728 6.084 11.34 7.578 11.952 9.072 12.276 10.656 12.276 12.276 12.276 13.878 11.952 15.48 11.34 16.956 10.728 18.45 9.828 19.8 8.676 20.934 7.542 22.086 6.192 22.986 4.698 23.598 3.222 24.21 1.62 24.534 0 24.534-1.602 24.534-3.204 24.21-4.68 23.598-6.174 22.986-7.524 22.086-8.658 20.934-9.81 19.8-10.71 18.45-11.322 16.956-11.934 15.48-12.258 13.878-12.258 12.276-12.258 10.656-11.934 9.072-11.322 7.578-10.71 6.084-9.81 4.734-8.658 3.6-7.524 2.466-6.174 1.548-4.68 .936-3.204 .324-1.602 0 0 0" fill="#ff0000" fill-rule="evenodd"/><path transform="matrix(0,1,1,0,241.041,309.204)" d="M0 0-13.77 13.77C-14.112 13.338-14.418 12.87-14.688 12.366-14.94 11.862-15.174 11.322-15.354 10.746-15.552 10.188-15.678 9.594-15.75 8.982-15.84 8.37-15.858 7.758-15.822 7.128-15.768 6.516-15.678 5.904-15.534 5.31-15.372 4.716-15.174 4.14-14.922 3.6-14.67 3.06-14.364 2.556-14.04 2.088-13.698 1.62-13.338 1.188-12.96 .81-12.114-.018-11.142-.702-10.062-1.188-8.982-1.674-7.812-1.962-6.642-2.034-5.454-2.124-4.266-1.98-3.132-1.62-1.998-1.278-.936-.72 0 0" fill="#ffffff" fill-rule="evenodd"/><path transform="matrix(0,1,1,0,256.539,297.162)" d="M0 0C.936 .738 1.998 1.278 3.132 1.638 4.266 1.98 5.454 2.124 6.642 2.052 7.812 1.98 8.982 1.692 10.062 1.188 11.142 .702 12.114 .036 12.96-.81 13.338-1.188 13.698-1.62 14.04-2.088 14.364-2.556 14.652-3.06 14.922-3.6 15.174-4.14 15.372-4.716 15.516-5.31 15.678-5.904 15.768-6.516 15.822-7.128 15.858-7.758 15.84-8.37 15.75-8.982 15.678-9.594 15.552-10.17 15.354-10.746 15.174-11.322 14.94-11.862 14.67-12.366 14.418-12.87 14.112-13.338 13.77-13.77L0 0" fill="#ffffff" fill-rule="evenodd"/><path transform="matrix(0,1,1,0,244.893,301.338)" d="M0 0C-.306 0-.612 .054-.918 .18-1.224 .288-1.494 .486-1.746 .72-1.98 .954-2.16 1.242-2.286 1.548-2.412 1.854-2.466 2.16-2.466 2.448V6.48L0 4.014V3.276C0 3.078 .072 2.862 .234 2.7 .396 2.52 .612 2.448 .81 2.448H1.548L4.014 0H0" fill-rule="evenodd"/><path transform="matrix(0,1,1,0,257.385,300.096)" d="M0 0-1.224-1.602V-2.556L1.242-5.004V-1.602" fill-rule="evenodd"/><path transform="matrix(0,1,1,0,247.341,311.364)" d="M0 0H-5.004L-2.556-2.448H0" fill-rule="evenodd"/></g></svg>