<?xml version='1.0' encoding='UTF-8'?>
<svg width="439.30" height="265.42" viewBox="65.20 3.28 439.30 265.42" xmlns="http://www.w3.org/2000/svg" xmlns:xlink="http://www.w3.org/1999/xlink" xmlns:inkscape="http://www.inkscape.org/namespaces/inkscape" version="1.1"><g transform="scale(10.0) translate(-220.305, -74.160)"><defs><clipPath id="clip_19"><path transform="matrix(0,1,1,0,0,0)" d="M0 74.451H595.008V767.55899H0Z"/></clipPath><clipPath id="clip_20"><path transform="matrix(0,1,1,0,0,0)" d="M0 842.013H595.224V.008972168H0Z"/></clipPath></defs><path transform="matrix(0,1,1,0,268.149,100.458)" d="M0 0V-38.718C0-38.952-.036-39.204-.144-39.456-.234-39.708-.396-39.96-.594-40.158-.792-40.356-1.026-40.5-1.278-40.608-1.53-40.698-1.782-40.752-2.034-40.752H-23.364C-23.598-40.752-23.868-40.698-24.12-40.608-24.372-40.5-24.606-40.356-24.804-40.158-25.002-39.96-25.146-39.726-25.254-39.456-25.362-39.204-25.398-38.952-25.398-38.718V0C-25.398 .252-25.362 .504-25.254 .756-25.146 1.008-25.002 1.242-24.804 1.44-24.606 1.638-24.372 1.8-24.12 1.89-23.868 1.998-23.598 2.034-23.364 2.034H-2.034C-1.782 2.034-1.53 1.998-1.278 1.89-1.026 1.8-.792 1.638-.594 1.44-.396 1.242-.234 1.008-.144 .756-.036 .504 0 .252 0 0" fill="#ffffff" fill-rule="evenodd"/><path transform="matrix(0,1,1,0,268.149,76.068)" d="M0 0V-38.718C0-38.844 .036-38.97 .072-39.096 .126-39.222 .198-39.33 .306-39.438 .414-39.528 .522-39.618 .648-39.654 .774-39.708 .9-39.726 1.026-39.726H22.356C22.482-39.726 22.608-39.708 22.734-39.654 22.86-39.618 22.986-39.528 23.076-39.438 23.184-39.33 23.256-39.222 23.31-39.096 23.364-38.97 23.382-38.844 23.382-38.718V0C23.382 .126 23.364 .252 23.31 .378 23.256 .504 23.184 .63 23.076 .72 22.986 .828 22.86 .9 22.734 .954 22.608 .99 22.482 1.026 22.356 1.026H1.026C.9 1.026 .774 .99 .648 .954 .522 .9 .414 .828 .306 .72 .198 .63 .126 .504 .072 .378 .036 .252 0 .126 0 0" fill="#0000ff" fill-rule="evenodd"/><path transform="matrix(0,1,1,0,0,0)" d="M77.418 258.735H98.118V260.085H77.418Z" fill="#ffffff"/><path transform="matrix(0,1,1,0,267.303,83.754)" d="M0 0H2.664L.882-1.782H10.692V-3.564H.882L2.664-5.346H0L-2.682-2.682" fill="#ffffff" fill-rule="evenodd"/><path transform="matrix(0,1,1,0,252.327,80.874)" d="M0 0H2.682L.9-1.782H8.028V-3.564H.9L2.682-5.346H0L-2.664-2.682" fill="#ffffff" fill-rule="evenodd"/><path transform="matrix(0,1,1,0,0,0)" d="M77.094 239.547H98.424V240.555H77.094Z" fill="#ffffff"/><path transform="matrix(0,1,1,0,0,0)" d="M77.094 237.513H98.424V238.521H77.094Z" fill="#ffffff"/><path transform="matrix(0,1,1,0,230.295,83.754)" d="M0 0H2.664L.882 1.782H10.692V3.564H.882L2.664 5.346H0L-2.682 2.664" fill="#ffffff" fill-rule="evenodd"/><path transform="matrix(0,1,1,0,256.863,95.922)" stroke-width=".288" stroke-linecap="round" stroke-linejoin="round" fill="none" stroke="#ffffff" d="M0 0V.018"/><path transform="matrix(0,1,1,0,256.863,95.922)" d="M0 0 .594-2.916V-3.6H.414C.288-3.6 .162-3.618 .036-3.672-.09-3.726-.198-3.798-.306-3.888-.414-3.996-.486-4.104-.54-4.23-.576-4.356-.612-4.482-.612-4.608-.612-4.734-.576-4.86-.54-4.986-.486-5.112-.414-5.22-.306-5.328-.198-5.418-.09-5.49 .036-5.544 .162-5.598 .288-5.616 .414-5.616H.594V-9.414H.414C.288-9.414 .162-9.432 .036-9.486-.09-9.54-.198-9.612-.306-9.702-.414-9.81-.486-9.918-.54-10.044-.576-10.17-.612-10.296-.612-10.422-.612-10.548-.576-10.674-.54-10.8-.486-10.926-.414-11.034-.306-11.142-.198-11.232-.09-11.304 .036-11.358 .162-11.412 .288-11.43 .414-11.43H.594V-14.04C.594-14.13 .558-14.238 .486-14.31 .432-14.364 .396-14.382 .342-14.4 .288-14.418 .252-14.436 .198-14.436H-.684C-.774-14.436-.846-14.418-.918-14.4L-2.034-14.058-5.256-13.752C-5.346-13.752-5.436-13.698-5.508-13.626-5.58-13.536-5.616-13.446-5.616-13.356V-.792C-5.616-.612-5.544-.396-5.382-.234-5.22-.072-5.004 0-4.824 0H0ZM-2.808-2.394H-1.6020001V-.39600004H-2.808ZM-2.808-4.608H-1.6020001V-2.8079999H-2.808ZM-2.808-6.822H-1.6020001V-5.004H-2.808ZM-2.808-9.018H-1.6020001V-7.2179996H-2.808ZM-2.808-11.232H-1.6020001V-9.4140009H-2.808ZM-1.602-11.232ZM-2.808-12.834H.19799996V-11.627999H-2.808ZM.198-12.834ZM-1.8-13.878V-13.23H-2.808V-13.788L-1.8-13.878ZM-4.014-13.464V-11.628H-5.22V-13.356L-4.014-13.464ZM-5.22-11.232H-4.014V-9.4140009H-5.22ZM-4.014-11.232ZM-5.22-9.018H-4.014V-7.2179996H-5.22ZM-4.014-9.018ZM-5.22-6.822H-4.014V-5.004H-5.22ZM-4.014-6.822ZM-4.014-2.808H-5.22V-4.608H-4.014ZM-4.014-.396V-.396ZM-4.014-.396H-4.824C-4.914-.396-5.022-.432-5.094-.522-5.184-.594-5.22-.702-5.22-.792V-2.394H-4.014V-.396" fill="#ffffff" fill-rule="evenodd"/><path transform="matrix(0,1,1,0,253.263,96.516)" d="M0 0V0" fill="#ffffff" fill-rule="evenodd"/><path transform="matrix(0,1,1,0,247.449,96.516)" d="M0 0V0" fill="#ffffff" fill-rule="evenodd"/><path transform="matrix(0,1,1,0,253.065,96.318)" d="M0 0C-.216 0-.414-.09-.558-.234-.72-.396-.81-.594-.81-.81-.81-1.026-.72-1.224-.558-1.386-.414-1.53-.216-1.62 0-1.62 .216-1.62 .414-1.53 .576-1.368 .72-1.224 .81-1.026 .81-.81 .81-.594 .72-.396 .576-.234 .414-.09 .216 0 0 0ZM0-.414C.216-.414 .396-.594 .396-.81 .396-.9 .36-1.008 .288-1.098 .198-1.17 .09-1.206 0-1.206-.09-1.206-.198-1.17-.288-1.098-.36-1.008-.396-.9-.396-.81-.396-.594-.216-.414 0-.414" fill="#ffffff" fill-rule="evenodd"/><path transform="matrix(0,1,1,0,247.233,96.318)" d="M0 0C-.216 0-.414-.072-.558-.234-.72-.378-.81-.576-.81-.792-.81-1.008-.72-1.206-.558-1.368-.414-1.512-.216-1.602 0-1.602 .216-1.602 .414-1.512 .576-1.368 .72-1.206 .81-1.008 .81-.792 .81-.576 .72-.378 .576-.234 .414-.072 .216 0 0 0ZM0-.396C.216-.396 .396-.576 .396-.792 .396-.9 .36-.99 .288-1.08 .198-1.152 .09-1.188 0-1.188-.09-1.188-.198-1.152-.288-1.08-.36-.99-.396-.882-.396-.792-.396-.576-.216-.396 0-.396" fill="#ffffff" fill-rule="evenodd"/><path transform="matrix(0,1,1,0,268.149,100.458)" stroke-width=".288" stroke-linecap="round" stroke-linejoin="round" fill="none" stroke="#0000ff" d="M0 0C0 1.134-.9 2.034-2.034 2.034"/><path transform="matrix(0,1,1,0,229.43099,100.458)" stroke-width=".288" stroke-linecap="round" stroke-linejoin="round" fill="none" stroke="#0000ff" d="M0 0V38.718"/><path transform="matrix(0,1,1,0,227.39699,98.424)" stroke-width=".288" stroke-linecap="round" stroke-linejoin="round" fill="none" stroke="#0000ff" d="M0 0C1.134 0 2.034 .918 2.034 2.034"/><path transform="matrix(0,1,1,0,227.39699,77.094)" stroke-width=".288" stroke-linecap="round" stroke-linejoin="round" fill="none" stroke="#0000ff" d="M0 0H21.33"/><path transform="matrix(0,1,1,0,229.431,75.06)" stroke-width=".288" stroke-linecap="round" stroke-linejoin="round" fill="none" stroke="#0000ff" d="M0 0C0-1.116 .918-2.034 2.034-2.034"/><path transform="matrix(0,1,1,0,268.149,75.06)" stroke-width=".288" stroke-linecap="round" stroke-linejoin="round" fill="none" stroke="#0000ff" d="M0 0V-38.718"/><path transform="matrix(0,1,1,0,270.18299,77.093997)" stroke-width=".288" stroke-linecap="round" stroke-linejoin="round" fill="none" stroke="#0000ff" d="M0 0C-1.116 0-2.034-.9-2.034-2.034"/><path transform="matrix(0,1,1,0,270.18299,98.423999)" stroke-width=".288" stroke-linecap="round" stroke-linejoin="round" fill="none" stroke="#0000ff" d="M0 0H-21.33"/></g></svg>