<?xml version='1.0' encoding='UTF-8'?>
<svg width="255.02" height="255.02" viewBox="157.16 8.48 255.02 255.02" xmlns="http://www.w3.org/2000/svg" xmlns:xlink="http://www.w3.org/1999/xlink" xmlns:inkscape="http://www.inkscape.org/namespaces/inkscape" version="1.1"><g transform="scale(10.0) translate(-547.707, -343.440)"><defs><clipPath id="clip_19"><path transform="matrix(0,1,1,0,0,0)" d="M0 74.451H595.008V767.55899H0Z"/></clipPath><clipPath id="clip_20"><path transform="matrix(0,1,1,0,0,0)" d="M0 842.013H595.224V.008972168H0Z"/></clipPath></defs><path transform="matrix(0,1,1,0,588.675,357.03)" d="M0 0C-1.638 0-3.258-.324-4.77-.954-6.3-1.584-7.668-2.502-8.838-3.654-9.99-4.824-10.926-6.192-11.538-7.722-12.168-9.234-12.492-10.854-12.492-12.492-12.492-14.148-12.168-15.768-11.538-17.28-10.908-18.81-9.99-20.178-8.838-21.348-7.668-22.5-6.3-23.418-4.77-24.048-3.258-24.678-1.638-25.002 0-25.002 1.656-25.002 3.276-24.678 4.788-24.048 6.318-23.418 7.686-22.5 8.856-21.348 10.008-20.178 10.926-18.81 11.556-17.28 12.186-15.768 12.51-14.148 12.51-12.492 12.51-10.854 12.186-9.234 11.556-7.722 10.926-6.192 10.008-4.824 8.856-3.654 7.686-2.502 6.318-1.584 4.788-.954 3.276-.324 1.656 0 0 0" fill="#ff0000" fill-rule="evenodd"/><path transform="matrix(0,1,1,0,586.173,357.03)" d="M0 0C-1.314 0-2.61-.252-3.816-.756-5.04-1.26-6.138-1.998-7.074-2.916-7.992-3.852-8.73-4.95-9.234-6.174-9.738-7.38-9.99-8.676-9.99-9.99-9.99-11.304-9.738-12.618-9.234-13.824-8.73-15.048-7.992-16.146-7.074-17.064-6.138-18-5.04-18.738-3.816-19.242-2.61-19.746-1.314-19.998 0-19.998 1.314-19.998 2.628-19.746 3.834-19.242 5.058-18.738 6.156-18 7.074-17.064 8.01-16.146 8.748-15.048 9.252-13.824 9.756-12.618 10.008-11.304 10.008-9.99 10.008-8.676 9.756-7.38 9.252-6.174 8.748-4.95 8.01-3.852 7.074-2.916 6.156-1.998 5.058-1.26 3.834-.756 2.628-.252 1.314 0 0 0" fill="#ffffff" fill-rule="evenodd"/><path transform="matrix(0,1,1,0,570.639,353.034)" d="M0 0H8.01V-1.638H2.286V-2.88H.792C.792-2.646 .774-2.448 .738-2.286 .702-2.124 .666-1.98 .594-1.872 .522-1.746 .45-1.674 .342-1.602 .234-1.548 .126-1.53 0-1.53V0" fill-rule="evenodd"/><path transform="matrix(0,1,1,0,575.445,353.034)" d="M0 0H8.01V-1.638H2.286V-2.862H.792C.792-2.646 .774-2.448 .738-2.268 .702-2.106 .666-1.962 .594-1.854 .522-1.746 .45-1.656 .342-1.602 .234-1.548 .126-1.512 0-1.512V0" fill-rule="evenodd"/><path transform="matrix(0,1,1,0,584.517,357.03)" d="M0 0C-1.422 0-2.502-.288-3.222-.882-3.924-1.476-4.284-2.358-4.284-3.528-4.284-4.698-3.924-5.58-3.222-6.174-2.502-6.768-1.422-7.056 0-7.056 1.44-7.056 2.52-6.768 3.222-6.174 3.942-5.58 4.302-4.698 4.302-3.528 4.302-2.358 3.942-1.476 3.222-.882 2.52-.288 1.44 0 0 0ZM0-1.71C.918-1.71 1.602-1.872 2.07-2.178 2.538-2.484 2.754-2.934 2.754-3.528 2.754-4.734 1.836-5.346 0-5.346-.9-5.346-1.602-5.184-2.052-4.896-2.52-4.59-2.736-4.14-2.736-3.528-2.736-2.322-1.818-1.71 0-1.71" fill-rule="evenodd"/></g></svg>