<?xml version='1.0' encoding='UTF-8'?>
<svg width="425.03" height="258.53" viewBox="72.15 6.81 425.03 258.53" xmlns="http://www.w3.org/2000/svg" xmlns:xlink="http://www.w3.org/1999/xlink" xmlns:inkscape="http://www.inkscape.org/namespaces/inkscape" version="1.1"><g transform="scale(10.0) translate(-547.707, -74.160)"><defs><clipPath id="clip_19"><path transform="matrix(0,1,1,0,0,0)" d="M0 74.451H595.008V767.55899H0Z"/></clipPath><clipPath id="clip_20"><path transform="matrix(0,1,1,0,0,0)" d="M0 842.013H595.224V.008972168H0Z"/></clipPath></defs><path transform="matrix(0,1,1,0,595.857,90.18)" d="M0 0V-39.348C0-39.492 .054-39.654 .18-39.762 .288-39.888 .45-39.942 .594-39.942H8.928C9.072-39.942 9.216-39.888 9.342-39.762 9.45-39.654 9.504-39.492 9.504-39.348V0C9.504 .126 9.45 .288 9.342 .414 9.216 .522 9.072 .576 8.928 .576H.594C.522 .576 .45 .558 .378 .54 .306 .504 .234 .468 .18 .414 .126 .342 .072 .288 .054 .216 .018 .126 0 .054 0 0" fill="#ffffff" fill-rule="evenodd"/><path transform="matrix(0,1,1,0,595.857,89.604)" d="M0 0V-39.348C0-39.492-.054-39.654-.18-39.762-.288-39.888-.45-39.942-.594-39.942H-13.176C-13.248-39.942-13.32-39.924-13.392-39.906-13.464-39.87-13.536-39.834-13.59-39.762-13.644-39.708-13.68-39.636-13.716-39.564-13.752-39.492-13.752-39.42-13.752-39.348V0C-13.752 .126-13.698 .288-13.59 .414-13.536 .468-13.464 .504-13.392 .54-13.32 .558-13.248 .576-13.176 .576H-.594C-.45 .576-.288 .522-.18 .414-.054 .288 0 .126 0 0" fill="#ffff00" fill-rule="evenodd"/><path transform="matrix(0,1,1,0,579.351,78.75)" d="M0 0C-.09 0-.144-.072-.144-.144-.144-.234-.09-.288 0-.288 .072-.288 .144-.234 .144-.144 .144-.072 .072 0 0 0" fill="#0000ff" fill-rule="evenodd"/><path transform="matrix(0,1,1,0,580.377,79.776)" d="M0 0C-.09 0-.144-.054-.144-.144-.144-.216-.09-.288 0-.288 .072-.288 .144-.216 .144-.144 .144-.054 .072 0 0 0" fill="#0000ff" fill-rule="evenodd"/><path transform="matrix(0,1,1,0,555.339,99.108)" d="M0 0H-22.68C-22.986 0-23.292 .108-23.508 .342-23.724 .558-23.85 .846-23.85 1.17V40.518C-23.85 40.644-23.814 40.788-23.76 40.932-23.706 41.094-23.616 41.22-23.508 41.328-23.382 41.454-23.256 41.544-23.112 41.598-22.968 41.652-22.824 41.67-22.68 41.67H0C.144 41.67 .288 41.652 .432 41.598 .576 41.544 .702 41.454 .828 41.328 .936 41.22 1.026 41.094 1.08 40.932 1.134 40.788 1.17 40.644 1.17 40.518V1.17C1.17 1.026 1.134 .882 1.08 .738 1.026 .594 .936 .45 .828 .342 .702 .216 .576 .126 .432 .072 .288 .018 .144 0 0 0ZM-8.928 40.518V1.17C-8.928 1.026-8.874 .864-8.748 .756-8.64 .63-8.478 .576-8.334 .576H0C.144 .576 .288 .63 .414 .756 .522 .864 .576 1.026 .576 1.17V40.518C.576 40.644 .522 40.806 .414 40.932 .288 41.04 .144 41.094 0 41.094H-8.334C-8.478 41.094-8.64 41.04-8.748 40.932-8.874 40.806-8.928 40.644-8.928 40.518ZM-9.504 40.518C-9.504 40.662-9.576 40.806-9.684 40.932-9.792 41.04-9.936 41.094-10.098 41.094H-22.68C-22.824 41.094-22.968 41.04-23.094 40.932-23.202 40.806-23.256 40.644-23.256 40.518V1.17C-23.256 1.098-23.256 1.026-23.22 .954-23.184 .882-23.148 .81-23.094 .756-22.968 .63-22.824 .576-22.68 .576H-10.098C-9.954 .576-9.792 .63-9.684 .756-9.558 .864-9.504 1.026-9.504 1.17V40.518" fill-rule="evenodd"/><path transform="matrix(0,1,1,0,582.501,82.764)" d="M0 0C-.81 0-1.62-.162-2.394-.486-3.15-.792-3.834-1.26-4.41-1.836-4.986-2.412-5.454-3.096-5.778-3.87-6.084-4.626-6.246-5.436-6.246-6.246-6.246-7.074-6.084-7.884-5.778-8.64-5.454-9.414-4.986-10.098-4.41-10.674-3.834-11.25-3.15-11.718-2.394-12.024-1.62-12.348-.81-12.51 0-12.51 .828-12.51 1.638-12.348 2.394-12.024 3.15-11.718 3.852-11.25 4.428-10.674 5.004-10.098 5.472-9.414 5.778-8.64 6.102-7.884 6.264-7.074 6.264-6.246 6.264-5.436 6.102-4.626 5.778-3.87 5.472-3.096 5.004-2.412 4.428-1.836 3.852-1.26 3.15-.792 2.394-.486 1.638-.162 .828 0 0 0" fill-rule="evenodd"/><path transform="matrix(0,1,1,0,576.219,81.72)" d="M0 0-2.97-2.988C-3.276-2.574-3.528-2.124-3.69-1.602-3.87-1.098-3.96-.558-3.96 0-3.96 .558-3.87 1.098-3.69 1.62-3.618 1.872-3.51 2.106-3.384 2.34-3.33 2.466-3.258 2.574-3.186 2.682-3.15 2.736-3.114 2.79-3.078 2.826-3.06 2.862-3.06 2.88-3.024 2.916V2.934H-3.006V2.952L-2.988 2.97-2.97 2.988 0 0" fill="#e1e1e1" fill-rule="evenodd"/><path transform="matrix(0,1,1,0,575.193,82.764)" d="M0 0-2.988-2.988C-2.592-3.276-2.124-3.528-1.62-3.708-1.098-3.888-.558-3.978 0-3.978 .54-3.978 1.098-3.888 1.602-3.708 1.854-3.618 2.106-3.51 2.34-3.384 2.448-3.33 2.556-3.276 2.664-3.204 2.718-3.168 2.772-3.132 2.826-3.096 2.844-3.078 2.88-3.06 2.898-3.042 2.916-3.042 2.934-3.024 2.934-3.006H2.952L2.97-2.988 0 0" fill="#e1e1e1" fill-rule="evenodd"/><path transform="matrix(0,1,1,0,576.219,83.79)" d="M0 0 2.988 2.988C3.276 2.592 3.528 2.124 3.708 1.62 3.87 1.098 3.978 .558 3.978 0 3.978-.558 3.87-1.098 3.708-1.602 3.528-2.124 3.276-2.574 2.988-2.988L0 0" fill="#e1e1e1" fill-rule="evenodd"/><path transform="matrix(0,1,1,0,577.245,82.764)" d="M0 0 2.97 2.988C2.574 3.294 2.124 3.546 1.602 3.708 1.098 3.888 .54 3.978 0 3.978-.558 3.978-1.098 3.888-1.62 3.708-2.124 3.546-2.592 3.294-2.988 2.988L0 0" fill="#e1e1e1" fill-rule="evenodd"/><path transform="matrix(0,1,1,0,556.437,98.082)" d="M0 0V3.168H-.198V1.566H-1.692V2.88H-1.854V1.566H-3.042L-3.078 1.602H-3.114L-3.132 1.566-3.15 1.458-3.168 1.314H-.198V0" fill-rule="evenodd"/><path transform="matrix(0,1,1,0,561.999,96.804)" d="M0 0H1.368V.216H0V1.638H-.198V.216H-1.278V1.332H-1.458V-.72L-1.782-.558-1.8-.486H-1.836L-1.872-.522-1.926-.612-1.98-.756-1.332-1.062-.738-1.458-.594-1.278-.936-1.044-1.278-.828V0H-.198V-1.566H0" fill-rule="evenodd"/><path transform="matrix(0,1,1,0,565.833,98.082)" d="M0 0V1.116L-.036 1.314-.144 1.494-.306 1.638-.522 1.764-.738 1.836-.792 1.782-.846 1.638-.81 1.62-.432 1.494-.27 1.332-.198 1.152V.252L-.234 .036-.306-.054H-1.782L-2.034 1.818-2.25 1.8-1.998-.054H-3.006L-3.042 0H-3.078L-3.114-.018-3.132-.09-3.168-.288H-1.962L-1.818-1.422-1.584-1.368-1.746-.288H-.27L-.162-.252-.09-.198-.036-.126" fill-rule="evenodd"/><path transform="matrix(0,1,1,0,570.459,97.524)" d="M0 0 .162-.126-.036-.396-.216-.702-.396-.558-.216-.27" fill-rule="evenodd"/><path transform="matrix(0,1,1,0,570.891,97.002)" d="M0 0H.81L.9-.018 .936-.072V-.36L.954-.414H.99L1.098-.396 1.134-.36 1.152-.288V.072L1.116 .144 1.062 .198 .99 .234H0L-.018 .27V.63L-.036 .666H-.18L-.216 .63V.27L-.234 .234H-.468L-.504 .288-.54 .27-.558 .216-.576 .126-.594 .036-.576 0H-.234L-.216-.018V-1.134L-.18-1.17H-.036L-.018-1.134V-.018" fill-rule="evenodd"/><path transform="matrix(0,1,1,0,570.765,96.12)" d="M0 0V.846L.018 .882H.162L.18 .846V-1.116L.162-1.152H.018L0-1.116V-.288L-.018-.27H-.612L-.63-.288V-.936L-.666-.972H-.792L-.81-.936-.828-.864V-.288L-.846-.27H-1.242L-1.278-.216-1.242-.09V-.018L-1.206 .018H-1.17L-1.116-.036H-.846L-.828 0V.63L-.792 .666H-.666L-.63 .63V0L-.612-.036H-.018" fill-rule="evenodd"/><path transform="matrix(0,1,1,0,575.535,95.04)" d="M0 0V-2.952H.18V-1.818L1.008-2.394 1.044-2.898 1.188-2.844 1.278-2.79 1.314-2.754V-2.718L1.26-2.7 1.008-.396 1.368-.216 1.314 0 .792-.288 .324-.648 .432-.81 .846-.504 1.008-2.142 .18-1.566V0" fill-rule="evenodd"/><path transform="matrix(0,1,1,0,572.493,97.956)" d="M0 0V3.15H-.198V1.674H-.882V2.844H-1.08V1.674H-1.422L-1.476 1.764-1.512 1.8-1.548 1.764-1.566 1.674-1.584 1.458H-1.08V.27H-.882V1.458H-.198V0" fill-rule="evenodd"/><path transform="matrix(0,1,1,0,569.469,95.202)" d="M0 0H2.268L2.286-.036V-.198L2.268-.234H2.106L2.088-.252V-.756L2.106-.792H2.52L2.556-.81V-.99L2.52-1.008H0L-.018-.99V-.036L0 0ZM1.89-.756V-.252L1.872-.234H1.116L1.098-.252V-.756L1.116-.792H1.872L1.89-.756ZM.918-.756V-.252L.9-.234H.198L.162-.252V-.756L.198-.792H.9L.918-.756" fill-rule="evenodd"/><path transform="matrix(0,1,1,0,585.957,94.842)" d="M0 0H1.386V-1.458H1.566V0H3.312V.234H1.566V1.728H1.386V.234H.144L.108 .288 .09 .324 .054 .306 .036 .252" fill-rule="evenodd"/><path transform="matrix(0,1,1,0,594.381,97.686)" d="M0 0-.162 .126-.378-.144-.558-.432-.378-.558-.198-.27" fill-rule="evenodd"/><path transform="matrix(0,1,1,0,595.659,96.3)" d="M0 0V-1.962L-.018-1.98H-.162L-.18-1.962V-1.134L-.198-1.098H-.792L-.81-1.134V-1.782L-.846-1.818H-.972L-.99-1.782-1.008-1.71V-1.134L-1.026-1.098H-1.422L-1.458-1.062-1.422-.936V-.864L-1.386-.828H-1.35L-1.296-.864H-1.026L-1.008-.846V-.198L-.972-.18H-.846L-.81-.198V-.846L-.792-.864H-.198L-.18-.846V0L-.162 .036H-.018" fill-rule="evenodd"/><path transform="matrix(0,1,1,0,593.805,96.786)" d="M0 0V1.116L-.018 1.134H-.36L-.378 1.17-.36 1.26-.342 1.368-.324 1.404-.288 1.422-.252 1.368H-.018L0 1.404V1.764L.036 1.8H.18L.198 1.764V1.404L.216 1.368H1.206L1.278 1.332 1.332 1.278 1.368 1.206V.846L1.35 .792 1.314 .756 1.206 .72H1.17L1.152 .774V1.062L1.116 1.116 1.026 1.134H.216L.198 1.116V0L.18-.036H.036" fill-rule="evenodd"/><path transform="matrix(0,1,1,0,593.517,95.202)" d="M0 0H2.268L2.286-.036V-.198L2.268-.234H2.106L2.088-.252V-.756L2.106-.792H2.52L2.556-.81V-.99L2.52-1.008H0L-.018-.99V-.036L0 0ZM1.89-.252 1.872-.234H1.116L1.098-.252V-.756L1.116-.792H1.872L1.89-.756V-.252ZM.918-.756V-.252L.9-.234H.198L.162-.252V-.756L.198-.792H.9L.918-.756" fill-rule="evenodd"/><path transform="matrix(0,1,1,0,577.911,98.028)" d="M0 0H-2.898V-1.44H-3.078V1.764H-2.898V.234H-2.142L-1.8 .846-1.404 1.368-1.242 1.224-1.566 .756-1.908 .234H0" fill-rule="evenodd"/><path transform="matrix(0,1,1,0,581.295,94.824)" d="M0 0 .648-.324 1.242-.72 1.386-.54 1.044-.288 .702-.09V.738H1.782V-.81H1.98V.738H3.348V.972H1.98V2.376H1.782V.972H.702V2.088H.522V.018L.198 .18 .18 .252 .144 .27 .108 .234 .054 .126" fill-rule="evenodd"/><path transform="matrix(0,1,1,0,0,0)" d="M96.39 588.549H96.57001V591.645H96.39Z"/><path transform="matrix(0,1,1,0,577.947,93.33)" d="M0 0H-1.944V-.306L-1.836-.36C-1.726-.43-1.597-.558-1.62-.702V-.774H-1.368V-.342H0V-.018" fill-rule="evenodd"/><path transform="matrix(0,1,1,0,0,0)" d="M92.25 575.283H92.448V575.931H92.25Z"/><path transform="matrix(0,1,1,0,579.279,93.33)" d="M0 0H-1.944V-.306L-1.836-.36C-1.726-.43-1.597-.558-1.62-.702V-.774H-1.368V-.342H0V-.018" fill-rule="evenodd"/><path transform="matrix(0,1,1,0,568.623,91.71)" d="M0 0 .018-.018C.489-.296 1.023-.527 1.584-.522H1.656V-.864H1.584C1.081-.842 .457-.644 .036-.36L0-.342V-1.062H-.324V0" fill-rule="evenodd"/><path transform="matrix(0,1,1,0,571.953,93.33)" d="M0 0V.342H-.864C-.977 .346-1.119 .393-1.17 .504V.558L-1.152 .594-1.134 .612-1.062 .666-.99 .702H-.954L-.882 .72H0V1.062L-.882 1.044C-1.293 1.1-1.25 1.398-.846 1.422H0V1.764L-.882 1.746H-1.044L-1.26 1.692-1.314 1.674-1.422 1.602-1.44 1.566-1.458 1.548-1.476 1.53-1.494 1.476-1.512 1.44V1.242L-1.476 1.17-1.458 1.134-1.404 1.08-1.386 1.062H-1.368L-1.332 1.044-1.242 1.008-1.314 .972-1.368 .936-1.422 .9-1.44 .864-1.458 .846-1.476 .828-1.494 .792-1.512 .738V.666C-1.508 .525-1.536 .576-1.458 .432L-1.422 .396-1.314 .324-1.476 .306V0" fill-rule="evenodd"/><path transform="matrix(0,1,1,0,583.743,92.448)" d="M0 0 .882 .018V-.306H0L-.072-.324-.108-.342-.18-.36-.252-.432-.27-.45-.288-.486V-.522L-.27-.558-.252-.576-.18-.648-.144-.666H-.108L-.09-.684 0-.702H.882V-1.044H-.594V-.738L-.432-.72-.54-.63-.576-.594-.594-.576-.63-.504V-.288L-.612-.252-.594-.216-.576-.198-.558-.162-.54-.126-.486-.09-.432-.072-.36-.036-.45 0-.486 .018-.504 .036H-.522L-.54 .054V.072L-.594 .126-.63 .198V.414L-.612 .45-.594 .486-.576 .504-.558 .54-.54 .576-.486 .612-.432 .63-.378 .666-.234 .702H0L.882 .72V.396H0L-.072 .378-.108 .36-.18 .342-.252 .27-.27 .252-.288 .216V.18L-.27 .144-.252 .108-.18 .054-.144 .036H-.108L-.09 .018 0 0H.036 0" fill-rule="evenodd"/><path transform="matrix(0,1,1,0,581.853,92.718)" d="M0 0H.018L.054-.018 .126-.036H.162L.216-.054 .252-.072H.27L.306-.09 .342-.108H.36L.396-.144H.414L.432-.162 .468-.18 .486-.216 .54-.27H.558L.576-.306 .594-.342 .648-.432V-.576L.63-.612 .612-.648C.552-.696 .56-.755 .468-.792L.45-.81 .414-.828H1.116V-1.116H-.828V-.828L-.702-.81-.756-.756-.792-.72C-.883-.502-.898-.482-.792-.27L-.702-.18C-.53-.062-.281 .01-.072 0H0ZM.306-.576V-.558L.288-.504C.168-.255-.479-.256-.54-.558V-.576L-.522-.63-.486-.684-.414-.738-.378-.774H-.342L-.234-.81H0L.108-.774H.144L.198-.72 .252-.684 .288-.63 .306-.576" fill-rule="evenodd"/><path transform="matrix(0,1,1,0,571.107,92.394)" d="M0 0H.882L.918 .018 .936 .054V-.27L.774-.306 .846-.342 .9-.378 .936-.45 .99-.522V-.666L.972-.756 .936-.81 .9-.864 .864-.9 .81-.954 .774-.99 .72-1.008 .666-1.044H.378L.306-1.008 .234-.954 .18-.882 .162-.846 .126-.774 .09-.702 .072-.666 .054-.612V-.378L.036-.36 0-.342-.054-.306H-.108C-.235-.368-.32-.518-.198-.63L-.162-.666-.126-.702H-.054V-.972H-.144C-.737-.824-.62-.054-.054 0H0ZM.198-.306 .234-.324 .252-.342C.349-.566 .271-.782 .576-.738L.594-.72 .63-.702 .666-.648 .684-.612V-.504L.648-.432 .612-.378 .558-.342 .504-.324 .432-.306H.198" fill-rule="evenodd"/></g></svg>