<?xml version='1.0' encoding='UTF-8'?>
<svg width="250.07" height="250.25" viewBox="159.91 10.87 250.07 250.25" xmlns="http://www.w3.org/2000/svg" xmlns:xlink="http://www.w3.org/1999/xlink" xmlns:inkscape="http://www.inkscape.org/namespaces/inkscape" version="1.1"><g transform="scale(10.0) translate(-111.171, -505.008)"><defs><clipPath id="clip_19"><path transform="matrix(0,1,1,0,0,0)" d="M0 74.451H595.008V767.55899H0Z"/></clipPath><clipPath id="clip_20"><path transform="matrix(0,1,1,0,0,0)" d="M0 842.013H595.224V.008972168H0Z"/></clipPath></defs><path transform="matrix(0,1,1,0,151.923,518.598)" d="M0 0C-1.602 0-3.204-.306-4.68-.936-6.174-1.548-7.524-2.448-8.676-3.582-9.81-4.716-10.71-6.084-11.322-7.56-11.934-9.054-12.258-10.656-12.258-12.258-12.258-13.86-11.934-15.462-11.322-16.956-10.71-18.432-9.81-19.8-8.676-20.934-7.524-22.068-6.174-22.968-4.68-23.598-3.204-24.21-1.602-24.516 0-24.516 1.62-24.516 3.204-24.21 4.698-23.598 6.192-22.968 7.542-22.068 8.676-20.934 9.81-19.8 10.728-18.432 11.34-16.956 11.952-15.462 12.276-13.86 12.276-12.258 12.276-10.656 11.952-9.054 11.34-7.56 10.728-6.084 9.81-4.716 8.676-3.582 7.542-2.448 6.192-1.548 4.698-.936 3.204-.306 1.62 0 0 0" fill="#ff0000" fill-rule="evenodd"/><path transform="matrix(0,1,1,0,147.423,524.628)" d="M0 0C-.936 .72-1.998 1.278-3.132 1.62-4.266 1.962-5.454 2.106-6.642 2.034-7.83 1.962-8.982 1.674-10.062 1.188-11.142 .702-12.132 .018-12.96-.828-13.338-1.206-13.716-1.62-14.04-2.088-14.364-2.556-14.67-3.078-14.922-3.618-15.174-4.158-15.372-4.734-15.534-5.328-15.678-5.922-15.786-6.534-15.822-7.146-15.858-7.758-15.84-8.388-15.768-8.982-15.678-9.594-15.552-10.188-15.372-10.764-15.192-11.322-14.958-11.862-14.688-12.366-14.418-12.888-14.112-13.338-13.77-13.77L0 0" fill="#ffffff" fill-rule="evenodd"/><path transform="matrix(0,1,1,0,131.907,512.586)" d="M0 0C.936-.72 1.998-1.278 3.132-1.62 4.266-1.962 5.454-2.106 6.624-2.034 7.812-1.962 8.982-1.674 10.062-1.188 11.142-.702 12.114-.018 12.96 .828 13.338 1.206 13.698 1.62 14.022 2.088 14.364 2.556 14.652 3.078 14.904 3.618 15.156 4.158 15.372 4.734 15.516 5.328 15.678 5.922 15.768 6.534 15.804 7.146 15.84 7.758 15.822 8.388 15.75 8.982 15.678 9.594 15.534 10.188 15.354 10.764 15.174 11.322 14.94 11.862 14.67 12.366 14.4 12.888 14.094 13.338 13.77 13.77L0 0" fill="#ffffff" fill-rule="evenodd"/><path transform="matrix(0,1,1,0,138.171,515.358)" d="M0 0V8.118C0 8.19 .036 8.262 .072 8.316 .126 8.388 .198 8.424 .27 8.442L2.592 8.946V2.574L2.268 2.25V4.086H.648V.846H.864L0 0ZM.648 7.974V4.734H2.268V8.298L.648 7.974" fill-rule="evenodd"/><path transform="matrix(0,1,1,0,141.879,519.084)" d="M0 0V5.238H-.972V-.972" fill-rule="evenodd"/><path transform="matrix(0,1,1,0,142.041,519.246)" d="M0 0V5.076H1.296L1.62 5.4H1.944L2.268 2.646H1.944C1.782 2.646 1.602 2.61 1.422 2.52 1.242 2.412 1.08 2.268 .972 2.088 .864 1.89 .81 1.674 .81 1.476 .828 1.278 .882 1.098 .954 .954L0 0" fill-rule="evenodd"/><path transform="matrix(0,1,1,0,144.417,521.622)" d="M0 0C-.378 .18-.828 .108-1.116-.18-1.26-.324-1.35-.504-1.386-.702-1.422-.918-1.386-1.134-1.296-1.296L-.918-.918C-.918-.792-.882-.63-.774-.522-.72-.468-.648-.432-.576-.414-.522-.378-.45-.378-.378-.378L0 0" fill-rule="evenodd"/><path transform="matrix(0,1,1,0,0,0)" d="M518.112 132.213H519.084V136.425H518.112Z"/><path transform="matrix(0,1,1,0,135.615,521.514)" d="M0 0V5.22L-2.268 2.97V2.754H-.324V.81H-2.268V-3.402H-.972L-.648-3.726H-.324V-2.268C-.45-2.268-.594-2.232-.738-2.178-.882-2.124-1.008-2.034-1.116-1.926-1.242-1.818-1.314-1.692-1.368-1.548-1.422-1.404-1.458-1.26-1.458-1.134-1.458-.99-1.422-.846-1.368-.72-1.314-.576-1.242-.432-1.116-.324-1.008-.216-.882-.126-.738-.072-.594-.018-.45 0-.324 0H0" fill-rule="evenodd"/><path transform="matrix(0,1,1,0,132.213,517.95)" d="M0 0V4.212H-.846L-1.494 3.564H-.324V.972L-1.944 1.908V3.132L-2.592 2.484V2.052C-2.592 1.89-2.538 1.71-2.448 1.566-2.358 1.404-2.232 1.296-2.088 1.206L0 0" fill-rule="evenodd"/><path transform="matrix(0,1,1,0,135.453,521.19)" d="M0 0C-.252 0-.504-.09-.684-.288-.864-.468-.972-.702-.972-.972-.972-1.224-.864-1.476-.684-1.656-.504-1.836-.252-1.944 0-1.944 .252-1.944 .504-1.836 .684-1.656 .864-1.476 .972-1.224 .972-.972 .972-.702 .864-.468 .684-.288 .504-.09 .252 0 0 0ZM0-.486C.27-.486 .486-.702 .486-.972 .486-1.242 .27-1.458 0-1.458-.27-1.458-.486-1.242-.486-.972-.486-.702-.27-.486 0-.486" fill-rule="evenodd"/><path transform="matrix(0,1,1,0,138.423,519.084)" d="M0 0V-.054H-.036" fill-rule="evenodd"/></g></svg>