<?xml version='1.0' encoding='UTF-8'?>
<svg width="250.74" height="250.56" viewBox="159.57 10.71 250.74 250.56" xmlns="http://www.w3.org/2000/svg" xmlns:xlink="http://www.w3.org/1999/xlink" xmlns:inkscape="http://www.inkscape.org/namespaces/inkscape" version="1.1"><g transform="scale(10.0) translate(-220.305, -370.368)"><defs><clipPath id="clip_19"><path transform="matrix(0,1,1,0,0,0)" d="M0 74.451H595.008V767.55899H0Z"/></clipPath><clipPath id="clip_20"><path transform="matrix(0,1,1,0,0,0)" d="M0 842.013H595.224V.008972168H0Z"/></clipPath></defs><path transform="matrix(0,1,1,0,260.949,383.958)" d="M0 0C-1.584 0-3.168-.324-4.644-.936-6.12-1.548-7.452-2.43-8.586-3.564-9.702-4.698-10.602-6.03-11.214-7.506-11.826-8.982-12.132-10.566-12.132-12.15-12.132-13.752-11.826-15.336-11.214-16.812-10.602-18.288-9.702-19.62-8.586-20.754-7.452-21.87-6.12-22.77-4.644-23.382-3.168-23.994-1.584-24.3 0-24.3 1.602-24.3 3.186-23.994 4.662-23.382 6.138-22.77 7.47-21.87 8.604-20.754 9.72-19.62 10.62-18.288 11.232-16.812 11.844-15.336 12.15-13.752 12.15-12.15 12.15-10.566 11.844-8.982 11.232-7.506 10.62-6.03 9.72-4.698 8.604-3.564 7.47-2.448 6.138-1.548 4.662-.936 3.186-.324 1.602 0 0 0" fill="#ff0000" fill-rule="evenodd"/><path transform="matrix(0,1,1,0,245.595,378.9)" stroke-width=".288" stroke-linecap="round" stroke-linejoin="round" fill="none" stroke="#ff0000" d="M0 0 .072-.072"/><path transform="matrix(0,1,1,0,245.253,377.748)" stroke-width=".288" stroke-linecap="round" stroke-linejoin="round" fill="none" stroke="#ff0000" d="M0 0 1.152 .342"/><path transform="matrix(0,1,1,0,244.173,377.62199)" stroke-width=".288" stroke-linecap="round" stroke-linejoin="round" fill="none" stroke="#ff0000" d="M0 0 .126 1.08"/><path transform="matrix(0,1,1,0,242.841,376.29)" d="M0 0C-.72 .918-1.26 1.962-1.62 3.096-1.962 4.212-2.106 5.382-2.016 6.552-1.944 7.74-1.674 8.874-1.188 9.954-.702 11.016-.018 11.988 .81 12.816 1.188 13.194 1.602 13.554 2.07 13.896 2.538 14.22 3.024 14.508 3.564 14.76 4.104 15.012 4.68 15.21 5.256 15.372 5.85 15.516 6.462 15.606 7.074 15.642 7.686 15.696 8.298 15.678 8.892 15.588 9.504 15.516 10.08 15.39 10.656 15.21 11.214 15.03 11.754 14.796 12.24 14.526 12.744 14.256 13.212 13.95 13.626 13.626L0 0" fill="#ffffff" fill-rule="evenodd"/><path transform="matrix(0,1,1,0,254.757,391.644)" d="M0 0C.72-.936 1.26-1.98 1.602-3.096 1.962-4.23 2.088-5.4 2.016-6.57 1.944-7.74 1.656-8.892 1.17-9.972 .702-11.034 .018-12.006-.81-12.834-1.188-13.212-1.602-13.572-2.07-13.896-2.538-14.238-3.042-14.526-3.564-14.778-4.104-15.03-4.68-15.228-5.256-15.372-5.85-15.534-6.462-15.624-7.074-15.66-7.686-15.696-8.298-15.678-8.892-15.606-9.504-15.534-10.08-15.39-10.656-15.21-11.214-15.03-11.754-14.814-12.258-14.544-12.744-14.274-13.212-13.968-13.644-13.644L0 0" fill="#ffffff" fill-rule="evenodd"/><path transform="matrix(0,1,1,0,246.495,383.382)" d="M0 0C-.126-.27-.288-.504-.504-.72-.702-.936-.954-1.098-1.224-1.224L0 0" fill-rule="evenodd"/><path transform="matrix(0,1,1,0,248.259,378.09)" d="M0 0-.378-.396-.216-1.368-.396-1.386-1.35-4.608-1.026-4.662-.468-4.086-.342-3.006 .81-2.664 .882-2.736 1.548-2.07 1.98-1.494C2.034-1.134 2.178-.792 2.376-.486 2.898 .018 3.132 .738 2.988 1.458 3.258 1.458 3.528 1.404 3.798 1.296 4.05 1.188 4.284 1.044 4.482 .864L4.77 1.134C4.284 1.602 3.654 1.854 2.988 1.854 2.97 2.142 2.844 2.394 2.61 2.556L2.484 3.258 3.312 3.384 4.41 2.214 4.806 2.556 3.852 3.78 3.294 3.978 3.708 4.32 4.806 3.636 5.13 4.05 3.762 5.058 2.268 4.284C2.304 4.32 2.34 4.374 2.322 4.446 2.304 4.518 2.268 4.572 2.214 4.59L1.62 7.632C1.548 7.668 1.476 7.668 1.386 7.614 1.314 7.56 1.296 7.488 1.296 7.416L1.854 4.59 .666 5.346C.54 5.436 .36 5.4 .252 5.274L-.108 4.464C-.126 4.428-.126 4.41-.126 4.374-.126 4.356-.126 4.338-.108 4.32V4.302C-.108 4.302-.108 4.32-.108 4.302-.09 4.302-.09 4.302-.09 4.284L.954 3.132 1.296 3.51 1.908 3.168 2.124 3.204 2.394 1.8C1.98 1.692 1.584 1.494 1.26 1.17 .918 .864 .684 .468 .558 .072 .45 .036 .342 .018 .234 0 .27 .252 .342 .468 .45 .684 .468 .756 .45 .828 .396 .846 .342 .882 .27 .882 .234 .828 .09 .558 .018 .288 0 0ZM1.062 .252C1.188 .504 1.368 .756 1.602 .954 1.836 1.152 2.106 1.296 2.394 1.368 2.232 1.134 2.034 .9 1.818 .72 1.584 .522 1.332 .36 1.062 .252" fill-rule="evenodd"/><path transform="matrix(0,1,1,0,254.109,377.586)" d="M0 0C-.18 0-.324-.072-.45-.18-.558-.306-.63-.45-.63-.612-.63-.792-.558-.936-.45-1.062-.324-1.17-.18-1.242 0-1.242 .162-1.242 .306-1.17 .432-1.062 .54-.936 .612-.792 .612-.612 .612-.45 .54-.306 .432-.18 .306-.072 .162 0 0 0" fill-rule="evenodd"/><path transform="matrix(0,1,1,0,248.961,390.906)" d="M0 0C.036-.126 .144-.27 .324-.306 .486-.36 .666-.324 .774-.234 .882-.162 .972-.018 .972 .162 .972 .342 .882 .486 .774 .576 .666 .666 .486 .702 .324 .648 .144 .594 .036 .468 0 .342V2.232C.036 2.106 .144 1.962 .324 1.908 .486 1.854 .666 1.908 .774 1.98 .882 2.07 .972 2.214 .972 2.394 .972 2.574 .882 2.718 .774 2.808 .666 2.88 .486 2.934 .324 2.88 .144 2.826 .036 2.7 0 2.556V3.744H-.81V.432L-1.944-.576H-2.592C-2.574-.558-2.574-.522-2.592-.504-2.61-.468-2.646-.45-2.682-.45-2.736-.432-2.772-.432-2.826-.45-2.862-.468-2.88-.504-2.88-.522L-3.348-2.016-4.572-3.276C-4.68-3.348-4.788-3.492-4.788-3.672-4.806-3.852-4.716-3.996-4.608-4.086L-2.97-5.04-1.242-4.914-.234-6.102 .162-5.706-.864-4.41-1.332-4.194-.756-4.05 .576-4.536 .792-3.978-.828-3.384-2.268-3.798-3.474-3.312-2.844-2.16-2.574-1.116H0V0ZM-1.242-.576-.81-.198V-.576H-1.242" fill-rule="evenodd"/><path transform="matrix(0,1,1,0,246.765,385.65)" d="M0 0C-.162 0-.342-.072-.468-.198-.576-.306-.648-.486-.648-.648-.648-.828-.576-.99-.468-1.116-.342-1.242-.162-1.314 0-1.314 .18-1.314 .342-1.242 .468-1.116 .594-.99 .666-.828 .666-.648 .666-.486 .594-.306 .468-.198 .342-.072 .18 0 0 0" fill-rule="evenodd"/></g></svg>