<?xml version='1.0' encoding='UTF-8'?>
<svg width="250.25" height="250.25" viewBox="159.73 10.87 250.25 250.25" xmlns="http://www.w3.org/2000/svg" xmlns:xlink="http://www.w3.org/1999/xlink" xmlns:inkscape="http://www.inkscape.org/namespaces/inkscape" version="1.1"><g transform="scale(10.0) translate(-220.305, -478.080)"><defs><clipPath id="clip_19"><path transform="matrix(0,1,1,0,0,0)" d="M0 74.451H595.008V767.55899H0Z"/></clipPath><clipPath id="clip_20"><path transform="matrix(0,1,1,0,0,0)" d="M0 842.013H595.224V.008972168H0Z"/></clipPath></defs><path transform="matrix(0,1,1,0,261.057,491.67)" d="M0 0C-1.602 0-3.204-.324-4.68-.936-6.174-1.548-7.524-2.448-8.658-3.6-9.81-4.734-10.71-6.084-11.322-7.578-11.934-9.054-12.258-10.656-12.258-12.258-12.258-13.878-11.934-15.462-11.322-16.956-10.71-18.45-9.81-19.8-8.658-20.934-7.524-22.068-6.174-22.986-4.68-23.598-3.204-24.21-1.602-24.534 0-24.534 1.62-24.534 3.204-24.21 4.698-23.598 6.192-22.986 7.542-22.068 8.676-20.934 9.81-19.8 10.728-18.45 11.34-16.956 11.952-15.462 12.276-13.878 12.276-12.258 12.276-10.656 11.952-9.054 11.34-7.578 10.728-6.084 9.81-4.734 8.676-3.6 7.542-2.448 6.192-1.548 4.698-.936 3.204-.324 1.62 0 0 0" fill="#ff0000" fill-rule="evenodd"/><path transform="matrix(0,1,1,0,257.619,495.954)" d="M0 0C-.288 .144-.576 .27-.9 .378-1.206 .504-1.53 .594-1.854 .684-2.538 .846-3.24 .954-3.978 .972-4.716 1.008-5.472 .936-6.228 .792-6.984 .63-7.722 .396-8.424 .072-9.126-.27-9.792-.666-10.386-1.152-10.998-1.638-11.52-2.178-11.988-2.754-12.438-3.33-12.816-3.942-13.122-4.572-13.266-4.878-13.392-5.184-13.518-5.508-13.626-5.814-13.716-6.12-13.788-6.426L0 0" fill="#ffffff" fill-rule="evenodd"/><path transform="matrix(0,1,1,0,256.305,497.988)" d="M0 0C.252-.216 .522-.468 .774-.72 1.026-.99 1.26-1.278 1.494-1.584 1.728-1.89 1.944-2.214 2.16-2.556 2.358-2.898 2.538-3.258 2.7-3.654 3.042-4.428 3.276-5.256 3.402-6.12 3.528-7.002 3.528-7.902 3.42-8.802 3.294-9.684 3.06-10.548 2.718-11.358 2.358-12.186 1.926-12.924 1.404-13.572 1.134-13.914 .864-14.202 .576-14.49 .306-14.778 0-15.03-.306-15.264-.612-15.498-.918-15.714-1.224-15.912-1.548-16.092-1.854-16.254-2.16-16.398-2.484-16.542-2.808-16.686-3.15-16.794-3.492-16.92-3.852-17.028-4.23-17.1-4.608-17.19-5.004-17.244-5.4-17.28-5.796-17.316-6.21-17.334-6.624-17.316-7.47-17.298-8.316-17.154-9.162-16.902-10.008-16.65-10.818-16.272-11.592-15.786-12.348-15.3-13.032-14.724-13.626-14.058-14.202-13.41-14.688-12.69-15.066-11.934-15.264-11.574-15.426-11.196-15.552-10.818-15.696-10.44-15.804-10.062-15.876-9.684-15.966-9.306-16.02-8.946-16.074-8.568-16.11-8.208-16.128-7.866-16.128-7.506L0 0" fill="#ffffff" fill-rule="evenodd"/><path transform="matrix(0,1,1,0,241.023,493.722)" d="M0 0C0-.09-.036-.198-.126-.288-.162-.324-.216-.36-.252-.378-.306-.396-.36-.414-.414-.414H-2.25C-2.394-.414-2.556-.36-2.682-.234-2.808-.108-2.862 .054-2.862 .198L-4.356 .576C-4.608 .648-4.86 .774-5.04 1.008-5.13 1.134-5.202 1.26-5.256 1.386-5.292 1.512-5.31 1.656-5.31 1.782V4.77C-5.31 5.022-5.238 5.292-5.04 5.526-4.95 5.652-4.842 5.742-4.734 5.814-4.608 5.886-4.482 5.94-4.356 5.958L-2.862 6.336C-2.862 6.48-2.808 6.642-2.682 6.768-2.556 6.894-2.394 6.948-2.25 6.948H-.414C-.306 6.948-.198 6.912-.126 6.84-.09 6.786-.054 6.75-.036 6.696-.018 6.642 0 6.588 0 6.534H1.044C1.152 6.408 1.224 6.228 1.224 6.03 1.224 5.832 1.152 5.652 1.044 5.526H-.036C.054 4.77 .108 4.032 .108 3.276 .108 2.52 .054 1.764-.036 1.026H1.044C1.152 .882 1.224 .702 1.224 .504 1.224 .324 1.152 .144 1.044 0H0ZM-3.06 5.274C-3.06 5.346-3.078 5.454-3.15 5.526-3.24 5.616-3.348 5.634-3.42 5.634L-4.374 5.508C-4.5 5.508-4.644 5.436-4.752 5.31-4.86 5.202-4.914 5.04-4.914 4.914V1.638C-4.914 1.332-4.68 1.062-4.374 1.026L-3.42 .918C-3.384 .918-3.33 .918-3.294 .936-3.24 .954-3.204 .972-3.15 1.008-3.078 1.08-3.06 1.188-3.06 1.278-3.132 1.944-3.168 2.61-3.168 3.276-3.168 3.942-3.132 4.608-3.06 5.274" fill-rule="evenodd"/><path transform="matrix(0,1,1,0,251.049,493.686)" d="M0 0C.072 .54 .108 1.098 .126 1.638 .144 2.196 .144 2.754 .108 3.312L-3.132 1.8C-3.114 1.278-3.078 .756-3.024 .252-3.024 .162-3.042 .054-3.114-.018-3.168-.054-3.204-.09-3.258-.108-3.294-.108-3.348-.126-3.384-.108L-4.338 0C-4.464 .018-4.608 .072-4.716 .198-4.824 .324-4.878 .468-4.878 .612V.99L-5.274 .792V.756C-5.274 .612-5.256 .486-5.22 .36-5.166 .216-5.094 .09-5.004-.018-4.914-.126-4.806-.234-4.698-.306-4.572-.378-4.446-.414-4.32-.45L-2.826-.828C-2.826-.972-2.772-1.134-2.646-1.26-2.52-1.386-2.358-1.44-2.214-1.44H-.378C-.27-1.44-.162-1.404-.09-1.314 0-1.242 .036-1.134 .036-1.026H1.08C1.188-.9 1.26-.72 1.26-.522 1.26-.324 1.188-.144 1.08 0H0" fill-rule="evenodd"/><path transform="matrix(0,1,1,0,256.971,493.308)" d="M0 0H-1.836C-1.908 0-1.98-.018-2.07-.054-2.142-.072-2.214-.126-2.268-.18-2.34-.234-2.376-.306-2.412-.396-2.43-.468-2.448-.54-2.448-.612L-3.942-.99C-4.194-1.044-4.446-1.188-4.626-1.422-4.716-1.53-4.788-1.656-4.842-1.8-4.878-1.926-4.896-2.07-4.896-2.196V-2.88L-4.5-2.682V-2.052C-4.5-1.908-4.446-1.764-4.338-1.638-4.23-1.512-4.086-1.458-3.96-1.44L-3.006-1.332C-2.97-1.314-2.916-1.332-2.88-1.332-2.826-1.35-2.79-1.386-2.736-1.422-2.664-1.494-2.646-1.602-2.646-1.692-2.646-1.71-2.646-1.728-2.664-1.764V-1.836L.414-.396C.414-.306 .36-.198 .288-.108 .198-.036 .108 0 0 0" fill-rule="evenodd"/></g></svg>