<?xml version='1.0' encoding='UTF-8'?>
<svg width="231.84" height="257.04" viewBox="166.23 8.04 231.84 257.04" xmlns="http://www.w3.org/2000/svg" xmlns:xlink="http://www.w3.org/1999/xlink" xmlns:inkscape="http://www.inkscape.org/namespaces/inkscape" version="1.1"><g transform="scale(10.0) translate(-602.205, -154.944)"><path transform="matrix(1,0,0,-1,0,595.276)" d="M619.68 415.036V438.316C619.68 438.436 619.68 438.556 619.8 438.676 619.92 438.796 620.04 438.796 620.16 438.796H640.8 640.92C641.04 438.796 641.04 438.796 641.16 438.676L641.28 438.556C641.28 438.436 641.28 438.436 641.28 438.316V415.036C641.28 414.916 641.28 414.796 641.16 414.676 641.04 414.676 641.04 414.676 640.92 414.676 640.92 414.556 640.8 414.556 640.8 414.556H620.16C619.8 414.556 619.68 414.796 619.68 415.036Z" fill="#ffffff" fill-rule="evenodd"/><path transform="matrix(1,0,0,-1,0,595.276)" d="M624.96 431.596C624.96 431.836 624.96 431.956 624.84 432.076 624.72 432.196 624.6 432.316 624.36 432.316 624.24 432.316 624.12 432.316 624 432.196V432.316H623.76V430.516H624.12V430.996C624.12 430.876 624.24 430.876 624.36 430.876 624.72 430.876 624.96 431.236 624.96 431.596ZM624.36 431.236C624.24 431.236 624.24 431.236 624.12 431.356V431.476 431.836C624.12 431.836 624.24 431.956 624.36 431.956 624.48 431.956 624.6 431.956 624.6 431.836V431.716 431.476 431.356C624.6 431.236 624.48 431.236 624.36 431.236Z" fill="#ff0000" fill-rule="evenodd"/><path transform="matrix(1,0,0,-1,0,595.276)" d="M625.32 430.996V432.316H625.68V432.196L625.8 432.316C625.8 432.316 625.92 432.316 626.04 432.316V431.956C625.92 431.956 625.8 431.956 625.8 431.836 625.68 431.836 625.68 431.836 625.68 431.716V430.996H625.32Z" fill="#ff0000" fill-rule="evenodd"/><path transform="matrix(1,0,0,-1,0,595.276)" d="M627.48 431.596C627.48 432.076 627.36 432.316 626.88 432.316 626.64 432.316 626.52 432.196 626.4 432.076 626.28 431.956 626.28 431.836 626.28 431.596 626.28 431.356 626.28 431.236 626.4 431.116 626.52 430.996 626.64 430.876 626.88 430.876 627.12 430.876 627.24 430.996 627.36 431.116 627.48 431.236 627.48 431.356 627.48 431.596ZM627.12 431.596C627.12 431.356 627.12 431.236 626.88 431.236 626.76 431.236 626.76 431.236 626.64 431.356 626.64 431.356 626.64 431.476 626.64 431.596 626.64 431.836 626.76 431.956 626.88 431.956 627 431.956 627 431.956 627.12 431.836 627.12 431.836 627.12 431.716 627.12 431.596Z" fill="#ff0000" fill-rule="evenodd"/><path transform="matrix(1,0,0,-1,0,595.276)" d="M628.8 431.356C628.92 431.596 628.68 431.716 628.44 431.836 628.32 431.836 628.32 431.836 628.2 431.836 628.2 431.956 628.2 431.956 628.32 431.956 628.44 431.956 628.44 431.956 628.56 431.956L628.68 431.836 628.8 432.076C628.8 432.196 628.56 432.316 628.32 432.316 627.96 432.316 627.84 432.196 627.84 431.836 627.84 431.596 627.96 431.476 628.2 431.476 628.32 431.476 628.44 431.356 628.44 431.356V431.236H628.32C628.2 431.236 628.2 431.236 628.08 431.236L627.96 431.356 627.72 431.116C627.84 430.996 628.08 430.876 628.32 430.876 628.44 430.876 628.56 430.876 628.68 430.996 628.8 431.116 628.8 431.236 628.8 431.356Z" fill="#ff0000" fill-rule="evenodd"/><path transform="matrix(1,0,0,-1,0,595.276)" d="M630.24 431.476C630.24 431.956 630 432.316 629.64 432.316 629.28 432.316 629.04 432.076 629.04 431.596 629.04 431.356 629.04 431.236 629.16 431.116 629.28 430.996 629.52 430.876 629.76 430.876 629.88 430.876 630.12 430.996 630.24 431.116L630 431.356C629.88 431.236 629.76 431.236 629.76 431.236 629.64 431.236 629.52 431.236 629.52 431.236 629.52 431.356 629.4 431.356 629.4 431.356V431.476H630.24ZM629.4 431.716V431.716C629.4 431.836 629.4 431.836 629.52 431.956H629.64C629.76 431.956 629.88 431.836 629.88 431.836V431.716H629.4Z" fill="#ff0000" fill-rule="evenodd"/><path transform="matrix(1,0,0,-1,0,595.276)" d="M631.08 432.316C631.2 432.316 631.32 432.316 631.44 432.196 631.56 432.196 631.68 432.076 631.68 431.956L631.44 431.716C631.32 431.956 631.2 431.956 631.08 431.956 630.96 431.956 630.84 431.836 630.84 431.716V431.596 431.476C630.84 431.356 630.96 431.236 631.08 431.236 631.2 431.236 631.2 431.236 631.32 431.236 631.32 431.356 631.32 431.356 631.44 431.476L631.68 431.356C631.56 430.996 631.44 430.876 631.08 430.876 630.72 430.876 630.48 431.116 630.48 431.596 630.48 432.076 630.72 432.316 631.08 432.316Z" fill="#ff0000" fill-rule="evenodd"/><path transform="matrix(1,0,0,-1,0,595.276)" d="M632.76 432.196H633.12V430.876H632.76V430.996C632.76 430.996 632.64 430.996 632.64 430.876 632.52 430.876 632.52 430.876 632.4 430.876 632.28 430.876 632.16 430.876 632.04 430.996 631.92 431.116 631.92 431.236 631.92 431.356V432.196H632.28V431.476C632.28 431.356 632.28 431.356 632.4 431.356 632.4 431.236 632.4 431.236 632.52 431.236 632.52 431.236 632.64 431.236 632.64 431.356H632.76V431.476 432.196Z" fill="#ff0000" fill-rule="evenodd"/><path transform="matrix(1,0,0,-1,0,595.276)" d="M633.96 432.196H634.32V431.956H633.96V431.356 431.236H634.08 634.2L634.32 430.996C634.2 430.876 634.08 430.876 633.96 430.876 633.84 430.876 633.72 430.876 633.72 430.996 633.6 430.996 633.6 431.116 633.6 431.236V431.956H633.36V432.196H633.6V432.676L633.96 432.796V432.196Z" fill="#ff0000" fill-rule="evenodd"/><path transform="matrix(1,0,0,-1,0,595.276)" d="M635.76 431.476C635.76 431.956 635.52 432.316 635.04 432.316 634.68 432.316 634.56 432.076 634.56 431.596 634.56 431.356 634.56 431.236 634.68 431.116 634.8 430.996 634.92 430.876 635.16 430.876 635.4 430.876 635.64 430.996 635.64 431.116L635.4 431.356C635.4 431.236 635.28 431.236 635.16 431.236 635.04 431.236 635.04 431.236 634.92 431.236V431.356 431.476H635.76ZM634.92 431.716V431.716C634.92 431.836 634.92 431.836 634.92 431.956 635.04 431.956 635.04 431.956 635.16 431.956 635.16 431.956 635.28 431.836 635.4 431.836V431.716H634.92Z" fill="#ff0000" fill-rule="evenodd"/><path transform="matrix(1,0,0,-1,0,595.276)" d="M636.84 432.196V432.796H637.2V430.876H636.84V430.996C636.72 430.876 636.72 430.876 636.48 430.876 636.24 430.876 636 431.116 635.88 431.476V431.596 431.716C636 432.076 636.24 432.316 636.48 432.316 636.6 432.316 636.72 432.316 636.84 432.196ZM636.84 431.356V431.716 431.836H636.72C636.72 431.956 636.6 431.956 636.6 431.956 636.36 431.956 636.24 431.836 636.24 431.596 636.24 431.356 636.36 431.236 636.6 431.236 636.72 431.236 636.84 431.236 636.84 431.356Z" fill="#ff0000" fill-rule="evenodd"/><path transform="matrix(1,0,0,-1,0,595.276)" d="M633 433.516 633.36 434.836H633L632.88 433.996 632.64 434.836H632.4 632.28L632.04 433.996 631.8 434.836H631.44L631.8 433.516H632.28L632.4 434.236 632.64 433.516Z" fill="#ff0000" fill-rule="evenodd"/><path transform="matrix(1,0,0,-1,0,595.276)" d="M633.96 433.516V434.836H633.72V433.516Z" fill="#ff0000" fill-rule="evenodd"/><path transform="matrix(1,0,0,-1,0,595.276)" d="M634.08 435.196C634.08 435.316 633.96 435.436 633.84 435.436 633.72 435.436 633.6 435.316 633.6 435.196 633.6 435.076 633.72 434.956 633.84 434.956 633.96 434.956 634.08 435.076 634.08 435.196Z" fill="#ff0000" fill-rule="evenodd"/><path transform="matrix(1,0,0,-1,0,595.276)" d="M634.68 435.316V433.876C634.68 433.876 634.8 433.876 634.92 433.876V433.516C634.8 433.516 634.68 433.516 634.68 433.516 634.56 433.516 634.32 433.636 634.32 433.756V433.876 435.316H634.68Z" fill="#ff0000" fill-rule="evenodd"/><path transform="matrix(1,0,0,-1,0,595.276)" d="M635.52 435.316V433.876C635.52 433.876 635.64 433.876 635.76 433.876V433.516H635.64 635.52C635.28 433.516 635.16 433.636 635.16 433.756V433.876 435.316H635.52Z" fill="#ff0000" fill-rule="evenodd"/><path transform="matrix(1,0,0,-1,0,595.276)" d="M637.32 433.516C637.56 433.516 637.8 433.756 637.8 434.116 637.8 434.596 637.56 434.836 637.2 434.836 637.08 434.836 637.08 434.836 636.96 434.716V435.316H636.6V433.516H636.96C637.08 433.516 637.2 433.516 637.32 433.516ZM637.2 433.756C637.08 433.756 636.96 433.876 636.96 433.996V434.356C636.96 434.476 637.08 434.476 637.08 434.476 637.08 434.596 637.2 434.596 637.2 434.596 637.44 434.596 637.44 434.356 637.44 434.116 637.44 433.876 637.32 433.756 637.2 433.756Z" fill="#ff0000" fill-rule="evenodd"/><path transform="matrix(1,0,0,-1,0,595.276)" d="M639.24 434.116C639.24 434.596 639 434.836 638.64 434.956 638.28 434.836 638.04 434.596 638.04 434.236 638.04 433.996 638.04 433.876 638.16 433.756 638.28 433.516 638.52 433.516 638.64 433.516 638.88 433.516 639.12 433.516 639.12 433.756L639 433.876C638.88 433.876 638.76 433.756 638.64 433.756 638.64 433.756 638.52 433.876 638.4 433.876V433.996 434.116H639.24ZM638.4 434.356V434.356 434.476C638.52 434.596 638.52 434.596 638.64 434.596 638.76 434.596 638.88 434.476 638.88 434.356H638.4Z" fill="#ff0000" fill-rule="evenodd"/><path transform="matrix(1,0,0,-1,0,595.276)" d="M625.68 433.516V434.836H625.32V433.516Z" fill="#ff0000" fill-rule="evenodd"/><path transform="matrix(1,0,0,-1,0,595.276)" d="M625.68 435.196C625.68 435.316 625.56 435.436 625.44 435.436 625.44 435.436 625.32 435.316 625.32 435.196 625.32 435.076 625.44 434.956 625.44 434.956 625.56 434.956 625.68 435.076 625.68 435.196Z" fill="#ff0000" fill-rule="evenodd"/><path transform="matrix(1,0,0,-1,0,595.276)" d="M626.52 434.836H626.76V434.476H626.52V433.996 433.876C626.52 433.876 626.52 433.756 626.64 433.756 626.76 433.756 626.76 433.876 626.76 433.876L626.88 433.516C626.76 433.516 626.64 433.516 626.52 433.516 626.4 433.516 626.28 433.516 626.28 433.516 626.16 433.636 626.16 433.636 626.16 433.756V434.476H625.92V434.836H626.16V435.196L626.52 435.316V434.836Z" fill="#ff0000" fill-rule="evenodd"/><path transform="matrix(1,0,0,-1,0,595.276)" d="M627.48 433.516V434.836H627.12V433.516Z" fill="#ff0000" fill-rule="evenodd"/><path transform="matrix(1,0,0,-1,0,595.276)" d="M627.48 435.196C627.48 435.316 627.48 435.436 627.36 435.436 627.24 435.436 627.12 435.316 627.12 435.196 627.12 435.076 627.24 434.956 627.36 434.956 627.48 434.956 627.48 435.076 627.48 435.196Z" fill="#ff0000" fill-rule="evenodd"/><path transform="matrix(1,0,0,-1,0,595.276)" d="M629.04 433.516V434.476C629.04 434.716 628.8 434.956 628.44 434.956L628.32 434.836C628.32 434.836 628.2 434.836 628.2 434.716V434.836H627.84V433.516H628.2V434.356C628.2 434.476 628.32 434.596 628.44 434.596 628.56 434.596 628.68 434.476 628.68 434.356V433.516H629.04Z" fill="#ff0000" fill-rule="evenodd"/><path transform="matrix(1,0,0,-1,0,595.276)" d="M630.48 433.516V434.836H630.12C630.12 434.836 630 434.956 629.88 434.956 629.52 434.836 629.28 434.596 629.28 434.236 629.4 433.756 629.52 433.636 629.88 433.516L630 433.636H630.12C630.12 433.516 630.12 433.396 630 433.396 629.88 433.396 629.88 433.396 629.76 433.396 629.64 433.396 629.52 433.516 629.52 433.516L629.28 433.276C629.4 433.156 629.64 433.036 629.88 433.036 630.24 433.036 630.48 433.156 630.48 433.516ZM630.12 434.356V434.116 433.996L630 433.876C629.76 433.876 629.64 433.996 629.64 434.236 629.64 434.356 629.76 434.476 629.88 434.596 630 434.476 630.12 434.476 630.12 434.356Z" fill="#ff0000" fill-rule="evenodd"/><path transform="matrix(1,0,0,-1,0,595.276)" d="M625.08 433.756 624.96 433.516C624.84 433.516 624.72 433.516 624.72 433.516 624.6 433.516 624.6 433.516 624.6 433.636 624.6 433.516 624.36 433.516 624.24 433.516 624.12 433.516 624 433.516 623.88 433.636 623.76 433.636 623.76 433.756 623.76 433.996 623.76 434.236 624 434.356 624.48 434.356V434.476 434.596H624.36C624.24 434.596 624.24 434.596 624.12 434.596 624.12 434.476 624 434.476 624 434.476L623.76 434.716C623.88 434.836 624.12 434.956 624.36 434.956 624.48 434.956 624.6 434.836 624.72 434.836 624.84 434.716 624.84 434.596 624.96 434.476V433.876C624.96 433.756 624.96 433.756 625.08 433.756ZM624.12 433.876H624.24C624.24 433.756 624.24 433.756 624.36 433.756 624.48 433.756 624.48 433.876 624.48 433.876V434.116C624.36 434.116 624.24 434.116 624.24 433.996 624.12 433.996 624.12 433.996 624.12 433.876Z" fill="#ff0000" fill-rule="evenodd"/><path transform="matrix(1,0,0,-1,0,595.276)" d="M629.52 437.356C629.64 437.476 629.88 437.476 630 437.476 630.12 437.356 630.24 437.356 630.24 437.236 630.36 437.116 630.36 437.116 630.36 436.996V436.156H630V436.876C630 436.996 630 436.996 629.88 437.116H629.76 629.64C629.52 436.996 629.52 436.996 629.52 436.876V436.156H629.16V437.956H629.52V437.356Z" fill="#ff0000" fill-rule="evenodd"/><path transform="matrix(1,0,0,-1,0,595.276)" d="M631.08 436.156V437.476H630.72V436.156Z" fill="#ff0000" fill-rule="evenodd"/><path transform="matrix(1,0,0,-1,0,595.276)" d="M631.08 437.716C631.08 437.836 631.08 437.956 630.96 437.956 630.84 437.956 630.72 437.836 630.72 437.716 630.72 437.596 630.84 437.596 630.96 437.596 631.08 437.596 631.08 437.596 631.08 437.716Z" fill="#ff0000" fill-rule="evenodd"/><path transform="matrix(1,0,0,-1,0,595.276)" d="M632.04 437.476C632.16 437.476 632.28 437.476 632.4 437.356 632.52 437.356 632.52 437.236 632.64 437.116L632.28 436.996C632.28 437.116 632.16 437.116 632.04 437.116 631.92 437.116 631.8 436.996 631.8 436.876V436.756 436.636C631.8 436.516 631.92 436.396 632.04 436.396H632.16C632.28 436.516 632.28 436.516 632.28 436.636L632.64 436.516C632.52 436.156 632.4 436.036 632.04 436.036 631.68 436.036 631.44 436.276 631.44 436.756 631.44 437.236 631.68 437.476 632.04 437.476Z" fill="#ff0000" fill-rule="evenodd"/><path transform="matrix(1,0,0,-1,0,595.276)" d="M633.12 437.956V436.516H633.24V436.396H633.36L633.48 436.156H633.36C633.36 436.036 633.24 436.036 633.12 436.036 633 436.036 632.88 436.156 632.88 436.276V436.396 437.956H633.12Z" fill="#ff0000" fill-rule="evenodd"/><path transform="matrix(1,0,0,-1,0,595.276)" d="M634.8 436.636C634.8 437.236 634.56 437.476 634.2 437.476 633.84 437.476 633.6 437.236 633.6 436.756 633.6 436.636 633.6 436.396 633.72 436.276 633.84 436.156 634.08 436.036 634.32 436.036 634.44 436.036 634.68 436.156 634.8 436.276L634.56 436.516C634.56 436.396 634.44 436.396 634.32 436.396 634.2 436.396 634.08 436.396 634.08 436.516H633.96V436.636H634.8ZM633.96 436.876V436.876C633.96 436.996 633.96 436.996 634.08 437.116H634.2C634.32 437.116 634.44 437.116 634.44 436.996V436.876H633.96Z" fill="#ff0000" fill-rule="evenodd"/><path transform="matrix(1,0,0,-1,0,595.276)" d="M628.92 436.636C628.92 437.236 628.68 437.476 628.32 437.476 627.96 437.476 627.72 437.236 627.72 436.756 627.72 436.636 627.72 436.396 627.84 436.276 627.96 436.156 628.2 436.036 628.32 436.036 628.56 436.036 628.8 436.156 628.8 436.276L628.68 436.516C628.56 436.396 628.44 436.396 628.32 436.396 628.32 436.396 628.2 436.396 628.2 436.516H628.08V436.636H628.92ZM628.08 436.876V436.876C628.08 436.996 628.08 436.996 628.08 437.116 628.2 437.116 628.2 437.116 628.32 437.116 628.44 437.116 628.56 437.116 628.56 436.996V436.876H628.08Z" fill="#ff0000" fill-rule="evenodd"/><path transform="matrix(1,0,0,-1,0,595.276)" d="M627.12 436.156 627.6 437.956H627.24L626.88 436.756 626.52 437.956H626.16L626.64 436.156H626.88Z" fill="#ff0000" fill-rule="evenodd"/><path transform="matrix(1,0,0,-1,0,595.276)" d="M623.28 433.516 623.64 434.836H623.28L623.04 433.996 622.8 434.836H622.68 622.44L622.2 433.996 622.08 434.836H621.72L622.08 433.516H622.44L622.68 434.236 622.8 433.516Z" fill="#ff0000" fill-rule="evenodd"/><path transform="matrix(1,0,0,-1,0,595.276)" d="M622.08 428.356 622.44 429.676H622.08L621.84 428.836 621.6 429.676H621.48 621.24L621 428.836 620.88 429.676H620.4L620.88 428.356H621.24L621.48 429.076 621.6 428.356Z" fill="#ff0000" fill-rule="evenodd"/><path transform="matrix(1,0,0,-1,0,595.276)" d="M623.04 428.356V429.676H622.68V428.356Z" fill="#ff0000" fill-rule="evenodd"/><path transform="matrix(1,0,0,-1,0,595.276)" d="M623.04 430.036C623.04 430.156 622.92 430.156 622.8 430.156 622.68 430.156 622.68 430.156 622.68 430.036 622.68 429.916 622.68 429.796 622.8 429.796 622.92 429.796 623.04 429.916 623.04 430.036Z" fill="#ff0000" fill-rule="evenodd"/><path transform="matrix(1,0,0,-1,0,595.276)" d="M627.24 428.956C627.24 429.436 627 429.676 626.64 429.676 626.4 429.676 626.16 429.676 626.16 429.556 626.04 429.436 625.92 429.196 625.92 428.956 625.92 428.836 626.04 428.596 626.16 428.476 626.16 428.356 626.4 428.356 626.64 428.356 626.76 428.356 627 428.356 627 428.476 627.12 428.596 627.24 428.836 627.24 428.956ZM626.88 428.956C626.88 428.836 626.76 428.716 626.64 428.716 626.52 428.716 626.4 428.716 626.4 428.716 626.28 428.836 626.28 428.956 626.28 428.956 626.28 429.196 626.4 429.316 626.64 429.316H626.76C626.88 429.196 626.88 429.076 626.88 428.956Z" fill="#ff0000" fill-rule="evenodd"/><path transform="matrix(1,0,0,-1,0,595.276)" d="M624.84 429.556C624.96 429.676 625.2 429.796 625.32 429.676 625.44 429.676 625.44 429.556 625.56 429.436 625.56 429.436 625.56 429.316 625.56 429.196V428.356H625.2V429.196 429.316H625.08C624.96 429.316 624.96 429.316 624.84 429.316V429.196 428.356H624.48V430.156H624.84V429.556Z" fill="#ff0000" fill-rule="evenodd"/><path transform="matrix(1,0,0,-1,0,595.276)" d="M623.76 429.676H624.12V429.316H623.76V428.716H623.88C623.88 428.596 623.88 428.596 624 428.596 624.12 428.596 624.12 428.596 624.12 428.716L624.24 428.356C624.12 428.356 624 428.236 623.76 428.236 623.76 428.236 623.64 428.356 623.52 428.356 623.52 428.476 623.52 428.476 623.52 428.596V429.316H623.28V429.676H623.52V430.036L623.76 430.156V429.676Z" fill="#ff0000" fill-rule="evenodd"/><path transform="matrix(1,0,0,-1,0,595.276)" d="M629.52 429.676H629.88V429.316H629.52V428.716C629.52 428.596 629.64 428.596 629.64 428.596H629.76L629.88 428.716V428.356C629.88 428.356 629.64 428.236 629.52 428.236 629.4 428.236 629.28 428.356 629.28 428.356 629.16 428.476 629.16 428.476 629.16 428.596V429.316H628.92V429.676H629.16V430.036L629.52 430.156V429.676Z" fill="#ff0000" fill-rule="evenodd"/><path transform="matrix(1,0,0,-1,0,595.276)" d="M628.32 429.676H628.68V428.356H628.32 628.2C628.08 428.356 628.08 428.356 627.96 428.356 627.84 428.356 627.72 428.356 627.6 428.476 627.48 428.476 627.48 428.596 627.48 428.716V429.676H627.84V428.836C627.84 428.716 627.84 428.716 627.96 428.716L628.08 428.596 628.2 428.716C628.32 428.716 628.32 428.836 628.32 428.956V429.676Z" fill="#ff0000" fill-rule="evenodd"/><path transform="matrix(1,0,0,-1,0,595.276)" d="M624.48 426.916H624.36L624.24 426.556 624 426.316 623.88 425.956 623.76 425.716 623.88 425.476 624 425.716V424.276H624.36V426.196L624.48 426.676 624.6 426.796Z" fill="#ff0000" fill-rule="evenodd"/><path transform="matrix(1,0,0,-1,0,595.276)" d="M625.32 426.916V426.676H624.6V426.436H626.28V426.676H625.56V426.796H625.68V426.916H625.56Z" fill="#ff0000" fill-rule="evenodd"/><path transform="matrix(1,0,0,-1,0,595.276)" d="M624.84 426.316V425.716H626.04V426.316H624.84ZM625.08 425.956V426.076H625.8V425.956H625.08Z" fill="#ff0000" fill-rule="evenodd"/><path transform="matrix(1,0,0,-1,0,595.276)" d="M624.48 425.596V424.996H624.72V425.356H626.16V424.996H626.4V425.596Z" fill="#ff0000" fill-rule="evenodd"/><path transform="matrix(1,0,0,-1,0,595.276)" d="M624.84 425.116V424.996H625.32V424.756 424.636 424.516H625.2 624.96L625.08 424.276H625.2L625.44 424.396H625.56L625.68 424.516 625.56 424.756V424.996H626.04V425.116Z" fill="#ff0000" fill-rule="evenodd"/><path transform="matrix(1,0,0,-1,0,595.276)" d="M627.48 426.676V426.436H628.56V426.196H627.84V425.116H628.56V424.876H627.36V424.636H628.56V424.276H628.8V424.636H630V424.876H628.8V425.116H629.64V426.196H628.8V426.436H629.88V426.676H628.8V426.796 426.916H628.56V426.676H627.48ZM628.08 425.836V425.956H628.56V425.836H628.08ZM628.08 425.356V425.596H628.56V425.356H628.08ZM628.8 425.836V425.956H629.4V425.836H628.8ZM628.8 425.356V425.596H629.4V425.356H628.8Z" fill="#ff0000" fill-rule="evenodd"/><path transform="matrix(1,0,0,-1,0,595.276)" d="M631.2 426.076V425.836H632.16V425.716H630.96V425.476H632.64V425.236H631.08V424.996H632.64V424.756 424.636L632.52 424.516H632.4 632.16V424.276H632.64 632.76L632.88 424.396V424.516 424.636 424.996H633.48V425.236H632.88V425.476H633.6V425.716H632.4V425.836H633.24V426.076H632.4V426.196L632.16 426.316V426.076Z" fill="#ff0000" fill-rule="evenodd"/><path transform="matrix(1,0,0,-1,0,595.276)" d="M634.44 425.716 634.56 425.476 634.8 425.716V424.276H635.04V426.196L635.28 426.676V426.796H635.16L635.04 426.916 634.92 426.556 634.8 426.316 634.56 425.956Z" fill="#ff0000" fill-rule="evenodd"/><path transform="matrix(1,0,0,-1,0,595.276)" d="M635.76 426.796V426.556H636.6V426.196H635.64V425.956H635.88L635.76 425.716 635.52 425.476 635.76 425.236 636 425.476H636.24V425.236H635.64V424.996H636.24L636.12 424.756 636 424.636 635.76 424.516H635.52L635.76 424.276 636 424.396 636.12 424.516 636.24 424.636 636.36 424.756 636.6 424.516 636.96 424.276 637.2 424.516 636.96 424.636H636.84L636.72 424.876 636.6 424.996H637.08V425.236H636.48V425.476H637.08V425.716H636.12V425.836H636.24V425.956H636.12 637.08V426.196H636.84V426.796Z" fill="#ff0000" fill-rule="evenodd"/><path transform="matrix(1,0,0,-1,0,595.276)" d="M623.76 422.116 624 421.876 624.48 422.116V421.996H625.68V422.116L626.04 421.996H626.28L626.52 422.236H626.16L625.8 422.356 625.56 422.476 625.32 422.596H625.44 625.32L625.08 422.716 624.84 422.596 624.48 422.356 624.12 422.236 623.76 422.116ZM625.08 422.476 625.32 422.356 625.56 422.116H624.6L624.84 422.356 625.08 422.476Z" fill="#ff0000" fill-rule="evenodd"/><path transform="matrix(1,0,0,-1,0,595.276)" d="M624 421.876V421.036H624.24V421.156H625.92V421.036H626.16V421.876H624ZM624.24 421.396V421.636H624.96V421.396H624.84L624.72 421.636 624.48 421.516 624.6 421.396H624.24ZM625.2 421.396V421.636H625.92V421.396H625.68V421.516H625.8 625.68L625.56 421.636 625.32 421.396H625.2Z" fill="#ff0000" fill-rule="evenodd"/><path transform="matrix(1,0,0,-1,0,595.276)" d="M624.24 421.036V420.076H624.6V420.196H625.68V420.076H625.92V421.036H624.24ZM624.6 420.316V420.436H625.68V420.316H624.6ZM624.6 420.676V420.796H625.68V420.676H624.6Z" fill="#ff0000" fill-rule="evenodd"/><path transform="matrix(1,0,0,-1,0,595.276)" d="M627.6 422.236H627.36V421.996H627.96L627.6 421.516 627.24 421.156 627.48 420.916 627.72 421.276V420.076H627.96V421.156L628.08 421.036 628.32 420.916 628.44 421.036 628.32 421.276 628.08 421.396H628.32L628.44 421.636 628.32 421.756 628.08 421.516 627.96 421.636 628.32 422.116 628.2 422.236H628.08 627.96V422.596 422.716H627.84 627.6Z" fill="#ff0000" fill-rule="evenodd"/><path transform="matrix(1,0,0,-1,0,595.276)" d="M629.16 422.236H628.56V421.276L628.44 420.916V420.676L628.32 420.436 628.08 420.196 628.32 420.076 628.56 420.316 628.68 420.556V420.916L628.8 421.276H628.92V421.036L629.04 420.916V420.676L629.16 420.556 628.92 420.436 628.56 420.316 628.8 420.076 629.04 420.196 629.4 420.436 629.52 420.196 629.88 420.076 630 420.316 629.76 420.436 629.52 420.556 629.76 420.916 629.88 421.276V421.396L629.76 421.516H629.64 629.4V421.996H629.64L629.52 421.756H629.76L630 422.116 629.76 422.356V422.236H629.4V422.596 422.716H629.16V422.236ZM629.16 421.276H629.52L629.4 421.036V420.796L629.16 421.036V421.276ZM628.8 421.516V421.996H629.16V421.516H628.8Z" fill="#ff0000" fill-rule="evenodd"/><path transform="matrix(1,0,0,-1,0,595.276)" d="M630.96 422.116V421.876H631.32L631.08 421.396 630.84 420.916 631.08 420.796 631.32 421.276V420.076H631.56V421.396L631.8 421.036 631.92 421.276 631.68 421.636 631.56 421.876H631.8V422.116H631.56V422.596L631.68 422.716H631.56 631.32V422.116Z" fill="#ff0000" fill-rule="evenodd"/><path transform="matrix(1,0,0,-1,0,595.276)" d="M631.8 421.996 632.04 421.756 632.28 421.876V421.636H633.12V421.876L633.48 421.756 633.6 421.996 633.36 422.116 633.24 422.236 633 422.356 632.88 422.596H633L632.88 422.716H632.76L632.52 422.476 632.28 422.356 632.04 422.116 631.8 421.996ZM633.12 421.996H632.28L632.52 422.116 632.76 422.356 632.88 422.116 633.12 421.996Z" fill="#ff0000" fill-rule="evenodd"/><path transform="matrix(1,0,0,-1,0,595.276)" d="M631.92 421.516V420.916H632.64V421.516H631.92ZM632.16 421.036V421.276H632.4V421.036H632.16Z" fill="#ff0000" fill-rule="evenodd"/><path transform="matrix(1,0,0,-1,0,595.276)" d="M631.8 420.196 631.92 420.076 632.28 420.436 632.52 420.196 632.64 420.316 632.4 420.556V420.676H632.52V420.796H632.4 632.28L632.16 420.676 632.04 420.436 631.92 420.316Z" fill="#ff0000" fill-rule="evenodd"/><path transform="matrix(1,0,0,-1,0,595.276)" d="M632.76 421.516V420.916H633.48V421.516H632.76ZM633 421.036V421.396H633.24V421.036H633Z" fill="#ff0000" fill-rule="evenodd"/><path transform="matrix(1,0,0,-1,0,595.276)" d="M632.52 420.196 632.76 420.076 633 420.316 633.36 420.076 633.6 420.196 633.12 420.556 633.24 420.676V420.796L633 420.916 632.88 420.676V420.436L632.64 420.316Z" fill="#ff0000" fill-rule="evenodd"/><path transform="matrix(1,0,0,-1,0,595.276)" d="M634.56 422.116V421.876H634.8V421.276L634.44 421.156 634.56 420.916V420.796 420.916H634.68L634.8 421.036V420.436 420.316H634.68 634.44L634.56 420.076H634.68 634.92 635.04V420.196L635.16 420.436V421.156L635.4 421.276V421.516L635.16 421.396V421.876H635.4V422.116H635.16V422.596 422.716H635.04 634.8V422.116Z" fill="#ff0000" fill-rule="evenodd"/><path transform="matrix(1,0,0,-1,0,595.276)" d="M635.4 422.356V421.756H635.76V422.116H636.36V421.396 421.276H636.48 636.6 636.96 637.08L637.2 421.396V421.516L636.96 421.636V421.516H636.84 636.6V422.116H636.84V421.756H637.08V422.356H636.48V422.596 422.716H636.36 636.12V422.356Z" fill="#ff0000" fill-rule="evenodd"/><path transform="matrix(1,0,0,-1,0,595.276)" d="M635.52 421.396 635.64 421.156 635.88 421.276 636 421.516V421.636L636.12 421.876H636.24 636.12V421.996H635.88V421.756L635.76 421.636 635.64 421.396Z" fill="#ff0000" fill-rule="evenodd"/><path transform="matrix(1,0,0,-1,0,595.276)" d="M635.52 420.796H636.12V420.316H635.4V420.076H637.2V420.316H636.36V420.796H636.96V421.036H635.52Z" fill="#ff0000" fill-rule="evenodd"/><path transform="matrix(1,0,0,-1,0,595.276)" d="M622.08 418.036H623.16L623.04 417.676H622.2V415.876H622.44V417.436H622.92V415.996H623.16V417.436H623.52V415.996H623.76V417.436H624.24V416.236 416.116H624.12 624L624.12 415.756 624.24 415.876H624.36 624.48V415.996 416.116 417.676H623.28L623.52 418.036H624.72V418.276H622.08Z" fill="#ff0000" fill-rule="evenodd"/><path transform="matrix(1,0,0,-1,0,595.276)" d="M625.56 418.276V418.036H626.76L626.52 417.676 626.28 417.436 625.92 417.076 625.56 416.836 625.8 416.596 626.04 416.836 626.4 417.076 626.64 417.316 626.76 417.556V415.876H627.12V417.436 417.556H627.24 627.12L627 417.676H626.88L627.12 418.036H628.2V418.276Z" fill="#ff0000" fill-rule="evenodd"/><path transform="matrix(1,0,0,-1,0,595.276)" d="M628.08 416.596 628.32 416.716 628.08 416.956 627.96 417.196 627.72 417.436 627.48 417.676 627.24 417.556 627.72 417.076Z" fill="#ff0000" fill-rule="evenodd"/><path transform="matrix(1,0,0,-1,0,595.276)" d="M629.52 418.396V418.156H630.84L630.48 417.796 630.36 417.916 630.12 417.796 630.6 417.436H629.16V417.196H630.36V416.236 416.116H630.24 629.88L630 415.876H630.36 630.48 630.6V415.996L630.72 416.116V417.196H631.32L631.08 416.716 631.32 416.596 631.8 417.316 631.56 417.436H630.72L630.84 417.556 630.72 417.676 631.44 418.276 631.2 418.396Z" fill="#ff0000" fill-rule="evenodd"/><path transform="matrix(1,0,0,-1,0,595.276)" d="M632.76 418.396V418.156H633.24V418.036L633.12 418.156 632.88 417.916 632.64 417.676 632.88 417.556 633.12 417.796H633.84V417.676 417.556H633.72 633.6L633.72 417.316H633.84 633.96V417.436L634.08 417.556V417.796 417.916L634.2 417.796 634.32 417.916 634.44 417.796 634.56 417.676 634.32 417.556H634.08L634.32 417.316 634.8 417.556 634.92 417.436 635.16 417.316 635.4 417.436 635.16 417.556 634.92 417.676 635.04 417.916 635.16 418.036H635.4V418.276H634.56L634.68 418.396 634.44 418.516 634.32 418.156 634.08 417.916V418.036H633.24 633.36V418.156H633.6V418.036H633.84V418.156H634.08V418.396H633.84 633.96L633.84 418.516H633.6V418.396H633.36 633.48V418.516H633.36 633.24V418.396H632.76ZM634.44 418.036H634.92L634.68 417.796 634.56 417.916 634.44 418.036Z" fill="#ff0000" fill-rule="evenodd"/><path transform="matrix(1,0,0,-1,0,595.276)" d="M632.76 417.076V416.836H635.4V417.076Z" fill="#ff0000" fill-rule="evenodd"/><path transform="matrix(1,0,0,-1,0,595.276)" d="M633.12 417.316V417.076H634.92V417.316Z" fill="#ff0000" fill-rule="evenodd"/><path transform="matrix(1,0,0,-1,0,595.276)" d="M633.12 416.716V416.596H634.92V416.716Z" fill="#ff0000" fill-rule="evenodd"/><path transform="matrix(1,0,0,-1,0,595.276)" d="M633.12 416.476V416.356H634.92V416.476Z" fill="#ff0000" fill-rule="evenodd"/><path transform="matrix(1,0,0,-1,0,595.276)" d="M633.12 416.236V415.876H635.04V416.236H633.12ZM633.36 415.996V416.116H634.8V415.996H633.36Z" fill="#ff0000" fill-rule="evenodd"/><path transform="matrix(1,0,0,-1,0,595.276)" d="M633.12 417.676V417.316H633.6V417.676H633.12ZM633.24 417.436V417.556H633.48V417.436H633.24Z" fill="#ff0000" fill-rule="evenodd"/><path transform="matrix(1,0,0,-1,0,595.276)" d="M636.48 417.556 636.72 417.436 636.96 417.796H637.56V417.316H636.36V417.076H639V417.316H637.8V417.796H638.64V418.036H637.8V418.276 418.396L637.68 418.516H637.56V418.036H637.08L637.2 418.276V418.396H636.96L636.84 418.156 636.72 418.036 636.6 417.796Z" fill="#ff0000" fill-rule="evenodd"/><path transform="matrix(1,0,0,-1,0,595.276)" d="M636.72 415.876H637.08V415.996H638.28V415.876H638.52V416.836H636.72V415.876ZM637.08 416.236V416.596H638.28V416.236H637.08Z" fill="#ff0000" fill-rule="evenodd"/><path transform="matrix(1,0,0,-1,0,595.276)" d="M641.76 438.316V415.036C641.76 414.916 641.76 414.796 641.76 414.676 641.64 414.556 641.64 414.436 641.52 414.436 641.4 414.316 641.28 414.196 641.16 414.196 641.04 414.076 640.92 414.076 640.8 414.076H620.16C619.92 414.076 619.68 414.196 619.44 414.436 619.32 414.436 619.2 414.556 619.2 414.676 619.2 414.796 619.08 414.916 619.08 415.036V438.316C619.08 438.556 619.2 438.796 619.44 439.036 619.56 439.156 619.68 439.276 619.8 439.276 619.92 439.276 620.04 439.276 620.16 439.276H640.8C641.04 439.276 641.28 439.276 641.52 439.036 641.64 438.916 641.64 438.796 641.76 438.676 641.76 438.556 641.76 438.436 641.76 438.316ZM619.68 438.316V415.036C619.68 414.916 619.68 414.796 619.8 414.676H619.92C620.04 414.556 620.04 414.556 620.16 414.556H640.8C640.92 414.556 641.04 414.676 641.16 414.676 641.28 414.796 641.28 414.916 641.28 415.036V438.316C641.28 438.436 641.28 438.556 641.16 438.676 641.04 438.796 641.04 438.796 640.92 438.796H640.8 620.16C620.04 438.796 619.92 438.796 619.8 438.676 619.68 438.556 619.68 438.436 619.68 438.316Z" fill="#ff0000" fill-rule="evenodd"/><path transform="matrix(1,0,0,-1,0,595.276)" d="M632.28 428.356 632.64 429.676H632.28L632.04 428.836 631.8 429.676H631.68 631.44L631.32 428.836 631.08 429.676H630.72L631.08 428.356H631.44L631.68 429.076 631.8 428.356Z" fill="#ff0000" fill-rule="evenodd"/><path transform="matrix(1,0,0,-1,0,595.276)" d="M634.08 428.596 633.96 428.356C633.84 428.356 633.72 428.356 633.72 428.356 633.72 428.356 633.6 428.356 633.6 428.476 633.6 428.356 633.36 428.356 633.24 428.356 633.12 428.356 633 428.356 632.88 428.476 632.76 428.476 632.76 428.596 632.76 428.716 632.76 429.076 633 429.196 633.48 429.196V429.316C633.48 429.436 633.48 429.436 633.36 429.436 633.24 429.436 633.24 429.436 633.12 429.316H633L632.76 429.556C632.88 429.676 633.12 429.676 633.36 429.676 633.48 429.676 633.6 429.676 633.72 429.676 633.84 429.556 633.84 429.436 633.96 429.316V428.716C633.96 428.596 633.96 428.596 634.08 428.596ZM633.12 428.716 633.24 428.596H633.36C633.48 428.596 633.48 428.596 633.48 428.716V428.956C633.36 428.956 633.36 428.956 633.24 428.836 633.12 428.836 633.12 428.836 633.12 428.716Z" fill="#ff0000" fill-rule="evenodd"/><path transform="matrix(1,0,0,-1,0,595.276)" d="M630.96 426.316 631.2 426.196 631.44 426.436H631.56L631.68 426.196 631.92 426.316 631.8 426.436H632.16V426.676H631.56L631.68 426.796V426.916H631.44L631.2 426.676Z" fill="#ff0000" fill-rule="evenodd"/><path transform="matrix(1,0,0,-1,0,595.276)" d="M631.68 424.996 631.56 424.756 631.68 424.636 631.92 424.396 632.16 424.636 631.92 424.756Z" fill="#ff0000" fill-rule="evenodd"/><path transform="matrix(1,0,0,-1,0,595.276)" d="M632.16 426.436 632.4 426.316 632.64 426.436H632.88L633 426.196H633.24L633.12 426.436H633.6V426.676H632.76L632.88 426.796V426.916H632.64L632.4 426.676Z" fill="#ff0000" fill-rule="evenodd"/><path transform="matrix(1,0,0,-1,0,595.276)" d="M635.4 426.316 635.16 426.436V424.636H635.52V426.316Z" fill="#ff0000" fill-rule="evenodd"/><path transform="matrix(1,0,0,-1,0,595.276)" d="M637.2 428.356V429.676H636.96V428.356Z" fill="#ff0000" fill-rule="evenodd"/><path transform="matrix(1,0,0,-1,0,595.276)" d="M637.32 430.036C637.32 430.156 637.2 430.156 637.08 430.156 636.96 430.156 636.84 430.156 636.84 430.036 636.84 429.916 636.96 429.796 637.08 429.796 637.2 429.796 637.32 429.916 637.32 430.036Z" fill="#ff0000" fill-rule="evenodd"/><path transform="matrix(1,0,0,-1,0,595.276)" d="M638.76 428.356V429.196 429.316C638.76 429.556 638.64 429.676 638.28 429.676H638.16C638.04 429.676 638.04 429.676 637.92 429.556V429.676H637.56V428.356H637.92V429.196C638.04 429.316 638.04 429.316 638.28 429.436 638.4 429.316 638.4 429.316 638.4 429.196V429.076 428.356H638.76Z" fill="#ff0000" fill-rule="evenodd"/><path transform="matrix(1,0,0,-1,0,595.276)" d="M640.32 428.356V429.676H639.96V429.556C639.96 429.676 639.84 429.676 639.72 429.676 639.24 429.676 639.12 429.436 639.12 428.956 639.12 428.596 639.36 428.356 639.6 428.356 639.72 428.356 639.72 428.356 639.84 428.476H639.96V428.356C639.96 428.236 639.84 428.236 639.72 428.236 639.72 428.236 639.6 428.236 639.48 428.236 639.48 428.236 639.36 428.356 639.24 428.356L639.12 428.116C639.24 427.996 639.48 427.876 639.72 427.876 640.08 427.876 640.32 427.996 640.32 428.356ZM639.96 429.196V428.836L639.84 428.716H639.72C639.6 428.716 639.48 428.836 639.48 429.076 639.48 429.196 639.6 429.316 639.72 429.316 639.84 429.316 639.96 429.316 639.96 429.196Z" fill="#ff0000" fill-rule="evenodd"/><path transform="matrix(1,0,0,-1,0,595.276)" d="M636.48 428.356V429.196 429.316C636.48 429.556 636.36 429.676 636 429.676H635.88C635.76 429.676 635.76 429.676 635.64 429.556V429.676H635.28V428.356H635.64V429.196C635.76 429.316 635.76 429.316 636 429.436 636.12 429.316 636.12 429.316 636.12 429.196V429.076 428.356H636.48Z" fill="#ff0000" fill-rule="evenodd"/><path transform="matrix(1,0,0,-1,0,595.276)" d="M634.32 428.356V429.676H634.68V429.556C634.68 429.556 634.68 429.676 634.8 429.676 634.92 429.676 634.92 429.676 635.04 429.676V429.316C634.92 429.316 634.8 429.316 634.8 429.316 634.68 429.196 634.68 429.196 634.68 429.076V428.356H634.32Z" fill="#ff0000" fill-rule="evenodd"/></g></svg>