<?xml version='1.0' encoding='UTF-8'?>
<svg width="550.78" height="213.58" viewBox="7.36 38.65 550.78 213.58" xmlns="http://www.w3.org/2000/svg" xmlns:xlink="http://www.w3.org/1999/xlink" xmlns:inkscape="http://www.inkscape.org/namespaces/inkscape" version="1.1"><g transform="scale(10.0) translate(-383.985, -531.936)"><path transform="matrix(1,0,0,-1,0,595.276)" d="M432.12 58.876H387.96C387.24 58.876 386.64 58.636 386.16 58.156 385.56 57.556 385.32 56.956 385.32 56.356V41.236C385.32 40.636 385.56 39.916 386.16 39.436 386.64 38.956 387.24 38.716 387.96 38.716H432.12C432.48 38.716 432.96 38.836 433.32 38.956 433.8 39.196 434.04 39.556 434.28 39.916L439.08 48.076C439.08 48.316 439.2 48.556 439.2 48.796 439.2 49.036 439.08 49.276 439.08 49.396L434.28 57.556C434.04 57.916 433.8 58.276 433.32 58.516 432.96 58.756 432.48 58.876 432.12 58.876Z" fill="#ffffff" fill-rule="evenodd"/><path transform="matrix(1,0,0,-1,0,595.276)" d="M387.96 57.556H432.12C432.36 57.556 432.48 57.556 432.72 57.436 432.96 57.316 433.08 57.076 433.2 56.956L437.88 48.796 433.2 40.636C433.08 40.396 432.96 40.276 432.72 40.156 432.48 40.036 432.36 39.916 432.12 39.916H387.96C387.6 39.916 387.24 40.036 387 40.276 386.76 40.636 386.64 40.876 386.64 41.236V56.356C386.64 56.596 386.76 56.956 387 57.196 387.24 57.436 387.6 57.556 387.96 57.556Z" fill-rule="evenodd"/><path transform="matrix(1,0,0,-1,0,595.276)" d="M394.8 54.436C394.8 55.036 394.32 55.516 393.72 55.516 393.12 55.516 392.64 55.036 392.64 54.436 392.64 53.836 393.12 53.356 393.72 53.356 394.32 53.356 394.8 53.836 394.8 54.436Z" fill="#ffffff" fill-rule="evenodd"/><path transform="matrix(1,0,0,-1,0,595.276)" d="M395.16 42.076H396L395.76 44.956 394.56 48.316 394.68 50.476 395.28 49.876 396.84 48.556 397.2 49.156 395.88 50.476 395.4 51.676C395.28 52.036 395.04 52.276 394.68 52.516 394.44 52.756 394.08 52.876 393.6 52.876 393.24 52.996 392.88 52.876 392.52 52.756 392.16 52.516 391.92 52.276 391.68 51.916L391.2 51.076 390.6 48.196 391.32 47.956 392.04 50.596 392.4 51.076 390.96 45.436 389.64 43.276 390.24 42.556 392.64 45.676 393.24 47.356 394.56 45.076 395.16 42.076Z" fill="#ffffff" fill-rule="evenodd"/><path transform="matrix(1,0,0,-1,0,595.276)" d="M406.2 47.596H402.24L401.88 53.356C401.88 53.476 401.88 53.596 401.88 53.716 402 53.956 402.12 54.076 402.12 54.196 402.36 54.436 402.72 54.556 402.96 54.556 403.2 54.556 403.56 54.436 403.8 54.196 404.04 53.956 404.16 53.596 404.04 53.356 404.04 53.116 403.92 52.756 403.68 52.516 403.56 52.516 403.44 52.396 403.32 52.396 403.08 52.276 402.96 52.276 402.84 52.276L402.96 50.236H405.84V49.276H403.08V48.556H406.8L408.36 45.316 409.32 45.676 409.56 45.076 407.64 44.356 406.2 47.596Z" fill="#ffffff" fill-rule="evenodd"/><path transform="matrix(1,0,0,-1,0,595.276)" d="M401.76 48.796C401.4 48.556 401.16 48.196 400.92 47.716 400.8 47.356 400.68 46.876 400.68 46.276 400.8 45.796 401.04 45.316 401.28 44.956 401.52 44.596 401.88 44.356 402.24 44.236 402.6 43.996 402.96 43.876 403.44 43.996 403.92 43.996 404.4 44.116 404.88 44.356 405.24 44.596 405.6 44.956 405.84 45.436 406.08 45.796 406.08 46.276 406.08 46.636L406.8 45.196C406.56 44.716 406.32 44.356 405.84 43.876 405.36 43.516 404.76 43.276 404.16 43.036 403.56 42.916 402.96 43.036 402.36 43.156 401.76 43.276 401.4 43.636 400.92 43.876 400.56 44.236 400.32 44.716 400.08 45.196 399.84 45.796 399.72 46.396 399.84 46.996 399.84 47.716 400.08 48.316 400.44 48.796 400.8 49.276 401.16 49.636 401.64 49.876L401.76 48.796Z" fill="#ffffff" fill-rule="evenodd"/><path transform="matrix(1,0,0,-1,0,595.276)" d="M426.48 55.876H430.8L435 48.796 430.8 41.596H426.48L430.56 48.796Z" fill="#ffffff" fill-rule="evenodd"/><path transform="matrix(1,0,0,-1,0,595.276)" d="M414.84 47.116 416.64 50.476H413.52L411.72 47.116 413.52 43.756H416.64Z" fill="#c3c3c3" fill-rule="evenodd"/><path transform="matrix(1,0,0,-1,0,595.276)" d="M417.84 50.476H420.96L419.16 47.116H416.04Z" fill="#c3c3c3" fill-rule="evenodd"/><path transform="matrix(1,0,0,-1,0,595.276)" d="M422.16 50.476 420.36 53.836H423.48L425.16 50.476 423.48 47.116H420.36Z" fill="#c3c3c3" fill-rule="evenodd"/><path transform="matrix(1,0,0,-1,0,595.276)" stroke-width=".12" stroke-linecap="round" stroke-linejoin="round" fill="none" stroke="#000000" d="M434.28 57.556 439.08 49.396C439.2 49.036 439.2 48.556 439.08 48.076L434.28 39.916C433.8 39.196 432.96 38.716 432.12 38.716H387.96C386.52 38.716 385.32 39.796 385.32 41.236V56.356C385.32 57.676 386.52 58.876 387.96 58.876H432.12C432.96 58.876 433.8 58.396 434.28 57.556"/></g></svg>