<?xml version='1.0' encoding='UTF-8'?>
<svg width="286.39" height="249.19" viewBox="140.21 11.00 286.39 249.19" xmlns="http://www.w3.org/2000/svg" xmlns:xlink="http://www.w3.org/1999/xlink" xmlns:inkscape="http://www.inkscape.org/namespaces/inkscape" version="1.1"><g transform="scale(10.0) translate(-329.439, -343.440)"><defs><clipPath id="clip_2"><path transform="matrix(1,0,0,-1,0,595.276)" d="M74.4 .196H767.4V595.276H74.4Z"/></clipPath></defs><path transform="matrix(1,0,0,-1,0,595.276)" d="M360.6 247.636C360.6 248.116 360.12 248.596 359.64 248.596 359.16 248.596 358.68 248.116 358.68 247.636 358.68 247.156 359.16 246.676 359.64 246.676 360.12 246.676 360.6 247.156 360.6 247.636Z" fill="#00ff00" fill-rule="evenodd"/><path transform="matrix(1,0,0,-1,0,595.276)" d="M358.68 247.636C358.68 248.116 358.32 248.596 357.84 248.596 357.24 248.596 356.88 248.116 356.88 247.636 356.88 247.156 357.24 246.676 357.84 246.676 358.32 246.676 358.68 247.156 358.68 247.636Z" fill="#00ff00" fill-rule="evenodd"/><path transform="matrix(1,0,0,-1,0,595.276)" d="M360.6 245.716C360.6 246.316 360.12 246.676 359.64 246.676 359.16 246.676 358.68 246.316 358.68 245.716 358.68 245.236 359.16 244.876 359.64 244.876 360.12 244.876 360.6 245.236 360.6 245.716Z" fill="#00ff00" fill-rule="evenodd"/><path transform="matrix(1,0,0,-1,0,595.276)" d="M358.68 245.716C358.68 246.316 358.32 246.676 357.84 246.676 357.24 246.676 356.88 246.316 356.88 245.716 356.88 245.236 357.24 244.876 357.84 244.876 358.32 244.876 358.68 245.236 358.68 245.716Z" fill="#00ff00" fill-rule="evenodd"/><path transform="matrix(1,0,0,-1,0,595.276)" d="M360.6 243.916C360.6 244.396 360.12 244.876 359.64 244.876 359.16 244.876 358.68 244.396 358.68 243.916 358.68 243.436 359.16 242.956 359.64 242.956 360.12 242.956 360.6 243.436 360.6 243.916Z" fill="#00ff00" fill-rule="evenodd"/><path transform="matrix(1,0,0,-1,0,595.276)" d="M358.68 243.916C358.68 244.396 358.32 244.876 357.84 244.876 357.24 244.876 356.88 244.396 356.88 243.916 356.88 243.436 357.24 242.956 357.84 242.956 358.32 242.956 358.68 243.436 358.68 243.916Z" fill="#00ff00" fill-rule="evenodd"/><path transform="matrix(1,0,0,-1,0,595.276)" d="M360.6 241.996C360.6 242.596 360.12 242.956 359.64 242.956 359.16 242.956 358.68 242.596 358.68 241.996 358.68 241.516 359.16 241.156 359.64 241.156 360.12 241.156 360.6 241.516 360.6 241.996Z" fill="#00ff00" fill-rule="evenodd"/><path transform="matrix(1,0,0,-1,0,595.276)" d="M358.68 241.996C358.68 242.596 358.32 242.956 357.84 242.956 357.24 242.956 356.88 242.596 356.88 241.996 356.88 241.516 357.24 241.156 357.84 241.156 358.32 241.156 358.68 241.516 358.68 241.996Z" fill="#00ff00" fill-rule="evenodd"/><path transform="matrix(1,0,0,-1,0,595.276)" d="M360.6 240.196C360.6 240.676 360.12 241.156 359.64 241.156 359.16 241.156 358.68 240.676 358.68 240.196 358.68 239.716 359.16 239.236 359.64 239.236 360.12 239.236 360.6 239.716 360.6 240.196Z" fill="#00ff00" fill-rule="evenodd"/><path transform="matrix(1,0,0,-1,0,595.276)" d="M358.68 240.196C358.68 240.676 358.32 241.156 357.84 241.156 357.24 241.156 356.88 240.676 356.88 240.196 356.88 239.716 357.24 239.236 357.84 239.236 358.32 239.236 358.68 239.716 358.68 240.196Z" fill="#00ff00" fill-rule="evenodd"/><path transform="matrix(1,0,0,-1,0,595.276)" d="M360.6 238.276C360.6 238.876 360.12 239.236 359.64 239.236 359.16 239.236 358.68 238.876 358.68 238.276 358.68 237.796 359.16 237.436 359.64 237.436 360.12 237.436 360.6 237.796 360.6 238.276Z" fill="#00ff00" fill-rule="evenodd"/><path transform="matrix(1,0,0,-1,0,595.276)" d="M358.68 238.276C358.68 238.876 358.32 239.236 357.84 239.236 357.24 239.236 356.88 238.876 356.88 238.276 356.88 237.796 357.24 237.436 357.84 237.436 358.32 237.436 358.68 237.796 358.68 238.276Z" fill="#00ff00" fill-rule="evenodd"/><path transform="matrix(1,0,0,-1,0,595.276)" d="M360.6 236.476C360.6 236.956 360.12 237.436 359.64 237.436 359.16 237.436 358.68 236.956 358.68 236.476 358.68 235.876 359.16 235.516 359.64 235.516 360.12 235.516 360.6 235.876 360.6 236.476Z" fill="#00ff00" fill-rule="evenodd"/><path transform="matrix(1,0,0,-1,0,595.276)" d="M358.68 236.476C358.68 236.956 358.32 237.436 357.84 237.436 357.24 237.436 356.88 236.956 356.88 236.476 356.88 235.876 357.24 235.516 357.84 235.516 358.32 235.516 358.68 235.876 358.68 236.476Z" fill="#00ff00" fill-rule="evenodd"/><path transform="matrix(1,0,0,-1,0,595.276)" d="M358.68 234.556C358.68 235.036 358.32 235.516 357.84 235.516 357.24 235.516 356.88 235.036 356.88 234.556 356.88 234.076 357.24 233.596 357.84 233.596 358.32 233.596 358.68 234.076 358.68 234.556Z" fill="#00ff00" fill-rule="evenodd"/><path transform="matrix(1,0,0,-1,0,595.276)" d="M360.6 234.556C360.6 235.036 360.12 235.516 359.64 235.516 359.16 235.516 358.68 235.036 358.68 234.556 358.68 234.076 359.16 233.596 359.64 233.596 360.12 233.596 360.6 234.076 360.6 234.556Z" fill="#00ff00" fill-rule="evenodd"/><path transform="matrix(1,0,0,-1,0,595.276)" d="M360.6 232.756C360.6 233.236 360.12 233.596 359.64 233.596 359.16 233.596 358.68 233.236 358.68 232.756 358.68 232.156 359.16 231.796 359.64 231.796 360.12 231.796 360.6 232.156 360.6 232.756Z" fill="#00ff00" fill-rule="evenodd"/><path transform="matrix(1,0,0,-1,0,595.276)" d="M358.68 232.756C358.68 233.236 358.32 233.596 357.84 233.596 357.24 233.596 356.88 233.236 356.88 232.756 356.88 232.156 357.24 231.796 357.84 231.796 358.32 231.796 358.68 232.156 358.68 232.756Z" fill="#00ff00" fill-rule="evenodd"/><path transform="matrix(1,0,0,-1,0,595.276)" d="M360.6 230.836C360.6 231.316 360.12 231.796 359.64 231.796 359.16 231.796 358.68 231.316 358.68 230.836 358.68 230.356 359.16 229.876 359.64 229.876 360.12 229.876 360.6 230.356 360.6 230.836Z" fill="#00ff00" fill-rule="evenodd"/><path transform="matrix(1,0,0,-1,0,595.276)" d="M358.68 230.836C358.68 231.316 358.32 231.796 357.84 231.796 357.24 231.796 356.88 231.316 356.88 230.836 356.88 230.356 357.24 229.876 357.84 229.876 358.32 229.876 358.68 230.356 358.68 230.836Z" fill="#00ff00" fill-rule="evenodd"/><path transform="matrix(1,0,0,-1,0,595.276)" d="M360.6 229.036C360.6 229.516 360.12 229.876 359.64 229.876 359.16 229.876 358.68 229.516 358.68 229.036 358.68 228.436 359.16 228.076 359.64 228.076 360.12 228.076 360.6 228.436 360.6 229.036Z" fill="#00ff00" fill-rule="evenodd"/><path transform="matrix(1,0,0,-1,0,595.276)" d="M358.68 229.036C358.68 229.516 358.32 229.876 357.84 229.876 357.24 229.876 356.88 229.516 356.88 229.036 356.88 228.436 357.24 228.076 357.84 228.076 358.32 228.076 358.68 228.436 358.68 229.036Z" fill="#00ff00" fill-rule="evenodd"/><path transform="matrix(1,0,0,-1,0,595.276)" d="M362.4 230.836C362.4 231.316 362.04 231.796 361.56 231.796 360.96 231.796 360.6 231.316 360.6 230.836 360.6 230.356 360.96 229.876 361.56 229.876 362.04 229.876 362.4 230.356 362.4 230.836Z" fill="#00ff00" fill-rule="evenodd"/><path transform="matrix(1,0,0,-1,0,595.276)" d="M362.4 232.756C362.4 233.236 362.04 233.596 361.56 233.596 360.96 233.596 360.6 233.236 360.6 232.756 360.6 232.156 360.96 231.796 361.56 231.796 362.04 231.796 362.4 232.156 362.4 232.756Z" fill="#00ff00" fill-rule="evenodd"/><path transform="matrix(1,0,0,-1,0,595.276)" d="M364.32 232.756C364.32 233.236 363.84 233.596 363.36 233.596 362.88 233.596 362.4 233.236 362.4 232.756 362.4 232.156 362.88 231.796 363.36 231.796 363.84 231.796 364.32 232.156 364.32 232.756Z" fill="#00ff00" fill-rule="evenodd"/><path transform="matrix(1,0,0,-1,0,595.276)" d="M364.32 234.556C364.32 235.036 363.84 235.516 363.36 235.516 362.88 235.516 362.4 235.036 362.4 234.556 362.4 234.076 362.88 233.596 363.36 233.596 363.84 233.596 364.32 234.076 364.32 234.556Z" fill="#00ff00" fill-rule="evenodd"/><path transform="matrix(1,0,0,-1,0,595.276)" d="M366.12 236.476C366.12 236.956 365.76 237.436 365.28 237.436 364.68 237.436 364.32 236.956 364.32 236.476 364.32 235.876 364.68 235.516 365.28 235.516 365.76 235.516 366.12 235.876 366.12 236.476Z" fill="#00ff00" fill-rule="evenodd"/><path transform="matrix(1,0,0,-1,0,595.276)" d="M366.12 234.556C366.12 235.036 365.76 235.516 365.28 235.516 364.68 235.516 364.32 235.036 364.32 234.556 364.32 234.076 364.68 233.596 365.28 233.596 365.76 233.596 366.12 234.076 366.12 234.556Z" fill="#00ff00" fill-rule="evenodd"/><path transform="matrix(1,0,0,-1,0,595.276)" d="M368.04 236.476C368.04 236.956 367.68 237.436 367.08 237.436 366.6 237.436 366.12 236.956 366.12 236.476 366.12 235.876 366.6 235.516 367.08 235.516 367.68 235.516 368.04 235.876 368.04 236.476Z" fill="#00ff00" fill-rule="evenodd"/><path transform="matrix(1,0,0,-1,0,595.276)" d="M353.16 236.476C353.16 236.956 352.68 237.436 352.2 237.436 351.72 237.436 351.24 236.956 351.24 236.476 351.24 235.876 351.72 235.516 352.2 235.516 352.68 235.516 353.16 235.876 353.16 236.476Z" fill="#00ff00" fill-rule="evenodd"/><path transform="matrix(1,0,0,-1,0,595.276)" d="M351.24 236.476C351.24 236.956 350.88 237.436 350.28 237.436 349.8 237.436 349.44 236.956 349.44 236.476 349.44 235.876 349.8 235.516 350.28 235.516 350.88 235.516 351.24 235.876 351.24 236.476Z" fill="#00ff00" fill-rule="evenodd"/><path transform="matrix(1,0,0,-1,0,595.276)" d="M353.16 234.556C353.16 235.036 352.68 235.516 352.2 235.516 351.72 235.516 351.24 235.036 351.24 234.556 351.24 234.076 351.72 233.596 352.2 233.596 352.68 233.596 353.16 234.076 353.16 234.556Z" fill="#00ff00" fill-rule="evenodd"/><path transform="matrix(1,0,0,-1,0,595.276)" d="M354.96 234.556C354.96 235.036 354.6 235.516 354.12 235.516 353.52 235.516 353.16 235.036 353.16 234.556 353.16 234.076 353.52 233.596 354.12 233.596 354.6 233.596 354.96 234.076 354.96 234.556Z" fill="#00ff00" fill-rule="evenodd"/><path transform="matrix(1,0,0,-1,0,595.276)" d="M354.96 232.756C354.96 233.236 354.6 233.596 354.12 233.596 353.52 233.596 353.16 233.236 353.16 232.756 353.16 232.156 353.52 231.796 354.12 231.796 354.6 231.796 354.96 232.156 354.96 232.756Z" fill="#00ff00" fill-rule="evenodd"/><path transform="matrix(1,0,0,-1,0,595.276)" d="M356.88 232.756C356.88 233.236 356.4 233.596 355.92 233.596 355.44 233.596 354.96 233.236 354.96 232.756 354.96 232.156 355.44 231.796 355.92 231.796 356.4 231.796 356.88 232.156 356.88 232.756Z" fill="#00ff00" fill-rule="evenodd"/><path transform="matrix(1,0,0,-1,0,595.276)" d="M356.88 230.836C356.88 231.316 356.4 231.796 355.92 231.796 355.44 231.796 354.96 231.316 354.96 230.836 354.96 230.356 355.44 229.876 355.92 229.876 356.4 229.876 356.88 230.356 356.88 230.836Z" fill="#00ff00" fill-rule="evenodd"/><path transform="matrix(1,0,0,-1,0,595.276)" stroke-width=".12" stroke-linecap="round" stroke-linejoin="round" fill="none" stroke="#000000" d="M371.76 228.076V248.596C371.76 249.556 370.92 250.396 369.96 250.396H345.72C344.64 250.396 343.8 249.556 343.8 248.596V228.076C343.8 226.996 344.64 226.156 345.72 226.156H369.96C370.92 226.156 371.76 226.996 371.76 228.076"/></g></svg>