<?xml version='1.0' encoding='UTF-8'?>
<svg width="428.99" height="260.39" viewBox="68.50 6.01 428.99 260.39" xmlns="http://www.w3.org/2000/svg" xmlns:xlink="http://www.w3.org/1999/xlink" xmlns:inkscape="http://www.inkscape.org/namespaces/inkscape" version="1.1"><g transform="scale(10.0) translate(-111.171, -74.160)"><defs><clipPath id="clip_2"><path transform="matrix(1,0,0,-1,0,595.276)" d="M74.4 .196H767.4V595.276H74.4Z"/></clipPath></defs><path transform="matrix(1,0,0,-1,0,595.276)" d="M159.24 507.796H119.88C119.64 507.796 119.4 508.036 119.4 508.396V518.836C119.4 518.956 119.4 519.196 119.52 519.316 119.52 519.316 119.64 519.316 119.76 519.436H119.88 159.24C159.6 519.436 159.84 519.196 159.84 518.836V508.396C159.84 508.276 159.84 508.276 159.84 508.156 159.72 508.156 159.72 508.036 159.72 507.916 159.6 507.916 159.6 507.916 159.48 507.796 159.36 507.796 159.36 507.796 159.24 507.796Z" fill="#ffff00" fill-rule="evenodd"/><path transform="matrix(1,0,0,-1,0,595.276)" d="M119.88 507.196H139.56V495.556H119.88C119.88 495.556 119.76 495.556 119.76 495.676 119.64 495.676 119.52 495.676 119.52 495.796 119.4 495.796 119.4 495.916 119.4 495.916 119.4 496.036 119.4 496.156 119.4 496.156V506.596C119.4 506.716 119.4 506.836 119.4 506.836 119.4 506.956 119.4 506.956 119.52 507.076 119.64 507.196 119.76 507.196 119.88 507.196Z" fill="#ffffff" fill-rule="evenodd"/><path transform="matrix(1,0,0,-1,0,595.276)" d="M139.56 507.196H159.24C159.36 507.196 159.6 507.196 159.72 507.076 159.84 506.956 159.84 506.836 159.84 506.596V496.156C159.84 496.036 159.84 495.916 159.72 495.796 159.6 495.676 159.36 495.556 159.24 495.556H139.56V507.196Z" fill-rule="evenodd"/><path transform="matrix(1,0,0,-1,0,595.276)" stroke-width=".12" stroke-linecap="round" stroke-linejoin="round" fill="none" stroke="#000000" d="M159.84 496.156C159.84 495.796 159.6 495.556 159.24 495.556"/><path transform="matrix(1,0,0,-1,0,595.276)" stroke-width=".12" stroke-linecap="butt" stroke-miterlimit="10" stroke-linejoin="miter" fill="none" stroke="#000000" d="M118.5 518.5V518.5"/><path transform="matrix(1,0,0,-1,0,595.276)" d="M118.8 518.836C118.8 519.436 119.28 520.036 119.88 520.036H159.24C159.6 520.036 159.84 519.916 160.08 519.676 160.32 519.436 160.44 519.076 160.44 518.836V496.156C160.44 495.916 160.32 495.556 160.08 495.316 159.84 495.076 159.6 494.956 159.24 494.956H119.88C119.64 494.956 119.28 495.076 119.16 495.316 118.92 495.556 118.8 495.916 118.8 496.156V518.836ZM119.4 506.596V506.596 496.156C119.4 496.036 119.4 495.916 119.52 495.796 119.64 495.676 119.76 495.556 119.88 495.556H159.24C159.6 495.556 159.84 495.796 159.84 496.156V506.596C159.84 506.956 159.6 507.196 159.24 507.196H119.88C119.76 507.196 119.64 507.196 119.52 507.076 119.4 506.956 119.4 506.836 119.4 506.596ZM159.24 507.796V507.796C159.36 507.796 159.6 507.796 159.72 507.916 159.84 508.036 159.84 508.276 159.84 508.396V518.836C159.84 518.956 159.84 519.196 159.72 519.316 159.6 519.436 159.36 519.436 159.24 519.436H119.88C119.76 519.436 119.64 519.436 119.52 519.316 119.4 519.196 119.4 518.956 119.4 518.836V508.396C119.4 508.276 119.4 508.036 119.52 507.916 119.64 507.796 119.76 507.796 119.88 507.796H159.24Z" fill-rule="evenodd"/><path transform="matrix(1,0,0,-1,0,595.276)" d="M128.4 502.876H129.24V502.996H128.4V503.596H129.12V503.716H127.92L128.04 503.956H127.92V504.076L127.68 503.716 127.44 503.356 127.56 503.236 127.68 503.476 127.8 503.596H128.28V502.996H127.44V502.876H128.28V502.156H128.4Z" fill-rule="evenodd"/><path transform="matrix(1,0,0,-1,0,595.276)" d="M125.16 502.156H126.96V502.276H126V503.116H126.72V503.236H126V503.956H125.88V502.276H125.16Z" fill-rule="evenodd"/><path transform="matrix(1,0,0,-1,0,595.276)" d="M125.16 496.756H126.96V496.876H126V497.716H126.72V497.836H126V498.436 498.556H125.88V496.876H125.16Z" fill-rule="evenodd"/><path transform="matrix(1,0,0,-1,0,595.276)" d="M128.4 497.476V496.756H128.28V497.476H127.44V497.596H128.28V498.196H127.8L127.68 497.956 127.56 497.836 127.44 497.956 127.68 498.196 127.92 498.556H128.04V498.436L127.92 498.316H129.12V498.196H128.4V497.596H129.24V497.476Z" fill-rule="evenodd"/><path transform="matrix(1,0,0,-1,0,595.276)" d="M130.92 497.956 130.8 496.876H130.92V496.756H131.04 131.28 131.4L131.52 496.876V497.116H131.4V496.876H131.28 131.04V498.076H130.44L130.56 498.436V498.556H130.44 130.32V498.076H129.84V497.956H130.32V497.716 497.596L130.2 497.476V497.356L130.08 497.116 129.96 496.996 129.84 496.876H129.72V496.756H129.84L129.96 496.876 130.08 496.996 130.2 497.116 130.32 497.236V497.356L130.44 497.596V497.716 497.956Z" fill-rule="evenodd"/><path transform="matrix(1,0,0,-1,0,595.276)" d="M132.72 497.356H133.44V496.876H133.32 133.2V496.756H133.44 133.56V496.876 497.356H133.8V497.476H133.56V497.596 497.716H133.44V497.476H132.72V497.356Z" fill-rule="evenodd"/><path transform="matrix(1,0,0,-1,0,595.276)" d="M132.72 497.836H133.2V498.196H132.84V498.316H133.2V498.556H133.32V498.316H133.68V498.196H133.32V497.836H133.8V497.716H132.72V497.836Z" fill-rule="evenodd"/><path transform="matrix(1,0,0,-1,0,595.276)" d="M132.72 497.236 132.96 497.116 133.08 496.996 133.2 497.116 132.96 497.236H132.84Z" fill-rule="evenodd"/><path transform="matrix(1,0,0,-1,0,595.276)" d="M131.52 503.476 130.44 503.356V503.836 503.956H130.56 130.44 130.32V503.356L129.72 503.236V503.116H130.32V502.396 502.276H130.44V502.156H130.56 131.16 131.28L131.4 502.276V502.396L131.52 502.516V502.636H131.4V502.396H131.28L131.16 502.276H130.68 130.56L130.44 502.396V503.236L131.52 503.356Z" fill-rule="evenodd"/><path transform="matrix(1,0,0,-1,0,595.276)" d="M130.2 500.476H130.32L130.2 500.836 129.96 501.076 129.84 500.956 130.08 500.716H129.12L129.48 501.076H130.32V501.196H128.64V501.076H129.36L129 500.716 128.64 500.596H128.76V500.476L130.08 500.716Z" fill-rule="evenodd"/><path transform="matrix(1,0,0,-1,0,595.276)" d="M129.6 500.116H130.2V500.236H129.6V500.356 500.476H129.48V500.236H128.76V500.116H129.48V499.636H128.64 130.44 129.6Z" fill-rule="evenodd"/><path transform="matrix(1,0,0,-1,0,595.276)" d="M132.96 502.516 133.08 502.396 133.2 502.516 132.96 502.636 132.84 502.756 132.72 502.636Z" fill-rule="evenodd"/><path transform="matrix(1,0,0,-1,0,595.276)" d="M133.44 502.276H133.32 133.2V502.156H133.44 133.56V502.276 502.756H133.8V502.876H133.56V503.116H133.44V502.876H132.72V502.756H133.44V502.396Z" fill-rule="evenodd"/><path transform="matrix(1,0,0,-1,0,595.276)" d="M133.32 503.596H133.68V503.716H133.32V503.956L133.2 504.076V503.956 503.716H132.84 132.72 132.84V503.596H133.2V503.356H132.72V503.236H133.8V503.356H133.32V503.596Z" fill-rule="evenodd"/><path transform="matrix(1,0,0,-1,0,595.276)" d="M132 502.396H132.12V502.636H132.48V502.516H132.6V503.836H132V502.396ZM132.12 503.236V503.236H132.48V502.756H132.12V503.236ZM132.12 503.356V503.356 503.716H132.48V503.356H132.12Z" fill-rule="evenodd"/><path transform="matrix(1,0,0,-1,0,595.276)" d="M132 496.996H132.12V497.236H132.48V497.116H132.6V498.436H132V496.996ZM132.48 497.356V497.356H132.12V497.716H132.48V497.356ZM132.12 497.836V498.316H132.48V497.836H132.12Z" fill-rule="evenodd"/><path transform="matrix(1,0,0,-1,0,595.276)" d="M129.24 505.756H129.6V505.636H129.24Z" fill-rule="evenodd"/><path transform="matrix(1,0,0,-1,0,595.276)" d="M124.56 506.116H125.04V505.996H124.92V505.876 505.756L124.8 505.636V505.516 505.396L124.68 505.276V505.156 505.036 504.916H124.92V505.036 505.156 505.276 505.396H125.04V505.516 505.636 505.756H125.16V505.876 505.996H125.28V506.116 506.356H124.56Z" fill-rule="evenodd"/><path transform="matrix(1,0,0,-1,0,595.276)" d="M127.68 505.516V505.516 505.636H127.8V505.756H127.92V505.636H128.04V505.516 505.036H128.16V505.636H128.28V505.756H128.4V505.636 505.516 505.036H128.64V505.636 505.756 505.876 505.996H128.52 128.4 128.28V505.876H128.16V505.996H128.04 127.92 127.8L127.68 505.876V505.996H127.56V505.036H127.68Z" fill-rule="evenodd"/><path transform="matrix(1,0,0,-1,0,595.276)" d="M126.36 505.636V505.756 505.876L126.48 505.996H126.6 126.72L126.84 505.876 126.96 505.756V505.636 505.036H126.72V505.156 505.036H126.6V504.916H126.48L126.36 505.036 126.24 505.156V505.276 505.396L126.36 505.516H126.48L126.6 505.636H126.72V505.756H126.6 126.48V505.636H126.36ZM126.6 505.396H126.48V505.276 505.156H126.6 126.72V505.276 505.516L126.6 505.396Z" fill-rule="evenodd"/><path transform="matrix(1,0,0,-1,0,595.276)" d="M130.08 505.396V505.276 505.156H130.2V505.036H130.32 130.44 130.56V505.156H130.68V505.276 505.396 505.516L130.8 505.636V505.756L130.68 505.876V505.996 506.116L130.56 506.236H130.44V506.356H130.32V506.236H130.2V506.116H130.08V505.996 505.876 505.756 505.636 505.516H130.2L130.32 505.396H130.44V505.516H130.56V505.396 505.276H130.44V505.156H130.32V505.276H130.2V505.396H130.08ZM130.56 505.756V505.756L130.44 505.636H130.32V505.756H130.2V505.876 505.996H130.32V506.116H130.44 130.56V505.996 505.876 505.756Z" fill-rule="evenodd"/><path transform="matrix(1,0,0,-1,0,595.276)" d="M133.32 505.516V505.516 505.636 505.756H133.44 133.56V505.636 505.516 505.036H133.8V505.636 505.756H133.92 134.04V505.636 505.516 505.036H134.28V505.636 505.756 505.876H134.16V505.996H134.04 133.92 133.8V505.876H133.68V505.996H133.56 133.44 133.32V505.876 505.996H133.08V505.036H133.32Z" fill-rule="evenodd"/><path transform="matrix(1,0,0,-1,0,595.276)" d="M131.88 505.636V505.756 505.876H132V505.996H132.12 132.24 132.36V505.876H132.48V505.756 505.636 505.036H132.6 132.36V505.156 505.036H132.24V504.916H132.12 132V505.036H131.88V505.156 505.276 505.396 505.516H132 132.12V505.636H132.24 132.36V505.756H132.24 132.12V505.636H131.88ZM132.12 505.396V505.396H132V505.276L132.12 505.156H132.24L132.36 505.276V505.516L132.12 505.396Z" fill-rule="evenodd"/><path transform="matrix(1,0,0,-1,0,595.276)" d="M136.92 514.156H141.84V512.836H136.92Z" fill-rule="evenodd"/><path transform="matrix(1,0,0,-1,0,595.276)" d="M155.4 514.156H143.76V512.836H155.4Z" fill-rule="evenodd"/><path transform="matrix(1,0,0,-1,0,595.276)" d="M155.4 512.356H143.76V510.196H141.84V512.356H136.92V510.916L136.68 510.676V510.196H137.76C137.88 510.556 138 510.796 138.36 511.036 138.72 511.156 139.08 511.276 139.32 511.156 139.68 511.156 140.04 511.036 140.28 510.676 140.52 510.436 140.52 510.076 140.52 509.716H150.36C150.36 510.556 150.96 511.156 151.8 511.276 152.16 511.276 152.52 511.156 152.76 510.796 153.12 510.556 153.24 510.196 153.24 509.836L155.76 510.316V510.556L155.4 510.916V512.356Z" fill-rule="evenodd"/><path transform="matrix(1,0,0,-1,0,595.276)" d="M140.16 509.716C140.16 510.316 139.68 510.796 139.08 510.796 138.48 510.796 138 510.316 138 509.716 138 509.476 138.12 509.236 138.36 508.996 138.6 508.756 138.84 508.636 139.08 508.636 139.44 508.636 139.68 508.756 139.92 508.996 140.16 509.236 140.16 509.476 140.16 509.716ZM139.68 509.716C139.68 509.596 139.56 509.476 139.56 509.356 139.44 509.236 139.2 509.236 139.08 509.236 138.84 509.236 138.6 509.476 138.6 509.716 138.6 510.076 138.84 510.316 139.08 510.316 139.2 510.316 139.44 510.196 139.56 510.076 139.56 509.956 139.68 509.836 139.68 509.716Z" fill-rule="evenodd"/><path transform="matrix(1,0,0,-1,0,595.276)" d="M152.88 509.716C152.88 510.076 152.76 510.316 152.52 510.556 152.4 510.796 152.04 510.796 151.8 510.796 151.56 510.796 151.2 510.796 151.08 510.556 150.84 510.316 150.72 510.076 150.72 509.716 150.72 509.476 150.84 509.236 151.08 508.996 151.2 508.756 151.56 508.636 151.8 508.636 152.4 508.636 152.88 509.116 152.88 509.716ZM152.4 509.716C152.4 509.476 152.16 509.236 151.8 509.236 151.68 509.236 151.56 509.236 151.44 509.356 151.32 509.476 151.2 509.596 151.2 509.716 151.2 510.076 151.56 510.316 151.8 510.316 151.92 510.316 152.04 510.316 152.16 510.196 152.28 510.076 152.4 509.836 152.4 509.716Z" fill-rule="evenodd"/><path transform="matrix(1,0,0,-1,0,595.276)" d="M155.4 514.516H143.76V515.476 517.396H141.84V514.516H136.92L138.36 517.756C138.6 518.236 139.08 518.476 139.56 518.476H154.2C154.56 518.476 154.8 518.236 154.92 517.876L155.4 514.996V514.516ZM144.48 517.396V515.116H149.16V517.396H144.48ZM149.88 517.396V515.116H154.92L154.44 517.396H149.88ZM141.12 517.396H138.72L137.64 515.116H141.12V517.396Z" fill-rule="evenodd"/><path transform="matrix(1,0,0,-1,0,595.276)" stroke-width=".12" stroke-linecap="butt" stroke-miterlimit="10" stroke-linejoin="miter" fill="none" stroke="#000000" d="M126.5 511.5H127.5"/><path transform="matrix(1,0,0,-1,0,595.276)" stroke-width=".12" stroke-linecap="butt" stroke-miterlimit="10" stroke-linejoin="miter" fill="none" stroke="#000000" d="M126.5 517.5H127.5"/><path transform="matrix(1,0,0,-1,0,595.276)" d="M129.12 514.636C129.12 515.596 128.76 516.676 127.92 517.516 127.08 518.356 126 518.716 124.92 518.716 123.96 518.716 122.88 518.356 122.04 517.516 121.2 516.676 120.84 515.596 120.84 514.636 120.84 513.556 121.2 512.476 122.04 511.636 122.88 510.796 123.96 510.436 124.92 510.436 126 510.436 127.08 510.796 127.92 511.636 128.76 512.476 129.12 513.556 129.12 514.636ZM122.28 516.556 124.32 514.636 122.28 512.596C121.44 513.796 121.44 515.356 122.28 516.556ZM125.64 514.636 127.68 516.556C128.04 516.076 128.4 515.356 128.4 514.636 128.4 514.276 128.28 513.916 128.16 513.556 128.04 513.196 127.92 512.836 127.68 512.596L125.64 514.636ZM126.96 517.276 125.04 515.236 123 517.276C124.2 518.116 125.76 518.116 126.96 517.276ZM126.96 511.876V511.876C125.76 511.036 124.2 511.036 123 511.876L125.04 513.916 126.96 511.876ZM123 511.876V511.876Z" fill-rule="evenodd"/><path transform="matrix(1,0,0,-1,0,595.276)" d="M122.28 512.596 124.32 514.636 122.28 516.556C121.92 516.076 121.68 515.356 121.68 514.636 121.68 513.796 121.92 513.196 122.28 512.596Z" fill="#e1e1e1" fill-rule="evenodd"/><path transform="matrix(1,0,0,-1,0,595.276)" d="M125.04 513.916 123 511.876C123.6 511.516 124.2 511.276 125.04 511.276 125.76 511.276 126.48 511.516 126.96 511.876L125.04 513.916Z" fill="#e1e1e1" fill-rule="evenodd"/><path transform="matrix(1,0,0,-1,0,595.276)" d="M125.64 514.636 127.68 512.596C128.04 513.196 128.4 513.796 128.4 514.636 128.4 515.356 128.04 516.076 127.68 516.556L125.64 514.636Z" fill="#e1e1e1" fill-rule="evenodd"/><path transform="matrix(1,0,0,-1,0,595.276)" d="M125.04 515.236 126.96 517.276C126.48 517.636 125.76 517.876 125.04 517.876 124.2 517.876 123.6 517.636 123 517.276L125.04 515.236Z" fill="#e1e1e1" fill-rule="evenodd"/><path transform="matrix(1,0,0,-1,0,595.276)" d="M146.88 502.876 147 502.996 146.76 503.236 146.4 503.356V503.836H147.24V503.956H145.44V503.836H146.28V502.156H146.4V503.236L146.64 503.116Z" fill="#ffffff" fill-rule="evenodd"/><path transform="matrix(1,0,0,-1,0,595.276)" d="M149.4 503.716H148.2L148.32 503.836V503.956H148.2L147.96 503.596 147.72 503.236H147.84L147.96 503.356 148.08 503.596H148.56V502.996H147.72V502.876H148.56V502.036H148.68V502.876H149.52V502.996H148.68V503.596H149.4Z" fill="#ffffff" fill-rule="evenodd"/><path transform="matrix(1,0,0,-1,0,595.276)" d="M153.6 503.236V503.596H153.96V503.716H153.6V503.836 503.956H153.48V503.716H153.12V503.596H153.48V503.236H153V503.116H154.08V503.236H153.6Z" fill="#ffffff" fill-rule="evenodd"/><path transform="matrix(1,0,0,-1,0,595.276)" d="M153.72 502.756V502.276H153.6 153.48V502.156H153.72 153.84V502.276 502.756H154.08V502.876H153.84V502.996 503.116H153.72V502.876H153V502.756H153.72Z" fill="#ffffff" fill-rule="evenodd"/><path transform="matrix(1,0,0,-1,0,595.276)" d="M153 502.636 153.24 502.516 153.36 502.396 153.48 502.516 153.24 502.636H153.12Z" fill="#ffffff" fill-rule="evenodd"/><path transform="matrix(1,0,0,-1,0,595.276)" d="M154.08 497.956H153.6V498.196 498.316H153.96 153.6V498.436 498.556L153.48 498.676V498.556 498.436 498.316H153.12 153.48V498.196 497.956H153V497.836H154.08Z" fill="#ffffff" fill-rule="evenodd"/><path transform="matrix(1,0,0,-1,0,595.276)" d="M153.72 497.356V496.996 496.876H153.6 153.48V496.756H153.72 153.84V496.876 497.356 497.476H154.08 153.84V497.596 497.716H153.72V497.596 497.476H153 153.72Z" fill="#ffffff" fill-rule="evenodd"/><path transform="matrix(1,0,0,-1,0,595.276)" d="M153 497.236 153.24 497.116 153.36 496.996 153.48 497.116 153.24 497.236 153.12 497.356Z" fill="#ffffff" fill-rule="evenodd"/><path transform="matrix(1,0,0,-1,0,595.276)" d="M150 497.716 150.6 497.836V496.996 496.876H150.72V496.756H150.84 151.44L151.56 496.876H151.68V496.996L151.8 497.116V497.236H151.68V496.996H151.56L151.44 496.876H150.96 150.84L150.72 496.996V497.836L151.8 497.956V498.076L150.72 497.956V498.556H150.84 150.72 150.6V497.956L150 497.836Z" fill="#ffffff" fill-rule="evenodd"/><path transform="matrix(1,0,0,-1,0,595.276)" d="M148.56 498.196V497.596H147.72V497.476H148.56V496.756H148.68V497.476H149.52V497.596H148.68V498.196H149.4V498.316H148.2L148.32 498.556H148.2V498.676L147.96 498.316 147.72 497.956 147.84 497.836 147.96 498.076 148.08 498.196Z" fill="#ffffff" fill-rule="evenodd"/><path transform="matrix(1,0,0,-1,0,595.276)" d="M146.64 497.716 146.88 497.476 147 497.596 146.76 497.836 146.4 498.076V498.436H147.24V498.556H145.44V498.436H146.28V496.876H146.4V497.956Z" fill="#ffffff" fill-rule="evenodd"/><path transform="matrix(1,0,0,-1,0,595.276)" d="M149.76 499.996V499.516H150.6 148.8 149.64V499.996H149.04V500.116H149.64V500.356H149.76 149.88V500.236H149.76V500.116H150.48V499.996Z" fill="#ffffff" fill-rule="evenodd"/><path transform="matrix(1,0,0,-1,0,595.276)" d="M150.6 501.076H148.92V500.956H149.52L149.16 500.476H148.92L149.04 500.356 150.36 500.476 150.48 500.356H150.6L150.36 500.716 150.24 500.956 150.12 500.836 150.24 500.596 149.4 500.476 149.64 500.956H150.6Z" fill="#ffffff" fill-rule="evenodd"/><path transform="matrix(1,0,0,-1,0,595.276)" d="M145.08 505.396V505.396 505.276L145.2 505.156 145.32 505.276V505.396 505.516 505.636H145.2 145.08 144.84L144.96 506.356H145.56V506.116H145.08V505.756 505.876H145.2 145.32 145.44V505.756L145.56 505.636V505.516 505.396 505.276 505.156H145.44V505.036H145.32 145.2 145.08 144.96V505.156H144.84V505.276 505.396Z" fill="#ffffff" fill-rule="evenodd"/><path transform="matrix(1,0,0,-1,0,595.276)" d="M146.64 504.676V505.996H146.88V505.876H147V505.996H147.12 147.24V505.876H147.36V505.756 505.636L147.48 505.516V505.396H147.36V505.276 505.156L147.24 505.036 147.12 504.916H147V505.036H146.88V505.156 504.676H146.64ZM147 505.156V505.156H147.12V505.276H147.24V505.396 505.516 505.636H147.12V505.756H147L146.88 505.636V505.516 505.396 505.276H147V505.156Z" fill="#ffffff" fill-rule="evenodd"/><path transform="matrix(1,0,0,-1,0,595.276)" d="M149.64 505.756H150.12V505.636H149.64Z" fill="#ffffff" fill-rule="evenodd"/><path transform="matrix(1,0,0,-1,0,595.276)" d="M148.2 505.516V505.516 505.636 505.756H148.32 148.44V505.636 505.516 505.036H148.68V505.636 505.756H148.8 148.92V505.636 505.516 505.036H149.16V505.636 505.756 505.876H149.04V505.996H148.92 148.8 148.68V505.876L148.56 505.996H148.44 148.32 148.2V505.876 505.996H147.96V505.036H148.2Z" fill="#ffffff" fill-rule="evenodd"/><path transform="matrix(1,0,0,-1,0,595.276)" d="M152.16 504.676V505.996H152.28L152.4 505.876V505.996H152.52 152.64L152.76 505.876V505.756H152.88V505.636 505.516 505.396 505.276 505.156H152.76V505.036H152.64V504.916H152.52V505.036H152.4V505.156H152.28V504.676H152.16ZM152.52 505.156V505.156L152.64 505.276V505.396 505.516 505.636 505.756H152.52 152.4V505.636 505.516 505.396 505.276L152.52 505.156Z" fill="#ffffff" fill-rule="evenodd"/><path transform="matrix(1,0,0,-1,0,595.276)" d="M153.72 505.516V505.516 505.636 505.756H153.84L153.96 505.636V505.516 505.036H154.2V505.636 505.756H154.32L154.44 505.636V505.516 505.036H154.68L154.56 505.636V505.756 505.876 505.996H154.44 154.32 154.2V505.876H154.08V505.996H153.96 153.84 153.72V505.876L153.6 505.996H153.48V505.036H153.72Z" fill="#ffffff" fill-rule="evenodd"/><path transform="matrix(1,0,0,-1,0,595.276)" d="M150.48 506.116H150.96L150.84 505.996V505.876H150.72V505.756 505.636 505.516H150.6V505.396 505.276 505.156 505.036 504.916H150.84V505.036 505.156 505.276 505.396 505.516 505.636H150.96V505.756 505.876H151.08V505.996 506.116 506.356H150.48Z" fill="#ffffff" fill-rule="evenodd"/><path transform="matrix(1,0,0,-1,0,595.276)" d="M152.88 503.836H152.28V503.716 502.396 502.276H152.4V502.396 502.636H152.76V502.516H152.88V503.716 503.836ZM152.4 502.756V503.116H152.76V502.756H152.4ZM152.4 503.236V503.236 503.716H152.76V503.236H152.4Z" fill="#ffffff" fill-rule="evenodd"/><path transform="matrix(1,0,0,-1,0,595.276)" d="M150 502.276H151.8 151.44L151.56 503.236H150.84L150.96 503.716H151.8V503.836H150.12V503.716H150.84L150.72 503.236H150.24V503.116H150.72L150.48 502.276H150ZM150.6 502.276 150.84 503.116H151.44L151.32 502.276H150.6Z" fill="#ffffff" fill-rule="evenodd"/><path transform="matrix(1,0,0,-1,0,595.276)" d="M152.4 496.996H152.28V498.436H152.88V497.116H152.76V497.236H152.4V496.996ZM152.4 497.356H152.76V497.836H152.4V497.356ZM152.4 497.956H152.76V498.316H152.4V497.956Z" fill="#ffffff" fill-rule="evenodd"/></g></svg>