<?xml version='1.0' encoding='UTF-8'?>
<svg width="71.08" height="260.04" viewBox="237.01 10.78 71.08 260.04" xmlns="http://www.w3.org/2000/svg" xmlns:xlink="http://www.w3.org/1999/xlink" xmlns:inkscape="http://www.inkscape.org/namespaces/inkscape" version="1.1"><g transform="scale(10.0) translate(-220.305, -505.008)"><defs><clipPath id="clip_2"><path transform="matrix(1,0,0,-1,0,595.276)" d="M74.4 .196H767.4V595.276H74.4Z"/></clipPath></defs><path transform="matrix(.12,0,0,.12,0,0)" stroke-width="1" stroke-linecap="butt" stroke-dasharray="47,24" stroke-linejoin="round" fill="none" stroke="#000000" d="M2042 4248C2042 4260 2051 4269 2063 4269 2075 4269 2085 4260 2085 4248 2085 4236 2075 4226 2063 4226 2051 4226 2042 4236 2042 4248"/><path transform="matrix(.12,0,0,.12,0,0)" stroke-width="1" stroke-linecap="butt" stroke-dasharray="47,24" stroke-linejoin="round" fill="none" stroke="#000000" d="M2042 4296C2042 4308 2051 4318 2063 4318 2075 4318 2085 4308 2085 4296 2085 4284 2075 4275 2063 4275 2051 4275 2042 4284 2042 4296"/><path transform="matrix(.12,0,0,.12,0,0)" stroke-width="1" stroke-linecap="butt" stroke-dasharray="47,24" stroke-linejoin="round" fill="none" stroke="#000000" d="M2042 4345C2042 4357 2051 4367 2063 4367 2075 4367 2085 4357 2085 4345 2085 4333 2075 4323 2063 4323 2051 4323 2042 4333 2042 4345"/><path transform="matrix(.12,0,0,.12,0,0)" stroke-width="1" stroke-linecap="butt" stroke-dasharray="47,24" stroke-linejoin="round" fill="none" stroke="#000000" d="M2036 4221H2090"/><path transform="matrix(.12,0,0,.12,0,0)" stroke-width="1" stroke-linecap="butt" stroke-dasharray="47,24" stroke-linejoin="round" fill="none" stroke="#000000" d="M2036 4220V4372"/><path transform="matrix(.12,0,0,.12,0,0)" stroke-width="1" stroke-linecap="butt" stroke-dasharray="47,24" stroke-linejoin="round" fill="none" stroke="#000000" d="M2090 4221V4372"/><path transform="matrix(1,0,0,-1,0,595.276)" stroke-width=".12" stroke-linecap="butt" stroke-miterlimit="10" stroke-linejoin="miter" fill="none" stroke="#000000" d="M244.5 69.5V63.5"/><path transform="matrix(.12,0,0,.12,0,0)" stroke-width="1" stroke-linecap="butt" stroke-dasharray="47,24" stroke-linejoin="round" fill="none" stroke="#000000" d="M2036 4372H2090"/><path transform="matrix(1,0,0,-1,0,595.276)" stroke-width=".12" stroke-linecap="butt" stroke-miterlimit="10" stroke-linejoin="miter" fill="none" stroke="#000000" d="M250.5 69.5V63.5"/><path transform="matrix(1,0,0,-1,0,595.276)" stroke-width=".12" stroke-linecap="butt" stroke-linejoin="round" fill="none" stroke="#000000" d="M250.2 66.676C250.2 68.116 249 69.316 247.56 69.316 246.12 69.316 245.04 68.116 245.04 66.676 245.04 65.236 246.12 64.156 247.56 64.156 249 64.156 250.2 65.236 250.2 66.676"/><path transform="matrix(1,0,0,-1,0,595.276)" stroke-width=".12" stroke-linecap="butt" stroke-miterlimit="10" stroke-linejoin="miter" fill="none" stroke="#000000" d="M244.5 63.5H250.5"/><path transform="matrix(1,0,0,-1,0,595.276)" stroke-width=".12" stroke-linecap="butt" stroke-miterlimit="10" stroke-linejoin="miter" fill="none" stroke="#000000" d="M250.5 69.5H244.5"/><path transform="matrix(1,0,0,-1,0,595.276)" d="M249.6 66.316H247.32V67.036H249.6Z" fill="#00ff00" fill-rule="evenodd"/><path transform="matrix(1,0,0,-1,0,595.276)" d="M248.4 64.876 246.6 66.676 248.4 68.596H247.32L245.52 66.676 247.32 64.876Z" fill="#00ff00" fill-rule="evenodd"/></g></svg>