<?xml version='1.0' encoding='UTF-8'?>
<svg width="560.57" height="260.57" viewBox="3.13 5.68 560.57 260.57" xmlns="http://www.w3.org/2000/svg" xmlns:xlink="http://www.w3.org/1999/xlink" xmlns:inkscape="http://www.inkscape.org/namespaces/inkscape" version="1.1"><g transform="scale(10.0) translate(-329.439, -20.304)"><defs><clipPath id="clip_2"><path transform="matrix(1,0,0,-1,0,595.276)" d="M74.4 .196H767.4V595.276H74.4Z"/></clipPath></defs><path transform="matrix(1,0,0,-1,0,595.276)" d="M384.48 573.796H331.08C330.96 573.796 330.84 573.676 330.84 573.676 330.72 573.676 330.6 573.556 330.6 573.556 330.48 573.436 330.48 573.436 330.36 573.316 330.36 573.196 330.36 573.076 330.36 573.076V549.676C330.36 549.436 330.36 549.316 330.6 549.196 330.6 549.076 330.72 549.076 330.84 548.956 330.84 548.956 330.96 548.956 331.08 548.956H384.48C384.72 548.956 384.84 549.076 385.08 549.196 385.08 549.196 385.2 549.316 385.2 549.436 385.2 549.436 385.2 549.556 385.2 549.676V573.076C385.2 573.196 385.2 573.436 385.08 573.556 384.84 573.676 384.72 573.796 384.48 573.796Z" fill="#ffff00" fill-rule="evenodd"/><path transform="matrix(1,0,0,-1,0,595.276)" d="M346.68 570.556C347.04 570.796 347.16 571.036 347.28 571.276 347.16 571.636 347.04 571.756 346.68 571.756 346.44 571.756 346.32 571.756 346.2 571.636 346.08 571.636 346.08 571.396 346.08 571.276H346.44C346.44 571.396 346.56 571.516 346.68 571.516 346.8 571.516 346.92 571.396 346.92 571.276 346.92 571.156 346.68 570.916 346.08 570.556V570.316H347.16V570.556H346.68Z" fill-rule="evenodd"/><path transform="matrix(1,0,0,-1,0,595.276)" d="M345.96 571.276V572.716H345.72C345.72 572.596 345.72 572.596 345.6 572.596 345.6 572.476 345.6 572.476 345.48 572.476V572.236H345.72V571.276H345.96Z" fill-rule="evenodd"/><path transform="matrix(1,0,0,-1,0,595.276)" d="M348.96 571.756V572.596H348.6V570.556H348.96V571.396H349.44 349.8V570.556H350.16V572.596H349.8V571.756H349.44Z" fill-rule="evenodd"/><path transform="matrix(1,0,0,-1,0,595.276)" d="M351.6 572.596C351.96 572.596 352.2 572.476 352.32 572.356 352.56 572.116 352.56 571.876 352.56 571.516 352.56 570.916 352.2 570.436 351.6 570.436 351.36 570.436 351.12 570.556 351 570.796 350.76 570.916 350.64 571.276 350.64 571.516 350.64 572.236 351.12 572.596 351.6 572.596ZM352.2 571.516C352.2 571.996 351.96 572.236 351.6 572.236 351.48 572.236 351.36 572.116 351.24 571.996 351.12 571.876 351.12 571.756 351.12 571.516 351.12 571.156 351.36 570.916 351.6 570.916 351.84 570.916 351.96 570.916 352.08 571.036 352.08 571.156 352.2 571.396 352.2 571.516Z" fill-rule="evenodd"/><path transform="matrix(1,0,0,-1,0,595.276)" d="M354.72 572.596V571.396 571.276C354.72 571.276 354.72 571.156 354.72 571.036V570.916C354.6 570.676 354.24 570.436 353.88 570.436 353.52 570.436 353.28 570.676 353.16 570.916 353.16 570.916 353.16 571.036 353.04 571.036 353.04 571.156 353.04 571.156 353.04 571.276V572.596H353.52V571.396 571.276 571.156C353.52 571.036 353.76 570.916 353.88 570.916 354 570.916 354.24 571.036 354.24 571.156 354.24 571.156 354.24 571.276 354.36 571.276V572.596H354.72Z" fill-rule="evenodd"/><path transform="matrix(1,0,0,-1,0,595.276)" d="M355.68 571.276V570.556H355.32V572.596H356.28C356.4 572.476 356.64 572.476 356.64 572.356 356.76 572.236 356.88 572.116 356.88 571.876 356.88 571.636 356.64 571.396 356.4 571.276L356.88 570.556H356.4L355.92 571.276H355.68ZM355.68 571.636H356.16C356.28 571.636 356.28 571.756 356.28 571.756L356.4 571.876C356.4 571.996 356.28 572.116 356.28 572.116H356.16 355.68V571.636Z" fill-rule="evenodd"/><path transform="matrix(1,0,0,-1,0,595.276)" d="M359.16 571.036 358.56 571.876V570.556H358.08V572.596H358.56L359.16 571.756 359.64 572.596H360.12V570.556H359.76V571.876Z" fill-rule="evenodd"/><path transform="matrix(1,0,0,-1,0,595.276)" d="M361.2 571.396H362.04V571.756H361.2V572.116H362.04V572.596H360.72V570.556H362.16V570.916H361.2Z" fill-rule="evenodd"/><path transform="matrix(1,0,0,-1,0,595.276)" d="M364.8 571.396H365.64V571.756H364.8V572.116H365.64V572.596H364.32V570.556H365.76V570.916H364.8Z" fill-rule="evenodd"/><path transform="matrix(1,0,0,-1,0,595.276)" d="M363.36 572.116H363.96V572.596H362.4V572.116H363V570.556H363.36Z" fill-rule="evenodd"/><path transform="matrix(1,0,0,-1,0,595.276)" d="M366.72 571.276V570.556H366.24V572.596H367.32C367.44 572.476 367.56 572.476 367.68 572.356 367.8 572.236 367.8 572.116 367.8 571.876 367.8 571.636 367.68 571.396 367.44 571.276L367.92 570.556H367.44L366.96 571.276H366.72ZM366.72 571.636H367.2V571.756C367.32 571.756 367.32 571.876 367.32 571.876 367.32 571.996 367.32 572.116 367.2 572.116H366.72V571.636Z" fill-rule="evenodd"/><path transform="matrix(1,0,0,-1,0,595.276)" d="M368.88 571.996C368.88 571.876 368.88 571.876 369 571.876 369 571.876 369.12 571.756 369.24 571.756 369.72 571.756 369.96 571.516 369.96 571.156 369.96 570.676 369.72 570.436 369.24 570.556 369 570.556 368.76 570.556 368.64 570.556 368.52 570.676 368.4 570.796 368.28 570.916L368.64 571.156C368.76 571.036 369 570.916 369.24 570.916 369.36 570.916 369.48 571.036 369.48 571.156 369.48 571.276 369.36 571.396 369.12 571.396 368.64 571.396 368.52 571.636 368.4 571.996 368.4 572.356 368.76 572.596 369.24 572.596 369.36 572.596 369.48 572.596 369.72 572.476 369.84 572.476 369.96 572.356 369.96 572.236L369.72 571.996C369.48 572.116 369.36 572.236 369.24 572.236 369 572.236 368.88 572.116 368.88 571.996Z" fill-rule="evenodd"/><path transform="matrix(1,0,0,-1,0,595.276)" d="M331.92 565.156H332.4V565.516H331.2V565.156H331.68V563.956H331.92Z" fill-rule="evenodd"/><path transform="matrix(1,0,0,-1,0,595.276)" d="M338.4 564.436C338.4 564.916 338.28 565.156 337.92 565.156 337.56 565.156 337.44 564.916 337.44 564.556 337.44 564.436 337.44 564.316 337.56 564.196 337.68 564.076 337.8 563.956 337.92 563.956 338.16 563.956 338.28 564.076 338.4 564.196L338.16 564.316C338.16 564.316 338.04 564.196 337.92 564.196 337.92 564.196 337.8 564.196 337.8 564.316H337.68V564.436H338.4ZM337.68 564.676V564.676C337.68 564.676 337.68 564.796 337.8 564.796 337.8 564.796 337.8 564.916 337.92 564.916 338.04 564.796 338.04 564.796 338.04 564.676H337.68Z" fill-rule="evenodd"/><path transform="matrix(1,0,0,-1,0,595.276)" d="M340.56 564.436C340.56 564.916 340.32 565.156 339.96 565.156 339.72 565.156 339.6 564.916 339.48 564.556 339.48 564.436 339.6 564.316 339.6 564.196 339.72 564.076 339.96 563.956 340.08 563.956 340.2 563.956 340.44 564.076 340.44 564.196L340.32 564.316C340.2 564.316 340.2 564.196 340.08 564.196 339.96 564.196 339.96 564.196 339.96 564.316H339.84V564.436H340.56ZM339.84 564.676V564.676 564.796C339.96 564.796 339.96 564.916 340.08 564.916 340.08 564.796 340.2 564.796 340.2 564.676H339.84Z" fill-rule="evenodd"/><path transform="matrix(1,0,0,-1,0,595.276)" d="M348.6 564.436C348.72 564.916 348.48 565.156 348.12 565.156 347.88 565.156 347.64 564.916 347.64 564.556 347.64 564.436 347.76 564.316 347.76 564.196 347.88 564.076 348 563.956 348.24 563.956 348.36 563.956 348.6 564.076 348.6 564.196L348.48 564.316C348.36 564.316 348.36 564.196 348.24 564.196 348.12 564.196 348.12 564.196 348 564.316V564.436H348.6ZM348 564.676V564.676 564.796C348.12 564.796 348.12 564.916 348.12 564.916 348.24 564.796 348.36 564.796 348.36 564.676H348Z" fill-rule="evenodd"/><path transform="matrix(1,0,0,-1,0,595.276)" d="M333.12 565.156C333.24 565.156 333.24 565.036 333.36 565.036 333.48 564.916 333.48 564.916 333.48 564.796V563.956H333.24V564.676C333.24 564.676 333.24 564.796 333.12 564.796H333 332.88V564.676 563.956H332.52V565.516H332.88V565.036 565.156C333 565.156 333 565.156 333.12 565.156Z" fill-rule="evenodd"/><path transform="matrix(1,0,0,-1,0,595.276)" d="M334.8 564.436C334.8 564.916 334.56 565.156 334.32 565.156 333.96 565.156 333.84 564.916 333.84 564.556 333.84 564.436 333.84 564.316 333.84 564.196 333.96 564.076 334.2 563.956 334.32 563.956 334.56 563.956 334.68 564.076 334.68 564.196L334.56 564.316C334.56 564.316 334.44 564.196 334.32 564.196 334.32 564.196 334.2 564.196 334.2 564.316H334.08V564.436H334.8ZM334.08 564.676V564.676C334.08 564.676 334.08 564.796 334.2 564.796 334.2 564.796 334.2 564.916 334.32 564.916 334.32 564.796 334.44 564.796 334.44 564.676H334.08Z" fill-rule="evenodd"/><path transform="matrix(1,0,0,-1,0,595.276)" d="M336.72 564.796C336.6 564.796 336.48 564.796 336.48 564.676V563.956H336.24V564.796H336.12C336 564.796 335.88 564.796 335.88 564.676V563.956H335.64V565.036H335.88C335.88 565.036 336 565.036 336 565.156H336.12C336.24 565.156 336.36 565.036 336.36 565.036 336.48 565.036 336.6 565.156 336.72 565.156 336.96 565.156 337.08 565.036 337.08 564.916V564.796 563.956H336.84V564.796H336.72Z" fill-rule="evenodd"/><path transform="matrix(1,0,0,-1,0,595.276)" d="M339 565.036H339.24V564.796H339V564.316L339.12 564.196H339.24L339.36 563.956C339.24 563.956 339.24 563.956 339 563.956 339 563.956 338.88 563.956 338.88 564.076 338.76 564.076 338.76 564.076 338.76 564.196V564.796H338.52V565.036H338.76V565.396L339 565.516V565.036Z" fill-rule="evenodd"/><path transform="matrix(1,0,0,-1,0,595.276)" d="M340.8 563.956V565.036H341.04 341.16C341.28 565.156 341.28 565.156 341.4 565.156V564.796C341.28 564.796 341.28 564.796 341.16 564.796 341.16 564.676 341.04 564.676 341.04 564.676V563.956H340.8Z" fill-rule="evenodd"/><path transform="matrix(1,0,0,-1,0,595.276)" d="M343.2 563.956V564.796C343.2 565.036 342.96 565.156 342.72 565.156H342.6C342.6 565.036 342.48 565.036 342.48 565.036H342.24V563.956H342.48V564.676C342.48 564.796 342.6 564.796 342.72 564.796 342.84 564.796 342.84 564.796 342.84 564.676V563.956H343.2Z" fill-rule="evenodd"/><path transform="matrix(1,0,0,-1,0,595.276)" d="M344.16 565.036H344.4V563.956H344.16V564.076C344.16 564.076 344.16 563.956 344.04 563.956H343.92C343.8 563.956 343.68 563.956 343.56 564.076L343.44 564.196V564.316 565.036H343.8V564.436 564.316L343.92 564.196C344.04 564.196 344.04 564.316 344.04 564.316H344.16V564.436 565.036Z" fill-rule="evenodd"/><path transform="matrix(1,0,0,-1,0,595.276)" d="M345.84 564.796C345.72 564.796 345.6 564.796 345.6 564.676V563.956H345.36V564.796H345.24C345.12 564.796 345 564.796 345 564.676V563.956H344.76V565.036H345C345 565.036 345.12 565.036 345.12 565.156H345.24C345.36 565.156 345.48 565.036 345.6 565.036 345.6 565.036 345.72 565.156 345.84 565.156 346.08 565.156 346.2 565.036 346.2 564.916L346.32 564.796V563.956H345.96V564.796H345.84Z" fill-rule="evenodd"/><path transform="matrix(1,0,0,-1,0,595.276)" d="M347.04 563.956C347.4 563.956 347.52 564.196 347.52 564.556 347.52 564.676 347.52 564.796 347.4 564.916 347.28 565.036 347.16 565.156 347.04 565.156 346.92 565.156 346.92 565.036 346.8 565.036V565.516H346.56V563.956H346.8V564.076C346.92 563.956 347.04 563.956 347.04 563.956ZM347.04 564.196C346.92 564.196 346.92 564.316 346.8 564.436V564.676C346.8 564.796 346.92 564.796 346.92 564.796H347.04C347.16 564.796 347.28 564.676 347.28 564.556 347.28 564.316 347.16 564.196 347.04 564.196Z" fill-rule="evenodd"/><path transform="matrix(1,0,0,-1,0,595.276)" d="M348.96 563.956V565.036H349.2 349.32C349.44 565.156 349.44 565.156 349.56 565.156V564.796C349.44 564.796 349.32 564.796 349.32 564.796 349.32 564.676 349.2 564.676 349.2 564.676V563.956H348.96Z" fill-rule="evenodd"/><path transform="matrix(1,0,0,-1,0,595.276)" d="M351.48 564.796C351.36 564.796 351.24 564.796 351.24 564.676V563.956H351V564.796C351 564.796 350.88 564.796 350.76 564.796 350.76 564.796 350.64 564.796 350.64 564.676V563.956H350.28V565.036H350.64L350.76 565.156H350.88C351 565.156 351.12 565.036 351.12 565.036 351.24 565.036 351.36 565.156 351.48 565.156 351.6 565.156 351.84 565.036 351.84 564.916V564.796 563.956H351.6V564.796H351.48Z" fill-rule="evenodd"/><path transform="matrix(1,0,0,-1,0,595.276)" stroke-width=".12" stroke-linecap="butt" stroke-miterlimit="10" stroke-linejoin="miter" fill="none" stroke="#000000" d="M352.5 564.5V564.5"/><path transform="matrix(1,0,0,-1,0,595.276)" d="M352.68 564.676V564.796C352.68 564.796 352.68 564.916 352.56 564.916L352.44 564.796H352.32L352.08 564.916C352.2 565.036 352.44 565.156 352.56 565.156 352.68 565.156 352.8 565.156 352.92 565.036 353.04 565.036 353.04 564.916 353.04 564.796V564.316 564.196H353.16L353.04 563.956C352.92 563.956 352.8 563.956 352.8 564.076 352.8 564.076 352.68 563.956 352.56 563.956 352.32 563.956 352.08 564.076 352.08 564.316 352.08 564.556 352.32 564.676 352.68 564.676ZM352.44 564.316V564.196H352.56C352.68 564.196 352.68 564.196 352.68 564.316V564.436C352.68 564.436 352.56 564.436 352.44 564.436V564.316Z" fill-rule="evenodd"/><path transform="matrix(1,0,0,-1,0,595.276)" d="M353.4 563.956V565.036H353.64 353.76C353.88 565.156 353.88 565.156 354 565.156V564.796C353.88 564.796 353.88 564.796 353.76 564.796 353.76 564.676 353.64 564.676 353.64 564.676V563.956H353.4Z" fill-rule="evenodd"/><path transform="matrix(1,0,0,-1,0,595.276)" d="M354.24 563.956V565.516H354.48V564.676L354.84 565.036H355.2L354.84 564.676 355.2 563.956H354.96L354.6 564.436 354.48 564.316V563.956Z" fill-rule="evenodd"/><path transform="matrix(1,0,0,-1,0,595.276)" d="M356.4 564.436C356.4 564.916 356.16 565.156 355.92 565.156 355.56 565.156 355.44 564.916 355.44 564.556 355.44 564.436 355.44 564.316 355.56 564.196 355.68 564.076 355.8 563.956 355.92 563.956 356.16 563.956 356.28 564.076 356.4 564.196L356.16 564.316C356.16 564.316 356.04 564.196 355.92 564.196 355.92 564.196 355.8 564.196 355.8 564.316H355.68V564.436H356.4ZM355.68 564.676V564.676C355.68 564.676 355.68 564.796 355.8 564.796 355.8 564.796 355.8 564.916 355.92 564.916 355.92 564.796 356.04 564.796 356.04 564.676H355.68Z" fill-rule="evenodd"/><path transform="matrix(1,0,0,-1,0,595.276)" d="M357.36 565.036V565.516H357.6V563.956H357.36V564.076C357.24 563.956 357.24 563.956 357.12 563.956 356.88 563.956 356.64 564.076 356.64 564.436V564.556 564.676C356.64 564.916 356.76 565.036 357 565.156 357.12 565.156 357.24 565.036 357.36 565.036ZM357.36 564.316V564.676 564.796H357.24 357.12C357 564.796 356.88 564.676 356.88 564.556 356.88 564.316 357 564.196 357.12 564.196 357.24 564.196 357.24 564.316 357.36 564.316Z" fill-rule="evenodd"/><path transform="matrix(1,0,0,-1,0,595.276)" d="M359.52 564.556C359.52 564.676 359.4 564.916 359.4 564.916 359.28 565.036 359.16 565.156 358.92 565.156 358.8 565.156 358.68 565.036 358.56 564.916 358.44 564.916 358.44 564.676 358.44 564.556 358.44 564.316 358.44 564.196 358.56 564.076 358.68 563.956 358.8 563.956 358.92 563.956 359.16 563.956 359.28 563.956 359.4 564.076 359.4 564.196 359.52 564.316 359.52 564.556ZM359.16 564.556C359.16 564.316 359.16 564.196 358.92 564.196L358.8 564.316C358.8 564.436 358.8 564.436 358.8 564.556 358.8 564.676 358.8 564.796 358.92 564.796 359.04 564.796 359.04 564.796 359.16 564.796 359.16 564.676 359.16 564.676 359.16 564.556Z" fill-rule="evenodd"/><path transform="matrix(1,0,0,-1,0,595.276)" d="M360.6 563.956V564.796C360.6 565.036 360.48 565.156 360.24 565.156H360.12L360 565.036H359.64V563.956H360V564.676C360 564.796 360.12 564.796 360.24 564.796 360.24 564.796 360.36 564.796 360.36 564.676V563.956H360.6Z" fill-rule="evenodd"/><path transform="matrix(1,0,0,-1,0,595.276)" d="M361.92 565.036H362.16V564.796H361.92V564.316C361.92 564.196 362.04 564.196 362.04 564.196H362.16L362.28 563.956C362.16 563.956 362.04 563.956 361.92 563.956 361.8 563.956 361.8 563.956 361.68 564.076L361.56 564.196V564.796H361.44V565.036H361.56V565.396L361.92 565.516V565.036Z" fill-rule="evenodd"/><path transform="matrix(1,0,0,-1,0,595.276)" d="M363 565.156C363.12 565.156 363.24 565.036 363.24 565.036 363.36 564.916 363.36 564.916 363.36 564.796V563.956H363.12V564.676C363.12 564.676 363.12 564.796 363 564.796H362.88 362.76V564.676 563.956H362.4V565.516H362.76V565.036 565.156C362.88 565.156 362.88 565.156 363 565.156Z" fill-rule="evenodd"/><path transform="matrix(1,0,0,-1,0,595.276)" d="M364.68 564.436C364.68 564.916 364.56 565.156 364.2 565.156 363.84 565.156 363.72 564.916 363.72 564.556 363.72 564.436 363.72 564.316 363.84 564.196 363.96 564.076 364.08 563.956 364.2 563.956 364.44 563.956 364.56 564.076 364.68 564.196L364.44 564.316C364.44 564.316 364.32 564.196 364.2 564.196 364.2 564.196 364.08 564.196 364.08 564.316H363.96V564.436H364.68ZM363.96 564.676V564.676C363.96 564.676 363.96 564.796 364.08 564.796 364.08 564.796 364.08 564.916 364.2 564.916 364.32 564.796 364.32 564.796 364.32 564.676H364.44 363.96Z" fill-rule="evenodd"/><path transform="matrix(1,0,0,-1,0,595.276)" d="M366.6 564.556C366.6 564.676 366.48 564.916 366.36 564.916 366.36 565.036 366.24 565.156 366 565.156 365.88 565.156 365.76 565.036 365.76 565.036H365.52V563.596H365.76V564.076C365.76 563.956 365.88 563.956 366 563.956 366.36 563.956 366.6 564.196 366.6 564.556ZM366 564.196C366 564.196 365.88 564.196 365.88 564.316 365.76 564.316 365.76 564.436 365.76 564.436V564.676C365.76 564.796 365.88 564.796 366 564.916 366.12 564.916 366.24 564.796 366.24 564.676V564.436C366.24 564.316 366.12 564.196 366 564.196Z" fill-rule="evenodd"/><path transform="matrix(1,0,0,-1,0,595.276)" d="M367.8 564.556C367.8 564.676 367.68 564.916 367.68 564.916 367.56 565.036 367.44 565.156 367.2 565.156 367.08 565.156 366.96 565.036 366.84 564.916 366.72 564.916 366.72 564.676 366.72 564.556 366.72 564.316 366.72 564.196 366.84 564.076 366.96 563.956 367.08 563.956 367.2 563.956 367.44 563.956 367.56 563.956 367.68 564.076 367.68 564.196 367.8 564.316 367.8 564.556ZM367.44 564.556C367.44 564.316 367.44 564.196 367.2 564.196L367.08 564.316C367.08 564.436 367.08 564.436 367.08 564.556 367.08 564.676 367.08 564.796 367.2 564.796 367.32 564.796 367.32 564.796 367.44 564.796 367.44 564.676 367.44 564.676 367.44 564.556Z" fill-rule="evenodd"/><path transform="matrix(1,0,0,-1,0,595.276)" d="M368.88 564.316C368.88 564.556 368.76 564.676 368.52 564.676 368.4 564.676 368.4 564.676 368.28 564.676V564.796C368.28 564.796 368.28 564.916 368.4 564.916 368.52 564.916 368.52 564.916 368.52 564.796H368.64L368.88 564.916C368.76 565.036 368.64 565.156 368.4 565.156 368.16 565.156 367.92 565.036 367.92 564.796 367.92 564.556 368.04 564.436 368.28 564.436 368.4 564.436 368.52 564.436 368.52 564.316V564.196H368.4C368.4 564.196 368.28 564.196 368.28 564.316 368.16 564.316 368.16 564.316 368.04 564.316L367.92 564.196C368.04 564.076 368.16 563.956 368.4 563.956 368.64 563.956 368.88 564.076 368.88 564.316Z" fill-rule="evenodd"/><path transform="matrix(1,0,0,-1,0,595.276)" d="M369.36 565.036H369.72V564.796H369.36V564.316H369.48V564.196H369.6 369.72V563.956C369.72 563.956 369.6 563.956 369.48 563.956 369.36 563.956 369.24 563.956 369.24 564.076 369.12 564.076 369.12 564.076 369.12 564.196V564.796H369V565.036H369.12V565.396L369.36 565.516V565.036Z" fill-rule="evenodd"/><path transform="matrix(1,0,0,-1,0,595.276)" d="M371.64 564.796C371.52 564.796 371.4 564.796 371.4 564.676V563.956H371.16V564.796H371.04C370.92 564.796 370.8 564.796 370.8 564.676V563.956H370.56V565.036H370.8C370.8 565.036 370.92 565.036 370.92 565.156H371.04C371.16 565.156 371.28 565.036 371.4 565.036 371.4 565.036 371.52 565.156 371.64 565.156 371.88 565.156 372 565.036 372 564.916V564.796H372.12V563.956H371.76V564.796H371.64Z" fill-rule="evenodd"/><path transform="matrix(1,0,0,-1,0,595.276)" d="M373.08 565.036H373.32V563.956H373.08V564.076L372.96 563.956C372.84 563.956 372.84 563.956 372.72 563.956 372.72 563.956 372.6 563.956 372.48 564.076 372.48 564.076 372.36 564.076 372.36 564.196V564.316 565.036H372.72V564.436 564.316L372.84 564.196 372.96 564.316H373.08V564.436 565.036Z" fill-rule="evenodd"/><path transform="matrix(1,0,0,-1,0,595.276)" d="M374.52 564.316C374.52 564.556 374.4 564.676 374.16 564.676H374.04C373.92 564.676 373.92 564.796 373.92 564.796 373.92 564.796 373.92 564.916 374.04 564.916 374.16 564.916 374.16 564.916 374.16 564.796H374.28L374.52 564.916C374.4 565.036 374.28 565.156 374.04 565.156 373.8 565.156 373.68 565.036 373.68 564.796 373.68 564.556 373.8 564.436 373.92 564.436 374.16 564.436 374.16 564.436 374.16 564.316V564.196H374.04C374.04 564.196 373.92 564.196 373.92 564.316H373.8L373.56 564.196C373.68 564.076 373.8 563.956 374.04 563.956 374.28 563.956 374.52 564.076 374.52 564.316Z" fill-rule="evenodd"/><path transform="matrix(1,0,0,-1,0,595.276)" d="M375.12 565.036H375.36V564.796H375.12V564.316C375.12 564.196 375.12 564.196 375.24 564.196H375.36V563.956C375.36 563.956 375.24 563.956 375.12 563.956 375 563.956 374.88 563.956 374.88 564.076 374.88 564.076 374.76 564.076 374.76 564.196V564.796H374.64V565.036H374.76V565.396L375.12 565.516V565.036Z" fill-rule="evenodd"/><path transform="matrix(1,0,0,-1,0,595.276)" d="M376.68 563.956C376.92 563.956 377.16 564.196 377.16 564.556 377.16 564.676 377.04 564.796 377.04 564.916 376.92 565.036 376.8 565.156 376.68 565.156 376.56 565.156 376.44 565.036 376.44 565.036V565.516H376.2V563.956H376.44V564.076C376.56 563.956 376.56 563.956 376.68 563.956ZM376.68 564.196C376.56 564.196 376.44 564.316 376.44 564.436V564.676C376.44 564.796 376.56 564.796 376.56 564.796H376.68C376.8 564.796 376.92 564.676 376.92 564.556 376.8 564.316 376.8 564.196 376.68 564.196Z" fill-rule="evenodd"/><path transform="matrix(1,0,0,-1,0,595.276)" d="M378.24 564.436C378.24 564.916 378.12 565.156 377.76 565.156 377.52 565.156 377.28 564.916 377.28 564.556 377.28 564.436 377.28 564.316 377.4 564.196 377.52 564.076 377.64 563.956 377.88 563.956 378 563.956 378.24 564.076 378.24 564.196L378.12 564.316C378 564.316 377.88 564.196 377.88 564.196 377.76 564.196 377.76 564.196 377.64 564.316V564.436H378.24ZM377.52 564.676V564.676C377.64 564.676 377.64 564.796 377.64 564.796L377.76 564.916C377.88 564.796 378 564.796 378 564.676H377.52Z" fill-rule="evenodd"/><path transform="matrix(1,0,0,-1,0,595.276)" d="M380.04 563.956V565.036H379.8C379.8 565.036 379.68 565.156 379.56 565.156 379.2 565.156 379.08 564.916 379.08 564.556 379.08 564.196 379.2 564.076 379.56 564.076H379.68C379.68 563.956 379.68 563.956 379.56 563.836 379.56 563.836 379.44 563.836 379.44 563.956 379.32 563.956 379.2 563.956 379.2 563.956L379.08 563.716C379.2 563.716 379.32 563.596 379.56 563.596 379.8 563.596 380.04 563.716 380.04 563.956ZM379.68 564.676V564.436 564.316H379.56C379.44 564.316 379.32 564.436 379.32 564.556 379.32 564.676 379.44 564.796 379.56 564.796 379.68 564.796 379.68 564.796 379.68 564.676Z" fill-rule="evenodd"/><path transform="matrix(1,0,0,-1,0,595.276)" d="M380.64 563.956V565.036H380.4V563.956Z" fill-rule="evenodd"/><path transform="matrix(1,0,0,-1,0,595.276)" d="M380.76 565.396C380.76 565.396 380.64 565.516 380.52 565.516 380.4 565.516 380.4 565.396 380.4 565.396 380.4 565.276 380.4 565.156 380.52 565.156 380.64 565.156 380.76 565.276 380.76 565.396Z" fill-rule="evenodd"/><path transform="matrix(1,0,0,-1,0,595.276)" d="M381.24 563.956 380.88 565.036H381.12L381.36 564.316 381.6 565.036H381.96L381.6 563.956H381.36Z" fill-rule="evenodd"/><path transform="matrix(1,0,0,-1,0,595.276)" d="M383.04 564.436C383.04 564.916 382.8 565.156 382.56 565.156 382.2 565.156 382.08 564.916 382.08 564.556 382.08 564.436 382.08 564.316 382.2 564.196 382.2 564.076 382.44 563.956 382.56 563.956 382.8 563.956 382.92 564.076 383.04 564.196L382.8 564.316C382.8 564.316 382.68 564.196 382.56 564.196 382.56 564.196 382.44 564.196 382.44 564.316H382.32V564.436H383.04ZM382.32 564.676V564.676C382.32 564.676 382.32 564.796 382.44 564.796 382.44 564.796 382.44 564.916 382.56 564.916 382.56 564.796 382.68 564.796 382.68 564.676H382.32Z" fill-rule="evenodd"/><path transform="matrix(1,0,0,-1,0,595.276)" d="M384.24 563.956V564.796C384.24 565.036 384.12 565.156 383.88 565.156 383.76 565.156 383.76 565.156 383.64 565.156 383.64 565.036 383.64 565.036 383.52 565.036H383.28V563.956H383.52V564.676C383.64 564.796 383.64 564.796 383.76 564.796 383.88 564.796 383.88 564.796 384 564.676V563.956H384.24Z" fill-rule="evenodd"/><path transform="matrix(1,0,0,-1,0,595.276)" d="M339.12 569.836C339.36 569.836 339.48 569.716 339.6 569.596 339.72 569.476 339.84 569.236 339.84 568.996 339.84 568.756 339.72 568.516 339.6 568.396 339.48 568.276 339.36 568.156 339.12 568.156 338.88 568.156 338.76 568.276 338.64 568.396 338.52 568.516 338.4 568.756 338.4 568.996 338.4 569.236 338.52 569.476 338.64 569.596 338.76 569.716 338.88 569.836 339.12 569.836ZM339.48 568.996C339.48 569.236 339.36 569.476 339.12 569.476 339 569.476 338.88 569.476 338.88 569.356 338.76 569.236 338.76 569.116 338.76 568.996 338.76 568.756 338.88 568.516 339.12 568.516 339.24 568.516 339.36 568.516 339.36 568.636 339.48 568.756 339.48 568.876 339.48 568.996Z" fill-rule="evenodd"/><path transform="matrix(1,0,0,-1,0,595.276)" d="M341.16 568.756C341.16 568.996 341.16 569.116 341.04 569.236 340.92 569.356 340.8 569.356 340.68 569.356 340.56 569.356 340.44 569.356 340.32 569.236V569.356H340.08V567.916H340.44V568.276C340.44 568.276 340.56 568.156 340.68 568.156 340.92 568.156 341.16 568.396 341.16 568.756ZM340.56 568.516H340.44V568.636 568.996C340.44 568.996 340.44 569.116 340.56 569.116 340.68 569.116 340.8 569.116 340.8 568.996V568.876 568.636C340.8 568.516 340.68 568.516 340.56 568.516Z" fill-rule="evenodd"/><path transform="matrix(1,0,0,-1,0,595.276)" d="M342.36 568.636C342.36 569.116 342.12 569.356 341.76 569.356 341.52 569.356 341.4 569.236 341.28 568.756 341.28 568.636 341.4 568.516 341.4 568.396 341.52 568.276 341.76 568.156 341.88 568.156 342 568.156 342.24 568.276 342.24 568.396L342.12 568.636C342.12 568.516 342 568.516 341.88 568.516H341.76C341.64 568.516 341.64 568.636 341.64 568.636H342.36ZM341.64 568.876V568.876 568.996C341.76 569.116 341.76 569.116 341.88 569.116L342 568.996V568.876H341.64Z" fill-rule="evenodd"/><path transform="matrix(1,0,0,-1,0,595.276)" d="M342.6 568.276V569.356H342.84V569.236L342.96 569.356C343.08 569.356 343.08 569.356 343.2 569.356V569.116C343.08 569.116 343.08 568.996 342.96 568.996 342.96 568.996 342.84 568.996 342.84 568.876V568.276H342.6Z" fill-rule="evenodd"/><path transform="matrix(1,0,0,-1,0,595.276)" stroke-width=".12" stroke-linecap="butt" stroke-miterlimit="10" stroke-linejoin="miter" fill="none" stroke="#000000" d="M344.5 568.5V568.5"/><path transform="matrix(1,0,0,-1,0,595.276)" d="M344.04 568.996V568.996L343.92 569.116H343.8 343.68C343.56 569.116 343.56 568.996 343.56 568.996L343.44 569.236C343.44 569.356 343.68 569.356 343.8 569.356 344.04 569.356 344.04 569.356 344.16 569.356 344.28 569.236 344.28 569.116 344.28 569.116V568.516L344.4 568.396 344.28 568.276C344.16 568.156 344.04 568.276 344.04 568.276 344.04 568.276 343.92 568.156 343.8 568.156 343.56 568.156 343.32 568.396 343.32 568.636 343.32 568.876 343.56 568.996 344.04 568.996ZM343.68 568.636V568.516H343.8C343.92 568.516 343.92 568.516 344.04 568.516V568.756C343.92 568.756 343.8 568.756 343.8 568.636H343.68Z" fill-rule="evenodd"/><path transform="matrix(1,0,0,-1,0,595.276)" d="M345 569.356H345.24V569.116H345V568.636 568.516H345.12 345.24L345.36 568.276C345.24 568.276 345.12 568.156 345 568.156 344.88 568.156 344.88 568.276 344.76 568.276 344.76 568.276 344.76 568.396 344.76 568.516V569.116H344.52V569.356H344.76V569.716H345V569.356Z" fill-rule="evenodd"/><path transform="matrix(1,0,0,-1,0,595.276)" d="M351.96 568.756C351.96 568.996 351.96 569.116 351.84 569.236 351.72 569.356 351.6 569.356 351.48 569.356 351.24 569.356 351.12 569.356 351 569.236 351 569.116 350.88 568.996 350.88 568.756 350.88 568.636 351 568.516 351 568.396 351.12 568.276 351.24 568.156 351.48 568.156 351.6 568.156 351.72 568.276 351.84 568.396 351.96 568.516 351.96 568.636 351.96 568.756ZM351.6 568.756C351.6 568.636 351.6 568.516 351.48 568.516 351.36 568.516 351.36 568.516 351.24 568.636V568.756C351.24 568.996 351.24 569.116 351.48 569.116L351.6 568.996C351.6 568.996 351.6 568.876 351.6 568.756Z" fill-rule="evenodd"/><path transform="matrix(1,0,0,-1,0,595.276)" d="M353.28 569.116C353.16 569.116 353.04 568.996 353.04 568.876V568.276H352.8V568.996C352.8 568.996 352.68 569.116 352.56 569.116 352.56 569.116 352.44 568.996 352.44 568.876V568.276H352.08V569.356H352.44V569.236C352.44 569.356 352.44 569.356 352.56 569.356H352.68C352.8 569.356 352.92 569.356 352.92 569.236 353.04 569.356 353.16 569.356 353.28 569.356 353.52 569.356 353.64 569.236 353.64 569.116V568.996 568.276H353.4V568.996L353.28 569.116Z" fill-rule="evenodd"/><path transform="matrix(1,0,0,-1,0,595.276)" d="M350.16 568.276V569.356H350.4V569.236C350.4 569.236 350.4 569.356 350.52 569.356 350.52 569.356 350.64 569.356 350.76 569.356V569.116C350.64 569.116 350.52 568.996 350.52 568.996 350.4 568.996 350.4 568.996 350.4 568.876V568.276H350.16Z" fill-rule="evenodd"/><path transform="matrix(1,0,0,-1,0,595.276)" d="M349.56 568.276V569.116H349.8V569.356H349.56V569.476H349.68 349.8L349.92 569.716C349.8 569.716 349.8 569.716 349.68 569.716 349.56 569.716 349.44 569.716 349.44 569.716 349.32 569.716 349.32 569.596 349.32 569.476V569.356H349.2V569.116H349.32V568.276H349.56Z" fill-rule="evenodd"/><path transform="matrix(1,0,0,-1,0,595.276)" d="M345.84 568.276V569.356H345.6V568.276Z" fill-rule="evenodd"/><path transform="matrix(1,0,0,-1,0,595.276)" d="M345.84 569.596C345.84 569.716 345.84 569.716 345.72 569.716 345.6 569.716 345.6 569.716 345.6 569.596 345.6 569.476 345.6 569.476 345.72 569.476 345.84 569.476 345.84 569.476 345.84 569.596Z" fill-rule="evenodd"/><path transform="matrix(1,0,0,-1,0,595.276)" d="M347.04 568.276V568.996C347.04 569.236 346.92 569.356 346.68 569.356H346.56C346.44 569.356 346.44 569.356 346.44 569.236V569.356H346.08V568.276H346.44V568.876C346.44 568.996 346.56 569.116 346.68 569.116 346.68 569.116 346.8 568.996 346.8 568.876V568.276H347.04Z" fill-rule="evenodd"/><path transform="matrix(1,0,0,-1,0,595.276)" d="M348.36 568.156V569.356H348V569.236C348 569.356 347.88 569.356 347.76 569.356 347.52 569.356 347.28 569.116 347.28 568.756 347.4 568.516 347.52 568.276 347.76 568.276 347.88 568.276 347.88 568.276 348 568.276V568.396 568.276C348 568.156 348 568.156 347.88 568.156 347.88 568.156 347.76 568.156 347.64 568.156 347.64 568.156 347.52 568.156 347.52 568.276L347.28 568.036C347.4 567.916 347.64 567.916 347.88 567.796 348.12 567.796 348.36 568.036 348.36 568.156ZM348 568.876V568.636C348 568.516 347.88 568.516 347.88 568.516 347.76 568.516 347.64 568.636 347.64 568.876 347.64 568.996 347.76 569.116 347.88 569.116 348 569.116 348 568.996 348 568.876Z" fill-rule="evenodd"/><path transform="matrix(1,0,0,-1,0,595.276)" d="M355.2 568.156C355.44 568.156 355.8 568.396 355.8 568.756 355.8 568.876 355.68 568.996 355.56 568.996 355.68 569.116 355.68 569.236 355.68 569.356 355.68 569.596 355.56 569.836 355.2 569.836 354.84 569.836 354.6 569.596 354.6 569.356 354.6 569.236 354.72 569.116 354.72 568.996 354.6 568.996 354.6 568.876 354.6 568.756 354.6 568.516 354.6 568.396 354.72 568.396 354.84 568.276 354.96 568.156 355.2 568.156ZM355.2 568.876C355.32 568.876 355.44 568.876 355.44 568.636 355.44 568.516 355.32 568.516 355.2 568.516 354.96 568.516 354.96 568.516 354.96 568.636 354.96 568.876 354.96 568.876 355.2 568.876ZM355.32 569.356C355.32 569.236 355.32 569.236 355.2 569.236 354.96 569.236 354.96 569.236 354.96 569.356V569.476C355.08 569.476 355.08 569.476 355.2 569.476H355.32V569.356Z" fill-rule="evenodd"/><path transform="matrix(1,0,0,-1,0,595.276)" stroke-width=".12" stroke-linecap="butt" stroke-miterlimit="10" stroke-linejoin="miter" fill="none" stroke="#000000" d="M357.5 568.5V568.5"/><path transform="matrix(1,0,0,-1,0,595.276)" d="M357.12 568.996V568.996 569.116H357 356.88C356.76 569.116 356.76 568.996 356.76 568.996L356.52 569.236C356.64 569.356 356.88 569.356 357 569.356 357.12 569.356 357.24 569.356 357.36 569.356 357.36 569.236 357.48 569.116 357.48 569.116V568.516C357.48 568.396 357.6 568.396 357.6 568.396L357.48 568.276C357.36 568.156 357.24 568.276 357.24 568.276 357.24 568.276 357.12 568.156 357 568.156 356.64 568.156 356.52 568.396 356.52 568.636 356.52 568.876 356.76 568.996 357.12 568.996ZM356.88 568.636V568.516H357 357.12V568.756C357 568.756 357 568.756 356.88 568.636Z" fill-rule="evenodd"/><path transform="matrix(1,0,0,-1,0,595.276)" d="M358.92 569.116C358.8 569.116 358.68 568.996 358.68 568.876V568.276H358.44V568.996L358.32 569.116C358.2 569.116 358.08 568.996 358.08 568.876V568.276H357.84V569.356H358.08V569.236C358.08 569.356 358.2 569.356 358.2 569.356H358.32C358.44 569.356 358.56 569.356 358.68 569.236 358.68 569.356 358.8 569.356 358.92 569.356 359.16 569.356 359.28 569.236 359.28 569.116 359.4 569.116 359.4 568.996 359.4 568.996V568.276H359.04V568.996C359.04 569.116 358.92 569.116 358.92 569.116Z" fill-rule="evenodd"/><path transform="matrix(1,0,0,-1,0,595.276)" d="M360.6 569.356H360.84V569.116H360.6V568.636 568.516H360.72 360.84L360.96 568.276C360.84 568.276 360.72 568.156 360.6 568.156 360.48 568.156 360.48 568.276 360.36 568.276 360.36 568.276 360.36 568.396 360.36 568.516V569.116H360.12V569.356H360.36V569.716H360.6V569.356Z" fill-rule="evenodd"/><path transform="matrix(1,0,0,-1,0,595.276)" d="M362.16 568.756C362.16 568.996 362.16 569.116 362.04 569.236 361.92 569.356 361.8 569.356 361.68 569.356 361.44 569.356 361.32 569.356 361.2 569.236 361.2 569.116 361.08 568.996 361.08 568.756 361.08 568.636 361.2 568.516 361.2 568.396 361.32 568.276 361.44 568.156 361.68 568.156 361.8 568.156 361.92 568.276 362.04 568.396 362.16 568.516 362.16 568.636 362.16 568.756ZM361.8 568.756C361.8 568.636 361.8 568.516 361.68 568.516 361.56 568.516 361.56 568.516 361.44 568.636V568.756C361.44 568.996 361.44 569.116 361.68 569.116L361.8 568.996C361.8 568.996 361.8 568.876 361.8 568.756Z" fill-rule="evenodd"/><path transform="matrix(1,0,0,-1,0,595.276)" d="M363.72 568.636 363.36 569.236V568.276H363V569.716H363.36L363.72 569.236 364.2 569.716H364.56V568.276H364.2V569.236Z" fill-rule="evenodd"/><path transform="matrix(1,0,0,-1,0,595.276)" d="M365.16 568.276V569.356H364.92V568.276Z" fill-rule="evenodd"/><path transform="matrix(1,0,0,-1,0,595.276)" d="M365.28 569.596C365.28 569.716 365.16 569.716 365.04 569.716 364.92 569.716 364.92 569.716 364.92 569.596 364.92 569.476 364.92 569.476 365.04 569.476 365.16 569.476 365.28 569.476 365.28 569.596Z" fill-rule="evenodd"/><path transform="matrix(1,0,0,-1,0,595.276)" d="M366.12 569.236V569.716H366.48V568.276H366.12C366.12 568.276 366 568.156 365.88 568.156 365.64 568.156 365.4 568.396 365.4 568.756V568.876C365.4 569.236 365.64 569.356 365.88 569.356 366 569.356 366 569.356 366.12 569.236ZM366.12 568.636V568.876 568.996L366 569.116C365.76 569.116 365.76 568.996 365.64 568.756 365.64 568.636 365.76 568.516 365.88 568.516 366 568.516 366.12 568.516 366.12 568.636Z" fill-rule="evenodd"/><path transform="matrix(1,0,0,-1,0,595.276)" d="M367.68 568.276V568.996C367.68 569.236 367.56 569.356 367.32 569.356 367.2 569.356 367.2 569.356 367.08 569.356V569.236 569.356H366.72V568.276H367.08V568.876C367.08 568.996 367.08 569.116 367.2 569.116 367.32 569.116 367.44 568.996 367.44 568.876V568.276H367.68Z" fill-rule="evenodd"/><path transform="matrix(1,0,0,-1,0,595.276)" d="M368.28 568.276V569.356H368.04V568.276Z" fill-rule="evenodd"/><path transform="matrix(1,0,0,-1,0,595.276)" d="M368.4 569.596C368.4 569.716 368.28 569.716 368.16 569.716 368.04 569.716 368.04 569.716 368.04 569.596 368.04 569.476 368.04 569.476 368.16 569.476 368.28 569.476 368.4 569.476 368.4 569.596Z" fill-rule="evenodd"/><path transform="matrix(1,0,0,-1,0,595.276)" d="M369.48 568.156V569.356H369.24V569.236C369.24 569.356 369.12 569.356 369 569.356 368.64 569.356 368.52 569.116 368.52 568.756 368.52 568.516 368.76 568.276 369 568.276H369.12L369.24 568.396V568.276C369.24 568.156 369.12 568.156 369 568.156H368.88C368.76 568.156 368.76 568.156 368.64 568.276L368.52 568.036C368.64 567.916 368.88 567.916 369 567.796 369.36 567.796 369.48 568.036 369.48 568.156ZM369.24 568.876V568.636H369.12C369.12 568.516 369.12 568.516 369 568.516 368.88 568.516 368.76 568.636 368.76 568.876 368.76 568.996 368.88 569.116 369 569.116 369.12 569.116 369.24 568.996 369.24 568.876Z" fill-rule="evenodd"/><path transform="matrix(1,0,0,-1,0,595.276)" d="M370.44 569.356C370.44 569.356 370.56 569.356 370.68 569.236 370.8 569.236 370.8 569.116 370.8 568.996V568.276H370.56V568.996H370.44C370.44 569.116 370.32 569.116 370.32 569.116 370.32 569.116 370.2 569.116 370.2 568.996L370.08 568.876V568.276H369.84V569.716H370.08V569.236C370.08 569.356 370.2 569.356 370.2 569.356 370.32 569.356 370.32 569.356 370.44 569.356Z" fill-rule="evenodd"/><path transform="matrix(1,0,0,-1,0,595.276)" d="M371.52 569.356H371.76V569.116H371.52V568.636 568.516H371.64 371.76L371.88 568.276C371.76 568.276 371.64 568.156 371.52 568.156 371.4 568.156 371.4 568.276 371.28 568.276 371.28 568.276 371.28 568.396 371.16 568.516V569.116H371.04V569.356H371.16V569.716H371.52V569.356Z" fill-rule="evenodd"/><path transform="matrix(1,0,0,-1,0,595.276)" d="M373.32 569.236V569.716H373.56V568.276H373.32C373.32 568.276 373.2 568.156 373.08 568.156 372.84 568.156 372.6 568.396 372.6 568.756V568.876C372.6 569.236 372.84 569.356 373.08 569.356 373.08 569.356 373.2 569.356 373.32 569.236ZM373.32 568.636V568.876 568.996C373.2 568.996 373.2 569.116 373.08 569.116 372.96 569.116 372.84 568.996 372.84 568.756 372.84 568.636 372.96 568.516 373.08 568.516 373.2 568.516 373.32 568.516 373.32 568.636Z" fill-rule="evenodd"/><path transform="matrix(1,0,0,-1,0,595.276)" stroke-width=".12" stroke-linecap="butt" stroke-miterlimit="10" stroke-linejoin="miter" fill="none" stroke="#000000" d="M374.5 568.5V568.5"/><path transform="matrix(1,0,0,-1,0,595.276)" d="M374.4 568.996V568.996 569.116H374.28 374.16C374.04 569.116 374.04 568.996 374.04 568.996L373.8 569.236C373.92 569.356 374.16 569.356 374.28 569.356 374.4 569.356 374.52 569.356 374.64 569.356 374.76 569.236 374.76 569.116 374.76 569.116V568.516C374.76 568.396 374.88 568.396 374.88 568.396L374.76 568.276C374.64 568.156 374.52 568.276 374.52 568.276 374.52 568.276 374.4 568.156 374.28 568.156 373.92 568.156 373.8 568.396 373.8 568.636 373.8 568.876 374.04 568.996 374.4 568.996ZM374.16 568.636V568.516H374.28 374.4V568.756C374.4 568.756 374.28 568.756 374.16 568.636Z" fill-rule="evenodd"/><path transform="matrix(1,0,0,-1,0,595.276)" d="M375.36 568.276V569.356H375.12V568.276Z" fill-rule="evenodd"/><path transform="matrix(1,0,0,-1,0,595.276)" d="M375.48 569.596C375.48 569.716 375.36 569.716 375.24 569.716 375.12 569.716 375.12 569.716 375.12 569.596 375.12 569.476 375.12 569.476 375.24 569.476 375.36 569.476 375.48 569.476 375.48 569.596Z" fill-rule="evenodd"/><path transform="matrix(1,0,0,-1,0,595.276)" d="M375.96 569.716V568.636 568.516H376.08L376.2 568.276H376.08 375.96C375.84 568.276 375.72 568.276 375.6 568.396V568.516 569.716H375.96Z" fill-rule="evenodd"/><path transform="matrix(1,0,0,-1,0,595.276)" d="M377.28 569.356H376.92L376.68 568.636 376.56 569.356H376.2L376.56 568.396V568.276 568.156H376.44 376.32V567.916C376.44 567.916 376.56 567.916 376.68 567.916H376.8V568.036L377.28 569.356Z" fill-rule="evenodd"/><path transform="matrix(1,0,0,-1,0,595.276)" d="M348.12 571.396H347.4V571.156H348.12Z" fill-rule="evenodd"/><path transform="matrix(1,0,0,-1,0,595.276)" d="M337.92 566.116V567.676H337.68V566.116Z" fill-rule="evenodd"/><path transform="matrix(1,0,0,-1,0,595.276)" d="M339.24 566.116V566.836C339.24 567.076 339 567.196 338.76 567.196H338.64 338.52 338.28V566.116H338.52V566.836C338.52 566.956 338.64 566.956 338.76 566.956 338.88 566.956 338.88 566.956 338.88 566.836V566.716 566.116H339.24Z" fill-rule="evenodd"/><path transform="matrix(1,0,0,-1,0,595.276)" d="M340.56 567.196C340.68 567.196 340.8 567.196 340.8 567.196 340.92 567.076 340.92 567.076 341.04 566.956L340.8 566.836C340.68 566.956 340.68 566.956 340.56 566.956 340.44 566.956 340.32 566.836 340.32 566.716V566.596C340.32 566.476 340.44 566.356 340.56 566.356H340.68C340.68 566.476 340.8 566.476 340.8 566.596L341.04 566.476C340.92 566.236 340.8 566.116 340.56 566.116 340.2 566.116 340.08 566.236 339.96 566.716 340.08 567.076 340.2 567.196 340.56 567.196Z" fill-rule="evenodd"/><path transform="matrix(1,0,0,-1,0,595.276)" stroke-width=".12" stroke-linecap="butt" stroke-miterlimit="10" stroke-linejoin="miter" fill="none" stroke="#000000" d="M341.5 566.5V566.5"/><path transform="matrix(1,0,0,-1,0,595.276)" d="M341.76 566.836V566.836 566.956H341.64 341.52C341.4 566.956 341.4 566.956 341.28 566.836L341.16 567.076C341.28 567.196 341.52 567.196 341.64 567.196 341.76 567.196 341.88 567.196 342 567.196 342 567.076 342.12 567.076 342.12 566.956V566.356H342.24L342.12 566.116C342 566.116 341.88 566.116 341.88 566.236 341.88 566.116 341.76 566.116 341.64 566.116 341.52 566.116 341.4 566.116 341.28 566.236 341.16 566.236 341.16 566.356 341.16 566.476 341.16 566.596 341.28 566.716 341.28 566.716 341.4 566.836 341.64 566.836 341.76 566.836ZM341.52 566.476V566.356H341.64 341.76V566.596C341.64 566.596 341.64 566.596 341.52 566.596V566.476Z" fill-rule="evenodd"/><path transform="matrix(1,0,0,-1,0,595.276)" d="M343.32 566.476C343.32 566.716 343.2 566.836 342.96 566.836 342.84 566.836 342.72 566.836 342.72 566.836V566.956H342.84 342.96C342.96 566.956 343.08 566.956 343.08 566.836L343.2 567.076C343.2 567.196 343.08 567.316 342.84 567.316 342.6 567.316 342.36 567.076 342.36 566.836 342.36 566.716 342.48 566.596 342.72 566.596 342.84 566.596 342.96 566.476 342.96 566.476V566.356H342.84C342.72 566.356 342.72 566.356 342.6 566.356 342.6 566.476 342.6 566.476 342.48 566.476L342.36 566.356C342.48 566.116 342.6 566.116 342.84 566.116 343.08 566.116 343.32 566.236 343.32 566.476Z" fill-rule="evenodd"/><path transform="matrix(1,0,0,-1,0,595.276)" d="M344.4 566.596C344.4 566.956 344.28 567.196 343.92 567.196 343.68 567.196 343.44 567.076 343.44 566.716 343.44 566.476 343.44 566.356 343.56 566.236 343.68 566.116 343.8 566.116 344.04 566.116 344.16 566.116 344.4 566.116 344.4 566.236L344.28 566.476C344.16 566.356 344.04 566.356 344.04 566.356 343.92 566.356 343.92 566.356 343.8 566.356V566.476 566.596H344.4ZM343.8 566.836V566.836 566.956H343.92C344.04 566.956 344.16 566.956 344.16 566.836H343.8Z" fill-rule="evenodd"/><path transform="matrix(1,0,0,-1,0,595.276)" d="M346.2 566.716C346.2 566.836 346.2 566.956 346.08 567.076 345.96 567.196 345.84 567.196 345.72 567.196 345.6 567.196 345.36 567.196 345.36 567.076 345.24 566.956 345.12 566.836 345.12 566.716 345.12 566.476 345.24 566.356 345.36 566.236 345.36 566.116 345.6 566.116 345.72 566.116 345.84 566.116 345.96 566.116 346.08 566.236 346.2 566.356 346.2 566.476 346.2 566.716ZM345.96 566.716C345.96 566.476 345.84 566.356 345.72 566.356 345.6 566.356 345.6 566.356 345.6 566.476 345.48 566.476 345.48 566.596 345.48 566.716 345.48 566.836 345.6 566.956 345.72 566.956 345.72 566.956 345.84 566.956 345.84 566.836 345.96 566.836 345.96 566.716 345.96 566.716Z" fill-rule="evenodd"/><path transform="matrix(1,0,0,-1,0,595.276)" d="M346.8 566.116V566.956H347.04V567.196H346.8V567.316 567.436H346.92C347.04 567.436 347.04 567.436 347.04 567.316V567.556C347.04 567.676 346.92 567.676 346.92 567.676 346.8 567.676 346.68 567.676 346.68 567.556 346.56 567.556 346.56 567.436 346.56 567.436V567.196H346.32V566.956H346.56V566.116H346.8Z" fill-rule="evenodd"/><path transform="matrix(1,0,0,-1,0,595.276)" d="M348.84 566.956 348.72 566.836V566.116H348.36V566.836C348.36 566.956 348.36 566.956 348.24 566.956 348.12 566.956 348.12 566.836 348.12 566.836V566.116H347.76V567.196H348.12 348.24 348.36C348.48 567.196 348.6 567.196 348.6 567.076 348.72 567.196 348.84 567.196 348.96 567.196 349.08 567.196 349.2 567.196 349.32 566.956V566.116H349.08V566.836 566.956H348.96 348.84Z" fill-rule="evenodd"/><path transform="matrix(1,0,0,-1,0,595.276)" d="M350.64 566.596C350.64 566.956 350.4 567.196 350.16 567.196 349.8 567.196 349.68 567.076 349.56 566.716 349.56 566.476 349.68 566.356 349.68 566.236 349.8 566.116 350.04 566.116 350.16 566.116 350.28 566.116 350.52 566.116 350.52 566.236L350.4 566.476C350.4 566.356 350.28 566.356 350.16 566.356H350.04L349.92 566.476V566.596H350.64ZM349.92 566.836V566.836L350.04 566.956H350.16C350.16 566.956 350.28 566.956 350.28 566.836H349.92Z" fill-rule="evenodd"/><path transform="matrix(1,0,0,-1,0,595.276)" d="M351.24 567.196H351.48V566.956H351.24V566.476 566.356H351.36 351.48L351.6 566.116C351.48 566.116 351.36 566.116 351.24 566.116 351.12 566.116 351.12 566.116 351 566.116 351 566.236 351 566.236 351 566.356V566.956H350.76V567.196H351V567.556L351.24 567.676V567.196Z" fill-rule="evenodd"/><path transform="matrix(1,0,0,-1,0,595.276)" d="M352.68 566.596C352.68 566.956 352.56 567.196 352.2 567.196 351.96 567.196 351.72 567.076 351.72 566.716 351.72 566.476 351.72 566.356 351.84 566.236 351.96 566.116 352.08 566.116 352.32 566.116 352.44 566.116 352.68 566.116 352.68 566.236L352.56 566.476C352.44 566.356 352.32 566.356 352.32 566.356 352.2 566.356 352.2 566.356 352.08 566.356V566.476 566.596H352.68ZM352.08 566.836V566.836 566.956H352.2C352.32 566.956 352.44 566.956 352.44 566.836H352.08Z" fill-rule="evenodd"/><path transform="matrix(1,0,0,-1,0,595.276)" d="M352.92 566.116V567.196H353.28V567.076C353.28 567.196 353.28 567.196 353.4 567.196 353.4 567.196 353.52 567.196 353.64 567.196V566.956C353.52 566.956 353.4 566.956 353.4 566.836 353.28 566.836 353.28 566.836 353.28 566.716V566.116H352.92Z" fill-rule="evenodd"/><path transform="matrix(1,0,0,-1,0,595.276)" d="M355.08 567.196V567.676H355.32V566.116H355.08C355.08 566.116 354.96 566.116 354.84 566.116 354.6 566.116 354.36 566.236 354.36 566.596V566.716C354.36 567.076 354.6 567.196 354.84 567.196 354.84 567.196 354.96 567.196 355.08 567.196ZM355.08 566.476V566.716 566.836C354.96 566.956 354.96 566.956 354.84 566.956 354.72 566.956 354.6 566.836 354.6 566.716 354.6 566.476 354.72 566.356 354.84 566.356 354.96 566.356 355.08 566.356 355.08 566.476Z" fill-rule="evenodd"/><path transform="matrix(1,0,0,-1,0,595.276)" d="M356.64 566.596C356.64 566.956 356.52 567.196 356.16 567.196 355.8 567.196 355.68 567.076 355.68 566.716 355.68 566.476 355.68 566.356 355.8 566.236 355.92 566.116 356.04 566.116 356.16 566.116 356.4 566.116 356.52 566.116 356.64 566.236L356.4 566.476C356.4 566.356 356.28 566.356 356.16 566.356H356.04C356.04 566.476 355.92 566.476 355.92 566.476V566.596H356.64ZM355.92 566.836V566.836L356.04 566.956H356.16C356.28 566.956 356.28 566.956 356.28 566.836H355.92Z" fill-rule="evenodd"/><path transform="matrix(1,0,0,-1,0,595.276)" d="M357.24 566.116V566.956H357.48V567.196H357.24V567.316 567.436H357.36C357.36 567.436 357.48 567.436 357.48 567.316V567.556C357.48 567.676 357.36 567.676 357.36 567.676 357.24 567.676 357.12 567.676 357 567.556V567.436 567.196H356.76V566.956H357V566.116H357.24Z" fill-rule="evenodd"/><path transform="matrix(1,0,0,-1,0,595.276)" d="M358.68 566.596C358.68 566.956 358.56 567.196 358.2 567.196 357.84 567.196 357.72 567.076 357.72 566.716 357.72 566.476 357.72 566.356 357.84 566.236 357.96 566.116 358.08 566.116 358.2 566.116 358.44 566.116 358.56 566.116 358.68 566.236L358.44 566.476C358.44 566.356 358.32 566.356 358.2 566.356H358.08V566.476C357.96 566.476 357.96 566.476 357.96 566.596H358.68ZM357.96 566.836V566.836L358.08 566.956H358.2C358.32 566.956 358.32 566.956 358.44 566.836H357.96Z" fill-rule="evenodd"/><path transform="matrix(1,0,0,-1,0,595.276)" d="M359.4 567.196C359.52 567.196 359.64 567.196 359.64 567.196 359.76 567.076 359.76 567.076 359.88 566.956L359.64 566.836C359.52 566.956 359.52 566.956 359.4 566.956 359.28 566.956 359.16 566.836 359.16 566.716V566.596C359.16 566.476 359.28 566.356 359.4 566.356H359.52C359.52 566.476 359.64 566.476 359.64 566.596L359.88 566.476C359.76 566.236 359.64 566.116 359.4 566.116 359.04 566.116 358.92 566.236 358.8 566.716 358.92 567.076 359.04 567.196 359.4 567.196Z" fill-rule="evenodd"/><path transform="matrix(1,0,0,-1,0,595.276)" d="M360.48 567.196H360.72V566.956H360.48V566.476 566.356H360.6 360.72V566.116C360.72 566.116 360.6 566.116 360.48 566.116 360.36 566.116 360.24 566.116 360.24 566.116 360.24 566.236 360.12 566.236 360.12 566.356V566.956H360V567.196H360.12V567.556L360.48 567.676V567.196Z" fill-rule="evenodd"/><path transform="matrix(1,0,0,-1,0,595.276)" d="M361.8 566.476C361.8 566.716 361.68 566.836 361.44 566.836H361.32 361.2V566.956C361.2 566.956 361.32 566.956 361.44 566.956H361.56L361.68 566.836 361.8 567.076C361.68 567.196 361.56 567.316 361.44 567.316 361.08 567.316 360.96 567.076 360.96 566.836 360.96 566.716 361.08 566.596 361.32 566.596 361.44 566.596 361.56 566.476 361.56 566.476 361.56 566.356 361.56 566.356 361.44 566.356 361.32 566.356 361.32 566.356 361.2 566.356 361.2 566.476 361.08 566.476 361.08 566.476L360.84 566.356C360.96 566.116 361.2 566.116 361.32 566.116 361.68 566.116 361.8 566.236 361.8 566.476Z" fill-rule="evenodd"/><path transform="matrix(1,0,0,-1,0,595.276)" d="M363.24 567.316H363.72V567.676H362.52V567.316H362.88V566.116H363.24Z" fill-rule="evenodd"/><path transform="matrix(1,0,0,-1,0,595.276)" d="M364.56 566.596C364.56 566.956 364.44 567.196 364.08 567.196 363.72 567.196 363.6 567.076 363.6 566.716 363.6 566.476 363.6 566.356 363.72 566.236 363.84 566.116 363.96 566.116 364.08 566.116 364.32 566.116 364.44 566.116 364.56 566.236L364.32 566.476C364.32 566.356 364.2 566.356 364.08 566.356H363.96V566.476C363.84 566.476 363.84 566.476 363.84 566.596H364.56ZM363.84 566.836V566.836L363.96 566.956H364.08C364.2 566.956 364.2 566.956 364.32 566.836H363.84Z" fill-rule="evenodd"/><path transform="matrix(1,0,0,-1,0,595.276)" d="M365.04 567.676V566.476 566.356H365.16L365.28 566.116H365.16 365.04C364.92 566.116 364.8 566.236 364.68 566.236V566.356 567.676H365.04Z" fill-rule="evenodd"/><path transform="matrix(1,0,0,-1,0,595.276)" d="M365.76 566.236C365.76 566.356 365.64 566.476 365.64 566.476 365.52 566.476 365.4 566.356 365.4 566.236 365.4 566.116 365.52 566.116 365.64 566.116 365.64 566.116 365.76 566.116 365.76 566.236Z" fill-rule="evenodd"/><path transform="matrix(1,0,0,-1,0,595.276)" d="M367.08 566.476H367.56V566.116H366.48V566.476C367.2 566.836 367.32 566.956 367.32 567.076V567.196C367.32 567.316 367.2 567.316 367.08 567.316 366.96 567.316 366.96 567.316 366.84 567.316V567.196 567.076H366.48C366.48 567.436 366.72 567.676 367.08 567.676 367.44 567.676 367.68 567.436 367.68 567.196V567.076C367.56 566.836 367.44 566.596 367.08 566.476Z" fill-rule="evenodd"/><path transform="matrix(1,0,0,-1,0,595.276)" d="M368.52 566.116C368.88 566.116 369 566.236 369 566.596 369 566.716 369 566.836 368.88 566.956 369 566.956 369 567.076 369 567.196 369 567.316 369 567.436 368.88 567.556 368.76 567.676 368.64 567.676 368.4 567.676 368.28 567.676 368.16 567.676 368.04 567.556 367.92 567.436 367.92 567.316 367.92 567.196H368.16C368.16 567.316 368.28 567.316 368.4 567.436H368.52C368.64 567.316 368.64 567.316 368.64 567.196 368.64 567.076 368.64 567.076 368.52 567.076H368.4V566.716H368.52 368.64L368.76 566.596C368.76 566.476 368.64 566.356 368.52 566.356 368.4 566.356 368.28 566.356 368.28 566.476 368.16 566.476 368.16 566.596 368.16 566.596H367.92C367.92 566.236 368.16 566.116 368.52 566.116Z" fill-rule="evenodd"/><path transform="matrix(1,0,0,-1,0,595.276)" d="M369.84 566.116C370.2 566.116 370.44 566.236 370.44 566.596 370.44 566.716 370.44 566.836 370.32 566.956 370.44 566.956 370.44 567.076 370.44 567.196 370.44 567.316 370.44 567.436 370.32 567.556 370.2 567.676 370.08 567.676 369.84 567.676 369.72 567.676 369.6 567.676 369.48 567.556 369.36 567.436 369.24 567.316 369.24 567.196H369.6C369.6 567.316 369.72 567.316 369.84 567.436H369.96C370.08 567.316 370.08 567.316 370.08 567.196 370.08 567.076 370.08 567.076 369.96 567.076H369.72V566.716H369.96 370.08V566.596C370.08 566.476 370.08 566.356 369.96 566.356 369.84 566.356 369.72 566.356 369.72 566.476 369.6 566.476 369.6 566.596 369.6 566.596H369.24C369.24 566.236 369.48 566.116 369.84 566.116Z" fill-rule="evenodd"/><path transform="matrix(1,0,0,-1,0,595.276)" d="M371.28 566.476H371.76V566.116H370.68V566.476C371.28 566.836 371.4 566.956 371.52 567.076V567.196C371.52 567.316 371.4 567.316 371.28 567.316 371.16 567.316 371.16 567.316 371.04 567.316V567.196 567.076H370.68C370.68 567.436 370.92 567.676 371.28 567.676 371.64 567.676 371.76 567.436 371.88 567.196V567.076C371.76 566.836 371.64 566.596 371.28 566.476Z" fill-rule="evenodd"/><path transform="matrix(1,0,0,-1,0,595.276)" d="M373.2 566.116C373.56 566.116 373.8 566.236 373.8 566.596 373.8 566.716 373.68 566.836 373.68 566.956 373.68 566.956 373.8 567.076 373.8 567.196 373.8 567.316 373.68 567.436 373.56 567.556 373.56 567.676 373.32 567.676 373.2 567.676 373.08 567.676 372.84 567.676 372.72 567.556 372.72 567.436 372.6 567.316 372.6 567.196H372.96C372.96 567.316 373.08 567.316 373.2 567.436H373.32C373.44 567.316 373.44 567.316 373.44 567.196 373.44 567.076 373.44 567.076 373.32 567.076H373.08V566.716H373.32 373.44V566.596C373.44 566.476 373.44 566.356 373.2 566.356 373.2 566.356 373.08 566.356 372.96 566.476V566.596H372.6C372.6 566.236 372.84 566.116 373.2 566.116Z" fill-rule="evenodd"/><path transform="matrix(1,0,0,-1,0,595.276)" d="M374.16 566.116H374.52L375 567.316V567.676H373.92V567.316H374.64Z" fill-rule="evenodd"/><path transform="matrix(1,0,0,-1,0,595.276)" d="M376.56 566.836C376.56 567.196 376.44 567.316 376.32 567.436 376.2 567.556 376.08 567.676 375.84 567.676 375.6 567.676 375.48 567.556 375.36 567.436 375.24 567.316 375.24 567.196 375.24 566.836 375.24 566.596 375.24 566.356 375.36 566.236 375.48 566.116 375.6 566.116 375.84 566.116 376.08 566.116 376.2 566.116 376.32 566.236 376.44 566.356 376.56 566.596 376.56 566.836ZM376.2 566.836C376.2 566.716 376.2 566.596 376.08 566.476 376.08 566.356 375.96 566.356 375.84 566.356 375.6 566.356 375.48 566.596 375.48 566.836 375.48 567.076 375.48 567.196 375.6 567.316 375.6 567.316 375.72 567.436 375.84 567.436 376.08 567.436 376.2 567.196 376.2 566.836Z" fill-rule="evenodd"/><path transform="matrix(1,0,0,-1,0,595.276)" d="M378 566.836C378 567.196 378 567.316 377.88 567.436 377.76 567.556 377.64 567.676 377.4 567.676 377.16 567.676 377.04 567.556 376.92 567.436 376.8 567.316 376.8 567.196 376.8 566.836 376.8 566.596 376.8 566.356 376.92 566.236 377.04 566.116 377.16 566.116 377.4 566.116 377.64 566.116 377.76 566.116 377.88 566.236 378 566.356 378 566.596 378 566.836ZM377.76 566.836C377.76 566.716 377.76 566.596 377.64 566.476 377.64 566.356 377.52 566.356 377.4 566.356 377.16 566.356 377.04 566.596 377.04 566.836 377.04 567.076 377.04 567.196 377.16 567.316 377.16 567.316 377.28 567.436 377.4 567.436 377.64 567.436 377.76 567.196 377.76 566.836Z" fill-rule="evenodd"/><path transform="matrix(1,0,0,-1,0,595.276)" d="M360.72 552.916H361.32V552.556H360.24V552.916C360.84 553.276 360.96 553.396 360.96 553.516V553.636C360.96 553.756 360.96 553.756 360.72 553.876L360.6 553.756 360.48 553.636V553.516H360.24C360.24 553.876 360.36 554.116 360.72 554.116 361.08 554.116 361.32 553.996 361.32 553.636 361.32 553.276 361.08 553.156 360.72 552.916Z" fill-rule="evenodd"/><path transform="matrix(1,0,0,-1,0,595.276)" d="M362.16 552.556C362.52 552.556 362.76 552.676 362.76 553.036 362.76 553.156 362.64 553.276 362.64 553.396 362.64 553.396 362.76 553.516 362.76 553.636 362.76 553.876 362.64 553.996 362.52 553.996 362.52 554.116 362.28 554.116 362.16 554.116 362.04 554.116 361.8 554.116 361.68 553.996 361.56 553.876 361.56 553.756 361.56 553.636H361.92C361.92 553.756 362.04 553.876 362.16 553.876 362.28 553.876 362.4 553.756 362.4 553.636 362.4 553.636 362.4 553.516 362.28 553.516H362.04V553.276H362.28L362.4 553.156V553.036C362.4 552.916 362.28 552.916 362.16 552.916 362.04 552.916 362.04 552.916 361.92 552.916V553.036H361.56C361.56 552.676 361.8 552.556 362.16 552.556Z" fill-rule="evenodd"/><path transform="matrix(1,0,0,-1,0,595.276)" d="M363.6 552.556C363.96 552.556 364.2 552.676 364.2 553.036 364.2 553.156 364.08 553.276 363.96 553.396 364.08 553.396 364.08 553.516 364.08 553.636 364.08 553.876 364.08 553.996 363.96 553.996 363.84 554.116 363.72 554.116 363.6 554.116 363.36 554.116 363.24 554.116 363.12 553.996 363 553.876 363 553.756 363 553.636H363.36C363.36 553.756 363.36 553.876 363.6 553.876 363.72 553.876 363.84 553.756 363.84 553.636L363.72 553.516H363.48V553.276H363.72V553.156C363.84 553.156 363.84 553.156 363.84 553.036 363.84 552.916 363.72 552.916 363.6 552.916 363.48 552.916 363.48 552.916 363.36 552.916V553.036H363C363 552.676 363.24 552.556 363.6 552.556Z" fill-rule="evenodd"/><path transform="matrix(1,0,0,-1,0,595.276)" d="M364.92 552.916H365.52V552.556H364.44V552.916C365.04 553.276 365.16 553.396 365.16 553.516V553.636C365.16 553.756 365.04 553.756 364.92 553.876L364.8 553.756C364.68 553.756 364.68 553.636 364.68 553.636V553.516H364.32C364.32 553.876 364.56 554.116 364.92 554.116 365.28 554.116 365.52 553.996 365.52 553.636 365.52 553.276 365.28 553.156 364.92 552.916Z" fill-rule="evenodd"/><path transform="matrix(1,0,0,-1,0,595.276)" d="M366.96 552.556C367.32 552.556 367.44 552.676 367.44 553.036 367.44 553.156 367.44 553.276 367.32 553.396 367.44 553.396 367.44 553.516 367.44 553.636 367.44 553.876 367.44 553.996 367.32 553.996 367.2 554.116 367.08 554.116 366.84 554.116 366.72 554.116 366.6 554.116 366.48 553.996 366.36 553.876 366.36 553.756 366.36 553.636H366.6C366.6 553.756 366.72 553.876 366.84 553.876H366.96C367.08 553.876 367.2 553.756 367.08 553.636 367.08 553.636 367.08 553.516 366.96 553.516H366.84V553.276H366.96C367.08 553.276 367.08 553.276 367.08 553.156 367.08 553.156 367.2 553.156 367.2 553.036 367.2 552.916 367.08 552.916 366.96 552.916 366.84 552.916 366.72 552.916 366.72 552.916 366.6 552.916 366.6 553.036 366.6 553.036H366.36C366.36 552.676 366.6 552.556 366.96 552.556Z" fill-rule="evenodd"/><path transform="matrix(1,0,0,-1,0,595.276)" d="M367.92 552.556H368.28L368.76 553.756V554.116H367.68V553.756H368.4Z" fill-rule="evenodd"/><path transform="matrix(1,0,0,-1,0,595.276)" d="M370.2 553.396C370.2 553.636 370.2 553.756 370.08 553.996 369.96 554.116 369.72 554.116 369.6 554.116 369.36 554.116 369.12 554.116 369 553.996 369 553.756 368.88 553.636 368.88 553.396 368.88 553.036 369 552.916 369 552.796 369.12 552.556 369.36 552.556 369.6 552.556 369.72 552.556 369.96 552.556 370.08 552.796 370.2 552.916 370.2 553.036 370.2 553.396ZM369.84 553.396C369.84 553.156 369.84 553.036 369.84 552.916 369.72 552.916 369.6 552.796 369.6 552.796 369.36 552.796 369.24 553.036 369.24 553.396 369.24 553.516 369.24 553.636 369.24 553.756 369.36 553.756 369.48 553.876 369.6 553.876 369.72 553.876 369.84 553.636 369.84 553.396Z" fill-rule="evenodd"/><path transform="matrix(1,0,0,-1,0,595.276)" d="M371.76 553.396C371.76 553.636 371.64 553.756 371.64 553.996 371.52 554.116 371.28 554.116 371.04 554.116 370.92 554.116 370.68 554.116 370.56 553.996 370.44 553.756 370.44 553.636 370.44 553.396 370.44 553.036 370.44 552.916 370.56 552.796 370.68 552.556 370.92 552.556 371.04 552.556 371.28 552.556 371.52 552.556 371.64 552.796 371.64 552.916 371.76 553.036 371.76 553.396ZM371.4 553.396C371.4 553.156 371.4 553.036 371.4 552.916 371.28 552.916 371.16 552.796 371.04 552.796 370.92 552.796 370.8 553.036 370.8 553.396 370.8 553.516 370.8 553.636 370.8 553.756 370.92 553.756 371.04 553.876 371.04 553.876 371.28 553.876 371.4 553.636 371.4 553.396Z" fill-rule="evenodd"/><path transform="matrix(1,0,0,-1,0,595.276)" d="M336.6 562.156H379.92V562.636H336.6L337.08 563.116H336.36L335.64 562.396 336.36 561.676H337.08Z" fill-rule="evenodd"/><path transform="matrix(1,0,0,-1,0,595.276)" d="M347.4 560.236 347.28 560.356 347.04 559.996 346.56 559.756 346.92 559.516 347.28 559.756 347.52 560.116Z" fill-rule="evenodd"/><path transform="matrix(1,0,0,-1,0,595.276)" d="M347.88 559.516H346.92V559.156H347.88V558.676H346.56V558.316H347.88V557.596H348.24V558.316H349.56V558.676H348.24V559.156H349.2V559.516H348.24V560.356 560.476H348.12 347.88Z" fill-rule="evenodd"/><path transform="matrix(1,0,0,-1,0,595.276)" d="M348.72 560.356 348.48 560.116 348.84 559.756 349.2 559.516 349.44 559.756 349.08 559.996Z" fill-rule="evenodd"/><path transform="matrix(1,0,0,-1,0,595.276)" d="M350.4 558.556 350.76 558.316 351.12 558.916 351.36 559.516V559.636L351.24 559.756 351 559.876 350.88 559.396 350.76 559.156 350.64 558.796Z" fill-rule="evenodd"/><path transform="matrix(1,0,0,-1,0,595.276)" d="M351.96 560.476H351.84V558.076 557.956H351.72 351.6 351.36L351.48 557.596H351.72 351.96L352.08 557.716V557.836 557.956 560.356H352.2L352.08 560.476Z" fill-rule="evenodd"/><path transform="matrix(1,0,0,-1,0,595.276)" d="M353.16 558.316 353.52 558.556 353.28 558.796 353.04 559.156 352.92 559.396 352.8 559.756H352.56L352.68 559.396 352.8 559.036 352.92 558.676Z" fill-rule="evenodd"/><path transform="matrix(1,0,0,-1,0,595.276)" d="M356.16 559.396H355.56V559.156H356.64V558.796H355.56V558.556H356.64V558.076 557.956L356.52 557.836H356.4 356.04L356.16 557.596H356.52 356.64L356.76 557.716H356.88V557.956 558.556H357.36V558.796H356.88V559.156H357.24V559.396H356.52V559.876H357.12V560.116H356.52V560.356 560.476H356.16V560.116H355.56V559.876H356.16Z" fill-rule="evenodd"/><path transform="matrix(1,0,0,-1,0,595.276)" d="M355.92 558.556 355.68 558.316 355.92 558.076 356.04 557.956 356.28 558.196 356.04 558.316Z" fill-rule="evenodd"/><path transform="matrix(1,0,0,-1,0,595.276)" d="M354.48 560.236V558.076 557.836H354.72V558.196H355.08V558.076H355.32V560.236H354.48ZM354.72 559.276V559.996H355.08V559.276H354.72ZM354.72 558.436V559.036H355.08V558.436H354.72Z" fill-rule="evenodd"/><path transform="matrix(1,0,0,-1,0,595.276)" d="M359.04 560.476H358.92L358.8 560.116 358.56 559.756 358.44 559.396 358.32 559.156 358.44 558.916 358.68 559.156V557.596H358.92V559.756L359.16 560.236H359.28V560.356H359.16Z" fill-rule="evenodd"/><path transform="matrix(1,0,0,-1,0,595.276)" d="M360 560.476V560.236H359.16V559.996H361.08V560.236H360.24V560.356H360.36V560.476H360.24Z" fill-rule="evenodd"/><path transform="matrix(1,0,0,-1,0,595.276)" d="M359.4 559.756V559.276H360.84V559.756H359.4ZM359.64 559.396V559.636H360.6V559.396H359.64Z" fill-rule="evenodd"/><path transform="matrix(1,0,0,-1,0,595.276)" d="M359.16 559.036V558.316H359.4V558.796H360.96V558.316H361.2V559.036Z" fill-rule="evenodd"/><path transform="matrix(1,0,0,-1,0,595.276)" d="M359.52 558.556V558.316H360.12V558.076L360 557.956 359.88 557.836H359.64L359.76 557.596H359.88L360.12 557.716H360.24L360.36 557.836V558.076 558.316H360.72V558.556Z" fill-rule="evenodd"/><path transform="matrix(1,0,0,-1,0,595.276)" d="M362.4 560.236V559.996H363.6V559.756H362.64V558.556H363.6V558.316H362.28V557.956H363.6V557.596H363.84V557.956H365.04V558.316H363.84V558.556H364.68V559.756H363.84V559.996H364.92V560.236H363.84V560.356 560.476H363.6V560.236H362.4ZM363 559.276V559.516H363.6V559.276H363ZM363 558.796V559.036H363.6V558.796H363ZM363.84 559.276V559.516H364.44V559.276H363.84ZM363.84 558.796V559.036H364.44V558.796H363.84Z" fill-rule="evenodd"/><path transform="matrix(1,0,0,-1,0,595.276)" d="M366 559.756 366.12 559.516 366.24 559.636V559.396H366.6V559.156H366.12V558.916H366.6V558.076L366.12 557.956V557.716H366.24V557.596 557.716H366.36L367.32 557.836V558.076H366.84V558.916H367.2V559.156H366.84V559.396H367.2V559.636H366.36L366.6 559.876 366.72 560.116 366.96 559.876 367.2 559.756 367.44 559.876 367.08 560.116 366.84 560.236 366.96 560.356 366.72 560.596 366.6 560.356 366.36 560.116 366.12 559.876Z" fill-rule="evenodd"/><path transform="matrix(1,0,0,-1,0,595.276)" d="M366.36 558.676H366.12V558.436L366.24 558.076 366.48 558.196V558.436Z" fill-rule="evenodd"/><path transform="matrix(1,0,0,-1,0,595.276)" d="M366.96 558.196H367.08L367.32 558.556V558.676L367.08 558.796Z" fill-rule="evenodd"/><path transform="matrix(1,0,0,-1,0,595.276)" d="M367.44 560.236V559.996H368.04V559.756H367.44V559.516H368.04V559.276H367.32V559.036H367.92L367.8 558.796 367.68 558.676 367.44 558.556 367.2 558.436 367.44 558.196 367.68 558.436V557.956H367.44V557.716 557.596L367.56 557.716 368.28 557.836V558.076H367.92V558.556L368.16 558.796V558.436L368.4 558.196 368.52 557.836 368.88 557.596 369.12 557.836 368.88 558.076 368.64 558.316 369 558.556V558.676L368.88 558.916 368.52 558.556 368.4 558.796 368.28 559.036H369V559.276H368.28V559.516H368.88V559.756H368.28V559.996H369V560.236H368.28V560.356H368.4L368.28 560.476H368.04V560.236Z" fill-rule="evenodd"/><path transform="matrix(1,0,0,-1,0,595.276)" d="M350.16 551.356V551.116H350.64V550.396H350.16V550.276H351.6V550.396H351.12V551.116H351.48V551.356H351.12L351.24 551.476V551.596H351.12L351 551.356H350.64V551.476L350.52 551.596 350.4 551.476 350.52 551.356H350.16ZM350.76 550.396V551.116H351V550.396H350.76Z" fill-rule="evenodd"/><path transform="matrix(1,0,0,-1,0,595.276)" d="M350.4 550.996H350.16L350.28 550.516H350.52L350.4 550.756Z" fill-rule="evenodd"/><path transform="matrix(1,0,0,-1,0,595.276)" d="M351.12 550.516H351.24 351.36V550.636 550.756L351.48 550.876V550.996H351.24V550.876 550.756 550.636Z" fill-rule="evenodd"/><path transform="matrix(1,0,0,-1,0,595.276)" d="M352.92 551.356V551.476H353.4V551.596H352.2V551.476H352.68V551.356H352.08V550.996H352.32V551.236H352.68V550.876H352.92V551.236H353.4V550.996H353.52V551.356Z" fill-rule="evenodd"/><path transform="matrix(1,0,0,-1,0,595.276)" d="M352.92 551.236V551.116H353.28V551.236Z" fill-rule="evenodd"/><path transform="matrix(1,0,0,-1,0,595.276)" d="M352.92 550.996V550.996H353.28Z" fill-rule="evenodd"/><path transform="matrix(1,0,0,-1,0,595.276)" d="M353.52 550.876H352.08V550.756H352.68V550.636H352.2V550.156H352.32V550.516H352.56V550.156H352.68V550.516H352.92V550.156H353.04V550.516H353.28V550.396 550.276H353.16V550.156H353.28 353.4V550.276 550.396 550.636H352.8V550.756H353.52Z" fill-rule="evenodd"/><path transform="matrix(1,0,0,-1,0,595.276)" d="M352.32 551.236V551.116H352.68V551.236Z" fill-rule="evenodd"/><path transform="matrix(1,0,0,-1,0,595.276)" d="M352.32 550.996V550.996H352.68Z" fill-rule="evenodd"/><path transform="matrix(1,0,0,-1,0,595.276)" d="M354.12 551.596V551.476H354.6V551.596Z" fill-rule="evenodd"/><path transform="matrix(1,0,0,-1,0,595.276)" d="M354.12 551.356V551.236H354.6V551.356Z" fill-rule="evenodd"/><path transform="matrix(1,0,0,-1,0,595.276)" d="M354.12 551.116V550.996H354.6V551.116Z" fill-rule="evenodd"/><path transform="matrix(1,0,0,-1,0,595.276)" d="M354.12 550.876V550.756H354.6V550.876Z" fill-rule="evenodd"/><path transform="matrix(1,0,0,-1,0,595.276)" d="M354.12 550.156H354.24V550.276H354.48V550.156H354.6V550.756H354.12V550.156ZM354.24 550.396V550.516H354.48V550.396H354.24Z" fill-rule="evenodd"/><path transform="matrix(1,0,0,-1,0,595.276)" d="M354.84 551.356H354.96V551.476L354.84 551.596H354.72Z" fill-rule="evenodd"/><path transform="matrix(1,0,0,-1,0,595.276)" d="M354.72 550.756H354.84V550.636 550.516L354.72 550.396 354.6 550.276 354.72 550.156 354.84 550.276 354.96 550.396V550.636 550.756H355.08V550.396 550.276L355.2 550.156H355.32 355.44L355.56 550.276V550.396L355.44 550.516V550.396L355.32 550.276 355.2 550.396V550.756H355.44V551.236H354.72V550.756ZM354.84 550.876V551.116H355.32V550.876H354.84Z" fill-rule="evenodd"/><path transform="matrix(1,0,0,-1,0,595.276)" d="M355.08 551.356H355.32V551.596H355.44 355.32 355.2Z" fill-rule="evenodd"/><path transform="matrix(1,0,0,-1,0,595.276)" d="M356.04 551.476V550.396H356.28V550.636H356.52V550.516H356.64V551.476H356.04ZM356.28 551.116V551.356H356.52V551.116H356.28ZM356.28 550.756V550.996H356.52V550.756H356.28Z" fill-rule="evenodd"/><path transform="matrix(1,0,0,-1,0,595.276)" d="M356.76 551.596V550.876 550.636 550.516L356.64 550.396V550.276L356.76 550.156V550.276L356.88 550.396V550.516 550.636H357.36V550.396H357.24L357.12 550.276V550.156H357.36L357.48 550.276V550.396 551.596H356.76ZM357 551.236V551.476H357.36V551.236H357ZM357 550.756V551.116H357.36V550.756H357Z" fill-rule="evenodd"/><path transform="matrix(1,0,0,-1,0,595.276)" d="M357.96 551.236 358.08 551.116V551.236 551.116H358.32V550.996H358.08V550.756H358.32V550.396H358.08V550.276 550.156L358.2 550.276H358.68V550.396H358.44V550.756H358.56V550.996H358.44V551.116H358.56V551.236H358.08L358.2 551.356 358.32 551.476 358.44 551.356 358.56 551.236 358.68 551.356 358.56 551.476H358.44V551.596H358.32L358.2 551.476 358.08 551.356Z" fill-rule="evenodd"/><path transform="matrix(1,0,0,-1,0,595.276)" d="M358.2 550.756H358.08V550.636 550.396L358.2 550.516V550.636Z" fill-rule="evenodd"/><path transform="matrix(1,0,0,-1,0,595.276)" d="M358.44 550.516H358.56L358.68 550.636V550.756H358.56Z" fill-rule="evenodd"/><path transform="matrix(1,0,0,-1,0,595.276)" d="M358.68 551.476V551.356H359.04V551.236H358.68V551.116H359.04V550.996H358.68V550.876H358.92V550.756H358.8L358.68 550.636H358.56L358.68 550.516H358.8V550.396H358.68V550.156H358.8L359.16 550.276V550.396H358.92V550.636L359.04 550.756V550.636L359.16 550.516 359.28 550.276 359.4 550.156 359.52 550.276 359.4 550.396 359.28 550.516 359.4 550.636H359.52V550.756H359.4L359.16 550.636V550.756 550.876H359.52V550.996H359.16V551.116H359.4V551.236H359.16V551.356H359.52V551.476H359.16V551.596H359.04V551.476Z" fill-rule="evenodd"/><path transform="matrix(1,0,0,-1,0,595.276)" d="M360.24 551.596V551.356H360V551.116H360.24V550.996L360.12 550.876V550.756L360 550.636 360.12 550.516 360.24 550.636V550.876 550.156H360.36V550.876L360.48 550.756 360.6 550.636V550.756L360.48 550.996 360.36 551.116H360.6V551.356H360.36V551.596H360.48 360.36Z" fill-rule="evenodd"/><path transform="matrix(1,0,0,-1,0,595.276)" d="M360.96 551.596H360.84L360.96 551.356H361.08L361.2 551.476 361.08 551.596Z" fill-rule="evenodd"/><path transform="matrix(1,0,0,-1,0,595.276)" d="M360.72 551.236V551.116H360.96V550.876H360.72V550.756H360.96V550.396H360.6V550.156H361.56V550.396H361.2V550.756H361.44V550.876H361.2V551.116H361.44V551.236Z" fill-rule="evenodd"/><path transform="matrix(1,0,0,-1,0,595.276)" d="M362.04 551.596V551.116H362.52V551.596H362.04ZM362.16 551.236V551.476H362.4V551.236H362.16Z" fill-rule="evenodd"/><path transform="matrix(1,0,0,-1,0,595.276)" d="M362.04 551.116V550.996H362.16L362.04 550.516H362.16L362.28 550.636H362.4V550.516 550.396H362.28L362.16 550.276H362.04L362.16 550.156H362.28L362.4 550.276 362.52 550.396V550.516 550.636 550.756H362.28V550.996H362.52V551.116Z" fill-rule="evenodd"/><path transform="matrix(1,0,0,-1,0,595.276)" d="M362.64 551.356V550.756 550.636L362.52 550.516V550.396 550.276L362.64 550.156V550.276L362.76 550.396V550.636 550.756 550.996H362.88V550.876H363 363.24 363.36 363.48V550.996H363.36 363.24V550.876H363.12L363 550.996 363.24 551.116V551.236L363 551.116V551.236H363.36V551.116H363.48V551.356H363V551.476H363.36V551.596H363 363.12 363 362.88V551.356H362.64ZM362.76 551.116V551.236H362.88V551.116H362.76Z" fill-rule="evenodd"/><path transform="matrix(1,0,0,-1,0,595.276)" d="M362.64 550.276 362.76 550.156H362.88L363 550.276V550.396 550.516 550.636 550.756H362.88V550.516 550.396H362.76V550.276Z" fill-rule="evenodd"/><path transform="matrix(1,0,0,-1,0,595.276)" d="M363.12 550.756V550.396 550.276 550.156H363.24 363.36L363.48 550.276V550.396H363.36V550.276H363.24V550.396 550.636 550.756Z" fill-rule="evenodd"/><path transform="matrix(1,0,0,-1,0,595.276)" d="M364.08 551.356H364.2V551.236L364.08 551.116V550.996L363.96 550.876 364.08 550.756V550.876 550.276H364.32V550.396H364.44 364.56V551.116H364.32V551.356H364.56V551.476H364.08V551.356ZM364.32 550.636V550.996H364.44V550.636H364.32Z" fill-rule="evenodd"/><path transform="matrix(1,0,0,-1,0,595.276)" d="M364.68 551.596V550.636H364.8V550.756H365.28V550.636 550.516 550.396L365.16 550.276H365.04L365.16 550.156H365.28L365.4 550.276V550.396 550.516 550.636 550.756 550.876H365.16V550.996H365.4V551.116H365.16V551.236H365.4V551.356H365.16V551.476H365.4V551.596H364.68ZM364.8 550.876V550.996H364.92V550.876H364.8ZM364.8 551.356V551.476H364.92V551.356H364.8ZM364.8 551.116V551.236H364.92V551.116H364.8Z" fill-rule="evenodd"/><path transform="matrix(1,0,0,-1,0,595.276)" d="M364.56 550.276H364.68V550.396 550.636H364.56Z" fill-rule="evenodd"/><path transform="matrix(1,0,0,-1,0,595.276)" d="M364.8 550.276H364.92V550.516 550.636H364.8Z" fill-rule="evenodd"/><path transform="matrix(1,0,0,-1,0,595.276)" d="M365.04 550.396H365.16L365.04 550.516V550.636H364.92Z" fill-rule="evenodd"/><path transform="matrix(1,0,0,-1,0,595.276)" d="M365.16 550.396H365.28V550.516L365.16 550.636H365.04Z" fill-rule="evenodd"/><path transform="matrix(1,0,0,-1,0,595.276)" d="M353.76 556.276H353.64V555.076H353.04V554.956H354.48V555.076H353.88V555.676H354.36V555.796H353.88V556.276Z" fill-rule="evenodd"/><path transform="matrix(1,0,0,-1,0,595.276)" d="M355.08 555.796 355.2 555.676 355.44 555.916H355.8V555.556H355.08V555.436H355.8V554.836H355.92V555.436H356.52V555.556H355.92V555.916H356.4V556.036H355.56V556.156L355.68 556.276H355.56 355.44L355.32 556.036Z" fill-rule="evenodd"/><path transform="matrix(1,0,0,-1,0,595.276)" d="M357 554.956 357.24 554.836V554.956L357.36 555.076 357.48 555.196V555.316L357.6 555.436V555.556 555.796 555.916 556.036H357.48V555.796 555.676 555.556L357.36 555.316V555.196L357.24 555.076H357.12Z" fill-rule="evenodd"/><path transform="matrix(1,0,0,-1,0,595.276)" d="M357.6 556.276V556.156H357.96V555.916 555.796 555.676 555.436L358.08 555.316V555.196L358.2 555.076 358.32 554.956V554.836L358.56 554.956 358.44 555.076 358.32 555.196V555.316L358.2 555.436V555.556L358.08 555.676V555.796 555.916 556.276Z" fill-rule="evenodd"/><path transform="matrix(1,0,0,-1,0,595.276)" d="M359.88 555.796H359.64V555.676H360.12V555.436H359.64V555.316H360.12V555.076 554.956H360 359.88V554.836H360.12 360.24V554.956 555.316H360.48V555.436H360.24V555.676H360.48V555.796H360.12V555.916H360.36V556.036H360.12V556.276H359.88V556.156H359.64V555.916H359.88Z" fill-rule="evenodd"/><path transform="matrix(1,0,0,-1,0,595.276)" d="M359.76 555.316 359.64 555.196 359.76 555.076H359.88 360L359.88 555.196Z" fill-rule="evenodd"/><path transform="matrix(1,0,0,-1,0,595.276)" d="M359.04 556.156V555.076 554.956H359.16V555.196H359.4V555.076H359.52V556.156H359.04ZM359.16 555.676V556.036H359.4V555.676H359.16ZM359.16 555.316V555.556H359.4V555.316H359.16Z" fill-rule="evenodd"/><path transform="matrix(1,0,0,-1,0,595.276)" d="M361.08 556.036H361.56L361.44 555.796H361.2V555.556L362.16 555.676 362.28 555.556 362.4 555.676 362.28 555.916 362.04 556.036 361.92 555.916 362.04 555.796H361.56L361.8 556.036H362.4V556.276H361.08Z" fill-rule="evenodd"/><path transform="matrix(1,0,0,-1,0,595.276)" d="M361.08 554.956H362.4V555.076H361.8V555.316H362.28V555.436H361.8V555.556H361.92 361.8L361.68 555.676V555.436H361.2V555.316H361.68V555.076H361.08Z" fill-rule="evenodd"/><path transform="matrix(1,0,0,-1,0,595.276)" d="M363 555.796 363.12 555.676 363.36 555.916H363.72V555.556H363V555.436H363.72V554.836H363.84V555.436H364.44V555.556H363.84V555.916H364.32V556.036H363.48V556.156L363.6 556.276H363.48 363.36L363.24 556.036Z" fill-rule="evenodd"/><path transform="matrix(1,0,0,-1,0,595.276)" d="M365.04 556.156V556.036H366.36V556.156H365.76V556.276H365.64V556.156Z" fill-rule="evenodd"/><path transform="matrix(1,0,0,-1,0,595.276)" d="M365.88 555.916 365.76 556.036 365.64 555.796V555.676L365.52 555.556 365.4 555.436 365.52 555.316V555.436L365.76 555.196 365.64 555.076 365.4 554.956 365.52 554.836 365.76 554.956 365.88 555.076 366.12 554.956 366.24 554.836 366.48 554.956 366.24 555.076 366 555.196 366.12 555.316V555.436L366.24 555.556V555.676 555.796H366.12 365.76L365.88 555.916ZM365.64 555.556 365.76 555.676H366.12L366 555.436 365.88 555.196 365.76 555.316 365.64 555.556ZM365.88 555.556H365.76L365.88 555.436H366L365.88 555.556Z" fill-rule="evenodd"/><path transform="matrix(1,0,0,-1,0,595.276)" d="M365.52 555.916H365.28V555.796L365.16 555.676 365.04 555.556 364.92 555.436 365.04 555.316 365.16 555.436V554.836H365.4V555.676 555.796L365.52 555.916Z" fill-rule="evenodd"/><path transform="matrix(1,0,0,-1,0,595.276)" d="M367.68 556.276H367.56V555.796H366.96V555.556H367.56V554.836H367.8V555.556H368.4V555.796H367.8V556.276Z" fill-rule="evenodd"/><path transform="matrix(1,0,0,-1,0,595.276)" d="M369.12 556.036V555.916H370.2V556.036Z" fill-rule="evenodd"/><path transform="matrix(1,0,0,-1,0,595.276)" d="M369 555.196V555.076H370.44V555.196Z" fill-rule="evenodd"/><path transform="matrix(1,0,0,-1,0,595.276)" d="M371.88 555.796H371.52V555.676H372V555.436H371.52V555.316H372V555.076 554.956H371.76L371.88 554.836H372 372.12V554.956 555.316H372.36V555.436H372.24V555.676H372.36V555.796H372V555.916H372.24V556.036H372V556.276H371.88V556.156H371.52V555.916H371.88Z" fill-rule="evenodd"/><path transform="matrix(1,0,0,-1,0,595.276)" d="M371.64 555.316V555.196 555.076H371.76 371.88L371.76 555.196Z" fill-rule="evenodd"/><path transform="matrix(1,0,0,-1,0,595.276)" d="M370.92 556.156V555.076 554.956H371.16V555.196H371.28V555.076H371.4V556.156H370.92ZM371.16 555.676V556.036H371.28V555.676H371.16ZM371.16 555.316V555.556H371.28V555.316H371.16Z" fill-rule="evenodd"/><path transform="matrix(1,0,0,-1,0,595.276)" d="M343.08 555.916 343.32 555.796 343.44 556.036H344.52V556.156H343.56V556.276H343.68 343.44V556.156L343.32 556.036 343.2 555.916Z" fill-rule="evenodd"/><path transform="matrix(1,0,0,-1,0,595.276)" d="M343.2 555.556V555.436H343.44L343.32 554.956H343.44V555.076H344.16V554.956H344.04 343.92L344.04 554.836H344.16L344.28 554.956V555.076H344.52V555.196H344.4V555.436H344.64V555.556H344.4V555.916H343.44V555.556H343.2ZM343.8 555.796H344.28V555.556H343.92L344.04 555.676H343.92L343.8 555.796ZM343.56 555.556V555.796H343.8L343.68 555.676H343.8L343.92 555.556H343.56ZM343.8 555.436H344.28L344.16 555.196H343.92L344.04 555.316H343.92L343.8 555.436ZM343.8 555.436V555.436L343.68 555.316H343.8L343.92 555.196H343.44L343.56 555.436H343.8Z" fill-rule="evenodd"/><path transform="matrix(1,0,0,-1,0,595.276)" d="M345.36 554.836H345.48V555.076H346.32V554.836H346.44V556.276H345.36V554.836ZM345.48 555.196V555.556H346.32V555.196H345.48ZM345.48 555.676V556.036H346.32V555.676H345.48Z" fill-rule="evenodd"/><path transform="matrix(1,0,0,-1,0,595.276)" d="M347.16 555.316V555.196 555.076 555.196H347.52V554.836H347.76V555.316H347.88V555.436H347.76V556.276H347.64 347.52V555.436L347.4 555.316V556.036 556.156H347.28V555.316Z" fill-rule="evenodd"/><path transform="matrix(1,0,0,-1,0,595.276)" d="M347.76 555.676 347.88 555.556 348 555.676V555.916H348.36V555.676 555.556L348.24 555.436V555.316L348.12 555.436V555.556 555.676H348V555.556 555.436L348.12 555.316V555.196 555.076H348 347.88L347.76 554.956 347.88 554.836 348.12 554.956 348.24 555.076 348.36 554.956 348.48 554.836 348.6 554.956 348.48 555.076 348.36 555.196V555.316L348.48 555.556V555.676 555.916H348.6V556.036H348.12V556.276H348V556.156L347.88 555.916 347.76 555.796Z" fill-rule="evenodd"/><path transform="matrix(1,0,0,-1,0,595.276)" d="M349.2 556.156V556.156H349.56V556.036H349.2V555.676H349.32V555.796H349.44L349.32 555.676 349.2 555.556H349.32V555.076H349.56L349.2 554.956 349.32 554.836H349.56L349.68 554.956V555.076H350.04L349.92 554.956 350.16 554.836H350.4L350.52 554.956H350.28L350.04 555.076H350.28V555.556L350.4 555.436 350.52 555.556V555.676 555.796H350.04V555.916H350.4V556.156H350.04V556.276H349.92V556.156H349.68V556.276H349.8 349.68 349.56V556.156H349.2ZM349.56 555.796H349.32V555.916H349.56V555.796ZM349.68 556.036V556.156H349.92V556.036H349.68ZM349.92 555.796H349.68V555.916H349.92V555.796ZM350.04 556.036V556.156H350.28V556.036H350.04ZM349.56 555.436V555.556H350.16V555.436H349.56ZM349.92 555.676H349.56V555.796H349.92V555.676ZM350.04 555.676V555.796H350.4V555.676 555.556H350.28V555.676H350.04ZM349.56 555.316V555.316H350.16 349.56ZM349.56 555.196V555.196H350.16 349.56Z" fill-rule="evenodd"/><path transform="matrix(1,0,0,-1,0,595.276)" d="M351.24 556.036V554.836H351.36V554.956H352.32V554.836H352.44V556.036H351.84V556.276H351.96 351.84 351.72V556.036H351.24ZM351.36 555.556V555.916H351.72V555.556H351.36ZM351.84 555.556V555.916H352.32V555.556H351.84ZM351.36 555.076V555.436H351.72V555.076H351.36ZM351.84 555.076V555.436H352.32V555.076H351.84Z" fill-rule="evenodd"/><path transform="matrix(1,0,0,-1,0,595.276)" d="M343.92 553.516H344.16L344.04 553.276 343.92 552.916H344.04 344.16 344.28L344.16 552.676H343.92L344.04 552.556 344.28 552.676 344.4 552.796 344.64 552.556 344.76 552.676 344.52 552.916V553.036L344.64 553.156V553.396 553.516 553.636H344.28V553.756L344.4 553.876V553.996H344.16V553.636H343.92V553.516ZM344.28 553.516H344.52V553.396L344.4 553.156V553.036H344.28 344.16L344.28 553.276V553.516Z" fill-rule="evenodd"/><path transform="matrix(1,0,0,-1,0,595.276)" d="M344.76 552.556H344.88V552.676H345.24V552.556H345.36V553.756H344.76V552.556ZM344.88 552.796V553.516H345.24V552.796H344.88Z" fill-rule="evenodd"/><path transform="matrix(1,0,0,-1,0,595.276)" d="M345.84 553.636 345.96 553.516V553.396H346.2V553.276H345.96V553.156H346.2V552.676H345.96V552.556H346.08L346.56 552.676V552.796H346.32V553.156H346.44V553.276H346.32V553.396H346.44V553.516H345.96L346.08 553.636 346.2 553.756 346.32 553.636 346.44 553.516 346.56 553.636 346.44 553.756 346.32 553.876 346.2 553.996V553.876L346.08 553.756 345.96 553.636Z" fill-rule="evenodd"/><path transform="matrix(1,0,0,-1,0,595.276)" d="M346.08 553.036H345.96V552.916 552.796H346.08V552.916Z" fill-rule="evenodd"/><path transform="matrix(1,0,0,-1,0,595.276)" d="M346.32 552.796H346.44L346.56 553.036H346.44Z" fill-rule="evenodd"/><path transform="matrix(1,0,0,-1,0,595.276)" d="M346.56 553.756V553.636H346.92V553.516H346.56V553.396H346.92V553.276H346.56V553.156H346.8L346.68 553.036H346.56L346.44 552.916 346.56 552.796 346.68 552.916V552.676H346.56V552.556H346.68L347.04 552.676V552.796L346.8 552.676V553.036H346.92V552.916L347.04 552.796 347.16 552.676 347.28 552.556 347.4 552.676 347.28 552.796 347.16 552.916 347.28 553.036H347.4L347.28 553.156 347.04 553.036V553.156H347.4V553.276H347.04V553.396H347.28V553.516H347.04V553.636H347.4V553.756H347.04V553.876 553.996H346.92V553.756Z" fill-rule="evenodd"/><path transform="matrix(1,0,0,-1,0,595.276)" d="M348.36 553.876H348.24V553.756L348.12 553.636 348 553.516V553.396L348.12 553.276V553.396L348.24 553.516H348.6V553.276H347.88V553.156H348.48V553.036L348.36 552.796 348.12 552.676H347.88L348 552.556H348.24L348.48 552.796 348.6 552.916V553.036L348.72 552.916 348.84 552.796 349.08 552.676 349.2 552.556 349.32 552.676 349.2 552.796H348.96L348.84 552.916 348.72 553.156H349.32V553.276H348.72V553.516H349.2V553.636H348.72V553.876 553.996H348.6V553.636H348.36V553.876H348.48 348.36Z" fill-rule="evenodd"/><path transform="matrix(1,0,0,-1,0,595.276)" d="M350.04 553.876V553.876H350.52V553.756H349.92V553.516H350.04V553.636H350.52V553.396H350.64V553.636H351.24V553.516H351.36V553.756H350.64V553.876H351.24Z" fill-rule="evenodd"/><path transform="matrix(1,0,0,-1,0,595.276)" d="M350.16 553.636V553.516H350.52V553.636Z" fill-rule="evenodd"/><path transform="matrix(1,0,0,-1,0,595.276)" d="M350.16 553.516V553.396H350.52V553.516Z" fill-rule="evenodd"/><path transform="matrix(1,0,0,-1,0,595.276)" d="M350.04 553.396V553.036H350.4V553.396H350.04ZM350.16 553.156V553.276H350.28V553.156H350.16Z" fill-rule="evenodd"/><path transform="matrix(1,0,0,-1,0,595.276)" d="M350.4 553.396V553.036H350.76V553.396H350.4ZM350.52 553.156V553.276H350.64V553.156H350.52Z" fill-rule="evenodd"/><path transform="matrix(1,0,0,-1,0,595.276)" d="M350.76 553.636V553.516H351.12V553.636Z" fill-rule="evenodd"/><path transform="matrix(1,0,0,-1,0,595.276)" d="M350.76 553.516V553.396H351.12V553.516Z" fill-rule="evenodd"/><path transform="matrix(1,0,0,-1,0,595.276)" d="M350.88 553.396V553.036H351.24V553.396H350.88ZM351 553.156V553.276H351.12V553.156H351Z" fill-rule="evenodd"/><path transform="matrix(1,0,0,-1,0,595.276)" d="M350.04 552.676H349.92V552.556H351.36V552.676H351.24L351 552.796 351.12 552.916H351.24V553.036H349.92V552.916H350.28L350.16 552.796 350.04 552.676ZM351.24 552.676H350.88L351 552.796 351.24 552.676ZM350.76 552.676V552.676 552.916H351L350.88 552.796 350.76 552.676ZM350.04 552.676V552.676H350.16L350.28 552.796 350.4 552.676H350.04ZM350.4 552.676V552.676H350.52L350.4 552.796V552.916H350.52V552.676H350.4Z" fill-rule="evenodd"/><path transform="matrix(1,0,0,-1,0,595.276)" d="M352.56 553.756H352.8V553.636H352.56V553.516H352.8V553.396H352.44V553.276H353.28V553.396H353.04V553.516H353.28V553.636H353.04V553.756H353.28V553.876H353.04V553.996H352.92 352.8V553.876H352.56Z" fill-rule="evenodd"/><path transform="matrix(1,0,0,-1,0,595.276)" d="M352.56 552.556H352.68V552.676H353.16 353.04 352.92L353.04 552.436 353.16 552.556H353.28V552.676 553.276H352.56V552.556ZM352.68 553.036V553.156H353.16V553.036H352.68ZM352.68 552.796V552.916H353.16V552.796H352.68Z" fill-rule="evenodd"/><path transform="matrix(1,0,0,-1,0,595.276)" d="M351.96 553.876V553.756H352.44V553.876Z" fill-rule="evenodd"/><path transform="matrix(1,0,0,-1,0,595.276)" d="M351.84 553.756V553.516H352.44V553.756Z" fill-rule="evenodd"/><path transform="matrix(1,0,0,-1,0,595.276)" d="M351.96 553.516V553.396H352.44V553.516Z" fill-rule="evenodd"/><path transform="matrix(1,0,0,-1,0,595.276)" d="M351.96 553.276V553.156H352.44V553.276Z" fill-rule="evenodd"/><path transform="matrix(1,0,0,-1,0,595.276)" d="M351.96 552.556H352.08 352.32 352.44V553.036H351.96V552.556ZM352.08 552.676V552.916H352.32V552.676H352.08Z" fill-rule="evenodd"/><path transform="matrix(1,0,0,-1,0,595.276)" d="M354 553.996V553.636H353.88V553.516H354V553.156H353.88V553.036H354V552.676H353.88V552.556H354 354.12V552.676 553.156H354.24V553.276H354.12V553.516H354.24V553.636H354.12V553.876H354.24V553.996H354.12Z" fill-rule="evenodd"/><path transform="matrix(1,0,0,-1,0,595.276)" d="M354.36 553.996V553.876H354.6V553.756H354.48 354.36L354.48 553.636 354.36 553.516H354.24L354.36 553.396H354.6V553.156H354.36L354.24 552.796H354.36V552.916H354.6V552.796 552.676H354.48L354.36 552.556V552.436L354.48 552.556H354.6L354.72 552.676V553.036H354.48V553.156H354.72V553.516H354.48 354.6L354.72 553.636V553.756 553.876 553.996Z" fill-rule="evenodd"/><path transform="matrix(1,0,0,-1,0,595.276)" d="M354.96 553.996 354.84 553.876V553.756L354.96 553.636 355.08 553.516 355.32 553.396V553.516H355.2V553.636H355.32V553.756H355.2L355.08 553.636V553.756L355.2 553.876 355.08 553.996 354.96 553.876Z" fill-rule="evenodd"/><path transform="matrix(1,0,0,-1,0,595.276)" d="M355.08 553.516H354.84V553.396 553.276L354.72 553.156 354.84 553.036V553.156H354.96V553.276 553.396 553.156L355.08 553.036H355.2V553.156H355.32V553.276H355.2V553.156H355.08V553.276Z" fill-rule="evenodd"/><path transform="matrix(1,0,0,-1,0,595.276)" d="M354.72 553.036V552.916H355.08V552.796H354.96L354.84 552.916V552.796L354.96 552.676H354.84L354.72 552.556 354.84 552.436 354.96 552.556V552.676L355.08 552.556 355.2 552.436 355.32 552.556 355.2 552.676H355.08L355.2 552.916V553.036Z" fill-rule="evenodd"/><path transform="matrix(1,0,0,-1,0,595.276)" d="M356.04 553.876V553.876H356.52V553.756H355.92V553.396H356.04V553.636H356.52V553.276H356.64V553.636H357.12V553.396H357.24V553.756H356.64V553.876H357.12Z" fill-rule="evenodd"/><path transform="matrix(1,0,0,-1,0,595.276)" d="M356.04 553.516V553.516H356.4Z" fill-rule="evenodd"/><path transform="matrix(1,0,0,-1,0,595.276)" d="M356.04 553.396V553.276H356.4V553.396Z" fill-rule="evenodd"/><path transform="matrix(1,0,0,-1,0,595.276)" d="M356.04 553.156V552.676H356.52V552.556H356.64 357.12 357.24L357.36 552.676 357.24 552.796 357.12 552.676H356.76 356.64 357.12V553.156H356.04ZM356.64 553.036V553.156H357V553.036H356.64ZM356.16 553.036V553.156H356.52V553.036H356.16ZM356.64 552.796V552.916H357V552.796H356.64ZM356.16 552.796V552.916H356.52V552.796H356.16Z" fill-rule="evenodd"/><path transform="matrix(1,0,0,-1,0,595.276)" d="M356.76 553.516V553.516H357.12Z" fill-rule="evenodd"/><path transform="matrix(1,0,0,-1,0,595.276)" d="M356.76 553.396V553.276H357.12V553.396Z" fill-rule="evenodd"/><path transform="matrix(1,0,0,-1,0,595.276)" d="M358.44 553.876 358.56 553.756H358.8V553.516H358.44V553.396H358.8V553.156H358.44V552.556H358.68V552.676H359.04V552.556H359.16V553.156H358.92V553.396H359.28V553.516H358.92V553.756H359.04L359.16 553.876 359.04 553.996 358.8 553.876H358.44ZM358.68 552.796V553.036H359.04V552.796H358.68Z" fill-rule="evenodd"/><path transform="matrix(1,0,0,-1,0,595.276)" d="M357.96 553.876V553.756H358.32V553.876Z" fill-rule="evenodd"/><path transform="matrix(1,0,0,-1,0,595.276)" d="M357.84 553.756V553.636H358.44V553.756Z" fill-rule="evenodd"/><path transform="matrix(1,0,0,-1,0,595.276)" d="M357.84 553.516V553.396H358.32V553.516Z" fill-rule="evenodd"/><path transform="matrix(1,0,0,-1,0,595.276)" d="M357.84 553.276V553.156H358.32V553.276Z" fill-rule="evenodd"/><path transform="matrix(1,0,0,-1,0,595.276)" d="M357.84 552.556H357.96V552.676H358.2V552.556H358.44V553.036H357.84V552.556ZM357.96 552.796V552.916H358.2V552.796H357.96Z" fill-rule="evenodd"/></g></svg>