<?xml version='1.0' encoding='UTF-8'?>
<svg width="255.02" height="255.02" viewBox="157.16 8.48 255.02 255.02" xmlns="http://www.w3.org/2000/svg" xmlns:xlink="http://www.w3.org/1999/xlink" xmlns:inkscape="http://www.inkscape.org/namespaces/inkscape" version="1.1"><g transform="scale(10.0) translate(-547.707, -451.152)"><defs><clipPath id="clip_19"><path transform="matrix(0,1,1,0,0,0)" d="M0 74.451H595.008V767.55899H0Z"/></clipPath><clipPath id="clip_20"><path transform="matrix(0,1,1,0,0,0)" d="M0 842.013H595.224V.008972168H0Z"/></clipPath></defs><path transform="matrix(0,1,1,0,588.675,464.742)" d="M0 0C-1.638 0-3.258-.324-4.788-.954-6.3-1.584-7.668-2.502-8.838-3.654-9.99-4.824-10.926-6.192-11.556-7.722-12.168-9.234-12.492-10.854-12.492-12.492-12.492-14.148-12.168-15.768-11.556-17.28-10.926-18.81-9.99-20.178-8.838-21.348-7.668-22.5-6.3-23.418-4.788-24.048-3.258-24.678-1.638-25.002 0-25.002 1.656-25.002 3.276-24.678 4.788-24.048 6.3-23.418 7.686-22.5 8.856-21.348 10.008-20.178 10.926-18.81 11.556-17.28 12.186-15.768 12.51-14.148 12.51-12.492 12.51-10.854 12.186-9.234 11.556-7.722 10.926-6.192 10.008-4.824 8.856-3.654 7.686-2.502 6.3-1.584 4.788-.954 3.276-.324 1.656 0 0 0" fill="#ff0000" fill-rule="evenodd"/><path transform="matrix(0,1,1,0,584.085,470.88)" d="M0 0C-.954 .738-2.034 1.296-3.186 1.656-4.338 1.998-5.544 2.142-6.75 2.07-7.956 1.998-9.144 1.71-10.242 1.206-11.358 .702-12.348 .018-13.212-.828-13.59-1.224-13.968-1.656-14.31-2.142-14.634-2.61-14.94-3.132-15.192-3.69-15.462-4.23-15.66-4.824-15.822-5.418-15.984-6.03-16.074-6.66-16.11-7.29-16.164-7.92-16.128-8.55-16.056-9.162-15.984-9.792-15.84-10.386-15.66-10.962-15.462-11.556-15.228-12.096-14.958-12.618-14.688-13.14-14.364-13.608-14.04-14.04L0 0" fill="#ffffff" fill-rule="evenodd"/><path transform="matrix(0,1,1,0,568.263,458.622)" d="M0 0C.954-.738 2.034-1.296 3.186-1.656 4.338-1.998 5.544-2.142 6.75-2.07 7.956-1.998 9.144-1.71 10.242-1.206 11.34-.702 12.348-.018 13.194 .846 13.59 1.224 13.968 1.656 14.292 2.142 14.634 2.61 14.94 3.132 15.192 3.69 15.444 4.23 15.66 4.824 15.822 5.418 15.966 6.03 16.074 6.66 16.11 7.29 16.146 7.92 16.128 8.55 16.056 9.162 15.966 9.792 15.84 10.386 15.642 10.98 15.462 11.556 15.228 12.096 14.958 12.618 14.688 13.14 14.364 13.608 14.022 14.04L0 0" fill="#ffffff" fill-rule="evenodd"/><path transform="matrix(0,1,1,0,573.141,457.236)" d="M0 0V6.084C0 6.336 .054 6.606 .144 6.876 .234 7.146 .378 7.416 .558 7.632 .738 7.866 .972 8.064 1.206 8.208 1.458 8.352 1.71 8.46 1.962 8.514L5.004 9.288C5.004 9.432 5.04 9.594 5.094 9.738 5.166 9.9 5.256 10.044 5.382 10.17 5.508 10.296 5.652 10.386 5.796 10.44 5.958 10.512 6.12 10.53 6.264 10.53H10.008C10.242 10.53 10.44 10.44 10.602 10.296 10.764 10.134 10.854 9.918 10.854 9.702H12.42L8.766 6.048V6.48H8.352V5.634L7.722 5.004V6.48H7.416C7.362 6.192 7.326 5.886 7.308 5.562 7.272 5.22 7.254 4.878 7.236 4.518L4.41 1.692C4.338 3.51 4.41 5.31 4.608 7.092 4.608 7.182 4.608 7.29 4.572 7.38 4.536 7.47 4.482 7.56 4.41 7.65 4.338 7.722 4.248 7.776 4.14 7.812 4.05 7.83 3.942 7.848 3.87 7.83L1.944 7.614C1.638 7.578 1.368 7.434 1.152 7.2 .954 6.966 .846 6.678 .846 6.372V-.306C.846-.504 .882-.702 .99-.882 1.08-1.062 1.224-1.224 1.386-1.332L.846-1.872C.306-1.404 0-.72 0 0ZM6.894 9.702C6.498 9.702 6.12 9.558 5.85 9.27 5.58 9 5.436 8.622 5.436 8.244 5.436 8.064 5.454 7.884 5.526 7.704 5.598 7.524 5.706 7.362 5.85 7.218 5.994 7.074 6.174 6.966 6.354 6.894 6.534 6.822 6.714 6.786 6.894 6.786 7.272 6.786 7.65 6.93 7.92 7.218 8.19 7.488 8.352 7.848 8.352 8.244 8.352 8.424 8.316 8.604 8.244 8.784 8.172 8.964 8.064 9.126 7.92 9.27 7.776 9.414 7.614 9.522 7.416 9.594 7.236 9.666 7.056 9.702 6.894 9.702" fill-rule="evenodd"/><path transform="matrix(0,1,1,0,571.593,468.018)" d="M0 0C.126 1.044 .198 2.088 .252 3.15 .288 4.212 .288 5.256 .234 6.318L-.882 5.202C-.864 4.5-.882 3.762-.918 3.042-.936 2.682-.954 2.34-.972 2.016-.99 1.872-1.008 1.71-1.026 1.566-1.044 1.494-1.044 1.422-1.062 1.35-1.062 1.314-1.062 1.278-1.062 1.242V1.224L-1.08 1.188V1.134H-1.386V4.68L-2.016 4.068V1.134H-2.43V3.654L-3.06 3.024V1.134H-3.366C-3.438 1.566-3.474 2.052-3.51 2.574L-7.362-1.278-5.778-1.674C-5.778-1.818-5.742-1.98-5.688-2.124-5.616-2.286-5.526-2.43-5.4-2.556-5.274-2.682-5.13-2.772-4.986-2.826-4.824-2.898-4.662-2.916-4.518-2.916H-.774C-.576-2.916-.342-2.844-.18-2.682-.09-2.592-.036-2.502 0-2.394 .054-2.286 .072-2.178 .072-2.088H2.196C2.304-1.944 2.394-1.8 2.466-1.62 2.538-1.44 2.574-1.242 2.574-1.044 2.574-.846 2.538-.666 2.466-.486 2.394-.306 2.304-.144 2.196 0H0ZM-3.888 .828C-3.51 .828-3.132 .684-2.862 .396-2.592 .126-2.43-.234-2.43-.63-2.43-1.008-2.592-1.386-2.862-1.656-3.132-1.926-3.51-2.088-3.888-2.088-4.284-2.088-4.662-1.926-4.932-1.656-5.202-1.386-5.346-1.008-5.346-.63-5.346-.45-5.328-.27-5.256-.09-5.184 .09-5.076 .252-4.932 .396-4.788 .54-4.608 .648-4.428 .72-4.248 .792-4.068 .828-3.888 .828" fill-rule="evenodd"/></g></svg>