<?xml version='1.0' encoding='UTF-8'?>
<svg width="362.28" height="262.68" viewBox="101.73 4.26 362.28 262.68" xmlns="http://www.w3.org/2000/svg" xmlns:xlink="http://www.w3.org/1999/xlink" xmlns:inkscape="http://www.inkscape.org/namespaces/inkscape" version="1.1"><g transform="scale(10.0) translate(-438.573, -208.800)"><defs><clipPath id="clip_2"><path transform="matrix(1,0,0,-1,0,595.276)" d="M74.4 .196H767.4V595.276H74.4Z"/></clipPath></defs><path transform="matrix(1,0,0,-1,0,595.276)" d="M482.88 385.636H450.84C450.72 385.636 450.48 385.636 450.24 385.516 450 385.396 449.88 385.276 449.64 385.156 449.52 385.036 449.4 384.796 449.28 384.556 449.16 384.316 449.16 384.196 449.16 383.956V361.876C449.16 361.396 449.28 361.036 449.64 360.676 450 360.316 450.48 360.196 450.84 360.196H482.88C483.36 360.196 483.72 360.316 484.08 360.676 484.32 360.796 484.44 361.036 484.44 361.276 484.56 361.396 484.56 361.636 484.56 361.876V383.956C484.56 384.916 483.84 385.636 482.88 385.636Z" fill="#ffffff" fill-rule="evenodd"/><path transform="matrix(1,0,0,-1,0,595.276)" d="M482.88 384.796H450.84C450.72 384.796 450.6 384.796 450.6 384.796 450.48 384.676 450.36 384.676 450.24 384.556 450.24 384.436 450.12 384.316 450.12 384.316 450 384.196 450 384.076 450 383.956V361.876C450 361.636 450.12 361.396 450.24 361.276 450.48 361.156 450.6 361.036 450.84 361.036H482.88C483.12 361.036 483.36 361.156 483.48 361.276 483.72 361.396 483.72 361.636 483.72 361.876V383.956C483.72 384.436 483.36 384.796 482.88 384.796Z" fill="#0000ff" fill-rule="evenodd"/><path transform="matrix(1,0,0,-1,0,595.276)" d="M452.16 370.756H454.2V371.236H452.64V372.076H453.96V372.556H452.64V373.276H454.08V373.876H452.16Z" fill="#ffffff" fill-rule="evenodd"/><path transform="matrix(1,0,0,-1,0,595.276)" d="M456.12 370.756H456.72L456 371.836 456.6 372.916H456.12L455.64 372.196 455.16 372.916H454.68L455.4 371.836 454.56 370.756H455.16L455.64 371.476Z" fill="#ffffff" fill-rule="evenodd"/><path transform="matrix(1,0,0,-1,0,595.276)" d="M457.32 372.436 457.56 372.556H457.68 457.8C457.92 372.556 458.04 372.556 458.04 372.556 458.16 372.556 458.28 372.556 458.28 372.436L458.4 372.316V372.196 372.076H458.04C457.92 372.076 457.8 372.076 457.8 372.076 457.68 372.076 457.56 371.956 457.44 371.956 457.32 371.956 457.2 371.836 457.2 371.836 457.08 371.716 456.96 371.476 457.08 371.356 456.96 371.236 457.08 371.116 457.2 370.996 457.2 370.876 457.32 370.756 457.44 370.756 457.56 370.756 457.68 370.636 457.8 370.636 457.92 370.636 458.04 370.636 458.16 370.756 458.28 370.756 458.4 370.876 458.4 370.876 458.52 370.876 458.52 370.756 458.64 370.756 458.64 370.756 458.76 370.636 458.88 370.636L459 370.996 458.88 371.116V371.236 371.956C458.88 372.076 458.88 372.316 458.88 372.436 458.88 372.556 458.76 372.676 458.76 372.676 458.64 372.796 458.52 372.916 458.4 372.916 458.28 373.036 458.04 373.036 457.92 373.036 457.8 373.036 457.68 372.916 457.56 372.916 457.44 372.916 457.32 372.916 457.32 372.796 457.2 372.796 457.2 372.796 457.08 372.796L457.32 372.436ZM457.8 370.996C457.68 371.116 457.68 371.116 457.56 371.116V371.236C457.44 371.356 457.44 371.356 457.56 371.476 457.56 371.476 457.56 371.596 457.68 371.596H457.8C457.92 371.716 458.04 371.716 458.16 371.716 458.16 371.716 458.28 371.716 458.4 371.716V371.356C458.4 371.356 458.4 371.236 458.28 371.236V371.116C458.28 371.116 458.16 370.996 458.04 370.996 457.92 370.996 457.8 370.996 457.8 370.996Z" fill="#ffffff" fill-rule="evenodd"/><path transform="matrix(1,0,0,-1,0,595.276)" d="M457.32 372.436V372.436Z" fill="#ffffff" fill-rule="evenodd"/><path transform="matrix(1,0,0,-1,0,595.276)" d="M460.44 371.116C460.56 371.116 460.56 371.116 460.68 371.116 460.8 371.116 460.8 371.236 460.92 371.236 460.92 371.356 461.04 371.356 461.04 371.476L461.4 371.236V371.116C461.28 370.996 461.28 370.876 461.16 370.876L461.04 370.756C460.8 370.636 460.68 370.636 460.56 370.636 460.32 370.636 460.08 370.756 459.96 370.876 459.72 370.996 459.6 371.116 459.6 371.356 459.48 371.596 459.48 371.836 459.48 372.076 459.6 372.316 459.6 372.436 459.72 372.556 459.84 372.676 459.96 372.796 460.2 372.916 460.32 372.916 460.56 373.036 460.8 372.916 460.92 372.916 461.16 372.796 461.28 372.676 461.28 372.556 461.4 372.556 461.4 372.556 461.4 372.436 461.4 372.436 461.4 372.316L461.04 372.196C461.04 372.196 460.92 372.316 460.92 372.436H460.8C460.68 372.556 460.44 372.556 460.32 372.436 460.2 372.436 460.08 372.316 460.08 372.196 459.96 371.956 459.96 371.716 459.96 371.596 460.08 371.356 460.2 371.116 460.44 371.116Z" fill="#ffffff" fill-rule="evenodd"/><path transform="matrix(1,0,0,-1,0,595.276)" d="M462.72 371.236C462.72 371.116 462.72 371.116 462.84 371.116H462.96C463.08 371.116 463.08 371.116 463.2 371.116L463.32 370.756C463.08 370.636 462.72 370.636 462.48 370.756 462.36 370.756 462.36 370.876 462.24 370.876 462.24 370.996 462.24 371.116 462.24 371.116V372.556H461.76V372.916H462.24V373.636L462.72 373.876V372.916H463.32V372.556H462.72V371.236Z" fill="#ffffff" fill-rule="evenodd"/><path transform="matrix(1,0,0,-1,0,595.276)" stroke-width=".12" stroke-linecap="butt" stroke-miterlimit="10" stroke-linejoin="miter" fill="none" stroke="#ffffff" d="M465.5 372.5V372.5"/><path transform="matrix(1,0,0,-1,0,595.276)" d="M465.36 372.796C465.6 373.036 465.96 373.036 466.32 372.796 466.68 372.556 466.8 372.196 466.8 371.836 466.92 371.476 466.68 371.116 466.44 370.876 466.2 370.756 466.08 370.636 465.84 370.636 465.72 370.636 465.48 370.756 465.36 370.756V370.036H464.88V372.916H465.36V372.796ZM465.48 372.316C465.36 372.316 465.36 372.196 465.36 372.076V371.956 371.596 371.476C465.36 371.356 465.36 371.236 465.48 371.236 465.6 371.116 465.72 371.116 465.84 371.116 466.08 371.116 466.2 371.236 466.2 371.356 466.44 371.596 466.44 372.076 466.2 372.316 466.08 372.436 465.96 372.556 465.84 372.436 465.72 372.436 465.6 372.436 465.48 372.316Z" fill="#ffffff" fill-rule="evenodd"/><path transform="matrix(1,0,0,-1,0,595.276)" d="M467.4 372.796 467.64 372.436 467.88 372.556C468 372.556 468 372.556 468.12 372.556 468.24 372.556 468.36 372.556 468.36 372.556 468.48 372.556 468.6 372.556 468.6 372.436L468.72 372.316V372.196 372.076H468.36C468.24 372.076 468.12 372.076 468.12 372.076 468 372.076 467.88 371.956 467.76 371.956 467.64 371.956 467.52 371.836 467.52 371.836 467.4 371.716 467.28 371.476 467.28 371.356 467.28 371.236 467.4 371.116 467.52 370.996 467.52 370.876 467.64 370.756 467.76 370.756 467.88 370.756 468 370.636 468.12 370.636 468.24 370.636 468.36 370.636 468.48 370.756 468.6 370.756 468.72 370.876 468.72 370.876 468.84 370.876 468.84 370.756 468.96 370.756 468.96 370.756 469.08 370.636 469.2 370.636L469.32 370.996 469.2 371.116V371.236 371.956C469.2 372.076 469.2 372.316 469.2 372.436 469.2 372.556 469.08 372.676 469.08 372.676 468.96 372.796 468.84 372.916 468.72 372.916 468.6 373.036 468.36 373.036 468.24 373.036 468.12 373.036 468 372.916 467.88 372.916 467.76 372.916 467.64 372.916 467.64 372.796 467.52 372.796 467.52 372.796 467.4 372.796ZM468.12 370.996C468 370.996 468 371.116 468 371.116H467.88C467.88 371.236 467.88 371.236 467.76 371.236 467.76 371.356 467.76 371.356 467.88 371.476 467.88 371.476 467.88 371.596 468 371.596H468.12C468.24 371.716 468.36 371.716 468.48 371.716 468.48 371.716 468.6 371.716 468.72 371.716V371.356C468.72 371.356 468.72 371.236 468.6 371.236V371.116C468.48 371.116 468.48 370.996 468.36 370.996 468.24 370.996 468.12 370.996 468.12 370.996Z" fill="#ffffff" fill-rule="evenodd"/><path transform="matrix(1,0,0,-1,0,595.276)" d="M467.4 372.796V372.796Z" fill="#ffffff" fill-rule="evenodd"/><path transform="matrix(1,0,0,-1,0,595.276)" d="M470.4 370.516C470.4 370.396 470.28 370.396 470.16 370.396 470.04 370.396 470.04 370.396 469.92 370.396L469.8 370.036C469.92 370.036 470.04 370.036 470.04 370.036 470.16 370.036 470.28 370.036 470.4 369.916 470.52 370.036 470.76 370.156 470.76 370.276 471 370.756 471.12 371.236 471.24 371.596 471.36 372.076 471.48 372.556 471.72 372.916H471.12L470.64 371.476 470.28 372.916H469.68L470.4 370.636V370.516Z" fill="#ffffff" fill-rule="evenodd"/><path transform="matrix(1,0,0,-1,0,595.276)" d="M472.56 372.916H472.08V370.756H472.56V372.076C472.56 372.196 472.68 372.316 472.68 372.316 472.8 372.436 472.92 372.556 473.04 372.556 473.04 372.556 473.16 372.436 473.28 372.436V372.316 372.196 370.756H473.88V372.076C473.88 372.196 473.88 372.316 474 372.316 474 372.436 474.12 372.556 474.24 372.556 474.24 372.556 474.36 372.436 474.48 372.436V372.316L474.6 372.196V370.756H475.08V372.316 372.436C474.96 372.556 474.84 372.796 474.72 372.796 474.48 372.916 474.36 373.036 474.12 372.916 474.12 372.916 474 372.916 473.88 372.916 473.76 372.796 473.76 372.796 473.64 372.676 473.52 372.916 473.28 373.036 473.04 372.916 472.92 372.916 472.8 372.916 472.8 372.916 472.68 372.916 472.68 372.796 472.56 372.796V372.916Z" fill="#ffffff" fill-rule="evenodd"/><path transform="matrix(1,0,0,-1,0,595.276)" d="M476.52 370.636C476.76 370.636 477 370.636 477.24 370.756 477.36 370.756 477.48 370.876 477.48 370.996L477.24 371.356 477.12 371.236C477 371.116 476.88 371.116 476.76 371.116 476.64 371.116 476.52 371.116 476.28 371.236L476.16 371.356C476.16 371.476 476.16 371.596 476.16 371.716H477.6C477.6 371.836 477.6 372.076 477.48 372.316 477.48 372.436 477.36 372.676 477.24 372.796 476.88 373.036 476.52 373.036 476.16 372.796 475.92 372.676 475.68 372.436 475.68 372.076 475.56 371.836 475.68 371.476 475.8 371.236 475.8 370.996 475.92 370.876 476.04 370.876 476.16 370.756 476.28 370.636 476.52 370.636ZM476.16 371.956C476.16 372.076 476.16 372.196 476.16 372.316 476.28 372.436 476.28 372.436 476.4 372.556 476.52 372.556 476.76 372.556 476.88 372.556 476.88 372.436 477 372.436 477 372.316 477.12 372.196 477.12 372.076 477.12 371.956H476.16Z" fill="#ffffff" fill-rule="evenodd"/><path transform="matrix(1,0,0,-1,0,595.276)" d="M479.04 372.556C479.16 372.556 479.28 372.436 479.4 372.436 479.4 372.316 479.52 372.196 479.52 372.196V370.756H480V372.196C480 372.436 479.88 372.556 479.88 372.676 479.76 372.796 479.64 372.916 479.52 372.916 479.4 372.916 479.16 373.036 479.04 372.916 478.92 372.916 478.8 372.916 478.68 372.796V372.916H478.2V370.756H478.68V372.076C478.68 372.196 478.68 372.316 478.8 372.436 478.92 372.436 479.04 372.556 479.04 372.556Z" fill="#ffffff" fill-rule="evenodd"/><path transform="matrix(1,0,0,-1,0,595.276)" stroke-width=".12" stroke-linecap="butt" stroke-miterlimit="10" stroke-linejoin="miter" fill="none" stroke="#ffffff" d="M463.5 378.5V378.5"/><path transform="matrix(1,0,0,-1,0,595.276)" d="M463.32 378.436V378.436C463.08 378.436 462.72 378.436 462.48 378.316 462.48 377.956 462.6 377.596 462.84 377.236 463.08 376.996 463.44 376.756 463.8 376.756V376.156H464.28V376.756C465.24 376.876 465.84 377.476 465.84 378.316 465.84 378.676 465.72 379.036 465.36 379.396 465.12 379.636 464.76 379.876 464.28 379.876V381.196C464.4 381.196 464.52 381.076 464.64 380.956 464.76 380.956 464.76 380.836 464.88 380.596L465.72 380.716C465.6 381.436 465 381.916 464.28 382.036V382.396H463.8V382.036C463.08 381.916 462.48 381.316 462.48 380.596 462.48 380.236 462.6 379.876 462.84 379.636 463.08 379.396 463.44 379.156 463.8 379.036V377.716C463.56 377.836 463.32 378.076 463.32 378.436ZM463.8 380.116C463.56 380.116 463.44 380.356 463.44 380.716 463.44 380.836 463.44 380.956 463.56 381.076 463.56 381.196 463.68 381.196 463.8 381.196V380.116ZM464.28 378.916C464.52 378.916 464.64 378.916 464.76 378.796 464.88 378.556 464.88 378.436 464.88 378.316 464.88 378.076 464.88 377.956 464.76 377.836 464.64 377.716 464.64 377.716 464.52 377.716 464.52 377.596 464.4 377.596 464.28 377.596V378.916Z" fill="#ffffff" fill-rule="evenodd"/><path transform="matrix(1,0,0,-1,0,595.276)" stroke-width=".12" stroke-linecap="butt" stroke-miterlimit="10" stroke-linejoin="miter" fill="none" stroke="#ffffff" d="M482.5 370.5V370.5"/><path transform="matrix(1,0,0,-1,0,595.276)" d="M481.92 371.116V371.116Z" fill="#ffffff" fill-rule="evenodd"/><path transform="matrix(1,0,0,-1,0,595.276)" d="M481.92 371.116 482.04 370.756C481.8 370.636 481.44 370.636 481.2 370.756 480.96 370.876 480.96 370.996 480.96 371.116V372.556H480.48V372.916H480.96V373.636L481.44 373.876V372.916H482.04V372.556H481.44V371.236 371.116H481.56 481.68C481.8 371.116 481.92 371.116 481.92 371.116Z" fill="#ffffff" fill-rule="evenodd"/><path transform="matrix(1,0,0,-1,0,595.276)" d="M469.08 376.156C469.68 376.156 470.16 376.396 470.64 376.876 471.12 377.356 471.24 377.956 471.24 378.436 471.24 379.036 471.12 379.636 470.64 380.116 470.16 380.476 469.68 380.716 469.08 380.716 468.72 380.716 468.24 380.596 468 380.236 468 380.956 468.48 381.556 469.08 381.556 469.32 381.556 469.56 381.556 469.8 381.556 470.04 381.436 470.16 381.316 470.28 381.196L471.12 381.556C470.76 382.156 470.04 382.516 469.08 382.516 468.96 382.516 468.72 382.516 468.48 382.396 468.36 382.396 468.12 382.276 468 382.156 467.4 381.796 466.92 380.596 466.92 379.396 466.92 378.796 467.04 378.196 467.16 377.716 467.28 377.236 467.52 376.876 467.76 376.636 468.12 376.396 468.6 376.156 469.08 376.156ZM470.16 378.556V378.556 378.436C470.16 378.556 470.16 378.436 470.16 378.556ZM470.16 378.556C470.16 378.436 470.16 378.556 470.16 378.436V378.316C470.16 378.196 470.16 378.076 470.16 377.956 470.04 377.836 470.04 377.716 469.92 377.596 469.68 377.356 469.44 377.236 469.2 377.236 468.84 377.236 468.6 377.356 468.36 377.596 468.12 377.836 468.12 378.196 468.12 378.556 468.12 379.276 468.6 379.756 469.2 379.756 469.44 379.756 469.68 379.636 469.92 379.396 470.04 379.276 470.04 379.156 470.16 379.036 470.16 378.916 470.16 378.796 470.16 378.676V378.556Z" fill="#ffffff" fill-rule="evenodd"/><path transform="matrix(1,0,0,-1,0,595.276)" d="M455.4 367.996V367.516H457.44L457.08 366.916 456.6 366.436 456 365.956 455.4 365.476 455.76 365.116 456.24 365.476 456.72 365.836 457.2 366.316 457.56 366.676V363.676H458.04V366.556L458.16 366.676 458.04 366.796H457.92 457.56L458.04 367.516H459.96V367.996Z" fill="#ffffff" fill-rule="evenodd"/><path transform="matrix(1,0,0,-1,0,595.276)" d="M459.6 364.996 460.08 365.236 459.72 365.716 459.36 366.196 459 366.556 458.64 366.916 458.28 366.676 459 365.836Z" fill="#ffffff" fill-rule="evenodd"/><path transform="matrix(1,0,0,-1,0,595.276)" d="M461.76 368.116V367.756H463.2V368.116Z" fill="#ffffff" fill-rule="evenodd"/><path transform="matrix(1,0,0,-1,0,595.276)" d="M461.64 367.516V367.156H463.32V367.516Z" fill="#ffffff" fill-rule="evenodd"/><path transform="matrix(1,0,0,-1,0,595.276)" d="M461.76 366.796V366.316H463.2V366.796Z" fill="#ffffff" fill-rule="evenodd"/><path transform="matrix(1,0,0,-1,0,595.276)" d="M461.76 366.076V365.716H463.2V366.076Z" fill="#ffffff" fill-rule="evenodd"/><path transform="matrix(1,0,0,-1,0,595.276)" d="M463.32 365.356H461.76V363.676H462.12V364.036H462.84V363.796H463.32V365.356ZM462.12 364.396V364.996H462.84V364.396H462.12Z" fill="#ffffff" fill-rule="evenodd"/><path transform="matrix(1,0,0,-1,0,595.276)" d="M463.8 368.116V367.636L463.68 367.276 463.56 366.916 463.44 366.676 463.2 366.556 463.68 366.316 463.92 366.676 464.16 367.036 464.28 367.396V367.756H464.88V366.916 366.676 366.556L465 366.436H465.24 465.72 465.84L465.96 366.556 466.08 366.676V366.796L466.2 367.156 465.72 367.276V367.036L465.6 366.916 465.48 366.796H465.36L465.24 366.916V367.036 368.116Z" fill="#ffffff" fill-rule="evenodd"/><path transform="matrix(1,0,0,-1,0,595.276)" d="M463.56 366.076V365.716H465.12L464.88 365.236 464.64 364.756 464.4 365.116 464.16 365.596 463.8 365.356 464.04 364.876 464.4 364.516 463.92 364.276 463.32 364.156 463.68 363.676 464.28 363.916 464.76 364.276 465.24 363.916 465.72 363.676 466.08 364.156 465.48 364.276 465 364.516 465.36 365.116 465.72 365.956 465.36 366.196V366.076Z" fill="#ffffff" fill-rule="evenodd"/><path transform="matrix(1,0,0,-1,0,595.276)" d="M467.76 367.156V366.796H468.48V365.716L467.52 365.476 467.64 365.116 467.76 364.996H467.88V365.116L468.48 365.356V364.396 364.276L468.36 364.156H468.24 468.12 467.88L468 363.676H468.36L468.6 363.796 468.84 363.916V364.036 364.156 365.476L469.56 365.716V366.076L468.84 365.836V366.796H469.56V367.156H468.84V367.996L468.96 368.116V368.236H468.72 468.48V367.156Z" fill="#ffffff" fill-rule="evenodd"/><path transform="matrix(1,0,0,-1,0,595.276)" d="M469.68 366.916V366.436L470.28 366.556 470.4 365.836 470.64 365.116 470.28 364.876 470.04 364.756 469.68 364.516 469.44 364.396 469.68 364.036 470.28 364.276 470.76 364.636 470.88 364.276 471.24 363.916V363.796L471.36 363.676H471.48L471.6 363.796H471.72L471.84 363.916 471.96 364.156 472.08 364.396 472.2 364.636 471.84 364.996 471.72 364.516 471.6 364.396 471.48 364.276H471.36L471.24 364.636 471.12 364.996 471.36 365.476 471.72 365.956H471.84V366.076 366.196H471.72L471.36 366.316 471.12 365.956 470.88 365.476 470.76 366.076V366.676L472.08 366.916V367.276L470.76 367.156V367.996 368.116 368.236H470.64 470.28V367.036Z" fill="#ffffff" fill-rule="evenodd"/><path transform="matrix(1,0,0,-1,0,595.276)" d="M471.6 367.396 471.96 367.636 471.6 367.996 471.36 368.236 471 367.876 471.36 367.636Z" fill="#ffffff" fill-rule="evenodd"/><path transform="matrix(1,0,0,-1,0,595.276)" d="M474 367.636 473.76 367.276 474.48 366.796 474 366.196H473.76L473.88 365.716H474L474.48 365.836V363.676H474.96V365.836L475.2 365.956V365.716H475.56L475.44 366.196 475.32 366.676 474.96 366.556 475.08 366.316 474.6 366.196 475.32 367.276H475.44V367.396 367.516L475.08 367.636 474.72 367.156 474.48 367.276 474.84 367.876 474.96 367.996 474.84 368.116 474.6 368.236 474.12 367.516Z" fill="#ffffff" fill-rule="evenodd"/><path transform="matrix(1,0,0,-1,0,595.276)" d="M473.76 364.156 474.24 364.036V364.636L474.36 365.236V365.356L473.88 365.476V364.756Z" fill="#ffffff" fill-rule="evenodd"/><path transform="matrix(1,0,0,-1,0,595.276)" d="M475.44 367.996V367.636H476.64V367.516H475.68V367.276H478.08V367.516H477V367.636H478.32V367.996H477L477.12 368.116V368.236H477 476.64V367.996Z" fill="#ffffff" fill-rule="evenodd"/><path transform="matrix(1,0,0,-1,0,595.276)" d="M475.56 367.156V366.076H478.2V367.156H475.56ZM475.92 366.556V366.796H476.52L476.28 366.676 475.92 366.556ZM475.92 366.556 476.16 366.316 476.4 366.436 476.64 366.556 476.76 366.676 476.88 366.796H477V366.556L477.12 366.436H477.24 477.84V366.556H477.48V366.676H477.36V366.796H477.84V366.316H475.92V366.556Z" fill="#ffffff" fill-rule="evenodd"/><path transform="matrix(1,0,0,-1,0,595.276)" d="M475.8 365.836V364.276H476.28L475.8 364.156 475.44 364.036 475.68 363.676 476.76 364.156 476.52 364.276H477.36L477.12 364.156 477.48 363.916 477.96 363.676 478.32 364.036 477.84 364.156 477.48 364.276H477.96V365.836H475.8ZM476.16 365.476V365.596H477.6V365.476H476.16ZM476.16 364.636V364.756H477.6V364.636H476.16ZM476.16 364.996V365.236H477.6V364.996H476.16Z" fill="#ffffff" fill-rule="evenodd"/><path transform="matrix(1,0,0,-1,0,595.276)" d="M475.44 365.476 475.08 365.356 475.2 364.396H475.68L475.56 364.996Z" fill="#ffffff" fill-rule="evenodd"/><path transform="matrix(1,0,0,-1,0,595.276)" stroke-width=".12" stroke-linecap="round" stroke-linejoin="round" fill="none" stroke="#0000ff" d="M484.56 361.876V383.956C484.56 384.916 483.84 385.636 482.88 385.636H450.84C449.88 385.636 449.16 384.916 449.16 383.956V361.876C449.16 360.916 449.88 360.196 450.84 360.196H482.88C483.84 360.196 484.56 360.916 484.56 361.876"/></g></svg>