<?xml version='1.0' encoding='UTF-8'?>
<svg width="556.90" height="219.70" viewBox="4.90 36.91 556.90 219.70" xmlns="http://www.w3.org/2000/svg" xmlns:xlink="http://www.w3.org/1999/xlink" xmlns:inkscape="http://www.inkscape.org/namespaces/inkscape" version="1.1"><g transform="scale(10.0) translate(-383.985, -20.304)"><path transform="matrix(1,0,0,-1,0,595.276)" d="M387.48 570.676H432.24C432.72 570.676 433.08 570.676 433.56 570.436 433.92 570.196 434.16 569.836 434.4 569.476L439.32 560.956C439.44 560.716 439.56 560.476 439.56 560.356 439.56 560.116 439.44 559.876 439.32 559.756L434.4 551.116C434.16 550.756 433.92 550.396 433.56 550.276 433.08 550.036 432.72 549.916 432.24 549.916H387.48C386.88 549.916 386.28 550.156 385.8 550.636 385.2 551.116 385.08 551.716 385.08 552.316V568.276C385.08 568.636 385.08 568.876 385.2 569.236 385.32 569.476 385.56 569.716 385.8 570.076 386.28 570.556 386.88 570.676 387.48 570.676Z" fill="#ffffff" fill-rule="evenodd"/><path transform="matrix(1,0,0,-1,0,595.276)" d="M387.48 569.476H432.24C432.48 569.476 432.72 569.476 432.84 569.356 433.08 569.236 433.2 569.116 433.32 568.876L438.36 560.356 433.32 551.716C433.2 551.596 433.08 551.356 432.84 551.236 432.72 551.116 432.48 551.116 432.24 551.116H387.48C387.36 551.116 387.12 551.116 387 551.236 386.88 551.236 386.76 551.356 386.64 551.476 386.52 551.596 386.4 551.716 386.4 551.836 386.28 552.076 386.28 552.196 386.28 552.316V568.276C386.28 568.636 386.4 568.876 386.64 569.116 386.88 569.356 387.24 569.476 387.48 569.476Z" fill="#0000ff" fill-rule="evenodd"/><path transform="matrix(1,0,0,-1,0,595.276)" d="M393.6 565.756C393.6 566.236 393.12 566.716 392.52 566.716 392.04 566.716 391.56 566.236 391.56 565.756 391.56 565.156 392.04 564.676 392.52 564.676 393.12 564.676 393.6 565.156 393.6 565.756Z" fill="#ffffff" fill-rule="evenodd"/><path transform="matrix(1,0,0,-1,0,595.276)" stroke-width=".12" stroke-linecap="butt" stroke-miterlimit="10" stroke-linejoin="miter" fill="none" stroke="#ffffff" d="M390.5 563.5V563.5"/><path transform="matrix(1,0,0,-1,0,595.276)" d="M390.6 563.356V563.356L390.12 562.516 389.64 559.756 390.24 559.516 390.84 562.156 391.32 562.516 389.88 557.116 388.68 555.076 389.28 554.476 391.44 557.476 392.04 558.916 393.36 556.756 393.84 553.876H394.68L394.44 556.756 393.36 559.876 393.48 561.916 393.96 561.436 395.52 560.116 395.88 560.716 394.56 561.916 394.2 563.116C393.84 563.716 393.24 564.196 392.52 564.316 391.68 564.316 390.96 563.956 390.6 563.356Z" fill="#ffffff" fill-rule="evenodd"/><path transform="matrix(1,0,0,-1,0,595.276)" d="M404.4 559.276H400.68L400.32 564.676C400.32 564.796 400.32 564.916 400.32 565.036 400.44 565.276 400.44 565.396 400.56 565.516 400.8 565.756 401.04 565.756 401.4 565.756 401.64 565.756 401.88 565.756 402.12 565.516 402.36 565.276 402.36 564.916 402.36 564.676 402.36 564.436 402.24 564.196 402 563.956 401.88 563.836 401.76 563.716 401.64 563.716 401.52 563.716 401.4 563.716 401.16 563.716L401.4 561.676H404.04V560.836H401.4L401.52 560.116H405L406.44 556.996 407.4 557.476 407.64 556.876 405.84 556.036 404.4 559.276Z" fill="#ffffff" fill-rule="evenodd"/><path transform="matrix(1,0,0,-1,0,595.276)" d="M400.2 560.236C399.6 559.876 399.12 559.036 399.24 557.956 399.36 556.996 399.96 556.276 400.68 555.916 401.28 555.676 402.24 555.556 403.08 556.156 403.56 556.396 403.8 556.756 404.04 557.116 404.28 557.596 404.28 557.956 404.28 558.316L405 556.996C404.76 556.516 404.52 556.036 404.04 555.676 403.68 555.316 403.08 555.076 402.48 554.956 401.88 554.716 401.28 554.836 400.8 554.956 400.2 555.076 399.84 555.436 399.48 555.676 399.12 556.036 398.76 556.396 398.52 556.996 398.28 557.476 398.28 558.076 398.28 558.676 398.4 559.276 398.64 559.876 398.88 560.356 399.12 560.476 399.24 560.716 399.48 560.836 399.6 560.956 399.72 561.076 399.72 561.076 399.84 561.196 399.84 561.196 399.96 561.196V561.316H400.08L400.2 560.236Z" fill="#ffffff" fill-rule="evenodd"/><path transform="matrix(1,0,0,-1,0,595.276)" d="M418.08 553.516C420.24 553.516 422.28 554.236 423.84 555.556 425.4 556.756 426.24 558.556 426.24 560.356 426.24 562.156 425.4 563.836 423.84 565.156 422.28 566.356 420.24 567.076 418.08 567.076 415.92 567.076 413.76 566.356 412.2 565.156 410.64 563.836 409.8 562.156 409.8 560.356 409.8 558.556 410.64 556.756 412.2 555.556 413.76 554.236 415.92 553.516 418.08 553.516Z" fill="#ff0000" fill-rule="evenodd"/><path transform="matrix(1,0,0,-1,0,595.276)" stroke-width=".12" stroke-linecap="butt" stroke-miterlimit="10" stroke-linejoin="miter" fill="none" stroke="#ffffff" d="M422.5 556.5V556.5"/><path transform="matrix(1,0,0,-1,0,595.276)" stroke-width=".12" stroke-linecap="butt" stroke-miterlimit="10" stroke-linejoin="miter" fill="none" stroke="#ffffff" d="M422.5 564.5V564.5"/><path transform="matrix(1,0,0,-1,0,595.276)" d="M413.88 556.036C414 556.876 414.36 557.836 414.96 558.556 415.68 559.276 416.52 559.636 417.36 559.756V560.836C416.52 560.956 415.68 561.436 414.96 562.156 414.36 562.876 414 563.716 413.88 564.556H415.32C415.44 563.476 416.28 562.516 417.36 562.276V564.916H418.68V562.276C419.16 562.396 419.64 562.636 420.12 563.116 420.48 563.596 420.72 564.076 420.72 564.556H422.16C422.04 563.716 421.8 562.876 421.08 562.156 420.36 561.436 419.52 560.956 418.68 560.836V559.756C419.52 559.636 420.36 559.276 421.08 558.556 421.44 558.196 421.68 557.716 421.8 557.356 422.04 556.876 422.16 556.396 422.16 556.036H420.72C420.72 556.516 420.48 557.116 420.12 557.596 419.76 558.076 419.16 558.316 418.68 558.436V555.796H417.36V558.436C416.28 558.196 415.44 557.236 415.32 556.036H413.88Z" fill="#ffffff" fill-rule="evenodd"/><path transform="matrix(1,0,0,-1,0,595.276)" d="M413.88 564.556V564.556Z" fill="#ffffff" fill-rule="evenodd"/><path transform="matrix(1,0,0,-1,0,595.276)" d="M420.72 564.556V564.556Z" fill="#ffffff" fill-rule="evenodd"/><path transform="matrix(1,0,0,-1,0,595.276)" d="M420.72 556.036V556.036Z" fill="#ffffff" fill-rule="evenodd"/><path transform="matrix(1,0,0,-1,0,595.276)" d="M418.68 555.796V555.796Z" fill="#ffffff" fill-rule="evenodd"/><path transform="matrix(1,0,0,-1,0,595.276)" d="M417.36 555.796V555.796Z" fill="#ffffff" fill-rule="evenodd"/><path transform="matrix(1,0,0,-1,0,595.276)" d="M413.88 556.036V556.036Z" fill="#ffffff" fill-rule="evenodd"/><path transform="matrix(1,0,0,-1,0,595.276)" d="M427.56 567.676 431.88 560.356 427.56 552.916H431.76L435.96 560.356 431.76 567.676Z" fill="#ffffff" fill-rule="evenodd"/><path transform="matrix(1,0,0,-1,0,595.276)" stroke-width=".12" stroke-linecap="round" stroke-linejoin="round" fill="none" stroke="#0000ff" d="M434.4 569.476 439.32 560.956C439.56 560.596 439.56 560.116 439.32 559.756L434.4 551.116C433.92 550.396 433.2 549.916 432.24 549.916H387.48C386.16 549.916 385.08 550.996 385.08 552.316V568.276C385.08 569.596 386.16 570.676 387.48 570.676H432.24C433.2 570.676 433.92 570.316 434.4 569.476"/></g></svg>