<?xml version='1.0' encoding='UTF-8'?>
<svg width="248.47" height="249.67" viewBox="148.31 11.12 248.47 249.67" xmlns="http://www.w3.org/2000/svg" xmlns:xlink="http://www.w3.org/1999/xlink" xmlns:inkscape="http://www.inkscape.org/namespaces/inkscape" version="1.1"><g transform="scale(10.0) translate(-220.305, -154.944)"><defs><clipPath id="clip_2"><path transform="matrix(1,0,0,-1,0,595.276)" d="M74.4 .196H767.4V595.276H74.4Z"/></clipPath></defs><path transform="matrix(1,0,0,-1,0,595.276)" d="M259.68 426.796C259.68 429.916 258.48 433.036 256.2 435.316 253.92 437.596 250.8 438.916 247.56 438.916 244.32 438.916 241.32 437.596 239.04 435.316 236.76 433.036 235.44 429.916 235.44 426.796 235.44 423.556 236.76 420.436 239.04 418.156 241.32 415.876 244.32 414.556 247.56 414.556 250.8 414.556 253.92 415.876 256.2 418.156 258.48 420.436 259.68 423.556 259.68 426.796Z" fill="#ffffff" fill-rule="evenodd"/><path transform="matrix(1,0,0,-1,0,595.276)" d="M259.2 426.796C259.2 429.796 258 432.796 255.84 434.956 253.68 437.236 250.68 438.436 247.56 438.436 244.44 438.436 241.56 437.236 239.4 434.956 237.12 432.796 235.92 429.796 235.92 426.796 235.92 423.676 237.12 420.676 239.4 418.516 241.56 416.356 244.44 415.036 247.56 415.036 250.68 415.036 253.68 416.356 255.84 418.516 258 420.676 259.2 423.676 259.2 426.796Z" fill="#0000ff" fill-rule="evenodd"/><path transform="matrix(1,0,0,-1,0,595.276)" d="M237.96 428.956H243.12V428.596H244.68V429.196H237.96L237.84 429.076C237.84 429.076 237.84 428.956 237.96 428.956Z" fill="#ffffff" fill-rule="evenodd"/><path transform="matrix(1,0,0,-1,0,595.276)" d="M241.44 426.916H241.56L241.68 426.796 241.92 426.196 241.8 426.076H241.68V426.196L241.44 426.676H241.08C240.96 426.676 240.96 426.676 240.84 426.796V426.916L240.6 428.476V428.596H240.72L240.84 428.476 241.08 427.036V426.916H241.44Z" fill="#ffffff" fill-rule="evenodd"/><path transform="matrix(1,0,0,-1,0,595.276)" d="M243.96 427.636C243.84 427.636 243.72 427.516 243.48 427.516 243.48 427.396 243.48 427.396 243.6 427.396V427.276L243.84 426.676H243.72L243.48 427.276C243.36 427.396 243.36 427.396 243.24 427.516 243.24 427.636 243.12 427.636 243 427.636 242.64 427.756 242.52 427.636 242.4 427.516 242.28 427.396 242.28 427.396 242.28 427.516H242.16C242.16 427.516 242.16 427.636 242.28 427.636 242.4 427.756 242.52 427.876 242.76 427.876 243 427.876 243.12 427.756 243.24 427.756 243.36 427.636 243.48 427.636 243.6 427.636 243.6 427.636 243.72 427.756 243.84 427.756 243.84 427.876 243.96 427.876 244.08 427.876L244.2 427.756C244.2 427.756 244.2 427.636 244.2 427.516 244.2 427.516 244.08 427.516 244.08 427.396H243.96V427.516 427.636H244.08C244.08 427.636 244.08 427.756 243.96 427.756V427.636Z" fill="#ffffff" fill-rule="evenodd"/><path transform="matrix(1,0,0,-1,0,595.276)" d="M243.24 425.596C243.24 425.356 243.36 425.116 243.6 424.876 243.84 424.756 244.08 424.636 244.32 424.636 244.56 424.636 244.8 424.756 244.92 424.876 245.16 425.116 245.28 425.356 245.28 425.596 245.28 425.836 245.16 426.076 244.92 426.316 244.8 426.556 244.56 426.556 244.32 426.556 244.08 426.556 243.84 426.556 243.6 426.316 243.36 426.076 243.24 425.836 243.24 425.596ZM243.48 425.596C243.48 425.836 243.48 426.076 243.72 426.196 243.84 426.316 244.08 426.436 244.32 426.436 244.44 426.436 244.68 426.316 244.8 426.196 245.04 426.076 245.04 425.836 245.04 425.596 245.04 425.476 245.04 425.236 244.8 424.996 244.68 424.876 244.44 424.756 244.32 424.756 244.08 424.756 243.84 424.876 243.72 424.996 243.48 425.236 243.48 425.476 243.48 425.596Z" fill="#ffffff" fill-rule="evenodd"/><path transform="matrix(1,0,0,-1,0,595.276)" stroke-width=".12" stroke-linecap="butt" stroke-miterlimit="10" stroke-linejoin="miter" fill="none" stroke="#ffffff" d="M243.5 425.5V425.5"/><path transform="matrix(1,0,0,-1,0,595.276)" d="M243 425.836H243.24C243.24 425.956 243.12 426.076 243 426.196 242.88 426.316 242.76 426.316 242.64 426.316V426.556H242.76V426.676 426.796H242.64 242.4C242.28 426.796 242.28 426.676 242.28 426.676 242.28 426.676 242.28 426.556 242.4 426.556L242.52 426.316C242.4 426.316 242.28 426.196 242.28 426.196 242.16 426.076 242.16 425.956 242.16 425.836H242.28C242.28 425.956 242.28 426.076 242.4 426.076 242.52 426.196 242.52 426.196 242.64 426.196 242.76 426.196 242.88 426.196 242.88 426.076 243 426.076 243 425.956 243 425.836Z" fill="#ffffff" fill-rule="evenodd"/><path transform="matrix(1,0,0,-1,0,595.276)" d="M239.88 425.836H243.24V425.476H239.88Z" fill="#ffffff" fill-rule="evenodd"/><path transform="matrix(1,0,0,-1,0,595.276)" d="M242.76 425.236C242.64 425.236 242.52 425.236 242.4 425.356 242.28 425.356 242.28 425.356 242.16 425.476H242.4C242.52 425.476 242.52 425.356 242.64 425.356 242.76 425.356 242.76 425.476 242.88 425.476H243.12L243 425.356C243 425.356 242.88 425.356 242.88 425.236V424.996H243 243.12V424.876H243 242.76 242.64V424.996H242.76V425.236Z" fill="#ffffff" fill-rule="evenodd"/><path transform="matrix(1,0,0,-1,0,595.276)" d="M237.84 425.596C237.84 425.356 237.96 425.116 238.2 424.876 238.32 424.756 238.56 424.636 238.8 424.636 239.04 424.636 239.28 424.756 239.52 424.876 239.76 425.116 239.76 425.356 239.76 425.596 239.76 425.836 239.76 426.076 239.52 426.316 239.28 426.556 239.04 426.556 238.8 426.556 238.56 426.556 238.32 426.556 238.2 426.316 237.96 426.076 237.84 425.836 237.84 425.596ZM238.08 425.596C238.08 425.836 238.08 426.076 238.32 426.196 238.44 426.316 238.68 426.436 238.8 426.436 239.04 426.436 239.28 426.316 239.4 426.196 239.64 426.076 239.64 425.836 239.64 425.596 239.64 425.476 239.64 425.236 239.4 424.996 239.28 424.876 239.04 424.756 238.8 424.756 238.68 424.756 238.44 424.876 238.32 424.996 238.08 425.236 238.08 425.476 238.08 425.596Z" fill="#ffffff" fill-rule="evenodd"/><path transform="matrix(1,0,0,-1,0,595.276)" d="M238.68 425.476H238.92L238.68 425.716Z" fill="#ffffff" fill-rule="evenodd"/><path transform="matrix(1,0,0,-1,0,595.276)" d="M237.84 425.836H237.36V425.716H237.24V425.596L237.36 425.476H237.84V425.836Z" fill="#ffffff" fill-rule="evenodd"/><path transform="matrix(1,0,0,-1,0,595.276)" d="M238.92 426.676H239.52 239.64L239.88 425.956C239.88 425.836 239.88 425.836 240 425.836H240.12V425.956L239.88 426.796C239.76 426.796 239.76 426.796 239.76 426.916H239.64 238.92V427.036L238.68 428.476 238.56 428.596 238.44 428.476 238.68 426.916C238.68 426.796 238.8 426.676 238.92 426.676Z" fill="#ffffff" fill-rule="evenodd"/><path transform="matrix(1,0,0,-1,0,595.276)" d="M240.48 425.476C240.48 425.236 240.36 425.116 240.12 424.996 239.88 424.756 239.64 424.756 239.52 424.756 239.52 424.876 239.64 424.876 239.64 424.996 239.76 424.996 240 424.996 240.12 425.116L240.24 425.236C240.24 425.356 240.36 425.476 240.36 425.476H240.48Z" fill="#ffffff" fill-rule="evenodd"/><path transform="matrix(1,0,0,-1,0,595.276)" d="M244.8 426.556C244.92 426.676 245.28 426.556 245.4 426.436 245.52 426.436 245.64 426.316 245.76 426.196 245.76 426.076 245.76 425.956 245.76 425.836H246C246 425.956 245.88 426.076 245.88 426.316 245.76 426.436 245.64 426.556 245.52 426.676 245.28 426.676 245.16 426.796 244.92 426.796 244.92 426.796 244.8 426.676 244.68 426.676H244.56C244.56 426.556 244.68 426.556 244.8 426.556Z" fill="#ffffff" fill-rule="evenodd"/><path transform="matrix(1,0,0,-1,0,595.276)" d="M245.28 425.836H246.12C246.24 425.836 246.24 425.836 246.24 425.716V425.596C246.24 425.596 246.24 425.476 246.12 425.476H245.28V425.836Z" fill="#ffffff" fill-rule="evenodd"/><path transform="matrix(1,0,0,-1,0,595.276)" d="M245.16 424.996C245.28 424.996 245.4 424.996 245.52 425.116 245.64 425.236 245.76 425.356 245.76 425.476H245.88C245.88 425.236 245.76 425.116 245.52 424.996 245.4 424.876 245.16 424.756 244.92 424.756 245.04 424.876 245.04 424.876 245.16 424.996Z" fill="#ffffff" fill-rule="evenodd"/><path transform="matrix(1,0,0,-1,0,595.276)" d="M254.16 424.276H254.76L254.64 426.076 253.92 428.116 254.04 429.436 254.28 429.076 255.24 428.236 255.48 428.596 254.64 429.436 254.4 430.156C254.28 430.276 254.16 430.516 253.92 430.636 253.8 430.756 253.56 430.876 253.32 430.876 253.08 430.876 252.84 430.876 252.72 430.756 252.48 430.636 252.24 430.516 252.12 430.276L251.88 429.676 251.52 427.996 251.88 427.876 252.36 429.556 252.6 429.796 251.76 426.316 250.92 425.116 251.28 424.636 252.72 426.556 253.08 427.516 253.92 426.196 254.16 424.276Z" fill="#ffffff" fill-rule="evenodd"/><path transform="matrix(1,0,0,-1,0,595.276)" d="M247.8 420.196H247.44V436.396H247.8Z" fill="#ffffff" fill-rule="evenodd"/><path transform="matrix(1,0,0,-1,0,595.276)" d="M254.04 431.716C254.04 432.076 253.8 432.436 253.44 432.436 253.08 432.436 252.72 432.076 252.72 431.716 252.72 431.356 253.08 431.116 253.44 431.116 253.8 431.116 254.04 431.356 254.04 431.716Z" fill="#ffffff" fill-rule="evenodd"/><path transform="matrix(1,0,0,-1,0,595.276)" d="M244.2 425.476H244.44L244.2 425.716Z" fill="#ffffff" fill-rule="evenodd"/><path transform="matrix(1,0,0,-1,0,595.276)" stroke-width=".12" stroke-linecap="round" stroke-linejoin="round" fill="none" stroke="#0000ff" d="M259.68 426.796C259.68 429.916 258.48 433.036 256.2 435.316 253.92 437.596 250.8 438.916 247.56 438.916 244.32 438.916 241.32 437.596 239.04 435.316 236.76 433.036 235.44 429.916 235.44 426.796 235.44 423.556 236.76 420.436 239.04 418.156 241.32 415.876 244.32 414.556 247.56 414.556 250.8 414.556 253.92 415.876 256.2 418.156 258.48 420.436 259.68 423.556 259.68 426.796"/></g></svg>