<?xml version='1.0' encoding='UTF-8'?>
<svg width="198.47" height="262.73" viewBox="185.52 4.62 198.47 262.73" xmlns="http://www.w3.org/2000/svg" xmlns:xlink="http://www.w3.org/1999/xlink" xmlns:inkscape="http://www.inkscape.org/namespaces/inkscape" version="1.1"><g transform="scale(10.0) translate(-438.573, -101.088)"><defs><clipPath id="clip_19"><path transform="matrix(0,1,1,0,0,0)" d="M0 74.451H595.008V767.55899H0Z"/></clipPath><clipPath id="clip_20"><path transform="matrix(0,1,1,0,0,0)" d="M0 842.013H595.224V.008972168H0Z"/></clipPath></defs><path transform="matrix(0,1,1,0,476.715,103.284)" d="M0 0H22.806C22.986 0 23.166-.036 23.346-.108 23.544-.18 23.706-.288 23.85-.432 23.994-.576 24.12-.756 24.192-.936 24.264-1.116 24.282-1.314 24.282-1.494V-17.856C24.282-18.018 24.264-18.216 24.192-18.396 24.12-18.576 23.994-18.756 23.85-18.9 23.706-19.044 23.544-19.152 23.346-19.224 23.166-19.296 22.986-19.332 22.806-19.332H0C-.18-19.332-.36-19.296-.54-19.224-.72-19.152-.9-19.044-1.044-18.9-1.188-18.756-1.296-18.576-1.368-18.396-1.44-18.216-1.476-18.018-1.476-17.856V-1.494C-1.476-1.314-1.44-1.116-1.368-.936-1.296-.756-1.188-.594-1.044-.432-.9-.288-.72-.18-.54-.108-.36-.036-.18 0 0 0ZM22.806-.738H15.714C15.534-.738 15.354-.81 15.192-.954 15.12-1.044 15.066-1.116 15.03-1.206 14.994-1.314 14.976-1.404 14.976-1.494V-17.856C14.976-18.036 15.048-18.216 15.192-18.378 15.354-18.522 15.534-18.594 15.714-18.594H22.806C22.986-18.594 23.184-18.522 23.328-18.378 23.49-18.216 23.544-18.036 23.544-17.856V-1.494C23.544-1.314 23.49-1.116 23.328-.954 23.184-.81 22.986-.738 22.806-.738ZM0-.738C-.18-.738-.378-.81-.522-.954-.666-1.116-.738-1.314-.738-1.494V-17.856C-.738-18.036-.666-18.216-.522-18.378-.378-18.522-.18-18.594 0-18.594H13.752C13.842-18.594 13.932-18.576 14.022-18.54 14.13-18.504 14.202-18.45 14.274-18.378 14.436-18.216 14.49-18.036 14.49-17.856V-1.494C14.49-1.404 14.49-1.314 14.454-1.206 14.418-1.116 14.346-1.044 14.274-.954 14.13-.81 13.932-.738 13.752-.738H0" fill-rule="evenodd"/><path transform="matrix(0,1,1,0,458.859,118.26)" d="M0 0V16.362C0 16.452 .018 16.542 .054 16.65 .09 16.74 .144 16.812 .216 16.902 .288 16.974 .378 17.028 .468 17.064 .558 17.1 .666 17.118 .738 17.118H7.83C8.01 17.118 8.208 17.046 8.352 16.902 8.514 16.74 8.568 16.542 8.568 16.362V0C8.568-.18 8.514-.36 8.352-.522 8.208-.666 8.01-.738 7.83-.738H.738C.558-.738 .378-.666 .216-.522 .072-.36 0-.18 0 0" fill="#ffffff" fill-rule="evenodd"/><path transform="matrix(0,1,1,0,458.859,117.774)" d="M0 0V16.362C0 16.452 0 16.542-.036 16.65-.072 16.74-.144 16.812-.216 16.902-.288 16.974-.36 17.028-.468 17.064-.558 17.1-.648 17.118-.738 17.118H-14.49C-14.67 17.118-14.868 17.046-15.012 16.902-15.084 16.812-15.138 16.74-15.174 16.65-15.21 16.542-15.228 16.452-15.228 16.362V0C-15.228-.18-15.156-.36-15.012-.522-14.94-.594-14.85-.648-14.76-.684-14.67-.72-14.58-.738-14.49-.738H-.738C-.558-.738-.36-.666-.216-.522-.054-.36 0-.18 0 0" fill="#ffff00" fill-rule="evenodd"/><path transform="matrix(0,1,1,0,460.893,113.526)" d="M0 0 .36-.36H1.998C2.07-.36 2.178-.342 2.25-.27 2.322-.18 2.358-.09 2.358 0V1.548C2.25 1.53 2.124 1.53 2.016 1.548 1.89 1.584 1.764 1.638 1.656 1.71 1.566 1.8 1.476 1.908 1.422 2.016 1.368 2.124 1.35 2.25 1.35 2.358 1.35 2.448 1.368 2.574 1.422 2.682 1.476 2.808 1.566 2.898 1.656 2.988 1.764 3.078 1.89 3.132 2.016 3.15 2.124 3.168 2.25 3.168 2.358 3.15V8.622C2.25 8.604 2.124 8.586 2.016 8.622 1.89 8.64 1.764 8.694 1.656 8.784 1.566 8.856 1.476 8.964 1.422 9.09 1.368 9.198 1.35 9.306 1.35 9.414 1.35 9.522 1.368 9.648 1.422 9.756 1.476 9.864 1.566 9.972 1.656 10.062 1.764 10.134 1.89 10.188 2.016 10.224 2.142 10.242 2.25 10.242 2.358 10.206L1.8 12.672H-1.458C-1.62 12.672-1.818 12.618-1.962 12.456-2.106 12.312-2.178 12.132-2.178 11.952V.72C-2.178 .63-2.16 .54-2.124 .45-2.088 .36-2.034 .27-1.962 .198-1.818 .054-1.62 0-1.458 0H0ZM-.18 4.338H-1.2780001V6.696H-.18ZM-1.278 9.414H-.17999995V7.0559999H-1.278ZM-.18 9.414ZM-.18 12.312V9.774H-1.278V11.952C-1.278 12.042-1.242 12.132-1.17 12.204-1.134 12.24-1.08 12.276-1.044 12.294-.99 12.312-.954 12.312-.918 12.312H-.18ZM-.18 1.62H-1.2780001V3.9780002H-.18ZM-1.278 1.26H1.8000001V.36000998H-1.278Z" fill-rule="evenodd"/><path transform="matrix(0,1,1,0,471.027,115.704)" d="M0 0C-.198 0-.378-.072-.522-.198-.648-.342-.738-.522-.738-.72-.738-.9-.666-1.08-.522-1.224-.378-1.386-.18-1.44 0-1.44 .162-1.44 .36-1.386 .504-1.224 .648-1.08 .72-.9 .72-.72 .72-.522 .648-.342 .504-.198 .36-.072 .18 0 0 0ZM0-.36C.198-.36 .36-.522 .36-.72 .36-.81 .324-.9 .252-.972 .18-1.044 .072-1.08 0-1.08-.216-1.08-.378-.918-.378-.72-.378-.522-.216-.36 0-.36" fill-rule="evenodd"/><path transform="matrix(0,1,1,0,463.971,115.704)" d="M0 0C-.198 0-.378-.072-.522-.216-.648-.36-.738-.54-.738-.72-.738-.9-.666-1.098-.522-1.242-.378-1.386-.18-1.458 0-1.458 .162-1.458 .36-1.386 .504-1.242 .648-1.098 .72-.9 .72-.72 .72-.54 .648-.36 .504-.216 .36-.072 .18 0 0 0ZM0-.36C.198-.36 .36-.522 .36-.72 .36-.81 .324-.918 .252-.99 .18-1.062 .072-1.098 0-1.098-.216-1.098-.378-.936-.378-.72-.378-.522-.216-.36 0-.36" fill-rule="evenodd"/><path transform="matrix(0,1,1,0,460.965,121.284)" d="M0 0 .234-.072C.234-.162 .216-.234 .198-.27 .18-.324 .162-.36 .108-.378 .18-.396 .234-.54 .234-.648 .234-.792 .216-.918 .126-.99 .054-1.08-.036-1.116-.18-1.116-.288-1.116-.396-1.062-.45-.954-.522-.828-.54-.666-.54-.45H-.594C-.63-.45-.666-.45-.684-.468-.72-.504-.72-.54-.72-.576-.72-.648-.72-.72-.684-.774-.666-.828-.63-.882-.594-.936L-.828-1.08C-.936-.972-1.008-.81-1.008-.594-1.008-.45-.972-.342-.918-.252-.864-.18-.792-.126-.666-.108H-.09C-.036-.108 0-.072 0 0ZM-.162-.774C-.108-.792-.09-.774-.054-.738-.036-.702-.036-.666-.036-.594-.036-.522-.072-.468-.108-.45H-.306C-.306-.558-.288-.648-.27-.702-.234-.756-.198-.774-.162-.774" fill-rule="evenodd"/><path transform="matrix(0,1,1,0,462.333,120.6)" d="M0 0C0-.09 .072-.18 .162-.198H.864V-.504H.09C.036-.504 0-.576 0-.666 0-.756 .072-.846 .162-.864H.864V-1.17H-.27V-.864H-.216C-.252-.828-.27-.774-.288-.738-.306-.684-.306-.648-.306-.594-.306-.45-.252-.342-.162-.288-.27-.216-.306-.108-.306 .036-.306 .234-.216 .378-.036 .45-.036 .45-.018 .45-.018 .468H0C0 .468 0 .468 0 .468H.864V.162H.09C.072 .162 .054 .144 .018 .108 0 .09 0 .054 0 0" fill-rule="evenodd"/><path transform="matrix(0,1,1,0,0,0)" d="M122.292 467.661H122.83199V469.371H122.292Z"/><path transform="matrix(0,1,1,0,465.249,124.344)" d="M0 0V.792L-2.862 1.944H-3.6V-.612H-2.862V1.152" fill-rule="evenodd"/><path transform="matrix(0,1,1,0,471.225,120.744)" d="M0 0H3.6V-.738H1.026V-1.278H.36C.36-1.188 .36-1.098 .342-1.026 .324-.936 .306-.882 .27-.828 .234-.774 .198-.738 .162-.72 .108-.684 .054-.684 0-.684V0" fill-rule="evenodd"/><path transform="matrix(0,1,1,0,475.311,122.544)" d="M0 0C-.63 0-1.116-.144-1.44-.414-1.764-.666-1.926-1.062-1.926-1.602-1.926-2.124-1.764-2.52-1.44-2.79-1.116-3.06-.63-3.186 0-3.186 .648-3.186 1.134-3.06 1.458-2.79 1.782-2.52 1.944-2.124 1.944-1.602 1.944-1.062 1.782-.666 1.458-.414 1.134-.144 .648 0 0 0ZM0-.774C.414-.774 .72-.846 .936-.99 1.134-1.116 1.242-1.332 1.242-1.602 1.242-2.142 .828-2.412 0-2.412-.414-2.412-.72-2.34-.918-2.214-1.134-2.07-1.224-1.872-1.224-1.602-1.224-1.062-.81-.774 0-.774" fill-rule="evenodd"/><path transform="matrix(0,1,1,0,470.271,106.758)" d="M0 0C-.846 0-1.674-.342-2.268-.954-2.88-1.548-3.204-2.376-3.204-3.222-3.204-4.086-2.88-4.896-2.268-5.508-1.674-6.102-.846-6.444 0-6.444 .864-6.444 1.674-6.102 2.286-5.508 2.898-4.896 3.222-4.086 3.222-3.222 3.222-2.376 2.898-1.548 2.286-.954 1.674-.342 .864 0 0 0" fill="#ff0000" fill-rule="evenodd"/><path transform="matrix(0,1,1,0,465.465,104.724)" d="M0 0C-.162 .216-.288 .45-.396 .72-.486 .99-.54 1.278-.54 1.584-.54 1.872-.486 2.16-.396 2.448-.288 2.718-.162 2.952 0 3.168L1.584 1.584 0 0" fill="#0000ff" fill-rule="evenodd"/><path transform="matrix(0,1,1,0,465.015,108.342)" d="M0 0C-.198-.162-.45-.306-.72-.396-.99-.486-1.278-.54-1.584-.54-1.872-.54-2.16-.486-2.43-.396-2.7-.306-2.952-.162-3.15 0L-1.584 1.584 0 0" fill="#0000ff" fill-rule="evenodd"/><path transform="matrix(0,1,1,0,465.465,108.81)" d="M0 0C.162 .216 .288 .45 .378 .72 .486 .99 .54 1.278 .54 1.584 .54 1.872 .486 2.16 .378 2.448 .288 2.718 .162 2.952 0 3.168L-1.584 1.584 0 0" fill="#0000ff" fill-rule="evenodd"/><path transform="matrix(0,1,1,0,469.083,108.342)" d="M0 0C-.198 .162-.45 .306-.72 .396-.99 .486-1.278 .54-1.584 .54-1.872 .54-2.16 .486-2.43 .396-2.7 .306-2.952 .162-3.15 0L-1.584-1.584 0 0" fill="#0000ff" fill-rule="evenodd"/><path transform="matrix(0,1,1,0,459.903,122.67)" d="M0 0V-.162H1.8V-1.008H2.034V1.116H1.8V.072H.99V.9H.774V.072H.108L.072 .126H.036L.018 .09" fill-rule="evenodd"/><path transform="matrix(0,1,1,0,461.793,123.39)" d="M0 0 .126 .234-.198 .504V1.008H.288V-.018H.504V1.008H1.422V1.224H.504V2.106H.288V1.224H-.198V1.944H-.414V.63L-.576 .738-.594 .792-.63 .81-.648 .792-.684 .738-.738 .576-.342 .306" fill-rule="evenodd"/></g></svg>