<?xml version='1.0' encoding='UTF-8'?>
<svg width="330.24" height="269.40" viewBox="119.55 1.29 330.24 269.40" xmlns="http://www.w3.org/2000/svg" xmlns:xlink="http://www.w3.org/1999/xlink" xmlns:inkscape="http://www.inkscape.org/namespaces/inkscape" version="1.1"><g transform="scale(10.0) translate(-547.707, -154.944)"><defs><clipPath id="clip_19"><path transform="matrix(0,1,1,0,0,0)" d="M0 74.451H595.008V767.55899H0Z"/></clipPath><clipPath id="clip_20"><path transform="matrix(0,1,1,0,0,0)" d="M0 842.013H595.224V.008972168H0Z"/></clipPath></defs><path transform="matrix(0,1,1,0,590.997,181.548)" d="M0 0V-29.628C0-29.79-.018-29.934-.072-30.096-.144-30.24-.234-30.384-.36-30.51-.486-30.636-.63-30.726-.774-30.798-.936-30.852-1.08-30.87-1.242-30.87H-24.768C-24.912-30.87-25.074-30.852-25.236-30.798-25.38-30.726-25.524-30.636-25.65-30.51-25.776-30.384-25.866-30.24-25.92-30.096-25.992-29.934-26.01-29.79-26.01-29.628V0C-26.01 .144-25.992 .288-25.92 .45-25.866 .612-25.776 .738-25.65 .864-25.524 .99-25.38 1.08-25.236 1.152-25.074 1.206-24.912 1.224-24.768 1.224H-1.242C-1.08 1.224-.936 1.206-.774 1.152-.63 1.08-.486 .99-.36 .864-.234 .738-.144 .594-.072 .45-.018 .288 0 .144 0 0" fill="#ffffff" fill-rule="evenodd"/><path transform="matrix(0,1,1,0,561.369,156.15)" d="M0 0V29.628C0 29.7 .018 29.772 .054 29.844 .072 29.934 .126 30.006 .18 30.06 .252 30.114 .324 30.168 .396 30.204 .468 30.222 .558 30.24 .63 30.24H24.156C24.318 30.24 24.48 30.186 24.606 30.06 24.732 29.934 24.786 29.772 24.786 29.628V0C24.786-.162 24.732-.324 24.606-.45 24.534-.504 24.462-.558 24.39-.594 24.318-.612 24.246-.63 24.156-.63H.63C.468-.63 .306-.558 .18-.45 .072-.324 0-.18 0 0" fill="#0000ff" fill-rule="evenodd"/><path transform="matrix(0,1,1,0,0,0)" d="M156.78 585.327H180.306V585.939H156.78Z" fill="#ffffff"/><path transform="matrix(0,1,1,0,0,0)" d="M156.78 584.085H180.306V584.697H156.78Z" fill="#ffffff"/><path transform="matrix(0,1,1,0,590.439,171.036)" d="M0 0 1.656-1.656 0-3.33H-1.656L-.558-2.214H-6.642V-1.116H-.558L-1.656 0" fill="#ffffff" fill-rule="evenodd"/><path transform="matrix(0,1,1,0,582.915,166.05)" d="M0 0-1.656-1.674 0-3.33H1.656L.558-2.214H6.642V-1.116H.558L1.656 0" fill="#ffffff" fill-rule="evenodd"/><path transform="matrix(0,1,1,0,0,0)" d="M156.996 577.569H180.09V578.415H156.996Z" fill="#ffffff"/><path transform="matrix(0,1,1,0,574.131,169.02)" d="M0 0 .414-2.016V-2.484H.288C.126-2.484-.054-2.538-.198-2.682-.342-2.826-.414-3.006-.414-3.168-.414-3.348-.342-3.528-.198-3.672-.126-3.744-.054-3.798 .036-3.816 .126-3.852 .216-3.87 .288-3.87H.414V-6.498H.288C.126-6.498-.054-6.552-.198-6.696-.342-6.84-.414-7.02-.414-7.182-.414-7.362-.342-7.542-.198-7.686-.054-7.83 .126-7.884 .288-7.884H.414V-9.684C.414-9.756 .396-9.828 .342-9.882 .288-9.936 .216-9.954 .144-9.954H-.468C-.486-9.954-.522-9.954-.54-9.954-.576-9.954-.594-9.936-.63-9.936L-1.386-9.702-3.618-9.486C-3.69-9.486-3.744-9.45-3.798-9.396-3.852-9.342-3.87-9.27-3.87-9.216V-.54C-3.87-.414-3.816-.27-3.708-.162-3.654-.108-3.582-.054-3.51-.036-3.456 0-3.384 0-3.312 0H0ZM-1.242-9.576V-9.126H-1.926V-9.504L-1.242-9.576ZM-1.926-8.856H.14399994V-8.028H-1.926ZM.144-8.856ZM-1.926-7.74H-1.098V-6.4981H-1.926ZM-1.098-7.74ZM-1.926-6.228H-1.098V-4.9680006H-1.926ZM-1.926-4.698H-1.098V-3.4561H-1.926ZM-1.926-3.168H-1.098V-1.926H-1.926ZM-1.926-1.656H-1.098V-.26999999H-1.926ZM-2.754-1.926H-3.59999V-3.168H-2.754ZM-3.6-4.698H-2.75401V-3.4561H-3.6ZM-2.754-4.698ZM-3.6-6.228H-2.75401V-4.9680006H-3.6ZM-2.754-6.228ZM-3.6-7.74H-2.75401V-6.4981H-3.6ZM-2.754-7.74ZM-2.754-9.288V-8.028H-3.6V-9.216L-2.754-9.288ZM-2.754-.27V-.27ZM-2.754-.27H-3.312C-3.348-.27-3.384-.27-3.42-.288-3.456-.306-3.492-.324-3.51-.36-3.564-.414-3.6-.486-3.6-.54V-1.656H-2.754V-.27" fill="#ffffff" fill-rule="evenodd"/><path transform="matrix(0,1,1,0,574.131,169.02)" d="M0 0V0" fill="#ffffff" fill-rule="evenodd"/><path transform="matrix(0,1,1,0,570.261,169.434)" d="M0 0V0" fill="#ffffff" fill-rule="evenodd"/><path transform="matrix(0,1,1,0,571.503,169.308)" d="M0 0C-.144 0-.288-.036-.396-.162-.504-.27-.558-.414-.558-.54-.558-.702-.504-.828-.396-.936-.288-1.044-.144-1.098 0-1.098 .126-1.098 .27-1.044 .378-.936 .504-.828 .54-.684 .54-.54 .54-.396 .486-.27 .378-.162 .288-.054 .144 0 0 0ZM0-.27C.144-.27 .27-.396 .27-.54 .27-.612 .252-.684 .198-.738 .126-.792 .054-.828 0-.828-.162-.828-.288-.702-.288-.54-.288-.486-.252-.414-.198-.36-.144-.306-.072-.27 0-.27" fill="#ffffff" fill-rule="evenodd"/><path transform="matrix(0,1,1,0,567.489,169.308)" d="M0 0C-.144 0-.288-.036-.396-.162-.504-.27-.558-.414-.558-.54-.558-.702-.504-.828-.396-.936-.288-1.044-.144-1.098 0-1.098 .126-1.098 .27-1.044 .378-.936 .504-.828 .54-.684 .54-.54 .54-.396 .486-.252 .378-.162 .288-.054 .144 0 0 0ZM0-.27C.144-.27 .27-.396 .27-.54 .27-.612 .252-.684 .198-.738 .126-.792 .054-.828 0-.828-.162-.828-.288-.702-.288-.54-.288-.486-.252-.414-.198-.36-.144-.288-.072-.27 0-.27" fill="#ffffff" fill-rule="evenodd"/><path transform="matrix(0,1,1,0,0,0)" d="M170.946 562.413H175.01399V575.895H170.946Z" fill="#ffffff"/><path transform="matrix(0,1,1,0,564.141,171.882)" d="M0 0H-.018-.036C-.036 0-.036 0-.036 0H-.054C-.054 0-.054 0-.054 0-.072 0-.072-.018-.072-.018-.09-.036-.09-.054-.09-.072-.09-.162-.072-.234-.018-.288L-.162-.378C-.198-.342-.216-.306-.234-.252-.252-.198-.27-.144-.252-.09-.27 .09-.198 .18-.072 .198H.288C.288 .198 .306 .198 .306 .216 .324 .234 .324 .234 .324 .27L.468 .216C.468 .162 .468 .126 .45 .09 .432 .072 .414 .054 .396 .036 .432 .018 .468-.054 .468-.126 .468-.288 .378-.396 .234-.396 .162-.396 .108-.36 .054-.288 .018-.234 0-.126 0 0ZM.234-.198C.252-.198 .252-.198 .27-.198L.288-.18C.288-.18 .288-.18 .288-.18 .306-.162 .306-.126 .306-.09 .306-.036 .288-.018 .27 0H.144C.144-.072 .162-.108 .18-.144 .18-.18 .216-.198 .234-.198" fill-rule="evenodd"/><path transform="matrix(0,1,1,0,565.203,171.81)" d="M0 0C0-.054 .036-.108 .09-.108H.504V-.306H.054C.018-.306 0-.342 0-.396 0-.45 .036-.504 .09-.504H.504V-.684H-.162V-.504H-.126C-.144-.486-.162-.468-.18-.432-.18-.414-.18-.378-.18-.36-.18-.27-.162-.198-.09-.18-.162-.126-.18-.054-.18 .018-.18 .144-.126 .234-.036 .27H-.018C-.018 .27-.018 .27-.018 .27H0C0 .27 0 .27 0 .27H.018C.018 .27 .018 .27 .018 .27H.504V.09H.054C.036 .09 .018 .09 .018 .072 0 .054 0 .036 0 0" fill-rule="evenodd"/><path transform="matrix(0,1,1,0,0,0)" d="M172.764 569.433H173.214V570.76498H172.764Z"/><path transform="matrix(0,1,1,0,567.435,174.294)" d="M0 0V.594L-2.088 1.44H-2.628V-.432H-2.088V.864" fill-rule="evenodd"/><path transform="matrix(0,1,1,0,572.349,171.666)" d="M0 0H2.628V-.54H.756V-.936H.27C.27-.864 .252-.792 .252-.738 .234-.684 .216-.648 .198-.612 .18-.576 .144-.54 .108-.522 .09-.504 .054-.504 0-.504V0" fill-rule="evenodd"/><path transform="matrix(0,1,1,0,575.319,172.98)" d="M0 0C-.468 0-.81-.09-1.062-.288-1.296-.486-1.404-.774-1.404-1.152-1.404-1.548-1.296-1.836-1.062-2.034-.81-2.214-.468-2.322 0-2.322 .468-2.322 .828-2.214 1.062-2.034 1.296-1.836 1.422-1.548 1.422-1.152 1.422-.774 1.296-.486 1.062-.288 .828-.09 .468 0 0 0ZM0-.558C.612-.558 .9-.756 .9-1.152 .9-1.35 .828-1.512 .684-1.602 .54-1.71 .306-1.746 0-1.746-.594-1.746-.9-1.548-.9-1.152-.9-.954-.828-.81-.666-.702-.522-.612-.288-.558 0-.558" fill-rule="evenodd"/><path transform="matrix(0,1,1,0,0,0)" d="M175.482 562.413H179.568V575.895H175.482Z" fill="#ffffff"/><path transform="matrix(0,1,1,0,564.411,176.526)" d="M0 0C-.234 0-.36-.126-.36-.324-.36-.396-.342-.468-.306-.486H-.342V-.648H.558V-.468H.306C.342-.45 .378-.378 .36-.306 .36-.234 .342-.144 .27-.09 .198-.036 .09 0 0 0ZM.198-.342C.198-.36 .18-.396 .162-.432 .126-.45 .108-.468 .072-.468H-.108C-.144-.468-.198-.414-.198-.342V-.324C-.198-.288-.162-.216-.108-.198H.09C.162-.216 .198-.288 .198-.342" fill-rule="evenodd"/><path transform="matrix(0,1,1,0,565.239,176.346)" d="M0 0C0-.054 .054-.108 .09-.108H.522V-.306H.054C.018-.306 0-.342 0-.396 0-.45 .054-.504 .09-.504H.522V-.702H-.162V-.522H-.126C-.144-.486-.162-.468-.162-.432-.18-.414-.18-.378-.18-.36-.18-.27-.144-.216-.09-.18-.162-.126-.18-.072-.18 .018-.18 .144-.126 .216-.018 .27H0C0 .27-.018 .27 0 .27H.018C.018 .27 0 .27 .018 .27H.522V.09H.054C.036 .09 .036 .09 .018 .072 0 .054 0 .018 0 0" fill-rule="evenodd"/><path transform="matrix(0,1,1,0,569.001,177.858)" d="M0 0V.378H.54V0H.99V-.54H.54V-1.962H.036L-1.656-.702V0H0ZM-.972-.54 0-1.278V-.54H-.972" fill-rule="evenodd"/><path transform="matrix(0,1,1,0,0,0)" d="M177.3 570.009H177.75002V571.34097H177.3Z"/><path transform="matrix(0,1,1,0,572.295,178.848)" d="M0 0V.576L-2.106 1.422H-2.646V-.432H-2.106V.846" fill-rule="evenodd"/><path transform="matrix(0,1,1,0,570.819,159.192)" d="M0 0-1.656-1.656 0-3.33H1.656L.558-2.214H4.986V-1.116H.558L1.656 0" fill="#ffffff" fill-rule="evenodd"/><path transform="matrix(0,1,1,0,563.043,177.696)" d="M0 0H.144V.576H1.278V.72H.522L.666 .918 .828 1.098 .738 1.206 .522 .972 .36 .72H.144V1.35H0" fill-rule="evenodd"/><path transform="matrix(0,1,1,0,564.897,178.056)" d="M0 0 .09 .144-.126 .324V.63H.18V-.018H.324V.63H.9V.774H.324V1.332H.18V.774H-.126V1.224H-.27V.396L-.378 .468V.504H-.414L-.432 .468-.468 .36-.216 .198" fill-rule="evenodd"/><path transform="matrix(0,1,1,0,563.691,173.07)" d="M0 0-.018-.108H1.134V-.648H1.278V.702H1.134V.054H.612V.576H.486V.054H.054L.036 .09H.018L0 .054" fill-rule="evenodd"/><path transform="matrix(0,1,1,0,564.897,173.52)" d="M0 0 .072 .144-.126 .324V.63H.18V-.018H.324V.63H.9V.774H.324V1.332H.18V.774H-.126V1.224H-.27V.396L-.378 .468V.504H-.414L-.432 .468-.468 .36-.216 .198" fill-rule="evenodd"/><path transform="matrix(0,1,1,0,561.369,181.54802)" stroke-width=".288" stroke-linecap="round" stroke-linejoin="round" fill="none" stroke="#0000ff" d="M0 0C0-.702-.54-1.242-1.242-1.242"/><path transform="matrix(0,1,1,0,590.997,181.54802)" stroke-width=".288" stroke-linecap="round" stroke-linejoin="round" fill="none" stroke="#0000ff" d="M0 0V-29.628"/><path transform="matrix(0,1,1,0,592.221,180.30602)" stroke-width=".288" stroke-linecap="round" stroke-linejoin="round" fill="none" stroke="#0000ff" d="M0 0C.702 0 1.242-.54 1.242-1.224"/><path transform="matrix(0,1,1,0,592.221,156.78002)" stroke-width=".288" stroke-linecap="round" stroke-linejoin="round" fill="none" stroke="#0000ff" d="M0 0H23.526"/><path transform="matrix(0,1,1,0,590.997,155.53801)" stroke-width=".288" stroke-linecap="round" stroke-linejoin="round" fill="none" stroke="#0000ff" d="M0 0C0 .684 .558 1.224 1.242 1.224"/><path transform="matrix(0,1,1,0,561.369,155.53801)" stroke-width=".288" stroke-linecap="round" stroke-linejoin="round" fill="none" stroke="#0000ff" d="M0 0V29.628"/><path transform="matrix(0,1,1,0,560.127,156.78002)" stroke-width=".288" stroke-linecap="round" stroke-linejoin="round" fill="none" stroke="#0000ff" d="M0 0C-.684 0-1.242 .54-1.242 1.242"/><path transform="matrix(0,1,1,0,560.127,180.30602)" stroke-width=".288" stroke-linecap="round" stroke-linejoin="round" fill="none" stroke="#0000ff" d="M0 0H-23.526"/></g></svg>