<?xml version='1.0' encoding='UTF-8'?>
<svg width="201.89" height="260.69" viewBox="182.11 4.30 201.89 260.69" xmlns="http://www.w3.org/2000/svg" xmlns:xlink="http://www.w3.org/1999/xlink" xmlns:inkscape="http://www.inkscape.org/namespaces/inkscape" version="1.1"><g transform="scale(10.0) translate(-274.875, -531.936)"><path transform="matrix(1,0,0,-1,0,595.276)" d="M312.96 38.356C312.96 37.996 312.96 37.756 312.72 37.516 312.48 37.276 312.12 37.156 311.88 37.156H294.6C294.24 37.156 294 37.276 293.76 37.516 293.52 37.756 293.4 37.996 293.4 38.356V61.396C293.4 61.636 293.52 61.996 293.76 62.236 293.88 62.356 294 62.476 294.12 62.476 294.24 62.596 294.36 62.596 294.6 62.596H311.88C312.12 62.596 312.48 62.476 312.72 62.236 312.96 61.996 312.96 61.636 312.96 61.396V38.356Z" fill="#ffffff" fill-rule="evenodd"/><path transform="matrix(1,0,0,-1,0,595.276)" d="M304.56 37.756V50.956L305.04 51.436 312.48 43.996V57.556L308.04 61.996H294.6C294.36 61.996 294.24 61.876 294.12 61.756 294 61.636 294 61.516 294 61.396V47.956L295.2 46.756C295.56 46.396 295.8 46.156 295.92 45.676 296.04 45.316 296.16 44.956 296.16 44.596V37.756H304.56Z" fill="#0000ff" fill-rule="evenodd"/><path transform="matrix(1,0,0,-1,0,595.276)" d="M302.28 55.756V57.916H304.44L305.52 56.836H304.08L311.4 49.636 310.56 48.916 303.36 56.116V54.676Z" fill="#ffffff" fill-rule="evenodd"/><path transform="matrix(1,0,0,-1,0,595.276)" d="M305.28 58.756V60.916H307.44L308.52 59.836H307.08L311.04 55.876 310.32 55.156 306.36 59.116V57.676Z" fill="#ffffff" fill-rule="evenodd"/><path transform="matrix(1,0,0,-1,0,595.276)" d="M304.2 51.436 304.56 51.796 303 53.476 302.52 52.996Z" fill="#ffffff" fill-rule="evenodd"/><path transform="matrix(1,0,0,-1,0,595.276)" d="M301.8 53.836 302.16 54.196 300.48 55.876 300.12 55.516Z" fill="#ffffff" fill-rule="evenodd"/><path transform="matrix(1,0,0,-1,0,595.276)" d="M299.28 56.236 299.76 56.716 298.08 58.276 297.72 57.916Z" fill="#ffffff" fill-rule="evenodd"/><path transform="matrix(1,0,0,-1,0,595.276)" d="M296.88 58.756 297.24 59.116 295.68 60.796 295.2 60.316Z" fill="#ffffff" fill-rule="evenodd"/><path transform="matrix(1,0,0,-1,0,595.276)" d="M298.08 53.716H300.24L301.32 52.636H299.88L301.32 51.076C301.68 50.836 301.92 50.356 302.16 49.996 302.28 49.516 302.4 49.036 302.4 48.556V38.356H301.44V48.556C301.44 48.916 301.32 49.276 301.2 49.516 301.08 49.876 300.84 50.116 300.6 50.356L299.16 51.916V50.476L298.08 51.556V53.716Z" fill="#ffffff" fill-rule="evenodd"/><path transform="matrix(1,0,0,-1,0,595.276)" d="M295.08 50.716H297.24L298.32 49.636H296.88L298.32 48.196C298.68 47.836 298.92 47.476 299.04 46.996 299.28 46.636 299.4 46.156 299.4 45.676V38.356H298.32V45.676C298.32 46.036 298.2 46.276 298.08 46.636 297.96 46.996 297.84 47.236 297.6 47.476L296.16 48.916V47.476L295.08 48.556V50.716Z" fill="#ffffff" fill-rule="evenodd"/><path transform="matrix(1,0,0,-1,0,595.276)" stroke-width=".12" stroke-linecap="round" stroke-linejoin="round" fill="none" stroke="#0000ff" d="M312.96 38.356V61.396C312.96 61.996 312.48 62.596 311.88 62.596H294.6C293.88 62.596 293.4 61.996 293.4 61.396V38.356C293.4 37.636 293.88 37.156 294.6 37.156H311.88C312.48 37.156 312.96 37.636 312.96 38.356"/></g></svg>