<?xml version='1.0' encoding='UTF-8'?>
<svg width="260.69" height="260.69" viewBox="153.13 5.74 260.69 260.69" xmlns="http://www.w3.org/2000/svg" xmlns:xlink="http://www.w3.org/1999/xlink" xmlns:inkscape="http://www.inkscape.org/namespaces/inkscape" version="1.1"><g transform="scale(10.0) translate(-438.573, -47.232)"><defs><clipPath id="clip_2"><path transform="matrix(1,0,0,-1,0,595.276)" d="M74.4 .196H767.4V595.276H74.4Z"/></clipPath></defs><path transform="matrix(1,0,0,-1,0,595.276)" d="M479.64 534.436C479.64 537.796 478.32 541.036 475.92 543.436 473.52 545.836 470.28 547.156 466.92 547.156 463.56 547.156 460.32 545.836 457.92 543.436 455.52 541.036 454.2 537.796 454.2 534.436 454.2 531.076 455.52 527.836 457.92 525.436 460.32 523.036 463.56 521.716 466.92 521.716 470.28 521.716 473.52 523.036 475.92 525.436 478.32 527.836 479.64 531.076 479.64 534.436Z" fill="#ff0000" fill-rule="evenodd"/><path transform="matrix(1,0,0,-1,0,595.276)" d="M474.84 527.956 460.44 542.356C461.4 543.076 462.36 543.676 463.56 544.036 464.76 544.516 466.08 544.636 467.4 544.636 468.72 544.516 470.04 544.276 471.12 543.676 472.32 543.196 473.28 542.476 474.12 541.636 475.92 539.836 476.88 537.436 477.12 534.916 477.24 532.396 476.4 529.996 474.84 527.956Z" fill="#ffffff" fill-rule="evenodd"/><path transform="matrix(1,0,0,-1,0,595.276)" d="M475.08 538.876V533.476H469.32L463.92 538.876Z" fill-rule="evenodd"/><path transform="matrix(1,0,0,-1,0,595.276)" d="M475.32 531.796V533.236H469.68L471 531.796C471.24 531.916 471.36 532.036 471.6 532.036 471.84 532.036 472.08 532.036 472.32 531.916 472.56 531.796 472.8 531.676 472.92 531.436 473.04 531.316 473.16 531.076 473.16 530.836 473.16 531.076 473.16 531.196 473.16 531.436 473.16 531.436 473.04 531.556 473.04 531.676L472.92 531.796H475.32Z" fill-rule="evenodd"/><path transform="matrix(1,0,0,-1,0,595.276)" d="M471.24 531.676C471.6 531.916 472.32 531.916 472.68 531.556 472.92 531.316 473.04 531.076 473.04 530.836 473.04 530.476 472.92 530.236 472.8 529.996L472.44 530.356C472.56 530.596 472.44 530.956 472.32 531.076 472.2 531.196 472.08 531.196 471.96 531.316 471.84 531.316 471.72 531.316 471.6 531.196L471.24 531.676Z" fill-rule="evenodd"/><path transform="matrix(1,0,0,-1,0,595.276)" d="M474.48 539.836C474.72 539.716 474.84 539.356 474.84 538.996H463.8C463.8 539.356 463.92 539.596 464.16 539.836 464.16 540.076 464.16 540.436 464.28 540.676 464.52 540.916 464.76 541.036 465 541.156 465 541.396 465.12 541.756 465.36 541.996 465.72 542.236 466.08 542.236 466.32 542.116 466.32 542.596 466.56 542.956 466.92 543.076 467.28 543.196 467.76 543.196 468 542.836 468 543.196 468.12 543.556 468.48 543.676 468.84 543.796 469.2 543.556 469.32 543.316 469.44 543.556 469.8 543.796 470.16 543.676 470.52 543.556 470.64 543.196 470.52 542.836 470.88 543.076 471.24 543.196 471.6 543.076 472.08 542.956 472.32 542.596 472.32 542.116 472.56 542.236 472.92 542.236 473.16 541.996 473.4 541.756 473.52 541.396 473.52 541.156 473.88 541.036 474.12 540.916 474.24 540.676 474.48 540.436 474.48 540.076 474.48 539.836Z" fill="#ffff00" fill-rule="evenodd"/><path transform="matrix(1,0,0,-1,0,595.276)" d="M465 540.436 466.8 540.316 465 540.676Z" fill-rule="evenodd"/><path transform="matrix(1,0,0,-1,0,595.276)" d="M466.68 541.516 466.8 541.636 466.68 541.516Z" fill-rule="evenodd"/><path transform="matrix(1,0,0,-1,0,595.276)" d="M466.68 541.516 466.56 541.396 467.64 540.676Z" fill-rule="evenodd"/><path transform="matrix(1,0,0,-1,0,595.276)" d="M470.52 540.676V540.676Z" fill-rule="evenodd"/><path transform="matrix(1,0,0,-1,0,595.276)" d="M470.52 540.676 470.16 540.436 470.28 541.396 469.92 541.156 469.32 541.996 468.72 541.156 468.24 541.396 468.48 540.436 468 540.676V540.196L467.64 540.316 468 539.356 468.48 539.236H468.84L469.32 540.316 469.68 539.236H470.16L470.52 539.356 471 540.316 470.52 540.196Z" fill-rule="evenodd"/><path transform="matrix(1,0,0,-1,0,595.276)" d="M471.6 540.436C471.72 540.436 471.84 540.436 471.96 540.436H472.08V540.316H471.96 471.84V540.196H471.72 471.6V540.316C471.6 540.316 471.6 540.436 471.72 540.436H471.6Z" fill-rule="evenodd"/><path transform="matrix(1,0,0,-1,0,595.276)" d="M473.04 540.436 473.64 540.556 473.52 540.676Z" fill-rule="evenodd"/><path transform="matrix(1,0,0,-1,0,595.276)" d="M473.28 539.476C473.28 539.596 473.28 539.716 473.4 539.716H473.52 473.64L473.52 539.596V539.476H473.4C473.4 539.356 473.28 539.356 473.28 539.356H473.16L473.28 539.476Z" fill-rule="evenodd"/><path transform="matrix(1,0,0,-1,0,595.276)" d="M472.68 541.036H472.92L472.68 541.276Z" fill-rule="evenodd"/><path transform="matrix(1,0,0,-1,0,595.276)" d="M471.84 541.756H472.2L471.84 541.996Z" fill-rule="evenodd"/><path transform="matrix(1,0,0,-1,0,595.276)" d="M471 540.676 472.08 541.396 471.84 541.516Z" fill-rule="evenodd"/><path transform="matrix(1,0,0,-1,0,595.276)" d="M471 540.676V540.676Z" fill-rule="evenodd"/><path transform="matrix(1,0,0,-1,0,595.276)" d="M470.64 542.476C470.88 542.476 471.24 542.596 471.24 542.596H471.36C471.36 542.596 471.36 542.476 471.24 542.476 471.12 542.476 471.12 542.476 471.12 542.356H471 470.88 470.76 470.64V542.476Z" fill-rule="evenodd"/><path transform="matrix(1,0,0,-1,0,595.276)" d="M470.52 543.076 469.68 541.516 470.16 543.196Z" fill-rule="evenodd"/><path transform="matrix(1,0,0,-1,0,595.276)" d="M468.48 543.316 468.6 542.356 468.24 543.196 468.48 543.316Z" fill-rule="evenodd"/><path transform="matrix(1,0,0,-1,0,595.276)" d="M468 541.636H468.36L468 541.876Z" fill-rule="evenodd"/><path transform="matrix(1,0,0,-1,0,595.276)" d="M467.52 541.876H467.76L467.52 542.116Z" fill-rule="evenodd"/><path transform="matrix(1,0,0,-1,0,595.276)" d="M473.28 526.516 459 540.796C458.28 539.956 457.68 538.876 457.2 537.676 456.84 536.476 456.6 535.156 456.72 533.956 456.72 532.636 457.08 531.316 457.68 530.116 458.16 529.036 458.88 528.076 459.72 527.236 460.44 526.396 461.52 525.676 462.6 525.196 463.8 524.596 465 524.356 466.32 524.236 467.64 524.236 468.96 524.356 470.16 524.836 471.36 525.196 472.44 525.796 473.28 526.516Z" fill="#ffffff" fill-rule="evenodd"/><path transform="matrix(1,0,0,-1,0,595.276)" d="M467.88 530.836H464.76V531.676H467.88Z" fill-rule="evenodd"/><path transform="matrix(1,0,0,-1,0,595.276)" stroke-width=".12" stroke-linecap="butt" stroke-miterlimit="10" stroke-linejoin="miter" fill="none" stroke="#000000" d="M459.5 534.5V534.5"/><path transform="matrix(1,0,0,-1,0,595.276)" d="M459 534.076V534.076C458.64 533.956 458.4 533.476 458.4 532.996V530.716H459.6C459.6 531.436 460.2 532.036 460.92 532.036 461.64 532.036 462.24 531.436 462.24 530.716H464.52V531.796H468L466.68 533.236H464.52V533.476H466.32L460.92 538.876H459.36V536.836H460.92L459 534.076ZM462.12 536.596V533.956H459.48C459.48 533.956 459.36 533.956 459.36 534.076 459.24 534.076 459.24 534.196 459.24 534.196L459.36 534.316 460.8 536.596H462.12Z" fill-rule="evenodd"/><path transform="matrix(1,0,0,-1,0,595.276)" d="M459.6 530.716V530.716Z" fill-rule="evenodd"/><path transform="matrix(1,0,0,-1,0,595.276)" d="M462.12 530.716C462.12 530.956 462 531.316 461.76 531.556 461.52 531.796 461.28 531.796 460.92 531.796 460.68 531.796 460.32 531.796 460.08 531.556 459.84 531.316 459.72 530.956 459.72 530.716 459.72 530.356 459.84 530.116 460.08 529.876 460.32 529.636 460.68 529.516 460.92 529.516 461.28 529.516 461.52 529.636 461.76 529.876 462 530.116 462.12 530.356 462.12 530.716ZM461.52 530.716C461.52 530.356 461.28 530.116 460.92 530.116 460.56 530.116 460.32 530.356 460.32 530.716 460.32 531.076 460.56 531.316 460.92 531.316 461.04 531.316 461.28 531.196 461.4 531.076 461.52 530.956 461.52 530.836 461.52 530.716Z" fill-rule="evenodd"/><path transform="matrix(1,0,0,-1,0,595.276)" d="M466.2 539.236 468.48 539.116 466.2 539.476Z" fill-rule="evenodd"/><path transform="matrix(1,0,0,-1,0,595.276)" d="M465 539.476C465.12 539.596 465.12 539.596 465.12 539.716 465.24 539.716 465.36 539.716 465.36 539.716V539.596 539.476H465.24 465.12V539.356C465 539.356 465 539.356 465 539.476Z" fill-rule="evenodd"/><path transform="matrix(1,0,0,-1,0,595.276)" d="M470.16 539.116 472.32 539.236V539.356Z" fill-rule="evenodd"/></g></svg>