<?xml version='1.0' encoding='UTF-8'?>
<svg width="248.45" height="248.45" viewBox="148.33 12.34 248.45 248.45" xmlns="http://www.w3.org/2000/svg" xmlns:xlink="http://www.w3.org/1999/xlink" xmlns:inkscape="http://www.inkscape.org/namespaces/inkscape" version="1.1"><g transform="scale(10.0) translate(-220.305, -20.304)"><defs><clipPath id="clip_2"><path transform="matrix(1,0,0,-1,0,595.276)" d="M74.4 .196H767.4V595.276H74.4Z"/></clipPath></defs><path transform="matrix(1,0,0,-1,0,595.276)" d="M259.68 561.316C259.68 564.556 258.48 567.676 256.2 569.956 253.92 572.236 250.8 573.436 247.56 573.436 244.32 573.436 241.32 572.236 239.04 569.956 236.76 567.676 235.44 564.556 235.44 561.316 235.44 558.076 236.76 555.076 239.04 552.796 241.32 550.516 244.32 549.196 247.56 549.196 250.8 549.196 253.92 550.516 256.2 552.796 258.48 555.076 259.68 558.076 259.68 561.316Z" fill="#ffffff" fill-rule="evenodd"/><path transform="matrix(1,0,0,-1,0,595.276)" d="M259.2 561.316C259.2 564.436 258 567.436 255.84 569.596 253.68 571.756 250.68 572.956 247.56 572.956 244.44 572.956 241.56 571.756 239.4 569.596 237.12 567.436 235.92 564.436 235.92 561.316 235.92 558.316 237.12 555.316 239.4 553.156 241.56 550.876 244.44 549.676 247.56 549.676 250.68 549.676 253.68 550.876 255.84 553.156 258 555.316 259.2 558.316 259.2 561.316Z" fill="#0000ff" fill-rule="evenodd"/><path transform="matrix(1,0,0,-1,0,595.276)" stroke-width=".12" stroke-linecap="round" stroke-linejoin="round" fill="none" stroke="#0000ff" d="M259.68 561.316C259.68 564.556 258.48 567.676 256.2 569.956 253.92 572.236 250.8 573.436 247.56 573.436 244.32 573.436 241.32 572.236 239.04 569.956 236.76 567.676 235.44 564.556 235.44 561.316 235.44 558.076 236.76 555.076 239.04 552.796 241.32 550.516 244.32 549.196 247.56 549.196 250.8 549.196 253.92 550.516 256.2 552.796 258.48 555.076 259.68 558.076 259.68 561.316"/><path transform="matrix(1,0,0,-1,0,595.276)" d="M247.44 569.956C247.44 570.676 246.96 571.156 246.24 571.156 245.64 571.156 245.04 570.676 245.04 569.956 245.04 569.356 245.64 568.756 246.24 568.756 246.96 568.756 247.44 569.356 247.44 569.956Z" fill="#ffffff" fill-rule="evenodd"/><path transform="matrix(1,0,0,-1,0,595.276)" stroke-width=".12" stroke-linecap="butt" stroke-miterlimit="10" stroke-linejoin="miter" fill="none" stroke="#ffffff" d="M243.5 564.5V564.5"/><path transform="matrix(1,0,0,-1,0,595.276)" stroke-width=".12" stroke-linecap="butt" stroke-miterlimit="10" stroke-linejoin="miter" fill="none" stroke="#ffffff" d="M243.5 560.5V560.5"/><path transform="matrix(1,0,0,-1,0,595.276)" d="M243.48 564.556V564.556C243.24 564.436 243.12 564.556 242.88 564.676 242.76 564.796 242.64 565.036 242.64 565.156V565.516H243.72L243.12 566.716 244.8 568.036C245.28 568.396 246.12 568.636 246.96 568.396 247.32 568.276 247.68 568.036 247.92 567.796 248.16 567.556 248.28 567.196 248.4 566.836L248.76 565.756 250.08 566.116H252.12C252.36 566.116 252.48 566.116 252.6 565.876 252.6 565.876 252.6 565.756 252.6 565.636 252.6 565.636 252.6 565.516 252.6 565.396L251.76 564.316C251.76 564.196 251.64 564.196 251.64 564.076 251.64 563.956 251.64 563.956 251.76 563.836L252.36 561.916C252.72 562.156 253.32 562.276 253.92 562.156 254.52 562.156 255.12 561.916 255.6 561.556 256.2 561.196 256.56 560.716 256.8 560.116 257.04 559.636 257.04 559.036 257.04 558.556 257.04 558.076 256.92 557.596 256.56 556.996 256.32 556.516 255.84 556.036 255.24 555.796 254.76 555.436 254.04 555.316 253.44 555.316 252.84 555.436 252.36 555.556 252 555.796 251.52 556.036 251.16 556.396 250.8 556.876 250.44 557.356 250.2 557.956 250.2 558.676 250.2 559.276 250.32 559.876 250.68 560.476 250.92 560.956 251.28 561.316 251.76 561.556L251.64 561.796 248.64 559.396 248.88 555.676H247.8L247.32 557.836C247.2 557.716 246.84 557.716 246.6 557.716V557.476H246.72V557.236H246.48 246.24 246.12V557.476H246.36L246.48 557.836C246.36 557.836 246.24 557.956 246.12 558.076 246 558.196 246 558.316 245.88 558.436H244.92C244.8 557.596 244.44 556.636 243.6 556.036 242.64 555.436 241.68 555.196 240.84 555.436 240 555.556 239.16 556.156 238.56 556.996 238.08 557.956 237.96 559.036 238.32 559.756 238.56 560.596 239.16 561.436 240.12 561.916 241.08 562.276 242.04 562.276 242.88 561.916L243.84 563.716 243.48 564.556ZM247.32 563.596H251.04C251.04 563.836 250.92 563.956 251.04 564.196 251.04 564.316 251.16 564.556 251.16 564.676L251.76 565.516H250.08V565.756L248.88 564.436 247.56 565.876 247.32 563.596ZM248.4 560.116V560.116L251.4 562.516 251.28 562.996H247.56L248.4 560.116ZM252 560.956C251.28 560.476 250.8 559.516 250.92 558.436 251.04 557.476 251.76 556.636 252.48 556.276 253.08 556.036 254.16 555.916 255 556.396 255.96 556.996 256.32 557.956 256.32 558.676 256.44 559.516 256.08 560.476 255.12 561.076 254.76 561.316 254.28 561.436 253.8 561.556 253.32 561.556 252.84 561.436 252.6 561.316L252.84 560.236C253.08 559.756 253.44 559.276 253.8 559.036 254.04 558.916 254.04 558.796 253.92 558.556 253.8 558.436 253.68 558.436 253.44 558.436 253.2 558.676 252.96 558.916 252.72 559.156 252.48 559.396 252.36 559.756 252.24 560.116L252 560.956ZM247.32 557.956 247.08 559.636C246.96 559.636 246.84 559.636 246.72 559.516 246.6 559.516 246.48 559.396 246.36 559.396 246.12 559.156 246.12 558.796 246.12 558.556 246.12 558.436 246.24 558.076 246.6 557.956 246.84 557.836 247.08 557.956 247.32 557.956ZM245.4 560.716 245.16 559.636 244.92 559.396V559.276 559.156H245.88C246 559.156 246 559.156 246 559.276L246.12 559.396 245.4 560.716ZM246.96 559.756 245.64 561.796V561.676L246.72 559.756C246.72 559.756 246.84 559.756 246.96 559.756ZM244.2 558.436H244.08L242.16 556.396 241.08 556.636 242.28 558.436H241.56C241.44 558.436 241.32 558.436 241.2 558.556 241.08 558.676 241.08 558.916 241.2 558.916L242.52 561.316C242.28 561.436 241.92 561.556 241.44 561.556 241.08 561.556 240.72 561.436 240.36 561.196 239.64 560.836 239.16 560.236 238.92 559.516 238.68 558.916 238.8 558.076 239.16 557.356 239.64 556.636 240.24 556.276 240.96 556.156 241.68 555.916 242.4 556.036 243.12 556.516 243.84 556.996 244.2 557.716 244.2 558.436ZM243.48 561.556C243.6 561.436 243.72 561.436 243.96 561.196L244.2 562.756 243.48 561.556ZM244.08 564.676 244.44 564.076 244.68 564.916 244.08 564.676ZM244.44 565.516H244.68L244.8 566.956 244.2 566.476 244.44 565.516ZM242.76 559.156 243.72 560.356C243.6 560.596 243.36 560.836 243.12 560.956L242.04 559.156H242.76ZM242.76 559.156V559.156Z" fill="#ffffff" fill-rule="evenodd"/></g></svg>