<?xml version='1.0' encoding='UTF-8'?>
<svg width="319.22" height="269.18" viewBox="125.06 1.40 319.22 269.18" xmlns="http://www.w3.org/2000/svg" xmlns:xlink="http://www.w3.org/1999/xlink" xmlns:inkscape="http://www.inkscape.org/namespaces/inkscape" version="1.1"><g transform="scale(10.0) translate(-547.707, -262.656)"><defs><clipPath id="clip_19"><path transform="matrix(0,1,1,0,0,0)" d="M0 74.451H595.008V767.55899H0Z"/></clipPath><clipPath id="clip_20"><path transform="matrix(0,1,1,0,0,0)" d="M0 842.013H595.224V.008972168H0Z"/></clipPath></defs><path transform="matrix(0,1,1,0,561.909,263.25)" d="M0 0V28.53C0 28.674 .018 28.836 .09 28.98 .144 29.142 .234 29.286 .36 29.412 .486 29.52 .63 29.61 .774 29.682 .936 29.736 1.08 29.772 1.242 29.772H24.768C24.93 29.772 25.074 29.736 25.236 29.682 25.38 29.61 25.524 29.52 25.65 29.412 25.776 29.286 25.866 29.142 25.92 28.98 25.992 28.836 26.01 28.674 26.01 28.53V0C26.01-.144 25.992-.306 25.92-.45 25.866-.612 25.776-.756 25.65-.864 25.524-.99 25.38-1.08 25.236-1.152 25.074-1.206 24.93-1.242 24.768-1.242H1.242C1.08-1.242 .936-1.206 .774-1.152 .63-1.08 .486-.99 .36-.864 .234-.756 .144-.612 .09-.45 .018-.306 0-.144 0 0" fill="#ffffff" fill-rule="evenodd"/><path transform="matrix(0,1,1,0,561.909,263.862)" d="M0 0V28.53C0 28.602 .018 28.674 .054 28.746 .072 28.836 .126 28.908 .18 28.962 .252 29.034 .324 29.07 .396 29.106 .468 29.142 .558 29.142 .63 29.142H24.156C24.318 29.142 24.48 29.088 24.606 28.962 24.66 28.908 24.714 28.836 24.732 28.746 24.768 28.674 24.786 28.602 24.786 28.53V0C24.786-.144 24.732-.306 24.606-.432 24.534-.504 24.462-.54 24.39-.576 24.318-.594 24.228-.612 24.156-.612H.63C.468-.612 .306-.558 .18-.432 .054-.306 0-.144 0 0" fill="#0000ff" fill-rule="evenodd"/><path transform="matrix(0,1,1,0,567.237,283.284)" d="M0 0V.774H-.18V.198H-.486V.684H-.666V.198H-.972V.738H-1.152V0" fill="#ffffff" fill-rule="evenodd"/><path transform="matrix(0,1,1,0,568.749,283.284)" d="M0 0V.216L-.414-.072-.828 .18V-.018L-.54-.18-.828-.342V-.558L-.414-.306 0-.594V-.378L-.27-.18" fill="#ffffff" fill-rule="evenodd"/><path transform="matrix(0,1,1,0,569.415,283.158)" d="M0 0C0 .036 0 .072-.018 .108-.036 .144-.054 .162-.072 .18-.09 .198-.108 .216-.126 .234L-.054 .378 0 .342C.036 .324 .054 .306 .072 .288 .09 .27 .108 .234 .126 .216 .144 .162 .162 .09 .162 .036 .162-.036 .126-.108 .09-.18 .054-.252-.018-.288-.108-.324-.18-.342-.288-.342-.378-.342-.45-.324-.522-.288-.576-.252-.63-.198-.666-.144-.684-.09-.702-.018-.72 .054-.702 .126-.684 .216-.648 .27-.594 .324-.576 .342-.558 .36-.54 .36-.522 .378-.504 .378-.486 .396L-.414 .234C-.45 .216-.468 .198-.504 .162-.522 .162-.522 .144-.54 .126-.558 .072-.558 .018-.522-.036-.486-.09-.45-.108-.414-.144-.324-.162-.252-.162-.18-.144-.09-.126-.036-.072 0 0" fill="#ffffff" fill-rule="evenodd"/><path transform="matrix(0,1,1,0,570.261,283.302)" d="M0 0C.018 .09 .018 .18-.036 .27-.054 .324-.072 .36-.108 .378L-.234 .27-.216 .252C-.18 .216-.162 .162-.162 .108-.144 .054-.162 0-.18-.054-.198-.072-.234-.108-.27-.126-.288-.126-.306-.126-.324-.126H-.342C-.342-.126-.324-.126-.342-.126-.342-.144-.36-.126-.36-.126V.414C-.45 .432-.522 .414-.594 .396-.684 .378-.738 .324-.792 .27-.864 .144-.882 0-.81-.144-.738-.234-.648-.288-.522-.306-.414-.342-.288-.324-.18-.27-.144-.252-.09-.216-.054-.162-.018-.126 0-.072 0 0ZM-.486-.144C-.54-.126-.576-.126-.612-.108-.648-.09-.666-.054-.684-.036-.702 .018-.702 .09-.684 .144-.666 .162-.648 .198-.612 .216-.576 .234-.54 .252-.486 .252V-.144" fill="#ffffff" fill-rule="evenodd"/><path transform="matrix(0,1,1,0,571.071,282.456)" stroke-width=".288" stroke-linecap="round" stroke-linejoin="round" fill="none" stroke="#ffffff" d="M0 0H.036"/><path transform="matrix(0,1,1,0,571.089,282.51)" d="M0 0C-.036 .054-.054 .108-.054 .18-.054 .252-.036 .306 0 .378 .036 .432 .108 .486 .162 .522 .234 .558 .306 .558 .378 .558 .432 .558 .504 .558 .576 .522 .63 .486 .702 .45 .738 .378 .792 .324 .81 .252 .81 .18 .81 .126 .792 .054 .756 .018V0C.756 0 .756 0 .756 0 .756-.018 .756-.018 .774-.018H1.062V-.198H-.054V-.018H0V0C0 0 0 0 0 0ZM.162 .036C.198 0 .234-.018 .27-.018H.486C.522 0 .576 .018 .594 .054 .63 .09 .63 .144 .63 .198 .63 .252 .594 .306 .54 .324 .432 .396 .288 .396 .18 .324 .144 .288 .108 .234 .108 .162 .108 .126 .126 .072 .162 .036" fill="#ffffff" fill-rule="evenodd"/><path transform="matrix(0,1,1,0,572.151,283.104)" d="M0 0C.018 0 .036 .018 .036 .036 .036 .072 .036 .09 .036 .126 .036 .144 .036 .162 .036 .198L.18 .216C.216 .126 .216 .018 .18-.072 .162-.108 .144-.144 .108-.162 .09-.18 .054-.18 .018-.18H-.486V-.342H-.648V-.18H-.918L-.972 0H-.648V.216H-.486V0H0" fill="#ffffff" fill-rule="evenodd"/><path transform="matrix(0,1,1,0,564.195,284.058)" d="M0 0V0" fill="#ffffff" fill-rule="evenodd"/><path transform="matrix(0,1,1,0,564.195,284.058)" d="M0 0C-.09-.054-.162-.108-.216-.18-.27-.27-.306-.36-.306-.468-.306-.576-.27-.666-.198-.756-.144-.828-.072-.882 .018-.918 .09-.954 .18-.99 .288-.99 .414-.99 .522-.972 .63-.918 .72-.864 .81-.792 .864-.702 .9-.63 .936-.54 .936-.468 .936-.342 .882-.234 .792-.162H.882V.018H.252V-.486H.414V-.162H.486C.54-.162 .612-.18 .666-.252 .72-.306 .738-.378 .738-.468 .738-.558 .684-.684 .54-.738 .468-.774 .378-.792 .306-.792 .234-.792 .162-.774 .108-.756 .054-.72 0-.702-.054-.648-.09-.594-.108-.54-.126-.468-.126-.414-.108-.342-.054-.288-.018-.252 .036-.198 .072-.18L0 0" fill="#ffffff" fill-rule="evenodd"/><path transform="matrix(0,1,1,0,564.753,284.976)" d="M0 0C.018 .09 0 .198-.036 .27-.054 .324-.09 .36-.126 .396L-.252 .288-.234 .252C-.198 .216-.18 .162-.162 .126-.162 .054-.162 0-.198-.054-.216-.072-.252-.09-.27-.108-.288-.126-.306-.126-.324-.126-.342-.126-.342-.126-.36-.126H-.378V.432C-.45 .432-.54 .432-.612 .396-.684 .378-.756 .342-.81 .27-.882 .144-.882 0-.828-.126-.756-.216-.648-.288-.54-.306-.432-.324-.306-.324-.198-.27-.144-.252-.108-.216-.072-.162-.036-.108-.018-.054 0 0ZM-.504-.144C-.54-.126-.594-.108-.63-.09-.648-.09-.684-.054-.684-.018-.72 .036-.72 .09-.684 .144-.684 .18-.648 .198-.63 .216-.594 .234-.558 .252-.504 .252V-.144" fill="#ffffff" fill-rule="evenodd"/><path transform="matrix(0,1,1,0,565.743,284.274)" d="M0 0C0 .072 .072 .144 .144 .144H.684V.324H.108C0 .324-.108 .252-.144 .144-.18 .036-.162-.09-.09-.162H-.144V-.36H.684V-.18H.162C.072-.162 0-.09 0 0" fill="#ffffff" fill-rule="evenodd"/><path transform="matrix(0,1,1,0,566.589,284.976)" d="M0 0C.018 .09 0 .198-.036 .288-.054 .324-.09 .36-.126 .396L-.252 .288-.234 .252C-.198 .216-.18 .18-.162 .126-.162 .072-.162 0-.198-.054-.216-.072-.252-.09-.27-.108-.288-.108-.306-.126-.324-.126-.342-.126-.342-.126-.36-.126H-.378V.432C-.45 .432-.54 .432-.612 .396-.684 .378-.756 .342-.81 .27-.882 .162-.882 0-.828-.126-.756-.216-.648-.288-.54-.306-.432-.324-.306-.306-.198-.27-.144-.252-.108-.216-.072-.162-.036-.108-.018-.054 0 0ZM-.504-.126C-.54-.126-.594-.108-.63-.09-.648-.072-.684-.054-.684-.018-.72 .036-.72 .09-.684 .144-.684 .18-.648 .198-.63 .216-.594 .234-.558 .252-.504 .252V-.126" fill="#ffffff" fill-rule="evenodd"/><path transform="matrix(0,1,1,0,567.417,284.202)" d="M0 0C-.036 .036-.072 .072-.09 .126-.108 .18-.108 .216-.09 .27H.09C.09 .198 .108 .126 .144 .072 .144 .054 .162 .036 .198 .018 .216 .018 .234 0 .252 0H.756V-.18H-.072V0H0" fill="#ffffff" fill-rule="evenodd"/><path transform="matrix(0,1,1,0,568.533,284.85)" d="M0 0-.036-.036C-.036-.054-.054-.054-.054-.072-.072-.072-.072-.072-.09-.072H-.36C-.396-.072-.414-.072-.45-.072-.468-.072-.504-.072-.54-.072-.576-.072-.612-.09-.648-.126-.684-.162-.72-.198-.72-.252-.756-.306-.756-.36-.756-.432-.756-.486-.738-.522-.738-.576-.72-.594-.702-.63-.702-.648-.684-.684-.666-.702-.666-.72L-.522-.648-.576-.558C-.576-.54-.576-.522-.576-.504-.594-.504-.594-.486-.594-.468-.594-.432-.594-.396-.594-.36-.594-.324-.576-.288-.54-.27-.54-.27-.522-.252-.504-.252-.486-.252-.468-.252-.45-.252H-.414L-.396-.378C-.396-.414-.396-.45-.396-.486-.396-.522-.378-.558-.378-.594-.36-.63-.324-.684-.288-.702-.252-.738-.198-.756-.144-.756-.09-.756-.036-.738 .018-.702 .036-.684 .072-.648 .09-.612 .108-.576 .108-.522 .126-.486 .126-.432 .126-.378 .108-.342 .09-.288 .072-.252 .036-.216 .054-.216 .09-.198 .09-.162 .108-.144 .108-.108 .126-.072L0 0ZM-.018-.486C-.036-.504-.036-.522-.054-.54-.072-.558-.09-.576-.108-.576-.126-.576-.162-.576-.18-.576-.198-.558-.216-.54-.234-.522-.234-.504-.252-.468-.252-.45-.252-.414-.27-.378-.27-.342-.27-.306-.27-.288-.27-.252H-.126C-.126-.252-.108-.252-.09-.27-.072-.27-.072-.27-.054-.288-.036-.306-.018-.324-.018-.36 0-.396 0-.45-.018-.486" fill="#ffffff" fill-rule="evenodd"/><path transform="matrix(0,1,1,0,568.533,284.85)" d="M0 0V0" fill="#ffffff" fill-rule="evenodd"/><path transform="matrix(0,1,1,0,567.885,284.328)" d="M0 0V0" fill="#ffffff" fill-rule="evenodd"/><path transform="matrix(0,1,1,0,568.767,284.796)" d="M0 0H-1.008V.18H-.036-.018C-.018 .18-.018 .18-.018 .18-.018 .18 0 .18 0 .198L.018 .216C.018 .216 .018 .216 .018 .216 .018 .252 .018 .27 0 .288 0 .306 0 .324 0 .342L.162 .36C.18 .288 .18 .198 .162 .126 .162 .09 .144 .054 .108 .036 .072 0 .036 0 0 0" fill="#ffffff" fill-rule="evenodd"/><path transform="matrix(0,1,1,0,570.711,284.958)" stroke-width=".288" stroke-linecap="round" stroke-linejoin="round" fill="none" stroke="#ffffff" d="M0 0V-.198 0"/><path transform="matrix(0,1,1,0,570.513,284.958)" d="M0 0V.198H-1.17V0H-.72V-.54H-1.17V-.738H0V-.54H-.54V0" fill="#ffffff" fill-rule="evenodd"/><path transform="matrix(0,1,1,0,570.945,284.544)" d="M0 0C.09 0 .198 .036 .288 .126 .378 .198 .414 .324 .432 .414 .414 .522 .378 .63 .288 .72 .198 .792 .09 .828 0 .828-.108 .828-.216 .792-.306 .72-.396 .63-.432 .522-.432 .414-.432 .324-.396 .198-.306 .126-.216 .036-.108 0 0 0ZM-.27 .414C-.27 .468-.234 .522-.18 .576-.126 .612-.072 .63 0 .63 .054 .63 .126 .612 .18 .576 .216 .522 .252 .468 .252 .414 .252 .36 .216 .306 .18 .27 .126 .216 .054 .198 0 .198-.072 .198-.126 .216-.18 .27-.234 .306-.27 .36-.27 .414" fill="#ffffff" fill-rule="evenodd"/><path transform="matrix(0,1,1,0,571.989,284.796)" d="M0 0H-1.008V.18H-.036C-.018 .18-.018 .198 0 .198 0 .216 .018 .216 .018 .234 .018 .252 .018 .27 0 .288 0 .324 0 .342 0 .36L.162 .378C.162 .342 .162 .288 .162 .252 .18 .216 .162 .18 .162 .144 .162 .108 .144 .072 .108 .036 .072 .018 .036 0 0 0" fill="#ffffff" fill-rule="evenodd"/><path transform="matrix(0,1,1,0,0,0)" d="M284.13 572.493H284.958V572.691H284.13Z" fill="#ffffff"/><path transform="matrix(0,1,1,0,572.709,283.878)" d="M0 0C-.054 0-.108-.054-.108-.108-.108-.18-.054-.216 0-.216 .072-.216 .108-.18 .108-.108 .108-.054 .072 0 0 0" fill="#ffffff" fill-rule="evenodd"/><path transform="matrix(0,1,1,0,573.447,284.904)" d="M0 0C.036-.036 .054-.09 .054-.126 .054-.144 .072-.162 .072-.18 .072-.216 .054-.252 .054-.288 .018-.396-.072-.468-.18-.522-.306-.558-.45-.558-.594-.504-.612-.504-.612-.486-.63-.486-.72-.432-.774-.36-.792-.252-.81-.144-.774-.036-.72 .036H-1.116V.216H.054V.036H0V.018C0 .018 0 .018 0 .018V0ZM-.108-.108C-.108-.054-.144-.018-.198 .018-.234 .036-.252 .036-.288 .036H-.45C-.486 .036-.54 .018-.576 0-.612-.036-.63-.072-.63-.108V-.126C-.648-.18-.63-.216-.612-.27-.594-.288-.558-.306-.54-.324-.432-.378-.324-.378-.216-.324-.18-.306-.162-.288-.144-.27-.126-.252-.108-.234-.108-.198-.108-.162-.108-.144-.108-.108" fill="#ffffff" fill-rule="evenodd"/><path transform="matrix(0,1,1,0,574.653,284.85)" d="M0 0-.036-.054-.054-.072C-.072-.072-.072-.09-.09-.09H-.36C-.396-.09-.414-.09-.45-.09-.468-.09-.504-.09-.54-.09-.576-.09-.612-.108-.648-.126-.684-.162-.72-.198-.72-.252-.756-.306-.756-.378-.756-.432-.756-.486-.738-.54-.738-.576-.72-.612-.702-.63-.702-.666-.684-.684-.666-.702-.666-.738L-.522-.666-.576-.558C-.576-.558-.576-.54-.576-.522-.594-.504-.594-.486-.594-.468-.594-.432-.594-.396-.594-.36-.594-.324-.576-.306-.54-.288-.54-.27-.522-.27-.504-.27-.486-.252-.468-.252-.45-.252L-.414-.27-.396-.396C-.396-.414-.396-.45-.396-.486-.396-.522-.378-.558-.378-.594-.36-.648-.324-.684-.288-.72-.252-.756-.198-.774-.144-.756-.09-.774-.036-.756 .018-.72 .036-.684 .072-.648 .09-.612 .108-.576 .108-.54 .126-.486 .126-.45 .126-.396 .108-.342 .09-.306 .072-.27 .036-.234 .054-.216 .09-.198 .09-.162 .108-.144 .108-.108 .126-.09L0 0ZM-.018-.486C-.036-.504-.036-.54-.054-.558-.072-.576-.09-.576-.108-.576-.126-.594-.162-.594-.18-.576-.198-.576-.216-.54-.234-.522-.234-.504-.252-.486-.252-.45-.252-.432-.27-.396-.27-.36-.27-.324-.27-.288-.27-.27H-.126C-.126-.27-.108-.27-.09-.27-.072-.27-.072-.288-.054-.288-.036-.324-.018-.342-.018-.36 0-.414 0-.45-.018-.486" fill="#ffffff" fill-rule="evenodd"/><path transform="matrix(0,1,1,0,574.653,284.85)" d="M0 0V0" fill="#ffffff" fill-rule="evenodd"/><path transform="matrix(0,1,1,0,573.987,284.328)" d="M0 0V0" fill="#ffffff" fill-rule="evenodd"/><path transform="matrix(0,1,1,0,575.049,285.03)" d="M0 0C.018-.018 .036-.054 .036-.072V-.09C.036-.126 .036-.162 .036-.198L.18-.234C.18-.198 .198-.162 .198-.126 .198-.09 .198-.054 .198-.018 .198 .054 .144 .126 .09 .144L-.9 .468V.27L-.36 .108-.9-.072V-.27L-.054 0H0" fill="#ffffff" fill-rule="evenodd"/><path transform="matrix(0,1,1,0,575.877,284.4)" d="M0 0C.018 .036 .018 .054 .018 .09V.144C.036 .252 .108 .342 .198 .396 .234 .414 .27 .414 .324 .414 .378 .414 .432 .396 .468 .342 .54 .27 .576 .162 .576 .054 .576-.072 .504-.198 .396-.288L.27-.162C.306-.144 .342-.108 .36-.072 .378-.036 .396 .018 .396 .054 .396 .09 .396 .108 .396 .126 .378 .144 .378 .162 .378 .18 .36 .198 .342 .216 .324 .216 .306 .216 .288 .216 .27 .216L.252 .198C.252 .198 .252 .198 .252 .198 .216 .162 .198 .108 .198 .054 .198 .036 .198 .018 .198-.018 .162-.09 .126-.18 .072-.216 .036-.252-.018-.252-.054-.252H-.072C-.126-.252-.162-.234-.198-.198-.252-.144-.288-.072-.288 0V.018C-.306 .162-.27 .306-.198 .396L-.072 .288C-.108 .234-.126 .162-.126 .09-.126 .054-.126 .036-.108 0-.108-.018-.09-.036-.054-.036-.036-.036 0-.018 0 0" fill="#ffffff" fill-rule="evenodd"/><path transform="matrix(0,1,1,0,586.695,273.762)" d="M0 0-1.656-1.656 0-3.33H1.656L.558-2.214H6.642V-1.116H.558L1.656 0" fill="#ffffff" fill-rule="evenodd"/><path transform="matrix(0,1,1,0,0,0)" d="M264.708 578.163H287.802V579.00906H264.708Z" fill="#ffffff"/><path transform="matrix(0,1,1,0,570.837,275.508)" d="M0 0V-2.628H-.126C-.288-2.628-.468-2.682-.612-2.826-.756-2.97-.828-3.15-.828-3.312-.828-3.492-.756-3.672-.612-3.816-.468-3.96-.288-4.014-.126-4.014H0V-5.814C0-5.886-.018-5.958-.072-6.012-.108-6.03-.144-6.048-.162-6.066-.198-6.084-.234-6.084-.27-6.084H-.882C-.9-6.084-.936-6.084-.954-6.084-.99-6.084-1.008-6.066-1.044-6.066L-1.8-5.832-4.032-5.616C-4.104-5.616-4.158-5.58-4.212-5.526-4.266-5.472-4.284-5.4-4.284-5.346V3.33C-4.284 3.474-4.23 3.618-4.122 3.708-4.014 3.816-3.87 3.87-3.726 3.87H-.414L0 1.854V1.386H-.126C-.288 1.386-.468 1.332-.612 1.188-.756 1.044-.828 .864-.828 .684-.828 .522-.756 .342-.612 .198-.558 .126-.468 .072-.378 .054-.288 .018-.198 0-.126 0H0ZM-3.186 1.944H-4.014V.68410006H-3.186ZM-4.014-.828H-3.1859999V.41399998H-4.014ZM-3.186-.828ZM-4.014-2.358H-3.1859999V-1.098H-4.014ZM-3.186-2.358ZM-4.014-3.87H-3.1859999V-2.6279999H-4.014ZM-3.186-3.87ZM-3.186-5.418V-4.158H-4.014V-5.346L-3.186-5.418ZM-1.656-5.706V-5.256H-2.34V-5.634L-1.656-5.706ZM-2.34-4.986H-.26999999V-4.158H-2.34ZM-.27-4.986ZM-2.34-3.87H-1.5119999V-2.6279999H-2.34ZM-1.512-3.87ZM-2.34-2.358H-1.5119999V-1.098H-2.34ZM-2.34-.828H-1.5119999V.41399998H-2.34ZM-2.34 .684H-1.5119999V1.9439H-2.34ZM-2.34 2.214H-1.5119999V3.6H-2.34ZM-3.186 3.6V3.6ZM-3.186 3.6H-3.726C-3.798 3.6-3.87 3.582-3.924 3.51-3.978 3.456-4.014 3.384-4.014 3.33V2.214H-3.186V3.6" fill="#ffffff" fill-rule="evenodd"/><path transform="matrix(0,1,1,0,570.837,275.508)" d="M0 0V0" fill="#ffffff" fill-rule="evenodd"/><path transform="matrix(0,1,1,0,572.079,275.382)" d="M0 0C-.144 0-.288-.054-.396-.162-.504-.27-.558-.414-.558-.558-.558-.702-.504-.846-.396-.936-.288-1.044-.162-1.098 0-1.098 .126-1.098 .27-1.062 .378-.936 .504-.828 .54-.684 .54-.558 .54-.396 .486-.27 .378-.162 .288-.054 .144 0 0 0ZM0-.27C.144-.27 .27-.396 .27-.558 .27-.612 .252-.684 .18-.738 .126-.81 .054-.828 0-.828-.162-.828-.288-.702-.288-.558-.288-.486-.252-.414-.198-.36-.144-.306-.072-.27 0-.27" fill="#ffffff" fill-rule="evenodd"/><path transform="matrix(0,1,1,0,568.065,275.382)" d="M0 0C-.144 0-.288-.036-.396-.162-.504-.27-.558-.414-.558-.54-.558-.702-.504-.828-.396-.936-.288-1.044-.162-1.098 0-1.098 .126-1.098 .27-1.044 .378-.936 .504-.828 .54-.684 .54-.54 .54-.396 .486-.27 .378-.162 .288-.054 .144 0 0 0ZM0-.27C.144-.27 .27-.396 .27-.54 .27-.612 .252-.684 .18-.738 .126-.792 .054-.828 0-.828-.162-.828-.288-.702-.288-.54-.288-.486-.252-.414-.198-.36-.144-.306-.072-.27 0-.27" fill="#ffffff" fill-rule="evenodd"/><path transform="matrix(0,1,1,0,0,0)" d="M277.02 564.069H281.08799V575.391H277.02Z" fill="#ffffff"/><path transform="matrix(0,1,1,0,570.189,266.706)" d="M0 0 .918 .918H-.468L-1.836-.45-.468-1.836H.918L0-.918H3.69V0" fill="#ffffff" fill-rule="evenodd"/><path transform="matrix(0,1,1,0,0,0)" d="M278.838 570.945H279.27003V572.277H278.838Z"/><path transform="matrix(0,1,1,0,569.181,280.368)" d="M0 0V.576L-2.088 1.422H-2.628V-.432H-2.088V.846" fill-rule="evenodd"/><path transform="matrix(0,1,1,0,566.193,278.334)" d="M0 0 .162-.054C.162-.108 .162-.162 .144-.198 .126-.234 .108-.252 .09-.252 .126-.27 .18-.378 .18-.45 .18-.648 .072-.774-.108-.774-.198-.774-.252-.72-.306-.648-.342-.576-.36-.468-.36-.306H-.396C-.432-.306-.45-.306-.468-.324-.486-.342-.486-.378-.486-.396-.486-.45-.486-.486-.468-.54-.45-.576-.432-.612-.396-.648L-.558-.756C-.648-.666-.684-.558-.684-.414-.684-.306-.666-.234-.63-.18-.594-.126-.54-.09-.45-.072H-.054C-.018-.072 0-.054 0 0ZM-.108-.54C-.072-.54-.054-.522-.036-.504-.018-.486-.018-.45-.018-.414-.018-.36-.036-.324-.072-.306H-.198C-.198-.378-.198-.45-.18-.486-.162-.522-.126-.54-.108-.54" fill-rule="evenodd"/><path transform="matrix(0,1,1,0,567.129,277.866)" d="M0 0C0-.054 .054-.126 .108-.126H.612V-.342H.072C.036-.342 0-.396 0-.45 0-.522 .054-.576 .108-.594H.612V-.81H-.18V-.594H-.144C-.162-.558-.18-.54-.198-.504-.198-.468-.216-.45-.216-.414-.216-.306-.18-.234-.108-.198-.18-.144-.216-.072-.216 .018-.198 .162-.144 .27-.018 .306-.018 .306-.018 .324 0 .324H.612V.108H.072C.054 .108 .036 .108 .018 .09 .018 .054 0 .036 0 0" fill-rule="evenodd"/><path transform="matrix(0,1,1,0,572.853,279.9)" d="M0 0C.36 .162 .576 .468 .576 .882 .576 1.206 .45 1.476 .216 1.656-.018 1.836-.36 1.908-.774 1.908-1.26 1.908-1.638 1.818-1.89 1.638-2.124 1.458-2.25 1.188-2.25 .81-2.25 .576-2.178 .342-1.98 .162-1.8-.018-1.548-.09-1.296-.09H-1.224C-.972-.09-.72-.018-.558 .162-.396 .324-.306 .558-.306 .828-.306 .972-.324 1.098-.36 1.188-.396 1.296-.432 1.35-.486 1.35-.414 1.35-.342 1.35-.27 1.332-.198 1.296-.144 1.278-.108 1.242 0 1.152 .036 1.044 .054 .9 .036 .828 .018 .756-.036 .684-.072 .612-.144 .54-.234 .486L0 0ZM-1.764 .864C-1.764 1.116-1.566 1.296-1.296 1.296-1.026 1.296-.828 1.116-.828 .864-.828 .63-1.026 .45-1.296 .45-1.422 .45-1.53 .486-1.62 .576-1.71 .648-1.764 .756-1.764 .864" fill-rule="evenodd"/><path transform="matrix(0,1,1,0,563.709,286.146)" d="M0 0-.018-.144 .162-.198 .324-.288 .468-.414 .612-.576 .72-.414 .594-.27 .45-.126 .27-.036 .09 .036 .054 .072 .036 .09 .018 .054" fill="#ffffff" fill-rule="evenodd"/><path transform="matrix(0,1,1,0,563.997,286.56)" d="M0 0-.054-.126 .378-.288 .756-.45 .774-.72 .936-.684 .99-.666 1.008-.648V-.63L.972-.594 .828 .486 1.008 .594 .9 .756 .756 .684 .594 .576 .45 .468 .288 .324 .396 .198 .684 .414 .738-.252 .108 .018 .09 .072H.072L.036 .054" fill="#ffffff" fill-rule="evenodd"/><path transform="matrix(0,1,1,0,563.763,285.948)" d="M0 0H.144V.396L.342 .432 .522 .54 .72 .72 .918 .972 .792 1.152 .702 1.026C.567 .819 .365 .62 .108 .594L0 .576" fill="#ffffff" fill-rule="evenodd"/><path transform="matrix(0,1,1,0,565.599,285.912)" d="M0 0H.504V1.4221H0ZM.36 .162H.14400001V.43196H.36ZM.36 .576H.14400001V.82800999H.36ZM.36 .99H.14400001V1.2599599H.36Z" fill="#ffffff" fill-rule="evenodd"/><path transform="matrix(0,1,1,0,565.653,286.578)" d="M0 0 .144 .09 .09 .594H1.008V.756H.072L0 1.188 .018 1.224V1.242H-.018L-.036 1.224-.144 1.098-.054 .558" fill="#ffffff" fill-rule="evenodd"/><path transform="matrix(0,1,1,0,565.887,286.74)" d="M0 0 .162-.09 .288-.162 .396-.252 .486-.324 .558-.432 .684-.306 .54-.162 .396-.054 .666 .18 .576 .324 .432 .18 .252 .054 .144 .108 .126 .144 .108 .162 .09 .144 .072 .126" fill="#ffffff" fill-rule="evenodd"/><path transform="matrix(0,1,1,0,566.715,286.74)" d="M0 0 .18-.054 .306-.09 .396-.144 .486-.216 .558-.288 .666-.162 .54-.036 .378 .036 .522 .126 .684 .27 .558 .414 .486 .324 .414 .234 .306 .162 .198 .108 .09 .144 .072 .18 .054 .198 .036 .18V.144" fill="#ffffff" fill-rule="evenodd"/><path transform="matrix(0,1,1,0,568.191,285.948)" d="M0 0-.054-.108 .126-.18 .522-.36 .702-.486 .828-.36 .63-.252H1.62V-.09H.306L.072 .018 .054 .054 .036 .072 .018 .054" fill="#ffffff" fill-rule="evenodd"/><path transform="matrix(0,1,1,0,568.281,285.984)" d="M0 0H1.584V.162H1.296V.468H1.134V.162H.936V.45H.774V.162H.576V.504H0V0ZM.414 .162H.14398V.32399H.414Z" fill="#ffffff" fill-rule="evenodd"/><path transform="matrix(0,1,1,0,568.893,285.984)" d="M0 0H.144V.324H.414V0H.558V.504H0" fill="#ffffff" fill-rule="evenodd"/><path transform="matrix(0,1,1,0,568.821,286.686)" d="M0 0H.126V.414L.306 .36 .45 .288 .342 .216 .18 .18 .198 .036 .432 .108 .576 .18 .666 .072 .738-.108 .882-.018 .792 .162 .684 .288 .81 .432 .882 .558 .738 .666 .666 .522 .576 .396 .324 .522 .054 .612-.036 .504 0 .468" fill="#ffffff" fill-rule="evenodd"/><path transform="matrix(0,1,1,0,570.063,286.128)" d="M0 0H.144V.198H.882V-.018H1.008V.954H.882V.792H.144V.936H0V.792H-.162L-.18 .81-.198 .828-.216 .81-.234 .774-.252 .63H0V.36H-.162L-.198 .396-.216 .378-.234 .324-.252 .198H0V0ZM.576 .36H.43198998V.63002H.576ZM.882 .36H.71998V.63002H.882ZM.306 .36H.14400999V.63002H.306Z" fill="#ffffff" fill-rule="evenodd"/><path transform="matrix(0,1,1,0,570.081,287.496)" d="M0 0 .09 .144-.072 .288-.252 .396-.324 .234-.144 .126" fill="#ffffff" fill-rule="evenodd"/><path transform="matrix(0,1,1,0,571.089,285.912)" d="M0 0H1.026L1.242-.036 1.422-.09 1.548-.162 1.656-.018 1.53 .054 1.386 .108 1.242 .144H1.062V.432H1.422L1.476 .414 1.494 .342V.216L1.656 .288 1.638 .468 1.602 .522 1.566 .558 1.494 .594H0V0ZM.936 .162H.61199V.43202H.936ZM.468 .162H.14398998V.43202H.468Z" fill="#ffffff" fill-rule="evenodd"/><path transform="matrix(0,1,1,0,570.711,287.154)" d="M0 0 .108-.108 .252-.018 .396 .054 .288 .198 .144 .108" fill="#ffffff" fill-rule="evenodd"/><path transform="matrix(0,1,1,0,572.277,286.632)" d="M0 0 .126 .144-.036 .234H.936V.414H-.342L-.648 .558H-.504V.72L-.27 .684-.054 .63 .126 .558 .288 .468 .396 .612 .27 .684 .396 .882 .504 .792 .612 .702 .684 .594 .756 .468 .882 .576 .828 .72C.613 1.017 .348 1.143-.018 1.152H-.234V.846L-.504 .882V1.188H-.648V.576L-.684 .594-.774 .414-.558 .324-.36 .234-.162 .126 0 0ZM-.072 .81V1.008L.234 .936 .126 .738-.072 .81" fill="#ffffff" fill-rule="evenodd"/><path transform="matrix(0,1,1,0,573.537,286.11)" d="M0 0H1.098V.162H.072L.036 .198 0 .162" fill="#ffffff" fill-rule="evenodd"/><path transform="matrix(0,1,1,0,573.843,285.876)" d="M0 0H1.458L1.494-.018 1.53-.054V-.27L1.692-.198 1.674 .018 1.656 .09 1.602 .126 1.548 .162H.09L.072 .198 .054 .216 .036 .198 .018 .162" fill="#ffffff" fill-rule="evenodd"/><path transform="matrix(0,1,1,0,575.139,285.894)" d="M0 0-.018-.126 .216-.162 .45-.252 .648-.378 .828-.522 .972-.378 .72-.198 .468-.072V.216L.9 .108 .756-.108 .882-.234 .972-.09 1.062 .036 1.206-.054 1.314-.18 1.422-.324 1.494-.504 1.656-.378 1.602-.234C1.432 .116 .988 .3 .63 .378L.36 .45 .27 .324 .306 .252V-.018L.09 .036 .054 .09 .036 .108 .018 .072" fill="#ffffff" fill-rule="evenodd"/><path transform="matrix(0,1,1,0,575.913,285.894)" d="M0 0-.018-.108H.702L.576-.216 .666-.342 .828-.216 .936-.108H1.692V.09H1.08L1.224 .324 1.044 .468 .954 .252 .846 .09H.072L.036 .126H.018L0 .09" fill="#ffffff" fill-rule="evenodd"/><path transform="matrix(0,1,1,0,565.473,279.018)" d="M0 0-.018-.126H1.224V-.702H1.386V.756H1.224V.036H.666V.594H.522V.036H.054L.036 .072H.018L0 .054" fill-rule="evenodd"/><path transform="matrix(0,1,1,0,566.769,279.504)" d="M0 0 .09 .144-.144 .342V.684H.198V-.018H.342V.684H.972V.846H.342V1.44H.198V.846H-.144V1.332H-.288V.432L-.396 .504-.414 .54-.432 .558-.45 .54-.468 .504-.504 .396-.234 .198" fill-rule="evenodd"/><path transform="matrix(0,1,1,0,561.909,289.26)" stroke-width=".288" stroke-linecap="round" stroke-linejoin="round" fill="none" stroke="#0000ff" d="M0 0C0-.684-.558-1.242-1.242-1.242"/><path transform="matrix(0,1,1,0,590.439,289.26)" stroke-width=".288" stroke-linecap="round" stroke-linejoin="round" fill="none" stroke="#0000ff" d="M0 0V-28.53"/><path transform="matrix(0,1,1,0,591.681,288.018)" stroke-width=".288" stroke-linecap="round" stroke-linejoin="round" fill="none" stroke="#0000ff" d="M0 0C.684 0 1.242-.558 1.242-1.242"/><path transform="matrix(0,1,1,0,591.681,264.492)" stroke-width=".288" stroke-linecap="round" stroke-linejoin="round" fill="none" stroke="#0000ff" d="M0 0H23.526"/><path transform="matrix(0,1,1,0,590.439,263.25)" stroke-width=".288" stroke-linecap="round" stroke-linejoin="round" fill="none" stroke="#0000ff" d="M0 0C0 .684 .558 1.242 1.242 1.242"/><path transform="matrix(0,1,1,0,561.909,263.25)" stroke-width=".288" stroke-linecap="round" stroke-linejoin="round" fill="none" stroke="#0000ff" d="M0 0V28.53"/><path transform="matrix(0,1,1,0,560.667,264.492)" stroke-width=".288" stroke-linecap="round" stroke-linejoin="round" fill="none" stroke="#0000ff" d="M0 0C-.684 0-1.242 .558-1.242 1.242"/><path transform="matrix(0,1,1,0,560.667,288.018)" stroke-width=".288" stroke-linecap="round" stroke-linejoin="round" fill="none" stroke="#0000ff" d="M0 0H-23.526"/></g></svg>