<?xml version='1.0' encoding='UTF-8'?>
<svg width="287.83" height="267.85" viewBox="140.85 2.07 287.83 267.85" xmlns="http://www.w3.org/2000/svg" xmlns:xlink="http://www.w3.org/1999/xlink" xmlns:inkscape="http://www.inkscape.org/namespaces/inkscape" version="1.1"><g transform="scale(10.0) translate(-438.573, -316.512)"><defs><clipPath id="clip_19"><path transform="matrix(0,1,1,0,0,0)" d="M0 74.451H595.008V767.55899H0Z"/></clipPath><clipPath id="clip_20"><path transform="matrix(0,1,1,0,0,0)" d="M0 842.013H595.224V.008972168H0Z"/></clipPath></defs><path transform="matrix(0,1,1,0,479.901,343.08)" d="M0 0V-25.704C0-25.848-.018-25.974-.072-26.118-.126-26.262-.216-26.388-.324-26.496-.432-26.604-.558-26.694-.702-26.748-.846-26.802-.972-26.82-1.116-26.82H-24.822C-24.966-26.82-25.092-26.802-25.236-26.748-25.38-26.694-25.506-26.604-25.614-26.496-25.722-26.388-25.812-26.262-25.866-26.118-25.92-25.974-25.938-25.848-25.938-25.704V0C-25.938 .126-25.92 .27-25.866 .414-25.812 .558-25.722 .684-25.614 .792-25.506 .9-25.38 .99-25.236 1.044-25.092 1.098-24.966 1.116-24.822 1.116H-1.116C-.81 1.116-.54 1.008-.324 .792-.108 .576 0 .306 0 0" fill="#ffffff" fill-rule="evenodd"/><path transform="matrix(0,1,1,0,454.197,342.522)" d="M0 0V25.704C0 25.776 0 25.848-.036 25.902-.054 25.974-.108 26.046-.162 26.1-.216 26.154-.288 26.19-.342 26.226-.414 26.244-.486 26.262-.558 26.262H-24.264C-24.408 26.262-24.552 26.208-24.66 26.1-24.786 25.992-24.822 25.848-24.822 25.704V0C-24.822-.144-24.786-.288-24.66-.396-24.606-.45-24.552-.504-24.48-.522-24.408-.558-24.336-.558-24.264-.558H-.558C-.414-.558-.27-.504-.162-.396-.054-.288 0-.162 0 0" fill="#0000ff" fill-rule="evenodd"/><path transform="matrix(0,1,1,0,461.649,320.472)" d="M0 0 .828 .846H-.414L-1.656-.414-.414-1.656H.828L0-.828H3.33V0" fill="#ffffff" fill-rule="evenodd"/><path transform="matrix(0,1,1,0,0,0)" d="M318.456 468.849H341.766V469.605H318.456Z" fill="#ffffff"/><path transform="matrix(0,1,1,0,460.335,325.35)" d="M0 0C-.054 .072-.108 .144-.18 .162-.216 .18-.27 .198-.324 .198-.45 .198-.594 .126-.684 .036-.774-.072-.81-.216-.81-.414V-1.044H.936V-.324C.936-.198 .918-.018 .81 .108 .72 .216 .558 .288 .414 .288 .324 .288 .252 .288 .198 .252 .108 .216 .036 .126 0 0ZM-.09-.738H-.54V-.324C-.54-.27-.522-.216-.468-.18-.432-.126-.378-.108-.324-.108-.27-.108-.198-.126-.162-.18-.108-.216-.09-.27-.09-.324V-.738ZM.684-.324V-.738H.126V-.324C.126-.144 .252 0 .414 0 .468 0 .54-.036 .594-.108 .648-.162 .684-.252 .684-.324" fill="#ffffff" fill-rule="evenodd"/><path transform="matrix(0,1,1,0,461.523,326.322)" d="M0 0C0-.126-.054-.252-.144-.36-.234-.45-.36-.504-.486-.522H-1.278V-.234H-.468C-.414-.234-.36-.216-.324-.162-.27-.108-.252-.054-.252 0-.252 .054-.27 .108-.324 .162-.36 .198-.414 .234-.468 .234H-1.278V.504H-.036V.234H-.09C-.072 .198-.036 .162-.036 .126-.018 .09 0 .036 0 0" fill="#ffffff" fill-rule="evenodd"/><path transform="matrix(0,1,1,0,462.729,325.476)" d="M0 0C.018 .036 .018 .09 .018 .126 .018 .144 .018 .144 .018 .162V.198H.036C.036 .36 .144 .504 .288 .594 .342 .612 .414 .63 .468 .63 .558 .612 .648 .576 .684 .522 .792 .396 .846 .234 .846 .09 .846-.108 .738-.306 .576-.432L.396-.252C.45-.216 .504-.162 .54-.108 .558-.054 .576 .018 .576 .09 .576 .126 .576 .144 .576 .18 .558 .216 .558 .252 .54 .27 .54 .288 .504 .324 .468 .324 .45 .324 .414 .324 .414 .324 .396 .306 .378 .306 .36 .288 .324 .252 .288 .162 .288 .09 .288 .054 .288 .018 .27-.018 .234-.144 .18-.27 .108-.324 .09-.324 .09-.342 .09-.342 .036-.378-.036-.396-.108-.378-.198-.378-.27-.342-.324-.288-.396-.216-.45-.108-.45 0V.018C-.486 .234-.432 .45-.306 .594L-.108 .414C-.162 .342-.198 .234-.198 .126-.198 .09-.198 .054-.18 0-.18-.036-.144-.054-.09-.054-.054-.054-.018-.036 0 0" fill="#ffffff" fill-rule="evenodd"/><path transform="matrix(0,1,1,0,476.535,327.87)" d="M0 0-1.494-1.512 0-3.006H1.494L.486-1.998H5.976V-1.008H.486L1.494 0" fill="#ffffff" fill-rule="evenodd"/><path transform="matrix(0,1,1,0,458.985,337.482)" d="M0 0V.702H-.162V.18H-.45V.63H-.612V.18H-.882V.666H-1.044V0" fill="#ffffff" fill-rule="evenodd"/><path transform="matrix(0,1,1,0,460.353,337.482)" d="M0 0V.198L-.378-.072-.756 .162V-.018L-.504-.162-.756-.306V-.504L-.378-.27 0-.522V-.324L-.252-.162" fill="#ffffff" fill-rule="evenodd"/><path transform="matrix(0,1,1,0,460.965,337.356)" d="M0 0C0 .018 0 .054-.018 .09-.018 .108-.036 .126-.054 .144-.072 .162-.09 .18-.108 .198L-.036 .342 .018 .306C.036 .288 .054 .27 .072 .252 .09 .234 .108 .198 .108 .18 .144 .126 .144 .072 .144 .018 .144-.036 .126-.108 .09-.162 .054-.234-.018-.27-.09-.306-.162-.324-.252-.324-.324-.324-.396-.306-.468-.27-.504-.234-.558-.198-.594-.144-.612-.09-.63-.036-.648 .036-.63 .108-.612 .18-.576 .234-.522 .288-.504 .288-.504 .306-.486 .324-.468 .324-.45 .324-.432 .342L-.36 .198C-.396 .18-.432 .162-.45 .144-.468 .126-.468 .126-.468 .108-.486 .054-.486 0-.468-.054-.432-.09-.396-.108-.36-.144-.288-.162-.216-.162-.162-.144-.09-.126-.018-.072 0 0" fill="#ffffff" fill-rule="evenodd"/><path transform="matrix(0,1,1,0,461.703,337.5)" d="M0 0C.018 .09 0 .18-.036 .252-.054 .306-.072 .342-.108 .36L-.216 .27-.198 .234C-.18 .198-.162 .162-.144 .126-.144 .072-.144 .018-.18-.036-.198-.054-.216-.072-.252-.09-.27-.108-.306-.108-.342-.108V.396C-.414 .396-.486 .396-.558 .378-.612 .36-.684 .306-.72 .252-.792 .144-.792 0-.738-.108-.684-.198-.594-.252-.486-.27-.378-.288-.27-.27-.18-.234-.126-.216-.09-.18-.054-.144-.036-.09-.018-.036 0 0ZM-.45-.108C-.486-.108-.522-.09-.558-.072-.594-.072-.612-.036-.63-.018-.648 .036-.648 .09-.63 .144-.612 .162-.594 .18-.558 .198-.54 .216-.486 .234-.45 .234V-.108" fill="#ffffff" fill-rule="evenodd"/><path transform="matrix(0,1,1,0,462.441,336.726)" stroke-width=".288" stroke-linecap="round" stroke-linejoin="round" fill="none" stroke="#ffffff" d="M0 0H.036"/><path transform="matrix(0,1,1,0,462.459,336.762)" d="M0 0C-.018 .054-.036 .108-.036 .162-.036 .216-.018 .288 .018 .342 .054 .396 .108 .45 .162 .468 .234 .504 .288 .504 .342 .504 .396 .504 .468 .504 .522 .468 .594 .45 .648 .414 .684 .342 .72 .288 .738 .234 .738 .18 .738 .108 .72 .054 .702 .018V-.018H.972V-.18H-.036V-.018H0V0H.018 0C0 0 .018 0 0 0ZM.162 .036C.18 .018 .234 0 .27 0L.288-.018H.414L.45 0C.486 0 .522 .018 .558 .054 .576 .09 .594 .144 .576 .18 .576 .234 .54 .27 .504 .306 .414 .36 .27 .36 .18 .288 .144 .252 .126 .216 .126 .162 .126 .144 .126 .108 .126 .09 .144 .072 .144 .054 .162 .036" fill="#ffffff" fill-rule="evenodd"/><path transform="matrix(0,1,1,0,463.413,337.302)" d="M0 0C.018 0 .054 .018 .054 .054 .054 .072 .054 .09 .054 .108 .036 .144 .036 .162 .036 .18L.18 .198C.198 .126 .198 .018 .162-.054 .162-.09 .126-.108 .108-.126 .09-.162 .054-.162 .036-.162H-.432V-.306H-.576V-.162H-.81L-.864 0H-.576V.198H-.432V0H0" fill="#ffffff" fill-rule="evenodd"/><path transform="matrix(0,1,1,0,456.087,338.238)" d="M0 0-.072 .162C-.144 .126-.216 .072-.252 0-.306-.072-.342-.162-.342-.27-.342-.36-.306-.45-.252-.522-.198-.594-.126-.63-.054-.666 .018-.702 .108-.738 .198-.738 .306-.738 .396-.72 .504-.666 .594-.612 .666-.558 .702-.468 .756-.396 .774-.324 .774-.252 .774-.198 .756-.162 .738-.108 .72-.054 .684-.018 .648 .018H.738V.18H.162V-.288H.306V.018H.36C.432 .018 .486 0 .54-.054 .576-.108 .612-.18 .612-.252 .612-.342 .558-.45 .414-.504 .27-.576 .126-.558 .036-.522-.018-.486-.072-.468-.108-.414-.144-.378-.162-.324-.18-.27-.18-.144-.09-.054 0 0" fill="#ffffff" fill-rule="evenodd"/><path transform="matrix(0,1,1,0,456.753,338.994)" d="M0 0C.018 .09 0 .162-.036 .252-.054 .288-.072 .324-.108 .342L-.216 .252-.198 .234C-.162 .198-.144 .144-.144 .108-.144 .054-.144 0-.18-.054-.198-.072-.216-.09-.252-.108-.27-.108-.306-.126-.342-.126V.378C-.414 .396-.486 .378-.54 .36-.612 .342-.684 .306-.72 .252-.792 .144-.792 0-.738-.126-.666-.198-.576-.27-.486-.27-.378-.306-.27-.288-.18-.234-.126-.216-.09-.198-.054-.144-.018-.108 0-.054 0 0ZM-.45-.126C-.486-.126-.522-.108-.558-.09-.576-.072-.612-.054-.612-.018-.648 .018-.648 .072-.612 .126-.612 .162-.594 .18-.558 .198-.522 .216-.486 .216-.45 .216V-.126" fill="#ffffff" fill-rule="evenodd"/><path transform="matrix(0,1,1,0,457.635,338.382)" d="M0 0C0 .036 0 .072 .018 .09 .054 .126 .072 .144 .108 .144H.594V.306H.09C.036 .306-.018 .288-.054 .252-.09 .216-.126 .18-.144 .144-.162 .09-.18 .036-.162-.018-.162-.054-.126-.108-.09-.144H-.144V-.306H.594V-.144H.126C.108-.144 .054-.126 .036-.108 0-.072 0-.036 0 0" fill="#ffffff" fill-rule="evenodd"/><path transform="matrix(0,1,1,0,458.409,338.994)" d="M0 0C.018 .09 0 .18-.036 .252-.054 .288-.072 .324-.108 .36L-.216 .252-.198 .234C-.162 .198-.144 .144-.144 .108-.144 .054-.144 0-.18-.054-.198-.072-.216-.09-.252-.108-.27-.108-.306-.126-.342-.108V.378C-.414 .396-.486 .378-.54 .36-.612 .342-.684 .306-.72 .252-.792 .144-.792 0-.738-.126-.666-.198-.576-.252-.486-.27-.378-.306-.27-.288-.18-.234-.126-.216-.09-.198-.054-.144-.018-.108 0-.054 0 0ZM-.45-.126C-.486-.126-.522-.108-.558-.09-.576-.072-.612-.054-.612-.018-.648 .018-.648 .09-.612 .126-.612 .162-.594 .18-.558 .198-.522 .216-.486 .216-.45 .216V-.126" fill="#ffffff" fill-rule="evenodd"/><path transform="matrix(0,1,1,0,459.147,338.31)" d="M0 0C-.036 .036-.072 .072-.09 .126-.108 .162-.108 .216-.09 .252H.072C.072 .18 .09 .126 .108 .072 .126 .054 .144 .036 .162 .018 .18 .018 .198 0 .234 0H.666V-.162H-.072V0H0" fill="#ffffff" fill-rule="evenodd"/><path transform="matrix(0,1,1,0,460.155,338.886)" d="M0 0-.036-.036C-.036-.036-.036-.054-.054-.054-.054-.054-.072-.072-.09-.072H-.324C-.36-.054-.378-.054-.396-.072-.432-.072-.45-.072-.486-.072-.522-.072-.558-.09-.594-.108-.612-.144-.648-.18-.648-.216-.666-.27-.684-.324-.684-.378-.684-.432-.666-.468-.666-.504-.648-.54-.648-.558-.63-.594-.612-.612-.612-.63-.594-.648L-.468-.576-.504-.504C-.522-.468-.522-.45-.54-.414-.54-.378-.54-.342-.522-.306-.522-.288-.522-.27-.486-.252-.486-.234-.468-.234-.45-.216-.432-.216-.414-.216-.414-.216L-.378-.234-.36-.342C-.36-.378-.36-.396-.36-.432-.36-.468-.342-.504-.342-.522-.324-.576-.306-.612-.27-.63-.234-.666-.18-.684-.126-.684-.072-.684-.036-.666 0-.63 .036-.612 .072-.576 .072-.54 .09-.504 .108-.468 .108-.432 .108-.396 .108-.342 .09-.306 .072-.27 .054-.234 .036-.198 .054-.18 .072-.162 .09-.144 .09-.126 .108-.09 .108-.072L0 0ZM-.018-.432C-.018-.45-.036-.468-.054-.486-.072-.504-.072-.504-.108-.522-.126-.522-.144-.522-.162-.504-.18-.504-.198-.486-.216-.468-.216-.45-.216-.414-.216-.396-.234-.378-.234-.342-.252-.306-.252-.288-.252-.252-.252-.216H-.126C-.108-.216-.09-.234-.09-.234-.072-.234-.054-.252-.054-.252-.036-.27-.018-.288-.018-.324 0-.36 0-.396-.018-.432" fill="#ffffff" fill-rule="evenodd"/><path transform="matrix(0,1,1,0,460.155,338.886)" d="M0 0V0" fill="#ffffff" fill-rule="evenodd"/><path transform="matrix(0,1,1,0,459.507,338.292)" d="M0 0V0" fill="#ffffff" fill-rule="evenodd"/><path transform="matrix(0,1,1,0,460.371,338.832)" d="M0 0H-.9V.162H0C.018 .18 .018 .198 .018 .198 .018 .216 .018 .234 .018 .252 .018 .27 0 .288 0 .306L.144 .324C.162 .288 .162 .252 .162 .216 .162 .18 .162 .144 .162 .108 .144 .09 .126 .054 .108 .018 .072 0 .036 0 0 0" fill="#ffffff" fill-rule="evenodd"/><path transform="matrix(0,1,1,0,462.117,338.976)" stroke-width=".288" stroke-linecap="round" stroke-linejoin="round" fill="none" stroke="#ffffff" d="M0 0V-.18 0"/><path transform="matrix(0,1,1,0,461.937,338.976)" d="M0 0V.18H-1.044V0H-.648V-.486H-1.044V-.666H0V-.486H-.486V0" fill="#ffffff" fill-rule="evenodd"/><path transform="matrix(0,1,1,0,462.333,338.598)" d="M0 0C.09 0 .198 .036 .27 .108 .36 .18 .396 .288 .396 .378 .396 .468 .36 .558 .27 .648 .198 .72 .09 .756 0 .738-.09 .756-.18 .72-.27 .648-.342 .558-.378 .468-.378 .378-.378 .288-.342 .18-.27 .108-.18 .036-.09 0 0 0ZM-.216 .378C-.216 .432-.198 .468-.162 .522-.108 .558-.054 .576 0 .576 .054 .576 .126 .558 .162 .522 .216 .468 .234 .432 .234 .378 .234 .324 .216 .27 .162 .234 .126 .198 .054 .18 0 .18-.054 .18-.108 .198-.162 .234-.198 .27-.216 .324-.216 .378" fill="#ffffff" fill-rule="evenodd"/><path transform="matrix(0,1,1,0,463.269,338.832)" d="M0 0H-.9V.18H0C.018 .198 .018 .216 .018 .216 .018 .234 .018 .252 .018 .27 .018 .288 0 .306 0 .324L.144 .342C.162 .306 .162 .27 .162 .234 .162 .198 .162 .162 .162 .126 .144 .108 .126 .072 .108 .036 .072 .018 .036 0 0 0" fill="#ffffff" fill-rule="evenodd"/><path transform="matrix(0,1,1,0,0,0)" d="M338.238 463.737H338.976V463.89903H338.238Z" fill="#ffffff"/><path transform="matrix(0,1,1,0,463.917,338.004)" d="M0 0C-.036 0-.09-.054-.09-.108-.09-.144-.036-.198 0-.198 .054-.198 .108-.144 .108-.108 .108-.054 .054 0 0 0" fill="#ffffff" fill-rule="evenodd"/><path transform="matrix(0,1,1,0,464.583,338.94)" d="M0 0C.018-.036 .036-.072 .054-.108 .054-.126 .054-.144 .054-.162 .054-.18 .054-.216 .036-.252 0-.342-.072-.414-.162-.468-.288-.504-.414-.504-.54-.45-.558-.45-.558-.432-.576-.432-.648-.396-.702-.306-.72-.216-.738-.108-.702-.018-.666 .036-.648 .036-.648 .036-.666 .036H-1.008V.198H.036V.036H-.018C-.018 .036-.018 .018 0 .018V0ZM-.108-.09C-.108-.054-.144 0-.18 .018-.216 .036-.234 .036-.27 .036H-.414C-.45 .036-.486 .036-.522 0-.558-.018-.576-.054-.576-.09V-.108C-.594-.144-.576-.198-.558-.234-.54-.252-.522-.27-.486-.288-.396-.342-.288-.342-.198-.288-.18-.27-.162-.252-.144-.234-.126-.216-.108-.198-.108-.18-.09-.144-.09-.126-.108-.09" fill="#ffffff" fill-rule="evenodd"/><path transform="matrix(0,1,1,0,465.015,338.292)" d="M0 0 .126 .072 .09 .144C.072 .18 .072 .198 .054 .234 .054 .27 .054 .306 .072 .342 .072 .36 .072 .378 .108 .396 .108 .414 .126 .414 .144 .432 .162 .432 .162 .432 .18 .432H.216L.234 .306C.234 .27 .234 .252 .234 .216 .234 .18 .252 .162 .252 .126 .27 .072 .288 .036 .324 .018 .36-.018 .414-.036 .468-.036 .522-.036 .558-.018 .594 .018 .63 .036 .666 .072 .666 .108 .684 .144 .702 .18 .702 .216 .702 .27 .702 .306 .684 .342 .666 .378 .648 .432 .63 .45 .648 .468 .666 .486 .684 .504 .684 .522 .702 .558 .702 .576L.594 .666 .558 .612C.558 .612 .558 .594 .54 .594 .54 .594 .522 .594 .504 .594H.27C.216 .594 .162 .594 .108 .576 .072 .576 .036 .558 0 .54-.018 .504-.054 .468-.054 .432-.072 .378-.09 .324-.09 .27-.09 .216-.072 .18-.072 .144-.054 .108-.054 .09-.036 .072-.018 .036-.018 .018 0 0ZM.576 .216C.576 .216 .576 .198 .558 .198 .558 .18 .558 .18 .54 .162 .522 .144 .522 .144 .486 .126 .468 .126 .45 .126 .432 .144 .414 .144 .396 .162 .378 .18 .378 .198 .378 .234 .378 .252 .36 .27 .36 .306 .342 .342 .342 .378 .342 .396 .342 .432H.468C.486 .432 .504 .414 .504 .414 .522 .414 .54 .396 .54 .396 .558 .378 .576 .36 .576 .324 .594 .288 .594 .252 .576 .216" fill="#ffffff" fill-rule="evenodd"/><path transform="matrix(0,1,1,0,465.015,338.292)" d="M0 0V0" fill="#ffffff" fill-rule="evenodd"/><path transform="matrix(0,1,1,0,466.023,339.048)" d="M0 0C.018 0 .036-.036 .036-.072 .036-.09 .036-.126 .036-.162L.162-.198C.162-.162 .18-.126 .18-.09 .18-.072 .18-.036 .18 0 .18 .054 .144 .126 .072 .144-.072 .198-.216 .234-.378 .288-.522 .342-.666 .396-.81 .432V.252L-.324 .108-.81-.054V-.234L-.036 .018 0 0" fill="#ffffff" fill-rule="evenodd"/><path transform="matrix(0,1,1,0,466.779,338.49)" d="M0 0C0 .018 .018 .054 .018 .072 .018 .09 .018 .09 .018 .108V.126C.018 .216 .09 .306 .162 .36 .198 .378 .234 .378 .27 .378 .324 .378 .378 .342 .414 .324V.306C.468 .234 .504 .144 .504 .054 .504-.072 .45-.18 .342-.252L.234-.144C.27-.126 .306-.108 .324-.054 .342-.018 .342 .018 .342 .054 .342 .072 .342 .09 .342 .108 .342 .126 .324 .144 .324 .162 .324 .18 .306 .198 .27 .198 .27 .198 .252 .198 .234 .198L.216 .18C.198 .144 .18 .108 .18 .054 .18 .036 .162 .018 .162-.018 .144-.09 .108-.162 .054-.198 .018-.216-.018-.234-.072-.234-.108-.216-.162-.198-.198-.18-.234-.126-.27-.072-.27 0V.018C-.288 .072-.288 .144-.27 .198-.252 .27-.216 .324-.18 .36L-.072 .252C-.108 .198-.126 .144-.126 .072-.126 .054-.126 .036-.108 0-.108-.018-.09-.036-.054-.036-.036-.036-.018-.018 0 0" fill="#ffffff" fill-rule="evenodd"/><path transform="matrix(0,1,1,0,0,0)" d="M331.83 455.169H335.50199V467.319H331.83Z" fill="#ffffff"/><path transform="matrix(0,1,1,0,456.717,332.676)" d="M0 0H-.018C-.054 0-.072 0-.072-.018-.09-.018-.09-.054-.09-.072-.09-.144-.072-.216-.018-.252L-.144-.342C-.18-.306-.198-.27-.216-.234-.234-.18-.234-.126-.234-.072-.252 .072-.18 .162-.072 .18H.252C.252 .18 .27 .18 .27 .198 .288 .198 .288 .216 .288 .234L.414 .198C.414 .144 .414 .108 .396 .09 .396 .072 .378 .054 .342 .036 .378 .018 .414-.054 .414-.108 .414-.27 .342-.36 .198-.36 .072-.36 0-.234 0 0ZM.198-.18C.216-.18 .234-.18 .234-.18L.252-.162C.252-.162 .252-.162 .252-.162 .27-.144 .27-.108 .27-.072 .27-.036 .252-.018 .234 0H.126C.126-.054 .144-.108 .144-.126 .162-.162 .18-.18 .198-.18" fill-rule="evenodd"/><path transform="matrix(0,1,1,0,457.671,332.604)" d="M0 0C0-.036 .036-.09 .072-.09H.468V-.27H.054C.018-.27 0-.306 0-.342 0-.396 .036-.45 .09-.45H.468V-.612H-.144V-.45H-.126C-.126-.432-.144-.414-.162-.378-.162-.36-.162-.342-.162-.306-.162-.234-.144-.18-.09-.144-.144-.108-.162-.054-.162 .018-.162 .126-.108 .216-.018 .252H0C0 .252-.018 .252 0 .252H.018C.018 .252 .018 .252 .018 .252H.468V.09H.054 .036C.036 .09 .036 .09 .036 .09 .018 .09 .018 .072 .018 .072 0 .054 0 .036 0 0" fill-rule="evenodd"/><path transform="matrix(0,1,1,0,0,0)" d="M333.468 461.487H333.864V462.693H333.468Z"/><path transform="matrix(0,1,1,0,459.687,334.854)" d="M0 0V.522L-1.89 1.296H-2.376V-.378H-1.89V.774" fill-rule="evenodd"/><path transform="matrix(0,1,1,0,464.115,332.478)" d="M0 0H2.376V-.486H.684V-.846H.234C.234-.774 .234-.72 .216-.666 .216-.612 .198-.576 .18-.54 .162-.504 .126-.486 .108-.468 .072-.45 .036-.45 0-.45V0" fill-rule="evenodd"/><path transform="matrix(0,1,1,0,466.797,333.666)" d="M0 0C-.432 0-.738-.09-.954-.27-1.17-.432-1.278-.702-1.278-1.044-1.278-1.386-1.17-1.656-.954-1.836-.738-1.998-.432-2.088 0-2.088 .414-2.088 .738-1.998 .954-1.836 1.17-1.656 1.278-1.386 1.278-1.044 1.278-.702 1.17-.432 .954-.27 .738-.09 .414 0 0 0ZM0-.504C.27-.504 .468-.558 .612-.648 .738-.738 .81-.864 .81-1.044 .81-1.404 .54-1.584 0-1.584-.27-1.584-.486-1.53-.612-1.44-.756-1.35-.81-1.224-.81-1.044-.81-.684-.54-.504 0-.504" fill-rule="evenodd"/><path transform="matrix(0,1,1,0,455.799,340.056)" d="M0 0-.018-.108 .144-.162 .288-.252 .432-.36 .54-.504 .648-.36 .54-.216 .396-.108 .252-.018 .072 .036 .054 .072 .036 .09 .018 .054" fill="#ffffff" fill-rule="evenodd"/><path transform="matrix(0,1,1,0,456.069,340.434)" d="M0 0-.054-.108 .342-.252 .666-.414 .684-.648 .846-.612 .918-.576 .9-.558 .864-.54 .738 .45 .9 .54 .81 .684 .666 .612 .522 .522 .396 .414 .252 .306 .342 .18 .612 .378 .666-.234 .09 .018 .072 .054 .054 .072 .036 .054" fill="#ffffff" fill-rule="evenodd"/><path transform="matrix(0,1,1,0,455.853,339.876)" d="M0 0 .144 .018V.36L.306 .396 .468 .504 .648 .666 .828 .882 .72 1.044 .63 .918 .558 .828 .468 .738 .378 .666 .198 .558 .09 .54 0 .522" fill="#ffffff" fill-rule="evenodd"/><path transform="matrix(0,1,1,0,457.527,339.84)" d="M0 0H.45001V1.278H0ZM.324 .144H.14401V.37800998H.324ZM.324 .504H.14401V.73801H.324ZM.324 .882H.14401V1.1340101H.324Z" fill="#ffffff" fill-rule="evenodd"/><path transform="matrix(0,1,1,0,457.563,340.452)" d="M0 0 .108 .09 .072 .522H.9V.684H.054L0 1.062V1.134L-.018 1.116-.054 1.098-.144 .99-.054 .504" fill="#ffffff" fill-rule="evenodd"/><path transform="matrix(0,1,1,0,457.779,340.596)" d="M0 0 .144-.072 .36-.216 .432-.306 .486-.396 .612-.288 .486-.144 .36-.054 .594 .144 .504 .288 .378 .144 .216 .036 .126 .09 .108 .126 .09 .144 .072 .126 .054 .108" fill="#ffffff" fill-rule="evenodd"/><path transform="matrix(0,1,1,0,458.517,340.596)" d="M0 0 .162-.036 .27-.09 .36-.126 .432-.18 .486-.252 .594-.144 .468-.036 .342 .036 .468 .126 .612 .252 .504 .378 .432 .288 .36 .216 .27 .162 .162 .108 .072 .144 .036 .18V.162L.018 .126" fill="#ffffff" fill-rule="evenodd"/><path transform="matrix(0,1,1,0,459.849,339.876)" d="M0 0-.054-.108 .126-.162 .288-.234 .468-.324 .63-.432 .738-.324 .576-.216H1.458V-.072H.288L.072 .018 .054 .054H.036L.018 .036" fill="#ffffff" fill-rule="evenodd"/><path transform="matrix(0,1,1,0,459.921,339.912)" d="M0 0H1.422V.162H1.152V.432H1.008V.162H.828V.432H.702V.162H.504V.468H0V0ZM.36 .162H.12599002V.30601H.36Z" fill="#ffffff" fill-rule="evenodd"/><path transform="matrix(0,1,1,0,460.479,339.912)" d="M0 0H.126V.306H.378V0H.504V.45H0" fill="#ffffff" fill-rule="evenodd"/><path transform="matrix(0,1,1,0,460.425,340.542)" d="M0 0H.108V.36L.27 .324 .414 .252 .306 .198 .162 .144 .18 .018 .378 .09 .522 .162 .594 .054 .666-.108 .792-.018 .72 .126 .612 .252 .72 .378 .792 .504 .666 .594 .612 .468 .522 .36 .306 .468 .054 .54-.036 .45 0 .414" fill="#ffffff" fill-rule="evenodd"/><path transform="matrix(0,1,1,0,461.541,340.038)" d="M0 0H.126V.18H.792V-.018H.918V.846H.792V.72H.126V.846H0V.72H-.144L-.162 .738H-.18L-.198 .72-.216 .684V.558H0V.306H-.144L-.162 .342H-.18L-.198 .324-.216 .288V.18H0V0ZM.522 .306H.39599V.55798H.522ZM.792 .306H.64802V.55798H.792ZM.27 .306H.12599V.55798H.27Z" fill="#ffffff" fill-rule="evenodd"/><path transform="matrix(0,1,1,0,462.459,339.84)" d="M0 0H.918L1.116-.018 1.278-.072 1.404-.144 1.494-.018 1.386 .054 1.26 .09 1.116 .126 .972 .144V.396H1.278L1.332 .378 1.35 .306V.198L1.494 .27 1.476 .432 1.458 .468 1.35 .54H0V0ZM.846 .144H.55801V.39598H.846ZM.432 .144H.14401V.39598H.432Z" fill="#ffffff" fill-rule="evenodd"/><path transform="matrix(0,1,1,0,463.539,340.488)" d="M0 0 .108 .108-.018 .198H.846V.36H-.306L-.576 .486H-.45V.648L-.234 .612-.036 .576 .126 .504 .252 .414 .36 .54 .252 .612 .36 .792 .468 .702 .558 .63 .63 .522 .684 .414 .81 .522 .738 .648C.612 .887 .247 1.056-.018 1.044H-.216V.756L-.45 .792V1.062H-.576V.522H-.612L-.63 .486-.684 .36-.504 .288-.144 .108 0 0ZM-.072 .72V.9L.216 .846 .108 .666-.072 .72" fill="#ffffff" fill-rule="evenodd"/><path transform="matrix(0,1,1,0,464.673,340.02)" d="M0 0H.99V.144H.054L.036 .162 0 .144" fill="#ffffff" fill-rule="evenodd"/><path transform="matrix(0,1,1,0,464.961,339.822)" d="M0 0H1.242L1.296-.018 1.368-.054V-.252L1.512-.198 1.494 0 1.476 .054 1.44 .108 1.386 .126 1.296 .144H.072L.036 .18 0 .144" fill="#ffffff" fill-rule="evenodd"/><path transform="matrix(0,1,1,0,466.113,339.822)" d="M0 0-.018-.108 .198-.144 .414-.216 .594-.324 .756-.468 .882-.342 .648-.18 .432-.072V.198L.63 .144 .81 .09 .684-.09 .792-.198 .882-.072 .954 .036 1.08-.054 1.188-.162 1.278-.288 1.35-.45 1.512-.342 1.458-.216 1.386-.09 1.278 .018 1.134 .126 .99 .198 .792 .288 .576 .342 .342 .396 .234 .288 .288 .234V0L.09 .036 .054 .09H.036L.018 .072" fill="#ffffff" fill-rule="evenodd"/><path transform="matrix(0,1,1,0,466.815,339.822)" d="M0 0-.018-.09H.648L.522-.198 .612-.306 .738-.198 .846-.09H1.53V.072H.99L1.116 .288 .936 .432 .864 .216 .774 .072H.072L.036 .108H.018L0 .072" fill="#ffffff" fill-rule="evenodd"/><path transform="matrix(0,1,1,0,458.337,327.78)" d="M0 0H2.232L2.34 .054 2.394 .162 2.412 .306V1.89L2.394 2.016 2.376 2.124 2.322 2.214 2.268 2.286 2.178 2.34 2.07 2.394 1.944 2.43H1.8L1.71 2.178 1.908 2.142 2.052 2.07 2.124 1.962 2.142 1.836V.342L2.124 .306 2.07 .288 1.998 .27H1.134V1.854H1.296V2.106H0V0ZM.864 .27H.25200004V.89997008H.864ZM.864 1.152H.25200004V1.854H.864Z" fill="#ffffff" fill-rule="evenodd"/><path transform="matrix(0,1,1,0,463.035,327.69)" d="M0 0V-.216H.828V-1.35H1.098V-.216H2.106V-1.188H2.358V1.026H2.106V.072H1.098V1.206H.828V.072H.126L.072 .144H.036L.018 .108" fill="#ffffff" fill-rule="evenodd"/><path transform="matrix(0,1,1,0,456.321,333.738)" d="M0 0-.018-.108H1.026V-.594H1.152V.63H1.026V.036H.558V.504H.432V.036H.054L.036 .072H.018L0 .054" fill-rule="evenodd"/><path transform="matrix(0,1,1,0,457.401,334.134)" d="M0 0 .09 .126-.108 .288V.576H.18V-.018H.306V.576H.828V.702H.306V1.206H.18V.702H-.108V1.116H-.234V.36L-.324 .414-.342 .45V.468L-.36 .45-.378 .414-.414 .324-.18 .18" fill-rule="evenodd"/><path transform="matrix(0,1,1,0,479.901,343.08)" stroke-width=".288" stroke-linecap="round" stroke-linejoin="round" fill="none" stroke="#0000ff" d="M0 0C0 .612-.504 1.116-1.116 1.116"/><path transform="matrix(0,1,1,0,454.197,343.08)" stroke-width=".288" stroke-linecap="round" stroke-linejoin="round" fill="none" stroke="#0000ff" d="M0 0V25.704"/><path transform="matrix(0,1,1,0,453.081,341.964)" stroke-width=".288" stroke-linecap="round" stroke-linejoin="round" fill="none" stroke="#0000ff" d="M0 0C.612 0 1.116 .486 1.116 1.116"/><path transform="matrix(0,1,1,0,453.081,318.258)" stroke-width=".288" stroke-linecap="round" stroke-linejoin="round" fill="none" stroke="#0000ff" d="M0 0H23.706"/><path transform="matrix(0,1,1,0,454.197,317.142)" stroke-width=".288" stroke-linecap="round" stroke-linejoin="round" fill="none" stroke="#0000ff" d="M0 0C0-.63 .486-1.116 1.116-1.116"/><path transform="matrix(0,1,1,0,479.901,317.142)" stroke-width=".288" stroke-linecap="round" stroke-linejoin="round" fill="none" stroke="#0000ff" d="M0 0V-25.704"/><path transform="matrix(0,1,1,0,481.017,318.258)" stroke-width=".288" stroke-linecap="round" stroke-linejoin="round" fill="none" stroke="#0000ff" d="M0 0C-.63 0-1.116-.504-1.116-1.116"/><path transform="matrix(0,1,1,0,481.017,341.964)" stroke-width=".288" stroke-linecap="round" stroke-linejoin="round" fill="none" stroke="#0000ff" d="M0 0H-23.706"/><path transform="matrix(0,1,1,0,461.559,341.262)" d="M0 0 .09 .126-.054 .252-.216 .36-.288 .216-.126 .108" fill="#ffffff" fill-rule="evenodd"/><path transform="matrix(0,1,1,0,462.117,340.974)" d="M0 0 .09-.09 .216 0 .342 .054 .252 .198 .108 .108" fill="#ffffff" fill-rule="evenodd"/></g></svg>