<?xml version='1.0' encoding='UTF-8'?>
<svg width="215.26" height="268.06" viewBox="176.86 1.93 215.26 268.06" xmlns="http://www.w3.org/2000/svg" xmlns:xlink="http://www.w3.org/1999/xlink" xmlns:inkscape="http://www.inkscape.org/namespaces/inkscape" version="1.1"><g transform="scale(10.0) translate(-111.171, -154.944)"><defs><clipPath id="clip_2"><path transform="matrix(1,0,0,-1,0,595.276)" d="M74.4 .196H767.4V595.276H74.4Z"/></clipPath></defs><path transform="matrix(1,0,0,-1,0,595.276)" d="M130.68 427.876H148.44C148.56 427.876 148.68 427.876 148.8 427.756 148.92 427.756 148.92 427.636 149.04 427.636 149.16 427.516 149.16 427.396 149.28 427.276 149.28 427.276 149.28 427.156 149.28 427.036V415.276C149.28 415.036 149.16 414.796 149.04 414.676 148.92 414.556 148.92 414.556 148.8 414.436 148.68 414.436 148.56 414.436 148.44 414.436H130.68C130.56 414.436 130.32 414.556 130.2 414.676 129.96 414.796 129.96 415.036 129.96 415.276V427.036C129.96 427.516 130.32 427.876 130.68 427.876Z" fill="#e1e1e1" fill-rule="evenodd"/><path transform="matrix(1,0,0,-1,0,595.276)" d="M130.68 439.036H148.44C148.56 439.036 148.68 439.036 148.8 439.036 148.92 438.916 148.92 438.916 149.04 438.796 149.16 438.796 149.16 438.676 149.28 438.556 149.28 438.436 149.28 438.316 149.28 438.316V429.196C149.28 428.956 149.16 428.716 149.04 428.596 148.92 428.476 148.92 428.476 148.8 428.476 148.68 428.356 148.56 428.356 148.44 428.356H130.68C130.56 428.356 130.32 428.476 130.2 428.596 130.08 428.716 129.96 428.716 129.96 428.836 129.96 428.956 129.96 429.076 129.96 429.196V438.316C129.96 438.676 130.32 439.036 130.68 439.036Z" fill="#e1e1e1" fill-rule="evenodd"/><path transform="matrix(1,0,0,-1,0,595.276)" d="M144 433.756C144 434.836 143.52 436.036 142.68 436.756 141.84 437.596 140.76 438.076 139.56 438.076 138.48 438.076 137.28 437.596 136.56 436.756 135.72 436.036 135.24 434.836 135.24 433.756 135.24 432.556 135.72 431.476 136.56 430.636 137.28 429.796 138.48 429.316 139.56 429.316 140.76 429.316 141.84 429.796 142.68 430.636 143.52 431.476 144 432.556 144 433.756Z" fill-rule="evenodd"/><path transform="matrix(1,0,0,-1,0,595.276)" d="M142.32 431.596C142.8 432.196 143.04 432.916 143.04 433.756 143.04 434.476 142.8 435.316 142.32 435.916L140.16 433.756 142.32 431.596Z" fill="#e1e1e1" fill-rule="evenodd"/><path transform="matrix(1,0,0,-1,0,595.276)" d="M137.4 436.516C138 436.876 138.72 437.236 139.56 437.236 140.4 437.236 141.12 436.876 141.72 436.516L139.56 434.356 137.4 436.516Z" fill="#e1e1e1" fill-rule="evenodd"/><path transform="matrix(1,0,0,-1,0,595.276)" d="M136.8 435.916C136.44 435.316 136.08 434.476 136.08 433.756 136.08 432.916 136.44 432.196 136.8 431.596L138.96 433.756 136.8 435.916Z" fill="#e1e1e1" fill-rule="evenodd"/><path transform="matrix(1,0,0,-1,0,595.276)" d="M137.4 430.996C138 430.516 138.72 430.156 139.56 430.156 140.4 430.156 141.12 430.516 141.72 430.996L139.56 433.036 137.4 430.996Z" fill="#e1e1e1" fill-rule="evenodd"/><path transform="matrix(1,0,0,-1,0,595.276)" d="M139.8 417.436H140.28V416.716H139.8V416.236H139.08V416.716H137.28V417.436L138.84 419.596H139.8V417.436ZM139.08 418.756 138.12 417.436H139.08V418.756Z" fill-rule="evenodd"/><path transform="matrix(1,0,0,-1,0,595.276)" d="M144.48 416.236H145.32L146.4 418.876V419.596H144V418.876H145.68Z" fill-rule="evenodd"/><path transform="matrix(1,0,0,-1,0,595.276)" d="M133.2 425.356V425.116C133.08 425.116 132.96 425.116 132.96 425.116L132.84 425.236C132.84 425.236 132.6 425.116 132.48 425.116 132.36 425.116 132.24 425.116 132.12 425.236 132.12 425.356 132 425.476 132 425.596 132 425.836 132.24 425.956 132.72 425.956V426.076 426.196H132.6C132.48 426.196 132.48 426.196 132.36 426.196 132.36 426.076 132.24 426.076 132.24 426.076L132 426.316C132.24 426.436 132.36 426.436 132.6 426.436 132.72 426.436 132.84 426.436 132.96 426.436 133.08 426.316 133.08 426.196 133.08 426.076V425.476L133.2 425.356ZM132.36 425.596C132.36 425.476 132.36 425.476 132.48 425.476H132.6 132.72V425.716C132.6 425.716 132.48 425.716 132.48 425.716L132.36 425.596Z" fill-rule="evenodd"/><path transform="matrix(1,0,0,-1,0,595.276)" d="M134.76 426.196C134.64 426.196 134.52 426.076 134.52 425.956V425.236H134.16V426.076L134.04 426.196C133.92 426.196 133.8 426.076 133.8 425.956V425.236H133.44V426.436H133.8 133.92 134.04C134.28 426.436 134.4 426.436 134.4 426.316 134.52 426.436 134.64 426.436 134.76 426.436 135 426.436 135.12 426.316 135.24 426.196V426.076 425.236H134.88V426.076C134.76 426.076 134.76 426.196 134.76 426.196Z" fill-rule="evenodd"/><path transform="matrix(1,0,0,-1,0,595.276)" d="M144.48 425.956V422.476H143.76V424.996H143.28V425.596C143.28 425.596 143.4 425.596 143.52 425.596L143.64 425.716C143.76 425.716 143.76 425.716 143.76 425.836V425.956H144.48Z" fill-rule="evenodd"/><path transform="matrix(1,0,0,-1,0,595.276)" d="M148.32 424.276C148.32 424.876 148.2 425.356 147.96 425.596 147.72 425.956 147.36 426.076 146.88 426.076 146.28 426.076 145.92 425.956 145.68 425.596 145.44 425.356 145.32 424.876 145.32 424.276 145.32 423.676 145.44 423.196 145.68 422.836 145.92 422.596 146.28 422.356 146.88 422.356 147.84 422.356 148.32 422.956 148.32 424.276ZM147.6 424.276C147.6 423.796 147.48 423.556 147.36 423.316 147.24 423.196 147.12 423.076 146.88 423.076 146.52 423.076 146.4 423.196 146.28 423.316 146.16 423.556 146.04 423.796 146.04 424.276 146.04 424.996 146.28 425.356 146.88 425.356 147.36 425.356 147.6 424.996 147.6 424.276Z" fill-rule="evenodd"/><path transform="matrix(1,0,0,-1,0,595.276)" d="M134.76 419.836C134.64 419.836 134.52 419.716 134.52 419.596V418.876H134.28V419.716C134.16 419.716 134.16 419.836 134.04 419.836 133.92 419.836 133.8 419.716 133.8 419.596V418.876H133.44V420.076H133.8 133.92C134.04 420.196 134.04 420.196 134.16 420.196 134.28 420.196 134.4 420.076 134.4 419.956 134.52 420.076 134.64 420.196 134.76 420.196 135 420.196 135.24 420.076 135.24 419.836V419.716 418.876H135V419.716C135 419.716 134.88 419.716 134.88 419.836H134.76Z" fill-rule="evenodd"/><path transform="matrix(1,0,0,-1,0,595.276)" d="M133.2 419.476C133.2 419.956 132.96 420.196 132.6 420.196 132.48 420.196 132.36 420.076 132.36 420.076H132V418.396H132.36V418.876C132.36 418.876 132.48 418.756 132.72 418.756 132.96 418.756 133.2 419.116 133.2 419.476ZM132.6 419.116C132.6 419.116 132.48 419.116 132.48 419.236 132.36 419.236 132.36 419.236 132.36 419.356V419.716C132.36 419.716 132.48 419.836 132.6 419.836 132.72 419.836 132.84 419.836 132.84 419.716V419.596 419.356 419.236C132.84 419.236 132.72 419.116 132.6 419.116Z" fill-rule="evenodd"/><path transform="matrix(1,0,0,-1,0,595.276)" d="M138.84 422.356C139.56 422.356 140.16 422.836 140.16 423.556 140.16 423.796 139.92 424.156 139.68 424.276 139.92 424.516 140.04 424.756 140.04 424.996 140.04 425.356 139.92 425.596 139.68 425.836 139.56 425.956 139.2 426.076 138.84 426.076 138.36 426.076 138.12 425.956 137.88 425.836 137.64 425.596 137.52 425.356 137.52 424.996 137.52 424.756 137.64 424.516 137.88 424.276 137.64 424.156 137.4 423.796 137.4 423.556 137.4 422.836 138 422.356 138.84 422.356ZM138.84 424.036C139.2 424.036 139.32 423.796 139.32 423.556 139.32 423.196 139.2 423.076 138.84 423.076 138.48 423.076 138.24 423.196 138.24 423.556 138.24 423.796 138.48 424.036 138.84 424.036ZM139.32 424.996C139.32 424.756 139.08 424.636 138.84 424.636 138.48 424.636 138.36 424.756 138.36 424.996 138.36 425.236 138.48 425.356 138.84 425.356 139.08 425.356 139.32 425.236 139.32 424.996Z" fill-rule="evenodd"/><path transform="matrix(1,0,0,-1,0,595.276)" d="M140.76 423.916H142.68V424.636H140.76Z" fill-rule="evenodd"/><path transform="matrix(1,0,0,-1,0,595.276)" d="M140.76 417.676H142.68V418.276H140.76Z" fill-rule="evenodd"/><path transform="matrix(1,0,0,-1,0,595.276)" d="M130.92 417.796V417.556H132V415.636H132.24V416.956L132.48 416.716 132.84 416.476 133.08 416.596 132.6 416.956 132.24 417.196V417.556H133.32V417.796Z" fill-rule="evenodd"/><path transform="matrix(1,0,0,-1,0,595.276)" d="M134.16 417.196 134.4 417.076 134.64 417.436H135.24V416.956H134.16V416.716H135.24V415.636H135.48V416.716H136.44V416.956H135.48V417.436H136.2V417.676H134.88L135 417.916H134.88L134.76 418.036 134.52 417.556Z" fill-rule="evenodd"/><path transform="matrix(1,0,0,-1,0,595.276)" d="M132.12 424.276 131.88 424.396V422.356H130.92V422.116H133.32V422.356H132.12V423.316H133.08V423.556H132.12V424.276H132.24Z" fill-rule="evenodd"/><path transform="matrix(1,0,0,-1,0,595.276)" d="M134.16 423.556 134.4 423.436 134.64 423.796H135.24V423.196H134.16V422.956H135.24V421.996H135.48V422.956H136.44V423.196H135.48V423.796H136.2V424.036H134.88L135 424.156V424.276H134.88L134.76 424.396 134.52 423.916Z" fill-rule="evenodd"/><path transform="matrix(1,0,0,-1,0,595.276)" d="M148.44 439.876H130.68C130.56 439.876 130.32 439.876 130.08 439.756 129.96 439.636 129.72 439.516 129.6 439.396 129.36 439.276 129.24 439.036 129.24 438.796 129.12 438.676 129.12 438.436 129.12 438.316V415.276C129.12 414.796 129.24 414.436 129.6 414.076 129.72 413.956 129.96 413.836 130.08 413.716 130.32 413.716 130.56 413.596 130.68 413.596H148.44C148.92 413.596 149.28 413.716 149.64 414.076 150 414.436 150.12 414.796 150.12 415.276V438.316C150.12 438.676 150 439.036 149.64 439.396 149.28 439.756 148.92 439.876 148.44 439.876ZM130.68 427.876H148.44C148.68 427.876 148.92 427.756 149.04 427.636 149.16 427.396 149.28 427.276 149.28 427.036V415.276C149.28 415.036 149.16 414.796 149.04 414.676 148.92 414.556 148.68 414.436 148.44 414.436H130.68C130.56 414.436 130.32 414.556 130.08 414.676 130.08 414.796 129.96 414.796 129.96 414.916 129.96 415.036 129.96 415.156 129.96 415.276V427.036C129.96 427.276 129.96 427.396 130.08 427.636 130.32 427.756 130.56 427.876 130.68 427.876ZM130.68 428.356C130.32 428.356 129.96 428.716 129.96 429.196V438.316C129.96 438.316 129.96 438.436 129.96 438.556 129.96 438.676 130.08 438.796 130.08 438.796 130.32 439.036 130.56 439.036 130.68 439.036H148.44C148.56 439.036 148.68 439.036 148.8 439.036 148.92 438.916 148.92 438.916 149.04 438.796 149.16 438.676 149.28 438.436 149.28 438.316V429.196C149.28 428.956 149.16 428.716 149.04 428.596 148.92 428.476 148.68 428.356 148.44 428.356H130.68Z" fill-rule="evenodd"/></g></svg>