<?xml version='1.0' encoding='UTF-8'?>
<svg width="179.10" height="250.90" viewBox="188.90 10.15 179.10 250.90" xmlns="http://www.w3.org/2000/svg" xmlns:xlink="http://www.w3.org/1999/xlink" xmlns:inkscape="http://www.inkscape.org/namespaces/inkscape" version="1.1"><g transform="scale(10.0) translate(-220.305, -343.440)"><defs><clipPath id="clip_2"><path transform="matrix(1,0,0,-1,0,595.276)" d="M74.4 .196H767.4V595.276H74.4Z"/></clipPath></defs><path transform="matrix(.12,0,0,.12,0,0)" stroke-width="1" stroke-linecap="butt" stroke-dasharray="47,24" stroke-linejoin="round" fill="none" stroke="#000000" d="M2074 2909C2074 2925 2087 2938 2103 2938 2119 2938 2132 2925 2132 2909 2132 2893 2119 2880 2103 2880 2087 2880 2074 2893 2074 2909"/><path transform="matrix(.12,0,0,.12,0,0)" stroke-width="1" stroke-linecap="butt" stroke-dasharray="47,24" stroke-linejoin="round" fill="none" stroke="#000000" d="M2074 2975C2074 2991 2087 3004 2103 3004 2119 3004 2132 2991 2132 2975 2132 2959 2119 2946 2103 2946 2087 2946 2074 2959 2074 2975"/><path transform="matrix(.12,0,0,.12,0,0)" stroke-width="1" stroke-linecap="butt" stroke-dasharray="47,24" stroke-linejoin="round" fill="none" stroke="#000000" d="M2074 3040C2074 3056 2087 3069 2103 3069 2119 3069 2132 3056 2132 3040 2132 3024 2119 3011 2103 3011 2087 3011 2074 3024 2074 3040"/><path transform="matrix(.12,0,0,.12,0,0)" stroke-width="1" stroke-linecap="butt" stroke-dasharray="47,24" stroke-linejoin="round" fill="none" stroke="#000000" d="M2067 2873H2140"/><path transform="matrix(1,0,0,-1,0,595.276)" stroke-width=".12" stroke-linecap="butt" stroke-miterlimit="10" stroke-linejoin="miter" fill="none" stroke="#000000" d="M239.5 234.5H247.5"/><path transform="matrix(.12,0,0,.12,0,0)" stroke-width="1" stroke-linecap="butt" stroke-dasharray="47,24" stroke-linejoin="round" fill="none" stroke="#000000" d="M2067 2873V3076"/><path transform="matrix(.12,0,0,.12,0,0)" stroke-width="1" stroke-linecap="butt" stroke-dasharray="47,24" stroke-linejoin="round" fill="none" stroke="#000000" d="M2140 2873V3076"/><path transform="matrix(1,0,0,-1,0,595.276)" stroke-width=".12" stroke-linecap="butt" stroke-miterlimit="10" stroke-linejoin="miter" fill="none" stroke="#000000" d="M239.5 234.5V226.5"/><path transform="matrix(1,0,0,-1,0,595.276)" stroke-width=".12" stroke-linecap="butt" stroke-miterlimit="10" stroke-linejoin="miter" fill="none" stroke="#000000" d="M239.5 226.5H247.5"/><path transform="matrix(.12,0,0,.12,0,0)" stroke-width="1" stroke-linecap="butt" stroke-dasharray="47,24" stroke-linejoin="round" fill="none" stroke="#000000" d="M2067 3076H2140"/><path transform="matrix(1,0,0,-1,0,595.276)" stroke-width=".12" stroke-linecap="butt" stroke-miterlimit="10" stroke-linejoin="miter" fill="none" stroke="#000000" d="M247.5 234.5V226.5"/><path transform="matrix(1,0,0,-1,0,595.276)" d="M247.2 226.156H247.08V226.036C247.2 226.036 247.2 226.156 247.2 226.156Z" fill-rule="evenodd"/><path transform="matrix(1,0,0,-1,0,595.276)" stroke-width=".12" stroke-linecap="round" stroke-linejoin="round" fill="none" stroke="#000000" d="M246.6 230.236C246.6 232.156 245.04 233.716 243.12 233.716 241.2 233.716 239.64 232.156 239.64 230.236 239.64 228.316 241.2 226.756 243.12 226.756 245.04 226.756 246.6 228.316 246.6 230.236"/><path transform="matrix(1,0,0,-1,0,595.276)" d="M242.76 229.636V230.716H245.76V229.636Z" fill="#00ff00" fill-rule="evenodd"/><path transform="matrix(1,0,0,-1,0,595.276)" d="M240.24 230.236 242.76 232.636H244.2L241.8 230.236 244.2 227.716H242.76Z" fill="#00ff00" fill-rule="evenodd"/></g></svg>