<?xml version='1.0' encoding='UTF-8'?>
<svg width="182.29" height="263.47" viewBox="193.62 3.00 182.29 263.47" xmlns="http://www.w3.org/2000/svg" xmlns:xlink="http://www.w3.org/1999/xlink" xmlns:inkscape="http://www.inkscape.org/namespaces/inkscape" version="1.1"><g transform="scale(10.0) translate(-438.573, -74.160)"><defs><clipPath id="clip_19"><path transform="matrix(0,1,1,0,0,0)" d="M0 74.451H595.008V767.55899H0Z"/></clipPath><clipPath id="clip_20"><path transform="matrix(0,1,1,0,0,0)" d="M0 842.013H595.224V.008972168H0Z"/></clipPath></defs><path transform="matrix(0,1,1,0,459.543,74.718)" d="M0 0V15.012C0 15.156 .036 15.336 .09 15.498 .162 15.678 .27 15.822 .396 15.966 .54 16.092 .684 16.2 .864 16.272 1.026 16.326 1.206 16.362 1.368 16.362H24.48C24.642 16.362 24.804 16.326 24.984 16.272 25.146 16.2 25.308 16.092 25.434 15.966 25.578 15.822 25.668 15.678 25.74 15.498 25.812 15.336 25.83 15.156 25.83 15.012V0C25.83-.162 25.812-.324 25.74-.504 25.668-.666 25.578-.828 25.434-.954 25.308-1.098 25.146-1.188 24.984-1.26 24.804-1.332 24.642-1.35 24.48-1.35H1.368C1.206-1.35 1.026-1.332 .864-1.26 .684-1.188 .54-1.098 .396-.954 .27-.828 .162-.666 .09-.504 .036-.324 0-.162 0 0ZM.684 0C.684-.162 .738-.342 .882-.468 1.026-.612 1.188-.666 1.368-.666H12.726C12.888-.666 13.068-.612 13.212-.468 13.338-.342 13.41-.162 13.41 0V15.012C13.41 15.174 13.338 15.354 13.212 15.48 13.068 15.624 12.888 15.678 12.726 15.678H1.368C1.188 15.678 1.026 15.624 .882 15.48 .738 15.354 .684 15.174 .684 15.012V0ZM13.842 0C13.842-.18 13.914-.342 14.04-.468 14.184-.594 14.346-.666 14.526-.666H24.48C24.642-.666 24.822-.612 24.966-.468 25.092-.342 25.164-.162 25.164 0V15.012C25.164 15.174 25.092 15.354 24.966 15.48 24.822 15.624 24.642 15.678 24.48 15.678H14.526C14.454 15.678 14.364 15.66 14.274 15.642 14.202 15.606 14.112 15.552 14.04 15.48 13.914 15.354 13.842 15.174 13.842 15.012V0" fill-rule="evenodd"/><path transform="matrix(0,1,1,0,459.543,75.402)" d="M0 0V15.012C0 15.084 .018 15.174 .036 15.246 .072 15.336 .126 15.408 .198 15.48 .27 15.552 .342 15.606 .432 15.642 .504 15.66 .594 15.678 .684 15.678H12.042C12.204 15.678 12.384 15.624 12.528 15.48 12.654 15.354 12.726 15.174 12.726 15.012V0C12.726-.162 12.654-.342 12.528-.468 12.456-.54 12.384-.594 12.294-.63 12.204-.666 12.132-.666 12.042-.666H.684C.504-.666 .342-.612 .198-.468 .054-.342 0-.162 0 0" fill="#ffff00" fill-rule="evenodd"/><path transform="matrix(0,1,1,0,470.001,79.056)" d="M0 0C-.774 0-1.53-.306-2.088-.864-2.646-1.422-2.952-2.178-2.952-2.952-2.952-3.744-2.646-4.482-2.088-5.04-1.53-5.598-.774-5.904 0-5.904 .792-5.904 1.53-5.598 2.088-5.04 2.646-4.482 2.952-3.744 2.952-2.952 2.952-2.178 2.646-1.422 2.088-.864 1.53-.306 .792 0 0 0" fill="#ff0000" fill-rule="evenodd"/><path transform="matrix(0,1,1,0,459.543,88.56)" d="M0 0V15.012C0 15.174 .072 15.354 .198 15.48 .342 15.624 .522 15.678 .684 15.678H10.638C10.71 15.678 10.8 15.66 10.89 15.642 10.98 15.606 11.052 15.552 11.124 15.48 11.178 15.408 11.232 15.336 11.268 15.246 11.304 15.174 11.322 15.084 11.322 15.012V0C11.322-.162 11.25-.342 11.124-.468 11.052-.54 10.98-.594 10.89-.63 10.8-.666 10.71-.666 10.638-.666H.684C.504-.666 .342-.594 .198-.468 .072-.342 0-.18 0 0" fill="#ffffff" fill-rule="evenodd"/><path transform="matrix(0,1,1,0,468.921,80.514)" d="M0 0C-.198 .144-.414 .27-.666 .36-.918 .45-1.188 .486-1.458 .486-1.728 .486-1.998 .45-2.232 .36-2.484 .27-2.718 .144-2.898 0L-1.458-1.458 0 0" fill="#0000ff" fill-rule="evenodd"/><path transform="matrix(0,1,1,0,465.591,80.928)" d="M0 0C.144 .198 .27 .414 .36 .666 .45 .918 .486 1.188 .486 1.458 .486 1.728 .45 1.998 .36 2.25 .27 2.484 .144 2.718 0 2.898L-1.458 1.458 0 0" fill="#0000ff" fill-rule="evenodd"/><path transform="matrix(0,1,1,0,465.177,80.514)" d="M0 0C-.198-.144-.414-.27-.666-.36-.918-.45-1.188-.486-1.458-.486-1.728-.486-1.998-.45-2.232-.36-2.484-.27-2.718-.144-2.898 0L-1.458 1.458 0 0" fill="#0000ff" fill-rule="evenodd"/><path transform="matrix(0,1,1,0,465.591,77.202)" d="M0 0C-.162 .198-.288 .414-.378 .666-.45 .918-.504 1.188-.504 1.458-.504 1.728-.45 1.998-.378 2.25-.288 2.484-.162 2.718 0 2.898L1.44 1.458 0 0" fill="#0000ff" fill-rule="evenodd"/><path transform="matrix(0,1,1,0,464.295,86.85)" d="M0 0V5.004C-.09 4.986-.198 4.986-.306 5.004-.432 5.04-.54 5.076-.63 5.166-.72 5.238-.792 5.328-.846 5.436-.9 5.544-.918 5.652-.918 5.742-.918 5.85-.9 5.94-.846 6.048-.792 6.156-.72 6.246-.63 6.336-.54 6.408-.414 6.444-.306 6.48-.198 6.498-.09 6.498 0 6.462L-.504 8.73H-3.492C-3.654 8.73-3.816 8.676-3.96 8.532-4.014 8.478-4.068 8.388-4.104 8.316-4.14 8.226-4.158 8.154-4.158 8.064V-2.232C-4.158-2.394-4.086-2.574-3.96-2.7-3.816-2.844-3.654-2.898-3.492-2.898H-2.16L-1.818-3.222H-.324C-.252-3.222-.162-3.204-.09-3.132-.072-3.096-.036-3.06-.018-3.024 0-2.97 0-2.934 0-2.898V-1.458C-.09-1.494-.198-1.494-.306-1.476-.432-1.44-.54-1.404-.63-1.314-.72-1.242-.792-1.152-.846-1.044-.9-.936-.918-.828-.918-.738-.918-.63-.9-.54-.846-.432-.792-.324-.72-.234-.63-.144-.54-.072-.432-.018-.306 0-.198 .018-.09 .018 0 0ZM-2.322 1.098H-3.31201V3.2580002H-2.322ZM-3.312 5.742H-2.32199V3.582H-3.312ZM-2.322 5.742ZM-2.322 8.406V6.066H-3.312V8.064C-3.312 8.154-3.294 8.226-3.222 8.298-3.15 8.37-3.06 8.406-2.988 8.406H-2.322ZM-2.322-1.404H-3.31201V.75600007H-2.322ZM-3.312-1.728H-.50399997V-2.556H-3.312Z" fill-rule="evenodd"/><path transform="matrix(0,1,1,0,470.703,86.688)" d="M0 0C-.18 0-.342-.072-.468-.198-.594-.324-.666-.486-.666-.666-.666-.846-.594-1.008-.468-1.134-.342-1.26-.18-1.332 0-1.332 .18-1.332 .342-1.26 .468-1.134 .594-1.008 .666-.846 .666-.666 .666-.486 .594-.324 .468-.198 .342-.072 .18 0 0 0ZM0-.342C.18-.342 .324-.486 .324-.666 .324-.846 .18-.99 0-.99-.18-.99-.342-.846-.342-.666-.342-.486-.18-.342 0-.342" fill-rule="evenodd"/><path transform="matrix(0,1,1,0,464.223,86.688)" d="M0 0C-.18 0-.342-.072-.468-.198-.594-.324-.666-.486-.666-.666-.666-.846-.594-1.008-.468-1.134-.342-1.26-.18-1.332 0-1.332 .18-1.332 .342-1.26 .468-1.134 .594-1.008 .666-.846 .666-.666 .666-.486 .594-.324 .468-.198 .342-.072 .18 0 0 0ZM0-.324C.18-.324 .324-.486 .324-.666 .324-.846 .18-.99 0-.99-.18-.99-.342-.846-.342-.666-.342-.486-.18-.324 0-.324" fill-rule="evenodd"/><path transform="matrix(0,1,1,0,464.277,91.728)" d="M0 0V1.17H-.594V0H-1.17V1.278H-1.746V-.63H1.152V1.44H.576V0" fill-rule="evenodd"/><path transform="matrix(0,1,1,0,468.111,92.88)" d="M0 0H-1.476C-1.944 0-2.178-.27-2.178-.81-2.178-.918-2.16-1.008-2.124-1.098-2.088-1.17-2.034-1.242-1.98-1.296H-2.106V-1.89H0V-1.296H-1.296C-1.512-1.26-1.62-1.134-1.638-.9-1.62-.702-1.512-.594-1.296-.594H-1.278C-1.278-.594-1.296-.594-1.278-.594H0V0" fill-rule="evenodd"/><path transform="matrix(0,1,1,0,470.055,90.882)" d="M0 0H-.9V.558H2.052V-.018H1.944C2.034-.108 2.088-.27 2.106-.504 2.124-.99 1.782-1.404 1.08-1.476H.774C.198-1.422-.108-1.044-.144-.558-.144-.396-.09-.216 0 0H.018 0ZM1.314-.018H.792C.72-.018 .684-.018 .648-.018 .612-.036 .576-.072 .558-.09 .54-.108 .54-.108 .522-.108 .45-.198 .396-.306 .396-.432 .414-.738 .612-.9 .972-.936 1.368-.918 1.584-.756 1.602-.45 1.584-.234 1.494-.09 1.314-.018" fill-rule="evenodd"/><path transform="matrix(0,1,1,0,463.251,94.554)" d="M0 0-.162-.252 .504-.72 .342-.936 .666-1.188 1.242-.414 1.854-.846 1.872-1.17 2.178-1.098 2.304-1.062 2.34-1.026 2.322-.99 2.232-.918 2.124-.414H4.068V-.018H2.07L2.016 .342 2.304 .432 2.232 .81 1.746 .666 1.26 .432 1.35 .126 1.71 .252 1.782-.378 .774 .504 .738 .612 .684 .648H.63L.576 .576 .414 .306 .954-.18 .72-.45 .216 0 .162 .09 .108 .126 .054 .09" fill-rule="evenodd"/><path transform="matrix(0,1,1,0,462.585,97.128)" d="M0 0-.072-.324 .504-.414 1.062-.594 1.188-.198 .198 .036 .126 .108 .072 .126 .036 .09" fill-rule="evenodd"/><path transform="matrix(0,1,1,0,463.647,97.02)" d="M0 0 .09-.306 .558-.144 1.116-.072 .99 .342 .504 .216" fill-rule="evenodd"/><path transform="matrix(0,1,1,0,464.853,94.482)" d="M0 0-.072-.252 .324-.342 .684-.486 1.044-.684 1.386-.936 1.602-.576 1.152-.27 1.476-.126 1.782 .108 1.926-.036 2.088-.234 2.232-.504 2.394-.846 2.736-.594 2.502-.108 2.088 .378 2.394 .72 2.664 1.134 2.322 1.566 2.25 1.314 2.124 1.08 1.962 .864 1.782 .666 1.26 1.026 .594 1.332 .342 1.062 .396 .954V.018L.216 .108 .162 .198 .108 .216 .054 .144 0 0ZM.756-.036V.81L1.17 .63 1.512 .378 1.17 .126 .756-.036" fill-rule="evenodd"/><path transform="matrix(0,1,1,0,464.241,98.082)" d="M0 0 .396 .108 .504 .144 .522 .198 .486 .252 .396 .306 .216 1.134-.054 2.034H-.414L-.162 1.026" fill-rule="evenodd"/><path transform="matrix(0,1,1,0,465.033,96.948)" d="M0 0 .27-.198 .468 .108 .756 .396 .486 .702 .216 .378" fill-rule="evenodd"/><path transform="matrix(0,1,1,0,470.253,94.536)" d="M0 0-.036-.378H3.438V-1.368H1.494L1.44-1.26H1.386L1.35-1.332 1.314-1.494 1.278-1.818H3.438V-2.538H3.888V1.782H3.438V.108H1.98V1.332H1.548V.108H.18L.126 .216 .054 .252 .018 .18" fill-rule="evenodd"/></g></svg>