<?xml version='1.0' encoding='UTF-8'?>
<svg width="318.22" height="258.22" viewBox="124.54 6.13 318.22 258.22" xmlns="http://www.w3.org/2000/svg" xmlns:xlink="http://www.w3.org/1999/xlink" xmlns:inkscape="http://www.inkscape.org/namespaces/inkscape" version="1.1"><g transform="scale(10.0) translate(-56.655, -531.936)"><path transform="matrix(1,0,0,-1,0,595.276)" d="M71.76 62.356H92.16C92.52 62.356 92.88 62.356 93.24 62.116 93.6 61.876 93.84 61.636 94.08 61.276L100.32 50.476C100.44 50.236 100.56 50.116 100.56 49.876 100.56 49.636 100.44 49.516 100.32 49.276L94.08 38.476C93.84 38.116 93.6 37.876 93.24 37.636 92.88 37.396 92.52 37.276 92.16 37.276H71.76C71.52 37.276 71.16 37.396 70.92 37.516 70.68 37.636 70.44 37.756 70.2 37.996 69.96 38.236 69.84 38.476 69.72 38.716 69.6 38.956 69.48 39.316 69.48 39.556V60.196C69.48 60.676 69.72 61.276 70.2 61.756 70.44 61.996 70.68 62.116 70.92 62.236 71.16 62.356 71.52 62.356 71.76 62.356ZM71.76 61.276C71.52 61.276 71.16 61.156 70.92 60.916 70.68 60.676 70.68 60.436 70.68 60.196V39.556C70.68 39.436 70.68 39.316 70.68 39.196 70.8 38.956 70.8 38.836 70.92 38.716 71.16 38.596 71.52 38.476 71.76 38.476H92.16C92.28 38.476 92.52 38.476 92.76 38.596 92.88 38.716 93 38.836 93.12 38.956L99.36 49.876 93.12 60.676C92.88 61.036 92.52 61.276 92.16 61.276H71.76Z" fill="#0000ff" fill-rule="evenodd"/><path transform="matrix(1,0,0,-1,0,595.276)" stroke-width=".12" stroke-linecap="butt" stroke-miterlimit="10" stroke-linejoin="miter" fill="none" stroke="#ffffff" d="M92.5 38.5V38.5"/><path transform="matrix(1,0,0,-1,0,595.276)" d="M92.16 38.476C92.28 38.476 92.52 38.476 92.76 38.596 92.88 38.716 93 38.836 93.12 38.956L99.36 49.876 93.12 60.676C93 60.916 92.88 61.036 92.76 61.156 92.52 61.276 92.28 61.276 92.16 61.276H71.76C71.64 61.276 71.52 61.276 71.4 61.156 71.16 61.156 71.04 61.036 70.92 60.916 70.8 60.796 70.8 60.676 70.68 60.556 70.68 60.436 70.68 60.316 70.68 60.196V39.556C70.68 39.316 70.68 38.956 70.92 38.716 71.16 38.596 71.52 38.476 71.76 38.476H92.16Z" fill="#ffffff" fill-rule="evenodd"/><path transform="matrix(1,0,0,-1,0,595.276)" d="M72.36 59.836H86.4V39.916H72.36Z" fill="#0000ff" fill-rule="evenodd"/><path transform="matrix(1,0,0,-1,0,595.276)" d="M93.48 49.876 87.6 60.196H91.44L97.32 49.876 91.44 39.556H87.6Z" fill-rule="evenodd"/><path transform="matrix(1,0,0,-1,0,595.276)" d="M77.64 52.156H80.52C80.88 52.156 81.36 52.276 81.72 52.396 82.2 52.636 82.56 52.876 82.92 53.236 83.52 53.836 83.88 54.676 83.88 55.516 83.88 57.316 82.32 58.876 80.52 58.876H75V47.836H77.64V52.156ZM77.64 53.956V57.076H79.92C80.64 57.076 81.24 56.476 81.24 55.756V55.276C81.24 55.156 81.12 55.036 81.12 54.796 81 54.676 81 54.556 80.76 54.316 80.64 54.196 80.52 54.196 80.4 54.076 80.16 53.956 80.04 53.956 79.92 53.956H77.64Z" fill="#ffffff" fill-rule="evenodd"/><path transform="matrix(1,0,0,-1,0,595.276)" d="M76.56 41.716H81.72C81.72 41.836 81.72 41.956 81.72 42.076 81.72 42.196 81.84 42.316 81.84 42.316 82.08 42.556 82.32 42.676 82.44 42.676 82.68 42.676 82.92 42.556 83.04 42.316 83.28 42.196 83.28 41.956 83.28 41.716L85.56 42.196V45.316C85.56 45.436 85.44 45.676 85.32 45.796 85.2 45.916 85.08 45.916 84.84 45.916H74.28C74.16 45.916 74.04 45.916 73.8 45.796 73.68 45.676 73.68 45.436 73.68 45.316V43.876L73.32 43.636V42.076C73.32 41.956 73.32 41.836 73.44 41.836 73.44 41.716 73.56 41.716 73.68 41.716H75.12C75.12 41.956 75.12 42.196 75.24 42.316 75.48 42.556 75.72 42.676 75.84 42.676 76.08 42.676 76.32 42.556 76.44 42.316 76.68 42.196 76.68 41.956 76.56 41.716ZM85.2 44.116H82.8V45.076H84.84C84.96 45.076 85.08 45.076 85.08 45.076 85.2 44.956 85.2 44.836 85.2 44.836V44.116ZM82.44 44.116H80.28V45.076H82.44V44.116ZM77.76 44.116V45.076H79.92V44.116H77.76ZM75.24 44.116V45.076H77.4V44.116H75.24ZM74.88 45.076V42.196H74.04V45.076H74.88Z" fill="#ffffff" fill-rule="evenodd"/><path transform="matrix(1,0,0,-1,0,595.276)" d="M83.16 41.836C83.16 42.316 82.92 42.556 82.44 42.556 82.32 42.556 82.2 42.556 81.96 42.316 81.84 42.196 81.84 42.076 81.84 41.836 81.84 41.716 81.84 41.596 81.96 41.356 82.2 41.236 82.32 41.236 82.44 41.236 82.92 41.236 83.16 41.476 83.16 41.836ZM82.8 41.836C82.8 41.716 82.68 41.596 82.44 41.596 82.32 41.596 82.2 41.716 82.2 41.836 82.2 42.076 82.32 42.196 82.44 42.196 82.68 42.196 82.8 42.076 82.8 41.836Z" fill="#ffffff" fill-rule="evenodd"/><path transform="matrix(1,0,0,-1,0,595.276)" d="M76.56 41.836C76.56 42.316 76.2 42.556 75.84 42.556 75.72 42.556 75.48 42.556 75.36 42.316 75.24 42.196 75.24 42.076 75.24 41.836 75.24 41.716 75.24 41.596 75.36 41.356 75.48 41.236 75.72 41.236 75.84 41.236 76.2 41.236 76.56 41.476 76.56 41.836ZM76.2 41.836C76.2 41.716 76.08 41.596 75.84 41.596 75.72 41.596 75.48 41.716 75.48 41.836 75.48 42.076 75.72 42.196 75.84 42.196 76.08 42.196 76.2 42.076 76.2 41.836Z" fill="#ffffff" fill-rule="evenodd"/></g></svg>