<?xml version='1.0' encoding='UTF-8'?>
<svg width="467.54" height="256.34" viewBox="49.64 7.07 467.54 256.34" xmlns="http://www.w3.org/2000/svg" xmlns:xlink="http://www.w3.org/1999/xlink" xmlns:inkscape="http://www.inkscape.org/namespaces/inkscape" version="1.1"><g transform="scale(10.0) translate(-329.439, -262.656)"><defs><clipPath id="clip_2"><path transform="matrix(1,0,0,-1,0,595.276)" d="M74.4 .196H767.4V595.276H74.4Z"/></clipPath></defs><path transform="matrix(1,0,0,-1,0,595.276)" d="M337.56 331.396C336.84 331.396 336.24 331.156 335.64 330.676 335.16 330.076 334.92 329.356 334.92 328.756V309.316C334.92 308.716 335.16 307.996 335.64 307.516 336.24 307.036 336.84 306.796 337.56 306.796H378C378.72 306.796 379.32 307.036 379.92 307.516 380.4 307.996 380.64 308.716 380.64 309.316V328.756C380.64 330.196 379.56 331.396 378 331.396H357.84 337.56Z" fill="#ffffff" fill-rule="evenodd"/><path transform="matrix(1,0,0,-1,0,595.276)" stroke-width=".12" stroke-linecap="round" stroke-linejoin="round" fill="none" stroke="#00ff00" d="M337.56 331.396C336.12 331.396 334.92 330.196 334.92 328.756V309.316C334.92 307.876 336.12 306.796 337.56 306.796H378C379.56 306.796 380.64 307.876 380.64 309.316V328.756C380.64 330.196 379.56 331.396 378 331.396H357.84 337.56"/><path transform="matrix(1,0,0,-1,0,595.276)" d="M337.56 330.076H357.84 378C378.36 330.076 378.72 329.956 378.96 329.716 379.2 329.476 379.32 329.116 379.32 328.756V309.316C379.32 309.076 379.2 308.716 378.96 308.476 378.84 308.356 378.72 308.236 378.48 308.116 378.36 308.116 378.24 308.116 378 308.116H337.56C337.2 308.116 336.84 308.116 336.6 308.476 336.36 308.716 336.24 309.076 336.24 309.316V328.756C336.24 329.476 336.84 330.076 337.56 330.076Z" fill="#00ff00" fill-rule="evenodd"/><path transform="matrix(1,0,0,-1,0,595.276)" d="M342.6 327.556H339V326.836H340.44V322.636H341.28V326.836H342.6Z" fill="#ffffff" fill-rule="evenodd"/><path transform="matrix(1,0,0,-1,0,595.276)" d="M345.48 327.676C344.88 327.676 344.28 327.436 343.92 326.956 343.44 326.356 343.2 325.636 343.2 325.036 343.2 323.596 344.16 322.396 345.48 322.396 345.96 322.396 346.56 322.636 347.04 323.236 347.52 323.716 347.76 324.436 347.76 325.036 347.76 325.636 347.52 326.356 347.04 326.956 346.56 327.436 345.96 327.676 345.48 327.676ZM345.48 326.836C346.2 326.836 346.92 326.116 346.92 325.036 346.92 324.556 346.8 324.076 346.44 323.716 346.2 323.356 345.84 323.236 345.48 323.236 345.12 323.236 344.76 323.356 344.52 323.716 344.16 324.076 344.04 324.556 344.04 325.036 344.04 326.116 344.64 326.836 345.48 326.836Z" fill="#ffffff" fill-rule="evenodd"/><path transform="matrix(1,0,0,-1,0,595.276)" d="M349.08 322.636H351.84V323.356H349.92V327.556H349.08Z" fill="#ffffff" fill-rule="evenodd"/><path transform="matrix(1,0,0,-1,0,595.276)" d="M352.8 322.636H355.56V323.356H353.64V327.556H352.8Z" fill="#ffffff" fill-rule="evenodd"/><path transform="matrix(1,0,0,-1,0,595.276)" d="M359.4 327.556 357.84 322.636H358.56L358.8 323.476H360.96L361.2 322.636H362.04L360.48 327.556H359.4ZM360.72 324.196H359.04L359.88 326.596 360.72 324.196Z" fill="#ffffff" fill-rule="evenodd"/><path transform="matrix(1,0,0,-1,0,595.276)" stroke-width=".12" stroke-linecap="butt" stroke-miterlimit="10" stroke-linejoin="miter" fill="none" stroke="#ffffff" d="M366.5 322.5V322.5"/><path transform="matrix(1,0,0,-1,0,595.276)" d="M366.72 322.636 365.76 324.556C366.36 324.796 366.72 325.516 366.6 326.236 366.48 326.956 366 327.556 365.28 327.556H363.12V322.636H363.96V324.436H364.8L365.76 322.636H366.72ZM363.96 325.276V326.836H365.16C365.28 326.836 365.52 326.716 365.64 326.596 365.76 326.356 365.76 326.236 365.76 325.996 365.76 325.876 365.76 325.636 365.64 325.516 365.52 325.276 365.28 325.276 365.16 325.276H363.96Z" fill="#ffffff" fill-rule="evenodd"/><path transform="matrix(1,0,0,-1,0,595.276)" d="M368.16 322.636H371.4V323.356H368.88V324.676H371.04V325.516H368.88V326.716H371.28V327.556H368.16Z" fill="#ffffff" fill-rule="evenodd"/><path transform="matrix(1,0,0,-1,0,595.276)" d="M373.8 327.556 372.24 322.636H372.96L373.32 323.476H375.36L375.6 322.636H376.44L374.88 327.556H373.8ZM375.12 324.196H373.56L374.28 326.596 375.12 324.196Z" fill="#ffffff" fill-rule="evenodd"/><path transform="matrix(1,0,0,-1,0,595.276)" d="M344.28 313.636 344.4 313.036 344.52 312.796H344.64L344.76 312.916 346.56 313.396V311.236H347.4V313.636L348.12 313.756V314.476L347.4 314.356V318.556L347.52 318.676V318.796H347.4L347.16 318.916H346.56V314.116L345.72 313.996V317.596L345.84 317.716V317.836H345.72L345.48 317.956H344.88V313.756Z" fill="#ffffff" fill-rule="evenodd"/><path transform="matrix(1,0,0,-1,0,595.276)" d="M347.52 315.556 348.12 315.076 348.72 315.916 349.08 316.756H350.64V315.796L350.52 314.956 350.28 314.236 350.04 313.636 349.8 314.116 349.56 314.716 349.44 315.196 349.32 315.796H348.6L348.72 314.956 348.96 314.236 349.2 313.636 349.56 313.036 349.2 312.676 348.84 312.436 348.36 312.196 347.76 312.076 348.36 311.356 349.44 311.836 350.16 312.316 350.76 311.716 351.48 311.236 352.08 311.956 351.36 312.436 350.64 313.036 351 313.876 351.24 314.716 351.48 315.676V316.756H351.96V317.596H349.32L349.56 318.436 349.68 318.556 349.8 318.676 349.68 318.796H349.44L348.84 318.916 348.6 317.836 348.36 316.996 347.88 316.156Z" fill="#ffffff" fill-rule="evenodd"/><path transform="matrix(1,0,0,-1,0,595.276)" d="M354.48 318.436V317.956H356.4V317.476H354.72L354.24 315.796H355.08V315.916H355.56L354.96 315.556 354.24 315.196 354.96 314.716 355.44 314.956V312.196H356.28L354.36 311.716 354.96 311.116 356.16 311.476 357.24 311.836 356.76 312.196H358.68L358.32 311.836 359.52 311.476 360.72 311.236 361.32 311.836 360.12 311.956 359.04 312.196H360.24V314.956L360.48 314.476H360.72L360.96 314.596 361.2 314.716 361.32 314.956 361.56 315.676V316.516H359.04V316.876H360.96V318.436H359.04V318.796H359.16V318.916H359.04 358.92L358.2 319.036V318.436H357.24V318.676L357.36 318.916 357.24 319.036H357 356.4V318.436H354.48ZM356.04 316.516H355.32V316.876H356.28L356.04 316.516ZM357.12 317.476V317.956H358.2V317.476H357.12ZM358.2 316.516H356.88L357 316.876H358.2V316.516ZM359.04 317.476V317.956H360.24V317.476H359.04ZM356.16 314.716V314.836H359.4V314.716H356.16ZM358.32 315.436H356.04L356.52 315.916H358.32V315.436ZM359.04 315.436V315.916H360.84L360.72 315.556 360.6 315.316 360.48 315.196 360.24 315.316V315.436H359.04ZM356.16 313.756V313.996H359.4V313.756H356.16ZM356.16 312.796V313.156H359.4V312.796H356.16Z" fill="#ffffff" fill-rule="evenodd"/><path transform="matrix(1,0,0,-1,0,595.276)" d="M364.2 318.556V311.356H364.92V311.596H371.28V312.316H364.92V317.956H371.16V318.556Z" fill="#ffffff" fill-rule="evenodd"/><path transform="matrix(1,0,0,-1,0,595.276)" d="M366.12 317.476V315.556H369.72V317.476H366.12ZM366.84 316.156V316.876H369V316.156H366.84Z" fill="#ffffff" fill-rule="evenodd"/><path transform="matrix(1,0,0,-1,0,595.276)" d="M365.28 314.956V312.676H366V312.916H367.08V312.676H367.8V314.956H365.28ZM366 313.636V314.356H367.08V313.636H366Z" fill="#ffffff" fill-rule="evenodd"/><path transform="matrix(1,0,0,-1,0,595.276)" d="M368.4 314.956V312.676H369V312.916H370.08V312.676H370.8V314.956H368.4ZM369 313.636V314.356H370.08V313.636H369Z" fill="#ffffff" fill-rule="evenodd"/></g></svg>