<?xml version='1.0' encoding='UTF-8'?>
<svg width="302.30" height="255.50" viewBox="131.90 8.93 302.30 255.50" xmlns="http://www.w3.org/2000/svg" xmlns:xlink="http://www.w3.org/1999/xlink" xmlns:inkscape="http://www.inkscape.org/namespaces/inkscape" version="1.1"><g transform="scale(10.0) translate(-56.655, -47.232)"><path transform="matrix(1,0,0,-1,0,595.276)" d="M70.2 544.996V523.756C70.2 523.516 70.32 523.396 70.44 523.156 70.44 522.916 70.56 522.676 70.8 522.556 70.92 522.316 71.16 522.196 71.4 522.076 71.64 522.076 71.88 521.956 72 521.956H97.92C98.4 521.956 98.88 522.196 99.24 522.556 99.6 522.916 99.72 523.396 99.72 523.756V544.996C99.72 545.476 99.6 545.836 99.24 546.316 99.12 546.436 98.88 546.556 98.64 546.676 98.4 546.796 98.16 546.796 97.92 546.796H72C71.64 546.796 71.16 546.676 70.8 546.316 70.44 545.836 70.2 545.476 70.2 544.996Z" fill="#ffffff" fill-rule="evenodd"/><path transform="matrix(1,0,0,-1,0,595.276)" d="M71.16 544.996V523.756C71.16 523.636 71.16 523.516 71.16 523.516 71.28 523.396 71.28 523.276 71.4 523.156 71.52 523.036 71.64 523.036 71.76 522.916 71.88 522.916 72 522.916 72 522.916H97.92C98.16 522.916 98.4 522.916 98.64 523.156 98.64 523.276 98.76 523.396 98.76 523.516 98.88 523.516 98.88 523.636 98.88 523.756V544.996C98.88 545.236 98.76 545.476 98.64 545.596 98.4 545.836 98.16 545.836 97.92 545.836H72C71.88 545.836 71.64 545.836 71.4 545.596 71.28 545.476 71.16 545.236 71.16 544.996Z" fill="#0000ff" fill-rule="evenodd"/><path transform="matrix(1,0,0,-1,0,595.276)" d="M77.64 535.996H75.24V535.516H76.08V532.636H76.68V535.516H77.64Z" fill="#ffffff" fill-rule="evenodd"/><path transform="matrix(1,0,0,-1,0,595.276)" stroke-width=".12" stroke-linecap="butt" stroke-miterlimit="10" stroke-linejoin="miter" fill="none" stroke="#ffffff" d="M80.5 533.5V533.5"/><path transform="matrix(1,0,0,-1,0,595.276)" d="M80.64 533.116V535.996H81.12V533.236 533.116H81.24C81.36 533.116 81.36 533.116 81.48 533.116H81.6L81.72 532.636C81.6 532.636 81.48 532.636 81.36 532.636 81.24 532.636 81.12 532.636 81 532.636 80.88 532.636 80.76 532.756 80.76 532.756 80.64 532.876 80.64 532.996 80.64 533.116Z" fill="#ffffff" fill-rule="evenodd"/><path transform="matrix(1,0,0,-1,0,595.276)" d="M82.08 533.116V535.996H82.56V533.236C82.56 533.236 82.56 533.116 82.68 533.116 82.8 533.116 82.8 533.116 82.92 533.116H83.04L83.16 532.636C83.04 532.636 82.92 532.636 82.8 532.636 82.68 532.636 82.56 532.636 82.44 532.636 82.32 532.636 82.32 532.756 82.2 532.756 82.08 532.876 82.08 532.996 82.08 533.116Z" fill="#ffffff" fill-rule="evenodd"/><path transform="matrix(1,0,0,-1,0,595.276)" d="M77.64 533.836C77.64 533.596 77.76 533.236 78 532.996 78.24 532.756 78.6 532.636 78.84 532.636 79.08 532.636 79.44 532.756 79.68 532.996 79.92 533.236 80.04 533.596 80.04 533.836 80.04 534.196 79.92 534.436 79.68 534.676 79.44 534.916 79.08 535.036 78.84 535.036 78.6 535.036 78.24 534.916 78 534.676 77.76 534.436 77.64 534.076 77.64 533.836ZM78.84 534.556C78.96 534.556 79.2 534.556 79.32 534.316 79.44 534.196 79.44 534.076 79.44 533.836 79.44 533.716 79.44 533.476 79.32 533.356 79.2 533.236 78.96 533.116 78.84 533.116 78.72 533.116 78.48 533.236 78.36 533.356 78.24 533.476 78.24 533.716 78.24 533.836 78.24 534.076 78.24 534.196 78.36 534.316 78.48 534.556 78.72 534.556 78.84 534.556Z" fill="#ffffff" fill-rule="evenodd"/><path transform="matrix(1,0,0,-1,0,595.276)" stroke-width=".12" stroke-linecap="butt" stroke-miterlimit="10" stroke-linejoin="miter" fill="none" stroke="#ffffff" d="M88.5 530.5V530.5"/><path transform="matrix(1,0,0,-1,0,595.276)" d="M88.44 530.236V530.236H88.2C87.96 530.236 87.72 530.236 87.6 530.236H87.48C87.48 529.756 87.6 529.396 87.96 529.036 88.2 528.676 88.56 528.556 88.92 528.436V527.836H89.52V528.436C90.48 528.556 91.08 529.276 91.08 530.116 91.08 530.476 90.96 530.956 90.72 531.316 90.36 531.556 89.88 531.796 89.52 531.796V533.236C89.64 533.236 89.76 533.116 89.88 532.996 90 532.876 90 532.756 90 532.636L91.08 532.756C90.84 533.476 90.24 534.076 89.52 534.196V534.556H88.92V534.196C88.2 533.956 87.6 533.356 87.6 532.516 87.6 532.156 87.72 531.796 87.96 531.556 88.2 531.196 88.56 531.076 88.92 530.956V529.516C88.68 529.636 88.44 529.876 88.44 530.236ZM88.92 532.036C88.68 532.036 88.56 532.396 88.56 532.636 88.56 532.756 88.56 532.876 88.68 532.996 88.8 533.116 88.8 533.236 88.92 533.236V532.036ZM89.52 530.836C89.64 530.836 89.88 530.716 90 530.596 90.12 530.476 90.12 530.236 90.12 530.116 90.12 529.876 90.12 529.756 90 529.636 89.88 529.516 89.88 529.516 89.76 529.396 89.64 529.396 89.64 529.396 89.52 529.396V530.836Z" fill="#ffffff" fill-rule="evenodd"/><path transform="matrix(1,0,0,-1,0,595.276)" d="M93.24 529.876C93.24 529.276 93.84 528.916 94.56 528.916 94.8 528.916 95.16 529.036 95.4 529.396 95.64 529.636 95.76 529.996 95.76 530.356 95.76 530.716 95.64 531.076 95.4 531.316 95.16 531.676 94.8 531.796 94.56 531.676 94.32 531.796 93.96 531.676 93.84 531.556 93.6 531.436 93.48 531.196 93.36 530.956L92.16 531.196 92.76 534.556H96.48V533.476H93.72L93.48 532.396C93.6 532.516 93.84 532.636 93.96 532.636 94.08 532.636 94.32 532.756 94.44 532.756 94.8 532.756 95.04 532.756 95.28 532.636 95.64 532.516 95.88 532.276 96.12 532.036 96.6 531.556 96.84 530.956 96.84 530.356 96.84 529.756 96.6 529.156 96.12 528.556 95.64 528.076 95.04 527.836 94.56 527.836 93.96 527.836 93.36 528.076 92.76 528.436 92.52 528.556 92.4 528.796 92.28 529.036 92.16 529.156 92.16 529.396 92.16 529.636L93.24 529.876Z" fill="#ffffff" fill-rule="evenodd"/><path transform="matrix(1,0,0,-1,0,595.276)" stroke-width=".12" stroke-linecap="butt" stroke-miterlimit="10" stroke-linejoin="miter" fill="none" stroke="#ffffff" d="M82.5 538.5V538.5"/><path transform="matrix(1,0,0,-1,0,595.276)" d="M80.76 536.836H89.28V541.876L87 544.516H83.04L80.76 541.876V536.836ZM82.08 539.596C81.96 540.436 82.08 541.396 82.68 542.116 83.28 542.956 84.24 543.316 84.96 543.316 85.8 543.316 86.76 542.956 87.36 542.116 87.96 541.396 88.08 540.436 87.96 539.596L87.6 538.156H82.44L82.08 539.596Z" fill="#ffffff" fill-rule="evenodd"/><path transform="matrix(1,0,0,-1,0,595.276)" d="M73.44 526.756 73.56 526.276V526.156H73.68L73.8 526.276 74.88 526.516V525.196H75.36V526.636L75.96 526.756V527.236L75.36 527.116V529.876H75.48V529.996H75.36 74.88V526.996L74.28 526.876V529.156L74.4 529.276V529.396H74.16 73.8V526.756Z" fill="#ffffff" fill-rule="evenodd"/><path transform="matrix(1,0,0,-1,0,595.276)" d="M75.48 527.956 75.84 527.596 76.2 528.196 76.56 528.676H77.52V528.076L77.4 527.476 77.28 527.116 77.16 526.756 76.92 526.996 76.8 527.356V527.716L76.68 528.076H76.2L76.32 527.596 76.44 527.116 76.56 526.636 76.8 526.276 76.56 526.036 76.32 525.916 76.08 525.796 75.72 525.676 76.08 525.196 76.68 525.556 77.16 525.916 77.64 525.436 78 525.196 78.48 525.556 77.88 525.916 77.52 526.276 77.76 526.756 77.88 527.356 78 528.076V528.676H78.36V529.276H76.68L76.8 529.756 76.92 529.876V529.996H76.8L76.32 530.116 76.2 529.396 76.08 528.796 75.72 528.316Z" fill="#ffffff" fill-rule="evenodd"/><path transform="matrix(1,0,0,-1,0,595.276)" d="M80.28 529.756V529.396H81.48V529.156H80.52L80.16 528.076H80.64V528.196H81L80.64 527.956 80.16 527.716 80.64 527.356 80.88 527.476V525.796H81.48L80.28 525.436 80.64 525.076 81.36 525.316 82.08 525.556 81.72 525.796H82.92L82.8 525.556 83.52 525.316 84.24 525.076 84.72 525.556H83.88L83.28 525.796H84V527.476L84.12 527.236H84.36L84.48 527.356H84.6L84.72 527.476 84.84 527.956V528.556H83.16V528.796H84.48V529.756H83.16V529.996H83.28V530.116H83.16 82.68V529.756H82.08V529.996 530.116H81.96 81.6V529.756H80.28ZM81.24 528.556H80.76L80.88 528.796H81.36L81.24 528.556ZM81.96 529.156V529.396H82.68V529.156H81.96ZM82.68 528.556H81.84L81.96 528.796H82.68V528.556ZM83.16 529.156V529.396H84V529.156H83.16ZM81.36 527.356V527.476H83.4V527.356H81.36ZM82.68 527.836H81.36L81.6 528.196H82.68V527.836ZM83.16 527.836V528.196H84.36V527.956L84.24 527.716H84.12 84V527.836H83.16ZM81.36 526.756V526.996H83.4V526.756H81.36ZM81.36 526.156V526.396H83.4V526.156H81.36Z" fill="#ffffff" fill-rule="evenodd"/><path transform="matrix(1,0,0,-1,0,595.276)" stroke-width=".12" stroke-linecap="round" stroke-linejoin="round" fill="none" stroke="#0000ff" d="M97.92 521.956C99 521.956 99.72 522.796 99.72 523.756V544.996C99.72 545.956 99 546.796 97.92 546.796H72C71.04 546.796 70.2 545.956 70.2 544.996V523.756C70.2 522.796 71.04 521.956 72 521.956H97.92"/></g></svg>