<?xml version='1.0' encoding='UTF-8'?>
<svg width="363.50" height="255.50" viewBox="101.30 7.37 363.50 255.50" xmlns="http://www.w3.org/2000/svg" xmlns:xlink="http://www.w3.org/1999/xlink" xmlns:inkscape="http://www.inkscape.org/namespaces/inkscape" version="1.1"><g transform="scale(10.0) translate(-56.655, -505.008)"><path transform="matrix(1,0,0,-1,0,595.276)" d="M68.04 65.956V87.556C68.04 87.796 68.16 87.916 68.28 88.156 68.4 88.276 68.64 88.396 68.76 88.396H101.16C101.4 88.396 101.64 88.276 101.76 88.156 101.88 87.916 102 87.796 102 87.556V65.956C102 65.836 102 65.836 101.88 65.716 101.88 65.596 101.88 65.476 101.76 65.476 101.64 65.356 101.64 65.356 101.52 65.236 101.4 65.236 101.28 65.236 101.16 65.236H68.76C68.76 65.236 68.64 65.236 68.52 65.236 68.4 65.356 68.4 65.356 68.28 65.476 68.16 65.476 68.16 65.596 68.04 65.716 68.04 65.836 68.04 65.836 68.04 65.956Z" fill-rule="evenodd"/><path transform="matrix(1,0,0,-1,0,595.276)" d="M82.44 69.796V68.356L81.72 67.996 81.84 67.756 81.96 67.636 82.08 67.756 83.4 68.356V68.716L82.8 68.476V69.796H83.4V70.036H82.8V71.236H83.4V71.476H81.84V71.236H82.44V70.036H81.84V69.796Z" fill="#ffffff" fill-rule="evenodd"/><path transform="matrix(1,0,0,-1,0,595.276)" d="M83.4 70.036H86.52V70.276H83.4Z" fill="#ffffff" fill-rule="evenodd"/><path transform="matrix(1,0,0,-1,0,595.276)" d="M95.88 78.196H97.92L93.96 74.356 94.92 73.396 98.88 77.236V75.316L100.32 76.756V79.756H97.44Z" fill="#ffffff" fill-rule="evenodd"/><path transform="matrix(1,0,0,-1,0,595.276)" d="M88.08 74.236V74.116H88.2 88.32 88.44V73.756C88.32 73.636 88.08 73.636 87.96 73.756 87.84 73.756 87.72 73.756 87.72 73.876 87.6 73.996 87.6 73.996 87.6 74.116V76.636H88.08V74.236Z" fill="#ffffff" fill-rule="evenodd"/><path transform="matrix(1,0,0,-1,0,595.276)" d="M84.24 74.956V73.756H83.76V75.796H84.24V75.556C84.24 75.676 84.36 75.796 84.48 75.796 84.6 75.796 84.72 75.796 84.84 75.796V75.436C84.84 75.436 84.72 75.316 84.6 75.316 84.48 75.316 84.48 75.316 84.36 75.196 84.24 75.196 84.24 75.076 84.24 74.956Z" fill="#ffffff" fill-rule="evenodd"/><path transform="matrix(1,0,0,-1,0,595.276)" d="M82.32 74.116C82.32 73.996 82.32 73.876 82.56 73.756 82.68 73.756 82.8 73.636 82.92 73.636 83.04 73.636 83.16 73.756 83.28 73.756V74.116C83.16 74.116 83.04 74.116 82.8 74.116V74.236 75.436H83.28V75.796H82.8V76.636L82.32 76.516V75.796H81.84V75.436H82.32V74.116Z" fill="#ffffff" fill-rule="evenodd"/><path transform="matrix(1,0,0,-1,0,595.276)" d="M81.48 75.196V73.756H81V75.076C81 75.196 80.88 75.196 80.88 75.316 80.76 75.316 80.64 75.436 80.64 75.436 80.52 75.436 80.4 75.316 80.28 75.316V75.196C80.16 75.076 80.16 75.076 80.16 74.956V73.756H79.8V75.796H80.16V75.676C80.28 75.676 80.4 75.796 80.52 75.796 80.76 75.796 80.88 75.796 81 75.796 81.12 75.676 81.24 75.676 81.24 75.556 81.36 75.436 81.36 75.316 81.48 75.196Z" fill="#ffffff" fill-rule="evenodd"/><path transform="matrix(1,0,0,-1,0,595.276)" d="M76.92 75.796C76.92 75.916 76.8 76.156 76.56 76.276 76.44 76.396 76.32 76.516 76.08 76.636 75.6 76.756 75.24 76.636 74.88 76.396 74.64 76.036 74.4 75.676 74.4 75.196 74.4 74.596 74.64 74.236 74.88 73.876 75.24 73.636 75.6 73.516 76.08 73.636 76.32 73.756 76.44 73.876 76.56 73.996 76.68 74.116 76.8 74.116 76.8 74.236L76.92 74.356V74.476L76.44 74.596C76.32 74.356 76.2 74.116 75.96 74.116 75.6 73.996 75.36 74.116 75.24 74.356 74.88 74.716 74.88 75.556 75.24 75.916 75.36 76.156 75.6 76.276 75.96 76.156 76.08 76.156 76.2 76.036 76.2 76.036 76.32 75.916 76.44 75.796 76.44 75.676L76.92 75.796Z" fill="#ffffff" fill-rule="evenodd"/><path transform="matrix(1,0,0,-1,0,595.276)" d="M69.96 79.036 70.68 78.796 71.52 78.676H72.24 73.08L73.8 78.796 74.64 78.916 75.24 79.036H75.96 76.56 77.16L77.76 78.916 78.36 78.796 78.96 78.676 79.56 78.556H80.28 81 81.72 82.32L83.04 78.676 83.76 78.796 84.48 78.916 85.2 79.036H85.8 86.52 87.24L87.96 78.916 88.68 78.796 89.52 78.676H90.36L91.2 78.796 92.04 78.916 92.76 79.276 92.88 78.916 92.16 78.676 91.32 78.436H90.36 89.52 88.68L87.96 78.556 87.24 78.676 86.52 78.796H85.8L85.2 78.676H84.48L83.76 78.556 83.16 78.436 82.44 78.316 81.72 78.196H81 80.28L79.56 78.316 78.96 78.436 78.24 78.556 77.64 78.676H77.04L76.56 78.796H75.96L75.36 78.676 74.64 78.556 73.92 78.436H73.08L72.24 78.316H71.4L70.56 78.556 69.84 78.796Z" fill="#ffffff" fill-rule="evenodd"/><path transform="matrix(1,0,0,-1,0,595.276)" stroke-width=".12" stroke-linecap="butt" stroke-miterlimit="10" stroke-linejoin="miter" fill="none" stroke="#ffffff" d="M74.5 80.5V80.5"/><path transform="matrix(1,0,0,-1,0,595.276)" stroke-width=".12" stroke-linecap="butt" stroke-miterlimit="10" stroke-linejoin="miter" fill="none" stroke="#ffffff" d="M74.5 80.5V80.5"/><path transform="matrix(1,0,0,-1,0,595.276)" d="M92.64 79.996 91.92 79.636 91.08 79.516 90.36 79.396H89.52L88.8 79.516 88.08 79.636H87.36L86.52 79.756H85.8 85.08L84.36 79.636 83.64 79.516 82.92 79.396 82.32 79.276H81.6 81 80.28 79.68L79.08 79.396 78.48 79.516 77.88 79.636 77.16 79.756H76.56 75.84L75.24 79.636H74.52L73.8 79.516 73.08 79.396H72.24 71.52L70.8 79.516 70.08 79.756 70.2 79.996 70.92 79.756 71.52 79.636H71.76L71.28 80.836H72L72.84 85.756H75.24L75.72 85.036H79.92L80.04 86.596H82.56L82.92 85.036H87L87.24 85.756H89.76L90.72 80.836H91.56L91.08 79.756 91.8 79.876 92.52 80.236 92.64 79.996ZM84 80.836V83.836H78.48V80.836H79.8C79.68 80.956 79.68 81.076 79.68 81.196H79.2L79.32 81.676 80.04 81.916 80.28 82.636H83.52V81.196H82.8C82.8 81.076 82.68 80.956 82.56 80.836H84ZM81 82.516V81.796H83.4V82.516H81ZM76.56 80.836V80.836ZM76.56 80.836C76.56 80.836 76.56 80.956 76.44 80.956L76.32 81.076H74.76C74.76 80.956 74.64 80.956 74.52 80.836H76.56ZM76.92 80.836V80.836ZM76.92 80.836H78V83.836H73.56V80.836H74.28C74.16 80.956 74.04 80.956 74.04 81.076H73.8L73.92 81.556 74.88 81.676 75.12 82.276H76.56L76.92 81.556 77.52 81.436 77.64 80.956H77.04C77.04 80.956 76.92 80.956 76.92 80.836ZM81.96 81.196V81.196ZM81.96 81.196H80.52C80.52 81.196 80.52 81.076 80.4 81.076 80.4 80.956 80.4 80.956 80.28 80.836H82.2C82.08 80.956 82.08 80.956 82.08 81.076 81.96 81.076 81.96 81.196 81.96 81.196ZM82.2 80.836V80.836ZM80.28 80.836V80.836ZM87.72 80.836V80.836ZM87.72 80.836C87.6 80.956 87.6 80.956 87.6 81.076H85.92C85.8 81.076 85.8 80.956 85.8 80.956L85.68 80.836H87.72ZM85.68 80.836V80.836ZM88.2 81.076V81.076ZM88.2 81.076V80.956C88.2 80.956 88.2 80.836 88.08 80.836H89.16V83.836H84.6V80.836H85.32C85.2 80.956 85.2 80.956 85.2 81.076H84.96L85.08 81.556 85.92 81.676 86.16 82.156 87.72 82.036 87.96 81.436H88.68L88.8 81.076H88.2ZM88.08 80.836V80.836ZM85.32 80.836V80.836ZM85.2 81.076V81.076Z" fill="#ffffff" fill-rule="evenodd"/><path transform="matrix(1,0,0,-1,0,595.276)" d="M78.96 74.236V74.236H78.84 78.72V74.116H78.6 78.48 78.36 78.24 78.12 78V74.236H77.88V74.356 74.476H77.76V74.596H77.88 79.2V74.836 74.956 75.076L79.08 75.436 78.96 75.556 78.84 75.676 78.72 75.796H78.48 78.24 78.12 78L77.88 75.676H77.76L77.64 75.556 77.52 75.436 77.4 75.196V75.076 74.956 74.716 74.596 74.476 74.356 74.236L77.52 74.116 77.64 73.996 77.76 73.876 77.88 73.756H78L78.24 73.636H78.36 78.48L78.6 73.756H78.72 78.84L78.96 73.876H79.08V73.996L78.96 74.116V74.236H78.84 78.96ZM77.76 74.956V74.956H77.88V75.076 75.196L78 75.316 78.12 75.436H78.24 78.36 78.48L78.6 75.316 78.72 75.196V75.076 74.956H77.76Z" fill="#ffffff" fill-rule="evenodd"/><path transform="matrix(1,0,0,-1,0,595.276)" d="M77.88 74.476V74.476H77.76 77.88Z" fill="#ffffff" fill-rule="evenodd"/><path transform="matrix(1,0,0,-1,0,595.276)" d="M86.88 75.316V75.196 75.076 74.956 74.836 74.716 74.596 74.476L86.76 74.356H86.88V74.236 74.116L87 73.996 86.76 73.636V73.756H86.64 86.52V73.876H86.4L86.28 73.756H86.16 86.04V73.636H85.92L85.8 73.756H85.68 85.56L85.44 73.876H85.32L85.2 73.996V74.116 74.236L85.08 74.356 85.2 74.476V74.596L85.32 74.716V74.836H85.44L85.56 74.956H85.68 85.8 85.92 86.04 86.16 86.28 86.4V75.076 75.196 75.316H86.28V75.436H86.16 86.04 85.92 85.8 85.68 85.56V75.316H85.44L85.2 75.676H85.32 85.44V75.796H85.56 85.68 85.8 85.92 86.04 86.16 86.28 86.4 86.52L86.64 75.676 86.76 75.556V75.436L86.88 75.316ZM85.56 74.356V74.236L85.68 74.116H85.8V73.996H85.92 86.04 86.16L86.28 74.116 86.4 74.236V74.356 74.476 74.596 74.716H86.28 86.16V74.596H86.04 85.92 85.8 85.68V74.476H85.56V74.356Z" fill="#ffffff" fill-rule="evenodd"/><path transform="matrix(1,0,0,-1,0,595.276)" d="M86.28 71.716V70.516H83.52V71.716H86.28ZM84.36 71.476H83.88V70.756H84.36V71.476ZM84.72 70.756H85.2V71.476H84.72V70.756ZM85.56 71.476V70.756H86.04V71.476H85.56Z" fill="#ffffff" fill-rule="evenodd"/><path transform="matrix(1,0,0,-1,0,595.276)" d="M84.6 68.356V67.036H84.84V68.236L85.56 67.636 86.28 67.276 86.4 67.156 86.64 67.396H86.76L86.64 67.516 86.16 67.636 85.92 67.876 86.4 68.116H86.52V68.236L86.28 68.476 85.56 68.116 85.32 68.356 85.08 68.596H86.16V69.676H83.76V68.596H84.36L84 68.356 83.64 67.996 83.28 67.756 82.8 67.516 83.04 67.276 83.52 67.396 83.88 67.756 84.24 67.996 84.6 68.356ZM84 68.956V69.436H85.92V68.956H84Z" fill="#ffffff" fill-rule="evenodd"/><path transform="matrix(1,0,0,-1,0,595.276)" d="M80.64 68.476V70.756H78.72V71.716H78.84V71.836H78.72 78.36V70.756H76.44V68.476H76.8V68.836H78.36V66.916H78.72V68.836H80.28V68.476H80.64ZM80.28 69.076H78.72V70.516H80.28V69.076ZM78.36 69.076H76.8V70.516H78.36V69.076Z" fill="#ffffff" fill-rule="evenodd"/><path transform="matrix(1,0,0,-1,0,595.276)" stroke-width=".12" stroke-linecap="round" stroke-linejoin="round" fill="none" stroke="#000000" d="M102.72 65.956V87.556C102.72 88.396 102.12 89.116 101.16 89.116H68.76C67.92 89.116 67.2 88.396 67.2 87.556V65.956C67.2 65.116 67.92 64.396 68.76 64.396H101.16C102.12 64.396 102.72 65.116 102.72 65.956"/></g></svg>