<?xml version='1.0' encoding='UTF-8'?>
<svg width="141.94" height="263.14" viewBox="212.08 5.23 141.94 263.14" xmlns="http://www.w3.org/2000/svg" xmlns:xlink="http://www.w3.org/1999/xlink" xmlns:inkscape="http://www.inkscape.org/namespaces/inkscape" version="1.1"><g transform="scale(10.0) translate(-274.875, -74.160)"><path transform="matrix(1,0,0,-1,0,595.276)" d="M308.64 520.276C309 520.276 309.36 520.276 309.6 519.916 309.72 519.796 309.84 519.676 309.84 519.556 309.96 519.316 309.96 519.196 309.96 519.076V495.916C309.96 495.556 309.84 495.196 309.6 494.956 309.48 494.836 309.24 494.716 309.12 494.716 309 494.596 308.76 494.596 308.64 494.596H297.72C297.36 494.596 297.12 494.716 296.76 494.956 296.64 495.076 296.64 495.316 296.52 495.436 296.52 495.556 296.4 495.796 296.4 495.916V519.076C296.4 519.316 296.52 519.676 296.76 519.916 297.12 520.276 297.36 520.276 297.72 520.276H308.64Z" fill="#ffffff" fill-rule="evenodd"/><path transform="matrix(1,0,0,-1,0,595.276)" d="M304.68 519.676 309.24 514.996V500.116L305.76 503.596 305.28 503.236V495.196H299.4V508.636C299.4 508.996 299.4 509.476 299.16 509.836 299.04 510.316 298.8 510.676 298.44 511.036L297.12 512.356V519.076C297.12 519.196 297.12 519.316 297.24 519.556 297.36 519.676 297.6 519.676 297.72 519.676H304.68Z" fill="#0000ff" fill-rule="evenodd"/><path transform="matrix(1,0,0,-1,0,595.276)" stroke-width=".12" stroke-linecap="butt" stroke-miterlimit="10" stroke-linejoin="miter" fill="none" stroke="#ffffff" d="M302.5 504.5 304.5 502.5"/><path transform="matrix(1,0,0,-1,0,595.276)" d="M301.56 518.596V516.196L302.76 515.116V516.676L307.08 512.236 307.92 513.076 303.48 517.396H305.04L303.84 518.596Z" fill="#ffffff" fill-rule="evenodd"/><path transform="matrix(1,0,0,-1,0,595.276)" d="M298.2 515.356V512.956L299.4 511.756V513.316L307.32 505.396 308.16 506.236 300.24 514.156H301.8L300.6 515.356Z" fill="#ffffff" fill-rule="evenodd"/><path transform="matrix(1,0,0,-1,0,595.276)" d="M301.8 507.676 301.32 507.196 300.12 508.396 300.6 508.876Z" fill="#ffffff" fill-rule="evenodd"/><path transform="matrix(1,0,0,-1,0,595.276)" d="M303.48 505.876 303.12 505.396 301.92 506.596 302.4 507.076Z" fill="#ffffff" fill-rule="evenodd"/><path transform="matrix(1,0,0,-1,0,595.276)" d="M305.28 504.076 304.92 503.596 303.72 504.796 304.08 505.276Z" fill="#ffffff" fill-rule="evenodd"/><path transform="matrix(1,0,0,-1,0,595.276)" d="M302.4 504.316 300.72 502.636V500.956L301.8 502.036V495.916H302.88V502.036L304.08 500.956V502.636Z" fill="#ffffff" fill-rule="evenodd"/><path transform="matrix(1,0,0,-1,0,595.276)" stroke-width=".12" stroke-linecap="butt" stroke-linejoin="round" fill="none" stroke="#0000ff" d="M309.96 495.916V519.076C309.96 519.796 309.36 520.276 308.64 520.276H297.72C297 520.276 296.4 519.796 296.4 519.076V495.916C296.4 495.196 297 494.596 297.72 494.596H308.64C309.36 494.596 309.96 495.196 309.96 495.916"/></g></svg>