<?xml version='1.0' encoding='UTF-8'?>
<svg width="521.40" height="265.80" viewBox="23.79 1.74 521.40 265.80" xmlns="http://www.w3.org/2000/svg" xmlns:xlink="http://www.w3.org/1999/xlink" xmlns:inkscape="http://www.inkscape.org/namespaces/inkscape" version="1.1"><g transform="scale(10.0) translate(-111.171, -531.936)"><defs><clipPath id="clip_2"><path transform="matrix(1,0,0,-1,0,595.276)" d="M74.4 .196H767.4V595.276H74.4Z"/></clipPath></defs><path transform="matrix(1,0,0,-1,0,595.276)" d="M115.68 62.596H163.56C163.92 62.596 164.28 62.476 164.64 62.116 165 61.876 165.12 61.396 165.12 61.036V38.716C165.12 38.476 165.12 38.356 165 38.116 164.88 37.876 164.76 37.756 164.64 37.636 164.52 37.396 164.28 37.276 164.04 37.276 163.92 37.156 163.68 37.156 163.56 37.156H115.68C115.32 37.156 114.84 37.276 114.6 37.636 114.24 37.876 114.12 38.356 114.12 38.716V61.036C114.12 61.396 114.24 61.876 114.6 62.116 114.84 62.476 115.32 62.596 115.68 62.596Z" fill="#ffffff" fill-rule="evenodd"/><path transform="matrix(1,0,0,-1,0,595.276)" d="M115.68 61.876H163.56C163.68 61.876 163.92 61.756 164.04 61.636 164.28 61.396 164.28 61.276 164.28 61.036V38.716C164.28 38.476 164.28 38.356 164.04 38.116 163.92 37.996 163.68 37.876 163.56 37.876H115.68C115.44 37.876 115.32 37.996 115.08 38.116 114.96 38.356 114.84 38.476 114.84 38.716V61.036C114.84 61.276 114.96 61.396 115.08 61.636 115.32 61.756 115.44 61.876 115.68 61.876Z" fill="#0000ff" fill-rule="evenodd"/><path transform="matrix(1,0,0,-1,0,595.276)" d="M124.44 59.596C124.32 59.836 124.2 60.076 123.96 60.076 123.6 60.196 123.36 60.076 123.24 59.956 122.76 59.476 122.76 58.636 123.24 58.156 123.36 58.036 123.6 57.916 123.96 57.916 124.08 58.036 124.2 58.036 124.2 58.156 124.32 58.276 124.44 58.396 124.44 58.516L125.04 58.396C124.8 58.036 124.56 57.676 124.08 57.556 123.6 57.436 123.24 57.556 122.88 57.796 122.64 58.036 122.4 58.516 122.4 58.996 122.4 59.596 122.64 60.076 122.88 60.316 123.24 60.556 123.6 60.676 124.08 60.556 124.32 60.556 124.44 60.436 124.68 60.196 124.8 60.076 124.92 59.836 125.04 59.716L124.44 59.596Z" fill="#ffffff" fill-rule="evenodd"/><path transform="matrix(1,0,0,-1,0,595.276)" d="M126 57.436C126 57.316 125.88 57.196 125.76 57.196 125.64 57.196 125.64 57.316 125.52 57.316L125.4 56.836C125.52 56.836 125.64 56.836 125.64 56.836 125.76 56.836 125.88 56.836 126 56.836 126.12 56.836 126.36 56.956 126.36 57.196L126.48 57.316C126.72 58.036 126.96 58.876 127.2 59.716H126.72L126.24 58.276 125.88 59.716H125.28L126 57.436Z" fill="#ffffff" fill-rule="evenodd"/><path transform="matrix(1,0,0,-1,0,595.276)" d="M128.4 57.916C128.52 57.916 128.64 57.916 128.64 57.916 128.76 58.036 128.76 58.036 128.88 58.036 128.88 58.156 129 58.156 129 58.276L129.36 58.036 129.24 57.916C129.24 57.796 129.24 57.796 129.12 57.676 129.12 57.676 129 57.676 128.88 57.556 128.76 57.556 128.64 57.556 128.52 57.556 128.28 57.556 128.16 57.556 127.92 57.676 127.8 57.796 127.68 57.916 127.56 58.156 127.56 58.396 127.44 58.636 127.56 58.876 127.56 58.996 127.68 59.236 127.8 59.356 127.92 59.476 128.04 59.596 128.16 59.596 128.28 59.716 128.52 59.716 128.76 59.716 128.88 59.716 129.12 59.596 129.24 59.356L129.36 59.236V59.116L129 58.996C128.88 58.996 128.88 59.116 128.88 59.236H128.76C128.64 59.356 128.4 59.356 128.28 59.236 128.16 59.116 128.04 59.116 128.04 58.996 127.92 58.756 127.92 58.516 128.04 58.396 128.04 58.156 128.16 58.036 128.4 57.916Z" fill="#ffffff" fill-rule="evenodd"/><path transform="matrix(1,0,0,-1,0,595.276)" stroke-width=".12" stroke-linecap="butt" stroke-miterlimit="10" stroke-linejoin="miter" fill="none" stroke="#ffffff" d="M130.5 58.5V58.5"/><path transform="matrix(1,0,0,-1,0,595.276)" d="M130.32 58.036V58.036 57.916H130.44 130.56C130.68 57.916 130.68 57.916 130.8 57.916V57.556C130.56 57.556 130.44 57.556 130.2 57.556 130.08 57.556 130.08 57.556 129.96 57.676 129.84 57.796 129.84 57.916 129.84 57.916V60.556H130.32V58.036Z" fill="#ffffff" fill-rule="evenodd"/><path transform="matrix(1,0,0,-1,0,595.276)" d="M131.64 57.556V59.716H131.16V57.556Z" fill="#ffffff" fill-rule="evenodd"/><path transform="matrix(1,0,0,-1,0,595.276)" d="M131.64 60.316C131.64 60.436 131.52 60.556 131.4 60.556 131.28 60.556 131.16 60.436 131.16 60.316 131.16 60.196 131.28 60.076 131.4 60.076 131.52 60.076 131.64 60.196 131.64 60.316Z" fill="#ffffff" fill-rule="evenodd"/><path transform="matrix(1,0,0,-1,0,595.276)" d="M132.72 58.996C132.84 58.876 132.96 58.876 132.96 58.876H133.08C133.44 58.876 133.68 58.756 133.8 58.516 133.8 58.396 133.8 58.276 133.8 58.156 133.8 58.036 133.8 57.916 133.68 57.796 133.44 57.556 133.2 57.556 132.96 57.556 132.6 57.556 132.24 57.676 132 57.916L132.36 58.276C132.36 58.156 132.48 58.156 132.6 58.036 132.72 58.036 132.84 57.916 132.96 57.916 132.96 57.916 133.08 57.916 133.08 58.036H133.2C133.32 58.036 133.32 58.036 133.32 58.156V58.276C133.2 58.396 133.08 58.516 132.96 58.516 132.84 58.516 132.84 58.516 132.72 58.516 132.48 58.516 132.36 58.636 132.24 58.756 132.12 58.876 132.12 58.996 132.12 59.116 132.12 59.236 132.24 59.356 132.24 59.476 132.36 59.596 132.6 59.716 132.72 59.716H132.84C133.2 59.836 133.56 59.716 133.8 59.476L133.44 59.116C133.32 59.236 133.2 59.236 132.96 59.236H132.84C132.72 59.236 132.72 59.236 132.72 59.116V58.996Z" fill="#ffffff" fill-rule="evenodd"/><path transform="matrix(1,0,0,-1,0,595.276)" d="M135 58.036 135.12 57.916C135.24 57.916 135.24 57.916 135.36 57.916H135.48L135.6 57.556C135.36 57.556 135.12 57.556 134.88 57.556 134.76 57.676 134.64 57.676 134.64 57.796 134.64 57.796 134.52 57.916 134.52 58.036V59.236H134.16V59.716H134.52V60.316L135 60.556V59.716H135.6V59.236H135V58.036Z" fill="#ffffff" fill-rule="evenodd"/><path transform="matrix(1,0,0,-1,0,595.276)" d="M136.56 58.996C136.56 58.876 136.68 58.876 136.68 58.876H136.8 136.92C137.16 58.876 137.4 58.756 137.52 58.516 137.52 58.396 137.64 58.276 137.52 58.156 137.52 58.036 137.52 57.916 137.4 57.796 137.16 57.556 136.92 57.556 136.68 57.556 136.32 57.556 135.96 57.676 135.84 57.916L136.08 58.276C136.2 58.156 136.2 58.156 136.32 58.036 136.44 58.036 136.56 57.916 136.68 57.916 136.68 57.916 136.8 57.916 136.8 58.036H136.92C137.04 58.036 137.04 58.036 137.04 58.156V58.276C136.92 58.396 136.8 58.516 136.68 58.516 136.56 58.516 136.56 58.516 136.44 58.516 136.2 58.516 136.08 58.636 135.96 58.756 135.84 58.876 135.84 58.996 135.84 59.116 135.84 59.236 135.96 59.356 135.96 59.476H136.08C136.2 59.596 136.32 59.716 136.56 59.716 136.92 59.836 137.28 59.716 137.52 59.476L137.28 59.116C137.04 59.236 136.92 59.236 136.68 59.236H136.56C136.44 59.236 136.44 59.236 136.44 59.116 136.44 58.996 136.44 58.996 136.56 58.996Z" fill="#ffffff" fill-rule="evenodd"/><path transform="matrix(1,0,0,-1,0,595.276)" stroke-width=".12" stroke-linecap="butt" stroke-miterlimit="10" stroke-linejoin="miter" fill="none" stroke="#ffffff" d="M140.5 57.5V57.5"/><path transform="matrix(1,0,0,-1,0,595.276)" d="M140.4 57.676V57.676C140.28 57.556 140.28 57.556 140.16 57.556 140.04 57.556 140.04 57.556 139.92 57.556 139.92 57.556 139.8 57.556 139.68 57.556 139.44 57.676 139.2 57.916 139.08 58.156 138.96 58.516 138.96 58.876 139.08 59.236 139.2 59.236 139.2 59.236 139.2 59.356 139.32 59.476 139.56 59.716 139.8 59.716 140.04 59.716 140.4 59.716 140.52 59.476V59.596 60.556H141V57.556H140.52V57.676H140.4ZM140.16 57.916C140.28 58.036 140.4 58.036 140.52 58.156 140.52 58.276 140.52 58.396 140.52 58.396V58.876C140.52 58.996 140.52 58.996 140.4 59.116 140.4 59.236 140.28 59.236 140.16 59.356 140.04 59.356 139.92 59.356 139.8 59.236 139.68 59.236 139.68 59.116 139.56 59.116 139.44 58.756 139.44 58.516 139.56 58.276 139.68 58.156 139.68 58.156 139.68 58.036 139.8 57.916 140.04 57.916 140.16 57.916Z" fill="#ffffff" fill-rule="evenodd"/><path transform="matrix(1,0,0,-1,0,595.276)" d="M142.2 57.556V59.716H141.72V57.556Z" fill="#ffffff" fill-rule="evenodd"/><path transform="matrix(1,0,0,-1,0,595.276)" d="M142.2 60.316C142.2 60.436 142.08 60.556 141.96 60.556 141.72 60.556 141.6 60.436 141.6 60.316 141.6 60.196 141.72 60.076 141.96 60.076 142.08 60.076 142.2 60.196 142.2 60.316Z" fill="#ffffff" fill-rule="evenodd"/><path transform="matrix(1,0,0,-1,0,595.276)" d="M143.28 58.996C143.4 58.876 143.52 58.876 143.52 58.876H143.64C143.88 58.876 144.24 58.756 144.36 58.516 144.36 58.396 144.36 58.276 144.36 58.156 144.36 58.036 144.36 57.916 144.24 57.796 144 57.556 143.76 57.556 143.52 57.556 143.16 57.556 142.8 57.676 142.56 57.916L142.92 58.276C142.92 58.156 143.04 58.156 143.16 58.036 143.28 58.036 143.4 57.916 143.52 57.916L143.64 58.036H143.76C143.76 58.036 143.88 58.036 143.88 58.156V58.276H143.76C143.76 58.396 143.64 58.516 143.52 58.516 143.4 58.516 143.28 58.516 143.28 58.516 143.04 58.516 142.92 58.636 142.8 58.756 142.68 58.876 142.68 58.996 142.68 59.116 142.68 59.236 142.68 59.356 142.8 59.476 142.92 59.596 143.16 59.716 143.28 59.716H143.4C143.76 59.836 144.12 59.716 144.36 59.476L144 59.116C143.88 59.236 143.76 59.236 143.52 59.236 143.52 59.236 143.4 59.236 143.28 59.236 143.28 59.236 143.16 59.236 143.16 59.116 143.16 58.996 143.28 58.996 143.28 58.996Z" fill="#ffffff" fill-rule="evenodd"/><path transform="matrix(1,0,0,-1,0,595.276)" d="M145.32 59.716H144.84V57.556H145.32V58.876C145.32 58.996 145.44 59.116 145.44 59.116 145.56 59.236 145.68 59.236 145.68 59.236 145.8 59.236 145.92 59.236 145.92 59.236 145.92 59.116 146.04 59.116 146.04 59.116V58.996 57.556H146.52V58.876C146.52 58.996 146.52 59.116 146.64 59.116 146.76 59.236 146.76 59.236 146.88 59.236 147 59.236 147.12 59.236 147.12 59.236 147.12 59.116 147.24 59.116 147.24 59.116V58.996 57.556H147.72V59.116 59.236C147.6 59.356 147.48 59.476 147.36 59.596 147.24 59.716 147 59.716 146.88 59.716 146.76 59.716 146.64 59.716 146.64 59.596 146.52 59.596 146.4 59.476 146.4 59.476 146.16 59.596 145.92 59.716 145.68 59.716H145.56C145.44 59.596 145.44 59.596 145.32 59.476V59.716Z" fill="#ffffff" fill-rule="evenodd"/><path transform="matrix(1,0,0,-1,0,595.276)" d="M148.2 58.636C148.2 58.396 148.32 58.036 148.56 57.796 148.68 57.676 149.04 57.556 149.28 57.556 149.52 57.556 149.76 57.676 150 57.796 150.24 58.036 150.36 58.396 150.36 58.636 150.36 58.876 150.24 59.116 150 59.356 149.76 59.596 149.52 59.716 149.28 59.716 149.04 59.716 148.68 59.596 148.56 59.356 148.32 59.116 148.2 58.876 148.2 58.636ZM149.28 59.236C149.4 59.236 149.52 59.236 149.64 59.116 149.76 58.996 149.88 58.756 149.88 58.636 149.88 58.516 149.76 58.276 149.64 58.156 149.52 58.036 149.4 57.916 149.28 57.916 149.16 57.916 149.04 58.036 148.92 58.156 148.8 58.276 148.68 58.516 148.68 58.636 148.68 58.756 148.8 58.996 148.92 59.116 149.04 59.236 149.16 59.236 149.28 59.236Z" fill="#ffffff" fill-rule="evenodd"/><path transform="matrix(1,0,0,-1,0,595.276)" d="M151.8 57.556C151.56 57.556 151.32 57.556 151.2 57.796 150.96 57.916 150.84 58.156 150.84 58.276V59.716H151.32V58.276C151.32 58.276 151.44 58.156 151.44 58.036 151.56 58.036 151.68 57.916 151.8 57.916 151.8 57.916 151.92 58.036 152.04 58.036 152.16 58.156 152.16 58.276 152.16 58.276V59.716H152.64V57.556H152.16V57.676C152.04 57.676 152.04 57.556 151.92 57.556H151.8Z" fill="#ffffff" fill-rule="evenodd"/><path transform="matrix(1,0,0,-1,0,595.276)" d="M154.2 59.236C154.32 59.236 154.32 59.236 154.44 59.236 154.56 59.116 154.56 58.996 154.56 58.996V57.556H155.04V58.996C155.04 59.116 155.04 59.236 154.92 59.356 154.8 59.476 154.68 59.596 154.56 59.716 154.44 59.716 154.32 59.716 154.2 59.716 153.96 59.716 153.84 59.596 153.72 59.476V59.716H153.36V57.556H153.72V58.876C153.72 58.996 153.84 59.116 153.96 59.116 153.96 59.236 154.08 59.236 154.2 59.236Z" fill="#ffffff" fill-rule="evenodd"/><path transform="matrix(1,0,0,-1,0,595.276)" d="M156.36 58.036 156.48 57.916C156.6 57.916 156.6 57.916 156.72 57.916 156.84 57.916 156.84 57.916 156.96 57.916V57.556C156.72 57.556 156.48 57.556 156.24 57.556 156.12 57.676 156.12 57.676 156 57.796 156 57.796 155.88 57.916 155.88 58.036V59.236H155.52V59.716H155.88V60.316L156.36 60.556V59.716H156.96V59.236H156.36V58.036Z" fill="#ffffff" fill-rule="evenodd"/><path transform="matrix(1,0,0,-1,0,595.276)" d="M117.12 56.236V54.316 54.196C117.12 54.076 117.24 53.956 117.24 53.956 117.36 53.836 117.6 53.716 117.72 53.716 117.96 53.716 118.08 53.836 118.2 53.956 118.32 53.956 118.32 54.076 118.44 54.196V54.316 56.236H118.92V54.316C118.92 54.196 118.92 54.076 118.8 53.956 118.8 53.836 118.68 53.596 118.56 53.476 118.32 53.356 118.08 53.236 117.72 53.236 117.48 53.236 117.24 53.356 117 53.476 116.88 53.596 116.76 53.836 116.76 53.956 116.64 54.076 116.64 54.196 116.64 54.316V56.236H117.12Z" fill="#ffffff" fill-rule="evenodd"/><path transform="matrix(1,0,0,-1,0,595.276)" d="M120.24 54.676H120.36 120.48C120.84 54.676 121.08 54.436 121.2 54.196 121.2 54.076 121.32 53.956 121.2 53.956 121.2 53.716 121.2 53.596 121.08 53.476 120.84 53.356 120.6 53.236 120.36 53.236 120 53.236 119.64 53.476 119.52 53.716L119.76 54.076C119.88 53.956 119.88 53.836 120 53.836 120.12 53.716 120.24 53.716 120.36 53.716H120.48 120.6C120.72 53.836 120.72 53.836 120.72 53.956V54.076C120.6 54.196 120.48 54.196 120.36 54.196 120.24 54.196 120.24 54.196 120.12 54.196 119.88 54.316 119.76 54.436 119.64 54.556 119.52 54.676 119.52 54.796 119.52 54.916 119.52 55.036 119.64 55.156 119.64 55.276 119.88 55.396 120 55.396 120.12 55.516H120.24C120.6 55.516 120.96 55.396 121.2 55.276L120.96 54.916C120.72 55.036 120.6 55.036 120.36 55.036H120.24C120.12 55.036 120.12 54.916 120.12 54.916 120.12 54.796 120.12 54.676 120.24 54.676Z" fill="#ffffff" fill-rule="evenodd"/><path transform="matrix(1,0,0,-1,0,595.276)" d="M122.4 53.236C122.64 53.236 122.88 53.236 123.12 53.356 123.24 53.356 123.36 53.476 123.48 53.596L123.12 53.836C123 53.716 122.88 53.716 122.76 53.716 122.64 53.596 122.4 53.716 122.28 53.716 122.28 53.836 122.16 53.836 122.16 53.956 122.16 54.076 122.04 54.076 122.16 54.196H123.48C123.6 54.436 123.48 54.676 123.48 54.796 123.36 55.036 123.24 55.156 123.12 55.276 122.88 55.516 122.4 55.516 122.16 55.396 121.8 55.156 121.68 54.916 121.68 54.676 121.56 54.316 121.68 54.076 121.8 53.716 121.8 53.596 121.92 53.476 122.04 53.476 122.16 53.356 122.28 53.236 122.4 53.236ZM122.04 54.556C122.16 54.676 122.16 54.796 122.16 54.796 122.28 54.916 122.28 55.036 122.4 55.036 122.52 55.036 122.64 55.036 122.76 55.036 122.88 55.036 123 54.916 123 54.916 123 54.796 123.12 54.676 123.12 54.556H122.04Z" fill="#ffffff" fill-rule="evenodd"/><path transform="matrix(1,0,0,-1,0,595.276)" stroke-width=".12" stroke-linecap="butt" stroke-miterlimit="10" stroke-linejoin="miter" fill="none" stroke="#ffffff" d="M125.5 55.5V55.5"/><path transform="matrix(1,0,0,-1,0,595.276)" d="M125.64 55.276C125.88 55.516 126.24 55.516 126.6 55.276 126.96 55.036 127.08 54.676 127.08 54.316 127.08 54.076 126.96 53.596 126.6 53.356 126.48 53.356 126.24 53.236 126.12 53.236 126 53.236 126 53.236 125.88 53.236L125.76 53.356H125.64V52.636H125.16V55.396H125.64V55.276ZM125.76 54.916 125.64 54.796C125.64 54.676 125.64 54.676 125.64 54.556V54.196 54.076C125.64 53.956 125.64 53.836 125.76 53.836 125.88 53.716 126 53.716 126.12 53.716 126.24 53.716 126.36 53.836 126.48 53.956 126.72 54.196 126.72 54.556 126.48 54.796 126.36 54.916 126.24 55.036 126.12 55.036 126 55.036 125.88 54.916 125.76 54.916Z" fill="#ffffff" fill-rule="evenodd"/><path transform="matrix(1,0,0,-1,0,595.276)" d="M128.28 53.236C128.52 53.236 128.76 53.236 129 53.356 129.12 53.356 129.24 53.476 129.36 53.596L129 53.836C128.88 53.716 128.76 53.716 128.64 53.716 128.52 53.596 128.28 53.716 128.16 53.716 128.16 53.836 128.04 53.836 128.04 53.956 128.04 54.076 128.04 54.076 128.04 54.196H129.48C129.48 54.436 129.36 54.676 129.36 54.796 129.36 55.036 129.24 55.156 129 55.276 128.76 55.516 128.28 55.516 128.04 55.396 127.8 55.156 127.56 54.916 127.56 54.676 127.44 54.316 127.56 54.076 127.68 53.716 127.68 53.596 127.8 53.476 127.92 53.476 128.04 53.356 128.16 53.236 128.28 53.236ZM128.04 54.556C128.04 54.676 128.04 54.796 128.04 54.796 128.16 54.916 128.16 55.036 128.28 55.036 128.4 55.036 128.52 55.036 128.76 55.036L128.88 54.916C128.88 54.796 129 54.676 129 54.556H128.04Z" fill="#ffffff" fill-rule="evenodd"/><path transform="matrix(1,0,0,-1,0,595.276)" stroke-width=".12" stroke-linecap="butt" stroke-miterlimit="10" stroke-linejoin="miter" fill="none" stroke="#ffffff" d="M131.5 53.5V53.5"/><path transform="matrix(1,0,0,-1,0,595.276)" d="M131.28 53.476V53.476C131.16 53.356 131.04 53.356 130.92 53.236H130.8C130.68 53.236 130.56 53.236 130.56 53.356 130.2 53.356 130.08 53.596 129.96 53.836 129.84 54.196 129.84 54.556 129.96 54.916V55.036C130.08 55.276 130.32 55.396 130.68 55.516 130.92 55.516 131.16 55.396 131.4 55.276V56.236H131.76V53.356H131.4C131.4 53.476 131.4 53.476 131.28 53.476ZM130.92 53.716C131.16 53.716 131.28 53.836 131.28 53.956 131.28 54.076 131.4 54.076 131.4 54.196V54.556C131.4 54.676 131.28 54.796 131.28 54.916 131.16 55.036 131.04 55.036 130.92 55.036 130.8 55.036 130.68 55.036 130.56 55.036 130.56 54.916 130.44 54.916 130.44 54.796 130.32 54.556 130.32 54.196 130.44 53.956 130.44 53.956 130.44 53.836 130.56 53.836 130.68 53.716 130.8 53.716 130.92 53.716Z" fill="#ffffff" fill-rule="evenodd"/><path transform="matrix(1,0,0,-1,0,595.276)" d="M133.2 53.236C133.44 53.236 133.68 53.236 133.92 53.356 134.04 53.356 134.16 53.476 134.16 53.596L133.92 53.836H133.8C133.8 53.716 133.68 53.716 133.56 53.716 133.32 53.596 133.2 53.716 133.08 53.716 132.96 53.836 132.96 53.836 132.96 53.956 132.84 54.076 132.84 54.076 132.84 54.196H134.28C134.28 54.436 134.28 54.676 134.28 54.796 134.16 55.036 134.04 55.156 133.92 55.276 133.56 55.516 133.2 55.516 132.84 55.396 132.6 55.156 132.48 54.916 132.36 54.676 132.36 54.316 132.36 54.076 132.48 53.716 132.6 53.596 132.72 53.476 132.84 53.476 132.96 53.356 133.08 53.236 133.2 53.236ZM132.84 54.556C132.84 54.676 132.96 54.796 132.96 54.796 132.96 54.916 133.08 55.036 133.08 55.036 133.32 55.036 133.44 55.036 133.56 55.036 133.68 55.036 133.68 54.916 133.8 54.916 133.8 54.796 133.8 54.676 133.8 54.556H132.84Z" fill="#ffffff" fill-rule="evenodd"/><path transform="matrix(1,0,0,-1,0,595.276)" d="M135.36 54.676C135.36 54.676 135.48 54.676 135.6 54.676H135.72C135.96 54.676 136.2 54.436 136.32 54.196 136.32 54.076 136.44 53.956 136.44 53.956 136.32 53.716 136.32 53.596 136.2 53.476 135.96 53.356 135.72 53.236 135.48 53.236 135.12 53.236 134.76 53.476 134.64 53.716L134.88 54.076C135 53.956 135 53.836 135.12 53.836 135.24 53.716 135.36 53.716 135.48 53.716H135.6C135.72 53.716 135.72 53.716 135.84 53.716 135.84 53.836 135.84 53.836 135.84 53.956V54.076C135.72 54.196 135.6 54.196 135.48 54.196 135.36 54.196 135.36 54.196 135.24 54.196 135.12 54.316 134.88 54.436 134.76 54.556 134.64 54.676 134.64 54.796 134.64 54.916 134.64 55.036 134.76 55.156 134.88 55.276 135 55.396 135.12 55.396 135.36 55.516 135.72 55.516 136.08 55.396 136.32 55.276L136.08 54.916C135.84 55.036 135.72 55.036 135.6 55.036 135.48 55.036 135.36 55.036 135.36 55.036 135.24 55.036 135.24 54.916 135.24 54.916 135.24 54.796 135.24 54.676 135.36 54.676Z" fill="#ffffff" fill-rule="evenodd"/><path transform="matrix(1,0,0,-1,0,595.276)" d="M137.64 53.836C137.64 53.716 137.64 53.716 137.76 53.716H137.88C138 53.716 138 53.716 138.12 53.716V53.356C137.88 53.236 137.64 53.236 137.4 53.356 137.28 53.356 137.28 53.476 137.16 53.476 137.16 53.596 137.16 53.596 137.16 53.716V55.036H136.68V55.396H137.16V56.116L137.64 56.236V55.396H138.12V55.036H137.64V53.836Z" fill="#ffffff" fill-rule="evenodd"/><path transform="matrix(1,0,0,-1,0,595.276)" d="M139.08 55.276C139.08 55.276 139.2 55.396 139.32 55.396 139.56 55.516 139.68 55.516 139.8 55.516V55.036C139.56 55.036 139.44 54.916 139.2 54.916 139.2 54.796 139.2 54.796 139.08 54.796 139.08 54.676 139.08 54.676 139.08 54.556V53.356H138.6V55.396H139.08V55.276Z" fill="#ffffff" fill-rule="evenodd"/><path transform="matrix(1,0,0,-1,0,595.276)" d="M140.52 53.356V55.396H140.16V53.356Z" fill="#ffffff" fill-rule="evenodd"/><path transform="matrix(1,0,0,-1,0,595.276)" d="M140.64 55.996C140.64 56.236 140.52 56.356 140.4 56.356 140.16 56.356 140.04 56.236 140.04 55.996 140.04 55.876 140.16 55.756 140.4 55.756 140.52 55.756 140.64 55.876 140.64 55.996Z" fill="#ffffff" fill-rule="evenodd"/><path transform="matrix(1,0,0,-1,0,595.276)" d="M143.04 53.596H142.92V53.716C142.92 53.716 142.8 53.716 142.8 53.836V54.436C142.8 54.556 142.8 54.676 142.8 54.676 142.8 54.796 142.8 54.916 142.8 54.916 142.8 55.036 142.8 55.156 142.68 55.276 142.68 55.276 142.56 55.396 142.44 55.396 142.32 55.516 142.08 55.516 141.96 55.516 141.84 55.516 141.72 55.516 141.6 55.396 141.48 55.396 141.48 55.396 141.36 55.396 141.36 55.276 141.24 55.276 141.24 55.276L141.36 54.916 141.6 55.036H141.72 141.84C141.96 55.036 142.08 55.036 142.2 55.036 142.2 55.036 142.32 55.036 142.32 54.916 142.32 54.916 142.44 54.916 142.44 54.796V54.676L142.08 54.556C141.96 54.556 141.96 54.556 141.84 54.556 141.72 54.556 141.6 54.556 141.48 54.556 141.48 54.436 141.36 54.436 141.24 54.316 141.12 54.196 141.12 54.076 141.12 53.956 141.12 53.836 141.12 53.716 141.24 53.596 141.24 53.476 141.36 53.356 141.48 53.356 141.6 53.356 141.72 53.236 141.84 53.236 141.96 53.236 142.08 53.236 142.2 53.356 142.32 53.356 142.44 53.356 142.44 53.476 142.56 53.476 142.56 53.356 142.68 53.356L142.8 53.236 143.04 53.596ZM141.84 53.596C141.72 53.596 141.72 53.716 141.6 53.716V53.836C141.6 53.956 141.6 53.956 141.6 54.076L141.72 54.196H141.84C141.96 54.196 142.08 54.196 142.2 54.316 142.2 54.316 142.32 54.316 142.44 54.316V53.956C142.44 53.836 142.44 53.836 142.32 53.836V53.716C142.32 53.716 142.2 53.596 142.08 53.596 142.08 53.596 141.96 53.596 141.84 53.596Z" fill="#ffffff" fill-rule="evenodd"/><path transform="matrix(1,0,0,-1,0,595.276)" d="M143.04 53.596V53.596Z" fill="#ffffff" fill-rule="evenodd"/><path transform="matrix(1,0,0,-1,0,595.276)" d="M141.36 54.916V54.916Z" fill="#ffffff" fill-rule="evenodd"/><path transform="matrix(1,0,0,-1,0,595.276)" d="M144.48 55.036C144.6 55.036 144.72 55.036 144.72 54.916 144.84 54.916 144.84 54.796 144.84 54.676V53.356H145.32V54.796C145.32 54.916 145.32 55.036 145.2 55.156 145.08 55.276 144.96 55.396 144.84 55.396 144.72 55.516 144.6 55.516 144.48 55.516 144.36 55.396 144.24 55.396 144.12 55.276V55.396H143.64V53.356H144.12V54.676C144.12 54.676 144.12 54.796 144.24 54.916 144.24 55.036 144.36 55.036 144.48 55.036Z" fill="#ffffff" fill-rule="evenodd"/><path transform="matrix(1,0,0,-1,0,595.276)" d="M147.84 53.716C147.96 53.596 148.08 53.716 148.08 53.716 148.2 53.716 148.2 53.716 148.32 53.836L148.44 53.956 148.8 53.836 148.68 53.596C148.68 53.596 148.68 53.476 148.56 53.476 148.56 53.476 148.44 53.356 148.32 53.356 148.2 53.236 148.08 53.236 147.96 53.236 147.72 53.236 147.6 53.356 147.36 53.476 147.24 53.476 147.12 53.716 147 53.956 147 54.076 146.88 54.316 147 54.556 147 54.796 147.12 54.916 147.24 55.156 147.36 55.276 147.48 55.396 147.6 55.396 147.72 55.516 147.96 55.516 148.2 55.396 148.32 55.396 148.56 55.276 148.68 55.156 148.68 55.156 148.68 55.036 148.8 55.036V54.916L148.44 54.676C148.32 54.796 148.32 54.916 148.32 54.916 148.2 54.916 148.2 55.036 148.2 55.036 148.08 55.036 147.84 55.036 147.72 55.036 147.6 54.916 147.48 54.796 147.48 54.676 147.36 54.556 147.36 54.316 147.48 54.076 147.48 53.956 147.6 53.716 147.84 53.716Z" fill="#ffffff" fill-rule="evenodd"/><path transform="matrix(1,0,0,-1,0,595.276)" d="M149.76 55.276C149.88 55.276 150 55.396 150.12 55.396 150.24 55.516 150.36 55.516 150.48 55.516V55.036C150.24 55.036 150.12 54.916 150 54.916L149.88 54.796C149.76 54.676 149.76 54.676 149.76 54.556V53.356H149.28V55.396H149.76V55.276Z" fill="#ffffff" fill-rule="evenodd"/><path transform="matrix(1,0,0,-1,0,595.276)" d="M150.6 54.316C150.6 54.076 150.72 53.836 150.96 53.596 151.2 53.356 151.44 53.236 151.68 53.236 151.92 53.236 152.28 53.356 152.4 53.596 152.64 53.836 152.76 54.076 152.76 54.316 152.76 54.676 152.64 54.916 152.4 55.156 152.28 55.396 151.92 55.516 151.68 55.516 151.44 55.516 151.2 55.396 150.96 55.156 150.72 54.916 150.6 54.676 150.6 54.316ZM151.68 55.036C151.8 55.036 152.04 54.916 152.16 54.796 152.16 54.676 152.28 54.556 152.28 54.316 152.28 54.196 152.16 54.076 152.16 53.956 152.04 53.836 151.8 53.716 151.68 53.716 151.56 53.716 151.44 53.836 151.32 53.956 151.2 54.076 151.2 54.196 151.2 54.316 151.2 54.556 151.2 54.676 151.32 54.796 151.44 54.916 151.56 55.036 151.68 55.036Z" fill="#ffffff" fill-rule="evenodd"/><path transform="matrix(1,0,0,-1,0,595.276)" d="M153.84 54.676C153.84 54.676 153.96 54.676 154.08 54.676H154.2C154.44 54.676 154.68 54.436 154.8 54.196 154.8 54.076 154.92 53.956 154.92 53.956 154.8 53.716 154.8 53.596 154.68 53.476 154.44 53.356 154.2 53.236 153.96 53.236 153.6 53.236 153.24 53.476 153.12 53.716L153.36 54.076C153.48 53.956 153.48 53.836 153.6 53.836 153.72 53.716 153.84 53.716 153.96 53.716H154.08 154.2C154.32 53.836 154.32 53.836 154.32 53.956V54.076C154.2 54.196 154.08 54.196 153.96 54.196 153.84 54.196 153.84 54.196 153.72 54.196 153.6 54.316 153.36 54.436 153.24 54.556 153.12 54.676 153.12 54.796 153.12 54.916 153.12 55.036 153.24 55.156 153.36 55.276 153.48 55.396 153.6 55.396 153.84 55.516 154.2 55.516 154.56 55.396 154.8 55.276L154.56 54.916C154.32 55.036 154.2 55.036 154.08 55.036H153.96 153.84C153.72 55.036 153.72 54.916 153.72 54.916 153.72 54.796 153.72 54.676 153.84 54.676Z" fill="#ffffff" fill-rule="evenodd"/><path transform="matrix(1,0,0,-1,0,595.276)" d="M157.92 53.356V55.396H157.44V53.356Z" fill="#ffffff" fill-rule="evenodd"/><path transform="matrix(1,0,0,-1,0,595.276)" d="M157.92 55.996C157.92 56.236 157.8 56.356 157.68 56.356 157.44 56.356 157.32 56.236 157.32 55.996 157.32 55.876 157.44 55.756 157.68 55.756 157.8 55.756 157.92 55.876 157.92 55.996Z" fill="#ffffff" fill-rule="evenodd"/><path transform="matrix(1,0,0,-1,0,595.276)" d="M162.24 55.276V55.396H162.6V53.236 53.116C162.6 52.876 162.24 52.636 161.76 52.636 161.52 52.516 161.16 52.636 160.92 52.756L161.04 53.236C161.28 53.116 161.52 52.996 161.64 52.996 161.88 52.996 162.12 53.116 162.12 53.236V53.356 53.476 53.596C162 53.476 161.88 53.476 161.88 53.476H161.76C161.76 53.476 161.52 53.476 161.28 53.596 161.04 53.716 160.8 53.956 160.8 54.436 160.8 55.036 161.04 55.276 161.28 55.396 161.52 55.516 161.76 55.516 161.76 55.516 161.76 55.516 161.88 55.516 162 55.396 162.12 55.396 162.12 55.396 162.24 55.276ZM161.76 55.036C161.76 55.036 161.64 55.036 161.52 54.916 161.4 54.916 161.28 54.796 161.28 54.436 161.28 53.956 161.76 53.956 161.76 53.956 161.76 53.956 162.24 53.956 162.24 54.436 162.24 55.036 161.76 55.036 161.76 55.036Z" fill="#ffffff" fill-rule="evenodd"/><path transform="matrix(1,0,0,-1,0,595.276)" d="M159.36 55.036C159.48 55.036 159.6 55.036 159.72 54.916 159.72 54.916 159.84 54.796 159.84 54.676V53.356H160.2V54.796C160.2 54.916 160.2 55.036 160.08 55.156 160.08 55.276 159.96 55.396 159.84 55.396 159.6 55.516 159.48 55.516 159.36 55.516 159.24 55.396 159.12 55.396 159 55.276V55.396H158.52V53.356H159V54.676C159 54.676 159 54.796 159.12 54.916 159.24 55.036 159.36 55.036 159.36 55.036Z" fill="#ffffff" fill-rule="evenodd"/><path transform="matrix(1,0,0,-1,0,595.276)" d="M155.88 54.676C155.88 54.676 156 54.676 156.12 54.676H156.24C156.48 54.676 156.72 54.436 156.84 54.196 156.84 54.076 156.96 53.956 156.96 53.956 156.84 53.716 156.84 53.596 156.72 53.476 156.48 53.356 156.24 53.236 156 53.236 155.64 53.236 155.28 53.476 155.16 53.716L155.4 54.076C155.52 53.956 155.52 53.836 155.64 53.836 155.76 53.716 155.88 53.716 156 53.716H156.12 156.24C156.36 53.836 156.36 53.836 156.36 53.956V54.076C156.24 54.196 156.12 54.196 156 54.196 155.88 54.196 155.88 54.196 155.76 54.196 155.64 54.316 155.4 54.436 155.28 54.556 155.16 54.676 155.16 54.796 155.16 54.916 155.16 55.036 155.28 55.156 155.4 55.276 155.52 55.396 155.64 55.396 155.88 55.516 156.24 55.516 156.6 55.396 156.84 55.276L156.6 54.916C156.36 55.036 156.24 55.036 156.12 55.036H156 155.88C155.76 55.036 155.76 54.916 155.76 54.916 155.76 54.796 155.76 54.676 155.88 54.676Z" fill="#ffffff" fill-rule="evenodd"/><path transform="matrix(1,0,0,-1,0,595.276)" d="M149.64 43.036 150.36 43.156V43.516L149.76 43.396 150 43.636 149.76 43.876 149.52 43.996 149.28 43.876 149.64 43.396H149.04L148.92 43.516V43.756L149.04 43.876V43.996H148.56V43.636 43.396L148.2 43.276V42.916H148.68L148.8 42.676 148.92 42.556 148.56 42.316 148.2 42.196 148.32 41.956 148.8 42.076 149.16 42.196 149.52 42.076 149.88 41.956H150L150.24 42.076 150.36 42.196 150.48 42.556 150.12 42.796V42.436H150L149.88 42.316H149.76L149.52 42.436 149.88 42.676H150V42.796L149.64 43.036 149.28 42.676 149.16 42.796 149.04 43.036H149.64Z" fill="#ffffff" fill-rule="evenodd"/><path transform="matrix(1,0,0,-1,0,595.276)" d="M149.52 41.956 149.28 41.716 149.76 41.356H149.04L148.92 41.476V41.716H149.04V41.836 41.956H148.56V41.596L148.68 41.236H148.2V40.876H148.68L148.8 40.636 148.92 40.396 148.56 40.276 148.2 40.156 148.32 39.796 148.8 39.916 149.16 40.156 149.52 39.916 150 39.796H150.12L150.36 39.916 150.48 40.036V40.396L150.24 40.516 150.12 40.276H150L149.88 40.156 149.76 40.276 149.52 40.396 149.88 40.636H150L150.12 40.756V40.876L149.88 41.116H150.36V41.476H149.76L150 41.716 149.52 41.956ZM149.04 40.996H149.76L149.28 40.636 149.16 40.756 149.04 40.996Z" fill="#ffffff" fill-rule="evenodd"/><path transform="matrix(1,0,0,-1,0,595.276)" d="M147.12 44.116 146.64 43.276 146.52 43.396 146.28 43.036 147 42.556 146.64 41.956H146.28L146.4 41.596V41.476L146.52 41.596H147V39.796H147.36V41.716L147.72 41.836 147.84 41.476 148.2 41.596 147.96 42.076 147.84 42.436H147.48L147.6 42.076H147.12L147.84 43.036 147.96 43.156 147.84 43.276 147.6 43.396 147.24 42.916 147 43.036 147.36 43.756H147.48V43.876Z" fill="#ffffff" fill-rule="evenodd"/><path transform="matrix(1,0,0,-1,0,595.276)" d="M146.76 41.356H146.4V40.756L146.28 40.156 146.76 40.036V40.516L146.88 41.236V41.356Z" fill="#ffffff" fill-rule="evenodd"/><path transform="matrix(1,0,0,-1,0,595.276)" d="M147.84 41.356 147.48 41.236 147.6 40.756V40.276L148.08 40.396Z" fill="#ffffff" fill-rule="evenodd"/><path transform="matrix(1,0,0,-1,0,595.276)" d="M117.12 50.836V48.316H117.48V48.436H118.56V47.956L118.44 48.196H118.2L118.44 47.476H118.56V47.356L118.44 47.236 118.32 47.116 118.08 46.996H117.84L117.96 46.636H118.2L118.32 46.756H118.56L118.68 46.876 118.8 46.996V47.236L118.92 47.356V47.596 47.836 48.796H118.32V49.156H118.8V49.516H118.32V49.756H118.8V50.116H118.32V50.476H118.92V50.836H117.12ZM117.48 50.116V50.476H117.96V50.116H117.48ZM117.48 48.796V49.156H117.96V48.796H117.48ZM117.48 49.516V49.756H117.96V49.516H117.48Z" fill="#ffffff" fill-rule="evenodd"/><path transform="matrix(1,0,0,-1,0,595.276)" d="M117.24 48.076H117L116.88 47.116H117.24Z" fill="#ffffff" fill-rule="evenodd"/><path transform="matrix(1,0,0,-1,0,595.276)" d="M117.6 48.076H117.36L117.48 47.236H117.72Z" fill="#ffffff" fill-rule="evenodd"/><path transform="matrix(1,0,0,-1,0,595.276)" d="M117.96 48.196 117.72 48.076 117.84 47.716 117.96 47.356H118.2Z" fill="#ffffff" fill-rule="evenodd"/><path transform="matrix(1,0,0,-1,0,595.276)" d="M120 50.836V50.476H119.04V50.116H119.88L119.76 49.876 119.52 49.756 119.4 49.636H119.04L119.28 49.276 119.64 49.396 119.88 49.516 120 49.636 120.24 49.876 120.48 49.516 120.84 49.276 121.2 49.516 120.96 49.636 120.72 49.756 120.6 49.996 120.48 50.116H121.2V50.476H120.36V50.716 50.836H120.24Z" fill="#ffffff" fill-rule="evenodd"/><path transform="matrix(1,0,0,-1,0,595.276)" d="M119.04 49.156V48.796H120.72V47.356 47.236L120.6 47.116 120.48 46.996H120.36 120L120.24 46.636H120.36 120.48 120.72 120.84L120.96 46.756V46.876L121.08 46.996V47.236 47.356 48.796H121.32V49.156Z" fill="#ffffff" fill-rule="evenodd"/><path transform="matrix(1,0,0,-1,0,595.276)" d="M119.16 48.436V47.116H119.64V47.356H119.88V47.236H120.24V48.436H119.16ZM119.64 47.716V48.076H119.88V47.716H119.64Z" fill="#ffffff" fill-rule="evenodd"/><path transform="matrix(1,0,0,-1,0,595.276)" d="M123.36 50.836V49.756H124.8V50.836H123.36ZM123.72 50.116V50.476H124.32V50.116H123.72Z" fill="#ffffff" fill-rule="evenodd"/><path transform="matrix(1,0,0,-1,0,595.276)" d="M123.48 47.596H123.84V47.836H124.8V47.476H122.88V47.116H124.8V46.636H125.28V47.116H127.2V47.476H125.28V47.836H126.12V47.596H126.6V49.516H123.48V47.596ZM125.28 48.916V49.156H126.12V48.916H125.28ZM125.28 48.196V48.436H126.12V48.196H125.28ZM123.84 48.916V49.156H124.8V48.916H123.84ZM123.84 48.196V48.436H124.8V48.196H123.84Z" fill="#ffffff" fill-rule="evenodd"/><path transform="matrix(1,0,0,-1,0,595.276)" d="M125.28 50.836V49.756H126.72V50.836H125.28ZM125.76 50.116V50.476H126.36V50.116H125.76Z" fill="#ffffff" fill-rule="evenodd"/><path transform="matrix(1,0,0,-1,0,595.276)" d="M129 50.476V50.116H130.68V49.756H129.48V47.956H130.68V47.596H128.76V47.236H130.68V46.636H131.04V47.236H132.96V47.596H131.04V47.956H132.48V49.756H131.04V50.116H132.84V50.476H131.04V50.716L131.16 50.836V50.956H130.68V50.476H129ZM129.84 49.036V49.396H130.68V49.036H129.84ZM129.84 48.316V48.676H130.68V48.316H129.84ZM131.04 49.036V49.396H132V49.036H131.04ZM131.04 48.316V48.676H132V48.316H131.04Z" fill="#ffffff" fill-rule="evenodd"/><path transform="matrix(1,0,0,-1,0,595.276)" d="M137.04 49.156H137.4 137.52 138.96V49.516H137.52L138 49.876 138.36 50.356H138.48V50.476L138.36 50.596 138 50.716 137.64 50.116V50.356H136.8V50.716L136.92 50.836H136.8L136.68 50.956H136.32V50.356H135.12V49.996H136.32V49.516H134.64V49.156H136.32L135.96 48.796 135.48 48.676 135 48.436 134.52 48.316 134.88 47.956 135.72 48.316V46.636H136.08V46.756H137.88V46.636H138.36V48.676H137.88 137.28 136.44L136.8 48.916 137.04 49.156ZM136.8 49.516V49.996H137.4L137.16 49.636 136.92 49.516H136.8ZM136.08 47.956V48.316H137.88V47.956H136.08ZM136.08 47.116V47.596H137.88V47.116H136.08Z" fill="#ffffff" fill-rule="evenodd"/><path transform="matrix(1,0,0,-1,0,595.276)" d="M140.52 50.836V50.356H141.36L140.88 49.396H140.4L140.52 49.036V48.916H140.64 140.76L141.48 49.036V48.436H140.52V47.956H141.48V47.236H140.4L140.52 46.756 140.64 46.636 140.76 46.756 142.92 47.116V47.476L141.96 47.356V47.956H142.8V48.436H141.96V49.156L142.44 49.276 142.68 48.796 143.04 49.036 142.8 49.636 142.32 50.116 142.08 49.876 142.32 49.516 141.36 49.396 141.84 50.356H142.92V50.836Z" fill="#ffffff" fill-rule="evenodd"/><path transform="matrix(1,0,0,-1,0,595.276)" d="M143.28 50.596V47.596H143.76V50.356 50.476H143.64Z" fill="#ffffff" fill-rule="evenodd"/><path transform="matrix(1,0,0,-1,0,595.276)" d="M144.24 50.956V47.356L144.12 47.236V47.116H144V46.996H143.52L143.76 46.636H144.24L144.48 46.756 144.6 46.876V46.996 47.236 50.716L144.72 50.836V50.956H144.6Z" fill="#ffffff" fill-rule="evenodd"/><path transform="matrix(1,0,0,-1,0,595.276)" d="M146.28 47.236V46.876L146.4 46.756 146.52 46.876 148.56 47.236V47.596L147.96 47.476V48.796H148.56V49.276H147.96V50.596L148.08 50.716H147.96 147.84L147.48 50.836V47.476L147 47.356V49.516H147.12V49.636H147L146.64 49.756V47.356Z" fill="#ffffff" fill-rule="evenodd"/><path transform="matrix(1,0,0,-1,0,595.276)" d="M148.92 50.836V47.356 47.116L149.04 46.876H149.28L149.52 46.756H150L150.36 46.876 150.48 46.996 150.6 47.356 150.72 47.716 150.24 47.956V47.596L150.12 47.356 150 47.236H149.88 149.52 149.4V47.356 47.476 47.596 48.916L149.88 49.156 150.48 49.396H150.6V49.516L150.48 49.636 150.24 49.876 149.4 49.396V50.476L149.52 50.596V50.716H149.4L149.28 50.836Z" fill="#ffffff" fill-rule="evenodd"/><path transform="matrix(1,0,0,-1,0,595.276)" d="M152.16 50.596V50.116H153.96V46.636H154.44V49.036L155.04 48.556 155.64 47.956 156 48.316 155.28 48.916 154.44 49.516V50.116H156.48V50.596Z" fill="#ffffff" fill-rule="evenodd"/><path transform="matrix(1,0,0,-1,0,595.276)" d="M158.28 50.476V50.116H159.96V49.756H158.76V47.956H159.96V47.596H158.04V47.236H159.96V46.636H160.44V47.236H162.36V47.596H160.44V47.956H161.76V49.756H160.44V50.116H162.12V50.476H160.44V50.716 50.836 50.956H159.96V50.476H158.28ZM159.12 49.036V49.396H159.96V49.036H159.12ZM159.12 48.316V48.676H159.96V48.316H159.12ZM160.44 49.036V49.396H161.28V49.036H160.44ZM160.44 48.316V48.676H161.28V48.316H160.44Z" fill="#ffffff" fill-rule="evenodd"/><path transform="matrix(1,0,0,-1,0,595.276)" d="M117.36 43.156V39.676H117.84V40.036H120.48V39.676H120.96V43.156H119.4V43.756 43.876L119.52 43.996H119.4 119.28 118.92V43.156H117.36ZM117.84 41.836V42.796H118.92V41.836H117.84ZM119.4 41.836V42.796H120.48V41.836H119.4ZM117.84 40.396V41.356H118.92V40.396H117.84ZM119.4 40.396V41.356H120.48V40.396H119.4Z" fill="#ffffff" fill-rule="evenodd"/><path transform="matrix(1,0,0,-1,0,595.276)" d="M123 43.876V39.676H123.36V43.516H123.84L123.48 42.316 123.6 42.196 123.84 41.956V41.716L123.96 41.596V41.356 41.236L123.84 40.996 123.72 40.876H123.36L123.6 40.396 123.96 40.516 124.2 40.756 124.32 40.876V41.116L124.44 41.356 124.32 41.596V41.836L124.08 42.196 123.96 42.436 124.44 43.636 124.08 43.996 123.96 43.876Z" fill="#ffffff" fill-rule="evenodd"/><path transform="matrix(1,0,0,-1,0,595.276)" d="M125.64 43.876 125.16 43.996 124.92 43.516 124.68 43.036 124.44 42.556 124.08 42.196 124.44 41.956 124.8 42.436V39.676H125.28V42.676H126.24V40.396 40.276 40.156H126.12 126 125.76L125.88 39.676H126.24 126.48L126.6 39.796 126.72 40.036V40.276 42.676H127.2V43.036H126.72V43.756H126.84V43.876H126.72 126.6L126.24 43.996V43.036H125.16L125.4 43.516Z" fill="#ffffff" fill-rule="evenodd"/><path transform="matrix(1,0,0,-1,0,595.276)" d="M125.64 42.076 125.4 41.836 125.76 41.236 126.12 41.476 125.88 41.716Z" fill="#ffffff" fill-rule="evenodd"/><path transform="matrix(1,0,0,-1,0,595.276)" d="M129.36 43.996 129 43.636 129.72 43.156 130.08 43.516 129.72 43.756Z" fill="#ffffff" fill-rule="evenodd"/><path transform="matrix(1,0,0,-1,0,595.276)" d="M129 43.156 128.76 42.916 129.48 42.316 129.84 42.676 129.48 42.916Z" fill="#ffffff" fill-rule="evenodd"/><path transform="matrix(1,0,0,-1,0,595.276)" d="M128.76 41.956V41.596H129.36V40.636L128.64 40.156 128.88 39.916 129 39.796H129.12V39.916L129.6 40.276 129.72 40.036 130.08 39.796 130.44 39.676H131.04 132.96L133.2 40.156H131.28 130.92 130.68 130.44L130.2 40.276 130.08 40.396 129.96 40.516 129.84 40.636V40.756 41.956Z" fill="#ffffff" fill-rule="evenodd"/><path transform="matrix(1,0,0,-1,0,595.276)" d="M130.56 43.756V42.436L130.44 41.956V41.596L130.32 41.116 130.08 40.756 130.56 40.516 130.68 40.996 130.8 41.356 130.92 41.836V42.316H131.76V40.276H132.24V42.316H133.08V42.796H130.92V43.396L131.76 43.516H132.6 132.72L132.84 43.636H132.72V43.756L132.36 43.996 131.52 43.876Z" fill="#ffffff" fill-rule="evenodd"/><path transform="matrix(1,0,0,-1,0,595.276)" d="M134.52 43.036 135 42.796 135.6 43.156 136.08 43.636H136.2V43.756L135.72 43.996 135.24 43.396Z" fill="#ffffff" fill-rule="evenodd"/><path transform="matrix(1,0,0,-1,0,595.276)" d="M134.52 41.476 134.88 41.236 135.36 41.716V39.676H135.84V42.196L136.08 42.556 136.32 42.796 136.44 42.916H136.32V43.036H135.96L135.6 42.676 135.24 42.196 134.88 41.836Z" fill="#ffffff" fill-rule="evenodd"/><path transform="matrix(1,0,0,-1,0,595.276)" d="M136.68 43.756V43.276H138.6V43.756Z" fill="#ffffff" fill-rule="evenodd"/><path transform="matrix(1,0,0,-1,0,595.276)" d="M137.76 41.956V40.516 40.396L137.64 40.276V40.156H137.52 136.92L137.16 39.676H137.4 137.64 137.76L137.88 39.796H138L138.12 39.916 138.24 40.036V40.276 40.396 41.956H138.96V42.436H136.32V41.956Z" fill="#ffffff" fill-rule="evenodd"/><path transform="matrix(1,0,0,-1,0,595.276)" d="M142.8 43.996H142.44V43.036L142.32 42.316 142.2 41.956 142.08 41.716 141.84 41.356 141.6 41.116 141.36 40.876 141.12 40.636 140.76 40.396 140.4 40.156 140.76 39.796 141.12 40.036 141.48 40.276 141.84 40.516 142.08 40.876 142.2 41.116 142.44 41.356 142.56 41.716 142.68 42.076 143.04 41.356 143.4 40.756 143.76 40.156 144.24 39.676 144.84 40.036 144.48 40.276 144.12 40.516 143.88 40.876 143.64 41.116 143.4 41.476 143.16 41.956 143.04 42.316 142.92 42.796 142.8 43.276 142.92 43.756 143.04 43.876 142.92 43.996Z" fill="#ffffff" fill-rule="evenodd"/><path transform="matrix(1,0,0,-1,0,595.276)" d="M152.76 44.116 152.4 43.756 152.76 43.636 153 43.396 153.24 43.636Z" fill="#ffffff" fill-rule="evenodd"/><path transform="matrix(1,0,0,-1,0,595.276)" d="M152.4 43.156 152.16 42.796 152.52 42.676 152.88 42.436 153.12 42.676 152.76 42.916Z" fill="#ffffff" fill-rule="evenodd"/><path transform="matrix(1,0,0,-1,0,595.276)" d="M152.16 41.956V41.596H152.76V40.756L152.04 40.276 152.4 39.796 152.88 40.396 153.12 40.036 153.48 39.916 153.84 39.676H154.44 156.48L156.6 40.036H154.68 154.32L154.08 40.156H153.84L153.6 40.276H153.48L153.36 40.516 153.24 40.636V40.756 41.956Z" fill="#ffffff" fill-rule="evenodd"/><path transform="matrix(1,0,0,-1,0,595.276)" d="M154.08 43.876V42.556H153.6V40.516H154.08V42.196H156V41.116 40.996L155.88 40.876 155.76 40.756H155.64 155.4L155.52 40.396H155.76 156.12L156.24 40.636 156.36 40.756V41.116 42.556H156V43.876H154.08ZM155.16 42.556V42.916H155.64V42.556H155.16ZM154.44 42.556V43.516H155.52V43.276H154.8V42.556H154.44Z" fill="#ffffff" fill-rule="evenodd"/><path transform="matrix(1,0,0,-1,0,595.276)" d="M154.32 41.836V40.636H154.68V40.876H155.64V41.836H154.32ZM154.68 41.236V41.596H155.28V41.236H154.68Z" fill="#ffffff" fill-rule="evenodd"/><path transform="matrix(1,0,0,-1,0,595.276)" d="M158.16 42.316H158.88V40.516L158.64 40.396V41.716 41.836H158.52 158.16V40.276H157.92L158.04 39.796H158.16L159.96 40.396V40.756L159.24 40.636V41.356H159.84V41.716H159.24V42.316H159.72V42.916L159.96 42.676 160.56 43.276H161.52L161.28 42.916 160.92 42.556 160.8 42.796 160.68 43.036 160.32 42.916 160.44 42.676 160.68 42.316 160.2 42.076 159.72 41.956 160.08 41.596 160.56 41.836 161.04 42.076 161.52 41.716 162.12 41.476 162.48 41.956 161.88 42.076 161.4 42.316 161.76 42.796 162.12 43.396 161.88 43.636H160.8L160.92 43.876H161.04V43.996H160.92L160.68 44.116 160.2 43.516 159.72 43.036V43.876H158.16V42.316ZM158.64 42.796V43.396H159.24V42.796H158.64Z" fill="#ffffff" fill-rule="evenodd"/><path transform="matrix(1,0,0,-1,0,595.276)" d="M160.08 39.676H160.56V39.916H161.52V39.676H162V41.476H160.08V39.676ZM160.56 40.396V40.996H161.52V40.396H160.56Z" fill="#ffffff" fill-rule="evenodd"/><path transform="matrix(1,0,0,-1,0,595.276)" stroke-width=".12" stroke-linecap="round" stroke-linejoin="round" fill="none" stroke="#0000ff" d="M165.12 38.716V61.036C165.12 61.876 164.4 62.596 163.56 62.596H115.68C114.84 62.596 114.12 61.876 114.12 61.036V38.716C114.12 37.876 114.84 37.156 115.68 37.156H163.56C164.4 37.156 165.12 37.876 165.12 38.716"/></g></svg>