<?xml version='1.0' encoding='UTF-8'?>
<svg width="557.51" height="220.91" viewBox="4.30 16.03 557.51 220.91" xmlns="http://www.w3.org/2000/svg" xmlns:xlink="http://www.w3.org/1999/xlink" xmlns:inkscape="http://www.inkscape.org/namespaces/inkscape" version="1.1"><g transform="scale(10.0) translate(-383.985, -47.232)"><path transform="matrix(1,0,0,-1,0,595.276)" d="M437.04 545.836H392.28C391.8 545.836 391.44 545.716 391.08 545.476 390.72 545.236 390.36 544.996 390.12 544.636L385.2 535.996C385.08 535.756 385.08 535.636 385.08 535.396 385.08 535.156 385.08 534.916 385.2 534.796L390.12 526.156C390.36 525.796 390.72 525.556 391.08 525.316 391.44 525.076 391.8 524.956 392.28 524.956H437.04C437.64 524.956 438.36 525.196 438.84 525.676 439.32 526.156 439.56 526.756 439.56 527.356V543.316C439.56 543.676 439.44 543.916 439.32 544.276 439.2 544.516 439.08 544.876 438.84 545.116 438.36 545.596 437.64 545.836 437.04 545.836Z" fill="#ffffff" fill-rule="evenodd"/><path transform="matrix(1,0,0,-1,0,595.276)" d="M437.04 544.636H392.28C392.04 544.636 391.8 544.516 391.68 544.396 391.44 544.276 391.32 544.156 391.2 543.916L386.28 535.396 391.2 526.756C391.32 526.636 391.44 526.516 391.68 526.396 391.8 526.276 392.04 526.156 392.28 526.156H437.04C437.28 526.156 437.4 526.156 437.52 526.276 437.64 526.276 437.88 526.396 438 526.516 438.12 526.636 438.12 526.756 438.24 526.996 438.24 527.116 438.36 527.236 438.36 527.356V543.316C438.36 543.676 438.24 544.036 438 544.276 437.64 544.516 437.4 544.636 437.04 544.636Z" fill="#0000ff" fill-rule="evenodd"/><path transform="matrix(1,0,0,-1,0,595.276)" d="M431.04 540.796C431.04 540.196 431.4 539.716 432 539.716 432.6 539.716 433.08 540.196 433.08 540.796 433.08 541.276 432.6 541.756 432 541.756 431.4 541.756 431.04 541.276 431.04 540.796Z" fill="#ffffff" fill-rule="evenodd"/><path transform="matrix(1,0,0,-1,0,595.276)" d="M430.68 528.916H429.96L430.08 531.796 431.28 535.036 431.04 536.956 430.56 536.476 429.12 535.156 428.76 535.756 430.08 536.956 430.44 538.156C430.56 538.516 430.8 538.756 431.04 538.996 431.4 539.236 431.76 539.356 432.12 539.356 432.48 539.356 432.84 539.356 433.2 539.116 433.44 538.996 433.8 538.636 433.92 538.396L434.52 537.556 435 534.796 434.28 534.556 433.68 537.196 433.2 537.556 434.64 532.156 435.96 530.236 435.36 529.516 433.08 532.516 432.48 534.076 431.28 531.916 430.68 528.916Z" fill="#ffffff" fill-rule="evenodd"/><path transform="matrix(1,0,0,-1,0,595.276)" d="M420.12 534.316H423.84L424.32 539.716C424.32 539.836 424.2 539.956 424.2 540.196 424.2 540.316 424.08 540.436 423.96 540.556 423.72 540.796 423.48 540.916 423.24 540.916 423 540.916 422.64 540.796 422.4 540.556 422.28 540.316 422.16 540.076 422.16 539.716 422.16 539.476 422.28 539.236 422.52 538.996 422.64 538.876 422.76 538.876 422.88 538.756 423.12 538.756 423.24 538.756 423.36 538.756L423.24 536.836H420.48V535.876H423.12V535.276H419.52L418.08 532.036 417.12 532.516 416.88 531.916 418.68 531.196 420.12 534.316Z" fill="#ffffff" fill-rule="evenodd"/><path transform="matrix(1,0,0,-1,0,595.276)" d="M424.44 535.396C425.04 534.916 425.52 534.076 425.4 533.116 425.28 532.036 424.56 531.316 423.96 531.076 423.24 530.716 422.28 530.596 421.44 531.196 420.96 531.436 420.72 531.796 420.48 532.156 420.36 532.636 420.24 532.996 420.24 533.356L419.64 532.036C419.76 531.556 420.12 531.076 420.48 530.716 420.96 530.356 421.44 530.116 422.04 529.996 422.64 529.876 423.24 529.876 423.84 529.996 424.32 530.236 424.8 530.476 425.16 530.836 425.52 531.076 425.76 531.556 426 532.036 426.24 532.516 426.36 533.116 426.24 533.716 426.12 534.316 426 534.916 425.64 535.396 425.52 535.636 425.28 535.756 425.04 535.996 425.04 535.996 424.92 536.116 424.8 536.236 424.68 536.236 424.68 536.236 424.68 536.356H424.56 424.44V535.396Z" fill="#ffffff" fill-rule="evenodd"/><path transform="matrix(1,0,0,-1,0,595.276)" d="M406.56 528.556C408.72 528.556 410.76 529.276 412.32 530.596 413.88 531.796 414.72 533.596 414.72 535.396 414.72 537.196 413.88 538.876 412.32 540.196 410.76 541.516 408.72 542.236 406.56 542.236 404.4 542.236 402.24 541.516 400.68 540.196 399.12 538.876 398.28 537.196 398.28 535.396 398.28 533.596 399.12 531.796 400.68 530.596 402.24 529.276 404.4 528.556 406.56 528.556Z" fill="#ff0000" fill-rule="evenodd"/><path transform="matrix(1,0,0,-1,0,595.276)" stroke-width=".12" stroke-linecap="butt" stroke-miterlimit="10" stroke-linejoin="miter" fill="none" stroke="#ffffff" d="M402.5 531.5V531.5"/><path transform="matrix(1,0,0,-1,0,595.276)" stroke-width=".12" stroke-linecap="butt" stroke-miterlimit="10" stroke-linejoin="miter" fill="none" stroke="#ffffff" d="M402.5 539.5V539.5"/><path transform="matrix(1,0,0,-1,0,595.276)" d="M410.64 531.076C410.52 531.916 410.28 532.876 409.56 533.596 408.84 534.316 408 534.676 407.16 534.796V535.996C408 536.116 408.84 536.476 409.56 537.196 410.28 537.916 410.52 538.756 410.64 539.716H409.2C409.08 538.516 408.24 537.556 407.16 537.436V539.956H405.84V537.436C405.36 537.436 404.88 537.796 404.52 538.156 404.04 538.636 403.92 539.116 403.8 539.716H402.36C402.48 538.756 402.84 537.916 403.44 537.196 404.16 536.476 405 536.116 405.84 535.996V534.796C405 534.676 404.16 534.316 403.44 533.596 403.2 533.236 402.84 532.876 402.72 532.396 402.48 531.916 402.48 531.556 402.36 531.076H403.8C403.92 531.676 404.04 532.156 404.52 532.636 404.88 533.116 405.36 533.356 405.84 533.476V530.836H407.16V533.476C408.24 533.236 409.08 532.276 409.2 531.076H410.64Z" fill="#ffffff" fill-rule="evenodd"/><path transform="matrix(1,0,0,-1,0,595.276)" d="M410.64 539.716V539.716Z" fill="#ffffff" fill-rule="evenodd"/><path transform="matrix(1,0,0,-1,0,595.276)" d="M403.8 539.716V539.716Z" fill="#ffffff" fill-rule="evenodd"/><path transform="matrix(1,0,0,-1,0,595.276)" d="M403.8 531.076V531.076Z" fill="#ffffff" fill-rule="evenodd"/><path transform="matrix(1,0,0,-1,0,595.276)" d="M405.84 530.836V530.836Z" fill="#ffffff" fill-rule="evenodd"/><path transform="matrix(1,0,0,-1,0,595.276)" d="M407.16 530.836V530.836Z" fill="#ffffff" fill-rule="evenodd"/><path transform="matrix(1,0,0,-1,0,595.276)" d="M410.64 531.076V531.076Z" fill="#ffffff" fill-rule="evenodd"/><path transform="matrix(1,0,0,-1,0,595.276)" d="M396.96 542.836 392.64 535.396 396.96 527.956H392.88L388.56 535.396 392.88 542.836Z" fill="#ffffff" fill-rule="evenodd"/><path transform="matrix(1,0,0,-1,0,595.276)" stroke-width=".12" stroke-linecap="round" stroke-linejoin="round" fill="none" stroke="#0000ff" d="M392.28 545.836H437.04C438.48 545.836 439.56 544.756 439.56 543.316V527.356C439.56 526.036 438.48 524.956 437.04 524.956H392.28C391.44 524.956 390.6 525.436 390.12 526.156L385.2 534.796C384.96 535.156 384.96 535.636 385.2 535.996L390.12 544.636C390.6 545.356 391.44 545.836 392.28 545.836"/></g></svg>