<?xml version='1.0' encoding='UTF-8'?>
<svg width="189.19" height="255.79" viewBox="175.85 7.46 189.19 255.79" xmlns="http://www.w3.org/2000/svg" xmlns:xlink="http://www.w3.org/1999/xlink" xmlns:inkscape="http://www.inkscape.org/namespaces/inkscape" version="1.1"><g transform="scale(10.0) translate(-220.305, -424.224)"><defs><clipPath id="clip_2"><path transform="matrix(1,0,0,-1,0,595.276)" d="M74.4 .196H767.4V595.276H74.4Z"/></clipPath></defs><path transform="matrix(.12,0,0,.12,0,0)" stroke-width="1" stroke-linecap="butt" stroke-dasharray="47,24" stroke-linejoin="round" fill="none" stroke="#000000" d="M2052 3581C2052 3564 2039 3551 2022 3551 2006 3551 1992 3564 1992 3581 1992 3597 2006 3611 2022 3611 2039 3611 2052 3597 2052 3581"/><path transform="matrix(.12,0,0,.12,0,0)" stroke-width="1" stroke-linecap="butt" stroke-dasharray="47,24" stroke-linejoin="round" fill="none" stroke="#000000" d="M2052 3648C2052 3631 2039 3618 2022 3618 2006 3618 1992 3631 1992 3648 1992 3664 2006 3677 2022 3677 2039 3677 2052 3664 2052 3648"/><path transform="matrix(.12,0,0,.12,0,0)" stroke-width="1" stroke-linecap="butt" stroke-dasharray="47,24" stroke-linejoin="round" fill="none" stroke="#000000" d="M2059 3544H1985"/><path transform="matrix(1,0,0,-1,0,595.276)" stroke-width=".12" stroke-linecap="butt" stroke-miterlimit="10" stroke-linejoin="miter" fill="none" stroke="#000000" d="M256.5 153.5H248.5"/><path transform="matrix(.12,0,0,.12,0,0)" stroke-width="1" stroke-linecap="butt" stroke-dasharray="47,24" stroke-linejoin="round" fill="none" stroke="#000000" d="M2059 3544V3752"/><path transform="matrix(.12,0,0,.12,0,0)" stroke-width="1" stroke-linecap="butt" stroke-dasharray="47,24" stroke-linejoin="round" fill="none" stroke="#000000" d="M1985 3544V3752"/><path transform="matrix(1,0,0,-1,0,595.276)" stroke-width=".12" stroke-linecap="butt" stroke-miterlimit="10" stroke-linejoin="miter" fill="none" stroke="#000000" d="M256.5 153.5V145.5"/><path transform="matrix(1,0,0,-1,0,595.276)" stroke-width=".12" stroke-linecap="butt" stroke-miterlimit="10" stroke-linejoin="miter" fill="none" stroke="#000000" d="M256.5 145.5H248.5"/><path transform="matrix(.12,0,0,.12,0,0)" stroke-width="1" stroke-linecap="butt" stroke-dasharray="47,24" stroke-linejoin="round" fill="none" stroke="#000000" d="M2059 3752H1985"/><path transform="matrix(1,0,0,-1,0,595.276)" stroke-width=".12" stroke-linecap="butt" stroke-miterlimit="10" stroke-linejoin="miter" fill="none" stroke="#000000" d="M248.5 153.5V145.5"/><path transform="matrix(1,0,0,-1,0,595.276)" d="M248.16 145.036C248.16 145.156 248.16 145.156 248.04 145.156V145.036H248.16Z" fill-rule="evenodd"/><path transform="matrix(1,0,0,-1,0,595.276)" stroke-width=".12" stroke-linecap="round" stroke-linejoin="round" fill="none" stroke="#000000" d="M248.64 149.236C248.64 147.196 250.32 145.636 252.24 145.636 254.16 145.636 255.84 147.196 255.84 149.236 255.84 151.156 254.16 152.836 252.24 152.836 250.32 152.836 248.64 151.156 248.64 149.236"/><path transform="matrix(1,0,0,-1,0,595.276)" stroke-width=".12" stroke-linecap="round" stroke-linejoin="round" fill="none" stroke="#000000" d="M246.24 149.476C246.24 151.516 244.68 153.076 242.64 153.076 240.72 153.076 239.04 151.516 239.04 149.476 239.04 147.556 240.72 145.996 242.64 145.996 244.68 145.996 246.24 147.556 246.24 149.476"/><path transform="matrix(1,0,0,-1,0,595.276)" d="M252.6 149.716H249.48V148.636H252.6Z" fill="#00ff00" fill-rule="evenodd"/><path transform="matrix(1,0,0,-1,0,595.276)" d="M253.56 149.236 251.04 151.756H252.6L255.12 149.236 252.6 146.716H251.04Z" fill="#00ff00" fill-rule="evenodd"/><path transform="matrix(1,0,0,-1,0,595.276)" d="M242.28 150.076H245.4V148.996H242.28Z" fill="#00ff00" fill-rule="evenodd"/><path transform="matrix(1,0,0,-1,0,595.276)" d="M241.32 149.476 243.84 151.996H242.28L239.76 149.476 242.28 147.076H243.84Z" fill="#00ff00" fill-rule="evenodd"/></g></svg>