<?xml version='1.0' encoding='UTF-8'?>
<svg width="547.10" height="243.50" viewBox="9.92 14.21 547.10 243.50" xmlns="http://www.w3.org/2000/svg" xmlns:xlink="http://www.w3.org/1999/xlink" xmlns:inkscape="http://www.inkscape.org/namespaces/inkscape" version="1.1"><g transform="scale(10.0) translate(-438.573, -20.304)"><defs><clipPath id="clip_2"><path transform="matrix(1,0,0,-1,0,595.276)" d="M74.4 .196H767.4V595.276H74.4Z"/></clipPath></defs><path transform="matrix(1,0,0,-1,0,595.276)" d="M491.16 572.956H442.56C441.96 572.956 441.36 572.716 440.88 572.236 440.4 571.756 440.16 571.036 440.16 570.436V552.196C440.16 551.596 440.4 550.996 440.88 550.516 441.36 550.036 441.96 549.796 442.56 549.796H491.16C491.52 549.796 491.76 549.796 492.12 549.916 492.36 550.036 492.72 550.276 492.96 550.516 493.2 550.756 493.32 550.996 493.44 551.356 493.56 551.476 493.56 551.596 493.56 551.836L493.68 551.956C493.68 552.076 493.68 552.196 493.68 552.196V570.436C493.68 571.036 493.44 571.756 492.96 572.236 492.36 572.716 491.76 572.956 491.16 572.956Z" fill="#ffffff" fill-rule="evenodd"/><path transform="matrix(1,0,0,-1,0,595.276)" d="M491.16 571.756H442.56C441.96 571.756 441.36 571.156 441.36 570.436V552.196C441.36 551.956 441.48 551.596 441.72 551.356 441.84 551.236 441.96 551.116 442.2 551.116 442.32 550.996 442.44 550.996 442.56 550.996H491.16C491.52 550.996 491.76 551.116 492 551.356 492.24 551.596 492.36 551.956 492.36 552.196V570.436C492.36 570.796 492.24 571.036 492 571.396 491.76 571.636 491.52 571.756 491.16 571.756Z" fill="#0000ff" fill-rule="evenodd"/><path transform="matrix(1,0,0,-1,0,595.276)" d="M447 564.676H447.96L446.28 567.436 447.84 569.236H446.88L445.08 567.196V569.236H444.24V564.676H445.08V566.116L445.68 566.836Z" fill="#ffffff" fill-rule="evenodd"/><path transform="matrix(1,0,0,-1,0,595.276)" d="M448.8 564.676H451.8V565.396H449.52V566.596H451.56V567.316H449.52V568.516H451.68V569.236H448.8Z" fill="#ffffff" fill-rule="evenodd"/><path transform="matrix(1,0,0,-1,0,595.276)" d="M453.12 564.676H456.24V565.396H453.96V566.596H455.88V567.316H453.96V568.516H456.12V569.236H453.12Z" fill="#ffffff" fill-rule="evenodd"/><path transform="matrix(1,0,0,-1,0,595.276)" d="M459.48 569.236C460.2 569.236 460.68 568.636 460.68 567.796 460.68 567.436 460.56 567.076 460.32 566.836 460.08 566.476 459.84 566.356 459.48 566.356H458.28V564.676H457.56V569.236H459.48ZM458.28 568.636V567.076H459.24C459.48 567.076 459.6 567.196 459.72 567.316 459.84 567.436 459.96 567.676 459.96 567.796 459.96 568.036 459.84 568.276 459.72 568.396 459.6 568.516 459.48 568.636 459.24 568.636H458.28Z" fill="#ffffff" fill-rule="evenodd"/><path transform="matrix(1,0,0,-1,0,595.276)" stroke-width=".12" stroke-linecap="round" stroke-linejoin="round" fill="none" stroke="#ffffff" d="M463.56 569.236H464.28V564.676H463.56V569.236"/><path transform="matrix(1,0,0,-1,0,595.276)" d="M463.56 564.676H464.28V569.236H463.56Z" fill="#ffffff" fill-rule="evenodd"/><path transform="matrix(1,0,0,-1,0,595.276)" d="M468.96 564.676H469.92V569.236H469.08V565.876L466.8 569.236H465.96V564.676H466.68V568.036Z" fill="#ffffff" fill-rule="evenodd"/><path transform="matrix(1,0,0,-1,0,595.276)" d="M473.16 564.676H475.8V565.396H473.88V569.236H473.16Z" fill="#ffffff" fill-rule="evenodd"/><path transform="matrix(1,0,0,-1,0,595.276)" d="M477.6 569.236 476.16 564.676H476.88L477.12 565.516H479.16L479.4 564.676H480.12L478.68 569.236H477.6ZM478.92 566.116H477.36L478.2 568.516 478.92 566.116Z" fill="#ffffff" fill-rule="evenodd"/><path transform="matrix(1,0,0,-1,0,595.276)" d="M484.2 564.676H485.16V569.236H484.32V565.876L482.16 569.236H481.2V564.676H482.04V568.036Z" fill="#ffffff" fill-rule="evenodd"/><path transform="matrix(1,0,0,-1,0,595.276)" d="M486.72 564.676H489.84V565.396H487.56V566.596H489.48V567.316H487.56V568.516H489.72V569.236H486.72Z" fill="#ffffff" fill-rule="evenodd"/><path transform="matrix(1,0,0,-1,0,595.276)" d="M482.52 559.516 483.6 559.636V560.116H482.64L483 560.356 482.64 560.716 482.28 560.956 481.92 560.596 482.52 559.996H481.44L481.32 560.236V560.476L481.56 560.716 481.44 560.836 480.84 560.956V560.356 559.876L480.24 559.756V559.276H480.96L481.2 558.916 481.44 558.676 480.84 558.316 480.12 558.196 480.48 557.716 481.2 557.956 481.8 558.196 482.28 557.836 482.76 557.716H483.12L483.36 557.836 483.6 558.196 483.72 558.676 483.24 559.036 483.12 558.556 483 558.436 482.88 558.316 482.64 558.436 482.4 558.556 482.76 558.916H483V559.036L482.52 559.516 481.92 558.916 481.8 559.156 481.56 559.396 482.52 559.516Z" fill="#ffffff" fill-rule="evenodd"/><path transform="matrix(1,0,0,-1,0,595.276)" d="M482.16 557.836 481.92 557.356 482.64 556.876 481.56 556.756 481.44 556.996V557.356L481.56 557.476V557.596L481.44 557.716H480.84V557.236L480.96 556.636H480.24V556.036L481.08 556.156 481.2 555.676 481.44 555.316 480.84 555.076 480.24 554.956 480.48 554.476 481.2 554.596 481.8 554.956 482.28 554.596 483 554.356 483.24 554.476 483.48 554.596 483.72 554.836 483.84 555.196 483.36 555.556 483.24 555.196 483.12 555.076 482.88 554.956 482.64 555.076 482.28 555.196 482.88 555.796H483.12L483.24 555.916 483.12 556.036 482.76 556.396 483.6 556.516V556.996L482.64 556.876 483 557.356 482.16 557.836ZM481.68 556.156 482.64 556.396 481.92 555.676 481.8 555.916 481.68 556.156Z" fill="#ffffff" fill-rule="evenodd"/><path transform="matrix(1,0,0,-1,0,595.276)" d="M478.56 561.076 477.84 559.756 477.6 559.876 477.24 559.516 478.32 558.796 477.72 557.716H477.24L477.36 557.236V556.996H477.48L477.6 557.116 478.44 557.236V554.356H479.04V557.356L479.52 557.476V556.996L480.12 557.116 479.88 557.836 479.64 558.556 479.16 558.436 479.28 557.956 478.44 557.836 479.64 559.396 479.76 559.516V559.636L479.64 559.756 479.16 559.996 478.68 559.276 478.32 559.516 479.04 560.476 479.16 560.596V560.836Z" fill="#ffffff" fill-rule="evenodd"/><path transform="matrix(1,0,0,-1,0,595.276)" d="M477.96 556.756H477.48V555.796L477.24 554.956 477.96 554.836 478.08 555.556V556.516L478.2 556.636V556.756Z" fill="#ffffff" fill-rule="evenodd"/><path transform="matrix(1,0,0,-1,0,595.276)" d="M479.64 556.756 479.16 556.636 479.28 555.916V555.076L480 555.316Z" fill="#ffffff" fill-rule="evenodd"/><path transform="matrix(1,0,0,-1,0,595.276)" d="M449.88 560.596V559.876H452.76L452.28 559.036 451.56 558.196 450.72 557.476 449.76 556.756 450.36 556.156 451.08 556.756 451.8 557.356 452.4 557.956 452.88 558.676V554.236H453.72V558.436L453.84 558.556V558.676L453.72 558.796H453.48 453L453.6 559.876H456.6V560.596Z" fill="#ffffff" fill-rule="evenodd"/><path transform="matrix(1,0,0,-1,0,595.276)" d="M456 556.156 456.72 556.516 456.24 557.236 455.76 557.836 455.16 558.436 454.56 559.036 453.96 558.676 455.04 557.476Z" fill="#ffffff" fill-rule="evenodd"/><path transform="matrix(1,0,0,-1,0,595.276)" d="M459.96 558.916 460.44 559.396 459.96 559.876 459.48 560.356 458.88 559.876 459.48 559.396Z" fill="#ffffff" fill-rule="evenodd"/><path transform="matrix(1,0,0,-1,0,595.276)" d="M458.88 555.076 459.24 554.836 459.36 554.716 459.48 554.596 459.6 554.716 459.72 554.836 460.08 555.796 460.68 556.876 460.32 557.476 459.6 556.156Z" fill="#ffffff" fill-rule="evenodd"/><path transform="matrix(1,0,0,-1,0,595.276)" d="M460.08 558.196 460.68 557.716 461.4 558.556V554.236H462V554.716H465.72V555.316H464.04V556.156H465.36V556.756H464.04V557.476H465.36V558.076H464.04V558.916H465.6V559.516H464.04L464.4 560.236 464.52 560.356 464.64 560.476 464.52 560.596H464.28L463.8 560.716 463.2 559.516H461.88L462.48 560.356 462.6 560.476V560.596L462.36 560.716 461.88 560.956 461.52 560.236 461.04 559.516 460.56 558.796 460.08 558.196ZM462 556.756V557.476H463.32V556.756H462ZM462 558.076V558.916H463.32V558.076H462ZM462 555.316V556.156H463.32V555.316H462Z" fill="#ffffff" fill-rule="evenodd"/><path transform="matrix(1,0,0,-1,0,595.276)" d="M468.12 559.276V558.556H468.96V557.356L468 556.996 468.12 556.396 468.24 556.276 468.36 556.156V556.276L468.48 556.396 468.96 556.636V555.196 554.956L468.84 554.836H468.72 468.48 468L468.24 554.116H468.72L469.08 554.236 469.32 554.356 469.44 554.476 469.56 554.716V555.076 556.996L470.28 557.236V557.956L469.56 557.596V558.556H470.4V559.276H469.56V560.596L469.68 560.716 469.8 560.836H469.68L469.44 560.956H468.96V559.276Z" fill="#ffffff" fill-rule="evenodd"/><path transform="matrix(1,0,0,-1,0,595.276)" d="M470.88 559.396V556.636H470.28V555.916H471.96L471.6 555.556 471.12 555.196 470.64 554.956 470.04 554.716 470.52 554.116 471.12 554.356 471.72 554.716 472.2 555.076 472.68 555.676 472.92 555.196 473.28 554.716 473.76 554.476 474.36 554.116 474.96 554.596 474.36 554.956 473.88 555.196 473.52 555.556 473.16 555.916H474.96V556.636H474.6V559.396H473.28L474.12 560.356 473.52 560.836 473.4 560.596H472.32L472.44 560.716H472.56 472.68V560.836L472.56 560.956 471.96 561.196 471.48 560.716 471 560.356 470.52 559.996 470.04 559.636 470.64 559.276 470.88 559.396 471.84 560.116H473.04L472.44 559.396H470.88ZM471.48 557.716V558.916H471.96V558.436L471.84 558.196 471.72 557.836 471.48 557.716ZM473.4 558.076V558.916H474V558.076H473.4ZM471.48 556.636V557.356L471.72 557.236 472.08 557.476 472.32 557.836 472.44 558.316 472.56 558.916H472.92V557.836 557.716L473.04 557.596V557.476H473.28 474V556.636H473.04V556.876H473.16L473.28 556.996 473.16 557.116H473.04L472.32 557.236V556.876L472.2 556.636H471.48Z" fill="#ffffff" fill-rule="evenodd"/><path transform="matrix(1,0,0,-1,0,595.276)" stroke-width=".12" stroke-linecap="round" stroke-linejoin="round" fill="none" stroke="#0000ff" d="M493.68 552.196V570.436C493.68 571.876 492.48 572.956 491.16 572.956H442.56C441.24 572.956 440.16 571.876 440.16 570.436V552.196C440.16 550.876 441.24 549.796 442.56 549.796H491.16C492.48 549.796 493.68 550.876 493.68 552.196"/></g></svg>