<?xml version='1.0' encoding='UTF-8'?>
<svg width="556.90" height="184.90" viewBox="4.60 43.39 556.90 184.90" xmlns="http://www.w3.org/2000/svg" xmlns:xlink="http://www.w3.org/1999/xlink" xmlns:inkscape="http://www.inkscape.org/namespaces/inkscape" version="1.1"><g transform="scale(10.0) translate(-493.095, -262.656)"><path transform="matrix(1,0,0,-1,0,595.276)" d="M496.2 327.676H546.6C546.84 327.676 547.08 327.676 547.32 327.556 547.56 327.436 547.8 327.316 548.04 327.076 548.16 326.836 548.4 326.596 548.4 326.356 548.52 326.116 548.64 325.876 548.64 325.636V312.436C548.64 311.956 548.4 311.356 548.04 310.996 547.8 310.756 547.56 310.636 547.32 310.516 547.08 310.396 546.84 310.396 546.6 310.396H496.2C495.72 310.396 495.12 310.636 494.76 310.996 494.28 311.356 494.16 311.956 494.16 312.436V325.636C494.16 326.716 495 327.676 496.2 327.676Z" fill="#ffffff" fill-rule="evenodd"/><path transform="matrix(1,0,0,-1,0,595.276)" d="M546.6 326.716H496.2C495.96 326.716 495.6 326.596 495.48 326.356 495.24 326.116 495.12 325.876 495.12 325.636V312.436C495.12 312.316 495.12 312.196 495.24 312.076 495.24 311.956 495.36 311.836 495.48 311.716 495.6 311.596 495.72 311.596 495.84 311.476 495.96 311.476 496.08 311.476 496.2 311.476H546.6C546.84 311.476 547.08 311.476 547.32 311.716 547.44 311.956 547.56 312.196 547.56 312.436V325.636C547.56 326.236 547.08 326.716 546.6 326.716Z" fill="#0000ff" fill-rule="evenodd"/><path transform="matrix(1,0,0,-1,0,595.276)" d="M498.96 313.756H500.76V320.836L502.44 319.036V321.676L499.8 324.316 497.16 321.676V319.036L498.96 320.836Z" fill="#ffffff" fill-rule="evenodd"/><path transform="matrix(1,0,0,-1,0,595.276)" d="M504.12 320.236H505.2V320.476H504.48V322.036H504.12Z" fill="#ffffff" fill-rule="evenodd"/><path transform="matrix(1,0,0,-1,0,595.276)" d="M505.8 320.236V321.556H505.44V320.236Z" fill="#ffffff" fill-rule="evenodd"/><path transform="matrix(1,0,0,-1,0,595.276)" d="M505.8 321.916C505.8 322.036 505.68 322.156 505.56 322.156 505.56 322.156 505.44 322.036 505.44 321.916 505.44 321.796 505.56 321.796 505.56 321.796 505.68 321.796 505.8 321.796 505.8 321.916Z" fill="#ffffff" fill-rule="evenodd"/><path transform="matrix(1,0,0,-1,0,595.276)" d="M506.76 320.356C506.76 320.356 506.52 320.356 506.4 320.356 506.28 320.476 506.16 320.596 506.16 320.956 506.16 321.196 506.28 321.436 506.4 321.436 506.52 321.556 506.76 321.556 506.76 321.556H506.88C506.88 321.556 507 321.556 507 321.436V321.556H507.24V320.116C507.24 319.876 507 319.756 506.76 319.756 506.52 319.756 506.4 319.756 506.16 319.876L506.28 320.116C506.4 320.116 506.52 319.996 506.64 319.996 506.88 319.996 506.88 320.116 507 320.116V320.236 320.356H506.88 506.76ZM506.76 321.316C506.76 321.316 506.4 321.316 506.4 320.956 506.4 320.716 506.52 320.716 506.52 320.596 506.64 320.596 506.76 320.596 506.76 320.596 506.76 320.596 507 320.596 507 320.956 507 321.076 506.88 321.196 506.88 321.196L506.76 321.316Z" fill="#ffffff" fill-rule="evenodd"/><path transform="matrix(1,0,0,-1,0,595.276)" d="M508.56 321.076V320.236H508.8V321.076C508.8 321.196 508.8 321.316 508.68 321.316 508.68 321.436 508.56 321.556 508.56 321.556 508.44 321.556 508.32 321.556 508.2 321.556 508.2 321.556 508.08 321.556 507.96 321.436V322.036H507.72V320.236H507.96V321.076L508.08 321.196C508.08 321.316 508.2 321.316 508.2 321.316 508.32 321.316 508.44 321.316 508.44 321.196L508.56 321.076Z" fill="#ffffff" fill-rule="evenodd"/><path transform="matrix(1,0,0,-1,0,595.276)" d="M509.64 320.476H509.76 509.88L510 320.236C509.88 320.236 509.64 320.116 509.52 320.236 509.52 320.236 509.4 320.236 509.4 320.356L509.28 320.476V321.316H509.04V321.556H509.28V321.916L509.64 322.036V321.556H510V321.316H509.64V320.476Z" fill="#ffffff" fill-rule="evenodd"/><path transform="matrix(1,0,0,-1,0,595.276)" stroke-width=".12" stroke-linecap="butt" stroke-miterlimit="10" stroke-linejoin="miter" fill="none" stroke="#ffffff" d="M511.5 320.5V322.5"/><path transform="matrix(1,0,0,-1,0,595.276)" d="M511.08 320.236H511.44V320.956H511.68L512.04 320.236H512.4L512.04 320.956C512.16 320.956 512.28 321.076 512.28 321.196 512.4 321.316 512.4 321.436 512.4 321.556 512.4 321.916 512.16 322.036 511.92 322.036H511.08V320.236ZM511.44 321.196V321.796H511.8C511.92 321.796 512.04 321.676 512.04 321.556 512.04 321.436 512.04 321.316 512.04 321.316 511.92 321.196 511.92 321.196 511.8 321.196H511.44Z" fill="#ffffff" fill-rule="evenodd"/><path transform="matrix(1,0,0,-1,0,595.276)" d="M512.76 321.436 512.88 321.196 513.12 321.316H513.24 513.36C513.48 321.316 513.48 321.316 513.48 321.196H513.6V321.076H513.36C513.24 321.076 513.24 321.076 513.24 320.956 513.12 320.956 513.12 320.956 513 320.956 512.88 320.956 512.88 320.956 512.76 320.836 512.76 320.836 512.76 320.716 512.76 320.596 512.76 320.476 512.76 320.476 512.76 320.356 512.88 320.356 512.88 320.236 513 320.236H513.12C513.24 320.236 513.36 320.236 513.36 320.236 513.48 320.236 513.6 320.236 513.6 320.356 513.6 320.236 513.6 320.236 513.72 320.236H513.84L513.96 320.356 513.84 320.476V320.956C513.84 321.076 513.84 321.196 513.84 321.196 513.84 321.316 513.84 321.316 513.72 321.436L513.6 321.556C513.48 321.556 513.36 321.556 513.24 321.556 513.24 321.556 513.12 321.556 513 321.556L512.88 321.436H512.76ZM513.24 320.356 513.12 320.476C513 320.476 513 320.476 513 320.596V320.716H513.12 513.24C513.24 320.836 513.36 320.836 513.36 320.836 513.48 320.836 513.48 320.836 513.6 320.836V320.596L513.48 320.476C513.48 320.476 513.36 320.476 513.36 320.356H513.24Z" fill="#ffffff" fill-rule="evenodd"/><path transform="matrix(1,0,0,-1,0,595.276)" d="M512.76 321.436V321.436Z" fill="#ffffff" fill-rule="evenodd"/><path transform="matrix(1,0,0,-1,0,595.276)" d="M514.56 320.236V321.556H514.32V320.236Z" fill="#ffffff" fill-rule="evenodd"/><path transform="matrix(1,0,0,-1,0,595.276)" d="M514.68 321.916C514.68 322.036 514.56 322.156 514.44 322.156 514.32 322.156 514.32 322.036 514.32 321.916 514.32 321.796 514.32 321.796 514.44 321.796 514.56 321.796 514.68 321.796 514.68 321.916Z" fill="#ffffff" fill-rule="evenodd"/><path transform="matrix(1,0,0,-1,0,595.276)" stroke-width=".12" stroke-linecap="butt" stroke-miterlimit="10" stroke-linejoin="miter" fill="none" stroke="#ffffff" d="M515.5 320.5V320.5"/><path transform="matrix(1,0,0,-1,0,595.276)" d="M515.4 320.476V320.476H515.52 515.64V320.236C515.52 320.236 515.4 320.236 515.28 320.236H515.16C515.04 320.356 515.04 320.356 515.04 320.476V322.036H515.4V320.476Z" fill="#ffffff" fill-rule="evenodd"/><path transform="matrix(1,0,0,-1,0,595.276)" stroke-width=".12" stroke-linecap="butt" stroke-miterlimit="10" stroke-linejoin="miter" fill="none" stroke="#ffffff" d="M517.5 320.5V320.5"/><path transform="matrix(1,0,0,-1,0,595.276)" d="M517.68 321.556 518.04 321.796C517.8 322.036 517.56 322.156 517.32 322.156 517.08 322.156 516.96 322.036 516.84 321.916 516.72 321.796 516.6 321.676 516.6 321.556 516.6 321.436 516.72 321.196 516.84 321.196 516.84 321.196 516.84 321.076 516.96 321.076 517.08 321.076 517.2 321.076 517.32 321.076 517.44 320.956 517.56 320.956 517.68 320.836 517.68 320.836 517.68 320.716 517.68 320.596 517.68 320.476 517.44 320.476 517.32 320.476 517.2 320.476 516.96 320.596 516.84 320.716L516.6 320.476C516.6 320.476 516.72 320.356 516.84 320.356 516.96 320.236 517.08 320.236 517.32 320.236 517.56 320.236 517.68 320.236 517.8 320.356 517.92 320.476 518.04 320.596 518.04 320.716V320.836C518.04 320.956 517.92 321.076 517.8 321.196H517.68L517.56 321.316H517.2C517.08 321.316 517.08 321.316 517.08 321.436 516.96 321.436 516.96 321.436 516.96 321.556 516.96 321.676 516.96 321.676 517.08 321.796 517.08 321.796 517.2 321.796 517.32 321.796 517.44 321.796 517.56 321.796 517.68 321.556Z" fill="#ffffff" fill-rule="evenodd"/><path transform="matrix(1,0,0,-1,0,595.276)" d="M518.88 320.476V320.476H519 519.12V320.236C519 320.236 518.88 320.116 518.76 320.236 518.64 320.236 518.64 320.236 518.52 320.356V320.476 321.316H518.28V321.556H518.52V321.916L518.88 322.036V321.556H519.12V321.316H518.88V320.476Z" fill="#ffffff" fill-rule="evenodd"/><path transform="matrix(1,0,0,-1,0,595.276)" d="M519.36 320.836C519.36 320.716 519.48 320.596 519.6 320.356 519.72 320.236 519.84 320.236 520.08 320.236 520.2 320.236 520.44 320.236 520.56 320.356 520.68 320.596 520.68 320.716 520.68 320.836 520.68 321.076 520.68 321.196 520.56 321.316 520.44 321.556 520.2 321.556 520.08 321.556 519.84 321.556 519.72 321.556 519.6 321.316 519.48 321.196 519.36 321.076 519.36 320.836ZM520.08 321.316C520.08 321.316 520.2 321.196 520.32 321.196 520.32 321.076 520.44 320.956 520.44 320.836 520.44 320.836 520.32 320.716 520.32 320.596 520.2 320.476 520.08 320.476 520.08 320.476 519.96 320.476 519.84 320.476 519.84 320.596 519.72 320.716 519.72 320.836 519.72 320.836 519.72 320.956 519.72 321.076 519.84 321.196 519.84 321.196 519.96 321.316 520.08 321.316Z" fill="#ffffff" fill-rule="evenodd"/><path transform="matrix(1,0,0,-1,0,595.276)" stroke-width=".12" stroke-linecap="butt" stroke-miterlimit="10" stroke-linejoin="miter" fill="none" stroke="#ffffff" d="M521.5 321.5V321.5"/><path transform="matrix(1,0,0,-1,0,595.276)" d="M521.4 321.436C521.52 321.556 521.76 321.556 522 321.436 522.24 321.316 522.24 321.076 522.24 320.836 522.24 320.716 522.24 320.476 522 320.236 521.88 320.236 521.76 320.116 521.64 320.116 521.52 320.116 521.52 320.236 521.4 320.236V319.756H521.04V321.556H521.4V321.436ZM521.4 321.196V321.076 320.956 320.716C521.4 320.596 521.4 320.596 521.52 320.476H521.64C521.76 320.476 521.88 320.476 521.88 320.596 522 320.716 522 320.956 521.88 321.196 521.88 321.196 521.76 321.316 521.64 321.316 521.52 321.316 521.52 321.196 521.4 321.196Z" fill="#ffffff" fill-rule="evenodd"/><path transform="matrix(1,0,0,-1,0,595.276)" d="M530.64 313.396C532.44 313.396 534.24 313.996 535.56 315.076 536.76 316.156 537.48 317.596 537.48 319.036 537.48 320.596 536.76 322.036 535.56 322.996 534.24 324.076 532.44 324.676 530.64 324.676 528.84 324.676 527.16 324.076 525.84 322.996 524.64 322.036 523.92 320.596 523.92 319.036 523.92 317.596 524.64 316.156 525.84 315.076 527.16 313.996 528.84 313.396 530.64 313.396Z" fill="#ff0000" fill-rule="evenodd"/><path transform="matrix(1,0,0,-1,0,595.276)" d="M541.2 323.476C541.2 322.996 541.56 322.636 542.04 322.636 542.52 322.636 542.88 322.996 542.88 323.476 542.88 323.956 542.52 324.316 542.04 324.316 541.56 324.316 541.2 323.956 541.2 323.476Z" fill="#ffffff" fill-rule="evenodd"/><path transform="matrix(1,0,0,-1,0,595.276)" d="M540.96 313.756H540.24L540.36 316.036 541.32 318.676 541.2 320.356 540.84 319.996 539.52 318.916 539.28 319.396 540.36 320.356 540.72 321.316C540.96 321.916 541.44 322.276 542.04 322.276 542.64 322.396 543.24 322.036 543.6 321.556L544.08 320.836 544.44 318.556 543.96 318.436 543.36 320.476 543 320.836 544.2 316.396 545.28 314.716 544.68 314.236 542.88 316.636 542.4 317.956 541.32 316.156 540.96 313.756Z" fill="#ffffff" fill-rule="evenodd"/><path transform="matrix(1,0,0,-1,0,595.276)" d="M527.28 315.436C527.28 316.156 527.64 316.996 528.12 317.596 528.48 317.836 528.72 318.076 529.08 318.196 529.44 318.436 529.8 318.556 530.16 318.556V319.516C529.44 319.636 528.72 319.996 528.12 320.596 527.88 320.836 527.64 321.196 527.52 321.556 527.4 321.916 527.28 322.276 527.28 322.636H528.48C528.48 322.156 528.72 321.676 528.96 321.316 529.32 320.956 529.68 320.836 530.16 320.716V322.876H531.24V320.716C531.6 320.836 532.08 320.956 532.44 321.316 532.68 321.676 532.92 322.156 532.92 322.636H534.12C534.12 322.276 534 321.916 533.88 321.556 533.76 321.196 533.52 320.836 533.16 320.596 532.92 320.236 532.68 319.996 532.32 319.876 531.96 319.636 531.6 319.516 531.24 319.516V318.556C531.96 318.436 532.68 318.196 533.16 317.596 533.52 317.236 533.76 316.876 533.88 316.516 533.88 316.396 534 316.156 534 316.036 534.12 315.796 534.12 315.676 534.12 315.436H532.92C532.92 315.916 532.68 316.396 532.44 316.756 532.08 317.116 531.6 317.356 531.24 317.476V315.316H530.16V317.476C529.68 317.356 529.32 317.116 528.96 316.756 528.72 316.396 528.48 315.916 528.48 315.436H527.28Z" fill="#ffffff" fill-rule="evenodd"/><path transform="matrix(1,0,0,-1,0,595.276)" stroke-width=".12" stroke-linecap="round" stroke-linejoin="round" fill="none" stroke="#0000ff" d="M496.2 327.676H546.6C547.68 327.676 548.64 326.716 548.64 325.636V312.436C548.64 311.356 547.68 310.396 546.6 310.396H496.2C495 310.396 494.16 311.356 494.16 312.436V325.636C494.16 326.716 495 327.676 496.2 327.676"/><path transform="matrix(1,0,0,-1,0,595.276)" d="M506.28 318.436V318.196H506.76V317.956H506.28V316.876H506.76V316.636H506.28V316.396H506.76V316.036H507V316.396H507.48V316.636H507V316.876H507.48V317.956H507V318.196H507.48V318.436H507V318.556L507.12 318.676H507 506.88 506.76V318.436H506.28ZM506.52 317.596V317.716H506.76V317.596H506.52ZM507 317.596V317.716H507.24V317.596H507ZM506.52 317.116V317.356H506.76V317.116H506.52ZM507 317.116V317.356H507.24V317.116H507Z" fill="#ffffff" fill-rule="evenodd"/><path transform="matrix(1,0,0,-1,0,595.276)" d="M507.6 318.556V318.316H508.92V318.556Z" fill="#ffffff" fill-rule="evenodd"/><path transform="matrix(1,0,0,-1,0,595.276)" d="M508.2 318.196 507.96 317.716 508.08 317.476 508.2 317.236H508.44L508.32 317.476 508.2 317.716 508.44 318.076V318.196Z" fill="#ffffff" fill-rule="evenodd"/><path transform="matrix(1,0,0,-1,0,595.276)" d="M507.6 317.116V316.876H508.2V316.276H507.48V316.036H509.04V316.276H508.44V316.876H508.92V317.116Z" fill="#ffffff" fill-rule="evenodd"/><path transform="matrix(1,0,0,-1,0,595.276)" d="M507.72 318.196 507.48 317.716 507.6 317.476 507.72 317.236H507.96L507.84 317.476 507.72 317.716 507.96 318.076H508.08L507.96 318.196Z" fill="#ffffff" fill-rule="evenodd"/><path transform="matrix(1,0,0,-1,0,595.276)" d="M508.68 318.196 508.44 317.716 508.56 317.476 508.68 317.236 508.92 317.356 508.8 317.476 508.68 317.716 508.92 318.076Z" fill="#ffffff" fill-rule="evenodd"/><path transform="matrix(1,0,0,-1,0,595.276)" d="M509.76 318.076 510 317.836V317.956 317.716H510.24V317.476H510V317.236H510.24V316.396L509.88 316.276 510 316.156V316.036H510.12L510.84 316.276V316.516L510.6 316.396V316.636L510.72 316.516 510.84 316.876V316.996L510.6 317.116V316.636 317.236H510.84V317.476H510.6V317.716H510.72V317.956H510.12L510.48 318.436 510.6 318.076 510.84 318.316 510.6 318.556 510.72 318.676H510.6L510.36 318.796 510.24 318.556 510.12 318.436 510 318.196Z" fill="#ffffff" fill-rule="evenodd"/><path transform="matrix(1,0,0,-1,0,595.276)" d="M510 316.516H510.24L510.12 317.116 509.88 316.996Z" fill="#ffffff" fill-rule="evenodd"/><path transform="matrix(1,0,0,-1,0,595.276)" d="M510.84 318.556V318.316H511.2V318.076H510.84V317.956H511.92V317.476 317.116 316.876L512.04 316.636 511.92 316.516 511.8 316.396H511.44V316.636H511.8V316.756H511.44V316.876H511.8V317.116H510.96V316.876H511.2V316.756H510.96V316.636H511.2V316.396H510.84V316.276H511.68L511.8 316.036 512.16 316.276V316.156H512.28L512.4 316.036H512.52L512.64 316.156V316.276L512.76 316.396 512.52 316.636V316.396H512.4V316.516L512.28 316.636 512.52 317.476H512.64V317.596H512.52 512.4L512.28 317.236 512.16 316.996V317.356 317.956H512.64V318.076H512.16V318.556 318.676H512.04L511.92 318.796V318.076H511.44V318.316H511.8V318.556H511.44L511.56 318.676H511.44 511.2V318.556Z" fill="#ffffff" fill-rule="evenodd"/><path transform="matrix(1,0,0,-1,0,595.276)" d="M510.84 317.716V317.236H511.8V317.716H510.84ZM511.08 317.476V317.596H511.56V317.476H511.08Z" fill="#ffffff" fill-rule="evenodd"/><path transform="matrix(1,0,0,-1,0,595.276)" d="M512.52 318.076 512.64 318.316 512.4 318.556 512.16 318.436 512.4 318.316Z" fill="#ffffff" fill-rule="evenodd"/><path transform="matrix(1,0,0,-1,0,595.276)" d="M513.72 318.436V318.196H514.8V318.076H514.08V316.876H514.8V316.636H513.6V316.396H514.8V316.036H515.04V316.396H516.24V316.636H515.04V316.876H515.88V318.076H515.04V318.196H516.12V318.436H515.04V318.676H515.16L515.04 318.796H514.8V318.436H513.72ZM514.32 317.596V317.836H514.8V317.596H514.32ZM514.32 317.116V317.356H514.8V317.116H514.32ZM515.04 317.596V317.836H515.64V317.596H515.04ZM515.04 317.116V317.356H515.64V317.116H515.04Z" fill="#ffffff" fill-rule="evenodd"/><path transform="matrix(1,0,0,-1,0,595.276)" d="M517.32 318.196V317.956H518.52V318.196H518.04V318.676L517.8 318.796V318.196Z" fill="#ffffff" fill-rule="evenodd"/><path transform="matrix(1,0,0,-1,0,595.276)" d="M517.2 316.516 517.32 316.276V316.156H517.44V316.276L518.4 316.516V316.756L518.16 316.636 518.4 317.596V317.716L518.16 317.836 518.04 317.236 517.92 316.636Z" fill="#ffffff" fill-rule="evenodd"/><path transform="matrix(1,0,0,-1,0,595.276)" d="M517.56 316.756H517.8L517.68 317.356 517.56 317.836 517.32 317.716Z" fill="#ffffff" fill-rule="evenodd"/><path transform="matrix(1,0,0,-1,0,595.276)" d="M518.52 317.476V316.036H518.76V316.276H519.6V316.036H519.84V317.476H519.24V317.956H519.96V318.196H519.24V318.676 318.796H518.88V317.476H518.52ZM518.76 316.516V317.116H519.6V316.516H518.76Z" fill="#ffffff" fill-rule="evenodd"/></g></svg>