<?xml version='1.0' encoding='UTF-8'?>
<svg width="554.45" height="208.85" viewBox="5.53 31.18 554.45 208.85" xmlns="http://www.w3.org/2000/svg" xmlns:xlink="http://www.w3.org/1999/xlink" xmlns:inkscape="http://www.inkscape.org/namespaces/inkscape" version="1.1"><g transform="scale(10.0) translate(-602.205, -343.440)"><path transform="matrix(1,0,0,-1,0,595.276)" d="M605.52 248.116C605.04 248.116 604.44 247.996 603.96 247.516 603.48 247.036 603.36 246.436 603.36 245.956V230.596C603.36 230.116 603.48 229.516 603.96 229.036 604.44 228.676 605.04 228.436 605.52 228.436H655.32C655.92 228.436 656.52 228.676 656.88 229.036 657.12 229.276 657.36 229.516 657.48 229.876 657.48 230.116 657.6 230.356 657.6 230.596V245.956C657.6 246.436 657.36 247.036 656.88 247.516 656.52 247.996 655.92 248.116 655.32 248.116H605.52Z" fill="#ffffff" fill-rule="evenodd"/><path transform="matrix(1,0,0,-1,0,595.276)" d="M604.44 245.956V230.596C604.44 230.476 604.44 230.356 604.56 230.236 604.56 230.116 604.68 229.996 604.8 229.876 604.92 229.756 605.04 229.636 605.16 229.636 605.28 229.516 605.4 229.516 605.52 229.516H655.32C655.68 229.516 655.92 229.636 656.16 229.876 656.4 230.116 656.52 230.356 656.52 230.596V245.956C656.52 246.196 656.4 246.556 656.16 246.676 656.04 246.796 655.92 246.916 655.8 246.916 655.68 247.036 655.44 247.036 655.32 247.036H605.52C604.92 247.036 604.44 246.556 604.44 245.956Z" fill="#0000ff" fill-rule="evenodd"/><path transform="matrix(1,0,0,-1,0,595.276)" d="M651.12 240.676 645.48 235.156 646.92 233.716 652.44 239.356V236.596L654.6 238.636V242.836H650.4L648.36 240.676Z" fill="#ffffff" fill-rule="evenodd"/><path transform="matrix(1,0,0,-1,0,595.276)" stroke-width=".12" stroke-linecap="round" stroke-linejoin="round" fill="none" stroke="#0000ff" d="M605.52 248.116C604.32 248.116 603.36 247.156 603.36 245.956V230.596C603.36 229.396 604.32 228.436 605.52 228.436H655.32C656.64 228.436 657.6 229.396 657.6 230.596V245.956C657.6 247.156 656.64 248.116 655.32 248.116H605.52"/><path transform="matrix(1,0,0,-1,0,595.276)" d="M607.92 244.876 606.6 240.676H607.2L607.44 241.396H609.24L609.48 240.676H610.08L608.76 244.876H607.92ZM609 241.996H607.68L608.28 244.036 609 241.996Z" fill="#ffffff" fill-rule="evenodd"/><path transform="matrix(1,0,0,-1,0,595.276)" d="M610.92 241.156C611.28 240.556 612.24 240.436 612.84 240.916 612.96 240.676 613.32 240.556 613.92 240.676L613.8 241.276C613.68 241.276 613.44 241.276 613.44 241.276 613.44 241.396 613.56 241.516 613.68 241.756 613.8 241.996 613.8 242.236 613.8 242.476H613.2C613.2 242.236 613.08 241.996 612.96 241.876L612.24 242.956 612.6 243.196C612.72 243.436 612.96 243.796 612.84 244.276 612.84 244.636 612.36 244.876 612.12 244.876 611.88 244.876 611.4 244.756 611.16 244.276 610.92 243.796 611.04 243.316 611.28 243.076 610.92 242.836 610.68 242.476 610.68 242.116 610.56 241.996 610.56 241.756 610.68 241.636 610.68 241.396 610.8 241.276 610.92 241.156ZM611.64 242.596 612.48 241.396C612.36 241.276 612.12 241.156 612 241.156 611.76 241.276 611.64 241.396 611.52 241.516 611.28 241.636 611.28 241.876 611.28 242.116 611.4 242.236 611.52 242.476 611.64 242.596ZM611.88 243.556C611.76 243.556 611.76 243.796 611.76 243.916 611.88 244.156 612 244.156 612.12 244.156 612.12 244.156 612.24 244.156 612.24 244.036 612.24 243.916 612.12 243.796 612.12 243.676L611.88 243.556Z" fill="#ffffff" fill-rule="evenodd"/><path transform="matrix(1,0,0,-1,0,595.276)" d="M614.76 240.676H617.52V241.276H615.48V242.476H617.28V243.076H615.48V244.156H617.4V244.876H614.76Z" fill="#ffffff" fill-rule="evenodd"/><path transform="matrix(1,0,0,-1,0,595.276)" d="M644.04 238.276C644.04 239.836 643.44 241.396 642.24 242.476 641.16 243.556 639.72 244.156 638.04 244.156 636.48 244.156 635.04 243.556 633.96 242.476 632.76 241.396 632.16 239.836 632.16 238.276 632.16 236.716 632.76 235.276 633.96 234.076 635.04 232.996 636.48 232.396 638.04 232.396 639.72 232.396 641.16 232.996 642.24 234.076 643.44 235.276 644.04 236.716 644.04 238.276Z" fill="#ffffff" fill-rule="evenodd"/><path transform="matrix(1,0,0,-1,0,595.276)" d="M636.6 233.476H639.6V236.836H642.96V239.716H639.6V243.076H636.6V239.716H633.24V236.836H636.6Z" fill="#ff0000" fill-rule="evenodd"/><path transform="matrix(1,0,0,-1,0,595.276)" d="M607.44 237.076 607.92 236.716 608.4 236.956V236.476H612V236.116H607.56V235.516H612V235.156H608.4V234.676H612.6V235.516H613.2V236.116H612.6V237.076H611.28L612.12 237.796 611.64 238.156H611.52 609.84L609.96 238.276H610.08 610.2L610.08 238.396 609.84 238.516 609.48 238.636 609.12 238.156 608.64 237.796 608.04 237.436 607.44 237.076ZM609.36 237.556H611.04L610.56 237.076H608.64L609 237.316 609.36 237.556Z" fill="#ffffff" fill-rule="evenodd"/><path transform="matrix(1,0,0,-1,0,595.276)" d="M607.32 232.996 607.92 232.636 608.16 233.236 608.4 233.956H608.52L608.64 234.076 608.52 234.196H608.4L608.04 234.436 607.68 233.596Z" fill="#ffffff" fill-rule="evenodd"/><path transform="matrix(1,0,0,-1,0,595.276)" d="M610.8 233.476 611.28 233.716 610.92 234.196 610.56 234.556 610.08 234.196 610.56 233.836Z" fill="#ffffff" fill-rule="evenodd"/><path transform="matrix(1,0,0,-1,0,595.276)" d="M608.88 234.556V233.356L609 232.996 609.12 232.756 609.36 232.636H609.72 611.28 611.52L611.88 232.756 612 232.876 612.12 233.116 612.24 233.476 611.64 233.716V233.476L611.52 233.356 611.4 233.236 611.16 233.116H609.96 609.72L609.6 233.236V233.356 233.476 233.956L609.72 234.196V234.316L609.48 234.436Z" fill="#ffffff" fill-rule="evenodd"/><path transform="matrix(1,0,0,-1,0,595.276)" d="M612.96 232.756 613.44 233.116 612.96 233.836 612.36 234.436 612 234.076 612.48 233.476Z" fill="#ffffff" fill-rule="evenodd"/><path transform="matrix(1,0,0,-1,0,595.276)" d="M616.56 237.916V236.596L615.96 237.196 615.48 236.836 616.32 235.996 616.56 236.236V235.396L615.36 235.036 615.6 234.556 615.72 234.436V234.316L615.84 234.436V234.556L616.56 234.796 616.44 234.196 616.2 233.716 615.96 233.236 615.6 232.876 616.2 232.516 616.68 233.116 616.92 233.836 617.16 234.676V235.516 237.316H621.48V237.916H619.44V238.276L619.56 238.396 619.44 238.516H619.32L618.84 238.636V237.916Z" fill="#ffffff" fill-rule="evenodd"/><path transform="matrix(1,0,0,-1,0,595.276)" d="M617.52 236.716V236.116H619.08V233.236H618.36V235.156L618.48 235.276V235.396H618.36 617.76V233.236H617.04V232.756H621.6V233.236H619.68V234.436H621.12V235.036H619.68V236.116H621.36V236.716Z" fill="#ffffff" fill-rule="evenodd"/><path transform="matrix(1,0,0,-1,0,595.276)" d="M626.4 237.796H623.76V236.356H624.36V237.316H628.92V236.356H629.52V237.796H627V238.276L627.12 238.396 627 238.516H626.88L626.4 238.636Z" fill="#ffffff" fill-rule="evenodd"/><path transform="matrix(1,0,0,-1,0,595.276)" d="M626.4 234.316H624.48V233.716H626.4V233.236H623.76V232.636H629.64V233.236H627V233.716H628.8V234.316H627V235.036L628.32 235.156 628.68 234.676 629.28 235.036 628.68 235.636 627.96 236.236 627.48 235.876 627.72 235.756 627.84 235.516H626.16L626.76 236.236H628.56V236.836H624.84V236.236H626.04L625.32 235.516 624.36 235.396 624.48 235.156V234.916L624.6 234.796H624.72L624.84 234.916 626.4 235.036Z" fill="#ffffff" fill-rule="evenodd"/></g></svg>