<?xml version='1.0' encoding='UTF-8'?>
<svg width="548.33" height="223.13" viewBox="9.25 24.04 548.33 223.13" xmlns="http://www.w3.org/2000/svg" xmlns:xlink="http://www.w3.org/1999/xlink" xmlns:inkscape="http://www.inkscape.org/namespaces/inkscape" version="1.1"><g transform="scale(10.0) translate(-329.439, -208.800)"><defs><clipPath id="clip_2"><path transform="matrix(1,0,0,-1,0,595.276)" d="M74.4 .196H767.4V595.276H74.4Z"/></clipPath></defs><path transform="matrix(1,0,0,-1,0,595.276)" d="M348.12 377.956 350.4 380.236C350.16 380.476 349.92 380.716 349.68 381.076 349.44 381.316 349.2 381.556 348.84 381.796L346.56 379.396C346.92 379.276 347.16 379.036 347.4 378.676 347.64 378.436 347.88 378.196 348.12 377.956Z" fill="#ff0000" fill-rule="evenodd"/><path transform="matrix(1,0,0,-1,0,595.276)" d="M349.56 373.996H352.08C352.08 373.636 352.08 373.276 352.08 372.916 352.08 372.556 352.08 372.196 352.08 371.836H349.56C349.68 372.196 349.68 372.556 349.68 372.916 349.68 373.276 349.68 373.636 349.56 373.996Z" fill="#ff0000" fill-rule="evenodd"/><path transform="matrix(1,0,0,-1,0,595.276)" d="M348 367.996V367.996Z" fill="#ff0000" fill-rule="evenodd"/><path transform="matrix(1,0,0,-1,0,595.276)" d="M348 367.996V367.996L350.28 365.716C350.16 365.356 349.8 365.116 349.56 364.876 349.32 364.636 349.08 364.396 348.84 364.156L346.44 366.436C346.8 366.676 347.04 366.916 347.28 367.156 347.52 367.396 347.76 367.636 348 367.996Z" fill="#ff0000" fill-rule="evenodd"/><path transform="matrix(1,0,0,-1,0,595.276)" d="M340.44 364.876C340.8 364.876 341.16 364.756 341.52 364.756 341.88 364.756 342.24 364.876 342.6 364.876V362.596H340.44V364.876Z" fill="#ff0000" fill-rule="evenodd"/><path transform="matrix(1,0,0,-1,0,595.276)" d="M334.32 364.156V364.156Z" fill="#ff0000" fill-rule="evenodd"/><path transform="matrix(1,0,0,-1,0,595.276)" d="M334.32 364.156 336.6 366.436C336.36 366.676 336.12 366.916 335.76 367.156 335.52 367.396 335.28 367.636 335.04 367.996L332.76 365.716C333 365.356 333.24 365.116 333.48 364.876 333.72 364.636 334.08 364.396 334.32 364.156Z" fill="#ff0000" fill-rule="evenodd"/><path transform="matrix(1,0,0,-1,0,595.276)" d="M334.32 364.156V364.156Z" fill="#ff0000" fill-rule="evenodd"/><path transform="matrix(1,0,0,-1,0,595.276)" d="M333.48 373.996C333.48 373.636 333.48 373.276 333.48 372.916 333.48 372.556 333.48 372.196 333.48 371.836H331.32V373.996H333.48Z" fill="#ff0000" fill-rule="evenodd"/><path transform="matrix(1,0,0,-1,0,595.276)" d="M336.6 379.396C336.36 379.276 336.12 379.036 335.76 378.676 335.52 378.436 335.28 378.196 335.04 377.956L332.76 380.236C333 380.476 333.24 380.716 333.48 381.076 333.72 381.316 334.08 381.556 334.32 381.796L336.6 379.396Z" fill="#ff0000" fill-rule="evenodd"/><path transform="matrix(1,0,0,-1,0,595.276)" d="M340.44 380.956C340.8 380.956 341.16 381.076 341.52 381.076 341.88 381.076 342.24 380.956 342.6 380.956V383.236H340.44V380.956Z" fill="#ff0000" fill-rule="evenodd"/><path transform="matrix(1,0,0,-1,0,595.276)" d="M365.28 380.236 367.68 377.956C367.8 378.196 368.04 378.436 368.4 378.676 368.64 378.916 368.88 379.156 369.12 379.396L366.84 381.676C366.6 381.436 366.36 381.196 366.12 380.956 365.76 380.716 365.52 380.476 365.28 380.236Z" fill="#ff0000" fill-rule="evenodd"/><path transform="matrix(1,0,0,-1,0,595.276)" d="M372.96 380.956C373.32 380.956 373.68 381.076 374.04 381.076 374.4 381.076 374.76 380.956 375.12 380.956V383.236H372.96V380.956Z" fill="#ff0000" fill-rule="evenodd"/><path transform="matrix(1,0,0,-1,0,595.276)" d="M381.24 381.676 378.96 379.396C379.2 379.156 379.56 378.916 379.8 378.676 380.04 378.436 380.28 378.076 380.52 377.836L382.8 380.116C382.56 380.476 382.32 380.716 382.08 380.956 381.84 381.196 381.48 381.436 381.24 381.676Z" fill="#ff0000" fill-rule="evenodd"/><path transform="matrix(1,0,0,-1,0,595.276)" d="M384.24 373.996H382.08C382.08 373.636 382.08 373.276 382.08 372.916 382.08 372.556 382.08 372.196 382.08 371.836H384.24V373.996Z" fill="#ff0000" fill-rule="evenodd"/><path transform="matrix(1,0,0,-1,0,595.276)" d="M382.92 365.716V365.716Z" fill="#ff0000" fill-rule="evenodd"/><path transform="matrix(1,0,0,-1,0,595.276)" d="M382.92 365.716C382.68 365.476 382.44 365.236 382.2 364.996 381.84 364.756 381.6 364.396 381.36 364.156L379.08 366.556C379.32 366.796 379.56 367.036 379.8 367.276 380.16 367.516 380.28 367.756 380.52 368.116L382.92 365.716Z" fill="#ff0000" fill-rule="evenodd"/><path transform="matrix(1,0,0,-1,0,595.276)" d="M381.36 364.156V364.156Z" fill="#ff0000" fill-rule="evenodd"/><path transform="matrix(1,0,0,-1,0,595.276)" d="M372.96 364.876C373.32 364.876 373.68 364.756 374.04 364.756 374.4 364.756 374.76 364.876 375.12 364.876V362.596H372.96V364.876Z" fill="#ff0000" fill-rule="evenodd"/><path transform="matrix(1,0,0,-1,0,595.276)" d="M366.72 364.156 369.12 366.436C368.76 366.676 368.52 366.916 368.28 367.156 368.04 367.396 367.8 367.636 367.56 367.996L365.28 365.716C365.52 365.356 365.76 365.116 366 364.876 366.24 364.636 366.48 364.396 366.72 364.156Z" fill="#ff0000" fill-rule="evenodd"/><path transform="matrix(1,0,0,-1,0,595.276)" d="M363.48 371.836H366C365.88 372.196 365.88 372.556 365.88 372.916 365.88 373.276 365.88 373.636 366 373.996H363.48C363.48 373.636 363.48 373.276 363.48 372.916 363.48 372.556 363.48 372.196 363.48 371.836Z" fill="#ff0000" fill-rule="evenodd"/><path transform="matrix(1,0,0,-1,0,595.276)" d="M380.52 372.916C380.52 374.596 379.8 376.276 378.6 377.476 377.4 378.676 375.72 379.396 374.04 379.396 372.24 379.396 370.68 378.676 369.48 377.476 368.16 376.276 367.56 374.596 367.56 372.916 367.56 371.236 368.16 369.556 369.48 368.356 370.68 367.156 372.24 366.436 374.04 366.436 375.72 366.436 377.4 367.156 378.6 368.356 379.8 369.556 380.52 371.236 380.52 372.916Z" fill="#ff0000" fill-rule="evenodd"/><path transform="matrix(1,0,0,-1,0,595.276)" d="M348 372.916C348 374.596 347.4 376.276 346.2 377.476 344.88 378.676 343.32 379.396 341.52 379.396 339.84 379.396 338.16 378.676 336.96 377.476 335.76 376.276 335.04 374.596 335.04 372.916 335.04 371.236 335.76 369.556 336.96 368.356 338.16 367.156 339.84 366.436 341.52 366.436 343.32 366.436 344.88 367.156 346.2 368.356 347.4 369.556 348 371.236 348 372.916Z" fill="#ff0000" fill-rule="evenodd"/><path transform="matrix(1,0,0,-1,0,595.276)" stroke-width=".12" stroke-linecap="butt" stroke-linejoin="round" fill="none" stroke="#000000" d="M330.96 383.476H384.6V362.356H330.96V383.476"/><path transform="matrix(1,0,0,-1,0,595.276)" stroke-width=".12" stroke-linecap="round" stroke-linejoin="round" fill="none" stroke="#000000" d="M349.32 372.916C349.32 374.956 348.48 376.876 347.04 378.316 345.6 379.756 343.56 380.596 341.52 380.596 339.48 380.596 337.56 379.756 336.12 378.316 334.68 376.876 333.84 374.956 333.84 372.916 333.84 370.876 334.68 368.956 336.12 367.516 337.56 366.076 339.48 365.236 341.52 365.236 343.56 365.236 345.6 366.076 347.04 367.516 348.48 368.956 349.32 370.876 349.32 372.916"/><path transform="matrix(1,0,0,-1,0,595.276)" stroke-width=".12" stroke-linecap="round" stroke-linejoin="round" fill="none" stroke="#000000" d="M381.72 372.916C381.72 374.956 380.88 376.876 379.44 378.316 378 379.756 376.08 380.596 374.04 380.596 372 380.596 369.96 379.756 368.52 378.316 367.08 376.876 366.36 374.956 366.36 372.916 366.36 370.876 367.08 368.956 368.52 367.516 369.96 366.076 372 365.236 374.04 365.236 376.08 365.236 378 366.076 379.44 367.516 380.88 368.956 381.72 370.876 381.72 372.916"/></g></svg>