<?xml version='1.0' encoding='UTF-8'?>
<svg width="548.33" height="203.93" viewBox="9.25 33.88 548.33 203.93" xmlns="http://www.w3.org/2000/svg" xmlns:xlink="http://www.w3.org/1999/xlink" xmlns:inkscape="http://www.inkscape.org/namespaces/inkscape" version="1.1"><g transform="scale(10.0) translate(-329.439, -128.016)"><defs><clipPath id="clip_2"><path transform="matrix(1,0,0,-1,0,595.276)" d="M74.4 .196H767.4V595.276H74.4Z"/></clipPath></defs><path transform="matrix(1,0,0,-1,0,595.276)" d="M375 459.796C373.44 459.796 371.88 459.196 370.68 457.996 369.6 456.916 368.88 455.356 368.88 453.676 368.88 451.996 369.6 450.436 370.68 449.356 371.88 448.156 373.44 447.556 375 447.556 376.68 447.556 378.24 448.156 379.44 449.356 380.52 450.436 381.24 451.996 381.24 453.676 381.24 455.356 380.52 456.916 379.44 457.996 378.24 459.196 376.68 459.796 375 459.796Z" fill="#00ff00" fill-rule="evenodd"/><path transform="matrix(1,0,0,-1,0,595.276)" d="M357.84 459.796C356.16 459.796 354.6 459.196 353.4 457.996 352.32 456.916 351.6 455.356 351.6 453.676 351.6 451.996 352.32 450.436 353.4 449.356 354.6 448.156 356.16 447.556 357.84 447.556 359.4 447.556 360.96 448.156 362.16 449.356 363.24 450.436 363.96 451.996 363.96 453.676 363.96 455.356 363.24 456.916 362.16 457.996 360.96 459.196 359.4 459.796 357.84 459.796Z" fill="#ffff00" fill-rule="evenodd"/><path transform="matrix(1,0,0,-1,0,595.276)" d="M340.56 459.796C338.88 459.796 337.32 459.196 336.24 457.996 335.04 456.916 334.44 455.356 334.44 453.676 334.44 451.996 335.04 450.436 336.24 449.356 337.32 448.156 338.88 447.556 340.56 447.556 342.12 447.556 343.68 448.156 344.88 449.356 346.08 450.436 346.68 451.996 346.68 453.676 346.68 455.356 346.08 456.916 344.88 457.996 343.68 459.196 342.12 459.796 340.56 459.796Z" fill="#ff0000" fill-rule="evenodd"/><path transform="matrix(1,0,0,-1,0,595.276)" stroke-width=".12" stroke-linecap="butt" stroke-linejoin="round" fill="none" stroke="#000000" d="M384.6 463.276H330.96V444.076H384.6V463.276"/><path transform="matrix(1,0,0,-1,0,595.276)" stroke-width=".12" stroke-linecap="round" stroke-linejoin="round" fill="none" stroke="#000000" d="M340.56 461.236C338.52 461.236 336.6 460.396 335.16 458.956 333.84 457.636 333 455.716 333 453.676 333 451.636 333.84 449.716 335.16 448.396 336.6 446.956 338.52 446.116 340.56 446.116 342.48 446.116 344.4 446.956 345.84 448.396 347.28 449.716 348 451.636 348 453.676 348 455.716 347.28 457.636 345.84 458.956 344.4 460.396 342.48 461.236 340.56 461.236"/><path transform="matrix(1,0,0,-1,0,595.276)" stroke-width=".12" stroke-linecap="round" stroke-linejoin="round" fill="none" stroke="#000000" d="M357.84 461.236C355.8 461.236 353.88 460.396 352.44 458.956 351.12 457.636 350.28 455.716 350.28 453.676 350.28 451.636 351.12 449.716 352.44 448.396 353.88 446.956 355.8 446.116 357.84 446.116 359.76 446.116 361.68 446.956 363.12 448.396 364.56 449.716 365.28 451.636 365.28 453.676 365.28 455.716 364.56 457.636 363.12 458.956 361.68 460.396 359.76 461.236 357.84 461.236"/><path transform="matrix(1,0,0,-1,0,595.276)" stroke-width=".12" stroke-linecap="round" stroke-linejoin="round" fill="none" stroke="#000000" d="M375 461.236C373.08 461.236 371.16 460.396 369.72 458.956 368.28 457.636 367.56 455.716 367.56 453.676 367.56 451.636 368.28 449.716 369.72 448.396 371.16 446.956 373.08 446.116 375 446.116 377.04 446.116 378.96 446.956 380.4 448.396 381.72 449.716 382.56 451.636 382.56 453.676 382.56 455.716 381.72 457.636 380.4 458.956 378.96 460.396 377.04 461.236 375 461.236"/></g></svg>