<?xml version='1.0' encoding='UTF-8'?>
<svg width="553.22" height="261.62" viewBox="6.14 4.55 553.22 261.62" xmlns="http://www.w3.org/2000/svg" xmlns:xlink="http://www.w3.org/1999/xlink" xmlns:inkscape="http://www.inkscape.org/namespaces/inkscape" version="1.1"><g transform="scale(10.0) translate(-383.985, -424.224)"><path transform="matrix(1,0,0,-1,0,595.276)" d="M439.32 148.156V166.876C439.32 167.236 439.32 167.596 439.2 168.076 438.96 168.436 438.72 168.796 438.48 169.156 438.12 169.396 437.76 169.636 437.4 169.756 436.92 169.996 436.56 169.996 436.2 169.996H388.32C387.6 169.996 386.76 169.756 386.16 169.156 385.44 168.436 385.2 167.596 385.2 166.876V148.156C385.2 147.436 385.44 146.596 386.16 145.996 386.4 145.636 386.76 145.396 387.24 145.276 387.6 145.156 387.96 145.036 388.32 145.036H436.2C438 145.036 439.32 146.476 439.32 148.156Z" fill="#ffffff" fill-rule="evenodd"/><path transform="matrix(1,0,0,-1,0,595.276)" d="M437.76 166.876V148.156C437.76 147.796 437.64 147.436 437.28 147.076 437.04 146.716 436.56 146.596 436.2 146.596H388.32C388.2 146.596 387.96 146.596 387.72 146.716 387.6 146.836 387.36 146.956 387.24 147.076 387.12 147.196 387 147.436 386.88 147.676 386.76 147.796 386.76 148.036 386.76 148.156V166.876C386.76 167.236 386.88 167.716 387.24 167.956 387.6 168.316 387.96 168.436 388.32 168.436H436.2C437.04 168.436 437.76 167.716 437.76 166.876Z" fill-rule="evenodd"/><path transform="matrix(1,0,0,-1,0,595.276)" d="M429.84 165.916V154.756L426.96 157.516V153.316L431.16 149.236 435.36 153.316V157.516L432.48 154.756V165.916Z" fill="#ffffff" fill-rule="evenodd"/><path transform="matrix(1,0,0,-1,0,595.276)" d="M394.32 158.956C393.72 158.716 393.12 158.116 392.64 157.516 392.16 156.796 391.8 156.076 391.8 155.116 391.68 154.276 391.8 153.436 392.04 152.596 392.4 151.876 392.88 151.276 393.36 150.796 393.96 150.316 394.56 149.956 395.4 149.716 396.12 149.476 396.96 149.476 397.92 149.596 398.76 149.836 399.48 150.196 400.08 150.796 400.8 151.276 401.16 151.996 401.4 152.596L400.56 154.516C400.56 154.036 400.44 153.436 400.08 152.836 399.84 152.236 399.36 151.756 398.76 151.396 398.16 151.036 397.56 150.796 396.84 150.796 396.24 150.796 395.64 150.916 395.16 151.156 394.68 151.396 394.2 151.756 393.84 152.236 393.36 152.836 393.12 153.436 393 154.156 393 154.876 393.12 155.476 393.36 156.076 393.6 156.676 393.96 157.156 394.44 157.516L394.32 158.956Z" fill="#ffffff" fill-rule="evenodd"/><path transform="matrix(1,0,0,-1,0,595.276)" d="M396 162.556C396.36 162.436 396.84 162.556 397.2 162.796 397.56 163.156 397.68 163.516 397.68 163.876 397.8 164.356 397.68 164.716 397.32 165.076 396.96 165.436 396.6 165.556 396.24 165.556 395.76 165.556 395.4 165.436 395.04 165.076 394.92 164.956 394.8 164.716 394.68 164.476 394.68 164.356 394.68 164.116 394.68 163.876L395.16 155.956H400.68L402.72 151.276 405.48 152.476 405.12 153.316 403.56 152.716 401.52 157.276H396.36L396.24 158.356H400.08V159.556H396.24L396 162.556Z" fill="#ffffff" fill-rule="evenodd"/><path transform="matrix(1,0,0,-1,0,595.276)" d="M413.64 155.476H417.36L419.52 159.676H415.8Z" fill="#c3c3c3" fill-rule="evenodd"/><path transform="matrix(1,0,0,-1,0,595.276)" d="M421.08 159.676 418.92 163.756H422.76L424.92 159.676 422.76 155.476H418.92Z" fill="#c3c3c3" fill-rule="evenodd"/><path transform="matrix(1,0,0,-1,0,595.276)" d="M414.24 159.676H410.4L408.24 155.476 410.4 151.276H414.24L411.96 155.476Z" fill="#c3c3c3" fill-rule="evenodd"/><path transform="matrix(1,0,0,-1,0,595.276)" stroke-width=".12" stroke-linecap="round" stroke-linejoin="round" fill="none" stroke="#000000" d="M388.32 145.036H436.2C438 145.036 439.32 146.476 439.32 148.156V166.876C439.32 168.676 438 169.996 436.2 169.996H388.32C386.64 169.996 385.2 168.676 385.2 166.876V148.156C385.2 146.476 386.64 145.036 388.32 145.036"/></g></svg>