<?xml version='1.0' encoding='UTF-8'?>
<svg width="546.19" height="249.49" viewBox="9.51 5.10 546.19 249.49" xmlns="http://www.w3.org/2000/svg" xmlns:xlink="http://www.w3.org/1999/xlink" xmlns:inkscape="http://www.inkscape.org/namespaces/inkscape" version="1.1"><g transform="scale(10.0) translate(-383.985, -397.296)"><path transform="matrix(1,0,0,-1,0,595.276)" d="M438.96 193.876V176.116C438.96 175.756 438.96 175.396 438.84 175.036 438.6 174.676 438.36 174.316 438.12 173.956 437.88 173.716 437.52 173.476 437.04 173.356 436.68 173.236 436.32 173.116 435.96 173.116H393.96C393.36 173.116 392.88 173.236 392.4 173.476 391.92 173.836 391.56 174.196 391.32 174.676L385.8 184.276C385.68 184.516 385.56 184.756 385.56 184.996 385.56 185.236 385.68 185.476 385.8 185.716L391.32 195.316C391.56 195.796 391.92 196.156 392.4 196.516 392.88 196.756 393.36 196.876 393.96 196.876H435.96C437.64 196.876 438.96 195.556 438.96 193.876Z" fill="#ffffff" fill-rule="evenodd"/><path transform="matrix(1,0,0,-1,0,595.276)" d="M435.96 174.676H393.96C393.72 174.676 393.36 174.676 393.12 174.796 392.88 174.916 392.76 175.156 392.64 175.396L387.12 184.996 392.64 194.596C392.76 194.836 392.88 195.076 393.12 195.196 393.36 195.316 393.72 195.316 393.96 195.316H435.96C436.32 195.316 436.8 195.196 437.04 194.956 437.4 194.596 437.52 194.236 437.52 193.876V176.116C437.52 175.756 437.4 175.396 437.04 175.036 436.8 174.796 436.32 174.676 435.96 174.676Z" fill-rule="evenodd"/><path transform="matrix(1,0,0,-1,0,595.276)" d="M389.76 184.996 394.56 193.396H399.72L394.8 184.996 399.72 176.596H394.56Z" fill="#ffffff" fill-rule="evenodd"/><path transform="matrix(1,0,0,-1,0,595.276)" d="M411.48 190.876H414.96L417.12 186.916 414.96 183.076H411.48L413.52 186.916Z" fill="#c3c3c3" fill-rule="evenodd"/><path transform="matrix(1,0,0,-1,0,595.276)" d="M412.08 186.916H408.48L406.32 183.076H409.92Z" fill="#c3c3c3" fill-rule="evenodd"/><path transform="matrix(1,0,0,-1,0,595.276)" d="M406.92 186.916H403.32L401.28 183.076 403.32 179.116H406.92L404.88 183.076Z" fill="#c3c3c3" fill-rule="evenodd"/><path transform="matrix(1,0,0,-1,0,595.276)" d="M430.2 184.996C430.68 184.636 431.04 184.156 431.28 183.676 431.52 183.076 431.64 182.476 431.52 181.756 431.4 181.156 431.16 180.556 430.8 179.956 430.44 179.476 429.96 179.236 429.48 178.996 429.12 178.756 428.52 178.636 427.92 178.636 427.32 178.636 426.6 178.756 426.12 179.116 425.52 179.476 425.04 179.956 424.8 180.556 424.56 181.156 424.44 181.636 424.44 182.236L423.6 180.316C423.84 179.716 424.2 179.116 424.8 178.516 425.4 178.036 426.12 177.676 426.96 177.436 427.8 177.316 428.64 177.316 429.36 177.556 430.08 177.796 430.68 178.156 431.16 178.636 431.64 178.996 432.12 179.596 432.48 180.316 432.72 181.036 432.84 181.876 432.72 182.716 432.72 183.556 432.36 184.276 431.88 184.996 431.52 185.596 430.92 186.076 430.32 186.436L430.2 184.996Z" fill="#ffffff" fill-rule="evenodd"/><path transform="matrix(1,0,0,-1,0,595.276)" d="M429.96 191.116 429.48 183.436H424.32L422.28 179.116 419.76 180.196 420.12 180.916 421.44 180.436 423.48 184.756H428.4L428.52 185.716H424.8V186.916H428.52L428.76 189.676C428.4 189.676 427.92 189.796 427.68 190.036 427.32 190.276 427.08 190.756 427.08 191.116 427.08 191.476 427.2 191.836 427.44 192.196 427.8 192.436 428.16 192.676 428.52 192.676 428.88 192.676 429.36 192.436 429.6 192.196 429.72 191.956 429.84 191.836 429.96 191.596 429.96 191.476 430.08 191.236 429.96 191.116Z" fill="#ffffff" fill-rule="evenodd"/><path transform="matrix(1,0,0,-1,0,595.276)" stroke-width=".12" stroke-linecap="round" stroke-linejoin="round" fill="none" stroke="#000000" d="M438.96 193.876C438.96 195.556 437.64 196.876 435.96 196.876H393.96C392.88 196.876 391.8 196.276 391.32 195.316L385.8 185.716C385.44 185.236 385.44 184.756 385.8 184.276L391.32 174.676C391.8 173.716 392.88 173.116 393.96 173.116H435.96C437.64 173.116 438.96 174.436 438.96 176.116V193.876"/></g></svg>