<?xml version='1.0' encoding='UTF-8'?>
<svg width="249.98" height="267.26" viewBox="159.77 2.27 249.98 267.26" xmlns="http://www.w3.org/2000/svg" xmlns:xlink="http://www.w3.org/1999/xlink" xmlns:inkscape="http://www.inkscape.org/namespaces/inkscape" version="1.1"><g transform="scale(10.0) translate(-438.573, -451.152)"><defs><clipPath id="clip_19"><path transform="matrix(0,1,1,0,0,0)" d="M0 74.451H595.008V767.55899H0Z"/></clipPath><clipPath id="clip_20"><path transform="matrix(0,1,1,0,0,0)" d="M0 842.013H595.224V.008972168H0Z"/></clipPath></defs><path transform="matrix(0,1,1,0,479.145,476.748)" d="M0 0H-23.994C-24.102 0-24.228-.018-24.354-.072-24.48-.108-24.588-.18-24.678-.288-24.768-.378-24.84-.486-24.894-.612-24.948-.738-24.966-.846-24.966-.972V-23.22C-24.966-23.346-24.948-23.472-24.894-23.58-24.84-23.706-24.768-23.814-24.678-23.904-24.588-24.012-24.48-24.084-24.354-24.12-24.228-24.174-24.102-24.192-23.994-24.192H0C.108-24.192 .234-24.174 .342-24.12 .468-24.084 .576-24.012 .684-23.904 .774-23.814 .846-23.706 .9-23.58 .936-23.472 .954-23.346 .954-23.22V-.972C.954-.846 .936-.738 .9-.612 .846-.486 .774-.378 .684-.288 .576-.18 .468-.108 .342-.072 .234-.018 .108 0 0 0" fill="#ffffff" fill-rule="evenodd"/><path transform="matrix(0,1,1,0,478.659,476.748)" d="M0 0H-23.994C-24.048 0-24.12 0-24.174-.036-24.228-.054-24.282-.09-24.336-.144-24.39-.18-24.426-.234-24.444-.306-24.462-.36-24.48-.432-24.48-.486V-22.734C-24.48-22.86-24.444-22.986-24.336-23.076-24.246-23.184-24.12-23.22-23.994-23.22H0C.108-23.22 .234-23.184 .342-23.076 .378-23.04 .414-22.986 .45-22.914 .468-22.86 .486-22.806 .486-22.734V-.486C.486-.36 .432-.234 .342-.144 .234-.036 .108 0 0 0" fill="#0000ff" fill-rule="evenodd"/><path transform="matrix(0,1,1,0,0,0)" d="M452.934 468.597H476.568V469.26298H452.934Z" fill="#ffffff"/><path transform="matrix(0,1,1,0,461.235,458.838)" d="M0 0C-.036 .072-.09 .126-.144 .144-.18 .162-.234 .162-.27 .162-.378 .162-.504 .108-.576 .018-.666-.072-.702-.198-.684-.36V-.9H.828V-.288C.828-.162 .81-.018 .72 .09 .63 .18 .504 .252 .36 .252 .288 .252 .234 .252 .18 .216 .09 .18 .036 .108 0 0ZM-.072-.648H-.468V-.288C-.468-.18-.378-.09-.27-.09-.162-.09-.072-.18-.072-.288V-.648ZM.594-.288V-.648H.126V-.288C.126-.126 .234 0 .36 0 .486 0 .594-.126 .594-.288" fill="#ffffff" fill-rule="evenodd"/><path transform="matrix(0,1,1,0,462.261,459.684)" d="M0 0C0-.108-.036-.216-.126-.306-.198-.396-.306-.432-.414-.45H-1.098V-.198H-.396C-.36-.198-.306-.18-.27-.144-.234-.09-.216-.054-.216 0-.216 .054-.234 .108-.27 .144-.306 .18-.36 .198-.414 .216H-1.098V.45H-.018V.216H-.072C-.054 .18-.036 .144-.018 .108 0 .072 0 .036 0 0" fill="#ffffff" fill-rule="evenodd"/><path transform="matrix(0,1,1,0,463.305,458.946)" d="M0 0C.018 .036 .036 .072 .036 .108 .036 .126 .036 .144 .036 .144V.18C.036 .324 .126 .45 .252 .522 .306 .54 .36 .54 .414 .54 .486 .54 .558 .504 .612 .45 .702 .342 .738 .216 .738 .072 .738-.09 .648-.27 .504-.378L.36-.216C.396-.18 .45-.144 .468-.09 .504-.036 .522 .018 .522 .072 .522 .108 .504 .144 .504 .162 .504 .198 .486 .216 .486 .234 .468 .252 .45 .288 .414 .288 .396 .288 .378 .288 .36 .288 .342 .27 .342 .27 .324 .252 .288 .216 .27 .144 .27 .072 .252 .054 .252 .018 .252-.018 .216-.126 .162-.216 .09-.288 .036-.324-.018-.342-.072-.324H-.09C-.162-.324-.216-.288-.27-.252-.324-.18-.378-.09-.378 0V.018C-.396 .108-.396 .198-.378 .288-.342 .378-.306 .45-.252 .522L-.09 .36C-.126 .288-.162 .198-.162 .108-.162 .072-.162 .036-.144 .018-.144-.018-.108-.054-.072-.054-.036-.054 0-.036 0 0" fill="#ffffff" fill-rule="evenodd"/><path transform="matrix(0,1,1,0,460.065,472.896)" d="M0 0V.612H-.144V.162H-.396V.54H-.54V.162H-.774V.576H-.918V0" fill="#ffffff" fill-rule="evenodd"/><path transform="matrix(0,1,1,0,461.253,472.896)" d="M0 0V.162L-.324-.054-.648 .144V-.018L-.432-.144-.648-.27V-.432L-.324-.234 0-.45V-.288L-.216-.144" fill="#ffffff" fill-rule="evenodd"/><path transform="matrix(0,1,1,0,461.775,472.788)" d="M0 0C0 .036 0 .054-.018 .09-.018 .108-.036 .126-.054 .144-.072 .144-.09 .162-.108 .18L-.036 .306 0 .27C.018 .252 .036 .234 .054 .216 .072 .198 .09 .18 .09 .162 .108 .126 .126 .072 .126 .018 .126-.036 .108-.09 .072-.144 .036-.198-.018-.234-.072-.252-.144-.27-.216-.27-.288-.27-.342-.252-.396-.234-.45-.198-.486-.162-.522-.126-.54-.072-.558-.018-.558 .036-.54 .108-.54 .162-.504 .216-.45 .252-.45 .27-.432 .27-.414 .27-.414 .288-.396 .288-.378 .306L-.324 .18C-.342 .162-.378 .144-.396 .126L-.414 .108C-.432 .054-.432 0-.396-.036-.378-.072-.36-.09-.324-.108-.252-.126-.198-.144-.144-.126-.072-.108-.018-.054 0 0" fill="#ffffff" fill-rule="evenodd"/><path transform="matrix(0,1,1,0,462.423,472.914)" d="M0 0C0 .072 0 .162-.036 .216-.054 .252-.072 .288-.09 .306L-.198 .234-.18 .198C-.162 .18-.144 .144-.126 .108-.126 .054-.126 0-.162-.036-.18-.054-.198-.072-.216-.09-.234-.09-.252-.09-.252-.09H-.27C-.27-.09-.27-.09-.27-.09-.288-.09-.288-.09-.306-.09V.342C-.36 .342-.432 .342-.486 .324-.54 .306-.594 .27-.63 .216-.684 .126-.702 0-.648-.09-.594-.162-.504-.216-.432-.234-.342-.252-.234-.234-.162-.198-.126-.18-.09-.162-.054-.126-.036-.09-.018-.036 0 0ZM-.396-.108C-.432-.09-.468-.09-.486-.072-.504-.054-.54-.036-.54-.018-.558 .036-.558 .072-.54 .126-.54 .144-.522 .162-.486 .18-.468 .198-.432 .198-.396 .198V-.108" fill="#ffffff" fill-rule="evenodd"/><path transform="matrix(0,1,1,0,463.071,472.248)" stroke-width=".288" stroke-linecap="round" stroke-linejoin="round" fill="none" stroke="#ffffff" d="M0 0H.018"/><path transform="matrix(0,1,1,0,463.089,472.284)" d="M0 0C-.018 .018-.036 .036-.036 .054-.036 .072-.054 .108-.054 .126-.054 .18-.036 .234 0 .288 .072 .378 .18 .432 .288 .432 .378 .432 .504 .396 .576 .288 .612 .234 .63 .18 .63 .126 .63 .09 .612 .036 .594 0V-.018H.828V-.162H-.036V-.018H0V0C0 0 0-.018 0 0ZM.126 .018C.144 0 .18-.018 .216-.018H.378C.414-.018 .45 0 .468 .036 .486 .072 .486 .108 .486 .144 .486 .18 .468 .216 .432 .252 .342 .306 .234 .306 .144 .234 .108 .216 .09 .162 .09 .126 .09 .108 .09 .09 .09 .072 .108 .054 .108 .036 .126 .018" fill="#ffffff" fill-rule="evenodd"/><path transform="matrix(0,1,1,0,463.899,472.734)" d="M0 0C.018 0 .036 .018 .054 .036 .054 .054 .054 .072 .036 .108 .036 .126 .036 .144 .036 .162L.162 .18C.18 .108 .18 .018 .144-.036 .144-.072 .126-.108 .09-.108 .072-.126 .054-.144 .036-.144H-.36V-.27H-.486V-.144H-.702L-.756 0H-.486V.18H-.36V0H0" fill="#ffffff" fill-rule="evenodd"/><path transform="matrix(0,1,1,0,457.689,473.49)" d="M0 0V0" fill="#ffffff" fill-rule="evenodd"/><path transform="matrix(0,1,1,0,457.689,473.49)" d="M0 0C-.072-.036-.126-.072-.162-.144-.216-.198-.234-.27-.234-.36-.234-.432-.198-.522-.162-.576-.108-.648-.054-.684 .018-.72 .072-.738 .144-.756 .234-.774 .324-.774 .414-.756 .486-.702 .576-.666 .63-.612 .666-.54 .702-.486 .72-.414 .72-.342 .72-.27 .684-.18 .612-.126H.702V.018H.198V-.378H.324V-.126H.378C.432-.108 .486-.144 .522-.18 .558-.234 .576-.288 .576-.342 .576-.432 .54-.522 .414-.576 .306-.63 .162-.612 .09-.576 0-.54-.09-.468-.09-.36-.09-.306-.072-.27-.054-.216-.018-.18 .018-.144 .072-.126L0 0" fill="#ffffff" fill-rule="evenodd"/><path transform="matrix(0,1,1,0,458.121,474.21)" d="M0 0C0 .09 0 .162-.036 .234-.054 .27-.072 .288-.09 .324L-.198 .234-.18 .216C-.162 .18-.144 .144-.126 .108-.126 .054-.126 .018-.162-.018-.18-.054-.198-.072-.216-.072-.234-.072-.252-.09-.252-.09H-.27C-.27-.09-.27-.09-.27-.09-.288-.09-.288-.09-.306-.09V.342C-.36 .342-.414 .342-.486 .324-.54 .306-.594 .27-.63 .234-.684 .126-.702 .018-.648-.09-.594-.162-.504-.216-.414-.234-.342-.252-.234-.234-.162-.198-.126-.18-.09-.144-.054-.108-.036-.072-.018-.036 0 0ZM-.396-.09C-.432-.09-.468-.072-.486-.072-.504-.054-.54-.036-.54 0-.558 .036-.558 .09-.54 .126-.54 .144-.522 .162-.486 .18-.468 .198-.432 .198-.396 .198V-.09" fill="#ffffff" fill-rule="evenodd"/><path transform="matrix(0,1,1,0,458.895,473.67)" d="M0 0C0 .036 0 .054 .018 .09 .054 .108 .072 .126 .09 .126H.522V.27H.072C.036 .27-.018 .252-.054 .216-.09 .198-.108 .162-.126 .126-.144 .09-.144 .036-.144 0-.126-.054-.108-.09-.09-.126H-.126V-.27H.522V-.126H.126C.09-.126 .054-.108 .036-.09 0-.054 0-.018 0 0" fill="#ffffff" fill-rule="evenodd"/><path transform="matrix(0,1,1,0,459.561,474.21)" d="M0 0C0 .072 0 .162-.036 .216-.054 .252-.072 .288-.09 .306L-.198 .234-.18 .198C-.162 .18-.144 .144-.126 .108-.126 .054-.126 0-.162-.036-.18-.054-.198-.072-.216-.072-.234-.09-.252-.09-.252-.09H-.27C-.27-.09-.27-.09-.27-.09-.288-.09-.288-.09-.306-.09V.342C-.36 .342-.414 .342-.486 .324-.54 .306-.594 .27-.63 .216-.684 .126-.702 0-.648-.09-.594-.162-.504-.216-.414-.234-.342-.252-.234-.234-.162-.198-.126-.18-.09-.162-.054-.126-.036-.09-.018-.036 0 0ZM-.396-.108C-.432-.09-.468-.09-.486-.072-.504-.054-.54-.036-.54-.018-.558 .036-.558 .072-.54 .126-.54 .144-.522 .162-.486 .18-.468 .198-.432 .198-.396 .198V-.108" fill="#ffffff" fill-rule="evenodd"/><path transform="matrix(0,1,1,0,460.209,473.598)" d="M0 0C-.018 .036-.054 .054-.054 .108-.072 .144-.072 .18-.072 .216H.072C.072 .162 .09 .108 .108 .054 .126 .036 .144 .036 .162 .018 .162 .018 .198 0 .216 0H.594V-.144H-.054V0H0" fill="#ffffff" fill-rule="evenodd"/><path transform="matrix(0,1,1,0,460.515,473.598)" d="M0 0 .09 .054 .072 .126C.054 .162 .054 .18 .054 .198 .054 .234 .054 .27 .054 .288 .054 .324 .072 .342 .09 .36 .09 .36 .108 .36 .126 .378 .126 .378 .144 .378 .162 .378H.18L.198 .27C.198 .234 .198 .216 .198 .198 .198 .162 .216 .144 .216 .108 .234 .072 .252 .036 .288 .018 .324-.018 .36-.018 .414-.018 .45-.018 .486-.018 .522 .018 .54 .036 .558 .054 .576 .09 .594 .126 .594 .162 .612 .198 .612 .234 .612 .27 .594 .306 .576 .342 .558 .378 .54 .396 .558 .396 .576 .414 .594 .45 .594 .468 .594 .486 .612 .504L.504 .576 .486 .54C.486 .522 .468 .522 .468 .522L.45 .504C.45 .504 .45 .504 .45 .504H.234C.18 .504 .144 .504 .09 .504 .054 .504 .036 .486 0 .468-.018 .45-.036 .414-.054 .378-.072 .324-.072 .288-.072 .234-.072 .198-.072 .162-.054 .126-.054 .108-.036 .072-.036 .054-.018 .036-.018 .018 0 0ZM.486 .198C.486 .18 .486 .18 .486 .162L.468 .144C.45 .126 .45 .126 .432 .126 .414 .108 .396 .126 .378 .126 .36 .126 .342 .144 .324 .162 .324 .18 .324 .198 .324 .216 .306 .252 .306 .27 .306 .306 .306 .324 .288 .342 .288 .378H.414L.432 .36C.45 .36 .45 .36 .468 .342 .486 .324 .486 .306 .504 .288 .504 .252 .504 .216 .486 .198" fill="#ffffff" fill-rule="evenodd"/><path transform="matrix(0,1,1,0,460.515,473.598)" d="M0 0V0" fill="#ffffff" fill-rule="evenodd"/><path transform="matrix(0,1,1,0,461.253,474.066)" d="M0 0H-.792V.144H-.018L.018 .18C.018 .198 0 .216 0 .234 0 .252 0 .27 0 .288H.126C.126 .27 .126 .234 .126 .198 .126 .18 .126 .144 .126 .108 .126 .09 .108 .054 .09 .036 .054 .018 .036 0 0 0" fill="#ffffff" fill-rule="evenodd"/><path transform="matrix(0,1,1,0,462.783,474.192)" stroke-width=".288" stroke-linecap="round" stroke-linejoin="round" fill="none" stroke="#ffffff" d="M0 0V-.162 0"/><path transform="matrix(0,1,1,0,462.621,474.192)" d="M0 0V.162H-.918V0H-.558V-.414H-.918V-.576H0V-.414H-.414V0" fill="#ffffff" fill-rule="evenodd"/><path transform="matrix(0,1,1,0,462.963,473.868)" d="M0 0C.072 0 .162 .036 .234 .09 .306 .162 .324 .252 .342 .324 .324 .414 .306 .486 .234 .558 .162 .63 .072 .648 0 .648-.09 .648-.162 .63-.234 .558-.306 .486-.342 .414-.342 .324-.342 .252-.306 .162-.234 .09-.162 .036-.09 0 0 0ZM-.198 .324C-.198 .378-.18 .414-.144 .45-.108 .486-.054 .504 0 .504 .036 .504 .09 .486 .144 .45 .18 .414 .198 .378 .198 .324 .198 .288 .18 .234 .144 .198 .09 .18 .036 .162 0 .162-.054 .162-.108 .18-.144 .198-.18 .234-.198 .288-.198 .324" fill="#ffffff" fill-rule="evenodd"/><path transform="matrix(0,1,1,0,463.791,474.066)" d="M0 0H-.792V.144H0C0 .162 .018 .162 .018 .18 .018 .198 0 .198 0 .216 0 .234 0 .252 0 .27L.126 .288C.126 .252 .126 .216 .126 .198 .126 .162 .126 .126 .126 .108 .126 .072 .108 .036 .09 .018 .054 0 .036 0 0 0" fill="#ffffff" fill-rule="evenodd"/><path transform="matrix(0,1,1,0,0,0)" d="M473.544 464.187H474.19203V464.33103H473.544Z" fill="#ffffff"/><path transform="matrix(0,1,1,0,464.331,473.346)" d="M0 0C-.036 0-.072-.036-.072-.072-.072-.126-.036-.162 0-.162 .054-.162 .09-.126 .09-.072 .09-.036 .054 0 0 0" fill="#ffffff" fill-rule="evenodd"/><path transform="matrix(0,1,1,0,464.925,474.156)" d="M0 0C.018-.036 .036-.072 .036-.108 .036-.126 .036-.126 .054-.144 .054-.18 .036-.198 .036-.234 0-.306-.054-.378-.144-.414-.252-.45-.36-.45-.468-.396-.468-.396-.486-.396-.504-.378-.558-.342-.612-.288-.63-.198-.648-.108-.612-.036-.576 .018H-.882V.162H.036V.018H0C-.018 .018 0 .018 0 0ZM-.09-.09C-.09-.054-.126-.018-.162 0-.18 .018-.216 .018-.234 .018H-.36C-.396 .018-.414 .018-.45-.018-.468-.036-.486-.054-.504-.09V-.108C-.504-.144-.504-.18-.468-.216-.468-.234-.45-.252-.432-.252-.342-.306-.252-.306-.18-.27-.144-.252-.126-.234-.126-.216-.108-.198-.09-.18-.09-.162-.09-.144-.09-.108-.09-.09" fill="#ffffff" fill-rule="evenodd"/><path transform="matrix(0,1,1,0,465.483,474.21)" d="M0 0C0 .036 0 .072-.018 .108-.036 .144-.054 .18-.072 .198-.054 .198-.036 .216-.018 .252-.018 .27-.018 .288 0 .306L-.108 .378-.126 .342C-.126 .324-.144 .324-.144 .324L-.162 .306C-.162 .306-.162 .306-.162 .306H-.378C-.432 .306-.468 .306-.522 .306-.558 .306-.576 .288-.612 .27-.63 .252-.648 .216-.666 .18-.684 .126-.684 .09-.684 .036-.684 0-.684-.036-.666-.072-.666-.09-.648-.126-.648-.144-.63-.162-.63-.18-.612-.198L-.522-.144-.54-.072C-.558-.036-.558-.018-.558 0-.558 .036-.558 .072-.558 .09-.558 .126-.54 .144-.522 .162-.522 .162-.504 .162-.486 .18-.486 .18-.468 .18-.45 .18H-.432L-.414 .072C-.414 .036-.414 .018-.414 0-.414-.036-.396-.054-.396-.09-.378-.126-.36-.162-.324-.18-.288-.216-.252-.216-.198-.216-.162-.216-.126-.216-.09-.18-.072-.162-.054-.144-.036-.108-.018-.072-.018-.036 0 0ZM-.126 0C-.126-.018-.126-.036-.144-.054-.162-.072-.162-.072-.18-.072-.198-.09-.216-.072-.234-.072-.252-.072-.27-.054-.288-.036-.288-.018-.288 0-.288 .018-.306 .054-.306 .072-.306 .108-.306 .126-.324 .144-.324 .18H-.198L-.18 .162C-.162 .162-.162 .162-.144 .144-.126 .126-.126 .108-.108 .09-.108 .054-.108 .018-.126 0" fill="#ffffff" fill-rule="evenodd"/><path transform="matrix(0,1,1,0,466.167,474.246)" d="M0 0C.018-.018 .036-.036 .036-.054 .036-.09 .036-.126 .036-.144L.144-.18C.144-.144 .162-.126 .162-.09 .162-.072 .162-.036 .162-.018 .162 .036 .126 .09 .072 .108-.198 .198-.45 .288-.702 .378V.216L-.27 .072-.702-.054V-.216L-.036 0H0" fill="#ffffff" fill-rule="evenodd"/><path transform="matrix(0,1,1,0,466.815,473.76)" d="M0 0C.018 .018 .018 .054 .018 .072V.108C.018 .198 .072 .27 .162 .306 .18 .324 .216 .324 .252 .324 .288 .324 .342 .306 .36 .27 .414 .216 .45 .126 .45 .054 .45-.054 .396-.162 .306-.216L.216-.126C.234-.108 .27-.09 .288-.054 .306-.018 .306 .018 .306 .054 .306 .072 .306 .09 .306 .09 .306 .108 .288 .126 .288 .144 .288 .162 .27 .162 .252 .18 .234 .18 .216 .18 .216 .162H.198C.198 .162 .198 .162 .198 .162 .162 .126 .162 .09 .162 .054 .162 .036 .144 0 .144-.018 .126-.072 .09-.126 .054-.162V-.18C.018-.198-.018-.198-.054-.198-.09-.198-.126-.18-.162-.144-.198-.108-.234-.054-.234 0V.018C-.252 .126-.216 .234-.144 .306L-.054 .216C-.09 .18-.09 .126-.09 .072-.09 .054-.09 .018-.09 0-.09-.018-.072-.036-.054-.036-.018-.036 0-.018 0 0" fill="#ffffff" fill-rule="evenodd"/><path transform="matrix(0,1,1,0,0,0)" d="M453.726 473.727H456.31803V474.19499H453.726Z" fill="#ffffff"/><path transform="matrix(0,1,1,0,0,0)" d="M457.614 473.727H460.20603V474.19499H457.614Z" fill="#ffffff"/><path transform="matrix(0,1,1,0,0,0)" d="M461.502 473.727H464.09403V474.19499H461.502Z" fill="#ffffff"/><path transform="matrix(0,1,1,0,0,0)" d="M465.39 473.727H467.98204V474.19499H465.39Z" fill="#ffffff"/><path transform="matrix(0,1,1,0,0,0)" d="M469.278 473.727H471.87004V474.19499H469.278Z" fill="#ffffff"/><path transform="matrix(0,1,1,0,0,0)" d="M473.166 473.727H475.758V474.19499H473.166Z" fill="#ffffff"/><path transform="matrix(0,1,1,0,0,0)" d="M464.454 456.645H467.64V467.391H464.454Z" fill="#ffffff"/><path transform="matrix(0,1,1,0,461.091,467.064)" d="M0 0V.45L-1.638 1.116H-2.052V-.342H-1.638V.666" fill-rule="evenodd"/><path transform="matrix(0,1,1,0,464.565,465.012)" d="M0 0H2.052V-.414H.594V-.72H.216C.216-.666 .198-.612 .198-.576 .18-.54 .18-.504 .162-.468 .144-.432 .126-.414 .09-.396 .072-.396 .036-.378 0-.378V0" fill-rule="evenodd"/><path transform="matrix(0,1,1,0,466.887,466.038)" d="M0 0C-.36 0-.63-.072-.828-.216-1.008-.378-1.098-.594-1.098-.9-1.098-1.206-1.008-1.422-.828-1.584-.63-1.728-.36-1.8 0-1.8 .378-1.8 .648-1.728 .828-1.584 1.008-1.422 1.116-1.206 1.116-.9 1.116-.594 1.008-.378 .828-.216 .648-.072 .378 0 0 0ZM0-.432C.468-.432 .72-.594 .72-.9 .72-1.062 .648-1.17 .54-1.242 .414-1.332 .234-1.368 0-1.368-.468-1.368-.702-1.206-.702-.9-.702-.738-.648-.63-.522-.558-.396-.468-.234-.432 0-.432" fill-rule="evenodd"/><path transform="matrix(0,1,1,0,458.301,465.48)" d="M0 0 .126-.036C.126-.09 .126-.126 .108-.144 .108-.18 .09-.18 .072-.198 .108-.216 .144-.288 .144-.342 .144-.432 .126-.486 .072-.522 .036-.576-.018-.594-.09-.594-.216-.594-.288-.468-.288-.234H-.306C-.342-.234-.36-.234-.36-.252-.378-.27-.378-.288-.378-.306-.378-.342-.378-.378-.36-.414-.36-.45-.342-.468-.306-.504L-.432-.576C-.504-.522-.54-.432-.522-.306-.54-.234-.522-.18-.486-.126-.468-.09-.414-.072-.36-.054H-.036C-.018-.054 0-.036 0 0ZM-.072-.414C-.054-.414-.036-.414-.018-.396-.018-.378 0-.36-.018-.324-.018-.27-.036-.252-.054-.234H-.162C-.162-.288-.144-.342-.126-.378-.126-.396-.108-.414-.072-.414" fill-rule="evenodd"/><path transform="matrix(0,1,1,0,459.039,465.12)" d="M0 0C0-.054 .036-.108 .09-.108H.468V-.27H.054C.018-.27 0-.306 0-.36 0-.396 .036-.45 .09-.468H.468V-.63H-.144V-.468H-.126C-.126-.45-.144-.414-.162-.396-.162-.378-.162-.342-.162-.324-.162-.234-.144-.18-.09-.162-.144-.108-.162-.054-.162 .018-.162 .126-.108 .198-.018 .234-.018 .252-.018 .252 0 .252H.018C.018 .252 .018 .252 .018 .252H.468V.09H.054C.036 .09 .036 .09 .036 .072 .018 .072 .018 .072 .018 .054 0 .054 0 .018 0 0" fill-rule="evenodd"/><path transform="matrix(0,1,1,0,0,0)" d="M468 456.645H471.186V467.391H468Z" fill="#ffffff"/><path transform="matrix(0,1,1,0,459.075,468.666)" d="M0 0C0-.054 .036-.108 .072-.108H.468V-.288H.054C.018-.288 0-.324 0-.36 0-.414 .036-.468 .072-.468H.468V-.63H-.144V-.468H-.126C-.144-.45-.144-.432-.162-.414-.162-.378-.18-.36-.18-.324-.18-.252-.144-.198-.09-.162-.144-.126-.18-.072-.18 0-.162 .126-.126 .198-.018 .234H0C0 .234 0 .234 0 .234H.018C.018 .234 .018 .234 .018 .234H.468V.072H.054 .036C.036 .072 .036 .072 .036 .072 .018 .072 .018 .054 .018 .054 0 .036 0 .018 0 0" fill-rule="evenodd"/><path transform="matrix(0,1,1,0,458.301,468.828)" d="M0 0C-.108 0-.18-.018-.252-.072-.306-.126-.342-.198-.342-.288-.342-.342-.306-.432-.288-.432H-.306V-.594H.522V-.414H.27C.306-.414 .342-.342 .324-.27 .324-.108 .198 0 0 0ZM.162-.306C.162-.324 .162-.36 .144-.378 .126-.396 .108-.414 .108-.414 .09-.414 .072-.414 .072-.414H-.09C-.144-.414-.18-.36-.18-.306V-.288C-.198-.252-.162-.198-.108-.18L-.09-.162H.09C.144-.18 .18-.27 .162-.306" fill-rule="evenodd"/><path transform="matrix(0,1,1,0,461.847,469.854)" d="M0 0V.306H.414V0H.756V-.414H.414V-1.53H.018L-1.296-.54V0H0ZM-.756-.414 0-.99V-.414H-.756" fill-rule="evenodd"/><path transform="matrix(0,1,1,0,464.079,470.61)" d="M0 0V.45L-1.638 1.116H-2.052V-.342H-1.638V.666" fill-rule="evenodd"/><path transform="matrix(0,1,1,0,459.507,460.944)" d="M0 0H1.944L2.034 .054 2.07 .126 2.088 .252V1.746L2.052 1.836 2.016 1.908 1.962 1.98 1.89 2.034 1.8 2.07 1.692 2.088 1.566 2.106 1.494 1.872 1.656 1.854 1.782 1.782 1.854 1.71 1.872 1.584V.36L1.854 .306 1.836 .27 1.8 .234H.99V1.602H1.134V1.836H0V0ZM.756 .234H.21599V.77398H.756ZM.756 .99H.21599V1.602H.756Z" fill="#ffffff" fill-rule="evenodd"/><path transform="matrix(0,1,1,0,463.575,460.872)" d="M0 0V-.18H.72V-1.17H.954V-.18H1.818V-1.026H2.034V.882H1.818V.054H.954V1.044H.72V.054H.108L.072 .126H.036L.018 .09" fill="#ffffff" fill-rule="evenodd"/><path transform="matrix(0,1,1,0,457.311,475.128)" d="M0 0-.018-.108 .126-.144 .252-.216 .36-.306 .468-.432 .558-.324 .45-.198 .342-.09 .216-.018 .054 .036 .036 .072H.018L0 .054" fill="#ffffff" fill-rule="evenodd"/><path transform="matrix(0,1,1,0,457.545,475.452)" d="M0 0-.054-.108 .288-.234 .576-.36 .594-.558 .72-.54 .774-.522 .792-.504 .774-.486 .738-.468 .648 .378 .774 .468 .702 .594 .45 .45 .342 .36 .216 .252 .306 .144 .522 .324 .576-.198 .072 .018 .054 .054H.036L.018 .036" fill="#ffffff" fill-rule="evenodd"/><path transform="matrix(0,1,1,0,457.347,474.966)" d="M0 0 .126 .018V.324L.27 .36 .414 .45 .558 .576 .72 .774 .612 .918 .558 .81C.373 .572 .338 .583 .09 .468H0" fill="#ffffff" fill-rule="evenodd"/><path transform="matrix(0,1,1,0,458.805,474.93)" d="M0 0H.396V1.098H0ZM.288 .126H.12597999V.32402999H.288ZM.288 .432H.12597999V.648H.288ZM.288 .756H.12597999V.972H.288Z" fill="#ffffff" fill-rule="evenodd"/><path transform="matrix(0,1,1,0,458.823,475.452)" d="M0 0 .108 .09 .072 .468H.792V.594H.054L.018 .936V.99H0L-.036 .954-.108 .882-.036 .45" fill="#ffffff" fill-rule="evenodd"/><path transform="matrix(0,1,1,0,459.021,475.596)" d="M0 0 .126-.072 .216-.126 .306-.198 .36-.27 .414-.342 .522-.234 .414-.126 .306-.036 .504 .126 .432 .252 .324 .126 .18 .036 .09 .072V.108L.072 .126 .054 .108 .036 .09" fill="#ffffff" fill-rule="evenodd"/><path transform="matrix(0,1,1,0,459.669,475.596)" d="M0 0 .126-.036 .216-.072 .306-.126 .36-.162 .414-.234 .522-.126 .396-.036 .288 .018 .396 .09 .522 .198 .432 .306 .378 .234 .234 .126 .144 .09 .054 .108 .036 .144 .018 .126V.108" fill="#ffffff" fill-rule="evenodd"/><path transform="matrix(0,1,1,0,460.821,474.966)" d="M0 0-.054-.09 .108-.144 .396-.288 .54-.378 .648-.288 .504-.198H1.26V-.072H.252L.054 .018V.036H.018" fill="#ffffff" fill-rule="evenodd"/><path transform="matrix(0,1,1,0,460.875,475.002)" d="M0 0H1.224V.144H.99V.378H.882V.144H.72V.36H.612V.144H.432V.396H0V0ZM.306 .144H.107999999V.27001H.306Z" fill="#ffffff" fill-rule="evenodd"/><path transform="matrix(0,1,1,0,461.361,474.984)" d="M0 0H.126V.27H.342V0H.45V.396H0" fill="#ffffff" fill-rule="evenodd"/><path transform="matrix(0,1,1,0,461.307,475.542)" d="M0 0H.108V.324L.234 .288 .36 .234 .27 .18 .144 .144 .162 .036 .342 .072 .45 .144 .522 .054 .576-.09 .684-.018 .63 .126 .54 .234 .63 .342 .684 .432 .576 .522 .522 .414 .45 .324 .252 .414 .054 .486-.036 .396 0 .36" fill="#ffffff" fill-rule="evenodd"/><path transform="matrix(0,1,1,0,462.279,475.11)" d="M0 0H.108V.144H.684V-.018H.792V.738H.684V.612H.108V.72H0V.612H-.126L-.144 .63H-.18V.594L-.198 .486H0V.27H-.126L-.144 .306H-.162L-.18 .288-.198 .252V.144H0V0ZM.45 .27H.32396V.486H.45ZM.684 .27H.55799V.486H.684ZM.234 .27H.10799V.486H.234Z" fill="#ffffff" fill-rule="evenodd"/><path transform="matrix(0,1,1,0,462.297,476.172)" d="M0 0 .072 .108-.054 .216-.198 .306-.252 .18-.108 .09" fill="#ffffff" fill-rule="evenodd"/><path transform="matrix(0,1,1,0,463.071,474.93)" d="M0 0H.81L.972-.018 1.116-.054 1.224-.126 1.296 0 1.206 .054 1.098 .09 .846 .126V.342H1.116L1.152 .324 1.17 .27V.162L1.296 .234 1.278 .378 1.26 .414 1.224 .45 1.17 .468H0V0ZM.738 .126H.48601998V.342H.738ZM.378 .126H.12599V.342H.378Z" fill="#ffffff" fill-rule="evenodd"/><path transform="matrix(0,1,1,0,462.783,475.92)" d="M0 0 .072-.09 .288 .054 .216 .162 .09 .09" fill="#ffffff" fill-rule="evenodd"/><path transform="matrix(0,1,1,0,464.007,475.506)" d="M0 0 .09 .108-.036 .18H.72V.306H-.27L-.504 .432H-.396V.558L-.216 .54-.054 .486 .09 .432 .216 .36 .306 .468 .198 .54 .306 .684 .396 .612 .468 .54 .54 .45 .576 .36 .684 .45 .63 .558C.486 .812 .254 .871-.018 .9H-.198V.666L-.396 .702V.918H-.522V.45H-.54V.432L-.612 .324-.432 .252-.288 .18 0 0ZM-.072 .63V.774L.18 .738 .09 .576-.072 .63" fill="#ffffff" fill-rule="evenodd"/><path transform="matrix(0,1,1,0,464.997,475.092)" d="M0 0H.846V.126H.054L.036 .144 0 .126" fill="#ffffff" fill-rule="evenodd"/><path transform="matrix(0,1,1,0,465.231,474.912)" d="M0 0H1.134L1.17-.018 1.188-.036V-.216L1.314-.162V0L1.296 .054 1.26 .108 1.206 .126H.072L.054 .144 .036 .162V.144L.018 .126" fill="#ffffff" fill-rule="evenodd"/><path transform="matrix(0,1,1,0,466.239,474.912)" d="M0 0V-.09L.18-.126 .36-.198 .522-.288 .666-.414 .774-.288 .576-.144 .378-.054V.162L.558 .126 .702 .09 .594-.09 .702-.18 .756-.072 .846 .018 .954-.036 1.044-.126 1.116-.252 1.188-.396 1.314-.288 1.26-.18C1.138 .123 .778 .205 .504 .306L.306 .342 .216 .252 .252 .198V0L.09 .036 .054 .072 .036 .09 .018 .054" fill="#ffffff" fill-rule="evenodd"/><path transform="matrix(0,1,1,0,466.851,474.912)" d="M0 0V-.09H.558L.468-.18 .54-.27 .756-.09H1.332V.054H.864L.972 .252 .828 .36 .756 .18 .684 .054H.072L.054 .09H.036L.018 .054" fill="#ffffff" fill-rule="evenodd"/><path transform="matrix(0,1,1,0,457.743,466.002)" d="M0 0V-.09H.972V-.558H1.098V.594H.972V.036H.54V.468H.414V.036H.054L.036 .054H.018V.036" fill-rule="evenodd"/><path transform="matrix(0,1,1,0,458.751,466.38)" d="M0 0 .09 .126-.09 .27V.54H.162V-.018H.288V.54H.774V.666H.288V1.134H.162V.666H-.09V1.044H-.216V.342L-.306 .396V.432H-.324L-.36 .396-.378 .306-.162 .162" fill-rule="evenodd"/><path transform="matrix(0,1,1,0,457.185,469.638)" d="M0 0H.126V.486H1.062V.612H.432L.558 .774 .702 .918 .612 1.026 .432 .828 .306 .612H.126V1.152H0" fill-rule="evenodd"/><path transform="matrix(0,1,1,0,458.751,469.926)" d="M0 0 .072 .126-.09 .27V.54H.162V-.018H.288V.54H.774V.666H.288V1.134H.162V.666H-.09V1.044H-.216V.342L-.306 .396V.432H-.324L-.36 .396-.396 .306-.18 .162" fill-rule="evenodd"/><path transform="matrix(0,1,1,0,476.427,461.502)" d="M0 0 1.296 1.296H2.592L1.728 .432H6.48V-.432H1.728L2.592-1.296H1.296" fill="#ffffff" fill-rule="evenodd"/><path transform="matrix(0,1,1,0,470.199,462.798)" d="M0 0-1.296 1.296 0 2.592H1.296L.432 1.728H5.184V.864H.432L1.296 0" fill="#ffffff" fill-rule="evenodd"/><path transform="matrix(0,1,1,0,463.107,454.266)" d="M0 0H1.08L.36-.738H3.24V-1.458H.36L1.08-2.178H0L-1.08-1.098" fill="#ffffff" fill-rule="evenodd"/><path transform="matrix(0,1,1,0,0,0)" d="M465.876 462.459H466.218V463.50303H465.876Z"/><path transform="matrix(0,1,1,0,0,0)" d="M465.876 462.459H466.218V463.50303H465.876Z"/><path transform="matrix(0,1,1,0,0,0)" d="M469.422 462.459H469.76399V463.50303H469.422Z"/><path transform="matrix(0,1,1,0,478.173,451.78199)" stroke-width=".288" stroke-linecap="round" stroke-linejoin="round" fill="none" stroke="#0000ff" d="M0 0C0 .54 .432 .972 .972 .972"/><path transform="matrix(0,1,1,0,455.92503,451.78199)" stroke-width=".288" stroke-linecap="round" stroke-linejoin="round" fill="none" stroke="#0000ff" d="M0 0V22.248"/><path transform="matrix(0,1,1,0,454.95304,452.75398)" stroke-width=".288" stroke-linecap="round" stroke-linejoin="round" fill="none" stroke="#0000ff" d="M0 0C-.54 0-.972 .432-.972 .972"/><path transform="matrix(0,1,1,0,454.95304,476.74797)" stroke-width=".288" stroke-linecap="round" stroke-linejoin="round" fill="none" stroke="#0000ff" d="M0 0H-23.994"/><path transform="matrix(0,1,1,0,455.92503,477.70198)" stroke-width=".288" stroke-linecap="round" stroke-linejoin="round" fill="none" stroke="#0000ff" d="M0 0C0-.54-.432-.972-.954-.972"/><path transform="matrix(0,1,1,0,478.173,477.70198)" stroke-width=".288" stroke-linecap="round" stroke-linejoin="round" fill="none" stroke="#0000ff" d="M0 0V-22.248"/><path transform="matrix(0,1,1,0,479.145,476.74797)" stroke-width=".288" stroke-linecap="round" stroke-linejoin="round" fill="none" stroke="#0000ff" d="M0 0C.522 0 .954-.432 .954-.972"/><path transform="matrix(0,1,1,0,479.145,452.75398)" stroke-width=".288" stroke-linecap="round" stroke-linejoin="round" fill="none" stroke="#0000ff" d="M0 0H23.994"/></g></svg>