<?xml version='1.0' encoding='UTF-8'?>
<svg width="521.40" height="256.20" viewBox="22.35 7.02 521.40 256.20" xmlns="http://www.w3.org/2000/svg" xmlns:xlink="http://www.w3.org/1999/xlink" xmlns:inkscape="http://www.inkscape.org/namespaces/inkscape" version="1.1"><g transform="scale(10.0) translate(-274.875, -370.368)"><path transform="matrix(1,0,0,-1,0,595.276)" d="M326.64 223.636H279.72C279.24 223.636 278.64 223.396 278.28 223.036 277.8 222.556 277.68 222.076 277.68 221.596V201.196C277.68 200.956 277.68 200.716 277.8 200.476 277.92 200.116 278.04 199.876 278.28 199.756 278.4 199.516 278.64 199.396 279 199.276 279.24 199.156 279.48 199.156 279.72 199.156H326.64C327.12 199.156 327.72 199.276 328.08 199.756 328.56 200.116 328.68 200.716 328.68 201.196V221.596C328.68 222.676 327.84 223.636 326.64 223.636Z" fill="#ffffff" fill-rule="evenodd"/><path transform="matrix(1,0,0,-1,0,595.276)" d="M326.64 222.556H279.72C279.6 222.556 279.48 222.556 279.36 222.556 279.24 222.436 279.12 222.436 279 222.316 278.88 222.196 278.76 222.076 278.76 221.956 278.76 221.836 278.64 221.716 278.64 221.596V201.196C278.64 200.956 278.76 200.716 279 200.476 279.24 200.236 279.48 200.116 279.72 200.116H326.64C326.88 200.116 327.24 200.236 327.36 200.476 327.6 200.716 327.72 200.956 327.72 201.196V221.596C327.72 222.076 327.24 222.556 326.64 222.556Z" fill="#0000ff" fill-rule="evenodd"/><path transform="matrix(1,0,0,-1,0,595.276)" d="M281.16 216.796H283.68V217.396H281.88V218.476H283.44V219.076H281.88V220.036H283.56V220.636H281.16Z" fill="#ffffff" fill-rule="evenodd"/><path transform="matrix(1,0,0,-1,0,595.276)" d="M285.12 219.556H284.52V216.796H285.12V218.476C285.12 218.596 285.24 218.716 285.24 218.836 285.36 218.956 285.48 218.956 285.6 219.076 285.72 219.076 285.84 218.956 285.96 218.956 285.96 218.836 285.96 218.836 285.96 218.716 286.08 218.716 286.08 218.596 286.08 218.596V216.796H286.68V218.476C286.68 218.596 286.68 218.716 286.8 218.836 286.92 218.956 287.04 218.956 287.16 219.076 287.28 219.076 287.28 218.956 287.4 218.956 287.52 218.836 287.52 218.836 287.52 218.716V218.596 216.796H288.12V218.716 218.836 218.956C288.12 219.076 287.88 219.316 287.76 219.436 287.52 219.556 287.28 219.556 287.04 219.556 286.92 219.556 286.8 219.556 286.68 219.436 286.56 219.436 286.56 219.316 286.44 219.196 286.2 219.436 285.96 219.556 285.6 219.556 285.48 219.556 285.48 219.556 285.36 219.556 285.24 219.436 285.24 219.436 285.12 219.316V219.556Z" fill="#ffffff" fill-rule="evenodd"/><path transform="matrix(1,0,0,-1,0,595.276)" d="M289.92 216.796C290.16 216.676 290.52 216.796 290.76 216.916 290.88 216.916 291 217.036 291.12 217.156L290.76 217.516C290.64 217.396 290.4 217.276 290.28 217.276 290.04 217.276 289.92 217.276 289.68 217.396 289.68 217.516 289.56 217.516 289.56 217.636 289.44 217.756 289.44 217.876 289.44 217.996H291.24C291.36 218.236 291.24 218.476 291.24 218.716 291.12 218.956 291 219.196 290.76 219.436 290.4 219.676 289.92 219.676 289.44 219.436 289.2 219.196 288.96 218.836 288.84 218.476 288.84 218.116 288.84 217.756 288.96 217.396 289.08 217.276 289.2 217.036 289.32 216.916 289.56 216.796 289.68 216.796 289.92 216.796ZM289.44 218.356C289.44 218.596 289.44 218.716 289.56 218.836 289.56 218.836 289.68 218.956 289.8 218.956 289.92 219.076 290.16 219.076 290.4 218.956 290.4 218.956 290.52 218.956 290.64 218.836 290.64 218.716 290.64 218.596 290.64 218.356H289.44Z" fill="#ffffff" fill-rule="evenodd"/><path transform="matrix(1,0,0,-1,0,595.276)" d="M292.56 219.316C292.68 219.436 292.8 219.556 293.04 219.556 293.16 219.556 293.28 219.676 293.52 219.556V218.956C293.28 218.956 293.04 218.956 292.8 218.836L292.68 218.716C292.56 218.596 292.56 218.476 292.56 218.476V216.796H291.96V219.556H292.56V219.316Z" fill="#ffffff" fill-rule="evenodd"/><path transform="matrix(1,0,0,-1,0,595.276)" d="M294.96 217.036C294.96 217.036 294.72 217.036 294.36 217.156 294.12 217.396 293.76 217.636 293.76 218.356 293.76 218.956 294.12 219.316 294.36 219.436 294.72 219.556 294.96 219.556 294.96 219.556 295.08 219.556 295.2 219.556 295.32 219.556 295.44 219.556 295.56 219.436 295.56 219.436V219.556H296.16V216.676 216.556C296.04 216.196 295.56 215.956 295.08 215.956 294.72 215.836 294.36 215.956 293.88 216.196L294.12 216.676C294.36 216.556 294.72 216.436 294.96 216.436 295.2 216.436 295.44 216.556 295.56 216.676V216.796 216.916 217.156H295.44C295.2 217.036 294.96 217.036 294.96 217.036ZM294.96 219.076C294.96 219.076 294.48 219.076 294.48 218.356 294.48 217.996 294.6 217.756 294.72 217.756 294.84 217.636 294.96 217.636 294.96 217.636 294.96 217.636 295.56 217.636 295.56 218.356 295.56 218.716 295.44 218.836 295.32 218.956 295.2 219.076 294.96 219.076 294.96 219.076Z" fill="#ffffff" fill-rule="evenodd"/><path transform="matrix(1,0,0,-1,0,595.276)" d="M297.96 216.796C298.2 216.676 298.56 216.796 298.8 216.916 299.04 216.916 299.16 217.036 299.28 217.156L298.92 217.516H298.8C298.68 217.396 298.56 217.276 298.32 217.276 298.2 217.276 297.96 217.276 297.84 217.396 297.72 217.516 297.6 217.516 297.6 217.636 297.48 217.756 297.48 217.876 297.48 217.996H299.4C299.4 218.236 299.28 218.476 299.28 218.716 299.16 218.956 299.04 219.196 298.8 219.436 298.44 219.676 297.96 219.676 297.48 219.436 297.24 219.196 297 218.836 296.88 218.476 296.88 218.116 296.88 217.756 297.12 217.396 297.12 217.276 297.24 217.036 297.36 216.916 297.6 216.796 297.72 216.796 297.96 216.796ZM297.48 218.356C297.48 218.596 297.6 218.716 297.6 218.836 297.72 218.836 297.72 218.956 297.84 218.956 298.08 219.076 298.2 219.076 298.44 218.956 298.56 218.956 298.56 218.956 298.68 218.836 298.68 218.716 298.8 218.596 298.8 218.356H297.48Z" fill="#ffffff" fill-rule="evenodd"/><path transform="matrix(1,0,0,-1,0,595.276)" d="M301.2 219.076C301.32 219.076 301.44 218.956 301.44 218.956 301.56 218.836 301.68 218.716 301.68 218.596V216.796H302.28V218.716C302.28 218.836 302.16 219.076 302.04 219.196 301.92 219.316 301.8 219.436 301.68 219.556 301.44 219.556 301.32 219.676 301.08 219.556 300.96 219.556 300.72 219.436 300.6 219.316V219.556H300V216.796H300.6V218.476C300.6 218.596 300.72 218.716 300.84 218.836 300.84 218.956 301.08 219.076 301.2 219.076Z" fill="#ffffff" fill-rule="evenodd"/><path transform="matrix(1,0,0,-1,0,595.276)" d="M304.08 217.276C304.2 217.276 304.32 217.276 304.44 217.276 304.44 217.396 304.56 217.396 304.68 217.516L304.8 217.636 305.28 217.396 305.16 217.276C305.16 217.156 305.04 217.036 305.04 217.036 304.92 216.916 304.8 216.916 304.8 216.916 304.56 216.796 304.32 216.796 304.2 216.796 303.96 216.796 303.72 216.796 303.48 216.916 303.24 217.156 303.12 217.276 303 217.636 302.88 217.876 302.88 218.236 302.88 218.476 303 218.716 303.12 218.956 303.24 219.196 303.36 219.316 303.6 219.436 303.72 219.556 303.96 219.556 304.2 219.556 304.44 219.556 304.68 219.556 304.92 219.436 305.16 219.196 305.16 219.196 305.16 219.076 305.28 219.076 305.28 218.956 305.28 218.956 305.28 218.836L304.8 218.596C304.8 218.716 304.68 218.836 304.56 218.956H304.44C304.32 219.076 304.08 219.076 303.96 218.956 303.72 218.836 303.6 218.716 303.6 218.596 303.48 218.356 303.48 218.116 303.6 217.876 303.6 217.516 303.84 217.396 304.08 217.276Z" fill="#ffffff" fill-rule="evenodd"/><path transform="matrix(1,0,0,-1,0,595.276)" d="M306.48 216.556C306.36 216.556 306.36 216.436 306.24 216.436 306.12 216.436 306 216.436 305.88 216.436L305.76 215.956C305.88 215.956 306 215.956 306.12 215.956 306.24 215.956 306.36 215.956 306.48 215.956 306.6 215.956 306.84 216.076 306.96 216.316 307.08 216.796 307.32 217.396 307.44 217.876 307.68 218.476 307.8 218.956 308.04 219.556H307.32L306.84 217.756 306.24 219.556H305.52L306.48 216.676V216.556Z" fill="#ffffff" fill-rule="evenodd"/><path transform="matrix(1,0,0,-1,0,595.276)" d="M310.2 216.796H312.36V217.396H310.8V220.636H310.2Z" fill="#ffffff" fill-rule="evenodd"/><path transform="matrix(1,0,0,-1,0,595.276)" d="M312.96 218.836 313.32 219.076H313.44 313.56C313.8 219.076 313.92 219.076 314.04 219.076 314.04 219.076 314.16 219.076 314.28 218.956V218.836C314.28 218.716 314.28 218.716 314.28 218.596V218.476H313.92C313.8 218.476 313.68 218.476 313.56 218.476 313.44 218.476 313.32 218.356 313.2 218.356 313.08 218.356 312.96 218.236 312.84 218.116 312.72 217.996 312.6 217.756 312.72 217.636 312.72 217.396 312.72 217.276 312.84 217.156 312.96 217.036 313.08 216.916 313.2 216.916 313.32 216.796 313.44 216.796 313.56 216.796 313.68 216.796 313.92 216.796 314.04 216.796 314.16 216.916 314.28 216.916 314.4 217.036 314.4 216.916 314.52 216.916 314.64 216.796 314.76 216.796 314.76 216.796 314.88 216.796L315.12 217.156 315 217.276 314.88 217.396V218.356C314.88 218.476 314.88 218.716 314.88 218.956 314.88 219.076 314.88 219.196 314.76 219.316 314.64 219.436 314.52 219.436 314.4 219.556 314.16 219.556 313.92 219.676 313.68 219.676 313.56 219.676 313.44 219.556 313.32 219.556 313.2 219.556 313.08 219.436 312.96 219.436 312.96 219.436 312.84 219.316 312.72 219.316L312.96 218.836ZM313.56 217.276C313.44 217.276 313.44 217.276 313.32 217.396V217.516C313.2 217.636 313.2 217.636 313.32 217.756 313.32 217.876 313.32 217.876 313.44 217.876 313.56 217.996 313.56 217.996 313.68 217.996 313.8 217.996 313.92 217.996 314.04 217.996 314.16 217.996 314.16 218.116 314.28 218.116V217.636 217.516C314.28 217.396 314.28 217.396 314.16 217.396 314.16 217.276 314.04 217.276 313.92 217.276 313.8 217.156 313.68 217.156 313.56 217.276Z" fill="#ffffff" fill-rule="evenodd"/><path transform="matrix(1,0,0,-1,0,595.276)" d="M312.96 218.836V218.836Z" fill="#ffffff" fill-rule="evenodd"/><path transform="matrix(1,0,0,-1,0,595.276)" d="M316.44 216.556C316.44 216.556 316.32 216.436 316.2 216.436 316.08 216.436 315.96 216.436 315.84 216.436L315.72 215.956C315.84 215.956 315.96 215.956 316.08 215.956 316.2 215.956 316.32 215.956 316.44 215.956 316.68 215.956 316.8 216.076 316.92 216.316 317.16 216.796 317.28 217.396 317.52 217.876 317.64 218.476 317.88 218.956 318 219.556H317.28L316.8 217.756 316.2 219.556H315.6L316.44 216.676V216.556Z" fill="#ffffff" fill-rule="evenodd"/><path transform="matrix(1,0,0,-1,0,595.276)" d="M318.36 218.476H319.56V217.876H318.36Z" fill="#ffffff" fill-rule="evenodd"/><path transform="matrix(1,0,0,-1,0,595.276)" d="M321 219.436C321.36 219.556 321.72 219.676 322.2 219.436 322.68 219.076 322.8 218.596 322.8 218.236 322.8 217.756 322.68 217.276 322.2 216.916 321.96 216.796 321.84 216.796 321.6 216.796 321.36 216.796 321.12 216.796 321 216.916H320.88V216.796H320.28V220.636H320.88V219.436H321ZM321.6 217.276C321.72 217.276 321.84 217.396 321.96 217.396 322.08 217.516 322.2 217.636 322.2 217.876 322.32 218.116 322.32 218.356 322.2 218.596 322.08 218.716 321.96 218.956 321.84 218.956 321.6 219.076 321.48 219.076 321.24 218.956 321.12 218.956 321 218.836 321 218.716 320.88 218.596 320.88 218.476 320.88 218.356V217.996C320.88 217.876 320.88 217.876 320.88 217.756 320.88 217.756 321 217.756 321 217.636 321 217.516 321.12 217.396 321.24 217.396 321.36 217.276 321.48 217.276 321.6 217.276Z" fill="#ffffff" fill-rule="evenodd"/><path transform="matrix(1,0,0,-1,0,595.276)" d="M324.12 216.556C324 216.556 324 216.436 323.88 216.436 323.76 216.436 323.64 216.436 323.52 216.436L323.4 215.956C323.52 215.956 323.64 215.956 323.76 215.956 323.88 215.956 324 215.956 324 215.956 324.24 215.956 324.48 216.076 324.6 216.316 324.72 216.796 324.96 217.396 325.08 217.876 325.32 218.476 325.44 218.956 325.68 219.556H324.96L324.48 217.756 323.88 219.556H323.16L324.12 216.676V216.556Z" fill="#ffffff" fill-rule="evenodd"/><path transform="matrix(1,0,0,-1,0,595.276)" d="M285.6 213.676V210.916H286.08V211.156H288.24V211.636H287.28V211.876H288.24V212.956H287.28V213.316H288.24V213.676H285.6ZM286.08 211.636V211.876H286.8V211.636H286.08ZM286.08 212.956V213.316H286.8V212.956H286.08ZM286.08 212.236V212.596H287.76V212.236H286.08Z" fill="#ffffff" fill-rule="evenodd"/><path transform="matrix(1,0,0,-1,0,595.276)" d="M286.68 210.916 286.32 210.556 287.76 209.836 285.6 209.716 285.72 209.356V209.236L285.84 209.116V209.236L285.96 209.356H288V208.156H288.48V209.356L290.16 209.476 290.4 209.116 290.88 209.356 290.28 209.956 289.68 210.436 289.32 210.196 289.68 209.836H288.48L289.32 210.556H289.44 289.56V210.676L289.44 210.796 289.08 211.036 288.12 210.196 287.76 210.436 288.12 210.676 288.24 210.796V210.916H288.12L287.76 211.156 287.28 210.556Z" fill="#ffffff" fill-rule="evenodd"/><path transform="matrix(1,0,0,-1,0,595.276)" d="M285.48 208.636 285.84 208.156 287.4 208.756H287.52V208.876L287.4 208.996 287.16 209.236 286.32 208.876Z" fill="#ffffff" fill-rule="evenodd"/><path transform="matrix(1,0,0,-1,0,595.276)" d="M288.48 213.556V213.196H288.72L288.84 212.836 288.96 212.476 289.08 212.236 289.32 211.996 288.84 211.756 288.36 211.636 288.72 211.156 289.2 211.396 289.68 211.636 290.64 211.036 291 211.516 290.52 211.756 290.16 211.996 290.52 212.596 290.88 213.436 290.52 213.676 290.4 213.556H288.48ZM289.2 213.196H290.16L290.04 212.716 289.68 212.236 289.56 212.476 289.44 212.716 289.32 212.836 289.2 213.196Z" fill="#ffffff" fill-rule="evenodd"/><path transform="matrix(1,0,0,-1,0,595.276)" d="M289.32 209.116 288.84 208.876 289.56 208.516 290.4 208.156 291 208.516 290.04 208.756Z" fill="#ffffff" fill-rule="evenodd"/><path transform="matrix(1,0,0,-1,0,595.276)" d="M293.04 212.476 293.4 212.116 293.88 212.356V211.876H297.24V211.516H293.16V211.036H297.24V210.676H293.88V210.196H297.84V211.036H298.32V211.516H297.84V212.356H296.52L297.36 213.076 296.88 213.436 296.76 213.316H295.32L295.44 213.436 295.56 213.556 295.44 213.676H295.32L294.96 213.916 294.6 213.436 294.12 213.076 293.64 212.716 293.04 212.476ZM294.72 212.956H296.28L295.92 212.356H294.12L294.48 212.596 294.72 212.956Z" fill="#ffffff" fill-rule="evenodd"/><path transform="matrix(1,0,0,-1,0,595.276)" d="M292.92 208.636 293.4 208.276 293.76 208.876 294 209.476 294.12 209.596 294 209.716 293.88 209.836 293.52 209.956 293.28 209.236Z" fill="#ffffff" fill-rule="evenodd"/><path transform="matrix(1,0,0,-1,0,595.276)" d="M296.16 209.116 296.52 209.356 296.28 209.716 295.8 210.076 295.44 209.836 295.92 209.356Z" fill="#ffffff" fill-rule="evenodd"/><path transform="matrix(1,0,0,-1,0,595.276)" d="M294.36 210.076V208.996 208.636L294.6 208.516 294.84 208.396 295.08 208.276H296.52 296.76L297 208.396 297.24 208.516 297.36 208.756 297.48 209.116 296.88 209.356V209.116L296.76 208.996 296.64 208.876 296.4 208.756H295.32L295.2 208.876H295.08L294.96 208.996V209.116 209.596L295.08 209.716V209.836 209.956H294.96Z" fill="#ffffff" fill-rule="evenodd"/><path transform="matrix(1,0,0,-1,0,595.276)" d="M298.08 208.516 298.56 208.756 298.08 209.356 297.6 209.956 297.24 209.716 297.72 209.116Z" fill="#ffffff" fill-rule="evenodd"/><path transform="matrix(1,0,0,-1,0,595.276)" d="M303.72 213.556H302.04V211.876 211.276L301.92 210.796 301.8 210.316 301.56 209.836 302.04 209.596 302.4 210.436V209.116H302.88V209.476H303.24V209.116H303.84V211.276H302.52V211.756H303.72V213.556ZM302.88 209.956V210.796H303.24V209.956H302.88ZM302.52 212.236V213.076H303.12V212.236H302.52Z" fill="#ffffff" fill-rule="evenodd"/><path transform="matrix(1,0,0,-1,0,595.276)" d="M300.48 211.156V210.676H301.08V209.356L300.24 208.756 300.72 208.276 301.2 208.996 301.56 208.636 302.04 208.396 302.76 208.276H303.6 306L306.12 208.756H303.24 302.52L302.04 208.996 301.68 209.236 301.56 209.596V211.156Z" fill="#ffffff" fill-rule="evenodd"/><path transform="matrix(1,0,0,-1,0,595.276)" d="M300.96 213.796 300.6 213.436 300.96 213.196 301.44 212.836 301.8 213.316 301.44 213.556Z" fill="#ffffff" fill-rule="evenodd"/><path transform="matrix(1,0,0,-1,0,595.276)" d="M300.84 212.476 300.48 212.116 300.84 211.876 301.2 211.516 301.56 211.876 301.32 212.236Z" fill="#ffffff" fill-rule="evenodd"/><path transform="matrix(1,0,0,-1,0,595.276)" d="M304.68 213.796V213.076H303.96V212.596H304.2L304.32 211.636H303.96V211.156H304.8V210.556H303.96V209.956H304.8V208.996H305.28V209.956H306V210.556H305.28V211.156H306V211.636H305.64L305.76 212.596H306V213.076H305.28V213.556 213.676 213.796H305.16 304.68ZM304.8 211.636 304.68 212.596H305.28L305.16 211.636H304.8Z" fill="#ffffff" fill-rule="evenodd"/><path transform="matrix(1,0,0,-1,0,595.276)" d="M308.28 213.316V212.716H310.44V212.356H308.88V209.956H310.44V209.596H308.04V208.996H310.44V208.276H311.04V208.996H313.44V209.596H311.04V209.956H312.72V212.356H311.04V212.716H313.2V213.316H311.04V213.556L311.16 213.676H311.04V213.796H310.44V213.316H308.28ZM309.36 211.396V211.876H310.44V211.396H309.36ZM309.36 210.436V210.916H310.44V210.436H309.36ZM311.04 211.396V211.876H312.24V211.396H311.04ZM311.04 210.436V210.916H312.24V210.436H311.04Z" fill="#ffffff" fill-rule="evenodd"/><path transform="matrix(1,0,0,-1,0,595.276)" d="M317.88 212.836H315.84V210.316 209.836L315.72 209.236 315.6 208.876 315.36 208.396 315.84 208.156 316.2 208.756 316.44 209.476 316.68 209.356 316.92 209.596 317.04 209.236 317.28 209.116 316.68 208.756 316.2 208.636 316.56 208.156 317.04 208.396 317.64 208.636 318.12 208.396 318.84 208.156 319.8 208.036H320.88L321.24 208.636H319.68 319.2L318.84 208.756 318.36 208.876 318 208.996 318.24 209.236 318.36 209.596 318.48 210.076 318.6 210.676H317.52L317.64 210.916H317.76V211.036L317.64 211.156 317.28 211.276 317.04 210.796 316.8 210.436 316.68 210.076 316.44 209.836V210.556 212.356H317.88V212.116H316.8V211.636H317.88V211.276 211.156 211.036L318.12 210.916H318.24 320.04 320.28L320.4 211.036 320.52 211.156 320.64 211.396 320.04 211.516V211.396H319.92V211.276H319.68 318.6 318.48L318.36 211.516V211.636H319.8V211.996H318.36V212.356H320.28V211.756H320.76V212.836H318.36V213.076H320.28V213.436H318.36V213.676H318.48V213.796H318.36 318.24L317.88 213.916V212.836ZM317.4 210.196H318L317.88 209.716 317.64 209.356 317.4 209.596 317.28 209.956 317.4 210.196Z" fill="#ffffff" fill-rule="evenodd"/><path transform="matrix(1,0,0,-1,0,595.276)" d="M318.84 210.556V210.316 209.956L318.72 209.596 318.6 209.356 318.48 209.116 318.84 208.876 318.96 208.996 319.2 209.236V209.596L319.32 210.076H319.68V209.356 209.116L319.8 208.996 319.92 208.876H320.16 320.64 320.88L321 208.996 321.12 209.236V209.596L320.52 209.716V209.356L320.4 209.236 320.28 209.356 320.16 209.476V209.596 210.556Z" fill="#ffffff" fill-rule="evenodd"/><path transform="matrix(1,0,0,-1,0,595.276)" d="M295.92 203.716C295.92 203.356 296.28 202.996 296.64 203.116 296.88 203.116 297 203.116 297.12 203.356 297.36 203.476 297.36 203.716 297.36 203.956 297.36 204.076 297.36 204.316 297.12 204.436 297 204.676 296.88 204.676 296.64 204.676 296.52 204.676 296.4 204.676 296.28 204.556 296.16 204.556 296.04 204.436 296.04 204.316L295.32 204.436 295.68 206.356H297.84V205.756H296.16L296.04 205.156C296.16 205.156 296.28 205.156 296.4 205.276 296.4 205.276 296.52 205.276 296.64 205.276 296.76 205.276 297 205.276 297.12 205.156 297.36 205.156 297.48 205.036 297.6 204.916 297.84 204.676 297.96 204.316 297.96 203.956 297.96 203.596 297.84 203.236 297.6 202.876 297.36 202.636 297 202.516 296.64 202.516 296.4 202.516 295.92 202.516 295.68 202.756 295.56 202.876 295.44 202.996 295.44 203.116 295.32 203.236 295.32 203.356 295.32 203.476L295.92 203.716Z" fill="#ffffff" fill-rule="evenodd"/><path transform="matrix(1,0,0,-1,0,595.276)" stroke-width=".12" stroke-linecap="butt" stroke-miterlimit="10" stroke-linejoin="miter" fill="none" stroke="#ffffff" d="M298.5 204.5V204.5"/><path transform="matrix(1,0,0,-1,0,595.276)" stroke-width=".12" stroke-linecap="butt" stroke-miterlimit="10" stroke-linejoin="miter" fill="none" stroke="#ffffff" d="M298.5 204.5V204.5"/><path transform="matrix(1,0,0,-1,0,595.276)" stroke-width=".12" stroke-linecap="butt" stroke-miterlimit="10" stroke-linejoin="miter" fill="none" stroke="#ffffff" d="M298.5 204.5V204.5"/><path transform="matrix(1,0,0,-1,0,595.276)" stroke-width=".12" stroke-linecap="butt" stroke-miterlimit="10" stroke-linejoin="miter" fill="none" stroke="#ffffff" d="M298.5 204.5V204.5"/><path transform="matrix(1,0,0,-1,0,595.276)" stroke-width=".12" stroke-linecap="butt" stroke-miterlimit="10" stroke-linejoin="miter" fill="none" stroke="#ffffff" d="M298.5 204.5V204.5"/><path transform="matrix(1,0,0,-1,0,595.276)" stroke-width=".12" stroke-linecap="butt" stroke-miterlimit="10" stroke-linejoin="miter" fill="none" stroke="#ffffff" d="M298.5 204.5V204.5"/><path transform="matrix(1,0,0,-1,0,595.276)" stroke-width=".12" stroke-linecap="butt" stroke-miterlimit="10" stroke-linejoin="miter" fill="none" stroke="#ffffff" d="M298.5 204.5V204.5"/><path transform="matrix(1,0,0,-1,0,595.276)" stroke-width=".12" stroke-linecap="butt" stroke-miterlimit="10" stroke-linejoin="miter" fill="none" stroke="#ffffff" d="M298.5 204.5V204.5"/><path transform="matrix(1,0,0,-1,0,595.276)" stroke-width=".12" stroke-linecap="butt" stroke-miterlimit="10" stroke-linejoin="miter" fill="none" stroke="#ffffff" d="M298.5 204.5V204.5"/><path transform="matrix(1,0,0,-1,0,595.276)" d="M298.68 204.436V204.436C298.68 203.836 298.8 203.356 299.04 202.996 299.28 202.636 299.64 202.516 300.12 202.516 300.6 202.516 300.96 202.636 301.2 202.996 301.44 203.356 301.56 203.836 301.56 204.436 301.56 205.036 301.44 205.516 301.2 205.876 300.96 206.236 300.6 206.356 300.12 206.356 299.28 206.356 298.68 205.636 298.68 204.436ZM298.68 204.436V204.436ZM300.12 203.116C299.88 203.116 299.64 203.236 299.52 203.476 299.4 203.716 299.28 204.076 299.28 204.436 299.28 204.796 299.4 205.156 299.52 205.396 299.64 205.636 299.88 205.756 300.12 205.756 300.6 205.756 300.96 205.276 300.96 204.436 300.96 204.076 300.84 203.716 300.72 203.476 300.6 203.236 300.36 203.116 300.12 203.116Z" fill="#ffffff" fill-rule="evenodd"/><path transform="matrix(1,0,0,-1,0,595.276)" stroke-width=".12" stroke-linecap="butt" stroke-miterlimit="10" stroke-linejoin="miter" fill="none" stroke="#ffffff" d="M302.5 204.5V204.5"/><path transform="matrix(1,0,0,-1,0,595.276)" stroke-width=".12" stroke-linecap="butt" stroke-miterlimit="10" stroke-linejoin="miter" fill="none" stroke="#ffffff" d="M302.5 204.5V204.5"/><path transform="matrix(1,0,0,-1,0,595.276)" stroke-width=".12" stroke-linecap="butt" stroke-miterlimit="10" stroke-linejoin="miter" fill="none" stroke="#ffffff" d="M302.5 204.5V204.5"/><path transform="matrix(1,0,0,-1,0,595.276)" stroke-width=".12" stroke-linecap="butt" stroke-miterlimit="10" stroke-linejoin="miter" fill="none" stroke="#ffffff" d="M302.5 204.5V204.5"/><path transform="matrix(1,0,0,-1,0,595.276)" stroke-width=".12" stroke-linecap="butt" stroke-miterlimit="10" stroke-linejoin="miter" fill="none" stroke="#ffffff" d="M302.5 204.5V204.5"/><path transform="matrix(1,0,0,-1,0,595.276)" stroke-width=".12" stroke-linecap="butt" stroke-miterlimit="10" stroke-linejoin="miter" fill="none" stroke="#ffffff" d="M302.5 204.5V204.5"/><path transform="matrix(1,0,0,-1,0,595.276)" stroke-width=".12" stroke-linecap="butt" stroke-miterlimit="10" stroke-linejoin="miter" fill="none" stroke="#ffffff" d="M302.5 204.5V204.5"/><path transform="matrix(1,0,0,-1,0,595.276)" stroke-width=".12" stroke-linecap="butt" stroke-miterlimit="10" stroke-linejoin="miter" fill="none" stroke="#ffffff" d="M302.5 204.5V204.5"/><path transform="matrix(1,0,0,-1,0,595.276)" stroke-width=".12" stroke-linecap="butt" stroke-miterlimit="10" stroke-linejoin="miter" fill="none" stroke="#ffffff" d="M302.5 204.5V204.5"/><path transform="matrix(1,0,0,-1,0,595.276)" stroke-width=".12" stroke-linecap="butt" stroke-miterlimit="10" stroke-linejoin="miter" fill="none" stroke="#ffffff" d="M302.5 204.5V204.5"/><path transform="matrix(1,0,0,-1,0,595.276)" stroke-width=".12" stroke-linecap="butt" stroke-miterlimit="10" stroke-linejoin="miter" fill="none" stroke="#ffffff" d="M302.5 204.5V204.5"/><path transform="matrix(1,0,0,-1,0,595.276)" d="M302.28 204.436V204.436C302.28 203.836 302.4 203.356 302.64 202.996 303 202.636 303.36 202.516 303.72 202.516 304.2 202.516 304.56 202.636 304.8 202.996 305.04 203.356 305.16 203.836 305.16 204.436 305.16 205.036 305.04 205.516 304.8 205.876 304.56 206.236 304.2 206.356 303.72 206.356 303.36 206.356 303 206.236 302.64 205.876 302.4 205.516 302.28 205.036 302.28 204.436ZM302.28 204.436V204.436ZM303.72 203.116C303.48 203.116 303.36 203.236 303.12 203.476 303 203.716 303 204.076 303 204.436 303 205.276 303.24 205.756 303.72 205.756 304.2 205.756 304.56 205.276 304.56 204.436 304.56 203.596 304.2 203.116 303.72 203.116Z" fill="#ffffff" fill-rule="evenodd"/><path transform="matrix(1,0,0,-1,0,595.276)" d="M307.92 205.276H307.32V202.516H307.92V204.196C307.92 204.316 307.92 204.436 308.04 204.556 308.16 204.676 308.28 204.676 308.4 204.676 308.52 204.676 308.64 204.676 308.64 204.556 308.76 204.556 308.76 204.556 308.76 204.436V204.316 202.516H309.36V204.196C309.36 204.316 309.48 204.436 309.6 204.556 309.6 204.676 309.84 204.676 309.84 204.676 309.96 204.676 310.08 204.676 310.2 204.556 310.2 204.556 310.32 204.556 310.32 204.436V204.316 202.516H310.92V204.436 204.556C310.8 204.796 310.68 205.036 310.44 205.156 310.32 205.276 310.08 205.276 309.84 205.276 309.72 205.276 309.6 205.276 309.48 205.156 309.36 205.156 309.24 205.036 309.24 204.916 309 205.156 308.76 205.276 308.4 205.276 308.28 205.276 308.16 205.276 308.16 205.276 308.04 205.156 307.92 205.156 307.92 205.036V205.276Z" fill="#ffffff" fill-rule="evenodd"/><path transform="matrix(1,0,0,-1,0,595.276)" stroke-width=".12" stroke-linecap="round" stroke-linejoin="round" fill="none" stroke="#0000ff" d="M279.72 223.636H326.64C327.84 223.636 328.68 222.676 328.68 221.596V201.196C328.68 199.996 327.84 199.156 326.64 199.156H279.72C278.52 199.156 277.68 199.996 277.68 201.196V221.596C277.68 222.676 278.52 223.636 279.72 223.636"/></g></svg>