<?xml version='1.0' encoding='UTF-8'?>
<svg width="563.02" height="111.82" viewBox="2.14 80.53 563.02 111.82" xmlns="http://www.w3.org/2000/svg" xmlns:xlink="http://www.w3.org/1999/xlink" xmlns:inkscape="http://www.inkscape.org/namespaces/inkscape" version="1.1"><g transform="scale(10.0) translate(-56.655, -128.016)"><path transform="matrix(1,0,0,-1,0,595.276)" d="M111.48 458.596H58.56C58.32 458.596 57.96 458.596 57.72 458.356 57.6 458.116 57.48 457.876 57.48 457.516V449.716C57.48 449.596 57.48 449.476 57.48 449.356 57.6 449.116 57.6 448.996 57.72 448.996 57.84 448.876 57.96 448.756 58.08 448.756 58.32 448.636 58.44 448.636 58.56 448.636H111.48C111.72 448.636 112.08 448.756 112.2 448.996 112.44 449.116 112.56 449.476 112.56 449.716V457.516C112.56 458.116 112.08 458.596 111.48 458.596Z" fill="#ffffff" fill-rule="evenodd"/><path transform="matrix(1,0,0,-1,0,595.276)" d="M111.48 458.116H58.56C58.44 458.116 58.2 458.116 58.2 457.996 58.08 457.876 57.96 457.756 57.96 457.516V449.716C57.96 449.596 58.08 449.476 58.2 449.356 58.2 449.236 58.44 449.116 58.56 449.116H111.48C111.6 449.116 111.72 449.236 111.84 449.356 111.96 449.476 112.08 449.596 112.08 449.716V457.516C112.08 457.756 111.96 457.876 111.84 457.996 111.72 458.116 111.6 458.116 111.48 458.116Z" fill="#0000ff" fill-rule="evenodd"/><path transform="matrix(1,0,0,-1,0,595.276)" d="M59.4 455.116H60.72V455.356H59.76V455.956H60.6V456.196H59.76V456.796H60.72V457.036H59.4Z" fill="#ffffff" fill-rule="evenodd"/><path transform="matrix(1,0,0,-1,0,595.276)" d="M62.04 456.076 62.64 457.036H62.28L61.92 456.436 61.44 457.036H61.08L61.68 456.076 61.08 455.116H61.44L61.92 455.836 62.28 455.116H62.76Z" fill="#ffffff" fill-rule="evenodd"/><path transform="matrix(1,0,0,-1,0,595.276)" d="M63.96 457.036C64.32 457.036 64.56 456.796 64.56 456.436 64.56 456.316 64.44 456.076 64.32 455.956 64.2 455.836 64.08 455.836 63.96 455.836H63.48V455.116H63.12V457.036H63.96ZM63.48 456.796V456.076H63.84 63.96L64.08 456.196C64.2 456.316 64.2 456.316 64.2 456.436 64.2 456.556 64.2 456.556 64.08 456.676 64.08 456.796 63.96 456.796 63.84 456.796H63.48Z" fill="#ffffff" fill-rule="evenodd"/><path transform="matrix(1,0,0,-1,0,595.276)" stroke-width=".12" stroke-linecap="butt" stroke-miterlimit="10" stroke-linejoin="miter" fill="none" stroke="#ffffff" d="M65.5 455.5V457.5"/><path transform="matrix(1,0,0,-1,0,595.276)" d="M65.04 455.116H65.28V455.836H65.64L66.12 455.116H66.48L66 455.836C66.24 455.956 66.48 456.196 66.36 456.556 66.36 456.796 66.12 457.036 65.88 457.036H65.04V455.116ZM65.28 456.196V456.796H65.76C66 456.796 66.12 456.676 66.12 456.436 66.12 456.436 66 456.316 66 456.196 65.88 456.196 65.88 456.196 65.76 456.196H65.28Z" fill="#ffffff" fill-rule="evenodd"/><path transform="matrix(1,0,0,-1,0,595.276)" d="M66.96 455.116H68.28V455.356H67.32V455.956H68.16V456.196H67.32V456.796H68.28V457.036H66.96Z" fill="#ffffff" fill-rule="evenodd"/><path transform="matrix(1,0,0,-1,0,595.276)" stroke-width=".12" stroke-linecap="butt" stroke-miterlimit="10" stroke-linejoin="miter" fill="none" stroke="#ffffff" d="M69.5 455.5V455.5"/><path transform="matrix(1,0,0,-1,0,595.276)" d="M69.96 456.556 70.32 456.796C70.08 457.036 69.84 457.156 69.48 457.156 69.36 457.156 69.12 457.036 69 456.916 68.88 456.796 68.76 456.676 68.76 456.556 68.76 456.316 68.88 456.196 69 456.076H69.12C69.24 455.956 69.36 455.956 69.48 455.956 69.72 455.956 69.84 455.836 69.96 455.716 69.96 455.716 69.96 455.596 69.96 455.476 69.84 455.356 69.72 455.356 69.6 455.356 69.36 455.356 69.12 455.476 69 455.596L68.76 455.356C68.76 455.356 68.88 455.236 69 455.236 69.12 455.116 69.36 454.996 69.6 454.996 69.72 454.996 69.96 455.116 70.08 455.236 70.2 455.236 70.2 455.356 70.2 455.356 70.2 455.476 70.32 455.476 70.32 455.476V455.596 455.716 455.836C70.32 455.836 70.2 455.956 70.08 456.076L69.96 456.196H69.84L69.36 456.316H69.24C69.24 456.316 69.12 456.436 69.12 456.556L69.24 456.676C69.36 456.796 69.36 456.796 69.48 456.796 69.6 456.796 69.84 456.676 69.96 456.556Z" fill="#ffffff" fill-rule="evenodd"/><path transform="matrix(1,0,0,-1,0,595.276)" stroke-width=".12" stroke-linecap="butt" stroke-miterlimit="10" stroke-linejoin="miter" fill="none" stroke="#ffffff" d="M71.5 455.5V455.5"/><path transform="matrix(1,0,0,-1,0,595.276)" d="M72 456.556 72.24 456.796C72 457.036 71.76 457.156 71.52 457.156 71.28 457.156 71.04 457.036 70.92 456.916 70.8 456.796 70.8 456.676 70.8 456.556 70.8 456.316 70.8 456.196 70.92 456.076 71.04 456.076 71.04 456.076 71.16 456.076 71.28 455.956 71.4 455.956 71.52 455.956 71.64 455.956 71.76 455.836 71.88 455.716 71.88 455.716 71.88 455.596 71.88 455.476 71.88 455.356 71.64 455.356 71.52 455.356 71.28 455.356 71.16 455.476 70.92 455.596L70.68 455.356C70.8 455.356 70.8 455.236 70.92 455.236 71.16 455.116 71.28 454.996 71.52 454.996 71.76 454.996 71.88 455.116 72.12 455.236 72.12 455.236 72.12 455.356 72.24 455.356V455.476 455.596 455.716 455.836C72.24 455.836 72.12 455.956 72.12 456.076 72 456.076 72 456.076 72 456.196 71.88 456.196 71.88 456.196 71.76 456.196L71.4 456.316H71.28C71.16 456.316 71.16 456.436 71.16 456.556 71.04 456.556 71.16 456.676 71.28 456.676 71.28 456.796 71.4 456.796 71.4 456.796 71.64 456.796 71.76 456.676 72 456.556Z" fill="#ffffff" fill-rule="evenodd"/><path transform="matrix(1,0,0,-1,0,595.276)" d="M73.08 455.116 72.6 457.036H72.96L73.32 455.596 73.68 457.036H74.04L74.4 455.596 74.64 457.036H75L74.52 455.116H74.16L73.8 456.556 73.56 455.116H73.44Z" fill="#ffffff" fill-rule="evenodd"/><path transform="matrix(1,0,0,-1,0,595.276)" d="M75.96 457.036 75.36 455.116H75.6L75.72 455.476H76.56L76.68 455.116H77.04L76.32 457.036H75.96ZM76.44 455.716H75.84L76.2 456.676 76.44 455.716Z" fill="#ffffff" fill-rule="evenodd"/><path transform="matrix(1,0,0,-1,0,595.276)" d="M77.16 457.036 77.88 455.836V455.116H78.24V455.836L78.84 457.036H78.48L78 456.196 77.52 457.036Z" fill="#ffffff" fill-rule="evenodd"/><path transform="matrix(1,0,0,-1,0,595.276)" stroke-width=".12" stroke-linecap="butt" stroke-miterlimit="10" stroke-linejoin="miter" fill="none" stroke="#ffffff" d="M80.5 455.5V455.5"/><path transform="matrix(1,0,0,-1,0,595.276)" d="M81 456.556 81.36 456.796C81.12 457.036 80.88 457.156 80.52 457.156 80.4 457.156 80.16 457.036 80.04 456.916 79.92 456.796 79.8 456.676 79.8 456.556 79.8 456.316 79.92 456.196 80.04 456.076H80.16C80.28 455.956 80.4 455.956 80.52 455.956H80.64C80.76 455.956 80.88 455.836 81 455.716 81 455.716 81 455.596 81 455.476 81 455.356 80.76 455.356 80.64 455.356 80.4 455.356 80.16 455.476 80.04 455.596L79.8 455.356C79.8 455.356 79.92 455.236 80.04 455.236 80.16 455.116 80.4 454.996 80.64 454.996 80.76 454.996 81 455.116 81.12 455.236 81.24 455.356 81.36 455.476 81.36 455.596 81.36 455.716 81.36 455.716 81.36 455.836 81.36 455.836 81.24 455.956 81.24 456.076 81.12 456.076 81.12 456.076 81 456.196H80.88L80.4 456.316H80.28C80.28 456.316 80.16 456.436 80.16 456.556L80.28 456.676C80.4 456.796 80.4 456.796 80.52 456.796 80.64 456.796 80.88 456.676 81 456.556Z" fill="#ffffff" fill-rule="evenodd"/><path transform="matrix(1,0,0,-1,0,595.276)" d="M83.04 457.036H81.6V456.796H82.2V455.116H82.56V456.796H83.04Z" fill="#ffffff" fill-rule="evenodd"/><path transform="matrix(1,0,0,-1,0,595.276)" d="M83.88 457.036 83.28 455.116H83.52L83.64 455.476H84.48L84.6 455.116H84.96L84.36 457.036H83.88ZM84.48 455.716H83.76L84.12 456.676 84.48 455.716Z" fill="#ffffff" fill-rule="evenodd"/><path transform="matrix(1,0,0,-1,0,595.276)" stroke-width=".12" stroke-linecap="butt" stroke-miterlimit="10" stroke-linejoin="miter" fill="none" stroke="#ffffff" d="M85.5 455.5V457.5"/><path transform="matrix(1,0,0,-1,0,595.276)" d="M85.44 455.116H85.8V455.836H86.16L86.52 455.116H86.88L86.52 455.836C86.76 455.956 86.88 456.196 86.88 456.556 86.76 456.796 86.52 457.036 86.28 457.036H85.44V455.116ZM85.8 456.196V456.796H86.28C86.4 456.796 86.52 456.676 86.52 456.436 86.52 456.316 86.4 456.196 86.28 456.196H85.8Z" fill="#ffffff" fill-rule="evenodd"/><path transform="matrix(1,0,0,-1,0,595.276)" d="M88.56 457.036H87.12V456.796H87.72V455.116H88.08V456.796H88.56Z" fill="#ffffff" fill-rule="evenodd"/><path transform="matrix(1,0,0,-1,0,595.276)" stroke-width=".12" stroke-linecap="butt" stroke-miterlimit="10" stroke-linejoin="miter" fill="none" stroke="#ffffff" d="M89.5 455.5H90.5"/><path transform="matrix(1,0,0,-1,0,595.276)" d="M90.12 456.556 90.36 456.796C90.12 457.036 89.88 457.156 89.64 457.156 89.4 457.156 89.28 457.036 89.04 456.916 88.92 456.796 88.92 456.676 88.92 456.556 88.92 456.316 88.92 456.196 89.04 456.076 89.16 456.076 89.16 456.076 89.28 456.076 89.4 455.956 89.52 455.956 89.64 455.956 89.76 455.956 90 455.836 90 455.716 90.12 455.716 90.12 455.596 90 455.476 90 455.356 89.88 455.356 89.64 455.356 89.52 455.356 89.28 455.476 89.04 455.596L88.8 455.356C88.92 455.356 89.04 455.236 89.04 455.236 89.28 455.116 89.4 454.996 89.64 454.996 89.88 454.996 90.12 455.116 90.24 455.236L90.36 455.356V455.476 455.596 455.716 455.836C90.36 455.836 90.36 455.956 90.24 456.076 90.24 456.076 90.12 456.076 90.12 456.196H90L89.52 456.316H89.4C89.28 456.316 89.28 456.436 89.28 456.556 89.28 456.556 89.28 456.676 89.4 456.676 89.4 456.796 89.52 456.796 89.64 456.796 89.76 456.796 90 456.676 90.12 456.556Z" fill="#ffffff" fill-rule="evenodd"/><path transform="matrix(1,0,0,-1,0,595.276)" d="M91.8 455.716C91.8 455.476 92.04 455.356 92.28 455.356 92.28 455.356 92.4 455.356 92.52 455.476 92.52 455.596 92.64 455.716 92.64 455.836 92.64 455.956 92.52 455.956 92.52 456.076 92.4 456.196 92.28 456.196 92.28 456.196 92.16 456.196 92.04 456.196 92.04 456.196 91.92 456.076 91.92 456.076 91.92 455.956L91.56 456.076 91.68 457.036H92.76V456.796H91.92V456.436H92.04L92.16 456.556C92.28 456.556 92.4 456.556 92.52 456.436 92.52 456.436 92.64 456.436 92.76 456.316 92.88 456.196 92.88 455.956 92.88 455.836 92.88 455.596 92.88 455.476 92.76 455.236 92.64 455.116 92.4 454.996 92.28 454.996 92.04 454.996 91.8 455.116 91.68 455.236L91.56 455.356C91.56 455.476 91.56 455.476 91.56 455.596L91.8 455.716Z" fill="#ffffff" fill-rule="evenodd"/><path transform="matrix(1,0,0,-1,0,595.276)" stroke-width=".12" stroke-linecap="butt" stroke-miterlimit="10" stroke-linejoin="miter" fill="none" stroke="#ffffff" d="M93.5 456.5V456.5"/><path transform="matrix(1,0,0,-1,0,595.276)" stroke-width=".12" stroke-linecap="butt" stroke-miterlimit="10" stroke-linejoin="miter" fill="none" stroke="#ffffff" d="M93.5 456.5V456.5"/><path transform="matrix(1,0,0,-1,0,595.276)" stroke-width=".12" stroke-linecap="butt" stroke-miterlimit="10" stroke-linejoin="miter" fill="none" stroke="#ffffff" d="M93.5 456.5V456.5"/><path transform="matrix(1,0,0,-1,0,595.276)" stroke-width=".12" stroke-linecap="butt" stroke-miterlimit="10" stroke-linejoin="miter" fill="none" stroke="#ffffff" d="M93.5 456.5V456.5"/><path transform="matrix(1,0,0,-1,0,595.276)" stroke-width=".12" stroke-linecap="butt" stroke-miterlimit="10" stroke-linejoin="miter" fill="none" stroke="#ffffff" d="M93.5 456.5V456.5"/><path transform="matrix(1,0,0,-1,0,595.276)" stroke-width=".12" stroke-linecap="butt" stroke-miterlimit="10" stroke-linejoin="miter" fill="none" stroke="#ffffff" d="M93.5 456.5V456.5"/><path transform="matrix(1,0,0,-1,0,595.276)" stroke-width=".12" stroke-linecap="butt" stroke-miterlimit="10" stroke-linejoin="miter" fill="none" stroke="#ffffff" d="M93.5 456.5V456.5"/><path transform="matrix(1,0,0,-1,0,595.276)" stroke-width=".12" stroke-linecap="butt" stroke-miterlimit="10" stroke-linejoin="miter" fill="none" stroke="#ffffff" d="M93.5 456.5V456.5"/><path transform="matrix(1,0,0,-1,0,595.276)" stroke-width=".12" stroke-linecap="butt" stroke-miterlimit="10" stroke-linejoin="miter" fill="none" stroke="#ffffff" d="M93.5 456.5V456.5"/><path transform="matrix(1,0,0,-1,0,595.276)" stroke-width=".12" stroke-linecap="butt" stroke-miterlimit="10" stroke-linejoin="miter" fill="none" stroke="#ffffff" d="M93.5 456.5V456.5"/><path transform="matrix(1,0,0,-1,0,595.276)" d="M93.24 456.076V456.076C93.24 455.476 93.6 454.996 94.08 454.996 94.32 454.996 94.44 455.116 94.56 455.356 94.68 455.476 94.8 455.716 94.8 456.076 94.8 456.676 94.56 457.036 94.08 457.036 93.6 457.036 93.24 456.676 93.24 456.076ZM93.24 456.076V456.076ZM94.08 455.356C93.96 455.356 93.96 455.356 93.84 455.356 93.84 455.476 93.72 455.476 93.72 455.596 93.6 455.716 93.6 455.836 93.6 456.076 93.6 456.316 93.6 456.436 93.72 456.556 93.84 456.676 93.96 456.796 94.08 456.796 94.2 456.796 94.32 456.676 94.32 456.556 94.44 456.436 94.44 456.316 94.44 456.076 94.44 455.596 94.32 455.356 94.08 455.356Z" fill="#ffffff" fill-rule="evenodd"/><path transform="matrix(1,0,0,-1,0,595.276)" stroke-width=".12" stroke-linecap="butt" stroke-miterlimit="10" stroke-linejoin="miter" fill="none" stroke="#ffffff" d="M95.5 456.5V456.5"/><path transform="matrix(1,0,0,-1,0,595.276)" stroke-width=".12" stroke-linecap="butt" stroke-miterlimit="10" stroke-linejoin="miter" fill="none" stroke="#ffffff" d="M95.5 456.5V456.5"/><path transform="matrix(1,0,0,-1,0,595.276)" stroke-width=".12" stroke-linecap="butt" stroke-miterlimit="10" stroke-linejoin="miter" fill="none" stroke="#ffffff" d="M95.5 456.5V456.5"/><path transform="matrix(1,0,0,-1,0,595.276)" stroke-width=".12" stroke-linecap="butt" stroke-miterlimit="10" stroke-linejoin="miter" fill="none" stroke="#ffffff" d="M95.5 456.5V456.5"/><path transform="matrix(1,0,0,-1,0,595.276)" stroke-width=".12" stroke-linecap="butt" stroke-miterlimit="10" stroke-linejoin="miter" fill="none" stroke="#ffffff" d="M95.5 456.5V456.5"/><path transform="matrix(1,0,0,-1,0,595.276)" stroke-width=".12" stroke-linecap="butt" stroke-miterlimit="10" stroke-linejoin="miter" fill="none" stroke="#ffffff" d="M95.5 456.5V456.5"/><path transform="matrix(1,0,0,-1,0,595.276)" stroke-width=".12" stroke-linecap="butt" stroke-miterlimit="10" stroke-linejoin="miter" fill="none" stroke="#ffffff" d="M95.5 456.5V456.5"/><path transform="matrix(1,0,0,-1,0,595.276)" stroke-width=".12" stroke-linecap="butt" stroke-miterlimit="10" stroke-linejoin="miter" fill="none" stroke="#ffffff" d="M95.5 456.5V456.5"/><path transform="matrix(1,0,0,-1,0,595.276)" d="M95.16 456.076V456.076C95.16 455.716 95.28 455.476 95.4 455.356 95.52 455.116 95.76 454.996 96 454.996 96.12 454.996 96.36 455.116 96.48 455.356 96.6 455.476 96.72 455.716 96.72 456.076 96.72 456.676 96.36 457.036 96 457.036 95.76 457.036 95.52 457.036 95.4 456.796 95.28 456.676 95.16 456.316 95.16 456.076ZM95.16 456.076V456.076ZM96 455.356C95.76 455.356 95.76 455.476 95.64 455.596 95.52 455.716 95.52 455.836 95.52 456.076 95.52 456.556 95.64 456.796 96 456.796 96.12 456.796 96.12 456.676 96.24 456.556 96.36 456.436 96.36 456.316 96.36 456.076 96.36 455.596 96.24 455.356 96 455.356Z" fill="#ffffff" fill-rule="evenodd"/><path transform="matrix(1,0,0,-1,0,595.276)" d="M98.16 456.556H97.8V455.116H98.16V455.956C98.16 455.956 98.16 456.076 98.16 456.196 98.28 456.196 98.28 456.196 98.4 456.196H98.52C98.52 456.196 98.52 456.076 98.64 456.076V455.956 455.116H98.88V455.956C98.88 455.956 99 456.076 99 456.196H99.12C99.24 456.196 99.24 456.196 99.36 456.196V456.076 455.956 455.116H99.72V456.076 456.196C99.72 456.316 99.6 456.316 99.48 456.436 99.36 456.556 99.24 456.556 99.12 456.556 99.12 456.556 99 456.556 99 456.436 98.88 456.436 98.88 456.436 98.76 456.316 98.76 456.436 98.52 456.556 98.4 456.556 98.28 456.556 98.28 456.556 98.28 456.436H98.16V456.556Z" fill="#ffffff" fill-rule="evenodd"/><path transform="matrix(1,0,0,-1,0,595.276)" d="M101.4 457.036 100.8 455.116H101.16L101.28 455.476H102.12L102.24 455.116H102.48L101.88 457.036H101.4ZM102 455.716H101.28L101.64 456.676 102 455.716Z" fill="#ffffff" fill-rule="evenodd"/><path transform="matrix(1,0,0,-1,0,595.276)" stroke-width=".12" stroke-linecap="round" stroke-linejoin="round" fill="none" stroke="#ffffff" d="M104.28 455.116H104.52 104.28"/><path transform="matrix(1,0,0,-1,0,595.276)" d="M104.28 455.116H104.52V457.036H104.28V456.316H103.32V457.036H102.96V455.116H103.32V455.956H104.28Z" fill="#ffffff" fill-rule="evenodd"/><path transform="matrix(1,0,0,-1,0,595.276)" d="M105.24 455.116H106.56V455.356H105.6V455.956H106.44V456.196H105.6V456.796H106.56V457.036H105.24Z" fill="#ffffff" fill-rule="evenodd"/><path transform="matrix(1,0,0,-1,0,595.276)" d="M107.52 457.036 106.92 455.116H107.28L107.4 455.476H108.24L108.36 455.116H108.6L108 457.036H107.52ZM108.12 455.716H107.4L107.76 456.676 108.12 455.716Z" fill="#ffffff" fill-rule="evenodd"/><path transform="matrix(1,0,0,-1,0,595.276)" d="M109.8 457.036C110.28 457.036 110.76 456.676 110.76 456.076 110.76 455.836 110.64 455.596 110.52 455.356 110.4 455.236 110.28 455.236 110.16 455.116 110.04 455.116 109.92 455.116 109.8 455.116H109.08V457.036H109.8ZM109.8 456.796H109.44V455.356H109.8C110.04 455.356 110.16 455.476 110.28 455.596 110.28 455.716 110.4 455.956 110.4 456.076 110.4 456.196 110.28 456.436 110.28 456.556 110.16 456.676 110.16 456.676 110.04 456.676 110.04 456.796 109.92 456.796 109.8 456.796Z" fill="#ffffff" fill-rule="evenodd"/><path transform="matrix(1,0,0,-1,0,595.276)" d="M61.92 451.756H62.16V452.236L62.28 452.596V452.716H62.16 61.92V452.236Z" fill="#ffffff" fill-rule="evenodd"/><path transform="matrix(1,0,0,-1,0,595.276)" d="M62.88 452.116 63.12 452.236V452.476L63 452.836 62.76 452.716Z" fill="#ffffff" fill-rule="evenodd"/><path transform="matrix(1,0,0,-1,0,595.276)" d="M63.24 452.956V452.716H63.6V451.996H63V451.756H63.6L63.48 451.396 63.36 451.156 63.12 450.916 62.88 450.796 63.12 450.556 63.36 450.676 63.48 450.916 63.72 451.156 63.84 451.516 63.96 451.276 64.08 450.916 64.32 450.796 64.56 450.556 64.8 450.796 64.56 451.036 64.32 451.156 64.08 451.396V451.756H64.8V451.996H64.56V452.956H63.96V453.316 453.436H63.84 63.6V452.956H63.24ZM64.32 451.996H63.96V452.716H64.32V451.996Z" fill="#ffffff" fill-rule="evenodd"/><path transform="matrix(1,0,0,-1,0,595.276)" d="M62.4 450.556H62.64V453.316L62.76 453.436H62.64 62.52L62.4 453.556Z" fill="#ffffff" fill-rule="evenodd"/><path transform="matrix(1,0,0,-1,0,595.276)" d="M66.12 453.436 65.88 453.316 66.12 453.196 66.36 452.956 66.48 453.196 66.36 453.316Z" fill="#ffffff" fill-rule="evenodd"/><path transform="matrix(1,0,0,-1,0,595.276)" d="M66 452.836 65.88 452.596 66.12 452.476 66.36 452.236 66.48 452.476 66.36 452.596Z" fill="#ffffff" fill-rule="evenodd"/><path transform="matrix(1,0,0,-1,0,595.276)" d="M65.88 452.116V451.756H66.24V451.156L65.76 450.796 65.88 450.676 66 450.556 66.12 450.676 66.36 450.916V450.796L66.6 450.676 66.84 450.556H67.08 68.76L68.88 450.796H67.32L67.08 450.916H66.84 66.72L66.6 451.036V451.156 452.116Z" fill="#ffffff" fill-rule="evenodd"/><path transform="matrix(1,0,0,-1,0,595.276)" d="M66.72 453.196V452.956H67.56V452.716H66.84V451.876H67.44L67.32 451.756 67.08 451.516 66.84 451.396H66.6L66.84 451.036 67.08 451.156 67.2 451.276 67.44 451.396 67.56 451.636V451.036H67.8V451.636L68.28 451.276 68.64 451.036 68.88 451.396 68.4 451.516 67.92 451.876H68.52V452.716H67.8V452.956H68.64V453.196H67.8V453.436H67.92 67.8L67.56 453.556V453.196H66.72ZM67.2 452.116V452.356H67.56V452.116H67.2ZM67.8 452.116V452.356H68.28V452.116H67.8Z" fill="#ffffff" fill-rule="evenodd"/><path transform="matrix(1,0,0,-1,0,595.276)" d="M70.68 452.956 70.44 453.076 70.32 452.716 70.2 452.476 69.96 452.236 69.72 451.996 69.96 451.756 70.2 451.996 70.44 452.236 70.68 452.596 70.8 452.836V452.956Z" fill="#ffffff" fill-rule="evenodd"/><path transform="matrix(1,0,0,-1,0,595.276)" d="M71.16 452.236 70.92 452.356 70.68 451.636 70.44 451.036 69.96 450.916V450.676L70.08 450.556 70.2 450.676 72 450.916 72.24 450.556 72.48 450.676 72.36 451.036 72.24 451.276 72 451.516 71.76 451.756 71.52 451.636 71.88 451.156 70.8 451.036 71.28 452.116V452.236Z" fill="#ffffff" fill-rule="evenodd"/><path transform="matrix(1,0,0,-1,0,595.276)" d="M70.8 453.316V453.076H71.52V452.716L71.76 452.476 72 452.116 72.48 451.756 72.72 451.996 72.6 452.116 72.36 452.236 72.24 452.476 72 452.596 71.88 452.836V452.956L71.76 453.196V453.316Z" fill="#ffffff" fill-rule="evenodd"/><path transform="matrix(1,0,0,-1,0,595.276)" d="M73.8 452.356H74.28V451.036H74.16V451.876 451.996H74.04 73.8V450.916H73.68L73.8 450.676V450.556L73.92 450.676 75 451.036V451.276L74.64 451.156V451.636H75V451.996H74.64V452.356H74.88V452.716L75.12 452.596 75.48 452.956H76.08L75.96 452.716 75.72 452.476 75.6 452.596V452.836L75.24 452.716 75.36 452.476 75.48 452.356 75.24 452.116 74.88 451.996 75.12 451.756 75.48 451.996 75.72 452.116 76.08 451.876 76.56 451.756 76.8 451.996 76.32 452.116 75.96 452.356 76.32 452.716 76.56 453.076 76.32 453.196H75.6L75.72 453.316V453.436L75.48 453.556 75.24 453.076 74.88 452.836V453.316H73.8V452.356ZM74.16 452.596V453.076H74.52V452.596H74.16Z" fill="#ffffff" fill-rule="evenodd"/><path transform="matrix(1,0,0,-1,0,595.276)" d="M75.12 450.556H75.48V450.676H76.08V450.556H76.44V451.756H75.12V450.556ZM75.48 451.036V451.516H76.08V451.036H75.48Z" fill="#ffffff" fill-rule="evenodd"/><path transform="matrix(1,0,0,-1,0,595.276)" d="M77.76 452.716H78.6L78.36 452.356 78.24 452.116 77.88 451.876 77.64 451.636 77.88 451.396 78.24 451.756V450.556H78.48V452.116L78.72 452.356 78.96 452.716H80.52V453.076H78.96L79.08 453.316H79.2V453.436H79.08 78.84L78.72 453.076H77.76Z" fill="#ffffff" fill-rule="evenodd"/><path transform="matrix(1,0,0,-1,0,595.276)" d="M78.84 451.636H79.44V450.916H78.6V450.676H80.64V450.916H79.8V451.636H80.4V451.996H79.8V452.476L79.68 452.596H79.44V451.996H78.84Z" fill="#ffffff" fill-rule="evenodd"/><path transform="matrix(1,0,0,-1,0,595.276)" d="M82.32 452.956H81.6V452.716H84.6V452.956H83.76L83.88 453.316H84V453.436H83.88 83.64L83.52 453.196 83.4 452.956H82.68V453.196L82.44 453.436H82.2L82.32 453.196Z" fill="#ffffff" fill-rule="evenodd"/><path transform="matrix(1,0,0,-1,0,595.276)" d="M81.84 452.476V450.556H82.08V451.156H82.8V451.036 450.916H82.68 82.56 82.44L82.56 450.556H82.68L82.92 450.676H83.04V450.916 451.036 452.476H81.84ZM82.08 451.396V451.636H82.8V451.396H82.08ZM82.08 451.876V452.236H82.8V451.876H82.08Z" fill="#ffffff" fill-rule="evenodd"/><path transform="matrix(1,0,0,-1,0,595.276)" d="M83.4 452.356V451.036H83.64V452.236H83.76V452.356H83.64Z" fill="#ffffff" fill-rule="evenodd"/><path transform="matrix(1,0,0,-1,0,595.276)" d="M84.12 452.476V451.036 450.916H84 83.88 83.64L83.76 450.556H84 84.12L84.24 450.676 84.36 450.796V451.036 452.356L84.48 452.476H84.36Z" fill="#ffffff" fill-rule="evenodd"/><path transform="matrix(1,0,0,-1,0,595.276)" d="M85.56 453.316V453.076H86.88L86.76 452.716H85.8V450.556H86.04V450.676H87.96V450.556H88.32V452.716H87.12L87.24 453.076H88.44V453.316H85.56ZM86.76 451.036V451.276H87.24V451.036H86.76ZM86.76 452.116V452.356H87.24V452.116H86.76ZM86.76 451.516V451.876H87.24V451.516H86.76ZM86.04 451.036V452.356H86.52V451.036H86.04ZM87.6 451.036V452.356H87.96V451.036H87.6Z" fill="#ffffff" fill-rule="evenodd"/><path transform="matrix(1,0,0,-1,0,595.276)" d="M89.64 453.316V453.076H90.72L90.6 452.236H89.88V451.996H90.48L90.36 451.036H89.52V450.676H92.4V451.036H91.8L91.92 452.236H90.84L90.96 453.076H92.28V453.316H89.64ZM90.6 451.036 90.84 451.996H91.56L91.44 451.036H90.6Z" fill="#ffffff" fill-rule="evenodd"/><path transform="matrix(1,0,0,-1,0,595.276)" d="M93.6 453.076H94.8L94.56 452.716H93.84V450.556H94.2V450.796H95.64V450.556H96V452.716H94.92L95.04 453.076H96.36V453.316H93.6V453.076ZM94.2 451.876V452.356H95.64V451.876H94.2ZM94.2 451.036V451.636H95.64V451.036H94.2Z" fill="#ffffff" fill-rule="evenodd"/><path transform="matrix(1,0,0,-1,0,595.276)" d="M97.92 453.196 97.68 452.956 97.92 452.716 98.16 452.476 98.52 452.596 98.16 452.956Z" fill="#ffffff" fill-rule="evenodd"/><path transform="matrix(1,0,0,-1,0,595.276)" d="M97.44 452.116H98.52L98.4 451.756 98.04 451.516 97.8 451.276 97.44 451.036 97.68 450.796 98.04 451.036 98.28 451.276 98.52 451.516 98.76 451.756V450.556H99V451.876L99.24 451.516 99.6 451.276 99.84 451.036 100.08 450.796 100.32 451.036 99.96 451.276 99.72 451.516 99.48 451.756 99.24 452.116H100.32V452.356H99V453.316L99.12 453.436H99L98.76 453.556V452.356H97.44Z" fill="#ffffff" fill-rule="evenodd"/><path transform="matrix(1,0,0,-1,0,595.276)" d="M99.36 452.596 99.6 452.476 100.08 452.956V453.076L99.72 453.196 99.6 452.836Z" fill="#ffffff" fill-rule="evenodd"/><path transform="matrix(1,0,0,-1,0,595.276)" d="M101.52 450.556H101.76V452.236H102.72V453.436H101.52V450.556ZM101.76 452.476V452.716H102.36V452.476H101.76ZM101.76 452.956V453.196H102.36V452.956H101.76Z" fill="#ffffff" fill-rule="evenodd"/><path transform="matrix(1,0,0,-1,0,595.276)" d="M102 452.116V451.876H102.48V451.636 451.516H101.88V451.276H102.36L102.24 451.036 102 450.796 102.24 450.556 102.36 450.676 102.48 450.916 102.6 451.036 102.72 451.276H103.08V450.556H103.32V451.276H103.8V451.516H103.32V451.876H103.68V452.116H102ZM102.72 451.876H103.08V451.516H102.72V451.876Z" fill="#ffffff" fill-rule="evenodd"/><path transform="matrix(1,0,0,-1,0,595.276)" d="M102.96 452.236H103.92V451.036 450.916L103.8 450.796 103.56 450.916 103.68 450.556H103.8 103.92 104.04L104.16 450.676 104.28 450.796V450.916 451.036 453.436H102.96V452.236ZM103.32 452.596V452.716H103.92V452.596H103.32ZM103.32 452.956V453.196H103.92V452.956H103.32Z" fill="#ffffff" fill-rule="evenodd"/><path transform="matrix(1,0,0,-1,0,595.276)" d="M105.72 453.436 105.6 452.836H105.36V452.476H105.6L105.48 451.996 105.36 451.396 105.6 451.276 105.72 451.516 105.96 451.276 105.84 451.156 105.72 451.036 105.48 450.916 105.24 450.796 105.6 450.556 105.84 450.796 106.2 451.156 106.44 450.796 106.68 451.036 106.32 451.396 106.44 451.756V452.116 452.356L106.56 452.836H105.96V453.316H106.08V453.436H105.72ZM105.96 452.476H106.2V451.996L106.08 451.516 105.72 451.756 105.96 452.476Z" fill="#ffffff" fill-rule="evenodd"/><path transform="matrix(1,0,0,-1,0,595.276)" d="M107.16 453.436 106.8 452.356H106.56V452.236 452.116H106.68 106.8L107.88 452.356 108 451.996 108.24 452.116 108.12 452.596 107.88 452.956H107.64L107.76 452.596 107.04 452.476 107.4 453.196V453.316H107.52 107.4Z" fill="#ffffff" fill-rule="evenodd"/><path transform="matrix(1,0,0,-1,0,595.276)" d="M106.8 451.876V450.556H107.04V450.676H107.76V450.556H108.12V451.876H106.8ZM107.04 451.036V451.636H107.76V451.036H107.04Z" fill="#ffffff" fill-rule="evenodd"/><path transform="matrix(1,0,0,-1,0,595.276)" stroke-width=".12" stroke-linecap="round" stroke-linejoin="round" fill="none" stroke="#0000ff" d="M58.56 458.596H111.48C112.08 458.596 112.56 458.116 112.56 457.516V449.716C112.56 449.116 112.08 448.636 111.48 448.636H58.56C57.96 448.636 57.48 449.116 57.48 449.716V457.516C57.48 458.116 57.96 458.596 58.56 458.596"/></g></svg>