<?xml version='1.0' encoding='UTF-8'?>
<svg width="553.84" height="246.04" viewBox="5.83 17.98 553.84 246.04" xmlns="http://www.w3.org/2000/svg" xmlns:xlink="http://www.w3.org/1999/xlink" xmlns:inkscape="http://www.inkscape.org/namespaces/inkscape" version="1.1"><g transform="scale(10.0) translate(-493.095, -343.440)"><path transform="matrix(1,0,0,-1,0,595.276)" d="M495.84 249.436H540.96C541.2 249.436 541.44 249.316 541.68 249.196 541.92 249.076 542.16 248.836 542.28 248.596L548.28 238.036C548.4 238.036 548.4 237.796 548.4 237.676 548.4 237.556 548.4 237.436 548.28 237.316L542.28 226.756C542.16 226.516 541.92 226.396 541.68 226.156 541.44 226.036 541.2 226.036 540.96 226.036H495.84C495.48 226.036 495 226.156 494.76 226.396 494.4 226.756 494.28 227.116 494.28 227.476V247.876C494.28 248.116 494.28 248.236 494.4 248.476 494.52 248.596 494.64 248.836 494.76 248.956 495 249.316 495.48 249.436 495.84 249.436Z" fill="#ffffff" fill-rule="evenodd"/><path transform="matrix(1,0,0,-1,0,595.276)" d="M495.84 248.596H540.96C541.08 248.596 541.2 248.596 541.32 248.596 541.44 248.476 541.56 248.356 541.56 248.236L547.68 237.676 541.56 227.116C541.56 226.996 541.44 226.996 541.32 226.876 541.2 226.756 541.08 226.756 540.96 226.756H495.84C495.6 226.756 495.48 226.876 495.24 226.996 495.12 227.116 495.12 227.356 495.12 227.476V247.876C495.12 247.996 495.12 248.116 495.12 248.116 495.12 248.236 495.24 248.356 495.24 248.476 495.48 248.596 495.6 248.596 495.84 248.596Z" fill="#0000ff" fill-rule="evenodd"/><path transform="matrix(1,0,0,-1,0,595.276)" stroke-width=".12" stroke-linecap="butt" stroke-miterlimit="10" stroke-linejoin="miter" fill="none" stroke="#ffffff" d="M497.5 232.5V232.5"/><path transform="matrix(1,0,0,-1,0,595.276)" d="M497.76 233.476 498 233.596C497.88 233.836 497.64 233.836 497.4 233.836 497.28 233.836 497.04 233.836 497.04 233.716 496.92 233.596 496.8 233.476 496.8 233.356 496.8 233.236 496.92 233.116 497.04 232.996H497.16C497.16 232.996 497.28 232.876 497.4 232.876 497.52 232.876 497.64 232.876 497.76 232.756 497.76 232.756 497.76 232.636 497.76 232.516 497.76 232.516 497.64 232.396 497.4 232.396 497.28 232.396 497.16 232.516 497.04 232.636L496.8 232.516C496.8 232.396 496.92 232.396 496.92 232.276 497.16 232.276 497.28 232.156 497.4 232.156 497.64 232.156 497.76 232.276 497.88 232.396 498 232.396 498 232.396 498 232.516V232.636H498.12V232.756H498C498 232.876 498 232.996 497.88 232.996 497.88 233.116 497.88 233.116 497.76 233.116H497.64L497.28 233.236H497.16V233.356C497.16 233.476 497.16 233.476 497.16 233.596 497.28 233.596 497.28 233.596 497.4 233.596 497.52 233.596 497.64 233.596 497.76 233.476Z" fill="#ffffff" fill-rule="evenodd"/><path transform="matrix(1,0,0,-1,0,595.276)" stroke-width=".12" stroke-linecap="butt" stroke-miterlimit="10" stroke-linejoin="miter" fill="none" stroke="#ffffff" d="M498.5 233.5V233.5"/><path transform="matrix(1,0,0,-1,0,595.276)" d="M498.72 233.356C498.84 233.356 498.96 233.476 499.2 233.356 499.44 233.236 499.44 232.996 499.44 232.756 499.44 232.636 499.44 232.396 499.2 232.276 499.08 232.156 499.08 232.156 498.96 232.156 498.84 232.156 498.72 232.156 498.72 232.276H498.6V232.156 231.796H498.36V233.356H498.6 498.72ZM498.72 233.116C498.72 232.996 498.6 232.996 498.6 232.876V232.636C498.6 232.516 498.72 232.516 498.72 232.516 498.84 232.396 498.84 232.396 498.96 232.396 499.08 232.396 499.08 232.516 499.08 232.516 499.2 232.756 499.2 232.876 499.08 232.996 499.08 233.116 498.96 233.116 498.96 233.116 498.84 233.116 498.72 233.116 498.72 233.116Z" fill="#ffffff" fill-rule="evenodd"/><path transform="matrix(1,0,0,-1,0,595.276)" stroke-width=".12" stroke-linecap="butt" stroke-miterlimit="10" stroke-linejoin="miter" fill="none" stroke="#ffffff" d="M500.5 232.5V232.5"/><path transform="matrix(1,0,0,-1,0,595.276)" d="M500.64 232.156 500.76 232.396H500.64V232.516 232.876 232.996 233.116 233.236C500.52 233.356 500.52 233.356 500.4 233.356 500.28 233.356 500.28 233.476 500.16 233.356 500.04 233.356 500.04 233.356 499.92 233.356H499.8L499.68 233.236 499.8 233.116H499.92 500.04C500.04 233.236 500.04 233.236 500.16 233.236H500.28L500.4 233.116V232.996L500.16 232.876H500.04 499.92C499.92 232.876 499.8 232.876 499.8 232.756 499.68 232.756 499.68 232.636 499.68 232.516 499.68 232.516 499.68 232.396 499.8 232.396 499.8 232.276 499.8 232.276 499.92 232.276 499.92 232.156 500.04 232.156 500.04 232.156 500.16 232.156 500.16 232.156 500.28 232.156L500.4 232.276H500.52C500.52 232.156 500.64 232.156 500.64 232.156ZM500.04 232.396V232.396C499.92 232.396 499.92 232.516 499.92 232.516V232.636H500.04C500.04 232.636 500.04 232.756 500.16 232.756H500.28 500.4V232.516 232.396H500.28C500.16 232.396 500.16 232.396 500.04 232.396Z" fill="#ffffff" fill-rule="evenodd"/><path transform="matrix(1,0,0,-1,0,595.276)" d="M500.64 232.156V232.156Z" fill="#ffffff" fill-rule="evenodd"/><path transform="matrix(1,0,0,-1,0,595.276)" d="M499.8 233.116V233.116Z" fill="#ffffff" fill-rule="evenodd"/><path transform="matrix(1,0,0,-1,0,595.276)" d="M501.48 232.396H501.6C501.72 232.396 501.72 232.516 501.72 232.516 501.84 232.516 501.84 232.516 501.84 232.636L502.08 232.516 501.96 232.396V232.276H501.84C501.72 232.156 501.6 232.156 501.6 232.156 501.48 232.156 501.36 232.156 501.24 232.276 501.12 232.276 501.12 232.396 501 232.516 501 232.636 501 232.756 501 232.876 501 232.996 501.12 233.116 501.12 233.236 501.24 233.236 501.24 233.356 501.36 233.356 501.48 233.356 501.6 233.356 501.72 233.356 501.84 233.356 501.84 233.356 501.96 233.236V233.116H502.08L501.84 232.996 501.72 233.116C501.6 233.236 501.48 233.116 501.48 233.116 501.36 233.116 501.36 232.996 501.36 232.996 501.24 232.876 501.24 232.756 501.24 232.636 501.36 232.516 501.36 232.396 501.48 232.396Z" fill="#ffffff" fill-rule="evenodd"/><path transform="matrix(1,0,0,-1,0,595.276)" d="M502.68 232.156C502.8 232.156 502.92 232.156 503.04 232.276 503.16 232.276 503.16 232.276 503.28 232.396L503.04 232.516C503.04 232.396 502.92 232.396 502.8 232.396 502.8 232.396 502.68 232.396 502.56 232.396V232.516C502.56 232.636 502.44 232.636 502.56 232.756H503.28C503.28 232.876 503.28 232.876 503.28 232.996 503.16 233.116 503.16 233.236 503.04 233.356 502.92 233.476 502.68 233.476 502.44 233.356 502.32 233.236 502.32 233.116 502.2 232.876 502.2 232.756 502.2 232.636 502.32 232.516 502.32 232.396 502.44 232.276 502.44 232.276 502.56 232.276 502.56 232.156 502.68 232.156ZM502.44 232.876 502.56 232.996C502.56 233.116 502.56 233.116 502.68 233.116 502.68 233.236 502.8 233.236 502.92 233.116H503.04C503.04 232.996 503.04 232.996 503.04 232.876H502.44Z" fill="#ffffff" fill-rule="evenodd"/><path transform="matrix(1,0,0,-1,0,595.276)" d="M503.88 232.996H504C504.12 232.996 504.36 232.876 504.36 232.756 504.36 232.636 504.36 232.636 504.36 232.516 504.36 232.396 504.36 232.396 504.36 232.276 504.24 232.276 504 232.156 503.88 232.156 503.76 232.156 503.52 232.276 503.4 232.396L503.64 232.636C503.64 232.516 503.64 232.516 503.76 232.516 503.76 232.396 503.88 232.396 503.88 232.396H504L504.12 232.516V232.636C504 232.636 504 232.756 503.88 232.756H503.76C503.64 232.756 503.52 232.756 503.52 232.876 503.52 232.996 503.52 232.996 503.52 233.116V233.236C503.64 233.356 503.76 233.356 503.76 233.356H503.88C504 233.476 504.24 233.356 504.36 233.236L504.24 233.116C504.12 233.116 504 233.116 504 233.116H503.88 503.76C503.76 232.996 503.76 232.996 503.88 232.996Z" fill="#ffffff" fill-rule="evenodd"/><path transform="matrix(1,0,0,-1,0,595.276)" d="M505.8 233.116H505.92V232.996 232.156H506.16V232.996C506.16 233.116 506.16 233.116 506.16 233.236 506.04 233.236 506.04 233.356 505.92 233.356 505.92 233.356 505.8 233.356 505.68 233.356 505.68 233.356 505.56 233.356 505.56 233.236V233.356H505.2V232.156H505.56V232.876C505.56 232.996 505.56 232.996 505.56 233.116 505.68 233.116 505.68 233.116 505.8 233.116Z" fill="#ffffff" fill-rule="evenodd"/><path transform="matrix(1,0,0,-1,0,595.276)" d="M506.52 232.756C506.52 232.636 506.52 232.516 506.64 232.396 506.76 232.276 507 232.156 507.12 232.156 507.24 232.156 507.36 232.276 507.48 232.396 507.6 232.516 507.72 232.636 507.72 232.756 507.72 232.996 507.6 233.116 507.48 233.236 507.36 233.356 507.24 233.356 507.12 233.356 507 233.356 506.76 233.356 506.64 233.236 506.52 233.116 506.52 232.996 506.52 232.756ZM507.12 233.116C507.12 233.116 507.24 233.116 507.36 232.996 507.36 232.996 507.36 232.876 507.36 232.756 507.36 232.756 507.36 232.636 507.36 232.516 507.24 232.516 507.12 232.396 507.12 232.396 507 232.396 506.88 232.516 506.88 232.516 506.76 232.636 506.76 232.756 506.76 232.756 506.76 232.876 506.76 232.996 506.88 232.996 506.88 233.116 507 233.116 507.12 233.116Z" fill="#ffffff" fill-rule="evenodd"/><path transform="matrix(1,0,0,-1,0,595.276)" d="M508.2 232.396C508.2 232.396 508.2 232.516 508.08 232.516 507.96 232.516 507.96 232.396 507.96 232.396 507.96 232.276 507.96 232.156 508.08 232.156 508.2 232.156 508.2 232.276 508.2 232.396Z" fill="#ffffff" fill-rule="evenodd"/><path transform="matrix(1,0,0,-1,0,595.276)" d="M498.36 246.916C498.72 246.916 499.08 246.436 499.08 245.956 499.08 245.716 499.08 245.476 498.84 245.356 498.72 245.116 498.48 245.116 498.36 245.116H497.64V244.036H497.16V246.916H498.36ZM497.64 246.436V245.476H498.24 498.36C498.36 245.596 498.48 245.596 498.48 245.596 498.6 245.716 498.6 245.836 498.6 245.956 498.6 246.076 498.6 246.196 498.48 246.316 498.36 246.436 498.36 246.436 498.24 246.436H497.64Z" fill="#ffffff" fill-rule="evenodd"/><path transform="matrix(1,0,0,-1,0,595.276)" d="M501.36 244.276H501.24V244.396C501.12 244.396 501.12 244.396 501.12 244.516V245.116C501.12 245.236 501.12 245.236 501.12 245.356 501.12 245.476 501.12 245.476 501.12 245.596 501.12 245.716 501.12 245.716 501 245.836 501 245.956 500.88 245.956 500.76 246.076 500.64 246.076 500.4 246.076 500.28 246.076 500.16 246.076 500.04 246.076 499.92 246.076 499.92 246.076 499.8 245.956 499.68 245.956 499.68 245.956 499.56 245.956 499.56 245.836L499.68 245.596H499.92C500.04 245.716 500.16 245.716 500.16 245.716 500.28 245.716 500.4 245.716 500.52 245.716 500.52 245.716 500.64 245.716 500.64 245.596L500.76 245.476V245.356 245.236H500.4C500.28 245.236 500.28 245.236 500.16 245.236 500.04 245.236 500.04 245.236 499.92 245.116 499.8 245.116 499.68 245.116 499.56 244.996 499.56 244.876 499.44 244.756 499.44 244.636 499.44 244.516 499.56 244.276 499.56 244.276 499.68 244.156 499.8 244.036 499.8 244.036 499.92 244.036 500.04 243.916 500.16 243.916 500.28 243.916 500.4 243.916 500.52 244.036 500.64 244.036 500.76 244.036 500.76 244.156 500.88 244.156 500.88 244.036 501 244.036L501.12 243.916 501.36 244.276ZM500.16 244.276 500.04 244.396C499.92 244.396 499.92 244.516 499.92 244.516V244.636C499.92 244.756 500.04 244.756 500.04 244.876 500.16 244.876 500.16 244.876 500.28 244.876 500.28 244.876 500.4 244.876 500.52 244.876 500.52 244.876 500.64 244.876 500.76 244.996V244.636 244.516L500.64 244.396 500.52 244.276C500.4 244.276 500.28 244.276 500.16 244.276Z" fill="#ffffff" fill-rule="evenodd"/><path transform="matrix(1,0,0,-1,0,595.276)" d="M501.36 244.276V244.276Z" fill="#ffffff" fill-rule="evenodd"/><path transform="matrix(1,0,0,-1,0,595.276)" d="M502.44 245.836C502.44 245.956 502.56 245.956 502.68 246.076 502.8 246.076 502.92 246.076 503.04 246.076V245.596C502.92 245.596 502.68 245.596 502.56 245.476 502.56 245.476 502.44 245.476 502.44 245.356V245.236 244.036H501.96V246.076H502.44V245.836Z" fill="#ffffff" fill-rule="evenodd"/><path transform="matrix(1,0,0,-1,0,595.276)" d="M503.88 245.236V246.916H503.4V244.036H503.88V244.636L504.12 244.876 504.72 244.036H505.32L504.48 245.236 505.2 246.076H504.6Z" fill="#ffffff" fill-rule="evenodd"/><path transform="matrix(1,0,0,-1,0,595.276)" d="M506.04 244.036V246.076H505.68V244.036Z" fill="#ffffff" fill-rule="evenodd"/><path transform="matrix(1,0,0,-1,0,595.276)" d="M506.16 246.676C506.16 246.796 506.04 246.916 505.92 246.916 505.68 246.916 505.56 246.796 505.56 246.676 505.56 246.436 505.68 246.316 505.92 246.316 506.04 246.316 506.16 246.436 506.16 246.676Z" fill="#ffffff" fill-rule="evenodd"/><path transform="matrix(1,0,0,-1,0,595.276)" d="M507.6 245.596C507.72 245.596 507.72 245.596 507.84 245.596 507.96 245.476 507.96 245.356 507.96 245.356V244.036H508.44V245.356C508.44 245.596 508.32 245.716 508.2 245.836 508.2 245.956 508.08 245.956 507.96 246.076 507.84 246.076 507.72 246.076 507.6 246.076 507.36 246.076 507.24 245.956 507.12 245.956V246.076H506.76V244.036H507.12V245.236C507.12 245.356 507.24 245.476 507.24 245.596 507.36 245.596 507.48 245.596 507.6 245.596Z" fill="#ffffff" fill-rule="evenodd"/><path transform="matrix(1,0,0,-1,0,595.276)" d="M510.24 245.956V246.076H510.72V243.916 243.796C510.6 243.556 510.24 243.316 509.88 243.316 509.64 243.316 509.28 243.316 509.04 243.436L509.16 243.916C509.28 243.796 509.52 243.676 509.76 243.676 510 243.676 510.12 243.796 510.24 243.916V244.036 244.156 244.276H510.12C510 244.156 509.88 244.156 509.88 244.156L509.4 244.276C509.16 244.396 508.92 244.636 508.92 245.116 508.92 246.076 509.88 246.076 509.88 246.076 509.88 246.076 510 246.076 510.12 246.076L510.24 245.956ZM509.88 245.596C509.88 245.596 509.76 245.596 509.64 245.596 509.52 245.476 509.4 245.356 509.4 245.116 509.4 244.636 509.88 244.636 509.88 244.636 509.88 244.636 510.24 244.636 510.24 245.116 510.24 245.356 510.12 245.476 510 245.596H509.88Z" fill="#ffffff" fill-rule="evenodd"/><path transform="matrix(1,0,0,-1,0,595.276)" d="M512.88 246.076H512.4V244.036H512.88V245.236C512.88 245.356 512.88 245.476 513 245.476 513 245.596 513.12 245.596 513.24 245.596 513.24 245.716 513.36 245.596 513.48 245.596V245.476 245.356 244.036H513.96V245.236C513.96 245.356 514.08 245.476 514.08 245.476 514.2 245.596 514.32 245.596 514.32 245.596 514.44 245.716 514.56 245.596 514.56 245.596L514.68 245.476V245.356 244.036H515.16V245.476 245.596C515.04 245.716 514.92 245.836 514.8 245.956 514.68 246.076 514.44 246.076 514.32 246.076 514.2 246.076 514.08 246.076 514.08 245.956 513.96 245.956 513.84 245.836 513.84 245.836 513.72 245.956 513.48 246.076 513.24 246.076 513.12 246.076 513.12 246.076 513 246.076 513 245.956 512.88 245.956 512.88 245.956V246.076Z" fill="#ffffff" fill-rule="evenodd"/><path transform="matrix(1,0,0,-1,0,595.276)" d="M516.36 243.916C516.6 243.916 516.84 243.916 517.08 244.036 517.2 244.036 517.32 244.156 517.32 244.276L517.08 244.516C516.96 244.396 516.84 244.396 516.72 244.396 516.6 244.276 516.36 244.396 516.24 244.396 516.24 244.516 516.12 244.516 516.12 244.636 516.12 244.756 516.12 244.756 516.12 244.876H517.44C517.44 245.116 517.44 245.236 517.44 245.476 517.32 245.596 517.2 245.836 517.08 245.956 516.84 246.076 516.36 246.076 516.12 245.956 515.88 245.836 515.64 245.596 515.64 245.236 515.64 244.996 515.64 244.756 515.76 244.396 515.76 244.276 515.88 244.156 516 244.156 516.12 244.036 516.24 243.916 516.36 243.916ZM516.12 245.236C516.12 245.236 516.12 245.356 516.12 245.476 516.24 245.596 516.24 245.596 516.36 245.596 516.48 245.716 516.6 245.716 516.72 245.596 516.84 245.596 516.84 245.596 516.96 245.476 516.96 245.356 517.08 245.236 517.08 245.236H516.12Z" fill="#ffffff" fill-rule="evenodd"/><path transform="matrix(1,0,0,-1,0,595.276)" d="M518.64 244.516C518.64 244.396 518.64 244.396 518.76 244.396 518.76 244.396 518.88 244.396 519 244.396H519.12L519.24 244.036C519 243.916 518.76 243.916 518.52 244.036 518.4 244.036 518.28 244.156 518.28 244.156 518.16 244.276 518.16 244.276 518.16 244.396V245.596H517.8V246.076H518.16V246.676L518.64 246.916V246.076H519.24V245.596H518.64V244.516Z" fill="#ffffff" fill-rule="evenodd"/><path transform="matrix(1,0,0,-1,0,595.276)" d="M520.32 243.916C520.44 243.916 520.8 243.916 520.92 244.036 521.04 244.036 521.16 244.156 521.28 244.276L520.92 244.516C520.8 244.396 520.68 244.396 520.56 244.396 520.44 244.276 520.32 244.396 520.2 244.396 520.08 244.516 520.08 244.516 519.96 244.636 519.96 244.756 519.96 244.756 519.96 244.876H521.28C521.28 245.116 521.28 245.236 521.28 245.476 521.16 245.596 521.04 245.836 520.92 245.956 520.68 246.076 520.32 246.076 519.96 245.956 519.72 245.836 519.6 245.596 519.48 245.236 519.48 244.996 519.48 244.756 519.6 244.396 519.72 244.276 519.72 244.156 519.84 244.156 519.96 244.036 520.08 243.916 520.32 243.916ZM519.96 245.236C519.96 245.236 519.96 245.356 520.08 245.476 520.08 245.596 520.08 245.596 520.2 245.596 520.32 245.716 520.44 245.716 520.68 245.596 520.68 245.596 520.8 245.596 520.8 245.476 520.8 245.356 520.92 245.236 520.92 245.236H519.96Z" fill="#ffffff" fill-rule="evenodd"/><path transform="matrix(1,0,0,-1,0,595.276)" d="M522.36 245.836C522.36 245.956 522.48 245.956 522.6 246.076 522.72 246.076 522.84 246.076 522.96 246.076V245.596C522.84 245.596 522.6 245.596 522.48 245.476L522.36 245.356V245.236 244.036H521.88V246.076H522.36V245.836Z" fill="#ffffff" fill-rule="evenodd"/><path transform="matrix(1,0,0,-1,0,595.276)" d="M497.64 241.036C497.4 241.036 497.28 241.156 497.28 241.276 497.16 241.396 497.04 241.636 497.04 241.876 497.04 242.116 497.16 242.356 497.28 242.476 497.28 242.596 497.28 242.596 497.4 242.716 497.4 242.716 497.52 242.716 497.64 242.716L497.4 242.956C497.28 242.956 497.16 242.836 496.92 242.716 496.8 242.476 496.8 242.236 496.8 241.876 496.8 241.516 496.8 241.276 496.92 241.036 497.04 241.036 497.16 240.916 497.16 240.916 497.28 240.796 497.4 240.796 497.4 240.796L497.64 241.036Z" fill="#ffffff" fill-rule="evenodd"/><path transform="matrix(1,0,0,-1,0,595.276)" d="M498.72 242.956C498.6 242.956 498.36 242.836 498.24 242.596 498.12 242.476 498 242.236 498 241.996 498 241.876 498.12 241.636 498.24 241.396 498.36 241.276 498.6 241.156 498.72 241.156 498.96 241.156 499.2 241.276 499.32 241.396 499.44 241.636 499.56 241.876 499.56 241.996 499.56 242.236 499.44 242.476 499.32 242.596 499.2 242.836 498.96 242.956 498.72 242.956ZM498.72 242.596C498.84 242.596 498.96 242.596 499.08 242.476 499.2 242.356 499.2 242.236 499.2 241.996 499.2 241.756 499.08 241.396 498.72 241.396 498.72 241.396 498.6 241.516 498.48 241.636 498.36 241.756 498.36 241.876 498.36 241.996 498.36 242.356 498.48 242.596 498.72 242.596Z" fill="#ffffff" fill-rule="evenodd"/><path transform="matrix(1,0,0,-1,0,595.276)" d="M500.28 241.396H500.4C500.52 241.396 500.52 241.516 500.52 241.516L500.64 241.636 500.76 241.516V241.396C500.76 241.396 500.76 241.276 500.64 241.276H500.52C500.52 241.156 500.4 241.156 500.28 241.156 500.16 241.156 500.16 241.276 500.04 241.276 499.92 241.396 499.8 241.396 499.8 241.516 499.8 241.636 499.8 241.756 499.8 241.876 499.8 241.996 499.8 242.116 499.92 242.236 500.04 242.236 500.04 242.356 500.16 242.356 500.28 242.356 500.4 242.476 500.4 242.356 500.52 242.356 500.64 242.356 500.76 242.236V242.116L500.64 241.996C500.52 241.996 500.52 242.116 500.52 242.116H500.4C500.4 242.236 500.28 242.236 500.16 242.116 500.16 242.116 500.16 241.996 500.04 241.996 500.04 241.876 500.04 241.756 500.04 241.636 500.04 241.516 500.16 241.396 500.28 241.396Z" fill="#ffffff" fill-rule="evenodd"/><path transform="matrix(1,0,0,-1,0,595.276)" d="M501.48 241.516V241.396H501.6 501.72V241.276C501.6 241.156 501.48 241.156 501.36 241.276H501.24V241.396 242.116H501V242.356H501.24V242.716L501.48 242.836V242.356H501.72V242.116H501.48V241.516Z" fill="#ffffff" fill-rule="evenodd"/><path transform="matrix(1,0,0,-1,0,595.276)" d="M501.96 241.756C501.96 241.636 501.96 241.516 502.08 241.396 502.2 241.276 502.44 241.156 502.56 241.156 502.68 241.156 502.8 241.276 502.92 241.396 503.04 241.516 503.16 241.636 503.16 241.756 503.16 241.996 503.04 242.116 502.92 242.236 502.8 242.356 502.68 242.356 502.56 242.356 502.44 242.356 502.2 242.356 502.08 242.236 501.96 242.116 501.96 241.996 501.96 241.756ZM502.56 242.116C502.56 242.116 502.68 242.116 502.8 242.116 502.8 241.996 502.8 241.876 502.8 241.756 502.8 241.756 502.8 241.636 502.8 241.516 502.68 241.516 502.56 241.396 502.56 241.396 502.44 241.396 502.32 241.516 502.32 241.516 502.2 241.636 502.2 241.756 502.2 241.756 502.2 241.876 502.2 241.996 502.32 242.116 502.32 242.116 502.44 242.116 502.56 242.116Z" fill="#ffffff" fill-rule="evenodd"/><path transform="matrix(1,0,0,-1,0,595.276)" stroke-width=".12" stroke-linecap="butt" stroke-miterlimit="10" stroke-linejoin="miter" fill="none" stroke="#ffffff" d="M503.5 242.5V242.5"/><path transform="matrix(1,0,0,-1,0,595.276)" d="M503.76 242.356C503.88 242.356 504 242.476 504.24 242.356 504.36 242.236 504.48 241.996 504.48 241.756 504.48 241.636 504.48 241.396 504.24 241.276 504.12 241.156 504 241.156 504 241.156 503.88 241.156 503.76 241.156 503.76 241.276H503.64V240.796H503.4V242.356H503.64 503.76ZM503.76 242.116C503.76 241.996 503.64 241.996 503.64 241.876V241.756 241.636L503.76 241.516C503.88 241.396 503.88 241.396 504 241.396L504.12 241.516C504.24 241.756 504.24 241.876 504.12 242.116H504C503.88 242.116 503.76 242.116 503.76 242.116Z" fill="#ffffff" fill-rule="evenodd"/><path transform="matrix(1,0,0,-1,0,595.276)" d="M505.32 241.156C505.2 241.156 505.08 241.276 504.96 241.276 504.84 241.396 504.84 241.516 504.84 241.636V242.356H505.08V241.636C505.08 241.636 505.08 241.516 505.2 241.516 505.2 241.396 505.2 241.396 505.32 241.396 505.32 241.396 505.44 241.396 505.44 241.516L505.56 241.636V242.356H505.8V241.276H505.56 505.44L505.32 241.156Z" fill="#ffffff" fill-rule="evenodd"/><path transform="matrix(1,0,0,-1,0,595.276)" d="M506.4 241.996H506.52 506.64C506.76 241.996 506.88 241.876 507 241.756 507 241.636 507 241.636 507 241.516 507 241.516 507 241.396 506.88 241.396 506.76 241.276 506.64 241.156 506.52 241.156 506.28 241.156 506.16 241.276 506.04 241.396L506.16 241.636C506.16 241.516 506.28 241.516 506.28 241.516 506.4 241.396 506.4 241.396 506.52 241.396 506.64 241.396 506.64 241.516 506.64 241.516H506.76V241.636H506.64L506.52 241.756H506.4C506.28 241.756 506.16 241.876 506.04 241.876 506.04 241.996 506.04 241.996 506.04 242.116 506.04 242.116 506.04 242.236 506.16 242.236 506.16 242.356 506.28 242.356 506.4 242.356 506.64 242.476 506.76 242.356 507 242.236L506.76 242.116C506.76 242.116 506.64 242.116 506.52 242.116H506.4V241.996Z" fill="#ffffff" fill-rule="evenodd"/><path transform="matrix(1,0,0,-1,0,595.276)" d="M508.32 241.396H508.44L508.56 241.516V241.636L508.8 241.516V241.396L508.68 241.276H508.56C508.56 241.156 508.44 241.156 508.32 241.156 508.2 241.156 508.08 241.276 508.08 241.276 507.96 241.396 507.84 241.396 507.84 241.516 507.84 241.636 507.84 241.756 507.84 241.876 507.84 241.996 507.84 242.116 507.96 242.236 507.96 242.236 508.08 242.356 508.2 242.356 508.32 242.356 508.32 242.476 508.44 242.356 508.56 242.356 508.68 242.356 508.8 242.236V242.116L508.56 241.996V242.116H508.44C508.44 242.236 508.32 242.236 508.2 242.116L508.08 241.996C508.08 241.876 508.08 241.756 508.08 241.636 508.08 241.516 508.2 241.396 508.32 241.396Z" fill="#ffffff" fill-rule="evenodd"/><path transform="matrix(1,0,0,-1,0,595.276)" d="M510.12 241.396H510V241.516 241.876 241.996 242.116C510 242.236 509.88 242.236 509.88 242.236 509.88 242.356 509.76 242.356 509.76 242.356 509.64 242.476 509.52 242.476 509.4 242.476L509.28 242.356H509.16 509.04L509.16 242.116H509.28C509.28 242.236 509.4 242.236 509.4 242.236H509.52C509.64 242.236 509.64 242.116 509.64 242.116H509.76V241.996L509.52 241.876H509.4 509.28C509.16 241.876 509.16 241.876 509.04 241.756 509.04 241.756 509.04 241.636 509.04 241.516V241.396L509.16 241.276C509.28 241.156 509.28 241.156 509.4 241.156 509.4 241.156 509.52 241.156 509.64 241.276H509.76 509.88C509.88 241.156 509.88 241.156 510 241.156L510.12 241.396ZM509.4 241.396H509.28V241.516 241.636L509.4 241.756H509.52C509.64 241.756 509.64 241.756 509.76 241.756V241.516H509.64V241.396H509.52 509.4Z" fill="#ffffff" fill-rule="evenodd"/><path transform="matrix(1,0,0,-1,0,595.276)" d="M510.12 241.396V241.396Z" fill="#ffffff" fill-rule="evenodd"/><path transform="matrix(1,0,0,-1,0,595.276)" d="M509.04 242.356V242.356Z" fill="#ffffff" fill-rule="evenodd"/><path transform="matrix(1,0,0,-1,0,595.276)" d="M510.72 242.236C510.72 242.356 510.72 242.356 510.84 242.356 510.96 242.476 510.96 242.476 511.08 242.356V242.116C510.96 242.116 510.84 242.116 510.72 242.116V241.996 241.876 241.276H510.36V242.356H510.72V242.236Z" fill="#ffffff" fill-rule="evenodd"/><path transform="matrix(1,0,0,-1,0,595.276)" d="M512.04 242.836H512.28V241.276H512.04 511.92C511.8 241.276 511.8 241.156 511.8 241.156H511.68C511.68 241.156 511.56 241.156 511.56 241.276 511.44 241.276 511.32 241.396 511.2 241.516 511.2 241.756 511.2 241.876 511.2 242.116 511.32 242.116 511.32 242.116 511.32 242.236 511.32 242.236 511.44 242.356 511.68 242.356 511.8 242.476 511.92 242.356 512.04 242.356V242.836ZM511.8 241.396C511.92 241.396 511.92 241.516 512.04 241.516 512.04 241.636 512.04 241.636 512.04 241.756V241.876C512.04 241.996 512.04 241.996 511.92 242.116L511.8 242.236C511.68 242.236 511.68 242.236 511.56 242.116V241.996C511.44 241.876 511.44 241.756 511.56 241.636V241.516C511.68 241.396 511.68 241.396 511.8 241.396Z" fill="#ffffff" fill-rule="evenodd"/><path transform="matrix(1,0,0,-1,0,595.276)" d="M512.04 242.836V242.836Z" fill="#ffffff" fill-rule="evenodd"/><path transform="matrix(1,0,0,-1,0,595.276)" d="M513.24 241.756C513.12 241.636 513.24 241.516 513.36 241.396 513.48 241.276 513.6 241.156 513.72 241.156 513.96 241.156 514.08 241.276 514.2 241.396 514.32 241.516 514.32 241.636 514.32 241.756 514.32 241.996 514.32 242.116 514.2 242.236 514.08 242.356 513.96 242.356 513.72 242.356 513.6 242.356 513.48 242.356 513.36 242.236 513.24 242.116 513.12 241.996 513.24 241.756ZM513.72 242.116C513.84 242.116 513.96 242.116 513.96 242.116 514.08 241.996 514.08 241.876 514.08 241.756 514.08 241.756 514.08 241.636 513.96 241.516 513.96 241.516 513.84 241.396 513.72 241.396L513.6 241.516C513.48 241.636 513.48 241.756 513.48 241.756 513.48 241.876 513.48 241.996 513.6 242.116H513.72Z" fill="#ffffff" fill-rule="evenodd"/><path transform="matrix(1,0,0,-1,0,595.276)" d="M515.16 242.116H515.28V241.996 241.276H515.52V241.996C515.52 242.116 515.52 242.116 515.52 242.236 515.4 242.356 515.4 242.356 515.28 242.356 515.28 242.356 515.16 242.476 515.04 242.356H514.92 514.56V241.276H514.92V241.996 242.116C515.04 242.116 515.04 242.116 515.16 242.116Z" fill="#ffffff" fill-rule="evenodd"/><path transform="matrix(1,0,0,-1,0,595.276)" d="M515.88 241.396V242.836H516.12V241.516L516.24 241.396H516.36L516.48 241.156C516.36 241.156 516.36 241.156 516.24 241.156H516.12L516 241.276C515.88 241.276 515.88 241.396 515.88 241.396Z" fill="#ffffff" fill-rule="evenodd"/><path transform="matrix(1,0,0,-1,0,595.276)" d="M516.96 241.156 516.84 241.036C516.72 241.036 516.72 241.036 516.6 241.036V240.796H516.72 516.84C516.96 240.796 516.96 240.796 517.08 240.916V241.036C517.2 241.276 517.32 241.516 517.32 241.636 517.44 241.876 517.44 242.116 517.56 242.356H517.32L517.08 241.636 516.84 242.356H516.48L516.96 241.156Z" fill="#ffffff" fill-rule="evenodd"/><path transform="matrix(1,0,0,-1,0,595.276)" d="M518.4 241.876C518.4 242.116 518.4 242.356 518.28 242.476 518.28 242.596 518.16 242.596 518.16 242.716 518.04 242.716 518.04 242.716 517.92 242.716L518.04 242.956C518.28 242.956 518.4 242.836 518.52 242.716 518.64 242.476 518.76 242.236 518.76 241.876 518.76 241.516 518.64 241.276 518.52 241.036 518.52 241.036 518.4 240.916 518.28 240.916 518.28 240.796 518.16 240.796 518.04 240.796L517.92 241.036C518.04 241.036 518.16 241.156 518.28 241.276 518.4 241.396 518.4 241.636 518.4 241.876Z" fill="#ffffff" fill-rule="evenodd"/><path transform="matrix(1,0,0,-1,0,595.276)" d="M514.44 236.476C514.32 236.476 514.2 236.596 514.08 236.716 513.96 236.836 513.96 237.076 513.96 237.316 513.96 237.556 513.96 237.796 514.08 237.916 514.08 238.036 514.2 238.156 514.2 238.156 514.32 238.156 514.32 238.156 514.44 238.156L514.32 238.396C514.08 238.396 513.96 238.276 513.84 238.156 513.72 237.916 513.6 237.676 513.6 237.316 513.6 237.076 513.72 236.716 513.84 236.596 513.96 236.356 514.08 236.236 514.32 236.236L514.44 236.476Z" fill="#ffffff" fill-rule="evenodd"/><path transform="matrix(1,0,0,-1,0,595.276)" d="M534.84 237.316C534.84 237.556 534.72 237.796 534.72 237.916 534.6 238.036 534.6 238.156 534.48 238.156H534.36L534.48 238.396C534.6 238.396 534.84 238.276 534.96 238.156 535.08 237.916 535.08 237.676 535.08 237.316 535.08 237.076 535.08 236.716 534.96 236.596 534.84 236.356 534.6 236.236 534.48 236.236L534.36 236.476C534.48 236.476 534.6 236.596 534.72 236.716 534.72 236.836 534.84 237.076 534.84 237.316Z" fill="#ffffff" fill-rule="evenodd"/><path transform="matrix(1,0,0,-1,0,595.276)" stroke-width=".12" stroke-linecap="butt" stroke-miterlimit="10" stroke-linejoin="miter" fill="none" stroke="#ffffff" d="M513.5 230.5V230.5"/><path transform="matrix(1,0,0,-1,0,595.276)" d="M513.72 231.196C513.84 231.196 513.96 231.316 514.08 231.556 514.08 231.556 514.08 231.676 514.08 231.796 514.08 232.036 513.96 232.396 513.72 232.516 513.48 232.756 513.24 232.876 512.76 232.876H511.44V229.156H513C513.24 229.156 513.6 229.156 513.96 229.396 514.08 229.636 514.32 229.876 514.32 230.236 514.32 230.476 514.32 230.596 514.2 230.716 514.08 230.956 513.96 231.076 513.72 231.196ZM512.16 231.316V232.276H513C513.12 232.276 513.24 232.276 513.36 232.156 513.36 232.036 513.48 231.916 513.48 231.796 513.48 231.676 513.36 231.556 513.36 231.436 513.24 231.316 513.12 231.316 513 231.316H512.16ZM513 230.836V230.836C513.12 230.836 513.36 230.836 513.48 230.716 513.6 230.596 513.72 230.356 513.72 230.236 513.72 230.116 513.6 229.996 513.48 229.876 513.36 229.756 513.12 229.636 513 229.636H512.16V230.836H513Z" fill="#ffffff" fill-rule="evenodd"/><path transform="matrix(1,0,0,-1,0,595.276)" stroke-width=".12" stroke-linecap="butt" stroke-miterlimit="10" stroke-linejoin="miter" fill="none" stroke="#ffffff" d="M515.5 230.5V230.5"/><path transform="matrix(1,0,0,-1,0,595.276)" stroke-width=".12" stroke-linecap="butt" stroke-miterlimit="10" stroke-linejoin="miter" fill="none" stroke="#ffffff" d="M515.5 230.5V230.5"/><path transform="matrix(1,0,0,-1,0,595.276)" stroke-width=".12" stroke-linecap="butt" stroke-miterlimit="10" stroke-linejoin="miter" fill="none" stroke="#ffffff" d="M515.5 230.5V230.5"/><path transform="matrix(1,0,0,-1,0,595.276)" stroke-width=".12" stroke-linecap="butt" stroke-miterlimit="10" stroke-linejoin="miter" fill="none" stroke="#ffffff" d="M515.5 230.5V230.5"/><path transform="matrix(1,0,0,-1,0,595.276)" stroke-width=".12" stroke-linecap="butt" stroke-miterlimit="10" stroke-linejoin="miter" fill="none" stroke="#ffffff" d="M515.5 230.5V230.5"/><path transform="matrix(1,0,0,-1,0,595.276)" stroke-width=".12" stroke-linecap="butt" stroke-miterlimit="10" stroke-linejoin="miter" fill="none" stroke="#ffffff" d="M515.5 230.5V230.5"/><path transform="matrix(1,0,0,-1,0,595.276)" stroke-width=".12" stroke-linecap="butt" stroke-miterlimit="10" stroke-linejoin="miter" fill="none" stroke="#ffffff" d="M515.5 230.5V230.5"/><path transform="matrix(1,0,0,-1,0,595.276)" stroke-width=".12" stroke-linecap="butt" stroke-miterlimit="10" stroke-linejoin="miter" fill="none" stroke="#ffffff" d="M515.5 230.5V230.5"/><path transform="matrix(1,0,0,-1,0,595.276)" d="M515.04 230.956V230.956C515.04 230.356 515.16 229.876 515.4 229.636 515.64 229.276 516 229.156 516.48 229.156 516.84 229.156 517.2 229.276 517.44 229.636 517.68 229.876 517.8 230.476 517.8 230.956 517.8 232.156 517.32 232.876 516.48 232.876 515.64 232.876 515.04 232.156 515.04 230.956ZM515.04 230.956V230.956ZM516.48 229.636C516.24 229.636 516 229.756 515.88 229.996 515.76 230.236 515.64 230.596 515.64 230.956 515.64 231.316 515.76 231.676 515.88 231.916 516 232.156 516.24 232.276 516.48 232.276 516.72 232.276 516.84 232.156 517.08 231.916 517.2 231.676 517.2 231.316 517.2 230.956 517.2 230.116 516.96 229.636 516.48 229.636Z" fill="#ffffff" fill-rule="evenodd"/><path transform="matrix(1,0,0,-1,0,595.276)" d="M519.72 229.156V232.876H519.24V232.636C519.24 232.516 519.12 232.396 519.12 232.396 519 232.276 518.88 232.276 518.76 232.276H518.52V231.796H519.12V229.156H519.72Z" fill="#ffffff" fill-rule="evenodd"/><path transform="matrix(1,0,0,-1,0,595.276)" d="M520.56 230.716H521.76V230.236H520.56Z" fill="#ffffff" fill-rule="evenodd"/><path transform="matrix(1,0,0,-1,0,595.276)" d="M524.88 231.196C525 231.196 525.12 231.316 525.24 231.556 525.24 231.556 525.24 231.676 525.24 231.796 525.24 232.036 525.12 232.396 524.88 232.516 524.64 232.756 524.4 232.876 523.92 232.876H522.72V229.156H524.16C524.4 229.156 524.76 229.156 525.12 229.396 525.36 229.636 525.48 229.876 525.48 230.236 525.48 230.476 525.48 230.596 525.36 230.716 525.36 230.956 525.12 231.076 524.88 231.196ZM523.32 231.316V232.276H524.16C524.28 232.276 524.4 232.276 524.52 232.156 524.64 232.036 524.64 231.916 524.64 231.796 524.64 231.556 524.4 231.316 524.16 231.316H523.32ZM524.16 229.636V229.636H523.32V230.836H524.16C524.52 230.836 524.88 230.596 524.88 230.236 524.88 229.996 524.52 229.636 524.16 229.636Z" fill="#ffffff" fill-rule="evenodd"/><path transform="matrix(1,0,0,-1,0,595.276)" stroke-width=".12" stroke-linecap="butt" stroke-miterlimit="10" stroke-linejoin="miter" fill="none" stroke="#ffffff" d="M526.5 230.5V230.5"/><path transform="matrix(1,0,0,-1,0,595.276)" stroke-width=".12" stroke-linecap="butt" stroke-miterlimit="10" stroke-linejoin="miter" fill="none" stroke="#ffffff" d="M526.5 230.5V230.5"/><path transform="matrix(1,0,0,-1,0,595.276)" stroke-width=".12" stroke-linecap="butt" stroke-miterlimit="10" stroke-linejoin="miter" fill="none" stroke="#ffffff" d="M526.5 230.5V230.5"/><path transform="matrix(1,0,0,-1,0,595.276)" stroke-width=".12" stroke-linecap="butt" stroke-miterlimit="10" stroke-linejoin="miter" fill="none" stroke="#ffffff" d="M526.5 230.5V230.5"/><path transform="matrix(1,0,0,-1,0,595.276)" stroke-width=".12" stroke-linecap="butt" stroke-miterlimit="10" stroke-linejoin="miter" fill="none" stroke="#ffffff" d="M526.5 230.5V230.5"/><path transform="matrix(1,0,0,-1,0,595.276)" stroke-width=".12" stroke-linecap="butt" stroke-miterlimit="10" stroke-linejoin="miter" fill="none" stroke="#ffffff" d="M526.5 230.5V230.5"/><path transform="matrix(1,0,0,-1,0,595.276)" stroke-width=".12" stroke-linecap="butt" stroke-miterlimit="10" stroke-linejoin="miter" fill="none" stroke="#ffffff" d="M526.5 230.5V230.5"/><path transform="matrix(1,0,0,-1,0,595.276)" stroke-width=".12" stroke-linecap="butt" stroke-miterlimit="10" stroke-linejoin="miter" fill="none" stroke="#ffffff" d="M526.5 230.5V230.5"/><path transform="matrix(1,0,0,-1,0,595.276)" stroke-width=".12" stroke-linecap="butt" stroke-miterlimit="10" stroke-linejoin="miter" fill="none" stroke="#ffffff" d="M526.5 230.5V230.5"/><path transform="matrix(1,0,0,-1,0,595.276)" d="M526.2 230.956V230.956C526.2 230.356 526.32 229.876 526.68 229.636 526.92 229.276 527.28 229.156 527.64 229.156 528.12 229.156 528.36 229.276 528.72 229.636 528.96 229.876 529.08 230.476 529.08 230.956 529.08 231.556 528.96 232.036 528.72 232.396 528.36 232.756 528.12 232.876 527.64 232.876 527.28 232.876 526.92 232.756 526.68 232.396 526.32 232.036 526.2 231.556 526.2 230.956ZM526.2 230.956V230.956ZM527.64 229.636C527.4 229.636 527.16 229.756 527.04 229.996 526.92 230.236 526.92 230.596 526.92 230.956 526.92 231.796 527.16 232.276 527.64 232.276 528.12 232.276 528.48 231.796 528.48 230.956 528.48 230.116 528.12 229.636 527.64 229.636Z" fill="#ffffff" fill-rule="evenodd"/><path transform="matrix(1,0,0,-1,0,595.276)" d="M531.96 232.636C532.08 232.516 532.2 232.276 532.32 232.036 532.32 231.676 532.44 231.316 532.44 230.956 532.44 230.596 532.32 230.236 532.2 229.876 532.08 229.636 531.96 229.396 531.84 229.276 531.6 229.156 531.36 229.036 531.12 229.036 530.88 229.036 530.64 229.156 530.4 229.276 530.16 229.276 529.92 229.516 529.92 229.636L530.4 229.876C530.52 229.756 530.76 229.636 531.12 229.636 531.24 229.636 531.48 229.756 531.6 229.876 531.72 229.996 531.72 230.116 531.72 230.116 531.84 230.236 531.84 230.356 531.84 230.476 531.72 230.356 531.6 230.236 531.48 230.236 531.36 230.116 531.24 230.116 531.12 230.116 530.4 230.116 529.8 230.716 529.8 231.556 529.8 231.796 529.92 232.156 530.16 232.516 530.4 232.756 530.76 232.876 531.12 232.876 531.36 232.876 531.72 232.756 531.96 232.636ZM530.4 231.556V231.556 231.436 231.316L530.52 231.196C530.52 231.076 530.52 231.076 530.64 230.956 530.76 230.716 530.88 230.716 531.12 230.716 531.48 230.716 531.72 231.076 531.72 231.436 531.72 231.916 531.48 232.276 531.12 232.276 530.76 232.276 530.4 231.916 530.4 231.556Z" fill="#ffffff" fill-rule="evenodd"/><path transform="matrix(1,0,0,-1,0,595.276)" d="M536.04 227.836 541.68 237.676 536.04 247.636H539.64L545.28 237.676 539.64 227.836Z" fill="#ffffff" fill-rule="evenodd"/><path transform="matrix(1,0,0,-1,0,595.276)" d="M497.28 230.716V230.476H498.24V230.236H497.52V229.276H498.24V229.036H497.16V228.916H498.24V228.556H498.48V228.916H499.56V229.036H498.48V229.276H499.2V230.236H498.48V230.476H499.44V230.716H498.48V230.836 230.956H498.24V230.716H497.28ZM497.76 229.876V230.116H498.24V229.876H497.76ZM497.76 229.516V229.636H498.24V229.516H497.76ZM498.48 229.876V230.116H498.96V229.876H498.48ZM498.48 229.516V229.636H498.96V229.516H498.48Z" fill="#ffffff" fill-rule="evenodd"/><path transform="matrix(1,0,0,-1,0,595.276)" d="M500.28 229.876 500.52 229.636 500.64 229.876V228.556H500.88V230.236L501 230.476 501.24 230.716V230.836H501.12L501 230.956 500.88 230.596 500.64 230.356 500.52 230.116Z" fill="#ffffff" fill-rule="evenodd"/><path transform="matrix(1,0,0,-1,0,595.276)" d="M501.12 230.476V230.236H502.68V230.476H502.08V230.716 230.836H501.96 501.72V230.476Z" fill="#ffffff" fill-rule="evenodd"/><path transform="matrix(1,0,0,-1,0,595.276)" d="M501 228.556H502.8V228.796H502.2L502.44 229.396 502.56 229.876V229.996L502.32 230.116 502.2 229.396 501.96 228.796H501Z" fill="#ffffff" fill-rule="evenodd"/><path transform="matrix(1,0,0,-1,0,595.276)" d="M501.48 228.916 501.84 229.036 501.72 229.516 501.48 229.996H501.24L501.48 229.516Z" fill="#ffffff" fill-rule="evenodd"/><path transform="matrix(1,0,0,-1,0,595.276)" d="M503.64 230.836V230.116H504.36V230.836H503.64ZM503.88 230.356V230.596H504.12V230.356H503.88Z" fill="#ffffff" fill-rule="evenodd"/><path transform="matrix(1,0,0,-1,0,595.276)" d="M503.52 229.996V229.756H503.76L503.64 229.156 503.88 229.036V229.396H504.12V229.156 229.036 228.916L504 228.796H503.88 503.76 503.64L503.76 228.556H503.88 504 504.12L504.24 228.676V228.796L504.36 228.916V229.036 229.276 229.516H504V229.756H504.36V229.996Z" fill="#ffffff" fill-rule="evenodd"/><path transform="matrix(1,0,0,-1,0,595.276)" d="M504.6 230.476V229.516L504.48 229.276V229.036L504.36 228.796 504.24 228.676 504.48 228.436 504.6 228.676 504.72 228.916V229.156L504.84 229.396V229.876H505.08V229.756 229.636H505.2 505.68 505.8L505.92 229.756V229.876H505.68V229.756H505.56 505.32V229.876L505.56 229.996V230.116H505.32V230.236H505.68V229.996H505.92V230.476H505.2V230.596H505.8V230.836H505.2 505.32L505.2 230.956H504.96V230.476H504.6ZM504.84 230.116V230.236H505.08V230.116H504.84Z" fill="#ffffff" fill-rule="evenodd"/><path transform="matrix(1,0,0,-1,0,595.276)" d="M504.72 228.556 504.84 228.436 504.96 228.556 505.08 228.676 505.2 228.916V229.036 229.396 229.516H504.96V229.036 228.916L504.84 228.796V228.676Z" fill="#ffffff" fill-rule="evenodd"/><path transform="matrix(1,0,0,-1,0,595.276)" d="M505.32 229.516V228.796 228.676L505.44 228.556H505.56 505.8 505.92L506.04 228.676V228.796L505.8 228.916V228.796L505.68 228.676H505.56V228.796 229.276 229.396H505.68 505.56Z" fill="#ffffff" fill-rule="evenodd"/><path transform="matrix(1,0,0,-1,0,595.276)" d="M506.88 230.596H507.12L507 230.236V229.996L506.88 229.876 506.76 229.636 506.88 229.516 507 229.636V228.676H507.24V229.036H507.48V228.796H507.72V230.116H507.24L507.36 230.596H507.72V230.716H506.88V230.596ZM507.24 229.156V229.876H507.48V229.156H507.24Z" fill="#ffffff" fill-rule="evenodd"/><path transform="matrix(1,0,0,-1,0,595.276)" d="M507.84 230.836V229.396H508.08V229.516H508.92V229.156 229.036 228.916L508.8 228.796 508.56 228.676 508.68 228.436 508.92 228.556 509.04 228.676 509.16 228.796V228.916 229.036 229.276 229.396 229.636H508.68V229.876H509.04V230.116H508.68V230.236H509.04V230.476H508.68V230.596H509.16V230.836H507.84ZM508.08 229.636V229.876H508.44V229.636H508.08ZM508.08 230.476V230.596H508.44V230.476H508.08ZM508.08 230.116V230.236H508.44V230.116H508.08Z" fill="#ffffff" fill-rule="evenodd"/><path transform="matrix(1,0,0,-1,0,595.276)" d="M507.72 228.676H507.96V228.916 229.276H507.84Z" fill="#ffffff" fill-rule="evenodd"/><path transform="matrix(1,0,0,-1,0,595.276)" d="M508.08 228.676 508.32 228.796V229.036L508.2 229.276H508.08Z" fill="#ffffff" fill-rule="evenodd"/><path transform="matrix(1,0,0,-1,0,595.276)" d="M508.44 228.796 508.68 228.916 508.56 229.036 508.44 229.276H508.32Z" fill="#ffffff" fill-rule="evenodd"/><path transform="matrix(1,0,0,-1,0,595.276)" d="M508.68 228.916H508.92L508.8 229.156V229.276H508.56Z" fill="#ffffff" fill-rule="evenodd"/><path transform="matrix(1,0,0,-1,0,595.276)" d="M498.6 239.236 498.24 239.356 498.12 238.876 497.88 238.396 497.64 237.916 497.4 237.436 497.64 237.196 497.88 237.556V235.156H498.24V238.276L498.6 239.116H498.72 498.84L498.72 239.236Z" fill="#ffffff" fill-rule="evenodd"/><path transform="matrix(1,0,0,-1,0,595.276)" d="M499.92 239.356V238.996H498.72V238.636H501.48V238.996H500.28V239.236H500.4L500.28 239.356Z" fill="#ffffff" fill-rule="evenodd"/><path transform="matrix(1,0,0,-1,0,595.276)" d="M499.08 238.396V237.556H501.12V238.396H499.08ZM499.44 237.796V238.156H500.76V237.796H499.44Z" fill="#ffffff" fill-rule="evenodd"/><path transform="matrix(1,0,0,-1,0,595.276)" d="M498.6 237.316V236.236H498.96V236.956H501.24V236.236H501.6V237.316Z" fill="#ffffff" fill-rule="evenodd"/><path transform="matrix(1,0,0,-1,0,595.276)" d="M499.2 236.596V236.236H499.92V235.876 235.756 235.636H499.8L499.68 235.516H499.44L499.56 235.276H499.8 500.04L500.28 235.396 500.4 235.636V235.876 236.236H501V236.596Z" fill="#ffffff" fill-rule="evenodd"/><path transform="matrix(1,0,0,-1,0,595.276)" d="M503.4 238.996V238.636H505.08V238.276H503.88V236.476H505.08V236.236H503.28V235.756H505.08V235.156H505.44V235.756H507.36V236.236H505.44V236.476H506.76V238.276H505.44V238.636H507.12V238.996H505.44V239.236H505.56V239.356H505.44 505.08V238.996H503.4ZM504.24 237.556V237.916H505.08V237.556H504.24ZM504.24 236.836V237.196H505.08V236.836H504.24ZM505.44 237.556V237.916H506.4V237.556H505.44ZM505.44 236.836V237.196H506.4V236.836H505.44Z" fill="#ffffff" fill-rule="evenodd"/><path transform="matrix(1,0,0,-1,0,595.276)" d="M508.44 238.276 508.68 238.036 508.8 238.156V237.796H509.4V237.436H508.68V237.076H509.4V235.876L508.68 235.756 508.8 235.396V235.276H508.92V235.396L510.36 235.636V235.996L509.76 235.876V237.076H510.24V237.436H509.76V237.796H510.24V238.156H508.92L509.28 238.516 509.64 238.876 509.88 238.516 510.24 238.276 510.48 238.516 510.12 238.756 509.76 239.116H509.88L510 239.236H509.88L509.52 239.476 509.28 239.116 509.04 238.876 508.8 238.516Z" fill="#ffffff" fill-rule="evenodd"/><path transform="matrix(1,0,0,-1,0,595.276)" d="M508.92 236.836 508.68 236.716 508.8 236.356V235.996L509.28 236.116 509.16 236.476Z" fill="#ffffff" fill-rule="evenodd"/><path transform="matrix(1,0,0,-1,0,595.276)" d="M509.76 236.116 510.12 235.996 510.36 236.596 510.48 236.716 510.12 236.836Z" fill="#ffffff" fill-rule="evenodd"/><path transform="matrix(1,0,0,-1,0,595.276)" d="M510.48 238.996V238.636H511.44V238.276H510.6V237.916H511.44V237.556H510.48V237.196H511.32L511.2 236.956 510.96 236.836 510.6 236.596 510.36 236.476 510.6 236.116 510.84 236.356V235.756L510.48 235.636 510.6 235.276H510.72L511.8 235.636V235.996L511.32 235.876V236.596L511.56 236.836 511.68 236.476 511.92 235.996 512.16 235.636 512.64 235.276 513 235.516 512.64 235.876 512.28 236.236 512.76 236.596H512.88V236.716L512.64 237.076 512.04 236.596 511.92 236.836 511.8 237.196H512.88V237.556H511.8V237.916H512.64V238.276H511.8V238.636H512.76V238.996H511.8V239.236H511.92L511.8 239.356H511.44V238.996Z" fill="#ffffff" fill-rule="evenodd"/><path transform="matrix(1,0,0,-1,0,595.276)" d="M515.28 235.996H515.52V238.156H515.76L515.64 237.556 515.76 237.316V237.076L515.88 236.836H515.76L515.64 236.716H515.52L515.64 236.476H515.76L515.88 236.596 516 236.716V236.836L516.12 237.076 516 237.196V237.436L515.76 237.556 516.12 238.276 515.88 238.396H515.28Z" fill="#ffffff" fill-rule="evenodd"/><path transform="matrix(1,0,0,-1,0,595.276)" d="M516.24 236.356H515.88V236.116H516V235.996 236.116L516.96 236.356V236.596L516.48 236.476V237.316H516.72L516.84 236.956 516.96 236.596 517.2 236.356 517.44 236.116 517.68 236.236 517.32 236.476 517.2 236.716 517.44 236.956H517.56V237.076L517.44 237.196 517.08 236.956 516.96 237.076V237.316H517.44V238.396H516.24V236.356ZM516.48 237.916V238.156H517.2V237.916H516.48ZM516.48 237.556V237.796H517.2V237.556H516.48Z" fill="#ffffff" fill-rule="evenodd"/><path transform="matrix(1,0,0,-1,0,595.276)" d="M518.88 238.396V237.676 237.196L518.76 236.716 518.64 236.476 518.52 236.236 518.76 236.116 518.88 236.236 519 236.476V236.596L519.12 236.836H519.6V236.236H519.96V236.836H520.44V236.476 236.356H520.32 520.08L520.2 236.116H520.32 520.56 520.68V236.236L520.8 236.356V238.396H518.88ZM519.12 237.676V238.156H519.6V237.676H519.12ZM519.6 237.076H519.12V237.436H519.6V237.076ZM519.96 237.676V238.156H520.44V237.676H519.96ZM519.96 237.076V237.436H520.44V237.076H519.96Z" fill="#ffffff" fill-rule="evenodd"/><path transform="matrix(1,0,0,-1,0,595.276)" d="M521.64 236.236 521.88 236.116 522 236.236 522.24 236.356 522.36 236.596V236.836L522.48 237.076 522.6 237.316V237.556 237.796 237.916H522.48L522.36 238.036V237.676 237.436L522.24 237.196V236.956L522.12 236.716 522 236.596 521.76 236.356Z" fill="#ffffff" fill-rule="evenodd"/><path transform="matrix(1,0,0,-1,0,595.276)" d="M522.48 238.396V238.156H523.08V237.796 237.556L523.2 237.316V237.076L523.32 236.836 523.44 236.716 523.56 236.476 523.68 236.236 523.8 236.116 524.04 236.236 523.92 236.476 523.8 236.596 523.68 236.836 523.56 236.956 523.44 237.196V237.436L523.32 237.676V237.916 238.396Z" fill="#ffffff" fill-rule="evenodd"/><path transform="matrix(1,0,0,-1,0,595.276)" d="M525.12 238.516 525 238.276 525.24 238.036 525.48 238.276 525.36 238.396Z" fill="#ffffff" fill-rule="evenodd"/><path transform="matrix(1,0,0,-1,0,595.276)" d="M525 238.036 524.88 237.796 525 237.676 525.24 237.556 525.36 237.796 525.24 237.916Z" fill="#ffffff" fill-rule="evenodd"/><path transform="matrix(1,0,0,-1,0,595.276)" d="M524.88 237.436V237.196H525.24V236.596L524.88 236.356 525 236.116 525.24 236.476 525.36 236.236 525.6 236.116H525.84 526.2 527.16L527.28 236.356 526.56 236.236V236.476H527.16V236.716H526.56V236.956H527.04V237.076H526.56V237.316H527.16V237.436H526.8L526.92 237.676H527.28V237.916H526.56V238.156H527.04V238.276H526.56V238.396 238.516H526.44 526.32V238.276H525.72V238.156H526.32V237.916H525.6V237.676H525.96L526.08 237.436H525.72V237.316H526.32V237.076H525.72V236.956H526.32V236.716H525.72V236.476H526.32V236.236L525.96 236.356H525.72L525.48 236.476V236.596 237.436H524.88ZM526.2 237.676H526.56V237.436H526.32L526.2 237.676Z" fill="#ffffff" fill-rule="evenodd"/><path transform="matrix(1,0,0,-1,0,595.276)" d="M528.36 238.516 528.12 238.276 528.6 238.036 528.72 238.276Z" fill="#ffffff" fill-rule="evenodd"/><path transform="matrix(1,0,0,-1,0,595.276)" d="M528.24 238.036 528.12 237.796 528.24 237.676 528.48 237.556 528.6 237.676 528.48 237.916Z" fill="#ffffff" fill-rule="evenodd"/><path transform="matrix(1,0,0,-1,0,595.276)" d="M528.12 237.316V237.076H528.48V236.596L528 236.356 528.12 236.116H528.24L528.48 236.356 528.6 236.236 528.84 236.116H528.96L529.2 235.996H530.4L530.52 236.236H529.32L528.96 236.356H528.84 528.72V236.476 236.596 237.316Z" fill="#ffffff" fill-rule="evenodd"/><path transform="matrix(1,0,0,-1,0,595.276)" d="M528.96 238.396V238.276H529.8L529.68 238.036 529.44 238.156 529.2 238.036 529.68 237.796H528.96V236.476H529.08V236.836H529.56V236.476H529.68V236.836H530.16V236.716L530.04 236.596H529.92L530.04 236.356 530.28 236.476 530.4 236.596V237.796H530.04V237.916L529.8 238.036 530.16 238.276H530.28V238.396L530.04 238.516V238.396H528.96ZM529.08 236.956V237.196H529.56V236.956H529.08ZM529.68 236.956V237.196H530.16V236.956H529.68ZM529.08 237.436V237.556H529.56V237.436H529.08ZM529.68 237.436V237.556H530.16V237.436H529.68Z" fill="#ffffff" fill-rule="evenodd"/><path transform="matrix(1,0,0,-1,0,595.276)" d="M532.56 235.996V237.076L532.92 236.836 533.4 236.356 533.52 236.596 533.16 236.956 532.68 237.316H533.76V237.556H532.56V237.916H533.4V238.036H532.56V238.396L532.44 238.516H532.32V237.556H531.36V237.316H532.32V235.996Z" fill="#ffffff" fill-rule="evenodd"/><path transform="matrix(1,0,0,-1,0,595.276)" stroke-width=".12" stroke-linecap="round" stroke-linejoin="round" fill="none" stroke="#0000ff" d="M548.28 238.036 542.28 248.596C541.92 249.076 541.44 249.436 540.96 249.436H495.84C495 249.436 494.28 248.716 494.28 247.876V227.476C494.28 226.636 495 226.036 495.84 226.036H540.96C541.44 226.036 541.92 226.276 542.28 226.756L548.28 237.316C548.52 237.556 548.52 237.796 548.28 238.036"/></g></svg>