<?xml version='1.0' encoding='UTF-8'?>
<svg width="556.90" height="184.90" viewBox="4.60 43.15 556.90 184.90" xmlns="http://www.w3.org/2000/svg" xmlns:xlink="http://www.w3.org/1999/xlink" xmlns:inkscape="http://www.inkscape.org/namespaces/inkscape" version="1.1"><g transform="scale(10.0) translate(-493.095, -208.800)"><path transform="matrix(1,0,0,-1,0,595.276)" d="M546.6 381.556C547.08 381.556 547.56 381.316 548.04 380.956 548.4 380.476 548.64 379.996 548.64 379.516V366.316C548.64 365.836 548.4 365.236 548.04 364.876 547.56 364.396 547.08 364.276 546.6 364.276H496.2C495.72 364.276 495.12 364.396 494.76 364.876 494.52 364.996 494.4 365.236 494.28 365.476 494.16 365.716 494.16 366.076 494.16 366.316V379.516C494.16 379.996 494.28 380.476 494.76 380.956 494.88 381.076 495.12 381.316 495.36 381.316 495.72 381.436 495.96 381.556 496.2 381.556H546.6Z" fill="#ffffff" fill-rule="evenodd"/><path transform="matrix(1,0,0,-1,0,595.276)" d="M496.2 380.476H546.6C546.84 380.476 547.08 380.356 547.32 380.236 547.44 379.996 547.56 379.756 547.56 379.516V366.316C547.56 366.196 547.56 366.076 547.56 365.836 547.44 365.716 547.44 365.596 547.32 365.596 547.2 365.476 547.08 365.356 546.96 365.356 546.84 365.236 546.72 365.236 546.6 365.236H496.2C495.96 365.236 495.6 365.356 495.48 365.596 495.24 365.716 495.12 366.076 495.12 366.316V379.516C495.12 379.996 495.6 380.476 496.2 380.476Z" fill="#0000ff" fill-rule="evenodd"/><path transform="matrix(1,0,0,-1,0,595.276)" d="M543.84 367.516H542.04V374.596L540.24 372.916V375.556L542.88 378.196 545.52 375.556V372.916L543.84 374.596Z" fill="#ffffff" fill-rule="evenodd"/><path transform="matrix(1,0,0,-1,0,595.276)" d="M520.56 373.996H521.64V374.356H520.92V375.916H520.56Z" fill="#ffffff" fill-rule="evenodd"/><path transform="matrix(1,0,0,-1,0,595.276)" d="M522.24 373.996V375.436H521.88V373.996Z" fill="#ffffff" fill-rule="evenodd"/><path transform="matrix(1,0,0,-1,0,595.276)" d="M522.24 375.796C522.24 375.916 522.12 375.916 522.12 375.916 522 375.916 521.88 375.916 521.88 375.796 521.88 375.676 522 375.556 522.12 375.556 522.12 375.556 522.24 375.676 522.24 375.796Z" fill="#ffffff" fill-rule="evenodd"/><path transform="matrix(1,0,0,-1,0,595.276)" d="M523.2 374.116C523.2 374.116 523.08 374.116 522.84 374.236 522.72 374.356 522.6 374.476 522.6 374.836 522.6 375.076 522.72 375.196 522.84 375.316 523.08 375.436 523.2 375.436 523.2 375.436H523.32L523.44 375.316V375.436H523.8V373.996 373.876C523.68 373.756 523.44 373.636 523.2 373.636 523.08 373.636 522.84 373.636 522.6 373.756L522.72 373.996C522.84 373.876 522.96 373.876 523.2 373.876 523.32 373.876 523.44 373.876 523.44 373.996V374.116 374.236C523.32 374.116 523.2 374.116 523.2 374.116ZM523.2 375.076C523.2 375.076 522.84 375.076 522.84 374.836 522.84 374.596 522.96 374.476 523.08 374.476H523.2C523.2 374.476 523.44 374.476 523.44 374.836 523.44 374.956 523.44 375.076 523.32 375.076H523.2Z" fill="#ffffff" fill-rule="evenodd"/><path transform="matrix(1,0,0,-1,0,595.276)" d="M525 374.836V373.996H525.24V374.956C525.24 375.076 525.24 375.076 525.24 375.196 525.12 375.316 525 375.316 525 375.316 524.88 375.436 524.76 375.436 524.76 375.436 524.64 375.436 524.52 375.316 524.52 375.316V375.916H524.16V373.996H524.52V374.836C524.52 374.956 524.52 374.956 524.52 375.076 524.64 375.076 524.64 375.196 524.76 375.196L524.88 375.076 525 374.956V374.836Z" fill="#ffffff" fill-rule="evenodd"/><path transform="matrix(1,0,0,-1,0,595.276)" d="M526.08 374.356C526.08 374.356 526.08 374.236 526.2 374.236H526.32C526.32 374.236 526.32 374.356 526.44 374.356V373.996C526.32 373.996 526.08 373.996 525.96 374.116H525.84C525.84 374.236 525.84 374.236 525.84 374.356V375.076H525.6V375.436H525.84V375.796L526.08 375.916V375.436H526.44V375.076H526.08V374.356Z" fill="#ffffff" fill-rule="evenodd"/><path transform="matrix(1,0,0,-1,0,595.276)" stroke-width=".12" stroke-linecap="butt" stroke-miterlimit="10" stroke-linejoin="miter" fill="none" stroke="#ffffff" d="M527.5 373.5V375.5"/><path transform="matrix(1,0,0,-1,0,595.276)" d="M528.84 373.996 528.48 374.836C528.6 374.836 528.72 374.956 528.84 375.076 528.84 375.196 528.84 375.316 528.84 375.436 528.84 375.676 528.6 375.916 528.36 375.916H527.52V373.996H527.88V374.716H528.24L528.6 373.996H528.84ZM527.88 375.076V375.676H528.36C528.48 375.676 528.6 375.556 528.6 375.316 528.6 375.316 528.48 375.196 528.48 375.076H528.36 527.88Z" fill="#ffffff" fill-rule="evenodd"/><path transform="matrix(1,0,0,-1,0,595.276)" d="M528.84 373.996V373.996Z" fill="#ffffff" fill-rule="evenodd"/><path transform="matrix(1,0,0,-1,0,595.276)" d="M529.2 375.316 529.32 375.076H529.56C529.56 375.196 529.68 375.196 529.68 375.196H529.8C529.92 375.196 529.92 375.076 529.92 375.076 530.04 375.076 530.04 375.076 530.04 374.956V374.836H529.8 529.68C529.56 374.836 529.56 374.836 529.44 374.836L529.32 374.716C529.2 374.596 529.2 374.476 529.2 374.476 529.2 374.356 529.2 374.236 529.32 374.236 529.32 374.116 529.44 374.116 529.44 374.116 529.56 373.996 529.56 373.996 529.68 373.996 529.68 373.996 529.8 373.996 529.92 373.996 529.92 374.116 530.04 374.116 530.04 374.116H530.16C530.16 373.996 530.28 373.996 530.28 373.996L530.4 374.236C530.28 374.236 530.28 374.236 530.28 374.356V374.836C530.28 374.836 530.28 374.956 530.28 375.076 530.28 375.076 530.28 375.196 530.16 375.196 530.16 375.316 530.16 375.316 530.04 375.436 529.92 375.436 529.8 375.436 529.68 375.436H529.56C529.44 375.316 529.44 375.316 529.32 375.316H529.2ZM529.68 374.236H529.56V374.356H529.44C529.44 374.476 529.44 374.476 529.56 374.476V374.596H529.68C529.8 374.596 529.8 374.596 529.92 374.596L530.04 374.716V374.476 374.356H529.92C529.92 374.236 529.92 374.236 529.8 374.236H529.68Z" fill="#ffffff" fill-rule="evenodd"/><path transform="matrix(1,0,0,-1,0,595.276)" d="M529.2 375.316V375.316Z" fill="#ffffff" fill-rule="evenodd"/><path transform="matrix(1,0,0,-1,0,595.276)" d="M531.12 373.996V375.436H530.76V373.996Z" fill="#ffffff" fill-rule="evenodd"/><path transform="matrix(1,0,0,-1,0,595.276)" d="M531.12 375.796C531.12 375.916 531 375.916 530.88 375.916 530.88 375.916 530.76 375.916 530.76 375.796 530.76 375.676 530.88 375.556 530.88 375.556 531 375.556 531.12 375.676 531.12 375.796Z" fill="#ffffff" fill-rule="evenodd"/><path transform="matrix(1,0,0,-1,0,595.276)" d="M531.48 374.356V375.916H531.84V374.356C531.84 374.236 531.84 374.236 531.96 374.236 532.08 374.236 532.08 374.356 532.08 374.356V373.996H531.96C531.84 373.996 531.84 373.996 531.72 373.996L531.6 374.116C531.6 374.236 531.48 374.236 531.48 374.356Z" fill="#ffffff" fill-rule="evenodd"/><path transform="matrix(1,0,0,-1,0,595.276)" stroke-width=".12" stroke-linecap="butt" stroke-miterlimit="10" stroke-linejoin="miter" fill="none" stroke="#ffffff" d="M534.5 374.5V374.5"/><path transform="matrix(1,0,0,-1,0,595.276)" d="M534.24 375.436 534.48 375.676C534.24 375.796 534 375.916 533.76 375.916 533.64 375.916 533.4 375.916 533.28 375.796 533.16 375.676 533.04 375.556 533.04 375.436 533.04 375.196 533.16 375.076 533.28 374.956H533.4C533.52 374.836 533.64 374.836 533.76 374.836 533.88 374.836 534.12 374.836 534.12 374.716 534.12 374.596 534.24 374.476 534.12 374.476 534.12 374.356 534 374.356 533.76 374.356 533.64 374.356 533.4 374.356 533.28 374.596L533.04 374.356C533.04 374.236 533.16 374.236 533.28 374.236 533.4 374.116 533.64 373.996 533.76 373.996 534 373.996 534.24 374.116 534.36 374.236 534.36 374.236 534.36 374.356 534.48 374.356V374.476 374.596 374.716C534.48 374.836 534.36 374.956 534.36 374.956 534.24 374.956 534.24 375.076 534.24 375.076H534.12L533.64 375.196H533.52C533.52 375.196 533.4 375.316 533.4 375.436L533.52 375.556C533.64 375.676 533.64 375.676 533.76 375.676 533.88 375.676 534.12 375.556 534.24 375.436Z" fill="#ffffff" fill-rule="evenodd"/><path transform="matrix(1,0,0,-1,0,595.276)" d="M535.32 374.356V374.236H535.44C535.56 374.236 535.56 374.356 535.56 374.356L535.68 373.996C535.44 373.996 535.32 373.996 535.2 374.116H535.08C534.96 374.236 534.96 374.236 534.96 374.356V375.076H534.72V375.436H534.96V375.796L535.32 375.916V375.436H535.68V375.076H535.32V374.356Z" fill="#ffffff" fill-rule="evenodd"/><path transform="matrix(1,0,0,-1,0,595.276)" d="M535.8 374.716C535.8 374.596 535.92 374.356 536.04 374.236 536.16 374.116 536.4 373.996 536.52 373.996 536.64 373.996 536.88 374.116 537 374.236 537.12 374.356 537.12 374.596 537.12 374.716 537.12 374.836 537.12 375.076 537 375.196 536.88 375.316 536.64 375.436 536.52 375.436 536.4 375.436 536.16 375.316 536.04 375.196 535.92 375.076 535.8 374.836 535.8 374.716ZM536.52 375.076C536.64 375.076 536.64 375.076 536.76 374.956 536.88 374.956 536.88 374.836 536.88 374.716 536.88 374.596 536.88 374.476 536.76 374.476 536.64 374.356 536.64 374.356 536.52 374.356 536.4 374.356 536.28 374.356 536.28 374.476 536.16 374.476 536.16 374.596 536.16 374.716 536.16 374.836 536.16 374.956 536.28 374.956 536.28 375.076 536.4 375.076 536.52 375.076Z" fill="#ffffff" fill-rule="evenodd"/><path transform="matrix(1,0,0,-1,0,595.276)" stroke-width=".12" stroke-linecap="butt" stroke-miterlimit="10" stroke-linejoin="miter" fill="none" stroke="#ffffff" d="M537.5 375.5V375.5"/><path transform="matrix(1,0,0,-1,0,595.276)" d="M537.84 375.316C537.96 375.436 538.2 375.436 538.44 375.316 538.68 375.196 538.8 374.956 538.8 374.716 538.8 374.476 538.68 374.236 538.44 374.116 538.32 373.996 538.2 373.996 538.2 373.996 538.08 373.996 537.96 373.996 537.84 374.116V373.636H537.48V375.436H537.84V375.316ZM537.96 375.076C537.84 374.956 537.84 374.956 537.84 374.836V374.596 374.476C537.84 374.476 537.84 374.356 537.96 374.356 537.96 374.356 538.08 374.236 538.2 374.236 538.2 374.356 538.32 374.356 538.44 374.476 538.44 374.596 538.44 374.836 538.32 374.956 538.32 375.076 538.2 375.076 538.08 375.076H537.96Z" fill="#ffffff" fill-rule="evenodd"/><path transform="matrix(1,0,0,-1,0,595.276)" d="M512.04 367.276C513.84 367.276 515.64 367.876 516.84 368.836 518.16 369.916 518.88 371.356 518.88 372.916 518.88 374.356 518.16 375.796 516.84 376.876 515.64 377.956 513.84 378.556 512.04 378.556 510.24 378.556 508.56 377.956 507.24 376.876 505.92 375.796 505.2 374.356 505.2 372.916 505.2 371.356 505.92 369.916 507.24 368.836 508.56 367.876 510.24 367.276 512.04 367.276Z" fill="#ff0000" fill-rule="evenodd"/><path transform="matrix(1,0,0,-1,0,595.276)" d="M501.84 367.516H502.44L502.32 369.916 501.36 372.556 501.48 374.236 501.96 373.756 503.16 372.676 503.52 373.156 502.44 374.236 502.08 375.196C501.96 375.436 501.72 375.676 501.48 375.916 501.24 376.036 501 376.156 500.64 376.156 500.4 376.156 500.04 376.156 499.8 376.036 499.56 375.796 499.32 375.676 499.2 375.316L498.72 374.716 498.36 372.436 498.84 372.196 499.32 374.356 499.68 374.716 498.48 370.156 497.52 368.596 498 367.996 499.8 370.516 500.4 371.716 501.36 369.916 501.84 367.516Z" fill="#ffffff" fill-rule="evenodd"/><path transform="matrix(1,0,0,-1,0,595.276)" d="M501.6 377.356C501.6 377.836 501.24 378.196 500.76 378.196 500.28 378.196 499.92 377.836 499.92 377.356 499.92 376.876 500.28 376.516 500.76 376.516 501.24 376.516 501.6 376.876 501.6 377.356Z" fill="#ffffff" fill-rule="evenodd"/><path transform="matrix(1,0,0,-1,0,595.276)" d="M508.68 369.316C508.68 370.036 508.92 370.756 509.52 371.356 509.76 371.716 510.12 371.956 510.48 372.076 510.84 372.316 511.2 372.316 511.56 372.436V373.396C510.84 373.396 510.12 373.756 509.52 374.356 509.28 374.716 509.04 374.956 508.92 375.316 508.68 375.676 508.68 376.036 508.68 376.396H509.76C509.88 376.036 510 375.556 510.36 375.196 510.72 374.836 511.08 374.596 511.56 374.596V376.636H512.52V374.596C513 374.596 513.48 374.836 513.72 375.196 514.08 375.556 514.2 376.036 514.32 376.396H515.4C515.4 376.036 515.4 375.676 515.16 375.316 515.04 374.956 514.8 374.716 514.56 374.356 514.32 374.116 513.96 373.876 513.6 373.636 513.24 373.516 512.88 373.396 512.52 373.396V372.436C513.24 372.316 513.96 371.956 514.56 371.356 514.8 371.116 515.04 370.756 515.16 370.396 515.28 370.276 515.28 370.036 515.4 369.916 515.4 369.676 515.4 369.556 515.4 369.316H514.32C514.2 369.796 514.08 370.276 513.72 370.636 513.48 370.996 513 371.236 512.52 371.356V369.076H511.56V371.356C511.08 371.236 510.72 370.996 510.36 370.636 510 370.276 509.88 369.796 509.76 369.316H508.68Z" fill="#ffffff" fill-rule="evenodd"/><path transform="matrix(1,0,0,-1,0,595.276)" stroke-width=".12" stroke-linecap="round" stroke-linejoin="round" fill="none" stroke="#0000ff" d="M546.6 381.556C547.68 381.556 548.64 380.596 548.64 379.516V366.316C548.64 365.116 547.68 364.276 546.6 364.276H496.2C495 364.276 494.16 365.116 494.16 366.316V379.516C494.16 380.596 495 381.556 496.2 381.556H546.6"/><path transform="matrix(1,0,0,-1,0,595.276)" d="M522.72 372.196V371.956H523.2V371.836H522.84V370.636H523.2V370.516H522.72V370.276H523.2V369.796H523.44V370.276H524.04V370.516H523.44V370.636H523.92V371.836H523.44V371.956H523.92V372.196H523.44V372.436H523.56L523.44 372.556H523.2V372.196H522.72ZM523.08 371.356V371.596H523.2V371.356H523.08ZM523.44 371.356V371.596H523.68V371.356H523.44ZM523.08 370.876V371.116H523.2V370.876H523.08ZM523.44 370.876V371.116H523.68V370.876H523.44Z" fill="#ffffff" fill-rule="evenodd"/><path transform="matrix(1,0,0,-1,0,595.276)" d="M524.04 372.436V372.196H525.48V372.436Z" fill="#ffffff" fill-rule="evenodd"/><path transform="matrix(1,0,0,-1,0,595.276)" d="M524.76 372.076 524.4 371.596 524.52 371.356 524.64 370.996 525 371.116 524.88 371.356 524.64 371.596 524.88 371.836 525 371.956H524.88Z" fill="#ffffff" fill-rule="evenodd"/><path transform="matrix(1,0,0,-1,0,595.276)" d="M524.16 370.876V370.636H524.64V370.156H523.92V369.916H525.48V370.156H524.88V370.636H525.36V370.876Z" fill="#ffffff" fill-rule="evenodd"/><path transform="matrix(1,0,0,-1,0,595.276)" d="M524.28 372.076 523.92 371.476 524.16 371.236 524.28 370.996 524.52 371.116 524.4 371.356 524.28 371.476 524.4 371.836 524.52 371.956H524.4Z" fill="#ffffff" fill-rule="evenodd"/><path transform="matrix(1,0,0,-1,0,595.276)" d="M525.24 372.076 524.88 371.596 525 371.356 525.24 371.116H525.48L525.36 371.356 525.12 371.596 525.36 371.836H525.48V371.956H525.36Z" fill="#ffffff" fill-rule="evenodd"/><path transform="matrix(1,0,0,-1,0,595.276)" d="M526.2 371.956 526.44 371.716 526.56 371.836V371.596H526.8V371.356H526.44V371.116H526.8V370.156H526.32L526.44 370.036V369.916H526.56L527.28 370.036V370.276H527.04V370.396H527.16L527.28 370.756H527.4L527.28 370.876H527.16L527.04 370.516V371.116H527.28V371.356H527.04V371.596H527.28V371.836H526.56L526.92 372.196 527.16 371.956 527.28 372.076 527.04 372.436H527.16L527.04 372.556 526.92 372.676 526.8 372.436 526.56 372.196 526.44 372.076Z" fill="#ffffff" fill-rule="evenodd"/><path transform="matrix(1,0,0,-1,0,595.276)" d="M526.56 370.276 526.68 370.396 526.56 370.876H526.44Z" fill="#ffffff" fill-rule="evenodd"/><path transform="matrix(1,0,0,-1,0,595.276)" d="M527.4 372.316V372.076H527.64V371.956H527.28V371.716H528.36V371.356 370.996L528.48 370.636V370.396L528.36 370.276 528.24 370.156V370.276H527.88V370.396H528.24V370.636H527.88V370.756H528.24V370.996H527.4V370.756H527.64V370.636H527.4V370.396H527.64V370.276H527.4V370.036H528.12L528.24 369.796 528.6 370.156 528.72 370.036V369.916H528.84 528.96L529.08 370.036V370.156L529.2 370.276 528.96 370.396V370.276L528.84 370.156V370.276 370.396L529.08 371.236V371.356L528.84 371.476 528.72 371.116V370.756L528.6 371.236V371.716H529.08V371.956H528.6V372.436H528.72V372.556H528.6 528.36V371.956H527.88V372.076H528.24V372.316H527.88V372.436H528V372.556H527.88 527.64V372.316Z" fill="#ffffff" fill-rule="evenodd"/><path transform="matrix(1,0,0,-1,0,595.276)" d="M527.4 371.596V371.116H528.24V371.596H527.4ZM527.52 371.236V371.356H528V371.236H527.52Z" fill="#ffffff" fill-rule="evenodd"/><path transform="matrix(1,0,0,-1,0,595.276)" d="M528.96 371.956 529.08 372.076 528.84 372.436 528.72 372.316 528.84 372.076Z" fill="#ffffff" fill-rule="evenodd"/><path transform="matrix(1,0,0,-1,0,595.276)" d="M530.16 372.316V372.076H531.24V371.836H530.52V370.756H531.24V370.516H530.16V370.276H531.24V369.916H531.6V370.276H532.8V370.516H531.6V370.756H532.44V371.836H531.6V372.076H532.68V372.316H531.6V372.436 372.556H531.24V372.316H530.16ZM530.76 371.356V371.596H531.24V371.356H530.76ZM530.76 370.996V371.236H531.24V370.996H530.76ZM531.6 371.356V371.596H532.08V371.356H531.6ZM531.6 370.996V371.236H532.08V370.996H531.6Z" fill="#ffffff" fill-rule="evenodd"/><path transform="matrix(1,0,0,-1,0,595.276)" d="M533.76 372.076V371.836H534.96V372.076H534.48V372.436L534.6 372.556H534.48 534.24V372.076Z" fill="#ffffff" fill-rule="evenodd"/><path transform="matrix(1,0,0,-1,0,595.276)" d="M533.76 370.396V370.036H533.88L534.96 370.276V370.516H534.6L534.84 371.476H534.96L534.84 371.596 534.6 371.716 534.48 370.996 534.36 370.396Z" fill="#ffffff" fill-rule="evenodd"/><path transform="matrix(1,0,0,-1,0,595.276)" d="M534 370.516 534.24 370.636 534.12 371.236 534 371.596H533.76Z" fill="#ffffff" fill-rule="evenodd"/><path transform="matrix(1,0,0,-1,0,595.276)" d="M534.96 371.236V369.796H535.32V370.036H536.04V369.796H536.4V371.236H535.68V371.836H536.4V372.076H535.68V372.436L535.8 372.556H535.68 535.44V371.236H534.96ZM535.32 370.276V370.996H536.04V370.276H535.32Z" fill="#ffffff" fill-rule="evenodd"/></g></svg>