<?xml version='1.0' encoding='UTF-8'?>
<svg width="308.42" height="254.42" viewBox="129.44 8.15 308.42 254.42" xmlns="http://www.w3.org/2000/svg" xmlns:xlink="http://www.w3.org/1999/xlink" xmlns:inkscape="http://www.inkscape.org/namespaces/inkscape" version="1.1"><g transform="scale(10.0) translate(-56.655, -424.224)"><path transform="matrix(1,0,0,-1,0,595.276)" d="M72.84 169.876H97.2C97.92 169.876 98.64 169.636 99.24 169.036 99.84 168.436 100.08 167.716 100.08 166.996V148.036C100.08 147.316 99.84 146.596 99.24 145.996 98.64 145.396 97.92 145.156 97.2 145.156H72.84C72.12 145.156 71.4 145.396 70.8 145.996 70.2 146.596 69.96 147.316 69.96 148.036V166.996C69.96 167.356 70.08 167.716 70.2 168.076 70.32 168.436 70.56 168.796 70.8 169.036 71.4 169.636 72.12 169.876 72.84 169.876Z" fill="#00ff00" fill-rule="evenodd"/><path transform="matrix(1,0,0,-1,0,595.276)" d="M84.96 147.076C86.16 147.436 87.24 148.156 88.08 149.236 88.92 150.316 89.28 151.636 89.28 152.836V155.956H80.52V152.836C80.52 151.636 80.88 150.316 81.72 149.236 82.56 148.156 83.76 147.436 84.96 147.076Z" fill="#ffff00" fill-rule="evenodd"/><path transform="matrix(1,0,0,-1,0,595.276)" d="M91.8 147.556 90.12 154.996H91.44L92.52 149.476 93.72 154.996H95.16L96.48 149.476 97.56 154.996H98.88L97.2 147.556H95.76L94.44 152.956 93.24 147.556Z" fill="#ffffff" fill-rule="evenodd"/><path transform="matrix(1,0,0,-1,0,595.276)" d="M78.84 153.196H76.44V154.276H79.2V155.116H71.16V154.276H73.92V153.196H71.64V147.436H72.48V147.916H78V147.556H78.84V153.196ZM74.76 154.276H75.6V153.196H74.76V154.276ZM76.44 152.356H78V151.036L77.52 151.396H77.4L77.16 150.796 76.92 150.436H76.56L76.44 150.556V150.796 152.356ZM72.48 152.356H73.92L73.8 151.756 73.68 151.156 73.56 150.676 73.2 150.316 72.84 150.076 72.48 149.956V152.356ZM72.48 148.756V149.836L72.84 149.596 73.2 149.236 73.68 149.596 74.04 150.076 74.4 150.556 74.64 151.156V151.756L74.76 152.356H75.6V150.436 150.196L75.72 149.956 75.96 149.836 76.2 149.716H77.04L77.4 149.836 77.76 150.196 77.88 150.556 78 150.796V148.756H72.48Z" fill="#ffffff" fill-rule="evenodd"/><path transform="matrix(1,0,0,-1,0,595.276)" d="M86.52 151.036H87.24V149.956H86.52V149.116H85.32V149.956H82.44V151.036L85.08 154.516H86.52V151.036ZM85.32 153.076 83.88 151.036H85.32V153.076Z" fill-rule="evenodd"/><path transform="matrix(1,0,0,-1,0,595.276)" d="M89.16 159.196C89.16 159.676 88.8 160.156 88.32 160.156 87.84 160.156 87.48 159.676 87.48 159.196 87.48 158.716 87.84 158.356 88.32 158.356 88.8 158.356 89.16 158.716 89.16 159.196Z" fill="#ffffff" fill-rule="evenodd"/><path transform="matrix(1,0,0,-1,0,595.276)" stroke-width=".12" stroke-linecap="butt" stroke-miterlimit="10" stroke-linejoin="miter" fill="none" stroke="#ffffff" d="M83.5 162.5V162.5"/><path transform="matrix(1,0,0,-1,0,595.276)" d="M83.52 162.436H82.32V163.636H83.28 83.4 83.52C84 163.876 84.36 164.476 84.12 164.956 84 165.436 83.52 165.916 82.92 165.916 82.56 165.916 82.08 165.796 81.72 165.436 81.36 165.196 81.24 164.716 81.24 164.356L79.68 164.596C79.68 165.196 80.04 165.916 80.64 166.396 81.24 166.996 82.08 167.236 82.92 167.236 84.12 167.236 85.2 166.516 85.68 165.436 85.92 164.596 85.44 163.636 84.72 163.036 85.68 162.436 86.04 161.236 85.68 160.156 85.2 159.076 84.12 158.356 82.92 158.356 82.08 158.356 81.24 158.596 80.64 159.196 80.04 159.676 79.68 160.396 79.8 160.996L81.24 161.236C81.12 160.516 81.84 159.796 82.68 159.796 83.04 159.676 83.4 159.796 83.76 160.036 84.12 160.276 84.24 160.636 84.24 160.996 84.36 161.356 84.24 161.716 84.12 161.956 83.88 162.196 83.64 162.436 83.52 162.436Z" fill="#ffffff" fill-rule="evenodd"/><path transform="matrix(1,0,0,-1,0,595.276)" d="M81.24 164.356V164.356Z" fill="#ffffff" fill-rule="evenodd"/><path transform="matrix(1,0,0,-1,0,595.276)" d="M81.24 161.236V161.236Z" fill="#ffffff" fill-rule="evenodd"/><path transform="matrix(1,0,0,-1,0,595.276)" d="M73.68 164.116H72.24V164.716C72.36 165.316 72.6 166.036 73.2 166.516 73.8 166.996 74.52 167.236 75.12 167.236 75.6 167.236 75.96 167.116 76.44 166.996 76.92 166.756 77.28 166.396 77.64 166.036 77.88 165.556 78.12 165.076 78.12 164.716 78.12 164.236 78 163.756 77.88 163.396 77.28 162.196 76.08 160.876 74.64 159.796H78V158.476H72.36V159.796C73.44 160.396 74.4 161.236 75.24 162.076 75.96 162.916 76.44 163.756 76.56 164.476 76.56 165.316 75.96 165.916 75.12 165.916 74.76 165.916 74.4 165.796 74.16 165.556 73.8 165.196 73.68 164.836 73.68 164.476V164.116Z" fill="#ffffff" fill-rule="evenodd"/><path transform="matrix(1,0,0,-1,0,595.276)" stroke-width=".12" stroke-linecap="butt" stroke-miterlimit="10" stroke-linejoin="miter" fill="none" stroke="#ffffff" d="M73.5 165.5H74.5"/><path transform="matrix(1,0,0,-1,0,595.276)" stroke-width=".12" stroke-linecap="butt" stroke-miterlimit="10" stroke-linejoin="miter" fill="none" stroke="#ffffff" d="M81.5 165.5V165.5"/><path transform="matrix(1,0,0,-1,0,595.276)" stroke-width=".12" stroke-linecap="butt" stroke-miterlimit="10" stroke-linejoin="miter" fill="none" stroke="#ffffff" d="M91.5 162.5V162.5"/><path transform="matrix(1,0,0,-1,0,595.276)" stroke-width=".12" stroke-linecap="butt" stroke-miterlimit="10" stroke-linejoin="miter" fill="none" stroke="#ffffff" d="M91.5 162.5V162.5"/><path transform="matrix(1,0,0,-1,0,595.276)" stroke-width=".12" stroke-linecap="butt" stroke-miterlimit="10" stroke-linejoin="miter" fill="none" stroke="#ffffff" d="M91.5 162.5V162.5"/><path transform="matrix(1,0,0,-1,0,595.276)" stroke-width=".12" stroke-linecap="butt" stroke-miterlimit="10" stroke-linejoin="miter" fill="none" stroke="#ffffff" d="M91.5 162.5V162.5"/><path transform="matrix(1,0,0,-1,0,595.276)" stroke-width=".12" stroke-linecap="butt" stroke-linejoin="round" fill="none" stroke="#ffffff" d="M91.08 162.796V162.796"/><path transform="matrix(1,0,0,-1,0,595.276)" stroke-width=".12" stroke-linecap="butt" stroke-miterlimit="10" stroke-linejoin="miter" fill="none" stroke="#ffffff" d="M91.5 162.5V162.5"/><path transform="matrix(1,0,0,-1,0,595.276)" d="M91.08 162.796V162.796C91.08 161.476 91.32 160.396 91.92 159.556 92.52 158.716 93.36 158.356 94.32 158.356 96.36 158.356 97.56 160.036 97.56 162.796 97.56 164.116 97.32 165.316 96.72 166.036 96.12 166.876 95.28 167.236 94.32 167.236 93.36 167.236 92.52 166.876 91.92 166.036 91.32 165.316 91.08 164.116 91.08 162.796ZM91.08 162.796V162.796ZM94.32 159.796C93.72 159.796 93.24 160.036 93 160.516 92.64 161.116 92.52 161.836 92.52 162.796 92.52 164.716 93.12 165.916 94.32 165.916 95.4 165.916 96.12 164.716 96.12 162.796 96.12 161.836 96 161.116 95.64 160.516 95.28 160.036 94.8 159.796 94.32 159.796Z" fill="#ffffff" fill-rule="evenodd"/></g></svg>