<?xml version='1.0' encoding='UTF-8'?>
<svg width="436.94" height="266.54" viewBox="65.54 1.85 436.94 266.54" xmlns="http://www.w3.org/2000/svg" xmlns:xlink="http://www.w3.org/1999/xlink" xmlns:inkscape="http://www.inkscape.org/namespaces/inkscape" version="1.1"><g transform="scale(10.0) translate(-329.439, -370.368)"><defs><clipPath id="clip_2"><path transform="matrix(1,0,0,-1,0,595.276)" d="M74.4 .196H767.4V595.276H74.4Z"/></clipPath></defs><path transform="matrix(1,0,0,-1,0,595.276)" stroke-width=".12" stroke-linecap="butt" stroke-miterlimit="10" stroke-linejoin="miter" fill="none" stroke="#000000" d="M378.5 222.5V222.5"/><path transform="matrix(1,0,0,-1,0,595.276)" d="M378.24 222.436V200.356C378.24 199.876 377.88 199.396 377.4 199.396H338.16C337.68 199.396 337.32 199.876 337.32 200.356V222.436C337.32 222.676 337.44 222.916 337.56 223.036 337.8 223.276 337.92 223.276 338.16 223.276H377.4C377.88 223.276 378.24 222.916 378.24 222.436Z" fill-rule="evenodd"/><path transform="matrix(1,0,0,-1,0,595.276)" d="M348.72 216.196H347.64V217.996C347.64 218.116 347.64 218.356 347.52 218.596 347.52 218.716 347.4 218.956 347.16 219.076 347.04 219.316 346.8 219.436 346.68 219.436 346.44 219.556 346.2 219.556 346.08 219.556H345.24L346.32 218.476H344.64L342.96 220.156 344.64 221.836H346.32L345.24 220.636H346.08C346.32 220.636 346.68 220.636 347.04 220.516 347.4 220.396 347.76 220.156 348 219.916 348.24 219.676 348.48 219.316 348.6 218.956 348.72 218.596 348.72 218.236 348.72 217.996V216.196Z" fill="#ffffff" fill-rule="evenodd"/><path transform="matrix(1,0,0,-1,0,595.276)" d="M354.48 214.276V218.956H355.32V214.276Z" fill="#ffffff" fill-rule="evenodd"/><path transform="matrix(1,0,0,-1,0,595.276)" d="M355.32 221.236V222.556H354.48V221.236Z" fill="#ffffff" fill-rule="evenodd"/><path transform="matrix(1,0,0,-1,0,595.276)" d="M355.32 211.996V207.316H354.48V211.996Z" fill="#ffffff" fill-rule="evenodd"/><path transform="matrix(1,0,0,-1,0,595.276)" d="M355.32 200.356V205.036H354.48V200.356Z" fill="#ffffff" fill-rule="evenodd"/><path transform="matrix(1,0,0,-1,0,595.276)" d="M366.36 200.356V205.036H367.2V200.356Z" fill="#ffffff" fill-rule="evenodd"/><path transform="matrix(1,0,0,-1,0,595.276)" d="M366.36 211.996V207.316H367.2V211.996Z" fill="#ffffff" fill-rule="evenodd"/><path transform="matrix(1,0,0,-1,0,595.276)" d="M366.36 218.956V214.276H367.2V218.956Z" fill="#ffffff" fill-rule="evenodd"/><path transform="matrix(1,0,0,-1,0,595.276)" d="M366.36 222.556V221.236H367.2V222.556Z" fill="#ffffff" fill-rule="evenodd"/><path transform="matrix(1,0,0,-1,0,595.276)" d="M372.24 221.836 373.8 220.276H372.48C372.12 220.276 371.52 220.156 371.04 219.916 370.56 219.796 370.2 219.436 369.84 219.076 369 218.356 368.64 217.276 368.64 216.316V209.956H370.2V216.316C370.2 217.636 371.28 218.716 372.48 218.716H373.8L372.24 217.156H374.52L376.92 219.436 374.52 221.836H372.24Z" fill="#ffffff" fill-rule="evenodd"/><path transform="matrix(1,0,0,-1,0,595.276)" d="M364.92 219.436 362.64 217.156H360.36L361.92 218.716H360.6C360.12 218.716 359.4 218.476 359.04 217.996 358.56 217.516 358.32 216.916 358.32 216.316V209.956H356.76V216.316C356.76 216.796 356.88 217.276 357 217.756 357.24 218.236 357.48 218.716 357.84 219.076 358.32 219.436 358.68 219.796 359.16 219.916 359.64 220.156 360.12 220.276 360.6 220.276H361.92L360.36 221.836H362.64L364.92 219.436Z" fill="#ffffff" fill-rule="evenodd"/><path transform="matrix(1,0,0,-1,0,595.276)" stroke-width=".12" stroke-linecap="round" stroke-linejoin="round" fill="none" stroke="#000000" d="M336.48 200.356V222.436C336.48 223.396 337.2 224.236 338.16 224.236H377.4C378.36 224.236 379.2 223.396 379.2 222.436V200.356C379.2 199.396 378.36 198.556 377.4 198.556H338.16C337.2 198.556 336.48 199.396 336.48 200.356"/><path transform="matrix(1,0,0,-1,0,595.276)" d="M351.48 207.556C351.48 208.996 350.88 210.436 349.8 211.516 348.84 212.476 347.4 213.076 345.84 213.076 344.4 213.076 342.96 212.476 341.88 211.516 340.92 210.436 340.32 208.996 340.32 207.556 340.32 205.996 340.92 204.676 341.88 203.596 342.96 202.516 344.4 201.916 345.84 201.916 347.4 201.916 348.84 202.516 349.8 203.596 350.88 204.676 351.48 205.996 351.48 207.556Z" fill="#ffffff" fill-rule="evenodd"/><path transform="matrix(1,0,0,-1,0,595.276)" d="M352.92 207.556C352.92 208.396 352.68 209.236 352.44 210.076 352.08 210.916 351.48 211.756 350.88 212.476 350.16 213.196 349.32 213.676 348.48 214.036 347.64 214.396 346.68 214.516 345.84 214.516 345.12 214.516 344.16 214.396 343.32 214.036 342.48 213.676 341.64 213.196 340.92 212.476 340.32 211.756 339.72 210.916 339.36 210.076 339 209.236 338.88 208.396 338.88 207.556 338.88 206.716 339 205.876 339.36 204.916 339.72 204.076 340.32 203.236 340.92 202.636 341.64 201.916 342.48 201.316 343.32 201.076 344.16 200.716 345.12 200.476 345.84 200.476 346.68 200.476 347.64 200.716 348.48 201.076 349.32 201.316 350.16 201.916 350.88 202.636 351.48 203.236 352.08 204.076 352.44 204.916 352.68 205.876 352.92 206.716 352.92 207.556ZM351.48 207.556C351.48 206.116 351 204.676 349.8 203.596 348.72 202.396 347.28 201.916 345.84 201.916 344.52 201.916 343.08 202.396 341.88 203.596 340.8 204.676 340.32 206.116 340.32 207.556 340.32 208.876 340.8 210.316 341.88 211.516 343.08 212.596 344.52 213.076 345.84 213.076 347.28 213.076 348.72 212.596 349.8 211.516 351 210.316 351.48 208.876 351.48 207.556Z" fill="#e1e1e1" fill-rule="evenodd"/><path transform="matrix(1,0,0,-1,0,595.276)" d="M349.08 205.396H348.6L348.96 204.916H347.52V204.556H348.96L348.6 204.076H349.08L349.68 204.676Z" fill-rule="evenodd"/><path transform="matrix(1,0,0,-1,0,595.276)" d="M342.72 205.396H343.2L342.84 204.916H344.28V204.556H342.84L343.2 204.076H342.72L342.12 204.676Z" fill-rule="evenodd"/><path transform="matrix(1,0,0,-1,0,595.276)" stroke-width=".12" stroke-linecap="butt" stroke-miterlimit="10" stroke-linejoin="miter" fill="none" stroke="#000000" d="M342.5 208.5V208.5"/><path transform="matrix(1,0,0,-1,0,595.276)" stroke-width=".12" stroke-linecap="butt" stroke-miterlimit="10" stroke-linejoin="miter" fill="none" stroke="#000000" d="M342.5 208.5V208.5"/><path transform="matrix(1,0,0,-1,0,595.276)" d="M342.36 208.396V208.396C342.36 208.516 342.36 208.516 342.36 208.636 342.48 208.636 342.48 208.756 342.6 208.756L343.32 209.956H342.72V210.796H349.44V208.516H344.88V208.396H349.56V207.796H348.48C348.48 207.796 348.6 207.676 348.6 207.556V207.436C348.6 207.556 348.48 207.676 348.48 207.676 348.36 207.796 348.24 207.916 348.12 207.916 347.88 207.916 347.64 207.796 347.52 207.556 347.52 207.676 347.52 207.676 347.64 207.796H344.88V207.316H343.92C343.92 207.436 343.92 207.556 343.8 207.676 343.68 207.796 343.56 207.916 343.32 207.916 343.2 207.916 343.08 207.796 342.96 207.676 342.84 207.556 342.84 207.436 342.84 207.316H342.36V208.396ZM342.72 208.756H343.92V209.836H343.32L342.72 208.876V208.756Z" fill-rule="evenodd"/><path transform="matrix(1,0,0,-1,0,595.276)" d="M345 207.316H346.32V207.796H345Z" fill-rule="evenodd"/><path transform="matrix(1,0,0,-1,0,595.276)" d="M348.48 207.316C348.48 207.436 348.48 207.556 348.36 207.676 348.24 207.796 348.12 207.796 348 207.796 347.88 207.796 347.76 207.796 347.64 207.676 347.52 207.556 347.52 207.436 347.52 207.316 347.52 207.196 347.52 207.076 347.64 206.956 347.76 206.836 347.88 206.836 348 206.836 348.12 206.836 348.24 206.836 348.36 206.956 348.48 207.076 348.48 207.196 348.48 207.316ZM348.24 207.316C348.24 207.196 348.12 207.076 348 207.076 347.88 207.076 347.76 207.196 347.76 207.316 347.76 207.436 347.88 207.556 348 207.556 348.12 207.556 348.24 207.436 348.24 207.316Z" fill-rule="evenodd"/><path transform="matrix(1,0,0,-1,0,595.276)" d="M343.92 207.316C343.92 207.436 343.8 207.556 343.68 207.676 343.68 207.796 343.44 207.796 343.32 207.796 343.2 207.796 343.08 207.796 342.96 207.676 342.96 207.556 342.84 207.436 342.84 207.316 342.84 207.196 342.96 207.076 342.96 206.956 343.08 206.836 343.2 206.836 343.32 206.836 343.44 206.836 343.68 206.836 343.68 206.956 343.8 207.076 343.92 207.196 343.92 207.316ZM343.68 207.316C343.68 207.196 343.56 207.076 343.32 207.076H343.2C343.08 207.196 343.08 207.196 343.08 207.316 343.08 207.436 343.2 207.556 343.32 207.556 343.44 207.556 343.44 207.556 343.56 207.556 343.56 207.436 343.68 207.436 343.68 207.316Z" fill-rule="evenodd"/><path transform="matrix(1,0,0,-1,0,595.276)" d="M344.88 205.276V204.076H345.24V205.756H345L344.88 205.636C344.88 205.636 344.76 205.636 344.64 205.636V205.276H344.88Z" fill-rule="evenodd"/><path transform="matrix(1,0,0,-1,0,595.276)" d="M345.72 203.356H345.84V202.876H345.96V203.236C345.96 203.356 345.96 203.356 346.08 203.356H346.2V202.876H346.32V203.356C346.32 203.476 346.2 203.596 346.08 203.596 345.96 203.596 345.96 203.476 345.96 203.476 345.84 203.476 345.84 203.596 345.72 203.596H345.6V203.476H345.48V202.876H345.6V203.236C345.6 203.356 345.6 203.356 345.72 203.356Z" fill-rule="evenodd"/><path transform="matrix(1,0,0,-1,0,595.276)" d="M346.44 204.076C346.68 204.076 346.8 204.196 346.92 204.316 347.04 204.436 347.16 204.676 347.16 204.916 347.16 205.516 346.92 205.876 346.44 205.876 346.2 205.876 345.96 205.756 345.84 205.636 345.72 205.396 345.72 205.276 345.72 204.916 345.72 204.676 345.72 204.436 345.84 204.316 345.96 204.196 346.2 204.076 346.44 204.076ZM345.96 204.916C345.96 205.276 346.2 205.516 346.44 205.516 346.56 205.516 346.56 205.396 346.68 205.396 346.68 205.276 346.8 205.156 346.8 204.916 346.8 204.556 346.68 204.436 346.44 204.436 346.2 204.436 345.96 204.556 345.96 204.916Z" fill-rule="evenodd"/></g></svg>