<?xml version='1.0' encoding='UTF-8'?>
<svg width="188.73" height="263.07" viewBox="190.15 4.45 188.73 263.07" xmlns="http://www.w3.org/2000/svg" xmlns:xlink="http://www.w3.org/1999/xlink" xmlns:inkscape="http://www.inkscape.org/namespaces/inkscape" version="1.1"><g transform="scale(10.0) translate(-56.655, -154.944)"><defs><clipPath id="clip_19"><path transform="matrix(0,1,1,0,0,0)" d="M0 19.875H595.008V822.117H0Z"/></clipPath><clipPath id="clip_20"><path transform="matrix(0,1,1,0,0,0)" d="M0 842.013H595.224V.008972168H0Z"/></clipPath></defs><path transform="matrix(0,1,1,0,77.025,155.718)" d="M0 0V16.164C0 16.29 .018 16.416 .072 16.542 .126 16.668 .198 16.794 .306 16.902 .414 16.992 .522 17.082 .648 17.118 .774 17.172 .9 17.19 1.026 17.19H24.624C24.75 17.19 24.876 17.172 25.002 17.118 25.128 17.082 25.254 16.992 25.344 16.902 25.452 16.794 25.524 16.668 25.578 16.542 25.632 16.416 25.65 16.29 25.65 16.164V0C25.65-.126 25.632-.252 25.578-.378 25.524-.504 25.452-.63 25.344-.72 25.254-.828 25.128-.9 25.002-.954 24.876-1.008 24.75-1.026 24.624-1.026H1.026C.756-1.026 .504-.918 .306-.72 .108-.54 0-.27 0 0" fill="#ffffff" fill-rule="evenodd"/><path transform="matrix(0,1,1,0,88.707,156.24)" d="M0 0 5.004 5.004H22.176L17.118-.054 17.496-.414H24.606V-10.368H15.318C14.976-10.368 14.634-10.44 14.292-10.584 13.95-10.728 13.662-10.926 13.41-11.16L12.384-12.186H.504C.378-12.186 .252-12.15 .144-12.042 .036-11.934 0-11.808 0-11.682V0" fill="#00ff00" fill-rule="evenodd"/><path transform="matrix(0,1,1,0,83.703,161.73)" d="M0 0H-1.908V1.908L-.954 2.862V1.584L6.372 8.91 7.002 8.28-.324 .954H.954" fill="#ffffff" fill-rule="evenodd"/><path transform="matrix(0,1,1,0,86.331,159.102)" d="M0 0H-1.908V1.908L-.954 2.862V1.584L3.51 6.048 4.14 5.4-.306 .954H.954" fill="#ffffff" fill-rule="evenodd"/><path transform="matrix(0,1,1,0,85.431,170.136)" d="M0 0 .36-.36-.594-1.314-.954-.954" fill="#ffffff" fill-rule="evenodd"/><path transform="matrix(0,1,1,0,85.935,172.8)" d="M0 0 1.35 1.35H2.7L1.8 .45H7.416V-.45H1.8L2.7-1.35H1.35" fill="#ffffff" fill-rule="evenodd"/><path transform="matrix(0,1,1,0,0,0)" d="M171.918 83.055H173.952V83.559H171.918Z" fill="#ffffff"/><path transform="matrix(0,1,1,0,0,0)" d="M174.96 83.055H176.97602V83.559H174.96Z" fill="#ffffff"/><path transform="matrix(0,1,1,0,0,0)" d="M178.002 83.055H180.018V83.559H178.002Z" fill="#ffffff"/><path transform="matrix(0,1,1,0,78.483,163.206)" d="M0 0 .36-.36-1.08-1.782-1.44-1.422" fill="#ffffff" fill-rule="evenodd"/><path transform="matrix(0,1,1,0,80.643,165.348)" d="M0 0 .36-.36-1.062-1.8-1.422-1.44" fill="#ffffff" fill-rule="evenodd"/><path transform="matrix(0,1,1,0,82.785,167.49)" d="M0 0 .378-.36-1.062-1.8-1.422-1.422" fill="#ffffff" fill-rule="evenodd"/><path transform="matrix(0,1,1,0,86.853,171.576)" d="M0 0 .36-.36-.594-1.314-.954-.954" fill="#ffffff" fill-rule="evenodd"/><path transform="matrix(0,1,1,0,88.293,172.998)" d="M0 0 .36-.36-.594-1.314-.954-.954" fill="#ffffff" fill-rule="evenodd"/><path transform="matrix(0,1,1,0,81.075,164.358)" d="M0 0H-1.908V1.908L-.954 2.862V1.602L9.234 11.772 9.864 11.142-.324 .954H.954" fill="#ffffff" fill-rule="evenodd"/><path transform="matrix(0,1,1,0,80.229,168.354)" d="M0 0C.288 .27 .63 .504 1.026 .666 1.422 .828 1.836 .918 2.232 .918H11.862V.018H2.232C1.944 .018 1.656-.036 1.368-.162 1.098-.27 .846-.432 .648-.648L-.612-1.89H.666L-.288-2.844H-2.196V-.936L-1.242 .018V-1.26L0 0" fill="#ffffff" fill-rule="evenodd"/><path transform="matrix(0,1,1,0,83.559,171.144)" d="M0 0H-2.7C-2.736 0-2.79 0-2.844-.018-2.898-.036-2.952-.072-3.006-.126-3.078-.216-3.114-.324-3.114-.432-3.096-.54-3.06-.648-2.97-.738-2.916-.774-2.862-.792-2.808-.81-2.754-.828-2.7-.828-2.646-.828L.036-.504C.18-.486 .27-.36 .27-.234 .252-.09 .144 0 0 0" fill="#ffffff" fill-rule="evenodd"/><path transform="matrix(0,1,1,0,93.189,181.368)" stroke-width=".144" stroke-linecap="round" stroke-linejoin="round" fill="none" stroke="#00ff00" d="M0 0C0 .576-.468 1.026-1.026 1.026"/><path transform="matrix(0,1,1,0,77.025,181.368)" stroke-width=".144" stroke-linecap="round" stroke-linejoin="round" fill="none" stroke="#00ff00" d="M0 0V16.164"/><path transform="matrix(0,1,1,0,75.999,180.342)" stroke-width=".144" stroke-linecap="round" stroke-linejoin="round" fill="none" stroke="#00ff00" d="M0 0C.558 0 1.026 .468 1.026 1.026"/><path transform="matrix(0,1,1,0,75.999,156.74399)" stroke-width=".144" stroke-linecap="round" stroke-linejoin="round" fill="none" stroke="#00ff00" d="M0 0H23.598"/><path transform="matrix(0,1,1,0,77.025,155.71799)" stroke-width=".144" stroke-linecap="round" stroke-linejoin="round" fill="none" stroke="#00ff00" d="M0 0C0-.558 .468-1.026 1.026-1.026"/><path transform="matrix(0,1,1,0,93.189,155.71799)" stroke-width=".144" stroke-linecap="round" stroke-linejoin="round" fill="none" stroke="#00ff00" d="M0 0V-16.164"/><path transform="matrix(0,1,1,0,94.215007,156.74399)" stroke-width=".144" stroke-linecap="round" stroke-linejoin="round" fill="none" stroke="#00ff00" d="M0 0C-.558 0-1.026-.45-1.026-1.026"/><path transform="matrix(0,1,1,0,94.215007,180.34198)" stroke-width=".144" stroke-linecap="round" stroke-linejoin="round" fill="none" stroke="#00ff00" d="M0 0H-23.598"/></g></svg>