<?xml version='1.0' encoding='UTF-8'?>
<svg width="254.59" height="254.59" viewBox="156.17 8.78 254.59 254.59" xmlns="http://www.w3.org/2000/svg" xmlns:xlink="http://www.w3.org/1999/xlink" xmlns:inkscape="http://www.inkscape.org/namespaces/inkscape" version="1.1"><g transform="scale(10.0) translate(-438.573, -47.232)"><defs><clipPath id="clip_2"><path transform="matrix(1,0,0,-1,0,595.276)" d="M74.4 .196H767.4V595.276H74.4Z"/></clipPath></defs><path transform="matrix(1,0,0,-1,0,595.276)" d="M479.4 534.436C479.4 537.796 478.08 540.916 475.68 543.316 473.4 545.596 470.16 546.916 466.92 546.916 463.56 546.916 460.44 545.596 458.04 543.316 455.76 540.916 454.44 537.796 454.44 534.436 454.44 531.076 455.76 527.956 458.04 525.556 460.44 523.276 463.56 521.956 466.92 521.956 470.16 521.956 473.4 523.276 475.68 525.556 478.08 527.956 479.4 531.076 479.4 534.436Z" fill="#ff0000" fill-rule="evenodd"/><path transform="matrix(1,0,0,-1,0,595.276)" d="M476.88 534.436C476.88 537.076 475.8 539.596 474 541.516 472.08 543.436 469.56 544.396 466.92 544.396 464.28 544.396 461.64 543.436 459.84 541.516 457.92 539.596 456.84 537.076 456.84 534.436 456.84 531.796 457.92 529.276 459.84 527.356 461.64 525.436 464.28 524.476 466.92 524.476 469.56 524.476 472.08 525.436 474 527.356 475.8 529.276 476.88 531.796 476.88 534.436Z" fill="#ffff00" fill-rule="evenodd"/><path transform="matrix(1,0,0,-1,0,595.276)" d="M463.32 542.836C463.32 542.716 463.44 542.716 463.44 542.716 463.56 542.596 463.68 542.596 463.8 542.596 464.28 542.476 464.52 542.236 464.52 541.876 464.52 541.396 464.28 541.156 463.68 541.156 463.44 541.156 463.32 541.156 463.08 541.276 462.96 541.396 462.72 541.516 462.72 541.636L463.08 541.876C463.2 541.756 463.44 541.636 463.68 541.636 463.92 541.636 464.04 541.756 464.04 541.876 464.04 541.996 463.92 542.116 463.56 542.116 463.08 542.236 462.84 542.356 462.84 542.836 462.84 543.316 463.2 543.556 463.68 543.556 463.92 543.556 464.04 543.436 464.16 543.436 464.4 543.316 464.52 543.316 464.64 543.196L464.28 542.836C464.04 542.956 463.92 543.076 463.68 543.076 463.44 543.076 463.44 542.956 463.32 542.836Z" fill-rule="evenodd"/><path transform="matrix(1,0,0,-1,0,595.276)" d="M465.96 542.956H466.56V543.436H464.88V542.956H465.6V541.276H465.96Z" fill-rule="evenodd"/><path transform="matrix(1,0,0,-1,0,595.276)" d="M467.88 543.556C468.6 543.556 468.96 543.076 468.96 542.356 468.96 541.996 468.84 541.756 468.72 541.516 468.48 541.276 468.24 541.156 467.88 541.156 467.28 541.156 466.92 541.636 466.92 542.356 466.92 542.716 466.92 542.956 467.16 543.196 467.4 543.436 467.64 543.556 467.88 543.556ZM468.48 542.356C468.48 542.596 468.48 542.716 468.36 542.836 468.24 542.956 468.12 543.076 467.88 543.076 467.52 543.076 467.28 542.836 467.28 542.356 467.28 542.116 467.4 541.996 467.52 541.876 467.64 541.756 467.76 541.636 467.88 541.636 468.24 541.636 468.48 541.876 468.48 542.356Z" fill-rule="evenodd"/><path transform="matrix(1,0,0,-1,0,595.276)" d="M469.92 542.116H470.52 470.64C470.88 542.116 471.12 542.476 471.12 542.716 471.12 543.076 470.88 543.316 470.64 543.436H470.52 469.44V541.276H469.92V542.116ZM469.92 542.476V543.076H470.4C470.52 543.076 470.64 542.836 470.64 542.716 470.64 542.596 470.52 542.476 470.4 542.476H469.92Z" fill-rule="evenodd"/><path transform="matrix(1,0,0,-1,0,595.276)" d="M468.96 527.956 469.44 526.156H468.84L468.48 527.956H467.88L466.92 526.276 466.44 526.516 467.28 527.956H466.68L467.52 530.116 466.92 529.876 466.8 529.036 466.08 528.556 465.72 529.036V528.436L466.2 526.276H465.6L465.24 527.956 463.92 526.396 463.44 526.756 464.4 527.956 464.76 529.396 464.4 529.276 464.16 528.556H463.8L463.92 529.396 464.76 530.116C464.88 530.116 464.88 530.116 465 530.116 465.12 530.236 465.12 530.116 465.24 530.116 465.36 530.116 465.48 530.116 465.6 530.116H465.72C465.84 530.116 465.84 529.996 465.84 529.876L466.2 529.036 466.44 529.156V529.996L467.52 530.836C467.52 530.956 467.64 530.956 467.76 530.956H467.88C468.12 530.956 468.24 530.956 468.36 530.956 468.48 530.956 468.48 530.956 468.6 530.956 468.6 530.956 468.72 530.956 468.72 530.836L469.44 529.876 470.28 529.156 470.16 528.916 469.2 529.396 468.72 529.876 469.56 527.956H468.96Z" fill-rule="evenodd"/><path transform="matrix(1,0,0,-1,0,595.276)" d="M465.96 530.836C465.96 531.076 465.72 531.316 465.48 531.316 465.12 531.316 464.88 531.076 464.88 530.836 464.88 530.476 465.12 530.236 465.48 530.236 465.72 530.236 465.96 530.476 465.96 530.836Z" fill-rule="evenodd"/><path transform="matrix(1,0,0,-1,0,595.276)" d="M468.72 531.676C468.72 532.036 468.48 532.396 468.12 532.396 467.76 532.396 467.52 532.036 467.52 531.676 467.52 531.436 467.76 531.076 468.12 531.076 468.48 531.076 468.72 531.436 468.72 531.676Z" fill-rule="evenodd"/><path transform="matrix(1,0,0,-1,0,595.276)" d="M460.2 535.876H473.52C473.76 535.876 473.88 535.876 474.12 535.756 474.24 535.756 474.48 535.636 474.6 535.516 474.84 535.156 474.96 534.796 474.96 534.436 474.96 534.076 474.84 533.716 474.6 533.356 474.48 533.236 474.24 533.116 474.12 533.116 473.88 532.996 473.76 532.996 473.52 532.996H460.2C459.84 532.996 459.48 533.116 459.24 533.356 458.88 533.716 458.76 534.076 458.76 534.436 458.76 534.796 458.88 535.156 459.24 535.516 459.48 535.756 459.84 535.876 460.2 535.876Z" fill-rule="evenodd"/><path transform="matrix(1,0,0,-1,0,595.276)" d="M466.2 539.476H465.96L465.84 539.116 465.6 538.756 465.48 538.396 465.24 538.036 465.48 537.796 465.6 538.156V536.356H465.96V538.636L466.2 539.236 466.32 539.356Z" fill-rule="evenodd"/><path transform="matrix(1,0,0,-1,0,595.276)" d="M467.16 539.476V539.236H466.32V538.996H468.36V539.236H467.4V539.356H467.52V539.476H467.4Z" fill-rule="evenodd"/><path transform="matrix(1,0,0,-1,0,595.276)" d="M466.56 538.756V538.156H468.12V538.756H466.56ZM466.8 538.396V538.516H467.76V538.396H466.8Z" fill-rule="evenodd"/><path transform="matrix(1,0,0,-1,0,595.276)" d="M466.2 537.916V537.196H466.44V537.676H468.12V537.196H468.48V537.916Z" fill-rule="evenodd"/><path transform="matrix(1,0,0,-1,0,595.276)" d="M466.68 537.436V537.076H467.16V536.836 536.716L467.04 536.596H466.92 466.8L466.92 536.356H467.04 467.28L467.4 536.476 467.52 536.596V536.836 537.076H468V537.436Z" fill-rule="evenodd"/></g></svg>