<?xml version='1.0' encoding='UTF-8'?>
<svg width="331.68" height="257.28" viewBox="118.05 7.20 331.68 257.28" xmlns="http://www.w3.org/2000/svg" xmlns:xlink="http://www.w3.org/1999/xlink" xmlns:inkscape="http://www.inkscape.org/namespaces/inkscape" version="1.1"><g transform="scale(10.0) translate(-111.171, -128.016)"><defs><clipPath id="clip_2"><path transform="matrix(1,0,0,-1,0,595.276)" d="M74.4 .196H767.4V595.276H74.4Z"/></clipPath></defs><path transform="matrix(1,0,0,-1,0,595.276)" d="M155.76 442.396V464.836C155.76 465.196 155.64 465.556 155.4 465.796 155.16 466.036 154.8 466.156 154.44 466.156H124.68C124.56 466.156 124.44 466.156 124.2 466.036 124.08 466.036 123.96 465.916 123.84 465.796 123.6 465.676 123.6 465.556 123.48 465.316 123.48 465.196 123.36 465.076 123.36 464.836V442.396C123.36 442.156 123.48 441.796 123.84 441.556 123.96 441.436 124.08 441.316 124.2 441.196 124.44 441.196 124.56 441.196 124.68 441.196H154.44C154.8 441.196 155.16 441.316 155.4 441.556 155.64 441.796 155.76 442.156 155.76 442.396Z" fill-rule="evenodd"/><path transform="matrix(1,0,0,-1,0,595.276)" d="M155.16 442.396V464.836C155.16 465.076 155.04 465.196 154.92 465.316 154.8 465.436 154.68 465.556 154.44 465.556H124.68C124.68 465.556 124.56 465.556 124.44 465.436 124.44 465.436 124.32 465.436 124.2 465.316 124.2 465.316 124.08 465.196 124.08 465.076 124.08 465.076 124.08 464.956 124.08 464.836V442.396C124.08 442.276 124.08 442.156 124.2 442.036 124.32 441.916 124.56 441.796 124.68 441.796H154.44C154.68 441.796 154.8 441.916 154.92 442.036 155.04 442.156 155.16 442.276 155.16 442.396Z" fill="#ffffff" fill-rule="evenodd"/><path transform="matrix(1,0,0,-1,0,595.276)" stroke-width=".12" stroke-linecap="butt" stroke-miterlimit="10" stroke-linejoin="miter" fill="none" stroke="#000000" d="M143.5 454.5V455.5"/><path transform="matrix(1,0,0,-1,0,595.276)" stroke-width=".12" stroke-linecap="butt" stroke-miterlimit="10" stroke-linejoin="miter" fill="none" stroke="#000000" d="M138.5 454.5H143.5"/><path transform="matrix(1,0,0,-1,0,595.276)" stroke-width=".12" stroke-linecap="butt" stroke-miterlimit="10" stroke-linejoin="miter" fill="none" stroke="#000000" d="M138.5 455.5H143.5"/><path transform="matrix(1,0,0,-1,0,595.276)" stroke-width=".12" stroke-linecap="butt" stroke-miterlimit="10" stroke-linejoin="miter" fill="none" stroke="#000000" d="M136.5 454.5 137.5 456.5"/><path transform="matrix(1,0,0,-1,0,595.276)" stroke-width=".12" stroke-linecap="butt" stroke-miterlimit="10" stroke-linejoin="miter" fill="none" stroke="#000000" d="M137.5 452.5 136.5 454.5"/><path transform="matrix(1,0,0,-1,0,595.276)" stroke-width=".12" stroke-linecap="butt" stroke-miterlimit="10" stroke-linejoin="miter" fill="none" stroke="#000000" d="M138.5 455.5 139.5 456.5"/><path transform="matrix(1,0,0,-1,0,595.276)" stroke-width=".12" stroke-linecap="butt" stroke-miterlimit="10" stroke-linejoin="miter" fill="none" stroke="#000000" d="M139.5 452.5 138.5 454.5"/><path transform="matrix(1,0,0,-1,0,595.276)" stroke-width=".12" stroke-linecap="butt" stroke-miterlimit="10" stroke-linejoin="miter" fill="none" stroke="#000000" d="M137.5 456.5H139.5"/><path transform="matrix(1,0,0,-1,0,595.276)" stroke-width=".12" stroke-linecap="butt" stroke-miterlimit="10" stroke-linejoin="miter" fill="none" stroke="#000000" d="M137.5 452.5H139.5"/><path transform="matrix(1,0,0,-1,0,595.276)" d="M131.16 461.716H130.08V464.236H131.16C131.76 464.236 132.24 463.756 132.24 463.036 132.24 462.676 132.12 462.316 131.88 462.076 131.76 461.836 131.4 461.716 131.16 461.716ZM130.68 463.756V462.316H131.04 131.16 131.28C131.52 462.316 131.64 462.676 131.64 463.036 131.64 463.396 131.52 463.636 131.28 463.636L131.16 463.756H131.04 130.68Z" fill-rule="evenodd"/><path transform="matrix(1,0,0,-1,0,595.276)" d="M132.6 461.716V463.516H133.08V463.396C133.2 463.516 133.2 463.516 133.32 463.516 133.44 463.636 133.56 463.636 133.68 463.636V463.156C133.56 463.156 133.44 463.036 133.32 463.036 133.2 462.916 133.2 462.916 133.08 462.796V461.716H132.6Z" fill-rule="evenodd"/><path transform="matrix(1,0,0,-1,0,595.276)" d="M134.52 461.716V463.516H134.16V461.716Z" fill-rule="evenodd"/><path transform="matrix(1,0,0,-1,0,595.276)" d="M134.64 463.996C134.64 464.116 134.52 464.236 134.4 464.236 134.16 464.236 134.04 464.116 134.04 463.996 134.04 463.876 134.16 463.756 134.4 463.756 134.52 463.756 134.64 463.876 134.64 463.996Z" fill-rule="evenodd"/><path transform="matrix(1,0,0,-1,0,595.276)" d="M135.48 461.716 134.88 463.516H135.36L135.72 462.316 136.2 463.516H136.68L136.08 461.716H135.72Z" fill-rule="evenodd"/><path transform="matrix(1,0,0,-1,0,595.276)" d="M137.4 461.716V463.516H137.04V461.716Z" fill-rule="evenodd"/><path transform="matrix(1,0,0,-1,0,595.276)" d="M137.52 463.996C137.52 464.116 137.4 464.236 137.28 464.236 137.04 464.236 136.92 464.116 136.92 463.996 136.92 463.876 137.04 463.756 137.28 463.756 137.4 463.756 137.52 463.876 137.52 463.996Z" fill-rule="evenodd"/><path transform="matrix(1,0,0,-1,0,595.276)" d="M139.56 461.716V463.036C139.56 463.396 139.32 463.636 138.84 463.636 138.72 463.636 138.72 463.636 138.6 463.636 138.48 463.516 138.48 463.516 138.48 463.396V463.516H137.88V461.716H138.48V462.916C138.48 463.036 138.6 463.156 138.72 463.156 138.96 463.156 139.08 463.036 139.08 462.916V462.796 461.716H139.56Z" fill-rule="evenodd"/><path transform="matrix(1,0,0,-1,0,595.276)" d="M141.6 461.716V463.516H141.12C141.12 463.516 141 463.636 140.76 463.636 140.16 463.636 139.92 463.276 139.92 462.676 140.04 462.076 140.28 461.836 140.76 461.836 140.76 461.836 140.88 461.836 141 461.836L141.12 461.956V461.836C141.12 461.716 141 461.596 140.88 461.596 140.76 461.596 140.64 461.596 140.52 461.596 140.4 461.596 140.28 461.716 140.16 461.716L139.92 461.356C140.16 461.236 140.52 461.116 140.76 461.116 141.24 461.116 141.6 461.356 141.6 461.716ZM141.12 462.916V462.436C141.12 462.436 141.12 462.316 141 462.316L140.88 462.196C140.64 462.196 140.4 462.436 140.4 462.676 140.4 462.916 140.64 463.156 140.76 463.156 141 463.156 141.12 463.036 141.12 462.916Z" fill-rule="evenodd"/><path transform="matrix(1,0,0,-1,0,595.276)" d="M143.64 463.516H144V463.156H143.64V462.316 462.196L143.76 462.076H143.88L144 462.196 144.12 461.716C144 461.716 143.88 461.716 143.64 461.716 143.52 461.716 143.4 461.716 143.28 461.836 143.16 461.836 143.16 461.956 143.16 462.076V463.156H142.8V463.516H143.16V464.116L143.64 464.236V463.516Z" fill-rule="evenodd"/><path transform="matrix(1,0,0,-1,0,595.276)" d="M146.04 462.436C146.04 463.156 145.8 463.636 145.2 463.636 144.72 463.636 144.48 463.276 144.36 462.676 144.36 462.436 144.48 462.196 144.6 461.956 144.72 461.836 145.08 461.716 145.32 461.716 145.56 461.716 145.92 461.836 145.92 461.956L145.68 462.316C145.56 462.196 145.44 462.076 145.32 462.076 145.2 462.076 145.08 462.196 144.96 462.196V462.316C144.96 462.436 144.84 462.436 144.84 462.436H146.04ZM144.84 462.796V462.916L144.96 463.036C145.08 463.156 145.08 463.156 145.2 463.156 145.32 463.156 145.56 463.036 145.56 462.916V462.796H144.84Z" fill-rule="evenodd"/><path transform="matrix(1,0,0,-1,0,595.276)" d="M147.84 462.316C147.84 462.676 147.6 462.916 147.24 462.916 147.12 462.916 147 462.916 147 462.916 146.88 462.916 146.88 463.036 146.88 463.036 146.88 463.156 147 463.156 147.12 463.156 147.24 463.156 147.24 463.156 147.36 463.156L147.48 463.036 147.84 463.396C147.72 463.516 147.48 463.636 147.12 463.636 146.64 463.636 146.4 463.396 146.4 463.036 146.4 462.676 146.52 462.556 146.88 462.436 147.12 462.436 147.36 462.436 147.36 462.316 147.36 462.196 147.24 462.196 147.24 462.196L147.12 462.076C147 462.076 146.88 462.196 146.88 462.196 146.76 462.196 146.64 462.316 146.64 462.316L146.28 462.076C146.4 461.836 146.76 461.716 147.12 461.716 147.36 461.716 147.48 461.716 147.6 461.836 147.72 461.956 147.84 462.076 147.84 462.316Z" fill-rule="evenodd"/><path transform="matrix(1,0,0,-1,0,595.276)" d="M148.8 463.516H149.28V463.156H148.8V462.316 462.196C148.92 462.196 148.92 462.076 148.92 462.076H149.04C149.16 462.196 149.16 462.196 149.28 462.196V461.716C149.16 461.716 149.04 461.716 148.8 461.716 148.68 461.716 148.56 461.716 148.44 461.836 148.32 461.836 148.32 461.956 148.32 462.076V463.156H147.96V463.516H148.32V464.116L148.8 464.236V463.516Z" fill-rule="evenodd"/><path transform="matrix(1,0,0,-1,0,595.276)" d="M129.36 458.236 128.76 460.036H129.24L129.72 458.836 130.08 460.036H130.56L129.96 458.236H129.72Z" fill-rule="evenodd"/><path transform="matrix(1,0,0,-1,0,595.276)" d="M132.36 458.956C132.36 459.676 132.12 460.036 131.52 460.036 131.04 460.036 130.8 459.796 130.8 459.076 130.8 458.836 130.8 458.596 130.92 458.476 131.16 458.236 131.4 458.116 131.64 458.116 132 458.116 132.24 458.236 132.36 458.476L132 458.716C132 458.716 131.76 458.596 131.64 458.596 131.52 458.596 131.52 458.596 131.4 458.716 131.4 458.716 131.28 458.716 131.28 458.836V458.956H132.36ZM131.28 459.316V459.316C131.28 459.436 131.28 459.436 131.4 459.556 131.4 459.556 131.52 459.676 131.64 459.676 131.76 459.676 131.88 459.556 131.88 459.316H131.28Z" fill-rule="evenodd"/><path transform="matrix(1,0,0,-1,0,595.276)" d="M133.2 459.916C133.44 460.156 133.68 460.156 133.92 460.036 134.04 459.916 134.16 459.916 134.28 459.796 134.28 459.676 134.4 459.556 134.4 459.436V458.236H133.92V459.316L133.8 459.436V459.556C133.68 459.556 133.68 459.556 133.56 459.556 133.44 459.556 133.44 459.556 133.32 459.556 133.32 459.436 133.2 459.316 133.2 459.316V458.236H132.72V460.756H133.2V459.916Z" fill-rule="evenodd"/><path transform="matrix(1,0,0,-1,0,595.276)" d="M135.48 458.236V460.036H135V458.236Z" fill-rule="evenodd"/><path transform="matrix(1,0,0,-1,0,595.276)" d="M135.48 460.516C135.48 460.636 135.36 460.756 135.24 460.756 135 460.756 134.88 460.636 134.88 460.516 134.88 460.276 135 460.156 135.24 460.156 135.36 460.156 135.48 460.276 135.48 460.516Z" fill-rule="evenodd"/><path transform="matrix(1,0,0,-1,0,595.276)" d="M136.68 460.036C136.92 460.036 137.04 460.036 137.16 459.916 137.28 459.916 137.4 459.676 137.52 459.556L137.04 459.316C137.04 459.556 136.8 459.676 136.68 459.676 136.44 459.676 136.32 459.436 136.32 459.196V459.076 458.956C136.32 458.716 136.44 458.596 136.68 458.596 136.8 458.596 136.92 458.596 136.92 458.716 137.04 458.716 137.04 458.836 137.04 458.956L137.52 458.716C137.4 458.356 137.16 458.116 136.68 458.116 136.08 458.116 135.84 458.476 135.84 459.076 135.84 459.796 136.2 460.036 136.68 460.036Z" fill-rule="evenodd"/><path transform="matrix(1,0,0,-1,0,595.276)" d="M138.24 460.756V458.716C138.24 458.596 138.36 458.596 138.6 458.716V458.236H138.48C138.36 458.236 138.36 458.236 138.24 458.236 138 458.236 137.76 458.356 137.76 458.476V458.596 460.756H138.24Z" fill-rule="evenodd"/><path transform="matrix(1,0,0,-1,0,595.276)" d="M140.4 458.956C140.52 459.676 140.16 460.036 139.56 460.036 139.08 460.036 138.84 459.796 138.84 459.076 138.84 458.836 138.84 458.596 138.96 458.476 139.2 458.236 139.44 458.116 139.68 458.116 140.04 458.116 140.28 458.236 140.4 458.476L140.16 458.716C140.04 458.716 139.92 458.596 139.68 458.596 139.68 458.596 139.56 458.596 139.44 458.716 139.44 458.716 139.32 458.716 139.32 458.836V458.956H140.4ZM139.32 459.316V459.316C139.32 459.436 139.32 459.436 139.44 459.556 139.44 459.556 139.56 459.676 139.68 459.676 139.8 459.676 139.92 459.556 139.92 459.316H140.04 139.32Z" fill-rule="evenodd"/><path transform="matrix(1,0,0,-1,0,595.276)" d="M142.32 458.716C142.32 459.076 142.08 459.316 141.72 459.436 141.6 459.436 141.48 459.436 141.36 459.436V459.556C141.36 459.556 141.36 459.676 141.6 459.676 141.6 459.676 141.72 459.676 141.84 459.676 141.84 459.556 141.96 459.556 141.96 459.436L142.2 459.796C142.08 460.036 141.84 460.156 141.6 460.156 141.12 460.156 140.88 459.916 140.76 459.436 140.88 459.196 141 458.956 141.36 458.956 141.6 458.956 141.72 458.836 141.72 458.716V458.596H141.6C141.48 458.596 141.36 458.596 141.24 458.716 141.12 458.716 141.12 458.716 141 458.836L140.64 458.476C140.88 458.236 141.12 458.116 141.48 458.116 141.72 458.116 141.96 458.236 142.08 458.356 142.2 458.476 142.32 458.596 142.32 458.716Z" fill-rule="evenodd"/><path transform="matrix(1,0,0,-1,0,595.276)" d="M145.2 459.076C145.2 459.796 144.84 460.036 144.36 460.036 144 460.036 143.88 460.036 143.64 459.796 143.52 459.676 143.4 459.436 143.4 459.076 143.4 458.836 143.52 458.596 143.64 458.356 143.88 458.236 144 458.116 144.36 458.116 144.84 458.116 145.2 458.476 145.2 459.076ZM144.72 459.076C144.72 458.836 144.6 458.596 144.36 458.596 144.12 458.596 144 458.836 144 459.076 144 459.316 144 459.436 144 459.436 144.12 459.556 144.24 459.556 144.36 459.556 144.6 459.556 144.72 459.436 144.72 459.076Z" fill-rule="evenodd"/><path transform="matrix(1,0,0,-1,0,595.276)" d="M147.12 458.236V459.436C147.12 459.916 146.88 460.036 146.52 460.036 146.4 460.036 146.28 460.036 146.28 460.036 146.16 460.036 146.16 459.916 146.04 459.916V460.036H145.56V458.236H146.04V459.316C146.04 459.556 146.16 459.676 146.4 459.676 146.52 459.676 146.64 459.556 146.64 459.316V458.236H147.12Z" fill-rule="evenodd"/><path transform="matrix(1,0,0,-1,0,595.276)" d="M148.08 460.756V458.716C148.08 458.596 148.2 458.596 148.44 458.716V458.236H148.32C148.32 458.236 148.2 458.236 148.08 458.236 147.84 458.236 147.72 458.356 147.6 458.476V458.596 460.756H148.08Z" fill-rule="evenodd"/><path transform="matrix(1,0,0,-1,0,595.276)" d="M150.36 460.036H149.88L149.52 458.956 149.16 460.036H148.68L149.16 458.356C149.28 458.356 149.28 458.236 149.28 458.236V458.116H149.16 149.04C148.92 458.116 148.92 458.116 148.8 458.116V457.636C149.04 457.636 149.16 457.636 149.4 457.636 149.4 457.636 149.52 457.636 149.52 457.756 149.64 457.756 149.64 457.876 149.64 457.996L150.36 460.036Z" fill-rule="evenodd"/><path transform="matrix(1,0,0,-1,0,595.276)" d="M137.88 452.956H139.56L138.36 454.156H143.16V455.236H138.36L139.56 456.436H137.88L136.08 454.756Z" fill-rule="evenodd"/><path transform="matrix(1,0,0,-1,0,595.276)" d="M136.08 450.316H137.04L136.8 450.076 136.56 449.836 136.32 449.596 135.96 449.476 136.2 449.236 136.56 449.476V448.156H136.92V449.596L137.28 449.236 137.52 449.356 137.28 449.596 136.92 449.836 137.28 450.196 137.4 450.556H136.92V451.036 451.156H136.8 136.56V450.556H136.08Z" fill-rule="evenodd"/><path transform="matrix(1,0,0,-1,0,595.276)" d="M137.52 450.916V448.636L137.28 448.516 137.4 448.276V448.156 448.276H137.52L138.24 448.636V448.876L137.88 448.756V449.836H138.24V449.356L138.36 448.876 138.48 448.516 138.6 448.276 138.72 448.156H138.84 138.96V448.276L139.08 448.396V448.516 448.756L138.96 448.876 138.84 448.636V448.516L138.72 448.636 138.6 448.876V449.236L138.48 449.476V449.836H139.08V450.076H138.48V450.796H138.84 138.96V450.916L138.72 451.156 138.24 451.036 137.76 450.916H137.52ZM137.88 450.076V450.676H138.24V450.076H137.88Z" fill-rule="evenodd"/><path transform="matrix(1,0,0,-1,0,595.276)" d="M140.52 450.196 140.76 450.436 140.52 450.676 140.28 450.916 140.04 450.676 140.28 450.436Z" fill-rule="evenodd"/><path transform="matrix(1,0,0,-1,0,595.276)" d="M140.04 448.516 140.28 448.396H140.4L140.64 448.876 140.88 449.356 140.64 449.596 140.4 448.996Z" fill-rule="evenodd"/><path transform="matrix(1,0,0,-1,0,595.276)" d="M140.64 449.956 140.88 449.716 141.12 450.076V448.156H141.48V448.396H143.16V448.636H142.32V448.996H142.92V449.236H142.32V449.596H142.92V449.836H142.32V450.196H143.04V450.556H142.32L142.56 450.796V450.916H142.68 142.56L142.44 451.036H142.2L141.96 450.556H141.48L141.6 450.916H141.72V451.036H141.6L141.36 451.156 141.24 450.796 141 450.556 140.88 450.196 140.64 449.956ZM141.48 449.236V449.596H142.08V449.236H141.48ZM141.48 449.836V450.196H142.08V449.836H141.48ZM141.48 448.636V448.996H142.08V448.636H141.48Z" fill-rule="evenodd"/><path transform="matrix(1,0,0,-1,0,595.276)" d="M127.92 445.156H129.24L129 444.916 128.64 444.796 128.28 444.676 127.92 444.556 128.16 444.316 128.52 444.436 128.76 444.556 128.64 443.956 128.88 443.836 129 444.076H130.32V443.836L130.2 443.716H129.96 129.72 129.24L129.48 443.356H129.6 129.96L130.08 443.476H130.32L130.44 443.596 130.56 443.716 130.68 443.836V443.956 444.196 444.316H129.12V444.556H129.84L130.56 444.676H130.68V444.796L130.44 445.036 129.84 444.916 129.24 444.796 129.72 445.156H130.92V445.396H130.08L130.68 445.996 130.8 446.116H130.68V446.236H130.44L130.08 445.876V445.996H129.48V446.236 446.356H129.36 129.12V445.996H128.28V445.756H129.12V445.396H127.92V445.156ZM129.6 445.396H129.48V445.756H129.96L129.6 445.396Z" fill-rule="evenodd"/><path transform="matrix(1,0,0,-1,0,595.276)" d="M132.12 446.356V445.036 444.556 444.196L132 443.836 131.88 443.596 132.24 443.356 132.36 443.836 132.48 444.556H132.84V443.356H133.08V444.796H132.48V445.156H133.2V445.396H133.08V446.116 446.236L132.96 446.356H132.72V445.396H132.48V446.236 446.356H132.36Z" fill-rule="evenodd"/><path transform="matrix(1,0,0,-1,0,595.276)" d="M133.32 446.116V444.796H133.68L133.44 444.676 133.32 444.556 133.44 444.436 133.8 444.556 134.04 444.796H134.88V446.116H134.16L134.28 446.236V446.356L133.92 446.476 133.8 446.116H133.32ZM133.56 445.156V445.396H133.92V445.156H133.56ZM134.28 445.636V445.876H134.64V445.636H134.28ZM133.56 445.636V445.876H133.92V445.636H133.56ZM134.64 445.156H134.16V445.276 445.396H134.64V445.156Z" fill-rule="evenodd"/><path transform="matrix(1,0,0,-1,0,595.276)" d="M134.04 444.796V444.316H133.2V444.076H134.04V443.356H134.4V444.076H135V444.316H134.4V444.556 444.676L134.28 444.796Z" fill-rule="evenodd"/><path transform="matrix(1,0,0,-1,0,595.276)" d="M136.2 446.116V445.876H137.4V445.636H136.56V444.316H137.4V444.076H136.08V443.836H137.4V443.356H137.64V443.836H139.08V444.076H137.64V444.316H138.6V445.636H137.64V445.876H138.84V446.116H137.64V446.236H137.76V446.356L137.4 446.476V446.116H136.2ZM136.8 445.156V445.396H137.4V445.156H136.8ZM136.8 444.556V444.796H137.4V444.556H136.8ZM137.64 445.156V445.396H138.36V445.156H137.64ZM137.64 444.556V444.796H138.36V444.556H137.64Z" fill-rule="evenodd"/><path transform="matrix(1,0,0,-1,0,595.276)" d="M140.04 445.756H140.52V445.636H140.16V444.316H140.52V444.076H140.04V443.836H140.52V443.356H140.76V443.836H141.24V444.076H140.76V444.316H141.24V445.636H140.76V445.756H141.24V446.116H140.76V446.236L140.88 446.356H140.76 140.52V446.116H140.04V445.756ZM140.76 445.156V445.276H141V445.156H140.76ZM140.76 444.556V444.796H141V444.556H140.76ZM140.4 445.156V445.276H140.52V445.156H140.4ZM140.4 444.556V444.796H140.52V444.556H140.4Z" fill-rule="evenodd"/><path transform="matrix(1,0,0,-1,0,595.276)" d="M141.36 445.876H142.08V445.636H141.36V443.356H141.72V444.196 444.076L141.84 444.316 141.96 444.196V444.076L142.08 444.196V443.476H142.44V444.196L142.56 444.076V444.316L142.68 444.076 142.8 444.196V443.836 443.716 443.596H142.68 142.56L142.68 443.356H142.8 142.92 143.04L143.16 443.476V443.596 445.636H142.44V445.876H143.16V446.236H141.36V445.876ZM141.72 444.316V444.796H141.84L141.72 444.556V444.316ZM142.44 444.316V444.796H142.56V444.556L142.44 444.316ZM142.8 445.036H142.44V445.276H142.8V444.316 444.556 445.036ZM142.08 445.036H141.72V445.276H142.08V444.316 444.556 445.036Z" fill-rule="evenodd"/><path transform="matrix(1,0,0,-1,0,595.276)" d="M144.12 445.036 144.36 444.796 144.48 445.036V443.356H144.84V445.636L145.08 446.116V446.236L144.84 446.356 144.6 445.996 144.48 445.636 144.24 445.276Z" fill-rule="evenodd"/><path transform="matrix(1,0,0,-1,0,595.276)" d="M145.08 445.996V445.756H145.92V445.516H145.2V444.436H145.44V444.556H145.92V444.316L145.8 444.196 145.56 444.436 145.32 444.316 145.44 444.076 145.68 443.956 145.32 443.716H144.96L145.08 443.356 145.56 443.476 145.8 443.716 146.16 443.596 146.4 443.476 146.76 443.356H147L147.24 443.716H146.88 146.64L146.28 443.836 146.04 443.956 146.16 444.196 146.28 444.556H146.64V444.316H147V445.516H146.28V445.756H147.12V445.996H146.28V446.236 446.356H145.92V445.996H145.08ZM146.28 445.156H146.64V444.796H146.28V445.156ZM145.44 444.796V445.156H145.92V444.796H145.44Z" fill-rule="evenodd"/><path transform="matrix(1,0,0,-1,0,595.276)" d="M148.68 446.236V445.396L148.56 444.796V444.196L148.44 443.836 148.2 443.596 148.56 443.356 148.68 443.596 148.8 443.836V444.076L148.92 444.436H149.64V443.596H149.88V444.436H150.6V443.956 443.836 443.716H150.48 150.24L150.36 443.356H150.48 150.72L150.84 443.476 150.96 443.596V443.836 446.236H148.68ZM148.92 445.516V445.996H149.64V445.516H148.92ZM149.64 444.676H148.92V445.156H149.64V444.676ZM149.88 445.516V445.996H150.6V445.516H149.88ZM149.88 444.676V445.156H150.6V444.676H149.88Z" fill-rule="evenodd"/></g></svg>