<?xml version='1.0' encoding='UTF-8'?>
<svg width="549.33" height="241.53" viewBox="10.15 19.45 549.33 241.53" xmlns="http://www.w3.org/2000/svg" xmlns:xlink="http://www.w3.org/1999/xlink" xmlns:inkscape="http://www.inkscape.org/namespaces/inkscape" version="1.1"><g transform="scale(10.0) translate(-274.875, -20.304)"><defs><clipPath id="clip_19"><path transform="matrix(0,1,1,0,0,0)" d="M0 19.875H595.008V822.117H0Z"/></clipPath><clipPath id="clip_20"><path transform="matrix(0,1,1,0,0,0)" d="M0 842.013H595.224V.008972168H0Z"/></clipPath></defs><path transform="matrix(0,1,1,0,328.899,22.788)" d="M0 0V-51.084C0-51.246 .036-51.408 .108-51.588 .162-51.75 .27-51.912 .414-52.056 .54-52.2 .702-52.29 .882-52.362 1.044-52.434 1.224-52.47 1.386-52.47H21.708C21.87-52.47 22.032-52.434 22.212-52.362 22.374-52.29 22.536-52.2 22.68-52.056 22.824-51.912 22.914-51.75 22.986-51.588 23.058-51.408 23.076-51.246 23.076-51.084V0C23.076 .18 23.058 .342 22.986 .522 22.914 .684 22.824 .846 22.68 .99 22.536 1.116 22.374 1.224 22.212 1.296 22.032 1.368 21.87 1.386 21.708 1.386H1.386C1.224 1.386 1.044 1.368 .882 1.296 .702 1.224 .54 1.116 .414 .99 .27 .846 .162 .684 .108 .522 .036 .342 0 .18 0 0ZM.702-51.084V0C.702 .18 .756 .36 .9 .504 1.044 .648 1.224 .702 1.386 .702H21.708C21.87 .702 22.05 .648 22.194 .504 22.266 .432 22.302 .342 22.338 .27 22.374 .18 22.392 .09 22.392 0V-51.084C22.392-51.246 22.338-51.426 22.194-51.57 22.05-51.714 21.87-51.768 21.708-51.768H1.386C1.206-51.768 1.026-51.696 .9-51.57 .774-51.444 .702-51.264 .702-51.084" fill-rule="evenodd"/><path transform="matrix(0,1,1,0,277.815,23.49)" d="M0 0V51.084C0 51.264 .054 51.444 .198 51.588 .342 51.732 .522 51.786 .684 51.786H21.006C21.078 51.786 21.168 51.768 21.258 51.732 21.33 51.696 21.42 51.642 21.492 51.588 21.564 51.516 21.6 51.426 21.636 51.354 21.672 51.264 21.69 51.174 21.69 51.084V0C21.69-.162 21.636-.342 21.492-.486 21.348-.63 21.168-.684 21.006-.684H.684C.504-.684 .324-.612 .198-.486 .072-.36 0-.18 0 0" fill="#ffffff" fill-rule="evenodd"/><path transform="matrix(0,1,1,0,279.957,26.37)" d="M0 0V.756C0 .774 0 .81 0 .846V.864C0 .864 0 .864 0 .864-.036 1.026-.126 1.17-.288 1.278-.45 1.386-.648 1.44-.846 1.44-1.026 1.44-1.242 1.404-1.386 1.296-1.548 1.188-1.656 1.044-1.674 .9-1.674 .9-1.674 .882-1.674 .864-1.692 .846-1.692 .81-1.692 .774V-.576H1.008V0H0ZM-.468 0H-1.224V.63C-1.206 .702-1.152 .756-1.08 .81-1.008 .846-.918 .864-.846 .864-.774 .864-.684 .846-.612 .792-.54 .756-.486 .684-.468 .63V.612C-.468 .612-.468 .63-.468 .612V0" fill-rule="evenodd"/><path transform="matrix(0,1,1,0,0,0)" d="M24.678 282.027H27.378V282.56703H24.678Z"/><path transform="matrix(0,1,1,0,288.399,24.678)" d="M0 0 1.08-.9 2.7 .09V-.576L1.512-1.26 1.854-1.53H2.7V-2.106H0V-1.53H1.062L0-.666" fill-rule="evenodd"/><path transform="matrix(0,1,1,0,292.215,24.678)" d="M0 0H1.602 1.692C1.692 0 1.602 0 1.692 0 1.782 0 1.944-.018 2.034-.018 2.142-.018 2.16-.036 2.232-.054 2.394-.126 2.538-.27 2.646-.468 2.736-.666 2.79-.9 2.79-1.116 2.79-1.332 2.736-1.566 2.646-1.746 2.556-1.944 2.412-2.088 2.232-2.16H2.214C2.214-2.16 2.232-2.16 2.214-2.16 2.214-2.178 2.214-2.178 2.196-2.178 2.16-2.178 2.106-2.214 2.034-2.214 1.962-2.232 1.872-2.232 1.728-2.232H0V-1.656H1.62 1.656C1.656-1.656 1.62-1.656 1.656-1.656 1.692-1.638 1.782-1.638 1.818-1.638H1.854C1.944-1.602 2.052-1.548 2.106-1.44 2.178-1.332 2.214-1.206 2.214-1.116 2.214-1.026 2.178-.9 2.124-.81 2.07-.702 1.98-.63 1.89-.594H1.854C1.818-.594 1.746-.576 1.71-.576 1.692-.576 1.674-.576 1.674-.576H0V0" fill-rule="evenodd"/><path transform="matrix(0,1,1,0,293.583,26.37)" d="M0 0V.756C0 .774 0 .81 0 .828 0 .846 0 .846 0 .864-.036 1.008-.126 1.17-.288 1.278-.45 1.386-.648 1.44-.846 1.44-1.026 1.44-1.242 1.386-1.386 1.278-1.548 1.188-1.656 1.044-1.674 .882V.864C-1.674 .864-1.674 .882-1.674 .864-1.692 .828-1.692 .792-1.692 .774V-.594H1.008V0H0ZM-.468 0H-1.224V.612 .63C-1.224 .63-1.224 .63-1.224 .63-1.206 .684-1.152 .756-1.08 .792-1.008 .846-.918 .864-.846 .864-.774 .864-.684 .846-.612 .792-.54 .738-.486 .684-.468 .612-.468 .594-.468 .576-.468 .558V0" fill-rule="evenodd"/><path transform="matrix(0,1,1,0,296.787,25.776)" d="M0 0C-.126-.108-.324-.18-.504-.162-.684-.162-.846-.072-.972 .054-1.08 .198-1.152 .378-1.152 .558-1.134 .738-1.062 .918-.936 1.026-.828 1.134-.666 1.206-.486 1.224-.306 1.224-.144 1.17-.018 1.062H0L.018 1.044 .072 .954 .09 .936C.108 .882 .144 .828 .18 .774L.738 1.116V1.134C.63 1.188 .522 1.224 .414 1.224H.396V1.71C.648 1.728 .99 1.602 1.152 1.404 1.17 1.422 1.188 1.458 1.188 1.512 1.188 1.548 1.17 1.602 1.152 1.674L1.548 1.764C1.602 1.746 1.638 1.584 1.656 1.386 1.656 1.26 1.602 1.098 1.548 1.008 1.638 .9 1.692 .666 1.692 .468 1.692 .198 1.602-.036 1.44-.216 1.278-.378 1.044-.468 .792-.468 .396-.468 .144-.324 0 0ZM.45 .306C.486 .252 .522 .216 .558 .18 .612 .144 .666 .126 .72 .108 .828 .072 .936 .108 1.008 .162 1.098 .216 1.17 .306 1.188 .414 1.206 .522 1.17 .648 1.116 .738L.45 .306ZM-.216 .504C-.234 .54-.288 .612-.342 .648-.396 .702-.45 .72-.486 .72-.594 .72-.684 .648-.684 .54-.684 .504-.666 .468-.612 .414-.558 .378-.504 .36-.45 .36-.378 .36-.306 .414-.216 .504" fill-rule="evenodd"/><path transform="matrix(0,1,1,0,280.263,31.212)" d="M0 0V-1.116H-2.682V0C-2.682 .324-2.574 .612-2.322 .81-2.07 1.026-1.71 1.134-1.35 1.134-.972 1.134-.612 1.026-.36 .81-.108 .612 0 .324 0 0ZM-2.106-.54H-.576V-.108-.072C-.576-.072-.576-.108-.576-.072-.576-.036-.576 .036-.576 .072V.108C-.576 .108-.576 .108-.576 .108-.612 .234-.702 .36-.828 .432-.972 .522-1.152 .558-1.35 .558-1.512 .558-1.692 .522-1.836 .45-1.962 .378-2.052 .27-2.088 .144V.09C-2.088 .09-2.088 .144-2.088 .09-2.106 .054-2.106-.018-2.106-.054V-.09C-2.106-.09-2.106-.09-2.106-.09V-.54" fill-rule="evenodd"/><path transform="matrix(0,1,1,0,282.657,30.222)" d="M0 0H.99V-.612H-1.692V.774C-1.674 .99-1.566 1.188-1.422 1.314-1.26 1.458-1.062 1.53-.846 1.53-.486 1.53-.162 1.296-.036 .954L.99 1.584V.954L0 .342V0ZM-.54 0V.666C-.54 .684-.54 .702-.558 .702V.72C-.558 .72-.558 .72-.558 .72-.576 .846-.72 .918-.846 .918-1.008 .918-1.152 .828-1.152 .684V0H-.54" fill-rule="evenodd"/><path transform="matrix(0,1,1,0,286.041,28.422)" d="M0 0C0 .36 .126 .702 .396 .936 .666 1.17 1.026 1.278 1.44 1.278 1.872 1.278 2.232 1.17 2.502 .936 2.772 .702 2.898 .36 2.898 0 2.898-.378 2.772-.702 2.502-.954 2.232-1.188 1.872-1.296 1.44-1.296 1.026-1.296 .666-1.188 .396-.954 .126-.702 0-.378 0 0ZM1.44 .702C.918 .702 .576 .432 .576 0 .576-.45 .918-.72 1.44-.72 1.692-.72 1.926-.648 2.088-.522 2.232-.396 2.322-.216 2.322 0 2.322 .432 1.98 .702 1.44 .702" fill-rule="evenodd"/><path transform="matrix(0,1,1,0,288.579,30.222)" d="M0 0V.756C0 .774-.018 .81-.018 .828-.018 .846-.018 .864-.018 .864-.036 1.026-.126 1.17-.288 1.278-.45 1.386-.666 1.44-.846 1.44-1.044 1.44-1.242 1.386-1.404 1.296-1.548 1.188-1.656 1.044-1.692 .882V.864C-1.692 .864-1.692 .882-1.692 .864-1.692 .846-1.692 .792-1.692 .774V-.576H.99V0H0ZM-.468 0H-1.242V.576L-1.224 .612V.63C-1.224 .63-1.224 .63-1.224 .63-1.206 .684-1.17 .756-1.08 .792-1.008 .846-.918 .864-.846 .864-.774 .864-.684 .846-.612 .792-.54 .756-.486 .684-.468 .63V.612C-.468 .612-.468 .63-.468 .612V0" fill-rule="evenodd"/><path transform="matrix(0,1,1,0,292.737,28.422)" d="M0 0C0 .378 .144 .702 .396 .936 .648 1.152 1.008 1.278 1.44 1.278 1.89 1.278 2.25 1.152 2.502 .936 2.754 .702 2.898 .378 2.898 0 2.898-.378 2.772-.72 2.502-.954 2.232-1.188 1.872-1.296 1.44-1.296 1.026-1.296 .666-1.188 .396-.954 .126-.72 0-.378 0 0ZM1.44 .702C1.206 .702 .972 .648 .81 .504 .666 .378 .576 .198 .576 0 .576-.45 .918-.72 1.44-.72 1.692-.72 1.926-.666 2.088-.522 2.232-.396 2.322-.216 2.322 0 2.322 .198 2.232 .378 2.088 .504 1.926 .648 1.692 .702 1.44 .702" fill-rule="evenodd"/><path transform="matrix(0,1,1,0,295.293,30.186)" d="M0 0V1.026H-.54V0H-1.116V1.134H-1.656V-.576H1.026V0" fill-rule="evenodd"/><path transform="matrix(0,1,1,0,297.597,30.186)" d="M0 0V1.044H-.54V0H-1.116V1.134H-1.656V-.576H1.026V0" fill-rule="evenodd"/><path transform="matrix(0,1,1,0,285.645,26.64)" d="M0 0C.234-.072 .45-.234 .594-.432 .756-.648 .828-.9 .828-1.152 .828-1.53 .702-1.854 .432-2.106 .162-2.34-.216-2.448-.612-2.448-1.026-2.448-1.404-2.34-1.674-2.106-1.926-1.854-2.052-1.53-2.052-1.152-2.07-.9-1.998-.648-1.818-.414-1.656-.18-1.404-.054-1.17 0L-.936-.522C-1.08-.522-1.224-.594-1.332-.72-1.44-.846-1.512-1.008-1.512-1.152-1.512-1.566-1.152-1.836-.612-1.836-.072-1.836 .27-1.566 .27-1.152 .27-1.026 .234-.864 .126-.72 .072-.666 .018-.612-.054-.576-.108-.54-.18-.522-.234-.522L0 0" fill-rule="evenodd"/><path transform="matrix(0,1,1,0,323.697,28.746)" d="M0 0V-7.416C0-7.578 .036-7.722 .09-7.884 .144-8.046 .234-8.19 .342-8.316 .468-8.442 .594-8.55 .756-8.622 .9-8.694 1.044-8.748 1.206-8.748L3.168-8.982C3.33-9 3.51-8.964 3.654-8.838 3.726-8.766 3.78-8.694 3.798-8.622 3.834-8.532 3.852-8.442 3.852-8.37L3.942-8.784C3.87-8.91 3.744-9.018 3.6-9.09 3.456-9.162 3.294-9.198 3.15-9.18L1.17-8.946C1.008-8.928 .828-8.874 .666-8.802 .486-8.712 .342-8.586 .198-8.442 .072-8.298-.018-8.136-.09-7.956-.126-7.866-.144-7.776-.162-7.686-.18-7.596-.18-7.506-.18-7.416V0C-.18 .162-.162 .342-.09 .522-.018 .702 .072 .864 .198 1.008 .342 1.17 .486 1.278 .666 1.368 .738 1.404 .828 1.44 .918 1.476 1.008 1.494 1.098 1.512 1.17 1.512L3.15 1.746C3.294 1.764 3.456 1.746 3.6 1.674 3.744 1.602 3.87 1.476 3.942 1.35L3.852 .954C3.852 1.098 3.798 1.278 3.654 1.404 3.582 1.476 3.492 1.512 3.42 1.53 3.33 1.566 3.24 1.566 3.168 1.548L1.206 1.332C1.044 1.314 .9 1.26 .756 1.188 .594 1.116 .468 1.008 .342 .882 .234 .756 .144 .612 .09 .45 .036 .306 0 .144 0 0" fill-rule="evenodd"/><path transform="matrix(0,1,1,0,323.193,32.598)" d="M0 0V-2.628C-.234-2.25-.378-1.8-.378-1.314-.378-.828-.234-.378 0 0" fill-rule="evenodd"/><path transform="matrix(0,1,1,0,327.297,39.528)" d="M0 0V-2.322H2.124C2.232-2.16 2.322-1.98 2.394-1.782 2.466-1.584 2.502-1.368 2.502-1.152 2.502-.936 2.466-.738 2.394-.54 2.322-.342 2.232-.162 2.124 0H0" fill-rule="evenodd"/><path transform="matrix(0,1,1,0,314.985,41.652)" d="M0 0H-2.124V-2.304H0C.108-2.16 .198-1.98 .27-1.782 .342-1.584 .378-1.368 .378-1.152 .378-.936 .342-.738 .27-.54 .198-.342 .108-.162 0 0" fill-rule="evenodd"/><path transform="matrix(0,1,1,0,323.103,30.564)" d="M0 0C-.324 0-.648-.126-.864-.36-1.098-.594-1.224-.9-1.224-1.224-1.224-1.548-1.098-1.872-.864-2.106-.648-2.322-.324-2.466 0-2.466 .324-2.466 .63-2.322 .864-2.106 1.098-1.872 1.224-1.548 1.224-1.224 1.224-.9 1.098-.594 .864-.36 .63-.126 .324 0 0 0" fill-rule="evenodd"/><path transform="matrix(0,1,1,0,314.121,28.728)" d="M0 0C-.324 0-.63-.126-.864-.36-1.098-.576-1.224-.9-1.224-1.224-1.224-1.548-1.098-1.854-.864-2.088-.63-2.322-.324-2.448 0-2.448 .324-2.448 .648-2.322 .882-2.088 1.116-1.854 1.242-1.548 1.242-1.224 1.242-.9 1.116-.576 .882-.36 .648-.126 .324 0 0 0" fill-rule="evenodd"/><path transform="matrix(0,1,1,0,306.993,30.582)" d="M0 0-1.368 3.186C-1.494 3.456-1.512 3.78-1.422 4.122-1.332 4.446-1.116 4.698-.864 4.878-.774 4.95-.684 5.04-.63 5.148-.504 5.4-.27 5.634 .036 5.778 .324 5.904 .648 5.922 .936 5.85L1.314 5.76 .792 6.57 1.962 6.318 2.646 5.238 1.746 4.806 2.988 4.464 3.816 3.996 4.554 4.716H6.444L4.914 2.718 7.596 1.638 11.34 1.242 11.034 .288 6.606 .27 3.582 .63 2.106 1.134 .45 2.052 .81 .828 2.826 .396 2.79 .252 3.294 .144C3.33 .054 3.33-.09 3.258-.198 3.186-.324 3.078-.378 2.97-.396L2.556-.324 2.52-.45 0 0" fill-rule="evenodd"/><path transform="matrix(0,1,1,0,302.745,29.7)" d="M0 0C-.234 .198-.396 .468-.468 .774-.522 1.08-.486 1.404-.342 1.692L.81 3.942 1.17 4.014 3.33 3.6 1.746 3.15 1.17 2.052 3.06 3.042 4.536 3.546 7.506 3.654 8.91 4.32 11.664 4.356 11.718 4.266 8.37 2.448 5.67 1.908 8.298 .774 12.024 .486V-.486H8.136L5.688 .126 4.23 .576 3.276 .018 3.978 .108 6.084-1.062 6.3-1.152C6.426-1.188 6.534-1.278 6.552-1.386 6.588-1.512 6.516-1.62 6.39-1.674 6.264-1.728 6.12-1.746 5.958-1.728L5.814-1.71 5.76-1.89 3.78-.936 1.584-1.044C1.08-1.08 .594-.828 .324-.378 .234-.234 .126-.108 0 0" fill-rule="evenodd"/><path transform="matrix(0,1,1,0,302.835,28.728)" d="M0 0C-.324 0-.63-.144-.864-.378-1.098-.594-1.224-.918-1.224-1.242-1.224-1.566-1.098-1.872-.864-2.106-.63-2.34-.324-2.466 0-2.466 .324-2.466 .648-2.34 .882-2.106 1.098-1.872 1.242-1.566 1.242-1.242 1.242-.918 1.098-.594 .882-.378 .648-.144 .324 0 0 0" fill-rule="evenodd"/><path transform="matrix(0,1,1,0,318.837,26.64)" d="M0 0V2.304L.774 2.646V4.464C.774 4.716 .81 5.004 .9 5.274 .99 5.562 1.134 5.814 1.332 6.048 1.512 6.282 1.746 6.48 1.998 6.624 2.25 6.786 2.502 6.876 2.772 6.93L6.354 7.722 6.318 7.506 2.808 6.75C2.574 6.696 2.322 6.606 2.088 6.462 1.872 6.336 1.656 6.156 1.476 5.922 1.314 5.706 1.17 5.472 1.08 5.22 1.008 4.968 .954 4.698 .954 4.464V-2.16C.954-2.412 1.008-2.664 1.08-2.916 1.17-3.186 1.314-3.42 1.476-3.636 1.656-3.852 1.872-4.032 2.088-4.176 2.322-4.32 2.574-4.41 2.808-4.464L6.318-5.22 6.354-5.418 2.772-4.644C2.502-4.59 2.25-4.482 1.998-4.338 1.746-4.194 1.512-3.996 1.332-3.762 1.134-3.528 .99-3.258 .9-2.988 .81-2.718 .774-2.43 .774-2.16V-.36L0 0ZM.774-.144V2.43L.198 2.178V.126L.774-.144" fill-rule="evenodd"/><path transform="matrix(0,1,1,0,327.297,39.528)" d="M0 0V-14.616C0-14.706-.018-14.814-.054-14.904-.09-14.994-.144-15.084-.234-15.174-.306-15.246-.396-15.3-.486-15.336-.576-15.372-.684-15.39-.774-15.39H-5.22C-5.49-15.39-5.76-15.3-5.994-15.12-6.228-14.922-6.372-14.67-6.426-14.418L-6.93-11.97V-2.646L-6.426-.216C-6.372 .036-6.228 .306-5.994 .486-5.76 .684-5.49 .756-5.22 .756H-.774C-.594 .756-.378 .702-.234 .54-.072 .378 0 .18 0 0" fill="#ff0000" fill-rule="evenodd"/><path transform="matrix(0,1,1,0,317.541,33.822)" d="M0 0V.612H-.45V-1.062H0V-.45H1.71V0" fill="#ffffff" fill-rule="evenodd"/><path transform="matrix(0,1,1,0,320.349,35.532)" d="M0 0-2.16-.684V-1.332L0-1.998V-1.548L-.36-1.422V-.576L0-.468V0ZM-.774-.702V-1.296L-1.728-1.008-.774-.702" fill="#ffffff" fill-rule="evenodd"/><path transform="matrix(0,1,1,0,320.511,33.372)" d="M0 0 1.008 .612 2.16-.054V.486L1.458 .9 2.16 1.296V1.836L1.008 1.17 0 1.782V1.278L.63 .9 0 .504" fill="#ffffff" fill-rule="evenodd"/><path transform="matrix(0,1,1,0,0,0)" d="M33.372 322.761H35.532V323.175H33.372Z" fill="#ffffff"/><path transform="matrix(0,1,1,0,283.431,33.336)" d="M0 0-.018-.324H3.294V-1.872H3.726V2.034H3.294V.108H1.8V1.62H1.404V.108H.18L.126 .216 .072 .234 .036 .162" fill-rule="evenodd"/><path transform="matrix(0,1,1,0,287.319,34.668)" d="M0 0H-.576V.99L-.288 .756-.036 .486 .18 .144 .378-.252 .684 .018 .558 .288 .396 .504 .594 .756 .774 1.08 .918 .684 1.008 .288 1.062-.108 1.098-.504 1.476-.432 1.35 .342H2.61V.738H2.43V2.25H2.61V2.664H1.35V.414L1.206 .99 .99 1.458 1.26 2.34 1.422 3.312 1.044 3.546 .936 2.664 .756 1.854 .396 2.412 .018 2.844-.234 2.538-.198 2.466V1.152L-.288 1.278-.324 1.35-.342 1.386H-.378L-.432 1.35-.576 1.116V2.952H0V3.366H-.918V1.746H-1.134L-1.206 1.818H-1.26L-1.296 1.782-1.314 1.692-1.35 1.296H-.918V-.414H0V0ZM.216 .774 .144 .846V2.088L.396 1.8 .63 1.44 .216 .774ZM2.106 .738H1.67399V2.25H2.106Z" fill-rule="evenodd"/><path transform="matrix(0,1,1,0,292.485,33.57)" d="M0 0H.36V.774H.9C1.73 .763 2.608 .545 3.186-.09L3.402-.396 3.726-.018 3.33 .36 2.898 .666 2.43 .882 1.908 1.026 2.214 1.17 2.484 1.35 2.718 1.548 2.916 1.782 3.204 1.224 3.348 .648 3.708 .954 3.474 1.53 3.15 2.088 3.456 2.628 3.708 3.24 3.312 3.618 3.132 2.97 2.88 2.376 2.484 2.646 2.088 2.88 1.638 3.06 1.17 3.222 .972 2.844 1.08 2.808V2.322L.126 2.79-.108 2.412 0 2.358V0ZM.36 1.17V2.178L1.512 1.692 1.638 2.07 1.422 2.178V2.7L1.782 2.574 2.124 2.43 2.412 2.25 2.646 2.052 2.358 1.728 2.07 1.476 1.746 1.314 1.422 1.206 .36 1.17" fill-rule="evenodd"/><path transform="matrix(0,1,1,0,284.205,39.852)" d="M0 0H.36V1.044H.612V1.458H.36V2.43H.612V2.862H.36V3.924H0V2.862H-.108L-.162 2.934H-.216L-.252 2.88-.27 2.772-.288 2.43H0V1.458H-.072L-.144 1.512H-.198L-.234 1.494-.252 1.422-.27 1.044H0" fill-rule="evenodd"/><path transform="matrix(0,1,1,0,284.817,40.482)" d="M0 0 .234-.27 .45 .09 .72 .414 .432 .666 .18 .342" fill-rule="evenodd"/><path transform="matrix(0,1,1,0,284.475,41.22)" d="M0 0 .234-.27 .45 .126 .684 .45 .396 .72 .162 .36" fill-rule="evenodd"/><path transform="matrix(0,1,1,0,284.259,43.218)" d="M0 0 .288 .324 .306 .396-.342 .72-.864 1.026-1.152 .756-.54 .396" fill-rule="evenodd"/><path transform="matrix(0,1,1,0,285.339,41.472)" d="M0 0 .198 .378-.126 .612 .216 .972 .45 .45 .63-.126 .954 .162 .846 .45H2.052V.882H1.908V1.8H2.052V2.214H.828L.936 2.484 .612 2.844 .432 2.232 .198 1.674-.198 2.07-.666 2.466-.936 2.142-.792 1.998V1.08L-.882 1.134-.936 1.242-.972 1.278-1.026 1.224-1.062 1.116-1.134 .792-.828 .63-.522 .45-.252 .234 0 0ZM-.45 .828V1.746L-.216 1.548-.018 1.314-.198 1.062-.45 .828ZM.792 2.07V.594L.63 .99 .45 1.332 .792 2.07ZM1.566 .882H1.13401V1.8H1.566Z" fill-rule="evenodd"/><path transform="matrix(0,1,1,0,289.965,40.896)" d="M0 0H-.576V1.008L-.288 .774-.036 .486 .198 .144 .378-.252 .684 .036 .558 .306 .396 .504 .612 .756 .792 1.08 .918 .684 1.008 .306 1.08-.108 1.098-.504 1.476-.414 1.35 .36H2.61V.738H2.43V2.25H2.61V2.664H1.35V.414L1.206 .99 .99 1.458 1.26 2.34 1.422 3.312 1.044 3.564 .936 2.664 .774 1.854 .396 2.43 .018 2.844-.234 2.556-.18 2.466V1.17L-.288 1.296-.324 1.368-.342 1.404H-.378L-.432 1.35-.576 1.134V2.97H0V3.384H-.918V1.746H-1.116L-1.188 1.818-1.26 1.836-1.296 1.8-1.314 1.692-1.35 1.314H-.918V-.396H0V0ZM.216 .792 .144 .864V2.088L.396 1.8 .63 1.458 .216 .792ZM2.106 .738H1.67399V2.25H2.106Z" fill-rule="evenodd"/><path transform="matrix(0,1,1,0,317.793,36.468)" d="M0 0 .378-.198V-.504H2.34V-.27H2.124V.27H2.286V.522H.378V.09L.144 .216 .108 .27H.09L.072 .234 .036 .18 0 0ZM1.134-.27H.6119999V.26997999H1.134ZM1.89-.27H1.3680301V.26997999H1.89Z" fill="#ffffff" fill-rule="evenodd"/><path transform="matrix(0,1,1,0,318.945,36.54)" d="M0 0-.054-.18 .198-.288 .432-.396 .63-.522 .792-.648 .918-.414 .756-.288 .54-.18V.378H1.206C1.521 .418 1.978 .439 2.016 .018V-.18L2.268-.072V.09C2.329 .656 1.598 .636 1.224 .63H.306V-.072L.108 .036 .072 .072 .054 .09 .018 .054" fill="#ffffff" fill-rule="evenodd"/><path transform="matrix(0,1,1,0,318.711,37.512)" d="M0 0 .162-.162 .378 .018 .612 .198 .45 .396 .198 .216" fill="#ffffff" fill-rule="evenodd"/><path transform="matrix(0,1,1,0,321.663,36.486)" d="M0 0-.018-.198H.756V-1.242H1.008V-.198H1.944V-1.098H2.178V.954H1.944V.072H1.008V1.116H.756V.072H.108L.072 .126 .036 .144 .018 .108" fill="#ffffff" fill-rule="evenodd"/></g></svg>