<?xml version='1.0' encoding='UTF-8'?>
<svg width="399.00" height="255.00" viewBox="83.37 8.70 399.00 255.00" xmlns="http://www.w3.org/2000/svg" xmlns:xlink="http://www.w3.org/1999/xlink" xmlns:inkscape="http://www.inkscape.org/namespaces/inkscape" version="1.1"><g transform="scale(10.0) translate(-438.573, -74.160)"><defs><clipPath id="clip_2"><path transform="matrix(1,0,0,-1,0,595.276)" d="M74.4 .196H767.4V595.276H74.4Z"/></clipPath></defs><path transform="matrix(1,0,0,-1,0,595.276)" d="M447.36 498.196V516.796C447.36 517.156 447.48 517.516 447.6 517.876 447.72 518.236 447.96 518.596 448.2 518.956 448.56 519.196 448.92 519.436 449.28 519.556 449.64 519.796 450 519.796 450.36 519.796H483.48C484.2 519.796 484.92 519.556 485.52 518.956 485.88 518.596 486 518.236 486.24 517.876 486.36 517.516 486.36 517.156 486.36 516.796V498.196C486.36 497.476 486.12 496.756 485.52 496.036 484.92 495.436 484.2 495.196 483.48 495.196H450.36C449.64 495.196 448.8 495.436 448.2 496.036 447.6 496.756 447.36 497.476 447.36 498.196Z" fill="#ffffff" fill-rule="evenodd"/><path transform="matrix(1,0,0,-1,0,595.276)" d="M448.8 498.196V516.796C448.8 517.156 449.04 517.516 449.28 517.876 449.64 518.236 450 518.356 450.36 518.356H483.48C483.6 518.356 483.84 518.236 483.96 518.236 484.2 518.116 484.32 517.996 484.44 517.876 484.68 517.756 484.68 517.516 484.8 517.396 484.92 517.156 484.92 517.036 484.92 516.796V498.196C484.92 497.836 484.8 497.476 484.44 497.116 484.2 496.876 483.84 496.756 483.48 496.756H450.36C450 496.756 449.64 496.876 449.28 497.116 449.04 497.476 448.8 497.836 448.8 498.196Z" fill="#0000ff" fill-rule="evenodd"/><path transform="matrix(1,0,0,-1,0,595.276)" stroke-width=".12" stroke-linecap="butt" stroke-miterlimit="10" stroke-linejoin="miter" fill="none" stroke="#ffffff" d="M474.5 503.5V503.5"/><path transform="matrix(1,0,0,-1,0,595.276)" d="M461.64 501.556V503.476H471.48C471.36 503.356 471.24 503.236 471.12 502.996 471.12 502.876 471 502.636 471 502.516 471.12 502.636 471.24 502.876 471.36 503.116 471.6 503.236 471.72 503.476 471.96 503.596 472.44 503.836 472.92 503.836 473.4 503.836 473.88 503.716 474.36 503.476 474.72 503.116 475.08 502.756 475.32 502.276 475.32 501.796 475.44 502.156 475.44 502.396 475.32 502.756 475.2 502.996 475.08 503.356 474.84 503.476H479.04V505.756H461.64V506.236H478.56V515.476H453V512.236H455.52L451.56 506.476C451.32 506.116 451.2 505.756 451.2 505.396V501.556H453.24C453.24 502.156 453.48 502.756 453.84 503.116 454.32 503.596 454.92 503.836 455.52 503.836 456 503.836 456.6 503.596 457.08 503.116 457.56 502.756 457.8 502.156 457.8 501.556H461.64ZM455.28 511.516H457.68V507.316H453.36C453.24 507.316 453 507.316 452.88 507.556 452.88 507.556 452.88 507.676 452.88 507.796 452.88 507.916 452.88 507.916 453 508.036L455.28 511.516Z" fill="#ffffff" fill-rule="evenodd"/><path transform="matrix(1,0,0,-1,0,595.276)" d="M461.64 501.556V501.556Z" fill="#ffffff" fill-rule="evenodd"/><path transform="matrix(1,0,0,-1,0,595.276)" d="M453 515.476V515.476Z" fill="#ffffff" fill-rule="evenodd"/><path transform="matrix(1,0,0,-1,0,595.276)" d="M462.12 501.796H467.16V503.236H462.12Z" fill="#ffffff" fill-rule="evenodd"/><path transform="matrix(1,0,0,-1,0,595.276)" d="M482.52 498.196H481.08V505.516H482.52Z" fill="#ffffff" fill-rule="evenodd"/><path transform="matrix(1,0,0,-1,0,595.276)" d="M475.08 501.556C475.08 502.636 474.24 503.476 473.04 503.476 471.96 503.476 471.12 502.636 471.12 501.556 471.12 500.476 471.96 499.516 473.04 499.516 474.24 499.516 475.08 500.476 475.08 501.556ZM474.12 501.556C474.12 500.956 473.64 500.596 473.04 500.596 472.56 500.596 472.08 500.956 472.08 501.556 472.08 502.036 472.56 502.516 473.04 502.516 473.64 502.516 474.12 502.036 474.12 501.556Z" fill="#ffffff" fill-rule="evenodd"/><path transform="matrix(1,0,0,-1,0,595.276)" d="M457.44 501.556C457.44 502.636 456.6 503.476 455.52 503.476 454.44 503.476 453.48 502.636 453.48 501.556 453.48 500.476 454.44 499.516 455.52 499.516 456.6 499.516 457.44 500.476 457.44 501.556ZM456.48 501.556C456.48 500.956 456 500.596 455.52 500.596 454.92 500.596 454.56 500.956 454.56 501.556 454.56 502.036 454.92 502.516 455.52 502.516 456 502.516 456.48 502.036 456.48 501.556Z" fill="#ffffff" fill-rule="evenodd"/><path transform="matrix(1,0,0,-1,0,595.276)" stroke-width=".12" stroke-linecap="butt" stroke-miterlimit="10" stroke-linejoin="miter" fill="none" stroke="#0000ff" d="M464.5 509.5V509.5"/><path transform="matrix(1,0,0,-1,0,595.276)" stroke-width=".12" stroke-linecap="butt" stroke-miterlimit="10" stroke-linejoin="miter" fill="none" stroke="#0000ff" d="M464.5 509.5V509.5"/><path transform="matrix(1,0,0,-1,0,595.276)" d="M464.76 509.236V509.236C464.52 509.236 464.28 509.236 464.04 509.356 463.92 509.476 463.8 509.716 463.68 509.956L462.6 509.596C462.72 509.116 463.08 508.636 463.44 508.396 463.8 508.156 464.16 508.036 464.76 508.036 466.08 508.036 466.92 508.876 466.92 510.076 466.92 510.796 466.68 511.396 466.32 511.756 465.96 512.116 465.48 512.236 464.76 512.236 464.64 512.236 464.52 512.236 464.28 512.236L464.04 512.116V512.236 512.716H466.44V513.796H462.96L462.72 510.916 463.92 510.796C463.92 511.036 464.28 511.156 464.64 511.156 464.88 511.156 465.24 511.156 465.36 510.916 465.6 510.676 465.72 510.436 465.72 510.196 465.6 509.596 465.24 509.236 464.76 509.236Z" fill="#0000ff" fill-rule="evenodd"/><path transform="matrix(1,0,0,-1,0,595.276)" d="M469.08 508.756C469.08 509.116 468.72 509.356 468.48 509.356 468.12 509.356 467.88 509.116 467.88 508.756 467.88 508.396 468.12 508.156 468.48 508.156 468.72 508.156 469.08 508.396 469.08 508.756Z" fill="#0000ff" fill-rule="evenodd"/><path transform="matrix(1,0,0,-1,0,595.276)" stroke-width=".12" stroke-linecap="butt" stroke-miterlimit="10" stroke-linejoin="miter" fill="none" stroke="#0000ff" d="M472.5 509.5V509.5"/><path transform="matrix(1,0,0,-1,0,595.276)" stroke-width=".12" stroke-linecap="butt" stroke-miterlimit="10" stroke-linejoin="miter" fill="none" stroke="#0000ff" d="M472.5 509.5V509.5"/><path transform="matrix(1,0,0,-1,0,595.276)" d="M472.08 509.236V509.236C471.84 509.236 471.6 509.236 471.48 509.356 471.24 509.476 471.12 509.716 471 509.956L469.92 509.596C470.16 509.116 470.4 508.636 470.76 508.396 471.12 508.156 471.6 508.036 472.08 508.036 473.4 508.036 474.24 508.876 474.24 510.076 474.24 511.516 473.52 512.236 472.2 512.236 472.08 512.236 471.84 512.236 471.6 512.236 471.48 512.236 471.48 512.116 471.36 512.116V512.236 512.716H473.88V513.796H470.4L470.04 510.916 471.24 510.796C471.36 511.036 471.6 511.156 471.96 511.156 472.32 511.156 472.56 511.156 472.8 510.916 472.92 510.676 473.04 510.436 473.04 510.196 473.04 509.596 472.68 509.236 472.08 509.236Z" fill="#0000ff" fill-rule="evenodd"/><path transform="matrix(1,0,0,-1,0,595.276)" d="M476.64 512.236H477.6V511.276H476.64V509.476C476.64 509.356 476.64 509.236 476.76 509.236 476.76 509.116 476.88 509.116 477 509.116 477.12 509.116 477.24 509.116 477.24 509.116 477.36 509.116 477.48 509.116 477.6 509.116L477.84 508.276C477.6 508.156 477.24 508.036 476.64 508.036 476.28 508.036 476.04 508.156 475.92 508.276 475.68 508.516 475.56 508.756 475.56 509.116V511.276H474.84V512.236H475.56V513.556L476.64 513.796V512.236Z" fill="#0000ff" fill-rule="evenodd"/><path transform="matrix(1,0,0,-1,0,595.276)" d="M482.52 509.476H481.08V516.796H482.52Z" fill="#ffffff" fill-rule="evenodd"/><path transform="matrix(1,0,0,-1,0,595.276)" stroke-width=".12" stroke-linecap="round" stroke-linejoin="round" fill="none" stroke="#0000ff" d="M486.36 498.196V516.796C486.36 518.476 485.04 519.796 483.48 519.796H450.36C448.68 519.796 447.36 518.476 447.36 516.796V498.196C447.36 496.516 448.68 495.196 450.36 495.196H483.48C485.04 495.196 486.36 496.516 486.36 498.196"/></g></svg>