<?xml version='1.0' encoding='UTF-8'?>
<svg width="430.82" height="262.82" viewBox="67.46 4.55 430.82 262.82" xmlns="http://www.w3.org/2000/svg" xmlns:xlink="http://www.w3.org/1999/xlink" xmlns:inkscape="http://www.inkscape.org/namespaces/inkscape" version="1.1"><g transform="scale(10.0) translate(-438.573, -154.944)"><defs><clipPath id="clip_2"><path transform="matrix(1,0,0,-1,0,595.276)" d="M74.4 .196H767.4V595.276H74.4Z"/></clipPath></defs><path transform="matrix(1,0,0,-1,0,595.276)" d="M486.12 439.396H447.72C447.48 439.396 447.24 439.396 447 439.276 446.76 439.156 446.52 439.036 446.4 438.796 446.16 438.676 446.04 438.436 445.92 438.196 445.8 437.956 445.8 437.716 445.8 437.476V415.996C445.8 415.516 445.92 415.036 446.4 414.676 446.52 414.436 446.76 414.316 447 414.196 447.24 414.196 447.48 414.076 447.72 414.076H486.12C486.48 414.076 487.08 414.316 487.44 414.676 487.8 415.036 487.92 415.516 487.92 415.996V437.476C487.92 438.556 487.08 439.396 486.12 439.396Z" fill="#ffffff" fill-rule="evenodd"/><path transform="matrix(1,0,0,-1,0,595.276)" d="M486.12 438.436H447.72C447.6 438.436 447.48 438.436 447.36 438.436 447.24 438.316 447.12 438.316 447 438.196 446.88 438.076 446.88 437.956 446.76 437.836 446.76 437.716 446.76 437.596 446.76 437.476V415.996C446.76 415.756 446.88 415.516 447 415.276 447.24 415.156 447.48 415.036 447.72 415.036H486.12C486.36 415.036 486.6 415.156 486.72 415.276 486.84 415.396 486.96 415.516 486.96 415.636 486.96 415.756 487.08 415.876 487.08 415.996V437.476C487.08 437.716 486.96 437.956 486.72 438.196 486.6 438.316 486.36 438.436 486.12 438.436Z" fill="#0000ff" fill-rule="evenodd"/><path transform="matrix(1,0,0,-1,0,595.276)" d="M459.24 437.116H457.92V416.356H459.24Z" fill="#ffffff" fill-rule="evenodd"/><path transform="matrix(1,0,0,-1,0,595.276)" d="M474.6 437.116H475.92V416.356H474.6Z" fill="#ffffff" fill-rule="evenodd"/><path transform="matrix(1,0,0,-1,0,595.276)" d="M483 433.036 485.16 430.996 483 428.836H480.96L482.28 430.276H481.32C480.72 430.276 480.24 430.036 479.76 429.676 479.4 429.196 479.16 428.716 479.16 428.116V420.436H477.72V428.116C477.72 428.596 477.84 428.956 477.96 429.436 478.2 429.916 478.44 430.276 478.8 430.636 479.16 430.996 479.52 431.236 480 431.476 480.36 431.596 480.84 431.716 481.32 431.716H482.28L480.96 433.036H483Z" fill="#ffffff" fill-rule="evenodd"/><path transform="matrix(1,0,0,-1,0,595.276)" d="M467.64 433.876 468.96 432.436V434.596L466.92 436.756 464.76 434.596V432.436L466.2 433.876V428.236H467.64Z" fill="#ffffff" fill-rule="evenodd"/><path transform="matrix(1,0,0,-1,0,595.276)" d="M465.36 425.716C465.48 425.716 465.6 425.836 465.6 425.956 465.72 426.076 465.72 426.076 465.72 426.196 465.72 426.436 465.6 426.676 465.36 426.796 465.24 426.916 465 427.036 464.64 427.036H463.56V424.036H464.76C465 424.036 465.36 424.036 465.48 424.276 465.72 424.396 465.84 424.756 465.84 424.996 465.84 425.116 465.84 425.236 465.84 425.356 465.72 425.476 465.6 425.596 465.36 425.716ZM464.16 425.836V426.556H464.76C464.88 426.556 465 426.556 465.12 426.436 465.12 426.436 465.12 426.316 465.12 426.196 465.12 426.076 465.12 425.956 465.12 425.956 465 425.836 464.88 425.836 464.76 425.836H464.16ZM464.76 424.516V424.516H464.16V425.476H464.76C465.12 425.476 465.36 425.236 465.36 424.996 465.36 424.876 465.24 424.756 465.24 424.636 465.12 424.516 464.88 424.516 464.76 424.516Z" fill="#ffffff" fill-rule="evenodd"/><path transform="matrix(1,0,0,-1,0,595.276)" d="M467.4 424.036C467.16 424.036 466.92 424.156 466.8 424.276 466.56 424.396 466.56 424.636 466.44 424.876V426.196H466.92V424.756C466.92 424.756 467.04 424.636 467.04 424.516 467.16 424.516 467.28 424.396 467.4 424.396 467.4 424.396 467.52 424.516 467.64 424.516 467.76 424.636 467.76 424.756 467.76 424.756V426.196H468.24V424.036H467.76V424.156C467.76 424.156 467.64 424.036 467.52 424.036H467.4Z" fill="#ffffff" fill-rule="evenodd"/><path transform="matrix(1,0,0,-1,0,595.276)" d="M469.44 425.476C469.44 425.356 469.56 425.356 469.68 425.356H469.8C470.04 425.356 470.28 425.236 470.4 424.996 470.4 424.876 470.52 424.756 470.4 424.636 470.4 424.516 470.4 424.396 470.28 424.276 470.04 424.156 469.8 424.036 469.56 424.036 469.2 424.036 468.84 424.156 468.72 424.516L468.96 424.756C469.08 424.636 469.08 424.636 469.2 424.516 469.32 424.516 469.44 424.516 469.56 424.516H469.68 469.8C469.92 424.516 469.92 424.636 469.92 424.636V424.756 424.876C469.8 424.876 469.68 424.996 469.56 424.996 469.44 424.996 469.44 424.996 469.32 424.996 469.2 424.996 468.96 425.116 468.84 425.236 468.72 425.356 468.72 425.476 468.72 425.596 468.72 425.716 468.84 425.836 468.96 425.956 469.08 426.076 469.2 426.196 469.44 426.196 469.8 426.316 470.16 426.196 470.4 425.956L470.16 425.596C469.92 425.716 469.8 425.716 469.68 425.716 469.56 425.716 469.44 425.716 469.44 425.716 469.32 425.716 469.32 425.716 469.32 425.596 469.32 425.476 469.32 425.476 469.44 425.476Z" fill="#ffffff" fill-rule="evenodd"/><path transform="matrix(1,0,0,-1,0,595.276)" d="M450.72 433.036 448.68 430.996 450.72 428.836H452.88L451.44 430.276H452.52C453 430.276 453.6 430.036 453.96 429.676 454.44 429.196 454.56 428.716 454.56 428.116V420.436H456V428.116C456 428.596 456 428.956 455.76 429.436 455.64 429.916 455.4 430.276 455.04 430.636 454.68 430.996 454.2 431.236 453.84 431.476 453.36 431.596 452.88 431.716 452.52 431.716H451.44L452.88 433.036H450.72Z" fill="#ffffff" fill-rule="evenodd"/><path transform="matrix(1,0,0,-1,0,595.276)" d="M462 421.516V418.036 417.796L462.12 417.556H462.24L462.48 417.436H465.24 465.36L465.6 417.556 465.72 417.676H465.84L465.96 417.916 466.08 418.036V418.276 418.516L465.6 418.636V418.276L465.48 418.036 465.36 417.916H465.12 462.72 462.6 462.48V418.036 418.156 419.596H465.12V419.356H465.6V421.516H462ZM462.48 420.076V421.156H463.44V420.076H462.48ZM463.92 420.076V421.156H465.12V420.076H463.92Z" fill="#ffffff" fill-rule="evenodd"/><path transform="matrix(1,0,0,-1,0,595.276)" d="M469.92 421.636 469.56 421.756V420.316H467.64V419.836H469.56V418.156H467.88V417.676H471.72V418.156H470.04V419.836H471.96V420.316H470.04V421.516H470.16V421.636Z" fill="#ffffff" fill-rule="evenodd"/><path transform="matrix(1,0,0,-1,0,595.276)" stroke-width=".12" stroke-linecap="round" stroke-linejoin="round" fill="none" stroke="#0000ff" d="M445.8 437.476V415.996C445.8 414.916 446.64 414.076 447.72 414.076H486.12C487.08 414.076 487.92 414.916 487.92 415.996V437.476C487.92 438.556 487.08 439.396 486.12 439.396H447.72C446.64 439.396 445.8 438.556 445.8 437.476"/></g></svg>