<?xml version='1.0' encoding='UTF-8'?>
<svg width="260.69" height="260.69" viewBox="153.67 5.26 260.69 260.69" xmlns="http://www.w3.org/2000/svg" xmlns:xlink="http://www.w3.org/1999/xlink" xmlns:inkscape="http://www.inkscape.org/namespaces/inkscape" version="1.1"><g transform="scale(10.0) translate(-329.439, -343.440)"><defs><clipPath id="clip_2"><path transform="matrix(1,0,0,-1,0,595.276)" d="M74.4 .196H767.4V595.276H74.4Z"/></clipPath></defs><path transform="matrix(1,0,0,-1,0,595.276)" d="M367.92 238.276C367.92 241.036 366.84 243.556 365.04 245.476 363.12 247.396 360.48 248.476 357.84 248.476 355.08 248.476 352.56 247.396 350.64 245.476 348.72 243.556 347.64 241.036 347.64 238.276 347.64 235.636 348.72 232.996 350.64 231.076 352.56 229.156 355.08 228.076 357.84 228.076 360.48 228.076 363.12 229.156 365.04 231.076 366.84 232.996 367.92 235.636 367.92 238.276Z" fill="#e1e1e1" fill-rule="evenodd"/><path transform="matrix(1,0,0,-1,0,595.276)" d="M370.56 238.276C370.56 239.836 370.2 241.396 369.6 242.956 369 244.516 368.04 246.076 366.84 247.276 365.52 248.596 364.08 249.556 362.52 250.156 360.84 250.756 359.28 250.996 357.84 250.996 356.28 250.996 354.72 250.756 353.16 250.156 351.48 249.556 350.04 248.596 348.84 247.276 347.52 246.076 346.56 244.516 345.96 242.956 345.36 241.396 345.12 239.836 345.12 238.276 345.12 236.836 345.36 235.156 345.96 233.596 346.56 232.036 347.52 230.596 348.84 229.276 350.04 228.076 351.48 227.116 353.16 226.516 354.72 225.796 356.28 225.556 357.84 225.556 359.28 225.556 360.84 225.796 362.52 226.516 364.08 227.116 365.52 228.076 366.84 229.276 368.04 230.596 369 232.036 369.6 233.596 370.2 235.156 370.56 236.836 370.56 238.276ZM367.92 238.276C367.92 237.076 367.8 235.876 367.2 234.556 366.72 233.356 366 232.156 365.04 231.076 363.96 230.116 362.76 229.396 361.56 228.796 360.24 228.316 359.04 228.076 357.84 228.076 356.64 228.076 355.32 228.316 354 228.796 352.8 229.396 351.6 230.116 350.64 231.076 349.56 232.156 348.84 233.356 348.36 234.556 347.88 235.876 347.64 237.076 347.64 238.276 347.64 239.476 347.88 240.796 348.36 242.116 348.84 243.316 349.56 244.516 350.64 245.476 351.6 246.556 352.8 247.276 354 247.756 355.32 248.236 356.64 248.476 357.84 248.476 359.04 248.476 360.24 248.236 361.56 247.756 362.76 247.276 363.96 246.556 365.04 245.476 366 244.516 366.72 243.316 367.2 242.116 367.8 240.796 367.92 239.476 367.92 238.276Z" fill-rule="evenodd"/><path transform="matrix(1,0,0,-1,0,595.276)" d="M363.6 234.316H362.64L363.36 233.596H360.72V232.876H363.36L362.64 232.036H363.6L364.56 233.236Z" fill-rule="evenodd"/><path transform="matrix(1,0,0,-1,0,595.276)" d="M351.96 234.316H352.92L352.32 233.596H354.84V232.876H352.32L352.92 232.036H351.96L351 233.236Z" fill-rule="evenodd"/><path transform="matrix(1,0,0,-1,0,595.276)" d="M356.16 237.916H358.56V238.636H356.16Z" fill-rule="evenodd"/><path transform="matrix(1,0,0,-1,0,595.276)" d="M358.44 229.876V230.596 230.716 230.836H358.32V230.956H358.2V231.076H358.08L357.96 230.956H357.84V230.836 230.956H357.72V231.076H357.6 357.48V230.956L357.36 230.836V230.956H357.12V229.876H357.36V230.596 230.716H357.48 357.6V230.596H357.72V229.876H357.96L357.84 230.596H357.96V230.716H358.08L358.2 230.596V229.876Z" fill-rule="evenodd"/><path transform="matrix(1,0,0,-1,0,595.276)" d="M354.12 237.916C354.12 238.396 353.64 238.756 353.16 238.756 352.92 238.756 352.68 238.636 352.56 238.516 352.32 238.276 352.32 238.036 352.32 237.916 352.32 237.676 352.32 237.436 352.56 237.196 352.68 237.076 352.92 236.956 353.16 236.956 353.4 236.956 353.64 237.076 353.88 237.196 354 237.436 354.12 237.676 354.12 237.916ZM353.64 237.916C353.64 237.676 353.4 237.436 353.16 237.436 353.04 237.436 352.92 237.436 352.8 237.556 352.8 237.676 352.68 237.796 352.68 237.916 352.68 238.156 352.92 238.396 353.16 238.396 353.28 238.396 353.4 238.276 353.52 238.276 353.64 238.156 353.64 238.036 353.64 237.916Z" fill-rule="evenodd"/><path transform="matrix(1,0,0,-1,0,595.276)" d="M362.64 237.916C362.64 238.036 362.52 238.276 362.28 238.516 362.16 238.636 361.92 238.756 361.68 238.756 361.44 238.756 361.2 238.636 361.08 238.516 360.84 238.276 360.84 238.036 360.84 237.916 360.84 237.676 360.84 237.436 361.08 237.196 361.2 237.076 361.44 236.956 361.68 236.956 361.92 236.956 362.16 237.076 362.28 237.196 362.52 237.436 362.64 237.676 362.64 237.916ZM362.16 237.916C362.16 237.556 361.92 237.436 361.68 237.436 361.44 237.436 361.2 237.556 361.2 237.916 361.2 238.156 361.44 238.396 361.68 238.396 361.92 238.396 362.16 238.156 362.16 237.916Z" fill-rule="evenodd"/><path transform="matrix(1,0,0,-1,0,595.276)" stroke-width=".12" stroke-linecap="butt" stroke-miterlimit="10" stroke-linejoin="miter" fill="none" stroke="#000000" d="M351.5 239.5V239.5"/><path transform="matrix(1,0,0,-1,0,595.276)" stroke-width=".12" stroke-linecap="butt" stroke-miterlimit="10" stroke-linejoin="miter" fill="none" stroke="#000000" d="M351.5 239.5V239.5"/><path transform="matrix(1,0,0,-1,0,595.276)" d="M351.24 239.836V239.836C351.24 239.956 351.36 240.196 351.36 240.316 351.48 240.436 351.6 240.436 351.72 240.556L353.16 242.716H351.96V244.276H364.2V240.076H356.04V239.836H364.44V238.756H362.52C362.64 238.636 362.64 238.516 362.64 238.396 362.76 238.276 362.76 238.156 362.76 238.036 362.76 238.276 362.64 238.396 362.4 238.636 362.28 238.756 362.04 238.876 361.8 238.876 361.44 238.996 360.96 238.756 360.72 238.276 360.72 238.516 360.84 238.636 360.96 238.756H356.04V237.916H354.24C354.24 238.396 353.76 238.876 353.16 238.876 352.56 238.876 352.08 238.396 352.08 237.916H351.24V239.836ZM354.12 240.436V242.476H353.16L351.96 240.676C351.96 240.676 351.84 240.556 351.96 240.556 351.96 240.436 352.08 240.436 352.08 240.436H354.12Z" fill-rule="evenodd"/><path transform="matrix(1,0,0,-1,0,595.276)" d="M358.56 232.996V233.116 233.236L358.44 233.356V233.476 233.596L358.32 233.716 358.2 233.836 358.08 233.956H357.96 357.84 357.72 357.6V233.836H357.48V233.716 233.836 233.956 234.076 234.196L357.6 234.316V234.436H357.72 357.84 357.96 358.08V234.316 234.196H358.44V234.316 234.436L358.32 234.556V234.676H358.2V234.796H358.08 357.96V234.916H357.84 357.72L357.6 234.796H357.48L357.36 234.676 357.24 234.556V234.436L357.12 234.196V234.076 233.836 233.716 233.596 233.476 233.356 233.236 232.996 232.876L357.24 232.756V232.636 232.516H357.36V232.396L357.48 232.276H357.6L357.72 232.156H357.84 357.96 358.08L358.2 232.276 358.32 232.396 358.44 232.516V232.636 232.756L358.56 232.876V232.996ZM357.48 233.116V233.236 233.356L357.6 233.476H357.72V233.596H357.84 357.96V233.476H358.08V233.356L358.2 233.236V233.116 232.996 232.876H358.08V232.756L357.96 232.636H357.84 357.72L357.6 232.756 357.48 232.876V232.996 233.116Z" fill-rule="evenodd"/></g></svg>