<?xml version='1.0' encoding='UTF-8'?>
<svg width="438.17" height="262.97" viewBox="64.33 3.28 438.17 262.97" xmlns="http://www.w3.org/2000/svg" xmlns:xlink="http://www.w3.org/1999/xlink" xmlns:inkscape="http://www.inkscape.org/namespaces/inkscape" version="1.1"><g transform="scale(10.0) translate(-329.439, -558.864)"><defs><clipPath id="clip_2"><path transform="matrix(1,0,0,-1,0,595.276)" d="M74.4 .196H767.4V595.276H74.4Z"/></clipPath></defs><path transform="matrix(1,0,0,-1,0,595.276)" d="M377.16 10.276H338.4C338.16 10.276 337.92 10.276 337.68 10.396 337.44 10.516 337.2 10.636 336.96 10.876 336.84 10.996 336.6 11.236 336.6 11.476 336.48 11.836 336.36 12.076 336.36 12.316V33.556C336.36 34.156 336.6 34.636 336.96 34.996 337.2 35.236 337.44 35.356 337.68 35.476 337.92 35.596 338.16 35.596 338.4 35.596H377.16C377.64 35.596 378.12 35.476 378.6 34.996 378.96 34.636 379.2 34.156 379.2 33.556V12.316C379.2 11.116 378.24 10.276 377.16 10.276Z" fill="#ffffff" fill-rule="evenodd"/><path transform="matrix(1,0,0,-1,0,595.276)" d="M377.16 34.636H338.4C338.28 34.636 338.16 34.636 338.04 34.516 337.92 34.516 337.8 34.396 337.68 34.276 337.56 34.276 337.56 34.156 337.44 34.036 337.44 33.916 337.44 33.676 337.44 33.556V12.316C337.44 12.076 337.56 11.716 337.68 11.596 337.92 11.356 338.16 11.236 338.4 11.236H377.16C377.4 11.236 377.64 11.356 377.88 11.596 378.12 11.716 378.12 12.076 378.12 12.316V33.556C378.12 34.156 377.76 34.636 377.16 34.636Z" fill="#0000ff" fill-rule="evenodd"/><path transform="matrix(1,0,0,-1,0,595.276)" d="M358.44 33.316H357.12V12.556H358.44Z" fill="#ffffff" fill-rule="evenodd"/><path transform="matrix(1,0,0,-1,0,595.276)" d="M344.64 26.956V24.316L346.32 26.116V16.276H348.12V26.116L349.92 24.316V26.956L347.28 29.596Z" fill="#ffffff" fill-rule="evenodd"/><path transform="matrix(1,0,0,-1,0,595.276)" d="M366.84 30.916C366.96 30.916 367.08 31.036 367.2 31.156 367.2 31.276 367.2 31.276 367.2 31.396 367.2 31.636 367.08 31.876 366.96 31.996 366.72 32.116 366.48 32.236 366.24 32.236H365.16V29.356H366.36C366.6 29.356 366.84 29.356 367.08 29.596 367.2 29.716 367.32 29.956 367.32 30.196 367.32 30.316 367.32 30.436 367.32 30.556 367.2 30.676 367.08 30.796 366.84 30.916ZM365.64 31.036V31.756H366.36C366.48 31.756 366.48 31.756 366.6 31.636 366.72 31.636 366.72 31.516 366.72 31.396 366.72 31.156 366.48 31.036 366.36 31.036H365.64ZM366.36 29.836V29.836H365.64V30.676H366.36C366.48 30.676 366.6 30.676 366.72 30.556 366.84 30.436 366.84 30.316 366.84 30.196 366.84 29.956 366.6 29.836 366.36 29.836Z" fill="#ffffff" fill-rule="evenodd"/><path transform="matrix(1,0,0,-1,0,595.276)" d="M368.76 29.356C368.52 29.356 368.4 29.356 368.16 29.596 368.04 29.716 367.92 29.956 367.92 30.076V31.396H368.4V30.076C368.4 29.956 368.4 29.956 368.52 29.836 368.52 29.836 368.64 29.716 368.76 29.716 368.88 29.716 368.88 29.836 369 29.836 369.12 29.956 369.12 29.956 369.12 30.076V31.396H369.6V29.356H369.12V29.476L369 29.356C368.88 29.356 368.76 29.356 368.76 29.356Z" fill="#ffffff" fill-rule="evenodd"/><path transform="matrix(1,0,0,-1,0,595.276)" d="M370.68 30.676C370.8 30.676 370.8 30.676 370.92 30.676H371.04C371.28 30.676 371.52 30.436 371.64 30.196 371.64 30.196 371.64 30.076 371.64 29.956 371.64 29.836 371.64 29.716 371.52 29.596 371.28 29.476 371.04 29.356 370.8 29.356 370.56 29.356 370.2 29.476 369.96 29.716L370.32 30.076C370.32 29.956 370.44 29.836 370.56 29.836 370.56 29.836 370.68 29.716 370.8 29.716 370.92 29.716 370.92 29.716 371.04 29.716 371.04 29.836 371.04 29.836 371.16 29.836V29.956 30.076C371.04 30.196 370.92 30.196 370.8 30.196H370.68C370.44 30.316 370.32 30.436 370.2 30.556 370.08 30.676 370.08 30.796 370.08 30.916 370.08 31.036 370.08 31.156 370.2 31.156 370.32 31.276 370.56 31.396 370.68 31.396 371.04 31.516 371.4 31.396 371.64 31.156L371.4 30.916C371.28 30.916 371.04 31.036 370.92 31.036 370.8 31.036 370.8 31.036 370.68 31.036 370.68 30.916 370.56 30.916 370.56 30.796L370.68 30.676Z" fill="#ffffff" fill-rule="evenodd"/><path transform="matrix(1,0,0,-1,0,595.276)" d="M366.36 14.836V16.876L367.68 15.436V20.836H369V15.436L370.32 16.876V14.836L368.28 12.796Z" fill="#ffffff" fill-rule="evenodd"/><path transform="matrix(1,0,0,-1,0,595.276)" d="M363.6 26.956V23.596 23.356L363.72 23.236 363.96 23.116H364.08 366.72 366.84 367.08L367.2 23.236 367.32 23.356 367.44 23.476V23.716L367.56 23.836V24.076L367.2 24.196 367.08 23.956 366.96 23.716 366.84 23.596 366.6 23.476H364.32 364.2V23.596L364.08 23.716V25.156H366.6V24.916H367.08V26.956H363.6ZM364.08 25.636V26.596H365.04V25.636H364.08ZM365.52 25.636V26.596H366.6V25.636H365.52Z" fill="#ffffff" fill-rule="evenodd"/><path transform="matrix(1,0,0,-1,0,595.276)" d="M371.16 27.076 370.92 27.196V25.756H369V25.396H370.92V23.716H369.36V23.356H372.84V23.716H371.28V25.396H373.2V25.756H371.28V26.956H371.4V27.076Z" fill="#ffffff" fill-rule="evenodd"/><path transform="matrix(1,0,0,-1,0,595.276)" stroke-width=".12" stroke-linecap="round" stroke-linejoin="round" fill="none" stroke="#0000ff" d="M336.36 33.556V12.316C336.36 11.116 337.32 10.276 338.4 10.276H377.16C378.24 10.276 379.2 11.116 379.2 12.316V33.556C379.2 34.756 378.24 35.596 377.16 35.596H338.4C337.32 35.596 336.36 34.756 336.36 33.556"/></g></svg>