<?xml version='1.0' encoding='UTF-8'?>
<svg width="308.42" height="255.62" viewBox="129.14 6.71 308.42 255.62" xmlns="http://www.w3.org/2000/svg" xmlns:xlink="http://www.w3.org/1999/xlink" xmlns:inkscape="http://www.inkscape.org/namespaces/inkscape" version="1.1"><g transform="scale(10.0) translate(-165.765, -101.088)"><path transform="matrix(1,0,0,-1,0,595.276)" d="M181.92 493.156H206.28C207 493.156 207.72 492.916 208.32 492.316 208.92 491.716 209.16 490.876 209.16 490.276V471.196C209.16 470.476 208.92 469.756 208.32 469.156 207.72 468.556 207 468.316 206.28 468.316H181.92C181.2 468.316 180.48 468.556 179.88 469.156 179.28 469.756 179.04 470.476 179.04 471.196V490.276C179.04 490.516 179.16 490.876 179.28 491.236 179.4 491.596 179.64 491.956 179.88 492.316 180.48 492.916 181.2 493.156 181.92 493.156Z" fill="#0000ff" fill-rule="evenodd"/><path transform="matrix(1,0,0,-1,0,595.276)" d="M194.04 470.356C195.24 470.596 196.32 471.316 197.16 472.396 198 473.476 198.48 474.796 198.48 475.996V479.116H189.6V475.996C189.6 474.796 190.08 473.476 190.92 472.396 191.76 471.316 192.84 470.596 194.04 470.356Z" fill="#ffff00" fill-rule="evenodd"/><path transform="matrix(1,0,0,-1,0,595.276)" d="M200.88 470.716 199.2 478.156H200.52L201.6 472.636 202.92 478.156H204.36L205.56 472.636 206.64 478.156H207.96L206.28 470.716H204.84L203.64 476.116 202.44 470.716H202.32Z" fill="#ffffff" fill-rule="evenodd"/><path transform="matrix(1,0,0,-1,0,595.276)" d="M187.92 476.356H185.52V477.556H188.28V478.276H180.24V477.556H183V476.356H180.72V470.716H181.56V471.196H187.08V470.716H187.92V476.356ZM183.84 477.556H184.68V476.356H183.84V477.556ZM185.52 475.516H187.08V474.196L186.6 474.556H186.48L186.24 473.956 186 473.716 185.64 473.596 185.52 473.716V473.956 475.516ZM181.56 475.516H183L182.88 474.916 182.76 474.316 182.64 473.956 182.4 473.596 181.92 473.236 181.56 473.116V475.516ZM181.56 471.916V472.996L181.92 472.756 182.28 472.516 182.76 472.876 183.12 473.236 183.48 473.716 183.72 474.316 183.84 474.916V475.516H184.68V473.596 473.356L184.8 473.116 185.04 472.996H185.28 186.12L186.48 473.116 186.84 473.356 186.96 473.716 187.08 474.076V471.916H181.56Z" fill="#ffffff" fill-rule="evenodd"/><path transform="matrix(1,0,0,-1,0,595.276)" d="M192.96 472.276H194.16L195.96 476.596V477.676H192V476.596H194.76Z" fill-rule="evenodd"/><path transform="matrix(1,0,0,-1,0,595.276)" d="M198.24 482.476C198.24 482.956 197.88 483.316 197.4 483.316 196.92 483.316 196.56 482.956 196.56 482.476 196.56 481.996 196.92 481.636 197.4 481.636 197.88 481.636 198.24 481.996 198.24 482.476Z" fill="#ffffff" fill-rule="evenodd"/><path transform="matrix(1,0,0,-1,0,595.276)" stroke-width=".12" stroke-linecap="butt" stroke-miterlimit="10" stroke-linejoin="miter" fill="none" stroke="#ffffff" d="M192.5 485.5V485.5"/><path transform="matrix(1,0,0,-1,0,595.276)" d="M192.6 485.596H191.4V486.796H192.36 192.48 192.6C193.08 487.036 193.44 487.636 193.32 488.116 193.08 488.716 192.6 489.076 192 489.076 191.64 489.076 191.16 488.956 190.8 488.716 190.44 488.356 190.32 487.876 190.32 487.516L188.88 487.756C188.76 488.476 189.12 489.076 189.72 489.676 190.32 490.156 191.16 490.396 192 490.396 193.2 490.396 194.28 489.796 194.76 488.716 195 487.756 194.64 486.796 193.8 486.316 194.76 485.596 195.12 484.396 194.76 483.316 194.28 482.236 193.2 481.516 192 481.636 191.28 481.636 190.32 481.876 189.72 482.356 189.12 482.956 188.76 483.556 188.88 484.156L190.32 484.396C190.2 483.676 190.92 482.956 191.76 482.956 192.12 482.956 192.48 482.956 192.84 483.196 193.2 483.556 193.32 483.916 193.32 484.156 193.44 484.516 193.32 484.876 193.2 485.116 192.96 485.476 192.72 485.596 192.6 485.596Z" fill="#ffffff" fill-rule="evenodd"/><path transform="matrix(1,0,0,-1,0,595.276)" d="M190.32 487.516V487.516Z" fill="#ffffff" fill-rule="evenodd"/><path transform="matrix(1,0,0,-1,0,595.276)" d="M190.32 484.396V484.396Z" fill="#ffffff" fill-rule="evenodd"/><path transform="matrix(1,0,0,-1,0,595.276)" d="M182.76 487.396H181.32V487.876C181.44 488.596 181.68 489.196 182.28 489.676 182.88 490.156 183.6 490.396 184.2 490.396 184.68 490.396 185.16 490.396 185.52 490.156 186 489.916 186.36 489.676 186.72 489.196 186.96 488.836 187.2 488.356 187.2 487.876 187.2 487.396 187.08 486.916 186.96 486.556 186.36 485.356 185.16 484.036 183.72 482.956H187.08V481.636H181.44V482.956C182.52 483.556 183.48 484.396 184.32 485.236 185.04 486.076 185.52 486.916 185.64 487.636 185.64 488.476 185.04 489.076 184.2 489.076 183.84 489.076 183.48 488.956 183.24 488.716 182.88 488.356 182.76 487.996 182.76 487.636V487.396Z" fill="#ffffff" fill-rule="evenodd"/><path transform="matrix(1,0,0,-1,0,595.276)" stroke-width=".12" stroke-linecap="butt" stroke-miterlimit="10" stroke-linejoin="miter" fill="none" stroke="#ffffff" d="M200.5 485.5V485.5"/><path transform="matrix(1,0,0,-1,0,595.276)" stroke-width=".12" stroke-linecap="butt" stroke-miterlimit="10" stroke-linejoin="miter" fill="none" stroke="#ffffff" d="M200.5 485.5V485.5"/><path transform="matrix(1,0,0,-1,0,595.276)" stroke-width=".12" stroke-linecap="butt" stroke-miterlimit="10" stroke-linejoin="miter" fill="none" stroke="#ffffff" d="M200.5 485.5V485.5"/><path transform="matrix(1,0,0,-1,0,595.276)" stroke-width=".12" stroke-linecap="butt" stroke-miterlimit="10" stroke-linejoin="miter" fill="none" stroke="#ffffff" d="M200.5 485.5V485.5"/><path transform="matrix(1,0,0,-1,0,595.276)" stroke-width=".12" stroke-linecap="butt" stroke-linejoin="round" fill="none" stroke="#ffffff" d="M200.16 485.956V485.956"/><path transform="matrix(1,0,0,-1,0,595.276)" stroke-width=".12" stroke-linecap="butt" stroke-miterlimit="10" stroke-linejoin="miter" fill="none" stroke="#ffffff" d="M200.5 485.5V485.5"/><path transform="matrix(1,0,0,-1,0,595.276)" d="M200.16 485.956V485.956C200.16 484.636 200.4 483.556 201 482.716 201.6 481.996 202.44 481.636 203.4 481.636 205.44 481.636 206.64 483.196 206.64 485.956 206.64 487.276 206.4 488.476 205.8 489.196 205.2 490.036 204.36 490.396 203.4 490.396 202.44 490.396 201.6 490.036 201 489.196 200.4 488.476 200.16 487.276 200.16 485.956ZM200.16 485.956V485.956ZM203.4 482.956C202.8 482.956 202.32 483.196 202.08 483.796 201.72 484.276 201.6 485.116 201.6 485.956 201.6 487.876 202.2 489.076 203.4 489.076 204.6 489.076 205.2 487.876 205.2 485.956 205.2 485.116 205.08 484.276 204.72 483.796 204.36 483.196 204 482.956 203.4 482.956Z" fill="#ffffff" fill-rule="evenodd"/></g></svg>