<?xml version='1.0' encoding='UTF-8'?>
<svg width="308.42" height="254.42" viewBox="129.14 7.67 308.42 254.42" xmlns="http://www.w3.org/2000/svg" xmlns:xlink="http://www.w3.org/1999/xlink" xmlns:inkscape="http://www.inkscape.org/namespaces/inkscape" version="1.1"><g transform="scale(10.0) translate(-165.765, -47.232)"><path transform="matrix(1,0,0,-1,0,595.276)" d="M181.92 546.916H206.28C207 546.916 207.72 546.676 208.32 546.076 208.92 545.476 209.16 544.756 209.16 544.036V525.076C209.16 524.356 208.92 523.636 208.32 523.036 207.72 522.436 207 522.196 206.28 522.196H181.92C181.2 522.196 180.48 522.436 179.88 523.036 179.28 523.636 179.04 524.356 179.04 525.076V544.036C179.04 544.396 179.16 544.756 179.28 545.116 179.4 545.476 179.64 545.836 179.88 546.076 180.48 546.676 181.2 546.916 181.92 546.916Z" fill="#0000ff" fill-rule="evenodd"/><path transform="matrix(1,0,0,-1,0,595.276)" d="M194.04 524.116C195.24 524.476 196.32 525.196 197.16 526.276 198 527.356 198.48 528.676 198.48 529.876V532.876H189.6V529.876C189.6 528.676 190.08 527.356 190.92 526.276 191.76 525.196 192.84 524.476 194.04 524.116Z" fill="#ffff00" fill-rule="evenodd"/><path transform="matrix(1,0,0,-1,0,595.276)" d="M200.88 524.596 199.2 532.036H200.52L201.6 526.516 202.92 532.036H204.36L205.56 526.516 206.64 532.036H207.96L206.28 524.596H204.84L203.64 529.996 202.44 524.596H202.32Z" fill="#ffffff" fill-rule="evenodd"/><path transform="matrix(1,0,0,-1,0,595.276)" d="M187.92 530.236H185.52V531.316H188.28V532.156H180.24V531.316H183V530.236H180.72V524.476H181.56V524.956H187.08V524.596H187.92V530.236ZM183.84 531.316H184.68V530.236H183.84V531.316ZM185.52 529.396H187.08V528.076L186.6 528.436H186.48L186.24 527.836 186 527.476H185.64L185.52 527.596V527.836 529.396ZM181.56 529.396H183L182.88 528.676 182.76 528.196 182.64 527.716 182.4 527.356 181.92 527.116 181.56 526.996V529.396ZM181.56 525.796V526.876L181.92 526.636 182.28 526.276 182.76 526.636 183.12 527.116 183.48 527.596 183.72 528.196 183.84 528.796V529.396H184.68V527.476 527.116L184.8 526.996 185.04 526.876 185.28 526.756H186.12L186.48 526.876 186.84 527.236 186.96 527.596 187.08 527.836V525.796H181.56Z" fill="#ffffff" fill-rule="evenodd"/><path transform="matrix(1,0,0,-1,0,595.276)" d="M195.6 528.076H196.32V526.996H195.6V526.156H194.52V526.996H191.52V528.076L194.16 531.556H195.6V528.076ZM194.52 530.116 192.96 528.076H194.52V530.116Z" fill-rule="evenodd"/><path transform="matrix(1,0,0,-1,0,595.276)" d="M198.24 536.236C198.24 536.716 197.88 537.076 197.4 537.076 196.92 537.076 196.56 536.716 196.56 536.236 196.56 535.756 196.92 535.396 197.4 535.396 197.88 535.396 198.24 535.756 198.24 536.236Z" fill="#ffffff" fill-rule="evenodd"/><path transform="matrix(1,0,0,-1,0,595.276)" stroke-width=".12" stroke-linecap="butt" stroke-miterlimit="10" stroke-linejoin="miter" fill="none" stroke="#ffffff" d="M192.5 539.5V539.5"/><path transform="matrix(1,0,0,-1,0,595.276)" d="M192.6 539.476H191.4V540.676H192.36 192.48 192.6C193.08 540.916 193.44 541.396 193.32 541.996 193.08 542.476 192.6 542.836 192 542.956 191.64 542.956 191.16 542.836 190.8 542.476 190.44 542.236 190.32 541.756 190.32 541.396L188.88 541.636C188.76 542.236 189.12 542.956 189.72 543.436 190.32 544.036 191.16 544.276 192 544.276 193.2 544.276 194.28 543.556 194.76 542.476 195 541.636 194.64 540.676 193.8 540.076 194.76 539.356 195.12 538.276 194.76 537.196 194.28 536.116 193.2 535.396 192 535.396 191.28 535.396 190.32 535.636 189.72 536.236 189.12 536.716 188.76 537.436 188.88 538.036L190.32 538.276C190.2 537.556 190.92 536.836 191.76 536.716 192.12 536.716 192.48 536.836 192.84 537.076 193.2 537.316 193.32 537.676 193.32 538.036 193.44 538.276 193.32 538.636 193.2 538.996 192.96 539.236 192.72 539.356 192.6 539.476Z" fill="#ffffff" fill-rule="evenodd"/><path transform="matrix(1,0,0,-1,0,595.276)" d="M190.32 541.396V541.396Z" fill="#ffffff" fill-rule="evenodd"/><path transform="matrix(1,0,0,-1,0,595.276)" d="M190.32 538.276V538.276Z" fill="#ffffff" fill-rule="evenodd"/><path transform="matrix(1,0,0,-1,0,595.276)" d="M182.76 541.156H181.32V541.756C181.44 542.356 181.68 543.076 182.28 543.556 182.88 544.036 183.6 544.276 184.2 544.276 184.68 544.276 185.16 544.156 185.52 544.036 186 543.796 186.36 543.436 186.72 543.076 186.96 542.596 187.2 542.116 187.2 541.636 187.2 541.276 187.08 540.796 186.96 540.436 186.36 539.236 185.16 537.916 183.72 536.836H187.08V535.516H181.44V536.836C182.52 537.436 183.48 538.156 184.32 539.116 185.04 539.956 185.52 540.796 185.64 541.516 185.64 542.356 185.04 542.956 184.2 542.956 183.84 542.956 183.48 542.836 183.24 542.596 182.88 542.236 182.76 541.876 182.76 541.516V541.156Z" fill="#ffffff" fill-rule="evenodd"/><path transform="matrix(1,0,0,-1,0,595.276)" stroke-width=".12" stroke-linecap="butt" stroke-miterlimit="10" stroke-linejoin="miter" fill="none" stroke="#ffffff" d="M200.5 539.5V539.5"/><path transform="matrix(1,0,0,-1,0,595.276)" stroke-width=".12" stroke-linecap="butt" stroke-miterlimit="10" stroke-linejoin="miter" fill="none" stroke="#ffffff" d="M200.5 539.5V539.5"/><path transform="matrix(1,0,0,-1,0,595.276)" stroke-width=".12" stroke-linecap="butt" stroke-miterlimit="10" stroke-linejoin="miter" fill="none" stroke="#ffffff" d="M200.5 539.5V539.5"/><path transform="matrix(1,0,0,-1,0,595.276)" stroke-width=".12" stroke-linecap="butt" stroke-miterlimit="10" stroke-linejoin="miter" fill="none" stroke="#ffffff" d="M200.5 539.5V539.5"/><path transform="matrix(1,0,0,-1,0,595.276)" stroke-width=".12" stroke-linecap="butt" stroke-linejoin="round" fill="none" stroke="#ffffff" d="M200.16 539.836V539.836"/><path transform="matrix(1,0,0,-1,0,595.276)" stroke-width=".12" stroke-linecap="butt" stroke-miterlimit="10" stroke-linejoin="miter" fill="none" stroke="#ffffff" d="M200.5 539.5V539.5"/><path transform="matrix(1,0,0,-1,0,595.276)" d="M200.16 539.836V539.836C200.16 538.516 200.4 537.436 201 536.596 201.6 535.756 202.44 535.396 203.4 535.396 205.44 535.396 206.64 537.076 206.64 539.836 206.64 541.156 206.4 542.356 205.8 543.076 205.2 543.916 204.36 544.276 203.4 544.276 202.44 544.276 201.6 543.916 201 543.076 200.4 542.356 200.16 541.156 200.16 539.836ZM200.16 539.836V539.836ZM203.4 536.716C202.8 536.716 202.32 537.076 202.08 537.556 201.72 538.156 201.6 538.876 201.6 539.836 201.6 541.756 202.2 542.956 203.4 542.956 204.6 542.956 205.2 541.756 205.2 539.836 205.2 538.876 205.08 538.156 204.72 537.556 204.36 537.076 204 536.716 203.4 536.716Z" fill="#ffffff" fill-rule="evenodd"/></g></svg>