<?xml version='1.0' encoding='UTF-8'?>
<svg width="280.49" height="248.50" viewBox="144.45 10.03 280.49 248.50" xmlns="http://www.w3.org/2000/svg" xmlns:xlink="http://www.w3.org/1999/xlink" xmlns:inkscape="http://www.inkscape.org/namespaces/inkscape" version="1.1"><g transform="scale(10.0) translate(-165.765, -289.584)"><defs><clipPath id="clip_19"><path transform="matrix(0,1,1,0,0,0)" d="M0 19.875H595.008V822.117H0Z"/></clipPath><clipPath id="clip_20"><path transform="matrix(0,1,1,0,0,0)" d="M0 842.013H595.224V.008972168H0Z"/></clipPath></defs><path transform="matrix(0,1,1,0,180.741,312.426)" d="M0 0-20.664 11.916C-20.916 12.078-21.15 12.294-21.33 12.582-21.492 12.87-21.564 13.194-21.564 13.5-21.564 13.806-21.492 14.112-21.33 14.4-21.15 14.688-20.916 14.922-20.664 15.066L0 27C.558 27.324 1.26 27.324 1.818 27 2.088 26.856 2.322 26.622 2.484 26.334 2.664 26.046 2.736 25.74 2.736 25.416V1.566C2.736 .918 2.394 .324 1.818 0 1.26-.342 .558-.342 0 0" fill="#ff0000" fill-rule="evenodd"/><path transform="matrix(0,1,1,0,183.369,312.732)" d="M0 0-18.828 10.872 0 21.744" fill="#ffffff" fill-rule="evenodd"/><path transform="matrix(0,1,1,0,0,0)" d="M308.88 191.001H312.336V191.811H308.88Z"/><path transform="matrix(0,1,1,0,0,0)" d="M307.512 190.191H308.718V192.62099H307.512Z" fill="#ff0000"/><path transform="matrix(0,1,1,0,0,0)" d="M308.88 193.827H312.336V194.637H308.88Z"/><path transform="matrix(0,1,1,0,0,0)" d="M307.512 193.017H308.718V195.44699H307.512Z" fill="#ff0000"/><path transform="matrix(0,1,1,0,188.571,305.046)" d="M0 0 1.206-1.224H2.43L1.62-.414H7.29V.396H1.62L2.43 1.206H1.206" fill-rule="evenodd"/><path transform="matrix(0,1,1,0,0,0)" d="M308.88 196.671H312.336V197.48102H308.88Z"/><path transform="matrix(0,1,1,0,0,0)" d="M307.512 195.861H308.718V198.29099H307.512Z" fill="#ff0000"/><path transform="matrix(0,1,1,0,0,0)" d="M308.88 199.497H312.336V200.30699H308.88Z"/><path transform="matrix(0,1,1,0,0,0)" d="M307.512 198.687H308.718V201.11699H307.512Z" fill="#ff0000"/></g></svg>