<?xml version='1.0' encoding='UTF-8'?>
<svg width="549.33" height="241.53" viewBox="10.15 10.99 549.33 241.53" xmlns="http://www.w3.org/2000/svg" xmlns:xlink="http://www.w3.org/1999/xlink" xmlns:inkscape="http://www.inkscape.org/namespaces/inkscape" version="1.1"><g transform="scale(10.0) translate(-274.875, -47.232)"><defs><clipPath id="clip_19"><path transform="matrix(0,1,1,0,0,0)" d="M0 19.875H595.008V822.117H0Z"/></clipPath><clipPath id="clip_20"><path transform="matrix(0,1,1,0,0,0)" d="M0 842.013H595.224V.008972168H0Z"/></clipPath></defs><path transform="matrix(0,1,1,0,328.899,48.87)" d="M0 0V-51.084C0-51.246 .036-51.408 .09-51.588 .162-51.75 .27-51.912 .396-52.056 .54-52.2 .702-52.29 .882-52.362 1.044-52.434 1.224-52.47 1.386-52.47H21.69C21.852-52.47 22.032-52.434 22.212-52.362 22.374-52.29 22.536-52.2 22.68-52.056 22.806-51.912 22.914-51.75 22.986-51.588 23.058-51.408 23.076-51.246 23.076-51.084V0C23.076 .18 23.058 .342 22.986 .522 22.914 .684 22.806 .846 22.68 .99 22.536 1.116 22.374 1.224 22.212 1.296 22.032 1.368 21.852 1.386 21.69 1.386H1.386C1.224 1.386 1.044 1.368 .882 1.296 .702 1.224 .54 1.116 .396 .99 .27 .846 .162 .684 .09 .522 .036 .342 0 .18 0 0ZM.684-51.084V0C.684 .18 .756 .36 .9 .504 1.044 .648 1.224 .702 1.386 .702H21.69C21.87 .702 22.05 .648 22.176 .504 22.248 .432 22.302 .342 22.338 .27 22.374 .18 22.392 .09 22.392 0V-51.084C22.392-51.246 22.32-51.426 22.176-51.57 22.05-51.714 21.87-51.768 21.69-51.768H1.386C1.206-51.768 1.026-51.696 .9-51.57 .756-51.444 .684-51.264 .684-51.084" fill-rule="evenodd"/><path transform="matrix(0,1,1,0,277.815,49.554)" d="M0 0V51.084C0 51.264 .072 51.444 .216 51.588 .36 51.732 .54 51.786 .702 51.786H21.006C21.096 51.786 21.186 51.768 21.258 51.732 21.348 51.696 21.438 51.642 21.492 51.588 21.564 51.516 21.618 51.426 21.654 51.354 21.69 51.264 21.708 51.174 21.708 51.084V0C21.708-.162 21.636-.342 21.492-.486 21.366-.63 21.186-.684 21.006-.684H.702C.522-.684 .342-.612 .216-.486 .072-.36 0-.18 0 0" fill="#ffffff" fill-rule="evenodd"/><path transform="matrix(0,1,1,0,279.957,52.452)" d="M0 0V.756C0 .774-.018 .81-.018 .846V.864C-.018 .864-.018 .864-.018 .864-.036 1.026-.126 1.17-.288 1.278-.45 1.386-.666 1.44-.846 1.44-1.044 1.44-1.242 1.404-1.404 1.296-1.548 1.188-1.656 1.044-1.692 .9-1.692 .9-1.692 .882-1.692 .864-1.692 .846-1.692 .81-1.692 .774V-.576H.99V0H0ZM-.468 0H-1.242V.594L-1.224 .63C-1.206 .702-1.17 .756-1.08 .81-1.008 .846-.918 .864-.846 .864-.774 .864-.684 .846-.612 .792-.54 .756-.486 .684-.468 .63V.612C-.468 .612-.468 .63-.468 .612V0" fill-rule="evenodd"/><path transform="matrix(0,1,1,0,0,0)" d="M50.76 282.027H53.441999V282.56703H50.76Z"/><path transform="matrix(0,1,1,0,288.399,50.76)" d="M0 0 1.08-.9 2.682 .09V-.576L1.512-1.26 1.836-1.53H2.682V-2.106H0V-1.53H1.044L0-.666" fill-rule="evenodd"/><path transform="matrix(0,1,1,0,292.215,50.76)" d="M0 0H1.602 1.692C1.692 0 1.602 0 1.692 0 1.764 0 1.926-.018 2.034-.018 2.142-.018 2.16-.036 2.214-.054 2.394-.126 2.538-.27 2.646-.468 2.736-.666 2.79-.9 2.79-1.116 2.79-1.332 2.736-1.566 2.646-1.746 2.538-1.944 2.394-2.088 2.232-2.16 2.214-2.16 2.214-2.178 2.196-2.178 2.16-2.178 2.088-2.214 2.016-2.214 1.944-2.232 1.872-2.232 1.71-2.232H0V-1.656H1.602C1.62-1.656 1.62-1.656 1.656-1.656 1.692-1.638 1.764-1.638 1.818-1.638H1.854C1.944-1.602 2.034-1.53 2.106-1.44 2.178-1.332 2.214-1.206 2.214-1.116 2.214-1.008 2.178-.9 2.124-.81 2.07-.702 1.98-.63 1.89-.594H1.854C1.818-.594 1.746-.576 1.71-.576 1.674-.576 1.674-.576 1.656-.576H0V0" fill-rule="evenodd"/><path transform="matrix(0,1,1,0,293.583,52.452)" d="M0 0V.756C0 .774-.018 .81-.018 .828-.018 .846-.018 .846-.018 .864-.036 1.008-.126 1.17-.288 1.278-.45 1.386-.666 1.44-.846 1.44-1.044 1.44-1.242 1.386-1.404 1.278-1.548 1.188-1.656 1.044-1.692 .882V.864C-1.692 .864-1.692 .882-1.692 .864-1.692 .846-1.692 .792-1.692 .774V-.576H.99V0H0ZM-.468 0H-1.242V.576L-1.224 .612V.63C-1.224 .63-1.224 .63-1.224 .63-1.206 .684-1.17 .756-1.08 .792-1.008 .846-.918 .864-.846 .864-.774 .864-.684 .846-.612 .792-.54 .738-.486 .684-.468 .612-.468 .594-.468 .576-.468 .558V0" fill-rule="evenodd"/><path transform="matrix(0,1,1,0,296.787,51.858)" d="M0 0C-.144-.108-.324-.18-.504-.162-.684-.162-.864-.072-.972 .054-1.098 .198-1.152 .378-1.152 .558-1.152 .738-1.062 .918-.936 1.026-.828 1.134-.666 1.206-.486 1.224-.306 1.224-.144 1.17-.018 1.062H0C0 1.062-.018 1.062 0 1.062V1.044L.072 .954V.936C.108 .9 .126 .864 .144 .828 .162 .81 .162 .792 .18 .774L.72 1.134C.63 1.188 .504 1.224 .414 1.224H.378V1.71C.648 1.728 .972 1.602 1.152 1.404 1.17 1.422 1.188 1.458 1.188 1.512 1.188 1.548 1.17 1.602 1.152 1.674L1.53 1.764C1.602 1.746 1.638 1.584 1.638 1.386 1.656 1.26 1.602 1.098 1.53 1.008 1.62 .9 1.692 .666 1.692 .468 1.692 .198 1.602-.036 1.44-.216 1.278-.378 1.044-.468 .774-.468 .396-.468 .144-.324 0 0ZM.45 .306C.576 .09 .828 .036 1.008 .162 1.098 .216 1.17 .306 1.188 .414 1.206 .522 1.17 .648 1.116 .738L.45 .306ZM-.216 .504C-.234 .54-.288 .612-.342 .648-.396 .702-.45 .72-.486 .72-.612 .72-.684 .648-.684 .54-.684 .45-.576 .36-.468 .36-.396 .36-.306 .414-.216 .504" fill-rule="evenodd"/><path transform="matrix(0,1,1,0,280.263,57.294)" d="M0 0V-1.116H-2.7V0C-2.7 .324-2.574 .612-2.322 .828-2.07 1.026-1.728 1.134-1.35 1.134-.954 1.134-.612 1.026-.378 .828-.126 .612 0 .324 0 0ZM-2.124-.54H-.576V-.108-.072C-.576-.072-.576-.108-.576-.072-.576-.036-.576 .036-.594 .072V.108C-.594 .108-.594 .108-.594 .108-.612 .234-.702 .36-.846 .432-.972 .522-1.152 .558-1.35 .558-1.53 .558-1.692 .522-1.836 .45-1.962 .378-2.052 .27-2.088 .144-2.106 .144-2.106 .144-2.106 .108-2.106 .054-2.106-.018-2.106-.054L-2.124-.09C-2.124-.09-2.124-.09-2.124-.09V-.54" fill-rule="evenodd"/><path transform="matrix(0,1,1,0,282.657,56.286)" d="M0 0H1.008V-.612H-1.692V.774C-1.656 .99-1.566 1.188-1.404 1.314-1.242 1.458-1.044 1.53-.846 1.53-.468 1.53-.144 1.296-.036 .954L1.008 1.584V.954L0 .342V0ZM-.54 0V.666C-.54 .684-.54 .702-.54 .702V.72C-.54 .72-.54 .72-.54 .72-.576 .846-.702 .918-.846 .918-.99 .918-1.134 .828-1.152 .684V0H-.54" fill-rule="evenodd"/><path transform="matrix(0,1,1,0,286.041,54.504)" d="M0 0C0 .36 .126 .702 .396 .936 .648 1.17 1.026 1.278 1.44 1.278 1.854 1.278 2.232 1.17 2.502 .936 2.754 .702 2.88 .36 2.88 0 2.88-.396 2.754-.72 2.502-.954 2.25-1.17 1.872-1.296 1.44-1.296 1.026-1.296 .648-1.188 .396-.954 .126-.702 0-.378 0 0ZM1.44 .702C.918 .702 .576 .432 .576 0 .576-.216 .648-.396 .81-.522 .972-.648 1.188-.72 1.44-.72 1.692-.72 1.908-.648 2.07-.522 2.232-.396 2.304-.216 2.304 0 2.304 .432 1.98 .702 1.44 .702" fill-rule="evenodd"/><path transform="matrix(0,1,1,0,288.579,56.286)" d="M0 0V.756C0 .774 0 .81 0 .828V.864C-.018 1.026-.126 1.17-.288 1.278-.432 1.386-.648 1.44-.846 1.44-1.026 1.44-1.224 1.386-1.386 1.296-1.548 1.188-1.638 1.044-1.674 .882V.864C-1.674 .864-1.674 .882-1.674 .864-1.674 .846-1.674 .792-1.692 .774V-.576H1.008V0H0ZM-.45 0H-1.224V.576C-1.224 .594-1.224 .612-1.224 .612V.63C-1.224 .63-1.224 .63-1.224 .63-1.206 .684-1.152 .756-1.08 .792-1.008 .846-.918 .864-.846 .864-.756 .864-.684 .846-.594 .792-.522 .756-.486 .684-.468 .63V.612C-.468 .612-.468 .63-.468 .612-.45 .594-.45 .576-.45 .576V0" fill-rule="evenodd"/><path transform="matrix(0,1,1,0,292.737,54.504)" d="M0 0C0 .36 .126 .702 .396 .936 .648 1.17 1.026 1.278 1.44 1.278 1.872 1.278 2.25 1.152 2.502 .936 2.754 .702 2.88 .378 2.88 0 2.88-.378 2.754-.72 2.502-.954 2.232-1.188 1.854-1.296 1.44-1.296 1.026-1.296 .648-1.188 .396-.954 .126-.72 0-.378 0 0ZM1.44 .702C.918 .702 .576 .432 .576 0 .576-.45 .918-.72 1.44-.72 1.98-.72 2.304-.45 2.304 0 2.304 .198 2.232 .378 2.07 .504 1.908 .648 1.692 .702 1.44 .702" fill-rule="evenodd"/><path transform="matrix(0,1,1,0,295.293,56.25)" d="M0 0V1.026H-.54V0H-1.116V1.134H-1.656V-.576H1.044V0" fill-rule="evenodd"/><path transform="matrix(0,1,1,0,297.597,56.25)" d="M0 0V1.044H-.54V0H-1.116V1.134H-1.656V-.576H1.044V0" fill-rule="evenodd"/><path transform="matrix(0,1,1,0,285.645,52.704)" d="M0 0C.252-.072 .468-.234 .612-.432 .774-.648 .846-.9 .846-1.152 .846-1.512 .72-1.854 .45-2.106 .18-2.34-.198-2.448-.612-2.448-1.026-2.448-1.404-2.34-1.656-2.106-1.908-1.872-2.052-1.548-2.052-1.152-2.052-.9-1.98-.63-1.818-.414-1.728-.306-1.62-.216-1.512-.144-1.404-.072-1.278-.018-1.152 0L-.936-.522C-1.044-.522-1.206-.594-1.314-.72-1.44-.864-1.494-1.026-1.494-1.152-1.494-1.35-1.422-1.53-1.26-1.656-1.08-1.782-.864-1.836-.612-1.836-.054-1.836 .288-1.566 .288-1.152 .288-1.026 .252-.864 .144-.72 .018-.594-.108-.522-.216-.522L0 0" fill-rule="evenodd"/><path transform="matrix(0,1,1,0,304.743,54.828)" d="M0 0V7.398C0 7.56 .036 7.722 .09 7.866 .144 8.028 .234 8.172 .342 8.298 .468 8.424 .594 8.532 .738 8.604 .9 8.676 1.044 8.73 1.188 8.748L3.168 8.964C3.312 8.982 3.492 8.946 3.636 8.82 3.708 8.748 3.762 8.676 3.798 8.604 3.834 8.514 3.852 8.442 3.852 8.352L3.942 8.766C3.852 8.892 3.744 9 3.6 9.09 3.456 9.162 3.294 9.18 3.15 9.162L1.17 8.928C1.008 8.91 .828 8.874 .666 8.784 .486 8.694 .324 8.568 .198 8.424 .072 8.28-.036 8.118-.09 7.938-.126 7.848-.144 7.758-.162 7.668-.18 7.578-.18 7.488-.18 7.398V0C-.18-.18-.162-.36-.09-.54-.036-.72 .072-.882 .198-1.026 .324-1.17 .486-1.296 .666-1.386 .738-1.422 .828-1.458 .918-1.476 1.008-1.512 1.08-1.53 1.17-1.53L3.15-1.764C3.294-1.782 3.456-1.764 3.6-1.674 3.744-1.602 3.852-1.494 3.942-1.368L3.852-.954C3.852-1.116 3.78-1.296 3.636-1.422 3.582-1.476 3.492-1.53 3.402-1.548 3.33-1.566 3.24-1.584 3.168-1.566L1.188-1.35C1.044-1.332 .9-1.278 .738-1.206 .594-1.134 .468-1.026 .342-.9 .234-.774 .144-.63 .09-.468 .036-.306 0-.162 0 0" fill-rule="evenodd"/><path transform="matrix(0,1,1,0,305.247,58.68)" d="M0 0V2.61C-.234 2.232-.378 1.782-.378 1.296-.378 .828-.234 .378 0 0" fill-rule="evenodd"/><path transform="matrix(0,1,1,0,301.143,65.61)" d="M0 0V2.304H2.124C2.232 2.142 2.322 1.962 2.394 1.764 2.466 1.566 2.502 1.368 2.502 1.152 2.502 .936 2.466 .72 2.394 .522 2.322 .324 2.232 .144 2.124 0H0" fill-rule="evenodd"/><path transform="matrix(0,1,1,0,313.437,67.734)" d="M0 0H-2.124V2.322H0C.108 2.16 .198 1.98 .27 1.782 .342 1.584 .378 1.368 .378 1.152 .378 .954 .342 .738 .27 .54 .198 .342 .108 .162 0 0" fill-rule="evenodd"/><path transform="matrix(0,1,1,0,305.319,56.646)" d="M0 0C.324 0 .63 .126 .864 .36 1.098 .594 1.224 .9 1.224 1.224 1.224 1.566 1.098 1.872 .864 2.106 .63 2.34 .324 2.466 0 2.466-.324 2.466-.648 2.34-.882 2.106-1.116 1.872-1.242 1.566-1.242 1.224-1.242 .9-1.116 .594-.882 .36-.648 .126-.324 0 0 0" fill-rule="evenodd"/><path transform="matrix(0,1,1,0,314.301,54.81)" d="M0 0C.324 0 .648 .126 .864 .36 1.098 .594 1.224 .9 1.224 1.224 1.224 1.548 1.098 1.872 .864 2.106 .648 2.322 .324 2.466 0 2.466-.324 2.466-.63 2.322-.864 2.106-1.098 1.872-1.224 1.548-1.224 1.224-1.224 .9-1.098 .594-.864 .36-.63 .126-.324 0 0 0" fill-rule="evenodd"/><path transform="matrix(0,1,1,0,321.429,56.664)" d="M0 0-1.368-3.168C-1.494-3.456-1.53-3.78-1.422-4.104-1.332-4.446-1.134-4.698-.882-4.878-.774-4.932-.684-5.04-.63-5.148-.504-5.4-.27-5.634 .018-5.76 .324-5.904 .648-5.922 .918-5.85L1.314-5.76 .792-6.57 1.962-6.318 2.646-5.238 1.746-4.806 2.97-4.464 3.816-3.978 4.536-4.716H6.426L4.914-2.7 7.596-1.62 11.34-1.224 11.016-.288 6.606-.252 3.582-.612 2.106-1.116 .45-2.034 .81-.828 2.826-.396 2.79-.252 3.294-.144C3.312-.09 3.312-.036 3.312 .018 3.312 .09 3.294 .144 3.258 .198 3.222 .252 3.186 .306 3.132 .342 3.078 .378 3.024 .396 2.97 .396L2.556 .324 2.52 .468 0 0" fill-rule="evenodd"/><path transform="matrix(0,1,1,0,325.677,55.782)" d="M0 0C-.234-.18-.396-.45-.468-.774-.54-1.098-.486-1.422-.342-1.674L.792-3.942 1.17-3.996 3.312-3.582 1.728-3.15 1.17-2.052 3.06-3.042 4.536-3.546 7.506-3.636 8.91-4.32 11.664-4.338 11.718-4.266 8.37-2.448 5.652-1.908 8.298-.774 12.024-.486V.486H8.118L5.688-.108 4.212-.576 3.276-.018 3.978-.108 6.084 1.08 6.282 1.17C6.354 1.17 6.408 1.206 6.462 1.242 6.516 1.296 6.552 1.332 6.552 1.386 6.588 1.512 6.516 1.62 6.39 1.674 6.336 1.71 6.264 1.728 6.192 1.728 6.102 1.746 6.03 1.746 5.958 1.746L5.814 1.71 5.742 1.89 3.78 .936 1.584 1.062C1.332 1.062 1.08 1.026 .864 .9 .63 .774 .45 .594 .324 .378 .234 .234 .126 .108 0 0" fill-rule="evenodd"/><path transform="matrix(0,1,1,0,325.605,54.81)" d="M0 0C.324 0 .63 .126 .864 .36 1.098 .594 1.224 .9 1.224 1.224 1.224 1.548 1.098 1.872 .864 2.088 .63 2.322 .324 2.448 0 2.448-.324 2.448-.648 2.322-.864 2.088-1.098 1.872-1.224 1.548-1.224 1.224-1.224 .9-1.098 .594-.864 .36-.648 .126-.324 0 0 0" fill-rule="evenodd"/><path transform="matrix(0,1,1,0,309.585,52.722)" d="M0 0V-2.286L.756-2.646V-4.446C.756-4.716 .81-5.004 .9-5.274 .99-5.544 1.134-5.814 1.332-6.048 1.512-6.282 1.746-6.48 1.998-6.624 2.25-6.786 2.502-6.876 2.772-6.93L6.354-7.704 6.3-7.506 2.808-6.75C2.574-6.696 2.322-6.606 2.088-6.462 1.854-6.318 1.656-6.138 1.476-5.922 1.296-5.706 1.17-5.472 1.08-5.22 .99-4.95 .954-4.698 .954-4.446V2.178C.954 2.412 .99 2.682 1.08 2.934 1.17 3.186 1.296 3.42 1.476 3.636 1.656 3.852 1.854 4.032 2.088 4.176 2.322 4.32 2.574 4.41 2.808 4.464L6.3 5.22 6.354 5.418 2.772 4.644C2.502 4.59 2.25 4.5 1.998 4.338 1.746 4.194 1.512 3.996 1.332 3.762 1.134 3.528 .99 3.258 .9 2.988 .81 2.718 .756 2.43 .756 2.178V.36L0 0ZM.756 .144V-2.43L.18-2.16V-.108L.756 .144" fill-rule="evenodd"/><path transform="matrix(0,1,1,0,301.143,65.61)" d="M0 0V14.616C0 14.796-.072 14.994-.234 15.156-.396 15.318-.594 15.372-.774 15.372H-5.22C-5.49 15.372-5.76 15.3-5.994 15.102-6.228 14.904-6.372 14.652-6.426 14.4L-6.93 11.952V2.646L-6.426 .198C-6.372-.054-6.228-.306-5.994-.504-5.76-.684-5.49-.774-5.22-.774H-.774C-.576-.774-.378-.702-.234-.558-.09-.414 0-.216 0 0ZM-3.276 2.304C-3.132 2.304-2.988 2.268-2.844 2.214-2.718 2.16-2.574 2.07-2.466 1.962-2.34 1.854-2.268 1.71-2.196 1.566-2.142 1.422-2.124 1.278-2.124 1.152-2.124 .846-2.25 .54-2.466 .324-2.682 .108-2.97 0-3.276 0-3.42 0-3.564 .018-3.708 .072-3.852 .126-3.978 .216-4.086 .324-4.212 .45-4.302 .576-4.356 .72-4.41 .864-4.428 1.008-4.428 1.152-4.428 1.458-4.302 1.746-4.086 1.962-3.87 2.178-3.582 2.304-3.276 2.304ZM-3.276 12.294C-3.42 12.294-3.564 12.33-3.708 12.384-3.852 12.438-3.978 12.528-4.086 12.636-4.212 12.744-4.302 12.888-4.356 13.032-4.41 13.176-4.428 13.32-4.428 13.446-4.428 13.752-4.302 14.058-4.086 14.274-3.87 14.49-3.582 14.616-3.276 14.616-2.97 14.616-2.682 14.49-2.466 14.274-2.25 14.058-2.124 13.752-2.124 13.446-2.124 13.14-2.25 12.852-2.466 12.636-2.682 12.42-2.97 12.294-3.276 12.294" fill="#ff0000" fill-rule="evenodd"/><path transform="matrix(0,1,1,0,306.003,59.886)" d="M0 0V.594H-.432V-1.062H0V-.45H1.71V0" fill="#ffffff" fill-rule="evenodd"/><path transform="matrix(0,1,1,0,308.811,61.596)" d="M0 0-2.142-.684V-1.332L0-1.998V-1.548L-.36-1.44V-.576L0-.468V0ZM-.756-.702V-1.296L-1.71-1.008-.756-.702" fill="#ffffff" fill-rule="evenodd"/><path transform="matrix(0,1,1,0,308.973,59.454)" d="M0 0 1.008 .612 2.142-.054V.486L1.458 .9 2.142 1.296V1.836L1.008 1.17 0 1.782V1.278L.63 .9 0 .504" fill="#ffffff" fill-rule="evenodd"/><path transform="matrix(0,1,1,0,0,0)" d="M59.454 311.205H61.595998V311.63697H59.454Z" fill="#ffffff"/><path transform="matrix(0,1,1,0,283.431,59.418)" d="M0 0-.018-.324H3.294V-1.872H3.726V2.034H3.294V.108H1.8V1.62H1.404V.108H.18L.108 .216 .054 .234 .018 .162" fill-rule="evenodd"/><path transform="matrix(0,1,1,0,287.319,60.75)" d="M0 0H-.594V.99L-.306 .756-.036 .486 .18 .144 .378-.252 .666 .018 .558 .288 .396 .504 .594 .756 .774 1.08 .9 .684 1.008 .288 1.062-.108 1.098-.504 1.476-.432 1.35 .342H2.61V.738H2.43V2.25H2.61V2.664H1.35V.414L1.188 .99 .99 1.458 1.26 2.34 1.404 3.312 1.044 3.546 .936 2.664 .756 1.854 .396 2.412 .018 2.844-.234 2.538-.198 2.466V1.152L-.306 1.278-.324 1.35-.36 1.386H-.396L-.432 1.35-.594 1.116V2.952H0V3.366H-.936V1.746H-1.134L-1.206 1.818H-1.26L-1.296 1.782-1.314 1.692-1.35 1.296H-.936V-.414H0V0ZM.216 .774 .144 .846V2.088L.396 1.8 .612 1.44 .216 .774ZM2.106 .738H1.67399V2.25H2.106Z" fill-rule="evenodd"/><path transform="matrix(0,1,1,0,292.485,59.652)" d="M0 0H.342V.774H.9C1.72 .762 2.607 .549 3.168-.09L3.402-.396 3.726-.018 3.33 .36 2.898 .666 2.43 .882 1.908 1.026 2.214 1.17 2.484 1.35 2.718 1.548 2.916 1.782 3.186 1.242 3.348 .648 3.69 .954 3.474 1.53 3.15 2.088 3.456 2.628 3.708 3.24 3.312 3.618 3.132 2.97 2.862 2.376 2.484 2.646 2.07 2.88 1.638 3.078 1.17 3.222 .972 2.844 1.08 2.808V2.322L.108 2.79-.108 2.412 0 2.358V0ZM.342 1.17V2.178L1.494 1.692 1.62 2.07 1.404 2.178V2.7L1.782 2.574 2.124 2.43 2.394 2.25 2.646 2.052 2.358 1.728 2.052 1.476 1.746 1.314 1.422 1.206 .342 1.17" fill-rule="evenodd"/><path transform="matrix(0,1,1,0,284.205,65.934)" d="M0 0H.36V1.044H.612V1.458H.36V2.43H.612V2.862H.36V3.924H0V2.862H-.126L-.18 2.934H-.216L-.252 2.88-.27 2.772-.288 2.43H0V1.458H-.09L-.144 1.512H-.198L-.234 1.494-.252 1.422-.288 1.044H0" fill-rule="evenodd"/><path transform="matrix(0,1,1,0,284.835,66.546)" d="M0 0 .252-.288 .468 .072 .738 .396 .45 .648 .198 .324" fill-rule="evenodd"/><path transform="matrix(0,1,1,0,284.475,67.302)" d="M0 0 .234-.27 .45 .126 .666 .45 .396 .72 .162 .36" fill-rule="evenodd"/><path transform="matrix(0,1,1,0,284.259,69.3)" d="M0 0 .288 .324V.396L.198 .45-.342 .72-.864 1.026-1.152 .756-.54 .396" fill-rule="evenodd"/><path transform="matrix(0,1,1,0,285.339,67.554)" d="M0 0 .18 .378-.126 .612 .198 .972 .45 .45 .63-.126 .954 .162 .846 .45H2.052V.882H1.908V1.8H2.052V2.214H.828L.936 2.484 .594 2.844 .432 2.232 .18 1.674-.216 2.07-.684 2.466-.954 2.142-.792 1.998V1.08L-.882 1.134-.936 1.242-.99 1.278-1.026 1.224-1.062 1.116-1.152 .792-.828 .63-.522 .45-.252 .234 0 0ZM-.45 .828V1.746L-.216 1.548-.018 1.314-.198 1.062-.45 .828ZM.792 2.07V.594L.63 .99 .432 1.332 .792 2.07ZM1.566 .882H1.13401V1.8H1.566Z" fill-rule="evenodd"/><path transform="matrix(0,1,1,0,289.965,66.978)" d="M0 0H-.576V1.008L-.288 .774-.036 .486 .18 .144 .378-.252 .666 .036 .558 .306 .396 .504 .594 .756 .774 1.08 .918 .684 1.008 .306 1.062-.108 1.098-.504 1.476-.414 1.35 .36H2.61V.738H2.43V2.25H2.61V2.664H1.35V.414L1.206 .99 .99 1.458 1.26 2.34 1.422 3.312 1.044 3.564 .936 2.664 .756 1.854 .396 2.43 .018 2.844-.234 2.556-.198 2.466V1.17L-.288 1.296-.324 1.368-.342 1.404H-.378L-.432 1.35-.576 1.134V2.97H0V3.384H-.918V1.746H-1.134L-1.206 1.818-1.26 1.836-1.296 1.8-1.314 1.692-1.35 1.314H-.918V-.396H0V0ZM.216 .792 .144 .864V2.088L.396 1.8 .63 1.458 .216 .792ZM2.106 .738H1.6740099V2.25H2.106Z" fill-rule="evenodd"/><path transform="matrix(0,1,1,0,306.255,62.532)" d="M0 0 .378-.198V-.504H2.34V-.27H2.124V.27H2.286V.504H.378V.09L.144 .216 .126 .27H.09L.072 .234 .054 .18 0 0ZM1.134-.27H.62999996V.27000997H1.134ZM1.908-.27H1.36799V.27000997H1.908Z" fill="#ffffff" fill-rule="evenodd"/><path transform="matrix(0,1,1,0,307.389,62.604)" d="M0 0-.054-.162 .198-.27 .432-.378 .63-.504 .81-.63 .918-.396 .756-.27 .558-.162V.396H1.206C1.497 .449 2.005 .437 2.016 .036V-.162L2.268-.054V.108C2.34 .666 1.589 .654 1.224 .648H.306V-.054L.108 .054 .072 .09 .054 .108 .018 .072" fill="#ffffff" fill-rule="evenodd"/><path transform="matrix(0,1,1,0,307.173,63.576)" d="M0 0 .162-.18 .378 .018 .63 .198 .45 .378 .198 .216" fill="#ffffff" fill-rule="evenodd"/><path transform="matrix(0,1,1,0,310.125,62.55)" d="M0 0V-.198H.756V-1.242H1.008V-.198H1.944V-1.098H2.178V.954H1.944V.072H1.008V1.116H.756V.072H.108L.072 .126 .036 .144 .018 .09" fill="#ffffff" fill-rule="evenodd"/></g></svg>