<?xml version='1.0' encoding='UTF-8'?>
<svg width="506.71" height="259.51" viewBox="30.05 4.76 506.71 259.51" xmlns="http://www.w3.org/2000/svg" xmlns:xlink="http://www.w3.org/1999/xlink" xmlns:inkscape="http://www.inkscape.org/namespaces/inkscape" version="1.1"><g transform="scale(10.0) translate(-329.439, -505.008)"><defs><clipPath id="clip_2"><path transform="matrix(1,0,0,-1,0,595.276)" d="M74.4 .196H767.4V595.276H74.4Z"/></clipPath></defs><path transform="matrix(1,0,0,-1,0,595.276)" d="M335.64 89.236H379.92C380.52 89.236 381.24 88.996 381.84 88.396 382.32 87.796 382.56 87.196 382.56 86.476V67.036C382.56 66.436 382.32 65.716 381.84 65.236 381.24 64.636 380.52 64.396 379.92 64.396H335.64C335.04 64.396 334.32 64.636 333.84 65.236 333.24 65.716 333 66.436 333 67.036V86.476C333 87.196 333.24 87.796 333.84 88.396 334.32 88.996 335.04 89.236 335.64 89.236Z" fill="#ffffff" fill-rule="evenodd"/><path transform="matrix(1,0,0,-1,0,595.276)" d="M335.64 87.796H379.92C380.04 87.796 380.28 87.796 380.4 87.796 380.52 87.676 380.76 87.556 380.88 87.436 381 87.316 381.12 87.196 381.12 86.956 381.24 86.836 381.24 86.596 381.24 86.476V67.036C381.24 66.796 381.12 66.436 380.88 66.076 380.52 65.836 380.16 65.716 379.92 65.716H335.64C335.4 65.716 335.04 65.836 334.68 66.076 334.56 66.316 334.56 66.436 334.44 66.556 334.32 66.796 334.32 66.916 334.32 67.036V86.476C334.32 87.196 334.92 87.796 335.64 87.796Z" fill="#0000ff" fill-rule="evenodd"/><path transform="matrix(1,0,0,-1,0,595.276)" d="M339.6 85.276C340.32 85.276 340.92 84.556 340.92 83.716 340.92 83.356 340.8 82.996 340.44 82.636 340.32 82.516 340.2 82.396 340.08 82.276 339.84 82.156 339.72 82.156 339.6 82.156H338.28V80.356H337.44V85.276H339.6ZM338.28 84.556V82.876H339.36C339.48 82.876 339.72 82.996 339.84 83.116 339.96 83.356 340.08 83.476 340.08 83.716 340.08 83.956 339.96 84.196 339.84 84.316 339.72 84.436 339.48 84.556 339.36 84.556H338.28Z" fill="#ffffff" fill-rule="evenodd"/><path transform="matrix(1,0,0,-1,0,595.276)" stroke-width=".12" stroke-linecap="butt" stroke-miterlimit="10" stroke-linejoin="miter" fill="none" stroke="#ffffff" d="M343.5 83.5V83.5"/><path transform="matrix(1,0,0,-1,0,595.276)" d="M343.68 83.116V83.116C343.32 83.116 343.08 83.116 342.84 82.996 342.72 82.876 342.6 82.756 342.6 82.756 342.6 82.636 342.48 82.516 342.48 82.396V80.356H341.76V83.836H342.48V83.476C342.6 83.716 342.84 83.836 343.08 83.836 343.2 83.956 343.44 83.956 343.68 83.956V83.116Z" fill="#ffffff" fill-rule="evenodd"/><path transform="matrix(1,0,0,-1,0,595.276)" d="M345.12 80.356V83.836H344.28V80.356Z" fill="#ffffff" fill-rule="evenodd"/><path transform="matrix(1,0,0,-1,0,595.276)" d="M345.12 84.916C345.12 85.156 345 85.396 344.64 85.396 344.4 85.396 344.28 85.156 344.28 84.916 344.28 84.676 344.4 84.436 344.64 84.436 345 84.436 345.12 84.676 345.12 84.916Z" fill="#ffffff" fill-rule="evenodd"/><path transform="matrix(1,0,0,-1,0,595.276)" d="M348.12 83.836 347.4 81.316 346.68 83.836H345.84L346.92 80.356H347.88L348.96 83.836Z" fill="#ffffff" fill-rule="evenodd"/><path transform="matrix(1,0,0,-1,0,595.276)" d="M352.68 80.836 352.56 80.956H352.44C352.32 81.076 352.32 81.076 352.32 81.196V82.276C352.32 82.396 352.32 82.516 352.32 82.636 352.32 82.756 352.32 82.876 352.32 82.996 352.32 83.236 352.32 83.356 352.2 83.596 351.96 83.716 351.84 83.836 351.6 83.836 351.36 83.956 351.12 83.956 350.88 83.956 350.64 83.956 350.4 83.956 350.28 83.836 350.16 83.836 350.04 83.836 349.92 83.716 349.8 83.716 349.68 83.596 349.56 83.596L349.92 82.996 350.28 83.236C350.4 83.236 350.52 83.236 350.64 83.236 350.88 83.356 351 83.356 351.24 83.236 351.36 83.236 351.48 83.236 351.48 83.116 351.6 82.996 351.6 82.996 351.6 82.876V82.756 82.516H351C350.88 82.516 350.76 82.516 350.64 82.516 350.52 82.396 350.28 82.396 350.16 82.396 349.92 82.276 349.8 82.156 349.68 82.036 349.56 81.796 349.44 81.556 349.44 81.316 349.44 81.076 349.56 80.956 349.68 80.716 349.8 80.596 349.92 80.476 350.04 80.356 350.28 80.356 350.4 80.236 350.64 80.236 350.88 80.236 351 80.236 351.24 80.356 351.48 80.356 351.6 80.476 351.72 80.596 351.84 80.476 351.84 80.356 351.96 80.356 352.08 80.356 352.2 80.236 352.32 80.236L352.68 80.836ZM350.64 80.836C350.52 80.836 350.4 80.956 350.4 80.956 350.28 81.076 350.28 81.196 350.28 81.196 350.16 81.316 350.28 81.436 350.28 81.556 350.28 81.676 350.4 81.676 350.52 81.796 350.52 81.796 350.64 81.796 350.76 81.796 350.88 81.916 351.12 81.916 351.24 81.916 351.36 81.916 351.48 81.916 351.6 81.916V81.316 81.196C351.6 81.076 351.48 81.076 351.48 80.956 351.36 80.956 351.24 80.836 351.12 80.836 351 80.836 350.76 80.836 350.64 80.836Z" fill="#ffffff" fill-rule="evenodd"/><path transform="matrix(1,0,0,-1,0,595.276)" d="M352.68 80.836V80.836Z" fill="#ffffff" fill-rule="evenodd"/><path transform="matrix(1,0,0,-1,0,595.276)" d="M354.84 81.196C354.84 81.076 354.84 80.956 354.96 80.956 355.08 80.956 355.2 80.956 355.32 80.956 355.44 80.956 355.56 80.956 355.68 80.956V80.356C355.32 80.236 354.84 80.236 354.48 80.356 354.36 80.476 354.24 80.596 354.12 80.716 354 80.716 354 80.956 354 81.076V83.236H353.28V83.836H354V85.036L354.84 85.276V83.836H355.68V83.236H354.84V81.196Z" fill="#ffffff" fill-rule="evenodd"/><path transform="matrix(1,0,0,-1,0,595.276)" d="M357.6 80.236C357.96 80.236 358.44 80.236 358.8 80.356 359.04 80.476 359.16 80.596 359.28 80.716L358.8 81.316 358.68 81.196C358.56 81.076 358.32 80.956 358.2 80.956 357.84 80.836 357.6 80.956 357.36 81.076 357.36 81.196 357.24 81.316 357.12 81.436 357.12 81.556 357.12 81.676 357.12 81.796H359.4C359.52 82.156 359.4 82.516 359.28 82.876 359.28 83.116 359.04 83.476 358.8 83.716 358.32 83.956 357.6 84.076 357.12 83.716 356.64 83.476 356.4 82.996 356.28 82.516 356.28 82.036 356.28 81.556 356.52 81.076 356.64 80.836 356.76 80.716 356.88 80.476 357.12 80.356 357.36 80.236 357.6 80.236ZM357 82.396C357.12 82.516 357.12 82.756 357.24 82.876 357.24 82.996 357.36 83.116 357.48 83.236 357.72 83.236 357.96 83.236 358.2 83.236 358.32 83.116 358.44 82.996 358.56 82.876 358.68 82.756 358.68 82.516 358.68 82.396H357Z" fill="#ffffff" fill-rule="evenodd"/><path transform="matrix(1,0,0,-1,0,595.276)" stroke-width=".12" stroke-linecap="butt" stroke-miterlimit="10" stroke-linejoin="miter" fill="none" stroke="#ffffff" d="M362.5 80.5V85.5"/><path transform="matrix(1,0,0,-1,0,595.276)" stroke-width=".12" stroke-linecap="butt" stroke-miterlimit="10" stroke-linejoin="miter" fill="none" stroke="#ffffff" d="M366.5 80.5V80.5"/><path transform="matrix(1,0,0,-1,0,595.276)" d="M366 80.356 365.04 82.276C365.64 82.516 366.12 83.236 366 83.956 365.88 84.316 365.76 84.676 365.52 84.916 365.28 85.156 364.92 85.276 364.68 85.276H362.52V80.356H363.36V82.276H364.2L365.16 80.356H366ZM363.36 82.996V84.556H364.44C364.8 84.556 365.16 84.196 365.16 83.716 365.16 83.356 364.8 82.996 364.44 82.996H363.36Z" fill="#ffffff" fill-rule="evenodd"/><path transform="matrix(1,0,0,-1,0,595.276)" d="M366.84 82.156C366.84 81.676 366.96 81.196 367.32 80.836 367.68 80.476 368.16 80.236 368.52 80.236 369 80.236 369.48 80.476 369.84 80.836 370.2 81.196 370.32 81.676 370.32 82.156 370.32 82.516 370.2 82.996 369.84 83.356 369.48 83.716 369 83.956 368.52 83.956 368.16 83.956 367.68 83.716 367.32 83.356 366.96 82.996 366.84 82.516 366.84 82.156ZM368.52 83.236C368.76 83.236 369 83.116 369.24 82.876 369.48 82.636 369.48 82.396 369.48 82.156 369.48 81.796 369.48 81.556 369.24 81.316 369 81.076 368.76 80.956 368.52 80.956 368.4 80.956 368.16 81.076 367.92 81.316 367.68 81.556 367.68 81.796 367.68 82.156 367.68 82.396 367.68 82.636 367.92 82.876 368.16 83.116 368.4 83.236 368.52 83.236Z" fill="#ffffff" fill-rule="evenodd"/><path transform="matrix(1,0,0,-1,0,595.276)" d="M374.28 80.836 374.16 80.956H374.04C374.04 81.076 373.92 81.076 373.92 81.196V82.276C373.92 82.396 373.92 82.516 373.92 82.636 373.92 82.756 373.92 82.876 373.92 82.996 373.92 83.236 373.92 83.356 373.8 83.596 373.68 83.716 373.44 83.836 373.2 83.836 372.96 83.956 372.72 83.956 372.48 83.956 372.24 83.956 372 83.956 371.88 83.836 371.76 83.836 371.64 83.836 371.52 83.716 371.4 83.716 371.28 83.596 371.16 83.596L371.52 82.996 371.88 83.236C372 83.236 372.12 83.236 372.36 83.236 372.48 83.356 372.6 83.356 372.84 83.236 372.96 83.236 373.08 83.236 373.08 83.116 373.2 82.996 373.2 82.996 373.2 82.876V82.756 82.516H372.6C372.48 82.516 372.36 82.516 372.24 82.516 372.12 82.396 371.88 82.396 371.76 82.396 371.64 82.276 371.4 82.156 371.28 82.036 371.16 81.796 371.04 81.556 371.04 81.316 371.04 81.076 371.16 80.956 371.28 80.716 371.4 80.596 371.52 80.476 371.64 80.356 371.88 80.356 372 80.236 372.24 80.236 372.48 80.236 372.6 80.236 372.84 80.356 373.08 80.356 373.2 80.476 373.32 80.596 373.44 80.476 373.44 80.356 373.56 80.356 373.68 80.356 373.8 80.236 373.92 80.236L374.28 80.836ZM372.24 80.836C372.12 80.836 372 80.956 372 80.956 371.88 81.076 371.88 81.196 371.88 81.196 371.88 81.316 371.88 81.436 371.88 81.556 371.88 81.676 372 81.676 372.12 81.796 372.24 81.796 372.24 81.796 372.36 81.796 372.48 81.916 372.72 81.916 372.84 81.916 372.96 81.916 373.08 81.916 373.2 81.916V81.316 81.196C373.2 81.076 373.08 81.076 373.08 80.956 372.96 80.956 372.84 80.836 372.72 80.836 372.6 80.836 372.36 80.836 372.24 80.836Z" fill="#ffffff" fill-rule="evenodd"/><path transform="matrix(1,0,0,-1,0,595.276)" d="M374.28 80.836V80.836Z" fill="#ffffff" fill-rule="evenodd"/><path transform="matrix(1,0,0,-1,0,595.276)" d="M377.4 80.476C377.16 80.356 377.04 80.356 376.8 80.236 376.8 80.236 376.68 80.236 376.56 80.236 376.44 80.236 376.32 80.236 376.2 80.356 375.72 80.476 375.36 80.836 375.12 81.316 375 81.796 375 82.516 375.24 82.996 375.24 83.116 375.24 83.236 375.36 83.236 375.48 83.596 375.84 83.836 376.32 83.956 376.8 83.956 377.16 83.836 377.52 83.596V85.276H378.24V80.356H377.52V80.476 80.596H377.4V80.476ZM376.92 80.956C377.16 81.076 377.28 81.196 377.4 81.436 377.52 81.556 377.52 81.676 377.52 81.796V82.516C377.52 82.636 377.52 82.756 377.4 82.996 377.28 83.116 377.04 83.236 376.92 83.236H376.8C376.68 83.236 376.44 83.236 376.2 83.116 376.08 82.996 376.08 82.996 375.96 82.876 375.72 82.396 375.72 81.916 375.96 81.436 376.08 81.316 376.08 81.196 376.2 81.196 376.32 81.076 376.44 81.076 376.56 80.956 376.68 80.956 376.8 80.956 376.92 80.956Z" fill="#ffffff" fill-rule="evenodd"/><path transform="matrix(1,0,0,-1,0,595.276)" d="M344.52 75.676 345 74.956 345.96 75.196V74.356H344.4V73.636H345.84L345.6 72.916 345.24 72.316 344.76 71.716 344.28 71.236 344.88 70.516 345.96 72.316V69.196H346.8V72.556L347.64 71.356 348.24 72.076 347.4 72.796 346.8 73.636H348.24V74.356H346.8V75.316L347.76 75.676 347.88 75.556H348L348.12 75.676V75.796L347.52 76.276 346.8 76.036 346.08 75.916 345.36 75.796Z" fill="#ffffff" fill-rule="evenodd"/><path transform="matrix(1,0,0,-1,0,595.276)" d="M350.28 75.916 349.44 76.156 348.84 73.156 348.12 70.516H347.4L347.52 69.796 347.64 69.556H347.76L347.88 69.676 350.88 70.276 351 69.436 351.72 69.556 351.36 71.116 350.88 72.676 350.04 72.436 350.64 70.876 348.96 70.636 349.56 73.036 350.16 75.556H350.28V75.676 75.796Z" fill="#ffffff" fill-rule="evenodd"/><path transform="matrix(1,0,0,-1,0,595.276)" d="M357.36 76.396V75.676H354.36V73.876H355.08V75.076H360.48V73.876H361.32V75.676H358.08V76.036L358.2 76.156H358.32L358.2 76.276 357.96 76.396Z" fill="#ffffff" fill-rule="evenodd"/><path transform="matrix(1,0,0,-1,0,595.276)" d="M355.56 74.596V73.876H357.24L356.64 73.516 356.04 73.276 355.32 73.036 354.6 72.796 355.2 72.196 356.28 72.676 357.36 73.276 357.72 72.916 357 72.436 356.28 71.956 355.44 71.596 354.6 71.356 355.08 70.876 355.92 71.116 356.64 71.476 357.36 71.956 357.96 72.316 358.2 71.836 357.36 71.236 356.52 70.756 355.56 70.276 354.48 70.036 355.08 69.436 355.92 69.676 356.76 70.156 357.48 70.636 358.2 71.116V70.636 70.276L357.96 70.036H357.72 357.24L357.36 69.196H357.96L358.44 69.316 358.8 69.676 358.92 70.276V70.996L359.88 70.036 360.84 69.436 361.56 70.036 360.72 70.396 360.12 70.876 359.52 71.476 359.04 72.076 360.48 72.916 360.72 72.796V72.916 73.036 73.156L360.24 73.636 358.8 72.676 358.44 73.276 357.96 73.756 358.2 73.876H360.12V74.596Z" fill="#ffffff" fill-rule="evenodd"/><path transform="matrix(1,0,0,-1,0,595.276)" d="M364.2 73.636H365.28V70.516L364.92 70.276V72.436L365.04 72.556V72.676H364.92L364.8 72.796H364.2V70.156H363.84L363.96 69.316H364.2L364.32 69.436 367.2 70.276V70.996L366.12 70.636V71.956H366.96V72.676H366.12V73.636H366.84V74.596L367.32 74.116 368.16 75.076H369.72L369.36 74.476 368.88 73.996 368.64 74.236 368.52 74.716 367.8 74.596 367.92 73.996 368.28 73.516 367.56 73.156 366.84 72.916 367.32 72.316 368.16 72.676 368.88 73.036 369.84 72.556 370.8 72.196 371.4 72.796 370.44 73.156 369.48 73.516 370.32 74.356 370.8 75.316 370.44 75.796H368.64L368.88 76.036 369 76.156V76.276L368.88 76.396 368.28 76.636 367.56 75.436 366.84 74.716V76.036H364.2V73.636ZM364.92 74.236V75.436H366V74.236H364.92Z" fill="#ffffff" fill-rule="evenodd"/><path transform="matrix(1,0,0,-1,0,595.276)" d="M367.44 69.076H368.16V69.556H369.84V69.196H370.56V72.076H367.44V69.076ZM368.16 70.276V71.476H369.84V70.276H368.16Z" fill="#ffffff" fill-rule="evenodd"/><path transform="matrix(1,0,0,-1,0,595.276)" stroke-width=".12" stroke-linecap="round" stroke-linejoin="round" fill="none" stroke="#0000ff" d="M333 86.476V67.036C333 65.596 334.2 64.396 335.64 64.396H379.92C381.36 64.396 382.56 65.596 382.56 67.036V86.476C382.56 88.036 381.36 89.236 379.92 89.236H335.64C334.2 89.236 333 88.036 333 86.476"/></g></svg>