<?xml version='1.0' encoding='UTF-8'?>
<svg width="257.02" height="257.02" viewBox="154.90 7.45 257.02 257.02" xmlns="http://www.w3.org/2000/svg" xmlns:xlink="http://www.w3.org/1999/xlink" xmlns:inkscape="http://www.inkscape.org/namespaces/inkscape" version="1.1"><g transform="scale(10.0) translate(-329.439, -154.944)"><defs><clipPath id="clip_2"><path transform="matrix(1,0,0,-1,0,595.276)" d="M74.4 .196H767.4V595.276H74.4Z"/></clipPath></defs><path transform="matrix(1,0,0,-1,0,595.276)" d="M370.32 426.796C370.32 428.236 370.08 429.796 369.36 431.356 369.12 432.076 368.76 432.916 368.28 433.636 367.8 434.356 367.2 434.956 366.6 435.556 366 436.156 365.4 436.756 364.68 437.236 363.96 437.716 363.12 438.076 362.4 438.316 360.84 439.036 359.28 439.276 357.84 439.276 356.28 439.276 354.72 439.036 353.16 438.316 352.44 438.076 351.72 437.716 351 437.236 350.28 436.756 349.56 436.156 348.96 435.556 348.36 434.956 347.76 434.356 347.28 433.636 346.8 432.916 346.44 432.076 346.2 431.356 345.6 429.796 345.24 428.236 345.24 426.796 345.24 425.236 345.6 423.676 346.2 422.116 346.44 421.396 346.8 420.676 347.28 419.956 347.76 419.236 348.36 418.516 348.96 417.916 349.56 417.316 350.28 416.716 351 416.236 351.72 415.876 352.44 415.396 353.16 415.156 354.72 414.556 356.28 414.196 357.84 414.196 359.28 414.196 360.84 414.556 362.4 415.156 363.12 415.396 363.96 415.876 364.68 416.236 365.4 416.716 366 417.316 366.6 417.916 367.2 418.516 367.8 419.236 368.28 419.956 368.76 420.676 369.12 421.396 369.36 422.116 370.08 423.676 370.32 425.236 370.32 426.796ZM369.84 426.796C369.84 425.356 369.48 423.796 369 422.356 368.4 420.796 367.44 419.476 366.24 418.276 365.04 417.076 363.72 416.236 362.16 415.636 360.72 415.036 359.16 414.796 357.84 414.796 356.4 414.796 354.84 415.036 353.4 415.636 351.84 416.236 350.52 417.076 349.32 418.276 348.12 419.476 347.28 420.796 346.68 422.356 346.08 423.796 345.84 425.356 345.84 426.796 345.84 428.116 346.08 429.676 346.68 431.116 347.28 432.676 348.12 433.996 349.32 435.196 350.52 436.396 351.84 437.356 353.4 437.956 354.84 438.556 356.4 438.796 357.84 438.796 359.16 438.796 360.72 438.556 362.16 437.956 363.72 437.356 365.04 436.396 366.24 435.196 367.44 433.996 368.4 432.676 369 431.116 369.48 429.676 369.84 428.116 369.84 426.796Z" fill-rule="evenodd"/><path transform="matrix(1,0,0,-1,0,595.276)" d="M369.84 426.796C369.84 429.916 368.52 433.036 366.24 435.196 364.08 437.476 360.96 438.796 357.84 438.796 354.6 438.796 351.6 437.476 349.32 435.196 347.04 433.036 345.84 429.916 345.84 426.796 345.84 423.556 347.04 420.556 349.32 418.276 351.6 415.996 354.6 414.796 357.84 414.796 360.96 414.796 364.08 415.996 366.24 418.276 368.52 420.556 369.84 423.556 369.84 426.796Z" fill="#ffff00" fill-rule="evenodd"/><path transform="matrix(1,0,0,-1,0,595.276)" stroke-width=".12" stroke-linecap="butt" stroke-miterlimit="10" stroke-linejoin="miter" fill="none" stroke="#000000" d="M352.5 422.5V422.5"/><path transform="matrix(1,0,0,-1,0,595.276)" d="M352.44 422.836V422.836C351.84 422.836 351.36 422.956 351 423.196 350.64 423.556 350.28 423.916 350.16 424.396L347.88 423.676C348.24 422.596 348.72 421.876 349.56 421.276 350.28 420.796 351.24 420.556 352.44 420.556 355.08 420.556 356.88 422.236 356.88 424.756 356.88 427.756 355.32 429.316 352.56 429.316 352.32 429.316 351.84 429.316 351.36 429.196 351 429.076 350.76 428.956 350.76 428.956V429.316L350.88 430.156H355.92V432.556H348.72L348 426.436 350.52 426.076C350.76 426.676 351.48 427.036 352.2 427.036 352.68 427.036 353.28 426.916 353.76 426.436 354.12 426.076 354.36 425.476 354.36 424.996 354.24 424.396 354.12 423.916 353.76 423.556 353.4 423.076 352.92 422.956 352.44 422.836Z" fill-rule="evenodd"/><path transform="matrix(1,0,0,-1,0,595.276)" stroke-width=".12" stroke-linecap="butt" stroke-miterlimit="10" stroke-linejoin="miter" fill="none" stroke="#000000" d="M363.5 422.5V422.5"/><path transform="matrix(1,0,0,-1,0,595.276)" d="M363.24 422.836V422.836C362.64 422.836 362.16 422.956 361.8 423.196 361.44 423.556 361.2 423.916 360.96 424.396L358.8 423.676C359.04 422.596 359.64 421.876 360.36 421.276 361.08 420.796 362.04 420.556 363.24 420.556 365.88 420.556 367.68 422.236 367.68 424.756 367.68 426.316 367.32 427.396 366.6 428.236 365.88 428.956 364.8 429.316 363.36 429.316 363.12 429.316 362.64 429.316 362.28 429.196 361.8 429.076 361.56 428.956 361.56 428.956L361.68 429.316 361.8 430.156H366.84V432.556H359.52L358.92 426.436 361.44 426.076C361.56 426.676 362.28 427.036 363 427.036 363.6 427.036 364.08 426.916 364.56 426.436 365.04 426.076 365.16 425.476 365.16 424.996 365.16 424.396 364.92 423.916 364.56 423.556 364.2 423.076 363.72 422.956 363.24 422.836Z" fill-rule="evenodd"/></g></svg>