<?xml version='1.0' encoding='UTF-8'?>
<svg width="549.27" height="128.37" viewBox="10.00 72.92 549.27 128.37" xmlns="http://www.w3.org/2000/svg" xmlns:xlink="http://www.w3.org/1999/xlink" xmlns:inkscape="http://www.inkscape.org/namespaces/inkscape" version="1.1"><g transform="scale(10.0) translate(-111.171, -74.160)"><defs><clipPath id="clip_14"><path transform="matrix(1,0,0,-1,0,595.276)" d="M74.37 .046H767.49V595.276H74.37Z"/></clipPath></defs><path transform="matrix(1,0,0,-1,0,595.276)" d="M113.64 513.286H165.6C165.84 513.286 166.08 513.226 166.26 513.016 166.47 512.836 166.56 512.596 166.56 512.356V502.456C166.56 502.246 166.47 501.976 166.26 501.796 166.08 501.616 165.84 501.526 165.6 501.526H113.64C113.52 501.526 113.4 501.526 113.28 501.586 113.19 501.646 113.07 501.706 112.98 501.796 112.89 501.886 112.8 502.006 112.77 502.126 112.71 502.246 112.71 502.336 112.71 502.456V512.356C112.71 512.596 112.77 512.836 112.98 513.016 113.16 513.226 113.4 513.286 113.64 513.286ZM113.64 512.836C113.37 512.836 113.16 512.626 113.16 512.356V502.456C113.16 502.336 113.22 502.216 113.31 502.126 113.4 502.036 113.52 502.006 113.64 502.006H165.6C165.66 502.006 165.72 502.006 165.78 502.036 165.84 502.036 165.9 502.096 165.93 502.126 166.05 502.216 166.08 502.336 166.08 502.456V512.356C166.08 512.416 166.08 512.476 166.05 512.536 166.02 512.596 165.99 512.656 165.93 512.686 165.84 512.776 165.72 512.836 165.6 512.836H113.64Z" fill-rule="evenodd"/><path transform="matrix(1,0,0,-1,0,595.276)" d="M113.64 512.836H165.6C165.72 512.836 165.84 512.776 165.93 512.686 166.05 512.596 166.08 512.476 166.08 512.356V502.456C166.08 502.396 166.08 502.336 166.05 502.276 166.02 502.216 165.99 502.186 165.93 502.126 165.9 502.096 165.84 502.036 165.78 502.036 165.72 502.006 165.66 502.006 165.6 502.006H113.64C113.52 502.006 113.4 502.036 113.31 502.126 113.22 502.216 113.16 502.336 113.16 502.456V512.356C113.16 512.476 113.22 512.596 113.31 512.686 113.4 512.776 113.52 512.836 113.64 512.836Z" fill="#ffffff" fill-rule="evenodd"/><path transform="matrix(1,0,0,-1,0,595.276)" d="M131.97 506.776H135.75V508.036H131.97Z" fill-rule="evenodd"/><path transform="matrix(1,0,0,-1,0,595.276)" d="M118.74 509.296 118.59 508.906C118.47 508.906 118.35 508.906 118.26 508.936 118.2 508.966 118.14 509.026 118.11 509.086 118.08 508.996 117.84 508.876 117.66 508.876 117.18 508.876 116.91 509.116 116.91 509.566 116.91 509.776 117 509.926 117.18 510.016 117.36 510.136 117.63 510.166 117.99 510.166V510.256C117.99 510.316 117.99 510.376 117.93 510.406 117.9 510.436 117.84 510.466 117.78 510.466 117.66 510.466 117.54 510.436 117.45 510.406 117.36 510.376 117.27 510.316 117.18 510.256L116.94 510.616C117.12 510.826 117.42 510.916 117.75 510.916 117.99 510.916 118.17 510.886 118.32 510.796 118.44 510.706 118.53 510.556 118.53 510.376V509.416C118.56 509.326 118.62 509.296 118.74 509.296ZM117.45 509.536C117.45 509.476 117.45 509.416 117.51 509.386 117.57 509.356 117.63 509.326 117.75 509.326 117.87 509.356 117.96 509.386 117.99 509.446V509.776C117.81 509.776 117.69 509.746 117.57 509.716 117.48 509.686 117.45 509.626 117.45 509.536Z" fill-rule="evenodd"/><path transform="matrix(1,0,0,-1,0,595.276)" d="M120.99 510.406C120.84 510.406 120.66 510.286 120.66 510.136V508.966H120.15V510.256C120.15 510.346 120.03 510.406 119.88 510.406 119.73 510.406 119.58 510.286 119.58 510.136V508.966H119.04V510.856H119.55V510.766C119.61 510.826 119.7 510.856 119.76 510.886 119.85 510.916 119.91 510.916 120 510.916 120.24 510.916 120.42 510.826 120.51 510.676 120.63 510.826 120.81 510.916 121.02 510.916 121.38 510.916 121.62 510.766 121.71 510.466 121.74 510.436 121.74 510.436 121.74 510.406 121.74 510.376 121.74 510.346 121.74 510.346V510.316 508.966H121.23V510.256C121.23 510.256 121.23 510.286 121.23 510.316 121.2 510.316 121.2 510.346 121.17 510.346 121.11 510.406 121.05 510.406 120.99 510.406Z" fill-rule="evenodd"/><path transform="matrix(1,0,0,-1,0,595.276)" d="M139.2 510.406C139.05 510.406 138.87 510.286 138.87 510.136V508.966H138.36V510.256C138.36 510.346 138.24 510.406 138.09 510.406 137.94 510.406 137.79 510.286 137.79 510.136V508.966H137.25V510.856H137.76V510.766C137.82 510.826 137.91 510.856 137.97 510.886 138.06 510.916 138.12 510.916 138.21 510.916 138.45 510.916 138.63 510.826 138.72 510.676 138.84 510.826 139.02 510.916 139.23 510.916 139.59 510.916 139.8 510.766 139.92 510.466 139.95 510.436 139.95 510.436 139.95 510.406 139.95 510.376 139.95 510.346 139.95 510.346V510.316 508.966H139.44V510.256C139.44 510.256 139.44 510.286 139.44 510.316 139.41 510.316 139.41 510.346 139.38 510.346 139.32 510.406 139.26 510.406 139.2 510.406Z" fill-rule="evenodd"/><path transform="matrix(1,0,0,-1,0,595.276)" d="M141 508.966V510.826H140.52V508.966Z" fill-rule="evenodd"/><path transform="matrix(1,0,0,-1,0,595.276)" d="M141.06 511.306C141.06 511.486 140.94 511.606 140.76 511.606 140.61 511.606 140.46 511.486 140.46 511.306 140.46 511.156 140.61 511.006 140.76 511.006 140.94 511.006 141.06 511.156 141.06 511.306Z" fill-rule="evenodd"/><path transform="matrix(1,0,0,-1,0,595.276)" d="M142.74 510.766V511.576H143.25V508.936H142.74V509.026C142.65 508.936 142.5 508.876 142.29 508.876 141.84 508.846 141.48 509.176 141.42 509.806V509.836 510.016 510.076C141.48 510.586 141.81 510.856 142.23 510.886 142.38 510.886 142.56 510.856 142.74 510.766ZM142.74 509.596V510.046C142.74 510.106 142.74 510.136 142.71 510.196 142.71 510.226 142.68 510.256 142.65 510.256V510.286C142.56 510.376 142.47 510.406 142.35 510.406 142.08 510.376 141.93 510.226 141.9 509.896 141.9 509.536 142.05 509.356 142.35 509.326 142.53 509.356 142.65 509.446 142.74 509.596Z" fill-rule="evenodd"/><path transform="matrix(1,0,0,-1,0,595.276)" d="M145.41 508.966V510.256 510.286C145.41 510.706 145.17 510.916 144.69 510.916 144.6 510.916 144.51 510.916 144.42 510.886 144.36 510.856 144.3 510.796 144.24 510.736V510.856H143.73V508.966H144.24V510.136C144.27 510.316 144.39 510.436 144.6 510.436 144.78 510.436 144.87 510.316 144.9 510.136V510.106 510.076 508.966H145.41Z" fill-rule="evenodd"/><path transform="matrix(1,0,0,-1,0,595.276)" d="M146.46 508.966V510.826H145.98V508.966Z" fill-rule="evenodd"/><path transform="matrix(1,0,0,-1,0,595.276)" d="M146.52 511.306C146.52 511.486 146.37 511.606 146.22 511.606 146.04 511.606 145.92 511.486 145.92 511.306 145.92 511.156 146.04 511.006 146.22 511.006 146.37 511.006 146.52 511.156 146.52 511.306Z" fill-rule="evenodd"/><path transform="matrix(1,0,0,-1,0,595.276)" d="M148.59 508.876V510.826H148.08V510.766C148.08 510.856 147.9 510.916 147.66 510.916 147.12 510.886 146.85 510.556 146.85 509.896 146.91 509.326 147.18 509.056 147.66 509.026 147.75 509.026 147.84 509.026 147.93 509.056 147.99 509.086 148.05 509.116 148.05 509.146V509.056C148.02 508.876 147.93 508.786 147.78 508.756 147.69 508.756 147.6 508.786 147.48 508.816 147.36 508.846 147.24 508.906 147.09 508.966L146.85 508.546C147.06 508.396 147.42 508.306 147.72 508.276 148.26 508.276 148.56 508.486 148.59 508.876ZM148.05 510.166V509.746C148.05 509.656 148.02 509.596 147.96 509.566 147.9 509.506 147.84 509.476 147.75 509.476 147.51 509.476 147.39 509.656 147.36 509.956 147.39 510.226 147.51 510.406 147.72 510.406 147.93 510.406 148.05 510.286 148.05 510.166Z" fill-rule="evenodd"/><path transform="matrix(1,0,0,-1,0,595.276)" d="M149.61 510.766C149.82 510.946 150.12 510.976 150.36 510.856 150.48 510.796 150.6 510.706 150.66 510.586 150.75 510.466 150.78 510.316 150.78 510.196V508.966H150.27V510.106C150.27 510.166 150.24 510.256 150.15 510.316 150.09 510.376 150 510.406 149.94 510.406 149.85 510.406 149.76 510.376 149.7 510.316 149.64 510.256 149.61 510.166 149.61 510.106V508.966H149.1V511.576H149.61V510.766Z" fill-rule="evenodd"/><path transform="matrix(1,0,0,-1,0,595.276)" d="M151.98 510.826H152.46V510.376H151.98V509.566C151.98 509.506 151.98 509.446 152.04 509.416 152.07 509.386 152.1 509.356 152.16 509.356 152.19 509.356 152.25 509.356 152.28 509.356 152.34 509.356 152.37 509.386 152.43 509.386L152.52 508.966C152.43 508.906 152.25 508.876 151.98 508.876 151.83 508.876 151.71 508.906 151.62 508.996 151.53 509.086 151.5 509.206 151.47 509.356V510.376H151.17V510.826H151.47V511.426L151.98 511.576V510.826Z" fill-rule="evenodd"/><path transform="matrix(1,0,0,-1,0,595.276)" d="M156.96 510.976V503.896H155.52V508.966H154.44V510.256C154.83 510.256 155.13 510.316 155.31 510.436 155.52 510.556 155.61 510.736 155.61 510.976H156.96Z" fill-rule="evenodd"/><path transform="matrix(1,0,0,-1,0,595.276)" d="M161.19 505.276H163.68V503.896H158.58V505.276C161.55 507.226 162.21 507.886 162.33 508.516V508.546 508.726 508.786C162.21 509.326 161.85 509.656 161.25 509.716 160.83 509.716 160.5 509.596 160.29 509.356 160.17 509.236 160.08 509.086 160.02 508.936 159.96 508.756 159.93 508.546 159.93 508.336H158.43C158.43 509.266 158.67 509.986 159.15 510.496 159.63 510.976 160.35 511.216 161.25 511.216 162.9 511.216 163.83 510.376 163.92 508.786V508.726 508.606 508.576C163.8 507.376 162.9 506.296 161.19 505.276Z" fill-rule="evenodd"/><path transform="matrix(1,0,0,-1,0,595.276)" d="M126.63 503.896H128.19L130.47 509.536V510.976H125.46V509.536H128.91Z" fill-rule="evenodd"/><path transform="matrix(1,0,0,-1,0,595.276)" d="M140.85 505.906 141.21 505.666 141.63 506.206H142.44V505.426H140.79V505.066H142.44V503.596H142.8V505.066H144.21V505.426H142.8V506.206H143.97V506.536H141.87L142.02 506.836 142.11 506.866 142.14 506.896 142.11 506.926 142.02 506.986 141.75 507.076 141.33 506.416Z" fill-rule="evenodd"/><path transform="matrix(1,0,0,-1,0,595.276)" d="M145.5 506.656V506.326H148.77V506.656H147.33V506.866L147.39 506.926 147.42 506.986 147.39 507.016H147.33L146.97 507.046V506.656Z" fill-rule="evenodd"/><path transform="matrix(1,0,0,-1,0,595.276)" d="M147.48 506.176 147.24 506.266 147.06 505.876 146.88 505.516 146.61 505.186 146.34 504.886 146.67 504.706 146.82 504.886 147.3 504.286 146.88 504.076 146.4 503.926 146.61 503.566 147.18 503.806 147.57 504.046 148.08 503.776 148.56 503.596 148.92 503.956 148.35 504.076 147.87 504.316 148.08 504.586 148.26 504.886 148.41 505.276 148.53 505.696 148.32 505.936 148.2 505.846H147.39L147.48 506.056H147.54L147.57 506.086V506.116L147.48 506.176ZM147.06 505.216 147.24 505.516H148.11L147.9 504.976 147.57 504.496 147.3 504.796 147.06 505.216Z" fill-rule="evenodd"/><path transform="matrix(1,0,0,-1,0,595.276)" d="M147.42 505.426 147.21 505.246 147.42 505.066 147.63 504.856 147.84 505.036 147.63 505.246Z" fill-rule="evenodd"/><path transform="matrix(1,0,0,-1,0,595.276)" d="M146.61 506.176 146.28 506.266 146.13 505.936 145.92 505.606 145.68 505.276 145.35 504.946 145.65 504.706 145.95 505.036V503.596H146.28V505.486L146.43 505.756 146.58 506.026 146.64 506.056 146.67 506.086 146.64 506.116Z" fill-rule="evenodd"/><path transform="matrix(1,0,0,-1,0,595.276)" d="M117 507.016 116.73 507.046V504.136H115.35V503.776H118.77V504.136H117.09V505.456H118.41V505.816H117.09V506.866L117.18 506.926 117.21 506.986 117.15 507.016Z" fill-rule="evenodd"/><path transform="matrix(1,0,0,-1,0,595.276)" d="M120.03 505.906 120.39 505.666 120.84 506.206H121.65V505.426H120V505.066H121.65V503.596H122.01V505.066H123.42V505.426H122.01V506.206H123.15V506.536H121.05L121.23 506.836 121.32 506.866V506.896L121.29 506.926 121.2 506.986 120.96 507.076 120.51 506.416Z" fill-rule="evenodd"/></g></svg>