<?xml version='1.0' encoding='UTF-8'?>
<svg width="532.62" height="252.90" viewBox="18.36 9.54 532.62 252.90" xmlns="http://www.w3.org/2000/svg" xmlns:xlink="http://www.w3.org/1999/xlink" xmlns:inkscape="http://www.inkscape.org/namespaces/inkscape" version="1.1"><g transform="scale(10.0) translate(-165.765, -558.864)"><defs><clipPath id="clip_19"><path transform="matrix(0,1,1,0,0,0)" d="M0 19.875H595.008V822.117H0Z"/></clipPath><clipPath id="clip_20"><path transform="matrix(0,1,1,0,0,0)" d="M0 842.013H595.224V.008972168H0Z"/></clipPath></defs><path transform="matrix(0,1,1,0,169.995,584.586)" d="M0 0V48.492C0 48.708-.054 48.942-.144 49.176-.234 49.41-.36 49.626-.558 49.806-.738 49.986-.954 50.13-1.188 50.22-1.422 50.31-1.656 50.346-1.872 50.346H-22.392C-22.608 50.346-22.842 50.31-23.076 50.22-23.31 50.13-23.526 49.986-23.706 49.806-23.886 49.626-24.03 49.41-24.12 49.176-24.21 48.942-24.246 48.708-24.246 48.492V0C-24.246-.216-24.21-.45-24.12-.684-24.03-.918-23.886-1.134-23.706-1.314-23.526-1.494-23.31-1.638-23.076-1.728-22.842-1.818-22.608-1.872-22.392-1.872H-1.872C-1.368-1.872-.9-1.674-.558-1.314-.198-.972 0-.486 0 0" fill="#00ff00" fill-rule="evenodd"/><path transform="matrix(0,1,1,0,204.501,580.842)" d="M0 0C-.252 1.692-.792 3.348-1.548 4.896-2.322 6.426-3.33 7.848-4.536 9.072-5.202 9.774-6.03 10.35-6.948 10.746-7.884 11.124-8.856 11.322-9.828 11.322H-16.776V-11.34H-9.828C-8.856-11.34-7.884-11.142-6.948-10.746-6.03-10.368-5.202-9.792-4.536-9.09-3.33-7.866-2.322-6.444-1.548-4.896-.792-3.366-.252-1.71 0 0" fill="#ffff00" fill-rule="evenodd"/><path transform="matrix(0,1,1,0,212.223,570.96)" d="M0 0C-1.854 0-3.258-.378-4.194-1.152-5.13-1.926-5.58-3.078-5.58-4.59-5.58-6.12-5.13-7.272-4.194-8.046-3.258-8.802-1.854-9.198 0-9.198 3.726-9.198 5.598-7.65 5.598-4.59 5.598-3.078 5.13-1.926 4.194-1.152 3.258-.378 1.872 0 0 0ZM0-2.232C2.394-2.232 3.582-3.024 3.582-4.59 3.582-5.382 3.294-5.976 2.682-6.372 2.088-6.75 1.188-6.948 0-6.948-1.188-6.948-2.088-6.75-2.682-6.372-3.276-5.976-3.582-5.382-3.582-4.59-3.582-3.024-2.376-2.232 0-2.232" fill-rule="evenodd"/><path transform="matrix(0,1,1,0,200.415,565.74)" d="M0 0H10.44V-2.124H2.988V-3.726H1.044C1.044-3.438 1.026-3.186 .99-2.97 .936-2.736 .882-2.556 .792-2.412 .702-2.268 .594-2.16 .468-2.088 .324-2.016 .18-1.98 0-1.98V0" fill-rule="evenodd"/><path transform="matrix(0,1,1,0,188.031,564.066)" d="M0 0V-13.986C0-14.148 .036-14.328 .09-14.49 .162-14.67 .27-14.832 .414-14.976 .54-15.102 .702-15.21 .882-15.282 1.062-15.354 1.242-15.372 1.404-15.372H15.39C15.552-15.372 15.732-15.354 15.894-15.282 16.074-15.21 16.236-15.102 16.38-14.976 16.506-14.832 16.614-14.67 16.686-14.49 16.758-14.328 16.776-14.148 16.776-13.986V0C16.776 .18 16.758 .342 16.686 .522 16.614 .702 16.506 .864 16.38 .99 16.236 1.134 16.074 1.242 15.894 1.314 15.732 1.368 15.552 1.404 15.39 1.404H1.404C1.242 1.404 1.062 1.368 .882 1.314 .702 1.242 .54 1.134 .414 .99 .27 .864 .162 .702 .09 .522 .036 .342 0 .18 0 0ZM.468 0C.468 .252 .558 .486 .738 .666 .918 .846 1.152 .936 1.404 .936H15.39C15.498 .936 15.606 .918 15.732 .882 15.84 .828 15.948 .756 16.038 .666 16.236 .468 16.326 .234 16.326 0V-13.986C16.326-14.202 16.236-14.454 16.038-14.634 15.858-14.832 15.606-14.904 15.39-14.904H1.404C1.296-14.904 1.17-14.886 1.062-14.85 .936-14.796 .828-14.724 .738-14.634 .558-14.454 .468-14.202 .468-13.986V0" fill="#ff0000" fill-rule="evenodd"/><path transform="matrix(0,1,1,0,174.045,564.534)" d="M0 0V13.986C0 14.094 .018 14.22 .072 14.328 .108 14.454 .18 14.562 .27 14.652 .36 14.742 .468 14.814 .594 14.868 .702 14.904 .828 14.922 .936 14.922H14.922C15.138 14.922 15.39 14.85 15.57 14.652 15.768 14.454 15.858 14.22 15.858 13.986V0C15.858-.216 15.768-.468 15.57-.648 15.39-.846 15.138-.918 14.922-.918H.936C.684-.918 .45-.828 .27-.648 .09-.486 0-.234 0 0" fill="#ffffff" fill-rule="evenodd"/><path transform="matrix(0,1,1,0,181.515,569.196)" d="M0 0V1.386L-3.258 .936V0" fill="#ff0000" fill-rule="evenodd"/><path transform="matrix(0,1,1,0,187.563,570.132)" d="M0 0V-13.05H.936V-12.114C.936-12.006 .972-11.88 1.062-11.79 1.152-11.682 1.278-11.646 1.386-11.646H2.79V-10.71L1.278-10.332C1.188-10.314 1.098-10.26 1.026-10.17 .954-10.08 .936-9.99 .936-9.882V-3.15C.936-3.06 .954-2.952 1.026-2.862 1.098-2.772 1.188-2.718 1.278-2.7L2.79-2.322V-1.386H1.386C1.332-1.386 1.278-1.386 1.224-1.35 1.17-1.332 1.116-1.296 1.062-1.26 1.026-1.206 .99-1.152 .954-1.098 .936-1.044 .936-.972 .936-.918V0H0" fill="#ff0000" fill-rule="evenodd"/><path transform="matrix(0,1,1,0,183.315,571.986)" d="M0 0V-1.8H7.002V.99" fill="#ff0000" fill-rule="evenodd"/><path transform="matrix(0,1,1,0,178.779,571.986)" d="M0 0V1.8H7.002V-.99" fill="#ff0000" fill-rule="evenodd"/><path transform="matrix(0,1,1,0,180.579,569.196)" d="M0 0V-1.404L-3.258-.936V0" fill="#ff0000" fill-rule="evenodd"/></g></svg>