<?xml version='1.0' encoding='UTF-8'?>
<svg width="514.97" height="253.97" viewBox="27.01 9.88 514.97 253.97" xmlns="http://www.w3.org/2000/svg" xmlns:xlink="http://www.w3.org/1999/xlink" xmlns:inkscape="http://www.inkscape.org/namespaces/inkscape" version="1.1"><g transform="scale(10.0) translate(-111.171, -289.584)"><defs><clipPath id="clip_14"><path transform="matrix(1,0,0,-1,0,595.276)" d="M74.37 .046H767.49V595.276H74.37Z"/></clipPath></defs><path transform="matrix(1,0,0,-1,0,595.276)" d="M163.89 304.126C164.13 304.126 164.34 304.036 164.55 303.856 164.61 303.766 164.7 303.676 164.73 303.556 164.79 303.436 164.79 303.346 164.79 303.226V280.786C164.79 280.546 164.73 280.336 164.55 280.156 164.46 280.066 164.34 279.976 164.22 279.946 164.13 279.886 164.01 279.886 163.89 279.886H115.35C115.14 279.886 114.9 279.976 114.72 280.156 114.54 280.336 114.45 280.546 114.45 280.786V303.226C114.45 303.436 114.54 303.676 114.72 303.856 114.81 303.946 114.9 304.006 115.02 304.066 115.14 304.096 115.23 304.126 115.35 304.126H163.89ZM115.35 303.676C115.23 303.676 115.11 303.646 115.02 303.556 114.93 303.466 114.9 303.346 114.9 303.226V280.786C114.9 280.726 114.9 280.666 114.93 280.606 114.96 280.546 114.99 280.516 115.02 280.456 115.11 280.366 115.23 280.336 115.35 280.336H163.89C163.95 280.336 164.01 280.336 164.07 280.366 164.13 280.396 164.16 280.426 164.22 280.456 164.31 280.546 164.34 280.666 164.34 280.786V303.226C164.34 303.286 164.34 303.346 164.31 303.406 164.31 303.436 164.25 303.496 164.22 303.556 164.16 303.586 164.13 303.616 164.07 303.646 164.01 303.676 163.95 303.676 163.89 303.676H115.35Z" fill-rule="evenodd"/><path transform="matrix(1,0,0,-1,0,595.276)" d="M115.35 303.676H163.89C163.95 303.676 164.01 303.676 164.07 303.646 164.13 303.616 164.16 303.586 164.22 303.556 164.25 303.496 164.31 303.436 164.31 303.406 164.34 303.346 164.34 303.286 164.34 303.226V280.786C164.34 280.666 164.31 280.546 164.22 280.456 164.16 280.426 164.13 280.396 164.07 280.366 164.01 280.336 163.95 280.336 163.89 280.336H115.35C115.23 280.336 115.11 280.366 115.02 280.456 114.99 280.516 114.96 280.546 114.93 280.606 114.9 280.666 114.9 280.726 114.9 280.786V303.226C114.9 303.346 114.93 303.466 115.02 303.556 115.11 303.646 115.23 303.676 115.35 303.676Z" fill="#ffffff" fill-rule="evenodd"/><path transform="matrix(1,0,0,-1,0,595.276)" d="M129.45 300.946C129.45 301.576 129.12 301.936 128.58 301.936 128.49 301.936 128.37 301.936 128.28 301.906 128.16 301.876 128.13 301.846 128.1 301.786V301.876H127.62V299.326H128.13V300.046C128.19 299.956 128.4 299.896 128.58 299.896 129.09 299.896 129.45 300.316 129.45 300.946ZM128.52 300.376C128.43 300.376 128.34 300.406 128.25 300.496 128.22 300.526 128.19 300.556 128.16 300.586 128.16 300.646 128.13 300.676 128.13 300.706V301.216C128.13 301.336 128.31 301.456 128.49 301.486H128.52C128.58 301.486 128.67 301.486 128.73 301.426 128.82 301.366 128.88 301.306 128.91 301.246V301.216 301.156L128.94 301.126V300.736H128.91V300.676 300.646C128.88 300.586 128.82 300.496 128.73 300.436 128.64 300.376 128.58 300.376 128.52 300.376Z" fill-rule="evenodd"/><path transform="matrix(1,0,0,-1,0,595.276)" d="M131.76 301.426C131.61 301.426 131.43 301.306 131.43 301.156V299.986H130.92V301.276C130.92 301.366 130.8 301.426 130.65 301.426 130.5 301.426 130.35 301.306 130.32 301.156V299.986H129.81V301.876H130.32V301.786C130.38 301.846 130.47 301.876 130.53 301.906 130.62 301.936 130.68 301.936 130.77 301.936 131.01 301.936 131.19 301.846 131.28 301.696 131.4 301.846 131.58 301.936 131.79 301.936 132.15 301.936 132.39 301.786 132.48 301.486 132.51 301.456 132.51 301.456 132.51 301.426 132.51 301.396 132.51 301.366 132.51 301.336H132.54V299.986H132.03V301.246C132.03 301.276 132 301.306 132 301.336 132 301.336 131.97 301.366 131.94 301.366 131.91 301.396 131.82 301.426 131.76 301.426Z" fill-rule="evenodd"/><path transform="matrix(.03,0,0,.03,0,0)" stroke-width="5" stroke-linecap="round" stroke-linejoin="round" fill="none" stroke="#000000" d="M4626 9956H4627"/><path transform="matrix(1,0,0,-1,0,595.276)" d="M138.78 296.596V296.596C138.45 296.596 138.21 296.656 138 296.806 137.82 296.926 137.67 297.136 137.58 297.406L136.38 297.046C136.53 296.476 136.83 296.026 137.22 295.756 137.64 295.456 138.15 295.336 138.78 295.306 139.47 295.306 140.1 295.546 140.52 295.966 140.94 296.356 141.18 296.956 141.18 297.646 141.18 299.236 140.37 300.076 138.84 300.076 138.72 300.076 138.48 300.046 138.24 299.986 138 299.926 137.91 299.866 137.91 299.836L137.94 300.076 137.97 300.526H140.7V301.816H136.8L136.44 298.486 137.79 298.336C137.88 298.636 138.27 298.846 138.66 298.846 138.96 298.846 139.26 298.756 139.5 298.516 139.71 298.276 139.83 297.976 139.8 297.706 139.8 297.406 139.71 297.136 139.5 296.926 139.32 296.716 139.05 296.626 138.78 296.596Z" fill-rule="evenodd"/><path transform="matrix(1,0,0,-1,0,595.276)" d="M150.66 295.306C151.35 295.306 151.98 295.516 152.43 295.906 152.88 296.266 153.12 296.836 153.12 297.406 153.12 297.676 153.06 297.976 152.91 298.216 152.76 298.456 152.52 298.666 152.28 298.786V298.816C152.7 299.086 152.91 299.536 152.91 300.106 152.91 300.706 152.73 301.216 152.34 301.546 151.95 301.876 151.38 302.026 150.66 302.026 149.19 302.026 148.41 301.366 148.41 300.106 148.41 299.536 148.62 299.086 149.04 298.816V298.786C148.77 298.666 148.56 298.456 148.41 298.216 148.26 297.976 148.2 297.676 148.2 297.406 148.2 297.136 148.26 296.836 148.35 296.596 148.47 296.326 148.65 296.086 148.89 295.906 149.1 295.696 149.4 295.546 149.7 295.456 150 295.366 150.33 295.306 150.66 295.306ZM150.66 298.216C151.32 298.216 151.68 297.886 151.71 297.376 151.68 296.866 151.32 296.506 150.66 296.536 150 296.506 149.64 296.866 149.61 297.376 149.64 297.886 150 298.216 150.66 298.216ZM151.56 300.106C151.56 299.656 151.26 299.416 150.66 299.416 150.36 299.416 150.12 299.476 149.97 299.596 149.82 299.716 149.76 299.866 149.76 300.106 149.76 300.556 150.06 300.766 150.66 300.766 150.96 300.766 151.17 300.736 151.32 300.616 151.5 300.496 151.56 300.316 151.56 300.106Z" fill-rule="evenodd"/><path transform="matrix(1,0,0,-1,0,595.276)" d="M123 291.856H124.05V292.366H123V292.906H124.14V293.416H122.43V290.806H124.29V291.316H123Z" fill-rule="evenodd"/><path transform="matrix(1,0,0,-1,0,595.276)" d="M125.91 292.666H126.45L125.91 291.766 126.54 290.806H125.94L125.61 291.376 125.31 290.806H124.71L125.31 291.766 124.77 292.666H125.34L125.61 292.126Z" fill-rule="evenodd"/><path transform="matrix(1,0,0,-1,0,595.276)" d="M127.71 292.756C127.92 292.756 128.1 292.726 128.25 292.636 128.4 292.516 128.49 292.366 128.55 292.186L128.13 291.976C128.04 292.186 127.92 292.276 127.71 292.276 127.5 292.276 127.38 292.126 127.32 291.856 127.29 291.826 127.29 291.796 127.29 291.736 127.32 291.706 127.32 291.646 127.32 291.616V291.586C127.38 291.346 127.53 291.196 127.74 291.196 127.83 291.196 127.92 291.226 127.98 291.256 128.04 291.316 128.1 291.406 128.13 291.526L128.58 291.346C128.46 290.896 128.19 290.716 127.77 290.716 127.14 290.746 126.81 291.076 126.81 291.736 126.87 292.426 127.17 292.756 127.71 292.756Z" fill-rule="evenodd"/><path transform="matrix(1,0,0,-1,0,595.276)" d="M130.56 291.556C130.59 292.336 130.29 292.726 129.69 292.756 129.18 292.756 128.88 292.426 128.82 291.766 128.82 291.466 128.91 291.256 129.03 291.076 129.24 290.836 129.51 290.716 129.78 290.716 130.11 290.716 130.41 290.866 130.5 291.046L130.2 291.376C130.14 291.256 129.96 291.196 129.78 291.196 129.69 291.196 129.6 291.226 129.51 291.286 129.45 291.316 129.42 291.376 129.42 291.406 129.39 291.466 129.39 291.526 129.39 291.556H130.56ZM129.36 291.946V291.976C129.36 292.036 129.39 292.126 129.48 292.186 129.54 292.276 129.63 292.306 129.72 292.306 129.87 292.306 130.02 292.156 130.05 292.006L130.08 291.946H129.36Z" fill-rule="evenodd"/><path transform="matrix(1,0,0,-1,0,595.276)" d="M132.81 291.766C132.81 292.066 132.72 292.306 132.57 292.486 132.42 292.666 132.18 292.756 131.91 292.756 131.82 292.756 131.73 292.756 131.64 292.726 131.52 292.696 131.46 292.666 131.46 292.636V292.696H130.98V290.146H131.49V290.866C131.52 290.776 131.76 290.716 131.94 290.716 132.45 290.716 132.81 291.136 132.81 291.766ZM131.88 291.226C131.79 291.226 131.7 291.256 131.61 291.316 131.58 291.346 131.55 291.376 131.52 291.436 131.49 291.466 131.49 291.496 131.49 291.526V292.036C131.49 292.156 131.67 292.306 131.85 292.306H131.88C131.94 292.306 132.03 292.306 132.09 292.246 132.18 292.216 132.24 292.126 132.27 292.066V292.036 291.976 291.946 291.556 291.496 291.466C132.24 291.406 132.18 291.316 132.09 291.256 132 291.226 131.91 291.196 131.88 291.226Z" fill-rule="evenodd"/><path transform="matrix(1,0,0,-1,0,595.276)" d="M133.86 292.666H134.34V292.216H133.86V291.406C133.86 291.346 133.89 291.286 133.92 291.256 133.95 291.226 134.01 291.196 134.07 291.196 134.1 291.196 134.13 291.196 134.19 291.196 134.22 291.196 134.28 291.226 134.34 291.226L134.43 290.806C134.34 290.746 134.16 290.716 133.89 290.716 133.74 290.716 133.59 290.746 133.53 290.836 133.44 290.896 133.38 291.046 133.35 291.196V292.216H133.05V292.666H133.35V293.266L133.86 293.416V292.666Z" fill-rule="evenodd"/><path transform="matrix(1,0,0,-1,0,595.276)" d="M136.5 292.696C136.5 292.606 136.53 292.546 136.62 292.516 136.68 292.456 136.83 292.426 137.01 292.396 137.61 292.306 137.94 292.036 137.94 291.556 137.91 290.986 137.55 290.716 136.89 290.716 136.62 290.716 136.38 290.746 136.17 290.836 135.96 290.926 135.78 291.076 135.66 291.226L136.11 291.586C136.35 291.346 136.62 291.226 136.89 291.226 137.16 291.256 137.31 291.346 137.31 291.556 137.28 291.736 137.1 291.826 136.71 291.856 136.2 291.916 135.93 292.186 135.87 292.636 135.9 293.206 136.23 293.476 136.92 293.476 137.13 293.476 137.34 293.446 137.52 293.386 137.67 293.326 137.82 293.206 137.97 293.056L137.58 292.696C137.34 292.876 137.1 292.966 136.92 292.966 136.65 292.966 136.5 292.876 136.5 292.696Z" fill-rule="evenodd"/><path transform="matrix(1,0,0,-1,0,595.276)" d="M140.28 291.136 140.13 290.746C140.01 290.746 139.89 290.746 139.8 290.776 139.74 290.806 139.68 290.866 139.65 290.926 139.62 290.836 139.38 290.716 139.2 290.716 138.69 290.716 138.42 290.956 138.42 291.406 138.42 291.616 138.51 291.766 138.72 291.856 138.9 291.976 139.17 292.006 139.53 292.006V292.096C139.53 292.186 139.53 292.216 139.47 292.246 139.44 292.306 139.38 292.306 139.32 292.306 139.2 292.306 139.08 292.306 138.99 292.246 138.9 292.216 138.81 292.186 138.72 292.096L138.48 292.486C138.66 292.666 138.93 292.786 139.29 292.786 139.53 292.786 139.71 292.726 139.86 292.636 139.98 292.546 140.07 292.426 140.1 292.216V291.256C140.1 291.166 140.16 291.136 140.28 291.136ZM138.99 291.376C138.99 291.316 138.99 291.256 139.05 291.226 139.11 291.166 139.17 291.166 139.29 291.166 139.41 291.196 139.5 291.226 139.53 291.286V291.616C139.35 291.616 139.2 291.586 139.11 291.556 139.02 291.496 138.99 291.466 138.99 291.376Z" fill-rule="evenodd"/><path transform="matrix(1,0,0,-1,0,595.276)" d="M141.27 292.666H141.72V292.216H141.27V291.406C141.27 291.346 141.27 291.286 141.3 291.256 141.33 291.226 141.39 291.196 141.45 291.196 141.48 291.196 141.54 291.196 141.57 291.196 141.63 291.196 141.66 291.226 141.72 291.226L141.81 290.806C141.72 290.746 141.54 290.716 141.27 290.716 141.12 290.716 141 290.746 140.91 290.836 140.82 290.896 140.76 291.016 140.76 291.196V292.216H140.43V292.666H140.76V293.266L141.27 293.416V292.666Z" fill-rule="evenodd"/><path transform="matrix(1,0,0,-1,0,595.276)" d="M143.4 292.666H143.91V290.776H143.37V290.866H143.34C143.34 290.836 143.31 290.776 143.22 290.746 143.1 290.716 143.01 290.716 142.89 290.716 142.71 290.716 142.53 290.776 142.38 290.896 142.23 291.016 142.17 291.166 142.17 291.316V292.666H142.71V291.526C142.71 291.466 142.74 291.376 142.8 291.316 142.86 291.256 142.95 291.226 143.01 291.226 143.1 291.226 143.19 291.256 143.28 291.316 143.34 291.406 143.4 291.496 143.4 291.586V292.666Z" fill-rule="evenodd"/><path transform="matrix(1,0,0,-1,0,595.276)" d="M144.42 290.806V292.726H144.9V292.516C144.96 292.606 145.02 292.666 145.14 292.726 145.23 292.756 145.38 292.786 145.53 292.756V292.246C145.35 292.216 145.2 292.186 145.11 292.126 144.99 292.066 144.96 292.006 144.93 291.916V290.806H144.42Z" fill-rule="evenodd"/><path transform="matrix(1,0,0,-1,0,595.276)" d="M147.15 292.606V293.416H147.66V290.776H147.12V290.866C147.06 290.776 146.91 290.716 146.67 290.716 146.25 290.686 145.89 291.016 145.8 291.646V291.676 291.856 291.916C145.86 292.426 146.19 292.696 146.64 292.726 146.79 292.726 146.94 292.696 147.15 292.606ZM147.12 291.436V291.886C147.12 291.946 147.12 292.006 147.12 292.036 147.09 292.066 147.09 292.096 147.06 292.096 147.06 292.126 147.06 292.126 147.03 292.126 146.97 292.216 146.85 292.246 146.76 292.246 146.49 292.246 146.34 292.066 146.31 291.736 146.31 291.376 146.46 291.196 146.73 291.166 146.94 291.166 147.06 291.256 147.12 291.436Z" fill-rule="evenodd"/><path transform="matrix(1,0,0,-1,0,595.276)" d="M149.91 291.136 149.76 290.746C149.64 290.746 149.52 290.746 149.43 290.776 149.34 290.806 149.31 290.866 149.28 290.926 149.22 290.836 148.98 290.716 148.8 290.716 148.32 290.716 148.05 290.956 148.05 291.406 148.05 291.826 148.41 292.006 149.16 292.006V292.096C149.16 292.186 149.13 292.216 149.1 292.246 149.07 292.306 149.01 292.306 148.92 292.306 148.83 292.306 148.71 292.306 148.62 292.246 148.5 292.216 148.44 292.186 148.35 292.096L148.11 292.486C148.29 292.666 148.56 292.786 148.92 292.786 149.16 292.786 149.34 292.726 149.46 292.636 149.61 292.546 149.7 292.426 149.7 292.216V291.256C149.7 291.166 149.79 291.136 149.91 291.136ZM148.59 291.376C148.59 291.316 148.62 291.256 148.68 291.226 148.71 291.166 148.8 291.166 148.89 291.166 149.04 291.196 149.13 291.226 149.16 291.286V291.616C148.98 291.616 148.83 291.586 148.74 291.556 148.65 291.496 148.59 291.466 148.59 291.376Z" fill-rule="evenodd"/><path transform="matrix(1,0,0,-1,0,595.276)" d="M151.92 292.666H151.38L151.02 291.556 150.66 292.666H150.12L150.69 290.956C150.69 290.896 150.72 290.866 150.72 290.806 150.72 290.776 150.72 290.746 150.72 290.716 150.72 290.656 150.69 290.626 150.66 290.626 150.57 290.626 150.54 290.626 150.48 290.626 150.42 290.656 150.36 290.656 150.33 290.656L150.24 290.236C150.45 290.176 150.66 290.146 150.84 290.146 150.93 290.146 150.99 290.176 151.05 290.236 151.11 290.326 151.17 290.416 151.2 290.506L151.92 292.666Z" fill-rule="evenodd"/><path transform="matrix(1,0,0,-1,0,595.276)" d="M153.75 291.376C153.75 291.736 153.54 291.976 153.12 292.036 153 292.036 152.88 292.036 152.82 292.066 152.79 292.096 152.76 292.096 152.76 292.126 152.73 292.126 152.73 292.156 152.73 292.186 152.73 292.276 152.82 292.306 153 292.336 153.09 292.336 153.18 292.306 153.24 292.276 153.3 292.246 153.36 292.186 153.42 292.126L153.72 292.486C153.57 292.666 153.36 292.786 153.03 292.786 152.49 292.786 152.22 292.576 152.19 292.126 152.22 291.796 152.43 291.616 152.76 291.556 153.03 291.556 153.18 291.466 153.18 291.346 153.18 291.316 153.18 291.256 153.15 291.226 153.09 291.226 153.06 291.196 152.97 291.196 152.88 291.196 152.76 291.226 152.67 291.256 152.58 291.316 152.52 291.376 152.43 291.436L152.07 291.106C152.28 290.836 152.58 290.716 152.97 290.716 153.45 290.716 153.75 290.956 153.75 291.376Z" fill-rule="evenodd"/><path transform="matrix(1,0,0,-1,0,595.276)" d="M155.4 292.366C155.28 292.486 155.22 292.666 155.25 292.846 155.25 293.026 155.34 293.176 155.46 293.296 155.58 293.416 155.76 293.476 155.94 293.476 156.12 293.446 156.27 293.386 156.39 293.266 156.51 293.146 156.57 292.996 156.6 292.816 156.6 292.666 156.54 292.486 156.42 292.366L156.39 292.336 156.33 292.276H156.3C156.27 292.246 156.24 292.246 156.24 292.216 156.21 292.216 156.18 292.186 156.15 292.186L156.48 291.646C156.54 291.736 156.6 291.856 156.57 291.946V291.976H157.05C157.08 291.706 156.96 291.406 156.75 291.226 156.78 291.226 156.81 291.196 156.87 291.196 156.9 291.196 156.96 291.226 157.02 291.226L157.11 290.866C157.08 290.806 156.93 290.746 156.75 290.746 156.63 290.746 156.48 290.806 156.39 290.866 156.27 290.776 156.06 290.716 155.85 290.716 155.31 290.716 154.95 291.076 154.95 291.586 154.95 291.976 155.1 292.216 155.4 292.366ZM155.7 291.916C155.49 291.796 155.43 291.556 155.55 291.376 155.61 291.286 155.7 291.226 155.79 291.196 155.91 291.196 156.03 291.226 156.12 291.286L155.7 291.916ZM155.88 292.576C156 292.606 156.09 292.756 156.09 292.816 156.09 292.936 156.03 292.996 155.94 292.996 155.88 292.996 155.85 292.996 155.82 292.936 155.76 292.906 155.76 292.846 155.76 292.786 155.76 292.726 155.79 292.636 155.88 292.576Z" fill-rule="evenodd"/><path transform="matrix(1,0,0,-1,0,595.276)" d="M124.5 288.376C124.5 287.986 124.59 287.626 124.8 287.356 125.04 287.116 125.34 286.996 125.64 286.996 125.79 286.966 125.91 286.996 126.03 287.026 126.15 287.056 126.24 287.116 126.33 287.206V287.026H126.81V288.556H125.64V288.106H126.3C126.3 288.016 126.3 287.956 126.27 287.896 126.24 287.806 126.18 287.746 126.12 287.686 126 287.566 125.82 287.536 125.64 287.536 125.28 287.536 125.04 287.866 125.04 288.376 125.04 288.886 125.28 289.216 125.64 289.216 125.82 289.216 126 289.186 126.12 289.126 126.24 289.036 126.3 288.946 126.3 288.826L126.78 289.096C126.57 289.546 126.12 289.816 125.64 289.786 125.34 289.786 125.04 289.666 124.8 289.396 124.59 289.126 124.5 288.766 124.5 288.376Z" fill-rule="evenodd"/><path transform="matrix(1,0,0,-1,0,595.276)" d="M129.12 287.836C129.12 288.586 128.85 289.006 128.22 289.036 127.71 289.036 127.44 288.676 127.38 288.016 127.38 287.746 127.44 287.506 127.59 287.326 127.8 287.116 128.07 286.996 128.34 286.996 128.64 286.966 128.97 287.116 129.06 287.326L128.76 287.656C128.67 287.536 128.49 287.476 128.34 287.446 128.25 287.446 128.13 287.476 128.04 287.566 128.01 287.596 127.98 287.626 127.95 287.686 127.95 287.746 127.92 287.776 127.92 287.836H129.12ZM127.89 288.226V288.226C127.92 288.316 127.95 288.406 128.01 288.466 128.1 288.526 128.19 288.556 128.25 288.586 128.4 288.556 128.58 288.436 128.61 288.286V288.256 288.226H127.89Z" fill-rule="evenodd"/><path transform="matrix(1,0,0,-1,0,595.276)" d="M131.22 287.086V288.376 288.406C131.22 288.826 130.98 289.036 130.5 289.036 130.41 289.036 130.32 289.036 130.23 289.006 130.17 288.976 130.11 288.916 130.05 288.856V288.976H129.51V287.086H130.05V288.226 288.256C130.08 288.436 130.2 288.556 130.41 288.556 130.59 288.526 130.68 288.436 130.71 288.256V288.226 288.196 288.166 287.086H131.22Z" fill-rule="evenodd"/><path transform="matrix(1,0,0,-1,0,595.276)" d="M133.44 287.836C133.47 288.586 133.17 289.006 132.57 289.036 132.03 289.036 131.76 288.676 131.7 288.016 131.7 287.746 131.79 287.506 131.91 287.326 132.12 287.116 132.39 286.996 132.66 286.996 132.96 286.966 133.29 287.116 133.38 287.326L133.08 287.656C132.99 287.536 132.84 287.476 132.66 287.446 132.57 287.446 132.45 287.476 132.39 287.566 132.33 287.596 132.3 287.626 132.27 287.686 132.27 287.746 132.24 287.776 132.24 287.836H133.44ZM132.24 288.226V288.226C132.24 288.316 132.27 288.406 132.36 288.466 132.42 288.526 132.51 288.556 132.6 288.586 132.72 288.556 132.9 288.436 132.93 288.286V288.256 288.226H132.24Z" fill-rule="evenodd"/><path transform="matrix(1,0,0,-1,0,595.276)" d="M133.86 287.086V288.976H134.37V288.796C134.4 288.886 134.46 288.946 134.58 288.976 134.67 289.036 134.82 289.036 134.97 289.036V288.526C134.79 288.496 134.64 288.466 134.55 288.406 134.46 288.346 134.4 288.286 134.37 288.196V287.086H133.86Z" fill-rule="evenodd"/><path transform="matrix(1,0,0,-1,0,595.276)" d="M137.1 287.386 136.98 287.026C136.83 286.996 136.71 287.026 136.65 287.056 136.56 287.086 136.5 287.146 136.47 287.206 136.44 287.086 136.2 286.996 136.02 286.996 135.78 286.996 135.6 287.056 135.45 287.176 135.33 287.296 135.27 287.446 135.27 287.686 135.27 288.076 135.63 288.286 136.35 288.286V288.376C136.38 288.436 136.35 288.496 136.32 288.526 136.29 288.556 136.23 288.586 136.14 288.586 136.02 288.586 135.93 288.556 135.81 288.526 135.72 288.496 135.63 288.436 135.57 288.376L135.3 288.736C135.51 288.946 135.78 289.036 136.11 289.036 136.35 289.036 136.56 289.006 136.68 288.916 136.83 288.826 136.89 288.676 136.92 288.496V287.536C136.92 287.446 136.98 287.386 137.1 287.386ZM135.81 287.656C135.81 287.566 135.84 287.536 135.87 287.476 135.93 287.446 136.02 287.446 136.11 287.446 136.23 287.446 136.32 287.506 136.35 287.566V287.896C136.17 287.896 136.05 287.866 135.96 287.806 135.87 287.776 135.81 287.716 135.81 287.656Z" fill-rule="evenodd"/><path transform="matrix(1,0,0,-1,0,595.276)" d="M137.91 289.696V287.656 287.626 287.566C137.94 287.506 138.06 287.506 138.24 287.536L138.3 287.086C138.3 287.086 138.3 287.056 138.27 287.056 138.27 287.056 138.24 287.056 138.18 287.056 138.09 287.026 138 287.026 137.91 287.026 137.67 287.026 137.46 287.146 137.4 287.356 137.4 287.386 137.4 287.416 137.4 287.446V287.476 289.696H137.91Z" fill-rule="evenodd"/><path transform="matrix(1,0,0,-1,0,595.276)" d="M140.31 288.646V289.696H139.77V287.086H140.31V288.136H140.85 141.39V287.086H141.93V289.696H141.39V288.646H140.85Z" fill-rule="evenodd"/><path transform="matrix(1,0,0,-1,0,595.276)" d="M144.36 288.016C144.36 288.676 144.03 289.036 143.43 289.036 142.86 289.036 142.5 288.676 142.5 288.016 142.5 287.686 142.59 287.446 142.77 287.266 142.92 287.086 143.16 286.996 143.43 286.996 143.73 286.996 143.97 287.086 144.12 287.266 144.3 287.446 144.36 287.686 144.36 288.016ZM143.82 288.016C143.82 287.686 143.67 287.506 143.43 287.506 143.19 287.506 143.07 287.686 143.07 288.016 143.07 288.346 143.19 288.526 143.43 288.526 143.55 288.526 143.67 288.466 143.73 288.376 143.79 288.286 143.82 288.166 143.82 288.016Z" fill-rule="evenodd"/><path transform="matrix(1,0,0,-1,0,595.276)" d="M145.23 289.696V287.656 287.626 287.566C145.26 287.506 145.35 287.506 145.56 287.536L145.62 287.086C145.62 287.086 145.62 287.056 145.59 287.056 145.56 287.056 145.53 287.056 145.5 287.056 145.41 287.026 145.32 287.026 145.23 287.026 144.96 287.026 144.75 287.146 144.72 287.356 144.72 287.386 144.72 287.416 144.72 287.446V287.476 289.696H145.23Z" fill-rule="evenodd"/><path transform="matrix(1,0,0,-1,0,595.276)" d="M146.49 287.086V288.946H145.98V287.086Z" fill-rule="evenodd"/><path transform="matrix(1,0,0,-1,0,595.276)" d="M146.52 289.426C146.52 289.606 146.4 289.726 146.22 289.726 146.07 289.726 145.95 289.606 145.95 289.426 145.95 289.276 146.07 289.126 146.22 289.126 146.4 289.126 146.52 289.276 146.52 289.426Z" fill-rule="evenodd"/><path transform="matrix(1,0,0,-1,0,595.276)" d="M148.23 288.886V289.696H148.74V287.026H148.2V287.116C148.14 287.026 147.99 286.996 147.75 286.996 147.33 286.966 146.97 287.266 146.88 287.926V287.956 288.136 288.196C146.94 288.706 147.27 288.976 147.72 289.006 147.87 289.006 148.02 288.976 148.23 288.886ZM148.2 287.686V288.166C148.2 288.226 148.2 288.256 148.2 288.286 148.2 288.316 148.17 288.376 148.14 288.376 148.14 288.406 148.14 288.406 148.11 288.406 148.05 288.466 147.93 288.526 147.84 288.526 147.57 288.496 147.42 288.316 147.39 288.016 147.39 287.656 147.54 287.446 147.81 287.416 148.02 287.446 148.14 287.536 148.2 287.686Z" fill-rule="evenodd"/><path transform="matrix(1,0,0,-1,0,595.276)" d="M150.99 287.386 150.84 287.026C150.72 286.996 150.6 287.026 150.51 287.056 150.42 287.086 150.39 287.146 150.36 287.206 150.3 287.086 150.06 286.996 149.88 286.996 149.67 286.996 149.46 287.056 149.34 287.176 149.19 287.296 149.13 287.446 149.13 287.686 149.13 288.076 149.49 288.286 150.24 288.286V288.376C150.24 288.436 150.24 288.496 150.18 288.526 150.15 288.556 150.09 288.586 150 288.586 149.91 288.586 149.79 288.556 149.7 288.526 149.61 288.496 149.52 288.436 149.43 288.376L149.19 288.736C149.37 288.946 149.64 289.036 150 289.036 150.24 289.036 150.42 289.006 150.57 288.916 150.69 288.826 150.78 288.676 150.78 288.496V287.536C150.81 287.446 150.87 287.386 150.99 287.386ZM149.67 287.656C149.67 287.566 149.7 287.536 149.76 287.476 149.79 287.446 149.88 287.446 149.97 287.446 150.12 287.446 150.21 287.506 150.24 287.566V287.896C150.06 287.896 149.91 287.866 149.82 287.806 149.73 287.776 149.67 287.716 149.67 287.656Z" fill-rule="evenodd"/><path transform="matrix(1,0,0,-1,0,595.276)" d="M153 288.946H152.46L152.1 287.806 151.74 288.946H151.2L151.77 287.206C151.77 287.176 151.8 287.116 151.8 287.086 151.8 287.056 151.8 287.026 151.8 286.996 151.8 286.936 151.77 286.906 151.74 286.906 151.68 286.906 151.62 286.906 151.56 286.906 151.5 286.906 151.44 286.936 151.41 286.936L151.32 286.516C151.53 286.456 151.74 286.426 151.95 286.426 152.01 286.426 152.07 286.456 152.13 286.516 152.19 286.576 152.25 286.666 152.28 286.756L153 288.946Z" fill-rule="evenodd"/><path transform="matrix(1,0,0,-1,0,595.276)" d="M154.83 287.656C154.83 288.016 154.62 288.226 154.2 288.286 154.08 288.316 153.96 288.316 153.9 288.346 153.84 288.376 153.81 288.406 153.81 288.436 153.81 288.526 153.9 288.586 154.08 288.616 154.17 288.616 154.26 288.586 154.32 288.556 154.38 288.526 154.44 288.466 154.5 288.406L154.8 288.736C154.65 288.946 154.44 289.036 154.11 289.066 153.57 289.066 153.3 288.826 153.27 288.406 153.3 288.076 153.51 287.866 153.84 287.806 154.11 287.806 154.26 287.746 154.26 287.626 154.26 287.566 154.26 287.536 154.23 287.506 154.17 287.476 154.14 287.476 154.05 287.476 153.96 287.476 153.84 287.506 153.75 287.536 153.66 287.566 153.6 287.626 153.51 287.716L153.15 287.356C153.36 287.116 153.66 286.996 154.05 286.996 154.53 286.996 154.83 287.236 154.83 287.656Z" fill-rule="evenodd"/><path transform="matrix(1,0,0,-1,0,595.276)" d="M142.8 298.006H146.46V299.116H142.8Z" fill-rule="evenodd"/><path transform="matrix(1,0,0,-1,0,595.276)" d="M126.09 298.456V298.096H127.53V295.246H127.89V297.166L128.4 296.776 128.85 296.356 129.15 296.626 128.55 297.136 127.89 297.556V298.096H129.51V298.456Z" fill-rule="evenodd"/><path transform="matrix(1,0,0,-1,0,595.276)" d="M130.77 297.586 131.13 297.346 131.55 297.886H132.36V297.076H130.71V296.746H132.36V295.276H132.72V296.746H134.13V297.076H132.72V297.886H133.86V298.216H131.76L131.94 298.486 132.03 298.516 132.06 298.576 132.03 298.606 131.94 298.636 131.67 298.756 131.25 298.096Z" fill-rule="evenodd"/><path transform="matrix(1,0,0,-1,0,595.276)" d="M120.09 285.046H117.63V283.666H120.09V285.046ZM118.02 284.506V284.746H119.7V284.506H118.02ZM118.02 283.936V284.206H119.7V283.936H118.02Z" fill-rule="evenodd"/><path transform="matrix(1,0,0,-1,0,595.276)" d="M118.17 283.486 117.78 283.606 117.51 283.156 117.12 282.676 117.48 282.466 117.84 282.976H118.77V282.646H117.78V282.376H118.77V282.076H117.15V281.776H120.51V282.076H119.13V282.376H120.15V282.676H119.13V282.976H120.33V283.276H119.13V283.456L119.19 283.516V283.546L119.16 283.576H119.1L118.77 283.606V283.276H117.99Z" fill-rule="evenodd"/><path transform="matrix(1,0,0,-1,0,595.276)" d="M121.77 284.626V284.326H122.13V282.856H121.71V282.556H123.66V282.856H123.36V284.326H123.63V284.626H123.36V284.926L123.39 284.986V285.016L123.36 285.076 123.3 285.106H123V284.626H122.46V284.956L122.52 284.986 122.55 285.046 122.49 285.076 122.4 285.106H122.13V284.626H121.77ZM122.46 283.426V283.756H123V283.426H122.46ZM122.46 282.856V283.156H123V282.856H122.46ZM122.46 283.996V284.326H123V283.996H122.46Z" fill-rule="evenodd"/><path transform="matrix(1,0,0,-1,0,595.276)" d="M121.77 281.866 122.07 281.656 122.37 281.986 122.61 282.346 122.28 282.526 122.04 282.136Z" fill-rule="evenodd"/><path transform="matrix(1,0,0,-1,0,595.276)" d="M123.81 285.046V283.546 283.006L123.75 282.556 123.63 282.196 123.48 281.926 123.78 281.686 123.93 281.956 124.02 282.256 124.11 282.556 124.14 282.886H124.71V282.166L124.65 282.076 124.5 282.046 124.23 282.016 124.41 281.716 124.77 281.746 124.89 281.806 124.95 281.896 125.01 282.016 125.04 282.196V285.046H123.81ZM124.14 283.186V283.816H124.71V283.186H124.14ZM124.14 284.116V284.746H124.71V284.116H124.14Z" fill-rule="evenodd"/><path transform="matrix(1,0,0,-1,0,595.276)" d="M123.06 282.526 122.82 282.316 123.03 282.046 123.18 281.746 123.48 281.956 123.3 282.256Z" fill-rule="evenodd"/><path transform="matrix(1,0,0,-1,0,595.276)" d="M128.16 285.136H127.89V284.356H126.36V283.996H129.78V284.356H128.28V284.986L128.34 285.046V285.076L128.28 285.106Z" fill-rule="evenodd"/><path transform="matrix(1,0,0,-1,0,595.276)" d="M127.56 283.486 127.32 283.576 127.29 283.306 127.23 283.066 127.14 282.826 127.02 282.616 126.87 282.406 126.72 282.226 126.51 282.076 126.3 281.896 126.63 281.686 126.99 281.956 127.29 282.316 127.5 282.766 127.68 283.306 127.74 283.336 127.77 283.366 127.68 283.426Z" fill-rule="evenodd"/><path transform="matrix(1,0,0,-1,0,595.276)" d="M128.76 283.516 128.4 283.456 128.55 282.886 128.79 282.376 129.09 281.986 129.48 281.656 129.87 281.956 129.45 282.256 129.12 282.616 128.88 283.036Z" fill-rule="evenodd"/><path transform="matrix(1,0,0,-1,0,595.276)" d="M131.28 284.926V284.626H131.94V284.146L131.91 283.726 131.85 283.306 131.73 282.976 131.58 282.646 131.4 282.376 131.19 282.166 130.92 281.956 131.25 281.686 131.58 282.016 131.85 282.406 132.03 282.796 132.18 283.246 132.3 283.006 132.45 282.766 132.63 282.556 132.84 282.376 132.36 282.136 131.85 282.016 132.09 281.686 132.6 281.896 133.08 282.166 133.56 281.926 134.1 281.686 134.43 282.046 133.86 282.196 133.35 282.436 133.59 282.766 133.77 283.126 133.95 283.486 134.07 283.906 133.77 284.086 133.71 283.996H133.29L133.71 284.836 133.38 285.016 133.32 284.926H131.28ZM132.3 284.626H133.17L132.75 283.606 133.08 283.516 133.17 283.696H133.62L133.53 283.366 133.38 283.066 133.23 282.826 133.05 282.616 132.78 282.856 132.57 283.126 132.42 283.396 132.33 283.696 132.3 284.626Z" fill-rule="evenodd"/><path transform="matrix(1,0,0,-1,0,595.276)" d="M136.65 284.566 136.38 284.596 136.29 284.236 136.11 283.906 135.84 283.606 135.51 283.366 135.81 283.126 136.14 283.396 136.41 283.696 136.59 284.026 136.74 284.416 136.83 284.446V284.506L136.77 284.536Z" fill-rule="evenodd"/><path transform="matrix(1,0,0,-1,0,595.276)" d="M137.25 283.726 136.98 283.846 136.68 282.976 136.32 282.226 135.81 282.196 135.87 281.836 135.9 281.746 135.96 281.686 135.99 281.716 136.05 281.806 138.24 282.046 138.45 281.686 138.81 281.896 138.63 282.226 138.42 282.526 138.18 282.856 137.91 283.156 137.64 282.946 138.09 282.346 136.74 282.256 137.28 283.516 137.37 283.576 137.4 283.606 137.34 283.666Z" fill-rule="evenodd"/><path transform="matrix(1,0,0,-1,0,595.276)" d="M136.77 284.986 136.8 284.686H137.58L137.67 284.296 137.88 283.906 138.24 283.516 138.72 283.126 139.11 283.396 138.84 283.546 138.6 283.726 138.42 283.936 138.24 284.116 138.12 284.326 138.03 284.536 137.97 284.776 137.94 284.986Z" fill-rule="evenodd"/><path transform="matrix(1,0,0,-1,0,595.276)" d="M140.49 285.046V284.026H143.37V285.046H140.49ZM140.82 284.326V284.746H141.36V284.326H140.82ZM141.63 284.326V284.746H142.17V284.326H141.63ZM142.5 284.326V284.746H143.04V284.326H142.5Z" fill-rule="evenodd"/><path transform="matrix(1,0,0,-1,0,595.276)" d="M140.58 283.696 140.79 283.426 141.78 283.516V281.686H142.11V283.546L142.98 283.696 143.07 283.666 143.13 283.696V283.726L143.07 283.786 142.83 283.996 141.72 283.816Z" fill-rule="evenodd"/><path transform="matrix(1,0,0,-1,0,595.276)" d="M141.06 283.366 140.91 283.036 140.76 282.796 140.58 282.556 140.4 282.406 140.22 282.256 140.46 282.016 140.76 282.286 140.97 282.556 141.42 282.046 141.72 282.226 141.42 282.526 141.15 282.886 141.3 283.096 141.36 283.126 141.39 283.156V283.186L141.33 283.246Z" fill-rule="evenodd"/><path transform="matrix(1,0,0,-1,0,595.276)" d="M142.74 283.366 142.65 283.006 142.56 282.766 142.44 282.556 142.32 282.406 142.17 282.256 142.41 282.016 142.65 282.316 142.83 282.616 143.01 282.346 143.28 282.016 143.58 282.256 143.37 282.376 143.22 282.556 143.1 282.766 142.98 283.006 143.04 283.186 143.1 283.246 143.13 283.276 143.1 283.306H143.04Z" fill-rule="evenodd"/><path transform="matrix(1,0,0,-1,0,595.276)" d="M145.74 284.986 145.5 285.106 145.35 284.716 145.2 284.326 144.99 283.936 144.75 283.546 144.99 283.306 145.23 283.696V281.716H145.56V284.356L145.77 284.836 145.83 284.866 145.86 284.896 145.83 284.956Z" fill-rule="evenodd"/><path transform="matrix(1,0,0,-1,0,595.276)" d="M145.89 284.896V281.686H146.25V282.316H146.85V282.616H146.25V283.036H146.85V283.336H146.25V283.756H146.94V284.896H145.89ZM146.25 284.086V284.626H146.58V284.086H146.25Z" fill-rule="evenodd"/><path transform="matrix(1,0,0,-1,0,595.276)" d="M147.15 284.926V284.626H147.81V284.056H147.15V283.756H148.17V284.926H148.14Z" fill-rule="evenodd"/><path transform="matrix(1,0,0,-1,0,595.276)" d="M147 283.516V283.216H147.84L147.75 282.886 147.57 282.556 147.45 282.796 147.36 283.126 147.06 283.096 147.21 282.616 147.39 282.316 147.15 282.136 146.76 281.986 146.97 281.716 147.3 281.866 147.6 282.106 147.87 281.866 148.14 281.716 148.35 281.986 148.08 282.136 147.81 282.316 148.05 282.826 148.23 283.366 148.02 283.576 147.93 283.516Z" fill-rule="evenodd"/><path transform="matrix(1,0,0,-1,0,595.276)" d="M149.52 284.626V284.326H149.91V282.856H149.49V282.556H151.44V282.856H151.11V284.326H151.41V284.626H151.11V284.926L151.17 284.986V285.016L151.14 285.076 151.05 285.106H150.78V284.626H150.21V284.956L150.3 284.986V285.046L150.27 285.076 150.18 285.106H149.91V284.626H149.52ZM150.21 283.426V283.756H150.78V283.426H150.21ZM150.21 282.856V283.156H150.78V282.856H150.21ZM150.21 283.996V284.326H150.78V283.996H150.21Z" fill-rule="evenodd"/><path transform="matrix(1,0,0,-1,0,595.276)" d="M149.55 281.866 149.85 281.656 150.12 281.986 150.36 282.346 150.03 282.526 149.79 282.136Z" fill-rule="evenodd"/><path transform="matrix(1,0,0,-1,0,595.276)" d="M151.59 285.046V283.546 283.006L151.53 282.556 151.41 282.196 151.23 281.926 151.56 281.686 151.68 281.956 151.8 282.256 151.86 282.556 151.89 282.886H152.46V282.166L152.4 282.076 152.25 282.046 152.01 282.016 152.16 281.716 152.52 281.746 152.64 281.806 152.73 281.896 152.76 282.016 152.79 282.196V285.046H151.59ZM151.92 283.186V283.816H152.46V283.186H151.92ZM151.92 284.116V284.746H152.46V284.116H151.92Z" fill-rule="evenodd"/><path transform="matrix(1,0,0,-1,0,595.276)" d="M150.81 282.526 150.6 282.316 150.78 282.046 150.93 281.746 151.23 281.956 151.05 282.256Z" fill-rule="evenodd"/><path transform="matrix(1,0,0,-1,0,595.276)" d="M153.99 283.606 154.26 283.366 154.47 283.666V281.716H154.8V284.296L155.1 284.896V284.626H155.43L155.37 284.146 155.28 283.696 155.1 283.336 154.92 283.036 155.22 282.796 155.37 283.066 155.76 282.796 155.58 282.556 155.4 282.376 155.16 282.196 154.92 282.076 155.16 281.806 155.46 281.956 155.7 282.136 155.91 282.346 156.06 282.616 156.21 282.916 156.3 283.276 156.33 283.636V284.086H155.7L155.79 284.626H156.39V284.926H155.16V284.986L155.1 285.016 154.83 285.166 154.65 284.716 154.44 284.326 154.23 283.936 153.99 283.606ZM155.64 283.756H156L155.91 283.126 155.49 283.336 155.64 283.756Z" fill-rule="evenodd"/><path transform="matrix(1,0,0,-1,0,595.276)" d="M156.54 284.656V282.436H156.87V284.506L156.93 284.596 156.87 284.656Z" fill-rule="evenodd"/><path transform="matrix(1,0,0,-1,0,595.276)" d="M157.17 285.106V282.346L157.14 282.196 157.11 282.106 157.05 282.046H156.96 156.63L156.75 281.686 157.17 281.746 157.32 281.776 157.41 281.866 157.47 282.016 157.5 282.196V284.926L157.56 284.956V285.016 285.046L157.5 285.076Z" fill-rule="evenodd"/><path transform="matrix(1,0,0,-1,0,595.276)" d="M159.78 285.106 159.54 285.136 159.45 284.656 159.27 284.176 159.03 283.786 158.7 283.426 159 283.126 159.39 283.636 159.63 284.146H160.2L160.11 283.696 159.99 283.276 159.57 283.576 159.3 283.306 159.6 283.156 159.84 282.946 159.66 282.676 159.42 282.436 159.12 282.226 158.76 282.076 159 281.716 159.3 281.836 159.57 282.016 159.81 282.256 160.02 282.556 160.23 282.886 160.41 283.336 160.53 283.816 160.65 284.356 160.41 284.566 160.29 284.476H159.75L159.87 284.896 159.96 284.986 159.99 285.016 159.9 285.076Z" fill-rule="evenodd"/><path transform="matrix(1,0,0,-1,0,595.276)" d="M161.34 285.106 161.13 285.136V283.666L160.89 283.936 160.65 283.726 160.89 283.426 161.13 283.186V281.686H161.49V282.886L162 282.616 162.3 282.976 161.85 283.156 161.49 283.366V284.926L161.58 285.016V285.046L161.49 285.076Z" fill-rule="evenodd"/></g></svg>