<?xml version='1.0' encoding='UTF-8'?>
<svg width="340.25" height="265.85" viewBox="113.29 1.84 340.25 265.85" xmlns="http://www.w3.org/2000/svg" xmlns:xlink="http://www.w3.org/1999/xlink" xmlns:inkscape="http://www.inkscape.org/namespaces/inkscape" version="1.1"><g transform="scale(10.0) translate(-329.439, -424.224)"><defs><clipPath id="clip_2"><path transform="matrix(1,0,0,-1,0,595.276)" d="M74.4 .196H767.4V595.276H74.4Z"/></clipPath></defs><path transform="matrix(1,0,0,-1,0,595.276)" d="M355.08 166.636H354.6V166.156H354.36V167.356H355.2V167.116H354.6V166.876H355.08Z" fill-rule="evenodd"/><path transform="matrix(1,0,0,-1,0,595.276)" d="M348.12 163.156H348.72V163.396H348.12V163.636H348.72V163.876H347.88V162.676H348.72V162.916H348.12Z" fill-rule="evenodd"/><path transform="matrix(1,0,0,-1,0,595.276)" d="M346.8 169.036V167.836H347.04V169.036Z" fill-rule="evenodd"/><path transform="matrix(1,0,0,-1,0,595.276)" d="M348.24 169.036 347.88 167.836H347.76 347.64L347.28 169.036H347.52L347.76 168.196 348 169.036Z" fill-rule="evenodd"/><path transform="matrix(1,0,0,-1,0,595.276)" d="M348.48 167.836H348.72V169.036H348.48Z" fill-rule="evenodd"/><path transform="matrix(1,0,0,-1,0,595.276)" d="M349.44 168.676V167.836H349.2V169.036H349.44L350.04 168.316V169.036H350.28V167.836H350.04Z" fill-rule="evenodd"/><path transform="matrix(1,0,0,-1,0,595.276)" d="M351.6 167.836H351.36V167.956C351.36 167.836 351.36 167.836 351.24 167.836H351.12C350.76 167.836 350.52 168.076 350.52 168.436 350.52 168.796 350.76 169.036 351.12 169.036 351.24 169.156 351.24 169.036 351.36 169.036 351.48 168.916 351.6 168.916 351.6 168.796L351.36 168.676C351.36 168.676 351.36 168.796 351.24 168.796H351.12C351 168.796 350.88 168.796 350.88 168.676 350.88 168.676 350.76 168.556 350.76 168.436 350.76 168.316 350.88 168.196 350.88 168.196 350.88 168.076 351 168.076 351.12 168.076 351.12 168.076 351.24 168.076 351.36 168.076V168.196 168.316H351.12V168.556H351.6V167.836Z" fill-rule="evenodd"/><path transform="matrix(1,0,0,-1,0,595.276)" d="M352.56 168.796V167.836H352.92V168.796H353.16V169.036H352.32V168.796Z" fill-rule="evenodd"/><path transform="matrix(1,0,0,-1,0,595.276)" d="M354.24 167.836H353.4V169.036H354.24V168.796H353.64V168.556H354.12V168.316H353.64V168.076H354.24Z" fill-rule="evenodd"/><path transform="matrix(1,0,0,-1,0,595.276)" d="M355.08 167.836C355.32 167.836 355.56 167.956 355.56 168.196 355.56 168.436 355.44 168.556 355.08 168.556 355.08 168.556 354.96 168.556 354.96 168.676H354.84C354.84 168.796 354.96 168.796 355.08 168.796H355.2C355.2 168.796 355.32 168.796 355.32 168.676L355.56 168.916C355.44 169.036 355.32 169.036 355.08 169.036 354.72 169.036 354.6 168.916 354.6 168.676 354.6 168.436 354.72 168.316 354.96 168.316 355.2 168.316 355.2 168.316 355.2 168.196 355.2 168.076 355.2 168.076 355.08 168.076 354.96 168.076 354.96 168.076 354.84 168.076L354.72 168.196 354.48 168.076C354.6 167.836 354.84 167.836 355.08 167.836Z" fill-rule="evenodd"/><path transform="matrix(1,0,0,-1,0,595.276)" d="M356.04 167.836H356.28V168.796H356.64V169.036H355.68V168.796H356.04Z" fill-rule="evenodd"/><path transform="matrix(1,0,0,-1,0,595.276)" d="M358.2 169.036 357.84 167.836H357.72 357.48L357.24 169.036H357.48L357.72 168.196 357.96 169.036Z" fill-rule="evenodd"/><path transform="matrix(1,0,0,-1,0,595.276)" d="M358.44 167.836H359.28V168.076H358.68V168.316H359.28V168.556H358.68V168.796H359.28V169.036H358.44Z" fill-rule="evenodd"/><path transform="matrix(1,0,0,-1,0,595.276)" d="M359.64 167.836H359.88V168.316H360.12 360.36V167.836H360.6V169.036H360.36V168.556H360.12 359.88V169.036H359.64Z" fill-rule="evenodd"/><path transform="matrix(1,0,0,-1,0,595.276)" d="M360.96 167.836H361.2V169.036H360.96Z" fill-rule="evenodd"/><path transform="matrix(1,0,0,-1,0,595.276)" d="M362.64 168.196C362.64 168.076 362.52 167.956 362.4 167.956 362.4 167.836 362.28 167.836 362.16 167.836 361.92 167.836 361.8 167.836 361.68 167.956 361.56 168.076 361.56 168.316 361.56 168.436 361.56 168.676 361.56 168.796 361.68 168.916 361.8 169.036 361.92 169.036 362.16 169.036 362.28 169.036 362.4 169.036 362.4 169.036 362.52 168.916 362.64 168.796 362.64 168.676L362.4 168.556C362.4 168.676 362.28 168.796 362.16 168.796 361.92 168.796 361.8 168.676 361.8 168.436 361.8 168.196 361.92 168.076 362.16 168.076H362.28L362.4 168.196V168.316L362.64 168.196Z" fill-rule="evenodd"/><path transform="matrix(1,0,0,-1,0,595.276)" d="M362.88 167.836H363.72V168.076H363.24V169.036H362.88Z" fill-rule="evenodd"/><path transform="matrix(1,0,0,-1,0,595.276)" d="M363.96 167.836H364.8V168.076H364.2V168.316H364.68V168.556H364.2V168.796H364.8V169.036H363.96Z" fill-rule="evenodd"/><path transform="matrix(1,0,0,-1,0,595.276)" d="M365.52 167.836C365.88 167.836 366 167.956 366 168.196 366 168.436 365.88 168.556 365.64 168.556 365.52 168.556 365.52 168.556 365.4 168.676 365.4 168.796 365.4 168.796 365.52 168.796 365.64 168.796 365.64 168.796 365.76 168.796 365.76 168.796 365.88 168.796 365.88 168.676L366 168.916C365.88 169.036 365.76 169.036 365.52 169.036 365.28 169.036 365.16 168.916 365.04 168.676 365.16 168.436 365.28 168.316 365.52 168.316 365.64 168.316 365.76 168.316 365.76 168.196 365.76 168.076 365.64 168.076 365.52 168.076H365.4C365.28 168.076 365.28 168.196 365.16 168.196L365.04 168.076C365.16 167.836 365.28 167.836 365.52 167.836Z" fill-rule="evenodd"/><path transform="matrix(1,0,0,-1,0,595.276)" d="M368.4 168.676V167.836H368.16V169.036H368.4L369 168.316V169.036H369.24V167.836H369Z" fill-rule="evenodd"/><path transform="matrix(1,0,0,-1,0,595.276)" d="M370.44 168.076V167.836H369.6V169.036H369.84V168.076Z" fill-rule="evenodd"/><path transform="matrix(1,0,0,-1,0,595.276)" d="M370.92 167.836H371.04 371.16V168.316L371.52 169.036H371.28L371.04 168.556 370.8 169.036H370.44L370.92 168.316Z" fill-rule="evenodd"/><path transform="matrix(1,0,0,-1,0,595.276)" d="M367.32 167.836C367.68 167.836 367.92 168.076 367.92 168.436 367.92 168.676 367.8 168.796 367.68 168.916 367.56 169.036 367.44 169.036 367.32 169.036 367.08 169.036 366.96 169.036 366.84 168.916 366.72 168.796 366.72 168.676 366.72 168.436 366.72 168.316 366.72 168.076 366.84 167.956 366.96 167.836 367.08 167.836 367.32 167.836ZM366.96 168.436C366.96 168.676 367.08 168.796 367.32 168.796 367.44 168.796 367.56 168.676 367.56 168.436 367.56 168.316 367.56 168.196 367.56 168.196 367.44 168.076 367.32 168.076 367.32 168.076 367.08 168.076 366.96 168.196 366.96 168.436Z" fill-rule="evenodd"/><path transform="matrix(1,0,0,-1,0,595.276)" d="M344.16 167.836H344.64C344.76 167.836 345 167.956 345 167.956 345.12 168.076 345.24 168.316 345.24 168.436 345.24 168.556 345.12 168.796 345 168.916 345 169.036 344.76 169.036 344.64 169.036H344.16V167.836ZM344.88 168.436C344.88 168.316 344.88 168.076 344.76 168.076H344.64 344.4V168.796H344.64 344.76C344.88 168.796 344.88 168.556 344.88 168.436Z" fill-rule="evenodd"/><path transform="matrix(1,0,0,-1,0,595.276)" d="M345.72 168.316V167.836H345.48V169.036H346.08C346.32 169.036 346.44 168.916 346.44 168.676 346.44 168.556 346.32 168.316 346.2 168.316L346.44 167.836H346.2L345.84 168.316H345.72ZM346.08 168.676V168.796H345.72V168.556H346.08V168.676Z" fill-rule="evenodd"/><path transform="matrix(1,0,0,-1,0,595.276)" d="M351.12 166.876V166.156H351.48V167.356H351.12L350.76 166.876 350.52 167.356H350.16V166.156H350.4V166.876L350.76 166.396Z" fill-rule="evenodd"/><path transform="matrix(1,0,0,-1,0,595.276)" d="M357.36 166.036C357.12 166.036 357 166.276 357 166.516 357 166.636 357 166.756 357.12 166.756 357 166.756 357 166.876 357 166.996 357 167.236 357.12 167.356 357.36 167.356 357.72 167.356 357.84 167.236 357.84 166.996 357.84 166.876 357.84 166.756 357.72 166.756 357.84 166.756 357.84 166.636 357.84 166.516 357.84 166.396 357.84 166.276 357.72 166.156 357.72 166.156 357.6 166.036 357.36 166.036ZM357.6 166.516C357.6 166.636 357.6 166.636 357.36 166.636 357.24 166.636 357.24 166.636 357.24 166.516 357.24 166.396 357.24 166.276 357.36 166.276 357.6 166.276 357.6 166.396 357.6 166.516ZM357.6 166.996C357.6 167.116 357.48 167.116 357.36 167.116H357.24V166.996 166.876H357.36C357.48 166.876 357.6 166.876 357.6 166.996Z" fill-rule="evenodd"/><path transform="matrix(1,0,0,-1,0,595.276)" d="M355.8 164.356C355.56 164.356 355.32 164.596 355.32 164.716 355.32 164.836 355.32 164.956 355.44 165.076 355.44 165.076 355.32 165.196 355.32 165.316 355.32 165.436 355.44 165.556 355.44 165.556 355.56 165.676 355.68 165.676 355.8 165.676 355.92 165.676 356.04 165.676 356.16 165.556 356.16 165.556 356.28 165.436 356.28 165.316 356.28 165.196 356.16 165.076 356.16 165.076 356.16 164.956 356.28 164.836 356.28 164.716 356.28 164.716 356.16 164.596 356.16 164.476 356.04 164.356 355.92 164.356 355.8 164.356ZM356.04 164.716C356.04 164.836 355.92 164.956 355.8 164.956 355.68 164.956 355.56 164.836 355.56 164.716 355.56 164.716 355.68 164.596 355.8 164.596 355.92 164.596 356.04 164.716 356.04 164.716ZM355.92 165.316V165.436H355.8C355.68 165.436 355.56 165.316 355.56 165.316 355.56 165.196 355.68 165.196 355.8 165.196H355.92V165.316Z" fill-rule="evenodd"/><path transform="matrix(1,0,0,-1,0,595.276)" d="M362.52 166.516C362.52 166.276 362.4 166.036 362.04 166.036 361.92 166.036 361.8 166.156 361.8 166.156 361.68 166.276 361.68 166.276 361.56 166.396L361.8 166.516C361.92 166.396 361.92 166.276 362.04 166.276 362.16 166.396 362.28 166.396 362.28 166.516 362.28 166.636 362.28 166.636 362.16 166.756H362.04C361.92 166.756 361.92 166.756 361.92 166.636H361.56L361.68 167.356H362.4V167.116H361.92V166.996H362.04C362.4 166.996 362.52 166.876 362.52 166.516Z" fill-rule="evenodd"/><path transform="matrix(1,0,0,-1,0,595.276)" d="M359.04 166.756H358.92V166.876C358.8 166.876 358.8 166.756 358.68 166.756H358.56V166.876C358.56 166.996 358.68 166.996 358.92 166.996 359.04 166.996 359.04 166.996 359.16 166.996 359.16 166.876 359.28 166.876 359.28 166.756V166.276 166.156C359.16 166.036 359.04 166.156 359.04 166.156 359.04 166.156 358.92 166.036 358.8 166.036 358.56 166.036 358.44 166.156 358.44 166.396 358.44 166.516 358.56 166.516 358.56 166.636 358.68 166.636 358.8 166.636 359.04 166.636V166.756ZM359.04 166.396V166.516C358.92 166.516 358.8 166.516 358.8 166.516 358.8 166.396 358.68 166.396 358.68 166.396L358.8 166.276H358.92L359.04 166.396Z" fill-rule="evenodd"/><path transform="matrix(1,0,0,-1,0,595.276)" d="M357.48 164.956V165.076H357.36 357.24C357.12 165.076 357.12 165.076 357.12 164.956L357 165.196C357 165.316 357.12 165.316 357.36 165.316 357.48 165.316 357.48 165.316 357.6 165.316 357.6 165.196 357.72 165.196 357.72 165.076V164.596H357.84L357.72 164.356C357.6 164.356 357.48 164.356 357.48 164.476 357.48 164.476 357.36 164.356 357.24 164.356 357.12 164.356 356.88 164.476 356.88 164.716 356.88 164.836 357 164.836 357.12 164.956 357.12 164.956 357.24 164.956 357.48 164.956ZM357.48 164.596V164.836C357.36 164.836 357.24 164.716 357.24 164.716V164.596H357.36 357.48Z" fill-rule="evenodd"/><path transform="matrix(1,0,0,-1,0,595.276)" d="M365.04 166.996C365.28 166.996 365.4 166.996 365.4 166.876V166.756 166.156H365.16V166.756H365.04C365.04 166.756 364.92 166.756 364.92 166.636V166.156H364.68V166.756H364.56C364.44 166.756 364.44 166.756 364.44 166.636V166.156H364.2V166.996H364.44 364.56C364.68 166.996 364.8 166.996 364.8 166.876 364.92 166.996 365.04 166.996 365.04 166.996Z" fill-rule="evenodd"/><path transform="matrix(1,0,0,-1,0,595.276)" d="M360.36 166.996C360.6 166.996 360.72 166.996 360.72 166.876V166.756 166.156H360.48V166.756H360.36C360.36 166.756 360.24 166.756 360.24 166.636V166.156H360V166.756H359.88C359.76 166.756 359.76 166.756 359.76 166.636V166.156H359.52V166.996H359.76 359.88C360 166.996 360.12 166.996 360.12 166.876 360.24 166.996 360.36 166.996 360.36 166.996Z" fill-rule="evenodd"/><path transform="matrix(1,0,0,-1,0,595.276)" d="M358.92 165.316C359.04 165.316 359.16 165.196 359.16 165.076V164.356H358.92V164.956 165.076H358.8C358.8 165.076 358.68 165.076 358.68 164.956V164.356H358.44V164.956C358.44 165.076 358.44 165.076 358.32 165.076 358.32 165.076 358.2 165.076 358.2 164.956V164.356H357.96V165.316H358.2V165.196C358.2 165.316 358.2 165.316 358.32 165.316H358.44C358.56 165.316 358.56 165.316 358.56 165.196 358.68 165.316 358.8 165.316 358.92 165.316Z" fill-rule="evenodd"/><path transform="matrix(1,0,0,-1,0,595.276)" d="M363.12 165.316C363.36 165.316 363.48 165.196 363.48 165.076V164.356H363.24V164.956 165.076H363.12C363.12 165.076 363 165.076 363 164.956V164.356H362.76V164.956C362.76 165.076 362.64 165.076 362.64 165.076 362.52 165.076 362.52 165.076 362.52 164.956V164.356H362.28V165.316H362.52V165.196 165.316H362.64C362.76 165.316 362.88 165.316 362.88 165.196 363 165.316 363 165.316 363.12 165.316Z" fill-rule="evenodd"/><path transform="matrix(1,0,0,-1,0,595.276)" d="M363.96 166.516C363.96 166.276 363.84 166.036 363.6 166.036 363.48 166.036 363.36 166.156 363.36 166.156V165.796H363.12V166.996H363.36C363.36 166.996 363.48 166.996 363.6 166.996 363.84 166.996 363.96 166.876 363.96 166.516ZM363.36 166.636V166.516 166.396H363.48C363.48 166.276 363.48 166.276 363.6 166.276L363.72 166.396V166.516 166.636 166.756L363.6 166.876C363.48 166.756 363.36 166.756 363.36 166.636Z" fill-rule="evenodd"/><path transform="matrix(1,0,0,-1,0,595.276)" d="M362.04 164.836C362.04 164.716 362.04 164.596 361.92 164.476 361.92 164.356 361.8 164.356 361.68 164.356 361.56 164.356 361.44 164.356 361.44 164.476V164.116H361.2V165.316H361.44V165.196C361.44 165.316 361.56 165.316 361.68 165.316 361.8 165.316 361.92 165.316 361.92 165.196 362.04 165.076 362.04 164.956 362.04 164.836ZM361.44 164.956V164.716L361.56 164.596H361.68C361.68 164.596 361.8 164.596 361.8 164.716V164.956C361.8 165.076 361.68 165.076 361.68 165.076 361.56 165.076 361.44 165.076 361.44 164.956Z" fill-rule="evenodd"/><path transform="matrix(1,0,0,-1,0,595.276)" d="M360.96 162.676H361.2V163.156H361.44 361.68V162.676H361.92V163.876H361.68V163.396H361.44 361.2V163.876H360.96Z" fill-rule="evenodd"/><path transform="matrix(1,0,0,-1,0,595.276)" d="M352.56 164.356C352.92 164.356 353.04 164.476 353.04 164.716 353.04 164.956 352.92 165.076 352.68 165.196 352.56 165.196 352.44 165.196 352.44 165.196V165.316C352.44 165.316 352.44 165.436 352.56 165.436 352.68 165.436 352.68 165.436 352.68 165.316 352.8 165.316 352.8 165.316 352.92 165.316L353.04 165.436C352.92 165.556 352.8 165.676 352.56 165.676 352.32 165.676 352.08 165.556 352.08 165.316 352.08 165.076 352.2 164.956 352.44 164.956 352.68 164.836 352.8 164.836 352.8 164.716 352.8 164.716 352.68 164.596 352.56 164.596H352.44C352.32 164.716 352.32 164.716 352.2 164.716L351.96 164.596C352.08 164.476 352.32 164.356 352.56 164.356Z" fill-rule="evenodd"/><path transform="matrix(1,0,0,-1,0,595.276)" d="M349.8 163.516 349.56 163.156 349.8 162.676H349.56L349.32 162.916 349.2 162.676H348.96L349.2 163.156 348.96 163.516H349.2L349.32 163.276 349.44 163.516Z" fill-rule="evenodd"/><path transform="matrix(1,0,0,-1,0,595.276)" d="M350.52 163.036C350.52 162.916 350.4 162.916 350.28 162.916 350.28 162.916 350.16 162.916 350.16 163.036V163.156C350.16 163.276 350.28 163.396 350.28 163.396H350.4L350.52 163.276H350.76C350.64 163.516 350.52 163.636 350.28 163.636 350.04 163.636 349.92 163.396 349.92 163.156 349.92 162.796 350.04 162.676 350.28 162.676 350.4 162.676 350.52 162.676 350.52 162.676 350.64 162.796 350.64 162.796 350.76 162.916L350.52 163.036Z" fill-rule="evenodd"/><path transform="matrix(1,0,0,-1,0,595.276)" d="M353.04 166.756C353.04 166.756 352.92 166.756 352.92 166.636V166.156H352.68V166.996H352.92 353.04 353.16C353.4 166.996 353.4 166.876 353.52 166.756V166.156H353.16V166.636C353.16 166.756 353.16 166.756 353.04 166.756Z" fill-rule="evenodd"/><path transform="matrix(1,0,0,-1,0,595.276)" d="M354.12 166.516V166.396H353.64V166.516Z" fill-rule="evenodd"/><path transform="matrix(1,0,0,-1,0,595.276)" d="M354.6 165.076V164.716 164.596H354.72L354.84 164.356C354.72 164.356 354.72 164.356 354.6 164.356 354.48 164.356 354.48 164.356 354.36 164.476V164.596 165.076H354.12V165.316H354.36V165.556L354.6 165.676V165.316H354.72V165.076H354.6Z" fill-rule="evenodd"/><path transform="matrix(1,0,0,-1,0,595.276)" d="M360.24 165.316V164.356H360.48V165.556H360.24C360.12 165.556 360.12 165.436 360 165.436V165.316H360.24Z" fill-rule="evenodd"/><path transform="matrix(1,0,0,-1,0,595.276)" d="M359.88 164.596H359.4V164.836H359.88Z" fill-rule="evenodd"/><path transform="matrix(1,0,0,-1,0,595.276)" d="M360.12 163.876V162.916H360.24V162.676H360.12C360 162.676 359.88 162.676 359.88 162.796V162.916 163.876H360.12Z" fill-rule="evenodd"/><path transform="matrix(1,0,0,-1,0,595.276)" d="M356.28 166.996V166.156H356.04V166.996Z" fill-rule="evenodd"/><path transform="matrix(1,0,0,-1,0,595.276)" d="M355.56 166.636V166.156H355.32V166.996H355.56V166.876C355.56 166.996 355.68 166.996 355.68 166.996 355.68 166.996 355.8 166.996 355.92 166.996V166.756C355.8 166.756 355.68 166.756 355.68 166.756L355.56 166.636Z" fill-rule="evenodd"/><path transform="matrix(1,0,0,-1,0,595.276)" d="M361.32 166.516H360.96V166.396H361.32Z" fill-rule="evenodd"/><path transform="matrix(1,0,0,-1,0,595.276)" d="M366.36 163.516 366.6 163.036 366.72 163.516H366.96L366.6 162.556V162.436H366.48 366.36 366.24V162.676L366.36 162.556V162.676 162.796L366.12 163.516H366.36Z" fill-rule="evenodd"/><path transform="matrix(1,0,0,-1,0,595.276)" stroke-width=".12" stroke-linecap="butt" stroke-miterlimit="10" stroke-linejoin="miter" fill="none" stroke="#000000" d="M354.5 162.5V162.5"/><path transform="matrix(1,0,0,-1,0,595.276)" d="M354.48 162.676V162.676C354.12 162.676 354 162.916 354 163.276 354 163.636 354.12 163.996 354.48 163.996 354.72 163.996 354.96 163.876 354.96 163.636L354.84 163.516 354.72 163.636C354.6 163.636 354.6 163.636 354.48 163.636 354.36 163.636 354.36 163.636 354.24 163.636 354.24 163.516 354.24 163.396 354.24 163.276 354.24 163.156 354.24 163.036 354.24 163.036 354.36 162.916 354.36 162.916 354.48 162.916 354.6 162.916 354.6 162.916 354.72 163.036L354.84 163.156H354.48V163.396H355.08V162.676H354.84V162.796L354.72 162.676C354.6 162.676 354.6 162.676 354.48 162.676Z" fill-rule="evenodd"/><path transform="matrix(1,0,0,-1,0,595.276)" d="M360.96 161.236H353.52V160.636H360.96L360.36 160.156H361.2L362.16 160.996 361.2 161.836H360.36Z" fill-rule="evenodd"/><path transform="matrix(1,0,0,-1,0,595.276)" d="M356.28 167.236C356.28 167.236 356.28 167.356 356.16 167.356 356.04 167.356 356.04 167.236 356.04 167.236 356.04 167.116 356.04 167.116 356.16 167.116 356.28 167.116 356.28 167.116 356.28 167.236Z" fill-rule="evenodd"/><path transform="matrix(1,0,0,-1,0,595.276)" d="M367.8 162.916C367.8 163.156 367.68 163.276 367.56 163.276H367.44 367.32C367.32 163.396 367.32 163.396 367.44 163.396H367.56L367.68 163.276 367.8 163.516C367.68 163.516 367.68 163.636 367.44 163.636 367.2 163.636 367.08 163.516 367.08 163.276 367.08 163.156 367.2 163.036 367.32 163.036 367.44 163.036 367.56 163.036 367.56 162.916H367.44 367.32C367.32 162.916 367.2 162.916 367.2 163.036L367.08 162.796C367.08 162.676 367.32 162.676 367.44 162.676 367.68 162.676 367.8 162.796 367.8 162.916Z" fill-rule="evenodd"/><path transform="matrix(1,0,0,-1,0,595.276)" d="M353.76 164.956C353.4 164.956 353.28 164.836 353.28 164.716 353.28 164.476 353.4 164.356 353.64 164.356L353.76 164.476 353.88 164.356H354L354.12 164.596H354V165.076C354 165.196 353.88 165.316 353.64 165.316 353.52 165.316 353.52 165.316 353.4 165.316L353.28 165.196 353.4 164.956C353.4 165.076 353.52 165.076 353.64 165.076H353.76V164.956ZM353.76 164.836V164.596H353.64 353.52V164.716C353.52 164.716 353.52 164.836 353.76 164.836Z" fill-rule="evenodd"/><path transform="matrix(1,0,0,-1,0,595.276)" d="M351.84 162.436V163.516H352.08L352.2 163.636C352.44 163.636 352.68 163.396 352.68 163.156 352.68 162.796 352.44 162.676 352.2 162.676H352.08V162.436H351.84ZM352.2 162.916C352.32 162.916 352.32 162.916 352.44 163.036V163.276C352.32 163.396 352.32 163.396 352.2 163.396 352.08 163.396 352.08 163.276 352.08 163.276V163.036 162.916H352.2Z" fill-rule="evenodd"/><path transform="matrix(1,0,0,-1,0,595.276)" d="M351.6 162.796C351.6 162.676 351.36 162.676 351.24 162.676 351.12 162.676 351 162.676 350.88 162.796 350.88 162.916 350.76 163.036 350.76 163.156 350.88 163.396 351 163.636 351.24 163.636 351.36 163.636 351.48 163.516 351.48 163.396 351.6 163.396 351.6 163.276 351.6 163.036H351.12V162.916H351.24 351.36 351.48L351.6 162.796ZM351 163.276H351.36L351.24 163.396C351.24 163.396 351.12 163.396 351.12 163.276H351Z" fill-rule="evenodd"/><path transform="matrix(1,0,0,-1,0,595.276)" d="M351.72 166.516C351.72 166.276 351.84 166.036 352.08 166.036 352.32 166.036 352.56 166.276 352.56 166.516 352.56 166.876 352.32 166.996 352.08 166.996 351.84 166.996 351.72 166.876 351.72 166.516ZM352.32 166.516 352.2 166.396C352.2 166.396 352.2 166.276 352.08 166.276 351.96 166.276 351.96 166.396 351.96 166.516 351.96 166.636 351.96 166.636 351.96 166.756H352.08C352.2 166.756 352.32 166.756 352.32 166.516Z" fill-rule="evenodd"/><path transform="matrix(1,0,0,-1,0,595.276)" d="M364.8 163.516V163.876H365.04V162.676H364.8C364.8 162.676 364.68 162.676 364.56 162.676 364.32 162.676 364.2 162.796 364.2 163.036V163.156C364.2 163.396 364.32 163.516 364.56 163.636 364.68 163.636 364.68 163.516 364.8 163.516ZM364.44 163.156C364.44 162.916 364.44 162.916 364.56 162.916H364.68C364.8 162.916 364.8 162.916 364.8 163.036V163.156 163.276C364.68 163.396 364.68 163.396 364.56 163.396 364.56 163.396 364.56 163.276 364.44 163.276V163.156Z" fill-rule="evenodd"/><path transform="matrix(1,0,0,-1,0,595.276)" d="M362.16 163.156C362.16 162.796 362.28 162.676 362.64 162.676 362.76 162.676 362.88 162.676 362.88 162.796 363 162.916 363 163.036 363 163.156 363 163.276 363 163.396 362.88 163.516 362.88 163.516 362.76 163.636 362.64 163.636 362.52 163.636 362.4 163.516 362.28 163.516 362.16 163.396 362.16 163.276 362.16 163.156ZM362.76 163.156C362.76 163.036 362.76 163.036 362.76 162.916H362.64C362.52 162.916 362.4 163.036 362.4 163.156 362.4 163.276 362.52 163.396 362.64 163.396 362.76 163.396 362.76 163.276 362.76 163.156Z" fill-rule="evenodd"/><path transform="matrix(1,0,0,-1,0,595.276)" d="M356.04 162.796C356.04 162.676 355.8 162.676 355.68 162.676 355.56 162.676 355.44 162.676 355.32 162.796 355.32 162.916 355.32 163.036 355.32 163.156 355.32 163.396 355.44 163.636 355.68 163.636 355.8 163.636 355.92 163.516 356.04 163.396 356.04 163.396 356.04 163.276 356.04 163.036H355.56V162.916H355.68C355.8 162.916 355.92 162.916 355.92 162.916L356.04 162.796ZM355.56 163.276H355.8C355.8 163.276 355.8 163.396 355.68 163.396 355.68 163.396 355.56 163.396 355.56 163.276Z" fill-rule="evenodd"/><path transform="matrix(1,0,0,-1,0,595.276)" d="M358.08 162.796C357.96 162.676 357.84 162.676 357.72 162.676 357.6 162.676 357.48 162.676 357.36 162.796 357.24 162.916 357.24 163.036 357.24 163.156 357.24 163.396 357.36 163.636 357.6 163.636 357.84 163.636 357.84 163.516 357.96 163.396 358.08 163.396 358.08 163.276 358.08 163.036H357.48C357.48 163.036 357.48 162.916 357.6 162.916H357.72 357.84L358.08 162.796ZM357.48 163.276H357.84C357.84 163.276 357.72 163.396 357.6 163.396V163.276H357.48Z" fill-rule="evenodd"/><path transform="matrix(1,0,0,-1,0,595.276)" d="M359.4 163.276C359.04 163.276 358.8 163.156 358.8 162.916 358.8 162.796 358.92 162.676 359.16 162.676 359.28 162.676 359.4 162.676 359.4 162.796 359.4 162.676 359.4 162.676 359.52 162.676H359.64L359.76 162.796C359.64 162.796 359.64 162.796 359.64 162.916V163.396C359.64 163.516 359.52 163.636 359.28 163.636 359.16 163.636 359.04 163.636 359.04 163.516H358.92L359.04 163.276C359.04 163.396 359.16 163.396 359.28 163.396 359.4 163.396 359.4 163.396 359.4 163.276ZM359.4 163.036V162.916H359.28 359.16C359.16 163.036 359.16 163.036 359.4 163.036Z" fill-rule="evenodd"/><path transform="matrix(1,0,0,-1,0,595.276)" d="M365.76 163.276C365.4 163.276 365.16 163.156 365.16 162.916L365.28 162.796C365.4 162.676 365.4 162.676 365.52 162.676 365.64 162.676 365.76 162.676 365.76 162.796 365.76 162.676 365.76 162.676 365.88 162.676H366V162.796 162.916 163.396C366 163.516 365.76 163.636 365.64 163.636 365.52 163.636 365.4 163.636 365.4 163.516H365.28V163.276C365.4 163.396 365.52 163.396 365.64 163.396 365.64 163.396 365.76 163.396 365.76 163.276ZM365.76 163.036V162.916H365.64 365.52 365.4C365.4 163.036 365.52 163.036 365.76 163.036Z" fill-rule="evenodd"/><path transform="matrix(1,0,0,-1,0,595.276)" d="M358.44 163.156V162.676H358.2V163.516H358.44 358.56C358.56 163.636 358.68 163.636 358.8 163.636V163.396C358.68 163.396 358.56 163.276 358.56 163.276 358.56 163.276 358.44 163.276 358.44 163.156Z" fill-rule="evenodd"/><path transform="matrix(1,0,0,-1,0,595.276)" d="M353.16 163.396V162.916H353.28 353.4V162.676C353.4 162.676 353.28 162.676 353.16 162.676 353.04 162.676 353.04 162.676 352.92 162.676 352.92 162.796 352.92 162.796 352.92 162.916V163.396H352.8V163.516H352.92V163.876H353.16V163.516H353.4V163.396H353.16Z" fill-rule="evenodd"/><path transform="matrix(1,0,0,-1,0,595.276)" d="M356.64 163.396C356.52 163.396 356.52 163.276 356.52 163.276V162.676H356.28V163.516H356.52V163.636H356.64C356.88 163.636 357 163.516 357 163.276V162.676H356.76V163.156 163.276C356.76 163.276 356.76 163.396 356.64 163.396Z" fill-rule="evenodd"/><path transform="matrix(1,0,0,-1,0,595.276)" d="M363.96 163.516V162.676H363.72V163.516Z" fill-rule="evenodd"/><path transform="matrix(1,0,0,-1,0,595.276)" d="M364.08 163.756C364.08 163.876 363.96 163.876 363.84 163.876 363.84 163.876 363.72 163.876 363.72 163.756L363.84 163.636C363.96 163.636 364.08 163.756 364.08 163.756Z" fill-rule="evenodd"/><path transform="matrix(1,0,0,-1,0,595.276)" d="M363.36 163.876V162.916C363.48 162.916 363.48 162.916 363.6 162.916V162.676H363.48 363.36C363.24 162.676 363.24 162.676 363.12 162.796V162.916 163.876H363.36Z" fill-rule="evenodd"/><path transform="matrix(1,0,0,-1,0,595.276)" d="M357 151.756 357.12 151.876 357.24 152.116V152.236L357.36 152.356V152.596L357.48 152.716V152.956 153.196 153.316H357.36V153.076L357.24 152.836V152.596 152.476L357.12 152.236 357 152.116V151.996L356.88 151.876V151.756Z" fill-rule="evenodd"/><path transform="matrix(1,0,0,-1,0,595.276)" d="M358.56 151.996 358.68 151.876H358.8L358.68 152.116 358.56 152.236 358.44 152.476V152.596L358.32 152.836V153.076L358.2 153.316V153.676H357.6V153.556H358.08V153.196L358.2 152.956V152.716 152.596L358.32 152.356 358.44 152.116Z" fill-rule="evenodd"/><path transform="matrix(1,0,0,-1,0,595.276)" d="M354 149.476H354.84L354.72 149.236V149.116H354.6 354.36V148.996H354.72 354.84V149.116L354.96 149.356V149.596H354L354.12 149.716H354.6L355.08 149.836 354.96 149.956 354.6 149.836H354.12L354.36 149.956 354.6 150.196H355.32V150.316H354.72L354.96 150.436 355.08 150.676 355.2 150.796H355.08L354.84 150.556 354.6 150.316H354.36V150.556H354.84V150.676H354.36V150.916H354.24V150.676H353.64V150.556H354.24V150.316H353.28V150.196H354.36L354.24 150.076 353.88 149.956 353.64 149.836 353.28 149.716 353.4 149.596 354 149.716 353.76 149.356H353.88Z" fill-rule="evenodd"/><path transform="matrix(1,0,0,-1,0,595.276)" d="M348.6 150.076V149.596 149.356L348.72 149.236V149.596 150.076H348.84 348.72Z" fill-rule="evenodd"/><path transform="matrix(1,0,0,-1,0,595.276)" d="M349.32 150.796H348.6 349.32Z" fill-rule="evenodd"/><path transform="matrix(1,0,0,-1,0,595.276)" d="M348.96 150.316H348.6V150.436H349.32V150.316H349.08V148.996H348.96Z" fill-rule="evenodd"/><path transform="matrix(1,0,0,-1,0,595.276)" d="M349.32 150.076V149.716 149.356H349.2V149.716 150.076Z" fill-rule="evenodd"/><path transform="matrix(1,0,0,-1,0,595.276)" d="M351.12 149.116V149.116L351.24 149.476 351.48 149.836 351.36 149.956 351.12 149.476 350.88 149.236 351 149.116Z" fill-rule="evenodd"/><path transform="matrix(1,0,0,-1,0,595.276)" d="M351.48 150.556 351 150.796V150.676L351.12 150.556 351.36 150.436Z" fill-rule="evenodd"/><path transform="matrix(1,0,0,-1,0,595.276)" d="M355.68 148.996V148.996H355.8L355.92 149.356V149.716H356.28V148.996H356.4V149.836H355.92V150.196H356.52V150.316H356.4V150.796 150.916H356.28V150.316H355.92V150.796L356.04 150.916H355.92 355.8V150.076 149.476L355.68 148.996Z" fill-rule="evenodd"/><path transform="matrix(1,0,0,-1,0,595.276)" d="M357.84 157.996V157.516H358.8V157.396H356.88V157.516H357.72V157.996H357V158.116H357.72V158.356H357.84 357.96L357.84 158.236V158.116H358.56V157.996Z" fill-rule="evenodd"/><path transform="matrix(1,0,0,-1,0,595.276)" d="M356.88 159.076H357.6L357.24 158.596H357V158.476 158.356H357.12L358.44 158.596 358.56 158.356H358.68L358.56 158.716 358.32 158.956H358.2L358.44 158.716 357.36 158.596 357.72 159.076H358.68V159.196H356.88Z" fill-rule="evenodd"/><path transform="matrix(1,0,0,-1,0,595.276)" d="M350.28 150.916H350.4V150.796H350.04V150.196H350.4V150.076H350.04L350.16 149.836V149.596 149.356L350.28 149.236 350.4 149.116V149.236L350.52 149.356V149.476 149.356 149.116L350.4 148.996H350.28L350.16 149.116 350.04 149.356V149.716L349.92 150.076H349.68V149.236L350.04 149.356V149.236L349.44 148.996H349.32V149.116L349.56 149.236V150.796H349.68L349.92 150.916H350.16 350.28ZM349.68 150.196H349.92V150.676H349.68V150.196Z" fill-rule="evenodd"/><path transform="matrix(1,0,0,-1,0,595.276)" d="M352.44 149.956H352.8V150.076H352.44V150.436H352.92V150.556H352.44L352.56 150.796V150.916H352.44L352.32 150.556H351.84L351.96 150.796 352.08 150.916H351.96 351.84V150.676L351.72 150.556 351.6 150.316 351.48 150.196V150.076H351.6L351.72 150.316V148.996 148.876H351.84V148.996 149.116H352.92V149.236H352.44V149.596H352.8V149.716H352.44V149.956ZM352.2 149.596H352.32V149.236H352.2 351.84V149.596H352.2ZM351.84 149.716V149.956H352.2 352.32V149.716H352.2 351.84ZM352.2 150.436H352.32V150.076H352.2 351.84V150.436H352.2Z" fill-rule="evenodd"/><path transform="matrix(1,0,0,-1,0,595.276)" d="M356.52 149.356H357.24V148.996H357.36V149.356H357.6V149.476H357.36V149.836H357.6V150.796H357.12V150.916H357.24 357.12 357L356.88 150.796H356.52V149.836H356.88L356.76 149.716 356.64 149.596H356.76V149.476L356.88 149.596 357 149.716V149.836H357.24V149.476H356.52V149.356ZM357.36 150.316V149.956H357.12V150.316H357.36ZM357.12 150.676H357.36V150.436H357.12V150.676ZM356.76 150.676H357V150.436H356.76V150.676ZM356.76 149.956V150.316H357V149.956H356.76Z" fill-rule="evenodd"/><path transform="matrix(1,0,0,-1,0,595.276)" d="M353.52 147.436H353.28V147.316H353.88L353.64 147.076 353.4 146.956V146.836L353.76 147.076 354.12 147.316H354.36L354.24 147.196 354.12 147.076 354 146.956 353.76 146.836 353.88 146.716 354.24 146.956V146.116H354.36V147.076L354.48 147.316H355.2V147.436H354.96V147.916H354.24L354.36 148.036V148.156H354.24L354 147.916H353.52V147.436ZM354.6 147.436V147.796H354.84V147.436H354.6ZM354.12 147.436V147.796H354.36V147.436H354.12ZM353.64 147.436V147.796H354V147.436H353.64Z" fill-rule="evenodd"/><path transform="matrix(1,0,0,-1,0,595.276)" d="M359.04 149.356H360 359.04V149.476 149.596H359.64V150.436H359.04V150.556H359.88V150.676H359.04V150.916H359.16 359.04 358.92V150.676H358.2V150.556H358.92V150.436H358.32V149.596H358.92V149.476 149.356H358.08 358.92V149.236 148.996H359.04V149.236 149.356ZM359.04 149.716V149.956H359.52V149.716H359.04ZM358.92 150.076H358.44V150.316H358.92V150.076ZM358.44 149.716V149.716 149.956H358.92V149.716H358.44ZM359.04 150.076V150.076 150.316H359.52V150.076H359.04Z" fill-rule="evenodd"/><path transform="matrix(1,0,0,-1,0,595.276)" d="M361.2 156.316V154.516H361.44V155.716L361.68 155.476 361.92 155.356H362.04L361.8 155.596 361.44 155.836V156.316H362.28V156.436H360.36V156.316Z" fill-rule="evenodd"/><path transform="matrix(1,0,0,-1,0,595.276)" d="M365.4 149.116 365.52 149.476 365.76 149.716 365.64 149.956 365.4 149.476 365.16 149.116 365.28 148.996Z" fill-rule="evenodd"/><path transform="matrix(1,0,0,-1,0,595.276)" d="M365.52 150.076 365.4 150.196 365.16 150.316V150.196L365.28 150.076 365.52 149.956Z" fill-rule="evenodd"/><path transform="matrix(1,0,0,-1,0,595.276)" d="M365.28 150.796 365.4 150.676 365.64 150.556V150.676L365.52 150.796 365.4 150.916Z" fill-rule="evenodd"/><path transform="matrix(1,0,0,-1,0,595.276)" d="M363.84 148.996H363.96 364.08V149.116 149.236 149.476H364.44V149.596H363.6V149.476H363.96V149.116H363.84 363.72V148.996H363.84Z" fill-rule="evenodd"/><path transform="matrix(1,0,0,-1,0,595.276)" d="M364.56 149.716V149.476H364.68V149.836 149.956H363.36V149.836 149.476H363.48V149.716 149.836H364.56Z" fill-rule="evenodd"/><path transform="matrix(1,0,0,-1,0,595.276)" d="M364.68 150.676V150.556H363.36V150.676H363.96V150.916H364.08V150.676H364.68Z" fill-rule="evenodd"/><path transform="matrix(1,0,0,-1,0,595.276)" d="M363 150.196V148.996H363.12V150.436 150.556L363.36 150.796V150.916H363.24L363.12 150.676 363 150.436 362.88 150.196 362.76 149.956H362.88Z" fill-rule="evenodd"/><path transform="matrix(1,0,0,-1,0,595.276)" d="M355.8 147.676 355.68 147.436 355.56 147.196 355.68 147.076 355.92 147.316V146.116H356.04V147.676L356.16 148.036H356.28 356.16V148.156H356.04L355.92 147.916Z" fill-rule="evenodd"/><path transform="matrix(1,0,0,-1,0,595.276)" d="M357.36 147.916V147.436H357V147.316H357.48V148.036H357V147.916Z" fill-rule="evenodd"/><path transform="matrix(1,0,0,-1,0,595.276)" d="M360.48 147.916V146.116H360.36V148.036H360.84 360.96 361.08L360.72 147.436 360.84 147.196 360.96 147.076V146.836 146.716 146.596H360.84V146.476H360.72 360.6V146.596H360.72V146.716H360.84V146.836 146.956L360.72 147.196V147.316L360.6 147.436 360.84 147.916H360.48Z" fill-rule="evenodd"/><path transform="matrix(1,0,0,-1,0,595.276)" d="M361.32 147.676 361.56 147.916 361.68 147.796 361.92 147.676 362.04 147.556 362.16 147.436 362.28 147.556 362.04 147.676 361.92 147.796 361.8 147.916 361.68 148.036H361.8V148.156H361.68 361.56L361.44 148.036 361.32 147.796 361.2 147.676 361.08 147.556H360.96V147.436H361.08Z" fill-rule="evenodd"/><path transform="matrix(1,0,0,-1,0,595.276)" d="M361.56 146.476V146.476 146.356H361.44 361.32V146.236H361.44 361.56 361.68V146.356 146.476 146.956H362.16V147.076H361.68V147.316 147.436H362.04 361.2 361.56V147.316 147.076H361.08V146.956H361.56Z" fill-rule="evenodd"/><path transform="matrix(1,0,0,-1,0,595.276)" d="M364.08 147.196V146.236H364.2V147.076L364.44 146.956 364.68 146.836V146.956L364.44 147.076 364.2 147.196V148.156H364.32 364.2 364.08V147.316L363.96 147.556 363.84 147.436Z" fill-rule="evenodd"/><path transform="matrix(1,0,0,-1,0,595.276)" d="M366.84 149.116V148.996H366.96 367.08V150.556H366.96 366.36L366.48 150.796H366.6V150.916H366.48L366.36 150.676 366.24 150.556H365.88V148.996H366V149.116 149.236H366.84V149.116ZM366 149.956V149.956 150.436H366.84V149.956H366ZM366 149.836H366.84V149.356H366V149.836Z" fill-rule="evenodd"/><path transform="matrix(1,0,0,-1,0,595.276)" d="M363.36 146.956 363.24 146.716 363.12 146.596 362.88 146.476 362.76 146.236H362.88L363 146.356 363.24 146.476 363.36 146.716 363.48 146.836 363.6 147.316 363.72 147.676V147.796 147.916H363.6 363.24L363.36 148.036V148.156H363.24L363.12 147.916 363 147.556 362.88 147.316 362.76 147.076H362.88L363 147.196 363.36 146.956ZM363.6 147.796V147.436L363.48 147.076 363 147.316 363.24 147.796H363.6Z" fill-rule="evenodd"/><path transform="matrix(1,0,0,-1,0,595.276)" d="M364.44 150.076V150.436H363.6V150.076H364.44ZM363.72 150.196V150.196 150.316H364.32V150.196H363.72Z" fill-rule="evenodd"/><path transform="matrix(1,0,0,-1,0,595.276)" d="M356.76 146.476H356.4V146.116H356.28V148.036H356.88V147.316H356.4V147.076H356.76V146.956H356.4V146.596H356.76V146.476ZM356.76 147.436V147.916H356.4V147.436H356.76Z" fill-rule="evenodd"/><path transform="matrix(1,0,0,-1,0,595.276)" d="M359.76 146.476V146.476 146.356H359.64 359.52V146.236H359.64 359.76 359.88V146.356 146.476 148.036H359.28V147.556 146.956L359.16 146.596V146.356 146.236H359.28V146.476L359.4 146.836H359.76V146.476ZM359.4 147.436H359.76V146.956H359.4V147.436ZM359.4 147.556V148.036H359.76V147.556H359.4Z" fill-rule="evenodd"/><path transform="matrix(1,0,0,-1,0,595.276)" d="M358.2 147.916H358.08V147.796H358.2 358.32V146.836H358.2 357.96V146.716H359.16V146.836H358.92V147.796H359.16V147.916H358.92V148.036 148.156H359.04 358.92 358.8V147.916H358.44V148.036 148.156H358.32V147.916H358.2ZM358.8 146.836H358.44V147.076H358.8V146.836ZM358.8 147.196H358.44V147.436H358.8V147.196ZM358.8 147.796V147.796 147.556H358.44V147.796H358.8Z" fill-rule="evenodd"/><path transform="matrix(1,0,0,-1,0,595.276)" d="M360.72 149.476H360.36V149.356H360.72V148.996H360.84V149.356H361.2V149.476H360.84V149.596H361.2V150.436H360.84V150.556H361.2V150.676H360.84V150.916H360.96 360.84 360.72V150.676H360.36V150.556H360.72V150.436H360.48V149.596H360.72V149.476ZM360.72 149.956V149.716H360.6V149.956H360.72ZM360.6 150.316H360.72V150.076H360.6V150.316ZM360.84 150.076V150.316H361.08V150.076H360.84ZM360.84 149.956H361.08V149.716H360.84V149.956Z" fill-rule="evenodd"/><path transform="matrix(1,0,0,-1,0,595.276)" d="M361.68 149.476V148.996H361.8V149.476H361.92L362.04 149.716V149.476H362.16V149.236 149.116H362.04V148.996H362.28V149.116 149.236 150.436H361.8V150.676H362.4V150.796H361.2V150.676H361.68V150.436H361.2V148.996H361.44V149.476L361.56 149.716 361.68 149.476ZM361.44 149.956V149.956 149.716 149.596 149.956ZM361.8 149.956H361.92V149.836L361.8 149.596V149.956ZM361.8 150.316H362.16V149.596 149.836L362.04 150.076H361.8V150.316ZM361.68 150.316V149.596 149.836L361.56 150.076H361.44V150.316H361.68Z" fill-rule="evenodd"/><path transform="matrix(1,0,0,-1,0,595.276)" d="M351.24 146.356 352.56 146.476 352.68 146.236 352.8 146.356 352.56 146.716 352.32 147.076 352.2 146.956 352.44 146.596 351.48 146.476 351.96 147.436 351.84 147.556 351.36 146.476H351.12V146.356 146.236Z" fill-rule="evenodd"/><path transform="matrix(1,0,0,-1,0,595.276)" d="M352.32 147.796 352.44 147.556 352.56 147.316 352.68 147.196H352.8V147.316L352.68 147.436 352.56 147.676 352.44 147.916 352.32 148.156H351.84V148.036H352.2Z" fill-rule="evenodd"/><path transform="matrix(1,0,0,-1,0,595.276)" d="M351.36 147.796 351.24 147.556 351.12 147.436 350.88 147.196H351L351.24 147.316 351.36 147.556 351.48 147.676 351.6 147.916V148.036H351.48Z" fill-rule="evenodd"/><path transform="matrix(1,0,0,-1,0,595.276)" d="M348.6 154.516H350.52V154.636H349.56V155.596H350.28V155.716H349.56V156.436H349.44V154.636H348.6Z" fill-rule="evenodd"/><path transform="matrix(1,0,0,-1,0,595.276)" d="M352.08 151.756H354V151.876H353.04V152.836H353.88 353.04V153.556L353.16 153.676H353.04 352.92V151.876H352.08Z" fill-rule="evenodd"/><path transform="matrix(1,0,0,-1,0,595.276)" d="M351.84 155.356V154.516H352.08V155.356H352.92V155.476H352.08V156.076H352.68V156.196H351.48L351.6 156.436H351.48V156.556L351.24 156.076 351 155.716H351.12L351.24 155.836 351.36 156.076H351.84V155.476H351V155.356Z" fill-rule="evenodd"/><path transform="matrix(1,0,0,-1,0,595.276)" d="M355.44 152.476V151.756H355.56V152.476H356.4V152.596H355.56V153.316H356.28V153.436H354.96L355.08 153.556V153.676H354.96L354.84 153.316 354.6 152.956V152.836L354.84 153.076 354.96 153.316H355.44V152.596H354.48V152.476Z" fill-rule="evenodd"/><path transform="matrix(1,0,0,-1,0,595.276)" d="M367.2 152.476V151.756H367.32V152.476H368.16V152.596H367.32V153.316H368.04V153.436H366.84V153.556L366.96 153.676H366.84 366.72L366.6 153.316 366.36 152.956 366.48 152.836 366.6 153.076 366.72 153.316H367.2V152.596H366.24V152.476Z" fill-rule="evenodd"/><path transform="matrix(1,0,0,-1,0,595.276)" d="M363.72 155.356V154.516H363.84V155.356H364.68V155.476H363.84V156.076H364.44V156.196H363.24L363.36 156.436 363.24 156.556 363 156.076 362.76 155.716H362.88L363 155.836 363.24 156.076H363.72V155.476H362.76V155.356Z" fill-rule="evenodd"/><path transform="matrix(1,0,0,-1,0,595.276)" d="M364.8 153.556V151.756H364.92V152.956L365.28 152.716 365.52 152.596H365.64L365.28 152.836 364.92 153.076V153.556H365.88V153.676H363.96V153.556Z" fill-rule="evenodd"/><path transform="matrix(1,0,0,-1,0,595.276)" d="M353.4 154.636 353.52 154.756 353.64 154.876 353.76 154.996V155.116L353.88 155.356V155.596L354 155.716V155.956 156.076H353.76V155.836 155.596 155.476L353.64 155.236V155.116L353.52 154.876 353.4 154.756 353.28 154.636H353.4Z" fill-rule="evenodd"/><path transform="matrix(1,0,0,-1,0,595.276)" d="M354.96 154.756 355.08 154.636H355.2V154.756L355.08 154.876 354.96 154.996V155.236L354.84 155.476V155.596L354.72 155.836V156.196 156.436H354.12V156.316H354.48L354.6 156.076V155.836 155.596L354.72 155.356 354.84 155.116V154.996Z" fill-rule="evenodd"/><path transform="matrix(1,0,0,-1,0,595.276)" d="M371.76 152.236 372 152.116 372.12 151.996 372.24 152.116 372 152.236 371.88 152.356Z" fill-rule="evenodd"/><path transform="matrix(1,0,0,-1,0,595.276)" d="M372.96 152.956H372.36V153.316H372.84V153.436H372.36V153.676H372.24V153.436H371.88 371.76V153.316H371.88 372.24V152.956H371.76V152.836H372.96V152.956Z" fill-rule="evenodd"/><path transform="matrix(1,0,0,-1,0,595.276)" d="M372.24 151.756H372.48 372.6V151.876 152.356 152.476H372.84V152.596H372.6V152.716H372.48V152.596H371.76V152.476H372.48V152.356 151.876H372.24V151.756Z" fill-rule="evenodd"/><path transform="matrix(1,0,0,-1,0,595.276)" d="M371.04 151.996H371.16V152.236H371.4 371.52V152.116H371.64V153.556H371.04V151.996ZM371.16 152.836V152.836H371.4 371.52V152.356H371.4 371.16V152.836ZM371.4 152.956H371.16V153.436H371.4 371.52V152.956H371.4Z" fill-rule="evenodd"/><path transform="matrix(1,0,0,-1,0,595.276)" d="M368.28 154.996 368.4 154.876 368.64 154.756V154.876L368.52 154.996 368.28 155.116Z" fill-rule="evenodd"/><path transform="matrix(1,0,0,-1,0,595.276)" d="M369.36 155.716H368.88V156.076H369.24V156.196H368.88V156.436H368.76V156.556 156.436 156.196H368.64 368.28V156.076H368.64 368.76V155.716H368.64 368.16V155.596H369.36V155.716Z" fill-rule="evenodd"/><path transform="matrix(1,0,0,-1,0,595.276)" d="M368.76 154.516H369L369.12 154.636V155.236H369.36V155.356H369.12V155.476 155.596H369 368.88V155.356H368.28V155.236H368.88V154.756 154.636H368.76 368.64L368.76 154.516Z" fill-rule="evenodd"/><path transform="matrix(1,0,0,-1,0,595.276)" d="M367.44 154.756H367.56V154.996H367.92V154.876H368.04V156.316H367.44V154.756ZM367.56 155.596V155.596H367.92V155.116H367.56V155.596ZM367.92 155.716H367.56V156.196H367.92V155.716Z" fill-rule="evenodd"/><path transform="matrix(1,0,0,-1,0,595.276)" d="M356.4 154.996 356.64 154.876 356.76 154.756 356.88 154.876 356.76 154.996 356.52 155.116Z" fill-rule="evenodd"/><path transform="matrix(1,0,0,-1,0,595.276)" d="M357.6 155.716H357.12 357V156.076H357.12 357.48V156.196H357.12 357V156.436H357.12 357L356.88 156.556V156.436 156.196H356.52V156.076H356.88V155.716H356.4V155.596H357.6V155.716Z" fill-rule="evenodd"/><path transform="matrix(1,0,0,-1,0,595.276)" d="M357 154.516H357.24V154.636 155.236H357.48 357.6V155.356H357.48 357.24V155.476H357.36L357.24 155.596H357.12V155.356H356.4V155.236H357.12V154.756 154.636H356.88V154.516Z" fill-rule="evenodd"/><path transform="matrix(1,0,0,-1,0,595.276)" d="M355.68 154.756H355.8V154.996H356.16V154.876H356.28V156.316H355.68V154.756ZM355.8 155.596V155.596H356.16V155.116H355.8V155.596ZM356.16 155.716H355.8V156.196H356.16V155.716Z" fill-rule="evenodd"/><path transform="matrix(1,0,0,-1,0,595.276)" d="M360 152.236 360.12 152.116 360.36 151.996V152.116L360.24 152.236 360.12 152.356Z" fill-rule="evenodd"/><path transform="matrix(1,0,0,-1,0,595.276)" d="M361.08 152.956H360.6V153.316H360.96V153.436H360.6V153.676H360.48V153.436H360.12 360V153.316H360.12 360.48V152.956H359.88V152.836H361.08V152.956Z" fill-rule="evenodd"/><path transform="matrix(1,0,0,-1,0,595.276)" d="M360.48 151.756H360.72 360.84V151.876 152.356 152.476H361.08V152.596H360.84V152.716H360.72V152.596H360V152.476H360.72V152.356 151.876H360.6 360.48V151.756Z" fill-rule="evenodd"/><path transform="matrix(1,0,0,-1,0,595.276)" d="M359.16 151.996H359.28V152.236H359.4 359.64V152.116H359.76V153.556H359.16V151.996ZM359.28 152.836H359.4 359.64V152.356H359.4 359.28V152.836ZM359.64 152.956H359.4 359.28V153.436H359.4 359.64V152.956Z" fill-rule="evenodd"/><path transform="matrix(1,0,0,-1,0,595.276)" d="M359.04 155.116V154.756H359.88V154.636H358.08V154.756H358.92V155.116H358.2V155.236H358.92V155.596H359.04 359.16L359.04 155.476V155.236H359.76V155.116Z" fill-rule="evenodd"/><path transform="matrix(1,0,0,-1,0,595.276)" d="M358.08 156.316H358.8L358.44 155.716H358.08 358.2V155.596L359.64 155.716 359.76 155.596H359.88L359.64 155.956 359.52 156.196 359.4 156.076 359.52 155.836 358.56 155.716 358.92 156.316H359.88V156.436H358.08Z" fill-rule="evenodd"/><path transform="matrix(1,0,0,-1,0,595.276)" d="M362.52 152.356V151.996H363.48V151.876H361.56V151.996H362.4V152.356H361.68V152.476H362.4V152.836H362.52L362.64 152.716H362.52V152.476H363.24V152.356Z" fill-rule="evenodd"/><path transform="matrix(1,0,0,-1,0,595.276)" d="M361.56 153.436H362.28L361.92 152.956H361.68V152.836H361.8L363.12 152.956 363.24 152.716 363.36 152.836 363.24 153.076 363 153.436 362.88 153.316 363.12 153.076 362.16 152.956 362.52 153.436H363.36V153.556H361.56Z" fill-rule="evenodd"/><path transform="matrix(1,0,0,-1,0,595.276)" d="M365.64 154.756H365.04V154.636H367.08V154.756H366.6L366.72 155.716H366L366.12 156.316H366.96V156.436H365.28V156.316H366L365.88 155.716H365.28V155.596H365.88L365.64 154.756ZM365.76 154.756 366 155.596H366.6L366.48 154.756H365.76Z" fill-rule="evenodd"/><path transform="matrix(1,0,0,-1,0,595.276)" d="M364.44 157.516H363.96V157.396H365.88V157.516H365.52V158.476H364.8L364.92 159.076H365.76V159.196H364.08V159.076H364.8L364.68 158.476H364.2V158.356H364.68L364.44 157.516ZM364.56 157.516 364.8 158.356H365.4V157.516H364.56Z" fill-rule="evenodd"/><path transform="matrix(1,0,0,-1,0,595.276)" d="M343.8 152.596H344.4V152.716H343.8V152.836H343.68 343.56V152.716H343.08V152.836H343.2 343.08V152.956L342.84 152.596 342.72 152.356H342.84L342.96 152.596H343.56V152.356H342.96V152.236H343.56V151.996H342.72V151.876H344.64V151.996H343.8V152.236H344.4V152.356H343.8V152.596Z" fill-rule="evenodd"/><path transform="matrix(1,0,0,-1,0,595.276)" d="M342.96 152.956H344.28V153.676H342.96V152.956ZM343.08 153.316H344.16V153.196 153.076H343.08V153.196 153.316ZM343.08 153.556H344.16V153.436H343.08V153.556Z" fill-rule="evenodd"/><path transform="matrix(1,0,0,-1,0,595.276)" d="M350.88 158.116H351.48V158.236H350.88V158.356 158.476H350.76 350.64V158.236H350.16V158.356H350.28V158.476H350.16L349.92 158.236 349.8 157.996V157.876H349.92L350.04 158.116H350.64V157.876H350.04V157.756H350.64V157.516H349.8V157.396H351.72V157.516H350.88V157.756H351.48V157.876H350.88V158.116Z" fill-rule="evenodd"/><path transform="matrix(1,0,0,-1,0,595.276)" d="M350.04 158.476H351.36V158.596 159.196 159.316H350.04V159.196 158.596 158.476ZM350.16 158.836H351.24V158.596H350.16V158.836ZM350.16 159.196H351.24V158.956H350.16V159.196Z" fill-rule="evenodd"/><path transform="matrix(1,0,0,-1,0,595.276)" d="M360.24 158.116H360.96V158.236H360.24V158.356L360.36 158.476H360.24 360.12V158.236H359.52L359.64 158.356V158.476H359.52L359.4 158.236 359.28 157.996V157.876H359.4L359.52 158.116H360.12V157.876H359.52V157.756H360.12V157.516H359.16V157.396H361.08V157.516H360.24V157.756H360.84V157.876H360.24V158.116Z" fill-rule="evenodd"/><path transform="matrix(1,0,0,-1,0,595.276)" d="M359.52 158.476H360.84V158.596 159.196 159.316H359.52V159.196 158.596 158.476ZM359.64 158.836H360.72V158.596H359.64V158.836ZM359.64 159.196H360.72V158.956H359.64V159.196Z" fill-rule="evenodd"/><path transform="matrix(1,0,0,-1,0,595.276)" d="M352.32 157.396 352.44 157.516 352.56 157.756H352.44V157.876L352.32 157.636 352.2 157.396Z" fill-rule="evenodd"/><path transform="matrix(1,0,0,-1,0,595.276)" d="M353.16 157.516 353.04 157.396 352.92 157.516 352.8 157.756H352.92L353.04 157.636Z" fill-rule="evenodd"/><path transform="matrix(1,0,0,-1,0,595.276)" d="M353.88 157.636V157.636 157.516H353.76 353.64V157.396H353.76 353.88 354V157.516 157.636 159.316H353.4V158.716 158.116L353.28 157.756V157.516 157.396H353.4V157.636L353.52 157.996H353.88V157.636ZM353.88 158.596V158.116H353.52V158.596H353.88ZM353.88 159.196V158.716H353.52V159.196H353.88Z" fill-rule="evenodd"/><path transform="matrix(1,0,0,-1,0,595.276)" d="M352.56 159.076V159.196 159.316H352.44V159.076H352.32 352.2V158.956H352.32 352.44V157.996H352.32 352.08V157.876H353.28V157.996H353.04V158.956H353.28V159.076H353.04V159.196 159.316H352.92V159.076H352.56ZM352.56 158.356V158.356 158.596H352.92V158.356H352.56ZM352.56 158.236H352.92V157.996H352.56V158.236ZM352.92 158.956V158.956 158.716H352.56V158.956H352.92Z" fill-rule="evenodd"/><path transform="matrix(1,0,0,-1,0,595.276)" d="M361.68 157.396 361.8 157.516 362.04 157.756H361.92V157.876L361.8 157.636 361.56 157.396Z" fill-rule="evenodd"/><path transform="matrix(1,0,0,-1,0,595.276)" d="M362.64 157.516 362.52 157.396 362.4 157.516 362.28 157.756H362.4L362.52 157.636Z" fill-rule="evenodd"/><path transform="matrix(1,0,0,-1,0,595.276)" d="M363.36 157.636V157.636 157.516H363.24 363.12V157.396H363.36 363.48V157.516 157.636 159.316H362.88V158.716 158.116L362.76 157.756 362.64 157.516V157.396H362.76L362.88 157.636 363 157.996H363.36V157.636ZM363.36 158.596V158.116H363V158.596H363.36ZM363.36 159.196V158.716H363V159.196H363.36Z" fill-rule="evenodd"/><path transform="matrix(1,0,0,-1,0,595.276)" d="M361.92 159.076V159.196L362.04 159.316H361.92 361.8V159.076H361.56V158.956H361.8V157.996H361.56V157.876H362.64 362.76V157.996H362.64 362.52V158.956H362.76V159.076H362.64 362.52V159.196 159.316H362.4V159.076H361.92ZM361.92 158.356V158.356 158.596H362.4V158.356H361.92ZM361.92 158.236H362.4V157.996H361.92V158.236ZM362.4 158.956V158.956 158.716H361.92V158.956H362.4Z" fill-rule="evenodd"/><path transform="matrix(1,0,0,-1,0,595.276)" d="M345.24 151.756 345.36 151.876 345.48 152.116V152.236H345.36L345.24 151.996 345.12 151.876Z" fill-rule="evenodd"/><path transform="matrix(1,0,0,-1,0,595.276)" d="M346.08 151.876H345.96L345.84 151.996 345.72 152.116 345.84 152.236 345.96 151.996Z" fill-rule="evenodd"/><path transform="matrix(1,0,0,-1,0,595.276)" d="M346.8 152.116V151.996L346.68 151.876H346.56L346.68 151.756 346.8 151.876H346.92V151.996 152.116 153.676H346.32V153.196 152.596L346.2 152.236V151.876 151.756L346.32 151.876V152.116L346.44 152.476H346.8V152.116ZM346.8 153.076V152.596H346.44V153.076H346.8ZM346.8 153.556V153.196H346.44V153.556H346.8Z" fill-rule="evenodd"/><path transform="matrix(1,0,0,-1,0,595.276)" d="M345.48 153.436V153.676 153.796H345.36V153.436H345.24 345.12V153.316H345.24 345.36V152.356H345.24 345V152.236H346.2V152.356H345.96V153.316H346.2V153.436H345.96V153.676H346.08 345.96V153.796H345.84V153.436H345.48ZM345.48 152.716V152.836 152.956H345.84V152.836 152.716H345.48ZM345.48 152.716H345.84V152.596 152.356H345.48V152.596 152.716ZM345.84 153.316V153.316 153.196 153.076H345.48V153.196 153.316H345.84Z" fill-rule="evenodd"/><path transform="matrix(1,0,0,-1,0,595.276)" stroke-width=".12" stroke-linecap="butt" stroke-miterlimit="10" stroke-linejoin="miter" fill="none" stroke="#000000" d="M373.5 145.5V145.5"/><path transform="matrix(1,0,0,-1,0,595.276)" d="M341.16 145.276V169.756C341.16 169.876 341.28 170.116 341.4 170.236 341.52 170.356 341.64 170.476 341.76 170.476H373.8C374.16 170.476 374.4 170.116 374.4 169.756V145.276C374.4 144.916 374.16 144.676 373.8 144.676H341.76C341.64 144.676 341.52 144.796 341.4 144.916 341.28 144.916 341.28 145.036 341.16 145.036 341.16 145.156 341.16 145.276 341.16 145.276ZM373.68 145.036C373.92 145.036 374.04 145.156 374.04 145.396V169.756C374.04 169.876 373.92 170.116 373.68 170.116H341.88C341.76 170.116 341.64 169.996 341.64 169.996 341.52 169.996 341.52 169.876 341.52 169.876V169.756 145.396C341.52 145.276 341.52 145.156 341.64 145.156 341.64 145.036 341.76 145.036 341.88 145.036H373.68Z" fill-rule="evenodd"/><path transform="matrix(1,0,0,-1,0,595.276)" d="M356.4 158.356H354.48V158.476H356.4Z" fill-rule="evenodd"/><path transform="matrix(1,0,0,-1,0,595.276)" d="M370.56 152.836H368.64V152.716H370.56Z" fill-rule="evenodd"/><path transform="matrix(1,0,0,-1,0,595.276)" d="M348.6 152.596 348.72 152.356 348.84 152.236 348.96 151.996 349.2 151.876H349.32L349.08 152.116 348.96 152.236 348.84 152.476 348.72 152.716Z" fill-rule="evenodd"/><path transform="matrix(1,0,0,-1,0,595.276)" d="M347.76 152.236 347.88 152.476 348 152.716H348.12V152.596L347.88 152.236 347.52 151.876H347.4L347.52 152.116Z" fill-rule="evenodd"/><path transform="matrix(1,0,0,-1,0,595.276)" d="M349.32 153.076H348.36V153.556H348.48 348.36L348.24 153.676V153.076H347.4V152.956H349.32Z" fill-rule="evenodd"/><path transform="matrix(1,0,0,-1,0,595.276)" d="M348 156.076V154.516H347.88V154.636H346.44V154.516H346.32V156.076H347.16V156.436H347.28V156.076H348ZM347.88 155.956H347.28V155.476H347.88V155.956ZM347.88 155.356H347.28V154.756H347.88V155.356ZM346.44 155.356V154.756H347.16V155.356H346.44ZM347.16 155.956H346.44V155.476H347.16V155.956Z" fill-rule="evenodd"/><path transform="matrix(1,0,0,-1,0,595.276)" d="M350.76 153.316V153.676H350.88 350.76 350.64V153.316H349.92V151.756H350.04V151.876H351.48V151.756H351.6V153.316H350.76ZM351.48 152.596V151.996H350.76V152.596H351.48ZM351.48 152.596H350.76V153.196H351.48V152.596ZM350.04 152.596V153.196H350.64V152.596H350.04ZM350.64 152.596V151.996H350.04V152.596H350.64Z" fill-rule="evenodd"/><path transform="matrix(1,0,0,-1,0,595.276)" d="M353.4 146.236 353.64 146.356 353.88 146.596H354V146.716H353.88L353.52 146.476 353.28 146.236Z" fill-rule="evenodd"/><path transform="matrix(1,0,0,-1,0,595.276)" d="M355.08 146.236H355.2V146.356H355.08L354.96 146.476 354.84 146.596V146.716L355.08 146.956H355.2L355.08 147.076 354.96 146.836H354.72V146.956L354.6 147.196H354.48L354.6 146.836 354.72 146.596V146.476H354.84L354.96 146.356 355.08 146.236Z" fill-rule="evenodd"/><path transform="matrix(1,0,0,-1,0,595.276)" d="M358.08 146.236 358.2 146.116 358.32 146.356 358.44 146.476V146.596H358.32L358.2 146.476Z" fill-rule="evenodd"/><path transform="matrix(1,0,0,-1,0,595.276)" d="M359.04 146.356 358.92 146.236 358.8 146.356 358.68 146.596H358.8L358.92 146.476Z" fill-rule="evenodd"/><path transform="matrix(1,0,0,-1,0,595.276)" d="M362.16 146.356 362.28 146.476 362.16 146.596 361.92 146.716Z" fill-rule="evenodd"/><path transform="matrix(1,0,0,-1,0,595.276)" d="M361.08 146.356H360.96L361.08 146.596 361.2 146.836 361.32 146.716 361.2 146.476Z" fill-rule="evenodd"/><path transform="matrix(1,0,0,-1,0,595.276)" d="M357.24 146.356 357.36 146.236H357.48V146.116L357.6 146.236 357.48 146.356 357.36 146.476 357.48 146.716 357.6 147.076 357.48 147.196H356.88V147.076H357V146.836 146.716L357.12 146.596V146.476L357 146.356 356.76 146.236H356.88 357 357.12L357.24 146.356ZM357.12 147.076H357.36V146.836L357.24 146.596 357.12 146.836V147.076Z" fill-rule="evenodd"/></g></svg>