<?xml version='1.0' encoding='UTF-8'?>
<svg width="307.16" height="254.06" viewBox="131.63 9.05 307.16 254.06" xmlns="http://www.w3.org/2000/svg" xmlns:xlink="http://www.w3.org/1999/xlink" xmlns:inkscape="http://www.inkscape.org/namespaces/inkscape" version="1.1"><g transform="scale(10.0) translate(-493.095, -20.304)"><defs><clipPath id="clip_19"><path transform="matrix(0,1,1,0,0,0)" d="M0 19.875H595.008V822.117H0Z"/></clipPath><clipPath id="clip_20"><path transform="matrix(0,1,1,0,0,0)" d="M0 842.013H595.224V.008972168H0Z"/></clipPath></defs><path transform="matrix(0,1,1,0,509.475,21.51)" d="M0 0V24.3C0 24.642 .054 25.002 .198 25.362 .342 25.722 .558 26.064 .846 26.352 1.134 26.64 1.476 26.856 1.836 27 2.196 27.144 2.556 27.198 2.898 27.198H21.888C22.23 27.198 22.608 27.144 22.968 27 23.328 26.856 23.652 26.64 23.94 26.352 24.228 26.064 24.444 25.722 24.588 25.362 24.732 25.002 24.804 24.642 24.804 24.3V0C24.804-.36 24.732-.72 24.588-1.08 24.444-1.44 24.228-1.782 23.94-2.07 23.652-2.34 23.328-2.574 22.968-2.718 22.608-2.844 22.23-2.916 21.888-2.916H2.898C2.124-2.916 1.386-2.61 .846-2.07 .306-1.512 0-.774 0 0" fill="#0000ff" fill-rule="evenodd"/><path transform="matrix(0,1,1,0,511.671,27.198)" d="M0 0V-1.476H-.558C-.882-1.44-1.224-1.368-1.548-1.206-1.872-1.044-2.16-.81-2.412-.522-2.664-.234-2.862 .09-2.988 .45-3.114 .792-3.168 1.152-3.168 1.476-3.168 1.692-3.15 1.926-3.096 2.16-3.06 2.376-2.97 2.628-2.88 2.844-2.772 3.078-2.628 3.294-2.466 3.51-2.304 3.708-2.106 3.888-1.908 4.05-1.692 4.194-1.458 4.32-1.224 4.41-.99 4.482-.738 4.536-.504 4.554-.27 4.572-.036 4.554 .162 4.5 .378 4.464 .576 4.392 .774 4.32V4.302H.792C1.422 3.978 2.088 3.528 2.718 2.934 3.366 2.358 3.978 1.656 4.518 .918V4.446H5.85V-1.386H4.518C4.194-.846 3.834-.324 3.438 .18 3.042 .684 2.61 1.152 2.16 1.548 1.728 1.944 1.278 2.268 .846 2.502 .432 2.754 .018 2.898-.342 2.97-.522 2.97-.702 2.934-.882 2.862-1.062 2.79-1.242 2.682-1.386 2.538-1.53 2.394-1.638 2.214-1.71 2.034-1.782 1.854-1.818 1.656-1.818 1.476-1.818 1.314-1.782 1.116-1.71 .936-1.638 .756-1.53 .576-1.386 .432-1.242 .288-1.062 .18-.882 .108-.702 .036-.522 0-.342 0H0" fill="#ffffff" fill-rule="evenodd"/><path transform="matrix(0,1,1,0,522.561,30.456)" d="M0 0C-.162 .018-.324 0-.486-.018-.666-.054-.828-.108-.972-.198-1.134-.288-1.242-.396-1.314-.504-1.404-.612-1.44-.738-1.44-.846V-1.98H-2.7V-1.008C-2.7-.972-2.7-.954-2.718-.918-2.718-.9-2.736-.864-2.736-.846-2.844-.576-3.024-.342-3.294-.216-3.546-.072-3.816-.036-4.05-.108-4.32-.162-4.554-.324-4.734-.576-4.914-.81-5.004-1.098-5.022-1.404-5.04-1.602-5.022-1.836-4.95-2.052-4.896-2.286-4.77-2.502-4.608-2.682-4.446-2.862-4.266-2.988-4.05-3.06-3.852-3.15-3.636-3.168-3.456-3.15L-3.726-4.68C-4.032-4.68-4.356-4.626-4.698-4.464-5.022-4.32-5.328-4.068-5.598-3.744-5.868-3.42-6.066-3.042-6.21-2.628-6.282-2.43-6.336-2.214-6.354-2.016-6.39-1.818-6.408-1.602-6.408-1.404-6.426-.792-6.246-.198-5.94 .306-5.616 .81-5.148 1.188-4.626 1.386-4.158 1.512-3.672 1.476-3.222 1.314-2.772 1.134-2.394 .828-2.142 .432-1.782 .918-1.314 1.26-.774 1.44-.234 1.62 .342 1.602 .882 1.404 1.422 1.206 1.872 .828 2.196 .324 2.52-.18 2.7-.792 2.682-1.404 2.682-1.602 2.664-1.8 2.628-2.016 2.592-2.214 2.556-2.43 2.484-2.628 2.34-3.042 2.142-3.42 1.872-3.744 1.602-4.068 1.296-4.302 .954-4.464 .63-4.626 .306-4.68 0-4.662L-.27-3.15C-.09-3.168 .09-3.132 .27-3.078 .45-3.024 .63-2.916 .792-2.772 .936-2.628 1.062-2.448 1.152-2.268 1.242-2.07 1.278-1.872 1.296-1.692 1.332-1.278 1.206-.864 .972-.54 .72-.234 .378-.036 0 0" fill="#ffffff" fill-rule="evenodd"/><path transform="matrix(0,1,1,0,527.619,32.166)" d="M0 0C-.234 0-.45-.09-.612-.252-.774-.432-.882-.648-.882-.882-.882-1.116-.774-1.35-.612-1.512-.45-1.674-.234-1.764 0-1.764 .234-1.764 .468-1.674 .63-1.512 .792-1.35 .9-1.116 .882-.882 .9-.648 .792-.432 .63-.252 .468-.09 .234 0 0 0" fill="#ffffff" fill-rule="evenodd"/><path transform="matrix(0,1,1,0,532.263,33.048)" d="M0 0H-8.928V-1.26H-8.46C-8.244-1.278-8.01-1.386-7.83-1.602-7.65-1.8-7.56-2.07-7.542-2.34V-2.952H-6.372V-1.44H0V0" fill="#ffffff" fill-rule="evenodd"/><path transform="matrix(0,1,1,0,522.255,44.316)" d="M0 0C-.072 .288-.162 .576-.288 .864-.414 1.152-.576 1.44-.756 1.71-1.098 2.268-1.548 2.754-2.088 3.168-2.628 3.582-3.222 3.888-3.834 4.104-4.14 4.194-4.464 4.284-4.77 4.32-5.076 4.374-5.382 4.392-5.688 4.392H-8.784V-4.392H-5.688C-5.382-4.392-5.076-4.374-4.77-4.32-4.464-4.266-4.14-4.194-3.834-4.086-3.222-3.888-2.628-3.582-2.088-3.168-1.548-2.754-1.098-2.268-.756-1.71-.576-1.44-.414-1.152-.288-.864-.162-.576-.072-.288 0 0" fill="#ffff00" fill-rule="evenodd"/><path transform="matrix(0,1,1,0,522.957,36.918)" d="M0 0H5.454V-1.116H1.566V-1.944H.54C.54-1.638 .504-1.404 .414-1.26 .324-1.098 .18-1.026 0-1.026V0" fill-rule="evenodd"/><path transform="matrix(0,1,1,0,533.343,37.872)" d="M0 0-.792 1.08C-1.692 .108-2.088-.81-2.088-1.89-2.088-2.628-1.908-3.42-1.422-3.978-.99-4.428-.36-4.716 .288-4.716 .9-4.698 1.53-4.446 1.872-3.978 2.016-3.78 2.106-3.564 2.178-3.348 2.358-2.88 2.43-2.412 2.52-1.89 2.538-1.782 2.538-1.692 2.556-1.584 2.646-1.062 2.772-.54 3.186-.288 3.474-.108 3.924-.072 4.248-.198 4.752-.414 4.86-1.062 4.824-1.692 4.788-2.52 4.536-3.294 3.708-3.942L4.608-5.022C4.914-4.716 5.166-4.392 5.382-4.05 5.796-3.366 6.066-2.61 6.066-1.764 6.066-.954 5.832-.072 5.328 .486 5.148 .702 4.896 .864 4.626 .99 4.5 1.044 4.338 1.098 4.194 1.134 4.104 1.17 4.032 1.188 3.942 1.206 3.906 1.206 3.852 1.224 3.816 1.224 3.798 1.224 3.78 1.224 3.744 1.242H3.726C3.708 1.242 3.69 1.242 3.69 1.242H3.708C3.492 1.242 3.312 1.224 3.114 1.188 2.7 1.098 2.286 .864 1.98 .54 1.836 .378 1.728 .18 1.656 0 1.566-.18 1.53-.378 1.494-.576L1.116-2.394C1.098-2.556 1.044-2.7 .954-2.844 .81-3.078 .558-3.312 .288-3.348-.036-3.384-.378-3.15-.576-2.916L-.594-2.898C-.828-2.61-.882-2.34-.864-1.98-.81-1.386-.576-.558 0 0" fill="#ffffff" fill-rule="evenodd"/><path transform="matrix(0,1,1,0,512.085,35.802)" d="M0 0H.954V-3.546H1.692V0H2.448V-3.096H8.1V-2.25H3.222V3.15H7.002L7.164 3.078 7.272 2.916 7.344 2.682V2.088L8.172 2.448 8.118 2.97 8.01 3.456 7.794 3.78 7.434 3.96 6.984 3.996H2.412V.882H1.656V4.446H.936V.864H.504L.378 .99H.288L.216 .882 .144 .666" fill="#ffffff" fill-rule="evenodd"/><path transform="matrix(0,1,1,0,511.275,39.078)" d="M0 0 .432-.594 .828-.198 1.314 .09V-.918H1.926V.882H2.664V-1.044H3.402V.864H4.59V1.656H3.402V3.51H2.664V1.674H1.926V3.348H1.278V2.394L.792 2.718 .414 3.06 0 2.34 .612 1.926 1.296 1.62V.468L1.044 .846 .45 .45" fill="#ffffff" fill-rule="evenodd"/></g></svg>