<?xml version='1.0' encoding='UTF-8'?>
<svg width="280.49" height="248.68" viewBox="144.34 11.65 280.49 248.68" xmlns="http://www.w3.org/2000/svg" xmlns:xlink="http://www.w3.org/1999/xlink" xmlns:inkscape="http://www.inkscape.org/namespaces/inkscape" version="1.1"><g transform="scale(10.0) translate(-56.655, -181.872)"><defs><clipPath id="clip_19"><path transform="matrix(0,1,1,0,0,0)" d="M0 19.875H595.008V822.117H0Z"/></clipPath><clipPath id="clip_20"><path transform="matrix(0,1,1,0,0,0)" d="M0 842.013H595.224V.008972168H0Z"/></clipPath></defs><path transform="matrix(0,1,1,0,98.607,204.894)" d="M0 0-20.664-11.916C-20.934-12.078-21.168-12.294-21.33-12.582-21.492-12.87-21.582-13.194-21.582-13.5-21.582-13.806-21.492-14.13-21.33-14.4-21.168-14.688-20.934-14.922-20.664-15.066L0-27C.558-27.324 1.26-27.324 1.818-27 2.088-26.856 2.322-26.622 2.484-26.334 2.646-26.046 2.736-25.74 2.736-25.416V-1.566C2.736-.918 2.376-.324 1.818 0 1.26 .342 .558 .342 0 0" fill="#ff0000" fill-rule="evenodd"/><path transform="matrix(0,1,1,0,95.979,205.2)" d="M0 0-18.846-10.872 0-21.744" fill="#ffffff" fill-rule="evenodd"/><path transform="matrix(0,1,1,0,0,0)" d="M199.53 88.545H200.934V91.389H199.53Z" fill="#ff0000"/><path transform="matrix(0,1,1,0,86.727,196.686)" d="M0 0 1.422-1.422H2.844L1.89-.468H8.1V.468H1.89L2.844 1.422H1.422" fill-rule="evenodd"/><path transform="matrix(0,1,1,0,80.247,196.686)" d="M0 0 1.422-1.422H2.844L1.89-.468H8.1V.468H1.89L2.844 1.422H1.422" fill-rule="evenodd"/><path transform="matrix(0,1,1,0,0,0)" d="M201.15 89.499H204.786V90.435H201.15Z"/><path transform="matrix(0,1,1,0,0,0)" d="M199.53 82.065H200.934V84.909008H199.53Z" fill="#ff0000"/><path transform="matrix(0,1,1,0,0,0)" d="M201.15 83.019H204.786V83.954998H201.15Z"/></g></svg>