<?xml version='1.0' encoding='UTF-8'?>
<svg width="330.48" height="257.28" viewBox="118.65 6.84 330.48 257.28" xmlns="http://www.w3.org/2000/svg" xmlns:xlink="http://www.w3.org/1999/xlink" xmlns:inkscape="http://www.inkscape.org/namespaces/inkscape" version="1.1"><g transform="scale(10.0) translate(-111.171, -181.872)"><defs><clipPath id="clip_2"><path transform="matrix(1,0,0,-1,0,595.276)" d="M74.4 .196H767.4V595.276H74.4Z"/></clipPath></defs><path transform="matrix(1,0,0,-1,0,595.276)" d="M124.92 412.396H154.2C154.68 412.396 155.04 412.156 155.28 411.916 155.64 411.556 155.76 411.196 155.76 410.836V388.876C155.76 388.636 155.76 388.516 155.64 388.276 155.64 388.156 155.52 387.916 155.28 387.796 155.16 387.676 155.04 387.556 154.8 387.436 154.68 387.316 154.44 387.316 154.2 387.316H124.92C124.56 387.316 124.2 387.436 123.84 387.796 123.6 388.036 123.36 388.516 123.36 388.876V410.836C123.36 411.676 124.08 412.396 124.92 412.396Z" fill-rule="evenodd"/><path transform="matrix(1,0,0,-1,0,595.276)" d="M124.92 411.556H154.2C154.44 411.556 154.68 411.556 154.8 411.316 154.92 411.196 155.04 410.956 155.04 410.836V388.876C155.04 388.636 154.92 388.516 154.8 388.276 154.68 388.156 154.44 388.036 154.2 388.036H124.92C124.8 388.036 124.8 388.156 124.68 388.156 124.56 388.156 124.44 388.276 124.44 388.276 124.32 388.396 124.32 388.516 124.2 388.516 124.2 388.636 124.2 388.756 124.2 388.876V410.836C124.2 410.956 124.2 411.196 124.44 411.316 124.56 411.556 124.8 411.556 124.92 411.556Z" fill="#ffffff" fill-rule="evenodd"/><path transform="matrix(1,0,0,-1,0,595.276)" d="M128.64 402.436 129.36 405.316H128.76L128.16 403.396 127.68 405.316H127.08L127.8 402.436H128.16Z" fill-rule="evenodd"/><path transform="matrix(1,0,0,-1,0,595.276)" d="M131.4 403.276C131.4 404.116 131.04 404.596 130.44 404.596 129.84 404.596 129.48 404.236 129.48 403.516 129.48 403.276 129.48 402.916 129.72 402.796 129.84 402.556 130.2 402.436 130.44 402.436 130.8 402.316 131.16 402.556 131.28 402.796L130.92 403.156C130.92 403.036 130.68 402.916 130.44 402.916 130.44 402.916 130.32 402.916 130.2 403.036 130.08 403.036 130.08 403.156 130.08 403.156V403.276H131.4ZM130.08 403.756V403.756C130.08 403.876 130.08 403.876 130.2 403.996 130.2 404.116 130.32 404.116 130.44 404.116 130.56 404.116 130.8 403.996 130.8 403.756H130.08Z" fill-rule="evenodd"/><path transform="matrix(1,0,0,-1,0,595.276)" d="M132.36 404.476C132.6 404.716 132.96 404.716 133.2 404.596 133.32 404.476 133.44 404.356 133.56 404.236 133.68 404.116 133.68 403.996 133.68 403.876V402.436H133.08V403.756C133.08 403.756 133.08 403.876 132.96 403.996 132.96 403.996 132.84 404.116 132.72 404.116 132.6 404.116 132.6 403.996 132.48 403.996 132.36 403.876 132.36 403.756 132.36 403.756V402.436H131.76V405.316H132.36V404.476Z" fill-rule="evenodd"/><path transform="matrix(1,0,0,-1,0,595.276)" d="M134.88 402.436V404.596H134.28V402.436Z" fill-rule="evenodd"/><path transform="matrix(1,0,0,-1,0,595.276)" d="M134.88 405.076C134.88 405.316 134.76 405.436 134.64 405.436 134.4 405.436 134.28 405.316 134.28 405.076 134.28 404.956 134.4 404.716 134.64 404.716 134.76 404.716 134.88 404.956 134.88 405.076Z" fill-rule="evenodd"/><path transform="matrix(1,0,0,-1,0,595.276)" d="M136.32 404.596C136.56 404.596 136.68 404.596 136.92 404.476 137.04 404.356 137.16 404.236 137.16 403.996L136.8 403.756C136.68 403.996 136.56 404.116 136.32 404.116 136.08 404.116 135.84 403.996 135.84 403.636V403.516 403.396C135.96 403.036 136.08 402.916 136.32 402.916 136.44 402.916 136.56 402.916 136.56 403.036 136.68 403.036 136.68 403.156 136.8 403.276L137.28 403.036C137.16 402.556 136.8 402.316 136.32 402.436 135.6 402.436 135.24 402.796 135.24 403.516 135.36 404.236 135.72 404.596 136.32 404.596Z" fill-rule="evenodd"/><path transform="matrix(1,0,0,-1,0,595.276)" d="M138.12 405.316V403.156 403.036C138.12 402.916 138.24 402.916 138.48 403.036V402.436H138.36C138.36 402.436 138.24 402.436 138.12 402.436 137.76 402.436 137.52 402.556 137.52 402.796V402.916 405.316H138.12Z" fill-rule="evenodd"/><path transform="matrix(1,0,0,-1,0,595.276)" d="M140.76 403.276C140.76 404.116 140.4 404.596 139.8 404.596 139.2 404.596 138.84 404.236 138.84 403.516 138.84 403.276 138.84 402.916 139.08 402.796 139.2 402.556 139.56 402.436 139.8 402.436 140.16 402.316 140.52 402.556 140.64 402.796L140.28 403.156C140.28 403.036 140.04 402.916 139.8 402.916 139.8 402.916 139.68 402.916 139.56 403.036 139.44 403.036 139.44 403.156 139.44 403.156V403.276H140.76ZM139.44 403.756V403.756C139.44 403.876 139.44 403.876 139.56 403.996 139.56 404.116 139.68 404.116 139.8 404.116 139.92 404.116 140.16 403.996 140.16 403.756H139.44Z" fill-rule="evenodd"/><path transform="matrix(1,0,0,-1,0,595.276)" d="M142.8 403.156C142.8 403.516 142.68 403.756 142.2 403.876 141.96 403.876 141.84 403.876 141.84 403.876 141.72 403.876 141.72 403.996 141.72 403.996 141.72 403.996 141.72 404.116 141.84 404.116H141.96C142.08 404.116 142.2 404.116 142.32 404.116 142.32 404.116 142.44 403.996 142.44 403.876L142.8 404.356C142.68 404.596 142.44 404.716 142.08 404.716 141.48 404.716 141.12 404.476 141.12 403.876 141.12 403.516 141.36 403.396 141.72 403.276 142.08 403.276 142.2 403.276 142.2 403.036V402.916C142.08 402.916 142.08 402.916 141.96 402.916 141.84 402.916 141.72 402.916 141.72 403.036 141.6 403.036 141.48 403.156 141.36 403.156L141 402.796C141.24 402.556 141.6 402.316 141.96 402.436 142.56 402.436 142.8 402.676 142.8 403.156Z" fill-rule="evenodd"/><path transform="matrix(1,0,0,-1,0,595.276)" d="M146.28 403.516C146.28 404.236 145.92 404.596 145.2 404.596 144.84 404.596 144.6 404.596 144.48 404.356 144.24 404.116 144.24 403.876 144.24 403.516 144.24 402.796 144.6 402.436 145.2 402.436 145.56 402.436 145.8 402.436 145.92 402.676 146.16 402.916 146.28 403.156 146.28 403.516ZM145.68 403.516C145.68 403.396 145.56 403.156 145.56 403.156 145.44 403.036 145.32 402.916 145.2 402.916 144.96 402.916 144.84 403.156 144.84 403.516 144.84 403.636 144.84 403.876 144.96 403.876 144.96 403.996 145.08 404.116 145.2 404.116 145.44 404.116 145.68 403.876 145.68 403.516Z" fill-rule="evenodd"/><path transform="matrix(1,0,0,-1,0,595.276)" d="M148.56 402.436V403.876 403.996C148.56 404.356 148.2 404.596 147.72 404.596 147.6 404.596 147.48 404.596 147.48 404.596 147.36 404.596 147.24 404.476 147.24 404.476V404.596H146.64V402.436H147.24V403.756C147.24 403.996 147.36 404.116 147.6 404.116 147.84 404.116 147.96 403.996 147.96 403.756V403.636 402.436H148.56Z" fill-rule="evenodd"/><path transform="matrix(1,0,0,-1,0,595.276)" d="M149.64 405.316V403.156 403.036C149.64 402.916 149.76 402.916 150 403.036L150.12 402.436H150 149.88C149.88 402.436 149.76 402.436 149.64 402.436 149.4 402.436 149.16 402.556 149.04 402.796V402.916 405.316H149.64Z" fill-rule="evenodd"/><path transform="matrix(1,0,0,-1,0,595.276)" d="M152.28 404.596H151.68L151.2 403.276 150.84 404.596H150.24L150.84 402.676C150.84 402.556 150.96 402.556 150.96 402.436 150.96 402.316 150.84 402.316 150.84 402.316 150.72 402.316 150.72 402.316 150.6 402.316H150.48L150.36 401.836C150.6 401.836 150.84 401.716 151.08 401.716 151.2 401.716 151.2 401.836 151.32 401.836 151.32 401.956 151.44 402.076 151.44 402.076L152.28 404.596Z" fill-rule="evenodd"/><path transform="matrix(1,0,0,-1,0,595.276)" d="M138.6 407.596C138.6 407.956 138.48 408.316 138.24 408.436 138.12 408.676 137.88 408.796 137.52 408.796 136.92 408.796 136.56 408.316 136.56 407.596 136.56 407.236 136.56 406.996 136.8 406.756 136.92 406.636 137.16 406.516 137.52 406.516 138.24 406.516 138.6 406.876 138.6 407.596ZM138 407.596C138 407.236 137.76 407.116 137.52 407.116 137.4 407.116 137.28 407.116 137.16 407.236 137.16 407.356 137.16 407.476 137.16 407.596 137.16 407.836 137.16 407.956 137.16 408.076 137.28 408.196 137.4 408.196 137.52 408.196 137.76 408.196 138 407.956 138 407.596Z" fill-rule="evenodd"/><path transform="matrix(1,0,0,-1,0,595.276)" d="M140.88 406.636V408.676H140.28V406.636Z" fill-rule="evenodd"/><path transform="matrix(1,0,0,-1,0,595.276)" d="M140.88 409.156C140.88 409.396 140.76 409.516 140.52 409.516 140.4 409.516 140.28 409.396 140.28 409.156 140.28 409.036 140.4 408.916 140.52 408.916 140.76 408.916 140.88 409.036 140.88 409.156Z" fill-rule="evenodd"/><path transform="matrix(1,0,0,-1,0,595.276)" d="M142.2 408.796C142.44 408.796 142.68 408.676 142.8 408.556 143.04 408.556 143.16 408.316 143.16 408.076L142.68 407.956C142.68 408.076 142.44 408.196 142.32 408.196 142.08 408.196 141.84 408.076 141.84 407.716V407.596 407.476C141.96 407.236 142.08 406.996 142.32 406.996 142.44 406.996 142.44 406.996 142.56 407.116 142.68 407.116 142.68 407.236 142.68 407.356L143.16 407.236C143.04 406.756 142.8 406.516 142.32 406.516 141.6 406.516 141.24 406.876 141.24 407.596 141.36 408.316 141.6 408.796 142.2 408.796Z" fill-rule="evenodd"/><path transform="matrix(1,0,0,-1,0,595.276)" d="M145.44 407.476C145.44 408.316 145.08 408.676 144.48 408.796 143.88 408.796 143.52 408.436 143.52 407.596 143.52 407.356 143.52 407.116 143.76 406.876 143.88 406.636 144.24 406.516 144.48 406.516 144.84 406.516 145.2 406.636 145.32 406.876L144.96 407.236C144.96 407.116 144.72 406.996 144.48 406.996 144.48 406.996 144.36 406.996 144.24 407.116 144.12 407.116 144.12 407.236 144.12 407.236 144.12 407.356 144.12 407.356 144.12 407.476H145.44ZM144.12 407.836V407.836C144.12 407.956 144.12 408.076 144.24 408.076 144.24 408.196 144.36 408.196 144.48 408.196 144.6 408.196 144.84 408.076 144.84 407.956V407.836H144.12Z" fill-rule="evenodd"/><path transform="matrix(1,0,0,-1,0,595.276)" d="M134.64 407.716H135.48 135.6C135.96 407.716 136.2 408.076 136.2 408.556 136.2 409.036 135.96 409.396 135.6 409.516H135.48 134.04V406.636H134.64V407.716ZM134.64 408.196V409.036H135.24 135.36C135.48 408.916 135.6 408.796 135.6 408.556 135.6 408.436 135.48 408.196 135.36 408.196H135.24 134.64Z" fill-rule="evenodd"/><path transform="matrix(1,0,0,-1,0,595.276)" d="M139.44 409.516V407.236 407.116C139.56 407.116 139.68 407.116 139.8 407.116L139.92 406.636C139.92 406.636 139.92 406.516 139.8 406.516 139.68 406.516 139.56 406.516 139.44 406.516 139.2 406.516 138.96 406.636 138.96 406.876V406.996 409.516H139.44Z" fill-rule="evenodd"/><path transform="matrix(1,0,0,-1,0,595.276)" d="M137.52 400.396 135.48 398.356 137.52 396.316H139.56L138.24 397.636H143.76V398.956H138.24L139.56 400.396Z" fill-rule="evenodd"/><path transform="matrix(1,0,0,-1,0,595.276)" d="M125.52 393.076H126.72L126.48 392.836 126.12 392.476 125.88 392.236 125.4 391.996 125.64 391.756 126.24 392.116V390.436H126.6V392.116L127.08 391.756 127.32 391.996 126.96 392.236 126.6 392.476 126.96 392.836 127.2 393.316 127.08 393.436H126.6V393.916 394.036L126.48 394.156H126.24V393.436H125.52Z" fill-rule="evenodd"/><path transform="matrix(1,0,0,-1,0,595.276)" d="M127.32 393.916V391.036H127.08V390.676L127.2 390.556 127.32 390.676 128.28 391.036V391.396L127.68 391.156V392.476H128.16L128.28 391.876V391.396L128.52 391.036 128.64 390.676 128.76 390.556H128.88 129L129.12 390.676V390.796L129.24 390.916V391.156L129 391.396V391.156L128.88 391.036 128.76 391.156 128.64 391.396V391.756L128.52 392.116V392.476H129.12V392.836H128.52V393.676H128.88 129L129.12 393.796 129 393.916 128.76 394.036 128.16 393.916 127.56 393.796 127.32 393.916ZM127.68 392.836V393.436L128.16 393.556V392.836H127.68Z" fill-rule="evenodd"/><path transform="matrix(1,0,0,-1,0,595.276)" d="M130.92 392.956 131.28 393.196 130.92 393.556 130.68 393.796 130.44 393.556 130.68 393.196Z" fill-rule="evenodd"/><path transform="matrix(1,0,0,-1,0,595.276)" d="M130.32 390.916 130.56 390.796H130.68V390.676L130.8 390.796 131.04 391.396 131.4 391.876 131.16 392.236 130.8 391.516Z" fill-rule="evenodd"/><path transform="matrix(1,0,0,-1,0,595.276)" d="M131.04 392.596 131.28 392.356 131.76 392.836V390.556H132.12V390.796H134.04V391.156H133.08V391.516H133.8V391.876H133.08V392.236H133.8V392.596H133.08V392.956H134.04V393.316H133.08L133.32 393.796H133.44V393.916H133.32L132.96 394.036 132.72 393.316H132L132.24 393.796H132.36V393.916L132.24 394.036 132 394.156 131.76 393.676 131.52 393.316 131.28 392.956 131.04 392.596ZM132.12 391.876V392.236H132.72V391.876H132.12ZM132.12 392.596V392.956H132.72V392.596H132.12ZM132.12 391.156V391.516H132.72V391.156H132.12Z" fill-rule="evenodd"/><path transform="matrix(1,0,0,-1,0,595.276)" d="M135.36 394.036V393.796H135.96V393.556L135.72 393.676 135.48 393.316 135.24 393.076 135.48 392.836 135.84 393.196H136.8V393.076 392.956L136.68 392.836H136.44L136.56 392.476H136.8L136.92 392.596 137.04 392.716V392.836 392.956 393.076 393.316L137.4 393.196 137.52 393.436 137.64 393.196 137.76 393.076 137.52 392.956 137.16 392.836 137.4 392.596 138 392.836 138.36 392.596 138.72 392.476 138.96 392.716 138.6 392.836 138.24 393.076 138.48 393.316 138.6 393.556H138.84V393.796H137.76L137.88 393.916V394.036H138 137.88L137.64 394.156 137.4 393.796 137.04 393.436H135.96 136.08V393.556H135.96 136.2V393.796H136.56V393.556H136.8V393.796H137.16V394.036H136.8 136.92L136.8 394.156H136.56V394.036H136.2 136.32V394.156H136.2 135.96V394.036H135.36ZM137.64 393.556H138.24L138 393.196 137.76 393.436 137.64 393.556Z" fill-rule="evenodd"/><path transform="matrix(1,0,0,-1,0,595.276)" d="M135.24 392.116V391.876H138.96V392.116Z" fill-rule="evenodd"/><path transform="matrix(1,0,0,-1,0,595.276)" d="M135.84 392.476V392.236H138.36V392.476Z" fill-rule="evenodd"/><path transform="matrix(1,0,0,-1,0,595.276)" d="M135.84 391.756V391.516H138.36V391.756Z" fill-rule="evenodd"/><path transform="matrix(1,0,0,-1,0,595.276)" d="M135.84 391.396V391.276H138.36V391.396Z" fill-rule="evenodd"/><path transform="matrix(1,0,0,-1,0,595.276)" d="M135.72 391.156V390.556H138.48V391.156H135.72ZM136.08 390.676V390.916H138.12V390.676H136.08Z" fill-rule="evenodd"/><path transform="matrix(1,0,0,-1,0,595.276)" d="M135.72 393.076V392.596H136.44V393.076H135.72ZM135.96 392.716V392.956H136.2V392.716H135.96Z" fill-rule="evenodd"/><path transform="matrix(1,0,0,-1,0,595.276)" d="M140.4 393.796V393.436H141.84V393.196H140.76V391.636H141.84V391.396H140.28V391.036H141.84V390.556H142.2V391.036H143.76V391.396H142.2V391.636H143.28V393.196H142.2V393.436H143.52V393.796H142.2V393.916 394.036 394.156H141.84V393.796H140.4ZM141.12 392.596V392.836H141.84V392.596H141.12ZM141.12 391.996V392.236H141.84V391.996H141.12ZM142.2 392.596V392.836H142.92V392.596H142.2ZM142.2 391.996V392.236H142.92V391.996H142.2Z" fill-rule="evenodd"/><path transform="matrix(1,0,0,-1,0,595.276)" d="M144.96 392.476 145.2 392.116 145.44 392.596V390.556H145.8V393.196L146.04 393.796H146.16V393.916L145.8 394.156 145.68 393.676 145.44 393.196 145.2 392.836Z" fill-rule="evenodd"/><path transform="matrix(1,0,0,-1,0,595.276)" d="M146.16 393.676V393.316H147.24V392.956H146.28V391.756H146.64V391.876H147.12V391.636L147 391.396 146.76 391.756 146.4 391.636 146.64 391.396 146.76 391.156 146.4 390.916 145.92 390.796 146.16 390.436 146.76 390.676 147.12 390.916 147.36 390.676 147.72 390.556H148.08 148.56L148.68 390.916H148.32 147.96L147.6 391.036 147.36 391.156 147.48 391.516V391.876H148.08V391.636H148.44V392.956H147.6V393.316H148.56V393.676H147.6V393.916 394.036 394.156H147.24V393.676H146.16ZM147.6 392.716H148.08V392.236H147.48L147.6 392.716ZM146.64 392.236V392.716H147.24V392.236H146.64Z" fill-rule="evenodd"/><path transform="matrix(1,0,0,-1,0,595.276)" d="M150.36 393.916V392.836 392.116L150.24 391.516 150.12 391.156 149.88 390.796 150.24 390.556 150.48 390.796 150.6 391.036 150.72 391.396V391.756H151.56V390.676H151.92V391.756H152.88V391.156 391.036L152.76 390.916H152.52 152.28L152.4 390.556H152.64 152.88L153.12 390.676 153.24 390.796V391.036 393.916H150.36ZM150.84 393.076V393.556H151.56V393.076H150.84ZM151.56 392.116H150.84V392.716H151.56V392.116ZM151.92 393.076V393.556H152.88V393.076H151.92ZM151.92 392.116V392.716H152.88V392.116H151.92Z" fill-rule="evenodd"/></g></svg>