<?xml version='1.0' encoding='UTF-8'?>
<svg width="330.48" height="256.08" viewBox="118.65 6.84 330.48 256.08" xmlns="http://www.w3.org/2000/svg" xmlns:xlink="http://www.w3.org/1999/xlink" xmlns:inkscape="http://www.inkscape.org/namespaces/inkscape" version="1.1"><g transform="scale(10.0) translate(-111.171, -451.152)"><defs><clipPath id="clip_2"><path transform="matrix(1,0,0,-1,0,595.276)" d="M74.4 .196H767.4V595.276H74.4Z"/></clipPath></defs><path transform="matrix(1,0,0,-1,0,595.276)" d="M155.76 141.796C155.76 142.156 155.64 142.516 155.4 142.756 155.28 142.876 155.16 142.996 154.92 142.996 154.8 143.116 154.68 143.116 154.44 143.116H124.68C124.44 143.116 124.08 142.996 123.84 142.756 123.6 142.636 123.6 142.516 123.48 142.276 123.48 142.156 123.36 142.036 123.36 141.796V119.356C123.36 119.116 123.48 118.756 123.84 118.516 123.96 118.396 124.08 118.276 124.2 118.156 124.44 118.156 124.56 118.156 124.68 118.156H154.44C154.8 118.156 155.16 118.276 155.4 118.516 155.64 118.756 155.76 119.116 155.76 119.356V141.796Z" fill-rule="evenodd"/><path transform="matrix(1,0,0,-1,0,595.276)" d="M124.68 142.516H154.44C154.56 142.516 154.68 142.516 154.68 142.396 154.8 142.396 154.92 142.396 154.92 142.276 155.04 142.276 155.04 142.156 155.04 142.036 155.16 142.036 155.16 141.916 155.16 141.796V119.356C155.16 119.236 155.04 119.116 154.92 118.996 154.8 118.876 154.68 118.756 154.44 118.756H124.68C124.56 118.756 124.32 118.876 124.2 118.996 124.08 119.116 124.08 119.236 124.08 119.356V141.796C124.08 142.036 124.08 142.156 124.2 142.276 124.32 142.396 124.56 142.516 124.68 142.516Z" fill="#ffffff" fill-rule="evenodd"/><path transform="matrix(1,0,0,-1,0,595.276)" d="M132.72 138.676 132 141.196H131.52 131.16L130.44 138.676H130.92L131.04 139.156H131.52 132.12L132.24 138.676H132.72ZM131.88 139.636H131.52 131.28L131.52 140.716 131.88 139.636Z" fill-rule="evenodd"/><path transform="matrix(1,0,0,-1,0,595.276)" d="M134.28 140.476H134.76V138.676H134.16V138.796C134.16 138.796 134.16 138.676 134.04 138.676 133.92 138.676 133.8 138.676 133.8 138.676 133.56 138.676 133.44 138.676 133.32 138.796 133.2 138.916 133.08 139.036 133.08 139.156V140.476H133.56V139.396 139.276C133.56 139.276 133.68 139.276 133.68 139.156 133.8 139.156 133.8 139.156 133.92 139.156 133.92 139.156 134.04 139.156 134.16 139.156 134.16 139.276 134.28 139.396 134.28 139.396V140.476Z" fill-rule="evenodd"/><path transform="matrix(1,0,0,-1,0,595.276)" d="M135.84 140.476H136.2V140.116H135.84V139.276 139.156L135.96 139.036H136.08L136.2 139.156 136.32 138.676C136.2 138.676 136.08 138.676 135.84 138.676 135.72 138.676 135.6 138.676 135.48 138.796 135.36 138.796 135.36 138.916 135.36 139.036V140.116H135V140.476H135.36V141.076L135.84 141.196V140.476Z" fill-rule="evenodd"/><path transform="matrix(1,0,0,-1,0,595.276)" d="M137.16 140.476C137.28 140.596 137.64 140.596 137.88 140.476 138 140.476 138.12 140.356 138.12 140.236 138.24 140.116 138.24 139.996 138.24 139.876V138.676H137.76V139.756C137.76 139.876 137.76 139.996 137.64 139.996 137.64 140.116 137.52 140.116 137.4 140.116 137.4 140.116 137.28 140.116 137.28 139.996 137.16 139.996 137.16 139.876 137.16 139.756V138.676H136.68V141.196H137.16V140.476Z" fill-rule="evenodd"/><path transform="matrix(1,0,0,-1,0,595.276)" d="M140.52 139.636C140.52 139.876 140.4 140.116 140.28 140.356 140.16 140.476 139.92 140.596 139.56 140.596 139.08 140.596 138.72 140.236 138.72 139.636 138.72 139.036 139.08 138.676 139.56 138.676 140.16 138.676 140.52 139.036 140.52 139.636ZM139.92 139.636C139.92 139.276 139.8 139.156 139.56 139.156 139.44 139.156 139.2 139.276 139.2 139.636 139.2 139.876 139.44 140.116 139.56 140.116 139.68 140.116 139.8 139.996 139.92 139.996 139.92 139.876 139.92 139.756 139.92 139.636Z" fill-rule="evenodd"/><path transform="matrix(1,0,0,-1,0,595.276)" d="M140.88 138.676V140.476H141.36V140.356C141.36 140.476 141.48 140.476 141.48 140.476 141.6 140.596 141.72 140.596 141.96 140.596V140.116C141.72 140.116 141.6 139.996 141.48 139.996 141.36 139.876 141.36 139.876 141.36 139.756V138.676H140.88Z" fill-rule="evenodd"/><path transform="matrix(1,0,0,-1,0,595.276)" d="M142.8 138.676V140.476H142.32V138.676Z" fill-rule="evenodd"/><path transform="matrix(1,0,0,-1,0,595.276)" d="M142.8 140.956C142.8 141.076 142.68 141.196 142.56 141.196 142.44 141.196 142.32 141.076 142.32 140.956 142.32 140.836 142.44 140.716 142.56 140.716 142.68 140.716 142.8 140.836 142.8 140.956Z" fill-rule="evenodd"/><path transform="matrix(1,0,0,-1,0,595.276)" d="M144.72 139.276C144.72 139.636 144.48 139.756 144.12 139.876 144 139.876 143.88 139.876 143.76 139.876V139.996C143.76 140.116 143.76 140.116 144 140.116 144.12 140.116 144.12 140.116 144.24 140.116L144.36 139.996 144.72 140.356C144.48 140.476 144.36 140.596 144 140.596 143.52 140.596 143.28 140.356 143.16 139.996 143.28 139.636 143.4 139.516 143.76 139.396 144 139.396 144.12 139.396 144.12 139.276V139.156L144 139.036C143.88 139.036 143.76 139.156 143.64 139.156 143.64 139.156 143.52 139.276 143.4 139.276L143.16 139.036C143.28 138.796 143.52 138.676 143.88 138.676 144.12 138.676 144.36 138.676 144.48 138.796 144.6 138.916 144.72 139.036 144.72 139.276Z" fill-rule="evenodd"/><path transform="matrix(1,0,0,-1,0,595.276)" d="M146.52 139.396C146.64 140.116 146.28 140.596 145.8 140.596 145.2 140.596 144.96 140.236 144.96 139.636 144.96 139.396 144.96 139.156 145.08 138.916 145.32 138.796 145.56 138.676 145.8 138.676 146.16 138.676 146.4 138.796 146.52 138.916L146.28 139.276C146.16 139.156 146.04 139.036 145.8 139.036 145.8 139.036 145.68 139.156 145.56 139.156 145.56 139.156 145.56 139.276 145.44 139.276V139.396H146.52ZM145.44 139.756V139.876C145.44 139.876 145.44 139.996 145.56 139.996 145.56 140.116 145.68 140.116 145.8 140.116 145.92 140.116 146.04 139.996 146.04 139.876H146.16V139.756H145.44Z" fill-rule="evenodd"/><path transform="matrix(1,0,0,-1,0,595.276)" d="M148.2 140.476V141.196H148.68V138.676H148.08V138.796C148.08 138.676 147.96 138.676 147.72 138.676 147.24 138.556 147 138.916 146.88 139.516V139.756C146.88 140.236 147.24 140.476 147.72 140.596 147.84 140.596 147.96 140.476 148.2 140.476ZM148.08 139.276V139.756 139.876 139.996C147.96 139.996 147.84 140.116 147.72 140.116 147.48 140.116 147.36 139.876 147.36 139.636 147.36 139.276 147.48 139.036 147.72 139.036 147.96 139.036 148.08 139.156 148.08 139.276Z" fill-rule="evenodd"/><path transform="matrix(1,0,0,-1,0,595.276)" d="M130.08 135.196 130.8 137.716H130.2L129.84 135.916 129.36 137.716H128.76L129.48 135.196H129.84Z" fill-rule="evenodd"/><path transform="matrix(1,0,0,-1,0,595.276)" d="M132.48 135.916C132.48 136.636 132.24 136.996 131.64 136.996 131.16 136.996 130.92 136.756 130.92 136.036 130.92 135.796 130.92 135.556 131.04 135.436 131.28 135.196 131.52 135.076 131.76 135.076 132.12 135.076 132.36 135.196 132.48 135.436L132.12 135.676C132.12 135.676 131.88 135.556 131.76 135.556 131.64 135.556 131.52 135.556 131.52 135.676 131.52 135.676 131.4 135.676 131.4 135.796V135.916H132.48ZM131.4 136.276V136.276C131.4 136.396 131.4 136.396 131.52 136.516L131.64 136.636C131.88 136.636 132 136.516 132 136.276H131.4Z" fill-rule="evenodd"/><path transform="matrix(1,0,0,-1,0,595.276)" d="M133.32 136.876C133.56 137.116 133.8 137.116 134.04 136.996 134.16 136.876 134.28 136.876 134.4 136.756 134.4 136.636 134.52 136.516 134.52 136.396V135.196H134.04V136.276C134.04 136.276 133.92 136.396 133.92 136.516 133.8 136.516 133.8 136.516 133.68 136.516 133.56 136.516 133.56 136.516 133.44 136.516 133.44 136.396 133.32 136.276 133.32 136.276V135.196H132.84V137.716H133.32V136.876Z" fill-rule="evenodd"/><path transform="matrix(1,0,0,-1,0,595.276)" d="M135.6 135.196V136.996H135.12V135.196Z" fill-rule="evenodd"/><path transform="matrix(1,0,0,-1,0,595.276)" d="M135.6 137.476C135.6 137.596 135.48 137.716 135.36 137.716 135.12 137.716 135 137.596 135 137.476 135 137.236 135.12 137.116 135.36 137.116 135.48 137.116 135.6 137.236 135.6 137.476Z" fill-rule="evenodd"/><path transform="matrix(1,0,0,-1,0,595.276)" d="M136.8 136.996C137.04 136.996 137.16 136.996 137.28 136.876 137.4 136.876 137.52 136.636 137.64 136.516L137.16 136.276C137.16 136.516 136.92 136.636 136.8 136.636 136.56 136.636 136.44 136.396 136.44 136.156V136.036 135.916C136.44 135.676 136.56 135.556 136.8 135.556 136.92 135.556 137.04 135.556 137.04 135.676 137.16 135.676 137.16 135.796 137.16 135.916L137.64 135.676C137.52 135.316 137.28 135.076 136.8 135.076 136.2 135.076 135.96 135.436 135.96 136.036 135.96 136.756 136.32 136.996 136.8 136.996Z" fill-rule="evenodd"/><path transform="matrix(1,0,0,-1,0,595.276)" d="M138.36 137.716V135.676C138.36 135.556 138.48 135.556 138.72 135.676V135.196H138.6C138.48 135.196 138.48 135.196 138.36 135.196 138.12 135.196 137.88 135.316 137.88 135.436V135.556 137.716H138.36Z" fill-rule="evenodd"/><path transform="matrix(1,0,0,-1,0,595.276)" d="M140.52 135.916C140.64 136.636 140.28 136.996 139.68 136.996 139.2 136.996 138.96 136.756 138.96 136.036 138.96 135.796 138.96 135.556 139.08 135.436 139.32 135.196 139.56 135.076 139.8 135.076 140.16 135.076 140.4 135.196 140.52 135.436L140.28 135.676C140.16 135.676 140.04 135.556 139.8 135.556 139.8 135.556 139.68 135.556 139.56 135.676 139.56 135.676 139.44 135.676 139.44 135.796V135.916H140.52ZM139.44 136.276V136.276C139.44 136.396 139.44 136.396 139.56 136.516 139.56 136.516 139.68 136.636 139.8 136.636 139.92 136.636 140.04 136.516 140.04 136.276H139.44Z" fill-rule="evenodd"/><path transform="matrix(1,0,0,-1,0,595.276)" d="M142.44 135.676C142.44 136.036 142.2 136.276 141.84 136.396 141.72 136.396 141.6 136.396 141.48 136.396V136.516 136.636C141.48 136.636 141.6 136.636 141.72 136.636 141.72 136.636 141.84 136.636 141.96 136.636 141.96 136.516 142.08 136.516 142.08 136.396L142.32 136.756C142.2 136.996 141.96 137.116 141.72 137.116 141.24 137.116 141 136.876 140.88 136.396 141 136.156 141.12 135.916 141.48 135.916 141.72 135.916 141.84 135.796 141.84 135.676V135.556C141.84 135.556 141.72 135.556 141.6 135.556 141.6 135.556 141.48 135.556 141.36 135.676 141.24 135.676 141.24 135.676 141.12 135.796L140.76 135.436C141 135.196 141.24 135.076 141.6 135.076 142.08 135.076 142.44 135.316 142.44 135.676Z" fill-rule="evenodd"/><path transform="matrix(1,0,0,-1,0,595.276)" d="M145.32 136.036C145.32 136.396 145.2 136.636 145.08 136.756 144.96 136.996 144.72 136.996 144.48 136.996 143.88 136.996 143.52 136.636 143.52 136.036 143.52 135.436 143.88 135.076 144.48 135.076 144.96 135.076 145.32 135.436 145.32 136.036ZM144.84 136.036C144.84 135.796 144.72 135.556 144.48 135.556 144.24 135.556 144.12 135.796 144.12 136.036 144.12 136.396 144.24 136.516 144.48 136.516 144.6 136.516 144.6 136.516 144.72 136.396 144.72 136.396 144.84 136.276 144.84 136.036Z" fill-rule="evenodd"/><path transform="matrix(1,0,0,-1,0,595.276)" d="M147.24 135.196V136.396C147.24 136.876 147 136.996 146.64 136.996 146.52 136.996 146.4 136.996 146.4 136.996 146.28 136.996 146.16 136.876 146.16 136.876V136.996H145.68V135.196H146.16V136.276C146.16 136.516 146.28 136.516 146.52 136.636 146.64 136.516 146.76 136.516 146.76 136.276V135.196H147.24Z" fill-rule="evenodd"/><path transform="matrix(1,0,0,-1,0,595.276)" d="M148.2 137.716V135.676C148.2 135.556 148.32 135.556 148.56 135.676V135.196H148.44C148.44 135.196 148.32 135.196 148.2 135.196 147.96 135.196 147.84 135.316 147.72 135.436V135.556 137.716H148.2Z" fill-rule="evenodd"/><path transform="matrix(1,0,0,-1,0,595.276)" d="M150.48 136.996H150L149.64 135.916 149.28 136.996H148.8L149.28 135.316 149.4 135.196V135.076H149.28 149.16C149.04 135.076 149.04 135.076 148.92 135.076V134.596C149.04 134.596 149.28 134.596 149.52 134.596 149.52 134.596 149.64 134.596 149.64 134.716 149.76 134.716 149.76 134.836 149.76 134.836L150.48 136.996Z" fill-rule="evenodd"/><path transform="matrix(1,0,0,-1,0,595.276)" d="M143.16 131.116V132.196H138.36L139.56 133.396H137.88L136.08 131.716 137.88 129.916H139.56L138.36 131.116Z" fill-rule="evenodd"/><path transform="matrix(1,0,0,-1,0,595.276)" d="M136.08 127.276H137.04L136.8 127.036 136.56 126.796 136.32 126.556 135.96 126.316 136.2 126.196 136.56 126.436V125.116H136.92V126.436L137.28 126.196 137.52 126.316 137.28 126.556 136.92 126.796 137.28 127.156 137.4 127.516H136.92V127.996 128.116H136.8 136.56V127.516H136.08Z" fill-rule="evenodd"/><path transform="matrix(1,0,0,-1,0,595.276)" d="M137.52 127.876V125.596L137.28 125.476 137.4 125.236V125.116 125.236H137.52L138.24 125.596V125.836L137.88 125.716V126.796H138.24V126.316L138.36 125.836 138.48 125.476 138.6 125.236 138.72 125.116H138.84 138.96V125.236L139.08 125.356V125.476 125.716L138.96 125.836 138.84 125.596V125.476L138.72 125.596 138.6 125.836V126.196L138.48 126.436V126.796H139.08V127.036H138.48V127.756H138.84 138.96V127.876L138.72 128.116 138.24 127.996 137.76 127.876H137.52ZM137.88 127.036V127.636H138.24V127.036H137.88Z" fill-rule="evenodd"/><path transform="matrix(1,0,0,-1,0,595.276)" d="M140.52 127.156 140.76 127.396 140.52 127.636 140.28 127.876 140.04 127.636 140.28 127.396Z" fill-rule="evenodd"/><path transform="matrix(1,0,0,-1,0,595.276)" d="M140.04 125.476 140.28 125.356H140.4L140.64 125.836 140.88 126.316 140.64 126.556 140.4 125.956Z" fill-rule="evenodd"/><path transform="matrix(1,0,0,-1,0,595.276)" d="M140.64 126.916 140.88 126.676 141.12 127.036V125.116H141.48V125.356H143.16V125.596H142.32V125.956H142.92V126.196H142.32V126.556H142.92V126.796H142.32V127.156H143.04V127.516H142.32L142.56 127.756V127.876H142.68 142.56L142.44 127.996H142.2L141.96 127.516H141.48L141.6 127.876H141.72V127.996H141.6L141.36 128.116 141.24 127.756 141 127.516 140.88 127.156 140.64 126.916ZM141.48 126.196V126.556H142.08V126.196H141.48ZM141.48 126.796V127.156H142.08V126.796H141.48ZM141.48 125.596V125.956H142.08V125.596H141.48Z" fill-rule="evenodd"/><path transform="matrix(1,0,0,-1,0,595.276)" d="M128.04 123.196V122.956H128.88V123.196Z" fill-rule="evenodd"/><path transform="matrix(1,0,0,-1,0,595.276)" d="M127.92 122.836V122.596H129.12V122.836Z" fill-rule="evenodd"/><path transform="matrix(1,0,0,-1,0,595.276)" d="M128.04 122.356V122.116H128.88V122.356Z" fill-rule="evenodd"/><path transform="matrix(1,0,0,-1,0,595.276)" d="M128.04 121.876V121.636H128.88V121.876Z" fill-rule="evenodd"/><path transform="matrix(1,0,0,-1,0,595.276)" d="M127.92 120.316H128.28V120.556H128.64V120.436H129V121.396H127.92V120.316ZM128.28 120.796V121.156H128.64V120.796H128.28Z" fill-rule="evenodd"/><path transform="matrix(1,0,0,-1,0,595.276)" d="M129 122.356 129.24 122.236 129.6 122.596V122.716L129.36 122.836Z" fill-rule="evenodd"/><path transform="matrix(1,0,0,-1,0,595.276)" d="M129 120.676 129.24 120.556 129.36 120.916 129.48 121.276 129.24 121.396 129.12 121.036Z" fill-rule="evenodd"/><path transform="matrix(1,0,0,-1,0,595.276)" d="M130.32 121.276 130.44 121.516 130.32 121.756 130.08 121.876 129.84 121.636 130.08 121.516Z" fill-rule="evenodd"/><path transform="matrix(1,0,0,-1,0,595.276)" d="M129.6 121.516V120.796 120.556L129.72 120.436 129.84 120.316H129.96 130.2 130.32L130.44 120.436 130.56 120.556 130.68 120.676V120.796L130.32 120.916V120.796 120.676H130.2 130.08 129.96L129.84 120.796V120.916 121.396L129.96 121.516H129.84 129.72Z" fill-rule="evenodd"/><path transform="matrix(1,0,0,-1,0,595.276)" d="M130.8 120.796 131.04 120.916 130.92 121.276 130.68 121.516 130.44 121.396 130.68 121.036Z" fill-rule="evenodd"/><path transform="matrix(1,0,0,-1,0,595.276)" d="M129.84 122.956 129.72 122.596 129.6 122.356 129.36 122.116 129.12 121.876 129.36 121.756 129.72 121.996 129.84 122.236 129.96 122.596 130.08 122.956H130.44V122.716 122.356 122.236H130.32L130.2 122.116H129.96L130.08 121.876H130.32L130.44 121.996H130.56L130.68 122.236 130.8 122.356V122.716 123.196H129.24V122.956Z" fill-rule="evenodd"/><path transform="matrix(1,0,0,-1,0,595.276)" d="M132 123.196V122.836H134.16V120.916 120.796L134.04 120.676H133.56L133.8 120.316H133.92 134.16 134.28V120.436H134.4L134.52 120.556V120.676 120.796 120.916 122.836H135V123.196Z" fill-rule="evenodd"/><path transform="matrix(1,0,0,-1,0,595.276)" d="M132.48 122.476V121.036H132.72V121.276H133.32V121.156H133.68V122.476H132.48ZM132.72 121.516V122.116H133.32V121.516H132.72Z" fill-rule="evenodd"/><path transform="matrix(1,0,0,-1,0,595.276)" d="M136.2 123.076V122.836H137.4V122.596H136.56V121.276H137.4V121.036H136.08V120.796H137.4V120.316H137.64V120.796H139.08V121.036H137.64V121.276H138.6V122.596H137.64V122.836H138.84V123.076H137.64V123.196H137.76V123.316L137.4 123.436V123.076H136.2ZM136.8 121.996V122.356H137.4V121.996H136.8ZM136.8 121.516V121.756H137.4V121.516H136.8ZM137.64 121.996V122.356H138.36V121.996H137.64ZM137.64 121.516V121.756H138.36V121.516H137.64Z" fill-rule="evenodd"/><path transform="matrix(1,0,0,-1,0,595.276)" d="M140.04 122.716H140.52V122.596H140.16V121.276H140.52V121.036H140.04V120.796H140.52V120.316H140.76V120.796H141.24V121.036H140.76V121.276H141.24V122.596H140.76V122.716H141.24V123.076H140.76V123.196L140.88 123.316H140.76 140.52V123.076H140.04V122.716ZM140.76 122.116V122.236H141V122.116H140.76ZM140.76 121.516V121.756H141V121.516H140.76ZM140.4 122.116V122.236H140.52V122.116H140.4ZM140.4 121.516V121.756H140.52V121.516H140.4Z" fill-rule="evenodd"/><path transform="matrix(1,0,0,-1,0,595.276)" d="M141.36 122.836H142.08V122.596H141.36V120.316H141.72V121.036L141.84 121.276 141.96 121.156V121.036L142.08 121.156V120.436H142.44V121.156L142.56 121.036V121.276L142.68 121.036 142.8 121.156V120.796 120.676 120.556H142.68 142.56L142.68 120.316H142.8 142.92 143.04L143.16 120.436V120.556 122.596H142.44V122.836H143.16V123.196H141.36V122.836ZM141.72 121.276V121.756H141.84L141.72 121.516V121.276ZM142.44 121.276V121.756H142.56V121.516L142.44 121.276ZM142.8 121.996H142.44V122.236H142.8V121.276 121.516 121.996ZM142.08 121.996H141.72V122.236H142.08V121.276 121.516 121.996Z" fill-rule="evenodd"/><path transform="matrix(1,0,0,-1,0,595.276)" d="M144.12 121.996 144.36 121.756 144.48 121.996V120.316H144.84V122.596L145.08 123.076V123.196L144.84 123.316 144.6 122.956 144.48 122.596 144.24 122.236Z" fill-rule="evenodd"/><path transform="matrix(1,0,0,-1,0,595.276)" d="M145.08 122.956V122.716H145.92V122.476H145.2V121.396H145.44V121.516H145.92V121.276L145.8 121.156 145.56 121.396 145.32 121.276 145.44 121.036 145.68 120.916 145.32 120.676H144.96L145.08 120.316 145.56 120.436 145.8 120.676 146.16 120.556 146.4 120.436 146.76 120.316H147L147.24 120.676H146.88 146.64L146.28 120.796 146.04 120.916 146.16 121.156 146.28 121.516H146.64V121.276H147V122.476H146.28V122.716H147.12V122.956H146.28V123.196 123.316H145.92V122.956H145.08ZM146.28 122.116H146.64V121.756H146.28V122.116ZM145.44 121.756V122.116H145.92V121.756H145.44Z" fill-rule="evenodd"/><path transform="matrix(1,0,0,-1,0,595.276)" d="M148.68 123.196V122.356L148.56 121.756V121.156L148.44 120.796 148.2 120.556 148.56 120.316 148.68 120.556 148.8 120.796V121.036L148.92 121.396H149.64V120.556H149.88V121.396H150.6V120.916 120.796 120.676H150.48 150.24L150.36 120.316H150.48 150.72L150.84 120.436 150.96 120.556V120.796 123.196H148.68ZM148.92 122.476V122.956H149.64V122.476H148.92ZM149.64 121.636H148.92V122.116H149.64V121.636ZM149.88 122.476V122.956H150.6V122.476H149.88ZM149.88 121.636V122.116H150.6V121.636H149.88Z" fill-rule="evenodd"/></g></svg>