<?xml version='1.0' encoding='UTF-8'?>
<svg width="330.48" height="257.28" viewBox="118.65 7.08 330.48 257.28" xmlns="http://www.w3.org/2000/svg" xmlns:xlink="http://www.w3.org/1999/xlink" xmlns:inkscape="http://www.inkscape.org/namespaces/inkscape" version="1.1"><g transform="scale(10.0) translate(-111.171, -101.088)"><defs><clipPath id="clip_2"><path transform="matrix(1,0,0,-1,0,595.276)" d="M74.4 .196H767.4V595.276H74.4Z"/></clipPath></defs><path transform="matrix(1,0,0,-1,0,595.276)" d="M124.92 493.156H154.2C154.68 493.156 155.04 492.916 155.28 492.676 155.64 492.316 155.76 491.956 155.76 491.596V469.636C155.76 469.396 155.76 469.276 155.64 469.036 155.64 468.916 155.52 468.676 155.28 468.556 155.16 468.436 155.04 468.316 154.8 468.196 154.68 468.076 154.44 468.076 154.2 468.076H124.92C124.56 468.076 124.2 468.196 123.84 468.556 123.6 468.796 123.36 469.276 123.36 469.636V491.596C123.36 492.436 124.08 493.156 124.92 493.156Z" fill-rule="evenodd"/><path transform="matrix(1,0,0,-1,0,595.276)" d="M124.92 492.316H154.2C154.32 492.316 154.44 492.316 154.56 492.316 154.68 492.196 154.68 492.196 154.8 492.076 154.92 492.076 154.92 491.956 154.92 491.836 155.04 491.716 155.04 491.716 155.04 491.596V469.636C155.04 469.396 154.92 469.276 154.8 469.036 154.68 468.916 154.44 468.796 154.2 468.796H124.92C124.8 468.796 124.56 468.916 124.44 469.036 124.2 469.276 124.2 469.396 124.2 469.636V491.596C124.2 491.956 124.56 492.316 124.92 492.316Z" fill="#ffffff" fill-rule="evenodd"/><path transform="matrix(1,0,0,-1,0,595.276)" d="M129.6 488.476H130.44 130.56C130.92 488.476 131.16 488.836 131.16 489.316 131.16 489.796 130.92 490.156 130.56 490.276H130.44 129V487.396H129.6V488.476ZM129.6 488.956V489.796H130.2 130.32C130.44 489.676 130.56 489.556 130.56 489.316 130.56 489.196 130.44 488.956 130.32 488.956H130.2 129.6Z" fill-rule="evenodd"/><path transform="matrix(1,0,0,-1,0,595.276)" d="M133.56 488.356C133.56 489.076 133.2 489.556 132.48 489.556 132.12 489.556 131.88 489.436 131.76 489.196 131.52 489.076 131.52 488.716 131.52 488.356 131.52 487.636 131.88 487.276 132.48 487.276 133.2 487.276 133.56 487.636 133.56 488.356ZM132.96 488.356C132.96 488.236 132.84 488.116 132.84 487.996 132.72 487.876 132.6 487.876 132.48 487.876 132.24 487.876 132.12 487.996 132.12 488.356 132.12 488.716 132.24 488.956 132.48 488.956 132.72 488.956 132.96 488.716 132.96 488.356Z" fill-rule="evenodd"/><path transform="matrix(1,0,0,-1,0,595.276)" d="M135.6 487.996C135.6 488.356 135.36 488.596 134.88 488.716 134.76 488.716 134.64 488.716 134.64 488.716 134.52 488.716 134.52 488.836 134.52 488.836 134.52 488.956 134.52 489.076 134.76 489.076 134.88 489.076 135 489.076 135 488.956 135.12 488.956 135.12 488.836 135.24 488.836L135.6 489.196C135.48 489.436 135.12 489.556 134.76 489.556 134.16 489.556 133.92 489.316 133.92 488.836 133.92 488.476 134.16 488.236 134.52 488.236 134.88 488.116 135 488.116 135 487.996 135 487.876 135 487.876 134.88 487.876 134.88 487.756 134.88 487.756 134.76 487.756 134.64 487.756 134.52 487.756 134.4 487.876 134.28 487.876 134.28 487.996 134.16 488.116L133.8 487.636C133.92 487.396 134.28 487.276 134.76 487.276 135 487.276 135.24 487.276 135.36 487.396 135.48 487.636 135.6 487.756 135.6 487.996Z" fill-rule="evenodd"/><path transform="matrix(1,0,0,-1,0,595.276)" d="M136.68 489.436H137.28V488.956H136.68V487.996C136.68 487.996 136.68 487.876 136.8 487.876 136.8 487.756 136.8 487.756 136.92 487.756H137.04C137.04 487.756 137.16 487.756 137.16 487.876L137.28 487.396C137.16 487.276 137.04 487.276 136.68 487.276 136.56 487.276 136.44 487.276 136.32 487.396 136.2 487.516 136.2 487.636 136.08 487.756V488.956H135.84V489.436H136.08V490.036L136.68 490.276V489.436Z" fill-rule="evenodd"/><path transform="matrix(1,0,0,-1,0,595.276)" d="M142.68 487.396V488.956H143.16V489.436H142.68V489.676 489.796H142.8 142.92C143.04 489.796 143.16 489.796 143.16 489.796L143.28 490.276C143.16 490.276 143.04 490.276 142.8 490.276 142.68 490.276 142.44 490.276 142.32 490.156 142.2 490.156 142.2 490.036 142.2 489.796V489.436H141.84V488.956H142.2V487.396H142.68Z" fill-rule="evenodd"/><path transform="matrix(1,0,0,-1,0,595.276)" d="M144.36 487.396V488.956H144.84V489.436H144.36V489.676 489.796H144.48 144.6C144.72 489.796 144.72 489.796 144.84 489.796L144.96 490.276C144.84 490.276 144.72 490.276 144.48 490.276 144.24 490.276 144.12 490.276 144 490.156 143.88 490.156 143.88 490.036 143.76 489.796V489.436H143.52V488.956H143.76V487.396H144.36Z" fill-rule="evenodd"/><path transform="matrix(1,0,0,-1,0,595.276)" d="M145.92 487.396V489.436H145.32V487.396Z" fill-rule="evenodd"/><path transform="matrix(1,0,0,-1,0,595.276)" d="M145.92 489.916C145.92 490.156 145.8 490.276 145.56 490.276 145.44 490.276 145.32 490.156 145.32 489.916 145.32 489.796 145.44 489.676 145.56 489.676 145.8 489.676 145.92 489.796 145.92 489.916Z" fill-rule="evenodd"/><path transform="matrix(1,0,0,-1,0,595.276)" d="M147.24 489.556C147.48 489.556 147.72 489.436 147.84 489.316 148.08 489.316 148.2 489.076 148.2 488.836L147.72 488.716C147.72 488.836 147.48 488.956 147.24 488.956 147 488.956 146.88 488.836 146.88 488.476V488.356 488.236C146.88 487.996 147.12 487.756 147.36 487.756 147.48 487.756 147.48 487.756 147.6 487.876 147.72 487.876 147.72 487.996 147.72 488.116L148.2 487.996C148.08 487.516 147.84 487.276 147.36 487.276 146.64 487.276 146.28 487.636 146.28 488.356 146.4 489.076 146.64 489.556 147.24 489.556Z" fill-rule="evenodd"/><path transform="matrix(1,0,0,-1,0,595.276)" d="M150.48 488.236C150.48 489.076 150.12 489.436 149.4 489.556 148.92 489.556 148.56 489.196 148.56 488.356 148.56 488.116 148.56 487.876 148.8 487.636 148.92 487.396 149.28 487.276 149.52 487.276 149.88 487.276 150.24 487.396 150.36 487.636L150 487.996C150 487.876 149.76 487.756 149.52 487.756 149.52 487.756 149.4 487.756 149.28 487.876 149.16 487.876 149.16 487.996 149.16 487.996 149.16 488.116 149.16 488.116 149.16 488.236H150.48ZM149.04 488.596V488.596C149.16 488.716 149.16 488.836 149.28 488.836 149.28 488.956 149.4 488.956 149.52 488.956 149.64 488.956 149.88 488.836 149.88 488.716V488.596H149.04Z" fill-rule="evenodd"/><path transform="matrix(1,0,0,-1,0,595.276)" d="M140.16 490.396C141 490.396 141.48 489.796 141.48 488.836 141.48 488.356 141.36 487.996 141.12 487.636 140.88 487.396 140.52 487.276 140.16 487.276 139.68 487.276 139.32 487.396 139.08 487.636 138.84 487.996 138.72 488.356 138.72 488.836 138.72 489.196 138.84 489.676 139.08 489.916 139.32 490.156 139.68 490.396 140.16 490.396ZM140.88 488.836C140.88 489.076 140.88 489.316 140.64 489.436 140.52 489.676 140.4 489.676 140.16 489.676 139.68 489.676 139.32 489.316 139.32 488.836 139.32 488.236 139.68 487.876 140.16 487.876 140.64 487.876 140.88 488.236 140.88 488.836Z" fill-rule="evenodd"/><path transform="matrix(1,0,0,-1,0,595.276)" d="M128.64 483.196 129.36 486.076H128.76L128.16 484.156 127.68 486.076H127.08L127.8 483.196H128.16Z" fill-rule="evenodd"/><path transform="matrix(1,0,0,-1,0,595.276)" d="M131.4 484.036C131.4 484.876 131.04 485.356 130.44 485.356 129.84 485.356 129.48 484.996 129.48 484.276 129.48 484.036 129.48 483.676 129.72 483.556 129.84 483.316 130.2 483.196 130.44 483.196 130.8 483.076 131.16 483.316 131.28 483.556L130.92 483.916C130.92 483.796 130.68 483.676 130.44 483.676 130.44 483.676 130.32 483.676 130.2 483.796 130.08 483.796 130.08 483.916 130.08 483.916V484.036H131.4ZM130.08 484.516V484.516C130.08 484.636 130.08 484.636 130.2 484.756 130.2 484.876 130.32 484.876 130.44 484.876 130.56 484.876 130.8 484.756 130.8 484.516H130.08Z" fill-rule="evenodd"/><path transform="matrix(1,0,0,-1,0,595.276)" d="M132.36 485.236C132.6 485.476 132.96 485.476 133.2 485.356 133.32 485.236 133.44 485.116 133.56 484.996 133.68 484.876 133.68 484.756 133.68 484.636V483.196H133.08V484.516C133.08 484.516 133.08 484.636 132.96 484.756 132.96 484.756 132.84 484.876 132.72 484.876 132.6 484.876 132.6 484.756 132.48 484.756L132.36 484.636V484.516 483.196H131.76V486.076H132.36V485.236Z" fill-rule="evenodd"/><path transform="matrix(1,0,0,-1,0,595.276)" d="M134.88 483.196V485.356H134.28V483.196Z" fill-rule="evenodd"/><path transform="matrix(1,0,0,-1,0,595.276)" d="M134.88 485.836C134.88 486.076 134.76 486.196 134.64 486.196 134.4 486.196 134.28 486.076 134.28 485.836 134.28 485.716 134.4 485.476 134.64 485.476 134.76 485.476 134.88 485.716 134.88 485.836Z" fill-rule="evenodd"/><path transform="matrix(1,0,0,-1,0,595.276)" d="M136.32 485.356C136.56 485.356 136.68 485.356 136.92 485.236 137.04 485.116 137.16 484.996 137.16 484.756L136.8 484.516C136.68 484.756 136.56 484.876 136.32 484.876 136.08 484.876 135.84 484.756 135.84 484.396V484.276 484.156C135.96 483.796 136.08 483.676 136.32 483.676 136.44 483.676 136.56 483.676 136.56 483.796 136.68 483.796 136.68 483.916 136.8 484.036L137.28 483.796C137.16 483.316 136.8 483.076 136.32 483.196 135.6 483.196 135.24 483.556 135.24 484.276 135.36 484.996 135.72 485.356 136.32 485.356Z" fill-rule="evenodd"/><path transform="matrix(1,0,0,-1,0,595.276)" d="M138.12 486.076V483.916 483.796C138.12 483.676 138.24 483.676 138.48 483.796V483.196H138.36C138.36 483.196 138.24 483.196 138.12 483.196 137.76 483.196 137.52 483.316 137.52 483.556V483.676 486.076H138.12Z" fill-rule="evenodd"/><path transform="matrix(1,0,0,-1,0,595.276)" d="M140.76 484.036C140.76 484.876 140.4 485.356 139.8 485.356 139.2 485.356 138.84 484.996 138.84 484.276 138.84 484.036 138.84 483.676 139.08 483.556 139.2 483.316 139.56 483.196 139.8 483.196 140.16 483.076 140.52 483.316 140.64 483.556L140.28 483.916C140.28 483.796 140.04 483.676 139.8 483.676 139.8 483.676 139.68 483.676 139.56 483.796 139.44 483.796 139.44 483.916 139.44 483.916V484.036H140.76ZM139.44 484.516V484.516C139.44 484.636 139.44 484.636 139.56 484.756 139.56 484.876 139.68 484.876 139.8 484.876 139.92 484.876 140.16 484.756 140.16 484.516H139.44Z" fill-rule="evenodd"/><path transform="matrix(1,0,0,-1,0,595.276)" d="M142.8 483.916C142.8 484.276 142.68 484.516 142.2 484.636 141.96 484.636 141.84 484.636 141.84 484.636 141.72 484.636 141.72 484.756 141.72 484.756 141.72 484.876 141.84 484.876 141.96 484.876 142.08 484.876 142.2 484.876 142.32 484.876 142.32 484.876 142.44 484.756 142.44 484.636L142.8 485.116C142.68 485.356 142.44 485.476 142.08 485.476 141.48 485.476 141.12 485.236 141.12 484.636 141.12 484.276 141.36 484.156 141.72 484.036 142.08 484.036 142.2 484.036 142.2 483.796V483.676C142.08 483.676 142.08 483.676 141.96 483.676 141.84 483.676 141.72 483.676 141.72 483.796 141.6 483.796 141.48 483.916 141.36 483.916L141 483.556C141.24 483.316 141.6 483.196 141.96 483.196 142.2 483.196 142.44 483.196 142.56 483.316 142.8 483.436 142.8 483.676 142.8 483.916Z" fill-rule="evenodd"/><path transform="matrix(1,0,0,-1,0,595.276)" d="M146.28 484.276C146.28 484.996 145.92 485.356 145.2 485.356 144.84 485.356 144.6 485.356 144.48 485.116 144.24 484.876 144.24 484.636 144.24 484.276 144.24 483.556 144.6 483.196 145.2 483.196 145.92 483.196 146.28 483.556 146.28 484.276ZM145.68 484.276C145.68 484.156 145.56 483.916 145.56 483.916 145.44 483.796 145.32 483.676 145.2 483.676 144.96 483.676 144.84 483.916 144.84 484.276 144.84 484.636 144.96 484.876 145.2 484.876 145.44 484.876 145.68 484.636 145.68 484.276Z" fill-rule="evenodd"/><path transform="matrix(1,0,0,-1,0,595.276)" d="M148.56 483.196V484.636 484.756C148.56 485.116 148.2 485.356 147.72 485.356 147.6 485.356 147.48 485.356 147.48 485.356 147.36 485.356 147.24 485.236 147.24 485.236V485.356H146.64V483.196H147.24V484.516C147.24 484.756 147.36 484.876 147.6 484.876 147.84 484.876 147.96 484.756 147.96 484.516V484.396 483.196H148.56Z" fill-rule="evenodd"/><path transform="matrix(1,0,0,-1,0,595.276)" d="M149.64 486.076V483.916 483.796C149.64 483.676 149.76 483.676 150 483.796L150.12 483.196C150.12 483.196 150 483.196 149.88 483.196 149.88 483.196 149.76 483.196 149.64 483.196 149.4 483.196 149.16 483.316 149.04 483.556V483.676 486.076H149.64Z" fill-rule="evenodd"/><path transform="matrix(1,0,0,-1,0,595.276)" d="M152.28 485.356H151.68L151.2 484.036 150.84 485.356H150.24L150.84 483.436C150.84 483.316 150.96 483.316 150.96 483.196 150.96 483.076 150.84 483.076 150.84 483.076 150.72 483.076 150.72 483.076 150.6 483.076H150.48L150.36 482.596C150.6 482.596 150.84 482.476 151.08 482.476 151.2 482.476 151.2 482.596 151.32 482.596 151.32 482.716 151.44 482.836 151.44 482.956L152.28 485.356Z" fill-rule="evenodd"/><path transform="matrix(1,0,0,-1,0,595.276)" d="M141.6 481.156 143.76 479.116 141.6 477.076H139.56L141 478.396H135.48V479.836H141L139.56 481.156Z" fill-rule="evenodd"/><path transform="matrix(1,0,0,-1,0,595.276)" d="M125.52 473.836H126.72L126.48 473.596 126.12 473.236 125.88 472.996 125.4 472.756 125.64 472.516 126.24 472.876V471.196H126.6V472.876L127.08 472.516 127.32 472.756 126.96 472.996 126.6 473.236 126.96 473.596 127.2 474.076 127.08 474.196H126.6V474.676 474.796 474.916H126.48 126.24V474.196H125.52Z" fill-rule="evenodd"/><path transform="matrix(1,0,0,-1,0,595.276)" d="M127.32 474.676V471.796H127.08V471.436L127.2 471.316 127.32 471.436 128.28 471.796V472.156L127.68 471.916V473.236H128.16L128.28 472.636V472.156L128.52 471.796 128.64 471.436 128.76 471.316H128.88 129L129.12 471.436V471.556L129.24 471.676V471.916L129 472.156V471.916L128.88 471.796 128.76 471.916 128.64 472.156V472.516L128.52 472.876V473.236H129.12V473.596H128.52V474.436H128.88 129L129.12 474.556 129 474.676 128.76 474.796 128.16 474.676 127.56 474.556 127.32 474.676ZM127.68 473.596V474.196L128.16 474.316V473.596H127.68Z" fill-rule="evenodd"/><path transform="matrix(1,0,0,-1,0,595.276)" d="M130.92 473.716 131.28 473.956 130.92 474.316 130.68 474.556 130.44 474.316 130.68 473.956Z" fill-rule="evenodd"/><path transform="matrix(1,0,0,-1,0,595.276)" d="M130.32 471.676 130.56 471.556H130.68V471.436L130.8 471.556 131.04 472.156 131.4 472.636 131.16 472.996 130.8 472.276Z" fill-rule="evenodd"/><path transform="matrix(1,0,0,-1,0,595.276)" d="M131.04 473.356 131.28 473.116 131.76 473.596V471.316H132.12V471.556H134.04V471.916H133.08V472.276H133.8V472.636H133.08V472.996H133.8V473.356H133.08V473.716H134.04V474.076H133.08L133.32 474.556H133.44V474.676H133.32L132.96 474.796 132.72 474.076H132L132.24 474.556H132.36V474.676L132.24 474.796 132 474.916 131.76 474.436 131.52 474.076 131.28 473.716 131.04 473.356ZM132.12 472.636V472.996H132.72V472.636H132.12ZM132.12 473.356V473.716H132.72V473.356H132.12ZM132.12 471.916V472.276H132.72V471.916H132.12Z" fill-rule="evenodd"/><path transform="matrix(1,0,0,-1,0,595.276)" d="M135.36 474.556 135.6 474.196 136.2 474.316V473.956H135.48V473.596H135.6V473.236H135.24V472.996H135.6V472.516H135.48V472.276H136.2V471.916L135.24 471.796 135.36 471.556V471.436 471.316H135.48V471.436L137.52 471.676V472.036L136.56 471.916V472.276H137.4V472.516H137.16V472.996H137.4V473.236H137.16V473.596H137.4V473.956H136.56V474.436H136.92L137.16 474.556H137.28 137.4 137.28V474.676L137.16 474.916 136.32 474.676 135.36 474.556ZM136.56 473.236V473.596H136.8V473.236H136.56ZM135.96 473.236V473.596H136.2V473.236H135.96ZM136.56 472.516V472.996H136.8V472.516H136.56ZM135.96 472.516V472.996H136.2V472.516H135.96Z" fill-rule="evenodd"/><path transform="matrix(1,0,0,-1,0,595.276)" d="M138 472.156V472.156L138.24 471.796 138.48 471.916 138.72 472.036 138.84 472.276 138.96 472.516V472.756L138.84 472.996 138.72 473.236 138.48 473.476 138.96 474.556 138.6 474.796V474.676H137.64V471.316H138V472.156ZM138 472.156V474.316H138.48L138.12 473.476 138.36 473.116 138.6 472.756V472.516L138.48 472.276H138.36L138 472.156Z" fill-rule="evenodd"/><path transform="matrix(1,0,0,-1,0,595.276)" d="M140.4 474.556V474.196H141.84V473.956H140.76V472.396H141.84V472.156H140.28V471.796H141.84V471.316H142.2V471.796H143.76V472.156H142.2V472.396H143.28V473.956H142.2V474.196H143.52V474.556H142.2V474.676 474.796 474.916H141.84V474.556H140.4ZM141.12 473.356V473.596H141.84V473.356H141.12ZM141.12 472.756V472.996H141.84V472.756H141.12ZM142.2 473.356V473.596H142.92V473.356H142.2ZM142.2 472.756V472.996H142.92V472.756H142.2Z" fill-rule="evenodd"/><path transform="matrix(1,0,0,-1,0,595.276)" d="M144.96 473.236 145.2 472.876 145.44 473.356V471.316H145.8V473.956L146.04 474.556H146.16V474.676L145.8 474.916 145.68 474.436 145.44 473.956 145.2 473.596Z" fill-rule="evenodd"/><path transform="matrix(1,0,0,-1,0,595.276)" d="M146.16 474.436V474.076H147.24V473.716H146.28V472.516H146.64V472.636H147.12V472.396L147 472.156 146.76 472.516 146.4 472.396 146.64 472.156 146.76 471.916 146.4 471.676 145.92 471.556 146.16 471.196 146.76 471.436 147.12 471.676 147.36 471.436 147.72 471.316H148.08 148.56L148.68 471.676H148.32 147.96L147.6 471.796 147.36 471.916 147.48 472.276V472.636H148.08V472.396H148.44V473.716H147.6V474.076H148.56V474.436H147.6V474.676 474.796 474.916H147.24V474.436H146.16ZM147.6 473.476H148.08V472.996H147.48L147.6 473.476ZM146.64 472.996V473.476H147.24V472.996H146.64Z" fill-rule="evenodd"/><path transform="matrix(1,0,0,-1,0,595.276)" d="M150.36 474.676V473.596 472.876L150.24 472.276 150.12 471.916 149.88 471.556 150.24 471.316 150.48 471.556 150.6 471.796 150.72 472.156V472.516H151.56V471.436H151.92V472.516H152.88V471.916 471.796L152.76 471.676H152.52 152.28L152.4 471.316H152.64 152.88L153.12 471.436 153.24 471.556V471.796 474.676H150.36ZM150.84 473.836V474.316H151.56V473.836H150.84ZM151.56 472.876H150.84V473.476H151.56V472.876ZM151.92 473.836V474.316H152.88V473.836H151.92ZM151.92 472.876V473.476H152.88V472.876H151.92Z" fill-rule="evenodd"/></g></svg>