<?xml version='1.0' encoding='UTF-8'?>
<svg width="308.42" height="255.62" viewBox="129.44 7.43 308.42 255.62" xmlns="http://www.w3.org/2000/svg" xmlns:xlink="http://www.w3.org/1999/xlink" xmlns:inkscape="http://www.inkscape.org/namespaces/inkscape" version="1.1"><g transform="scale(10.0) translate(-56.655, -397.296)"><path transform="matrix(1,0,0,-1,0,595.276)" d="M72.84 196.876H97.2C97.92 196.876 98.64 196.636 99.24 196.036 99.84 195.436 100.08 194.596 100.08 193.996V174.916C100.08 174.316 99.84 173.476 99.24 172.876 98.64 172.276 97.92 172.036 97.2 172.036H72.84C72.12 172.036 71.4 172.276 70.8 172.876 70.2 173.476 69.96 174.316 69.96 174.916V193.996C69.96 194.236 70.08 194.596 70.2 194.956 70.32 195.436 70.56 195.676 70.8 196.036 71.4 196.636 72.12 196.876 72.84 196.876Z" fill="#00ff00" fill-rule="evenodd"/><path transform="matrix(1,0,0,-1,0,595.276)" d="M92.4 174.556H97.68V175.756H93.72V177.916H97.08V179.236H93.72V181.276H97.44V182.476H92.4Z" fill="#ffffff" fill-rule="evenodd"/><path transform="matrix(1,0,0,-1,0,595.276)" d="M75.48 182.476V181.756H72.24V180.916H75.48V180.436H73.2V177.076L75.36 176.956 74.52 176.596 73.68 176.116 72.72 175.756 71.76 175.516 72.48 174.796 73.32 175.036 74.16 175.396 74.88 175.876 75.48 176.356V174.316H76.32V176.356L77.04 175.876 77.76 175.396 78.48 175.036 79.2 174.796 80.16 175.516 79.08 175.756 78.12 176.116 77.28 176.476 76.56 176.956H78.72V180.436H76.32V180.916H79.68V181.756H76.32V182.116L76.44 182.236 76.56 182.356H76.44L76.2 182.476H75.48ZM74.04 179.116V179.716H75.48V179.116H74.04ZM76.32 177.676V178.276H77.88V177.676H76.32ZM76.32 179.116V179.716H77.88V179.116H76.32ZM74.04 177.676V178.276H75.6V177.676H74.04Z" fill="#ffffff" fill-rule="evenodd"/><path transform="matrix(1,0,0,-1,0,595.276)" d="M85.68 174.076C86.88 174.316 87.96 175.036 88.8 176.116 89.64 177.196 90 178.516 90 179.716V182.836H81.24V179.716C81.24 178.516 81.6 177.196 82.44 176.116 83.28 175.036 84.48 174.316 85.68 174.076Z" fill="#ffff00" fill-rule="evenodd"/><path transform="matrix(1,0,0,-1,0,595.276)" d="M85.68 175.756C86.88 175.756 87.84 176.596 87.84 177.556 87.84 178.156 87.48 178.636 87.12 178.756V178.876C87.48 179.116 87.6 179.476 87.6 179.956 87.6 180.436 87.48 180.916 87.12 181.156 86.76 181.516 86.28 181.636 85.68 181.636 84.96 181.636 84.48 181.516 84.24 181.156 83.88 180.916 83.64 180.436 83.64 179.956 83.64 179.476 83.88 179.116 84.24 178.876V178.756C83.76 178.636 83.52 178.156 83.52 177.556 83.52 176.596 84.36 175.756 85.68 175.756ZM85.68 178.276C86.16 178.276 86.52 178.036 86.52 177.556 86.52 177.076 86.16 176.836 85.68 176.836 85.08 176.836 84.72 177.076 84.72 177.556 84.72 178.036 85.08 178.276 85.68 178.276ZM86.4 179.956C86.4 179.596 86.16 179.356 85.68 179.356 85.08 179.356 84.84 179.596 84.84 179.956 84.84 180.196 84.96 180.316 85.08 180.436 85.2 180.556 85.44 180.556 85.68 180.556 86.16 180.556 86.4 180.316 86.4 179.956Z" fill-rule="evenodd"/><path transform="matrix(1,0,0,-1,0,595.276)" d="M89.16 186.196C89.16 186.676 88.8 187.036 88.32 187.036 87.84 187.036 87.48 186.676 87.48 186.196 87.48 185.716 87.84 185.356 88.32 185.356 88.8 185.356 89.16 185.716 89.16 186.196Z" fill="#ffffff" fill-rule="evenodd"/><path transform="matrix(1,0,0,-1,0,595.276)" stroke-width=".12" stroke-linecap="butt" stroke-miterlimit="10" stroke-linejoin="miter" fill="none" stroke="#ffffff" d="M83.5 189.5V189.5"/><path transform="matrix(1,0,0,-1,0,595.276)" d="M83.52 189.316H82.32V190.516H83.28 83.4L83.52 190.636C84 190.756 84.36 191.356 84.12 191.836 84 192.436 83.52 192.796 82.92 192.796 82.56 192.796 82.08 192.676 81.72 192.436 81.36 192.076 81.24 191.596 81.24 191.236L79.68 191.596C79.68 192.196 80.04 192.796 80.64 193.396 81.24 193.876 82.08 194.116 82.92 194.116 84.12 194.116 85.2 193.516 85.68 192.436 85.92 191.476 85.44 190.516 84.72 190.036 85.68 189.316 86.04 188.116 85.68 187.036 85.2 185.956 84.12 185.236 82.92 185.356 82.08 185.356 81.24 185.596 80.64 186.076 80.04 186.676 79.68 187.276 79.8 187.876L81.24 188.236C81.12 187.396 81.84 186.676 82.68 186.676 83.04 186.676 83.4 186.676 83.76 187.036 84.12 187.276 84.24 187.636 84.24 187.876 84.36 188.236 84.24 188.596 84.12 188.836 83.88 189.196 83.64 189.316 83.52 189.316Z" fill="#ffffff" fill-rule="evenodd"/><path transform="matrix(1,0,0,-1,0,595.276)" d="M81.24 191.236V191.236Z" fill="#ffffff" fill-rule="evenodd"/><path transform="matrix(1,0,0,-1,0,595.276)" d="M81.24 188.236V188.236Z" fill="#ffffff" fill-rule="evenodd"/><path transform="matrix(1,0,0,-1,0,595.276)" d="M73.68 191.116H72.24V191.596C72.36 192.316 72.6 192.916 73.2 193.396 73.8 193.996 74.52 194.116 75.12 194.116 75.6 194.116 75.96 194.116 76.44 193.876 76.92 193.636 77.28 193.396 77.64 192.916 77.88 192.556 78.12 192.076 78.12 191.596 78.12 191.116 78 190.636 77.88 190.396V190.276C77.28 189.076 76.08 187.756 74.64 186.676H78V185.356H72.36V186.676C73.44 187.276 74.4 188.116 75.24 188.956 75.96 189.916 76.44 190.756 76.56 191.476 76.56 192.196 75.96 192.796 75.12 192.796 74.76 192.796 74.4 192.676 74.16 192.436 73.8 192.196 73.68 191.716 73.68 191.476V191.116Z" fill="#ffffff" fill-rule="evenodd"/><path transform="matrix(1,0,0,-1,0,595.276)" stroke-width=".12" stroke-linecap="butt" stroke-miterlimit="10" stroke-linejoin="miter" fill="none" stroke="#ffffff" d="M73.5 191.5 74.5 192.5"/><path transform="matrix(1,0,0,-1,0,595.276)" stroke-width=".12" stroke-linecap="butt" stroke-miterlimit="10" stroke-linejoin="miter" fill="none" stroke="#ffffff" d="M81.5 192.5V192.5"/><path transform="matrix(1,0,0,-1,0,595.276)" stroke-width=".12" stroke-linecap="butt" stroke-miterlimit="10" stroke-linejoin="miter" fill="none" stroke="#ffffff" d="M91.5 189.5V189.5"/><path transform="matrix(1,0,0,-1,0,595.276)" stroke-width=".12" stroke-linecap="butt" stroke-miterlimit="10" stroke-linejoin="miter" fill="none" stroke="#ffffff" d="M91.5 189.5V189.5"/><path transform="matrix(1,0,0,-1,0,595.276)" stroke-width=".12" stroke-linecap="butt" stroke-miterlimit="10" stroke-linejoin="miter" fill="none" stroke="#ffffff" d="M91.5 189.5V189.5"/><path transform="matrix(1,0,0,-1,0,595.276)" stroke-width=".12" stroke-linecap="butt" stroke-miterlimit="10" stroke-linejoin="miter" fill="none" stroke="#ffffff" d="M91.5 189.5V189.5"/><path transform="matrix(1,0,0,-1,0,595.276)" stroke-width=".12" stroke-linecap="butt" stroke-linejoin="round" fill="none" stroke="#ffffff" d="M91.08 189.676V189.676"/><path transform="matrix(1,0,0,-1,0,595.276)" stroke-width=".12" stroke-linecap="butt" stroke-miterlimit="10" stroke-linejoin="miter" fill="none" stroke="#ffffff" d="M91.5 189.5V189.5"/><path transform="matrix(1,0,0,-1,0,595.276)" d="M91.08 189.676V189.796 189.676C91.08 188.356 91.32 187.276 91.92 186.436 92.52 185.716 93.36 185.356 94.32 185.356 96.36 185.356 97.56 186.916 97.56 189.676 97.56 191.116 97.32 192.196 96.72 193.036 96.12 193.756 95.28 194.116 94.32 194.116 93.36 194.116 92.52 193.756 91.92 193.036 91.32 192.196 91.08 191.116 91.08 189.676ZM91.08 189.676V189.676ZM94.32 186.676C93.72 186.676 93.24 186.916 93 187.516 92.64 187.996 92.52 188.836 92.52 189.676 92.52 191.596 93.12 192.796 94.32 192.796 95.4 192.796 96.12 191.596 96.12 189.676 96.12 188.836 96 187.996 95.64 187.516 95.28 186.916 94.8 186.676 94.32 186.676Z" fill="#ffffff" fill-rule="evenodd"/></g></svg>