<?xml version='1.0' encoding='UTF-8'?>
<svg width="271.33" height="252.43" viewBox="149.69 9.77 271.33 252.43" xmlns="http://www.w3.org/2000/svg" xmlns:xlink="http://www.w3.org/1999/xlink" xmlns:inkscape="http://www.inkscape.org/namespaces/inkscape" version="1.1"><g transform="scale(10.0) translate(-602.205, -101.088)"><defs><clipPath id="clip_19"><path transform="matrix(0,1,1,0,0,0)" d="M0 19.875H595.008V822.117H0Z"/></clipPath><clipPath id="clip_20"><path transform="matrix(0,1,1,0,0,0)" d="M0 842.013H595.224V.008972168H0Z"/></clipPath></defs><path transform="matrix(0,1,1,0,642.081,102.402)" d="M0 0V-22.68C0-22.896 .054-23.13 .144-23.364 .234-23.598 .378-23.814 .558-24.012 .738-24.192 .972-24.336 1.206-24.426 1.44-24.516 1.674-24.57 1.89-24.57H22.68C22.914-24.57 23.148-24.516 23.382-24.426 23.616-24.336 23.832-24.192 24.012-24.012 24.21-23.814 24.336-23.598 24.444-23.364 24.534-23.13 24.57-22.896 24.57-22.68V0C24.57 .234 24.534 .468 24.444 .702 24.336 .936 24.21 1.152 24.012 1.332 23.832 1.53 23.616 1.674 23.382 1.764 23.148 1.854 22.896 1.89 22.68 1.89H1.89C1.386 1.89 .918 1.692 .558 1.332 .198 .99 0 .504 0 0" fill="#0000ff" fill-rule="evenodd"/><path transform="matrix(0,1,1,0,630.741,123.192)" d="M0 0C-.144 .576-.342 1.134-.576 1.692-.828 2.25-1.116 2.79-1.458 3.33-2.16 4.392-3.024 5.346-4.068 6.138-5.094 6.93-6.246 7.542-7.434 7.938-8.046 8.136-8.64 8.28-9.252 8.37-9.846 8.46-10.44 8.514-11.016 8.514H-17.01V-8.496H-11.016C-10.44-8.496-9.846-8.46-9.252-8.352-8.64-8.262-8.046-8.118-7.434-7.92-6.246-7.524-5.094-6.912-4.068-6.12-3.024-5.328-2.16-4.374-1.458-3.312-1.116-2.772-.828-2.232-.576-1.674-.342-1.116-.144-.558 0 0" fill="#ffff00" fill-rule="evenodd"/><path transform="matrix(0,1,1,0,626.835,112.464)" stroke-width=".144" stroke-linecap="round" stroke-linejoin="round" fill="none" stroke="#000000" d="M0 0V.018"/><path transform="matrix(0,1,1,0,626.835,112.464)" stroke-width=".144" stroke-linecap="round" stroke-linejoin="round" fill="none" stroke="#000000" d="M0 0V.018"/><path transform="matrix(0,1,1,0,626.835,112.464)" stroke-width=".144" stroke-linecap="round" stroke-linejoin="round" fill="none" stroke="#000000" d="M0 0V.018"/><path transform="matrix(0,1,1,0,626.835,112.464)" stroke-width=".144" stroke-linecap="round" stroke-linejoin="round" fill="none" stroke="#000000" d="M0 0V.018"/><path transform="matrix(0,1,1,0,626.835,112.464)" stroke-width=".144" stroke-linecap="round" stroke-linejoin="round" fill="none" stroke="#000000" d="M0 0V.018"/><path transform="matrix(0,1,1,0,626.835,112.464)" stroke-width=".144" stroke-linecap="round" stroke-linejoin="round" fill="none" stroke="#000000" d="M0 0V.018"/><path transform="matrix(0,1,1,0,626.835,112.464)" stroke-width=".144" stroke-linecap="round" stroke-linejoin="round" fill="none" stroke="#000000" d="M0 0V.018"/><path transform="matrix(0,1,1,0,626.835,112.464)" stroke-width=".144" stroke-linecap="round" stroke-linejoin="round" fill="none" stroke="#000000" d="M0 0V.018"/><path transform="matrix(0,1,1,0,626.835,112.464)" d="M0 0C-.018 0-.054 0-.072 0-.072 0-.09 0-.108 0-.126 0-.108 0-.144 0H.144C.108 0 .108 0 .072 0H0 .054C.072 0 .09 .018 .108 .018 .144 .018 .162 .018 .198 .018 .27 .018 .342 .018 .396 .036 .54 .036 .666 .054 .792 .09 1.044 .126 1.296 .198 1.53 .288 1.998 .45 2.43 .72 2.772 1.044 3.114 1.386 3.366 1.782 3.546 2.232 3.708 2.682 3.798 3.168 3.798 3.672 3.798 3.96 3.78 4.23 3.744 4.482 3.708 4.734 3.654 4.968 3.6 5.148 3.474 5.544 3.276 5.76 3.06 5.814 3.384 5.814 3.69 5.76 3.96 5.688 4.23 5.616 4.464 5.49 4.644 5.346 5.022 5.022 5.22 4.572 5.238 4.014 5.22 3.726 5.13 3.42 4.932 3.114 4.734 2.808 4.446 2.538 4.086 2.286L5.022 .378C5.76 .702 6.336 1.17 6.732 1.764 7.128 2.376 7.326 3.096 7.326 3.906 7.326 5.238 6.858 6.282 5.94 6.984 5.022 7.704 3.672 8.064 1.944 8.064-.036 8.064-1.53 7.704-2.52 6.966-3.51 6.228-4.014 5.112-4.014 3.654-4.014 3.168-3.924 2.682-3.726 2.232-3.528 1.782-3.24 1.368-2.844 1.026-2.466 .702-2.016 .45-1.53 .27-1.044 .108-.522 .018 0 0ZM-1.998 3.87C-1.998 4.356-1.818 4.77-1.476 5.076-1.152 5.382-.684 5.562-.144 5.562 .09 5.562 .342 5.526 .576 5.436 .792 5.364 1.008 5.238 1.188 5.076 1.35 4.932 1.494 4.734 1.584 4.518 1.656 4.32 1.71 4.086 1.71 3.87 1.71 3.384 1.512 2.97 1.188 2.664 .846 2.358 .378 2.178-.144 2.178-.684 2.178-1.152 2.358-1.476 2.664-1.818 2.97-1.998 3.384-1.998 3.87" fill-rule="evenodd"/></g></svg>