<?xml version='1.0' encoding='UTF-8'?>
<svg width="280.49" height="248.50" viewBox="144.45 10.03 280.49 248.50" xmlns="http://www.w3.org/2000/svg" xmlns:xlink="http://www.w3.org/1999/xlink" xmlns:inkscape="http://www.inkscape.org/namespaces/inkscape" version="1.1"><g transform="scale(10.0) translate(-165.765, -47.232)"><defs><clipPath id="clip_19"><path transform="matrix(0,1,1,0,0,0)" d="M0 19.875H595.008V822.117H0Z"/></clipPath><clipPath id="clip_20"><path transform="matrix(0,1,1,0,0,0)" d="M0 842.013H595.224V.008972168H0Z"/></clipPath></defs><path transform="matrix(0,1,1,0,180.741,70.074)" d="M0 0-20.646 11.916C-20.916 12.078-21.15 12.294-21.312 12.582-21.492 12.87-21.564 13.194-21.564 13.5-21.564 13.806-21.492 14.112-21.312 14.4-21.15 14.688-20.916 14.922-20.646 15.066L0 27C.576 27.324 1.26 27.324 1.836 27 2.088 26.856 2.322 26.622 2.502 26.334 2.664 26.046 2.736 25.74 2.736 25.416V1.566C2.736 .918 2.394 .324 1.836 0 1.26-.342 .576-.342 0 0" fill="#ff0000" fill-rule="evenodd"/><path transform="matrix(0,1,1,0,183.369,70.38)" d="M0 0-18.828 10.872 0 21.744" fill="#ffffff" fill-rule="evenodd"/><path transform="matrix(0,1,1,0,197.067,62.694)" d="M0 0 1.206-1.206H2.43L1.62-.396H7.29V.414H1.62L2.43 1.224H1.206" fill-rule="evenodd"/><path transform="matrix(0,1,1,0,199.911,62.694)" d="M0 0 1.206 1.206H2.43L1.62 .396H7.29V-.414H1.62L2.43-1.224H1.206" fill-rule="evenodd"/><path transform="matrix(0,1,1,0,0,0)" d="M66.546 191.001H69.984V191.811H66.546Z"/><path transform="matrix(0,1,1,0,0,0)" d="M65.16 190.191H66.384V192.62099H65.16Z" fill="#ff0000"/><path transform="matrix(0,1,1,0,0,0)" d="M66.546 193.827H69.984V194.637H66.546Z"/><path transform="matrix(0,1,1,0,0,0)" d="M65.16 193.017H66.384V195.44699H65.16Z" fill="#ff0000"/><path transform="matrix(0,1,1,0,188.571,62.694)" d="M0 0 1.206-1.224H2.43L1.62-.414H7.29V.396H1.62L2.43 1.206H1.206" fill-rule="evenodd"/></g></svg>