<?xml version='1.0' encoding='UTF-8'?>
<svg width="288.25" height="256.45" viewBox="139.82 6.77 288.25 256.45" xmlns="http://www.w3.org/2000/svg" xmlns:xlink="http://www.w3.org/1999/xlink" xmlns:inkscape="http://www.inkscape.org/namespaces/inkscape" version="1.1"><g transform="scale(10.0) translate(-220.305, -478.080)"><defs><clipPath id="clip_2"><path transform="matrix(1,0,0,-1,0,595.276)" d="M74.4 .196H767.4V595.276H74.4Z"/></clipPath></defs><path transform="matrix(1,0,0,-1,0,595.276)" d="M234.84 94.036 247.08 115.276C247.2 115.516 247.44 115.756 247.8 115.996 248.04 116.116 248.4 116.236 248.64 116.236 249 116.236 249.36 116.116 249.6 115.996 249.96 115.756 250.2 115.516 250.32 115.276L262.56 94.036C262.92 93.436 262.92 92.716 262.56 92.116 262.44 91.876 262.2 91.636 261.96 91.396 261.6 91.276 261.24 91.156 261 91.156H236.4C235.8 91.156 235.08 91.516 234.84 92.116 234.48 92.716 234.48 93.436 234.84 94.036Z" fill="#ff0000" fill-rule="evenodd"/><path transform="matrix(1,0,0,-1,0,595.276)" d="M259.92 93.676 248.64 113.116 237.48 93.676Z" fill="#ffffff" fill-rule="evenodd"/><path transform="matrix(1,0,0,-1,0,595.276)" d="M251.64 106.876 248.64 101.836 245.76 106.876Z" fill-rule="evenodd"/><path transform="matrix(1,0,0,-1,0,595.276)" d="M247.68 94.276 248.64 96.076 249.72 94.276Z" fill-rule="evenodd"/><path transform="matrix(1,0,0,-1,0,595.276)" d="M245.28 98.236H245.88V97.516H245.28V96.916H244.56V97.516H242.64V98.236L244.32 100.516H245.28V98.236ZM244.56 99.676 243.6 98.236H244.56V99.676Z" fill-rule="evenodd"/><path transform="matrix(1,0,0,-1,0,595.276)" d="M247.2 97.276C247.2 97.516 247.08 97.636 246.84 97.636 246.6 97.636 246.48 97.516 246.48 97.276 246.48 97.036 246.6 96.796 246.84 96.796 247.08 96.796 247.2 97.036 247.2 97.276Z" fill-rule="evenodd"/><path transform="matrix(1,0,0,-1,0,595.276)" d="M249.12 100.516V96.916H248.4V99.556H247.8V100.156C248.04 100.156 248.16 100.276 248.28 100.276 248.4 100.396 248.4 100.396 248.4 100.516H249.12Z" fill-rule="evenodd"/><path transform="matrix(1,0,0,-1,0,595.276)" d="M253.44 98.956C253.2 98.956 252.96 98.716 252.96 98.596V96.916H252.24V98.716C252.24 98.836 252.12 98.956 251.88 98.956 251.64 98.956 251.4 98.716 251.4 98.596V96.916H250.68V99.556H251.4V99.436C251.52 99.556 251.64 99.556 251.64 99.556 251.76 99.676 251.88 99.676 252 99.676 252.36 99.676 252.6 99.556 252.72 99.316 252.96 99.556 253.2 99.676 253.44 99.676 253.92 99.676 254.28 99.436 254.4 99.076V98.956C254.52 98.956 254.52 98.836 254.52 98.836V96.916H253.8V98.716L253.68 98.836C253.56 98.956 253.56 98.956 253.44 98.956Z" fill-rule="evenodd"/></g></svg>