<?xml version='1.0' encoding='UTF-8'?>
<svg width="410.63" height="253.39" viewBox="76.00 10.27 410.63 253.39" xmlns="http://www.w3.org/2000/svg" xmlns:xlink="http://www.w3.org/1999/xlink" xmlns:inkscape="http://www.inkscape.org/namespaces/inkscape" version="1.1"><g transform="scale(10.0) translate(-329.439, -181.872)"><defs><clipPath id="clip_2"><path transform="matrix(1,0,0,-1,0,595.276)" d="M74.4 .196H767.4V595.276H74.4Z"/></clipPath></defs><path transform="matrix(1,0,0,-1,0,595.276)" d="M368.28 395.236 359.04 411.196C358.92 411.436 358.68 411.676 358.44 411.796 358.32 411.916 358.08 411.916 357.84 411.916 357.6 411.916 357.36 411.916 357.12 411.796 356.88 411.676 356.64 411.436 356.52 411.196L347.28 395.236C347.04 394.756 347.04 394.156 347.28 393.796 347.4 393.556 347.64 393.436 347.76 393.196 348 393.076 348.24 393.076 348.48 393.076H367.08C367.56 393.076 368.04 393.316 368.28 393.796 368.52 394.156 368.52 394.756 368.28 395.236Z" fill="#ff0000" fill-rule="evenodd"/><path transform="matrix(1,0,0,-1,0,595.276)" d="M366.24 394.996 357.84 409.636 349.32 394.996Z" fill="#ffffff" fill-rule="evenodd"/><path transform="matrix(1,0,0,-1,0,595.276)" d="M355.44 404.356 357.84 400.276 360.24 404.356Z" fill-rule="evenodd"/><path transform="matrix(1,0,0,-1,0,595.276)" stroke-width=".12" stroke-linecap="butt" stroke-miterlimit="10" stroke-linejoin="miter" fill="none" stroke="#000000" d="M337.5 411.5H340.5"/><path transform="matrix(1,0,0,-1,0,595.276)" stroke-width=".12" stroke-linecap="butt" stroke-miterlimit="10" stroke-linejoin="miter" fill="none" stroke="#000000" d="M340.5 389.5 339.5 387.5"/><path transform="matrix(1,0,0,-1,0,595.276)" stroke-width=".12" stroke-linecap="butt" stroke-miterlimit="10" stroke-linejoin="miter" fill="none" stroke="#000000" d="M337.5 389.5 339.5 387.5"/><path transform="matrix(1,0,0,-1,0,595.276)" stroke-width=".12" stroke-linecap="butt" stroke-linejoin="round" fill="none" stroke="#000000" d="M337.92 393.436C338.28 393.796 338.76 393.796 339.12 393.436"/><path transform="matrix(1,0,0,-1,0,595.276)" stroke-width=".12" stroke-linecap="butt" stroke-linejoin="round" fill="none" stroke="#000000" d="M339.12 393.436C339.36 393.076 339.96 393.076 340.2 393.436"/><path transform="matrix(1,0,0,-1,0,595.276)" stroke-width=".12" stroke-linecap="butt" stroke-linejoin="round" fill="none" stroke="#000000" d="M337.92 394.876C338.28 395.236 338.76 395.236 339.12 394.876"/><path transform="matrix(1,0,0,-1,0,595.276)" stroke-width=".12" stroke-linecap="butt" stroke-linejoin="round" fill="none" stroke="#000000" d="M339.12 394.876C339.36 394.516 339.96 394.516 340.2 394.876"/><path transform="matrix(1,0,0,-1,0,595.276)" stroke-width=".12" stroke-linecap="butt" stroke-linejoin="round" fill="none" stroke="#000000" d="M339.12 393.436C339.36 393.796 339.96 393.796 340.2 393.436"/><path transform="matrix(1,0,0,-1,0,595.276)" stroke-width=".12" stroke-linecap="butt" stroke-linejoin="round" fill="none" stroke="#000000" d="M337.92 394.876C338.28 394.516 338.76 394.516 339.12 394.876"/><path transform="matrix(1,0,0,-1,0,595.276)" stroke-width=".12" stroke-linecap="butt" stroke-miterlimit="10" stroke-linejoin="miter" fill="none" stroke="#000000" d="M337.5 389.5V393.5"/><path transform="matrix(1,0,0,-1,0,595.276)" stroke-width=".12" stroke-linecap="butt" stroke-miterlimit="10" stroke-linejoin="miter" fill="none" stroke="#000000" d="M337.5 394.5V411.5"/><path transform="matrix(1,0,0,-1,0,595.276)" stroke-width=".12" stroke-linecap="butt" stroke-miterlimit="10" stroke-linejoin="miter" fill="none" stroke="#000000" d="M340.5 389.5V393.5"/><path transform="matrix(1,0,0,-1,0,595.276)" stroke-width=".12" stroke-linecap="butt" stroke-linejoin="round" fill="none" stroke="#000000" d="M344.16 399.436C343.8 399.676 343.8 400.276 344.16 400.516"/><path transform="matrix(1,0,0,-1,0,595.276)" stroke-width=".12" stroke-linecap="butt" stroke-linejoin="round" fill="none" stroke="#000000" d="M344.16 400.516C344.52 400.876 344.52 401.476 344.16 401.716"/><path transform="matrix(1,0,0,-1,0,595.276)" stroke-width=".12" stroke-linecap="butt" stroke-linejoin="round" fill="none" stroke="#000000" d="M344.16 399.436C344.52 399.676 344.52 400.276 344.16 400.516"/><path transform="matrix(1,0,0,-1,0,595.276)" stroke-width=".12" stroke-linecap="butt" stroke-linejoin="round" fill="none" stroke="#000000" d="M345.6 399.436C345.24 399.676 345.24 400.276 345.6 400.516"/><path transform="matrix(1,0,0,-1,0,595.276)" stroke-width=".12" stroke-linecap="butt" stroke-linejoin="round" fill="none" stroke="#000000" d="M345.6 400.516C345.96 400.876 345.96 401.476 345.6 401.716"/><path transform="matrix(1,0,0,-1,0,595.276)" stroke-width=".12" stroke-linecap="butt" stroke-linejoin="round" fill="none" stroke="#000000" d="M345.6 400.516C345.24 400.876 345.24 401.476 345.6 401.716"/><path transform="matrix(1,0,0,-1,0,595.276)" stroke-width=".12" stroke-linecap="butt" stroke-miterlimit="10" stroke-linejoin="miter" fill="none" stroke="#000000" d="M340.5 401.5H344.5"/><path transform="matrix(1,0,0,-1,0,595.276)" stroke-width=".12" stroke-linecap="butt" stroke-miterlimit="10" stroke-linejoin="miter" fill="none" stroke="#000000" d="M345.5 401.5H351.5"/><path transform="matrix(1,0,0,-1,0,595.276)" stroke-width=".12" stroke-linecap="butt" stroke-miterlimit="10" stroke-linejoin="miter" fill="none" stroke="#000000" d="M340.5 399.5H344.5"/><path transform="matrix(1,0,0,-1,0,595.276)" stroke-width=".12" stroke-linecap="butt" stroke-miterlimit="10" stroke-linejoin="miter" fill="none" stroke="#000000" d="M345.5 399.5H349.5"/><path transform="matrix(1,0,0,-1,0,595.276)" stroke-width=".12" stroke-linecap="butt" stroke-miterlimit="10" stroke-linejoin="miter" fill="none" stroke="#000000" d="M340.5 394.5V399.5"/><path transform="matrix(1,0,0,-1,0,595.276)" stroke-width=".12" stroke-linecap="butt" stroke-miterlimit="10" stroke-linejoin="miter" fill="none" stroke="#000000" d="M340.5 401.5V411.5"/><path transform="matrix(1,0,0,-1,0,595.276)" stroke-width=".12" stroke-linecap="butt" stroke-miterlimit="10" stroke-linejoin="miter" fill="none" stroke="#000000" d="M377.5 411.5H375.5"/><path transform="matrix(1,0,0,-1,0,595.276)" stroke-width=".12" stroke-linecap="butt" stroke-miterlimit="10" stroke-linejoin="miter" fill="none" stroke="#000000" d="M375.5 389.5 376.5 387.5"/><path transform="matrix(1,0,0,-1,0,595.276)" stroke-width=".12" stroke-linecap="butt" stroke-miterlimit="10" stroke-linejoin="miter" fill="none" stroke="#000000" d="M377.5 389.5 376.5 387.5"/><path transform="matrix(1,0,0,-1,0,595.276)" stroke-width=".12" stroke-linecap="butt" stroke-linejoin="round" fill="none" stroke="#000000" d="M377.64 393.436C377.4 393.796 376.8 393.796 376.44 393.436"/><path transform="matrix(1,0,0,-1,0,595.276)" stroke-width=".12" stroke-linecap="butt" stroke-linejoin="round" fill="none" stroke="#000000" d="M376.44 393.436C376.2 393.076 375.6 393.076 375.36 393.436"/><path transform="matrix(1,0,0,-1,0,595.276)" stroke-width=".12" stroke-linecap="butt" stroke-linejoin="round" fill="none" stroke="#000000" d="M377.64 394.876C377.4 395.236 376.8 395.236 376.44 394.876"/><path transform="matrix(1,0,0,-1,0,595.276)" stroke-width=".12" stroke-linecap="butt" stroke-linejoin="round" fill="none" stroke="#000000" d="M376.44 394.876C376.2 394.516 375.6 394.516 375.36 394.876"/><path transform="matrix(1,0,0,-1,0,595.276)" stroke-width=".12" stroke-linecap="butt" stroke-linejoin="round" fill="none" stroke="#000000" d="M376.44 393.436C376.2 393.796 375.6 393.796 375.36 393.436"/><path transform="matrix(1,0,0,-1,0,595.276)" stroke-width=".12" stroke-linecap="butt" stroke-linejoin="round" fill="none" stroke="#000000" d="M377.64 394.876C377.4 394.516 376.8 394.516 376.44 394.876"/><path transform="matrix(1,0,0,-1,0,595.276)" stroke-width=".12" stroke-linecap="butt" stroke-miterlimit="10" stroke-linejoin="miter" fill="none" stroke="#000000" d="M377.5 389.5V393.5"/><path transform="matrix(1,0,0,-1,0,595.276)" stroke-width=".12" stroke-linecap="butt" stroke-miterlimit="10" stroke-linejoin="miter" fill="none" stroke="#000000" d="M377.5 394.5V411.5"/><path transform="matrix(1,0,0,-1,0,595.276)" stroke-width=".12" stroke-linecap="butt" stroke-miterlimit="10" stroke-linejoin="miter" fill="none" stroke="#000000" d="M375.5 389.5V393.5"/><path transform="matrix(1,0,0,-1,0,595.276)" stroke-width=".12" stroke-linecap="butt" stroke-linejoin="round" fill="none" stroke="#000000" d="M371.4 399.436C371.76 399.676 371.76 400.276 371.4 400.516"/><path transform="matrix(1,0,0,-1,0,595.276)" stroke-width=".12" stroke-linecap="butt" stroke-linejoin="round" fill="none" stroke="#000000" d="M371.4 400.516C371.04 400.876 371.04 401.476 371.4 401.716"/><path transform="matrix(1,0,0,-1,0,595.276)" stroke-width=".12" stroke-linecap="butt" stroke-linejoin="round" fill="none" stroke="#000000" d="M371.4 399.436C371.04 399.676 371.04 400.276 371.4 400.516"/><path transform="matrix(1,0,0,-1,0,595.276)" stroke-width=".12" stroke-linecap="butt" stroke-linejoin="round" fill="none" stroke="#000000" d="M369.96 399.436C370.32 399.676 370.32 400.276 369.96 400.516"/><path transform="matrix(1,0,0,-1,0,595.276)" stroke-width=".12" stroke-linecap="butt" stroke-linejoin="round" fill="none" stroke="#000000" d="M369.96 400.516C369.6 400.876 369.6 401.476 369.96 401.716"/><path transform="matrix(1,0,0,-1,0,595.276)" stroke-width=".12" stroke-linecap="butt" stroke-linejoin="round" fill="none" stroke="#000000" d="M369.96 400.516C370.32 400.876 370.32 401.476 369.96 401.716"/><path transform="matrix(1,0,0,-1,0,595.276)" stroke-width=".12" stroke-linecap="butt" stroke-miterlimit="10" stroke-linejoin="miter" fill="none" stroke="#000000" d="M375.5 401.5H371.5"/><path transform="matrix(1,0,0,-1,0,595.276)" stroke-width=".12" stroke-linecap="butt" stroke-miterlimit="10" stroke-linejoin="miter" fill="none" stroke="#000000" d="M369.5 401.5H364.5"/><path transform="matrix(1,0,0,-1,0,595.276)" stroke-width=".12" stroke-linecap="butt" stroke-miterlimit="10" stroke-linejoin="miter" fill="none" stroke="#000000" d="M375.5 399.5H371.5"/><path transform="matrix(1,0,0,-1,0,595.276)" stroke-width=".12" stroke-linecap="butt" stroke-miterlimit="10" stroke-linejoin="miter" fill="none" stroke="#000000" d="M369.5 399.5H365.5"/><path transform="matrix(1,0,0,-1,0,595.276)" stroke-width=".12" stroke-linecap="butt" stroke-miterlimit="10" stroke-linejoin="miter" fill="none" stroke="#000000" d="M375.5 394.5V399.5"/><path transform="matrix(1,0,0,-1,0,595.276)" stroke-width=".12" stroke-linecap="butt" stroke-miterlimit="10" stroke-linejoin="miter" fill="none" stroke="#000000" d="M375.5 401.5V411.5"/><path transform="matrix(1,0,0,-1,0,595.276)" stroke-width=".12" stroke-linecap="butt" stroke-miterlimit="10" stroke-linejoin="miter" fill="none" stroke="#000000" d="M355.44 404.356 357.84 400.276 360.24 404.356H355.44"/><path transform="matrix(1,0,0,-1,0,595.276)" d="M356.04 396.676C356.04 396.796 355.92 396.916 355.8 396.916 355.56 396.916 355.44 396.796 355.44 396.676 355.44 396.436 355.56 396.316 355.8 396.316 355.92 396.316 356.04 396.436 356.04 396.676Z" fill-rule="evenodd"/><path transform="matrix(1,0,0,-1,0,595.276)" d="M353.76 396.316C354.12 396.316 354.36 396.436 354.6 396.556 354.72 396.676 354.84 396.916 354.84 397.156 354.84 397.516 354.72 397.756 354.6 397.876 354.72 397.996 354.84 398.116 354.84 398.356 354.84 398.956 354.48 399.316 353.76 399.316 353.52 399.316 353.16 399.196 353.04 398.956 352.8 398.836 352.68 398.596 352.68 398.356H353.28C353.28 398.476 353.52 398.716 353.76 398.716H353.88C354.12 398.716 354.24 398.596 354.24 398.356 354.24 398.236 354.12 398.116 354 398.116H353.64V397.516H354 354.12C354.24 397.396 354.24 397.276 354.24 397.276 354.24 397.036 354.12 396.916 353.88 396.916 353.64 396.916 353.52 396.916 353.4 397.036 353.28 397.036 353.28 397.156 353.28 397.276L352.68 397.156C352.68 396.676 353.16 396.316 353.76 396.316Z" fill-rule="evenodd"/><path transform="matrix(1,0,0,-1,0,595.276)" d="M358.92 397.756C358.92 398.236 358.8 398.596 358.68 398.836 358.44 399.076 358.08 399.316 357.72 399.316 357.36 399.316 357 399.076 356.88 398.836 356.64 398.596 356.52 398.236 356.52 397.756 356.52 397.276 356.64 396.916 356.88 396.676 357 396.436 357.36 396.316 357.72 396.316 358.08 396.316 358.44 396.436 358.68 396.676 358.8 396.916 358.92 397.276 358.92 397.756ZM358.32 397.756C358.32 397.156 358.2 396.796 357.72 396.796 357.48 396.796 357.36 396.916 357.24 397.036 357.12 397.276 357.12 397.516 357.12 397.756 357.12 398.356 357.36 398.716 357.72 398.716 357.96 398.716 358.08 398.596 358.2 398.476 358.32 398.356 358.32 398.116 358.32 397.756Z" fill-rule="evenodd"/><path transform="matrix(1,0,0,-1,0,595.276)" d="M361.92 397.876C361.8 397.876 361.56 397.756 361.56 397.636V396.436H361.08V397.756C361.08 397.876 360.96 397.876 360.72 397.876 360.6 397.876 360.48 397.756 360.36 397.636V396.436H359.88V398.356H360.36C360.48 398.356 360.6 398.356 360.6 398.476 360.72 398.476 360.84 398.476 360.84 398.476 361.08 398.476 361.32 398.356 361.44 398.236 361.56 398.356 361.68 398.476 361.92 398.476 362.28 398.476 362.64 398.356 362.64 397.996 362.76 397.996 362.76 397.996 362.76 397.876V396.436H362.16V397.756 397.876C362.04 397.876 362.04 397.876 361.92 397.876Z" fill-rule="evenodd"/></g></svg>