<?xml version='1.0' encoding='UTF-8'?>
<svg width="288.56" height="256.46" viewBox="140.06 7.01 288.56 256.46" xmlns="http://www.w3.org/2000/svg" xmlns:xlink="http://www.w3.org/1999/xlink" xmlns:inkscape="http://www.inkscape.org/namespaces/inkscape" version="1.1"><g transform="scale(10.0) translate(-111.171, -397.296)"><defs><clipPath id="clip_2"><path transform="matrix(1,0,0,-1,0,595.276)" d="M74.4 .196H767.4V595.276H74.4Z"/></clipPath></defs><path transform="matrix(1,0,0,-1,0,595.276)" d="M153.48 174.796 141.24 196.036C141.12 196.276 140.88 196.516 140.52 196.756 140.28 196.876 139.92 196.996 139.56 196.996 139.32 196.996 138.96 196.876 138.6 196.756 138.36 196.516 138.12 196.276 138 196.036L125.64 174.796C125.4 174.196 125.4 173.476 125.64 172.876 125.88 172.636 126.12 172.396 126.36 172.156 126.72 172.036 126.96 171.916 127.32 171.916H151.92C152.52 171.916 153.12 172.276 153.48 172.876 153.84 173.476 153.84 174.196 153.48 174.796Z" fill="#ff0000" fill-rule="evenodd"/><path transform="matrix(1,0,0,-1,0,595.276)" d="M128.4 174.436 139.56 193.876 150.84 174.436Z" fill="#ffffff" fill-rule="evenodd"/><path transform="matrix(1,0,0,-1,0,595.276)" d="M141 181.876C140.76 182.116 140.52 182.476 140.4 182.836 140.28 183.196 140.16 183.676 140.16 184.036V188.476H142.08V184.036C142.08 183.796 142.08 183.676 142.2 183.436 142.2 183.316 142.32 183.196 142.44 182.956L143.04 182.356C143.28 181.996 143.4 181.636 143.52 181.276 143.64 180.916 143.76 180.556 143.76 180.076V175.036H141.84V180.076C141.84 180.316 141.84 180.556 141.84 180.676 141.72 180.916 141.6 181.036 141.48 181.156L141 181.876Z" fill-rule="evenodd"/><path transform="matrix(1,0,0,-1,0,595.276)" d="M138.24 181.876C138.48 182.116 138.6 182.476 138.72 182.836 138.96 183.196 138.96 183.676 138.96 184.036V188.476H137.04V184.036C137.04 183.796 137.04 183.676 137.04 183.436 136.92 183.316 136.8 183.196 136.68 182.956L136.2 182.356C135.96 181.996 135.72 181.636 135.6 181.276 135.48 180.916 135.48 180.556 135.48 180.076V175.036H137.28V180.076C137.28 180.316 137.28 180.556 137.4 180.676 137.4 180.916 137.52 181.036 137.64 181.156L138.24 181.876Z" fill-rule="evenodd"/></g></svg>