<?xml version='1.0' encoding='UTF-8'?>
<svg width="288.25" height="256.45" viewBox="139.82 6.53 288.25 256.45" xmlns="http://www.w3.org/2000/svg" xmlns:xlink="http://www.w3.org/1999/xlink" xmlns:inkscape="http://www.inkscape.org/namespaces/inkscape" version="1.1"><g transform="scale(10.0) translate(-220.305, -558.864)"><defs><clipPath id="clip_2"><path transform="matrix(1,0,0,-1,0,595.276)" d="M74.4 .196H767.4V595.276H74.4Z"/></clipPath></defs><path transform="matrix(1,0,0,-1,0,595.276)" d="M234.84 13.276 247.08 34.516C247.2 34.756 247.44 34.996 247.8 35.236 248.04 35.356 248.4 35.476 248.64 35.476 249 35.476 249.36 35.356 249.6 35.236 249.96 34.996 250.2 34.756 250.32 34.516L262.56 13.276C262.92 12.676 262.92 11.956 262.56 11.356 262.44 11.116 262.2 10.876 261.96 10.636 261.6 10.516 261.24 10.396 261 10.396H236.4C235.8 10.396 235.08 10.756 234.84 11.356 234.48 11.956 234.48 12.676 234.84 13.276Z" fill="#ff0000" fill-rule="evenodd"/><path transform="matrix(1,0,0,-1,0,595.276)" d="M259.92 12.916 248.64 32.356 237.48 12.916Z" fill="#ffffff" fill-rule="evenodd"/><path transform="matrix(1,0,0,-1,0,595.276)" d="M251.64 26.116 248.64 21.076 245.76 26.116Z" fill-rule="evenodd"/><path transform="matrix(1,0,0,-1,0,595.276)" d="M247.68 13.516 248.64 15.316 249.72 13.516Z" fill-rule="evenodd"/><path transform="matrix(1,0,0,-1,0,595.276)" d="M244.56 17.476H245.16V16.756H244.56V16.156H243.84V16.756H241.92V17.476L243.6 19.756H244.56V17.476ZM243.84 18.916 242.88 17.476H243.84V18.916Z" fill-rule="evenodd"/><path transform="matrix(1,0,0,-1,0,595.276)" d="M246.48 16.516C246.48 16.756 246.36 16.876 246.12 16.876 245.88 16.876 245.76 16.756 245.76 16.516 245.76 16.276 245.88 16.036 246.12 16.036 246.36 16.036 246.48 16.276 246.48 16.516Z" fill-rule="evenodd"/><path transform="matrix(1,0,0,-1,0,595.276)" d="M249.72 17.476H250.2V16.756H249.72V16.156H248.88V16.756H246.96V17.476L248.76 19.756H249.72V17.476ZM248.88 18.916 247.92 17.476H248.88V18.916Z" fill-rule="evenodd"/><path transform="matrix(1,0,0,-1,0,595.276)" d="M254.16 18.196C253.92 18.196 253.68 17.956 253.68 17.836V16.156H252.96V17.956C252.96 18.076 252.72 18.196 252.6 18.196 252.36 18.196 252.12 17.956 252.12 17.836V16.156H251.4V18.796H252.12V18.676C252.24 18.796 252.24 18.796 252.36 18.796 252.48 18.916 252.6 18.916 252.72 18.916 253.08 18.916 253.32 18.796 253.44 18.556 253.56 18.796 253.8 18.916 254.16 18.916 254.64 18.916 255 18.676 255.12 18.316V18.196 18.076H255.24V16.156H254.52V17.956L254.4 18.076C254.28 18.196 254.16 18.196 254.16 18.196Z" fill-rule="evenodd"/></g></svg>