<?xml version='1.0' encoding='UTF-8'?>
<svg width="288.25" height="256.45" viewBox="139.28 7.97 288.25 256.45" xmlns="http://www.w3.org/2000/svg" xmlns:xlink="http://www.w3.org/1999/xlink" xmlns:inkscape="http://www.inkscape.org/namespaces/inkscape" version="1.1"><g transform="scale(10.0) translate(-329.439, -74.160)"><defs><clipPath id="clip_2"><path transform="matrix(1,0,0,-1,0,595.276)" d="M74.4 .196H767.4V595.276H74.4Z"/></clipPath></defs><path transform="matrix(1,0,0,-1,0,595.276)" d="M343.92 497.836 356.16 519.076C356.28 519.316 356.52 519.556 356.88 519.796 357.12 519.916 357.48 520.036 357.84 520.036 358.08 520.036 358.44 519.916 358.68 519.796 359.04 519.556 359.28 519.316 359.4 519.076L371.64 497.836C372 497.236 372 496.516 371.64 495.916 371.52 495.676 371.28 495.436 371.04 495.316 370.68 495.076 370.44 494.956 370.08 494.956H345.48C344.88 494.956 344.28 495.316 343.92 495.916 343.56 496.516 343.56 497.236 343.92 497.836Z" fill="#ff0000" fill-rule="evenodd"/><path transform="matrix(1,0,0,-1,0,595.276)" d="M369 497.476 357.84 516.916 346.56 497.476Z" fill="#ffffff" fill-rule="evenodd"/><path transform="matrix(1,0,0,-1,0,595.276)" d="M360.72 510.676 357.84 505.636 354.84 510.676Z" fill-rule="evenodd"/><path transform="matrix(1,0,0,-1,0,595.276)" d="M356.76 498.076 357.84 499.876 358.8 498.076Z" fill-rule="evenodd"/><path transform="matrix(1,0,0,-1,0,595.276)" d="M353.76 502.036H354.24V501.316H353.76V500.716H352.92V501.316H351V502.036L352.68 504.436H353.76V502.036ZM352.92 503.476 351.96 502.036H352.92V503.476Z" fill-rule="evenodd"/><path transform="matrix(1,0,0,-1,0,595.276)" d="M357.72 500.596C358.08 500.596 358.44 500.716 358.8 500.956 359.04 501.196 359.16 501.436 359.16 501.796 359.16 502.156 359.04 502.516 358.68 502.636 358.92 502.756 359.04 503.116 359.04 503.356 359.04 503.716 358.92 504.076 358.68 504.196 358.44 504.436 358.2 504.556 357.72 504.556 357.36 504.556 357 504.436 356.76 504.196 356.52 504.076 356.4 503.716 356.4 503.356 356.4 503.116 356.52 502.756 356.76 502.636 356.52 502.516 356.28 502.156 356.28 501.796 356.28 501.436 356.4 501.196 356.76 500.956 357 500.716 357.36 500.596 357.72 500.596ZM357.72 502.276C358.08 502.276 358.32 502.156 358.32 501.796 358.32 501.436 358.08 501.316 357.72 501.316 357.36 501.316 357.12 501.436 357.12 501.796 357.12 502.156 357.36 502.276 357.72 502.276ZM358.32 503.356C358.32 503.236 358.2 503.116 358.08 503.116 358.08 502.996 357.96 502.996 357.72 502.996 357.6 502.996 357.48 502.996 357.36 503.116 357.24 503.116 357.24 503.236 357.24 503.356 357.24 503.476 357.24 503.596 357.36 503.716 357.48 503.716 357.6 503.836 357.72 503.836 357.96 503.836 358.08 503.716 358.08 503.716 358.2 503.596 358.32 503.476 358.32 503.356Z" fill-rule="evenodd"/><path transform="matrix(1,0,0,-1,0,595.276)" d="M363.24 502.756C363 502.756 362.76 502.516 362.76 502.396V500.716H362.04V502.516C362.04 502.636 361.92 502.756 361.68 502.756 361.44 502.756 361.2 502.516 361.2 502.396V500.716H360.48V503.356H361.2V503.236C361.32 503.356 361.44 503.356 361.44 503.356 361.56 503.476 361.68 503.476 361.8 503.476 362.16 503.476 362.4 503.356 362.52 503.116 362.76 503.356 363 503.476 363.24 503.476 363.72 503.476 364.08 503.236 364.2 502.876 364.2 502.756 364.2 502.756 364.32 502.756V502.636 500.716H363.6V502.516C363.6 502.636 363.48 502.636 363.48 502.636 363.36 502.756 363.36 502.756 363.24 502.756Z" fill-rule="evenodd"/><path transform="matrix(1,0,0,-1,0,595.276)" d="M355.56 501.076C355.56 501.316 355.44 501.436 355.2 501.436 354.96 501.436 354.84 501.316 354.84 501.076 354.84 500.836 354.96 500.596 355.2 500.596 355.44 500.596 355.56 500.836 355.56 501.076Z" fill-rule="evenodd"/></g></svg>