<?xml version='1.0' encoding='UTF-8'?>
<svg width="288.56" height="255.26" viewBox="140.06 7.01 288.56 255.26" xmlns="http://www.w3.org/2000/svg" xmlns:xlink="http://www.w3.org/1999/xlink" xmlns:inkscape="http://www.inkscape.org/namespaces/inkscape" version="1.1"><g transform="scale(10.0) translate(-111.171, -531.936)"><defs><clipPath id="clip_2"><path transform="matrix(1,0,0,-1,0,595.276)" d="M74.4 .196H767.4V595.276H74.4Z"/></clipPath></defs><path transform="matrix(1,0,0,-1,0,595.276)" d="M125.64 40.156 138 61.396C138.12 61.756 138.36 61.996 138.6 62.116 138.96 62.236 139.32 62.356 139.56 62.356 139.92 62.356 140.28 62.236 140.52 62.116 140.88 61.996 141.12 61.756 141.24 61.396L153.48 40.156C153.84 39.556 153.84 38.836 153.48 38.356 153.36 37.996 153.12 37.756 152.76 37.636 152.52 37.396 152.16 37.396 151.92 37.396H127.32C126.6 37.396 126 37.756 125.64 38.356 125.4 38.836 125.4 39.556 125.64 40.156Z" fill="#ff0000" fill-rule="evenodd"/><path transform="matrix(1,0,0,-1,0,595.276)" d="M150.84 39.916 139.56 59.236 128.4 39.916Z" fill="#ffffff" fill-rule="evenodd"/><path transform="matrix(1,0,0,-1,0,595.276)" d="M143.76 49.396H134.64V46.756H137.52V40.516H141.72V45.316H143.76L145.8 47.356Z" fill-rule="evenodd"/></g></svg>