<?xml version='1.0' encoding='UTF-8'?>
<svg width="281.50" height="261.10" viewBox="142.12 4.09 281.50 261.10" xmlns="http://www.w3.org/2000/svg" xmlns:xlink="http://www.w3.org/1999/xlink" xmlns:inkscape="http://www.inkscape.org/namespaces/inkscape" version="1.1"><g transform="scale(10.0) translate(-438.573, -531.936)"><defs><clipPath id="clip_2"><path transform="matrix(1,0,0,-1,0,595.276)" d="M74.4 .196H767.4V595.276H74.4Z"/></clipPath></defs><path transform="matrix(1,0,0,-1,0,595.276)" d="M454.68 62.596H479.16C479.28 62.596 479.52 62.476 479.64 62.476 479.88 62.356 480 62.236 480.24 62.116 480.36 61.996 480.48 61.756 480.48 61.636 480.6 61.396 480.6 61.156 480.6 61.036V38.716C480.6 38.356 480.48 37.876 480.24 37.636 480 37.516 479.88 37.396 479.64 37.276 479.52 37.156 479.28 37.156 479.16 37.156H454.68C454.32 37.156 453.84 37.276 453.6 37.636 453.48 37.756 453.36 37.996 453.24 38.116 453.12 38.356 453.12 38.476 453.12 38.716V61.036C453.12 61.396 453.24 61.756 453.6 62.116 453.84 62.476 454.32 62.596 454.68 62.596Z" fill-rule="evenodd"/><path transform="matrix(1,0,0,-1,0,595.276)" d="M479.16 61.756H454.68C454.56 61.756 454.44 61.756 454.44 61.756 454.32 61.756 454.2 61.636 454.08 61.516 454.08 61.516 453.96 61.396 453.96 61.276 453.96 61.276 453.96 61.156 453.96 61.036V38.716C453.96 38.476 453.96 38.356 454.08 38.116 454.32 37.996 454.44 37.996 454.68 37.996H479.16C479.28 37.996 479.52 37.996 479.64 38.116 479.76 38.236 479.76 38.356 479.76 38.476 479.88 38.476 479.88 38.596 479.88 38.716V61.036C479.88 61.396 479.52 61.756 479.16 61.756Z" fill="#ffffff" fill-rule="evenodd"/><path transform="matrix(1,0,0,-1,0,595.276)" d="M461.76 58.276C461.52 57.796 461.04 57.436 460.44 57.436 460.08 57.436 459.6 57.556 459.36 57.796 459.12 58.156 459 58.516 459 58.996 459 59.476 459.12 59.836 459.36 60.196 459.6 60.436 460.08 60.556 460.44 60.556 460.68 60.556 461.04 60.556 461.28 60.316 461.52 60.196 461.64 59.836 461.76 59.596L461.16 59.356C461.16 59.476 461.04 59.716 460.92 59.836 460.8 59.956 460.56 59.956 460.44 59.956 459.96 59.956 459.72 59.596 459.72 58.996 459.72 58.396 459.96 58.036 460.44 58.036 460.56 58.036 460.8 58.036 460.92 58.156 460.92 58.276 461.04 58.276 461.04 58.396 461.16 58.396 461.16 58.516 461.16 58.516L461.76 58.276Z" fill-rule="evenodd"/><path transform="matrix(1,0,0,-1,0,595.276)" d="M464.16 59.596H463.56L463.2 58.396 462.72 59.596H462.12L462.72 57.676C462.84 57.676 462.84 57.556 462.84 57.556V57.436C462.84 57.316 462.72 57.316 462.72 57.316 462.6 57.316 462.6 57.316 462.48 57.316H462.36L462.24 56.836C462.48 56.836 462.72 56.716 462.96 56.716 463.08 56.716 463.08 56.836 463.2 56.836 463.32 56.956 463.32 57.076 463.32 57.196L464.16 59.596Z" fill-rule="evenodd"/><path transform="matrix(1,0,0,-1,0,595.276)" d="M465.48 59.716C465.72 59.716 465.96 59.716 466.08 59.596 466.2 59.476 466.32 59.356 466.44 59.116L465.96 58.876C465.84 59.116 465.72 59.236 465.48 59.236 465.24 59.236 465.12 58.996 465 58.756V58.636C465 58.516 465 58.516 465 58.396 465.12 58.156 465.24 57.916 465.48 57.916 465.6 57.916 465.72 58.036 465.84 58.036 465.84 58.156 465.96 58.156 465.96 58.276L466.44 58.156C466.32 57.676 465.96 57.436 465.48 57.436 464.88 57.436 464.52 57.796 464.4 58.636 464.52 59.356 464.88 59.716 465.48 59.716Z" fill-rule="evenodd"/><path transform="matrix(1,0,0,-1,0,595.276)" d="M467.4 60.436V58.156 58.036C467.4 58.036 467.52 58.036 467.76 58.036V57.556C467.76 57.556 467.76 57.436 467.64 57.436 467.52 57.436 467.4 57.436 467.4 57.436 467.04 57.436 466.8 57.556 466.8 57.796V57.916 58.036 60.436H467.4Z" fill-rule="evenodd"/><path transform="matrix(1,0,0,-1,0,595.276)" d="M468.84 57.556V59.596H468.24V57.556Z" fill-rule="evenodd"/><path transform="matrix(1,0,0,-1,0,595.276)" d="M468.84 60.196C468.84 60.436 468.72 60.556 468.48 60.556 468.36 60.556 468.12 60.436 468.12 60.196 468.12 59.956 468.36 59.836 468.48 59.836 468.72 59.836 468.84 59.956 468.84 60.196Z" fill-rule="evenodd"/><path transform="matrix(1,0,0,-1,0,595.276)" d="M471 58.156C471.12 58.636 470.88 58.876 470.4 58.876 470.16 58.876 470.04 58.876 470.04 58.996 469.92 58.996 469.92 58.996 469.92 59.116L470.04 59.236H470.16C470.28 59.236 470.4 59.236 470.52 59.236 470.52 59.116 470.64 59.116 470.64 58.996L471 59.476C470.88 59.596 470.64 59.716 470.28 59.836 469.68 59.716 469.32 59.476 469.32 58.996 469.32 58.636 469.56 58.396 469.92 58.396 470.28 58.396 470.4 58.276 470.4 58.156V58.036C470.28 58.036 470.28 57.916 470.16 57.916 470.04 57.916 469.92 58.036 469.8 58.036 469.8 58.036 469.68 58.156 469.56 58.276L469.2 57.796C469.44 57.556 469.68 57.436 470.16 57.436 470.76 57.436 471 57.676 471 58.156Z" fill-rule="evenodd"/><path transform="matrix(1,0,0,-1,0,595.276)" d="M472.2 59.596H472.8V59.116H472.2V58.156C472.2 58.156 472.2 58.036 472.32 58.036 472.32 58.036 472.32 57.916 472.44 57.916H472.56L472.68 58.036 472.8 57.556C472.68 57.436 472.56 57.436 472.2 57.436 472.08 57.436 471.96 57.436 471.84 57.556 471.72 57.676 471.6 57.796 471.6 57.916V59.116H471.24V59.596H471.6V60.316L472.2 60.556V59.596Z" fill-rule="evenodd"/><path transform="matrix(1,0,0,-1,0,595.276)" d="M474.96 58.156C474.96 58.636 474.72 58.876 474.24 58.876 474.12 58.876 474 58.876 473.88 58.996 473.88 58.996 473.76 58.996 473.76 59.116 473.76 59.116 473.88 59.116 473.88 59.236 473.88 59.236 474 59.236 474.12 59.236 474.24 59.236 474.24 59.236 474.36 59.236 474.48 59.116 474.48 59.116 474.6 58.996L474.96 59.476C474.72 59.596 474.48 59.716 474.12 59.836 473.52 59.716 473.16 59.476 473.16 58.996 473.28 58.636 473.4 58.396 473.88 58.396 474.12 58.396 474.36 58.276 474.36 58.156 474.36 58.036 474.36 58.036 474.24 58.036L474.12 57.916C474 57.916 473.88 58.036 473.76 58.036 473.64 58.036 473.52 58.156 473.52 58.276L473.04 57.796C473.28 57.556 473.64 57.436 474 57.436 474.6 57.436 474.96 57.676 474.96 58.156Z" fill-rule="evenodd"/><path transform="matrix(1,0,0,-1,0,595.276)" d="M459.24 55.276V56.236H459.84V53.236H459.24V53.356C459.12 53.236 459 53.236 458.64 53.236 458.16 53.116 457.8 53.476 457.68 54.196V54.316 54.556C457.8 55.156 458.16 55.396 458.64 55.516 458.76 55.516 459 55.396 459.24 55.276ZM459.24 53.956V54.556 54.676C459.12 54.676 459.12 54.796 459.12 54.796 459 54.916 458.88 54.916 458.76 54.916 458.52 54.916 458.28 54.676 458.28 54.316 458.28 53.956 458.4 53.716 458.76 53.716 459 53.716 459.12 53.836 459.24 53.956Z" fill-rule="evenodd"/><path transform="matrix(1,0,0,-1,0,595.276)" d="M460.92 53.236V55.396H460.44V53.236Z" fill-rule="evenodd"/><path transform="matrix(1,0,0,-1,0,595.276)" d="M461.04 55.996C461.04 56.116 460.92 56.356 460.68 56.356 460.44 56.356 460.32 56.116 460.32 55.996 460.32 55.756 460.44 55.636 460.68 55.636 460.92 55.636 461.04 55.756 461.04 55.996Z" fill-rule="evenodd"/><path transform="matrix(1,0,0,-1,0,595.276)" d="M463.2 53.956C463.2 54.316 462.96 54.556 462.48 54.676 462.36 54.676 462.24 54.676 462.24 54.676L462.12 54.796C462.12 54.916 462.24 55.036 462.36 55.036 462.48 55.036 462.6 55.036 462.6 54.916 462.72 54.916 462.84 54.916 462.84 54.796L463.2 55.156C463.08 55.396 462.84 55.516 462.36 55.516 461.76 55.516 461.52 55.276 461.52 54.796 461.52 54.436 461.76 54.196 462.12 54.076 462.48 54.076 462.6 54.076 462.6 53.956V53.836C462.48 53.716 462.48 53.716 462.36 53.716 462.24 53.716 462.12 53.716 462 53.836 461.88 53.836 461.88 53.956 461.76 54.076L461.4 53.596C461.52 53.356 461.88 53.236 462.36 53.236 462.84 53.236 463.2 53.476 463.2 53.956Z" fill-rule="evenodd"/><path transform="matrix(1,0,0,-1,0,595.276)" d="M465.84 54.916C465.6 54.916 465.48 54.796 465.48 54.676V53.236H464.88V54.796C464.88 54.796 464.76 54.916 464.52 54.916 464.4 54.916 464.16 54.796 464.16 54.676V53.236H463.56V55.396H464.16V55.276C464.28 55.396 464.28 55.396 464.4 55.516 464.52 55.516 464.52 55.516 464.64 55.516 465 55.516 465.12 55.396 465.24 55.276 465.36 55.396 465.6 55.516 465.84 55.516 466.2 55.516 466.56 55.276 466.68 55.036V54.916 54.796 53.236H466.08V54.796C466.08 54.796 466.08 54.916 465.96 54.916H465.84Z" fill-rule="evenodd"/><path transform="matrix(1,0,0,-1,0,595.276)" d="M469.32 54.316C469.32 55.036 468.96 55.516 468.24 55.516 467.88 55.516 467.64 55.396 467.52 55.156 467.28 55.036 467.16 54.676 467.16 54.316 467.16 53.596 467.64 53.236 468.24 53.236 468.6 53.236 468.84 53.236 469.08 53.476 469.2 53.716 469.32 53.956 469.32 54.316ZM468.72 54.316C468.72 54.196 468.6 54.076 468.6 53.956 468.48 53.836 468.36 53.836 468.24 53.836 468 53.836 467.88 53.956 467.88 54.316 467.88 54.556 467.88 54.676 467.88 54.796 468 54.916 468.12 54.916 468.24 54.916 468.36 54.916 468.48 54.916 468.6 54.796 468.6 54.676 468.72 54.556 468.72 54.316Z" fill-rule="evenodd"/><path transform="matrix(1,0,0,-1,0,595.276)" d="M471.12 55.396H471.72V53.236H471.12V53.356C471.12 53.356 471 53.236 470.88 53.236 470.76 53.236 470.64 53.236 470.52 53.236 470.4 53.236 470.16 53.236 469.92 53.356 469.92 53.476 469.8 53.476 469.8 53.596 469.8 53.716 469.8 53.836 469.8 53.836V55.396H470.28V54.076C470.28 54.076 470.4 53.956 470.4 53.836 470.52 53.836 470.64 53.716 470.64 53.716 470.76 53.716 470.88 53.836 471 53.836 471 53.956 471.12 53.956 471.12 54.076V54.196 55.396Z" fill-rule="evenodd"/><path transform="matrix(1,0,0,-1,0,595.276)" d="M474.24 53.236V54.796C474.24 55.276 473.88 55.516 473.4 55.516 473.28 55.516 473.16 55.516 473.04 55.516 473.04 55.396 472.92 55.396 472.92 55.276V55.396H472.32V53.236H472.92V54.556 54.676C472.92 54.796 473.04 54.916 473.28 54.916 473.52 54.916 473.64 54.796 473.64 54.676V54.556 53.236H474.24Z" fill-rule="evenodd"/><path transform="matrix(1,0,0,-1,0,595.276)" d="M475.56 55.396H476.04V54.916H475.56V53.956 53.836C475.68 53.716 475.68 53.716 475.8 53.716H475.92C475.92 53.716 476.04 53.716 476.04 53.836L476.16 53.236C476.04 53.236 475.92 53.116 475.56 53.116 475.44 53.236 475.2 53.236 475.2 53.356 475.08 53.356 474.96 53.596 474.96 53.716V54.916H474.6V55.396H474.96V56.116L475.56 56.236V55.396Z" fill-rule="evenodd"/><path transform="matrix(1,0,0,-1,0,595.276)" stroke-width=".12" stroke-linecap="butt" stroke-miterlimit="10" stroke-linejoin="miter" fill="none" stroke="#000000" d="M476.5 48.5V49.5"/><path transform="matrix(1,0,0,-1,0,595.276)" d="M476.88 48.796 476.64 49.156H476.28 475.92L475.68 48.916 475.44 48.796H476.16 476.76 476.88 477.24V46.636H476.88V46.756H475.08V46.636H474.6V48.316L473.76 47.956 473.4 48.316 473.88 48.436 474.36 48.676 474.84 48.916 475.32 49.156H473.52V49.516H475.2V49.996H474V50.356H475.2V50.956H475.56L475.68 50.836H475.8L475.68 50.716V50.356H476.52V50.116L477 50.716 477.24 50.596 477.36 50.476V50.356H477.24L476.88 49.876 476.52 49.516H477.84V49.156H477.12L477.24 49.036 476.88 48.796ZM475.68 49.516H475.8L476.04 49.756 476.28 49.996H475.68V49.516ZM475.08 47.956H476.76V48.316H475.08V47.956ZM475.08 47.116H476.76V47.596H475.08V47.116Z" fill-rule="evenodd"/><path transform="matrix(1,0,0,-1,0,595.276)" d="M456.12 50.836V48.316H456.48V48.556H457.56V47.956L457.44 48.316 457.2 48.196 457.44 47.476 457.56 47.596V47.356L457.44 47.236 457.32 47.116 457.08 46.996H456.84L457.08 46.636H457.2L457.32 46.756 457.56 46.876 457.68 46.996 457.8 47.116V47.236L457.92 47.356V47.596 47.836 48.916H457.32V49.156H457.8V49.516H457.32V49.876H457.8V50.116H457.32V50.476H457.92V50.836H456.12ZM456.48 50.116V50.476H456.96V50.116H456.48ZM456.48 48.916V49.156H456.96V48.916H456.48ZM456.48 49.516V49.876H456.96V49.516H456.48Z" fill-rule="evenodd"/><path transform="matrix(1,0,0,-1,0,595.276)" d="M456.36 48.076H456L455.88 47.236 456.24 47.116Z" fill-rule="evenodd"/><path transform="matrix(1,0,0,-1,0,595.276)" d="M456.6 48.076H456.36L456.48 47.236H456.72Z" fill-rule="evenodd"/><path transform="matrix(1,0,0,-1,0,595.276)" d="M456.96 48.196H456.72L456.84 47.716 456.96 47.356H457.2Z" fill-rule="evenodd"/><path transform="matrix(1,0,0,-1,0,595.276)" d="M459 50.836V50.596H458.04V50.116H458.88L458.76 49.996 458.52 49.756 458.4 49.636H458.04L458.28 49.276 458.64 49.396 458.88 49.516 459 49.636 459.12 49.876 459.48 49.516 459.84 49.276 460.2 49.636H459.96L459.72 49.756 459.6 49.996 459.36 50.116H460.2V50.596H459.36V50.716 50.836H459.24Z" fill-rule="evenodd"/><path transform="matrix(1,0,0,-1,0,595.276)" d="M458.04 49.156V48.796H459.6V47.356L459.72 47.236 459.6 47.116 459.48 46.996H459.36 459L459.12 46.636H459.36 459.48 459.72L459.84 46.756H459.96V46.876L460.08 46.996V47.236 47.356 48.796H460.32V49.156Z" fill-rule="evenodd"/><path transform="matrix(1,0,0,-1,0,595.276)" d="M458.16 48.436V47.116H458.64V47.476H458.88V47.236H459.24V48.436H458.16ZM458.64 47.716V48.076H458.88V47.716H458.64Z" fill-rule="evenodd"/><path transform="matrix(1,0,0,-1,0,595.276)" d="M462.36 50.836V49.756H463.68V50.836H462.36ZM462.72 50.116V50.476H463.32V50.116H462.72Z" fill-rule="evenodd"/><path transform="matrix(1,0,0,-1,0,595.276)" d="M462.48 47.716H462.84V47.836H463.8V47.476H461.88V47.116H463.8V46.636H464.16V47.116H466.2V47.476H464.16V47.836H465.12V47.716H465.6V49.516H462.48V47.716ZM464.16 48.916V49.156H465.12V48.916H464.16ZM464.16 48.196V48.556H465.12V48.196H464.16ZM462.84 48.916V49.156H463.8V48.916H462.84ZM462.84 48.196V48.556H463.8V48.196H462.84Z" fill-rule="evenodd"/><path transform="matrix(1,0,0,-1,0,595.276)" d="M464.28 50.836V49.756H465.72V50.836H464.28ZM464.64 50.116V50.476H465.36V50.116H464.64Z" fill-rule="evenodd"/><path transform="matrix(1,0,0,-1,0,595.276)" d="M467.88 50.596V50.116H469.68V49.876H468.36V47.956H469.68V47.716H467.76V47.236H469.68V46.636H470.04V47.236H471.96V47.716H470.04V47.956H471.36V49.876H470.04V50.116H471.72V50.596H470.04V50.716 50.836H470.16L470.04 50.956H469.68V50.596H467.88ZM468.84 49.036V49.396H469.68V49.036H468.84ZM468.84 48.316V48.796H469.68V48.316H468.84ZM470.04 49.036V49.396H471V49.036H470.04ZM470.04 48.316V48.796H471V48.316H470.04Z" fill-rule="evenodd"/><path transform="matrix(1,0,0,-1,0,595.276)" d="M461.88 43.756V43.276H463.68V39.796H464.16V42.196L464.76 41.716 465.36 41.116 465.72 41.476 465 42.076 464.16 42.676V43.276H466.2V43.756Z" fill-rule="evenodd"/><path transform="matrix(1,0,0,-1,0,595.276)" d="M467.88 43.636V43.276H469.68V42.916H468.36V41.116H469.68V40.756H467.76V40.396H469.68V39.796H470.04V40.396H471.96V40.756H470.04V41.116H471.36V42.916H470.04V43.276H471.72V43.636H470.04V43.876 43.996H470.16L470.04 44.116H469.68V43.636H467.88ZM468.84 42.196V42.556H469.68V42.196H468.84ZM468.84 41.476V41.836H469.68V41.476H468.84ZM470.04 42.196V42.556H471V42.196H470.04ZM470.04 41.476V41.836H471V41.476H470.04Z" fill-rule="evenodd"/></g></svg>