<?xml version='1.0' encoding='UTF-8'?>
<svg width="410.63" height="246.99" viewBox="76.00 9.55 410.63 246.99" xmlns="http://www.w3.org/2000/svg" xmlns:xlink="http://www.w3.org/1999/xlink" xmlns:inkscape="http://www.inkscape.org/namespaces/inkscape" version="1.1"><g transform="scale(10.0) translate(-329.439, -289.584)"><defs><clipPath id="clip_2"><path transform="matrix(1,0,0,-1,0,595.276)" d="M74.4 .196H767.4V595.276H74.4Z"/></clipPath></defs><path transform="matrix(1,0,0,-1,0,595.276)" d="M368.28 287.476 359.04 303.556C358.92 303.796 358.68 303.916 358.44 304.036 358.32 304.156 358.08 304.276 357.84 304.276 357.6 304.276 357.36 304.156 357.12 304.036 356.88 303.916 356.64 303.796 356.52 303.556L347.28 287.476C347.04 287.116 347.04 286.516 347.28 286.036 347.4 285.916 347.64 285.676 347.76 285.556 348 285.436 348.24 285.436 348.48 285.436H367.08C367.56 285.436 368.04 285.676 368.28 286.036 368.52 286.516 368.52 287.116 368.28 287.476Z" fill="#ff0000" fill-rule="evenodd"/><path transform="matrix(1,0,0,-1,0,595.276)" d="M366.24 287.236 357.84 301.876 349.32 287.236Z" fill="#ffffff" fill-rule="evenodd"/><path transform="matrix(1,0,0,-1,0,595.276)" d="M355.44 296.716 357.84 292.516 360.24 296.716Z" fill-rule="evenodd"/><path transform="matrix(1,0,0,-1,0,595.276)" stroke-width=".12" stroke-linecap="butt" stroke-miterlimit="10" stroke-linejoin="miter" fill="none" stroke="#000000" d="M337.5 303.5H340.5"/><path transform="matrix(1,0,0,-1,0,595.276)" stroke-width=".12" stroke-linecap="butt" stroke-miterlimit="10" stroke-linejoin="miter" fill="none" stroke="#000000" d="M340.5 282.5 339.5 280.5"/><path transform="matrix(1,0,0,-1,0,595.276)" stroke-width=".12" stroke-linecap="butt" stroke-miterlimit="10" stroke-linejoin="miter" fill="none" stroke="#000000" d="M337.5 282.5 339.5 280.5"/><path transform="matrix(1,0,0,-1,0,595.276)" stroke-width=".12" stroke-linecap="butt" stroke-linejoin="round" fill="none" stroke="#000000" d="M337.92 285.796C338.28 286.156 338.76 286.156 339.12 285.796"/><path transform="matrix(1,0,0,-1,0,595.276)" stroke-width=".12" stroke-linecap="butt" stroke-linejoin="round" fill="none" stroke="#000000" d="M339.12 285.796C339.36 285.436 339.96 285.436 340.2 285.796"/><path transform="matrix(1,0,0,-1,0,595.276)" stroke-width=".12" stroke-linecap="butt" stroke-linejoin="round" fill="none" stroke="#000000" d="M337.92 287.236C338.28 287.596 338.76 287.596 339.12 287.236"/><path transform="matrix(1,0,0,-1,0,595.276)" stroke-width=".12" stroke-linecap="butt" stroke-linejoin="round" fill="none" stroke="#000000" d="M339.12 287.236C339.36 286.756 339.96 286.756 340.2 287.236"/><path transform="matrix(1,0,0,-1,0,595.276)" stroke-width=".12" stroke-linecap="butt" stroke-linejoin="round" fill="none" stroke="#000000" d="M339.12 285.796C339.36 286.156 339.96 286.156 340.2 285.796"/><path transform="matrix(1,0,0,-1,0,595.276)" stroke-width=".12" stroke-linecap="butt" stroke-linejoin="round" fill="none" stroke="#000000" d="M337.92 287.236C338.28 286.756 338.76 286.756 339.12 287.236"/><path transform="matrix(1,0,0,-1,0,595.276)" stroke-width=".12" stroke-linecap="butt" stroke-miterlimit="10" stroke-linejoin="miter" fill="none" stroke="#000000" d="M337.5 282.5V285.5"/><path transform="matrix(1,0,0,-1,0,595.276)" stroke-width=".12" stroke-linecap="butt" stroke-miterlimit="10" stroke-linejoin="miter" fill="none" stroke="#000000" d="M337.5 287.5V303.5"/><path transform="matrix(1,0,0,-1,0,595.276)" stroke-width=".12" stroke-linecap="butt" stroke-miterlimit="10" stroke-linejoin="miter" fill="none" stroke="#000000" d="M340.5 282.5V285.5"/><path transform="matrix(1,0,0,-1,0,595.276)" stroke-width=".12" stroke-linecap="butt" stroke-linejoin="round" fill="none" stroke="#000000" d="M344.16 291.796C343.8 292.036 343.8 292.636 344.16 292.876"/><path transform="matrix(1,0,0,-1,0,595.276)" stroke-width=".12" stroke-linecap="butt" stroke-linejoin="round" fill="none" stroke="#000000" d="M344.16 292.876C344.52 293.116 344.52 293.716 344.16 294.076"/><path transform="matrix(1,0,0,-1,0,595.276)" stroke-width=".12" stroke-linecap="butt" stroke-linejoin="round" fill="none" stroke="#000000" d="M344.16 291.796C344.52 292.036 344.52 292.636 344.16 292.876"/><path transform="matrix(1,0,0,-1,0,595.276)" stroke-width=".12" stroke-linecap="butt" stroke-linejoin="round" fill="none" stroke="#000000" d="M345.6 291.796C345.24 292.036 345.24 292.636 345.6 292.876"/><path transform="matrix(1,0,0,-1,0,595.276)" stroke-width=".12" stroke-linecap="butt" stroke-linejoin="round" fill="none" stroke="#000000" d="M345.6 292.876C345.96 293.116 345.96 293.716 345.6 294.076"/><path transform="matrix(1,0,0,-1,0,595.276)" stroke-width=".12" stroke-linecap="butt" stroke-linejoin="round" fill="none" stroke="#000000" d="M345.6 292.876C345.24 293.116 345.24 293.716 345.6 294.076"/><path transform="matrix(1,0,0,-1,0,595.276)" stroke-width=".12" stroke-linecap="butt" stroke-miterlimit="10" stroke-linejoin="miter" fill="none" stroke="#000000" d="M340.5 294.5H344.5"/><path transform="matrix(1,0,0,-1,0,595.276)" stroke-width=".12" stroke-linecap="butt" stroke-miterlimit="10" stroke-linejoin="miter" fill="none" stroke="#000000" d="M345.5 294.5H351.5"/><path transform="matrix(1,0,0,-1,0,595.276)" stroke-width=".12" stroke-linecap="butt" stroke-miterlimit="10" stroke-linejoin="miter" fill="none" stroke="#000000" d="M340.5 291.5H344.5"/><path transform="matrix(1,0,0,-1,0,595.276)" stroke-width=".12" stroke-linecap="butt" stroke-miterlimit="10" stroke-linejoin="miter" fill="none" stroke="#000000" d="M345.5 291.5H349.5"/><path transform="matrix(1,0,0,-1,0,595.276)" stroke-width=".12" stroke-linecap="butt" stroke-miterlimit="10" stroke-linejoin="miter" fill="none" stroke="#000000" d="M340.5 287.5V291.5"/><path transform="matrix(1,0,0,-1,0,595.276)" stroke-width=".12" stroke-linecap="butt" stroke-miterlimit="10" stroke-linejoin="miter" fill="none" stroke="#000000" d="M340.5 294.5V303.5"/><path transform="matrix(1,0,0,-1,0,595.276)" stroke-width=".12" stroke-linecap="butt" stroke-miterlimit="10" stroke-linejoin="miter" fill="none" stroke="#000000" d="M377.5 303.5H375.5"/><path transform="matrix(1,0,0,-1,0,595.276)" stroke-width=".12" stroke-linecap="butt" stroke-miterlimit="10" stroke-linejoin="miter" fill="none" stroke="#000000" d="M375.5 282.5 376.5 280.5"/><path transform="matrix(1,0,0,-1,0,595.276)" stroke-width=".12" stroke-linecap="butt" stroke-miterlimit="10" stroke-linejoin="miter" fill="none" stroke="#000000" d="M377.5 282.5 376.5 280.5"/><path transform="matrix(1,0,0,-1,0,595.276)" stroke-width=".12" stroke-linecap="butt" stroke-linejoin="round" fill="none" stroke="#000000" d="M377.64 285.796C377.4 286.156 376.8 286.156 376.44 285.796"/><path transform="matrix(1,0,0,-1,0,595.276)" stroke-width=".12" stroke-linecap="butt" stroke-linejoin="round" fill="none" stroke="#000000" d="M376.44 285.796C376.2 285.436 375.6 285.436 375.36 285.796"/><path transform="matrix(1,0,0,-1,0,595.276)" stroke-width=".12" stroke-linecap="butt" stroke-linejoin="round" fill="none" stroke="#000000" d="M377.64 287.236C377.4 287.596 376.8 287.596 376.44 287.236"/><path transform="matrix(1,0,0,-1,0,595.276)" stroke-width=".12" stroke-linecap="butt" stroke-linejoin="round" fill="none" stroke="#000000" d="M376.44 287.236C376.2 286.756 375.6 286.756 375.36 287.236"/><path transform="matrix(1,0,0,-1,0,595.276)" stroke-width=".12" stroke-linecap="butt" stroke-linejoin="round" fill="none" stroke="#000000" d="M376.44 285.796C376.2 286.156 375.6 286.156 375.36 285.796"/><path transform="matrix(1,0,0,-1,0,595.276)" stroke-width=".12" stroke-linecap="butt" stroke-linejoin="round" fill="none" stroke="#000000" d="M377.64 287.236C377.4 286.756 376.8 286.756 376.44 287.236"/><path transform="matrix(1,0,0,-1,0,595.276)" stroke-width=".12" stroke-linecap="butt" stroke-miterlimit="10" stroke-linejoin="miter" fill="none" stroke="#000000" d="M377.5 282.5V285.5"/><path transform="matrix(1,0,0,-1,0,595.276)" stroke-width=".12" stroke-linecap="butt" stroke-miterlimit="10" stroke-linejoin="miter" fill="none" stroke="#000000" d="M377.5 287.5V303.5"/><path transform="matrix(1,0,0,-1,0,595.276)" stroke-width=".12" stroke-linecap="butt" stroke-miterlimit="10" stroke-linejoin="miter" fill="none" stroke="#000000" d="M375.5 282.5V285.5"/><path transform="matrix(1,0,0,-1,0,595.276)" stroke-width=".12" stroke-linecap="butt" stroke-linejoin="round" fill="none" stroke="#000000" d="M371.4 291.796C371.76 292.036 371.76 292.636 371.4 292.876"/><path transform="matrix(1,0,0,-1,0,595.276)" stroke-width=".12" stroke-linecap="butt" stroke-linejoin="round" fill="none" stroke="#000000" d="M371.4 292.876C371.04 293.116 371.04 293.716 371.4 294.076"/><path transform="matrix(1,0,0,-1,0,595.276)" stroke-width=".12" stroke-linecap="butt" stroke-linejoin="round" fill="none" stroke="#000000" d="M371.4 291.796C371.04 292.036 371.04 292.636 371.4 292.876"/><path transform="matrix(1,0,0,-1,0,595.276)" stroke-width=".12" stroke-linecap="butt" stroke-linejoin="round" fill="none" stroke="#000000" d="M369.96 291.796C370.32 292.036 370.32 292.636 369.96 292.876"/><path transform="matrix(1,0,0,-1,0,595.276)" stroke-width=".12" stroke-linecap="butt" stroke-linejoin="round" fill="none" stroke="#000000" d="M369.96 292.876C369.6 293.116 369.6 293.716 369.96 294.076"/><path transform="matrix(1,0,0,-1,0,595.276)" stroke-width=".12" stroke-linecap="butt" stroke-linejoin="round" fill="none" stroke="#000000" d="M369.96 292.876C370.32 293.116 370.32 293.716 369.96 294.076"/><path transform="matrix(1,0,0,-1,0,595.276)" stroke-width=".12" stroke-linecap="butt" stroke-miterlimit="10" stroke-linejoin="miter" fill="none" stroke="#000000" d="M375.5 294.5H371.5"/><path transform="matrix(1,0,0,-1,0,595.276)" stroke-width=".12" stroke-linecap="butt" stroke-miterlimit="10" stroke-linejoin="miter" fill="none" stroke="#000000" d="M369.5 294.5H364.5"/><path transform="matrix(1,0,0,-1,0,595.276)" stroke-width=".12" stroke-linecap="butt" stroke-miterlimit="10" stroke-linejoin="miter" fill="none" stroke="#000000" d="M375.5 291.5H371.5"/><path transform="matrix(1,0,0,-1,0,595.276)" stroke-width=".12" stroke-linecap="butt" stroke-miterlimit="10" stroke-linejoin="miter" fill="none" stroke="#000000" d="M369.5 291.5H365.5"/><path transform="matrix(1,0,0,-1,0,595.276)" stroke-width=".12" stroke-linecap="butt" stroke-miterlimit="10" stroke-linejoin="miter" fill="none" stroke="#000000" d="M375.5 287.5V291.5"/><path transform="matrix(1,0,0,-1,0,595.276)" stroke-width=".12" stroke-linecap="butt" stroke-miterlimit="10" stroke-linejoin="miter" fill="none" stroke="#000000" d="M375.5 294.5V303.5"/><path transform="matrix(1,0,0,-1,0,595.276)" d="M354.84 289.756H355.2V289.156H354.84V288.676H354.24V289.156H352.8V289.756L354.12 291.436H354.84V289.756ZM354.24 290.716 353.52 289.756H354.24V290.716Z" fill-rule="evenodd"/><path transform="matrix(1,0,0,-1,0,595.276)" d="M356.28 288.916C356.28 289.156 356.16 289.276 355.92 289.276 355.8 289.276 355.68 289.156 355.68 288.916 355.68 288.796 355.8 288.676 355.92 288.676 356.16 288.676 356.28 288.796 356.28 288.916Z" fill-rule="evenodd"/><path transform="matrix(1,0,0,-1,0,595.276)" d="M357.72 289.276H358.68V288.676H356.64V289.276C357.84 289.996 358.08 290.236 358.08 290.476L358.2 290.596C358.08 290.836 357.96 290.956 357.72 290.956 357.6 290.956 357.48 290.956 357.36 290.836 357.24 290.716 357.24 290.596 357.24 290.476H356.64C356.64 290.836 356.76 291.076 356.88 291.316 357.12 291.436 357.36 291.556 357.72 291.556 358.32 291.556 358.68 291.196 358.8 290.596 358.68 290.116 358.32 289.636 357.72 289.276Z" fill-rule="evenodd"/><path transform="matrix(1,0,0,-1,0,595.276)" d="M361.8 290.236C361.56 290.236 361.44 290.116 361.44 289.996V288.676H360.84V290.116C360.84 290.236 360.72 290.236 360.6 290.236 360.48 290.236 360.24 290.116 360.24 289.996V288.676H359.64V290.716H360.24V290.596C360.36 290.716 360.36 290.716 360.48 290.716 360.48 290.716 360.6 290.836 360.72 290.836 360.96 290.836 361.08 290.716 361.2 290.476 361.32 290.716 361.56 290.836 361.8 290.836 362.16 290.716 362.4 290.596 362.52 290.356V290.236 290.116 288.676H362.04V290.116L361.92 290.236H361.8Z" fill-rule="evenodd"/></g></svg>