<?xml version='1.0' encoding='UTF-8'?>
<svg width="410.63" height="251.79" viewBox="76.00 9.07 410.63 251.79" xmlns="http://www.w3.org/2000/svg" xmlns:xlink="http://www.w3.org/1999/xlink" xmlns:inkscape="http://www.inkscape.org/namespaces/inkscape" version="1.1"><g transform="scale(10.0) translate(-329.439, -451.152)"><defs><clipPath id="clip_2"><path transform="matrix(1,0,0,-1,0,595.276)" d="M74.4 .196H767.4V595.276H74.4Z"/></clipPath></defs><path transform="matrix(1,0,0,-1,0,595.276)" d="M368.28 125.956 359.04 142.036C358.92 142.276 358.68 142.396 358.44 142.516 358.32 142.636 358.08 142.756 357.84 142.756 357.6 142.756 357.36 142.636 357.12 142.516 356.88 142.396 356.64 142.276 356.52 142.036L347.28 125.956C347.04 125.596 347.04 124.996 347.28 124.516 347.4 124.396 347.64 124.156 347.76 124.036 348 123.916 348.24 123.916 348.48 123.916H367.08C367.56 123.916 368.04 124.156 368.28 124.516 368.52 124.996 368.52 125.596 368.28 125.956Z" fill="#ff0000" fill-rule="evenodd"/><path transform="matrix(1,0,0,-1,0,595.276)" d="M366.24 125.716 357.84 140.356 349.32 125.716Z" fill="#ffffff" fill-rule="evenodd"/><path transform="matrix(1,0,0,-1,0,595.276)" d="M354.84 128.236H355.2V127.636H354.84V127.156H354.24V127.636H352.8V128.236L354.12 129.916H354.84V128.236ZM354.24 129.196 353.52 128.236H354.24V129.196Z" fill-rule="evenodd"/><path transform="matrix(1,0,0,-1,0,595.276)" d="M356.28 127.396C356.28 127.636 356.04 127.756 355.92 127.756 355.8 127.756 355.68 127.636 355.68 127.396 355.68 127.276 355.8 127.156 355.92 127.156 356.04 127.156 356.28 127.276 356.28 127.396Z" fill-rule="evenodd"/><path transform="matrix(1,0,0,-1,0,595.276)" d="M357.24 128.956C357.24 128.956 357.36 129.076 357.48 129.076 357.48 129.076 357.72 129.076 357.84 129.076 358.08 129.076 358.32 129.076 358.56 128.836 358.68 128.716 358.8 128.476 358.8 128.236V128.116C358.8 127.876 358.68 127.636 358.56 127.396 358.32 127.156 358.08 127.156 357.84 127.156 357.48 127.156 357.12 127.276 357 127.516 356.76 127.756 356.64 128.116 356.64 128.596 356.64 129.076 356.76 129.436 357 129.676 357.12 129.916 357.36 130.036 357.72 130.036 357.96 130.036 358.2 130.036 358.32 129.916 358.44 129.796 358.56 129.676 358.68 129.436L358.2 129.196C358.08 129.436 357.84 129.556 357.72 129.556 357.6 129.556 357.48 129.436 357.36 129.316 357.36 129.316 357.36 129.196 357.24 129.196 357.24 129.076 357.24 129.076 357.24 128.956ZM357.72 128.596C357.6 128.596 357.48 128.596 357.48 128.476 357.36 128.356 357.36 128.236 357.36 128.116 357.36 127.876 357.48 127.636 357.72 127.636 357.84 127.636 357.96 127.636 358.08 127.756 358.2 127.876 358.2 127.996 358.2 128.116 358.2 128.356 358.08 128.596 357.72 128.596Z" fill-rule="evenodd"/><path transform="matrix(1,0,0,-1,0,595.276)" d="M361.8 128.716C361.68 128.716 361.44 128.596 361.44 128.476V127.156H360.84V128.596C360.84 128.716 360.72 128.716 360.6 128.716 360.48 128.716 360.24 128.596 360.24 128.476V127.156H359.76V129.196H360.24V129.076C360.36 129.196 360.36 129.196 360.48 129.196 360.6 129.196 360.6 129.316 360.72 129.316 360.96 129.316 361.2 129.196 361.32 128.956 361.44 129.196 361.56 129.316 361.8 129.316 362.16 129.196 362.4 129.076 362.52 128.836 362.52 128.716 362.64 128.716 362.64 128.716V128.596 127.156H362.04V128.596 128.716C361.92 128.716 361.92 128.716 361.8 128.716Z" fill-rule="evenodd"/><path transform="matrix(1,0,0,-1,0,595.276)" d="M355.44 135.196 357.84 130.996 360.24 135.196Z" fill-rule="evenodd"/><path transform="matrix(1,0,0,-1,0,595.276)" stroke-width=".12" stroke-linecap="butt" stroke-miterlimit="10" stroke-linejoin="miter" fill="none" stroke="#000000" d="M337.5 141.5H340.5"/><path transform="matrix(1,0,0,-1,0,595.276)" stroke-width=".12" stroke-linecap="butt" stroke-miterlimit="10" stroke-linejoin="miter" fill="none" stroke="#000000" d="M340.5 120.5 339.5 118.5"/><path transform="matrix(1,0,0,-1,0,595.276)" stroke-width=".12" stroke-linecap="butt" stroke-miterlimit="10" stroke-linejoin="miter" fill="none" stroke="#000000" d="M337.5 120.5 339.5 118.5"/><path transform="matrix(1,0,0,-1,0,595.276)" stroke-width=".12" stroke-linecap="butt" stroke-linejoin="round" fill="none" stroke="#000000" d="M337.92 124.276C338.28 124.636 338.76 124.636 339.12 124.276"/><path transform="matrix(1,0,0,-1,0,595.276)" stroke-width=".12" stroke-linecap="butt" stroke-linejoin="round" fill="none" stroke="#000000" d="M339.12 124.276C339.36 123.916 339.96 123.916 340.2 124.276"/><path transform="matrix(1,0,0,-1,0,595.276)" stroke-width=".12" stroke-linecap="butt" stroke-linejoin="round" fill="none" stroke="#000000" d="M337.92 125.716C338.28 126.076 338.76 126.076 339.12 125.716"/><path transform="matrix(1,0,0,-1,0,595.276)" stroke-width=".12" stroke-linecap="butt" stroke-linejoin="round" fill="none" stroke="#000000" d="M339.12 125.716C339.36 125.236 339.96 125.236 340.2 125.716"/><path transform="matrix(1,0,0,-1,0,595.276)" stroke-width=".12" stroke-linecap="butt" stroke-linejoin="round" fill="none" stroke="#000000" d="M339.12 124.276C339.36 124.636 339.96 124.636 340.2 124.276"/><path transform="matrix(1,0,0,-1,0,595.276)" stroke-width=".12" stroke-linecap="butt" stroke-linejoin="round" fill="none" stroke="#000000" d="M337.92 125.716C338.28 125.236 338.76 125.236 339.12 125.716"/><path transform="matrix(1,0,0,-1,0,595.276)" stroke-width=".12" stroke-linecap="butt" stroke-miterlimit="10" stroke-linejoin="miter" fill="none" stroke="#000000" d="M337.5 120.5V124.5"/><path transform="matrix(1,0,0,-1,0,595.276)" stroke-width=".12" stroke-linecap="butt" stroke-miterlimit="10" stroke-linejoin="miter" fill="none" stroke="#000000" d="M337.5 125.5V141.5"/><path transform="matrix(1,0,0,-1,0,595.276)" stroke-width=".12" stroke-linecap="butt" stroke-miterlimit="10" stroke-linejoin="miter" fill="none" stroke="#000000" d="M340.5 120.5V124.5"/><path transform="matrix(1,0,0,-1,0,595.276)" stroke-width=".12" stroke-linecap="butt" stroke-linejoin="round" fill="none" stroke="#000000" d="M344.16 130.276C343.8 130.516 343.8 131.116 344.16 131.356"/><path transform="matrix(1,0,0,-1,0,595.276)" stroke-width=".12" stroke-linecap="butt" stroke-linejoin="round" fill="none" stroke="#000000" d="M344.16 131.356C344.52 131.596 344.52 132.196 344.16 132.556"/><path transform="matrix(1,0,0,-1,0,595.276)" stroke-width=".12" stroke-linecap="butt" stroke-linejoin="round" fill="none" stroke="#000000" d="M344.16 130.276C344.52 130.516 344.52 131.116 344.16 131.356"/><path transform="matrix(1,0,0,-1,0,595.276)" stroke-width=".12" stroke-linecap="butt" stroke-linejoin="round" fill="none" stroke="#000000" d="M345.6 130.276C345.24 130.516 345.24 131.116 345.6 131.356"/><path transform="matrix(1,0,0,-1,0,595.276)" stroke-width=".12" stroke-linecap="butt" stroke-linejoin="round" fill="none" stroke="#000000" d="M345.6 131.356C345.96 131.596 345.96 132.196 345.6 132.556"/><path transform="matrix(1,0,0,-1,0,595.276)" stroke-width=".12" stroke-linecap="butt" stroke-linejoin="round" fill="none" stroke="#000000" d="M345.6 131.356C345.24 131.596 345.24 132.196 345.6 132.556"/><path transform="matrix(1,0,0,-1,0,595.276)" stroke-width=".12" stroke-linecap="butt" stroke-miterlimit="10" stroke-linejoin="miter" fill="none" stroke="#000000" d="M340.5 132.5H344.5"/><path transform="matrix(1,0,0,-1,0,595.276)" stroke-width=".12" stroke-linecap="butt" stroke-miterlimit="10" stroke-linejoin="miter" fill="none" stroke="#000000" d="M345.5 132.5H351.5"/><path transform="matrix(1,0,0,-1,0,595.276)" stroke-width=".12" stroke-linecap="butt" stroke-miterlimit="10" stroke-linejoin="miter" fill="none" stroke="#000000" d="M340.5 130.5H344.5"/><path transform="matrix(1,0,0,-1,0,595.276)" stroke-width=".12" stroke-linecap="butt" stroke-miterlimit="10" stroke-linejoin="miter" fill="none" stroke="#000000" d="M345.5 130.5H349.5"/><path transform="matrix(1,0,0,-1,0,595.276)" stroke-width=".12" stroke-linecap="butt" stroke-miterlimit="10" stroke-linejoin="miter" fill="none" stroke="#000000" d="M340.5 125.5V130.5"/><path transform="matrix(1,0,0,-1,0,595.276)" stroke-width=".12" stroke-linecap="butt" stroke-miterlimit="10" stroke-linejoin="miter" fill="none" stroke="#000000" d="M340.5 132.5V141.5"/><path transform="matrix(1,0,0,-1,0,595.276)" stroke-width=".12" stroke-linecap="butt" stroke-miterlimit="10" stroke-linejoin="miter" fill="none" stroke="#000000" d="M377.5 141.5H375.5"/><path transform="matrix(1,0,0,-1,0,595.276)" stroke-width=".12" stroke-linecap="butt" stroke-miterlimit="10" stroke-linejoin="miter" fill="none" stroke="#000000" d="M375.5 120.5 376.5 118.5"/><path transform="matrix(1,0,0,-1,0,595.276)" stroke-width=".12" stroke-linecap="butt" stroke-miterlimit="10" stroke-linejoin="miter" fill="none" stroke="#000000" d="M377.5 120.5 376.5 118.5"/><path transform="matrix(1,0,0,-1,0,595.276)" stroke-width=".12" stroke-linecap="butt" stroke-linejoin="round" fill="none" stroke="#000000" d="M377.64 124.276C377.4 124.636 376.8 124.636 376.44 124.276"/><path transform="matrix(1,0,0,-1,0,595.276)" stroke-width=".12" stroke-linecap="butt" stroke-linejoin="round" fill="none" stroke="#000000" d="M376.44 124.276C376.2 123.916 375.6 123.916 375.36 124.276"/><path transform="matrix(1,0,0,-1,0,595.276)" stroke-width=".12" stroke-linecap="butt" stroke-linejoin="round" fill="none" stroke="#000000" d="M377.64 125.716C377.4 126.076 376.8 126.076 376.44 125.716"/><path transform="matrix(1,0,0,-1,0,595.276)" stroke-width=".12" stroke-linecap="butt" stroke-linejoin="round" fill="none" stroke="#000000" d="M376.44 125.716C376.2 125.236 375.6 125.236 375.36 125.716"/><path transform="matrix(1,0,0,-1,0,595.276)" stroke-width=".12" stroke-linecap="butt" stroke-linejoin="round" fill="none" stroke="#000000" d="M376.44 124.276C376.2 124.636 375.6 124.636 375.36 124.276"/><path transform="matrix(1,0,0,-1,0,595.276)" stroke-width=".12" stroke-linecap="butt" stroke-linejoin="round" fill="none" stroke="#000000" d="M377.64 125.716C377.4 125.236 376.8 125.236 376.44 125.716"/><path transform="matrix(1,0,0,-1,0,595.276)" stroke-width=".12" stroke-linecap="butt" stroke-miterlimit="10" stroke-linejoin="miter" fill="none" stroke="#000000" d="M377.5 120.5V124.5"/><path transform="matrix(1,0,0,-1,0,595.276)" stroke-width=".12" stroke-linecap="butt" stroke-miterlimit="10" stroke-linejoin="miter" fill="none" stroke="#000000" d="M377.5 125.5V141.5"/><path transform="matrix(1,0,0,-1,0,595.276)" stroke-width=".12" stroke-linecap="butt" stroke-miterlimit="10" stroke-linejoin="miter" fill="none" stroke="#000000" d="M375.5 120.5V124.5"/><path transform="matrix(1,0,0,-1,0,595.276)" stroke-width=".12" stroke-linecap="butt" stroke-linejoin="round" fill="none" stroke="#000000" d="M371.4 130.276C371.76 130.516 371.76 131.116 371.4 131.356"/><path transform="matrix(1,0,0,-1,0,595.276)" stroke-width=".12" stroke-linecap="butt" stroke-linejoin="round" fill="none" stroke="#000000" d="M371.4 131.356C371.04 131.596 371.04 132.196 371.4 132.556"/><path transform="matrix(1,0,0,-1,0,595.276)" stroke-width=".12" stroke-linecap="butt" stroke-linejoin="round" fill="none" stroke="#000000" d="M371.4 130.276C371.04 130.516 371.04 131.116 371.4 131.356"/><path transform="matrix(1,0,0,-1,0,595.276)" stroke-width=".12" stroke-linecap="butt" stroke-linejoin="round" fill="none" stroke="#000000" d="M369.96 130.276C370.32 130.516 370.32 131.116 369.96 131.356"/><path transform="matrix(1,0,0,-1,0,595.276)" stroke-width=".12" stroke-linecap="butt" stroke-linejoin="round" fill="none" stroke="#000000" d="M369.96 131.356C369.6 131.596 369.6 132.196 369.96 132.556"/><path transform="matrix(1,0,0,-1,0,595.276)" stroke-width=".12" stroke-linecap="butt" stroke-linejoin="round" fill="none" stroke="#000000" d="M369.96 131.356C370.32 131.596 370.32 132.196 369.96 132.556"/><path transform="matrix(1,0,0,-1,0,595.276)" stroke-width=".12" stroke-linecap="butt" stroke-miterlimit="10" stroke-linejoin="miter" fill="none" stroke="#000000" d="M375.5 132.5H371.5"/><path transform="matrix(1,0,0,-1,0,595.276)" stroke-width=".12" stroke-linecap="butt" stroke-miterlimit="10" stroke-linejoin="miter" fill="none" stroke="#000000" d="M369.5 132.5H364.5"/><path transform="matrix(1,0,0,-1,0,595.276)" stroke-width=".12" stroke-linecap="butt" stroke-miterlimit="10" stroke-linejoin="miter" fill="none" stroke="#000000" d="M375.5 130.5H371.5"/><path transform="matrix(1,0,0,-1,0,595.276)" stroke-width=".12" stroke-linecap="butt" stroke-miterlimit="10" stroke-linejoin="miter" fill="none" stroke="#000000" d="M369.5 130.5H365.5"/><path transform="matrix(1,0,0,-1,0,595.276)" stroke-width=".12" stroke-linecap="butt" stroke-miterlimit="10" stroke-linejoin="miter" fill="none" stroke="#000000" d="M375.5 125.5V130.5"/><path transform="matrix(1,0,0,-1,0,595.276)" stroke-width=".12" stroke-linecap="butt" stroke-miterlimit="10" stroke-linejoin="miter" fill="none" stroke="#000000" d="M375.5 132.5V141.5"/></g></svg>