<?xml version='1.0' encoding='UTF-8'?>
<svg width="288.56" height="255.26" viewBox="138.74 8.21 288.56 255.26" xmlns="http://www.w3.org/2000/svg" xmlns:xlink="http://www.w3.org/1999/xlink" xmlns:inkscape="http://www.inkscape.org/namespaces/inkscape" version="1.1"><g transform="scale(10.0) translate(-438.573, -128.016)"><defs><clipPath id="clip_2"><path transform="matrix(1,0,0,-1,0,595.276)" d="M74.4 .196H767.4V595.276H74.4Z"/></clipPath></defs><path transform="matrix(1,0,0,-1,0,595.276)" d="M480.84 443.956 468.48 465.196C468.36 465.556 468.12 465.796 467.88 465.916 467.52 466.036 467.16 466.156 466.92 466.156 466.56 466.156 466.2 466.036 465.96 465.916 465.6 465.796 465.48 465.556 465.24 465.196L453 443.956C452.64 443.356 452.64 442.636 453 442.156 453.12 441.796 453.36 441.556 453.72 441.436 453.96 441.196 454.32 441.196 454.56 441.196H479.16C479.88 441.196 480.48 441.556 480.84 442.156 481.08 442.636 481.08 443.356 480.84 443.956Z" fill="#ff0000" fill-rule="evenodd"/><path transform="matrix(1,0,0,-1,0,595.276)" d="M455.64 443.716 466.92 463.036 478.08 443.716Z" fill="#ffffff" fill-rule="evenodd"/><path transform="matrix(1,0,0,-1,0,595.276)" d="M465.72 451.756 463.68 452.836C463.44 453.076 463.08 453.076 462.84 453.196 462.48 453.196 462.12 453.196 461.88 453.076 461.88 452.716 462 452.476 462.24 452.116 462.36 451.876 462.6 451.636 462.96 451.516L465 450.316 464.88 445.036C464.88 444.916 464.88 444.916 464.88 444.796 465 444.796 465 444.676 465 444.676L465.6 444.436C465.6 444.436 465.6 444.316 465.72 444.316 465.72 444.316 465.84 444.316 465.84 444.436H465.96C465.96 444.556 466.08 444.556 466.08 444.556L467.04 448.276 467.4 448.876 467.64 448.756 470.04 447.796 469.8 446.356C469.8 446.236 469.8 446.236 469.8 446.116 469.92 446.116 469.92 445.996 469.92 445.996L470.28 445.876C470.28 445.756 470.4 445.756 470.4 445.756H470.52L470.64 445.876C470.64 445.876 470.76 445.876 470.76 445.996L472.44 448.876C472.44 448.996 472.44 448.996 472.44 449.116 472.44 449.236 472.32 449.356 472.32 449.356L471.96 449.476C471.96 449.596 471.84 449.596 471.84 449.596 471.72 449.596 471.72 449.476 471.6 449.476L470.4 448.636 468.48 450.076 468.12 450.316 468.6 451.036 471.24 453.556C471.24 453.676 471.36 453.676 471.36 453.676 471.36 453.796 471.36 453.796 471.36 453.916 471.36 453.916 471.36 454.036 471.24 454.036 471.24 454.036 471.24 454.156 471.12 454.156L470.64 454.396C470.64 454.516 470.52 454.516 470.52 454.516 470.4 454.516 470.4 454.516 470.28 454.396L465.72 451.756Z" fill-rule="evenodd"/></g></svg>