<?xml version='1.0' encoding='UTF-8'?>
<svg width="288.25" height="255.25" viewBox="139.82 7.49 288.25 255.25" xmlns="http://www.w3.org/2000/svg" xmlns:xlink="http://www.w3.org/1999/xlink" xmlns:inkscape="http://www.inkscape.org/namespaces/inkscape" version="1.1"><g transform="scale(10.0) translate(-220.305, -370.368)"><defs><clipPath id="clip_2"><path transform="matrix(1,0,0,-1,0,595.276)" d="M74.4 .196H767.4V595.276H74.4Z"/></clipPath></defs><path transform="matrix(1,0,0,-1,0,595.276)" d="M234.84 201.676 247.08 222.916C247.2 223.276 247.44 223.516 247.8 223.636 248.04 223.756 248.4 223.876 248.64 223.876 249 223.876 249.36 223.756 249.6 223.636 249.96 223.516 250.2 223.276 250.32 222.916L262.56 201.676C262.92 201.076 262.92 200.356 262.56 199.876 262.44 199.516 262.2 199.276 261.96 199.156 261.6 198.916 261.24 198.916 261 198.916H236.4C235.8 198.916 235.08 199.276 234.84 199.876 234.48 200.356 234.48 201.076 234.84 201.676Z" fill="#ff0000" fill-rule="evenodd"/><path transform="matrix(1,0,0,-1,0,595.276)" d="M259.92 201.436 248.64 220.756 237.48 201.436Z" fill="#ffffff" fill-rule="evenodd"/><path transform="matrix(1,0,0,-1,0,595.276)" d="M251.64 214.516 248.64 209.476 245.76 214.516Z" fill-rule="evenodd"/><path transform="matrix(1,0,0,-1,0,595.276)" d="M247.68 202.036 248.64 203.716 249.72 202.036Z" fill-rule="evenodd"/><path transform="matrix(1,0,0,-1,0,595.276)" d="M246.24 204.916C246.24 205.156 246.12 205.276 245.88 205.276 245.64 205.276 245.4 205.156 245.4 204.916 245.4 204.676 245.64 204.556 245.88 204.556 246.12 204.556 246.24 204.676 246.24 204.916Z" fill-rule="evenodd"/><path transform="matrix(1,0,0,-1,0,595.276)" d="M243.48 205.276H244.68V204.556H242.04V205.276C243.6 206.356 243.96 206.716 243.96 206.956V207.076C243.96 207.436 243.72 207.556 243.48 207.556 243.24 207.556 243.12 207.556 243 207.436 242.88 207.316 242.88 207.316 242.88 207.196 242.76 207.076 242.76 206.956 242.76 206.836H242.04C242.04 207.916 242.52 208.396 243.48 208.396 244.32 208.396 244.8 207.916 244.8 207.076V206.956C244.8 206.356 244.32 205.876 243.48 205.276Z" fill-rule="evenodd"/><path transform="matrix(1,0,0,-1,0,595.276)" d="M250.08 206.476C250.08 207.076 249.96 207.556 249.72 207.916 249.36 208.276 249 208.396 248.52 208.396 247.92 208.396 247.56 208.276 247.32 207.916 246.96 207.556 246.84 207.076 246.84 206.476 246.84 205.156 247.44 204.436 248.52 204.436 249 204.436 249.36 204.676 249.72 204.916 249.96 205.276 250.08 205.756 250.08 206.476ZM249.24 206.476C249.24 205.636 249 205.156 248.52 205.156 248.16 205.156 248.04 205.276 247.8 205.516 247.68 205.756 247.68 205.996 247.68 206.476 247.68 207.316 247.92 207.676 248.52 207.676 249 207.676 249.24 207.316 249.24 206.476Z" fill-rule="evenodd"/><path transform="matrix(1,0,0,-1,0,595.276)" d="M254.04 206.596C253.8 206.596 253.56 206.476 253.56 206.236V204.556H252.84V206.356C252.84 206.476 252.72 206.596 252.48 206.596 252.24 206.596 252 206.476 252 206.236V204.556H251.28V207.196H252V207.076C252.12 207.196 252.24 207.196 252.36 207.316 252.36 207.316 252.48 207.316 252.6 207.316 252.96 207.316 253.2 207.196 253.32 206.956 253.56 207.196 253.8 207.316 254.04 207.316 254.52 207.316 254.88 207.076 255 206.716L255.12 206.596V206.476 204.556H254.4V206.356C254.4 206.476 254.4 206.476 254.28 206.596 254.16 206.596 254.16 206.596 254.04 206.596Z" fill-rule="evenodd"/></g></svg>