<?xml version='1.0' encoding='UTF-8'?>
<svg width="288.56" height="255.26" viewBox="140.06 7.49 288.56 255.26" xmlns="http://www.w3.org/2000/svg" xmlns:xlink="http://www.w3.org/1999/xlink" xmlns:inkscape="http://www.inkscape.org/namespaces/inkscape" version="1.1"><g transform="scale(10.0) translate(-111.171, -505.008)"><defs><clipPath id="clip_2"><path transform="matrix(1,0,0,-1,0,595.276)" d="M74.4 .196H767.4V595.276H74.4Z"/></clipPath></defs><path transform="matrix(1,0,0,-1,0,595.276)" d="M153.48 67.036 141.24 88.396C141.12 88.636 140.88 88.876 140.52 88.996 140.28 89.236 139.92 89.236 139.56 89.236 139.32 89.236 138.96 89.236 138.6 88.996 138.36 88.876 138.12 88.636 138 88.396L125.64 67.036C125.4 66.556 125.4 65.836 125.64 65.236 125.88 64.996 126.12 64.756 126.36 64.516 126.72 64.396 126.96 64.276 127.32 64.276H151.92C152.52 64.276 153.12 64.636 153.48 65.236 153.84 65.836 153.84 66.556 153.48 67.036Z" fill="#ff0000" fill-rule="evenodd"/><path transform="matrix(1,0,0,-1,0,595.276)" d="M128.4 66.796 139.56 86.116 150.84 66.796Z" fill="#ffffff" fill-rule="evenodd"/><path transform="matrix(1,0,0,-1,0,595.276)" d="M135.48 76.396H144.6V73.636H141.72V67.396H137.52V72.196H135.48L133.32 74.236Z" fill-rule="evenodd"/></g></svg>