<?xml version='1.0' encoding='UTF-8'?>
<svg width="288.25" height="255.25" viewBox="139.82 8.45 288.25 255.25" xmlns="http://www.w3.org/2000/svg" xmlns:xlink="http://www.w3.org/1999/xlink" xmlns:inkscape="http://www.inkscape.org/namespaces/inkscape" version="1.1"><g transform="scale(10.0) translate(-220.305, -47.232)"><defs><clipPath id="clip_2"><path transform="matrix(1,0,0,-1,0,595.276)" d="M74.4 .196H767.4V595.276H74.4Z"/></clipPath></defs><path transform="matrix(1,0,0,-1,0,595.276)" d="M234.84 524.716 247.08 545.956C247.2 546.316 247.44 546.556 247.8 546.676 248.04 546.796 248.4 546.916 248.64 546.916 249 546.916 249.36 546.796 249.6 546.676 249.96 546.556 250.2 546.316 250.32 545.956L262.56 524.716C262.92 524.116 262.92 523.396 262.56 522.916 262.44 522.556 262.2 522.316 261.96 522.196 261.6 521.956 261.24 521.956 261 521.956H236.4C235.8 521.956 235.08 522.316 234.84 522.916 234.48 523.396 234.48 524.116 234.84 524.716Z" fill="#ff0000" fill-rule="evenodd"/><path transform="matrix(1,0,0,-1,0,595.276)" d="M259.92 524.476 248.64 543.796 237.48 524.476Z" fill="#ffffff" fill-rule="evenodd"/><path transform="matrix(1,0,0,-1,0,595.276)" d="M242.88 529.876H246V535.516L248.04 537.556 250.2 535.516V533.356H253.32V531.316H250.2V525.076H246V527.716H242.88Z" fill-rule="evenodd"/></g></svg>