<?xml version='1.0' encoding='UTF-8'?>
<svg width="288.56" height="256.46" viewBox="138.20 7.01 288.56 256.46" xmlns="http://www.w3.org/2000/svg" xmlns:xlink="http://www.w3.org/1999/xlink" xmlns:inkscape="http://www.inkscape.org/namespaces/inkscape" version="1.1"><g transform="scale(10.0) translate(-547.707, -397.296)"><defs><clipPath id="clip_2"><path transform="matrix(1,0,0,-1,0,595.276)" d="M74.4 .196H767.4V595.276H74.4Z"/></clipPath></defs><path transform="matrix(1,0,0,-1,0,595.276)" d="M589.92 174.796 577.56 196.036C577.44 196.276 577.2 196.516 576.96 196.756 576.6 196.876 576.36 196.996 576 196.996 575.64 196.996 575.4 196.876 575.04 196.756 574.8 196.516 574.56 196.276 574.32 196.036L562.08 174.796C561.72 174.196 561.72 173.476 562.08 172.876 562.2 172.636 562.44 172.396 562.8 172.156 563.04 172.036 563.4 171.916 563.76 171.916H588.24C588.96 171.916 589.56 172.276 589.92 172.876 590.16 173.476 590.16 174.196 589.92 174.796Z" fill="#ff0000" fill-rule="evenodd"/><path transform="matrix(1,0,0,-1,0,595.276)" d="M564.84 174.436 576 193.876 587.16 174.436Z" fill="#ffffff" fill-rule="evenodd"/><path transform="matrix(1,0,0,-1,0,595.276)" d="M572.88 184.516 574.56 182.836V181.156L573.36 182.236V175.276H572.28V182.236L571.2 181.156V182.836Z" fill-rule="evenodd"/><path transform="matrix(1,0,0,-1,0,595.276)" d="M578.52 179.236H579.72V175.276H578.52Z" fill-rule="evenodd"/><path transform="matrix(1,0,0,-1,0,595.276)" d="M577.44 181.156H580.8V179.476H577.44Z" fill="#ff0000" fill-rule="evenodd"/></g></svg>