<?xml version='1.0' encoding='UTF-8'?>
<svg width="410.63" height="253.39" viewBox="76.00 9.55 410.63 253.39" xmlns="http://www.w3.org/2000/svg" xmlns:xlink="http://www.w3.org/1999/xlink" xmlns:inkscape="http://www.inkscape.org/namespaces/inkscape" version="1.1"><g transform="scale(10.0) translate(-329.439, -154.944)"><defs><clipPath id="clip_2"><path transform="matrix(1,0,0,-1,0,595.276)" d="M74.4 .196H767.4V595.276H74.4Z"/></clipPath></defs><path transform="matrix(1,0,0,-1,0,595.276)" d="M368.28 422.116 359.04 438.196C358.92 438.316 358.68 438.556 358.44 438.676 358.32 438.796 358.08 438.916 357.84 438.916 357.6 438.916 357.36 438.796 357.12 438.676 356.88 438.556 356.64 438.316 356.52 438.196L347.28 422.116C347.04 421.636 347.04 421.156 347.28 420.676 347.4 420.436 347.64 420.316 347.76 420.196 348 420.076 348.24 419.956 348.48 419.956H367.08C367.56 419.956 368.04 420.196 368.28 420.676 368.52 421.156 368.52 421.636 368.28 422.116Z" fill="#ff0000" fill-rule="evenodd"/><path transform="matrix(1,0,0,-1,0,595.276)" d="M366.24 421.876 357.84 436.516 349.32 421.876Z" fill="#ffffff" fill-rule="evenodd"/><path transform="matrix(1,0,0,-1,0,595.276)" d="M355.44 431.356 357.84 427.156 360.24 431.356Z" fill-rule="evenodd"/><path transform="matrix(1,0,0,-1,0,595.276)" stroke-width=".12" stroke-linecap="butt" stroke-miterlimit="10" stroke-linejoin="miter" fill="none" stroke="#000000" d="M337.5 437.5H340.5"/><path transform="matrix(1,0,0,-1,0,595.276)" stroke-width=".12" stroke-linecap="butt" stroke-miterlimit="10" stroke-linejoin="miter" fill="none" stroke="#000000" d="M340.5 416.5 339.5 414.5"/><path transform="matrix(1,0,0,-1,0,595.276)" stroke-width=".12" stroke-linecap="butt" stroke-miterlimit="10" stroke-linejoin="miter" fill="none" stroke="#000000" d="M337.5 416.5 339.5 414.5"/><path transform="matrix(1,0,0,-1,0,595.276)" stroke-width=".12" stroke-linecap="butt" stroke-linejoin="round" fill="none" stroke="#000000" d="M337.92 420.316C338.28 420.796 338.76 420.796 339.12 420.316"/><path transform="matrix(1,0,0,-1,0,595.276)" stroke-width=".12" stroke-linecap="butt" stroke-linejoin="round" fill="none" stroke="#000000" d="M339.12 420.316C339.36 419.956 339.96 419.956 340.2 420.316"/><path transform="matrix(1,0,0,-1,0,595.276)" stroke-width=".12" stroke-linecap="butt" stroke-linejoin="round" fill="none" stroke="#000000" d="M337.92 421.756C338.28 422.116 338.76 422.116 339.12 421.756"/><path transform="matrix(1,0,0,-1,0,595.276)" stroke-width=".12" stroke-linecap="butt" stroke-linejoin="round" fill="none" stroke="#000000" d="M339.12 421.756C339.36 421.396 339.96 421.396 340.2 421.756"/><path transform="matrix(1,0,0,-1,0,595.276)" stroke-width=".12" stroke-linecap="butt" stroke-linejoin="round" fill="none" stroke="#000000" d="M339.12 420.316C339.36 420.796 339.96 420.796 340.2 420.316"/><path transform="matrix(1,0,0,-1,0,595.276)" stroke-width=".12" stroke-linecap="butt" stroke-linejoin="round" fill="none" stroke="#000000" d="M337.92 421.756C338.28 421.396 338.76 421.396 339.12 421.756"/><path transform="matrix(1,0,0,-1,0,595.276)" stroke-width=".12" stroke-linecap="butt" stroke-miterlimit="10" stroke-linejoin="miter" fill="none" stroke="#000000" d="M337.5 416.5V420.5"/><path transform="matrix(1,0,0,-1,0,595.276)" stroke-width=".12" stroke-linecap="butt" stroke-miterlimit="10" stroke-linejoin="miter" fill="none" stroke="#000000" d="M337.5 421.5V437.5"/><path transform="matrix(1,0,0,-1,0,595.276)" stroke-width=".12" stroke-linecap="butt" stroke-miterlimit="10" stroke-linejoin="miter" fill="none" stroke="#000000" d="M340.5 416.5V420.5"/><path transform="matrix(1,0,0,-1,0,595.276)" stroke-width=".12" stroke-linecap="butt" stroke-linejoin="round" fill="none" stroke="#000000" d="M344.16 426.316C343.8 426.676 343.8 427.156 344.16 427.516"/><path transform="matrix(1,0,0,-1,0,595.276)" stroke-width=".12" stroke-linecap="butt" stroke-linejoin="round" fill="none" stroke="#000000" d="M344.16 427.516C344.52 427.756 344.52 428.356 344.16 428.596"/><path transform="matrix(1,0,0,-1,0,595.276)" stroke-width=".12" stroke-linecap="butt" stroke-linejoin="round" fill="none" stroke="#000000" d="M344.16 426.316C344.52 426.676 344.52 427.156 344.16 427.516"/><path transform="matrix(1,0,0,-1,0,595.276)" stroke-width=".12" stroke-linecap="butt" stroke-linejoin="round" fill="none" stroke="#000000" d="M345.6 426.316C345.24 426.676 345.24 427.156 345.6 427.516"/><path transform="matrix(1,0,0,-1,0,595.276)" stroke-width=".12" stroke-linecap="butt" stroke-linejoin="round" fill="none" stroke="#000000" d="M345.6 427.516C345.96 427.756 345.96 428.356 345.6 428.596"/><path transform="matrix(1,0,0,-1,0,595.276)" stroke-width=".12" stroke-linecap="butt" stroke-linejoin="round" fill="none" stroke="#000000" d="M345.6 427.516C345.24 427.756 345.24 428.356 345.6 428.596"/><path transform="matrix(1,0,0,-1,0,595.276)" stroke-width=".12" stroke-linecap="butt" stroke-miterlimit="10" stroke-linejoin="miter" fill="none" stroke="#000000" d="M340.5 428.5H344.5"/><path transform="matrix(1,0,0,-1,0,595.276)" stroke-width=".12" stroke-linecap="butt" stroke-miterlimit="10" stroke-linejoin="miter" fill="none" stroke="#000000" d="M345.5 428.5H351.5"/><path transform="matrix(1,0,0,-1,0,595.276)" stroke-width=".12" stroke-linecap="butt" stroke-miterlimit="10" stroke-linejoin="miter" fill="none" stroke="#000000" d="M340.5 426.5H344.5"/><path transform="matrix(1,0,0,-1,0,595.276)" stroke-width=".12" stroke-linecap="butt" stroke-miterlimit="10" stroke-linejoin="miter" fill="none" stroke="#000000" d="M345.5 426.5H349.5"/><path transform="matrix(1,0,0,-1,0,595.276)" stroke-width=".12" stroke-linecap="butt" stroke-miterlimit="10" stroke-linejoin="miter" fill="none" stroke="#000000" d="M340.5 421.5V426.5"/><path transform="matrix(1,0,0,-1,0,595.276)" stroke-width=".12" stroke-linecap="butt" stroke-miterlimit="10" stroke-linejoin="miter" fill="none" stroke="#000000" d="M340.5 428.5V437.5"/><path transform="matrix(1,0,0,-1,0,595.276)" stroke-width=".12" stroke-linecap="butt" stroke-miterlimit="10" stroke-linejoin="miter" fill="none" stroke="#000000" d="M377.5 437.5H375.5"/><path transform="matrix(1,0,0,-1,0,595.276)" stroke-width=".12" stroke-linecap="butt" stroke-miterlimit="10" stroke-linejoin="miter" fill="none" stroke="#000000" d="M375.5 416.5 376.5 414.5"/><path transform="matrix(1,0,0,-1,0,595.276)" stroke-width=".12" stroke-linecap="butt" stroke-miterlimit="10" stroke-linejoin="miter" fill="none" stroke="#000000" d="M377.5 416.5 376.5 414.5"/><path transform="matrix(1,0,0,-1,0,595.276)" stroke-width=".12" stroke-linecap="butt" stroke-linejoin="round" fill="none" stroke="#000000" d="M377.64 420.316C377.4 420.796 376.8 420.796 376.44 420.316"/><path transform="matrix(1,0,0,-1,0,595.276)" stroke-width=".12" stroke-linecap="butt" stroke-linejoin="round" fill="none" stroke="#000000" d="M376.44 420.316C376.2 419.956 375.6 419.956 375.36 420.316"/><path transform="matrix(1,0,0,-1,0,595.276)" stroke-width=".12" stroke-linecap="butt" stroke-linejoin="round" fill="none" stroke="#000000" d="M377.64 421.756C377.4 422.116 376.8 422.116 376.44 421.756"/><path transform="matrix(1,0,0,-1,0,595.276)" stroke-width=".12" stroke-linecap="butt" stroke-linejoin="round" fill="none" stroke="#000000" d="M376.44 421.756C376.2 421.396 375.6 421.396 375.36 421.756"/><path transform="matrix(1,0,0,-1,0,595.276)" stroke-width=".12" stroke-linecap="butt" stroke-linejoin="round" fill="none" stroke="#000000" d="M376.44 420.316C376.2 420.796 375.6 420.796 375.36 420.316"/><path transform="matrix(1,0,0,-1,0,595.276)" stroke-width=".12" stroke-linecap="butt" stroke-linejoin="round" fill="none" stroke="#000000" d="M377.64 421.756C377.4 421.396 376.8 421.396 376.44 421.756"/><path transform="matrix(1,0,0,-1,0,595.276)" stroke-width=".12" stroke-linecap="butt" stroke-miterlimit="10" stroke-linejoin="miter" fill="none" stroke="#000000" d="M377.5 416.5V420.5"/><path transform="matrix(1,0,0,-1,0,595.276)" stroke-width=".12" stroke-linecap="butt" stroke-miterlimit="10" stroke-linejoin="miter" fill="none" stroke="#000000" d="M377.5 421.5V437.5"/><path transform="matrix(1,0,0,-1,0,595.276)" stroke-width=".12" stroke-linecap="butt" stroke-miterlimit="10" stroke-linejoin="miter" fill="none" stroke="#000000" d="M375.5 416.5V420.5"/><path transform="matrix(1,0,0,-1,0,595.276)" stroke-width=".12" stroke-linecap="butt" stroke-linejoin="round" fill="none" stroke="#000000" d="M371.4 426.316C371.76 426.676 371.76 427.156 371.4 427.516"/><path transform="matrix(1,0,0,-1,0,595.276)" stroke-width=".12" stroke-linecap="butt" stroke-linejoin="round" fill="none" stroke="#000000" d="M371.4 427.516C371.04 427.756 371.04 428.356 371.4 428.596"/><path transform="matrix(1,0,0,-1,0,595.276)" stroke-width=".12" stroke-linecap="butt" stroke-linejoin="round" fill="none" stroke="#000000" d="M371.4 426.316C371.04 426.676 371.04 427.156 371.4 427.516"/><path transform="matrix(1,0,0,-1,0,595.276)" stroke-width=".12" stroke-linecap="butt" stroke-linejoin="round" fill="none" stroke="#000000" d="M369.96 426.316C370.32 426.676 370.32 427.156 369.96 427.516"/><path transform="matrix(1,0,0,-1,0,595.276)" stroke-width=".12" stroke-linecap="butt" stroke-linejoin="round" fill="none" stroke="#000000" d="M369.96 427.516C369.6 427.756 369.6 428.356 369.96 428.596"/><path transform="matrix(1,0,0,-1,0,595.276)" stroke-width=".12" stroke-linecap="butt" stroke-linejoin="round" fill="none" stroke="#000000" d="M369.96 427.516C370.32 427.756 370.32 428.356 369.96 428.596"/><path transform="matrix(1,0,0,-1,0,595.276)" stroke-width=".12" stroke-linecap="butt" stroke-miterlimit="10" stroke-linejoin="miter" fill="none" stroke="#000000" d="M375.5 428.5H371.5"/><path transform="matrix(1,0,0,-1,0,595.276)" stroke-width=".12" stroke-linecap="butt" stroke-miterlimit="10" stroke-linejoin="miter" fill="none" stroke="#000000" d="M369.5 428.5H364.5"/><path transform="matrix(1,0,0,-1,0,595.276)" stroke-width=".12" stroke-linecap="butt" stroke-miterlimit="10" stroke-linejoin="miter" fill="none" stroke="#000000" d="M375.5 426.5H371.5"/><path transform="matrix(1,0,0,-1,0,595.276)" stroke-width=".12" stroke-linecap="butt" stroke-miterlimit="10" stroke-linejoin="miter" fill="none" stroke="#000000" d="M369.5 426.5H365.5"/><path transform="matrix(1,0,0,-1,0,595.276)" stroke-width=".12" stroke-linecap="butt" stroke-miterlimit="10" stroke-linejoin="miter" fill="none" stroke="#000000" d="M375.5 421.5V426.5"/><path transform="matrix(1,0,0,-1,0,595.276)" stroke-width=".12" stroke-linecap="butt" stroke-miterlimit="10" stroke-linejoin="miter" fill="none" stroke="#000000" d="M375.5 428.5V437.5"/><path transform="matrix(1,0,0,-1,0,595.276)" d="M355.92 423.556C355.92 423.676 355.8 423.796 355.68 423.796 355.44 423.796 355.32 423.676 355.32 423.556 355.32 423.436 355.44 423.316 355.68 423.316 355.8 423.316 355.92 423.436 355.92 423.556Z" fill-rule="evenodd"/><path transform="matrix(1,0,0,-1,0,595.276)" d="M353.76 423.796H354.72V423.316H352.8V423.796C354 424.636 354.24 424.876 354.24 425.116V425.236C354.24 425.476 354.12 425.596 353.88 425.596 353.64 425.596 353.52 425.596 353.4 425.476 353.4 425.356 353.4 425.356 353.4 425.236 353.28 425.236 353.28 425.116 353.28 424.996H352.68C352.68 425.356 352.8 425.716 353.04 425.836 353.16 426.076 353.52 426.196 353.88 426.196 354.48 426.196 354.84 425.836 354.84 425.236V425.116C354.84 424.636 354.48 424.276 353.76 423.796Z" fill-rule="evenodd"/><path transform="matrix(1,0,0,-1,0,595.276)" d="M358.8 424.756C358.8 425.236 358.68 425.596 358.56 425.836 358.32 426.076 358.08 426.196 357.6 426.196 357.24 426.196 356.88 426.076 356.76 425.836 356.52 425.596 356.4 425.236 356.4 424.756 356.4 424.156 356.52 423.796 356.76 423.556 356.88 423.316 357.24 423.196 357.6 423.196 358.08 423.196 358.32 423.316 358.56 423.556 358.68 423.796 358.8 424.156 358.8 424.756ZM358.2 424.756C358.2 424.036 358.08 423.796 357.6 423.796 357.24 423.796 357 424.036 357 424.756 357 425.356 357.24 425.596 357.6 425.596 358.08 425.596 358.2 425.356 358.2 424.756Z" fill-rule="evenodd"/><path transform="matrix(1,0,0,-1,0,595.276)" d="M361.8 424.876C361.68 424.876 361.44 424.756 361.44 424.516V423.316H360.96V424.636C360.96 424.756 360.84 424.876 360.6 424.876 360.48 424.876 360.36 424.756 360.36 424.516V423.316H359.76V425.356H360.24V425.236C360.36 425.236 360.48 425.356 360.48 425.356 360.6 425.356 360.72 425.356 360.72 425.356 361.08 425.356 361.2 425.356 361.32 425.116 361.44 425.356 361.68 425.356 361.8 425.356 362.28 425.356 362.52 425.236 362.64 424.876V424.756 423.316H362.04V424.636 424.756C361.92 424.876 361.92 424.876 361.8 424.876Z" fill-rule="evenodd"/></g></svg>