<?xml version='1.0' encoding='UTF-8'?>
<svg width="410.63" height="250.59" viewBox="76.00 8.83 410.63 250.59" xmlns="http://www.w3.org/2000/svg" xmlns:xlink="http://www.w3.org/1999/xlink" xmlns:inkscape="http://www.inkscape.org/namespaces/inkscape" version="1.1"><g transform="scale(10.0) translate(-329.439, -397.296)"><defs><clipPath id="clip_2"><path transform="matrix(1,0,0,-1,0,595.276)" d="M74.4 .196H767.4V595.276H74.4Z"/></clipPath></defs><path transform="matrix(1,0,0,-1,0,595.276)" d="M368.28 179.836 359.04 195.916C358.92 196.036 358.68 196.276 358.44 196.396 358.32 196.516 358.08 196.636 357.84 196.636 357.6 196.636 357.36 196.516 357.12 196.396 356.88 196.276 356.64 196.036 356.52 195.916L347.28 179.836C347.04 179.356 347.04 178.876 347.28 178.396 347.4 178.156 347.64 178.036 347.76 177.916 348 177.796 348.24 177.676 348.48 177.676H367.08C367.56 177.676 368.04 177.916 368.28 178.396 368.52 178.876 368.52 179.356 368.28 179.836Z" fill="#ff0000" fill-rule="evenodd"/><path transform="matrix(1,0,0,-1,0,595.276)" d="M366.24 179.596 357.84 194.236 349.32 179.596Z" fill="#ffffff" fill-rule="evenodd"/><path transform="matrix(1,0,0,-1,0,595.276)" d="M355.44 189.076 357.84 184.876 360.24 189.076Z" fill-rule="evenodd"/><path transform="matrix(1,0,0,-1,0,595.276)" stroke-width=".12" stroke-linecap="butt" stroke-miterlimit="10" stroke-linejoin="miter" fill="none" stroke="#000000" d="M337.5 195.5H340.5"/><path transform="matrix(1,0,0,-1,0,595.276)" stroke-width=".12" stroke-linecap="butt" stroke-miterlimit="10" stroke-linejoin="miter" fill="none" stroke="#000000" d="M340.5 174.5 339.5 172.5"/><path transform="matrix(1,0,0,-1,0,595.276)" stroke-width=".12" stroke-linecap="butt" stroke-miterlimit="10" stroke-linejoin="miter" fill="none" stroke="#000000" d="M337.5 174.5 339.5 172.5"/><path transform="matrix(1,0,0,-1,0,595.276)" stroke-width=".12" stroke-linecap="butt" stroke-linejoin="round" fill="none" stroke="#000000" d="M337.92 178.036C338.28 178.516 338.76 178.516 339.12 178.036"/><path transform="matrix(1,0,0,-1,0,595.276)" stroke-width=".12" stroke-linecap="butt" stroke-linejoin="round" fill="none" stroke="#000000" d="M339.12 178.036C339.36 177.676 339.96 177.676 340.2 178.036"/><path transform="matrix(1,0,0,-1,0,595.276)" stroke-width=".12" stroke-linecap="butt" stroke-linejoin="round" fill="none" stroke="#000000" d="M337.92 179.476C338.28 179.836 338.76 179.836 339.12 179.476"/><path transform="matrix(1,0,0,-1,0,595.276)" stroke-width=".12" stroke-linecap="butt" stroke-linejoin="round" fill="none" stroke="#000000" d="M339.12 179.476C339.36 179.116 339.96 179.116 340.2 179.476"/><path transform="matrix(1,0,0,-1,0,595.276)" stroke-width=".12" stroke-linecap="butt" stroke-linejoin="round" fill="none" stroke="#000000" d="M339.12 178.036C339.36 178.516 339.96 178.516 340.2 178.036"/><path transform="matrix(1,0,0,-1,0,595.276)" stroke-width=".12" stroke-linecap="butt" stroke-linejoin="round" fill="none" stroke="#000000" d="M337.92 179.476C338.28 179.116 338.76 179.116 339.12 179.476"/><path transform="matrix(1,0,0,-1,0,595.276)" stroke-width=".12" stroke-linecap="butt" stroke-miterlimit="10" stroke-linejoin="miter" fill="none" stroke="#000000" d="M337.5 174.5V178.5"/><path transform="matrix(1,0,0,-1,0,595.276)" stroke-width=".12" stroke-linecap="butt" stroke-miterlimit="10" stroke-linejoin="miter" fill="none" stroke="#000000" d="M337.5 179.5V195.5"/><path transform="matrix(1,0,0,-1,0,595.276)" stroke-width=".12" stroke-linecap="butt" stroke-miterlimit="10" stroke-linejoin="miter" fill="none" stroke="#000000" d="M340.5 174.5V178.5"/><path transform="matrix(1,0,0,-1,0,595.276)" stroke-width=".12" stroke-linecap="butt" stroke-linejoin="round" fill="none" stroke="#000000" d="M344.16 184.036C343.8 184.396 343.8 184.876 344.16 185.236"/><path transform="matrix(1,0,0,-1,0,595.276)" stroke-width=".12" stroke-linecap="butt" stroke-linejoin="round" fill="none" stroke="#000000" d="M344.16 185.236C344.52 185.476 344.52 186.076 344.16 186.316"/><path transform="matrix(1,0,0,-1,0,595.276)" stroke-width=".12" stroke-linecap="butt" stroke-linejoin="round" fill="none" stroke="#000000" d="M344.16 184.036C344.52 184.396 344.52 184.876 344.16 185.236"/><path transform="matrix(1,0,0,-1,0,595.276)" stroke-width=".12" stroke-linecap="butt" stroke-linejoin="round" fill="none" stroke="#000000" d="M345.6 184.036C345.24 184.396 345.24 184.876 345.6 185.236"/><path transform="matrix(1,0,0,-1,0,595.276)" stroke-width=".12" stroke-linecap="butt" stroke-linejoin="round" fill="none" stroke="#000000" d="M345.6 185.236C345.96 185.476 345.96 186.076 345.6 186.316"/><path transform="matrix(1,0,0,-1,0,595.276)" stroke-width=".12" stroke-linecap="butt" stroke-linejoin="round" fill="none" stroke="#000000" d="M345.6 185.236C345.24 185.476 345.24 186.076 345.6 186.316"/><path transform="matrix(1,0,0,-1,0,595.276)" stroke-width=".12" stroke-linecap="butt" stroke-miterlimit="10" stroke-linejoin="miter" fill="none" stroke="#000000" d="M340.5 186.5H344.5"/><path transform="matrix(1,0,0,-1,0,595.276)" stroke-width=".12" stroke-linecap="butt" stroke-miterlimit="10" stroke-linejoin="miter" fill="none" stroke="#000000" d="M345.5 186.5H351.5"/><path transform="matrix(1,0,0,-1,0,595.276)" stroke-width=".12" stroke-linecap="butt" stroke-miterlimit="10" stroke-linejoin="miter" fill="none" stroke="#000000" d="M340.5 184.5H344.5"/><path transform="matrix(1,0,0,-1,0,595.276)" stroke-width=".12" stroke-linecap="butt" stroke-miterlimit="10" stroke-linejoin="miter" fill="none" stroke="#000000" d="M345.5 184.5H349.5"/><path transform="matrix(1,0,0,-1,0,595.276)" stroke-width=".12" stroke-linecap="butt" stroke-miterlimit="10" stroke-linejoin="miter" fill="none" stroke="#000000" d="M340.5 179.5V184.5"/><path transform="matrix(1,0,0,-1,0,595.276)" stroke-width=".12" stroke-linecap="butt" stroke-miterlimit="10" stroke-linejoin="miter" fill="none" stroke="#000000" d="M340.5 186.5V195.5"/><path transform="matrix(1,0,0,-1,0,595.276)" stroke-width=".12" stroke-linecap="butt" stroke-miterlimit="10" stroke-linejoin="miter" fill="none" stroke="#000000" d="M377.5 195.5H375.5"/><path transform="matrix(1,0,0,-1,0,595.276)" stroke-width=".12" stroke-linecap="butt" stroke-miterlimit="10" stroke-linejoin="miter" fill="none" stroke="#000000" d="M375.5 174.5 376.5 172.5"/><path transform="matrix(1,0,0,-1,0,595.276)" stroke-width=".12" stroke-linecap="butt" stroke-miterlimit="10" stroke-linejoin="miter" fill="none" stroke="#000000" d="M377.5 174.5 376.5 172.5"/><path transform="matrix(1,0,0,-1,0,595.276)" stroke-width=".12" stroke-linecap="butt" stroke-linejoin="round" fill="none" stroke="#000000" d="M377.64 178.036C377.4 178.516 376.8 178.516 376.44 178.036"/><path transform="matrix(1,0,0,-1,0,595.276)" stroke-width=".12" stroke-linecap="butt" stroke-linejoin="round" fill="none" stroke="#000000" d="M376.44 178.036C376.2 177.676 375.6 177.676 375.36 178.036"/><path transform="matrix(1,0,0,-1,0,595.276)" stroke-width=".12" stroke-linecap="butt" stroke-linejoin="round" fill="none" stroke="#000000" d="M377.64 179.476C377.4 179.836 376.8 179.836 376.44 179.476"/><path transform="matrix(1,0,0,-1,0,595.276)" stroke-width=".12" stroke-linecap="butt" stroke-linejoin="round" fill="none" stroke="#000000" d="M376.44 179.476C376.2 179.116 375.6 179.116 375.36 179.476"/><path transform="matrix(1,0,0,-1,0,595.276)" stroke-width=".12" stroke-linecap="butt" stroke-linejoin="round" fill="none" stroke="#000000" d="M376.44 178.036C376.2 178.516 375.6 178.516 375.36 178.036"/><path transform="matrix(1,0,0,-1,0,595.276)" stroke-width=".12" stroke-linecap="butt" stroke-linejoin="round" fill="none" stroke="#000000" d="M377.64 179.476C377.4 179.116 376.8 179.116 376.44 179.476"/><path transform="matrix(1,0,0,-1,0,595.276)" stroke-width=".12" stroke-linecap="butt" stroke-miterlimit="10" stroke-linejoin="miter" fill="none" stroke="#000000" d="M377.5 174.5V178.5"/><path transform="matrix(1,0,0,-1,0,595.276)" stroke-width=".12" stroke-linecap="butt" stroke-miterlimit="10" stroke-linejoin="miter" fill="none" stroke="#000000" d="M377.5 179.5V195.5"/><path transform="matrix(1,0,0,-1,0,595.276)" stroke-width=".12" stroke-linecap="butt" stroke-miterlimit="10" stroke-linejoin="miter" fill="none" stroke="#000000" d="M375.5 174.5V178.5"/><path transform="matrix(1,0,0,-1,0,595.276)" stroke-width=".12" stroke-linecap="butt" stroke-linejoin="round" fill="none" stroke="#000000" d="M371.4 184.036C371.76 184.396 371.76 184.876 371.4 185.236"/><path transform="matrix(1,0,0,-1,0,595.276)" stroke-width=".12" stroke-linecap="butt" stroke-linejoin="round" fill="none" stroke="#000000" d="M371.4 185.236C371.04 185.476 371.04 186.076 371.4 186.316"/><path transform="matrix(1,0,0,-1,0,595.276)" stroke-width=".12" stroke-linecap="butt" stroke-linejoin="round" fill="none" stroke="#000000" d="M371.4 184.036C371.04 184.396 371.04 184.876 371.4 185.236"/><path transform="matrix(1,0,0,-1,0,595.276)" stroke-width=".12" stroke-linecap="butt" stroke-linejoin="round" fill="none" stroke="#000000" d="M369.96 184.036C370.32 184.396 370.32 184.876 369.96 185.236"/><path transform="matrix(1,0,0,-1,0,595.276)" stroke-width=".12" stroke-linecap="butt" stroke-linejoin="round" fill="none" stroke="#000000" d="M369.96 185.236C369.6 185.476 369.6 186.076 369.96 186.316"/><path transform="matrix(1,0,0,-1,0,595.276)" stroke-width=".12" stroke-linecap="butt" stroke-linejoin="round" fill="none" stroke="#000000" d="M369.96 185.236C370.32 185.476 370.32 186.076 369.96 186.316"/><path transform="matrix(1,0,0,-1,0,595.276)" stroke-width=".12" stroke-linecap="butt" stroke-miterlimit="10" stroke-linejoin="miter" fill="none" stroke="#000000" d="M375.5 186.5H371.5"/><path transform="matrix(1,0,0,-1,0,595.276)" stroke-width=".12" stroke-linecap="butt" stroke-miterlimit="10" stroke-linejoin="miter" fill="none" stroke="#000000" d="M369.5 186.5H364.5"/><path transform="matrix(1,0,0,-1,0,595.276)" stroke-width=".12" stroke-linecap="butt" stroke-miterlimit="10" stroke-linejoin="miter" fill="none" stroke="#000000" d="M375.5 184.5H371.5"/><path transform="matrix(1,0,0,-1,0,595.276)" stroke-width=".12" stroke-linecap="butt" stroke-miterlimit="10" stroke-linejoin="miter" fill="none" stroke="#000000" d="M369.5 184.5H365.5"/><path transform="matrix(1,0,0,-1,0,595.276)" stroke-width=".12" stroke-linecap="butt" stroke-miterlimit="10" stroke-linejoin="miter" fill="none" stroke="#000000" d="M375.5 179.5V184.5"/><path transform="matrix(1,0,0,-1,0,595.276)" stroke-width=".12" stroke-linecap="butt" stroke-miterlimit="10" stroke-linejoin="miter" fill="none" stroke="#000000" d="M375.5 186.5V195.5"/><path transform="matrix(1,0,0,-1,0,595.276)" d="M354.96 182.116H355.44V181.516H354.96V181.036H354.48V181.516H352.92V181.996L354.24 183.796H354.96V182.116ZM354.48 183.076 353.64 182.116H354.48V183.076Z" fill-rule="evenodd"/><path transform="matrix(1,0,0,-1,0,595.276)" d="M356.4 181.276C356.4 181.396 356.28 181.516 356.16 181.516 356.04 181.516 355.8 181.396 355.8 181.276 355.8 181.156 356.04 181.036 356.16 181.036 356.28 181.036 356.4 181.156 356.4 181.276Z" fill-rule="evenodd"/><path transform="matrix(1,0,0,-1,0,595.276)" d="M357.24 181.036H357.84L358.68 183.196V183.796H356.76V183.196H358.08Z" fill-rule="evenodd"/><path transform="matrix(1,0,0,-1,0,595.276)" d="M361.56 182.596C361.44 182.596 361.2 182.476 361.2 182.236V181.036H360.72V182.356C360.72 182.476 360.6 182.596 360.36 182.596 360.24 182.596 360.12 182.476 360.12 182.236V181.036H359.52V183.076H360V182.956C360.12 182.956 360.24 183.076 360.24 183.076 360.36 183.076 360.48 183.076 360.48 183.076 360.84 183.076 360.96 182.956 361.08 182.836 361.2 183.076 361.44 183.076 361.56 183.076 362.04 183.076 362.28 182.956 362.4 182.596V182.476 181.036H361.8V182.356 182.476C361.68 182.596 361.68 182.596 361.56 182.596Z" fill-rule="evenodd"/></g></svg>