<?xml version='1.0' encoding='UTF-8'?>
<svg width="288.56" height="255.26" viewBox="138.20 7.73 288.56 255.26" xmlns="http://www.w3.org/2000/svg" xmlns:xlink="http://www.w3.org/1999/xlink" xmlns:inkscape="http://www.inkscape.org/namespaces/inkscape" version="1.1"><g transform="scale(10.0) translate(-547.707, -289.584)"><defs><clipPath id="clip_2"><path transform="matrix(1,0,0,-1,0,595.276)" d="M74.4 .196H767.4V595.276H74.4Z"/></clipPath></defs><path transform="matrix(1,0,0,-1,0,595.276)" d="M562.08 282.436 574.32 303.676C574.56 304.036 574.8 304.276 575.04 304.396 575.4 304.516 575.64 304.636 576 304.636 576.36 304.636 576.6 304.516 576.96 304.396 577.2 304.276 577.44 304.036 577.56 303.676L589.92 282.436C590.16 281.836 590.16 281.116 589.92 280.636 589.68 280.276 589.44 280.036 589.2 279.916 588.96 279.676 588.6 279.676 588.24 279.676H563.76C563.04 279.676 562.44 280.036 562.08 280.636 561.72 281.116 561.72 281.836 562.08 282.436Z" fill="#ff0000" fill-rule="evenodd"/><path transform="matrix(1,0,0,-1,0,595.276)" d="M587.16 282.196 576 301.516 564.84 282.196Z" fill="#ffffff" fill-rule="evenodd"/><path transform="matrix(1,0,0,-1,0,595.276)" d="M571.8 292.156 570.12 290.476V288.796L571.32 289.876V283.036H572.4V289.876L573.48 288.796V290.476Z" fill-rule="evenodd"/><path transform="matrix(1,0,0,-1,0,595.276)" d="M576.6 286.996H575.4V283.036H576.6Z" fill-rule="evenodd"/><path transform="matrix(1,0,0,-1,0,595.276)" d="M577.68 288.796H574.32V287.116H577.68Z" fill="#ff0000" fill-rule="evenodd"/><path transform="matrix(1,0,0,-1,0,595.276)" d="M580.68 286.996H579.6V283.036H580.68Z" fill-rule="evenodd"/><path transform="matrix(1,0,0,-1,0,595.276)" d="M581.76 288.796H578.52V287.116H581.76Z" fill="#ff0000" fill-rule="evenodd"/></g></svg>