<?xml version='1.0' encoding='UTF-8'?>
<svg width="288.25" height="256.45" viewBox="139.82 7.01 288.25 256.45" xmlns="http://www.w3.org/2000/svg" xmlns:xlink="http://www.w3.org/1999/xlink" xmlns:inkscape="http://www.inkscape.org/namespaces/inkscape" version="1.1"><g transform="scale(10.0) translate(-220.305, -397.296)"><defs><clipPath id="clip_2"><path transform="matrix(1,0,0,-1,0,595.276)" d="M74.4 .196H767.4V595.276H74.4Z"/></clipPath></defs><path transform="matrix(1,0,0,-1,0,595.276)" d="M234.84 174.796 247.08 196.036C247.2 196.276 247.44 196.516 247.8 196.756 248.04 196.876 248.4 196.996 248.64 196.996 249 196.996 249.36 196.876 249.6 196.756 249.96 196.516 250.2 196.276 250.32 196.036L262.56 174.796C262.92 174.196 262.92 173.476 262.56 172.876 262.44 172.636 262.2 172.396 261.96 172.156 261.6 172.036 261.24 171.916 261 171.916H236.4C235.8 171.916 235.08 172.276 234.84 172.876 234.48 173.476 234.48 174.196 234.84 174.796Z" fill="#ff0000" fill-rule="evenodd"/><path transform="matrix(1,0,0,-1,0,595.276)" d="M259.92 174.436 248.64 193.876 237.48 174.436Z" fill="#ffffff" fill-rule="evenodd"/><path transform="matrix(1,0,0,-1,0,595.276)" d="M251.64 187.636 248.64 182.596 245.76 187.636Z" fill-rule="evenodd"/><path transform="matrix(1,0,0,-1,0,595.276)" d="M247.68 175.036 248.64 176.836 249.72 175.036Z" fill-rule="evenodd"/><path transform="matrix(1,0,0,-1,0,595.276)" d="M246.36 178.036C246.36 178.276 246.24 178.396 246 178.396 245.76 178.396 245.64 178.276 245.64 178.036 245.64 177.796 245.76 177.556 246 177.556 246.24 177.556 246.36 177.796 246.36 178.036Z" fill-rule="evenodd"/><path transform="matrix(1,0,0,-1,0,595.276)" d="M243.48 177.556C244.32 177.556 244.8 177.916 244.8 178.636 244.8 179.116 244.68 179.476 244.44 179.596 244.68 179.716 244.8 180.076 244.8 180.316 244.8 181.036 244.2 181.516 243.36 181.516 243 181.516 242.64 181.396 242.4 181.156 242.04 180.916 241.92 180.676 241.92 180.316L242.76 180.196C242.76 180.556 243 180.676 243.36 180.796H243.48C243.84 180.676 243.96 180.556 243.96 180.316 243.96 180.076 243.84 179.956 243.72 179.956H243.12V179.236H243.72C243.72 179.236 243.84 179.236 243.84 179.116 243.96 178.996 243.96 178.876 243.96 178.876 243.96 178.516 243.84 178.396 243.48 178.276 243.24 178.276 243 178.396 242.88 178.516 242.76 178.516 242.76 178.756 242.76 178.876L241.92 178.756C241.92 178.036 242.52 177.556 243.48 177.556Z" fill-rule="evenodd"/><path transform="matrix(1,0,0,-1,0,595.276)" d="M250.2 179.476C250.2 180.196 250.08 180.676 249.84 181.036 249.6 181.276 249.12 181.516 248.64 181.516 248.04 181.516 247.68 181.276 247.44 181.036 247.2 180.676 246.96 180.196 246.96 179.476 246.96 178.156 247.56 177.556 248.64 177.556 249.12 177.556 249.6 177.676 249.84 178.036 250.08 178.396 250.2 178.876 250.2 179.476ZM249.48 179.476C249.48 178.636 249.12 178.276 248.64 178.276 248.28 178.276 248.16 178.396 248.04 178.636 247.8 178.756 247.8 179.116 247.8 179.476 247.8 180.316 248.04 180.796 248.64 180.796 249.12 180.796 249.48 180.316 249.48 179.476Z" fill-rule="evenodd"/><path transform="matrix(1,0,0,-1,0,595.276)" d="M254.16 179.716C253.92 179.716 253.68 179.476 253.68 179.356V177.676H252.96V179.476C252.96 179.596 252.84 179.716 252.6 179.716 252.36 179.716 252.12 179.476 252.12 179.356V177.676H251.4V180.316H252.12V180.196C252.24 180.316 252.36 180.316 252.48 180.316 252.6 180.436 252.72 180.436 252.72 180.436 253.08 180.436 253.32 180.316 253.44 180.076 253.68 180.316 253.92 180.436 254.16 180.436 254.76 180.436 255 180.196 255.24 179.836V179.716 179.596 177.676H254.52V179.476 179.596H254.4C254.4 179.716 254.28 179.716 254.16 179.716Z" fill-rule="evenodd"/></g></svg>