<?xml version='1.0' encoding='UTF-8'?>
<svg width="288.56" height="256.46" viewBox="138.20 7.49 288.56 256.46" xmlns="http://www.w3.org/2000/svg" xmlns:xlink="http://www.w3.org/1999/xlink" xmlns:inkscape="http://www.inkscape.org/namespaces/inkscape" version="1.1"><g transform="scale(10.0) translate(-547.707, -235.728)"><defs><clipPath id="clip_2"><path transform="matrix(1,0,0,-1,0,595.276)" d="M74.4 .196H767.4V595.276H74.4Z"/></clipPath></defs><path transform="matrix(1,0,0,-1,0,595.276)" d="M589.92 336.316 577.56 357.556C577.44 357.796 577.2 358.036 576.96 358.276 576.6 358.396 576.36 358.516 576 358.516 575.64 358.516 575.4 358.396 575.04 358.276 574.8 358.036 574.56 357.796 574.32 357.556L562.08 336.316C561.72 335.716 561.72 334.996 562.08 334.396 562.2 334.156 562.44 333.916 562.8 333.676 563.04 333.556 563.4 333.436 563.76 333.436H588.24C588.96 333.436 589.56 333.796 589.92 334.396 590.16 334.996 590.16 335.716 589.92 336.316Z" fill="#ff0000" fill-rule="evenodd"/><path transform="matrix(1,0,0,-1,0,595.276)" d="M564.84 335.956 576 355.396 587.16 335.956Z" fill="#ffffff" fill-rule="evenodd"/><path transform="matrix(1,0,0,-1,0,595.276)" d="M571.8 346.036 573.48 344.356V342.676L572.4 343.756V336.796H571.32V343.756L570.12 342.676V344.356Z" fill-rule="evenodd"/><path transform="matrix(1,0,0,-1,0,595.276)" d="M580.2 346.036 581.76 344.356V342.676L580.68 343.756V336.796H579.6V343.756L578.52 342.676V344.356Z" fill-rule="evenodd"/><path transform="matrix(1,0,0,-1,0,595.276)" d="M575.4 340.756H576.6V336.796H575.4Z" fill-rule="evenodd"/><path transform="matrix(1,0,0,-1,0,595.276)" d="M574.32 342.676H577.68V340.996H574.32Z" fill="#ff0000" fill-rule="evenodd"/></g></svg>