<?xml version='1.0' encoding='UTF-8'?>
<svg width="288.25" height="255.25" viewBox="139.82 8.21 288.25 255.25" xmlns="http://www.w3.org/2000/svg" xmlns:xlink="http://www.w3.org/1999/xlink" xmlns:inkscape="http://www.inkscape.org/namespaces/inkscape" version="1.1"><g transform="scale(10.0) translate(-220.305, -128.016)"><defs><clipPath id="clip_2"><path transform="matrix(1,0,0,-1,0,595.276)" d="M74.4 .196H767.4V595.276H74.4Z"/></clipPath></defs><path transform="matrix(1,0,0,-1,0,595.276)" d="M234.84 443.956 247.08 465.196C247.2 465.556 247.44 465.796 247.8 465.916 248.04 466.036 248.4 466.156 248.64 466.156 249 466.156 249.36 466.036 249.6 465.916 249.96 465.796 250.2 465.556 250.32 465.196L262.56 443.956C262.92 443.356 262.92 442.636 262.56 442.156 262.44 441.796 262.2 441.556 261.96 441.436 261.6 441.196 261.24 441.196 261 441.196H236.4C235.8 441.196 235.08 441.556 234.84 442.156 234.48 442.636 234.48 443.356 234.84 443.956Z" fill="#ff0000" fill-rule="evenodd"/><path transform="matrix(1,0,0,-1,0,595.276)" d="M259.92 443.716 248.64 463.036 237.48 443.716Z" fill="#ffffff" fill-rule="evenodd"/><path transform="matrix(1,0,0,-1,0,595.276)" d="M247.8 454.636 246 450.676 245.16 451.036 246.48 453.796 245.88 454.156 246.24 454.876C246.36 454.756 246.6 454.756 246.72 454.756 246.84 454.756 246.96 454.876 247.08 454.996L247.8 454.636Z" fill-rule="evenodd"/><path transform="matrix(1,0,0,-1,0,595.276)" d="M253.2 452.236 250.68 453.316 249.48 451.276 250.32 450.796C250.32 450.916 250.44 450.916 250.56 450.916 250.8 451.036 250.92 450.916 251.04 450.916 251.16 450.796 251.4 450.676 251.4 450.436 251.52 450.196 251.52 449.956 251.4 449.836 251.16 449.476 250.8 449.236 250.44 449.476 250.2 449.476 250.08 449.596 249.96 449.836 249.96 449.956 249.84 450.076 249.96 450.316L249 450.436C248.88 449.596 249.24 448.996 250.08 448.636 251.04 448.156 251.88 448.516 252.24 449.356 252.72 450.436 252.48 451.156 251.52 451.636 251.4 451.636 251.28 451.756 251.04 451.756H250.92 250.8L250.92 451.876 251.04 452.116 252.84 451.396 253.2 452.236Z" fill-rule="evenodd"/><path transform="matrix(1,0,0,-1,0,595.276)" d="M248.76 451.516C248.76 451.756 248.76 451.996 248.52 452.116 248.28 452.236 247.92 452.116 247.8 451.876 247.8 451.636 247.8 451.396 248.04 451.276 248.28 451.156 248.64 451.276 248.76 451.516Z" fill-rule="evenodd"/><path transform="matrix(1,0,0,-1,0,595.276)" d="M248.04 450.076C248.16 450.316 248.04 450.676 247.8 450.676 247.56 450.796 247.32 450.676 247.2 450.436 247.08 450.196 247.2 449.956 247.44 449.836 247.68 449.716 247.92 449.836 248.04 450.076Z" fill-rule="evenodd"/><path transform="matrix(1,0,0,-1,0,595.276)" d="M258.84 444.316 242.76 451.516 238.56 444.316Z" fill-rule="evenodd"/></g></svg>