<?xml version='1.0' encoding='UTF-8'?>
<svg width="289.45" height="256.45" viewBox="138.68 6.41 289.45 256.45" xmlns="http://www.w3.org/2000/svg" xmlns:xlink="http://www.w3.org/1999/xlink" xmlns:inkscape="http://www.inkscape.org/namespaces/inkscape" version="1.1"><g transform="scale(10.0) translate(-329.439, -531.936)"><defs><clipPath id="clip_2"><path transform="matrix(1,0,0,-1,0,595.276)" d="M74.4 .196H767.4V595.276H74.4Z"/></clipPath></defs><path transform="matrix(1,0,0,-1,0,595.276)" d="M371.64 40.156 359.4 61.396C359.28 61.756 359.04 61.996 358.68 62.116 358.44 62.236 358.08 62.356 357.84 62.356 357.48 62.356 357.12 62.236 356.88 62.116 356.52 61.996 356.28 61.756 356.16 61.396L343.92 40.156C343.56 39.556 343.56 38.836 343.92 38.356 344.04 37.996 344.28 37.756 344.52 37.636 344.88 37.396 345.24 37.396 345.48 37.396H370.08C370.68 37.396 371.4 37.756 371.64 38.356 372 38.836 372 39.556 371.64 40.156Z" fill="#ff0000" fill-rule="evenodd"/><path transform="matrix(1,0,0,-1,0,595.276)" d="M346.56 39.916 357.84 59.236 369 39.916Z" fill="#ffffff" fill-rule="evenodd"/><path transform="matrix(1,0,0,-1,0,595.276)" stroke-width=".12" stroke-linecap="butt" stroke-miterlimit="10" stroke-linejoin="miter" fill="none" stroke="#000000" d="M355.5 50.5V50.5"/><path transform="matrix(1,0,0,-1,0,595.276)" d="M355.8 49.036H355.68V48.916L355.8 49.036Z" fill-rule="evenodd"/><path transform="matrix(1,0,0,-1,0,595.276)" d="M363.6 44.716H360.36L360 49.516C360 49.636 360 49.756 360 49.876 360.12 49.996 360.12 50.116 360.24 50.236 360.48 50.476 360.72 50.596 360.96 50.596 361.2 50.596 361.44 50.476 361.56 50.236 361.8 49.996 361.92 49.756 361.8 49.516 361.8 49.276 361.68 49.036 361.56 48.916 361.44 48.796 361.32 48.796 361.2 48.676 361.08 48.676 360.96 48.676 360.84 48.676L360.96 46.876H363.36V46.156H360.96V45.556H364.2L365.4 42.676 366.36 43.036 366.6 42.556 364.92 41.836 363.6 44.716Z" fill-rule="evenodd"/><path transform="matrix(1,0,0,-1,0,595.276)" stroke-width=".12" stroke-linecap="butt" stroke-miterlimit="10" stroke-linejoin="miter" fill="none" stroke="#000000" d="M364.5 42.5V42.5"/><path transform="matrix(1,0,0,-1,0,595.276)" d="M364.08 42.676V42.676C363.84 41.836 363 40.996 361.92 40.756 360.84 40.516 359.88 40.996 359.16 41.476 358.56 42.076 358.08 43.036 358.2 44.236 358.32 44.716 358.44 45.196 358.8 45.676 359.04 46.036 359.4 46.396 359.76 46.516L359.88 45.676C359.28 45.196 358.92 44.476 359.04 43.516 359.16 42.676 359.64 42.076 360.24 41.716 360.84 41.476 361.8 41.356 362.52 41.956 362.88 42.076 363.12 42.436 363.36 42.796 363.48 43.156 363.6 43.516 363.6 43.876L364.08 42.676Z" fill-rule="evenodd"/><path transform="matrix(1,0,0,-1,0,595.276)" d="M356.76 45.796V45.796Z" fill-rule="evenodd"/><path transform="matrix(1,0,0,-1,0,595.276)" d="M356.76 45.796C357 45.916 357.24 46.036 357.36 46.276 357.6 46.396 357.72 46.636 357.84 46.876 358.2 47.356 358.2 47.956 358.2 48.436 358.08 49.516 357.36 50.476 356.28 50.836 356.52 50.836 356.76 51.076 356.88 51.436 357 51.796 356.88 52.036 356.76 52.276 356.64 52.516 356.4 52.756 356.04 52.756 355.68 52.876 355.44 52.636 355.2 52.516 354.96 52.276 354.84 52.036 354.84 51.676 354.84 51.316 355.08 51.076 355.32 50.956 354.24 50.836 353.28 49.996 352.92 48.916 352.8 48.436 352.8 47.956 352.92 47.356 353.04 47.116 353.16 46.876 353.28 46.636 353.52 46.396 353.64 46.156 353.88 46.036L354 47.116C353.4 47.956 353.52 49.036 354.36 49.636 355.2 50.356 356.28 50.236 357 49.396 357.24 49.036 357.36 48.556 357.36 48.076 357.36 47.476 357.12 47.116 356.76 46.756V45.796Z" fill-rule="evenodd"/><path transform="matrix(1,0,0,-1,0,595.276)" d="M355.68 46.396C355.8 46.396 356.04 46.396 356.16 46.396 356.28 46.516 356.4 46.516 356.52 46.636L356.76 41.236 357.6 41.356V40.636L355.92 40.516 355.68 46.396Z" fill-rule="evenodd"/><path transform="matrix(1,0,0,-1,0,595.276)" d="M355.68 49.036C355.68 49.156 355.68 49.396 355.56 49.516 355.44 49.636 355.32 49.756 355.2 49.756 354.96 49.756 354.84 49.756 354.72 49.636 354.6 49.516 354.6 49.516 354.48 49.396V49.276 49.156L353.4 40.636 354.24 40.516 355.68 49.036ZM355.44 48.676 354.96 46.156 354.36 46.276 354.6 48.796 355.44 48.676ZM354.12 41.116V41.116ZM354.12 41.116 353.76 41.236 354.36 46.036 354.96 45.916 354.12 41.116Z" fill-rule="evenodd"/></g></svg>