<?xml version='1.0' encoding='UTF-8'?>
<svg width="264.38" height="264.38" viewBox="151.16 2.45 264.38 264.38" xmlns="http://www.w3.org/2000/svg" xmlns:xlink="http://www.w3.org/1999/xlink" xmlns:inkscape="http://www.inkscape.org/namespaces/inkscape" version="1.1"><g transform="scale(10.0) translate(-220.305, -397.296)"><defs><clipPath id="clip_2"><path transform="matrix(1,0,0,-1,0,595.276)" d="M74.4 .196H767.4V595.276H74.4Z"/></clipPath></defs><path transform="matrix(1,0,0,-1,0,595.276)" d="M235.68 195.796V173.116C235.68 172.756 235.92 172.276 236.16 171.916 236.52 171.676 236.88 171.556 237.36 171.556H260.04C260.28 171.556 260.4 171.556 260.64 171.676 260.88 171.676 261 171.796 261.24 171.916 261.36 172.156 261.48 172.276 261.48 172.516 261.6 172.756 261.6 172.876 261.6 173.116V195.796C261.6 196.276 261.48 196.636 261.24 196.996 260.88 197.236 260.4 197.476 260.04 197.476H237.36C236.88 197.476 236.52 197.236 236.16 196.996 235.92 196.636 235.68 196.276 235.68 195.796ZM236.52 195.796C236.52 196.276 236.88 196.636 237.36 196.636H260.04C260.16 196.636 260.28 196.636 260.4 196.636 260.4 196.516 260.52 196.516 260.64 196.396 260.76 196.276 260.88 196.036 260.88 195.796V173.116C260.88 172.996 260.88 172.876 260.76 172.756 260.76 172.756 260.76 172.636 260.64 172.516 260.52 172.396 260.28 172.276 260.04 172.276H237.36C237.24 172.276 237.12 172.276 237 172.396 236.88 172.396 236.88 172.516 236.76 172.516 236.64 172.756 236.52 172.876 236.52 173.116V195.796Z" fill-rule="evenodd"/><path transform="matrix(1,0,0,-1,0,595.276)" d="M237.36 196.636H260.04C260.16 196.636 260.28 196.636 260.4 196.636 260.4 196.516 260.52 196.516 260.64 196.396 260.76 196.276 260.76 196.276 260.76 196.156 260.88 196.036 260.88 195.916 260.88 195.796V173.116C260.88 172.876 260.76 172.756 260.64 172.516 260.52 172.516 260.4 172.396 260.4 172.396 260.28 172.276 260.16 172.276 260.04 172.276H237.36C237.12 172.276 236.88 172.396 236.76 172.516 236.64 172.756 236.52 172.876 236.52 173.116V195.796C236.52 196.276 236.88 196.636 237.36 196.636Z" fill="#ffffff" fill-rule="evenodd"/><path transform="matrix(1,0,0,-1,0,595.276)" d="M256.92 188.956H255.12L256.32 190.036H251.76V191.236H256.32L255.12 192.436H256.92L258.6 190.636Z" fill-rule="evenodd"/><path transform="matrix(1,0,0,-1,0,595.276)" d="M259.92 183.796V184.756H237.48V183.796Z" fill-rule="evenodd"/><path transform="matrix(1,0,0,-1,0,595.276)" d="M250.44 182.716H248.64L249.84 181.636H245.28V180.436H249.84L248.64 179.356H250.44L252.12 181.036Z" fill-rule="evenodd"/><path transform="matrix(1,0,0,-1,0,595.276)" d="M244.32 178.396H247.8V177.676H244.32Z" fill-rule="evenodd"/><path transform="matrix(1,0,0,-1,0,595.276)" d="M239.16 178.396H242.64V177.676H239.16Z" fill-rule="evenodd"/><path transform="matrix(1,0,0,-1,0,595.276)" d="M249.6 178.396H252.96V177.676H249.6Z" fill-rule="evenodd"/><path transform="matrix(1,0,0,-1,0,595.276)" d="M254.76 178.396H258.24V177.676H254.76Z" fill-rule="evenodd"/><path transform="matrix(1,0,0,-1,0,595.276)" d="M241.2 192.556V195.676H242.4C242.52 195.556 242.64 195.556 242.76 195.556H242.88C243.24 195.556 243.48 195.076 243.48 194.716 243.48 194.476 243.36 194.356 243.24 194.116 243.36 194.116 243.48 194.116 243.48 193.996 243.6 193.876 243.6 193.636 243.6 193.516 243.6 193.036 243.36 192.676 242.88 192.676V192.556H242.76 242.64 242.52 241.2ZM242.88 194.716C242.88 194.836 242.76 194.956 242.76 194.956L242.64 195.076H242.52 241.8V194.356H242.52 242.64 242.76C242.76 194.476 242.88 194.596 242.88 194.716ZM241.8 193.156H242.52 242.64 242.76C242.88 193.276 243 193.396 243 193.516 243 193.636 242.88 193.756 242.76 193.876H242.64 242.52 241.8V193.156Z" fill-rule="evenodd"/><path transform="matrix(1,0,0,-1,0,595.276)" d="M245.52 194.716H246.12V192.556H245.52V192.676C245.52 192.676 245.52 192.556 245.4 192.556 245.28 192.556 245.16 192.436 245.04 192.436 244.8 192.436 244.56 192.556 244.44 192.676 244.2 192.796 244.2 193.036 244.2 193.156V194.716H244.8V193.396C244.8 193.396 244.8 193.276 244.92 193.156 244.92 193.156 245.04 193.036 245.16 193.036 245.28 193.036 245.4 193.156 245.4 193.156 245.52 193.276 245.52 193.276 245.52 193.396V193.516 194.716Z" fill-rule="evenodd"/><path transform="matrix(1,0,0,-1,0,595.276)" d="M248.52 193.276C248.52 193.636 248.28 193.876 247.8 193.996 247.68 193.996 247.56 193.996 247.44 194.116 247.32 194.116 247.32 194.116 247.32 194.236 247.32 194.236 247.44 194.356 247.68 194.356 247.8 194.356 247.8 194.356 247.92 194.356 248.04 194.236 248.04 194.236 248.16 194.116L248.52 194.476C248.28 194.716 248.04 194.836 247.68 194.956 247.08 194.836 246.72 194.596 246.72 194.116 246.72 193.756 246.96 193.516 247.32 193.516 247.68 193.396 247.92 193.396 247.92 193.276 247.92 193.156 247.8 193.156 247.8 193.156 247.8 193.036 247.68 193.036 247.56 193.036 247.44 193.036 247.44 193.036 247.32 193.156 247.2 193.156 247.08 193.276 246.96 193.396L246.6 192.916C246.84 192.676 247.2 192.436 247.56 192.436 248.16 192.436 248.52 192.796 248.52 193.276Z" fill-rule="evenodd"/><path transform="matrix(1,0,0,-1,0,595.276)" d="M246.96 173.236H248.64L247.56 174.436H252.12V175.516H247.56L248.64 176.716H246.96L245.28 175.036Z" fill-rule="evenodd"/><path transform="matrix(1,0,0,-1,0,595.276)" d="M239.64 190.036V186.436 186.196L239.76 185.956 240 185.836H240.24 243 243.12L243.36 185.956H243.48L243.6 186.076 243.72 186.316 243.84 186.436V186.676 186.916L243.48 187.036 243.36 186.676 243.24 186.436 243.12 186.316H242.88 240.36 240.24L240.12 186.436V186.556 187.996H242.88V187.756H243.36V190.036H239.64ZM240.12 188.476V189.556H241.2V188.476H240.12ZM241.68 188.476V189.556H242.88V188.476H241.68Z" fill-rule="evenodd"/><path transform="matrix(1,0,0,-1,0,595.276)" d="M247.8 190.156H247.44V188.716H245.52V188.236H247.44V186.556H245.76V186.076H249.6V186.556H247.92V188.236H249.84V188.716H247.92V189.916L248.04 190.036V190.156Z" fill-rule="evenodd"/></g></svg>