<?xml version='1.0' encoding='UTF-8'?>
<svg width="354.96" height="251.76" viewBox="105.99 8.76 354.96 251.76" xmlns="http://www.w3.org/2000/svg" xmlns:xlink="http://www.w3.org/1999/xlink" xmlns:inkscape="http://www.inkscape.org/namespaces/inkscape" version="1.1"><g transform="scale(10.0) translate(-438.573, -531.936)"><defs><clipPath id="clip_2"><path transform="matrix(1,0,0,-1,0,595.276)" d="M74.4 .196H767.4V595.276H74.4Z"/></clipPath></defs><path transform="matrix(1,0,0,-1,0,595.276)" d="M482.4 37.636H451.44C450.96 37.636 450.48 37.756 450.12 38.236 449.88 38.356 449.76 38.596 449.64 38.836 449.52 39.076 449.52 39.316 449.52 39.556V60.196C449.52 60.676 449.64 61.156 450.12 61.516 450.48 61.876 450.96 62.116 451.44 62.116H482.4C482.76 62.116 483.36 61.876 483.72 61.516 484.08 61.156 484.32 60.676 484.32 60.196V39.556C484.32 39.316 484.2 39.076 484.2 38.836 484.08 38.596 483.96 38.356 483.72 38.236 483.48 37.996 483.24 37.876 483 37.756 482.76 37.636 482.52 37.636 482.4 37.636Z" fill="#ffff00" fill-rule="evenodd"/><path transform="matrix(1,0,0,-1,0,595.276)" d="M482.4 60.196H451.44V39.556H482.4Z" fill-rule="evenodd"/><path transform="matrix(1,0,0,-1,0,595.276)" d="M474.6 39.556 482.4 49.876 474.6 60.196H466.92L474.6 49.876 466.92 39.556Z" fill="#ffffff" fill-rule="evenodd"/><path transform="matrix(1,0,0,-1,0,595.276)" d="M459.12 39.556 466.92 49.876 459.12 60.196H451.44L459.12 49.876 451.44 39.556Z" fill="#ffffff" fill-rule="evenodd"/></g></svg>