<?xml version='1.0' encoding='UTF-8'?>
<svg width="263.16" height="261.96" viewBox="151.83 5.10 263.16 261.96" xmlns="http://www.w3.org/2000/svg" xmlns:xlink="http://www.w3.org/1999/xlink" xmlns:inkscape="http://www.inkscape.org/namespaces/inkscape" version="1.1"><g transform="scale(10.0) translate(-329.439, -47.232)"><defs><clipPath id="clip_2"><path transform="matrix(1,0,0,-1,0,595.276)" d="M74.4 .196H767.4V595.276H74.4Z"/></clipPath></defs><path transform="matrix(1,0,0,-1,0,595.276)" d="M344.88 523.036V545.836C344.88 546.076 345 546.196 345 546.436 345.12 546.556 345.24 546.796 345.36 546.916 345.48 547.036 345.6 547.156 345.84 547.156 345.96 547.276 346.2 547.276 346.32 547.276H369.24C369.6 547.276 369.96 547.156 370.2 546.916 370.44 546.796 370.44 546.556 370.56 546.436 370.68 546.196 370.68 546.076 370.68 545.836V523.036C370.68 522.676 370.56 522.316 370.2 521.956 369.96 521.716 369.6 521.596 369.24 521.596H346.32C345.96 521.596 345.6 521.716 345.36 521.956 345.24 522.076 345.12 522.316 345 522.436 345 522.676 344.88 522.796 344.88 523.036ZM345.6 523.036C345.6 522.796 345.72 522.676 345.84 522.436 345.96 522.316 346.2 522.316 346.32 522.316H369.24C369.36 522.316 369.6 522.316 369.72 522.436 369.84 522.676 369.96 522.796 369.96 523.036V545.836C369.96 546.076 369.84 546.196 369.72 546.436 369.6 546.556 369.36 546.556 369.24 546.556H346.32C346.2 546.556 345.96 546.556 345.84 546.436 345.72 546.196 345.6 546.076 345.6 545.836V523.036Z" fill-rule="evenodd"/><path transform="matrix(1,0,0,-1,0,595.276)" d="M346.32 546.556H369.24C369.36 546.556 369.36 546.556 369.48 546.556 369.6 546.556 369.72 546.436 369.72 546.436 369.84 546.316 369.84 546.196 369.84 546.076 369.96 546.076 369.96 545.956 369.96 545.836V523.036C369.96 522.796 369.84 522.676 369.72 522.436 369.72 522.436 369.6 522.316 369.48 522.316 369.36 522.316 369.36 522.316 369.24 522.316H346.32C346.2 522.316 345.96 522.316 345.84 522.436 345.72 522.556 345.72 522.676 345.72 522.676 345.6 522.796 345.6 522.916 345.6 523.036V545.836C345.6 546.076 345.72 546.196 345.84 546.436 345.96 546.556 346.2 546.556 346.32 546.556Z" fill="#ffffff" fill-rule="evenodd"/><path transform="matrix(1,0,0,-1,0,595.276)" d="M359.4 541.876H357.84L358.92 542.956H354.6V544.036H358.92L357.84 545.116H359.4L360.96 543.436Z" fill-rule="evenodd"/><path transform="matrix(1,0,0,-1,0,595.276)" d="M346.56 528.436H369V529.516H346.56Z" fill-rule="evenodd"/><path transform="matrix(1,0,0,-1,0,595.276)" d="M347.16 532.276 350.04 531.676H350.64V531.916C350.64 532.156 350.76 532.396 351 532.636 351.12 532.756 351.48 532.876 351.6 532.876 351.84 532.876 352.2 532.756 352.32 532.636 352.56 532.396 352.68 532.156 352.68 531.916V531.676H356.28V531.916C356.28 532.156 356.4 532.396 356.52 532.636 356.76 532.756 357 532.876 357.24 532.876 357.48 532.876 357.72 532.756 357.96 532.636 358.2 532.396 358.2 532.156 358.2 531.916V531.676H360.72C360.84 531.676 360.96 531.796 360.96 531.796L361.08 531.916C361.08 532.036 361.08 532.036 361.08 532.156V532.996C361.08 532.996 361.08 533.116 361.08 533.236L360.72 534.196 360.48 537.316C360.48 537.436 360.36 537.556 360.36 537.556 360.24 537.676 360.12 537.676 360.12 537.676H348C347.76 537.676 347.64 537.676 347.4 537.436 347.4 537.436 347.28 537.316 347.28 537.196 347.28 537.076 347.16 537.076 347.16 536.956V532.276ZM349.56 535.036V533.836H347.64V535.036H349.56ZM351.6 535.036V533.836H349.92V535.036H351.6ZM353.76 535.036V533.836H352.08V535.036H353.76ZM355.92 535.036V533.836H354.12V535.036H355.92ZM358.08 533.836H356.28V535.036H358.08V533.836ZM359.64 532.156H358.44V535.036H359.64V532.156ZM360.6 534.076H360V535.036H360.48L360.6 534.076ZM360.24 536.116H358.44V537.316H360.12L360.24 536.116ZM358.08 536.116H356.28V537.316H358.08V536.116ZM355.92 536.116H354.12V537.316H355.92V536.116ZM353.76 536.116H352.08V537.316H353.76V536.116ZM349.92 536.116V537.316H351.6V536.116H349.92ZM349.56 536.116H347.64V536.956C347.64 537.196 347.76 537.316 348 537.316H349.56V536.116Z" fill-rule="evenodd"/><path transform="matrix(1,0,0,-1,0,595.276)" d="M350.88 531.916C350.88 531.436 351.24 531.196 351.6 531.196 352.08 531.196 352.44 531.436 352.44 531.916 352.44 532.396 352.08 532.636 351.6 532.636 351.24 532.636 350.88 532.396 350.88 531.916ZM351.24 531.916C351.24 532.156 351.48 532.276 351.6 532.276 351.84 532.276 352.08 532.156 352.08 531.916 352.08 531.676 351.84 531.556 351.6 531.556 351.48 531.556 351.24 531.676 351.24 531.916Z" fill-rule="evenodd"/><path transform="matrix(1,0,0,-1,0,595.276)" d="M356.52 531.916C356.52 531.436 356.88 531.196 357.24 531.196 357.72 531.196 358.08 531.436 358.08 531.916 358.08 532.396 357.72 532.636 357.24 532.636 356.88 532.636 356.52 532.396 356.52 531.916ZM356.88 531.916C356.88 532.156 357 532.276 357.24 532.276 357.48 532.276 357.6 532.156 357.6 531.916 357.6 531.676 357.48 531.556 357.24 531.556 357 531.556 356.88 531.676 356.88 531.916Z" fill-rule="evenodd"/><path transform="matrix(1,0,0,-1,0,595.276)" d="M366.72 535.996H365.16L366.24 534.916H361.92V533.836H366.24L365.16 532.876H366.72L368.4 534.436Z" fill-rule="evenodd"/><path transform="matrix(1,0,0,-1,0,595.276)" d="M346.56 540.436H369V539.356H346.56Z" fill-rule="evenodd"/><path transform="matrix(1,0,0,-1,0,595.276)" d="M356.16 523.756H357.84L356.76 524.836H360.96V525.916H356.76L357.84 526.996H356.16L354.6 525.316Z" fill-rule="evenodd"/></g></svg>