<?xml version='1.0' encoding='UTF-8'?>
<svg width="406.34" height="258.74" viewBox="81.32 6.23 406.34 258.74" xmlns="http://www.w3.org/2000/svg" xmlns:xlink="http://www.w3.org/1999/xlink" xmlns:inkscape="http://www.inkscape.org/namespaces/inkscape" version="1.1"><g transform="scale(10.0) translate(-111.171, -208.800)"><defs><clipPath id="clip_2"><path transform="matrix(1,0,0,-1,0,595.276)" d="M74.4 .196H767.4V595.276H74.4Z"/></clipPath></defs><path transform="matrix(1,0,0,-1,0,595.276)" d="M120.96 385.396H158.16C158.52 385.396 158.88 385.276 159.12 384.916 159.36 384.676 159.48 384.316 159.48 384.076V361.756C159.48 361.516 159.36 361.156 159.12 360.916 159 360.676 158.88 360.676 158.64 360.556 158.52 360.556 158.4 360.436 158.16 360.436H120.96C120.24 360.436 119.76 361.036 119.76 361.756V384.076C119.76 384.316 119.88 384.676 120.12 384.916 120.36 385.276 120.72 385.396 120.96 385.396Z" fill="#ffffff" fill-rule="evenodd"/><path transform="matrix(1,0,0,-1,0,595.276)" d="M120.96 361.156H158.16C158.4 361.156 158.52 361.156 158.64 361.276 158.76 361.396 158.88 361.636 158.88 361.756V384.076C158.88 384.076 158.88 384.196 158.76 384.316 158.76 384.316 158.76 384.436 158.64 384.556 158.64 384.556 158.52 384.556 158.4 384.676 158.4 384.676 158.28 384.676 158.16 384.676H120.96C120.84 384.676 120.72 384.676 120.6 384.556 120.48 384.436 120.48 384.316 120.36 384.316 120.36 384.196 120.36 384.076 120.36 384.076V361.756C120.36 361.636 120.36 361.396 120.6 361.276 120.72 361.156 120.84 361.156 120.96 361.156Z" fill="#ff0000" fill-rule="evenodd"/><path transform="matrix(1,0,0,-1,0,595.276)" d="M125.4 379.156H127.68V379.756H125.88V380.716H127.44V381.196H125.88V382.156H127.56V382.636H125.4Z" fill="#ffffff" fill-rule="evenodd"/><path transform="matrix(1,0,0,-1,0,595.276)" d="M132.48 379.156H134.76V379.756H133.08V380.716H134.52V381.196H133.08V382.156H134.64V382.636H132.48Z" fill="#ffffff" fill-rule="evenodd"/><path transform="matrix(1,0,0,-1,0,595.276)" d="M135.96 380.116 135.48 379.756C135.6 379.636 135.72 379.516 135.84 379.396 136.2 379.276 136.44 379.156 136.8 379.156 137.16 379.156 137.64 379.276 137.88 379.396 137.88 379.516 138 379.636 138.12 379.756 138.12 379.756 138.12 379.876 138.12 379.996V380.116 380.236C138.12 380.356 138.12 380.356 138.12 380.476 138.12 380.596 138 380.836 137.88 380.956 137.76 380.956 137.76 381.076 137.64 381.076 137.52 381.076 137.52 381.076 137.4 381.076L136.56 381.316H136.44C136.32 381.436 136.2 381.556 136.2 381.676 136.2 381.796 136.2 381.916 136.32 382.036 136.44 382.156 136.56 382.156 136.8 382.156 137.04 382.156 137.4 382.036 137.64 381.796L138.12 382.156C137.64 382.516 137.28 382.756 136.8 382.756 136.44 382.756 136.08 382.636 135.84 382.396 135.72 382.276 135.6 381.916 135.6 381.676 135.6 381.436 135.72 381.076 135.84 380.956 135.96 380.956 136.08 380.836 136.2 380.836 136.32 380.716 136.56 380.716 136.8 380.716 137.04 380.596 137.4 380.596 137.52 380.356 137.64 380.236 137.64 380.116 137.52 379.876 137.4 379.756 137.16 379.636 136.92 379.636 136.56 379.636 136.2 379.756 135.96 380.116Z" fill="#ffffff" fill-rule="evenodd"/><path transform="matrix(1,0,0,-1,0,595.276)" d="M139.56 382.156V379.156H140.16V382.156H141.12V382.636H138.6V382.156Z" fill="#ffffff" fill-rule="evenodd"/><path transform="matrix(1,0,0,-1,0,595.276)" d="M145.92 379.156H145.32V382.636H145.92Z" fill="#ffffff" fill-rule="evenodd"/><path transform="matrix(1,0,0,-1,0,595.276)" d="M151.2 381.676 152.88 379.156H153.48V382.636H153V380.116L151.2 382.636H150.6V379.156H151.2Z" fill="#ffffff" fill-rule="evenodd"/><path transform="matrix(1,0,0,-1,0,595.276)" d="M156.6 381.796 157.08 382.156C156.72 382.516 156.24 382.756 155.76 382.756 155.52 382.756 155.16 382.636 154.92 382.396 154.68 382.276 154.56 381.916 154.56 381.676 154.56 381.436 154.68 381.076 154.92 380.956 154.92 380.956 155.04 380.836 155.16 380.836 155.4 380.716 155.52 380.716 155.76 380.716H155.88C156.12 380.596 156.36 380.596 156.48 380.356 156.6 380.236 156.6 380.116 156.48 379.876 156.48 379.756 156.12 379.636 155.88 379.636 155.52 379.636 155.16 379.756 154.92 380.116L154.44 379.756C154.56 379.636 154.68 379.516 154.8 379.396 155.16 379.276 155.52 379.156 155.88 379.156 156.24 379.156 156.6 379.276 156.84 379.396 156.96 379.516 156.96 379.636 157.08 379.756 157.08 379.756 157.08 379.876 157.08 379.996 157.08 379.996 157.2 379.996 157.2 380.116V380.236C157.2 380.356 157.2 380.356 157.2 380.476 157.08 380.596 156.96 380.836 156.84 380.956 156.84 380.956 156.72 381.076 156.6 381.076 156.6 381.076 156.48 381.076 156.36 381.076L155.52 381.316H155.4C155.28 381.436 155.16 381.556 155.16 381.676 155.16 381.796 155.28 381.916 155.4 382.036 155.52 382.156 155.64 382.156 155.76 382.156 156 382.156 156.36 382.036 156.6 381.796Z" fill="#ffffff" fill-rule="evenodd"/><path transform="matrix(1,0,0,-1,0,595.276)" d="M122.76 379.156H122.16V382.636H123.6C123.84 382.636 124.08 382.516 124.2 382.276 124.44 382.156 124.56 381.796 124.56 381.556 124.56 381.316 124.44 380.956 124.2 380.836 124.2 380.716 124.08 380.596 123.96 380.596 123.84 380.476 123.72 380.476 123.6 380.476H122.76V379.156ZM123.48 382.156V382.156H122.76V380.956H123.48C123.6 380.956 123.72 381.076 123.72 381.196 123.84 381.316 123.96 381.436 123.96 381.556 123.96 381.676 123.84 381.796 123.72 381.916 123.72 382.036 123.6 382.156 123.48 382.156Z" fill="#ffffff" fill-rule="evenodd"/><path transform="matrix(1,0,0,-1,0,595.276)" d="M129.96 382.636C130.32 382.636 130.68 382.516 131.04 382.156 131.28 381.796 131.52 381.316 131.52 380.956 131.52 380.476 131.28 379.996 131.04 379.636 130.92 379.516 130.68 379.396 130.56 379.276 130.32 379.156 130.08 379.156 129.96 379.156H128.64V382.636H129.96ZM129.96 382.156H129.24V379.636H129.96C130.2 379.636 130.44 379.756 130.56 379.996 130.8 380.356 130.92 380.596 130.92 380.956 130.92 381.196 130.8 381.556 130.56 381.796 130.44 382.036 130.2 382.156 129.96 382.156Z" fill="#ffffff" fill-rule="evenodd"/><path transform="matrix(1,0,0,-1,0,595.276)" d="M143.76 379.156H144.36L143.64 380.596C144.12 380.716 144.36 381.196 144.36 381.796 144.24 382.036 144.12 382.156 144 382.396 143.88 382.516 143.64 382.636 143.4 382.636H141.84V379.156H142.44V380.476H143.04L143.76 379.156ZM142.44 381.076V382.156H143.28C143.52 382.156 143.76 381.916 143.76 381.556 143.76 381.436 143.64 381.316 143.64 381.196 143.52 381.076 143.4 381.076 143.28 381.076H142.44Z" fill="#ffffff" fill-rule="evenodd"/><path transform="matrix(1,0,0,-1,0,595.276)" d="M149.04 379.756 149.16 379.156H149.76L148.68 382.636H147.84L146.76 379.156H147.36L147.48 379.756H149.04ZM148.32 382.036 148.8 380.236H147.72L148.32 382.036Z" fill="#ffffff" fill-rule="evenodd"/><path transform="matrix(1,0,0,-1,0,595.276)" d="M133.56 367.756 134.16 367.396 134.76 367.876 135.36 368.476H135.48L135.6 368.596H135.48V368.716L135 368.836 134.28 368.236Z" fill="#ffffff" fill-rule="evenodd"/><path transform="matrix(1,0,0,-1,0,595.276)" d="M133.56 365.956 134.04 365.716 134.52 366.196V363.796H135.12V366.796L135.36 367.156 135.6 367.516H135.72V367.636L135.6 367.756 135.12 367.876 134.76 367.276 134.4 366.796 133.92 366.436Z" fill="#ffffff" fill-rule="evenodd"/><path transform="matrix(1,0,0,-1,0,595.276)" d="M136.08 368.596V368.116H138.36V368.596Z" fill="#ffffff" fill-rule="evenodd"/><path transform="matrix(1,0,0,-1,0,595.276)" d="M137.28 366.556V364.756 364.636 364.516L137.16 364.396H137.04 136.44L136.68 363.796H136.92 137.16L137.4 363.916H137.52L137.64 364.036 137.76 364.156 137.88 364.276V364.516 364.636 366.556H138.72V367.036H135.6V366.556Z" fill="#ffffff" fill-rule="evenodd"/><path transform="matrix(1,0,0,-1,0,595.276)" d="M143.16 368.836H142.8V367.756L142.56 366.916V366.556L142.32 366.196 142.08 365.836 141.84 365.476 141.6 365.236 141.24 364.876 140.88 364.636 140.4 364.396 140.88 363.916 141.36 364.276 141.72 364.516 142.08 364.876 142.32 365.236 142.56 365.476 142.8 365.836 142.92 366.196 143.04 366.556 143.52 365.836 143.88 364.996 144.36 364.396 144.96 363.916 145.56 364.276 145.2 364.516 144.84 364.876 144.48 365.236 144.24 365.596 144 365.956 143.76 366.436 143.52 366.916 143.28 367.516V367.996 368.596L143.4 368.716 143.52 368.836H143.4Z" fill="#ffffff" fill-rule="evenodd"/><path transform="matrix(1,0,0,-1,0,595.276)" d="M150.36 371.716 152.88 374.236 150.36 376.636H147.84L149.52 375.076H140.4V373.396H149.52L147.84 371.716Z" fill="#ffffff" fill-rule="evenodd"/><path transform="matrix(1,0,0,-1,0,595.276)" d="M128.76 371.716 126.36 374.236 128.76 376.636H131.28L129.6 375.076H138.72V373.396H129.6L131.28 371.716Z" fill="#ffffff" fill-rule="evenodd"/><path transform="matrix(1,0,0,-1,0,595.276)" stroke-width=".12" stroke-linecap="round" stroke-linejoin="round" fill="none" stroke="#ff0000" d="M159.48 361.756V384.076C159.48 384.796 158.88 385.396 158.16 385.396H120.96C120.24 385.396 119.76 384.796 119.76 384.076V361.756C119.76 361.036 120.24 360.436 120.96 360.436H158.16C158.88 360.436 159.48 361.036 159.48 361.756"/></g></svg>