<?xml version='1.0' encoding='UTF-8'?>
<svg width="288.56" height="256.46" viewBox="138.20 6.77 288.56 256.46" xmlns="http://www.w3.org/2000/svg" xmlns:xlink="http://www.w3.org/1999/xlink" xmlns:inkscape="http://www.inkscape.org/namespaces/inkscape" version="1.1"><g transform="scale(10.0) translate(-547.707, -478.080)"><defs><clipPath id="clip_2"><path transform="matrix(1,0,0,-1,0,595.276)" d="M74.4 .196H767.4V595.276H74.4Z"/></clipPath></defs><path transform="matrix(1,0,0,-1,0,595.276)" d="M562.08 94.036 574.32 115.276C574.56 115.516 574.8 115.756 575.04 115.996 575.4 116.116 575.64 116.236 576 116.236 576.36 116.236 576.6 116.116 576.96 115.996 577.2 115.756 577.44 115.516 577.56 115.276L589.92 94.036C590.16 93.436 590.16 92.716 589.92 92.116 589.68 91.876 589.44 91.636 589.2 91.396 588.96 91.276 588.6 91.156 588.24 91.156H563.76C563.04 91.156 562.44 91.516 562.08 92.116 561.72 92.716 561.72 93.436 562.08 94.036Z" fill="#ff0000" fill-rule="evenodd"/><path transform="matrix(1,0,0,-1,0,595.276)" d="M587.16 93.676 576 113.116 564.84 93.676Z" fill="#ffffff" fill-rule="evenodd"/><path transform="matrix(1,0,0,-1,0,595.276)" d="M581.16 98.116C581.16 98.956 580.8 99.916 580.08 100.756 579.24 101.476 578.28 101.836 577.44 101.836 577.08 101.836 576.72 101.956 576.36 102.196 576.12 102.556 576 102.916 576 103.276V107.236L574.8 109.276 573.6 107.236V103.276C573.6 102.316 573.96 101.356 574.8 100.636 575.52 99.796 576.48 99.436 577.44 99.436 577.8 99.436 578.16 99.316 578.4 99.076 578.64 98.836 578.76 98.476 578.76 98.116V94.276H581.16V98.116Z" fill-rule="evenodd"/><path transform="matrix(1,0,0,-1,0,595.276)" d="M578.28 94.276H576.6V95.596C576.6 95.716 576.6 95.836 576.6 95.956 576.6 96.076 576.6 96.196 576.72 96.436L576.96 97.756C576.96 97.876 577.08 97.876 577.2 97.996 577.2 97.996 577.32 98.116 577.44 98.116 577.44 98.116 577.56 97.996 577.68 97.996 577.68 97.876 577.8 97.876 577.8 97.756L578.16 96.436C578.16 96.196 578.16 96.076 578.16 95.956 578.28 95.836 578.28 95.716 578.28 95.596V94.276Z" fill-rule="evenodd"/><path transform="matrix(1,0,0,-1,0,595.276)" d="M578.28 107.236H576.6V106.036C576.6 105.796 576.6 105.676 576.6 105.556 576.6 105.436 576.6 105.316 576.72 105.196L576.96 103.756C576.96 103.756 577.08 103.636 577.2 103.636 577.2 103.516 577.32 103.516 577.44 103.516 577.44 103.516 577.56 103.516 577.68 103.636L577.8 103.756 578.16 105.196C578.16 105.316 578.16 105.436 578.16 105.556 578.28 105.676 578.28 105.796 578.28 106.036V107.236Z" fill-rule="evenodd"/></g></svg>