<?xml version='1.0' encoding='UTF-8'?>
<svg width="288.56" height="256.46" viewBox="138.74 7.25 288.56 256.46" xmlns="http://www.w3.org/2000/svg" xmlns:xlink="http://www.w3.org/1999/xlink" xmlns:inkscape="http://www.inkscape.org/namespaces/inkscape" version="1.1"><g transform="scale(10.0) translate(-438.573, -316.512)"><defs><clipPath id="clip_2"><path transform="matrix(1,0,0,-1,0,595.276)" d="M74.4 .196H767.4V595.276H74.4Z"/></clipPath></defs><path transform="matrix(1,0,0,-1,0,595.276)" d="M453 255.556 465.24 276.796C465.48 277.036 465.6 277.276 465.96 277.516 466.2 277.636 466.56 277.756 466.92 277.756 467.16 277.756 467.52 277.636 467.88 277.516 468.12 277.276 468.36 277.036 468.48 276.796L480.84 255.556C481.08 254.956 481.08 254.236 480.84 253.636 480.6 253.396 480.36 253.156 480.12 252.916 479.76 252.796 479.52 252.676 479.16 252.676H454.56C453.96 252.676 453.36 253.036 453 253.636 452.64 254.236 452.64 254.956 453 255.556Z" fill="#ff0000" fill-rule="evenodd"/><path transform="matrix(1,0,0,-1,0,595.276)" d="M478.08 255.196 466.92 274.636 455.64 255.196Z" fill="#ffffff" fill-rule="evenodd"/><path transform="matrix(1,0,0,-1,0,595.276)" d="M477 255.796 460.92 263.116 456.84 255.796Z" fill-rule="evenodd"/><path transform="matrix(1,0,0,-1,0,595.276)" d="M465.96 266.116 464.16 262.156 463.44 262.516 464.64 265.396 464.04 265.636 464.4 266.356C464.64 266.356 464.76 266.236 464.88 266.236 465.12 266.356 465.12 266.356 465.24 266.476L465.96 266.116Z" fill-rule="evenodd"/><path transform="matrix(1,0,0,-1,0,595.276)" d="M470.4 261.076C470.04 260.116 469.08 259.756 468.36 260.116 467.76 260.356 467.52 260.716 467.4 261.316 467.28 261.796 467.4 262.396 467.76 263.116 468 263.716 468.36 264.196 468.84 264.436 469.2 264.676 469.68 264.676 470.16 264.436 470.52 264.316 470.76 264.076 470.88 263.836 471 263.596 471.12 263.356 471.12 262.996H470.28C470.16 263.356 470.04 263.596 469.8 263.716 469.56 263.716 469.32 263.716 469.2 263.716 469.08 263.596 468.96 263.596 468.96 263.476 468.84 263.356 468.84 263.236 468.72 263.116 468.84 263.236 468.96 263.236 469.08 263.236 469.2 263.236 469.44 263.116 469.68 263.116 470.52 262.756 470.76 261.916 470.4 261.076ZM469.2 262.276C468.84 262.516 468.48 262.276 468.24 261.916 468.12 261.556 468.24 261.076 468.6 260.956 468.84 260.836 468.96 260.836 469.2 260.956 469.32 260.956 469.44 261.196 469.56 261.316 469.68 261.556 469.68 261.676 469.56 261.916 469.56 262.156 469.44 262.276 469.2 262.276Z" fill-rule="evenodd"/><path transform="matrix(1,0,0,-1,0,595.276)" d="M470.4 261.076V261.076 260.956 261.076Z" fill-rule="evenodd"/><path transform="matrix(1,0,0,-1,0,595.276)" d="M466.92 263.116C467.04 263.356 466.92 263.596 466.68 263.716 466.44 263.836 466.2 263.716 466.08 263.476 465.96 263.236 466.08 262.996 466.32 262.876 466.56 262.756 466.8 262.876 466.92 263.116Z" fill-rule="evenodd"/><path transform="matrix(1,0,0,-1,0,595.276)" d="M466.32 261.676C466.32 261.916 466.32 262.156 466.08 262.276 465.84 262.396 465.48 262.276 465.36 262.036 465.36 261.796 465.36 261.556 465.6 261.436 465.84 261.316 466.2 261.436 466.32 261.676Z" fill-rule="evenodd"/></g></svg>