<?xml version='1.0' encoding='UTF-8'?>
<svg width="68.04" height="227.64" viewBox="249.87 22.14 68.04 227.64" xmlns="http://www.w3.org/2000/svg" xmlns:xlink="http://www.w3.org/1999/xlink" xmlns:inkscape="http://www.inkscape.org/namespaces/inkscape" version="1.1"><g transform="scale(10.0) translate(-111.171, -289.584)"><defs><clipPath id="clip_2"><path transform="matrix(1,0,0,-1,0,595.276)" d="M74.4 .196H767.4V595.276H74.4Z"/></clipPath></defs><path transform="matrix(1,0,0,-1,0,595.276)" d="M142.68 300.076C142.68 301.876 141.36 303.196 139.56 303.196 137.88 303.196 136.44 301.876 136.44 300.076 136.44 298.396 137.88 296.956 139.56 296.956 141.36 296.956 142.68 298.396 142.68 300.076Z" fill="#ffff00" fill-rule="evenodd"/><path transform="matrix(1,0,0,-1,0,595.276)" d="M142.68 284.116C142.68 285.916 141.36 287.236 139.56 287.236 137.88 287.236 136.44 285.916 136.44 284.116 136.44 282.436 137.88 280.996 139.56 280.996 141.36 280.996 142.68 282.436 142.68 284.116Z" fill="#ffff00" fill-rule="evenodd"/><path transform="matrix(1,0,0,-1,0,595.276)" stroke-width=".12" stroke-linecap="round" stroke-linejoin="round" fill="none" stroke="#000000" d="M142.68 300.076C142.68 301.876 141.36 303.196 139.56 303.196 137.88 303.196 136.44 301.876 136.44 300.076 136.44 298.396 137.88 296.956 139.56 296.956 141.36 296.956 142.68 298.396 142.68 300.076"/><path transform="matrix(1,0,0,-1,0,595.276)" stroke-width=".12" stroke-linecap="round" stroke-linejoin="round" fill="none" stroke="#000000" d="M142.68 284.116C142.68 285.916 141.36 287.236 139.56 287.236 137.88 287.236 136.44 285.916 136.44 284.116 136.44 282.436 137.88 280.996 139.56 280.996 141.36 280.996 142.68 282.436 142.68 284.116"/></g></svg>