<?xml version='1.0' encoding='UTF-8'?>
<svg width="476.14" height="263.74" viewBox="45.34 3.01 476.14 263.74" xmlns="http://www.w3.org/2000/svg" xmlns:xlink="http://www.w3.org/1999/xlink" xmlns:inkscape="http://www.inkscape.org/namespaces/inkscape" version="1.1"><g transform="scale(10.0) translate(-329.439, -451.152)"><defs><clipPath id="clip_2"><path transform="matrix(1,0,0,-1,0,595.276)" d="M74.4 .196H767.4V595.276H74.4Z"/></clipPath></defs><path transform="matrix(1,0,0,-1,0,595.276)" d="M379.56 143.356C379.92 143.356 380.4 143.236 380.76 142.876 381 142.636 381.12 142.156 381.12 141.796V119.476C381.12 119.116 381 118.636 380.76 118.396 380.4 118.036 379.92 117.916 379.56 117.916H336C335.64 117.916 335.16 118.036 334.92 118.396 334.56 118.636 334.44 119.116 334.44 119.476V141.796C334.44 142.156 334.56 142.636 334.92 142.876 335.16 143.236 335.64 143.356 336 143.356H379.56ZM379.56 142.636H336C335.88 142.636 335.76 142.516 335.76 142.516 335.64 142.516 335.52 142.396 335.4 142.396 335.28 142.156 335.16 142.036 335.16 141.796V119.476C335.16 119.356 335.28 119.236 335.28 119.116 335.28 119.116 335.4 118.996 335.4 118.876 335.64 118.756 335.76 118.636 336 118.636H379.56C379.68 118.636 379.8 118.636 379.92 118.756 379.92 118.756 380.04 118.876 380.16 118.876 380.28 119.116 380.4 119.236 380.4 119.476V141.796C380.4 141.916 380.4 142.036 380.28 142.036 380.28 142.156 380.28 142.276 380.16 142.396 380.04 142.516 379.8 142.636 379.56 142.636Z" fill-rule="evenodd"/><path transform="matrix(1,0,0,-1,0,595.276)" d="M336 142.636H379.56C379.8 142.636 380.04 142.516 380.16 142.396 380.28 142.156 380.4 142.036 380.4 141.796V119.476C380.4 119.236 380.28 119.116 380.16 118.876 380.04 118.756 379.8 118.636 379.56 118.636H336C335.76 118.636 335.64 118.756 335.4 118.876 335.28 119.116 335.16 119.236 335.16 119.476V141.796C335.16 142.036 335.28 142.156 335.4 142.396 335.64 142.516 335.76 142.636 336 142.636Z" fill="#ffffff" fill-rule="evenodd"/><path transform="matrix(1,0,0,-1,0,595.276)" d="M349.92 125.356H349.08V129.556H349.92Z" fill-rule="evenodd"/><path transform="matrix(1,0,0,-1,0,595.276)" d="M349.92 131.716H349.08V135.916H349.92Z" fill-rule="evenodd"/><path transform="matrix(1,0,0,-1,0,595.276)" d="M349.08 141.796H349.92V138.076H349.08Z" fill-rule="evenodd"/><path transform="matrix(1,0,0,-1,0,595.276)" d="M349.08 119.476H349.92V123.196H349.08Z" fill-rule="evenodd"/><path transform="matrix(1,0,0,-1,0,595.276)" d="M365.64 125.356H366.48V129.556H365.64Z" fill-rule="evenodd"/><path transform="matrix(1,0,0,-1,0,595.276)" d="M365.64 131.716H366.48V135.916H365.64Z" fill-rule="evenodd"/><path transform="matrix(1,0,0,-1,0,595.276)" d="M366.48 141.796H365.64V138.076H366.48Z" fill-rule="evenodd"/><path transform="matrix(1,0,0,-1,0,595.276)" d="M366.48 119.476H365.64V123.196H366.48Z" fill-rule="evenodd"/><path transform="matrix(1,0,0,-1,0,595.276)" d="M344.28 135.676H345.72V120.796H344.28V129.676C344.28 129.916 344.28 130.156 344.16 130.396 344.04 130.636 343.92 130.876 343.68 131.116 343.44 131.356 343.2 131.476 342.96 131.596 342.72 131.716 342.36 131.716 342.12 131.716H339.96L341.4 130.396H339.36L337.2 132.436 339.36 134.596H341.4L339.96 133.156H342.12C342.48 133.156 342.96 133.156 343.32 133.036 343.68 132.916 343.92 132.676 344.28 132.436V135.676Z" fill-rule="evenodd"/><path transform="matrix(1,0,0,-1,0,595.276)" d="M371.28 135.676H369.84V120.796H371.28V129.676C371.28 129.916 371.4 130.156 371.4 130.396 371.52 130.636 371.76 130.876 371.88 131.116 372.12 131.356 372.36 131.476 372.6 131.596 372.96 131.716 373.2 131.716 373.44 131.716H375.6L374.16 130.396H376.32L378.36 132.436 376.32 134.596H374.16L375.6 133.156H373.44C373.08 133.156 372.72 133.156 372.36 133.036 372 132.916 371.64 132.676 371.28 132.436V135.676Z" fill-rule="evenodd"/><path transform="matrix(1,0,0,-1,0,595.276)" d="M372.72 138.316H368.52V136.156H372.72Z" fill="#ff0000" fill-rule="evenodd"/><path transform="matrix(1,0,0,-1,0,595.276)" d="M342.84 138.316H347.16V136.156H342.84Z" fill="#ff0000" fill-rule="evenodd"/><path transform="matrix(1,0,0,-1,0,595.276)" d="M356.52 127.876C356.64 127.876 356.76 127.996 356.76 128.116V128.236C356.76 128.476 356.64 128.716 356.52 128.836 356.4 128.956 356.16 128.956 355.92 128.956H355.08V126.556H356.04C356.28 126.556 356.52 126.556 356.64 126.676 356.76 126.796 356.88 127.036 356.88 127.276 356.88 127.396 356.88 127.516 356.88 127.516 356.76 127.636 356.64 127.756 356.52 127.876ZM355.44 127.996V128.596H356.04C356.16 128.596 356.16 128.596 356.28 128.476 356.28 128.476 356.4 128.356 356.4 128.236 356.4 128.116 356.16 127.996 356.04 127.996H355.44ZM356.04 126.916V126.916H355.44V127.636H356.04C356.28 127.636 356.52 127.516 356.52 127.276 356.52 127.036 356.28 126.916 356.04 126.916Z" fill-rule="evenodd"/><path transform="matrix(1,0,0,-1,0,595.276)" d="M358.2 126.436C357.96 126.436 357.84 126.556 357.72 126.676 357.6 126.796 357.48 126.916 357.48 127.156V128.236H357.84V127.156C357.84 127.036 357.84 126.916 357.96 126.916 358.08 126.796 358.08 126.796 358.2 126.796 358.32 126.796 358.32 126.796 358.44 126.916 358.44 126.916 358.56 127.036 358.56 127.156V128.236H358.92V126.556H358.56C358.44 126.556 358.44 126.556 358.32 126.556 358.32 126.436 358.2 126.436 358.2 126.436Z" fill-rule="evenodd"/><path transform="matrix(1,0,0,-1,0,595.276)" d="M359.88 127.636C360 127.636 360 127.636 360.12 127.636H360.24C360.48 127.636 360.6 127.516 360.72 127.276 360.84 127.156 360.84 127.036 360.84 127.036 360.84 126.916 360.72 126.796 360.6 126.676 360.48 126.556 360.24 126.436 360 126.436 359.76 126.436 359.52 126.556 359.28 126.796L359.52 127.156C359.64 127.036 359.64 126.916 359.76 126.916 359.88 126.796 359.88 126.796 360 126.796H360.12C360.24 126.796 360.24 126.916 360.24 126.916 360.36 126.916 360.36 126.916 360.36 127.036V127.156C360.24 127.156 360.12 127.276 360 127.276H359.88C359.64 127.276 359.52 127.396 359.4 127.516 359.4 127.636 359.4 127.756 359.4 127.756 359.4 127.876 359.4 127.996 359.52 128.116 359.64 128.236 359.76 128.236 359.88 128.356H360C360.24 128.356 360.6 128.236 360.72 128.116L360.48 127.876C360.36 127.876 360.24 127.876 360.12 127.996V127.876C360 127.876 360 127.876 359.88 127.876L359.76 127.756 359.88 127.636Z" fill-rule="evenodd"/><path transform="matrix(1,0,0,-1,0,595.276)" d="M359.88 138.676 357.84 140.836 355.68 138.676V136.636L357.12 138.076V130.276H358.44V138.076L359.88 136.636Z" fill-rule="evenodd"/><path transform="matrix(1,0,0,-1,0,595.276)" d="M353.64 124.396V121.396 121.156L353.76 121.036H353.88L354.12 120.916H356.4L356.52 121.036H356.64 356.76L356.88 121.156 357 121.276 357.12 121.396V121.636 121.876L356.76 121.996V121.636L356.64 121.516 356.52 121.396 356.28 121.276H354.24L354.12 121.396V121.516 122.716H356.28V122.596H356.64V124.396H353.64ZM354.12 123.196V124.036H354.96V123.196H354.12ZM355.32 123.196V124.036H356.28V123.196H355.32Z" fill-rule="evenodd"/><path transform="matrix(1,0,0,-1,0,595.276)" d="M360.36 124.516H360V123.316H358.44V122.956H360V121.516H358.68V121.156H361.8V121.516H360.48V122.956H362.04V123.316H360.48V124.396H360.6L360.48 124.516Z" fill-rule="evenodd"/></g></svg>