<?xml version='1.0' encoding='UTF-8'?>
<svg width="544.68" height="242.28" viewBox="11.07 13.38 544.68 242.28" xmlns="http://www.w3.org/2000/svg" xmlns:xlink="http://www.w3.org/1999/xlink" xmlns:inkscape="http://www.inkscape.org/namespaces/inkscape" version="1.1"><g transform="scale(10.0) translate(-329.439, -505.008)"><defs><clipPath id="clip_2"><path transform="matrix(1,0,0,-1,0,595.276)" d="M74.4 .196H767.4V595.276H74.4Z"/></clipPath></defs><path transform="matrix(1,0,0,-1,0,595.276)" d="M382.8 65.236H332.76C332.52 65.236 332.4 65.236 332.16 65.356 331.92 65.356 331.8 65.476 331.56 65.716 331.44 65.836 331.32 66.076 331.2 66.196 331.08 66.436 331.08 66.676 331.08 66.796V86.716C331.08 87.076 331.2 87.556 331.56 87.916 331.8 88.036 331.92 88.156 332.16 88.276 332.4 88.396 332.52 88.396 332.76 88.396H382.8C383.16 88.396 383.64 88.276 384 87.916 384.36 87.556 384.48 87.076 384.48 86.716V66.796C384.48 66.436 384.36 65.956 384 65.716 383.64 65.356 383.16 65.236 382.8 65.236ZM382.8 66.076C383.28 66.076 383.64 66.436 383.64 66.796V86.716C383.64 86.956 383.52 87.196 383.4 87.316 383.28 87.436 383.04 87.556 382.8 87.556H332.76C332.52 87.556 332.4 87.436 332.16 87.316 332.04 87.196 331.92 86.956 331.92 86.716V66.796C331.92 66.676 332.04 66.436 332.16 66.316 332.4 66.076 332.52 66.076 332.76 66.076H382.8Z" fill-rule="evenodd"/><path transform="matrix(1,0,0,-1,0,595.276)" d="M332.76 87.556H382.8C383.04 87.556 383.28 87.436 383.4 87.316 383.52 87.196 383.64 86.956 383.64 86.716V66.796C383.64 66.796 383.64 66.676 383.64 66.556 383.52 66.436 383.52 66.316 383.4 66.316 383.28 66.196 383.16 66.076 383.16 66.076 383.04 66.076 382.92 66.076 382.8 66.076H332.76C332.52 66.076 332.4 66.076 332.16 66.316 332.04 66.316 332.04 66.436 332.04 66.556 331.92 66.676 331.92 66.796 331.92 66.796V86.716C331.92 86.956 332.04 87.196 332.16 87.316 332.4 87.436 332.52 87.556 332.76 87.556Z" fill="#ffffff" fill-rule="evenodd"/><path transform="matrix(1,0,0,-1,0,595.276)" d="M339 85.156V81.316H341.16V80.236H338.04V85.156Z" fill-rule="evenodd"/><path transform="matrix(1,0,0,-1,0,595.276)" d="M344.88 80.836 344.64 80.116C344.4 80.116 344.16 80.236 344.04 80.236 343.92 80.356 343.8 80.356 343.8 80.476 343.68 80.356 343.2 80.116 342.96 80.116 342 80.116 341.52 80.596 341.52 81.436 341.52 82.156 342.12 82.516 343.56 82.516V82.756C343.56 82.876 343.56 82.996 343.44 82.996 343.44 83.116 343.32 83.116 343.08 83.116 342.96 83.116 342.72 83.116 342.48 82.996 342.36 82.996 342.24 82.876 342 82.756L341.52 83.356C341.88 83.836 342.48 83.956 343.08 83.956 343.56 83.956 343.92 83.836 344.16 83.716 344.4 83.596 344.52 83.236 344.64 82.996V81.076C344.64 80.956 344.76 80.836 344.88 80.836ZM342.48 81.316C342.48 81.196 342.6 81.076 342.6 81.076 342.72 80.956 342.84 80.956 343.08 80.956 343.32 80.956 343.44 81.076 343.56 81.196V81.796C343.2 81.796 342.96 81.796 342.72 81.676 342.6 81.556 342.48 81.556 342.48 81.316Z" fill-rule="evenodd"/><path transform="matrix(1,0,0,-1,0,595.276)" d="M348.84 80.236V82.756C348.72 83.596 348.36 83.956 347.4 83.956 347.28 83.956 347.04 83.956 346.92 83.836 346.8 83.836 346.68 83.716 346.56 83.596V83.836H345.6V80.236H346.56V82.396 82.516C346.68 82.876 346.92 82.996 347.28 83.116 347.64 82.996 347.76 82.876 347.76 82.516V82.396 80.236H348.84Z" fill-rule="evenodd"/><path transform="matrix(1,0,0,-1,0,595.276)" d="M351 83.716H351.96V82.996H351V81.436C351 81.316 351.12 81.196 351.12 81.076 351.24 81.076 351.24 81.076 351.36 80.956 351.48 80.956 351.6 80.956 351.6 81.076 351.72 81.076 351.84 81.076 351.96 81.076L352.08 80.236C351.96 80.116 351.6 80.116 351.12 80.116 350.76 80.116 350.52 80.236 350.4 80.356 350.28 80.476 350.16 80.716 350.04 80.956V82.996H349.56V83.716H350.04V84.916L351 85.156V83.716Z" fill-rule="evenodd"/><path transform="matrix(1,0,0,-1,0,595.276)" d="M355.92 80.836 355.68 80.116C355.44 80.116 355.32 80.236 355.08 80.236 354.96 80.356 354.84 80.356 354.84 80.476 354.72 80.356 354.24 80.116 354 80.116 353.52 80.116 353.16 80.236 352.92 80.476 352.68 80.716 352.56 80.956 352.56 81.436 352.56 82.156 353.28 82.516 354.6 82.516V82.756C354.6 82.876 354.6 82.996 354.48 82.996 354.48 83.116 354.36 83.116 354.12 83.116 354 83.116 353.76 83.116 353.52 82.996 353.4 82.996 353.28 82.876 353.04 82.756L352.56 83.356C352.92 83.836 353.52 83.956 354.12 83.956 354.6 83.956 354.96 83.836 355.2 83.716 355.44 83.596 355.56 83.236 355.68 82.996V81.076C355.68 80.956 355.8 80.836 355.92 80.836ZM353.52 81.316C353.52 81.196 353.64 81.076 353.64 81.076 353.76 80.956 353.88 80.956 354.12 80.956 354.36 80.956 354.48 81.076 354.6 81.196V81.796C354.24 81.796 354 81.796 353.88 81.676 353.64 81.556 353.52 81.556 353.52 81.316Z" fill-rule="evenodd"/><path transform="matrix(1,0,0,-1,0,595.276)" d="M358.92 83.716H359.88V80.236H358.8V80.356C358.8 80.356 358.8 80.236 358.56 80.236 358.44 80.116 358.2 80.116 357.96 80.116 357.72 80.116 357.36 80.236 357 80.476 356.76 80.716 356.64 80.956 356.64 81.196V83.716H357.6V81.556C357.6 81.556 357.72 81.316 357.84 81.196 357.96 81.076 358.08 81.076 358.2 81.076 358.44 81.076 358.56 81.076 358.68 81.316 358.8 81.436 358.92 81.556 358.92 81.796V83.716Z" fill-rule="evenodd"/><path transform="matrix(1,0,0,-1,0,595.276)" d="M363.84 83.716H364.8V82.996H363.84V81.436C363.84 81.316 363.84 81.196 363.96 81.076 363.96 81.076 364.08 81.076 364.2 80.956 364.32 80.956 364.32 80.956 364.44 81.076 364.56 81.076 364.68 81.076 364.68 81.076L364.92 80.236C364.68 80.116 364.32 80.116 363.84 80.116 363.6 80.116 363.36 80.236 363.24 80.356 363 80.476 362.88 80.716 362.88 80.956V82.996H362.28V83.716H362.88V84.916L363.84 85.156V83.716Z" fill-rule="evenodd"/><path transform="matrix(1,0,0,-1,0,595.276)" d="M368.76 80.836 368.52 80.116C368.28 80.116 368.04 80.236 367.92 80.236 367.8 80.356 367.68 80.356 367.68 80.476 367.56 80.356 367.08 80.116 366.72 80.116 365.88 80.116 365.4 80.596 365.4 81.436 365.4 82.156 366 82.516 367.44 82.516V82.756C367.44 82.876 367.44 82.996 367.32 82.996 367.2 83.116 367.08 83.116 366.96 83.116 366.72 83.116 366.6 83.116 366.36 82.996 366.24 82.996 366 82.876 365.88 82.756L365.4 83.356C365.76 83.836 366.24 83.956 366.96 83.956 367.44 83.956 367.8 83.836 368.04 83.716 368.28 83.596 368.4 83.236 368.4 82.996V81.076C368.4 80.956 368.52 80.836 368.76 80.836ZM366.36 81.316C366.36 81.196 366.36 81.076 366.48 81.076 366.6 80.956 366.72 80.956 366.96 80.956 367.2 80.956 367.32 81.076 367.44 81.196V81.796C367.08 81.796 366.84 81.796 366.6 81.676 366.48 81.556 366.36 81.556 366.36 81.316Z" fill-rule="evenodd"/><path transform="matrix(1,0,0,-1,0,595.276)" d="M371.52 83.716H372.6L371.52 82.036 372.72 80.236H371.64L371.04 81.316 370.32 80.236H369.24L370.44 82.036 369.48 83.716H370.44L371.04 82.756Z" fill-rule="evenodd"/><path transform="matrix(1,0,0,-1,0,595.276)" d="M374.28 80.236V83.716H373.32V80.236Z" fill-rule="evenodd"/><path transform="matrix(1,0,0,-1,0,595.276)" d="M374.4 84.676C374.4 85.036 374.16 85.276 373.8 85.276 373.56 85.276 373.32 85.036 373.32 84.676 373.32 84.436 373.56 84.196 373.8 84.196 374.16 84.196 374.4 84.436 374.4 84.676Z" fill-rule="evenodd"/><path transform="matrix(1,0,0,-1,0,595.276)" d="M378.12 81.316C378.12 82.036 377.76 82.396 376.92 82.516 376.68 82.516 376.44 82.636 376.32 82.636 376.2 82.636 376.2 82.756 376.2 82.876 376.2 82.996 376.32 83.116 376.68 83.116 376.8 83.116 377.04 83.116 377.16 82.996 377.28 82.996 377.4 82.876 377.4 82.756L378 83.356C377.76 83.716 377.28 83.956 376.68 83.956 375.72 83.956 375.24 83.596 375.24 82.756 375.24 82.156 375.6 81.796 376.2 81.676 376.8 81.676 377.04 81.556 377.04 81.316 377.04 81.196 377.04 81.196 376.92 81.076 376.92 81.076 376.8 81.076 376.68 80.956 376.44 81.076 376.2 81.076 376.08 81.196 375.96 81.196 375.72 81.316 375.6 81.436L375 80.836C375.36 80.356 375.84 80.116 376.56 80.116 377.52 80.116 378.12 80.596 378.12 81.316Z" fill-rule="evenodd"/><path transform="matrix(1,0,0,-1,0,595.276)" d="M338.88 76.396H338.28V74.356H335.28V73.636H338.28L338.16 73.036 338.04 72.556 337.8 71.956 337.44 71.476 336.96 71.116 336.36 70.636 335.76 70.276 335.04 69.916 335.64 69.316 336.24 69.676 336.84 70.036 337.32 70.396 337.8 70.876 338.16 71.356 338.52 71.716 338.64 72.196 338.88 72.676 339.24 71.716 339.84 70.756 340.68 70.036 341.64 69.316 342.24 70.156 341.76 70.396 341.28 70.756 340.8 71.116 340.32 71.476 339.96 71.956 339.72 72.436 339.36 73.036 339.12 73.636H342.12V74.356H339V76.036L339.24 76.156V76.276L339.12 76.396Z" fill-rule="evenodd"/><path transform="matrix(1,0,0,-1,0,595.276)" d="M344.76 70.036H345.24V70.636H346.56V70.276H347.16V70.996H351.96V71.596H351.48V76.036H350.28V75.436H350.88V74.596H350.4V74.116H350.88V73.156H350.4V72.676H350.88V71.596H350.16V74.356H349.44V74.956H350.16V75.436H349.44V76.156L349.56 76.276 349.44 76.396H349.32 348.84V73.756H349.68V71.596H349.32V73.156L349.44 73.276 349.32 73.396H349.2 348.84V71.596H348.12V72.676H348.72V73.156H348.12V73.996H348.72V74.596H348.12V75.436L348.6 75.676H348.72V75.796L348.6 76.036 348.36 76.276 347.88 76.036 347.64 75.916 347.52 76.036V71.596H347.16V74.716 74.836 74.956H346.92 346.56V71.356H346.2V75.916L346.32 76.036V76.156H346.08L345.6 76.276V71.356H345.24V74.716L345.36 74.836V74.956H345.24L344.76 75.076Z" fill-rule="evenodd"/><path transform="matrix(1,0,0,-1,0,595.276)" d="M346.8 69.796 347.52 69.316 348.72 70.276H348.84 348.96L348.84 70.396 348.72 70.516 348.36 70.876 347.64 70.276Z" fill-rule="evenodd"/><path transform="matrix(1,0,0,-1,0,595.276)" d="M351.36 69.316 351.96 69.916 351.12 70.276 350.4 70.876 349.92 70.396 350.64 69.796Z" fill-rule="evenodd"/><path transform="matrix(1,0,0,-1,0,595.276)" d="M358.08 76.276 357.48 76.396V70.876H355.32V74.476L355.56 74.596V74.716L355.44 74.836H355.2 354.6V69.316H355.32V70.156H360.24V69.316H361.08V74.476L361.2 74.596V74.716H361.08L360.84 74.836H360.24V70.876H358.32V76.036L358.56 76.156 358.44 76.276Z" fill-rule="evenodd"/><path transform="matrix(1,0,0,-1,0,595.276)" d="M365.52 76.396 365.04 75.316H364.08V69.436H364.8V70.036H366.36V69.556H367.08V75.316H365.88L366.24 76.036H366.36V76.156 76.276H366.12L365.52 76.396ZM364.8 73.036V74.596H366.36V73.036H364.8ZM364.8 70.756V72.316H366.36V70.756H364.8Z" fill-rule="evenodd"/><path transform="matrix(1,0,0,-1,0,595.276)" d="M369 76.276 368.52 76.396 368.28 75.556 367.92 74.956 367.56 74.356 367.08 73.756 367.8 73.396 368.16 73.996 368.52 74.596H370.2V72.556 72.076 71.596 71.116L370.08 70.756 369.96 70.516 369.72 70.276 369.48 70.156H369.12 368.52L368.88 69.436H369.36L369.72 69.316 370.08 69.436 370.32 69.676 370.56 70.036 370.8 70.516 370.92 70.996V71.716 72.556 75.316H368.88L369.12 75.916 369.36 76.036 369.24 76.156Z" fill-rule="evenodd"/><path transform="matrix(1,0,0,-1,0,595.276)" d="M368.4 73.276 367.8 72.796 368.4 72.196 369 71.356 369.48 71.956 369 72.676Z" fill-rule="evenodd"/><path transform="matrix(1,0,0,-1,0,595.276)" d="M377.28 76.396H376.68V74.116H373.56V73.276H376.68V70.516H373.92V69.796H380.16V70.516H377.52V73.276H380.64V74.116H377.52V76.036L377.64 76.156V76.276H377.52Z" fill-rule="evenodd"/></g></svg>