<?xml version='1.0' encoding='UTF-8'?>
<svg width="270.48" height="256.08" viewBox="148.65 8.04 270.48 256.08" xmlns="http://www.w3.org/2000/svg" xmlns:xlink="http://www.w3.org/1999/xlink" xmlns:inkscape="http://www.inkscape.org/namespaces/inkscape" version="1.1"><g transform="scale(10.0) translate(-111.171, -47.232)"><defs><clipPath id="clip_2"><path transform="matrix(1,0,0,-1,0,595.276)" d="M74.4 .196H767.4V595.276H74.4Z"/></clipPath></defs><path transform="matrix(1,0,0,-1,0,595.276)" d="M152.76 523.036V545.836C152.76 546.076 152.64 546.436 152.52 546.676 152.28 546.796 152.04 546.916 151.68 546.916H127.44C127.32 546.916 127.2 546.916 127.08 546.916 126.96 546.796 126.84 546.676 126.72 546.676 126.6 546.556 126.48 546.436 126.48 546.316 126.48 546.076 126.36 545.956 126.36 545.836V523.036C126.36 522.916 126.48 522.676 126.48 522.556 126.48 522.436 126.6 522.316 126.72 522.196 126.84 522.076 126.96 522.076 127.08 521.956 127.2 521.956 127.32 521.956 127.44 521.956H151.68C151.92 521.956 152.04 521.956 152.16 521.956 152.28 522.076 152.4 522.076 152.52 522.196 152.64 522.316 152.64 522.436 152.76 522.556 152.76 522.676 152.76 522.916 152.76 523.036Z" fill="#ffffff" fill-rule="evenodd"/><path transform="matrix(1,0,0,-1,0,595.276)" stroke-width=".12" stroke-linecap="butt" stroke-miterlimit="10" stroke-linejoin="miter" fill="none" stroke="#ff0000" d="M127.5 522.5V522.5"/><path transform="matrix(1,0,0,-1,0,595.276)" d="M127.44 522.436V522.436H151.68C151.92 522.436 152.04 522.556 152.16 522.556 152.16 522.676 152.28 522.916 152.28 523.036V545.836C152.28 545.956 152.16 546.196 152.16 546.196 152.04 546.316 151.92 546.436 151.68 546.436H127.44C127.32 546.436 127.2 546.316 127.08 546.196 126.96 546.196 126.96 545.956 126.96 545.836V523.036C126.96 522.676 127.2 522.436 127.44 522.436Z" fill="#ff0000" fill-rule="evenodd"/><path transform="matrix(1,0,0,-1,0,595.276)" d="M133.8 542.476C133.92 542.356 134.04 542.236 134.16 542.236 134.4 542.116 134.64 541.996 135 541.996 135.24 541.996 135.6 541.996 135.84 542.236 135.84 542.356 135.96 542.356 135.96 542.476 135.96 542.596 135.96 542.596 136.08 542.596V542.716 542.836 542.956 543.076C135.96 543.196 135.96 543.316 135.84 543.436 135.72 543.556 135.72 543.556 135.6 543.556 135.48 543.556 135.48 543.676 135.36 543.676L134.76 543.796C134.64 543.796 134.64 543.796 134.52 543.796 134.52 543.916 134.4 544.036 134.4 544.036 134.4 544.156 134.4 544.276 134.52 544.396 134.64 544.516 134.76 544.516 134.88 544.516 135.12 544.516 135.36 544.396 135.6 544.156L135.96 544.516C135.6 544.756 135.36 544.996 134.88 544.996 134.64 544.996 134.4 544.876 134.16 544.756 133.92 544.516 133.92 544.276 133.92 544.036 133.92 543.916 133.92 543.676 134.16 543.556 134.16 543.436 134.28 543.436 134.4 543.436 134.52 543.316 134.76 543.316 134.88 543.316 135.12 543.196 135.36 543.196 135.48 543.076 135.6 542.956 135.6 542.716 135.48 542.596 135.48 542.476 135.24 542.356 135 542.356 134.64 542.476 134.4 542.476 134.16 542.836L133.8 542.476Z" fill="#ffffff" fill-rule="evenodd"/><path transform="matrix(1,0,0,-1,0,595.276)" d="M136.92 541.996H138.48V542.476H137.4V544.876H136.92Z" fill="#ffffff" fill-rule="evenodd"/><path transform="matrix(1,0,0,-1,0,595.276)" d="M142.08 544.876 142.8 541.996H143.28L143.76 544.156 144.24 541.996H144.84L145.56 544.876H144.96L144.6 542.716 144.12 544.876H143.52L143.04 542.716 142.56 544.876Z" fill="#ffffff" fill-rule="evenodd"/><path transform="matrix(1,0,0,-1,0,595.276)" d="M131.52 531.076 130.8 533.956H131.4L131.76 531.796 132.24 533.956H132.84L133.32 531.796 133.8 533.956H134.28L133.56 531.076H133.08L132.6 533.236 132.12 531.076Z" fill="#ffffff" fill-rule="evenodd"/><path transform="matrix(1,0,0,-1,0,595.276)" d="M134.88 531.076H136.8V531.556H135.36V532.276H136.68V532.756H135.36V533.476H136.8V533.956H134.88Z" fill="#ffffff" fill-rule="evenodd"/><path transform="matrix(1,0,0,-1,0,595.276)" d="M138 531.076H138.6V533.476H139.32V533.956H137.28V533.476H138Z" fill="#ffffff" fill-rule="evenodd"/><path transform="matrix(1,0,0,-1,0,595.276)" d="M141.84 533.476V531.076H141.36V533.476H140.52V533.956H142.68V533.476Z" fill="#ffffff" fill-rule="evenodd"/><path transform="matrix(1,0,0,-1,0,595.276)" d="M140.28 544.996C139.44 544.996 138.84 544.276 138.84 543.436 138.84 542.596 139.44 541.876 140.28 541.876 140.52 541.876 140.88 542.116 141.12 542.356 141.48 542.716 141.6 543.076 141.6 543.436 141.6 544.276 141 544.996 140.28 544.996ZM140.28 544.516C140.4 544.516 140.64 544.396 140.76 544.276 141 544.036 141.12 543.676 141.12 543.436 141.12 542.836 140.64 542.356 140.28 542.356 140.04 542.356 139.8 542.476 139.68 542.716 139.44 542.956 139.44 543.196 139.44 543.436 139.44 543.676 139.44 544.036 139.68 544.276 139.8 544.396 140.04 544.516 140.28 544.516Z" fill="#ffffff" fill-rule="evenodd"/><path transform="matrix(1,0,0,-1,0,595.276)" d="M147.72 531.076H148.2L147.6 532.276C147.96 532.396 148.2 532.756 148.2 533.236 148.08 533.596 147.84 533.956 147.36 533.956H146.16V531.076H146.64V532.156H147.12L147.72 531.076ZM146.64 532.636V533.476H147.24C147.36 533.476 147.48 533.476 147.6 533.356 147.6 533.356 147.72 533.236 147.72 533.116 147.72 532.996 147.6 532.876 147.6 532.756 147.48 532.636 147.36 532.636 147.24 532.636H146.64Z" fill="#ffffff" fill-rule="evenodd"/><path transform="matrix(1,0,0,-1,0,595.276)" d="M142.92 531.076H143.4L143.52 531.556H144.84L144.96 531.076H145.44L144.48 533.956H143.88L142.92 531.076ZM144.72 532.036H143.76L144.24 533.476 144.72 532.036Z" fill="#ffffff" fill-rule="evenodd"/><path transform="matrix(1,0,0,-1,0,595.276)" d="M134.52 537.436 135 537.316V537.916 538.636L135.12 538.756H135 134.64V538.036Z" fill="#ffffff" fill-rule="evenodd"/><path transform="matrix(1,0,0,-1,0,595.276)" d="M136.08 538.876 135.72 538.756 135.84 537.916 136.2 538.036V538.396Z" fill="#ffffff" fill-rule="evenodd"/><path transform="matrix(1,0,0,-1,0,595.276)" d="M136.56 539.716V538.396H138.6V539.716H136.56ZM137.04 539.116V539.356H138.24V539.116H137.04ZM137.04 538.756V538.876H138.24V538.756H137.04Z" fill="#ffffff" fill-rule="evenodd"/><path transform="matrix(1,0,0,-1,0,595.276)" d="M136.32 538.156V537.196H138.84V538.156H136.32ZM137.4 537.556V537.796H137.76V537.556H137.4ZM136.68 537.556V537.796H137.04V537.556H136.68ZM138.12 537.556V537.796H138.48V537.556H138.12Z" fill="#ffffff" fill-rule="evenodd"/><path transform="matrix(1,0,0,-1,0,595.276)" d="M136.44 536.956V536.596H136.68L137.04 536.356 137.28 535.996 136.68 535.756 136.08 535.636 136.44 535.396 137.04 535.516 137.64 535.756 138.12 535.516 138.6 535.396 138.96 535.756 138.48 535.876 138 535.996 138.36 536.356 138.72 536.716 138.6 536.956H138.48 136.44ZM137.16 536.596H138.12L137.88 536.356 137.64 536.236 137.4 536.356 137.16 536.596Z" fill="#ffffff" fill-rule="evenodd"/><path transform="matrix(1,0,0,-1,0,595.276)" d="M135.24 539.716V535.396H135.72V539.476 539.596 539.716Z" fill="#ffffff" fill-rule="evenodd"/><path transform="matrix(1,0,0,-1,0,595.276)" d="M140.4 539.596V537.076H140.88V537.316H141.96V536.476L141.72 536.956H141.48L141.6 536.596 141.72 536.236 141.96 536.356 141.84 536.116V535.996L141.6 535.876H141.36L141.12 535.756 141.24 535.396 141.48 535.516H141.6L141.84 535.636H141.96L142.08 535.876 142.2 535.996V536.116L142.32 536.356V536.596 537.556H141.72V537.916H142.2V538.276H141.72V538.636H142.2V538.996H141.72V539.236H142.32V539.596H140.4ZM140.88 538.996V539.236H141.36V538.996H140.88ZM140.88 538.276V538.636H141.36V538.276H140.88ZM140.88 537.556V537.916H141.36V537.556H140.88Z" fill="#ffffff" fill-rule="evenodd"/><path transform="matrix(1,0,0,-1,0,595.276)" d="M141.36 536.836H141.12L141.36 536.116 141.6 536.236Z" fill="#ffffff" fill-rule="evenodd"/><path transform="matrix(1,0,0,-1,0,595.276)" d="M141 536.836H140.76V536.476 536.116H141.12Z" fill="#ffffff" fill-rule="evenodd"/><path transform="matrix(1,0,0,-1,0,595.276)" d="M140.64 536.836H140.28V536.356L140.16 535.996H140.52Z" fill="#ffffff" fill-rule="evenodd"/><path transform="matrix(1,0,0,-1,0,595.276)" d="M143.28 539.716V538.996H142.44V537.316H143.28V536.716L143.04 536.956 142.8 537.196 142.56 536.956 142.8 536.596 143.04 536.236 142.92 536.116 142.68 535.996 142.44 535.876H142.2L142.56 535.396 142.92 535.636 143.28 535.996 143.88 535.636 144.48 535.396 144.72 535.756 144.12 535.996 143.52 536.356 143.64 536.836V537.316H144.48V538.996H143.64V539.476L143.76 539.596H143.64L143.28 539.716ZM142.92 537.796V538.756H143.28V537.796H142.92ZM143.76 537.796V538.756H144.12V537.796H143.76Z" fill="#ffffff" fill-rule="evenodd"/><path transform="matrix(1,0,0,-1,0,595.276)" d="M129.6 528.796V527.836H128.88V527.356H129.6L129.24 526.516 128.76 525.676 129.24 525.436 129.6 526.396V524.476H129.96V526.516L130.2 526.156 130.32 525.916 130.68 526.156 130.44 526.396 130.32 526.756 130.08 526.996 129.96 527.356H130.56V527.836H129.96V528.556L130.08 528.676H129.96Z" fill="#ffffff" fill-rule="evenodd"/><path transform="matrix(1,0,0,-1,0,595.276)" d="M132.24 528.676 131.76 528.796 131.52 527.956H130.8V524.476H131.28V524.836H132.6V524.476H132.96V527.836H132L132.12 528.436 132.24 528.556H132.36L132.24 528.676ZM131.28 526.636V527.476H132.6V526.636H131.28ZM131.28 525.196V526.156H132.48V525.196H131.28Z" fill="#ffffff" fill-rule="evenodd"/><path transform="matrix(1,0,0,-1,0,595.276)" d="M135.36 528.676 135 528.436 135.36 528.196 135.72 527.956 135.96 528.196 135.72 528.556Z" fill="#ffffff" fill-rule="evenodd"/><path transform="matrix(1,0,0,-1,0,595.276)" d="M135 527.476 134.64 527.236 135 526.996 135.36 526.756 135.6 526.996Z" fill="#ffffff" fill-rule="evenodd"/><path transform="matrix(1,0,0,-1,0,595.276)" d="M135.84 525.916 135.48 526.276 135 525.436 134.52 524.836 134.88 524.596V524.476H135 135.12V524.596Z" fill="#ffffff" fill-rule="evenodd"/><path transform="matrix(1,0,0,-1,0,595.276)" d="M135.96 527.716V524.476H136.44V524.836H138.36V524.476H138.84V527.716H137.64V528.556L137.76 528.676H137.64 137.52L137.16 528.796V527.716H135.96ZM137.64 526.516V527.236H138.36V526.516H137.64ZM136.44 526.516V527.236H137.16V526.516H136.44ZM137.64 525.316V526.156H138.36V525.316H137.64ZM136.44 525.316V526.156H137.16V525.316H136.44Z" fill="#ffffff" fill-rule="evenodd"/><path transform="matrix(1,0,0,-1,0,595.276)" d="M140.76 528.076V527.596H142.32V526.996H140.4V526.636H142.2L141.84 526.156 141.36 525.796 140.88 525.436 140.28 525.196 140.64 524.836 141.12 525.076 141.6 525.436 141.96 525.796 142.32 526.276V524.476H142.8V526.276L143.16 525.796 143.52 525.316 143.88 525.076 144.24 524.836 144.72 525.196 144.24 525.436 143.76 525.796 143.28 526.156 142.92 526.636H144.6V526.996H142.8V527.596H144.24V528.076H142.8V528.556 528.676H142.68L142.56 528.796H142.32V528.076Z" fill="#ffffff" fill-rule="evenodd"/><path transform="matrix(1,0,0,-1,0,595.276)" d="M147 528.796V528.316H146.16V527.956H147V527.476H146.28V525.796H147V525.436H146.16V525.076H147V524.476H147.48V525.076H148.32V525.436H147.48V525.796H148.2V527.476H147.48V527.956H148.2V528.316H147.48V528.556 528.676L147.36 528.796H147ZM146.76 526.876V527.116H147.72V526.876H146.76ZM146.76 526.156V526.516H147.72V526.156H146.76Z" fill="#ffffff" fill-rule="evenodd"/><path transform="matrix(1,0,0,-1,0,595.276)" d="M148.2 527.356 148.56 527.116 148.92 527.476H150.36V527.956H149.16L149.4 528.436H149.52L149.64 528.556H149.52L149.4 528.676H149.16L148.68 527.956Z" fill="#ffffff" fill-rule="evenodd"/><path transform="matrix(1,0,0,-1,0,595.276)" d="M148.56 526.876V526.516H149.4L148.8 525.916 148.56 525.436 148.44 525.076V524.956L148.56 524.716 148.92 524.596H149.4 149.88L150.12 524.716 150.24 524.836 150.36 524.956 150.48 525.316 150.12 525.436 150 525.316V525.196L149.88 525.076 149.76 524.956H149.4 149.04L148.92 525.076H148.8L148.92 525.196 149.04 525.436 149.52 526.156 150.24 526.756 149.88 526.996 149.76 526.876Z" fill="#ffffff" fill-rule="evenodd"/><path transform="matrix(1,0,0,-1,0,595.276)" stroke-width=".12" stroke-linecap="round" stroke-linejoin="round" fill="none" stroke="#ff0000" d="M152.76 523.036V545.836C152.76 546.436 152.28 546.916 151.68 546.916H127.44C126.84 546.916 126.36 546.436 126.36 545.836V523.036C126.36 522.436 126.84 521.956 127.44 521.956H151.68C152.28 521.956 152.76 522.436 152.76 523.036"/></g></svg>