<?xml version='1.0' encoding='UTF-8'?>
<svg width="528.74" height="260.84" viewBox="20.03 3.02 528.74 260.84" xmlns="http://www.w3.org/2000/svg" xmlns:xlink="http://www.w3.org/1999/xlink" xmlns:inkscape="http://www.inkscape.org/namespaces/inkscape" version="1.1"><g transform="scale(10.0) translate(-165.765, -531.936)"><defs><clipPath id="clip_14"><path transform="matrix(1,0,0,-1,0,595.276)" d="M19.8 .046H822.06V595.276H19.8Z"/></clipPath></defs><path transform="matrix(1,0,0,-1,0,595.276)" d="M217.14 62.446H177C176.49 62.446 176.01 62.326 175.53 62.056 175.08 61.786 174.72 61.426 174.48 61.006L168.54 50.746C168.42 50.536 168.36 50.266 168.36 49.996 168.36 49.756 168.42 49.486 168.54 49.276L174.48 39.016C174.72 38.596 175.08 38.206 175.53 37.936 176.01 37.696 176.49 37.546 177 37.546H217.14C217.5 37.546 217.86 37.606 218.22 37.756 218.58 37.906 218.91 38.116 219.21 38.416 219.51 38.686 219.72 39.046 219.87 39.406 219.99 39.766 220.05 40.126 220.05 40.456V59.536C220.05 59.896 219.99 60.256 219.87 60.616 219.72 60.976 219.51 61.306 219.21 61.606 218.91 61.876 218.58 62.116 218.22 62.236 217.86 62.386 217.5 62.446 217.14 62.446Z" fill="#ffffff" fill-rule="evenodd"/><path transform="matrix(1,0,0,-1,0,595.276)" d="M217.14 61.006H177C176.76 61.006 176.49 60.946 176.28 60.796 176.04 60.676 175.86 60.496 175.74 60.286L169.8 49.996 175.74 39.736C175.86 39.526 176.04 39.346 176.28 39.196 176.49 39.076 176.76 39.016 177 39.016H217.14C217.5 39.016 217.89 39.136 218.19 39.436 218.49 39.736 218.61 40.126 218.61 40.456V59.536C218.61 59.716 218.58 59.896 218.49 60.076 218.43 60.256 218.31 60.436 218.19 60.586 217.89 60.856 217.5 61.006 217.14 61.006Z" fill="#0000ff" fill-rule="evenodd"/><path transform="matrix(1,0,0,-1,0,595.276)" d="M183.06 58.846H178.11L172.98 49.996 178.11 41.146H183.06L177.96 49.996Z" fill="#ffffff" fill-rule="evenodd"/><path transform="matrix(1,0,0,-1,0,595.276)" d="M209.22 42.346H208.26L208.44 45.736 209.85 49.546 209.64 51.916 209.07 51.316 207.27 49.756 206.82 50.476 208.38 51.916 208.86 53.296C209.01 53.686 209.28 54.046 209.64 54.316 210.03 54.586 210.45 54.706 210.87 54.736 211.29 54.766 211.71 54.706 212.13 54.496 212.52 54.286 212.85 53.956 213.06 53.596L213.72 52.576 214.29 49.366 213.54 49.036 212.76 52.156 212.25 52.636 213.96 46.156 215.43 43.786 214.71 43.006 212.07 46.546 211.29 48.406 209.85 45.796 209.22 42.346Z" fill="#ffffff" fill-rule="evenodd"/><path transform="matrix(1,0,0,-1,0,595.276)" d="M194.46 41.866C195.75 41.866 197.04 42.076 198.24 42.496 199.41 42.886 200.49 43.486 201.42 44.266 202.32 45.016 203.04 45.916 203.55 46.906 204.03 47.896 204.27 48.946 204.27 49.996 204.27 51.076 204.03 52.126 203.55 53.116 203.04 54.106 202.32 55.006 201.42 55.756 200.49 56.506 199.41 57.106 198.24 57.526 197.04 57.946 195.75 58.156 194.46 58.156 193.17 58.156 191.91 57.946 190.71 57.526 189.51 57.106 188.43 56.506 187.53 55.756 186.63 55.006 185.91 54.106 185.4 53.116 184.92 52.126 184.65 51.076 184.65 49.996 184.65 48.946 184.92 47.896 185.4 46.906 185.91 45.916 186.63 45.016 187.53 44.266 188.43 43.486 189.51 42.886 190.71 42.496 191.91 42.076 193.17 41.866 194.46 41.866Z" fill="#ff0000" fill-rule="evenodd"/><path transform="matrix(.03,0,0,.03,0,0)" stroke-width="5" stroke-linecap="round" stroke-linejoin="round" fill="none" stroke="#ffffff" d="M6457 18250H6458"/><path transform="matrix(1,0,0,-1,0,595.276)" d="M193.71 52.396C193.41 52.456 193.11 52.576 192.81 52.726 192.51 52.906 192.24 53.116 192.03 53.356 191.79 53.626 191.61 53.896 191.49 54.226 191.34 54.526 191.28 54.826 191.25 55.126H189.57C189.6 54.646 189.69 54.106 189.93 53.596 190.14 53.086 190.44 52.576 190.83 52.156 191.22 51.736 191.67 51.406 192.18 51.166 192.69 50.896 193.2 50.746 193.71 50.686V49.306C193.2 49.246 192.69 49.096 192.18 48.856 191.67 48.616 191.22 48.286 190.83 47.836 190.44 47.416 190.14 46.936 189.93 46.426 189.69 45.916 189.6 45.376 189.57 44.866H191.25C191.31 45.526 191.55 46.156 192.03 46.726 192.48 47.266 193.08 47.626 193.71 47.776V44.566H195.24V47.776C195.9 47.596 196.47 47.236 196.92 46.726 197.37 46.186 197.64 45.556 197.7 44.866H199.38C199.35 45.376 199.23 45.916 199.02 46.426 198.81 46.936 198.51 47.416 198.12 47.836 197.73 48.286 197.25 48.616 196.77 48.856 196.26 49.096 195.75 49.246 195.24 49.306V50.686C195.75 50.746 196.26 50.896 196.77 51.166 197.25 51.406 197.73 51.736 198.12 52.156 198.51 52.576 198.81 53.086 199.02 53.596 199.23 54.106 199.35 54.646 199.38 55.126H197.7C197.64 54.466 197.37 53.866 196.92 53.356 196.47 52.876 195.9 52.516 195.24 52.396V55.456H193.71V52.396Z" fill="#ffffff" fill-rule="evenodd"/><path transform="matrix(1,0,0,-1,0,595.276)" d="M195.24 44.566V44.566Z" fill="#ffffff" fill-rule="evenodd"/><path transform="matrix(1,0,0,-1,0,595.276)" d="M209.55 56.446C209.55 56.116 209.67 55.816 209.91 55.576 210.12 55.336 210.45 55.216 210.78 55.216 211.08 55.216 211.41 55.336 211.62 55.576 211.86 55.816 211.98 56.116 211.98 56.446 211.98 56.776 211.86 57.076 211.62 57.316 211.41 57.526 211.08 57.676 210.78 57.676 210.45 57.676 210.12 57.526 209.91 57.316 209.67 57.076 209.55 56.776 209.55 56.446Z" fill="#ffffff" fill-rule="evenodd"/><path transform="matrix(.03,0,0,.03,0,0)" stroke-width="5" stroke-linecap="round" stroke-linejoin="round" fill="none" stroke="#0000ff" d="M5618 18200 5816 18542C5833 18572 5865 18591 5900 18591H7238C7264 18591 7289 18580 7307 18562 7325 18544 7335 18519 7335 18494V17858C7335 17832 7325 17807 7307 17789 7289 17771 7264 17761 7238 17761H5900C5865 17761 5833 17779 5816 17809L5618 18151C5610 18166 5610 18185 5618 18200"/></g></svg>