<?xml version='1.0' encoding='UTF-8'?>
<svg width="548.02" height="204.52" viewBox="9.64 45.13 548.02 204.52" xmlns="http://www.w3.org/2000/svg" xmlns:xlink="http://www.w3.org/1999/xlink" xmlns:inkscape="http://www.inkscape.org/namespaces/inkscape" version="1.1"><g transform="scale(10.0) translate(-165.765, -397.296)"><defs><clipPath id="clip_14"><path transform="matrix(1,0,0,-1,0,595.276)" d="M19.8 .046H822.06V595.276H19.8Z"/></clipPath></defs><path transform="matrix(1,0,0,-1,0,595.276)" d="M214.32 192.856H169.41C169.17 192.856 168.9 192.796 168.66 192.706 168.39 192.616 168.15 192.436 167.94 192.226 167.73 192.046 167.58 191.806 167.46 191.536 167.37 191.266 167.34 191.026 167.34 190.756V175.696C167.34 175.456 167.37 175.186 167.46 174.946 167.58 174.676 167.73 174.436 167.94 174.226 168.15 174.016 168.39 173.866 168.66 173.776 168.9 173.656 169.17 173.626 169.41 173.626H214.32C214.65 173.626 215.01 173.716 215.34 173.896 215.67 174.076 215.94 174.346 216.12 174.676L220.77 182.716C220.86 182.866 220.92 183.046 220.92 183.226 220.92 183.436 220.86 183.616 220.77 183.766L216.12 191.806C215.73 192.466 215.07 192.856 214.32 192.856Z" fill="#ffffff" fill-rule="evenodd"/><path transform="matrix(1,0,0,-1,0,595.276)" d="M214.32 191.806H169.41C169.29 191.806 169.17 191.776 169.02 191.746 168.9 191.686 168.78 191.596 168.69 191.506 168.57 191.386 168.51 191.266 168.45 191.146 168.39 191.026 168.36 190.876 168.36 190.756V175.696C168.36 175.456 168.48 175.186 168.69 174.976 168.78 174.856 168.9 174.796 169.02 174.736 169.17 174.676 169.29 174.676 169.41 174.676H214.32C214.5 174.676 214.68 174.706 214.83 174.796 215.01 174.886 215.13 175.036 215.22 175.186L219.87 183.226 215.22 191.296C215.13 191.446 215.01 191.566 214.83 191.656 214.68 191.776 214.5 191.806 214.32 191.806Z" fill="#0000ff" fill-rule="evenodd"/><path transform="matrix(1,0,0,-1,0,595.276)" d="M181.92 187.426C181.92 187.066 182.01 186.706 182.31 186.406 182.58 186.136 182.94 185.986 183.27 185.986 183.6 185.986 183.96 186.136 184.26 186.406 184.53 186.706 184.65 187.066 184.62 187.426 184.65 187.756 184.53 188.116 184.26 188.416 183.96 188.686 183.6 188.836 183.27 188.836 182.94 188.836 182.58 188.686 182.31 188.416 182.01 188.116 181.92 187.756 181.92 187.426ZM183.27 188.266C183.45 188.266 183.63 188.176 183.78 187.996 183.93 187.846 183.99 187.606 183.99 187.426 183.99 187.216 183.93 186.976 183.78 186.826 183.63 186.646 183.45 186.556 183.27 186.556 183.09 186.556 182.91 186.646 182.76 186.826 182.61 186.976 182.55 187.216 182.55 187.426 182.55 187.606 182.61 187.846 182.76 187.996 182.91 188.176 183.09 188.266 183.27 188.266Z" fill="#ffffff" fill-rule="evenodd"/><path transform="matrix(1,0,0,-1,0,595.276)" d="M185.16 187.426C185.16 187.066 185.25 186.706 185.55 186.406 185.82 186.136 186.18 185.986 186.51 185.986 186.84 185.986 187.2 186.136 187.5 186.406 187.77 186.706 187.89 187.066 187.86 187.426 187.89 187.756 187.77 188.116 187.5 188.416 187.2 188.686 186.84 188.836 186.51 188.836 186.18 188.836 185.82 188.686 185.55 188.416 185.25 188.116 185.16 187.756 185.16 187.426ZM186.51 188.266C186.69 188.266 186.87 188.176 187.02 187.996 187.17 187.846 187.23 187.606 187.23 187.426 187.23 187.216 187.17 186.976 187.02 186.826 186.87 186.646 186.69 186.556 186.51 186.556 186.33 186.556 186.15 186.646 186 186.826 185.85 186.976 185.79 187.216 185.79 187.426 185.79 187.606 185.85 187.846 186 187.996 186.15 188.176 186.33 188.266 186.51 188.266Z" fill="#ffffff" fill-rule="evenodd"/><path transform="matrix(1,0,0,-1,0,595.276)" d="M189.54 186.676C189.54 186.586 189.6 186.526 189.69 186.526 189.75 186.526 189.84 186.526 189.93 186.526 190.02 186.526 190.08 186.556 190.17 186.556L190.26 186.046C190.11 186.016 189.93 185.986 189.78 185.986 189.63 185.986 189.45 186.016 189.33 186.076 189.18 186.136 189.09 186.196 189.03 186.286 188.94 186.376 188.91 186.466 188.91 186.586V188.266H188.4V188.776H188.91V189.676L189.54 189.886V188.776H190.26V188.266H189.54V186.676Z" fill="#ffffff" fill-rule="evenodd"/><path transform="matrix(1,0,0,-1,0,595.276)" d="M191.55 188.656C191.7 188.746 191.88 188.806 192.12 188.836 192.33 188.836 192.54 188.776 192.75 188.626 192.96 188.506 193.11 188.296 193.23 188.056 193.32 187.846 193.35 187.606 193.35 187.396 193.35 187.186 193.32 186.976 193.23 186.736 193.11 186.526 192.96 186.316 192.75 186.166 192.57 186.016 192.33 185.956 192.12 185.956 191.91 185.986 191.7 186.046 191.55 186.136V186.166C191.52 186.166 191.52 186.166 191.49 186.166 191.46 186.136 191.46 186.136 191.46 186.106V186.046H190.86V189.886H191.46V188.686C191.46 188.656 191.46 188.656 191.49 188.656 191.49 188.626 191.52 188.626 191.52 188.626L191.55 188.656ZM192.18 186.526C192.27 186.526 192.39 186.556 192.48 186.646 192.63 186.736 192.72 186.916 192.78 187.096 192.81 187.336 192.81 187.576 192.72 187.816 192.66 187.996 192.51 188.146 192.33 188.236 192.18 188.296 192 188.296 191.82 188.236 191.67 188.176 191.55 188.056 191.49 187.906 191.46 187.816 191.46 187.726 191.46 187.606V187.186C191.46 187.126 191.46 187.066 191.46 187.036 191.46 186.976 191.49 186.946 191.49 186.886 191.55 186.766 191.64 186.646 191.76 186.586 191.88 186.526 192.03 186.496 192.18 186.526Z" fill="#ffffff" fill-rule="evenodd"/><path transform="matrix(1,0,0,-1,0,595.276)" d="M194.73 188.536C194.85 188.656 194.97 188.746 195.15 188.806 195.3 188.866 195.48 188.866 195.63 188.836V188.236C195.39 188.236 195.15 188.176 194.97 188.056 194.91 188.026 194.85 187.966 194.82 187.876 194.76 187.816 194.73 187.726 194.73 187.666V186.046H194.13V188.776H194.73V188.536Z" fill="#ffffff" fill-rule="evenodd"/><path transform="matrix(1,0,0,-1,0,595.276)" d="M196.71 186.046V188.776H196.11V186.046Z" fill="#ffffff" fill-rule="evenodd"/><path transform="matrix(1,0,0,-1,0,595.276)" d="M196.77 189.586C196.77 189.766 196.62 189.946 196.41 189.946 196.2 189.946 196.05 189.766 196.05 189.586 196.05 189.376 196.2 189.226 196.41 189.226 196.62 189.226 196.77 189.376 196.77 189.586Z" fill="#ffffff" fill-rule="evenodd"/><path transform="matrix(1,0,0,-1,0,595.276)" d="M199.29 186.166C199.17 186.076 199.02 186.016 198.87 186.016 198.81 185.986 198.75 185.986 198.69 185.986 198.57 185.986 198.45 185.986 198.36 186.046 198 186.166 197.73 186.436 197.58 186.766 197.4 187.216 197.43 187.696 197.61 188.146 197.64 188.206 197.67 188.236 197.7 188.296 197.85 188.536 198.12 188.776 198.48 188.836 198.84 188.896 199.17 188.776 199.41 188.596V189.886H200.01V186.046H199.41V186.166 186.196C199.38 186.226 199.38 186.226 199.35 186.196L199.29 186.166ZM198.9 186.556C199.11 186.586 199.26 186.706 199.35 186.856 199.38 186.946 199.41 187.066 199.41 187.156V187.696C199.41 187.816 199.38 187.966 199.26 188.086 199.17 188.206 199.05 188.266 198.93 188.296 198.9 188.296 198.9 188.296 198.87 188.296 198.72 188.326 198.54 188.296 198.42 188.206 198.33 188.146 198.27 188.056 198.21 187.966 198.03 187.636 198.03 187.246 198.21 186.916 198.24 186.826 198.3 186.736 198.39 186.676 198.45 186.616 198.54 186.586 198.63 186.556 198.72 186.526 198.81 186.526 198.9 186.556Z" fill="#ffffff" fill-rule="evenodd"/><path transform="matrix(1,0,0,-1,0,595.276)" d="M202.56 188.626V188.776H203.13V185.926 185.866 185.806C203.07 185.626 202.95 185.446 202.74 185.326 202.53 185.206 202.26 185.116 202.02 185.116 201.84 185.086 201.66 185.116 201.45 185.146 201.24 185.206 201.06 185.266 200.85 185.356L201.03 185.866C201.18 185.806 201.3 185.746 201.45 185.716 201.6 185.656 201.78 185.656 201.9 185.656 202.2 185.656 202.38 185.776 202.47 185.956 202.47 185.956 202.47 185.986 202.5 186.016 202.5 186.046 202.5 186.046 202.5 186.076V186.316C202.5 186.346 202.5 186.376 202.5 186.376V186.406 186.376C202.5 186.376 202.47 186.376 202.41 186.346 202.17 186.256 201.96 186.256 201.96 186.256 201.96 186.256 200.73 186.256 200.73 187.546 200.73 188.206 201.03 188.506 201.33 188.686 201.66 188.836 201.96 188.836 201.96 188.836 202.05 188.836 202.17 188.836 202.29 188.776 202.38 188.746 202.47 188.686 202.56 188.626ZM201.96 188.266C201.96 188.266 201.81 188.266 201.66 188.176 201.51 188.086 201.36 187.906 201.36 187.546 201.36 187.186 201.51 187.006 201.66 186.916 201.81 186.826 201.96 186.826 201.96 186.826 201.96 186.826 202.56 186.826 202.56 187.546 202.56 188.266 201.96 188.266 201.96 188.266Z" fill="#ffffff" fill-rule="evenodd"/><path transform="matrix(1,0,0,-1,0,595.276)" d="M200.85 185.356V185.356Z" fill="#ffffff" fill-rule="evenodd"/><path transform="matrix(1,0,0,-1,0,595.276)" d="M204.93 185.986C205.23 185.926 205.56 185.956 205.86 186.106 206.01 186.166 206.13 186.256 206.22 186.346L205.89 186.766 205.77 186.706C205.65 186.616 205.5 186.526 205.35 186.526 205.14 186.466 204.93 186.526 204.78 186.616 204.69 186.676 204.63 186.766 204.57 186.886 204.51 186.976 204.51 187.096 204.51 187.216H206.34C206.37 187.486 206.34 187.756 206.25 187.996 206.19 188.236 206.04 188.476 205.86 188.626 205.44 188.896 204.93 188.896 204.51 188.686 204.18 188.446 203.97 188.116 203.91 187.756 203.85 187.366 203.88 186.976 204.06 186.616 204.12 186.466 204.24 186.316 204.39 186.196 204.57 186.076 204.75 186.016 204.93 185.986ZM204.48 187.636C204.51 187.756 204.54 187.906 204.63 188.026 204.66 188.116 204.75 188.206 204.87 188.236 205.02 188.326 205.23 188.326 205.41 188.236 205.5 188.206 205.59 188.146 205.65 188.056 205.74 187.906 205.77 187.786 205.77 187.636H204.48Z" fill="#ffffff" fill-rule="evenodd"/><path transform="matrix(1,0,0,-1,0,595.276)" d="M179.73 187.696H181.32V188.296H179.73V189.286H181.44V189.886H179.1V186.046H179.73Z" fill="#ffffff" fill-rule="evenodd"/><path transform="matrix(1,0,0,-1,0,595.276)" d="M214.14 183.226 209.79 190.756H213.36L217.71 183.226 213.36 175.696H209.79Z" fill="#ffffff" fill-rule="evenodd"/><path transform="matrix(1,0,0,-1,0,595.276)" d="M174.99 177.736H175.68L175.53 180.166 174.54 182.896 174.69 184.606 175.08 184.156 176.4 183.076 176.7 183.586 175.59 184.606 175.26 185.596C175.14 185.866 174.93 186.136 174.69 186.316 174.42 186.526 174.12 186.616 173.82 186.646 173.52 186.646 173.19 186.586 172.89 186.436 172.62 186.286 172.38 186.076 172.23 185.806L171.75 185.086 171.36 182.776 171.9 182.536 172.44 184.786 172.83 185.116 171.6 180.466 170.52 178.756 171.06 178.216 172.95 180.766 173.49 182.086 174.54 180.226 174.99 177.736Z" fill="#ffffff" fill-rule="evenodd"/><path transform="matrix(1,0,0,-1,0,595.276)" d="M174.75 187.846C174.75 188.326 174.36 188.716 173.88 188.716 173.4 188.716 173.01 188.326 173.01 187.846 173.01 187.366 173.4 186.976 173.88 186.976 174.36 186.976 174.75 187.366 174.75 187.846Z" fill="#ffffff" fill-rule="evenodd"/><path transform="matrix(1,0,0,-1,0,595.276)" d="M179.37 181.636 179.97 181.336 180.69 181.846 181.38 182.446 181.5 182.506 181.53 182.596V182.656L181.44 182.686 180.93 182.866 180.18 182.176Z" fill="#ffffff" fill-rule="evenodd"/><path transform="matrix(1,0,0,-1,0,595.276)" d="M179.28 179.746 179.82 179.416 180.39 179.986V177.256H181.02V180.616L181.29 181.006 181.59 181.336 181.71 181.426 181.74 181.516 181.71 181.576 181.59 181.606 181.11 181.756 180.72 181.156 180.27 180.646 179.79 180.166Z" fill="#ffffff" fill-rule="evenodd"/><path transform="matrix(1,0,0,-1,0,595.276)" d="M182.13 182.566V181.996H184.62V182.566Z" fill="#ffffff" fill-rule="evenodd"/><path transform="matrix(1,0,0,-1,0,595.276)" d="M183.45 180.346V178.396 178.216L183.39 178.066 183.3 177.976 183.18 177.946H182.46L182.73 177.316H183.06 183.3L183.54 177.346 183.72 177.436 183.87 177.526 183.99 177.676 184.08 177.826 184.11 178.036V178.276 180.346H185.07V180.886H181.62V180.346Z" fill="#ffffff" fill-rule="evenodd"/><path transform="matrix(1,0,0,-1,0,595.276)" d="M190.02 182.896H189.51V181.696L189.36 180.766 189.21 180.316 189.03 179.926 188.82 179.536 188.52 179.176 188.19 178.846 187.8 178.546 187.38 178.246 186.9 177.976 187.41 177.466 187.89 177.796 188.34 178.126 188.73 178.456 189.06 178.816 189.33 179.206 189.57 179.596 189.75 179.986 189.87 180.406 190.29 179.476 190.77 178.666 191.31 177.976 191.91 177.406 192.6 177.856 192.18 178.156 191.79 178.486 191.43 178.846 191.13 179.266 190.83 179.746 190.56 180.226 190.35 180.796 190.14 181.366 190.08 181.996 190.14 182.626 190.26 182.746 190.29 182.836 190.2 182.896Z" fill="#ffffff" fill-rule="evenodd"/><path transform="matrix(1,0,0,-1,0,595.276)" d="M195.06 182.656V182.116H197.07V180.826H194.67V180.286H196.98L196.89 179.926 196.74 179.566 196.53 179.236 196.23 178.906 195.87 178.606 195.48 178.336 195 178.066 194.46 177.826 194.94 177.346 195.48 177.616 195.93 177.916 196.35 178.216 196.68 178.516 196.98 178.816 197.19 179.146 197.37 179.476 197.49 179.806 197.88 178.996 198.39 178.336 199.02 177.766 199.8 177.346 200.25 177.976 199.83 178.126 199.44 178.336 199.08 178.576 198.78 178.846 198.48 179.146 198.24 179.476 198.03 179.866 197.85 180.286H200.04V180.826H197.7V182.116H199.65V182.656Z" fill="#ffffff" fill-rule="evenodd"/><path transform="matrix(1,0,0,-1,0,595.276)" d="M202.95 183.016V181.756H202.17V181.246H202.95L202.5 180.196 201.99 179.206 202.5 178.906 202.95 179.956V177.316H203.49V180.226L203.61 179.926 203.76 179.656 204.15 180.046 203.76 180.586 203.43 181.246H203.94V181.756H203.49V182.746L203.61 182.806V182.866L203.55 182.926 203.37 182.986Z" fill="#ffffff" fill-rule="evenodd"/><path transform="matrix(1,0,0,-1,0,595.276)" d="M204.06 182.686 204.42 182.296 205.32 182.356 205.2 181.996H204.06V181.516H204.9L204.45 181.096 203.79 180.766 204.18 180.406 204.84 180.766V179.986H206.82V180.826L207.51 180.406 207.9 180.856 207.24 181.126 206.64 181.516H207.48V181.996H205.74L205.89 182.416 207.06 182.596 207.21 182.566H207.3V182.626L207.27 182.716 206.91 183.046 205.47 182.836 204.06 182.686ZM205.38 180.436V180.706H206.28V180.436H205.38ZM205.53 181.516H206.07L206.46 181.126H205.26L205.53 181.516Z" fill="#ffffff" fill-rule="evenodd"/><path transform="matrix(1,0,0,-1,0,595.276)" d="M204.12 179.716V177.346H204.69V179.296H207V178.216 178.036L206.94 177.886 206.79 177.826 206.61 177.796H206.43L206.61 177.316H206.94L207.18 177.346 207.36 177.496 207.51 177.736 207.57 178.066V179.716Z" fill="#ffffff" fill-rule="evenodd"/><path transform="matrix(1,0,0,-1,0,595.276)" d="M204.99 178.966V177.856H206.64V178.966H204.99ZM205.5 178.216V178.576H206.13V178.216H205.5Z" fill="#ffffff" fill-rule="evenodd"/><path transform="matrix(.03,0,0,.03,0,0)" stroke-width="5" stroke-linecap="round" stroke-linejoin="round" fill="none" stroke="#0000ff" d="M7359 13752 7204 14020C7191 14042 7169 14055 7144 14055H5647C5629 14055 5611 14048 5598 14035 5585 14022 5578 14004 5578 13986V13484C5578 13465 5585 13448 5598 13435 5611 13421 5629 13414 5647 13414H7144C7169 13414 7191 13427 7204 13449L7359 13717C7365 13728 7365 13741 7359 13752"/></g></svg>