<?xml version='1.0' encoding='UTF-8'?>
<svg width="307.19" height="252.59" viewBox="130.80 10.47 307.19 252.59" xmlns="http://www.w3.org/2000/svg" xmlns:xlink="http://www.w3.org/1999/xlink" xmlns:inkscape="http://www.inkscape.org/namespaces/inkscape" version="1.1"><g transform="scale(10.0) translate(-274.875, -505.008)"><defs><clipPath id="clip_14"><path transform="matrix(1,0,0,-1,0,595.276)" d="M19.8 .046H822.06V595.276H19.8Z"/></clipPath></defs><path transform="matrix(1,0,0,-1,0,595.276)" d="M290.4 88.846C290.13 88.846 289.89 88.816 289.62 88.726 289.38 88.606 289.14 88.456 288.93 88.246 288.72 88.036 288.57 87.796 288.45 87.556 288.36 87.286 288.33 87.046 288.33 86.776V66.406C288.33 66.166 288.36 65.896 288.45 65.626 288.57 65.386 288.72 65.146 288.93 64.936 289.14 64.726 289.38 64.576 289.62 64.486 289.89 64.366 290.13 64.336 290.4 64.336H310.17C310.53 64.336 310.89 64.426 311.22 64.606 311.55 64.786 311.79 65.056 311.97 65.356L318.15 76.066C318.24 76.216 318.3 76.396 318.3 76.606 318.3 76.786 318.24 76.966 318.15 77.116L311.97 87.826C311.79 88.126 311.55 88.396 311.22 88.576 310.89 88.756 310.53 88.846 310.17 88.846H290.4ZM310.17 87.826C310.56 87.826 310.89 87.616 311.07 87.316L317.25 76.606 311.07 65.896C310.89 65.566 310.56 65.356 310.17 65.356H290.4C290.13 65.356 289.86 65.446 289.65 65.656 289.44 65.866 289.35 66.166 289.35 66.406V86.776C289.35 86.896 289.38 87.046 289.41 87.166 289.47 87.286 289.56 87.406 289.65 87.526 289.77 87.616 289.89 87.706 290.01 87.736 290.13 87.796 290.25 87.826 290.4 87.826H310.17Z" fill="#0000ff" fill-rule="evenodd"/><path transform="matrix(1,0,0,-1,0,595.276)" d="M290.4 65.356H310.17C310.35 65.356 310.53 65.416 310.71 65.506 310.86 65.596 310.98 65.746 311.07 65.896L317.25 76.606 311.07 87.316C310.98 87.466 310.86 87.586 310.71 87.676 310.53 87.766 310.35 87.826 310.17 87.826H290.4C290.25 87.826 290.13 87.796 290.01 87.736 289.89 87.706 289.77 87.616 289.65 87.526 289.56 87.406 289.47 87.286 289.41 87.166 289.38 87.046 289.35 86.896 289.35 86.776V66.406C289.35 66.136 289.47 65.866 289.65 65.656 289.86 65.476 290.1 65.356 290.4 65.356Z" fill="#ffffff" fill-rule="evenodd"/><path transform="matrix(1,0,0,-1,0,595.276)" d="M291.45 86.476H304.41V66.706H291.45Z" fill="#0000ff" fill-rule="evenodd"/><path transform="matrix(.03,0,0,.03,0,0)" stroke-width="5" stroke-linecap="round" stroke-linejoin="round" fill="none" stroke="#ffffff" d="M10003 17528H10004"/><path transform="matrix(1,0,0,-1,0,595.276)" d="M301.29 69.436C301.35 69.376 301.38 69.256 301.41 69.166 301.44 69.076 301.44 68.956 301.44 68.866 301.41 69.016 301.35 69.166 301.23 69.316 301.08 69.436 300.93 69.526 300.78 69.526 300.6 69.556 300.45 69.526 300.27 69.436 300.21 69.406 300.12 69.346 300.09 69.286 300.03 69.226 299.97 69.136 299.94 69.076 299.94 69.136 299.97 69.196 300 69.256 300.03 69.346 300.06 69.376 300.09 69.436H296.73V68.746H295.41C295.41 68.866 295.41 68.956 295.35 69.046 295.32 69.136 295.26 69.226 295.2 69.316 295.02 69.466 294.81 69.556 294.63 69.556 294.45 69.556 294.24 69.466 294.09 69.316 293.91 69.166 293.85 68.956 293.85 68.746H293.16V70.096C293.16 70.216 293.19 70.336 293.28 70.426L294.63 72.436H293.76V73.516H302.52V70.366H296.73V70.216H302.7V69.436H301.29ZM294.57 72.166 293.76 70.996C293.73 70.966 293.73 70.936 293.73 70.906 293.73 70.876 293.73 70.846 293.76 70.816 293.79 70.756 293.85 70.726 293.91 70.726H295.38V72.166H294.57Z" fill="#ffffff" fill-rule="evenodd"/><path transform="matrix(1,0,0,-1,0,595.276)" d="M296.73 68.746V68.746Z" fill="#ffffff" fill-rule="evenodd"/><path transform="matrix(1,0,0,-1,0,595.276)" d="M301.35 68.746C301.35 69.136 301.05 69.436 300.66 69.436 300.27 69.436 299.97 69.136 299.97 68.746 299.97 68.386 300.27 68.086 300.66 68.086 301.05 68.086 301.35 68.386 301.35 68.746ZM300.99 68.746C300.99 68.566 300.84 68.416 300.66 68.416 300.48 68.416 300.33 68.566 300.33 68.746 300.33 68.956 300.48 69.106 300.66 69.106 300.84 69.106 300.99 68.956 300.99 68.746Z" fill="#ffffff" fill-rule="evenodd"/><path transform="matrix(1,0,0,-1,0,595.276)" d="M296.91 68.836H298.62V69.346H296.91Z" fill="#ffffff" fill-rule="evenodd"/><path transform="matrix(1,0,0,-1,0,595.276)" d="M295.32 68.746C295.32 69.136 295.02 69.436 294.63 69.436 294.24 69.436 293.94 69.136 293.94 68.746 293.94 68.386 294.24 68.086 294.63 68.086 295.02 68.086 295.32 68.386 295.32 68.746ZM294.96 68.746C294.96 68.566 294.81 68.416 294.63 68.416 294.45 68.416 294.3 68.566 294.3 68.746 294.3 68.956 294.45 69.106 294.63 69.106 294.81 69.106 294.96 68.956 294.96 68.746Z" fill="#ffffff" fill-rule="evenodd"/><path transform="matrix(1,0,0,-1,0,595.276)" d="M296.31 78.976H298.95C299.31 78.976 299.7 79.036 300.09 79.186 300.48 79.336 300.81 79.576 301.14 79.876 301.44 80.176 301.65 80.536 301.8 80.926 301.95 81.286 302.01 81.676 302.01 82.036 302.01 82.846 301.71 83.626 301.14 84.226 300.54 84.796 299.76 85.126 298.95 85.126H293.85V74.896H296.31V78.976ZM296.31 80.626V83.476H298.35C298.65 83.476 298.95 83.356 299.22 83.116 299.46 82.876 299.58 82.546 299.58 82.246V81.856C299.58 81.556 299.46 81.226 299.22 80.986 298.95 80.716 298.65 80.626 298.35 80.626H296.31Z" fill="#ffffff" fill-rule="evenodd"/><path transform="matrix(1,0,0,-1,0,595.276)" d="M305.46 86.776H308.97L314.88 76.606 308.97 66.406H305.46L311.34 76.606Z" fill-rule="evenodd"/></g></svg>