<?xml version='1.0' encoding='UTF-8'?>
<svg width="401.75" height="261.65" viewBox="83.68 6.19 401.75 261.65" xmlns="http://www.w3.org/2000/svg" xmlns:xlink="http://www.w3.org/1999/xlink" xmlns:inkscape="http://www.inkscape.org/namespaces/inkscape" version="1.1"><g transform="scale(10.0) translate(-493.095, -20.304)"><defs><clipPath id="clip_14"><path transform="matrix(1,0,0,-1,0,595.276)" d="M19.8 .046H822.06V595.276H19.8Z"/></clipPath></defs><path transform="matrix(1,0,0,-1,0,595.276)" d="M502.71 550.216V572.326C502.71 572.506 502.77 572.716 502.95 572.866 503.1 573.016 503.31 573.106 503.49 573.106H539.61C539.79 573.106 540 573.016 540.15 572.866 540.33 572.716 540.39 572.506 540.39 572.326V550.216C540.39 550.126 540.39 550.036 540.33 549.916 540.3 549.826 540.24 549.736 540.15 549.676 540.09 549.586 540 549.526 539.91 549.496 539.79 549.466 539.7 549.436 539.61 549.436H503.49C503.4 549.436 503.31 549.466 503.19 549.496 503.1 549.526 503.01 549.586 502.95 549.676 502.86 549.736 502.8 549.826 502.77 549.916 502.71 550.036 502.71 550.126 502.71 550.216Z" fill-rule="evenodd"/><path transform="matrix(1,0,0,-1,0,595.276)" d="M504.06 563.116V561.016L505.47 562.426V556.816H506.85V562.426L508.26 561.016V563.116L506.16 565.216Z" fill="#ffffff" fill-rule="evenodd"/><path transform="matrix(1,0,0,-1,0,595.276)" d="M513.06 558.136H515.01V558.586H513.54V559.396H514.8V559.846H513.54V560.596H514.92V561.076H513.06Z" fill="#ffffff" fill-rule="evenodd"/><path transform="matrix(1,0,0,-1,0,595.276)" d="M519.09 560.626V558.136H519.6V560.626H520.41V561.076H518.28V560.626Z" fill="#ffffff" fill-rule="evenodd"/><path transform="matrix(1,0,0,-1,0,595.276)" d="M521.01 558.136H521.52V561.076H521.01Z" fill="#ffffff" fill-rule="evenodd"/><path transform="matrix(1,0,0,-1,0,595.276)" d="M522.54 558.136H523.05V560.266L524.49 558.136H525.06V561.076H524.58V558.916L523.14 561.076H522.54Z" fill="#ffffff" fill-rule="evenodd"/><path transform="matrix(1,0,0,-1,0,595.276)" d="M529.32 558.136H529.83V560.626H530.64V561.076H528.51V560.626H529.32Z" fill="#ffffff" fill-rule="evenodd"/><path transform="matrix(1,0,0,-1,0,595.276)" d="M531.24 558.136H531.75V561.076H531.24Z" fill="#ffffff" fill-rule="evenodd"/><path transform="matrix(1,0,0,-1,0,595.276)" d="M536.04 561.076V558.136H536.55V560.266L537.99 558.136H538.56V561.076H538.08V558.916L536.64 561.076Z" fill="#ffffff" fill-rule="evenodd"/><path transform="matrix(1,0,0,-1,0,595.276)" d="M527.7 554.176H528.36V552.256L527.61 551.986 527.67 551.836 527.73 551.716 527.79 551.686H527.82L527.88 551.806 529.38 552.346V552.616L528.69 552.376V554.176H529.35V554.446H528.69V555.496L528.81 555.586 528.84 555.646 528.78 555.706 528.6 555.736H528.36V554.446H527.7Z" fill="#ffffff" fill-rule="evenodd"/><path transform="matrix(1,0,0,-1,0,595.276)" d="M524.52 553.696 525 552.586 525.3 552.736 524.79 553.786Z" fill="#ffffff" fill-rule="evenodd"/><path transform="matrix(1,0,0,-1,0,595.276)" d="M526.05 554.686 525.96 552.886 525.9 552.406 525.84 552.046 525.72 551.806 525.57 551.686H524.97L524.82 551.656 524.79 551.596 524.85 551.386 524.91 551.326H524.94 525.66L525.9 551.446 526.08 551.716 526.2 552.046 526.29 552.496 526.38 554.956 526.35 554.986H524.94L525.15 555.676 525.21 555.706 525.27 555.766V555.796L525.21 555.826 525 555.916 524.88 555.976 524.73 555.436 524.55 554.986 524.34 554.596 524.13 554.296V554.236L524.31 554.146 524.37 554.116 524.46 554.146 524.79 554.716H526.02Z" fill="#ffffff" fill-rule="evenodd"/><path transform="matrix(1,0,0,-1,0,595.276)" d="M530.1 554.116V555.226L530.19 555.286 530.22 555.346 530.16 555.376H530.04L529.8 555.406V553.996L529.23 553.816 529.35 553.546 529.8 553.726V551.746L529.86 551.596 529.95 551.476 530.07 551.386 530.25 551.356H531.75L531.93 551.386 532.08 551.446 532.2 551.536 532.29 551.686 532.41 552.166V552.256L532.17 552.376 532.11 552.346 531.96 551.806 531.87 551.686 531.66 551.626H530.28L530.16 551.746 530.1 551.926V553.846L530.85 554.086V552.346H531.18V554.236L531.93 554.476 531.81 553.186 531.75 553.066 531.66 553.006H531.27L531.24 552.946 531.3 552.736 531.36 552.706H531.81L531.99 552.826 532.11 553.066 532.26 554.776 532.17 554.806 532.05 554.836 531.18 554.506V555.736L531.27 555.766 531.33 555.826V555.856L531.24 555.886 530.85 555.946V554.386Z" fill="#ffffff" fill-rule="evenodd"/><path transform="matrix(1,0,0,-1,0,595.276)" d="M512.52 563.236 513.21 562.996 514.11 562.846 514.98 562.816 515.82 562.846 516.63 562.966 517.38 563.056 518.07 563.176 518.7 563.236H519.3L519.9 563.176 520.5 563.116 521.1 562.996 521.76 562.906 522.42 562.786 523.11 562.726 523.83 562.696 524.58 562.726 525.3 562.786 526.05 562.906 526.74 562.996 527.46 563.116 528.15 563.176 528.84 563.236H529.5L530.19 563.176 530.94 563.086 531.72 562.966 532.56 562.876H533.43L534.36 562.936 535.32 563.176 535.95 563.446 535.83 563.746 535.17 563.446 534.3 563.236 533.43 563.176H532.59L531.78 563.266 531 563.386 530.25 563.476 529.53 563.536H528.81L528.12 563.476 527.4 563.416 526.68 563.296 525.99 563.206 525.27 563.086 524.55 563.026 523.83 562.996 523.14 563.026 522.45 563.086 521.82 563.206 521.16 563.296 520.56 563.416 519.93 563.476 519.3 563.536H518.7L518.04 563.476 517.32 563.386 516.57 563.266 515.79 563.176 514.98 563.116 514.14 563.146 513.3 563.296 512.64 563.536Z" fill="#ffffff" fill-rule="evenodd"/><path transform="matrix(1,0,0,-1,0,595.276)" d="M514.47 564.136H514.26L513.54 564.256 512.79 564.526 512.7 564.256 513.45 564.016 514.23 563.866 514.98 563.836 515.73 563.896 516.48 563.986 517.23 564.076 517.95 564.196 518.67 564.256H519.33L519.99 564.196 520.65 564.136 521.28 564.016 521.91 563.926 522.54 563.806 523.2 563.746 523.83 563.716 524.52 563.746 525.18 563.806 525.9 563.926 526.59 564.016 527.31 564.136 528.06 564.196 528.81 564.256H529.56L530.31 564.196 531.09 564.076 531.84 563.986 532.62 563.926 533.4 563.896 534.18 563.956 534.99 564.136 535.77 564.466 535.65 564.706 534.9 564.406 534.18 564.226 534.66 565.396H533.73L532.83 570.436H530.25L530.04 569.686H525.78L525.54 571.276H522.9L522.75 569.686H518.43L518.04 570.406H515.55L514.71 565.396H513.96L514.47 564.136 514.5 564.106 514.47 564.136ZM523.89 566.356V567.046H526.32V566.356H523.89ZM519.39 565.396V565.396ZM519.39 565.396H517.32C517.35 565.426 517.41 565.456 517.44 565.486 517.5 565.516 517.53 565.546 517.56 565.606L519.12 565.576C519.15 565.546 519.21 565.516 519.24 565.486 519.3 565.426 519.33 565.426 519.39 565.396ZM517.56 565.606V565.606ZM517.05 565.396V565.396ZM517.05 565.396H516.24V568.456H520.8V565.396H519.66C519.75 565.426 519.84 565.486 519.87 565.546H520.5L520.32 566.026 519.69 566.086 519.36 566.866H517.83L517.59 566.176 516.63 566.056 516.54 565.666H516.75C516.78 565.606 516.81 565.546 516.87 565.486 516.93 565.456 516.99 565.426 517.05 565.396ZM519.66 565.396V565.396ZM525.09 565.396V565.396ZM525.09 565.396H523.17C523.23 565.426 523.26 565.486 523.29 565.546 523.35 565.606 523.35 565.696 523.35 565.756H524.91C524.91 565.696 524.91 565.606 524.94 565.546 524.97 565.486 525.03 565.426 525.09 565.396ZM523.35 565.756V565.756ZM522.51 565.756V565.756ZM522.51 565.756C522.51 565.696 522.54 565.606 522.57 565.546 522.6 565.486 522.66 565.426 522.69 565.396H521.31V568.456H526.98V565.396H525.54C525.63 565.486 525.72 565.606 525.72 565.726H526.44V567.256H523.2L522.93 566.416 522.15 566.266 522.03 565.756H522.51ZM530.73 565.396V565.396ZM530.73 565.396H528.69C528.72 565.426 528.75 565.456 528.78 565.486 528.81 565.546 528.84 565.576 528.84 565.606H530.58C530.61 565.516 530.67 565.456 530.73 565.396ZM528.69 565.396V565.396ZM531.15 565.396V565.396ZM531.15 565.396C531.18 565.426 531.21 565.456 531.21 565.486 531.24 565.516 531.27 565.546 531.27 565.576H531.78L531.66 565.936 530.94 566.026 530.79 566.596 529.08 566.776 528.84 566.176 528 566.056 527.94 565.636H528.12C528.12 565.546 528.18 565.456 528.24 565.396H527.52V568.456H532.26V565.396H531.15ZM528.24 565.396V565.396Z" fill="#ffffff" fill-rule="evenodd"/><path transform="matrix(1,0,0,-1,0,595.276)" d="M525.75 558.136H526.2L526.38 558.646H527.64L527.82 558.136H528.27L527.31 561.076H526.68L525.75 558.136ZM527.01 560.536 527.49 559.066H526.53L527.01 560.536Z" fill="#ffffff" fill-rule="evenodd"/><path transform="matrix(1,0,0,-1,0,595.276)" d="M509.82 561.076V558.136H510.93C511.08 558.136 511.26 558.166 511.41 558.226 511.56 558.286 511.71 558.406 511.86 558.556 512.1 558.856 512.22 559.246 512.22 559.606 512.22 559.966 512.1 560.326 511.86 560.626 511.59 560.926 511.26 561.076 510.93 561.076H509.82ZM510.93 560.626C511.02 560.626 511.14 560.596 511.23 560.566 511.32 560.506 511.41 560.416 511.5 560.326 511.65 560.116 511.71 559.846 511.71 559.606 511.71 559.336 511.65 559.066 511.5 558.856 511.32 558.646 511.14 558.556 510.93 558.556H510.33V560.626H510.93Z" fill="#ffffff" fill-rule="evenodd"/><path transform="matrix(1,0,0,-1,0,595.276)" d="M520.14 551.416V555.886H516.78V551.416H517.11V551.746H519.81V551.416H520.14ZM517.11 554.656V555.616H519.81V554.656H517.11ZM517.11 553.096H519.81V552.016H517.11V553.096ZM517.11 554.386H519.81V553.336H517.11V554.386Z" fill="#ffffff" fill-rule="evenodd"/><path transform="matrix(1,0,0,-1,0,595.276)" d="M523.02 555.016 523.26 555.766 523.35 555.796 523.38 555.826 523.35 555.856 523.29 555.916 523.02 555.976 522.99 555.946 522.66 555.016 522.6 554.986H522.12L522.06 554.956V551.356L522.12 551.326H522.36L522.39 551.356V551.746L522.42 551.776H523.5L523.53 551.746V551.476L523.56 551.446H523.8L523.86 551.476V554.956L523.8 554.986H523.02V555.016ZM522.42 554.716H523.5L523.53 554.686V553.576L523.5 553.546H522.42L522.39 553.576V554.686L522.42 554.716ZM522.42 552.046 522.39 552.076V553.246L522.42 553.276H523.5L523.53 553.246V552.076L523.5 552.046H522.42Z" fill="#ffffff" fill-rule="evenodd"/><path transform="matrix(1,0,0,-1,0,595.276)" d="M517.83 560.626C517.47 560.956 517.14 561.106 516.75 561.106 516.48 561.106 516.18 561.046 515.97 560.866 515.79 560.716 515.7 560.476 515.7 560.236 515.7 559.996 515.79 559.756 515.97 559.636 516.03 559.576 516.12 559.546 516.21 559.516 516.36 559.456 516.54 559.426 516.75 559.396 516.99 559.366 517.23 559.336 517.32 559.156 517.41 559.036 517.41 558.886 517.35 558.766 517.29 558.556 517.05 558.526 516.81 558.556 516.51 558.556 516.21 558.646 515.97 558.946L515.58 558.616C515.7 558.496 515.82 558.406 515.94 558.346 516.18 558.196 516.48 558.076 516.78 558.076 517.08 558.076 517.41 558.166 517.62 558.346 517.71 558.436 517.77 558.526 517.8 558.616 517.83 558.676 517.86 558.706 517.86 558.766 517.86 558.796 517.89 558.826 517.89 558.856 517.89 558.886 517.89 558.886 517.89 558.916V558.946 558.976 558.946C517.89 559.006 517.89 559.036 517.89 559.066 517.89 559.096 517.89 559.126 517.89 559.186 517.83 559.336 517.77 559.486 517.65 559.606 517.59 559.636 517.5 559.696 517.44 559.726 517.38 559.756 517.29 559.756 517.23 559.786L516.54 559.906C516.48 559.936 516.45 559.936 516.39 559.966 516.3 560.026 516.21 560.116 516.21 560.236 516.18 560.356 516.27 560.476 516.36 560.566 516.48 560.656 516.57 560.656 516.69 560.656 516.93 560.626 517.23 560.536 517.44 560.326L517.83 560.626Z" fill="#ffffff" fill-rule="evenodd"/><path transform="matrix(1,0,0,-1,0,595.276)" d="M533.91 561.166C533.58 561.166 533.22 561.016 532.95 560.686 532.68 560.386 532.56 559.966 532.56 559.606 532.56 559.216 532.68 558.826 532.95 558.496 533.22 558.166 533.58 558.046 533.91 558.046 534.24 558.046 534.57 558.166 534.87 558.496 535.14 558.796 535.26 559.216 535.26 559.606 535.26 559.786 535.23 559.966 535.14 560.176 535.08 560.356 534.99 560.536 534.87 560.686 534.57 561.016 534.24 561.166 533.91 561.166ZM533.91 560.686C534.12 560.686 534.33 560.566 534.51 560.356 534.66 560.176 534.75 559.876 534.75 559.606 534.75 559.306 534.66 559.036 534.51 558.826 534.33 558.616 534.12 558.496 533.91 558.496 533.67 558.496 533.46 558.616 533.31 558.826 533.16 559.036 533.07 559.306 533.07 559.606 533.07 559.876 533.16 560.176 533.31 560.356 533.46 560.566 533.67 560.686 533.91 560.686Z" fill="#ffffff" fill-rule="evenodd"/><path transform="matrix(.03,0,0,.03,0,0)" stroke-width="5" stroke-linecap="round" stroke-linejoin="round" fill="none" stroke="#000000" d="M16731 765V1502C16731 1516 16736 1529 16746 1539 16756 1549 16769 1554 16783 1554H17987C18001 1554 18014 1549 18024 1539 18034 1529 18039 1516 18039 1502V765C18039 751 18034 738 18024 728 18014 719 18001 713 17987 713H16783C16769 713 16756 719 16746 728 16736 738 16731 751 16731 765"/></g></svg>