<?xml version='1.0' encoding='UTF-8'?>
<svg width="302.60" height="255.50" viewBox="133.25 9.08 302.60 255.50" xmlns="http://www.w3.org/2000/svg" xmlns:xlink="http://www.w3.org/1999/xlink" xmlns:inkscape="http://www.inkscape.org/namespaces/inkscape" version="1.1"><g transform="scale(10.0) translate(-493.095, -451.152)"><defs><clipPath id="clip_14"><path transform="matrix(1,0,0,-1,0,595.276)" d="M19.8 .046H822.06V595.276H19.8Z"/></clipPath></defs><path transform="matrix(1,0,0,-1,0,595.276)" d="M534.51 142.846H508.59C508.38 142.846 508.14 142.816 507.93 142.726 507.69 142.636 507.48 142.486 507.3 142.336 507.15 142.156 507 141.946 506.91 141.706 506.82 141.496 506.79 141.256 506.79 141.046V119.836C506.79 119.626 506.82 119.416 506.91 119.176 507 118.966 507.15 118.756 507.3 118.576 507.48 118.396 507.69 118.276 507.93 118.186 508.14 118.096 508.38 118.036 508.59 118.036H534.51C534.72 118.036 534.96 118.096 535.17 118.186 535.41 118.276 535.62 118.396 535.8 118.576 535.95 118.756 536.1 118.966 536.19 119.176 536.28 119.416 536.31 119.626 536.31 119.836V141.046C536.31 141.256 536.28 141.496 536.19 141.706 536.1 141.946 535.95 142.156 535.8 142.336 535.62 142.486 535.41 142.636 535.17 142.726 534.96 142.816 534.72 142.846 534.51 142.846Z" fill="#ffffff" fill-rule="evenodd"/><path transform="matrix(1,0,0,-1,0,595.276)" d="M508.59 141.946H534.51C534.72 141.946 534.96 141.856 535.14 141.676 535.32 141.496 535.41 141.256 535.41 141.046V119.836C535.41 119.746 535.41 119.626 535.35 119.506 535.32 119.386 535.23 119.296 535.14 119.206 535.05 119.116 534.96 119.056 534.84 118.996 534.75 118.966 534.63 118.936 534.51 118.936H508.59C508.35 118.936 508.14 119.026 507.96 119.206 507.75 119.386 507.69 119.626 507.69 119.836V141.046C507.69 141.286 507.78 141.526 507.96 141.676 508.11 141.856 508.35 141.946 508.59 141.946Z" fill="#0000ff" fill-rule="evenodd"/><path transform="matrix(1,0,0,-1,0,595.276)" d="M514.05 132.016H511.65V131.536H512.58V128.716H513.15V131.536H514.05Z" fill="#ffffff" fill-rule="evenodd"/><path transform="matrix(1,0,0,-1,0,595.276)" d="M517.05 129.166V132.016H517.59V129.256C517.59 129.226 517.59 129.196 517.62 129.166 517.65 129.136 517.68 129.136 517.71 129.136 517.77 129.136 517.83 129.136 517.89 129.136 517.95 129.166 518.01 129.166 518.07 129.166L518.1 128.716C517.98 128.686 517.89 128.686 517.77 128.686 517.65 128.686 517.56 128.686 517.44 128.686 517.35 128.716 517.23 128.776 517.17 128.866 517.08 128.956 517.05 129.076 517.05 129.166Z" fill="#ffffff" fill-rule="evenodd"/><path transform="matrix(.03,0,0,.03,0,0)" stroke-width="5" stroke-linecap="round" stroke-linejoin="round" fill="none" stroke="#ffffff" d="M17301 15534H17302"/><path transform="matrix(1,0,0,-1,0,595.276)" d="M519.03 129.256V129.256C519.03 129.226 519.06 129.196 519.09 129.166 519.12 129.136 519.15 129.136 519.18 129.136 519.24 129.136 519.3 129.136 519.36 129.136 519.42 129.166 519.48 129.166 519.51 129.166L519.57 128.716C519.36 128.686 519.12 128.686 518.91 128.686 518.82 128.716 518.7 128.776 518.64 128.866 518.55 128.956 518.52 129.076 518.52 129.166V132.016H519.03V129.256Z" fill="#ffffff" fill-rule="evenodd"/><path transform="matrix(1,0,0,-1,0,595.276)" d="M514.11 129.916C514.11 129.616 514.2 129.286 514.44 129.046 514.68 128.806 514.98 128.686 515.28 128.686 515.55 128.686 515.88 128.806 516.12 129.046 516.36 129.286 516.45 129.616 516.45 129.916 516.45 130.186 516.36 130.516 516.12 130.756 515.88 130.996 515.55 131.116 515.28 131.116 514.98 131.116 514.68 130.996 514.44 130.756 514.2 130.516 514.11 130.186 514.11 129.916ZM515.28 130.636C515.43 130.636 515.58 130.576 515.73 130.426 515.85 130.276 515.91 130.066 515.88 129.916 515.91 129.736 515.85 129.556 515.73 129.406 515.58 129.256 515.43 129.166 515.28 129.166 515.13 129.166 514.95 129.256 514.83 129.406 514.71 129.556 514.65 129.736 514.65 129.916 514.65 130.066 514.71 130.276 514.83 130.426 514.95 130.576 515.13 130.636 515.28 130.636Z" fill="#ffffff" fill-rule="evenodd"/><path transform="matrix(.03,0,0,.03,0,0)" stroke-width="5" stroke-linecap="round" stroke-linejoin="round" fill="none" stroke="#ffffff" d="M17497 15631H17498"/><path transform="matrix(1,0,0,-1,0,595.276)" d="M524.91 126.346V126.346L524.61 126.316C524.4 126.286 524.19 126.256 524.01 126.226H523.92C523.95 125.836 524.1 125.446 524.37 125.116 524.67 124.786 525.03 124.576 525.42 124.486V123.886H525.96V124.516C526.41 124.576 526.83 124.756 527.1 125.086 527.4 125.386 527.58 125.776 527.58 126.196 527.58 126.586 527.43 126.976 527.1 127.306 526.8 127.666 526.38 127.846 525.96 127.906V129.316C526.08 129.256 526.2 129.196 526.29 129.076 526.38 128.956 526.44 128.836 526.5 128.686L527.46 128.806C527.25 129.556 526.68 130.096 525.96 130.216V130.606H525.42V130.216C525 130.126 524.67 129.916 524.4 129.616 524.16 129.346 524.01 128.986 524.01 128.626 524.01 128.266 524.16 127.906 524.4 127.606 524.67 127.306 525.03 127.096 525.42 127.006V125.506C525.09 125.686 524.91 125.986 524.91 126.346ZM525.42 128.086C525.18 128.146 525 128.416 525 128.686 525 128.836 525.03 128.986 525.12 129.106 525.18 129.226 525.3 129.286 525.42 129.316V128.086ZM525.96 126.856C526.11 126.856 526.29 126.796 526.41 126.646 526.53 126.526 526.59 126.316 526.59 126.166 526.59 125.986 526.53 125.806 526.41 125.656 526.35 125.596 526.26 125.536 526.2 125.506 526.11 125.476 526.05 125.446 525.96 125.446V126.856Z" fill="#ffffff" fill-rule="evenodd"/><path transform="matrix(1,0,0,-1,0,595.276)" d="M531.09 123.946C531.36 123.946 531.63 124.006 531.93 124.126 532.2 124.246 532.47 124.426 532.68 124.666 532.92 124.906 533.1 125.176 533.19 125.476 533.31 125.776 533.37 126.076 533.34 126.376 533.34 127.006 533.1 127.606 532.68 128.056 532.26 128.536 531.66 128.776 531.06 128.776 530.58 128.776 530.16 128.566 529.83 128.206 529.83 128.596 529.95 128.956 530.19 129.226 530.4 129.526 530.73 129.676 531.06 129.706 531.3 129.706 531.57 129.676 531.78 129.586 532.02 129.526 532.17 129.406 532.23 129.316L533.16 129.616C533.01 129.946 532.74 130.216 532.35 130.396 531.96 130.576 531.51 130.696 531.06 130.666 530.85 130.696 530.64 130.666 530.43 130.606 530.22 130.546 530.01 130.426 529.83 130.306 529.5 130.096 529.23 129.706 529.05 129.166 528.84 128.626 528.75 128.026 528.75 127.366 528.75 126.706 528.81 126.076 528.96 125.506 529.08 125.056 529.32 124.666 529.65 124.426 529.83 124.276 530.07 124.156 530.31 124.066 530.58 123.976 530.82 123.946 531.09 123.946ZM532.23 126.406V126.406ZM532.23 126.406V126.376 126.406ZM532.23 126.376V126.376ZM532.23 126.376C532.23 126.046 532.11 125.686 531.9 125.416 531.66 125.116 531.39 124.996 531.09 124.996 530.79 124.996 530.52 125.146 530.28 125.386 530.07 125.656 529.95 126.016 529.95 126.406 529.95 126.736 530.04 127.096 530.28 127.396 530.52 127.666 530.82 127.786 531.09 127.786 531.39 127.786 531.69 127.666 531.9 127.366 532.02 127.216 532.11 127.066 532.14 126.916 532.2 126.736 532.23 126.556 532.23 126.406V126.376ZM532.23 126.406V126.406 126.436 126.406Z" fill="#ffffff" fill-rule="evenodd"/><path transform="matrix(1,0,0,-1,0,595.276)" d="M517.29 132.886H525.81V137.986L523.5 140.536H519.6L517.29 137.986V132.886ZM519 134.236V134.236L518.67 135.676C518.55 136.066 518.55 136.486 518.64 136.936 518.73 137.386 518.91 137.836 519.21 138.196 519.51 138.586 519.9 138.886 520.32 139.066 520.74 139.276 521.16 139.336 521.55 139.336 521.94 139.336 522.36 139.276 522.78 139.066 523.2 138.886 523.59 138.586 523.89 138.196 524.19 137.836 524.37 137.386 524.46 136.936 524.55 136.486 524.52 136.066 524.43 135.676L524.1 134.236H519Z" fill="#ffffff" fill-rule="evenodd"/><path transform="matrix(1,0,0,-1,0,595.276)" d="M509.85 122.746 509.97 122.326 510 122.236 510.06 122.176 510.15 122.206 510.21 122.296 511.32 122.566V121.216H511.86V122.716L512.37 122.866V123.316L511.86 123.196V125.896L511.92 125.956V126.016L511.86 126.046 511.74 126.076 511.32 126.106V123.076L510.78 122.956V125.266L510.87 125.326V125.416L510.81 125.446 510.66 125.476 510.27 125.506V122.866Z" fill="#ffffff" fill-rule="evenodd"/><path transform="matrix(1,0,0,-1,0,595.276)" d="M511.92 124.006 512.31 123.646 512.7 124.216 512.97 124.786H513.99L513.93 124.126 513.87 123.586 513.75 123.106 513.6 122.746 513.42 123.076 513.27 123.406 513.18 123.766 513.15 124.126 512.67 124.096 512.73 123.616 512.85 123.166 513.03 122.716 513.27 122.326 513.03 122.146 512.76 121.966 512.46 121.846 512.13 121.756 512.46 121.246 513.18 121.576 513.6 121.906 514.02 121.546 514.47 121.216 514.89 121.636 514.38 121.966 513.96 122.326 514.2 122.866 514.38 123.436 514.47 124.066V124.786H514.8V125.266H513.09L513.24 125.836 513.36 125.896 513.39 125.956 513.33 126.016 513.18 126.076 512.79 126.136 512.67 125.446 512.46 124.876 512.22 124.396Z" fill="#ffffff" fill-rule="evenodd"/><path transform="matrix(1,0,0,-1,0,595.276)" d="M516.72 125.806V125.476H517.98V125.206H516.93L516.6 124.126H517.11V124.216H517.44L517.05 123.946 516.6 123.736 517.08 123.436 517.32 123.586V121.846H517.86L516.69 121.516 517.08 121.156 517.83 121.336 518.49 121.606 518.19 121.846H519.42L519.21 121.636 519.96 121.366 520.71 121.186 521.13 121.576 520.35 121.666 519.69 121.846H520.38V123.586L520.56 123.256 520.74 123.286 520.89 123.346 521.01 123.436 521.13 123.586 521.25 124.066 521.28 124.606H519.66V124.816H520.92V125.806H519.63V126.016L519.69 126.046 519.72 126.106 519.66 126.136 519.57 126.166H519.15V125.806H518.46V125.986L518.55 126.076 518.58 126.136 518.49 126.196H518.34 517.98V125.806H516.72ZM517.74 124.606H517.23L517.29 124.816H517.86L517.74 124.606ZM518.43 125.206V125.476H519.15V125.206H518.43ZM519.12 124.606H518.25L518.34 124.816H519.12V124.606ZM519.63 125.206V125.476H520.41V125.206H519.63ZM517.8 123.406V123.556H519.9V123.406H517.8ZM519.15 123.916H517.77L518.04 124.216H519.15V123.916ZM519.66 123.916 519.63 124.216H520.8L520.74 123.976 520.68 123.826 520.56 123.766 520.38 123.796V123.916H519.66ZM517.8 122.806V123.016H519.87V122.806H517.8ZM517.83 122.236V122.446H519.87V122.236H517.83Z" fill="#ffffff" fill-rule="evenodd"/><path transform="matrix(.03,0,0,.03,0,0)" stroke-width="5" stroke-linecap="round" stroke-linejoin="round" fill="none" stroke="#0000ff" d="M17877 15141V15848C17877 15864 17871 15879 17860 15890 17848 15901 17833 15908 17817 15908H16953C16937 15908 16922 15901 16910 15890 16899 15879 16893 15864 16893 15848V15141C16893 15125 16899 15110 16910 15098 16922 15087 16937 15081 16953 15081H17817C17833 15081 17848 15087 17860 15098 17871 15110 17877 15125 17877 15141"/></g></svg>