<?xml version='1.0' encoding='UTF-8'?>
<svg width="299.54" height="255.44" viewBox="134.18 9.35 299.54 255.44" xmlns="http://www.w3.org/2000/svg" xmlns:xlink="http://www.w3.org/1999/xlink" xmlns:inkscape="http://www.inkscape.org/namespaces/inkscape" version="1.1"><g transform="scale(10.0) translate(-56.655, -101.088)"><defs><clipPath id="clip_14"><path transform="matrix(1,0,0,-1,0,595.276)" d="M19.8 .046H822.06V595.276H19.8Z"/></clipPath></defs><path transform="matrix(1,0,0,-1,0,595.276)" d="M71.79 492.886H98.34C98.49 492.886 98.67 492.856 98.82 492.796 99 492.736 99.15 492.616 99.27 492.496 99.42 492.376 99.51 492.196 99.57 492.046 99.66 491.866 99.66 491.716 99.66 491.536V469.426C99.66 469.096 99.54 468.766 99.27 468.496 99.15 468.346 99 468.256 98.82 468.196 98.67 468.106 98.49 468.076 98.34 468.076H71.79C71.46 468.076 71.1 468.196 70.83 468.496 70.71 468.616 70.62 468.766 70.53 468.946 70.47 469.096 70.44 469.276 70.44 469.426V491.536C70.44 491.866 70.56 492.226 70.83 492.496 71.1 492.766 71.46 492.886 71.79 492.886Z" fill="#ffffff" fill-rule="evenodd"/><path transform="matrix(1,0,0,-1,0,595.276)" d="M71.79 492.226H98.34C98.4 492.226 98.49 492.196 98.58 492.166 98.67 492.136 98.73 492.076 98.79 492.016 98.88 491.956 98.91 491.866 98.94 491.776 99 491.716 99 491.626 99 491.536V469.426C99 469.276 98.94 469.096 98.79 468.946 98.67 468.826 98.49 468.766 98.34 468.766H71.79C71.64 468.766 71.46 468.826 71.31 468.946 71.25 469.036 71.19 469.096 71.16 469.186 71.13 469.276 71.13 469.366 71.13 469.426V491.536C71.13 491.926 71.43 492.226 71.79 492.226Z" fill="#0000ff" fill-rule="evenodd"/><path transform="matrix(1,0,0,-1,0,595.276)" d="M81.84 490.366V490.486H82.2V488.626 488.596 488.566C82.14 488.296 81.84 488.146 81.51 488.116 81.27 488.086 81 488.146 80.76 488.266L80.85 488.596C81.03 488.506 81.24 488.446 81.42 488.446 81.6 488.476 81.75 488.536 81.78 488.656V488.686C81.81 488.716 81.81 488.746 81.81 488.746V488.896 488.926C81.81 488.926 81.78 488.926 81.75 488.896 81.6 488.836 81.45 488.836 81.45 488.836 81.45 488.836 81.27 488.836 81.06 488.956 80.85 489.046 80.67 489.256 80.67 489.676 80.67 490.096 80.85 490.306 81.06 490.396 81.27 490.516 81.45 490.516 81.45 490.516 81.51 490.516 81.6 490.516 81.66 490.486 81.72 490.456 81.78 490.426 81.84 490.366ZM81.45 490.126C81.45 490.126 81.06 490.126 81.06 489.676 81.06 489.226 81.45 489.226 81.45 489.226 81.45 489.226 81.84 489.226 81.84 489.676 81.84 490.126 81.45 490.126 81.45 490.126Z" fill="#ffffff" fill-rule="evenodd"/><path transform="matrix(1,0,0,-1,0,595.276)" d="M78 486.766C78.06 486.856 78.15 486.916 78.27 486.946 78.36 486.976 78.48 486.976 78.57 486.976V486.586C78.42 486.586 78.27 486.556 78.15 486.466 78.12 486.436 78.06 486.406 78.03 486.346 78 486.316 78 486.256 78 486.226V485.176H77.58V486.946H78V486.766Z" fill="#ffffff" fill-rule="evenodd"/><path transform="matrix(1,0,0,-1,0,595.276)" d="M78.78 486.046C78.75 485.836 78.84 485.596 79.02 485.416 79.2 485.206 79.41 485.146 79.65 485.146 79.86 485.146 80.1 485.206 80.28 485.416 80.46 485.596 80.52 485.836 80.52 486.046 80.52 486.256 80.46 486.496 80.28 486.706 80.1 486.886 79.86 486.976 79.65 486.976 79.41 486.976 79.2 486.886 79.02 486.706 78.84 486.496 78.75 486.256 78.78 486.046ZM79.65 486.586C79.77 486.586 79.89 486.556 79.98 486.436 80.07 486.316 80.1 486.166 80.1 486.046 80.1 485.926 80.07 485.776 79.98 485.656 79.89 485.566 79.77 485.506 79.65 485.506 79.53 485.506 79.41 485.566 79.32 485.656 79.2 485.776 79.17 485.926 79.17 486.046 79.17 486.166 79.2 486.316 79.32 486.436 79.41 486.556 79.53 486.586 79.65 486.586Z" fill="#ffffff" fill-rule="evenodd"/><path transform="matrix(1,0,0,-1,0,595.276)" d="M81.12 486.526 81.3 486.586C81.33 486.616 81.36 486.616 81.42 486.616 81.45 486.646 81.48 486.646 81.51 486.646 81.57 486.646 81.66 486.646 81.75 486.646 81.81 486.646 81.87 486.586 81.9 486.556 81.93 486.526 81.96 486.496 81.96 486.436 81.96 486.406 81.96 486.376 81.96 486.346V486.256H81.69C81.6 486.256 81.54 486.226 81.48 486.226 81.39 486.226 81.33 486.196 81.24 486.166 81.15 486.136 81.06 486.076 81 486.016 80.91 485.926 80.88 485.806 80.88 485.686 80.88 485.566 80.91 485.446 80.97 485.356 81.03 485.296 81.12 485.236 81.21 485.206 81.3 485.146 81.39 485.146 81.48 485.146 81.57 485.116 81.69 485.146 81.78 485.176 81.87 485.206 81.96 485.236 82.02 485.326 82.05 485.266 82.08 485.206 82.14 485.176 82.2 485.146 82.26 485.146 82.32 485.116L82.5 485.386 82.41 485.446C82.38 485.476 82.38 485.476 82.35 485.506 82.35 485.536 82.35 485.566 82.35 485.566V486.136C82.35 486.286 82.35 486.406 82.32 486.526 82.32 486.616 82.29 486.706 82.23 486.766 82.17 486.856 82.08 486.916 81.99 486.946 81.84 486.976 81.72 487.006 81.57 486.976 81.48 486.976 81.39 486.976 81.3 486.946 81.21 486.916 81.15 486.886 81.09 486.856 81.06 486.856 81 486.826 80.94 486.796L81.12 486.526ZM81.48 485.416C81.42 485.446 81.39 485.476 81.33 485.506 81.3 485.536 81.27 485.566 81.27 485.626 81.27 485.656 81.27 485.716 81.3 485.776 81.3 485.806 81.36 485.866 81.39 485.866 81.45 485.896 81.48 485.896 81.54 485.926 81.6 485.926 81.69 485.956 81.75 485.956 81.84 485.956 81.9 485.986 81.96 485.986V485.656C81.96 485.626 81.96 485.596 81.93 485.566 81.93 485.536 81.9 485.536 81.9 485.506 81.84 485.476 81.78 485.446 81.72 485.416 81.66 485.386 81.57 485.386 81.48 485.416Z" fill="#ffffff" fill-rule="evenodd"/><path transform="matrix(1,0,0,-1,0,595.276)" d="M81.12 486.526V486.526Z" fill="#ffffff" fill-rule="evenodd"/><path transform="matrix(1,0,0,-1,0,595.276)" d="M84.06 485.266C83.97 485.206 83.88 485.146 83.79 485.146 83.76 485.146 83.7 485.146 83.67 485.146 83.61 485.116 83.52 485.146 83.46 485.176 83.22 485.236 83.04 485.416 82.95 485.626 82.86 485.926 82.86 486.256 82.98 486.526 82.98 486.556 83.01 486.586 83.01 486.616 83.13 486.796 83.31 486.916 83.52 486.976 83.76 487.006 83.97 486.946 84.12 486.826 84.12 486.796 84.12 486.796 84.15 486.796V486.826 487.636H84.51V485.176H84.12V485.266C84.12 485.266 84.12 485.296 84.09 485.266H84.06ZM83.82 485.506C83.94 485.506 84.03 485.596 84.09 485.686 84.12 485.746 84.12 485.836 84.12 485.896V486.226C84.12 486.316 84.12 486.406 84.06 486.496 84 486.556 83.91 486.616 83.82 486.616H83.79C83.67 486.646 83.58 486.616 83.49 486.556 83.43 486.526 83.4 486.466 83.37 486.406 83.25 486.196 83.25 485.956 83.37 485.716 83.37 485.656 83.43 485.626 83.46 485.566 83.52 485.536 83.58 485.506 83.64 485.506 83.7 485.476 83.76 485.476 83.82 485.506Z" fill="#ffffff" fill-rule="evenodd"/><path transform="matrix(1,0,0,-1,0,595.276)" d="M86.22 486.946 86.49 485.746 86.79 486.946H87 87.21L87.51 485.746 87.78 486.946H88.23L87.75 485.176H87.33L87 486.406 86.7 485.176H86.25L85.8 486.946Z" fill="#ffffff" fill-rule="evenodd"/><path transform="matrix(1,0,0,-1,0,595.276)" d="M89.01 485.176V486.946H88.62V485.176Z" fill="#ffffff" fill-rule="evenodd"/><path transform="matrix(1,0,0,-1,0,595.276)" d="M89.04 487.456C89.04 487.576 88.95 487.666 88.8 487.666 88.68 487.666 88.59 487.576 88.59 487.456 88.59 487.336 88.68 487.216 88.8 487.216 88.95 487.216 89.04 487.336 89.04 487.456Z" fill="#ffffff" fill-rule="evenodd"/><path transform="matrix(1,0,0,-1,0,595.276)" d="M90.18 485.566C90.18 485.536 90.21 485.476 90.27 485.476 90.3 485.476 90.36 485.476 90.42 485.476 90.48 485.476 90.54 485.506 90.57 485.506L90.63 485.176C90.45 485.116 90.21 485.116 90.03 485.176 89.94 485.206 89.88 485.266 89.82 485.326 89.79 485.386 89.76 485.446 89.76 485.506V486.586H89.43V486.946H89.76V487.516L90.18 487.636V486.946H90.63V486.586H90.18V485.566Z" fill="#ffffff" fill-rule="evenodd"/><path transform="matrix(1,0,0,-1,0,595.276)" d="M92.07 486.286V485.176H92.43V486.346 486.376C92.43 486.496 92.4 486.586 92.34 486.706 92.28 486.796 92.16 486.886 92.07 486.946 91.95 486.976 91.83 487.006 91.71 486.976 91.59 486.976 91.47 486.916 91.38 486.826V487.636H91.02V485.176H91.38V486.286C91.38 486.346 91.41 486.436 91.5 486.526 91.56 486.586 91.65 486.616 91.74 486.616 91.8 486.616 91.89 486.586 91.95 486.526 92.01 486.496 92.01 486.436 92.04 486.406 92.07 486.346 92.07 486.316 92.07 486.286Z" fill="#ffffff" fill-rule="evenodd"/><path transform="matrix(.03,0,0,.03,0,0)" stroke-width="5" stroke-linecap="round" stroke-linejoin="round" fill="none" stroke="#ffffff" d="M2454 3729V3731"/><path transform="matrix(1,0,0,-1,0,595.276)" d="M73.68 483.316C73.77 483.376 73.89 483.406 74.04 483.406 74.19 483.406 74.34 483.376 74.46 483.286 74.61 483.196 74.7 483.076 74.76 482.926 74.85 482.776 74.88 482.626 74.88 482.506 74.88 482.356 74.85 482.236 74.79 482.086 74.73 481.936 74.61 481.786 74.49 481.696 74.34 481.606 74.22 481.576 74.07 481.576 73.92 481.576 73.8 481.606 73.68 481.666 73.68 481.666 73.68 481.696 73.65 481.666L73.62 481.636V481.036H73.26V483.406H73.62V483.316H73.65V483.286C73.65 483.286 73.68 483.286 73.68 483.316ZM73.74 482.956C73.68 482.866 73.65 482.776 73.65 482.686V482.656L73.62 482.356 73.65 482.266C73.65 482.176 73.71 482.086 73.77 482.026 73.86 481.966 73.98 481.936 74.1 481.936 74.22 481.966 74.31 482.026 74.37 482.116 74.52 482.356 74.52 482.656 74.34 482.896 74.28 482.986 74.16 483.046 74.04 483.046 73.92 483.046 73.83 483.016 73.74 482.956Z" fill="#ffffff" fill-rule="evenodd"/><path transform="matrix(1,0,0,-1,0,595.276)" d="M75.45 482.956 75.66 483.046C75.69 483.076 75.72 483.076 75.75 483.076 75.78 483.076 75.81 483.106 75.84 483.106 75.93 483.106 76.02 483.106 76.11 483.106 76.17 483.076 76.23 483.046 76.26 483.016 76.29 482.986 76.29 482.956 76.32 482.896 76.32 482.866 76.32 482.836 76.32 482.806L76.29 482.716H76.02C75.96 482.686 75.9 482.686 75.84 482.686 75.75 482.686 75.66 482.656 75.6 482.626 75.48 482.596 75.42 482.536 75.33 482.476 75.27 482.386 75.24 482.266 75.24 482.116 75.24 482.026 75.27 481.906 75.33 481.816 75.39 481.756 75.48 481.696 75.54 481.636 75.63 481.606 75.72 481.606 75.81 481.576 75.93 481.576 76.02 481.576 76.11 481.636 76.23 481.666 76.32 481.696 76.38 481.786 76.41 481.726 76.44 481.666 76.5 481.636 76.56 481.606 76.62 481.606 76.68 481.576L76.86 481.846 76.77 481.906C76.74 481.936 76.71 481.936 76.71 481.966 76.68 481.996 76.68 481.996 76.68 482.026V482.596C76.68 482.716 76.68 482.866 76.68 482.986 76.68 483.076 76.65 483.166 76.59 483.226 76.5 483.316 76.44 483.346 76.32 483.406 76.2 483.436 76.05 483.466 75.93 483.436 75.84 483.436 75.72 483.436 75.63 483.406 75.57 483.376 75.51 483.346 75.45 483.316 75.39 483.286 75.36 483.286 75.3 483.256L75.45 482.956ZM75.81 481.876C75.78 481.906 75.72 481.936 75.69 481.966 75.66 481.996 75.63 482.026 75.63 482.086 75.6 482.116 75.63 482.176 75.63 482.236 75.66 482.266 75.69 482.326 75.75 482.326 75.78 482.356 75.84 482.356 75.9 482.386 75.96 482.386 76.05 482.416 76.11 482.416 76.17 482.416 76.23 482.416 76.32 482.446V482.116C76.32 482.086 76.29 482.056 76.29 482.026 76.29 481.996 76.26 481.996 76.23 481.966 76.2 481.936 76.14 481.906 76.08 481.876 75.99 481.846 75.9 481.846 75.81 481.876Z" fill="#ffffff" fill-rule="evenodd"/><path transform="matrix(1,0,0,-1,0,595.276)" d="M75.45 482.956V482.956Z" fill="#ffffff" fill-rule="evenodd"/><path transform="matrix(1,0,0,-1,0,595.276)" d="M77.73 482.776C77.79 482.746 77.85 482.746 77.91 482.746 77.94 482.746 77.94 482.746 77.97 482.746H78 78.03C78.24 482.716 78.45 482.596 78.57 482.386 78.6 482.296 78.63 482.206 78.63 482.116 78.6 481.996 78.57 481.876 78.48 481.816 78.3 481.666 78.09 481.576 77.85 481.576 77.58 481.576 77.31 481.726 77.13 481.966L77.37 482.236C77.43 482.146 77.49 482.086 77.58 482.026 77.67 481.966 77.76 481.966 77.85 481.966 77.91 481.966 77.94 481.966 78 481.966 78.03 481.966 78.09 481.996 78.12 481.996 78.15 482.026 78.18 482.056 78.21 482.116 78.21 482.146 78.21 482.176 78.18 482.206 78.18 482.236 78.15 482.236 78.15 482.266 78.09 482.326 77.97 482.356 77.85 482.356 77.79 482.386 77.76 482.386 77.7 482.386 77.52 482.446 77.37 482.536 77.28 482.626L77.25 482.656C77.19 482.746 77.19 482.836 77.19 482.926 77.19 483.046 77.25 483.166 77.31 483.226 77.43 483.346 77.58 483.406 77.73 483.436H77.76C78.06 483.466 78.36 483.376 78.6 483.226L78.33 482.926C78.21 483.016 78.06 483.046 77.91 483.076V483.046C77.85 483.046 77.79 483.046 77.76 483.046H77.73C77.7 483.016 77.64 482.986 77.64 482.926 77.64 482.866 77.67 482.806 77.73 482.776Z" fill="#ffffff" fill-rule="evenodd"/><path transform="matrix(1,0,0,-1,0,595.276)" d="M79.47 482.776C79.53 482.746 79.59 482.746 79.65 482.746 79.68 482.746 79.68 482.746 79.71 482.746H79.74 79.77C79.98 482.716 80.19 482.596 80.31 482.386 80.34 482.296 80.37 482.206 80.34 482.116 80.34 481.996 80.28 481.876 80.22 481.816 80.04 481.666 79.83 481.576 79.59 481.576 79.32 481.576 79.02 481.726 78.87 481.966L79.11 482.236C79.17 482.146 79.23 482.086 79.32 482.026 79.41 481.966 79.5 481.966 79.59 481.966 79.65 481.966 79.68 481.966 79.74 481.966 79.77 481.966 79.83 481.996 79.86 481.996 79.89 482.026 79.92 482.056 79.92 482.116 79.95 482.146 79.92 482.176 79.92 482.206 79.92 482.236 79.89 482.236 79.89 482.266 79.83 482.326 79.71 482.356 79.59 482.356 79.53 482.386 79.5 482.386 79.44 482.386 79.26 482.446 79.11 482.536 78.99 482.626V482.656C78.93 482.746 78.93 482.836 78.93 482.926 78.93 483.046 78.99 483.166 79.05 483.226 79.17 483.346 79.32 483.406 79.47 483.436H79.5C79.8 483.466 80.1 483.376 80.31 483.226L80.07 482.926C79.95 483.016 79.8 483.046 79.65 483.076V483.046C79.59 483.046 79.53 483.046 79.47 483.046 79.44 483.016 79.38 482.986 79.38 482.926 79.38 482.866 79.41 482.806 79.47 482.776Z" fill="#ffffff" fill-rule="evenodd"/><path transform="matrix(1,0,0,-1,0,595.276)" d="M81.18 481.636V483.406H80.79V481.636Z" fill="#ffffff" fill-rule="evenodd"/><path transform="matrix(1,0,0,-1,0,595.276)" d="M81.24 483.916C81.24 484.036 81.12 484.126 81 484.126 80.88 484.126 80.76 484.036 80.76 483.916 80.76 483.766 80.88 483.676 81 483.676 81.12 483.676 81.24 483.766 81.24 483.916Z" fill="#ffffff" fill-rule="evenodd"/><path transform="matrix(1,0,0,-1,0,595.276)" d="M82.5 483.046C82.56 483.046 82.65 483.016 82.71 482.986 82.77 482.926 82.8 482.836 82.8 482.776V481.636H83.19V482.836C83.19 482.956 83.16 483.076 83.07 483.166 83.01 483.256 82.92 483.346 82.8 483.376 82.71 483.436 82.59 483.436 82.47 483.406 82.35 483.406 82.23 483.346 82.14 483.256V483.406H81.75V481.636H82.14V482.716C82.14 482.806 82.17 482.896 82.26 482.956 82.32 483.016 82.41 483.046 82.5 483.046Z" fill="#ffffff" fill-rule="evenodd"/><path transform="matrix(1,0,0,-1,0,595.276)" d="M84.81 483.286V483.406H85.2V481.546L85.17 481.516V481.456C85.11 481.216 84.81 481.036 84.48 481.036 84.24 481.006 83.97 481.066 83.73 481.186L83.85 481.516C84 481.426 84.21 481.366 84.39 481.366 84.6 481.396 84.72 481.456 84.75 481.576L84.78 481.606C84.78 481.636 84.78 481.666 84.78 481.666V481.816 481.846C84.78 481.846 84.75 481.846 84.72 481.816 84.57 481.756 84.42 481.756 84.42 481.756 84.42 481.756 84.24 481.756 84.03 481.876 83.85 481.966 83.64 482.176 83.64 482.596 83.64 483.016 83.85 483.226 84.03 483.316 84.24 483.436 84.42 483.436 84.42 483.436 84.51 483.436 84.57 483.406 84.63 483.406 84.69 483.376 84.75 483.346 84.81 483.286ZM84.42 483.046C84.42 483.046 84.03 483.046 84.03 482.596 84.03 482.146 84.42 482.146 84.42 482.146 84.42 482.146 84.81 482.146 84.81 482.596 84.81 483.046 84.42 483.046 84.42 483.046Z" fill="#ffffff" fill-rule="evenodd"/><path transform="matrix(.03,0,0,.03,0,0)" stroke-width="5" stroke-linecap="round" stroke-linejoin="round" fill="none" stroke="#ffffff" d="M2901 3729V3731"/><path transform="matrix(1,0,0,-1,0,595.276)" d="M87.06 483.316C87.18 483.376 87.3 483.406 87.45 483.406 87.57 483.406 87.72 483.376 87.87 483.286 87.99 483.196 88.11 483.076 88.17 482.926 88.23 482.776 88.26 482.626 88.26 482.506 88.26 482.356 88.23 482.236 88.17 482.086 88.11 481.936 88.02 481.786 87.87 481.696 87.75 481.606 87.6 481.576 87.45 481.576 87.3 481.576 87.18 481.606 87.09 481.666 87.06 481.666 87.06 481.696 87.06 481.666 87.03 481.666 87.03 481.666 87.03 481.636V481.036H86.64V483.406H87.03V483.316 483.286C87.03 483.286 87.06 483.286 87.06 483.316ZM87.15 482.956C87.06 482.866 87.03 482.776 87.03 482.686V482.656 482.356 482.266C87.06 482.176 87.09 482.086 87.18 482.026 87.27 481.966 87.36 481.936 87.48 481.936 87.6 481.966 87.69 482.026 87.78 482.116 87.93 482.356 87.9 482.656 87.75 482.896 87.66 482.986 87.54 483.046 87.42 483.046 87.33 483.046 87.21 483.016 87.15 482.956Z" fill="#ffffff" fill-rule="evenodd"/><path transform="matrix(1,0,0,-1,0,595.276)" d="M88.74 481.966V484.096H89.13V482.026C89.13 481.996 89.13 481.966 89.16 481.966 89.19 481.936 89.22 481.936 89.22 481.936 89.28 481.936 89.31 481.936 89.37 481.936 89.4 481.936 89.46 481.966 89.49 481.966L89.52 481.606C89.43 481.606 89.37 481.606 89.28 481.606 89.19 481.576 89.13 481.606 89.04 481.606 88.95 481.606 88.89 481.666 88.83 481.726 88.77 481.786 88.74 481.876 88.74 481.966Z" fill="#ffffff" fill-rule="evenodd"/><path transform="matrix(1,0,0,-1,0,595.276)" d="M89.94 482.956 90.15 483.046C90.18 483.076 90.21 483.076 90.24 483.076 90.27 483.076 90.3 483.106 90.33 483.106 90.42 483.106 90.51 483.106 90.6 483.106 90.66 483.076 90.72 483.046 90.75 483.016 90.78 482.986 90.78 482.956 90.81 482.896 90.81 482.866 90.81 482.836 90.81 482.806L90.78 482.716H90.51C90.45 482.686 90.39 482.686 90.33 482.686 90.24 482.686 90.15 482.656 90.09 482.626 89.97 482.596 89.91 482.536 89.82 482.476 89.76 482.386 89.73 482.266 89.73 482.116 89.73 482.026 89.76 481.906 89.82 481.816 89.88 481.756 89.97 481.696 90.03 481.636 90.12 481.606 90.21 481.606 90.3 481.576 90.42 481.576 90.51 481.576 90.6 481.636 90.72 481.666 90.81 481.696 90.87 481.786 90.9 481.726 90.93 481.666 90.99 481.636 91.05 481.606 91.11 481.606 91.17 481.576L91.35 481.846 91.26 481.906C91.23 481.936 91.2 481.936 91.2 481.966 91.17 481.996 91.17 481.996 91.17 482.026V482.596C91.17 482.716 91.17 482.866 91.17 482.986 91.17 483.076 91.14 483.166 91.08 483.226 90.99 483.316 90.93 483.346 90.81 483.406 90.69 483.436 90.54 483.466 90.42 483.436 90.33 483.436 90.21 483.436 90.12 483.406 90.06 483.376 90 483.346 89.94 483.316 89.88 483.286 89.85 483.286 89.79 483.256L89.94 482.956ZM90.3 481.876C90.27 481.906 90.21 481.936 90.18 481.966 90.15 481.996 90.12 482.026 90.12 482.086 90.09 482.116 90.12 482.176 90.12 482.236 90.15 482.266 90.18 482.326 90.24 482.326 90.27 482.356 90.33 482.356 90.39 482.386 90.45 482.386 90.54 482.416 90.6 482.416 90.66 482.416 90.72 482.416 90.81 482.446V482.116C90.81 482.086 90.78 482.056 90.78 482.026 90.78 481.996 90.75 481.996 90.72 481.966 90.69 481.936 90.63 481.906 90.57 481.876 90.48 481.846 90.39 481.846 90.3 481.876Z" fill="#ffffff" fill-rule="evenodd"/><path transform="matrix(1,0,0,-1,0,595.276)" d="M89.94 482.956V482.956Z" fill="#ffffff" fill-rule="evenodd"/><path transform="matrix(1,0,0,-1,0,595.276)" d="M92.46 481.936C92.52 481.906 92.61 481.906 92.67 481.936 92.73 481.966 92.79 481.996 92.82 482.056 92.88 482.086 92.91 482.146 92.94 482.176L93.27 481.996 93.18 481.906C93.15 481.846 93.12 481.786 93.06 481.756 93 481.726 92.94 481.666 92.91 481.636 92.79 481.606 92.64 481.576 92.52 481.576 92.37 481.576 92.19 481.636 92.07 481.696 91.92 481.816 91.83 481.966 91.77 482.116 91.71 482.296 91.71 482.506 91.71 482.716 91.74 482.866 91.8 483.016 91.92 483.136 92.01 483.226 92.13 483.316 92.25 483.376 92.4 483.436 92.58 483.436 92.73 483.406 92.88 483.376 93.03 483.286 93.15 483.166 93.18 483.136 93.18 483.106 93.21 483.046 93.24 483.016 93.24 482.986 93.27 482.956L92.94 482.776C92.91 482.836 92.85 482.926 92.79 482.986 92.79 483.016 92.76 483.016 92.73 483.046 92.61 483.076 92.46 483.076 92.37 483.016 92.28 482.956 92.19 482.866 92.16 482.776 92.1 482.626 92.07 482.446 92.13 482.296 92.16 482.116 92.28 481.966 92.46 481.936Z" fill="#ffffff" fill-rule="evenodd"/><path transform="matrix(1,0,0,-1,0,595.276)" d="M94.23 481.576C94.44 481.546 94.65 481.576 94.83 481.666 94.92 481.696 95.01 481.756 95.07 481.816L94.83 482.086 94.77 482.056C94.71 481.996 94.59 481.936 94.5 481.936 94.38 481.906 94.23 481.936 94.14 481.996 94.08 482.026 94.02 482.086 93.99 482.176 93.96 482.236 93.96 482.296 93.96 482.386H95.16C95.16 482.536 95.13 482.716 95.1 482.896 95.04 483.046 94.95 483.196 94.83 483.286 94.56 483.466 94.23 483.466 93.96 483.316 93.75 483.166 93.63 482.956 93.57 482.716 93.54 482.476 93.57 482.236 93.66 481.996 93.72 481.906 93.78 481.786 93.9 481.726 93.99 481.636 94.11 481.606 94.23 481.576ZM93.96 482.656C93.96 482.746 93.99 482.836 94.02 482.896 94.05 482.956 94.11 483.016 94.17 483.046 94.29 483.106 94.44 483.106 94.53 483.046 94.62 483.016 94.65 482.986 94.71 482.926 94.74 482.836 94.77 482.746 94.77 482.656H93.96Z" fill="#ffffff" fill-rule="evenodd"/><path transform="matrix(1,0,0,-1,0,595.276)" d="M96 482.776C96.06 482.746 96.15 482.746 96.21 482.746H96.24 96.27 96.3C96.54 482.716 96.75 482.596 96.84 482.386 96.9 482.296 96.9 482.206 96.9 482.116 96.9 481.996 96.84 481.876 96.75 481.816 96.57 481.666 96.36 481.576 96.15 481.576 95.85 481.576 95.58 481.726 95.4 481.966L95.64 482.236C95.7 482.146 95.79 482.086 95.85 482.026 95.94 481.966 96.03 481.966 96.15 481.966 96.18 481.966 96.24 481.966 96.27 481.966 96.33 481.966 96.36 481.996 96.39 481.996 96.42 482.026 96.48 482.056 96.48 482.116 96.48 482.146 96.48 482.176 96.48 482.206 96.45 482.236 96.45 482.236 96.42 482.266 96.36 482.326 96.24 482.356 96.15 482.356 96.09 482.386 96.03 482.386 95.97 482.386 95.79 482.446 95.64 482.536 95.55 482.626V482.656C95.49 482.746 95.46 482.836 95.46 482.926 95.49 483.046 95.52 483.166 95.61 483.226 95.7 483.346 95.85 483.406 96 483.436H96.03 96.06C96.33 483.466 96.66 483.376 96.87 483.226L96.6 482.926C96.48 483.016 96.36 483.046 96.21 483.076V483.046C96.15 483.046 96.09 483.046 96.03 483.046 95.97 483.016 95.94 482.986 95.94 482.926 95.94 482.866 95.97 482.806 96 482.776Z" fill="#ffffff" fill-rule="evenodd"/><path transform="matrix(1,0,0,-1,0,595.276)" d="M73.65 479.566V479.236H74.79V479.566Z" fill="#ffffff" fill-rule="evenodd"/><path transform="matrix(1,0,0,-1,0,595.276)" d="M73.47 479.026V478.726H74.91V479.026Z" fill="#ffffff" fill-rule="evenodd"/><path transform="matrix(1,0,0,-1,0,595.276)" d="M73.62 478.456V478.126H74.79V478.456Z" fill="#ffffff" fill-rule="evenodd"/><path transform="matrix(1,0,0,-1,0,595.276)" d="M73.62 477.946V477.586H74.79V477.946Z" fill="#ffffff" fill-rule="evenodd"/><path transform="matrix(1,0,0,-1,0,595.276)" d="M74.85 477.346H73.59V475.996H73.92V476.236H74.49V476.056H74.85V477.346ZM73.92 476.566V477.016H74.49V476.566H73.92Z" fill="#ffffff" fill-rule="evenodd"/><path transform="matrix(1,0,0,-1,0,595.276)" d="M75.24 479.536V479.146L75.18 478.816 75.09 478.576 74.97 478.426 74.82 478.336 75.12 478.096 75.36 478.366 75.51 478.636 75.6 478.936V479.236H76.08V478.546 478.396L76.14 478.306 76.23 478.246 76.38 478.216H76.83L76.92 478.246 77.01 478.276 77.04 478.366 77.1 478.456 77.16 478.756 76.83 478.876 76.77 478.666 76.74 478.546 76.65 478.516H76.53L76.44 478.576 76.41 478.696V479.536Z" fill="#ffffff" fill-rule="evenodd"/><path transform="matrix(1,0,0,-1,0,595.276)" d="M75.12 477.946V477.586H76.32L76.17 477.196 75.96 476.896 75.69 477.166 75.51 477.496 75.24 477.376 75.45 476.986 75.72 476.686 75.33 476.476 74.91 476.326 75.18 475.996 75.6 476.206 76.02 476.446 76.38 476.206 76.83 476.026 77.04 476.386 76.65 476.506 76.26 476.656 76.56 477.136 76.83 477.766 76.53 478.006 76.47 477.946Z" fill="#ffffff" fill-rule="evenodd"/><path transform="matrix(1,0,0,-1,0,595.276)" d="M78.39 478.786H79.41L79.23 478.486 78.96 478.246 78.66 477.976 78.27 477.766 78.51 477.406 78.87 477.646 79.2 477.916V476.026H79.56V476.716H81.06V476.536L81.03 476.446 81 476.416 80.94 476.386H80.88 80.58L80.73 475.996H80.91L81.15 476.026 81.3 476.116 81.39 476.236 81.42 476.446V478.396H79.62L79.83 478.786H81.93V479.116H79.98L80.13 479.416 80.22 479.446 80.25 479.476 80.22 479.506 80.13 479.566 79.86 479.686 79.62 479.116H78.39V478.786ZM79.56 477.046V477.376H81.06V477.046H79.56ZM79.56 477.706V478.036H81.06V477.706H79.56Z" fill="#ffffff" fill-rule="evenodd"/><path transform="matrix(1,0,0,-1,0,595.276)" d="M85.32 479.506H84.27V478.396L84.24 478.036 84.18 477.706 84.09 477.376 83.97 477.106 84.3 476.896 84.48 477.496V476.566H84.81V476.806H85.08V476.626H85.41V478.006H84.57L84.6 478.336H85.32V479.506ZM84.81 477.136V477.706H85.08V477.136H84.81ZM84.63 478.666V479.176H84.99V478.666H84.63Z" fill="#ffffff" fill-rule="evenodd"/><path transform="matrix(1,0,0,-1,0,595.276)" d="M83.25 477.916V477.586H83.61V476.776L83.13 476.386 83.4 476.056 83.76 476.506 83.97 476.296 84.3 476.146 84.72 476.056 85.29 476.026H86.82L86.94 476.386H85.02 84.57L84.24 476.506 84.06 476.656 83.97 476.896V477.916Z" fill="#ffffff" fill-rule="evenodd"/><path transform="matrix(1,0,0,-1,0,595.276)" d="M83.58 479.656 83.34 479.386 83.61 479.236 83.85 479.056 84.09 479.296 83.85 479.506Z" fill="#ffffff" fill-rule="evenodd"/><path transform="matrix(1,0,0,-1,0,595.276)" d="M83.52 478.786 83.22 478.546 83.49 478.366 83.73 478.156 83.97 478.426 83.76 478.636Z" fill="#ffffff" fill-rule="evenodd"/><path transform="matrix(1,0,0,-1,0,595.276)" d="M85.98 479.656V479.146H85.5V478.846H85.65L85.77 478.276H85.5V477.916H86.04V477.526H85.56V477.196H86.04V476.566H86.37V477.196H86.85V477.526H86.37V477.916H86.88V478.276H86.64L86.73 478.846H86.85V479.146H86.34V479.476L86.4 479.536V479.596H86.37L86.31 479.626 85.98 479.656ZM86.1 478.276 85.98 478.846H86.4L86.28 478.276H86.1Z" fill="#ffffff" fill-rule="evenodd"/><path transform="matrix(1,0,0,-1,0,595.276)" d="M88.32 479.296V478.966H89.76V478.696H88.71V477.166H89.76V476.896H88.17V476.566H89.76V476.026H90.09V476.566H91.71V476.896H90.09V477.166H91.2V478.696H90.09V478.966H91.53V479.296H90.09V479.476L90.15 479.536 90.18 479.566 90.15 479.596 90.12 479.626 89.76 479.686V479.296H88.32ZM89.04 478.096V478.366H89.76V478.096H89.04ZM89.04 477.466V477.796H89.76V477.466H89.04ZM90.09 478.096V478.366H90.87V478.096H90.09ZM90.09 477.466V477.796H90.87V477.466H90.09Z" fill="#ffffff" fill-rule="evenodd"/><path transform="matrix(1,0,0,-1,0,595.276)" d="M94.53 479.026H93.27V477.406L93.24 477.046 93.18 476.716 93.06 476.416 92.91 476.146 93.24 475.936 93.45 476.356 93.6 476.866 93.81 476.746 93.96 476.896 94.05 476.716 94.14 476.566 93.81 476.386 93.45 476.296 93.72 475.996 94.05 476.146 94.38 476.296 94.71 476.116 95.19 475.996 95.79 475.936 96.54 475.906 96.72 476.296H95.76L95.46 476.326 95.16 476.356 94.92 476.416 94.65 476.536 94.77 476.716 94.89 476.956 94.95 477.226 95.01 477.586H94.32L94.41 477.766 94.5 477.796V477.826L94.47 477.856 94.41 477.886 94.14 477.976 94.02 477.676 93.9 477.436 93.75 477.226 93.6 477.076 93.63 477.526V478.696H94.53V478.516H93.87V478.246H94.53V478.036L94.56 477.916 94.59 477.826 94.68 477.766H94.8 95.97 96.09L96.21 477.856 96.27 477.946 96.33 478.096 95.97 478.186V478.096L95.94 478.036 95.85 478.006H95.76 95.04L94.92 478.036 94.89 478.156V478.246H95.85V478.516H94.89V478.696H96.09V478.336H96.45V479.026H94.89V479.206H96.09V479.446H94.89V479.536L94.95 479.596V479.626L94.92 479.656 94.83 479.686H94.53V479.026ZM94.23 477.316H94.68L94.59 476.986 94.41 476.746 94.23 476.926 94.17 477.166 94.23 477.316Z" fill="#ffffff" fill-rule="evenodd"/><path transform="matrix(1,0,0,-1,0,595.276)" d="M95.19 477.586V477.406 477.136L95.13 476.896 95.07 476.746 94.95 476.626 95.19 476.416 95.31 476.536 95.4 476.716 95.46 476.956 95.52 477.256H95.76V476.776 476.626L95.82 476.536 95.91 476.476 96.03 476.446H96.36L96.51 476.476 96.6 476.566 96.66 476.716V476.896L96.33 476.986 96.3 476.776 96.21 476.716H96.15L96.12 476.746 96.09 476.806V476.896 477.586Z" fill="#ffffff" fill-rule="evenodd"/><path transform="matrix(1,0,0,-1,0,595.276)" d="M78.75 473.776V472.876H79.95V473.776H78.75ZM79.08 473.176V473.506H79.59V473.176H79.08Z" fill="#ffffff" fill-rule="evenodd"/><path transform="matrix(1,0,0,-1,0,595.276)" d="M78.87 471.106H79.2V471.256H79.98V470.986H78.36V470.656H79.98V470.236H80.34V470.656H81.96V470.986H80.34V471.256H81.09V471.136H81.48V472.666H78.87V471.106ZM80.34 472.126V472.396H81.09V472.126H80.34ZM80.34 471.586V471.826H81.09V471.586H80.34ZM79.2 472.126V472.396H79.98V472.126H79.2ZM79.2 471.586V471.826H79.98V471.586H79.2Z" fill="#ffffff" fill-rule="evenodd"/><path transform="matrix(1,0,0,-1,0,595.276)" d="M80.37 473.776V472.876H81.6V473.776H80.37ZM80.73 473.176V473.506H81.27V473.176H80.73Z" fill="#ffffff" fill-rule="evenodd"/><path transform="matrix(1,0,0,-1,0,595.276)" d="M83.22 473.026 83.61 472.816 84.06 473.146 84.51 473.536 84.6 473.566 84.63 473.626 84.6 473.656 84.54 473.686 84.24 473.806 83.76 473.356Z" fill="#ffffff" fill-rule="evenodd"/><path transform="matrix(1,0,0,-1,0,595.276)" d="M83.16 471.796 83.52 471.586 83.88 471.946V470.206H84.27V472.366L84.45 472.606 84.66 472.816 84.72 472.876 84.75 472.936 84.72 472.966 84.66 472.996 84.33 473.086 84.09 472.696 83.79 472.366 83.49 472.066Z" fill="#ffffff" fill-rule="evenodd"/><path transform="matrix(1,0,0,-1,0,595.276)" d="M84.99 473.626V473.236H86.61V473.626Z" fill="#ffffff" fill-rule="evenodd"/><path transform="matrix(1,0,0,-1,0,595.276)" d="M85.86 472.156V470.926 470.806L85.8 470.716 85.77 470.656 85.68 470.626H85.23L85.38 470.206H85.59 85.77L85.92 470.236 86.04 470.296 86.13 470.356 86.19 470.446 86.25 470.566 86.28 470.686V470.836 472.156H86.88V472.516H84.66V472.156Z" fill="#ffffff" fill-rule="evenodd"/><path transform="matrix(1,0,0,-1,0,595.276)" d="M88.26 472.486H88.8V470.896L88.59 470.836V471.886L88.65 471.946V471.976L88.62 472.006 88.53 472.036 88.23 472.066V470.776L88.05 470.716 88.14 470.356 88.2 470.296 88.29 470.386 89.73 470.806V471.136L89.19 470.986V471.646H89.61V471.976H89.19V472.486H89.52V472.936L89.79 472.756 90.21 473.206H91.02L90.84 472.906 90.6 472.666 90.45 472.816 90.36 472.996 90.03 472.966 90.12 472.696 90.3 472.456 89.94 472.246 89.52 472.096 89.79 471.796 90.24 472.006 90.6 472.216 91.08 471.946 91.56 471.796 91.86 472.096 91.35 472.246 90.9 472.426 91.29 472.876 91.56 473.326 91.38 473.536H90.45L90.57 473.686 90.63 473.746V473.776 473.836L90.54 473.866 90.3 473.956 89.91 473.386 89.52 473.026V473.716H88.26V472.486ZM88.62 472.816V473.386H89.16V472.816H88.62Z" fill="#ffffff" fill-rule="evenodd"/><path transform="matrix(1,0,0,-1,0,595.276)" d="M89.88 470.236H90.24V470.446H91.08V470.266H91.44V471.736H89.88V470.236ZM90.24 470.806V471.376H91.08V470.806H90.24Z" fill="#ffffff" fill-rule="evenodd"/><path transform="matrix(.03,0,0,.03,0,0)" stroke-width="5" stroke-linecap="round" stroke-linejoin="round" fill="none" stroke="#ffffff" d="M2553 3541H2554"/><path transform="matrix(1,0,0,-1,0,595.276)" d="M76.92 490.576 77.25 490.816C76.95 491.086 76.65 491.236 76.32 491.236 76.08 491.236 75.84 491.176 75.66 491.026 75.54 490.876 75.45 490.696 75.45 490.486 75.45 490.276 75.54 490.096 75.66 489.976 75.72 489.946 75.81 489.916 75.87 489.886 76.02 489.826 76.17 489.796 76.32 489.796L76.35 489.766C76.53 489.766 76.74 489.736 76.83 489.586 76.89 489.496 76.89 489.346 76.86 489.256 76.77 489.076 76.59 489.046 76.38 489.046 76.14 489.076 75.87 489.166 75.69 489.406L75.33 489.136C75.45 489.046 75.54 488.956 75.66 488.896 75.87 488.746 76.11 488.686 76.35 488.686 76.62 488.686 76.89 488.746 77.07 488.896 77.19 489.016 77.28 489.196 77.31 489.406 77.31 489.466 77.31 489.526 77.28 489.586 77.25 489.736 77.19 489.856 77.07 489.946 77.04 490.006 76.98 490.036 76.92 490.066 76.86 490.066 76.8 490.096 76.74 490.096L76.17 490.216C76.11 490.216 76.08 490.246 76.02 490.276 75.96 490.306 75.87 490.396 75.87 490.486 75.84 490.576 75.93 490.696 76.02 490.756 76.11 490.816 76.17 490.846 76.29 490.846 76.47 490.816 76.74 490.756 76.92 490.576Z" fill="#ffffff" fill-rule="evenodd"/><path transform="matrix(1,0,0,-1,0,595.276)" d="M78.21 488.716V490.486H77.82V488.716Z" fill="#ffffff" fill-rule="evenodd"/><path transform="matrix(1,0,0,-1,0,595.276)" d="M78.24 490.996C78.24 491.116 78.15 491.236 78.03 491.236 77.88 491.236 77.79 491.116 77.79 490.996 77.79 490.876 77.88 490.756 78.03 490.756 78.15 490.756 78.24 490.876 78.24 490.996Z" fill="#ffffff" fill-rule="evenodd"/><path transform="matrix(1,0,0,-1,0,595.276)" d="M79.53 490.126C79.59 490.126 79.68 490.126 79.74 490.066 79.8 490.006 79.83 489.916 79.83 489.856V488.716H80.22V489.916C80.22 490.036 80.19 490.156 80.1 490.246 80.04 490.366 79.92 490.426 79.83 490.456 79.71 490.516 79.59 490.516 79.47 490.516 79.35 490.486 79.26 490.426 79.17 490.366V490.486H78.78V488.716H79.17V489.796C79.17 489.886 79.2 489.976 79.26 490.036 79.35 490.096 79.44 490.126 79.53 490.126Z" fill="#ffffff" fill-rule="evenodd"/><path transform="matrix(1,0,0,-1,0,595.276)" d="M82.77 489.046V491.176H83.19V489.106C83.19 489.106 83.19 489.076 83.22 489.046 83.22 489.016 83.25 489.016 83.28 489.016 83.34 489.016 83.37 489.016 83.4 489.016 83.46 489.046 83.49 489.046 83.55 489.046L83.58 488.686C83.49 488.686 83.4 488.686 83.34 488.686 83.25 488.686 83.16 488.686 83.07 488.686 83.01 488.716 82.92 488.746 82.86 488.806 82.8 488.896 82.8 488.956 82.8 489.046H82.77Z" fill="#ffffff" fill-rule="evenodd"/><path transform="matrix(1,0,0,-1,0,595.276)" d="M84.45 488.686C84.66 488.626 84.87 488.656 85.05 488.746 85.14 488.776 85.23 488.836 85.29 488.926L85.05 489.196 84.99 489.136C84.93 489.076 84.81 489.016 84.72 489.016 84.6 488.986 84.45 489.016 84.36 489.076 84.3 489.136 84.24 489.196 84.21 489.256 84.18 489.316 84.18 489.406 84.18 489.466H85.38C85.38 489.646 85.35 489.796 85.32 489.976 85.26 490.126 85.17 490.276 85.05 490.366 84.78 490.546 84.45 490.546 84.18 490.396 83.97 490.276 83.85 490.036 83.79 489.796 83.76 489.556 83.79 489.316 83.88 489.076 83.94 488.986 84 488.866 84.12 488.806 84.21 488.716 84.33 488.686 84.45 488.686ZM84.18 489.736C84.18 489.826 84.21 489.916 84.24 489.976 84.27 490.066 84.33 490.096 84.39 490.126 84.51 490.186 84.66 490.186 84.78 490.126 84.84 490.096 84.87 490.066 84.93 490.006 84.96 489.916 84.99 489.826 84.99 489.736H84.18Z" fill="#ffffff" fill-rule="evenodd"/><path transform="matrix(1,0,0,-1,0,595.276)" d="M87.3 489.136C87.3 489.076 87.36 489.016 87.42 489.016 87.45 489.016 87.51 489.016 87.57 489.016 87.63 489.016 87.66 489.046 87.72 489.046L87.78 488.716C87.57 488.656 87.36 488.656 87.18 488.716 87.09 488.776 87.03 488.806 86.97 488.866 86.94 488.926 86.91 488.986 86.91 489.046V490.126H86.58V490.486H86.91V491.056L87.3 491.176V490.486H87.78V490.126H87.3V489.136Z" fill="#ffffff" fill-rule="evenodd"/><path transform="matrix(1,0,0,-1,0,595.276)" d="M88.56 490.306C88.65 490.396 88.74 490.456 88.83 490.486 88.95 490.516 89.04 490.546 89.16 490.516V490.126C88.98 490.126 88.83 490.096 88.71 490.006 88.68 489.976 88.65 489.946 88.62 489.916 88.59 489.856 88.56 489.796 88.56 489.766V488.716H88.17V490.486H88.56V490.306Z" fill="#ffffff" fill-rule="evenodd"/><path transform="matrix(1,0,0,-1,0,595.276)" d="M89.58 490.066 89.79 490.126C89.82 490.156 89.85 490.156 89.88 490.156 89.91 490.186 89.97 490.186 90 490.186 90.06 490.186 90.15 490.186 90.24 490.186 90.3 490.186 90.36 490.156 90.39 490.096 90.42 490.066 90.45 490.036 90.45 490.006 90.45 489.946 90.45 489.916 90.45 489.886V489.826L90.15 489.796C90.09 489.796 90.03 489.766 89.97 489.766 89.88 489.766 89.79 489.736 89.73 489.706 89.64 489.676 89.55 489.646 89.49 489.556 89.4 489.466 89.37 489.346 89.37 489.226 89.37 489.106 89.4 488.986 89.46 488.896 89.52 488.836 89.61 488.776 89.7 488.746 89.76 488.716 89.85 488.686 89.97 488.686 90.06 488.656 90.15 488.686 90.27 488.716 90.36 488.746 90.45 488.806 90.51 488.866 90.54 488.806 90.57 488.746 90.63 488.716 90.69 488.686 90.75 488.686 90.81 488.686L90.99 488.926 90.9 488.986C90.87 489.016 90.84 489.016 90.84 489.046 90.84 489.076 90.81 489.106 90.81 489.106V489.706C90.84 489.826 90.84 489.946 90.81 490.066 90.81 490.156 90.78 490.246 90.72 490.306 90.66 490.396 90.57 490.456 90.48 490.486 90.33 490.516 90.21 490.546 90.06 490.516 89.97 490.516 89.88 490.516 89.76 490.486 89.7 490.456 89.64 490.426 89.58 490.396 89.55 490.396 89.49 490.366 89.43 490.336L89.58 490.066ZM89.97 488.986C89.91 488.986 89.85 489.016 89.82 489.046 89.79 489.076 89.76 489.106 89.76 489.166 89.76 489.226 89.76 489.256 89.76 489.316 89.79 489.376 89.82 489.406 89.88 489.406 89.94 489.436 89.97 489.436 90.03 489.466 90.09 489.466 90.18 489.496 90.24 489.496 90.3 489.496 90.39 489.526 90.45 489.526V489.196C90.45 489.166 90.45 489.136 90.42 489.136 90.42 489.106 90.39 489.076 90.36 489.046 90.33 489.016 90.27 488.986 90.21 488.956 90.12 488.926 90.03 488.956 89.97 488.986Z" fill="#ffffff" fill-rule="evenodd"/><path transform="matrix(1,0,0,-1,0,595.276)" d="M89.58 490.066V490.066Z" fill="#ffffff" fill-rule="evenodd"/><path transform="matrix(1,0,0,-1,0,595.276)" d="M92.1 489.016C92.16 488.986 92.25 489.016 92.31 489.016 92.37 489.046 92.43 489.106 92.46 489.136 92.52 489.166 92.55 489.226 92.58 489.286L92.91 489.106 92.82 488.986C92.79 488.926 92.76 488.896 92.7 488.836 92.64 488.806 92.61 488.776 92.55 488.746 92.43 488.686 92.31 488.656 92.16 488.656 92.01 488.656 91.86 488.716 91.71 488.806 91.56 488.896 91.47 489.046 91.41 489.196 91.35 489.406 91.35 489.586 91.38 489.796 91.38 489.946 91.47 490.096 91.56 490.216 91.65 490.306 91.77 490.396 91.89 490.456 92.04 490.516 92.22 490.516 92.37 490.486 92.52 490.456 92.67 490.366 92.79 490.246 92.82 490.216 92.85 490.186 92.85 490.156 92.88 490.096 92.91 490.066 92.91 490.036L92.58 489.856C92.55 489.946 92.49 490.006 92.46 490.066 92.43 490.096 92.4 490.126 92.37 490.126 92.25 490.186 92.13 490.156 92.01 490.096 91.92 490.036 91.83 489.946 91.8 489.856 91.74 489.706 91.71 489.526 91.77 489.376 91.8 489.196 91.92 489.046 92.1 489.016Z" fill="#ffffff" fill-rule="evenodd"/><path transform="matrix(1,0,0,-1,0,595.276)" d="M93.69 489.736V491.176H93.3V488.716H93.69V489.226L93.93 489.496 94.44 488.716H94.92L94.17 489.736 94.89 490.486H94.38Z" fill="#ffffff" fill-rule="evenodd"/><path transform="matrix(.03,0,0,.03,0,0)" stroke-width="5" stroke-linecap="round" stroke-linejoin="round" fill="none" stroke="#0000ff" d="M3322 4195V3458C3322 3446 3318 3434 3309 3426 3301 3418 3290 3413 3278 3413H2393C2381 3413 2370 3418 2361 3426 2353 3434 2348 3446 2348 3458V4195C2348 4207 2353 4218 2361 4226 2370 4235 2381 4240 2393 4240H3278C3290 4240 3301 4235 3309 4226 3318 4218 3322 4207 3322 4195"/></g></svg>