<?xml version='1.0' encoding='UTF-8'?>
<svg width="557.27" height="236.80" viewBox="5.35 11.56 557.27 236.80" xmlns="http://www.w3.org/2000/svg" xmlns:xlink="http://www.w3.org/1999/xlink" xmlns:inkscape="http://www.inkscape.org/namespaces/inkscape" version="1.1"><g transform="scale(10.0) translate(-274.875, -424.224)"><defs><clipPath id="clip_14"><path transform="matrix(1,0,0,-1,0,595.276)" d="M19.8 .046H822.06V595.276H19.8Z"/></clipPath></defs><path transform="matrix(1,0,0,-1,0,595.276)" d="M330.36 158.626 324.9 168.136C324.69 168.466 324.42 168.766 324.06 168.976 323.7 169.186 323.28 169.276 322.89 169.276H278.34C278.07 169.276 277.77 169.216 277.5 169.126 277.2 169.006 276.93 168.826 276.72 168.586 276.48 168.376 276.3 168.106 276.21 167.806 276.09 167.536 276.03 167.236 276.03 166.966V149.146C276.03 148.876 276.09 148.576 276.21 148.306 276.3 148.006 276.48 147.736 276.72 147.526 276.93 147.286 277.2 147.106 277.5 146.986 277.77 146.896 278.07 146.836 278.34 146.836H322.89C323.28 146.836 323.7 146.926 324.06 147.136 324.42 147.346 324.69 147.646 324.9 147.976L330.36 157.486C330.57 157.846 330.57 158.266 330.36 158.626Z" fill="#ffffff" fill-rule="evenodd"/><path transform="matrix(1,0,0,-1,0,595.276)" d="M329.37 158.056 323.91 167.536C323.79 167.716 323.67 167.866 323.46 167.956 323.28 168.076 323.1 168.136 322.89 168.136H278.34C278.22 168.136 278.07 168.106 277.92 168.046 277.77 167.986 277.65 167.896 277.53 167.776 277.41 167.656 277.32 167.536 277.26 167.386 277.2 167.236 277.2 167.116 277.2 166.966V149.146C277.2 148.876 277.29 148.576 277.53 148.336 277.65 148.216 277.77 148.126 277.92 148.066 278.07 148.006 278.22 147.976 278.34 147.976H322.89C323.1 147.976 323.28 148.036 323.46 148.156 323.67 148.246 323.79 148.396 323.91 148.576L329.37 158.056Z" fill="#0000ff" fill-rule="evenodd"/><path transform="matrix(1,0,0,-1,0,595.276)" d="M299.4 165.736H296.13V165.076H297.36V161.266H298.14V165.076H299.4Z" fill="#ffffff" fill-rule="evenodd"/><path transform="matrix(1,0,0,-1,0,595.276)" d="M299.4 162.856C299.37 162.676 299.4 162.466 299.49 162.256 299.55 162.046 299.67 161.866 299.82 161.686 300 161.536 300.18 161.416 300.36 161.326 300.57 161.236 300.78 161.206 300.96 161.206 301.17 161.206 301.35 161.236 301.56 161.326 301.77 161.416 301.95 161.536 302.1 161.686 302.25 161.866 302.37 162.046 302.46 162.256 302.52 162.466 302.55 162.676 302.55 162.856 302.55 163.066 302.52 163.246 302.46 163.456 302.37 163.666 302.25 163.876 302.1 164.026 301.95 164.176 301.77 164.326 301.56 164.416 301.35 164.476 301.17 164.536 300.96 164.536 300.78 164.536 300.57 164.476 300.36 164.416 300.18 164.326 300 164.176 299.82 164.026 299.67 163.876 299.55 163.666 299.49 163.456 299.4 163.246 299.37 163.066 299.4 162.856ZM300.96 163.846C301.17 163.846 301.41 163.756 301.56 163.546 301.74 163.366 301.8 163.096 301.8 162.856 301.8 162.616 301.74 162.376 301.56 162.166 301.41 161.986 301.17 161.896 300.96 161.866 300.75 161.896 300.54 161.986 300.36 162.166 300.21 162.376 300.12 162.616 300.12 162.856 300.12 163.096 300.21 163.366 300.36 163.546 300.54 163.756 300.75 163.846 300.96 163.846Z" fill="#ffffff" fill-rule="evenodd"/><path transform="matrix(1,0,0,-1,0,595.276)" d="M304.14 161.266V164.476H303.45V161.266Z" fill="#ffffff" fill-rule="evenodd"/><path transform="matrix(1,0,0,-1,0,595.276)" d="M304.2 165.406C304.2 165.616 304.02 165.796 303.81 165.796 303.57 165.796 303.39 165.616 303.39 165.406 303.39 165.166 303.57 164.986 303.81 164.986 304.02 164.986 304.2 165.166 304.2 165.406Z" fill="#ffffff" fill-rule="evenodd"/><path transform="matrix(1,0,0,-1,0,595.276)" d="M305.25 161.866V165.736H305.94V162.016 161.986C305.94 161.956 305.97 161.896 306 161.866 306.06 161.836 306.09 161.806 306.15 161.806 306.21 161.806 306.3 161.836 306.36 161.836 306.45 161.836 306.54 161.866 306.6 161.896L306.66 161.236C306.51 161.206 306.36 161.206 306.21 161.206 306.06 161.206 305.91 161.206 305.76 161.236 305.64 161.266 305.49 161.326 305.4 161.446 305.28 161.566 305.25 161.716 305.25 161.866Z" fill="#ffffff" fill-rule="evenodd"/><path transform="matrix(1,0,0,-1,0,595.276)" d="M308.22 161.206C308.58 161.116 308.97 161.176 309.3 161.326 309.48 161.416 309.63 161.506 309.75 161.626L309.33 162.106 309.21 162.046C309.06 161.926 308.88 161.836 308.7 161.806 308.46 161.776 308.25 161.806 308.04 161.926 307.95 162.016 307.86 162.136 307.8 162.256 307.74 162.376 307.71 162.496 307.74 162.616H309.87C309.9 162.946 309.87 163.246 309.78 163.546 309.69 163.846 309.54 164.086 309.3 164.266 308.82 164.566 308.22 164.596 307.74 164.326 307.35 164.086 307.11 163.696 307.05 163.246 306.96 162.796 307.02 162.346 307.2 161.956 307.29 161.746 307.41 161.566 307.62 161.446 307.8 161.296 308.01 161.236 308.22 161.206ZM307.71 163.126C307.74 163.276 307.77 163.426 307.86 163.576 307.92 163.696 308.01 163.786 308.13 163.846 308.34 163.936 308.58 163.936 308.79 163.846 308.91 163.786 309 163.696 309.06 163.606 309.15 163.456 309.21 163.276 309.21 163.126H307.71Z" fill="#ffffff" fill-rule="evenodd"/><path transform="matrix(1,0,0,-1,0,595.276)" d="M311.73 162.016C311.73 161.926 311.82 161.836 311.91 161.836 312 161.806 312.09 161.806 312.21 161.836 312.3 161.836 312.39 161.866 312.48 161.866L312.57 161.266C312.39 161.206 312.21 161.206 312.03 161.206 311.82 161.206 311.64 161.236 311.49 161.296 311.34 161.356 311.22 161.446 311.13 161.566 311.07 161.656 311.01 161.776 311.01 161.896V163.846H310.41V164.476H311.01V165.496L311.73 165.736V164.476H312.57V163.846H311.73V162.016Z" fill="#ffffff" fill-rule="evenodd"/><path transform="matrix(1,0,0,-1,0,595.276)" d="M313.95 163.366C314.04 163.306 314.16 163.306 314.28 163.306 314.31 163.306 314.34 163.306 314.37 163.306H314.4L314.46 163.276H314.49C314.88 163.246 315.27 163.006 315.48 162.616 315.54 162.496 315.57 162.316 315.54 162.166 315.54 161.926 315.45 161.716 315.3 161.596 314.97 161.326 314.58 161.176 314.19 161.206 313.68 161.206 313.17 161.446 312.84 161.866L313.29 162.346C313.38 162.196 313.53 162.076 313.68 161.986 313.83 161.896 314.01 161.866 314.16 161.866 314.25 161.866 314.34 161.866 314.43 161.896 314.52 161.896 314.58 161.926 314.64 161.956 314.7 161.986 314.79 162.076 314.79 162.166 314.79 162.226 314.79 162.286 314.79 162.316 314.76 162.376 314.73 162.406 314.7 162.436 314.58 162.526 314.37 162.616 314.19 162.616H314.16C314.07 162.616 313.98 162.646 313.89 162.676 313.56 162.736 313.29 162.886 313.11 163.096 313.11 163.126 313.11 163.126 313.08 163.126 312.99 163.276 312.96 163.456 312.96 163.636H312.99C312.99 163.846 313.08 164.056 313.2 164.176 313.41 164.386 313.65 164.506 313.92 164.536H313.95 314.01C314.55 164.596 315.09 164.446 315.51 164.146L315.03 163.636C314.82 163.786 314.55 163.876 314.28 163.876 314.19 163.876 314.07 163.846 313.98 163.816 313.89 163.816 313.8 163.696 313.8 163.606 313.8 163.516 313.86 163.396 313.95 163.366Z" fill="#ffffff" fill-rule="evenodd"/><path transform="matrix(1,0,0,-1,0,595.276)" d="M321.18 166.846 326.28 158.056 321.18 149.266H317.04L322.11 158.056 317.04 166.846Z" fill="#ffffff" fill-rule="evenodd"/><path transform="matrix(1,0,0,-1,0,595.276)" d="M289.14 156.526H283.95L283.41 164.176C283.41 164.356 283.44 164.536 283.5 164.746 283.56 164.926 283.68 165.106 283.8 165.286 283.95 165.436 284.13 165.556 284.34 165.646 284.52 165.706 284.7 165.736 284.88 165.736 285.06 165.736 285.27 165.706 285.45 165.646 285.63 165.556 285.81 165.436 285.96 165.286 286.11 165.136 286.23 164.956 286.29 164.746 286.35 164.566 286.38 164.356 286.38 164.176 286.35 163.996 286.32 163.816 286.23 163.636 286.14 163.426 285.99 163.276 285.84 163.126 285.66 163.006 285.48 162.886 285.27 162.856 285.09 162.796 284.88 162.796 284.7 162.796L284.91 160.036H288.66V158.806H284.97L285.06 157.846H289.98L292.02 153.406 293.4 154.006 293.73 153.166 291.18 152.116 289.14 156.526Z" fill="#ffffff" fill-rule="evenodd"/><path transform="matrix(1,0,0,-1,0,595.276)" d="M283.23 158.026C283.02 157.876 282.84 157.666 282.66 157.456 282.48 157.246 282.33 156.976 282.18 156.706 281.94 156.136 281.82 155.476 281.88 154.816 281.97 154.126 282.24 153.526 282.6 153.016 282.81 152.776 283.02 152.566 283.23 152.386 283.47 152.236 283.68 152.086 283.92 151.966 284.16 151.876 284.4 151.786 284.67 151.726 284.94 151.636 285.24 151.606 285.57 151.636 286.17 151.636 286.83 151.816 287.4 152.176 287.97 152.566 288.39 153.046 288.66 153.616 288.81 153.886 288.9 154.186 288.96 154.456 289.02 154.726 289.05 154.996 289.05 155.236L289.92 153.346C289.8 153.016 289.65 152.716 289.44 152.416 289.23 152.116 288.96 151.846 288.66 151.576 288.09 151.066 287.34 150.676 286.53 150.496 285.69 150.286 284.85 150.346 284.1 150.556 283.71 150.676 283.38 150.826 283.05 151.006 282.75 151.186 282.45 151.396 282.21 151.606 281.97 151.846 281.73 152.086 281.52 152.386 281.31 152.686 281.13 153.016 280.98 153.376 280.68 154.096 280.56 154.936 280.65 155.776 280.74 156.616 281.04 157.396 281.52 158.026 281.73 158.356 282 158.626 282.27 158.866 282.54 159.106 282.84 159.316 283.11 159.466L283.23 158.026Z" fill="#ffffff" fill-rule="evenodd"/><path transform="matrix(1,0,0,-1,0,595.276)" d="M299.16 156.646 298.65 156.706 298.44 156.016 298.11 155.386 297.6 154.846 297 154.336 297.57 153.886 298.17 154.396 298.68 154.966 299.04 155.596 299.31 156.346 299.49 156.436 299.52 156.526 299.4 156.616Z" fill="#ffffff" fill-rule="evenodd"/><path transform="matrix(1,0,0,-1,0,595.276)" d="M300.27 155.056 299.79 155.296 299.19 153.616 298.53 152.176 297.54 152.116 297.66 151.456 297.72 151.246 297.81 151.156 297.9 151.186 297.99 151.336 302.22 151.846 302.61 151.156 303.24 151.576 302.94 152.176 302.55 152.776 302.07 153.346 301.56 153.946 301.05 153.556 301.89 152.446 299.31 152.206 300.39 154.666 300.54 154.726 300.6 154.816 300.51 154.936Z" fill="#ffffff" fill-rule="evenodd"/><path transform="matrix(1,0,0,-1,0,595.276)" d="M299.37 157.456 299.4 156.856H300.93L301.11 156.136 301.53 155.416 302.19 154.666 303.12 153.916 303.84 154.396 303.33 154.726 302.88 155.056 302.52 155.416 302.22 155.806 301.95 156.196 301.8 156.586 301.68 157.036 301.62 157.456Z" fill="#ffffff" fill-rule="evenodd"/><path transform="matrix(1,0,0,-1,0,595.276)" d="M306.51 157.126V154.696L306.45 153.736 306.33 152.866 306.12 152.146 305.85 151.516 306.51 151.156 306.9 152.296 307.14 153.526 307.2 154.936 307.17 156.556H312.45V157.126H309.9V157.426L310.02 157.546V157.606L309.96 157.696 309.81 157.756 309.21 157.786V157.126Z" fill="#ffffff" fill-rule="evenodd"/><path transform="matrix(1,0,0,-1,0,595.276)" d="M307.65 156.106V152.566H309.96V156.106H307.65ZM308.31 155.116V155.536H309.3V155.116H308.31ZM308.31 154.126V154.576H309.3V154.126H308.31ZM308.31 153.166V153.616H309.3V153.166H308.31Z" fill="#ffffff" fill-rule="evenodd"/><path transform="matrix(1,0,0,-1,0,595.276)" d="M308.52 152.266 308.1 152.476 307.65 151.936 307.14 151.606 307.62 151.156 308.1 151.516 308.49 151.966 308.52 151.936 308.64 151.996 308.67 152.086 308.64 152.176Z" fill="#ffffff" fill-rule="evenodd"/><path transform="matrix(1,0,0,-1,0,595.276)" d="M309.42 152.446 308.97 152.146 309.36 151.726 309.78 151.156 310.26 151.576 309.87 152.026Z" fill="#ffffff" fill-rule="evenodd"/><path transform="matrix(1,0,0,-1,0,595.276)" d="M311.58 156.316V152.266L311.55 152.026 311.49 151.876 311.4 151.786 311.25 151.756H310.68L310.95 151.156H311.37L311.76 151.216 311.97 151.306 312.15 151.456 312.24 151.666V151.966 155.986L312.36 156.076 312.39 156.136 312.36 156.196 312.21 156.256Z" fill="#ffffff" fill-rule="evenodd"/><path transform="matrix(1,0,0,-1,0,595.276)" d="M310.41 155.926V152.566H311.1V155.626L311.22 155.716V155.806L311.19 155.866 311.07 155.896Z" fill="#ffffff" fill-rule="evenodd"/><path transform="matrix(.03,0,0,.03,0,0)" stroke-width="5" stroke-linecap="round" stroke-linejoin="round" fill="none" stroke="#0000ff" d="M10763 14200H9278C9258 14200 9238 14208 9224 14223 9209 14237 9201 14257 9201 14277V14871C9201 14891 9209 14911 9224 14925 9238 14940 9258 14948 9278 14948H10763C10791 14948 10816 14933 10830 14910L11012 14593C11019 14581 11019 14567 11012 14555L10830 14238C10816 14215 10791 14200 10763 14200"/></g></svg>