<?xml version='1.0' encoding='UTF-8'?>
<svg width="285.80" height="254.00" viewBox="141.65 9.86 285.80 254.00" xmlns="http://www.w3.org/2000/svg" xmlns:xlink="http://www.w3.org/1999/xlink" xmlns:inkscape="http://www.inkscape.org/namespaces/inkscape" version="1.1"><g transform="scale(10.0) translate(-493.095, -289.584)"><defs><clipPath id="clip_14"><path transform="matrix(1,0,0,-1,0,595.276)" d="M19.8 .046H822.06V595.276H19.8Z"/></clipPath></defs><path transform="matrix(1,0,0,-1,0,595.276)" d="M509.04 279.586H534.06C534.42 279.586 534.81 279.736 535.11 280.036 535.44 280.336 535.56 280.726 535.56 281.086V302.896C535.56 303.076 535.53 303.286 535.47 303.466 535.38 303.646 535.26 303.826 535.11 303.976 534.96 304.126 534.81 304.246 534.6 304.306 534.42 304.396 534.24 304.426 534.06 304.426H509.04C508.68 304.426 508.29 304.276 507.99 303.976 507.84 303.826 507.72 303.646 507.63 303.466 507.57 303.286 507.54 303.076 507.54 302.896V281.086C507.54 280.726 507.66 280.336 507.99 280.036 508.14 279.886 508.29 279.766 508.5 279.706 508.68 279.616 508.86 279.586 509.04 279.586ZM509.04 303.676H534.06C534.24 303.676 534.42 303.586 534.6 303.436 534.75 303.286 534.81 303.106 534.81 302.896V281.086C534.81 280.906 534.75 280.726 534.6 280.576 534.42 280.426 534.24 280.336 534.06 280.336H509.04C508.86 280.336 508.65 280.426 508.5 280.576 508.35 280.726 508.29 280.906 508.29 281.086V302.896C508.29 303.316 508.62 303.676 509.04 303.676Z" fill-rule="evenodd"/><path transform="matrix(1,0,0,-1,0,595.276)" d="M509.04 303.676H534.06C534.24 303.676 534.42 303.586 534.6 303.436 534.75 303.286 534.81 303.106 534.81 302.896V281.086C534.81 280.996 534.78 280.906 534.75 280.816 534.72 280.726 534.66 280.636 534.6 280.576 534.51 280.486 534.42 280.426 534.33 280.396 534.24 280.366 534.15 280.336 534.06 280.336H509.04C508.86 280.336 508.65 280.426 508.5 280.576 508.35 280.726 508.29 280.906 508.29 281.086V302.896C508.29 303.106 508.35 303.286 508.5 303.436 508.65 303.586 508.86 303.676 509.04 303.676Z" fill="#ffff00" fill-rule="evenodd"/><path transform="matrix(1,0,0,-1,0,595.276)" d="M511.26 299.266H510.09V302.056H511.26C511.98 302.056 512.43 301.516 512.43 300.676 512.43 300.286 512.34 299.926 512.1 299.656 511.89 299.386 511.59 299.266 511.26 299.266ZM510.69 301.456V299.866H511.17 511.2C511.23 299.866 511.29 299.866 511.32 299.866H511.38C511.65 299.926 511.83 300.256 511.83 300.676 511.83 301.066 511.68 301.366 511.41 301.456H511.38C511.32 301.456 511.26 301.456 511.2 301.456H511.17 510.69Z" fill-rule="evenodd"/><path transform="matrix(1,0,0,-1,0,595.276)" d="M513.69 299.266V302.056H513.15V299.266Z" fill-rule="evenodd"/><path transform="matrix(1,0,0,-1,0,595.276)" d="M515.88 299.266 516.63 302.056H516L515.49 300.166 514.95 302.056H514.32L515.1 299.266H515.49Z" fill-rule="evenodd"/><path transform="matrix(1,0,0,-1,0,595.276)" d="M517.86 300.376H519V300.946H517.86V301.516H519.09V302.056H517.26V299.266H519.27V299.836H517.86Z" fill-rule="evenodd"/><path transform="matrix(1,0,0,-1,0,595.276)" d="M521.55 300.346 522.21 299.266H521.55L520.92 300.316H520.56V299.266H519.93V302.056H521.37C521.82 302.026 522.18 301.636 522.15 301.186 522.18 300.826 521.94 300.466 521.55 300.346ZM520.56 300.856H521.25C521.28 300.856 521.31 300.886 521.31 300.886 521.43 300.916 521.52 301.036 521.52 301.186 521.52 301.366 521.43 301.486 521.28 301.516H520.56V300.856Z" fill-rule="evenodd"/><path transform="matrix(1,0,0,-1,0,595.276)" d="M523.56 301.276C523.53 301.186 523.59 301.126 523.68 301.096 523.77 301.036 523.89 301.006 524.1 300.976 524.76 300.886 525.09 300.586 525.09 300.076 525.06 299.476 524.67 299.176 523.95 299.176 523.68 299.176 523.41 299.206 523.2 299.296 522.96 299.386 522.78 299.536 522.63 299.716L523.14 300.106C523.41 299.866 523.68 299.716 523.95 299.716 524.28 299.746 524.43 299.836 524.4 300.076 524.4 300.256 524.19 300.346 523.77 300.406 523.23 300.466 522.93 300.736 522.87 301.246 522.9 301.846 523.29 302.146 524.01 302.146 524.22 302.146 524.46 302.116 524.64 302.026 524.82 301.966 524.97 301.846 525.12 301.696L524.7 301.306C524.43 301.486 524.22 301.576 524.01 301.576 523.71 301.576 523.56 301.486 523.56 301.276Z" fill-rule="evenodd"/><path transform="matrix(1,0,0,-1,0,595.276)" d="M526.44 299.266V302.056H525.87V299.266Z" fill-rule="evenodd"/><path transform="matrix(1,0,0,-1,0,595.276)" d="M528.48 302.176C528.87 302.176 529.2 302.026 529.44 301.756 529.71 301.486 529.8 301.096 529.8 300.676 529.8 300.226 529.71 299.836 529.44 299.566 529.2 299.296 528.87 299.176 528.48 299.176 528.09 299.176 527.73 299.296 527.49 299.566 527.25 299.836 527.13 300.226 527.13 300.676 527.13 301.096 527.25 301.486 527.49 301.756 527.73 302.026 528.09 302.176 528.48 302.176ZM529.2 300.676C529.2 301.216 528.93 301.576 528.48 301.576 528.03 301.576 527.73 301.216 527.73 300.676 527.73 300.106 528.03 299.776 528.48 299.776 528.69 299.776 528.87 299.836 529.02 300.016 529.14 300.166 529.2 300.406 529.2 300.676Z" fill-rule="evenodd"/><path transform="matrix(1,0,0,-1,0,595.276)" d="M532.41 300.256V302.056H533.01V299.266H532.32L531.06 301.066V299.266H530.46V302.056H531.12Z" fill-rule="evenodd"/><path transform="matrix(1,0,0,-1,0,595.276)" d="M516.78 291.556V288.766H516.21V290.746H515.76V291.286C515.91 291.286 516.03 291.286 516.12 291.346 516.21 291.406 516.24 291.466 516.24 291.556H516.78Z" fill-rule="evenodd"/><path transform="matrix(1,0,0,-1,0,595.276)" d="M519.93 290.146C519.93 290.656 519.84 291.016 519.63 291.286 519.42 291.526 519.12 291.646 518.7 291.646 518.28 291.646 517.98 291.526 517.77 291.286 517.56 291.016 517.47 290.656 517.47 290.146 517.47 289.666 517.56 289.276 517.77 289.036 517.98 288.766 518.28 288.646 518.7 288.646 519.12 288.646 519.42 288.766 519.63 289.036 519.84 289.276 519.93 289.666 519.93 290.146ZM519.33 290.146C519.33 289.516 519.12 289.186 518.7 289.186 518.49 289.186 518.34 289.276 518.22 289.426 518.13 289.606 518.07 289.846 518.07 290.146 518.07 290.806 518.28 291.106 518.7 291.106 518.91 291.106 519.06 291.046 519.18 290.866 519.27 290.716 519.33 290.476 519.33 290.146Z" fill-rule="evenodd"/><path transform="matrix(1,0,0,-1,0,595.276)" d="M522.84 290.146C522.84 290.656 522.75 291.016 522.54 291.286 522.33 291.526 522.03 291.646 521.61 291.646 520.8 291.646 520.38 291.166 520.38 290.146 520.38 289.666 520.47 289.276 520.68 289.036 520.89 288.766 521.19 288.646 521.61 288.646 522.03 288.646 522.33 288.766 522.54 289.036 522.75 289.276 522.84 289.666 522.84 290.146ZM522.24 290.146C522.24 289.516 522.03 289.186 521.61 289.186 521.19 289.186 520.98 289.516 520.98 290.146 520.98 290.476 521.04 290.716 521.13 290.866 521.25 291.046 521.4 291.106 521.61 291.106 522.03 291.106 522.24 290.806 522.24 290.146Z" fill-rule="evenodd"/><path transform="matrix(1,0,0,-1,0,595.276)" d="M526.38 290.296C526.2 290.296 526.02 290.176 526.02 290.026V288.766H525.48V290.116 290.146C525.45 290.236 525.33 290.296 525.18 290.296 525.03 290.296 524.85 290.176 524.85 290.026V288.766H524.28V290.776H524.82V290.686C524.91 290.746 524.97 290.776 525.06 290.806 525.15 290.836 525.21 290.866 525.3 290.866 525.57 290.866 525.75 290.776 525.84 290.566 525.99 290.776 526.17 290.866 526.41 290.866 526.8 290.836 527.04 290.686 527.16 290.386 527.16 290.356 527.19 290.326 527.19 290.296 527.19 290.266 527.19 290.236 527.19 290.236V290.206 288.766H526.65V290.116C526.65 290.176 526.62 290.206 526.56 290.266 526.53 290.296 526.44 290.296 526.38 290.296Z" fill-rule="evenodd"/><path transform="matrix(1,0,0,-1,0,595.276)" d="M513.99 284.836V284.416H518.07V284.836Z" fill-rule="evenodd"/><path transform="matrix(1,0,0,-1,0,595.276)" d="M519.6 285.976H521.31L521.07 285.406H520.02V282.496H520.5V282.706H522.6V282.496H523.05V285.406H521.55L521.76 285.976H523.53V286.366H519.6V285.976ZM520.5 284.296V285.016H522.6V284.296H520.5ZM520.5 283.126V283.906H522.6V283.126H520.5Z" fill-rule="evenodd"/><path transform="matrix(1,0,0,-1,0,595.276)" d="M525.72 286.096 525.42 285.856 525.78 285.496 526.08 285.106 526.5 285.376 526.14 285.766Z" fill-rule="evenodd"/><path transform="matrix(1,0,0,-1,0,595.276)" d="M525.03 284.566H526.65L526.32 284.146 525.96 283.786 525.51 283.426 524.97 283.126 525.36 282.766 525.87 283.126 526.29 283.516 526.62 283.876 526.86 284.206V282.406H527.31V284.266L527.64 283.786 528 283.396 528.36 283.036 528.75 282.766 529.14 283.156 528.66 283.456 528.21 283.786 527.82 284.146 527.49 284.566H529.11V285.016H527.31V286.336L527.37 286.426 527.4 286.486 527.34 286.516 527.22 286.546H526.86V285.016H525.03Z" fill-rule="evenodd"/><path transform="matrix(1,0,0,-1,0,595.276)" d="M527.67 285.346 528.09 285.136 528.66 285.766 528.72 285.856V285.946L528.33 286.096 528.03 285.676Z" fill-rule="evenodd"/><path transform="matrix(1,0,0,-1,0,595.276)" d="M516.75 296.656V296.296H518.07V295.456H516.81V293.566 293.386L516.9 293.236 517.02 293.176 517.2 293.146H518.04L518.31 293.206 518.52 293.386 518.64 293.686 518.7 294.076 518.31 294.196 518.28 293.896 518.22 293.686 518.1 293.566 517.95 293.536H517.35L517.26 293.596 517.23 293.746V295.066H518.07V294.856H518.46V296.656Z" fill-rule="evenodd"/><path transform="matrix(1,0,0,-1,0,595.276)" d="M518.49 295.306 518.85 295.036 519.12 295.486 519.33 295.936H520.17L520.14 295.396 520.08 294.946 519.99 294.556 519.87 294.226 519.72 294.496 519.6 294.766 519.51 295.066 519.48 295.396 519.12 295.336 519.18 294.946 519.27 294.556 519.42 294.196 519.6 293.866 519.39 293.656 519.18 293.506 518.91 293.416 518.64 293.326 518.94 292.936 519.48 293.206 519.9 293.506 520.23 293.206 520.59 292.906 520.92 293.266 520.5 293.536 520.17 293.866 520.35 294.286 520.5 294.796 520.56 295.336 520.59 295.936H520.86V296.356H519.42L519.54 296.806 519.6 296.866 519.63 296.926 519.57 296.986 519.45 297.016 519.21 297.076 519.09 296.536 518.91 296.056 518.73 295.636Z" fill-rule="evenodd"/><path transform="matrix(1,0,0,-1,0,595.276)" d="M522.72 297.046 522.42 296.776 522.72 296.596 522.99 296.386 523.23 296.686 522.99 296.896Z" fill-rule="evenodd"/><path transform="matrix(1,0,0,-1,0,595.276)" d="M522.48 296.206 522.21 295.936 522.81 295.516 523.08 295.786Z" fill-rule="evenodd"/><path transform="matrix(1,0,0,-1,0,595.276)" d="M522.27 295.126V294.706H522.81V293.836L522.18 293.386 522.51 292.996 522.96 293.506 523.08 293.296 523.38 293.116 523.8 293.026 524.4 292.966H526.32L526.44 293.326H524.55L523.98 293.356 523.59 293.476 523.32 293.656 523.23 293.926V295.126Z" fill-rule="evenodd"/><path transform="matrix(1,0,0,-1,0,595.276)" d="M524.22 297.046 523.92 296.866 524.22 296.446H523.53V296.086H524.61L524.49 295.786H523.8V293.566H524.22V293.686H525.54V293.536H525.96V295.786H524.91L525.06 296.086H526.23V296.446H525.48L525.9 297.016 525.48 297.106 525 296.446H524.52L524.61 296.536 524.22 297.046ZM524.22 294.016V294.256H525.54V294.016H524.22ZM524.22 294.556V294.826H525.54V294.556H524.22ZM524.22 295.156V295.426H525.54V295.156H524.22Z" fill-rule="evenodd"/></g></svg>