<?xml version='1.0' encoding='UTF-8'?>
<svg width="509.46" height="260.16" viewBox="29.52 6.63 509.46 260.16" xmlns="http://www.w3.org/2000/svg" xmlns:xlink="http://www.w3.org/1999/xlink" xmlns:inkscape="http://www.inkscape.org/namespaces/inkscape" version="1.1"><g transform="scale(10.0) translate(-165.765, -558.864)"><defs><clipPath id="clip_14"><path transform="matrix(1,0,0,-1,0,595.276)" d="M19.8 .046H822.06V595.276H19.8Z"/></clipPath></defs><path transform="matrix(1,0,0,-1,0,595.276)" d="M172.2 35.176H216.18C216.51 35.176 216.87 35.116 217.23 34.996 217.59 34.846 217.95 34.636 218.22 34.336 218.52 34.036 218.73 33.706 218.88 33.346 219.03 32.986 219.09 32.626 219.09 32.266V13.216C219.09 12.856 219.03 12.496 218.88 12.136 218.73 11.776 218.52 11.446 218.22 11.146 217.95 10.846 217.59 10.636 217.23 10.486 216.87 10.366 216.51 10.306 216.18 10.306H172.2C171.84 10.306 171.48 10.366 171.12 10.486 170.76 10.636 170.43 10.846 170.13 11.146 169.86 11.446 169.62 11.776 169.5 12.136 169.35 12.496 169.29 12.856 169.29 13.216V32.266C169.29 32.626 169.35 32.986 169.5 33.346 169.62 33.706 169.86 34.036 170.13 34.336 170.43 34.636 170.76 34.846 171.12 34.996 171.48 35.116 171.84 35.176 172.2 35.176Z" fill="#ffffff" fill-rule="evenodd"/><path transform="matrix(1,0,0,-1,0,595.276)" d="M172.2 33.736H216.18C216.51 33.736 216.9 33.616 217.2 33.316 217.5 33.016 217.62 32.626 217.62 32.266V13.216C217.62 12.856 217.5 12.466 217.2 12.166 216.9 11.866 216.51 11.746 216.18 11.746H172.2C171.84 11.746 171.45 11.866 171.18 12.166 170.88 12.466 170.73 12.856 170.73 13.216V32.266C170.73 32.626 170.88 33.016 171.18 33.316 171.45 33.616 171.84 33.736 172.2 33.736Z" fill="#0000ff" fill-rule="evenodd"/><path transform="matrix(1,0,0,-1,0,595.276)" d="M180.39 15.076H181.35L181.17 18.466 179.76 22.276 179.97 24.646 180.54 24.046 182.34 22.516 182.79 23.206 181.23 24.646 180.75 26.026C180.6 26.416 180.33 26.776 179.97 27.046 179.58 27.316 179.16 27.466 178.74 27.496 178.32 27.526 177.9 27.436 177.48 27.226 177.09 27.016 176.76 26.686 176.55 26.326L175.89 25.306 175.32 22.096 176.07 21.796 176.85 24.886 177.36 25.396 175.65 18.886 174.18 16.516 174.9 15.736 177.54 19.306 178.32 21.136 179.76 18.526 180.39 15.076Z" fill="#ffffff" fill-rule="evenodd"/><path transform="matrix(.03,0,0,.03,0,0)" stroke-width="5" stroke-linecap="round" stroke-linejoin="round" fill="none" stroke="#e1e1e1" d="M6232 18935 6277 18889"/><path transform="matrix(.03,0,0,.03,0,0)" stroke-width="5" stroke-linecap="round" stroke-linejoin="round" fill="none" stroke="#e1e1e1" d="M6530 19070 6540 19060"/><path transform="matrix(1,0,0,-1,0,595.276)" d="M214.68 18.916 210.84 15.076 207 18.916V22.756L209.58 20.176V30.406H212.13V20.176L214.68 22.756Z" fill="#ffffff" fill-rule="evenodd"/><path transform="matrix(1,0,0,-1,0,595.276)" d="M195.15 14.596C196.44 14.596 197.7 14.806 198.9 15.226 200.1 15.646 201.18 16.246 202.08 16.996 202.98 17.746 203.7 18.646 204.21 19.636 204.69 20.626 204.96 21.676 204.96 22.756 204.96 23.806 204.69 24.856 204.21 25.846 203.7 26.836 202.98 27.736 202.08 28.486 201.18 29.266 200.1 29.866 198.9 30.256 197.7 30.676 196.44 30.886 195.15 30.886 193.86 30.886 192.57 30.676 191.37 30.256 190.2 29.866 189.12 29.266 188.19 28.486 187.29 27.736 186.57 26.836 186.06 25.846 185.58 24.856 185.34 23.806 185.34 22.756 185.34 21.676 185.58 20.626 186.06 19.636 186.57 18.646 187.29 17.746 188.19 16.996 189.12 16.246 190.2 15.646 191.37 15.226 192.57 14.806 193.86 14.596 195.15 14.596Z" fill="#ff0000" fill-rule="evenodd"/><path transform="matrix(1,0,0,-1,0,595.276)" d="M194.37 20.536C193.74 20.356 193.14 19.996 192.69 19.456 192.24 18.916 191.97 18.256 191.91 17.596H190.23C190.26 18.106 190.38 18.646 190.59 19.156 190.8 19.666 191.1 20.176 191.49 20.596 191.88 21.016 192.36 21.346 192.84 21.586 193.35 21.856 193.86 21.976 194.37 22.066V23.446C193.86 23.506 193.35 23.656 192.84 23.896 192.36 24.136 191.88 24.466 191.49 24.916 191.1 25.336 190.8 25.816 190.59 26.326 190.38 26.836 190.26 27.376 190.23 27.886H191.91C191.97 27.226 192.24 26.596 192.69 26.086 193.14 25.606 193.71 25.276 194.37 25.126V28.186H195.9V25.126C196.56 25.276 197.16 25.606 197.58 26.086 198.03 26.596 198.3 27.226 198.36 27.886H200.04C200.01 27.376 199.92 26.836 199.68 26.326 199.47 25.816 199.17 25.336 198.78 24.916 198.39 24.466 197.94 24.136 197.43 23.896 196.92 23.656 196.41 23.506 195.9 23.446V22.066C196.41 21.976 196.92 21.856 197.43 21.586 197.94 21.346 198.39 21.016 198.78 20.596 199.17 20.176 199.47 19.666 199.68 19.156 199.92 18.646 200.01 18.106 200.04 17.596H198.36C198.3 18.286 198.03 18.946 197.58 19.456 197.16 19.966 196.56 20.356 195.9 20.536V17.296H194.37V20.536Z" fill="#ffffff" fill-rule="evenodd"/><path transform="matrix(1,0,0,-1,0,595.276)" d="M180.06 29.176C180.06 29.506 179.94 29.806 179.7 30.046 179.49 30.286 179.16 30.406 178.86 30.406 178.53 30.406 178.2 30.286 177.99 30.046 177.75 29.806 177.63 29.506 177.63 29.176 177.63 28.846 177.75 28.546 177.99 28.306 178.2 28.066 178.53 27.946 178.86 27.946 179.16 27.946 179.49 28.066 179.7 28.306 179.94 28.546 180.06 28.846 180.06 29.176Z" fill="#ffffff" fill-rule="evenodd"/><path transform="matrix(.03,0,0,.03,0,0)" stroke-width="5" stroke-linecap="round" stroke-linejoin="round" fill="none" stroke="#0000ff" d="M7206 18670H5740C5714 18670 5689 18680 5671 18698 5653 18716 5643 18741 5643 18767V19402C5643 19428 5653 19453 5671 19471 5689 19489 5714 19499 5740 19499H7206C7231 19499 7256 19489 7274 19471 7292 19453 7303 19428 7303 19402V18767C7303 18741 7292 18716 7274 18698 7256 18680 7231 18670 7206 18670"/></g></svg>