<?xml version='1.0' encoding='UTF-8'?>
<svg width="305.69" height="251.39" viewBox="131.55 11.04 305.69 251.39" xmlns="http://www.w3.org/2000/svg" xmlns:xlink="http://www.w3.org/1999/xlink" xmlns:inkscape="http://www.inkscape.org/namespaces/inkscape" version="1.1"><g transform="scale(10.0) translate(-274.875, -531.936)"><defs><clipPath id="clip_14"><path transform="matrix(1,0,0,-1,0,595.276)" d="M19.8 .046H822.06V595.276H19.8Z"/></clipPath></defs><path transform="matrix(1,0,0,-1,0,595.276)" d="M316.23 61.936C316.47 61.936 316.74 61.876 316.98 61.786 317.25 61.696 317.49 61.516 317.7 61.336 317.88 61.126 318.06 60.886 318.15 60.616 318.24 60.376 318.3 60.106 318.3 59.866V39.466C318.3 39.226 318.24 38.956 318.15 38.716 318.06 38.446 317.88 38.206 317.7 38.026 317.49 37.816 317.25 37.666 316.98 37.546 316.74 37.456 316.47 37.396 316.23 37.396H296.43C296.07 37.396 295.71 37.486 295.41 37.696 295.08 37.876 294.81 38.146 294.63 38.446L288.45 49.156C288.36 49.306 288.33 49.486 288.33 49.666 288.33 49.846 288.36 50.026 288.45 50.176L294.63 60.886C294.81 61.186 295.08 61.456 295.41 61.666 295.71 61.846 296.07 61.936 296.43 61.936H316.23ZM296.43 60.886C296.07 60.886 295.71 60.706 295.53 60.376L289.35 49.666 295.53 38.956C295.62 38.806 295.74 38.686 295.92 38.566 296.07 38.476 296.25 38.446 296.43 38.446H316.23C316.47 38.446 316.74 38.536 316.95 38.746 317.16 38.956 317.25 39.226 317.25 39.466V59.866C317.25 60.106 317.16 60.376 316.95 60.586 316.74 60.796 316.47 60.886 316.23 60.886H296.43Z" fill="#0000ff" fill-rule="evenodd"/><path transform="matrix(1,0,0,-1,0,595.276)" d="M316.23 38.446H296.43C296.25 38.446 296.07 38.476 295.92 38.566 295.74 38.686 295.62 38.806 295.53 38.956L289.35 49.666 295.53 60.376C295.62 60.526 295.74 60.676 295.92 60.766 296.07 60.856 296.25 60.886 296.43 60.886H316.23C316.47 60.886 316.74 60.796 316.95 60.586 317.16 60.376 317.25 60.106 317.25 59.866V39.466C317.25 39.346 317.25 39.226 317.19 39.106 317.13 38.956 317.07 38.836 316.95 38.746 316.74 38.536 316.47 38.446 316.23 38.446Z" fill="#ffffff" fill-rule="evenodd"/><path transform="matrix(1,0,0,-1,0,595.276)" d="M302.19 59.566H315.15V39.766H302.19Z" fill="#0000ff" fill-rule="evenodd"/><path transform="matrix(1,0,0,-1,0,595.276)" d="M304.5 46.606H313.26V43.456H307.47V43.276H313.44V42.526H312.03C312.06 42.466 312.09 42.436 312.09 42.376 312.12 42.346 312.15 42.286 312.15 42.226 312.18 42.136 312.18 42.046 312.18 41.926 312.15 42.106 312.09 42.256 311.97 42.376 311.82 42.526 311.67 42.586 311.52 42.616 311.34 42.646 311.19 42.616 311.01 42.526 310.95 42.466 310.86 42.406 310.83 42.346 310.77 42.286 310.71 42.226 310.68 42.136 310.68 42.226 310.71 42.286 310.74 42.346 310.74 42.376 310.77 42.406 310.77 42.436 310.8 42.466 310.83 42.496 310.83 42.526H307.47V41.836H306.15C306.15 41.926 306.15 42.016 306.09 42.136 306.06 42.226 306 42.316 305.91 42.376 305.76 42.556 305.55 42.616 305.37 42.616 305.19 42.616 304.98 42.556 304.83 42.376 304.65 42.226 304.59 42.016 304.59 41.836H303.9V43.156C303.9 43.216 303.9 43.276 303.93 43.336 303.96 43.396 303.99 43.456 304.02 43.516L305.37 45.496H304.5V46.606ZM305.31 45.226 304.5 44.056C304.47 44.026 304.47 43.996 304.47 43.966 304.47 43.936 304.47 43.906 304.5 43.876 304.5 43.846 304.53 43.846 304.56 43.816 304.59 43.786 304.62 43.786 304.65 43.786H306.12V45.226H305.31Z" fill="#ffffff" fill-rule="evenodd"/><path transform="matrix(1,0,0,-1,0,595.276)" d="M312.09 41.836C312.09 42.196 311.79 42.526 311.4 42.526 311.01 42.526 310.71 42.196 310.71 41.836 310.71 41.446 311.01 41.146 311.4 41.146 311.79 41.146 312.09 41.446 312.09 41.836ZM311.73 41.836C311.73 41.656 311.58 41.506 311.4 41.506 311.22 41.506 311.07 41.656 311.07 41.836 311.07 42.016 311.22 42.166 311.4 42.166 311.58 42.166 311.73 42.016 311.73 41.836Z" fill="#ffffff" fill-rule="evenodd"/><path transform="matrix(1,0,0,-1,0,595.276)" d="M307.65 41.926H309.36V42.436H307.65Z" fill="#ffffff" fill-rule="evenodd"/><path transform="matrix(1,0,0,-1,0,595.276)" d="M306.06 41.836C306.06 42.196 305.76 42.526 305.37 42.526 304.98 42.526 304.68 42.196 304.68 41.836 304.68 41.446 304.98 41.146 305.37 41.146 305.76 41.146 306.06 41.446 306.06 41.836ZM305.7 41.836C305.7 41.656 305.55 41.506 305.37 41.506 305.19 41.506 305.04 41.656 305.04 41.836 305.04 42.016 305.19 42.166 305.37 42.166 305.55 42.166 305.7 42.016 305.7 41.836Z" fill="#ffffff" fill-rule="evenodd"/><path transform="matrix(1,0,0,-1,0,595.276)" d="M307.05 52.066H309.69C310.05 52.066 310.44 52.126 310.83 52.276 311.22 52.426 311.55 52.636 311.85 52.966 312.18 53.266 312.39 53.596 312.54 53.986 312.69 54.376 312.75 54.766 312.75 55.126 312.75 55.936 312.45 56.716 311.85 57.286 311.28 57.856 310.5 58.186 309.69 58.186H304.59V47.956H307.05V52.066ZM307.05 53.686V56.536H309.09C309.39 56.536 309.69 56.446 309.96 56.176 310.2 55.936 310.32 55.606 310.32 55.336V54.916C310.32 54.616 310.2 54.286 309.96 54.046 309.69 53.806 309.39 53.686 309.09 53.686H307.05Z" fill="#ffffff" fill-rule="evenodd"/><path transform="matrix(1,0,0,-1,0,595.276)" d="M301.14 59.866H297.63L291.75 49.666 297.63 39.466H301.14L295.26 49.666Z" fill-rule="evenodd"/></g></svg>