<?xml version='1.0' encoding='UTF-8'?>
<svg width="154.48" height="260.38" viewBox="206.86 6.73 154.48 260.38" xmlns="http://www.w3.org/2000/svg" xmlns:xlink="http://www.w3.org/1999/xlink" xmlns:inkscape="http://www.inkscape.org/namespaces/inkscape" version="1.1"><g transform="scale(10.0) translate(-56.655, -235.728)"><defs><clipPath id="clip_14"><path transform="matrix(1,0,0,-1,0,595.276)" d="M19.8 .046H822.06V595.276H19.8Z"/></clipPath></defs><path transform="matrix(1,0,0,-1,0,595.276)" d="M79.77 333.166H90.36C90.6 333.166 90.87 333.226 91.14 333.316 91.38 333.406 91.65 333.586 91.83 333.796 92.04 334.006 92.22 334.246 92.31 334.516 92.43 334.756 92.46 335.026 92.46 335.296V356.446C92.46 356.686 92.43 356.956 92.31 357.226 92.22 357.466 92.04 357.706 91.83 357.916 91.65 358.126 91.38 358.306 91.14 358.396 90.87 358.516 90.6 358.546 90.36 358.546H79.77C79.53 358.546 79.26 358.516 78.99 358.396 78.72 358.306 78.48 358.126 78.27 357.916 78.06 357.706 77.91 357.466 77.82 357.226 77.7 356.956 77.67 356.686 77.67 356.446V335.296C77.67 334.726 77.88 334.186 78.27 333.796 78.66 333.376 79.2 333.166 79.77 333.166Z" fill="#ffffff" fill-rule="evenodd"/><path transform="matrix(1,0,0,-1,0,595.276)" d="M79.77 333.706H90.36C90.54 333.706 90.75 333.736 90.93 333.796 91.14 333.886 91.32 334.006 91.47 334.156 91.62 334.306 91.74 334.486 91.83 334.696 91.89 334.906 91.92 335.086 91.92 335.296V356.446C91.92 356.626 91.89 356.806 91.83 357.016 91.74 357.226 91.62 357.406 91.47 357.556 91.32 357.706 91.14 357.826 90.93 357.916 90.75 357.976 90.54 358.006 90.36 358.006H79.77C79.59 358.006 79.38 357.976 79.2 357.916 78.99 357.826 78.81 357.706 78.66 357.556 78.48 357.406 78.39 357.226 78.3 357.016 78.21 356.806 78.18 356.626 78.18 356.446V335.296C78.18 334.846 78.36 334.456 78.66 334.156 78.96 333.856 79.35 333.706 79.77 333.706Z" fill="#0000ff" fill-rule="evenodd"/><path transform="matrix(1,0,0,-1,0,595.276)" d="M89.91 349.516 79.23 344.086 80.19 342.196 90.87 347.626Z" fill="#ffffff" fill-rule="evenodd"/><path transform="matrix(1,0,0,-1,0,595.276)" d="M89.91 344.236 79.23 338.806 80.19 336.916 90.87 342.346Z" fill="#ffffff" fill-rule="evenodd"/><path transform="matrix(.03,0,0,.03,0,0)" stroke-width="5" stroke-linecap="round" stroke-linejoin="round" fill="none" stroke="#0000ff" d="M3082 7961V8666C3082 8685 3075 8703 3061 8716 3048 8730 3030 8737 3012 8737H2659C2640 8737 2622 8730 2609 8716 2596 8703 2589 8685 2589 8666V7961C2589 7943 2596 7925 2609 7912 2622 7898 2640 7891 2659 7891H3012C3030 7891 3048 7898 3061 7912 3075 7925 3082 7943 3082 7961"/></g></svg>