<?xml version='1.0' encoding='UTF-8'?>
<svg width="433.60" height="256.60" viewBox="67.60 11.23 433.60 256.60" xmlns="http://www.w3.org/2000/svg" xmlns:xlink="http://www.w3.org/1999/xlink" xmlns:inkscape="http://www.inkscape.org/namespaces/inkscape" version="1.1"><g transform="scale(10.0) translate(-274.875, -316.512)"><defs><clipPath id="clip_14"><path transform="matrix(1,0,0,-1,0,595.276)" d="M19.8 .046H822.06V595.276H19.8Z"/></clipPath></defs><path transform="matrix(1,0,0,-1,0,595.276)" d="M290.55 277.216H321.87C322.2 277.216 322.53 277.156 322.86 277.006 323.22 276.886 323.52 276.676 323.79 276.406 324.06 276.166 324.24 275.836 324.39 275.506 324.51 275.176 324.57 274.846 324.57 274.516V255.106C324.57 254.776 324.51 254.446 324.39 254.116 324.24 253.786 324.06 253.456 323.79 253.186 323.52 252.916 323.22 252.736 322.86 252.586 322.53 252.466 322.2 252.406 321.87 252.406H290.55C290.1 252.406 289.65 252.526 289.23 252.766 288.78 253.006 288.45 253.366 288.24 253.756L282.24 264.136C282.12 264.346 282.06 264.556 282.06 264.796 282.06 265.066 282.12 265.276 282.24 265.486L288.24 275.866C288.45 276.256 288.78 276.616 289.23 276.856 289.65 277.096 290.1 277.216 290.55 277.216ZM290.55 275.866C290.07 275.866 289.65 275.596 289.41 275.176L283.41 264.796 289.41 254.416C289.65 253.996 290.07 253.756 290.55 253.756H321.87C322.2 253.756 322.56 253.876 322.83 254.146 323.1 254.416 323.22 254.776 323.22 255.106V274.516C323.22 274.666 323.19 274.846 323.13 275.026 323.07 275.176 322.98 275.326 322.83 275.476 322.56 275.746 322.2 275.866 321.87 275.866H290.55Z" fill="#0000ff" fill-rule="evenodd"/><path transform="matrix(1,0,0,-1,0,595.276)" d="M290.55 275.866H321.87C322.05 275.866 322.2 275.836 322.38 275.776 322.53 275.716 322.71 275.596 322.83 275.476 322.98 275.326 323.07 275.176 323.13 275.026 323.19 274.846 323.22 274.666 323.22 274.516V255.106C323.22 254.776 323.1 254.416 322.83 254.146 322.56 253.876 322.2 253.756 321.87 253.756H290.55C290.34 253.756 290.1 253.816 289.89 253.936 289.68 254.056 289.5 254.236 289.41 254.416L283.41 264.796 289.41 275.176C289.5 275.386 289.68 275.566 289.89 275.686 290.1 275.806 290.34 275.866 290.55 275.866Z" fill="#ffffff" fill-rule="evenodd"/><path transform="matrix(1,0,0,-1,0,595.276)" d="M300.66 272.356H302.04V273.376H298.23V272.356H299.61V268.426H300.66Z" fill-rule="evenodd"/><path transform="matrix(1,0,0,-1,0,595.276)" d="M305.88 270.196C305.88 271.426 305.25 272.146 304.11 272.146 303 272.146 302.37 271.426 302.37 270.196 302.37 269.596 302.52 269.086 302.82 268.756 303.12 268.396 303.57 268.246 304.11 268.246 305.25 268.246 305.88 268.936 305.88 270.196ZM304.86 270.196C304.86 269.566 304.59 269.236 304.11 269.236 303.9 269.236 303.72 269.326 303.6 269.476 303.45 269.656 303.39 269.896 303.39 270.196 303.39 270.796 303.66 271.156 304.11 271.156 304.59 271.156 304.86 270.796 304.86 270.196Z" fill-rule="evenodd"/><path transform="matrix(1,0,0,-1,0,595.276)" d="M307.35 268.426V271.966H306.42V268.426Z" fill-rule="evenodd"/><path transform="matrix(1,0,0,-1,0,595.276)" d="M307.44 272.896C307.44 273.226 307.2 273.466 306.9 273.466 306.57 273.466 306.33 273.226 306.33 272.896 306.33 272.596 306.57 272.326 306.9 272.326 307.2 272.326 307.44 272.596 307.44 272.896Z" fill-rule="evenodd"/><path transform="matrix(1,0,0,-1,0,595.276)" d="M309.21 273.376V269.506 269.476 269.356 269.326C309.27 269.236 309.48 269.236 309.84 269.296L309.96 268.426C309.96 268.396 309.9 268.366 309.75 268.336 309.57 268.336 309.39 268.306 309.21 268.306 308.97 268.306 308.76 268.366 308.58 268.486 308.4 268.606 308.28 268.786 308.25 268.966 308.25 269.026 308.25 269.056 308.25 269.086 308.25 269.116 308.25 269.176 308.25 269.176V269.206 273.376H309.21Z" fill-rule="evenodd"/><path transform="matrix(1,0,0,-1,0,595.276)" d="M313.71 269.836C313.77 271.306 313.2 272.086 312.03 272.146 311.07 272.116 310.53 271.486 310.44 270.226 310.44 269.686 310.56 269.266 310.83 268.906 311.01 268.696 311.22 268.546 311.49 268.426 311.73 268.306 312 268.246 312.24 268.246 312.51 268.246 312.81 268.306 313.08 268.426 313.35 268.546 313.53 268.726 313.62 268.906L313.02 269.506C312.96 269.386 312.84 269.296 312.69 269.236 312.54 269.176 312.39 269.146 312.24 269.146 312.06 269.146 311.85 269.176 311.7 269.326 311.61 269.416 311.55 269.476 311.52 269.566 311.49 269.656 311.46 269.776 311.46 269.836H313.71ZM311.43 270.586V270.616C311.43 270.766 311.49 270.916 311.64 271.066 311.79 271.186 311.94 271.246 312.09 271.246 312.24 271.246 312.39 271.186 312.51 271.096 312.63 270.976 312.72 270.826 312.75 270.706V270.676L312.78 270.616V270.586H311.43Z" fill-rule="evenodd"/><path transform="matrix(1,0,0,-1,0,595.276)" d="M315.75 271.966H316.65V271.126H315.75V269.536C315.75 269.416 315.78 269.326 315.84 269.266 315.9 269.206 315.99 269.146 316.11 269.146 316.17 269.146 316.26 269.146 316.35 269.146 316.44 269.176 316.53 269.206 316.65 269.236L316.8 268.426C316.62 268.276 316.26 268.216 315.75 268.216 315.48 268.216 315.24 268.306 315.06 268.456 314.91 268.606 314.82 268.846 314.79 269.146V271.126H314.19V271.966H314.79V273.106L315.75 273.406V271.966Z" fill-rule="evenodd"/><path transform="matrix(1,0,0,-1,0,595.276)" d="M320.34 269.506C320.37 270.196 319.98 270.616 319.17 270.736 318.9 270.736 318.72 270.766 318.6 270.826 318.48 270.856 318.42 270.916 318.42 271.006 318.42 271.096 318.45 271.186 318.54 271.216 318.63 271.276 318.75 271.306 318.93 271.336 319.08 271.306 319.23 271.276 319.38 271.216 319.5 271.156 319.62 271.036 319.71 270.916L320.28 271.606C320.04 271.966 319.59 272.176 318.96 272.206 317.97 272.176 317.43 271.756 317.4 270.916 317.46 270.286 317.82 269.926 318.48 269.836 319.02 269.806 319.29 269.686 319.29 269.446 319.29 269.356 319.26 269.296 319.2 269.236 319.11 269.176 319.02 269.146 318.87 269.146 318.69 269.146 318.48 269.206 318.33 269.296 318.15 269.356 318 269.476 317.85 269.656L317.16 268.966C317.55 268.486 318.12 268.246 318.84 268.246 319.29 268.246 319.68 268.366 319.95 268.576 320.22 268.816 320.34 269.116 320.34 269.506Z" fill-rule="evenodd"/><path transform="matrix(1,0,0,-1,0,595.276)" d="M291.09 264.796 296.7 255.106H292.11L286.5 264.796 292.11 274.516H296.7Z" fill-rule="evenodd"/><path transform="matrix(1,0,0,-1,0,595.276)" d="M301.5 263.296 300.96 263.356 300.72 262.606 300.33 261.916 299.79 261.286 299.1 260.746 299.76 260.236 300.42 260.806 300.99 261.436 301.38 262.126 301.68 262.936 301.86 263.056 301.89 263.146 301.77 263.236Z" fill-rule="evenodd"/><path transform="matrix(1,0,0,-1,0,595.276)" d="M302.76 261.526 302.22 261.796 301.56 259.936 300.81 258.346 299.73 258.256 299.85 257.536 299.94 257.326 300.03 257.206 300.12 257.266 300.24 257.416 304.89 257.986 305.31 257.236 306.03 257.686 305.67 258.346 305.25 259.006 304.74 259.666 304.17 260.296 303.6 259.876 304.53 258.616 301.68 258.376 302.85 261.076 303.06 261.166 303.09 261.256 303 261.376Z" fill-rule="evenodd"/><path transform="matrix(1,0,0,-1,0,595.276)" d="M301.74 264.196 301.8 263.506H303.48L303.66 262.726 304.11 261.916 304.86 261.076 305.91 260.266 306.69 260.776 306.12 261.136 305.64 261.526 305.22 261.916 304.89 262.336 304.62 262.786 304.41 263.236 304.29 263.716 304.26 264.196Z" fill-rule="evenodd"/><path transform="matrix(1,0,0,-1,0,595.276)" d="M309.63 263.836V261.136L309.57 260.056 309.42 259.126 309.21 258.286 308.91 257.596 309.66 257.236 310.08 258.466 310.32 259.846 310.41 261.376 310.35 263.176H316.2V263.836H313.38V264.166L313.5 264.256 313.53 264.376 313.47 264.436 313.29 264.496 312.6 264.556V263.836Z" fill-rule="evenodd"/><path transform="matrix(1,0,0,-1,0,595.276)" d="M310.89 262.666V258.796H313.44V262.666H310.89ZM311.64 261.586V262.066H312.72V261.586H311.64ZM311.64 260.506V260.986H312.72V260.506H311.64ZM311.64 259.456V259.936H312.72V259.456H311.64Z" fill-rule="evenodd"/><path transform="matrix(1,0,0,-1,0,595.276)" d="M311.85 258.436 311.4 258.676 310.89 258.106 310.35 257.716 310.86 257.206 311.4 257.626 311.85 258.106V258.076L312 258.136 312.03 258.226 312 258.316Z" fill-rule="evenodd"/><path transform="matrix(1,0,0,-1,0,595.276)" d="M312.84 258.646 312.36 258.286 312.78 257.836 313.26 257.236 313.8 257.686 313.38 258.196Z" fill-rule="evenodd"/><path transform="matrix(1,0,0,-1,0,595.276)" d="M315.24 262.906V258.436L315.21 258.196 315.15 258.016 315.03 257.926 314.88 257.896H314.25L314.55 257.206H315L315.45 257.296 315.69 257.386 315.87 257.536 315.96 257.806 315.99 258.106V262.576L316.11 262.666 316.14 262.726 316.11 262.786 315.96 262.846Z" fill-rule="evenodd"/><path transform="matrix(1,0,0,-1,0,595.276)" d="M313.95 262.486V258.796H314.73V262.156L314.82 262.246 314.85 262.336 314.82 262.396 314.67 262.456Z" fill-rule="evenodd"/></g></svg>