<?xml version='1.0' encoding='UTF-8'?>
<svg width="371.18" height="256.28" viewBox="98.57 8.84 371.18 256.28" xmlns="http://www.w3.org/2000/svg" xmlns:xlink="http://www.w3.org/1999/xlink" xmlns:inkscape="http://www.inkscape.org/namespaces/inkscape" version="1.1"><g transform="scale(10.0) translate(-329.439, -181.872)"><defs><clipPath id="clip_14"><path transform="matrix(1,0,0,-1,0,595.276)" d="M74.37 .046H767.49V595.276H74.37Z"/></clipPath></defs><path transform="matrix(1,0,0,-1,0,595.276)" d="M341.13 412.156H374.61C374.79 412.156 374.97 412.126 375.15 412.066 375.33 411.976 375.48 411.886 375.63 411.736 375.78 411.586 375.9 411.406 375.96 411.226 376.02 411.046 376.05 410.866 376.05 410.686V388.726C376.05 388.366 375.93 387.976 375.63 387.676 375.33 387.376 374.97 387.256 374.61 387.256H341.13C340.77 387.256 340.41 387.376 340.11 387.676 339.81 387.976 339.66 388.366 339.66 388.726V410.686C339.66 411.046 339.81 411.436 340.11 411.736 340.41 412.036 340.77 412.156 341.13 412.156ZM341.13 411.436C340.74 411.436 340.41 411.106 340.41 410.686V388.726C340.41 388.546 340.47 388.336 340.62 388.186 340.77 388.036 340.95 387.976 341.13 387.976H374.61C374.79 387.976 374.97 388.036 375.12 388.186 375.27 388.336 375.33 388.546 375.33 388.726V410.686C375.33 410.776 375.33 410.866 375.27 410.956 375.24 411.046 375.18 411.136 375.12 411.226 374.97 411.376 374.79 411.436 374.61 411.436H341.13Z" fill-rule="evenodd"/><path transform="matrix(1,0,0,-1,0,595.276)" d="M341.13 411.436H374.61C374.79 411.436 374.97 411.376 375.12 411.226 375.27 411.076 375.33 410.866 375.33 410.686V388.726C375.33 388.636 375.33 388.546 375.27 388.456 375.24 388.366 375.18 388.276 375.12 388.186 375.06 388.126 374.97 388.066 374.88 388.036 374.79 388.006 374.7 387.976 374.61 387.976H341.13C340.95 387.976 340.77 388.036 340.62 388.186 340.47 388.336 340.41 388.546 340.41 388.726V410.686C340.41 411.106 340.74 411.436 341.13 411.436Z" fill="#ffffff" fill-rule="evenodd"/><path transform="matrix(1,0,0,-1,0,595.276)" d="M345.57 405.436C345.54 405.346 345.6 405.256 345.72 405.166 345.87 405.106 346.08 405.046 346.35 405.016 347.28 404.866 347.76 404.446 347.76 403.696 347.73 402.856 347.19 402.406 346.17 402.406 345.72 402.406 345.36 402.496 345.06 402.616 344.73 402.736 344.46 402.946 344.25 403.216L344.97 403.756C345.36 403.396 345.75 403.216 346.17 403.216 346.59 403.216 346.8 403.396 346.8 403.696 346.8 403.966 346.5 404.116 345.9 404.176 345.12 404.266 344.67 404.686 344.58 405.376 344.64 406.246 345.18 406.696 346.2 406.696 346.53 406.696 346.86 406.636 347.13 406.516 347.37 406.426 347.61 406.246 347.82 406.036L347.22 405.466C346.86 405.736 346.5 405.886 346.2 405.886 345.81 405.856 345.57 405.736 345.57 405.436Z" fill-rule="evenodd"/><path transform="matrix(1,0,0,-1,0,595.276)" d="M350.52 405.436H351.3V402.496H350.46V402.646C350.46 402.586 350.37 402.526 350.22 402.496 350.07 402.436 349.92 402.406 349.77 402.406 349.47 402.406 349.2 402.496 348.96 402.676 348.75 402.886 348.66 403.126 348.66 403.366V405.436H349.44V403.636C349.44 403.546 349.5 403.426 349.62 403.336 349.71 403.246 349.86 403.186 349.95 403.186 350.07 403.186 350.22 403.246 350.34 403.366 350.46 403.486 350.52 403.606 350.52 403.756V405.436Z" fill-rule="evenodd"/><path transform="matrix(1,0,0,-1,0,595.276)" d="M352.11 402.556V405.496H352.86V405.196C352.92 405.346 353.04 405.436 353.19 405.496 353.34 405.556 353.55 405.586 353.79 405.586V404.776C353.52 404.746 353.31 404.686 353.16 404.596 353.01 404.506 352.92 404.386 352.89 404.266V402.556H352.11Z" fill-rule="evenodd"/><path transform="matrix(1,0,0,-1,0,595.276)" d="M355.05 402.556 354.09 405.436H354.93L355.53 403.486 356.16 405.436H357L356.04 402.556H355.53Z" fill-rule="evenodd"/><path transform="matrix(1,0,0,-1,0,595.276)" d="M359.97 403.726C360 404.896 359.55 405.526 358.62 405.586 357.84 405.556 357.39 405.046 357.3 404.026 357.3 403.606 357.42 403.246 357.63 402.946 357.78 402.796 357.96 402.646 358.17 402.556 358.38 402.466 358.59 402.436 358.77 402.406 359.01 402.406 359.25 402.466 359.46 402.556 359.67 402.646 359.82 402.796 359.91 402.946L359.43 403.426C359.37 403.336 359.28 403.276 359.16 403.216 359.04 403.186 358.89 403.156 358.77 403.156 358.65 403.126 358.47 403.186 358.35 403.306 358.29 403.366 358.23 403.426 358.2 403.486 358.17 403.576 358.14 403.636 358.14 403.726H359.97ZM358.11 404.326V404.326C358.14 404.446 358.2 404.596 358.29 404.686 358.41 404.806 358.56 404.866 358.68 404.866 358.89 404.836 359.16 404.656 359.22 404.416V404.386 404.326H358.11Z" fill-rule="evenodd"/><path transform="matrix(1,0,0,-1,0,595.276)" d="M363.18 405.436H362.37L361.8 403.696 361.26 405.436H360.42L361.29 402.766C361.32 402.706 361.32 402.616 361.35 402.586 361.35 402.526 361.35 402.466 361.35 402.436 361.35 402.346 361.29 402.286 361.23 402.286 361.14 402.286 361.05 402.286 360.96 402.286 360.87 402.316 360.81 402.316 360.72 402.346L360.6 401.686C360.93 401.596 361.23 401.536 361.56 401.536 361.65 401.536 361.77 401.596 361.86 401.686 361.95 401.806 362.04 401.926 362.1 402.076L363.18 405.436Z" fill-rule="evenodd"/><path transform="matrix(1,0,0,-1,0,595.276)" d="M364.47 402.556V405.436H363.72V402.556Z" fill-rule="evenodd"/><path transform="matrix(1,0,0,-1,0,595.276)" d="M364.56 406.186C364.56 406.456 364.35 406.666 364.11 406.666 363.84 406.666 363.66 406.456 363.66 406.186 363.66 405.946 363.84 405.736 364.11 405.736 364.35 405.736 364.56 405.946 364.56 406.186Z" fill-rule="evenodd"/><path transform="matrix(1,0,0,-1,0,595.276)" d="M367.83 402.556V404.536 404.566 404.596C367.83 405.256 367.44 405.586 366.72 405.586 366.57 405.586 366.42 405.556 366.3 405.496 366.21 405.466 366.09 405.406 366.03 405.286V405.496H365.19V402.556H366.03V404.326 404.356C366.09 404.656 366.27 404.806 366.57 404.836 366.84 404.806 366.99 404.656 367.02 404.356V404.326 404.296 404.266 402.556H367.83Z" fill-rule="evenodd"/><path transform="matrix(1,0,0,-1,0,595.276)" d="M371.25 402.436V405.436H370.44V405.316C370.44 405.466 370.14 405.586 369.81 405.586 368.94 405.526 368.52 404.986 368.52 403.996 368.61 403.126 369.03 402.676 369.78 402.646 369.9 402.646 370.05 402.646 370.17 402.706 370.29 402.736 370.38 402.796 370.38 402.856V402.676C370.35 402.406 370.23 402.256 369.96 402.256 369.84 402.226 369.69 402.256 369.51 402.316 369.33 402.346 369.12 402.436 368.88 402.556L368.52 401.896C368.85 401.686 369.39 401.506 369.87 401.476 370.71 401.446 371.19 401.806 371.25 402.436ZM370.38 404.386V403.726C370.38 403.636 370.32 403.546 370.26 403.456 370.17 403.396 370.08 403.366 369.93 403.336 369.57 403.336 369.33 403.606 369.3 404.056 369.33 404.506 369.54 404.746 369.9 404.806 370.2 404.746 370.38 404.626 370.38 404.386Z" fill-rule="evenodd"/><path transform="matrix(1,0,0,-1,0,595.276)" d="M344.1 398.416 344.49 398.866 343.68 399.436 343.29 398.986Z" fill-rule="evenodd"/><path transform="matrix(1,0,0,-1,0,595.276)" d="M343.86 396.976 344.25 397.426 343.86 397.726 343.41 397.996 342.99 397.636Z" fill-rule="evenodd"/><path transform="matrix(1,0,0,-1,0,595.276)" d="M343.11 396.406 343.14 395.896H343.83V394.636L342.96 394.096 343.26 393.646 343.35 393.556 343.41 393.526 343.44 393.556 343.47 393.646 344.07 394.216 344.25 393.976 344.52 393.796 344.88 393.676 345.33 393.586 347.07 393.526 348.84 393.556 349.05 394.246 347.04 394.156 345.18 394.246 344.88 394.306 344.64 394.456 344.52 394.666 344.46 394.966V396.406Z" fill-rule="evenodd"/><path transform="matrix(1,0,0,-1,0,595.276)" d="M344.31 397.576 344.88 397.276 345.24 397.666V394.396H345.75V394.696H348.84V395.206H347.37V395.836H348.57V396.286H347.4V396.886H348.57V397.366H347.37V397.936H348.78V398.476H347.46L347.76 398.896 347.88 398.926 347.91 398.986 347.85 399.076 347.7 399.136 347.34 399.316 346.83 398.476H345.84L346.23 398.956 346.35 399.016 346.38 399.076 346.32 399.166 346.17 399.226 345.66 399.406 345.39 398.896 345.09 398.416 344.7 397.996 344.31 397.576ZM345.75 397.366V397.936H346.8V397.366H345.75ZM345.75 396.286V396.886H346.8V396.286H345.75ZM345.75 395.206V395.836H346.8V395.206H345.75Z" fill-rule="evenodd"/><path transform="matrix(1,0,0,-1,0,595.276)" d="M351 397.966 351.63 397.636 352.35 398.176 353.1 398.806 353.22 398.896 353.25 398.956V399.016L353.16 399.046 352.62 399.256 351.84 398.506Z" fill-rule="evenodd"/><path transform="matrix(1,0,0,-1,0,595.276)" d="M350.91 395.986 351.48 395.656 352.08 396.226V393.406H352.71V396.916L353.01 397.336 353.31 397.666 353.43 397.756 353.46 397.816 353.43 397.906 353.31 397.936 352.83 398.086 352.38 397.486 351.93 396.916 351.42 396.406Z" fill-rule="evenodd"/><path transform="matrix(1,0,0,-1,0,595.276)" d="M353.88 398.956V398.356H356.49V398.956Z" fill-rule="evenodd"/><path transform="matrix(1,0,0,-1,0,595.276)" d="M355.26 396.616V394.576 394.396L355.2 394.246 355.11 394.156 354.99 394.096H354.24L354.51 393.436H354.84 355.11L355.35 393.496 355.56 393.556 355.71 393.676 355.83 393.826 355.92 394.006 355.95 394.216V394.456 396.616H356.94V397.186H353.34V396.616Z" fill-rule="evenodd"/><path transform="matrix(1,0,0,-1,0,595.276)" d="M359.52 399.256 359.13 398.806 359.64 398.476 360.09 398.146 360.42 398.536 360 398.926Z" fill-rule="evenodd"/><path transform="matrix(1,0,0,-1,0,595.276)" d="M359.28 397.636 358.89 397.186 359.37 396.826 359.82 396.466 360.21 396.856 359.76 397.276Z" fill-rule="evenodd"/><path transform="matrix(1,0,0,-1,0,595.276)" d="M358.83 393.916 359.22 393.586 359.34 393.526H359.4L359.43 393.586V393.736L360.27 395.386 359.94 395.776Z" fill-rule="evenodd"/><path transform="matrix(1,0,0,-1,0,595.276)" d="M360.63 399.106V394.996H362.58V399.106H360.63ZM361.2 397.876V398.626H362.04V397.876H361.2ZM361.2 396.676V397.426H362.04V396.676H361.2ZM361.2 395.506V396.256H362.04V395.506H361.2Z" fill-rule="evenodd"/><path transform="matrix(1,0,0,-1,0,595.276)" d="M360.21 393.766 360.78 393.496 361.14 394.066 361.47 394.696 360.9 394.936 360.6 394.336Z" fill-rule="evenodd"/><path transform="matrix(1,0,0,-1,0,595.276)" d="M362.37 394.936 361.92 394.666 362.19 394.096 362.55 393.556 363.12 393.916 362.7 394.366Z" fill-rule="evenodd"/><path transform="matrix(1,0,0,-1,0,595.276)" d="M363.06 398.926V394.816H363.6V398.656L363.69 398.806 363.6 398.926Z" fill-rule="evenodd"/><path transform="matrix(1,0,0,-1,0,595.276)" d="M364.11 399.316V394.486L364.08 394.306 364.02 394.186 363.93 394.096H363.81 363.39L363.6 393.526 364.2 393.556 364.41 393.646 364.56 393.796 364.68 394.006 364.71 394.336V398.986L364.8 399.106V399.196L364.74 399.256 364.59 399.286Z" fill-rule="evenodd"/><path transform="matrix(1,0,0,-1,0,595.276)" d="M367.8 399.226V397.546H371.76V399.226H367.8ZM368.4 398.596V398.836H371.22V398.596H368.4ZM368.4 397.966V398.206H371.22V397.966H368.4Z" fill-rule="evenodd"/><path transform="matrix(1,0,0,-1,0,595.276)" d="M366.96 397.336V396.886H372.63V397.336Z" fill-rule="evenodd"/><path transform="matrix(1,0,0,-1,0,595.276)" d="M367.74 394.936H369.48V394.696H367.47V394.276H369.48V394.036H366.9V393.586H372.72V394.036H370.05V394.276H372.09V394.696H370.05V394.936H371.85V396.616H367.74V394.936ZM368.25 395.986V396.256H369.48V395.986H368.25ZM370.05 395.986V396.256H371.28V395.986H370.05ZM368.28 395.326V395.626H369.48V395.326H368.28ZM370.05 395.326V395.626H371.28V395.326H370.05Z" fill-rule="evenodd"/></g></svg>