<?xml version='1.0' encoding='UTF-8'?>
<svg width="490.21" height="262.51" viewBox="39.20 5.75 490.21 262.51" xmlns="http://www.w3.org/2000/svg" xmlns:xlink="http://www.w3.org/1999/xlink" xmlns:inkscape="http://www.inkscape.org/namespaces/inkscape" version="1.1"><g transform="scale(10.0) translate(-329.439, -154.944)"><defs><clipPath id="clip_14"><path transform="matrix(1,0,0,-1,0,595.276)" d="M74.37 .046H767.49V595.276H74.37Z"/></clipPath></defs><path transform="matrix(1,0,0,-1,0,595.276)" d="M380.1 439.276H335.64C335.43 439.276 335.19 439.246 334.98 439.156 334.74 439.066 334.53 438.946 334.35 438.766 334.17 438.586 334.05 438.346 333.96 438.136 333.87 437.896 333.84 437.686 333.84 437.476V415.786C333.84 415.576 333.87 415.366 333.96 415.126 334.05 414.916 334.17 414.706 334.35 414.526 334.53 414.346 334.74 414.196 334.98 414.106 335.19 414.016 335.43 413.986 335.64 413.986H380.1C380.31 413.986 380.52 414.016 380.76 414.106 380.97 414.196 381.18 414.346 381.36 414.526 381.54 414.706 381.69 414.916 381.78 415.126 381.87 415.366 381.9 415.576 381.9 415.786V437.476C381.9 437.686 381.87 437.896 381.78 438.136 381.69 438.346 381.54 438.586 381.36 438.766 381.18 438.946 380.97 439.066 380.76 439.156 380.52 439.246 380.31 439.276 380.1 439.276ZM380.1 438.376C380.31 438.376 380.55 438.286 380.73 438.106 380.91 437.926 381 437.686 381 437.476V415.786C381 415.576 380.91 415.336 380.73 415.156 380.55 414.976 380.31 414.886 380.1 414.886H335.64C335.43 414.886 335.19 414.976 335.01 415.156 334.83 415.336 334.74 415.576 334.74 415.786V437.476C334.74 437.686 334.83 437.926 335.01 438.106 335.19 438.286 335.43 438.376 335.64 438.376H380.1Z" fill-rule="evenodd"/><path transform="matrix(1,0,0,-1,0,595.276)" d="M335.64 438.376H380.1C380.19 438.376 380.31 438.346 380.43 438.316 380.52 438.256 380.64 438.196 380.73 438.106 380.82 438.016 380.88 437.926 380.94 437.806 380.97 437.686 381 437.566 381 437.476V415.786C381 415.576 380.91 415.336 380.73 415.156 380.64 415.066 380.52 415.006 380.43 414.946 380.31 414.916 380.19 414.886 380.1 414.886H335.64C335.43 414.886 335.19 414.976 335.01 415.156 334.83 415.336 334.74 415.576 334.74 415.786V437.476C334.74 437.716 334.83 437.926 335.01 438.106 335.16 438.286 335.4 438.376 335.64 438.376Z" fill="#ffffff" fill-rule="evenodd"/><path transform="matrix(1,0,0,-1,0,595.276)" d="M349.71 432.496H351.78V433.576H349.71V434.716H351.96V435.766H348.57V430.456H349.71Z" fill-rule="evenodd"/><path transform="matrix(1,0,0,-1,0,595.276)" d="M353.76 435.766V431.596 431.566 431.446 431.416C353.79 431.326 354.03 431.326 354.42 431.386L354.57 430.456C354.57 430.456 354.54 430.426 354.51 430.426 354.45 430.396 354.39 430.396 354.3 430.366 354.12 430.366 353.91 430.336 353.76 430.336 353.49 430.336 353.25 430.396 353.07 430.516 352.89 430.636 352.77 430.816 352.71 431.026 352.71 431.116 352.71 431.146 352.71 431.176 352.71 431.206 352.71 431.236 352.71 431.266V435.766H353.76Z" fill-rule="evenodd"/><path transform="matrix(1,0,0,-1,0,595.276)" d="M358.8 432.346C358.8 433.696 358.11 434.446 356.91 434.446 356.31 434.446 355.83 434.266 355.5 433.906 355.17 433.516 355.02 433.006 355.02 432.346 355.02 431.716 355.17 431.176 355.5 430.816 355.83 430.426 356.31 430.276 356.91 430.276 358.11 430.276 358.8 431.026 358.8 432.346ZM357.69 432.346C357.69 431.686 357.39 431.326 356.91 431.326 356.4 431.326 356.13 431.686 356.13 432.346 356.13 433.006 356.4 433.366 356.91 433.366 357.39 433.366 357.69 433.006 357.69 432.346Z" fill-rule="evenodd"/><path transform="matrix(1,0,0,-1,0,595.276)" d="M363.15 432.346C363.15 433.696 362.46 434.446 361.26 434.446 360.66 434.446 360.18 434.266 359.85 433.906 359.52 433.516 359.37 433.006 359.37 432.346 359.37 431.716 359.52 431.176 359.85 430.816 360.18 430.426 360.66 430.276 361.26 430.276 362.46 430.276 363.15 431.026 363.15 432.346ZM362.04 432.346C362.04 431.686 361.74 431.326 361.26 431.326 360.75 431.326 360.48 431.686 360.48 432.346 360.48 433.006 360.75 433.366 361.26 433.366 361.74 433.366 362.04 433.006 362.04 432.346Z" fill-rule="evenodd"/><path transform="matrix(1,0,0,-1,0,595.276)" d="M366.45 434.116V435.766H367.47V430.366H366.42V430.546C366.24 430.366 365.94 430.276 365.49 430.276 364.59 430.216 363.87 430.846 363.72 432.136V432.256 432.616 432.706C363.84 433.756 364.5 434.326 365.4 434.386 365.7 434.386 366.06 434.296 366.45 434.116ZM366.42 431.716V432.646C366.42 432.796 366.42 432.856 366.39 432.916 366.36 433.006 366.3 433.066 366.27 433.096 366.24 433.126 366.24 433.156 366.24 433.156 366.06 433.306 365.88 433.396 365.64 433.396 365.1 433.336 364.77 433.006 364.74 432.346 364.74 431.596 365.04 431.206 365.61 431.176 366 431.206 366.27 431.386 366.42 431.716Z" fill-rule="evenodd"/><path transform="matrix(1,0,0,-1,0,595.276)" d="M338.64 423.226H339.84V419.866L339.39 419.716V421.996L339.48 422.116V422.206L339.42 422.266 339.24 422.326 338.58 422.386V419.566L338.22 419.476 338.37 418.696 338.55 418.606 338.73 418.726 341.82 419.686V420.406L340.65 420.076V421.486H341.55V422.206H340.65V423.226H341.37V424.246L341.94 423.826 342.87 424.786H344.58L344.16 424.186 343.65 423.646 343.38 423.946 343.17 424.366 342.45 424.306 342.66 423.706 343.02 423.196 342.24 422.746 341.37 422.446 341.94 421.816 342.9 422.206 343.65 422.656 344.67 422.116 345.75 421.756 346.38 422.416 345.27 422.746 344.31 423.136 345.15 424.096 345.75 425.056 345.3 425.536H343.35L343.59 425.866 343.71 425.956 343.74 426.046 343.71 426.136 343.56 426.196 343.02 426.436 342.18 425.206 341.37 424.426V425.896H338.64V423.226ZM339.45 423.976V425.176H340.56V423.976H339.45Z" fill-rule="evenodd"/><path transform="matrix(1,0,0,-1,0,595.276)" d="M342.12 418.426H342.87V418.906H344.67V418.486H345.48V421.636H342.12V418.426ZM342.87 419.656V420.916H344.67V419.656H342.87Z" fill-rule="evenodd"/><path transform="matrix(1,0,0,-1,0,595.276)" d="M348.81 425.836V425.116H352.38L352.02 424.126H349.29V418.486H350.13V418.876H355.29V418.486H356.07V424.126H352.83L353.16 425.116H356.55V425.836H348.81ZM351.93 419.626V420.376H353.31V419.626H351.93ZM351.93 422.596V423.406H353.31V422.596H351.93ZM351.93 421.066V421.906H353.31V421.066H351.93ZM350.13 419.626V423.406H351.18V419.626H350.13ZM354.15 419.626V423.406H355.29V419.626H354.15Z" fill-rule="evenodd"/><path transform="matrix(1,0,0,-1,0,595.276)" d="M359.52 424.246V423.526H361.56L361.44 422.926 361.26 422.386 361.02 421.876 360.72 421.426 360.39 421.006 360 420.646 359.58 420.316 359.1 420.076 359.64 419.326 360.18 419.686 360.66 420.106 361.11 420.586 361.5 421.156 361.83 421.756 362.1 422.446 362.34 423.196 362.55 424.036 361.74 424.426 361.71 424.246Z" fill-rule="evenodd"/><path transform="matrix(1,0,0,-1,0,595.276)" d="M363.63 426.166 362.97 426.256V419.746L362.94 419.536 362.85 419.416 362.73 419.326 362.55 419.296H361.62L361.95 418.456H362.55 362.91L363.21 418.516 363.45 418.606 363.63 418.726 363.75 418.906 363.81 419.116 363.84 419.356 363.78 419.656V422.476L364.32 421.576 364.92 420.766 365.61 420.016 366.36 419.326 367.26 419.956 366.39 420.556 365.67 421.216 365.04 421.966 364.53 422.746 366.48 423.856H366.72L366.78 423.946 366.75 424.066 366.54 424.276 366.06 424.726 364.17 423.436 363.93 423.916 363.78 424.516V425.746L363.96 425.896 364.02 426.016 363.9 426.106Z" fill-rule="evenodd"/><path transform="matrix(1,0,0,-1,0,595.276)" d="M375.81 423.976H372.63V423.376H376.59V424.366H377.49V424.966H376.59V425.956H372.63V425.356H375.81V424.966H371.73V424.366H375.81Z" fill-rule="evenodd"/><path transform="matrix(1,0,0,-1,0,595.276)" d="M377.37 422.956H377.31 371.73V421.246H372.48V422.296H376.65V421.246H377.4V422.896Z" fill-rule="evenodd"/><path transform="matrix(1,0,0,-1,0,595.276)" d="M372.72 421.726V421.096H373.02L373.41 420.316 373.92 419.716 372.99 419.386 371.76 419.176 372.21 418.486 373.47 418.786 374.61 419.236 375.66 418.786 376.83 418.456 377.49 419.266 376.38 419.446 375.39 419.776 375.99 420.526 376.53 421.426 375.9 421.906 375.66 421.726H372.72ZM373.77 421.096H375.42L375.06 420.586 374.64 420.106 374.13 420.526 373.77 421.096Z" fill-rule="evenodd"/><path transform="matrix(1,0,0,-1,0,595.276)" d="M370.5 425.986 369.99 425.476 370.68 425.026 371.25 424.606 371.7 425.116 371.13 425.566Z" fill-rule="evenodd"/><path transform="matrix(1,0,0,-1,0,595.276)" d="M370.23 424.126 369.69 423.646 370.41 423.196 371.04 422.686 371.52 423.226 370.86 423.766Z" fill-rule="evenodd"/><path transform="matrix(1,0,0,-1,0,595.276)" d="M371.4 421.516 370.95 422.086 370.41 420.616 369.81 419.236 370.26 418.756 370.44 418.666 370.56 418.636 370.62 418.726 370.65 418.906Z" fill-rule="evenodd"/></g></svg>