<?xml version='1.0' encoding='UTF-8'?>
<svg width="371.18" height="256.28" viewBox="98.57 8.84 371.18 256.28" xmlns="http://www.w3.org/2000/svg" xmlns:xlink="http://www.w3.org/1999/xlink" xmlns:inkscape="http://www.inkscape.org/namespaces/inkscape" version="1.1"><g transform="scale(10.0) translate(-329.439, -316.512)"><defs><clipPath id="clip_14"><path transform="matrix(1,0,0,-1,0,595.276)" d="M74.37 .046H767.49V595.276H74.37Z"/></clipPath></defs><path transform="matrix(1,0,0,-1,0,595.276)" d="M374.61 277.516H341.13C340.95 277.516 340.77 277.486 340.59 277.426 340.41 277.336 340.23 277.246 340.11 277.096 339.96 276.946 339.84 276.796 339.78 276.616 339.69 276.436 339.66 276.226 339.66 276.076V254.086C339.66 253.726 339.81 253.336 340.11 253.066 340.41 252.766 340.77 252.616 341.13 252.616H374.61C374.97 252.616 375.33 252.766 375.63 253.066 375.93 253.336 376.05 253.726 376.05 254.086V276.076C376.05 276.406 375.93 276.796 375.63 277.096 375.33 277.396 374.97 277.516 374.61 277.516ZM374.61 276.796C375 276.796 375.33 276.466 375.33 276.076V254.086C375.33 253.906 375.27 253.726 375.12 253.576 374.97 253.426 374.79 253.366 374.61 253.366H341.13C340.95 253.366 340.77 253.426 340.62 253.576 340.47 253.726 340.41 253.906 340.41 254.086V276.076C340.41 276.166 340.41 276.256 340.44 276.346 340.5 276.436 340.53 276.526 340.62 276.586 340.77 276.736 340.95 276.796 341.13 276.796H374.61Z" fill-rule="evenodd"/><path transform="matrix(1,0,0,-1,0,595.276)" d="M341.13 276.796H374.61C374.79 276.796 374.97 276.736 375.12 276.586 375.27 276.436 375.33 276.256 375.33 276.076V254.086C375.33 253.996 375.33 253.906 375.27 253.816 375.24 253.726 375.18 253.636 375.12 253.576 375.06 253.486 374.97 253.456 374.88 253.396 374.79 253.366 374.7 253.366 374.61 253.366H341.13C340.95 253.366 340.77 253.426 340.62 253.576 340.47 253.726 340.41 253.906 340.41 254.086V276.076C340.41 276.466 340.74 276.796 341.13 276.796Z" fill="#ffffff" fill-rule="evenodd"/><path transform="matrix(1,0,0,-1,0,595.276)" d="M353.07 273.676C353.07 273.586 353.13 273.496 353.25 273.406 353.4 273.346 353.61 273.286 353.88 273.256 354.81 273.136 355.29 272.686 355.29 271.966 355.26 271.096 354.72 270.646 353.67 270.646 353.25 270.646 352.89 270.736 352.59 270.856 352.26 271.006 351.99 271.186 351.78 271.456L352.5 271.996C352.89 271.636 353.28 271.456 353.67 271.456 354.12 271.456 354.33 271.636 354.33 271.966 354.3 272.206 354 272.356 353.43 272.416 352.65 272.506 352.2 272.926 352.11 273.646 352.17 274.486 352.71 274.936 353.73 274.936 354.06 274.936 354.36 274.876 354.63 274.756 354.9 274.666 355.14 274.486 355.35 274.276L354.75 273.706C354.36 273.976 354.03 274.126 353.73 274.126 353.31 274.126 353.1 273.976 353.07 273.676Z" fill-rule="evenodd"/><path transform="matrix(1,0,0,-1,0,595.276)" d="M356.94 270.796V273.676H356.22V270.796Z" fill-rule="evenodd"/><path transform="matrix(1,0,0,-1,0,595.276)" d="M357.03 274.426C357.03 274.696 356.82 274.906 356.58 274.906 356.31 274.906 356.13 274.696 356.13 274.426 356.13 274.186 356.31 273.976 356.58 273.976 356.82 273.976 357.03 274.186 357.03 274.426Z" fill-rule="evenodd"/><path transform="matrix(1,0,0,-1,0,595.276)" d="M360.3 270.676V273.676H359.52V273.556C359.52 273.706 359.22 273.826 358.86 273.826 358.02 273.766 357.57 273.256 357.57 272.236 357.66 271.366 358.11 270.916 358.86 270.886 358.98 270.886 359.13 270.886 359.25 270.946 359.37 270.976 359.43 271.036 359.46 271.096V270.916C359.43 270.646 359.28 270.496 359.04 270.496 358.92 270.466 358.77 270.496 358.59 270.556 358.41 270.616 358.2 270.676 357.96 270.796L357.57 270.136C357.9 269.926 358.47 269.746 358.95 269.716 359.76 269.716 360.24 270.046 360.3 270.676ZM359.46 272.626V271.966C359.43 271.876 359.4 271.786 359.31 271.696 359.25 271.636 359.13 271.606 359.01 271.576 358.62 271.606 358.41 271.846 358.38 272.326 358.41 272.746 358.62 273.016 358.95 273.046 359.25 273.016 359.43 272.866 359.46 272.626Z" fill-rule="evenodd"/><path transform="matrix(1,0,0,-1,0,595.276)" d="M363.69 270.796V272.776 272.806 272.836C363.66 273.496 363.3 273.826 362.55 273.826 362.4 273.826 362.28 273.796 362.16 273.736 362.04 273.706 361.95 273.646 361.86 273.556V273.736H361.05V270.796H361.86V272.596C361.92 272.896 362.1 273.046 362.43 273.076 362.7 273.046 362.85 272.896 362.85 272.596V272.566 272.536 272.506 270.796H363.69Z" fill-rule="evenodd"/><path transform="matrix(1,0,0,-1,0,595.276)" d="M347.97 268.066C348.3 268.066 348.57 268.006 348.81 267.856 349.02 267.706 349.17 267.466 349.29 267.166L348.63 266.866C348.51 267.196 348.3 267.346 348 267.346 347.67 267.316 347.46 267.106 347.37 266.686 347.34 266.596 347.34 266.566 347.34 266.506 347.34 266.446 347.37 266.356 347.37 266.326V266.266C347.49 265.876 347.7 265.666 348.03 265.636 348.18 265.636 348.3 265.666 348.39 265.756 348.51 265.846 348.57 265.966 348.63 266.146L349.32 265.876C349.11 265.216 348.69 264.886 348.06 264.916 347.1 264.946 346.59 265.486 346.59 266.506 346.68 267.526 347.13 268.066 347.97 268.066Z" fill-rule="evenodd"/><path transform="matrix(1,0,0,-1,0,595.276)" d="M350.49 269.086V265.936 265.906 265.816 265.786C350.55 265.726 350.7 265.696 351.03 265.756L351.12 265.066C351.12 265.036 351.06 265.006 350.91 265.006 350.79 264.976 350.64 264.976 350.49 264.976 350.1 264.976 349.77 265.186 349.71 265.486 349.71 265.546 349.71 265.576 349.71 265.606 349.71 265.636 349.71 265.666 349.71 265.666V265.696 269.086H350.49Z" fill-rule="evenodd"/><path transform="matrix(1,0,0,-1,0,595.276)" d="M354.15 266.206C354.18 267.406 353.73 268.036 352.77 268.066 351.99 268.066 351.54 267.526 351.48 266.506 351.48 266.086 351.57 265.726 351.78 265.456 351.93 265.276 352.11 265.156 352.32 265.066 352.53 264.976 352.74 264.916 352.95 264.916 353.16 264.916 353.4 264.946 353.64 265.066 353.85 265.156 354 265.306 354.06 265.456L353.58 265.936C353.52 265.846 353.43 265.786 353.31 265.726 353.19 265.666 353.07 265.666 352.95 265.636 352.8 265.636 352.62 265.666 352.5 265.786 352.44 265.846 352.38 265.936 352.35 265.996 352.32 266.056 352.32 266.146 352.32 266.206H354.15ZM352.29 266.806V266.836C352.29 266.956 352.35 267.076 352.47 267.196 352.56 267.286 352.71 267.346 352.83 267.346 353.07 267.346 353.31 267.136 353.37 266.896V266.836 266.806H352.29Z" fill-rule="evenodd"/><path transform="matrix(1,0,0,-1,0,595.276)" d="M357.45 265.546 357.24 264.946C357.03 264.946 356.88 264.976 356.73 265.006 356.61 265.066 356.52 265.126 356.49 265.246 356.43 265.096 356.04 264.916 355.77 264.916 355.02 264.916 354.6 265.306 354.6 265.966 354.6 266.296 354.75 266.536 355.05 266.686 355.32 266.836 355.74 266.926 356.31 266.926V267.046C356.31 267.166 356.28 267.226 356.22 267.286 356.19 267.346 356.1 267.376 355.95 267.346 355.8 267.376 355.62 267.346 355.47 267.286 355.32 267.226 355.2 267.166 355.08 267.046L354.69 267.616C354.99 267.946 355.41 268.096 355.95 268.066 356.31 268.096 356.58 268.036 356.79 267.886 357 267.736 357.12 267.526 357.15 267.226V265.756C357.18 265.606 357.27 265.546 357.45 265.546ZM355.47 265.936C355.44 265.816 355.5 265.726 355.56 265.696 355.65 265.636 355.77 265.606 355.92 265.606 356.13 265.636 356.25 265.696 356.31 265.816V266.296C356.04 266.296 355.83 266.266 355.68 266.206 355.53 266.146 355.47 266.056 355.47 265.936Z" fill-rule="evenodd"/><path transform="matrix(1,0,0,-1,0,595.276)" d="M360.54 265.066V267.046 267.076 267.106C360.54 267.736 360.15 268.066 359.4 268.066 359.25 268.066 359.13 268.036 359.01 268.006 358.89 267.946 358.8 267.886 358.74 267.796V267.976H357.9V265.066H358.74V266.836 266.866C358.77 267.136 358.98 267.316 359.28 267.346 359.55 267.316 359.7 267.136 359.73 266.866V266.836C359.73 266.806 359.73 266.806 359.73 266.776V266.746 265.066H360.54Z" fill-rule="evenodd"/><path transform="matrix(1,0,0,-1,0,595.276)" d="M362.16 265.066V267.916H361.41V265.066Z" fill-rule="evenodd"/><path transform="matrix(1,0,0,-1,0,595.276)" d="M362.25 268.696C362.25 268.936 362.04 269.146 361.8 269.146 361.53 269.146 361.32 268.936 361.32 268.696 361.32 268.426 361.53 268.216 361.8 268.216 362.04 268.216 362.25 268.426 362.25 268.696Z" fill-rule="evenodd"/><path transform="matrix(1,0,0,-1,0,595.276)" d="M365.52 265.066V267.046 267.076 267.106C365.52 267.736 365.13 268.066 364.38 268.066 364.23 268.066 364.11 268.036 363.99 268.006 363.87 267.946 363.78 267.886 363.72 267.796V267.976H362.88V265.066H363.72V266.836 266.866C363.75 267.136 363.96 267.316 364.26 267.346 364.53 267.316 364.68 267.136 364.71 266.866V266.836C364.71 266.806 364.71 266.806 364.71 266.776V266.746 265.066H365.52Z" fill-rule="evenodd"/><path transform="matrix(1,0,0,-1,0,595.276)" d="M368.91 264.916V267.916H368.13V267.826C368.13 267.946 367.83 268.066 367.47 268.066 366.63 268.036 366.21 267.496 366.21 266.506 366.3 265.606 366.72 265.156 367.47 265.126 367.59 265.126 367.74 265.156 367.86 265.186 367.98 265.246 368.07 265.276 368.07 265.336V265.186C368.04 264.916 367.89 264.766 367.65 264.736 367.53 264.736 367.38 264.736 367.2 264.796 367.02 264.856 366.81 264.946 366.57 265.066L366.21 264.406C366.51 264.166 367.08 263.986 367.56 263.956 368.37 263.956 368.85 264.286 368.91 264.916ZM368.07 266.896V266.236C368.07 266.116 368.01 266.026 367.92 265.966 367.86 265.906 367.74 265.846 367.62 265.846 367.26 265.846 367.02 266.116 366.99 266.566 367.02 266.986 367.23 267.256 367.59 267.286 367.89 267.256 368.07 267.106 368.07 266.896Z" fill-rule="evenodd"/><path transform="matrix(1,0,0,-1,0,595.276)" d="M343.77 261.826 343.35 261.406 343.8 261.076 344.28 260.716 344.67 261.136 344.25 261.526Z" fill-rule="evenodd"/><path transform="matrix(1,0,0,-1,0,595.276)" d="M343.47 260.086 343.05 259.666 343.59 259.306 344.07 258.886 344.49 259.336 344.01 259.726Z" fill-rule="evenodd"/><path transform="matrix(1,0,0,-1,0,595.276)" d="M344.73 257.956 344.37 258.406 343.68 257.296 343.02 256.396 343.41 256.066 343.53 255.976 343.59 255.946 343.65 256.006 343.62 256.126 344.22 257.026Z" fill-rule="evenodd"/><path transform="matrix(1,0,0,-1,0,595.276)" d="M346.59 261.916V261.466H344.94V260.986H346.59V260.626H345.15V260.176H346.59V259.846H344.79V259.336H348.99V259.846H347.19V260.176H348.57V260.626H347.19V260.986H348.78V261.466H347.19V261.646L347.31 261.796 347.22 261.856Z" fill-rule="evenodd"/><path transform="matrix(1,0,0,-1,0,595.276)" d="M345.24 259.096V256.006H345.84V256.996H347.94V256.846L347.91 256.726 347.85 256.636 347.73 256.576H347.55 347.16L347.37 256.006H347.79L348.12 256.066 348.36 256.246 348.51 256.546 348.54 256.966V259.096H345.24ZM345.84 257.476V257.776H347.94V257.476H345.84ZM345.84 258.226V258.586H347.94V258.226H345.84Z" fill-rule="evenodd"/><path transform="matrix(1,0,0,-1,0,595.276)" d="M351.78 261.826 351.33 261.376 351.87 261.076 352.35 260.716 352.74 261.166Z" fill-rule="evenodd"/><path transform="matrix(1,0,0,-1,0,595.276)" d="M351.36 260.116 350.94 259.666 351.54 259.306 351.96 258.976 352.35 259.456Z" fill-rule="evenodd"/><path transform="matrix(1,0,0,-1,0,595.276)" d="M352.59 257.956 352.2 258.436 351.6 257.446 350.97 256.606 351.39 256.216 351.51 256.156H351.6L351.66 256.216 351.72 256.336Z" fill-rule="evenodd"/><path transform="matrix(1,0,0,-1,0,595.276)" d="M353.85 261.376 353.31 261.556 353.01 260.416 352.65 259.726 353.19 259.516 353.37 259.876 353.52 260.236H354.45V259.216H352.71V258.646H353.76V258.226L353.73 257.866 353.64 257.536 353.49 257.266 353.31 256.996 353.07 256.786 352.77 256.576 352.44 256.426 352.83 255.976 353.22 256.156 353.55 256.366 353.82 256.636 354.03 256.936 354.21 257.296 354.3 257.686 354.36 258.136V258.646H355.11V256.936 256.576L355.2 256.306 355.41 256.156 355.68 256.096H356.25L356.52 256.156 356.7 256.336 356.85 256.606 356.91 257.026 356.34 257.206V256.966L356.28 256.786 356.19 256.666 356.07 256.636H355.92 355.8L355.74 256.696 355.71 256.816V256.996 258.646H356.82V259.216H355.08V260.236H356.58V260.776H355.08V261.646L355.17 261.736V261.796L355.11 261.826 354.93 261.856 354.45 261.916V260.776H353.7L353.79 261.166 353.91 261.256 353.94 261.286V261.346Z" fill-rule="evenodd"/><path transform="matrix(1,0,0,-1,0,595.276)" d="M359.16 259.606H360.06V257.056L359.73 256.936V258.646L359.79 258.736V258.796L359.73 258.856 359.61 258.916 359.1 258.946V256.816L358.83 256.756 358.95 256.156 359.1 256.096 359.22 256.186 361.56 256.906V257.446L360.66 257.206V258.256H361.35V258.796H360.66V259.606H361.23V260.356L361.65 260.026 362.34 260.776H363.66L363.33 260.326 362.94 259.906 362.73 260.146 362.58 260.476 362.04 260.386 362.19 259.936 362.46 259.576 361.86 259.216 361.23 259.006 361.65 258.526 362.4 258.826 362.94 259.156 363.72 258.736 364.53 258.466 365.01 258.976 364.2 259.216 363.45 259.516 364.08 260.266 364.53 260.956 364.2 261.346H362.73L362.88 261.586 363 261.646 363.03 261.736 363 261.796 362.88 261.856 362.46 262.006 361.83 261.076 361.23 260.476V261.616H359.16V259.606ZM359.76 260.146V261.076H360.6V260.146H359.76Z" fill-rule="evenodd"/><path transform="matrix(1,0,0,-1,0,595.276)" d="M361.8 255.976H362.37V256.336H363.72V256.006H364.35V258.376H361.8V255.976ZM362.37 256.876V257.836H363.72V256.876H362.37Z" fill-rule="evenodd"/><path transform="matrix(1,0,0,-1,0,595.276)" d="M367.23 261.856V259.186L367.2 258.316 367.11 257.566 366.93 256.906 366.72 256.336 367.35 256.036 367.59 256.966 367.71 258.166H368.49V256.006H369.06V258.736H367.77V259.516H369.18V260.026H368.94V261.436L369.03 261.496 369.06 261.556 369 261.616 368.85 261.676 368.4 261.706V260.026H367.77V261.526L367.89 261.616V261.676L367.83 261.736 367.71 261.796Z" fill-rule="evenodd"/><path transform="matrix(1,0,0,-1,0,595.276)" d="M369.42 261.376V258.826H370.14L369.78 258.556 369.42 258.376 369.78 257.956 370.38 258.316 370.86 258.826H372.51V261.376H371.1L371.25 261.646H371.31L371.34 261.676 371.31 261.736 371.22 261.826 370.71 261.976 370.41 261.376H369.42ZM369.93 259.396V259.906H370.68L370.59 259.396H369.93ZM371.22 260.386V260.866H372.03V260.386H371.22ZM369.93 260.386V260.866H370.74V260.386H369.93ZM372.03 259.396H371.1L371.19 259.606 371.22 259.906H372.03V259.396Z" fill-rule="evenodd"/><path transform="matrix(1,0,0,-1,0,595.276)" d="M370.86 258.676V257.866H369.24V257.326H370.86V256.006H371.46V257.326H372.78V257.866H371.46V258.376L371.58 258.496V258.556L371.52 258.616 371.37 258.676Z" fill-rule="evenodd"/></g></svg>