<?xml version='1.0' encoding='UTF-8'?>
<svg width="544.34" height="128.54" viewBox="12.32 72.59 544.34 128.54" xmlns="http://www.w3.org/2000/svg" xmlns:xlink="http://www.w3.org/1999/xlink" xmlns:inkscape="http://www.inkscape.org/namespaces/inkscape" version="1.1"><g transform="scale(10.0) translate(-111.171, -424.224)"><defs><clipPath id="clip_14"><path transform="matrix(1,0,0,-1,0,595.276)" d="M74.37 .046H767.49V595.276H74.37Z"/></clipPath></defs><path transform="matrix(1,0,0,-1,0,595.276)" d="M113.88 162.766H165.39C165.48 162.766 165.6 162.736 165.69 162.646 165.78 162.556 165.81 162.436 165.81 162.316V152.416C165.81 152.356 165.81 152.296 165.78 152.266 165.75 152.206 165.72 152.146 165.69 152.116 165.63 152.056 165.6 152.026 165.54 152.026 165.48 151.996 165.42 151.966 165.39 151.966H113.88C113.76 151.966 113.64 152.026 113.55 152.116 113.46 152.206 113.43 152.296 113.43 152.416V162.316C113.43 162.436 113.46 162.556 113.55 162.646 113.64 162.736 113.76 162.766 113.88 162.766Z" fill="#e1e1e1" fill-rule="evenodd"/><path transform="matrix(1,0,0,-1,0,595.276)" d="M133.32 160.876 132.57 159.046H132.06L132.81 160.876H131.67V161.356H133.32Z" fill-rule="evenodd"/><path transform="matrix(1,0,0,-1,0,595.276)" d="M136.86 160.786C137.1 160.786 137.25 160.696 137.31 160.546 137.43 160.696 137.61 160.786 137.79 160.786 138.12 160.756 138.33 160.636 138.42 160.396 138.42 160.366 138.42 160.336 138.45 160.306 138.45 160.306 138.45 160.276 138.45 160.246V159.046H138V160.186C138 160.186 138 160.216 137.97 160.246L137.94 160.276C137.88 160.306 137.82 160.306 137.76 160.306 137.64 160.306 137.49 160.216 137.46 160.096V160.066 159.046H137.01V160.186C137.01 160.276 136.92 160.306 136.77 160.306 136.65 160.306 136.5 160.216 136.5 160.096V159.046H136.02V160.726H136.47V160.636C136.53 160.696 136.59 160.726 136.68 160.756 136.74 160.756 136.8 160.786 136.86 160.786Z" fill-rule="evenodd"/><path transform="matrix(1,0,0,-1,0,595.276)" d="M139.65 159.496V159.856H138.9V159.496Z" fill-rule="evenodd"/><path transform="matrix(1,0,0,-1,0,595.276)" d="M146.79 160.306C146.67 160.306 146.52 160.216 146.49 160.096V160.066 159.046H146.04V160.186C146.04 160.276 145.95 160.306 145.8 160.306 145.68 160.306 145.53 160.216 145.53 160.096V159.046H145.05V160.726H145.5V160.636C145.56 160.696 145.62 160.726 145.71 160.756 145.77 160.756 145.83 160.786 145.92 160.786 146.13 160.786 146.28 160.696 146.37 160.546 146.49 160.696 146.64 160.786 146.82 160.786 147.15 160.756 147.36 160.636 147.45 160.396 147.45 160.366 147.48 160.336 147.48 160.306 147.48 160.306 147.48 160.276 147.48 160.246V159.046H147.03V160.186C147.03 160.216 147 160.246 146.97 160.276 146.91 160.306 146.85 160.306 146.79 160.306Z" fill-rule="evenodd"/><path transform="matrix(1,0,0,-1,0,595.276)" d="M140.91 161.446C141.24 161.446 141.48 161.326 141.66 161.116 141.81 160.906 141.9 160.576 141.9 160.126 141.9 159.766 141.81 159.466 141.66 159.256 141.51 159.046 141.27 158.956 140.97 158.956 140.79 158.956 140.64 158.986 140.52 159.076 140.37 159.166 140.28 159.286 140.19 159.466L140.61 159.676C140.73 159.496 140.88 159.406 141 159.406 141.12 159.406 141.21 159.466 141.3 159.556 141.33 159.586 141.36 159.646 141.36 159.706 141.39 159.736 141.39 159.826 141.39 159.886 141.39 159.856 141.33 159.796 141.24 159.766 141.15 159.736 141.06 159.736 140.91 159.736 140.7 159.736 140.49 159.796 140.34 159.946 140.19 160.096 140.13 160.306 140.13 160.546V160.606C140.13 160.816 140.19 161.056 140.34 161.206 140.49 161.386 140.7 161.446 140.91 161.446ZM140.97 160.186C141.18 160.186 141.33 160.366 141.33 160.606 141.33 160.846 141.18 160.996 140.97 160.996 140.76 160.996 140.61 160.846 140.61 160.606 140.61 160.366 140.76 160.186 140.97 160.186Z" fill-rule="evenodd"/><path transform="matrix(1,0,0,-1,0,595.276)" d="M143.94 158.956C143.76 158.956 143.58 159.016 143.55 159.106V158.446H143.07V160.726H143.52V160.666C143.55 160.726 143.76 160.786 143.94 160.786 144.18 160.786 144.36 160.696 144.51 160.546 144.66 160.396 144.72 160.156 144.72 159.886 144.72 159.316 144.42 158.956 143.94 158.956ZM143.55 160.126V159.676C143.55 159.646 143.55 159.616 143.58 159.586 143.58 159.556 143.61 159.526 143.64 159.496 143.73 159.436 143.82 159.406 143.88 159.406 143.94 159.376 144 159.406 144.09 159.436 144.15 159.496 144.21 159.556 144.24 159.616V159.646 159.706 160.066 160.126 160.156C144.18 160.306 144 160.396 143.88 160.366H143.85C143.7 160.366 143.55 160.246 143.55 160.126Z" fill-rule="evenodd"/><path transform="matrix(1,0,0,-1,0,595.276)" d="M134.13 160.516C134.28 160.696 134.55 160.786 134.85 160.786 135.06 160.786 135.24 160.756 135.36 160.666 135.48 160.606 135.54 160.456 135.57 160.306V159.436C135.57 159.406 135.57 159.376 135.6 159.346 135.63 159.316 135.66 159.316 135.72 159.316L135.6 158.986C135.36 158.956 135.21 159.016 135.18 159.136 135.12 159.046 134.91 158.956 134.76 158.956 134.55 158.956 134.37 159.016 134.25 159.106 134.13 159.226 134.07 159.376 134.07 159.556 134.07 159.736 134.16 159.886 134.34 159.976 134.4 160.036 134.52 160.066 134.64 160.066 134.76 160.096 134.91 160.126 135.06 160.126V160.186C135.06 160.246 135.06 160.306 135.03 160.336 135 160.366 134.94 160.366 134.85 160.366 134.76 160.366 134.67 160.366 134.58 160.336 134.49 160.306 134.43 160.246 134.34 160.186L134.13 160.516ZM134.58 159.556C134.58 159.466 134.58 159.436 134.64 159.406 134.67 159.376 134.76 159.346 134.85 159.346 134.97 159.376 135.03 159.406 135.06 159.466V159.766C134.91 159.736 134.79 159.736 134.7 159.706 134.61 159.646 134.58 159.616 134.58 159.556Z" fill-rule="evenodd"/><path transform="matrix(.03,0,0,.03,0,0)" stroke-width="5" stroke-linecap="round" stroke-linejoin="round" fill="none" stroke="#000000" d="M3796 14417H3797"/><path transform="matrix(1,0,0,-1,0,595.276)" d="M165.39 151.546H113.88C113.76 151.546 113.67 151.576 113.55 151.606 113.43 151.666 113.34 151.726 113.25 151.816 113.16 151.876 113.1 151.996 113.07 152.086 113.01 152.206 113.01 152.296 113.01 152.416V162.316C113.01 162.436 113.01 162.526 113.07 162.646 113.1 162.766 113.16 162.856 113.25 162.946 113.34 163.036 113.43 163.096 113.55 163.126 113.67 163.186 113.76 163.186 113.88 163.186H165.39C165.48 163.186 165.6 163.186 165.69 163.126 165.81 163.096 165.9 163.036 165.99 162.946 166.08 162.856 166.14 162.766 166.17 162.646 166.23 162.526 166.23 162.436 166.23 162.316V152.416C166.23 152.206 166.17 151.966 165.99 151.816 165.81 151.636 165.57 151.546 165.39 151.546ZM113.88 162.766C113.76 162.766 113.64 162.736 113.55 162.646 113.46 162.556 113.43 162.436 113.43 162.316V152.416C113.43 152.296 113.46 152.206 113.55 152.116 113.64 152.026 113.76 151.966 113.88 151.966H165.39C165.48 151.966 165.6 152.026 165.69 152.116 165.78 152.206 165.81 152.296 165.81 152.416V162.316C165.81 162.436 165.78 162.556 165.69 162.646 165.6 162.736 165.48 162.766 165.39 162.766H113.88Z" fill-rule="evenodd"/><path transform="matrix(1,0,0,-1,0,595.276)" d="M122.82 155.656V155.866H121.26V157.276L121.29 157.306V157.366L121.26 157.396 121.14 157.426H120.96V153.886H119.4V153.646H123.18V153.886H121.26V155.656Z" fill-rule="evenodd"/><path transform="matrix(1,0,0,-1,0,595.276)" d="M127.44 156.916H124.98L125.16 157.306 125.25 157.336 125.28 157.366 125.22 157.396 125.1 157.456 124.95 157.546 124.56 156.766 124.11 156.046 124.32 155.896 124.59 156.286 124.83 156.706H125.82V155.416H123.99V155.176H125.82V153.526H126.12V155.176H127.8V155.416H126.12V156.706H127.44Z" fill-rule="evenodd"/><path transform="matrix(1,0,0,-1,0,595.276)" d="M128.55 155.806 128.61 155.536 129.9 155.716V153.976L129.93 153.826 129.99 153.736 130.11 153.676 130.23 153.646H131.58L131.82 153.706 132.03 153.826 132.21 154.006 132.33 154.276 132.42 154.516 132.36 154.606 132.21 154.636 132.18 154.606 132.03 154.156 131.82 153.976 131.61 153.886H130.56L130.29 153.916 130.17 154.006V155.776L132.42 156.076 132.39 156.316 130.17 156.046V157.246L130.23 157.276V157.306L130.2 157.366 130.11 157.396 129.9 157.426V155.986Z" fill-rule="evenodd"/><path transform="matrix(1,0,0,-1,0,595.276)" d="M136.95 155.986H135.96L135.9 156.016V156.706L135.96 156.736H136.71L136.74 156.766V156.946L136.71 156.976H135.96 135.9V157.336L135.96 157.396 135.99 157.426 135.93 157.456 135.84 157.486 135.69 157.516 135.63 157.486V156.976H135.6 134.91L134.82 156.946H134.79V156.766L134.82 156.736H134.91 135.6L135.63 156.706V156.016L135.6 155.986H134.61L134.58 155.956V155.806L134.61 155.776H136.95L137.01 155.806V155.956Z" fill-rule="evenodd"/><path transform="matrix(1,0,0,-1,0,595.276)" d="M136.11 155.626V155.206L136.08 155.176H134.76L134.7 155.146V154.996L134.76 154.966H136.08L136.11 154.936V153.976L136.08 153.856 136.02 153.826H135.66L135.6 153.796V153.766L135.63 153.616 135.69 153.586 135.75 153.556H136.2L136.29 153.616 136.35 153.676 136.38 153.736V153.856 154.936L136.41 154.966H136.86L136.89 154.996V155.146L136.86 155.176H136.41L136.38 155.206V155.476L136.44 155.536V155.566L136.38 155.596 136.26 155.626H136.14Z" fill-rule="evenodd"/><path transform="matrix(1,0,0,-1,0,595.276)" d="M133.2 154.036H133.41L133.47 154.066V154.576L133.5 154.606H134.1L134.13 154.576V154.366L134.16 154.336H134.37L134.4 154.366V157.066L134.37 157.096H133.2V157.066 154.066 154.036ZM134.1 155.986H133.5L133.47 156.016V156.856L133.5 156.886H134.1L134.13 156.856V156.016L134.1 155.986ZM134.1 154.816H133.5L133.47 154.846V155.746L133.5 155.776H134.1L134.13 155.746V154.846L134.1 154.816Z" fill-rule="evenodd"/><path transform="matrix(1,0,0,-1,0,595.276)" d="M134.91 154.786 134.76 154.576 135.12 154.366 135.42 154.096 135.57 154.306 135.27 154.576Z" fill-rule="evenodd"/><path transform="matrix(1,0,0,-1,0,595.276)" d="M140.49 156.766 140.88 156.256 138.9 156.076 139.59 157.066H141.45V157.276H137.94V157.066H139.29L138.6 156.076 138 156.016 138.06 155.866 138.12 155.746 138.18 155.686 138.21 155.716 138.24 155.776 141 156.076 141.21 155.626 141.48 155.716 141.12 156.346 140.7 156.886Z" fill-rule="evenodd"/><path transform="matrix(1,0,0,-1,0,595.276)" d="M139.83 154.006V154.846H141.24V155.086H139.83V155.506L139.95 155.566 139.98 155.596 139.95 155.656H139.83L139.59 155.686V155.086H138.15V154.846H139.59V154.006H137.82V153.796H141.6V154.006Z" fill-rule="evenodd"/><path transform="matrix(1,0,0,-1,0,595.276)" d="M142.38 157.396V157.156H144.12V153.706H144.39V155.986L145.02 155.596 145.56 155.176 145.74 155.386 145.11 155.866 144.39 156.286V157.156H146.22V157.396Z" fill-rule="evenodd"/><path transform="matrix(1,0,0,-1,0,595.276)" d="M150.45 156.916H147.99L148.2 157.306 148.29 157.336V157.366L148.26 157.396 148.14 157.456 147.96 157.546 147.6 156.766 147.12 156.046 147.33 155.896 147.63 156.286 147.87 156.706H148.86V155.416H147V155.176H148.86V153.526H149.13V155.176H150.81V155.416H149.13V156.706H150.45Z" fill-rule="evenodd"/><path transform="matrix(1,0,0,-1,0,595.276)" d="M153.21 156.136H154.14L153.99 153.976 154.02 153.826 154.05 153.736 154.14 153.676H154.26 154.95L155.19 153.706 155.34 153.826 155.46 154.276V154.306L155.19 154.426V154.366L155.1 154.006 155.01 153.916 154.86 153.886H154.32L154.26 153.916V154.006L154.41 156.346H153.21L153.27 157.276 153.33 157.336 153.36 157.366 153.3 157.426 153.21 157.456 152.97 157.486 152.94 156.346H151.89V156.136H152.91L152.85 155.776 152.76 155.416 152.64 155.116 152.49 154.786 152.31 154.516 152.1 154.246 151.86 154.006 151.59 153.796V153.736L151.65 153.706 151.74 153.586 151.83 153.616 152.1 153.856 152.37 154.096 152.58 154.396 152.76 154.696 152.94 155.026 153.06 155.386 153.15 155.746Z" fill-rule="evenodd"/><path transform="matrix(1,0,0,-1,0,595.276)" d="M159.99 155.986H158.97L158.94 156.016V156.706L158.97 156.736H159.75V156.766 156.946 156.976H158.97 158.94V157.336L159 157.396V157.426L158.97 157.456 158.85 157.486 158.7 157.516 158.67 157.486V156.976H158.64 157.95L157.86 156.946H157.83V156.766L157.86 156.736H157.95 158.64L158.67 156.706V156.016L158.64 155.986H157.65L157.62 155.956V155.806L157.65 155.776H159.99L160.02 155.806V155.956Z" fill-rule="evenodd"/><path transform="matrix(1,0,0,-1,0,595.276)" d="M159.12 155.626V155.206L159.09 155.176H157.77L157.74 155.146V154.996L157.77 154.966H159.09L159.12 154.936V153.976L159.09 153.856 159.03 153.826H158.67L158.64 153.796V153.766L158.67 153.616 158.7 153.586 158.76 153.556H159.21L159.3 153.616 159.36 153.676 159.39 153.736 159.42 153.856V154.936L159.45 154.966H159.87L159.93 154.996V155.146L159.87 155.176H159.45L159.42 155.206V155.476L159.45 155.536V155.566L159.39 155.596 159.27 155.626H159.18Z" fill-rule="evenodd"/><path transform="matrix(1,0,0,-1,0,595.276)" d="M156.24 154.036H156.45L156.48 154.066V154.576L156.51 154.606H157.11L157.14 154.576V154.366L157.17 154.336H157.38L157.41 154.366V157.066L157.38 157.096H156.24L156.21 157.066V154.066L156.24 154.036ZM157.11 155.986H156.51L156.48 156.016V156.856L156.51 156.886H157.11L157.14 156.856V156.016L157.11 155.986ZM157.11 154.816H156.51L156.48 154.846V155.746L156.51 155.776H157.11L157.14 155.746V154.846L157.11 154.816Z" fill-rule="evenodd"/><path transform="matrix(1,0,0,-1,0,595.276)" d="M157.95 154.786 157.77 154.576 158.13 154.366 158.46 154.096 158.61 154.306 158.28 154.576Z" fill-rule="evenodd"/></g></svg>