<?xml version='1.0' encoding='UTF-8'?>
<svg width="542.84" height="127.04" viewBox="13.07 73.16 542.84 127.04" xmlns="http://www.w3.org/2000/svg" xmlns:xlink="http://www.w3.org/1999/xlink" xmlns:inkscape="http://www.inkscape.org/namespaces/inkscape" version="1.1"><g transform="scale(10.0) translate(-111.171, -451.152)"><defs><clipPath id="clip_14"><path transform="matrix(1,0,0,-1,0,595.276)" d="M74.37 .046H767.49V595.276H74.37Z"/></clipPath></defs><path transform="matrix(1,0,0,-1,0,595.276)" d="M115.8 135.436H163.44C163.53 135.436 163.65 135.406 163.74 135.316 163.8 135.226 163.83 135.136 163.83 135.046V125.866C163.83 125.776 163.8 125.656 163.74 125.566 163.65 125.506 163.53 125.446 163.44 125.446H115.8C115.71 125.446 115.59 125.506 115.53 125.566 115.44 125.656 115.41 125.776 115.41 125.866V135.046C115.41 135.076 115.41 135.136 115.44 135.166 115.44 135.226 115.47 135.286 115.53 135.316 115.56 135.346 115.59 135.376 115.65 135.406 115.68 135.406 115.71 135.436 115.74 135.436H115.77 115.8Z" fill="#e1e1e1" fill-rule="evenodd"/><path transform="matrix(1,0,0,-1,0,595.276)" d="M165.39 124.636H113.88C113.76 124.636 113.67 124.636 113.55 124.696 113.43 124.726 113.34 124.786 113.25 124.876 113.16 124.966 113.1 125.056 113.07 125.176 113.01 125.266 113.01 125.386 113.01 125.476V135.406C113.01 135.616 113.07 135.826 113.25 136.006 113.43 136.186 113.67 136.276 113.88 136.276H165.39C165.6 136.276 165.81 136.186 165.99 136.006 166.17 135.826 166.23 135.616 166.23 135.406V125.476C166.23 125.386 166.23 125.266 166.17 125.176 166.14 125.056 166.08 124.966 165.99 124.876 165.9 124.786 165.81 124.726 165.69 124.696 165.6 124.636 165.48 124.636 165.39 124.636ZM165.39 125.056V125.056C165.42 125.056 165.48 125.056 165.54 125.086 165.6 125.116 165.63 125.146 165.69 125.176 165.72 125.236 165.75 125.266 165.78 125.326 165.81 125.386 165.81 125.446 165.81 125.476V135.406C165.81 135.466 165.81 135.496 165.78 135.556 165.75 135.616 165.72 135.676 165.69 135.706 165.63 135.766 165.6 135.796 165.54 135.796 165.48 135.826 165.42 135.826 165.39 135.826H113.88C113.76 135.826 113.64 135.796 113.55 135.706 113.46 135.616 113.43 135.496 113.43 135.406V125.476C113.43 125.386 113.46 125.266 113.55 125.176 113.64 125.086 113.76 125.056 113.88 125.056H165.39Z" fill-rule="evenodd"/><path transform="matrix(1,0,0,-1,0,595.276)" d="M138.36 128.956 140.91 129.226 141.09 128.836 141.33 128.896 141 129.496 140.61 130.006 140.43 129.886 140.76 129.406 138.96 129.226 139.59 130.156H141.33V130.366H138.06V130.156H139.32L138.69 129.226 138.12 129.196 138.18 129.046 138.24 128.956 138.27 128.896H138.33Z" fill-rule="evenodd"/><path transform="matrix(1,0,0,-1,0,595.276)" d="M139.8 128.326H141.12V128.116H139.8V127.336H141.45V127.156H137.94V127.336H139.59V128.116H138.24V128.326H139.59V128.866H139.8L139.92 128.836 139.95 128.806 139.92 128.776 139.8 128.716Z" fill-rule="evenodd"/><path transform="matrix(1,0,0,-1,0,595.276)" d="M144.06 129.166 144.63 128.806 145.14 128.416 145.29 128.596 144.72 129.046 144.06 129.436V130.246H145.71V130.456H142.17V130.246H143.79V127.036H144.06Z" fill-rule="evenodd"/><path transform="matrix(1,0,0,-1,0,595.276)" d="M149.97 128.416H148.41V126.886H148.17V128.416H146.46V128.626H148.17V129.826H147.24L147.03 129.436 146.76 129.076 146.55 129.226 147 129.886 147.33 130.606 147.48 130.546 147.6 130.486 147.66 130.426 147.63 130.396 147.54 130.366 147.36 130.036H149.64V129.826H148.41V128.626H149.97Z" fill-rule="evenodd"/><path transform="matrix(1,0,0,-1,0,595.276)" d="M151.41 127.426 151.62 127.696 151.77 127.966 151.92 128.266 152.04 128.596 152.13 128.956 152.19 129.316H153.06L152.91 127.306 152.94 127.186 152.97 127.096 153.06 127.036H153.15 153.81L154.02 127.066 154.14 127.156 154.26 127.576V127.606L154.02 127.726V127.666L153.96 127.336 153.87 127.246H153.72 153.21L153.18 127.276 153.15 127.336 153.3 129.496H152.19L152.25 130.366 152.31 130.396V130.456L152.28 130.486 152.19 130.516 151.98 130.546 151.92 129.496H150.96V129.316H151.92L151.86 128.956 151.77 128.656 151.65 128.356 151.53 128.056 151.35 127.816 151.17 127.576 150.93 127.336 150.69 127.126V127.096L150.75 127.036 150.81 126.946 150.9 126.976 151.17 127.186Z" fill-rule="evenodd"/><path transform="matrix(1,0,0,-1,0,595.276)" d="M156.57 129.856H157.2L157.23 129.826V129.196L157.2 129.166H156.3L156.27 129.136V128.986L156.3 128.956H158.46L158.49 128.986V129.136L158.46 129.166H157.53L157.5 129.196V129.826L157.53 129.856H158.22L158.25 129.886V130.036L158.22 130.066H157.53L157.5 130.096V130.396L157.53 130.456 157.56 130.516 157.5 130.546H157.41L157.26 130.576 157.23 130.546V130.096L157.2 130.066H156.57 156.48L156.45 130.036V129.886L156.48 129.856Z" fill-rule="evenodd"/><path transform="matrix(1,0,0,-1,0,595.276)" d="M156.42 128.206H157.65 157.68V127.306L157.65 127.216 157.59 127.156H157.26L157.2 127.126V127.096L157.23 126.976 157.26 126.946 157.35 126.916H157.74L157.83 126.946 157.89 127.006 157.92 127.096V127.186 128.206H157.95 158.34L158.4 128.236V128.386L158.34 128.416H157.95L157.92 128.446V128.716L157.98 128.746V128.776L157.92 128.806 157.8 128.836H157.71L157.68 128.806V128.446L157.65 128.416H156.42L156.36 128.386V128.236Z" fill-rule="evenodd"/><path transform="matrix(1,0,0,-1,0,595.276)" d="M156.87 127.846 156.57 128.056 156.42 127.846 156.75 127.666 157.05 127.426 157.17 127.606Z" fill-rule="evenodd"/><path transform="matrix(1,0,0,-1,0,595.276)" d="M135.12 128.206H136.35 136.38V127.306L136.35 127.216 136.29 127.156H135.96L135.9 127.126V127.096L135.93 126.976 135.99 126.946 136.05 126.916H136.44L136.53 126.946 136.59 127.006 136.62 127.096V127.186 128.206H136.65 137.07L137.1 128.236V128.386L137.07 128.416H136.65L136.62 128.446V128.716L136.68 128.746V128.776L136.62 128.806 136.5 128.836H136.41L136.38 128.806V128.446L136.35 128.416H135.12L135.06 128.386V128.236Z" fill-rule="evenodd"/><path transform="matrix(1,0,0,-1,0,595.276)" d="M135.75 127.426 135.87 127.606 135.6 127.846 135.27 128.056 135.12 127.846 135.45 127.666Z" fill-rule="evenodd"/><path transform="matrix(1,0,0,-1,0,595.276)" d="M136.23 129.166H137.16L137.19 129.136V128.986L137.16 128.956H135L134.97 128.986V129.136L135 129.166H135.9L135.93 129.196V129.826L135.9 129.856H135.27 135.18L135.15 129.886V130.036L135.18 130.066H135.27 135.9L135.93 130.096V130.546L135.99 130.576 136.11 130.546H136.2L136.26 130.516 136.23 130.456 136.2 130.396V130.096L136.23 130.066H136.92L136.95 130.036V129.886L136.92 129.856H136.23L136.2 129.826V129.196Z" fill-rule="evenodd"/><path transform="matrix(1,0,0,-1,0,595.276)" d="M134.79 130.186V127.666L134.76 127.636H134.58L134.55 127.666V127.846L134.52 127.876H133.95L133.92 127.846V127.396L133.89 127.366H133.68V127.396 130.186H134.76 134.79ZM134.55 128.116V128.926L134.52 128.956H133.95L133.92 128.926V128.116L133.95 128.086H134.52L134.55 128.116ZM133.95 129.166H134.52L134.55 129.196V129.976L134.52 130.006H133.95L133.92 129.976V129.196L133.95 129.166Z" fill-rule="evenodd"/><path transform="matrix(1,0,0,-1,0,595.276)" d="M156.09 130.186V127.666L156.06 127.636H155.85L155.82 127.666V127.846L155.79 127.876H155.25L155.22 127.846V127.396L155.19 127.366H154.98V127.396 130.186H156.06 156.09ZM155.25 128.086H155.79L155.82 128.116V128.926L155.79 128.956H155.25L155.22 128.926V128.116L155.25 128.086ZM155.25 129.166H155.79L155.82 129.196V129.976L155.79 130.006H155.25L155.22 129.976V129.196L155.25 129.166Z" fill-rule="evenodd"/><path transform="matrix(1,0,0,-1,0,595.276)" d="M122.61 128.866H124.08V129.046H122.61V130.366L122.67 130.396V130.426L122.61 130.456 122.52 130.486H122.34V127.216H120.9V127.006H124.41V127.216H122.61Z" fill-rule="evenodd"/><path transform="matrix(1,0,0,-1,0,595.276)" d="M132.93 128.776H131.25V126.826H131.01V128.776H129.39V128.986H131.01V130.486L131.28 130.456 131.34 130.426H131.37L131.34 130.396 131.25 130.336V128.986H132.93Z" fill-rule="evenodd"/><path transform="matrix(1,0,0,-1,0,595.276)" d="M128.67 128.416H127.11V126.886H126.87V128.416H125.16V128.626H126.87V129.826H125.94L125.73 129.436 125.46 129.076 125.28 129.226 125.7 129.886 126.06 130.606 126.18 130.546 126.3 130.486 126.36 130.426 126.33 130.396 126.24 130.366 126.09 130.036H128.34V129.826H127.11V128.626H128.67Z" fill-rule="evenodd"/><path transform="matrix(1,0,0,-1,0,595.276)" d="M131.7 133.516V131.986H132.15V134.146H131.73C131.73 134.056 131.7 134.026 131.64 133.966 131.58 133.936 131.49 133.936 131.37 133.936V133.516H131.7Z" fill-rule="evenodd"/><path transform="matrix(1,0,0,-1,0,595.276)" d="M132.69 133.066C132.69 132.676 132.75 132.376 132.93 132.196 133.08 132.016 133.32 131.896 133.62 131.896 134.25 131.896 134.58 132.286 134.58 133.066 134.58 133.456 134.49 133.726 134.34 133.936 134.19 134.116 133.95 134.206 133.62 134.206 133.32 134.206 133.08 134.116 132.93 133.936 132.75 133.726 132.69 133.456 132.69 133.066ZM133.14 133.066C133.14 133.546 133.29 133.816 133.62 133.816 133.95 133.816 134.1 133.546 134.1 133.066 134.1 132.826 134.07 132.646 133.98 132.496 133.92 132.376 133.8 132.316 133.62 132.316 133.29 132.316 133.14 132.556 133.14 133.066Z" fill-rule="evenodd"/><path transform="matrix(1,0,0,-1,0,595.276)" d="M137.97 133.606C138.15 133.606 138.3 133.516 138.36 133.396 138.48 133.546 138.63 133.606 138.81 133.606 139.11 133.576 139.29 133.456 139.38 133.246 139.38 133.216 139.41 133.186 139.41 133.186 139.41 133.156 139.41 133.126 139.41 133.126V133.096 131.986H138.99V133.036C138.99 133.066 138.96 133.096 138.93 133.126 138.9 133.156 138.84 133.186 138.78 133.186 138.66 133.186 138.51 133.066 138.51 132.946V131.986H138.09V133.036C138.09 133.126 138 133.186 137.88 133.186 137.76 133.186 137.61 133.066 137.61 132.946V131.986H137.16V133.546H137.58V133.486C137.64 133.516 137.7 133.546 137.76 133.576 137.82 133.576 137.88 133.606 137.97 133.606Z" fill-rule="evenodd"/><path transform="matrix(1,0,0,-1,0,595.276)" d="M140.52 132.406V132.766H139.83V132.406Z" fill-rule="evenodd"/><path transform="matrix(1,0,0,-1,0,595.276)" d="M147.15 133.186C147 133.186 146.88 133.066 146.85 132.946V131.986H146.43V133.036C146.43 133.126 146.34 133.186 146.22 133.186 146.1 133.186 145.95 133.066 145.95 132.946V131.986H145.53V133.546H145.95V133.486C146.01 133.516 146.07 133.546 146.13 133.576 146.19 133.576 146.25 133.606 146.31 133.606 146.52 133.606 146.64 133.516 146.73 133.396 146.85 133.546 147 133.606 147.18 133.606 147.45 133.576 147.66 133.456 147.75 133.246 147.75 133.216 147.75 133.186 147.75 133.186 147.75 133.156 147.75 133.126 147.78 133.126V133.096 131.986H147.36V133.036C147.36 133.066 147.33 133.066 147.33 133.096L147.3 133.126C147.24 133.156 147.18 133.186 147.15 133.186Z" fill-rule="evenodd"/><path transform="matrix(1,0,0,-1,0,595.276)" d="M141.69 134.206C141.99 134.206 142.23 134.116 142.38 133.906 142.53 133.696 142.59 133.396 142.59 133.006 142.59 132.646 142.53 132.376 142.38 132.196 142.23 131.986 142.02 131.896 141.75 131.896 141.6 131.896 141.45 131.956 141.33 132.016 141.18 132.106 141.09 132.226 141.03 132.376L141.42 132.556C141.51 132.406 141.66 132.346 141.78 132.346 141.9 132.346 141.99 132.376 142.05 132.466 142.08 132.496 142.11 132.526 142.11 132.586 142.11 132.616 142.14 132.646 142.14 132.676 142.14 132.706 142.14 132.736 142.14 132.766 142.14 132.736 142.08 132.706 142.02 132.676 141.93 132.646 141.81 132.616 141.69 132.616 141.48 132.616 141.3 132.706 141.15 132.826 141.03 132.976 140.97 133.156 140.97 133.366V133.426C140.97 133.876 141.27 134.206 141.69 134.206ZM141.75 133.066C141.96 133.066 142.08 133.216 142.08 133.426 142.08 133.516 142.05 133.636 141.99 133.696 141.93 133.786 141.84 133.816 141.75 133.816 141.66 133.816 141.57 133.786 141.51 133.696 141.42 133.636 141.39 133.546 141.39 133.426 141.39 133.216 141.54 133.066 141.75 133.066Z" fill-rule="evenodd"/><path transform="matrix(1,0,0,-1,0,595.276)" d="M144.51 131.896C144.33 131.896 144.15 131.956 144.12 132.046V131.446H143.7V133.546H144.09V133.486C144.12 133.546 144.33 133.606 144.48 133.606 144.69 133.606 144.9 133.516 145.02 133.366 145.14 133.246 145.2 133.006 145.2 132.766 145.2 132.256 144.93 131.896 144.51 131.896ZM144.12 133.006V132.586C144.12 132.556 144.15 132.526 144.15 132.496 144.18 132.466 144.21 132.436 144.24 132.406 144.3 132.346 144.39 132.316 144.45 132.316 144.48 132.316 144.57 132.316 144.63 132.376 144.69 132.406 144.75 132.466 144.78 132.526V132.556 132.586 132.616 132.946 133.006C144.72 133.156 144.54 133.246 144.45 133.216H144.42C144.27 133.216 144.12 133.096 144.12 133.006Z" fill-rule="evenodd"/><path transform="matrix(1,0,0,-1,0,595.276)" d="M135.42 133.366C135.57 133.516 135.81 133.606 136.08 133.606 136.29 133.606 136.44 133.576 136.56 133.486 136.65 133.426 136.71 133.306 136.74 133.156V132.346C136.74 132.316 136.77 132.286 136.77 132.286 136.8 132.256 136.86 132.256 136.89 132.256L136.8 131.926C136.56 131.926 136.41 131.986 136.38 132.076 136.35 132.016 136.14 131.926 135.99 131.896 135.6 131.896 135.36 132.106 135.36 132.466 135.36 132.646 135.45 132.766 135.6 132.856 135.69 132.886 135.78 132.916 135.9 132.946 135.99 132.976 136.14 132.976 136.29 132.976V133.036C136.29 133.096 136.26 133.156 136.23 133.186 136.2 133.216 136.17 133.216 136.11 133.216 135.99 133.216 135.93 133.216 135.84 133.186 135.75 133.156 135.69 133.096 135.63 133.036L135.42 133.366ZM135.84 132.466C135.81 132.406 135.84 132.346 135.9 132.316 135.93 132.286 135.99 132.286 136.08 132.286 136.2 132.286 136.26 132.316 136.29 132.376V132.646C136.14 132.646 136.02 132.616 135.93 132.586 135.87 132.556 135.84 132.526 135.84 132.466Z" fill-rule="evenodd"/></g></svg>