<?xml version='1.0' encoding='UTF-8'?>
<svg width="372.07" height="253.87" viewBox="98.19 9.96 372.07 253.87" xmlns="http://www.w3.org/2000/svg" xmlns:xlink="http://www.w3.org/1999/xlink" xmlns:inkscape="http://www.inkscape.org/namespaces/inkscape" version="1.1"><g transform="scale(10.0) translate(-438.573, -262.656)"><defs><clipPath id="clip_14"><path transform="matrix(1,0,0,-1,0,595.276)" d="M74.37 .046H767.49V595.276H74.37Z"/></clipPath></defs><path transform="matrix(1,0,0,-1,0,595.276)" d="M483.33 331.186H450.63C450.42 331.186 450.18 331.156 449.97 331.066 449.73 330.976 449.52 330.826 449.34 330.646 449.16 330.466 449.04 330.256 448.95 330.046 448.86 329.806 448.83 329.596 448.83 329.386V308.476C448.83 308.266 448.86 308.026 448.95 307.816 449.04 307.576 449.16 307.366 449.34 307.186 449.52 307.006 449.73 306.886 449.97 306.796 450.18 306.706 450.42 306.676 450.63 306.676H483.33C483.54 306.676 483.78 306.706 484.02 306.796 484.23 306.886 484.44 307.006 484.62 307.186 484.8 307.366 484.95 307.576 485.04 307.816 485.13 308.026 485.16 308.266 485.16 308.476V329.386C485.16 329.596 485.13 329.806 485.04 330.046 484.95 330.256 484.8 330.466 484.62 330.646 484.44 330.826 484.23 330.976 484.02 331.066 483.78 331.156 483.54 331.186 483.33 331.186ZM483.33 330.286C483.57 330.286 483.81 330.196 483.99 330.016 484.14 329.836 484.26 329.626 484.26 329.386V308.476C484.26 308.266 484.17 308.026 483.99 307.846 483.81 307.666 483.57 307.576 483.33 307.576H450.63C450.42 307.576 450.18 307.666 450 307.846 449.82 308.026 449.73 308.266 449.73 308.476V329.386C449.73 329.476 449.76 329.596 449.79 329.716 449.85 329.836 449.91 329.926 450 330.016 450.18 330.196 450.42 330.286 450.63 330.286H483.33Z" fill-rule="evenodd"/><path transform="matrix(1,0,0,-1,0,595.276)" d="M450.63 330.286H483.33C483.57 330.286 483.81 330.196 483.99 330.016 484.17 329.836 484.26 329.596 484.26 329.386V308.476C484.26 308.386 484.23 308.266 484.17 308.146 484.14 308.026 484.08 307.936 483.99 307.846 483.9 307.756 483.78 307.696 483.66 307.636 483.57 307.606 483.45 307.576 483.33 307.576H450.63C450.42 307.576 450.18 307.666 450 307.846 449.91 307.936 449.85 308.026 449.79 308.146 449.76 308.266 449.73 308.386 449.73 308.476V329.386C449.73 329.626 449.82 329.836 450 330.016 450.15 330.196 450.39 330.286 450.63 330.286Z" fill="#ffffff" fill-rule="evenodd"/><path transform="matrix(1,0,0,-1,0,595.276)" d="M464.91 325.126C464.91 326.026 464.73 326.716 464.34 327.166 463.98 327.616 463.41 327.856 462.66 327.856 461.91 327.856 461.37 327.616 460.98 327.166 460.62 326.716 460.41 326.026 460.41 325.126 460.41 324.226 460.62 323.536 460.98 323.086 461.37 322.636 461.91 322.396 462.66 322.396 463.41 322.396 463.98 322.636 464.34 323.086 464.73 323.536 464.91 324.226 464.91 325.126ZM463.8 325.126C463.8 323.956 463.44 323.386 462.66 323.386 461.91 323.386 461.52 323.956 461.52 325.126 461.52 326.296 461.91 326.866 462.66 326.866 463.44 326.866 463.8 326.296 463.8 325.126Z" fill-rule="evenodd"/><path transform="matrix(1,0,0,-1,0,595.276)" d="M470.16 325.126C470.16 326.926 469.41 327.856 467.94 327.856 467.19 327.856 466.62 327.616 466.26 327.166 465.87 326.716 465.69 326.026 465.69 325.126 465.69 324.226 465.87 323.536 466.26 323.086 466.62 322.636 467.19 322.396 467.94 322.396 468.69 322.396 469.23 322.636 469.62 323.086 469.98 323.536 470.16 324.226 470.16 325.126ZM469.08 325.126C469.08 324.556 468.99 324.106 468.78 323.806 468.6 323.536 468.3 323.386 467.94 323.386 467.16 323.386 466.77 323.956 466.77 325.126 466.77 325.696 466.89 326.146 467.07 326.416 467.25 326.716 467.55 326.866 467.94 326.866 468.3 326.866 468.6 326.716 468.78 326.416 468.99 326.146 469.08 325.696 469.08 325.126Z" fill-rule="evenodd"/><path transform="matrix(1,0,0,-1,0,595.276)" d="M476.58 325.396C476.46 325.396 476.28 325.336 476.13 325.246 476.01 325.126 475.95 325.006 475.92 324.886V324.856 322.576H474.93V325.066 325.096C474.9 325.276 474.69 325.396 474.42 325.396 474.3 325.396 474.12 325.336 474 325.246 473.85 325.126 473.79 325.006 473.79 324.886V324.856 322.576H472.77V326.266H473.76V326.086C473.91 326.206 474.03 326.266 474.18 326.326 474.33 326.356 474.48 326.386 474.63 326.386 475.11 326.386 475.44 326.236 475.62 325.906 475.86 326.236 476.22 326.386 476.64 326.386 477.33 326.356 477.78 326.086 477.99 325.516 478.02 325.456 478.05 325.426 478.05 325.396 478.05 325.336 478.05 325.276 478.05 325.246V325.216 322.576H477.06V325.066C477.06 325.156 477.03 325.246 476.94 325.306 476.85 325.366 476.7 325.396 476.58 325.396Z" fill-rule="evenodd"/><path transform="matrix(.03,0,0,.03,0,0)" stroke-width="5" stroke-linecap="round" stroke-linejoin="round" fill="none" stroke="#000000" d="M15256 9061H15257"/><path transform="matrix(.03,0,0,.03,0,0)" stroke-width="5" stroke-linecap="round" stroke-linejoin="round" fill="none" stroke="#000000" d="M15256 9061H15257"/><path transform="matrix(1,0,0,-1,0,595.276)" d="M457.68 323.446V323.446C457.41 323.446 457.2 323.476 457.05 323.596 456.9 323.716 456.78 323.866 456.72 324.106L455.73 323.806C455.85 323.326 456.09 322.966 456.42 322.756 456.75 322.516 457.17 322.396 457.68 322.396 458.22 322.396 458.73 322.576 459.09 322.906 459.45 323.266 459.63 323.746 459.63 324.286 459.63 325.576 458.97 326.236 457.74 326.236 457.62 326.236 457.44 326.236 457.23 326.176 457.05 326.146 456.96 326.086 456.96 326.086L456.99 326.236 457.02 326.626H459.24V327.676H456.09L455.79 324.976 456.87 324.856C456.93 325.096 457.26 325.276 457.59 325.276 457.83 325.276 458.07 325.186 458.25 325.006 458.43 324.796 458.52 324.556 458.52 324.346 458.49 323.836 458.16 323.476 457.68 323.446Z" fill-rule="evenodd"/><path transform="matrix(1,0,0,-1,0,595.276)" d="M453.72 318.136V317.386H456.27L455.88 315.436H454.14V314.716H455.76L455.28 312.226H453.3V311.416H460.71V312.226H459.06L459.36 315.436H456.69L457.05 317.386H460.29V318.136H453.72ZM456.12 312.226 456.54 314.716H458.52L458.25 312.226H456.12Z" fill-rule="evenodd"/><path transform="matrix(1,0,0,-1,0,595.276)" d="M463.47 317.536H466.56L466.11 316.516H464.25V311.206H465.06V311.626H468.93V311.206H469.74V316.516H467.01L467.4 317.536H470.58V318.286H463.47V317.536ZM465.06 314.476V315.826H468.93V314.476H465.06ZM465.06 312.376V313.786H468.93V312.376H465.06Z" fill-rule="evenodd"/><path transform="matrix(1,0,0,-1,0,595.276)" d="M474.54 317.776 474 317.326 474.69 316.696 475.23 315.976 475.98 316.426 475.32 317.146Z" fill-rule="evenodd"/><path transform="matrix(1,0,0,-1,0,595.276)" d="M473.31 315.016H476.25L475.68 314.236 474.99 313.546 474.18 312.916 473.22 312.346 473.91 311.686 474.84 312.376 475.59 313.066 476.19 313.696 476.61 314.326V311.086H477.45V314.416L478.08 313.576 478.71 312.856 479.37 312.226 480.06 311.716 480.78 312.436 479.91 312.946 479.1 313.546 478.41 314.236 477.78 315.016H480.75V315.766H477.45V318.196L477.6 318.316V318.436L477.51 318.526 477.3 318.556 476.61 318.586V315.766H473.31Z" fill-rule="evenodd"/><path transform="matrix(1,0,0,-1,0,595.276)" d="M478.11 316.396 478.86 316.006 479.94 317.146 480.03 317.326 480 317.476 479.28 317.746 478.74 316.996Z" fill-rule="evenodd"/></g></svg>