<?xml version='1.0' encoding='UTF-8'?>
<svg width="554.78" height="217.88" viewBox="7.01 28.22 554.78 217.88" xmlns="http://www.w3.org/2000/svg" xmlns:xlink="http://www.w3.org/1999/xlink" xmlns:inkscape="http://www.inkscape.org/namespaces/inkscape" version="1.1"><g transform="scale(10.0) translate(-220.305, -20.304)"><defs><clipPath id="clip_14"><path transform="matrix(1,0,0,-1,0,595.276)" d="M74.37 .046H767.49V595.276H74.37Z"/></clipPath></defs><path transform="matrix(1,0,0,-1,0,595.276)" d="M222.81 571.606H274.68C274.83 571.606 274.98 571.606 275.13 571.516 275.31 571.456 275.43 571.366 275.58 571.246 275.7 571.126 275.79 570.976 275.85 570.826 275.91 570.676 275.94 570.526 275.94 570.376V552.136C275.94 551.836 275.82 551.536 275.58 551.266 275.31 551.026 274.98 550.906 274.68 550.906H222.81C222.51 550.906 222.18 551.026 221.91 551.266 221.67 551.536 221.55 551.836 221.55 552.136V570.376C221.55 570.676 221.67 571.006 221.91 571.246 222.18 571.516 222.51 571.606 222.81 571.606ZM222.81 571.006C222.45 571.006 222.18 570.706 222.18 570.376V552.136C222.18 552.076 222.18 551.986 222.24 551.926 222.27 551.836 222.3 551.776 222.36 551.716 222.48 551.596 222.66 551.536 222.81 551.536H274.68C274.83 551.536 275.01 551.596 275.13 551.716 275.25 551.836 275.31 551.986 275.31 552.136V570.376C275.31 570.436 275.31 570.526 275.28 570.616 275.22 570.676 275.19 570.766 275.13 570.826 275.01 570.946 274.83 571.006 274.68 571.006H222.81Z" fill-rule="evenodd"/><path transform="matrix(1,0,0,-1,0,595.276)" d="M222.81 571.006H274.68C274.77 571.006 274.83 570.976 274.92 570.946 274.98 570.916 275.07 570.886 275.13 570.826 275.19 570.766 275.22 570.676 275.28 570.616 275.31 570.526 275.31 570.436 275.31 570.376V552.136C275.31 551.986 275.25 551.836 275.13 551.716 275.07 551.656 274.98 551.596 274.92 551.566 274.83 551.536 274.77 551.536 274.68 551.536H222.81C222.66 551.536 222.48 551.596 222.36 551.716 222.3 551.776 222.27 551.836 222.24 551.926 222.18 551.986 222.18 552.076 222.18 552.136V570.376C222.18 570.706 222.45 571.006 222.81 571.006Z" fill="#ffffff" fill-rule="evenodd"/><path transform="matrix(1,0,0,-1,0,595.276)" d="M239.7 568.276H240.36V565.906H239.67V566.026C239.67 565.966 239.61 565.936 239.49 565.876 239.37 565.846 239.22 565.846 239.1 565.846 238.89 565.846 238.65 565.906 238.47 566.056 238.29 566.206 238.2 566.416 238.2 566.596V568.276H238.86V566.836C238.86 566.746 238.89 566.656 238.98 566.566 239.07 566.506 239.16 566.476 239.25 566.476 239.37 566.476 239.49 566.506 239.58 566.596 239.61 566.626 239.64 566.686 239.67 566.746 239.7 566.806 239.7 566.866 239.7 566.926V568.276Z" fill-rule="evenodd"/><path transform="matrix(1,0,0,-1,0,595.276)" d="M243.12 565.936V567.556 567.586 567.616C243.09 568.126 242.79 568.396 242.19 568.396 242.07 568.396 241.98 568.366 241.89 568.336 241.77 568.306 241.71 568.246 241.65 568.186V568.336H240.99V565.936H241.65V567.406C241.68 567.646 241.83 567.766 242.1 567.796 242.31 567.766 242.43 567.646 242.46 567.406V567.376 567.346 567.316 565.936H243.12Z" fill-rule="evenodd"/><path transform="matrix(1,0,0,-1,0,595.276)" d="M245.34 568.186V569.206H245.97V565.876H245.31V565.996C245.22 565.906 245.04 565.846 244.77 565.846 244.2 565.786 243.75 566.206 243.66 566.986V567.046 567.286 567.346C243.72 567.976 244.14 568.336 244.71 568.366 244.89 568.366 245.1 568.306 245.34 568.186ZM245.31 566.716V567.286C245.31 567.376 245.31 567.436 245.31 567.466 245.28 567.526 245.25 567.556 245.25 567.586 245.22 567.586 245.22 567.586 245.22 567.616 245.1 567.706 244.98 567.736 244.86 567.766 244.5 567.736 244.32 567.496 244.29 567.106 244.29 566.656 244.47 566.416 244.83 566.386 245.07 566.416 245.22 566.536 245.31 566.716Z" fill-rule="evenodd"/><path transform="matrix(1,0,0,-1,0,595.276)" d="M248.76 566.356 248.58 565.876C248.43 565.846 248.28 565.876 248.19 565.906 248.07 565.966 248.01 566.026 247.98 566.086 247.92 565.966 247.62 565.846 247.41 565.846 246.78 565.846 246.45 566.146 246.45 566.686 246.45 566.956 246.57 567.136 246.81 567.256 246.9 567.316 247.05 567.376 247.23 567.406 247.32 567.436 247.41 567.436 247.5 567.436 247.62 567.466 247.71 567.466 247.83 567.466V567.556C247.83 567.646 247.8 567.706 247.77 567.766 247.71 567.796 247.65 567.826 247.56 567.826 247.41 567.826 247.26 567.796 247.14 567.766 247.02 567.706 246.93 567.646 246.81 567.556L246.51 568.036C246.75 568.276 247.08 568.396 247.53 568.396 247.83 568.396 248.07 568.366 248.22 568.246 248.4 568.126 248.49 567.946 248.52 567.706V566.506C248.52 566.386 248.61 566.356 248.76 566.356ZM247.14 566.656C247.14 566.566 247.17 566.506 247.23 566.446 247.29 566.416 247.38 566.386 247.5 566.386 247.68 566.416 247.77 566.476 247.83 566.566V566.956C247.59 566.956 247.44 566.926 247.32 566.866 247.2 566.836 247.14 566.746 247.14 566.656Z" fill-rule="evenodd"/><path transform="matrix(1,0,0,-1,0,595.276)" d="M251.25 568.276H250.56L250.14 566.866 249.69 568.276H249L249.72 566.116C249.72 566.056 249.75 565.996 249.75 565.966 249.75 565.906 249.75 565.876 249.75 565.846 249.75 565.786 249.72 565.726 249.66 565.726 249.57 565.726 249.51 565.726 249.45 565.726 249.36 565.756 249.3 565.756 249.24 565.756L249.15 565.216C249.42 565.156 249.66 565.126 249.93 565.126 249.99 565.126 250.08 565.156 250.17 565.246 250.26 565.336 250.32 565.426 250.35 565.546L251.25 568.276Z" fill-rule="evenodd"/><path transform="matrix(1,0,0,-1,0,595.276)" d="M253.47 566.656C253.5 567.106 253.23 567.376 252.69 567.466 252.54 567.466 252.42 567.496 252.33 567.526 252.3 567.526 252.27 567.556 252.24 567.586 252.21 567.586 252.21 567.616 252.21 567.646 252.21 567.766 252.33 567.826 252.54 567.856 252.66 567.856 252.75 567.826 252.84 567.796 252.93 567.736 252.99 567.676 253.05 567.586L253.44 568.036C253.29 568.276 252.99 568.426 252.57 568.426 251.91 568.426 251.58 568.156 251.55 567.586 251.58 567.166 251.82 566.956 252.24 566.866 252.6 566.866 252.78 566.776 252.78 566.626 252.78 566.566 252.78 566.506 252.72 566.476 252.69 566.446 252.6 566.446 252.51 566.416 252.39 566.446 252.27 566.476 252.15 566.506 252.03 566.566 251.94 566.656 251.85 566.746L251.4 566.296C251.64 565.996 252.03 565.816 252.51 565.846 253.11 565.846 253.47 566.146 253.47 566.656Z" fill-rule="evenodd"/><path transform="matrix(1,0,0,-1,0,595.276)" d="M257.25 566.356 257.07 565.876C256.92 565.846 256.77 565.876 256.68 565.906 256.56 565.966 256.5 566.026 256.47 566.086 256.41 565.966 256.11 565.846 255.9 565.846 255.27 565.846 254.94 566.146 254.94 566.686 254.94 566.956 255.06 567.136 255.3 567.256 255.51 567.406 255.87 567.466 256.32 567.466V567.556C256.32 567.646 256.32 567.706 256.26 567.766 256.2 567.796 256.14 567.826 256.05 567.826 255.9 567.826 255.75 567.796 255.63 567.766 255.51 567.706 255.42 567.646 255.3 567.556L255 568.036C255.24 568.276 255.57 568.396 256.02 568.396 256.32 568.396 256.56 568.366 256.71 568.246 256.89 568.126 256.98 567.946 257.01 567.706V566.506C257.01 566.386 257.1 566.356 257.25 566.356ZM255.63 566.656C255.63 566.566 255.66 566.506 255.72 566.446 255.78 566.416 255.87 566.386 256.02 566.386 256.17 566.416 256.29 566.476 256.32 566.566V566.956C256.08 566.956 255.93 566.926 255.81 566.866 255.69 566.836 255.63 566.746 255.63 566.656Z" fill-rule="evenodd"/><path transform="matrix(1,0,0,-1,0,595.276)" d="M259.8 565.936V567.556L259.77 567.586V567.616C259.77 568.126 259.47 568.396 258.87 568.396 258.75 568.396 258.63 568.366 258.54 568.336 258.45 568.306 258.39 568.246 258.3 568.186V568.336H257.64V565.936H258.3V567.406C258.36 567.646 258.51 567.766 258.75 567.796 258.99 567.766 259.11 567.646 259.11 567.406V567.376 567.346 567.316 565.936H259.8Z" fill-rule="evenodd"/><path transform="matrix(1,0,0,-1,0,595.276)" d="M262.02 568.186V569.206H262.65V565.876H261.99V565.996C261.9 565.906 261.72 565.846 261.42 565.846 260.88 565.786 260.43 566.206 260.34 566.986V567.046 567.286 567.346C260.4 567.976 260.82 568.336 261.39 568.366 261.57 568.366 261.78 568.306 262.02 568.186ZM261.99 566.716V567.286C261.99 567.376 261.99 567.436 261.99 567.466 261.96 567.526 261.93 567.556 261.9 567.586L261.87 567.616C261.78 567.706 261.66 567.736 261.51 567.766 261.18 567.736 261 567.496 260.97 567.106 260.97 566.656 261.15 566.416 261.51 566.386 261.75 566.416 261.9 566.536 261.99 566.716Z" fill-rule="evenodd"/><path transform="matrix(1,0,0,-1,0,595.276)" d="M236.55 563.626H237.21V561.226H236.52V561.346C236.52 561.316 236.46 561.256 236.34 561.226 236.22 561.196 236.07 561.166 235.95 561.166 235.71 561.166 235.5 561.226 235.32 561.406 235.14 561.556 235.05 561.736 235.05 561.946V563.626H235.71V562.156C235.71 562.096 235.74 562.006 235.83 561.916 235.92 561.826 236.01 561.796 236.1 561.796 236.22 561.796 236.34 561.856 236.43 561.946 236.52 562.036 236.55 562.156 236.55 562.246V563.626Z" fill-rule="evenodd"/><path transform="matrix(1,0,0,-1,0,595.276)" d="M238.92 561.166C239.49 561.166 239.85 561.646 239.85 562.366 239.85 562.756 239.76 563.116 239.58 563.356 239.4 563.596 239.16 563.716 238.89 563.716 238.65 563.716 238.47 563.656 238.35 563.506V564.556H237.78V561.226H238.35V561.346C238.53 561.226 238.74 561.166 238.92 561.166ZM238.8 561.766C238.56 561.766 238.41 561.886 238.35 562.126V562.786C238.41 562.906 238.47 562.996 238.56 563.026 238.62 563.086 238.71 563.116 238.8 563.116 239.13 563.086 239.28 562.846 239.28 562.426 239.25 562.006 239.1 561.766 238.8 561.766Z" fill-rule="evenodd"/><path transform="matrix(1,0,0,-1,0,595.276)" d="M240.87 564.556V562.006 561.976 561.886C240.9 561.826 241.05 561.826 241.29 561.856L241.38 561.286C241.38 561.286 241.35 561.286 241.32 561.256 241.32 561.256 241.26 561.256 241.23 561.256 241.11 561.226 240.99 561.226 240.87 561.226 240.54 561.226 240.3 561.376 240.24 561.646 240.24 561.676 240.24 561.706 240.24 561.736 240.24 561.766 240.24 561.766 240.24 561.796V564.556H240.87Z" fill-rule="evenodd"/><path transform="matrix(1,0,0,-1,0,595.276)" d="M242.37 561.286V563.626H241.77V561.286Z" fill-rule="evenodd"/><path transform="matrix(1,0,0,-1,0,595.276)" d="M242.46 564.226C242.46 564.436 242.28 564.616 242.07 564.616 241.86 564.616 241.71 564.436 241.71 564.226 241.71 564.016 241.86 563.866 242.07 563.866 242.28 563.866 242.46 564.016 242.46 564.226Z" fill-rule="evenodd"/><path transform="matrix(1,0,0,-1,0,595.276)" d="M244.02 563.746C244.29 563.746 244.5 563.686 244.68 563.566 244.86 563.446 244.98 563.266 245.07 562.996L244.56 562.756C244.44 563.026 244.26 563.146 244.02 563.146 243.75 563.116 243.6 562.936 243.51 562.606 243.51 562.546 243.51 562.516 243.51 562.456 243.51 562.396 243.51 562.336 243.54 562.306V562.276C243.63 561.946 243.78 561.766 244.05 561.766 244.17 561.766 244.29 561.796 244.35 561.856 244.44 561.916 244.5 562.036 244.56 562.186L245.1 561.946C244.95 561.406 244.62 561.166 244.08 561.166 243.3 561.196 242.91 561.616 242.88 562.456 242.94 563.296 243.33 563.716 244.02 563.746Z" fill-rule="evenodd"/><path transform="matrix(1,0,0,-1,0,595.276)" d="M252.57 562.456C252.57 562.846 252.48 563.176 252.27 563.416 252.09 563.626 251.79 563.746 251.43 563.746 251.07 563.746 250.77 563.626 250.56 563.416 250.38 563.176 250.26 562.846 250.26 562.456 250.26 561.646 250.68 561.166 251.43 561.166 252.18 561.166 252.57 561.646 252.57 562.456ZM251.91 562.456C251.91 562.246 251.85 562.096 251.79 561.976 251.7 561.886 251.58 561.826 251.43 561.826 251.28 561.826 251.16 561.886 251.07 561.976 250.98 562.096 250.95 562.246 250.95 562.456 250.95 562.846 251.13 563.086 251.43 563.086 251.73 563.086 251.91 562.846 251.91 562.456Z" fill-rule="evenodd"/><path transform="matrix(1,0,0,-1,0,595.276)" d="M253.62 564.556V562.006 561.976 561.886C253.65 561.826 253.77 561.826 254.04 561.856L254.1 561.286 254.07 561.256C254.04 561.256 254.01 561.256 253.95 561.256 253.86 561.226 253.71 561.226 253.62 561.226 253.29 561.226 253.02 561.376 252.99 561.646 252.96 561.676 252.96 561.706 252.96 561.736 252.96 561.766 252.96 561.766 252.96 561.796V564.556H253.62Z" fill-rule="evenodd"/><path transform="matrix(1,0,0,-1,0,595.276)" d="M255.12 561.286V563.626H254.52V561.286Z" fill-rule="evenodd"/><path transform="matrix(1,0,0,-1,0,595.276)" d="M255.18 564.226C255.18 564.436 255.03 564.616 254.82 564.616 254.61 564.616 254.43 564.436 254.43 564.226 254.43 564.016 254.61 563.866 254.82 563.866 255.03 563.866 255.18 564.016 255.18 564.226Z" fill-rule="evenodd"/><path transform="matrix(1,0,0,-1,0,595.276)" d="M257.31 563.536V564.556H257.94V561.226H257.28V561.346C257.19 561.226 257.01 561.166 256.74 561.166 256.17 561.136 255.72 561.526 255.63 562.336V562.396 562.606 562.666C255.69 563.326 256.11 563.656 256.68 563.686 256.86 563.686 257.07 563.656 257.31 563.536ZM257.28 562.066V562.636C257.28 562.726 257.28 562.756 257.28 562.816 257.25 562.846 257.22 562.906 257.19 562.906V562.936C257.07 563.026 256.95 563.086 256.8 563.086 256.47 563.056 256.29 562.846 256.26 562.456 256.26 562.006 256.44 561.766 256.8 561.736 257.04 561.766 257.19 561.856 257.28 562.066Z" fill-rule="evenodd"/><path transform="matrix(1,0,0,-1,0,595.276)" d="M260.73 561.676 260.55 561.196C260.37 561.196 260.25 561.226 260.13 561.256 260.04 561.286 259.98 561.346 259.95 561.436 259.89 561.316 259.59 561.166 259.38 561.166 258.75 561.166 258.42 561.466 258.42 562.036 258.42 562.276 258.54 562.486 258.75 562.606 258.99 562.726 259.35 562.786 259.8 562.786V562.906C259.8 562.996 259.77 563.056 259.74 563.086 259.68 563.146 259.62 563.176 259.5 563.146 259.38 563.176 259.23 563.146 259.11 563.086 258.99 563.056 258.9 562.996 258.78 562.906L258.48 563.356C258.72 563.626 259.05 563.746 259.5 563.746 259.8 563.746 260.04 563.686 260.19 563.596 260.37 563.476 260.46 563.296 260.49 563.056V561.856C260.49 561.736 260.58 561.676 260.73 561.676ZM259.11 562.006C259.11 561.916 259.14 561.826 259.2 561.796 259.26 561.736 259.35 561.736 259.47 561.736 259.65 561.766 259.74 561.796 259.8 561.886V562.306C259.56 562.306 259.41 562.276 259.29 562.216 259.17 562.156 259.11 562.096 259.11 562.006Z" fill-rule="evenodd"/><path transform="matrix(1,0,0,-1,0,595.276)" d="M263.22 563.626H262.53L262.08 562.216 261.63 563.626H260.97L261.69 561.466C261.69 561.406 261.72 561.346 261.72 561.286 261.72 561.256 261.72 561.226 261.72 561.166 261.72 561.106 261.69 561.076 261.63 561.076 261.54 561.076 261.48 561.076 261.42 561.076 261.33 561.076 261.27 561.106 261.21 561.106L261.12 560.566C261.39 560.506 261.63 560.446 261.9 560.446 261.96 560.446 262.05 560.506 262.14 560.596 262.23 560.656 262.29 560.776 262.32 560.896L263.22 563.626Z" fill-rule="evenodd"/><path transform="matrix(1,0,0,-1,0,595.276)" d="M265.44 562.006C265.47 562.456 265.2 562.726 264.66 562.816 264.51 562.816 264.39 562.846 264.3 562.876 264.21 562.906 264.18 562.936 264.18 562.996 264.18 563.056 264.21 563.086 264.27 563.116 264.33 563.176 264.39 563.176 264.51 563.206 264.63 563.206 264.72 563.176 264.81 563.116 264.9 563.086 264.96 563.026 265.02 562.936L265.41 563.386C265.26 563.626 264.96 563.746 264.54 563.776 263.88 563.776 263.55 563.476 263.52 562.936 263.55 562.516 263.79 562.276 264.21 562.216 264.57 562.216 264.75 562.126 264.75 561.976 264.75 561.916 264.72 561.856 264.69 561.826 264.63 561.796 264.57 561.766 264.48 561.766 264.36 561.766 264.24 561.796 264.12 561.856 264 561.916 263.91 561.976 263.82 562.096L263.37 561.646C263.61 561.346 263.97 561.166 264.45 561.166 265.08 561.166 265.44 561.466 265.44 562.006Z" fill-rule="evenodd"/><path transform="matrix(1,0,0,-1,0,595.276)" d="M235.71 568.306C235.68 568.186 235.74 568.126 235.83 568.066 235.95 568.006 236.1 567.976 236.34 567.946 237.09 567.826 237.48 567.466 237.48 566.866 237.45 566.176 237.03 565.816 236.19 565.846 235.83 565.816 235.53 565.876 235.29 565.996 235.02 566.116 234.81 566.266 234.63 566.476L235.2 566.926C235.53 566.626 235.86 566.476 236.19 566.476 236.52 566.476 236.7 566.626 236.7 566.866 236.7 567.076 236.46 567.226 235.98 567.256 235.32 567.346 234.99 567.676 234.9 568.246 234.96 568.936 235.38 569.296 236.22 569.296 236.49 569.296 236.73 569.266 236.97 569.176 237.18 569.086 237.36 568.936 237.54 568.756L237.03 568.306C236.73 568.546 236.46 568.636 236.22 568.636 235.89 568.636 235.71 568.516 235.71 568.306Z" fill-rule="evenodd"/><path transform="matrix(1,0,0,-1,0,595.276)" d="M247.53 563.236V564.556H246.87V561.286H247.53V562.606H248.19 248.88V561.286H249.54V564.556H248.88V563.236H248.19Z" fill-rule="evenodd"/><path transform="matrix(1,0,0,-1,0,595.276)" d="M232.83 562.486H233.73 233.76C233.76 562.516 233.82 562.516 233.85 562.516H233.88C234.06 562.546 234.24 562.666 234.39 562.846 234.51 563.026 234.57 563.296 234.57 563.536 234.57 563.746 234.51 563.986 234.39 564.196 234.27 564.376 234.09 564.496 233.91 564.526H233.88L233.76 564.556H232.14V561.286H232.83V562.486ZM232.83 563.056V563.986H233.52 233.55 233.58C233.76 563.926 233.88 563.716 233.88 563.536 233.88 563.326 233.76 563.116 233.58 563.056 233.55 563.056 233.52 563.056 233.52 563.056H232.83Z" fill-rule="evenodd"/><path transform="matrix(1,0,0,-1,0,595.276)" d="M228.03 558.616H224.64V556.666H228.03V558.616ZM225.18 557.866V558.166H227.52V557.866H225.18ZM225.18 557.086V557.446H227.52V557.086H225.18Z" fill-rule="evenodd"/><path transform="matrix(1,0,0,-1,0,595.276)" d="M225.36 556.426 224.82 556.606 224.46 555.946 223.92 555.316 224.4 555.016 224.91 555.706H226.2V555.286H224.82V554.866H226.2V554.476H223.95V554.026H228.6V554.446H226.71V554.866H228.15V555.286H226.71V555.706H228.36V556.126H226.71V556.366L226.77 556.456 226.8 556.516 226.77 556.546 226.65 556.576H226.2V556.126H225.15Z" fill-rule="evenodd"/><path transform="matrix(1,0,0,-1,0,595.276)" d="M230.37 557.986V557.626H230.88V555.556H230.31V555.166H233.01V555.556H232.56V557.626H232.98V557.986H232.56V558.436L232.62 558.496 232.65 558.556 232.59 558.616 232.5 558.676 232.11 558.706V557.986H231.33V558.466L231.42 558.526 231.45 558.586 231.39 558.616 231.27 558.676 230.88 558.706V557.986H230.37ZM231.33 556.366V556.786H232.11V556.366H231.33ZM231.33 555.556V555.976H232.11V555.556H231.33ZM231.33 557.146V557.626H232.11V557.146H231.33Z" fill-rule="evenodd"/><path transform="matrix(1,0,0,-1,0,595.276)" d="M230.4 554.176 230.79 553.906 231.21 554.356 231.54 554.866 231.06 555.076 230.76 554.566Z" fill-rule="evenodd"/><path transform="matrix(1,0,0,-1,0,595.276)" d="M233.22 558.616V556.486 555.736L233.13 555.106 232.98 554.626 232.74 554.266 233.16 553.936 233.37 554.326 233.52 554.716 233.61 555.136 233.64 555.616H234.45V554.626L234.36 554.476 234.15 554.416 233.82 554.386 234.03 553.966 234.54 554.026 234.69 554.086 234.81 554.206 234.87 554.386 234.9 554.626V558.616H233.22ZM233.67 556.006V556.876H234.45V556.006H233.67ZM233.67 557.296V558.196H234.45V557.296H233.67Z" fill-rule="evenodd"/><path transform="matrix(1,0,0,-1,0,595.276)" d="M232.17 555.106 231.84 554.806 232.11 554.416 232.32 554.026 232.74 554.326 232.47 554.746Z" fill-rule="evenodd"/><path transform="matrix(1,0,0,-1,0,595.276)" d="M237.33 554.026H237.81V554.506H240.51V554.026H241.02V558.436H237.33V554.026ZM237.81 554.956V556.216H240.51V554.956H237.81ZM237.81 556.696V557.986H240.51V556.696H237.81Z" fill-rule="evenodd"/><path transform="matrix(1,0,0,-1,0,595.276)" d="M243.57 558.436V558.016H244.5V557.356L244.47 556.756 244.38 556.186 244.23 555.706 244.02 555.286 243.75 554.896 243.45 554.566 243.09 554.326 243.57 553.906 244.02 554.386 244.38 554.926 244.62 555.496 244.8 556.096 244.98 555.736 245.19 555.406 245.43 555.136 245.73 554.896 245.07 554.566 244.35 554.356 244.71 553.936 245.43 554.236 246.09 554.596 246.75 554.236 247.5 553.936 247.95 554.416 247.17 554.626 246.45 554.956 246.78 555.406 247.05 555.916 247.29 556.456 247.47 557.026 247.02 557.266 246.96 557.116H246.39L246.96 558.286 246.48 558.556 246.42 558.436H243.57ZM244.98 558.016H246.21L245.61 556.606 246.06 556.456 246.21 556.726H246.84L246.69 556.276 246.51 555.856 246.3 555.526 246.03 555.226 245.67 555.556 245.37 555.916 245.16 556.306 245.04 556.696 244.98 558.016Z" fill-rule="evenodd"/><path transform="matrix(1,0,0,-1,0,595.276)" d="M251.04 557.926 250.68 557.986 250.53 557.476 250.26 557.026 249.93 556.606 249.45 556.246 249.87 555.916 250.32 556.276 250.68 556.696 250.95 557.176 251.16 557.686 251.28 557.776 251.31 557.836 251.22 557.896Z" fill-rule="evenodd"/><path transform="matrix(1,0,0,-1,0,595.276)" d="M251.85 556.756 251.52 556.936 251.07 555.736 250.59 554.656 249.87 554.626 249.93 554.146 249.99 553.996 250.08 553.936 250.14 553.966 250.2 554.086 253.26 554.446 253.53 553.936 254.01 554.236 253.77 554.686 253.5 555.106 253.17 555.526 252.78 555.946 252.42 555.676 253.02 554.866 251.16 554.716 251.94 556.486 252.06 556.546 252.09 556.606 252.03 556.666Z" fill-rule="evenodd"/><path transform="matrix(1,0,0,-1,0,595.276)" d="M251.19 558.526 251.22 558.076H252.33L252.45 557.566 252.75 557.026 253.26 556.486 253.92 555.946 254.43 556.276 254.07 556.516 253.74 556.786 253.47 557.026 253.26 557.296 253.08 557.596 252.96 557.896 252.87 558.196 252.84 558.526Z" fill-rule="evenodd"/><path transform="matrix(1,0,0,-1,0,595.276)" d="M256.38 558.616V557.176H260.37V558.616H256.38ZM256.83 557.596V558.196H257.58V557.596H256.83ZM257.97 557.596V558.196H258.72V557.596H257.97ZM259.14 557.596V558.196H259.92V557.596H259.14Z" fill-rule="evenodd"/><path transform="matrix(1,0,0,-1,0,595.276)" d="M256.5 556.726 256.77 556.336 258.18 556.486V553.936H258.63V556.546L259.83 556.726 259.98 556.696H260.04L260.01 556.756 259.92 556.846 259.62 557.146 258.09 556.876Z" fill-rule="evenodd"/><path transform="matrix(1,0,0,-1,0,595.276)" d="M257.16 556.276 256.95 555.826 256.74 555.466 256.5 555.166 256.23 554.926 255.99 554.716 256.32 554.386 256.74 554.776 257.04 555.166 257.67 554.416 258.09 554.686 257.67 555.076 257.31 555.586 257.49 555.886 257.58 555.916 257.64 555.976 257.61 556.036 257.52 556.096Z" fill-rule="evenodd"/><path transform="matrix(1,0,0,-1,0,595.276)" d="M259.5 556.276 259.35 555.766 259.23 555.436 259.08 555.166 258.9 554.926 258.69 554.716 259.05 554.386 259.38 554.776 259.62 555.226 259.86 554.836 260.25 554.386 260.64 554.716 260.37 554.896 260.16 555.136 259.98 555.406 259.83 555.736 259.92 556.036 260.01 556.096 260.04 556.126 260.01 556.156 259.92 556.186Z" fill-rule="evenodd"/><path transform="matrix(1,0,0,-1,0,595.276)" d="M263.67 558.526 263.31 558.676 263.13 558.136 262.89 557.596 262.62 557.056 262.26 556.546 262.62 556.186 262.95 556.726V553.966H263.4V557.626L263.7 558.286 263.79 558.346 263.82 558.406 263.76 558.466Z" fill-rule="evenodd"/><path transform="matrix(1,0,0,-1,0,595.276)" d="M263.88 558.406V553.936H264.36V554.776H265.2V555.226H264.36V555.796H265.17V556.216H264.36V556.816H265.32V558.406H263.88ZM264.36 557.236V557.986H264.84V557.236H264.36Z" fill-rule="evenodd"/><path transform="matrix(1,0,0,-1,0,595.276)" d="M265.62 558.406V557.986H266.55V557.236H265.62V556.816H267.03V558.406H267Z" fill-rule="evenodd"/><path transform="matrix(1,0,0,-1,0,595.276)" d="M265.41 556.456V556.066H266.55L266.43 555.586 266.22 555.136 266.04 555.436 265.89 555.916 265.5 555.886 265.68 555.226 265.95 554.806 265.62 554.566 265.08 554.356 265.38 553.966 265.83 554.176 266.25 554.506 266.64 554.176 267 553.966 267.3 554.356 266.91 554.536 266.55 554.836 266.88 555.496 267.12 556.276 266.82 556.546 266.7 556.456Z" fill-rule="evenodd"/><path transform="matrix(1,0,0,-1,0,595.276)" d="M268.92 557.986V557.626H269.43V555.556H268.86V555.166H271.56V555.556H271.11V557.626H271.53V557.986H271.11V558.436L271.17 558.496 271.2 558.556 271.14 558.616 271.05 558.676 270.66 558.706V557.986H269.88V558.466L269.97 558.526 270 558.586 269.94 558.616 269.82 558.676 269.43 558.706V557.986H268.92ZM269.88 556.366V556.786H270.66V556.366H269.88ZM269.88 555.556V555.976H270.66V555.556H269.88ZM269.88 557.146V557.626H270.66V557.146H269.88Z" fill-rule="evenodd"/><path transform="matrix(1,0,0,-1,0,595.276)" d="M268.95 554.176 269.34 553.906 269.76 554.356 270.09 554.866 269.61 555.076 269.31 554.566Z" fill-rule="evenodd"/><path transform="matrix(1,0,0,-1,0,595.276)" d="M271.77 558.616V556.486 555.736L271.68 555.106 271.53 554.626 271.29 554.266 271.71 553.936 271.92 554.326 272.07 554.716 272.16 555.136 272.19 555.616H273V554.626L272.91 554.476 272.7 554.416 272.37 554.386 272.58 553.966 273.09 554.026 273.24 554.086 273.36 554.206 273.42 554.386 273.45 554.626V558.616H271.77ZM272.22 556.006V556.876H273V556.006H272.22ZM272.22 557.296V558.196H273V557.296H272.22Z" fill-rule="evenodd"/><path transform="matrix(1,0,0,-1,0,595.276)" d="M270.72 555.106 270.39 554.806 270.66 554.416 270.87 554.026 271.29 554.326 271.02 554.746Z" fill-rule="evenodd"/></g></svg>