<?xml version='1.0' encoding='UTF-8'?>
<svg width="370.57" height="252.37" viewBox="98.94 10.65 370.57 252.37" xmlns="http://www.w3.org/2000/svg" xmlns:xlink="http://www.w3.org/1999/xlink" xmlns:inkscape="http://www.inkscape.org/namespaces/inkscape" version="1.1"><g transform="scale(10.0) translate(-438.573, -316.512)"><defs><clipPath id="clip_14"><path transform="matrix(1,0,0,-1,0,595.276)" d="M74.37 .046H767.49V595.276H74.37Z"/></clipPath></defs><path transform="matrix(1,0,0,-1,0,595.276)" d="M483.33 277.336H450.63C450.42 277.336 450.18 277.306 449.97 277.216 449.73 277.126 449.52 276.976 449.34 276.796 449.16 276.616 449.04 276.406 448.95 276.196 448.86 275.956 448.83 275.746 448.83 275.536V254.626C448.83 254.416 448.86 254.176 448.95 253.966 449.04 253.726 449.16 253.516 449.34 253.336 449.52 253.156 449.73 253.036 449.97 252.946 450.18 252.856 450.42 252.826 450.63 252.826H483.33C483.54 252.826 483.78 252.856 484.02 252.946 484.23 253.036 484.44 253.156 484.62 253.336 484.8 253.516 484.95 253.726 485.04 253.966 485.13 254.176 485.16 254.416 485.16 254.626V275.536C485.16 275.746 485.13 275.956 485.04 276.196 484.95 276.406 484.8 276.616 484.62 276.796 484.44 276.976 484.23 277.126 484.02 277.216 483.78 277.306 483.54 277.336 483.33 277.336ZM483.33 276.436C483.57 276.436 483.81 276.346 483.99 276.166 484.17 275.986 484.26 275.746 484.26 275.536V254.626C484.26 254.416 484.17 254.176 483.99 253.996 483.81 253.816 483.57 253.726 483.33 253.726H450.63C450.54 253.726 450.42 253.726 450.3 253.786 450.18 253.816 450.09 253.906 450 253.996 449.82 254.176 449.73 254.416 449.73 254.626V275.536C449.73 275.626 449.76 275.746 449.79 275.866 449.85 275.956 449.91 276.076 450 276.166 450.18 276.346 450.42 276.436 450.63 276.436H483.33Z" fill-rule="evenodd"/><path transform="matrix(1,0,0,-1,0,595.276)" d="M450.63 276.436H483.33C483.45 276.436 483.57 276.406 483.66 276.376 483.78 276.316 483.9 276.256 483.99 276.166 484.08 276.076 484.14 275.956 484.17 275.866 484.23 275.746 484.26 275.626 484.26 275.536V254.626C484.26 254.416 484.17 254.176 483.99 253.996 483.81 253.816 483.57 253.726 483.33 253.726H450.63C450.42 253.726 450.18 253.816 450 253.996 449.91 254.086 449.85 254.176 449.79 254.296 449.76 254.416 449.73 254.536 449.73 254.626V275.536C449.73 275.776 449.82 275.986 450 276.166 450.15 276.346 450.39 276.436 450.63 276.436Z" fill="#ffffff" fill-rule="evenodd"/><path transform="matrix(1,0,0,-1,0,595.276)" d="M464.49 271.276C464.49 272.176 464.31 272.866 463.92 273.316 463.56 273.766 462.99 274.006 462.24 274.006 461.49 274.006 460.95 273.766 460.56 273.316 460.2 272.866 460.02 272.176 460.02 271.276 460.02 270.376 460.2 269.686 460.56 269.236 460.95 268.786 461.49 268.546 462.24 268.546 462.99 268.546 463.56 268.786 463.92 269.236 464.31 269.686 464.49 270.376 464.49 271.276ZM463.38 271.276C463.38 270.106 463.02 269.536 462.24 269.536 461.49 269.536 461.1 270.106 461.1 271.276 461.1 272.446 461.49 273.016 462.24 273.016 463.02 273.016 463.38 272.446 463.38 271.276Z" fill-rule="evenodd"/><path transform="matrix(1,0,0,-1,0,595.276)" d="M469.74 271.276C469.74 273.076 468.99 274.006 467.52 274.006 466.77 274.006 466.2 273.766 465.84 273.316 465.45 272.866 465.27 272.176 465.27 271.276 465.27 270.376 465.45 269.686 465.84 269.236 466.2 268.786 466.77 268.546 467.52 268.546 468.27 268.546 468.81 268.786 469.2 269.236 469.56 269.686 469.74 270.376 469.74 271.276ZM468.66 271.276C468.66 270.706 468.57 270.256 468.39 269.956 468.18 269.686 467.91 269.536 467.52 269.536 466.74 269.536 466.38 270.106 466.38 271.276 466.38 271.846 466.47 272.296 466.65 272.566 466.86 272.866 467.13 273.016 467.52 273.016 467.91 273.016 468.18 272.866 468.39 272.566 468.57 272.296 468.66 271.846 468.66 271.276Z" fill-rule="evenodd"/><path transform="matrix(1,0,0,-1,0,595.276)" d="M476.16 271.546C476.04 271.546 475.86 271.486 475.74 271.396 475.59 271.276 475.53 271.156 475.5 271.036V271.006 268.726H474.51V271.216 271.246C474.48 271.426 474.27 271.546 474 271.546 473.88 271.546 473.7 271.486 473.58 271.396 473.43 271.276 473.37 271.126 473.37 271.036V271.006 268.726H472.35V272.416H473.34V272.236C473.49 272.326 473.61 272.416 473.76 272.476 473.91 272.506 474.06 272.536 474.21 272.536 474.69 272.536 475.02 272.386 475.2 272.056 475.44 272.386 475.8 272.536 476.22 272.536 476.91 272.506 477.36 272.236 477.57 271.666 477.6 271.606 477.63 271.576 477.63 271.546 477.63 271.486 477.63 271.426 477.63 271.396L477.66 271.366V268.726H476.64V271.216C476.64 271.306 476.61 271.396 476.52 271.456 476.43 271.516 476.28 271.546 476.16 271.546Z" fill-rule="evenodd"/><path transform="matrix(1,0,0,-1,0,595.276)" d="M456.66 268.726H457.8L459.42 272.776V273.826H455.82V272.776H458.31Z" fill-rule="evenodd"/><path transform="matrix(1,0,0,-1,0,595.276)" d="M456.27 264.646 455.7 264.736V261.856L453.27 261.616V260.866L455.7 261.136V258.706L455.73 258.166 455.94 257.776 456.33 257.536 456.87 257.476H459.12L459.57 257.506 459.93 257.626 460.17 257.866 460.35 258.226 460.68 259.126 459.93 259.516 459.69 258.886 459.57 258.616 459.42 258.436 459.18 258.316 458.91 258.286H457.02L456.78 258.316 456.6 258.436 456.54 258.646 456.57 258.946V261.226L460.71 261.586V262.306L456.57 261.916V264.166L456.78 264.346 456.81 264.466 456.63 264.586Z" fill-rule="evenodd"/><path transform="matrix(1,0,0,-1,0,595.276)" d="M463.47 263.686H466.56L466.11 262.666H464.25V257.356H465.06V257.776H468.93V257.356H469.74V262.666H467.01L467.4 263.686H470.58V264.436H463.47V263.686ZM465.06 260.626V261.946H468.93V260.626H465.06ZM465.06 258.526V259.936H468.93V258.526H465.06Z" fill-rule="evenodd"/><path transform="matrix(1,0,0,-1,0,595.276)" d="M474.54 263.926 474 263.476 474.69 262.846 475.23 262.096 475.98 262.576 475.32 263.296Z" fill-rule="evenodd"/><path transform="matrix(1,0,0,-1,0,595.276)" d="M473.31 261.136H476.25L475.68 260.386 474.99 259.696 474.18 259.066 473.22 258.496 473.91 257.836 474.84 258.526 475.59 259.216 476.19 259.846 476.61 260.476V257.236H477.45V260.566L478.08 259.726 478.71 258.976 479.37 258.376 480.06 257.866 480.78 258.586 479.91 259.096 479.1 259.696 478.41 260.386 477.78 261.136H480.75V261.916H477.45V264.346L477.6 264.466V264.586L477.51 264.676 477.3 264.706 476.61 264.736V261.916H473.31Z" fill-rule="evenodd"/><path transform="matrix(1,0,0,-1,0,595.276)" d="M478.11 262.546 478.86 262.156 479.94 263.296 480.03 263.476 480 263.626 479.28 263.896 478.74 263.146Z" fill-rule="evenodd"/></g></svg>