<?xml version='1.0' encoding='UTF-8'?>
<svg width="255.17" height="254.87" viewBox="156.39 9.60 255.17 254.87" xmlns="http://www.w3.org/2000/svg" xmlns:xlink="http://www.w3.org/1999/xlink" xmlns:inkscape="http://www.inkscape.org/namespaces/inkscape" version="1.1"><g transform="scale(10.0) translate(-547.707, -128.016)"><defs><clipPath id="clip_14"><path transform="matrix(1,0,0,-1,0,595.276)" d="M74.37 .046H767.49V595.276H74.37Z"/></clipPath></defs><path transform="matrix(1,0,0,-1,0,595.276)" d="M563.67 464.686V442.426C563.67 442.276 563.7 442.096 563.76 441.946 563.82 441.796 563.94 441.646 564.06 441.496 564.18 441.376 564.33 441.286 564.48 441.226 564.66 441.166 564.81 441.136 564.96 441.136H587.25C587.55 441.136 587.91 441.256 588.15 441.496 588.42 441.766 588.54 442.096 588.54 442.426V464.686C588.54 465.016 588.42 465.346 588.15 465.616 588.03 465.736 587.88 465.826 587.73 465.886 587.55 465.976 587.4 465.976 587.25 465.976H564.96C564.66 465.976 564.33 465.886 564.06 465.616 563.94 465.496 563.82 465.346 563.76 465.166 563.7 465.016 563.67 464.836 563.67 464.686ZM587.25 441.766H564.96C564.81 441.766 564.63 441.826 564.51 441.976 564.45 442.036 564.39 442.096 564.36 442.186 564.33 442.276 564.33 442.336 564.33 442.426V464.686C564.33 464.866 564.39 465.016 564.51 465.166 564.57 465.226 564.66 465.256 564.72 465.286 564.81 465.316 564.9 465.346 564.96 465.346H587.25C587.4 465.346 587.58 465.286 587.7 465.166 587.76 465.076 587.82 465.016 587.85 464.926 587.88 464.866 587.88 464.776 587.88 464.686V442.426C587.88 442.066 587.61 441.766 587.25 441.766Z" fill-rule="evenodd"/><path transform="matrix(1,0,0,-1,0,595.276)" d="M564.96 441.766H587.25C587.31 441.766 587.4 441.796 587.49 441.826 587.58 441.856 587.64 441.886 587.7 441.976 587.76 442.036 587.82 442.096 587.85 442.186 587.88 442.276 587.88 442.336 587.88 442.426V464.686C587.88 464.866 587.85 465.016 587.7 465.166 587.64 465.226 587.58 465.256 587.49 465.286 587.4 465.316 587.31 465.346 587.25 465.346H564.96C564.81 465.346 564.63 465.286 564.51 465.166 564.45 465.076 564.39 465.016 564.36 464.926 564.33 464.866 564.33 464.776 564.33 464.686V442.426C564.33 442.276 564.39 442.096 564.51 441.976 564.63 441.826 564.81 441.766 564.96 441.766Z" fill="#ffffff" fill-rule="evenodd"/><path transform="matrix(1,0,0,-1,0,595.276)" d="M566.61 461.476H567.96V462.166H566.61V462.916H568.08V463.606H565.86V460.126H566.61Z" fill-rule="evenodd"/><path transform="matrix(1,0,0,-1,0,595.276)" d="M571.05 461.356C571.05 462.226 570.6 462.736 569.82 462.736 569.01 462.736 568.59 462.226 568.59 461.356 568.59 460.486 569.01 460.006 569.82 460.006 570.6 460.006 571.05 460.486 571.05 461.356ZM570.33 461.356C570.33 460.936 570.12 460.696 569.82 460.696 569.49 460.696 569.31 460.936 569.31 461.356 569.31 461.806 569.49 462.046 569.82 462.046 570.12 462.046 570.33 461.806 570.33 461.356Z" fill-rule="evenodd"/><path transform="matrix(1,0,0,-1,0,595.276)" d="M571.56 460.126V462.676H572.22V462.406C572.28 462.526 572.37 462.616 572.52 462.676 572.64 462.706 572.82 462.736 573.03 462.736V462.046C572.79 462.016 572.61 461.956 572.46 461.896 572.34 461.806 572.28 461.716 572.25 461.596V460.126H571.56Z" fill-rule="evenodd"/><path transform="matrix(.03,0,0,.03,0,0)" stroke-width="5" stroke-linecap="round" stroke-linejoin="round" fill="none" stroke="#000000" d="M19203 4486H19204"/><path transform="matrix(1,0,0,-1,0,595.276)" d="M576.09 460.696V460.696C575.91 460.696 575.76 460.756 575.67 460.816 575.55 460.906 575.46 460.996 575.43 461.146L574.74 460.966C574.86 460.636 575.01 460.396 575.22 460.246 575.46 460.066 575.73 460.006 576.09 460.006 576.45 460.006 576.81 460.096 577.05 460.336 577.29 460.576 577.41 460.906 577.41 461.296 577.41 461.716 577.32 462.046 577.08 462.286 576.87 462.526 576.54 462.646 576.12 462.646 576.06 462.646 575.91 462.616 575.79 462.586 575.67 462.556 575.61 462.526 575.61 462.526V462.646L575.64 462.886H577.17V463.606H575.01L574.8 461.746 575.55 461.686C575.58 461.836 575.79 461.956 576.03 461.956 576.18 461.956 576.36 461.896 576.48 461.776 576.63 461.656 576.66 461.476 576.66 461.326 576.66 460.966 576.42 460.726 576.09 460.696Z" fill-rule="evenodd"/><path transform="matrix(1,0,0,-1,0,595.276)" d="M581.04 461.866C581.04 462.496 580.92 462.946 580.65 463.246 580.38 463.576 580.02 463.726 579.51 463.726 579 463.726 578.61 463.576 578.34 463.246 578.1 462.946 577.98 462.496 577.98 461.866 577.98 461.236 578.1 460.786 578.34 460.456 578.61 460.156 579 460.006 579.51 460.006 580.02 460.006 580.38 460.156 580.65 460.456 580.92 460.786 581.04 461.236 581.04 461.866ZM580.29 461.866C580.29 461.056 580.02 460.666 579.51 460.666 578.97 460.666 578.73 461.056 578.73 461.866 578.73 462.256 578.79 462.556 578.91 462.766 579.03 462.946 579.24 463.066 579.51 463.066 580.02 463.066 580.29 462.646 580.29 461.866Z" fill-rule="evenodd"/><path transform="matrix(1,0,0,-1,0,595.276)" d="M585.48 462.046C585.39 462.046 585.27 462.016 585.18 461.926 585.09 461.866 585.03 461.776 585.03 461.686V460.126H584.34V461.836C584.34 461.956 584.19 462.046 584.01 462.046 583.92 462.046 583.8 462.016 583.71 461.926 583.62 461.866 583.56 461.776 583.56 461.686V460.126H582.87V462.646H583.53V462.526C583.62 462.586 583.74 462.646 583.83 462.676 583.92 462.706 584.04 462.736 584.13 462.736 584.46 462.736 584.7 462.616 584.82 462.376 584.97 462.616 585.21 462.736 585.51 462.736 585.99 462.706 586.29 462.526 586.44 462.136 586.47 462.106 586.47 462.076 586.47 462.046 586.47 462.016 586.47 461.956 586.47 461.956V461.926 460.126H585.81V461.836C585.81 461.866 585.81 461.896 585.78 461.896 585.78 461.926 585.75 461.956 585.72 461.986 585.66 462.016 585.57 462.046 585.48 462.046Z" fill-rule="evenodd"/><path transform="matrix(1,0,0,-1,0,595.276)" d="M567 448.966V448.456H568.74L568.47 447.106H567.27V446.626H568.38L568.08 444.916H566.7V444.376H571.77V444.916H570.66L570.87 447.106H569.01L569.25 448.456H571.47V448.966H567ZM568.62 444.916 568.92 446.626H570.27L570.09 444.916H568.62Z" fill-rule="evenodd"/><path transform="matrix(1,0,0,-1,0,595.276)" d="M576.24 449.206 575.82 449.266V447.346H573.6V446.806H575.82V444.196H576.39V446.806H578.55V447.346H576.39V448.966L576.51 449.056 576.54 449.146 576.45 449.176Z" fill-rule="evenodd"/><path transform="matrix(1,0,0,-1,0,595.276)" d="M581.25 448.726 580.86 448.426 581.34 447.976 581.73 447.466 582.21 447.796 581.76 448.306Z" fill-rule="evenodd"/><path transform="matrix(1,0,0,-1,0,595.276)" d="M580.38 446.806H582.42L582.03 446.296 581.55 445.816 580.98 445.396 580.35 445.006 580.83 444.556 581.43 445.036 581.97 445.486 582.36 445.936 582.66 446.356V444.136H583.23V446.416L583.65 445.846 584.1 445.336 584.55 444.916 585 444.586 585.51 445.066 584.91 445.426 584.37 445.816 583.89 446.296 583.47 446.806H585.48V447.346H583.23V448.996L583.32 449.086 583.35 449.176 583.26 449.236 583.11 449.266H582.66V447.346H580.38Z" fill-rule="evenodd"/><path transform="matrix(1,0,0,-1,0,595.276)" d="M583.68 447.766 584.19 447.496 584.94 448.306 585 448.426 584.97 448.516 584.49 448.696 584.13 448.186Z" fill-rule="evenodd"/><path transform="matrix(1,0,0,-1,0,595.276)" d="M570.03 453.076 570.15 452.596 570.18 452.476 570.24 452.446H570.3L570.36 452.566 572.82 452.986V453.466L572.07 453.346V454.906H572.82V455.446H572.07V456.946L572.16 457.006V457.066L572.1 457.126H571.98L571.56 457.156V453.286L571.02 453.196V455.656L571.08 455.746 571.11 455.806 571.05 455.836 570.96 455.896 570.48 455.926V453.136Z" fill-rule="evenodd"/><path transform="matrix(1,0,0,-1,0,595.276)" d="M573.18 457.246V453.106L573.21 452.836 573.33 452.656 573.57 452.536 573.87 452.476H574.5L574.83 452.566 575.07 452.746 575.22 453.106 575.28 453.556 574.8 453.796 574.74 453.436 574.62 453.196 574.47 453.046 574.29 453.016H573.96L573.81 453.046 573.72 453.136 573.69 453.256V453.436 454.906L574.38 455.266 575.01 455.536 575.13 455.596 575.19 455.656 575.16 455.716 575.1 455.836 574.74 456.136 573.69 455.476V456.826L573.84 456.976 573.87 457.066 573.81 457.156 573.63 457.186Z" fill-rule="evenodd"/><path transform="matrix(1,0,0,-1,0,595.276)" d="M577.35 457.066V453.556L576.87 453.496 576.96 453.046 577.02 452.926 577.05 452.896H577.11L577.17 452.986 577.38 453.016V452.266H577.92V453.136L579.18 453.376V453.826L577.92 453.616V454.306H579V454.786H577.92V455.386H579V455.896H577.92V456.466L578.91 456.796H579.09L579.15 456.856V456.916L579.09 457.006 578.73 457.366 578.31 457.126 577.71 456.916Z" fill-rule="evenodd"/><path transform="matrix(1,0,0,-1,0,595.276)" d="M579.75 457.126V457.096 456.556L579.63 456.136 579.42 455.806 579.12 455.596 579.45 455.206 579.75 455.476 579.99 455.806 580.14 456.196 580.17 456.676H580.77V455.926L580.8 455.656 580.86 455.446 581.01 455.326 581.19 455.296H581.7L581.91 455.356 582.06 455.536 582.15 455.776 582.18 456.136 581.67 456.256V455.986L581.64 455.836 581.55 455.716 581.43 455.686 581.28 455.746 581.25 455.926V457.126Z" fill-rule="evenodd"/><path transform="matrix(1,0,0,-1,0,595.276)" d="M579.33 454.966V454.456H579.57L579.66 454.126 579.78 453.766 579.99 453.466 580.2 453.196 579.9 453.016 579.6 452.866 579.3 452.776 579 452.746 579.36 452.266 580.02 452.506 580.59 452.806 581.16 452.476 581.7 452.266 582.15 452.746 581.55 452.896 581.01 453.166 581.49 453.886 581.88 454.726 581.46 455.086 581.34 454.966H579.33ZM580.05 454.426V454.456H581.13L580.98 454.096 580.59 453.496 580.41 453.706 580.26 453.916 580.14 454.156 580.05 454.426Z" fill-rule="evenodd"/></g></svg>