<?xml version='1.0' encoding='UTF-8'?>
<svg width="259.49" height="259.49" viewBox="154.57 7.00 259.49 259.49" xmlns="http://www.w3.org/2000/svg" xmlns:xlink="http://www.w3.org/1999/xlink" xmlns:inkscape="http://www.inkscape.org/namespaces/inkscape" version="1.1"><g transform="scale(10.0) translate(-329.439, -531.936)"><defs><clipPath id="clip_14"><path transform="matrix(1,0,0,-1,0,595.276)" d="M74.37 .046H767.49V595.276H74.37Z"/></clipPath></defs><path transform="matrix(1,0,0,-1,0,595.276)" d="M348.12 58.606C348.39 58.336 348.66 58.216 348.93 58.216 349.23 58.216 349.38 58.336 349.38 58.546 349.38 58.726 349.17 58.846 348.75 58.876 348.24 58.936 347.94 59.206 347.88 59.686 347.91 60.286 348.27 60.586 348.96 60.586 349.2 60.586 349.41 60.556 349.59 60.466 349.77 60.406 349.95 60.286 350.07 60.136L349.65 59.746C349.41 59.956 349.17 60.046 348.96 60.046 348.69 60.016 348.54 59.926 348.54 59.746 348.51 59.656 348.57 59.596 348.66 59.536 348.75 59.506 348.87 59.476 349.08 59.446 349.71 59.356 350.04 59.056 350.04 58.546 350.01 57.976 349.65 57.676 348.93 57.676 348.66 57.676 348.39 57.706 348.18 57.796 347.97 57.916 347.79 58.036 347.64 58.216L348.12 58.606Z" fill-rule="evenodd"/><path transform="matrix(1,0,0,-1,0,595.276)" d="M353.43 59.266V57.766H352.92V59.266H352.62V59.716H352.92V60.106C352.92 60.256 352.98 60.376 353.1 60.436 353.22 60.526 353.37 60.556 353.58 60.556 353.67 60.556 353.73 60.556 353.79 60.556 353.85 60.526 353.91 60.526 353.97 60.496L353.88 60.046C353.76 60.076 353.64 60.076 353.52 60.076 353.49 60.076 353.46 60.076 353.46 60.046 353.43 60.016 353.43 60.016 353.43 59.956V59.716H353.85V59.266H353.43Z" fill-rule="evenodd"/><path transform="matrix(1,0,0,-1,0,595.276)" d="M358.08 58.546C358.38 58.546 358.53 58.486 358.53 58.336 358.53 58.276 358.5 58.246 358.47 58.216 358.44 58.186 358.38 58.186 358.29 58.186 358.2 58.186 358.08 58.216 357.99 58.246 357.9 58.306 357.81 58.366 357.72 58.456L357.36 58.066C357.57 57.796 357.87 57.676 358.29 57.676 358.8 57.676 359.1 57.946 359.1 58.366 359.13 58.756 358.89 58.996 358.44 59.056 358.32 59.056 358.2 59.056 358.14 59.086 358.11 59.116 358.08 59.116 358.05 59.146V59.176 59.206 59.176 59.206C358.05 59.266 358.05 59.296 358.11 59.326 358.17 59.356 358.23 59.356 358.32 59.386 358.41 59.386 358.5 59.356 358.56 59.326 358.65 59.266 358.71 59.236 358.74 59.146L359.07 59.536C358.92 59.716 358.68 59.836 358.35 59.866 357.78 59.836 357.51 59.626 357.48 59.146 357.51 58.816 357.72 58.606 358.08 58.546Z" fill-rule="evenodd"/><path transform="matrix(1,0,0,-1,0,595.276)" d="M362.79 54.106H361.59L361.56 54.136V54.946L361.59 54.976H362.49L362.52 55.036V55.216L362.49 55.246H361.59L361.56 55.276V55.666L361.62 55.756V55.816L361.56 55.846H361.47L361.26 55.906 361.23 55.846V55.276L361.2 55.246H360.39 360.27L360.24 55.216V55.036L360.27 55.006 360.39 54.976H361.2L361.23 54.946V54.136L361.2 54.106H360.03L359.97 54.076V53.866L360.03 53.836H362.79L362.82 53.866V54.076Z" fill-rule="evenodd"/><path transform="matrix(1,0,0,-1,0,595.276)" d="M361.77 53.656V53.176L361.74 53.146H360.18L360.12 53.116V52.906H360.18 361.74L361.77 52.846V51.736L361.74 51.586 361.65 51.556H361.26L361.2 51.526 361.17 51.466 361.23 51.316 361.26 51.256H361.35 361.89L361.98 51.286 362.04 51.376 362.1 51.466V51.586 52.846L362.13 52.906H362.64 362.7V53.116L362.64 53.146H362.13L362.1 53.176V53.506L362.16 53.566V53.626L362.07 53.656 361.95 53.686H361.83Z" fill-rule="evenodd"/><path transform="matrix(1,0,0,-1,0,595.276)" d="M360.6 52.186 360.96 51.886 361.17 52.126 360.78 52.426 360.39 52.666 360.18 52.426Z" fill-rule="evenodd"/><path transform="matrix(1,0,0,-1,0,595.276)" d="M367.05 51.436 368.19 51.466 368.25 51.676 368.31 51.766 368.25 51.826 367.02 51.706H365.49L365.16 51.736 364.92 51.826 364.77 51.976 364.71 52.156V53.476H363.75V53.206H364.41V52.126L363.66 51.616 363.81 51.436 363.87 51.346 363.9 51.316 363.96 51.346 363.99 51.466 364.47 51.856 364.59 51.676 364.77 51.556 365.01 51.466 365.31 51.406Z" fill-rule="evenodd"/><path transform="matrix(1,0,0,-1,0,595.276)" d="M364.8 54.256 364.41 54.556 363.96 54.796 363.81 54.556 364.2 54.346 364.62 54.016Z" fill-rule="evenodd"/><path transform="matrix(1,0,0,-1,0,595.276)" d="M364.65 55.216 364.86 55.456 364.53 55.696 364.08 55.906 363.93 55.666 364.29 55.456Z" fill-rule="evenodd"/><path transform="matrix(1,0,0,-1,0,595.276)" d="M356.73 53.656H355.35V52.786H356.73V52.516H355.35V51.556H357.33V51.286H353.07V51.556H355.05V52.516H353.64V52.786H355.05V53.656H353.58V53.926H356.73Z" fill-rule="evenodd"/><path transform="matrix(1,0,0,-1,0,595.276)" d="M354.75 54.886 355.2 55.306 355.62 54.886 356.07 54.466 356.58 54.106 357.15 53.806 357.21 53.776 357.27 53.806 357.45 53.896 357.48 53.956 357.45 54.016 356.88 54.316 356.34 54.676 355.86 55.066 355.41 55.516 355.53 55.546 355.59 55.606 355.53 55.666 355.41 55.756 355.2 55.846H355.14L354.66 55.306 354.15 54.856 353.61 54.466 353.01 54.106 352.89 54.016V53.986L353.07 53.866 353.13 53.806 353.19 53.836 353.76 54.136 354.27 54.496Z" fill-rule="evenodd"/><path transform="matrix(1,0,0,-1,0,595.276)" d="M351.51 55.006V54.316H351.81V55.276H349.89V55.696L350.01 55.756 350.04 55.816 349.98 55.846H349.86L349.59 55.906V55.276H347.67V54.316H347.97V55.006Z" fill-rule="evenodd"/><path transform="matrix(1,0,0,-1,0,595.276)" d="M361.44 39.766 358.41 39.406 358.32 39.286 358.26 39.226 358.2 39.256 358.17 39.376 358.14 39.706 358.71 39.766 359.79 42.106 360.06 42.046 360.15 42.016 360.18 41.986 360.15 41.926 360.06 41.896 359.16 39.826 361.23 40.036 360.72 40.756 360.93 40.966 361.59 40.156 362.1 39.346 361.86 39.136Z" fill-rule="evenodd"/><path transform="matrix(1,0,0,-1,0,595.276)" d="M358.77 42.856 358.98 43.366 359.28 43.276 359.37 43.246 359.4 43.186 359.37 43.156 359.28 43.126 359.01 42.586 358.71 42.106 358.38 41.656 358.02 41.266 357.72 41.356 358.14 41.836 358.47 42.346Z" fill-rule="evenodd"/><path transform="matrix(1,0,0,-1,0,595.276)" d="M360.75 43.246H359.91V43.516H361.05L361.23 42.916 361.5 42.376 361.83 41.926 362.19 41.566 362.25 41.476 362.16 41.386 362.04 41.266H361.95L361.53 41.686 361.2 42.166 360.96 42.676Z" fill-rule="evenodd"/><path transform="matrix(1,0,0,-1,0,595.276)" d="M356.97 39.136V40.576C356.97 40.726 356.91 40.876 356.73 40.996 356.58 41.146 356.4 41.176 356.22 41.206 356.13 41.206 355.98 41.176 355.89 41.146 355.77 41.116 355.74 41.056 355.74 41.026V41.866H355.2V39.136H355.74V40.276C355.74 40.306 355.74 40.366 355.77 40.396 355.8 40.456 355.83 40.516 355.86 40.546 355.92 40.636 356.01 40.666 356.1 40.666 356.16 40.666 356.25 40.636 356.34 40.576 356.4 40.516 356.43 40.456 356.43 40.396V39.136H356.97Z" fill-rule="evenodd"/><path transform="matrix(1,0,0,-1,0,595.276)" d="M354.9 41.806 353.88 38.506 353.46 38.656 354.48 41.926Z" fill-rule="evenodd"/><path transform="matrix(1,0,0,-1,0,595.276)" d="M352.53 39.136V40.486C352.53 40.516 352.53 40.576 352.47 40.606 352.41 40.636 352.35 40.636 352.26 40.636 352.11 40.636 351.93 40.516 351.93 40.366V39.136H351.39V40.486C351.39 40.576 351.27 40.636 351.12 40.636 350.97 40.636 350.79 40.516 350.76 40.366V39.136H350.22V41.116H350.76V41.026C350.82 41.086 350.91 41.116 350.97 41.146 351.06 41.176 351.15 41.206 351.24 41.206 351.48 41.176 351.66 41.086 351.75 40.936 351.9 41.116 352.08 41.206 352.32 41.206 352.68 41.176 352.92 41.026 353.04 40.726 353.07 40.696 353.07 40.666 353.07 40.636V40.576 40.546 39.136H352.53Z" fill-rule="evenodd"/><path transform="matrix(1,0,0,-1,0,595.276)" d="M349.89 39.136 349.14 40.276 349.89 41.086H349.2L348.57 40.426V41.866H348V39.136H348.57V39.676L348.75 39.886 349.29 39.136Z" fill-rule="evenodd"/><path transform="matrix(1,0,0,-1,0,595.276)" d="M350.46 58.396C350.46 58.606 350.55 58.756 350.76 58.876 350.85 58.936 350.97 58.966 351.12 58.996 351.27 59.026 351.42 59.026 351.63 59.026V59.116C351.63 59.206 351.6 59.266 351.57 59.296 351.54 59.326 351.48 59.356 351.39 59.326 351.27 59.356 351.15 59.326 351.06 59.296 350.94 59.266 350.85 59.206 350.79 59.116L350.52 59.506C350.73 59.746 351 59.836 351.36 59.836 351.63 59.836 351.81 59.806 351.96 59.686 352.11 59.596 352.17 59.446 352.2 59.266V58.246C352.2 58.186 352.23 58.156 352.26 58.126 352.29 58.126 352.35 58.096 352.41 58.096L352.26 57.706C351.96 57.676 351.81 57.766 351.75 57.886 351.69 57.796 351.45 57.676 351.27 57.676 351.03 57.676 350.82 57.736 350.67 57.856 350.55 57.976 350.46 58.156 350.46 58.396ZM351.63 58.606C351.24 58.606 351.06 58.516 351.03 58.366 351.03 58.306 351.06 58.246 351.12 58.186 351.18 58.156 351.24 58.156 351.36 58.156 351.42 58.156 351.48 58.156 351.54 58.186 351.57 58.216 351.6 58.246 351.63 58.276V58.606Z" fill-rule="evenodd"/><path transform="matrix(1,0,0,-1,0,595.276)" d="M351 53.506H351.99V53.776H349.44L349.8 54.496H349.92L349.95 54.556 349.89 54.616 349.77 54.706 349.56 54.826 349.29 54.256 349.05 53.776H347.52V53.506H348.93L348.18 52.396 348.48 52.276 348.69 52.546 349.74 52.186 349.35 51.976 348.93 51.796 348.48 51.646 347.94 51.526H347.88V51.466L348 51.316 348.09 51.256H348.18L348.66 51.406 349.14 51.586 349.62 51.796 350.04 52.036 350.79 51.706 351.45 51.346 351.54 51.316 351.69 51.466V51.496L351.66 51.586 350.28 52.276 350.67 52.846 351 53.506ZM349.32 53.506H350.67L350.37 52.936 350.01 52.396 348.84 52.816 349.32 53.506Z" fill-rule="evenodd"/><path transform="matrix(1,0,0,-1,0,595.276)" d="M361.86 48.076C361.86 47.326 361.68 46.786 361.38 46.426 361.08 46.036 360.63 45.856 360.03 45.856 359.43 45.856 358.98 46.036 358.68 46.426 358.38 46.786 358.23 47.326 358.23 48.076 358.23 48.796 358.38 49.336 358.68 49.726 358.98 50.086 359.43 50.266 360.03 50.266 360.63 50.266 361.08 50.086 361.38 49.726 361.68 49.336 361.86 48.796 361.86 48.076ZM359.1 48.076C359.1 47.116 359.43 46.666 360.03 46.666 360.66 46.666 360.96 47.116 360.96 48.076 360.96 49.006 360.66 49.486 360.03 49.486 359.43 49.486 359.1 49.006 359.1 48.076Z" fill-rule="evenodd"/><path transform="matrix(1,0,0,-1,0,595.276)" d="M365.58 41.176V40.486L365.61 40.456H367.11L367.14 40.426V40.216L367.11 40.186H365.61L365.58 40.156V39.466L365.61 39.436H367.59L367.62 39.406V39.196L367.59 39.166H363.24L363.21 39.196V39.406L363.24 39.436H365.22L365.28 39.466V40.156L365.22 40.186H363.78L363.72 40.216V40.426L363.78 40.456H365.22L365.28 40.486V41.176L365.22 41.206H364.08L364.05 41.176V41.026L364.02 40.996H363.78L363.72 41.026V43.396L363.78 43.426H367.11L367.14 43.396V41.026H366.84V41.206H365.61L365.58 41.176ZM366.81 41.476 366.84 41.506V42.166L366.81 42.196H365.61L365.58 42.166V41.506L365.61 41.476H366.81ZM366.81 42.466 366.84 42.496V43.126L366.81 43.156H365.61L365.58 43.126V42.496L365.61 42.466H366.81ZM364.08 42.466H365.22L365.28 42.496V43.126L365.22 43.156H364.08L364.05 43.126V42.496L364.08 42.466ZM364.08 41.476H365.22L365.28 41.506V42.166L365.22 42.196H364.08L364.05 42.166V41.506L364.08 41.476Z" fill-rule="evenodd"/><path transform="matrix(1,0,0,-1,0,595.276)" d="M367.98 52.396 368.01 52.426 368.13 52.516 368.16 52.576V52.636L367.83 52.756 367.53 52.936 367.2 53.146 366.87 53.446H367.86V54.736H366.78V55.126H368.19V55.396H366.78V55.756L366.84 55.816 366.87 55.846V55.876L366.81 55.906 366.45 55.936V55.396H365.13V55.126H366.45V54.736H365.46V53.446H366.39L366.09 53.176 365.79 52.966 365.49 52.786 365.19 52.636 365.1 52.606 365.13 52.516 365.25 52.426 365.31 52.396H365.37L365.94 52.696 366.45 53.116V51.916H366.78V53.146L367.35 52.696 367.92 52.396H367.98ZM367.53 54.466V53.716H366.78V54.466H367.53ZM366.45 54.466V53.716H365.76V54.466H366.45Z" fill-rule="evenodd"/><path transform="matrix(1,0,0,-1,0,595.276)" d="M367.44 59.656V60.526H367.95V57.736H367.41V57.826C367.32 57.736 367.17 57.676 366.93 57.676 366.48 57.646 366.09 57.976 366.03 58.636V58.696 58.876 58.936C366.09 59.476 366.42 59.776 366.9 59.806 367.05 59.806 367.23 59.746 367.44 59.656ZM366.54 58.756C366.54 58.366 366.69 58.156 366.99 58.126 367.11 58.156 367.17 58.186 367.26 58.216 367.32 58.276 367.38 58.336 367.41 58.426V58.906C367.41 58.966 367.41 59.026 367.41 59.056 367.38 59.086 367.35 59.116 367.35 59.146 367.32 59.146 367.32 59.146 367.32 59.176 367.23 59.236 367.14 59.296 367.02 59.296 366.87 59.266 366.75 59.236 366.69 59.146 366.6 59.056 366.57 58.906 366.54 58.756Z" fill-rule="evenodd"/><path transform="matrix(1,0,0,-1,0,595.276)" d="M364.47 58.546C364.47 58.456 364.5 58.366 364.59 58.276 364.68 58.186 364.77 58.156 364.89 58.186 365.07 58.186 365.25 58.246 365.31 58.366L365.64 58.036C365.55 57.826 365.22 57.646 364.89 57.676 364.62 57.676 364.32 57.796 364.11 58.036 363.96 58.246 363.87 58.486 363.87 58.756 363.93 59.476 364.23 59.806 364.77 59.836 365.1 59.806 365.34 59.686 365.49 59.476 365.64 59.266 365.7 58.966 365.7 58.546H364.47ZM364.44 58.966H365.19V59.026H365.16C365.13 59.206 364.95 59.326 364.8 59.326 364.74 59.326 364.62 59.296 364.56 59.236 364.47 59.146 364.44 59.056 364.44 58.996V58.966Z" fill-rule="evenodd"/><path transform="matrix(1,0,0,-1,0,595.276)" d="M362.31 58.546C362.31 58.456 362.34 58.366 362.43 58.276 362.52 58.186 362.64 58.156 362.73 58.186 362.91 58.186 363.09 58.246 363.18 58.366L363.48 58.036C363.39 57.826 363.06 57.646 362.73 57.676 362.46 57.676 362.16 57.796 361.95 58.036 361.8 58.246 361.74 58.486 361.74 58.756 361.8 59.476 362.1 59.806 362.61 59.836 362.94 59.806 363.18 59.686 363.33 59.476 363.48 59.266 363.57 58.966 363.54 58.546H362.31ZM362.28 58.966H363.03V59.026C362.97 59.206 362.82 59.326 362.64 59.326 362.58 59.326 362.49 59.296 362.4 59.236 362.34 59.146 362.28 59.056 362.28 58.996V58.966Z" fill-rule="evenodd"/><path transform="matrix(1,0,0,-1,0,595.276)" d="M360.03 57.856V57.076H359.46V59.776H359.97V59.686C360 59.716 360.06 59.746 360.15 59.776 360.27 59.806 360.39 59.836 360.48 59.836 361.05 59.836 361.41 59.446 361.41 58.756 361.41 58.456 361.32 58.186 361.14 57.976 360.99 57.766 360.75 57.676 360.48 57.676 360.3 57.676 360.06 57.736 360.03 57.856ZM360.42 58.186C360.48 58.186 360.57 58.186 360.66 58.246 360.75 58.306 360.81 58.396 360.84 58.456V58.486 58.546 58.576 58.966 58.996 59.056 59.086C360.81 59.146 360.75 59.236 360.66 59.296 360.57 59.326 360.48 59.356 360.42 59.356L360.39 59.326C360.21 59.326 360.03 59.176 360.03 59.056V58.516C360.03 58.456 360.06 58.366 360.15 58.306 360.24 58.216 360.33 58.186 360.42 58.186Z" fill-rule="evenodd"/><path transform="matrix(1,0,0,-1,0,595.276)" d="M355.68 58.366 355.98 58.036C355.95 57.946 355.86 57.856 355.71 57.766 355.56 57.706 355.38 57.676 355.23 57.676 354.96 57.676 354.66 57.796 354.45 58.036 354.3 58.246 354.24 58.486 354.24 58.756 354.3 59.476 354.6 59.806 355.14 59.836 355.44 59.806 355.68 59.686 355.83 59.476 355.98 59.266 356.07 58.966 356.04 58.546H354.81C354.81 58.456 354.84 58.366 354.93 58.276 355.02 58.186 355.14 58.156 355.23 58.186 355.41 58.186 355.59 58.246 355.68 58.366ZM354.78 58.966H355.53V59.026C355.47 59.206 355.32 59.326 355.17 59.326 355.08 59.326 354.99 59.296 354.9 59.236 354.84 59.146 354.78 59.056 354.78 58.996V58.966Z" fill-rule="evenodd"/><path transform="matrix(1,0,0,-1,0,595.276)" d="M359.76 52.216V55.366L359.73 55.396H358.38L358.35 55.366V51.856L358.38 51.796H358.62L358.65 51.856V52.426L358.71 52.456H359.4L359.43 52.426V52.216L359.49 52.156H359.73L359.76 52.216ZM358.65 53.806 358.71 53.836H359.4L359.43 53.806V52.756L359.4 52.726H358.71L358.65 52.756V53.806ZM358.71 55.156H359.4L359.43 55.126V54.136L359.4 54.106H358.71L358.65 54.136V55.126L358.71 55.156Z" fill-rule="evenodd"/><path transform="matrix(1,0,0,-1,0,595.276)" d="M356.22 46.696H354V47.476L355.95 50.116H357.06V47.536H357.63V46.696H357.06V46.006H356.22V46.696ZM356.22 47.536V49.066L355.08 47.536H356.22Z" fill-rule="evenodd"/><path transform="matrix(1,0,0,-1,0,595.276)" d="M345.15 61.426C345.15 61.636 345.24 61.906 345.42 62.116 345.63 62.296 345.9 62.386 346.11 62.386H369.6C369.72 62.386 369.84 62.356 369.96 62.326 370.08 62.266 370.2 62.206 370.29 62.116 370.41 61.996 370.47 61.906 370.53 61.786 370.56 61.666 370.59 61.516 370.59 61.426V37.936C370.59 37.696 370.5 37.426 370.29 37.216 370.11 37.036 369.84 36.946 369.6 36.946H346.11C345.9 36.946 345.63 37.036 345.42 37.216 345.24 37.426 345.15 37.696 345.15 37.936V61.426ZM369.57 61.876H346.17C346.11 61.876 346.05 61.876 345.96 61.846 345.9 61.816 345.84 61.786 345.81 61.726 345.75 61.696 345.72 61.636 345.69 61.546 345.69 61.516 345.66 61.486 345.66 61.456 345.66 61.426 345.66 61.396 345.66 61.366V37.966C345.66 37.846 345.69 37.696 345.81 37.606 345.9 37.486 346.05 37.456 346.17 37.456H369.57C369.69 37.456 369.84 37.486 369.93 37.606 370.05 37.696 370.08 37.846 370.08 37.966V61.366C370.08 61.486 370.05 61.636 369.93 61.726 369.84 61.846 369.69 61.876 369.57 61.876Z" fill-rule="evenodd"/></g></svg>