<?xml version='1.0' encoding='UTF-8'?>
<svg width="542.84" height="127.04" viewBox="13.07 73.22 542.84 127.04" xmlns="http://www.w3.org/2000/svg" xmlns:xlink="http://www.w3.org/1999/xlink" xmlns:inkscape="http://www.inkscape.org/namespaces/inkscape" version="1.1"><g transform="scale(10.0) translate(-111.171, -397.296)"><defs><clipPath id="clip_14"><path transform="matrix(1,0,0,-1,0,595.276)" d="M74.37 .046H767.49V595.276H74.37Z"/></clipPath></defs><path transform="matrix(1,0,0,-1,0,595.276)" d="M113.79 189.736H165.45C165.54 189.736 165.63 189.676 165.72 189.616 165.81 189.526 165.84 189.406 165.84 189.316V179.266C165.84 179.176 165.81 179.086 165.72 178.996 165.63 178.906 165.54 178.876 165.45 178.876H113.79C113.76 178.876 113.7 178.876 113.64 178.906 113.61 178.936 113.55 178.966 113.52 178.996 113.49 179.026 113.46 179.086 113.43 179.116 113.4 179.176 113.4 179.236 113.4 179.266V189.316C113.4 189.376 113.4 189.406 113.43 189.466 113.46 189.526 113.49 189.556 113.52 189.616 113.55 189.646 113.61 189.676 113.64 189.706 113.7 189.706 113.76 189.736 113.79 189.736Z" fill="#e1e1e1" fill-rule="evenodd"/><path transform="matrix(1,0,0,-1,0,595.276)" d="M165.45 190.126H113.79C113.61 190.126 113.4 190.036 113.25 189.886 113.07 189.736 113.01 189.526 113.01 189.316V179.266C113.01 179.086 113.07 178.876 113.25 178.696 113.4 178.546 113.61 178.486 113.79 178.486H165.45C165.63 178.486 165.84 178.546 166.02 178.696 166.17 178.876 166.23 179.086 166.23 179.266V189.316C166.23 189.406 166.23 189.526 166.17 189.616 166.14 189.706 166.08 189.796 166.02 189.886 165.93 189.976 165.84 190.036 165.75 190.066 165.63 190.096 165.54 190.126 165.45 190.126ZM165.45 189.736V189.736C165.54 189.736 165.63 189.676 165.72 189.616 165.81 189.526 165.84 189.406 165.84 189.316V179.266C165.84 179.236 165.84 179.176 165.81 179.116 165.78 179.086 165.75 179.026 165.72 178.996 165.69 178.966 165.63 178.936 165.6 178.906 165.54 178.876 165.48 178.876 165.45 178.876H113.79C113.76 178.876 113.7 178.876 113.64 178.906 113.61 178.936 113.55 178.966 113.52 178.996 113.49 179.026 113.46 179.086 113.43 179.116 113.4 179.176 113.4 179.236 113.4 179.266V189.316C113.4 189.376 113.4 189.406 113.43 189.466 113.46 189.526 113.49 189.556 113.52 189.616 113.55 189.646 113.61 189.676 113.64 189.706 113.7 189.706 113.76 189.736 113.79 189.736H165.45Z" fill-rule="evenodd"/><path transform="matrix(1,0,0,-1,0,595.276)" d="M139.59 186.346H138.84V186.736H139.59Z" fill-rule="evenodd"/><path transform="matrix(1,0,0,-1,0,595.276)" d="M137.76 187.636C138.06 187.636 138.27 187.486 138.39 187.246 138.39 187.216 138.39 187.216 138.39 187.186 138.39 187.156 138.39 187.126 138.39 187.126L138.42 187.096V185.896H137.94V187.036C137.94 187.066 137.94 187.126 137.88 187.126 137.85 187.156 137.79 187.186 137.73 187.186 137.58 187.186 137.43 187.066 137.43 186.946V185.896H136.98V187.036C136.95 187.126 136.86 187.186 136.74 187.186 136.62 187.186 136.47 187.066 136.44 186.946V185.896H135.99V187.576H136.44V187.516C136.5 187.546 136.56 187.576 136.62 187.606 136.68 187.636 136.77 187.636 136.83 187.636 137.04 187.636 137.19 187.576 137.28 187.426 137.4 187.576 137.55 187.636 137.76 187.636Z" fill-rule="evenodd"/><path transform="matrix(1,0,0,-1,0,595.276)" d="M132.42 187.756 131.67 185.896H132.18L132.93 187.756V188.236H131.28V187.756Z" fill-rule="evenodd"/><path transform="matrix(1,0,0,-1,0,595.276)" d="M145.92 187.186C145.77 187.186 145.62 187.066 145.62 186.946V185.896H145.14V187.576H145.59V187.516C145.65 187.546 145.74 187.576 145.8 187.606 145.86 187.636 145.92 187.636 146.01 187.636 146.22 187.636 146.37 187.576 146.46 187.426 146.58 187.576 146.73 187.636 146.91 187.636 147.24 187.636 147.45 187.486 147.54 187.246 147.54 187.216 147.57 187.216 147.57 187.186 147.57 187.156 147.57 187.126 147.57 187.126V187.096 185.896H147.12V187.036C147.12 187.066 147.09 187.126 147.06 187.126 147 187.156 146.94 187.186 146.88 187.186 146.76 187.186 146.61 187.066 146.61 186.946V185.896H146.13V187.036C146.13 187.126 146.04 187.186 145.92 187.186Z" fill-rule="evenodd"/><path transform="matrix(1,0,0,-1,0,595.276)" d="M143.19 187.576V185.326H143.64V185.956C143.67 185.866 143.88 185.806 144.03 185.806 144.51 185.806 144.81 186.196 144.81 186.736 144.81 187.006 144.75 187.246 144.6 187.396 144.45 187.576 144.27 187.636 144.03 187.636 143.85 187.636 143.64 187.576 143.61 187.516V187.576H143.19ZM143.64 186.976C143.64 187.096 143.79 187.216 143.97 187.216H144C144.09 187.246 144.27 187.156 144.33 187.006V186.946 186.916 186.556 186.496C144.3 186.406 144.24 186.346 144.18 186.316 144.09 186.256 144.03 186.256 143.97 186.256 143.91 186.256 143.82 186.286 143.73 186.346 143.7 186.376 143.67 186.406 143.67 186.436 143.64 186.466 143.64 186.496 143.64 186.526V186.976Z" fill-rule="evenodd"/><path transform="matrix(1,0,0,-1,0,595.276)" d="M134.07 187.366 134.31 187.036C134.37 187.126 134.46 187.156 134.55 187.186 134.64 187.216 134.73 187.246 134.82 187.216 134.91 187.246 134.94 187.216 134.97 187.186 135 187.186 135 187.156 135.03 187.126 135.03 187.096 135.03 187.066 135.03 187.036V186.976C134.37 186.976 134.04 186.796 134.04 186.436 134.04 186.046 134.28 185.806 134.73 185.806 134.88 185.806 135.09 185.926 135.12 186.016 135.15 185.956 135.21 185.896 135.27 185.866 135.36 185.836 135.45 185.836 135.57 185.836L135.69 186.166C135.63 186.166 135.6 186.196 135.57 186.196 135.54 186.226 135.51 186.256 135.51 186.286V187.156C135.48 187.486 135.24 187.666 134.82 187.636 134.49 187.636 134.25 187.576 134.07 187.366ZM135.03 186.616V186.316C135 186.286 134.97 186.286 134.94 186.256 134.91 186.226 134.85 186.226 134.79 186.226 134.7 186.226 134.64 186.226 134.58 186.256 134.55 186.286 134.52 186.346 134.52 186.406 134.55 186.526 134.7 186.616 135.03 186.616Z" fill-rule="evenodd"/><path transform="matrix(1,0,0,-1,0,595.276)" d="M141 185.806C140.76 185.806 140.52 185.896 140.34 186.016 140.19 186.166 140.1 186.376 140.1 186.586 140.1 186.796 140.22 187.006 140.4 187.096 140.25 187.216 140.19 187.366 140.19 187.576 140.19 188.056 140.46 188.296 141 188.296 141.27 188.296 141.48 188.236 141.63 188.116 141.78 187.996 141.84 187.816 141.84 187.576 141.84 187.366 141.78 187.216 141.63 187.096 141.81 187.006 141.93 186.796 141.93 186.586 141.93 186.376 141.84 186.166 141.66 186.016 141.51 185.896 141.27 185.806 141 185.806ZM141 187.336C141.24 187.336 141.36 187.426 141.36 187.576 141.36 187.666 141.33 187.726 141.27 187.786 141.21 187.816 141.12 187.846 141 187.846 140.79 187.846 140.67 187.756 140.67 187.576 140.67 187.516 140.7 187.456 140.76 187.396 140.82 187.366 140.91 187.336 141 187.336ZM141 186.886C140.76 186.886 140.64 186.766 140.64 186.586 140.64 186.376 140.76 186.256 141 186.256 141.27 186.256 141.39 186.376 141.39 186.586 141.39 186.766 141.27 186.886 141 186.886Z" fill-rule="evenodd"/><path transform="matrix(1,0,0,-1,0,595.276)" d="M130.14 182.626 132.27 182.926 132.24 183.136 130.14 182.866V184.006L130.2 184.036V184.096L130.17 184.126 130.08 184.156 129.87 184.186V182.836L128.61 182.656 128.64 182.386 129.87 182.566V180.916L129.9 180.796 129.96 180.706 130.05 180.646 130.2 180.616H131.46L131.7 180.646 131.88 180.766 132.06 180.946 132.18 181.186 132.27 181.456 132.21 181.516 132.06 181.546 132.03 181.516 131.88 181.096 131.7 180.916 131.49 180.826H130.5L130.23 180.856 130.14 180.946Z" fill-rule="evenodd"/><path transform="matrix(1,0,0,-1,0,595.276)" d="M126.06 182.266H127.65V182.056H126.06V180.496H125.79V182.056H124.05V182.266H125.79V183.496H124.86L124.62 183.106 124.35 182.746 124.17 182.896 124.59 183.556 124.95 184.306 125.1 184.216 125.22 184.186 125.28 184.126 125.25 184.096 125.16 184.066 124.98 183.706H127.32V183.496H126.06Z" fill-rule="evenodd"/><path transform="matrix(1,0,0,-1,0,595.276)" d="M138.24 182.626 140.85 182.896 141.03 182.506 141.3 182.566 140.94 183.166 140.55 183.676 140.37 183.556 140.73 183.076 138.84 182.896 139.5 183.826H141.27V184.036H137.94V183.826H139.23L138.57 182.896 138 182.866 138.06 182.716 138.12 182.596 138.18 182.566H138.21Z" fill-rule="evenodd"/><path transform="matrix(1,0,0,-1,0,595.276)" d="M139.5 182.536V181.966H138.12V181.756H139.5V180.976H137.82V180.766H141.39V180.976H139.74V181.756H141.06V181.966H139.74V182.356L139.83 182.416 139.86 182.476 139.83 182.506 139.74 182.536Z" fill-rule="evenodd"/><path transform="matrix(1,0,0,-1,0,595.276)" d="M144.03 183.946V180.646H144.3V182.806L144.87 182.446 145.41 182.056 145.56 182.266 144.96 182.686 144.3 183.106V183.946H146.01V184.156H142.38V183.946Z" fill-rule="evenodd"/><path transform="matrix(1,0,0,-1,0,595.276)" d="M135.48 181.246 135.18 181.486 134.85 181.666 134.7 181.486 135.03 181.276 135.33 181.036Z" fill-rule="evenodd"/><path transform="matrix(1,0,0,-1,0,595.276)" d="M136.68 182.056H136.26L136.23 182.086V182.356L136.29 182.386V182.446L136.23 182.476H136.11L136.02 182.506 135.99 182.476V182.086L135.96 182.056H134.7L134.64 182.026V181.876L134.7 181.846H135.96L135.99 181.816V180.916L135.96 180.826 135.9 180.766H135.57 135.51V180.706L135.54 180.586 135.57 180.556 135.63 180.526H136.05L136.14 180.556 136.2 180.616 136.23 180.706V180.796 181.816L136.26 181.846H136.68L136.74 181.876V182.026Z" fill-rule="evenodd"/><path transform="matrix(1,0,0,-1,0,595.276)" d="M135.54 183.526V182.866L135.51 182.836H134.58L134.55 182.806V182.656L134.58 182.626H136.8L136.83 182.656V182.806L136.8 182.836H135.84L135.81 182.866V183.526H135.84 136.56L136.59 183.556V183.736L136.56 183.766H135.84 135.81V184.096L135.84 184.156 135.87 184.186 135.81 184.216 135.72 184.246 135.57 184.276 135.54 184.246V183.766H135.51 134.85L134.76 183.736H134.73V183.556H134.76L134.85 183.526H135.51Z" fill-rule="evenodd"/><path transform="matrix(1,0,0,-1,0,595.276)" d="M148.74 182.056H146.97V182.266H148.74V183.496H147.81L147.57 183.106 147.3 182.746 147.09 182.896 147.54 183.556 147.9 184.306 148.05 184.216 148.14 184.186 148.2 184.126 148.17 184.096 148.11 184.066 147.93 183.706H150.27V183.496H149.01V182.266H150.6V182.056H149.01V180.496H148.74Z" fill-rule="evenodd"/><path transform="matrix(1,0,0,-1,0,595.276)" d="M152.25 182.116 152.16 181.756 152.04 181.456 151.89 181.156 151.71 180.916 151.5 180.676V180.646L151.68 180.526H151.74L151.95 180.766 152.16 181.006 152.31 181.306 152.46 181.606 152.55 181.966 152.64 182.326 152.7 182.746 152.73 183.166 152.79 183.196V183.256L152.76 183.286H152.7L152.43 183.316 152.4 182.866 152.34 182.476Z" fill-rule="evenodd"/><path transform="matrix(1,0,0,-1,0,595.276)" d="M154.08 183.976H153V183.736H153.81L153.87 183.256 153.93 182.776 154.02 182.356 154.14 181.936 154.29 181.546 154.47 181.216 154.65 180.886 154.86 180.586H154.95L155.1 180.676V180.736L154.89 181.036 154.71 181.366 154.53 181.696 154.38 182.086 154.26 182.506 154.17 182.956 154.11 183.466Z" fill-rule="evenodd"/><path transform="matrix(1,0,0,-1,0,595.276)" d="M157.62 181.486 157.98 181.276 158.28 181.036 158.43 181.246 158.1 181.486 157.8 181.666Z" fill-rule="evenodd"/><path transform="matrix(1,0,0,-1,0,595.276)" d="M159.18 180.706V180.796 181.816L159.21 181.846H159.63L159.66 181.876V182.026L159.63 182.056H159.21L159.18 182.086V182.356L159.24 182.386 159.21 182.446 159.15 182.476H159.06L158.97 182.506 158.91 182.476V182.086L158.88 182.056H157.62L157.59 182.026V181.876L157.62 181.846H158.88L158.91 181.816V180.916L158.88 180.826 158.82 180.766H158.49 158.43V180.706L158.46 180.586 158.52 180.556 158.58 180.526H159L159.09 180.556 159.12 180.616Z" fill-rule="evenodd"/><path transform="matrix(1,0,0,-1,0,595.276)" d="M158.46 183.526V182.866 182.836H157.5L157.47 182.806V182.656L157.5 182.626H159.72L159.75 182.656V182.806L159.72 182.836H158.76L158.73 182.866V183.526H158.76 159.48L159.51 183.556V183.736L159.48 183.766H158.76 158.73V184.096L158.79 184.156V184.186L158.76 184.216 158.67 184.246 158.52 184.276 158.46 184.246V183.766H157.8L157.71 183.736H157.68V183.556H157.71L157.8 183.526H158.46Z" fill-rule="evenodd"/><path transform="matrix(1,0,0,-1,0,595.276)" d="M134.37 183.856V181.306L134.31 181.276H134.13L134.1 181.306V181.486L134.07 181.516H133.5L133.47 181.486V181.006L133.44 180.976H133.23L133.2 181.006V183.856L133.23 183.886H134.31L134.37 183.856ZM133.5 182.836H134.07L134.1 182.866V183.646L134.07 183.676H133.5L133.47 183.646V182.866L133.5 182.836ZM133.5 182.626 133.47 182.596V181.756L133.5 181.726H134.07L134.1 181.756V182.596L134.07 182.626H133.5Z" fill-rule="evenodd"/><path transform="matrix(1,0,0,-1,0,595.276)" d="M157.29 183.856V181.306L157.26 181.276H157.08L157.05 181.306V181.486L157.02 181.516H156.45L156.42 181.486V181.006L156.36 180.976H156.18L156.15 181.006V183.856L156.18 183.886H157.26L157.29 183.856ZM156.45 182.836H157.02L157.05 182.866V183.646L157.02 183.676H156.45L156.42 183.646V182.866L156.45 182.836ZM156.45 182.626 156.42 182.596V181.756L156.45 181.726H157.02L157.05 181.756V182.596L157.02 182.626H156.45Z" fill-rule="evenodd"/><path transform="matrix(1,0,0,-1,0,595.276)" d="M119.46 180.616H123.06V180.826H121.23V182.506H122.73V182.716H121.23V184.036L121.29 184.096V184.126L121.23 184.156 121.11 184.186H120.96V180.826H119.46Z" fill-rule="evenodd"/></g></svg>