<?xml version='1.0' encoding='UTF-8'?>
<svg width="490.21" height="262.51" viewBox="39.20 5.87 490.21 262.51" xmlns="http://www.w3.org/2000/svg" xmlns:xlink="http://www.w3.org/1999/xlink" xmlns:inkscape="http://www.inkscape.org/namespaces/inkscape" version="1.1"><g transform="scale(10.0) translate(-329.439, -47.232)"><defs><clipPath id="clip_14"><path transform="matrix(1,0,0,-1,0,595.276)" d="M74.37 .046H767.49V595.276H74.37Z"/></clipPath></defs><path transform="matrix(1,0,0,-1,0,595.276)" d="M380.1 546.976H335.64C335.43 546.976 335.19 546.946 334.98 546.856 334.74 546.766 334.53 546.646 334.35 546.466 334.17 546.286 334.05 546.076 333.96 545.836 333.87 545.626 333.84 545.386 333.84 545.176V523.516C333.84 523.276 333.87 523.066 333.96 522.826 334.05 522.616 334.17 522.406 334.35 522.226 334.53 522.046 334.74 521.896 334.98 521.806 335.19 521.716 335.43 521.686 335.64 521.686H380.1C380.31 521.686 380.52 521.716 380.76 521.806 380.97 521.896 381.18 522.046 381.36 522.226 381.54 522.406 381.69 522.616 381.78 522.826 381.87 523.066 381.9 523.276 381.9 523.516V545.176C381.9 545.386 381.87 545.626 381.78 545.836 381.69 546.076 381.54 546.286 381.36 546.466 381.18 546.646 380.97 546.766 380.76 546.856 380.52 546.946 380.31 546.976 380.1 546.976ZM380.1 546.076C380.31 546.076 380.55 545.986 380.73 545.806 380.91 545.626 381 545.386 381 545.176V523.516C381 523.276 380.91 523.036 380.73 522.856 380.55 522.676 380.31 522.586 380.1 522.586H335.64C335.43 522.586 335.19 522.676 335.01 522.856 334.83 523.036 334.74 523.276 334.74 523.516V545.176C334.74 545.386 334.83 545.626 335.01 545.806 335.19 545.986 335.43 546.076 335.64 546.076H380.1Z" fill-rule="evenodd"/><path transform="matrix(1,0,0,-1,0,595.276)" d="M335.64 546.076H380.1C380.19 546.076 380.31 546.046 380.43 546.016 380.52 545.956 380.64 545.896 380.73 545.806 380.82 545.716 380.88 545.626 380.94 545.506 380.97 545.386 381 545.266 381 545.176V523.516C381 523.276 380.91 523.036 380.73 522.856 380.64 522.766 380.52 522.706 380.43 522.646 380.31 522.616 380.19 522.586 380.1 522.586H335.64C335.43 522.586 335.19 522.676 335.01 522.856 334.83 523.036 334.74 523.276 334.74 523.516V545.176C334.74 545.416 334.83 545.626 335.01 545.806 335.16 545.986 335.4 546.076 335.64 546.076Z" fill="#ffffff" fill-rule="evenodd"/><path transform="matrix(1,0,0,-1,0,595.276)" d="M341.28 538.156H339.06V543.466H341.28C341.94 543.466 342.48 543.226 342.9 542.746 343.29 542.266 343.5 541.606 343.5 540.826 343.5 540.046 343.29 539.356 342.9 538.876 342.48 538.426 341.94 538.156 341.28 538.156ZM340.2 542.326V539.296H341.07 341.13C341.22 539.296 341.34 539.296 341.4 539.326 341.46 539.326 341.49 539.326 341.49 539.326 341.73 539.356 341.97 539.536 342.12 539.806 342.3 540.076 342.36 540.436 342.36 540.826 342.36 541.156 342.3 541.516 342.15 541.786 342 542.056 341.79 542.236 341.55 542.296H341.46C341.4 542.296 341.25 542.326 341.16 542.326H341.1 340.2Z" fill-rule="evenodd"/><path transform="matrix(1,0,0,-1,0,595.276)" d="M346.89 541.966H347.97V538.066H346.83V538.276C346.83 538.186 346.74 538.126 346.53 538.066 346.35 538.006 346.11 537.976 345.9 537.976 345.54 537.976 345.15 538.066 344.88 538.336 344.73 538.456 344.61 538.576 344.55 538.756 344.46 538.906 344.43 539.056 344.43 539.206V541.966H345.51V539.596C345.51 539.536 345.51 539.476 345.54 539.386 345.6 539.326 345.63 539.236 345.72 539.176 345.87 539.056 346.02 538.996 346.17 538.996 346.32 538.996 346.53 539.056 346.68 539.206 346.83 539.356 346.89 539.566 346.89 539.746V541.966Z" fill-rule="evenodd"/><path transform="matrix(1,0,0,-1,0,595.276)" d="M354.21 541.966H355.17V541.036H354.21V539.356C354.21 539.236 354.24 539.146 354.3 539.056 354.39 538.996 354.48 538.936 354.6 538.936 354.69 538.936 354.75 538.936 354.84 538.936 354.93 538.966 355.05 538.996 355.17 539.026L355.32 538.156C355.14 538.006 354.78 537.946 354.21 537.946 353.91 537.946 353.67 538.036 353.49 538.186 353.31 538.366 353.19 538.606 353.16 538.936V541.036H352.53V541.966H353.16V543.166L354.21 543.496V541.966Z" fill-rule="evenodd"/><path transform="matrix(1,0,0,-1,0,595.276)" d="M359.64 542.146C360.06 542.146 360.42 542.056 360.72 541.846 360.99 541.666 361.23 541.366 361.35 540.946L360.48 540.556C360.33 540.976 360.03 541.186 359.64 541.156 359.19 541.126 358.92 540.856 358.83 540.286 358.8 540.196 358.8 540.136 358.8 540.076 358.8 539.986 358.83 539.866 358.83 539.806V539.776C358.98 539.236 359.28 538.966 359.7 538.936 359.88 538.936 360.06 538.966 360.18 539.086 360.33 539.206 360.42 539.356 360.48 539.596L361.38 539.236C361.14 538.366 360.6 537.946 359.73 537.976 358.47 538.006 357.81 538.696 357.78 540.076 357.9 541.426 358.5 542.116 359.64 542.146Z" fill-rule="evenodd"/><path transform="matrix(1,0,0,-1,0,595.276)" d="M363 543.466V539.296 539.266L363.03 539.146V539.116C363.06 539.026 363.3 539.026 363.69 539.086L363.81 538.156C363.81 538.156 363.81 538.126 363.75 538.126 363.72 538.096 363.66 538.096 363.57 538.096 363.39 538.066 363.18 538.036 363 538.036 362.76 538.036 362.52 538.096 362.34 538.216 362.13 538.366 362.01 538.546 361.98 538.726 361.98 538.816 361.95 538.846 361.95 538.876 361.95 538.906 361.95 538.936 361.98 538.966V538.996 543.466H363Z" fill-rule="evenodd"/><path transform="matrix(1,0,0,-1,0,595.276)" d="M371.31 541.966H372.36V538.066H371.22V538.276C371.22 538.186 371.13 538.126 370.92 538.066 370.74 538.006 370.5 537.976 370.32 537.976 369.93 537.976 369.57 538.066 369.27 538.336 369.12 538.456 369 538.576 368.94 538.756 368.88 538.906 368.85 539.056 368.85 539.206V541.966H369.9V539.596C369.9 539.536 369.9 539.476 369.96 539.386 369.99 539.326 370.05 539.236 370.11 539.176 370.26 539.056 370.41 538.996 370.56 538.996 370.74 538.996 370.92 539.056 371.07 539.206 371.16 539.296 371.22 539.386 371.25 539.476 371.28 539.566 371.31 539.656 371.31 539.746V541.966Z" fill-rule="evenodd"/><path transform="matrix(1,0,0,-1,0,595.276)" d="M352.08 539.296C352.11 540.076 351.69 540.496 350.82 540.646 350.55 540.646 350.34 540.676 350.22 540.736 350.16 540.736 350.1 540.766 350.07 540.826 350.04 540.856 350.04 540.886 350.04 540.946 350.04 541.126 350.19 541.246 350.58 541.276 350.76 541.246 350.91 541.216 351.06 541.156 351.18 541.066 351.3 540.976 351.42 540.826L352.05 541.546C351.75 541.966 351.3 542.176 350.61 542.206 349.53 542.176 348.99 541.726 348.93 540.826 349.02 540.166 349.38 539.776 350.1 539.656 350.67 539.656 350.97 539.506 350.97 539.266 350.97 539.176 350.94 539.086 350.85 539.026 350.79 538.966 350.67 538.936 350.52 538.936 350.31 538.936 350.1 538.996 349.92 539.086 349.74 539.176 349.56 539.296 349.41 539.476L348.69 538.756C349.11 538.216 349.71 537.976 350.49 537.976 351.48 537.976 352.08 538.456 352.08 539.296Z" fill-rule="evenodd"/><path transform="matrix(1,0,0,-1,0,595.276)" d="M368.04 540.046C368.04 541.396 367.38 542.146 366.18 542.146 365.58 542.146 365.1 541.966 364.77 541.606 364.44 541.246 364.29 540.706 364.29 540.046 364.29 539.416 364.44 538.876 364.77 538.516 365.1 538.156 365.58 537.976 366.18 537.976 367.38 537.976 368.04 538.726 368.04 540.046ZM366.93 540.046C366.93 539.386 366.66 539.026 366.18 539.026 365.67 539.026 365.4 539.386 365.4 540.046 365.4 540.706 365.67 541.096 366.18 541.096 366.66 541.096 366.93 540.706 366.93 540.046Z" fill-rule="evenodd"/><path transform="matrix(1,0,0,-1,0,595.276)" d="M375.9 541.816V543.466H376.95V538.066H375.87V538.246C375.72 538.066 375.42 537.976 374.97 537.976 374.07 537.916 373.32 538.576 373.17 539.866V539.956L373.2 540.316V540.406C373.29 541.456 373.98 542.026 374.88 542.086 375.18 542.086 375.51 541.996 375.9 541.816ZM375.87 539.416V540.346C375.87 540.496 375.87 540.556 375.87 540.646 375.84 540.706 375.78 540.766 375.75 540.796 375.72 540.856 375.72 540.856 375.69 540.856 375.54 541.006 375.33 541.096 375.12 541.096 374.55 541.066 374.25 540.706 374.19 540.046 374.22 539.326 374.52 538.936 375.09 538.876 375.48 538.906 375.72 539.086 375.87 539.416Z" fill-rule="evenodd"/><path transform="matrix(1,0,0,-1,0,595.276)" d="M352.56 533.956V533.446H349.38V530.686L349.32 529.456 349.17 528.376 348.93 527.476 348.63 526.696 349.29 526.246 349.65 527.086 349.89 528.106 350.04 529.276 350.1 530.626H356.25V532.246H354.27V532.756H356.52V533.446H353.37V533.656L353.49 533.746V533.806L353.43 533.866 353.25 533.926 352.56 533.956ZM352.2 531.256V531.676H353.46V531.256H352.2ZM354.27 531.256V531.676H355.56V531.256H354.27ZM350.1 531.256V531.676H351.42V531.256H350.1ZM352.2 532.246V532.756H353.46V532.246H352.2ZM350.1 532.246V532.756H351.42V532.246H350.1Z" fill-rule="evenodd"/><path transform="matrix(1,0,0,-1,0,595.276)" d="M350.85 530.506V529.036L350.25 528.976 350.28 528.556 350.34 528.346 350.43 528.256 350.55 528.286 350.64 528.406 353.07 528.736V529.276L351.6 529.096V529.546H353.01V530.116H351.6V530.236L351.72 530.356V530.416L351.66 530.476 351.48 530.506Z" fill-rule="evenodd"/><path transform="matrix(1,0,0,-1,0,595.276)" d="M352.8 528.526V528.046H350.7V527.416H352.8V527.026H349.74V526.366H356.52V527.026H353.61V527.416H355.74V528.046H353.61V528.196L353.79 528.256V528.346L353.67 528.406 353.4 528.496Z" fill-rule="evenodd"/><path transform="matrix(1,0,0,-1,0,595.276)" d="M353.4 530.536V529.426L353.43 528.976 353.61 528.646 353.94 528.466 354.45 528.406H355.47L355.8 528.466 356.1 528.586 356.31 528.826 356.49 529.156 355.83 529.516 355.77 529.306 355.65 529.156 355.47 529.066 355.23 529.036H354.6L354.36 529.066 354.18 529.126 354.12 529.216V529.366L355.98 529.756H356.19L356.31 529.816V529.936L356.19 530.086 355.8 530.446 354.96 530.116 354.09 529.906V530.176L354.21 530.236 354.24 530.296 354.15 530.386 353.97 530.446Z" fill-rule="evenodd"/><path transform="matrix(1,0,0,-1,0,595.276)" d="M363.39 533.866 362.76 533.896V531.436H359.79V530.626H362.76V527.476H359.28V526.726H366.99V527.476H363.66V530.626H366.39V531.436H363.66V533.566L363.81 533.686V533.776L363.66 533.836Z" fill-rule="evenodd"/></g></svg>