<?xml version='1.0' encoding='UTF-8'?>
<svg width="299.24" height="257.54" viewBox="135.08 8.15 299.24 257.54" xmlns="http://www.w3.org/2000/svg" xmlns:xlink="http://www.w3.org/1999/xlink" xmlns:inkscape="http://www.inkscape.org/namespaces/inkscape" version="1.1"><g transform="scale(10.0) translate(-602.205, -101.088)"><defs><clipPath id="clip_14"><path transform="matrix(1,0,0,-1,0,595.276)" d="M19.8 .046H822.06V595.276H19.8Z"/></clipPath></defs><path transform="matrix(1,0,0,-1,0,595.276)" d="M642.09 493.006H619.26C618.87 493.006 618.48 492.916 618.09 492.766 617.7 492.616 617.31 492.376 617.01 492.076 616.71 491.746 616.47 491.386 616.32 490.996 616.14 490.606 616.08 490.186 616.08 489.826V471.166C616.08 470.776 616.14 470.386 616.32 469.996 616.47 469.606 616.71 469.216 617.01 468.916 617.31 468.586 617.7 468.376 618.09 468.196 618.48 468.046 618.87 467.986 619.26 467.986H642.09C642.48 467.986 642.87 468.046 643.26 468.196 643.65 468.376 644.01 468.586 644.34 468.916 644.64 469.216 644.88 469.606 645.03 469.996 645.18 470.386 645.27 470.776 645.27 471.166V489.826C645.27 490.186 645.18 490.606 645.03 490.996 644.88 491.386 644.64 491.746 644.34 492.076 644.01 492.376 643.65 492.616 643.26 492.766 642.87 492.916 642.48 493.006 642.09 493.006Z" fill="#ffffff" fill-rule="evenodd"/><path transform="matrix(1,0,0,-1,0,595.276)" d="M642.09 491.416H619.26C619.05 491.416 618.87 491.386 618.66 491.296 618.48 491.206 618.3 491.116 618.12 490.936 617.97 490.786 617.85 490.606 617.79 490.396 617.7 490.216 617.67 490.006 617.67 489.826V471.166C617.67 470.956 617.7 470.776 617.79 470.566 617.85 470.386 617.97 470.176 618.12 470.026 618.3 469.876 618.48 469.756 618.66 469.666 618.87 469.606 619.05 469.576 619.26 469.576H642.09C642.27 469.576 642.48 469.606 642.69 469.666 642.87 469.756 643.05 469.876 643.2 470.026 643.38 470.176 643.5 470.386 643.56 470.566 643.65 470.776 643.68 470.956 643.68 471.166V489.826C643.68 490.006 643.65 490.216 643.56 490.396 643.5 490.606 643.38 490.786 643.2 490.936 643.05 491.116 642.87 491.206 642.69 491.296 642.48 491.386 642.27 491.416 642.09 491.416Z" fill="#0000ff" fill-rule="evenodd"/><path transform="matrix(1,0,0,-1,0,595.276)" d="M632.76 484.666 636.93 488.836 641.1 484.666V480.496L638.31 483.256V472.156H635.52V483.256L632.76 480.496Z" fill="#ffffff" fill-rule="evenodd"/><path transform="matrix(1,0,0,-1,0,595.276)" d="M627.18 487.486C627.18 487.846 627.06 488.176 626.79 488.446 626.55 488.686 626.22 488.836 625.86 488.836 625.5 488.836 625.17 488.686 624.93 488.446 624.66 488.176 624.54 487.846 624.54 487.486 624.54 487.126 624.66 486.796 624.93 486.556 625.17 486.286 625.5 486.166 625.86 486.166 626.22 486.166 626.55 486.286 626.79 486.556 627.06 486.796 627.18 487.126 627.18 487.486Z" fill="#ffffff" fill-rule="evenodd"/><path transform="matrix(1,0,0,-1,0,595.276)" d="M627.54 472.156H628.59L628.38 475.816 626.85 479.986 627.09 482.566 627.69 481.906 629.67 480.226 630.15 481.006 628.44 482.566 627.93 484.066C627.78 484.486 627.48 484.876 627.06 485.176 626.67 485.446 626.22 485.626 625.74 485.656 625.29 485.686 624.81 485.596 624.39 485.356 623.94 485.146 623.58 484.786 623.37 484.396L622.65 483.286 622.02 479.776 622.86 479.446 623.7 482.806 624.24 483.346 622.38 476.296 620.76 473.716 621.57 472.876 624.45 476.746 625.26 478.726 626.85 475.906 627.54 472.156Z" fill="#ffffff" fill-rule="evenodd"/><path transform="matrix(.03,0,0,.03,0,0)" stroke-width="5" stroke-linecap="round" stroke-linejoin="round" fill="none" stroke="#0000ff" d="M21509 4137V3515C21509 3487 21498 3460 21478 3440 21458 3421 21431 3409 21403 3409H20642C20614 3409 20587 3421 20567 3440 20547 3460 20536 3487 20536 3515V4137C20536 4165 20547 4192 20567 4212 20587 4232 20614 4243 20642 4243H21403C21431 4243 21458 4232 21478 4212 21498 4192 21509 4165 21509 4137"/></g></svg>