<?xml version='1.0' encoding='UTF-8'?>
<svg width="371.18" height="256.28" viewBox="98.57 8.78 371.18 256.28" xmlns="http://www.w3.org/2000/svg" xmlns:xlink="http://www.w3.org/1999/xlink" xmlns:inkscape="http://www.inkscape.org/namespaces/inkscape" version="1.1"><g transform="scale(10.0) translate(-329.439, -370.368)"><defs><clipPath id="clip_14"><path transform="matrix(1,0,0,-1,0,595.276)" d="M74.37 .046H767.49V595.276H74.37Z"/></clipPath></defs><path transform="matrix(1,0,0,-1,0,595.276)" d="M341.13 223.666H374.61C374.79 223.666 374.97 223.636 375.15 223.576 375.33 223.486 375.48 223.396 375.63 223.246 375.78 223.096 375.9 222.946 375.96 222.766 376.02 222.586 376.05 222.376 376.05 222.226V200.236C376.05 199.876 375.93 199.486 375.63 199.216 375.48 199.066 375.33 198.946 375.15 198.886 374.97 198.796 374.79 198.766 374.61 198.766H341.13C340.77 198.766 340.41 198.916 340.11 199.216 339.96 199.336 339.84 199.516 339.78 199.696 339.69 199.876 339.66 200.056 339.66 200.236V222.226C339.66 222.556 339.81 222.946 340.11 223.246 340.23 223.396 340.41 223.486 340.59 223.576 340.77 223.636 340.95 223.666 341.13 223.666ZM341.13 222.946C340.74 222.946 340.41 222.616 340.41 222.226V200.236C340.41 200.056 340.47 199.876 340.62 199.726 340.77 199.576 340.95 199.516 341.13 199.516H374.61C374.7 199.516 374.79 199.516 374.88 199.546 374.97 199.576 375.06 199.636 375.12 199.726 375.27 199.876 375.33 200.056 375.33 200.236V222.226C375.33 222.406 375.27 222.586 375.12 222.736 374.97 222.886 374.79 222.946 374.61 222.946H341.13Z" fill-rule="evenodd"/><path transform="matrix(1,0,0,-1,0,595.276)" d="M341.13 222.946H374.61C374.79 222.946 374.97 222.886 375.12 222.736 375.27 222.586 375.33 222.406 375.33 222.226V200.236C375.33 200.056 375.27 199.876 375.12 199.726 374.97 199.576 374.79 199.516 374.61 199.516H341.13C340.95 199.516 340.77 199.576 340.62 199.726 340.47 199.876 340.41 200.056 340.41 200.236V222.226C340.41 222.406 340.47 222.586 340.62 222.736 340.77 222.886 340.95 222.946 341.13 222.946Z" fill="#ffffff" fill-rule="evenodd"/><path transform="matrix(1,0,0,-1,0,595.276)" d="M350.88 218.956C350.88 218.326 351.06 217.786 351.36 217.396 351.69 217.006 352.14 216.796 352.65 216.796 352.86 216.796 353.07 216.826 353.25 216.856 353.43 216.916 353.58 217.006 353.67 217.126V216.886H354.45V219.226H352.65V218.506H353.64C353.64 218.416 353.64 218.296 353.58 218.206 353.55 218.086 353.49 217.996 353.37 217.906 353.16 217.726 352.89 217.666 352.65 217.666 352.41 217.666 352.17 217.786 351.99 218.026 351.81 218.266 351.75 218.596 351.75 218.956 351.75 219.316 351.81 219.646 351.99 219.886 352.17 220.126 352.41 220.246 352.65 220.246 352.92 220.246 353.19 220.216 353.37 220.096 353.46 220.036 353.52 219.976 353.58 219.886 353.61 219.826 353.64 219.736 353.64 219.646L354.39 220.066C354.09 220.756 353.4 221.176 352.65 221.116 352.17 221.116 351.69 220.936 351.36 220.516 351.03 220.126 350.88 219.556 350.88 218.956Z" fill-rule="evenodd"/><path transform="matrix(1,0,0,-1,0,595.276)" d="M357.3 219.826H358.08V216.886H357.24V217.036C357.24 216.976 357.15 216.916 357 216.886 356.85 216.826 356.7 216.796 356.55 216.796 356.25 216.796 355.98 216.886 355.74 217.066 355.65 217.156 355.56 217.276 355.5 217.396 355.44 217.516 355.41 217.636 355.41 217.756V219.826H356.22V218.026C356.22 217.936 356.28 217.816 356.4 217.726 356.49 217.636 356.61 217.576 356.73 217.576 356.85 217.576 357 217.636 357.12 217.756 357.24 217.876 357.3 217.996 357.3 218.146V219.826Z" fill-rule="evenodd"/><path transform="matrix(1,0,0,-1,0,595.276)" d="M359.55 220.966V217.816 217.786 217.696 217.666C359.58 217.606 359.76 217.606 360.09 217.666L360.18 216.946C360.18 216.946 360.12 216.916 359.97 216.886 359.85 216.886 359.7 216.856 359.55 216.856 359.16 216.856 358.83 217.066 358.77 217.396 358.77 217.456 358.77 217.456 358.77 217.486 358.77 217.516 358.77 217.546 358.77 217.576V220.966H359.55Z" fill-rule="evenodd"/><path transform="matrix(1,0,0,-1,0,595.276)" d="M361.35 220.966V217.816 217.786 217.696 217.666C361.38 217.606 361.56 217.606 361.89 217.666L361.98 216.946C361.98 216.946 361.92 216.916 361.77 216.886 361.65 216.886 361.5 216.856 361.35 216.856 360.96 216.856 360.63 217.066 360.57 217.396 360.57 217.456 360.57 217.456 360.57 217.486 360.57 217.516 360.57 217.546 360.57 217.576V220.966H361.35Z" fill-rule="evenodd"/><path transform="matrix(1,0,0,-1,0,595.276)" d="M365.04 219.826H364.2L363.63 218.086 363.09 219.826H362.25L363.12 217.156C363.15 217.096 363.18 217.036 363.18 216.976 363.18 216.916 363.18 216.856 363.18 216.826 363.18 216.736 363.15 216.676 363.06 216.676 362.97 216.676 362.88 216.676 362.79 216.676 362.7 216.706 362.64 216.706 362.55 216.736L362.43 216.076C362.76 215.986 363.09 215.926 363.39 215.926 363.48 215.926 363.6 215.986 363.69 216.076 363.81 216.196 363.87 216.316 363.93 216.466L365.04 219.826Z" fill-rule="evenodd"/><path transform="matrix(1,0,0,-1,0,595.276)" d="M348.06 212.356C348.09 213.556 347.64 214.156 346.68 214.216 345.9 214.216 345.45 213.676 345.39 212.656 345.39 212.236 345.48 211.876 345.69 211.606 345.84 211.426 346.02 211.306 346.23 211.216 346.44 211.126 346.65 211.066 346.86 211.066 347.07 211.066 347.34 211.096 347.55 211.216 347.76 211.306 347.91 211.456 347.97 211.606L347.49 212.086C347.43 211.996 347.34 211.936 347.22 211.876 347.1 211.816 346.98 211.786 346.86 211.786 346.71 211.786 346.53 211.816 346.41 211.936 346.35 211.996 346.29 212.056 346.26 212.146 346.23 212.206 346.23 212.296 346.23 212.356H348.06ZM346.2 212.956V212.986C346.2 213.106 346.26 213.226 346.38 213.346 346.47 213.436 346.62 213.496 346.74 213.496 346.98 213.496 347.22 213.286 347.28 213.046V212.986 212.956H346.2Z" fill-rule="evenodd"/><path transform="matrix(1,0,0,-1,0,595.276)" d="M351.66 213.436C351.54 213.436 351.42 213.376 351.3 213.316 351.21 213.226 351.15 213.106 351.15 213.016V211.216H350.34V213.166 213.196C350.34 213.316 350.16 213.436 349.95 213.436 349.86 213.436 349.71 213.376 349.62 213.316 349.5 213.226 349.44 213.106 349.44 213.016V211.216H348.66V214.126H349.44V213.976C349.53 214.066 349.65 214.126 349.77 214.156 349.86 214.186 349.98 214.216 350.13 214.216 350.49 214.216 350.76 214.096 350.88 213.826 351.09 214.096 351.36 214.216 351.72 214.216 352.26 214.186 352.62 213.976 352.77 213.526 352.8 213.496 352.8 213.466 352.8 213.436 352.83 213.376 352.83 213.346 352.83 213.316V213.286 211.216H352.05V213.166C352.05 213.256 352.02 213.316 351.93 213.346 351.87 213.406 351.75 213.436 351.66 213.436Z" fill-rule="evenodd"/><path transform="matrix(1,0,0,-1,0,595.276)" d="M356.49 212.656C356.49 213.136 356.37 213.526 356.13 213.796 355.86 214.096 355.53 214.216 355.11 214.216 354.99 214.216 354.81 214.216 354.66 214.156 354.51 214.126 354.42 214.066 354.39 214.006V214.126H353.67V210.196H354.45V211.306C354.51 211.186 354.84 211.066 355.14 211.066 355.53 211.066 355.86 211.216 356.1 211.516 356.34 211.786 356.49 212.206 356.49 212.656ZM355.02 211.816C354.9 211.816 354.75 211.876 354.63 211.966 354.57 212.026 354.54 212.086 354.51 212.146 354.48 212.206 354.45 212.266 354.45 212.326V213.076C354.45 213.286 354.72 213.496 354.99 213.496H355.02 355.05C355.14 213.526 355.26 213.496 355.38 213.436 355.5 213.346 355.62 213.226 355.65 213.136V213.106L355.68 212.986V212.356L355.65 212.236C355.62 212.116 355.53 211.996 355.38 211.906 355.26 211.816 355.11 211.816 355.02 211.816Z" fill-rule="evenodd"/><path transform="matrix(1,0,0,-1,0,595.276)" d="M358.11 214.066H358.86V213.406H358.11V212.116C358.11 212.026 358.14 211.936 358.2 211.876 358.26 211.846 358.32 211.816 358.44 211.786 358.47 211.786 358.53 211.786 358.62 211.816 358.68 211.816 358.77 211.846 358.86 211.876L358.98 211.216C358.83 211.096 358.56 211.036 358.14 211.036 357.9 211.036 357.72 211.126 357.57 211.246 357.45 211.366 357.36 211.546 357.33 211.786V213.406H356.85V214.066H357.33V214.996L358.11 215.236V214.066Z" fill-rule="evenodd"/><path transform="matrix(1,0,0,-1,0,595.276)" d="M362.1 214.066H361.26L360.72 212.326 360.15 214.066H359.31L360.21 211.426C360.21 211.336 360.24 211.276 360.24 211.216 360.27 211.156 360.27 211.126 360.24 211.066 360.24 210.976 360.21 210.946 360.15 210.946 360.03 210.946 359.94 210.946 359.88 210.946 359.79 210.946 359.7 210.976 359.64 210.976L359.52 210.316C359.82 210.226 360.15 210.196 360.45 210.166 360.57 210.196 360.66 210.226 360.78 210.346 360.87 210.436 360.96 210.586 360.99 210.736L362.1 214.066Z" fill-rule="evenodd"/><path transform="matrix(1,0,0,-1,0,595.276)" d="M363.39 211.216V214.066H362.64V211.216Z" fill-rule="evenodd"/><path transform="matrix(1,0,0,-1,0,595.276)" d="M363.48 214.846C363.48 215.086 363.27 215.296 363 215.296 362.76 215.296 362.55 215.086 362.55 214.846 362.55 214.576 362.76 214.366 363 214.366 363.27 214.366 363.48 214.576 363.48 214.846Z" fill-rule="evenodd"/><path transform="matrix(1,0,0,-1,0,595.276)" d="M366.75 211.216V213.196 213.226 213.256C366.72 213.886 366.36 214.216 365.61 214.216 365.46 214.216 365.34 214.186 365.22 214.156 365.1 214.096 365.01 214.036 364.92 213.946V214.126H364.11V211.216H364.92V212.986 213.016C364.98 213.286 365.16 213.466 365.49 213.496 365.76 213.466 365.91 213.286 365.94 213.016V212.986C365.94 212.956 365.94 212.956 365.94 212.926V212.896 211.216H366.75Z" fill-rule="evenodd"/><path transform="matrix(1,0,0,-1,0,595.276)" d="M370.14 211.066V214.066H369.36V213.976C369.36 214.096 369.06 214.216 368.7 214.216 367.86 214.186 367.44 213.646 367.41 212.656 367.5 211.756 367.95 211.306 368.7 211.276 368.82 211.276 368.97 211.306 369.09 211.336 369.21 211.396 369.27 211.426 369.3 211.486V211.336C369.27 211.066 369.12 210.916 368.88 210.886 368.76 210.886 368.61 210.886 368.43 210.946 368.25 211.006 368.04 211.096 367.8 211.216L367.41 210.556C367.74 210.316 368.31 210.136 368.79 210.106 369.6 210.106 370.08 210.436 370.14 211.066ZM369.3 213.046V212.386C369.3 212.266 369.24 212.176 369.15 212.116 369.09 212.026 368.97 211.996 368.85 211.996 368.49 211.996 368.25 212.266 368.22 212.716 368.25 213.136 368.46 213.406 368.82 213.436 369.12 213.406 369.27 213.256 369.3 213.046Z" fill-rule="evenodd"/><path transform="matrix(1,0,0,-1,0,595.276)" d="M343.77 207.976 343.35 207.556 343.8 207.226 344.28 206.836 344.67 207.286 344.25 207.676Z" fill-rule="evenodd"/><path transform="matrix(1,0,0,-1,0,595.276)" d="M343.47 206.236 343.05 205.816 343.59 205.456 344.07 205.036 344.49 205.486 344.01 205.876Z" fill-rule="evenodd"/><path transform="matrix(1,0,0,-1,0,595.276)" d="M344.73 204.106 344.37 204.556 343.68 203.446 343.02 202.546 343.41 202.216 343.53 202.126 343.59 202.096 343.65 202.156 343.62 202.276 344.22 203.176Z" fill-rule="evenodd"/><path transform="matrix(1,0,0,-1,0,595.276)" d="M346.59 208.066V207.616H344.94V207.136H346.59V206.776H345.15V206.326H346.59V205.996H344.79V205.486H348.99V205.996H347.19V206.326H348.57V206.776H347.19V207.136H348.78V207.616H347.19V207.796L347.31 207.946 347.22 208.006Z" fill-rule="evenodd"/><path transform="matrix(1,0,0,-1,0,595.276)" d="M345.24 205.216V202.156H345.84V203.146H347.94V202.996L347.91 202.876 347.85 202.786 347.73 202.726H347.55 347.16L347.37 202.156H347.79L348.12 202.216 348.36 202.396 348.51 202.696 348.54 203.086V205.216H345.24ZM345.84 203.626V203.926H347.94V203.626H345.84ZM345.84 204.376V204.736H347.94V204.376H345.84Z" fill-rule="evenodd"/><path transform="matrix(1,0,0,-1,0,595.276)" d="M353.49 207.796V205.006H354.78V204.286H353.58V203.716H354.78V202.846H353.25V202.276H356.88V202.846H355.35V203.716H356.55V204.286H355.35V205.006H356.7V207.796H353.49ZM355.35 205.546V206.146H356.1V205.546H355.35ZM354.03 205.546V206.146H354.78V205.546H354.03ZM354.03 206.596V207.256H354.78V206.596H354.03ZM355.35 206.596V207.256H356.1V206.596H355.35Z" fill-rule="evenodd"/><path transform="matrix(1,0,0,-1,0,595.276)" d="M351.03 207.616V207.076H351.87V205.666H351.03V205.156H351.87V203.446L350.91 203.236 351.12 202.726 351.18 202.576 351.27 202.546 351.33 202.606 351.39 202.786 353.22 203.236V203.776L352.41 203.566V205.156H353.22V205.666H352.41V207.076H353.22V207.616Z" fill-rule="evenodd"/><path transform="matrix(1,0,0,-1,0,595.276)" d="M359.58 207.916 359.22 207.526 359.7 207.226 360.18 206.896 360.57 207.256Z" fill-rule="evenodd"/><path transform="matrix(1,0,0,-1,0,595.276)" d="M359.31 206.266 358.86 205.876 359.37 205.576 359.82 205.156 360.3 205.576 359.82 205.966Z" fill-rule="evenodd"/><path transform="matrix(1,0,0,-1,0,595.276)" d="M360.27 204.256 359.94 204.616 359.43 203.566 358.86 202.546 359.31 202.186 359.43 202.156 359.52 202.366Z" fill-rule="evenodd"/><path transform="matrix(1,0,0,-1,0,595.276)" d="M361.62 208.006V207.586H360.69V207.136H361.62V206.776H360.87V206.326H361.62V205.996H360.48V205.516H362.34V205.156H360.96V203.536H360.42V202.996H360.96V202.156H361.53V202.996H363.75V202.846L363.63 202.726 363.39 202.666H362.91L363.12 202.156 363.63 202.186 363.93 202.246 364.11 202.366 364.26 202.546 364.29 202.786 364.32 202.996H364.8V203.536H364.32V205.156H362.88V205.516H364.8V205.996H363.66V206.326H364.47V206.776H363.66V207.136H364.62V207.586H363.66V207.796L363.75 207.856V207.916L363.69 207.946 363.54 207.976 363.09 208.036V207.586H362.16V207.796L362.22 207.856V207.916L362.19 207.946 362.1 207.976 361.62 208.006ZM361.53 203.536V203.866H362.34V203.536H361.53ZM361.53 204.316V204.676H362.34V204.316H361.53ZM362.88 203.536V203.866H363.78V203.536H362.88ZM362.88 204.316V204.676H363.78V204.316H362.88ZM362.16 206.776V207.136H363.09V206.776H362.16ZM362.16 205.996V206.326H363.09V205.996H362.16Z" fill-rule="evenodd"/><path transform="matrix(1,0,0,-1,0,595.276)" d="M367.71 208.066 367.29 207.676 368.19 207.046 368.58 207.436 368.13 207.826Z" fill-rule="evenodd"/><path transform="matrix(1,0,0,-1,0,595.276)" d="M367.23 207.076 366.87 206.626 367.32 206.386 367.77 206.056 368.16 206.476 367.71 206.806Z" fill-rule="evenodd"/><path transform="matrix(1,0,0,-1,0,595.276)" d="M367.11 204.796 367.5 204.466 367.59 204.436 367.65 204.466V204.526L367.62 204.646 368.19 205.276 368.73 205.996 368.37 206.356 367.77 205.546Z" fill-rule="evenodd"/><path transform="matrix(1,0,0,-1,0,595.276)" d="M366.93 204.316V203.836H369.18L368.67 203.506 368.1 203.236 367.5 202.996 366.81 202.786 367.32 202.306 367.92 202.486 368.49 202.756 369.03 203.086 369.54 203.476V202.126H370.11V203.536L370.53 203.146 371.01 202.846 371.58 202.546 372.18 202.306 372.78 202.906 372.12 203.056 371.49 203.266 370.95 203.536 370.47 203.836H372.69V204.316H370.11V204.496L370.2 204.556 370.23 204.616 370.14 204.676 369.99 204.736 369.54 204.796V204.316Z" fill-rule="evenodd"/><path transform="matrix(1,0,0,-1,0,595.276)" d="M368.94 207.856V204.796H369.48V204.946H372.66V205.456H369.51V205.756H372.21V207.016H369.51V207.376H372.45V207.856H368.94ZM369.51 206.206V206.566H371.61V206.206H369.51Z" fill-rule="evenodd"/></g></svg>