<?xml version='1.0' encoding='UTF-8'?>
<svg width="259.49" height="259.49" viewBox="154.57 7.06 259.49 259.49" xmlns="http://www.w3.org/2000/svg" xmlns:xlink="http://www.w3.org/1999/xlink" xmlns:inkscape="http://www.inkscape.org/namespaces/inkscape" version="1.1"><g transform="scale(10.0) translate(-329.439, -478.080)"><defs><clipPath id="clip_14"><path transform="matrix(1,0,0,-1,0,595.276)" d="M74.37 .046H767.49V595.276H74.37Z"/></clipPath></defs><path transform="matrix(1,0,0,-1,0,595.276)" d="M348.12 112.456C348.39 112.186 348.66 112.066 348.93 112.066 349.23 112.066 349.38 112.186 349.38 112.396 349.38 112.576 349.17 112.696 348.75 112.726 348.24 112.786 347.94 113.056 347.88 113.566 347.91 114.136 348.27 114.436 348.96 114.436 349.2 114.436 349.41 114.406 349.59 114.316 349.77 114.256 349.95 114.136 350.07 113.986L349.65 113.596C349.41 113.806 349.17 113.896 348.96 113.896 348.69 113.866 348.54 113.776 348.54 113.596 348.51 113.506 348.57 113.446 348.66 113.416 348.75 113.356 348.87 113.326 349.08 113.296 349.71 113.206 350.04 112.906 350.04 112.396 350.01 111.826 349.65 111.526 348.93 111.526 348.66 111.526 348.39 111.556 348.18 111.676 347.97 111.766 347.79 111.886 347.64 112.066L348.12 112.456Z" fill-rule="evenodd"/><path transform="matrix(1,0,0,-1,0,595.276)" d="M353.43 113.116V111.616H352.92V113.116H352.62V113.596H352.92V113.986C352.92 114.106 352.98 114.226 353.1 114.286 353.22 114.376 353.37 114.406 353.58 114.406 353.67 114.406 353.73 114.406 353.79 114.406 353.85 114.376 353.91 114.376 353.97 114.346L353.88 113.896C353.76 113.926 353.64 113.926 353.52 113.926 353.49 113.926 353.46 113.926 353.46 113.896 353.43 113.866 353.43 113.866 353.43 113.806V113.596H353.85V113.116H353.43Z" fill-rule="evenodd"/><path transform="matrix(1,0,0,-1,0,595.276)" d="M358.08 112.396C358.38 112.396 358.53 112.336 358.53 112.186 358.53 112.156 358.5 112.096 358.47 112.066 358.44 112.036 358.38 112.036 358.29 112.036 358.17 112.036 358.08 112.066 357.99 112.096 357.9 112.156 357.81 112.216 357.72 112.306L357.36 111.916C357.57 111.646 357.87 111.526 358.29 111.526 358.53 111.526 358.74 111.586 358.89 111.706 359.04 111.826 359.1 112.006 359.1 112.216 359.13 112.606 358.89 112.846 358.44 112.906 358.32 112.906 358.2 112.936 358.14 112.936 358.11 112.966 358.08 112.966 358.05 112.996V113.026 113.056 113.026 113.056C358.05 113.116 358.05 113.146 358.11 113.176 358.14 113.206 358.23 113.206 358.32 113.236 358.41 113.236 358.5 113.206 358.56 113.176 358.65 113.116 358.71 113.086 358.74 112.996L359.07 113.386C358.92 113.596 358.68 113.686 358.35 113.716 357.78 113.716 357.51 113.476 357.48 112.996 357.51 112.666 357.72 112.456 358.08 112.396Z" fill-rule="evenodd"/><path transform="matrix(1,0,0,-1,0,595.276)" d="M362.79 107.956H361.59L361.56 107.986V108.796L361.59 108.826H362.49L362.52 108.886V109.066L362.49 109.096H361.59L361.56 109.126V109.546L361.62 109.606V109.666L361.56 109.696H361.47L361.26 109.756 361.23 109.696V109.126L361.2 109.096H360.36 360.27L360.24 109.066V108.886L360.27 108.856 360.36 108.826H361.2L361.23 108.796V107.986L361.2 107.956H360.03L359.97 107.926V107.716L360.03 107.686H362.79L362.82 107.716V107.926Z" fill-rule="evenodd"/><path transform="matrix(1,0,0,-1,0,595.276)" d="M361.77 107.506V107.026L361.74 106.996H360.18L360.12 106.966V106.786L360.18 106.756H361.74L361.77 106.726V105.586L361.74 105.466 361.65 105.406H361.26L361.2 105.376 361.17 105.316 361.23 105.166 361.26 105.106H361.35 361.89L361.98 105.136 362.04 105.226 362.1 105.316V105.436 106.726L362.13 106.756H362.64L362.7 106.786V106.966L362.64 106.996H362.13L362.1 107.026V107.356L362.16 107.416V107.476L362.07 107.506 361.95 107.536H361.83Z" fill-rule="evenodd"/><path transform="matrix(1,0,0,-1,0,595.276)" d="M360.6 106.036 360.96 105.736 361.14 105.976 360.78 106.276 360.36 106.516 360.18 106.276Z" fill-rule="evenodd"/><path transform="matrix(1,0,0,-1,0,595.276)" d="M367.05 105.286 368.19 105.316 368.25 105.526 368.31 105.646 368.25 105.676 367.02 105.556H365.49L365.16 105.586 364.92 105.676 364.77 105.826 364.71 106.006V107.326H363.75V107.056H364.41V105.976L363.66 105.466 363.81 105.286 363.87 105.196 363.9 105.166 363.96 105.226 363.99 105.316 364.47 105.706 364.59 105.526 364.77 105.406 365.01 105.316 365.31 105.256Z" fill-rule="evenodd"/><path transform="matrix(1,0,0,-1,0,595.276)" d="M364.8 108.106 364.41 108.406 363.96 108.646 363.81 108.406 364.2 108.196 364.62 107.866Z" fill-rule="evenodd"/><path transform="matrix(1,0,0,-1,0,595.276)" d="M364.65 109.066 364.86 109.306 364.53 109.546 364.08 109.756 363.9 109.546 364.29 109.306Z" fill-rule="evenodd"/><path transform="matrix(1,0,0,-1,0,595.276)" d="M356.73 107.506H355.35V106.636H356.73V106.366H355.35V105.406H357.33V105.136H353.07V105.406H355.05V106.366H353.64V106.636H355.05V107.506H353.58V107.776H356.73Z" fill-rule="evenodd"/><path transform="matrix(1,0,0,-1,0,595.276)" d="M354.75 108.736 355.2 109.156 355.59 108.736 356.07 108.316 356.58 107.956 357.15 107.656 357.21 107.626 357.27 107.656 357.45 107.746 357.48 107.806 357.45 107.866 356.88 108.166 356.34 108.526 355.86 108.916 355.41 109.366 355.53 109.396 355.59 109.456 355.53 109.516 355.41 109.606 355.2 109.726 355.14 109.696 354.66 109.156 354.15 108.706 353.61 108.316 353.01 107.956 352.89 107.866V107.836L353.07 107.716 353.13 107.656 353.19 107.686 353.73 107.986 354.27 108.346Z" fill-rule="evenodd"/><path transform="matrix(1,0,0,-1,0,595.276)" d="M351.51 108.856V108.166H351.81V109.126H349.89V109.546L350.01 109.606 350.04 109.666 349.98 109.696 349.86 109.726 349.59 109.756V109.126H347.67V108.166H347.97V108.856Z" fill-rule="evenodd"/><path transform="matrix(1,0,0,-1,0,595.276)" d="M361.41 93.616 358.41 93.256 358.32 93.136 358.26 93.076 358.2 93.106 358.17 93.226 358.14 93.556 358.71 93.616 359.79 95.956 360.06 95.896 360.15 95.866 360.18 95.836 360.15 95.776 360.06 95.746 359.16 93.676 361.23 93.916 360.72 94.606 360.93 94.846 361.59 94.006 362.1 93.196 361.86 92.986Z" fill-rule="evenodd"/><path transform="matrix(1,0,0,-1,0,595.276)" d="M358.77 96.706 358.98 97.216 359.28 97.126 359.37 97.096 359.4 97.036 359.37 97.006 359.28 96.976 359.01 96.436 358.71 95.956 358.38 95.506 358.02 95.116 357.72 95.206 358.14 95.686 358.47 96.196Z" fill-rule="evenodd"/><path transform="matrix(1,0,0,-1,0,595.276)" d="M360.75 97.096H359.91V97.366H361.05L361.23 96.766 361.5 96.226 361.83 95.776 362.19 95.416 362.25 95.326 362.16 95.236 362.04 95.116H361.95L361.53 95.536 361.2 96.016 360.96 96.556Z" fill-rule="evenodd"/><path transform="matrix(1,0,0,-1,0,595.276)" d="M356.97 92.986V94.426C356.97 94.576 356.91 94.726 356.73 94.846 356.58 94.996 356.4 95.056 356.22 95.056 356.13 95.056 355.98 95.026 355.89 94.996 355.77 94.966 355.74 94.906 355.74 94.876V95.716H355.2V92.986H355.74V94.126C355.74 94.156 355.74 94.216 355.77 94.276 355.8 94.306 355.83 94.366 355.86 94.396 355.92 94.486 356.01 94.516 356.1 94.516 356.16 94.516 356.25 94.486 356.34 94.426 356.4 94.396 356.43 94.306 356.43 94.246V92.986H356.97Z" fill-rule="evenodd"/><path transform="matrix(1,0,0,-1,0,595.276)" d="M354.9 95.656 353.88 92.356 353.46 92.506 354.48 95.776Z" fill-rule="evenodd"/><path transform="matrix(1,0,0,-1,0,595.276)" d="M352.53 92.986V94.336C352.53 94.366 352.53 94.366 352.53 94.396 352.5 94.426 352.5 94.426 352.47 94.456 352.41 94.486 352.35 94.516 352.26 94.516 352.11 94.516 351.93 94.366 351.93 94.216V92.986H351.39V94.336C351.39 94.426 351.27 94.516 351.12 94.516 350.97 94.516 350.79 94.366 350.76 94.216V92.986H350.22V94.966H350.76V94.876C350.82 94.936 350.91 94.966 350.97 94.996 351.06 95.026 351.15 95.056 351.24 95.056 351.48 95.056 351.66 94.966 351.75 94.786 351.9 94.966 352.08 95.056 352.32 95.056 352.68 95.026 352.92 94.876 353.04 94.576 353.07 94.546 353.07 94.516 353.07 94.486 353.07 94.486 353.07 94.456 353.07 94.426V94.396 92.986H352.53Z" fill-rule="evenodd"/><path transform="matrix(1,0,0,-1,0,595.276)" d="M349.89 92.986 349.14 94.126 349.89 94.936H349.2L348.57 94.276V95.716H348V92.986H348.57V93.526L348.75 93.736 349.29 92.986Z" fill-rule="evenodd"/><path transform="matrix(1,0,0,-1,0,595.276)" d="M350.46 112.246C350.46 112.456 350.55 112.636 350.76 112.726 350.94 112.846 351.24 112.906 351.63 112.906V112.966C351.63 113.056 351.6 113.116 351.57 113.146 351.54 113.176 351.48 113.206 351.39 113.206 351.27 113.206 351.15 113.176 351.06 113.146 350.94 113.116 350.85 113.056 350.79 112.966L350.52 113.386C350.73 113.596 351 113.686 351.36 113.686 351.63 113.686 351.81 113.656 351.96 113.566 352.11 113.446 352.17 113.296 352.2 113.116V112.096C352.2 112.036 352.23 112.006 352.26 112.006 352.29 111.976 352.35 111.946 352.41 111.946L352.26 111.556C351.96 111.556 351.81 111.616 351.75 111.736 351.69 111.646 351.45 111.526 351.27 111.526 351.03 111.526 350.82 111.586 350.67 111.706 350.52 111.826 350.46 112.036 350.46 112.246ZM351.63 112.486C351.24 112.456 351.06 112.366 351.03 112.216 351.03 112.156 351.06 112.096 351.12 112.036 351.18 112.006 351.24 112.006 351.36 112.006 351.42 112.006 351.48 112.036 351.54 112.036 351.57 112.066 351.6 112.096 351.63 112.126V112.486Z" fill-rule="evenodd"/><path transform="matrix(1,0,0,-1,0,595.276)" d="M351 107.386H351.99V107.626H349.44L349.8 108.346H349.92L349.95 108.406 349.89 108.466 349.77 108.556 349.56 108.676 349.29 108.106 349.05 107.626H347.52V107.386H348.93L348.18 106.246 348.48 106.126 348.69 106.396 349.74 106.036 349.35 105.856 348.93 105.676 348.45 105.496 347.94 105.376H347.88V105.316L348 105.166 348.09 105.106H348.18L348.66 105.256 349.14 105.436 349.59 105.646 350.04 105.916 350.79 105.556 351.45 105.196 351.54 105.166 351.69 105.316V105.346L351.66 105.436 350.28 106.126 350.67 106.696 351 107.386ZM349.32 107.386H350.67L350.37 106.786 350.01 106.246 348.84 106.666 349.32 107.386Z" fill-rule="evenodd"/><path transform="matrix(1,0,0,-1,0,595.276)" d="M361.83 101.926C361.83 101.176 361.68 100.636 361.38 100.276 361.08 99.886 360.63 99.706 360.03 99.706 359.43 99.706 358.98 99.886 358.68 100.276 358.38 100.636 358.23 101.176 358.23 101.926 358.23 103.366 358.83 104.116 360.03 104.116 360.63 104.116 361.08 103.936 361.38 103.576 361.68 103.186 361.83 102.646 361.83 101.926ZM359.1 101.926C359.1 100.966 359.43 100.516 360.03 100.516 360.33 100.516 360.57 100.636 360.72 100.846 360.9 101.086 360.96 101.446 360.96 101.926 360.96 102.856 360.66 103.336 360.03 103.336 359.73 103.336 359.49 103.216 359.34 102.976 359.19 102.736 359.1 102.376 359.1 101.926Z" fill-rule="evenodd"/><path transform="matrix(1,0,0,-1,0,595.276)" d="M365.58 95.026V94.336L365.61 94.306H367.11L367.14 94.276V94.066L367.11 94.036H365.61L365.58 94.006V93.316L365.61 93.286H367.59L367.62 93.256V93.046L367.59 93.016H363.24L363.21 93.046V93.256L363.24 93.286H365.22L365.28 93.316V94.006L365.22 94.036H363.78L363.72 94.066V94.276L363.78 94.306H365.22L365.28 94.336V95.026L365.22 95.086H364.08L364.05 95.026V94.876L364.02 94.846H363.78L363.72 94.876V97.246L363.78 97.276H367.11L367.14 97.246V94.876H366.84V95.086H365.61L365.58 95.026ZM366.81 95.326 366.84 95.356V96.016L366.81 96.046H365.61L365.58 96.016V95.356L365.61 95.326H366.81ZM366.81 96.316 366.84 96.346V96.976L366.81 97.036H365.61L365.58 96.976V96.346L365.61 96.316H366.81ZM364.08 96.316H365.22L365.28 96.346V96.976L365.22 97.036H364.08L364.05 96.976V96.346L364.08 96.316ZM364.08 95.326H365.22L365.28 95.356V96.016L365.22 96.046H364.08L364.05 96.016V95.356L364.08 95.326Z" fill-rule="evenodd"/><path transform="matrix(1,0,0,-1,0,595.276)" d="M367.98 106.246 368.01 106.276 368.13 106.366 368.16 106.426V106.486L367.83 106.606 367.53 106.786 367.2 106.996 366.87 107.296H367.86V108.586H366.78V108.976H368.19V109.246H366.78V109.606L366.84 109.666 366.87 109.696V109.726L366.81 109.756 366.45 109.786V109.246H365.13V108.976H366.45V108.586H365.46V107.296H366.39L366.09 107.026 365.79 106.816 365.49 106.636 365.16 106.486 365.1 106.456 365.13 106.366 365.25 106.276 365.31 106.246H365.37L365.94 106.576 366.45 106.966V105.766H366.78V106.996L367.35 106.546 367.92 106.246H367.98ZM367.53 108.346V107.566H366.78V108.346H367.53ZM366.45 108.346V107.566H365.76V108.346H366.45Z" fill-rule="evenodd"/><path transform="matrix(1,0,0,-1,0,595.276)" d="M367.44 113.506V114.376H367.95V111.586H367.41V111.676C367.32 111.586 367.17 111.526 366.93 111.526 366.48 111.496 366.09 111.826 366.03 112.486V112.546 112.726 112.786C366.09 113.326 366.42 113.626 366.9 113.656 367.05 113.656 367.23 113.596 367.44 113.506ZM366.54 112.606C366.54 112.216 366.69 112.006 366.99 112.006 367.11 112.006 367.17 112.036 367.26 112.066 367.32 112.126 367.38 112.186 367.41 112.276V112.756C367.41 112.816 367.41 112.876 367.41 112.906 367.38 112.936 367.35 112.966 367.35 112.996 367.32 112.996 367.32 112.996 367.32 113.026 367.23 113.086 367.14 113.146 367.02 113.146 366.87 113.116 366.75 113.086 366.69 112.996 366.6 112.906 366.54 112.756 366.54 112.606Z" fill-rule="evenodd"/><path transform="matrix(1,0,0,-1,0,595.276)" d="M364.47 112.426C364.47 112.306 364.5 112.216 364.59 112.126 364.68 112.036 364.77 112.006 364.89 112.036 365.07 112.036 365.25 112.096 365.31 112.216L365.64 111.886C365.55 111.676 365.22 111.526 364.89 111.526 364.62 111.526 364.32 111.646 364.11 111.886 363.96 112.096 363.87 112.336 363.87 112.606 363.93 113.326 364.23 113.656 364.77 113.686 365.1 113.656 365.34 113.536 365.49 113.326 365.64 113.116 365.7 112.816 365.7 112.426H364.47ZM364.44 112.816H365.19V112.846L365.16 112.876C365.13 113.056 364.95 113.176 364.8 113.206 364.74 113.176 364.62 113.146 364.56 113.086 364.47 112.996 364.44 112.906 364.44 112.846V112.816Z" fill-rule="evenodd"/><path transform="matrix(1,0,0,-1,0,595.276)" d="M362.31 112.426C362.31 112.306 362.34 112.216 362.43 112.126 362.52 112.036 362.64 112.006 362.73 112.036 362.91 112.036 363.09 112.096 363.18 112.216L363.48 111.886C363.39 111.676 363.06 111.526 362.73 111.526 362.46 111.526 362.16 111.646 361.95 111.886 361.8 112.096 361.74 112.336 361.74 112.606 361.8 113.326 362.07 113.656 362.61 113.686 362.94 113.656 363.18 113.536 363.33 113.326 363.48 113.116 363.57 112.816 363.54 112.426H362.31ZM362.28 112.816H363.03V112.846 112.876C362.97 113.056 362.82 113.176 362.64 113.206 362.58 113.176 362.49 113.146 362.4 113.086 362.34 112.996 362.28 112.906 362.28 112.846V112.816Z" fill-rule="evenodd"/><path transform="matrix(1,0,0,-1,0,595.276)" d="M360.03 111.706V110.926H359.46V113.626H359.97V113.536C360 113.566 360.06 113.596 360.15 113.626 360.27 113.656 360.39 113.686 360.48 113.686 360.75 113.686 360.99 113.596 361.14 113.386 361.32 113.206 361.41 112.936 361.41 112.606 361.41 112.306 361.32 112.036 361.14 111.826 360.96 111.616 360.75 111.526 360.48 111.526 360.3 111.526 360.06 111.616 360.03 111.706ZM360.42 112.036C360.48 112.036 360.57 112.036 360.66 112.096 360.75 112.156 360.81 112.246 360.84 112.306V112.336 112.396 112.426 112.816 112.846 112.906 112.936C360.81 112.996 360.75 113.086 360.66 113.146 360.57 113.176 360.48 113.206 360.42 113.206H360.39C360.21 113.176 360.03 113.056 360.03 112.906V112.366C360.03 112.306 360.06 112.216 360.15 112.156 360.24 112.066 360.33 112.036 360.42 112.036Z" fill-rule="evenodd"/><path transform="matrix(1,0,0,-1,0,595.276)" d="M355.68 112.216 355.98 111.886C355.95 111.796 355.86 111.706 355.71 111.616 355.53 111.556 355.38 111.526 355.23 111.526 354.96 111.526 354.66 111.646 354.45 111.886 354.3 112.096 354.24 112.336 354.24 112.606 354.3 113.326 354.6 113.656 355.14 113.686 355.44 113.656 355.68 113.536 355.83 113.326 355.98 113.116 356.07 112.816 356.04 112.426H354.81C354.81 112.306 354.84 112.216 354.93 112.126 355.02 112.036 355.14 112.006 355.23 112.036 355.41 112.036 355.59 112.096 355.68 112.216ZM354.78 112.816H355.53V112.846 112.876C355.47 113.056 355.32 113.176 355.17 113.206 355.08 113.176 354.99 113.146 354.9 113.086 354.84 112.996 354.78 112.906 354.78 112.846V112.816Z" fill-rule="evenodd"/><path transform="matrix(1,0,0,-1,0,595.276)" d="M359.76 106.066V109.246H359.73 358.38 358.35V105.706L358.38 105.646H358.62L358.65 105.706V106.276L358.71 106.306H359.4L359.43 106.276V106.066L359.49 106.036H359.73L359.76 106.066ZM358.65 107.656 358.71 107.686H359.4L359.43 107.656V106.606L359.4 106.576H358.71L358.65 106.606V107.656ZM358.71 109.006H359.4L359.43 108.976V107.986L359.4 107.956H358.71L358.65 107.986V108.976L358.71 109.006Z" fill-rule="evenodd"/><path transform="matrix(1,0,0,-1,0,595.276)" d="M345.15 115.276V115.276C345.15 115.516 345.24 115.756 345.42 115.966 345.63 116.146 345.87 116.236 346.11 116.236H369.6C369.84 116.236 370.11 116.146 370.29 115.966 370.5 115.756 370.59 115.516 370.59 115.276V91.786C370.59 91.546 370.5 91.276 370.29 91.096 370.11 90.886 369.84 90.796 369.6 90.796H346.11C345.87 90.796 345.63 90.886 345.42 91.096 345.24 91.276 345.15 91.546 345.15 91.786V115.276ZM369.57 115.726H346.17C345.87 115.726 345.66 115.516 345.66 115.216V91.816C345.66 91.696 345.69 91.546 345.81 91.456 345.9 91.366 346.05 91.306 346.17 91.306H369.57C369.84 91.306 370.08 91.546 370.08 91.816V115.216C370.08 115.336 370.05 115.486 369.93 115.576 369.84 115.696 369.69 115.726 369.57 115.726Z" fill-rule="evenodd"/><path transform="matrix(1,0,0,-1,0,595.276)" d="M356.04 103.246C356.37 103.216 356.58 103.006 356.64 102.676V102.556 102.526C356.58 102.166 356.19 101.776 354.48 100.666V99.856H357.42V100.666H356.01C356.97 101.236 357.51 101.896 357.57 102.556V102.586 102.676C357.54 103.606 357 104.116 356.04 104.116 355.5 104.116 355.08 103.966 354.81 103.696 354.54 103.396 354.39 102.976 354.39 102.436H355.26C355.26 102.946 355.53 103.246 356.04 103.246Z" fill-rule="evenodd"/></g></svg>