<?xml version='1.0' encoding='UTF-8'?>
<svg width="370.57" height="252.67" viewBox="98.94 10.53 370.57 252.67" xmlns="http://www.w3.org/2000/svg" xmlns:xlink="http://www.w3.org/1999/xlink" xmlns:inkscape="http://www.inkscape.org/namespaces/inkscape" version="1.1"><g transform="scale(10.0) translate(-438.573, -289.584)"><defs><clipPath id="clip_14"><path transform="matrix(1,0,0,-1,0,595.276)" d="M74.37 .046H767.49V595.276H74.37Z"/></clipPath></defs><path transform="matrix(1,0,0,-1,0,595.276)" d="M483.33 304.276H450.63C450.42 304.276 450.18 304.216 449.97 304.126 449.73 304.036 449.52 303.916 449.34 303.736 449.16 303.556 449.04 303.346 448.95 303.106 448.86 302.896 448.83 302.656 448.83 302.446V281.566C448.83 281.326 448.86 281.116 448.95 280.876 449.04 280.666 449.16 280.456 449.34 280.276 449.52 280.096 449.73 279.946 449.97 279.856 450.18 279.766 450.42 279.736 450.63 279.736H483.33C483.54 279.736 483.78 279.766 484.02 279.856 484.23 279.946 484.44 280.096 484.62 280.276 484.8 280.456 484.95 280.666 485.04 280.876 485.13 281.116 485.16 281.326 485.16 281.566V302.446C485.16 302.656 485.13 302.896 485.04 303.106 484.95 303.346 484.8 303.556 484.62 303.736 484.44 303.916 484.23 304.036 484.02 304.126 483.78 304.216 483.54 304.276 483.33 304.276ZM483.33 303.346C483.57 303.346 483.81 303.256 483.99 303.106 484.14 302.926 484.26 302.686 484.26 302.446V281.566C484.26 281.326 484.17 281.086 483.99 280.906 483.81 280.726 483.57 280.636 483.33 280.636H450.63C450.42 280.636 450.18 280.726 450 280.906 449.82 281.086 449.73 281.326 449.73 281.566V302.446C449.73 302.566 449.76 302.656 449.79 302.776 449.85 302.896 449.91 303.016 450 303.106 450.18 303.286 450.42 303.346 450.63 303.346H483.33Z" fill-rule="evenodd"/><path transform="matrix(1,0,0,-1,0,595.276)" d="M450.63 303.346H483.33C483.57 303.346 483.81 303.286 483.99 303.106 484.17 302.896 484.26 302.656 484.26 302.446V281.566C484.26 281.446 484.23 281.326 484.17 281.206 484.14 281.116 484.08 280.996 483.99 280.906 483.9 280.816 483.78 280.756 483.66 280.696 483.57 280.666 483.45 280.636 483.33 280.636H450.63C450.42 280.636 450.18 280.726 450 280.906 449.91 280.996 449.85 281.116 449.79 281.206 449.76 281.326 449.73 281.446 449.73 281.566V302.446C449.73 302.686 449.82 302.926 450 303.106 450.15 303.256 450.39 303.346 450.63 303.346Z" fill="#ffffff" fill-rule="evenodd"/><path transform="matrix(1,0,0,-1,0,595.276)" d="M464.88 298.186C464.88 299.116 464.7 299.776 464.31 300.226 463.95 300.706 463.38 300.916 462.66 300.916 461.91 300.916 461.34 300.706 460.98 300.226 460.59 299.776 460.41 299.116 460.41 298.186 460.41 297.286 460.59 296.596 460.98 296.146 461.34 295.696 461.91 295.486 462.66 295.486 463.38 295.486 463.95 295.696 464.31 296.146 464.7 296.596 464.88 297.286 464.88 298.186ZM463.8 298.186C463.8 297.046 463.41 296.446 462.66 296.446 461.88 296.446 461.49 297.046 461.49 298.186 461.49 299.356 461.88 299.956 462.66 299.956 463.41 299.956 463.8 299.356 463.8 298.186Z" fill-rule="evenodd"/><path transform="matrix(1,0,0,-1,0,595.276)" d="M470.16 298.186C470.16 299.116 469.98 299.776 469.59 300.226 469.23 300.706 468.66 300.916 467.91 300.916 466.41 300.916 465.69 300.016 465.69 298.186 465.69 297.286 465.87 296.596 466.23 296.146 466.62 295.696 467.16 295.486 467.91 295.486 468.66 295.486 469.23 295.696 469.59 296.146 469.98 296.596 470.16 297.286 470.16 298.186ZM469.05 298.186C469.05 297.046 468.69 296.446 467.91 296.446 467.52 296.446 467.25 296.596 467.04 296.896 466.86 297.196 466.77 297.616 466.77 298.186 466.77 298.786 466.86 299.206 467.04 299.506 467.25 299.806 467.52 299.956 467.91 299.956 468.3 299.956 468.57 299.806 468.78 299.506 468.96 299.206 469.05 298.786 469.05 298.186Z" fill-rule="evenodd"/><path transform="matrix(1,0,0,-1,0,595.276)" d="M476.55 298.456C476.43 298.456 476.25 298.426 476.13 298.306 475.98 298.216 475.92 298.066 475.92 297.946V295.666H474.9V298.156C474.9 298.336 474.69 298.456 474.42 298.456 474.27 298.456 474.12 298.426 473.97 298.306 473.85 298.216 473.79 298.066 473.76 297.946V295.666H472.77V299.326H473.76V299.176C473.88 299.266 474.03 299.356 474.15 299.386 474.3 299.446 474.45 299.476 474.6 299.476 475.08 299.476 475.41 299.296 475.59 298.966 475.86 299.296 476.19 299.476 476.64 299.476 477.33 299.446 477.78 299.146 477.99 298.606 478.02 298.546 478.02 298.516 478.02 298.456 478.02 298.426 478.05 298.336 478.05 298.306V298.276 295.666H477.06V298.156C477.06 298.216 477 298.306 476.91 298.366 476.82 298.426 476.7 298.456 476.55 298.456Z" fill-rule="evenodd"/><path transform="matrix(1,0,0,-1,0,595.276)" d="M456.75 298.876C456.78 298.966 456.87 299.056 457.08 299.116 457.26 299.206 457.5 299.236 457.77 299.236 458.28 299.236 458.73 299.056 459.06 298.756 459.24 298.576 459.36 298.396 459.42 298.186 459.51 297.946 459.54 297.706 459.54 297.466V297.346C459.54 296.806 459.36 296.326 459.06 295.996 458.73 295.666 458.28 295.486 457.8 295.486 457.08 295.486 456.57 295.726 456.21 296.176 455.85 296.656 455.67 297.376 455.67 298.336 455.67 300.016 456.39 300.916 457.68 300.916 458.04 300.916 458.4 300.826 458.7 300.646 459 300.436 459.21 300.166 459.36 299.806L458.46 299.356C458.22 299.716 457.92 299.926 457.62 299.926 457.35 299.896 457.14 299.806 456.99 299.626 456.9 299.536 456.84 299.446 456.81 299.296 456.78 299.176 456.75 299.026 456.75 298.876ZM457.68 298.216C457.2 298.216 456.87 297.856 456.87 297.316 456.87 297.106 456.96 296.866 457.11 296.686 457.26 296.506 457.47 296.446 457.68 296.446 458.16 296.446 458.49 296.806 458.49 297.316 458.49 297.856 458.16 298.216 457.68 298.216Z" fill-rule="evenodd"/><path transform="matrix(1,0,0,-1,0,595.276)" d="M457.2 291.646H456.6V289.936H453.3V289.126H460.71V289.936H457.44V291.286L457.59 291.436V291.526L457.47 291.586Z" fill-rule="evenodd"/><path transform="matrix(1,0,0,-1,0,595.276)" d="M455.88 288.046 455.4 288.256 455.31 287.686 455.16 287.146 454.98 286.666 454.71 286.186 454.41 285.766 454.05 285.346 453.66 284.986 453.18 284.656 453.9 284.146 454.65 284.746 455.28 285.556 455.79 286.516 456.15 287.656 456.33 287.746V287.836L456.18 287.926Z" fill-rule="evenodd"/><path transform="matrix(1,0,0,-1,0,595.276)" d="M458.46 288.136 457.71 287.986 458.07 286.756 458.58 285.676 459.24 284.806 460.05 284.116 460.89 284.776 459.99 285.436 459.3 286.216 458.79 287.116Z" fill-rule="evenodd"/><path transform="matrix(1,0,0,-1,0,595.276)" d="M463.47 290.596H466.56L466.11 289.576H464.25V284.266H465.06V284.686H468.93V284.266H469.74V289.576H467.01L467.4 290.596H470.58V291.346H463.47V290.596ZM465.06 287.566V288.886H468.93V287.566H465.06ZM465.06 285.466V286.846H468.93V285.466H465.06Z" fill-rule="evenodd"/><path transform="matrix(1,0,0,-1,0,595.276)" d="M474.54 290.836 474 290.416 474.69 289.756 475.23 289.036 475.98 289.516 475.32 290.236Z" fill-rule="evenodd"/><path transform="matrix(1,0,0,-1,0,595.276)" d="M473.31 288.076H476.25L475.68 287.296 474.99 286.606 474.18 285.976 473.22 285.436 473.91 284.776 474.84 285.466 475.59 286.126 476.19 286.786 476.61 287.386V284.146H477.45V287.506L478.08 286.636 478.71 285.916 479.37 285.286 480.06 284.806 480.78 285.496 479.91 286.036 479.1 286.636 478.41 287.296 477.78 288.076H480.75V288.856H477.45V291.256L477.6 291.406V291.526L477.51 291.586 477.3 291.646 476.61 291.676V288.856H473.31Z" fill-rule="evenodd"/><path transform="matrix(1,0,0,-1,0,595.276)" d="M478.11 289.456 478.86 289.066 479.94 290.236 480.03 290.416 480 290.536 479.28 290.836 478.74 290.086Z" fill-rule="evenodd"/></g></svg>