<?xml version='1.0' encoding='UTF-8'?>
<svg width="554.47" height="218.47" viewBox="7.25 25.28 554.47 218.47" xmlns="http://www.w3.org/2000/svg" xmlns:xlink="http://www.w3.org/1999/xlink" xmlns:inkscape="http://www.inkscape.org/namespaces/inkscape" version="1.1"><g transform="scale(10.0) translate(-111.171, -505.008)"><defs><clipPath id="clip_2"><path transform="matrix(1,0,0,-1,0,595.276)" d="M74.4 .196H767.4V595.276H74.4Z"/></clipPath></defs><path transform="matrix(1,0,0,-1,0,595.276)" d="M113.4 87.196H165.72C165.96 87.196 166.32 87.076 166.44 86.836 166.68 86.596 166.8 86.356 166.8 86.116V67.516C166.8 67.396 166.8 67.276 166.68 67.036 166.68 66.916 166.56 66.796 166.44 66.796 166.32 66.676 166.2 66.556 166.08 66.556 165.96 66.436 165.84 66.436 165.72 66.436H113.4C113.16 66.436 112.92 66.556 112.68 66.796 112.56 66.916 112.44 67.276 112.44 67.516V86.116C112.44 86.356 112.56 86.596 112.68 86.836 112.8 86.956 112.92 87.076 113.04 87.076 113.16 87.076 113.28 87.196 113.4 87.196ZM113.4 86.596C113.16 86.596 112.92 86.356 112.92 86.116V67.516C112.92 67.396 112.92 67.396 112.92 67.276L113.04 67.156C113.16 67.036 113.28 66.916 113.4 66.916H165.72C165.84 66.916 165.96 67.036 166.08 67.156 166.2 67.156 166.2 67.396 166.2 67.516V86.116C166.2 86.116 166.2 86.236 166.2 86.356 166.2 86.356 166.2 86.476 166.08 86.476 165.96 86.596 165.84 86.596 165.72 86.596H113.4Z" fill-rule="evenodd"/><path transform="matrix(1,0,0,-1,0,595.276)" d="M113.4 66.916H165.72C165.84 66.916 165.84 66.916 165.96 67.036 165.96 67.036 166.08 67.036 166.08 67.156 166.2 67.156 166.2 67.156 166.2 67.276 166.2 67.396 166.2 67.396 166.2 67.516V86.116C166.2 86.236 166.2 86.356 166.08 86.476 165.96 86.596 165.84 86.596 165.72 86.596H113.4C113.28 86.596 113.16 86.596 113.04 86.476 113.04 86.476 113.04 86.356 112.92 86.356 112.92 86.236 112.92 86.116 112.92 86.116V67.516C112.92 67.156 113.16 66.916 113.4 66.916Z" fill="#ffffff" fill-rule="evenodd"/><path transform="matrix(1,0,0,-1,0,595.276)" d="M123.96 83.236C123.96 83.956 123.48 84.316 122.88 84.316 122.16 84.316 121.8 83.956 121.8 83.236 121.8 82.516 122.16 82.036 122.88 82.036 123.48 82.036 123.96 82.516 123.96 83.236ZM123.24 83.236C123.24 82.876 123.12 82.636 122.88 82.636 122.64 82.636 122.4 82.876 122.4 83.236 122.4 83.596 122.64 83.716 122.88 83.716 123.12 83.716 123.24 83.596 123.24 83.236Z" fill-rule="evenodd"/><path transform="matrix(1,0,0,-1,0,595.276)" d="M126.24 82.156V83.596C126.24 84.076 125.88 84.316 125.4 84.316 125.28 84.316 125.16 84.316 125.16 84.316 125.04 84.316 124.92 84.196 124.92 84.196V84.316H124.32V82.156H124.92V83.476C124.92 83.716 125.04 83.836 125.28 83.836 125.52 83.836 125.64 83.716 125.64 83.476V83.356 82.156H126.24Z" fill-rule="evenodd"/><path transform="matrix(1,0,0,-1,0,595.276)" d="M135.24 82.516 135.12 82.156C135 82.036 134.88 82.156 134.76 82.156 134.64 82.156 134.64 82.276 134.52 82.276 134.52 82.156 134.28 82.036 134.04 82.036 133.8 82.036 133.56 82.156 133.44 82.276 133.32 82.396 133.2 82.636 133.2 82.876 133.2 83.236 133.56 83.476 134.4 83.476V83.596C134.4 83.716 134.4 83.716 134.4 83.836 134.28 83.836 134.28 83.836 134.16 83.836 134.04 83.836 133.92 83.836 133.8 83.836 133.68 83.716 133.56 83.716 133.56 83.596L133.2 84.076C133.44 84.196 133.8 84.316 134.16 84.316 134.4 84.316 134.64 84.316 134.76 84.196 134.88 84.076 135 83.956 135 83.716V82.636C135 82.516 135.12 82.516 135.24 82.516ZM133.8 82.756C133.8 82.756 133.8 82.636 133.92 82.636 133.92 82.636 134.04 82.516 134.16 82.516 134.28 82.636 134.4 82.636 134.4 82.756V83.116C134.16 83.116 134.04 82.996 133.92 82.996 133.92 82.996 133.8 82.876 133.8 82.756Z" fill-rule="evenodd"/><path transform="matrix(1,0,0,-1,0,595.276)" d="M136.32 84.196H136.92V83.716H136.32V82.876C136.32 82.756 136.32 82.756 136.44 82.636H136.56 136.68C136.8 82.636 136.8 82.636 136.92 82.636V82.156C136.92 82.036 136.68 82.036 136.32 82.036 136.2 82.036 136.08 82.156 135.96 82.156 135.84 82.276 135.84 82.396 135.84 82.636V83.716H135.48V84.196H135.84V84.916L136.32 85.036V84.196Z" fill-rule="evenodd"/><path transform="matrix(1,0,0,-1,0,595.276)" d="M144.24 82.516 144.12 82.156C144 82.036 143.88 82.156 143.76 82.156 143.64 82.156 143.64 82.276 143.52 82.276 143.52 82.156 143.28 82.036 143.04 82.036 142.8 82.036 142.56 82.156 142.44 82.276 142.32 82.396 142.2 82.636 142.2 82.876 142.2 83.236 142.56 83.476 143.4 83.476V83.596C143.4 83.716 143.4 83.716 143.4 83.836 143.28 83.836 143.28 83.836 143.16 83.836 143.04 83.836 142.92 83.836 142.8 83.836 142.68 83.716 142.56 83.716 142.56 83.596L142.2 84.076C142.44 84.196 142.8 84.316 143.16 84.316 143.4 84.316 143.64 84.316 143.76 84.196 143.88 84.076 144 83.956 144 83.716V82.636C144 82.516 144.12 82.516 144.24 82.516ZM142.8 82.756C142.8 82.756 142.8 82.636 142.92 82.636 142.92 82.636 143.04 82.516 143.16 82.516 143.28 82.636 143.4 82.636 143.4 82.756V83.116C143.28 83.116 143.04 82.996 142.92 82.996 142.92 82.996 142.8 82.876 142.8 82.756Z" fill-rule="evenodd"/><path transform="matrix(1,0,0,-1,0,595.276)" d="M146.76 83.716C146.64 83.716 146.4 83.596 146.4 83.476V82.156H145.8V83.596C145.8 83.716 145.68 83.716 145.56 83.716 145.44 83.716 145.2 83.596 145.2 83.476V82.156H144.6V84.316H145.2V84.196C145.32 84.196 145.32 84.316 145.44 84.316 145.56 84.316 145.56 84.316 145.68 84.316 145.92 84.316 146.16 84.196 146.28 84.076 146.4 84.196 146.64 84.316 146.88 84.316 147.24 84.316 147.48 84.196 147.6 83.836V83.716 82.156H147.12V83.596L147 83.716C146.88 83.716 146.88 83.716 146.76 83.716Z" fill-rule="evenodd"/><path transform="matrix(1,0,0,-1,0,595.276)" d="M119.76 82.876 118.92 84.076V82.156H118.32V85.036H118.92L119.76 83.956 120.6 85.036H121.32V82.156H120.72V84.076Z" fill-rule="evenodd"/><path transform="matrix(1,0,0,-1,0,595.276)" d="M128.76 83.476H127.8V82.996H128.76Z" fill-rule="evenodd"/><path transform="matrix(1,0,0,-1,0,595.276)" d="M131.16 84.196C131.16 84.196 131.16 84.076 131.28 84.076 131.4 83.956 131.52 83.956 131.76 83.956 132.36 83.836 132.72 83.476 132.72 82.996 132.72 82.396 132.36 82.036 131.64 82.036 131.28 82.036 131.04 82.156 130.8 82.156 130.56 82.276 130.32 82.396 130.2 82.636L130.68 82.996C131.04 82.756 131.28 82.636 131.64 82.636 131.88 82.636 132 82.756 132 82.996 132 83.236 131.76 83.356 131.4 83.356 130.8 83.356 130.56 83.716 130.44 84.196 130.44 84.796 130.92 85.156 131.64 85.156 131.88 85.156 132.12 85.156 132.24 85.036 132.48 84.916 132.6 84.796 132.72 84.676L132.36 84.316C132.12 84.436 131.88 84.556 131.64 84.556 131.28 84.556 131.16 84.436 131.16 84.196Z" fill-rule="evenodd"/><path transform="matrix(1,0,0,-1,0,595.276)" d="M150.24 83.476H149.28V82.996H150.24Z" fill-rule="evenodd"/><path transform="matrix(1,0,0,-1,0,595.276)" d="M139.56 82.036C140.28 82.036 140.76 82.516 140.76 82.996 140.76 83.236 140.52 83.596 140.28 83.716 140.52 83.836 140.64 84.076 140.64 84.316 140.64 84.916 140.28 85.156 139.56 85.156 138.84 85.156 138.48 84.916 138.48 84.316 138.48 84.076 138.6 83.836 138.84 83.716 138.6 83.596 138.48 83.236 138.48 82.996 138.48 82.516 138.96 82.036 139.56 82.036ZM139.56 83.356C139.92 83.356 140.04 83.236 140.04 82.996 140.04 82.756 139.92 82.636 139.56 82.636 139.32 82.636 139.08 82.756 139.08 82.996 139.08 83.236 139.32 83.356 139.56 83.356ZM140.04 84.316C140.04 84.196 139.92 84.076 139.92 84.076 139.8 83.956 139.68 83.956 139.56 83.956 139.32 83.956 139.2 84.076 139.2 84.316 139.2 84.436 139.2 84.436 139.32 84.556 139.32 84.556 139.44 84.556 139.56 84.556 139.8 84.556 140.04 84.436 140.04 84.316Z" fill-rule="evenodd"/><path transform="matrix(1,0,0,-1,0,595.276)" d="M157.56 83.236C157.56 83.596 157.44 83.836 157.2 84.076 157.08 84.196 156.84 84.316 156.48 84.316 156.36 84.316 156 84.316 156 84.196V84.316H155.52V81.436H156.12V82.276C156.12 82.156 156.36 82.036 156.6 82.036 157.08 82.036 157.56 82.516 157.56 83.236ZM156.48 82.636C156.36 82.636 156.24 82.636 156.24 82.756 156.12 82.756 156.12 82.876 156.12 82.996V83.476C156.12 83.716 156.24 83.836 156.48 83.836 156.6 83.836 156.84 83.716 156.96 83.596V83.476 82.996 82.876C156.84 82.756 156.6 82.636 156.48 82.636Z" fill-rule="evenodd"/><path transform="matrix(1,0,0,-1,0,595.276)" d="M160.2 83.716C159.96 83.716 159.84 83.596 159.72 83.476V82.156H159.24V83.596C159.24 83.716 159.12 83.716 158.88 83.716 158.76 83.716 158.52 83.596 158.52 83.476V82.156H158.04V84.316H158.52V84.196C158.64 84.196 158.64 84.316 158.76 84.316 158.88 84.316 159 84.316 159 84.316 159.36 84.316 159.48 84.196 159.6 84.076 159.72 84.196 159.96 84.316 160.2 84.316 160.56 84.316 160.8 84.196 160.92 83.836L161.04 83.716V82.156H160.44V83.596C160.44 83.596 160.44 83.716 160.32 83.716H160.2Z" fill-rule="evenodd"/><path transform="matrix(1,0,0,-1,0,595.276)" d="M152.28 83.956C152.28 84.076 152.4 84.076 152.52 84.196 152.64 84.196 152.76 84.196 152.88 84.196 153.24 84.196 153.48 84.076 153.6 83.956 153.84 83.716 153.96 83.476 153.96 83.236V83.116C153.96 82.516 153.48 82.036 152.88 82.036 152.16 82.036 151.68 82.636 151.68 83.716 151.68 84.676 152.16 85.156 152.88 85.156 153 85.156 153.24 85.156 153.48 85.036 153.6 84.916 153.72 84.796 153.84 84.556L153.24 84.316C153.12 84.436 153 84.556 152.76 84.556 152.64 84.556 152.52 84.556 152.4 84.436 152.4 84.436 152.4 84.316 152.4 84.196 152.28 84.196 152.28 84.196 152.28 84.076V83.956ZM152.88 83.596C152.52 83.596 152.4 83.476 152.4 83.116 152.4 82.996 152.4 82.876 152.52 82.756 152.64 82.636 152.76 82.636 152.88 82.636 153 82.636 153.12 82.636 153.24 82.756 153.24 82.876 153.36 82.996 153.36 83.116 153.36 83.236 153.24 83.356 153.24 83.476 153.12 83.596 153 83.596 152.88 83.596Z" fill-rule="evenodd"/><path transform="matrix(1,0,0,-1,0,595.276)" d="M116.76 73.156H116.4V69.556H114.72V69.076H118.92V69.556H116.88V71.236H118.44V71.596H116.88V72.916L117 73.036 116.88 73.156Z" fill-rule="evenodd"/><path transform="matrix(1,0,0,-1,0,595.276)" d="M120.48 71.716 120.96 71.476 121.44 72.076H122.52V71.116H120.48V70.756H122.52V68.956H122.88V70.756H124.68V71.116H122.88V72.076H124.32V72.556H121.8L121.92 72.916H122.04 122.16L122.04 73.036H121.92L121.68 73.156 121.08 72.436Z" fill-rule="evenodd"/><path transform="matrix(1,0,0,-1,0,595.276)" d="M126.24 69.196 126.6 68.956 126.96 69.196 127.2 69.556 127.44 69.796 127.56 70.276 127.68 70.636 127.8 71.116V71.596L127.92 72.076V72.196L127.8 72.316H127.44V71.836 71.356L127.32 70.876 127.2 70.396 126.96 70.036 126.72 69.796 126.48 69.436Z" fill-rule="evenodd"/><path transform="matrix(1,0,0,-1,0,595.276)" d="M127.68 73.036V72.556H128.76V72.076 71.596L128.88 71.116 129 70.756 129.12 70.396 129.24 69.916 129.48 69.556 129.72 69.196 130.08 68.956 130.56 69.316 130.2 69.556 129.96 69.916 129.72 70.156 129.6 70.516 129.48 70.876 129.36 71.356 129.24 71.716V72.196 73.036Z" fill-rule="evenodd"/><path transform="matrix(1,0,0,-1,0,595.276)" d="M134.64 71.596H133.56V71.236H135.24V70.756H133.56V70.396H135.24V69.556L135.12 69.436V69.316H135 134.88 134.4L134.64 68.836H135L135.24 68.956 135.48 69.076V69.196L135.6 69.436V70.396H136.2V70.756H135.6V71.236H136.08V71.596H135V72.196H135.96V72.556H135V72.916L135.12 73.036V73.156H135 134.64V72.556H133.68V72.196H134.64Z" fill-rule="evenodd"/><path transform="matrix(1,0,0,-1,0,595.276)" d="M134.16 70.276 133.8 69.916 134.16 69.676 134.4 69.436 134.64 69.676 134.4 70.036Z" fill-rule="evenodd"/><path transform="matrix(1,0,0,-1,0,595.276)" d="M132 72.796V69.556 69.316H132.48V69.796H132.96V69.556H133.32V72.796H132ZM132.48 71.476V72.316H132.96V71.476H132.48ZM132.48 70.156V71.116H132.96V70.156H132.48Z" fill-rule="evenodd"/><path transform="matrix(1,0,0,-1,0,595.276)" d="M137.76 72.556H139.08L138.6 71.596H137.88L138 71.116V70.996L138.12 71.116 140.88 71.356 141.12 70.996 141.6 71.236 141.12 71.836 140.52 72.316 140.28 72.076 140.64 71.716 139.08 71.596 139.68 72.556H141.48V72.916H137.76Z" fill-rule="evenodd"/><path transform="matrix(1,0,0,-1,0,595.276)" d="M137.52 69.076H141.72V69.436H139.8V70.156H141.24V70.636H139.8V70.996H139.92V71.116H139.8L139.44 71.236V70.636H138V70.156H139.44V69.436H137.52Z" fill-rule="evenodd"/><path transform="matrix(1,0,0,-1,0,595.276)" d="M143.16 72.796V72.436H144.96V68.836H145.44V71.236L146.04 70.756 146.64 70.276 147 70.516 146.28 71.236 145.44 71.716V72.436H147.36V72.796Z" fill-rule="evenodd"/><path transform="matrix(1,0,0,-1,0,595.276)" d="M148.92 71.716 149.4 71.476 149.88 72.076H150.96V71.116H148.92V70.756H150.96V68.956H151.32V70.756H153.12V71.116H151.32V72.076H152.76V72.556H150.24L150.36 72.916H150.48V73.036H150.36L150.12 73.156 149.52 72.436Z" fill-rule="evenodd"/><path transform="matrix(1,0,0,-1,0,595.276)" d="M156.84 73.156H156.48V72.196H154.56V71.716H158.88V72.196H156.96V72.916L157.08 73.036 156.96 73.156Z" fill-rule="evenodd"/><path transform="matrix(1,0,0,-1,0,595.276)" d="M156.12 71.116 155.76 71.236V70.876L155.64 70.636 155.52 70.276 155.4 70.036 155.28 69.796 155.04 69.556 154.8 69.316 154.56 69.196 154.92 68.836 155.4 69.196 155.76 69.676 156 70.276 156.24 70.876H156.36V70.996H156.24Z" fill-rule="evenodd"/><path transform="matrix(1,0,0,-1,0,595.276)" d="M157.56 71.116H157.08L157.32 70.396 157.56 69.796 158.04 69.316 158.4 68.836 158.88 69.196 158.4 69.556 158.04 70.036 157.68 70.516Z" fill-rule="evenodd"/><path transform="matrix(1,0,0,-1,0,595.276)" d="M162.96 71.596H161.88V71.236H163.56V70.756H161.88V70.396H163.56V69.556 69.436L163.44 69.316H163.32 163.2 162.72L162.96 68.836H163.32L163.56 68.956 163.8 69.076 163.92 69.196V69.436 70.396H164.64V70.756H163.92V71.236H164.52V71.596H163.44V72.196H164.28V72.556H163.44V72.916 73.036 73.156H163.32 162.96V72.556H162V72.196H162.96Z" fill-rule="evenodd"/><path transform="matrix(1,0,0,-1,0,595.276)" d="M162.48 70.276 162.24 69.916 162.48 69.676 162.72 69.436 162.96 69.676 162.72 70.036Z" fill-rule="evenodd"/><path transform="matrix(1,0,0,-1,0,595.276)" d="M160.32 72.796V69.556 69.316H160.8V69.796H161.28V69.556H161.64V72.796H160.32ZM160.8 71.476V72.316H161.28V71.476H160.8ZM160.8 70.156V71.116H161.28V70.156H160.8Z" fill-rule="evenodd"/><path transform="matrix(1,0,0,-1,0,595.276)" d="M146.88 79.756H143.88V78.076H146.88V79.756ZM144.36 79.156V79.396H146.4V79.156H144.36ZM144.36 78.436V78.796H146.4V78.436H144.36Z" fill-rule="evenodd"/><path transform="matrix(1,0,0,-1,0,595.276)" d="M144.48 77.836 144 77.956 143.64 77.476 143.16 76.876 143.64 76.636 144.12 77.236H145.2V76.876H144V76.516H145.2V76.156H143.28V75.676H147.36V76.156H145.68V76.516H147V76.876H145.68V77.236H147.12V77.596H145.68V77.836H145.8V77.956H145.68 145.2V77.596H144.24Z" fill-rule="evenodd"/><path transform="matrix(1,0,0,-1,0,595.276)" d="M148.92 79.276V78.916H149.4V77.116H148.92V76.756H151.32V77.116H150.84V78.916H151.2V79.276H150.84V79.636H150.96V79.756L150.84 79.876H150.48V79.276H149.76V79.636L149.88 79.756 149.76 79.876H149.4V79.276H148.92ZM149.76 77.836V78.196H150.48V77.836H149.76ZM149.76 77.116V77.476H150.48V77.116H149.76ZM149.76 78.436V78.916H150.48V78.436H149.76Z" fill-rule="evenodd"/><path transform="matrix(1,0,0,-1,0,595.276)" d="M148.92 75.796 149.28 75.556 149.64 76.036 150 76.396 149.52 76.636 149.28 76.156Z" fill-rule="evenodd"/><path transform="matrix(1,0,0,-1,0,595.276)" d="M151.44 79.756V77.956 77.236 76.636L151.2 76.276 151.08 75.916 151.44 75.676 151.56 75.916 151.68 76.276 151.8 76.756V77.116H152.52V76.276 76.156L152.28 76.036H152.04L152.16 75.676H152.64L152.76 75.796 152.88 75.916 153 76.036V76.276 79.756H151.44ZM151.92 77.476V78.196H152.52V77.476H151.92ZM151.92 78.556V79.396H152.52V78.556H151.92Z" fill-rule="evenodd"/><path transform="matrix(1,0,0,-1,0,595.276)" d="M150.48 76.636 150.24 76.396 150.48 76.036 150.72 75.676 151.08 76.036 150.84 76.396Z" fill-rule="evenodd"/><path transform="matrix(1,0,0,-1,0,595.276)" d="M156.84 79.876H156.48V78.916H154.56V78.436H158.88V78.916H156.96V79.636L157.08 79.756V79.876H156.96Z" fill-rule="evenodd"/><path transform="matrix(1,0,0,-1,0,595.276)" d="M156.12 77.836 155.76 77.956V77.596L155.64 77.356 155.52 76.996 155.4 76.756 155.28 76.516 155.04 76.276 154.8 76.036 154.56 75.916 154.92 75.556 155.4 75.916 155.76 76.396 156 76.996 156.24 77.596 156.36 77.716H156.24Z" fill-rule="evenodd"/><path transform="matrix(1,0,0,-1,0,595.276)" d="M157.56 77.836H157.08L157.32 77.116 157.56 76.516 158.04 76.036 158.4 75.556 158.88 75.916 158.4 76.396 158.04 76.756 157.68 77.356Z" fill-rule="evenodd"/><path transform="matrix(1,0,0,-1,0,595.276)" d="M137.76 79.276H139.08L138.6 78.316H137.88L138 77.836H138.12L140.88 78.196 141.12 77.716 141.6 78.076 141.12 78.556 140.52 79.156 140.28 78.796 140.64 78.436 139.08 78.316 139.68 79.276H141.48V79.636H137.76Z" fill-rule="evenodd"/><path transform="matrix(1,0,0,-1,0,595.276)" d="M137.52 75.796H141.72V76.156H139.8V76.996H141.24V77.356H139.8V77.716H139.92V77.836H139.8L139.44 77.956V77.356H138V76.996H139.44V76.156H137.52Z" fill-rule="evenodd"/><path transform="matrix(1,0,0,-1,0,595.276)" d="M124.08 79.756H121.08V78.076H124.08V79.756ZM121.56 79.156V79.396H123.6V79.156H121.56ZM121.56 78.436V78.796H123.6V78.436H121.56Z" fill-rule="evenodd"/><path transform="matrix(1,0,0,-1,0,595.276)" d="M121.68 77.836 121.2 77.956 120.96 77.476 120.48 76.876 120.84 76.636 121.32 77.236H122.4V76.876H121.2V76.516H122.4V76.156H120.48V75.676H124.56V76.156H122.88V76.516H124.2V76.876H122.88V77.236H124.32V77.596H122.88V77.836H123V77.956H122.88 122.4V77.596H121.56Z" fill-rule="evenodd"/><path transform="matrix(1,0,0,-1,0,595.276)" d="M126.24 79.276V78.916H126.72V77.116H126.12V76.756H128.52V77.116H128.16V78.916H128.52V79.276H128.16V79.636L128.28 79.756H128.16L128.04 79.876H127.68V79.276H127.08V79.636 79.756H127.2 127.08L126.96 79.876H126.72V79.276H126.24ZM127.08 77.836V78.196H127.68V77.836H127.08ZM127.08 77.116V77.476H127.68V77.116H127.08ZM127.08 78.436V78.916H127.68V78.436H127.08Z" fill-rule="evenodd"/><path transform="matrix(1,0,0,-1,0,595.276)" d="M126.24 75.796 126.6 75.556 126.96 76.036 127.2 76.396 126.84 76.636 126.48 76.156Z" fill-rule="evenodd"/><path transform="matrix(1,0,0,-1,0,595.276)" d="M128.76 79.756V77.956 77.236L128.64 76.636 128.52 76.276 128.28 75.916 128.64 75.676 128.88 75.916 129 76.276 129.12 76.756V77.116H129.84V76.276L129.72 76.156 129.6 76.036H129.24L129.48 75.676H129.84L130.08 75.796 130.2 75.916V76.036 76.276 79.756H128.76ZM129.12 77.476V78.196H129.84V77.476H129.12ZM129.12 78.556V79.396H129.84V78.556H129.12Z" fill-rule="evenodd"/><path transform="matrix(1,0,0,-1,0,595.276)" d="M127.8 76.636 127.56 76.396 127.8 76.036 127.92 75.676 128.28 76.036 128.04 76.396Z" fill-rule="evenodd"/><path transform="matrix(1,0,0,-1,0,595.276)" d="M131.88 78.076V77.716H136.08V78.076Z" fill-rule="evenodd"/></g></svg>