<?xml version='1.0' encoding='UTF-8'?>
<svg width="566.71" height="259.51" viewBox="0.05 5.96 566.71 259.51" xmlns="http://www.w3.org/2000/svg" xmlns:xlink="http://www.w3.org/1999/xlink" xmlns:inkscape="http://www.inkscape.org/namespaces/inkscape" version="1.1"><g transform="scale(10.0) translate(-329.439, -101.088)"><defs><clipPath id="clip_2"><path transform="matrix(1,0,0,-1,0,595.276)" d="M74.4 .196H767.4V595.276H74.4Z"/></clipPath></defs><path transform="matrix(1,0,0,-1,0,595.276)" d="M331.56 493.036H384C384.24 493.036 384.36 493.036 384.6 492.916 384.72 492.796 384.96 492.796 385.08 492.556 385.2 492.436 385.32 492.316 385.44 492.076 385.56 491.836 385.56 491.716 385.56 491.476V469.636C385.56 469.276 385.44 468.916 385.08 468.556 384.96 468.436 384.72 468.316 384.6 468.196 384.36 468.196 384.24 468.196 384 468.196H331.56C331.2 468.196 330.84 468.316 330.48 468.556 330.12 468.916 330 469.276 330 469.636V491.476C330 491.836 330.12 492.316 330.48 492.556 330.6 492.796 330.84 492.796 330.96 492.916 331.2 493.036 331.32 493.036 331.56 493.036ZM331.56 492.316C331.32 492.316 331.2 492.196 330.96 492.076 330.84 491.836 330.84 491.716 330.84 491.476V469.636C330.84 469.516 330.84 469.276 330.96 469.156 331.2 469.036 331.32 468.916 331.56 468.916H384C384.12 468.916 384.24 468.916 384.36 468.916 384.36 469.036 384.48 469.036 384.6 469.156 384.72 469.276 384.84 469.516 384.84 469.636V491.476C384.84 491.596 384.72 491.716 384.72 491.836 384.72 491.836 384.6 491.956 384.6 492.076 384.36 492.196 384.24 492.316 384 492.316H331.56Z" fill-rule="evenodd"/><path transform="matrix(1,0,0,-1,0,595.276)" d="M331.56 492.316H384C384.24 492.316 384.36 492.196 384.6 492.076 384.72 491.836 384.84 491.716 384.84 491.476V469.636C384.84 469.636 384.72 469.516 384.72 469.396 384.72 469.276 384.6 469.156 384.6 469.156 384.48 469.036 384.36 469.036 384.36 468.916 384.24 468.916 384.12 468.916 384 468.916H331.56C331.32 468.916 331.2 469.036 330.96 469.156 330.84 469.276 330.84 469.516 330.84 469.636V491.476C330.84 491.956 331.08 492.316 331.56 492.316Z" fill="#ffffff" fill-rule="evenodd"/><path transform="matrix(1,0,0,-1,0,595.276)" d="M349.2 488.116H350.88V488.956H349.2V489.796H351V490.636H348.24V486.316H351.36V487.276H349.2Z" fill-rule="evenodd"/><path transform="matrix(1,0,0,-1,0,595.276)" d="M353.88 489.436H354.72L353.88 487.876 354.84 486.316H353.88L353.4 487.276 352.8 486.316H351.84L352.92 487.876 351.96 489.436H352.92L353.4 488.596Z" fill-rule="evenodd"/><path transform="matrix(1,0,0,-1,0,595.276)" d="M356.76 489.556C357.12 489.556 357.48 489.556 357.72 489.316 357.84 489.196 358.08 488.956 358.2 488.596L357.48 488.356C357.36 488.596 357.12 488.836 356.76 488.836 356.4 488.836 356.28 488.596 356.16 488.116 356.16 487.996 356.16 487.996 356.16 487.876V487.756 487.636C356.28 487.276 356.52 487.036 356.88 487.036 357 487.036 357.12 487.036 357.24 487.156 357.36 487.156 357.48 487.396 357.48 487.516L358.2 487.276C357.96 486.556 357.6 486.196 356.88 486.196 355.8 486.196 355.32 486.796 355.32 487.876 355.44 488.956 355.92 489.556 356.76 489.556Z" fill-rule="evenodd"/><path transform="matrix(1,0,0,-1,0,595.276)" d="M361.44 487.636C361.44 488.836 360.96 489.556 360 489.556 359.16 489.556 358.68 489.076 358.56 487.876 358.56 487.516 358.68 487.036 358.92 486.796 359.28 486.436 359.76 486.196 360.12 486.196 360.72 486.196 361.2 486.436 361.32 486.796L360.84 487.276C360.72 487.156 360.48 487.036 360.12 487.036 360 487.036 359.88 487.036 359.64 487.156 359.64 487.276 359.52 487.276 359.52 487.396 359.52 487.396 359.52 487.516 359.52 487.636H361.44ZM359.4 488.236V488.236C359.52 488.356 359.52 488.596 359.64 488.596 359.76 488.716 359.88 488.836 360 488.836 360.24 488.836 360.6 488.596 360.6 488.356V488.236H359.4Z" fill-rule="evenodd"/><path transform="matrix(1,0,0,-1,0,595.276)" d="M365.16 487.876C365.16 488.956 364.56 489.556 363.72 489.556 363.36 489.556 363 489.436 362.88 489.316V489.436H362.16V485.356H363V486.436C363 486.316 363.36 486.196 363.72 486.196 364.08 486.196 364.44 486.316 364.68 486.676 365.04 487.036 365.16 487.516 365.16 487.876ZM363.6 487.036C363.48 487.036 363.24 487.036 363.12 487.156 363.12 487.276 363 487.276 363 487.396V487.516 488.356C363 488.596 363.24 488.836 363.6 488.836 363.84 488.836 364.08 488.716 364.2 488.476V488.356 488.236 487.636 487.516C364.2 487.156 363.72 487.036 363.6 487.036Z" fill-rule="evenodd"/><path transform="matrix(1,0,0,-1,0,595.276)" d="M366.84 489.436H367.68V488.716H366.84V487.396C366.84 487.276 366.84 487.156 366.96 487.156 366.96 487.036 367.08 487.036 367.2 487.036 367.2 487.036 367.32 487.036 367.44 487.036 367.44 487.036 367.56 487.036 367.68 487.036L367.8 486.316C367.68 486.316 367.32 486.196 366.84 486.196 366.6 486.196 366.48 486.316 366.24 486.436 366.12 486.556 366 486.796 366 487.036V488.716H365.52V489.436H366V490.396L366.84 490.636V489.436Z" fill-rule="evenodd"/><path transform="matrix(1,0,0,-1,0,595.276)" d="M339.6 481.636C339.6 482.596 339.12 483.196 338.28 483.196 337.92 483.196 337.56 483.076 337.56 482.956V483.076H336.84V479.116H337.56V480.316C337.68 480.076 338.04 479.956 338.28 479.956 339.12 479.956 339.6 480.676 339.6 481.636ZM338.16 480.796C338.04 480.796 337.92 480.796 337.8 480.916 337.68 481.036 337.56 481.156 337.56 481.276V481.996C337.56 482.236 337.92 482.476 338.16 482.476 338.4 482.476 338.76 482.356 338.76 482.116V481.996L338.88 481.876V481.276L338.76 481.156C338.76 480.916 338.4 480.796 338.16 480.796Z" fill-rule="evenodd"/><path transform="matrix(1,0,0,-1,0,595.276)" d="M343.2 481.636C343.2 482.596 342.72 483.196 341.76 483.196 341.4 483.196 341.04 483.076 340.68 482.716 340.44 482.476 340.32 482.116 340.32 481.636 340.32 480.556 340.92 479.956 341.76 479.956 342.24 479.956 342.6 480.196 342.84 480.436 343.08 480.676 343.2 481.036 343.2 481.636ZM342.36 481.636C342.36 481.396 342.36 481.156 342.24 481.036 342.12 480.916 342 480.796 341.76 480.796 341.4 480.796 341.16 481.036 341.16 481.636 341.16 481.876 341.28 481.996 341.4 482.116 341.4 482.356 341.64 482.356 341.76 482.356 342.12 482.356 342.36 482.116 342.36 481.636Z" fill-rule="evenodd"/><path transform="matrix(1,0,0,-1,0,595.276)" d="M344.76 484.156V481.036 480.916C344.76 480.796 344.88 480.796 345.24 480.916L345.36 480.196C345.36 480.076 345.24 480.076 345.12 480.076 345 480.076 344.88 480.076 344.76 480.076 344.28 480.076 344.04 480.316 343.92 480.556V480.676 480.796 484.156H344.76Z" fill-rule="evenodd"/><path transform="matrix(1,0,0,-1,0,595.276)" d="M346.68 480.196V483.076H345.96V480.196Z" fill-rule="evenodd"/><path transform="matrix(1,0,0,-1,0,595.276)" d="M346.8 483.796C346.8 484.036 346.56 484.276 346.32 484.276 346.08 484.276 345.96 484.036 345.96 483.796 345.96 483.556 346.08 483.316 346.32 483.316 346.56 483.316 346.8 483.556 346.8 483.796Z" fill-rule="evenodd"/><path transform="matrix(1,0,0,-1,0,595.276)" d="M348.84 483.196C349.2 483.196 349.44 483.076 349.68 482.956 349.92 482.836 350.04 482.596 350.16 482.236L349.56 481.996C349.44 482.236 349.2 482.476 348.84 482.476 348.6 482.356 348.36 482.236 348.24 481.756V481.636C348.24 481.516 348.24 481.396 348.24 481.396 348.36 480.916 348.6 480.796 348.96 480.796 349.08 480.676 349.2 480.796 349.32 480.796 349.44 480.916 349.44 481.036 349.56 481.276L350.16 480.916C350.04 480.316 349.56 479.956 348.96 479.956 348 480.076 347.52 480.556 347.52 481.636 347.52 482.596 348 483.196 348.84 483.196Z" fill-rule="evenodd"/><path transform="matrix(1,0,0,-1,0,595.276)" d="M353.4 481.276C353.52 482.476 353.04 483.076 352.08 483.196 351.24 483.196 350.88 482.596 350.76 481.636 350.76 481.156 350.88 480.796 351.12 480.556 351.36 480.196 351.84 480.076 352.2 479.956 352.68 479.956 353.16 480.196 353.4 480.556L352.92 481.036C352.8 480.796 352.44 480.796 352.2 480.796 352.08 480.676 351.96 480.796 351.84 480.916 351.72 480.916 351.72 481.036 351.6 481.036 351.6 481.156 351.6 481.276 351.6 481.276H353.4ZM351.6 481.876V481.876C351.6 481.996 351.6 482.236 351.72 482.236 351.84 482.356 351.96 482.476 352.08 482.476 352.32 482.476 352.56 482.236 352.68 481.996V481.876H351.6Z" fill-rule="evenodd"/><path transform="matrix(1,0,0,-1,0,595.276)" d="M356.52 480.196 355.56 483.076H356.4L357 481.036 357.6 483.076H358.44L357.48 480.196H357Z" fill-rule="evenodd"/><path transform="matrix(1,0,0,-1,0,595.276)" d="M361.68 481.276C361.68 482.476 361.2 483.076 360.24 483.196 359.52 483.196 359.04 482.596 358.92 481.636 358.92 481.156 359.04 480.796 359.28 480.556 359.64 480.196 360 480.076 360.48 479.956 360.96 479.956 361.44 480.196 361.56 480.556L361.08 481.036C360.96 480.796 360.72 480.796 360.48 480.796 360.24 480.676 360.12 480.796 360 480.916 359.88 480.916 359.88 481.036 359.88 481.036 359.76 481.156 359.76 481.276 359.76 481.276H361.68ZM359.76 481.876V481.876C359.76 481.996 359.88 482.236 360 482.236 360 482.356 360.24 482.476 360.36 482.476 360.6 482.476 360.84 482.236 360.84 481.996V481.876H359.76Z" fill-rule="evenodd"/><path transform="matrix(1,0,0,-1,0,595.276)" d="M363.24 482.956C363.48 483.196 363.96 483.196 364.44 483.076 364.56 482.956 364.8 482.836 364.8 482.596 364.92 482.476 365.04 482.236 365.04 481.996V480.196H364.2V481.876C364.2 481.996 364.2 482.116 364.08 482.236 363.96 482.356 363.84 482.356 363.72 482.356 363.6 482.356 363.48 482.356 363.36 482.236 363.24 482.116 363.24 481.996 363.24 481.876V480.196H362.4V484.156H363.24V482.956Z" fill-rule="evenodd"/><path transform="matrix(1,0,0,-1,0,595.276)" d="M366.96 480.196V483.076H366.24V480.196Z" fill-rule="evenodd"/><path transform="matrix(1,0,0,-1,0,595.276)" d="M367.08 483.796C367.08 484.036 366.84 484.276 366.6 484.276 366.36 484.276 366.12 484.036 366.12 483.796 366.12 483.556 366.36 483.316 366.6 483.316 366.84 483.316 367.08 483.556 367.08 483.796Z" fill-rule="evenodd"/><path transform="matrix(1,0,0,-1,0,595.276)" d="M369.12 483.196C369.36 483.196 369.72 483.076 369.96 482.956 370.08 482.836 370.32 482.596 370.44 482.236L369.72 481.996C369.6 482.236 369.36 482.476 369.12 482.476 368.76 482.356 368.52 482.236 368.52 481.756 368.52 481.636 368.4 481.636 368.52 481.636 368.52 481.516 368.52 481.396 368.52 481.396 368.64 480.916 368.76 480.796 369.12 480.796 369.24 480.676 369.36 480.796 369.48 480.796 369.6 480.916 369.72 481.036 369.72 481.276L370.44 480.916C370.2 480.316 369.84 479.956 369.12 479.956 368.16 480.076 367.68 480.556 367.68 481.636 367.8 482.596 368.28 483.196 369.12 483.196Z" fill-rule="evenodd"/><path transform="matrix(1,0,0,-1,0,595.276)" d="M371.88 484.156V481.036 480.916C371.88 480.796 372 480.796 372.36 480.916L372.48 480.196C372.48 480.196 372.48 480.076 372.36 480.076H372.24C372.12 480.076 372 480.076 371.88 480.076 371.4 480.076 371.16 480.316 371.04 480.556V480.676 480.796 484.156H371.88Z" fill-rule="evenodd"/><path transform="matrix(1,0,0,-1,0,595.276)" d="M375.6 481.276C375.6 482.476 375.12 483.076 374.16 483.196 373.44 483.196 372.96 482.596 372.84 481.636 372.84 481.156 372.96 480.796 373.2 480.556 373.56 480.196 373.92 480.076 374.4 479.956 374.88 479.956 375.36 480.196 375.48 480.556L375 481.036C374.88 480.796 374.64 480.796 374.4 480.796 374.28 480.676 374.04 480.796 373.92 480.916L373.8 481.036C373.8 481.156 373.68 481.276 373.68 481.276H375.6ZM373.68 481.876V481.876C373.68 481.996 373.8 482.236 373.92 482.236 374.04 482.356 374.16 482.476 374.28 482.476 374.52 482.476 374.76 482.236 374.76 481.996V481.876H373.68Z" fill-rule="evenodd"/><path transform="matrix(1,0,0,-1,0,595.276)" d="M378.72 481.036C378.72 481.636 378.48 481.876 377.76 481.996 377.52 481.996 377.4 481.996 377.28 482.116H377.16V482.236C377.16 482.356 377.28 482.476 377.64 482.476 377.76 482.476 377.88 482.476 378 482.356 378 482.356 378.12 482.236 378.24 482.116L378.72 482.716C378.48 483.076 378.12 483.196 377.64 483.196 376.8 483.196 376.44 482.836 376.32 482.116 376.44 481.636 376.68 481.396 377.16 481.276 377.64 481.276 377.88 481.156 377.88 481.036 377.88 480.916 377.88 480.796 377.76 480.796 377.76 480.796 377.64 480.796 377.52 480.796 377.4 480.796 377.28 480.796 377.04 480.796 376.92 480.916 376.8 481.036 376.68 481.156L376.2 480.556C376.44 480.196 376.92 479.956 377.52 479.956 377.88 479.956 378.24 480.076 378.36 480.316 378.6 480.436 378.72 480.676 378.72 481.036Z" fill-rule="evenodd"/><path transform="matrix(1,0,0,-1,0,595.276)" d="M342.36 476.716V476.356H343.2V476.116L342.96 476.236 342.6 475.636 342.12 475.156 342.6 474.916 343.08 475.516H344.76V475.156L344.64 475.036 344.52 474.796H344.4 344.16L344.4 474.316H344.64 344.76L344.88 474.436 345 474.556 345.12 474.796V475.036 475.276 475.636L345.6 475.396 345.84 475.756 345.96 475.516 346.2 475.276 345.84 475.036 345.24 474.796 345.72 474.436 346.68 474.916 347.16 474.556 347.76 474.316 348.24 474.676 347.64 474.916 347.04 475.276 347.4 475.636 347.64 476.116H348.12V476.476H346.32L346.44 476.716H346.56V476.836L346.44 476.956 346.08 477.076 345.6 476.356 345.12 475.756V475.876H343.32L343.44 475.996V476.116H343.32 343.68V476.356H344.16V475.996H344.76V476.356H345.36V476.716H344.76V476.836L344.88 476.956H344.76 344.64L344.16 477.076V476.716H343.8L343.92 476.836V476.956H343.8L343.68 477.076H343.2V476.716H342.36ZM346.08 476.116H347.04L346.68 475.516 346.32 475.756 346.08 476.116Z" fill-rule="evenodd"/><path transform="matrix(1,0,0,-1,0,595.276)" d="M342.12 473.716V473.356H348.12V473.716Z" fill-rule="evenodd"/><path transform="matrix(1,0,0,-1,0,595.276)" d="M343.2 474.316V473.956H347.16V474.316Z" fill-rule="evenodd"/><path transform="matrix(1,0,0,-1,0,595.276)" d="M343.2 473.116V472.756H347.16V473.116Z" fill-rule="evenodd"/><path transform="matrix(1,0,0,-1,0,595.276)" d="M343.2 472.636V472.276H347.16V472.636Z" fill-rule="evenodd"/><path transform="matrix(1,0,0,-1,0,595.276)" d="M342.96 472.036V471.076H347.4V472.036H342.96ZM343.56 471.436V471.676H346.8V471.436H343.56Z" fill-rule="evenodd"/><path transform="matrix(1,0,0,-1,0,595.276)" d="M342.96 475.276V474.436H344.16V475.276H342.96ZM343.32 474.796V475.036H343.8V474.796H343.32Z" fill-rule="evenodd"/><path transform="matrix(1,0,0,-1,0,595.276)" d="M350.52 476.356V475.876H352.8V475.396H351.12V472.996H352.8V472.516H350.28V471.916H352.8V471.076H353.4V471.916H356.04V472.516H353.4V472.996H355.2V475.396H353.4V475.876H355.68V476.356H353.4V476.716H353.52V476.836L353.4 476.956H352.8V476.356H350.52ZM351.72 474.436V474.916H352.8V474.436H351.72ZM351.72 473.476V473.956H352.8V473.476H351.72ZM353.4 474.436V474.916H354.6V474.436H353.4ZM353.4 473.476V473.956H354.6V473.476H353.4Z" fill-rule="evenodd"/><path transform="matrix(1,0,0,-1,0,595.276)" d="M357.84 474.316 358.32 473.956 358.68 474.436V471.076H359.28V475.516L359.76 476.596V476.116H360.36L360.24 475.276 360.12 474.556 359.76 473.836 359.52 473.356 360 472.996 360.24 473.476 360.96 472.996 360.6 472.516 360.24 472.276 359.88 471.916 359.52 471.676 359.88 471.316 360.36 471.556 360.84 471.796 361.2 472.156 361.44 472.636 361.68 473.236 361.8 473.716 361.92 474.436V475.156H360.84L360.96 476.116H361.92V476.596H359.88V476.716H359.76L359.28 476.956 359.04 476.236 358.68 475.516 358.32 474.916 357.84 474.316ZM360.72 474.556H361.32L361.2 473.476 360.48 473.956 360.72 474.556Z" fill-rule="evenodd"/><path transform="matrix(1,0,0,-1,0,595.276)" d="M362.28 476.116V472.396H362.76V475.876L362.88 475.996 362.76 476.116Z" fill-rule="evenodd"/><path transform="matrix(1,0,0,-1,0,595.276)" d="M363.36 476.956V472.156 471.916L363.24 471.796 363.12 471.676H363 362.4L362.64 471.076 363.36 471.196H363.6L363.72 471.436 363.84 471.676V471.916 476.596L363.96 476.716V476.836H363.84Z" fill-rule="evenodd"/><path transform="matrix(1,0,0,-1,0,595.276)" d="M367.8 476.956H367.32L367.2 476.116 366.96 475.396 366.48 474.676 366 474.076 366.48 473.596 367.08 474.436 367.56 475.276H368.52L368.4 474.556 368.16 473.836 367.44 474.316 366.96 473.836 367.44 473.596 367.92 473.236 367.56 472.756 367.2 472.276 366.72 472.036 366 471.676 366.48 471.196 366.96 471.316 367.44 471.676 367.8 472.036 368.28 472.516 368.52 473.116 368.88 473.836 369.12 474.676 369.36 475.636 368.88 475.996 368.64 475.876H367.8L367.92 476.596 368.16 476.716V476.836H368.04Z" fill-rule="evenodd"/><path transform="matrix(1,0,0,-1,0,595.276)" d="M370.44 476.956H370.08V474.436L369.72 474.916 369.24 474.556 369.72 474.076 370.08 473.596V471.076H370.8V473.116L371.64 472.636 372.12 473.236 371.28 473.596 370.8 473.956V476.596L370.92 476.716V476.836H370.8Z" fill-rule="evenodd"/></g></svg>