<?xml version='1.0' encoding='UTF-8'?>
<svg width="525.10" height="268.30" viewBox="21.40 1.33 525.10 268.30" xmlns="http://www.w3.org/2000/svg" xmlns:xlink="http://www.w3.org/1999/xlink" xmlns:inkscape="http://www.inkscape.org/namespaces/inkscape" version="1.1"><g transform="scale(10.0) translate(-220.305, -316.512)"><defs><clipPath id="clip_2"><path transform="matrix(1,0,0,-1,0,595.276)" d="M74.4 .196H767.4V595.276H74.4Z"/></clipPath></defs><path transform="matrix(1,0,0,-1,0,595.276)" d="M224.28 278.116H273.12C273.36 278.116 273.72 277.996 274.08 277.756 274.32 277.396 274.44 277.036 274.44 276.676V253.756C274.44 253.516 274.44 253.396 274.32 253.276 274.32 253.036 274.2 252.916 274.08 252.796 273.96 252.556 273.72 252.556 273.6 252.436 273.36 252.436 273.24 252.316 273.12 252.316H224.28C223.92 252.316 223.56 252.436 223.32 252.796 223.2 252.916 223.08 253.036 223.08 253.276 222.96 253.396 222.96 253.516 222.96 253.756V276.676C222.96 277.036 223.08 277.396 223.32 277.756 223.44 277.876 223.68 277.996 223.8 277.996 223.92 278.116 224.16 278.116 224.28 278.116ZM224.28 277.396C223.92 277.396 223.56 277.156 223.56 276.676V253.756C223.56 253.636 223.68 253.516 223.68 253.516 223.68 253.396 223.8 253.276 223.8 253.276 223.92 253.156 224.16 253.036 224.28 253.036H273.12C273.24 253.036 273.48 253.156 273.6 253.276 273.72 253.396 273.72 253.516 273.72 253.756V276.676C273.72 276.916 273.72 277.036 273.6 277.276 273.48 277.396 273.24 277.396 273.12 277.396H224.28Z" fill-rule="evenodd"/><path transform="matrix(1,0,0,-1,0,595.276)" d="M224.28 277.396H273.12C273.24 277.396 273.48 277.396 273.6 277.276 273.72 277.036 273.72 276.916 273.72 276.676V253.756C273.72 253.636 273.72 253.516 273.72 253.516 273.72 253.396 273.6 253.276 273.6 253.276 273.48 253.156 273.36 253.156 273.36 253.036 273.24 253.036 273.12 253.036 273.12 253.036H224.28C224.16 253.036 223.92 253.156 223.8 253.276 223.8 253.276 223.68 253.396 223.68 253.516 223.68 253.516 223.56 253.636 223.56 253.756V276.676C223.56 276.916 223.68 277.036 223.8 277.276 223.92 277.396 224.16 277.396 224.28 277.396Z" fill="#ffffff" fill-rule="evenodd"/><path transform="matrix(1,0,0,-1,0,595.276)" d="M240.84 272.356H242.4V273.196H240.84V273.916H242.52V274.756H240V270.796H242.76V271.636H240.84Z" fill-rule="evenodd"/><path transform="matrix(1,0,0,-1,0,595.276)" d="M245.16 273.676H246L245.16 272.236 246.12 270.796H245.16L244.68 271.636 244.2 270.796H243.36L244.2 272.236 243.48 273.676H244.32L244.68 272.836Z" fill-rule="evenodd"/><path transform="matrix(1,0,0,-1,0,595.276)" d="M247.8 273.796C248.16 273.796 248.4 273.676 248.64 273.556 248.88 273.436 249 273.196 249.12 272.836L248.52 272.596C248.4 272.956 248.16 273.076 247.8 273.076 247.56 273.076 247.32 272.836 247.2 272.356V272.236C247.2 272.116 247.2 272.116 247.2 271.996 247.32 271.636 247.56 271.396 247.92 271.396 248.04 271.396 248.16 271.396 248.28 271.516 248.28 271.636 248.4 271.756 248.52 271.876L249.12 271.636C249 271.036 248.52 270.676 247.92 270.676 246.96 270.676 246.48 271.276 246.48 272.236 246.6 273.196 246.96 273.796 247.8 273.796Z" fill-rule="evenodd"/><path transform="matrix(1,0,0,-1,0,595.276)" d="M252.12 271.996C252.12 273.076 251.64 273.676 250.8 273.796 249.96 273.796 249.6 273.196 249.48 272.236 249.48 271.876 249.6 271.516 249.84 271.276 250.08 270.916 250.56 270.676 250.92 270.676 251.4 270.676 251.88 270.916 252 271.156L251.52 271.636C251.4 271.516 251.16 271.396 250.92 271.396 250.8 271.396 250.56 271.396 250.44 271.516 250.44 271.636 250.32 271.636 250.32 271.756 250.32 271.756 250.32 271.876 250.32 271.996H252.12ZM250.2 272.596V272.596C250.32 272.716 250.32 272.836 250.44 272.956 250.56 272.956 250.68 273.076 250.8 273.076 251.04 273.076 251.28 272.836 251.28 272.596H250.2Z" fill-rule="evenodd"/><path transform="matrix(1,0,0,-1,0,595.276)" d="M255.36 272.236C255.36 272.716 255.36 273.076 255.12 273.316 254.88 273.676 254.52 273.796 254.04 273.796 253.8 273.796 253.44 273.676 253.44 273.556V273.676H252.72V269.836H253.44V270.916C253.56 270.796 253.8 270.676 254.16 270.676 254.88 270.676 255.36 271.276 255.36 272.236ZM254.04 271.396C253.92 271.396 253.8 271.516 253.68 271.636 253.56 271.636 253.44 271.756 253.44 271.876V272.716C253.44 272.836 253.68 273.076 254.04 273.076 254.16 273.076 254.52 272.956 254.64 272.716V272.596 271.996 271.876C254.52 271.516 254.16 271.396 254.04 271.396Z" fill-rule="evenodd"/><path transform="matrix(1,0,0,-1,0,595.276)" d="M257.04 273.676H257.76V272.956H257.04V271.756C257.04 271.636 257.04 271.516 257.04 271.516 257.16 271.396 257.16 271.396 257.28 271.396 257.28 271.396 257.4 271.396 257.52 271.396 257.52 271.396 257.64 271.396 257.64 271.516L257.76 270.796C257.64 270.676 257.4 270.676 257.04 270.676 256.8 270.676 256.56 270.796 256.44 270.916 256.32 271.036 256.2 271.156 256.2 271.396V272.956H255.72V273.676H256.2V274.516L257.04 274.756V273.676Z" fill-rule="evenodd"/><path transform="matrix(1,0,0,-1,0,595.276)" d="M226.32 267.196C226.32 266.596 226.44 266.116 226.8 265.636 227.04 265.276 227.52 265.156 228 265.156 228.24 265.156 228.36 265.156 228.6 265.156 228.72 265.276 228.96 265.276 228.96 265.396V265.156H229.8V267.436H228V266.716H228.96C228.96 266.716 228.96 266.596 228.96 266.476 228.84 266.356 228.84 266.236 228.72 266.116 228.48 265.996 228.24 265.876 228 265.996 227.52 265.996 227.16 266.476 227.16 267.196 227.16 267.556 227.16 267.916 227.4 268.156 227.52 268.396 227.76 268.516 228 268.516 228.24 268.516 228.48 268.396 228.72 268.276 228.84 268.156 228.96 268.036 228.96 267.916L229.68 268.276C229.44 268.996 228.72 269.356 228 269.356 226.92 269.356 226.32 268.516 226.32 267.196Z" fill-rule="evenodd"/><path transform="matrix(1,0,0,-1,0,595.276)" d="M233.16 266.356C233.16 267.556 232.8 268.156 231.84 268.156 231.12 268.156 230.64 267.676 230.64 266.716 230.64 266.236 230.64 265.876 230.88 265.636 231.24 265.276 231.6 265.156 231.96 265.156 232.44 265.036 232.92 265.276 233.04 265.636L232.68 266.116C232.56 265.876 232.32 265.876 231.96 265.876 231.84 265.756 231.72 265.876 231.6 265.996 231.48 265.996 231.48 266.116 231.48 266.116 231.36 266.236 231.36 266.356 231.36 266.356H233.16ZM231.36 266.956V266.956C231.36 267.076 231.48 267.196 231.6 267.316 231.6 267.436 231.84 267.436 231.96 267.436 232.08 267.436 232.32 267.316 232.44 267.076V266.956H231.36Z" fill-rule="evenodd"/><path transform="matrix(1,0,0,-1,0,595.276)" d="M236.4 265.276V267.196C236.28 267.916 235.92 268.156 235.2 268.156 235.08 268.156 234.96 268.156 234.84 268.156 234.72 268.036 234.72 268.036 234.6 267.916V268.156H233.76V265.276H234.6V266.956C234.6 267.316 234.84 267.436 235.08 267.436 235.44 267.436 235.56 267.316 235.56 266.956V266.836 265.276H236.4Z" fill-rule="evenodd"/><path transform="matrix(1,0,0,-1,0,595.276)" d="M239.64 266.356C239.64 267.556 239.16 268.156 238.32 268.156 237.48 268.156 237.12 267.676 237 266.716 237 266.236 237.12 265.876 237.36 265.636 237.6 265.276 238.08 265.156 238.44 265.156 238.92 265.036 239.4 265.276 239.52 265.636L239.04 266.116C238.92 265.876 238.68 265.876 238.44 265.876 238.32 265.756 238.2 265.876 238.08 265.996 237.96 265.996 237.96 266.116 237.84 266.116 237.84 266.236 237.84 266.356 237.84 266.356H239.64ZM237.84 266.956V266.956C237.84 267.076 237.84 267.196 237.96 267.316 238.08 267.436 238.2 267.436 238.32 267.436 238.56 267.436 238.8 267.316 238.92 267.076V266.956H237.84Z" fill-rule="evenodd"/><path transform="matrix(1,0,0,-1,0,595.276)" d="M240.24 265.276V268.156H240.96V267.796C241.08 267.916 241.2 268.036 241.32 268.156 241.44 268.156 241.68 268.156 241.92 268.156V267.436C241.68 267.316 241.44 267.316 241.32 267.196 241.08 267.196 241.08 267.076 241.08 266.956V265.276H240.24Z" fill-rule="evenodd"/><path transform="matrix(1,0,0,-1,0,595.276)" d="M245.04 265.756 244.92 265.156C244.68 265.156 244.56 265.156 244.44 265.156 244.2 265.276 244.2 265.276 244.2 265.396 244.08 265.276 243.72 265.156 243.48 265.156 243.12 265.156 242.76 265.156 242.64 265.396 242.4 265.516 242.28 265.876 242.28 266.116 242.28 266.716 242.88 267.076 243.96 267.076V267.196C243.96 267.316 243.96 267.316 243.84 267.436 243.84 267.436 243.72 267.436 243.6 267.436 243.48 267.436 243.24 267.436 243.12 267.436 243 267.316 242.88 267.316 242.76 267.196L242.4 267.796C242.64 268.036 243.12 268.156 243.6 268.156 243.96 268.156 244.2 268.156 244.44 268.036 244.68 267.916 244.8 267.676 244.8 267.316V265.876C244.8 265.756 244.92 265.756 245.04 265.756ZM243.12 266.116C243.12 265.996 243.12 265.876 243.24 265.876 243.36 265.756 243.48 265.756 243.6 265.756 243.84 265.756 243.96 265.876 243.96 265.996V266.476C243.72 266.476 243.48 266.476 243.36 266.356 243.24 266.356 243.12 266.236 243.12 266.116Z" fill-rule="evenodd"/><path transform="matrix(1,0,0,-1,0,595.276)" d="M246.24 269.116V266.116 265.996C246.24 265.876 246.36 265.876 246.72 265.996L246.84 265.276H246.72C246.72 265.156 246.72 265.156 246.6 265.156 246.48 265.156 246.36 265.156 246.24 265.156 245.88 265.156 245.52 265.396 245.4 265.636V265.756 265.876 269.116H246.24Z" fill-rule="evenodd"/><path transform="matrix(1,0,0,-1,0,595.276)" d="M249.72 267.556V269.116H248.88V265.276H249.72V266.836H250.56 251.28V265.276H252.12V269.116H251.28V267.556H250.56Z" fill-rule="evenodd"/><path transform="matrix(1,0,0,-1,0,595.276)" d="M255.72 266.596C255.72 267.676 255.24 268.156 254.4 268.156 253.92 268.156 253.56 268.036 253.32 267.796 253.08 267.556 252.96 267.076 252.96 266.596 252.96 265.636 253.44 265.156 254.4 265.156 254.76 265.156 255.12 265.276 255.36 265.516 255.6 265.756 255.72 266.116 255.72 266.596ZM254.88 266.596C254.88 266.116 254.76 265.876 254.4 265.876 254.04 265.876 253.8 266.116 253.8 266.596 253.8 266.836 253.8 267.076 253.92 267.196 254.04 267.316 254.16 267.436 254.4 267.436 254.76 267.436 254.88 267.076 254.88 266.596Z" fill-rule="evenodd"/><path transform="matrix(1,0,0,-1,0,595.276)" d="M256.92 269.116V266.116 265.996C257.04 265.876 257.16 265.876 257.4 265.996L257.52 265.276C257.52 265.276 257.52 265.156 257.4 265.156 257.28 265.156 257.04 265.156 256.92 265.156 256.56 265.156 256.2 265.396 256.2 265.636V265.756 265.876 269.116H256.92Z" fill-rule="evenodd"/><path transform="matrix(1,0,0,-1,0,595.276)" d="M258.84 265.276V268.036H258.12V265.276Z" fill-rule="evenodd"/><path transform="matrix(1,0,0,-1,0,595.276)" d="M258.84 268.756C258.84 268.996 258.72 269.236 258.48 269.236 258.24 269.236 258 268.996 258 268.756 258 268.516 258.24 268.276 258.48 268.276 258.72 268.276 258.84 268.516 258.84 268.756Z" fill-rule="evenodd"/><path transform="matrix(1,0,0,-1,0,595.276)" d="M261.48 267.916V269.116H262.2V265.156H261.36V265.276C261.24 265.156 261 265.156 260.76 265.156 260.04 265.036 259.56 265.516 259.44 266.476V266.596 266.836 266.956C259.56 267.676 260.04 268.156 260.64 268.156 260.88 268.156 261.12 268.036 261.48 267.916ZM261.36 266.116V266.836C261.36 266.956 261.36 267.076 261.36 267.076V267.196H261.24C261.12 267.316 261 267.436 260.88 267.436 260.4 267.436 260.16 267.076 260.16 266.596 260.16 266.116 260.4 265.756 260.88 265.756 261.12 265.756 261.24 265.996 261.36 266.116Z" fill-rule="evenodd"/><path transform="matrix(1,0,0,-1,0,595.276)" d="M265.56 265.756 265.32 265.156C265.08 265.156 264.96 265.156 264.84 265.156 264.72 265.276 264.6 265.276 264.6 265.396 264.48 265.276 264.12 265.156 263.88 265.156 263.52 265.156 263.28 265.156 263.04 265.396 262.8 265.516 262.8 265.876 262.8 266.116 262.8 266.716 263.28 267.076 264.36 267.076V267.196C264.36 267.316 264.36 267.316 264.36 267.436 264.24 267.436 264.24 267.436 264.12 267.436 263.88 267.436 263.76 267.436 263.64 267.436 263.4 267.316 263.28 267.316 263.16 267.196L262.8 267.796C263.16 268.036 263.52 268.156 264 268.156 264.36 268.156 264.72 268.156 264.84 268.036 265.08 267.916 265.2 267.676 265.2 267.316V265.876C265.2 265.756 265.32 265.756 265.56 265.756ZM263.52 266.116C263.52 265.996 263.64 265.876 263.64 265.876 263.76 265.756 263.88 265.756 264 265.756 264.24 265.756 264.36 265.876 264.36 265.996V266.476C264.12 266.476 263.88 266.476 263.76 266.356 263.64 266.356 263.52 266.236 263.52 266.116Z" fill-rule="evenodd"/><path transform="matrix(1,0,0,-1,0,595.276)" d="M268.44 268.036H267.6L267.12 266.356 266.52 268.036H265.8L266.64 265.516C266.64 265.396 266.64 265.276 266.64 265.276V265.156C266.64 265.036 266.64 265.036 266.52 265.036 266.4 265.036 266.4 265.036 266.28 265.036 266.16 265.036 266.16 265.036 266.04 265.036L265.92 264.436C266.28 264.316 266.52 264.316 266.88 264.196 267 264.316 267 264.316 267.12 264.436 267.24 264.556 267.36 264.676 267.36 264.796L268.44 268.036Z" fill-rule="evenodd"/><path transform="matrix(1,0,0,-1,0,595.276)" d="M271.2 266.116C271.2 266.596 270.96 266.956 270.24 267.076 270.12 267.076 269.88 267.076 269.88 267.196H269.76C269.76 267.196 269.64 267.316 269.76 267.316 269.64 267.436 269.88 267.556 270.12 267.556 270.24 267.556 270.36 267.556 270.48 267.436 270.6 267.436 270.6 267.316 270.72 267.196L271.2 267.796C270.96 268.036 270.6 268.156 270.12 268.276 269.4 268.156 268.92 267.916 268.92 267.196 268.92 266.716 269.28 266.476 269.76 266.356 270.12 266.356 270.36 266.236 270.36 266.116 270.36 265.996 270.36 265.876 270.36 265.876 270.24 265.876 270.12 265.876 270.12 265.876 269.88 265.876 269.76 265.876 269.64 265.876 269.52 265.996 269.4 266.116 269.28 266.236L268.68 265.636C269.04 265.276 269.52 265.156 270 265.156 270.72 265.156 271.2 265.516 271.2 266.116Z" fill-rule="evenodd"/><path transform="matrix(1,0,0,-1,0,595.276)" d="M228.48 261.196 228 261.316 227.88 260.716 227.52 260.116 227.16 259.636 226.56 259.156 227.16 258.796 227.64 259.276 228.12 259.756 228.36 260.356 228.6 260.956 228.72 261.076H228.84L228.72 261.196Z" fill-rule="evenodd"/><path transform="matrix(1,0,0,-1,0,595.276)" d="M229.44 259.756 229.08 259.996 228.48 258.556 228 257.356 227.04 257.236 227.16 256.636 227.28 256.516V256.396H227.4L227.52 256.636 231.12 256.996 231.48 256.396 232.08 256.756 231.72 257.356 231.48 257.836 231 258.316 230.64 258.796 230.16 258.556 230.88 257.476 228.6 257.356 229.56 259.516H229.68L229.8 259.636 229.68 259.756Z" fill-rule="evenodd"/><path transform="matrix(1,0,0,-1,0,595.276)" d="M228.72 261.916V261.436H230.04L230.16 260.716 230.52 260.116 231.12 259.516 231.96 258.796 232.56 259.276 232.08 259.516 231.72 259.876 231.36 260.116 231.12 260.476 230.88 260.836 230.76 261.196 230.64 261.556V261.916Z" fill-rule="evenodd"/><path transform="matrix(1,0,0,-1,0,595.276)" d="M234.84 262.036V260.356H239.64V262.036H234.84ZM235.44 260.836V261.556H236.28V260.836H235.44ZM236.76 260.836V261.556H237.72V260.836H236.76ZM238.2 260.836V261.556H239.16V260.836H238.2Z" fill-rule="evenodd"/><path transform="matrix(1,0,0,-1,0,595.276)" d="M235.08 259.756 235.32 259.276 237 259.516V256.396H237.6V259.516L239.04 259.756H239.16 239.28L239.16 259.876 238.8 260.236 236.88 259.876Z" fill-rule="evenodd"/><path transform="matrix(1,0,0,-1,0,595.276)" d="M235.8 259.156 235.56 258.676 235.32 258.196 235.08 257.836 234.72 257.596 234.36 257.356 234.84 256.996 235.32 257.476 235.68 257.836 236.4 256.996 236.88 257.356 236.4 257.836 236.04 258.436 236.16 258.796H236.28L236.4 258.916 236.28 259.036Z" fill-rule="evenodd"/><path transform="matrix(1,0,0,-1,0,595.276)" d="M238.68 259.156 238.44 258.676 238.32 258.196 238.08 257.836 237.96 257.596 237.72 257.356 238.08 256.996 238.44 257.476 238.8 257.956 239.04 257.476 239.52 256.996 240 257.356 239.64 257.596 239.4 257.836 239.16 258.196 239.04 258.556 239.16 258.916 239.28 259.036 239.16 259.156Z" fill-rule="evenodd"/><path transform="matrix(1,0,0,-1,0,595.276)" d="M243.6 261.916 243.24 262.156 243 261.436 242.64 260.836 242.4 260.116 241.92 259.516 242.4 259.156 242.76 259.756V256.396H243.36V260.836L243.6 261.676H243.72L243.84 261.796H243.72Z" fill-rule="evenodd"/><path transform="matrix(1,0,0,-1,0,595.276)" d="M243.84 261.796V256.396H244.44V257.476H245.4V257.956H244.44V258.676H245.4V259.156H244.44V259.876H245.64V261.796H243.84ZM244.44 260.356V261.316H245.04V260.356H244.44Z" fill-rule="evenodd"/><path transform="matrix(1,0,0,-1,0,595.276)" d="M246 261.796V261.316H247.08V260.356H246V259.876H247.68V261.796H247.56Z" fill-rule="evenodd"/><path transform="matrix(1,0,0,-1,0,595.276)" d="M245.76 259.396 245.64 258.916H247.08L246.96 258.436 246.72 257.836 246.48 258.196 246.24 258.796H245.88L246 257.956 246.36 257.476 246 257.236 245.28 256.876 245.64 256.396 246.24 256.756 246.72 257.116 247.2 256.756 247.56 256.516 247.92 256.876 247.44 257.116 247.08 257.476 247.44 258.316 247.8 259.276 247.44 259.516 247.2 259.396Z" fill-rule="evenodd"/><path transform="matrix(1,0,0,-1,0,595.276)" d="M249.84 261.316V260.836H250.56V258.316H249.84V257.836H253.08V258.316H252.48V260.836H252.96V261.316H252.48V261.796L252.6 261.916V262.036H252.48L252 262.156V261.316H251.04V261.796L251.16 261.916V262.036L250.92 262.156H250.56V261.316H249.84ZM251.04 259.276V259.876H252V259.276H251.04ZM251.04 258.316V258.916H252V258.316H251.04ZM251.04 260.236V260.836H252V260.236H251.04Z" fill-rule="evenodd"/><path transform="matrix(1,0,0,-1,0,595.276)" d="M249.96 256.756 250.44 256.396 250.92 256.876 251.28 257.476 250.68 257.836 250.32 257.116Z" fill-rule="evenodd"/><path transform="matrix(1,0,0,-1,0,595.276)" d="M253.32 262.036V259.516 258.556L253.2 257.836 253.08 257.236 252.72 256.756 253.32 256.396 253.56 256.876 253.68 257.356 253.8 257.836V258.436H254.76V257.236 257.116L254.4 256.996H254.04L254.28 256.396 254.88 256.516 255.12 256.636 255.24 256.756 255.36 256.996V257.236 262.036H253.32ZM253.92 258.916V259.996H254.76V258.916H253.92ZM253.92 260.476V261.556H254.76V260.476H253.92Z" fill-rule="evenodd"/><path transform="matrix(1,0,0,-1,0,595.276)" d="M252 257.836 251.64 257.476 252 256.996 252.24 256.516 252.72 256.876 252.48 257.356Z" fill-rule="evenodd"/><path transform="matrix(1,0,0,-1,0,595.276)" d="M257.28 259.636 257.76 259.156 258.12 259.756V256.396H258.72V260.716L259.2 261.796V261.316H259.8L259.68 260.476 259.44 259.756 259.2 259.156 258.84 258.676 259.32 258.196 259.68 258.676 260.28 258.316 260.04 257.836 259.68 257.596 259.32 257.236 258.84 256.996 259.32 256.636 259.8 256.876 260.16 257.116 260.52 257.476 260.76 257.956 261 258.436 261.12 259.036 261.24 259.636V260.356H260.16L260.28 261.316H261.24V261.796H259.32V261.916H259.2L258.72 262.156 258.36 261.436 258.12 260.836 257.76 260.116 257.28 259.636ZM260.04 259.876H260.64L260.52 258.796 259.8 259.156 260.04 259.876Z" fill-rule="evenodd"/><path transform="matrix(1,0,0,-1,0,595.276)" d="M261.6 261.316V257.716H262.08V261.076L262.2 261.196 262.08 261.316Z" fill-rule="evenodd"/><path transform="matrix(1,0,0,-1,0,595.276)" d="M262.56 262.156V257.476 257.236 257.116L262.44 256.996H262.2 261.72L261.96 256.396 262.68 256.516 262.92 256.636 263.04 256.756 263.16 256.996V257.236 261.796L263.28 261.916V262.036H263.16Z" fill-rule="evenodd"/><path transform="matrix(1,0,0,-1,0,595.276)" d="M266.88 262.036 266.52 262.156 266.4 261.316 266.16 260.596 265.68 259.876 265.2 259.276 265.68 258.796 266.28 259.636 266.64 260.476H267.6L267.48 259.756 267.24 259.036 266.64 259.516 266.16 259.156 266.64 258.796 267 258.556 266.76 258.076 266.4 257.596 265.8 257.356 265.2 256.996 265.68 256.516 266.16 256.636 266.64 256.996 267 257.356 267.36 257.836 267.72 258.436 267.96 259.156 268.2 259.876 268.44 260.836 268.08 261.196 267.84 261.076H266.88L267.12 261.796 267.24 261.916 267.12 262.036Z" fill-rule="evenodd"/><path transform="matrix(1,0,0,-1,0,595.276)" d="M269.52 262.156H269.16V259.756L268.8 260.116 268.44 259.876 268.8 259.276 269.16 258.916V256.396H269.88V258.436L270.6 257.956 271.08 258.556 270.36 258.796 269.88 259.276V261.796L270 261.916V262.036H269.76Z" fill-rule="evenodd"/></g></svg>