<?xml version='1.0' encoding='UTF-8'?>
<svg width="107.06" height="258.26" viewBox="229.88 6.35 107.06 258.26" xmlns="http://www.w3.org/2000/svg" xmlns:xlink="http://www.w3.org/1999/xlink" xmlns:inkscape="http://www.inkscape.org/namespaces/inkscape" version="1.1"><g transform="scale(10.0) translate(-329.439, -181.872)"><defs><clipPath id="clip_2"><path transform="matrix(1,0,0,-1,0,595.276)" d="M74.4 .196H767.4V595.276H74.4Z"/></clipPath></defs><path transform="matrix(1,0,0,-1,0,595.276)" d="M353.04 411.796V387.796 387.676C353.16 387.676 353.16 387.676 353.16 387.556H353.28 353.4 362.16 362.28 362.4C362.4 387.676 362.52 387.676 362.52 387.676V387.796 411.796C362.52 411.916 362.52 412.036 362.4 412.036 362.4 412.156 362.28 412.156 362.16 412.156H353.4C353.28 412.156 353.28 412.156 353.16 412.036 353.04 412.036 353.04 411.916 353.04 411.796Z" fill="#ffffff" fill-rule="evenodd"/><path transform="matrix(1,0,0,-1,0,595.276)" d="M352.68 387.796V411.796C352.68 412.036 352.8 412.156 352.92 412.276 353.04 412.396 353.28 412.516 353.4 412.516H362.16C362.4 412.516 362.52 412.396 362.64 412.276 362.76 412.156 362.88 412.036 362.88 411.796V387.796C362.88 387.676 362.76 387.556 362.64 387.316 362.52 387.196 362.4 387.196 362.16 387.196H353.4C353.28 387.196 353.04 387.196 352.92 387.316 352.8 387.556 352.68 387.676 352.68 387.796ZM357.96 412.156V407.956H362.52V411.796C362.52 411.916 362.52 412.036 362.4 412.036 362.4 412.156 362.28 412.156 362.16 412.156H357.96ZM357.72 412.156H353.4C353.28 412.156 353.28 412.156 353.16 412.036 353.04 412.036 353.04 411.916 353.04 411.796V407.956H357.72V412.156ZM357.72 407.716H353.04V403.876H357.72V407.716ZM357.96 407.716V403.876H362.52V407.716H357.96ZM357.96 403.636V399.796H362.52V403.636H357.96ZM357.72 403.636H353.04V399.796H357.72V403.636ZM353.04 396.076H357.72V399.556H353.04V396.076ZM357.96 396.076H362.52V399.556H357.96V396.076ZM357.96 391.996H362.52V395.836H357.96V391.996ZM353.04 391.996H357.72V395.836H353.04V391.996ZM357.72 387.556V391.756H353.04V387.796C353.04 387.796 353.04 387.676 353.16 387.556H353.28 353.4 357.72ZM362.52 387.796V391.756H357.96V387.556H362.16C362.28 387.556 362.4 387.556 362.4 387.556 362.52 387.676 362.52 387.796 362.52 387.796Z" fill-rule="evenodd"/></g></svg>