<?xml version='1.0' encoding='UTF-8'?>
<svg width="538.56" height="246.96" viewBox="13.65 13.20 538.56 246.96" xmlns="http://www.w3.org/2000/svg" xmlns:xlink="http://www.w3.org/1999/xlink" xmlns:inkscape="http://www.inkscape.org/namespaces/inkscape" version="1.1"><g transform="scale(10.0) translate(-547.707, -47.232)"><defs><clipPath id="clip_2"><path transform="matrix(1,0,0,-1,0,595.276)" d="M74.4 .196H767.4V595.276H74.4Z"/></clipPath></defs><path transform="matrix(1,0,0,-1,0,595.276)" d="M600.96 546.196H551.04C550.92 546.196 550.68 546.196 550.56 546.196 550.32 546.076 550.2 545.956 550.08 545.836 549.84 545.716 549.84 545.476 549.72 545.356 549.6 545.116 549.6 544.996 549.6 544.756V524.116C549.6 523.756 549.72 523.276 550.08 523.036 550.32 522.796 550.68 522.556 551.04 522.556H600.96C601.2 522.556 601.68 522.796 601.92 523.036 602.04 523.156 602.16 523.396 602.28 523.516 602.28 523.756 602.4 523.876 602.4 524.116V544.756C602.4 545.116 602.28 545.476 601.92 545.836 601.8 545.956 601.68 546.076 601.44 546.196 601.2 546.196 601.08 546.196 600.96 546.196ZM600.96 545.476C601.08 545.476 601.32 545.476 601.44 545.356 601.56 545.116 601.68 544.996 601.68 544.756V524.116C601.68 523.996 601.56 523.876 601.56 523.756 601.56 523.756 601.44 523.636 601.44 523.516 601.32 523.396 601.08 523.276 600.96 523.276H551.04C550.92 523.276 550.68 523.396 550.56 523.516 550.44 523.756 550.32 523.876 550.32 524.116V544.756C550.32 544.996 550.44 545.116 550.56 545.356 550.68 545.476 550.92 545.476 551.04 545.476H600.96Z" fill-rule="evenodd"/><path transform="matrix(1,0,0,-1,0,595.276)" d="M551.04 545.476H600.96C601.08 545.476 601.32 545.476 601.44 545.356 601.56 545.116 601.68 544.996 601.68 544.756V524.116C601.68 523.876 601.56 523.756 601.44 523.516 601.32 523.396 601.08 523.276 600.96 523.276H551.04C550.92 523.276 550.92 523.396 550.8 523.396 550.68 523.396 550.68 523.516 550.56 523.516 550.44 523.636 550.44 523.756 550.44 523.756 550.32 523.876 550.32 523.996 550.32 524.116V544.756C550.32 544.996 550.44 545.116 550.56 545.356 550.68 545.476 550.92 545.476 551.04 545.476Z" fill="#ffffff" fill-rule="evenodd"/><path transform="matrix(1,0,0,-1,0,595.276)" d="M562.08 537.796V534.796 534.676C562.08 534.676 562.2 534.676 562.56 534.676L562.68 533.956C562.68 533.956 562.56 533.956 562.44 533.956 562.32 533.956 562.2 533.956 562.08 533.956 561.72 533.956 561.36 534.076 561.36 534.436 561.24 534.436 561.24 534.556 561.24 534.556V537.796H562.08Z" fill-rule="evenodd"/><path transform="matrix(1,0,0,-1,0,595.276)" d="M564 533.956V536.716H563.28V533.956Z" fill-rule="evenodd"/><path transform="matrix(1,0,0,-1,0,595.276)" d="M564 537.436C564 537.676 563.88 537.916 563.64 537.916 563.4 537.916 563.16 537.676 563.16 537.436 563.16 537.196 563.4 537.076 563.64 537.076 563.88 537.076 564 537.196 564 537.436Z" fill-rule="evenodd"/><path transform="matrix(1,0,0,-1,0,595.276)" d="M567.24 533.836V536.716H566.4V536.596C566.4 536.716 566.16 536.836 565.8 536.836 564.96 536.836 564.6 536.356 564.6 535.396 564.72 534.556 565.08 534.076 565.8 534.076 565.92 534.076 566.04 534.076 566.16 534.196 566.28 534.196 566.4 534.196 566.4 534.316V534.076C566.4 533.836 566.28 533.716 566.04 533.716 565.92 533.716 565.68 533.716 565.56 533.716 565.44 533.836 565.2 533.956 564.96 533.956L564.6 533.356C564.96 533.116 565.44 532.996 565.92 532.996 566.64 532.996 567.12 533.236 567.24 533.836ZM566.4 535.756V535.156C566.4 535.036 566.28 534.916 566.28 534.916 566.16 534.796 566.04 534.796 565.92 534.796 565.56 534.796 565.44 535.036 565.32 535.396 565.44 535.876 565.56 536.116 565.92 536.116 566.16 536.116 566.4 535.996 566.4 535.756Z" fill-rule="evenodd"/><path transform="matrix(1,0,0,-1,0,595.276)" d="M568.92 536.596C569.28 536.956 569.64 536.956 570 536.716 570.24 536.716 570.36 536.596 570.48 536.356 570.6 536.236 570.6 535.996 570.6 535.756V533.956H569.88V535.636C569.88 535.756 569.88 535.876 569.76 535.996 569.64 536.116 569.52 536.116 569.4 536.116 569.28 536.116 569.16 536.116 569.04 535.996 568.92 535.876 568.92 535.756 568.92 535.636V533.956H568.2V537.796H568.92V536.596Z" fill-rule="evenodd"/><path transform="matrix(1,0,0,-1,0,595.276)" d="M572.64 536.716H573.36V536.116H572.64V534.916C572.64 534.796 572.64 534.676 572.76 534.676 572.76 534.556 572.88 534.556 573 534.556H573.12C573.24 534.556 573.24 534.556 573.36 534.676L573.48 533.956C573.36 533.956 573.12 533.836 572.64 533.836 572.4 533.836 572.28 533.956 572.16 534.076 572.04 534.196 571.92 534.316 571.92 534.556V536.116H571.44V536.716H571.92V537.676L572.64 537.796V536.716Z" fill-rule="evenodd"/><path transform="matrix(1,0,0,-1,0,595.276)" d="M576.96 533.836C577.56 533.836 578.04 534.436 578.04 535.276 578.04 535.756 577.92 536.116 577.68 536.476 577.44 536.716 577.2 536.836 576.84 536.836 576.6 536.836 576.36 536.716 576.24 536.596V537.796H575.64V533.956H576.24V534.076C576.48 533.956 576.72 533.836 576.96 533.836ZM576.84 534.556C576.48 534.556 576.36 534.676 576.24 535.036V535.756C576.36 535.876 576.36 535.996 576.48 536.116 576.6 536.116 576.72 536.116 576.84 536.116 577.2 536.116 577.32 535.876 577.32 535.276 577.32 534.796 577.08 534.556 576.84 534.556Z" fill-rule="evenodd"/><path transform="matrix(1,0,0,-1,0,595.276)" d="M580.56 536.716H581.28V533.956H580.44V534.076C580.44 534.076 580.44 533.956 580.2 533.956 580.08 533.836 579.96 533.836 579.84 533.836 579.48 533.836 579.24 533.956 579 534.076 578.88 534.316 578.76 534.556 578.76 534.796V536.716H579.48V535.036C579.48 534.916 579.6 534.796 579.6 534.796 579.72 534.676 579.84 534.556 579.96 534.556 580.08 534.556 580.2 534.676 580.32 534.796 580.44 534.916 580.56 535.036 580.56 535.156V536.716Z" fill-rule="evenodd"/><path transform="matrix(1,0,0,-1,0,595.276)" d="M584.4 534.796C584.52 535.396 584.16 535.756 583.56 535.756 583.32 535.756 583.2 535.876 583.08 535.876H582.96V535.996C582.96 536.116 583.08 536.236 583.32 536.236 583.44 536.236 583.56 536.236 583.68 536.116 583.8 536.116 583.92 535.996 583.92 535.876L584.4 536.476C584.28 536.716 583.92 536.956 583.44 536.956 582.6 536.956 582.24 536.596 582.24 535.876 582.24 535.396 582.48 535.156 582.96 535.156 583.44 535.036 583.68 535.036 583.68 534.796 583.68 534.796 583.68 534.676 583.56 534.676 583.56 534.556 583.44 534.556 583.32 534.556 583.2 534.556 583.08 534.556 582.96 534.676 582.72 534.796 582.6 534.796 582.48 534.916L582 534.436C582.36 534.076 582.72 533.836 583.32 533.836 583.68 533.836 583.92 533.956 584.16 534.076 584.4 534.316 584.4 534.556 584.4 534.796Z" fill-rule="evenodd"/><path transform="matrix(1,0,0,-1,0,595.276)" d="M587.52 535.156C587.64 536.236 587.16 536.836 586.32 536.836 585.48 536.836 585.12 536.356 585 535.396 585 535.036 585.12 534.676 585.36 534.436 585.6 534.076 586.08 533.836 586.44 533.836 586.92 533.836 587.4 534.076 587.52 534.436L587.04 534.796C586.92 534.676 586.68 534.556 586.44 534.556 586.32 534.556 586.08 534.556 585.96 534.676 585.96 534.796 585.96 534.796 585.84 534.916 585.84 534.916 585.84 535.036 585.84 535.156H587.52ZM585.84 535.636V535.756C585.84 535.756 585.84 535.996 585.96 535.996 586.08 536.116 586.2 536.236 586.32 536.236 586.56 536.236 586.8 535.996 586.8 535.756V535.636H585.84Z" fill-rule="evenodd"/><path transform="matrix(1,0,0,-1,0,595.276)" d="M590.52 534.796C590.64 535.396 590.28 535.756 589.68 535.756 589.44 535.756 589.32 535.876 589.2 535.876H589.08V535.996C589.08 536.116 589.2 536.236 589.44 536.236 589.56 536.236 589.68 536.236 589.8 536.116 589.92 536.116 590.04 535.996 590.04 535.876L590.52 536.476C590.28 536.716 590.04 536.956 589.56 536.956 588.72 536.956 588.36 536.596 588.36 535.876 588.36 535.396 588.6 535.156 589.08 535.156 589.56 535.036 589.8 535.036 589.8 534.796L589.68 534.676C589.68 534.556 589.56 534.556 589.44 534.556 589.32 534.556 589.2 534.556 588.96 534.676 588.84 534.796 588.72 534.796 588.6 534.916L588.12 534.436C588.48 534.076 588.84 533.836 589.44 533.836 590.16 533.836 590.52 534.196 590.52 534.796Z" fill-rule="evenodd"/><path transform="matrix(1,0,0,-1,0,595.276)" d="M567.84 541.516H569.4V542.356H567.84V543.196H569.64V544.036H566.88V539.956H569.88V540.796H567.84Z" fill-rule="evenodd"/><path transform="matrix(1,0,0,-1,0,595.276)" d="M572.28 542.836H573.12L572.28 541.396 573.24 539.956H572.28L571.8 540.796 571.32 539.956H570.36L571.32 541.396 570.48 542.836H571.32L571.8 541.996Z" fill-rule="evenodd"/><path transform="matrix(1,0,0,-1,0,595.276)" d="M575.04 542.956C575.4 542.956 575.64 542.956 575.88 542.716 576.12 542.596 576.24 542.356 576.36 542.116L575.64 541.756C575.52 542.116 575.4 542.236 575.04 542.236 574.68 542.236 574.44 541.996 574.44 541.516V541.396C574.44 541.276 574.44 541.276 574.44 541.156 574.56 540.796 574.8 540.556 575.04 540.556 575.28 540.556 575.4 540.556 575.52 540.676 575.52 540.676 575.64 540.796 575.64 541.036L576.36 540.796C576.24 540.076 575.76 539.716 575.16 539.836 574.2 539.836 573.6 540.316 573.6 541.396 573.72 542.476 574.2 542.956 575.04 542.956Z" fill-rule="evenodd"/><path transform="matrix(1,0,0,-1,0,595.276)" d="M579.48 541.156C579.48 542.356 579 542.956 578.04 542.956 577.32 542.956 576.84 542.476 576.72 541.396 576.72 540.916 576.84 540.556 577.08 540.316 577.44 539.956 577.8 539.836 578.28 539.836 578.76 539.716 579.24 539.956 579.36 540.316L578.88 540.796C578.76 540.676 578.52 540.556 578.28 540.556 578.04 540.556 577.92 540.556 577.8 540.676 577.68 540.676 577.68 540.796 577.68 540.916 577.56 540.916 577.56 541.036 577.56 541.156H579.48ZM577.56 541.756V541.756C577.56 541.876 577.68 541.996 577.8 542.116 577.92 542.236 578.04 542.236 578.16 542.236 578.4 542.236 578.64 541.996 578.64 541.756H577.56Z" fill-rule="evenodd"/><path transform="matrix(1,0,0,-1,0,595.276)" d="M582.96 541.396C582.96 541.876 582.84 542.236 582.6 542.596 582.36 542.836 582 542.956 581.52 542.956 581.28 542.956 580.92 542.836 580.8 542.716V542.836H580.08V538.876H580.92V540.076C580.92 539.836 581.28 539.716 581.64 539.836 582.36 539.836 582.96 540.436 582.96 541.396ZM581.52 540.556C581.4 540.556 581.16 540.556 581.04 540.676 581.04 540.796 580.92 540.796 580.92 540.916V541.036 541.876C580.92 541.996 581.16 542.236 581.4 542.236H581.52C581.64 542.236 582 542.116 582.12 541.876V541.756 541.156 541.036 540.916C582 540.676 581.64 540.556 581.52 540.556Z" fill-rule="evenodd"/><path transform="matrix(1,0,0,-1,0,595.276)" d="M584.64 542.836H585.36V542.116H584.64V540.796 540.676C584.76 540.556 584.76 540.556 584.88 540.556 585 540.556 585 540.556 585.12 540.556 585.12 540.556 585.24 540.556 585.36 540.556L585.48 539.956C585.36 539.836 585 539.716 584.64 539.716 584.4 539.716 584.16 539.836 584.04 539.956 583.92 540.076 583.8 540.316 583.8 540.556V542.116H583.32V542.836H583.8V543.796L584.64 544.036V542.836Z" fill-rule="evenodd"/><path transform="matrix(1,0,0,-1,0,595.276)" d="M554.4 527.236 555 526.876 555.6 527.956 556.08 529.156 556.2 529.276 556.08 529.396 555.96 529.516 555.48 529.756 555.24 528.916 555 528.316 554.64 527.716Z" fill-rule="evenodd"/><path transform="matrix(1,0,0,-1,0,595.276)" d="M557.4 530.956H556.92V526.276 526.156 526.036H556.8 556.68 556.2L556.44 525.436H556.8 557.16L557.4 525.556 557.52 525.796V526.156 530.716H557.64V530.836H557.52Z" fill-rule="evenodd"/><path transform="matrix(1,0,0,-1,0,595.276)" d="M559.44 526.876 560.16 527.236 559.8 527.716 559.44 528.316 559.2 528.916 558.96 529.636 558.36 529.516 558.6 528.796 558.84 528.196 559.2 527.476Z" fill-rule="evenodd"/><path transform="matrix(1,0,0,-1,0,595.276)" d="M562.2 530.716V530.236H562.8V529.396H561.96V528.916H562.68L562.44 528.436 562.08 527.956 562.44 527.596 562.8 527.956 563.04 528.196 563.16 528.556V528.916H563.88V527.716H564.36V528.916H565.2V529.396H564.36V530.236H564.84V530.716H562.2ZM563.28 529.396V530.236H563.88V529.396H563.28Z" fill-rule="evenodd"/><path transform="matrix(1,0,0,-1,0,595.276)" d="M564.48 528.076V527.356H562.56V526.876H564.48V526.156H561.96V525.676H567.6V526.156H565.08V526.756H567V527.356H565.08V527.716L565.2 527.836V527.956H565.08 564.96Z" fill-rule="evenodd"/><path transform="matrix(1,0,0,-1,0,595.276)" d="M565.56 528.436H566.04V530.476H566.16V530.596H566.04L565.92 530.716H565.56Z" fill-rule="evenodd"/><path transform="matrix(1,0,0,-1,0,595.276)" d="M566.04 528.196 566.28 527.596H566.64L566.88 527.716 567.12 527.956 567.24 528.076V528.436 530.596L567.36 530.716V530.836 530.956H567.12 566.76V528.556 528.316H566.64V528.196H566.4Z" fill-rule="evenodd"/><path transform="matrix(1,0,0,-1,0,595.276)" d="M569.64 530.716V526.156L569.76 525.916 569.88 525.676 570 525.556 570.36 525.436H573.84L574.08 525.556H574.32L574.56 525.676 574.68 525.796 574.8 526.036 574.92 526.276 575.04 526.516V526.876L574.44 526.996V526.636L574.2 526.276 573.96 526.156 573.72 526.036H570.6 570.48L570.36 526.156V526.276 526.396 528.196H573.72V527.956H574.32V530.716H569.64ZM570.36 528.796V530.236H571.68V528.796H570.36ZM572.28 528.796V530.236H573.72V528.796H572.28Z" fill-rule="evenodd"/><path transform="matrix(1,0,0,-1,0,595.276)" d="M579.96 530.956H579.48V529.156H577.08V528.556H579.48V526.396H577.44V525.796H582.24V526.396H580.08V528.556H582.6V529.156H580.08V530.716L580.32 530.836 580.2 530.956Z" fill-rule="evenodd"/><path transform="matrix(1,0,0,-1,0,595.276)" d="M584.4 528.436 584.76 528.076 585.12 528.556V525.436H585.72V529.636L586.2 530.596V530.116H586.68L586.56 529.396 586.44 528.676 586.2 528.076 585.84 527.596 586.32 527.116 586.56 527.596 587.28 527.236 586.92 526.756 586.68 526.516 586.32 526.276 585.84 526.036 586.2 525.556 586.68 525.796 587.16 526.156 587.52 526.516 587.76 526.876 588 527.356 588.12 527.956V528.556 529.276H587.16L587.28 530.116H588.24V530.596H586.32V530.716H586.2L585.72 531.076 585.48 530.356 585.12 529.636 584.76 529.036 584.4 528.436ZM587.04 528.796H587.64L587.4 527.716 586.8 528.076 587.04 528.796Z" fill-rule="evenodd"/><path transform="matrix(1,0,0,-1,0,595.276)" d="M588.48 530.236V526.636H589.08V529.996 530.116 530.236Z" fill-rule="evenodd"/><path transform="matrix(1,0,0,-1,0,595.276)" d="M589.56 530.956V526.396 526.156L589.44 526.036 589.32 525.916H589.2 588.6L588.84 525.436H589.56L589.8 525.556 589.92 525.676 590.04 525.916V526.156 530.716H590.16V530.836L590.04 530.956Z" fill-rule="evenodd"/><path transform="matrix(1,0,0,-1,0,595.276)" d="M593.76 530.956H593.4L593.16 530.236 592.92 529.516 592.56 528.796 592.08 528.196 592.56 527.716 593.16 528.556 593.52 529.396H594.48L594.24 528.676 594.12 527.956 593.4 528.436 593.04 528.076 593.4 527.716 593.88 527.476 593.52 526.996 593.16 526.636 592.68 526.276 592.08 526.036 592.56 525.436 593.04 525.676 593.4 525.916 593.88 526.276 594.24 526.756 594.48 527.356 594.72 528.076 594.96 528.796 595.2 529.756 594.84 529.996 594.6 529.876H593.76L593.88 530.596 594.12 530.716V530.836H594Z" fill-rule="evenodd"/><path transform="matrix(1,0,0,-1,0,595.276)" d="M596.28 530.956H595.92V528.556L595.56 529.036 595.2 528.676 595.56 528.196 595.92 527.836V525.436H596.52V527.356L597.36 526.876 597.84 527.476 597.12 527.716 596.52 528.076V530.716H596.76V530.836L596.52 530.956Z" fill-rule="evenodd"/></g></svg>