<?xml version='1.0' encoding='UTF-8'?>
<svg width="545.90" height="202.70" viewBox="9.98 34.25 545.90 202.70" xmlns="http://www.w3.org/2000/svg" xmlns:xlink="http://www.w3.org/1999/xlink" xmlns:inkscape="http://www.inkscape.org/namespaces/inkscape" version="1.1"><g transform="scale(10.0) translate(-547.707, -74.160)"><defs><clipPath id="clip_2"><path transform="matrix(1,0,0,-1,0,595.276)" d="M74.4 .196H767.4V595.276H74.4Z"/></clipPath></defs><path transform="matrix(1,0,0,-1,0,595.276)" d="M601.32 517.156H550.68C550.44 517.156 550.32 517.036 550.08 517.036 549.96 516.916 549.72 516.796 549.6 516.676 549.48 516.556 549.36 516.436 549.36 516.196 549.24 516.076 549.24 515.836 549.24 515.716V499.276C549.24 499.036 549.36 498.556 549.6 498.316 549.96 498.076 550.32 497.956 550.68 497.956H601.32C601.68 497.956 602.04 498.076 602.4 498.316 602.52 498.436 602.64 498.676 602.64 498.796 602.76 499.036 602.76 499.156 602.76 499.276V515.716C602.76 516.076 602.64 516.436 602.4 516.676 602.04 517.036 601.68 517.156 601.32 517.156ZM601.32 516.436C601.68 516.436 602.04 516.076 602.04 515.716V499.276C602.04 499.156 602.04 498.916 601.8 498.796 601.68 498.676 601.56 498.556 601.32 498.556H550.68C550.56 498.556 550.44 498.676 550.32 498.676 550.32 498.676 550.2 498.796 550.08 498.796 549.96 498.916 549.96 499.156 549.96 499.276V515.716C549.96 515.836 549.96 515.836 549.96 515.956 549.96 516.076 550.08 516.076 550.08 516.196 550.32 516.316 550.44 516.436 550.68 516.436H601.32Z" fill-rule="evenodd"/><path transform="matrix(1,0,0,-1,0,595.276)" d="M550.68 498.556H601.32C601.56 498.556 601.68 498.676 601.8 498.796 602.04 498.916 602.04 499.156 602.04 499.276V515.716C602.04 515.836 602.04 515.836 602.04 515.956 601.92 516.076 601.92 516.076 601.8 516.196 601.8 516.316 601.68 516.316 601.56 516.316 601.56 516.436 601.44 516.436 601.32 516.436H550.68C550.44 516.436 550.32 516.316 550.08 516.196 550.08 516.076 549.96 516.076 549.96 515.956 549.96 515.836 549.96 515.836 549.96 515.716V499.276C549.96 498.916 550.2 498.556 550.68 498.556Z" fill="#ffffff" fill-rule="evenodd"/><path transform="matrix(1,0,0,-1,0,595.276)" d="M553.2 513.076C553.2 512.956 553.32 512.836 553.44 512.836 553.56 512.716 553.68 512.716 554.04 512.716 554.88 512.476 555.36 512.116 555.36 511.396 555.36 510.556 554.76 510.196 553.8 510.196 553.44 510.196 553.08 510.196 552.72 510.316 552.48 510.436 552.24 510.676 552 510.916L552.72 511.516C553.08 511.156 553.44 510.916 553.8 510.916 554.28 510.916 554.4 511.156 554.4 511.396 554.4 511.636 554.16 511.756 553.56 511.876 552.84 511.996 552.36 512.356 552.36 513.076 552.36 513.796 552.84 514.276 553.92 514.276 554.16 514.276 554.52 514.156 554.76 514.156 555 514.036 555.24 513.796 555.36 513.676L554.88 513.076C554.52 513.316 554.16 513.436 553.92 513.436 553.44 513.436 553.32 513.316 553.2 513.076Z" fill-rule="evenodd"/><path transform="matrix(1,0,0,-1,0,595.276)" d="M556.8 514.156V511.156 511.036C556.92 510.916 557.04 510.916 557.4 511.036V510.316H557.28C557.16 510.196 556.92 510.196 556.8 510.196 556.44 510.196 556.2 510.436 556.08 510.676V510.796 510.916 514.156H556.8Z" fill-rule="evenodd"/><path transform="matrix(1,0,0,-1,0,595.276)" d="M560.52 511.636C560.52 512.596 560.04 513.196 559.2 513.196 558.72 513.196 558.36 513.076 558.12 512.836 557.88 512.596 557.76 512.116 557.76 511.636 557.76 510.676 558.24 510.196 559.2 510.196 559.56 510.196 559.92 510.316 560.16 510.556 560.4 510.796 560.52 511.276 560.52 511.636ZM559.68 511.636C559.68 511.396 559.68 511.276 559.56 511.156 559.44 511.036 559.32 510.916 559.2 510.916 558.84 510.916 558.6 511.156 558.6 511.636 558.6 511.876 558.6 512.116 558.72 512.236 558.84 512.356 558.96 512.476 559.2 512.476 559.32 512.476 559.44 512.356 559.56 512.236 559.68 512.116 559.68 511.876 559.68 511.636Z" fill-rule="evenodd"/><path transform="matrix(1,0,0,-1,0,595.276)" d="M564.24 510.316 565.08 513.076H564.24L563.76 511.396 563.4 513.076H562.92 562.56L562.08 511.396 561.72 513.076H560.88L561.6 510.316H562.56L562.92 511.876 563.4 510.316Z" fill-rule="evenodd"/><path transform="matrix(1,0,0,-1,0,595.276)" d="M567.84 513.076H568.56V512.356H567.84V511.156C567.84 511.036 567.84 511.036 567.96 510.916H568.08C568.2 510.916 568.2 510.916 568.32 510.916 568.32 510.916 568.44 510.916 568.56 510.916L568.68 510.316C568.56 510.196 568.2 510.196 567.84 510.196 567.6 510.196 567.48 510.196 567.36 510.316 567.24 510.436 567.12 510.676 567.12 510.916V512.356H566.64V513.076H567.12V513.916L567.84 514.156V513.076Z" fill-rule="evenodd"/><path transform="matrix(1,0,0,-1,0,595.276)" d="M569.16 510.316V513.076H569.88V512.836C570 512.956 570.12 513.076 570.24 513.076 570.36 513.196 570.6 513.196 570.84 513.196V512.476C570.6 512.356 570.36 512.356 570.24 512.236 570.12 512.236 570 512.116 570 511.996V510.316H569.16Z" fill-rule="evenodd"/><path transform="matrix(1,0,0,-1,0,595.276)" d="M573.84 510.796 573.72 510.196C573.48 510.196 573.36 510.196 573.24 510.316 573.12 510.316 573 510.436 573 510.436 572.88 510.316 572.52 510.196 572.28 510.196 571.56 510.196 571.2 510.556 571.2 511.156 571.2 511.756 571.68 512.116 572.76 512.116V512.236C572.76 512.356 572.76 512.356 572.76 512.476 572.64 512.476 572.64 512.476 572.52 512.476 572.28 512.476 572.16 512.476 572.04 512.476 571.8 512.356 571.68 512.356 571.56 512.236L571.2 512.716C571.56 513.076 571.92 513.196 572.4 513.196 572.76 513.196 573.12 513.196 573.24 513.076 573.48 512.836 573.6 512.716 573.6 512.356V510.916C573.6 510.796 573.72 510.796 573.84 510.796ZM572.04 511.156C572.04 511.036 572.04 510.916 572.04 510.916 572.16 510.916 572.28 510.796 572.4 510.796 572.64 510.916 572.76 510.916 572.76 511.036V511.516C572.52 511.516 572.28 511.516 572.16 511.396 572.04 511.396 572.04 511.276 572.04 511.156Z" fill-rule="evenodd"/><path transform="matrix(1,0,0,-1,0,595.276)" d="M575.4 510.316V512.356H576V513.076H575.4V513.436 513.556H575.52C575.52 513.556 575.64 513.556 575.76 513.556 575.76 513.556 575.88 513.556 576 513.556L576.12 514.156C576 514.156 575.76 514.276 575.52 514.276 575.28 514.276 575.04 514.156 574.92 514.036 574.8 513.916 574.68 513.796 574.68 513.556V513.076H574.2V512.356H574.68V510.316H575.4Z" fill-rule="evenodd"/><path transform="matrix(1,0,0,-1,0,595.276)" d="M577.56 510.316V512.356H578.16V513.076H577.56V513.436 513.556H577.68C577.8 513.556 577.8 513.556 577.92 513.556 578.04 513.556 578.04 513.556 578.16 513.556L578.28 514.156C578.16 514.156 578.04 514.276 577.8 514.276 577.44 514.276 577.2 514.156 577.08 514.036 576.96 513.916 576.84 513.796 576.84 513.556V513.076H576.36V512.356H576.84V510.316H577.56Z" fill-rule="evenodd"/><path transform="matrix(1,0,0,-1,0,595.276)" d="M579.6 510.316V513.076H578.88V510.316Z" fill-rule="evenodd"/><path transform="matrix(1,0,0,-1,0,595.276)" d="M579.72 513.796C579.72 514.036 579.48 514.276 579.24 514.276 579 514.276 578.88 514.036 578.88 513.796 578.88 513.556 579 513.316 579.24 513.316 579.48 513.316 579.72 513.556 579.72 513.796Z" fill-rule="evenodd"/><path transform="matrix(1,0,0,-1,0,595.276)" d="M581.64 513.196C581.88 513.196 582.12 513.076 582.36 512.956 582.6 512.836 582.72 512.596 582.84 512.356L582.24 511.996C582.12 512.356 581.88 512.476 581.64 512.476 581.28 512.476 581.04 512.236 581.04 511.876 581.04 511.756 581.04 511.756 581.04 511.636V511.516C581.16 511.036 581.28 510.916 581.64 510.916 581.76 510.916 581.88 510.916 582 511.036 582.12 511.036 582.12 511.156 582.24 511.396L582.84 511.036C582.72 510.436 582.24 510.196 581.64 510.196 580.8 510.196 580.32 510.676 580.2 511.636 580.32 512.716 580.8 513.196 581.64 513.196Z" fill-rule="evenodd"/><path transform="matrix(1,0,0,-1,0,595.276)" d="M586.2 512.116V512.236C586.2 512.356 586.08 512.356 586.08 512.476 586.08 512.476 585.96 512.476 585.84 512.476 585.48 512.476 585.24 512.476 585 512.236L584.64 512.716C584.76 512.956 584.88 513.076 585.12 513.076 585.36 513.196 585.48 513.196 585.84 513.196 586.56 513.196 586.92 512.956 586.92 512.356V510.916C586.92 510.916 587.04 510.916 587.04 510.796 587.04 510.796 587.16 510.796 587.28 510.796L587.04 510.196C586.8 510.196 586.68 510.196 586.56 510.316 586.44 510.316 586.32 510.436 586.32 510.436 586.32 510.316 585.96 510.196 585.6 510.196 585.24 510.196 585 510.316 584.76 510.436 584.64 510.556 584.52 510.916 584.52 511.156 584.52 511.516 584.64 511.756 584.88 511.876 585.24 511.996 585.6 512.116 586.2 512.116ZM585.36 511.156V511.036C585.36 510.916 585.36 510.916 585.48 510.916 585.48 510.916 585.6 510.796 585.84 510.796 585.96 510.916 586.08 510.916 586.2 511.036V511.516C585.84 511.516 585.72 511.516 585.6 511.396 585.36 511.396 585.36 511.276 585.36 511.156Z" fill-rule="evenodd"/><path transform="matrix(1,0,0,-1,0,595.276)" d="M588.48 512.956C588.84 513.196 589.32 513.316 589.68 513.076 589.8 512.956 589.92 512.836 590.04 512.716 590.16 512.476 590.28 512.356 590.28 512.116V510.316H589.44V511.996C589.44 512.116 589.44 512.236 589.32 512.356 589.2 512.356 589.08 512.476 588.96 512.476 588.84 512.476 588.72 512.356 588.72 512.356 588.6 512.236 588.6 512.236 588.6 512.116 588.48 512.116 588.48 511.996 588.48 511.996V510.316H587.76V514.156H588.48V512.956Z" fill-rule="evenodd"/><path transform="matrix(1,0,0,-1,0,595.276)" d="M593.52 511.396C593.52 512.596 593.16 513.196 592.2 513.196 591.48 513.196 591 512.716 591 511.756 591 511.276 591.12 510.916 591.24 510.676 591.6 510.316 591.96 510.196 592.32 510.196 592.8 510.196 593.28 510.436 593.4 510.676L593.04 511.156C592.92 511.036 592.56 510.916 592.32 510.916 592.2 510.916 592.08 510.916 591.96 511.036 591.84 511.036 591.84 511.156 591.84 511.156 591.84 511.276 591.72 511.396 591.72 511.396H593.52ZM591.72 511.996V511.996C591.72 512.116 591.84 512.236 591.96 512.356 591.96 512.476 592.2 512.476 592.32 512.476 592.44 512.476 592.68 512.356 592.8 512.116V511.996H591.72Z" fill-rule="evenodd"/><path transform="matrix(1,0,0,-1,0,595.276)" d="M595.56 512.116V512.236C595.56 512.356 595.56 512.356 595.44 512.476 595.44 512.476 595.32 512.476 595.2 512.476 594.84 512.476 594.6 512.476 594.36 512.236L594 512.716C594.12 512.956 594.36 513.076 594.48 513.076 594.72 513.196 594.96 513.196 595.2 513.196 595.92 513.196 596.28 512.956 596.4 512.356V510.916 510.796C596.52 510.796 596.52 510.796 596.64 510.796L596.4 510.196C596.28 510.196 596.04 510.196 595.92 510.316 595.8 510.316 595.8 510.436 595.68 510.436 595.68 510.316 595.32 510.196 595.08 510.196 594.36 510.196 593.88 510.556 593.88 511.156 593.88 511.756 594.48 512.116 595.56 512.116ZM594.72 511.156V511.036C594.72 510.916 594.84 510.916 594.84 510.916 594.96 510.916 595.08 510.796 595.2 510.796 595.32 510.916 595.44 510.916 595.56 511.036V511.516C595.32 511.516 595.08 511.516 594.96 511.396 594.84 511.396 594.72 511.276 594.72 511.156Z" fill-rule="evenodd"/><path transform="matrix(1,0,0,-1,0,595.276)" d="M599.04 512.956V514.156H599.76V510.196H599.04V510.436C598.92 510.196 598.68 510.196 598.32 510.196 597.72 510.076 597.12 510.556 597 511.516V511.636 511.876 511.996C597.12 512.716 597.6 513.076 598.32 513.196 598.44 513.196 598.68 513.076 599.04 512.956ZM599.04 511.276V511.876C599.04 511.996 599.04 512.116 598.92 512.116V512.236C598.8 512.356 598.56 512.476 598.44 512.476 598.08 512.356 597.84 512.116 597.72 511.636 597.84 511.156 597.96 510.916 598.44 510.796 598.68 510.916 598.92 511.036 599.04 511.276Z" fill-rule="evenodd"/><path transform="matrix(1,0,0,-1,0,595.276)" d="M554.04 503.476 554.76 503.116 555.36 504.316 555.84 505.396 555.96 505.516V505.636H555.84L555.72 505.756 555.24 505.996 555 505.276 554.76 504.556 554.4 503.956Z" fill-rule="evenodd"/><path transform="matrix(1,0,0,-1,0,595.276)" d="M557.16 507.196 556.68 507.316V502.516 502.396 502.276H556.56 556.44 555.96L556.2 501.676H556.56 556.92L557.16 501.796 557.28 502.036V502.396 506.956L557.4 507.076 557.28 507.196Z" fill-rule="evenodd"/><path transform="matrix(1,0,0,-1,0,595.276)" d="M559.32 503.116 559.92 503.476 559.56 503.956 559.2 504.556 558.96 505.156 558.72 505.876H558.24L558.36 505.036 558.6 504.436 558.96 503.716Z" fill-rule="evenodd"/><path transform="matrix(1,0,0,-1,0,595.276)" d="M562.8 505.036 562.32 505.156V504.556L562.08 503.956 561.96 503.356 561.6 502.756 562.2 502.396 562.68 503.476 562.92 504.676 563.04 504.796V504.916Z" fill-rule="evenodd"/><path transform="matrix(1,0,0,-1,0,595.276)" d="M564 507.196 563.64 506.716 564.48 506.236 565.32 505.636 565.68 505.996 564.84 506.596Z" fill-rule="evenodd"/><path transform="matrix(1,0,0,-1,0,595.276)" d="M563.88 505.756H563.52V502.516 502.156L563.64 501.916 563.88 501.796H564.24 565.8 566.04 566.16L566.4 501.916 566.52 502.156 566.64 502.396 566.76 502.636 566.88 502.876V503.236L566.28 503.476V502.996L566.04 502.636 565.8 502.396 565.56 502.276H564.48 564.36L564.24 502.396 564.12 502.516V502.756 505.276L564.24 505.396 564.36 505.516 564.24 505.636Z" fill-rule="evenodd"/><path transform="matrix(1,0,0,-1,0,595.276)" d="M567.12 503.356 567.6 503.836 566.76 504.556 566.04 505.276 565.56 504.796 566.4 504.196Z" fill-rule="evenodd"/><path transform="matrix(1,0,0,-1,0,595.276)" d="M570.72 506.236H569.4V505.756H574.92V506.236H573.48L573.84 506.956 573.96 507.076H573.84L573.72 507.196H573.24L573 506.716 572.76 506.356H571.44L571.2 506.836 570.96 507.196 570.36 507.076 570.6 506.716Z" fill-rule="evenodd"/><path transform="matrix(1,0,0,-1,0,595.276)" d="M569.76 505.276V501.676H570.24V502.756H571.56V502.516 502.396L571.44 502.276H571.32 571.2 570.84L571.08 501.676H571.44L571.8 501.796 572.04 501.916V502.276L572.16 502.636V505.276H569.76ZM570.24 503.236V503.836H571.56V503.236H570.24ZM570.36 504.316V504.796H571.56V504.316H570.36Z" fill-rule="evenodd"/><path transform="matrix(1,0,0,-1,0,595.276)" d="M572.76 505.156V502.516H573.36V504.796 504.916 505.036H573.24Z" fill-rule="evenodd"/><path transform="matrix(1,0,0,-1,0,595.276)" d="M574.08 505.396V502.516L573.96 502.396V502.276H573.84 573.72 573.12L573.36 501.676H573.84 574.2L574.44 501.916 574.56 502.156V502.516 505.036L574.68 505.156V505.276 505.396H574.56Z" fill-rule="evenodd"/><path transform="matrix(1,0,0,-1,0,595.276)" d="M576.96 506.956V506.476H579.48L579.24 505.756H577.32V501.676H577.92V501.916H581.64V501.676H582.12V505.756H579.84L580.08 506.476H582.48V506.956H576.96ZM579.12 502.516V502.996H580.2V502.516H579.12ZM579.12 504.676V505.156H580.2V504.676H579.12ZM579.12 503.476V504.076H580.2V503.476H579.12ZM577.92 502.516V505.156H578.64V502.516H577.92ZM580.8 502.516V505.156H581.64V502.516H580.8Z" fill-rule="evenodd"/><path transform="matrix(1,0,0,-1,0,595.276)" d="M584.4 504.316 585 504.196 585.12 504.916V505.876 505.996 506.116H584.52V505.156Z" fill-rule="evenodd"/><path transform="matrix(1,0,0,-1,0,595.276)" d="M586.44 506.116 585.96 505.996 586.2 504.916 586.68 505.036 586.56 505.636Z" fill-rule="evenodd"/><path transform="matrix(1,0,0,-1,0,595.276)" d="M587.16 507.196V505.516H589.8V507.196H587.16ZM587.64 506.596V506.836H589.32V506.596H587.64ZM587.64 505.996V506.236H589.32V505.996H587.64Z" fill-rule="evenodd"/><path transform="matrix(1,0,0,-1,0,595.276)" d="M586.8 505.276V503.956H590.16V505.276H586.8ZM588.24 504.436V504.796H588.6V504.436H588.24ZM587.28 504.436V504.796H587.76V504.436H587.28ZM589.2 504.436V504.796H589.56V504.436H589.2Z" fill-rule="evenodd"/><path transform="matrix(1,0,0,-1,0,595.276)" d="M586.92 503.596V503.236H587.28L587.64 502.756 588 502.516 587.28 502.156 586.44 502.036 586.8 501.556 587.64 501.796 588.48 502.156 589.08 501.796 589.8 501.556 590.28 502.036 589.68 502.156 588.96 502.396 589.56 502.876 589.92 503.356 589.68 503.716 589.56 503.596H586.92ZM587.88 503.236H589.08L588.84 502.876 588.48 502.756 588.24 502.876 587.88 503.236Z" fill-rule="evenodd"/><path transform="matrix(1,0,0,-1,0,595.276)" d="M585.36 507.316V501.556H585.96V506.956 507.196 507.316Z" fill-rule="evenodd"/><path transform="matrix(1,0,0,-1,0,595.276)" d="M592.2 507.196V503.716H592.68V504.076H594.24V503.116L593.88 503.716 593.64 503.596 593.76 503.236 593.88 502.756 594.12 502.876V502.516L594 502.396 593.76 502.276 593.4 502.156H593.16L593.28 501.676H593.52L593.76 501.796H594L594.24 502.036 594.36 502.156 594.48 502.396 594.6 502.636V502.876 503.236 504.556H593.88V504.916H594.48V505.396H593.88V505.756H594.48V506.236H593.88V506.716H594.6V507.196H592.2ZM592.68 506.236V506.716H593.4V506.236H592.68ZM592.68 505.396V505.756H593.4V505.396H592.68ZM592.68 504.556V504.916H593.4V504.556H592.68Z" fill-rule="evenodd"/><path transform="matrix(1,0,0,-1,0,595.276)" d="M593.4 503.596H593.16L593.4 502.636H593.64Z" fill-rule="evenodd"/><path transform="matrix(1,0,0,-1,0,595.276)" d="M592.92 503.476H592.56L592.68 502.996V502.516H593.04Z" fill-rule="evenodd"/><path transform="matrix(1,0,0,-1,0,595.276)" d="M592.44 503.476H592.08L591.96 502.876 591.84 502.276 592.32 502.396Z" fill-rule="evenodd"/><path transform="matrix(1,0,0,-1,0,595.276)" d="M595.92 507.316V506.356H594.84V504.196H595.92V503.236L595.56 503.596 595.44 503.956 594.96 503.716 595.32 503.236 595.68 502.756 595.44 502.516 595.2 502.396 594.96 502.276 594.6 502.156 594.96 501.676 595.56 501.916 596.04 502.396 596.76 501.916 597.48 501.676 597.84 502.156 597 502.396 596.28 502.876 596.4 503.476 596.52 504.196H597.6V506.356H596.52V506.956 507.076L596.64 507.196H596.52 596.4L595.92 507.316ZM595.44 504.676V505.996H595.92V504.676H595.44ZM596.52 504.676V505.996H597V504.676H596.52Z" fill-rule="evenodd"/></g></svg>