<?xml version='1.0' encoding='UTF-8'?>
<svg width="554.47" height="218.47" viewBox="5.63 26.00 554.47 218.47" xmlns="http://www.w3.org/2000/svg" xmlns:xlink="http://www.w3.org/1999/xlink" xmlns:inkscape="http://www.inkscape.org/namespaces/inkscape" version="1.1"><g transform="scale(10.0) translate(-438.573, -397.296)"><defs><clipPath id="clip_2"><path transform="matrix(1,0,0,-1,0,595.276)" d="M74.4 .196H767.4V595.276H74.4Z"/></clipPath></defs><path transform="matrix(1,0,0,-1,0,595.276)" d="M441 194.836H492.84C492.96 194.836 493.08 194.836 493.32 194.716 493.44 194.716 493.56 194.596 493.68 194.476 493.8 194.356 493.92 194.236 493.92 193.996 494.04 193.876 494.04 193.756 494.04 193.636V175.396C494.04 175.036 493.92 174.676 493.68 174.436 493.44 174.196 493.08 174.076 492.84 174.076H441C440.64 174.076 440.28 174.196 440.04 174.436 439.8 174.676 439.68 175.036 439.68 175.396V193.636C439.68 193.876 439.8 194.236 440.04 194.476 440.28 194.716 440.64 194.836 441 194.836ZM441 194.236C440.64 194.236 440.28 193.876 440.28 193.636V175.396C440.28 175.276 440.4 175.156 440.4 175.156 440.4 175.036 440.4 175.036 440.52 174.916 440.64 174.796 440.76 174.676 441 174.676H492.84C492.96 174.676 493.08 174.796 493.32 174.916 493.44 175.036 493.44 175.156 493.44 175.396V193.636 193.756C493.32 193.876 493.32 193.996 493.32 193.996 493.08 194.116 492.96 194.236 492.84 194.236H441Z" fill-rule="evenodd"/><path transform="matrix(1,0,0,-1,0,595.276)" d="M441 194.236H492.84C492.84 194.236 492.96 194.236 493.08 194.116 493.08 194.116 493.2 194.116 493.32 193.996 493.32 193.996 493.32 193.876 493.44 193.756V193.636 175.396C493.44 175.156 493.44 175.036 493.32 174.916 493.2 174.916 493.08 174.796 493.08 174.796 492.96 174.796 492.84 174.676 492.84 174.676H441C440.76 174.676 440.64 174.796 440.52 174.916 440.4 175.036 440.4 175.036 440.4 175.156 440.4 175.156 440.28 175.276 440.28 175.396V193.636C440.28 193.876 440.64 194.236 441 194.236Z" fill="#ffffff" fill-rule="evenodd"/><path transform="matrix(1,0,0,-1,0,595.276)" d="M453.72 190.636H454.44L453.72 189.556 454.56 188.356H453.84L453.36 189.076 453 188.356H452.28L453 189.556 452.4 190.636H453L453.36 190.036Z" fill-rule="evenodd"/><path transform="matrix(1,0,0,-1,0,595.276)" d="M456 190.756C456.24 190.756 456.48 190.756 456.6 190.636 456.84 190.516 456.96 190.276 457.08 190.036L456.48 189.796C456.36 190.036 456.24 190.156 456 190.156 455.76 190.156 455.52 190.036 455.52 189.676 455.52 189.556 455.4 189.556 455.4 189.436 455.52 189.436 455.52 189.436 455.52 189.316 455.52 188.956 455.76 188.836 456 188.836 456.12 188.836 456.24 188.836 456.36 188.836 456.36 188.956 456.48 189.076 456.48 189.196L457.08 188.956C456.84 188.476 456.6 188.236 456 188.236 455.28 188.236 454.8 188.716 454.8 189.556 454.92 190.276 455.28 190.756 456 190.756Z" fill-rule="evenodd"/><path transform="matrix(1,0,0,-1,0,595.276)" d="M459.48 189.316C459.6 190.276 459.12 190.756 458.4 190.756 457.8 190.756 457.44 190.396 457.32 189.556 457.32 189.196 457.44 188.836 457.56 188.596 457.92 188.356 458.16 188.236 458.52 188.236 458.88 188.236 459.36 188.356 459.48 188.596L459.12 189.076C459 188.836 458.76 188.836 458.52 188.836 458.4 188.836 458.28 188.836 458.16 188.956L458.04 189.076C458.04 189.196 458.04 189.196 458.04 189.316H459.48ZM458.04 189.796V189.796C458.04 189.916 458.04 189.916 458.16 190.036 458.28 190.156 458.4 190.156 458.4 190.156 458.64 190.156 458.88 190.036 458.88 189.796H458.04Z" fill-rule="evenodd"/><path transform="matrix(1,0,0,-1,0,595.276)" d="M462.36 189.556C462.36 189.916 462.24 190.156 462 190.396 461.88 190.636 461.52 190.756 461.16 190.756 460.92 190.756 460.68 190.636 460.68 190.636V190.756H460.08V187.516H460.68V188.356C460.68 188.356 461.04 188.236 461.28 188.236 461.52 188.236 461.76 188.356 462 188.596 462.24 188.836 462.36 189.196 462.36 189.556ZM461.16 188.836C461.04 188.836 460.92 188.836 460.8 188.956L460.68 189.076V189.196 189.796C460.68 190.036 460.92 190.156 461.16 190.156 461.28 190.156 461.52 190.036 461.64 189.916V189.796 189.316 189.196C461.52 188.956 461.28 188.836 461.16 188.836Z" fill-rule="evenodd"/><path transform="matrix(1,0,0,-1,0,595.276)" d="M463.68 190.636H464.28V190.156H463.68V189.076C463.68 188.956 463.68 188.956 463.68 188.836 463.8 188.836 463.8 188.836 463.92 188.836H464.04C464.16 188.836 464.16 188.836 464.28 188.836L464.4 188.356C464.28 188.236 464.04 188.236 463.68 188.236 463.44 188.236 463.32 188.236 463.2 188.356 463.08 188.476 463.08 188.596 463.08 188.836V190.156H462.6V190.636H463.08V191.356L463.68 191.596V190.636Z" fill-rule="evenodd"/><path transform="matrix(1,0,0,-1,0,595.276)" d="M470.88 190.636H471.48V188.236H470.88V188.356C470.88 188.356 470.76 188.356 470.64 188.236 470.52 188.236 470.4 188.236 470.28 188.236 470.04 188.236 469.8 188.236 469.68 188.476 469.56 188.476 469.44 188.596 469.44 188.716 469.44 188.836 469.32 188.836 469.32 188.956V190.636H470.04V189.196 189.076L470.16 188.956C470.28 188.836 470.28 188.836 470.4 188.836 470.52 188.836 470.64 188.836 470.76 188.956 470.88 189.076 470.88 189.196 470.88 189.316V190.636Z" fill-rule="evenodd"/><path transform="matrix(1,0,0,-1,0,595.276)" d="M474.24 188.356V189.916 190.036C474.24 190.516 474 190.756 473.4 190.756 473.28 190.756 473.16 190.756 473.04 190.756 472.92 190.636 472.92 190.636 472.8 190.516V190.756H472.08V188.356H472.8V189.796C472.8 190.036 473.04 190.156 473.28 190.156 473.52 190.156 473.64 190.036 473.64 189.796V189.676 188.356H474.24Z" fill-rule="evenodd"/><path transform="matrix(1,0,0,-1,0,595.276)" d="M476.52 190.516V191.596H477.12V188.236H476.52V188.356C476.4 188.236 476.16 188.236 475.92 188.236 475.32 188.116 474.96 188.596 474.84 189.316V189.436 189.676C474.84 190.396 475.32 190.756 475.92 190.756 476.04 190.756 476.28 190.636 476.52 190.516ZM476.52 189.076V189.676 189.796L476.4 189.916V190.036C476.28 190.036 476.16 190.156 476.04 190.156 475.68 190.156 475.44 189.916 475.44 189.436 475.44 189.076 475.68 188.836 476.04 188.716 476.28 188.836 476.4 188.956 476.52 189.076Z" fill-rule="evenodd"/><path transform="matrix(1,0,0,-1,0,595.276)" d="M479.88 188.716 479.76 188.236C479.64 188.236 479.4 188.236 479.4 188.236 479.28 188.356 479.16 188.356 479.16 188.476 479.04 188.356 478.8 188.236 478.56 188.236 478.32 188.236 478.08 188.236 477.84 188.476 477.72 188.596 477.6 188.836 477.6 189.076 477.6 189.556 478.08 189.796 479.04 189.796V189.916C479.04 190.036 478.92 190.036 478.92 190.156 478.92 190.156 478.8 190.156 478.68 190.156 478.56 190.156 478.44 190.156 478.32 190.156 478.2 190.036 478.08 190.036 477.96 189.916L477.72 190.396C477.96 190.636 478.2 190.756 478.68 190.756 479.04 190.756 479.28 190.756 479.4 190.636 479.52 190.516 479.64 190.276 479.64 190.156V188.836C479.64 188.836 479.76 188.716 479.88 188.716ZM478.32 189.076C478.32 188.956 478.32 188.836 478.44 188.836 478.44 188.836 478.56 188.716 478.68 188.716 478.8 188.836 478.92 188.836 479.04 188.956V189.316C478.8 189.316 478.56 189.316 478.44 189.196 478.32 189.196 478.32 189.076 478.32 189.076Z" fill-rule="evenodd"/><path transform="matrix(1,0,0,-1,0,595.276)" d="M482.4 190.636H481.68L481.32 189.196 480.84 190.636H480.12L480.84 188.476 480.96 188.356V188.236C480.96 188.116 480.84 188.116 480.84 188.116 480.72 188.116 480.72 188.116 480.6 188.116 480.48 188.116 480.48 188.116 480.36 188.116V187.636C480.6 187.516 480.84 187.516 481.08 187.516 481.2 187.516 481.2 187.516 481.32 187.636 481.44 187.756 481.44 187.876 481.56 187.996L482.4 190.636Z" fill-rule="evenodd"/><path transform="matrix(1,0,0,-1,0,595.276)" d="M450.12 189.676H451.44V190.276H450.12V190.876H451.56V191.596H449.4V188.356H451.68V188.956H450.12Z" fill-rule="evenodd"/><path transform="matrix(1,0,0,-1,0,595.276)" d="M466.92 190.636C466.8 190.516 466.92 190.516 467.04 190.396 467.16 190.396 467.28 190.396 467.52 190.276 468.24 190.156 468.6 189.796 468.6 189.316 468.6 188.596 468.24 188.236 467.4 188.236 467.04 188.236 466.68 188.236 466.44 188.356 466.2 188.476 465.96 188.596 465.84 188.836L466.32 189.316C466.68 188.956 467.04 188.836 467.4 188.836 467.64 188.836 467.88 188.956 467.88 189.316 467.88 189.436 467.64 189.556 467.16 189.676 466.56 189.676 466.2 190.036 466.08 190.636 466.08 191.356 466.56 191.716 467.4 191.716 467.64 191.716 467.88 191.596 468.12 191.596 468.36 191.476 468.48 191.356 468.72 191.116L468.24 190.636C467.88 190.876 467.64 190.996 467.4 190.996 467.04 190.996 466.92 190.876 466.92 190.636Z" fill-rule="evenodd"/><path transform="matrix(1,0,0,-1,0,595.276)" d="M447.72 184.036 447.48 183.556C447.36 183.556 447.24 183.556 447.12 183.676 447 183.676 446.88 183.676 446.88 183.796 446.88 183.676 446.52 183.556 446.28 183.556 445.68 183.556 445.32 183.916 445.32 184.396 445.32 184.876 445.8 185.236 446.76 185.236 446.76 185.356 446.76 185.476 446.64 185.476 446.64 185.476 446.52 185.596 446.4 185.476 446.28 185.596 446.16 185.476 446.04 185.476 445.92 185.476 445.8 185.356 445.68 185.236L445.44 185.716C445.68 185.956 446.04 186.076 446.4 186.076 446.76 186.076 447 186.076 447.12 185.956 447.36 185.836 447.36 185.716 447.48 185.476V184.276C447.48 184.156 447.48 184.036 447.72 184.036ZM446.04 184.396C446.04 184.276 446.04 184.276 446.16 184.156 446.16 184.156 446.28 184.156 446.4 184.156 446.64 184.156 446.64 184.156 446.76 184.276V184.636C446.52 184.636 446.4 184.636 446.28 184.636 446.16 184.516 446.04 184.516 446.04 184.396Z" fill-rule="evenodd"/><path transform="matrix(1,0,0,-1,0,595.276)" d="M450.24 183.676V185.236 185.356C450.24 185.836 449.88 186.076 449.28 186.076 449.16 186.076 449.04 186.076 448.92 186.076 448.92 186.076 448.8 185.956 448.68 185.836V186.076H448.08V183.676H448.68V185.116C448.8 185.356 448.92 185.476 449.16 185.476 449.4 185.476 449.52 185.356 449.52 185.116V184.996 183.676H450.24Z" fill-rule="evenodd"/><path transform="matrix(1,0,0,-1,0,595.276)" d="M452.4 185.956V186.916H453.12V183.556H452.4V183.676C452.28 183.556 452.16 183.556 451.8 183.556 451.32 183.556 450.84 183.916 450.72 184.756V184.996C450.84 185.716 451.2 186.076 451.8 186.076 451.92 186.076 452.16 186.076 452.4 185.956ZM452.4 184.396V184.996C452.4 185.116 452.4 185.116 452.4 185.236H452.28V185.356C452.16 185.356 452.04 185.476 451.92 185.476 451.56 185.476 451.44 185.236 451.32 184.876 451.44 184.396 451.56 184.156 451.92 184.156 452.16 184.156 452.28 184.276 452.4 184.396Z" fill-rule="evenodd"/><path transform="matrix(1,0,0,-1,0,595.276)" d="M459.48 185.956H460.08V183.556H459.36V183.676L459.24 183.556C459.12 183.556 459 183.556 458.88 183.556 458.64 183.556 458.4 183.676 458.16 183.796 458.04 183.796 458.04 183.916 458.04 184.036 457.92 184.156 457.92 184.276 457.92 184.276V185.956H458.52V184.516C458.52 184.516 458.64 184.516 458.64 184.396 458.64 184.396 458.64 184.276 458.76 184.276 458.76 184.156 458.88 184.156 459 184.156 459.12 184.156 459.24 184.276 459.24 184.276 459.36 184.396 459.48 184.516 459.48 184.636V185.956Z" fill-rule="evenodd"/><path transform="matrix(1,0,0,-1,0,595.276)" d="M461.76 183.556C462 183.556 462.24 183.676 462.48 183.916 462.6 184.156 462.72 184.396 462.72 184.756 462.72 185.596 462.36 186.076 461.76 186.076 461.52 186.076 461.4 186.076 461.16 185.836V186.916H460.68V183.556H461.28V183.676C461.4 183.556 461.64 183.556 461.76 183.556ZM461.64 184.156C461.4 184.156 461.28 184.276 461.28 184.516V185.116C461.28 185.236 461.4 185.356 461.4 185.476 461.52 185.476 461.64 185.476 461.64 185.476 462 185.476 462.12 185.236 462.12 184.756 462.12 184.396 462 184.156 461.64 184.156Z" fill-rule="evenodd"/><path transform="matrix(1,0,0,-1,0,595.276)" d="M463.8 186.916V184.396 184.276C463.8 184.156 463.92 184.156 464.16 184.276L464.28 183.676C464.28 183.676 464.16 183.676 464.04 183.676 464.04 183.556 463.8 183.556 463.8 183.556 463.44 183.556 463.2 183.796 463.08 184.036V184.156 186.916H463.8Z" fill-rule="evenodd"/><path transform="matrix(1,0,0,-1,0,595.276)" d="M465.24 183.676V185.956H464.64V183.676Z" fill-rule="evenodd"/><path transform="matrix(1,0,0,-1,0,595.276)" d="M465.36 186.556C465.36 186.796 465.12 187.036 465 187.036 464.76 187.036 464.64 186.796 464.64 186.556 464.64 186.436 464.76 186.196 465 186.196 465.12 186.196 465.36 186.436 465.36 186.556Z" fill-rule="evenodd"/><path transform="matrix(1,0,0,-1,0,595.276)" d="M466.92 186.076C467.16 186.076 467.4 186.076 467.52 185.956 467.76 185.836 467.88 185.596 468 185.356L467.4 185.116C467.28 185.356 467.16 185.476 466.92 185.476 466.68 185.476 466.44 185.356 466.44 184.996 466.44 184.876 466.32 184.876 466.44 184.876 466.44 184.756 466.44 184.756 466.44 184.636 466.44 184.276 466.68 184.156 466.92 184.156 467.04 184.156 467.16 184.156 467.28 184.276 467.28 184.276 467.4 184.396 467.4 184.516L468 184.276C467.88 183.796 467.52 183.556 466.92 183.556 466.2 183.556 465.72 184.036 465.72 184.876 465.84 185.716 466.2 186.076 466.92 186.076Z" fill-rule="evenodd"/><path transform="matrix(1,0,0,-1,0,595.276)" d="M475.44 184.876C475.44 185.596 475.08 186.076 474.36 186.076 473.52 186.076 473.16 185.596 473.16 184.876 473.16 184.036 473.52 183.556 474.36 183.556 475.08 183.556 475.44 184.036 475.44 184.876ZM474.72 184.876C474.72 184.636 474.72 184.516 474.6 184.396 474.6 184.276 474.48 184.156 474.36 184.156 474.12 184.156 474 184.276 474 184.396 473.88 184.516 473.88 184.636 473.88 184.876 473.88 184.996 473.88 185.236 474 185.356 474 185.356 474.12 185.476 474.36 185.476 474.48 185.476 474.6 185.356 474.6 185.356 474.72 185.236 474.72 184.996 474.72 184.876Z" fill-rule="evenodd"/><path transform="matrix(1,0,0,-1,0,595.276)" d="M476.52 186.916V184.396 184.276C476.52 184.156 476.64 184.156 476.88 184.276L477 183.676H476.88C476.76 183.556 476.64 183.556 476.52 183.556 476.16 183.556 475.92 183.796 475.8 184.036V184.156 186.916H476.52Z" fill-rule="evenodd"/><path transform="matrix(1,0,0,-1,0,595.276)" d="M477.96 183.676V185.956H477.36V183.676Z" fill-rule="evenodd"/><path transform="matrix(1,0,0,-1,0,595.276)" d="M478.08 186.556C478.08 186.796 477.84 187.036 477.72 187.036 477.48 187.036 477.36 186.796 477.36 186.556 477.36 186.436 477.48 186.196 477.72 186.196 477.84 186.196 478.08 186.436 478.08 186.556Z" fill-rule="evenodd"/><path transform="matrix(1,0,0,-1,0,595.276)" d="M480.12 183.676C480 183.556 479.88 183.556 479.64 183.556 479.04 183.556 478.56 183.916 478.56 184.756V184.996C478.56 185.716 479.04 186.076 479.52 186.076 479.64 186.076 479.76 186.076 479.88 186.076 480 185.956 480 185.956 480.12 185.956V186.916H480.84V183.556H480.12V183.676ZM480.12 184.396V184.996C480.12 185.116 480.12 185.116 480.12 185.236L480 185.356C480 185.356 479.88 185.476 479.64 185.476 479.4 185.476 479.16 185.236 479.16 184.876 479.16 184.396 479.28 184.156 479.64 184.156 479.88 184.156 480.12 184.276 480.12 184.396Z" fill-rule="evenodd"/><path transform="matrix(1,0,0,-1,0,595.276)" d="M483.6 184.036 483.48 183.556C483.24 183.556 483.12 183.556 483 183.676 482.88 183.676 482.88 183.676 482.76 183.796 482.76 183.676 482.52 183.556 482.28 183.556 481.92 183.556 481.68 183.676 481.56 183.796 481.32 183.916 481.32 184.156 481.32 184.396 481.32 184.876 481.8 185.236 482.64 185.236 482.64 185.356 482.64 185.476 482.64 185.476 482.52 185.476 482.52 185.596 482.4 185.476 482.28 185.596 482.16 185.476 482.04 185.476 481.92 185.476 481.8 185.356 481.68 185.236L481.32 185.716C481.56 185.956 481.92 186.076 482.4 186.076 482.64 186.076 482.88 186.076 483.12 185.956 483.24 185.836 483.36 185.716 483.36 185.476V184.276C483.36 184.156 483.48 184.036 483.6 184.036ZM481.92 184.396C481.92 184.276 482.04 184.276 482.04 184.156 482.16 184.156 482.28 184.156 482.4 184.156 482.52 184.156 482.64 184.156 482.64 184.276V184.636C482.4 184.636 482.28 184.636 482.16 184.636 482.04 184.516 481.92 184.516 481.92 184.396Z" fill-rule="evenodd"/><path transform="matrix(1,0,0,-1,0,595.276)" d="M486.12 185.956H485.4L484.92 184.636 484.56 185.956H483.84L484.56 183.796V183.676 183.556 183.436C484.44 183.436 484.32 183.436 484.32 183.436 484.2 183.436 484.2 183.436 484.08 183.436L483.96 182.956C484.2 182.836 484.56 182.836 484.8 182.836 484.8 182.836 484.92 182.836 485.04 182.956 485.04 183.076 485.16 183.196 485.16 183.316L486.12 185.956Z" fill-rule="evenodd"/><path transform="matrix(1,0,0,-1,0,595.276)" d="M455.76 184.876H456.6 456.72C457.2 184.996 457.44 185.356 457.44 185.956 457.44 186.436 457.2 186.796 456.84 186.916H456.72 456.6 455.04V183.676H455.76V184.876ZM455.76 185.476V186.316H456.36 456.48C456.6 186.316 456.72 186.076 456.72 185.956 456.72 185.716 456.6 185.476 456.48 185.476H456.36 455.76Z" fill-rule="evenodd"/><path transform="matrix(1,0,0,-1,0,595.276)" d="M470.4 185.596V186.916H469.68V183.676H470.4V184.996H471.12 471.72V183.676H472.44V186.916H471.72V185.596H471.12Z" fill-rule="evenodd"/><path transform="matrix(1,0,0,-1,0,595.276)" d="M484.8 189.076C484.8 189.436 484.56 189.796 483.96 189.796 483.84 189.796 483.72 189.916 483.6 189.916H483.48V190.036C483.48 190.156 483.6 190.156 483.84 190.276 483.96 190.276 484.08 190.156 484.08 190.156 484.2 190.156 484.32 190.036 484.32 189.916L484.68 190.396C484.56 190.636 484.2 190.756 483.84 190.756 483.24 190.756 482.88 190.516 482.76 189.916 482.88 189.556 483.12 189.316 483.48 189.196 483.84 189.196 484.08 189.196 484.08 188.956 484.08 188.956 484.08 188.836 483.96 188.836H483.84C483.6 188.836 483.48 188.836 483.36 188.836 483.36 188.956 483.24 189.076 483.12 189.076L482.64 188.716C482.88 188.356 483.24 188.236 483.72 188.236 484.32 188.236 484.8 188.476 484.8 189.076Z" fill-rule="evenodd"/><path transform="matrix(1,0,0,-1,0,595.276)" d="M488.4 184.396C488.4 184.876 488.16 185.116 487.68 185.236 487.44 185.236 487.32 185.236 487.32 185.236H487.2V185.356C487.2 185.476 487.32 185.596 487.44 185.596 487.56 185.596 487.68 185.596 487.8 185.476 487.92 185.476 487.92 185.356 488.04 185.356L488.4 185.716C488.16 185.956 487.92 186.076 487.56 186.196 486.84 186.196 486.48 185.836 486.48 185.356 486.48 184.876 486.72 184.636 487.2 184.636 487.56 184.636 487.68 184.516 487.68 184.396 487.68 184.276 487.68 184.276 487.68 184.156 487.56 184.156 487.56 184.156 487.44 184.156 487.32 184.156 487.2 184.156 487.08 184.276 486.96 184.276 486.84 184.396 486.84 184.516L486.36 184.036C486.6 183.676 486.96 183.556 487.44 183.556 488.04 183.556 488.4 183.916 488.4 184.396Z" fill-rule="evenodd"/><path transform="matrix(1,0,0,-1,0,595.276)" d="M445.92 181.276H443.28V179.836H445.92V181.276ZM443.64 180.676V181.036H445.44V180.676H443.64ZM443.64 180.076V180.436H445.56V180.076H443.64Z" fill-rule="evenodd"/><path transform="matrix(1,0,0,-1,0,595.276)" d="M443.88 179.596 443.4 179.716 443.16 179.236 442.68 178.756 443.04 178.516 443.52 179.116H444.48V178.756H443.4V178.396H444.48V178.036H442.68V177.796H446.4V178.036H444.84V178.396H446.04V178.756H444.84V179.116H446.16V179.356H444.84V179.596H444.96V179.716H444.84 444.48V179.356H443.64Z" fill-rule="evenodd"/><path transform="matrix(1,0,0,-1,0,595.276)" d="M447.72 180.796V180.556H448.08V178.876H447.72V178.636H449.76V178.876H449.4V180.556H449.76V180.796H449.4V181.156L449.52 181.276H449.4V181.396H449.04V180.796H448.44V181.156L448.56 181.276 448.44 181.396H448.08V180.796H447.72ZM448.44 179.596V179.956H449.04V179.596H448.44ZM448.44 178.876V179.236H449.04V178.876H448.44ZM448.44 180.196V180.556H449.04V180.196H448.44Z" fill-rule="evenodd"/><path transform="matrix(1,0,0,-1,0,595.276)" d="M447.72 177.916 448.08 177.676 448.32 178.036 448.68 178.396 448.32 178.516 447.96 178.156Z" fill-rule="evenodd"/><path transform="matrix(1,0,0,-1,0,595.276)" d="M450 181.276V179.716L449.88 179.116V178.636L449.76 178.156 449.52 177.916 449.88 177.676 450 177.916 450.12 178.276 450.24 178.636V178.996H450.84V178.156 178.036H450.72 450.36L450.6 177.676 450.96 177.796H451.08L451.2 177.916V178.036 178.276 181.276H450ZM450.24 179.236V179.956H450.84V179.236H450.24ZM450.24 180.316V181.036H450.84V180.316H450.24Z" fill-rule="evenodd"/><path transform="matrix(1,0,0,-1,0,595.276)" d="M449.16 178.636 448.92 178.396 449.04 178.036 449.28 177.796 449.52 178.036 449.4 178.276Z" fill-rule="evenodd"/><path transform="matrix(1,0,0,-1,0,595.276)" d="M453.12 177.796H453.48V178.156H455.64V177.796H456V181.156H453.12V177.796ZM453.48 178.516V179.476H455.64V178.516H453.48ZM453.48 179.836V180.796H455.64V179.836H453.48Z" fill-rule="evenodd"/><path transform="matrix(1,0,0,-1,0,595.276)" d="M458.04 181.156V180.796H458.76V180.316L458.64 179.836V179.476L458.52 179.116 458.28 178.756 458.16 178.396 457.92 178.156 457.56 177.916 457.92 177.676 458.28 178.036 458.64 178.396 458.76 178.876 459 179.356 459.12 179.116 459.24 178.876 459.48 178.636 459.72 178.396 459.12 178.156 458.64 178.036 458.88 177.676 459.48 177.916 459.96 178.156 460.44 177.916 461.04 177.676 461.4 178.036 460.8 178.156 460.2 178.516 460.44 178.876 460.68 179.236 460.92 179.596 461.04 180.076 460.68 180.316V180.196H460.2L460.56 181.036 460.2 181.276V181.156H458.04ZM459.12 180.796H460.08L459.6 179.716 459.96 179.596 460.08 179.836H460.56L460.44 179.476 460.32 179.236 460.08 178.876 459.96 178.636 459.6 178.996 459.36 179.236 459.24 179.476 459.12 179.836V180.796Z" fill-rule="evenodd"/><path transform="matrix(1,0,0,-1,0,595.276)" d="M463.8 180.796H463.56L463.44 180.436 463.2 180.076 462.96 179.716 462.6 179.476 462.84 179.236 463.2 179.476 463.56 179.836 463.68 180.196 463.92 180.556V180.676H464.04L463.92 180.796Z" fill-rule="evenodd"/><path transform="matrix(1,0,0,-1,0,595.276)" d="M464.4 179.836 464.16 180.076 463.8 179.116 463.44 178.276H462.84L462.96 177.796V177.676H463.08V177.796L465.48 178.036 465.72 177.676 466.08 177.916 465.96 178.276 465.72 178.636 465.48 178.876 465.12 179.236 464.88 178.996 465.36 178.396 463.92 178.276 464.52 179.596 464.64 179.716 464.52 179.836Z" fill-rule="evenodd"/><path transform="matrix(1,0,0,-1,0,595.276)" d="M463.92 181.276V180.916H464.76L464.88 180.436 465.12 180.076 465.48 179.716 466.08 179.236 466.44 179.476 466.2 179.716 465.96 179.836 465.72 180.076 465.48 180.316 465.36 180.556 465.24 180.796V181.036 181.276Z" fill-rule="evenodd"/><path transform="matrix(1,0,0,-1,0,595.276)" d="M468 181.276V180.196H471V181.276H468ZM468.36 180.556V181.036H468.84V180.556H468.36ZM469.2 180.556V181.036H469.8V180.556H469.2ZM470.04 180.556V181.036H470.64V180.556H470.04Z" fill-rule="evenodd"/><path transform="matrix(1,0,0,-1,0,595.276)" d="M468 179.836 468.24 179.596H469.32V177.676H469.68V179.716L470.64 179.836H470.76V179.956L470.52 180.196 469.32 179.956Z" fill-rule="evenodd"/><path transform="matrix(1,0,0,-1,0,595.276)" d="M468.6 179.476 468.36 179.116 468.24 178.876 468 178.636 467.88 178.396 467.64 178.276 467.88 178.036 468.24 178.276 468.48 178.636 468.96 178.036 469.32 178.276 468.96 178.516 468.72 178.996 468.84 179.236H468.96L468.84 179.356Z" fill-rule="evenodd"/><path transform="matrix(1,0,0,-1,0,595.276)" d="M470.4 179.476 470.28 179.116 470.16 178.876 470.04 178.636 469.92 178.396 469.8 178.276 470.04 178.036 470.28 178.396 470.4 178.636 470.64 178.396 471 178.036 471.24 178.276 471 178.396 470.88 178.636 470.76 178.876 470.64 179.116V179.356H470.76L470.64 179.476Z" fill-rule="evenodd"/><path transform="matrix(1,0,0,-1,0,595.276)" d="M473.64 181.276 473.4 181.396 473.16 180.916 473.04 180.556 472.8 180.076 472.56 179.716 472.8 179.476 473.04 179.836V177.676H473.4V180.556L473.64 181.036 473.76 181.156H473.64Z" fill-rule="evenodd"/><path transform="matrix(1,0,0,-1,0,595.276)" d="M473.76 181.156V177.676H474.12V178.396H474.84V178.636H474.12V179.116H474.84V179.476H474.12V179.956H474.84V181.156H473.76ZM474.12 180.196V180.796H474.48V180.196H474.12Z" fill-rule="evenodd"/><path transform="matrix(1,0,0,-1,0,595.276)" d="M475.08 181.156V180.796H475.8V180.196H475.08V179.956H476.16V181.156Z" fill-rule="evenodd"/><path transform="matrix(1,0,0,-1,0,595.276)" d="M474.96 179.596V179.356H475.92L475.8 178.996 475.56 178.636 475.44 178.876 475.32 179.236H475.08L475.2 178.636 475.32 178.396 475.08 178.156 474.72 178.036 474.96 177.676 475.32 177.916 475.56 178.156 475.92 177.916 476.16 177.676 476.4 178.036 476.16 178.156 475.8 178.396 476.16 178.876 476.28 179.476 476.04 179.716 475.92 179.596Z" fill-rule="evenodd"/><path transform="matrix(1,0,0,-1,0,595.276)" d="M477.72 180.796V180.556H478.08V178.876H477.6V178.636H479.76V178.876H479.4V180.556H479.76V180.796H479.4V181.156 181.276H479.52 479.4V181.396H479.04V180.796H478.44V181.156L478.56 181.276H478.44V181.396H478.08V180.796H477.72ZM478.44 179.596V179.956H479.04V179.596H478.44ZM478.44 178.876V179.236H479.04V178.876H478.44ZM478.44 180.196V180.556H479.04V180.196H478.44Z" fill-rule="evenodd"/><path transform="matrix(1,0,0,-1,0,595.276)" d="M477.72 177.916 478.08 177.676 478.32 178.036 478.56 178.396 478.2 178.516 477.96 178.156Z" fill-rule="evenodd"/><path transform="matrix(1,0,0,-1,0,595.276)" d="M479.88 181.276V179.716 179.116 178.636L479.76 178.156 479.52 177.916 479.88 177.676 480 177.916 480.12 178.276 480.24 178.636V178.996H480.84V178.156 178.036H480.6 480.36L480.6 177.676 480.96 177.796H481.08L481.2 177.916V178.036 178.276 181.276H479.88ZM480.24 179.236V179.956H480.84V179.236H480.24ZM480.24 180.316V181.036H480.84V180.316H480.24Z" fill-rule="evenodd"/><path transform="matrix(1,0,0,-1,0,595.276)" d="M479.04 178.636 478.8 178.396 479.04 178.036 479.28 177.796 479.52 178.036 479.28 178.276Z" fill-rule="evenodd"/><path transform="matrix(1,0,0,-1,0,595.276)" d="M482.52 179.716 482.76 179.476 483 179.836V177.676H483.36V180.436L483.72 181.156V180.796H484.08L483.96 180.316 483.84 179.836 483.72 179.476 483.48 179.116 483.84 178.876 483.96 179.116 484.44 178.876 484.2 178.636 484.08 178.396 483.84 178.276 483.48 178.036 483.72 177.796 484.08 177.916 484.32 178.156 484.56 178.396 484.8 178.636 484.92 178.996 485.04 179.356V179.836 180.196H484.32L484.44 180.796H485.04V181.156H483.72L483.84 181.276H483.72L483.36 181.396 483.24 180.916 483 180.556 482.76 180.076 482.52 179.716ZM484.32 179.956H484.68L484.56 179.236 484.08 179.476 484.32 179.956Z" fill-rule="evenodd"/><path transform="matrix(1,0,0,-1,0,595.276)" d="M485.28 180.916V178.516H485.64V180.676 180.796 180.916Z" fill-rule="evenodd"/><path transform="matrix(1,0,0,-1,0,595.276)" d="M486 181.396V178.396L485.88 178.276V178.156L485.76 178.036H485.4L485.52 177.676H486L486.12 177.796 486.24 177.916V178.036 178.156 181.156L486.36 181.276 486.24 181.396Z" fill-rule="evenodd"/><path transform="matrix(1,0,0,-1,0,595.276)" d="M488.76 181.396H488.52L488.4 180.916 488.16 180.436 487.92 179.956 487.56 179.596 487.92 179.236 488.28 179.836 488.64 180.316H489.24L489.12 179.836 489 179.356 488.52 179.716 488.28 179.476 488.52 179.236 488.88 178.996 488.64 178.756 488.4 178.516 488.04 178.276 487.68 178.036 487.92 177.676 488.28 177.796 488.52 178.036 488.76 178.276 489 178.636 489.24 178.996 489.48 179.476 489.6 179.956 489.72 180.556 489.48 180.796 489.36 180.676H488.76L488.88 181.156 489 181.276H488.88Z" fill-rule="evenodd"/><path transform="matrix(1,0,0,-1,0,595.276)" d="M490.44 181.396H490.2V179.836L489.96 180.076 489.72 179.836 489.96 179.596 490.2 179.236V177.676H490.68V178.996L491.16 178.636 491.52 179.116 491.04 179.236 490.68 179.476V181.156 181.276 181.396Z" fill-rule="evenodd"/></g></svg>