<?xml version='1.0' encoding='UTF-8'?>
<svg width="527.54" height="255.14" viewBox="19.64 8.27 527.54 255.14" xmlns="http://www.w3.org/2000/svg" xmlns:xlink="http://www.w3.org/1999/xlink" xmlns:inkscape="http://www.inkscape.org/namespaces/inkscape" version="1.1"><g transform="scale(10.0) translate(-329.439, -128.016)"><defs><clipPath id="clip_2"><path transform="matrix(1,0,0,-1,0,595.276)" d="M74.4 .196H767.4V595.276H74.4Z"/></clipPath></defs><path transform="matrix(1,0,0,-1,0,595.276)" d="M382.2 465.916H333.36C333 465.916 332.64 465.796 332.28 465.556 332.04 465.196 331.92 464.836 331.92 464.476V442.876C331.92 442.516 332.04 442.156 332.28 441.796 332.64 441.556 333 441.436 333.36 441.436H382.2C382.56 441.436 382.92 441.556 383.28 441.796 383.52 442.156 383.64 442.516 383.64 442.876V464.476C383.64 464.836 383.52 465.196 383.28 465.556 382.92 465.796 382.56 465.916 382.2 465.916ZM382.2 465.196C382.44 465.196 382.56 465.196 382.8 464.956 382.92 464.836 382.92 464.716 382.92 464.476V442.876C382.92 442.756 382.92 442.636 382.92 442.516 382.92 442.516 382.8 442.396 382.8 442.276 382.56 442.156 382.44 442.156 382.2 442.156H333.36C333.24 442.156 333.12 442.156 333.12 442.156 333 442.156 332.88 442.276 332.88 442.276 332.64 442.516 332.64 442.636 332.64 442.876V464.476C332.64 464.596 332.64 464.716 332.64 464.716 332.64 464.836 332.76 464.956 332.88 464.956 332.88 465.076 333 465.196 333.12 465.196 333.12 465.196 333.24 465.196 333.36 465.196H382.2Z" fill-rule="evenodd"/><path transform="matrix(1,0,0,-1,0,595.276)" d="M333.36 465.196H382.2C382.32 465.196 382.44 465.196 382.56 465.196 382.56 465.196 382.68 465.076 382.8 464.956 382.8 464.956 382.92 464.836 382.92 464.716 382.92 464.716 382.92 464.596 382.92 464.476V442.876C382.92 442.636 382.92 442.516 382.8 442.276 382.56 442.156 382.44 442.156 382.2 442.156H333.36C333.12 442.156 333 442.156 332.88 442.276 332.76 442.396 332.64 442.516 332.64 442.516 332.64 442.636 332.64 442.756 332.64 442.876V464.476C332.64 464.956 332.88 465.196 333.36 465.196Z" fill="#ffffff" fill-rule="evenodd"/><path transform="matrix(1,0,0,-1,0,595.276)" d="M335.4 452.596C335.4 452.116 335.52 451.756 335.76 451.516 335.88 451.156 336.12 451.036 336.36 450.796L336.12 450.436C335.64 450.556 335.4 450.796 335.16 451.156 334.92 451.516 334.8 451.996 334.68 452.596 334.8 453.196 334.92 453.676 335.16 454.036 335.28 454.156 335.4 454.396 335.52 454.516 335.76 454.636 335.88 454.636 336.12 454.756L336.36 454.276C335.76 454.036 335.52 453.436 335.4 452.596Z" fill-rule="evenodd"/><path transform="matrix(1,0,0,-1,0,595.276)" d="M339.24 451.996C339.24 452.476 339 452.716 338.52 452.836 338.28 452.836 338.16 452.836 338.04 452.956V453.076C337.92 453.196 338.04 453.196 338.28 453.196 338.4 453.196 338.52 453.196 338.64 453.196 338.64 453.076 338.76 453.076 338.88 452.956L339.24 453.436C339 453.676 338.76 453.796 338.4 453.796 337.68 453.796 337.32 453.556 337.32 452.956 337.32 452.596 337.56 452.356 338.04 452.236 338.4 452.236 338.52 452.116 338.52 451.996V451.876C338.4 451.876 338.4 451.876 338.28 451.876 338.16 451.876 338.04 451.876 337.92 451.876 337.8 451.996 337.68 451.996 337.56 452.116L337.2 451.756C337.44 451.396 337.8 451.276 338.28 451.276 338.52 451.276 338.76 451.276 339 451.396 339.12 451.636 339.24 451.756 339.24 451.996Z" fill-rule="evenodd"/><path transform="matrix(1,0,0,-1,0,595.276)" d="M340.68 453.796C340.92 453.796 341.16 453.676 341.28 453.556 341.52 453.436 341.64 453.316 341.76 453.076L341.16 452.836C341.04 453.076 340.92 453.196 340.68 453.196 340.44 453.196 340.2 452.956 340.2 452.596V452.476 452.356C340.32 451.996 340.44 451.876 340.68 451.876 340.8 451.756 340.92 451.876 341.04 451.876 341.04 451.996 341.16 452.116 341.16 452.236L341.76 451.996C341.64 451.516 341.28 451.156 340.68 451.276 339.96 451.276 339.6 451.636 339.6 452.476 339.6 453.316 339.96 453.796 340.68 453.796Z" fill-rule="evenodd"/><path transform="matrix(1,0,0,-1,0,595.276)" d="M342.72 453.556C342.96 453.796 343.44 453.796 343.68 453.676 343.8 453.556 344.04 453.556 344.04 453.316 344.16 453.196 344.28 453.076 344.28 452.836V451.396H343.56V452.716 452.836C343.56 452.956 343.44 452.956 343.44 453.076 343.32 453.076 343.32 453.196 343.2 453.196 343.08 453.196 342.96 453.076 342.84 453.076 342.84 452.956 342.72 452.836 342.72 452.716V451.396H342.12V454.636H342.72V453.556Z" fill-rule="evenodd"/><path transform="matrix(1,0,0,-1,0,595.276)" d="M346.92 452.236C347.04 453.196 346.68 453.676 345.84 453.796 345.24 453.796 344.88 453.316 344.76 452.476 344.76 452.116 344.88 451.876 345.12 451.636 345.36 451.396 345.72 451.276 345.96 451.276 346.44 451.156 346.8 451.396 346.92 451.636L346.56 451.996C346.44 451.876 346.2 451.876 345.96 451.756 345.84 451.756 345.72 451.876 345.6 451.996L345.48 452.116V452.236H346.92ZM345.48 452.716V452.716C345.48 452.836 345.48 452.956 345.6 453.076 345.72 453.196 345.84 453.196 345.96 453.196 346.08 453.196 346.32 453.076 346.32 452.836V452.716H345.48Z" fill-rule="evenodd"/><path transform="matrix(1,0,0,-1,0,595.276)" d="M348.96 451.396C348.96 451.276 348.72 451.276 348.48 451.276 347.88 451.156 347.4 451.636 347.4 452.356V452.476 452.716C347.4 453.316 347.88 453.676 348.36 453.676 348.6 453.796 348.84 453.676 349.08 453.556V454.636H349.68V451.276H348.96V451.396ZM348.96 452.116V452.716 452.836 452.956C348.84 453.076 348.72 453.076 348.6 453.076 348.24 453.076 348 452.836 348 452.476 348 451.996 348.12 451.756 348.48 451.756 348.72 451.756 348.96 451.876 348.96 452.116Z" fill-rule="evenodd"/><path transform="matrix(1,0,0,-1,0,595.276)" d="M351.72 453.676H352.44V451.276H351.72V451.396C351.72 451.396 351.72 451.276 351.6 451.276 351.48 451.276 351.24 451.276 351.12 451.276 351 451.276 350.76 451.276 350.52 451.396 350.4 451.636 350.28 451.756 350.28 451.996V453.676H350.88V452.236C350.88 452.116 351 451.996 351 451.996 351.12 451.876 351.24 451.876 351.36 451.876 351.48 451.876 351.6 451.876 351.6 451.996 351.72 452.116 351.72 452.236 351.72 452.356V453.676Z" fill-rule="evenodd"/><path transform="matrix(1,0,0,-1,0,595.276)" d="M353.64 454.636V451.996 451.876C353.64 451.876 353.76 451.876 354 451.876L354.12 451.396C354.12 451.276 354.12 451.276 354 451.276 353.88 451.276 353.76 451.276 353.64 451.276 353.28 451.276 353.04 451.396 353.04 451.636V451.756 451.876 454.636H353.64Z" fill-rule="evenodd"/><path transform="matrix(1,0,0,-1,0,595.276)" d="M356.52 452.236C356.64 453.196 356.16 453.676 355.44 453.796 354.84 453.796 354.48 453.316 354.36 452.476 354.36 452.116 354.48 451.876 354.72 451.636 354.96 451.396 355.32 451.276 355.56 451.276 355.92 451.156 356.4 451.396 356.52 451.636L356.16 451.996C356.04 451.876 355.8 451.876 355.56 451.756 355.44 451.756 355.32 451.876 355.2 451.996L355.08 452.116V452.236H356.52ZM355.08 452.716V452.716C355.08 452.836 355.08 452.956 355.2 453.076 355.32 453.196 355.44 453.196 355.44 453.196 355.68 453.196 355.92 453.076 355.92 452.836V452.716H355.08Z" fill-rule="evenodd"/><path transform="matrix(1,0,0,-1,0,595.276)" d="M358.56 451.396C358.56 451.276 358.32 451.276 358.08 451.276 357.48 451.156 357 451.636 357 452.356V452.476 452.716C357 453.316 357.48 453.676 357.96 453.676 358.2 453.796 358.32 453.676 358.68 453.556V454.636H359.28V451.276H358.56V451.396ZM358.56 452.116V452.716 452.836 452.956H358.44C358.44 453.076 358.32 453.076 358.08 453.076 357.84 453.076 357.6 452.836 357.6 452.476 357.6 451.996 357.72 451.756 358.08 451.756 358.32 451.756 358.56 451.876 358.56 452.116Z" fill-rule="evenodd"/><path transform="matrix(1,0,0,-1,0,595.276)" d="M362.88 451.996C362.88 452.476 362.64 452.716 362.16 452.836 361.92 452.836 361.8 452.836 361.8 452.956H361.68V453.076C361.68 453.196 361.8 453.196 361.92 453.196 362.04 453.196 362.16 453.196 362.28 453.196 362.4 453.076 362.4 453.076 362.52 452.956L362.88 453.436C362.64 453.676 362.4 453.796 362.04 453.796 361.32 453.796 360.96 453.556 360.96 452.956 360.96 452.596 361.2 452.356 361.68 452.236 362.04 452.236 362.16 452.116 362.16 451.996V451.876C362.04 451.876 362.04 451.876 361.92 451.876 361.8 451.876 361.68 451.876 361.56 451.876 361.44 451.996 361.32 451.996 361.32 452.116L360.84 451.756C361.08 451.396 361.44 451.276 361.92 451.276 362.16 451.276 362.4 451.276 362.64 451.396 362.76 451.636 362.88 451.756 362.88 451.996Z" fill-rule="evenodd"/><path transform="matrix(1,0,0,-1,0,595.276)" d="M365.4 452.236C365.4 453.196 365.04 453.676 364.32 453.796 363.6 453.796 363.24 453.316 363.24 452.476 363.24 452.116 363.36 451.876 363.48 451.636 363.72 451.396 364.08 451.276 364.44 451.276 364.8 451.156 365.16 451.396 365.28 451.636L364.92 451.996C364.8 451.876 364.68 451.876 364.44 451.756 364.32 451.756 364.2 451.876 364.08 451.996 363.96 451.996 363.96 451.996 363.96 452.116V452.236H365.4ZM363.84 452.716V452.716C363.84 452.836 363.96 452.956 364.08 453.076 364.08 453.196 364.2 453.196 364.32 453.196 364.56 453.196 364.68 453.076 364.8 452.836V452.716H363.84Z" fill-rule="evenodd"/><path transform="matrix(1,0,0,-1,0,595.276)" d="M365.88 451.396V453.676H366.48V453.436C366.6 453.556 366.72 453.676 366.84 453.676 366.96 453.796 367.08 453.796 367.32 453.796V453.076C367.08 453.076 366.84 453.076 366.72 452.956 366.6 452.956 366.6 452.836 366.6 452.716V451.396H365.88Z" fill-rule="evenodd"/><path transform="matrix(1,0,0,-1,0,595.276)" d="M368.28 451.396 367.56 453.676H368.16L368.64 452.116 369.12 453.676H369.84L369.12 451.396H368.64Z" fill-rule="evenodd"/><path transform="matrix(1,0,0,-1,0,595.276)" d="M370.8 451.396V453.676H370.2V451.396Z" fill-rule="evenodd"/><path transform="matrix(1,0,0,-1,0,595.276)" d="M370.92 454.276C370.92 454.516 370.68 454.636 370.56 454.636 370.32 454.636 370.2 454.516 370.2 454.276 370.2 454.036 370.32 453.916 370.56 453.916 370.68 453.916 370.92 454.036 370.92 454.276Z" fill-rule="evenodd"/><path transform="matrix(1,0,0,-1,0,595.276)" d="M372.48 453.796C372.72 453.796 372.96 453.676 373.08 453.556 373.32 453.436 373.44 453.316 373.44 453.076L372.96 452.836C372.84 453.076 372.72 453.196 372.48 453.196 372.24 453.196 372 452.956 372 452.596 371.88 452.596 371.88 452.596 371.88 452.476L372 452.356C372 451.996 372.24 451.876 372.48 451.876 372.6 451.756 372.72 451.876 372.84 451.876 372.84 451.996 372.96 452.116 372.96 452.236L373.56 451.996C373.32 451.516 373.08 451.156 372.48 451.276 371.76 451.276 371.28 451.636 371.28 452.476 371.4 453.316 371.76 453.796 372.48 453.796Z" fill-rule="evenodd"/><path transform="matrix(1,0,0,-1,0,595.276)" d="M375.96 452.236C375.96 453.196 375.6 453.676 374.88 453.796 374.28 453.796 373.92 453.316 373.8 452.476 373.8 452.116 373.92 451.876 374.04 451.636 374.28 451.396 374.64 451.276 375 451.276 375.36 451.156 375.72 451.396 375.84 451.636L375.48 451.996C375.36 451.876 375.24 451.876 375 451.756 374.88 451.756 374.76 451.876 374.64 451.996 374.64 451.996 374.52 451.996 374.52 452.116V452.236H375.96ZM374.4 452.716V452.716C374.52 452.836 374.52 452.956 374.64 453.076 374.64 453.196 374.76 453.196 374.88 453.196 375.12 453.196 375.24 453.076 375.36 452.836V452.716H374.4Z" fill-rule="evenodd"/><path transform="matrix(1,0,0,-1,0,595.276)" d="M378.36 451.996C378.36 452.476 378.12 452.716 377.64 452.836 377.4 452.836 377.28 452.836 377.28 452.956H377.16V453.076C377.16 453.196 377.16 453.196 377.4 453.196 377.52 453.196 377.64 453.196 377.76 453.196 377.88 453.076 377.88 453.076 378 452.956L378.36 453.436C378.12 453.676 377.88 453.796 377.52 453.796 376.8 453.796 376.44 453.556 376.44 452.956 376.44 452.596 376.68 452.356 377.16 452.236 377.52 452.236 377.64 452.116 377.64 451.996V451.876C377.52 451.876 377.52 451.876 377.4 451.876 377.28 451.876 377.16 451.876 377.04 451.876 376.92 451.996 376.8 451.996 376.68 452.116L376.32 451.756C376.56 451.396 376.92 451.276 377.4 451.276 378 451.276 378.36 451.516 378.36 451.996Z" fill-rule="evenodd"/><path transform="matrix(1,0,0,-1,0,595.276)" d="M380.16 452.596C380.16 452.116 380.04 451.756 379.92 451.516 379.68 451.156 379.44 451.036 379.2 450.796L379.44 450.436C379.92 450.556 380.16 450.796 380.4 451.156 380.64 451.516 380.76 451.996 380.88 452.596 380.76 453.196 380.64 453.676 380.4 454.036 380.28 454.156 380.16 454.396 380.04 454.516 379.92 454.636 379.68 454.636 379.44 454.756L379.2 454.276C379.8 454.036 380.16 453.436 380.16 452.596Z" fill-rule="evenodd"/><path transform="matrix(1,0,0,-1,0,595.276)" d="M349.68 447.676 350.4 447.796V448.156H349.68L349.92 448.276 349.68 448.636 349.44 448.756 349.2 448.516 349.56 448.156 348.84 448.036V448.276 448.516L348.96 448.636H348.84L348.36 448.756V448.396L348.48 448.036 348 447.916V447.556H348.6V447.316L348.84 447.076 348.48 446.956 348 446.836 348.24 446.476 348.72 446.596 349.08 446.836 349.44 446.596 349.8 446.476H350.04L350.28 446.596 350.4 446.836 350.52 447.076 350.16 447.436 350.04 447.076V446.956H349.92 349.68L349.44 447.076 349.8 447.316H349.92V447.436L349.68 447.676 349.2 447.316 349.08 447.436 348.96 447.676H349.68Z" fill-rule="evenodd"/><path transform="matrix(1,0,0,-1,0,595.276)" d="M349.44 446.476 349.2 446.236 349.68 445.876H348.96L348.84 445.996V446.236H348.96V446.356L348.84 446.476H348.48V446.116 445.756H348V445.276L348.6 445.396 348.72 445.036 348.84 444.796 348.48 444.676 348 444.556 348.24 444.196 348.72 444.316 349.08 444.556 349.44 444.316 349.92 444.196H350.16L350.28 444.316 350.4 444.436 350.52 444.796 350.16 445.036 350.04 444.676 349.92 444.556 349.68 444.676 349.44 444.796 349.92 445.156H350.04V445.276L349.8 445.516 350.4 445.636V445.996L349.68 445.876 349.92 446.236 349.44 446.476ZM348.96 445.396 349.68 445.516 349.2 445.036 349.08 445.276 348.96 445.396Z" fill-rule="evenodd"/><path transform="matrix(1,0,0,-1,0,595.276)" d="M346.8 448.756 346.32 447.916 346.2 448.036 345.96 447.676 346.68 447.196 346.2 446.476H345.84L345.96 446.116 346.08 445.996 346.2 446.116 346.68 446.236V444.076H347.16V446.236L347.52 446.356V445.996L348 446.116 347.76 446.596 347.64 447.076 347.28 446.956 347.4 446.716 346.8 446.596 347.52 447.676H347.64L347.76 447.796H347.64V447.916L347.28 448.036 346.92 447.556 346.68 447.796 347.16 448.396 347.28 448.516V448.636Z" fill-rule="evenodd"/><path transform="matrix(1,0,0,-1,0,595.276)" d="M346.44 445.756H346.08V445.156L345.96 444.556 346.44 444.436V445.036L346.56 445.636V445.756Z" fill-rule="evenodd"/><path transform="matrix(1,0,0,-1,0,595.276)" d="M347.64 445.876 347.28 445.756 347.4 445.276V444.676L347.88 444.796Z" fill-rule="evenodd"/><path transform="matrix(1,0,0,-1,0,595.276)" d="M344.04 461.956H345.36V462.556H344.04V463.156H345.48V463.876H343.44V460.636H345.72V461.236H344.04Z" fill-rule="evenodd"/><path transform="matrix(1,0,0,-1,0,595.276)" d="M347.64 462.916H348.36L347.76 461.836 348.48 460.636H347.76L347.28 461.356 346.92 460.636H346.2L346.92 461.836 346.32 462.916H347.04L347.28 462.196Z" fill-rule="evenodd"/><path transform="matrix(1,0,0,-1,0,595.276)" d="M349.92 463.036C350.16 463.036 350.4 463.036 350.52 462.916 350.76 462.796 350.88 462.556 350.88 462.316L350.4 462.076C350.28 462.316 350.16 462.436 349.92 462.436 349.68 462.436 349.44 462.196 349.44 461.956 349.32 461.836 349.32 461.836 349.32 461.716L349.44 461.596C349.44 461.236 349.68 461.116 349.92 461.116 350.04 461.116 350.16 461.116 350.28 461.116 350.28 461.236 350.4 461.356 350.4 461.476L351 461.236C350.76 460.756 350.52 460.516 349.92 460.516 349.2 460.516 348.72 460.996 348.72 461.716 348.84 462.556 349.2 463.036 349.92 463.036Z" fill-rule="evenodd"/><path transform="matrix(1,0,0,-1,0,595.276)" d="M353.4 461.596C353.4 462.436 353.04 463.036 352.32 463.036 351.72 463.036 351.36 462.556 351.24 461.836 351.24 461.476 351.36 461.116 351.48 460.876 351.72 460.636 352.08 460.516 352.44 460.516 352.8 460.516 353.16 460.636 353.28 460.876L352.92 461.356C352.8 461.116 352.68 461.116 352.44 461.116 352.32 461.116 352.2 461.116 352.08 461.236L351.96 461.356C351.96 461.476 351.96 461.476 351.96 461.596H353.4ZM351.84 462.076V462.076C351.96 462.076 351.96 462.196 352.08 462.316 352.08 462.436 352.2 462.436 352.32 462.436 352.56 462.436 352.68 462.316 352.8 462.076H351.84Z" fill-rule="evenodd"/><path transform="matrix(1,0,0,-1,0,595.276)" d="M356.16 461.836C356.16 462.196 356.04 462.436 355.92 462.676 355.68 462.916 355.44 463.036 355.08 463.036 354.84 463.036 354.6 462.916 354.48 462.916H353.88V459.796H354.6V460.636C354.6 460.636 354.84 460.516 355.08 460.516 355.8 460.516 356.16 460.996 356.16 461.836ZM354.96 461.116C354.96 461.116 354.84 461.116 354.72 461.236 354.6 461.236 354.6 461.356 354.6 461.356V461.476 462.076C354.6 462.316 354.72 462.436 354.96 462.436H355.08C355.2 462.436 355.44 462.316 355.56 462.196V462.076 461.596 461.476C355.44 461.236 355.2 461.116 354.96 461.116Z" fill-rule="evenodd"/><path transform="matrix(1,0,0,-1,0,595.276)" d="M357.48 462.916H358.08V462.316H357.48V461.356C357.48 461.236 357.6 461.236 357.6 461.116H357.72C357.84 461.116 357.84 461.116 357.96 461.116H358.08L358.2 460.636C358.08 460.516 357.84 460.516 357.48 460.516 357.36 460.516 357.24 460.516 357.12 460.636 357 460.756 356.88 460.876 356.88 461.116V462.316H356.52V462.916H356.88V463.636L357.48 463.876V462.916Z" fill-rule="evenodd"/><path transform="matrix(1,0,0,-1,0,595.276)" d="M346.8 459.196V456.676 456.556C346.8 456.556 346.92 456.556 347.16 456.556L347.28 455.956H347.16 347.04C347.04 455.956 346.92 455.956 346.8 455.956 346.44 455.956 346.2 456.076 346.08 456.316V456.436 459.196H346.8Z" fill-rule="evenodd"/><path transform="matrix(1,0,0,-1,0,595.276)" d="M348.24 455.956V458.236H347.64V455.956Z" fill-rule="evenodd"/><path transform="matrix(1,0,0,-1,0,595.276)" d="M348.36 458.956C348.36 459.076 348.12 459.316 348 459.316 347.76 459.316 347.64 459.076 347.64 458.956 347.64 458.716 347.76 458.476 348 458.476 348.12 458.476 348.36 458.716 348.36 458.956Z" fill-rule="evenodd"/><path transform="matrix(1,0,0,-1,0,595.276)" d="M351 455.836V458.236H350.4C350.28 458.356 350.16 458.356 349.8 458.356 349.08 458.356 348.84 457.996 348.84 457.156 348.84 456.436 349.2 456.076 349.8 456.076 349.92 456.076 350.04 456.076 350.16 456.076 350.28 456.076 350.28 456.196 350.28 456.196V456.076C350.28 455.836 350.16 455.716 349.92 455.716 349.8 455.716 349.68 455.716 349.56 455.716 349.44 455.836 349.32 455.836 349.08 455.956L348.84 455.476C349.08 455.236 349.44 455.116 349.92 455.116 350.52 455.116 350.88 455.356 351 455.836ZM350.28 457.396V456.916C350.28 456.796 350.28 456.796 350.16 456.676 350.16 456.676 350.04 456.556 349.92 456.556 349.68 456.556 349.44 456.796 349.44 457.156 349.44 457.516 349.68 457.756 349.92 457.756 350.16 457.756 350.28 457.636 350.28 457.396Z" fill-rule="evenodd"/><path transform="matrix(1,0,0,-1,0,595.276)" d="M352.2 458.236C352.56 458.476 352.92 458.476 353.16 458.356 353.28 458.236 353.52 458.116 353.52 457.996 353.64 457.876 353.76 457.636 353.76 457.516V455.956H353.04V457.396C353.04 457.516 353.04 457.516 352.92 457.636 352.8 457.756 352.8 457.756 352.68 457.756 352.56 457.756 352.44 457.756 352.32 457.636V457.516C352.2 457.516 352.2 457.396 352.2 457.396V455.956H351.6V459.196H352.2V458.236Z" fill-rule="evenodd"/><path transform="matrix(1,0,0,-1,0,595.276)" d="M355.2 458.236H355.8V457.756H355.2V456.676C355.2 456.676 355.2 456.556 355.32 456.556 355.32 456.436 355.44 456.436 355.44 456.436 355.56 456.436 355.56 456.436 355.68 456.436 355.68 456.436 355.8 456.436 355.8 456.556L355.92 455.956C355.8 455.836 355.56 455.836 355.2 455.836 355.08 455.836 354.84 455.956 354.84 455.956 354.72 456.076 354.6 456.196 354.6 456.436V457.756H354.24V458.236H354.6V459.076L355.2 459.196V458.236Z" fill-rule="evenodd"/><path transform="matrix(1,0,0,-1,0,595.276)" d="M362.04 461.836C362.04 462.556 361.68 463.036 360.96 463.036 360.72 463.036 360.48 462.916 360.36 462.916H359.76V459.796H360.48V460.636C360.48 460.636 360.72 460.516 360.96 460.516 361.68 460.516 362.04 460.996 362.04 461.836ZM360.84 461.116C360.84 461.116 360.72 461.116 360.6 461.236 360.48 461.236 360.48 461.356 360.48 461.356V461.476 462.076C360.48 462.316 360.6 462.436 360.84 462.436H360.96C361.08 462.436 361.32 462.316 361.44 462.196V462.076 461.596 461.476C361.32 461.236 361.08 461.116 360.84 461.116Z" fill-rule="evenodd"/><path transform="matrix(1,0,0,-1,0,595.276)" d="M364.08 462.916H364.68V460.516H364.08V460.636C364.08 460.636 363.96 460.636 363.84 460.516 363.72 460.516 363.6 460.516 363.48 460.516 363.24 460.516 363 460.516 362.88 460.756 362.76 460.756 362.64 460.876 362.64 460.996 362.64 460.996 362.64 461.116 362.64 461.236V462.916H363.24V461.476C363.24 461.356 363.24 461.356 363.36 461.236 363.48 461.116 363.6 461.116 363.6 461.116 363.72 461.116 363.84 461.116 363.96 461.236 364.08 461.356 364.08 461.476 364.08 461.596V462.916Z" fill-rule="evenodd"/><path transform="matrix(1,0,0,-1,0,595.276)" d="M366.48 460.516C366.72 460.516 366.96 460.636 367.08 460.876 367.32 460.996 367.32 461.356 367.32 461.716 367.32 462.076 367.2 462.436 367.08 462.676 366.96 462.916 366.6 463.036 366.36 463.036 366.12 463.036 366 462.916 365.88 462.796V463.876H365.28V460.516H365.88V460.636C366 460.516 366.24 460.516 366.48 460.516ZM366.36 461.116C366.12 461.116 365.88 461.236 365.88 461.476V462.076C365.88 462.196 366 462.316 366 462.316 366.12 462.436 366.24 462.436 366.36 462.436 366.6 462.436 366.84 462.196 366.72 461.716 366.72 461.356 366.6 461.116 366.36 461.116Z" fill-rule="evenodd"/><path transform="matrix(1,0,0,-1,0,595.276)" d="M368.4 463.876V461.356 461.236C368.4 461.116 368.52 461.116 368.76 461.236L368.88 460.636C368.88 460.516 368.76 460.516 368.76 460.516 368.64 460.516 368.52 460.516 368.4 460.516 368.04 460.516 367.8 460.756 367.8 460.996V461.116 463.876H368.4Z" fill-rule="evenodd"/><path transform="matrix(1,0,0,-1,0,595.276)" d="M369.96 460.636V462.916H369.36V460.636Z" fill-rule="evenodd"/><path transform="matrix(1,0,0,-1,0,595.276)" d="M369.96 463.516C369.96 463.756 369.84 463.876 369.6 463.876 369.36 463.876 369.24 463.756 369.24 463.516 369.24 463.276 369.36 463.156 369.6 463.156 369.84 463.156 369.96 463.276 369.96 463.516Z" fill-rule="evenodd"/><path transform="matrix(1,0,0,-1,0,595.276)" d="M371.52 463.036C371.76 463.036 372 463.036 372.12 462.916 372.36 462.796 372.48 462.556 372.6 462.316L372 462.076C372 462.316 371.76 462.436 371.52 462.436 371.28 462.436 371.04 462.196 371.04 461.956 371.04 461.836 371.04 461.836 371.04 461.716V461.596C371.16 461.236 371.28 461.116 371.52 461.116 371.64 461.116 371.76 461.116 371.88 461.116 371.88 461.236 372 461.356 372 461.476L372.6 461.236C372.48 460.756 372.12 460.516 371.52 460.516 370.8 460.516 370.44 460.996 370.44 461.716 370.44 462.556 370.8 463.036 371.52 463.036Z" fill-rule="evenodd"/><path transform="matrix(1,0,0,-1,0,595.276)" d="M361.44 458.236H362.16V455.956H361.44V456.076C361.44 455.956 361.32 455.956 361.2 455.956 361.08 455.836 360.96 455.836 360.84 455.836 360.6 455.836 360.36 455.956 360.24 456.076 360 456.196 360 456.436 360 456.556V458.236H360.6V456.796C360.6 456.796 360.6 456.676 360.72 456.556 360.84 456.556 360.96 456.436 360.96 456.436 361.08 456.436 361.2 456.556 361.32 456.676 361.44 456.676 361.44 456.676 361.44 456.796V456.916 458.236Z" fill-rule="evenodd"/><path transform="matrix(1,0,0,-1,0,595.276)" d="M364.68 456.676C364.68 457.156 364.44 457.396 363.84 457.516 363.72 457.516 363.6 457.516 363.48 457.516L363.36 457.636C363.36 457.756 363.48 457.876 363.72 457.876 363.84 457.876 363.96 457.876 363.96 457.756 364.08 457.756 364.2 457.636 364.2 457.636L364.56 457.996C364.44 458.236 364.2 458.476 363.72 458.476 363.12 458.476 362.76 458.116 362.76 457.636 362.76 457.156 363 456.916 363.36 456.916 363.72 456.916 363.96 456.796 363.96 456.676 363.96 456.556 363.96 456.556 363.84 456.556 363.84 456.436 363.72 456.436 363.72 456.436 363.6 456.436 363.48 456.436 363.36 456.556 363.24 456.556 363.12 456.676 363 456.796L362.52 456.316C362.76 455.956 363.12 455.836 363.6 455.836 364.32 455.836 364.68 456.196 364.68 456.676Z" fill-rule="evenodd"/><path transform="matrix(1,0,0,-1,0,595.276)" d="M367.08 456.916C367.2 457.876 366.84 458.356 366 458.356 365.4 458.356 365.04 457.996 364.92 457.156 364.92 456.796 365.04 456.556 365.28 456.316 365.52 455.956 365.88 455.836 366.12 455.836 366.6 455.836 366.96 456.076 367.08 456.316L366.72 456.676C366.6 456.556 366.36 456.436 366.12 456.436 366 456.436 365.88 456.436 365.76 456.556 365.76 456.556 365.76 456.676 365.64 456.676 365.64 456.796 365.64 456.796 365.64 456.916H367.08ZM365.64 457.396V457.396C365.64 457.516 365.64 457.636 365.76 457.636 365.88 457.756 366 457.876 366.12 457.876 366.24 457.876 366.48 457.636 366.48 457.516V457.396H365.64Z" fill-rule="evenodd"/><path transform="matrix(1,0,0,-1,0,595.276)" d="M369.48 456.676C369.6 457.156 369.36 457.396 368.76 457.516 368.64 457.516 368.52 457.516 368.4 457.516 368.4 457.516 368.28 457.516 368.28 457.636 368.28 457.756 368.4 457.876 368.64 457.876 368.76 457.876 368.88 457.876 368.88 457.756 369 457.756 369.12 457.636 369.12 457.636L369.48 457.996C369.36 458.236 369 458.476 368.64 458.476 368.04 458.476 367.68 458.116 367.56 457.636 367.68 457.156 367.92 456.916 368.28 456.916 368.64 456.916 368.88 456.796 368.88 456.676 368.88 456.556 368.88 456.556 368.76 456.556 368.76 456.436 368.64 456.436 368.64 456.436 368.4 456.436 368.28 456.436 368.16 456.556 368.16 456.556 368.04 456.676 367.92 456.796L367.44 456.316C367.68 455.956 368.04 455.836 368.52 455.836 369.12 455.836 369.48 456.196 369.48 456.676Z" fill-rule="evenodd"/><path transform="matrix(1,0,0,-1,0,595.276)" d="M358.56 455.836C359.16 455.836 359.52 456.316 359.52 457.036 359.52 457.876 359.16 458.356 358.56 458.356 358.32 458.356 358.08 458.356 357.96 458.116V459.196H357.48V455.956H357.96V456.076C358.2 455.956 358.32 455.836 358.56 455.836ZM358.44 456.436C358.2 456.436 358.08 456.556 357.96 456.796V457.516C358.08 457.636 358.08 457.636 358.2 457.756 358.32 457.756 358.32 457.756 358.44 457.756 358.8 457.756 358.92 457.516 358.92 457.036 358.92 456.676 358.8 456.436 358.44 456.436Z" fill-rule="evenodd"/><path transform="matrix(1,0,0,-1,0,595.276)" d="M339.48 448.036H341.52V447.796H340.2V446.236H341.52V445.996L339.72 445.876 339.84 445.516V445.396H339.96L340.08 445.516 342.48 445.756V445.276H339.48V444.916H340.8L341.04 444.556 341.28 444.196 341.64 444.436 341.28 444.916H342.48V444.676 444.556 444.436H342.36 342.24 341.76L341.88 443.956H342.36 342.72L342.84 444.076 342.96 444.316V444.676 444.916H344.28V445.276H342.96V445.756H343.32L343.68 445.396 344.04 445.636 343.32 446.356V447.796H342V448.036H344.16V448.396H342V448.516L342.12 448.636V448.756H342 341.52V448.396H339.48V448.036ZM342 445.996V446.236H342.84L342.96 446.116 342 445.996ZM342 447.196V447.436H342.96V447.196H342ZM342 446.596V446.836H342.96V446.596H342ZM340.68 447.196V447.436H341.52V447.196H340.68ZM340.68 446.596V446.836H341.52V446.596H340.68Z" fill-rule="evenodd"/><path transform="matrix(1,0,0,-1,0,595.276)" d="M352.2 445.516 352.68 445.276 353.16 446.236 353.64 447.196V447.316H353.76L353.64 447.436 353.52 447.556 353.16 447.676 352.92 447.076 352.68 446.476 352.44 445.996Z" fill-rule="evenodd"/><path transform="matrix(1,0,0,-1,0,595.276)" d="M354.72 448.756H354.36V444.796 444.676 444.556H354.24 354.12 353.76L353.88 444.076H354.24 354.48L354.72 444.196 354.84 444.436V444.676 448.516L354.96 448.636 354.84 448.756Z" fill-rule="evenodd"/><path transform="matrix(1,0,0,-1,0,595.276)" d="M356.52 445.276 357.12 445.516 356.76 445.996 356.52 446.476 356.28 447.076 356.04 447.676 355.56 447.556 355.8 446.956 355.92 446.356 356.28 445.876Z" fill-rule="evenodd"/><path transform="matrix(1,0,0,-1,0,595.276)" d="M358.8 448.636V444.676 444.436L358.92 444.196H359.04L359.4 444.076H362.28 362.52L362.76 444.196 362.88 444.316 363 444.436 363.12 444.556 363.24 444.796 363.36 444.916V445.276L362.88 445.396 362.76 445.036 362.64 444.796 362.4 444.676 362.16 444.556H359.52 359.4V444.676L359.28 444.796V444.916 446.476H362.28V446.236H362.76V448.636H358.8ZM359.28 446.956V448.156H360.48V446.956H359.28ZM360.96 446.956V448.156H362.28V446.956H360.96Z" fill-rule="evenodd"/><path transform="matrix(1,0,0,-1,0,595.276)" d="M364.8 446.716 365.28 446.356 365.52 446.716V444.076H366V447.556L366.36 448.516V448.036H366.84L366.72 447.436 366.6 446.836 366.36 446.356 366.12 445.876 366.6 445.516 366.72 445.876 367.32 445.516 367.08 445.276 366.84 444.916 366.48 444.676 366.12 444.556 366.48 444.196 366.84 444.436 367.2 444.676 367.44 444.916 367.68 445.276 367.92 445.756 368.04 446.236V446.716 447.316H367.2L367.32 448.036H368.16V448.516H366.48L366.36 448.636 366 448.756 365.76 448.156 365.52 447.676 365.16 447.076 364.8 446.716ZM367.08 446.836H367.68L367.44 445.996 366.96 446.356 367.08 446.836Z" fill-rule="evenodd"/><path transform="matrix(1,0,0,-1,0,595.276)" d="M368.4 448.156V445.036H368.88V447.916 448.036L368.76 448.156Z" fill-rule="evenodd"/><path transform="matrix(1,0,0,-1,0,595.276)" d="M369.24 448.756V444.916 444.676L369.12 444.556H369 368.52L368.64 444.076H369.24L369.48 444.196 369.6 444.316 369.72 444.436V444.676 448.516L369.84 448.636H369.72V448.756Z" fill-rule="evenodd"/><path transform="matrix(1,0,0,-1,0,595.276)" d="M372.84 448.756H372.48L372.36 448.156 372.12 447.436 371.76 446.956 371.4 446.356 371.76 445.996 372.24 446.716 372.6 447.436H373.44L373.32 446.836 373.08 446.236 372.48 446.596 372.24 446.236 372.6 445.996 372.96 445.756 372.72 445.396 372.36 445.036 371.88 444.796 371.4 444.556 371.76 444.076 372.24 444.196 372.6 444.436 372.84 444.796 373.2 445.156 373.44 445.756 373.68 446.236 373.92 446.956 374.04 447.676 373.68 448.036 373.56 447.916H372.84L372.96 448.516H373.08V448.636Z" fill-rule="evenodd"/><path transform="matrix(1,0,0,-1,0,595.276)" d="M375 448.756H374.64V446.716L374.4 447.076 374.04 446.836 374.4 446.476 374.64 446.116V444.076H375.24V445.756L375.96 445.276 376.32 445.756 375.72 445.996 375.24 446.356V448.516L375.36 448.636 375.24 448.756Z" fill-rule="evenodd"/></g></svg>