<?xml version='1.0' encoding='UTF-8'?>
<svg width="549.58" height="257.98" viewBox="8.08 6.37 549.58 257.98" xmlns="http://www.w3.org/2000/svg" xmlns:xlink="http://www.w3.org/1999/xlink" xmlns:inkscape="http://www.inkscape.org/namespaces/inkscape" version="1.1"><g transform="scale(10.0) translate(-438.573, -289.584)"><defs><clipPath id="clip_2"><path transform="matrix(1,0,0,-1,0,595.276)" d="M74.4 .196H767.4V595.276H74.4Z"/></clipPath></defs><path transform="matrix(1,0,0,-1,0,595.276)" d="M492.6 279.796H441.12C440.88 279.796 440.52 279.916 440.28 280.156 440.04 280.396 439.92 280.636 439.92 280.996V303.316C439.92 303.676 440.04 303.916 440.28 304.156 440.52 304.396 440.88 304.516 441.12 304.516H492.6C492.72 304.516 492.96 304.516 493.08 304.396 493.2 304.396 493.32 304.276 493.44 304.156 493.56 304.036 493.68 303.916 493.68 303.796 493.8 303.676 493.8 303.436 493.8 303.316V280.996C493.8 280.636 493.68 280.396 493.44 280.156 493.2 279.916 492.96 279.796 492.6 279.796ZM492.6 280.396C492.84 280.396 492.96 280.396 493.08 280.516 493.2 280.636 493.2 280.756 493.2 280.996V303.316C493.2 303.436 493.2 303.436 493.2 303.556 493.2 303.676 493.08 303.676 493.08 303.796 492.96 303.916 492.84 303.916 492.6 303.916H441.12C441.12 303.916 441 303.916 440.88 303.916L440.76 303.796C440.64 303.676 440.52 303.436 440.52 303.316V280.996C440.52 280.876 440.52 280.756 440.64 280.756 440.64 280.636 440.64 280.636 440.76 280.516 440.88 280.396 441 280.396 441.12 280.396H492.6Z" fill-rule="evenodd"/><path transform="matrix(1,0,0,-1,0,595.276)" d="M441.12 303.916H492.6C492.72 303.916 492.84 303.916 492.84 303.916 492.96 303.916 492.96 303.796 493.08 303.796 493.08 303.676 493.2 303.676 493.2 303.556 493.2 303.436 493.2 303.436 493.2 303.316V280.996C493.2 280.756 493.2 280.636 493.08 280.516 492.96 280.516 492.96 280.396 492.84 280.396 492.84 280.396 492.72 280.396 492.6 280.396H441.12C441 280.396 440.88 280.396 440.76 280.516 440.64 280.636 440.64 280.636 440.64 280.756 440.52 280.756 440.52 280.876 440.52 280.996V303.316C440.52 303.676 440.76 303.916 441.12 303.916Z" fill="#ffffff" fill-rule="evenodd"/><path transform="matrix(1,0,0,-1,0,595.276)" d="M471.6 299.236C471.6 299.716 471.36 299.956 470.88 299.956 470.64 299.956 470.52 300.076 470.52 300.076H470.4V300.196C470.4 300.316 470.52 300.316 470.76 300.436 470.76 300.436 470.88 300.316 471 300.316 471.12 300.316 471.12 300.196 471.24 300.076L471.6 300.556C471.36 300.796 471.12 300.916 470.76 300.916 470.04 300.916 469.8 300.676 469.8 300.076 469.8 299.716 470.04 299.476 470.4 299.476 470.76 299.476 470.88 299.356 470.88 299.236V299.116C470.88 298.996 470.76 298.996 470.64 298.996 470.52 298.996 470.4 298.996 470.28 299.116 470.16 299.116 470.16 299.236 470.04 299.356L469.56 298.876C469.8 298.636 470.16 298.396 470.64 298.396 470.88 298.396 471.24 298.516 471.36 298.636 471.48 298.756 471.6 298.996 471.6 299.236Z" fill-rule="evenodd"/><path transform="matrix(1,0,0,-1,0,595.276)" d="M476.28 299.236C476.28 299.716 476.04 299.956 475.56 299.956 475.44 299.956 475.32 300.076 475.2 300.076H475.08V300.196C475.08 300.316 475.2 300.316 475.44 300.436 475.56 300.436 475.56 300.316 475.68 300.316 475.8 300.316 475.8 300.196 475.92 300.076L476.28 300.556C476.16 300.796 475.8 300.916 475.44 300.916 474.84 300.916 474.48 300.676 474.48 300.076 474.48 299.716 474.72 299.476 475.08 299.476 475.44 299.476 475.68 299.356 475.68 299.236 475.68 299.116 475.68 299.116 475.56 299.116 475.56 298.996 475.44 298.996 475.44 298.996 475.32 298.996 475.2 298.996 475.08 299.116 474.96 299.116 474.84 299.236 474.72 299.356L474.36 298.876C474.6 298.636 474.96 298.396 475.32 298.396 475.68 298.396 475.92 298.516 476.04 298.636 476.28 298.756 476.28 298.996 476.28 299.236Z" fill-rule="evenodd"/><path transform="matrix(1,0,0,-1,0,595.276)" d="M480.6 294.796C480.6 295.156 480.36 295.396 479.88 295.516 479.64 295.516 479.52 295.516 479.52 295.516 479.4 295.636 479.4 295.636 479.4 295.756 479.4 295.756 479.52 295.876 479.76 295.876 479.76 295.876 479.88 295.876 480 295.876 480.12 295.756 480.12 295.756 480.24 295.636L480.6 296.116C480.36 296.356 480.12 296.476 479.76 296.476 479.04 296.476 478.8 296.116 478.68 295.636 478.8 295.276 479.04 295.036 479.4 294.916 479.76 294.916 479.88 294.916 479.88 294.676V294.556C479.88 294.556 479.76 294.556 479.64 294.556 479.52 294.556 479.4 294.556 479.28 294.556 479.16 294.676 479.16 294.676 479.04 294.796L478.56 294.436C478.8 294.076 479.16 293.956 479.64 293.956 480.24 293.956 480.6 294.196 480.6 294.796Z" fill-rule="evenodd"/><path transform="matrix(1,0,0,-1,0,595.276)" d="M485.28 294.796C485.28 295.156 485.04 295.396 484.56 295.516 484.44 295.516 484.32 295.516 484.2 295.516 484.08 295.636 484.08 295.636 484.08 295.756 484.08 295.756 484.2 295.876 484.44 295.876 484.56 295.876 484.56 295.876 484.68 295.876 484.8 295.756 484.8 295.756 484.92 295.636L485.28 296.116C485.16 296.356 484.8 296.476 484.44 296.476 483.84 296.476 483.48 296.116 483.48 295.636 483.48 295.276 483.72 295.036 484.08 294.916 484.44 294.916 484.68 294.916 484.68 294.676 484.68 294.676 484.68 294.556 484.56 294.556H484.44C484.2 294.556 484.08 294.556 484.08 294.556 483.96 294.676 483.84 294.676 483.72 294.796L483.36 294.436C483.6 294.076 483.96 293.956 484.32 293.956 484.92 293.956 485.28 294.196 485.28 294.796Z" fill-rule="evenodd"/><path transform="matrix(1,0,0,-1,0,595.276)" d="M455.04 300.916C455.28 300.916 455.52 300.796 455.76 300.676 455.88 300.556 456 300.436 456.12 300.196L455.52 299.956C455.52 300.196 455.28 300.316 455.04 300.316 454.8 300.316 454.68 300.076 454.56 299.836V299.716C454.56 299.596 454.56 299.596 454.56 299.476 454.68 299.236 454.8 298.996 455.16 298.996 455.28 298.996 455.28 298.996 455.4 299.116 455.52 299.116 455.52 299.236 455.52 299.356L456.12 299.236C456 298.636 455.64 298.396 455.16 298.396 454.32 298.396 453.96 298.876 453.96 299.716 454.08 300.436 454.44 300.916 455.04 300.916Z" fill-rule="evenodd"/><path transform="matrix(1,0,0,-1,0,595.276)" d="M474 299.476C474 300.316 473.64 300.916 472.92 300.916 472.32 300.916 471.96 300.436 471.96 299.716 471.96 299.356 471.96 299.116 472.2 298.876 472.44 298.636 472.8 298.396 473.04 298.396 473.4 298.396 473.88 298.636 473.88 298.876L473.52 299.236C473.52 299.116 473.28 298.996 473.04 298.996 472.92 298.996 472.8 298.996 472.68 299.116 472.68 299.116 472.68 299.236 472.56 299.236 472.56 299.356 472.56 299.356 472.56 299.476H474ZM472.56 299.956V299.956C472.56 300.076 472.56 300.076 472.68 300.196 472.8 300.316 472.92 300.316 472.92 300.316 473.16 300.316 473.4 300.196 473.4 299.956H472.56Z" fill-rule="evenodd"/><path transform="matrix(1,0,0,-1,0,595.276)" d="M483 294.916C483 295.876 482.64 296.356 481.92 296.356 481.32 296.356 480.96 295.996 480.96 295.156 480.96 294.916 480.96 294.556 481.2 294.316 481.44 294.076 481.8 293.956 482.04 293.956 482.4 293.956 482.88 294.076 482.88 294.316L482.52 294.796C482.52 294.556 482.28 294.556 482.04 294.556 481.92 294.556 481.8 294.556 481.68 294.676L481.56 294.796V294.916H483ZM481.56 295.396V295.396C481.56 295.516 481.56 295.636 481.68 295.756 481.8 295.756 481.92 295.876 481.92 295.876 482.16 295.876 482.4 295.636 482.4 295.516V295.396H481.56Z" fill-rule="evenodd"/><path transform="matrix(1,0,0,-1,0,595.276)" d="M458.52 299.476C458.52 300.316 458.16 300.916 457.44 300.916 456.84 300.916 456.48 300.436 456.36 299.716 456.36 299.356 456.48 299.116 456.6 298.876 456.84 298.636 457.2 298.396 457.56 298.396 457.92 298.396 458.28 298.636 458.4 298.876L458.04 299.236C457.92 299.116 457.8 298.996 457.56 298.996 457.44 298.996 457.32 298.996 457.2 299.116L457.08 299.236C457.08 299.356 457.08 299.356 457.08 299.476H458.52ZM457.08 299.956V299.956C457.08 300.076 457.08 300.076 457.2 300.196 457.2 300.316 457.32 300.316 457.44 300.316 457.68 300.316 457.8 300.196 457.92 299.956H457.08Z" fill-rule="evenodd"/><path transform="matrix(1,0,0,-1,0,595.276)" d="M484.56 300.676V301.636H485.16V298.516H484.56V298.636C484.44 298.516 484.2 298.396 483.96 298.396 483.48 298.396 483 298.756 482.88 299.596L483 299.836C483 300.556 483.36 300.796 483.96 300.916 484.08 300.916 484.32 300.796 484.56 300.676ZM484.56 299.236V299.836 299.956C484.56 300.076 484.44 300.076 484.44 300.076V300.196C484.32 300.196 484.2 300.316 484.08 300.316 483.72 300.196 483.6 300.076 483.48 299.716 483.6 299.236 483.72 298.996 484.08 298.996 484.32 298.996 484.44 299.116 484.56 299.236Z" fill-rule="evenodd"/><path transform="matrix(1,0,0,-1,0,595.276)" d="M464.76 294.076V296.356H464.16V294.076Z" fill-rule="evenodd"/><path transform="matrix(1,0,0,-1,0,595.276)" d="M464.76 296.836C464.76 297.076 464.64 297.196 464.4 297.196 464.16 297.196 464.04 297.076 464.04 296.836 464.04 296.716 464.16 296.476 464.4 296.476 464.64 296.476 464.76 296.716 464.76 296.836Z" fill-rule="evenodd"/><path transform="matrix(1,0,0,-1,0,595.276)" d="M458.52 294.076V296.356H457.92V294.076Z" fill-rule="evenodd"/><path transform="matrix(1,0,0,-1,0,595.276)" d="M458.52 296.836C458.52 297.076 458.4 297.196 458.16 297.196 457.92 297.196 457.8 297.076 457.8 296.836 457.8 296.716 457.92 296.476 458.16 296.476 458.4 296.476 458.52 296.716 458.52 296.836Z" fill-rule="evenodd"/><path transform="matrix(1,0,0,-1,0,595.276)" d="M465.72 298.396C466.32 298.396 466.68 298.876 466.68 299.596 466.68 300.436 466.32 300.916 465.72 300.916 465.48 300.916 465.36 300.796 465.12 300.676V301.636H464.64V298.516H465.24V298.636C465.36 298.516 465.6 298.396 465.72 298.396ZM465.6 298.996C465.36 298.996 465.24 299.116 465.24 299.356V299.956C465.24 300.076 465.36 300.196 465.36 300.196 465.48 300.316 465.48 300.316 465.6 300.316 465.96 300.316 466.08 300.076 466.08 299.596 466.08 299.236 465.96 298.996 465.6 298.996Z" fill-rule="evenodd"/><path transform="matrix(1,0,0,-1,0,595.276)" d="M455.04 293.956C455.52 293.956 455.88 294.436 455.88 295.156 455.88 295.876 455.52 296.356 455.04 296.356 454.8 296.356 454.56 296.356 454.44 296.236V297.196H453.96V293.956H454.44V294.076C454.68 293.956 454.8 293.956 455.04 293.956ZM454.92 294.556C454.68 294.556 454.56 294.676 454.44 294.796V295.516C454.56 295.636 454.56 295.636 454.68 295.756 454.8 295.756 454.8 295.876 454.92 295.876 455.28 295.756 455.4 295.516 455.4 295.156 455.4 294.676 455.16 294.556 454.92 294.556Z" fill-rule="evenodd"/><path transform="matrix(1,0,0,-1,0,595.276)" d="M450.84 295.156C450.84 295.996 450.36 296.356 449.76 296.356 449.52 296.356 449.16 296.356 449.16 296.236V296.356H448.56V293.236H449.16V294.196C449.28 294.076 449.52 293.956 449.76 293.956 450.36 293.956 450.84 294.436 450.84 295.156ZM449.64 294.556C449.52 294.556 449.4 294.556 449.4 294.676 449.28 294.796 449.16 294.796 449.16 294.916V295.516C449.16 295.636 449.4 295.876 449.64 295.876 449.88 295.876 450.12 295.756 450.12 295.516V295.396 294.916 294.796C450.12 294.676 449.76 294.556 449.64 294.556Z" fill-rule="evenodd"/><path transform="matrix(1,0,0,-1,0,595.276)" d="M479.88 298.876 479.76 298.516C479.64 298.516 479.52 298.516 479.4 298.516 479.28 298.516 479.16 298.636 479.16 298.636 479.16 298.516 478.8 298.396 478.56 298.396 478.32 298.396 478.08 298.516 477.96 298.636 477.72 298.756 477.72 298.996 477.72 299.236 477.72 299.716 478.2 299.956 479.04 299.956V300.076C479.04 300.196 479.04 300.196 478.92 300.316H478.8C478.56 300.316 478.44 300.316 478.32 300.316 478.2 300.196 478.2 300.196 478.08 300.076L477.72 300.556C477.96 300.796 478.32 300.916 478.68 300.916 479.04 300.916 479.28 300.916 479.4 300.796 479.52 300.676 479.64 300.436 479.64 300.196V299.116C479.64 298.996 479.76 298.876 479.88 298.876ZM478.32 299.236C478.32 299.116 478.44 299.116 478.44 298.996 478.56 298.996 478.56 298.996 478.68 298.996 478.92 298.996 479.04 298.996 479.04 299.116V299.476C478.8 299.476 478.68 299.476 478.56 299.476 478.44 299.356 478.32 299.356 478.32 299.236Z" fill-rule="evenodd"/><path transform="matrix(1,0,0,-1,0,595.276)" d="M482.4 298.516V300.076 300.196C482.4 300.676 482.16 300.916 481.56 300.916 481.44 300.916 481.32 300.916 481.2 300.796 481.08 300.796 481.08 300.796 480.96 300.676V300.796H480.36V298.516H480.96V299.956C481.08 300.196 481.2 300.316 481.44 300.316 481.68 300.316 481.8 300.196 481.8 299.956V299.836 298.516H482.4Z" fill-rule="evenodd"/><path transform="matrix(1,0,0,-1,0,595.276)" d="M474.72 293.956C475.32 293.956 475.68 294.436 475.68 295.156 475.68 295.516 475.56 295.756 475.32 295.996 475.2 296.236 474.96 296.356 474.72 296.356 474.48 296.356 474.36 296.356 474.12 296.236V297.196H473.64V293.956H474.24V294.076C474.36 293.956 474.6 293.956 474.72 293.956ZM474.6 294.556C474.36 294.556 474.24 294.676 474.24 294.796V295.516C474.24 295.636 474.36 295.636 474.36 295.756 474.48 295.756 474.48 295.876 474.6 295.876 474.96 295.756 475.08 295.516 475.08 295.156 475.08 294.676 474.84 294.556 474.6 294.556Z" fill-rule="evenodd"/><path transform="matrix(1,0,0,-1,0,595.276)" d="M452.88 300.796H453.6L452.88 299.716 453.72 298.516H453L452.52 299.236 452.16 298.516H451.44L452.16 299.716 451.56 300.796H452.28L452.52 300.196Z" fill-rule="evenodd"/><path transform="matrix(1,0,0,-1,0,595.276)" d="M456.96 297.196V294.796 294.676C456.96 294.556 457.08 294.556 457.32 294.556L457.44 294.076C457.32 294.076 457.32 294.076 457.32 293.956 457.2 293.956 457.08 293.956 456.96 293.956 456.6 293.956 456.36 294.196 456.36 294.436V294.556 297.196H456.96Z" fill-rule="evenodd"/><path transform="matrix(1,0,0,-1,0,595.276)" d="M463.2 297.196V294.796 294.676C463.2 294.556 463.32 294.556 463.56 294.556L463.68 294.076C463.56 294.076 463.56 294.076 463.56 293.956 463.44 293.956 463.32 293.956 463.2 293.956 462.84 293.956 462.6 294.196 462.6 294.436V294.556 297.196H463.2Z" fill-rule="evenodd"/><path transform="matrix(1,0,0,-1,0,595.276)" d="M471.48 296.356H472.08V295.756H471.48V294.796C471.48 294.676 471.48 294.676 471.48 294.556 471.6 294.556 471.6 294.556 471.72 294.556H471.84 471.96L472.08 294.076C471.96 293.956 471.84 293.956 471.48 293.956 471.24 293.956 471.12 293.956 471 294.076 470.88 294.196 470.88 294.316 470.88 294.556V295.756H470.52V296.356H470.88V297.076L471.48 297.196V296.356Z" fill-rule="evenodd"/><path transform="matrix(1,0,0,-1,0,595.276)" d="M462.48 300.796H463.08V300.196H462.48V299.236 299.116C462.6 298.996 462.6 298.996 462.72 298.996H462.84C462.84 298.996 462.96 298.996 463.08 299.116V298.516C462.96 298.516 462.84 298.396 462.48 298.396 462.24 298.396 462.12 298.516 462 298.516 461.88 298.636 461.88 298.756 461.88 298.996V300.196H461.52V300.796H461.88V301.516L462.48 301.756V300.796Z" fill-rule="evenodd"/><path transform="matrix(1,0,0,-1,0,595.276)" d="M467.28 293.956V296.356H466.68V296.236C466.68 296.356 466.44 296.356 466.2 296.356 465.48 296.356 465.12 295.996 465.12 295.156 465.24 294.436 465.6 294.196 466.2 294.076 466.32 294.076 466.32 294.076 466.44 294.196 466.56 294.196 466.68 294.196 466.68 294.316V294.196C466.56 293.956 466.56 293.836 466.32 293.836 466.2 293.836 466.08 293.836 465.96 293.836 465.84 293.956 465.6 293.956 465.48 294.076L465.12 293.596C465.48 293.356 465.84 293.236 466.2 293.236 466.92 293.236 467.28 293.476 467.28 293.956ZM466.68 295.516V294.916L466.56 294.796C466.44 294.676 466.44 294.676 466.32 294.676 465.96 294.676 465.84 294.916 465.84 295.276 465.84 295.516 465.96 295.756 466.2 295.756 466.44 295.756 466.68 295.636 466.68 295.516Z" fill-rule="evenodd"/><path transform="matrix(1,0,0,-1,0,595.276)" d="M468.6 296.236C468.84 296.476 469.2 296.476 469.44 296.356 469.56 296.236 469.8 296.116 469.8 295.996 469.92 295.876 469.92 295.636 469.92 295.516V294.076H469.32V295.396C469.32 295.516 469.32 295.636 469.2 295.636 469.2 295.756 469.08 295.756 468.96 295.756 468.84 295.756 468.72 295.756 468.72 295.636 468.6 295.636 468.6 295.636 468.6 295.516V295.396 294.076H467.88V297.196H468.6V296.236Z" fill-rule="evenodd"/><path transform="matrix(1,0,0,-1,0,595.276)" d="M452.76 296.356H453.36V293.956H452.64V294.076L452.52 293.956C452.4 293.956 452.28 293.956 452.16 293.956 451.92 293.956 451.68 293.956 451.56 294.196 451.44 294.196 451.32 294.316 451.32 294.436 451.32 294.436 451.32 294.556 451.32 294.676V296.356H451.92V294.916C451.92 294.796 451.92 294.796 452.04 294.676 452.04 294.556 452.16 294.556 452.28 294.556 452.4 294.556 452.52 294.556 452.64 294.676V294.796C452.76 294.916 452.76 294.916 452.76 295.036V296.356Z" fill-rule="evenodd"/><path transform="matrix(1,0,0,-1,0,595.276)" d="M468.48 300.796H469.2V298.516H468.48V298.636C468.48 298.516 468.48 298.516 468.36 298.516 468.24 298.396 468.12 298.396 468 298.396 467.76 298.396 467.52 298.516 467.28 298.636 467.16 298.756 467.04 298.996 467.04 299.116V300.796H467.76V299.356C467.76 299.356 467.76 299.236 467.88 299.116 467.88 299.116 468 298.996 468.12 298.996 468.24 298.996 468.36 299.116 468.36 299.116 468.48 299.236 468.48 299.356 468.48 299.476V300.796Z" fill-rule="evenodd"/><path transform="matrix(1,0,0,-1,0,595.276)" d="M477.48 296.356H478.2V293.956H477.48V294.076L477.36 293.956C477.24 293.956 477 293.956 477 293.956 476.76 293.956 476.52 293.956 476.28 294.196 476.28 294.196 476.16 294.316 476.16 294.436 476.04 294.436 476.04 294.556 476.04 294.676V296.356H476.76V294.916C476.76 294.796 476.76 294.796 476.88 294.676 476.88 294.556 477 294.556 477.12 294.556 477.24 294.556 477.36 294.556 477.36 294.676 477.48 294.796 477.48 294.916 477.48 295.036V296.356Z" fill-rule="evenodd"/><path transform="matrix(1,0,0,-1,0,595.276)" d="M461.16 299.716C461.16 300.076 461.04 300.316 460.92 300.556 460.68 300.796 460.44 300.916 460.08 300.916 459.84 300.916 459.6 300.796 459.6 300.676V300.796H459V297.796H459.6V298.636C459.6 298.516 459.96 298.396 460.08 298.396 460.8 298.396 461.16 298.996 461.16 299.716ZM460.08 298.996C459.96 298.996 459.84 299.116 459.72 299.116 459.6 299.236 459.6 299.356 459.6 299.356V299.956C459.6 300.196 459.84 300.316 460.08 300.316 460.2 300.316 460.44 300.196 460.56 300.076V299.956 299.476 299.356C460.44 299.116 460.2 298.996 460.08 298.996Z" fill-rule="evenodd"/><path transform="matrix(1,0,0,-1,0,595.276)" d="M449.4 299.836H450.72V300.436H449.4V301.036H450.84V301.636H448.8V298.516H451.08V299.116H449.4Z" fill-rule="evenodd"/><path transform="matrix(1,0,0,-1,0,595.276)" d="M460.08 296.356C460.32 296.356 460.56 296.356 460.68 296.236 460.92 296.116 461.04 295.996 461.04 295.756L460.56 295.516C460.44 295.756 460.32 295.876 460.08 295.876 459.84 295.876 459.6 295.636 459.6 295.276V295.156 295.036C459.72 294.676 459.84 294.556 460.08 294.556 460.2 294.556 460.32 294.556 460.44 294.556 460.44 294.676 460.56 294.796 460.56 294.916L461.16 294.676C460.92 294.196 460.68 293.956 460.08 293.956 459.36 293.956 459 294.436 459 295.156 459 295.996 459.36 296.356 460.08 296.356Z" fill-rule="evenodd"/><path transform="matrix(1,0,0,-1,0,595.276)" d="M487.44 290.716C487.44 290.356 487.32 289.996 487.2 289.756 487.08 289.396 486.84 289.276 486.48 289.036L486.84 288.676C487.2 288.796 487.56 289.036 487.8 289.396 487.92 289.756 488.04 290.116 488.16 290.716 488.04 291.316 487.92 291.796 487.8 292.156 487.68 292.396 487.56 292.516 487.32 292.636 487.2 292.756 486.96 292.876 486.84 292.876L486.48 292.396C487.08 292.156 487.44 291.556 487.44 290.716Z" fill-rule="evenodd"/><path transform="matrix(1,0,0,-1,0,595.276)" d="M446.28 290.716C446.28 290.356 446.4 289.996 446.52 289.756 446.76 289.396 446.88 289.276 447.24 289.036L447 288.676C446.52 288.796 446.28 289.036 446.04 289.396 445.8 289.756 445.68 290.116 445.68 290.716 445.68 291.316 445.8 291.796 446.04 292.156 446.16 292.396 446.28 292.516 446.4 292.636 446.52 292.756 446.76 292.876 447 292.876L447.24 292.396C446.64 292.156 446.28 291.556 446.28 290.716Z" fill-rule="evenodd"/><path transform="matrix(1,0,0,-1,0,595.276)" d="M450 290.236C450 290.716 449.76 290.956 449.28 291.076 449.04 291.076 448.92 291.076 448.92 291.076 448.8 291.076 448.8 291.196 448.8 291.196 448.8 291.316 448.92 291.436 449.04 291.436 449.16 291.436 449.28 291.436 449.4 291.316L449.52 291.196 450 291.556C449.76 291.796 449.52 291.916 449.16 291.916 448.44 291.916 448.2 291.676 448.08 291.196 448.2 290.716 448.44 290.476 448.8 290.476 449.16 290.476 449.28 290.356 449.28 290.236V290.116C449.16 289.996 449.16 289.996 449.04 289.996 448.92 289.996 448.8 290.116 448.68 290.116 448.56 290.116 448.44 290.236 448.44 290.356L447.96 289.876C448.2 289.636 448.56 289.516 449.04 289.516 449.64 289.516 450 289.756 450 290.236Z" fill-rule="evenodd"/><path transform="matrix(1,0,0,-1,0,595.276)" d="M472.92 290.236C472.92 290.716 472.68 290.956 472.2 291.076 471.96 291.076 471.84 291.076 471.84 291.076 471.72 291.076 471.72 291.196 471.72 291.196 471.72 291.316 471.84 291.436 471.96 291.436 472.08 291.436 472.2 291.436 472.32 291.316 472.32 291.316 472.44 291.196 472.56 291.196L472.92 291.556C472.68 291.796 472.44 291.916 472.08 291.916 471.36 291.916 471.12 291.676 471 291.196 471.12 290.716 471.36 290.476 471.72 290.476 472.08 290.476 472.2 290.356 472.2 290.236V290.116C472.08 289.996 472.08 289.996 471.96 289.996 471.84 289.996 471.72 290.116 471.6 290.116 471.48 290.116 471.36 290.236 471.36 290.356L470.88 289.876C471.12 289.636 471.48 289.516 471.96 289.516 472.56 289.516 472.92 289.756 472.92 290.236Z" fill-rule="evenodd"/><path transform="matrix(1,0,0,-1,0,595.276)" d="M482.28 291.916C482.52 291.916 482.76 291.916 482.88 291.796 483.12 291.676 483.24 291.436 483.24 291.196L482.76 290.956C482.64 291.196 482.52 291.316 482.28 291.316 482.04 291.316 481.8 291.196 481.8 290.836V290.716 290.596 290.476C481.92 290.236 482.04 289.996 482.28 289.996 482.4 289.996 482.52 289.996 482.64 290.116 482.64 290.236 482.76 290.236 482.76 290.476L483.24 290.236C483.12 289.636 482.88 289.396 482.28 289.516 481.56 289.516 481.2 289.876 481.2 290.716 481.2 291.556 481.56 291.916 482.28 291.916Z" fill-rule="evenodd"/><path transform="matrix(1,0,0,-1,0,595.276)" d="M485.64 290.476C485.64 291.436 485.4 291.916 484.56 291.916 483.96 291.916 483.6 291.556 483.6 290.716 483.6 290.356 483.72 290.116 483.84 289.876 484.08 289.636 484.44 289.516 484.68 289.516 485.16 289.396 485.52 289.636 485.64 289.876L485.28 290.236C485.16 290.116 484.92 289.996 484.68 289.996 484.56 289.996 484.44 289.996 484.44 290.116 484.32 290.236 484.32 290.236 484.32 290.356 484.2 290.356 484.2 290.476 484.2 290.476H485.64ZM484.2 290.956V290.956C484.2 291.076 484.32 291.196 484.32 291.196 484.44 291.316 484.56 291.316 484.68 291.316 484.8 291.316 485.04 291.196 485.04 290.956H484.2Z" fill-rule="evenodd"/><path transform="matrix(1,0,0,-1,0,595.276)" d="M457.44 290.476C457.56 291.436 457.2 291.916 456.48 291.916 455.76 291.916 455.52 291.556 455.4 290.716 455.4 290.356 455.52 290.116 455.64 289.876 455.88 289.636 456.24 289.516 456.6 289.516 456.96 289.396 457.32 289.636 457.44 289.876L457.08 290.236C456.96 290.116 456.72 289.996 456.6 289.996 456.48 289.996 456.36 289.996 456.24 290.116 456.12 290.236 456.12 290.236 456.12 290.356V290.476H457.44ZM456 290.956V290.956C456 291.076 456.12 291.196 456.24 291.196 456.24 291.316 456.36 291.316 456.48 291.316 456.6 291.316 456.84 291.196 456.84 290.956H456Z" fill-rule="evenodd"/><path transform="matrix(1,0,0,-1,0,595.276)" d="M451.44 291.916C451.68 291.916 451.8 291.916 452.04 291.796 452.16 291.676 452.28 291.436 452.4 291.196L451.92 290.956C451.8 291.196 451.68 291.316 451.44 291.316 451.08 291.316 450.96 291.196 450.96 290.836L450.84 290.716 450.96 290.596V290.476C450.96 290.236 451.2 289.996 451.44 289.996 451.56 289.996 451.68 289.996 451.68 290.116 451.8 290.236 451.8 290.236 451.92 290.476L452.4 290.236C452.28 289.636 451.92 289.396 451.44 289.516 450.72 289.516 450.36 289.876 450.24 290.716 450.36 291.556 450.72 291.916 451.44 291.916Z" fill-rule="evenodd"/><path transform="matrix(1,0,0,-1,0,595.276)" d="M453.36 291.676C453.72 291.916 454.08 292.036 454.32 291.796 454.44 291.796 454.56 291.676 454.68 291.556 454.8 291.316 454.8 291.196 454.8 291.076V289.516H454.2V290.956C454.2 291.076 454.2 291.076 454.08 291.196 453.96 291.316 453.96 291.316 453.84 291.316 453.72 291.316 453.6 291.316 453.48 291.196 453.48 291.076 453.36 291.076 453.36 290.956V289.516H452.76V292.756H453.36V291.676Z" fill-rule="evenodd"/><path transform="matrix(1,0,0,-1,0,595.276)" d="M468.72 291.676V292.756H469.32V289.516H468.72V289.636C468.6 289.516 468.48 289.516 468.24 289.516 467.64 289.396 467.28 289.756 467.16 290.596V290.836 290.956C467.16 291.556 467.64 291.916 468.12 291.916 468.36 291.916 468.48 291.796 468.72 291.676ZM468.72 290.356V290.836C468.72 290.956 468.72 290.956 468.72 291.076H468.6V291.196C468.48 291.196 468.36 291.316 468.24 291.316 468 291.316 467.76 291.076 467.76 290.716 467.76 290.236 467.88 289.996 468.24 289.996 468.48 289.996 468.6 290.116 468.72 290.356Z" fill-rule="evenodd"/><path transform="matrix(1,0,0,-1,0,595.276)" d="M475.32 290.476C475.32 291.436 474.96 291.916 474.24 291.916 473.64 291.916 473.28 291.556 473.28 290.716 473.28 290.356 473.28 290.116 473.52 289.876 473.76 289.636 474 289.516 474.36 289.516 474.72 289.396 475.08 289.636 475.2 289.876L474.84 290.236C474.84 290.116 474.6 289.996 474.36 289.996 474.24 289.996 474.12 289.996 474 290.116 474 290.236 474 290.236 473.88 290.356V290.476H475.32ZM473.88 290.956V290.956C473.88 291.076 473.88 291.196 474 291.196 474.12 291.316 474.24 291.316 474.24 291.316 474.48 291.316 474.6 291.196 474.72 290.956H473.88Z" fill-rule="evenodd"/><path transform="matrix(1,0,0,-1,0,595.276)" d="M475.8 289.516V291.916H476.4V291.676C476.52 291.796 476.52 291.796 476.64 291.916 476.76 291.916 477 291.916 477.12 291.916V291.316C476.88 291.316 476.76 291.196 476.64 291.196 476.52 291.076 476.4 290.956 476.4 290.956V289.516H475.8Z" fill-rule="evenodd"/><path transform="matrix(1,0,0,-1,0,595.276)" d="M480.6 289.516V291.796H480.12V289.516Z" fill-rule="evenodd"/><path transform="matrix(1,0,0,-1,0,595.276)" d="M480.72 292.396C480.72 292.636 480.6 292.756 480.36 292.756 480.12 292.756 480 292.636 480 292.396 480 292.156 480.12 292.036 480.36 292.036 480.6 292.036 480.72 292.156 480.72 292.396Z" fill-rule="evenodd"/><path transform="matrix(1,0,0,-1,0,595.276)" d="M466.8 290.476C466.8 291.436 466.44 291.916 465.72 291.916 465.12 291.916 464.76 291.556 464.64 290.716 464.64 290.356 464.76 290.116 465 289.876 465.24 289.636 465.48 289.516 465.84 289.516 466.2 289.396 466.56 289.636 466.68 289.876L466.32 290.236C466.2 290.116 466.08 289.996 465.84 289.996 465.72 289.996 465.6 289.996 465.48 290.116 465.48 290.236 465.36 290.236 465.36 290.356V290.476H466.8ZM465.36 290.956V290.956C465.36 291.076 465.36 291.196 465.48 291.196 465.6 291.316 465.72 291.316 465.72 291.316 465.96 291.316 466.08 291.196 466.2 290.956H465.36Z" fill-rule="evenodd"/><path transform="matrix(1,0,0,-1,0,595.276)" d="M463.92 292.756V290.236 290.116C463.92 290.116 464.04 290.116 464.28 290.116L464.4 289.516H464.28C464.16 289.516 464.04 289.516 463.92 289.516 463.68 289.516 463.32 289.636 463.32 289.876V289.996 290.116 292.756H463.92Z" fill-rule="evenodd"/><path transform="matrix(1,0,0,-1,0,595.276)" d="M459.48 291.676V292.756H460.08V289.516H459.48V289.636C459.36 289.516 459.12 289.516 458.88 289.516 458.4 289.396 457.92 289.756 457.8 290.596V290.836 290.956C457.92 291.556 458.28 291.916 458.88 291.916 459 291.916 459.24 291.796 459.48 291.676ZM459.48 290.356V290.836C459.48 290.956 459.48 290.956 459.48 291.076H459.36V291.196C459.24 291.196 459.12 291.316 459 291.316 458.64 291.316 458.52 291.076 458.4 290.716 458.52 290.236 458.64 289.996 459 289.996 459.24 289.996 459.36 290.116 459.48 290.356Z" fill-rule="evenodd"/><path transform="matrix(1,0,0,-1,0,595.276)" d="M478.2 289.516 477.36 291.796H478.08L478.56 290.236 479.04 291.796H479.64L478.92 289.516H478.56Z" fill-rule="evenodd"/><path transform="matrix(1,0,0,-1,0,595.276)" d="M462.12 291.796H462.72V289.516H462.12V289.636C462.12 289.636 462 289.516 461.88 289.516 461.76 289.516 461.64 289.516 461.52 289.516 461.28 289.516 461.04 289.516 460.92 289.636 460.68 289.756 460.68 289.996 460.68 290.236V291.796H461.28V290.476 290.356C461.28 290.236 461.4 290.236 461.4 290.116 461.52 290.116 461.64 290.116 461.64 290.116 461.76 290.116 461.88 290.116 462 290.236 462.12 290.236 462.12 290.356 462.12 290.476V291.796Z" fill-rule="evenodd"/><path transform="matrix(1,0,0,-1,0,595.276)" d="M468.12 286.276 468.72 286.396V286.756L468.12 286.636 468.36 286.876 468.12 286.996 467.88 287.236 467.64 286.996 468 286.636H467.4V286.756 286.996 287.116L467.04 287.236V286.876 286.516H466.68V286.156H467.16L467.28 285.916 467.4 285.796 467.04 285.676 466.68 285.556 466.8 285.196 467.28 285.316 467.64 285.556 467.88 285.316 468.24 285.196H468.48L468.6 285.316 468.72 285.556 468.84 285.796 468.48 286.036V285.796L468.36 285.676 468.24 285.556 468.12 285.676H468L468.24 285.916H468.36V286.036L468.12 286.276 467.64 285.916V286.036L467.52 286.276H468.12Z" fill-rule="evenodd"/><path transform="matrix(1,0,0,-1,0,595.276)" d="M467.88 285.316 467.64 285.076 468.12 284.716 467.4 284.596V284.836 284.956 285.076H467.52V285.196H467.4 467.04V284.956 284.596H466.68V284.236H467.16L467.28 283.996 467.4 283.756 467.04 283.636 466.68 283.516 466.8 283.276 467.28 283.396 467.64 283.516 467.88 283.276 468.36 283.156 468.48 283.276H468.72L468.84 283.516V283.756L468.6 283.876 468.48 283.636H468.36 468.12L468 283.756 468.24 283.996H468.36L468.48 284.116V284.236L468.24 284.356 468.72 284.476V284.836L468.12 284.716 468.36 284.956 467.88 285.316ZM467.52 284.356H468.12L467.76 283.996 467.64 284.116 467.52 284.356Z" fill-rule="evenodd"/><path transform="matrix(1,0,0,-1,0,595.276)" d="M465.6 287.236 465.24 286.516 465.12 286.636 464.88 286.276 465.48 285.916 465.12 285.196H464.76L464.88 284.956V284.836L465 284.716V284.836L465.6 284.956V283.156H465.96V285.076H466.2V284.836H466.56L466.44 285.316 466.32 285.796 466.08 285.676V285.436L465.6 285.316 466.32 286.276 466.44 286.396 466.32 286.516 466.08 286.636 465.72 286.156 465.48 286.276 465.96 286.876V286.996 287.116Z" fill-rule="evenodd"/><path transform="matrix(1,0,0,-1,0,595.276)" d="M465.24 284.596H465V284.116L464.88 283.516H465.24L465.36 283.876V284.476L465.48 284.596H465.36Z" fill-rule="evenodd"/><path transform="matrix(1,0,0,-1,0,595.276)" d="M466.32 284.716 465.96 284.596 466.08 284.116V283.636L466.56 283.756Z" fill-rule="evenodd"/><path transform="matrix(1,0,0,-1,0,595.276)" d="M442.68 287.116V283.636 283.396L442.8 283.276 442.92 283.156H443.16 445.8 445.92 446.16L446.28 283.276 446.4 283.396 446.52 283.516 446.64 283.756V283.876 284.116L446.28 284.236 446.16 283.996 446.04 283.756 445.92 283.636 445.68 283.516H443.4L443.28 283.636H443.16V283.756 283.876 285.196H445.68V284.956H446.16V287.116H442.68ZM443.16 285.676V286.636H444.12V285.676H443.16ZM444.6 285.676V286.636H445.68V285.676H444.6Z" fill-rule="evenodd"/><path transform="matrix(1,0,0,-1,0,595.276)" d="M450.36 287.236H450V285.916H448.08V285.436H450V283.756H448.44V283.396H452.04V283.756H450.48V285.436H452.28V285.916H450.48V286.996 287.116H450.6 450.48Z" fill-rule="evenodd"/><path transform="matrix(1,0,0,-1,0,595.276)" d="M454.08 286.996V286.636H454.92V286.036L454.8 285.556V285.076L454.56 284.596 454.44 284.236 454.2 283.876 453.96 283.636 453.6 283.396 454.08 283.036 454.44 283.516 454.8 283.996 454.92 284.476 455.16 284.956 455.28 284.596 455.52 284.356 455.64 284.116 455.88 283.876 455.4 283.636 454.68 283.516 455.04 283.036 455.64 283.396 456.24 283.636 456.84 283.396 457.44 283.036 457.8 283.516 457.2 283.636 456.6 283.996 456.84 284.356 457.08 284.836 457.32 285.316 457.44 285.796 457.08 285.916 456.96 285.796H456.48L456.96 286.876 456.6 287.116 456.48 286.996H454.08ZM455.28 286.636H456.36L455.88 285.436 456.24 285.316 456.36 285.436H456.84L456.72 285.076 456.6 284.716 456.36 284.476 456.24 284.236 455.88 284.476 455.64 284.836 455.4 285.196 455.28 285.436V286.636Z" fill-rule="evenodd"/><path transform="matrix(1,0,0,-1,0,595.276)" d="M459.24 286.516H461.04V286.396H459.96V285.076H461.04V284.836L459.48 284.716 459.6 284.356V284.236L459.72 284.356 461.88 284.596V284.236H459.24V283.876H460.44L460.68 283.516 460.8 283.276 461.16 283.516 460.92 283.876H461.88V283.636 283.516L461.76 283.396H461.64 461.28L461.4 283.036H461.76 462L462.24 283.156 462.36 283.396V283.636 283.876H463.44V284.236H462.36V284.596H462.6L462.96 284.356 463.2 284.476 462.6 285.076V286.396H461.52V286.516H463.44V286.876H461.52V286.996 287.116H461.64L461.52 287.236H461.4 461.04V286.876H459.24V286.516ZM461.52 284.836V285.076H462.12L462.36 284.836H461.52ZM461.52 285.916V286.036H462.24V285.916H461.52ZM461.52 285.316V285.556H462.24V285.316H461.52ZM460.32 285.916V286.036H461.04V285.916H460.32ZM460.32 285.316V285.556H461.04V285.316H460.32Z" fill-rule="evenodd"/><path transform="matrix(1,0,0,-1,0,595.276)" d="M470.28 284.476 470.76 284.236 471.24 285.076 471.6 285.916 471.72 286.036H471.6L471.48 286.156 471.24 286.276 471 285.796 470.76 285.196 470.52 284.836Z" fill-rule="evenodd"/><path transform="matrix(1,0,0,-1,0,595.276)" d="M472.56 287.236H472.2V283.756 283.636L472.08 283.516H471.96 471.72L471.84 283.156H472.2 472.44L472.56 283.276 472.68 283.396V283.636 286.996L472.8 287.116H472.68Z" fill-rule="evenodd"/><path transform="matrix(1,0,0,-1,0,595.276)" d="M474.12 284.236 474.6 284.476 474.36 284.836 474.12 285.196 473.88 285.676 473.76 286.276 473.28 286.156 473.52 285.676 473.64 285.076 473.88 284.596Z" fill-rule="evenodd"/><path transform="matrix(1,0,0,-1,0,595.276)" d="M476.16 287.116V283.636 283.396 283.276L476.4 283.156H476.64 479.16 479.4 479.52L479.64 283.276 479.76 283.396 479.88 283.516 480 283.756V283.876L480.12 284.116 479.64 284.236 479.52 283.996V283.756L479.28 283.636 479.04 283.516H476.76L476.64 283.636 476.52 283.756V283.876 285.196H479.16V284.956H479.52V287.116H476.16ZM476.52 285.676V286.636H477.6V285.676H476.52ZM477.96 285.676V286.636H479.16V285.676H477.96Z" fill-rule="evenodd"/><path transform="matrix(1,0,0,-1,0,595.276)" d="M481.44 285.436 481.68 285.076 481.92 285.436V283.156H482.4V286.156L482.76 286.996V286.636H483.12L483 286.036 482.88 285.556 482.76 285.076 482.52 284.716 482.88 284.356 483 284.716 483.48 284.476 483.36 284.116 483.12 283.876 482.76 283.756 482.52 283.516 482.76 283.276 483.12 283.396 483.48 283.636 483.72 283.876 483.84 284.236 484.08 284.596 484.2 284.956V285.436 285.916H483.48L483.6 286.636H484.2V286.996H482.76V287.116L482.4 287.236 482.16 286.756 481.92 286.276 481.68 285.796 481.44 285.436ZM483.36 285.556H483.84L483.72 284.836 483.24 285.076 483.36 285.556Z" fill-rule="evenodd"/><path transform="matrix(1,0,0,-1,0,595.276)" d="M484.44 286.636V283.996H484.8V286.516H484.92L484.8 286.636Z" fill-rule="evenodd"/><path transform="matrix(1,0,0,-1,0,595.276)" d="M485.16 287.236V283.876 283.756 283.636L485.04 283.516H484.92 484.56L484.68 283.036 485.28 283.156H485.4L485.52 283.276V283.516L485.64 283.636V286.996 287.116Z" fill-rule="evenodd"/><path transform="matrix(1,0,0,-1,0,595.276)" d="M488.28 287.236H488.04L487.92 286.636 487.68 286.036 487.44 285.556 487.08 285.196 487.44 284.836 487.92 285.436 488.16 286.036H488.88L488.76 285.436 488.64 284.956 488.04 285.316 487.8 285.076 488.16 284.836 488.4 284.596 488.16 284.236 487.92 283.996 487.56 283.756 487.08 283.516 487.44 283.156 487.8 283.276 488.04 283.516 488.4 283.756 488.64 284.116 488.88 284.596 489.12 285.076 489.24 285.676 489.36 286.276 489.12 286.516 489 286.396H488.28L488.4 286.996H488.52L488.64 287.116H488.52Z" fill-rule="evenodd"/><path transform="matrix(1,0,0,-1,0,595.276)" d="M490.2 287.236H489.96V285.436L489.72 285.796 489.36 285.556 489.72 285.196 489.96 284.836V283.036H490.44V284.596L491.04 284.236 491.4 284.596 490.8 284.836 490.44 285.076V286.996L490.56 287.116H490.44Z" fill-rule="evenodd"/></g></svg>