<?xml version='1.0' encoding='UTF-8'?>
<svg width="554.47" height="163.27" viewBox="6.71 54.32 554.47 163.27" xmlns="http://www.w3.org/2000/svg" xmlns:xlink="http://www.w3.org/1999/xlink" xmlns:inkscape="http://www.inkscape.org/namespaces/inkscape" version="1.1"><g transform="scale(10.0) translate(-220.305, -154.944)"><defs><clipPath id="clip_2"><path transform="matrix(1,0,0,-1,0,595.276)" d="M74.4 .196H767.4V595.276H74.4Z"/></clipPath></defs><path transform="matrix(1,0,0,-1,0,595.276)" d="M222.6 434.356H274.8C275.04 434.356 275.28 434.236 275.52 433.996 275.76 433.876 275.88 433.516 275.88 433.276V420.196C275.88 420.076 275.76 419.956 275.76 419.836 275.76 419.716 275.64 419.596 275.52 419.476 275.4 419.356 275.28 419.236 275.16 419.236 275.04 419.116 274.92 419.116 274.8 419.116H222.6C222.36 419.116 222.12 419.236 221.88 419.476 221.64 419.716 221.52 419.956 221.52 420.196V433.276C221.52 433.516 221.64 433.876 221.88 433.996 222 434.116 222.12 434.236 222.24 434.236 222.36 434.356 222.48 434.356 222.6 434.356ZM222.6 433.876C222.36 433.876 222.12 433.636 222.12 433.276V420.196C222.12 420.076 222.12 419.956 222.24 419.836 222.36 419.716 222.48 419.716 222.6 419.716H274.8C274.92 419.716 275.04 419.716 275.16 419.836 275.28 419.956 275.28 420.076 275.28 420.196V433.276C275.28 433.396 275.28 433.516 275.16 433.636 275.04 433.756 274.92 433.876 274.8 433.876H222.6Z" fill-rule="evenodd"/><path transform="matrix(1,0,0,-1,0,595.276)" d="M222.6 433.876H274.8C274.92 433.876 275.04 433.756 275.16 433.636 275.28 433.516 275.28 433.396 275.28 433.276V420.196C275.28 420.076 275.28 419.956 275.16 419.836 275.04 419.716 274.92 419.716 274.8 419.716H222.6C222.48 419.716 222.36 419.716 222.24 419.836 222.12 419.956 222.12 420.076 222.12 420.196V433.276C222.12 433.396 222.12 433.516 222.24 433.636 222.36 433.756 222.48 433.876 222.6 433.876Z" fill="#ffffff" fill-rule="evenodd"/><path transform="matrix(1,0,0,-1,0,595.276)" d="M225 431.956V429.556H226.32V428.956H224.28V431.956Z" fill-rule="evenodd"/><path transform="matrix(1,0,0,-1,0,595.276)" d="M228.6 429.796C228.72 430.636 228.36 431.116 227.64 431.236 227.04 431.236 226.68 430.756 226.68 430.036 226.68 429.676 226.68 429.436 226.92 429.196 227.04 428.956 227.4 428.836 227.76 428.836 228.12 428.836 228.48 428.956 228.6 429.196L228.24 429.556C228.12 429.436 227.88 429.436 227.76 429.316 227.64 429.316 227.52 429.436 227.4 429.436 227.4 429.556 227.28 429.556 227.28 429.676V429.796H228.6ZM227.28 430.276V430.276C227.28 430.396 227.28 430.396 227.4 430.516 227.4 430.636 227.52 430.636 227.64 430.636 227.76 430.636 228 430.516 228 430.276H227.28Z" fill-rule="evenodd"/><path transform="matrix(1,0,0,-1,0,595.276)" d="M231.12 428.956V430.396 430.516C231.12 430.996 230.76 431.236 230.28 431.236 230.16 431.236 230.04 431.236 229.92 431.116 229.92 431.116 229.8 431.116 229.68 430.996V431.116H229.08V428.956H229.68V430.276C229.8 430.516 229.92 430.636 230.16 430.636 230.4 430.636 230.52 430.516 230.52 430.276V430.156 428.956H231.12Z" fill-rule="evenodd"/><path transform="matrix(1,0,0,-1,0,595.276)" d="M233.64 428.836V431.116H233.04V430.996C233.04 431.116 232.8 431.236 232.56 431.236 231.96 431.116 231.6 430.756 231.6 430.036 231.6 429.316 231.96 428.956 232.56 428.956 232.68 428.956 232.8 428.956 232.8 429.076 232.92 429.076 233.04 429.076 233.04 429.196V428.956C233.04 428.836 232.92 428.716 232.68 428.716 232.56 428.716 232.44 428.716 232.32 428.716 232.2 428.716 232.08 428.836 231.84 428.956L231.6 428.476C231.84 428.236 232.2 428.116 232.56 428.116 233.28 428.116 233.64 428.356 233.64 428.836ZM233.04 430.276V429.796C233.04 429.676 232.92 429.676 232.92 429.556 232.8 429.556 232.8 429.556 232.68 429.556 232.44 429.556 232.2 429.676 232.2 430.036 232.2 430.396 232.32 430.636 232.68 430.636 232.8 430.636 233.04 430.516 233.04 430.276Z" fill-rule="evenodd"/><path transform="matrix(1,0,0,-1,0,595.276)" d="M234.96 431.116H235.56V430.636H234.96V429.556L235.08 429.436 235.2 429.316H235.32C235.44 429.436 235.44 429.436 235.56 429.436L235.68 428.956C235.56 428.836 235.32 428.836 234.96 428.836 234.84 428.836 234.72 428.836 234.6 428.956 234.48 429.076 234.48 429.196 234.36 429.316V430.636H234V431.116H234.36V431.836L234.96 431.956V431.116Z" fill-rule="evenodd"/><path transform="matrix(1,0,0,-1,0,595.276)" d="M236.64 430.996C236.88 431.236 237.24 431.236 237.48 431.116 237.72 430.996 237.84 430.996 237.84 430.756 237.96 430.636 238.08 430.516 238.08 430.396V428.956H237.36V430.276C237.36 430.276 237.36 430.396 237.36 430.516 237.24 430.516 237.12 430.636 237 430.636 237 430.636 236.88 430.516 236.76 430.516 236.64 430.396 236.64 430.276 236.64 430.276V428.956H236.04V431.956H236.64V430.996Z" fill-rule="evenodd"/><path transform="matrix(1,0,0,-1,0,595.276)" d="M241.92 430.036C241.92 430.756 241.44 431.236 240.84 431.236 240.12 431.236 239.76 430.756 239.76 430.036 239.76 429.196 240.12 428.836 240.84 428.836 241.44 428.836 241.92 429.196 241.92 430.036ZM241.2 430.036C241.2 429.676 241.08 429.436 240.84 429.436 240.72 429.436 240.6 429.436 240.48 429.556 240.36 429.676 240.36 429.796 240.36 430.036 240.36 430.396 240.48 430.636 240.84 430.636 241.08 430.636 241.2 430.396 241.2 430.036Z" fill-rule="evenodd"/><path transform="matrix(1,0,0,-1,0,595.276)" d="M242.88 428.956 242.16 431.116H242.76L243.24 429.676 243.72 431.116H244.32L243.6 428.956H243.24Z" fill-rule="evenodd"/><path transform="matrix(1,0,0,-1,0,595.276)" d="M246.6 429.796C246.6 430.636 246.24 431.116 245.64 431.236 245.04 431.236 244.68 430.756 244.56 430.036 244.56 429.676 244.68 429.436 244.8 429.196 245.04 428.956 245.4 428.836 245.76 428.836 246.12 428.836 246.48 428.956 246.6 429.196L246.24 429.556C246.12 429.436 245.88 429.436 245.76 429.316 245.64 429.316 245.52 429.436 245.4 429.436 245.28 429.556 245.28 429.556 245.28 429.676V429.796H246.6ZM245.16 430.276V430.276C245.16 430.396 245.28 430.396 245.4 430.516 245.4 430.636 245.52 430.636 245.64 430.636 245.76 430.636 246 430.516 246 430.276H245.16Z" fill-rule="evenodd"/><path transform="matrix(1,0,0,-1,0,595.276)" d="M247.08 428.956V431.116H247.68V430.876C247.68 430.996 247.8 431.116 247.92 431.116 248.04 431.236 248.16 431.236 248.4 431.236V430.636C248.16 430.516 248.04 430.516 247.92 430.516 247.8 430.396 247.68 430.276 247.68 430.156V428.956H247.08Z" fill-rule="evenodd"/><path transform="matrix(1,0,0,-1,0,595.276)" d="M270.12 427.156C269.52 427.156 269.04 426.676 269.04 426.316V422.476H267.36V426.676C267.24 426.916 266.88 427.156 266.52 427.156 265.92 427.156 265.44 426.676 265.44 426.316V422.476H263.76V428.596H265.32V428.356C265.56 428.476 265.8 428.596 266.04 428.716 266.28 428.836 266.52 428.836 266.76 428.836 267.6 428.836 268.2 428.596 268.44 427.996 268.92 428.596 269.52 428.836 270.24 428.836 271.32 428.836 272.04 428.356 272.4 427.396 272.52 427.276 272.52 427.276 272.52 427.156 272.52 427.036 272.52 426.916 272.52 426.916V422.476H270.84V426.676 426.796C270.84 426.916 270.72 426.916 270.72 427.036 270.48 427.156 270.24 427.156 270.12 427.156Z" fill-rule="evenodd"/><path transform="matrix(1,0,0,-1,0,595.276)" d="M255.84 422.116C256.68 422.116 257.52 422.356 258.24 422.956 258.84 423.436 259.08 424.276 259.08 424.996 259.08 425.716 258.72 426.556 258 426.916 258.6 427.276 258.84 427.876 258.84 428.596 258.84 430.396 257.76 431.236 255.84 431.236 254.76 431.236 254.04 430.996 253.56 430.636 252.96 430.156 252.72 429.436 252.72 428.596 252.72 427.876 253.08 427.276 253.56 426.916 252.84 426.556 252.48 425.716 252.48 424.996 252.48 424.276 252.72 423.436 253.44 422.956 254.04 422.356 254.88 422.116 255.84 422.116ZM255.84 426.076C256.68 426.076 257.16 425.596 257.16 424.876 257.16 424.276 256.68 423.796 255.84 423.796 254.88 423.796 254.4 424.276 254.4 424.876 254.4 425.596 254.88 426.076 255.84 426.076ZM257.04 428.596C257.04 427.996 256.56 427.756 255.84 427.756 255 427.756 254.52 427.996 254.52 428.596 254.52 428.956 254.64 429.196 254.88 429.316 255.12 429.436 255.36 429.556 255.84 429.556 256.2 429.556 256.56 429.436 256.68 429.316 256.92 429.196 257.04 428.956 257.04 428.596Z" fill-rule="evenodd"/><path transform="matrix(1,0,0,-1,0,595.276)" d="M228.24 426.076V425.716H229.92V425.356H228.72V423.436H229.92V423.196H228V422.716H229.92V422.116H230.4V422.716H232.32V423.196H230.4V423.436H231.72V425.356H230.4V425.716H232.2V426.076H230.4V426.316L230.52 426.436 230.4 426.556H229.92V426.076H228.24ZM229.08 424.636V424.996H229.92V424.636H229.08ZM229.08 423.796V424.276H229.92V423.796H229.08ZM230.4 424.636V424.996H231.36V424.636H230.4ZM230.4 423.796V424.276H231.36V423.796H230.4Z" fill-rule="evenodd"/><path transform="matrix(1,0,0,-1,0,595.276)" d="M234.84 426.436V424.276H234V423.916H234.84V422.716H234.12V422.356L234.24 422.236V422.116H234.36V422.236L236.52 422.596V422.956L236.88 422.716 237.36 422.476 237.72 422.236 238.2 422.116 238.56 422.596 237.84 422.716 237.24 422.956 237.84 423.436H237.96L237.84 423.556 237.6 423.796 237.36 423.556 237 423.196 236.64 423.556 236.4 423.916H238.44V424.276H235.32V424.636H237.72V424.996H235.32V425.356H237.72V425.716H235.32V426.076H237.72V426.436H234.84ZM235.2 423.916H235.92L236.16 423.436 236.52 423.076 235.2 422.836V423.916Z" fill-rule="evenodd"/><path transform="matrix(1,0,0,-1,0,595.276)" d="M240.48 426.556 240.24 426.196 240.6 426.076 240.84 425.836 241.08 426.076 240.84 426.316Z" fill-rule="evenodd"/><path transform="matrix(1,0,0,-1,0,595.276)" d="M240.24 425.596 239.88 425.356 240.24 425.116 240.6 424.876 240.96 425.116 240.6 425.476Z" fill-rule="evenodd"/><path transform="matrix(1,0,0,-1,0,595.276)" d="M240 424.396V424.036H240.6V423.196L239.88 422.596 240.24 422.116 240.72 422.716 240.96 422.476 241.2 422.236 241.56 422.116H242.04 244.32L244.44 422.596H242.04 241.8 241.56 241.44L241.32 422.716 241.2 422.836 241.08 422.956V423.076L240.96 423.196V424.396Z" fill-rule="evenodd"/><path transform="matrix(1,0,0,-1,0,595.276)" d="M243.12 426.436 242.64 426.676 242.4 426.316 242.04 425.956 241.56 425.716 241.08 425.476 241.44 425.116 241.8 425.236 242.04 425.476V425.116H243.48V425.476L243.84 425.236 244.2 425.116 244.44 425.596 244.08 425.716 243.72 425.836 243.36 425.956 243 426.196 243.12 426.436ZM243.36 425.476H242.16L242.76 425.956 243.36 425.476Z" fill-rule="evenodd"/><path transform="matrix(1,0,0,-1,0,595.276)" d="M241.44 424.876V422.836H241.92V423.436H242.28V423.316 423.196H242.16 242.04L242.16 422.836H242.28 242.4L242.64 422.956V423.076 423.316 424.876H241.44ZM241.92 423.796V424.036H242.28V423.796H241.92ZM241.92 424.276V424.516H242.28V424.276H241.92Z" fill-rule="evenodd"/><path transform="matrix(1,0,0,-1,0,595.276)" d="M243 424.636V423.436H243.36V424.516H243.48V424.636H243.36 243.24Z" fill-rule="evenodd"/><path transform="matrix(1,0,0,-1,0,595.276)" d="M243.72 424.996V423.436 423.316L243.6 423.196H243.48L243.36 423.076H243.24L243.36 422.716H243.6L243.84 422.836 243.96 422.956 244.08 423.076V423.316 424.756H244.2V424.876H243.96Z" fill-rule="evenodd"/></g></svg>