<?xml version='1.0' encoding='UTF-8'?>
<svg width="555.67" height="218.47" viewBox="5.03 21.56 555.67 218.47" xmlns="http://www.w3.org/2000/svg" xmlns:xlink="http://www.w3.org/1999/xlink" xmlns:inkscape="http://www.inkscape.org/namespaces/inkscape" version="1.1"><g transform="scale(10.0) translate(-438.573, -74.160)"><defs><clipPath id="clip_2"><path transform="matrix(1,0,0,-1,0,595.276)" d="M74.4 .196H767.4V595.276H74.4Z"/></clipPath></defs><path transform="matrix(1,0,0,-1,0,595.276)" d="M440.76 518.356H493.08C493.2 518.356 493.32 518.356 493.44 518.356 493.56 518.236 493.68 518.236 493.8 518.116 493.92 517.996 493.92 517.876 494.04 517.756 494.04 517.636 494.04 517.516 494.04 517.396V498.676C494.04 498.436 493.92 498.196 493.8 497.956 493.68 497.836 493.56 497.836 493.44 497.716 493.32 497.716 493.2 497.716 493.08 497.716H440.76C440.52 497.716 440.28 497.716 440.04 497.956 439.92 498.076 439.8 498.196 439.8 498.316 439.68 498.436 439.68 498.556 439.68 498.676V517.396C439.68 517.636 439.8 517.876 440.04 518.116 440.16 518.236 440.28 518.236 440.4 518.356 440.52 518.356 440.64 518.356 440.76 518.356ZM440.76 517.876C440.4 517.876 440.28 517.636 440.28 517.396V498.676 498.556C440.28 498.436 440.28 498.436 440.4 498.316 440.52 498.196 440.64 498.196 440.76 498.196H493.08C493.2 498.196 493.32 498.196 493.44 498.316 493.56 498.436 493.56 498.556 493.56 498.676V517.396C493.56 517.516 493.56 517.636 493.44 517.756 493.32 517.876 493.2 517.876 493.08 517.876H440.76Z" fill-rule="evenodd"/><path transform="matrix(1,0,0,-1,0,595.276)" d="M440.76 517.876H493.08 493.2C493.32 517.756 493.32 517.756 493.44 517.756 493.44 517.636 493.44 517.636 493.56 517.516V517.396 498.676C493.56 498.556 493.56 498.436 493.44 498.316 493.32 498.196 493.2 498.196 493.08 498.196H440.76C440.64 498.196 440.52 498.196 440.4 498.316 440.28 498.436 440.28 498.556 440.28 498.676V517.396C440.28 517.636 440.4 517.876 440.76 517.876Z" fill="#ffffff" fill-rule="evenodd"/><path transform="matrix(1,0,0,-1,0,595.276)" d="M452.28 514.396C452.28 515.236 451.92 515.596 451.32 515.596 450.6 515.596 450.24 515.236 450.24 514.396 450.24 514.036 450.36 513.796 450.6 513.556 450.72 513.436 450.96 513.316 451.32 513.316 451.68 513.316 451.92 513.436 452.04 513.556 452.28 513.796 452.28 514.036 452.28 514.396ZM451.68 514.396C451.68 514.276 451.68 514.156 451.68 514.036 451.56 513.916 451.44 513.916 451.32 513.916 451.08 513.916 450.84 514.036 450.84 514.396 450.84 514.756 451.08 514.996 451.32 514.996 451.44 514.996 451.56 514.996 451.68 514.876 451.68 514.756 451.68 514.636 451.68 514.396Z" fill-rule="evenodd"/><path transform="matrix(1,0,0,-1,0,595.276)" d="M454.68 513.436V514.876C454.68 515.356 454.32 515.596 453.84 515.596 453.72 515.596 453.6 515.596 453.6 515.596 453.48 515.476 453.36 515.476 453.36 515.356V515.476H452.76V513.436H453.36V514.756C453.36 514.876 453.48 514.996 453.72 515.116 453.96 514.996 454.08 514.876 454.08 514.756V514.636 513.436H454.68Z" fill-rule="evenodd"/><path transform="matrix(1,0,0,-1,0,595.276)" d="M448.2 514.156 447.36 515.356V513.436H446.64V516.316H447.36L448.2 515.236 449.04 516.316H449.76V513.436H449.04V515.356Z" fill-rule="evenodd"/><path transform="matrix(1,0,0,-1,0,595.276)" d="M457.2 514.636H456.24V514.156H457.2Z" fill-rule="evenodd"/><path transform="matrix(1,0,0,-1,0,595.276)" d="M476.88 514.636H475.92V514.156H476.88Z" fill-rule="evenodd"/><path transform="matrix(1,0,0,-1,0,595.276)" d="M461.28 513.436V515.476H461.76V515.356C461.88 515.356 461.88 515.476 462 515.476 462.12 515.596 462.36 515.596 462.48 515.596V514.996C462.24 514.996 462.12 514.996 462 514.876 461.88 514.876 461.88 514.756 461.88 514.636V513.436H461.28Z" fill-rule="evenodd"/><path transform="matrix(1,0,0,-1,0,595.276)" d="M463.44 513.436V515.476H462.96V513.436Z" fill-rule="evenodd"/><path transform="matrix(1,0,0,-1,0,595.276)" d="M463.56 516.076C463.56 516.196 463.44 516.316 463.2 516.316 463.08 516.316 462.84 516.196 462.84 516.076 462.84 515.836 463.08 515.716 463.2 515.716 463.44 515.716 463.56 515.836 463.56 516.076Z" fill-rule="evenodd"/><path transform="matrix(1,0,0,-1,0,595.276)" d="M459.6 514.516H460.68V515.116H459.6V515.716H460.8V516.316H459V513.436H459.6Z" fill-rule="evenodd"/><path transform="matrix(1,0,0,-1,0,595.276)" stroke-width=".12" stroke-linecap="butt" stroke-miterlimit="10" stroke-linejoin="miter" fill="none" stroke="#000000" d="M466.5 513.5V513.5"/><path transform="matrix(1,0,0,-1,0,595.276)" d="M466.2 513.916V513.916C466.08 513.916 465.96 513.916 465.84 514.036 465.72 514.036 465.6 514.156 465.6 514.276L465 514.156C465.12 513.796 465.24 513.676 465.48 513.556 465.6 513.316 465.84 513.316 466.2 513.316 466.8 513.316 467.28 513.676 467.28 514.396 467.28 514.756 467.16 514.996 467.04 515.236 466.8 515.356 466.56 515.476 466.2 515.476 466.08 515.476 466.08 515.476 465.96 515.476H465.84C465.72 515.476 465.72 515.356 465.72 515.356V515.476L465.84 515.716H467.04V516.316H465.24L465.12 514.756H465.72C465.72 514.876 465.96 514.996 466.08 514.996 466.2 514.996 466.44 514.876 466.44 514.756 466.56 514.636 466.68 514.516 466.68 514.396 466.68 514.276 466.56 514.156 466.56 514.036 466.44 513.916 466.32 513.916 466.2 513.916Z" fill-rule="evenodd"/><path transform="matrix(1,0,0,-1,0,595.276)" d="M470.88 514.516C470.88 515.116 470.52 515.596 469.8 515.596 469.68 515.596 469.32 515.476 469.32 515.476H468.84V512.716H469.32V513.436C469.44 513.436 469.68 513.316 469.92 513.316 470.4 513.316 470.88 513.796 470.88 514.516ZM469.8 513.916C469.68 513.916 469.56 513.916 469.56 513.916 469.44 514.036 469.32 514.156 469.32 514.156V514.756C469.32 514.876 469.56 515.116 469.8 515.116 469.92 515.116 470.16 514.996 470.28 514.756V514.636 514.276 514.156C470.16 513.916 469.92 513.796 469.8 513.916Z" fill-rule="evenodd"/><path transform="matrix(1,0,0,-1,0,595.276)" d="M473.4 514.996C473.28 514.996 473.16 514.876 473.04 514.756V513.436H472.56V514.876C472.56 514.996 472.44 514.996 472.2 514.996 472.08 514.996 471.84 514.876 471.84 514.756V513.436H471.24V515.476H471.84V515.356C471.96 515.476 471.96 515.476 472.08 515.596 472.2 515.596 472.32 515.596 472.32 515.596 472.68 515.596 472.8 515.476 472.92 515.356 473.04 515.476 473.28 515.596 473.52 515.596 473.88 515.596 474.12 515.356 474.24 515.116V514.996C474.36 514.996 474.36 514.996 474.36 514.876V513.436H473.76V514.876L473.64 514.996C473.64 514.996 473.52 514.996 473.4 514.996Z" fill-rule="evenodd"/><path transform="matrix(1,0,0,-1,0,595.276)" d="M483.72 514.516C483.72 515.116 483.36 515.596 482.64 515.596 482.52 515.596 482.16 515.476 482.16 515.476H481.68V512.716H482.16V513.436C482.28 513.436 482.52 513.316 482.76 513.316 483 513.316 483.24 513.436 483.36 513.676 483.6 513.796 483.72 514.156 483.72 514.516ZM482.64 513.916C482.52 513.916 482.4 513.916 482.4 513.916 482.28 514.036 482.16 514.156 482.16 514.156V514.756C482.16 514.876 482.4 515.116 482.64 515.116 482.76 515.116 483 514.996 483.12 514.756V514.636 514.276 514.156C483 513.916 482.76 513.796 482.64 513.916Z" fill-rule="evenodd"/><path transform="matrix(1,0,0,-1,0,595.276)" d="M486.24 514.996C486.12 514.996 486 514.876 485.88 514.756V513.436H485.4V514.876C485.4 514.996 485.28 514.996 485.04 514.996 484.92 514.996 484.68 514.876 484.68 514.756V513.436H484.08V515.476H484.68V515.356C484.8 515.476 484.8 515.476 484.92 515.596 485.04 515.596 485.16 515.596 485.16 515.596 485.52 515.596 485.64 515.476 485.76 515.356 485.88 515.476 486.12 515.596 486.36 515.596 486.72 515.596 486.96 515.356 487.08 515.116V514.996C487.08 514.996 487.2 514.996 487.2 514.876V513.436H486.6V514.876L486.48 514.996C486.48 514.996 486.36 514.996 486.24 514.996Z" fill-rule="evenodd"/><path transform="matrix(1,0,0,-1,0,595.276)" d="M478.68 513.436H479.4L480.24 515.716V516.316H478.2V515.716H479.64Z" fill-rule="evenodd"/><path transform="matrix(1,0,0,-1,0,595.276)" d="M474.12 511.036H471.12V509.356H474.12V511.036ZM471.6 510.316V510.676H473.64V510.316H471.6ZM471.6 509.716V509.956H473.64V509.716H471.6Z" fill-rule="evenodd"/><path transform="matrix(1,0,0,-1,0,595.276)" d="M471.84 509.116 471.36 509.236 471 508.636 470.52 508.036 470.88 507.796 471.36 508.516H472.56V508.036H471.24V507.676H472.56V507.316H470.52V506.956H474.72V507.316H472.92V507.676H474.24V508.036H472.92V508.396H474.48V508.756H473.04V508.996 509.116 509.236H472.92 472.56V508.756H471.6Z" fill-rule="evenodd"/><path transform="matrix(1,0,0,-1,0,595.276)" d="M476.28 510.436V510.196H476.64V508.276H476.16V507.916H478.56V508.276H478.2V510.196H478.56V510.436H478.2V510.916 511.036H478.08L477.72 511.156V510.436H477.12V510.916L477.24 511.036H477.12 477L476.64 511.156V510.436H476.28ZM477.12 508.996V509.356H477.72V508.996H477.12ZM477.12 508.276V508.756H477.72V508.276H477.12ZM477.12 509.716V510.196H477.72V509.716H477.12Z" fill-rule="evenodd"/><path transform="matrix(1,0,0,-1,0,595.276)" d="M476.28 507.076 476.64 506.836 477 507.196 477.24 507.676 476.88 507.916 476.52 507.436Z" fill-rule="evenodd"/><path transform="matrix(1,0,0,-1,0,595.276)" d="M478.8 511.036V509.116 508.516L478.68 507.916 478.56 507.436 478.32 507.196 478.68 506.836 478.92 507.196 479.04 507.556 479.16 507.916V508.396H479.88V507.436L479.76 507.316H479.64 479.28L479.52 506.836 479.88 506.956H480.12V507.076L480.24 507.316V507.436 511.036H478.8ZM479.16 508.756V509.476H479.88V508.756H479.16ZM479.16 509.836V510.676H479.88V509.836H479.16Z" fill-rule="evenodd"/><path transform="matrix(1,0,0,-1,0,595.276)" d="M477.84 507.916 477.6 507.676 477.84 507.316 477.96 506.956 478.32 507.196 478.08 507.556Z" fill-rule="evenodd"/><path transform="matrix(1,0,0,-1,0,595.276)" d="M482.16 510.916V510.436H483.6L483.36 509.356H482.4V508.876H483.24L483 507.556H481.92V507.076H486.12V507.556H485.16L485.4 509.356H483.84L484.08 510.436H485.88V510.916H482.16ZM483.48 507.556 483.72 508.876H484.92L484.68 507.556H483.48Z" fill-rule="evenodd"/><path transform="matrix(1,0,0,-1,0,595.276)" d="M451.32 511.036H448.32V509.356H451.32V511.036ZM448.8 510.316V510.676H450.96V510.316H448.8ZM448.8 509.716V509.956H450.96V509.716H448.8Z" fill-rule="evenodd"/><path transform="matrix(1,0,0,-1,0,595.276)" d="M449.04 509.116 448.56 509.236 448.2 508.636 447.72 508.036 448.2 507.796 448.56 508.516H449.76V508.036H448.56V507.676H449.76V507.316H447.72V506.956H451.92V507.316H450.24V507.676H451.44V508.036H450.24V508.396H451.68V508.756H450.24V508.996 509.116 509.236H450.12 449.76V508.756H448.8Z" fill-rule="evenodd"/><path transform="matrix(1,0,0,-1,0,595.276)" d="M453.48 510.436V510.196H453.96V508.276H453.48V507.916H455.88V508.276H455.4V510.196H455.76V510.436H455.4V510.916H455.52V511.036H455.4L455.04 511.156V510.436H454.32V510.916H454.44V511.036H454.32L453.96 511.156V510.436H453.48ZM454.32 508.996V509.356H455.04V508.996H454.32ZM454.32 508.276V508.756H455.04V508.276H454.32ZM454.32 509.716V510.196H455.04V509.716H454.32Z" fill-rule="evenodd"/><path transform="matrix(1,0,0,-1,0,595.276)" d="M453.48 507.076 453.84 506.836 454.2 507.196 454.56 507.676 454.08 507.916 453.84 507.436Z" fill-rule="evenodd"/><path transform="matrix(1,0,0,-1,0,595.276)" d="M456 511.036V509.116 508.516 507.916L455.76 507.436 455.64 507.196 456 506.836 456.12 507.196 456.24 507.556 456.36 507.916V508.396H457.08V507.436 507.316H456.84 456.6L456.72 506.836 457.2 506.956H457.32L457.44 507.076V507.316L457.56 507.436V511.036H456ZM456.48 508.756V509.476H457.08V508.756H456.48ZM456.48 509.836V510.676H457.08V509.836H456.48Z" fill-rule="evenodd"/><path transform="matrix(1,0,0,-1,0,595.276)" d="M455.04 507.916 454.8 507.676 455.04 507.316 455.28 506.956 455.64 507.196 455.4 507.556Z" fill-rule="evenodd"/><path transform="matrix(1,0,0,-1,0,595.276)" d="M459.24 509.356V508.876H463.44V509.356Z" fill-rule="evenodd"/><path transform="matrix(1,0,0,-1,0,595.276)" d="M465 510.436H466.44L465.84 509.596 465.12 509.476 465.24 509.116 465.36 508.996V509.116L468.12 509.356 468.48 508.996 468.84 509.236 468.36 509.836 467.88 510.316 467.52 510.076 467.88 509.716 466.44 509.596 466.92 510.436H468.72V510.916H465Z" fill-rule="evenodd"/><path transform="matrix(1,0,0,-1,0,595.276)" d="M464.88 507.076H468.96V507.436H467.16V508.156H468.48V508.636H467.16V508.996L467.28 509.116H467.16 467.04 466.68V508.636H465.24V508.156H466.68V507.436H464.88Z" fill-rule="evenodd"/><path transform="matrix(1,0,0,-1,0,595.276)" d="M465 503.716H466.44L465.84 502.876 465.12 502.756 465.24 502.276H465.36V502.396L468.12 502.636 468.48 502.276 468.84 502.516 468.36 503.116 467.88 503.596 467.52 503.356 467.88 502.996 466.44 502.876 466.92 503.716H468.72V504.196H465Z" fill-rule="evenodd"/><path transform="matrix(1,0,0,-1,0,595.276)" d="M464.88 500.356H468.96V500.716H467.16V501.436H468.48V501.916H467.16V502.276H467.28L467.16 502.396H467.04 466.68V501.916H465.24V501.436H466.68V500.716H464.88Z" fill-rule="evenodd"/><path transform="matrix(1,0,0,-1,0,595.276)" d="M441.96 504.076V503.596H443.76V500.116H444.24V502.516L444.84 502.036 445.44 501.556 445.8 501.796 445.08 502.396 444.24 502.996V503.596H446.16V504.076Z" fill-rule="evenodd"/><path transform="matrix(1,0,0,-1,0,595.276)" d="M447.84 502.996 448.2 502.756 448.8 503.356H449.76V502.396H447.72V501.916H449.76V500.116H450.24V501.916H451.92V502.396H450.24V503.356H451.68V503.836H449.04L449.28 504.076 449.4 504.196V504.316H449.28L448.92 504.436 448.44 503.596Z" fill-rule="evenodd"/><path transform="matrix(1,0,0,-1,0,595.276)" d="M453.72 504.196V503.716H455.16L454.92 502.636H453.96V502.156H454.92L454.68 500.836H453.48V500.356H457.68V500.836H456.84L456.96 502.636H455.4L455.64 503.716H457.44V504.196H453.72ZM455.16 500.836 455.4 502.156H456.48L456.36 500.836H455.16Z" fill-rule="evenodd"/><path transform="matrix(1,0,0,-1,0,595.276)" d="M461.88 502.876H460.92V502.396H462.48V502.036H460.8V501.676H462.48V500.836 500.716L462.36 500.596 462.24 500.476H461.64L461.88 500.116H462.24 462.48L462.72 500.236 462.84 500.476V500.596 501.676H463.56V502.036H462.84V502.396H463.44V502.876H462.36V503.476H463.2V503.836H462.36V504.196 504.316L461.88 504.436V503.836H461.04V503.476H461.88Z" fill-rule="evenodd"/><path transform="matrix(1,0,0,-1,0,595.276)" d="M461.4 501.556 461.16 501.196 461.4 500.956 461.64 500.596 462 500.956 461.64 501.316Z" fill-rule="evenodd"/><path transform="matrix(1,0,0,-1,0,595.276)" d="M459.36 503.956V500.836 500.596H459.72V500.956H460.2V500.836H460.68V503.956H459.36ZM459.72 502.636V503.596H460.2V502.636H459.72ZM459.72 501.436V502.396H460.2V501.436H459.72Z" fill-rule="evenodd"/><path transform="matrix(1,0,0,-1,0,595.276)" d="M470.52 504.076V503.596H472.2V500.116H472.68V502.516L473.28 502.036 473.88 501.556 474.24 501.796 473.52 502.396 472.68 502.996V503.596H474.72V504.076Z" fill-rule="evenodd"/><path transform="matrix(1,0,0,-1,0,595.276)" d="M476.28 502.996 476.64 502.756 477.24 503.356H478.2V502.396H476.16V501.916H478.2V500.116H478.68V501.916H480.36V502.396H478.68V503.356H480.12V503.836H477.48L477.72 504.076 477.84 504.196V504.316H477.72L477.36 504.436 476.88 503.596Z" fill-rule="evenodd"/><path transform="matrix(1,0,0,-1,0,595.276)" d="M483.6 504.316 483.24 504.436V502.756L481.92 502.636V502.156L483.24 502.396V500.956 500.716L483.36 500.476 483.6 500.356 483.96 500.236H485.16 485.52L485.64 500.356 485.76 500.476 485.88 500.716 486.12 501.196 485.64 501.436 485.52 501.076V500.956L485.4 500.836 485.28 500.716H485.04 483.96 483.84V500.836L483.72 500.956V501.076 502.396L486.12 502.636V502.996L483.72 502.756V504.076L483.84 504.196V504.316Z" fill-rule="evenodd"/><path transform="matrix(1,0,0,-1,0,595.276)" d="M490.2 502.876H489.24V502.396H490.8V502.036H489.24V501.676H490.8V500.836 500.716 500.596H490.68L490.56 500.476H490.08L490.2 500.116H490.56 490.92L491.04 500.236 491.16 500.476V500.596 501.676H491.88V502.036H491.28V502.396H491.76V502.876H490.68V503.476H491.52V503.836H490.68V504.196 504.316H490.8 490.68L490.2 504.436V503.836H489.36V503.476H490.2Z" fill-rule="evenodd"/><path transform="matrix(1,0,0,-1,0,595.276)" d="M489.72 501.556 489.48 501.196 489.72 500.956 489.96 500.596 490.32 500.956 490.08 501.316Z" fill-rule="evenodd"/><path transform="matrix(1,0,0,-1,0,595.276)" d="M487.68 503.956V500.836 500.596H488.04V500.956H488.64V500.836H489V503.956H487.68ZM488.04 502.636V503.596H488.64V502.636H488.04ZM488.04 501.436V502.396H488.64V501.436H488.04Z" fill-rule="evenodd"/></g></svg>