<?xml version='1.0' encoding='UTF-8'?>
<svg width="492.02" height="264.02" viewBox="37.94 2.99 492.02 264.02" xmlns="http://www.w3.org/2000/svg" xmlns:xlink="http://www.w3.org/1999/xlink" xmlns:inkscape="http://www.inkscape.org/namespaces/inkscape" version="1.1"><g transform="scale(10.0) translate(-220.305, -343.440)"><defs><clipPath id="clip_2"><path transform="matrix(1,0,0,-1,0,595.276)" d="M74.4 .196H767.4V595.276H74.4Z"/></clipPath></defs><path transform="matrix(1,0,0,-1,0,595.276)" stroke-width=".12" stroke-linecap="butt" stroke-miterlimit="10" stroke-linejoin="miter" fill="none" stroke="#ffffff" d="M226.5 250.5V250.5"/><path transform="matrix(1,0,0,-1,0,595.276)" stroke-width=".12" stroke-linecap="butt" stroke-miterlimit="10" stroke-linejoin="miter" fill="none" stroke="#ffffff" d="M226.5 250.5V250.5"/><path transform="matrix(1,0,0,-1,0,595.276)" d="M226.56 250.036H270.84C271.44 250.036 271.8 249.676 271.8 249.076V227.476C271.8 227.236 271.68 226.996 271.56 226.876 271.32 226.636 271.08 226.636 270.84 226.636H226.56C226.32 226.636 226.08 226.636 225.84 226.876 225.72 226.996 225.6 227.236 225.6 227.476V249.076C225.6 249.676 225.96 250.036 226.56 250.036Z" fill="#ffffff" fill-rule="evenodd"/><path transform="matrix(1,0,0,-1,0,595.276)" d="M234.6 238.156H232.44V237.556H233.52L232.56 236.716 231.48 235.996 231.24 235.876 231.36 235.756 231.72 235.516H231.84L233.16 236.356 234.24 237.436 235.08 236.716 236.04 236.116 237 235.636H237.12L237.48 235.876V235.996H237.36L235.92 236.836 234.72 237.796 234.84 238.036Z" fill-rule="evenodd"/><path transform="matrix(1,0,0,-1,0,595.276)" d="M233.16 235.876H235.56V236.356H233.16Z" fill-rule="evenodd"/><path transform="matrix(1,0,0,-1,0,595.276)" d="M232.56 231.076V234.916H233.64V232.156 231.796L233.4 231.676H233.16 232.92L233.04 231.316 233.16 231.196H233.28 233.64 233.88L234 231.316 234.12 231.436 234.24 231.796V235.396H232.08V231.076Z" fill-rule="evenodd"/><path transform="matrix(1,0,0,-1,0,595.276)" d="M233.04 234.556 232.8 234.316 233.28 233.716 233.52 233.956Z" fill-rule="evenodd"/><path transform="matrix(1,0,0,-1,0,595.276)" d="M233.04 233.596 232.68 233.356 233.28 232.636 233.52 232.996Z" fill-rule="evenodd"/><path transform="matrix(1,0,0,-1,0,595.276)" d="M230.52 236.836 230.76 237.316 229.32 237.916 229.08 237.436 229.68 237.196Z" fill-rule="evenodd"/><path transform="matrix(1,0,0,-1,0,595.276)" d="M230.4 234.796 230.76 235.156 229.32 235.996 229.08 235.516Z" fill-rule="evenodd"/><path transform="matrix(1,0,0,-1,0,595.276)" d="M228.96 234.436V233.956H230.16V231.796L229.56 231.316 228.84 230.956 229.2 230.236 229.32 230.356 229.44 230.476 230.28 231.196 230.52 230.956 230.76 230.716 231.12 230.476 231.48 230.356H233.4 237L237.12 230.476 237.24 230.836V230.956H237 234.48 231.72L231.36 231.076 231 231.316 230.88 231.556 230.64 231.916V234.436Z" fill-rule="evenodd"/><path transform="matrix(1,0,0,-1,0,595.276)" d="M235.44 232.516V234.796L235.56 235.036 235.44 235.156H234.84V232.516Z" fill-rule="evenodd"/><path transform="matrix(1,0,0,-1,0,595.276)" d="M236.64 232.036V235.036L236.76 235.156 236.64 235.276 236.04 235.396V232.156L235.92 231.916 235.68 231.676H235.32 235.2V231.556L235.32 231.316V231.196H235.44 235.92L236.4 231.436 236.52 231.676Z" fill-rule="evenodd"/><path transform="matrix(1,0,0,-1,0,595.276)" d="M239.76 243.316 238.92 245.956H237.84L239.16 242.116H239.76 240.36L241.68 245.956H240.6Z" fill-rule="evenodd"/><path transform="matrix(1,0,0,-1,0,595.276)" d="M247.44 242.116V244.396C247.56 244.516 247.56 244.756 247.8 244.756 248.04 244.876 248.28 244.996 248.64 244.996V246.076C248.4 246.076 248.04 246.076 247.92 245.956 247.68 245.956 247.56 245.836 247.44 245.596V245.956H246.48V242.116H247.44Z" fill-rule="evenodd"/><path transform="matrix(1,0,0,-1,0,595.276)" d="M261.24 244.996C261 244.996 260.64 244.756 260.64 244.516V242.116H259.56V245.956H260.64V245.836C260.76 245.836 260.88 245.956 261 246.076 261.12 246.076 261.36 246.076 261.48 246.076 261.96 246.076 262.32 245.956 262.56 245.596 262.8 245.956 263.16 246.076 263.64 246.076 264.36 246.076 264.84 245.716 264.96 245.236 265.08 245.116 265.08 245.116 265.08 244.996V244.876 242.116H264V244.756 244.876L263.88 244.996C263.76 244.996 263.64 244.996 263.52 244.996 263.16 244.996 262.92 244.756 262.8 244.516V242.116H261.84V244.756C261.84 244.876 261.6 244.996 261.24 244.996Z" fill-rule="evenodd"/><path transform="matrix(1,0,0,-1,0,595.276)" d="M234.72 241.876C234 241.876 233.4 242.236 232.92 242.716 232.44 243.196 232.2 243.916 232.2 244.756 232.2 245.596 232.44 246.316 232.92 246.796 233.4 247.396 234 247.636 234.72 247.636 235.56 247.636 236.16 247.396 236.64 246.796 237.12 246.316 237.36 245.596 237.36 244.756 237.36 243.916 237.12 243.196 236.64 242.716 236.16 242.236 235.56 241.876 234.72 241.876ZM236.16 244.756C236.16 245.836 235.68 246.436 234.72 246.436 233.88 246.436 233.4 245.836 233.4 244.756 233.4 243.676 233.88 243.076 234.72 243.076 235.2 243.076 235.56 243.196 235.8 243.556 236.04 243.796 236.16 244.276 236.16 244.756Z" fill-rule="evenodd"/><path transform="matrix(1,0,0,-1,0,595.276)" d="M244.8 243.316C244.68 243.076 244.32 242.956 243.96 242.956 243.84 242.836 243.6 242.956 243.48 243.076 243.36 243.196 243.24 243.316 243.24 243.316 243.24 243.436 243.24 243.556 243.24 243.676H245.64C245.64 245.236 245.04 246.076 243.84 246.076 242.76 246.076 242.16 245.356 242.04 244.036 242.04 243.436 242.16 243.076 242.52 242.596 242.88 242.236 243.48 241.996 243.96 241.876 244.68 241.876 245.28 242.236 245.52 242.596L244.8 243.316ZM243.84 245.116C243.96 245.116 244.2 245.116 244.32 244.996 244.44 244.876 244.56 244.756 244.56 244.516V244.396H243.12V244.516C243.12 244.876 243.48 245.116 243.84 245.116Z" fill-rule="evenodd"/><path transform="matrix(1,0,0,-1,0,595.276)" d="M252.12 242.116V245.956H251.28V246.916C251.52 246.916 251.76 246.916 251.88 247.036 252.12 247.156 252.12 247.276 252.12 247.396H253.2V242.116H252.12Z" fill-rule="evenodd"/><path transform="matrix(1,0,0,-1,0,595.276)" d="M247.68 234.316V234.796H243.84V238.036L243.96 238.156V238.276H243.84L243.24 238.396V234.796H239.4V234.316H243.24V229.876H243.84V234.316Z" fill-rule="evenodd"/><path transform="matrix(1,0,0,-1,0,595.276)" d="M255.24 242.116V245.956H254.4V246.916C254.64 246.916 254.76 246.916 254.88 246.916 254.88 246.916 255 247.036 255.12 247.036L255.24 247.156C255.36 247.276 255.36 247.396 255.36 247.396H256.32V242.116H255.24Z" fill-rule="evenodd"/><path transform="matrix(1,0,0,-1,0,595.276)" d="M262.32 235.636 262.92 235.876 262.32 236.956 261.84 237.916 261.24 237.796 261.72 236.836Z" fill-rule="evenodd"/><path transform="matrix(1,0,0,-1,0,595.276)" d="M265.92 235.996 266.4 235.636 267 236.476 267.48 237.436H267.72V237.556 237.676L267.48 237.796 267.12 237.916 266.52 236.836Z" fill-rule="evenodd"/><path transform="matrix(1,0,0,-1,0,595.276)" d="M264.96 234.436H268.32V234.916H264.72V238.156L264.96 238.276 264.72 238.396H264.36L264.12 238.516V234.916H260.52V234.436H263.76L263.04 233.596 262.2 232.756 261.24 232.036 260.4 231.436 260.28 231.316 260.64 230.956H260.76L261.72 231.556 262.56 232.276 263.4 232.996 264.12 233.836V229.876H264.72V233.956L265.32 233.116 266.16 232.396 267 231.676 267.96 231.076H268.2L268.56 231.316V231.436L268.44 231.556 267.36 232.156 266.4 232.876 265.56 233.716Z" fill-rule="evenodd"/><path transform="matrix(1,0,0,-1,0,595.276)" d="M249.96 234.916V234.436H258V234.916Z" fill-rule="evenodd"/><path transform="matrix(1,0,0,-1,0,595.276)" stroke-width=".12" stroke-linecap="butt" stroke-miterlimit="10" stroke-linejoin="miter" fill="none" stroke="#000000" d="M226.5 250.5V250.5"/><path transform="matrix(1,0,0,-1,0,595.276)" d="M224.64 227.596V249.076C224.64 249.436 224.88 250.036 225.24 250.396 225.6 250.756 226.08 250.996 226.56 250.996H270.72C271.2 250.996 271.8 250.756 272.16 250.396 272.52 250.036 272.76 249.436 272.76 249.076V227.596C272.76 226.516 271.8 225.676 270.72 225.676H226.56C226.08 225.676 225.6 225.796 225.24 226.276 225 226.396 224.88 226.636 224.76 226.876 224.76 227.116 224.64 227.356 224.64 227.596ZM226.56 250.036V250.036C225.96 250.036 225.6 249.676 225.6 249.076V227.476C225.6 227.236 225.72 226.996 225.84 226.876 226.08 226.636 226.32 226.636 226.56 226.636H270.84C271.08 226.636 271.32 226.636 271.56 226.876 271.68 226.996 271.8 227.236 271.8 227.476V249.076C271.8 249.676 271.44 250.036 270.84 250.036H226.56Z" fill-rule="evenodd"/></g></svg>