<?xml version='1.0' encoding='UTF-8'?>
<svg width="556.92" height="147.72" viewBox="4.41 61.74 556.92 147.72" xmlns="http://www.w3.org/2000/svg" xmlns:xlink="http://www.w3.org/1999/xlink" xmlns:inkscape="http://www.inkscape.org/namespaces/inkscape" version="1.1"><g transform="scale(10.0) translate(-438.573, -343.440)"><defs><clipPath id="clip_2"><path transform="matrix(1,0,0,-1,0,595.276)" d="M74.4 .196H767.4V595.276H74.4Z"/></clipPath></defs><path transform="matrix(1,0,0,-1,0,595.276)" d="M440.52 244.636H493.2C493.32 244.636 493.32 244.636 493.44 244.636 493.44 244.636 493.56 244.636 493.56 244.516L493.68 244.396V244.276 232.396C493.68 232.276 493.68 232.156 493.56 232.036 493.44 232.036 493.32 231.916 493.2 231.916H440.52C440.4 231.916 440.28 232.036 440.16 232.036 440.16 232.156 440.04 232.276 440.04 232.396V244.276C440.04 244.276 440.16 244.396 440.16 244.516 440.28 244.636 440.4 244.636 440.52 244.636Z" fill="#ffffff" fill-rule="evenodd"/><path transform="matrix(1,0,0,-1,0,595.276)" d="M481.2 237.676H478.56L478.8 238.036V238.156H478.92 478.8L478.68 238.276 478.56 238.396 478.08 237.556 477.6 236.716 477.84 236.596 478.2 236.956 478.44 237.436H479.52V236.116H477.48V235.876H479.52V234.076H479.76V235.876H481.56V236.116H479.76V237.436H481.2Z" fill-rule="evenodd"/><path transform="matrix(1,0,0,-1,0,595.276)" d="M491.52 236.716H490.44 490.32V237.436H490.44 491.28V237.556 237.676H490.44L490.32 237.796V238.156H490.44V238.276H490.32 490.08V237.796 237.676H489.36 489.24V237.556 237.436H489.36 490.08V236.716H489V236.596 236.476H491.52V236.596Z" fill-rule="evenodd"/><path transform="matrix(1,0,0,-1,0,595.276)" d="M490.56 236.236V235.876H489.12V235.756 235.636H490.56V235.516 234.556 234.436L490.44 234.316H490.08V234.196 234.076H490.2 490.68L490.8 234.196 490.92 234.316V234.436 235.516 235.636H491.4V235.756 235.876H490.92V236.116 236.236H490.8 490.68V236.356Z" fill-rule="evenodd"/><path transform="matrix(1,0,0,-1,0,595.276)" d="M489.36 235.396 489.12 235.156 489.48 234.916 489.84 234.676 489.96 234.916 489.72 235.156Z" fill-rule="evenodd"/><path transform="matrix(1,0,0,-1,0,595.276)" d="M470.4 237.556 470.76 236.956 468.6 236.716 469.44 237.796H471.36V238.036H467.64V237.796H469.08L468.36 236.716H467.64L467.76 236.596 467.88 236.476V236.356L468 236.476 470.88 236.716 471.12 236.356H471.36L471 237.076 470.52 237.676Z" fill-rule="evenodd"/><path transform="matrix(1,0,0,-1,0,595.276)" d="M469.68 234.556V235.516H471.12V235.756H469.68V236.116L469.8 236.236V236.356H469.68 469.32V235.756H467.88V235.516H469.32V234.556H467.52V234.316H471.48V234.556Z" fill-rule="evenodd"/><path transform="matrix(1,0,0,-1,0,595.276)" d="M446.16 237.676H443.52L443.76 238.036 443.88 238.156H443.76L443.64 238.276 443.52 238.396 443.04 237.556 442.56 236.716 442.8 236.596 443.16 236.956 443.4 237.436H444.48V236.116H442.44V235.876H444.48V234.076H444.72V235.876H446.52V236.116H444.72V237.436H446.16Z" fill-rule="evenodd"/><path transform="matrix(1,0,0,-1,0,595.276)" d="M447.48 237.436H451.44V237.676H449.64V238.156 238.276H449.28V237.676H447.48Z" fill-rule="evenodd"/><path transform="matrix(1,0,0,-1,0,595.276)" d="M448.44 234.196V236.356 236.476L448.8 237.076 448.92 237.196H448.8L448.56 237.316 448.32 236.836 447.96 236.476 447.72 236.116 447.36 235.756 447.6 235.636 448.08 236.116V234.196Z" fill-rule="evenodd"/><path transform="matrix(1,0,0,-1,0,595.276)" d="M456.48 236.356V236.596H454.56V238.156H454.68V238.276H454.32V236.596H452.52V236.356H454.32V234.076H454.56V236.356Z" fill-rule="evenodd"/><path transform="matrix(1,0,0,-1,0,595.276)" d="M457.92 237.436H461.04V237.676H457.92Z" fill-rule="evenodd"/><path transform="matrix(1,0,0,-1,0,595.276)" d="M457.44 234.796H461.52V235.036H457.44Z" fill-rule="evenodd"/><path transform="matrix(1,0,0,-1,0,595.276)" d="M466.44 236.716H465.36V237.436H466.2V237.556 237.676H465.36V237.796 238.156 238.276H465.24 465.12 465V237.796 237.676H464.28 464.16V237.556 237.436H464.28 465V236.716H463.92V236.596 236.476H466.44 466.56V236.596Z" fill-rule="evenodd"/><path transform="matrix(1,0,0,-1,0,595.276)" d="M465.6 236.236V235.876H465.48 464.16L464.04 235.756V235.636H464.16 465.48L465.6 235.516V234.556L465.48 234.436V234.316H465.12 465V234.196L465.12 234.076H465.6L465.72 234.196H465.84V234.316 234.436 235.516 235.636H466.32 466.44V235.756L466.32 235.876H465.84V236.116L465.96 236.236H465.84 465.72L465.6 236.356Z" fill-rule="evenodd"/><path transform="matrix(1,0,0,-1,0,595.276)" d="M464.28 235.396 464.16 235.156 464.52 234.916 464.88 234.676 465 234.916 464.64 235.156Z" fill-rule="evenodd"/><path transform="matrix(1,0,0,-1,0,595.276)" d="M449.76 236.236 450.12 235.756 450.36 235.876 450.12 236.116 449.88 236.356Z" fill-rule="evenodd"/><path transform="matrix(1,0,0,-1,0,595.276)" d="M487.44 234.556H487.68L487.8 234.676V235.156H488.4 488.52V234.916H488.76V237.796 237.916H487.44V237.796 234.676 234.556ZM487.8 236.476V236.476H488.4 488.52V235.516L488.4 235.396H487.8V235.516 236.476ZM488.4 236.716H487.8V237.556 237.676H488.4L488.52 237.556V236.716H488.4Z" fill-rule="evenodd"/><path transform="matrix(1,0,0,-1,0,595.276)" d="M462.48 234.556H462.72V234.676 235.156H463.44V234.916H463.68V237.796 237.916H462.48V237.796 234.676 234.556ZM462.72 236.476H463.44V235.516 235.396H462.72V235.516 236.476ZM463.44 236.716H462.72V237.556 237.676H463.44V237.556 236.716Z" fill-rule="evenodd"/><path transform="matrix(1,0,0,-1,0,595.276)" d="M450.6 235.276 450.36 234.916 450.84 234.676 451.44 234.436H451.56V234.316L451.44 234.196 451.32 234.076 451.2 234.196 450.6 234.436 450.12 234.676 449.64 234.436 449.04 234.076H448.92V234.196L448.8 234.316 448.92 234.436 449.4 234.676 449.88 234.916 449.52 235.396 449.28 235.876 448.92 235.636 448.8 235.876 449.04 236.116 449.28 236.476 449.52 236.836 449.76 237.316 449.88 237.196H450L450.12 237.076H450L449.88 236.836H450.96 451.08V236.716 236.596L450.96 236.116 450.72 235.756 450.6 235.276ZM450.12 235.156 450.36 235.516 450.48 235.876 450.6 236.236 450.72 236.596H449.76L449.4 236.116 449.76 235.636 450.12 235.156Z" fill-rule="evenodd"/><path transform="matrix(1,0,0,-1,0,595.276)" d="M470.76 240.676H469.92V241.036H470.76Z" fill-rule="evenodd"/><path transform="matrix(1,0,0,-1,0,595.276)" d="M477.12 240.076V241.276C477.12 241.396 477.24 241.516 477.36 241.516 477.48 241.516 477.6 241.516 477.6 241.396V240.076H478.08V241.276C478.2 241.396 478.32 241.516 478.44 241.516 478.56 241.516 478.56 241.516 478.68 241.516V241.396 240.076H479.16V241.396 241.516 241.636C479.04 241.876 478.8 241.996 478.44 241.996 478.32 241.996 478.08 241.996 477.96 241.756 477.84 241.996 477.72 241.996 477.48 241.996 477.36 241.996 477.36 241.996 477.24 241.996 477.24 241.996 477.12 241.876 477 241.876V241.996H476.52V240.076H477.12Z" fill-rule="evenodd"/><path transform="matrix(1,0,0,-1,0,595.276)" d="M456 240.796 455.16 241.876V240.076H454.56V242.716H455.28L456 241.756 456.6 242.716H457.32V240.076H456.72V241.876Z" fill-rule="evenodd"/><path transform="matrix(1,0,0,-1,0,595.276)" d="M457.92 241.996V240.076H458.4V241.996Z" fill-rule="evenodd"/><path transform="matrix(1,0,0,-1,0,595.276)" d="M460.92 241.996V240.076H461.52V241.276C461.52 241.396 461.64 241.516 461.88 241.516 462 241.516 462.12 241.396 462.12 241.276V241.156 240.076H462.6V241.396C462.6 241.876 462.36 241.996 461.88 241.996 461.88 241.996 461.76 241.996 461.64 241.996L461.52 241.876V241.996H460.92Z" fill-rule="evenodd"/><path transform="matrix(1,0,0,-1,0,595.276)" d="M463.2 240.076H463.68V241.996H463.2Z" fill-rule="evenodd"/><path transform="matrix(1,0,0,-1,0,595.276)" d="M467.28 241.996C467.04 241.996 466.8 241.996 466.8 241.876V242.716H466.32V240.076H466.8V241.156C466.8 241.276 466.8 241.396 466.92 241.396 466.92 241.516 467.04 241.516 467.16 241.516H467.28C467.4 241.396 467.4 241.396 467.4 241.276V240.076H467.88V241.516C467.88 241.636 467.88 241.756 467.76 241.876 467.52 241.996 467.4 241.996 467.28 241.996Z" fill-rule="evenodd"/><path transform="matrix(1,0,0,-1,0,595.276)" d="M469.08 240.676V241.516H469.56V241.996H469.08V242.716L468.6 242.476V241.996H468.24V241.516H468.6V240.556C468.6 240.316 468.72 240.196 468.72 240.196 468.84 240.076 468.96 240.076 469.08 240.076 469.2 240.076 469.32 240.076 469.44 240.076 469.56 240.076 469.56 240.076 469.68 240.076L469.56 240.556C469.44 240.556 469.32 240.436 469.32 240.556 469.2 240.556 469.08 240.556 469.08 240.676Z" fill-rule="evenodd"/><path transform="matrix(1,0,0,-1,0,595.276)" d="M463.8 242.476C463.8 242.596 463.68 242.716 463.44 242.716 463.32 242.716 463.2 242.596 463.2 242.476 463.2 242.236 463.32 242.116 463.44 242.116 463.68 242.116 463.8 242.236 463.8 242.476Z" fill-rule="evenodd"/><path transform="matrix(1,0,0,-1,0,595.276)" d="M458.4 242.476C458.4 242.596 458.28 242.716 458.16 242.716 457.92 242.716 457.8 242.596 457.8 242.476 457.8 242.236 457.92 242.116 458.16 242.116 458.28 242.116 458.4 242.236 458.4 242.476Z" fill-rule="evenodd"/><path transform="matrix(1,0,0,-1,0,595.276)" d="M475.56 241.276C474.84 241.276 474.48 241.156 474.48 240.676 474.48 240.556 474.48 240.316 474.6 240.196 474.72 240.076 474.96 240.076 475.2 240.076 475.32 240.076 475.56 240.196 475.68 240.196 475.68 240.196 475.68 240.076 475.8 240.076 475.8 240.076 475.92 240.076 476.16 240.076L476.28 240.436C476.16 240.436 476.16 240.436 476.04 240.436V240.556 241.516C476.04 241.876 475.8 241.996 475.32 241.996 475.08 241.996 474.96 241.996 474.84 241.996 474.72 241.876 474.6 241.876 474.48 241.756L474.72 241.396C474.84 241.516 475.08 241.636 475.32 241.636L475.44 241.516 475.56 241.396V241.276ZM474.96 240.676C474.96 240.796 474.96 240.796 475.08 240.796 475.2 240.916 475.32 240.916 475.56 240.916V240.556C475.44 240.556 475.44 240.436 475.32 240.436 475.2 240.436 475.08 240.436 475.08 240.556 474.96 240.556 474.96 240.556 474.96 240.676Z" fill-rule="evenodd"/><path transform="matrix(1,0,0,-1,0,595.276)" d="M460.08 241.876C459.84 241.996 459.72 241.996 459.6 241.996 459.12 241.996 458.76 241.756 458.76 241.156V241.036 240.916C458.88 240.316 459.12 239.956 459.6 240.076 459.84 240.076 459.96 240.076 460.08 240.196V240.076H460.56V242.716H460.08V241.876ZM459.72 240.436C459.36 240.436 459.24 240.676 459.24 241.036 459.24 241.396 459.36 241.516 459.72 241.516 459.84 241.516 459.84 241.516 459.96 241.396L460.08 241.276V241.156 240.676C459.96 240.676 459.96 240.556 459.84 240.556L459.72 240.436Z" fill-rule="evenodd"/><path transform="matrix(1,0,0,-1,0,595.276)" d="M464.04 241.036C464.16 240.436 464.4 240.196 464.88 240.196 465 240.196 465 240.196 465.12 240.196 465.24 240.196 465.24 240.316 465.24 240.316V240.196C465.24 240.076 465.12 239.956 465 239.956 464.88 239.956 464.76 239.956 464.64 239.956 464.52 239.956 464.4 240.076 464.28 240.076L464.04 239.716C464.28 239.596 464.64 239.476 464.88 239.476 465.48 239.476 465.72 239.596 465.84 240.076V241.996H465.24V241.876C465.24 241.996 465.12 241.996 464.88 241.996 464.28 241.996 464.04 241.636 464.04 241.036ZM465.24 240.916C465.24 240.676 465.12 240.676 465 240.676 464.76 240.676 464.64 240.796 464.52 241.036 464.64 241.396 464.76 241.516 464.88 241.516 465 241.516 465.12 241.516 465.12 241.516 465.24 241.396 465.24 241.396 465.24 241.276V240.916Z" fill-rule="evenodd"/><path transform="matrix(1,0,0,-1,0,595.276)" d="M473.16 241.036C473.16 241.516 472.8 241.876 472.32 241.876 472.2 241.876 472.08 241.876 471.96 241.876 471.84 241.876 471.84 241.756 471.84 241.756 471.84 241.876 471.84 241.876 471.84 241.996V242.116C471.96 242.236 472.08 242.236 472.2 242.236 472.32 242.236 472.32 242.236 472.44 242.236 472.56 242.116 472.56 242.116 472.68 241.996L473.04 242.236C472.92 242.596 472.68 242.716 472.2 242.716 471.6 242.716 471.24 242.356 471.24 241.516 471.24 241.036 471.36 240.676 471.48 240.436 471.72 240.196 471.96 240.076 472.32 240.076 472.56 240.076 472.8 240.076 472.92 240.316 473.04 240.436 473.04 240.436 473.16 240.556 473.16 240.676 473.16 240.796 473.16 240.916V241.036ZM472.68 240.916C472.68 240.676 472.44 240.556 472.2 240.556 471.96 240.556 471.84 240.676 471.84 240.916 471.84 241.276 471.96 241.396 472.2 241.396 472.44 241.396 472.68 241.276 472.68 240.916Z" fill-rule="evenodd"/><path transform="matrix(1,0,0,-1,0,595.276)" d="M476.04 236.356V236.596H474.36V238.036 238.156H474.24L474 238.276V234.436H472.32V234.196H476.4V234.436H474.36V236.356Z" fill-rule="evenodd"/><path transform="matrix(1,0,0,-1,0,595.276)" d="M486.6 236.956H484.68V237.916 238.036H484.56 484.32V236.956H482.52V236.716H486.6Z" fill-rule="evenodd"/><path transform="matrix(1,0,0,-1,0,595.276)" d="M483.96 235.996 483.72 236.116 483.48 235.756 483.12 235.276 482.88 234.796 482.52 234.436 482.76 234.316H482.88L483.48 235.036 483.96 235.876H484.08V235.996Z" fill-rule="evenodd"/><path transform="matrix(1,0,0,-1,0,595.276)" d="M485.28 236.116 485.04 235.996 485.28 235.516 485.64 235.036 485.88 234.676 486.24 234.316 486.48 234.436 486.12 234.796 485.88 235.156 485.52 235.636Z" fill-rule="evenodd"/><path transform="matrix(1,0,0,-1,0,595.276)" d="M440.52 231.436H493.2C493.44 231.436 493.68 231.556 493.92 231.796 494.04 231.916 494.16 232.156 494.16 232.396V244.276C494.16 244.396 494.04 244.636 493.92 244.876 493.68 244.996 493.44 245.116 493.2 245.116H440.52C440.04 245.116 439.56 244.756 439.56 244.276V232.396C439.56 232.156 439.68 231.916 439.92 231.796 440.04 231.556 440.28 231.436 440.52 231.436ZM440.52 231.916V231.916C440.52 231.916 440.4 231.916 440.4 232.036 440.28 232.036 440.28 232.036 440.16 232.036 440.16 232.156 440.04 232.276 440.04 232.396V244.276C440.04 244.516 440.28 244.636 440.52 244.636H493.2C493.32 244.636 493.44 244.636 493.56 244.516 493.68 244.396 493.68 244.276 493.68 244.276V232.396C493.68 232.156 493.56 231.916 493.2 231.916H440.52Z" fill-rule="evenodd"/></g></svg>