<?xml version='1.0' encoding='UTF-8'?>
<svg width="550.78" height="267.58" viewBox="8.02 1.93 550.78 267.58" xmlns="http://www.w3.org/2000/svg" xmlns:xlink="http://www.w3.org/1999/xlink" xmlns:inkscape="http://www.inkscape.org/namespaces/inkscape" version="1.1"><g transform="scale(10.0) translate(-329.439, -235.728)"><defs><clipPath id="clip_2"><path transform="matrix(1,0,0,-1,0,595.276)" d="M74.4 .196H767.4V595.276H74.4Z"/></clipPath></defs><path transform="matrix(1,0,0,-1,0,595.276)" d="M332.4 358.756H383.28C383.64 358.756 384 358.636 384.24 358.276 384.6 358.036 384.72 357.676 384.72 357.316V334.756C384.72 334.396 384.6 333.916 384.24 333.676 384 333.316 383.64 333.196 383.28 333.196H332.4C332.04 333.196 331.56 333.316 331.32 333.676 330.96 333.916 330.84 334.396 330.84 334.756V357.316C330.84 357.676 330.96 358.036 331.32 358.276 331.56 358.636 332.04 358.756 332.4 358.756ZM332.4 358.036C332.16 358.036 331.92 357.916 331.8 357.796 331.68 357.676 331.56 357.436 331.56 357.316V334.756C331.56 334.516 331.68 334.396 331.8 334.156 331.92 334.036 332.16 333.916 332.4 333.916H383.28C383.4 333.916 383.64 334.036 383.76 334.156 383.88 334.396 384 334.516 384 334.756V357.316C384 357.436 383.88 357.676 383.76 357.796 383.64 357.916 383.4 358.036 383.28 358.036H332.4Z" fill-rule="evenodd"/><path transform="matrix(1,0,0,-1,0,595.276)" d="M332.4 358.036H383.28C383.4 358.036 383.64 357.916 383.76 357.796 383.88 357.676 384 357.436 384 357.316V334.756C384 334.516 383.88 334.396 383.76 334.156 383.64 334.036 383.4 333.916 383.28 333.916H332.4C332.16 333.916 331.92 334.036 331.8 334.156 331.68 334.396 331.56 334.516 331.56 334.756V357.316C331.56 357.436 331.68 357.676 331.8 357.796 331.92 357.916 332.16 358.036 332.4 358.036Z" fill="#ffffff" fill-rule="evenodd"/><path transform="matrix(1,0,0,-1,0,595.276)" d="M335.76 352.756H337.44V353.596H335.76V354.436H337.56V355.156H334.92V351.196H337.8V352.036H335.76Z" fill-rule="evenodd"/><path transform="matrix(1,0,0,-1,0,595.276)" d="M340.2 354.076H341.04L340.2 352.636 341.16 351.196H340.2L339.72 352.036 339.24 351.196H338.4L339.24 352.636 338.52 354.076H339.36L339.72 353.236Z" fill-rule="evenodd"/><path transform="matrix(1,0,0,-1,0,595.276)" d="M342.84 354.196C343.2 354.196 343.44 354.076 343.68 353.956 343.92 353.836 344.04 353.596 344.16 353.236L343.56 352.996C343.44 353.356 343.2 353.476 342.96 353.476 342.6 353.476 342.36 353.236 342.24 352.756V352.636C342.24 352.516 342.24 352.516 342.24 352.396 342.36 352.036 342.6 351.796 342.96 351.796 343.08 351.796 343.2 351.796 343.32 351.916 343.44 352.036 343.44 352.156 343.56 352.276L344.16 352.036C344.04 351.316 343.56 351.076 342.96 351.076 342 351.076 341.52 351.556 341.52 352.636 341.64 353.596 342 354.196 342.84 354.196Z" fill-rule="evenodd"/><path transform="matrix(1,0,0,-1,0,595.276)" d="M347.16 352.396C347.28 353.476 346.8 354.076 345.84 354.196 345.12 354.196 344.64 353.596 344.52 352.636 344.52 352.276 344.64 351.916 344.88 351.556 345.24 351.196 345.6 351.076 345.96 351.076 346.44 351.076 347.04 351.316 347.16 351.556L346.68 352.036C346.56 351.916 346.32 351.796 345.96 351.796 345.84 351.796 345.72 351.796 345.6 351.916 345.48 352.036 345.48 352.036 345.48 352.156 345.36 352.156 345.36 352.276 345.36 352.396H347.16ZM345.36 352.996V352.996C345.36 353.116 345.48 353.236 345.6 353.356 345.6 353.476 345.84 353.476 345.96 353.476 346.08 353.476 346.32 353.236 346.44 352.996H345.36Z" fill-rule="evenodd"/><path transform="matrix(1,0,0,-1,0,595.276)" d="M350.64 352.636C350.64 353.116 350.52 353.476 350.28 353.716 350.04 354.076 349.68 354.196 349.2 354.196 348.96 354.196 348.6 354.076 348.6 353.956V354.076H347.76V350.236H348.6V351.316C348.72 351.196 348.96 351.076 349.32 351.076 350.04 351.076 350.64 351.676 350.64 352.636ZM349.2 351.796C349.08 351.796 348.96 351.916 348.84 351.916 348.72 352.036 348.6 352.156 348.6 352.276V353.116C348.6 353.236 348.84 353.476 349.2 353.476 349.32 353.476 349.68 353.356 349.8 353.116V352.996 352.396 352.276 352.156C349.68 351.916 349.32 351.796 349.2 351.796Z" fill-rule="evenodd"/><path transform="matrix(1,0,0,-1,0,595.276)" d="M352.2 354.076H352.92V353.356H352.2V352.156C352.2 352.036 352.2 351.916 352.32 351.916 352.32 351.796 352.44 351.796 352.56 351.796H352.68C352.8 351.796 352.8 351.796 352.92 351.796L353.04 351.196C352.92 351.076 352.68 351.076 352.2 351.076 351.96 351.076 351.84 351.076 351.72 351.196 351.6 351.316 351.48 351.556 351.48 351.796V353.356H351V354.076H351.48V354.916L352.2 355.156V354.076Z" fill-rule="evenodd"/><path transform="matrix(1,0,0,-1,0,595.276)" d="M356.4 351.076C356.64 351.076 357 351.196 357.24 351.436 357.36 351.796 357.48 352.156 357.48 352.516 357.48 352.996 357.36 353.356 357.12 353.716 357 353.956 356.64 354.196 356.28 354.196 356.04 354.196 355.8 354.076 355.68 353.836V355.156H354.96V351.196H355.68V351.316C355.92 351.076 356.16 351.076 356.4 351.076ZM356.28 351.796C355.92 351.796 355.8 351.916 355.68 352.156V352.996C355.8 353.116 355.8 353.236 355.92 353.356 356.04 353.356 356.16 353.476 356.28 353.476 356.64 353.356 356.76 353.116 356.76 352.636 356.76 352.036 356.52 351.796 356.28 351.796Z" fill-rule="evenodd"/><path transform="matrix(1,0,0,-1,0,595.276)" d="M359.88 354.076H360.72V351.196H359.88V351.316C359.88 351.196 359.76 351.196 359.64 351.076 359.52 351.076 359.28 351.076 359.16 351.076 358.92 351.076 358.56 351.196 358.32 351.316 358.2 351.556 358.08 351.796 358.08 352.036V354.076H358.8V352.276C358.8 352.156 358.92 352.036 359.04 351.916 359.16 351.916 359.28 351.796 359.28 351.796 359.52 351.796 359.64 351.916 359.76 352.036L359.88 352.156C359.88 352.276 359.88 352.276 359.88 352.396V354.076Z" fill-rule="evenodd"/><path transform="matrix(1,0,0,-1,0,595.276)" d="M363.72 352.036C363.84 352.636 363.48 352.996 362.88 353.116 362.64 353.116 362.52 353.116 362.4 353.116 362.28 353.116 362.28 353.116 362.28 353.236 362.28 353.476 362.4 353.476 362.64 353.476 362.76 353.476 362.88 353.476 363 353.476 363.12 353.356 363.24 353.356 363.24 353.236L363.72 353.716C363.48 354.076 363.12 354.196 362.64 354.196 361.92 354.196 361.44 353.836 361.44 353.236 361.44 352.756 361.8 352.396 362.28 352.276 362.76 352.276 362.88 352.276 362.88 352.036V351.916C362.76 351.796 362.76 351.796 362.64 351.796 362.4 351.796 362.28 351.796 362.16 351.916 362.04 351.916 361.92 352.036 361.8 352.156L361.2 351.676C361.56 351.316 362.04 351.076 362.52 351.076 363.36 351.076 363.72 351.436 363.72 352.036Z" fill-rule="evenodd"/><path transform="matrix(1,0,0,-1,0,595.276)" d="M366.84 352.396C366.84 353.476 366.36 354.076 365.52 354.196 364.68 354.196 364.2 353.596 364.2 352.636 364.2 352.276 364.32 351.916 364.44 351.556 364.8 351.196 365.28 351.076 365.64 351.076 366.12 351.076 366.6 351.316 366.72 351.556L366.24 352.036C366.12 351.916 365.88 351.796 365.64 351.796 365.52 351.796 365.28 351.796 365.16 351.916 365.16 352.036 365.04 352.036 365.04 352.156 365.04 352.156 365.04 352.276 365.04 352.396H366.84ZM364.92 352.996V352.996C365.04 353.116 365.04 353.236 365.16 353.356 365.28 353.476 365.4 353.476 365.52 353.476 365.76 353.476 366 353.236 366 352.996H364.92Z" fill-rule="evenodd"/><path transform="matrix(1,0,0,-1,0,595.276)" d="M369.72 352.036C369.72 352.636 369.48 352.996 368.76 353.116 368.52 353.116 368.4 353.116 368.28 353.116V353.236H368.16C368.16 353.476 368.28 353.476 368.64 353.476 368.76 353.476 368.88 353.476 369 353.476 369 353.356 369.12 353.356 369.24 353.236L369.72 353.716C369.48 354.076 369.12 354.196 368.64 354.196 367.8 354.196 367.44 353.836 367.32 353.236 367.44 352.756 367.68 352.396 368.28 352.276 368.64 352.276 368.88 352.276 368.88 352.036 368.88 351.916 368.88 351.916 368.76 351.916 368.76 351.796 368.64 351.796 368.52 351.796 368.4 351.796 368.28 351.796 368.16 351.916 367.92 351.916 367.8 352.036 367.68 352.156L367.2 351.676C367.44 351.316 367.92 351.076 368.52 351.076 369.24 351.076 369.72 351.436 369.72 352.036Z" fill-rule="evenodd"/><path transform="matrix(1,0,0,-1,0,595.276)" d="M374.28 351.676 374.04 351.076C373.92 351.076 373.68 351.076 373.56 351.196 373.44 351.196 373.32 351.316 373.32 351.436 373.32 351.196 372.96 351.076 372.6 351.076 371.88 351.076 371.52 351.436 371.52 352.156 371.52 352.756 372 352.996 373.2 352.996V353.116C373.2 353.236 373.08 353.356 373.08 353.356 373.08 353.476 372.96 353.476 372.84 353.476 372.6 353.476 372.48 353.476 372.36 353.356 372.12 353.356 372 353.236 371.88 353.116L371.52 353.716C371.88 354.076 372.24 354.196 372.84 354.196 373.2 354.196 373.44 354.076 373.68 353.956 373.8 353.836 373.92 353.596 374.04 353.356V351.916C374.04 351.796 374.04 351.676 374.28 351.676ZM372.36 352.036C372.36 351.916 372.36 351.916 372.36 351.796 372.48 351.796 372.6 351.796 372.72 351.796 372.96 351.796 373.08 351.796 373.2 351.916V352.396C372.84 352.396 372.72 352.396 372.48 352.276 372.36 352.276 372.36 352.156 372.36 352.036Z" fill-rule="evenodd"/><path transform="matrix(1,0,0,-1,0,595.276)" d="M377.4 351.196V353.116 353.236C377.4 353.836 377.04 354.196 376.32 354.196 376.2 354.196 376.08 354.196 375.96 354.076 375.84 354.076 375.72 353.956 375.6 353.956V354.076H374.88V351.196H375.6V352.996C375.72 353.236 375.84 353.476 376.2 353.476 376.44 353.476 376.56 353.236 376.56 352.996V352.876 351.196H377.4Z" fill-rule="evenodd"/><path transform="matrix(1,0,0,-1,0,595.276)" d="M380.16 353.956V355.156H380.88V351.076H380.16V351.316C380.04 351.196 379.8 351.076 379.44 351.076 378.72 351.076 378.24 351.556 378.12 352.516V352.876C378.12 353.716 378.72 354.076 379.32 354.076 379.56 354.196 379.8 354.076 380.16 353.956ZM380.16 352.156V352.876C380.16 352.996 380.16 352.996 380.04 352.996 380.04 353.116 380.04 353.116 380.04 353.236H379.92C379.8 353.356 379.68 353.356 379.56 353.356 379.08 353.356 378.84 353.116 378.84 352.636 378.84 352.036 379.08 351.796 379.56 351.796 379.8 351.796 380.04 351.916 380.16 352.156Z" fill-rule="evenodd"/><path transform="matrix(1,0,0,-1,0,595.276)" d="M340.92 345.436V348.316H340.08C340.08 348.436 339.84 348.556 339.48 348.556 338.64 348.436 338.16 347.956 338.16 346.996 338.28 346.036 338.76 345.676 339.48 345.556 339.6 345.556 339.72 345.676 339.84 345.676 339.96 345.676 340.08 345.796 340.08 345.796V345.676C339.96 345.436 339.84 345.196 339.6 345.196 339.48 345.196 339.36 345.196 339.12 345.316 339 345.316 338.76 345.436 338.52 345.556L338.16 344.836C338.52 344.716 339 344.476 339.6 344.476 340.32 344.476 340.8 344.836 340.92 345.436ZM340.08 347.356V346.756C340.08 346.636 339.96 346.516 339.96 346.396 339.84 346.396 339.72 346.276 339.6 346.276 339.24 346.276 339 346.516 339 346.996 339 347.476 339.24 347.716 339.6 347.716 339.84 347.716 340.08 347.596 340.08 347.356Z" fill-rule="evenodd"/><path transform="matrix(1,0,0,-1,0,595.276)" d="M344.4 346.996C344.4 347.956 343.92 348.556 342.96 348.556 342.12 348.556 341.64 347.956 341.64 346.996 341.64 345.916 342.12 345.436 342.96 345.436 343.92 345.436 344.4 345.916 344.4 346.996ZM343.56 346.996C343.56 346.756 343.56 346.516 343.44 346.396 343.32 346.276 343.2 346.156 342.96 346.156 342.84 346.156 342.72 346.276 342.6 346.396 342.48 346.516 342.48 346.756 342.48 346.996 342.48 347.236 342.48 347.356 342.6 347.476 342.72 347.596 342.84 347.716 342.96 347.716 343.2 347.716 343.32 347.596 343.44 347.476 343.56 347.356 343.56 347.236 343.56 346.996Z" fill-rule="evenodd"/><path transform="matrix(1,0,0,-1,0,595.276)" d="M347.76 346.996C347.76 347.956 347.16 348.556 346.32 348.556 345.36 348.556 344.88 347.956 344.88 346.996 344.88 345.916 345.36 345.436 346.32 345.436 347.16 345.436 347.76 345.916 347.76 346.996ZM346.92 346.996C346.92 346.756 346.8 346.516 346.68 346.396 346.68 346.276 346.44 346.156 346.32 346.156 346.08 346.156 345.96 346.276 345.84 346.396 345.72 346.516 345.72 346.756 345.72 346.996 345.72 347.236 345.72 347.356 345.84 347.476 345.96 347.596 346.08 347.716 346.32 347.716 346.44 347.716 346.68 347.596 346.68 347.476 346.8 347.356 346.92 347.236 346.92 346.996Z" fill-rule="evenodd"/><path transform="matrix(1,0,0,-1,0,595.276)" d="M350.16 348.316V349.516H351V345.436H350.16V345.556C350.04 345.436 349.8 345.436 349.44 345.436 348.84 345.316 348.24 345.796 348.12 346.756V346.876 347.116 347.236C348.24 347.956 348.72 348.436 349.44 348.436 349.68 348.436 349.92 348.436 350.16 348.316ZM350.16 346.516V347.236 347.356C350.16 347.476 350.04 347.476 350.04 347.476V347.596C349.92 347.716 349.8 347.716 349.56 347.716 349.2 347.716 348.96 347.476 348.84 346.996 348.96 346.396 349.08 346.156 349.56 346.036 349.8 346.156 350.04 346.276 350.16 346.516Z" fill-rule="evenodd"/><path transform="matrix(1,0,0,-1,0,595.276)" d="M354 346.396C354 346.996 353.76 347.236 353.04 347.356 352.8 347.356 352.68 347.476 352.56 347.476H352.44V347.596C352.44 347.716 352.56 347.836 352.92 347.836 353.04 347.836 353.16 347.836 353.28 347.716 353.28 347.716 353.4 347.596 353.52 347.476L354 348.076C353.76 348.316 353.4 348.556 352.92 348.556 352.08 348.556 351.72 348.196 351.6 347.476 351.72 346.996 351.96 346.756 352.56 346.636 352.92 346.636 353.16 346.516 353.16 346.396 353.16 346.276 353.16 346.276 353.04 346.156 353.04 346.156 352.92 346.156 352.8 346.156 352.68 346.156 352.56 346.156 352.44 346.276 352.2 346.276 352.08 346.396 351.96 346.516L351.48 345.916C351.72 345.556 352.2 345.436 352.8 345.436 353.52 345.436 354 345.796 354 346.396Z" fill-rule="evenodd"/><path transform="matrix(1,0,0,-1,0,595.276)" d="M356.64 345.556 355.68 348.316H356.52L357.12 346.396 357.72 348.316H358.56L357.6 345.556H357.12Z" fill-rule="evenodd"/><path transform="matrix(1,0,0,-1,0,595.276)" d="M361.56 346.636C361.56 347.836 361.08 348.436 360.12 348.556 359.4 348.556 358.92 347.956 358.92 346.996 358.92 346.516 359.04 346.156 359.16 345.916 359.52 345.556 359.88 345.436 360.36 345.436 360.84 345.316 361.32 345.556 361.44 345.916L360.96 346.396C360.84 346.276 360.6 346.156 360.36 346.156 360.24 346.156 360 346.156 359.88 346.276 359.88 346.276 359.76 346.396 359.76 346.516V346.636H361.56ZM359.64 347.236V347.236C359.64 347.356 359.76 347.596 359.88 347.596 360 347.716 360.12 347.836 360.24 347.836 360.48 347.836 360.72 347.596 360.72 347.356V347.236H359.64Z" fill-rule="evenodd"/><path transform="matrix(1,0,0,-1,0,595.276)" stroke-width=".12" stroke-linecap="butt" stroke-miterlimit="10" stroke-linejoin="miter" fill="none" stroke="#000000" d="M363.5 347.5V347.5"/><path transform="matrix(1,0,0,-1,0,595.276)" d="M363.84 347.236V347.236C363.84 347.476 363.6 347.716 363.36 347.716 363.24 347.716 363.12 347.716 363 347.596L362.88 347.476C362.88 347.356 362.88 347.356 362.88 347.236V345.556H362.04V349.516H362.88V348.316C363 348.436 363.24 348.436 363.48 348.556 363.6 348.556 363.84 348.436 364.08 348.436 364.2 348.316 364.32 348.196 364.44 347.956 364.56 347.836 364.68 347.596 364.68 347.356V345.556H363.84V347.236Z" fill-rule="evenodd"/><path transform="matrix(1,0,0,-1,0,595.276)" d="M366.36 345.556V348.316H365.64V345.556Z" fill-rule="evenodd"/><path transform="matrix(1,0,0,-1,0,595.276)" d="M366.36 349.156C366.36 349.396 366.24 349.516 366 349.516 365.76 349.516 365.52 349.396 365.52 349.156 365.52 348.916 365.76 348.676 366 348.676 366.24 348.676 366.36 348.916 366.36 349.156Z" fill-rule="evenodd"/><path transform="matrix(1,0,0,-1,0,595.276)" d="M368.4 348.556C368.64 348.556 369 348.436 369.12 348.316 369.36 348.196 369.6 347.956 369.6 347.596L369 347.356C368.88 347.596 368.64 347.836 368.4 347.836 368.04 347.716 367.8 347.596 367.8 347.116 367.8 347.116 367.68 346.996 367.8 346.996 367.8 346.876 367.8 346.876 367.8 346.756 367.92 346.396 368.04 346.156 368.4 346.156 368.52 346.156 368.64 346.156 368.76 346.276 368.88 346.276 369 346.396 369 346.636L369.72 346.396C369.48 345.676 369.12 345.316 368.4 345.436 367.44 345.436 366.96 345.916 366.96 346.996 367.08 347.956 367.56 348.436 368.4 348.556Z" fill-rule="evenodd"/><path transform="matrix(1,0,0,-1,0,595.276)" d="M370.92 349.516V346.396 346.276C370.92 346.156 371.04 346.156 371.4 346.276L371.52 345.556C371.52 345.556 371.4 345.556 371.28 345.436 371.16 345.436 371.04 345.436 370.92 345.436 370.44 345.436 370.2 345.676 370.08 345.916V346.036 346.156 349.516H370.92Z" fill-rule="evenodd"/><path transform="matrix(1,0,0,-1,0,595.276)" d="M374.52 346.636C374.52 347.836 374.04 348.436 373.2 348.556 372.36 348.556 371.88 347.956 371.88 346.996 371.88 346.516 372 346.156 372.12 345.916 372.48 345.556 372.96 345.436 373.32 345.436 373.8 345.316 374.28 345.556 374.4 345.916L373.92 346.396C373.8 346.276 373.56 346.156 373.32 346.156 373.2 346.156 372.96 346.156 372.84 346.276 372.84 346.276 372.72 346.396 372.72 346.516V346.636H374.52ZM372.6 347.236V347.236C372.72 347.356 372.72 347.596 372.84 347.596 372.96 347.716 373.08 347.836 373.2 347.836 373.44 347.836 373.68 347.596 373.68 347.356V347.236H372.6Z" fill-rule="evenodd"/><path transform="matrix(1,0,0,-1,0,595.276)" d="M377.4 346.396C377.4 346.996 377.16 347.236 376.44 347.356 376.2 347.356 376.08 347.476 375.96 347.476H375.84V347.596C375.84 347.716 375.96 347.836 376.32 347.836 376.44 347.836 376.56 347.836 376.68 347.716 376.68 347.716 376.8 347.596 376.92 347.476L377.4 348.076C377.16 348.316 376.8 348.556 376.32 348.556 375.48 348.556 375.12 348.196 375 347.476 375.12 346.996 375.36 346.756 375.96 346.636 376.32 346.636 376.56 346.516 376.56 346.396 376.56 346.276 376.56 346.276 376.44 346.156 376.44 346.156 376.32 346.156 376.2 346.156 376.08 346.156 375.96 346.156 375.84 346.276 375.6 346.276 375.48 346.396 375.36 346.516L374.88 345.916C375.12 345.556 375.6 345.436 376.2 345.436 376.92 345.436 377.4 345.796 377.4 346.396Z" fill-rule="evenodd"/><path transform="matrix(1,0,0,-1,0,595.276)" d="M334.2 342.316V338.116 337.756L334.32 337.636 334.56 337.516 334.92 337.396H338.16 338.4L338.64 337.516 338.76 337.636 338.88 337.756 339 337.876 339.12 338.116 339.24 338.356V338.716L338.64 338.836V338.476L338.52 338.116 338.28 337.996H338.04 335.04 334.92L334.8 338.116V338.236 340.036H338.04V339.676H338.52V342.316H334.2ZM334.8 340.516V341.836H336.12V340.516H334.8ZM336.6 340.516V341.836H338.04V340.516H336.6Z" fill-rule="evenodd"/><path transform="matrix(1,0,0,-1,0,595.276)" d="M343.92 342.556H343.44V340.876H341.04V340.276H343.44V338.236H341.4V337.756H345.96V338.236H344.04V340.276H346.32V340.876H344.04V342.316L344.16 342.436 344.04 342.556Z" fill-rule="evenodd"/><path transform="matrix(1,0,0,-1,0,595.276)" d="M348.6 342.316V341.836H349.56V341.116 340.396L349.44 339.796 349.32 339.316 349.08 338.836 348.84 338.356 348.48 337.996 348 337.756 348.6 337.276 349.08 337.876 349.44 338.476 349.8 339.076 349.92 339.676 350.16 339.316 350.4 338.956 350.64 338.716 351 338.356 350.16 337.996 349.44 337.876 349.8 337.396 350.64 337.636 351.36 338.116 352.08 337.636 352.92 337.396 353.4 337.876 352.56 338.116 351.72 338.476 352.08 338.956 352.44 339.556 352.68 340.036 352.8 340.756 352.32 340.996V340.876H351.72L352.32 342.076 351.72 342.436V342.316H348.6ZM350.16 341.836H351.48L350.76 340.276 351.36 340.156 351.48 340.396H352.2L351.96 339.916 351.84 339.436 351.6 339.076 351.24 338.716 350.88 339.076 350.52 339.556 350.28 339.916 350.16 340.396V341.836Z" fill-rule="evenodd"/><path transform="matrix(1,0,0,-1,0,595.276)" d="M355.08 341.596 355.56 341.236 356.16 341.596V340.876H356.64V341.956L357.12 342.316H357.24V342.436L357.12 342.556 356.76 342.676 356.4 342.316 355.92 342.076 355.56 341.836Z" fill-rule="evenodd"/><path transform="matrix(1,0,0,-1,0,595.276)" d="M355.92 340.636V338.236H356.76L356.04 337.876 355.32 337.756 355.68 337.276 356.52 337.516 357.36 337.876 357 338.236H358.56L358.32 337.996 359.16 337.516 360 337.276 360.48 337.756 359.52 337.876 358.68 338.236H359.64V340.636H355.92ZM356.52 340.036V340.276H359.04V340.036H356.52ZM356.52 338.596V338.956H359.04V338.596H356.52ZM356.52 339.316V339.556H359.04V339.316H356.52Z" fill-rule="evenodd"/><path transform="matrix(1,0,0,-1,0,595.276)" d="M357.6 342.556V341.476L357.72 341.236V341.116L357.96 340.996H358.2 359.88 360.12L360.36 341.116 360.48 341.356V341.596L360 341.716V341.596L359.88 341.476H359.76L359.52 341.356H358.44L358.2 341.476V341.596L360 341.956 360.12 342.076V342.196 342.316L359.88 342.556 359.04 342.196 358.2 342.076V342.316L358.32 342.436 358.2 342.556H357.96Z" fill-rule="evenodd"/><path transform="matrix(1,0,0,-1,0,595.276)" d="M362.52 342.076V341.596H364.56V341.236H363V338.956H364.56V338.596H362.28V338.116H364.56V337.396H365.04V338.116H367.32V338.596H365.04V338.956H366.6V341.236H365.04V341.596H367.08V342.076H365.04V342.316L365.16 342.436V342.556H365.04L364.56 342.676V342.076H362.52ZM363.48 340.276V340.756H364.56V340.276H363.48ZM363.48 339.436V339.916H364.56V339.436H363.48ZM365.04 340.276V340.756H366.12V340.276H365.04ZM365.04 339.436V339.916H366.12V339.436H365.04Z" fill-rule="evenodd"/><path transform="matrix(1,0,0,-1,0,595.276)" d="M369 340.276 369.48 339.916 369.72 340.396V337.396H370.32V341.236L370.68 342.196V341.836H371.28L371.16 341.116 371.04 340.396 370.8 339.796 370.44 339.316 370.92 338.956 371.16 339.436 371.76 339.076 371.52 338.716 371.16 338.356 370.8 338.116 370.44 337.876 370.8 337.516 371.28 337.756 371.64 337.996 372 338.356 372.24 338.716 372.36 339.196 372.48 339.796 372.6 340.276V340.996H371.64L371.76 341.836H372.72V342.196H370.8V342.316L370.68 342.436 370.32 342.676 370.08 341.956 369.72 341.356 369.36 340.756 369 340.276ZM371.52 340.516H372.12L371.88 339.556 371.28 339.916 371.52 340.516Z" fill-rule="evenodd"/><path transform="matrix(1,0,0,-1,0,595.276)" d="M372.96 341.836V338.476H373.44V341.596 341.716 341.836Z" fill-rule="evenodd"/><path transform="matrix(1,0,0,-1,0,595.276)" d="M373.92 342.556V338.356L373.8 338.116V337.996L373.68 337.876H373.56 373.08L373.2 337.396H373.92L374.04 337.516 374.28 337.636V337.876L374.4 338.116V342.316L374.52 342.436H374.4V342.556Z" fill-rule="evenodd"/><path transform="matrix(1,0,0,-1,0,595.276)" d="M377.76 342.556H377.52L377.28 341.836 377.04 341.116 376.68 340.516 376.2 339.916 376.68 339.556 377.28 340.276 377.64 341.116H378.48L378.36 340.396 378.12 339.796 377.52 340.156 377.16 339.796 377.52 339.556 377.88 339.316 377.64 338.836 377.28 338.476 376.8 338.116 376.32 337.876 376.68 337.396 377.16 337.516 377.52 337.876 377.88 338.236 378.24 338.596 378.48 339.196 378.72 339.796 378.96 340.516 379.2 341.356 378.84 341.716 378.6 341.596H377.76L378 342.196 378.12 342.316V342.436H378Z" fill-rule="evenodd"/><path transform="matrix(1,0,0,-1,0,595.276)" d="M380.16 342.556H379.92V340.396L379.56 340.756 379.2 340.516 379.56 340.036 379.92 339.676V337.276H380.4V339.196L381.24 338.716 381.6 339.316 381 339.556 380.4 339.916V342.316L380.64 342.436 380.4 342.556Z" fill-rule="evenodd"/></g></svg>