<?xml version='1.0' encoding='UTF-8'?>
<svg width="274.18" height="259.78" viewBox="146.80 6.19 274.18 259.78" xmlns="http://www.w3.org/2000/svg" xmlns:xlink="http://www.w3.org/1999/xlink" xmlns:inkscape="http://www.inkscape.org/namespaces/inkscape" version="1.1"><g transform="scale(10.0) translate(-111.171, -47.232)"><defs><clipPath id="clip_2"><path transform="matrix(1,0,0,-1,0,595.276)" d="M74.4 .196H767.4V595.276H74.4Z"/></clipPath></defs><path transform="matrix(1,0,0,-1,0,595.276)" d="M127.2 547.156H151.92C152.28 547.156 152.52 547.036 152.76 546.916 153 546.676 153 546.316 153 546.076V522.796C153 522.676 153 522.436 153 522.316 152.88 522.196 152.88 522.076 152.76 521.956 152.64 521.836 152.52 521.836 152.4 521.716 152.28 521.716 152.16 521.716 151.92 521.716H127.2C126.96 521.716 126.72 521.716 126.48 521.956 126.24 522.196 126.12 522.436 126.12 522.796V546.076C126.12 546.316 126.24 546.676 126.48 546.916 126.6 546.916 126.72 547.036 126.84 547.156 126.96 547.156 127.08 547.156 127.2 547.156ZM127.2 546.676C127.08 546.676 126.96 546.556 126.84 546.436 126.72 546.436 126.72 546.196 126.72 546.076V522.796C126.72 522.676 126.72 522.436 126.84 522.316 126.96 522.316 127.08 522.196 127.2 522.196H151.92C152.04 522.196 152.16 522.196 152.16 522.196 152.28 522.316 152.28 522.316 152.4 522.316 152.52 522.436 152.52 522.676 152.52 522.796V546.076C152.52 546.196 152.52 546.436 152.4 546.436 152.28 546.556 152.16 546.676 151.92 546.676H127.2Z" fill-rule="evenodd"/><path transform="matrix(1,0,0,-1,0,595.276)" d="M127.2 546.676H151.92C152.16 546.676 152.28 546.556 152.4 546.436 152.52 546.436 152.52 546.196 152.52 546.076V522.796C152.52 522.676 152.52 522.436 152.4 522.316 152.28 522.316 152.16 522.196 151.92 522.196H127.2C127.08 522.196 126.96 522.316 126.84 522.316 126.72 522.436 126.72 522.676 126.72 522.796V546.076C126.72 546.196 126.72 546.436 126.84 546.436 126.96 546.556 127.08 546.676 127.2 546.676Z" fill="#ffffff" fill-rule="evenodd"/><path transform="matrix(1,0,0,-1,0,595.276)" d="M146.04 539.236V539.356 539.476 539.596C145.92 539.596 145.92 539.596 145.8 539.596 145.56 539.596 145.32 539.596 145.2 539.356L144.84 539.836C144.96 539.956 145.08 539.956 145.32 540.076 145.44 540.076 145.56 540.196 145.8 540.196 146.4 540.196 146.64 539.956 146.76 539.476V538.396 538.276H146.88L146.76 537.796C146.64 537.796 146.52 537.796 146.4 537.916 146.28 537.916 146.28 537.916 146.16 538.036 146.16 537.916 145.92 537.796 145.68 537.796 145.44 537.796 145.2 537.916 145.08 538.036 144.84 538.156 144.84 538.276 144.84 538.636 144.84 538.996 145.2 539.236 146.04 539.236ZM145.44 538.516V538.396H145.56C145.56 538.276 145.68 538.276 145.8 538.276 145.92 538.276 146.04 538.396 146.04 538.396V538.876C145.92 538.876 145.68 538.756 145.56 538.756 145.44 538.756 145.44 538.636 145.44 538.516Z" fill-rule="evenodd"/><path transform="matrix(1,0,0,-1,0,595.276)" d="M144.48 538.756C144.48 539.596 144.12 540.076 143.52 540.076 142.92 540.076 142.56 539.716 142.56 538.996 142.56 538.636 142.56 538.396 142.8 538.156 142.92 537.916 143.28 537.796 143.64 537.796 144 537.796 144.36 537.916 144.48 538.156L144.12 538.516C144 538.396 143.76 538.396 143.64 538.396 143.52 538.276 143.4 538.396 143.28 538.396 143.28 538.516 143.16 538.516 143.16 538.636V538.756H144.48ZM143.16 539.236V539.236C143.16 539.356 143.16 539.356 143.28 539.476 143.28 539.596 143.4 539.596 143.52 539.596 143.64 539.596 143.88 539.476 143.88 539.236H143.16Z" fill-rule="evenodd"/><path transform="matrix(1,0,0,-1,0,595.276)" d="M147.36 537.916V540.076H147.96V539.836C147.96 539.956 148.08 540.076 148.2 540.076 148.32 540.076 148.44 540.196 148.56 540.076V539.596C148.44 539.476 148.2 539.476 148.08 539.356 147.96 539.356 147.96 539.236 147.96 539.116V537.916H147.36Z" fill-rule="evenodd"/><path transform="matrix(1,0,0,-1,0,595.276)" d="M141.96 537.796V540.076H141.36V539.956C141.36 540.076 141.24 540.076 140.88 540.076 140.28 540.076 140.04 539.716 139.92 538.996 140.04 538.276 140.4 538.036 140.88 537.916 141 537.916 141.12 537.916 141.24 538.036 141.36 538.036 141.36 538.036 141.36 538.156V538.036C141.36 537.796 141.24 537.676 141 537.676 141 537.676 140.88 537.676 140.76 537.676 140.64 537.796 140.4 537.796 140.28 537.916L139.92 537.436C140.16 537.196 140.64 537.076 141 537.076 141.6 537.076 141.96 537.316 141.96 537.796ZM141.36 539.236V538.756C141.36 538.636 141.36 538.636 141.24 538.516 141.24 538.516 141.12 538.516 141 538.516 140.76 538.516 140.64 538.636 140.52 538.996 140.64 539.356 140.76 539.476 141 539.596 141.24 539.476 141.36 539.476 141.36 539.236Z" fill-rule="evenodd"/><path transform="matrix(1,0,0,-1,0,595.276)" d="M138.12 537.916 138.72 540.076H138L137.76 538.756 137.4 540.076H137.04 136.8L136.44 538.756 136.08 540.076H135.48L136.08 537.916H136.8L137.04 539.116 137.4 537.916Z" fill-rule="evenodd"/><path transform="matrix(1,0,0,-1,0,595.276)" d="M135.24 538.996C135.24 539.356 135.12 539.596 135 539.836 134.76 540.076 134.52 540.076 134.16 540.076 133.8 540.076 133.56 540.076 133.44 539.836 133.2 539.596 133.08 539.356 133.08 538.996 133.08 538.636 133.2 538.276 133.44 538.156 133.56 537.916 133.8 537.796 134.16 537.796 134.88 537.796 135.24 538.276 135.24 538.996ZM134.64 538.996C134.64 538.756 134.52 538.636 134.52 538.516 134.4 538.396 134.28 538.396 134.16 538.396 133.92 538.396 133.68 538.636 133.68 538.996 133.68 539.356 133.92 539.596 134.16 539.596 134.28 539.596 134.4 539.476 134.52 539.356 134.52 539.236 134.64 539.116 134.64 538.996Z" fill-rule="evenodd"/><path transform="matrix(1,0,0,-1,0,595.276)" d="M131.52 540.916V538.516H132.84V537.916H130.92V540.916Z" fill-rule="evenodd"/><path transform="matrix(1,0,0,-1,0,595.276)" d="M134.88 545.116 133.92 543.916 135 542.116H134.28L133.44 543.436 133.2 543.076V542.116H132.48V545.116H133.2V543.916L134.16 545.116Z" fill-rule="evenodd"/><path transform="matrix(1,0,0,-1,0,595.276)" d="M137.16 542.956C137.16 543.916 136.92 544.396 136.2 544.396 135.6 544.396 135.24 544.036 135.24 543.196 135.24 542.956 135.24 542.596 135.48 542.476 135.72 542.236 135.96 542.116 136.32 541.996 136.68 541.996 137.04 542.236 137.16 542.476L136.8 542.836C136.68 542.716 136.44 542.596 136.32 542.596 136.2 542.596 136.08 542.596 135.96 542.716L135.84 542.836V542.956H137.16ZM135.84 543.436V543.436C135.84 543.556 135.84 543.676 135.96 543.676 136.08 543.796 136.08 543.796 136.2 543.796 136.44 543.796 136.56 543.676 136.56 543.556L136.68 543.436H135.84Z" fill-rule="evenodd"/><path transform="matrix(1,0,0,-1,0,595.276)" d="M139.56 542.956C139.56 543.916 139.2 544.396 138.6 544.396 138 544.396 137.64 544.036 137.52 543.196 137.52 542.956 137.64 542.596 137.76 542.476 138 542.236 138.36 542.116 138.6 541.996 138.96 541.996 139.44 542.236 139.44 542.476L139.08 542.836C139.08 542.716 138.84 542.596 138.6 542.596 138.6 542.596 138.48 542.596 138.36 542.716 138.24 542.716 138.24 542.836 138.24 542.836V542.956H139.56ZM138.12 543.436V543.436C138.12 543.556 138.24 543.676 138.24 543.676 138.36 543.796 138.48 543.796 138.6 543.796 138.72 543.796 138.96 543.676 138.96 543.556V543.436H138.12Z" fill-rule="evenodd"/><path transform="matrix(1,0,0,-1,0,595.276)" d="M142.08 543.196C142.08 543.916 141.72 544.396 141.12 544.396 140.88 544.396 140.64 544.276 140.52 544.276H140.04V541.396H140.64V542.236C140.64 542.116 140.88 541.996 141.12 541.996 141.72 541.996 142.08 542.476 142.08 543.196ZM141 542.596C141 542.596 140.88 542.596 140.76 542.716 140.64 542.836 140.64 542.956 140.64 542.956V543.556C140.64 543.676 140.76 543.796 141 543.796V543.916C141.24 543.916 141.48 543.796 141.48 543.556V543.436 542.956C141.48 542.716 141.12 542.596 141 542.596Z" fill-rule="evenodd"/><path transform="matrix(1,0,0,-1,0,595.276)" d="M144.24 542.116V544.276H143.76V542.116Z" fill-rule="evenodd"/><path transform="matrix(1,0,0,-1,0,595.276)" d="M144.36 544.876C144.36 544.996 144.12 545.236 144 545.236 143.76 545.236 143.64 544.996 143.64 544.876 143.64 544.636 143.76 544.516 144 544.516 144.12 544.516 144.36 544.636 144.36 544.876Z" fill-rule="evenodd"/><path transform="matrix(1,0,0,-1,0,595.276)" d="M146.76 542.116V543.676C146.76 544.156 146.4 544.396 145.92 544.396 145.8 544.396 145.68 544.396 145.56 544.276 145.56 544.276 145.44 544.276 145.44 544.156V544.276H144.84V542.116H145.44V543.436C145.44 543.676 145.56 543.796 145.8 543.796 146.04 543.796 146.16 543.676 146.16 543.436V542.116H146.76Z" fill-rule="evenodd"/><path transform="matrix(1,0,0,-1,0,595.276)" d="M134.64 534.916 134.4 534.556 135.12 534.076 134.76 533.356H134.52V532.996 532.876H134.64L134.76 532.996 135.12 533.116V531.196H135.6V533.116H135.72V532.876L136.08 532.996V533.476L135.84 533.956 135.6 533.836V533.476H135.24L135.96 534.556H136.08V534.676L135.96 534.796 135.72 534.916 135.36 534.436 135.12 534.556 135.6 535.156V535.276 535.396L135.24 535.516 134.76 534.796Z" fill-rule="evenodd"/><path transform="matrix(1,0,0,-1,0,595.276)" d="M134.4 531.556 134.88 531.436 135 532.036V532.636 532.756H134.88 134.64L134.52 532.036Z" fill-rule="evenodd"/><path transform="matrix(1,0,0,-1,0,595.276)" d="M135.96 532.756 135.6 532.636 135.72 532.156V531.676H136.08Z" fill-rule="evenodd"/><path transform="matrix(1,0,0,-1,0,595.276)" d="M136.2 535.516V531.196H136.56V531.316H138.96V531.676H136.56V533.356H138.96V533.716H136.56V535.276 535.396 535.516H136.44Z" fill-rule="evenodd"/><path transform="matrix(1,0,0,-1,0,595.276)" d="M136.68 535.036 136.56 534.916 137.04 534.556 136.68 534.196H136.56V533.956L136.68 533.836H136.8L137.4 534.076V533.836L137.76 533.956 137.64 534.436H137.28L137.4 534.316 137.16 534.196 137.52 534.796H137.64V534.916L138.12 534.556 137.88 534.196H137.76V533.836H137.88V533.956H138.6V533.836H138.84L138.72 534.436H138.48V534.196H138.24L138.72 534.796 138.84 534.916 138.72 535.036 138.48 535.156 138.24 534.796 138.12 534.916 138.36 535.276H138.48L138.36 535.396 138.12 535.516 137.88 535.036 137.76 535.156 137.64 534.916 137.4 535.156 137.16 534.796 137.04 534.916 137.28 535.276V535.396L137.04 535.516 136.8 535.036Z" fill-rule="evenodd"/><path transform="matrix(1,0,0,-1,0,595.276)" d="M136.68 532.996 136.56 532.756 136.92 532.396 136.8 532.036H136.56L136.68 531.796V531.676H136.8V531.796L137.4 531.916V531.676L137.76 531.796 137.64 532.396 137.28 532.276 137.4 532.156H137.16L137.52 532.756H137.64L138.12 532.396 137.88 532.036H137.76V531.796L137.88 531.676V531.796L138.6 531.916V531.676H138.84V532.036L138.72 532.276H138.48V532.156H138.24L138.72 532.636V532.756H138.84L138.72 532.876 138.48 532.996 138.24 532.636 138.12 532.756 138.36 533.116H138.48V533.236H138.36L138.24 533.356 137.88 532.876 137.76 532.996 137.64 532.756 137.4 532.996 137.04 532.636 136.92 532.756 137.16 533.116 137.28 533.236 137.04 533.356 136.68 532.876Z" fill-rule="evenodd"/><path transform="matrix(1,0,0,-1,0,595.276)" d="M140.52 534.916 140.4 534.676 141.12 534.196 140.64 533.596 140.4 533.476V533.116H140.52 140.64L141.12 533.236V531.196H141.48V533.236L141.72 533.356 141.84 532.996 142.2 533.116 141.96 533.596 141.84 534.076 141.48 533.956 141.6 533.596H141.12L141.96 534.556V534.676H142.08V534.796H141.96L141.72 535.036 141.24 534.436 141 534.556 141.48 535.156V535.276H141.6L141.48 535.396 141.12 535.516 140.76 534.796Z" fill-rule="evenodd"/><path transform="matrix(1,0,0,-1,0,595.276)" d="M140.4 531.556 140.76 531.436 140.88 532.036V532.636L141 532.756H140.88L140.52 532.876V532.156Z" fill-rule="evenodd"/><path transform="matrix(1,0,0,-1,0,595.276)" d="M141.96 535.276V535.036H143.16V534.916H142.2V534.556H144.48V534.916H143.52V535.036H144.72V535.276H143.52L143.64 535.396V535.516H143.52 143.16V535.276Z" fill-rule="evenodd"/><path transform="matrix(1,0,0,-1,0,595.276)" d="M142.08 534.436V533.356H144.72V534.436H142.08ZM142.44 533.956V534.196H143.04L142.8 534.076 142.44 533.956ZM142.44 533.956 142.68 533.716 142.92 533.836H143.16L143.28 534.076 143.4 534.196H143.52V533.956 533.836H143.64V533.716H144.24V533.956H144 143.88V534.076 534.196H144.36V533.716H142.44V533.956Z" fill-rule="evenodd"/><path transform="matrix(1,0,0,-1,0,595.276)" d="M142.32 533.236V531.796H142.68L142.32 531.556H141.96L142.2 531.196 143.28 531.556 143.04 531.796H143.76L143.52 531.556 144 531.316 144.48 531.196 144.84 531.436 144.36 531.556 144 531.796H144.48V533.236H142.32ZM142.68 532.876V532.996H144.12V532.876H142.68ZM142.68 532.036V532.156H144.12V532.036H142.68ZM142.68 532.396V532.636H144.12V532.396H142.68Z" fill-rule="evenodd"/><path transform="matrix(1,0,0,-1,0,595.276)" d="M141.96 532.876 141.6 532.756 141.84 531.796 142.2 531.916 142.08 532.396Z" fill-rule="evenodd"/><path transform="matrix(1,0,0,-1,0,595.276)" d="M128.52 526.516 128.88 526.276 129.24 526.756V524.356H129.6V527.596L129.96 528.196V528.316L130.08 528.436H129.96L129.6 528.556 129.36 528.076 129.12 527.476 128.88 526.996Z" fill-rule="evenodd"/><path transform="matrix(1,0,0,-1,0,595.276)" d="M130.2 525.556H129.84L129.96 525.076V524.956H130.08V525.076L131.4 525.436V525.916L130.56 525.676V526.756H131.52V526.036L131.64 525.436 132 524.956 132.24 524.476 132.36 524.356H132.48 132.6 132.72L132.84 524.476 132.96 524.596 133.08 524.836V525.076L132.72 525.436V525.076L132.6 524.956H132.48L132.24 525.196 132.12 525.556 132 526.036 131.88 526.756H132.96V527.116H131.88V528.076L132.6 528.196H132.72V528.316L132.48 528.676 131.52 528.436 130.8 528.316 130.32 528.196 130.2 528.316V525.556ZM130.56 527.116V527.836L131.4 527.956V527.116H130.56Z" fill-rule="evenodd"/><path transform="matrix(1,0,0,-1,0,595.276)" d="M130.2 524.836V524.476H131.88V524.836Z" fill-rule="evenodd"/><path transform="matrix(1,0,0,-1,0,595.276)" d="M135.12 528.556 134.76 528.196 135.24 527.956 135.6 527.716 135.84 528.076 135.48 528.316Z" fill-rule="evenodd"/><path transform="matrix(1,0,0,-1,0,595.276)" d="M134.88 527.476 134.52 527.116 135 526.876 135.36 526.636 135.72 526.876 135.24 527.236Z" fill-rule="evenodd"/><path transform="matrix(1,0,0,-1,0,595.276)" d="M135.6 525.916 135.36 526.156 135 525.316 134.52 524.716 134.76 524.476 134.88 524.356 135 524.476V524.596Z" fill-rule="evenodd"/><path transform="matrix(1,0,0,-1,0,595.276)" d="M135.96 527.956V526.756 526.036L135.84 525.436 135.6 524.956 135.36 524.596 135.72 524.236 135.96 524.596 136.2 525.076 136.32 525.556V526.156H136.56L136.68 525.796 136.92 525.556 137.04 525.316 137.28 525.196 136.8 524.836 136.2 524.716 136.56 524.236 137.16 524.596 137.64 524.836 138.12 524.476 138.6 524.236 138.96 524.716 138.48 524.836 138 525.196 138.36 525.676 138.84 526.396 138.48 526.636H138.24 137.64V527.596H138.36L138 526.876 138.48 526.756 138.84 527.836 138.6 528.076 138.36 527.956H137.64V528.436 528.556H137.52 137.16V527.956H135.96ZM137.04 526.156H138.12L137.88 525.796 137.64 525.436 137.4 525.556 137.28 525.676 137.16 525.916 137.04 526.156ZM136.32 526.636V527.596H137.16V526.636H136.32Z" fill-rule="evenodd"/><path transform="matrix(1,0,0,-1,0,595.276)" d="M140.4 527.596 140.88 527.356 141.36 527.716 141.96 528.196V528.316H142.08L141.96 528.436 141.6 528.556 141 527.956Z" fill-rule="evenodd"/><path transform="matrix(1,0,0,-1,0,595.276)" d="M140.28 526.156 140.76 525.916 141.12 526.276V524.236H141.6V526.756L141.84 527.116 142.08 527.356 142.2 527.476 142.08 527.596 141.72 527.716 141.36 527.236 141.12 526.756 140.64 526.396Z" fill-rule="evenodd"/><path transform="matrix(1,0,0,-1,0,595.276)" d="M142.44 528.316V527.836H144.48V528.316Z" fill-rule="evenodd"/><path transform="matrix(1,0,0,-1,0,595.276)" d="M143.52 526.636V525.076 524.956 524.836L143.4 524.716H143.28 142.8L142.92 524.236H143.16 143.4 143.64L143.76 524.356H143.88L144 524.476V524.596 524.836 524.956 526.636H144.72V526.996H142.08V526.636Z" fill-rule="evenodd"/><path transform="matrix(1,0,0,-1,0,595.276)" d="M146.52 528.196V527.836H148.2V527.476H147V525.676H148.2V525.316H146.28V524.956H148.2V524.236H148.68V524.956H150.6V525.316H148.68V525.676H150V527.476H148.68V527.836H150.36V528.196H148.68V528.436 528.556L148.2 528.676V528.196H146.52ZM147.36 526.756V527.116H148.2V526.756H147.36ZM147.36 526.036V526.396H148.2V526.036H147.36ZM148.68 526.756V527.116H149.52V526.756H148.68ZM148.68 526.036V526.396H149.52V526.036H148.68Z" fill-rule="evenodd"/></g></svg>