<?xml version='1.0' encoding='UTF-8'?>
<svg width="439.39" height="262.99" viewBox="63.23 4.22 439.39 262.99" xmlns="http://www.w3.org/2000/svg" xmlns:xlink="http://www.w3.org/1999/xlink" xmlns:inkscape="http://www.inkscape.org/namespaces/inkscape" version="1.1"><g transform="scale(10.0) translate(-547.707, -101.088)"><defs><clipPath id="clip_2"><path transform="matrix(1,0,0,-1,0,595.276)" d="M74.4 .196H767.4V595.276H74.4Z"/></clipPath></defs><path transform="matrix(1,0,0,-1,0,595.276)" d="M595.56 468.916H556.44C556.32 468.916 556.2 468.916 556.08 468.916 555.96 469.036 555.84 469.036 555.72 469.156 555.6 469.276 555.6 469.396 555.48 469.516 555.48 469.636 555.48 469.756 555.48 469.876V491.356C555.48 491.476 555.48 491.596 555.48 491.716 555.6 491.836 555.6 491.956 555.72 491.956 555.84 492.076 555.96 492.196 556.08 492.196 556.2 492.316 556.32 492.316 556.44 492.316H595.56C595.8 492.316 596.04 492.196 596.28 491.956 596.4 491.836 596.52 491.596 596.52 491.356V469.876C596.52 469.756 596.52 469.636 596.4 469.516 596.4 469.396 596.28 469.276 596.28 469.156 596.16 469.036 596.04 469.036 595.92 468.916 595.8 468.916 595.68 468.916 595.56 468.916Z" fill="#e1e1e1" fill-rule="evenodd"/><path transform="matrix(1,0,0,-1,0,595.276)" d="M565.56 485.236C565.56 485.956 565.08 486.436 564.36 486.436 563.76 486.436 563.16 485.956 563.16 485.236 563.16 484.636 563.76 484.036 564.36 484.036 565.08 484.036 565.56 484.636 565.56 485.236Z" fill-rule="evenodd"/><path transform="matrix(1,0,0,-1,0,595.276)" stroke-width=".12" stroke-linecap="round" stroke-linejoin="round" fill="none" stroke="#000000" d="M588 486.076H588.12V485.956 485.836 485.716 485.596H588.24V485.476 485.356 485.236L588.36 485.116V484.996 484.876 484.756L588.48 484.636V484.516 484.396 484.276H588.6V484.156 484.036 483.916 483.796 483.676 483.556L588.48 483.436V483.316H588.36V483.196H588.24V483.076H588.12 588 587.88 587.76L587.64 483.196H587.52 587.4 587.28L587.04 483.316H586.8 586.68L586.44 483.436H586.2 585.96L585.72 483.556H585.36 585.12 584.76L584.52 483.676"/><path transform="matrix(1,0,0,-1,0,595.276)" d="M575.04 479.836 572.16 478.996 574.68 480.796 575.04 479.836Z" fill-rule="evenodd"/><path transform="matrix(1,0,0,-1,0,595.276)" d="M574.2 484.276 572.16 480.436 573.24 484.516 574.2 484.276Z" fill-rule="evenodd"/><path transform="matrix(1,0,0,-1,0,595.276)" d="M571.44 484.636 570.96 480.796 570.72 484.636Z" fill-rule="evenodd"/><path transform="matrix(1,0,0,-1,0,595.276)" d="M565.92 482.596 569.88 480.076 566.4 483.316Z" fill-rule="evenodd"/><path transform="matrix(1,0,0,-1,0,595.276)" d="M566.64 479.836 569.88 478.756 566.28 478.996Z" fill-rule="evenodd"/><path transform="matrix(1,0,0,-1,0,595.276)" d="M573.96 475.156 571.56 478.036 573.24 474.676 573.96 475.156Z" fill-rule="evenodd"/><path transform="matrix(1,0,0,-1,0,595.276)" d="M569.04 474.436 570.36 477.796 568.08 474.916 569.04 474.436Z" fill-rule="evenodd"/><path transform="matrix(1,0,0,-1,0,595.276)" d="M574.2 472.876H574.32V472.756H574.44L574.56 472.636H574.68L574.8 472.516H574.92 575.04 575.16 575.28 575.4 575.52 575.64 575.76 575.88 576V472.636H576.12 576.24V472.756H576.36 576.48V472.876H576.6V472.996 473.116 473.236 473.356 473.476 473.596 473.716 473.836 473.956 474.076 474.196 474.316 474.436 474.556 474.676 474.796 474.916 475.036 475.156 475.276 475.396 475.516 475.636L577.08 475.516H577.56L578.04 475.396H578.52 579L579.48 475.276H579.96 580.44 580.8 581.28 581.64 582.12 582.48 582.84 583.2 583.56 583.92 584.16 584.52 584.76 585.12 585.36L585.6 475.396H585.84 586.08 586.32 586.56 586.68L586.92 475.516H587.04 587.16 587.4 587.52 587.64 587.76V475.636H587.88V475.516 475.396 475.276 475.156 475.036 474.916 474.796 474.676 474.556 474.436 474.316 474.196 474.076 473.956 473.836 473.716 473.596 473.476 473.356 473.236 473.116 472.996L588 472.876 588.12 472.756H588.24L588.36 472.636H588.48 588.6 588.72V472.516H588.84 588.96 589.08 589.2 589.32 589.44 589.56V472.636H589.68 589.8 589.92V472.756H590.04L590.16 472.876H590.28V472.996 473.116 473.236 473.356 473.476 473.596 473.716 473.836 473.956 474.076 474.196 474.316 474.436 474.556 474.676 474.796 474.916 475.036 475.156 475.276 475.396 475.516 475.636 475.756 475.876 475.996H590.4 590.52 590.64L590.76 476.116H590.88L591 476.236H591.12V476.356H591.24V476.476 476.596H591.36V476.716 476.836 476.956 477.076 477.196H591.24 591.36V477.316 477.436 477.556 477.676H591.48V477.796 477.916 478.156 478.276 478.396 478.516 478.636 478.876 478.996 479.116 479.356 479.476 479.596 479.836 479.956 480.076 480.196 480.436 480.556 480.676 480.796 480.916 481.036 481.156 481.276 481.396L591.36 481.516V481.636 481.756L591.24 481.876V481.996H591.12V482.116L591 482.236 590.88 482.356H590.76V482.476H590.64V482.596H590.52 590.4L590.28 482.716H590.16 590.04 589.92V482.836 482.956 483.076 483.196L589.8 483.316V483.436 483.556 483.676 483.796L589.68 484.036V484.156 484.276L589.56 484.516V484.636 484.756 484.996L589.44 485.116V485.236 485.476L589.32 485.596V485.716 485.956 486.076L589.2 486.196V486.316 486.436 486.556 486.676L589.08 486.796V486.916 487.036 487.156L588.96 487.276V487.396L588.84 487.516V487.636L588.72 487.756 588.6 487.876 588.48 487.996H588.36V488.116L588.24 488.236H588.12V488.356H588 587.88L587.76 488.476H587.64L587.52 488.596H587.4 587.28 587.16L587.04 488.716H586.92 586.8 586.68 586.56 586.44 586.32 586.2 585.96 585.84 585.72 585.48 585.24 585 584.76 584.4 584.16 583.8 583.56 583.2 582.84 582.48 582.24 581.88 581.52 581.16 580.92 580.56 580.2 579.96 579.6 579.36 579.12 578.88 578.64 578.52 578.28 578.16 578.04 577.92 577.8 577.56L577.44 488.596H577.32 577.2L577.08 488.476H576.96 576.84L576.72 488.356H576.6V488.236H576.48L576.36 488.116H576.24V487.996H576.12V487.876H576V487.756H575.88V487.636 487.516H575.76V487.396L575.64 487.276V487.156 487.036H575.52V486.916 486.796 486.676H575.4V486.556 486.436 486.316L575.28 486.196V486.076 485.956 485.836L575.16 485.596V485.476 485.356 485.236L575.04 485.116V484.876 484.756 484.636L574.92 484.516V484.276 484.156L574.8 484.036V483.916 483.796 483.676 483.556L574.68 483.436V483.316 483.196 483.076 482.956 482.836H574.56V482.716H574.44 574.32 574.2 574.08L573.96 482.596H573.84L573.72 482.476 573.6 482.356 573.48 482.236V482.116H573.36V481.996 481.876L573.24 481.756V481.636 481.516 481.396 481.276 481.156 481.036 480.796 480.676 480.556 480.436 480.196 480.076 479.956 479.836L574.32 480.556V480.676 480.796 480.916H574.44V481.036 481.156H574.56V481.276H574.68V481.396H574.8V481.516H574.92V481.636H575.04 575.16V481.756H575.28 575.4L575.52 481.876H575.64 575.76 575.88 576 576.12 576.24L576.36 481.756H576.48 576.6V481.636H576.72 576.84V481.516H576.96V481.396H577.08V481.276H577.2V481.156H577.32V481.036L577.44 480.916V480.796 480.676H577.56V480.556 480.436 480.316 480.196 480.076 479.956 479.836 479.716H577.44V479.596 479.476L577.32 479.356V479.236H577.2V479.116H577.08V478.996H576.96V478.876H576.84V478.756H576.72 576.6V478.636H576.48 576.36V478.516H576.24 576.12 576 575.88 575.76 575.64 575.52 575.4V478.636H575.28 575.16V478.756H575.04 574.92V478.876H574.8V478.996H574.68V479.116H574.56V479.236H574.44V479.356 479.476H574.32V479.596L573.24 479.236V479.116 478.876 478.756 478.516 478.396 478.276 478.156 477.916 477.796 477.676 477.556 477.436 477.316 477.196 477.076 476.956 476.836L573.36 476.716V476.596 476.476H573.48V476.356L573.6 476.236H573.72V476.116H573.84L573.96 475.996H574.08 574.2V475.876 475.756 475.636 475.516 475.396 475.276 475.156 475.036 474.916 474.796 474.676 474.556 474.436 474.316 474.196 474.076 473.956 473.836 473.716 473.596 473.476 473.356 473.236 473.116 472.996 472.876ZM588 486.076V486.076H588.12V485.956 485.836 485.716 485.596H588.24V485.476 485.356 485.236L588.36 485.116V484.996 484.876 484.756L588.48 484.636V484.516 484.396 484.276H588.6V484.156 484.036 483.916 483.796 483.676 483.556L588.48 483.436V483.316H588.36V483.196H588.24V483.076H588.12 588 587.88 587.76L587.64 483.196H587.52 587.4 587.28L587.04 483.316H586.8 586.68L586.44 483.436H586.2 585.96L585.72 483.556H585.36 585.12 584.76L584.52 483.676H584.16 583.8 583.56 583.2 582.84 582.48L582 483.796 581.64 483.676H581.28 580.92 580.44 580.08L579.72 483.556H579.24 578.88L578.4 483.436 578.04 483.316H577.56L577.2 483.196 576.72 483.076H576.6 576.48 576.36V483.196H576.24V483.316H576.12V483.436L576 483.556V483.676 483.796 483.916 484.036 484.156H576.12V484.276 484.396 484.516 484.636L576.24 484.756V484.876 484.996 485.116 485.236L576.36 485.356V485.476 485.596 485.716 485.836H576.48V485.956 486.076H576.6V486.196 486.316H576.72V486.436L576.84 486.556 576.96 486.676 577.08 486.796H577.2V486.916H577.32V487.036H577.44L577.56 487.156H577.68 577.8L577.92 487.276H578.04 578.16 578.28 578.4 578.52 578.76 578.88 579.12 579.36 579.6 579.84 580.2 580.44 580.68 581.04 581.28 581.64 582 582.24 582.6 582.84 583.2 583.56 583.8 584.16 584.4 584.64 584.88 585.12 585.36 585.6 585.84 585.96 586.08 586.2 586.32 586.44 586.56L586.68 487.156H586.8 586.92V487.036H587.04 587.16V486.916H587.28 587.4V486.796H587.52L587.64 486.676 587.76 486.556V486.436H587.88V486.316L588 486.196V486.076ZM586.92 479.956V479.956 480.076 480.196 480.316 480.436 480.556 480.676H587.04V480.796 480.916L587.16 481.036V481.156H587.28V481.276L587.4 481.396V481.516H587.52V481.636H587.64 587.76V481.756H587.88 588V481.876H588.12 588.24 588.36 588.48 588.6 588.72 588.84 588.96 589.08 589.2V481.756H589.32 589.44V481.636H589.56 589.68V481.516H589.8V481.396H589.92V481.276L590.04 481.156V481.036H590.16V480.916 480.796 480.676H590.28V480.556 480.436 480.316 480.196 480.076 479.956 479.836H590.16V479.716 479.596 479.476H590.04V479.356L589.92 479.236V479.116H589.8V478.996H589.68V478.876H589.56 589.44V478.756H589.32 589.2V478.636H589.08 588.96 588.84 588.72 588.6 588.48 588.36 588.24 588.12 588V478.756H587.88 587.76V478.876H587.64 587.52V478.996H587.4V479.116H587.28V479.236 479.356H587.16V479.476L587.04 479.596V479.716 479.836H586.92V479.956ZM578.04 478.636H586.44V478.156H578.04V478.636ZM586.44 477.196V477.196ZM586.44 477.196V477.196H586.32 586.2L586.08 477.076H585.96 585.84 585.6 585.48 585.36 585.12 584.88 584.76 584.52L584.28 476.956H584.04 583.8 583.56 583.32 583.08 582.72 582.48 582.24 582 581.64 581.4 581.04 580.8 580.56 580.2 579.96 579.72L579.36 477.076H579.12 578.88 578.52 578.28L578.04 477.196V477.316 477.436H578.16 578.28 578.4 578.52 578.76 578.88 579.12 579.36 579.6 579.84 580.08 580.44 580.68 581.04 581.28 581.64 582 582.24 582.6 582.84 583.2 583.56 583.8 584.16 584.4 584.64 584.88 585.12 585.36 585.6 585.84 585.96 586.08 586.2 586.32 586.44V477.316 477.196ZM578.16 479.236V479.236ZM578.16 479.236V479.236 479.356 479.476 479.596H578.28 578.4 578.52 578.64 578.76 579L579.12 479.716H579.24 579.48 579.6 579.84 580.08 580.32 580.56 580.8L581.04 479.836H581.28 581.52 581.76 582 582.24 582.6 582.84 583.08 583.44 583.68 583.92 584.28 584.52L584.76 479.716H585.12 585.36 585.6L585.96 479.596H586.2 586.44V479.476 479.356 479.236H586.32 586.2 586.08 585.96 585.84 585.6 585.36 585.12 584.88 584.64 584.4 584.16 583.8 583.56 583.2 582.96 582.6 582.24 582 581.64 581.4 581.04 580.8 580.44 580.2 579.96 579.72 579.48 579.24 579 578.76 578.64 578.52 578.4 578.28 578.16Z" fill-rule="evenodd"/><path transform="matrix(1,0,0,-1,0,595.276)" d="M574.2 472.876V472.996 472.876Z" fill-rule="evenodd"/><path transform="matrix(1,0,0,-1,0,595.276)" d="M567.6 482.236 569.16 482.476 570.6 483.676 570.12 484.516 568.56 483.196H567.48V483.316H567.36L567.24 483.436H567.12V483.556H567 566.88V483.676H566.76 566.64 566.52V483.796H566.4 566.28 566.16 566.04 565.92 565.8 565.68 565.56 565.44 565.32V483.676H565.2 565.08 564.96V483.556H564.84 564.72V483.436H564.6L564.48 483.316H564.36V483.196H564.24V483.076H564.12V482.956H564V482.836L563.88 482.716V482.596H563.76V482.476 482.356H563.64V482.236 482.116 481.996H563.52V481.876 481.756 481.636 481.516 481.396H563.4V481.276 481.156 481.036H563.28V480.916 480.796 480.676L563.16 480.556V480.436 480.316 480.196H563.04V480.076 479.956H562.92V480.076H562.8 562.68 562.56L562.44 480.196H562.32 562.2 562.08V480.316H561.96 561.84 561.72L561.6 480.436H561.48 561.36 561.24L561.12 480.556H561 560.88 560.76V480.676H560.64V480.556 480.436 480.316 480.196 480.076 479.956L560.52 479.836H560.64V479.716H560.76 560.88 561V479.596H561.12 561.24 561.36L561.48 479.476H561.6 561.72L561.84 479.356H561.96 562.08L562.2 479.236H562.32 562.44L562.56 479.116H562.68 562.8 562.92L563.04 478.996H563.16 563.28V478.876H563.4 563.52 563.64V478.996H563.76V479.116 479.236 479.356H563.88V479.476 479.596L564 479.716V479.836 479.956 480.076H564.12V480.196 480.316 480.436L564.24 480.556V480.676 480.796L564.36 480.916V481.036L564.48 481.156V481.276 481.396L564.6 481.276V481.156 481.036L564.72 480.916V480.796L564.84 480.676V480.556L564.96 480.436V480.316 480.196L565.08 480.076V479.956L565.2 479.836V479.716L565.32 479.596V479.476 479.236L565.44 479.116V478.996L565.56 478.876V478.756L565.68 478.636V478.516L565.8 478.396V478.276 478.156L565.92 478.036V477.916 477.796 477.676 477.556 477.436 477.316 477.196L566.04 477.076V476.956 476.836 476.716 476.596 476.476 476.356 476.236 476.116 475.996 475.876 475.756 475.636 475.516 475.396 475.276 475.156 475.036 474.916 474.796 474.676L565.92 474.556V474.436 474.316 474.196 474.076L565.8 473.956V473.836 473.716 473.596 473.476H565.68V473.356 473.236 473.116 472.996 472.876H565.56V472.756 472.636H565.68 565.8V472.516H565.92 566.04 566.16 566.28 566.4V472.396H566.52V472.516L566.64 472.636V472.756 472.876 472.996H566.76V473.116 473.236 473.356 473.476L566.88 473.596V473.716 473.836L567 473.956V474.076 474.196 474.316 474.436H567.12V474.556 474.676 474.796 474.916H567.24V475.036 475.156 475.276 475.396 475.516H567.36V475.636 475.756 475.876 475.996 476.116L567.48 476.236V476.356 476.476 476.596 476.716 476.836L567.6 476.956V477.076 477.196 477.316 477.436 477.556H567.72V477.676 477.556H567.84V477.436H567.96V477.316H568.08V477.196H568.2V477.076H568.32L568.44 476.956 568.56 476.836 568.68 476.716 568.8 476.596 568.92 476.476 569.04 476.356 569.88 477.316 568.8 478.756 566.28 478.876 566.52 479.956 568.32 479.356 568.08 479.596 567.48 481.516 565.8 482.596 566.4 483.316Z" fill-rule="evenodd"/><path transform="matrix(1,0,0,-1,0,595.276)" d="M569.64 475.756V475.756L569.76 475.636V475.516 475.396L569.88 475.276V475.156 475.036 474.916 474.796L570 474.676V474.556 474.436 474.316 474.196L570.12 474.076V473.956 473.836 473.716 473.596H570.24V473.476 473.356 473.236 473.116L570.36 472.996V472.876 472.756H570.48 570.6 570.72 570.84 570.96 571.08 571.2 571.32V472.876 472.996 473.116 473.236L571.2 473.356V473.476 473.596 473.716L570.84 476.116 570.12 476.956Z" fill-rule="evenodd"/><path transform="matrix(1,0,0,-1,0,595.276)" d="M595.56 493.276H556.44C555.36 493.276 554.52 492.436 554.52 491.356V469.876C554.52 468.796 555.36 467.956 556.44 467.956H595.56C596.04 467.956 596.52 468.076 596.88 468.556 597.24 468.916 597.48 469.396 597.48 469.876V491.356C597.48 491.836 597.24 492.316 596.88 492.676 596.52 493.036 596.04 493.276 595.56 493.276ZM595.56 492.316V492.316C595.8 492.316 596.04 492.196 596.28 491.956 596.4 491.836 596.52 491.596 596.52 491.356V469.876C596.52 469.276 596.04 468.916 595.56 468.916H556.44C555.84 468.916 555.48 469.276 555.48 469.876V491.356C555.48 491.836 555.84 492.316 556.44 492.316H595.56Z" fill-rule="evenodd"/></g></svg>