<?xml version='1.0' encoding='UTF-8'?>
<svg width="552.02" height="253.22" viewBox="7.40 8.99 552.02 253.22" xmlns="http://www.w3.org/2000/svg" xmlns:xlink="http://www.w3.org/1999/xlink" xmlns:inkscape="http://www.inkscape.org/namespaces/inkscape" version="1.1"><g transform="scale(10.0) translate(-329.439, -208.800)"><defs><clipPath id="clip_2"><path transform="matrix(1,0,0,-1,0,595.276)" d="M74.4 .196H767.4V595.276H74.4Z"/></clipPath></defs><path transform="matrix(1,0,0,-1,0,595.276)" d="M330.72 383.116C330.72 383.596 330.96 384.076 331.32 384.436 331.56 384.676 331.8 384.796 332.04 384.916 332.28 385.036 332.52 385.036 332.64 385.036H382.92C383.4 385.036 383.88 384.796 384.24 384.436 384.6 384.076 384.84 383.596 384.84 383.116V362.716C384.84 362.236 384.6 361.756 384.24 361.396 383.88 360.916 383.4 360.796 382.92 360.796H332.64C332.28 360.796 331.68 360.916 331.32 361.396 331.08 361.516 330.96 361.756 330.84 361.996 330.84 362.236 330.72 362.476 330.72 362.716V383.116ZM382.92 384.076H332.64C332.52 384.076 332.16 383.956 332.04 383.716 331.8 383.596 331.68 383.356 331.68 383.116V362.716C331.68 362.476 331.8 362.236 332.04 361.996 332.16 361.876 332.52 361.756 332.64 361.756H382.92C383.16 361.756 383.4 361.876 383.52 361.996 383.76 362.236 383.88 362.476 383.88 362.716V383.116C383.88 383.356 383.76 383.596 383.52 383.716 383.4 383.956 383.16 384.076 382.92 384.076Z" fill-rule="evenodd"/><path transform="matrix(1,0,0,-1,0,595.276)" d="M332.64 384.076H382.92C383.04 384.076 383.16 384.076 383.28 383.956 383.4 383.956 383.52 383.836 383.52 383.716 383.64 383.716 383.76 383.596 383.76 383.476 383.88 383.356 383.88 383.236 383.88 383.116V362.716C383.88 362.476 383.76 362.236 383.52 361.996 383.4 361.876 383.16 361.756 382.92 361.756H332.64C332.52 361.756 332.16 361.876 332.04 361.996 331.8 362.236 331.68 362.476 331.68 362.716V383.116C331.68 383.596 332.16 384.076 332.64 384.076Z" fill="#ffffff" fill-rule="evenodd"/><path transform="matrix(1,0,0,-1,0,595.276)" d="M336.36 378.796H338.52V379.756H336.36V380.836H338.64V381.916H335.28V376.636H339V377.716H336.36Z" fill-rule="evenodd"/><path transform="matrix(1,0,0,-1,0,595.276)" d="M342.12 380.356H343.2L342.12 378.556 343.32 376.636H342.24L341.52 377.836 340.92 376.636H339.72L340.92 378.556 339.84 380.356H340.92L341.52 379.276Z" fill-rule="evenodd"/><path transform="matrix(1,0,0,-1,0,595.276)" d="M345.72 380.596C346.08 380.596 346.44 380.476 346.68 380.356 347.04 380.116 347.28 379.876 347.4 379.396L346.56 379.036C346.32 379.396 346.08 379.636 345.72 379.636 345.24 379.636 345 379.276 344.88 378.796 344.88 378.676 344.88 378.676 344.88 378.556 344.88 378.436 344.88 378.316 344.88 378.316V378.196C345 377.716 345.36 377.476 345.72 377.476 345.96 377.476 346.08 377.476 346.2 377.596 346.32 377.716 346.44 377.836 346.56 378.076L347.4 377.716C347.16 376.876 346.56 376.516 345.72 376.516 344.52 376.516 343.92 377.236 343.8 378.556 343.92 379.876 344.52 380.596 345.72 380.596Z" fill-rule="evenodd"/><path transform="matrix(1,0,0,-1,0,595.276)" d="M351.36 378.196C351.36 379.756 350.76 380.476 349.56 380.596 348.6 380.596 348 379.876 347.88 378.556 347.88 377.956 348 377.596 348.24 377.236 348.72 376.756 349.32 376.516 349.8 376.516 350.4 376.516 351.12 376.756 351.24 377.236L350.64 377.836C350.52 377.596 350.16 377.476 349.8 377.476 349.56 377.476 349.44 377.476 349.2 377.596 349.2 377.716 349.08 377.836 349.08 377.836 348.96 377.956 348.96 378.076 348.96 378.196H351.36ZM348.96 378.916V379.036C348.96 379.156 349.08 379.276 349.2 379.396 349.32 379.636 349.44 379.636 349.68 379.636 349.92 379.636 350.28 379.396 350.4 379.036V378.916H348.96Z" fill-rule="evenodd"/><path transform="matrix(1,0,0,-1,0,595.276)" d="M355.8 378.556C355.8 379.876 355.2 380.596 354 380.596 353.64 380.596 353.16 380.476 353.16 380.356V380.476H352.2V375.316H353.16V376.876C353.28 376.636 353.76 376.516 354.12 376.516 354.6 376.516 355.08 376.636 355.32 377.116 355.68 377.476 355.8 377.956 355.8 378.556ZM354 377.476C353.76 377.476 353.64 377.596 353.4 377.716 353.28 377.836 353.16 377.956 353.16 378.076V379.156C353.16 379.396 353.52 379.636 353.88 379.636H354C354.24 379.756 354.6 379.516 354.72 379.156V379.036 378.916 378.196 378.076 377.956C354.6 377.716 354.24 377.476 354 377.476Z" fill-rule="evenodd"/><path transform="matrix(1,0,0,-1,0,595.276)" d="M357.96 380.356H358.92V379.516H357.96V377.836C357.96 377.716 357.96 377.596 358.08 377.596 358.08 377.476 358.2 377.476 358.32 377.476 358.44 377.476 358.44 377.476 358.56 377.476 358.68 377.476 358.8 377.476 358.92 377.476L359.04 376.636C358.92 376.516 358.56 376.516 357.96 376.516 357.72 376.516 357.48 376.516 357.24 376.756 357.12 376.876 357 377.116 357 377.476V379.516H356.28V380.356H357V381.556L357.96 381.916V380.356Z" fill-rule="evenodd"/><path transform="matrix(1,0,0,-1,0,595.276)" d="M363.36 376.516C364.32 376.516 364.92 377.236 364.92 378.436 364.92 379.756 364.32 380.596 363.36 380.596 363 380.596 362.76 380.476 362.52 380.236V381.916H361.56V376.636H362.52V376.756C362.76 376.516 363.12 376.516 363.36 376.516ZM363.24 377.476C362.88 377.476 362.64 377.596 362.52 377.956V379.036C362.64 379.276 362.76 379.396 362.88 379.516 363 379.516 363.12 379.636 363.24 379.636 363.72 379.516 363.96 379.156 363.96 378.436 363.96 377.836 363.72 377.476 363.24 377.476Z" fill-rule="evenodd"/><path transform="matrix(1,0,0,-1,0,595.276)" d="M368.04 380.356H369.12V376.636H368.04V376.756C367.92 376.756 367.92 376.636 367.68 376.636 367.56 376.516 367.32 376.516 367.08 376.516 366.72 376.516 366.36 376.636 366 376.876 365.88 376.996 365.76 377.116 365.76 377.236 365.64 377.356 365.64 377.596 365.64 377.716V380.356H366.72V378.076C366.72 377.956 366.72 377.836 366.84 377.716 367.08 377.596 367.2 377.476 367.32 377.476 367.44 377.476 367.68 377.596 367.8 377.716 368.04 377.836 368.04 378.076 368.04 378.196V380.356Z" fill-rule="evenodd"/><path transform="matrix(1,0,0,-1,0,595.276)" d="M373.2 377.836C373.2 378.556 372.72 379.036 371.88 379.156 371.64 379.156 371.4 379.156 371.28 379.156 371.28 379.276 371.16 379.276 371.16 379.276V379.396C371.16 379.636 371.28 379.756 371.64 379.756 371.88 379.756 372 379.636 372.12 379.636 372.24 379.516 372.36 379.396 372.48 379.276L373.08 379.996C372.84 380.356 372.36 380.596 371.76 380.596 370.68 380.596 370.08 380.236 370.08 379.276 370.08 378.676 370.56 378.316 371.16 378.196 371.76 378.196 372 377.956 372 377.716 372 377.716 372 377.596 372 377.476 371.88 377.476 371.76 377.476 371.64 377.476 371.4 377.476 371.16 377.476 371.04 377.596 370.8 377.716 370.68 377.836 370.56 377.956L369.84 377.236C370.2 376.756 370.8 376.516 371.64 376.516 372.6 376.516 373.2 376.996 373.2 377.836Z" fill-rule="evenodd"/><path transform="matrix(1,0,0,-1,0,595.276)" d="M377.16 378.196C377.16 379.756 376.56 380.476 375.36 380.596 374.4 380.596 373.8 379.876 373.68 378.556 373.68 377.956 373.8 377.596 374.16 377.236 374.52 376.756 375.12 376.516 375.6 376.516 376.2 376.516 376.92 376.756 377.04 377.236L376.44 377.836C376.32 377.596 375.96 377.476 375.6 377.476 375.36 377.476 375.24 377.476 375 377.596 375 377.716 374.88 377.836 374.88 377.836 374.76 377.956 374.76 378.076 374.76 378.196H377.16ZM374.76 378.916V379.036C374.76 379.156 374.88 379.276 375 379.396 375.12 379.636 375.24 379.636 375.48 379.636 375.72 379.636 376.08 379.396 376.2 379.036V378.916H374.76Z" fill-rule="evenodd"/><path transform="matrix(1,0,0,-1,0,595.276)" d="M381 377.836C381 378.556 380.64 379.036 379.8 379.156 379.44 379.156 379.32 379.156 379.2 379.156 379.08 379.276 379.08 379.276 378.96 379.276V379.396C378.96 379.636 379.08 379.756 379.44 379.756 379.68 379.756 379.8 379.636 379.92 379.636 380.16 379.516 380.28 379.396 380.28 379.276L381 379.996C380.64 380.356 380.16 380.596 379.56 380.596 378.48 380.596 377.88 380.236 377.88 379.276 378 378.676 378.36 378.316 379.08 378.196 379.56 378.196 379.92 377.956 379.92 377.716 379.92 377.716 379.8 377.596 379.8 377.476 379.68 377.476 379.56 377.476 379.44 377.476 379.2 377.476 379.08 377.476 378.84 377.596 378.72 377.716 378.48 377.836 378.36 377.956L377.64 377.236C378 376.756 378.6 376.516 379.44 376.516 380.4 376.516 381 376.996 381 377.836Z" fill-rule="evenodd"/><path transform="matrix(1,0,0,-1,0,595.276)" d="M338.76 372.196V365.956L338.88 365.476 339 365.236 339.24 365.116 339.72 364.996H344.52 344.88L345.12 365.116 345.48 365.236 345.72 365.476 345.84 365.716 345.96 366.076 346.08 366.436V366.796L345.36 367.036 345.24 366.556 345 366.076 344.76 365.836H344.28 340.08 339.84 339.72V366.076 366.196 368.836H344.4V368.356H345.12V372.196H338.76ZM339.72 369.556V371.476H341.52V369.556H339.72ZM342.24 369.556V371.476H344.4V369.556H342.24Z" fill-rule="evenodd"/><path transform="matrix(1,0,0,-1,0,595.276)" d="M352.92 372.436 352.2 372.556V370.036H348.84V369.196H352.2V366.196H349.32V365.476H355.92V366.196H353.04V369.196H356.52V370.036H353.04V372.076L353.28 372.196V372.316L353.16 372.436Z" fill-rule="evenodd"/><path transform="matrix(1,0,0,-1,0,595.276)" d="M358.8 369.076 359.4 368.596 359.88 369.316V364.876H360.6V370.636L361.32 371.956V371.356H362.04L361.92 370.276 361.68 369.316 361.32 368.596 360.96 367.876 361.56 367.276 361.92 367.876 362.76 367.396 362.4 366.796 361.92 366.436 361.44 365.956 360.96 365.716 361.44 365.116 362.04 365.476 362.64 365.836 363.12 366.316 363.48 366.916 363.72 367.636 363.96 368.356 364.08 369.196V370.156H362.64L362.88 371.356H364.2V372.076H361.44V372.196H361.32L360.72 372.556 360.36 371.596 359.88 370.756 359.4 369.916 358.8 369.076ZM362.52 369.436H363.36L363.12 368.116 362.16 368.596 362.52 369.436Z" fill-rule="evenodd"/><path transform="matrix(1,0,0,-1,0,595.276)" d="M364.56 371.476V366.556H365.28V371.116L365.4 371.356 365.28 371.476Z" fill-rule="evenodd"/><path transform="matrix(1,0,0,-1,0,595.276)" d="M365.88 372.556V366.316 365.956L365.76 365.836 365.64 365.716 365.4 365.596H364.68L365.04 364.876 365.88 364.996 366.24 365.116 366.48 365.356 366.6 365.596V365.956 372.076L366.72 372.196 366.84 372.316H366.72L366.6 372.436Z" fill-rule="evenodd"/><path transform="matrix(1,0,0,-1,0,595.276)" d="M371.64 372.436 371.16 372.556 370.92 371.476 370.56 370.396 370.08 369.556 369.36 368.716 369.96 368.116 370.8 369.196 371.4 370.276H372.6L372.48 369.316 372.12 368.476 371.16 369.076 370.68 368.476 371.28 368.116 371.88 367.636 371.4 367.036 370.92 366.556 370.2 366.076 369.36 365.716 369.96 364.996 370.68 365.236 371.28 365.596 371.76 366.076 372.24 366.796 372.72 367.516 373.08 368.476 373.44 369.556 373.68 370.756 373.08 371.236 372.84 371.116H371.64L371.88 371.956 372.12 372.196V372.316L372 372.436Z" fill-rule="evenodd"/><path transform="matrix(1,0,0,-1,0,595.276)" d="M375.12 372.436 374.64 372.556V369.316L374.16 369.796 373.68 369.436 374.16 368.716 374.64 368.236V364.876H375.6V367.516L376.68 366.916 377.28 367.756 376.32 368.116 375.6 368.596V372.076L375.72 372.196V372.316L375.6 372.436Z" fill-rule="evenodd"/></g></svg>