<?xml version='1.0' encoding='UTF-8'?>
<svg width="554.47" height="217.27" viewBox="6.71 26.00 554.47 217.27" xmlns="http://www.w3.org/2000/svg" xmlns:xlink="http://www.w3.org/1999/xlink" xmlns:inkscape="http://www.inkscape.org/namespaces/inkscape" version="1.1"><g transform="scale(10.0) translate(-220.305, -531.936)"><defs><clipPath id="clip_2"><path transform="matrix(1,0,0,-1,0,595.276)" d="M74.4 .196H767.4V595.276H74.4Z"/></clipPath></defs><path transform="matrix(1,0,0,-1,0,595.276)" d="M222.36 60.196H275.04C275.16 60.196 275.28 60.196 275.4 60.196 275.4 60.076 275.52 60.076 275.64 59.956 275.76 59.956 275.76 59.836 275.76 59.716 275.88 59.596 275.88 59.476 275.88 59.356V40.396C275.88 40.156 275.76 39.916 275.64 39.796 275.52 39.676 275.4 39.556 275.4 39.556 275.28 39.556 275.16 39.556 275.04 39.556H222.36C222.12 39.556 221.88 39.556 221.76 39.796 221.64 39.916 221.52 40.156 221.52 40.396V59.356C221.52 59.596 221.64 59.836 221.76 59.956 221.88 60.196 222.12 60.196 222.36 60.196ZM222.36 59.836C222.12 59.836 221.88 59.596 221.88 59.356V40.396C221.88 40.276 221.88 40.276 222 40.156V40.036C222.12 39.916 222.24 39.916 222.36 39.916H275.04C275.16 39.916 275.28 39.916 275.28 40.036 275.4 40.156 275.4 40.276 275.4 40.396V59.356C275.4 59.476 275.4 59.596 275.28 59.716 275.28 59.716 275.16 59.836 275.04 59.836H222.36Z" fill-rule="evenodd"/><path transform="matrix(1,0,0,-1,0,595.276)" d="M222.36 59.836H275.04 275.16L275.28 59.716 275.4 59.596C275.4 59.476 275.4 59.476 275.4 59.356V40.396C275.4 40.276 275.4 40.156 275.28 40.036L275.16 39.916H275.04 222.36C222.24 39.916 222.12 39.916 222 40.036V40.156C221.88 40.276 221.88 40.276 221.88 40.396V59.356C221.88 59.596 222.12 59.836 222.36 59.836Z" fill="#ffffff" fill-rule="evenodd"/><path transform="matrix(1,0,0,-1,0,595.276)" d="M227.88 57.316H228.36V55.516H227.76V55.636C227.76 55.516 227.76 55.516 227.64 55.516 227.52 55.516 227.52 55.396 227.4 55.396 227.16 55.396 227.04 55.516 226.92 55.636 226.68 55.756 226.68 55.876 226.68 55.996V57.316H227.16V56.236 56.116C227.16 56.116 227.28 56.116 227.28 55.996 227.4 55.996 227.4 55.876 227.52 55.876 227.52 55.876 227.64 55.996 227.76 55.996 227.76 56.116 227.88 56.236 227.88 56.236V57.316Z" fill-rule="evenodd"/><path transform="matrix(1,0,0,-1,0,595.276)" d="M230.52 55.516V56.836C230.52 57.196 230.28 57.436 229.8 57.436 229.68 57.436 229.56 57.436 229.56 57.436 229.44 57.316 229.44 57.316 229.32 57.316V57.436H228.84V55.516H229.32V56.716C229.32 56.836 229.44 56.956 229.68 56.956 229.92 56.956 229.92 56.836 229.92 56.716V56.596 55.516H230.52Z" fill-rule="evenodd"/><path transform="matrix(1,0,0,-1,0,595.276)" d="M232.2 57.316V58.036H232.68V55.516H232.2V55.636C232.08 55.516 231.96 55.396 231.72 55.396 231.36 55.396 231 55.756 230.88 56.356V56.596C231 57.076 231.24 57.436 231.72 57.436 231.84 57.436 232.08 57.316 232.2 57.316ZM232.2 56.116V56.596 56.716C232.2 56.716 232.2 56.836 232.08 56.836 232.08 56.836 231.96 56.956 231.84 56.956 231.6 56.956 231.48 56.716 231.36 56.476 231.36 56.116 231.6 55.876 231.84 55.876 231.96 55.876 232.08 55.996 232.2 56.116Z" fill-rule="evenodd"/><path transform="matrix(1,0,0,-1,0,595.276)" d="M234.84 55.876 234.72 55.516C234.6 55.516 234.48 55.516 234.36 55.516L234.24 55.636C234.24 55.516 234 55.396 233.76 55.396 233.28 55.396 233.04 55.636 233.04 56.116 233.04 56.356 233.16 56.476 233.28 56.596 233.52 56.716 233.76 56.716 234.12 56.716V56.836 56.956C234 56.956 234 56.956 233.88 56.956 233.76 56.956 233.64 56.956 233.64 56.956 233.52 56.956 233.4 56.836 233.28 56.836L233.04 57.196C233.28 57.316 233.52 57.436 233.88 57.436 234.12 57.436 234.24 57.436 234.36 57.316 234.6 57.196 234.6 57.076 234.6 56.956V55.996C234.6 55.876 234.72 55.876 234.84 55.876ZM233.52 56.116C233.52 55.996 233.64 55.996 233.64 55.876 233.64 55.876 233.76 55.876 233.88 55.876 234 55.876 234.12 55.996 234.12 55.996V56.356C233.88 56.356 233.76 56.236 233.76 56.236 233.64 56.236 233.52 56.116 233.52 56.116Z" fill-rule="evenodd"/><path transform="matrix(1,0,0,-1,0,595.276)" d="M236.76 57.316H236.28L235.92 56.236 235.56 57.316H235.08L235.56 55.636C235.68 55.636 235.68 55.636 235.68 55.516V55.396H235.56 235.44C235.32 55.396 235.32 55.396 235.2 55.396V55.036C235.32 54.916 235.56 54.916 235.8 54.916 235.8 54.916 235.92 54.916 235.92 55.036 236.04 55.036 236.04 55.156 236.16 55.276L236.76 57.316Z" fill-rule="evenodd"/><path transform="matrix(1,0,0,-1,0,595.276)" d="M238.68 56.116C238.68 56.476 238.44 56.716 238.08 56.716 237.84 56.716 237.84 56.716 237.72 56.716 237.72 56.836 237.6 56.836 237.6 56.836 237.6 56.956 237.72 56.956 237.96 57.076L238.08 56.956C238.2 56.956 238.2 56.836 238.32 56.836L238.56 57.196C238.44 57.316 238.2 57.436 237.96 57.436 237.36 57.436 237.12 57.196 237.12 56.836 237.12 56.476 237.36 56.356 237.72 56.236 237.96 56.236 238.08 56.236 238.08 56.116V55.996C237.96 55.876 237.96 55.876 237.84 55.876 237.72 55.876 237.72 55.996 237.6 55.996 237.48 55.996 237.48 56.116 237.36 56.116L237 55.756C237.24 55.516 237.48 55.396 237.84 55.396 238.32 55.396 238.68 55.636 238.68 56.116Z" fill-rule="evenodd"/><path transform="matrix(1,0,0,-1,0,595.276)" d="M241.56 55.876 241.44 55.516C241.32 55.516 241.2 55.516 241.08 55.516L240.96 55.636C240.96 55.516 240.72 55.396 240.48 55.396 240 55.396 239.76 55.636 239.76 56.116 239.76 56.356 239.88 56.476 240 56.596 240.24 56.716 240.48 56.716 240.84 56.716V56.836 56.956C240.72 56.956 240.72 56.956 240.6 56.956 240.48 56.956 240.36 56.956 240.36 56.956 240.24 56.956 240.12 56.836 240 56.836L239.76 57.196C240 57.316 240.24 57.436 240.6 57.436 240.84 57.436 240.96 57.436 241.2 57.316 241.32 57.196 241.32 57.076 241.32 56.956V55.996C241.44 55.876 241.44 55.876 241.56 55.876ZM240.24 56.116C240.24 55.996 240.36 55.996 240.36 55.876 240.36 55.876 240.48 55.876 240.6 55.876 240.72 55.876 240.84 55.996 240.84 55.996V56.356C240.72 56.356 240.48 56.236 240.48 56.236 240.36 56.236 240.36 56.116 240.24 56.116Z" fill-rule="evenodd"/><path transform="matrix(1,0,0,-1,0,595.276)" d="M243.48 55.516V56.836C243.48 57.196 243.24 57.436 242.76 57.436 242.76 57.436 242.64 57.436 242.52 57.436 242.52 57.316 242.4 57.316 242.4 57.316V57.436H241.92V55.516H242.4V56.716C242.4 56.836 242.52 56.956 242.76 56.956 242.88 56.956 243 56.836 243 56.716V56.596 55.516H243.48Z" fill-rule="evenodd"/><path transform="matrix(1,0,0,-1,0,595.276)" d="M245.28 57.316V58.036H245.76V55.516H245.28V55.636C245.16 55.516 245.04 55.396 244.8 55.396 244.44 55.396 244.08 55.756 243.96 56.356V56.596C243.96 57.076 244.32 57.436 244.8 57.436 244.92 57.436 245.04 57.316 245.28 57.316ZM245.28 56.116V56.596 56.716L245.16 56.836C245.04 56.836 245.04 56.956 244.92 56.956 244.56 56.956 244.44 56.716 244.44 56.476 244.44 56.116 244.56 55.876 244.92 55.876 245.04 55.876 245.16 55.996 245.28 56.116Z" fill-rule="evenodd"/><path transform="matrix(1,0,0,-1,0,595.276)" d="M250.68 57.316H251.28V55.516H250.68V55.636C250.68 55.516 250.68 55.516 250.56 55.516 250.44 55.516 250.32 55.396 250.2 55.396 250.08 55.396 249.84 55.516 249.72 55.636 249.6 55.756 249.6 55.876 249.6 55.996V57.316H250.08V56.236 56.116L250.2 55.996 250.32 55.876C250.44 55.876 250.56 55.996 250.56 55.996 250.68 56.116 250.68 56.236 250.68 56.236V57.316Z" fill-rule="evenodd"/><path transform="matrix(1,0,0,-1,0,595.276)" d="M252.6 55.396C253.08 55.396 253.32 55.876 253.32 56.356 253.32 57.076 253.08 57.436 252.6 57.436 252.36 57.436 252.24 57.316 252.12 57.196V58.036H251.76V55.516H252.12V55.636C252.24 55.516 252.48 55.396 252.6 55.396ZM252.48 55.876C252.36 55.876 252.24 55.996 252.12 56.236V56.716C252.24 56.836 252.24 56.836 252.36 56.956H252.48C252.72 56.956 252.84 56.716 252.84 56.356 252.84 56.116 252.72 55.876 252.48 55.876Z" fill-rule="evenodd"/><path transform="matrix(1,0,0,-1,0,595.276)" d="M254.16 58.036V56.116 55.996C254.16 55.996 254.28 55.996 254.4 55.996L254.52 55.516H254.4C254.28 55.516 254.16 55.516 254.16 55.516 253.92 55.516 253.68 55.636 253.68 55.756V55.876 58.036H254.16Z" fill-rule="evenodd"/><path transform="matrix(1,0,0,-1,0,595.276)" d="M255.36 55.516V57.316H254.88V55.516Z" fill-rule="evenodd"/><path transform="matrix(1,0,0,-1,0,595.276)" d="M255.48 57.796C255.48 58.036 255.24 58.156 255.12 58.156 255 58.156 254.88 58.036 254.88 57.796 254.88 57.676 255 57.556 255.12 57.556 255.24 57.556 255.48 57.676 255.48 57.796Z" fill-rule="evenodd"/><path transform="matrix(1,0,0,-1,0,595.276)" d="M256.68 57.436C256.92 57.436 257.04 57.436 257.16 57.316 257.28 57.196 257.4 57.076 257.52 56.836L257.04 56.716C257.04 56.836 256.92 56.956 256.68 56.956 256.44 56.956 256.32 56.836 256.32 56.596V56.476 56.356C256.32 55.996 256.56 55.876 256.68 55.876 256.8 55.876 256.92 55.876 256.92 55.996 257.04 55.996 257.04 56.116 257.04 56.236L257.52 55.996C257.4 55.636 257.16 55.396 256.68 55.396 256.08 55.516 255.84 55.756 255.84 56.476 255.84 57.076 256.2 57.436 256.68 57.436Z" fill-rule="evenodd"/><path transform="matrix(1,0,0,-1,0,595.276)" d="M263.4 56.476C263.4 56.716 263.28 56.956 263.16 57.196 262.92 57.316 262.68 57.436 262.44 57.436 262.2 57.436 261.96 57.316 261.84 57.196 261.6 56.956 261.6 56.716 261.6 56.476 261.6 55.756 261.84 55.396 262.44 55.396 263.04 55.396 263.4 55.756 263.4 56.476ZM262.8 56.476C262.8 56.116 262.68 55.996 262.44 55.996 262.32 55.996 262.2 55.996 262.2 56.116 262.08 56.116 262.08 56.236 262.08 56.476 262.08 56.716 262.2 56.956 262.44 56.956 262.68 56.956 262.8 56.716 262.8 56.476Z" fill-rule="evenodd"/><path transform="matrix(1,0,0,-1,0,595.276)" d="M264.12 58.036V56.116 55.996C264.24 55.996 264.36 55.996 264.48 55.996L264.6 55.516H264.48C264.36 55.516 264.24 55.516 264.12 55.516 263.88 55.516 263.76 55.636 263.64 55.756V55.876 58.036H264.12Z" fill-rule="evenodd"/><path transform="matrix(1,0,0,-1,0,595.276)" d="M265.44 55.516V57.316H264.96V55.516Z" fill-rule="evenodd"/><path transform="matrix(1,0,0,-1,0,595.276)" d="M265.44 57.796C265.44 58.036 265.32 58.156 265.2 58.156 264.96 58.156 264.84 58.036 264.84 57.796 264.84 57.676 264.96 57.556 265.2 57.556 265.32 57.556 265.44 57.676 265.44 57.796Z" fill-rule="evenodd"/><path transform="matrix(1,0,0,-1,0,595.276)" d="M267.12 57.316V58.036H267.6V55.516H267.12V55.636C267 55.516 266.88 55.396 266.64 55.396 266.28 55.396 265.92 55.756 265.8 56.356V56.596C265.92 57.076 266.16 57.436 266.64 57.436 266.76 57.436 266.88 57.316 267.12 57.316ZM267.12 56.116V56.596 56.716L267 56.836C266.88 56.836 266.88 56.956 266.76 56.956 266.52 56.956 266.28 56.716 266.28 56.476 266.28 56.116 266.4 55.876 266.76 55.876 266.88 55.876 267 55.996 267.12 56.116Z" fill-rule="evenodd"/><path transform="matrix(1,0,0,-1,0,595.276)" d="M269.76 55.876 269.64 55.516C269.4 55.516 269.4 55.516 269.28 55.516 269.16 55.516 269.16 55.636 269.16 55.636 269.04 55.516 268.8 55.396 268.68 55.396 268.2 55.396 267.96 55.636 267.96 56.116 267.96 56.356 267.96 56.476 268.2 56.596 268.32 56.716 268.68 56.716 269.04 56.716V56.836C269.04 56.956 268.92 56.956 268.92 56.956H268.8C268.68 56.956 268.56 56.956 268.44 56.956 268.32 56.956 268.32 56.836 268.2 56.836L267.96 57.196C268.2 57.316 268.44 57.436 268.8 57.436 269.04 57.436 269.16 57.436 269.28 57.316 269.4 57.196 269.52 57.076 269.52 56.956V55.996C269.52 55.876 269.64 55.876 269.76 55.876ZM268.44 56.116C268.44 55.996 268.44 55.996 268.56 55.876 268.56 55.876 268.68 55.876 268.8 55.876 268.92 55.876 268.92 55.996 269.04 55.996V56.356C268.8 56.356 268.68 56.236 268.56 56.236L268.44 56.116Z" fill-rule="evenodd"/><path transform="matrix(1,0,0,-1,0,595.276)" d="M271.68 57.316H271.2L270.84 56.236 270.48 57.316H270L270.48 55.636V55.516 55.396C270.36 55.396 270.36 55.396 270.24 55.396H270.12V55.036C270.24 54.916 270.48 54.916 270.72 54.916 270.72 54.916 270.84 54.916 270.84 55.036 270.96 55.036 270.96 55.156 270.96 55.276L271.68 57.316Z" fill-rule="evenodd"/><path transform="matrix(1,0,0,-1,0,595.276)" d="M273.48 56.116C273.48 56.476 273.36 56.716 272.88 56.716 272.76 56.716 272.64 56.716 272.64 56.716L272.52 56.836C272.52 56.956 272.64 56.956 272.76 57.076 272.88 57.076 273 56.956 273 56.956 273.12 56.956 273.12 56.836 273.24 56.836L273.48 57.196C273.36 57.316 273.12 57.436 272.76 57.436 272.28 57.436 272.04 57.196 272.04 56.836 272.04 56.476 272.28 56.356 272.52 56.236 272.88 56.236 273 56.236 273 56.116 273 55.996 273 55.996 272.88 55.996 272.88 55.876 272.88 55.876 272.76 55.876 272.64 55.876 272.52 55.996 272.52 55.996 272.4 55.996 272.28 56.116 272.28 56.116L271.92 55.756C272.04 55.516 272.4 55.396 272.76 55.396 273.24 55.396 273.48 55.636 273.48 56.116Z" fill-rule="evenodd"/><path transform="matrix(1,0,0,-1,0,595.276)" d="M224.64 57.316 224.76 57.196C224.88 57.196 225 57.076 225.24 57.076 225.84 56.956 226.08 56.716 226.08 56.236 226.08 55.756 225.72 55.396 225.12 55.396 224.76 55.396 224.52 55.516 224.4 55.516 224.16 55.636 224.04 55.756 223.92 55.996L224.28 56.356C224.52 56.116 224.76 55.996 225.12 55.996 225.36 55.996 225.48 56.116 225.48 56.236 225.48 56.476 225.24 56.476 224.88 56.596 224.4 56.596 224.16 56.836 224.04 57.316 224.16 57.916 224.4 58.156 225.12 58.156 225.36 58.156 225.48 58.156 225.72 58.036 225.84 57.916 225.96 57.916 226.08 57.676L225.72 57.316C225.48 57.556 225.24 57.676 225.12 57.676 224.88 57.676 224.76 57.556 224.64 57.316Z" fill-rule="evenodd"/><path transform="matrix(1,0,0,-1,0,595.276)" d="M247.8 56.476H248.52 248.64C249 56.596 249.24 56.836 249.24 57.316 249.24 57.676 249 58.036 248.64 58.036H248.52 247.32V55.516H247.8V56.476ZM247.8 56.956V57.676H248.4C248.52 57.556 248.64 57.436 248.64 57.316 248.64 57.076 248.52 56.956 248.4 56.956H247.8Z" fill-rule="evenodd"/><path transform="matrix(1,0,0,-1,0,595.276)" d="M259.44 57.076V58.036H258.96V55.516H259.44V56.596H259.92 260.52V55.516H261V58.036H260.52V57.076H259.92Z" fill-rule="evenodd"/><path transform="matrix(1,0,0,-1,0,595.276)" d="M244.08 52.876C244.08 53.476 243.84 53.836 243.24 53.836 243.12 53.836 242.88 53.716 242.76 53.716H242.28V51.316H242.88V52.036C242.88 51.916 243.12 51.796 243.24 51.796 243.48 51.796 243.72 51.916 243.84 52.156 244.08 52.276 244.08 52.516 244.08 52.876ZM243.24 52.276C243.12 52.276 243 52.276 243 52.396 242.88 52.396 242.88 52.516 242.88 52.516V52.636 53.116C242.88 53.236 243 53.356 243.24 53.356 243.36 53.356 243.48 53.236 243.6 53.116V52.996 52.636 52.516C243.6 52.396 243.36 52.276 243.24 52.276Z" fill-rule="evenodd"/><path transform="matrix(1,0,0,-1,0,595.276)" d="M246.36 53.356C246.24 53.356 246 53.236 246 53.116V52.996 51.916H245.52V53.116C245.52 53.236 245.4 53.356 245.28 53.356 245.16 53.356 244.92 53.236 244.92 53.116V52.996 51.916H244.44V53.716H244.92C245.04 53.716 245.04 53.716 245.16 53.836 245.28 53.836 245.28 53.836 245.4 53.836 245.64 53.836 245.76 53.716 245.88 53.596 246 53.716 246.12 53.836 246.36 53.836 246.72 53.836 246.96 53.716 247.08 53.356V53.236 51.916H246.6V53.116C246.6 53.236 246.6 53.236 246.48 53.236 246.48 53.356 246.48 53.356 246.36 53.356Z" fill-rule="evenodd"/><path transform="matrix(1,0,0,-1,0,595.276)" d="M255.36 52.876C255.36 53.476 255.12 53.836 254.52 53.836 254.4 53.836 254.16 53.716 254.04 53.716H253.68V51.316H254.16V52.036C254.16 51.916 254.4 51.796 254.52 51.796 255.12 51.796 255.36 52.276 255.36 52.876ZM254.52 52.276C254.4 52.276 254.28 52.276 254.28 52.396 254.16 52.516 254.16 52.516 254.16 52.636V53.116C254.16 53.236 254.28 53.356 254.52 53.356 254.64 53.356 254.88 53.236 254.88 53.116V52.996 52.636 52.516C254.88 52.396 254.64 52.276 254.52 52.276Z" fill-rule="evenodd"/><path transform="matrix(1,0,0,-1,0,595.276)" d="M257.64 53.356C257.52 53.356 257.28 53.236 257.28 53.116V52.996 51.916H256.8V53.116C256.8 53.236 256.68 53.356 256.56 53.356 256.44 53.356 256.2 53.236 256.2 53.116V52.996 51.916H255.72V53.716H256.2C256.32 53.716 256.32 53.716 256.44 53.836 256.56 53.836 256.56 53.836 256.68 53.836 256.92 53.836 257.04 53.716 257.16 53.596 257.28 53.716 257.52 53.836 257.64 53.836 258 53.836 258.24 53.716 258.36 53.356V53.236 51.916H257.88V53.116 53.236H257.76C257.76 53.356 257.76 53.356 257.64 53.356Z" fill-rule="evenodd"/><path transform="matrix(1,0,0,-1,0,595.276)" d="M240.72 52.876H241.08V52.396H240.72V51.916H240.12V52.396H238.8V52.876L240 54.436H240.72V52.876ZM240.12 53.836 239.4 52.876H240.12V53.836Z" fill-rule="evenodd"/><path transform="matrix(1,0,0,-1,0,595.276)" d="M249.36 52.996H248.52V52.636H249.36Z" fill-rule="evenodd"/><path transform="matrix(1,0,0,-1,0,595.276)" d="M250.92 51.916H251.52L252.36 53.956V54.436H250.56V53.956H251.76Z" fill-rule="evenodd"/><path transform="matrix(1,0,0,-1,0,595.276)" d="M235.08 49.996H232.8V48.676H235.08V49.996ZM233.16 49.516V49.636H234.72V49.516H233.16ZM233.16 48.916V49.156H234.72V48.916H233.16Z" fill-rule="evenodd"/><path transform="matrix(1,0,0,-1,0,595.276)" d="M233.28 48.556 232.92 48.676 232.68 48.196 232.32 47.836 232.56 47.596 232.92 48.076H233.76V47.716H232.92V47.476H233.76V47.236H232.32V46.876H235.44V47.236H234.12V47.476H235.08V47.716H234.12V48.076H235.2V48.316H234.12V48.436L234.24 48.556H234.12V48.676H233.76V48.316H233.16Z" fill-rule="evenodd"/><path transform="matrix(1,0,0,-1,0,595.276)" d="M236.52 49.516V49.276H236.88V47.956H236.52V47.716H238.32V47.956H238.08V49.276H238.32V49.516H238.08V49.876 49.996H237.96 237.72V49.516H237.24V49.876 49.996H237.12 236.88V49.516H236.52ZM237.24 48.436V48.796H237.72V48.436H237.24ZM237.24 47.956V48.196H237.72V47.956H237.24ZM237.24 49.036V49.276H237.72V49.036H237.24Z" fill-rule="evenodd"/><path transform="matrix(1,0,0,-1,0,595.276)" d="M236.64 46.996 236.88 46.876 237.12 47.116 237.36 47.476 237 47.596 236.88 47.236Z" fill-rule="evenodd"/><path transform="matrix(1,0,0,-1,0,595.276)" d="M238.44 49.996V48.556 48.076 47.596L238.32 47.356 238.2 47.116 238.44 46.876 238.56 47.116 238.68 47.356 238.8 47.716V47.956H239.28V47.356 47.236H239.16L238.92 47.116 239.04 46.876H239.4L239.52 46.996 239.64 47.116V47.356 49.996H238.44ZM238.8 48.196V48.796H239.28V48.196H238.8ZM238.8 49.156V49.756H239.28V49.156H238.8Z" fill-rule="evenodd"/><path transform="matrix(1,0,0,-1,0,595.276)" d="M237.72 47.596 237.6 47.476 237.72 47.236 237.84 46.876 238.2 47.116 237.96 47.356Z" fill-rule="evenodd"/><path transform="matrix(1,0,0,-1,0,595.276)" d="M241.2 46.876H241.56V47.236H243.36V46.876H243.72V49.876H241.2V46.876ZM241.56 47.596V48.436H243.36V47.596H241.56ZM241.56 48.676V49.516H243.36V48.676H241.56Z" fill-rule="evenodd"/><path transform="matrix(1,0,0,-1,0,595.276)" d="M245.4 49.876V49.636H246V49.156 48.796L245.88 48.316 245.76 48.076 245.64 47.716 245.52 47.476 245.28 47.236 245.04 47.116 245.4 46.876 245.64 47.116 245.88 47.476 246.12 47.956 246.24 48.316 246.36 48.076 246.48 47.836 246.6 47.716 246.84 47.476 246.36 47.236 245.88 47.116 246.12 46.876 246.6 47.116 247.08 47.356 247.44 47.116 248.04 46.876 248.28 47.236 247.8 47.356 247.32 47.596 247.56 47.836 247.68 48.196 247.8 48.556 248.04 48.916 247.68 49.036H247.32L247.68 49.756 247.32 49.996V49.876H245.4ZM246.36 49.636H247.2L246.72 48.676 247.08 48.556V48.676H247.56L247.44 48.436 247.32 48.196 247.2 47.956 247.08 47.716 246.72 47.956 246.6 48.196 246.48 48.436 246.36 48.676V49.636Z" fill-rule="evenodd"/><path transform="matrix(1,0,0,-1,0,595.276)" d="M250.2 49.516H249.96L249.84 49.276 249.72 48.916 249.48 48.676 249.12 48.436 249.48 48.196 249.72 48.436 249.96 48.676 250.2 49.036 250.32 49.396 250.44 49.516H250.32Z" fill-rule="evenodd"/><path transform="matrix(1,0,0,-1,0,595.276)" d="M250.8 48.796 250.56 48.916 250.2 48.076 249.96 47.356H249.48V46.996 46.876H249.6V46.996L251.64 47.236 251.88 46.876 252.24 47.116 252 47.356 251.88 47.596 251.64 47.956 251.4 48.196 251.16 48.076 251.52 47.476 250.32 47.356 250.8 48.556H250.92V48.676Z" fill-rule="evenodd"/><path transform="matrix(1,0,0,-1,0,595.276)" d="M250.32 49.876V49.636H251.04L251.16 49.276 251.4 48.916 251.64 48.556 252.12 48.196 252.48 48.436 252.24 48.556 252 48.796 251.88 48.916 251.64 49.156 251.52 49.276V49.516L251.4 49.756V49.876Z" fill-rule="evenodd"/><path transform="matrix(1,0,0,-1,0,595.276)" d="M253.8 49.996V49.036H256.44V49.996H253.8ZM254.04 49.276V49.756H254.52V49.276H254.04ZM254.88 49.276V49.756H255.36V49.276H254.88ZM255.6 49.276V49.756H256.08V49.276H255.6Z" fill-rule="evenodd"/><path transform="matrix(1,0,0,-1,0,595.276)" d="M253.8 48.676 254.04 48.436 255 48.556V46.876H255.24V48.556L256.08 48.676H256.2V48.796H256.08L255.96 49.036 254.88 48.796Z" fill-rule="evenodd"/><path transform="matrix(1,0,0,-1,0,595.276)" d="M254.28 48.436 254.16 48.076 254.04 47.836 253.8 47.716 253.68 47.476 253.56 47.356 253.68 47.116 254.04 47.476 254.16 47.716 254.64 47.236 254.88 47.356 254.64 47.596 254.4 47.956 254.52 48.196H254.64V48.316H254.52Z" fill-rule="evenodd"/><path transform="matrix(1,0,0,-1,0,595.276)" d="M255.84 48.436 255.72 48.076V47.836L255.6 47.716 255.48 47.476 255.36 47.356 255.6 47.116 255.72 47.476 255.96 47.716 256.08 47.476 256.32 47.116 256.56 47.356 256.44 47.476 256.32 47.716 256.2 47.836 256.08 48.076V48.316H256.2 256.08Z" fill-rule="evenodd"/><path transform="matrix(1,0,0,-1,0,595.276)" d="M258.6 49.876 258.36 49.996 258.24 49.636 258.12 49.276 257.88 48.916 257.64 48.556 257.88 48.316 258.12 48.676V46.876H258.48V49.276L258.6 49.756H258.72V49.876Z" fill-rule="evenodd"/><path transform="matrix(1,0,0,-1,0,595.276)" d="M258.72 49.876V46.876H259.08V47.476H259.68V47.716H259.08V48.076H259.68V48.436H259.08V48.796H259.68V49.876H258.72ZM259.08 49.036V49.516H259.44V49.036H259.08Z" fill-rule="evenodd"/><path transform="matrix(1,0,0,-1,0,595.276)" d="M259.92 49.876V49.516H260.52V49.036H259.92V48.796H260.88V49.876Z" fill-rule="evenodd"/><path transform="matrix(1,0,0,-1,0,595.276)" d="M259.8 48.556V48.316H260.52V47.956L260.28 47.716 260.16 47.836V48.196H259.8L259.92 47.716 260.16 47.476 259.92 47.236 259.56 47.116 259.8 46.876 260.04 46.996 260.4 47.236 260.64 46.996 260.88 46.876 261 47.116 260.76 47.236 260.52 47.476 260.76 47.956 260.88 48.436 260.76 48.556H260.64Z" fill-rule="evenodd"/><path transform="matrix(1,0,0,-1,0,595.276)" d="M262.08 49.516V49.276H262.44V47.956H262.08V47.716H263.88V47.956H263.64V49.276H263.88V49.516H263.64V49.876 49.996H263.52 263.28V49.516H262.8V49.876 49.996H262.68 262.44V49.516H262.08ZM262.8 48.436V48.796H263.28V48.436H262.8ZM262.8 47.956V48.196H263.28V47.956H262.8ZM262.8 49.036V49.276H263.28V49.036H262.8Z" fill-rule="evenodd"/><path transform="matrix(1,0,0,-1,0,595.276)" d="M262.2 46.996 262.44 46.876 262.68 47.116 262.92 47.476 262.56 47.596 262.44 47.236Z" fill-rule="evenodd"/><path transform="matrix(1,0,0,-1,0,595.276)" d="M264 49.996V48.556 48.076 47.596L263.88 47.356 263.76 47.116 264 46.876 264.12 47.116 264.24 47.356V47.716L264.36 47.956H264.84V47.356 47.236H264.6L264.48 47.116 264.6 46.876H264.96V46.996H265.08V47.116L265.2 47.356V49.996H264ZM264.36 48.196V48.796H264.84V48.196H264.36ZM264.36 49.156V49.756H264.84V49.156H264.36Z" fill-rule="evenodd"/><path transform="matrix(1,0,0,-1,0,595.276)" d="M263.28 47.596 263.16 47.476 263.28 47.236 263.4 46.876 263.76 47.116 263.52 47.356Z" fill-rule="evenodd"/><path transform="matrix(1,0,0,-1,0,595.276)" d="M251.4 44.716V44.476H252.72V41.836H253.08V43.516L253.44 43.276 253.92 42.796 254.16 43.036 253.68 43.516 253.08 43.996V44.476H254.52V44.716Z" fill-rule="evenodd"/><path transform="matrix(1,0,0,-1,0,595.276)" d="M255.72 43.996 256.08 43.756 256.44 44.236H257.16V43.516H255.6V43.156H257.16V41.836H257.52V43.156H258.84V43.516H257.52V44.236H258.6V44.596H256.68L256.8 44.836H256.92L256.8 44.956 256.56 45.076 256.08 44.476Z" fill-rule="evenodd"/><path transform="matrix(1,0,0,-1,0,595.276)" d="M261.24 44.956H261V43.756L259.92 43.636V43.396L261 43.516V42.436 42.196L261.12 42.076 261.24 41.956H261.48 262.44 262.56 262.8L262.92 42.076V42.196L263.04 42.676 262.8 42.796 262.68 42.556 262.56 42.436V42.316H262.44 262.32 261.48 261.36V42.436 42.556 43.516L263.04 43.636V43.996L261.36 43.756V44.716L261.48 44.836V44.956H261.36Z" fill-rule="evenodd"/><path transform="matrix(1,0,0,-1,0,595.276)" d="M266.16 43.876H265.44V43.516H266.64V43.156H265.44V42.916H266.64V42.316 42.196H266.52V42.076H266.4 266.04L266.16 41.836H266.52 266.64L266.76 41.956 266.88 42.076V42.196 42.916H267.48V43.156H266.88V43.516H267.36V43.876H266.52V44.236H267.24V44.596H266.52V44.836 44.956L266.16 45.076V44.596H265.56V44.236H266.16Z" fill-rule="evenodd"/><path transform="matrix(1,0,0,-1,0,595.276)" d="M265.8 42.796 265.68 42.676 265.8 42.436 266.04 42.196 266.28 42.436 266.04 42.676Z" fill-rule="evenodd"/><path transform="matrix(1,0,0,-1,0,595.276)" d="M264.24 44.716V42.316 42.196H264.6V42.436H264.96V42.316H265.2V44.716H264.24ZM264.6 43.756V44.356H264.96V43.756H264.6ZM264.6 42.796V43.516H264.96V42.796H264.6Z" fill-rule="evenodd"/><path transform="matrix(1,0,0,-1,0,595.276)" d="M247.32 44.476H248.28L247.92 43.876 247.44 43.756V43.516L247.56 43.396V43.516L249.72 43.756 249.84 43.396 250.2 43.636 249.84 43.996 249.48 44.476 249.24 44.236 249.48 43.996 248.28 43.876 248.76 44.476H250.08V44.836H247.32Z" fill-rule="evenodd"/><path transform="matrix(1,0,0,-1,0,595.276)" d="M247.2 41.956H250.32V42.196H248.88V42.796H249.96V43.156H248.88V43.396H249V43.516H248.88 248.52V43.156H247.56V42.796H248.52V42.196H247.2Z" fill-rule="evenodd"/><path transform="matrix(1,0,0,-1,0,595.276)" d="M230.16 44.716V44.476H231.48V41.836H231.84V43.516L232.32 43.276 232.68 42.796 232.92 43.036 232.44 43.516 231.84 43.996V44.476H233.28V44.716Z" fill-rule="evenodd"/><path transform="matrix(1,0,0,-1,0,595.276)" d="M234.48 43.996 234.84 43.756 235.2 44.236H235.92V43.516H234.48V43.156H235.92V41.836H236.28V43.156H237.6V43.516H236.28V44.236H237.36V44.596H235.44L235.56 44.836H235.68V44.956H235.56L235.32 45.076 234.96 44.476Z" fill-rule="evenodd"/><path transform="matrix(1,0,0,-1,0,595.276)" d="M238.8 44.716V41.956H239.16V42.076H241.44V41.956H241.8V44.716H238.8ZM239.16 42.916V44.356H239.76V44.116 43.876 43.636L239.64 43.396V43.276L239.52 43.156 239.4 42.916H239.16ZM240.12 44.356H240.48V42.916L240.36 42.796H240.48L240.6 42.676H240.84 240.96 241.2L241.32 42.916V43.036L241.44 43.396 241.08 43.516V43.156L240.96 43.036H240.84 240.72V43.276 44.356H241.44V42.436H239.16V42.796L239.4 42.556 239.52 42.676 239.64 42.796 239.76 43.036 239.88 43.156 240 43.396V43.516 43.756L240.12 43.996V44.356Z" fill-rule="evenodd"/><path transform="matrix(1,0,0,-1,0,595.276)" d="M244.92 43.876H244.2V43.516H245.4V43.156H244.2V42.916H245.4V42.316 42.196L245.28 42.076H245.16 244.8L244.92 41.836H245.28 245.4L245.64 41.956V42.076L245.76 42.196V42.916H246.24V43.156H245.76V43.516H246.12V43.876H245.28V44.236H246V44.596H245.28V44.836 44.956H245.4 245.28L244.92 45.076V44.596H244.32V44.236H244.92Z" fill-rule="evenodd"/><path transform="matrix(1,0,0,-1,0,595.276)" d="M244.56 42.796 244.44 42.676 244.56 42.436 244.8 42.196 245.04 42.436 244.8 42.676Z" fill-rule="evenodd"/><path transform="matrix(1,0,0,-1,0,595.276)" d="M243 44.716V42.316 42.196H243.36V42.436H243.72V42.316H244.08V44.716H243ZM243.36 43.756V44.356H243.72V43.756H243.36ZM243.36 42.796V43.516H243.72V42.796H243.36Z" fill-rule="evenodd"/></g></svg>