<?xml version='1.0' encoding='UTF-8'?>
<svg width="564.26" height="176.66" viewBox="0.20 47.27 564.26 176.66" xmlns="http://www.w3.org/2000/svg" xmlns:xlink="http://www.w3.org/1999/xlink" xmlns:inkscape="http://www.inkscape.org/namespaces/inkscape" version="1.1"><g transform="scale(10.0) translate(-547.707, -208.800)"><defs><clipPath id="clip_2"><path transform="matrix(1,0,0,-1,0,595.276)" d="M74.4 .196H767.4V595.276H74.4Z"/></clipPath></defs><path transform="matrix(1,0,0,-1,0,595.276)" d="M548.76 365.476V380.356 380.476C548.76 380.596 548.88 380.596 548.88 380.596 548.88 380.716 549 380.716 549 380.716 549.12 380.716 549.12 380.716 549.24 380.716H602.76C602.88 380.716 603 380.716 603.12 380.596 603.12 380.596 603.24 380.476 603.24 380.356V365.476C603.24 365.356 603.12 365.236 603.12 365.236 603 365.116 602.88 364.996 602.76 364.996H549.24C549.12 364.996 549 365.116 548.88 365.236 548.76 365.236 548.76 365.356 548.76 365.476Z" fill="#ffffff" fill-rule="evenodd"/><path transform="matrix(1,0,0,-1,0,595.276)" d="M554.76 374.716V373.636 373.516L554.64 373.396C554.64 373.396 554.52 373.276 554.4 373.276L554.28 373.396C554.16 373.516 554.16 373.516 554.16 373.636V374.716H553.56V373.396C553.56 373.276 553.68 373.156 553.8 373.036 553.92 372.916 554.16 372.796 554.28 372.796 554.4 372.796 554.52 372.796 554.64 372.916H554.76 555.36V374.716H554.76Z" fill-rule="evenodd"/><path transform="matrix(1,0,0,-1,0,595.276)" d="M552.12 375.556C552.36 375.556 552.48 375.556 552.72 375.436 552.84 375.436 552.96 375.316 553.08 375.196L552.72 374.836C552.48 374.956 552.24 375.076 552.12 375.076 551.88 375.076 551.64 374.956 551.64 374.716 551.64 374.716 551.64 374.596 551.76 374.596 551.88 374.596 552 374.476 552.12 374.476 552.84 374.356 553.08 374.116 553.08 373.636 553.08 373.036 552.72 372.796 552 372.796 551.76 372.796 551.52 372.916 551.4 372.916 551.16 373.036 550.92 373.156 550.8 373.276L551.28 373.636C551.52 373.396 551.76 373.276 552 373.276 552.36 373.396 552.48 373.396 552.48 373.636 552.48 373.756 552.24 373.876 551.88 373.996 551.4 373.996 551.16 374.236 551.04 374.716 551.04 375.316 551.4 375.556 552.12 375.556Z" fill-rule="evenodd"/><path transform="matrix(1,0,0,-1,0,595.276)" d="M555.84 372.916H556.32V373.996 374.116C556.44 374.236 556.44 374.356 556.68 374.356 556.92 374.356 556.92 374.236 557.04 374.116V373.996 372.916H557.52V374.236C557.52 374.596 557.28 374.836 556.8 374.836 556.68 374.836 556.56 374.836 556.56 374.836 556.44 374.716 556.44 374.716 556.32 374.716V374.836H555.84V372.916Z" fill-rule="evenodd"/><path transform="matrix(1,0,0,-1,0,595.276)" d="M562.08 374.716H562.68L563.04 373.636 563.4 374.716H563.88L563.16 372.556C563.16 372.556 563.16 372.436 563.04 372.316L562.92 372.196C562.8 372.196 562.68 372.316 562.56 372.316 562.44 372.316 562.32 372.316 562.2 372.316L562.32 372.796C562.44 372.796 562.56 372.676 562.68 372.796 562.8 372.796 562.68 372.916 562.68 372.916V373.036L562.08 374.716Z" fill-rule="evenodd"/><path transform="matrix(1,0,0,-1,0,595.276)" d="M564.72 374.236V374.236Z" fill-rule="evenodd"/><path transform="matrix(1,0,0,-1,0,595.276)" d="M564.72 374.236V374.236C564.72 374.356 564.84 374.356 564.96 374.476 565.08 374.476 565.2 374.356 565.2 374.356 565.32 374.356 565.32 374.236 565.44 374.236L565.68 374.596C565.56 374.716 565.32 374.836 564.96 374.836 564.48 374.836 564.24 374.596 564.24 374.236 564.24 373.876 564.36 373.756 564.72 373.636 565.08 373.636 565.2 373.516 565.2 373.396H565.08C565.08 373.276 565.08 373.276 564.96 373.276 564.84 373.276 564.72 373.276 564.72 373.396 564.6 373.396 564.48 373.516 564.48 373.516L564.12 373.156C564.24 372.916 564.6 372.796 564.96 372.796 565.44 372.796 565.68 373.036 565.68 373.516 565.8 373.876 565.56 373.996 565.08 374.116 564.96 374.116 564.84 374.116 564.84 374.116L564.72 374.236Z" fill-rule="evenodd"/><path transform="matrix(1,0,0,-1,0,595.276)" d="M558.84 372.796C558.96 372.796 559.2 372.916 559.2 372.916H559.8V375.436H559.2V374.716C559.08 374.836 558.84 374.836 558.72 374.836 558.36 374.836 558 374.476 557.88 373.996V373.756C558 373.156 558.36 372.796 558.84 372.796ZM558.84 373.276C558.6 373.276 558.48 373.516 558.48 373.876 558.48 374.116 558.6 374.356 558.84 374.356 558.96 374.356 559.08 374.236 559.2 374.236V374.116 373.996 373.516C559.2 373.396 559.2 373.396 559.08 373.396 559.08 373.276 558.96 373.276 558.84 373.276Z" fill-rule="evenodd"/><path transform="matrix(1,0,0,-1,0,595.276)" d="M561.24 374.116C560.52 374.116 560.04 373.876 560.04 373.516 560.04 373.276 560.16 373.156 560.28 373.036 560.4 372.916 560.64 372.796 560.88 372.796 561 372.796 561.24 372.916 561.36 373.036 561.36 372.916 561.36 372.916 561.48 372.916 561.6 372.796 561.6 372.796 561.84 372.796L561.96 373.276H561.84C561.72 373.276 561.72 373.276 561.72 373.396V374.356C561.72 374.716 561.48 374.836 561 374.836 560.76 374.836 560.64 374.836 560.52 374.836 560.4 374.716 560.28 374.716 560.16 374.596L560.4 374.236C560.52 374.356 560.76 374.356 561 374.356H561.12V374.236H561.24V374.116ZM560.64 373.516C560.64 373.516 560.64 373.636 560.76 373.636 560.88 373.636 561 373.756 561.24 373.756V373.396C561.12 373.276 561.12 373.276 560.88 373.276H560.76C560.64 373.396 560.64 373.396 560.64 373.516Z" fill-rule="evenodd"/><path transform="matrix(1,0,0,-1,0,595.276)" d="M570.84 378.676H571.92V379.156H570.24V376.636H572.04V377.116H570.84V377.596H571.8V378.196H570.84Z" fill-rule="evenodd"/><path transform="matrix(1,0,0,-1,0,595.276)" d="M572.52 376.636 573.12 377.596 572.52 378.436H573.12L573.36 377.956 573.6 378.436H574.2L573.72 377.596 574.32 376.636H573.72L573.36 377.116 573 376.636Z" fill-rule="evenodd"/><path transform="matrix(1,0,0,-1,0,595.276)" d="M580.92 378.436V379.036L581.52 379.156V378.436H582V377.956H581.52V377.236C581.52 377.116 581.52 377.116 581.52 376.996H581.64 581.76C581.88 376.996 581.88 376.996 582 376.996V376.636C581.88 376.516 581.76 376.516 581.52 376.516 581.28 376.516 581.16 376.516 581.16 376.636 581.04 376.756 581.04 376.876 580.92 376.996V377.956H580.68V378.436H580.92Z" fill-rule="evenodd"/><path transform="matrix(1,0,0,-1,0,595.276)" d="M575.88 377.716C575.76 377.956 575.64 378.076 575.4 378.076 575.16 378.076 575.04 377.956 575.04 377.596V377.476 377.356C575.16 377.116 575.28 376.996 575.4 376.996 575.52 376.996 575.64 376.996 575.64 376.996 575.76 377.116 575.76 377.236 575.88 377.356L576.24 377.116C576.12 376.756 575.88 376.516 575.52 376.516 574.8 376.516 574.56 376.876 574.56 377.476 574.56 378.196 574.92 378.556 575.4 378.556 575.64 378.556 575.76 378.436 576 378.436 576.12 378.316 576.24 378.196 576.24 377.956L575.88 377.716Z" fill-rule="evenodd"/><path transform="matrix(1,0,0,-1,0,595.276)" d="M578.64 378.436H579.12C579.12 378.436 579.36 378.556 579.6 378.556 580.08 378.556 580.44 378.196 580.44 377.596 580.44 377.236 580.32 376.996 580.2 376.756 580.08 376.636 579.84 376.516 579.6 376.516 579.36 376.516 579.12 376.636 579.12 376.636V375.916H578.64V378.436ZM579.12 377.356C579.12 377.116 579.36 376.996 579.48 376.996 579.6 376.996 579.84 377.116 579.84 377.236L579.96 377.356V377.716L579.84 377.836C579.84 377.956 579.6 378.076 579.48 378.076 579.24 378.076 579.12 377.956 579.12 377.836V377.356Z" fill-rule="evenodd"/><path transform="matrix(1,0,0,-1,0,595.276)" d="M577.8 377.116C577.8 376.996 577.56 376.996 577.44 376.996 577.32 376.996 577.2 376.996 577.2 377.116 577.08 377.116 577.08 377.116 577.08 377.236V377.356H578.16C578.28 378.076 577.92 378.556 577.32 378.556 576.84 378.556 576.6 378.196 576.48 377.596 576.48 377.236 576.6 376.996 576.72 376.876 576.84 376.636 577.2 376.516 577.44 376.516 577.8 376.516 578.04 376.636 578.16 376.876L577.8 377.116ZM576.96 377.716V377.716C576.96 377.836 577.08 377.956 577.08 377.956 577.2 378.076 577.32 378.076 577.32 378.076 577.56 378.076 577.68 377.956 577.68 377.836V377.716H576.96Z" fill-rule="evenodd"/><path transform="matrix(1,0,0,-1,0,595.276)" d="M567.96 374.116C567.12 374.116 566.76 373.876 566.76 373.516 566.76 373.036 567.12 372.796 567.6 372.796 567.72 372.796 567.96 372.916 568.08 373.036 568.08 372.916 568.08 372.916 568.2 372.916 568.32 372.796 568.32 372.796 568.56 372.796L568.68 373.276H568.56C568.44 373.276 568.44 373.276 568.44 373.396V374.356C568.44 374.716 568.2 374.836 567.72 374.836 567.48 374.836 567.36 374.836 567.24 374.836 567.12 374.716 567 374.716 566.88 374.596L567.12 374.236C567.24 374.356 567.48 374.356 567.72 374.356H567.84V374.236H567.96V374.116ZM567.36 373.516C567.36 373.516 567.36 373.636 567.48 373.636 567.6 373.636 567.72 373.756 567.96 373.756V373.396C567.84 373.276 567.84 373.276 567.6 373.276H567.48C567.36 373.396 567.36 373.396 567.36 373.516Z" fill-rule="evenodd"/><path transform="matrix(1,0,0,-1,0,595.276)" d="M568.92 372.916H569.52V373.996 374.116C569.52 374.236 569.64 374.356 569.88 374.356 570 374.356 570.12 374.236 570.12 374.116V373.996 372.916H570.72V374.236C570.6 374.596 570.36 374.836 569.88 374.836 569.88 374.836 569.76 374.836 569.64 374.836 569.64 374.716 569.52 374.716 569.52 374.716V374.836H568.92V372.916Z" fill-rule="evenodd"/><path transform="matrix(1,0,0,-1,0,595.276)" d="M571.92 372.796C572.16 372.796 572.28 372.916 572.4 372.916H572.88V375.436H572.4V374.716C572.16 374.836 572.04 374.836 571.92 374.836 571.44 374.836 571.08 374.476 571.08 373.996V373.756C571.2 373.156 571.56 372.796 571.92 372.796ZM572.04 373.276C571.68 373.276 571.56 373.516 571.56 373.876 571.56 374.116 571.8 374.356 572.04 374.356 572.16 374.356 572.28 374.236 572.28 374.236 572.4 374.236 572.4 374.116 572.4 374.116V373.996 373.516C572.4 373.396 572.28 373.396 572.28 373.396 572.16 373.276 572.16 373.276 572.04 373.276Z" fill-rule="evenodd"/><path transform="matrix(1,0,0,-1,0,595.276)" d="M575.04 373.876H575.76 575.88C576.24 373.876 576.48 374.236 576.48 374.716 576.48 375.076 576.24 375.436 575.88 375.436H575.76 574.56V372.916H575.04V373.876ZM575.04 374.356V375.076H575.64C575.76 374.956 575.88 374.836 575.88 374.716 575.88 374.476 575.76 374.356 575.64 374.356H575.04Z" fill-rule="evenodd"/><path transform="matrix(1,0,0,-1,0,595.276)" d="M578.04 374.716V373.636C578.04 373.636 577.92 373.516 577.92 373.396 577.8 373.396 577.68 373.276 577.68 373.276 577.56 373.276 577.44 373.396 577.44 373.396L577.32 373.516V373.636 374.716H576.84V373.396C576.84 373.396 576.84 373.276 576.84 373.156L576.96 373.036C577.2 372.916 577.32 372.796 577.56 372.796 577.56 372.796 577.68 372.796 577.8 372.916H577.92 578.52V374.716H578.04Z" fill-rule="evenodd"/><path transform="matrix(1,0,0,-1,0,595.276)" d="M584.64 374.116C584.64 374.236 584.52 374.356 584.28 374.356 584.04 374.356 583.92 374.236 583.92 373.996V373.876 373.756 373.636C583.92 373.396 584.04 373.276 584.28 373.276 584.4 373.276 584.52 373.276 584.52 373.396 584.64 373.396 584.64 373.516 584.64 373.636L585.12 373.396C585 373.036 584.76 372.796 584.28 372.796 583.68 372.796 583.44 373.156 583.32 373.876 583.44 374.476 583.68 374.836 584.28 374.836 584.52 374.836 584.64 374.836 584.76 374.716 584.88 374.596 585 374.476 585.12 374.236L584.64 374.116Z" fill-rule="evenodd"/><path transform="matrix(1,0,0,-1,0,595.276)" d="M582.48 374.716V372.916H582.96V374.716Z" fill-rule="evenodd"/><path transform="matrix(1,0,0,-1,0,595.276)" d="M581.76 375.436V373.516 373.396C581.76 373.276 581.88 373.276 582.12 373.396V372.916H582C581.88 372.916 581.88 372.916 581.76 372.916 581.52 372.916 581.28 373.036 581.28 373.156V373.276 375.436H581.76Z" fill-rule="evenodd"/><path transform="matrix(1,0,0,-1,0,595.276)" d="M579 372.916H579.6C579.72 372.916 579.84 372.796 580.08 372.796 580.32 372.796 580.56 372.916 580.68 373.036 580.8 373.276 580.92 373.516 580.92 373.756 580.92 374.476 580.56 374.836 580.08 374.836 579.84 374.836 579.72 374.716 579.48 374.716V375.436H579V372.916ZM579.96 374.356C580.2 374.356 580.44 374.116 580.44 373.756 580.32 373.516 580.2 373.276 579.96 373.276 579.84 373.276 579.72 373.276 579.72 373.396 579.6 373.396 579.6 373.516 579.6 373.516V374.116C579.6 374.236 579.84 374.356 579.96 374.356Z" fill-rule="evenodd"/><path transform="matrix(1,0,0,-1,0,595.276)" d="M583.08 375.196C583.08 375.436 582.84 375.556 582.72 375.556 582.6 375.556 582.48 375.436 582.48 375.196 582.48 375.076 582.6 374.956 582.72 374.956 582.84 374.956 583.08 375.076 583.08 375.196Z" fill-rule="evenodd"/><path transform="matrix(1,0,0,-1,0,595.276)" d="M592.44 374.716V372.916H592.92V374.716Z" fill-rule="evenodd"/><path transform="matrix(1,0,0,-1,0,595.276)" d="M591.72 375.436V373.516 373.396C591.72 373.276 591.84 373.276 591.96 373.396L592.08 372.916H591.96C591.84 372.916 591.72 372.916 591.72 372.916 591.36 372.916 591.24 373.036 591.12 373.156V373.276 375.436H591.72Z" fill-rule="evenodd"/><path transform="matrix(1,0,0,-1,0,595.276)" d="M592.92 375.196C592.92 375.436 592.8 375.556 592.68 375.556 592.44 375.556 592.32 375.436 592.32 375.196 592.32 375.076 592.44 374.956 592.68 374.956 592.8 374.956 592.92 375.076 592.92 375.196Z" fill-rule="evenodd"/><path transform="matrix(1,0,0,-1,0,595.276)" d="M597.48 374.716H598.08L598.32 373.636 598.68 374.716H599.28L598.56 372.556C598.56 372.556 598.44 372.436 598.44 372.316 598.32 372.316 598.32 372.196 598.2 372.196 598.08 372.196 597.96 372.316 597.96 372.316 597.84 372.316 597.72 372.316 597.6 372.316L597.72 372.796C597.72 372.796 597.84 372.676 597.96 372.796H598.08V372.916 373.036L597.48 374.716Z" fill-rule="evenodd"/><path transform="matrix(1,0,0,-1,0,595.276)" d="M600.12 374.236V374.236Z" fill-rule="evenodd"/><path transform="matrix(1,0,0,-1,0,595.276)" d="M600.12 374.236V374.236C600.12 374.356 600.12 374.356 600.36 374.476 600.48 374.476 600.48 374.356 600.6 374.356L600.72 374.236 601.08 374.596C600.96 374.716 600.72 374.836 600.36 374.836 599.88 374.836 599.52 374.596 599.52 374.236 599.52 373.876 599.76 373.756 600.12 373.636 600.36 373.636 600.48 373.516 600.48 373.396 600.48 373.276 600.36 373.276 600.36 373.276 600.24 373.276 600.12 373.276 600 373.396 599.88 373.396 599.88 373.516 599.76 373.516L599.4 373.156C599.64 372.916 599.88 372.796 600.24 372.796 600.84 372.796 601.08 373.036 601.08 373.516 601.08 373.876 600.84 373.996 600.48 374.116 600.36 374.116 600.24 374.116 600.12 374.116V374.236Z" fill-rule="evenodd"/><path transform="matrix(1,0,0,-1,0,595.276)" d="M594.12 372.796C594.36 372.796 594.48 372.916 594.6 372.916H595.08V375.436H594.6V374.716C594.36 374.836 594.24 374.836 594.12 374.836 593.64 374.836 593.28 374.476 593.28 373.996V373.756C593.4 373.156 593.76 372.796 594.12 372.796ZM594.24 373.276C593.88 373.276 593.76 373.516 593.76 373.876 593.76 374.116 594 374.356 594.24 374.356 594.36 374.356 594.48 374.236 594.48 374.236L594.6 374.116V373.996 373.516C594.6 373.396 594.48 373.396 594.48 373.396 594.36 373.276 594.24 373.276 594.24 373.276Z" fill-rule="evenodd"/><path transform="matrix(1,0,0,-1,0,595.276)" d="M596.52 374.116C596.16 374.116 595.92 374.116 595.68 373.996 595.56 373.876 595.44 373.756 595.44 373.516 595.44 373.036 595.68 372.796 596.16 372.796 596.4 372.796 596.64 372.916 596.64 373.036 596.64 372.916 596.76 372.916 596.76 372.916 596.88 372.796 597 372.796 597.12 372.796L597.24 373.276H597.12V373.396 374.356C597 374.716 596.76 374.836 596.28 374.836 596.16 374.836 595.92 374.836 595.8 374.836 595.68 374.716 595.56 374.716 595.44 374.596L595.68 374.236C595.92 374.356 596.04 374.356 596.28 374.356 596.4 374.356 596.4 374.356 596.52 374.356V374.236 374.116ZM596.04 373.516C596.04 373.516 596.04 373.636 596.16 373.636 596.28 373.636 596.4 373.756 596.52 373.756V373.396C596.52 373.276 596.4 373.276 596.28 373.276 596.16 373.276 596.16 373.276 596.04 373.276 596.04 373.396 596.04 373.396 596.04 373.516Z" fill-rule="evenodd"/><path transform="matrix(1,0,0,-1,0,595.276)" d="M587.88 373.996H587.4 586.8V372.916H586.32V375.436H586.8V374.476H587.4 587.88V375.436H588.48V372.916H587.88Z" fill-rule="evenodd"/><path transform="matrix(1,0,0,-1,0,595.276)" d="M588.96 373.876C588.96 373.516 589.08 373.276 589.2 373.036 589.44 372.916 589.68 372.796 589.92 372.796 590.16 372.796 590.4 372.916 590.64 373.036 590.76 373.276 590.88 373.516 590.88 373.876 590.88 374.476 590.52 374.836 589.92 374.836 589.32 374.836 588.96 374.476 588.96 373.876ZM589.56 373.876C589.56 374.116 589.68 374.356 589.92 374.356 590.16 374.356 590.28 374.116 590.28 373.876 590.28 373.636 590.28 373.516 590.16 373.516 590.16 373.396 590.04 373.276 589.92 373.276 589.68 373.276 589.56 373.516 589.56 373.876Z" fill-rule="evenodd"/><path transform="matrix(1,0,0,-1,0,595.276)" d="M549.24 381.196H602.76 602.64C602.88 381.196 603.24 381.076 603.36 380.956 603.6 380.716 603.6 380.476 603.6 380.236V365.596C603.6 365.356 603.6 365.116 603.36 364.876 603.24 364.636 602.88 364.636 602.64 364.636H602.76 549.24C549 364.636 548.76 364.636 548.64 364.876 548.4 365.116 548.28 365.356 548.28 365.596V380.236C548.28 380.476 548.4 380.716 548.64 380.956 548.76 381.076 549 381.196 549.24 381.196ZM549.24 380.716V380.716C549.12 380.716 549.12 380.716 549 380.716 549 380.716 548.88 380.716 548.88 380.596 548.88 380.596 548.76 380.596 548.76 380.476V380.356 365.476C548.76 365.356 548.76 365.236 548.88 365.236 549 365.116 549.12 364.996 549.24 364.996H602.76C602.88 364.996 603 365.116 603.12 365.236 603.12 365.236 603.24 365.356 603.24 365.476V380.356 380.476L603.12 380.596C603 380.716 602.88 380.716 602.76 380.716H549.24Z" fill-rule="evenodd"/><path transform="matrix(1,0,0,-1,0,595.276)" d="M600 368.836V367.156H599.76V368.956L599.16 369.556 599.4 369.676 599.76 369.316V370.996H599.88 600V370.876 369.076L600.36 368.836 600.84 368.596 600.72 368.356 600.36 368.596Z" fill-rule="evenodd"/><path transform="matrix(1,0,0,-1,0,595.276)" d="M594.96 370.156V367.996H594.72V370.396H594.96V370.276Z" fill-rule="evenodd"/><path transform="matrix(1,0,0,-1,0,595.276)" d="M595.32 370.876V367.636 367.516L595.2 367.396H594.96 594.84V367.276 367.156H594.96 595.32 595.44L595.56 367.276V367.396 367.516 370.756H595.68V370.876H595.56Z" fill-rule="evenodd"/><path transform="matrix(1,0,0,-1,0,595.276)" d="M592.56 370.036V367.156H592.32V369.436L592.08 369.076V368.956L591.96 369.076 591.84 369.196 592.08 369.556 592.32 370.036 592.44 370.516 592.68 370.996 592.92 370.876 593.04 370.756H592.92Z" fill-rule="evenodd"/><path transform="matrix(1,0,0,-1,0,595.276)" d="M593.4 368.836 594 368.716V369.076L594.12 369.556H593.52L593.4 369.076 593.16 368.716 593.04 368.596V368.716H592.8L593.04 369.076 593.16 369.436 593.28 369.916 593.4 370.396H593.16V370.636H594.48V370.396H593.76L593.64 369.796H594.36V369.196L594.24 368.596 594.12 368.236 594 367.876 593.76 367.636 593.64 367.396 593.4 367.156H593.28L593.16 367.276V367.396L593.4 367.636 593.64 367.876 593.76 368.116 593.88 368.356 593.28 368.716Z" fill-rule="evenodd"/><path transform="matrix(1,0,0,-1,0,595.276)" d="M588.36 367.516 588.24 367.876 588.36 367.996 588.72 367.636 588.84 367.396 588.6 367.156Z" fill-rule="evenodd"/><path transform="matrix(1,0,0,-1,0,595.276)" d="M587.16 367.156 587.4 367.396 587.64 367.876H587.76V367.996H587.52V368.116L587.16 367.636 586.92 367.276Z" fill-rule="evenodd"/><path transform="matrix(1,0,0,-1,0,595.276)" d="M585.12 369.676H584.28V369.556H585.36V370.876H584.28V370.636H585.12Z" fill-rule="evenodd"/><path transform="matrix(1,0,0,-1,0,595.276)" d="M582.12 369.556V367.156H582.36V370.156L582.72 370.876H582.84V370.996H582.72L582.48 371.116 582.24 370.636 582.12 370.156 581.88 369.676 581.52 369.196 581.76 368.956Z" fill-rule="evenodd"/><path transform="matrix(1,0,0,-1,0,595.276)" d="M580.2 367.516 579.96 367.756 579.84 367.876 579.6 368.116 580.2 368.596H580.32L580.08 368.836 579.84 368.476 579.6 368.356 579.36 368.716V369.076H579.12L579.24 368.476 579.36 367.996 579.6 367.756 579.72 367.636 579.96 367.396 580.2 367.276 580.32 367.156 580.44 367.276V367.396Z" fill-rule="evenodd"/><path transform="matrix(1,0,0,-1,0,595.276)" d="M576.84 367.156 577.44 367.516 577.92 367.996H578.04L577.92 368.116 577.8 368.236 577.2 367.756 576.6 367.396Z" fill-rule="evenodd"/><path transform="matrix(1,0,0,-1,0,595.276)" d="M572.76 367.756 574.56 367.996 574.2 368.596 574.32 368.836 574.92 368.116 575.28 367.396 575.16 367.276 574.8 367.756 572.16 367.396 572.04 367.276V367.396H571.92V367.756H572.4L573.36 369.796 573.6 369.676H573.72V369.556H573.6Z" fill-rule="evenodd"/><path transform="matrix(1,0,0,-1,0,595.276)" d="M572.52 370.396 572.28 369.916 571.92 369.556 571.56 369.076H571.8L572.16 369.316 572.4 369.796 572.64 370.156 572.88 370.636H573V370.756H572.88L572.64 370.876Z" fill-rule="evenodd"/><path transform="matrix(1,0,0,-1,0,595.276)" d="M574.2 370.756 574.32 370.276 574.56 369.796 574.8 369.436 575.16 369.076H575.28L575.4 369.196V369.316L575.04 369.556 574.8 370.036 574.56 370.396 574.44 370.996H573.48V370.756Z" fill-rule="evenodd"/><path transform="matrix(1,0,0,-1,0,595.276)" d="M557.64 367.876 557.88 367.516 558.12 367.156 558.36 367.396 558.12 367.636 557.88 367.996Z" fill-rule="evenodd"/><path transform="matrix(1,0,0,-1,0,595.276)" d="M556.56 367.156 556.92 367.396 557.16 367.876H557.28L557.16 367.996H557.04V368.116L556.68 367.636 556.32 367.276Z" fill-rule="evenodd"/><path transform="matrix(1,0,0,-1,0,595.276)" d="M551.28 367.276H555V367.396 367.516H553.32V367.876 367.996H554.52V368.116H553.32V368.236 368.596 368.716H554.64V368.836 368.956H553.32V369.196 369.316H553.2 553.08V368.956H552.96 552L552.12 369.196V369.316H551.88L551.64 368.836 551.28 368.356V368.236H551.4 551.52L551.88 368.716H552.96L553.08 368.596V368.236L552.96 368.116H551.88V367.996H552.96L553.08 367.876V367.516H552.96 551.28L551.16 367.396V367.276Z" fill-rule="evenodd"/><path transform="matrix(1,0,0,-1,0,595.276)" d="M554.4 370.876V369.436H551.76V370.876H554.4ZM552 369.676H554.16V370.036H552V369.676ZM552 370.276H554.16V370.636H552V370.276Z" fill-rule="evenodd"/><path transform="matrix(1,0,0,-1,0,595.276)" d="M556.32 368.116H558.48 558.6V368.356H558.48 558.24 558.12V370.276H558.24 558.6V370.396L558.48 370.516H558.24 558.12V370.876H558.24V370.996H558.12 557.88V370.516H557.16 557.04V370.876H557.16V370.996H557.04 556.8V370.516H556.44L556.32 370.396V370.276H556.44 556.8V368.356H556.32V368.116ZM557.88 368.836V368.836 368.356H557.16 557.04V368.836H557.16 557.88ZM557.16 369.076H557.04V369.556H557.16 557.88V369.076H557.16ZM557.88 370.276V369.796H557.16 557.04V370.276H557.16 557.88Z" fill-rule="evenodd"/><path transform="matrix(1,0,0,-1,0,595.276)" d="M560.16 370.876V367.756L560.04 367.636V367.396L559.92 367.276V367.156H559.44L559.32 367.276V367.396H559.44 559.68L559.8 367.516V367.636 367.756 368.476H559.08L558.96 367.756 558.72 367.156 558.48 367.276V367.396L558.72 367.996 558.84 368.716V369.796 370.876H560.16ZM559.08 368.716H559.8V369.676H559.08V368.716ZM559.8 370.636H559.08V369.796H559.8V370.636Z" fill-rule="evenodd"/><path transform="matrix(1,0,0,-1,0,595.276)" d="M564.48 367.156H564.24V367.516H562.2V367.276H561.84V370.996H564.48V367.156ZM562.2 369.196V367.756H564.24V369.196H562.2ZM562.2 369.436H564.24V370.756H562.2V369.436Z" fill-rule="evenodd"/><path transform="matrix(1,0,0,-1,0,595.276)" d="M569.04 367.756 569.52 367.516 570.12 367.276 570.24 367.396V367.516L569.76 367.756 569.28 367.996 569.52 368.356 569.64 368.716 569.88 369.076 570 369.436V369.556 369.676L569.88 369.796H569.16L569.64 370.756V370.876H569.52 566.76V370.756H567.6V369.916L567.48 369.196 567.36 368.716 567.12 368.236 566.76 367.876 566.4 367.516V367.396L566.52 367.276H566.64L567 367.636 567.36 368.116 567.6 368.596 567.84 369.076 568.32 368.476 568.8 367.996 568.32 367.636 567.72 367.396 567.84 367.276 568.44 367.516 569.04 367.756ZM568.2 369.196 567.96 369.676V370.756H569.4L568.68 369.436 568.92 369.316 569.04 369.556H569.76L569.64 369.076 569.4 368.716 569.28 368.476 569.04 368.116 568.68 368.476 568.44 368.836 568.2 369.196Z" fill-rule="evenodd"/><path transform="matrix(1,0,0,-1,0,595.276)" d="M578.64 367.036V368.836L579.12 369.316H580.44V369.556H579.96V370.636H578.52L578.64 370.876H578.76V370.996L578.52 371.116 578.16 370.636H577.08V369.556H576.72V369.316H577.92L577.44 368.956 576.84 368.596 576.96 368.356 577.68 368.836 578.16 369.316H578.76L578.52 369.076 578.28 368.836 578.04 368.596 577.68 368.476 577.92 368.236 578.4 368.596V367.036H578.64ZM579.12 370.396H579.72V369.556H579.12V370.396ZM578.88 370.396V369.556H578.28V370.396H578.88ZM578.04 370.396V369.556H577.32V370.396H578.04Z" fill-rule="evenodd"/><path transform="matrix(1,0,0,-1,0,595.276)" d="M583.08 368.116V368.716H584.04V368.956H583.08V369.556H584.04V370.876H582.84V367.156H583.08V367.876H584.04V368.116H583.08ZM583.8 370.636V369.796H583.08V370.636H583.8Z" fill-rule="evenodd"/><path transform="matrix(1,0,0,-1,0,595.276)" d="M585.6 367.396 585.24 367.636 585 367.756 585.24 368.236 585.48 368.836V368.956 369.076H585.36 585.24 584.16V368.836H584.28V368.596L584.4 368.356 584.52 367.996 584.64 367.756 584.28 367.516 584.04 367.396H583.92L584.04 367.276 584.16 367.156 584.28 367.276 584.52 367.396 584.76 367.636 585.12 367.396 585.36 367.156H585.48L585.6 367.396ZM585.12 368.836 585 368.356 584.88 367.996 584.64 368.356 584.52 368.836H585.12Z" fill-rule="evenodd"/><path transform="matrix(1,0,0,-1,0,595.276)" d="M590.4 367.756V367.636L590.28 367.516V367.396H590.16 589.92 589.8L589.92 367.276V367.156H590.04 590.4L590.52 367.276 590.64 367.396V367.636 367.756 370.876H589.32V369.796 368.716L589.2 367.996 589.08 367.396V367.276L589.2 367.156H589.32L589.44 367.756 589.56 368.476H590.4V367.756ZM590.4 368.716H589.68V369.676H590.4V368.716ZM590.4 370.636V369.796H589.68V370.636H590.4Z" fill-rule="evenodd"/><path transform="matrix(1,0,0,-1,0,595.276)" d="M588.72 370.276V368.356H589.08V368.116H586.8V368.356H587.28 587.4V370.276H587.28 586.92V370.396 370.516H587.28 587.4V370.996H587.64 587.76L587.64 370.876V370.516H588.36 588.48V370.996H588.72V370.876 370.516H589.08V370.396 370.276H588.72ZM588.36 368.836H587.64V368.356H588.36 588.48V368.836H588.36ZM588.36 369.076H588.48V369.556H588.36 587.64V369.076H588.36ZM587.64 370.276V370.276 369.796H588.36 588.48V370.276H588.36 587.64Z" fill-rule="evenodd"/><path transform="matrix(1,0,0,-1,0,595.276)" d="M597.72 367.876 597.36 367.516 597 367.276 597.24 367.156 597.6 367.396 597.96 367.756 598.32 368.116 598.56 368.476 598.8 369.196 599.04 370.036V370.276L598.92 370.396H598.8 598.08L598.2 370.876H598.32L598.2 370.996H597.96L597.72 370.396 597.6 369.916 597.24 369.436 597 368.956 597.24 368.836 597.48 369.196 598.32 368.716 598.08 368.236 597.72 367.876ZM597.96 370.156H598.8L598.56 369.436 598.44 368.956 597.6 369.436 597.96 370.156Z" fill-rule="evenodd"/></g></svg>