<?xml version='1.0' encoding='UTF-8'?>
<svg width="554.47" height="218.47" viewBox="7.25 25.52 554.47 218.47" xmlns="http://www.w3.org/2000/svg" xmlns:xlink="http://www.w3.org/1999/xlink" xmlns:inkscape="http://www.inkscape.org/namespaces/inkscape" version="1.1"><g transform="scale(10.0) translate(-111.171, -558.864)"><defs><clipPath id="clip_2"><path transform="matrix(1,0,0,-1,0,595.276)" d="M74.4 .196H767.4V595.276H74.4Z"/></clipPath></defs><path transform="matrix(1,0,0,-1,0,595.276)" d="M113.4 33.316H165.72C165.96 33.316 166.32 33.196 166.44 32.956 166.68 32.836 166.8 32.476 166.8 32.236V13.636C166.8 13.516 166.8 13.396 166.68 13.276 166.68 13.156 166.56 13.036 166.44 12.916 166.32 12.796 166.2 12.676 166.08 12.676 165.96 12.556 165.84 12.556 165.72 12.556H113.4C113.16 12.556 112.92 12.676 112.68 12.916 112.56 13.156 112.44 13.396 112.44 13.636V32.236C112.44 32.476 112.56 32.836 112.68 32.956 112.8 33.076 112.92 33.196 113.04 33.196 113.16 33.316 113.28 33.316 113.4 33.316ZM113.4 32.836C113.16 32.836 112.92 32.596 112.92 32.236V13.636C112.92 13.516 112.92 13.516 112.92 13.396 113.04 13.396 113.04 13.276 113.04 13.276 113.16 13.156 113.28 13.156 113.4 13.156H165.72C165.84 13.156 165.96 13.156 166.08 13.276 166.2 13.396 166.2 13.516 166.2 13.636V32.236C166.2 32.356 166.2 32.356 166.2 32.476 166.2 32.476 166.2 32.596 166.08 32.596 165.96 32.716 165.84 32.836 165.72 32.836H113.4Z" fill-rule="evenodd"/><path transform="matrix(1,0,0,-1,0,595.276)" d="M113.4 32.836H165.72C165.84 32.836 165.84 32.716 165.96 32.716 165.96 32.716 166.08 32.716 166.08 32.596 166.2 32.596 166.2 32.476 166.2 32.476 166.2 32.356 166.2 32.356 166.2 32.236V13.636C166.2 13.516 166.2 13.396 166.08 13.276 165.96 13.156 165.84 13.156 165.72 13.156H113.4C113.28 13.156 113.16 13.156 113.04 13.276 113.04 13.276 113.04 13.396 112.92 13.396 112.92 13.516 112.92 13.516 112.92 13.636V32.236C112.92 32.596 113.16 32.836 113.4 32.836Z" fill="#ffffff" fill-rule="evenodd"/><path transform="matrix(1,0,0,-1,0,595.276)" d="M123.96 29.356C123.96 30.076 123.6 30.556 123 30.556 122.28 30.556 121.92 30.076 121.92 29.356 121.92 28.636 122.28 28.276 123 28.276 123.24 28.276 123.6 28.276 123.72 28.516 123.96 28.756 123.96 28.996 123.96 29.356ZM123.36 29.356C123.36 28.996 123.24 28.756 123 28.756 122.76 28.756 122.52 28.996 122.52 29.356 122.52 29.716 122.76 29.956 123 29.956 123.24 29.956 123.36 29.716 123.36 29.356Z" fill-rule="evenodd"/><path transform="matrix(1,0,0,-1,0,595.276)" d="M126.36 28.276V29.716 29.836C126.36 30.316 126 30.556 125.52 30.556 125.4 30.556 125.28 30.436 125.16 30.436L125.04 30.316V30.436H124.44V28.276H125.04V29.596C125.04 29.836 125.16 29.956 125.4 29.956 125.64 29.956 125.76 29.836 125.76 29.596V28.276H126.36Z" fill-rule="evenodd"/><path transform="matrix(1,0,0,-1,0,595.276)" d="M135.36 28.636 135.24 28.276C135 28.276 134.88 28.276 134.88 28.276 134.76 28.276 134.64 28.396 134.64 28.516 134.64 28.396 134.4 28.276 134.16 28.276 133.56 28.276 133.32 28.516 133.32 28.996 133.32 29.476 133.68 29.716 134.52 29.716V29.836 29.956C134.4 29.956 134.4 29.956 134.28 29.956 134.16 29.956 134.04 29.956 133.92 29.956 133.8 29.956 133.68 29.836 133.68 29.716L133.32 30.196C133.56 30.436 133.92 30.556 134.28 30.556 134.52 30.556 134.76 30.436 134.88 30.316 135 30.316 135.12 30.076 135.12 29.956V28.876C135.12 28.756 135.24 28.636 135.36 28.636ZM133.92 28.996C133.92 28.876 133.92 28.876 134.04 28.756 134.04 28.756 134.16 28.756 134.28 28.756 134.4 28.756 134.52 28.756 134.52 28.876V29.236C134.28 29.236 134.16 29.236 134.04 29.116 133.92 29.116 133.92 28.996 133.92 28.996Z" fill-rule="evenodd"/><path transform="matrix(1,0,0,-1,0,595.276)" d="M136.44 30.436H137.04V29.956H136.44V28.996C136.44 28.876 136.44 28.876 136.56 28.876 136.56 28.756 136.56 28.756 136.68 28.756H136.8C136.8 28.756 136.92 28.756 137.04 28.756V28.276C136.92 28.276 136.8 28.156 136.44 28.156 136.32 28.276 136.2 28.276 136.08 28.396 135.96 28.396 135.96 28.636 135.84 28.756V29.956H135.6V30.436H135.84V31.036L136.44 31.276V30.436Z" fill-rule="evenodd"/><path transform="matrix(1,0,0,-1,0,595.276)" d="M144.12 28.636 144 28.276C143.88 28.276 143.76 28.276 143.64 28.276 143.52 28.276 143.52 28.396 143.4 28.516 143.4 28.396 143.16 28.276 142.92 28.276 142.44 28.276 142.08 28.516 142.08 28.996 142.08 29.476 142.56 29.716 143.28 29.716 143.28 29.836 143.28 29.956 143.28 29.956 143.28 29.956 143.16 29.956 143.04 29.956 142.92 29.956 142.8 29.956 142.68 29.956 142.56 29.956 142.56 29.836 142.44 29.716L142.2 30.196C142.32 30.436 142.68 30.556 143.04 30.556 143.28 30.556 143.52 30.436 143.64 30.316 143.88 30.316 143.88 30.076 144 29.956V28.876C144 28.756 144 28.636 144.12 28.636ZM142.68 28.996C142.68 28.876 142.68 28.876 142.8 28.756 142.8 28.756 142.92 28.756 143.04 28.756 143.16 28.756 143.28 28.756 143.28 28.876V29.236C143.16 29.236 142.92 29.236 142.92 29.116 142.8 29.116 142.68 28.996 142.68 28.996Z" fill-rule="evenodd"/><path transform="matrix(1,0,0,-1,0,595.276)" d="M146.64 29.956C146.52 29.956 146.28 29.836 146.28 29.596V28.276H145.8V29.716C145.68 29.836 145.56 29.956 145.44 29.956 145.32 29.956 145.08 29.836 145.08 29.596V28.276H144.48V30.436H145.08V30.316C145.2 30.436 145.2 30.436 145.32 30.436 145.44 30.436 145.44 30.556 145.56 30.556 145.8 30.556 146.04 30.436 146.16 30.196 146.28 30.436 146.52 30.556 146.76 30.556 147.12 30.436 147.36 30.316 147.48 29.956V29.836 28.276H147V29.716 29.836H146.88C146.88 29.956 146.76 29.956 146.64 29.956Z" fill-rule="evenodd"/><path transform="matrix(1,0,0,-1,0,595.276)" d="M157.44 29.356C157.44 30.076 157.08 30.556 156.48 30.556 156.24 30.556 156 30.436 155.88 30.316V30.436H155.4V27.556H156V28.396C156 28.276 156.24 28.276 156.48 28.276 157.08 28.276 157.44 28.636 157.44 29.356ZM156.36 28.756C156.24 28.756 156.12 28.756 156.12 28.876 156 28.876 156 28.996 156 28.996V29.116 29.716C156 29.836 156.12 29.956 156.36 29.956 156.48 29.956 156.72 29.956 156.84 29.716V29.596 29.116C156.72 28.876 156.48 28.756 156.36 28.756Z" fill-rule="evenodd"/><path transform="matrix(1,0,0,-1,0,595.276)" d="M160.08 29.956C159.84 29.956 159.72 29.836 159.72 29.596V28.276H159.12V29.716C159.12 29.836 159 29.956 158.76 29.956 158.64 29.956 158.52 29.836 158.4 29.596V28.276H157.92V30.436H158.4V30.316C158.52 30.436 158.64 30.436 158.64 30.436 158.76 30.436 158.88 30.556 158.88 30.556 159.24 30.556 159.36 30.436 159.48 30.196 159.6 30.436 159.84 30.556 160.08 30.556 160.44 30.436 160.68 30.316 160.8 29.956H160.92V29.836 28.276H160.32V29.716C160.32 29.836 160.32 29.836 160.2 29.836 160.2 29.956 160.08 29.956 160.08 29.956Z" fill-rule="evenodd"/><path transform="matrix(1,0,0,-1,0,595.276)" d="M119.88 29.116 119.04 30.316V28.276H118.32V31.276H119.04L119.88 30.196 120.72 31.276H121.44V28.276H120.72V30.316Z" fill-rule="evenodd"/><path transform="matrix(1,0,0,-1,0,595.276)" d="M128.88 29.596H127.92V29.116H128.88Z" fill-rule="evenodd"/><path transform="matrix(1,0,0,-1,0,595.276)" d="M131.28 30.436C131.28 30.316 131.28 30.316 131.4 30.196 131.52 30.196 131.64 30.076 131.88 30.076 132.48 29.956 132.84 29.716 132.84 29.116 132.84 28.516 132.48 28.276 131.64 28.276 131.4 28.276 131.16 28.276 130.92 28.396 130.68 28.516 130.44 28.636 130.32 28.756L130.8 29.236C131.16 28.996 131.4 28.756 131.64 28.756 132 28.756 132.12 28.876 132.12 29.116 132.12 29.356 131.88 29.476 131.52 29.476 130.92 29.596 130.56 29.836 130.56 30.316 130.56 31.036 130.92 31.276 131.76 31.276 132 31.276 132.24 31.276 132.36 31.156 132.6 31.156 132.72 31.036 132.84 30.796L132.48 30.436C132.24 30.676 131.88 30.676 131.76 30.676 131.4 30.676 131.28 30.556 131.28 30.436Z" fill-rule="evenodd"/><path transform="matrix(1,0,0,-1,0,595.276)" d="M150.12 29.596H149.16V29.116H150.12Z" fill-rule="evenodd"/><path transform="matrix(1,0,0,-1,0,595.276)" d="M152.16 30.196H152.28C152.28 30.316 152.4 30.316 152.4 30.316 152.52 30.316 152.64 30.316 152.76 30.316 153.12 30.316 153.36 30.316 153.48 30.076 153.72 29.956 153.84 29.596 153.84 29.356V29.236C153.84 28.636 153.36 28.276 152.76 28.276 152.4 28.276 152.16 28.396 151.92 28.636 151.68 28.876 151.56 29.356 151.56 29.836 151.56 30.796 152.04 31.276 152.76 31.276 153 31.276 153.12 31.276 153.36 31.156 153.48 31.036 153.6 30.916 153.72 30.676L153.12 30.436C153 30.676 152.88 30.796 152.76 30.796 152.52 30.796 152.4 30.676 152.4 30.556 152.28 30.556 152.28 30.436 152.28 30.436V30.316C152.16 30.316 152.16 30.196 152.16 30.196ZM152.76 29.836C152.64 29.836 152.52 29.716 152.4 29.596 152.28 29.596 152.28 29.476 152.28 29.236 152.28 28.996 152.52 28.756 152.76 28.756 152.88 28.756 153 28.876 153.12 28.876 153.12 28.996 153.24 29.116 153.24 29.236 153.24 29.476 153.12 29.596 153.12 29.596 153 29.716 152.88 29.836 152.76 29.836Z" fill-rule="evenodd"/><path transform="matrix(1,0,0,-1,0,595.276)" d="M138.6 28.876C138.84 28.396 139.08 28.276 139.56 28.276 139.92 28.276 140.28 28.396 140.4 28.636 140.64 28.876 140.76 29.236 140.76 29.716 140.76 30.196 140.64 30.676 140.4 30.916 140.16 31.156 139.92 31.276 139.56 31.276 139.2 31.276 138.96 31.276 138.84 31.036 138.6 30.796 138.48 30.556 138.48 30.316V30.196C138.48 29.596 138.96 29.236 139.56 29.236 139.68 29.236 139.8 29.236 139.92 29.236 140.04 29.236 140.04 29.356 140.16 29.356 140.16 29.356 140.04 29.236 140.04 29.116 140.04 29.116 140.04 28.996 139.92 28.996 139.92 28.876 139.8 28.756 139.56 28.756 139.56 28.756 139.44 28.876 139.32 28.876 139.32 28.996 139.2 28.996 139.08 29.116L138.6 28.876ZM139.56 30.796C139.8 30.796 140.04 30.556 140.04 30.316 140.04 30.196 140.04 29.956 139.92 29.956 139.8 29.836 139.68 29.716 139.56 29.716 139.32 29.716 139.08 29.956 139.08 30.316 139.08 30.556 139.32 30.796 139.56 30.796Z" fill-rule="evenodd"/><path transform="matrix(1,0,0,-1,0,595.276)" d="M137.76 18.676H139.08L138.6 17.716H137.88L138 17.236H138.12L140.88 17.596 141.12 17.116 141.6 17.476 141.12 18.076 140.52 18.556 140.28 18.316 140.64 17.956 139.08 17.836 139.68 18.676H141.48V19.036H137.76Z" fill-rule="evenodd"/><path transform="matrix(1,0,0,-1,0,595.276)" d="M137.52 15.196H141.72V15.676H139.8V16.396H141.24V16.756H139.8V17.116L139.92 17.236 139.8 17.356H139.44V16.756H138V16.396H139.44V15.676H137.52Z" fill-rule="evenodd"/><path transform="matrix(1,0,0,-1,0,595.276)" d="M124.08 25.996H121.08V24.196H124.08V25.996ZM121.56 25.276V25.516H123.6V25.276H121.56ZM121.56 24.556V24.916H123.6V24.556H121.56Z" fill-rule="evenodd"/><path transform="matrix(1,0,0,-1,0,595.276)" d="M121.68 23.956 121.2 24.196 120.96 23.596 120.48 22.996 120.84 22.756 121.32 23.356H122.4V22.996H121.2V22.636H122.4V22.276H120.48V21.916H124.56V22.276H122.88V22.636H124.2V22.996H122.88V23.356H124.32V23.716H122.88V23.956L123 24.076H122.88L122.4 24.196V23.716H121.56Z" fill-rule="evenodd"/><path transform="matrix(1,0,0,-1,0,595.276)" d="M126.24 25.396V25.036H126.72V23.236H126.12V22.876H128.52V23.236H128.16V25.036H128.52V25.396H128.16V25.756 25.876H128.28L128.16 25.996H128.04 127.68V25.396H127.08V25.876H127.2L127.08 25.996H126.96 126.72V25.396H126.24ZM127.08 23.956V24.316H127.68V23.956H127.08ZM127.08 23.236V23.596H127.68V23.236H127.08ZM127.08 24.676V25.036H127.68V24.676H127.08Z" fill-rule="evenodd"/><path transform="matrix(1,0,0,-1,0,595.276)" d="M126.24 22.036 126.6 21.796 126.96 22.156 127.2 22.636 126.84 22.756 126.48 22.396Z" fill-rule="evenodd"/><path transform="matrix(1,0,0,-1,0,595.276)" d="M128.76 25.996V24.076 23.356L128.64 22.876 128.52 22.396 128.28 22.036 128.64 21.796 128.88 22.156 129 22.516 129.12 22.876V23.236H129.84V22.396L129.72 22.276 129.6 22.156H129.24L129.48 21.796 129.84 21.916H130.08L130.2 22.036V22.156 22.396 25.996H128.76ZM129.12 23.596V24.436H129.84V23.596H129.12ZM129.12 24.796V25.516H129.84V24.796H129.12Z" fill-rule="evenodd"/><path transform="matrix(1,0,0,-1,0,595.276)" d="M127.8 22.876 127.56 22.516 127.8 22.276 127.92 21.916 128.28 22.156 128.04 22.516Z" fill-rule="evenodd"/><path transform="matrix(1,0,0,-1,0,595.276)" d="M131.88 24.316V23.836H136.08V24.316Z" fill-rule="evenodd"/><path transform="matrix(1,0,0,-1,0,595.276)" d="M116.76 19.276H116.4V15.796H114.72V15.316H118.92V15.796H116.88V17.356H118.44V17.836H116.88V19.156H117V19.276H116.88Z" fill-rule="evenodd"/><path transform="matrix(1,0,0,-1,0,595.276)" d="M120.48 17.956 120.96 17.596 121.44 18.316H122.52V17.356H120.48V16.876H122.52V15.076H122.88V16.876H124.68V17.356H122.88V18.316H124.32V18.676H121.8L121.92 19.036H122.04L122.16 19.156H122.04L121.92 19.276 121.68 19.396 121.08 18.556Z" fill-rule="evenodd"/><path transform="matrix(1,0,0,-1,0,595.276)" d="M126.48 18.316V17.956H127.44V17.236L127.2 16.636 127.08 16.276 126.84 15.916 126.48 15.676 126.12 15.436 126.48 15.076 126.96 15.316 127.2 15.676 127.44 16.036 127.68 16.396 127.8 17.116V17.956H128.88L128.76 15.916V15.556L128.88 15.436 129 15.196H129.36 129.84L130.08 15.316 130.32 15.436 130.44 15.676 130.56 16.036 130.2 16.276 130.08 16.036 129.96 15.796 129.84 15.676H129.72 129.36L129.24 15.796V16.036 18.316H127.8V19.036L127.92 19.156V19.276H127.8L127.44 19.396V18.316Z" fill-rule="evenodd"/><path transform="matrix(1,0,0,-1,0,595.276)" d="M134.64 17.716H133.56V17.356H135.24V16.876H133.56V16.516H135.24V15.676L135.12 15.556 135 15.436H134.88 134.4L134.64 15.076H135 135.24L135.48 15.196V15.316L135.6 15.556V16.516H136.2V16.876H135.6V17.356H136.08V17.716H135V18.316H135.96V18.676H135V19.156H135.12V19.276H135 134.64V18.676H133.68V18.316H134.64Z" fill-rule="evenodd"/><path transform="matrix(1,0,0,-1,0,595.276)" d="M134.16 16.396 133.8 16.156 134.16 15.796 134.4 15.556 134.64 15.916 134.4 16.156Z" fill-rule="evenodd"/><path transform="matrix(1,0,0,-1,0,595.276)" d="M132 18.916V15.676 15.436H132.48V15.916H132.96V15.676H133.32V18.916H132ZM132.48 17.596V18.556H132.96V17.596H132.48ZM132.48 16.276V17.236H132.96V16.276H132.48Z" fill-rule="evenodd"/><path transform="matrix(1,0,0,-1,0,595.276)" d="M137.76 25.396H139.08L138.6 24.556 137.88 24.436 138 23.956H138.12L140.88 24.316 141.12 23.956 141.6 24.196 141.12 24.796 140.52 25.276 140.28 25.036 140.64 24.676 139.08 24.556 139.68 25.396H141.48V25.756H137.76Z" fill-rule="evenodd"/><path transform="matrix(1,0,0,-1,0,595.276)" d="M137.52 21.916H141.72V22.396H139.8V23.116H141.24V23.476H139.8V23.836L139.92 23.956V24.076H139.8 139.44V23.476H138V23.116H139.44V22.396H137.52Z" fill-rule="evenodd"/><path transform="matrix(1,0,0,-1,0,595.276)" d="M146.88 25.996H143.88V24.196H146.88V25.996ZM144.36 25.276V25.516H146.4V25.276H144.36ZM144.36 24.556V24.916H146.4V24.556H144.36Z" fill-rule="evenodd"/><path transform="matrix(1,0,0,-1,0,595.276)" d="M144.48 23.956 144 24.196 143.64 23.596 143.16 22.996 143.64 22.756 144.12 23.356H145.2V22.996H144V22.636H145.2V22.276H143.28V21.916H147.36V22.276H145.68V22.636H147V22.996H145.68V23.356H147.12V23.716H145.68V23.956L145.8 24.076H145.68L145.2 24.196V23.716H144.24Z" fill-rule="evenodd"/><path transform="matrix(1,0,0,-1,0,595.276)" d="M148.92 25.396V25.036H149.4V23.236H148.92V22.876H151.32V23.236H150.84V25.036H151.2V25.396H150.84V25.756L150.96 25.876V25.996H150.84 150.48V25.396H149.76V25.876H149.88V25.996H149.76 149.4V25.396H148.92ZM149.76 23.956V24.316H150.48V23.956H149.76ZM149.76 23.236V23.596H150.48V23.236H149.76ZM149.76 24.676V25.036H150.48V24.676H149.76Z" fill-rule="evenodd"/><path transform="matrix(1,0,0,-1,0,595.276)" d="M148.92 22.036 149.28 21.796 149.64 22.156 150 22.636 149.52 22.756 149.28 22.396Z" fill-rule="evenodd"/><path transform="matrix(1,0,0,-1,0,595.276)" d="M151.44 25.996V24.076 23.356 22.876L151.2 22.396 151.08 22.036 151.44 21.796 151.56 22.156 151.68 22.516 151.8 22.876V23.236H152.52V22.396 22.276L152.28 22.156H152.04L152.16 21.796 152.64 21.916H152.76L152.88 22.036 153 22.156V22.396 25.996H151.44ZM151.92 23.596V24.436H152.52V23.596H151.92ZM151.92 24.796V25.516H152.52V24.796H151.92Z" fill-rule="evenodd"/><path transform="matrix(1,0,0,-1,0,595.276)" d="M150.48 22.876 150.24 22.516 150.48 22.276 150.72 21.916 151.08 22.156 150.84 22.516Z" fill-rule="evenodd"/><path transform="matrix(1,0,0,-1,0,595.276)" d="M156.84 25.996H156.48V25.036H154.56V24.676H158.88V25.036H156.96V25.876H157.08V25.996H156.96Z" fill-rule="evenodd"/><path transform="matrix(1,0,0,-1,0,595.276)" d="M156.12 23.956 155.76 24.076V23.836L155.64 23.476 155.52 23.236 155.4 22.996 155.28 22.636 155.04 22.516 154.8 22.276 154.56 22.036 154.92 21.796 155.4 22.156 155.76 22.516 156 23.116 156.24 23.716 156.36 23.836 156.24 23.956Z" fill-rule="evenodd"/><path transform="matrix(1,0,0,-1,0,595.276)" d="M157.56 24.076 157.08 23.956 157.32 23.236 157.56 22.636 158.04 22.156 158.4 21.796 158.88 22.156 158.4 22.516 158.04 22.996 157.68 23.476Z" fill-rule="evenodd"/><path transform="matrix(1,0,0,-1,0,595.276)" d="M143.16 19.036V18.556H144.96V15.076H145.44V17.356L146.04 16.876 146.64 16.396 147 16.756 146.28 17.356 145.44 17.836V18.556H147.36V19.036Z" fill-rule="evenodd"/><path transform="matrix(1,0,0,-1,0,595.276)" d="M148.92 17.956 149.4 17.596 149.88 18.316H150.96V17.356H148.92V16.876H150.96V15.076H151.32V16.876H153.12V17.356H151.32V18.316H152.76V18.676H150.24L150.36 19.036H150.48V19.156L150.36 19.276 150.12 19.396 149.52 18.556Z" fill-rule="evenodd"/><path transform="matrix(1,0,0,-1,0,595.276)" d="M156.84 19.276H156.48V18.316H154.56V17.836H158.88V18.316H156.96V19.156H157.08V19.276H156.96Z" fill-rule="evenodd"/><path transform="matrix(1,0,0,-1,0,595.276)" d="M156.12 17.236 155.76 17.356V17.116L155.64 16.756 155.52 16.516 155.4 16.156 155.28 15.916 155.04 15.676 154.8 15.556 154.56 15.316 154.92 15.076 155.4 15.436 155.76 15.796 156 16.396 156.24 16.996 156.36 17.116 156.24 17.236Z" fill-rule="evenodd"/><path transform="matrix(1,0,0,-1,0,595.276)" d="M157.56 17.356 157.08 17.236 157.32 16.516 157.56 15.916 158.04 15.436 158.4 15.076 158.88 15.436 158.4 15.796 158.04 16.156 157.68 16.756Z" fill-rule="evenodd"/><path transform="matrix(1,0,0,-1,0,595.276)" d="M162.96 17.716H161.88V17.356H163.56V16.876H161.88V16.516H163.56V15.676 15.556H163.44L163.32 15.436H163.2 162.72L162.96 15.076H163.32 163.56L163.8 15.196 163.92 15.316V15.556 16.516H164.64V16.876H163.92V17.356H164.52V17.716H163.44V18.316H164.28V18.676H163.44V19.156 19.276H163.32 162.96V18.676H162V18.316H162.96Z" fill-rule="evenodd"/><path transform="matrix(1,0,0,-1,0,595.276)" d="M162.48 16.396 162.24 16.156 162.48 15.796 162.72 15.556 162.96 15.916 162.72 16.156Z" fill-rule="evenodd"/><path transform="matrix(1,0,0,-1,0,595.276)" d="M160.32 18.916V15.676 15.436H160.8V15.916H161.28V15.676H161.64V18.916H160.32ZM160.8 17.596V18.556H161.28V17.596H160.8ZM160.8 16.276V17.236H161.28V16.276H160.8Z" fill-rule="evenodd"/></g></svg>