<?xml version='1.0' encoding='UTF-8'?>
<svg width="489.58" height="259.18" viewBox="39.70 5.89 489.58 259.18" xmlns="http://www.w3.org/2000/svg" xmlns:xlink="http://www.w3.org/1999/xlink" xmlns:inkscape="http://www.inkscape.org/namespaces/inkscape" version="1.1"><g transform="scale(10.0) translate(-111.171, -316.512)"><defs><clipPath id="clip_2"><path transform="matrix(1,0,0,-1,0,595.276)" d="M74.4 .196H767.4V595.276H74.4Z"/></clipPath></defs><path transform="matrix(1,0,0,-1,0,595.276)" stroke-width=".12" stroke-linecap="round" stroke-linejoin="round" fill="none" stroke="#000000" d="M161.64 277.636H117.48 161.64"/><path transform="matrix(1,0,0,-1,0,595.276)" d="M117.48 277.636H161.64C161.88 277.636 162.12 277.636 162.36 277.516 162.6 277.396 162.84 277.276 162.96 277.036 163.2 276.916 163.32 276.676 163.32 276.436 163.44 276.196 163.56 275.956 163.56 275.836V254.716C163.56 254.236 163.32 253.756 162.96 253.396 162.84 253.156 162.6 253.036 162.36 252.916 162.12 252.916 161.88 252.796 161.64 252.796H117.48C117.12 252.796 116.64 253.036 116.28 253.396 116.04 253.516 115.92 253.756 115.8 253.996 115.68 254.236 115.68 254.476 115.68 254.716V275.836C115.68 276.196 115.8 276.676 116.28 277.036 116.4 277.276 116.64 277.396 116.88 277.516 117.12 277.636 117.36 277.636 117.48 277.636ZM117.48 276.676C117 276.676 116.64 276.316 116.64 275.836V254.716C116.64 254.596 116.64 254.476 116.64 254.356 116.76 254.236 116.76 254.116 116.88 253.996 117.12 253.876 117.36 253.756 117.48 253.756H161.64C161.88 253.756 162.12 253.876 162.36 253.996 162.48 254.236 162.6 254.476 162.6 254.716V275.836C162.6 275.836 162.6 275.956 162.48 276.076 162.48 276.196 162.36 276.316 162.36 276.436 162.12 276.676 161.88 276.676 161.64 276.676H117.48Z" fill-rule="evenodd"/><path transform="matrix(1,0,0,-1,0,595.276)" d="M117.48 276.676H161.64C161.88 276.676 162.12 276.676 162.36 276.436 162.48 276.196 162.6 275.956 162.6 275.836V254.716C162.6 254.596 162.6 254.476 162.48 254.356 162.48 254.236 162.36 254.116 162.36 253.996 162.24 253.876 162.12 253.876 162 253.876 161.88 253.756 161.76 253.756 161.64 253.756H117.48C117.36 253.756 117.12 253.876 116.88 253.996 116.64 254.236 116.64 254.476 116.64 254.716V275.836C116.64 275.956 116.64 276.196 116.88 276.436 117.12 276.676 117.36 276.676 117.48 276.676Z" fill="#ffffff" fill-rule="evenodd"/><path transform="matrix(1,0,0,-1,0,595.276)" d="M123.96 268.876 122.4 273.796H121.56 120.84L119.28 268.876H120.36L120.6 269.716H121.56 122.52L122.88 268.876H123.96ZM122.28 270.556H121.56 120.96L121.56 272.836 122.28 270.556Z" fill-rule="evenodd"/><path transform="matrix(1,0,0,-1,0,595.276)" d="M128.28 271.636C127.92 271.636 127.68 271.396 127.56 271.036V268.876H126.6V271.276C126.6 271.516 126.36 271.636 126.12 271.636 125.88 271.636 125.52 271.276 125.52 271.036V268.876H124.56V272.476H125.52V272.236C125.64 272.356 125.76 272.476 125.88 272.476 126 272.476 126.24 272.596 126.36 272.596 126.84 272.596 127.08 272.356 127.32 272.116 127.56 272.356 127.92 272.596 128.28 272.596 129 272.476 129.36 272.236 129.6 271.756 129.6 271.636 129.72 271.636 129.72 271.636 129.72 271.516 129.72 271.516 129.72 271.396V268.876H128.76V271.276C128.76 271.396 128.64 271.396 128.64 271.516 128.52 271.516 128.4 271.636 128.28 271.636Z" fill-rule="evenodd"/><path transform="matrix(1,0,0,-1,0,595.276)" d="M132.48 268.636C132.84 268.636 133.2 268.876 133.44 269.116 133.68 269.476 133.8 269.956 133.8 270.556 133.8 271.036 133.68 271.636 133.44 271.996 133.2 272.356 132.84 272.476 132.36 272.476 132 272.476 131.76 272.476 131.52 272.236V273.796H130.68V268.756H131.52V268.996C131.88 268.756 132.12 268.636 132.48 268.636ZM132.24 269.596C131.88 269.596 131.64 269.716 131.52 270.076V271.156C131.64 271.276 131.76 271.396 131.88 271.516 132 271.636 132.12 271.636 132.24 271.636 132.72 271.636 132.96 271.276 132.96 270.556 132.96 269.956 132.72 269.596 132.24 269.596Z" fill-rule="evenodd"/><path transform="matrix(1,0,0,-1,0,595.276)" d="M136.8 272.356H137.88V268.756H136.8V268.996C136.8 268.876 136.68 268.756 136.56 268.756 136.32 268.636 136.08 268.636 135.96 268.636 135.6 268.636 135.24 268.756 135 268.996 134.88 269.116 134.76 269.236 134.64 269.356 134.64 269.476 134.52 269.716 134.52 269.836V272.356H135.6V270.196C135.6 270.076 135.6 270.076 135.6 269.956L135.72 269.836C135.84 269.716 136.08 269.596 136.2 269.596 136.32 269.596 136.56 269.716 136.68 269.836 136.8 269.956 136.8 270.196 136.8 270.316V272.356Z" fill-rule="evenodd"/><path transform="matrix(1,0,0,-1,0,595.276)" d="M139.68 273.796V269.956 269.836 269.716C139.8 269.596 139.92 269.596 140.4 269.716L140.52 268.876C140.52 268.876 140.4 268.756 140.28 268.756 140.04 268.756 139.92 268.756 139.68 268.756 139.2 268.756 138.84 268.996 138.72 269.356V269.476 269.596 273.796H139.68Z" fill-rule="evenodd"/><path transform="matrix(1,0,0,-1,0,595.276)" d="M144.36 269.476 144.12 268.756C143.88 268.756 143.64 268.756 143.52 268.756 143.4 268.876 143.28 268.996 143.28 269.116 143.16 268.876 142.68 268.636 142.32 268.636 141.48 268.636 140.88 269.116 140.88 269.956 140.88 270.316 141.12 270.676 141.48 270.796 141.84 271.036 142.32 271.156 143.04 271.156V271.276C143.04 271.396 142.92 271.516 142.92 271.636 142.8 271.636 142.68 271.636 142.56 271.636 142.32 271.636 142.2 271.636 141.96 271.636 141.84 271.516 141.6 271.396 141.48 271.276L141 271.996C141.36 272.356 141.84 272.596 142.56 272.596 143.04 272.596 143.4 272.476 143.64 272.356 143.88 272.116 144 271.876 144 271.516V269.716C144.12 269.476 144.12 269.476 144.36 269.476ZM141.96 269.956C141.96 269.836 141.96 269.716 142.08 269.596 142.2 269.596 142.32 269.476 142.56 269.476 142.8 269.596 142.92 269.596 143.04 269.716V270.436C142.68 270.316 142.44 270.316 142.2 270.196 142.08 270.196 141.96 270.076 141.96 269.956Z" fill-rule="evenodd"/><path transform="matrix(1,0,0,-1,0,595.276)" d="M148.32 268.876V271.276 271.396C148.2 272.116 147.84 272.596 146.88 272.596 146.64 272.596 146.52 272.476 146.4 272.476 146.28 272.476 146.16 272.356 146.04 272.236V272.476H144.96V268.876H146.04V271.036C146.04 271.396 146.28 271.636 146.76 271.636 147 271.636 147.24 271.396 147.24 271.036V270.916 268.876H148.32Z" fill-rule="evenodd"/><path transform="matrix(1,0,0,-1,0,595.276)" d="M150.84 272.596C151.32 272.596 151.56 272.476 151.92 272.236 152.16 272.116 152.4 271.876 152.52 271.396L151.68 271.036C151.56 271.516 151.2 271.636 150.84 271.636 150.48 271.636 150.24 271.396 150.12 270.796V270.676C150.12 270.556 150.12 270.436 150.12 270.436V270.316C150.24 269.836 150.48 269.596 150.96 269.596 151.08 269.596 151.2 269.596 151.44 269.716 151.56 269.836 151.56 269.956 151.68 270.196L152.52 269.836C152.28 268.996 151.8 268.636 150.96 268.636 149.76 268.756 149.16 269.356 149.16 270.676 149.28 271.876 149.88 272.596 150.84 272.596Z" fill-rule="evenodd"/><path transform="matrix(1,0,0,-1,0,595.276)" d="M156.24 270.316C156.24 271.756 155.64 272.476 154.56 272.596 153.6 272.596 153 271.876 152.88 270.676 152.88 270.076 153 269.716 153.36 269.356 153.72 268.876 154.2 268.636 154.68 268.636 155.28 268.636 156 268.876 156.12 269.356L155.52 269.956C155.4 269.716 155.04 269.596 154.68 269.596 154.56 269.596 154.32 269.596 154.2 269.716 154.08 269.836 154.08 269.956 154.08 269.956 153.96 270.076 153.96 270.196 153.96 270.316H156.24ZM153.96 271.036V271.036C153.96 271.156 153.96 271.396 154.2 271.516 154.32 271.636 154.44 271.636 154.56 271.636 154.92 271.636 155.16 271.396 155.28 271.156V271.036H153.96Z" fill-rule="evenodd"/><path transform="matrix(1,0,0,-1,0,595.276)" d="M159.84 269.956C159.84 270.676 159.48 271.036 158.64 271.156 158.4 271.156 158.28 271.156 158.16 271.276 158.04 271.276 157.92 271.396 157.92 271.396 157.92 271.516 157.92 271.636 158.04 271.636 158.16 271.636 158.28 271.756 158.4 271.756 158.64 271.756 158.76 271.756 158.88 271.636 159 271.516 159.12 271.516 159.24 271.396L159.84 271.996C159.6 272.356 159.12 272.596 158.52 272.596 157.44 272.596 156.96 272.236 156.96 271.396 156.96 270.676 157.32 270.316 158.04 270.196 158.52 270.196 158.76 270.076 158.76 269.836V269.716C158.64 269.596 158.52 269.596 158.4 269.596 158.16 269.596 158.04 269.596 157.8 269.716 157.68 269.836 157.56 269.956 157.32 270.076L156.72 269.356C157.08 268.876 157.68 268.636 158.4 268.636 158.76 268.636 159.24 268.756 159.48 268.996 159.72 269.236 159.84 269.596 159.84 269.956Z" fill-rule="evenodd"/><path transform="matrix(1,0,0,-1,0,595.276)" d="M126.24 263.476V262.756H127.68V258.676 258.436 258.316H127.56 127.44 126.48L126.72 257.596H127.44 127.92L128.28 257.836 128.4 258.076 128.52 258.436V259.636L129.48 258.556 129.96 259.036 129.24 259.876 128.52 260.596V262.756H129.6V263.476H128.52V264.556L128.64 264.676V264.796L128.52 264.916H128.28L127.68 265.036V263.476Z" fill-rule="evenodd"/><path transform="matrix(1,0,0,-1,0,595.276)" d="M126.6 262.156 126.12 261.676 126.6 261.316 127.08 260.836 127.68 261.316 127.08 261.796Z" fill-rule="evenodd"/><path transform="matrix(1,0,0,-1,0,595.276)" d="M125.88 259.516 126.24 258.796 126.36 258.676 126.48 258.796 126.6 258.916 127.56 259.876V260.596L126.72 259.996Z" fill-rule="evenodd"/><path transform="matrix(1,0,0,-1,0,595.276)" d="M129.12 264.796 128.64 264.316 129.48 263.596 129.96 264.076Z" fill-rule="evenodd"/><path transform="matrix(1,0,0,-1,0,595.276)" d="M128.64 260.836 129.24 260.596 129.72 261.316 129.84 261.436V261.556L129.6 261.676 129.24 261.916Z" fill-rule="evenodd"/><path transform="matrix(1,0,0,-1,0,595.276)" d="M129.48 262.276 130.2 261.796 130.8 262.756H132.24V262.036L132.12 261.316 131.88 260.716 131.64 259.996 131.28 260.836 131.04 261.796H130.44V261.076L130.68 260.356 130.92 259.876 131.16 259.396 130.44 258.796 129.48 258.196 129.96 257.596 130.92 258.196 131.64 258.796 132.36 258.076 132.96 257.596 133.56 258.196 132.72 258.796 132.12 259.396 132.48 260.236 132.72 260.956 132.96 261.916V262.756H133.44V263.476H131.16L131.52 264.436 131.64 264.556H131.76L131.64 264.676 131.4 264.796 130.92 264.916 130.68 264.196 130.32 263.476 129.96 262.876Z" fill-rule="evenodd"/><path transform="matrix(1,0,0,-1,0,595.276)" d="M136.32 264.676V264.076H138.36V264.676Z" fill-rule="evenodd"/><path transform="matrix(1,0,0,-1,0,595.276)" d="M135.96 263.596V262.996H138.6V263.596Z" fill-rule="evenodd"/><path transform="matrix(1,0,0,-1,0,595.276)" d="M136.32 262.516V261.796H138.36V262.516Z" fill-rule="evenodd"/><path transform="matrix(1,0,0,-1,0,595.276)" d="M136.32 261.436V260.836H138.36V261.436Z" fill-rule="evenodd"/><path transform="matrix(1,0,0,-1,0,595.276)" d="M136.08 257.596H136.8V258.076H137.88V257.716H138.48V260.236H136.08V257.596ZM136.8 258.676V259.636H137.88V258.676H136.8Z" fill-rule="evenodd"/><path transform="matrix(1,0,0,-1,0,595.276)" d="M138.84 264.436V263.836H139.92V263.356H140.52V263.836H141.6V263.236H142.32V263.836H143.16V264.436H142.32V264.676L142.44 264.796V264.916H142.32L142.08 265.036H141.6V264.436H140.52V264.676L140.64 264.796 140.76 264.916H140.64L140.4 265.036H139.92V264.436Z" fill-rule="evenodd"/><path transform="matrix(1,0,0,-1,0,595.276)" d="M138.96 261.436 139.2 261.796V259.876H139.92V259.996H143.04V260.476H141.48V260.836H142.8V261.196H141.48V261.556H142.68V262.036H141.48V262.276H143.04V262.756H141.48V262.996L141.6 263.116V263.236 263.356H141.48L141 263.476 140.76 262.756H140.04L140.16 262.996 140.28 263.116V263.236H140.16L139.68 263.476 139.08 262.636 138.36 261.796 138.96 261.436ZM139.92 262.036V262.276H140.76V262.036H139.92ZM139.92 260.476V260.836H140.76V260.476H139.92ZM139.92 261.196V261.556H140.76V261.196H139.92Z" fill-rule="evenodd"/><path transform="matrix(1,0,0,-1,0,595.276)" d="M139.08 259.636V259.156H139.56L139.92 258.676 140.4 258.436 138.72 258.196 139.2 257.596 141.12 257.956 141.96 257.836 142.92 257.596 143.4 258.076 141.96 258.316 143.04 259.276 142.56 259.876 142.44 259.636H139.08ZM140.28 259.156H141.96L141.6 258.796 141.12 258.556 140.64 258.796 140.28 259.156Z" fill-rule="evenodd"/><path transform="matrix(1,0,0,-1,0,595.276)" d="M146.16 264.196V263.596H149.04V262.996H146.88V259.996H149.04V259.396H145.8V258.676H149.04V257.596H149.64V258.676H152.88V259.396H149.64V259.996H151.92V262.996H149.64V263.596H152.52V264.196H149.64V264.556L149.76 264.676V264.796 264.916H149.04V264.196H146.16ZM147.6 261.796V262.396H149.04V261.796H147.6ZM147.6 260.596V261.196H149.04V260.596H147.6ZM149.64 261.796V262.396H151.2V261.796H149.64ZM149.64 260.596V261.196H151.2V260.596H149.64Z" fill-rule="evenodd"/></g></svg>