<?xml version='1.0' encoding='UTF-8'?>
<svg width="554.47" height="218.47" viewBox="7.25 25.76 554.47 218.47" xmlns="http://www.w3.org/2000/svg" xmlns:xlink="http://www.w3.org/1999/xlink" xmlns:inkscape="http://www.inkscape.org/namespaces/inkscape" version="1.1"><g transform="scale(10.0) translate(-111.171, -478.080)"><defs><clipPath id="clip_2"><path transform="matrix(1,0,0,-1,0,595.276)" d="M74.4 .196H767.4V595.276H74.4Z"/></clipPath></defs><path transform="matrix(1,0,0,-1,0,595.276)" d="M113.4 114.076H165.72C165.84 114.076 165.96 114.076 166.08 113.956 166.2 113.956 166.32 113.836 166.44 113.716 166.56 113.716 166.68 113.596 166.68 113.356 166.8 113.236 166.8 113.116 166.8 112.996V94.396C166.8 94.156 166.68 93.916 166.44 93.676 166.32 93.556 166.2 93.436 166.08 93.436 165.96 93.316 165.84 93.316 165.72 93.316H113.4C113.16 93.316 112.92 93.436 112.68 93.676 112.56 93.796 112.56 93.916 112.44 94.036 112.44 94.156 112.44 94.276 112.44 94.396V112.996C112.44 113.236 112.56 113.596 112.68 113.716 112.8 113.836 112.92 113.956 113.04 113.956 113.16 114.076 113.28 114.076 113.4 114.076ZM113.4 113.596C113.16 113.596 112.92 113.356 112.92 112.996V94.396C112.92 94.276 112.92 94.276 112.92 94.156 113.04 94.156 113.04 94.036 113.04 94.036 113.16 93.916 113.28 93.916 113.4 93.916H165.72C165.84 93.916 165.96 93.916 166.08 94.036 166.2 94.156 166.2 94.276 166.2 94.396V112.996C166.2 113.116 166.2 113.236 166.08 113.356 165.96 113.476 165.84 113.596 165.72 113.596H113.4Z" fill-rule="evenodd"/><path transform="matrix(1,0,0,-1,0,595.276)" d="M113.4 113.596H165.72C165.84 113.596 165.96 113.476 166.08 113.356 166.2 113.236 166.2 113.116 166.2 112.996V94.396C166.2 94.276 166.2 94.156 166.08 94.036 165.96 93.916 165.84 93.916 165.72 93.916H113.4C113.28 93.916 113.16 93.916 113.04 94.036 112.92 94.156 112.92 94.276 112.92 94.396V112.996C112.92 113.116 112.92 113.236 113.04 113.356 113.16 113.476 113.28 113.596 113.4 113.596Z" fill="#ffffff" fill-rule="evenodd"/><path transform="matrix(1,0,0,-1,0,595.276)" d="M124.32 110.116C124.32 110.476 124.2 110.716 123.96 110.956 123.84 111.196 123.6 111.316 123.24 111.316 122.64 111.316 122.16 110.836 122.16 110.116 122.16 109.396 122.64 109.036 123.24 109.036 123.6 109.036 123.84 109.036 123.96 109.276 124.2 109.516 124.32 109.756 124.32 110.116ZM123.72 110.116C123.72 109.996 123.6 109.756 123.6 109.756 123.48 109.636 123.36 109.516 123.24 109.516 123.12 109.516 123 109.636 122.88 109.756 122.88 109.756 122.76 109.996 122.76 110.116 122.76 110.476 123 110.716 123.24 110.716 123.36 110.716 123.48 110.596 123.6 110.596 123.6 110.476 123.72 110.356 123.72 110.116Z" fill-rule="evenodd"/><path transform="matrix(1,0,0,-1,0,595.276)" d="M126.6 109.036V110.476 110.596C126.6 111.076 126.24 111.316 125.76 111.316 125.64 111.316 125.52 111.196 125.52 111.196 125.4 111.196 125.28 111.076 125.28 111.076V111.196H124.68V109.036H125.28V110.356C125.28 110.596 125.4 110.716 125.64 110.716 125.88 110.716 126 110.596 126 110.356V109.036H126.6Z" fill-rule="evenodd"/><path transform="matrix(1,0,0,-1,0,595.276)" d="M135.6 109.396 135.48 109.036C135.36 109.036 135.24 109.036 135.12 109.036 135 109.036 135 109.156 134.88 109.276 134.88 109.156 134.64 109.036 134.4 109.036 133.92 109.036 133.56 109.276 133.56 109.756 133.56 109.996 133.68 110.116 133.92 110.236 134.04 110.356 134.4 110.476 134.76 110.476 134.76 110.596 134.76 110.716 134.76 110.716 134.64 110.716 134.64 110.716 134.52 110.716 134.4 110.716 134.28 110.716 134.16 110.716 134.04 110.716 133.92 110.596 133.92 110.476L133.56 110.956C133.8 111.196 134.16 111.316 134.52 111.316 134.76 111.316 135 111.196 135.12 111.076 135.24 111.076 135.36 110.836 135.36 110.716V109.636C135.36 109.516 135.48 109.396 135.6 109.396ZM134.16 109.756C134.16 109.636 134.16 109.636 134.28 109.516 134.28 109.516 134.4 109.516 134.52 109.516 134.64 109.516 134.76 109.516 134.76 109.636V109.996C134.64 109.996 134.4 109.996 134.28 109.876L134.16 109.756Z" fill-rule="evenodd"/><path transform="matrix(1,0,0,-1,0,595.276)" d="M136.68 111.196H137.28V110.716H136.68V109.756C136.68 109.636 136.68 109.636 136.8 109.636 136.8 109.516 136.92 109.516 136.92 109.516H137.04C137.16 109.516 137.16 109.516 137.28 109.516V109.036C137.28 109.036 137.04 108.916 136.68 108.916 136.56 109.036 136.44 109.036 136.32 109.156 136.2 109.156 136.2 109.396 136.2 109.516V110.716H135.84V111.196H136.2V111.796L136.68 112.036V111.196Z" fill-rule="evenodd"/><path transform="matrix(1,0,0,-1,0,595.276)" d="M143.88 109.396 143.76 109.036C143.64 109.036 143.52 109.036 143.4 109.036 143.28 109.036 143.28 109.156 143.16 109.276 143.16 109.156 142.92 109.036 142.68 109.036 142.44 109.036 142.2 109.036 142.08 109.156 141.96 109.276 141.84 109.516 141.84 109.756 141.84 109.996 141.96 110.116 142.2 110.236 142.32 110.356 142.68 110.476 143.04 110.476 143.04 110.596 143.04 110.716 143.04 110.716 142.92 110.716 142.92 110.716 142.8 110.716 142.68 110.716 142.56 110.716 142.44 110.716 142.32 110.716 142.2 110.596 142.2 110.476L141.84 110.956C142.08 111.196 142.44 111.316 142.8 111.316 143.04 111.316 143.28 111.196 143.4 111.076 143.52 111.076 143.64 110.836 143.64 110.716V109.636C143.64 109.516 143.76 109.396 143.88 109.396ZM142.44 109.756C142.44 109.636 142.44 109.636 142.56 109.516 142.56 109.516 142.68 109.516 142.8 109.516 142.92 109.516 143.04 109.516 143.04 109.636V109.996C142.92 109.996 142.68 109.996 142.56 109.876L142.44 109.756Z" fill-rule="evenodd"/><path transform="matrix(1,0,0,-1,0,595.276)" d="M146.4 110.716C146.28 110.716 146.04 110.596 146.04 110.356V109.036H145.44V110.476C145.44 110.596 145.32 110.716 145.2 110.716 145.08 110.716 144.84 110.596 144.84 110.356V109.036H144.24V111.196H144.84V111.076C144.84 111.196 144.96 111.196 145.08 111.196 145.2 111.196 145.2 111.316 145.32 111.316 145.56 111.316 145.8 111.196 145.92 110.956 146.04 111.196 146.28 111.316 146.52 111.316 146.88 111.196 147.12 111.076 147.24 110.716V110.596 109.036H146.76V110.476C146.76 110.596 146.64 110.596 146.64 110.596 146.52 110.716 146.52 110.716 146.4 110.716Z" fill-rule="evenodd"/><path transform="matrix(1,0,0,-1,0,595.276)" d="M157.2 110.116C157.2 110.836 156.84 111.316 156.12 111.316 156 111.316 155.64 111.196 155.64 111.076V111.196H155.16V108.316H155.64V109.156C155.76 109.036 156 109.036 156.24 109.036 156.72 109.036 157.2 109.516 157.2 110.116ZM156.12 109.516C156 109.516 155.88 109.516 155.88 109.636 155.76 109.756 155.64 109.876 155.64 109.876V110.476C155.64 110.596 155.88 110.716 156.12 110.716 156.24 110.716 156.48 110.716 156.6 110.476V110.356 109.876C156.48 109.636 156.24 109.516 156.12 109.516Z" fill-rule="evenodd"/><path transform="matrix(1,0,0,-1,0,595.276)" d="M159.84 110.716C159.6 110.716 159.48 110.596 159.36 110.356V109.036H158.88V110.476C158.88 110.596 158.76 110.716 158.52 110.716 158.4 110.716 158.16 110.596 158.16 110.356V109.036H157.56V111.196H158.16V111.076C158.28 111.196 158.28 111.196 158.4 111.196 158.52 111.196 158.64 111.316 158.64 111.316 159 111.316 159.12 111.196 159.24 110.956 159.36 111.196 159.6 111.316 159.84 111.316 160.2 111.196 160.44 111.076 160.56 110.716 160.68 110.716 160.68 110.596 160.68 110.596V109.036H160.08V110.476C160.08 110.596 160.08 110.596 159.96 110.596 159.96 110.716 159.84 110.716 159.84 110.716Z" fill-rule="evenodd"/><path transform="matrix(1,0,0,-1,0,595.276)" d="M120.12 109.876 119.28 111.076V109.036H118.68V112.036H119.28L120.12 110.956 120.96 112.036H121.68V109.036H121.08V111.076Z" fill-rule="evenodd"/><path transform="matrix(1,0,0,-1,0,595.276)" d="M129.12 110.356H128.16V109.876H129.12Z" fill-rule="evenodd"/><path transform="matrix(1,0,0,-1,0,595.276)" d="M139.08 109.036H139.68L140.64 111.436V112.036H138.6V111.436H140.04Z" fill-rule="evenodd"/><path transform="matrix(1,0,0,-1,0,595.276)" d="M131.52 111.196C131.52 111.076 131.52 111.076 131.64 110.956 131.76 110.956 131.88 110.836 132.12 110.836 132.72 110.716 133.08 110.476 133.08 109.876 133.08 109.276 132.72 109.036 132 109.036 131.64 109.036 131.4 109.036 131.16 109.156 130.92 109.276 130.68 109.396 130.56 109.516L131.04 109.996C131.4 109.756 131.64 109.516 132 109.516 132.24 109.516 132.36 109.636 132.36 109.876 132.36 110.116 132.24 110.236 131.76 110.236 131.16 110.356 130.92 110.596 130.8 111.076 130.8 111.796 131.28 112.036 132 112.036 132.24 112.036 132.48 112.036 132.6 111.916 132.84 111.916 132.96 111.796 133.08 111.556L132.72 111.196C132.48 111.436 132.24 111.436 132 111.436 131.64 111.436 131.52 111.316 131.52 111.196Z" fill-rule="evenodd"/><path transform="matrix(1,0,0,-1,0,595.276)" d="M149.88 110.356H148.92V109.876H149.88Z" fill-rule="evenodd"/><path transform="matrix(1,0,0,-1,0,595.276)" d="M151.92 110.956V110.956H152.04C152.04 111.076 152.04 111.076 152.16 111.076 152.28 111.076 152.4 111.076 152.52 111.076 152.88 111.076 153.12 111.076 153.24 110.836 153.48 110.716 153.6 110.356 153.6 110.116V109.996C153.6 109.756 153.48 109.516 153.24 109.276 153.12 109.036 152.76 109.036 152.52 109.036 152.16 109.036 151.8 109.156 151.68 109.396 151.44 109.636 151.32 110.116 151.32 110.596 151.32 111.076 151.44 111.436 151.68 111.676 151.8 111.916 152.16 112.036 152.52 112.036 152.64 112.036 152.88 112.036 153.12 111.916 153.24 111.796 153.36 111.676 153.48 111.436L152.88 111.196C152.76 111.436 152.64 111.556 152.4 111.556 152.28 111.556 152.16 111.436 152.04 111.316V111.196C151.92 111.196 151.92 111.076 151.92 111.076V110.956ZM152.52 110.596C152.4 110.596 152.28 110.476 152.16 110.356 152.04 110.356 152.04 110.236 152.04 109.996 152.04 109.756 152.16 109.516 152.52 109.516 152.64 109.516 152.76 109.636 152.76 109.636 152.88 109.756 153 109.876 153 109.996 153 110.356 152.76 110.596 152.52 110.596Z" fill-rule="evenodd"/><path transform="matrix(1,0,0,-1,0,595.276)" d="M146.88 106.756H143.88V104.956H146.88V106.756ZM144.36 106.036V106.276H146.4V106.036H144.36ZM144.36 105.316V105.676H146.4V105.316H144.36Z" fill-rule="evenodd"/><path transform="matrix(1,0,0,-1,0,595.276)" d="M144.48 104.716 144 104.956 143.64 104.356 143.16 103.756 143.64 103.516 144.12 104.116H145.2V103.756H144V103.396H145.2V103.036H143.28V102.676H147.36V103.036H145.68V103.396H147V103.756H145.68V104.116H147.12V104.476H145.68V104.716L145.8 104.836H145.68L145.2 104.956V104.476H144.24Z" fill-rule="evenodd"/><path transform="matrix(1,0,0,-1,0,595.276)" d="M148.92 106.156V105.796H149.4V103.996H148.92V103.636H151.32V103.996H150.84V105.796H151.2V106.156H150.84V106.516L150.96 106.636V106.756H150.84 150.48V106.156H149.76V106.636H149.88V106.756H149.76 149.4V106.156H148.92ZM149.76 104.716V105.076H150.48V104.716H149.76ZM149.76 103.996V104.356H150.48V103.996H149.76ZM149.76 105.436V105.796H150.48V105.436H149.76Z" fill-rule="evenodd"/><path transform="matrix(1,0,0,-1,0,595.276)" d="M148.92 102.796 149.28 102.556 149.64 102.916 150 103.396 149.52 103.516 149.28 103.156Z" fill-rule="evenodd"/><path transform="matrix(1,0,0,-1,0,595.276)" d="M151.44 106.756V104.836 104.116 103.636L151.2 103.156 151.08 102.796 151.44 102.556 151.56 102.916 151.68 103.276 151.8 103.636V103.996H152.52V103.156 103.036L152.28 102.916H152.04L152.16 102.556 152.64 102.676H152.76L152.88 102.796 153 102.916V103.156 106.756H151.44ZM151.92 104.356V105.196H152.52V104.356H151.92ZM151.92 105.556V106.276H152.52V105.556H151.92Z" fill-rule="evenodd"/><path transform="matrix(1,0,0,-1,0,595.276)" d="M150.48 103.636 150.24 103.276 150.48 103.036 150.72 102.676 151.08 102.916 150.84 103.276Z" fill-rule="evenodd"/><path transform="matrix(1,0,0,-1,0,595.276)" d="M156.84 106.756H156.48V105.796H154.56V105.436H158.88V105.796H156.96V106.636H157.08V106.756H156.96Z" fill-rule="evenodd"/><path transform="matrix(1,0,0,-1,0,595.276)" d="M156.12 104.716 155.76 104.836V104.596L155.64 104.236 155.52 103.996 155.4 103.756 155.28 103.396 155.04 103.276 154.8 103.036 154.56 102.796 154.92 102.556 155.4 102.916 155.76 103.276 156 103.876 156.24 104.476 156.36 104.596 156.24 104.716Z" fill-rule="evenodd"/><path transform="matrix(1,0,0,-1,0,595.276)" d="M157.56 104.836 157.08 104.716 157.32 103.996 157.56 103.396 158.04 102.916 158.4 102.556 158.88 102.916 158.4 103.276 158.04 103.756 157.68 104.236Z" fill-rule="evenodd"/><path transform="matrix(1,0,0,-1,0,595.276)" d="M137.76 106.156H139.08L138.6 105.316 137.88 105.196 138 104.716H138.12L140.88 105.076 141.12 104.716 141.6 104.956 141.12 105.556 140.52 106.036 140.28 105.796 140.64 105.436 139.08 105.316 139.68 106.156H141.48V106.516H137.76Z" fill-rule="evenodd"/><path transform="matrix(1,0,0,-1,0,595.276)" d="M137.52 102.676H141.72V103.156H139.8V103.876H141.24V104.236H139.8V104.596L139.92 104.716V104.836H139.8 139.44V104.236H138V103.876H139.44V103.156H137.52Z" fill-rule="evenodd"/><path transform="matrix(1,0,0,-1,0,595.276)" d="M124.08 106.756H121.08V104.956H124.08V106.756ZM121.56 106.036V106.276H123.6V106.036H121.56ZM121.56 105.316V105.676H123.6V105.316H121.56Z" fill-rule="evenodd"/><path transform="matrix(1,0,0,-1,0,595.276)" d="M121.68 104.716 121.2 104.956 120.96 104.356 120.48 103.756 120.84 103.516 121.32 104.116H122.4V103.756H121.2V103.396H122.4V103.036H120.48V102.676H124.56V103.036H122.88V103.396H124.2V103.756H122.88V104.116H124.32V104.476H122.88V104.716L123 104.836H122.88L122.4 104.956V104.476H121.56Z" fill-rule="evenodd"/><path transform="matrix(1,0,0,-1,0,595.276)" d="M126.24 106.156V105.796H126.72V103.996H126.12V103.636H128.52V103.996H128.16V105.796H128.52V106.156H128.16V106.516 106.636H128.28L128.16 106.756H128.04 127.68V106.156H127.08V106.636H127.2L127.08 106.756H126.96 126.72V106.156H126.24ZM127.08 104.716V105.076H127.68V104.716H127.08ZM127.08 103.996V104.356H127.68V103.996H127.08ZM127.08 105.436V105.796H127.68V105.436H127.08Z" fill-rule="evenodd"/><path transform="matrix(1,0,0,-1,0,595.276)" d="M126.24 102.796 126.6 102.556 126.96 102.916 127.2 103.396 126.84 103.516 126.48 103.156Z" fill-rule="evenodd"/><path transform="matrix(1,0,0,-1,0,595.276)" d="M128.76 106.756V104.836 104.116L128.64 103.636 128.52 103.156 128.28 102.796 128.64 102.556 128.88 102.916 129 103.276 129.12 103.636V103.996H129.84V103.156L129.72 103.036 129.6 102.916H129.24L129.48 102.556 129.84 102.676H130.08L130.2 102.796V102.916 103.156 106.756H128.76ZM129.12 104.356V105.196H129.84V104.356H129.12ZM129.12 105.556V106.276H129.84V105.556H129.12Z" fill-rule="evenodd"/><path transform="matrix(1,0,0,-1,0,595.276)" d="M127.8 103.636 127.56 103.276 127.8 103.036 127.92 102.676 128.28 102.916 128.04 103.276Z" fill-rule="evenodd"/><path transform="matrix(1,0,0,-1,0,595.276)" d="M131.88 105.076V104.596H136.08V105.076Z" fill-rule="evenodd"/><path transform="matrix(1,0,0,-1,0,595.276)" d="M116.76 100.036H116.4V96.556H114.72V96.076H118.92V96.556H116.88V98.116H118.44V98.596H116.88V99.916H117V100.036H116.88Z" fill-rule="evenodd"/><path transform="matrix(1,0,0,-1,0,595.276)" d="M120.48 98.716 120.96 98.356 121.44 99.076H122.52V98.116H120.48V97.636H122.52V95.836H122.88V97.636H124.68V98.116H122.88V99.076H124.32V99.436H121.8L121.92 99.796H122.04L122.16 99.916H122.04L121.92 100.036 121.68 100.156 121.08 99.316Z" fill-rule="evenodd"/><path transform="matrix(1,0,0,-1,0,595.276)" d="M127.92 100.036H127.56V98.476L126.24 98.356V97.876L127.56 97.996V96.676 96.316L127.68 96.076 127.92 95.956H128.28 129.48 129.84L129.96 96.076 130.08 96.196 130.2 96.436 130.44 96.916 129.96 97.156 129.84 96.796V96.556H129.72L129.6 96.436H129.36 128.28 128.16L128.04 96.556V96.676 96.796 98.116L130.44 98.236V98.716L128.04 98.476V99.796L128.16 99.916V100.036Z" fill-rule="evenodd"/><path transform="matrix(1,0,0,-1,0,595.276)" d="M134.64 98.476H133.56V98.116H135.24V97.636H133.56V97.276H135.24V96.436L135.12 96.316 135 96.196H134.88 134.4L134.64 95.836H135 135.24L135.48 95.956V96.076L135.6 96.316V97.276H136.2V97.636H135.6V98.116H136.08V98.476H135V99.076H135.96V99.436H135V99.916H135.12V100.036H135 134.64V99.436H133.68V99.076H134.64Z" fill-rule="evenodd"/><path transform="matrix(1,0,0,-1,0,595.276)" d="M134.16 97.156 133.8 96.916 134.16 96.556 134.4 96.316 134.64 96.676 134.4 96.916Z" fill-rule="evenodd"/><path transform="matrix(1,0,0,-1,0,595.276)" d="M132 99.676V96.436 96.196H132.48V96.676H132.96V96.436H133.32V99.676H132ZM132.48 98.356V99.316H132.96V98.356H132.48ZM132.48 97.036V97.996H132.96V97.036H132.48Z" fill-rule="evenodd"/><path transform="matrix(1,0,0,-1,0,595.276)" d="M137.76 99.436H139.08L138.6 98.476H137.88L138 97.996H138.12L140.88 98.356 141.12 97.876 141.6 98.236 141.12 98.836 140.52 99.316 140.28 99.076 140.64 98.716 139.08 98.596 139.68 99.436H141.48V99.796H137.76Z" fill-rule="evenodd"/><path transform="matrix(1,0,0,-1,0,595.276)" d="M137.52 95.956H141.72V96.436H139.8V97.156H141.24V97.516H139.8V97.876L139.92 97.996 139.8 98.116H139.44V97.516H138V97.156H139.44V96.436H137.52Z" fill-rule="evenodd"/><path transform="matrix(1,0,0,-1,0,595.276)" d="M143.16 99.796V99.316H144.96V95.836H145.44V98.116L146.04 97.636 146.64 97.156 147 97.516 146.28 98.116 145.44 98.596V99.316H147.36V99.796Z" fill-rule="evenodd"/><path transform="matrix(1,0,0,-1,0,595.276)" d="M148.92 98.716 149.4 98.356 149.88 99.076H150.96V98.116H148.92V97.636H150.96V95.836H151.32V97.636H153.12V98.116H151.32V99.076H152.76V99.436H150.24L150.36 99.796H150.48V99.916L150.36 100.036 150.12 100.156 149.52 99.316Z" fill-rule="evenodd"/><path transform="matrix(1,0,0,-1,0,595.276)" d="M156.84 100.036H156.48V99.076H154.56V98.596H158.88V99.076H156.96V99.916H157.08V100.036H156.96Z" fill-rule="evenodd"/><path transform="matrix(1,0,0,-1,0,595.276)" d="M156.12 97.996 155.76 98.116V97.876L155.64 97.516 155.52 97.276 155.4 96.916 155.28 96.676 155.04 96.436 154.8 96.316 154.56 96.076 154.92 95.836 155.4 96.196 155.76 96.556 156 97.156 156.24 97.756 156.36 97.876 156.24 97.996Z" fill-rule="evenodd"/><path transform="matrix(1,0,0,-1,0,595.276)" d="M157.56 98.116 157.08 97.996 157.32 97.276 157.56 96.676 158.04 96.196 158.4 95.836 158.88 96.196 158.4 96.556 158.04 96.916 157.68 97.516Z" fill-rule="evenodd"/><path transform="matrix(1,0,0,-1,0,595.276)" d="M162.96 98.476H161.88V98.116H163.56V97.636H161.88V97.276H163.56V96.436 96.316H163.44L163.32 96.196H163.2 162.72L162.96 95.836H163.32 163.56L163.8 95.956 163.92 96.076V96.316 97.276H164.64V97.636H163.92V98.116H164.52V98.476H163.44V99.076H164.28V99.436H163.44V99.916 100.036H163.32 162.96V99.436H162V99.076H162.96Z" fill-rule="evenodd"/><path transform="matrix(1,0,0,-1,0,595.276)" d="M162.48 97.156 162.24 96.916 162.48 96.556 162.72 96.316 162.96 96.676 162.72 96.916Z" fill-rule="evenodd"/><path transform="matrix(1,0,0,-1,0,595.276)" d="M160.32 99.676V96.436 96.196H160.8V96.676H161.28V96.436H161.64V99.676H160.32ZM160.8 98.356V99.316H161.28V98.356H160.8ZM160.8 97.036V97.996H161.28V97.036H160.8Z" fill-rule="evenodd"/></g></svg>