<?xml version='1.0' encoding='UTF-8'?>
<svg width="550.78" height="267.58" viewBox="7.48 1.93 550.78 267.58" xmlns="http://www.w3.org/2000/svg" xmlns:xlink="http://www.w3.org/1999/xlink" xmlns:inkscape="http://www.inkscape.org/namespaces/inkscape" version="1.1"><g transform="scale(10.0) translate(-438.573, -101.088)"><defs><clipPath id="clip_2"><path transform="matrix(1,0,0,-1,0,595.276)" d="M74.4 .196H767.4V595.276H74.4Z"/></clipPath></defs><path transform="matrix(1,0,0,-1,0,595.276)" d="M492.36 493.396H441.48C441.12 493.396 440.64 493.156 440.4 492.916 440.04 492.556 439.92 492.196 439.92 491.836V469.276C439.92 468.916 440.04 468.556 440.4 468.316 440.64 467.956 441.12 467.836 441.48 467.836H492.36C492.48 467.836 492.72 467.836 492.84 467.956 493.08 467.956 493.2 468.076 493.32 468.316 493.56 468.436 493.68 468.556 493.68 468.796 493.8 468.916 493.8 469.156 493.8 469.276V491.836C493.8 492.196 493.68 492.556 493.32 492.916 493.08 493.156 492.72 493.396 492.36 493.396ZM492.36 492.556C492.48 492.556 492.72 492.556 492.84 492.436 492.96 492.196 493.08 492.076 493.08 491.836V469.276C493.08 469.156 492.96 468.916 492.84 468.796 492.72 468.676 492.48 468.556 492.36 468.556H441.48C441.36 468.556 441.24 468.556 441.12 468.676 441.12 468.676 441 468.676 440.88 468.796 440.76 468.916 440.76 469.156 440.76 469.276V491.836C440.76 491.956 440.76 492.076 440.76 492.196 440.76 492.196 440.88 492.316 440.88 492.436 441.12 492.556 441.24 492.556 441.48 492.556H492.36Z" fill-rule="evenodd"/><path transform="matrix(1,0,0,-1,0,595.276)" d="M441.48 492.556H492.36C492.48 492.556 492.48 492.556 492.6 492.556 492.72 492.556 492.84 492.436 492.84 492.436 492.96 492.316 492.96 492.196 492.96 492.196 493.08 492.076 493.08 491.956 493.08 491.836V469.276C493.08 469.156 492.96 468.916 492.84 468.796 492.72 468.676 492.48 468.556 492.36 468.556H441.48C441.24 468.556 441.12 468.676 440.88 468.796 440.88 468.916 440.76 468.916 440.76 469.036 440.76 469.156 440.76 469.276 440.76 469.276V491.836C440.76 492.316 441 492.556 441.48 492.556Z" fill="#ffffff" fill-rule="evenodd"/><path transform="matrix(1,0,0,-1,0,595.276)" d="M458.88 487.876H460.56V488.716H458.88V489.436H460.68V490.276H458.04V486.316H460.92V487.156H458.88Z" fill-rule="evenodd"/><path transform="matrix(1,0,0,-1,0,595.276)" d="M463.32 489.196H464.16L463.32 487.756 464.16 486.316H463.32L462.84 487.156 462.36 486.316H461.4L462.36 487.756 461.52 489.196H462.36L462.84 488.356Z" fill-rule="evenodd"/><path transform="matrix(1,0,0,-1,0,595.276)" d="M465.96 489.316C466.32 489.316 466.56 489.196 466.8 489.076 467.04 488.956 467.16 488.716 467.28 488.356L466.68 488.116C466.56 488.356 466.32 488.596 465.96 488.596 465.72 488.596 465.48 488.356 465.36 487.876V487.756C465.36 487.636 465.36 487.636 465.36 487.516 465.48 487.156 465.72 486.916 466.08 486.916 466.2 486.916 466.32 486.916 466.44 487.036 466.44 487.036 466.56 487.276 466.68 487.396L467.28 487.156C467.16 486.436 466.68 486.196 466.08 486.196 465.12 486.196 464.64 486.676 464.64 487.756 464.64 488.716 465.12 489.316 465.96 489.316Z" fill-rule="evenodd"/><path transform="matrix(1,0,0,-1,0,595.276)" d="M470.28 487.516C470.28 488.596 469.92 489.196 468.96 489.316 468.12 489.316 467.76 488.716 467.64 487.756 467.64 487.276 467.76 487.036 468 486.676 468.24 486.316 468.72 486.196 469.08 486.196 469.56 486.196 470.04 486.436 470.16 486.676L469.8 487.156C469.68 487.036 469.32 486.916 469.08 486.916 468.96 486.916 468.84 486.916 468.72 487.036 468.6 487.156 468.6 487.156 468.6 487.276 468.48 487.276 468.48 487.396 468.48 487.516H470.28ZM468.48 487.996V488.116C468.48 488.236 468.48 488.356 468.6 488.476 468.72 488.476 468.84 488.596 468.96 488.596 469.2 488.596 469.44 488.356 469.56 488.116V487.996H468.48Z" fill-rule="evenodd"/><path transform="matrix(1,0,0,-1,0,595.276)" d="M473.64 487.756C473.64 488.236 473.64 488.596 473.4 488.836 473.16 489.196 472.8 489.316 472.32 489.316 472.08 489.316 471.72 489.196 471.6 489.076V489.196H470.88V485.356H471.72V486.436C471.72 486.316 472.08 486.196 472.44 486.196 473.16 486.196 473.64 486.796 473.64 487.756ZM472.32 486.916C472.2 486.916 471.96 486.916 471.84 487.036 471.72 487.156 471.72 487.276 471.72 487.396V488.116C471.72 488.356 471.96 488.596 472.2 488.596H472.32C472.44 488.596 472.8 488.476 472.92 488.236V488.116 487.516 487.396 487.276C472.8 487.036 472.44 486.916 472.32 486.916Z" fill-rule="evenodd"/><path transform="matrix(1,0,0,-1,0,595.276)" d="M475.32 489.196H476.04V488.476H475.32V487.156C475.32 487.156 475.32 487.036 475.44 487.036 475.44 486.916 475.56 486.916 475.68 486.916H475.8C475.92 486.916 475.92 486.916 476.04 486.916L476.16 486.316C476.04 486.196 475.68 486.196 475.32 486.196 475.08 486.196 474.96 486.196 474.84 486.316 474.6 486.436 474.6 486.676 474.6 486.916V488.476H474.12V489.196H474.6V490.036L475.32 490.276V489.196Z" fill-rule="evenodd"/><path transform="matrix(1,0,0,-1,0,595.276)" d="M450 480.556V483.436H449.16C449.16 483.556 448.92 483.676 448.56 483.676 447.72 483.556 447.24 483.076 447.24 482.116 447.36 481.156 447.72 480.796 448.56 480.676 448.68 480.676 448.8 480.796 448.92 480.796 449.04 480.796 449.04 480.916 449.16 480.916V480.796C449.04 480.556 448.92 480.316 448.68 480.316 448.56 480.316 448.44 480.316 448.2 480.436 448.08 480.436 447.84 480.556 447.6 480.676L447.24 479.956C447.6 479.716 448.08 479.596 448.56 479.596 449.4 479.596 449.88 479.956 450 480.556ZM449.16 482.476V481.756C449.16 481.756 449.04 481.636 448.92 481.516 448.92 481.516 448.8 481.396 448.68 481.396 448.32 481.396 448.08 481.636 448.08 482.116 448.08 482.596 448.32 482.836 448.68 482.836 448.92 482.836 449.04 482.716 449.16 482.476Z" fill-rule="evenodd"/><path transform="matrix(1,0,0,-1,0,595.276)" d="M453.48 482.116C453.48 483.076 453 483.676 452.04 483.676 451.2 483.676 450.72 483.076 450.72 482.116 450.72 481.036 451.2 480.556 452.04 480.556 453 480.556 453.48 481.036 453.48 482.116ZM452.64 482.116C452.64 481.876 452.64 481.636 452.52 481.516 452.4 481.396 452.28 481.276 452.04 481.276 451.92 481.276 451.8 481.396 451.68 481.516 451.56 481.636 451.56 481.876 451.56 482.116 451.56 482.356 451.56 482.476 451.68 482.596 451.8 482.716 451.92 482.836 452.04 482.836 452.28 482.836 452.4 482.716 452.52 482.596 452.64 482.476 452.64 482.356 452.64 482.116Z" fill-rule="evenodd"/><path transform="matrix(1,0,0,-1,0,595.276)" d="M456.72 482.116C456.72 483.076 456.24 483.676 455.4 483.676 454.44 483.676 453.96 483.076 453.96 482.116 453.96 481.036 454.44 480.556 455.4 480.556 456.24 480.556 456.72 481.036 456.72 482.116ZM456 482.116C456 481.876 455.88 481.636 455.76 481.516 455.64 481.396 455.52 481.276 455.4 481.276 455.16 481.276 455.04 481.396 454.92 481.516 454.8 481.636 454.8 481.876 454.8 482.116 454.8 482.356 454.8 482.476 454.92 482.596 455.04 482.716 455.16 482.836 455.4 482.836 455.52 482.836 455.64 482.716 455.76 482.596 455.88 482.476 456 482.356 456 482.116Z" fill-rule="evenodd"/><path transform="matrix(1,0,0,-1,0,595.276)" d="M459.24 483.316V484.636H459.96V480.556H459.24V480.676C459.12 480.556 458.88 480.556 458.52 480.556 457.92 480.436 457.32 480.916 457.2 481.876V481.996 482.236 482.356C457.32 483.076 457.8 483.556 458.52 483.556 458.64 483.556 459 483.556 459.24 483.316ZM459.24 481.636V482.236C459.24 482.356 459.24 482.476 459.24 482.476 459.24 482.596 459.12 482.596 459.12 482.596V482.716C459 482.716 458.76 482.836 458.64 482.836 458.28 482.836 458.04 482.596 457.92 481.996 457.92 481.516 458.16 481.276 458.64 481.156 458.88 481.156 459.12 481.396 459.24 481.636Z" fill-rule="evenodd"/><path transform="matrix(1,0,0,-1,0,595.276)" d="M463.08 481.516C463.08 482.116 462.72 482.356 462.12 482.476 461.88 482.476 461.76 482.476 461.64 482.596H461.52V482.716C461.52 482.836 461.64 482.956 461.88 482.956 462.12 482.956 462.24 482.956 462.24 482.836 462.36 482.836 462.48 482.716 462.6 482.596L463.08 483.196C462.84 483.436 462.48 483.676 462 483.676 461.16 483.676 460.8 483.316 460.68 482.596 460.8 482.116 461.04 481.876 461.52 481.756 462 481.756 462.24 481.636 462.24 481.516 462.24 481.396 462.24 481.396 462.12 481.276 462.12 481.276 462 481.276 461.88 481.276 461.76 481.276 461.64 481.276 461.4 481.396 461.28 481.396 461.16 481.516 461.04 481.636L460.56 481.036C460.8 480.676 461.28 480.556 461.88 480.556 462.6 480.556 463.08 480.916 463.08 481.516Z" fill-rule="evenodd"/><path transform="matrix(1,0,0,-1,0,595.276)" d="M465.72 480.676 464.76 483.436H465.6L466.2 481.516 466.8 483.436H467.64L466.68 480.676H466.2Z" fill-rule="evenodd"/><path transform="matrix(1,0,0,-1,0,595.276)" d="M470.52 481.756C470.64 482.956 470.16 483.556 469.2 483.676 468.48 483.556 468 483.076 468 482.116 468 481.636 468 481.276 468.24 481.036 468.6 480.676 468.96 480.556 469.44 480.556 469.92 480.436 470.4 480.676 470.52 481.036L470.04 481.516C469.92 481.276 469.68 481.276 469.44 481.276 469.2 481.276 469.08 481.276 468.96 481.396L468.84 481.516C468.84 481.636 468.72 481.756 468.72 481.756H470.52ZM468.72 482.356V482.356C468.72 482.476 468.84 482.596 468.96 482.716 469.08 482.836 469.2 482.956 469.32 482.956 469.56 482.956 469.8 482.716 469.8 482.476V482.356H468.72Z" fill-rule="evenodd"/><path transform="matrix(1,0,0,-1,0,595.276)" stroke-width=".12" stroke-linecap="butt" stroke-miterlimit="10" stroke-linejoin="miter" fill="none" stroke="#000000" d="M472.5 482.5H473.5"/><path transform="matrix(1,0,0,-1,0,595.276)" stroke-width=".12" stroke-linecap="butt" stroke-miterlimit="10" stroke-linejoin="miter" fill="none" stroke="#000000" d="M472.5 482.5H473.5"/><path transform="matrix(1,0,0,-1,0,595.276)" d="M472.92 482.356V482.356C472.92 482.596 472.68 482.836 472.44 482.836 472.32 482.836 472.2 482.836 472.08 482.716 471.96 482.596 471.96 482.476 471.96 482.356V480.676H471.12V484.636H471.96V483.436C472.08 483.556 472.32 483.556 472.44 483.556 472.68 483.676 472.92 483.556 473.04 483.556 473.28 483.436 473.4 483.316 473.52 483.076 473.64 482.956 473.76 482.716 473.76 482.476V480.676H472.92V482.356Z" fill-rule="evenodd"/><path transform="matrix(1,0,0,-1,0,595.276)" d="M475.44 480.676V483.436H474.72V480.676Z" fill-rule="evenodd"/><path transform="matrix(1,0,0,-1,0,595.276)" d="M475.44 484.276C475.44 484.516 475.32 484.636 475.08 484.636 474.84 484.636 474.6 484.516 474.6 484.276 474.6 484.036 474.84 483.796 475.08 483.796 475.32 483.796 475.44 484.036 475.44 484.276Z" fill-rule="evenodd"/><path transform="matrix(1,0,0,-1,0,595.276)" d="M477.48 483.676C477.72 483.676 478.08 483.556 478.2 483.436 478.44 483.316 478.56 483.076 478.68 482.716L478.08 482.476C477.96 482.716 477.72 482.956 477.48 482.836 477.12 482.836 476.88 482.716 476.88 482.236L476.76 482.116C476.76 481.996 476.88 481.876 476.88 481.876 477 481.396 477.12 481.276 477.48 481.276 477.6 481.276 477.72 481.276 477.84 481.396 477.96 481.396 478.08 481.516 478.08 481.756L478.8 481.396C478.56 480.796 478.2 480.436 477.48 480.556 476.52 480.556 476.04 481.036 476.04 482.116 476.16 483.076 476.64 483.556 477.48 483.676Z" fill-rule="evenodd"/><path transform="matrix(1,0,0,-1,0,595.276)" d="M480 484.636V481.516 481.396C480 481.276 480.12 481.276 480.48 481.396L480.6 480.676C480.6 480.676 480.48 480.556 480.36 480.556 480.24 480.556 480.12 480.556 480 480.556 479.52 480.556 479.28 480.796 479.16 481.036V481.156 481.276 484.636H480Z" fill-rule="evenodd"/><path transform="matrix(1,0,0,-1,0,595.276)" d="M483.6 481.756C483.6 482.956 483.12 483.556 482.16 483.676 481.44 483.556 480.96 483.076 480.96 482.116 480.96 481.636 481.08 481.276 481.2 481.036 481.56 480.676 481.92 480.556 482.4 480.556 482.88 480.436 483.36 480.676 483.48 481.036L483 481.516C482.88 481.276 482.64 481.276 482.4 481.276 482.28 481.276 482.04 481.276 481.92 481.396L481.8 481.516C481.8 481.636 481.8 481.756 481.8 481.756H483.6ZM481.68 482.356V482.356C481.68 482.476 481.8 482.596 481.92 482.716 482.04 482.836 482.16 482.956 482.28 482.956 482.52 482.956 482.76 482.716 482.76 482.476V482.356H481.68Z" fill-rule="evenodd"/><path transform="matrix(1,0,0,-1,0,595.276)" d="M486.48 481.516C486.48 482.116 486.24 482.356 485.52 482.476 485.28 482.476 485.16 482.476 485.04 482.596H484.92V482.716C484.92 482.836 485.04 482.956 485.4 482.956 485.52 482.956 485.64 482.956 485.64 482.836 485.76 482.836 485.88 482.716 486 482.596L486.48 483.196C486.24 483.436 485.88 483.676 485.4 483.676 484.56 483.676 484.2 483.316 484.08 482.596 484.2 482.116 484.44 481.876 485.04 481.756 485.4 481.756 485.64 481.636 485.64 481.516 485.64 481.396 485.64 481.396 485.52 481.276 485.52 481.276 485.4 481.276 485.28 481.276 485.16 481.276 485.04 481.276 484.8 481.396 484.68 481.396 484.56 481.516 484.44 481.636L483.96 481.036C484.2 480.676 484.68 480.556 485.28 480.556 486 480.556 486.48 480.916 486.48 481.516Z" fill-rule="evenodd"/><path transform="matrix(1,0,0,-1,0,595.276)" d="M452.16 476.476 452.64 475.996 453.36 476.476V475.636H453.96V476.836L454.44 477.196H454.56V477.316L454.44 477.436 453.96 477.556 453.6 477.196 453.12 476.956 452.64 476.596Z" fill-rule="evenodd"/><path transform="matrix(1,0,0,-1,0,595.276)" d="M453.12 475.396V472.636H454.08L453.24 472.276 452.4 472.036 452.88 471.556 453.84 471.916 454.68 472.276 454.32 472.636H456L455.76 472.396 456.72 471.916 457.56 471.676 458.04 472.156 457.08 472.276 456.24 472.636H457.2V475.396H453.12ZM453.72 474.676V474.916H456.6V474.676H453.72ZM453.72 473.116V473.356H456.6V473.116H453.72ZM453.72 473.836V474.196H456.6V473.836H453.72Z" fill-rule="evenodd"/><path transform="matrix(1,0,0,-1,0,595.276)" d="M454.92 477.556V476.236L455.04 475.996 455.16 475.876 455.28 475.756H455.64 457.56 457.8L457.92 475.876 458.04 476.116 458.16 476.356 457.56 476.596V476.476L457.44 476.356 457.32 476.236H457.08 455.88 455.64L455.52 476.476 457.56 476.836H457.8V476.956 477.076L457.68 477.196 457.44 477.436 456.48 477.196 455.52 476.836V477.196L455.76 477.316V477.436H455.64 455.4Z" fill-rule="evenodd"/><path transform="matrix(1,0,0,-1,0,595.276)" d="M460.44 476.956V476.476H462.72V475.996H461.04V473.476H462.72V473.116H460.2V472.516H462.72V471.676H463.2V472.516H465.84V473.116H463.2V473.476H465V475.996H463.2V476.476H465.48V476.956H463.2V477.196L463.32 477.316V477.436H463.2L462.72 477.556V476.956H460.44ZM461.52 475.036V475.516H462.72V475.036H461.52ZM461.52 473.956V474.556H462.72V473.956H461.52ZM463.2 475.036V475.516H464.4V475.036H463.2ZM463.2 473.956V474.556H464.4V473.956H463.2Z" fill-rule="evenodd"/><path transform="matrix(1,0,0,-1,0,595.276)" d="M467.64 474.916 468.12 474.556 468.48 475.036V471.676H469.08V476.116L469.56 477.076V476.596H470.16L470.04 475.756 469.8 475.036 469.56 474.436 469.2 473.956 469.8 473.476 470.04 473.956 470.64 473.596 470.4 473.116 470.04 472.876 469.68 472.516 469.2 472.276 469.68 471.916 470.16 472.156 470.52 472.396 470.88 472.756 471.24 473.236 471.36 473.716 471.6 474.316V475.036 475.756H470.52L470.64 476.596H471.72V477.076H469.68V477.196L469.56 477.316 469.08 477.556 468.72 476.836 468.48 476.116 468.12 475.516 467.64 474.916ZM470.4 475.156H471.12L470.88 474.076 470.16 474.436 470.4 475.156Z" fill-rule="evenodd"/><path transform="matrix(1,0,0,-1,0,595.276)" d="M471.96 476.716V472.996H472.56V476.476 476.596 476.716Z" fill-rule="evenodd"/><path transform="matrix(1,0,0,-1,0,595.276)" d="M473.04 477.436V472.756 472.516L472.92 472.396 472.8 472.276H472.68 472.08L472.32 471.676 473.04 471.796H473.28L473.4 472.036 473.52 472.276V472.516 477.196H473.64L473.76 477.316H473.64L473.52 477.436Z" fill-rule="evenodd"/><path transform="matrix(1,0,0,-1,0,595.276)" d="M477.36 477.436 477 477.556 476.88 476.716 476.52 475.876 476.16 475.156 475.68 474.556 476.16 474.076 476.76 474.916 477.24 475.756H478.2L477.96 475.036 477.84 474.436 477.12 474.916 476.64 474.436 477.12 474.196 477.48 473.836 477.24 473.356 476.88 472.876 476.28 472.636 475.68 472.276 476.16 471.796 476.64 471.916 477.12 472.276 477.48 472.636 477.84 473.116 478.2 473.716 478.44 474.436 478.68 475.276 478.92 476.116 478.56 476.476 478.32 476.356H477.36L477.6 477.076 477.72 477.196V477.316 477.436Z" fill-rule="evenodd"/><path transform="matrix(1,0,0,-1,0,595.276)" d="M480.12 477.436H479.76V475.036L479.28 475.516 478.92 475.156 479.28 474.676 479.76 474.196V471.676H480.36V473.716L481.2 473.236 481.68 473.836 480.96 474.196 480.36 474.556V477.196L480.48 477.316 480.36 477.436Z" fill-rule="evenodd"/></g></svg>