<?xml version='1.0' encoding='UTF-8'?>
<svg width="554.47" height="218.47" viewBox="6.17 26.72 554.47 218.47" xmlns="http://www.w3.org/2000/svg" xmlns:xlink="http://www.w3.org/1999/xlink" xmlns:inkscape="http://www.inkscape.org/namespaces/inkscape" version="1.1"><g transform="scale(10.0) translate(-329.439, -20.304)"><defs><clipPath id="clip_2"><path transform="matrix(1,0,0,-1,0,595.276)" d="M74.4 .196H767.4V595.276H74.4Z"/></clipPath></defs><path transform="matrix(1,0,0,-1,0,595.276)" d="M331.44 571.756H384.12C384.24 571.756 384.36 571.636 384.48 571.636 384.6 571.636 384.6 571.516 384.72 571.516 384.84 571.396 384.84 571.276 384.96 571.156 384.96 571.036 384.96 570.916 384.96 570.916V551.836C384.96 551.596 384.84 551.356 384.72 551.236 384.6 551.116 384.6 551.116 384.48 550.996 384.36 550.996 384.24 550.996 384.12 550.996H331.44C331.2 550.996 331.08 551.116 330.84 551.236 330.72 551.356 330.6 551.596 330.6 551.836V570.916C330.6 571.036 330.72 571.276 330.84 571.516 330.96 571.516 331.08 571.636 331.08 571.636 331.2 571.636 331.32 571.756 331.44 571.756ZM331.44 571.276C331.32 571.276 331.2 571.276 331.2 571.156 331.08 571.036 331.08 571.036 331.08 570.916V551.836C331.08 551.716 331.08 551.596 331.2 551.476 331.2 551.476 331.32 551.356 331.44 551.356H384.12C384.24 551.356 384.24 551.476 384.24 551.476 384.36 551.476 384.36 551.476 384.48 551.476 384.48 551.596 384.6 551.716 384.6 551.836V570.916C384.6 571.036 384.48 571.036 384.48 571.156 384.36 571.276 384.24 571.276 384.12 571.276H331.44Z" fill-rule="evenodd"/><path transform="matrix(1,0,0,-1,0,595.276)" d="M331.44 571.276H384.12 384.24C384.36 571.276 384.36 571.156 384.48 571.156V571.036C384.6 571.036 384.6 570.916 384.6 570.916V551.836C384.6 551.716 384.48 551.596 384.48 551.476 384.36 551.476 384.36 551.476 384.24 551.476 384.24 551.476 384.24 551.356 384.12 551.356H331.44C331.32 551.356 331.2 551.476 331.2 551.476 331.08 551.596 331.08 551.596 331.08 551.716V551.836 570.916C331.08 571.036 331.08 571.036 331.2 571.156 331.2 571.276 331.32 571.276 331.44 571.276Z" fill="#ffffff" fill-rule="evenodd"/><path transform="matrix(1,0,0,-1,0,595.276)" d="M339 568.156C339 568.036 339 568.036 339.12 567.916 339.12 567.916 339.24 567.916 339.48 567.796 340.08 567.796 340.32 567.436 340.32 567.076 340.32 566.476 339.96 566.236 339.36 566.236 339.12 566.236 338.88 566.236 338.64 566.356 338.4 566.356 338.28 566.596 338.16 566.716L338.64 567.076C338.88 566.836 339.12 566.716 339.36 566.716 339.6 566.716 339.72 566.836 339.72 567.076 339.72 567.196 339.6 567.316 339.12 567.316 338.64 567.316 338.4 567.676 338.4 568.036 338.4 568.636 338.76 568.876 339.36 568.876 339.6 568.876 339.72 568.876 339.96 568.756 340.08 568.756 340.2 568.636 340.44 568.516L339.96 568.156C339.72 568.276 339.6 568.396 339.36 568.396 339.12 568.396 339 568.276 339 568.156Z" fill-rule="evenodd"/><path transform="matrix(1,0,0,-1,0,595.276)" d="M342.6 566.596 342.48 566.236C342.36 566.236 342.24 566.236 342.12 566.236L342 566.356C341.88 566.356 341.64 566.236 341.52 566.236 341.04 566.236 340.8 566.476 340.8 566.836 340.8 567.076 340.92 567.196 341.04 567.316 341.28 567.436 341.52 567.436 341.88 567.436V567.556 567.676H341.76C341.76 567.796 341.76 567.796 341.64 567.796 341.52 567.796 341.4 567.796 341.28 567.676 341.28 567.676 341.16 567.676 341.04 567.556L340.8 567.916C341.04 568.156 341.28 568.156 341.64 568.156 341.88 568.156 342 568.156 342.12 568.036 342.24 568.036 342.36 567.796 342.36 567.676V566.716C342.36 566.596 342.48 566.596 342.6 566.596ZM341.28 566.836 341.4 566.716C341.4 566.596 341.52 566.596 341.64 566.596 341.76 566.716 341.88 566.716 341.88 566.716V567.076C341.64 567.076 341.52 567.076 341.52 566.956 341.4 566.956 341.28 566.956 341.28 566.836Z" fill-rule="evenodd"/><path transform="matrix(1,0,0,-1,0,595.276)" d="M343.56 568.156H344.04V567.676H343.56V566.836 566.716C343.68 566.716 343.68 566.716 343.8 566.716H343.92 344.04V566.236C344.04 566.236 343.8 566.236 343.56 566.236 343.44 566.236 343.32 566.236 343.2 566.356 343.08 566.356 343.08 566.476 343.08 566.716V567.676H342.72V568.156H343.08V568.636L343.56 568.876V568.156Z" fill-rule="evenodd"/><path transform="matrix(1,0,0,-1,0,595.276)" d="M345.6 568.156H346.2V566.236H345.6V566.356C345.6 566.356 345.6 566.236 345.48 566.236 345.36 566.236 345.24 566.236 345.12 566.236 345 566.236 344.76 566.236 344.64 566.356 344.64 566.476 344.52 566.476 344.52 566.596 344.52 566.596 344.52 566.716 344.52 566.836V568.156H345V566.956 566.836H345.12C345.12 566.716 345.24 566.716 345.24 566.716 345.36 566.716 345.48 566.716 345.48 566.836 345.6 566.836 345.6 566.956 345.6 567.076V568.156Z" fill-rule="evenodd"/><path transform="matrix(1,0,0,-1,0,595.276)" d="M346.68 566.236V568.156H347.16V567.916C347.16 568.036 347.28 568.156 347.28 568.156 347.4 568.156 347.52 568.156 347.76 568.156V567.676C347.52 567.676 347.4 567.676 347.28 567.556 347.16 567.556 347.16 567.436 347.16 567.316V566.236H346.68Z" fill-rule="evenodd"/><path transform="matrix(1,0,0,-1,0,595.276)" d="M349.32 566.356C349.2 566.236 349.08 566.236 348.84 566.236 348.36 566.236 348 566.476 348 567.076V567.196 567.316C348 567.916 348.36 568.156 348.84 568.156 348.96 568.156 349.08 568.156 349.32 568.036V568.876H349.8V566.236H349.32V566.356ZM349.32 566.836V567.316 567.436L349.2 567.556C349.08 567.676 348.96 567.676 348.96 567.676 348.6 567.676 348.48 567.556 348.48 567.196 348.48 566.836 348.6 566.716 348.84 566.596 349.08 566.716 349.2 566.716 349.32 566.836Z" fill-rule="evenodd"/><path transform="matrix(1,0,0,-1,0,595.276)" d="M351.84 566.596 351.72 566.236C351.6 566.236 351.48 566.236 351.48 566.236 351.36 566.356 351.36 566.356 351.24 566.356 351.24 566.356 351 566.236 350.88 566.236 350.4 566.236 350.16 566.476 350.16 566.836 350.16 567.316 350.52 567.436 351.12 567.436V567.556C351.24 567.676 351.12 567.676 351.12 567.676 351.12 567.796 351 567.796 351 567.796 350.88 567.796 350.76 567.796 350.64 567.676 350.52 567.676 350.52 567.676 350.4 567.556L350.16 567.916C350.28 568.156 350.64 568.156 351 568.156 351.12 568.156 351.36 568.156 351.48 568.036 351.6 568.036 351.72 567.796 351.72 567.676V566.716C351.72 566.596 351.84 566.596 351.84 566.596ZM350.64 566.836C350.64 566.836 350.64 566.716 350.76 566.716 350.76 566.596 350.88 566.596 350.88 566.596L351.12 566.716V567.076C351 567.076 350.88 567.076 350.76 566.956 350.64 566.956 350.64 566.956 350.64 566.836Z" fill-rule="evenodd"/><path transform="matrix(1,0,0,-1,0,595.276)" d="M353.76 568.156H353.28L352.92 566.956 352.56 568.156H352.08L352.56 566.476 352.68 566.356V566.236C352.68 566.116 352.68 566.116 352.56 566.116H352.44C352.32 566.116 352.32 566.116 352.2 566.116V565.756C352.44 565.636 352.56 565.636 352.8 565.636 352.8 565.636 352.92 565.636 352.92 565.756 353.04 565.756 353.04 565.876 353.16 565.996L353.76 568.156Z" fill-rule="evenodd"/><path transform="matrix(1,0,0,-1,0,595.276)" d="M355.68 566.836C355.68 567.196 355.56 567.436 355.08 567.436 354.96 567.436 354.84 567.556 354.84 567.556 354.72 567.556 354.72 567.556 354.72 567.676 354.72 567.676 354.84 567.796 354.96 567.796 355.08 567.796 355.08 567.796 355.2 567.676 355.32 567.676 355.32 567.676 355.32 567.556L355.68 567.916C355.56 568.156 355.32 568.156 354.96 568.276 354.48 568.276 354.24 568.036 354.24 567.556 354.24 567.196 354.36 567.076 354.72 566.956 354.96 566.956 355.2 566.956 355.2 566.836 355.2 566.716 355.2 566.716 355.08 566.716H354.96C354.84 566.716 354.72 566.716 354.72 566.716 354.6 566.836 354.48 566.836 354.48 566.956L354.12 566.596C354.24 566.356 354.6 566.236 354.96 566.236 355.44 566.236 355.68 566.476 355.68 566.836Z" fill-rule="evenodd"/><path transform="matrix(1,0,0,-1,0,595.276)" d="M358.68 566.236V567.556C358.68 568.036 358.44 568.156 357.96 568.156 357.84 568.156 357.72 568.156 357.72 568.156 357.6 568.156 357.6 568.036 357.48 568.036V568.156H357V566.236H357.48V567.436C357.48 567.556 357.6 567.676 357.84 567.676 357.96 567.676 358.08 567.556 358.08 567.436V567.316 566.236H358.68Z" fill-rule="evenodd"/><path transform="matrix(1,0,0,-1,0,595.276)" d="M360.84 567.196C360.84 567.796 360.48 568.156 360 568.156 359.4 568.156 359.04 567.796 359.04 567.196 359.04 566.596 359.4 566.236 360 566.236 360.48 566.236 360.84 566.596 360.84 567.196ZM360.36 567.196C360.36 567.076 360.24 566.956 360.24 566.836 360.12 566.716 360.12 566.716 360 566.716 359.88 566.716 359.76 566.716 359.64 566.836 359.64 566.956 359.64 567.076 359.64 567.196 359.64 567.316 359.64 567.436 359.64 567.556 359.76 567.676 359.88 567.676 360 567.676 360.12 567.676 360.12 567.676 360.24 567.556 360.24 567.436 360.36 567.316 360.36 567.196Z" fill-rule="evenodd"/><path transform="matrix(1,0,0,-1,0,595.276)" d="M362.88 567.196C362.88 567.796 362.64 568.156 362.04 568.156 361.44 568.156 361.08 567.796 361.08 567.196 361.08 566.596 361.44 566.236 362.04 566.236 362.64 566.236 362.88 566.596 362.88 567.196ZM362.4 567.196C362.4 567.076 362.4 566.956 362.28 566.836 362.28 566.716 362.16 566.716 362.04 566.716 361.8 566.716 361.68 566.836 361.68 567.196 361.68 567.556 361.8 567.676 362.04 567.676 362.28 567.676 362.4 567.556 362.4 567.196Z" fill-rule="evenodd"/><path transform="matrix(1,0,0,-1,0,595.276)" d="M364.92 566.236V567.556C364.92 568.036 364.68 568.156 364.2 568.156 364.2 568.156 364.08 568.156 363.96 568.156L363.84 568.036V568.156H363.24V566.236H363.84V567.436C363.84 567.556 363.96 567.676 364.2 567.676 364.32 567.676 364.44 567.556 364.44 567.436V567.316 566.236H364.92Z" fill-rule="evenodd"/><path transform="matrix(1,0,0,-1,0,595.276)" d="M367.2 567.436H366.36V566.956H367.2Z" fill-rule="evenodd"/><path transform="matrix(1,0,0,-1,0,595.276)" d="M368.88 566.236H369.36L370.2 568.276V568.876H368.4V568.276H369.6Z" fill-rule="evenodd"/><path transform="matrix(1,0,0,-1,0,595.276)" d="M373.2 567.196C373.2 567.556 373.2 567.796 373.08 567.916 372.84 568.156 372.6 568.156 372.36 568.156 372.24 568.156 372 568.156 371.88 568.036V568.156H371.52V565.636H372V566.356C372 566.236 372.24 566.236 372.36 566.236 372.96 566.236 373.2 566.596 373.2 567.196ZM372.36 566.716C372.24 566.716 372.12 566.716 372.12 566.836 372 566.836 372 566.956 372 566.956V567.436C372 567.556 372.12 567.796 372.36 567.796 372.48 567.796 372.72 567.676 372.72 567.556V567.436 567.076 566.956C372.72 566.716 372.48 566.716 372.36 566.716Z" fill-rule="evenodd"/><path transform="matrix(1,0,0,-1,0,595.276)" d="M375.48 567.676C375.36 567.676 375.12 567.556 375.12 567.436V566.236H374.64V567.556C374.64 567.676 374.52 567.676 374.4 567.676 374.28 567.676 374.16 567.556 374.04 567.436V566.236H373.56V568.156H374.04V568.036C374.16 568.036 374.16 568.156 374.28 568.156 374.4 568.156 374.4 568.156 374.52 568.156 374.76 568.156 374.88 568.156 375 567.916 375.12 568.156 375.36 568.156 375.48 568.156 375.84 568.156 376.08 568.036 376.2 567.796V567.676 567.556 566.236H375.72V567.556 567.676C375.6 567.676 375.6 567.676 375.48 567.676Z" fill-rule="evenodd"/><path transform="matrix(1,0,0,-1,0,595.276)" d="M377.16 566.476C377.16 566.716 377.04 566.836 376.92 566.836 376.68 566.836 376.68 566.716 376.68 566.596 376.68 566.476 376.68 566.356 376.8 566.356H376.92V566.236H376.8C376.8 566.236 376.68 566.236 376.68 566.116V565.996C377.04 565.996 377.16 566.236 377.16 566.476Z" fill-rule="evenodd"/><path transform="matrix(1,0,0,-1,0,595.276)" d="M334.44 564.436C334.44 564.436 334.44 564.316 334.56 564.316 334.56 564.316 334.68 564.196 334.92 564.196 335.52 564.076 335.76 563.836 335.76 563.356 335.76 562.876 335.4 562.636 334.8 562.636 334.56 562.636 334.32 562.636 334.08 562.756 333.84 562.756 333.72 562.876 333.6 563.116L334.08 563.476C334.32 563.236 334.56 563.116 334.8 563.116 335.04 563.116 335.16 563.236 335.16 563.356 335.16 563.596 335.04 563.716 334.56 563.716 334.08 563.716 333.84 563.956 333.84 564.436 333.84 565.036 334.2 565.276 334.8 565.276 335.04 565.276 335.16 565.276 335.4 565.156 335.52 565.156 335.76 565.036 335.88 564.916L335.4 564.556C335.16 564.676 335.04 564.796 334.8 564.796 334.56 564.796 334.44 564.676 334.44 564.436Z" fill-rule="evenodd"/><path transform="matrix(1,0,0,-1,0,595.276)" d="M364.8 562.996 364.68 562.636C364.56 562.636 364.44 562.636 364.44 562.636 364.32 562.636 364.32 562.756 364.2 562.756 364.2 562.636 363.96 562.636 363.84 562.636 363.6 562.636 363.36 562.636 363.24 562.756 363.12 562.876 363 562.996 363 563.236 363 563.476 363.12 563.596 363.36 563.716 363.48 563.836 363.72 563.836 364.08 563.836V563.956 564.076H363.96C363.84 564.076 363.72 564.076 363.6 564.076 363.48 564.076 363.36 563.956 363.36 563.956L363.12 564.316C363.24 564.436 363.6 564.556 363.84 564.556 364.08 564.556 364.32 564.556 364.44 564.436 364.56 564.316 364.68 564.196 364.68 564.076V563.116C364.68 562.996 364.68 562.996 364.8 562.996ZM363.6 563.236V563.116C363.72 562.996 363.72 562.996 363.84 562.996 363.96 562.996 364.08 563.116 364.08 563.116V563.476C363.96 563.476 363.84 563.476 363.72 563.356 363.6 563.356 363.6 563.356 363.6 563.236Z" fill-rule="evenodd"/><path transform="matrix(1,0,0,-1,0,595.276)" d="M337.56 564.436H338.04V562.636H337.56V562.756C337.56 562.636 337.44 562.636 337.44 562.636 337.32 562.636 337.2 562.636 337.08 562.636 336.96 562.636 336.72 562.636 336.6 562.756 336.48 562.876 336.36 562.996 336.36 563.116V564.436H336.84V563.356C336.84 563.356 336.96 563.236 336.96 563.116 337.08 563.116 337.2 563.116 337.2 563.116 337.32 563.116 337.44 563.116 337.44 563.116 337.56 563.236 337.56 563.356 337.56 563.476V564.436Z" fill-rule="evenodd"/><path transform="matrix(1,0,0,-1,0,595.276)" d="M361.8 562.636V564.556H362.28V564.316C362.28 564.436 362.4 564.436 362.4 564.556 362.52 564.556 362.64 564.556 362.88 564.556V564.076C362.64 564.076 362.52 563.956 362.4 563.956 362.28 563.956 362.28 563.836 362.28 563.716V562.636H361.8Z" fill-rule="evenodd"/><path transform="matrix(1,0,0,-1,0,595.276)" d="M341.88 564.436V565.156H342.48V562.636H341.88V562.756C341.88 562.636 341.64 562.636 341.52 562.636 341.04 562.516 340.68 562.876 340.68 563.476V563.716C340.68 564.196 341.04 564.556 341.4 564.556 341.64 564.556 341.76 564.556 341.88 564.436ZM341.88 563.236V563.716 563.836 563.956C341.76 564.076 341.64 564.076 341.52 564.076 341.28 564.076 341.16 563.836 341.16 563.596 341.16 563.236 341.28 562.996 341.52 562.996 341.76 562.996 341.88 563.116 341.88 563.236Z" fill-rule="evenodd"/><path transform="matrix(1,0,0,-1,0,595.276)" d="M344.52 562.996 344.4 562.636C344.28 562.636 344.16 562.636 344.04 562.636L343.92 562.756C343.92 562.636 343.68 562.636 343.44 562.636 343.08 562.636 342.72 562.876 342.72 563.236 342.72 563.596 343.08 563.836 343.8 563.836V563.956 564.076C343.8 564.076 343.68 564.076 343.56 564.076 343.44 564.076 343.44 564.076 343.32 564.076 343.2 564.076 343.08 563.956 343.08 563.956L342.84 564.316C342.96 564.436 343.2 564.556 343.56 564.556 343.8 564.556 344.04 564.556 344.16 564.436 344.28 564.316 344.4 564.196 344.4 564.076V563.116C344.4 562.996 344.4 562.996 344.52 562.996ZM343.32 563.236V563.116C343.44 562.996 343.44 562.996 343.56 562.996 343.68 562.996 343.8 563.116 343.8 563.116V563.476C343.68 563.476 343.56 563.476 343.44 563.356 343.32 563.356 343.32 563.356 343.32 563.236Z" fill-rule="evenodd"/><path transform="matrix(1,0,0,-1,0,595.276)" d="M346.56 564.436H345.96L345.6 563.356 345.24 564.436H344.76L345.36 562.756V562.636C345.36 562.516 345.36 562.516 345.24 562.516H345.12 345L344.88 562.156C345.12 562.036 345.24 562.036 345.48 562.036 345.6 562.036 345.6 562.036 345.72 562.156 345.72 562.156 345.84 562.276 345.84 562.396L346.56 564.436Z" fill-rule="evenodd"/><path transform="matrix(1,0,0,-1,0,595.276)" d="M348.36 563.236C348.36 563.596 348.12 563.836 347.76 563.836 347.64 563.836 347.52 563.836 347.4 563.956 347.4 564.076 347.4 564.196 347.64 564.196 347.76 564.196 347.76 564.076 347.88 564.076L348 563.956 348.36 564.316C348.24 564.436 348 564.556 347.64 564.556 347.16 564.556 346.92 564.436 346.8 563.956 346.92 563.596 347.04 563.476 347.4 563.356 347.64 563.356 347.76 563.356 347.76 563.236V563.116L347.64 562.996C347.52 562.996 347.4 563.116 347.28 563.116 347.28 563.116 347.16 563.236 347.04 563.236L346.68 562.996C346.92 562.756 347.16 562.636 347.64 562.636 348.12 562.636 348.36 562.876 348.36 563.236Z" fill-rule="evenodd"/><path transform="matrix(1,0,0,-1,0,595.276)" d="M359.28 562.636V563.956C359.28 564.316 359.04 564.556 358.56 564.556 358.44 564.556 358.32 564.556 358.32 564.556 358.2 564.556 358.2 564.436 358.08 564.436V564.556H357.6V562.636H358.08V563.836C358.2 563.956 358.32 564.076 358.44 564.076 358.68 564.076 358.68 563.956 358.68 563.836V563.716 562.636H359.28Z" fill-rule="evenodd"/><path transform="matrix(1,0,0,-1,0,595.276)" d="M371.88 563.596C371.88 563.836 371.76 564.196 371.64 564.316 371.4 564.436 371.16 564.556 370.92 564.556 370.68 564.556 370.44 564.436 370.32 564.316 370.08 564.196 370.08 563.836 370.08 563.596 370.08 563.236 370.08 562.996 370.32 562.876 370.44 562.636 370.68 562.636 370.92 562.636 371.16 562.636 371.4 562.636 371.64 562.876 371.76 562.996 371.88 563.236 371.88 563.596ZM371.28 563.596C371.28 563.236 371.16 563.116 370.92 563.116 370.8 563.116 370.68 563.116 370.68 563.236 370.56 563.356 370.56 563.476 370.56 563.596 370.56 563.836 370.68 564.076 370.92 564.076 371.04 564.076 371.16 564.076 371.16 563.956 371.28 563.836 371.28 563.716 371.28 563.596Z" fill-rule="evenodd"/><path transform="matrix(1,0,0,-1,0,595.276)" d="M372.6 565.156V563.236 563.116C372.72 563.116 372.72 563.116 372.96 563.116L373.08 562.636H372.96C372.84 562.636 372.72 562.636 372.6 562.636 372.36 562.636 372.24 562.756 372.12 562.996V563.116 565.156H372.6Z" fill-rule="evenodd"/><path transform="matrix(1,0,0,-1,0,595.276)" d="M373.92 562.636V564.436H373.44V562.636Z" fill-rule="evenodd"/><path transform="matrix(1,0,0,-1,0,595.276)" d="M373.92 564.916C373.92 565.156 373.8 565.276 373.68 565.276 373.44 565.276 373.32 565.156 373.32 564.916 373.32 564.796 373.44 564.676 373.68 564.676 373.8 564.676 373.92 564.796 373.92 564.916Z" fill-rule="evenodd"/><path transform="matrix(1,0,0,-1,0,595.276)" d="M375.6 564.436V565.156H376.08V562.636H375.6V562.756C375.48 562.636 375.36 562.636 375.12 562.636 374.76 562.516 374.4 562.876 374.28 563.476V563.716C374.28 564.196 374.64 564.556 375.12 564.556 375.24 564.556 375.36 564.556 375.6 564.436ZM375.6 563.236V563.716 563.836L375.48 563.956C375.36 564.076 375.36 564.076 375.24 564.076 374.88 564.076 374.76 563.836 374.76 563.596 374.76 563.236 374.88 562.996 375.24 562.996 375.36 562.996 375.48 563.116 375.6 563.236Z" fill-rule="evenodd"/><path transform="matrix(1,0,0,-1,0,595.276)" d="M378.24 562.996 378.12 562.636C377.88 562.636 377.88 562.636 377.76 562.636 377.64 562.636 377.64 562.756 377.64 562.756 377.52 562.636 377.28 562.636 377.16 562.636 376.68 562.636 376.44 562.876 376.44 563.236 376.44 563.596 376.8 563.836 377.52 563.836V563.956C377.52 563.956 377.52 564.076 377.4 564.076H377.28C377.16 564.076 377.04 564.076 376.92 564.076 376.8 564.076 376.8 563.956 376.68 563.956L376.44 564.316C376.68 564.436 376.92 564.556 377.28 564.556 377.52 564.556 377.64 564.556 377.76 564.436 377.88 564.316 378 564.196 378 564.076V563.116C378 562.996 378.12 562.996 378.24 562.996ZM376.92 563.236C376.92 563.116 376.92 563.116 377.04 563.116 377.04 562.996 377.16 562.996 377.28 562.996 377.4 562.996 377.4 563.116 377.52 563.116V563.476C377.28 563.476 377.16 563.476 377.04 563.356 377.04 563.356 376.92 563.356 376.92 563.236Z" fill-rule="evenodd"/><path transform="matrix(1,0,0,-1,0,595.276)" d="M380.16 564.436H379.68L379.32 563.356 378.96 564.436H378.48L378.96 562.756V562.636 562.516C378.84 562.516 378.84 562.516 378.72 562.516H378.6L378.48 562.156C378.72 562.036 378.96 562.036 379.08 562.036 379.2 562.036 379.32 562.036 379.32 562.156 379.44 562.156 379.44 562.276 379.44 562.396L380.16 564.436Z" fill-rule="evenodd"/><path transform="matrix(1,0,0,-1,0,595.276)" d="M381.96 563.236C381.96 563.596 381.84 563.836 381.36 563.836 381.24 563.836 381.12 563.836 381.12 563.956H381C381 564.076 381.12 564.196 381.24 564.196 381.36 564.196 381.48 564.076 381.48 564.076 381.6 564.076 381.6 563.956 381.72 563.956L381.96 564.316C381.84 564.436 381.6 564.556 381.24 564.556 380.76 564.556 380.52 564.436 380.52 563.956 380.52 563.596 380.76 563.476 381 563.356 381.36 563.356 381.48 563.356 381.48 563.236 381.48 563.116 381.48 563.116 381.36 563.116 381.36 563.116 381.36 562.996 381.24 562.996 381.12 562.996 381 563.116 381 563.116 380.88 563.116 380.76 563.236 380.76 563.236L380.4 562.996C380.52 562.756 380.88 562.636 381.24 562.636 381.72 562.636 381.96 562.876 381.96 563.236Z" fill-rule="evenodd"/><path transform="matrix(1,0,0,-1,0,595.276)" d="M340.2 562.636V563.956C340.2 564.316 339.96 564.556 339.48 564.556 339.36 564.556 339.36 564.556 339.24 564.556 339.12 564.556 339.12 564.436 339.12 564.436V564.556H338.52V562.636H339.12V563.836C339.12 563.956 339.24 564.076 339.36 564.076 339.6 564.076 339.72 563.956 339.72 563.836V563.716 562.636H340.2Z" fill-rule="evenodd"/><path transform="matrix(1,0,0,-1,0,595.276)" d="M352.8 563.956C352.8 563.596 352.92 563.236 353.16 562.996 353.28 562.756 353.64 562.636 353.88 562.636 354 562.516 354.24 562.636 354.24 562.636 354.36 562.636 354.48 562.756 354.6 562.756V562.636H355.08V564.076H353.88V563.716H354.6C354.6 563.596 354.6 563.476 354.48 563.476 354.48 563.356 354.48 563.356 354.36 563.236 354.24 563.116 354.12 563.116 353.88 563.116 353.64 563.116 353.4 563.476 353.4 563.956 353.4 564.436 353.64 564.796 353.88 564.796 354.12 564.796 354.24 564.676 354.36 564.676 354.48 564.556 354.6 564.436 354.6 564.436L355.08 564.676C354.84 565.036 354.36 565.276 353.88 565.276 353.64 565.276 353.28 565.156 353.16 564.916 352.92 564.676 352.8 564.316 352.8 563.956Z" fill-rule="evenodd"/><path transform="matrix(1,0,0,-1,0,595.276)" d="M357.24 563.356C357.24 564.196 356.88 564.556 356.4 564.556 355.8 564.556 355.56 564.196 355.56 563.596 355.56 563.356 355.56 563.116 355.68 562.876 355.92 562.756 356.16 562.636 356.4 562.636 356.76 562.516 357.12 562.756 357.12 562.876L356.88 563.236C356.76 563.116 356.64 562.996 356.4 562.996 356.4 562.996 356.28 563.116 356.16 563.116L356.04 563.236V563.356H357.24ZM356.04 563.836V563.836C356.04 563.836 356.04 563.956 356.16 564.076 356.16 564.076 356.28 564.076 356.4 564.076 356.52 564.076 356.64 563.956 356.76 563.836H356.04Z" fill-rule="evenodd"/><path transform="matrix(1,0,0,-1,0,595.276)" d="M361.32 563.356C361.32 564.196 361.08 564.556 360.48 564.556 360 564.556 359.76 564.196 359.64 563.596 359.64 563.356 359.76 563.116 359.88 562.876 360 562.756 360.36 562.636 360.6 562.636 360.84 562.516 361.2 562.756 361.32 562.876L360.96 563.236C360.96 563.116 360.72 562.996 360.6 562.996 360.48 562.996 360.36 563.116 360.36 563.116 360.24 563.116 360.24 563.236 360.24 563.236V563.356H361.32ZM360.12 563.836V563.836C360.12 563.836 360.24 563.956 360.24 564.076 360.36 564.076 360.48 564.076 360.48 564.076 360.6 564.076 360.84 563.956 360.84 563.836H360.12Z" fill-rule="evenodd"/><path transform="matrix(1,0,0,-1,0,595.276)" d="M367.92 564.196V565.156H367.44V562.636H367.92V563.716H368.4 369V562.636H369.48V565.156H369V564.196H368.4Z" fill-rule="evenodd"/><path transform="matrix(1,0,0,-1,0,595.276)" d="M365.64 565.156V563.236 563.116C365.64 563.116 365.76 563.116 365.88 563.116L366 562.636H365.88C365.76 562.636 365.64 562.636 365.64 562.636 365.4 562.636 365.16 562.756 365.16 562.996V563.116 565.156H365.64Z" fill-rule="evenodd"/><path transform="matrix(1,0,0,-1,0,595.276)" d="M349.92 564.196C349.68 564.436 349.8 564.916 350.04 565.036 350.28 565.276 350.64 565.276 350.88 565.036 351.12 564.796 351.12 564.436 351 564.196H350.88V564.076C350.76 564.076 350.76 564.076 350.64 563.956L351 563.476C351.12 563.596 351.12 563.716 351.12 563.836H351.6C351.6 563.596 351.48 563.236 351.24 563.116L351.36 562.996 351.48 563.116 351.6 562.756C351.6 562.636 351.48 562.636 351.24 562.636 351.12 562.636 351 562.636 350.88 562.756 350.76 562.636 350.52 562.636 350.4 562.636 350.16 562.636 349.92 562.636 349.8 562.756 349.56 562.996 349.56 563.236 349.56 563.476 349.56 563.836 349.68 564.076 349.92 564.196ZM350.28 563.716C350.16 563.716 350.04 563.596 350.04 563.476 350.04 563.356 350.04 563.236 350.04 563.236 350.16 563.116 350.28 563.116 350.28 562.996 350.4 562.996 350.52 563.116 350.64 563.116L350.28 563.716ZM350.4 564.436C350.52 564.436 350.64 564.556 350.64 564.676 350.64 564.796 350.52 564.796 350.4 564.796 350.4 564.796 350.28 564.676 350.28 564.556 350.28 564.556 350.28 564.436 350.4 564.436Z" fill-rule="evenodd"/><path transform="matrix(1,0,0,-1,0,595.276)" d="M382.56 559.276C382.56 559.516 382.44 559.636 382.32 559.636 382.2 559.636 382.08 559.516 382.08 559.516 382.08 559.516 381.96 559.396 381.96 559.276 381.96 559.156 382.08 559.156 382.2 559.036H382.32C382.2 559.036 382.2 558.916 382.2 558.916H382.08V558.796C382.44 558.796 382.56 558.916 382.56 559.276Z" fill-rule="evenodd"/><path transform="matrix(1,0,0,-1,0,595.276)" d="M359.04 556.276H358.8V556.036L358.68 555.796 358.44 555.556 358.2 555.316 358.44 555.196 358.68 555.316 358.92 555.556 359.04 555.916 359.16 556.156V556.276Z" fill-rule="evenodd"/><path transform="matrix(1,0,0,-1,0,595.276)" d="M359.52 555.676H359.28L359.04 555.076 358.8 554.476H358.44V554.236 554.116H358.56L360.24 554.356 360.48 554.116 360.72 554.236 360.6 554.476 360.48 554.716 360.24 554.956 360 555.196 359.88 555.076 360.12 554.596 359.16 554.476 359.52 555.436 359.64 555.556Z" fill-rule="evenodd"/><path transform="matrix(1,0,0,-1,0,595.276)" d="M359.16 556.636V556.396H359.76L359.88 556.036 360 555.796 360.24 555.436 360.72 555.196 360.96 555.316 360.72 555.556 360.6 555.676 360.36 555.796 360.24 555.916V556.036L360.12 556.276V556.396L360 556.636Z" fill-rule="evenodd"/><path transform="matrix(1,0,0,-1,0,595.276)" d="M361.92 556.636V555.916H364.2V556.636H361.92ZM362.28 556.036V556.396H362.64V556.036H362.28ZM362.88 556.036V556.396H363.24V556.036H362.88ZM363.48 556.036V556.396H363.96V556.036H363.48Z" fill-rule="evenodd"/><path transform="matrix(1,0,0,-1,0,595.276)" d="M362.04 555.556 362.16 555.436H363V553.996H363.24V555.556H363.84 363.96V555.676L363.72 555.796 362.88 555.676Z" fill-rule="evenodd"/><path transform="matrix(1,0,0,-1,0,595.276)" d="M362.4 555.316 362.28 555.076 362.16 554.956 362.04 554.716 361.92 554.596 361.8 554.476 361.92 554.356 362.16 554.476 362.28 554.716 362.64 554.356 362.88 554.476 362.64 554.716 362.52 554.956V555.196H362.64Z" fill-rule="evenodd"/><path transform="matrix(1,0,0,-1,0,595.276)" d="M363.72 555.316 363.6 555.076V554.836L363.48 554.716 363.36 554.596 363.24 554.476 363.48 554.356 363.6 554.476 363.72 554.716 363.96 554.596 364.08 554.356 364.32 554.476 364.2 554.596 364.08 554.716 363.96 554.836 363.84 555.076 363.96 555.196V555.316Z" fill-rule="evenodd"/><path transform="matrix(1,0,0,-1,0,595.276)" d="M366 556.636H365.76L365.64 556.396 365.52 556.036 365.4 555.796 365.16 555.556 365.4 555.316 365.52 555.556V554.116H365.76V556.156L366 556.516Z" fill-rule="evenodd"/><path transform="matrix(1,0,0,-1,0,595.276)" d="M366.12 556.516V554.116H366.36V554.476H366.84V554.836H366.36V555.076H366.84V555.316H366.36V555.676H366.84V556.516H366.12ZM366.36 555.916V556.276H366.6V555.916H366.36Z" fill-rule="evenodd"/><path transform="matrix(1,0,0,-1,0,595.276)" d="M367.08 556.516V556.276H367.56V555.916H367.08V555.676H367.8V556.516Z" fill-rule="evenodd"/><path transform="matrix(1,0,0,-1,0,595.276)" d="M366.96 555.436V555.196H367.56V554.956L367.44 554.716 367.32 554.956 367.2 555.196H366.96L367.08 554.836 367.2 554.596 367.08 554.356 366.72 554.236 366.96 554.116 367.2 554.236 367.44 554.356 367.56 554.236 367.8 554.116 368.04 554.236 367.8 554.356 367.56 554.596 367.8 554.956 367.92 555.316 367.68 555.556V555.436Z" fill-rule="evenodd"/><path transform="matrix(1,0,0,-1,0,595.276)" d="M368.88 556.276V556.156H369.12V554.956H368.76V554.716H370.32V554.956H370.08V556.156H370.32V556.276H370.08V556.516 556.636H369.96L369.84 556.756V556.276H369.36V556.636H369.48 369.36L369.12 556.756V556.276H368.88ZM369.36 555.436V555.676H369.84V555.436H369.36ZM369.36 554.956V555.196H369.84V554.956H369.36ZM369.36 555.796V556.156H369.84V555.796H369.36Z" fill-rule="evenodd"/><path transform="matrix(1,0,0,-1,0,595.276)" d="M368.88 554.236 369.12 553.996 369.24 554.236 369.48 554.596 369.24 554.716 369 554.356Z" fill-rule="evenodd"/><path transform="matrix(1,0,0,-1,0,595.276)" d="M370.44 556.636V555.436 555.076L370.32 554.716V554.476L370.2 554.236 370.44 554.116V554.236L370.56 554.476 370.68 554.716V554.956H371.04V554.476 554.356H370.92 370.8L370.92 554.116H371.16 371.28V554.236 554.356L371.4 554.476V556.636H370.44ZM370.68 555.196V555.676H371.04V555.196H370.68ZM370.68 555.916V556.396H371.04V555.916H370.68Z" fill-rule="evenodd"/><path transform="matrix(1,0,0,-1,0,595.276)" d="M369.84 554.716 369.6 554.596 369.84 554.356 369.96 554.116 370.2 554.236 369.96 554.476Z" fill-rule="evenodd"/><path transform="matrix(1,0,0,-1,0,595.276)" d="M346.44 556.636H344.64V555.556H346.44V556.636ZM344.88 556.276V556.396H346.2V556.276H344.88ZM344.88 555.796V556.036H346.2V555.796H344.88Z" fill-rule="evenodd"/><path transform="matrix(1,0,0,-1,0,595.276)" d="M345 555.436 344.64 555.556 344.52 555.196 344.16 554.836 344.4 554.716 344.76 555.076H345.48V554.836H344.64V554.596H345.48V554.356H344.16V554.116H346.8V554.356H345.72V554.596H346.56V554.836H345.72V555.076H346.68V555.316H345.72V555.436H345.84L345.72 555.556H345.48V555.316H344.88Z" fill-rule="evenodd"/><path transform="matrix(1,0,0,-1,0,595.276)" d="M347.76 556.276V556.156H348V554.956H347.64V554.716H349.2V554.956H348.96V556.156H349.2V556.276H348.96V556.516 556.636H348.84L348.72 556.756V556.276H348.24V556.636H348.36 348.24L348 556.756V556.276H347.76ZM348.24 555.436V555.676H348.72V555.436H348.24ZM348.24 554.956V555.196H348.72V554.956H348.24ZM348.24 555.796V556.156H348.72V555.796H348.24Z" fill-rule="evenodd"/><path transform="matrix(1,0,0,-1,0,595.276)" d="M347.76 554.236 348 553.996 348.24 554.236 348.36 554.596 348.12 554.716 347.88 554.356Z" fill-rule="evenodd"/><path transform="matrix(1,0,0,-1,0,595.276)" d="M349.32 556.636V555.436 555.076L349.2 554.716V554.476L349.08 554.236 349.32 554.116 349.44 554.236V554.476L349.56 554.716V554.956H349.92V554.476 554.356H349.8 349.68L349.8 554.116H350.04 350.16V554.236 554.356L350.28 554.476V556.636H349.32ZM349.56 555.196V555.676H349.92V555.196H349.56ZM349.56 555.916V556.396H349.92V555.916H349.56Z" fill-rule="evenodd"/><path transform="matrix(1,0,0,-1,0,595.276)" d="M348.72 554.716 348.6 554.596 348.72 554.356 348.84 554.116 349.08 554.236 348.84 554.476Z" fill-rule="evenodd"/><path transform="matrix(1,0,0,-1,0,595.276)" d="M351.48 554.116H351.84V554.356H353.28V554.116H353.64V556.516H351.48V554.116ZM351.84 554.596V555.316H353.28V554.596H351.84ZM351.84 555.556V556.276H353.28V555.556H351.84Z" fill-rule="evenodd"/><path transform="matrix(1,0,0,-1,0,595.276)" d="M354.96 556.516V556.276H355.44V555.916 555.676 555.316L355.32 555.076 355.2 554.836 355.08 554.596 354.84 554.476 354.72 554.236 354.96 553.996 355.2 554.356 355.44 554.596 355.56 554.956 355.68 555.316V555.076L355.8 554.836 356.04 554.716 356.16 554.596 355.8 554.356H355.44L355.56 554.116 355.92 554.236 356.4 554.476 356.76 554.236 357.12 554.116 357.36 554.356 357 554.476 356.52 554.596 356.76 554.836 356.88 555.196 357 555.436 357.12 555.796 356.88 555.916V555.796H356.52L356.88 556.516 356.52 556.636V556.516H354.96ZM355.68 556.276H356.4L356.04 555.556 356.28 555.436 356.4 555.556H356.76L356.64 555.316 356.52 555.076 356.4 554.956 356.28 554.716 356.16 554.956 355.92 555.196 355.8 555.436V555.556L355.68 556.276Z" fill-rule="evenodd"/><path transform="matrix(1,0,0,-1,0,595.276)" d="M335.4 560.956H333.48V559.876H335.4V560.956ZM333.84 560.476V560.716H335.16V560.476H333.84ZM333.84 559.996V560.236H335.16V559.996H333.84Z" fill-rule="evenodd"/><path transform="matrix(1,0,0,-1,0,595.276)" d="M333.96 559.636 333.6 559.756 333.36 559.396 333.12 559.036 333.36 558.916 333.72 559.276H334.32V559.036H333.6V558.796H334.32V558.556H333.12V558.316H335.76V558.556H334.68V558.796H335.4V559.036H334.68V559.276H335.52V559.516H334.68V559.636 559.756H334.32V559.516H333.84Z" fill-rule="evenodd"/><path transform="matrix(1,0,0,-1,0,595.276)" d="M336.6 560.596V560.356H336.96V559.156H336.6V559.036H338.16V559.156H337.8V560.356H338.04V560.596H337.8V560.836H337.92V560.956H337.8 337.56V560.596H337.2V560.836 560.956H337.08 336.96V560.596H336.6ZM337.2 559.636V559.876H337.56V559.636H337.2ZM337.2 559.156V559.396H337.56V559.156H337.2ZM337.2 560.116V560.356H337.56V560.116H337.2Z" fill-rule="evenodd"/><path transform="matrix(1,0,0,-1,0,595.276)" d="M336.6 558.436 336.84 558.316 337.08 558.556 337.32 558.796 337.08 558.916 336.84 558.676Z" fill-rule="evenodd"/><path transform="matrix(1,0,0,-1,0,595.276)" d="M338.28 560.956V559.756L338.16 559.276V558.916L338.04 558.676 337.92 558.436 338.16 558.316 338.28 558.556 338.4 558.796V559.036 559.276H338.88V558.676 558.556H338.76 338.52L338.64 558.316H339V558.436H339.12V558.556 558.676 560.956H338.28ZM338.52 559.396V559.996H338.88V559.396H338.52ZM338.52 560.116V560.716H338.88V560.116H338.52Z" fill-rule="evenodd"/><path transform="matrix(1,0,0,-1,0,595.276)" d="M337.68 558.916 337.44 558.796 337.56 558.556 337.68 558.316 337.92 558.556 337.8 558.796Z" fill-rule="evenodd"/><path transform="matrix(1,0,0,-1,0,595.276)" d="M341.52 560.956H341.28V560.356H340.08V560.116H342.72V560.356H341.64V560.836 560.956Z" fill-rule="evenodd"/><path transform="matrix(1,0,0,-1,0,595.276)" d="M341.04 559.636 340.92 559.756 340.8 559.516V559.396L340.68 559.156V559.036L340.56 558.916 340.44 558.676 340.2 558.556 340.08 558.436 340.32 558.316 340.56 558.556 340.8 558.796 341.04 559.156 341.16 559.516V559.636Z" fill-rule="evenodd"/><path transform="matrix(1,0,0,-1,0,595.276)" d="M342 559.756 341.64 559.636 341.88 559.276 342 558.796 342.24 558.556 342.48 558.316 342.84 558.556 342.48 558.796 342.24 559.036 342.12 559.396Z" fill-rule="evenodd"/><path transform="matrix(1,0,0,-1,0,595.276)" d="M343.8 560.476V558.316H344.16V558.436H345.84V558.316H346.08V560.476H345.12V560.836 560.956H345 344.76V560.476H343.8ZM344.16 559.636V560.116H344.76V559.636H344.16ZM345.12 559.636V560.116H345.84V559.636H345.12ZM344.16 558.796V559.396H344.76V558.796H344.16ZM345.12 558.796V559.396H345.84V558.796H345.12Z" fill-rule="evenodd"/><path transform="matrix(1,0,0,-1,0,595.276)" d="M348.6 560.956H348.36V560.476H347.28V559.036H347.64V559.276H348.36V558.316H348.6V559.276H349.44V559.036H349.68V560.476H348.6V560.836L348.72 560.956H348.6ZM348.6 559.516V560.116H349.44V559.516H348.6ZM347.64 559.516V560.116H348.36V559.516H347.64Z" fill-rule="evenodd"/><path transform="matrix(1,0,0,-1,0,595.276)" d="M350.76 560.116 351 559.876 351.36 560.356H351.96V559.756H350.64V559.396H351.96V558.316H352.2V559.396H353.28V559.756H352.2V560.356H353.16V560.596H351.48L351.6 560.836H351.72L351.6 560.956H351.48L351.12 560.476Z" fill-rule="evenodd"/><path transform="matrix(1,0,0,-1,0,595.276)" d="M355.56 560.956H355.44V559.996H354.24V559.636H355.44V558.316H355.68V559.636H356.76V559.996H355.68V560.836H355.8V560.956H355.68Z" fill-rule="evenodd"/><path transform="matrix(1,0,0,-1,0,595.276)" d="M357.96 560.596V560.356H360.12V560.596Z" fill-rule="evenodd"/><path transform="matrix(1,0,0,-1,0,595.276)" d="M357.72 558.916V558.676H360.36V558.916Z" fill-rule="evenodd"/><path transform="matrix(1,0,0,-1,0,595.276)" d="M362.88 559.996H362.28V559.756H363.24V559.516H362.28V559.276H363.24V558.676 558.556H363.12 362.76L362.88 558.316H363.12 363.24L363.36 558.436H363.48V558.556 559.276H363.96V559.516H363.48V559.756H363.84V559.996H363.12V560.356H363.72V560.596H363.12V560.836H363.24V560.956H363.12 362.88V560.596H362.28V560.356H362.88Z" fill-rule="evenodd"/><path transform="matrix(1,0,0,-1,0,595.276)" d="M362.64 559.156 362.4 558.916 362.64 558.796 362.76 558.676 362.88 558.796 362.76 559.036Z" fill-rule="evenodd"/><path transform="matrix(1,0,0,-1,0,595.276)" d="M361.32 560.716V558.676 558.556H361.56V558.796H361.92V558.676H362.16V560.716H361.32ZM361.56 559.876V560.476H361.92V559.876H361.56ZM361.56 559.036V559.636H361.92V559.036H361.56Z" fill-rule="evenodd"/><path transform="matrix(1,0,0,-1,0,595.276)" d="M364.92 560.596H365.76L365.4 559.996H365.04V559.636H365.16L366.84 559.876 367.08 559.636 367.32 559.756 367.08 560.116 366.72 560.476 366.48 560.356 366.72 560.116 365.76 559.996 366.12 560.596H367.32V560.836H364.92Z" fill-rule="evenodd"/><path transform="matrix(1,0,0,-1,0,595.276)" d="M364.8 558.436H367.44V558.676H366.24V559.156H367.08V559.396H366.24V559.636H366.36L366.24 559.756H366V559.396H365.04V559.156H366V558.676H364.8Z" fill-rule="evenodd"/><path transform="matrix(1,0,0,-1,0,595.276)" d="M368.28 560.716V560.476H369.36V558.316H369.72V559.756L370.08 559.516 370.44 559.156 370.68 559.396 370.2 559.756 369.72 560.116V560.476H370.92V560.716Z" fill-rule="evenodd"/><path transform="matrix(1,0,0,-1,0,595.276)" d="M371.88 560.116 372.12 559.876 372.48 560.356H373.08V559.756H371.76V559.396H373.08V558.316H373.32V559.396H374.4V559.756H373.32V560.356H374.28V560.596H372.6L372.72 560.836H372.84L372.72 560.956H372.6L372.24 560.476Z" fill-rule="evenodd"/><path transform="matrix(1,0,0,-1,0,595.276)" d="M376.44 560.956H376.2V559.996L375.36 559.876V559.636H376.2V558.796 558.676L376.32 558.436H376.44 376.56 377.4 377.52 377.64L377.76 558.556 377.88 558.676 378 559.036 377.64 559.156V558.916L377.52 558.796V558.676H377.4 377.28 376.68 376.56L376.44 558.796V558.916 559.756L378 559.876V560.116L376.44 559.996V560.716L376.56 560.836V560.956Z" fill-rule="evenodd"/><path transform="matrix(1,0,0,-1,0,595.276)" d="M380.52 559.996H379.8V559.756H380.88V559.516H379.8V559.276H380.88V558.676L380.76 558.556H380.64 380.4L380.52 558.316H380.76 380.88L381 558.436H381.12V558.556 559.276H381.48V559.516H381.12V559.756H381.48V559.996H380.76V560.356H381.36V560.596H380.76V560.836 560.956H380.52V560.596H379.92V560.356H380.52Z" fill-rule="evenodd"/><path transform="matrix(1,0,0,-1,0,595.276)" d="M380.16 559.156 380.04 558.916 380.16 558.796 380.28 558.676 380.52 558.796 380.4 559.036Z" fill-rule="evenodd"/><path transform="matrix(1,0,0,-1,0,595.276)" d="M378.84 560.716V558.676 558.556H379.08V558.796H379.44V558.676H379.68V560.716H378.84ZM379.08 559.876V560.476H379.44V559.876H379.08ZM379.08 559.036V559.636H379.44V559.036H379.08Z" fill-rule="evenodd"/></g></svg>