<?xml version='1.0' encoding='UTF-8'?>
<svg width="293.39" height="252.17" viewBox="138.24 9.90 293.39 252.17" xmlns="http://www.w3.org/2000/svg" xmlns:xlink="http://www.w3.org/1999/xlink" xmlns:inkscape="http://www.inkscape.org/namespaces/inkscape" version="1.1"><g transform="scale(10.0) translate(-111.171, -505.008)"><defs><clipPath id="clip_19"><path transform="matrix(0,1,1,0,0,0)" d="M0 74.451H595.008V767.55899H0Z"/></clipPath><clipPath id="clip_20"><path transform="matrix(0,1,1,0,0,0)" d="M0 842.013H595.224V.008972168H0Z"/></clipPath></defs><path transform="matrix(0,1,1,0,0,0)" d="M506.286 125.283H530.92807V154.047H506.286Z" fill="#ffff00"/><path transform="matrix(0,1,1,0,134.031,511.92)" d="M0 0V14.346C0 14.526 .036 14.724 .126 14.922 .198 15.12 .306 15.3 .468 15.444 .612 15.606 .792 15.714 .99 15.786 1.188 15.876 1.386 15.912 1.566 15.912H11.79C11.988 15.912 12.186 15.876 12.366 15.786 12.564 15.714 12.744 15.606 12.906 15.444 13.05 15.3 13.176 15.12 13.248 14.922 13.32 14.724 13.356 14.526 13.356 14.346V0C13.356-.27 13.284-.54 13.158-.774 13.014-1.026 12.798-1.224 12.582-1.35L7.074-4.536C6.966-4.59 6.822-4.644 6.678-4.644 6.534-4.644 6.408-4.59 6.3-4.536L.792-1.35C.558-1.224 .36-1.026 .216-.774 .072-.54 0-.27 0 0ZM.792 14.346V0C.792-.126 .828-.27 .9-.396 .972-.522 1.062-.612 1.17-.684L6.678-3.852 12.186-.684C12.294-.612 12.402-.522 12.474-.396 12.546-.27 12.582-.126 12.582 0V14.346C12.582 14.526 12.51 14.742 12.348 14.886 12.186 15.048 11.988 15.12 11.79 15.12H1.566C1.368 15.12 1.17 15.048 1.008 14.886 .864 14.742 .792 14.544 .792 14.346" fill="#0000ff" fill-rule="evenodd"/><path transform="matrix(0,1,1,0,148.377,512.712)" d="M0 0V-14.346C0-14.472 .036-14.616 .108-14.742 .18-14.868 .27-14.958 .378-15.03L5.886-18.198 11.394-15.03C11.502-14.958 11.61-14.868 11.682-14.742 11.754-14.616 11.79-14.472 11.79-14.346V0C11.79 .09 11.772 .18 11.736 .288 11.7 .378 11.628 .468 11.556 .54 11.484 .63 11.394 .684 11.286 .72 11.196 .756 11.106 .774 10.998 .774H.774C.576 .774 .378 .702 .216 .54 .072 .396 0 .198 0 0" fill="#ffffff" fill-rule="evenodd"/><path transform="matrix(0,1,1,0,0,0)" d="M513.72 138.081H523.49398V147.855H513.72Z" fill="#0000ff"/><path transform="matrix(0,1,1,0,134.643,513.486)" d="M0 0 5.112-2.952 10.224 0V2.664L5.112-.288 0 2.664" fill-rule="evenodd"/><path transform="matrix(0,1,1,0,146.127,517.068)" d="M0 0C-.054 0-.072-.036-.072-.072-.072-.108-.054-.144 0-.144 .036-.144 .072-.108 .072-.072 .072-.036 .036 0 0 0" fill="#ffffff" fill-rule="evenodd"/><path transform="matrix(0,1,1,0,141.735,519.372)" d="M0 0V1.998C0 2.286-.054 2.574-.162 2.862-.27 3.15-.45 3.42-.684 3.636-.9 3.87-1.17 4.05-1.458 4.158-1.746 4.266-2.034 4.32-2.304 4.32-2.592 4.32-2.88 4.266-3.168 4.158-3.456 4.05-3.708 3.87-3.942 3.636-4.176 3.42-4.338 3.15-4.464 2.862-4.572 2.574-4.626 2.286-4.626 1.998V-1.836H3.078V0H0ZM-1.224 0H-3.384V1.548C-3.384 1.764-3.312 2.016-3.114 2.196-3.024 2.286-2.916 2.358-2.808 2.412-2.682 2.448-2.574 2.466-2.466 2.466H-2.16C-1.926 2.466-1.692 2.394-1.494 2.196-1.314 2.016-1.224 1.764-1.224 1.548V0" fill="#ffffff" fill-rule="evenodd"/></g></svg>