<?xml version='1.0' encoding='UTF-8'?>
<svg width="293.39" height="252.35" viewBox="138.24 9.72 293.39 252.35" xmlns="http://www.w3.org/2000/svg" xmlns:xlink="http://www.w3.org/1999/xlink" xmlns:inkscape="http://www.inkscape.org/namespaces/inkscape" version="1.1"><g transform="scale(10.0) translate(-111.171, -397.296)"><defs><clipPath id="clip_19"><path transform="matrix(0,1,1,0,0,0)" d="M0 74.451H595.008V767.55899H0Z"/></clipPath><clipPath id="clip_20"><path transform="matrix(0,1,1,0,0,0)" d="M0 842.013H595.224V.008972168H0Z"/></clipPath></defs><path transform="matrix(0,1,1,0,0,0)" d="M398.556 125.283H423.216V154.047H398.556Z" fill="#ffff00"/><path transform="matrix(0,1,1,0,147.891,410.886)" d="M0 0C-1.08 0-2.142-.216-3.132-.63-4.14-1.044-5.04-1.656-5.814-2.412-6.57-3.168-7.182-4.086-7.596-5.076-7.992-6.084-8.208-7.146-8.208-8.226-8.208-9.306-7.992-10.368-7.596-11.376-7.182-12.366-6.57-13.284-5.814-14.04-5.04-14.796-4.14-15.408-3.132-15.822-2.142-16.236-1.08-16.452 0-16.452 1.08-16.452 2.16-16.236 3.15-15.822 4.158-15.408 5.058-14.796 5.814-14.04 6.588-13.284 7.182-12.366 7.596-11.376 8.01-10.368 8.226-9.306 8.226-8.226 8.226-7.146 8.01-6.084 7.596-5.076 7.182-4.086 6.588-3.186 5.814-2.412 5.058-1.656 4.158-1.044 3.15-.63 2.16-.216 1.08 0 0 0" fill="#ffffff" fill-rule="evenodd"/><path transform="matrix(0,1,1,0,135.237,408.834)" d="M0 0 1.908 2.736H8.568L6.768 1.368 8.55 0" fill-rule="evenodd"/><path transform="matrix(0,1,1,0,141.375,413.136)" d="M0 0 1.926 2.736H2.484L4.266 1.368 2.484 0" fill-rule="evenodd"/><path transform="matrix(0,1,1,0,141.375,409.014)" d="M0 0C-.396-.036-.774-.216-1.044-.486-1.332-.774-1.494-1.152-1.53-1.548-1.548-1.728-1.548-1.908-1.494-2.106-1.44-2.304-1.368-2.484-1.242-2.664-1.134-2.826-.99-2.988-.828-3.096-.666-3.204-.486-3.294-.306-3.348L-1.908-5.634C-2.808-5.166-3.528-4.392-3.924-3.456-4.32-2.52-4.392-1.476-4.122-.486-3.996-.036-3.78 .414-3.492 .828-3.204 1.26-2.844 1.62-2.412 1.926-1.98 2.232-1.494 2.466-1.008 2.592-.522 2.736-.018 2.772 .45 2.736H3.96L2.052 0H0" fill-rule="evenodd"/><path transform="matrix(0,1,1,0,149.781,409.104)" d="M0 0C-.594-.108-1.206-.27-1.8-.486-2.412-.72-3.006-1.008-3.6-1.368-4.176-1.728-4.734-2.142-5.238-2.628-5.76-3.096-6.228-3.636-6.624-4.23-7.038-4.806-7.38-5.418-7.65-6.066-7.938-6.714-8.136-7.38-8.28-8.046-8.406-8.712-8.478-9.378-8.478-10.026-8.496-10.674-8.442-11.304-8.334-11.898-8.226-12.492-8.064-13.104-7.83-13.716-7.614-14.31-7.326-14.922-6.966-15.498-6.606-16.074-6.192-16.632-5.706-17.154-5.22-17.658-4.68-18.126-4.104-18.54-3.528-18.936-2.898-19.278-2.25-19.566-1.602-19.836-.936-20.052-.27-20.178 .396-20.322 1.062-20.394 1.71-20.394 2.358-20.394 2.97-20.34 3.582-20.232 4.176-20.124 4.77-19.962 5.382-19.746 5.994-19.512 6.588-19.224 7.164-18.864 7.758-18.504 8.298-18.09 8.82-17.604 9.324-17.136 9.792-16.596 10.206-16.002 10.62-15.426 10.962-14.814 11.232-14.166 11.52-13.518 11.718-12.852 11.862-12.186 11.988-11.52 12.06-10.854 12.06-10.206 12.06-9.558 12.006-8.928 11.916-8.334 11.808-7.74 11.646-7.128 11.412-6.516 11.196-5.922 10.89-5.31 10.548-4.734 10.188-4.158 9.756-3.6 9.288-3.078 8.802-2.574 8.262-2.106 7.686-1.692 7.092-1.296 6.48-.954 5.832-.666 5.184-.396 4.518-.18 3.852-.054 3.186 .09 2.52 .162 1.872 .162 1.224 .162 .594 .108 0 0ZM-3.6-16.326C-3.942-16.02-4.284-15.678-4.59-15.3-4.896-14.922-5.166-14.508-5.418-14.076-5.904-13.176-6.246-12.168-6.372-11.124-6.498-10.062-6.426-9.018-6.156-8.028-6.03-7.542-5.868-7.074-5.652-6.624-5.454-6.192-5.202-5.778-4.95-5.4-4.68-5.022-4.374-4.662-4.032-4.32-3.69-3.978-3.312-3.654-2.898-3.366-2.052-2.772-1.098-2.34-.054-2.106 .972-1.872 2.034-1.836 3.042-1.998 3.546-2.07 4.032-2.196 4.482-2.358 4.95-2.502 5.382-2.7 5.778-2.934L-3.6-16.326ZM-2.196-17.298 7.182-3.906C7.524-4.212 7.866-4.554 8.172-4.932 8.478-5.31 8.748-5.724 9-6.156 9.486-7.056 9.81-8.064 9.954-9.108 10.08-10.17 9.99-11.214 9.738-12.204 9.612-12.69 9.432-13.158 9.234-13.608 9.018-14.04 8.784-14.454 8.514-14.832 8.262-15.21 7.956-15.57 7.614-15.912 7.272-16.254 6.894-16.578 6.48-16.866 5.634-17.46 4.662-17.892 3.636-18.126 2.61-18.36 1.548-18.396 .54-18.234 .036-18.162-.45-18.036-.9-17.874-1.368-17.73-1.8-17.532-2.196-17.298" fill="#ff0000" fill-rule="evenodd"/></g></svg>