<?xml version='1.0' encoding='UTF-8'?>
<svg width="294.83" height="253.79" viewBox="137.52 9.00 294.83 253.79" xmlns="http://www.w3.org/2000/svg" xmlns:xlink="http://www.w3.org/1999/xlink" xmlns:inkscape="http://www.inkscape.org/namespaces/inkscape" version="1.1"><g transform="scale(10.0) translate(-111.171, -316.512)"><defs><clipPath id="clip_19"><path transform="matrix(0,1,1,0,0,0)" d="M0 74.451H595.008V767.55899H0Z"/></clipPath><clipPath id="clip_20"><path transform="matrix(0,1,1,0,0,0)" d="M0 842.013H595.224V.008972168H0Z"/></clipPath></defs><path transform="matrix(0,1,1,0,128.793,330.102)" d="M0 0-3.834 2.214V4.608L0 2.394 3.852 4.608V2.214" fill="#ffffff" fill-rule="evenodd"/><path transform="matrix(0,1,1,0,0,0)" d="M317.772 125.283H342.432V154.047H317.772Z" fill="#ffff00"/><path transform="matrix(0,1,1,0,151.869,324.45)" d="M0 0V-21.726C0-21.924 .054-22.122 .162-22.302 .27-22.482 .414-22.626 .576-22.716L5.364-25.488C5.454-25.542 5.562-25.56 5.652-25.56 5.76-25.56 5.868-25.542 5.94-25.488L10.728-22.716C10.908-22.626 11.052-22.482 11.16-22.302 11.268-22.122 11.304-21.924 11.304-21.726V0C11.304 .144 11.286 .288 11.232 .432 11.178 .576 11.088 .702 10.98 .81 10.854 .936 10.728 1.008 10.584 1.08 10.44 1.134 10.296 1.152 10.152 1.152H1.152C.846 1.152 .558 1.026 .342 .81 .126 .594 0 .306 0 0" fill="#ffffff" fill-rule="evenodd"/><path transform="matrix(0,1,1,0,151.869,325.026)" d="M0 0V-21.726C0-21.816 .036-21.924 .09-22.014 .144-22.104 .216-22.176 .288-22.23L5.076-24.984 9.864-22.23C9.954-22.176 10.026-22.104 10.08-22.014 10.134-21.924 10.152-21.816 10.152-21.726V0C10.152 .072 10.152 .144 10.116 .216 10.098 .288 10.044 .36 9.99 .414 9.936 .468 9.864 .504 9.792 .54 9.72 .558 9.648 .576 9.576 .576H.576C.432 .576 .288 .522 .18 .414 .072 .306 0 .162 0 0" fill="#00ff00" fill-rule="evenodd"/><path transform="matrix(0,1,1,0,132.393,325.89)" d="M0 0V-1.98L4.212-4.41 8.424-1.98V0L4.212-2.43" fill="#ffffff" fill-rule="evenodd"/><path transform="matrix(0,1,1,0,134.589,326.376)" d="M0 0V-1.566H.324V-.972H2.16V-.594H.324V0" fill="#ffffff" fill-rule="evenodd"/><path transform="matrix(0,1,1,0,135.471,326.376)" d="M0 0 2.16-.684V-.342L1.782-.216V.702L2.16 .828V1.17L0 .468V0ZM1.476 .594V-.126L.396 .234 1.476 .594" fill="#ffffff" fill-rule="evenodd"/><path transform="matrix(0,1,1,0,137.955,327.402)" d="M0 0-1.026 .612V.198L-.342-.216-1.026-.63V-1.044L0-.414 1.134-1.116V-.702L.342-.216 1.134 .288V.702" fill="#ffffff" fill-rule="evenodd"/><path transform="matrix(0,1,1,0,139.107,326.376)" stroke-width=".144" stroke-linecap="round" stroke-linejoin="round" fill="none" stroke="#ffffff" d="M2.16 0H0V.37799H2.16Z"/><path transform="matrix(0,1,1,0,0,0)" d="M326.376 139.107H328.536V139.48499H326.376Z" fill="#ffffff"/><path transform="matrix(0,1,1,0,141.879,328.248)" stroke-width=".144" stroke-linecap="round" stroke-linejoin="round" fill="none" stroke="#ffffff" d="M0 0V.018"/><path transform="matrix(0,1,1,0,142.167,326.916)" d="M0 0-.216 .288C-.45 .018-.558-.234-.558-.522-.558-.72-.522-.936-.378-1.08-.27-1.206-.09-1.296 .072-1.278 .252-1.278 .414-1.206 .504-1.08 .558-1.026 .576-.972 .594-.918 .648-.792 .666-.666 .684-.522 .684-.486 .702-.468 .702-.432 .72-.288 .756-.144 .864-.09 .954-.036 1.08-.018 1.152-.054 1.296-.126 1.314-.288 1.314-.468 1.314-.684 1.242-.9 1.008-1.08L1.26-1.368C1.332-1.296 1.404-1.206 1.458-1.098 1.584-.918 1.656-.72 1.656-.486 1.656-.27 1.584-.018 1.458 .126 1.404 .18 1.332 .234 1.26 .27 1.224 .288 1.188 .288 1.134 .306 1.116 .306 1.098 .324 1.08 .324 1.062 .324 1.044 .324 1.044 .324 1.026 .324 1.008 .324 1.008 .342V.324C.954 .342 .9 .324 .846 .324 .738 .288 .63 .234 .54 .144 .504 .09 .468 .054 .45 0 .432-.054 .414-.108 .414-.162L.306-.648C.306-.702 .288-.738 .27-.774 .216-.846 .162-.9 .072-.918 0-.918-.09-.864-.162-.792-.216-.72-.234-.648-.234-.54-.216-.378-.144-.162 0 0" fill="#ffffff" fill-rule="evenodd"/><path transform="matrix(0,1,1,0,144.327,326.376)" d="M0 0V-1.566H.324V-.972H2.16V-.594H.324V0" fill="#ffffff" fill-rule="evenodd"/><path transform="matrix(0,1,1,0,145.209,326.376)" d="M0 0 2.16-.684V-.342L1.782-.216V.702L2.16 .828V1.17L0 .468V0ZM1.476 .594V-.108L.396 .234 1.476 .594" fill="#ffffff" fill-rule="evenodd"/><path transform="matrix(0,1,1,0,148.287,328.536)" d="M0 0V.432H-2.16V.054H-.576L-2.16-.99V-1.422H0V-1.044H-1.566" fill="#ffffff" fill-rule="evenodd"/><path transform="matrix(0,1,1,0,150.267,326.376)" d="M0 0C0 .252 .126 .486 .324 .666 .522 .846 .792 .954 1.08 .954 1.206 .954 1.35 .918 1.476 .882 1.62 .828 1.746 .756 1.854 .666 1.944 .576 2.034 .468 2.088 .36 2.142 .234 2.16 .126 2.16 0V-.81H0V0ZM.324 0V-.432H1.836V0C1.836 .144 1.764 .288 1.62 .414 1.458 .522 1.26 .576 1.08 .576 .9 .576 .702 .522 .558 .414 .468 .36 .414 .288 .378 .216 .342 .144 .324 .072 .324 0" fill="#ffffff" fill-rule="evenodd"/><path transform="matrix(0,1,1,0,134.247,330.246)" d="M0 0 .522-.252V-.666H3.114V-.342H2.844V.378H3.06V.702H.522V.126L.198 .324 .162 .378H.126L.09 .342 .072 .252 0 0ZM1.512-.342H.82800999V.37800003H1.512ZM2.538-.342H1.8360001V.37800003H2.538Z" fill="#ffffff" fill-rule="evenodd"/><path transform="matrix(0,1,1,0,135.795,330.336)" d="M0 0-.072-.216 .27-.36 .576-.522 .846-.684 1.08-.846 1.242-.54 1.008-.378 .738-.234V.522H1.62C2.006 .564 2.686 .555 2.7 .018V-.234L3.024-.09V.126C3.199 .845 2.077 .877 1.638 .846H.432V-.072L.144 .054 .108 .108 .072 .126 .036 .072" fill="#ffffff" fill-rule="evenodd"/><path transform="matrix(0,1,1,0,135.489,331.632)" d="M0 0 .234-.234 .522 .036 .846 .27 .612 .522 .288 .288" fill="#ffffff" fill-rule="evenodd"/><path transform="matrix(0,1,1,0,139.449,330.282)" d="M0 0-.018-.288H1.008V-1.674H1.332V-.288H2.574V-1.476H2.898V1.26H2.574V.072H1.332V1.476H1.008V.072H.126L.072 .162 .036 .18 .018 .126" fill="#ffffff" fill-rule="evenodd"/><path transform="matrix(0,1,1,0,142.023,330.876)" d="M0 0H.306V1.422H0V.918H-.486L-.54 .972H-.576L-.594 .936-.612 .882-.63 .576H0" fill="#ffffff" fill-rule="evenodd"/><path transform="matrix(0,1,1,0,142.023,332.838)" d="M0 0 .342 .054 .396 .09 .414 .126 .396 .144 .342 .18 .054 1.368H-.234L-.144 1.044-1.278 1.296-1.314 1.35-1.35 1.368-1.386 1.35-1.422 1.278-1.53 1.008-.774 .882-.09 .738" fill="#ffffff" fill-rule="evenodd"/><path transform="matrix(0,1,1,0,142.311,332.622)" d="M0 0-.09 .306-.774 .198-1.26 .09-1.206-.216" fill="#ffffff" fill-rule="evenodd"/><path transform="matrix(0,1,1,0,143.499,331.776)" d="M0 0H1.638V.324H1.404V1.242H1.638V1.566H0V.828H-.594V1.674H-.9V.828H-1.386L-1.44 .864H-1.476L-1.512 .846-1.53 .81-1.548 .45H0V0ZM1.098 .324H.32401008V1.242H1.098Z" fill="#ffffff" fill-rule="evenodd"/></g></svg>