<?xml version='1.0' encoding='UTF-8'?>
<svg width="187.47" height="262.89" viewBox="191.12 4.46 187.47 262.89" xmlns="http://www.w3.org/2000/svg" xmlns:xlink="http://www.w3.org/1999/xlink" xmlns:inkscape="http://www.inkscape.org/namespaces/inkscape" version="1.1"><g transform="scale(10.0) translate(-220.305, -451.152)"><defs><clipPath id="clip_19"><path transform="matrix(0,1,1,0,0,0)" d="M0 74.451H595.008V767.55899H0Z"/></clipPath><clipPath id="clip_20"><path transform="matrix(0,1,1,0,0,0)" d="M0 842.013H595.224V.008972168H0Z"/></clipPath></defs><path transform="matrix(0,1,1,0,257.835,475.866)" d="M0 0H-22.248C-22.446 0-22.662-.036-22.86-.108-23.076-.198-23.274-.324-23.436-.486-23.598-.666-23.724-.846-23.814-1.062-23.904-1.278-23.94-1.494-23.94-1.692V-16.398C-23.94-16.596-23.904-16.812-23.814-17.028-23.724-17.226-23.598-17.424-23.436-17.586-23.274-17.766-23.076-17.892-22.86-17.964-22.662-18.054-22.446-18.09-22.248-18.09H0C.216-18.09 .414-18.054 .63-17.964 .846-17.892 1.044-17.766 1.206-17.586 1.368-17.424 1.494-17.226 1.584-17.028 1.656-16.812 1.692-16.596 1.692-16.398V-1.692C1.692-1.494 1.656-1.278 1.584-1.062 1.494-.846 1.368-.666 1.206-.486 1.044-.324 .846-.198 .63-.108 .414-.036 .216 0 0 0" fill="#ffffff" fill-rule="evenodd"/><path transform="matrix(0,1,1,0,241.437,451.926)" stroke-width=".144" stroke-linecap="round" stroke-linejoin="round" fill="none" stroke="#0000ff" d="M0 0V14.706"/><path transform="matrix(0,1,1,0,239.745,453.61799)" stroke-width=".144" stroke-linecap="round" stroke-linejoin="round" fill="none" stroke="#0000ff" d="M0 0C-.936 0-1.692 .756-1.692 1.692"/><path transform="matrix(0,1,1,0,239.745,475.86598)" stroke-width=".144" stroke-linecap="round" stroke-linejoin="round" fill="none" stroke="#0000ff" d="M0 0H-22.248"/><path transform="matrix(0,1,1,0,241.437,477.558)" stroke-width=".144" stroke-linecap="round" stroke-linejoin="round" fill="none" stroke="#0000ff" d="M0 0C0-.936-.756-1.692-1.692-1.692"/><path transform="matrix(0,1,1,0,256.143,477.558)" stroke-width=".144" stroke-linecap="round" stroke-linejoin="round" fill="none" stroke="#0000ff" d="M0 0V-14.706"/><path transform="matrix(0,1,1,0,257.835,475.86604)" stroke-width=".144" stroke-linecap="round" stroke-linejoin="round" fill="none" stroke="#0000ff" d="M0 0C.936 0 1.692-.756 1.692-1.692"/><path transform="matrix(0,1,1,0,257.835,453.61805)" stroke-width=".144" stroke-linecap="round" stroke-linejoin="round" fill="none" stroke="#0000ff" d="M0 0H22.248"/><path transform="matrix(0,1,1,0,256.143,451.92607)" stroke-width=".144" stroke-linecap="round" stroke-linejoin="round" fill="none" stroke="#0000ff" d="M0 0C0 .936 .756 1.692 1.692 1.692"/><path transform="matrix(0,1,1,0,241.437,452.772)" d="M0 0V14.706C0 14.814 .018 14.922 .072 15.03 .108 15.12 .162 15.228 .252 15.318 .342 15.39 .432 15.462 .54 15.498 .648 15.534 .756 15.552 .846 15.552H23.094C23.31 15.552 23.526 15.48 23.706 15.318 23.778 15.228 23.85 15.12 23.886 15.03 23.922 14.922 23.94 14.814 23.94 14.706V0C23.94-.198 23.868-.432 23.706-.594 23.526-.774 23.31-.846 23.094-.846H.846C.63-.846 .414-.756 .252-.594 .09-.432 0-.234 0 0" fill="#0000ff" fill-rule="evenodd"/><path transform="matrix(0,1,1,0,244.065,457.11)" stroke-width=".144" stroke-linecap="round" stroke-linejoin="round" fill="none" stroke="#ffffff" d="M0 0V.018"/><path transform="matrix(0,1,1,0,244.479,455.148)" d="M0 0-.306 .432C-.666 .036-.828-.324-.828-.756-.828-1.044-.756-1.368-.558-1.584-.396-1.782-.144-1.89 .108-1.89 .36-1.872 .612-1.782 .756-1.584 .81-1.512 .846-1.422 .882-1.332 .936-1.152 .972-.972 1.008-.756 1.008-.72 1.026-.684 1.026-.63 1.062-.432 1.116-.216 1.278-.126 1.386-.054 1.566-.036 1.692-.09 1.89-.162 1.944-.432 1.926-.684 1.908-1.008 1.818-1.314 1.476-1.584L1.836-2.016C1.962-1.89 2.07-1.764 2.142-1.62 2.304-1.35 2.412-1.044 2.412-.702 2.43-.378 2.322-.036 2.124 .198 2.052 .27 1.962 .342 1.854 .396 1.8 .414 1.728 .432 1.674 .45 1.638 .45 1.602 .468 1.584 .468 1.566 .468 1.548 .486 1.53 .486 1.512 .486 1.512 .486 1.494 .486H1.476C1.404 .486 1.314 .486 1.242 .468 1.08 .432 .918 .342 .792 .216 .738 .144 .684 .072 .666 0 .63-.072 .612-.162 .594-.234L.45-.954C.432-1.026 .414-1.08 .378-1.134 .324-1.242 .216-1.332 .108-1.332-.018-1.35-.144-1.26-.234-1.17V-1.152C-.234-1.152-.234-1.17-.234-1.152-.324-1.044-.342-.936-.342-.792-.324-.558-.234-.234 0 0" fill="#ffffff" fill-rule="evenodd"/><path transform="matrix(0,1,1,0,245.847,457.524)" d="M0 0V1.8H-.468V.54H-3.168V0" fill="#ffffff" fill-rule="evenodd"/><path transform="matrix(0,1,1,0,249.483,454.266)" d="M0 0C0-.378 .18-.756 .486-1.026 .81-1.296 1.242-1.44 1.674-1.44 2.124-1.44 2.538-1.296 2.862-1.026 3.168-.756 3.348-.378 3.348 0 3.348 .18 3.312 .36 3.24 .54 3.15 .72 3.024 .882 2.862 1.026 2.7 1.17 2.502 1.278 2.286 1.35 2.088 1.422 1.872 1.458 1.674 1.458 1.242 1.458 .81 1.296 .486 1.026 .18 .756 0 .378 0 0ZM.504 0C.504 .216 .612 .45 .846 .648 .954 .738 1.098 .792 1.242 .846 1.386 .882 1.53 .9 1.674 .9 1.98 .9 2.286 .81 2.502 .648 2.736 .468 2.862 .234 2.862 0 2.862-.216 2.754-.45 2.502-.63 2.394-.72 2.25-.792 2.106-.846 1.962-.882 1.818-.9 1.674-.9 1.53-.9 1.386-.882 1.242-.846 1.098-.792 .954-.72 .846-.63 .612-.45 .504-.216 .504 0" fill="#ffffff" fill-rule="evenodd"/><path transform="matrix(0,1,1,0,243.291,466.2)" d="M0 0C0 .18 .09 .36 .252 .504 .396 .63 .612 .702 .828 .702 1.026 .702 1.242 .63 1.422 .504 1.494 .432 1.566 .342 1.602 .252 1.638 .18 1.656 .09 1.656 0V-.666H2.646V-1.116H0V0ZM.396-.666H1.26V-.108C1.26-.018 1.224 .072 1.134 .144 1.044 .216 .936 .252 .828 .252 .72 .252 .612 .216 .522 .144 .486 .108 .45 .072 .432 .018 .414-.018 .396-.072 .396-.108V-.666" fill="#ffffff" fill-rule="evenodd"/><path transform="matrix(0,1,1,0,245.667,466.128)" d="M0 0C0-.144 .036-.306 .09-.45 .162-.594 .27-.738 .414-.864 .54-.972 .702-1.062 .882-1.116 1.062-1.188 1.224-1.206 1.386-1.206 1.566-1.206 1.728-1.188 1.908-1.116 2.088-1.062 2.25-.972 2.376-.864 2.52-.738 2.628-.594 2.682-.45 2.754-.306 2.79-.144 2.79 0 2.79 .144 2.754 .288 2.682 .432 2.628 .594 2.52 .738 2.376 .846 2.25 .972 2.088 1.062 1.908 1.116 1.728 1.17 1.566 1.206 1.386 1.206 1.026 1.206 .666 1.08 .414 .846 .144 .63 0 .324 0 0ZM.414 0C.414 .18 .504 .378 .702 .522 .792 .612 .918 .666 1.026 .702 1.152 .738 1.278 .756 1.386 .756 1.512 .756 1.638 .738 1.746 .702 1.872 .666 1.998 .612 2.088 .522 2.286 .378 2.376 .18 2.376 0 2.376-.198 2.268-.396 2.088-.54 1.908-.684 1.656-.756 1.386-.756 1.278-.756 1.152-.738 1.026-.702 .918-.666 .792-.612 .702-.54 .504-.378 .414-.18 .414 0" fill="#ffffff" fill-rule="evenodd"/><path transform="matrix(0,1,1,0,247.593,468.846)" d="M0 0V1.512H-.396V.45H-2.646V0" fill="#ffffff" fill-rule="evenodd"/><path transform="matrix(0,1,1,0,249.627,466.2)" stroke-width=".144" stroke-linecap="round" stroke-linejoin="round" fill="none" stroke="#ffffff" d="M2.646 0H0V.45H2.646Z"/><path transform="matrix(0,1,1,0,0,0)" d="M466.2 249.627H468.846V250.077H466.2Z" fill="#ffffff"/><path transform="matrix(0,1,1,0,252.687,467.046)" d="M0 0C-.108-.054-.216-.108-.306-.198-.396-.288-.45-.396-.486-.522-.522-.63-.504-.756-.468-.864-.432-.972-.36-1.062-.288-1.134-.09-1.314 .18-1.422 .468-1.422 .774-1.422 1.044-1.314 1.224-1.134 1.314-1.062 1.386-.972 1.422-.864 1.458-.756 1.476-.63 1.44-.522 1.404-.396 1.35-.288 1.26-.198 1.17-.108 1.062-.054 .954 0L1.044 .432C1.206 .378 1.386 .27 1.53 .144 1.674 0 1.782-.18 1.836-.378 1.89-.558 1.89-.756 1.836-.936 1.782-1.116 1.692-1.278 1.566-1.404 1.458-1.53 1.314-1.638 1.116-1.728 .918-1.818 .702-1.872 .468-1.872 .252-1.872 .018-1.818-.162-1.728-.36-1.638-.504-1.53-.63-1.404-.738-1.278-.828-1.116-.882-.936-.936-.756-.936-.558-.882-.378-.828-.18-.72 0-.576 .144-.432 .27-.252 .378-.09 .432L0 0" fill="#ffffff" fill-rule="evenodd"/><path transform="matrix(0,1,1,0,253.821,468.846)" d="M0 0V1.728H-.414V.432H-1.134V1.548H-1.548V.432H-2.232V1.656H-2.646V0" fill="#ffffff" fill-rule="evenodd"/><path transform="matrix(0,1,1,0,243.309,462.474)" d="M0 0 .108 .45-.504 .54-1.278 .558-1.368 .63-1.458 .558-1.494 .126-.702 .108" fill="#ffffff" fill-rule="evenodd"/><path transform="matrix(0,1,1,0,244.947,460.962)" d="M0 0 .108-.36 1.026-.198 .918 .216 .432 .126" fill="#ffffff" fill-rule="evenodd"/><path transform="matrix(0,1,1,0,245.559,460.062)" d="M0 0H1.386V2.178H0ZM.54 .432H.342V1.746H.54ZM1.044 .432H.82803007V1.746H1.044Z" fill="#ffffff" fill-rule="evenodd"/><path transform="matrix(0,1,1,0,245.235,461.682)" d="M0 0H1.044V2.79H0ZM.702 1.206H.36002V1.54801H.702ZM.702 .45H.36002V.77401H.702ZM.702 1.998H.36002V2.3400002H.702Z" fill="#ffffff" fill-rule="evenodd"/><path transform="matrix(0,1,1,0,245.379,462.996)" d="M0 0H.36V.288L.702 .594 .99 .9 1.242 .27 1.386-.36 1.71-.072 1.548 .612 1.242 1.296 1.512 1.782 1.71 2.322 1.368 2.736 1.224 2.214 1.008 1.71 .666 2.106 .234 2.484-.054 2.268 0 2.142V0ZM.36 .792V1.782L.612 1.548 .774 1.314 .612 1.044 .36 .792" fill="#ffffff" fill-rule="evenodd"/><path transform="matrix(0,1,1,0,244.083,460.008)" d="M0 0H4.68V.45H.234L.126 .522 .018 .45" fill="#ffffff" fill-rule="evenodd"/><path transform="matrix(0,1,1,0,249.699,460.134)" d="M0 0H2.772V.432H2.538V1.638H3.348L2.844 1.404 2.88 1.17 3.24 1.314 3.6 1.422 3.546 1.62 3.762 1.584 3.906 1.476 4.032 1.296 4.104 1.026 4.14 .774 4.5 .918 4.482 1.08C4.378 1.811 3.943 2.05 3.24 1.998L2.16 2.016V1.386H1.836V1.944H1.44V1.386H1.098V1.944H.702V1.386H.396V2.016H0V0ZM.702 .432H.39597003V1.008H.702ZM1.44 .432H1.0980201V1.008H1.44ZM2.16 .432H1.8359901V1.008H2.16Z" fill="#ffffff" fill-rule="evenodd"/><path transform="matrix(0,1,1,0,250.743,463.068)" d="M0 0 .036-.27 .81-.09 .756 .18" fill="#ffffff" fill-rule="evenodd"/><path transform="matrix(0,1,1,0,250.311,463.158)" d="M0 0 .018-.27 .414-.216H.792L.756 .09" fill="#ffffff" fill-rule="evenodd"/><path transform="matrix(0,1,1,0,249.897,463.158)" d="M0 0V-.306L.504-.342 .936-.45 .918-.072" fill="#ffffff" fill-rule="evenodd"/><path transform="matrix(0,1,1,0,252.813,460.026)" d="M0 0H.702V-.9H2.52V0L3.276-.09 3.042-.288 2.718-.486 2.916-.792 3.366-.54 3.726-.252 3.888-.432 4.032-.63 4.122-.864 4.176-1.134 4.644-.828 4.392-.342 4.032 .036 4.392 .63 4.644 1.242 4.212 1.512 3.996 .864 3.654 .27 3.114 .378 2.52 .414V1.332H.702V.432H.216L.144 .504H.108L.072 .45 .054 .342 0 0ZM2.124-.414H1.08V-.018000007H2.124ZM2.124 .45H1.08V.9H2.124Z" fill="#ffffff" fill-rule="evenodd"/><path transform="matrix(0,1,1,0,244.353,471.06)" d="M0 0H.27V.576H.432L.342 .396 .72 .126 1.026-.162 1.224 .108 .846 .45V1.53H1.026L1.17 1.494 1.26 1.422 1.296 1.35V1.188L1.584 1.332 1.602 1.458C1.516 1.837 1.276 1.801 .954 1.836L.72 1.818 .9 2.106 .648 2.268 .828 2.376 .99 2.538 1.152 2.232 1.26 1.89 1.548 2.16 1.242 2.826 1.44 3.15 1.62 3.528 1.368 3.852 1.206 3.438 1.008 3.078 .756 3.294 .45 3.456V3.726H.18V2.574L.036 2.664 .018 2.718-.018 2.736-.054 2.718-.09 2.664-.198 2.412 .27 2.142 .648 1.836H.594V.648L.54 .702 .504 .72 .468 .684 .432 .612V.882H.27V1.206H.468V1.53H.27V1.926H0V1.53L-.054 1.602-.09 1.62-.126 1.566-.162 1.476-.18 1.206H0V.9L-.054 .972-.108 .99-.144 .954-.18 .846V.576H0V0ZM.45 2.466V3.06L.81 2.79 .648 2.61 .45 2.466" fill="#ffffff" fill-rule="evenodd"/><path transform="matrix(0,1,1,0,0,0)" d="M473.058 244.209H473.29203V248.133H473.058Z" fill="#ffffff"/><path transform="matrix(0,1,1,0,0,0)" d="M472.698 244.875H472.93199V247.503H472.698Z" fill="#ffffff"/><path transform="matrix(0,1,1,0,0,0)" d="M473.418 244.893H473.652V247.503H473.418Z" fill="#ffffff"/><path transform="matrix(0,1,1,0,0,0)" d="M473.778 244.893H474.012V247.503H473.778Z" fill="#ffffff"/><path transform="matrix(0,1,1,0,244.749,474.156)" d="M0 0H.63V2.898H0ZM.396 .396H.23398V2.484H.396Z" fill="#ffffff" fill-rule="evenodd"/><path transform="matrix(0,1,1,0,244.749,472.05)" d="M0 0H.504V.79201H0ZM.324 .252H.16201V.53999H.324Z" fill="#ffffff" fill-rule="evenodd"/><path transform="matrix(0,1,1,0,249.861,471.996)" d="M0 0V.414H-.144V2.664H0V3.06H-.81L-.864 3.114H-.918L-.954 3.06-.972 2.952-1.008 2.664H-.504V1.746H-.918L-.99 1.818H-1.044L-1.08 1.746-1.098 1.638-1.116 1.35H-.504V.414H-.81L-.864 .468H-.918L-.954 .414-.99 .288-1.008 0" fill="#ffffff" fill-rule="evenodd"/><path transform="matrix(0,1,1,0,249.735,474.804)" d="M0 0V.378H-2.322V1.116L-2.25 .792-1.854 1.044V.558H-1.512V1.476H-.954V1.08H-1.188L-1.242 1.134-1.296 1.152-1.332 1.098-1.368 1.008-1.386 .702H-.414V1.08H-.63V2.232H-.414V2.61H-1.188L-1.26 2.664H-1.296L-1.332 2.61-1.368 2.502-1.386 2.232H-.954V1.854H-1.512V2.772H-1.854V2.304L-2.16 2.574-2.322 2.268V2.934H-.54L-.468 2.916-.414 2.898-.378 2.826V2.502L.018 2.682V2.898L-.018 3.114-.126 3.258-.288 3.33H-2.682V0H0ZM-2.322 1.188V2.142L-1.854 1.872V1.44L-2.322 1.188" fill="#ffffff" fill-rule="evenodd"/><path transform="matrix(0,1,1,0,252.219,457.524)" d="M0 0-3.168-.72V-.162L-.828 .306-3.168 .828V1.44L-.828 1.962-3.168 2.43V3.006L0 2.268V1.656L-2.322 1.134 0 .63" fill="#ffffff" fill-rule="evenodd"/></g></svg>