<?xml version='1.0' encoding='UTF-8'?>
<svg width="294.83" height="253.79" viewBox="137.52 9.00 294.83 253.79" xmlns="http://www.w3.org/2000/svg" xmlns:xlink="http://www.w3.org/1999/xlink" xmlns:inkscape="http://www.inkscape.org/namespaces/inkscape" version="1.1"><g transform="scale(10.0) translate(-111.171, -289.584)"><defs><clipPath id="clip_19"><path transform="matrix(0,1,1,0,0,0)" d="M0 74.451H595.008V767.55899H0Z"/></clipPath><clipPath id="clip_20"><path transform="matrix(0,1,1,0,0,0)" d="M0 842.013H595.224V.008972168H0Z"/></clipPath></defs><path transform="matrix(0,1,1,0,0,0)" d="M290.844 125.283H315.504V154.047H290.844Z" fill="#ffff00"/><path transform="matrix(0,1,1,0,127.461,297.54)" d="M0 0V21.726C0 21.924 .036 22.122 .144 22.302 .252 22.482 .396 22.626 .558 22.716L5.346 25.488C5.436 25.542 5.544 25.56 5.634 25.56 5.742 25.56 5.85 25.524 5.922 25.488L10.71 22.716C10.89 22.626 11.034 22.482 11.142 22.302 11.25 22.122 11.286 21.924 11.286 21.726V0C11.286-.144 11.268-.288 11.214-.432 11.16-.576 11.07-.702 10.962-.81 10.836-.936 10.71-1.008 10.566-1.08 10.422-1.134 10.278-1.152 10.152-1.152H1.134C.846-1.152 .54-1.026 .324-.81 .108-.594 0-.306 0 0" fill="#ffffff" fill-rule="evenodd"/><path transform="matrix(0,1,1,0,127.461,298.098)" d="M0 0V21.726C0 21.816 .036 21.924 .09 22.014 .144 22.104 .216 22.176 .288 22.23L5.076 24.984 9.864 22.23C9.954 22.176 10.026 22.104 10.08 22.014 10.134 21.924 10.152 21.816 10.152 21.726V0C10.152-.072 10.152-.144 10.116-.216 10.098-.288 10.044-.36 9.99-.414 9.936-.468 9.864-.504 9.792-.54 9.72-.558 9.648-.576 9.594-.576H.576C.432-.576 .288-.522 .18-.414 .072-.306 0-.162 0 0" fill="#00ff00" fill-rule="evenodd"/><path transform="matrix(0,1,1,0,129.477,299.448)" d="M0 0V-1.566H.324V-.972H2.16V-.594H.324V0" fill="#ffffff" fill-rule="evenodd"/><path transform="matrix(0,1,1,0,130.359,299.448)" d="M0 0 2.16-.684V-.36L1.782-.216V.684L2.16 .828V1.152L0 .468V0ZM1.476 .594V-.126L.396 .234 1.476 .594" fill="#ffffff" fill-rule="evenodd"/><path transform="matrix(0,1,1,0,132.843,300.474)" d="M0 0-1.026 .612V.198L-.342-.216-1.026-.63V-1.044L0-.432 1.134-1.134V-.702L.342-.216 1.134 .27V.702" fill="#ffffff" fill-rule="evenodd"/><path transform="matrix(0,1,1,0,133.995,299.448)" stroke-width=".144" stroke-linecap="round" stroke-linejoin="round" fill="none" stroke="#ffffff" d="M2.16 0H0V.35999H2.16Z"/><path transform="matrix(0,1,1,0,0,0)" d="M299.448 133.995H301.608V134.35498H299.448Z" fill="#ffffff"/><path transform="matrix(0,1,1,0,136.767,301.32)" stroke-width=".144" stroke-linecap="round" stroke-linejoin="round" fill="none" stroke="#ffffff" d="M0 0V.018"/><path transform="matrix(0,1,1,0,137.037,299.988)" d="M0 0-.216 .306C-.45 .036-.558-.216-.558-.504-.558-.702-.522-.918-.378-1.062-.27-1.188-.09-1.278 .09-1.278 .252-1.26 .414-1.206 .504-1.062 .558-1.026 .576-.954 .594-.9 .648-.774 .666-.648 .684-.504 .684-.486 .702-.45 .702-.414 .72-.27 .756-.144 .864-.072 .954-.018 1.08-.018 1.152-.054 1.296-.108 1.332-.288 1.314-.45 1.314-.666 1.242-.882 1.008-1.062L1.26-1.35C1.332-1.278 1.404-1.188 1.458-1.098 1.584-.9 1.656-.702 1.656-.468 1.656-.252 1.584 0 1.458 .144 1.404 .198 1.332 .252 1.26 .27 1.224 .288 1.188 .306 1.134 .324 1.116 .324 1.098 .324 1.08 .342 1.062 .342 1.044 .342 1.044 .342H1.026C1.026 .342 1.026 .342 1.026 .342H1.008C1.008 .342 1.026 .342 1.008 .342 .954 .342 .9 .342 .846 .324 .738 .306 .63 .252 .54 .162 .504 .108 .468 .054 .45 0 .432-.036 .414-.09 .414-.144L.306-.648C.306-.684 .288-.72 .27-.756 .234-.828 .162-.9 .09-.9 0-.918-.09-.846-.162-.792V-.774C-.162-.774-.162-.774-.162-.774-.216-.702-.234-.63-.234-.522-.216-.36-.144-.144 0 0" fill="#ffffff" fill-rule="evenodd"/><path transform="matrix(0,1,1,0,139.215,299.448)" d="M0 0V-1.566H.324V-.972H2.16V-.594H.324V0" fill="#ffffff" fill-rule="evenodd"/><path transform="matrix(0,1,1,0,140.097,299.448)" d="M0 0 2.16-.684V-.342L1.782-.216V.702L2.16 .828V1.17L0 .468V0ZM1.476 .594V-.126L.396 .234 1.476 .594" fill="#ffffff" fill-rule="evenodd"/><path transform="matrix(0,1,1,0,143.175,301.608)" d="M0 0V.432H-2.16V.054H-.576L-2.16-.99V-1.422H0V-1.062H-1.566" fill="#ffffff" fill-rule="evenodd"/><path transform="matrix(0,1,1,0,145.155,299.448)" d="M0 0C0 .108 .036 .234 .072 .342 .126 .468 .216 .576 .324 .666 .432 .756 .558 .828 .684 .882 .828 .918 .954 .936 1.08 .936 1.206 .936 1.35 .918 1.476 .882 1.62 .828 1.746 .756 1.854 .666 1.962 .576 2.034 .468 2.088 .342 2.142 .234 2.16 .108 2.16 0V-.81H0V0ZM.324 0V-.45H1.836V0C1.836 .144 1.764 .288 1.62 .414 1.458 .522 1.26 .576 1.08 .576 .9 .576 .702 .522 .558 .414 .468 .342 .414 .288 .378 .216 .342 .144 .324 .072 .324 0" fill="#ffffff" fill-rule="evenodd"/><path transform="matrix(0,1,1,0,146.937,298.962)" d="M0 0V1.98L4.212 4.41 8.442 1.98V0L4.212 2.43" fill="#ffffff" fill-rule="evenodd"/><path transform="matrix(0,1,1,0,129.135,303.318)" d="M0 0 .522-.252V-.666H3.114V-.342H2.844V.36H3.06V.702H.522V.126L.198 .306 .162 .36 .126 .378 .09 .342 .072 .252 0 0ZM1.512-.342H.82800999V.36H1.512ZM2.538-.342H1.8360001V.36H2.538Z" fill="#ffffff" fill-rule="evenodd"/><path transform="matrix(0,1,1,0,130.683,303.408)" d="M0 0-.072-.234 .27-.378 .576-.522 .846-.684 1.08-.864 1.242-.54 1.008-.378 .738-.234V.504H1.62C2.016 .556 2.677 .567 2.7 .018V-.234L3.024-.09V.108C3.184 .86 2.107 .853 1.638 .846H.432V-.09L.144 .054 .108 .108H.072L.036 .072" fill="#ffffff" fill-rule="evenodd"/><path transform="matrix(0,1,1,0,130.377,304.722)" d="M0 0 .216-.234 .504 .036 .828 .27 .594 .522 .27 .27" fill="#ffffff" fill-rule="evenodd"/><path transform="matrix(0,1,1,0,134.319,303.354)" d="M0 0-.018-.27H1.008V-1.674H1.332V-.27H2.592V-1.458H2.898V1.278H2.592V.09H1.332V1.494H1.008V.09H.144L.09 .18H.036L.018 .126" fill="#ffffff" fill-rule="evenodd"/><path transform="matrix(0,1,1,0,136.911,303.948)" d="M0 0H.306V1.422H0V.918H-.486L-.54 .954-.576 .972-.594 .936-.612 .882-.63 .576H0" fill="#ffffff" fill-rule="evenodd"/><path transform="matrix(0,1,1,0,136.893,305.91)" d="M0 0 .342 .072 .396 .108 .414 .126 .396 .162 .342 .198 .054 1.386H-.234L-.144 1.062-1.278 1.314-1.314 1.368-1.35 1.386-1.386 1.35-1.422 1.296-1.53 1.026-.774 .9-.09 .756" fill="#ffffff" fill-rule="evenodd"/><path transform="matrix(0,1,1,0,137.199,305.694)" d="M0 0-.09 .306-.774 .198-1.26 .09-1.206-.216" fill="#ffffff" fill-rule="evenodd"/><path transform="matrix(0,1,1,0,138.369,304.848)" d="M0 0H1.638V.342H1.404V1.26H1.638V1.584H0V.828H-.594V1.674H-.9V.828H-1.386L-1.44 .882H-1.476L-1.512 .864-1.53 .81-1.548 .468H0V0ZM1.098 .342H.32398004V1.26H1.098Z" fill="#ffffff" fill-rule="evenodd"/></g></svg>