<?xml version='1.0' encoding='UTF-8'?>
<svg width="294.83" height="253.79" viewBox="137.52 9.18 294.83 253.79" xmlns="http://www.w3.org/2000/svg" xmlns:xlink="http://www.w3.org/1999/xlink" xmlns:inkscape="http://www.inkscape.org/namespaces/inkscape" version="1.1"><g transform="scale(10.0) translate(-111.171, -208.800)"><defs><clipPath id="clip_19"><path transform="matrix(0,1,1,0,0,0)" d="M0 74.451H595.008V767.55899H0Z"/></clipPath><clipPath id="clip_20"><path transform="matrix(0,1,1,0,0,0)" d="M0 842.013H595.224V.008972168H0Z"/></clipPath></defs><path transform="matrix(0,1,1,0,125.283,210.078)" d="M0 0V28.764H24.66V0H15.03" fill="#ffff00" fill-rule="evenodd"/><path transform="matrix(0,1,1,0,127.677,213.498)" d="M0 0V23.976C0 24.084 .036 24.21 .126 24.318 .234 24.408 .36 24.462 .468 24.462H11.502C11.556 24.462 11.61 24.444 11.664 24.426 11.736 24.39 11.79 24.354 11.844 24.318 11.88 24.264 11.916 24.21 11.934 24.156 11.97 24.084 11.97 24.03 11.97 23.976V0C11.97-.108 11.934-.234 11.844-.342 11.736-.432 11.61-.486 11.502-.486H.468C.414-.486 .36-.468 .288-.45 .234-.414 .18-.378 .126-.342 .09-.288 .054-.234 .018-.18 0-.108 0-.054 0 0" fill="#00ff00" fill-rule="evenodd"/><path transform="matrix(0,1,1,0,137.613,221.31)" d="M0 0V1.962H1.98V.36H2.214V3.888H1.98V2.232H0V4.212H-.234V2.232H-1.728L-1.764 2.304H-1.8L-1.836 2.232-1.872 2.106-1.89 1.962H-.234V0" fill="#ffffff" fill-rule="evenodd"/><path transform="matrix(0,1,1,0,144.651,222.714)" d="M0 0 .162-.648-.774-.378-1.71-.162-1.746-.09-1.764-.072-1.8-.108-1.836-.18-1.962-.468-.792-.702 .234-1.008 .45-1.908 .72-1.8 .792-1.764 .81-1.71 .774-1.674 .666-1.62 .27 0" fill="#ffffff" fill-rule="evenodd"/><path transform="matrix(0,1,1,0,143.103,221.76)" d="M0 0-.738-.18-.828 .09 .036 .324 .846 .468 .918 .144" fill="#ffffff" fill-rule="evenodd"/><path transform="matrix(0,1,1,0,143.931,219.528)" d="M0 0H.702V.774H.954V-1.188H.702V-.288H-.234L-.198-.054-.18 .036-.144 .09-.072 .072" fill="#ffffff" fill-rule="evenodd"/><path transform="matrix(0,1,1,0,135.129,221.346)" d="M0 0 .954 .468 1.116 .18 .09-.27" fill="#ffffff" fill-rule="evenodd"/><path transform="matrix(0,1,1,0,135.291,223.272)" d="M0 0V.54L-.09 .684-.324 .792-.648 .864-1.098 .9-2.754 .99-2.79 .954V-.162L-2.25-.486-2.232-.558-2.25-.63-2.322-.792H-2.394L-2.682-.594-3.042-.396-3.456-.234-3.942-.09-3.888 .018-3.798 .216-3.78 .252-3.744 .27-3.708 .216-3.672 .144-3.024-.054V1.26L-3.006 1.296-.738 1.206-.324 1.116 0 1.008 .216 .846 .342 .63V-.072L.288-.108 .072-.162 .018-.144" fill="#ffffff" fill-rule="evenodd"/><path transform="matrix(0,1,1,0,0,0)" d="M215.208 135.921H217.512V136.335H215.208Z" fill="#ffffff"/><path transform="matrix(0,1,1,0,133.455,217.512)" d="M0 0-1.224 .594-2.304 .072V.504L-1.71 .774-1.584 .81-1.71 .864-2.304 1.134V1.566L-1.224 1.044 0 1.62V1.188L-.63 .882-.882 .81-.648 .738 0 .432" fill="#ffffff" fill-rule="evenodd"/><path transform="matrix(0,1,1,0,128.775,215.208)" d="M0 0V1.53H.378V.972H2.304V.576H.378V0" fill="#ffffff" fill-rule="evenodd"/><path transform="matrix(0,1,1,0,138.279,216.756)" d="M0 0 .216 .054H.252L.288 .072 .342 .108 .414 .126 .432 .144 .522 .198 .594 .288C.682 .37 .707 .398 .756 .504L.774 .54 .792 .594 .81 .702C.822 1.036 .641 1.256 .36 1.404L.306 1.422 .288 1.44 .216 1.458 .126 1.476C-.53 1.47-.547 1.173-.72 .63L-.774 .522-.81 .486C-1.157 .238-1.387 .776-1.152 1.008L-1.008 1.08-.864 1.098-.882 1.44-.972 1.422H-1.062C-1.817 1.187-1.765 .188-.972 .072H-.81L-.702 .09-.576 .126-.504 .198-.432 .252-.36 .36-.324 .432-.18 .9-.144 .972-.09 1.044 .018 1.098H.216L.288 1.062 .324 1.044C.463 .823 .475 .462 .162 .378L.09 .36H-.018" fill="#ffffff" fill-rule="evenodd"/><path transform="matrix(0,1,1,0,140.547,215.208)" d="M0 0V1.53H.378V.954H2.304V.576H.378V0" fill="#ffffff" fill-rule="evenodd"/><path transform="matrix(0,1,1,0,145.641,215.208)" d="M0 0H2.304V.378H.864L.684 .36 2.304 1.134V1.512H0V1.134H1.35L1.62 1.152 0 .378" fill="#ffffff" fill-rule="evenodd"/><path transform="matrix(0,1,1,0,131.007,217.512)" d="M0 0-2.304 .612V1.026L0 1.638V1.242L-.486 1.152V.504L0 .378V0ZM-1.872 .828-.882 .594V1.062L-1.872 .828" fill="#ffffff" fill-rule="evenodd"/><path transform="matrix(0,1,1,0,149.313,217.512)" d="M0 0V-.72H-2.304V0C-2.241 1.074-.24 1.127-.018 .126L0 0ZM-1.926-.018V-.324H-.414V-.018C-.499 .611-1.822 .604-1.926 0V-.018" fill="#ffffff" fill-rule="evenodd"/><path transform="matrix(0,1,1,0,142.761,217.512)" d="M0 0-2.304 .612V1.044L0 1.656V1.26L-.486 1.152V.504L0 .396V0ZM-1.872 .828-.882 .594V1.062L-1.872 .828" fill="#ffffff" fill-rule="evenodd"/><path transform="matrix(0,1,1,0,144.903,221.526)" d="M0 0H2.142V.288H1.836V1.71H2.142V2.016H0V.918H-1.062V2.016H-1.296V.918H-2.034L-2.088 1.026-2.142 1.044-2.178 .99-2.196 .864-2.232 .612H0V0ZM1.584 .288H.25199998V1.71H1.584ZM.252 .288" fill="#ffffff" fill-rule="evenodd"/><path transform="matrix(0,1,1,0,133.995,223.506)" d="M0 0V.216L-.036 .252H-3.24L-3.258 .216V-.504L-3.294-.522-3.978-.288-4.014-.216-4.05-.18-4.086-.198-4.122-.252-4.176-.504-4.14-.54-3.294-.846-3.258-.9V-1.35L-3.24-1.386H.09L.108-1.35V-1.134L.09-1.08H-.27L-.306-1.044V-.072L-.27-.036H-.036L0 0ZM-.594-.036-.558-.072V-1.044L-.594-1.08H-1.656L-1.692-1.044V-.072L-1.656-.036H-.594ZM-1.926-1.044-1.962-1.08H-2.988L-3.024-1.044V-.072L-2.988-.036H-1.962L-1.926-.072V-1.044" fill="#ffffff" fill-rule="evenodd"/><path transform="matrix(0,1,1,0,127.641,213.012)" d="M0 0V24.048C0 24.156 .018 24.264 .054 24.39 .108 24.498 .18 24.606 .27 24.696 .36 24.786 .468 24.858 .576 24.912 .702 24.948 .81 24.966 .918 24.966H12.024C12.132 24.966 12.24 24.948 12.366 24.912 12.474 24.858 12.582 24.786 12.672 24.696 12.762 24.606 12.834 24.498 12.87 24.39 12.924 24.264 12.942 24.156 12.942 24.048V0C12.942-.216 12.852-.468 12.672-.648 12.492-.846 12.24-.918 12.024-.918H.918C.81-.918 .702-.9 .576-.864 .468-.81 .36-.738 .27-.648 .18-.558 .108-.45 .054-.342 .018-.216 0-.108 0 0ZM.486 .036C.486-.072 .522-.198 .612-.306 .72-.396 .846-.45 .954-.45H11.988C12.096-.45 12.222-.396 12.33-.306 12.42-.198 12.456-.072 12.456 .036V24.012C12.456 24.12 12.42 24.246 12.33 24.354 12.222 24.444 12.096 24.498 11.988 24.498H.954C.846 24.498 .72 24.444 .612 24.354 .522 24.246 .486 24.12 .486 24.012V.036" fill="#ffffff" fill-rule="evenodd"/><path transform="matrix(0,1,1,0,137.091,228.402)" d="M0 0V2.052L1.368 .684V7.2H2.736V.684L4.104 2.052V0L2.052-2.052" fill-rule="evenodd"/><path transform="matrix(0,1,1,0,140.727,231.966)" stroke-width=".144" stroke-linecap="round" stroke-linejoin="round" fill="none" stroke="#000000" d="M0 0 .54-.54"/><path transform="matrix(0,1,1,0,141.55501,231.138)" stroke-width=".144" stroke-linecap="round" stroke-linejoin="round" fill="none" stroke="#000000" d="M0 0 .486-.486"/><path transform="matrix(0,1,1,0,143.04901,231.696)" stroke-width=".144" stroke-linecap="round" stroke-linejoin="round" fill="none" stroke="#000000" d="M0 0-1.242 1.242"/><path transform="matrix(0,1,1,0,142.23902,232.506)" stroke-width=".144" stroke-linecap="round" stroke-linejoin="round" fill="none" stroke="#000000" d="M0 0-.486 .486"/><path transform="matrix(0,1,1,0,141.55501,232.506)" stroke-width=".144" stroke-linecap="round" stroke-linejoin="round" fill="none" stroke="#000000" d="M0 0V.684"/><path transform="matrix(0,1,1,0,140.18701,232.506)" stroke-width=".144" stroke-linecap="round" stroke-linejoin="round" fill="none" stroke="#000000" d="M0 0V.846"/><path transform="matrix(0,1,1,0,140.97902,228.402)" stroke-width=".144" stroke-linecap="round" stroke-linejoin="round" fill="none" stroke="#000000" d="M0 0V-.792"/><path transform="matrix(0,1,1,0,142.23902,228.402)" stroke-width=".144" stroke-linecap="round" stroke-linejoin="round" fill="none" stroke="#000000" d="M0 0V-.738"/><path transform="matrix(0,1,1,0,142.76102,228.94199)" stroke-width=".144" stroke-linecap="round" stroke-linejoin="round" fill="none" stroke="#000000" d="M0 0-.54-.522"/><path transform="matrix(0,1,1,0,144.29102,230.45398)" stroke-width=".144" stroke-linecap="round" stroke-linejoin="round" fill="none" stroke="#000000" d="M0 0-1.206-1.206"/><path transform="matrix(0,1,1,0,141.01502,229.24799)" stroke-width=".144" stroke-linecap="round" stroke-linejoin="round" fill="none" stroke="#000000" d="M0 0 .522 .54"/><path transform="matrix(0,1,1,0,140.18701,228.402)" stroke-width=".144" stroke-linecap="round" stroke-linejoin="round" fill="none" stroke="#000000" d="M0 0 .594 .594"/><path transform="matrix(0,1,1,0,135.03902,230.706)" stroke-width=".144" stroke-linecap="round" stroke-linejoin="round" fill="none" stroke="#000000" d="M0 0H.432"/><path transform="matrix(0,1,1,0,135.03902,229.76999)" stroke-width=".144" stroke-linecap="round" stroke-linejoin="round" fill="none" stroke="#000000" d="M0 0H.486"/><path transform="matrix(0,1,1,0,135.03902,231.13799)" stroke-width=".144" stroke-linecap="round" stroke-linejoin="round" fill="none" stroke="#000000" d="M0 0V6.516"/><path transform="matrix(0,1,1,0,141.55503,229.76999)" stroke-width=".144" stroke-linecap="round" stroke-linejoin="round" fill="none" stroke="#000000" d="M0 0V-6.516"/></g></svg>