<?xml version='1.0' encoding='UTF-8'?>
<svg width="294.65" height="253.61" viewBox="137.53 9.19 294.65 253.61" xmlns="http://www.w3.org/2000/svg" xmlns:xlink="http://www.w3.org/1999/xlink" xmlns:inkscape="http://www.inkscape.org/namespaces/inkscape" version="1.1"><g transform="scale(10.0) translate(-220.305, -181.872)"><defs><clipPath id="clip_19"><path transform="matrix(0,1,1,0,0,0)" d="M0 74.451H595.008V767.55899H0Z"/></clipPath><clipPath id="clip_20"><path transform="matrix(0,1,1,0,0,0)" d="M0 842.013H595.224V.008972168H0Z"/></clipPath></defs><path transform="matrix(0,1,1,0,0,0)" d="M183.15 234.417H207.79199V263.163H183.15Z" fill="#0000ff"/><path transform="matrix(0,1,1,0,244.569,184.878)" d="M0 0C0 .198 .09 .396 .252 .522 .432 .666 .666 .756 .9 .756 1.134 .756 1.368 .666 1.53 .522 1.71 .396 1.8 .198 1.8 0V-.72H2.88V-1.224H0V0ZM.432-.72H1.368V-.126C1.368 .09 1.152 .252 .9 .252 .63 .252 .432 .09 .432-.126V-.72" fill="#ffffff" fill-rule="evenodd"/><path transform="matrix(0,1,1,0,245.649,186.714)" d="M0 0C.126 0 .27 .018 .396 .054 .522 .108 .648 .18 .756 .288 .864 .378 .936 .504 .99 .63 1.044 .756 1.08 .882 1.08 1.008 1.08 1.134 1.044 1.26 .99 1.386 .936 1.512 .864 1.638 .756 1.746 .648 1.836 .522 1.908 .396 1.962 .27 2.016 .126 2.034 0 2.016-.108 2.034-.252 2.016-.378 1.962-.504 1.908-.63 1.836-.738 1.746-.846 1.638-.918 1.512-.972 1.386-1.026 1.26-1.062 1.134-1.062 1.008-1.062 .882-1.026 .756-.972 .63-.918 .504-.846 .378-.738 .288-.63 .18-.504 .108-.378 .054-.252 .018-.108 0 0 0ZM-.612 1.008C-.612 1.134-.558 1.278-.432 1.404-.306 1.512-.144 1.548 0 1.548 .162 1.548 .324 1.512 .45 1.404 .576 1.278 .63 1.134 .63 1.008 .63 .882 .576 .738 .45 .63 .324 .522 .162 .468 0 .468-.144 .468-.306 .522-.432 .63-.558 .738-.612 .882-.612 1.008" fill="#ffffff" fill-rule="evenodd"/><path transform="matrix(0,1,1,0,248.223,187.362)" d="M0 0H-2.484V.468H-.09C-.054 .468-.036 .468 0 .504 .018 .522 .036 .558 .036 .576 .036 .63 .018 .684 .018 .738 .018 .774 0 .828-.018 .882L.396 .918C.414 .828 .414 .738 .432 .63 .432 .54 .414 .45 .414 .342 .396 .252 .342 .162 .27 .108 .18 .036 .09 0 0 0" fill="#ffffff" fill-rule="evenodd"/><path transform="matrix(0,1,1,0,0,0)" d="M185.688 249.501H187.75801V249.951H185.688Z" fill="#ffffff"/><path transform="matrix(0,1,1,0,249.987,185.094)" d="M0 0C-.144 0-.252-.108-.252-.252-.252-.414-.144-.522 0-.522 .162-.522 .27-.414 .27-.252 .27-.108 .162 0 0 0" fill="#ffffff" fill-rule="evenodd"/><path transform="matrix(0,1,1,0,251.337,187.398)" d="M0 0C.018 .09 .018 .18-.018 .27-.054 .324-.09 .396-.144 .432-.198 .486-.252 .54-.306 .576L-.09 .954 .036 .864C.09 .81 .144 .774 .198 .702 .252 .648 .288 .594 .324 .522 .378 .396 .414 .234 .396 .09 .396-.09 .342-.288 .252-.432 .126-.612-.036-.738-.216-.792-.45-.846-.666-.864-.9-.846-1.08-.81-1.26-.738-1.404-.612-1.512-.504-1.602-.378-1.674-.234-1.728-.054-1.746 .144-1.71 .324-1.674 .504-1.584 .684-1.44 .81-1.404 .828-1.35 .864-1.314 .882-1.278 .918-1.224 .936-1.188 .954L-.99 .558C-1.062 .522-1.152 .468-1.224 .414-1.26 .396-1.278 .36-1.296 .324-1.35 .18-1.332 .036-1.26-.09-1.188-.216-1.098-.288-.99-.342-.81-.414-.594-.432-.414-.378-.216-.342-.054-.198 0 0" fill="#ffffff" fill-rule="evenodd"/><path transform="matrix(0,1,1,0,253.407,187.794)" d="M0 0C.036 .234 .018 .468-.09 .702-.126 .792-.198 .9-.288 .972L-.594 .702-.54 .63C-.468 .54-.414 .432-.396 .306-.378 .162-.396 0-.486-.126-.522-.18-.594-.234-.684-.27-.756-.306-.846-.324-.918-.306V1.062C-1.116 1.08-1.314 1.062-1.512 .99-1.692 .936-1.854 .828-1.98 .684-2.178 .378-2.178 0-2.016-.324-1.854-.558-1.602-.702-1.314-.756-1.044-.81-.738-.774-.486-.648-.36-.594-.234-.522-.162-.396-.072-.27-.018-.144 0 0ZM-1.242-.324C-1.332-.324-1.44-.288-1.53-.234-1.602-.198-1.656-.126-1.692-.054-1.764 .072-1.764 .234-1.692 .36-1.656 .432-1.602 .504-1.548 .54-1.458 .594-1.35 .63-1.242 .63V-.324" fill="#ffffff" fill-rule="evenodd"/><path transform="matrix(0,1,1,0,237.783,190.512)" d="M0 0C.018 .072 .036 .144 .036 .216 .036 .234 .036 .252 .036 .288L.054 .324V.342C.072 .612 .234 .846 .468 .972 .558 1.026 .666 1.044 .774 1.026 .918 1.026 1.062 .972 1.134 .864 1.296 .666 1.386 .414 1.386 .162 1.386-.18 1.224-.504 .954-.702L.648-.414C.738-.36 .828-.27 .882-.162 .936-.072 .954 .036 .954 .144 .954 .198 .954 .252 .936 .306 .936 .36 .918 .414 .9 .45 .882 .504 .828 .54 .756 .54 .738 .558 .702 .54 .666 .54 .648 .522 .612 .504 .594 .486 .522 .414 .486 .288 .486 .144 .468 .09 .468 .036 .45-.036 .396-.234 .288-.414 .162-.54H.144C.054-.612-.054-.63-.162-.612H-.18C-.306-.612-.45-.558-.522-.468-.648-.342-.72-.18-.738 0L-.756 .036V.054C-.792 .378-.702 .738-.504 1.008L-.18 .702C-.27 .558-.324 .396-.324 .216-.324 .162-.324 .09-.306 .018-.288-.036-.216-.09-.162-.09-.09-.09-.018-.054 0 0" fill="#ffffff" fill-rule="evenodd"/><path transform="matrix(0,1,1,0,239.781,189.81)" stroke-width=".144" stroke-linecap="round" stroke-linejoin="round" fill="none" stroke="#ffffff" d="M0 0H.054"/><path transform="matrix(0,1,1,0,239.817,189.9)" d="M0 0C-.072 .126-.126 .27-.126 .432-.126 .594-.072 .774 .018 .936 .126 1.08 .27 1.206 .45 1.278 .612 1.35 .792 1.386 .936 1.386 1.098 1.386 1.26 1.368 1.44 1.296 1.602 1.224 1.746 1.098 1.854 .954 1.962 .792 2.016 .63 2.016 .45 2.016 .288 1.962 .144 1.908 .018 1.89 .018 1.89 0 1.89-.018L1.908-.036H1.926C1.926-.036 1.926-.036 1.926-.036H2.646V-.486H-.09V-.036H.018C.018-.018 .018 0 0 0ZM.432 .09C.504 .018 .612-.036 .72-.036H1.224C1.332-.018 1.422 .036 1.494 .126 1.566 .234 1.584 .36 1.584 .486 1.566 .612 1.494 .738 1.368 .81 1.098 .99 .738 .99 .486 .792 .378 .702 .306 .558 .306 .414 .306 .306 .36 .18 .432 .09" fill="#ffffff" fill-rule="evenodd"/><path transform="matrix(0,1,1,0,242.409,191.898)" d="M0 0C.054 .234 .018 .486-.09 .702-.126 .81-.198 .9-.288 .972L-.594 .72-.54 .648C-.468 .54-.414 .432-.396 .306-.36 .162-.396 .018-.468-.108-.522-.18-.594-.234-.666-.27-.756-.306-.828-.306-.918-.306V1.08C-1.116 1.08-1.314 1.062-1.494 1.008-1.692 .954-1.854 .846-1.962 .702-2.16 .396-2.178 0-2.016-.306-1.854-.54-1.602-.702-1.314-.738-1.026-.81-.738-.774-.486-.648-.36-.594-.234-.504-.144-.378-.072-.27-.018-.126 0 0ZM-1.224-.324C-1.332-.306-1.44-.27-1.53-.234-1.602-.18-1.656-.126-1.692-.054-1.764 .09-1.764 .234-1.692 .378-1.656 .45-1.602 .504-1.548 .558-1.44 .612-1.332 .63-1.224 .63V-.324" fill="#ffffff" fill-rule="evenodd"/><path transform="matrix(0,1,1,0,244.677,191.898)" d="M0 0C.054 .234 .018 .468-.09 .702-.126 .792-.198 .9-.288 .972L-.594 .702-.54 .63C-.468 .54-.414 .432-.396 .306-.36 .162-.396 .018-.468-.126-.522-.18-.594-.234-.666-.27-.756-.306-.828-.324-.918-.306V1.062C-1.116 1.08-1.314 1.062-1.494 .99-1.692 .954-1.854 .828-1.962 .684-2.16 .378-2.178 0-2.016-.324-1.854-.558-1.602-.702-1.314-.756-1.026-.81-.738-.774-.486-.648-.36-.594-.234-.504-.144-.396-.072-.27-.018-.144 0 0ZM-1.224-.324C-1.332-.324-1.44-.288-1.53-.234-1.602-.198-1.656-.126-1.692-.054-1.764 .072-1.764 .234-1.692 .36-1.656 .432-1.602 .504-1.548 .54-1.44 .594-1.332 .63-1.224 .63V-.324" fill="#ffffff" fill-rule="evenodd"/><path transform="matrix(0,1,1,0,247.521,191.754)" d="M0 0C.072-.09 .108-.198 .126-.306 .144-.36 .144-.396 .144-.45 .144-.522 .126-.612 .108-.702 .018-.954-.18-1.17-.45-1.278-.774-1.404-1.152-1.386-1.476-1.26-1.512-1.242-1.548-1.206-1.584-1.188-1.674-1.134-1.764-1.062-1.836-.954-1.908-.846-1.962-.738-1.98-.612-2.016-.468-1.998-.342-1.962-.216-1.926-.108-1.872 0-1.8 .09V.108H-1.818C-1.818 .108-1.818 .108-1.818 .108H-2.772V.54H.108V.09H0-.018C-.018 .09 0 .09-.018 .09L-.036 .072C-.036 .072-.018 .09-.036 .072-.036 .072-.036 .054-.018 .036L0 0ZM-.288-.27C-.306-.144-.378-.018-.504 .036-.576 .072-.666 .09-.738 .09H-1.134C-1.224 .09-1.332 .054-1.422 0-1.512-.072-1.566-.18-1.584-.27-1.584-.288-1.584-.288-1.602-.306-1.62-.432-1.584-.558-1.512-.648-1.458-.702-1.404-.756-1.35-.792-1.098-.936-.792-.936-.54-.81-.486-.774-.414-.72-.378-.666-.324-.612-.306-.558-.288-.486-.27-.414-.27-.342-.288-.27" fill="#ffffff" fill-rule="evenodd"/><path transform="matrix(0,1,1,0,250.491,191.52)" d="M0 0C0 .09 0 .18-.036 .27-.072 .342-.108 .396-.162 .45-.198 .486-.252 .54-.324 .576L-.108 .954 .018 .864C.09 .828 .144 .774 .18 .72 .234 .648 .27 .594 .306 .522 .378 .396 .396 .252 .378 .09 .396-.09 .342-.27 .234-.432 .126-.594-.054-.72-.234-.792-.468-.846-.684-.864-.918-.828-1.098-.81-1.278-.738-1.404-.612-1.53-.504-1.62-.378-1.692-.216-1.746-.054-1.764 .144-1.728 .324-1.692 .522-1.602 .684-1.44 .81-1.404 .846-1.368 .864-1.332 .9-1.296 .918-1.242 .936-1.206 .954L-.99 .576C-1.08 .522-1.17 .486-1.242 .414-1.278 .396-1.296 .36-1.314 .324-1.368 .198-1.35 .036-1.278-.09-1.206-.198-1.116-.288-1.008-.342-.81-.414-.612-.414-.432-.36-.234-.324-.072-.18 0 0" fill="#ffffff" fill-rule="evenodd"/><path transform="matrix(0,1,1,0,254.865,191.898)" d="M0 0C.054 .234 .018 .468-.09 .702-.126 .792-.198 .9-.288 .972L-.594 .702-.54 .63C-.468 .54-.414 .432-.396 .306-.36 .162-.396 .018-.468-.126-.522-.18-.594-.234-.666-.27-.756-.306-.828-.324-.918-.306V1.062C-1.116 1.08-1.314 1.062-1.494 .99-1.692 .936-1.854 .828-1.962 .684-2.16 .378-2.178 0-2.016-.324-1.854-.558-1.602-.702-1.314-.756-1.026-.81-.738-.774-.486-.648-.36-.594-.234-.522-.144-.396-.072-.27-.018-.144 0 0ZM-1.224-.324C-1.332-.324-1.44-.288-1.53-.234-1.602-.198-1.656-.126-1.692-.054-1.764 .072-1.764 .234-1.692 .36-1.656 .432-1.602 .504-1.548 .54-1.44 .594-1.332 .63-1.224 .63V-.324" fill="#ffffff" fill-rule="evenodd"/><path transform="matrix(0,1,1,0,257.187,191.52)" d="M0 0C0 .09 0 .18-.036 .27-.072 .342-.108 .396-.162 .45-.198 .486-.252 .54-.324 .576L-.108 .954 .018 .864C.09 .828 .144 .774 .18 .72 .234 .648 .27 .594 .306 .522 .378 .396 .396 .252 .378 .09 .396-.09 .342-.27 .234-.432 .126-.594-.054-.72-.234-.792-.468-.846-.684-.864-.918-.828-1.098-.81-1.278-.738-1.404-.612-1.53-.504-1.62-.378-1.692-.216-1.746-.054-1.764 .144-1.728 .324-1.692 .522-1.602 .684-1.44 .81-1.404 .846-1.368 .864-1.332 .9-1.296 .918-1.242 .936-1.206 .954L-.99 .576C-1.08 .522-1.17 .486-1.242 .414-1.278 .396-1.296 .36-1.314 .324-1.368 .198-1.35 .036-1.278-.09-1.206-.198-1.116-.288-1.008-.342-.81-.414-.612-.414-.432-.36-.234-.324-.072-.18 0 0" fill="#ffffff" fill-rule="evenodd"/><path transform="matrix(0,1,1,0,259.041,190.656)" d="M0 0H-1.674V-.45H1.206V0H.594L.306 .288 1.206 .864V1.422L0 .576-.846 1.386V.792" fill="#ffffff" fill-rule="evenodd"/><path transform="matrix(0,1,1,0,253.119,190.566)" d="M0 0H1.296V.432H-.108C-.234 .432-.378 .396-.486 .306-.612 .234-.702 .126-.756 0-.81-.126-.846-.27-.81-.414-.792-.558-.738-.684-.648-.792H-1.584V-1.224H1.296V-.792H0C-.036-.792-.09-.774-.144-.756-.198-.738-.234-.702-.27-.666-.36-.594-.396-.486-.396-.396-.396-.306-.36-.198-.27-.126-.234-.09-.198-.054-.144-.036-.09-.018-.036 0 0 0" fill="#ffffff" fill-rule="evenodd"/><path transform="matrix(0,1,1,0,238.575,200.844)" d="M0 0 .288-.27 .468 .072 .738 .342 .432 .612 .18 .342" fill="#ffffff" fill-rule="evenodd"/><path transform="matrix(0,1,1,0,238.467,201.816)" d="M0 0 .27-.288 .504 .108 .738 .45 .45 .666 .216 .378" fill="#ffffff" fill-rule="evenodd"/><path transform="matrix(0,1,1,0,238.233,202.86)" d="M0 0H.378V.558H1.296L1.764-.126 2.07 .054 2.178 .144 2.214 .216 2.178 .252 2.07 .27 1.728 .648 1.872 .774 2.034 .99 2.142 1.332 2.178 1.8V4.14L1.764 4.284V2.088L1.746 1.674 1.656 1.314 1.584 1.17 1.512 1.062 1.386 1.008 1.26 .99H0" fill="#ffffff" fill-rule="evenodd"/><path transform="matrix(0,1,1,0,239.457,201.276)" d="M0 0H.378V1.17H.702V.18H1.872V1.062L2.124 .792 2.34 .504 2.502 .198 2.628-.108 2.988 .198 2.862 .468 2.7 .72 2.502 .954 2.268 1.17H3.15V1.62H2.25L2.7 2.142 3.006 2.682 2.628 3.024 2.322 2.376 1.872 1.728V2.628H.702V1.62H.378V2.826H0V1.62H-.324L-.36 1.674-.396 1.692-.432 1.656-.45 1.566-.504 1.17H0V0ZM1.512 .594H1.0979999V1.17H1.512ZM1.512 1.62H1.0979999V2.21401H1.512Z" fill="#ffffff" fill-rule="evenodd"/><path transform="matrix(0,1,1,0,243.795,204.822)" d="M0 0 .216 .432-.414 .648-1.062 .792-1.71 .864H-2.394V1.566H-1.746V3.294H-2.394V4.014H-2.772V3.294H-3.114V4.176H-3.492V2.646H-3.744L-3.834 2.718H-3.888L-3.942 2.664-3.96 2.556-3.996 2.196H-3.492V.432H-1.962L-1.404 .396-.9 .324-.432 .18 0 0ZM-2.772 .864H-3.114V1.566H-2.772ZM-2.088 1.962H-2.394V2.88H-2.088ZM-2.772 1.962H-3.114V2.88H-2.772Z" fill="#ffffff" fill-rule="evenodd"/><path transform="matrix(0,1,1,0,244.947,203.31)" d="M0 0H.36V.396L.558 .468 .756 .594 .936 .756 1.098 .954 1.26 .414 1.35-.198 1.746 .054 1.566 .792 1.35 1.386 1.566 1.962 1.728 2.538 1.296 2.916 1.224 2.286 1.062 1.836 .648 2.214 .216 2.484-.072 2.196 0 2.106V0ZM.36 .828V1.872L.666 1.674 .9 1.386 .666 1.08 .36 .828" fill="#ffffff" fill-rule="evenodd"/><path transform="matrix(0,1,1,0,250.941,200.97)" d="M0 0-.144-.36 .396-.612 .918-.9 1.404-1.206 1.854-1.548 2.16-1.242 1.764-.936H4.068V-.54H1.17L.18 0 .144 .072 .108 .108 .054 .09" fill="#ffffff" fill-rule="evenodd"/><path transform="matrix(0,1,1,0,251.841,200.826)" d="M0 0H1.062V-.882H3.456V-.36L3.726-.792 3.96-1.26 4.23-.918 3.96-.414 3.618 .072 3.456-.126V.774L3.582 .594 3.942 1.026 4.212 1.584 3.96 1.926 3.744 1.404 3.456 .936V1.494H1.062V.414H.774V1.728H.414V.414H.198L.126 .486 .09 .504 .054 .468 .036 .396 0 0ZM2.412-.45H2.1240099V1.062H2.412ZM3.06-.45H2.7720099V1.062H3.06ZM1.746-.45H1.44V1.062H1.746Z" fill="#ffffff" fill-rule="evenodd"/><path transform="matrix(0,1,1,0,257.061,200.79)" d="M0 0H.54V-1.782H.918V-.27L1.17-.594 1.404-.99 1.602-1.458 1.764-1.98 2.088-1.638 1.908-1.152 1.692-.702 1.422-.306 1.098 .018H1.908V.432H1.116L1.386 .702 1.62 1.044 1.872 1.476 2.088 1.98 1.674 2.412 1.566 1.926 1.422 1.494 1.206 1.062 .936 .684V2.196H.54V.432H.216L.162 .504 .108 .522 .072 .468 .036 .36" fill="#ffffff" fill-rule="evenodd"/><path transform="matrix(0,1,1,0,255.999,202.86)" d="M0 0H1.62V2.574H0ZM.63 .45H.36001V2.142H.63ZM1.26 .45H.97201V2.124H1.26Z" fill="#ffffff" fill-rule="evenodd"/><path transform="matrix(0,1,1,0,0,0)" d="M204.678 255.189H205.056V259.329H204.678Z" fill="#ffffff"/><path transform="matrix(0,1,1,0,243.939,194.292)" d="M0 0H.288V.63H.468L.36 .432 .774 .144 1.098-.18 1.332 .126 .918 .486V1.674L1.116 1.656 1.26 1.62 1.368 1.548 1.404 1.458V1.296L1.728 1.44V1.584C1.736 1.942 1.287 1.986 1.026 1.998L.774 1.98 .972 2.286 .702 2.466 .9 2.592 1.08 2.772 1.242 2.43 1.368 2.052 1.692 2.358 1.35 3.078 1.566 3.438 1.746 3.834 1.476 4.194 1.314 3.744 1.098 3.348 .81 3.582 .486 3.762V4.068H.198V2.79L.036 2.898 .018 2.97-.018 2.988-.054 2.97-.108 2.898-.216 2.628 .288 2.34 .702 1.998H.63V.702L.576 .774 .54 .792 .504 .756 .468 .666V.972H.288V1.314H.522V1.656H.288V2.088H0V1.656L-.054 1.746-.108 1.764-.144 1.71-.18 1.602-.216 1.314H0V.972L-.072 1.062-.126 1.08-.162 1.026-.198 .918V.63H0V0ZM.486 2.682V3.348L.882 3.042 .702 2.826 .486 2.682" fill="#ffffff" fill-rule="evenodd"/><path transform="matrix(0,1,1,0,0,0)" d="M196.452 243.795H196.72199V248.043H196.452Z" fill="#ffffff"/><path transform="matrix(0,1,1,0,0,0)" d="M196.074 244.515H196.326V247.377H196.074Z" fill="#ffffff"/><path transform="matrix(0,1,1,0,0,0)" d="M196.866 244.533H197.118V247.35901H196.866Z" fill="#ffffff"/><path transform="matrix(0,1,1,0,0,0)" d="M197.262 244.533H197.51399V247.35901H197.262Z" fill="#ffffff"/><path transform="matrix(0,1,1,0,244.371,197.658)" d="M0 0H.68401V3.15H0ZM.45 .432H.25199998V2.718H.45Z" fill="#ffffff" fill-rule="evenodd"/><path transform="matrix(0,1,1,0,244.371,195.354)" d="M0 0H.55798V.864H0ZM.36 .27H.18001002V.59398999H.36Z" fill="#ffffff" fill-rule="evenodd"/><path transform="matrix(0,1,1,0,251.427,194.148)" d="M0 0 .378-.018V-1.836H1.242V-1.44H.702V-.828L1.008-1.044 1.278-1.296 1.512-1.602 1.71-1.926 1.944-1.62 1.836-1.512 2.142-1.134 2.358-1.944 2.646-1.728 2.574-1.386 2.484-1.062 2.34-.756 2.16-.468H2.484V.954H2.142V-.432L1.71-.072 1.206 .216 1.728 .594 2.124 1.062 2.394 1.566 2.574 2.16 2.196 2.394 2.034 1.782 1.8 1.26 1.08 1.764 .864 1.422 .936 1.386V.684H1.224V1.206L1.584 .99 1.314 .702 1.008 .45 1.134 .216 .936-.09 1.008-.108V-.576L.81-.378 .702-.558V1.836H1.242V2.214H.378V.432H.18L.108 .504H.054L.018 .45V.342L0 0ZM1.314-.846V-.27L1.584-.432 1.314-.846ZM1.656-1.242 1.548-1.062 1.674-.846 1.836-.63 1.98-.828 1.656-1.242" fill="#ffffff" fill-rule="evenodd"/><path transform="matrix(0,1,1,0,249.609,196.92)" d="M0 0H.378V1.872H.954L1.044 1.818 1.098 1.71 1.116 1.548V1.278L1.548 1.458V1.674L1.512 1.944 1.404 2.124 1.206 2.232 .918 2.268H.378V3.96H0" fill="#ffffff" fill-rule="evenodd"/><path transform="matrix(0,1,1,0,251.031,197.694)" d="M0 0-.252-.306 .36-1.368 .63-1.026 .342-.486" fill="#ffffff" fill-rule="evenodd"/><path transform="matrix(0,1,1,0,252.471,197.442)" d="M0 0 .234-.252 .594 .216 .882 .756 .486 1.062 .288 .504" fill="#ffffff" fill-rule="evenodd"/></g></svg>