<?xml version='1.0' encoding='UTF-8'?>
<svg width="554.47" height="217.27" viewBox="5.09 26.72 554.47 217.27" xmlns="http://www.w3.org/2000/svg" xmlns:xlink="http://www.w3.org/1999/xlink" xmlns:inkscape="http://www.inkscape.org/namespaces/inkscape" version="1.1"><g transform="scale(10.0) translate(-547.707, -289.584)"><defs><clipPath id="clip_2"><path transform="matrix(1,0,0,-1,0,595.276)" d="M74.4 .196H767.4V595.276H74.4Z"/></clipPath></defs><path transform="matrix(1,0,0,-1,0,595.276)" d="M550.68 302.476H601.32C601.56 302.476 601.8 302.476 602.04 302.356 602.16 302.236 602.4 302.116 602.64 301.996 602.76 301.756 603 301.516 603 301.276 603.12 301.036 603.12 300.916 603.12 300.676V283.636C603.12 283.156 603 282.676 602.64 282.316 602.28 281.956 601.8 281.836 601.32 281.836H550.68C550.2 281.836 549.72 281.956 549.36 282.316 549 282.676 548.76 283.156 548.76 283.636V300.676C548.76 301.036 549 301.636 549.36 301.996 549.48 302.116 549.72 302.236 549.96 302.356 550.2 302.476 550.44 302.476 550.68 302.476ZM601.32 301.516H550.68C550.44 301.516 550.2 301.516 549.96 301.276 549.84 301.156 549.72 300.916 549.72 300.676V283.636C549.72 283.396 549.84 283.156 549.96 283.036 550.2 282.796 550.44 282.676 550.68 282.676H601.32C601.56 282.676 601.8 282.796 601.92 283.036 602.04 283.036 602.16 283.156 602.16 283.276 602.16 283.396 602.28 283.516 602.28 283.636V300.676C602.28 301.156 601.8 301.516 601.32 301.516Z" fill-rule="evenodd"/><path transform="matrix(1,0,0,-1,0,595.276)" d="M550.68 301.516H601.32C601.56 301.516 601.8 301.516 601.92 301.276 602.16 301.156 602.28 300.916 602.28 300.676V283.636C602.28 283.516 602.16 283.396 602.16 283.276 602.16 283.156 602.04 283.036 601.92 283.036 601.92 282.916 601.8 282.796 601.68 282.796 601.56 282.796 601.44 282.676 601.32 282.676H550.68C550.44 282.676 550.2 282.796 549.96 283.036 549.84 283.156 549.72 283.396 549.72 283.636V300.676C549.72 300.916 549.84 301.156 549.96 301.276 550.2 301.516 550.44 301.516 550.68 301.516Z" fill="#ffffff" fill-rule="evenodd"/><path transform="matrix(1,0,0,-1,0,595.276)" d="M569.28 293.356V295.756C569.28 295.996 569.64 296.356 569.88 296.356 570.24 296.356 570.48 296.236 570.48 295.996V293.356H571.56V295.756C571.56 295.996 571.92 296.356 572.28 296.356 572.4 296.356 572.52 296.236 572.64 296.236 572.76 296.116 572.76 296.116 572.76 295.996V293.356H573.84V296.116C573.84 296.236 573.84 296.236 573.84 296.356L573.72 296.476C573.48 297.076 573 297.316 572.28 297.436 571.8 297.436 571.44 297.196 571.2 296.836 570.96 297.196 570.72 297.436 570.12 297.436 570 297.436 569.88 297.316 569.64 297.316 569.52 297.196 569.4 297.196 569.28 297.076V297.196H568.2V293.356H569.28Z" fill-rule="evenodd"/><path transform="matrix(1,0,0,-1,0,595.276)" d="M591.48 296.356C591.72 296.356 591.96 296.236 591.96 295.996V293.356H593.04V295.756C593.16 295.996 593.4 296.356 593.76 296.356 593.88 296.356 594 296.236 594.12 296.236 594.24 296.116 594.24 296.116 594.24 295.996V293.356H595.32V296.116C595.32 296.236 595.32 296.236 595.32 296.356V296.476C595.08 297.076 594.6 297.316 593.88 297.436 593.4 297.436 593.04 297.196 592.68 296.836 592.56 297.196 592.2 297.436 591.72 297.436 591.48 297.436 591.36 297.316 591.24 297.316 591 297.196 590.88 297.196 590.76 297.076V297.196H589.68V293.356H590.76V295.756C590.76 295.996 591.12 296.356 591.48 296.356Z" fill-rule="evenodd"/><path transform="matrix(1,0,0,-1,0,595.276)" d="M586.2 293.476V291.916H585.12V297.316H586.08V297.076C586.2 297.196 586.68 297.436 587.04 297.436 587.64 297.436 588.12 297.196 588.48 296.836 588.72 296.476 588.96 295.876 588.96 295.276 588.96 293.956 588.24 293.116 587.16 293.116 586.92 293.116 586.68 293.116 586.56 293.236 586.32 293.236 586.2 293.356 586.2 293.476ZM586.2 295.876V294.796C586.2 294.436 586.56 294.196 586.92 294.196 587.16 294.076 587.64 294.316 587.76 294.676L587.88 294.916V295.756H587.76V295.876C587.64 296.236 587.28 296.476 587.04 296.476H586.92C586.56 296.356 586.2 296.116 586.2 295.876Z" fill-rule="evenodd"/><path transform="matrix(1,0,0,-1,0,595.276)" d="M579.96 298.996C580.56 298.996 581.04 298.756 581.4 298.516 581.76 298.276 581.88 297.796 581.88 297.316 581.88 296.836 581.76 296.356 581.4 296.116 581.88 295.876 582.12 295.396 582.12 294.916 582.12 293.836 581.16 293.116 579.96 293.116 579.36 293.116 578.76 293.236 578.4 293.596 578.04 293.956 577.8 294.436 577.8 294.916 577.8 295.396 578.04 295.876 578.52 296.116 578.16 296.356 578.04 296.836 578.04 297.316 578.04 297.796 578.16 298.276 578.52 298.516 578.88 298.756 579.36 298.996 579.96 298.996ZM579.96 296.716C580.44 296.716 580.8 296.836 580.8 297.316 580.8 297.676 580.44 297.916 579.96 297.916 579.48 297.916 579.12 297.676 579.12 297.316 579.12 297.076 579.24 296.956 579.36 296.836 579.48 296.716 579.72 296.716 579.96 296.716ZM580.92 294.916C580.8 295.396 580.56 295.636 579.96 295.636 579.36 295.636 579.12 295.396 579 294.916 579.12 294.436 579.36 294.196 579.96 294.196 580.56 294.196 580.8 294.436 580.92 294.916Z" fill-rule="evenodd"/><path transform="matrix(1,0,0,-1,0,595.276)" d="M558.72 298.996C559.32 298.996 559.8 298.756 560.16 298.516 560.52 298.276 560.64 297.796 560.64 297.316 560.64 296.836 560.52 296.356 560.16 296.116 560.64 295.876 560.88 295.396 560.88 294.916 560.88 293.836 559.92 293.116 558.72 293.116 557.52 293.116 556.56 293.836 556.56 294.916 556.56 295.396 556.92 295.876 557.28 296.116 556.92 296.356 556.8 296.836 556.8 297.316 556.8 298.396 557.52 298.996 558.72 298.996ZM559.56 297.316C559.56 297.436 559.44 297.556 559.32 297.676 559.2 297.796 558.96 297.916 558.72 297.916 558.48 297.916 558.24 297.796 558.12 297.676 558 297.556 558 297.436 558 297.316 558 297.076 558 296.956 558.12 296.836 558.24 296.716 558.48 296.716 558.72 296.716 559.2 296.716 559.56 296.836 559.56 297.316ZM558.72 295.636C558.12 295.636 557.88 295.396 557.88 294.916 557.88 294.436 558.12 294.196 558.72 294.196 559.32 294.196 559.68 294.436 559.68 294.916 559.68 295.396 559.32 295.636 558.72 295.636Z" fill-rule="evenodd"/><path transform="matrix(1,0,0,-1,0,595.276)" d="M565.92 295.876C565.08 295.876 564.6 295.756 564.12 295.516 563.76 295.276 563.64 294.916 563.64 294.556 563.64 294.076 563.76 293.716 564 293.476 564.24 293.236 564.72 293.116 565.2 293.116 565.56 293.116 566.04 293.356 566.16 293.596 566.16 293.476 566.28 293.356 566.52 293.236 566.64 293.236 566.88 293.116 567.12 293.116L567.48 293.956C567.36 293.956 567.24 293.956 567.12 294.076L567 294.196V296.236C567 297.076 566.4 297.436 565.44 297.436 565.08 297.436 564.72 297.316 564.48 297.196 564.12 297.196 563.88 296.956 563.64 296.836L564.24 295.996C564.6 296.356 564.96 296.476 565.44 296.476 565.56 296.476 565.68 296.356 565.8 296.356L565.92 296.236C565.92 296.116 565.92 296.116 565.92 295.996V295.876ZM565.92 295.036V294.316C565.8 294.196 565.8 294.196 565.68 294.196 565.68 294.076 565.56 294.076 565.32 294.076 565.2 294.076 564.96 294.076 564.84 294.196 564.84 294.196 564.72 294.316 564.72 294.556 564.72 294.796 565.08 295.036 565.92 295.036Z" fill-rule="evenodd"/><path transform="matrix(1,0,0,-1,0,595.276)" d="M576.6 295.276H574.92V294.316H576.6Z" fill-rule="evenodd"/><path transform="matrix(1,0,0,-1,0,595.276)" d="M553.2 290.116H552.84V286.516H551.16V286.156H555.36V286.516H553.32V288.196H554.88V288.556H553.32V289.876L553.44 289.996 553.32 290.116Z" fill-rule="evenodd"/><path transform="matrix(1,0,0,-1,0,595.276)" d="M556.92 288.676 557.4 288.436 557.88 289.036H558.84V288.076H556.92V287.716H558.84V285.916H559.32V287.716H561.12V288.076H559.32V289.036H560.76V289.516H558.12L558.36 289.876H558.48V289.996H558.36L558 290.116 557.52 289.396Z" fill-rule="evenodd"/><path transform="matrix(1,0,0,-1,0,595.276)" d="M562.56 286.156 562.92 285.916 563.28 286.156 563.52 286.516 563.76 286.756 563.88 287.236 564.12 287.596V288.076L564.24 288.556V289.036L564.36 289.156H564.24L564.12 289.276H563.76V288.796 288.316L563.64 287.836 563.52 287.356 563.4 286.996 563.16 286.756 562.92 286.396Z" fill-rule="evenodd"/><path transform="matrix(1,0,0,-1,0,595.276)" d="M564 289.996V289.516H565.2V289.036 288.556 288.076L565.32 287.716 565.44 287.356 565.68 286.876 565.92 286.516 566.16 286.156 566.4 285.916 566.88 286.276 566.64 286.516 566.28 286.876 566.16 287.116 565.92 287.476 565.8 287.836 565.68 288.316 565.56 288.676V289.156 289.996Z" fill-rule="evenodd"/><path transform="matrix(1,0,0,-1,0,595.276)" d="M570.84 288.556H569.88V288.196H571.44V287.716H569.88V287.356H571.44V286.516 286.396 286.276H571.32 571.2 570.72L570.96 285.796H571.32L571.56 285.916 571.68 286.036 571.8 286.156 571.92 286.396V287.356H572.52V287.716H571.92V288.196H572.4V288.556H571.32V289.156H572.28V289.516H571.32V289.876L571.44 289.996V290.116H571.32 570.96V289.516H570V289.156H570.84Z" fill-rule="evenodd"/><path transform="matrix(1,0,0,-1,0,595.276)" d="M570.48 287.236 570.12 286.876 570.48 286.636 570.72 286.396 570.96 286.636 570.72 286.996Z" fill-rule="evenodd"/><path transform="matrix(1,0,0,-1,0,595.276)" d="M568.32 289.756V286.516 286.276H568.68V286.756H569.28V286.516H569.64V289.756H568.32ZM568.8 288.436V289.276H569.28V288.436H568.8ZM568.68 287.116V288.076H569.28V287.116H568.68Z" fill-rule="evenodd"/><path transform="matrix(1,0,0,-1,0,595.276)" d="M574.2 289.516H575.64L575.04 288.556H574.32L574.44 288.076 574.56 287.956V288.076L577.32 288.436 577.68 287.956 578.04 288.196 577.56 288.796 577.08 289.396 576.72 289.036 577.08 288.676 575.64 288.556 576.12 289.516H578.04V289.876H574.2Z" fill-rule="evenodd"/><path transform="matrix(1,0,0,-1,0,595.276)" d="M574.08 286.036H578.16V286.396H576.36V287.116H577.68V287.596H576.36V287.956H576.48V288.076H576.36L575.88 288.196V287.596H574.44V287.116H575.88V286.396H574.08Z" fill-rule="evenodd"/><path transform="matrix(1,0,0,-1,0,595.276)" d="M579.72 289.756V289.396H581.52V285.916H581.88V288.196L582.48 287.716 583.08 287.236 583.44 287.596 582.72 288.196 581.88 288.676V289.396H583.92V289.756Z" fill-rule="evenodd"/><path transform="matrix(1,0,0,-1,0,595.276)" d="M585.48 288.676 585.96 288.436 586.44 289.036H587.4V288.076H585.36V287.716H587.4V285.916H587.88V287.716H589.56V288.076H587.88V289.036H589.32V289.516H586.68L586.92 289.876H587.04V289.996H586.92L586.56 290.116 586.08 289.396Z" fill-rule="evenodd"/><path transform="matrix(1,0,0,-1,0,595.276)" d="M591.12 286.156 591.48 285.916 591.84 286.156 592.08 286.516 592.32 286.756 592.44 287.236 592.56 287.596 592.68 288.076 592.8 288.556V289.036L592.92 289.156H592.8L592.68 289.276H592.32V288.796 288.316L592.2 287.836 592.08 287.356 591.96 286.996 591.72 286.756 591.36 286.396Z" fill-rule="evenodd"/><path transform="matrix(1,0,0,-1,0,595.276)" d="M592.56 289.996V289.516H593.64V289.036L593.76 288.556V288.076L593.88 287.716 594 287.356 594.24 286.876 594.36 286.516 594.72 286.156 594.96 285.916 595.44 286.276 595.08 286.516 594.84 286.876 594.6 287.116 594.48 287.476 594.36 287.836 594.24 288.316 594.12 288.676V289.156 289.996Z" fill-rule="evenodd"/><path transform="matrix(1,0,0,-1,0,595.276)" d="M599.4 288.556H598.44V288.196H600V287.716H598.44V287.356H600V286.516 286.396 286.276H599.88 599.76 599.28L599.4 285.796H599.88L600.12 285.916 600.24 286.036 600.36 286.156 600.48 286.396V287.356H601.08V287.716H600.48V288.196H600.96V288.556H599.88V289.156H600.84V289.516H599.88V289.876L600 289.996V290.116H599.88 599.4V289.516H598.56V289.156H599.4Z" fill-rule="evenodd"/><path transform="matrix(1,0,0,-1,0,595.276)" d="M599.04 287.236 598.68 286.876 599.04 286.636 599.16 286.396 599.52 286.636 599.28 286.996Z" fill-rule="evenodd"/><path transform="matrix(1,0,0,-1,0,595.276)" d="M596.88 289.756V286.516 286.276H597.24V286.756H597.84V286.516H598.2V289.756H596.88ZM597.24 288.436V289.276H597.84V288.436H597.24ZM597.24 287.116V288.076H597.84V287.116H597.24Z" fill-rule="evenodd"/></g></svg>