<?xml version='1.0' encoding='UTF-8'?>
<svg width="293.39" height="252.17" viewBox="138.24 9.90 293.39 252.17" xmlns="http://www.w3.org/2000/svg" xmlns:xlink="http://www.w3.org/1999/xlink" xmlns:inkscape="http://www.inkscape.org/namespaces/inkscape" version="1.1"><g transform="scale(10.0) translate(-111.171, -47.232)"><defs><clipPath id="clip_19"><path transform="matrix(0,1,1,0,0,0)" d="M0 74.451H595.008V767.55899H0Z"/></clipPath><clipPath id="clip_20"><path transform="matrix(0,1,1,0,0,0)" d="M0 842.013H595.224V.008972168H0Z"/></clipPath></defs><path transform="matrix(0,1,1,0,0,0)" d="M48.51 125.283H73.152V154.047H48.51Z" fill="#ffff00"/><path transform="matrix(0,1,1,0,0,0)" d="M62.892 130.035H71.64V149.295H62.892Z" fill="#ffffff"/><path transform="matrix(0,1,1,0,131.313,64.638)" d="M0 0V.576H-.288V0H-.576V.63H-.864V-.324H.576V.72H.288V0" fill-rule="evenodd"/><path transform="matrix(0,1,1,0,132.897,64.188)" d="M0 0V.288L.504 0 1.026 .342V.018L.72-.162 1.026-.342V-.666L.504-.324 0-.63V-.324L.288-.162" fill-rule="evenodd"/><path transform="matrix(0,1,1,0,133.887,64.134)" d="M0 0C0 .126 .018 .216 .072 .306 .108 .342 .144 .378 .18 .396 .216 .432 .27 .45 .324 .468L.432 .234C.324 .198 .252 .126 .27 .018 .27-.108 .342-.18 .504-.216 .522-.216 .54-.216 .558-.216 .576-.216 .612-.216 .63-.216L.648-.198C.792-.162 .864-.09 .864 .018 .864 .072 .846 .126 .828 .162 .792 .198 .756 .216 .684 .234L.792 .486C1.026 .414 1.134 .27 1.134 .036 1.116-.306 .936-.486 .558-.486 .198-.468 0-.288 0 0" fill-rule="evenodd"/><path transform="matrix(0,1,1,0,135.453,64.8)" d="M0 0C-.216 .018-.378-.036-.486-.108-.594-.198-.666-.306-.666-.486-.666-.756-.486-.918-.108-.954 .036-.954 .162-.918 .27-.828 .396-.72 .45-.576 .468-.432 .468-.342 .45-.27 .414-.18 .378-.09 .324-.054 .27-.018L.09-.198C.162-.234 .198-.342 .198-.432 .198-.486 .18-.54 .144-.576 .126-.612 .108-.612 .072-.63 .054-.648 .018-.648 0-.648V0ZM-.216-.666H-.234C-.27-.666-.324-.63-.36-.594-.396-.558-.414-.504-.414-.468-.414-.378-.342-.288-.252-.27H-.216V-.666" fill-rule="evenodd"/><path transform="matrix(0,1,1,0,136.713,64.692)" d="M0 0C-.36 0-.558-.18-.558-.486-.558-.594-.522-.72-.486-.738H-.522V-1.008H.882V-.72H.486C.522-.702 .576-.576 .576-.468 .576-.342 .522-.216 .414-.126 .306-.036 .144 0 0 0ZM.288-.522C.288-.558 .27-.612 .234-.666 .198-.702 .162-.72 .126-.72H-.162C-.234-.72-.306-.63-.306-.522V-.504C-.324-.45-.252-.324-.18-.306H-.162L-.126-.288H.162C.198-.306 .234-.342 .27-.396 .288-.45 .306-.486 .288-.522" fill-rule="evenodd"/><path transform="matrix(0,1,1,0,137.307,64.188)" d="M0 0V.252H.234V0H.702C.738 0 .756 0 .774 .018 .792 .036 .81 .072 .81 .108 .81 .126 .81 .144 .81 .162 .81 .198 .792 .216 .792 .252L1.026 .288C1.062 .252 1.08 .144 1.08 0 1.08-.09 1.062-.162 1.008-.198 .972-.252 .9-.288 .81-.288H.234V-.468H0V-.288H-.342L-.414 0H0" fill-rule="evenodd"/><path transform="matrix(0,1,1,0,140.925,65.034)" d="M0 0 .216-.072C.216-.162 .216-.216 .198-.27 .18-.306 .144-.342 .108-.342 .162-.378 .216-.504 .234-.612 .234-.882 .09-1.026-.144-1.026-.27-1.026-.342-.972-.414-.864-.468-.774-.486-.612-.486-.414H-.54C-.576-.414-.612-.432-.63-.45-.648-.468-.648-.504-.648-.54-.648-.612-.648-.666-.63-.72-.612-.774-.576-.81-.54-.864L-.738-1.008C-.846-.9-.9-.738-.9-.558-.918-.414-.882-.306-.828-.234-.792-.162-.702-.126-.612-.108H-.072C-.018-.108 0-.072 0 0ZM-.144-.72C-.09-.72-.072-.702-.054-.684-.036-.648-.018-.612-.018-.558-.036-.486-.054-.432-.09-.414H-.27C-.27-.522-.252-.594-.234-.648-.216-.702-.18-.72-.144-.72" fill-rule="evenodd"/><path transform="matrix(0,1,1,0,138.675,65.214)" d="M0 0H-.792V.216H-1.026V0H-1.152C-1.17 0-1.188 0-1.206 .018-1.206 .018-1.206 .036-1.206 .054-1.206 .072-1.206 .108-1.206 .144-1.206 .162-1.206 .198-1.206 .234L-1.44 .288C-1.458 .234-1.476 .162-1.476 .072-1.476-.036-1.44-.126-1.404-.18-1.368-.234-1.314-.27-1.242-.27H-1.026V-.432H-.792V-.27H0V0" fill-rule="evenodd"/><path transform="matrix(0,1,1,0,139.161,65.214)" d="M0 0H-1.062V.27H-.954C-.99 .306-1.026 .342-1.062 .396-1.08 .45-1.08 .522-1.08 .612H-.792C-.792 .504-.756 .432-.738 .378-.702 .324-.666 .288-.612 .288H0V0" fill-rule="evenodd"/><path transform="matrix(0,1,1,0,147.207,64.8)" d="M0 0C-.216 0-.378-.036-.486-.108-.594-.198-.666-.324-.666-.486-.666-.774-.486-.918-.108-.954 .036-.954 .162-.918 .27-.846 .396-.738 .45-.576 .468-.432 .468-.36 .45-.27 .414-.18 .396-.144 .36-.108 .342-.09 .324-.054 .288-.036 .27-.036L.09-.198C.162-.234 .198-.342 .198-.432 .198-.486 .18-.54 .144-.594 .126-.612 .108-.63 .072-.63 .054-.648 .018-.648 0-.648V0ZM-.216-.666H-.234C-.27-.666-.324-.648-.36-.594-.396-.558-.414-.522-.414-.468-.414-.396-.342-.306-.252-.27H-.216V-.666" fill-rule="evenodd"/><path transform="matrix(0,1,1,0,146.109,64.89)" d="M0 0C-.198 0-.324-.108-.36-.342-.36-.414-.36-.468-.378-.504-.378-.522-.396-.54-.396-.54-.396-.558-.414-.558-.414-.558H-.432C-.486-.558-.504-.522-.522-.414-.522-.36-.504-.324-.486-.288-.468-.252-.45-.216-.396-.18L-.594-.018C-.702-.09-.774-.216-.774-.396-.774-.684-.648-.846-.396-.846-.216-.846-.126-.738-.09-.54-.09-.396-.054-.306 .018-.306 .054-.306 .072-.324 .09-.342 .09-.36 .108-.378 .108-.432 .108-.486 .09-.54 .072-.594 .036-.648 .018-.684-.036-.72L.162-.918C.306-.81 .378-.648 .378-.432 .378-.162 .234 0 0 0" fill-rule="evenodd"/><path transform="matrix(0,1,1,0,142.815,64.134)" d="M0 0C0 .108 .018 .216 .072 .288 .126 .36 .216 .432 .324 .468L.432 .234C.324 .18 .252 .108 .27 0 .27-.126 .342-.198 .504-.234 .522-.234 .54-.234 .558-.234 .576-.234 .612-.216 .63-.216H.648C.792-.18 .864-.108 .864 .018 .864 .072 .846 .108 .828 .144 .792 .18 .756 .216 .684 .234L.792 .468C1.026 .396 1.134 .252 1.134 .018 1.116-.324 .936-.504 .558-.504 .198-.468 0-.306 0 0" fill-rule="evenodd"/><path transform="matrix(0,1,1,0,142.059,65.214)" d="M0 0H-.738C-.972 0-1.08-.126-1.08-.396-1.08-.45-1.08-.504-1.062-.54-1.044-.576-1.026-.612-.99-.648H-1.062V-.936H0V-.648H-.648C-.756-.63-.81-.558-.828-.45-.81-.342-.756-.288-.648-.288H-.63-.612C-.612-.288-.612-.288-.612-.288H0V0" fill-rule="evenodd"/><path transform="matrix(0,1,1,0,143.733,64.224)" d="M0 0C-.108 .126-.126 .288-.054 .432-.018 .504 .036 .558 .09 .594 .162 .648 .234 .666 .306 .666H.99V.378H.36C.324 .378 .27 .36 .234 .324 .198 .288 .18 .234 .18 .198 .18 .144 .198 .108 .234 .072 .252 .054 .27 .036 .306 .036 .324 .018 .342 .018 .36 .018H.99V-.27H-.45V0H0" fill-rule="evenodd"/><path transform="matrix(0,1,1,0,148.125,65.178)" d="M0 0C.054-.036 .072-.126 .09-.234 .09-.486-.072-.684-.432-.72H-.576C-.864-.684-1.008-.504-1.026-.27-1.026-.18-1.008-.09-.954 .018H-1.404V.288H.054V0H0ZM-.306 0H-.558C-.594 0-.612 0-.63 0-.666 0-.684-.018-.684-.036H-.702C-.702-.036-.702-.036-.702-.036-.738-.09-.756-.144-.756-.198-.756-.36-.648-.432-.486-.45-.288-.45-.18-.36-.162-.198-.18-.108-.216-.036-.306 0" fill-rule="evenodd"/><path transform="matrix(0,1,1,0,0,0)" d="M64.188 144.741H65.214008V144.99298H64.188Z"/><path transform="matrix(0,1,1,0,145.029,63.918)" d="M0 0C-.09 0-.18-.072-.18-.162-.18-.252-.09-.324 0-.324 .09-.324 .162-.252 .162-.162 .162-.072 .09 0 0 0" fill-rule="evenodd"/><path transform="matrix(0,1,1,0,141.321,66.852)" d="M0 0C-.216 0-.378-.036-.486-.108-.594-.198-.666-.324-.666-.486-.666-.774-.468-.918-.108-.954 .036-.954 .162-.918 .27-.846 .396-.738 .45-.576 .468-.432 .468-.27 .378-.072 .27-.036L.108-.198C.162-.234 .198-.342 .198-.432 .198-.486 .18-.54 .144-.594 .126-.612 .108-.63 .072-.63 .054-.648 .018-.648 0-.648V0ZM-.216-.666C-.27-.666-.306-.648-.36-.612-.396-.558-.414-.522-.414-.468-.414-.396-.342-.306-.252-.27H-.216V-.666" fill-rule="evenodd"/><path transform="matrix(0,1,1,0,142.455,66.96)" d="M0 0C-.216 .018-.324-.108-.36-.342-.378-.414-.378-.468-.396-.504-.396-.522-.414-.54-.414-.54L-.432-.558H-.45C-.45-.558-.432-.558-.45-.558-.504-.558-.522-.504-.54-.414-.54-.36-.522-.324-.504-.27-.486-.234-.45-.216-.414-.18L-.612-.018C-.72-.09-.774-.216-.792-.396-.792-.684-.666-.846-.414-.846-.234-.828-.126-.72-.108-.54-.108-.378-.072-.306 0-.306 .036-.306 .054-.306 .072-.324 .09-.342 .09-.378 .09-.414 .09-.486 .072-.54 .054-.576 .036-.63 0-.684-.054-.72L.144-.918C.288-.81 .36-.648 .36-.432 .36-.162 .216 0 0 0" fill-rule="evenodd"/><path transform="matrix(0,1,1,0,140.223,66.96)" d="M0 0C-.216 0-.324-.108-.36-.342-.378-.414-.378-.468-.396-.504-.396-.522-.414-.54-.414-.558-.432-.558-.432-.558-.45-.558-.504-.558-.522-.522-.54-.414-.54-.36-.522-.324-.504-.288-.486-.252-.45-.216-.414-.18L-.612-.018C-.72-.09-.774-.216-.792-.396-.792-.684-.666-.846-.414-.864-.234-.846-.126-.738-.108-.54-.108-.396-.072-.306 0-.306 .036-.306 .054-.324 .072-.342 .09-.36 .09-.396 .09-.432 .09-.486 .072-.54 .054-.594 .036-.648 0-.684-.054-.72L.144-.918C.288-.81 .36-.648 .36-.432 .36-.162 .216 0 0 0" fill-rule="evenodd"/><path transform="matrix(0,1,1,0,138.837,66.24)" d="M0 0V.288H1.044V-.018H.99C1.008-.036 1.026-.054 1.044-.108 1.062-.162 1.08-.216 1.08-.27 1.08-.378 1.044-.486 .972-.558 .954-.594 .9-.63 .864-.648 .828-.666 .774-.666 .738-.666H0V-.378H.63C.648-.378 .666-.378 .684-.378 .702-.36 .72-.342 .738-.324 .774-.288 .792-.252 .792-.216 .792-.162 .774-.108 .738-.072 .72-.054 .702-.036 .666-.018 .648-.018 .612 0 .594 0H0" fill-rule="evenodd"/><path transform="matrix(0,1,1,0,137.541,67.32)" d="M0 0C0 .126-.054 .216-.144 .306-.252 .378-.396 .414-.54 .414-.702 .414-.864 .378-.972 .288-1.062 .216-1.116 .108-1.116-.018-1.116-.108-1.098-.198-1.026-.252H-1.494V-.504H-.036V-.252H-.09C-.036-.162 0-.09 0 0ZM-.27-.054C-.27-.144-.324-.216-.414-.252H-.72C-.774-.216-.81-.198-.828-.162-.846-.126-.864-.09-.864-.054-.846 .09-.756 .162-.558 .162-.36 .144-.27 .072-.27-.054" fill-rule="evenodd"/><path transform="matrix(0,1,1,0,131.529,68.724)" d="M0 0V.918H.108V.324H.774V.918H.9L.954 .126 1.116 .144 1.152 .162 1.17 .18 1.152 .216 1.116 .252 1.026 1.332H1.224V-.018H1.404V.576L1.53 .684 1.692 .774 1.584 .936 1.404 .81V1.332H1.548L1.584 1.314 1.602 1.278V.99L1.8 1.08V1.26L1.782 1.422 1.728 1.512 1.638 1.548H1.404V2.106H1.224V1.548H1.008L.99 1.692 1.152 1.854 1.062 2.016 .774 1.728H.108V1.134H0V2.088H-.162V1.134H-.234L-.27 1.17H-.288L-.306 1.152-.324 1.08V.918H-.162V0H0ZM.882 1.134H.774V1.476L.864 1.566 .882 1.134ZM.36 1.134H.252V1.51199H.36ZM.63 1.134H.50399V1.51199H.63ZM.36 .54H.252V.91799H.36ZM.63 .54H.50399V.91799H.63Z" fill-rule="evenodd"/><path transform="matrix(0,1,1,0,134.427,68.616)" d="M0 0 .198 .126 .126 .486H.432V-.036H.648V.432L.846 .324 1.026 .198 1.206 .054 1.368-.108 1.53 .126 1.26 .306 .954 .486H1.872V.702H1.008L1.35 .972 1.224 1.17 1.098 1.026 .954 .9 .81 .792 .648 .702V1.098H.432V.702H.072L.018 .828 0 .954V1.044L-.036 1.062-.054 1.044-.216 .882-.126 .666-.072 .45-.018 .216" fill-rule="evenodd"/><path transform="matrix(0,1,1,0,135.705,70.038)" d="M0 0V.198H-1.278L-1.314 .234H-1.35L-1.368 .198V.144L-1.386 0" fill-rule="evenodd"/><path transform="matrix(0,1,1,0,135.813,70.272)" d="M0 0 .216 .09 .198 .288 .162 .432 .108 .522 .018 .576H-1.692L-1.746 .63H-1.782L-1.8 .612-1.818 .54-1.836 .378H-.108L-.054 .36-.018 .324 0 .252" fill-rule="evenodd"/><path transform="matrix(0,1,1,0,137.253,68.472)" d="M0 0H1.728L1.854 .018 1.926 .054 1.98 .144 1.998 .252V1.566L1.98 1.674 1.962 1.746 1.926 1.836 1.872 1.89 1.8 1.944 1.71 1.98 1.494 2.016 1.422 1.8 1.584 1.764 1.692 1.71 1.764 1.62 1.782 1.512V.306L1.746 .27 1.71 .234H.954V1.53H1.08V1.746H0V0ZM.738 .234H.21599996V.73800006H.738ZM.738 .954H.21599996V1.52999H.738Z" fill-rule="evenodd"/><path transform="matrix(0,1,1,0,141.141,68.418)" d="M0 0-.018-.18H.666V-1.116H.9V-.18H1.728V-.99H1.926V.828H1.728V.054H.9V.972H.666V.054H.09L.054 .108H.018L0 .072" fill-rule="evenodd"/><path transform="matrix(0,1,1,0,142.779,69.336)" d="M0 0 .144 .162-.036 .288H1.152V.486H-.414L-.792 .684H-.63V.882L-.324 .846-.072 .774 .162 .684 .342 .558 .504 .756 .324 .846 .486 1.08 .63 .972 .756 .864 .846 .72 .936 .558 1.098 .702 1.008 .882C.811 1.253 .366 1.423-.036 1.422H-.288V1.044L-.63 1.098V1.458H-.81V.72H-.846L-.954 .504-.684 .396-.432 .27-.216 .144 0 0ZM-.09 1.008V1.242L.288 1.17 .144 .918-.09 1.008" fill-rule="evenodd"/><path transform="matrix(0,1,1,0,144.345,68.688)" d="M0 0H1.35V.198H.09L.036 .216 0 .18" fill-rule="evenodd"/><path transform="matrix(0,1,1,0,144.723,68.4)" d="M0 0H1.71L1.8-.018 1.854-.036 1.89-.072V-.342L2.106-.252 2.07 0 2.034 .09 1.98 .144 1.908 .18 1.8 .198H.126L.072 .252 .018 .198" fill-rule="evenodd"/><path transform="matrix(0,1,1,0,146.307,68.418)" d="M0 0-.036-.144 .27-.198 .558-.306 .81-.45 1.026-.648 1.206-.45 .9-.234 .594-.09V.27L.864 .216 1.098 .144 .936-.126 1.08-.27 1.188-.108 1.314 .054 1.494-.054 1.638-.216 1.764-.396 1.854-.612 2.052-.45 1.998-.288C1.761 .161 1.253 .357 .792 .486L.45 .558 .324 .396 .378 .324V0L.126 .054 .072 .126H.036L.018 .09" fill-rule="evenodd"/><path transform="matrix(0,1,1,0,147.279,68.418)" d="M0 0-.018-.144H.882L.72-.288 .828-.432 1.026-.288 1.17-.144H2.088V.09H1.35L1.53 .396 1.296 .576 1.188 .306 1.062 .09H.09L.054 .144H.036L0 .09" fill-rule="evenodd"/><path transform="matrix(0,1,1,0,145.821,56.196)" d="M0 0C-.81 0-1.62-.162-2.358-.468-3.114-.774-3.78-1.224-4.356-1.8-4.932-2.376-5.382-3.042-5.688-3.798-6.012-4.554-6.174-5.346-6.174-6.156-6.174-6.966-6.012-7.758-5.688-8.514-5.382-9.27-4.932-9.936-4.356-10.512-3.78-11.088-3.114-11.538-2.358-11.844-1.62-12.15-.81-12.312 0-12.312 .81-12.312 1.602-12.15 2.358-11.844 3.096-11.538 3.78-11.088 4.356-10.512 4.932-9.936 5.382-9.27 5.688-8.514 5.994-7.758 6.156-6.966 6.156-6.156 6.156-5.346 5.994-4.554 5.688-3.798 5.382-3.042 4.932-2.376 4.356-1.8 3.78-1.224 3.096-.774 2.358-.468 1.602-.162 .81 0 0 0" fill="#ff0000" fill-rule="evenodd"/><path transform="matrix(0,1,1,0,143.553,59.22)" d="M0 0-6.93-6.912C-7.092-6.696-7.236-6.462-7.38-6.21-7.506-5.958-7.632-5.688-7.722-5.4-7.902-4.824-7.992-4.212-7.956-3.582-7.902-2.952-7.758-2.358-7.488-1.8-7.362-1.53-7.218-1.278-7.056-1.044-6.894-.81-6.696-.594-6.516-.396-5.67 .45-4.536 .954-3.33 1.026-2.142 1.116-.954 .738 0 0" fill="#ffffff" fill-rule="evenodd"/><path transform="matrix(0,1,1,0,135.777,53.172)" d="M0 0 6.912 6.912C7.074 6.696 7.236 6.462 7.362 6.21 7.506 5.958 7.614 5.688 7.722 5.4 7.902 4.824 7.974 4.212 7.938 3.582 7.902 2.952 7.74 2.358 7.488 1.8 7.362 1.53 7.218 1.278 7.038 1.044 6.876 .81 6.696 .594 6.498 .396 5.652-.45 4.536-.954 3.33-1.026 2.124-1.116 .954-.738 0 0" fill="#ffffff" fill-rule="evenodd"/><path transform="matrix(0,1,1,0,138.351,54.018)" d="M0 0V2.052C0 2.196 .018 2.358 .09 2.502 .144 2.664 .234 2.808 .36 2.916 .486 3.042 .63 3.132 .774 3.204 .936 3.258 1.08 3.294 1.224 3.294H3.276L2.034 2.052H1.638C1.548 2.052 1.44 2.016 1.35 1.926 1.26 1.854 1.224 1.746 1.224 1.638V1.242L0 0" fill-rule="evenodd"/><path transform="matrix(0,1,1,0,137.847,55.242)" d="M0 0V-1.674L-.612-2.502-1.224-1.71V-1.224" fill-rule="evenodd"/><path transform="matrix(0,1,1,0,140.403,60.3)" d="M0 0H-2.502L-1.26 1.242H0" fill-rule="evenodd"/></g></svg>