<?xml version='1.0' encoding='UTF-8'?>
<svg width="293.39" height="252.17" viewBox="138.24 9.90 293.39 252.17" xmlns="http://www.w3.org/2000/svg" xmlns:xlink="http://www.w3.org/1999/xlink" xmlns:inkscape="http://www.inkscape.org/namespaces/inkscape" version="1.1"><g transform="scale(10.0) translate(-111.171, -235.728)"><defs><clipPath id="clip_19"><path transform="matrix(0,1,1,0,0,0)" d="M0 74.451H595.008V767.55899H0Z"/></clipPath><clipPath id="clip_20"><path transform="matrix(0,1,1,0,0,0)" d="M0 842.013H595.224V.008972168H0Z"/></clipPath></defs><path transform="matrix(0,1,1,0,0,0)" d="M237.006 125.283H261.648V154.047H237.006Z" fill="#ffff00"/><path transform="matrix(0,1,1,0,129.621,238.536)" d="M0 0V20.088C0 20.268 .072 20.466 .216 20.61 .378 20.754 .576 20.826 .756 20.826H20.844C21.006 20.826 21.204 20.754 21.366 20.61 21.51 20.466 21.582 20.268 21.582 20.088V0C21.582-.18 21.51-.378 21.366-.522 21.204-.666 21.006-.738 20.844-.738H.756C.576-.738 .378-.666 .216-.522 .072-.378 0-.18 0 0ZM.378 0C.378-.198 .54-.378 .756-.378H20.844C20.88-.378 20.934-.36 20.97-.342 21.024-.324 21.06-.306 21.096-.27 21.168-.18 21.204-.09 21.204 0V20.088C21.204 20.124 21.204 20.178 21.186 20.232 21.168 20.268 21.132 20.304 21.096 20.358 21.024 20.43 20.916 20.466 20.844 20.466H.756C.702 20.466 .666 20.448 .612 20.43 .558 20.412 .522 20.394 .486 20.358 .45 20.304 .414 20.268 .396 20.232 .378 20.178 .378 20.124 .378 20.088V0" fill-rule="evenodd"/><path transform="matrix(0,1,1,0,129.621,238.914)" d="M0 0V20.088C0 20.178 .036 20.268 .108 20.358 .18 20.43 .288 20.466 .378 20.466H20.466C20.538 20.466 20.646 20.43 20.718 20.358 20.79 20.268 20.826 20.178 20.826 20.088V0C20.826-.036 20.826-.09 20.808-.144 20.79-.18 20.754-.234 20.718-.27 20.682-.306 20.646-.324 20.592-.342 20.556-.36 20.502-.378 20.466-.378H.378C.162-.378 0-.198 0 0" fill="#ffffff" fill-rule="evenodd"/><path transform="matrix(0,1,1,0,139.305,241.398)" d="M0 0H-1.386V.468H.774V-.054L-.612-1.044H.774V-1.512H-1.386V-.99" fill-rule="evenodd"/><path transform="matrix(0,1,1,0,141.735,241.398)" d="M0 0C-.54 0-.846-.288-.846-.774-.846-1.008-.774-1.206-.63-1.332-.486-1.476-.27-1.53 0-1.53 .54-1.53 .846-1.26 .846-.774 .846-.54 .774-.342 .63-.216 .486-.072 .27 0 0 0ZM0-.45C.126-.45 .234-.486 .306-.54 .378-.594 .414-.684 .414-.774 .414-.972 .27-1.08 0-1.08-.126-1.08-.234-1.062-.306-1.008-.378-.954-.414-.864-.414-.774-.414-.576-.27-.45 0-.45" fill-rule="evenodd"/><path transform="matrix(0,1,1,0,130.881,243.702)" d="M0 0V.396H.378V0H1.062C1.116 0 1.152 .018 1.188 .054 1.206 .072 1.224 .126 1.242 .18 1.242 .198 1.242 .234 1.224 .27 1.224 .306 1.206 .342 1.188 .396L1.548 .468C1.602 .378 1.638 .234 1.638 .018 1.638-.108 1.602-.216 1.53-.288 1.458-.36 1.368-.396 1.242-.414H.378V-.666H0V-.414H-.486L-.612 0H0" fill-rule="evenodd"/><path transform="matrix(0,1,1,0,132.051,243.774)" d="M0 0C-.162 .18-.18 .432-.09 .63-.036 .738 .036 .828 .144 .882 .198 .918 .234 .936 .306 .954 .36 .972 .414 .99 .468 .99H1.476V.558H.54C.486 .558 .414 .522 .36 .468 .306 .414 .27 .342 .27 .288 .27 .216 .306 .144 .36 .09 .414 .036 .486 .018 .54 .018H1.476V-.414H-.684V0H0" fill-rule="evenodd"/><path transform="matrix(0,1,1,0,133.527,245.25)" d="M0 0H-1.566V.396H-1.422C-1.494 .432-1.548 .504-1.566 .576-1.602 .666-1.62 .774-1.62 .918H-1.188C-1.17 .756-1.134 .648-1.098 .558-1.044 .486-.99 .432-.918 .414H0V0" fill-rule="evenodd"/><path transform="matrix(0,1,1,0,136.209,244.476)" d="M0 0C-.252 0-.468-.072-.63-.198-.774-.342-.846-.54-.846-.774-.846-1.26-.54-1.53 0-1.53 .54-1.53 .846-1.26 .846-.774 .846-.54 .774-.342 .63-.198 .486-.072 .27 0 0 0ZM0-.45C.126-.45 .234-.486 .306-.54 .378-.594 .414-.666 .414-.774 .414-.864 .378-.954 .306-1.008 .234-1.062 .126-1.08 0-1.08-.126-1.08-.234-1.062-.306-1.008-.378-.954-.414-.864-.414-.774-.414-.576-.27-.45 0-.45" fill-rule="evenodd"/><path transform="matrix(0,1,1,0,137.487,243.702)" d="M0 0V.432H1.584V-.018H1.494C1.53-.018 1.566-.072 1.584-.144 1.62-.216 1.62-.324 1.62-.396 1.62-.54 1.584-.702 1.476-.828 1.44-.882 1.368-.918 1.314-.954 1.242-.99 1.188-.99 1.116-.99H0V-.558H.972C1.008-.558 1.08-.54 1.134-.486 1.188-.414 1.206-.342 1.206-.306 1.206-.234 1.188-.144 1.116-.09 1.098-.054 1.062-.036 1.026-.018 .972 0 .936 0 .9 0H0" fill-rule="evenodd"/><path transform="matrix(0,1,1,0,139.701,245.322)" d="M0 0H-1.62V-.414H-1.548C-1.566-.414-1.584-.432-1.602-.45-1.62-.45-1.638-.486-1.656-.522-1.674-.594-1.692-.684-1.692-.756-1.656-1.224-1.386-1.458-.846-1.458-.378-1.404-.126-1.17-.108-.774-.108-.702-.126-.63-.144-.558-.162-.486-.198-.45-.216-.45H-.144C.018-.468 .09-.54 .09-.666 .108-.738 .09-.81 .072-.918 .036-1.008-.018-1.116-.072-1.242L.288-1.458C.396-1.278 .504-.972 .522-.72 .522-.288 .342-.018 0 0ZM-1.062-.45H-.702C-.648-.45-.594-.486-.558-.522-.522-.558-.504-.612-.486-.684-.504-.882-.63-1.008-.882-1.026-1.116-1.008-1.26-.9-1.278-.702-1.26-.54-1.17-.45-1.062-.45" fill-rule="evenodd"/><path transform="matrix(0,1,1,0,140.547,243.774)" d="M0 0C-.162 .18-.18 .432-.09 .648-.036 .738 .036 .828 .144 .9 .198 .936 .234 .954 .306 .972 .36 .99 .414 .99 .468 .99H1.476V.558H.54C.486 .558 .414 .54 .36 .486 .306 .432 .27 .36 .27 .288 .27 .216 .306 .162 .36 .108 .414 .036 .486 .018 .54 .018H1.476V-.414H-.684V0H0" fill-rule="evenodd"/><path transform="matrix(0,1,1,0,142.797,245.25)" d="M0 0H-1.566V.414H-1.422C-1.494 .45-1.548 .504-1.566 .594-1.602 .684-1.62 .792-1.62 .918H-1.188C-1.17 .774-1.134 .648-1.098 .576-1.044 .486-.99 .45-.918 .432H0V0" fill-rule="evenodd"/><path transform="matrix(0,1,1,0,145.479,244.476)" d="M0 0C-.54 0-.846-.27-.846-.756-.846-.99-.774-1.188-.63-1.332-.468-1.458-.252-1.53 0-1.53 .54-1.53 .846-1.242 .846-.756 .846-.522 .774-.324 .63-.198 .486-.054 .27 0 0 0ZM0-.45C.126-.45 .234-.468 .306-.522 .378-.576 .414-.666 .414-.756 .414-.954 .27-1.08 0-1.08-.126-1.08-.234-1.044-.306-.99-.378-.936-.414-.864-.414-.756-.414-.558-.27-.45 0-.45" fill-rule="evenodd"/><path transform="matrix(0,1,1,0,147.207,244.98)" d="M0 0 .324-.108C.324-.234 .324-.324 .288-.396 .27-.45 .234-.504 .162-.522 .252-.558 .342-.756 .342-.9 .342-1.098 .306-1.26 .198-1.368 .108-1.476-.036-1.53-.216-1.53-.396-1.53-.522-1.458-.594-1.296-.684-1.152-.72-.918-.72-.612H-.792C-.864-.612-.9-.63-.936-.666-.954-.684-.972-.738-.972-.81-.972-.9-.954-.99-.936-1.062-.9-1.152-.864-1.224-.792-1.278L-1.098-1.494C-1.278-1.332-1.35-1.098-1.35-.81-1.35-.612-1.314-.468-1.242-.36-1.17-.252-1.062-.18-.9-.162H-.09C-.036-.162 0-.108 0 0ZM-.198-1.08C-.144-1.08-.09-1.062-.072-1.026-.036-.972-.018-.918-.018-.828-.036-.72-.072-.648-.126-.612H-.396C-.396-.774-.378-.882-.342-.954-.306-1.026-.27-1.08-.198-1.08" fill-rule="evenodd"/><path transform="matrix(0,1,1,0,148.539,243.774)" d="M0 0H-.684V.414H1.512V-.018H1.44C1.512-.09 1.548-.216 1.548-.396 1.584-.756 1.314-1.062 .792-1.116H.558C.126-1.062-.09-.792-.108-.432-.126-.306-.09-.162 0 0ZM.972-.018H.576C.522-.018 .504-.018 .468-.036 .45-.036 .414-.054 .396-.072L.378-.09C.378-.09 .378-.09 .378-.09 .324-.162 .288-.234 .288-.324 .306-.558 .45-.684 .702-.702 1.008-.702 1.17-.576 1.188-.342 1.17-.18 1.098-.072 .972-.018" fill-rule="evenodd"/><path transform="matrix(0,1,1,0,134.553,246.798)" d="M0 0V.378H.36V0H1.044C1.098 0 1.134 0 1.17 .036 1.188 .054 1.206 .108 1.224 .162 1.224 .18 1.224 .216 1.206 .252 1.206 .288 1.188 .324 1.188 .378L1.53 .45C1.584 .378 1.62 .216 1.62 0 1.62-.126 1.584-.234 1.512-.306 1.44-.378 1.35-.414 1.224-.432H.36V-.684H0V-.432H-.504L-.63 0H0" fill-rule="evenodd"/><path transform="matrix(0,1,1,0,136.785,247.554)" d="M0 0C-.252 0-.468-.072-.612-.216-.774-.342-.846-.54-.846-.774-.846-1.26-.54-1.53 0-1.53 .558-1.53 .846-1.26 .846-.774 .846-.54 .774-.342 .63-.216 .486-.072 .27 0 0 0ZM0-.45C.144-.45 .234-.486 .324-.54 .396-.594 .432-.684 .432-.774 .432-.864 .396-.954 .324-1.008 .234-1.062 .144-1.08 0-1.08-.126-1.08-.234-1.062-.306-1.008-.378-.954-.414-.864-.414-.774-.414-.576-.252-.45 0-.45" fill-rule="evenodd"/><path transform="matrix(0,1,1,0,137.883,248.328)" d="M0 0H-1.566V.396H-1.422C-1.494 .432-1.53 .486-1.566 .576-1.602 .666-1.62 .774-1.62 .9H-1.188C-1.17 .756-1.134 .63-1.08 .558-1.044 .468-.99 .432-.9 .414H0V0" fill-rule="evenodd"/><path transform="matrix(0,1,1,0,140.511,248.076)" d="M0 0 .306-.108C.306-.234 .306-.324 .27-.396 .252-.45 .216-.504 .162-.522 .234-.558 .324-.756 .324-.9 .324-1.098 .288-1.26 .18-1.368 .09-1.476-.054-1.53-.234-1.53-.396-1.53-.522-1.458-.612-1.296-.666-1.224-.684-1.134-.72-1.008-.738-.9-.738-.774-.738-.612H-.81C-.864-.612-.918-.63-.936-.666-.972-.684-.99-.738-.972-.81-.99-.9-.972-.99-.936-1.062-.918-1.152-.864-1.224-.81-1.278L-1.116-1.494C-1.296-1.332-1.368-1.098-1.368-.81-1.368-.612-1.332-.468-1.26-.36-1.188-.252-1.08-.18-.918-.162H-.108C-.036-.162-.018-.108 0 0ZM-.216-1.08C-.162-1.08-.108-1.062-.072-1.026-.054-.972-.036-.918-.036-.828-.054-.72-.09-.648-.144-.612H-.414C-.414-.774-.396-.882-.36-.954-.324-1.026-.27-1.08-.216-1.08" fill-rule="evenodd"/><path transform="matrix(0,1,1,0,141.501,246.708)" d="M0 0C0 .162 .036 .324 .126 .432 .198 .558 .324 .63 .486 .702L.648 .342C.486 .27 .396 .162 .396 0 .414-.18 .522-.288 .756-.342 .792-.342 .81-.342 .846-.342 .882-.342 .918-.342 .954-.324H.972C1.188-.27 1.296-.162 1.314 .018 1.314 .108 1.296 .162 1.242 .216 1.206 .27 1.134 .324 1.044 .342L1.188 .702C1.548 .612 1.71 .378 1.692 .036 1.692-.486 1.404-.738 .846-.756 .288-.702 .018-.468 0 0" fill-rule="evenodd"/><path transform="matrix(0,1,1,0,143.823,247.716)" d="M0 0C-.324 0-.558-.054-.738-.18-.9-.288-.99-.486-1.008-.738-.99-1.152-.72-1.386-.162-1.44 .054-1.44 .252-1.386 .396-1.26 .486-1.188 .558-1.08 .612-.972 .666-.864 .684-.756 .684-.648 .702-.396 .576-.126 .414-.054L.144-.306C.198-.324 .234-.378 .252-.45 .288-.504 .288-.576 .306-.648 .306-.72 .288-.81 .216-.882 .18-.918 .144-.936 .108-.954 .072-.972 .036-.99 0-.99V0ZM-.324-1.008H-.342C-.396-.99-.468-.972-.522-.9-.594-.846-.612-.774-.612-.702-.612-.594-.504-.45-.378-.414H-.324V-1.008" fill-rule="evenodd"/><path transform="matrix(0,1,1,0,145.389,247.86)" d="M0 0C-.306 .018-.486-.162-.54-.504-.54-.612-.558-.702-.576-.756-.576-.774-.594-.81-.612-.81-.612-.828-.612-.828-.63-.828H-.648C-.738-.828-.774-.756-.792-.612-.792-.54-.774-.468-.738-.414-.72-.36-.666-.306-.612-.27L-.918-.018C-1.062-.126-1.152-.324-1.17-.594-1.17-1.026-.972-1.26-.612-1.278-.342-1.242-.18-1.098-.144-.81-.144-.576-.072-.45 .018-.45 .054-.45 .09-.468 .108-.504 .144-.522 .144-.576 .162-.63 .144-.72 .126-.792 .09-.882 .054-.954 0-1.026-.054-1.08L.234-1.368C.45-1.206 .54-.972 .54-.648 .54-.234 .342 0 0 0" fill-rule="evenodd"/><path transform="matrix(0,1,1,0,131.691,252.702)" d="M0 0 .36 .09 .396 .126 .378 .162 .306 .216 .054 1.728H-.252L-.18 1.278H-1.134V1.728H-1.476V1.278H-2.394L-2.448 1.314H-2.484L-2.52 1.278V1.206L-2.538 .936H-.144L-.09 .612H-1.62L-1.656 .648-1.692 .666-1.728 .63-1.746 .558-1.782 .27H-.054" fill-rule="evenodd"/><path transform="matrix(0,1,1,0,133.635,250.11)" d="M0 0H2.556L2.718 .018 2.844 .108 2.916 .234 2.952 .432V.828L2.898 1.026 2.772 1.17 2.574 1.26 2.286 1.314 2.124 1.008 2.358 .972 2.502 .9 2.592 .81 2.628 .702V.486L2.61 .396 2.556 .342 2.466 .324H1.44L1.224 .738 1.044 1.134 1.026 1.206 .99 1.242H.936L.882 1.188 .684 .972 1.098 .324H.252L.162 .414 .108 .432 .054 .396 .036 .288" fill-rule="evenodd"/><path transform="matrix(0,1,1,0,136.101,251.262)" d="M0 0V.486H1.368L1.422 .306H.504L.45 .342 .414 .36 .396 .324 .378 .252 .342-.018H1.494L1.53-.162 1.836-.09 1.872-.036 1.818 .036 1.44 1.296H1.152L1.278 .828H.72V1.188H.414V.828H0V1.116H-.414L-.234 1.35-.63 1.728V2.412L-.396 2.25-.18 2.034-.288 1.926-.468 1.854-.432 1.548-.198 1.638 .018 1.782 .198 1.458 .324 1.116 .576 1.35 .414 1.746 .234 2.052 .45 2.448 .594 2.88 .324 3.15 .198 2.7 .036 2.304-.36 2.646-.738 2.88-.936 2.718V1.926L-1.062 2.016-1.098 2.07-1.152 2.088-1.17 2.07-1.206 2.016-1.296 1.782-.81 1.458-.486 1.116H-1.08V0H0ZM-.306 .342H-.79199V.79201H-.306Z" fill-rule="evenodd"/><path transform="matrix(0,1,1,0,137.523,253.206)" d="M0 0V.306H-.198V1.044H-.018V1.368H-1.296V0H0ZM-.486 .306H-1.008V1.0440099H-.486Z" fill-rule="evenodd"/><path transform="matrix(0,1,1,0,140.241,250.236)" d="M0 0H.324V1.368L.738 1.116 1.098 .81 1.44 .414 1.746-.054 2.034 .216 1.764 .576 1.494 .9 1.188 1.188 .864 1.44H2.97V1.782H.99L.936 1.872 .882 1.89 .846 1.836 .828 1.728V1.458L.324 1.782V3.15H0" fill-rule="evenodd"/><path transform="matrix(0,1,1,0,143.121,252.306)" d="M0 0-.198 .324-.504 .108-.81-.126-1.368-.684-1.17-.936-.612-.432" fill-rule="evenodd"/><path transform="matrix(0,1,1,0,144.795,250.776)" d="M0 0 .036-.324 .306-.27 .36-.234 .306-.18 .18 .972 .342 1.044 .27 1.332-.09 1.188-.414 .972-.36 .72-.072 .882 0 .324-.504 .594-.522 .666-.558 .684-.612 .648-.648 .576-.738 .342" fill-rule="evenodd"/><path transform="matrix(0,1,1,0,144.651,251.226)" d="M0 0H1.944V.324H1.296V.972H1.566L1.602 .936 1.62 .882V.648L1.926 .756 1.89 .918 1.872 1.08 1.8 1.206 1.692 1.26 1.548 1.278H0V0ZM.522 .324H.306V.97198H.522ZM1.044 .324H.79202V.97198H1.044Z" fill-rule="evenodd"/><path transform="matrix(0,1,1,0,146.253,250.146)" d="M0 0H1.008L1.17 .018 1.296 .09 1.386 .216 1.44 .414V1.008L1.386 1.188 1.296 1.314 1.152 1.422 .954 1.476 .828 1.17 .954 1.134 1.062 1.062 1.116 .99 1.152 .882V.504L1.116 .396 1.026 .324H.828L.666 .792 .504 1.224 .522 1.296V1.332L.468 1.314 .396 1.278 .198 1.116 .378 .756 .522 .324H.234L.162 .414 .108 .432 .054 .396 .036 .288" fill-rule="evenodd"/><path transform="matrix(0,1,1,0,146.235,251.676)" d="M0 0H1.044L1.242 .036 1.368 .108 1.458 .27 1.476 .486V.99L1.422 1.188 1.314 1.332 1.17 1.422 .972 1.458 .846 1.17 .972 1.134 1.08 1.062 1.134 .972 1.17 .864V.432L1.134 .378 1.062 .36 .972 .342H.774L.522 1.26 .504 1.35 .468 1.386 .414 1.368 .18 1.134 .378 .738 .486 .342H.234L.144 .432 .09 .45 .036 .396 .018 .27" fill-rule="evenodd"/><path transform="matrix(0,1,1,0,132.087,255.06)" d="M0 0 .216-.234 .504 .252 .288 .45" fill-rule="evenodd"/><path transform="matrix(0,1,1,0,131.943,255.69)" d="M0 0 .216-.216 .378 .036 .576 .288 .324 .486 .144 .252" fill-rule="evenodd"/><path transform="matrix(0,1,1,0,131.763,256.554)" d="M0 0 .288-.018V.432H.936L1.314-.072 1.53 .072 1.602 .126 1.62 .162 1.602 .198 1.53 .216 1.206 .54 1.44 .702 1.584 .918 1.656 1.152 1.674 1.44V3.078L1.35 3.186V1.548C1.33 1.117 1.353 .813 .882 .756H0" fill-rule="evenodd"/><path transform="matrix(0,1,1,0,132.861,255.096)" d="M0 0H.252V1.17L.468 .936 .36 .63 .54 .414 .792 1.044V-.036H2.61V.27H2.142V.774H2.556V1.062H2.142V1.566H2.232L2.34 1.53 2.358 1.422V1.296L2.7 1.422 2.592 1.728 2.502 1.854 2.34 1.89H.792V1.386L.684 1.494 .576 1.206 .216 1.674 .18 1.728 .162 1.764H.108L.072 1.71-.054 1.53-.036 1.458 0 1.404V0ZM1.872 .27H1.60201V.77400007H1.872ZM1.872 1.062H1.60201V1.566H1.872ZM1.35 .27H1.06201V.77400007H1.35ZM1.35 1.062H1.06201V1.566H1.35Z" fill-rule="evenodd"/><path transform="matrix(0,1,1,0,137.145,255.222)" d="M0 0-.162-.342 .072-.504 .288-.702 .486-.936 .684-1.206 .918-.972 .486-.432" fill-rule="evenodd"/><path transform="matrix(0,1,1,0,137.145,256.032)" d="M0 0-.18-.342 .108-.504 .378-.72 .63-.936 .846-1.206 1.098-.99 .792-.648H2.178V-.342H.432" fill-rule="evenodd"/><path transform="matrix(0,1,1,0,137.901,255.024)" d="M0 0 .234-.234 .666 .198V-.756H.972V.09H1.692V-.684H1.998V.09H2.808V-.864H3.096V1.26H2.808V.414H1.998V1.188H1.692V.414H.972V1.26H.666V.342L.504 .522" fill-rule="evenodd"/><path transform="matrix(0,1,1,0,143.337,256.824)" d="M0 0V-1.332H-.27V-.36H-.576V-1.35H-.846V-.378H-1.116V-1.35H-1.422V-.198H-1.674V-2.628H.378V-2.34H.27V-.306H.576C.998-.355 1.061-.319 1.098-.756V-.918L1.404-.774 1.386-.63C1.35 .073 .79-.014 .252 0H0ZM-.576-2.34H-.84598997V-1.63797H-.576ZM-.27-1.638H.000019997359V-2.34003H-.27ZM-1.422-1.638H-1.116V-2.34003H-1.422Z" fill-rule="evenodd"/><path transform="matrix(0,1,1,0,142.473,257.238)" d="M0 0 .054-.252 .306-.126 .558-.036 .468 .288" fill-rule="evenodd"/><path transform="matrix(0,1,1,0,141.357,257.436)" d="M0 0V-.288L.648-.27V.018" fill-rule="evenodd"/><path transform="matrix(0,1,1,0,140.763,257.436)" d="M0 0-.072-.288 .27-.378 .576-.504 .702-.18 .36-.072" fill-rule="evenodd"/><path transform="matrix(0,1,1,0,141.879,257.346)" d="M0 0 .054-.252 .594-.09 .54 .198 .27 .126" fill-rule="evenodd"/><path transform="matrix(0,1,1,0,144.507,255.888)" d="M0 0H.288V.396H1.206L1.314-.018 1.476 .036 1.62 .09 1.674 .144 1.656 .18 1.566 .216 1.242 1.062H.936L1.08 .702H.288V1.098H0V.702H-.594L-.63 .774H-.666L-.684 .738-.702 .63-.738 .396H0" fill-rule="evenodd"/><path transform="matrix(0,1,1,0,145.857,255.168)" d="M0 0H1.116V1.494H0ZM.432 .324H.23399002V1.1879799H.432ZM.864 .324H.64798006V1.1879799H.864Z" fill-rule="evenodd"/><path transform="matrix(0,1,1,0,145.587,256.446)" d="M0 0H.288V.486L.486 .36 .648 .198 .792 .018 .9-.18 1.098 .036 .954 .27 .792 .468V.648L.972 .522 1.134 .378 1.26 .198 1.386 0 1.566 .216 1.404 .45 1.224 .648 1.026 .828 .792 .972V1.17L1.026 1.044 1.224 .9 1.422 .72 1.584 .504 1.764 .738 1.566 .99 1.332 1.188 1.062 1.35 .792 1.476V1.638H.972L1.188 1.62 1.332 1.566 1.422 1.476 1.44 1.332 1.458 1.134 1.764 1.296 1.71 1.566 1.656 1.728 1.512 1.854 1.296 1.926H.504V.684L.288 .81V2.052H0" fill-rule="evenodd"/></g></svg>