<?xml version='1.0' encoding='UTF-8'?>
<svg xmlns="http://www.w3.org/2000/svg" xmlns:xlink="http://www.w3.org/1999/xlink" xmlns:inkscape="http://www.inkscape.org/namespaces/inkscape" version="1.1" width="396.600" height="283.500" viewBox="0 0 396.600 283.500"><g fill="#ffffff" transform="scale(10.0) translate(-216.075, -18.345)"><defs><clipPath id="clip_14"><path transform="matrix(1,0,0,-1,0,595.276)" d="M0 .046H841.86V595.276H0Z"/></clipPath></defs><path transform="matrix(1,0,0,-1,0,595.276)" d="M236.46 567.916V564.286L238.41 569.206 236.46 567.916Z" fill-rule="evenodd"/><path transform="matrix(1,0,0,-1,0,595.276)" d="M236.46 567.916V567.916L238.41 569.206 236.46 575.776V570.526C236.16 570.496 235.89 570.406 235.62 570.256 235.35 570.106 235.08 569.926 234.87 569.686 234.66 569.446 234.48 569.176 234.36 568.876 234.33 568.726 234.27 568.576 234.24 568.456 234.24 568.366 234.21 568.306 234.21 568.216 234.21 568.186 234.21 568.156 234.21 568.126 234.21 568.096 234.21 568.096 234.21 568.066 234.21 568.066 234.21 568.036 234.21 568.006V568.036L233.49 549.556H235.47L234.87 565.276C234.84 565.786 234.96 566.356 235.26 566.836 235.53 567.346 235.98 567.706 236.46 567.916Z" fill-rule="evenodd"/><path transform="matrix(1,0,0,-1,0,595.276)" d="M234.21 568.006V568.006Z" fill-rule="evenodd"/></g></svg>