<?xml version='1.0' encoding='UTF-8'?>
<svg xmlns="http://www.w3.org/2000/svg" xmlns:xlink="http://www.w3.org/1999/xlink" xmlns:inkscape="http://www.inkscape.org/namespaces/inkscape" version="1.1" width="396.600" height="283.500" viewBox="0 0 396.600 283.500"><g transform="scale(10.0) translate(-561.855, -216.795)"><path transform="matrix(1,0,0,-1,0,595.276)" stroke-width=".12" stroke-linecap="butt" stroke-miterlimit="10" stroke-linejoin="miter" fill="none" stroke="#000000" d="M579.5 369.5H580.5"/><path transform="matrix(1,0,0,-1,0,595.276)" d="M582.12 369.436V365.956L584.04 370.636 582.12 369.436Z" fill-rule="evenodd"/><path transform="matrix(1,0,0,-1,0,595.276)" d="M582.12 369.436V369.436L584.04 370.636 582.12 376.996V371.956C581.64 371.836 581.04 371.596 580.68 371.116 580.44 370.876 580.32 370.636 580.2 370.396 580.08 370.156 580.08 370.036 580.08 369.916 580.08 369.796 580.08 369.796 580.08 369.676 579.96 369.676 579.96 369.676 579.96 369.556L579.36 351.796H581.28L580.68 366.916C580.56 367.996 581.16 368.956 582.12 369.436Z" fill-rule="evenodd"/></g></svg>