<?xml version='1.0' encoding='UTF-8'?>
<svg xmlns="http://www.w3.org/2000/svg" xmlns:xlink="http://www.w3.org/1999/xlink" xmlns:inkscape="http://www.inkscape.org/namespaces/inkscape" version="1.1" width="396.600" height="283.500" viewBox="0 0 396.600 283.500"><g transform="scale(10.0) translate(-43.185, -358.545)"><defs><clipPath id="clip_14"><path transform="matrix(1,0,0,-1,0,595.276)" d="M0 .046H841.86V595.276H0Z"/></clipPath></defs><path transform="matrix(1,0,0,-1,0,595.276)" d="M45.57 223.636H51.93V225.766H45.57Z" fill-rule="evenodd"/><path transform="matrix(1,0,0,-1,0,595.276)" d="M55.11 223.636H61.5V225.766H55.11Z" fill-rule="evenodd"/><path transform="matrix(1,0,0,-1,0,595.276)" d="M64.68 223.636H71.07V225.766H64.68Z" fill-rule="evenodd"/><path transform="matrix(1,0,0,-1,0,595.276)" d="M74.25 223.636H80.64V225.766H74.25Z" fill-rule="evenodd"/><path transform="matrix(1,0,0,-1,0,595.276)" d="M45.57 219.376H51.93V221.506H45.57Z" fill-rule="evenodd"/><path transform="matrix(1,0,0,-1,0,595.276)" d="M55.11 219.376H61.5V221.506H55.11Z" fill-rule="evenodd"/><path transform="matrix(1,0,0,-1,0,595.276)" d="M64.68 219.376H71.07V221.506H64.68Z" fill-rule="evenodd"/><path transform="matrix(1,0,0,-1,0,595.276)" d="M74.25 219.376H80.64V221.506H74.25Z" fill-rule="evenodd"/></g></svg>