<?xml version='1.0' encoding='UTF-8'?>
<svg xmlns="http://www.w3.org/2000/svg" xmlns:xlink="http://www.w3.org/1999/xlink" xmlns:inkscape="http://www.inkscape.org/namespaces/inkscape" version="1.1" width="396.600" height="283.500" viewBox="0 0 396.600 283.500"><g fill="#ffffff" transform="scale(10.0) translate(-561.855, -500.295)"><path transform="matrix(1,0,0,-1,0,595.276)" d="M581.16 89.596 582.24 88.516 582.36 88.636 581.28 89.716Z" fill-rule="evenodd"/><path transform="matrix(1,0,0,-1,0,595.276)" d="M579.6 80.476 584.52 75.676 584.64 75.796 579.72 80.596Z" fill-rule="evenodd"/><path transform="matrix(1,0,0,-1,0,595.276)" d="M578.04 71.476 581.28 68.236 581.4 68.356 578.16 71.596Z" fill-rule="evenodd"/><path transform="matrix(1,0,0,-1,0,595.276)" d="M586.08 68.236 581.76 92.836H581.64L577.32 68.236H577.08L581.64 93.796H581.76L586.32 68.236Z" fill-rule="evenodd"/><path transform="matrix(1,0,0,-1,0,595.276)" d="M580.68 86.476 582.96 84.196 583.08 84.316 580.8 86.716Z" fill-rule="evenodd"/><path transform="matrix(1,0,0,-1,0,595.276)" d="M580.2 83.476 583.68 79.996 583.92 80.116 580.32 83.596Z" fill-rule="evenodd"/><path transform="matrix(1,0,0,-1,0,595.276)" d="M579.12 77.476 585.24 71.356 585.36 71.476 579.24 77.596Z" fill-rule="evenodd"/><path transform="matrix(1,0,0,-1,0,595.276)" d="M578.52 74.476 584.88 68.236 585 68.356 578.64 74.596Z" fill-rule="evenodd"/></g></svg>