<?xml version='1.0' encoding='UTF-8'?>
<svg xmlns="http://www.w3.org/2000/svg" xmlns:xlink="http://www.w3.org/1999/xlink" xmlns:inkscape="http://www.inkscape.org/namespaces/inkscape" version="1.1" width="396.600" height="283.500" viewBox="0 0 396.600 283.500"><g transform="scale(10.0) translate(-216.075, -500.295)"><defs><clipPath id="clip_14"><path transform="matrix(1,0,0,-1,0,595.276)" d="M0 .046H841.86V595.276H0Z"/></clipPath></defs><path transform="matrix(1,0,0,-1,0,595.276)" d="M245.34 93.706 253.5 67.756H218.46V87.736L245.34 93.706ZM245.7 89.326 244.74 92.356 243.09 90.796 245.7 89.326ZM244.29 92.476 241.26 91.816 242.73 90.976 244.29 92.476ZM235.74 90.586 234.87 89.776 239.01 87.466 242.43 90.706 240.69 91.666 235.74 90.586ZM234.51 89.956 234.99 90.406 234.09 90.196 234.51 89.956ZM234.21 89.686 233.49 90.076 226.89 88.606 230.79 86.446 234.21 89.686ZM225.69 88.336 219.72 87.016 222.6 85.426 225.69 88.336ZM219.42 86.716V82.426L222.3 85.126 219.42 86.716ZM222.66 84.946 219.42 81.916V81.586L223.35 79.396 226.77 82.636 222.66 84.946ZM226.38 88.456 222.96 85.216 227.07 82.936 230.49 86.176 226.38 88.456ZM238.71 87.196 234.57 89.476 231.15 86.236 235.26 83.956 238.71 87.196ZM242.79 90.496 239.37 87.256 243.48 84.976 246.24 87.586 245.85 88.786 242.79 90.496ZM243.84 84.766 247.83 82.546 246.36 87.166 243.84 84.766ZM243.18 84.706 239.07 86.986 235.62 83.746 239.76 81.466 243.18 84.706ZM231.54 80.416 234.96 83.656 230.85 85.966 227.43 82.726 231.54 80.416ZM219.42 81.136V75.976L219.6 75.886 223.05 79.126 219.42 81.136ZM231.24 80.146 227.13 82.456 223.71 79.216 227.82 76.906 231.24 80.146ZM231.9 80.236 236.01 77.926 239.46 81.166 235.32 83.476 231.9 80.236ZM244.23 78.946 247.65 82.186 243.54 84.496 240.12 81.256 244.23 78.946ZM249.48 77.206 248.01 81.976 244.59 78.766 248.7 76.456 249.48 77.206ZM236.37 77.746 240.51 75.436 243.93 78.676 239.82 80.986 236.37 77.746ZM235.71 77.656 231.6 79.936 228.18 76.696 232.29 74.416 235.71 77.656ZM223.41 78.916 219.96 75.676 224.1 73.396 227.52 76.636 223.41 78.916ZM219.66 75.406 219.42 75.166V70.396L220.35 69.856 223.8 73.096 219.66 75.406ZM219.42 68.986 220.08 69.586 219.42 69.946V68.986ZM220.41 69.376 219.72 68.716H221.61L220.41 69.376ZM228.27 70.606 224.16 72.916 220.71 69.676 222.42 68.716H226.26L228.27 70.606ZM227.88 76.426 224.46 73.186 228.57 70.906 231.99 74.116 227.88 76.426ZM231.66 68.716 228.63 70.396 226.83 68.716H231.66ZM232.35 73.936 228.93 70.696 232.47 68.716H233.4L236.49 71.626 232.35 73.936ZM232.65 74.206 236.76 71.926 240.21 75.166 236.07 77.446 232.65 74.206ZM240.57 74.956 237.12 71.716 241.26 69.436 244.68 72.646 240.57 74.956ZM240.96 69.136 236.82 71.446 233.97 68.716H240.51L240.96 69.136ZM241.71 68.716 241.32 68.926 241.08 68.716H241.71ZM249.15 70.156 245.04 72.466 241.62 69.226 242.52 68.716H247.62L249.15 70.156ZM244.98 72.946 248.4 76.186 244.29 78.466 240.87 75.226 244.98 72.946ZM250.11 75.226 248.76 75.976 245.34 72.736 249.45 70.456 251.13 72.016 250.11 75.226ZM251.25 71.596 249.81 70.246 252.06 68.986 251.25 71.596ZM249.51 69.976 248.19 68.716H251.76L249.51 69.976ZM249.06 76.276 249.93 75.766 249.63 76.786 249.06 76.276Z" fill="#ffff00" fill-rule="evenodd"/></g></svg>