<?xml version='1.0' encoding='UTF-8'?>
<svg xmlns="http://www.w3.org/2000/svg" xmlns:xlink="http://www.w3.org/1999/xlink" xmlns:inkscape="http://www.inkscape.org/namespaces/inkscape" version="1.1" width="396.600" height="283.500" viewBox="0 0 396.600 283.500"><g fill="#ffffff" transform="scale(10.0) translate(-216.075, -500.295)"><path transform="matrix(1,0,0,-1,0,595.276)" d="M237.24 84.436C237.6 84.436 238.08 84.796 238.32 85.876 238.68 86.836 238.8 88.156 238.8 89.236 238.8 90.556 238.68 91.756 238.32 92.716 238.08 93.676 237.6 94.156 237.24 94.156 236.88 94.156 236.4 93.676 236.16 92.716 235.8 91.756 235.68 90.436 235.68 89.236 235.68 88.036 235.8 86.716 236.16 85.876 236.4 84.916 236.88 84.436 237.24 84.436ZM237.24 85.876C237 85.876 236.76 86.236 236.52 86.836 236.4 87.556 236.28 88.396 236.28 89.236 236.28 90.076 236.4 91.036 236.52 91.636 236.76 92.356 237 92.716 237.24 92.716 237.48 92.716 237.72 92.356 237.96 91.636 238.08 91.036 238.2 90.076 238.2 89.236 238.2 88.396 238.08 87.556 237.96 86.836 237.72 86.236 237.48 85.876 237.24 85.876Z" fill-rule="evenodd"/><path transform="matrix(1,0,0,-1,0,595.276)" d="M240.6 87.916C240.96 87.916 241.32 88.276 241.56 88.876 241.8 89.476 241.92 90.196 241.92 90.916 241.92 92.476 241.32 93.796 240.6 93.796H239.4V84.796H240.24V87.916H240.6ZM240.24 92.476H240.6C240.72 92.476 240.84 92.356 240.96 91.996 241.08 91.756 241.2 91.276 241.2 90.916 241.2 90.556 241.08 90.076 240.96 89.716 240.84 89.476 240.72 89.236 240.6 89.236H240.24V92.476Z" fill-rule="evenodd"/><path transform="matrix(1,0,0,-1,0,595.276)" d="M233.76 92.356H233.04V93.796H235.44V92.356H234.6V84.796H233.76Z" fill-rule="evenodd"/><path transform="matrix(1,0,0,-1,0,595.276)" d="M231.48 88.516C231.84 88.396 232.08 88.156 232.2 87.676 232.2 87.556 232.2 87.316 232.2 87.076 232.2 86.836 232.2 86.596 232.08 86.356 232.08 86.116 231.96 85.996 231.72 85.876 231.48 85.876 231.36 85.876 231.24 85.996 231 86.236 230.88 86.356 230.76 86.596 230.76 86.716 230.64 86.836 230.64 86.836 230.64 86.956 230.52 87.076 230.52 87.196L230.04 86.116C230.16 85.516 230.52 85.036 230.88 84.676 231 84.556 231.36 84.436 231.6 84.436 231.96 84.436 232.2 84.556 232.32 84.796 232.44 85.036 232.56 85.396 232.68 85.756 232.8 86.356 232.92 86.836 232.92 87.436 232.92 87.916 232.8 88.276 232.68 88.636 232.56 89.236 232.2 89.716 231.6 89.956 231.24 90.196 230.88 90.556 230.88 91.036 230.76 91.156 230.76 91.276 230.88 91.516 230.88 91.756 230.88 91.996 231 92.236 231 92.356 231.12 92.476 231.36 92.476 231.48 92.596 231.6 92.476 231.72 92.476 231.84 92.356 231.96 92.236 232.08 92.116 232.08 91.996 232.2 91.876 232.2 91.756 232.2 91.756 232.2 91.636 232.32 91.516L232.8 92.476C232.68 92.956 232.32 93.436 231.96 93.796 231.84 93.916 231.72 94.036 231.48 94.036 231.24 94.036 231 93.916 230.88 93.796 230.76 93.556 230.52 93.316 230.4 93.076 230.4 92.836 230.4 92.716 230.28 92.476 230.16 91.636 230.16 90.676 230.4 89.836 230.52 89.236 230.88 88.756 231.48 88.516Z" fill-rule="evenodd"/><path transform="matrix(1,0,0,-1,0,595.276)" d="M237.12 82.276H238.44V81.196H235.32V82.276H236.64V83.236H237.12Z" fill-rule="evenodd"/><path transform="matrix(1,0,0,-1,0,595.276)" d="M235.8 80.596H238.08V76.636H235.8V80.596ZM236.28 79.516V77.716H237.48V79.516H236.28Z" fill-rule="evenodd"/><path transform="matrix(1,0,0,-1,0,595.276)" d="M235.32 76.036H238.44V73.756H237.96V74.956H235.92V73.756H235.32Z" fill-rule="evenodd"/><path transform="matrix(1,0,0,-1,0,595.276)" d="M236.04 74.356H237.72V73.276H237.12V67.876H236.04V69.076H236.64V73.276H236.04Z" fill-rule="evenodd"/><path transform="matrix(1,0,0,-1,0,595.276)" d="M234.84 67.876V81.316L235.2 83.116 234.72 83.236 233.4 77.236 233.88 77.116 234.24 78.796V67.876Z" fill-rule="evenodd"/></g></svg>