<?xml version='1.0' encoding='UTF-8'?>
<svg xmlns="http://www.w3.org/2000/svg" xmlns:xlink="http://www.w3.org/1999/xlink" xmlns:inkscape="http://www.inkscape.org/namespaces/inkscape" version="1.1" width="396.600" height="283.500" viewBox="0 0 396.600 283.500"><g transform="scale(10.0) translate(-388.965, -103.395)"><path transform="matrix(1,0,0,-1,0,595.276)" d="M410.64 466.516H411.24V466.156H410.64C410.64 466.036 410.64 465.916 410.64 465.796 410.64 465.676 410.76 465.676 410.76 465.556L410.88 465.676C410.88 465.796 410.88 465.916 411 465.916H411.24C411.12 465.676 411 465.436 410.88 465.316 410.88 465.196 410.88 465.196 410.88 465.076L411 464.956V465.316H411.24L411 464.476C411 464.596 410.88 464.716 410.88 464.716 410.76 464.836 410.76 464.956 410.64 465.076 410.64 464.956 410.52 464.956 410.52 464.836 410.4 464.836 410.4 464.716 410.28 464.716V464.956C410.4 465.076 410.52 465.196 410.64 465.316 410.52 465.436 410.52 465.556 410.52 465.676 410.52 465.916 410.4 466.036 410.4 466.156H410.28V466.516H410.4V467.236H410.64V466.516Z" fill-rule="evenodd"/><path transform="matrix(1,0,0,-1,0,595.276)" d="M411.24 468.076 411 467.236C411 467.356 410.88 467.476 410.88 467.596 410.76 467.716 410.76 467.716 410.64 467.836L410.52 467.716C410.4 467.596 410.4 467.596 410.28 467.476V467.716C410.4 467.836 410.52 467.956 410.64 468.076 410.52 468.196 410.52 468.436 410.52 468.556 410.52 468.676 410.4 468.796 410.4 468.916H410.28V469.396H410.4V470.116H410.64V469.396H411.24V468.916H410.64C410.64 468.796 410.64 468.796 410.64 468.676 410.64 468.556 410.76 468.436 410.76 468.316 410.76 468.436 410.88 468.436 410.88 468.556 410.88 468.556 410.88 468.676 411 468.796H411.24C411.12 468.556 411 468.316 410.88 468.076V467.956C410.88 467.836 410.88 467.836 411 467.836V468.076H411.24Z" fill-rule="evenodd"/><path transform="matrix(1,0,0,-1,0,595.276)" d="M410.16 467.236H409.68L410.16 469.276H410.04L409.92 468.796H409.68L410.04 470.116H409.8L409.32 468.316H409.8L409.32 466.876H409.8V464.476H409.92V466.876H410.16V466.756H410.28V467.476H410.16Z" fill-rule="evenodd"/><path transform="matrix(1,0,0,-1,0,595.276)" d="M411 469.996V469.516H410.88V469.996Z" fill-rule="evenodd"/><path transform="matrix(1,0,0,-1,0,595.276)" d="M411 467.236V466.636H410.88V467.236Z" fill-rule="evenodd"/><path transform="matrix(1,0,0,-1,0,595.276)" d="M410.04 464.956V466.516H410.16V464.956Z" fill-rule="evenodd"/><path transform="matrix(1,0,0,-1,0,595.276)" d="M409.56 464.956V466.516H409.68V464.956Z" fill-rule="evenodd"/><path transform="matrix(1,0,0,-1,0,595.276)" d="M408.84 483.556V483.916H408.48V486.796H408.24V483.556Z" fill-rule="evenodd"/><path transform="matrix(1,0,0,-1,0,595.276)" d="M409.68 484.036H409.32L409.2 483.556H408.96L409.32 486.796H409.68L410.04 483.556H409.8L409.68 484.036ZM409.68 484.516 409.56 485.716 409.32 484.516H409.68Z" fill-rule="evenodd"/><path transform="matrix(1,0,0,-1,0,595.276)" d="M411 483.556 410.52 485.596V483.556H410.16V486.796H410.52L411 484.756V486.796H411.24V483.556Z" fill-rule="evenodd"/><path transform="matrix(1,0,0,-1,0,595.276)" d="M411.96 485.356H412.32V484.876H411.96V483.916H412.44V483.556H411.6V486.796H412.44V486.436H411.96Z" fill-rule="evenodd"/><path transform="matrix(1,0,0,-1,0,595.276)" d="M409.44 480.796H410.16V481.396H409.92V481.276H409.68V481.636H410.16V482.836H409.44V480.796ZM409.68 482.356H409.92V481.996H409.68V482.356Z" fill-rule="evenodd"/><path transform="matrix(1,0,0,-1,0,595.276)" d="M408.24 482.356 408.48 482.476 408.6 481.876 408.48 481.756Z" fill-rule="evenodd"/><path transform="matrix(1,0,0,-1,0,595.276)" d="M408.6 480.196H408.24V479.716H408.48V478.396L408.24 477.796V477.196L408.48 477.916C408.6 477.676 408.72 477.436 408.96 477.316 409.08 477.196 409.32 477.196 409.56 477.196H410.16V477.676C410.04 477.676 409.8 477.676 409.68 477.676 409.56 477.676 409.44 477.676 409.32 477.676 409.2 477.796 409.08 477.796 408.96 477.916 408.84 478.036 408.72 478.156 408.6 478.156V480.196Z" fill-rule="evenodd"/><path transform="matrix(1,0,0,-1,0,595.276)" d="M409.8 480.196H410.04V479.836H409.8V479.356H410.16V478.876H408.72V479.356H409.08V479.836H408.84V480.196H409.08V480.676H409.32V480.196H409.56V480.676H409.8V480.196ZM409.32 479.836V479.356H409.56V479.836H409.32Z" fill-rule="evenodd"/><path transform="matrix(1,0,0,-1,0,595.276)" d="M409.8 478.756H409.56L409.68 478.036H409.92Z" fill-rule="evenodd"/><path transform="matrix(1,0,0,-1,0,595.276)" d="M409.32 478.756H409.08L408.96 478.036H409.2Z" fill-rule="evenodd"/><path transform="matrix(1,0,0,-1,0,595.276)" d="M411.6 482.116H412.44V480.436H412.2V481.516H410.76V480.436H410.52V482.116H411.36V482.836H411.6Z" fill-rule="evenodd"/><path transform="matrix(1,0,0,-1,0,595.276)" d="M409.08 476.116H409.92V475.516H409.08Z" fill-rule="evenodd"/><path transform="matrix(1,0,0,-1,0,595.276)" d="M408.24 473.476 408.84 475.396H408.96L408.72 474.556V470.836H408.6V473.836L408.48 473.356Z" fill-rule="evenodd"/><path transform="matrix(1,0,0,-1,0,595.276)" d="M408.48 474.916 408.84 476.356 408.6 476.476 408.24 475.036Z" fill-rule="evenodd"/><path transform="matrix(1,0,0,-1,0,595.276)" d="M409.32 481.396H409.2V481.276H408.96V481.636H409.32V482.836H408.72V480.796H409.32V481.396ZM408.96 482.356H409.2V481.996H408.96V482.356Z" fill-rule="evenodd"/><path transform="matrix(1,0,0,-1,0,595.276)" d="M412.68 487.516 412.2 489.676V487.516H411.96V490.876H412.2L412.68 488.836V490.876H413.04V487.516Z" fill-rule="evenodd"/><path transform="matrix(1,0,0,-1,0,595.276)" d="M411.36 490.876H411.6V487.516H411.36Z" fill-rule="evenodd"/><path transform="matrix(1,0,0,-1,0,595.276)" d="M410.16 490.276H409.8V490.876H410.76V490.276H410.4V487.516H410.16Z" fill-rule="evenodd"/><path transform="matrix(1,0,0,-1,0,595.276)" d="M409.2 489.436H409.56V488.956H409.2V487.996H409.8V487.516H408.84V490.876H409.8V490.516H409.2Z" fill-rule="evenodd"/><path transform="matrix(1,0,0,-1,0,595.276)" d="M408.36 488.836H408V489.316H408.6V487.516H408.36V487.636L408.24 487.516H408.12C408.12 487.396 408 487.516 407.88 487.516 407.76 487.756 407.64 487.996 407.64 488.476 407.52 489.196 407.52 490.276 407.88 490.756L408 490.876C408.12 490.996 408.12 490.996 408.24 490.876 408.36 490.876 408.36 490.756 408.48 490.636 408.48 490.516 408.48 490.396 408.6 490.156L408.36 490.036C408.36 490.156 408.24 490.276 408.24 490.396 408.12 490.396 408.12 490.516 408 490.396 407.88 490.276 407.88 490.036 407.76 489.676 407.76 489.316 407.76 488.956 407.88 488.476 407.88 488.116 408 487.996 408.12 487.996H408.24V488.116H408.36V488.236 488.836Z" fill-rule="evenodd"/><path transform="matrix(1,0,0,-1,0,595.276)" d="M411.6 479.596H411.96V478.876H411.6V477.796C411.72 477.796 411.84 477.676 411.96 477.676 412.08 477.676 412.2 477.676 412.44 477.676V477.196H411.84C411.6 477.196 411.48 477.196 411.24 477.436 411 477.556 410.88 477.676 410.88 477.916 410.88 477.796 410.76 477.676 410.76 477.556 410.76 477.436 410.64 477.316 410.64 477.196L410.52 477.436C410.64 477.796 410.76 478.156 410.76 478.516 410.88 478.876 410.88 479.236 410.88 479.596H411.12C411.12 479.116 411 478.756 411 478.396 411 478.276 411 478.156 411.12 478.156 411.24 478.036 411.24 478.036 411.36 477.916V480.436H410.88V481.156H411.96V480.436H411.6V479.596Z" fill-rule="evenodd"/><path transform="matrix(1,0,0,-1,0,595.276)" d="M411.6 475.516H412.32V475.996H411.6V476.476H411.36V475.996H410.64V475.516H411.36V474.916H410.64V472.516H411.36V471.916H410.52V471.436H411.36V470.836H411.6V471.436H412.44V471.916H411.6V472.516H412.2V474.916H411.6V475.516ZM411.6 474.556H411.96V473.956H411.6V474.556ZM410.88 474.556H411.36V473.956H410.88V474.556ZM410.88 473.476H411.36V472.876H410.88V473.476ZM411.6 473.476H411.96V472.876H411.6V473.476Z" fill-rule="evenodd"/><path transform="matrix(1,0,0,-1,0,595.276)" d="M409.8 473.956H410.16V474.556H408.96V473.956H409.56V471.676 471.556C409.44 471.436 409.44 471.436 409.32 471.436H409.2V470.836H409.56 409.68L409.8 470.956V471.076 473.956Z" fill-rule="evenodd"/><path transform="matrix(1,0,0,-1,0,595.276)" d="M408.24 481.276H408.48L408.6 480.676H408.48Z" fill-rule="evenodd"/></g></svg>