<?xml version='1.0' encoding='UTF-8'?>
<svg xmlns="http://www.w3.org/2000/svg" xmlns:xlink="http://www.w3.org/1999/xlink" xmlns:inkscape="http://www.inkscape.org/namespaces/inkscape" version="1.1" width="396.600" height="283.500" viewBox="0 0 396.600 283.500"><g fill="#ffffff" transform="scale(10.0) translate(-388.965, -330.195)"><path transform="matrix(1,0,0,-1,0,595.276)" d="M401.4 263.836H418.08L418.2 263.716C418.2 263.716 418.32 263.716 418.32 263.596 418.32 263.476 418.44 263.236 418.44 263.116 418.44 262.996 418.32 262.756 418.32 262.636L418.2 262.516H418.08 405.36V260.476H401.4V263.836Z" fill-rule="evenodd"/><path transform="matrix(1,0,0,-1,0,595.276)" stroke-width=".12" stroke-linecap="butt" stroke-miterlimit="10" stroke-linejoin="miter" fill="none" stroke="#ffffff" d="M411.5 259.5V259.5"/><path transform="matrix(1,0,0,-1,0,595.276)" d="M411.24 259.756V259.756H411.36V259.636C411.48 259.516 411.48 259.516 411.48 259.396L410.88 250.636C410.88 250.156 410.64 249.676 410.28 249.676H409.32C409.32 249.676 409.2 249.676 409.2 249.556V249.436L408.72 246.676C408.72 246.556 408.6 246.316 408.6 246.316 408.48 246.196 408.36 246.196 408.36 246.316 408.24 246.436 408.12 246.676 408.12 247.036L408.72 250.036C408.72 250.516 408.96 250.876 409.2 250.876H410.16C410.28 250.876 410.4 250.996 410.4 251.236L410.88 259.156C410.88 259.276 410.88 259.396 410.88 259.396L411.24 259.756Z" fill-rule="evenodd"/><path transform="matrix(1,0,0,-1,0,595.276)" d="M415.8 250.876V250.876Z" fill-rule="evenodd"/><path transform="matrix(1,0,0,-1,0,595.276)" d="M415.8 250.876V250.876H413.88C413.88 250.876 413.76 250.756 413.64 250.636 413.52 250.516 413.4 250.276 413.4 250.036L412.68 245.716C412.68 245.356 412.68 244.996 412.8 244.996 412.92 244.876 413.04 244.876 413.04 244.996 413.16 244.996 413.16 245.116 413.16 245.236L413.88 249.436C413.88 249.556 414 249.676 414.12 249.676H415.92C416.04 249.676 416.16 249.796 416.28 249.916 416.4 250.156 416.52 250.396 416.52 250.636L417 259.396C417 259.516 417 259.636 417 259.636 417 259.756 417 259.756 416.88 259.756L416.52 259.396C416.52 259.396 416.52 259.276 416.52 259.156L416.04 251.236C415.92 250.996 415.92 250.876 415.8 250.876Z" fill-rule="evenodd"/><path transform="matrix(1,0,0,-1,0,595.276)" stroke-width=".12" stroke-linecap="butt" stroke-miterlimit="10" stroke-linejoin="miter" fill="none" stroke="#ffffff" d="M407.5 253.5V253.5"/><path transform="matrix(1,0,0,-1,0,595.276)" d="M407.64 253.876V253.876 253.756C407.64 253.876 407.64 253.756 407.64 253.876V253.756L407.76 253.636 407.88 253.756C407.88 253.876 408 253.996 408 254.116 408 254.116 408 254.236 407.88 254.356 407.64 255.076 407.16 255.676 406.56 255.676 405.96 255.796 405.48 255.556 405.12 254.956 404.88 254.596 404.64 254.476 404.4 254.716 404.16 254.836 403.92 255.196 403.68 255.556 403.56 255.796 403.44 255.916 403.2 255.796 403.08 255.796 402.84 255.556 402.84 255.316 402.6 254.716 402.72 253.876 403.08 253.516H403.2C403.32 253.636 403.32 253.756 403.32 253.756 403.32 253.996 403.32 254.236 403.2 254.356 403.08 254.476 403.08 254.716 403.2 254.836 403.2 254.956 403.2 254.956 403.32 254.956 403.32 255.076 403.32 254.956 403.44 254.956 403.68 254.356 404.16 253.876 404.52 253.756L403.8 249.436 404.16 249.076V249.196L404.76 252.556C404.88 253.036 405 253.516 405.24 253.996 405.36 254.356 405.72 254.716 405.96 254.836 406.32 254.956 406.68 254.956 406.92 254.716 407.16 254.476 407.4 254.236 407.64 253.876Z" fill-rule="evenodd"/><path transform="matrix(1,0,0,-1,0,595.276)" d="M398.16 244.756C398.16 245.476 398.28 246.316 398.52 247.156 398.64 247.996 399 248.716 399.48 249.196 399.84 249.796 400.32 250.036 400.68 250.036 401.16 250.036 401.64 249.796 401.88 249.556 401.64 249.316 401.4 249.196 401.28 248.956 400.68 249.196 400.08 248.956 399.48 248.116 399.24 247.636 399 247.156 398.88 246.556 398.76 245.956 398.64 245.236 398.64 244.756H398.16Z" fill-rule="evenodd"/><path transform="matrix(1,0,0,-1,0,595.276)" d="M399.84 244.396H397.44C397.44 244.396 397.32 244.396 397.32 244.276 397.2 244.156 397.2 244.036 397.2 243.916 397.2 243.796 397.2 243.676 397.32 243.556 397.32 243.436 397.44 243.436 397.44 243.436H399.84V244.396Z" fill-rule="evenodd"/><path transform="matrix(1,0,0,-1,0,595.276)" d="M398.28 243.076C398.4 241.876 398.76 240.796 399.36 240.076 399.6 239.596 399.84 239.356 400.2 239.236 400.44 239.116 400.8 238.996 401.04 239.116 400.8 239.356 400.68 239.716 400.56 240.076 400.08 240.196 399.72 240.556 399.48 241.036 399.12 241.636 398.88 242.356 398.76 243.076H398.28Z" fill-rule="evenodd"/><path transform="matrix(1,0,0,-1,0,595.276)" d="M406.56 240.676C406.56 240.676 406.68 240.676 406.68 240.556 406.68 240.556 406.8 240.436 406.8 240.316 406.8 240.196 406.8 240.076 406.68 239.956V239.836H406.56 405.72C405.72 239.836 405.6 239.836 405.6 239.956 405.48 240.076 405.48 240.196 405.48 240.316 405.48 240.316 405.48 240.436 405.6 240.556V240.676H405.72 406.08L406.2 242.116C406.08 242.236 405.96 242.356 405.96 242.476 405.84 242.716 405.72 242.956 405.6 243.196H406.2C406.32 242.956 406.32 242.956 406.44 242.836 406.56 242.716 406.68 242.716 406.8 242.716 406.92 242.716 407.04 242.716 407.04 242.836 407.16 242.956 407.28 242.956 407.4 243.196H407.88C407.76 242.716 407.52 242.356 407.4 242.116 407.16 241.996 406.92 241.876 406.68 241.876L406.56 240.676Z" fill-rule="evenodd"/><path transform="matrix(1,0,0,-1,0,595.276)" d="M405.36 243.436H413.04V244.396H405.36Z" fill-rule="evenodd"/><path transform="matrix(1,0,0,-1,0,595.276)" d="M407.16 247.396C407.4 247.276 407.64 246.916 407.88 246.436 408 246.076 408 245.836 408.12 245.596 408.12 245.476 408.12 245.236 408.12 245.116 408.12 245.116 408.12 244.996 408.12 244.876V244.756H407.76C407.76 244.996 407.76 245.236 407.64 245.476 407.64 245.716 407.52 245.956 407.4 246.076 407.28 246.556 407.04 246.676 406.8 246.676 406.56 246.676 406.32 246.556 406.08 246.076 405.96 245.956 405.96 245.716 405.84 245.476 405.84 245.236 405.84 244.996 405.84 244.756H405.36C405.36 245.356 405.48 246.196 405.84 246.676 405.96 247.036 406.08 247.156 406.32 247.396 406.44 247.516 406.68 247.516 406.8 247.516L406.92 248.836H406.56L406.44 248.956C406.44 249.076 406.44 249.196 406.44 249.196 406.44 249.316 406.44 249.436 406.44 249.556L406.56 249.676H407.52 407.64V249.556C407.76 249.436 407.76 249.316 407.76 249.196 407.76 249.196 407.76 249.076 407.64 248.956 407.64 248.836 407.64 248.836 407.52 248.836H407.28L407.16 247.396Z" fill-rule="evenodd"/><path transform="matrix(1,0,0,-1,0,595.276)" d="M412.08 243.076C412.32 241.516 413.04 240.316 413.88 240.076 414 239.716 414.12 239.356 414.36 239.116 413.76 238.996 413.16 239.236 412.68 240.076 412.32 240.436 412.2 240.916 411.96 241.396 411.84 241.636 411.84 241.876 411.72 242.236 411.72 242.476 411.6 242.716 411.6 243.076H412.08Z" fill-rule="evenodd"/><path transform="matrix(1,0,0,-1,0,595.276)" d="M418.8 243.436H420.12C420.12 243.436 420.24 243.436 420.24 243.556 420.36 243.676 420.36 243.796 420.36 243.916 420.36 244.036 420.36 244.156 420.24 244.276 420.24 244.396 420.12 244.396 420.12 244.396H418.8V243.436Z" fill-rule="evenodd"/><path transform="matrix(1,0,0,-1,0,595.276)" d="M418.56 243.916C418.56 245.236 418.32 246.676 417.84 247.756 417.24 248.836 416.64 249.316 415.92 249.316 415.32 249.316 414.6 248.836 414.12 247.756 413.52 246.676 413.28 245.236 413.28 243.916 413.28 242.596 413.52 241.156 414.12 239.956 414.6 238.876 415.32 238.396 415.92 238.396 416.64 238.396 417.24 238.876 417.84 239.956 418.32 241.156 418.56 242.596 418.56 243.916ZM418.08 243.916C418.08 242.836 417.96 241.636 417.48 240.676 417 239.836 416.52 239.356 415.92 239.356 415.44 239.356 414.84 239.836 414.48 240.676 414 241.636 413.76 242.836 413.76 243.916 413.76 244.996 414 246.196 414.48 247.036 414.84 247.996 415.44 248.356 415.92 248.356 416.52 248.356 417 247.996 417.48 247.036 417.96 246.196 418.08 244.996 418.08 243.916Z" fill-rule="evenodd"/><path transform="matrix(1,0,0,-1,0,595.276)" d="M405.24 243.916C405.24 245.236 405 246.676 404.52 247.756 403.92 248.836 403.32 249.316 402.6 249.316 402 249.316 401.28 248.836 400.8 247.756 400.2 246.676 399.96 245.236 399.96 243.916 399.96 242.596 400.2 241.156 400.8 239.956 401.28 238.876 402 238.396 402.6 238.396 403.32 238.396 403.92 238.876 404.52 239.956 405 241.156 405.24 242.596 405.24 243.916ZM404.76 243.916C404.76 242.836 404.64 241.636 404.16 240.676 403.68 239.836 403.2 239.356 402.6 239.356 402.12 239.356 401.52 239.836 401.16 240.676 400.68 241.636 400.44 242.836 400.44 243.916 400.44 244.996 400.68 246.196 401.16 247.036 401.52 247.996 402.12 248.356 402.6 248.356 403.2 248.356 403.68 247.996 404.16 247.036 404.64 246.196 404.76 244.996 404.76 243.916Z" fill-rule="evenodd"/><path transform="matrix(1,0,0,-1,0,595.276)" d="M416.28 243.916C416.28 244.036 416.28 244.276 416.16 244.396 416.16 244.516 416.04 244.516 415.92 244.516 415.92 244.516 415.8 244.516 415.68 244.396 415.68 244.276 415.68 244.036 415.68 243.916 415.68 243.676 415.68 243.556 415.68 243.436 415.8 243.316 415.92 243.196 415.92 243.196 416.04 243.196 416.16 243.316 416.16 243.436 416.28 243.556 416.28 243.676 416.28 243.916ZM416.16 243.916C416.16 243.796 416.16 243.676 416.04 243.676 416.04 243.556 416.04 243.556 415.92 243.556L415.8 243.676C415.8 243.676 415.8 243.796 415.8 243.916 415.8 243.916 415.8 244.036 415.8 244.156 415.92 244.156 415.92 244.276 415.92 244.276 416.04 244.276 416.04 244.156 416.04 244.156 416.16 244.036 416.16 243.916 416.16 243.916Z" fill-rule="evenodd"/><path transform="matrix(1,0,0,-1,0,595.276)" d="M402.96 243.916C402.96 244.036 402.96 244.276 402.84 244.396 402.84 244.516 402.72 244.516 402.6 244.516 402.6 244.516 402.48 244.516 402.36 244.396 402.36 244.276 402.36 244.036 402.36 243.916 402.36 243.676 402.36 243.556 402.36 243.436 402.48 243.316 402.6 243.196 402.6 243.196 402.72 243.196 402.84 243.316 402.84 243.436 402.96 243.556 402.96 243.676 402.96 243.916ZM402.84 243.916C402.84 243.796 402.72 243.676 402.72 243.676 402.72 243.556 402.72 243.556 402.6 243.556L402.48 243.676C402.48 243.676 402.48 243.796 402.48 243.916 402.48 243.916 402.48 244.036 402.48 244.156 402.6 244.156 402.6 244.276 402.6 244.276 402.72 244.276 402.72 244.156 402.72 244.156 402.72 244.036 402.84 243.916 402.84 243.916Z" fill-rule="evenodd"/></g></svg>