<?xml version='1.0' encoding='UTF-8'?>
<svg xmlns="http://www.w3.org/2000/svg" xmlns:xlink="http://www.w3.org/1999/xlink" xmlns:inkscape="http://www.inkscape.org/namespaces/inkscape" version="1.1" width="396.600" height="283.500" viewBox="0 0 396.600 283.500"><g fill="#ffffff" transform="scale(10.0) translate(-216.075, -131.745)"><defs><clipPath id="clip_14"><path transform="matrix(1,0,0,-1,0,595.276)" d="M0 .046H841.86V595.276H0Z"/></clipPath></defs><path transform="matrix(1,0,0,-1,0,595.276)" d="M237.57 452.026 238.86 448.366 237.57 445.486V447.616H237.21C237 447.616 236.76 447.586 236.55 447.496 236.31 447.406 236.1 447.256 235.92 447.076 235.77 446.896 235.62 446.686 235.56 446.476 235.47 446.236 235.44 446.026 235.44 445.816L235.83 435.826H233.79L234.39 452.026H233.13L234.81 462.796 236.49 452.026H235.2L235.32 448.786C235.56 449.146 235.89 449.446 236.31 449.656 236.7 449.896 237.15 449.986 237.57 449.986V452.026Z" fill-rule="evenodd"/></g></svg>