<?xml version='1.0' encoding='UTF-8'?>
<svg xmlns="http://www.w3.org/2000/svg" xmlns:xlink="http://www.w3.org/1999/xlink" xmlns:inkscape="http://www.inkscape.org/namespaces/inkscape" version="1.1" width="396.600" height="283.500" viewBox="0 0 396.600 283.500"><g fill="#ffffff" transform="scale(10.0) translate(-216.075, -188.445)"><path transform="matrix(1,0,0,-1,0,595.276)" d="M237.12 398.476 236.04 404.476H235.92L234.84 398.476 234.72 398.596 235.92 405.556H236.16L237.36 398.596Z" fill-rule="evenodd"/><path transform="matrix(1,0,0,-1,0,595.276)" d="M235.56 401.236 236.52 400.276 236.64 400.396 235.68 401.356Z" fill-rule="evenodd"/><path transform="matrix(1,0,0,-1,0,595.276)" d="M234.72 396.676 237.72 393.796 237.84 393.916 234.84 396.796Z" fill-rule="evenodd"/><path transform="matrix(1,0,0,-1,0,595.276)" d="M234.12 395.116 232.8 388.156 233.04 388.036 234.24 394.996Z" fill-rule="evenodd"/><path transform="matrix(1,0,0,-1,0,595.276)" d="M233.88 392.236 238.8 387.316 238.92 387.436 234 392.356Z" fill-rule="evenodd"/><path transform="matrix(1,0,0,-1,0,595.276)" d="M237.96 395.116 239.16 388.156 239.04 388.036 237.72 394.996Z" fill-rule="evenodd"/><path transform="matrix(1,0,0,-1,0,595.276)" d="M239.64 384.556H239.76L240.6 379.876H240.48Z" fill-rule="evenodd"/><path transform="matrix(1,0,0,-1,0,595.276)" d="M233.16 387.676 240 380.836 240.12 380.956 233.28 387.796Z" fill-rule="evenodd"/><path transform="matrix(1,0,0,-1,0,595.276)" d="M232.32 383.116 235.56 379.876 235.68 379.996 232.44 383.236Z" fill-rule="evenodd"/><path transform="matrix(1,0,0,-1,0,595.276)" d="M232.44 384.556H232.2L231.36 379.876H231.6Z" fill-rule="evenodd"/></g></svg>