<?xml version='1.0' encoding='UTF-8'?>
<svg xmlns="http://www.w3.org/2000/svg" xmlns:xlink="http://www.w3.org/1999/xlink" xmlns:inkscape="http://www.inkscape.org/namespaces/inkscape" version="1.1" width="396.600" height="283.500" viewBox="0 0 396.600 283.500"><g transform="scale(10.0) translate(-388.965, -471.945)"><defs><clipPath id="clip_14"><path transform="matrix(1,0,0,-1,0,595.276)" d="M0 .046H841.86V595.276H0Z"/></clipPath></defs><path transform="matrix(.03,0,0,.03,0,0)" stroke-width="5" stroke-linecap="round" stroke-linejoin="round" fill="none" stroke="#000000" d="M13044 15789H14217"/><path transform="matrix(1,0,0,-1,0,595.276)" d="M407.07 97.066 394.56 118.726 399.51 121.606H400.44L395.16 118.546 407.22 97.666 413.88 101.536 402.3 121.606H402.84L404.34 118.966 408.93 121.606H409.86L404.58 118.546 416.64 97.666 423.3 101.536 411.72 121.606H412.23L423.93 101.356 416.46 97.066 414.12 101.116Z" fill-rule="evenodd"/></g></svg>