<?xml version='1.0' encoding='UTF-8'?>
<svg xmlns="http://www.w3.org/2000/svg" xmlns:xlink="http://www.w3.org/1999/xlink" xmlns:inkscape="http://www.inkscape.org/namespaces/inkscape" version="1.1" width="396.600" height="283.500" viewBox="0 0 396.600 283.500"><g transform="scale(10.0) translate(-388.965, -528.645)"><path transform="matrix(1,0,0,-1,0,595.276)" d="M408.72 63.676H410.16L409.08 56.836H409.8L410.88 64.036V64.996H408.72Z" fill-rule="evenodd"/><path transform="matrix(1,0,0,-1,0,595.276)" d="M411.6 61.396H413.4V60.436H411.6Z" fill-rule="evenodd"/><path transform="matrix(1,0,0,-1,0,595.276)" d="M405.36 66.076V66.076C405.48 66.076 405.6 66.076 405.72 65.836 405.84 65.596 405.84 65.356 405.84 65.116V62.716 62.596C405.96 62.596 405.96 62.476 405.96 62.476L405.84 61.876C405.72 61.996 405.6 62.116 405.6 62.236 405.48 62.116 405.48 61.876 405.36 61.876 405.24 61.876 405.12 61.876 405 61.996 404.76 62.236 404.64 62.836 404.76 63.436 404.76 63.676 404.76 63.916 404.88 64.156 405 64.276 405.12 64.276 405.24 64.396 405.36 64.516 405.48 64.516 405.6 64.516V64.996C405.6 65.116 405.48 65.236 405.36 65.236 405.36 65.356 405.24 65.356 405.12 65.236 405 65.236 405 65.236 404.88 65.116V64.996L404.76 65.716 404.88 65.836C404.88 65.956 405 66.076 405.12 66.076 405.12 66.076 405.24 66.076 405.36 66.076ZM405.6 62.956V63.916C405.48 63.796 405.24 63.796 405.12 63.676 405 63.556 405 63.316 405 63.196 405 63.076 405 62.836 405 62.716 405.12 62.596 405.12 62.476 405.24 62.476 405.48 62.476 405.6 62.716 405.6 62.956Z" fill-rule="evenodd"/><path transform="matrix(1,0,0,-1,0,595.276)" stroke-width=".12" stroke-linecap="butt" stroke-miterlimit="10" stroke-linejoin="miter" fill="none" stroke="#000000" d="M407.5 65.5V65.5"/><path transform="matrix(1,0,0,-1,0,595.276)" d="M407.04 65.836C407.04 65.956 407.16 66.076 407.28 66.076 407.28 66.196 407.4 66.076 407.52 66.076 407.64 65.956 407.64 65.836 407.76 65.596 407.76 65.476 407.76 65.236 407.76 64.996V61.876H407.52V64.636C407.52 64.636 407.52 64.756 407.52 64.876 407.52 64.876 407.52 64.996 407.52 65.116 407.4 65.236 407.4 65.236 407.28 65.236L407.16 65.116C407.16 64.876 407.16 64.756 407.16 64.636V61.876H406.92V64.636C406.92 64.636 406.8 64.756 406.8 64.876 406.8 64.876 406.8 64.996 406.8 65.116 406.8 65.236 406.68 65.236 406.68 65.236 406.56 65.236 406.56 65.236 406.44 65.116 406.44 64.996 406.44 64.876 406.44 64.876 406.44 64.756 406.44 64.636 406.44 64.636V61.876H406.2V66.076H406.44V65.836C406.44 65.956 406.44 65.956 406.56 66.076H406.68C406.8 66.076 406.92 65.956 407.04 65.836Z" fill-rule="evenodd"/><path transform="matrix(1,0,0,-1,0,595.276)" d="M406.92 60.436H407.88V59.716H407.4V58.516H408V57.916H407.4V55.756H407.04V57.916H406.44V58.516H407.04V59.716H406.8L406.68 59.236 406.44 59.356 406.68 60.916 407.04 60.796Z" fill-rule="evenodd"/><path transform="matrix(1,0,0,-1,0,595.276)" d="M405.36 60.916V59.116H405.84V58.516H405.36V56.356H406.08V55.756H404.4V56.356H405V60.916Z" fill-rule="evenodd"/><path transform="matrix(1,0,0,-1,0,595.276)" d="M404.88 52.036 405.24 53.356V50.596H405.6V54.676H405.24L404.88 53.356 404.52 54.676H404.16V50.596H404.52V53.356Z" fill-rule="evenodd"/><path transform="matrix(1,0,0,-1,0,595.276)" d="M405.96 54.676H406.44V50.596H405.96Z" fill-rule="evenodd"/><path transform="matrix(1,0,0,-1,0,595.276)" d="M407.4 50.596C407.52 50.596 407.76 50.836 407.88 51.196 408 51.676 408.12 52.156 408.12 52.636 408.12 53.116 408 53.716 407.88 54.076 407.76 54.556 407.52 54.676 407.4 54.676H406.8V50.596H407.4ZM407.4 51.076H407.16V54.196H407.4C407.52 54.196 407.64 54.076 407.64 53.716 407.76 53.476 407.76 52.996 407.76 52.636 407.76 51.796 407.64 51.076 407.4 51.076Z" fill-rule="evenodd"/><path transform="matrix(1,0,0,-1,0,595.276)" d="M408.24 52.876H409.2V52.396H408.24Z" fill-rule="evenodd"/><path transform="matrix(1,0,0,-1,0,595.276)" d="M404.64 45.436H404.28L403.68 48.076V45.436H403.32V49.516H403.68L404.28 46.996V49.516H404.64Z" fill-rule="evenodd"/><path transform="matrix(1,0,0,-1,0,595.276)" d="M405.12 49.516H405.48V45.436H405.12Z" fill-rule="evenodd"/><path transform="matrix(1,0,0,-1,0,595.276)" d="M407.04 48.676C406.92 49.156 406.8 49.516 406.56 49.636 406.56 49.636 406.44 49.636 406.32 49.636 406.2 49.636 406.2 49.516 406.08 49.396 405.84 48.796 405.72 47.476 405.84 46.516 405.96 46.036 406.08 45.676 406.2 45.436 406.32 45.316 406.44 45.316 406.44 45.316 406.56 45.316 406.56 45.316 406.68 45.436V45.556 45.436H407.04V47.596H406.32V46.996H406.68V46.276 46.156 46.036H406.56L406.44 45.916C406.32 45.916 406.2 46.156 406.08 46.636 406.08 47.116 406.08 47.716 406.08 48.076 406.2 48.436 406.2 48.916 406.44 49.036 406.44 49.036 406.56 49.036 406.56 48.916 406.68 48.916 406.68 48.796 406.68 48.796 406.68 48.676 406.68 48.556 406.8 48.556L407.04 48.676Z" fill-rule="evenodd"/><path transform="matrix(1,0,0,-1,0,595.276)" d="M408.36 45.436V47.236H407.76V45.436H407.4V49.516H407.76V47.836H408.36V49.516H408.72V45.436Z" fill-rule="evenodd"/><path transform="matrix(1,0,0,-1,0,595.276)" d="M409.32 48.916H408.84V49.516H410.04V48.916H409.68V45.436H409.32Z" fill-rule="evenodd"/><path transform="matrix(1,0,0,-1,0,595.276)" d="M411.24 48.796H410.52V49.516C410.64 49.636 410.76 49.636 410.76 49.756 410.88 49.756 411 49.876 411 49.876 411.12 49.996 411.12 49.996 411.24 50.236 411.24 50.356 411.24 50.476 411.24 50.716V51.076H411.96V42.916H411.24V48.796Z" fill-rule="evenodd"/><path transform="matrix(1,0,0,-1,0,595.276)" d="M412.44 42.916V44.116C412.8 44.716 413.16 45.436 413.4 46.276 413.64 47.116 413.76 47.956 413.88 48.556 413.88 48.916 413.76 49.276 413.76 49.516 413.64 49.876 413.52 49.996 413.4 49.996 413.16 49.996 412.92 49.396 412.92 48.556V48.076H412.44V48.796C412.44 49.396 412.44 49.996 412.68 50.476 412.92 50.956 413.16 51.196 413.4 51.196 413.88 51.196 414.36 50.116 414.36 48.796 414.36 47.236 414 45.556 413.16 44.116H414.36V42.916H412.44Z" fill-rule="evenodd"/><path transform="matrix(1,0,0,-1,0,595.276)" d="M407.76 43.996H408.36V43.396H406.8V43.996H407.52V44.476H407.76Z" fill-rule="evenodd"/><path transform="matrix(1,0,0,-1,0,595.276)" d="M408 40.516C408 40.396 408.12 40.276 408.24 40.276 408.24 40.156 408.36 40.036 408.36 39.916V39.316C408.24 39.556 408 39.916 407.88 40.276 407.76 40.156 407.76 39.916 407.64 39.796 407.52 39.556 407.52 39.436 407.4 39.316V39.916C407.52 40.156 407.64 40.276 407.76 40.516 407.64 40.876 407.52 41.236 407.52 41.596V41.356H407.28L407.64 43.276H407.76V42.916H408.24C408.36 42.076 408.24 41.356 408 40.516ZM408.12 42.436H407.64C407.64 42.196 407.64 41.836 407.76 41.596 407.76 41.356 407.76 41.116 407.88 40.876 408 41.356 408.12 41.836 408.12 42.436Z" fill-rule="evenodd"/><path transform="matrix(1,0,0,-1,0,595.276)" d="M407.88 41.716H408L407.88 42.196H407.76Z" fill-rule="evenodd"/><path transform="matrix(1,0,0,-1,0,595.276)" d="M407.16 39.316V42.796L407.28 43.276H407.04L406.8 41.356H406.92L407.04 41.596V39.316Z" fill-rule="evenodd"/><path transform="matrix(1,0,0,-1,0,595.276)" d="M405.36 43.876H406.32V43.276H405.72V42.076H406.44V41.476H405.72V39.316H405.48V41.476H404.76V42.076H405.48V43.276H405.24L405.12 42.796 404.76 42.916 405.12 44.476 405.36 44.356Z" fill-rule="evenodd"/></g></svg>