<?xml version='1.0' encoding='UTF-8'?>
<svg xmlns="http://www.w3.org/2000/svg" xmlns:xlink="http://www.w3.org/1999/xlink" xmlns:inkscape="http://www.inkscape.org/namespaces/inkscape" version="1.1" width="396.600" height="283.500" viewBox="0 0 396.600 283.500"><g fill="#ffffff" transform="scale(10.0) translate(-216.075, -216.795)"><path transform="matrix(1,0,0,-1,0,595.276)" stroke-width=".12" stroke-linecap="butt" stroke-miterlimit="10" stroke-linejoin="miter" fill="none" stroke="#ffffff" d="M236.5 376.5V376.5"/><path transform="matrix(1,0,0,-1,0,595.276)" stroke-width=".12" stroke-linecap="butt" stroke-miterlimit="10" stroke-linejoin="miter" fill="none" stroke="#ffffff" d="M235.5 376.5V376.5"/><path transform="matrix(1,0,0,-1,0,595.276)" d="M237.12 370.156 236.04 376.156H235.92L234.84 370.156 234.72 370.276 235.92 377.236H236.16L237.36 370.276Z" fill-rule="evenodd"/><path transform="matrix(1,0,0,-1,0,595.276)" d="M235.56 372.916 236.52 371.836 236.64 371.956 235.68 373.036Z" fill-rule="evenodd"/><path transform="matrix(1,0,0,-1,0,595.276)" d="M235.2 370.876 237 369.076 237.12 369.196 235.32 370.996Z" fill-rule="evenodd"/><path transform="matrix(1,0,0,-1,0,595.276)" d="M234.84 368.836 237.6 366.196 237.72 366.316 234.96 368.956Z" fill-rule="evenodd"/><path transform="matrix(1,0,0,-1,0,595.276)" d="M234.48 366.916 238.08 363.316 238.2 363.436 234.6 367.036Z" fill-rule="evenodd"/><path transform="matrix(1,0,0,-1,0,595.276)" d="M234.12 366.796 232.8 359.716H233.04L234.24 366.676Z" fill-rule="evenodd"/><path transform="matrix(1,0,0,-1,0,595.276)" d="M234.12 364.876 238.56 360.436 238.68 360.556 234.24 364.996Z" fill-rule="evenodd"/><path transform="matrix(1,0,0,-1,0,595.276)" d="M233.76 362.836 239.04 357.556 239.16 357.676 233.88 362.956Z" fill-rule="evenodd"/><path transform="matrix(1,0,0,-1,0,595.276)" d="M233.4 360.796 239.52 354.676 239.64 354.796 233.52 361.036Z" fill-rule="evenodd"/><path transform="matrix(1,0,0,-1,0,595.276)" d="M233.04 358.876 240.12 351.796 240.24 351.916 233.16 358.996Z" fill-rule="evenodd"/><path transform="matrix(1,0,0,-1,0,595.276)" d="M232.68 356.836 237.96 351.556 238.08 351.676 232.8 356.956Z" fill-rule="evenodd"/><path transform="matrix(1,0,0,-1,0,595.276)" d="M232.44 356.236H232.2L231.36 351.556H231.6Z" fill-rule="evenodd"/><path transform="matrix(1,0,0,-1,0,595.276)" d="M231.96 352.876 233.28 351.556 233.4 351.676 232.08 352.996Z" fill-rule="evenodd"/><path transform="matrix(1,0,0,-1,0,595.276)" d="M232.32 354.796 235.56 351.556 235.68 351.676 232.44 354.916Z" fill-rule="evenodd"/><path transform="matrix(1,0,0,-1,0,595.276)" d="M239.64 356.236H239.76L240.6 351.556H240.48Z" fill-rule="evenodd"/><path transform="matrix(1,0,0,-1,0,595.276)" d="M237.96 366.796 239.16 359.716H239.04L237.72 366.676Z" fill-rule="evenodd"/></g></svg>