<?xml version='1.0' encoding='UTF-8'?>
<svg xmlns="http://www.w3.org/2000/svg" xmlns:xlink="http://www.w3.org/1999/xlink" xmlns:inkscape="http://www.inkscape.org/namespaces/inkscape" version="1.1" width="567.000" height="269.280" viewBox="0 0 567.000 269.280"><g transform="scale(10.0) translate(-220.305, -531.936)"><defs><clipPath id="clip_19"><path transform="matrix(0,1,1,0,0,0)" d="M0 74.451H595.008V767.55899H0Z"/></clipPath><clipPath id="clip_20"><path transform="matrix(0,1,1,0,0,0)" d="M0 842.013H595.224V.008972168H0Z"/></clipPath></defs><path transform="matrix(0,1,1,0,261.291,545.526)" d="M0 0C-1.638 0-3.258-.324-4.788-.954-6.3-1.566-7.668-2.502-8.838-3.654-9.99-4.824-10.926-6.192-11.556-7.722-12.168-9.234-12.492-10.854-12.492-12.492-12.492-14.148-12.168-15.768-11.556-17.28-10.926-18.81-9.99-20.178-8.838-21.348-7.668-22.5-6.3-23.418-4.788-24.048-3.258-24.678-1.638-25.002 0-25.002 1.656-25.002 3.276-24.678 4.788-24.048 6.3-23.418 7.686-22.5 8.856-21.348 10.008-20.178 10.926-18.81 11.556-17.28 12.186-15.768 12.51-14.148 12.51-12.492 12.51-10.854 12.186-9.234 11.556-7.722 10.926-6.192 10.008-4.824 8.856-3.654 7.686-2.502 6.3-1.566 4.788-.954 3.276-.324 1.638 0 0 0" fill="#ff0000" fill-rule="evenodd"/><path transform="matrix(0,1,1,0,258.789,545.526)" d="M0 0C-1.314 0-2.61-.252-3.816-.756-5.04-1.26-6.138-1.998-7.074-2.916-7.992-3.852-8.73-4.95-9.234-6.174-9.738-7.38-10.008-8.676-10.008-9.99-10.008-11.304-9.738-12.618-9.234-13.824-8.73-15.03-7.992-16.146-7.074-17.064-6.138-18-5.04-18.738-3.816-19.242-2.61-19.746-1.314-19.998 0-19.998 1.314-19.998 2.628-19.746 3.834-19.242 5.04-18.738 6.156-18 7.074-17.064 8.01-16.146 8.748-15.03 9.252-13.824 9.756-12.618 10.008-11.304 10.008-9.99 10.008-8.676 9.756-7.38 9.252-6.174 8.748-4.95 8.01-3.852 7.074-2.916 6.156-1.998 5.04-1.26 3.834-.756 2.628-.252 1.314 0 0 0" fill="#ffffff" fill-rule="evenodd"/><path transform="matrix(0,1,1,0,243.309,546.858)" d="M0 0V1.35H.756V-1.44H0C-1.062 .198-1.44 .54-1.782 .612H-1.926C-2.232 .558-2.412 .36-2.43 .036-2.43-.198-2.376-.396-2.25-.504-2.106-.63-1.926-.702-1.674-.702V-1.53C-2.718-1.53-3.276-.99-3.276 .036-3.276 .936-2.808 1.44-1.926 1.494H-1.8C-1.152 1.422-.558 .918 0 0" fill-rule="evenodd"/><path transform="matrix(0,1,1,0,246.297,547.29)" d="M0 0C-.234 0-.432-.18-.432-.414-.432-.63-.234-.828 0-.828 .216-.828 .414-.63 .414-.414 .414-.18 .216 0 0 0" fill-rule="evenodd"/><path transform="matrix(0,1,1,0,248.493,547.758)" d="M0 0C0 .954-.432 1.458-1.224 1.458-1.656 1.458-1.98 1.332-2.142 1.08-2.358 1.296-2.646 1.404-2.952 1.404-3.33 1.404-3.636 1.278-3.852 1.026-4.068 .756-4.176 .378-4.176-.072-4.176-.288-4.14-.486-4.086-.666-4.032-.864-3.942-1.026-3.834-1.17-3.708-1.296-3.582-1.404-3.42-1.476-3.258-1.548-3.096-1.584-2.916-1.584L-2.844-.756C-3.15-.756-3.366-.504-3.402-.108-3.42-.036-3.402 .036-3.402 .09-3.33 .414-3.168 .576-2.934 .576-2.718 .558-2.574 .45-2.502 .252V-.306H-1.782V.252C-1.782 .27-1.782 .324-1.764 .36-1.728 .396-1.71 .45-1.656 .486-1.566 .576-1.458 .594-1.386 .594-1.044 .612-.846 .414-.828 .018-.828-.216-.864-.414-.972-.54-1.08-.684-1.224-.756-1.386-.756L-1.278-1.602C-.882-1.602-.558-1.44-.342-1.17-.126-.882 0-.486 0 0" fill-rule="evenodd"/><path transform="matrix(0,1,1,0,254.343,545.472)" d="M0 0C0-.09 .036-.216 .108-.324 .198-.432 .288-.486 .378-.486H2.142V-1.26H.216C.09-1.278 0-1.44 0-1.638 0-1.746 .036-1.872 .108-1.962 .198-2.07 .306-2.124 .378-2.124H2.142V-2.898H-.684V-2.142H-.54C-.612-2.052-.684-1.944-.72-1.836-.756-1.728-.774-1.602-.774-1.476-.774-1.116-.648-.864-.396-.738-.648-.54-.774-.27-.774 .054-.756 .576-.54 .936-.108 1.098-.072 1.098-.054 1.116-.036 1.116-.018 1.116-.018 1.116 0 1.134 .018 1.134 .018 1.134 .036 1.134 .054 1.134 .09 1.134 .108 1.134H2.142V.378H.234C.18 .378 .108 .342 .072 .27 .018 .198 0 .108 0 0" fill-rule="evenodd"/><path transform="matrix(0,1,1,0,255.945,545.526)" d="M0 0-2.088 2.088H2.088" fill-rule="evenodd"/><path transform="matrix(0,1,1,0,239.547,547.614)" d="M0 0-2.088 2.088-4.176 0" fill-rule="evenodd"/></g></svg>