<?xml version='1.0' encoding='UTF-8'?>
<svg xmlns="http://www.w3.org/2000/svg" xmlns:xlink="http://www.w3.org/1999/xlink" xmlns:inkscape="http://www.inkscape.org/namespaces/inkscape" version="1.1" width="567.000" height="269.280" viewBox="0 0 567.000 269.280"><g transform="scale(10.0) translate(-547.707, -262.656)"><defs><clipPath id="clip_19"><path transform="matrix(0,1,1,0,0,0)" d="M0 74.451H595.008V767.55899H0Z"/></clipPath><clipPath id="clip_20"><path transform="matrix(0,1,1,0,0,0)" d="M0 842.013H595.224V.008972168H0Z"/></clipPath></defs><path transform="matrix(0,1,1,0,595.857,264.33)" d="M0 0V-39.348C0-39.492 .054-39.654 .18-39.762 .234-39.834 .306-39.87 .378-39.906 .45-39.924 .522-39.942 .594-39.942H12.348C12.492-39.942 12.654-39.888 12.762-39.762 12.87-39.654 12.924-39.51 12.924-39.348V0C12.924 .126 12.87 .288 12.762 .396 12.636 .522 12.492 .576 12.348 .576H.594C.45 .576 .288 .522 .18 .396 .126 .342 .072 .288 .036 .216 .018 .126 0 .054 0 0" fill="#ffff00" fill-rule="evenodd"/><path transform="matrix(0,1,1,0,556.509,277.848)" d="M0 0V19.674H10.332V0C10.332-.144 10.278-.306 10.152-.414 10.044-.54 9.882-.594 9.738-.594H.576C.414-.594 .27-.54 .162-.414 .054-.306 0-.162 0 0" fill="#ffffff" fill-rule="evenodd"/><path transform="matrix(0,1,1,0,595.857,277.848)" d="M0 0V-19.674H10.332V0C10.332 .126 10.278 .288 10.152 .396 10.044 .522 9.882 .576 9.738 .576H.576C.432 .576 .288 .522 .162 .396 .036 .288 0 .126 0 0" fill-rule="evenodd"/><path transform="matrix(0,1,1,0,582.447,270.81)" d="M0 0C-.81 0-1.62-.162-2.394-.468-3.15-.792-3.834-1.242-4.41-1.818-4.986-2.412-5.454-3.096-5.778-3.852-6.084-4.608-6.246-5.418-6.246-6.246-6.246-7.074-6.084-7.884-5.778-8.64-5.454-9.396-4.986-10.08-4.41-10.674-3.834-11.25-3.15-11.718-2.394-12.024-1.62-12.33-.81-12.492 0-12.492 .828-12.492 1.638-12.33 2.394-12.024 3.15-11.718 3.852-11.25 4.428-10.674 5.004-10.08 5.472-9.396 5.778-8.64 6.102-7.884 6.264-7.074 6.264-6.246 6.264-5.418 6.102-4.608 5.778-3.852 5.472-3.096 5.004-2.412 4.428-1.818 3.852-1.242 3.15-.792 2.394-.468 1.638-.162 .828 0 0 0" fill-rule="evenodd"/><path transform="matrix(0,1,1,0,579.153,266.778)" d="M0 0C-.288-.396-.54-.864-.72-1.368-.9-1.872-.99-2.43-.99-2.97-.99-3.528-.9-4.086-.72-4.59-.54-5.094-.288-5.562 0-5.958L2.988-2.97 0 0" fill="#e1e1e1" fill-rule="evenodd"/><path transform="matrix(0,1,1,0,577.209,270.792)" d="M0 0-2.988 2.988C-2.574 3.276-2.124 3.528-1.602 3.708-1.098 3.87-.558 3.96 0 3.96 .558 3.96 1.098 3.87 1.62 3.708 2.124 3.528 2.592 3.276 2.988 2.988L0 0" fill="#e1e1e1" fill-rule="evenodd"/><path transform="matrix(0,1,1,0,579.153,274.806)" d="M0 0-2.988-2.97 0-5.958C.306-5.562 .558-5.094 .72-4.59 .9-4.086 .99-3.528 .99-2.97 .99-2.43 .9-1.872 .72-1.368 .558-.864 .306-.396 0 0" fill="#e1e1e1" fill-rule="evenodd"/><path transform="matrix(0,1,1,0,572.151,273.78)" d="M0 0-2.988 2.988-5.976 0C-5.562-.288-5.112-.54-4.59-.72-4.086-.882-3.546-.972-2.988-.972-2.43-.972-1.89-.882-1.368-.72-.864-.54-.396-.288 0 0" fill="#e1e1e1" fill-rule="evenodd"/><path transform="matrix(0,1,1,0,596.433,278.424)" stroke-width=".288" stroke-linecap="round" stroke-linejoin="round" fill="none" stroke="#000000" d="M0 0C-.324 0-.576-.27-.576-.576"/><path transform="matrix(0,1,1,0,596.433,287.586)" stroke-width=".288" stroke-linecap="round" stroke-linejoin="round" fill="none" stroke="#000000" d="M0 0H-9.162"/><path transform="matrix(0,1,1,0,595.857,288.18)" stroke-width=".288" stroke-linecap="round" stroke-linejoin="round" fill="none" stroke="#000000" d="M0 0C0 .306-.27 .576-.594 .576"/><path transform="matrix(0,1,1,0,555.339,264.924)" d="M0 0H22.662C22.806 0 22.95 .018 23.094 .072 23.238 .126 23.382 .216 23.49 .342 23.616 .45 23.688 .594 23.76 .738 23.814 .882 23.832 1.026 23.832 1.17V40.518C23.832 40.644 23.814 40.788 23.76 40.932 23.688 41.094 23.616 41.22 23.49 41.328 23.382 41.454 23.238 41.544 23.094 41.598 22.95 41.652 22.806 41.67 22.662 41.67H0C-.324 41.67-.612 41.562-.828 41.328-1.044 41.112-1.17 40.824-1.17 40.518V1.17C-1.17 .846-1.044 .558-.828 .342-.612 .108-.324 0 0 0ZM12.924 40.518C12.924 40.572 12.924 40.644 12.96 40.734 12.978 40.806 13.032 40.86 13.086 40.914 13.212 41.04 13.356 41.094 13.5 41.094H22.662C22.734 41.094 22.806 41.076 22.878 41.058 22.95 41.022 23.022 40.986 23.076 40.914 23.202 40.806 23.256 40.644 23.256 40.518V1.17C23.256 1.008 23.184 .864 23.076 .756 22.968 .63 22.824 .576 22.662 .576H13.5C13.356 .576 13.212 .63 13.086 .756 12.96 .864 12.924 1.026 12.924 1.17V40.518ZM-.594 40.518C-.594 40.572-.576 40.644-.558 40.734-.522 40.806-.486 40.86-.414 40.914-.306 41.04-.144 41.094 0 41.094H11.754C11.826 41.094 11.898 41.076 11.97 41.058 12.042 41.022 12.096 40.986 12.168 40.914 12.276 40.806 12.33 40.644 12.33 40.518V1.17C12.33 1.026 12.276 .864 12.168 .756 12.042 .63 11.898 .576 11.754 .576H0C-.072 .576-.144 .594-.216 .612-.288 .648-.36 .684-.414 .756-.54 .864-.594 1.026-.594 1.17V40.518" fill-rule="evenodd"/><path transform="matrix(0,1,1,0,562.593,286.47)" d="M0 0H.846V.918H.954V-.882H.846V-.126H-.846L-.828-.054V0L-.81 .036H-.792L-.774 0H-.09V.756H0" fill-rule="evenodd"/><path transform="matrix(0,1,1,0,564.159,286.362)" d="M0 0-.198 .144-.378 .252V.738H.234V-.162H.342V.738H1.116V.864H.342V1.656H.234V.864H-.378V1.494H-.486V.324L-.666 .414-.684 .45-.702 .468-.72 .432-.756 .378-.792 .306-.414 .126-.072-.09" fill-rule="evenodd"/><path transform="matrix(0,1,1,0,567.165,286.506)" d="M0 0V-.828H-.108V0H-.9L-.864 .144V.18H-.846L-.828 .162-.81 .126H-.108V.99H0V.126H.99V0" fill-rule="evenodd"/><path transform="matrix(0,1,1,0,565.095,284.76)" d="M0 0V1.908H-.108V1.026H-.522V1.728H-.648V1.026H-.846L-.882 1.08-.918 1.098-.936 1.08V1.026L-.954 .9H-.648V.162H-.522V.9H-.108V0" fill-rule="evenodd"/><path transform="matrix(0,1,1,0,566.715,283.608)" d="M0 0 .234 .09 .198 .234-.126 .054-.414-.162-.342-.27-.09-.072 0-1.08-.486-.72V.216H-.612V-1.566H-.486V-.864L0-1.224 .036-1.53 .108-1.494 .162-1.458 .198-1.44V-1.422L.162-1.404" fill-rule="evenodd"/><path transform="matrix(0,1,1,0,564.861,281.322)" d="M0 0H.774V.144H0V.936H-.108V.144H-.72V.774H-.828V-.396L-1.008-.306-1.026-.27H-1.044L-1.062-.288-1.098-.342-1.134-.414-.756-.594-.432-.81-.342-.72-.54-.576-.72-.468V0H-.108V-.882H0" fill-rule="evenodd"/><path transform="matrix(0,1,1,0,561.693,282.042)" d="M0 0V1.8H-.108V.882H-.954V1.638H-1.062V.882H-1.728L-1.746 .918H-1.764L-1.782 .882V.828L-1.8 .738H-.108V0" fill-rule="evenodd"/><path transform="matrix(0,1,1,0,569.487,281.7)" d="M0 0 .126 .162 .018 .234-.108 .072-.198-.09-.09-.162" fill-rule="evenodd"/><path transform="matrix(0,1,1,0,569.793,282.078)" d="M0 0V.216L-.018 .252-.054 .288-.09 .306H-.648L-.666 .324V.54H-.756L-.774 .522V.306H-.918L-.936 .324H-.954L-.972 .306V.234L-.99 .198-.972 .18H-.774V-.468L-.756-.486H-.666V.162L-.648 .18H-.198L-.144 .162-.126 .126V-.036L-.108-.072H-.09L-.018-.054 0-.036" fill-rule="evenodd"/><path transform="matrix(0,1,1,0,569.901,280.926)" d="M0 0V.468L.018 .486H.09L.108 .468V-.648L.09-.666H.018L0-.648V-.162H-.36V-.54L-.378-.558H-.45V-.54L-.468-.504V-.162H-.702L-.72-.144-.702-.054V-.018L-.684 0H-.666L-.63-.018H-.468V.36H-.36V0L-.342-.018H-.018" fill-rule="evenodd"/><path transform="matrix(0,1,1,0,569.919,286.308)" d="M0 0V.468L.018 .504H.09L.108 .468V-.63L.09-.648H.018L0-.63V-.162H-.36V-.558H-.45V-.162H-.702L-.72-.126-.702-.054V-.018L-.684 0H-.666L-.63-.018H-.468L-.45 0V.36H-.36V0L-.342-.018H0" fill-rule="evenodd"/><path transform="matrix(0,1,1,0,570.135,286.794)" d="M0 0V.234H-.09V0L-.108-.018H-.234L-.27 .018-.288 0-.306-.018V-.144H-.108L-.09-.162V-.81H0V-.162L.018-.144H.486L.522-.162 .558-.198V-.378H.648L.666-.342C.664-.226 .72 .015 .522-.018H.018" fill-rule="evenodd"/><path transform="matrix(0,1,1,0,569.523,287.082)" d="M0 0 .126 .144 .018 .216-.09 .072-.198-.108-.09-.18" fill-rule="evenodd"/><path transform="matrix(0,1,1,0,569.001,281.592)" d="M0 0 .018 .018H.108V.144H-1.188V-.414H.27V-.306L.252-.288H.018L0-.27V0ZM-.558-.27V0L-.54 .018H-.126L-.108 0V-.27L-.126-.288H-.54L-.558-.27ZM-1.08 .018H-.684L-.666 0V-.27L-.684-.288H-1.08V.018" fill-rule="evenodd"/><path transform="matrix(0,1,1,0,569.055,286.992)" d="M0 0H.108V.108L.09 .126H-1.188L-1.206 .108V-.432L-1.188-.45H.234L.252-.432V-.342L.234-.324H0L-.018-.306V-.018L0 0ZM-.576-.306V-.018L-.558 0H-.144L-.126-.018V-.306L-.144-.324H-.558L-.576-.306ZM-.684-.306V-.324H-1.098V0H-.684V-.306" fill-rule="evenodd"/><path transform="matrix(0,1,1,0,567.057,282.042)" d="M0 0V.63L-.018 .756-.09 .846-.18 .936-.288 1.008-.414 1.044-.45 1.026-.486 .936H-.468L-.252 .846-.162 .756-.108 .666V.162L-.126 .018-.162-.036H-1.008L-1.152 1.044-1.278 1.026-1.134-.036H-1.71L-1.728 0H-1.764L-1.782-.054-1.8-.162H-1.116L-1.026-.792-.9-.774-.99-.162H-.162L-.09-.144-.054-.108-.018-.054" fill-rule="evenodd"/><path transform="matrix(0,1,1,0,562.107,278.46)" d="M0 0V-.378H-.162V.18H0L.018 .162 .054 .144H.072L.108 .126 .126 .108 .162 .09 .216 .054H.234L.252 .036 .288 .018H.306L.342 0 .378-.018H.414L.45-.036 .504-.054H.522L.594-.072H.612L.648-.09H.72L.774-.108H.9V-.288H.864C.575-.266 .299-.18 .054-.036L.036-.018" fill-rule="evenodd"/><path transform="matrix(0,1,1,0,0,0)" d="M278.766 565.383H278.874V565.74307H278.766Z"/><path transform="matrix(0,1,1,0,566.373,279.342)" d="M0 0V-.18H-.738V-.414H-.864V-.342L-.9-.27-.918-.234-.954-.216-.99-.198-1.044-.162V0H0" fill-rule="evenodd"/><path transform="matrix(0,1,1,0,563.619,279.342)" d="M0 0V-.18L-.09-.198-.054-.216 0-.27 .018-.306V-.432L0-.468-.054-.522-.072-.54-.09-.558-.162-.594H-.306L-.342-.558-.378-.54-.414-.504-.432-.486-.45-.45V-.414L-.468-.396V-.36L-.486-.324V-.216H-.504L-.54-.198H-.558L-.594-.216-.612-.234-.63-.252V-.342L-.612-.378-.594-.396H-.576L-.54-.414V-.558H-.576L-.63-.54C-.743-.493-.833-.335-.774-.216V-.18L-.72-.126-.702-.108-.684-.09-.648-.072-.63-.054-.594-.036H-.036L0 0ZM-.378-.216-.342-.36-.324-.378V-.396L-.288-.414H-.27L-.234-.432-.198-.414H-.18L-.162-.396V-.378L-.144-.36V-.306L-.162-.27-.18-.234-.216-.216-.234-.198H-.396-.378V-.216" fill-rule="evenodd"/><path transform="matrix(0,1,1,0,566.787,278.928)" d="M0 0H.072L.108 .018H.144L.198 .054 .234 .072 .252 .09 .324 .126 .378 .18 .396 .216 .414 .234V.252L.432 .288C.448 .424 .387 .526 .27 .594L.252 .612 .234 .63H.198L.162 .648 .144 .666H.09L.054 .684H.036L-.018 .702H-.216L-.27 .684H-.288L-.306 .666H-.36L-.378 .648H-.414L-.432 .63-.468 .612H-.486L-.504 .594-.522 .576H-.54L-.576 .54V.522H-.594V.504L-.612 .486V.468H-.63V.45L-.648 .432V.396L-.666 .36V.324L-.648 .288V.252L-.63 .234V.216H-.612V.198L-.594 .18C-.482 .052-.488 .107-.414 .036H-.396L-.36 .018H-.306L-.288 0H-.216L-.162-.018H-.054L-.018 0H0ZM-.216 .18H-.27L-.306 .198-.342 .216H-.36L-.378 .234H-.396L-.432 .252-.468 .288V.306L-.486 .342-.468 .36V.396H-.45L-.432 .432H-.396L-.378 .45-.36 .468H-.324L-.288 .486H-.27L-.216 .504H-.018L.036 .486 .072 .468H.126L.162 .45 .198 .432 .216 .396 .234 .378 .252 .342V.324L.234 .306V.288L.198 .252 .162 .234H.144L.108 .216C-.021 .165 .085 .182-.09 .18H-.216" fill-rule="evenodd"/><path transform="matrix(0,1,1,0,568.911,279.342)" d="M0 0V-.18L-.09-.198-.054-.216-.036-.234 0-.27 .018-.306V-.432L0-.468-.018-.486-.054-.504-.072-.54-.09-.558-.126-.576H-.162L-.18-.594H-.216C-.429-.577-.465-.448-.486-.27V-.216H-.504L-.54-.198H-.558L-.594-.216-.612-.234-.63-.252V-.342L-.612-.36-.594-.396H-.576L-.54-.414V-.558H-.576L-.63-.54-.666-.504-.702-.486-.738-.468-.756-.414-.774-.378-.792-.324V-.234L-.774-.216V-.18L-.72-.126-.702-.108-.684-.09-.648-.072-.63-.054-.594-.036H-.072L-.036-.018H-.018L0 0ZM-.27-.198H-.396-.378V-.216L-.342-.36-.324-.378V-.396L-.288-.414H-.27L-.234-.432-.198-.414H-.18L-.162-.396V-.378L-.144-.36V-.288L-.162-.27-.18-.234-.216-.216-.234-.198H-.27" fill-rule="evenodd"/><path transform="matrix(0,1,1,0,569.325,279.342)" d="M0 0V.18H-.486L-.522 .198H-.558L-.576 .216-.612 .252H-.63V.324H-.612L-.576 .36-.54 .378H-.522L-.468 .396H0V.576L-.486 .558-.522 .576H-.558L-.576 .594-.612 .612-.63 .63V.684L-.612 .702-.576 .738-.54 .756H0V.936H-.612L-.63 .918-.684 .9H-.72L-.792 .828V.81L-.81 .792V.666L-.792 .63V.612L-.774 .594-.666 .54-.72 .522-.738 .504-.792 .45-.81 .414V.36C-.818 .252-.798 .308-.792 .234L-.774 .216-.72 .18-.792 .162V0" fill-rule="evenodd"/><path transform="matrix(0,1,1,0,564.969,278.856)" d="M0 0H.486V-.18H-.054L-.09-.198-.126-.234-.144-.252V-.288C-.145-.342-.062-.345-.036-.378H.486V-.54H.018L-.036-.558H-.054L-.09-.576-.126-.612H-.144V-.684H-.126L-.09-.72-.072-.738H-.036L0-.756H.486V-.936H-.306V-.774L-.234-.756-.288-.72-.306-.702C-.312-.628-.332-.684-.324-.576V-.522C-.277-.479-.346-.515-.252-.432L-.234-.414-.18-.396-.234-.378H-.252V-.36H-.27V-.342H-.288L-.306-.324V-.306L-.324-.27V-.144L-.306-.126V-.108L-.234-.036H-.198L-.144-.018H-.126L-.072 0H-.054" fill-rule="evenodd"/><path transform="matrix(0,1,1,0,590.061,282.078)" d="M0 0V.198L-.018 .234-.054 .27-.09 .288H-.648L-.666 .306V.54H-.756L-.774 .522V.288H-.918L-.936 .324H-.954L-.972 .288V.234L-.99 .18-.972 .162H-.774V-.486L-.756-.504H-.666V.144L-.648 .162H-.198L-.144 .144-.126 .108V-.054L-.108-.072H-.09L-.018-.054 0-.036" fill="#ffffff" fill-rule="evenodd"/><path transform="matrix(0,1,1,0,589.755,281.7)" d="M0 0 .126 .144 .018 .216-.108 .072-.198-.09-.09-.18" fill="#ffffff" fill-rule="evenodd"/><path transform="matrix(0,1,1,0,585.129,281.322)" d="M0 0H.774V.126H0V.918H-.108V.126H-.72V.756H-.828V-.414L-1.008-.324-1.026-.288-1.044-.27-1.062-.306-1.098-.36-1.134-.432-.756-.612-.432-.828-.342-.738-.54-.594-.72-.468V0H-.108V-.882H0" fill="#ffffff" fill-rule="evenodd"/><path transform="matrix(0,1,1,0,582.771,280.368)" d="M0 0H1.638V.126H.558L.756 .414 .936 .684 .846 .774 .63 .468 .432 .126H0V.99H-.108V-.828H0" fill="#ffffff" fill-rule="evenodd"/><path transform="matrix(0,1,1,0,590.151,280.926)" d="M0 0V.468L.018 .504H.09L.108 .468V-.63L.09-.648H.018L0-.63V-.162L-.018-.144H-.342L-.36-.162V-.54L-.378-.558H-.45V-.54L-.468-.486V-.144H-.702L-.72-.126-.702-.054V-.018L-.684 .018-.666 0-.63-.018H-.468V.36L-.45 .378H-.378L-.36 .36V0L-.342-.018H-.018" fill="#ffffff" fill-rule="evenodd"/><path transform="matrix(0,1,1,0,586.965,283.608)" d="M0 0 .234 .108 .198 .234-.126 .054-.414-.162-.342-.252-.09-.072 0-1.062-.486-.72V.234H-.612V-1.548H-.486V-.864L0-1.206 .036-1.512 .108-1.494 .162-1.458 .198-1.44V-1.404H.162" fill="#ffffff" fill-rule="evenodd"/><path transform="matrix(0,1,1,0,585.345,284.76)" d="M0 0V1.908H-.108V1.026H-.522V1.746H-.648V1.026H-.846L-.882 1.08-.918 1.098-.936 1.08V1.026L-.954 .9H-.648V.18H-.522V.9H-.108V0" fill="#ffffff" fill-rule="evenodd"/><path transform="matrix(0,1,1,0,584.265,286.596)" d="M0 0V.882H-.612V.414L-.432 .288-.234 .162-.306 .054-.648 .27-1.026 .45-.99 .54-.954 .594-.936 .612H-.918L-.9 .558-.72 .468V1.638H-.612V1.008H0V1.8H.108V1.008H.882V.882H.108V0" fill="#ffffff" fill-rule="evenodd"/><path transform="matrix(0,1,1,0,582.771,287.388)" d="M0 0H-1.656V-.828H-1.746V.99H-1.656V.126H-1.224L-1.026 .468-.81 .774-.72 .684-.9 .414-1.08 .126H0" fill="#ffffff" fill-rule="evenodd"/><path transform="matrix(0,1,1,0,588.009,287.424)" d="M0 0-.018 .108-.072 .216-.162 .288-.288 .36-.414 .396-.432 .378-.468 .288H-.45L-.234 .198-.144 .108-.09 .018V-.486L-.108-.612-.162-.666H-.99L-1.134 .396-1.26 .378-1.116-.666H-1.692L-1.71-.648-1.728-.63-1.746-.648-1.764-.702-1.782-.792H-1.098L-1.008-1.44-.882-1.422-.972-.792H-.072L-.036-.756 0-.702V-.648" fill="#ffffff" fill-rule="evenodd"/><path transform="matrix(0,1,1,0,589.773,287.082)" d="M0 0 .126 .144 .018 .216-.09 .072-.198-.09-.09-.162" fill="#ffffff" fill-rule="evenodd"/><path transform="matrix(0,1,1,0,590.241,287.316)" d="M0 0 .036-.036V-.234H.054L.126-.216 .144-.198V.054L.126 .09 .108 .108 0 .144H-.522V.378H-.612V.144H-.756L-.792 .162H-.81L-.828 .126V0H-.63L-.612-.018V-.666H-.522V-.018L-.504 0H-.036" fill="#ffffff" fill-rule="evenodd"/><path transform="matrix(0,1,1,0,589.539,286.416)" d="M0 0V1.116L-.018 1.134H-.09L-.108 1.116V.612H-.45L-.468 .63V1.008H-.558V.63L-.576 .612H-.738L-.774 .648H-.792L-.81 .63V.576L-.828 .504-.81 .486H-.576L-.558 .468V.09H-.468V.468L-.45 .486H-.108V0L-.09-.018H-.018" fill="#ffffff" fill-rule="evenodd"/><path transform="matrix(0,1,1,0,588.135,281.898)" d="M0 0H.162V.144H-1.566V-1.494H.162V-1.368H0V0ZM-1.458-.558H-.468L-.414-.54-.396-.522-.378-.486V-.198L-.396-.144-.468-.09-.558-.054-.702-.018-.72-.036-.774-.126-.756-.162-.558-.198-.468-.252V-.414L-.504-.432H-1.458V0H-.108V-1.368H-1.458V-.936L-1.26-.954C-1.029-.97-.634-1.042-.486-1.242L-.414-1.332-.324-1.26-.396-1.152C-.611-.909-.951-.849-1.26-.828L-1.458-.81V-.558" fill="#ffffff" fill-rule="evenodd"/><path transform="matrix(0,1,1,0,588.855,285.804)" d="M0 0-.018 .018V.558L0 .576H1.278L1.296 .558V.468L1.278 .45H1.188L1.17 .432V.144L1.188 .126H1.44V.018L1.422 0H0ZM.63 .126H1.044L1.062 .144V.432L1.044 .45H.63L.612 .432V.144L.63 .126ZM.504 .45H.09V.12603H.504Z" fill="#ffffff" fill-rule="evenodd"/><path transform="matrix(0,1,1,0,588.837,280.404)" d="M0 0H1.44L1.458 .018V.108L1.44 .126H1.206L1.188 .144V.432L1.206 .45H1.296V.576H0V0ZM1.062 .45 1.08 .432V.144L1.062 .126H.648L.63 .144V.432L.648 .45H1.062ZM.522 .144 .504 .126H.108V.45H.504L.522 .432V.144" fill="#ffffff" fill-rule="evenodd"/><path transform="matrix(0,1,1,0,589.287,279.342)" d="M0 0V.198H-.468C-.528 .189-.574 .208-.612 .252L-.63 .27V.324L-.612 .342-.54 .378H-.522L-.468 .396H0V.576L-.486 .558-.522 .576H-.558L-.576 .594-.612 .63H-.63V.702H-.612L-.576 .738-.54 .756H-.522L-.468 .774H0V.936H-.612L-.63 .918H-.684L-.72 .9-.774 .846-.792 .828-.81 .792V.666L-.792 .63V.612L-.774 .594-.666 .54-.72 .522-.792 .45-.81 .432V.36C-.818 .252-.799 .308-.792 .234L-.774 .216-.72 .18-.792 .162V0" fill="#ffffff" fill-rule="evenodd"/><path transform="matrix(0,1,1,0,584.949,279.342)" d="M0 0V.198H-.468C-.528 .189-.573 .208-.612 .252L-.63 .27V.288C-.642 .371-.527 .397-.468 .396H0V.576L-.486 .558-.522 .576H-.54L-.558 .594H-.576L-.612 .63H-.63V.702H-.612L-.576 .738-.54 .756H-.522L-.468 .774H0V.954L-.486 .936H-.54C-.624 .943-.699 .933-.756 .864L-.774 .846-.792 .828-.81 .81V.666L-.792 .63V.612L-.774 .594-.666 .54-.72 .522H-.738L-.756 .486-.774 .468H-.792V.45L-.81 .432V.306L-.792 .252-.774 .234-.72 .18H-.792V0" fill="#ffffff" fill-rule="evenodd"/><path transform="matrix(0,1,1,0,587.271,278.46)" d="M0 0H.036L.054-.036C.302-.154 .58-.273 .864-.27H.9V-.09H.72L.684-.072H.612L.594-.054 .522-.036H.504L.45-.018 .414 0H.378L.342 .018 .306 .036H.288L.252 .054 .234 .072H.216L.162 .09 .126 .108V.126H.108L.072 .144 .054 .162 .018 .18H-.162V-.378H0" fill="#ffffff" fill-rule="evenodd"/><path transform="matrix(0,1,1,0,0,0)" d="M278.766 586.317H278.874V586.659H278.766Z" fill="#ffffff"/><path transform="matrix(0,1,1,0,582.357,279.126)" d="M0 0H-.234L-.828 .378V.558H-.18V.684H0V.558H.216V.378H0V0ZM-.576 .378-.18 .144V.378H-.576" fill="#ffffff" fill-rule="evenodd"/><path transform="matrix(0,1,1,0,584.499,279)" d="M0 0H.018L.036-.018H.09L.126-.036H.162L.18-.054H.198L.234-.09 .252-.108H.27L.288-.144H.306V-.162L.324-.18 .36-.234V-.306L.342-.324V-.342L.324-.36V-.378L.306-.396H.288L.27-.414V-.432H.252L.234-.45H.612V-.594H-.432V-.45L-.378-.432-.396-.396-.432-.36V-.342L-.45-.324V-.198L-.414-.162V-.144L-.396-.126-.36-.09-.252-.036-.198-.018H-.144L-.108 0H0ZM.18-.306 .162-.27 .144-.252V-.234L.108-.216 .09-.198C.017-.192 .073-.17-.054-.18H-.144L-.18-.198H-.198L-.252-.252-.27-.27-.288-.306-.27-.342-.252-.36C-.21-.419-.143-.44-.072-.432H.036L.072-.414H.09L.144-.36 .162-.342 .18-.306" fill="#ffffff" fill-rule="evenodd"/><path transform="matrix(0,1,1,0,588.405,278.622)" d="M0 0-.054-.018V-.18H.99V-.018H.612L.63 0H.648V.018L.666 .036H.684L.702 .054V.072L.72 .09 .738 .126V.198L.702 .252 .684 .27V.288H.666L.648 .306 .63 .324 .612 .342 .594 .36H.576L.558 .378H.54L.522 .396H.504L.468 .414H.45C.361 .409 .463 .44 .306 .432H.27L.234 .414H.198C.121 .404 .013 .35-.036 .288V.27L-.054 .252V.234L-.072 .216V.108L-.054 .09V.072L-.036 .054-.018 .018 0 0ZM.558 .126 .54 .09 .522 .072C.484 .02 .424-.008 .36 0H.234L.198 .018H.18L.162 .036 .126 .072 .108 .09 .09 .126 .108 .162 .126 .18 .162 .216H.18V.234H.234L.252 .252H.396L.414 .234H.45L.468 .216H.486L.522 .198V.18L.54 .162 .558 .126" fill="#ffffff" fill-rule="evenodd"/></g></svg>