<?xml version='1.0' encoding='UTF-8'?>
<svg xmlns="http://www.w3.org/2000/svg" xmlns:xlink="http://www.w3.org/1999/xlink" xmlns:inkscape="http://www.inkscape.org/namespaces/inkscape" version="1.1" width="567.000" height="269.280" viewBox="0 0 567.000 269.280"><g transform="scale(10.0) translate(-547.707, -235.728)"><defs><clipPath id="clip_19"><path transform="matrix(0,1,1,0,0,0)" d="M0 74.451H595.008V767.55899H0Z"/></clipPath><clipPath id="clip_20"><path transform="matrix(0,1,1,0,0,0)" d="M0 842.013H595.224V.008972168H0Z"/></clipPath></defs><path transform="matrix(0,1,1,0,595.857,237.402)" d="M0 0V-39.348C0-39.42 .018-39.492 .054-39.564 .072-39.636 .126-39.708 .18-39.762 .234-39.834 .306-39.87 .378-39.906 .45-39.924 .522-39.942 .594-39.942H12.348C12.42-39.942 12.492-39.924 12.564-39.906 12.636-39.87 12.69-39.834 12.762-39.762 12.816-39.708 12.852-39.636 12.888-39.564 12.906-39.492 12.924-39.42 12.924-39.348V0C12.924 .126 12.87 .288 12.762 .396 12.636 .522 12.492 .576 12.348 .576H.594C.522 .576 .45 .558 .378 .54 .306 .504 .234 .468 .18 .396 .126 .342 .072 .288 .054 .216 .018 .126 0 .054 0 0" fill="#ffff00" fill-rule="evenodd"/><path transform="matrix(0,1,1,0,556.509,250.92)" d="M0 0V19.674H10.332V0C10.332-.144 10.278-.306 10.152-.414 10.044-.54 9.882-.594 9.738-.594H.576C.414-.594 .27-.54 .162-.414 .054-.306 0-.162 0 0" fill="#ffffff" fill-rule="evenodd"/><path transform="matrix(0,1,1,0,595.857,250.92)" d="M0 0V-19.674H10.332V0C10.332 .126 10.278 .288 10.152 .396 10.044 .522 9.882 .576 9.738 .576H.576C.432 .576 .288 .522 .162 .396 .036 .288 0 .126 0 0" fill-rule="evenodd"/><path transform="matrix(0,1,1,0,582.447,243.882)" d="M0 0C-.81 0-1.62-.162-2.394-.468-3.15-.792-3.834-1.242-4.41-1.818-4.986-2.412-5.454-3.096-5.76-3.852-6.084-4.608-6.246-5.418-6.246-6.246-6.246-7.074-6.084-7.884-5.76-8.64-5.454-9.396-4.986-10.08-4.41-10.674-3.834-11.25-3.15-11.718-2.394-12.024-1.62-12.33-.81-12.492 0-12.492 .828-12.492 1.638-12.33 2.394-12.024 3.168-11.718 3.852-11.25 4.428-10.674 5.004-10.08 5.472-9.396 5.778-8.64 6.102-7.884 6.264-7.074 6.264-6.246 6.264-5.418 6.102-4.608 5.778-3.852 5.472-3.096 5.004-2.412 4.428-1.818 3.852-1.242 3.15-.792 2.394-.468 1.638-.162 .828 0 0 0" fill-rule="evenodd"/><path transform="matrix(0,1,1,0,579.153,239.85)" d="M0 0C-.288-.396-.54-.864-.72-1.368-.9-1.872-.99-2.43-.99-2.97-.99-3.528-.9-4.086-.72-4.59-.54-5.094-.288-5.562 0-5.958L2.988-2.97 0 0" fill="#e1e1e1" fill-rule="evenodd"/><path transform="matrix(0,1,1,0,577.209,243.864)" d="M0 0-2.988 2.988C-2.574 3.276-2.124 3.528-1.602 3.708-1.098 3.87-.558 3.96 0 3.96 .558 3.96 1.098 3.87 1.62 3.708 2.124 3.528 2.592 3.276 2.988 2.988L0 0" fill="#e1e1e1" fill-rule="evenodd"/><path transform="matrix(0,1,1,0,579.153,247.878)" d="M0 0-2.988-2.97 0-5.958C.306-5.562 .558-5.094 .72-4.59 .9-4.086 .99-3.528 .99-2.97 .99-2.43 .9-1.872 .72-1.368 .558-.864 .306-.396 0 0" fill="#e1e1e1" fill-rule="evenodd"/><path transform="matrix(0,1,1,0,572.151,246.852)" d="M0 0-2.988 2.988-5.976 0C-5.562-.288-5.112-.54-4.59-.72-4.086-.882-3.546-.972-2.988-.972-2.43-.972-1.89-.882-1.368-.72-.864-.54-.396-.288 0 0" fill="#e1e1e1" fill-rule="evenodd"/><path transform="matrix(0,1,1,0,596.433,251.496)" stroke-width=".288" stroke-linecap="round" stroke-linejoin="round" fill="none" stroke="#000000" d="M0 0C-.324 0-.576-.27-.576-.576"/><path transform="matrix(0,1,1,0,596.433,260.658)" stroke-width=".288" stroke-linecap="round" stroke-linejoin="round" fill="none" stroke="#000000" d="M0 0H-9.162"/><path transform="matrix(0,1,1,0,595.857,261.25199)" stroke-width=".288" stroke-linecap="round" stroke-linejoin="round" fill="none" stroke="#000000" d="M0 0C0 .306-.27 .576-.594 .576"/><path transform="matrix(0,1,1,0,555.339,237.996)" d="M0 0H22.662C22.806 0 22.95 .018 23.094 .072 23.238 .126 23.382 .216 23.49 .342 23.616 .45 23.706 .594 23.76 .738 23.814 .882 23.832 1.026 23.832 1.17V40.518C23.832 40.644 23.814 40.788 23.76 40.932 23.706 41.094 23.616 41.22 23.49 41.328 23.382 41.454 23.238 41.544 23.094 41.598 22.95 41.652 22.806 41.67 22.662 41.67H0C-.324 41.67-.612 41.562-.828 41.328-1.044 41.112-1.17 40.824-1.17 40.518V1.17C-1.17 .846-1.044 .558-.828 .342-.612 .108-.324 0 0 0ZM12.924 40.518C12.924 40.572 12.924 40.644 12.96 40.734 12.978 40.806 13.032 40.86 13.086 40.914 13.212 41.04 13.356 41.094 13.5 41.094H22.662C22.806 41.094 22.968 41.04 23.076 40.914 23.202 40.806 23.256 40.644 23.256 40.518V1.17C23.256 1.026 23.202 .864 23.076 .756 22.968 .63 22.806 .576 22.662 .576H13.5C13.356 .576 13.212 .63 13.086 .756 12.96 .864 12.924 1.026 12.924 1.17V40.518ZM-.594 40.518C-.594 40.572-.576 40.644-.54 40.734-.522 40.806-.468 40.86-.414 40.914-.306 41.04-.144 41.094 0 41.094H11.754C11.898 41.094 12.06 41.04 12.168 40.914 12.276 40.806 12.33 40.662 12.33 40.518V1.17C12.33 1.026 12.276 .864 12.168 .756 12.042 .63 11.898 .576 11.754 .576H0C-.144 .576-.306 .63-.414 .756-.54 .864-.594 1.026-.594 1.17V40.518" fill-rule="evenodd"/><path transform="matrix(0,1,1,0,573.303,253.458)" d="M0 0V-.396H-.108V.126L.144 .216 .378 .324 .558 .468 .684 .63H.72L.774 .54V.504L.63 .342 .45 .198 .234 .09" fill-rule="evenodd"/><path transform="matrix(0,1,1,0,572.457,254.16)" d="M0 0V.324L.144 .306C.375 .258 .635 .081 .774-.108L.846-.216H.864L.936-.144V-.108L.846 0 .756 .108 .648 .216 .54 .288 .414 .36 .288 .414 .144 .45 0 .468V.936H.378L.666 .918 .72 .882 .774 .846 .81 .81 .828 .756V.576H.846L.918 .594 .936 .612 .954 .648V.828L.9 .918 .81 .99 .684 1.044 .522 1.062H-.108V0" fill-rule="evenodd"/><path transform="matrix(0,1,1,0,571.611,254.07)" d="M0 0H.108V-.846H1.098V-.99H.108V-1.818H0V-.99H-.792L-.756-.846V-.81H-.738L-.72-.828-.702-.846H0" fill-rule="evenodd"/><path transform="matrix(0,1,1,0,0,0)" d="M254.88 567.507H254.98799V569.307H254.88Z"/><path transform="matrix(0,1,1,0,0,0)" d="M254.142 567.759H254.232V569.055H254.142Z"/><path transform="matrix(0,1,1,0,0,0)" d="M253.458 567.633H253.566V569.145H253.458Z"/><path transform="matrix(0,1,1,0,566.409,255.168)" d="M0 0V.216L-.018 .252-.054 .288-.09 .306H-.648L-.666 .324V.522L-.684 .558H-.756L-.774 .522V.324L-.792 .306H-.918L-.936 .342-.954 .324-.972 .306-.99 .252V.198L-.972 .18H-.792L-.774 .162V-.468L-.756-.486H-.684L-.666-.468V.162L-.648 .18H-.198L-.144 .162-.126 .126V-.036L-.108-.054H-.036L-.018-.018" fill-rule="evenodd"/><path transform="matrix(0,1,1,0,566.517,254.016)" d="M0 0V.504H.09L.108 .468V-.63L.09-.648H0V-.162H-.36V-.54L-.378-.558H-.45L-.468-.54V-.162H-.72V-.054L-.702-.018-.684 0H-.666L-.648-.018H-.486L-.468 0V.36H-.36V0L-.342-.018H-.018" fill-rule="evenodd"/><path transform="matrix(0,1,1,0,566.121,254.79)" d="M0 0 .108 .144 .018 .216-.108 .072-.198-.108-.108-.18" fill-rule="evenodd"/><path transform="matrix(0,1,1,0,566.769,256.716)" d="M0 0 .234 .108 .198 .234-.126 .054-.414-.144-.342-.252-.09-.054 0-1.062-.486-.702V.234H-.594V-1.548H-.486V-.864L0-1.206 .036-1.512 .108-1.476 .162-1.458 .198-1.422V-1.404L.162-1.386" fill-rule="evenodd"/><path transform="matrix(0,1,1,0,565.167,257.868)" d="M0 0V1.908H-.108V1.008H-.522V1.728H-.648V1.008H-.846L-.882 1.062-.918 1.08-.936 1.062V1.008L-.954 .882H-.648V.162H-.522V.882H-.108V0" fill-rule="evenodd"/><path transform="matrix(0,1,1,0,566.481,260.424)" d="M0 0V-.198H.018L.09-.18 .108-.162V.09L.072 .162 .018 .18H-.54V.396L-.558 .414H-.648V.198L-.666 .18H-.792L-.828 .198H-.846V.162L-.864 .108V.054H-.666L-.648 .036V-.612H-.558L-.54-.594V.054H-.072L-.036 .036" fill-rule="evenodd"/><path transform="matrix(0,1,1,0,566.931,259.488)" d="M0 0V-1.134H-.09L-.108-1.116V-.63H-.45V-.972L-.468-1.008V-1.026H-.558V-.63H-.81L-.828-.612-.81-.54V-.486L-.792-.468H-.774L-.738-.486H-.558V-.108H-.45V-.486H-.108V0L-.09 .018H0" fill-rule="evenodd"/><path transform="matrix(0,1,1,0,566.049,260.154)" d="M0 0 .126 .162 .036 .234-.09 .072-.198-.09-.09-.162" fill-rule="evenodd"/><path transform="matrix(0,1,1,0,0,0)" d="M260.262 567.435H260.37V569.253H260.262Z"/><path transform="matrix(0,1,1,0,0,0)" d="M259.506 567.687H259.61399V568.98306H259.506Z"/><path transform="matrix(0,1,1,0,0,0)" d="M258.84 567.579H258.948V569.091H258.84Z"/><path transform="matrix(0,1,1,0,570.567,260.532)" d="M0 0H-.99V-.828H-1.08V0H-1.872L-1.854 .144-1.836 .162-1.818 .18-1.8 .162V.126H-1.08V.972H-.99V.126H0" fill-rule="evenodd"/><path transform="matrix(0,1,1,0,572.403,259.434)" d="M0 0V1.062H.612L.792 1.026 .918 .972 1.008 .918 1.044 .828V.612L1.026 .594 .954 .576H.936L.918 .594V.756L.9 .81 .882 .846 .828 .882 .756 .9 .486 .936H.108V.468L.396 .396 .648 .288 .756 .198 .864 .108 .954 0 1.026-.126V-.144L.972-.216H.936L.864-.108C.69 .105 .507 .239 .234 .288L.108 .324V0" fill-rule="evenodd"/><path transform="matrix(0,1,1,0,572.277,259.452)" d="M0 0-.18 .162-.378 .288-.594 .378-.612 .414-.63 .432-.648 .414-.666 .378-.72 .27-.468 .162-.252 .036-.09-.108 .054-.27 .162-.18" fill-rule="evenodd"/><path transform="matrix(0,1,1,0,573.447,259.272)" d="M0 0-.198-.108-.432-.198V-.594H-.558V-.09L-.288 0-.072 .126 .108 .252 .252 .432H.27V.414L.342 .342V.288L.18 .126" fill-rule="evenodd"/><path transform="matrix(0,1,1,0,561.549,259.776)" d="M0 0V.81H-.108V0H-.72V.648H-.828V-.522L-1.008-.432-1.026-.396H-1.044L-1.062-.414-1.08-.468-1.134-.54-.756-.72-.414-.954-.342-.846-.54-.702-.72-.594V-.126H-.108V-1.008H0V-.126H.774V0" fill-rule="evenodd"/><path transform="matrix(0,1,1,0,561.495,254.394)" d="M0 0H.792V.126H0V.918H-.108V.126H-.72V.756H-.828V-.414L-1.008-.324V-.288L-1.044-.27-1.062-.306-1.08-.36-1.116-.432-.756-.612-.414-.828-.342-.738-.522-.594-.72-.486V0H-.108V-.9H0" fill-rule="evenodd"/><path transform="matrix(0,1,1,0,558.273,255.132)" d="M0 0V1.8H-.108V.882H-.954V1.638H-1.044V.882H-1.728L-1.746 .918H-1.764L-1.782 .882V.828L-1.8 .756H-.108V0" fill-rule="evenodd"/><path transform="matrix(0,1,1,0,562.845,254.088)" d="M0 0 .126 .036 .036 .648H.864L.936 .666 .972 .684 1.008 .738V1.44L.99 1.548 .936 1.656 .846 1.746 .594 1.854 .576 1.818 .54 1.746 .558 1.728 .774 1.656 .864 1.566 .918 1.458V.954L.9 .828 .846 .774H.018L-.126 1.836H-.252L-.108 .774H-.684L-.702 .81H-.72L-.738 .792-.756 .756-.774 .648H-.09" fill-rule="evenodd"/><path transform="matrix(0,1,1,0,563.601,259.326)" d="M0 0V.45L1.026 .378H1.098L1.152 .414 1.17 .45 1.188 .504V.828L1.17 .936 1.116 1.008 .9 1.062H.882L.828 .954 .846 .936 1.026 .9 1.062 .864 1.08 .792V.522L1.062 .504H1.026L-.09 .576V0L-.54 .036-.558 .072H-.576L-.594 .054-.612 0-.63-.108-.09-.126V-.63H0V-.126L.18-.162C.594-.283 .699-.352 1.026-.63L1.116-.756H1.152L1.17-.738 1.224-.702 1.206-.648C.96-.349 .759-.177 .378-.072L.198-.018" fill-rule="evenodd"/><path transform="matrix(0,1,1,0,572.331,254.088)" d="M0 0-.18 .144-.396 .27-.612 .36-.63 .396-.648 .414V.396L-.666 .36-.72 .252-.468 .144-.27 .018-.09-.126 .036-.288 .144-.18" fill-rule="evenodd"/><path transform="matrix(0,1,1,0,558.273,260.532)" d="M0 0V1.8H-.108V.882H-.954V1.638H-1.044V.882H-1.728L-1.746 .918H-1.764L-1.782 .882V.828L-1.8 .756H-.108V0" fill-rule="evenodd"/><path transform="matrix(0,1,1,0,565.779,253.494)" d="M0 0H1.278L1.296-.018V-.126H1.188V-.45H1.422L1.44-.468V-.558L1.422-.576H0L-.018-.558V-.018L0 0ZM.63-.126V-.45H1.062L1.08-.432V-.144L1.062-.126H.63ZM.522-.432V-.144L.504-.126H.108L.09-.144V-.432L.108-.45H.504L.522-.432" fill-rule="evenodd"/><path transform="matrix(0,1,1,0,565.707,258.876)" d="M0 0H1.278L1.296-.018V-.108L1.278-.126H1.188L1.17-.144V-.414L1.188-.432H1.422L1.44-.45V-.558H-.018V-.018L0 0ZM.108-.432H.504V-.126H.108L.09-.144V-.414L.108-.432ZM1.062-.126H.63L.612-.144V-.414L.63-.432H1.062V-.126" fill-rule="evenodd"/><path transform="matrix(0,1,1,0,559.731,251.514)" d="M0 0 .036-.018 .054-.036 .108-.072H.126L.198-.108 .216-.126 .252-.144H.288L.324-.162 .378-.198H.432C.575-.265 .673-.253 .81-.288H.9V-.108H.828C.688-.092 .546-.075 .414-.018H.378L.342 0C.213 .043 .158 .115 .018 .162L0 .18H-.162V-.378H0" fill-rule="evenodd"/><path transform="matrix(0,1,1,0,560.811,252.252)" d="M0 0 .054 .036 .072 .054 .09 .072V.09L.108 .126 .126 .144 .144 .18 .162 .234V.288C.162 .363 .125 .42 .09 .486L.036 .54-.036 .576-.054 .594H-.108L-.144 .612H-.18L-.216 .594H-.27L-.288 .576-.324 .558H-.342L-.378 .522V.504L-.396 .486-.414 .45-.432 .414-.45 .468-.468 .486-.486 .522-.504 .54H-.522L-.54 .558H-.702L-.81 .504-.828 .486-.846 .468-.864 .45V.432H-.882L-.9 .378-.918 .36V.216L-.9 .18V.144L-.864 .108V.09L-.846 .072-.828 .054H-.81L-.792 .036-.774 .018-.738 0-.72-.018H-.666L-.63-.036H-.576V.126H-.612L-.648 .144H-.684L-.702 .162-.72 .18H-.738V.198L-.756 .234V.324L-.738 .342-.72 .36-.702 .378H-.684L-.666 .396H-.576L-.504 .324V.306L-.486 .288V.216H-.342V.288L-.324 .324-.306 .36-.288 .378H-.27L-.252 .396-.216 .414H-.108L-.072 .396-.054 .378-.036 .342-.018 .324 0 .288V.234L-.018 .198-.036 .18-.054 .162-.126 .126-.18 .108H-.216V-.054H-.144L-.108-.036H-.072L-.036-.018H-.018L0 0" fill-rule="evenodd"/><path transform="matrix(0,1,1,0,0,0)" d="M251.82 565.797H251.92801V566.15707H251.82Z"/><path transform="matrix(0,1,1,0,0,0)" d="M252.018 567.525H252.216V567.687H252.018Z"/><path transform="matrix(0,1,1,0,0,0)" d="M251.748 567.525H251.946V567.687H251.748Z"/><path transform="matrix(0,1,1,0,0,0)" d="M252.018 560.289H252.216V560.43307H252.018Z"/><path transform="matrix(0,1,1,0,0,0)" d="M251.748 560.289H251.946V560.43307H251.748Z"/><path transform="matrix(0,1,1,0,568.479,251.82)" d="M0 0 .018 .036 .036 .072 .054 .09V.108L.072 .126 .09 .144H.108L.144 .162 .162 .18H.216L.252 .198H.288L.324 .18H.378L.396 .162 .432 .144 .468 .126 .486 .09 .522 .072 .54 .036 .558 0 .576-.018V-.054L.594-.09V-.18L.576-.234 .558-.27 .54-.288 .522-.324V-.342L.504-.36 .486-.378 .432-.414 .414-.432H.396L.36-.45 .324-.468H.216V-.306H.252L.306-.288C.38-.253 .446-.222 .432-.126L.414-.09 .396-.072 .378-.036 .36-.018 .324 0H.216L.18-.018 .162-.036 .144-.054H.126L.108-.09 .09-.126V-.198H-.054V-.126L-.072-.108V-.09L-.09-.072-.126-.054V-.036L-.144-.018H-.234L-.252-.036H-.27L-.288-.054-.306-.072-.324-.09V-.18L-.306-.216V-.234H-.288L-.27-.252-.252-.27H-.216L-.18-.288H-.144V-.45H-.198L-.234-.432H-.288L-.306-.414-.342-.396-.36-.378-.378-.36H-.396L-.414-.342-.432-.324V-.306L-.468-.27V-.234L-.486-.198V-.054L-.468-.036-.45 .018H-.432V.036L-.414 .054-.396 .072-.378 .09-.306 .126-.27 .144H-.108L-.09 .126H-.072L-.054 .09-.018 .054" fill-rule="evenodd"/><path transform="matrix(0,1,1,0,572.277,252.396)" d="M0 0V-.18H-.468L-.504-.198H-.54L-.576-.216-.63-.27V-.306L-.612-.324-.576-.36-.558-.378H-.522L-.486-.396H0V-.576H-.792V-.414L-.702-.396-.774-.36-.792-.342V-.324L-.81-.288V-.18L-.792-.162V-.126L-.774-.108-.756-.09-.738-.072-.666-.036-.774 .018-.792 .036V.054L-.81 .09V.198L-.792 .216V.252L-.774 .27-.756 .288-.738 .306-.702 .324H-.684L-.63 .342-.612 .36H0V.18H-.54L-.576 .162-.612 .126V.108L-.63 .09V.072L-.612 .054V.036L-.576 .018-.558 0H-.522L-.486-.018" fill-rule="evenodd"/><path transform="matrix(0,1,1,0,564.447,252.396)" d="M0 0V.18H-.486L-.522 .198H-.54L-.558 .216H-.576L-.612 .252-.63 .288V.306L-.612 .324-.576 .36-.54 .378H-.504L-.468 .396H0V.576L-.486 .558-.522 .576H-.558L-.576 .594-.612 .612V.63L-.63 .648V.666L-.612 .702-.576 .738-.54 .756H-.504L-.468 .774H0V.936H-.522C-.612 .937-.713 .922-.774 .846L-.792 .828V.792L-.81 .774V.666L-.792 .63V.612L-.774 .594H-.756V.576H-.738L-.72 .558-.666 .54-.702 .522C-.823 .483-.841 .301-.774 .216L-.702 .18-.792 .162V0" fill-rule="evenodd"/><path transform="matrix(0,1,1,0,563.619,251.874)" d="M0 0-.054 .018-.072 .036-.108 .072V.162L-.072 .198-.036 .216H0L.018 .198H.036V.108L.054 .054V.036L.072 0 .09-.036 .108-.072V-.09L.144-.126 .252-.18H.342L.378-.162H.396L.432-.144 .45-.126 .468-.09 .504-.072 .522-.054 .54-.018V.108L.522 .144 .468 .198 .432 .216 .522 .234V.414L.504 .396H.486L.45 .378H-.072L-.09 .36-.126 .342-.162 .324-.18 .306-.198 .288-.252 .234V.198L-.27 .18V.09L-.252 .036-.234 0-.216-.036-.18-.072-.144-.09-.108-.108-.054-.144H-.018L0 0ZM.252 .216H.288L.306 .198 .342 .18 .36 .144 .378 .126V.036L.36 .018 .342 0H.324L.288-.018 .252 0H.234L.198 .018V.054L.144 .198V.216H.126 .252" fill-rule="evenodd"/><path transform="matrix(0,1,1,0,561.909,251.982)" d="M0 0H.072L.108 .018H.144C.202 .059 .266 .088 .324 .126L.342 .144 .36 .162C.394 .2 .439 .271 .432 .324V.414L.414 .432C.409 .466 .388 .497 .36 .522L.342 .54 .324 .558C.167 .682 .275 .584 .144 .666H.09L.072 .684H.036L-.018 .702H-.054C-.108 .702-.162 .702-.216 .702L-.27 .684H-.288L-.306 .666H-.36L-.378 .648H-.414L-.432 .63-.468 .612-.486 .594-.522 .576H-.54L-.558 .558V.54L-.576 .522-.63 .468V.45L-.648 .432V.396L-.666 .36V.324L-.648 .288V.252L-.63 .234V.216H-.612V.198L-.594 .18-.576 .162-.558 .144-.54 .126-.522 .108-.504 .09H-.486L-.468 .072H-.45L-.432 .054-.414 .036H-.396L-.36 .018H-.306L-.288 0H-.198L-.162-.018H-.054L-.018 0H0ZM-.216 .18-.27 .198H-.306L-.342 .216H-.36L-.378 .234H-.396L-.432 .252-.45 .27-.468 .288V.306C-.468 .363-.482 .442-.396 .432L-.378 .45-.36 .468H-.324L-.288 .486H-.27L-.216 .504H0L.036 .486H.09L.198 .432 .216 .396 .234 .378 .252 .342 .234 .306V.288L.198 .27 .18 .234H.144L.108 .216 .09 .198H.036L0 .18H-.216" fill-rule="evenodd"/><path transform="matrix(0,1,1,0,566.517,252.108)" d="M0 0H.036L.072 .018H.108L.144 .036 .198 .072 .216 .108 .234 .144 .252 .162 .27 .216V.252C.28 .331 .259 .382 .18 .414L.144 .45 .108 .468 .072 .486 0 .504H-.036L-.126 .522H-.432L-.486 .504-.54 .486H-.576L-.612 .45-.684 .414-.702 .378-.738 .342-.756 .306V.18L-.72 .108-.684 .072-.666 .054-.612 .018-.594 0H-.54L-.504-.018H-.306L-.252 0-.18 .036-.144 .054-.126 .09-.072 .144-.054 .18V.27L-.072 .306-.09 .324-.144 .378H-.072L-.018 .36H.036L.072 .342 .108 .306V.288L.126 .27V.216L.108 .198 .09 .162 .054 .144H.036L-.018 .126 0 0ZM-.306 .36-.288 .342-.27 .324-.252 .306-.234 .288V.234L-.252 .216-.27 .18-.288 .162H-.306L-.324 .144H-.36L-.378 .126H-.468L-.504 .144H-.522L-.558 .18-.576 .198H-.594V.234C-.588 .322-.615 .31-.558 .36H-.54L-.504 .378C-.45 .378-.396 .378-.342 .378L-.324 .36H-.306" fill-rule="evenodd"/><path transform="matrix(0,1,1,0,569.163,251.982)" d="M0 0H.072L.108 .018C.162 .01 .418 .168 .414 .252L.432 .288V.324C.444 .461 .354 .539 .252 .612L.234 .63H.198L.18 .648 .144 .666H.09L.072 .684H.036L-.018 .702H-.216L-.27 .684H-.288L-.306 .666H-.36L-.378 .648H-.414L-.432 .63-.468 .612-.486 .594-.522 .576H-.54L-.558 .558V.54L-.576 .522-.594 .504-.612 .486V.468H-.63V.45L-.648 .432V.396L-.666 .36V.324L-.648 .288V.252L-.63 .234V.216H-.612V.198L-.576 .162-.558 .144-.54 .126-.522 .108-.504 .09H-.486L-.468 .072H-.45L-.432 .054-.414 .036H-.396L-.36 .018H-.306L-.288 0H-.198L-.162-.018H-.054L-.018 0H0ZM-.216 .18H-.27L-.342 .216H-.36L-.378 .234H-.396L-.432 .252-.45 .27-.468 .288V.396H-.45L-.432 .432H-.396L-.378 .45-.36 .468H-.324L-.288 .486H-.27L-.216 .504H0L.036 .486 .09 .468H.126L.198 .432 .216 .396 .234 .378 .252 .342C.247 .299 .213 .265 .18 .234H.144L.108 .216C.055 .175-.019 .178-.09 .18H-.216" fill-rule="evenodd"/><path transform="matrix(0,1,1,0,570.873,251.874)" d="M0 0-.054 .018H-.072L-.09 .054-.108 .072V.162L-.09 .18-.072 .198-.036 .216H0L.018 .198H.036V.108L.054 .054V.018L.072 0 .09-.036 .108-.072V-.09L.144-.126 .216-.162 .252-.18H.342L.378-.162H.396L.432-.144 .45-.126 .468-.09 .504-.072 .522-.054 .54-.018V.108L.522 .144 .486 .18 .468 .198 .432 .216 .522 .234V.414L.504 .396H.486L.45 .378H-.072L-.09 .36-.162 .324-.252 .234V.198L-.27 .18V.09L-.252 .036-.234 0-.216-.054-.144-.09-.108-.126-.054-.144H-.018L0 0ZM.144 .198V.216H.126 .288C.329 .185 .386 .15 .378 .09V.036L.36 .018 .342 0H.324L.288-.018 .252 0H.234L.198 .018V.054L.144 .198" fill-rule="evenodd"/><path transform="matrix(0,1,1,0,590.061,255.15)" d="M0 0V.198L-.018 .234-.054 .27-.09 .288H-.648L-.666 .306V.54H-.756L-.774 .522V.288H-.918L-.936 .324H-.954L-.972 .288V.234L-.99 .18-.972 .162H-.774V-.486L-.756-.504H-.666V.144L-.648 .162H-.198L-.144 .144-.126 .108V-.054L-.108-.072H-.09L-.018-.054 0-.036" fill="#ffffff" fill-rule="evenodd"/><path transform="matrix(0,1,1,0,589.755,254.772)" d="M0 0 .126 .144 .018 .216-.108 .072-.198-.09-.09-.18" fill="#ffffff" fill-rule="evenodd"/><path transform="matrix(0,1,1,0,585.129,254.394)" d="M0 0H.774V.126H0V.918H-.108V.126H-.72V.756H-.828V-.414L-1.008-.324-1.026-.288-1.044-.27-1.062-.306-1.098-.36-1.134-.432-.756-.612-.432-.828-.342-.738-.54-.594-.72-.468V0H-.108V-.882H0" fill="#ffffff" fill-rule="evenodd"/><path transform="matrix(0,1,1,0,582.771,253.44)" d="M0 0H1.638V.126H.558L.756 .414 .936 .684 .846 .774 .63 .468 .432 .126H0V.99H-.108V-.828H0" fill="#ffffff" fill-rule="evenodd"/><path transform="matrix(0,1,1,0,590.151,253.998)" d="M0 0V.468L.018 .504H.09L.108 .468V-.63L.09-.648H.018L0-.63V-.162L-.018-.144H-.342L-.36-.162V-.558H-.45V-.54L-.468-.486V-.144H-.702L-.72-.126-.702-.054V-.018L-.684 .018-.666 0-.63-.018H-.468V.36L-.45 .378H-.36V0L-.342-.018H-.018" fill="#ffffff" fill-rule="evenodd"/><path transform="matrix(0,1,1,0,586.965,256.68)" d="M0 0 .234 .108 .198 .234-.126 .054-.414-.162-.342-.252-.09-.072 0-1.062-.486-.72V.234H-.612V-1.548H-.486V-.864L0-1.206 .036-1.512 .108-1.494 .162-1.458 .198-1.44V-1.404H.162" fill="#ffffff" fill-rule="evenodd"/><path transform="matrix(0,1,1,0,585.345,257.832)" d="M0 0V1.908H-.108V1.026H-.522V1.746H-.648V1.026H-.846L-.882 1.08-.918 1.098-.936 1.08V1.026L-.954 .9H-.648V.18H-.522V.9H-.108V0" fill="#ffffff" fill-rule="evenodd"/><path transform="matrix(0,1,1,0,584.265,259.668)" d="M0 0V.882H-.612V.414L-.432 .288-.234 .162-.306 .054-.648 .27-1.026 .45-.99 .54-.954 .594-.936 .612H-.918L-.9 .558-.72 .468V1.638H-.612V1.008H0V1.8H.108V1.008H.882V.882H.108V0" fill="#ffffff" fill-rule="evenodd"/><path transform="matrix(0,1,1,0,582.771,260.46)" d="M0 0H-1.656V-.828H-1.746V.99H-1.656V.126H-1.224L-1.026 .468-.81 .774-.72 .684-.9 .414-1.08 .126H0" fill="#ffffff" fill-rule="evenodd"/><path transform="matrix(0,1,1,0,588.009,260.496)" d="M0 0-.018 .108-.072 .216-.162 .288-.288 .36-.414 .396-.432 .378-.468 .288H-.45L-.234 .198-.144 .108-.09 .018V-.486L-.108-.612-.162-.666H-.99L-1.134 .396-1.26 .378-1.116-.666H-1.692L-1.71-.648-1.728-.63-1.746-.648-1.764-.702-1.782-.792H-1.098L-1.008-1.44-.882-1.422-.972-.792H-.072L-.036-.756 0-.702V-.648" fill="#ffffff" fill-rule="evenodd"/><path transform="matrix(0,1,1,0,589.773,260.154)" d="M0 0 .126 .144 .018 .216-.09 .072-.198-.09-.09-.162" fill="#ffffff" fill-rule="evenodd"/><path transform="matrix(0,1,1,0,590.241,260.388)" d="M0 0 .036-.036V-.234H.054L.126-.216 .144-.198V.054L.126 .09 .108 .108 0 .144H-.522V.378H-.612V.144H-.756L-.792 .162H-.81L-.828 .126V0H-.63L-.612-.018V-.666H-.522V-.018L-.504 0H-.036" fill="#ffffff" fill-rule="evenodd"/><path transform="matrix(0,1,1,0,589.539,259.488)" d="M0 0V1.116L-.018 1.134H-.09L-.108 1.116V.612H-.45L-.468 .63V1.008H-.558V.63L-.576 .612H-.738L-.774 .648H-.792L-.81 .63V.576L-.828 .504-.81 .486H-.576L-.558 .468V.09H-.468V.468L-.45 .486H-.108V0L-.09-.018H-.018" fill="#ffffff" fill-rule="evenodd"/><path transform="matrix(0,1,1,0,588.855,258.876)" d="M0 0-.018 .018V.558L0 .576H1.278L1.296 .558V.468L1.278 .45H1.188L1.17 .432V.144L1.188 .126H1.44V.018L1.422 0H0ZM.63 .126H1.044L1.062 .144V.432L1.044 .45H.63L.612 .432V.144L.63 .126ZM.504 .45H.108L.09 .432V.144L.108 .126H.504V.45" fill="#ffffff" fill-rule="evenodd"/><path transform="matrix(0,1,1,0,588.837,253.494)" d="M0 0H1.422L1.44 .018V.108L1.422 .126H1.188L1.17 .144V.432L1.188 .45H1.278V.576H0L-.018 .558V.018L0 0ZM1.044 .45 1.062 .432V.144L1.044 .126H.63L.612 .144V.432L.63 .45H1.044ZM.504 .144 .486 .126H.09V.45H.486L.504 .432V.144" fill="#ffffff" fill-rule="evenodd"/><path transform="matrix(0,1,1,0,589.287,252.414)" d="M0 0V.198H-.468C-.528 .189-.574 .208-.612 .252L-.63 .27V.324L-.612 .342-.54 .378H-.522L-.468 .396H0V.576L-.486 .558-.522 .576H-.558L-.612 .63H-.63V.702H-.612L-.576 .738-.54 .756H-.522L-.468 .774H0V.936H-.612L-.63 .918H-.684L-.72 .9-.756 .864-.774 .846-.792 .828-.81 .792V.666L-.792 .63V.612L-.774 .594-.666 .54-.72 .522-.756 .486-.774 .468-.792 .45-.81 .432V.36C-.818 .252-.799 .308-.792 .234L-.774 .216-.72 .18-.792 .162V0" fill="#ffffff" fill-rule="evenodd"/><path transform="matrix(0,1,1,0,584.949,252.414)" d="M0 0V.198H-.468C-.528 .189-.573 .208-.612 .252L-.63 .27V.288C-.642 .371-.527 .397-.468 .396H0V.576L-.486 .558-.522 .576H-.54L-.558 .594H-.576L-.612 .63H-.63V.702H-.612L-.576 .738-.54 .756H-.522L-.468 .774H0V.954L-.486 .936H-.54C-.624 .943-.699 .933-.756 .864L-.774 .846-.792 .828-.81 .81V.666L-.792 .63V.612L-.774 .594-.666 .54-.72 .522H-.738L-.756 .486-.774 .468H-.792V.45L-.81 .432V.306L-.792 .252-.774 .234-.72 .18H-.792V0" fill="#ffffff" fill-rule="evenodd"/><path transform="matrix(0,1,1,0,587.271,251.532)" d="M0 0H.036L.054-.036C.302-.154 .58-.273 .864-.27H.9V-.09H.72L.684-.072H.612L.594-.054 .522-.036H.504L.45-.018 .414 0H.378L.342 .018 .306 .036H.288L.252 .054 .234 .072H.216L.162 .09 .126 .108V.126H.108L.072 .144 .054 .162 .018 .18H-.162V-.378H0" fill="#ffffff" fill-rule="evenodd"/><path transform="matrix(0,1,1,0,0,0)" d="M251.838 586.317H251.946V586.659H251.838Z" fill="#ffffff"/><path transform="matrix(0,1,1,0,584.499,252.072)" d="M0 0H.018L.036-.018H.09L.126-.036H.162L.18-.054H.198L.234-.09 .252-.108H.27L.288-.144H.306V-.162L.324-.18 .36-.234V-.306L.342-.324V-.342L.324-.36V-.378L.306-.396H.288L.27-.414V-.432H.252L.234-.45H.612V-.594H-.432V-.45L-.378-.432-.396-.396-.414-.378-.432-.36V-.342L-.45-.324V-.198L-.432-.18-.414-.162V-.144L-.396-.126-.36-.09-.252-.036-.198-.018H-.144L-.09 0H0ZM.18-.306 .162-.27 .144-.252V-.234L.108-.216 .09-.198C.016-.192 .073-.17-.054-.18H-.144L-.18-.198H-.198L-.252-.252-.27-.27-.288-.306-.27-.342-.252-.36C-.21-.419-.143-.44-.072-.432H.036L.072-.414H.09L.144-.36 .162-.342 .18-.306" fill="#ffffff" fill-rule="evenodd"/><path transform="matrix(0,1,1,0,588.405,251.694)" d="M0 0-.054-.018V-.18H.99V-.018H.612L.63 0H.648V.018L.666 .036H.684L.702 .054V.072L.72 .09 .738 .126V.198L.702 .252 .684 .27V.288H.666L.648 .306 .63 .324 .594 .36H.576L.558 .378H.54L.522 .396H.504L.468 .414H.414L.396 .432H.288L.234 .414H.198C.121 .404 .013 .35-.036 .288V.27L-.054 .252V.234L-.072 .216V.108L-.054 .09V.072L-.036 .054-.018 .018 0 0ZM.558 .126 .54 .09 .522 .072C.484 .02 .424-.008 .36 0H.234L.198 .018H.18L.162 .036 .126 .072 .108 .09 .09 .126 .108 .162 .162 .216H.18V.234H.234L.252 .252H.396L.414 .234H.45L.468 .216H.486L.522 .198V.18L.54 .162 .558 .126" fill="#ffffff" fill-rule="evenodd"/><path transform="matrix(0,1,1,0,587.379,254.088)" d="M0 0-.522 .126V.9H-.63V-.72H-.522V0L0-.126V-.63H.108V-.162L.9-.378V-.846H.99V.99H.9V.612L0 .702V0ZM.9-.234 .108-.036V.576L.9 .504V-.234" fill="#ffffff" fill-rule="evenodd"/><path transform="matrix(0,1,1,0,582.681,251.766)" d="M0 0-.018 .018-.036 .036V.054L-.054 .072-.072 .108V.18L-.054 .198V.234L-.036 .252-.018 .27H0L.018 .288V.306L.036 .324 .072 .342H.09L.108 .36H.144L.18 .378H.36L.396 .36H.432L.468 .342H.486L.522 .324 .576 .27V.252L.594 .234 .612 .216V.198L.63 .18V.144L.648 .126V.072L.63 .054V.036L.612 .018 .594-.018V-.036L.576-.054 .558-.072V-.09H.54L.504-.126 .486-.144H.468L.45-.162H.378L.36-.18H.324V-.036L.342-.018H.378L.396 0H.414L.45 .036 .468 .054V.072C.464 .164 .487 .124 .432 .18L.414 .198H.396V.216H.36L.342 .234H.216L.198 .216H.18L.162 .198H.144L.09 .144V.054L.108 .036V.018H.126L.144 0 .162-.018V-.144L-.396-.072V.342H-.234V.036" fill="#ffffff" fill-rule="evenodd"/></g></svg>