<?xml version='1.0' encoding='UTF-8'?>
<svg xmlns="http://www.w3.org/2000/svg" xmlns:xlink="http://www.w3.org/1999/xlink" xmlns:inkscape="http://www.inkscape.org/namespaces/inkscape" version="1.1" width="567.000" height="269.280" viewBox="0 0 567.000 269.280"><g transform="scale(10.0) translate(-329.439, -397.296)"><defs><clipPath id="clip_19"><path transform="matrix(0,1,1,0,0,0)" d="M0 74.451H595.008V767.55899H0Z"/></clipPath><clipPath id="clip_20"><path transform="matrix(0,1,1,0,0,0)" d="M0 842.013H595.224V.008972168H0Z"/></clipPath></defs><path transform="matrix(0,1,1,0,370.425,410.886)" d="M0 0C-1.638 0-3.258-.324-4.77-.954-6.3-1.584-7.668-2.502-8.838-3.654-9.99-4.824-10.926-6.21-11.538-7.722-12.168-9.234-12.492-10.872-12.492-12.51-12.492-14.148-12.168-15.768-11.538-17.298-10.926-18.81-9.99-20.178-8.838-21.348-7.668-22.5-6.3-23.436-4.77-24.066-3.258-24.678-1.638-25.002 0-25.002 1.656-25.002 3.276-24.678 4.788-24.066 6.318-23.436 7.686-22.5 8.856-21.348 10.008-20.178 10.926-18.81 11.556-17.298 12.186-15.768 12.51-14.148 12.51-12.51 12.51-10.872 12.186-9.234 11.556-7.722 10.926-6.21 10.008-4.824 8.856-3.654 7.686-2.502 6.318-1.584 4.788-.954 3.276-.324 1.656 0 0 0" fill="#ff0000" fill-rule="evenodd"/><path transform="matrix(0,1,1,0,367.923,410.886)" d="M0 0C-1.314 0-2.61-.252-3.816-.756-5.04-1.26-6.138-1.998-7.074-2.934-7.992-3.852-8.73-4.968-9.234-6.174-9.738-7.38-9.99-8.694-9.99-10.008-9.99-11.322-9.738-12.618-9.234-13.824-8.73-15.048-7.992-16.146-7.074-17.082-6.138-18-5.04-18.738-3.816-19.242-2.61-19.746-1.314-20.016 0-20.016 1.314-20.016 2.628-19.746 3.834-19.242 5.058-18.738 6.156-18 7.074-17.082 8.01-16.146 8.748-15.048 9.252-13.824 9.756-12.618 10.008-11.322 10.008-10.008 10.008-8.694 9.756-7.38 9.252-6.174 8.748-4.968 8.01-3.852 7.074-2.934 6.156-1.998 5.04-1.26 3.834-.756 2.628-.252 1.314 0 0 0" fill="#ffffff" fill-rule="evenodd"/><path transform="matrix(0,1,1,0,357.915,405.054)" d="M0 0-3.33-2.502V2.502" fill-rule="evenodd"/><path transform="matrix(0,1,1,0,357.915,416.736)" d="M0 0 3.33 2.502V-2.502" fill-rule="evenodd"/><path transform="matrix(0,1,1,0,364.755,411.084)" d="M0 0C0-.108 .036-.252 .126-.378 .216-.486 .342-.54 .432-.558H2.412V-1.422H.252C.108-1.44 0-1.62 0-1.854 0-1.962 .036-2.106 .126-2.214 .216-2.34 .342-2.394 .432-2.394H2.412V-3.258H-.756V-2.412H-.612C-.684-2.304-.756-2.178-.81-2.052-.846-1.944-.864-1.8-.864-1.674-.864-1.26-.72-.972-.432-.828-.72-.612-.864-.306-.864 .072-.846 .648-.594 1.044-.126 1.224-.09 1.242-.054 1.26-.036 1.26-.018 1.26-.018 1.26 0 1.26 .018 1.26 .036 1.278 .036 1.278 .072 1.278 .108 1.278 .126 1.278H2.412V.432H.27C.234 .432 .198 .414 .162 .396 .126 .378 .108 .342 .072 .306 .018 .234 0 .108 0 0" fill-rule="evenodd"/><path transform="matrix(0,1,1,0,352.677,411.876)" d="M0 0V.612H.882V0H1.62V-.9H.882V-3.258H.036L-2.754-1.17V0H0ZM-1.62-.9 0-2.106V-.9H-1.62" fill-rule="evenodd"/><path transform="matrix(0,1,1,0,354.927,413.118)" d="M0 0C-.252 0-.468-.216-.468-.468-.468-.72-.252-.936 0-.936 .27-.936 .468-.72 .468-.468 .468-.216 .27 0 0 0" fill-rule="evenodd"/><path transform="matrix(0,1,1,0,357.393,413.658)" d="M0 0C0 .522-.126 .936-.36 1.224-.576 1.494-.936 1.638-1.368 1.638-1.872 1.638-2.232 1.494-2.412 1.206-2.646 1.458-2.97 1.584-3.312 1.584-4.194 1.584-4.698 .972-4.698-.09-4.698-.324-4.662-.54-4.59-.756-4.536-.972-4.428-1.152-4.302-1.314-4.176-1.476-4.014-1.584-3.852-1.656-3.672-1.746-3.474-1.782-3.294-1.782L-3.204-.846C-3.546-.846-3.798-.558-3.834-.126-3.834-.054-3.834 .036-3.816 .108-3.744 .468-3.546 .648-3.312 .648-3.06 .63-2.88 .504-2.826 .27V-.342H-2.016V.27C-2.016 .342-1.962 .45-1.854 .54-1.764 .63-1.638 .666-1.548 .666-1.17 .684-.954 .468-.918 .018-.918-.234-.972-.468-1.098-.612-1.206-.774-1.368-.846-1.548-.846L-1.422-1.818C-.99-1.8-.63-1.638-.378-1.314-.126-1.008 0-.558 0 0" fill-rule="evenodd"/></g></svg>