<?xml version='1.0' encoding='UTF-8'?>
<svg xmlns="http://www.w3.org/2000/svg" xmlns:xlink="http://www.w3.org/1999/xlink" xmlns:inkscape="http://www.inkscape.org/namespaces/inkscape" version="1.1" width="566.700" height="269.280" viewBox="0 0 566.700 269.280"><g transform="scale(10.0) translate(-165.765, -370.368)"><path transform="matrix(1,0,0,-1,0,595.276)" d="M205.44 223.636H182.76C182.52 223.636 182.28 223.636 182.04 223.516 181.8 223.396 181.56 223.276 181.44 223.156 181.2 222.916 181.08 222.676 180.96 222.436 180.96 222.196 180.84 221.956 180.84 221.716V200.956C180.84 200.476 181.08 199.996 181.44 199.636 181.8 199.276 182.28 199.036 182.76 199.036H205.44C205.92 199.036 206.4 199.276 206.76 199.636 207.12 199.996 207.36 200.476 207.36 200.956V221.716C207.36 222.196 207.12 222.676 206.76 223.156 206.4 223.516 205.92 223.636 205.44 223.636Z" fill="#0000ff" fill-rule="evenodd"/><path transform="matrix(1,0,0,-1,0,595.276)" d="M194.16 202.876C195.24 203.116 196.32 203.596 197.4 204.316 198.48 205.036 199.44 205.876 200.28 206.956 201 207.916 201.6 209.116 202.08 210.316 202.44 211.516 202.56 212.716 202.56 213.916V219.916H185.64V213.916C185.64 212.716 185.76 211.516 186.12 210.316 186.6 209.116 187.2 207.916 187.92 206.956 188.76 205.876 189.72 205.036 190.8 204.316 191.88 203.596 192.96 203.116 194.16 202.876Z" fill="#ffff00" fill-rule="evenodd"/><path transform="matrix(1,0,0,-1,0,595.276)" d="M193.92 206.236C196.56 206.236 197.88 207.436 197.88 209.596 197.88 210.796 197.52 211.636 196.92 212.116 197.4 212.716 197.76 213.436 197.76 214.276 197.76 216.436 196.32 217.636 193.68 217.636 192.6 217.636 191.52 217.276 190.8 216.676 190.44 216.316 190.08 215.956 189.96 215.596 189.72 215.116 189.6 214.636 189.6 214.156L191.88 214.036C191.88 214.876 192.6 215.476 193.68 215.476 193.8 215.596 194.04 215.476 194.16 215.476 195 215.356 195.48 214.876 195.48 214.276 195.48 213.676 195.12 213.196 194.64 213.076H193.08V211.156H194.64C194.64 211.156 194.76 211.156 194.88 211.036 195 211.036 195.12 210.916 195.24 210.796 195.48 210.556 195.6 210.196 195.6 210.076 195.6 209.116 195 208.516 194.04 208.516 193.32 208.516 192.84 208.636 192.48 208.876 192 209.236 191.88 209.596 191.88 210.076L189.6 209.716C189.6 207.556 191.28 206.236 193.92 206.236Z" fill-rule="evenodd"/></g></svg>