<?xml version='1.0' encoding='UTF-8'?>
<svg xmlns="http://www.w3.org/2000/svg" xmlns:xlink="http://www.w3.org/1999/xlink" xmlns:inkscape="http://www.inkscape.org/namespaces/inkscape" version="1.1" width="566.700" height="269.280" viewBox="0 0 566.700 269.280"><g transform="scale(10.0) translate(-274.875, -181.872)"><path transform="matrix(1,0,0,-1,0,595.276)" d="M308.88 412.636C309.12 412.636 309.36 412.516 309.6 412.396 309.72 412.276 309.72 412.156 309.84 412.036 309.84 411.916 309.84 411.796 309.84 411.676V387.916C309.84 387.676 309.84 387.436 309.6 387.196 309.36 387.076 309.12 386.956 308.88 386.956H297.48C297.24 386.956 297 387.076 296.76 387.196 296.76 387.316 296.64 387.436 296.52 387.556 296.52 387.676 296.52 387.796 296.52 387.916V411.676C296.52 411.916 296.64 412.156 296.76 412.396 297 412.516 297.24 412.636 297.48 412.636H308.88Z" fill="#ffffff" fill-rule="evenodd"/><path transform="matrix(1,0,0,-1,0,595.276)" d="M297.48 412.156H305.52L309.36 408.316V391.276L303.84 396.796 303.48 396.436V387.436H298.8V400.756C298.8 401.116 298.68 401.356 298.56 401.716 298.44 402.076 298.2 402.316 297.96 402.556L297 403.636V411.676C297 411.796 297.12 411.916 297.12 412.036 297.24 412.156 297.36 412.156 297.48 412.156Z" fill="#0000ff" fill-rule="evenodd"/><path transform="matrix(1,0,0,-1,0,595.276)" stroke-width=".12" stroke-linecap="butt" stroke-miterlimit="10" stroke-linejoin="miter" fill="none" stroke="#ffffff" d="M301.5 397.5 302.5 395.5"/><path transform="matrix(1,0,0,-1,0,595.276)" d="M303 411.316V409.396L303.96 408.436V409.756L307.44 406.276 308.04 406.876 304.56 410.356H305.88L304.92 411.316Z" fill="#ffffff" fill-rule="evenodd"/><path transform="matrix(1,0,0,-1,0,595.276)" d="M300.48 408.676V406.756L301.44 405.796V407.116L307.68 400.756 308.28 401.476 302.04 407.716H303.24L302.28 408.676Z" fill="#ffffff" fill-rule="evenodd"/><path transform="matrix(1,0,0,-1,0,595.276)" d="M297.84 406.036V404.236L298.8 403.276V404.476L307.92 395.356 308.52 395.956 299.4 405.076H300.72L299.76 406.036Z" fill="#ffffff" fill-rule="evenodd"/><path transform="matrix(1,0,0,-1,0,595.276)" d="M300.6 400.036 300.24 399.676 299.28 400.516 299.64 400.876Z" fill="#ffffff" fill-rule="evenodd"/><path transform="matrix(1,0,0,-1,0,595.276)" d="M302.04 398.596 301.68 398.236 300.72 399.196 301.08 399.556Z" fill="#ffffff" fill-rule="evenodd"/><path transform="matrix(1,0,0,-1,0,595.276)" d="M303.48 397.156 303.12 396.796 302.16 397.756 302.52 398.116Z" fill="#ffffff" fill-rule="evenodd"/><path transform="matrix(1,0,0,-1,0,595.276)" d="M301.08 397.396 299.76 395.956V394.636L300.72 395.596V388.036H301.56V395.596L302.52 394.636V395.956Z" fill="#ffffff" fill-rule="evenodd"/><path transform="matrix(1,0,0,-1,0,595.276)" stroke-width=".12" stroke-linecap="butt" stroke-linejoin="round" fill="none" stroke="#0000ff" d="M308.88 412.636C309.36 412.636 309.84 412.156 309.84 411.676V387.916C309.84 387.436 309.36 386.956 308.88 386.956H297.48C297 386.956 296.52 387.436 296.52 387.916V411.676C296.52 412.156 297 412.636 297.48 412.636H308.88"/></g></svg>