<?xml version='1.0' encoding='UTF-8'?>
<svg xmlns="http://www.w3.org/2000/svg" xmlns:xlink="http://www.w3.org/1999/xlink" xmlns:inkscape="http://www.inkscape.org/namespaces/inkscape" version="1.1" width="567.000" height="269.280" viewBox="0 0 567.000 269.280"><g transform="scale(10.0) translate(-329.439, -101.088)"><defs><clipPath id="clip_19"><path transform="matrix(0,1,1,0,0,0)" d="M0 74.451H595.008V767.55899H0Z"/></clipPath><clipPath id="clip_20"><path transform="matrix(0,1,1,0,0,0)" d="M0 842.013H595.224V.008972168H0Z"/></clipPath></defs><path transform="matrix(0,1,1,0,350.427,101.646)" d="M0 0V14.994C0 15.156 .036 15.318 .09 15.498 .162 15.66 .27 15.822 .396 15.948 .54 16.092 .684 16.182 .864 16.254 1.026 16.326 1.206 16.344 1.368 16.344H24.48C24.642 16.344 24.804 16.326 24.984 16.254 25.146 16.182 25.308 16.092 25.434 15.948 25.578 15.822 25.668 15.66 25.74 15.498 25.812 15.318 25.83 15.156 25.83 14.994V0C25.83-.162 25.812-.342 25.74-.504 25.668-.684 25.578-.828 25.434-.972 25.308-1.098 25.146-1.206 24.984-1.278 24.804-1.332 24.642-1.368 24.48-1.368H1.368C1.206-1.368 1.026-1.332 .864-1.278 .684-1.206 .54-1.098 .396-.972 .27-.828 .162-.684 .09-.504 .036-.342 0-.162 0 0ZM.684 0C.684-.18 .738-.342 .882-.486 1.026-.63 1.188-.684 1.368-.684H12.726C12.888-.684 13.068-.63 13.212-.486 13.338-.342 13.41-.18 13.41 0V14.994C13.41 15.156 13.338 15.336 13.212 15.48 13.068 15.606 12.888 15.678 12.726 15.678H1.368C1.188 15.678 1.026 15.606 .882 15.48 .738 15.336 .684 15.156 .684 14.994V0ZM13.842 0C13.842-.18 13.914-.36 14.04-.486 14.184-.612 14.346-.684 14.526-.684H24.48C24.642-.684 24.822-.63 24.966-.486 25.092-.342 25.164-.18 25.164 0V14.994C25.164 15.156 25.092 15.336 24.966 15.48 24.822 15.606 24.642 15.678 24.48 15.678H14.526C14.454 15.678 14.364 15.66 14.274 15.624 14.202 15.588 14.112 15.534 14.04 15.48 13.914 15.336 13.842 15.156 13.842 14.994V0" fill-rule="evenodd"/><path transform="matrix(0,1,1,0,350.427,102.33)" d="M0 0V14.994C0 15.066 .018 15.156 .036 15.246 .072 15.318 .126 15.408 .198 15.48 .27 15.534 .342 15.588 .432 15.624 .504 15.66 .594 15.678 .684 15.678H12.042C12.204 15.678 12.384 15.606 12.528 15.48 12.654 15.336 12.726 15.156 12.726 14.994V0C12.726-.18 12.654-.342 12.528-.486 12.456-.558 12.384-.612 12.294-.63 12.204-.666 12.132-.684 12.042-.684H.684C.504-.684 .342-.63 .198-.486 .054-.342 0-.18 0 0" fill="#ffff00" fill-rule="evenodd"/><path transform="matrix(0,1,1,0,362.451,109.746)" d="M0 0V-8.226C0-8.28 0-8.334 .018-8.388 .036-8.46 .054-8.514 .09-8.568 .144-8.658 .234-8.748 .324-8.802L1.764-9.63V-6.75H.432V-5.418H1.764V.558L.162 .216C.072 .198 0 .108 0 0ZM.432-2.754H1.5480001V-4.968H.432ZM.432-.108 1.548 .126V-2.322H.432V-.108ZM1.548-7.182V-8.964L.432-8.334V-7.182H1.548" fill-rule="evenodd"/><path transform="matrix(0,1,1,0,0,0)" d="M111.618 357.033H112.284V363.009H111.618Z"/><path transform="matrix(0,1,1,0,363.009,113.274)" d="M0 0H-.882V-5.976H.45V-7.308H-.882V-10.188H0L.234-10.404H.45V-9.414C.36-9.414 .252-9.396 .162-9.36 .072-9.306-.018-9.252-.09-9.18-.252-9.018-.324-8.82-.324-8.64-.324-8.442-.252-8.244-.09-8.082 .054-7.92 .27-7.866 .45-7.866H.666V-3.204H.45C.36-3.204 .252-3.186 .162-3.15 .072-3.114-.018-3.06-.09-2.988-.252-2.826-.324-2.628-.324-2.43-.324-2.25-.252-2.034-.09-1.89 .054-1.728 .27-1.656 .45-1.656H.666L.45 .234H.234L0 0" fill-rule="evenodd"/><path transform="matrix(0,1,1,0,361.245,113.724)" d="M0 0C-.18 0-.342-.072-.468-.198-.594-.324-.666-.486-.666-.666-.666-.846-.594-1.008-.468-1.134-.342-1.26-.18-1.332 0-1.332 .18-1.332 .342-1.26 .468-1.134 .594-1.008 .666-.846 .666-.666 .666-.486 .594-.324 .468-.198 .342-.072 .18 0 0 0ZM0-.342C.18-.342 .324-.486 .324-.666 .324-.846 .18-1.008 0-1.008-.18-1.008-.324-.846-.324-.666-.324-.486-.18-.342 0-.342" fill-rule="evenodd"/><path transform="matrix(0,1,1,0,355.035,113.724)" d="M0 0C-.18 0-.342-.072-.468-.18-.594-.306-.666-.486-.666-.666-.666-.828-.594-1.008-.468-1.134-.342-1.26-.18-1.314 0-1.314 .18-1.314 .342-1.26 .468-1.134 .594-1.008 .666-.828 .666-.666 .666-.486 .594-.306 .468-.18 .342-.072 .18 0 0 0ZM0-.324C.18-.324 .324-.468 .324-.666 .324-.846 .18-.99 0-.99-.18-.99-.324-.846-.324-.666-.324-.468-.18-.324 0-.324" fill-rule="evenodd"/><path transform="matrix(0,1,1,0,0,0)" d="M111.618 352.821H112.284V355.70103H111.618Z"/><path transform="matrix(0,1,1,0,360.867,105.984)" d="M0 0C-.774 0-1.53-.306-2.088-.864-2.646-1.422-2.952-2.16-2.952-2.952-2.952-3.726-2.646-4.482-2.088-5.04-1.53-5.58-.774-5.904 0-5.904 .792-5.904 1.53-5.58 2.088-5.04 2.646-4.482 2.952-3.726 2.952-2.952 2.952-2.16 2.646-1.422 2.088-.864 1.53-.306 .792 0 0 0" fill="#ff0000" fill-rule="evenodd"/><path transform="matrix(0,1,1,0,350.427,115.488)" d="M0 0V14.994C0 15.156 .072 15.336 .198 15.48 .342 15.606 .522 15.678 .684 15.678H10.638C10.71 15.678 10.8 15.66 10.89 15.624 10.962 15.588 11.052 15.534 11.124 15.48 11.178 15.408 11.232 15.318 11.268 15.246 11.304 15.156 11.322 15.066 11.322 14.994V0C11.322-.18 11.25-.342 11.124-.486 11.052-.558 10.962-.612 10.89-.63 10.8-.666 10.71-.684 10.638-.684H.684C.504-.684 .342-.612 .198-.486 .072-.36 0-.18 0 0" fill="#ffffff" fill-rule="evenodd"/><path transform="matrix(0,1,1,0,359.787,107.442)" d="M0 0C-.198 .144-.414 .27-.666 .36-.918 .45-1.188 .486-1.458 .486-1.728 .486-1.998 .45-2.232 .36-2.484 .27-2.718 .144-2.898 0L-1.458-1.458 0 0" fill="#0000ff" fill-rule="evenodd"/><path transform="matrix(0,1,1,0,356.475,107.856)" d="M0 0C.144 .18 .27 .414 .36 .666 .45 .9 .486 1.17 .486 1.44 .486 1.71 .45 1.98 .36 2.232 .27 2.484 .144 2.7 0 2.898L-1.458 1.44 0 0" fill="#0000ff" fill-rule="evenodd"/><path transform="matrix(0,1,1,0,356.061,107.442)" d="M0 0C-.198-.162-.414-.288-.666-.36-.918-.45-1.188-.504-1.458-.504-1.728-.504-1.998-.45-2.232-.36-2.484-.288-2.718-.162-2.898 0L-1.458 1.44 0 0" fill="#0000ff" fill-rule="evenodd"/><path transform="matrix(0,1,1,0,356.475,104.13)" d="M0 0C-.162 .18-.288 .414-.378 .666-.45 .9-.504 1.17-.504 1.44-.504 1.71-.45 1.98-.378 2.232-.288 2.484-.162 2.7 0 2.898L1.44 1.44 0 0" fill="#0000ff" fill-rule="evenodd"/><path transform="matrix(0,1,1,0,352.821,119.25)" d="M0 0V1.008H.558V-1.062H0C-.792 .144-1.08 .414-1.332 .468H-1.44C-1.656 .432-1.8 .27-1.818 .036-1.818-.144-1.782-.27-1.674-.378-1.62-.414-1.566-.45-1.494-.468-1.422-.504-1.35-.504-1.26-.504V-1.134C-2.034-1.134-2.448-.72-2.448 .036-2.448 .702-2.088 1.08-1.44 1.116H-1.35C-.864 1.062-.414 .702 0 0" fill-rule="evenodd"/><path transform="matrix(0,1,1,0,356.439,118.728)" d="M0 0V.396H.594V0H1.08V-.594H.594V-2.16H.036L-1.818-.774V0H0ZM-1.062-.594 0-1.404V-.594H-1.062" fill-rule="evenodd"/><path transform="matrix(0,1,1,0,358.851,117.81)" d="M0 0C-.198 .252-.234 .576-.09 .864-.036 .99 .072 1.116 .198 1.188 .342 1.278 .486 1.314 .63 1.314H1.998V.738H.756C.666 .738 .576 .702 .486 .63 .414 .558 .396 .468 .396 .378 .396 .288 .414 .198 .486 .126 .576 .054 .666 .018 .756 .018H1.998V-.558H-.9V0H0" fill-rule="evenodd"/><path transform="matrix(0,1,1,0,360.813,119.808)" d="M0 0H-2.124V.54H-1.908C-1.998 .594-2.07 .666-2.106 .774-2.16 .9-2.178 1.044-2.178 1.224H-1.584C-1.566 1.008-1.53 .864-1.458 .756-1.404 .648-1.332 .576-1.224 .558H0V0" fill-rule="evenodd"/><path transform="matrix(0,1,1,0,364.107,119.178)" d="M0 0C-.414 .018-.648-.216-.72-.684-.72-.828-.738-.936-.774-1.008-.792-1.044-.792-1.08-.81-1.098-.828-1.116-.864-1.116-.882-1.116-.99-1.116-1.044-1.026-1.062-.828-1.062-.72-1.044-.63-1.008-.558-.954-.486-.9-.414-.828-.36L-1.224-.018C-1.44-.18-1.548-.432-1.584-.792-1.566-1.386-1.314-1.692-.828-1.71-.468-1.674-.252-1.458-.198-1.08-.18-.774-.108-.612 .018-.612 .072-.612 .126-.63 .144-.666 .18-.702 .198-.774 .198-.846 .198-.972 .18-1.08 .126-1.17 .072-1.278 0-1.368-.09-1.458L.306-1.836C.594-1.62 .738-1.296 .738-.864 .738-.612 .666-.378 .54-.234 .414-.072 .216 0 0 0" fill-rule="evenodd"/><path transform="matrix(0,1,1,0,354.855,121.392)" d="M0 0-.144 .342 .36 .774 .81 1.278 1.188 1.872 1.512 2.538 1.854 2.124 1.602 1.71H1.908V.468H2.556V1.656H2.97V.468H3.6V2.34H4.05V-1.872H3.6V0H2.97V-1.17H2.556V0H1.908V-1.242H1.656L1.872-1.584 1.476-1.98 1.296-1.512 1.026-1.044 .666-.54 .234-.018 .18-.144 .108-.198 .054-.144 0 0ZM1.494-.936V1.494L1.026 .864 .504 .27 1.044-.306 1.494-.936" fill-rule="evenodd"/><path transform="matrix(0,1,1,0,359.157,125.514)" d="M0 0V.45H-.432V2.826H0V3.294H-3.942V0H0ZM-.864 .45H-1.98V2.826H-.864ZM-2.376 .45H-3.5279999V2.826H-2.376Z" fill-rule="evenodd"/></g></svg>