<?xml version='1.0' encoding='UTF-8'?>
<svg xmlns="http://www.w3.org/2000/svg" xmlns:xlink="http://www.w3.org/1999/xlink" xmlns:inkscape="http://www.inkscape.org/namespaces/inkscape" version="1.1" width="567.000" height="269.280" viewBox="0 0 567.000 269.280"><g transform="scale(10.0) translate(-547.707, -74.160)"><defs><clipPath id="clip_19"><path transform="matrix(0,1,1,0,0,0)" d="M0 74.451H595.008V767.55899H0Z"/></clipPath><clipPath id="clip_20"><path transform="matrix(0,1,1,0,0,0)" d="M0 842.013H595.224V.008972168H0Z"/></clipPath></defs><path transform="matrix(0,1,1,0,560.919,75.24)" d="M0 0V30.51C0 30.618 .036 30.744 .072 30.852 .126 30.978 .198 31.086 .288 31.176 .378 31.266 .486 31.338 .612 31.392 .72 31.428 .846 31.446 .954 31.446H24.102C24.318 31.446 24.57 31.356 24.768 31.176 24.858 31.086 24.93 30.978 24.966 30.852 25.02 30.744 25.038 30.618 25.038 30.51V0C25.038-.216 24.948-.468 24.768-.666 24.66-.756 24.552-.828 24.444-.864 24.318-.918 24.21-.936 24.102-.936H.954C.846-.936 .72-.918 .612-.864 .486-.828 .378-.756 .288-.666 .09-.468 0-.216 0 0" fill-rule="evenodd"/><path transform="matrix(0,1,1,0,560.919,75.726)" d="M0 0V30.51C0 30.618 .036 30.744 .126 30.834 .234 30.942 .36 30.978 .468 30.978H23.616C23.67 30.978 23.724 30.96 23.778 30.942 23.832 30.924 23.886 30.888 23.94 30.834 23.994 30.798 24.03 30.744 24.048 30.672 24.066 30.618 24.084 30.564 24.084 30.51V0C24.084-.108 24.03-.234 23.94-.324 23.85-.432 23.724-.468 23.616-.468H.468C.36-.468 .234-.432 .126-.324 .036-.234 0-.108 0 0" fill="#ffffff" fill-rule="evenodd"/><path transform="matrix(0,1,1,0,563.025,79.002)" d="M0 0V.72H-.378V0H-.774V.774H-1.152V-.396H.702V0" fill-rule="evenodd"/><path transform="matrix(0,1,1,0,565.347,79.056)" d="M0 0C-.468 0-.738-.234-.738-.648-.738-.846-.684-1.026-.54-1.134-.414-1.26-.234-1.314 0-1.314 .45-1.314 .72-1.062 .72-.648 .72-.234 .45 0 0 0ZM0-.378C.108-.378 .198-.396 .252-.45 .324-.504 .342-.558 .342-.648 .342-.828 .216-.918 0-.918-.126-.918-.216-.9-.27-.846-.342-.81-.36-.738-.36-.648-.36-.468-.234-.378 0-.378" fill-rule="evenodd"/><path transform="matrix(0,1,1,0,566.877,79.056)" d="M0 0C-.468 0-.738-.234-.738-.648-.738-.846-.684-1.026-.54-1.134-.414-1.242-.234-1.314 0-1.314 .45-1.314 .72-1.062 .72-.648 .72-.234 .45 0 0 0ZM0-.378C.108-.378 .198-.396 .252-.45 .324-.504 .342-.558 .342-.648 .342-.828 .216-.918 0-.918-.126-.918-.216-.9-.27-.846-.342-.81-.36-.738-.36-.648-.36-.468-.234-.378 0-.378" fill-rule="evenodd"/><path transform="matrix(0,1,1,0,568.047,78.444)" d="M0 0H-.594V.36H1.296V-.018H1.242C1.296-.072 1.332-.18 1.332-.342 1.35-.648 1.116-.9 .666-.954H.486C.108-.918-.09-.684-.108-.36-.108-.27-.072-.144 0 0ZM.828-.018H.504C.45-.018 .432-.018 .396-.018 .378-.036 .36-.054 .342-.072H.324C.324-.072 .324-.072 .324-.072 .27-.144 .252-.216 .234-.288 .252-.486 .378-.594 .612-.612 .864-.594 .99-.504 1.008-.288 1.008-.162 .936-.072 .828-.018" fill-rule="evenodd"/><path transform="matrix(0,1,1,0,569.631,78.606)" d="M0 0C-.09-.09-.216-.126-.342-.126-.468-.108-.576-.054-.666 .036-.738 .126-.792 .252-.792 .378-.774 .504-.72 .612-.63 .702-.558 .774-.45 .828-.324 .828-.198 .846-.09 .792 0 .72L.018 .702 .054 .648V.63C.072 .612 .09 .594 .09 .576 .108 .558 .126 .54 .126 .522L.504 .774C.45 .81 .36 .828 .288 .828H.27V1.17C.45 1.188 .684 1.098 .81 .954 .81 .972 .828 1.008 .828 1.026 .828 1.062 .81 1.098 .81 1.152L1.062 1.206C1.116 1.188 1.134 1.08 1.134 .954 1.152 .864 1.116 .756 1.062 .684 1.134 .612 1.17 .45 1.17 .306 1.17 .126 1.116-.036 .99-.144 .882-.27 .72-.324 .54-.324 .288-.324 .108-.234 0 0ZM.324 .198C.414 .054 .576 .018 .702 .108 .756 .144 .81 .198 .828 .27 .828 .36 .81 .432 .774 .504L.324 .198ZM-.144 .342C-.18 .414-.27 .486-.324 .486-.36 .486-.396 .468-.432 .45-.45 .432-.468 .396-.468 .36-.468 .306-.378 .252-.306 .252-.252 .252-.198 .27-.144 .342" fill-rule="evenodd"/><path transform="matrix(0,1,1,0,572.205,78.966)" d="M0 0V.756H-.378V0H-.738V.828H-1.116V-.396H.738V.936H.378V0" fill-rule="evenodd"/><path transform="matrix(0,1,1,0,574.725,79.704)" d="M0 0H-.936C-1.242 0-1.386-.18-1.386-.522-1.386-.594-1.368-.648-1.35-.702-1.332-.756-1.296-.81-1.26-.846H-1.35V-1.224H0V-.846H-.828C-.954-.81-1.026-.72-1.044-.576-1.026-.45-.954-.396-.828-.378H-.81C-.81-.378-.828-.378-.81-.378H-.792C-.792-.378-.792-.378-.792-.378H-.774C-.774-.378-.792-.378-.774-.378H0V0" fill-rule="evenodd"/><path transform="matrix(0,1,1,0,575.427,79.704)" d="M0 0-1.314-.45V-.072L-.414 .216-1.314 .504V.882L0 .432V.216" fill-rule="evenodd"/><path transform="matrix(0,1,1,0,0,0)" d="M78.39 576.525H79.704V576.867H78.39Z"/><path transform="matrix(0,1,1,0,576.903,78.03)" d="M0 0C-.108 0-.216-.09-.216-.216-.216-.324-.108-.414 0-.414 .126-.414 .216-.324 .216-.216 .216-.09 .126 0 0 0" fill-rule="evenodd"/><path transform="matrix(0,1,1,0,577.227,79.704)" d="M0 0H-1.35V.36H-1.206C-1.278 .378-1.314 .432-1.35 .504-1.386 .576-1.386 .684-1.386 .792H-1.008C-1.008 .666-.972 .558-.936 .486-.9 .414-.846 .378-.774 .378H0V0" fill-rule="evenodd"/><path transform="matrix(0,1,1,0,579.549,79.056)" d="M0 0C-.234 0-.414-.054-.54-.18-.684-.288-.738-.45-.738-.666-.738-.864-.684-1.026-.54-1.152-.414-1.26-.234-1.314 0-1.314 .216-1.314 .396-1.26 .522-1.152 .666-1.026 .72-.864 .72-.666 .72-.45 .666-.288 .522-.18 .396-.054 .216 0 0 0ZM0-.396C.216-.396 .342-.486 .342-.666 .342-.738 .324-.81 .252-.864 .198-.9 .108-.936 0-.936-.234-.936-.36-.828-.36-.666-.36-.576-.342-.504-.27-.468-.216-.414-.126-.396 0-.396" fill-rule="evenodd"/><path transform="matrix(0,1,1,0,581.025,79.704)" d="M0 0H-.936C-1.242 0-1.386-.18-1.386-.522-1.386-.594-1.368-.648-1.35-.702-1.332-.756-1.296-.81-1.26-.846H-1.35V-1.224H0V-.846H-.828C-.954-.81-1.026-.72-1.044-.576-1.026-.45-.954-.396-.828-.378H-.81C-.81-.378-.828-.378-.81-.378H-.792C-.792-.378-.792-.378-.792-.378H-.774C-.774-.378-.792-.378-.774-.378H0V0" fill-rule="evenodd"/><path transform="matrix(0,1,1,0,582.771,78.678)" d="M0 0C0-.108 .09-.234 .198-.234H1.026V-.594H.108C.054-.612 0-.684 0-.774 0-.882 .108-1.008 .198-1.008H1.026V-1.386H-.306V-1.026H-.252C-.288-.972-.306-.918-.324-.882-.342-.828-.36-.774-.36-.702-.36-.54-.306-.414-.18-.342-.306-.252-.36-.126-.36 .018-.342 .27-.252 .45-.036 .522-.018 .522-.018 .522 0 .54 .018 .54 .018 .54 .036 .54H1.026V.18H.126C.09 .18 .054 .162 .036 .126 .018 .09 0 .054 0 0" fill-rule="evenodd"/><path transform="matrix(0,1,1,0,584.877,79.182)" d="M0 0C-.558 .018-.846-.198-.864-.63-.864-.99-.612-1.188-.144-1.224 .054-1.224 .216-1.188 .342-1.08 .504-.936 .594-.738 .594-.558 .612-.324 .486-.108 .342-.036L.126-.252C.216-.306 .252-.432 .252-.558 .27-.612 .234-.702 .18-.756 .162-.774 .126-.81 .09-.828 .054-.828 .018-.846 0-.846V0ZM-.288-.864C-.342-.846-.414-.828-.45-.774-.504-.72-.54-.666-.54-.612-.522-.504-.432-.378-.324-.36H-.288V-.864" fill-rule="evenodd"/><path transform="matrix(0,1,1,0,586.389,79.704)" d="M0 0H-.936C-1.242-.018-1.386-.18-1.386-.522-1.386-.594-1.368-.648-1.35-.702-1.332-.756-1.296-.81-1.26-.846H-1.35V-1.224H0V-.846H-.828C-.954-.81-1.026-.738-1.044-.594-1.026-.468-.954-.396-.828-.378H-.81C-.81-.378-.828-.378-.81-.378H-.792C-.792-.378-.792-.378-.792-.378H-.774C-.774-.378-.792-.378-.774-.378H0V0" fill-rule="evenodd"/><path transform="matrix(0,1,1,0,587.235,78.39)" d="M0 0V.342H.306V0H.9C.936 0 .972 .018 1.008 .036 1.026 .054 1.044 .09 1.044 .144 1.044 .162 1.044 .198 1.044 .216 1.044 .252 1.026 .288 1.008 .324L1.314 .396C1.368 .324 1.386 .198 1.386 0 1.386-.108 1.368-.198 1.296-.252 1.242-.324 1.17-.36 1.044-.36H.306V-.576H0V-.36H-.432L-.54 0H0" fill-rule="evenodd"/><path transform="matrix(0,1,1,0,589.125,79.488)" d="M0 0 .27-.09C.27-.198 .27-.27 .234-.324 .216-.396 .18-.432 .144-.45 .198-.486 .288-.648 .288-.774 .288-1.116 .108-1.314-.198-1.314-.342-1.314-.45-1.242-.522-1.116-.594-.99-.63-.792-.63-.522H-.702C-.756-.522-.792-.54-.81-.558-.828-.594-.846-.63-.846-.684-.846-.774-.828-.846-.81-.918-.792-.99-.756-1.044-.702-1.098L-.954-1.278C-1.098-1.152-1.17-.954-1.17-.702-1.17-.54-1.152-.396-1.08-.306-1.026-.216-.918-.162-.792-.144H-.09C-.036-.126 0-.09 0 0ZM-.18-.918C-.126-.936-.09-.918-.072-.882-.036-.846-.036-.792-.036-.702-.036-.612-.072-.558-.126-.522H-.36C-.342-.666-.342-.756-.306-.828-.27-.882-.234-.918-.18-.918" fill-rule="evenodd"/><path transform="matrix(0,1,1,0,589.665,77.85)" d="M0 0H1.512 1.53C1.53 0 1.53 0 1.53 0 1.548 .018 1.566 .108 1.53 .252L1.854 .288C1.872 .288 1.872 .288 1.872 .27 1.872 .252 1.89 .234 1.89 .198 1.89 .144 1.89 .072 1.89 0 1.89-.18 1.8-.324 1.656-.36 1.638-.36 1.62-.36 1.602-.36H0V0" fill-rule="evenodd"/><path transform="matrix(0,1,1,0,563.763,81.252)" d="M0 0H-.756V-.378H1.116V0H.36V.774H1.116V1.152H-.756V.774H0V.396" fill-rule="evenodd"/><path transform="matrix(0,1,1,0,566.571,81.036)" d="M0 0V-.378L.792-.63 0-.9V-1.278L1.224-.882C1.26-.864 1.296-.864 1.314-.846 1.35-.846 1.368-.846 1.386-.846 1.422-.846 1.44-.864 1.458-.9 1.458-.954 1.44-.99 1.44-1.026 1.44-1.062 1.44-1.098 1.422-1.134L1.728-1.188C1.782-1.044 1.8-.9 1.8-.756 1.8-.702 1.764-.666 1.728-.612 1.674-.558 1.62-.522 1.548-.504L0 0" fill-rule="evenodd"/><path transform="matrix(0,1,1,0,567.957,82.422)" d="M0 0H-1.386V-.36H-1.332C-1.404-.36-1.458-.486-1.458-.666-1.44-1.044-1.188-1.242-.72-1.242-.324-1.206-.108-1.008-.108-.666-.09-.612-.108-.54-.126-.486-.144-.432-.162-.396-.198-.378H-.126C0-.396 .072-.468 .09-.576 .09-.63 .072-.702 .054-.792 .036-.864-.018-.972-.054-1.08L.234-1.242C.342-1.098 .432-.846 .45-.612 .45-.234 .288-.018 0 0ZM-.9-.378H-.612C-.558-.396-.504-.414-.486-.45-.45-.486-.432-.54-.414-.594-.432-.756-.54-.864-.756-.882-.954-.864-1.08-.774-1.098-.612-1.08-.468-1.008-.396-.9-.378" fill-rule="evenodd"/><path transform="matrix(0,1,1,0,0,0)" d="M81.036 568.335H82.368007V568.677H81.036Z"/><path transform="matrix(0,1,1,0,568.713,80.676)" d="M0 0C-.108 0-.198-.09-.198-.198-.198-.324-.108-.414 0-.414 .126-.414 .216-.324 .216-.198 .216-.09 .126 0 0 0" fill-rule="evenodd"/><path transform="matrix(0,1,1,0,570.225,81.828)" d="M0 0C-.558 0-.828-.198-.864-.63-.846-1.008-.612-1.206-.144-1.242 .054-1.242 .216-1.188 .342-1.098 .504-.954 .594-.756 .594-.558 .594-.468 .576-.36 .54-.252 .486-.144 .414-.072 .36-.054L.126-.27C.216-.324 .252-.45 .252-.558 .27-.63 .252-.702 .198-.756 .162-.792 .126-.81 .09-.828 .072-.846 .036-.846 0-.846V0ZM-.288-.864C-.342-.864-.396-.828-.45-.792-.504-.738-.522-.666-.522-.612-.522-.504-.432-.396-.324-.36H-.288V-.864" fill-rule="evenodd"/><path transform="matrix(0,1,1,0,571.719,82.368)" d="M0 0H-.954C-1.242 0-1.404-.18-1.404-.522-1.404-.594-1.386-.648-1.368-.702-1.35-.756-1.314-.792-1.278-.828H-1.368V-1.206H0V-.828H-.846C-.972-.81-1.044-.72-1.062-.576-1.044-.45-.972-.378-.846-.378H-.81-.792C-.792-.378-.792-.378-.792-.378H0V0" fill-rule="evenodd"/><path transform="matrix(0,1,1,0,573.285,81.828)" d="M0 0C-.558 0-.828-.198-.864-.63-.846-.99-.612-1.206-.144-1.242 .054-1.242 .216-1.188 .342-1.098 .504-.954 .594-.756 .594-.558 .594-.468 .576-.342 .54-.252 .486-.144 .414-.072 .36-.054L.126-.27C.216-.324 .252-.45 .252-.558 .27-.63 .252-.702 .198-.756 .162-.792 .126-.81 .09-.828 .072-.846 .036-.846 0-.846V0ZM-.288-.864C-.342-.864-.396-.828-.45-.774-.504-.738-.522-.666-.522-.612-.522-.504-.432-.396-.324-.36H-.288V-.864" fill-rule="evenodd"/><path transform="matrix(0,1,1,0,575.103,82.368)" d="M0 0V-.774H-1.872V0C-1.872 .234-1.782 .414-1.602 .558-1.44 .702-1.206 .774-.936 .774-.666 .774-.432 .702-.27 .558-.09 .414 0 .234 0 0ZM-1.458-.378H-.414V-.072-.054C-.414-.054-.414-.072-.414-.054-.414-.018-.414 .018-.414 .036V.072C-.414 .072-.414 .072-.414 .072-.45 .252-.666 .378-.936 .378-1.188 .378-1.404 .27-1.458 .09V.072C-1.458 .072-1.458 .09-1.458 .072-1.458 .036-1.458-.018-1.458-.036V-.072C-1.458-.072-1.458-.072-1.458-.072V-.378" fill-rule="evenodd"/><path transform="matrix(0,1,1,0,577.407,81.828)" d="M0 0C-.558 0-.828-.198-.864-.63-.846-.99-.612-1.206-.144-1.242 .054-1.242 .216-1.188 .342-1.098 .504-.954 .594-.756 .594-.558 .594-.468 .576-.342 .54-.252 .486-.144 .414-.072 .36-.054L.126-.27C.216-.324 .252-.45 .252-.558 .27-.63 .252-.702 .198-.756 .162-.792 .126-.81 .09-.828 .072-.846 .036-.846 0-.846V0ZM-.288-.864C-.342-.864-.396-.828-.45-.774-.504-.738-.522-.666-.522-.612-.522-.504-.432-.396-.324-.36H-.288V-.864" fill-rule="evenodd"/><path transform="matrix(0,1,1,0,578.991,81.684)" d="M0 0C-.45 0-.72-.234-.72-.63-.72-.684-.702-.774-.684-.846-.666-.9-.648-.954-.612-.954H-.666V-1.296H1.134V-.936H.63C.684-.9 .738-.756 .738-.612 .738-.45 .684-.288 .54-.162 .396-.054 .198 0 0 0ZM.396-.666C.396-.72 .36-.792 .324-.846 .27-.9 .216-.936 .162-.936H-.198C-.288-.936-.378-.81-.378-.684L-.396-.666V-.648C-.396-.612-.378-.558-.342-.504-.324-.45-.27-.396-.216-.378H.198C.252-.396 .306-.45 .342-.504 .378-.558 .396-.63 .396-.666" fill-rule="evenodd"/><path transform="matrix(0,1,1,0,580.521,82.134)" d="M0 0 .27-.09C.27-.198 .27-.27 .252-.324 .216-.378 .18-.414 .144-.432 .216-.468 .288-.648 .288-.774 .288-1.116 .108-1.314-.198-1.314-.486-1.314-.63-1.044-.63-.522H-.684C-.738-.522-.774-.54-.81-.558-.828-.594-.846-.63-.828-.684-.846-.774-.828-.846-.81-.918-.774-.972-.738-1.044-.684-1.098L-.954-1.278C-1.098-1.134-1.17-.936-1.17-.702-1.17-.522-1.152-.396-1.08-.306-1.008-.198-.918-.144-.774-.126H-.09C-.036-.126 0-.09 0 0ZM-.18-.918C-.126-.918-.09-.9-.072-.864-.036-.828-.018-.774-.036-.702-.036-.612-.072-.558-.126-.522H-.342C-.342-.648-.324-.756-.306-.81-.27-.882-.234-.918-.18-.918" fill-rule="evenodd"/><path transform="matrix(0,1,1,0,580.773,82.368)" d="M0 0H-1.368V.342H-1.224C-1.296 .378-1.332 .432-1.368 .504-1.386 .576-1.404 .666-1.404 .774H-1.026C-1.008 .648-.99 .54-.954 .486-.9 .414-.864 .378-.792 .36H0V0" fill-rule="evenodd"/><path transform="matrix(0,1,1,0,582.285,81.036)" d="M0 0V.342H.306V0H.9C.954 0 .99 .018 1.008 .036 1.026 .054 1.044 .09 1.062 .144 1.062 .162 1.062 .198 1.044 .234 1.044 .252 1.026 .288 1.026 .342L1.332 .396C1.368 .324 1.404 .198 1.404 0 1.404-.108 1.368-.18 1.314-.252 1.242-.306 1.17-.342 1.062-.36H.306V-.576H0V-.36H-.432L-.54 0H0" fill-rule="evenodd"/><path transform="matrix(0,1,1,0,584.301,81.342)" d="M0 0C0-.108 .09-.234 .18-.234H1.026V-.594H.108C.036-.612 0-.684 0-.774 0-.882 .09-1.008 .18-1.008H1.026V-1.386H-.324V-1.026H-.27C-.306-.972-.324-.918-.342-.864-.36-.828-.378-.756-.378-.702-.378-.54-.306-.414-.198-.342-.306-.252-.378-.126-.378 .036-.36 .288-.252 .45-.054 .522-.036 .522-.036 .54-.018 .54H0C0 .54-.018 .54 0 .54H.018C.018 .54 0 .54 .018 .54 .018 .54 .036 .54 .054 .54H1.026V.18H.108C.09 .18 .072 .18 .072 .162 .054 .162 .036 .144 .018 .126 0 .09 0 .054 0 0" fill-rule="evenodd"/><path transform="matrix(0,1,1,0,586.407,81.828)" d="M0 0C-.558 .018-.828-.198-.864-.63-.846-.99-.612-1.188-.144-1.224 .054-1.224 .216-1.17 .342-1.08 .504-.936 .594-.738 .594-.558 .612-.324 .504-.09 .36-.036L.126-.252C.216-.306 .252-.432 .252-.558 .27-.612 .252-.702 .198-.756 .162-.774 .126-.81 .09-.81 .072-.828 .036-.846 0-.846V0ZM-.288-.864C-.342-.846-.396-.828-.45-.774-.504-.72-.522-.666-.522-.612-.522-.504-.432-.378-.324-.36H-.288V-.864" fill-rule="evenodd"/><path transform="matrix(0,1,1,0,587.919,82.368)" d="M0 0H-.954C-1.242-.018-1.404-.18-1.404-.522-1.404-.594-1.386-.648-1.368-.702-1.35-.756-1.314-.81-1.278-.846H-1.368V-1.224H0V-.846H-.846C-.972-.81-1.044-.738-1.062-.594-1.044-.468-.972-.396-.846-.378H-.81-.792C-.792-.378-.792-.378-.792-.378H0V0" fill-rule="evenodd"/><path transform="matrix(0,1,1,0,588.765,81.036)" d="M0 0V.342H.306V0H.9C.954 0 .99 .018 1.008 .036 1.026 .054 1.044 .09 1.062 .144 1.062 .162 1.062 .198 1.044 .216 1.044 .252 1.026 .288 1.026 .342L1.332 .396C1.368 .324 1.404 .198 1.404 0 1.404-.108 1.368-.198 1.314-.252 1.242-.306 1.17-.342 1.062-.36H.306V-.576H0V-.36H-.432L-.54 0H0" fill-rule="evenodd"/><path transform="matrix(0,1,1,0,568.533,85.014)" d="M0 0-1.332-.45V-.054L-.432 .216-1.332 .504V.9L0 .45V.216" fill-rule="evenodd"/><path transform="matrix(0,1,1,0,570.801,84.474)" d="M0 0C-.54 .018-.828-.198-.864-.63-.846-.99-.612-1.188-.144-1.224 .054-1.224 .216-1.17 .342-1.08 .522-.936 .594-.738 .594-.558 .612-.45 .594-.342 .54-.234 .486-.126 .414-.054 .36-.036L.126-.252C.216-.306 .252-.432 .27-.558 .27-.612 .252-.684 .198-.756 .162-.774 .144-.81 .108-.81 .072-.828 .036-.846 0-.846V0ZM-.27-.864H-.288C-.342-.846-.396-.828-.45-.774-.504-.72-.522-.666-.522-.594-.522-.504-.432-.378-.324-.36H-.288L-.27-.342V-.864" fill-rule="evenodd"/><path transform="matrix(0,1,1,0,571.449,83.736)" d="M0 0C-.126 .144-.162 .36-.072 .54-.018 .63 .036 .702 .126 .756 .216 .81 .306 .846 .396 .846H1.278V.468H.468C.414 .468 .36 .45 .306 .396 .27 .36 .234 .288 .234 .234 .234 .18 .27 .126 .306 .072 .36 .036 .414 .018 .468 .018H1.278V-.36H-.576V0H0" fill-rule="evenodd"/><path transform="matrix(0,1,1,0,0,0)" d="M83.682 572.691H85.014V573.03298H83.682Z"/><path transform="matrix(0,1,1,0,573.087,83.34)" d="M0 0C-.126 0-.216-.108-.216-.216-.216-.342-.126-.432 0-.432 .108-.432 .198-.342 .198-.216 .198-.108 .108 0 0 0" fill-rule="evenodd"/><path transform="matrix(0,1,1,0,573.969,83.61)" d="M0 0C0 .144 .036 .27 .108 .378 .18 .486 .288 .558 .414 .612L.558 .306C.414 .252 .342 .144 .342 0 .36-.144 .468-.252 .648-.288 .684-.288 .702-.288 .738-.288 .756-.288 .792-.288 .828-.27H.846C1.026-.234 1.116-.126 1.134 .018 1.134 .09 1.116 .144 1.08 .198 1.044 .234 .972 .27 .9 .306L1.026 .612C1.332 .522 1.476 .342 1.458 .036 1.458-.414 1.206-.63 .738-.648 .252-.612 .018-.396 0 0" fill-rule="evenodd"/><path transform="matrix(0,1,1,0,575.121,83.16)" d="M0 0H1.494 1.512C1.512 0 1.512 0 1.512 0 1.548 .018 1.548 .108 1.53 .252L1.854 .288C1.854 .288 1.872 .27 1.872 .198 1.89 .144 1.89 .072 1.89 0 1.89-.18 1.8-.324 1.656-.36 1.62-.36 1.602-.36 1.602-.36 1.584-.36 1.566-.36 1.566-.36H0V0" fill-rule="evenodd"/><path transform="matrix(0,1,1,0,576.813,84.474)" d="M0 0C-.54 .018-.828-.198-.864-.63-.846-.99-.612-1.188-.144-1.224 .054-1.224 .216-1.188 .342-1.08 .522-.936 .594-.738 .594-.558 .612-.468 .594-.342 .54-.234 .486-.126 .414-.072 .36-.036L.126-.252C.216-.306 .252-.432 .27-.558 .27-.63 .252-.702 .198-.756 .162-.792 .144-.81 .108-.828 .072-.846 .036-.846 0-.846V0ZM-.27-.864H-.288C-.342-.864-.396-.828-.45-.774-.504-.72-.522-.666-.522-.612-.522-.504-.432-.378-.324-.36H-.27V-.864" fill-rule="evenodd"/><path transform="matrix(0,1,1,0,578.199,84.6)" d="M0 0C-.252 .018-.414-.126-.45-.432-.468-.522-.468-.594-.486-.648-.504-.666-.504-.684-.522-.702-.522-.702-.54-.72-.558-.72-.63-.72-.666-.648-.684-.522-.666-.468-.666-.414-.63-.36-.612-.306-.576-.27-.522-.234L-.774-.018C-.918-.108-.99-.27-1.008-.504-.99-.882-.846-1.08-.522-1.098-.288-1.08-.162-.936-.126-.702-.108-.486-.072-.396 .018-.396 .054-.396 .09-.396 .108-.432 .126-.45 .126-.486 .144-.54 .126-.612 .108-.684 .09-.756 .054-.81 .018-.882-.054-.936L.198-1.188C.378-1.044 .468-.828 .468-.558 .468-.198 .306 0 0 0" fill-rule="evenodd"/><path transform="matrix(0,1,1,0,580.377,84.348)" d="M0 0C-.234 0-.414-.054-.54-.18-.666-.288-.738-.468-.738-.666-.738-.864-.666-1.044-.54-1.152-.414-1.26-.234-1.314 0-1.314 .234-1.314 .414-1.26 .54-1.152 .666-1.044 .72-.864 .72-.666 .72-.468 .666-.288 .54-.18 .414-.054 .234 0 0 0ZM0-.396C.234-.396 .36-.486 .36-.666 .36-.756 .324-.81 .27-.864 .198-.918 .108-.936 0-.936-.234-.936-.36-.828-.36-.666-.36-.576-.324-.504-.27-.468-.198-.414-.108-.396 0-.396" fill-rule="evenodd"/><path transform="matrix(0,1,1,0,581.853,85.014)" d="M0 0H-.954C-1.242-.018-1.404-.18-1.404-.522-1.404-.594-1.386-.648-1.368-.702-1.35-.756-1.314-.81-1.278-.846H-1.35V-1.224H0V-.846H-.828C-.972-.81-1.044-.738-1.062-.594-1.044-.468-.972-.396-.828-.378H-.81-.792C-.792-.378-.81-.378-.792-.378H0V0" fill-rule="evenodd"/><path transform="matrix(0,1,1,0,582.555,83.16)" d="M0 0H1.494 1.512C1.512 0 1.512 0 1.512 0 1.548 0 1.548 .09 1.53 .234L1.854 .27C1.854 .27 1.872 .252 1.872 .18 1.89 .126 1.89 .054 1.89 0 1.89-.198 1.8-.342 1.656-.36 1.62-.378 1.602-.378 1.602-.378 1.584-.378 1.566-.378 1.566-.378H0V0" fill-rule="evenodd"/><path transform="matrix(0,1,1,0,584.247,83.682)" d="M0 0V-.396L.81-.648 0-.9V-1.296L1.224-.882C1.26-.882 1.296-.864 1.314-.864 1.35-.864 1.368-.864 1.386-.864 1.422-.864 1.44-.882 1.458-.918 1.458-.954 1.458-.99 1.44-1.044 1.44-1.08 1.44-1.116 1.44-1.152L1.728-1.206C1.782-1.062 1.8-.9 1.8-.756 1.8-.72 1.782-.666 1.728-.63 1.674-.576 1.62-.54 1.548-.522L0 0" fill-rule="evenodd"/><path transform="matrix(0,1,1,0,563.799,95.49)" d="M0 0 .162 .198-.216 .504-.54 .684-.558 .738-.594 .756-.63 .72-.666 .648-.702 .486-.342 .288" fill-rule="evenodd"/><path transform="matrix(0,1,1,0,563.781,96.246)" d="M0 0 .162 .198 0 .324H1.188V.594H-.36L-.594 .72-.63 .756H-.648L-.684 .738-.702 .684-.774 .504-.342 .27" fill-rule="evenodd"/><path transform="matrix(0,1,1,0,564.627,95.094)" d="M0 0V.288L.18 .234V-.09H.432V1.242H.18V1.062H-.216V.612L-.27 .63-.324 .684-.36 .666-.378 .63-.432 .414-.216 .342V0H0ZM.18 .504 0 .558V.792H.18V.504" fill-rule="evenodd"/><path transform="matrix(0,1,1,0,564.681,95.652)" d="M0 0H.612V1.008H0ZM.396 .27H.21598999V.73802H.396Z" fill-rule="evenodd"/><path transform="matrix(0,1,1,0,0,0)" d="M94.968 565.833H95.201999V566.571H94.968Z"/><path transform="matrix(0,1,1,0,565.797,95.904)" d="M0 0V.342H1.188L1.242 .306 1.26 .27 1.278 .198V0L1.548 .108V.27L1.53 .432 1.458 .54 1.35 .612H0V.828H-.27V0" fill-rule="evenodd"/><path transform="matrix(0,1,1,0,564.519,96.39)" d="M0 0V1.368H.18V.828H.324V1.26H.756V1.008H.504V.828H1.062V.558H.504V.378H.756V.126H.324V.558H.18V0" fill-rule="evenodd"/><path transform="matrix(0,1,1,0,574.851,88.974)" d="M0 0V1.332L-.882 .432V3.978H-1.764V.432L-2.646 1.332V0L-1.332-1.332" fill-rule="evenodd"/><path transform="matrix(0,1,1,0,565.689,91.206)" d="M0 0V.846L.216 .666 .414 .45 .612 .198 .792-.09 .99 .09 .738 .468H1.944V.756H.684L.99 1.116 .828 1.296 .612 1.062 .414 .828 .126 1.062-.198 1.242-.288 1.17V.756H-.666L-.702 .792H-.738L-.774 .756-.792 .666-.81 .468H-.288V0" fill-rule="evenodd"/><path transform="matrix(0,1,1,0,567.021,90.594)" d="M0 0H2.124L2.178-.216 2.466-.144 2.484-.108V-.072L2.43-.036 2.106 .684H1.872L2.034 .27H1.08V.612L1.512 .666C1.803 .709 3.17 1.124 2.196 1.404L2.016 1.44 1.854 1.242 2.052 1.224 2.16 1.188 2.178 1.152 2.088 1.098 1.836 1.008 1.332 .9 1.08 .882V1.35H.81V.864H.198L.126 1.17 .108 1.26 .09 1.314H.054L0 1.26-.144 1.098-.018 .612 .054 .162 0 0ZM.81 .27H.306L.252 .594H.81V.27" fill-rule="evenodd"/><path transform="matrix(0,1,1,0,569.739,91.278)" d="M0 0-.198 .198-.414 0-.576-.216-.396-.414-.198-.198" fill-rule="evenodd"/><path transform="matrix(0,1,1,0,569.289,92.772)" d="M0 0 .126 .162 .18 .234 .198 .288 .162 .324 .108 .342-.288 .522-.72 .756-.936 .576-.432 .324" fill-rule="evenodd"/><path transform="matrix(0,1,1,0,569.793,91.53)" d="M0 0 .198 .216-.162 .504H1.602V.792H1.404V2.268H1.152V1.566H.828V2.106H.576V1.566H.288V2.106H.036V1.566H-.27V2.232H-.522V1.584L-.828 1.71-.864 1.782-.9 1.818-.936 1.782-.972 1.692-1.026 1.476-.522 1.242V.738L-.864 .936-.9 1.008-.936 1.026-.972 .99-1.008 .918-1.116 .72-.81 .576-.504 .396-.234 .216 0 0ZM.576 .792H.28800998V1.31397H.576ZM.036 .792H-.26999999V1.31397H.036ZM1.152 .792H.82798996V1.31397H1.152Z" fill-rule="evenodd"/><path transform="matrix(0,1,1,0,572.925,91.296)" d="M0 0 .198 .234 0 .594-.198 .918H-.036V1.872H-.18L.018 2.214 .18 2.592-.09 2.808-.18 2.466-.306 2.16-.486 1.872-.72 1.602V1.656L-.756 1.674-.774 1.638-.81 1.566-.882 1.386-.594 1.08-.36 .738-.162 .396 0 0ZM-.252 1.764V1.008L-.594 1.44-.414 1.584-.252 1.764" fill-rule="evenodd"/><path transform="matrix(0,1,1,0,573.537,92.826)" d="M0 0 .054-.378 .252-.324 .342-.288 .378-.252V-.216L.324-.198 .054 .828H-.144L.018 1.062 .162 1.332 .252 1.62 .324 1.926 .072 2.178 .018 1.782-.072 1.44-.324 1.944V2.016L-.342 2.034-.396 2.016-.45 1.98-.594 1.818-.432 1.584H-1.404V0H0ZM-.414 .882V1.566L-.216 1.17-.306 1.008-.414 .882ZM-.054 .288H-.414V.576L-.162 .81-.054 .288ZM-.666 .288H-.81V1.314H-.666ZM-1.026 .288H-1.1700001V1.314H-1.026Z" fill-rule="evenodd"/><path transform="matrix(0,1,1,0,577.227,90.414)" d="M0 0H.612V-.198L.45-.162 .396-.09H.342L.324-.108 .288-.18 .234-.396 .738-.504 1.188-.684 1.296-.378 .882-.252V0H1.494L1.674-.594 1.872-.522 1.944-.486 1.98-.45 1.962-.396 1.89-.342 1.764 0H2.718V.288H1.656L1.548 .594H1.26L1.386 .288H.882V.594L1.044 .486 1.188 .72 1.026 .846 .81 .99V1.818H1.17L1.08 1.548 1.458 1.404 1.8 1.206 2.142 .936 2.484 .612 2.628 .846 2.34 1.134 2.016 1.386 1.656 1.584 1.26 1.746 1.224 1.818 1.71 1.8 2.106 1.764 2.232 1.728 2.322 1.692 2.376 1.602 2.394 1.494 2.412 1.26 2.7 1.386 2.682 1.566C3.037 2.127 1.571 2.072 1.368 2.106H.54V1.116L.198 1.242 .162 1.296 .126 1.332 .09 1.314 .072 1.26 0 1.044 .45 .864 .846 .63H.612V.288H.144L.09 .324H.054L.018 .27 0 .162" fill-rule="evenodd"/><path transform="matrix(0,1,1,0,578.541,91.35)" d="M0 0-.054-.162 .234-.27 .504-.432 .738-.63 .954-.864 1.098-.63 .9-.432 .666-.252 .396-.108 .126 .018 .108 .09 .072 .108 .036 .072" fill-rule="evenodd"/><path transform="matrix(0,1,1,0,580.305,90.702)" d="M0 0H.234V.342H.756V.036H1.008V.342H1.674L1.782-.036 1.98 .018 2.052 .036 2.088 .072V.09L2.034 .126 1.71 .936H1.494L1.602 .612H1.008V.882H.756V.612H.234V.9H0" fill-rule="evenodd"/><path transform="matrix(0,1,1,0,581.349,90.486)" d="M0 0H.68399V1.548H0ZM.486 .252H.18V.41399003H.486ZM.486 .666H.18V.864H.486ZM.486 1.08H.18V1.296H.486Z" fill-rule="evenodd"/><path transform="matrix(0,1,1,0,0,0)" d="M91.314 581.223H91.49401V582.969H91.314Z"/><path transform="matrix(0,1,1,0,581.385,92.196)" d="M0 0V.36L.144 .216 .252 .036 .36-.18 .45-.396 .666-.162 .378 .306H.612L.648 .126 .828 .162 .918 .18 .954 .216V.252L.882 .288 .738 .864H.522L.576 .54H.108L0 .612V1.458H-.54V0H0ZM-.198 .27H-.36V1.18797H-.198Z" fill-rule="evenodd"/><path transform="matrix(0,1,1,0,582.843,93.132)" d="M0 0-.198 .234-.306 0-.468-.198-.594 .018V.072L-.612 .108-.648 .09-.72 .036-.846-.108-.63-.36-.9-.54-.81-.72-.558-.594-.324-.45-.144-.252" fill-rule="evenodd"/><path transform="matrix(0,1,1,0,584.301,90.486)" d="M0 0H.648V-.324H.882V0H1.746L1.836-.342 2.016-.288 2.088-.252 2.124-.216 2.106-.18 2.034-.144 1.8 .576H1.584L1.674 .27H.882V.522H.648V.27H.144L.09 .324 .054 .288 .036 .216" fill-rule="evenodd"/><path transform="matrix(0,1,1,0,585.633,90.396)" d="M0 0H.27V-.684H.486V-.378L.81-.27V-.738H1.026V1.044H.81V.558L.486 .684V.954H.27V.27H.126L.108 .324H.09L.054 .288 .036 .216 0 0ZM.486-.108V.432L.81 .288V0L.486-.108" fill-rule="evenodd"/><path transform="matrix(0,1,1,0,585.093,91.566)" d="M0 0H.918V.306L1.098 .252 1.224 .108 1.314-.108 1.332-.414 1.566-.234 1.548-.054C1.513 .196 1.331 .487 1.062 .522L.918 .558V.774H1.386L1.458 .792 1.53 .846 1.548 .936 1.566 1.062V1.26L1.548 1.422 1.476 1.53 1.35 1.602 1.152 1.656 1.08 1.404 1.206 1.386 1.296 1.35 1.35 1.296 1.368 1.224V1.134L1.35 1.062 1.278 1.044H.918V1.35H0V0ZM.378 .252H.21599999V1.062H.378ZM.738 .252H.576V1.062H.738Z" fill-rule="evenodd"/><path transform="matrix(0,1,1,0,568.353,94.896)" d="M0 0-.09-.252 .27-.378 .558-.504 .81-.666 1.026-.846 1.224-.576 .972-.396 .72-.234V.468H1.242V-.324H1.53V.468H2.142V-.756H2.43V1.836H2.142V.792H1.53V1.566H1.242V.792H.72V1.674H.432V.792H-.054L-.09 .846H-.126L-.162 .81-.18 .72V.468H.432V-.108L.126 0 .09 .072 .072 .09 .036 .072" fill-rule="evenodd"/><path transform="matrix(0,1,1,0,571.359,94.77)" d="M0 0H.64799V2.34H0ZM.432 .954H.23400001V1.36794H.432ZM.432 .27H.23400001V.684H.432ZM.432 1.638H.23400001V2.052H.432Z" fill-rule="evenodd"/><path transform="matrix(0,1,1,0,573.573,96.39)" d="M0 0V-.99L-.072-.792-.144-.63V.306H-.378V-.36L-.54-.198-.72-.036-.738 .018-.774 .054-.81 .018-.846-.054-.9-.252-.648-.468H-.774V-1.08H-.828L-.864-1.044H-.882L-.918-1.062V-1.116L-.936-1.332H-.774V-2.07H-.558V-1.332H-.378V-2.412H-.144V-1.17L.072-1.764 .216-2.412 .45-2.286 .396-2.016 .306-1.764H1.062V-1.476H.99V-.288H1.062V0H0ZM-.378-1.08H-.558V-.558L-.378-.774V-1.08ZM.378-1.476H.21599999V-.288H.378ZM.756-1.476H.59401V-.288H.756Z" fill-rule="evenodd"/><path transform="matrix(0,1,1,0,574.977,94.986)" d="M0 0H.234V1.08H.45V.288H1.584V1.08H1.8V-.108H2.052V1.08H2.448V1.332H2.052V2.52H1.8V1.332H1.584V2.16H.45V1.332H.234V2.394H0V1.332H-.144L-.198 1.386-.234 1.368-.252 1.332-.288 1.08H0V0ZM.9 .54H.68399998V1.07998H.9ZM1.368 .54H1.13399V1.07998H1.368ZM.9 1.332H.68399998V1.90799H.9ZM1.368 1.332H1.13399V1.90799H1.368Z" fill-rule="evenodd"/><path transform="matrix(0,1,1,0,578.451,95.256)" d="M0 0V.414H.198V.054H1.314V.414H1.494V-.018H1.746V.414H2.178V.666H1.746V1.08H1.494V.666H1.314V1.044H.198V.666H0V1.062H-.252V.666H-.432L-.468 .702H-.486L-.522 .666V.414H-.252V0H0ZM.63 .666H.43199999V.79204H.63ZM1.062 .666H.86399009V.79204H1.062ZM.63 .288H.43199999V.41403998H.63ZM1.062 .288H.86399009V.41403998H1.062Z" fill-rule="evenodd"/><path transform="matrix(0,1,1,0,579.621,95.13)" d="M0 0V.666H.27V.018H2.304V.27H1.62L1.692 .342 1.404 .45 1.566 .504 1.674 .558 1.584 .666H2.268V.918H1.584L1.656 1.026 1.422 1.116 1.656 1.206 1.584 1.314H2.016L2.07 1.296 2.088 1.26V1.062L2.322 1.134V1.422L2.268 1.512 2.196 1.548 2.07 1.566H.27V.918H0V1.584H-.27V0H0ZM1.422 .27H1.008V.378L1.206 .342 1.422 .27ZM1.458 .918H1.008V1.044L1.224 1.008 1.458 .918ZM.774 1.26V.918H.54V1.314H1.476L1.206 1.26H.774ZM.774 .594V.27H.54V.666H1.476L1.224 .594H.774" fill-rule="evenodd"/><path transform="matrix(0,1,1,0,582.051,95.976)" d="M0 0 .198 .198-.09 .396H1.44V.666H-.558L-1.008 .864-1.026 .918-1.062 .954H-1.098L-1.134 .936-1.26 .666-.918 .522-.594 .36-.288 .18" fill-rule="evenodd"/><path transform="matrix(0,1,1,0,582.969,95.058)" d="M0 0H.252V.774H.486V.072H1.386V.36H1.314V.738L1.512 .72 1.692 .648 1.404 .414 1.53 .198 1.71 .324 1.89 .486 2.016 .216 2.106-.162 2.376 .036 2.25 .414 2.052 .684 2.214 .936 2.304 1.206 2.358 1.476V1.764L2.088 1.926V1.62L2.052 1.35 1.962 1.098 1.854 .864 1.62 .954 1.314 1.008V1.44H1.476V1.71H.486V1.044H.252V1.818H0V1.044H-.216L-.27 1.098-.324 1.062-.342 .774H0V0ZM.72 1.044V1.44H1.08V1.026L.72 1.044ZM1.08 .342H.72V.77401H1.08Z" fill-rule="evenodd"/><path transform="matrix(0,1,1,0,586.155,94.842)" d="M0 0H.828L1.368-.018 1.8-.09 2.142-.216 2.376-.396 2.574-.126 2.376 .018 2.16 .126 1.926 .198 1.656 .252V.882H2.448V1.17H1.656V1.818H2.178L2.232 1.782 2.286 1.728 2.304 1.62V1.404L2.574 1.512V1.674L2.556 1.872 2.502 2.016 2.376 2.106 2.196 2.124H0V0ZM.702 .306H.28800003V.88205H.702ZM1.404 .882V.288L.972 .306V.882H1.404ZM.702 1.17H.28800003V1.81801H.702ZM1.404 1.17H.97199007V1.81801H1.404Z" fill-rule="evenodd"/></g></svg>