<?xml version='1.0' encoding='UTF-8'?>
<svg xmlns="http://www.w3.org/2000/svg" xmlns:xlink="http://www.w3.org/1999/xlink" xmlns:inkscape="http://www.inkscape.org/namespaces/inkscape" version="1.1" width="566.700" height="269.280" viewBox="0 0 566.700 269.280"><g transform="scale(10.0) translate(-56.655, -235.728)"><path transform="matrix(1,0,0,-1,0,595.276)" d="M60.24 356.596H109.8C110.04 356.596 110.28 356.476 110.52 356.356 110.88 356.236 111.12 356.116 111.24 355.876 111.48 355.636 111.72 355.396 111.72 355.156 111.84 354.916 111.96 354.676 111.96 354.436V337.516C111.96 337.036 111.72 336.436 111.24 336.076 110.88 335.596 110.28 335.356 109.8 335.356H60.24C59.76 335.356 59.16 335.596 58.68 336.076 58.32 336.436 58.08 337.036 58.08 337.516V354.436C58.08 355.516 59.04 356.596 60.24 356.596Z" fill="#ffffff" fill-rule="evenodd"/><path transform="matrix(1,0,0,-1,0,595.276)" d="M109.8 355.516H60.24C60.12 355.516 60 355.396 59.88 355.396 59.76 355.276 59.64 355.276 59.52 355.156 59.4 355.036 59.28 354.916 59.28 354.796 59.16 354.676 59.16 354.556 59.16 354.436V337.516C59.16 337.276 59.28 337.036 59.52 336.796 59.64 336.676 59.76 336.556 59.88 336.556 60 336.436 60.12 336.436 60.24 336.436H109.8C110.04 336.436 110.28 336.556 110.52 336.796 110.64 336.916 110.76 337.036 110.76 337.156 110.88 337.276 110.88 337.396 110.88 337.516V354.436C110.88 355.036 110.4 355.516 109.8 355.516Z" fill="#0000ff" fill-rule="evenodd"/><path transform="matrix(1,0,0,-1,0,595.276)" d="M69.36 348.796H72V349.516H69.96V350.596H71.76V351.196H69.96V352.276H71.88V352.876H69.36Z" fill="#ffffff" fill-rule="evenodd"/><path transform="matrix(1,0,0,-1,0,595.276)" d="M74.64 350.956 75.84 352.876H75.12L74.28 351.676 73.56 352.876H72.72L73.92 350.956 72.6 348.796H73.32L74.28 350.356 75.24 348.796H75.96Z" fill="#ffffff" fill-rule="evenodd"/><path transform="matrix(1,0,0,-1,0,595.276)" d="M78.48 352.876C78.84 352.876 79.08 352.756 79.32 352.516 79.44 352.276 79.56 351.916 79.56 351.556 79.56 351.316 79.44 350.956 79.32 350.716 79.08 350.476 78.84 350.356 78.48 350.356H77.52V348.796H76.8V352.876H78.48ZM77.52 352.276V350.956H78.36C78.48 350.956 78.6 350.956 78.72 351.196 78.84 351.316 78.84 351.436 78.84 351.556 78.84 351.796 78.84 351.916 78.72 352.036 78.72 352.156 78.6 352.156 78.6 352.276 78.48 352.276 78.36 352.276 78.36 352.276H77.52Z" fill="#ffffff" fill-rule="evenodd"/><path transform="matrix(1,0,0,-1,0,595.276)" stroke-width=".12" stroke-linecap="butt" stroke-miterlimit="10" stroke-linejoin="miter" fill="none" stroke="#ffffff" d="M80.5 348.5V352.5"/><path transform="matrix(1,0,0,-1,0,595.276)" d="M83.52 348.796 82.68 350.476C83.16 350.596 83.52 351.196 83.4 351.796 83.28 352.396 82.92 352.876 82.32 352.876H80.52V348.796H81.24V350.356H81.96L82.68 348.796H83.52ZM81.24 350.956V352.276H82.2C82.44 352.276 82.68 352.036 82.68 351.676 82.68 351.436 82.68 351.316 82.56 351.196 82.44 351.076 82.32 350.956 82.2 350.956H81.24Z" fill="#ffffff" fill-rule="evenodd"/><path transform="matrix(1,0,0,-1,0,595.276)" d="M83.52 348.796V348.796Z" fill="#ffffff" fill-rule="evenodd"/><path transform="matrix(1,0,0,-1,0,595.276)" d="M84.6 348.796H87.24V349.516H85.32V350.596H87V351.196H85.32V352.276H87.24V352.876H84.6Z" fill="#ffffff" fill-rule="evenodd"/><path transform="matrix(1,0,0,-1,0,595.276)" stroke-width=".12" stroke-linecap="butt" stroke-miterlimit="10" stroke-linejoin="miter" fill="none" stroke="#ffffff" d="M90.5 349.5V349.5"/><path transform="matrix(1,0,0,-1,0,595.276)" d="M90.6 351.916 91.2 352.276C90.72 352.756 90.24 352.996 89.64 352.996 89.28 352.996 88.92 352.876 88.68 352.636 88.44 352.396 88.2 352.036 88.2 351.676 88.2 351.436 88.44 351.076 88.68 350.956 88.68 350.836 88.8 350.836 88.92 350.716 89.16 350.716 89.4 350.596 89.64 350.596H89.76C90 350.596 90.36 350.476 90.48 350.236 90.6 350.116 90.6 349.876 90.6 349.756 90.48 349.516 90.12 349.396 89.76 349.396 89.4 349.396 88.92 349.516 88.68 349.996L88.08 349.516C88.2 349.396 88.44 349.276 88.56 349.156 88.92 348.916 89.28 348.796 89.76 348.796 90.12 348.796 90.6 348.916 90.84 349.156 90.96 349.276 91.08 349.396 91.2 349.516 91.2 349.636 91.2 349.636 91.2 349.756V349.876H91.32V349.996 350.116C91.32 350.236 91.32 350.236 91.2 350.236 91.2 350.476 91.08 350.716 90.96 350.836 90.84 350.956 90.72 350.956 90.6 351.076 90.6 351.076 90.48 351.076 90.36 351.076L89.4 351.316C89.4 351.316 89.28 351.316 89.16 351.436 89.04 351.436 88.92 351.556 88.92 351.676 88.92 351.916 89.04 352.036 89.16 352.156 89.28 352.276 89.4 352.276 89.64 352.276 90 352.276 90.36 352.156 90.6 351.916Z" fill="#ffffff" fill-rule="evenodd"/><path transform="matrix(1,0,0,-1,0,595.276)" stroke-width=".12" stroke-linecap="butt" stroke-miterlimit="10" stroke-linejoin="miter" fill="none" stroke="#ffffff" d="M94.5 349.5V349.5"/><path transform="matrix(1,0,0,-1,0,595.276)" d="M94.56 351.916 95.16 352.276C94.68 352.756 94.2 352.996 93.6 352.996 93.24 352.996 92.88 352.876 92.64 352.636 92.4 352.396 92.16 352.036 92.16 351.676 92.16 351.436 92.4 351.076 92.64 350.956 92.64 350.836 92.76 350.836 92.88 350.716 93.12 350.716 93.36 350.596 93.6 350.596H93.72C93.96 350.596 94.32 350.476 94.44 350.236 94.56 350.116 94.56 349.876 94.56 349.756 94.44 349.516 94.08 349.396 93.72 349.396 93.36 349.396 92.88 349.516 92.64 349.996L92.04 349.516C92.16 349.396 92.4 349.276 92.52 349.156 92.88 348.916 93.24 348.796 93.72 348.796 94.08 348.796 94.56 348.916 94.8 349.156 95.04 349.396 95.16 349.636 95.28 349.996 95.28 350.116 95.28 350.236 95.16 350.236 95.16 350.476 95.04 350.716 94.92 350.836 94.8 350.956 94.68 350.956 94.56 351.076 94.56 351.076 94.44 351.076 94.32 351.076L93.36 351.316C93.36 351.316 93.24 351.316 93.12 351.436 93 351.436 92.88 351.556 92.88 351.676 92.88 351.916 93 352.036 93.12 352.156 93.24 352.276 93.36 352.276 93.6 352.276 93.96 352.276 94.32 352.156 94.56 351.916Z" fill="#ffffff" fill-rule="evenodd"/><path transform="matrix(1,0,0,-1,0,595.276)" d="M96.96 348.796 96 352.876H96.72L97.32 349.876 98.04 352.876H98.76L99.48 349.876 100.08 352.876H100.8L99.84 348.796H99L98.4 351.796 97.68 348.796Z" fill="#ffffff" fill-rule="evenodd"/><path transform="matrix(1,0,0,-1,0,595.276)" d="M102.72 352.876 101.4 348.796H102L102.24 349.516H103.92L104.16 348.796H104.88L103.56 352.876H102.72ZM103.8 350.116H102.48L103.08 352.156 103.8 350.116Z" fill="#ffffff" fill-rule="evenodd"/><path transform="matrix(1,0,0,-1,0,595.276)" d="M105.12 352.876 106.44 350.476V348.796H107.16V350.476L108.48 352.876H107.76L106.8 351.196 105.96 352.876Z" fill="#ffffff" fill-rule="evenodd"/><path transform="matrix(1,0,0,-1,0,595.276)" d="M67.2 348.796 64.32 351.676 61.44 348.796V345.916L63.36 347.836V340.156H65.28V347.836L67.2 345.916Z" fill="#ffffff" fill-rule="evenodd"/><path transform="matrix(1,0,0,-1,0,595.276)" d="M73.68 342.196 74.28 342.076 74.4 343.036V343.996H74.52V344.116H74.4 74.28L73.92 344.236V343.156Z" fill="#ffffff" fill-rule="evenodd"/><path transform="matrix(1,0,0,-1,0,595.276)" d="M75.72 343.036 76.32 343.156 76.2 343.756 75.96 344.236 75.48 344.116Z" fill="#ffffff" fill-rule="evenodd"/><path transform="matrix(1,0,0,-1,0,595.276)" d="M76.32 344.596V343.996H77.28V342.676H75.96V342.076H77.16L76.92 341.476 76.68 340.996 76.2 340.516 75.6 340.156 76.08 339.796 76.56 340.156 77.04 340.516 77.4 341.116 77.64 341.596 77.88 341.116 78.24 340.636 78.6 340.156 79.08 339.676 79.68 340.276 79.08 340.636 78.6 341.116 78.24 341.596 78 342.076H79.68V342.676H79.2V344.596H77.88V345.316 345.436L78 345.556H77.88 77.76L77.28 345.676V344.596H76.32ZM78.6 342.676H77.76L77.88 343.996H78.6V342.676Z" fill="#ffffff" fill-rule="evenodd"/><path transform="matrix(1,0,0,-1,0,595.276)" d="M74.76 339.796H75.24V345.436H75.36V345.556H75.24L75.12 345.676H74.76Z" fill="#ffffff" fill-rule="evenodd"/><path transform="matrix(1,0,0,-1,0,595.276)" d="M82.32 345.676 81.84 345.196 82.44 344.956 82.8 344.596 83.16 345.076 82.68 345.436Z" fill="#ffffff" fill-rule="evenodd"/><path transform="matrix(1,0,0,-1,0,595.276)" d="M82.08 344.236 81.72 343.876 82.32 343.636 82.8 343.276 83.04 343.636 82.68 343.996Z" fill="#ffffff" fill-rule="evenodd"/><path transform="matrix(1,0,0,-1,0,595.276)" d="M81.84 342.796V342.316H82.56V340.996L81.6 340.396 81.84 339.916 81.96 339.796 82.08 339.676 82.2 339.796V339.916L82.68 340.396 82.92 340.156 83.16 339.916 83.64 339.796H84.36 87.6L87.84 340.396H84.72 84.12L83.64 340.516H83.4L83.28 340.756 83.16 340.876V340.996 342.796Z" fill="#ffffff" fill-rule="evenodd"/><path transform="matrix(1,0,0,-1,0,595.276)" d="M83.52 345.076V344.476H85.2V343.996H83.76V342.436H84.96L84.6 342.076 84.24 341.716 83.76 341.476 83.4 341.356 83.76 340.876 84.12 340.996 84.48 341.236 84.84 341.476 85.2 341.836V340.636H85.8V341.836L86.52 341.236 87.24 340.756 87.72 341.356 86.88 341.836 85.92 342.436H87.24V343.996H85.8V344.476H87.48V345.076H85.8V345.436L85.92 345.556 85.8 345.676H85.68 85.2V345.076H83.52ZM84.36 342.916V343.516H85.2V342.916H84.36ZM85.8 342.916V343.516H86.64V342.916H85.8Z" fill="#ffffff" fill-rule="evenodd"/><path transform="matrix(1,0,0,-1,0,595.276)" d="M91.44 344.716H90.96L90.84 344.116 90.48 343.516 90.12 343.036 89.52 342.556 90 342.196 90.6 342.676 91.08 343.156 91.32 343.756 91.56 344.356 91.8 344.476V344.596H91.68Z" fill="#ffffff" fill-rule="evenodd"/><path transform="matrix(1,0,0,-1,0,595.276)" d="M92.52 343.276 92.04 343.516 91.56 341.956 90.96 340.636H90L90.12 340.036 90.24 339.796V339.676L90.36 339.796 90.48 339.916 94.2 340.396 94.56 339.796 95.16 340.156 94.92 340.636 94.56 341.236 94.08 341.716 93.6 342.196 93.12 341.836 93.96 340.876 91.56 340.636 92.52 342.916H92.76V343.036L92.64 343.156Z" fill="#ffffff" fill-rule="evenodd"/><path transform="matrix(1,0,0,-1,0,595.276)" d="M91.68 345.436V344.836H93.12L93.24 344.236 93.6 343.516 94.2 342.916 95.04 342.196 95.64 342.676 95.28 342.916 94.8 343.276 94.44 343.516 94.2 343.876 93.96 344.236 93.84 344.596 93.72 344.956V345.436Z" fill="#ffffff" fill-rule="evenodd"/><path transform="matrix(1,0,0,-1,0,595.276)" d="M97.8 343.396H98.76V340.756H98.4V342.436L98.52 342.556 98.4 342.676H98.28 97.8V340.636L97.56 340.516 97.68 339.916 97.8 339.796 97.92 339.916 100.2 340.636V341.236L99.36 340.996V342.076H100.08V342.556H99.36V343.396H99.96V344.116L100.32 343.756 101.04 344.596H102.36L102 344.116 101.64 343.636 101.4 343.876 101.28 344.236 100.68 344.116 100.92 343.756 101.16 343.396 100.56 343.036 99.96 342.796 100.32 342.316 101.04 342.556 101.64 342.916 102.36 342.556 103.2 342.196 103.68 342.796 102.84 343.036 102.12 343.276 102.72 343.996 103.2 344.716 102.96 345.076H101.4L101.64 345.316V345.436L101.76 345.556H101.64L101.52 345.676 101.16 345.796 100.56 344.836 99.96 344.236V345.436H97.8V343.396ZM98.4 343.876V344.836H99.24V343.876H98.4Z" fill="#ffffff" fill-rule="evenodd"/><path transform="matrix(1,0,0,-1,0,595.276)" d="M100.44 339.676H101.04V340.036H102.48V339.796H103.08V342.196H100.44V339.676ZM101.04 340.636V341.596H102.48V340.636H101.04Z" fill="#ffffff" fill-rule="evenodd"/><path transform="matrix(1,0,0,-1,0,595.276)" stroke-width=".12" stroke-linecap="round" stroke-linejoin="round" fill="none" stroke="#0000ff" d="M109.8 356.596C111 356.596 111.96 355.516 111.96 354.436V337.516C111.96 336.316 111 335.356 109.8 335.356H60.24C59.04 335.356 58.08 336.316 58.08 337.516V354.436C58.08 355.516 59.04 356.596 60.24 356.596H109.8"/></g></svg>