<?xml version='1.0' encoding='UTF-8'?>
<svg xmlns="http://www.w3.org/2000/svg" xmlns:xlink="http://www.w3.org/1999/xlink" xmlns:inkscape="http://www.inkscape.org/namespaces/inkscape" version="1.1" width="567.000" height="269.280" viewBox="0 0 567.000 269.280"><g transform="scale(10.0) translate(-438.573, -74.160)"><defs><clipPath id="clip_2"><path transform="matrix(1,0,0,-1,0,595.276)" d="M74.4 .196H767.4V595.276H74.4Z"/></clipPath></defs><path transform="matrix(1,0,0,-1,0,595.276)" d="M441.24 518.836H492.48C492.84 518.836 493.2 518.716 493.56 518.356 493.92 518.116 494.04 517.636 494.04 517.276V497.716C494.04 497.476 494.04 497.356 493.92 497.116 493.8 496.996 493.68 496.756 493.56 496.636 493.44 496.516 493.2 496.396 493.08 496.276 492.84 496.156 492.6 496.156 492.48 496.156H441.24C440.88 496.156 440.52 496.276 440.16 496.636 439.92 496.996 439.8 497.356 439.8 497.716V517.276C439.8 518.116 440.4 518.836 441.24 518.836Z" fill="#ffffff" fill-rule="evenodd"/><path transform="matrix(1,0,0,-1,0,595.276)" d="M441.24 518.116H492.48C492.72 518.116 492.84 517.996 492.96 517.876 493.2 517.636 493.2 517.516 493.2 517.276V497.716C493.2 497.596 493.2 497.476 493.2 497.476 493.2 497.356 493.08 497.236 492.96 497.116 492.96 497.116 492.84 496.996 492.72 496.996 492.72 496.996 492.6 496.996 492.48 496.996H441.24C441.12 496.996 440.88 496.996 440.76 497.116 440.64 497.236 440.64 497.356 440.64 497.476 440.52 497.476 440.52 497.596 440.52 497.716V517.276C440.52 517.756 440.88 518.116 441.24 518.116Z" fill="#0000ff" fill-rule="evenodd"/><path transform="matrix(1,0,0,-1,0,595.276)" d="M463.44 513.676H463.92V516.556H463.44V514.516L462.12 516.556H461.52V513.676H462V515.836Z" fill="#ffffff" fill-rule="evenodd"/><path transform="matrix(1,0,0,-1,0,595.276)" d="M459.96 513.676H460.56V516.556H460.08V514.516L458.64 516.556H458.04V513.676H458.52V515.836Z" fill="#ffffff" fill-rule="evenodd"/><path transform="matrix(1,0,0,-1,0,595.276)" d="M455.28 516.556V514.756C455.28 514.636 455.28 514.636 455.4 514.516 455.4 514.396 455.4 514.396 455.52 514.276 455.64 514.156 455.76 514.156 456 514.156 456.12 514.156 456.36 514.156 456.48 514.276 456.48 514.396 456.48 514.396 456.6 514.516 456.6 514.636 456.6 514.636 456.6 514.756V516.556H457.08V514.756C457.08 514.516 457.08 514.396 456.96 514.276 456.96 514.156 456.84 514.036 456.72 513.916 456.48 513.676 456.24 513.676 456 513.676 455.64 513.676 455.4 513.676 455.16 513.916 455.04 514.036 454.92 514.156 454.92 514.276 454.92 514.396 454.8 514.516 454.8 514.756V516.556H455.28Z" fill="#ffffff" fill-rule="evenodd"/><path transform="matrix(1,0,0,-1,0,595.276)" d="M454.32 516.556H452.16V516.196H453V513.676H453.48V516.196H454.32Z" fill="#ffffff" fill-rule="evenodd"/><path transform="matrix(1,0,0,-1,0,595.276)" d="M465 513.676H466.92V514.156H465.48V514.876H466.68V515.356H465.48V516.076H466.8V516.556H465Z" fill="#ffffff" fill-rule="evenodd"/><path transform="matrix(1,0,0,-1,0,595.276)" d="M467.64 513.676H469.32V514.156H468.12V516.556H467.64Z" fill="#ffffff" fill-rule="evenodd"/><path transform="matrix(1,0,0,-1,0,595.276)" d="M471.48 516.556 470.64 513.676H471L471.24 514.156H472.44L472.56 513.676H473.04L472.2 516.556H471.48ZM472.32 514.636H471.36L471.84 516.076 472.32 514.636Z" fill="#ffffff" fill-rule="evenodd"/><path transform="matrix(1,0,0,-1,0,595.276)" stroke-width=".12" stroke-linecap="butt" stroke-miterlimit="10" stroke-linejoin="miter" fill="none" stroke="#ffffff" d="M473.5 513.5V516.5"/><path transform="matrix(1,0,0,-1,0,595.276)" d="M473.76 513.676H474.24V514.756H474.72L475.32 513.676H475.8L475.2 514.876C475.56 514.996 475.8 515.356 475.8 515.836 475.68 516.196 475.44 516.556 474.96 516.556H473.76V513.676ZM474.24 515.236V516.196H474.84C474.96 516.196 475.08 516.076 475.2 515.956 475.2 515.956 475.32 515.836 475.32 515.716 475.32 515.596 475.2 515.476 475.2 515.356 475.08 515.236 474.96 515.236 474.84 515.236H474.24Z" fill="#ffffff" fill-rule="evenodd"/><path transform="matrix(1,0,0,-1,0,595.276)" d="M476.64 513.676H478.56V514.156H477.12V514.876H478.32V515.356H477.12V516.076H478.44V516.556H476.64Z" fill="#ffffff" fill-rule="evenodd"/><path transform="matrix(1,0,0,-1,0,595.276)" d="M480 516.556 479.04 513.676H479.52L479.64 514.156H480.84L481.08 513.676H481.56L480.6 516.556H480ZM480.72 514.636H479.76L480.24 516.076 480.72 514.636Z" fill="#ffffff" fill-rule="evenodd"/><path transform="matrix(1,0,0,-1,0,595.276)" d="M444.72 512.476H442.68V511.996H443.4V509.596H444V511.996H444.72Z" fill="#ffffff" fill-rule="evenodd"/><path transform="matrix(1,0,0,-1,0,595.276)" d="M445.8 512.476V510.556 510.436C445.8 510.316 445.92 510.196 445.92 510.196 446.04 510.076 446.28 509.956 446.4 509.956 446.64 509.956 446.76 510.076 446.88 510.196 447 510.196 447 510.316 447 510.436V510.556 512.476H447.6V510.556C447.6 510.436 447.48 510.316 447.48 510.196 447.36 510.076 447.36 509.956 447.24 509.836 447 509.596 446.76 509.476 446.4 509.476 446.16 509.476 445.92 509.596 445.68 509.836 445.56 509.956 445.44 510.076 445.44 510.196 445.32 510.316 445.32 510.436 445.32 510.556V512.476H445.8Z" fill="#ffffff" fill-rule="evenodd"/><path transform="matrix(1,0,0,-1,0,595.276)" d="M450.36 509.596H450.96V512.476H450.48V510.316L449.16 512.476H448.56V509.596H449.04V511.636Z" fill="#ffffff" fill-rule="evenodd"/><path transform="matrix(1,0,0,-1,0,595.276)" d="M453.84 509.596H454.44V512.476H453.96V510.316L452.52 512.476H452.04V509.596H452.52V511.636Z" fill="#ffffff" fill-rule="evenodd"/><path transform="matrix(1,0,0,-1,0,595.276)" d="M455.4 509.596H457.32V510.076H455.88V510.796H457.2V511.276H455.88V511.996H457.2V512.476H455.4Z" fill="#ffffff" fill-rule="evenodd"/><path transform="matrix(1,0,0,-1,0,595.276)" d="M458.16 509.596H459.84V509.956H458.64V512.476H458.16Z" fill="#ffffff" fill-rule="evenodd"/><path transform="matrix(1,0,0,-1,0,595.276)" stroke-width=".12" stroke-linecap="butt" stroke-miterlimit="10" stroke-linejoin="miter" fill="none" stroke="#ffffff" d="M461.5 509.5V512.5"/><path transform="matrix(1,0,0,-1,0,595.276)" stroke-width=".12" stroke-linecap="butt" stroke-miterlimit="10" stroke-linejoin="miter" fill="none" stroke="#ffffff" d="M463.5 509.5V509.5"/><path transform="matrix(1,0,0,-1,0,595.276)" d="M463.44 509.596 462.96 510.676C463.32 510.796 463.44 511.276 463.44 511.756 463.44 511.876 463.32 512.116 463.2 512.236 463.08 512.356 462.84 512.476 462.72 512.476H461.4V509.596H461.88V510.676H462.36L462.96 509.596H463.44ZM461.88 511.156V511.996H462.6C462.6 511.996 462.72 511.996 462.84 511.876 462.96 511.756 462.96 511.636 462.96 511.516 462.96 511.276 462.72 511.156 462.6 511.156H461.88Z" fill="#ffffff" fill-rule="evenodd"/><path transform="matrix(1,0,0,-1,0,595.276)" d="M464.28 509.596H466.2V510.076H464.76V510.796H466.08V511.276H464.76V511.996H466.08V512.476H464.28Z" fill="#ffffff" fill-rule="evenodd"/><path transform="matrix(1,0,0,-1,0,595.276)" d="M469.32 511.756V511.756Z" fill="#ffffff" fill-rule="evenodd"/><path transform="matrix(1,0,0,-1,0,595.276)" d="M469.32 511.756C469.2 511.996 469.08 512.236 468.84 512.356 468.6 512.476 468.36 512.596 468.12 512.596 467.64 512.476 467.16 512.116 467.04 511.756 466.8 511.396 466.68 510.796 467.04 510.196 467.28 509.716 467.76 509.476 468.12 509.476 468.24 509.476 468.24 509.476 468.36 509.476 468.48 509.476 468.48 509.596 468.6 509.596 468.72 509.596 468.84 509.716 468.84 509.836V509.596H469.32V511.156H468.12V510.796H468.84V510.556C468.84 510.436 468.84 510.316 468.72 510.196 468.48 509.956 468.36 509.956 468.12 509.956 467.88 509.956 467.64 510.076 467.4 510.436 467.28 510.796 467.28 511.276 467.4 511.516 467.52 511.756 467.76 512.116 468.12 512.116 468.24 512.116 468.48 511.996 468.6 511.996 468.72 511.876 468.84 511.756 468.84 511.636L469.32 511.756Z" fill="#ffffff" fill-rule="evenodd"/><path transform="matrix(1,0,0,-1,0,595.276)" d="M470.64 512.476V510.556C470.64 510.556 470.64 510.436 470.76 510.436 470.76 510.316 470.76 510.196 470.88 510.196 471 510.076 471.12 509.956 471.36 509.956 471.48 509.956 471.72 510.076 471.84 510.196 471.84 510.196 471.84 510.316 471.96 510.436V510.556 512.476H472.44V510.556C472.44 510.436 472.44 510.316 472.32 510.196 472.32 510.076 472.2 509.956 472.08 509.836 471.84 509.596 471.6 509.476 471.36 509.476 471 509.476 470.76 509.596 470.52 509.836 470.4 509.956 470.4 510.076 470.28 510.196 470.28 510.316 470.16 510.436 470.16 510.556V512.476H470.64Z" fill="#ffffff" fill-rule="evenodd"/><path transform="matrix(1,0,0,-1,0,595.276)" d="M473.4 509.596H475.08V509.956H473.88V512.476H473.4Z" fill="#ffffff" fill-rule="evenodd"/><path transform="matrix(1,0,0,-1,0,595.276)" d="M476.16 512.476 475.32 509.596H475.68L475.92 510.076H477.12L477.24 509.596H477.72L476.88 512.476H476.16ZM477 510.556H476.04L476.52 511.996 477 510.556Z" fill="#ffffff" fill-rule="evenodd"/><path transform="matrix(1,0,0,-1,0,595.276)" d="M480.12 512.476H477.96V511.996H478.8V509.596H479.28V511.996H480.12Z" fill="#ffffff" fill-rule="evenodd"/><path transform="matrix(1,0,0,-1,0,595.276)" stroke-width=".12" stroke-linecap="round" stroke-linejoin="round" fill="none" stroke="#ffffff" d="M480.72 512.476H481.2V509.596H480.72V512.476"/><path transform="matrix(1,0,0,-1,0,595.276)" d="M480.72 509.596H481.2V512.476H480.72Z" fill="#ffffff" fill-rule="evenodd"/><path transform="matrix(1,0,0,-1,0,595.276)" d="M483.24 512.596C483 512.596 482.64 512.356 482.4 512.116 482.04 511.756 481.92 511.396 481.92 511.036 481.92 510.676 482.04 510.196 482.4 509.956 482.64 509.596 483 509.476 483.24 509.476 483.6 509.476 483.96 509.596 484.2 509.956 484.44 510.196 484.56 510.676 484.56 511.036 484.56 511.396 484.44 511.756 484.2 512.116 483.96 512.356 483.6 512.596 483.24 512.596ZM483.24 512.116C483.72 512.116 484.08 511.636 484.08 511.036 484.08 510.436 483.72 509.956 483.24 509.956 482.88 509.956 482.52 510.436 482.52 511.036 482.52 511.636 482.88 512.116 483.24 512.116Z" fill="#ffffff" fill-rule="evenodd"/><path transform="matrix(1,0,0,-1,0,595.276)" d="M487.32 509.596H487.92V512.476H487.32V510.316L486 512.476H485.4V509.596H485.88V511.636Z" fill="#ffffff" fill-rule="evenodd"/><path transform="matrix(1,0,0,-1,0,595.276)" stroke-width=".12" stroke-linecap="butt" stroke-miterlimit="10" stroke-linejoin="miter" fill="none" stroke="#ffffff" d="M490.5 509.5V509.5"/><path transform="matrix(1,0,0,-1,0,595.276)" d="M490.44 511.756 490.8 511.996C490.44 512.356 490.08 512.476 489.72 512.476 489.48 512.476 489.12 512.476 489 512.236 488.76 512.116 488.76 511.876 488.76 511.636 488.76 511.396 488.76 511.156 489 511.036 489 511.036 489.12 510.916 489.24 510.916 489.36 510.916 489.48 510.796 489.72 510.796 489.96 510.796 490.2 510.796 490.32 510.556 490.32 510.436 490.44 510.316 490.32 510.196 490.32 509.956 490.08 509.956 489.84 509.956 489.48 509.956 489.24 510.076 489 510.436L488.64 510.076C488.76 509.956 488.88 509.836 489 509.836 489.24 509.596 489.48 509.476 489.72 509.476 490.08 509.476 490.44 509.596 490.56 509.836 490.68 509.836 490.68 509.956 490.8 510.076V510.196 510.316H490.92V510.436 510.556H490.8C490.8 510.796 490.68 510.916 490.56 511.036L490.44 511.156C490.32 511.156 490.32 511.156 490.2 511.156L489.6 511.276C489.48 511.396 489.48 511.396 489.36 511.396 489.24 511.396 489.24 511.516 489.24 511.636 489.24 511.756 489.24 511.876 489.36 511.996 489.48 511.996 489.6 511.996 489.72 511.996 489.96 511.996 490.2 511.996 490.44 511.756Z" fill="#ffffff" fill-rule="evenodd"/><path transform="matrix(1,0,0,-1,0,595.276)" d="M461.52 508.276 460.56 505.396H461.04L461.28 505.996H462.48L462.6 505.396H463.08L462.12 508.276H461.52ZM462.36 506.356H461.4L461.88 507.796 462.36 506.356Z" fill="#ffffff" fill-rule="evenodd"/><path transform="matrix(1,0,0,-1,0,595.276)" d="M465 508.276C465.36 508.276 465.72 507.916 465.72 507.436 465.72 507.196 465.6 506.956 465.48 506.836 465.36 506.596 465.12 506.476 465 506.476H464.28V505.396H463.68V508.276H465ZM464.28 507.916V506.956H464.88 465C465 506.956 465 507.076 465.12 507.076 465.12 507.196 465.24 507.316 465.24 507.436 465.24 507.556 465.12 507.676 465.12 507.796 465 507.796 465 507.796 465 507.916H464.88 464.28Z" fill="#ffffff" fill-rule="evenodd"/><path transform="matrix(1,0,0,-1,0,595.276)" d="M467.64 508.276C468 508.276 468.36 507.916 468.36 507.436 468.36 507.196 468.36 506.956 468.12 506.836 468 506.596 467.88 506.476 467.64 506.476H466.92V505.396H466.44V508.276H467.64ZM466.92 507.916V506.956H467.52 467.64C467.76 506.956 467.76 507.076 467.76 507.076 467.88 507.196 467.88 507.316 467.88 507.436 467.88 507.556 467.88 507.676 467.76 507.796L467.64 507.916H467.52 466.92Z" fill="#ffffff" fill-rule="evenodd"/><path transform="matrix(1,0,0,-1,0,595.276)" d="M469.08 505.396H470.76V505.876H469.56V508.276H469.08Z" fill="#ffffff" fill-rule="evenodd"/><path transform="matrix(1,0,0,-1,0,595.276)" d="M470.88 508.276 471.84 506.596V505.396H472.32V506.596L473.28 508.276H472.68L472.08 507.196 471.36 508.276Z" fill="#ffffff" fill-rule="evenodd"/><path transform="matrix(1,0,0,-1,0,595.276)" d="M450.72 498.916H451.08V500.116L451.2 499.756 451.44 499.876 451.56 499.996H451.68L451.8 500.236 451.92 500.356V500.476 500.716 500.956H452.16V499.876L451.44 499.396 451.56 499.156 451.68 499.036H451.8V499.156L452.28 499.516 452.4 499.276 452.64 499.156 453 499.036 453.48 498.916H454.8L454.92 499.396H453.36 453.24 453 452.88L452.76 499.516 452.64 499.636V499.756L452.52 499.876V500.116 501.316H451.92V500.956L451.56 501.676 452.04 502.876 451.68 503.116H450.72V498.916ZM451.08 502.756H451.56L451.2 501.556 451.32 501.316 451.44 501.196V500.956L451.56 500.716 451.44 500.476V500.356L451.32 500.236H451.08V502.756Z" fill="#ffffff" fill-rule="evenodd"/><path transform="matrix(1,0,0,-1,0,595.276)" d="M452.52 502.396 452.76 502.756 452.28 503.116 452.04 502.756 452.28 502.636Z" fill="#ffffff" fill-rule="evenodd"/><path transform="matrix(1,0,0,-1,0,595.276)" d="M452.4 502.276 452.64 502.036 453 502.276V502.036H453.48L453.36 501.916 453.12 501.796 452.88 501.676 452.64 501.556 452.88 501.196 453.48 501.676 453.6 501.436 453.12 501.076 452.64 500.836 452.88 500.476 453.24 500.836 453.72 501.196V500.956L453.6 500.596 453.24 500.476 453 500.236 452.64 500.116 452.88 499.756 453.36 500.116 453.72 500.356V500.116L453.6 499.996 453.48 499.876H453.24L453.36 499.516H453.72L453.96 499.756 454.08 499.996 454.2 500.356 454.44 499.996 454.68 499.756 455.04 499.996 454.68 500.236 454.44 500.476 454.32 500.836 454.08 501.076 454.68 501.436H454.8V501.556L454.56 501.796 453.96 501.436 453.72 501.916 453.84 502.036H454.44V502.276L454.8 502.036 455.04 502.276 454.8 502.516 454.56 502.636 454.32 502.876 454.2 503.116H453.48V502.756H454.08L454.2 502.516 454.32 502.396H453.12L453.24 502.636H453.36V502.756H453.24L453 502.876 452.76 502.516Z" fill="#ffffff" fill-rule="evenodd"/><path transform="matrix(1,0,0,-1,0,595.276)" d="M452.28 501.436 452.52 501.796 452.28 502.036 452.04 502.156 451.8 501.916Z" fill="#ffffff" fill-rule="evenodd"/><path transform="matrix(1,0,0,-1,0,595.276)" d="M456.84 503.236 456.48 502.876 456.72 502.756 457.08 502.516 457.32 502.756 457.08 502.996Z" fill="#ffffff" fill-rule="evenodd"/><path transform="matrix(1,0,0,-1,0,595.276)" d="M456.6 502.276 456.24 502.036 456.84 501.556 457.2 501.916Z" fill="#ffffff" fill-rule="evenodd"/><path transform="matrix(1,0,0,-1,0,595.276)" d="M456.36 501.196V500.716H456.84V499.876L456.24 499.396 456.6 499.036 457.08 499.516 457.2 499.276 457.44 499.156 457.92 499.036 458.52 498.916H460.56V499.396H458.64 458.04L457.68 499.516 457.44 499.636 457.32 499.996V501.196Z" fill="#ffffff" fill-rule="evenodd"/><path transform="matrix(1,0,0,-1,0,595.276)" d="M458.28 503.116 458.04 502.996 458.4 502.516H457.56V502.156H458.76L458.64 501.916H457.92V499.516H458.28V499.756H459.72V499.516H460.08V501.916H459L459.24 502.156H460.44V502.516H459.6L460.08 503.116 459.6 503.236 459.12 502.516H458.64L458.76 502.636 458.28 503.116ZM458.28 499.996V500.236H459.72V499.996H458.28ZM458.28 500.596V500.836H459.72V500.596H458.28ZM458.28 501.196V501.436H459.72V501.196H458.28Z" fill="#ffffff" fill-rule="evenodd"/><path transform="matrix(1,0,0,-1,0,595.276)" d="M462 502.276 462.36 502.036 462.6 502.276 462.72 502.516H463.08L463.2 502.036 463.68 502.156 463.44 502.516H464.04V502.876H462.96L463.08 502.996H463.2V503.116L462.72 503.236 462.48 502.756Z" fill="#ffffff" fill-rule="evenodd"/><path transform="matrix(1,0,0,-1,0,595.276)" d="M463.92 502.276 464.04 502.156H463.92V501.916H462.12V500.836H462.6V501.436H465.6V500.836H466.08V501.916H464.4V502.036 502.156 502.276L464.52 502.516H465L465.12 502.036 465.6 502.156 465.36 502.516H466.2V502.756H464.76V502.876L464.88 502.996H465L464.88 503.116 464.52 503.236 464.28 502.756Z" fill="#ffffff" fill-rule="evenodd"/><path transform="matrix(1,0,0,-1,0,595.276)" d="M462.96 501.316V498.916H463.32V499.156H465V498.916H465.48V500.116H463.32V500.356H465.24V501.316H462.96ZM463.32 500.716V500.956H464.76V500.716H463.32ZM463.32 499.516V499.756H465V499.516H463.32Z" fill="#ffffff" fill-rule="evenodd"/><path transform="matrix(1,0,0,-1,0,595.276)" d="M467.64 501.916 468 501.796 468.24 502.156H468.84V501.676H467.76V501.196H468.84V500.836H467.88V499.156H468.36V500.356H468.84V498.916H469.32V500.356H469.8V499.756 499.636L469.68 499.516H469.44L469.56 499.156H469.92 470.04L470.16 499.276V499.396L470.28 499.636V500.836H469.32V501.196H470.4V501.676H469.32V502.156H470.28V502.516H469.32V502.996 503.116L468.84 503.236V502.516H468.48V502.756H468.6V502.876H468.48L468.12 502.996 468 502.756 467.88 502.396 467.76 502.156Z" fill="#ffffff" fill-rule="evenodd"/><path transform="matrix(1,0,0,-1,0,595.276)" d="M470.64 502.876V499.876H471V502.636H471.12V502.756H471Z" fill="#ffffff" fill-rule="evenodd"/><path transform="matrix(1,0,0,-1,0,595.276)" d="M471.48 503.116V499.636L471.36 499.516V499.396H471.24L471.12 499.276H470.76L470.88 498.916H471.48L471.6 499.036 471.72 499.156 471.84 499.276V499.516 502.876L471.96 502.996V503.116H471.84Z" fill="#ffffff" fill-rule="evenodd"/><path transform="matrix(1,0,0,-1,0,595.276)" d="M473.64 502.996V498.916H474V499.156H477.6V499.516H474V502.636H477.48V502.996Z" fill="#ffffff" fill-rule="evenodd"/><path transform="matrix(1,0,0,-1,0,595.276)" d="M474.72 502.396V501.316H476.76V502.396H474.72ZM475.08 501.676V502.036H476.28V501.676H475.08Z" fill="#ffffff" fill-rule="evenodd"/><path transform="matrix(1,0,0,-1,0,595.276)" d="M474.24 500.956V499.756H474.6V499.876H475.2V499.756H475.68V500.956H474.24ZM474.6 500.236V500.596H475.2V500.236H474.6Z" fill="#ffffff" fill-rule="evenodd"/><path transform="matrix(1,0,0,-1,0,595.276)" d="M475.92 500.956V499.756H476.4V499.876H476.88V499.756H477.36V500.956H475.92ZM476.4 500.236V500.596H476.88V500.236H476.4Z" fill="#ffffff" fill-rule="evenodd"/><path transform="matrix(1,0,0,-1,0,595.276)" d="M479.52 502.996V501.796H479.04V501.436H479.52V500.116L479.04 499.996V499.636L479.16 499.516H479.28V499.636L480.36 499.996V500.476L479.88 500.236V501.436H480.24V501.796H479.88V502.756L480 502.876H479.88 479.76Z" fill="#ffffff" fill-rule="evenodd"/><path transform="matrix(1,0,0,-1,0,595.276)" d="M481.8 503.236V502.396H480.36V502.036H481.92V501.436 500.956L482.04 500.596 482.16 500.116 481.92 499.876 481.68 499.636 481.32 499.396 480.96 499.276 481.32 498.916 481.8 499.276 482.28 499.636 482.52 499.276 482.76 499.036 482.88 498.916 483 499.036 483.24 499.276 483.36 499.636 483 499.876V499.636L482.88 499.516 482.64 499.756 482.52 499.996 482.88 500.596 483.12 501.076 483.24 501.196V501.316H483.12L482.88 501.436 482.64 500.956 482.4 500.596 482.28 501.196V502.036H483.24V502.396H482.88L483.12 502.636 482.88 502.876 482.64 503.116 482.4 502.876 482.64 502.636 482.76 502.396H482.28V502.996 503.116H482.16Z" fill="#ffffff" fill-rule="evenodd"/><path transform="matrix(1,0,0,-1,0,595.276)" d="M480.48 501.556V500.476H481.68V501.556H480.48ZM480.84 500.836V501.196H481.2V500.836H480.84Z" fill="#ffffff" fill-rule="evenodd"/><path transform="matrix(1,0,0,-1,0,595.276)" d="M481.68 500.236 480.36 499.996 480.48 499.756V499.636 499.516H480.6V499.636L481.68 499.876Z" fill="#ffffff" fill-rule="evenodd"/><path transform="matrix(1,0,0,-1,0,595.276)" stroke-width=".12" stroke-linecap="round" stroke-linejoin="round" fill="none" stroke="#0000ff" d="M492.48 518.836C493.32 518.836 494.04 518.116 494.04 517.276V497.716C494.04 496.876 493.32 496.156 492.48 496.156H441.24C440.4 496.156 439.8 496.876 439.8 497.716V517.276C439.8 518.116 440.4 518.836 441.24 518.836H492.48"/></g></svg>