<?xml version='1.0' encoding='UTF-8'?>
<svg xmlns="http://www.w3.org/2000/svg" xmlns:xlink="http://www.w3.org/1999/xlink" xmlns:inkscape="http://www.inkscape.org/namespaces/inkscape" version="1.1" width="566.700" height="269.280" viewBox="0 0 566.700 269.280"><g transform="scale(10.0) translate(-165.765, -154.944)"><path transform="matrix(1,0,0,-1,0,595.276)" d="M170.16 439.516H218.28C219 439.516 219.72 439.276 220.32 438.676 220.92 438.076 221.28 437.236 221.28 436.516V416.956C221.28 416.596 221.16 416.236 221.04 415.876 220.92 415.396 220.68 415.156 220.32 414.796 220.08 414.556 219.72 414.316 219.36 414.196 219 413.956 218.64 413.956 218.28 413.956H170.16C169.44 413.956 168.6 414.196 168 414.796 167.76 415.156 167.52 415.396 167.4 415.876 167.16 416.236 167.16 416.596 167.16 416.956V436.516C167.16 438.196 168.48 439.516 170.16 439.516Z" fill="#ffffff" fill-rule="evenodd"/><path transform="matrix(1,0,0,-1,0,595.276)" d="M170.16 437.956H218.28C218.4 437.956 218.64 437.956 218.76 437.956 219 437.836 219.12 437.716 219.36 437.596 219.48 437.476 219.6 437.236 219.6 437.116 219.72 436.876 219.72 436.636 219.72 436.516V416.956C219.72 416.596 219.6 416.116 219.36 415.876 219.12 415.756 219 415.636 218.76 415.516 218.64 415.396 218.4 415.396 218.28 415.396H170.16C169.8 415.396 169.32 415.516 169.08 415.876 168.96 415.996 168.84 416.236 168.72 416.356 168.6 416.596 168.6 416.716 168.6 416.956V436.516C168.6 436.876 168.72 437.236 169.08 437.596 169.32 437.836 169.8 437.956 170.16 437.956Z" fill="#0000ff" fill-rule="evenodd"/><path transform="matrix(1,0,0,-1,0,595.276)" d="M217.32 435.796H180.96V417.676H217.32Z" fill="#ffffff" fill-rule="evenodd"/><path transform="matrix(1,0,0,-1,0,595.276)" d="M181.92 418.636H197.64V434.836H181.92Z" fill="#0000ff" fill-rule="evenodd"/><path transform="matrix(1,0,0,-1,0,595.276)" d="M207.96 419.956C210.12 419.956 212.16 420.676 213.72 421.876 215.28 423.196 216.12 424.876 216.12 426.676 216.12 428.476 215.28 430.276 213.72 431.476 212.16 432.796 210.12 433.516 207.96 433.516 205.8 433.516 203.76 432.796 202.2 431.476 200.64 430.276 199.8 428.476 199.8 426.676 199.8 424.876 200.64 423.196 202.2 421.876 203.76 420.676 205.8 419.956 207.96 419.956Z" fill="#ff0000" fill-rule="evenodd"/><path transform="matrix(1,0,0,-1,0,595.276)" d="M194.76 429.196V429.196H194.64C194.64 429.196 194.64 429.076 194.76 429.076V429.196Z" fill="#ffffff" fill-rule="evenodd"/><path transform="matrix(1,0,0,-1,0,595.276)" d="M203.88 422.476C203.88 423.316 204.24 424.156 204.96 424.876 205.2 425.236 205.68 425.596 206.04 425.716 206.52 425.956 206.88 426.076 207.36 426.196V427.276C206.52 427.396 205.56 427.756 204.96 428.476 204.6 428.836 204.36 429.316 204.12 429.676 204.12 429.916 204 430.156 204 430.396 203.88 430.636 203.88 430.756 203.88 430.996H205.32C205.32 430.516 205.56 429.916 205.92 429.556 206.28 429.076 206.76 428.836 207.36 428.716V431.236H208.56V428.716C209.16 428.836 209.64 429.076 210 429.556 210.36 429.916 210.6 430.516 210.6 430.996H212.04C212.04 430.636 211.92 430.156 211.8 429.676 211.56 429.316 211.32 428.836 210.96 428.476 210.72 428.116 210.24 427.876 209.88 427.636 209.4 427.516 209.04 427.396 208.56 427.276V426.196C209.4 426.076 210.36 425.596 210.96 424.876 211.32 424.516 211.56 424.156 211.8 423.676 211.92 423.316 212.04 422.836 212.04 422.476H210.6C210.6 422.956 210.36 423.556 210 423.916 209.64 424.396 209.16 424.756 208.56 424.876V422.236H207.36V424.876C206.76 424.756 206.28 424.396 205.92 423.916 205.56 423.556 205.32 422.956 205.32 422.476H203.88Z" fill="#ffffff" fill-rule="evenodd"/><path transform="matrix(1,0,0,-1,0,595.276)" d="M187.8 425.476H191.04C191.88 425.476 192.84 425.836 193.68 426.556 194.4 427.276 194.76 428.236 194.76 429.196 194.76 430.156 194.28 431.116 193.68 431.836 192.96 432.436 192 432.916 191.04 432.916H184.92V420.556H187.8V425.476ZM187.8 427.396V430.876H190.32C190.68 430.876 191.04 430.756 191.4 430.516 191.52 430.276 191.64 430.156 191.64 429.916 191.76 429.796 191.76 429.556 191.76 429.436V428.956C191.76 428.596 191.64 428.236 191.4 427.876 191.04 427.636 190.68 427.396 190.32 427.396H187.8Z" fill="#ffffff" fill-rule="evenodd"/><path transform="matrix(1,0,0,-1,0,595.276)" d="M178.92 430.636V426.676L176.28 429.316V418.876H173.64V429.316L171.12 426.676V430.636L174.96 434.596Z" fill="#ffffff" fill-rule="evenodd"/><path transform="matrix(1,0,0,-1,0,595.276)" stroke-width=".12" stroke-linecap="round" stroke-linejoin="round" fill="none" stroke="#0000ff" d="M218.28 439.516C219.96 439.516 221.28 438.196 221.28 436.516V416.956C221.28 415.276 219.96 413.956 218.28 413.956H170.16C168.48 413.956 167.16 415.276 167.16 416.956V436.516C167.16 438.196 168.48 439.516 170.16 439.516H218.28"/></g></svg>