<?xml version='1.0' encoding='UTF-8'?>
<svg xmlns="http://www.w3.org/2000/svg" xmlns:xlink="http://www.w3.org/1999/xlink" xmlns:inkscape="http://www.inkscape.org/namespaces/inkscape" version="1.1" width="567.000" height="269.280" viewBox="0 0 567.000 269.280"><g transform="scale(10.0) translate(-329.439, -235.728)"><defs><clipPath id="clip_2"><path transform="matrix(1,0,0,-1,0,595.276)" d="M74.4 .196H767.4V595.276H74.4Z"/></clipPath></defs><path transform="matrix(1,0,0,-1,0,595.276)" d="M337.56 358.276C336.84 358.276 336.24 358.036 335.64 357.556 335.16 356.956 334.92 356.356 334.92 355.636V336.316C334.92 335.596 335.16 334.996 335.64 334.396 336.24 333.916 336.84 333.676 337.56 333.676H378C378.72 333.676 379.32 333.916 379.92 334.396 380.4 334.996 380.64 335.716 380.64 336.316V355.636C380.64 357.196 379.56 358.276 378 358.276H357.84 337.56Z" fill="#ffffff" fill-rule="evenodd"/><path transform="matrix(1,0,0,-1,0,595.276)" stroke-width=".12" stroke-linecap="round" stroke-linejoin="round" fill="none" stroke="#0000ff" d="M337.56 358.276C336.12 358.276 334.92 357.196 334.92 355.636V336.316C334.92 334.876 336.12 333.676 337.56 333.676H378C379.56 333.676 380.64 334.876 380.64 336.316V355.636C380.64 357.196 379.56 358.276 378 358.276H357.84 337.56"/><path transform="matrix(1,0,0,-1,0,595.276)" d="M337.56 356.956H357.84 378C378.36 356.956 378.72 356.836 378.96 356.596 379.2 356.356 379.32 355.996 379.32 355.636V336.316C379.32 335.956 379.2 335.596 378.96 335.356 378.84 335.236 378.72 335.116 378.48 335.116 378.36 334.996 378.24 334.996 378 334.996H337.56C337.2 334.996 336.84 335.116 336.6 335.356 336.36 335.596 336.24 335.956 336.24 336.316V355.636C336.24 356.356 336.84 356.956 337.56 356.956Z" fill="#0000ff" fill-rule="evenodd"/><path transform="matrix(1,0,0,-1,0,595.276)" d="M342.6 354.436H339V353.716H340.44V349.516H341.28V353.716H342.6Z" fill="#ffffff" fill-rule="evenodd"/><path transform="matrix(1,0,0,-1,0,595.276)" d="M345.48 354.556C344.88 354.556 344.28 354.316 343.92 353.836 343.44 353.236 343.2 352.636 343.2 352.036 343.2 350.596 344.16 349.396 345.48 349.396 345.96 349.396 346.56 349.636 347.04 350.116 347.52 350.716 347.76 351.316 347.76 352.036 347.76 352.636 347.52 353.236 347.04 353.836 346.56 354.316 345.96 354.556 345.48 354.556ZM345.48 353.836C346.2 353.836 346.92 352.996 346.92 352.036 346.92 351.556 346.8 351.076 346.44 350.716 346.2 350.356 345.84 350.116 345.48 350.116 345.12 350.116 344.76 350.356 344.52 350.716 344.16 351.076 344.04 351.556 344.04 352.036 344.04 352.996 344.64 353.836 345.48 353.836Z" fill="#ffffff" fill-rule="evenodd"/><path transform="matrix(1,0,0,-1,0,595.276)" d="M349.08 349.516H351.84V350.236H349.92V354.436H349.08Z" fill="#ffffff" fill-rule="evenodd"/><path transform="matrix(1,0,0,-1,0,595.276)" d="M352.8 349.516H355.56V350.236H353.64V354.436H352.8Z" fill="#ffffff" fill-rule="evenodd"/><path transform="matrix(1,0,0,-1,0,595.276)" d="M359.4 354.436 357.84 349.516H358.56L358.8 350.356H360.96L361.2 349.516H362.04L360.48 354.436H359.4ZM360.72 351.076H359.04L359.88 353.596 360.72 351.076Z" fill="#ffffff" fill-rule="evenodd"/><path transform="matrix(1,0,0,-1,0,595.276)" stroke-width=".12" stroke-linecap="butt" stroke-miterlimit="10" stroke-linejoin="miter" fill="none" stroke="#ffffff" d="M366.5 349.5V349.5"/><path transform="matrix(1,0,0,-1,0,595.276)" d="M366.72 349.516 365.76 351.436C366.36 351.676 366.72 352.396 366.6 353.116 366.48 353.836 366 354.436 365.28 354.436H363.12V349.516H363.96V351.436H364.8L365.76 349.516H366.72ZM363.96 352.156V353.716H365.16C365.28 353.716 365.52 353.596 365.64 353.476 365.76 353.356 365.76 353.116 365.76 352.876 365.76 352.756 365.76 352.516 365.64 352.396 365.52 352.276 365.28 352.156 365.16 352.156H363.96Z" fill="#ffffff" fill-rule="evenodd"/><path transform="matrix(1,0,0,-1,0,595.276)" d="M368.16 349.516H371.4V350.236H368.88V351.676H371.04V352.396H368.88V353.716H371.28V354.436H368.16Z" fill="#ffffff" fill-rule="evenodd"/><path transform="matrix(1,0,0,-1,0,595.276)" d="M373.8 354.436 372.24 349.516H372.96L373.32 350.356H375.36L375.6 349.516H376.44L374.88 354.436H373.8ZM375.12 351.076H373.56L374.28 353.596 375.12 351.076Z" fill="#ffffff" fill-rule="evenodd"/><path transform="matrix(1,0,0,-1,0,595.276)" d="M344.28 340.636 344.4 339.916 344.52 339.796V339.676H344.64L344.76 339.916 346.56 340.276V338.116H347.4V340.516L348.12 340.756V341.476L347.4 341.236V345.436L347.52 345.556V345.676L347.4 345.796H347.16 346.56V341.116L345.72 340.876V344.476L345.84 344.596V344.716L345.72 344.836H345.48 344.88V340.756Z" fill="#ffffff" fill-rule="evenodd"/><path transform="matrix(1,0,0,-1,0,595.276)" d="M347.52 342.556 348.12 341.956 348.72 342.916 349.08 343.756H350.64V342.676L350.52 341.836 350.28 341.116 350.04 340.636 349.8 341.116 349.56 341.596 349.44 342.196 349.32 342.796 348.6 342.676 348.72 341.956 348.96 341.236 349.2 340.516 349.56 339.916 349.2 339.556 348.84 339.316 348.36 339.196 347.76 338.956 348.36 338.236 349.44 338.716 350.16 339.316 350.76 338.716 351.48 338.236 352.08 338.836 351.36 339.316 350.64 339.916 351 340.756 351.24 341.596 351.48 342.676V343.756H351.96V344.476H349.32L349.56 345.436 349.68 345.556H349.8L349.68 345.676 349.44 345.796H348.84L348.6 344.836 348.36 343.876 347.88 343.156Z" fill="#ffffff" fill-rule="evenodd"/><path transform="matrix(1,0,0,-1,0,595.276)" d="M354.48 345.316V344.836H356.4V344.476H354.72L354.24 342.676H355.08V342.916H355.56L354.96 342.436 354.24 342.076 354.96 341.596 355.44 341.836V339.196H356.28L354.36 338.716 354.96 338.116 356.16 338.356 357.24 338.836 356.76 339.196H358.68L358.32 338.836 359.52 338.356 360.72 338.116 361.32 338.716 360.12 338.836 359.04 339.196H360.24V341.836L360.48 341.356 360.72 341.476H360.96L361.2 341.716 361.32 341.836 361.56 342.556V343.516H359.04V343.876H360.96V345.316H359.04V345.676L359.16 345.796H359.04L358.92 345.916H358.2V345.316H357.24V345.676L357.36 345.796V345.916H357.24 357L356.4 346.036V345.316H354.48ZM356.04 343.516H355.32V343.876H356.28L356.04 343.516ZM357.12 344.476V344.836H358.2V344.476H357.12ZM358.2 343.516H356.88L357 343.876H358.2V343.516ZM359.04 344.476V344.836H360.24V344.476H359.04ZM356.16 341.596V341.836H359.4V341.596H356.16ZM358.32 342.436H356.04L356.52 342.916H358.32V342.436ZM359.04 342.436V342.916H360.84L360.72 342.436 360.6 342.196H360.48 360.24V342.436H359.04ZM356.16 340.636V340.996H359.4V340.636H356.16ZM356.16 339.796V340.156H359.4V339.796H356.16Z" fill="#ffffff" fill-rule="evenodd"/><path transform="matrix(1,0,0,-1,0,595.276)" d="M364.2 345.556V338.236H364.92V338.476H371.28V339.196H364.92V344.836H371.16V345.556Z" fill="#ffffff" fill-rule="evenodd"/><path transform="matrix(1,0,0,-1,0,595.276)" d="M366.12 344.356V342.436H369.72V344.356H366.12ZM366.84 343.036V343.756H369V343.036H366.84Z" fill="#ffffff" fill-rule="evenodd"/><path transform="matrix(1,0,0,-1,0,595.276)" d="M365.28 341.836V339.676H366V339.916H367.08V339.676H367.8V341.836H365.28ZM366 340.516V341.236H367.08V340.516H366Z" fill="#ffffff" fill-rule="evenodd"/><path transform="matrix(1,0,0,-1,0,595.276)" d="M368.4 341.956V339.676H369V339.916H370.08V339.676H370.8V341.956H368.4ZM369 340.516V341.356H370.08V340.516H369Z" fill="#ffffff" fill-rule="evenodd"/></g></svg>