<?xml version='1.0' encoding='UTF-8'?>
<svg xmlns="http://www.w3.org/2000/svg" xmlns:xlink="http://www.w3.org/1999/xlink" xmlns:inkscape="http://www.inkscape.org/namespaces/inkscape" version="1.1" width="566.700" height="269.280" viewBox="0 0 566.700 269.280"><g transform="scale(10.0) translate(-493.095, -181.872)"><path transform="matrix(1,0,0,-1,0,595.276)" d="M546.6 408.436C547.08 408.436 547.56 408.196 548.04 407.836 548.4 407.476 548.64 406.876 548.64 406.396V393.196C548.64 392.716 548.4 392.116 548.04 391.756 547.56 391.396 547.08 391.156 546.6 391.156H496.2C495.72 391.156 495.12 391.396 494.76 391.756 494.28 392.116 494.16 392.716 494.16 393.196V406.396C494.16 406.876 494.28 407.476 494.76 407.836 495.12 408.196 495.72 408.436 496.2 408.436H546.6Z" fill="#ffffff" fill-rule="evenodd"/><path transform="matrix(1,0,0,-1,0,595.276)" d="M496.2 407.476H546.6C546.84 407.476 547.08 407.356 547.32 407.116 547.44 406.876 547.56 406.636 547.56 406.396V393.196C547.56 393.076 547.56 392.956 547.56 392.836 547.44 392.716 547.44 392.596 547.32 392.476 547.2 392.356 547.08 392.236 546.96 392.236 546.84 392.236 546.72 392.116 546.6 392.116H496.2C495.96 392.116 495.6 392.236 495.48 392.476 495.24 392.716 495.12 392.956 495.12 393.196V406.396C495.12 406.636 495.24 406.876 495.48 407.116 495.6 407.356 495.96 407.476 496.2 407.476Z" fill="#0000ff" fill-rule="evenodd"/><path transform="matrix(1,0,0,-1,0,595.276)" d="M543.84 405.076H542.04V397.996L540.24 399.796V397.156L542.88 394.516 545.52 397.156V399.796L543.84 397.996Z" fill="#ffffff" fill-rule="evenodd"/><path transform="matrix(1,0,0,-1,0,595.276)" d="M501.84 394.516H502.44L502.32 396.796 501.36 399.436 501.48 401.116 501.96 400.756 503.16 399.676 503.52 400.156 502.44 401.116 502.08 402.076C501.96 402.316 501.72 402.556 501.48 402.796 501.24 402.916 501 403.036 500.64 403.036 500.4 403.156 500.04 403.036 499.8 402.916 499.56 402.796 499.32 402.556 499.2 402.316L498.72 401.596 498.36 399.316 498.84 399.076 499.32 401.236 499.68 401.596 498.48 397.156 497.52 395.476 498 394.996 499.8 397.396 500.4 398.716 501.36 396.916 501.84 394.516Z" fill="#ffffff" fill-rule="evenodd"/><path transform="matrix(1,0,0,-1,0,595.276)" d="M501.6 404.236C501.6 404.716 501.24 405.076 500.76 405.076 500.28 405.076 499.92 404.716 499.92 404.236 499.92 403.756 500.28 403.396 500.76 403.396 501.24 403.396 501.6 403.756 501.6 404.236Z" fill="#ffffff" fill-rule="evenodd"/><path transform="matrix(1,0,0,-1,0,595.276)" d="M520.56 400.996H521.64V401.236H520.92V402.796H520.56Z" fill="#ffffff" fill-rule="evenodd"/><path transform="matrix(1,0,0,-1,0,595.276)" d="M522.24 400.996V402.316H521.88V400.996Z" fill="#ffffff" fill-rule="evenodd"/><path transform="matrix(1,0,0,-1,0,595.276)" d="M522.24 402.676C522.24 402.796 522.12 402.796 522.12 402.796 522 402.796 521.88 402.796 521.88 402.676 521.88 402.556 522 402.556 522.12 402.556 522.12 402.556 522.24 402.556 522.24 402.676Z" fill="#ffffff" fill-rule="evenodd"/><path transform="matrix(1,0,0,-1,0,595.276)" d="M523.2 401.116C523.2 401.116 523.08 401.116 522.84 401.116 522.72 401.236 522.6 401.356 522.6 401.716 522.6 402.316 523.2 402.316 523.2 402.316H523.32C523.44 402.316 523.44 402.196 523.44 402.196V402.316H523.8V400.876C523.68 400.636 523.44 400.516 523.2 400.516 523.08 400.516 522.84 400.516 522.6 400.636L522.72 400.876C522.84 400.876 522.96 400.756 523.2 400.756 523.32 400.756 523.44 400.876 523.44 400.876V400.996 401.116C523.32 401.116 523.32 401.116 523.2 401.116ZM523.2 402.076C523.2 402.076 523.08 402.076 523.08 401.956 522.96 401.956 522.84 401.836 522.84 401.716 522.84 401.356 523.2 401.356 523.2 401.356 523.2 401.356 523.44 401.356 523.44 401.716 523.44 401.836 523.44 401.956 523.32 401.956 523.32 402.076 523.2 402.076 523.2 402.076Z" fill="#ffffff" fill-rule="evenodd"/><path transform="matrix(1,0,0,-1,0,595.276)" d="M525 401.836V400.996H525.24V401.836C525.24 401.956 525.24 402.076 525.24 402.076 525.12 402.196 525 402.316 525 402.316 524.88 402.316 524.76 402.316 524.76 402.316 524.64 402.316 524.52 402.316 524.52 402.196V402.796H524.16V400.996H524.52V401.836 401.956C524.64 402.076 524.64 402.076 524.76 402.076 524.76 402.076 524.88 402.076 524.88 401.956 524.88 401.956 525 401.956 525 401.836Z" fill="#ffffff" fill-rule="evenodd"/><path transform="matrix(1,0,0,-1,0,595.276)" d="M526.08 401.236H526.2 526.32 526.44V400.996C526.32 400.876 526.08 400.876 525.96 400.996 525.96 400.996 525.84 400.996 525.84 401.116V401.236 402.076H525.6V402.316H525.84V402.676L526.08 402.796V402.316H526.44V402.076H526.08V401.236Z" fill="#ffffff" fill-rule="evenodd"/><path transform="matrix(1,0,0,-1,0,595.276)" stroke-width=".12" stroke-linecap="butt" stroke-miterlimit="10" stroke-linejoin="miter" fill="none" stroke="#ffffff" d="M527.5 400.5V402.5"/><path transform="matrix(1,0,0,-1,0,595.276)" stroke-width=".12" stroke-linecap="butt" stroke-miterlimit="10" stroke-linejoin="miter" fill="none" stroke="#ffffff" d="M528.5 400.5V400.5"/><path transform="matrix(1,0,0,-1,0,595.276)" d="M528.84 400.996 528.48 401.716C528.72 401.836 528.96 402.076 528.84 402.316 528.84 402.676 528.6 402.796 528.36 402.796H527.52V400.996H527.88V401.716H528.24L528.6 400.996H528.84ZM527.88 401.956V402.556H528.36C528.36 402.556 528.48 402.556 528.48 402.436L528.6 402.316C528.6 402.076 528.48 401.956 528.36 401.956H527.88Z" fill="#ffffff" fill-rule="evenodd"/><path transform="matrix(1,0,0,-1,0,595.276)" d="M530.4 401.116V401.236H530.28V401.716 401.836 401.956C530.28 402.076 530.28 402.076 530.16 402.196 530.16 402.196 530.16 402.316 530.04 402.316 529.92 402.316 529.8 402.316 529.68 402.316H529.56C529.44 402.316 529.44 402.316 529.32 402.196H529.2L529.32 401.956 529.56 402.076H529.68 529.8C529.92 402.076 529.92 402.076 529.92 401.956H530.04V401.836H529.8C529.8 401.716 529.68 401.716 529.68 401.716 529.56 401.716 529.56 401.716 529.44 401.716 529.44 401.716 529.32 401.716 529.32 401.596 529.2 401.476 529.2 401.476 529.2 401.356 529.2 401.236 529.2 401.236 529.32 401.116L529.44 400.996C529.56 400.996 529.56 400.996 529.68 400.996 529.68 400.876 529.8 400.996 529.92 400.996 529.92 400.996 530.04 400.996 530.04 401.116 530.04 400.996 530.16 400.996 530.16 400.996H530.28L530.4 401.116ZM529.68 401.116 529.56 401.236 529.44 401.356 529.56 401.476H529.68C529.8 401.596 529.8 401.596 529.92 401.596H530.04V401.356 401.236H529.92C529.92 401.236 529.92 401.116 529.8 401.116H529.68Z" fill="#ffffff" fill-rule="evenodd"/><path transform="matrix(1,0,0,-1,0,595.276)" d="M530.4 401.116V401.116Z" fill="#ffffff" fill-rule="evenodd"/><path transform="matrix(1,0,0,-1,0,595.276)" d="M529.2 402.196V402.196Z" fill="#ffffff" fill-rule="evenodd"/><path transform="matrix(1,0,0,-1,0,595.276)" d="M529.32 401.956V401.956Z" fill="#ffffff" fill-rule="evenodd"/><path transform="matrix(1,0,0,-1,0,595.276)" d="M531.12 400.996V402.316H530.76V400.996Z" fill="#ffffff" fill-rule="evenodd"/><path transform="matrix(1,0,0,-1,0,595.276)" d="M531.12 402.676C531.12 402.796 531 402.796 530.88 402.796 530.88 402.796 530.76 402.796 530.76 402.676 530.76 402.556 530.88 402.556 530.88 402.556 531 402.556 531.12 402.556 531.12 402.676Z" fill="#ffffff" fill-rule="evenodd"/><path transform="matrix(1,0,0,-1,0,595.276)" d="M531.48 401.236V402.796H531.84V401.236H531.96 532.08V400.996H531.96C531.84 400.996 531.84 400.996 531.72 400.996H531.6C531.6 401.116 531.48 401.116 531.48 401.236Z" fill="#ffffff" fill-rule="evenodd"/><path transform="matrix(1,0,0,-1,0,595.276)" stroke-width=".12" stroke-linecap="butt" stroke-miterlimit="10" stroke-linejoin="miter" fill="none" stroke="#ffffff" d="M534.5 401.5V401.5"/><path transform="matrix(1,0,0,-1,0,595.276)" d="M534.24 402.316 534.48 402.556C534.24 402.796 534 402.796 533.76 402.796 533.64 402.796 533.4 402.796 533.28 402.676 533.16 402.556 533.04 402.436 533.04 402.316 533.04 402.196 533.16 401.956 533.28 401.956 533.28 401.836 533.4 401.836 533.4 401.836 533.52 401.836 533.64 401.836 533.76 401.716 533.88 401.716 534.12 401.716 534.12 401.596 534.12 401.596 534.24 401.476 534.12 401.356 534.12 401.236 534 401.236 533.76 401.236 533.64 401.236 533.4 401.356 533.28 401.476L533.04 401.236C533.04 401.236 533.16 401.116 533.28 401.116 533.4 400.996 533.64 400.996 533.76 400.996 534 400.996 534.24 400.996 534.36 401.116 534.36 401.116 534.36 401.236 534.48 401.236V401.356 401.476 401.596C534.48 401.716 534.36 401.836 534.36 401.956H534.24 534.12L533.64 402.076C533.64 402.076 533.52 402.076 533.52 402.196 533.52 402.196 533.4 402.196 533.4 402.316 533.4 402.316 533.52 402.436 533.52 402.556 533.64 402.556 533.64 402.556 533.76 402.556 533.88 402.556 534.12 402.556 534.24 402.316Z" fill="#ffffff" fill-rule="evenodd"/><path transform="matrix(1,0,0,-1,0,595.276)" d="M535.32 401.236V401.236H535.44 535.56L535.68 400.996C535.44 400.876 535.32 400.876 535.2 400.996 535.08 400.996 535.08 400.996 535.08 401.116 534.96 401.116 534.96 401.236 534.96 401.236V402.076H534.72V402.316H534.96V402.676L535.32 402.796V402.316H535.68V402.076H535.32V401.236Z" fill="#ffffff" fill-rule="evenodd"/><path transform="matrix(1,0,0,-1,0,595.276)" d="M535.8 401.596C535.8 401.476 535.92 401.236 536.04 401.116 536.16 400.996 536.4 400.996 536.52 400.996 536.64 400.996 536.88 400.996 537 401.116 537.12 401.236 537.12 401.476 537.12 401.596 537.12 401.836 537.12 401.956 537 402.076 536.88 402.196 536.64 402.316 536.52 402.316 536.4 402.316 536.16 402.196 536.04 402.076 535.92 401.956 535.8 401.836 535.8 401.596ZM536.52 402.076C536.64 402.076 536.64 401.956 536.76 401.956 536.88 401.836 536.88 401.716 536.88 401.596 536.88 401.476 536.88 401.476 536.76 401.356 536.64 401.236 536.64 401.236 536.52 401.236 536.4 401.236 536.28 401.236 536.28 401.356 536.16 401.476 536.16 401.476 536.16 401.596 536.16 401.716 536.16 401.836 536.28 401.956 536.28 401.956 536.4 402.076 536.52 402.076Z" fill="#ffffff" fill-rule="evenodd"/><path transform="matrix(1,0,0,-1,0,595.276)" stroke-width=".12" stroke-linecap="butt" stroke-miterlimit="10" stroke-linejoin="miter" fill="none" stroke="#ffffff" d="M537.5 402.5V402.5"/><path transform="matrix(1,0,0,-1,0,595.276)" d="M537.84 402.196C537.96 402.316 538.2 402.316 538.44 402.196 538.68 402.076 538.8 401.836 538.8 401.596 538.8 401.476 538.68 401.236 538.44 400.996 538.2 400.876 538.08 400.876 537.84 400.996V400.516H537.48V402.316H537.84V402.196ZM537.96 401.956C537.84 401.956 537.84 401.956 537.84 401.836V401.716 401.476C537.84 401.356 537.84 401.356 537.96 401.236 537.96 401.236 538.08 401.236 538.2 401.236 538.2 401.236 538.32 401.236 538.44 401.356 538.44 401.476 538.44 401.716 538.32 401.956 538.32 401.956 538.2 402.076 538.08 402.076L537.96 401.956Z" fill="#ffffff" fill-rule="evenodd"/><path transform="matrix(1,0,0,-1,0,595.276)" d="M512.04 394.156C513.84 394.156 515.64 394.756 516.84 395.836 518.16 396.916 518.88 398.356 518.88 399.796 518.88 401.356 518.16 402.676 516.84 403.756 515.64 404.836 513.84 405.436 512.04 405.436 510.24 405.436 508.56 404.836 507.24 403.756 505.92 402.676 505.2 401.356 505.2 399.796 505.2 398.356 505.92 396.916 507.24 395.836 508.56 394.756 510.24 394.156 512.04 394.156Z" fill="#ff0000" fill-rule="evenodd"/><path transform="matrix(1,0,0,-1,0,595.276)" stroke-width=".12" stroke-linecap="butt" stroke-miterlimit="10" stroke-linejoin="miter" fill="none" stroke="#ffffff" d="M512.5 396.5V396.5"/><path transform="matrix(1,0,0,-1,0,595.276)" stroke-width=".12" stroke-linecap="butt" stroke-miterlimit="10" stroke-linejoin="miter" fill="none" stroke="#ffffff" d="M514.5 403.5V403.5"/><path transform="matrix(1,0,0,-1,0,595.276)" stroke-width=".12" stroke-linecap="butt" stroke-miterlimit="10" stroke-linejoin="miter" fill="none" stroke="#ffffff" d="M511.5 403.5V403.5"/><path transform="matrix(1,0,0,-1,0,595.276)" stroke-width=".12" stroke-linecap="butt" stroke-miterlimit="10" stroke-linejoin="miter" fill="none" stroke="#ffffff" d="M508.5 403.5V403.5"/><path transform="matrix(1,0,0,-1,0,595.276)" stroke-width=".12" stroke-linecap="butt" stroke-miterlimit="10" stroke-linejoin="miter" fill="none" stroke="#ffffff" d="M511.5 400.5V400.5"/><path transform="matrix(1,0,0,-1,0,595.276)" stroke-width=".12" stroke-linecap="butt" stroke-miterlimit="10" stroke-linejoin="miter" fill="none" stroke="#ffffff" d="M511.5 400.5V400.5"/><path transform="matrix(1,0,0,-1,0,595.276)" stroke-width=".12" stroke-linecap="butt" stroke-miterlimit="10" stroke-linejoin="miter" fill="none" stroke="#ffffff" d="M511.5 399.5V399.5"/><path transform="matrix(1,0,0,-1,0,595.276)" d="M511.56 399.316V399.316 400.276C510.84 400.396 510.12 400.756 509.52 401.356 508.92 401.956 508.68 402.676 508.68 403.396H509.76C509.88 402.916 510 402.436 510.36 402.076 510.72 401.716 511.08 401.596 511.56 401.476V403.516H512.52V401.476C513.48 401.596 514.2 402.436 514.32 403.396H515.4C515.4 402.676 515.16 401.956 514.56 401.356 513.96 400.756 513.24 400.396 512.52 400.276V399.316C513.24 399.196 513.96 398.956 514.56 398.356 515.16 397.756 515.4 396.916 515.4 396.196H514.32C514.2 396.676 514.08 397.156 513.72 397.516 513.48 397.876 513 398.116 512.52 398.236V396.076H511.56V398.236C510.6 397.996 509.88 397.156 509.76 396.196H508.68C508.68 396.916 508.92 397.756 509.52 398.356 510.12 398.956 510.84 399.196 511.56 399.316Z" fill="#ffffff" fill-rule="evenodd"/><path transform="matrix(1,0,0,-1,0,595.276)" stroke-width=".12" stroke-linecap="round" stroke-linejoin="round" fill="none" stroke="#0000ff" d="M546.6 408.436C547.68 408.436 548.64 407.476 548.64 406.396V393.196C548.64 392.116 547.68 391.156 546.6 391.156H496.2C495 391.156 494.16 392.116 494.16 393.196V406.396C494.16 407.476 495 408.436 496.2 408.436H546.6"/><path transform="matrix(1,0,0,-1,0,595.276)" d="M522.72 399.196V398.956H523.2V398.716H522.84V397.636H523.2V397.396H522.72V397.156H523.2V396.796H523.44V397.156H524.04V397.396H523.44V397.636H523.92V398.716H523.44V398.956H523.92V399.196H523.44V399.316H523.56V399.436H523.44 523.2V399.196H522.72ZM523.08 398.236V398.476H523.2V398.236H523.08ZM523.44 398.236V398.476H523.68V398.236H523.44ZM523.08 397.876V397.996H523.2V397.876H523.08ZM523.44 397.876V397.996H523.68V397.876H523.44Z" fill="#ffffff" fill-rule="evenodd"/><path transform="matrix(1,0,0,-1,0,595.276)" d="M524.04 399.316V399.076H525.48V399.316Z" fill="#ffffff" fill-rule="evenodd"/><path transform="matrix(1,0,0,-1,0,595.276)" d="M524.76 398.956 524.4 398.476 524.52 398.236 524.64 397.996H525L524.88 398.236 524.64 398.476 524.88 398.836H525L524.88 398.956Z" fill="#ffffff" fill-rule="evenodd"/><path transform="matrix(1,0,0,-1,0,595.276)" d="M524.16 397.876V397.636H524.64V397.036H523.92V396.796H525.48V397.036H524.88V397.636H525.36V397.876Z" fill="#ffffff" fill-rule="evenodd"/><path transform="matrix(1,0,0,-1,0,595.276)" d="M524.28 398.956 523.92 398.476 524.16 398.236 524.28 397.996H524.4V398.236L524.28 398.476 524.4 398.836H524.52L524.4 398.956Z" fill="#ffffff" fill-rule="evenodd"/><path transform="matrix(1,0,0,-1,0,595.276)" d="M525.24 398.956 524.88 398.476 525 398.236 525.24 397.996 525.48 398.116 525.36 398.236 525.12 398.476 525.36 398.836H525.48 525.36Z" fill="#ffffff" fill-rule="evenodd"/><path transform="matrix(1,0,0,-1,0,595.276)" d="M526.2 398.836 526.44 398.596 526.56 398.716V398.476H526.8V398.236H526.44V397.996H526.8V397.156L526.32 397.036 526.44 396.916V396.796H526.56L527.28 396.916V397.156H527.04V397.396L527.16 397.276 527.28 397.636 527.4 397.756H527.28L527.16 397.876 527.04 397.396V397.996H527.28V398.236H527.04V398.476H527.28V398.716H526.56L526.92 399.196 527.16 398.836 527.28 399.076 527.04 399.316H527.16V399.436H527.04L526.92 399.556 526.8 399.316 526.56 399.196 526.44 398.956Z" fill="#ffffff" fill-rule="evenodd"/><path transform="matrix(1,0,0,-1,0,595.276)" d="M526.56 397.156 526.68 397.276 526.56 397.876 526.44 397.756Z" fill="#ffffff" fill-rule="evenodd"/><path transform="matrix(1,0,0,-1,0,595.276)" d="M527.4 399.316V399.076H527.64V398.836H527.28V398.596H528.36V398.236 397.876L528.48 397.636V397.396L528.36 397.276 528.24 397.156H527.88V397.396H528.24V397.516H527.88V397.636H528.24V397.876H527.4V397.636H527.64V397.516H527.4V397.396H527.64V397.156H527.4V397.036H528.12V396.916L528.24 396.796 528.6 397.036 528.72 396.916 528.84 396.796H528.96L529.08 396.916V397.036L529.2 397.156 528.96 397.396V397.156H528.84V397.276L529.08 398.236V398.356H528.84L528.72 397.996V397.756L528.6 398.116V398.596H529.08V398.836H528.6V399.316L528.72 399.436H528.6L528.36 399.556V398.836H527.88V399.076H528.24V399.316H527.88L528 399.436H527.88 527.64V399.316Z" fill="#ffffff" fill-rule="evenodd"/><path transform="matrix(1,0,0,-1,0,595.276)" d="M527.4 398.476V397.996H528.24V398.476H527.4ZM527.52 398.236V398.356H528V398.236H527.52Z" fill="#ffffff" fill-rule="evenodd"/><path transform="matrix(1,0,0,-1,0,595.276)" d="M528.96 398.836 529.08 399.076 528.84 399.316 528.72 399.196 528.84 399.076Z" fill="#ffffff" fill-rule="evenodd"/><path transform="matrix(1,0,0,-1,0,595.276)" d="M530.16 399.196V398.956H531.24V398.836H530.52V397.636H531.24V397.396H530.16V397.156H531.24V396.796H531.6V397.156H532.8V397.396H531.6V397.636H532.44V398.836H531.6V398.956H532.68V399.196H531.6V399.436L531.24 399.556V399.196H530.16ZM530.76 398.356V398.596H531.24V398.356H530.76ZM530.76 397.876V398.116H531.24V397.876H530.76ZM531.6 398.356V398.596H532.08V398.356H531.6ZM531.6 397.876V398.116H532.08V397.876H531.6Z" fill="#ffffff" fill-rule="evenodd"/><path transform="matrix(1,0,0,-1,0,595.276)" d="M533.76 398.956V398.716H534.96V398.956H534.48V399.436H534.6 534.48L534.24 399.556V398.956Z" fill="#ffffff" fill-rule="evenodd"/><path transform="matrix(1,0,0,-1,0,595.276)" d="M533.76 397.276V397.036 396.916H533.88V397.036L534.96 397.276V397.516L534.6 397.396 534.84 398.356 534.96 398.476H534.84L534.6 398.596 534.48 397.996 534.36 397.396Z" fill="#ffffff" fill-rule="evenodd"/><path transform="matrix(1,0,0,-1,0,595.276)" d="M534 397.516H534.24L534.12 398.116 534 398.596 533.76 398.476Z" fill="#ffffff" fill-rule="evenodd"/><path transform="matrix(1,0,0,-1,0,595.276)" d="M534.96 398.236V396.796H535.32V396.916H536.04V396.796H536.4V398.236H535.68V398.716H536.4V398.956H535.68V399.436H535.8 535.68V399.556H535.44V398.236H534.96ZM535.32 397.276V397.876H536.04V397.276H535.32Z" fill="#ffffff" fill-rule="evenodd"/></g></svg>