<?xml version='1.0' encoding='UTF-8'?>
<svg xmlns="http://www.w3.org/2000/svg" xmlns:xlink="http://www.w3.org/1999/xlink" xmlns:inkscape="http://www.inkscape.org/namespaces/inkscape" version="1.1" width="567.000" height="269.280" viewBox="0 0 567.000 269.280"><g transform="scale(10.0) translate(-547.707, -505.008)"><defs><clipPath id="clip_19"><path transform="matrix(0,1,1,0,0,0)" d="M0 74.451H595.008V767.55899H0Z"/></clipPath><clipPath id="clip_20"><path transform="matrix(0,1,1,0,0,0)" d="M0 842.013H595.224V.008972168H0Z"/></clipPath></defs><path transform="matrix(0,1,1,0,555.717,530.172)" d="M0 0H-8.91C-9 0-9.108 .036-9.18 .108-9.252 .198-9.288 .288-9.288 .378V40.554C-9.288 40.644-9.252 40.752-9.18 40.824-9.108 40.896-9 40.932-8.91 40.932H0C.09 40.932 .198 40.896 .27 40.824 .342 40.752 .378 40.644 .378 40.554V.378C.378 .288 .342 .198 .27 .108 .198 .036 .09 0 0 0" fill="#ffffff" fill-rule="evenodd"/><path transform="matrix(0,1,1,0,556.131,506.772)" d="M0 0V40.104C0 40.158 0 40.212 .036 40.266 .054 40.302 .072 40.356 .126 40.392 .162 40.446 .216 40.464 .27 40.5 .306 40.518 .36 40.518 .414 40.518H13.356C13.446 40.518 13.572 40.482 13.644 40.392 13.698 40.356 13.716 40.302 13.734 40.266 13.77 40.212 13.77 40.158 13.77 40.104V.18C13.77 .036 13.716-.126 13.608-.234 13.482-.36 13.32-.414 13.194-.414H.414C.36-.414 .306-.396 .27-.378 .216-.36 .162-.324 .126-.288 .072-.252 .054-.198 .036-.144 0-.09 0-.036 0 0" fill="#ffff00" fill-rule="evenodd"/><path transform="matrix(0,1,1,0,555.339,507.186)" d="M0 0H22.95C23.148 0 23.346 .072 23.508 .234 23.67 .396 23.742 .612 23.742 .792V40.896C23.742 40.986 23.724 41.094 23.688 41.184 23.652 41.292 23.598 41.382 23.508 41.454 23.436 41.544 23.346 41.598 23.238 41.634 23.148 41.67 23.04 41.688 22.95 41.688H0C-.09 41.688-.198 41.67-.288 41.634-.396 41.598-.486 41.544-.558 41.454-.63 41.382-.702 41.292-.738 41.184-.774 41.094-.792 40.986-.792 40.896V.792C-.792 .612-.72 .396-.576 .234-.432 .072-.234 0-.072 0H0ZM22.986 .378H14.076C13.986 .378 13.878 .414 13.806 .486 13.734 .576 13.698 .666 13.698 .756V40.932C13.698 40.986 13.698 41.022 13.716 41.076 13.734 41.13 13.77 41.166 13.806 41.202 13.842 41.238 13.896 41.274 13.932 41.292 13.986 41.31 14.022 41.31 14.076 41.31H22.986C23.076 41.31 23.184 41.274 23.256 41.202 23.328 41.13 23.364 41.022 23.364 40.932V.756C23.364 .72 23.364 .666 23.346 .612 23.328 .576 23.292 .522 23.256 .486 23.22 .45 23.184 .432 23.13 .414 23.076 .396 23.04 .378 22.986 .378ZM-.414 .792V40.896C-.414 41.004-.378 41.112-.288 41.184-.216 41.274-.108 41.31 0 41.31H12.942C12.996 41.31 13.05 41.31 13.086 41.292 13.14 41.256 13.194 41.238 13.23 41.184 13.284 41.148 13.302 41.094 13.32 41.058 13.356 41.004 13.356 40.95 13.356 40.896V.972C13.356 .828 13.302 .666 13.194 .558 13.122 .486 13.068 .45 12.996 .414 12.924 .396 12.834 .378 12.78 .378H0C-.054 .378-.108 .396-.144 .414-.198 .432-.252 .468-.288 .504-.342 .54-.36 .594-.378 .648-.414 .702-.414 .756-.414 .792" fill-rule="evenodd"/><path transform="matrix(0,1,1,0,585.021,517.284)" d="M0 0V-8.37C-.18-8.334-.396-8.334-.594-8.388-.792-8.442-.99-8.532-1.17-8.658-1.35-8.784-1.476-8.946-1.584-9.126-1.692-9.306-1.764-9.504-1.782-9.684-1.854-10.098-1.764-10.512-1.512-10.854-1.278-11.196-.918-11.43-.504-11.502V-12.762H-1.008L-1.224-12.474H-3.042V-7.578H-.504V-5.634H-3.042V5.598H-1.368L-1.08 5.886H-.576L-.018 3.42C-.234 3.438-.468 3.42-.702 3.348-.936 3.276-1.152 3.15-1.35 2.97-1.53 2.808-1.674 2.592-1.782 2.376-1.872 2.142-1.908 1.908-1.908 1.71-1.908 1.494-1.872 1.26-1.764 1.044-1.674 .81-1.53 .594-1.332 .432-1.134 .252-.918 .144-.684 .072-.45 0-.216-.018 0 0" fill-rule="evenodd"/><path transform="matrix(0,1,1,0,0,0)" d="M513.018 572.547H514.026V577.4431H513.018Z"/><path transform="matrix(0,1,1,0,0,0)" d="M513.018 579.387H514.026V590.619H513.018Z"/><path transform="matrix(0,1,1,0,576.453,517.068)" d="M0 0C-.36 0-.72-.144-.972-.396-1.224-.648-1.386-1.008-1.386-1.368-1.386-1.728-1.224-2.088-.972-2.34-.72-2.592-.36-2.736 0-2.736 .36-2.736 .702-2.592 .972-2.34 1.224-2.088 1.368-1.728 1.368-1.368 1.368-1.008 1.224-.648 .972-.396 .702-.144 .36 0 0 0ZM0-.792C.144-.792 .288-.846 .396-.954 .522-1.08 .576-1.224 .576-1.368 .576-1.53 .504-1.674 .396-1.782 .288-1.89 .144-1.944 0-1.944-.162-1.944-.306-1.89-.414-1.782-.522-1.674-.576-1.53-.576-1.368-.576-1.224-.522-1.08-.414-.954-.288-.846-.144-.792 0-.792" fill-rule="evenodd"/><path transform="matrix(0,1,1,0,588.099,517.086)" d="M0 0C-.162 0-.324-.018-.504-.09-.666-.162-.828-.27-.972-.396-1.098-.54-1.206-.702-1.278-.864-1.332-1.026-1.368-1.206-1.368-1.368-1.368-1.728-1.224-2.088-.972-2.34-.702-2.592-.36-2.736 0-2.736 .378-2.736 .72-2.592 .972-2.34 1.242-2.088 1.386-1.728 1.386-1.368 1.386-1.206 1.35-1.026 1.278-.864 1.206-.702 1.116-.54 .972-.396 .846-.27 .684-.162 .504-.09 .342-.018 .162 0 0 0ZM0-.792C.162-.792 .306-.846 .414-.954 .522-1.062 .576-1.224 .576-1.368 .576-1.512 .54-1.656 .414-1.782 .306-1.89 .144-1.944 0-1.944-.144-1.944-.288-1.89-.396-1.782-.504-1.674-.576-1.53-.576-1.368-.576-1.224-.522-1.08-.396-.954-.288-.846-.126-.792 0-.792" fill-rule="evenodd"/><path transform="matrix(0,1,1,0,589.413,509.256)" d="M0 0V-14.454H.018C.072-14.814 .288-15.138 .612-15.3L3.546-16.866V-11.97H1.026V-10.026H3.546V1.206L.468 .576C.342 .54 .234 .486 .144 .378 .09 .324 .054 .252 .036 .198 .018 .126 0 .072 0 0ZM1.026-4.212V.162L3.186 .612V-4.212H1.026ZM3.186-9.45H1.026V-4.7879998H3.186ZM1.026-9.45ZM1.026-14.94V-12.546H3.186V-16.092L1.026-14.94" fill-rule="evenodd"/><path transform="matrix(0,1,1,0,566.157,511.668)" d="M0 0C-1.098 0-2.16-.432-2.934-1.224-3.726-1.998-4.158-3.06-4.158-4.176-4.158-5.274-3.726-6.336-2.934-7.11-2.16-7.902-1.098-8.334 0-8.334 1.116-8.334 2.178-7.902 2.952-7.11 3.726-6.336 4.176-5.274 4.176-4.176 4.176-3.06 3.726-1.998 2.952-1.224 2.178-.432 1.116 0 0 0" fill-rule="evenodd"/><path transform="matrix(0,1,1,0,559.983,508.986)" d="M0 0 1.998 1.98 0 3.978C-.198 3.708-.36 3.402-.486 3.06-.594 2.718-.648 2.358-.648 1.98-.648 1.62-.594 1.26-.486 .918-.36 .576-.198 .27 0 0" fill="#e1e1e1" fill-rule="evenodd"/><path transform="matrix(0,1,1,0,562.665,511.668)" d="M0 0-1.998 1.98C-1.728 2.178-1.422 2.34-1.08 2.466-.738 2.574-.378 2.646 0 2.646 .36 2.646 .738 2.574 1.08 2.466 1.404 2.34 1.728 2.178 1.98 1.98L0 0" fill="#e1e1e1" fill-rule="evenodd"/><path transform="matrix(0,1,1,0,563.961,514.35)" d="M0 0-1.998-1.998 0-3.978C.198-3.708 .36-3.402 .468-3.06 .594-2.718 .648-2.358 .648-1.998 .648-1.62 .594-1.26 .468-.918 .36-.576 .198-.27 0 0" fill="#e1e1e1" fill-rule="evenodd"/><path transform="matrix(0,1,1,0,559.299,513.648)" d="M0 0-1.98 1.98-3.978 0C-3.708-.198-3.402-.378-3.06-.486-2.718-.594-2.358-.666-1.98-.666-1.62-.666-1.242-.594-.9-.486-.576-.378-.252-.198 0 0" fill="#e1e1e1" fill-rule="evenodd"/><path transform="matrix(0,1,1,0,556.455,528.768)" d="M0 0V3.168H-.18V1.548H-1.674V2.88H-1.854V1.548H-3.024L-3.06 1.602H-3.096L-3.132 1.548-3.15 1.458V1.314H-.18V0" fill-rule="evenodd"/><path transform="matrix(0,1,1,0,561.999,527.49)" d="M0 0H1.386V.234H0V1.638H-.18V.234H-1.26V1.35H-1.458V-.72L-1.764-.558-1.782-.486-1.818-.468-1.854-.504-1.908-.612-1.98-.738-1.314-1.062-.72-1.44-.594-1.278-.918-1.026-1.26-.828V0H-.18V-1.548H0" fill-rule="evenodd"/><path transform="matrix(0,1,1,0,565.833,528.768)" d="M0 0V1.116L-.036 1.332-.126 1.512-.288 1.656-.504 1.764-.738 1.836-.792 1.8-.828 1.656-.792 1.638-.432 1.494-.252 1.35-.18 1.152V.27L-.216 .054-.288-.054H-1.764L-2.016 1.836-2.232 1.818-1.998-.054H-2.988L-3.024 0-3.06 .018-3.096-.018-3.114-.09-3.15-.27H-1.962L-1.8-1.404-1.566-1.368-1.728-.27H-.27L-.144-.252-.072-.198-.018-.108" fill-rule="evenodd"/><path transform="matrix(0,1,1,0,570.459,528.21)" d="M0 0 .18-.126-.018-.378-.198-.684-.378-.54-.216-.252" fill-rule="evenodd"/><path transform="matrix(0,1,1,0,570.909,527.706)" d="M0 0H.81L.882-.018 .936-.09V-.378L.954-.414H.972L1.098-.396 1.134-.36V.072L1.116 .144 1.062 .198 .99 .216 .9 .234H0L-.036 .252V.612L-.054 .666H-.198L-.216 .612V.252L-.234 .234H-.468L-.504 .27H-.54L-.576 .216V.108L-.594 .036-.576 0H-.234L-.216-.018V-1.134L-.198-1.17H-.054L-.036-1.134V-.018" fill-rule="evenodd"/><path transform="matrix(0,1,1,0,570.783,526.824)" d="M0 0V.846L.018 .882H.162L.18 .846V-1.116L.162-1.152H.018L0-1.116V-.288L-.036-.27H-.612L-.63-.288V-.864L-.648-.954-.666-.972H-.792L-.81-.954-.828-.864V-.288L-.846-.27H-1.26L-1.278-.234-1.26-.108-1.242-.018-1.224 .018H-1.188L-1.134-.036H-.846L-.828 0V.63L-.792 .648H-.666L-.63 .63V0L-.612-.036H-.036" fill-rule="evenodd"/><path transform="matrix(0,1,1,0,575.535,525.744)" d="M0 0V-2.952H.18V-1.8L1.008-2.376 1.044-2.88 1.188-2.826 1.278-2.79 1.314-2.736V-2.7L1.26-2.682 1.008-.378 1.368-.198 1.314 .018 .792-.288 .324-.63 .432-.81 .846-.486 1.008-2.142 .18-1.548V0" fill-rule="evenodd"/><path transform="matrix(0,1,1,0,572.493,528.642)" d="M0 0V3.15H-.18V1.692H-.882V2.862H-1.062V1.692H-1.404L-1.458 1.782-1.512 1.8-1.53 1.782-1.548 1.692-1.566 1.476H-1.062V.27H-.882V1.476H-.18V0" fill-rule="evenodd"/><path transform="matrix(0,1,1,0,569.469,525.906)" d="M0 0H2.268L2.286-.018V-.198L2.268-.216H2.106L2.07-.252V-.756L2.106-.774H2.52L2.538-.81V-.99L2.52-1.008H0L-.018-.99V-.018L0 0ZM1.89-.756V-.252L1.872-.216H1.116L1.098-.252V-.756L1.116-.774H1.872L1.89-.756ZM.918-.756V-.252L.882-.216H.18L.162-.252V-.756L.18-.774H.882L.918-.756" fill-rule="evenodd"/><path transform="matrix(0,1,1,0,585.975,525.546)" d="M0 0H1.386V-1.458H1.566V0H3.312V.234H1.566V1.728H1.386V.234H.144L.108 .288 .09 .306 .054 .288 .036 .252" fill-rule="evenodd"/><path transform="matrix(0,1,1,0,594.381,528.39)" d="M0 0-.18 .144-.396-.126-.558-.414-.378-.558-.198-.252" fill-rule="evenodd"/><path transform="matrix(0,1,1,0,595.677,527.004)" d="M0 0V-1.962L-.018-1.998H-.162L-.18-1.962V-1.134L-.216-1.116H-.792L-.81-1.134V-1.71L-.828-1.782-.846-1.818H-.972L-.99-1.782-1.008-1.71V-1.134L-1.026-1.116H-1.44L-1.458-1.08-1.44-.936-1.422-.864-1.404-.828H-1.368L-1.314-.882H-1.026L-1.008-.846V-.216L-.972-.198H-.846L-.81-.216V-.846L-.792-.882H-.216L-.18-.846V0L-.162 .036H-.018" fill-rule="evenodd"/><path transform="matrix(0,1,1,0,593.823,527.49)" d="M0 0V1.116L-.018 1.134H-.36L-.378 1.17-.36 1.26V1.35L-.324 1.404H-.288L-.252 1.368H-.018L0 1.386V1.764L.018 1.8H.162L.18 1.764V1.386L.216 1.368H1.116L1.206 1.35 1.278 1.332 1.332 1.278 1.35 1.206V.774L1.314 .738 1.188 .72H1.17L1.152 .756V1.062L1.098 1.116 1.026 1.134H.216L.18 1.116V0L.162-.036H.018" fill-rule="evenodd"/><path transform="matrix(0,1,1,0,593.517,525.906)" d="M0 0H2.268L2.286-.018V-.198L2.268-.216H2.106L2.07-.252V-.756L2.106-.774H2.52L2.538-.81V-.99L2.52-1.008H0L-.018-.99V-.018L0 0ZM1.89-.252 1.872-.216H1.116L1.098-.252V-.756L1.116-.774H1.872L1.89-.756V-.252ZM.918-.756V-.252L.882-.216H.18L.162-.252V-.756L.18-.774H.882L.918-.756" fill-rule="evenodd"/><path transform="matrix(0,1,1,0,577.929,528.732)" d="M0 0H-2.898V-1.458H-3.078V1.746H-2.898V.234H-2.142L-1.8 .828-1.404 1.368-1.242 1.206-1.584 .756-1.908 .234H0" fill-rule="evenodd"/><path transform="matrix(0,1,1,0,581.295,525.51)" d="M0 0 .666-.306 1.26-.702 1.386-.522 1.062-.288 .72-.072V.756H1.8V-.81H1.98V.756H3.366V.99H1.98V2.394H1.8V.99H.72V2.088H.522V.036L.216 .198 .198 .27 .162 .288 .126 .234 .072 .144" fill-rule="evenodd"/><path transform="matrix(0,1,1,0,0,0)" d="M527.094 588.567H527.274V591.645H527.094Z"/><path transform="matrix(0,1,1,0,577.947,524.034)" d="M0 0H-1.962V-.288L-1.854-.342C-1.724-.414-1.613-.548-1.62-.702V-.756H-1.368V-.342H0V0" fill-rule="evenodd"/><path transform="matrix(0,1,1,0,0,0)" d="M522.954 575.283H523.152V575.94906H522.954Z"/><path transform="matrix(0,1,1,0,579.279,524.034)" d="M0 0H-1.962V-.288L-1.782-.378-1.728-.432-1.674-.504-1.656-.558-1.62-.612V-.756H-1.368V-.342H0V0" fill-rule="evenodd"/><path transform="matrix(0,1,1,0,568.641,522.396)" d="M0 0 .036-.036 .09-.054 .108-.072 .198-.108 .234-.144 .306-.18 .396-.216 .414-.234 .468-.252 .522-.288 .63-.342 .72-.36 .756-.378 .828-.396 .936-.414 .972-.432 1.098-.468 1.134-.486H1.206L1.35-.522 1.458-.54H1.674V-.882H1.602L1.494-.864C1.225-.808 1.057-.827 .792-.72L.72-.684 .612-.648C.406-.575 .274-.487 .09-.414L.054-.378 0-.342V-1.062H-.324V0" fill-rule="evenodd"/><path transform="matrix(0,1,1,0,571.953,524.034)" d="M0 0V.36H-.972L-1.008 .378-1.026 .396H-1.062L-1.134 .468-1.152 .486-1.17 .522V.54C-1.156 .685-.98 .718-.864 .738H0V1.062H-.972L-1.008 1.08-1.026 1.098H-1.062L-1.134 1.17-1.152 1.188-1.17 1.224V1.26L-1.152 1.296-1.134 1.332-1.062 1.386-1.008 1.404-.954 1.422-.882 1.44H0V1.764H-.99C-1.134 1.761-1.422 1.69-1.476 1.53L-1.512 1.458-1.53 1.368V1.314L-1.512 1.242-1.476 1.17-1.458 1.152-1.44 1.116-1.422 1.098H-1.404L-1.386 1.08-1.368 1.062H-1.35L-1.242 1.008-1.332 .972-1.368 .954-1.422 .918-1.44 .882-1.458 .864-1.476 .828-1.494 .792-1.512 .756-1.53 .666C-1.535 .59-1.513 .504-1.458 .45L-1.44 .414-1.332 .324H-1.476V0" fill-rule="evenodd"/><path transform="matrix(0,1,1,0,583.761,523.134)" d="M0 0 .9 .018V-.324H-.054L-.108-.342-.162-.378-.234-.432-.252-.45-.27-.486V-.522L-.252-.558-.234-.594-.162-.648-.126-.666-.108-.684H-.072L0-.702H.9V-1.044H-.576V-.738L-.432-.72-.54-.648C-.697-.427-.639-.219-.432-.072L-.342-.036-.45 0-.468 .018H-.486L-.504 .036-.522 .054H-.54L-.558 .09C-.801 .477-.383 .746 0 .702L.9 .72V.378H.036C-.096 .398-.156 .332-.252 .252L-.27 .216V.18L-.252 .144-.234 .108-.162 .054-.126 .036-.108 .018H-.072L0 0H.054 0" fill-rule="evenodd"/><path transform="matrix(0,1,1,0,581.871,523.422)" d="M0 0H.018L.054-.018 .162-.054H.216L.234-.072 .27-.09H.306L.324-.108 .342-.126 .396-.144 .414-.162H.432L.45-.198 .486-.216 .54-.27V-.288L.594-.342 .648-.432V-.576L.63-.63 .594-.666 .576-.702 .54-.738V-.756L.504-.774 .468-.792 .432-.828H.414 1.116V-1.134H-.828V-.828L-.72-.81-.756-.756-.81-.702-.828-.666V-.63L-.846-.594-.864-.504V-.468L-.846-.396-.828-.36V-.324L-.81-.306-.792-.288-.756-.234-.702-.18-.63-.126-.54-.09-.486-.072-.414-.054-.306-.018-.198 0H0ZM.306-.594V-.558L.288-.522 .252-.468C.154-.352 .048-.354-.09-.324H-.144L-.252-.342-.306-.36H-.342L-.414-.396-.504-.468-.522-.522-.54-.558V-.594L-.522-.63-.504-.684-.414-.756-.378-.774-.342-.792H-.306L-.162-.828H-.126C-.013-.822 .103-.798 .198-.738L.252-.684 .288-.63 .306-.594" fill-rule="evenodd"/><path transform="matrix(0,1,1,0,571.107,523.098)" d="M0 0H.792L.864 .018 .918 .036 .936 .054V-.27L.756-.288 .846-.342 .882-.378C1.254-.799 .501-1.326 .18-.882L.144-.828 .126-.774 .09-.702C-.01-.491 .079-.388 0-.324L-.054-.306H-.108C-.242-.327-.317-.526-.198-.612L-.18-.648-.126-.684-.054-.702-.072-.972H-.144L-.234-.936-.306-.882-.378-.846-.432-.792-.486-.72-.504-.63-.54-.54V-.414L-.522-.378-.504-.342V-.27L-.468-.234-.414-.18-.378-.126-.324-.09-.288-.054-.216-.036-.162 0H0ZM.198-.288 .234-.306V-.342L.324-.594 .342-.63V-.666L.396-.702 .432-.72 .504-.738 .558-.72 .63-.684 .648-.63 .666-.594 .684-.54 .666-.486 .648-.414 .612-.378 .54-.342 .504-.306H.432L.198-.288" fill-rule="evenodd"/></g></svg>