<?xml version='1.0' encoding='UTF-8'?>
<svg xmlns="http://www.w3.org/2000/svg" xmlns:xlink="http://www.w3.org/1999/xlink" xmlns:inkscape="http://www.inkscape.org/namespaces/inkscape" version="1.1" width="566.700" height="269.280" viewBox="0 0 566.700 269.280"><g transform="scale(10.0) translate(-383.985, -154.944)"><path transform="matrix(1,0,0,-1,0,595.276)" d="M387.72 437.356H436.92C437.52 437.356 438.12 437.116 438.6 436.636 439.08 436.156 439.32 435.436 439.32 434.836V418.516C439.32 418.276 439.32 417.916 439.2 417.676 439.08 417.316 438.84 417.076 438.6 416.836 438.36 416.476 438.12 416.356 437.76 416.236 437.52 416.116 437.16 415.996 436.92 415.996H387.72C387.12 415.996 386.4 416.236 385.92 416.836 385.68 417.076 385.44 417.316 385.32 417.676 385.2 417.916 385.2 418.276 385.2 418.516V434.836C385.2 435.436 385.44 436.156 385.92 436.636 386.4 437.116 387.12 437.356 387.72 437.356Z" fill="#ffffff" fill-rule="evenodd"/><path transform="matrix(1,0,0,-1,0,595.276)" d="M387.72 436.156H436.92C437.04 436.156 437.16 436.156 437.28 436.036 437.52 436.036 437.64 435.916 437.76 435.796 437.88 435.676 438 435.556 438 435.316 438.12 435.196 438.12 435.076 438.12 434.836V418.516C438.12 418.276 438 417.916 437.76 417.676 437.52 417.436 437.16 417.316 436.92 417.316H387.72C387.36 417.316 387.12 417.436 386.76 417.676 386.52 417.916 386.4 418.276 386.4 418.516V434.836C386.4 435.196 386.52 435.556 386.76 435.796 387.12 436.036 387.36 436.156 387.72 436.156Z" fill="#0000ff" fill-rule="evenodd"/><path transform="matrix(1,0,0,-1,0,595.276)" d="M394.08 432.196C394.08 432.796 393.6 433.276 393.12 433.276 392.52 433.276 392.04 432.796 392.04 432.196 392.04 431.596 392.52 431.236 393.12 431.236 393.6 431.236 394.08 431.596 394.08 432.196Z" fill="#ffffff" fill-rule="evenodd"/><path transform="matrix(1,0,0,-1,0,595.276)" d="M394.44 420.196H395.16L395.04 423.076 393.84 426.316 394.08 428.356 394.56 427.876 396 426.556 396.48 427.156 395.04 428.356 394.68 429.556C394.56 429.916 394.32 430.156 393.96 430.396 393.72 430.636 393.36 430.756 393 430.756 392.64 430.756 392.28 430.756 391.92 430.516 391.56 430.396 391.32 430.156 391.08 429.796L390.48 428.956 390 426.196 390.72 425.836 391.32 428.596 391.8 428.956 390.36 423.436 389.04 421.396 389.64 420.676 391.92 423.796 392.64 425.356 393.84 423.076 394.44 420.196Z" fill="#ffffff" fill-rule="evenodd"/><path transform="matrix(1,0,0,-1,0,595.276)" d="M405.24 425.596H401.4L401.04 431.236C401.04 431.356 401.04 431.476 401.04 431.596 401.16 431.716 401.16 431.836 401.28 431.956 401.52 432.196 401.76 432.316 402.12 432.316 402.36 432.316 402.6 432.196 402.84 431.956 403.08 431.716 403.2 431.476 403.2 431.236 403.08 430.876 402.96 430.636 402.72 430.396 402.6 430.276 402.48 430.276 402.36 430.276 402.24 430.156 402.12 430.156 401.88 430.156L402.12 428.116H404.88V427.276H402.12L402.24 426.556H405.84L407.28 423.316 408.36 423.796 408.6 423.196 406.68 422.356 405.24 425.596Z" fill="#ffffff" fill-rule="evenodd"/><path transform="matrix(1,0,0,-1,0,595.276)" d="M400.8 426.676C400.2 426.196 399.72 425.356 399.84 424.396 399.96 423.316 400.68 422.596 401.4 422.236 402 421.996 403.08 421.876 403.92 422.476 404.28 422.716 404.64 423.076 404.88 423.436 405 423.916 405.12 424.276 405.12 424.636L405.72 423.316C405.6 422.836 405.24 422.356 404.88 421.996 404.4 421.636 403.92 421.276 403.32 421.156 402.6 421.036 402 421.036 401.52 421.276 400.92 421.396 400.44 421.636 400.08 421.996 399.72 422.356 399.48 422.716 399.24 423.316 399 423.796 398.88 424.396 399 424.996 399 425.716 399.24 426.196 399.6 426.676 399.96 427.156 400.32 427.516 400.8 427.756V426.676Z" fill="#ffffff" fill-rule="evenodd"/><path transform="matrix(1,0,0,-1,0,595.276)" d="M419.16 419.716C421.44 419.716 423.6 420.436 425.16 421.756 426.72 423.076 427.56 424.876 427.56 426.676 427.56 428.596 426.72 430.396 425.16 431.596 423.6 432.916 421.44 433.636 419.16 433.636 417 433.636 414.84 432.916 413.28 431.596 411.6 430.396 410.76 428.596 410.76 426.676 410.76 424.876 411.6 423.076 413.28 421.756 414.84 420.436 417 419.716 419.16 419.716Z" fill="#ff0000" fill-rule="evenodd"/><path transform="matrix(1,0,0,-1,0,595.276)" stroke-width=".12" stroke-linecap="butt" stroke-miterlimit="10" stroke-linejoin="miter" fill="none" stroke="#ffffff" d="M414.5 422.5H415.5"/><path transform="matrix(1,0,0,-1,0,595.276)" stroke-width=".12" stroke-linecap="butt" stroke-miterlimit="10" stroke-linejoin="miter" fill="none" stroke="#ffffff" d="M423.5 422.5V422.5"/><path transform="matrix(1,0,0,-1,0,595.276)" d="M414.96 422.356V422.356C414.96 423.196 415.32 424.156 416.04 424.876 416.76 425.596 417.6 426.076 418.56 426.076V427.276C417.6 427.396 416.76 427.876 416.04 428.596 415.32 429.316 414.96 430.276 414.96 431.116H416.4C416.52 429.916 417.36 428.956 418.56 428.716V431.356H419.88V428.716C420.96 428.956 421.8 429.916 421.92 431.116H423.36C423.36 430.276 423 429.316 422.28 428.596 421.56 427.876 420.72 427.396 419.88 427.276V426.076C420.72 426.076 421.56 425.596 422.28 424.876 423 424.156 423.36 423.196 423.36 422.356H421.92C421.92 422.836 421.68 423.436 421.32 423.916 420.84 424.396 420.36 424.636 419.88 424.756V422.116H418.56V424.756C417.36 424.516 416.52 423.556 416.4 422.356H414.96Z" fill="#ffffff" fill-rule="evenodd"/><path transform="matrix(1,0,0,-1,0,595.276)" d="M431.52 433.276H433.68V424.516L435.96 426.676V423.436L432.6 420.196 429.36 423.436V426.676L431.52 424.516Z" fill="#ffffff" fill-rule="evenodd"/><path transform="matrix(1,0,0,-1,0,595.276)" stroke-width=".12" stroke-linecap="round" stroke-linejoin="round" fill="none" stroke="#0000ff" d="M436.92 437.356C438.24 437.356 439.32 436.276 439.32 434.836V418.516C439.32 417.196 438.24 415.996 436.92 415.996H387.72C386.28 415.996 385.2 417.196 385.2 418.516V434.836C385.2 436.276 386.28 437.356 387.72 437.356H436.92"/></g></svg>