<?xml version='1.0' encoding='UTF-8'?>
<svg xmlns="http://www.w3.org/2000/svg" xmlns:xlink="http://www.w3.org/1999/xlink" xmlns:inkscape="http://www.inkscape.org/namespaces/inkscape" version="1.1" width="567.000" height="269.280" viewBox="0 0 567.000 269.280"><g transform="scale(10.0) translate(-438.573, -505.008)"><defs><clipPath id="clip_19"><path transform="matrix(0,1,1,0,0,0)" d="M0 74.451H595.008V767.55899H0Z"/></clipPath><clipPath id="clip_20"><path transform="matrix(0,1,1,0,0,0)" d="M0 842.013H595.224V.008972168H0Z"/></clipPath></defs><path transform="matrix(0,1,1,0,479.901,531.576)" d="M0 0V-25.704C0-25.848-.018-25.974-.072-26.118-.126-26.262-.216-26.388-.324-26.496-.432-26.604-.558-26.694-.702-26.748-.846-26.802-.99-26.82-1.116-26.82H-24.822C-24.966-26.82-25.11-26.802-25.236-26.748-25.38-26.694-25.506-26.604-25.614-26.496-25.722-26.388-25.812-26.262-25.866-26.118-25.92-25.974-25.956-25.848-25.956-25.704V0C-25.956 .126-25.92 .27-25.866 .414-25.812 .558-25.722 .684-25.614 .792-25.506 .9-25.38 .99-25.236 1.044-25.11 1.098-24.966 1.116-24.822 1.116H-1.116C-.828 1.116-.54 1.008-.324 .792-.108 .576 0 .306 0 0" fill="#ffffff" fill-rule="evenodd"/><path transform="matrix(0,1,1,0,454.197,531.018)" d="M0 0V25.704C0 25.776-.018 25.848-.036 25.902-.072 25.974-.108 26.046-.162 26.1-.216 26.154-.288 26.19-.36 26.226-.414 26.244-.486 26.262-.558 26.262H-24.264C-24.408 26.262-24.552 26.208-24.66 26.1-24.786 25.992-24.822 25.848-24.822 25.704V0C-24.822-.144-24.786-.288-24.66-.396-24.606-.45-24.552-.504-24.48-.522-24.408-.558-24.336-.558-24.264-.558H-.558C-.414-.558-.27-.504-.162-.396-.054-.288 0-.144 0 0" fill="#0000ff" fill-rule="evenodd"/><path transform="matrix(0,1,1,0,461.649,508.968)" d="M0 0 .828 .846H-.414L-1.656-.414-.414-1.656H.828L0-.828H3.33V0" fill="#ffffff" fill-rule="evenodd"/><path transform="matrix(0,1,1,0,0,0)" d="M506.952 468.849H530.262V469.605H506.952Z" fill="#ffffff"/><path transform="matrix(0,1,1,0,460.335,513.846)" d="M0 0C-.054 .072-.108 .144-.18 .162-.234 .18-.27 .198-.324 .198-.45 .198-.594 .126-.684 .036-.792-.072-.828-.216-.81-.414V-1.044H.936V-.324C.936-.198 .918-.018 .81 .108 .72 .216 .558 .288 .396 .288 .324 .288 .252 .288 .198 .252 .09 .216 .036 .126 0 0ZM-.09-.738H-.54V-.324C-.54-.27-.522-.216-.486-.18-.432-.126-.378-.108-.324-.108-.27-.108-.216-.126-.162-.18-.108-.216-.09-.27-.09-.324V-.738ZM.684-.324V-.738H.126V-.324C.126-.144 .252 0 .396 0 .468 0 .54-.036 .594-.108 .648-.162 .684-.252 .684-.324" fill="#ffffff" fill-rule="evenodd"/><path transform="matrix(0,1,1,0,461.523,514.818)" d="M0 0C-.018-.126-.054-.252-.144-.36-.252-.45-.36-.504-.486-.522H-1.278V-.234H-.468C-.414-.234-.36-.216-.324-.162-.288-.108-.27-.054-.252 0-.27 .054-.288 .108-.324 .162-.36 .198-.414 .234-.468 .234H-1.278V.504H-.036V.234H-.09C-.072 .198-.054 .162-.036 .126-.018 .09-.018 .036 0 0" fill="#ffffff" fill-rule="evenodd"/><path transform="matrix(0,1,1,0,462.729,513.972)" d="M0 0C.018 .036 .018 .09 .018 .126 .018 .144 .018 .144 .018 .162V.198C.036 .36 .144 .504 .288 .594 .342 .612 .396 .63 .468 .63 .558 .612 .63 .576 .684 .522 .792 .396 .846 .234 .828 .09 .846-.108 .738-.306 .576-.432L.396-.252C.45-.216 .504-.162 .522-.108 .558-.054 .576 .018 .576 .09 .576 .126 .576 .144 .576 .18 .558 .216 .558 .252 .54 .27 .522 .288 .504 .324 .468 .324 .432 .324 .414 .324 .396 .324 .378 .306 .378 .306 .36 .288 .324 .252 .288 .162 .288 .09 .288 .054 .27 .018 .27-.018 .234-.144 .18-.27 .09-.324V-.342C.036-.378-.036-.396-.108-.378-.198-.378-.27-.342-.324-.288-.396-.216-.45-.108-.45 0L-.468 .018C-.486 .234-.432 .45-.306 .594L-.108 .414C-.162 .342-.198 .234-.198 .126-.198 .09-.198 .054-.18 0-.18-.036-.144-.054-.108-.054-.054-.054-.018-.036 0 0" fill="#ffffff" fill-rule="evenodd"/><path transform="matrix(0,1,1,0,476.535,516.366)" d="M0 0-1.512-1.512 0-3.006H1.494L.486-1.998H5.976V-1.008H.486L1.494 0" fill="#ffffff" fill-rule="evenodd"/><path transform="matrix(0,1,1,0,458.985,525.978)" d="M0 0V.702H-.162V.18H-.45V.63H-.612V.18H-.882V.666H-1.044V0" fill="#ffffff" fill-rule="evenodd"/><path transform="matrix(0,1,1,0,460.353,525.978)" d="M0 0V.198L-.378-.072-.756 .162V-.018L-.504-.162-.756-.306V-.504L-.378-.27 0-.522V-.324L-.252-.162" fill="#ffffff" fill-rule="evenodd"/><path transform="matrix(0,1,1,0,460.965,525.852)" d="M0 0C0 .018 0 .054-.018 .09-.018 .108-.036 .126-.054 .144-.072 .162-.09 .18-.108 .198L-.036 .342 0 .306C.036 .288 .054 .27 .072 .252 .09 .234 .108 .198 .108 .18 .126 .126 .144 .072 .144 .018 .144-.036 .126-.108 .09-.162 .036-.234-.018-.27-.09-.306-.162-.324-.252-.324-.342-.324-.396-.306-.468-.27-.522-.234-.558-.198-.594-.144-.612-.09-.63-.036-.648 .036-.63 .108-.612 .18-.576 .234-.522 .288-.522 .288-.504 .306-.486 .324-.468 .324-.45 .324-.432 .342L-.36 .198C-.396 .18-.432 .162-.45 .144-.468 .126-.468 .126-.486 .108-.504 .054-.486 0-.468-.054-.45-.09-.414-.108-.36-.144-.306-.162-.234-.162-.162-.144-.09-.126-.018-.072 0 0" fill="#ffffff" fill-rule="evenodd"/><path transform="matrix(0,1,1,0,461.703,525.996)" d="M0 0C0 .09 0 .18-.036 .252-.054 .306-.072 .342-.108 .36L-.216 .27-.198 .234C-.18 .198-.162 .162-.144 .126-.144 .072-.144 .018-.18-.036-.198-.054-.216-.072-.252-.09-.288-.108-.306-.108-.342-.108V.396C-.414 .396-.486 .396-.558 .378-.63 .36-.684 .306-.72 .252-.792 .144-.81 0-.738-.108-.684-.198-.594-.252-.486-.27-.378-.288-.27-.27-.18-.234-.144-.216-.09-.18-.054-.144-.036-.09-.018-.036 0 0ZM-.45-.108C-.486-.108-.522-.09-.558-.072-.594-.072-.612-.036-.63-.018-.648 .036-.648 .09-.63 .144-.612 .162-.594 .18-.576 .198-.54 .216-.504 .234-.45 .234V-.108" fill="#ffffff" fill-rule="evenodd"/><path transform="matrix(0,1,1,0,462.441,525.222)" stroke-width=".288" stroke-linecap="round" stroke-linejoin="round" fill="none" stroke="#ffffff" d="M0 0H.036"/><path transform="matrix(0,1,1,0,462.459,525.258)" d="M0 0C-.018 .054-.036 .108-.036 .162-.036 .216-.018 .288 .018 .342 .054 .396 .108 .45 .162 .468 .234 .504 .288 .504 .342 .504 .396 .504 .468 .504 .522 .468 .594 .45 .648 .414 .684 .342 .72 .288 .738 .234 .738 .18 .738 .108 .72 .054 .702 .018 .684 .018 .684 0 .702 0V-.018H.972V-.18H-.036V-.018H0V0C.018 0 0 0 0 0ZM.162 .036C.18 .018 .216 0 .27 0L.288-.018H.414L.45 0C.486 0 .522 .018 .54 .054 .576 .09 .576 .144 .576 .18 .576 .234 .54 .27 .504 .306 .396 .36 .27 .36 .18 .288 .144 .252 .108 .216 .108 .162 .108 .144 .126 .108 .126 .09 .126 .072 .144 .054 .162 .036" fill="#ffffff" fill-rule="evenodd"/><path transform="matrix(0,1,1,0,463.413,525.798)" d="M0 0C.018 0 .036 .018 .036 .054 .054 .072 .054 .09 .036 .108 .036 .144 .036 .162 .036 .18L.18 .198C.198 .126 .198 .018 .162-.054 .144-.09 .126-.108 .108-.126 .09-.162 .054-.162 .036-.162H-.432V-.306H-.576V-.162H-.81L-.864 0H-.576V.198H-.432V0H0" fill="#ffffff" fill-rule="evenodd"/><path transform="matrix(0,1,1,0,456.087,526.734)" d="M0 0-.072 .162C-.144 .126-.216 .072-.27 0-.306-.072-.342-.162-.342-.27-.342-.36-.306-.45-.252-.522-.198-.594-.126-.63-.054-.666 .018-.702 .09-.738 .198-.738 .288-.738 .396-.72 .486-.666 .594-.612 .666-.558 .702-.468 .756-.396 .774-.324 .774-.252 .774-.198 .756-.162 .738-.108 .72-.054 .684-.018 .648 .018H.63 .738V.18H.144V-.288H.306V.018H.36C.414 .018 .486 0 .522-.054 .576-.108 .594-.18 .594-.252 .594-.342 .54-.45 .414-.504 .27-.576 .126-.558 .018-.522-.072-.468-.162-.378-.18-.27-.18-.144-.09-.054 0 0" fill="#ffffff" fill-rule="evenodd"/><path transform="matrix(0,1,1,0,456.753,527.49)" d="M0 0C.018 .09 0 .162-.036 .252-.054 .288-.072 .324-.108 .342L-.216 .252-.198 .234C-.18 .198-.162 .144-.144 .108-.144 .054-.144 0-.18-.054-.198-.072-.216-.09-.252-.108-.27-.108-.306-.126-.342-.126V.378C-.414 .396-.486 .378-.558 .36-.612 .342-.684 .306-.72 .252-.792 .144-.792 0-.738-.126-.684-.198-.594-.27-.486-.27-.378-.306-.27-.288-.18-.234-.126-.216-.09-.198-.054-.144-.036-.108-.018-.054 0 0ZM-.45-.126C-.486-.126-.522-.108-.558-.09-.594-.072-.612-.054-.63-.018-.648 .018-.648 .072-.63 .126-.612 .162-.594 .18-.558 .198-.54 .216-.486 .216-.45 .216V-.126" fill="#ffffff" fill-rule="evenodd"/><path transform="matrix(0,1,1,0,457.635,526.86)" d="M0 0C0 .036 .018 .072 .036 .09 .072 .126 .09 .144 .126 .144H.612V.306H.09C.054 .306 0 .288-.036 .252-.09 .216-.108 .18-.126 .144-.144 .09-.162 .036-.144-.018-.144-.054-.108-.108-.09-.144H-.144V-.306H.612V-.144H.144C.108-.144 .072-.126 .054-.108 .018-.072 0-.036 0 0" fill="#ffffff" fill-rule="evenodd"/><path transform="matrix(0,1,1,0,458.409,527.49)" d="M0 0C.018 .09 0 .18-.036 .252-.054 .288-.072 .324-.108 .36L-.216 .252-.198 .234C-.18 .198-.162 .144-.144 .108-.144 .054-.144 0-.18-.054-.198-.072-.216-.09-.252-.108-.27-.108-.306-.126-.342-.108V.378C-.414 .396-.486 .378-.558 .36-.612 .342-.684 .306-.72 .252-.792 .144-.792 0-.738-.126-.684-.198-.594-.252-.486-.27-.378-.306-.27-.288-.18-.234-.126-.216-.09-.198-.054-.144-.036-.108-.018-.054 0 0ZM-.45-.126C-.486-.126-.522-.108-.558-.09-.594-.072-.612-.054-.63-.018-.648 .018-.648 .09-.63 .126-.612 .162-.594 .18-.558 .198-.54 .216-.486 .216-.45 .216V-.126" fill="#ffffff" fill-rule="evenodd"/><path transform="matrix(0,1,1,0,459.147,526.788)" d="M0 0C-.018 .036-.054 .072-.072 .126-.09 .162-.09 .216-.072 .252H.09C.09 .18 .108 .126 .126 .072 .144 .054 .162 .036 .18 .018 .198 .018 .216 0 .234 0H.684V-.162H-.072V0H0" fill="#ffffff" fill-rule="evenodd"/><path transform="matrix(0,1,1,0,460.155,527.382)" d="M0 0-.054-.054C-.072-.054-.072-.072-.09-.072H-.324C-.36-.054-.378-.054-.414-.072-.432-.072-.45-.072-.486-.072-.522-.072-.558-.09-.594-.108-.612-.144-.648-.18-.666-.216-.684-.27-.684-.324-.684-.378-.684-.432-.666-.468-.666-.504-.648-.54-.648-.558-.63-.594-.612-.612-.612-.63-.612-.648L-.486-.576-.522-.504C-.522-.468-.54-.45-.54-.414-.54-.378-.54-.342-.54-.306-.522-.288-.522-.27-.504-.252-.486-.234-.468-.234-.45-.216-.432-.216-.432-.216-.414-.216L-.378-.234-.36-.342C-.36-.378-.36-.396-.36-.432-.36-.468-.342-.504-.342-.522-.324-.576-.306-.612-.27-.63-.234-.666-.18-.684-.126-.684-.072-.684-.036-.666 0-.63 .036-.612 .054-.576 .072-.54 .09-.504 .108-.468 .108-.432 .108-.396 .108-.342 .09-.306 .072-.27 .054-.234 .018-.198 .054-.18 .072-.162 .09-.144 .09-.126 .108-.09 .108-.072L0 0ZM-.018-.432C-.036-.45-.036-.468-.054-.486-.072-.504-.09-.504-.108-.522-.126-.522-.144-.522-.162-.504-.18-.504-.198-.486-.216-.468-.216-.45-.216-.414-.234-.396-.234-.378-.234-.342-.252-.306-.252-.288-.252-.252-.252-.216H-.126C-.108-.216-.09-.234-.09-.234-.072-.234-.072-.252-.054-.252-.036-.27-.018-.288-.018-.324 0-.36-.018-.396-.018-.432" fill="#ffffff" fill-rule="evenodd"/><path transform="matrix(0,1,1,0,460.155,527.382)" d="M0 0V0" fill="#ffffff" fill-rule="evenodd"/><path transform="matrix(0,1,1,0,459.507,526.77)" d="M0 0V0" fill="#ffffff" fill-rule="evenodd"/><path transform="matrix(0,1,1,0,460.371,527.328)" d="M0 0H-.9V.162H-.036C-.018 .162 0 .162 0 .162 0 .18 .018 .198 .018 .198 .018 .216 .018 .234 0 .252 0 .27 0 .288 0 .306L.144 .324C.144 .288 .162 .252 .162 .216 .162 .18 .162 .144 .144 .108 .144 .09 .126 .054 .09 .018 .072 0 .036 0 0 0" fill="#ffffff" fill-rule="evenodd"/><path transform="matrix(0,1,1,0,462.117,527.472)" stroke-width=".288" stroke-linecap="round" stroke-linejoin="round" fill="none" stroke="#ffffff" d="M0 0V-.18 0"/><path transform="matrix(0,1,1,0,461.937,527.472)" d="M0 0V.18H-1.044V0H-.648V-.486H-1.044V-.666H0V-.486H-.486V0" fill="#ffffff" fill-rule="evenodd"/><path transform="matrix(0,1,1,0,462.333,527.094)" d="M0 0C.09 0 .198 .036 .27 .108 .36 .18 .396 .288 .396 .378 .396 .468 .36 .558 .27 .648 .198 .72 .09 .756 0 .738-.09 .756-.198 .72-.27 .648-.342 .558-.378 .468-.378 .378-.378 .288-.342 .18-.27 .108-.198 .036-.09 0 0 0ZM-.234 .378C-.234 .432-.198 .468-.162 .522-.108 .558-.054 .576 0 .576 .054 .576 .126 .558 .162 .522 .216 .468 .234 .432 .234 .378 .234 .324 .216 .27 .162 .234 .126 .198 .054 .18 0 .18-.054 .18-.108 .198-.162 .234-.198 .27-.234 .324-.234 .378" fill="#ffffff" fill-rule="evenodd"/><path transform="matrix(0,1,1,0,463.269,527.328)" d="M0 0H-.9V.18H-.036C-.018 .18 0 .18 0 .18 0 .198 .018 .216 .018 .216 .018 .234 .018 .252 0 .27 0 .288 0 .306 0 .324L.144 .342C.144 .306 .162 .27 .162 .234 .162 .198 .162 .162 .144 .126 .144 .108 .126 .072 .09 .036 .072 .018 .036 0 0 0" fill="#ffffff" fill-rule="evenodd"/><path transform="matrix(0,1,1,0,0,0)" d="M526.716 463.737H527.472V463.89903H526.716Z" fill="#ffffff"/><path transform="matrix(0,1,1,0,463.917,526.5)" d="M0 0C-.054 0-.09-.054-.09-.108-.09-.144-.054-.198 0-.198 .054-.198 .108-.144 .108-.108 .108-.054 .054 0 0 0" fill="#ffffff" fill-rule="evenodd"/><path transform="matrix(0,1,1,0,464.583,527.436)" d="M0 0C.018-.036 .036-.072 .036-.108 .054-.126 .054-.144 .054-.162 .054-.18 .054-.216 .036-.252 0-.342-.072-.414-.162-.468-.288-.504-.414-.504-.54-.45-.558-.45-.576-.432-.576-.432-.648-.396-.702-.306-.72-.216-.738-.108-.72-.018-.666 .036H-1.008V.198H.036V.036H0-.018C-.018 .036-.018 .036-.018 .036V.018L0 0ZM-.108-.09C-.108-.054-.144 0-.18 .018-.216 .036-.234 .036-.27 .036H-.414C-.45 .036-.486 .036-.522 0-.558-.018-.576-.054-.576-.09V-.108C-.594-.144-.576-.198-.558-.234-.54-.252-.522-.27-.486-.288-.396-.342-.288-.342-.198-.288-.18-.27-.162-.252-.144-.234-.126-.216-.108-.198-.108-.18-.108-.144-.108-.126-.108-.09" fill="#ffffff" fill-rule="evenodd"/><path transform="matrix(0,1,1,0,465.015,526.77)" d="M0 0 .126 .072 .09 .144C.09 .18 .072 .198 .072 .234 .072 .27 .072 .306 .072 .342 .09 .36 .09 .378 .108 .396 .126 .414 .144 .414 .162 .432 .18 .432 .18 .432 .198 .432H.234L.252 .306C.252 .27 .252 .252 .252 .216 .252 .18 .27 .162 .27 .126 .288 .072 .306 .036 .342 .018 .378-.018 .432-.036 .486-.036 .54-.036 .576-.018 .612 .018 .648 .036 .666 .072 .684 .108 .702 .144 .72 .18 .72 .216 .72 .27 .72 .306 .702 .342 .684 .378 .666 .432 .63 .45 .666 .468 .684 .486 .702 .504 .702 .522 .72 .558 .72 .576L.612 .666 .576 .612 .558 .594C.54 .594 .54 .594 .522 .594H.288C.234 .594 .18 .594 .126 .576 .09 .576 .054 .558 .018 .54 0 .504-.036 .468-.054 .432-.072 .378-.072 .324-.072 .27-.072 .216-.054 .18-.054 .144-.036 .108-.036 .09-.018 .072 0 .036 0 .018 0 0ZM.594 .216 .576 .198C.576 .18 .558 .18 .558 .162 .54 .144 .522 .144 .504 .126 .486 .126 .468 .126 .45 .144 .432 .144 .414 .162 .396 .18 .396 .198 .396 .234 .378 .252 .378 .27 .378 .306 .36 .342 .36 .378 .36 .396 .36 .432H.486C.504 .432 .522 .414 .522 .414 .54 .414 .54 .396 .558 .396 .576 .378 .594 .36 .594 .324 .612 .288 .594 .252 .594 .216" fill="#ffffff" fill-rule="evenodd"/><path transform="matrix(0,1,1,0,465.015,526.77)" d="M0 0V0" fill="#ffffff" fill-rule="evenodd"/><path transform="matrix(0,1,1,0,466.023,527.526)" d="M0 0C.036 0 .054-.036 .054-.072 .054-.09 .054-.126 .036-.162L.18-.198C.18-.162 .18-.126 .198-.09 .198-.072 .198-.036 .198 0 .198 .054 .144 .126 .09 .144-.054 .198-.216 .234-.36 .288-.504 .342-.648 .396-.81 .432V.252L-.306 .108-.81-.054V-.234L-.036 .018 0 0" fill="#ffffff" fill-rule="evenodd"/><path transform="matrix(0,1,1,0,466.779,526.986)" d="M0 0C0 .018 0 .054 0 .072 0 .09 0 .09 .018 .108V.126C.018 .216 .072 .306 .162 .36 .198 .378 .234 .378 .27 .378 .324 .378 .378 .342 .414 .324V.306C.468 .234 .504 .144 .504 .054 .504-.072 .432-.18 .342-.252L.234-.144C.27-.126 .288-.108 .306-.054 .342-.018 .342 .018 .342 .054 .342 .072 .342 .09 .342 .108 .342 .126 .324 .144 .324 .162 .306 .18 .306 .198 .27 .198 .252 .198 .252 .198 .234 .198L.216 .18C.18 .144 .162 .108 .162 .054 .162 .036 .162 .018 .162-.018 .144-.09 .108-.162 .054-.198 .018-.216-.036-.234-.072-.234-.126-.216-.162-.198-.198-.18-.234-.126-.27-.072-.27 0V.018H-.288C-.288 .072-.288 .144-.27 .198-.252 .27-.216 .324-.18 .36L-.072 .252C-.108 .198-.126 .144-.126 .072-.126 .054-.126 .036-.108 0-.108-.018-.09-.036-.072-.036-.036-.036-.018-.018 0 0" fill="#ffffff" fill-rule="evenodd"/><path transform="matrix(0,1,1,0,455.799,528.552)" d="M0 0-.018-.108 .144-.162 .288-.252 .432-.36 .54-.504 .648-.36 .522-.216 .396-.108 .252-.018 .072 .036 .054 .072 .036 .09 .018 .054" fill="#ffffff" fill-rule="evenodd"/><path transform="matrix(0,1,1,0,456.069,528.93)" d="M0 0-.054-.108 .324-.252 .666-.414 .684-.648 .828-.612 .882-.594 .9-.576V-.558L.864-.54 .738 .45 .9 .54 .81 .684 .666 .612 .522 .522 .396 .414 .252 .306 .342 .18 .612 .378 .666-.234 .09 .018 .072 .054 .054 .072 .018 .054" fill="#ffffff" fill-rule="evenodd"/><path transform="matrix(0,1,1,0,455.853,528.354)" d="M0 0 .144 .018V.36L.324 .396 .486 .504 .666 .666 .846 .882 .72 1.044 .648 .918 .576 .828 .486 .738 .396 .666 .306 .612 .216 .558 0 .522" fill="#ffffff" fill-rule="evenodd"/><path transform="matrix(0,1,1,0,457.527,528.336)" d="M0 0H.44995V1.278H0ZM.324 .144H.126V.37800998H.324ZM.324 .504H.126V.73801H.324ZM.324 .882H.126V1.1340101H.324Z" fill="#ffffff" fill-rule="evenodd"/><path transform="matrix(0,1,1,0,457.563,528.948)" d="M0 0 .108 .09 .072 .522H.9V.684H.054L0 1.062V1.134L-.018 1.116-.054 1.098-.144 .99-.054 .504" fill="#ffffff" fill-rule="evenodd"/><path transform="matrix(0,1,1,0,457.779,529.092)" d="M0 0 .144-.072 .36-.216 .432-.306 .486-.396 .612-.288 .468-.144 .36-.054 .594 .144 .504 .288 .378 .144 .216 .036 .108 .09V.126L.09 .144 .072 .126 .054 .108" fill="#ffffff" fill-rule="evenodd"/><path transform="matrix(0,1,1,0,458.517,529.092)" d="M0 0 .162-.036 .27-.09 .36-.126 .432-.18 .486-.252 .594-.144 .468-.036 .324 .036 .45 .126 .594 .252 .486 .378 .432 .288 .36 .216 .27 .162 .162 .108 .072 .144 .036 .18V.162L.018 .126" fill="#ffffff" fill-rule="evenodd"/><path transform="matrix(0,1,1,0,459.849,528.354)" d="M0 0-.036-.108 .144-.162 .306-.234 .486-.324 .648-.432 .756-.324 .594-.216H1.476V-.072H.306L.09 .018 .072 .054H.054L.036 .036" fill="#ffffff" fill-rule="evenodd"/><path transform="matrix(0,1,1,0,459.921,528.408)" d="M0 0H1.422V.162H1.152V.432H1.008V.162H.828V.432H.702V.162H.504V.468H0V0ZM.36 .162H.12599002V.30601H.36Z" fill="#ffffff" fill-rule="evenodd"/><path transform="matrix(0,1,1,0,460.479,528.39)" d="M0 0H.144V.306H.378V0H.522V.45H0" fill="#ffffff" fill-rule="evenodd"/><path transform="matrix(0,1,1,0,460.425,529.02)" d="M0 0H.126V.36L.288 .324 .432 .252 .324 .198 .18 .144 .198 .018 .396 .09 .54 .162 .612 .054 .684-.108 .81-.018 .738 .126 .63 .252 .738 .378 .81 .504 .684 .594 .612 .468 .54 .36 .306 .468 .072 .54-.018 .45 0 .414" fill="#ffffff" fill-rule="evenodd"/><path transform="matrix(0,1,1,0,461.541,528.534)" d="M0 0H.126V.18H.792V-.018H.918V.846H.792V.72H.126V.846H0V.72H-.144L-.162 .738H-.18L-.198 .72-.216 .684-.234 .558H0V.306H-.162L-.18 .342H-.198V.324L-.216 .288-.234 .18H0V0ZM.522 .306H.37802003V.55798H.522ZM.792 .306H.64796V.55798H.792ZM.27 .306H.12596V.55798H.27Z" fill="#ffffff" fill-rule="evenodd"/><path transform="matrix(0,1,1,0,461.559,529.758)" d="M0 0 .09 .126-.054 .252-.216 .36-.288 .216-.126 .108" fill="#ffffff" fill-rule="evenodd"/><path transform="matrix(0,1,1,0,462.459,528.336)" d="M0 0H.918L1.116-.018 1.278-.072 1.404-.144 1.494-.018 1.386 .054 1.26 .09 1.116 .126 .954 .144V.396H1.278L1.332 .378 1.35 .306V.198L1.494 .27 1.476 .432 1.458 .468 1.35 .54H0V0ZM.846 .144H.55804V.39598H.846ZM.432 .144H.12597V.39598H.432Z" fill="#ffffff" fill-rule="evenodd"/><path transform="matrix(0,1,1,0,462.117,529.452)" d="M0 0 .108-.09 .234 0 .36 .054 .252 .198 .126 .108" fill="#ffffff" fill-rule="evenodd"/><path transform="matrix(0,1,1,0,463.539,528.984)" d="M0 0 .108 .108-.036 .198H.846V.36H-.306L-.576 .486H-.45V.648L-.234 .612-.054 .576 .126 .504 .252 .414 .36 .54 .234 .612 .36 .792 .468 .702 .558 .63 .63 .522 .684 .414 .81 .522 .738 .648C.609 .887 .246 1.048-.018 1.044H-.216V.756L-.45 .792V1.062H-.594V.522H-.612L-.63 .486-.702 .36-.504 .288-.144 .108 0 0ZM-.072 .72V.9L.216 .846 .108 .666-.072 .72" fill="#ffffff" fill-rule="evenodd"/><path transform="matrix(0,1,1,0,464.673,528.516)" d="M0 0H.99V.144H.054L.036 .162 0 .144" fill="#ffffff" fill-rule="evenodd"/><path transform="matrix(0,1,1,0,464.961,528.3)" d="M0 0H1.242L1.314-.018 1.386-.054V-.252L1.53-.198 1.512 0 1.494 .054 1.458 .108 1.314 .144H.09L.072 .162 .054 .18 .018 .144" fill="#ffffff" fill-rule="evenodd"/><path transform="matrix(0,1,1,0,466.113,528.318)" d="M0 0-.018-.108 .198-.144 .396-.216 .594-.324 .756-.468 .882-.342 .648-.18 .432-.072V.198L.63 .144 .81 .09 .684-.09 .792-.198 .864-.072 .954 .036 1.08-.054 1.188-.162 1.278-.288 1.35-.45 1.494-.342 1.458-.216C1.29 .103 .908 .267 .576 .342L.342 .396 .234 .288 .27 .234V0L.09 .036 .054 .09H.036L.018 .072" fill="#ffffff" fill-rule="evenodd"/><path transform="matrix(0,1,1,0,466.815,528.318)" d="M0 0-.018-.09H.63L.522-.198 .612-.306 .738-.198 .846-.09H1.53V.072H.972L1.116 .288 .936 .432 .864 .216 .774 .072H.072L.036 .108H.018L0 .072" fill="#ffffff" fill-rule="evenodd"/><path transform="matrix(0,1,1,0,458.337,516.276)" d="M0 0H2.232L2.34 .054 2.394 .162V2.016L2.376 2.124 2.322 2.214 2.25 2.286 2.178 2.34 2.07 2.394 1.944 2.43H1.8L1.71 2.178 1.908 2.142 2.052 2.07 2.124 1.962 2.142 1.836V.342L2.106 .306 2.07 .288 1.998 .27H1.134V1.854H1.296V2.106H0V0ZM.864 .27H.25206V.89997008H.864ZM.864 1.152H.25206V1.854H.864Z" fill="#ffffff" fill-rule="evenodd"/><path transform="matrix(0,1,1,0,463.035,516.186)" d="M0 0-.018-.216H.828V-1.35H1.098V-.216H2.106V-1.188H2.358V1.026H2.106V.072H1.098V1.206H.828V.072H.108L.072 .144H.036L.018 .108" fill="#ffffff" fill-rule="evenodd"/><path transform="matrix(0,1,1,0,0,0)" d="M520.326 455.907H523.998V466.56303H520.326Z" fill="#ffffff"/><path transform="matrix(0,1,1,0,457.707,521.244)" d="M0 0C-.198 0-.324-.108-.324-.288-.324-.342-.288-.414-.27-.432H-.288V-.594H.522V-.414H.288C.324-.414 .342-.342 .342-.27 .342-.198 .306-.126 .252-.072 .18-.018 .108 0 0 0ZM.18-.306C.18-.324 .18-.36 .144-.378 .126-.414 .108-.414 .09-.414H-.072C-.126-.414-.162-.36-.162-.306V-.288C-.18-.252-.144-.198-.09-.18L-.054-.162H.108C.162-.198 .198-.27 .18-.306" fill-rule="evenodd"/><path transform="matrix(0,1,1,0,458.463,521.1)" d="M0 0C0-.054 .036-.108 .072-.108H.45V-.27H.036C.018-.288 0-.306 0-.36 0-.414 .036-.468 .072-.468H.45V-.63H-.144V-.468H-.126C-.144-.45-.144-.432-.162-.396-.162-.378-.18-.36-.18-.324-.162-.252-.144-.198-.09-.162-.144-.126-.18-.072-.18 0-.162 .126-.126 .198-.036 .234H-.018C-.018 .234-.018 .234-.018 .234H0 .018C.018 .234 .018 .234 .018 .234H.45V.072H.054C.036 .072 .018 .072 .018 .054 0 .036 0 .018 0 0" fill-rule="evenodd"/><path transform="matrix(0,1,1,0,461.847,522.468)" d="M0 0V.342H.486V0H.882V-.486H.486V-1.764H.018L-1.494-.63V0H0ZM-.882-.486 0-1.152V-.486H-.882" fill-rule="evenodd"/><path transform="matrix(0,1,1,0,464.817,523.35)" d="M0 0V.522L-1.89 1.278H-2.376V-.396H-1.89V.756" fill-rule="evenodd"/><path transform="matrix(0,1,1,0,0,0)" d="M521.964 462.747H522.36V463.953H521.964Z"/><path transform="matrix(0,1,1,0,456.483,522.306)" d="M0 0H.144V.504H1.152V.648H.468L.612 .828 .756 .99 .666 1.08 .486 .882 .324 .648H.144V1.224H0" fill-rule="evenodd"/><path transform="matrix(0,1,1,0,458.157,522.63)" d="M0 0 .072 .126-.108 .27V.558H.18V-.018H.288V.558H.828V.702H.288V1.188H.18V.702H-.108V1.098H-.234V.36L-.324 .414-.342 .45H-.36L-.378 .414-.414 .324-.18 .162" fill-rule="evenodd"/><path transform="matrix(0,1,1,0,479.901,505.62)" stroke-width=".288" stroke-linecap="round" stroke-linejoin="round" fill="none" stroke="#0000ff" d="M0 0C0 .612 .504 1.116 1.134 1.116"/><path transform="matrix(0,1,1,0,454.197,505.62)" stroke-width=".288" stroke-linecap="round" stroke-linejoin="round" fill="none" stroke="#0000ff" d="M0 0V25.704"/><path transform="matrix(0,1,1,0,453.081,506.754)" stroke-width=".288" stroke-linecap="round" stroke-linejoin="round" fill="none" stroke="#0000ff" d="M0 0C-.63 0-1.134 .486-1.134 1.116"/><path transform="matrix(0,1,1,0,453.081,530.46)" stroke-width=".288" stroke-linecap="round" stroke-linejoin="round" fill="none" stroke="#0000ff" d="M0 0H-23.706"/><path transform="matrix(0,1,1,0,454.197,531.576)" stroke-width=".288" stroke-linecap="round" stroke-linejoin="round" fill="none" stroke="#0000ff" d="M0 0C0-.63-.504-1.116-1.116-1.116"/><path transform="matrix(0,1,1,0,479.901,531.576)" stroke-width=".288" stroke-linecap="round" stroke-linejoin="round" fill="none" stroke="#0000ff" d="M0 0V-25.704"/><path transform="matrix(0,1,1,0,481.017,530.45999)" stroke-width=".288" stroke-linecap="round" stroke-linejoin="round" fill="none" stroke="#0000ff" d="M0 0C.612 0 1.116-.504 1.116-1.116"/><path transform="matrix(0,1,1,0,481.017,506.75398)" stroke-width=".288" stroke-linecap="round" stroke-linejoin="round" fill="none" stroke="#0000ff" d="M0 0H23.706"/></g></svg>