<?xml version='1.0' encoding='UTF-8'?>
<svg xmlns="http://www.w3.org/2000/svg" xmlns:xlink="http://www.w3.org/1999/xlink" xmlns:inkscape="http://www.inkscape.org/namespaces/inkscape" version="1.1" width="566.700" height="269.280" viewBox="0 0 566.700 269.280"><g transform="scale(10.0) translate(-493.095, -20.304)"><path transform="matrix(1,0,0,-1,0,595.276)" d="M496.56 571.876H546.12C546.48 571.876 546.84 571.876 547.08 571.756 547.44 571.636 547.8 571.396 548.04 571.156 548.28 570.916 548.52 570.556 548.64 570.196 548.76 569.956 548.76 569.596 548.76 569.236V553.396C548.76 552.676 548.52 552.076 548.04 551.476 547.8 551.236 547.44 550.996 547.08 550.876 546.84 550.756 546.48 550.636 546.12 550.636H496.56C495.96 550.636 495.24 550.876 494.76 551.476 494.4 551.716 494.28 552.076 494.16 552.436 493.92 552.676 493.92 553.036 493.92 553.396V569.236C493.92 569.836 494.16 570.556 494.76 571.156 495.24 571.636 495.96 571.876 496.56 571.876Z" fill="#ffffff" fill-rule="evenodd"/><path transform="matrix(1,0,0,-1,0,595.276)" d="M546.12 570.556H496.56C496.32 570.556 495.96 570.436 495.6 570.196 495.36 569.956 495.24 569.596 495.24 569.236V553.396C495.24 553.156 495.24 553.036 495.36 552.916 495.48 552.676 495.48 552.556 495.6 552.436 495.84 552.316 495.96 552.196 496.08 552.076 496.32 552.076 496.44 552.076 496.56 552.076H546.12C546.48 552.076 546.84 552.196 547.08 552.436 547.32 552.676 547.44 553.036 547.44 553.396V569.236C547.44 569.596 547.32 569.956 547.08 570.196 546.84 570.436 546.48 570.556 546.12 570.556Z" fill-rule="evenodd"/><path transform="matrix(1,0,0,-1,0,595.276)" d="M503.88 567.316C503.88 567.916 503.4 568.396 502.8 568.396 502.2 568.396 501.72 567.916 501.72 567.316 501.72 566.596 502.2 566.116 502.8 566.116 503.4 566.116 503.88 566.596 503.88 567.316Z" fill="#ffffff" fill-rule="evenodd"/><path transform="matrix(1,0,0,-1,0,595.276)" d="M504.24 554.236H505.08L504.96 557.356 503.64 560.836 503.88 563.116 504.36 562.516 506.04 561.076 506.4 561.796 504.96 563.116 504.6 564.316C504.36 564.676 504.12 565.036 503.88 565.276 503.52 565.516 503.04 565.636 502.68 565.636 502.32 565.756 501.96 565.636 501.48 565.396 501.12 565.276 500.88 564.916 500.64 564.676L500.04 563.716 499.56 560.716 500.28 560.476 501 563.236 501.36 563.716 499.8 557.716 498.48 555.556 499.2 554.836 501.6 558.076 502.32 559.876 503.64 557.356 504.24 554.236Z" fill="#ffffff" fill-rule="evenodd"/><path transform="matrix(1,0,0,-1,0,595.276)" d="M515.88 560.116H511.8L511.32 566.116C511.32 566.236 511.32 566.476 511.44 566.596 511.44 566.716 511.56 566.836 511.68 566.956 511.92 567.316 512.28 567.436 512.52 567.436 512.76 567.436 513.12 567.316 513.36 566.956 513.6 566.716 513.72 566.476 513.72 566.116 513.72 565.876 513.48 565.516 513.24 565.276 513.12 565.156 513 565.156 512.88 565.036 512.64 565.036 512.52 565.036 512.4 565.036L512.52 562.876H515.52V561.916H512.64V561.196H516.48L518.16 557.596 519.24 558.076 519.48 557.476 517.44 556.636 515.88 560.116Z" fill="#ffffff" fill-rule="evenodd"/><path transform="matrix(1,0,0,-1,0,595.276)" d="M511.2 561.316C510.84 561.076 510.6 560.716 510.36 560.236 510.24 559.756 510.12 559.276 510.12 558.796 510.24 558.196 510.48 557.716 510.72 557.356 511.08 556.996 511.44 556.636 511.8 556.516 512.16 556.276 512.52 556.276 513 556.276 513.48 556.276 514.08 556.396 514.44 556.636 514.92 556.996 515.28 557.356 515.52 557.836 515.76 558.196 515.76 558.676 515.76 559.036L516.48 557.596C516.24 557.116 516 556.636 515.52 556.156 515.04 555.796 514.44 555.436 513.84 555.316 513.12 555.196 512.52 555.196 511.92 555.436 511.32 555.556 510.84 555.916 510.36 556.276 510 556.516 509.64 556.996 509.4 557.596 509.16 558.196 509.04 558.796 509.16 559.516 509.28 560.116 509.52 560.836 509.88 561.316 510.24 561.796 510.72 562.156 511.08 562.396L511.2 561.316Z" fill="#ffffff" fill-rule="evenodd"/><path transform="matrix(1,0,0,-1,0,595.276)" d="M540 568.396H542.4V558.916L544.8 561.316V557.716L541.2 554.236 537.72 557.716V561.316L540 558.916Z" fill="#ffffff" fill-rule="evenodd"/><path transform="matrix(1,0,0,-1,0,595.276)" d="M525 559.516 526.8 563.116H523.68L521.76 559.516 523.68 556.036H526.8Z" fill="#c3c3c3" fill-rule="evenodd"/><path transform="matrix(1,0,0,-1,0,595.276)" d="M528.12 563.116H531.36L529.56 559.516H526.32Z" fill="#c3c3c3" fill-rule="evenodd"/><path transform="matrix(1,0,0,-1,0,595.276)" d="M532.68 563.116 530.88 566.596H534L535.92 563.116 534 559.516H530.88Z" fill="#c3c3c3" fill-rule="evenodd"/><path transform="matrix(1,0,0,-1,0,595.276)" stroke-width=".12" stroke-linecap="round" stroke-linejoin="round" fill="none" stroke="#000000" d="M496.56 571.876H546.12C547.56 571.876 548.76 570.676 548.76 569.236V553.396C548.76 551.836 547.56 550.636 546.12 550.636H496.56C495.12 550.636 493.92 551.836 493.92 553.396V569.236C493.92 570.676 495.12 571.876 496.56 571.876"/></g></svg>