<?xml version='1.0' encoding='UTF-8'?>
<svg xmlns="http://www.w3.org/2000/svg" xmlns:xlink="http://www.w3.org/1999/xlink" xmlns:inkscape="http://www.inkscape.org/namespaces/inkscape" version="1.1" width="566.700" height="269.280" viewBox="0 0 566.700 269.280"><g transform="scale(10.0) translate(-274.875, -20.304)"><path transform="matrix(1,0,0,-1,0,595.276)" d="M317.64 574.036H288.72C288.48 574.036 288.24 574.036 288 573.916 287.76 573.796 287.52 573.676 287.4 573.436 287.16 573.316 287.04 573.076 286.92 572.836 286.8 572.596 286.8 572.356 286.8 572.116V550.516C286.8 550.036 286.92 549.556 287.4 549.076 287.52 548.956 287.76 548.836 288 548.716 288.24 548.596 288.48 548.596 288.72 548.596H317.64C318.12 548.596 318.6 548.716 319.08 549.076 319.44 549.556 319.56 550.036 319.56 550.516V572.116C319.56 573.196 318.72 574.036 317.64 574.036Z" fill="#ffffff" fill-rule="evenodd"/><path transform="matrix(1,0,0,-1,0,595.276)" d="M318.6 572.116V550.516C318.6 550.396 318.6 550.276 318.6 550.156 318.48 550.036 318.48 549.916 318.36 549.796 318.24 549.676 318.12 549.676 318 549.556 317.88 549.556 317.76 549.556 317.64 549.556H302.4V556.036H301.44L294.96 549.556H288.72C288.6 549.556 288.48 549.556 288.36 549.556 288.24 549.676 288.12 549.676 288 549.796 287.88 549.916 287.88 550.036 287.76 550.156 287.76 550.276 287.76 550.396 287.76 550.516V555.196L300.84 568.396C301.32 568.876 301.8 569.356 302.04 570.076 302.28 570.676 302.4 571.396 302.4 571.996V573.076H317.64C317.88 573.076 318.12 572.956 318.36 572.836 318.6 572.596 318.6 572.356 318.6 572.116Z" fill="#0000ff" fill-rule="evenodd"/><path transform="matrix(1,0,0,-1,0,595.276)" d="M314.04 571.636 311.52 569.116V566.476L313.2 568.276V550.996H315V568.276L316.68 566.476V569.116Z" fill="#ffffff" fill-rule="evenodd"/><path transform="matrix(1,0,0,-1,0,595.276)" d="M306.96 571.636 304.32 569.116V566.476L306.12 568.276V550.996H307.8V568.276L309.6 566.476V569.116Z" fill="#ffffff" fill-rule="evenodd"/><path transform="matrix(1,0,0,-1,0,595.276)" d="M302.4 564.796H301.44V567.436H302.4Z" fill="#ffffff" fill-rule="evenodd"/><path transform="matrix(1,0,0,-1,0,595.276)" d="M302.4 560.956H301.44V563.476H302.4Z" fill="#ffffff" fill-rule="evenodd"/><path transform="matrix(1,0,0,-1,0,595.276)" d="M302.4 556.996H301.44V559.636H302.4Z" fill="#ffffff" fill-rule="evenodd"/><path transform="matrix(1,0,0,-1,0,595.276)" d="M299.52 560.596H295.8L294 558.676H296.4L289.68 551.956 291 550.756 297.72 557.476V555.076L299.52 556.876Z" fill="#ffffff" fill-rule="evenodd"/><path transform="matrix(1,0,0,-1,0,595.276)" stroke-width=".12" stroke-linecap="round" stroke-linejoin="round" fill="none" stroke="#0000ff" d="M317.64 574.036C318.72 574.036 319.56 573.196 319.56 572.116V550.516C319.56 549.436 318.72 548.596 317.64 548.596H288.72C287.64 548.596 286.8 549.436 286.8 550.516V572.116C286.8 573.196 287.64 574.036 288.72 574.036H317.64"/></g></svg>