<?xml version='1.0' encoding='UTF-8'?>
<svg xmlns="http://www.w3.org/2000/svg" xmlns:xlink="http://www.w3.org/1999/xlink" xmlns:inkscape="http://www.inkscape.org/namespaces/inkscape" version="1.1" width="567.000" height="269.280" viewBox="0 0 567.000 269.280"><g transform="scale(10.0) translate(-329.439, -154.944)"><defs><clipPath id="clip_2"><path transform="matrix(1,0,0,-1,0,595.276)" d="M74.4 .196H767.4V595.276H74.4Z"/></clipPath></defs><path transform="matrix(1,0,0,-1,0,595.276)" d="M382.32 437.116H333.24C332.76 437.116 332.16 436.996 331.68 436.516 331.2 436.036 330.96 435.436 330.96 434.956V418.516C330.96 418.276 331.08 418.036 331.2 417.796 331.32 417.436 331.44 417.196 331.68 416.956 331.92 416.716 332.16 416.596 332.4 416.476 332.64 416.356 333 416.356 333.24 416.356H382.32C382.92 416.356 383.52 416.596 383.88 416.956 384.12 417.196 384.36 417.436 384.36 417.796 384.48 418.036 384.6 418.276 384.6 418.516V434.956C384.6 435.436 384.36 436.036 383.88 436.516 383.52 436.996 382.92 437.116 382.32 437.116Z" fill-rule="evenodd"/><path transform="matrix(1,0,0,-1,0,595.276)" d="M382.32 436.036H333.24C333 436.036 332.64 435.916 332.4 435.676 332.28 435.436 332.16 435.196 332.16 434.956V418.516C332.16 418.276 332.28 418.036 332.4 417.796 332.64 417.556 333 417.436 333.24 417.436H382.32C382.44 417.436 382.56 417.436 382.8 417.556 382.92 417.556 383.04 417.676 383.16 417.796 383.28 417.916 383.28 418.036 383.4 418.156 383.4 418.276 383.4 418.396 383.4 418.516V434.956C383.4 435.556 382.92 436.036 382.32 436.036Z" fill="#ffff00" fill-rule="evenodd"/><path transform="matrix(1,0,0,-1,0,595.276)" d="M381.12 418.996V434.596H368.64V418.996Z" fill="#d27000" fill-rule="evenodd"/><path transform="matrix(1,0,0,-1,0,595.276)" d="M345.6 432.676H346.44V429.676H345.6V429.796C345.6 429.796 345.48 429.676 345.36 429.676 345.24 429.556 345 429.556 344.88 429.556 344.52 429.556 344.28 429.676 344.04 429.916 343.8 430.036 343.68 430.276 343.68 430.516V432.676H344.52V430.876C344.52 430.756 344.64 430.636 344.64 430.516 344.76 430.396 345 430.396 345 430.396 345.24 430.396 345.36 430.396 345.48 430.516 345.6 430.636 345.6 430.876 345.6 430.996V432.676Z" fill-rule="evenodd"/><path transform="matrix(1,0,0,-1,0,595.276)" d="M348.36 432.676H349.08V431.956H348.36V430.636C348.36 430.516 348.36 430.516 348.36 430.396 348.48 430.396 348.48 430.396 348.6 430.276 348.72 430.276 348.72 430.276 348.84 430.396 348.84 430.396 348.96 430.396 349.08 430.396L349.2 429.676C349.08 429.556 348.72 429.556 348.36 429.556 348.12 429.556 347.88 429.676 347.76 429.796 347.64 429.916 347.52 430.036 347.52 430.276V431.956H347.04V432.676H347.52V433.636L348.36 433.876V432.676Z" fill-rule="evenodd"/><path transform="matrix(1,0,0,-1,0,595.276)" d="M354.24 432.676H354.96V431.956H354.24V430.636C354.24 430.516 354.24 430.516 354.36 430.396 354.36 430.396 354.48 430.396 354.48 430.276 354.6 430.276 354.6 430.276 354.72 430.396 354.84 430.396 354.84 430.396 354.96 430.396L355.08 429.676C354.96 429.556 354.72 429.556 354.24 429.556 354 429.556 353.76 429.676 353.64 429.796 353.52 429.916 353.4 430.036 353.4 430.276V431.956H352.92V432.676H353.4V433.636L354.24 433.876V432.676Z" fill-rule="evenodd"/><path transform="matrix(1,0,0,-1,0,595.276)" d="M359.88 433.876V430.636 430.516C359.88 430.396 360 430.396 360.36 430.516L360.48 429.676C360.48 429.676 360.36 429.676 360.24 429.676 360.12 429.676 360 429.676 359.88 429.676 359.4 429.676 359.04 429.796 359.04 430.156V430.276 430.396 433.876H359.88Z" fill-rule="evenodd"/><path transform="matrix(1,0,0,-1,0,595.276)" d="M361.68 433.876V430.636 430.516C361.8 430.396 361.92 430.396 362.28 430.516L362.4 429.676C362.4 429.676 362.28 429.676 362.16 429.676 362.04 429.676 361.8 429.676 361.68 429.676 361.32 429.676 360.96 429.796 360.96 430.156L360.84 430.276V430.396 433.876H361.68Z" fill-rule="evenodd"/><path transform="matrix(1,0,0,-1,0,595.276)" d="M343.08 429.676 341.88 433.876H341.16 340.56L339.24 429.676H340.2L340.44 430.396H341.16 342L342.24 429.676H343.08ZM341.76 431.236H341.16 340.68L341.16 433.036 341.76 431.236Z" fill-rule="evenodd"/><path transform="matrix(1,0,0,-1,0,595.276)" d="M352.56 431.236C352.56 432.316 352.08 432.796 351.12 432.796 350.16 432.796 349.68 432.316 349.68 431.236 349.68 430.756 349.8 430.276 350.04 430.036 350.28 429.676 350.64 429.556 351.12 429.556 351.6 429.556 351.96 429.676 352.2 430.036 352.44 430.276 352.56 430.756 352.56 431.236ZM351.72 431.236C351.72 430.756 351.48 430.396 351.12 430.396 350.76 430.396 350.52 430.756 350.52 431.236 350.52 431.716 350.76 432.076 351.12 432.076 351.48 432.076 351.72 431.716 351.72 431.236Z" fill-rule="evenodd"/><path transform="matrix(1,0,0,-1,0,595.276)" d="M358.44 431.236C358.44 432.316 357.96 432.796 357 432.796 356.04 432.796 355.56 432.316 355.56 431.236 355.56 430.756 355.68 430.276 355.92 430.036 356.16 429.676 356.52 429.556 357 429.556 357.48 429.556 357.84 429.676 358.08 430.036 358.32 430.276 358.44 430.756 358.44 431.236ZM357.6 431.236C357.6 430.756 357.36 430.396 357 430.396 356.64 430.396 356.4 430.756 356.4 431.236 356.4 431.716 356.64 432.076 357 432.076 357.36 432.076 357.6 431.716 357.6 431.236Z" fill-rule="evenodd"/><path transform="matrix(1,0,0,-1,0,595.276)" d="M376.2 432.676 379.56 420.916H377.52L374.88 430.036 372.24 420.916H370.2L373.56 432.676Z" fill="#ffffff" fill-rule="evenodd"/><path transform="matrix(1,0,0,-1,0,595.276)" d="M376.56 422.836C376.56 423.676 375.84 424.396 374.88 424.396 374.04 424.396 373.32 423.676 373.32 422.836 373.32 421.876 374.04 421.156 374.88 421.156 375.84 421.156 376.56 421.876 376.56 422.836Z" fill="#ffffff" fill-rule="evenodd"/><path transform="matrix(1,0,0,-1,0,595.276)" d="M336.36 420.436H336.96V420.796H340.08V420.436H340.8V425.476H338.52L338.88 426.076 339 426.196V426.316H338.88L338.28 426.436 337.8 425.476H336.36V420.436ZM336.96 421.396V422.116H340.08V421.396H336.96ZM336.96 424.036V424.876H340.08V424.036H336.96ZM336.96 422.716V423.436H340.08V422.716H336.96Z" fill-rule="evenodd"/><path transform="matrix(1,0,0,-1,0,595.276)" d="M343.68 426.196 343.92 425.596 345.12 425.716V425.356H343.56V424.876H345.12V424.516H343.92V422.476H345.12V421.996H343.8V421.516H345.12V421.156L343.68 421.036V420.556L343.8 420.436V420.316H343.92L344.04 420.436 346.8 420.796V420.676L347.4 420.436 347.88 421.156 348.12 422.116 348.36 423.196 348.48 424.396H349.08V421.996L348.96 421.636 348.84 421.276 348.6 421.156 348.36 421.036H348L348.24 420.436H348.6L349.08 420.676 349.44 421.036 349.68 421.396V421.756 424.396 424.996H348.48V426.196L348.6 426.316V426.436H348.36 347.88V424.996H347.28V424.396H347.88V423.316L347.64 422.476 347.28 421.636 346.92 420.916V421.396L345.72 421.156V421.516H346.8V421.996H345.72V422.356H347.04V424.396H345.72V424.876H347.04V425.356H345.72V425.716L346.2 425.956H346.68 346.92 347.04V426.076H346.92L346.56 426.556 345.96 426.316 345.24 426.196 344.52 426.076 343.68 426.196ZM345.72 422.956V423.196H346.44V422.956H345.72ZM345.72 423.676V423.916H346.44V423.676H345.72ZM344.4 422.836V423.196H345.12V422.836H344.4ZM344.4 423.676V424.036H345.12V423.676H344.4Z" fill-rule="evenodd"/><path transform="matrix(1,0,0,-1,0,595.276)" d="M352.92 426.436 352.32 425.476 352.2 425.596 351.84 425.116 352.68 424.516 352.08 423.556H351.96V423.196 423.076 422.956H352.08L352.2 423.076 352.8 423.196V420.316H353.28V423.196L353.52 423.316V422.956L354 423.076V422.716H354.48V422.116L354.36 421.636 354.12 421.156 353.76 420.676 354.24 420.316 354.6 421.036 354.84 421.876H355.56V421.636L355.44 421.276V421.036L355.2 420.916 354.96 420.796H354.72L354.96 420.316H355.2L355.56 420.436 355.8 420.676 355.92 421.036V421.636 422.356H354.96V422.716H356.04V423.196H355.32V423.676H355.8L356.28 423.316V423.436L356.52 422.476 356.76 421.636 356.4 421.156 355.92 420.676 356.4 420.316 357.12 421.156 357.72 420.316 358.08 420.796 357.72 421.156 357.36 421.756 357.6 423.076 357.72 424.516H357.96V424.996H356.76L357 426.076 357.12 426.196V426.316H356.88L356.52 426.436 356.4 425.716 356.28 425.116 356.16 424.516 355.92 424.036V425.836H355.32V426.196 426.316H355.44L355.32 426.436H355.2 354.72V425.836H354.12V423.676H354.72V423.196H354L353.64 424.276 353.28 424.156 353.4 423.676H352.68L353.76 424.996 353.88 425.116H354L353.88 425.236 353.76 425.356 353.4 425.596 352.92 424.996 352.68 425.116 353.4 426.196 352.92 426.436ZM354.6 424.996V425.476H355.44V424.996H354.6ZM354.6 424.156V424.516H355.44V424.156H354.6ZM356.76 424.516H357.24L357.12 423.436 357 422.356 356.88 423.196 356.76 424.036H356.52L356.76 424.516Z" fill-rule="evenodd"/><path transform="matrix(1,0,0,-1,0,595.276)" d="M352.56 422.716H352.08L351.84 420.916 352.44 420.796Z" fill-rule="evenodd"/><path transform="matrix(1,0,0,-1,0,595.276)" d="M353.88 422.716 353.4 422.596 353.64 421.396 354.12 421.516Z" fill-rule="evenodd"/><path transform="matrix(1,0,0,-1,0,595.276)" d="M360.36 426.076V425.596H362.04V425.356H360.72L360.24 423.916H360.96V424.036H361.32L360.84 423.796 360.24 423.436 360.84 423.076 361.2 423.316V421.036H361.92L360.36 420.676 360.84 420.196 361.8 420.436 362.64 420.796 362.28 421.036H363.84L363.6 420.796 364.44 420.436 365.52 420.196 366 420.676 365.04 420.796 364.2 421.036H365.04V423.316L365.28 422.836 365.52 422.956H365.64L365.88 423.076 366 423.316 366.12 423.916V424.516H364.08V424.876H365.76V426.076H364.08V426.316L364.2 426.436H364.08L363.96 426.556H363.48V426.076H362.64V426.316L362.76 426.436 362.64 426.556H362.52 362.04V426.076H360.36ZM361.68 424.516H361.08L361.2 424.876H361.8L361.68 424.516ZM362.52 425.356V425.596H363.48V425.356H362.52ZM363.48 424.516H362.4L362.52 424.876H363.48V424.516ZM364.08 425.356V425.596H365.04V425.356H364.08ZM361.8 423.076V423.196H364.44V423.076H361.8ZM363.48 423.676H361.68L362.04 424.036H363.48V423.676ZM364.08 423.676V424.036H365.52V423.796L365.4 423.556 365.28 423.436 365.04 423.556V423.676H364.08ZM361.8 422.356V422.596H364.44V422.356H361.8ZM361.8 421.516V421.876H364.44V421.516H361.8Z" fill-rule="evenodd"/></g></svg>