<?xml version='1.0' encoding='UTF-8'?>
<svg xmlns="http://www.w3.org/2000/svg" xmlns:xlink="http://www.w3.org/1999/xlink" xmlns:inkscape="http://www.inkscape.org/namespaces/inkscape" version="1.1" width="567.000" height="269.280" viewBox="0 0 567.000 269.280"><g transform="scale(10.0) translate(-547.707, -478.080)"><defs><clipPath id="clip_19"><path transform="matrix(0,1,1,0,0,0)" d="M0 74.451H595.008V767.55899H0Z"/></clipPath><clipPath id="clip_20"><path transform="matrix(0,1,1,0,0,0)" d="M0 842.013H595.224V.008972168H0Z"/></clipPath></defs><path transform="matrix(0,1,1,0,588.675,491.67)" d="M0 0C-1.638 0-3.258-.324-4.788-.954-6.3-1.584-7.668-2.502-8.838-3.654-9.99-4.824-10.926-6.192-11.556-7.722-12.168-9.234-12.492-10.854-12.492-12.492-12.492-14.148-12.168-15.768-11.556-17.28-10.926-18.81-9.99-20.178-8.838-21.348-7.668-22.5-6.3-23.418-4.788-24.048-3.258-24.678-1.638-25.002 0-25.002 1.656-25.002 3.276-24.678 4.788-24.048 6.3-23.418 7.686-22.5 8.856-21.348 10.008-20.178 10.926-18.81 11.556-17.28 12.186-15.768 12.51-14.148 12.51-12.492 12.51-10.854 12.186-9.234 11.556-7.722 10.926-6.192 10.008-4.824 8.856-3.654 7.686-2.502 6.3-1.584 4.788-.954 3.276-.324 1.656 0 0 0" fill="#ff0000" fill-rule="evenodd"/><path transform="matrix(0,1,1,0,586.173,491.67)" d="M0 0C-1.314 0-2.61-.252-3.816-.756-5.04-1.26-6.138-1.998-7.074-2.916-7.992-3.852-8.73-4.95-9.234-6.174-9.738-7.38-9.99-8.676-9.99-9.99-9.99-11.304-9.738-12.618-9.234-13.824-8.73-15.048-7.992-16.146-7.074-17.064-6.138-18-5.04-18.738-3.816-19.242-2.61-19.746-1.314-19.998 0-19.998 1.314-19.998 2.628-19.746 3.834-19.242 5.04-18.738 6.156-18 7.074-17.064 8.01-16.146 8.748-15.048 9.252-13.824 9.756-12.618 10.008-11.304 10.008-9.99 10.008-8.676 9.756-7.38 9.252-6.174 8.748-4.95 8.01-3.852 7.074-2.916 6.156-1.998 5.04-1.26 3.834-.756 2.628-.252 1.314 0 0 0" fill="#ffffff" fill-rule="evenodd"/><path transform="matrix(0,1,1,0,576.183,485.838)" d="M0 0-3.33-2.502V2.484" fill-rule="evenodd"/><path transform="matrix(0,1,1,0,576.183,497.52)" d="M0 0 3.33 2.484V-2.502" fill-rule="evenodd"/><path transform="matrix(0,1,1,0,582.555,491.868)" d="M0 0C0-.108 .036-.252 .126-.36 .216-.486 .342-.54 .432-.54H2.412V-1.404H.252C.108-1.422 0-1.602 0-1.836 0-1.944 .036-2.088 .126-2.214 .216-2.322 .342-2.376 .432-2.394H2.412V-3.258H-.756V-2.412H-.612C-.702-2.304-.756-2.178-.81-2.052-.846-1.926-.864-1.8-.864-1.656-.864-1.26-.72-.972-.432-.828-.738-.594-.864-.306-.864 .072-.846 .666-.594 1.044-.126 1.242-.09 1.242-.054 1.26-.036 1.26-.018 1.26-.018 1.278 0 1.278 .018 1.278 .036 1.278 .036 1.278 .072 1.278 .108 1.278 .126 1.278L.144 1.296H2.412V.432H.27C.234 .432 .198 .432 .162 .414 .126 .378 .09 .36 .072 .324 .018 .234 0 .126 0 0" fill-rule="evenodd"/><path transform="matrix(0,1,1,0,571.377,492.66)" d="M0 0V.612H.882V0H1.62V-.9H.882V-3.258H.036L-2.754-1.17V0H0ZM-1.62-.9 0-2.106V-.9H-1.62" fill-rule="evenodd"/><path transform="matrix(0,1,1,0,573.627,493.902)" d="M0 0C-.252 0-.468-.198-.468-.468-.468-.72-.252-.936 0-.936 .27-.936 .468-.72 .468-.468 .468-.198 .27 0 0 0" fill-rule="evenodd"/><path transform="matrix(0,1,1,0,574.869,494.28)" d="M0 0V.954L-3.492 2.358H-4.374V-.738H-3.492V1.404" fill-rule="evenodd"/></g></svg>