<?xml version='1.0' encoding='UTF-8'?>
<svg xmlns="http://www.w3.org/2000/svg" xmlns:xlink="http://www.w3.org/1999/xlink" xmlns:inkscape="http://www.inkscape.org/namespaces/inkscape" version="1.1" width="566.700" height="269.280" viewBox="0 0 566.700 269.280"><g transform="scale(10.0) translate(-56.655, -478.080)"><path transform="matrix(1,0,0,-1,0,595.276)" d="M111.6 113.476C111.6 114.196 111.36 115.036 110.64 115.636 110.04 116.236 109.32 116.476 108.6 116.476H61.44C60.72 116.476 59.88 116.236 59.28 115.636 59.04 115.276 58.8 114.916 58.68 114.556 58.56 114.196 58.44 113.836 58.44 113.476V93.916C58.44 93.196 58.68 92.356 59.28 91.756 59.64 91.516 60 91.276 60.36 91.156 60.72 90.916 61.08 90.916 61.44 90.916H108.6C109.32 90.916 110.04 91.156 110.64 91.756 111.36 92.356 111.6 93.196 111.6 93.916V113.476Z" fill="#ffffff" fill-rule="evenodd"/><path transform="matrix(1,0,0,-1,0,595.276)" d="M61.44 115.036H108.6C108.72 115.036 108.96 114.916 109.08 114.916 109.32 114.796 109.44 114.676 109.68 114.556 109.8 114.436 109.92 114.196 109.92 114.076 110.04 113.836 110.04 113.716 110.04 113.476V93.916C110.04 93.556 109.92 93.196 109.68 92.836 109.44 92.716 109.32 92.596 109.08 92.476 108.96 92.476 108.72 92.356 108.6 92.356H61.44C61.08 92.356 60.72 92.596 60.36 92.836 60.12 93.196 60 93.556 60 93.916V113.476C60 113.836 60.12 114.196 60.36 114.556 60.72 114.916 61.08 115.036 61.44 115.036Z" fill-rule="evenodd"/><path transform="matrix(1,0,0,-1,0,595.276)" d="M107.64 112.756H72.24V94.636H107.64Z" fill="#ffffff" fill-rule="evenodd"/><path transform="matrix(1,0,0,-1,0,595.276)" d="M73.2 95.836H88.92V111.556H73.2Z" fill-rule="evenodd"/><path transform="matrix(1,0,0,-1,0,595.276)" d="M86.04 106.156V106.276C85.92 106.276 85.92 106.156 85.92 106.156H86.04Z" fill="#ffffff" fill-rule="evenodd"/><path transform="matrix(1,0,0,-1,0,595.276)" d="M76.2 109.876H82.32C83.16 109.876 84.12 109.516 84.96 108.796 85.68 108.076 86.04 106.996 86.04 106.156 86.04 105.196 85.56 104.236 84.96 103.516 84.24 102.916 83.28 102.436 82.32 102.436H79.08V97.516H76.2V109.876ZM79.08 107.836V104.476H81.6C81.96 104.476 82.32 104.596 82.56 104.836 82.92 105.196 83.04 105.556 83.04 105.916V106.396C83.04 106.636 83.04 106.756 82.92 106.996 82.92 107.116 82.8 107.356 82.56 107.476 82.44 107.596 82.32 107.716 82.08 107.836 81.96 107.836 81.72 107.836 81.6 107.836H79.08Z" fill="#ffffff" fill-rule="evenodd"/><path transform="matrix(1,0,0,-1,0,595.276)" d="M94.44 101.716 96.6 105.676H93L90.96 101.716 93 97.756H96.6Z" fill-rule="evenodd"/><path transform="matrix(1,0,0,-1,0,595.276)" d="M98.04 105.676H101.64L99.48 101.716H96Z" fill-rule="evenodd"/><path transform="matrix(1,0,0,-1,0,595.276)" d="M103.08 105.676 101.04 109.636H104.52L106.68 105.676 104.52 101.716H101.04Z" fill-rule="evenodd"/><path transform="matrix(1,0,0,-1,0,595.276)" d="M70.2 107.596V103.756L67.68 106.276V95.836H65.04V106.276L62.4 103.756V107.596L66.36 111.556Z" fill="#ffffff" fill-rule="evenodd"/><path transform="matrix(1,0,0,-1,0,595.276)" stroke-width=".12" stroke-linecap="round" stroke-linejoin="round" fill="none" stroke="#000000" d="M111.6 113.476C111.6 115.156 110.28 116.476 108.6 116.476H61.44C59.76 116.476 58.44 115.156 58.44 113.476V93.916C58.44 92.236 59.76 90.916 61.44 90.916H108.6C110.28 90.916 111.6 92.236 111.6 93.916V113.476"/></g></svg>