<?xml version='1.0' encoding='UTF-8'?>
<svg xmlns="http://www.w3.org/2000/svg" xmlns:xlink="http://www.w3.org/1999/xlink" xmlns:inkscape="http://www.inkscape.org/namespaces/inkscape" version="1.1" width="567.000" height="269.280" viewBox="0 0 567.000 269.280"><g transform="scale(10.0) translate(-220.305, -397.296)"><defs><clipPath id="clip_19"><path transform="matrix(0,1,1,0,0,0)" d="M0 74.451H595.008V767.55899H0Z"/></clipPath><clipPath id="clip_20"><path transform="matrix(0,1,1,0,0,0)" d="M0 842.013H595.224V.008972168H0Z"/></clipPath></defs><path transform="matrix(0,1,1,0,257.673,397.764)" d="M0 0V-17.766C0-17.964 .036-18.162 .126-18.36 .198-18.558 .324-18.756 .486-18.9 .63-19.062 .828-19.188 1.026-19.26 1.224-19.35 1.422-19.386 1.62-19.386H24.642C24.84-19.386 25.038-19.35 25.236-19.26 25.434-19.188 25.614-19.062 25.776-18.9 25.938-18.756 26.064-18.558 26.136-18.36 26.226-18.162 26.244-17.964 26.244-17.766V0C26.244 .198 26.226 .396 26.136 .594 26.064 .792 25.938 .99 25.776 1.152 25.614 1.296 25.434 1.422 25.236 1.512 25.038 1.584 24.84 1.62 24.642 1.62H1.62C1.422 1.62 1.224 1.584 1.026 1.512 .828 1.422 .63 1.296 .486 1.152 .324 .99 .198 .792 .126 .594 .036 .396 0 .198 0 0ZM12.042-17.766V0C12.042 .198 12.114 .414 12.276 .576 12.366 .648 12.456 .72 12.546 .756 12.654 .792 12.762 .81 12.852 .81H24.642C24.84 .81 25.056 .738 25.218 .576 25.29 .504 25.344 .396 25.398 .306 25.434 .198 25.452 .108 25.452 0V-17.766C25.452-17.964 25.38-18.18 25.218-18.342 25.128-18.414 25.038-18.486 24.93-18.522 24.84-18.558 24.732-18.576 24.642-18.576H12.852C12.654-18.576 12.438-18.504 12.276-18.342 12.204-18.252 12.132-18.162 12.096-18.072 12.06-17.964 12.042-17.856 12.042-17.766ZM11.52-17.766C11.52-17.982 11.43-18.18 11.286-18.342 11.124-18.486 10.926-18.576 10.71-18.576H1.62C1.512-18.576 1.422-18.558 1.314-18.522 1.224-18.486 1.134-18.414 1.044-18.342 .882-18.18 .81-17.964 .81-17.766V0C.81 .108 .828 .198 .864 .306 .9 .396 .972 .504 1.044 .576 1.206 .738 1.422 .81 1.62 .81H10.71C10.908 .81 11.124 .738 11.286 .576 11.448 .414 11.52 .198 11.52 0V-17.766" fill-rule="evenodd"/><path transform="matrix(0,1,1,0,239.907,398.574)" d="M0 0V17.766C0 17.874 .018 17.964 .054 18.072 .09 18.162 .162 18.27 .234 18.342 .324 18.414 .414 18.486 .504 18.522 .612 18.558 .702 18.576 .81 18.576H9.9C10.098 18.576 10.314 18.504 10.476 18.342 10.548 18.27 10.62 18.162 10.656 18.072 10.692 17.964 10.71 17.874 10.71 17.766V0C10.71-.198 10.638-.414 10.476-.576 10.386-.648 10.296-.72 10.206-.756 10.098-.792 10.008-.81 9.9-.81H.81C.612-.81 .396-.738 .234-.576 .072-.414 0-.198 0 0" fill="#e1e1e1" fill-rule="evenodd"/><path transform="matrix(0,1,1,0,253.173,403.938)" d="M0 0C-1.17 0-2.286-.468-3.096-1.296-3.924-2.106-4.392-3.222-4.392-4.374-4.392-5.544-3.924-6.66-3.096-7.47-2.286-8.298-1.17-8.748 0-8.748 1.152-8.748 2.268-8.298 3.078-7.47 3.906-6.66 4.374-5.544 4.374-4.374 4.374-3.222 3.906-2.106 3.078-1.296 2.268-.468 1.152 0 0 0" fill-rule="evenodd"/><path transform="matrix(0,1,1,0,251.553,406.08)" d="M0 0C-.288 .216-.612 .414-.99 .54-1.35 .666-1.746 .738-2.142 .738-2.556 .738-2.952 .666-3.312 .54-3.69 .414-4.014 .216-4.302 0L-2.142-2.142 0 0" fill="#e1e1e1" fill-rule="evenodd"/><path transform="matrix(0,1,1,0,246.639,401.166)" d="M0 0C-.216 .288-.414 .612-.54 .99-.666 1.35-.738 1.746-.738 2.16-.738 2.556-.666 2.952-.54 3.312-.414 3.69-.216 4.014 0 4.302L2.142 2.16 0 0" fill="#e1e1e1" fill-rule="evenodd"/><path transform="matrix(0,1,1,0,246.027,401.778)" d="M0 0C.288-.216 .612-.396 .99-.54 1.35-.666 1.746-.738 2.16-.738 2.556-.738 2.952-.666 3.312-.54 3.69-.396 4.014-.216 4.302 0L2.16 2.142 0 0" fill="#e1e1e1" fill-rule="evenodd"/><path transform="matrix(0,1,1,0,246.639,406.692)" d="M0 0C.216 .288 .414 .612 .54 .99 .666 1.35 .738 1.746 .738 2.16 .738 2.556 .666 2.952 .54 3.312 .414 3.69 .216 4.014 0 4.302L-2.142 2.16 0 0" fill="#e1e1e1" fill-rule="evenodd"/><path transform="matrix(0,1,1,0,239.907,409.806)" d="M0 0V17.766C0 17.964 .072 18.18 .234 18.342 .396 18.504 .612 18.576 .81 18.576H12.6C12.69 18.576 12.798 18.558 12.888 18.522 12.996 18.486 13.086 18.414 13.176 18.342 13.248 18.27 13.302 18.162 13.356 18.072 13.392 17.964 13.41 17.874 13.41 17.766V0C13.41-.198 13.338-.414 13.176-.576 13.014-.738 12.798-.81 12.6-.81H.81C.612-.81 .396-.738 .234-.576 .072-.414 0-.198 0 0" fill="#e1e1e1" fill-rule="evenodd"/><path transform="matrix(0,1,1,0,249.015,420.012)" d="M0 0V.504H.702V0H1.278V-.684H.702V-2.538H.036L-2.16-.9V0H0ZM-1.278-.684 0-1.638V-.684H-1.278" fill-rule="evenodd"/><path transform="matrix(0,1,1,0,252.777,421.29)" d="M0 0V.756L-2.736 1.854H-3.438V-.576H-2.736V1.098" fill-rule="evenodd"/><path transform="matrix(0,1,1,0,0,0)" d="M419.256 250.077H419.814V251.823H419.256Z"/><path transform="matrix(0,1,1,0,242.481,412.236)" d="M0 0 .252-.09C.27-.18 .252-.252 .234-.306 .216-.36 .18-.396 .126-.414 .198-.432 .27-.594 .27-.702 .27-.864 .234-.99 .162-1.08 .072-1.17-.036-1.206-.18-1.206-.306-1.206-.414-1.152-.486-1.026-.54-.9-.576-.72-.576-.486H-.63C-.684-.486-.72-.486-.738-.522-.756-.54-.774-.576-.774-.63-.774-.702-.756-.774-.738-.846-.72-.9-.684-.972-.63-1.008L-.882-1.188C-1.008-1.044-1.08-.864-1.08-.648-1.08-.486-1.044-.36-.99-.27-.936-.18-.846-.144-.72-.126H-.072C-.018-.126 0-.072 0 0ZM-.162-.846C-.108-.846-.072-.828-.054-.81-.036-.774-.018-.72-.018-.648-.036-.558-.054-.504-.108-.486H-.324C-.306-.612-.306-.702-.27-.756-.252-.81-.216-.846-.162-.846" fill-rule="evenodd"/><path transform="matrix(0,1,1,0,243.975,411.498)" d="M0 0C0-.108 .09-.216 .18-.216H.954V-.558H.108C.054-.558 0-.63 0-.72 0-.828 .09-.936 .18-.936H.954V-1.278H-.288V-.954H-.234C-.27-.9-.288-.864-.306-.81-.324-.756-.342-.702-.342-.648-.324-.504-.27-.378-.162-.324-.27-.234-.342-.126-.342 .018-.324 .252-.234 .414-.036 .486-.018 .486-.018 .486 0 .486L.018 .504C.018 .504 .018 .504 .018 .504 .036 .504 .054 .504 .054 .504H.954V.162H.108C.09 .162 .09 .162 .072 .162 .054 .144 .054 .144 .036 .126 .018 .09 0 .036 0 0" fill-rule="evenodd"/><path transform="matrix(0,1,1,0,0,0)" d="M413.1 250.077H413.658V251.823H413.1Z"/><path transform="matrix(0,1,1,0,253.605,411.696)" d="M0 0H3.438V-.702H.99V-1.224H.342C.342-1.134 .342-1.044 .324-.972 .306-.9 .288-.846 .252-.792 .234-.756 .198-.72 .144-.684 .108-.666 .054-.648 0-.648V0" fill-rule="evenodd"/><path transform="matrix(0,1,1,0,257.475,413.406)" d="M0 0C-1.224 0-1.836-.504-1.836-1.494-1.836-2.502-1.224-3.006 0-3.006 .612-3.006 1.08-2.88 1.386-2.628 1.692-2.376 1.836-1.998 1.836-1.494 1.836-.99 1.692-.63 1.386-.378 1.08-.108 .612 0 0 0ZM0-.72C.792-.72 1.188-.99 1.188-1.494 1.188-1.764 1.08-1.944 .882-2.088 .684-2.214 .396-2.268 0-2.268-.378-2.268-.684-2.214-.882-2.088-1.08-1.944-1.17-1.764-1.17-1.494-1.17-1.242-1.08-1.044-.882-.918-.684-.792-.378-.72 0-.72" fill-rule="evenodd"/><path transform="matrix(0,1,1,0,247.773,415.134)" d="M0 0V.756L-2.736 1.854H-3.438V-.576H-2.736V1.098" fill-rule="evenodd"/><path transform="matrix(0,1,1,0,244.029,417.654)" d="M0 0C0-.108 .09-.216 .18-.216H.954V-.558H.108C.054-.558 0-.63 0-.72 0-.828 .09-.936 .18-.936H.954V-1.278H-.288V-.954H-.234C-.27-.9-.288-.864-.306-.81-.324-.756-.324-.702-.324-.648-.324-.504-.27-.378-.162-.324-.27-.234-.324-.126-.324 .018-.324 .252-.216 .414-.036 .486-.018 .486-.018 .486 0 .486H.018C.018 .486 0 .486 .018 .486V.504C.018 .504 .018 .486 .018 .504 .036 .504 .054 .504 .054 .504H.954V.162H.108C.108 .162 .09 .162 .072 .162 .054 .144 .054 .126 .036 .126 .018 .09 0 .036 0 0" fill-rule="evenodd"/><path transform="matrix(0,1,1,0,242.481,417.978)" d="M0 0C-.198 0-.36-.054-.486-.162-.594-.252-.648-.414-.648-.576-.648-.63-.648-.72-.63-.774-.612-.846-.576-.882-.558-.882H-.612V-1.206H1.062V-.864H.576C.648-.846 .702-.702 .684-.558 .684-.414 .63-.27 .504-.162 .378-.054 .198 0 0 0ZM.36-.612C.36-.666 .342-.738 .306-.792 .27-.81 .252-.828 .234-.846 .198-.864 .18-.864 .162-.864H-.18C-.252-.864-.342-.756-.342-.63L-.36-.612C-.36-.576-.342-.522-.324-.468-.288-.414-.234-.378-.198-.36H-.18L-.126-.342H.18L.198-.36C.252-.36 .306-.414 .324-.468 .36-.522 .378-.576 .36-.612" fill-rule="evenodd"/><path transform="matrix(0,1,1,0,241.329,413.316)" d="M0 0-.018-.18H1.944V-1.098H2.196V1.206H1.944V.072H1.062V.972H.828V.072H.09L.054 .126 .036 .144 0 .108" fill-rule="evenodd"/><path transform="matrix(0,1,1,0,243.381,414.072)" d="M0 0 .144 .252-.198 .54V1.098H.324V-.018H.558V1.098H1.566V1.332H.558V2.286H.324V1.332H-.198V2.124H-.432V.702L-.63 .81-.648 .864-.666 .882-.702 .864-.72 .792-.792 .63-.36 .342" fill-rule="evenodd"/><path transform="matrix(0,1,1,0,240.213,419.634)" d="M0 0H.252V.972H2.16V1.242H.882L1.134 1.566 1.422 1.872 1.242 2.07 .9 1.674 .612 1.242H.252V2.322H0" fill-rule="evenodd"/><path transform="matrix(0,1,1,0,243.381,420.228)" d="M0 0 .144 .252-.198 .54V1.098H.324V-.018H.558V1.098H1.566V1.332H.558V2.286H.324V1.332H-.198V2.124H-.432V.702L-.63 .81-.648 .864-.666 .882-.684 .864-.72 .792-.792 .63-.36 .342" fill-rule="evenodd"/></g></svg>