<?xml version='1.0' encoding='UTF-8'?>
<svg xmlns="http://www.w3.org/2000/svg" xmlns:xlink="http://www.w3.org/1999/xlink" xmlns:inkscape="http://www.inkscape.org/namespaces/inkscape" version="1.1" width="567.000" height="269.280" viewBox="0 0 567.000 269.280"><g transform="scale(10.0) translate(-438.573, -181.872)"><defs><clipPath id="clip_2"><path transform="matrix(1,0,0,-1,0,595.276)" d="M74.4 .196H767.4V595.276H74.4Z"/></clipPath></defs><path transform="matrix(1,0,0,-1,0,595.276)" stroke-width=".12" stroke-linecap="butt" stroke-miterlimit="10" stroke-linejoin="miter" fill="none" stroke="#0000ff" d="M442.2 410.236H491.52C492.84 410.236 493.8 409.276 493.8 407.956V391.636C493.8 390.436 492.84 389.476 491.52 389.476H442.2C441 389.476 439.92 390.436 439.92 391.636V407.956C439.92 409.276 441 410.236 442.2 410.236"/><path transform="matrix(1,0,0,-1,0,595.276)" d="M491.52 410.236H442.2C441.96 410.236 441.72 410.236 441.36 410.116 441.12 409.996 440.88 409.756 440.64 409.516 440.4 409.396 440.28 409.036 440.16 408.796 440.04 408.556 439.92 408.196 439.92 407.956V391.636C439.92 391.156 440.16 390.556 440.64 390.076 441.12 389.596 441.72 389.476 442.2 389.476H491.52C492.12 389.476 492.72 389.596 493.2 390.076 493.56 390.556 493.8 391.156 493.8 391.636V407.956C493.8 409.276 492.84 410.236 491.52 410.236Z" fill="#ffffff" fill-rule="evenodd"/><path transform="matrix(1,0,0,-1,0,595.276)" d="M491.52 409.156H442.2C441.96 409.156 441.6 409.036 441.48 408.796 441.24 408.556 441.12 408.196 441.12 407.956V391.636C441.12 391.396 441.24 391.156 441.48 390.916 441.6 390.676 441.96 390.556 442.2 390.556H491.52C491.88 390.556 492.12 390.676 492.36 390.916 492.6 391.156 492.72 391.396 492.72 391.636V407.956C492.72 408.196 492.6 408.556 492.36 408.796 492.12 409.036 491.88 409.156 491.52 409.156Z" fill="#0000ff" fill-rule="evenodd"/><path transform="matrix(1,0,0,-1,0,595.276)" stroke-width=".12" stroke-linecap="butt" stroke-miterlimit="10" stroke-linejoin="miter" fill="none" stroke="#ffffff" d="M445.5 403.5V403.5"/><path transform="matrix(1,0,0,-1,0,595.276)" d="M446.16 406.036 446.76 406.516C446.28 406.996 445.8 407.236 445.2 407.236 444.72 407.236 444.36 407.116 444 406.876 443.76 406.636 443.64 406.276 443.64 405.916 443.64 405.556 443.76 405.196 444 405.076 444.12 404.956 444.24 404.956 444.36 404.836 444.6 404.836 444.84 404.716 445.2 404.716 445.56 404.596 445.92 404.596 446.04 404.356 446.16 404.236 446.16 403.996 446.04 403.756 445.92 403.516 445.56 403.396 445.32 403.516 444.84 403.516 444.36 403.636 444 404.116L443.52 403.636C443.64 403.396 443.76 403.276 444 403.156 444.36 402.916 444.72 402.796 445.2 402.796 445.68 402.796 446.16 402.916 446.4 403.156 446.52 403.276 446.64 403.396 446.76 403.516 446.76 403.636 446.76 403.756 446.76 403.756 446.76 403.876 446.88 403.876 446.88 403.996V404.116 404.236 404.356C446.76 404.596 446.64 404.836 446.52 404.956 446.4 405.076 446.28 405.076 446.16 405.196 446.04 405.196 446.04 405.196 445.92 405.316L444.84 405.436C444.84 405.436 444.72 405.556 444.6 405.556 444.48 405.676 444.36 405.796 444.36 405.916 444.36 406.036 444.48 406.276 444.6 406.396 444.72 406.516 444.96 406.516 445.08 406.516 445.44 406.516 445.92 406.396 446.16 406.036Z" fill="#ffffff" fill-rule="evenodd"/><path transform="matrix(1,0,0,-1,0,595.276)" d="M450.6 407.116H447.48V406.516H448.56V402.796H449.4V406.516H450.6Z" fill="#ffffff" fill-rule="evenodd"/><path transform="matrix(1,0,0,-1,0,595.276)" d="M458.04 407.116C458.28 407.116 458.52 406.996 458.76 406.756 459 406.516 459.12 406.156 459.12 405.796 459.12 405.436 459 405.076 458.76 404.836 458.64 404.716 458.52 404.596 458.4 404.596 458.28 404.476 458.16 404.476 458.04 404.476H456.96V402.796H456.24V407.116H458.04ZM456.96 406.516V405.076H457.8C457.92 405.076 458.16 405.196 458.28 405.316 458.4 405.436 458.4 405.676 458.4 405.796 458.4 405.916 458.4 406.156 458.28 406.276 458.16 406.396 457.92 406.516 457.8 406.516H456.96Z" fill="#ffffff" fill-rule="evenodd"/><path transform="matrix(1,0,0,-1,0,595.276)" d="M460.08 402.796C459.96 402.796 459.84 402.796 459.84 402.916 459.72 403.036 459.6 403.156 459.6 403.276 459.6 403.396 459.72 403.396 459.72 403.516 459.84 403.636 459.96 403.636 460.08 403.636 460.32 403.636 460.44 403.396 460.44 403.276 460.56 402.916 460.44 402.676 460.32 402.556 460.32 402.556 460.2 402.436 460.08 402.436 459.96 402.436 459.84 402.316 459.72 402.316V402.556C459.96 402.556 460.08 402.556 460.08 402.676 460.2 402.676 460.2 402.676 460.2 402.796H460.08Z" fill="#ffffff" fill-rule="evenodd"/><path transform="matrix(1,0,0,-1,0,595.276)" d="M465.12 407.116C465.72 407.116 466.2 406.516 466.2 405.796 466.2 405.436 466.08 405.076 465.84 404.836 465.84 404.716 465.6 404.596 465.48 404.596 465.36 404.476 465.24 404.476 465.12 404.476H464.04V402.796H463.32V407.116H465.12ZM464.04 406.516V405.076H464.88C465 405.076 465.24 405.196 465.36 405.316 465.48 405.436 465.48 405.676 465.48 405.796 465.48 405.916 465.48 406.156 465.36 406.276 465.24 406.396 465.24 406.396 465.12 406.396 465 406.516 465 406.516 464.88 406.516H464.04Z" fill="#ffffff" fill-rule="evenodd"/><path transform="matrix(1,0,0,-1,0,595.276)" d="M468.12 407.116 466.8 402.796H467.4L467.64 403.636H469.56L469.8 402.796H470.4L469.08 407.116H468.12ZM469.32 404.236H467.88L468.6 406.396 469.32 404.236Z" fill="#ffffff" fill-rule="evenodd"/><path transform="matrix(1,0,0,-1,0,595.276)" d="M470.76 407.116 472.2 404.596V402.796H472.92V404.596L474.36 407.116H473.52L472.56 405.316 471.6 407.116Z" fill="#ffffff" fill-rule="evenodd"/><path transform="matrix(1,0,0,-1,0,595.276)" d="M479.16 407.116H476.04V406.516H477.24V402.796H477.96V406.516H479.16Z" fill="#ffffff" fill-rule="evenodd"/><path transform="matrix(1,0,0,-1,0,595.276)" d="M481.68 407.236C481.2 407.236 480.72 406.996 480.24 406.636 479.88 406.156 479.76 405.556 479.76 404.956 479.76 404.476 479.88 403.876 480.24 403.396 480.72 402.916 481.2 402.676 481.68 402.676 482.16 402.676 482.64 402.916 483.12 403.396 483.48 403.876 483.6 404.476 483.6 404.956 483.6 405.556 483.48 406.156 483.12 406.636 482.64 406.996 482.16 407.236 481.68 407.236ZM481.68 406.636C482.4 406.636 482.88 405.916 482.88 404.956 482.88 404.596 482.76 404.236 482.52 403.876 482.28 403.516 481.92 403.396 481.68 403.396 480.96 403.396 480.48 404.116 480.48 404.956 480.48 405.436 480.6 405.796 480.84 406.156 481.08 406.396 481.44 406.636 481.68 406.636Z" fill="#ffffff" fill-rule="evenodd"/><path transform="matrix(1,0,0,-1,0,595.276)" d="M484.8 402.796H487.32V403.516H485.52V407.116H484.8Z" fill="#ffffff" fill-rule="evenodd"/><path transform="matrix(1,0,0,-1,0,595.276)" d="M488.16 402.796H490.56V403.516H488.88V407.116H488.16Z" fill="#ffffff" fill-rule="evenodd"/><path transform="matrix(1,0,0,-1,0,595.276)" d="M453 407.236C452.52 407.236 452.04 406.996 451.68 406.636 451.32 406.156 451.08 405.556 451.08 404.956 451.08 404.476 451.32 403.876 451.68 403.396 452.04 402.916 452.52 402.676 453 402.676 453.48 402.676 454.08 402.916 454.44 403.396 454.8 403.876 455.04 404.476 455.04 404.956 455.04 405.556 454.8 406.156 454.44 406.636 454.08 406.996 453.48 407.236 453 407.236ZM453 406.636C453.72 406.636 454.32 405.916 454.32 404.956 454.32 404.596 454.2 404.236 453.96 403.876 453.72 403.516 453.36 403.396 453 403.396 452.4 403.396 451.8 404.116 451.8 404.956 451.8 405.436 451.92 405.796 452.16 406.156 452.4 406.396 452.76 406.636 453 406.636Z" fill="#ffffff" fill-rule="evenodd"/><path transform="matrix(1,0,0,-1,0,595.276)" d="M452.76 399.316 452.4 399.436 452.16 398.716 451.8 397.876 451.44 397.276 450.96 396.556 451.44 396.076 451.8 396.676V393.196H452.4V397.876L452.88 398.956 453.12 399.076 453 399.196Z" fill="#ffffff" fill-rule="evenodd"/><path transform="matrix(1,0,0,-1,0,595.276)" d="M454.68 399.436V398.836H453V398.356H457.2V398.836H455.4V399.196L455.52 399.316H455.4L455.28 399.436Z" fill="#ffffff" fill-rule="evenodd"/><path transform="matrix(1,0,0,-1,0,595.276)" d="M453.6 397.996V396.676H456.6V397.996H453.6ZM454.08 397.156V397.516H456V397.156H454.08Z" fill="#ffffff" fill-rule="evenodd"/><path transform="matrix(1,0,0,-1,0,595.276)" d="M452.88 396.316V394.876H453.36V395.836H456.72V394.876H457.32V396.316Z" fill="#ffffff" fill-rule="evenodd"/><path transform="matrix(1,0,0,-1,0,595.276)" d="M453.72 395.356V394.756H454.92V394.276 394.036L454.8 393.916 454.56 393.796H454.32 454.08L454.2 393.196H454.56L455.04 393.316 455.4 393.556 455.52 393.796 455.4 394.276V394.756H456.36V395.356Z" fill="#ffffff" fill-rule="evenodd"/><path transform="matrix(1,0,0,-1,0,595.276)" d="M459.96 398.836V398.356H462.36V397.876H460.56V395.236H462.36V394.756H459.6V394.156H462.36V393.196H462.96V394.156H465.72V394.756H462.96V395.236H464.88V397.876H462.96V398.356H465.48V398.836H462.96V399.196H463.08V399.316 399.436H462.96L462.36 399.556V398.836H459.96ZM461.16 396.796V397.276H462.36V396.796H461.16ZM461.16 395.716V396.196H462.36V395.716H461.16ZM462.96 396.796V397.276H464.28V396.796H462.96ZM462.96 395.716V396.196H464.28V395.716H462.96Z" fill="#ffffff" fill-rule="evenodd"/><path transform="matrix(1,0,0,-1,0,595.276)" d="M469.08 399.436 468.48 398.476 468.24 398.596 468 398.116 468.84 397.516 468.24 396.556H468L468.12 396.196V395.956H468.24L468.36 396.076H468.96V393.196H469.44V396.196H469.68V395.956L470.16 396.076V395.716H470.76L470.64 395.116 470.52 394.516 470.28 394.036 469.92 393.556 470.4 393.196 470.88 393.916 471.12 394.756H471.72V394.516 394.156L471.6 393.916 471.48 393.796 471.24 393.676H470.88L471.12 393.196H471.36L471.72 393.316 472.08 393.556 472.2 393.916V394.516 395.236H471.12L471.24 395.716H472.2V396.076H471.48V396.676H472.08L472.44 396.196 472.56 396.436 472.8 395.476 473.04 394.516 472.68 394.036 472.2 393.556 472.68 393.196 473.4 394.036 474 393.196 474.36 393.676 474 394.156 473.64 394.636 473.88 396.076 474 397.516H474.24V397.996H473.04L473.28 399.076 473.4 399.196V399.316H473.28L473.16 399.436H472.8L472.68 398.716 472.56 397.996 472.44 397.516 472.2 397.036V398.836H471.48V399.196L471.6 399.316 471.48 399.436H471.36 471V398.836H470.28V396.676H471V396.076H470.16L469.8 397.276 469.44 397.156 469.56 396.676 468.84 396.556 469.92 397.996 470.04 398.116H470.16L470.04 398.236 469.92 398.356 469.56 398.596 469.08 397.996 468.84 398.116 469.56 399.196 469.08 399.436ZM470.76 397.996V398.476H471.72V397.996H470.76ZM470.76 397.036V397.516H471.72V397.036H470.76ZM472.92 397.516H473.52L473.4 396.316 473.28 395.236 473.16 396.076 473.04 397.036H472.8L472.92 397.516Z" fill="#ffffff" fill-rule="evenodd"/><path transform="matrix(1,0,0,-1,0,595.276)" d="M468.6 395.596H468.12L468 393.796 468.48 393.676Z" fill="#ffffff" fill-rule="evenodd"/><path transform="matrix(1,0,0,-1,0,595.276)" d="M470.04 395.596H469.56L469.8 394.276 470.28 394.396Z" fill="#ffffff" fill-rule="evenodd"/><path transform="matrix(1,0,0,-1,0,595.276)" d="M476.76 399.076V398.716H478.44V398.356H477L476.64 396.916H477.24L477.36 397.036H477.72L477.24 396.676 476.64 396.436 477.24 396.076 477.6 396.196V393.916H478.32L476.76 393.556 477.24 393.076 478.2 393.316 479.04 393.676 478.68 393.916H480.24L480 393.676 480.96 393.316 481.92 393.076 482.52 393.556 481.44 393.676 480.6 393.916H481.56V396.196L481.8 395.836H482.04L482.16 395.956 482.4 396.076 482.52 396.196 482.64 396.796V397.516H480.6V397.876H482.16V399.076H480.6V399.316 399.436H480.72L480.6 399.556H480.48 479.88V399.076H479.04V399.316L479.16 399.436V399.556H479.04 478.92 478.44V399.076H476.76ZM478.08 397.516H477.48V397.876H478.32L478.08 397.516ZM479.04 398.356V398.716H479.88V398.356H479.04ZM479.88 397.516H478.8L478.92 397.876H479.88V397.516ZM480.6 398.356V398.716H481.56V398.356H480.6ZM478.2 395.956V396.196H480.84V395.956H478.2ZM480 396.676H478.08L478.44 397.036H480V396.676ZM480.6 396.676V397.036H482.04V396.676L481.92 396.556 481.8 396.436H481.56V396.676H480.6ZM478.2 395.236V395.476H480.84V395.236H478.2ZM478.2 394.516V394.756H480.84V394.516H478.2Z" fill="#ffffff" fill-rule="evenodd"/></g></svg>