<?xml version='1.0' encoding='UTF-8'?>
<svg xmlns="http://www.w3.org/2000/svg" xmlns:xlink="http://www.w3.org/1999/xlink" xmlns:inkscape="http://www.inkscape.org/namespaces/inkscape" version="1.1" width="567.000" height="269.280" viewBox="0 0 567.000 269.280"><g transform="scale(10.0) translate(-329.439, -101.088)"><defs><clipPath id="clip_2"><path transform="matrix(1,0,0,-1,0,595.276)" d="M74.4 .196H767.4V595.276H74.4Z"/></clipPath></defs><path transform="matrix(1,0,0,-1,0,595.276)" d="M370.32 480.556C370.32 482.116 370.08 483.676 369.36 485.236 369.12 485.956 368.76 486.676 368.28 487.396 367.8 488.116 367.2 488.836 366.6 489.436 366 490.036 365.4 490.636 364.68 490.996 363.96 491.476 363.12 491.956 362.4 492.196 360.84 492.796 359.28 493.036 357.84 493.036 356.28 493.036 354.72 492.796 353.16 492.196 352.44 491.956 351.72 491.476 351 490.996 350.28 490.636 349.56 490.036 348.96 489.436 348.36 488.836 347.76 488.116 347.28 487.396 346.8 486.676 346.44 485.956 346.2 485.236 345.6 483.676 345.24 482.116 345.24 480.556 345.24 479.116 345.6 477.556 346.2 475.996 346.44 475.276 346.8 474.436 347.28 473.716 347.76 472.996 348.36 472.396 348.96 471.796 349.56 471.196 350.28 470.596 351 470.116 351.72 469.636 352.44 469.276 353.16 468.916 354.72 468.316 356.28 468.076 357.84 468.076 359.28 468.076 360.84 468.316 362.4 468.916 363.12 469.276 363.96 469.636 364.68 470.116 365.4 470.596 366 471.196 366.6 471.796 367.2 472.396 367.8 472.996 368.28 473.716 368.76 474.436 369.12 475.276 369.36 475.996 370.08 477.556 370.32 479.116 370.32 480.556ZM369.84 480.556C369.84 479.116 369.48 477.676 369 476.116 368.4 474.676 367.44 473.236 366.24 472.156 365.04 470.956 363.72 469.996 362.16 469.396 360.72 468.796 359.16 468.556 357.84 468.556 356.4 468.556 354.84 468.796 353.4 469.396 351.84 469.996 350.52 470.956 349.32 472.156 348.12 473.236 347.28 474.676 346.68 476.116 346.08 477.676 345.84 479.116 345.84 480.556 345.84 481.996 346.08 483.556 346.68 484.996 347.28 486.556 348.12 487.876 349.32 489.076 350.52 490.276 351.84 491.116 353.4 491.716 354.84 492.316 356.4 492.556 357.84 492.556 359.16 492.556 360.72 492.316 362.16 491.716 363.72 491.116 365.04 490.276 366.24 489.076 367.44 487.876 368.4 486.556 369 484.996 369.48 483.556 369.84 481.996 369.84 480.556Z" fill-rule="evenodd"/><path transform="matrix(1,0,0,-1,0,595.276)" d="M369.84 480.556C369.84 483.796 368.52 486.796 366.24 489.076 364.08 491.356 360.96 492.556 357.84 492.556 354.6 492.556 351.6 491.356 349.32 489.076 347.04 486.796 345.84 483.796 345.84 480.556 345.84 477.436 347.04 474.316 349.32 472.156 351.6 469.876 354.6 468.556 357.84 468.556 360.96 468.556 364.08 469.876 366.24 472.156 368.52 474.316 369.84 477.436 369.84 480.556Z" fill="#ffff00" fill-rule="evenodd"/><path transform="matrix(1,0,0,-1,0,595.276)" d="M368.4 480.556C368.4 482.716 368.04 484.276 367.08 485.236 366.24 486.316 365.04 486.796 363.24 486.796 361.56 486.796 360.36 486.316 359.4 485.236 358.56 484.276 358.2 482.716 358.2 480.556 358.2 478.516 358.56 476.956 359.4 475.876 360.36 474.916 361.56 474.316 363.24 474.316 365.04 474.316 366.24 474.916 367.08 475.876 368.04 476.956 368.4 478.516 368.4 480.556ZM365.88 480.556C365.88 477.916 365.04 476.596 363.24 476.596 362.4 476.596 361.8 476.956 361.32 477.556 360.84 478.276 360.6 479.236 360.6 480.556 360.6 483.196 361.56 484.636 363.24 484.636 364.2 484.636 364.8 484.276 365.28 483.556 365.76 482.956 365.88 481.876 365.88 480.556Z" fill-rule="evenodd"/><path transform="matrix(1,0,0,-1,0,595.276)" d="M350.52 474.796H353.04L356.88 484.036V486.436H348.6V484.036H354.24Z" fill-rule="evenodd"/></g></svg>