<?xml version='1.0' encoding='UTF-8'?>
<svg xmlns="http://www.w3.org/2000/svg" xmlns:xlink="http://www.w3.org/1999/xlink" xmlns:inkscape="http://www.inkscape.org/namespaces/inkscape" version="1.1" width="566.700" height="269.280" viewBox="0 0 566.700 269.280"><g transform="scale(10.0) translate(-56.655, -451.152)"><defs><clipPath id="clip_19"><path transform="matrix(0,1,1,0,0,0)" d="M0 19.875H595.008V822.117H0Z"/></clipPath><clipPath id="clip_20"><path transform="matrix(0,1,1,0,0,0)" d="M0 842.013H595.224V.008972168H0Z"/></clipPath></defs><path transform="matrix(0,1,1,0,71.283,477.63)" d="M0 0V27.648C0 27.792-.018 27.954-.09 28.098-.144 28.242-.234 28.386-.342 28.512-.468 28.62-.612 28.71-.756 28.782-.9 28.836-1.062 28.854-1.206 28.854H-24.57C-24.714 28.854-24.858 28.836-25.002 28.782-25.164 28.71-25.29 28.62-25.416 28.512-25.524 28.386-25.614 28.242-25.686 28.098-25.74 27.954-25.758 27.792-25.758 27.648V0C-25.758-.144-25.74-.288-25.686-.45-25.614-.594-25.524-.738-25.416-.846-25.29-.972-25.164-1.062-25.002-1.116-24.858-1.17-24.714-1.206-24.57-1.206H-1.206C-.882-1.206-.576-1.08-.342-.846-.126-.63 0-.324 0 0" fill="#ffffff" fill-rule="evenodd"/><path transform="matrix(0,1,1,0,80.589,477.036)" d="M0 0V18.342C0 18.504-.054 18.648-.18 18.774-.306 18.9-.468 18.954-.612 18.954H-23.976C-24.12 18.954-24.264 18.9-24.39 18.774-24.516 18.648-24.57 18.504-24.57 18.342V0H-23.796C-23.382 0-22.95-.072-22.554-.252-22.158-.414-21.798-.648-21.51-.936L-12.546-9.9H-.612C-.468-9.9-.306-9.846-.18-9.738-.054-9.612 0-9.45 0-9.306V-5.616L-5.022-.594V0H0" fill="#00ff00" fill-rule="evenodd"/><path transform="matrix(0,1,1,0,71.283,451.872)" stroke-width=".144" stroke-linecap="round" stroke-linejoin="round" fill="none" stroke="#00ff00" d="M0 0V27.648"/><path transform="matrix(0,1,1,0,70.076999,453.06)" stroke-width=".144" stroke-linecap="round" stroke-linejoin="round" fill="none" stroke="#00ff00" d="M0 0C-.666 0-1.188 .54-1.188 1.206"/><path transform="matrix(0,1,1,0,70.076999,476.424)" stroke-width=".144" stroke-linecap="round" stroke-linejoin="round" fill="none" stroke="#00ff00" d="M0 0H-23.364"/><path transform="matrix(0,1,1,0,71.283,477.63)" stroke-width=".144" stroke-linecap="round" stroke-linejoin="round" fill="none" stroke="#00ff00" d="M0 0C0-.666-.54-1.206-1.206-1.206"/><path transform="matrix(0,1,1,0,98.931,477.63)" stroke-width=".144" stroke-linecap="round" stroke-linejoin="round" fill="none" stroke="#00ff00" d="M0 0V-27.648"/><path transform="matrix(0,1,1,0,100.137,476.424)" stroke-width=".144" stroke-linecap="round" stroke-linejoin="round" fill="none" stroke="#00ff00" d="M0 0C.666 0 1.206-.54 1.206-1.206"/><path transform="matrix(0,1,1,0,100.137,453.06)" stroke-width=".144" stroke-linecap="round" stroke-linejoin="round" fill="none" stroke="#00ff00" d="M0 0H23.364"/><path transform="matrix(0,1,1,0,98.931,451.872)" stroke-width=".144" stroke-linecap="round" stroke-linejoin="round" fill="none" stroke="#00ff00" d="M0 0C0 .666 .522 1.206 1.188 1.206"/><path transform="matrix(0,1,1,0,81.795,455.076)" d="M0 0-1.602 1.62 0 3.222H1.62L.54 2.16H20.952V1.08H.54L1.62 0" fill="#ffffff" fill-rule="evenodd"/><path transform="matrix(0,1,1,0,0,0)" d="M464.958 79.995H466.578V80.58899H464.958Z" fill="#ffffff"/><path transform="matrix(0,1,1,0,0,0)" d="M467.388 79.995H468.99V80.58899H467.388Z" fill="#ffffff"/><path transform="matrix(0,1,1,0,72.885,475.866)" d="M0 0-4.734 4.752H-3.222L-4.356 5.886H-6.642V3.618L-5.508 2.466V3.996L-.756-.756" fill="#ffffff" fill-rule="evenodd"/><path transform="matrix(0,1,1,0,0,0)" d="M469.8 79.995H471.40199V80.58899H469.8Z" fill="#ffffff"/><path transform="matrix(0,1,1,0,75.387,467.766)" d="M0 0 .432 .432-1.278 2.142-1.71 1.71" fill="#ffffff" fill-rule="evenodd"/><path transform="matrix(0,1,1,0,72.831,470.34)" d="M0 0 .414 .414-1.296 2.124-1.71 1.71" fill="#ffffff" fill-rule="evenodd"/><path transform="matrix(0,1,1,0,72.885,467.028)" d="M0 0-4.734 4.752H-3.222L-4.356 5.886H-6.642V3.618L-5.49 2.466V3.996L-.756-.756" fill="#ffffff" fill-rule="evenodd"/><path transform="matrix(0,1,1,0,0,0)" d="M455.67 79.995H457.272V80.58899H455.67Z" fill="#ffffff"/><path transform="matrix(0,1,1,0,0,0)" d="M458.082 79.995H459.684V80.58899H458.082Z" fill="#ffffff"/><path transform="matrix(0,1,1,0,0,0)" d="M460.494 79.995H462.09599V80.58899H460.494Z" fill="#ffffff"/><path transform="matrix(0,1,1,0,86.241,455.076)" d="M0 0-1.602 1.602 0 3.222H1.62L.54 2.142H20.952V1.062H.54L1.62 0" fill="#ffffff" fill-rule="evenodd"/><path transform="matrix(0,1,1,0,95.115,455.076)" d="M0 0-1.602 1.602 0 3.204H1.62L.54 2.142H20.952V1.062H.54L1.62 0" fill="#ffffff" fill-rule="evenodd"/><path transform="matrix(0,1,1,0,77.709,465.444)" d="M0 0-2.538 1.98C-2.592 2.016-2.628 2.07-2.664 2.124-2.7 2.178-2.736 2.25-2.736 2.322-2.754 2.484-2.7 2.61-2.61 2.718-2.52 2.808-2.394 2.88-2.25 2.88-2.178 2.88-2.106 2.862-2.034 2.844-1.98 2.808-1.926 2.772-1.872 2.736L.396 .45C.522 .342 .522 .162 .414 .036 .306-.072 .126-.09 0 0" fill="#ffffff" fill-rule="evenodd"/><path transform="matrix(0,1,1,0,90.669,455.076)" d="M0 0-1.602 1.62 0 3.222H1.62L.54 2.142H20.952V1.08H.54L1.62 0" fill="#ffffff" fill-rule="evenodd"/></g></svg>