<?xml version='1.0' encoding='UTF-8'?>
<svg xmlns="http://www.w3.org/2000/svg" xmlns:xlink="http://www.w3.org/1999/xlink" xmlns:inkscape="http://www.inkscape.org/namespaces/inkscape" version="1.1" width="567.000" height="269.280" viewBox="0 0 567.000 269.280"><g transform="scale(10.0) translate(-329.439, -20.304)"><defs><clipPath id="clip_2"><path transform="matrix(1,0,0,-1,0,595.276)" d="M74.4 .196H767.4V595.276H74.4Z"/></clipPath></defs><path transform="matrix(1,0,0,-1,0,595.276)" d="M368.28 573.916H347.28C347.04 573.916 346.8 573.916 346.56 573.796 346.32 573.676 346.08 573.556 345.84 573.316 345.6 573.076 345.48 572.836 345.36 572.596 345.24 572.356 345.24 572.116 345.24 571.876V550.876C345.24 550.396 345.36 549.796 345.84 549.436 346.08 549.196 346.32 549.076 346.56 548.956 346.8 548.836 347.04 548.716 347.28 548.716H368.28C368.76 548.716 369.36 548.956 369.72 549.436 369.96 549.556 370.08 549.796 370.2 550.036 370.32 550.396 370.32 550.636 370.32 550.876V571.876C370.32 572.356 370.2 572.836 369.72 573.316 369.36 573.796 368.76 573.916 368.28 573.916ZM368.28 573.196C368.64 573.196 369 573.076 369.24 572.836 369.6 572.596 369.72 572.236 369.72 571.876V550.876C369.72 550.516 369.6 550.156 369.24 549.916 369 549.556 368.64 549.436 368.28 549.436H347.28C347.16 549.436 346.92 549.436 346.8 549.556 346.56 549.676 346.44 549.796 346.32 549.916 346.08 550.156 345.96 550.516 345.96 550.876V571.876C345.96 572.236 346.08 572.596 346.32 572.836 346.56 573.076 346.92 573.196 347.28 573.196H368.28Z" fill="#ff0000" fill-rule="evenodd"/><path transform="matrix(1,0,0,-1,0,595.276)" d="M347.28 573.196H368.28C368.64 573.196 369 573.076 369.24 572.836 369.6 572.596 369.72 572.236 369.72 571.876V550.876C369.72 550.516 369.6 550.156 369.24 549.916 369 549.556 368.64 549.436 368.28 549.436H347.28C346.92 549.436 346.56 549.556 346.32 549.916 346.08 550.156 345.96 550.516 345.96 550.876V571.876C345.96 572.236 346.08 572.596 346.32 572.836 346.56 573.076 346.92 573.196 347.28 573.196Z" fill="#ffffff" fill-rule="evenodd"/><path transform="matrix(1,0,0,-1,0,595.276)" d="M358.44 566.236H360.6L359.88 571.156H358.44Z" fill="#ff0000" fill-rule="evenodd"/><path transform="matrix(1,0,0,-1,0,595.276)" d="M367.56 564.796H348V563.476H349.44C349.56 563.476 349.8 563.356 349.92 563.236 350.04 563.116 350.04 562.876 350.04 562.756V560.596H351.48L352.08 562.876C352.08 563.116 352.2 563.236 352.32 563.356 352.44 563.356 352.56 563.476 352.8 563.476H362.88C363 563.476 363.12 563.356 363.24 563.356 363.36 563.236 363.48 563.116 363.48 562.876L364.08 560.596H365.52V562.756C365.52 562.876 365.52 563.116 365.64 563.236 365.88 563.356 366 563.476 366.12 563.476H367.56V564.796Z" fill="#ff0000" fill-rule="evenodd"/><path transform="matrix(1,0,0,-1,0,595.276)" d="M361.2 562.036H358.44V551.596H362.64Z" fill="#ff0000" fill-rule="evenodd"/><path transform="matrix(1,0,0,-1,0,595.276)" d="M354.36 562.036H357.12V551.596H352.92Z" fill="#ff0000" fill-rule="evenodd"/><path transform="matrix(1,0,0,-1,0,595.276)" d="M357.12 566.236H354.96L355.68 571.156H357.12Z" fill="#ff0000" fill-rule="evenodd"/></g></svg>