<?xml version='1.0' encoding='UTF-8'?>
<svg xmlns="http://www.w3.org/2000/svg" xmlns:xlink="http://www.w3.org/1999/xlink" xmlns:inkscape="http://www.inkscape.org/namespaces/inkscape" version="1.1" width="566.700" height="269.280" viewBox="0 0 566.700 269.280"><g transform="scale(10.0) translate(-56.655, -128.016)"><path transform="matrix(1,0,0,-1,0,595.276)" d="M72.84 466.036H97.2C97.92 466.036 98.64 465.796 99.24 465.196 99.84 464.596 100.08 463.876 100.08 463.156V444.196C100.08 443.476 99.84 442.636 99.24 442.036 98.64 441.556 97.92 441.196 97.2 441.196H72.84C72.12 441.196 71.4 441.556 70.8 442.036 70.2 442.636 69.96 443.476 69.96 444.196V463.156C69.96 463.516 70.08 463.876 70.2 464.236 70.32 464.596 70.56 464.836 70.8 465.196 71.4 465.796 72.12 466.036 72.84 466.036Z" fill="#00ff00" fill-rule="evenodd"/><path transform="matrix(1,0,0,-1,0,595.276)" d="M84.96 443.236C86.16 443.476 87.24 444.196 88.08 445.276 88.92 446.356 89.28 447.676 89.28 448.876V451.996H80.52V448.876C80.52 447.676 80.88 446.356 81.72 445.276 82.56 444.196 83.76 443.476 84.96 443.236Z" fill="#ffff00" fill-rule="evenodd"/><path transform="matrix(1,0,0,-1,0,595.276)" d="M96.36 443.716H97.92V451.636H96.6V445.876L92.76 451.636H91.2V443.716H92.52V449.476Z" fill="#ffffff" fill-rule="evenodd"/><path transform="matrix(1,0,0,-1,0,595.276)" d="M71.16 449.476V448.636H73.68V446.356L72.36 445.996 71.04 445.756 71.28 444.916V444.676H71.4 71.52L71.64 444.796 73.68 445.516V443.596H74.52V451.156L74.64 451.276V451.396H74.52L74.16 451.516 73.68 451.636V449.476Z" fill="#ffffff" fill-rule="evenodd"/><path transform="matrix(1,0,0,-1,0,595.276)" d="M75.6 451.516V444.796L75.72 444.316 75.84 444.076 76.2 443.836 76.8 443.716H77.88L78.36 443.836 78.72 443.956 78.96 444.316 79.08 444.796 79.2 445.636 78.48 445.996 78.24 445.276V445.036L78.12 444.796 77.88 444.676 77.64 444.556H76.92L76.68 444.676 76.56 444.796 76.44 445.036V445.276 448.156L77.76 448.756 78.84 449.236H78.96 79.08V449.356L78.96 449.596 78.48 450.076 77.52 449.476 76.44 448.996V450.916L76.68 451.156 76.8 451.276 76.56 451.396 76.2 451.516Z" fill="#ffffff" fill-rule="evenodd"/><path transform="matrix(1,0,0,-1,0,595.276)" d="M84.84 446.236H86.76V445.156H82.8V446.236C85.08 447.676 85.56 448.276 85.68 448.756V448.876C85.68 449.356 85.32 449.596 84.84 449.596 84.6 449.596 84.24 449.596 84.12 449.356 84 449.236 83.88 448.876 83.88 448.636H82.68C82.68 450.076 83.4 450.796 84.84 450.796 86.16 450.796 86.88 450.196 86.88 448.876V448.756C86.88 447.916 86.16 446.956 84.84 446.236Z" fill-rule="evenodd"/><path transform="matrix(1,0,0,-1,0,595.276)" d="M89.16 455.356C89.16 455.836 88.8 456.196 88.32 456.196 87.84 456.196 87.48 455.836 87.48 455.356 87.48 454.876 87.84 454.516 88.32 454.516 88.8 454.516 89.16 454.876 89.16 455.356Z" fill="#ffffff" fill-rule="evenodd"/><path transform="matrix(1,0,0,-1,0,595.276)" stroke-width=".12" stroke-linecap="butt" stroke-miterlimit="10" stroke-linejoin="miter" fill="none" stroke="#ffffff" d="M83.5 458.5V458.5"/><path transform="matrix(1,0,0,-1,0,595.276)" d="M83.52 458.476H82.32V459.676H83.28C83.28 459.676 83.4 459.676 83.4 459.796H83.52C84 460.036 84.36 460.516 84.12 460.996 84 461.596 83.52 461.956 82.92 461.956 82.56 462.076 82.08 461.956 81.72 461.596 81.36 461.236 81.24 460.876 81.24 460.516L79.68 460.756C79.68 461.356 80.04 461.956 80.64 462.556 81.24 463.036 82.08 463.276 82.92 463.396 84.12 463.396 85.2 462.676 85.68 461.596 85.92 460.636 85.44 459.676 84.72 459.196 85.68 458.476 86.04 457.276 85.68 456.196 85.2 455.236 84.12 454.516 82.92 454.516 82.08 454.516 81.24 454.756 80.64 455.236 80.04 455.836 79.68 456.436 79.8 457.156L81.24 457.396C81.12 456.556 81.84 455.956 82.68 455.836 83.04 455.836 83.4 455.956 83.76 456.196 84.12 456.436 84.24 456.796 84.24 457.156 84.36 457.396 84.24 457.756 84.12 457.996 83.88 458.356 83.64 458.476 83.52 458.476Z" fill="#ffffff" fill-rule="evenodd"/><path transform="matrix(1,0,0,-1,0,595.276)" d="M81.24 460.516V460.516Z" fill="#ffffff" fill-rule="evenodd"/><path transform="matrix(1,0,0,-1,0,595.276)" d="M81.24 457.396V457.396Z" fill="#ffffff" fill-rule="evenodd"/><path transform="matrix(1,0,0,-1,0,595.276)" d="M73.68 460.276H72.24V460.756C72.36 461.476 72.6 462.076 73.2 462.676 73.8 463.156 74.52 463.396 75.12 463.396 75.6 463.396 75.96 463.276 76.44 463.036 76.92 462.916 77.28 462.556 77.64 462.076 77.88 461.716 78.12 461.236 78.12 460.756 78.12 460.276 78 459.916 77.88 459.556 77.28 458.236 76.08 456.916 74.64 455.836H78V454.516H72.36V455.836C73.44 456.556 74.4 457.276 75.24 458.116 75.96 459.076 76.44 459.916 76.56 460.636 76.56 461.356 75.96 462.076 75.12 462.076 74.76 462.076 74.4 461.956 74.16 461.596 73.8 461.356 73.68 460.996 73.68 460.636V460.276Z" fill="#ffffff" fill-rule="evenodd"/><path transform="matrix(1,0,0,-1,0,595.276)" stroke-width=".12" stroke-linecap="butt" stroke-miterlimit="10" stroke-linejoin="miter" fill="none" stroke="#ffffff" d="M91.5 458.5V458.5"/><path transform="matrix(1,0,0,-1,0,595.276)" stroke-width=".12" stroke-linecap="butt" stroke-miterlimit="10" stroke-linejoin="miter" fill="none" stroke="#ffffff" d="M91.5 458.5V458.5"/><path transform="matrix(1,0,0,-1,0,595.276)" stroke-width=".12" stroke-linecap="butt" stroke-miterlimit="10" stroke-linejoin="miter" fill="none" stroke="#ffffff" d="M91.5 458.5V458.5"/><path transform="matrix(1,0,0,-1,0,595.276)" stroke-width=".12" stroke-linecap="butt" stroke-miterlimit="10" stroke-linejoin="miter" fill="none" stroke="#ffffff" d="M91.5 458.5V458.5"/><path transform="matrix(1,0,0,-1,0,595.276)" stroke-width=".12" stroke-linecap="butt" stroke-linejoin="round" fill="none" stroke="#ffffff" d="M91.08 458.956V458.956"/><path transform="matrix(1,0,0,-1,0,595.276)" stroke-width=".12" stroke-linecap="butt" stroke-miterlimit="10" stroke-linejoin="miter" fill="none" stroke="#ffffff" d="M91.5 458.5V458.5"/><path transform="matrix(1,0,0,-1,0,595.276)" d="M91.08 458.956V458.956C91.08 457.636 91.32 456.436 91.92 455.716 92.52 454.876 93.36 454.516 94.32 454.516 96.36 454.516 97.56 456.196 97.56 458.956 97.56 460.276 97.32 461.356 96.72 462.196 96.12 462.916 95.28 463.396 94.32 463.396 93.36 463.396 92.52 462.916 91.92 462.196 91.32 461.356 91.08 460.276 91.08 458.956ZM91.08 458.956V458.956ZM94.32 455.836C93.72 455.836 93.24 456.076 93 456.676 92.64 457.156 92.52 457.996 92.52 458.956 92.52 460.876 93.12 461.956 94.32 461.956 95.4 461.956 96.12 460.876 96.12 458.956 96.12 457.996 96 457.156 95.64 456.676 95.28 456.076 94.8 455.836 94.32 455.836Z" fill="#ffffff" fill-rule="evenodd"/></g></svg>