<?xml version='1.0' encoding='UTF-8'?>
<svg xmlns="http://www.w3.org/2000/svg" xmlns:xlink="http://www.w3.org/1999/xlink" xmlns:inkscape="http://www.inkscape.org/namespaces/inkscape" version="1.1" width="566.700" height="269.280" viewBox="0 0 566.700 269.280"><g transform="scale(10.0) translate(-56.655, -235.728)"><path transform="matrix(1,0,0,-1,0,595.276)" d="M72.84 358.396H97.2C97.92 358.396 98.64 358.156 99.24 357.556 99.84 356.956 100.08 356.116 100.08 355.396V336.436C100.08 335.716 99.84 334.996 99.24 334.396 98.64 333.796 97.92 333.556 97.2 333.556H72.84C72.12 333.556 71.4 333.796 70.8 334.396 70.2 334.996 69.96 335.716 69.96 336.436V355.396C69.96 355.756 70.08 356.116 70.2 356.476 70.32 356.836 70.56 357.196 70.8 357.556 71.4 358.156 72.12 358.396 72.84 358.396Z" fill="#0000ff" fill-rule="evenodd"/><path transform="matrix(1,0,0,-1,0,595.276)" d="M85.68 335.596C86.88 335.836 87.96 336.556 88.8 337.636 89.64 338.716 90 340.036 90 341.236V344.356H81.24V341.236C81.24 340.036 81.6 338.716 82.44 337.636 83.28 336.556 84.48 335.836 85.68 335.596Z" fill="#ffff00" fill-rule="evenodd"/><path transform="matrix(1,0,0,-1,0,595.276)" stroke-width=".12" stroke-linecap="butt" stroke-miterlimit="10" stroke-linejoin="miter" fill="none" stroke="#ffffff" d="M94.5 340.5V340.5"/><path transform="matrix(1,0,0,-1,0,595.276)" d="M94.32 340.876V340.876C94.2 340.876 94.08 340.996 93.84 340.996 93.6 341.236 93.36 341.476 93.36 341.716 93.36 342.076 93.6 342.436 93.84 342.556 94.08 342.796 94.44 342.916 94.8 342.796 95.4 342.796 96.12 342.556 96.72 341.956L97.8 342.796C96.84 343.636 95.88 344.116 94.8 344.116 94.08 344.116 93.36 343.876 92.76 343.396 92.28 343.036 92.04 342.316 92.04 341.716 92.04 341.116 92.28 340.516 92.76 340.156 93 340.036 93.12 339.916 93.36 339.796 93.84 339.676 94.32 339.556 94.8 339.436H94.92C95.52 339.436 96.12 339.316 96.48 338.836 96.6 338.476 96.6 338.116 96.48 337.756 96.36 337.276 95.64 337.156 95.04 337.156 94.2 337.156 93.48 337.516 92.76 338.236L91.68 337.396C92.04 337.036 92.4 336.796 92.64 336.676 93.36 336.196 94.08 335.956 94.92 335.956 95.76 335.956 96.72 336.196 97.2 336.676 97.44 336.916 97.56 337.156 97.68 337.396 97.8 337.516 97.8 337.636 97.92 337.756 97.92 337.876 97.92 337.996 97.92 338.116V338.236 338.356 338.476 338.596C97.92 338.716 97.92 338.836 97.92 338.836 97.8 339.316 97.56 339.676 97.32 340.036 97.08 340.156 96.96 340.276 96.72 340.396 96.6 340.396 96.36 340.516 96.12 340.516L94.32 340.876Z" fill="#ffffff" fill-rule="evenodd"/><path transform="matrix(1,0,0,-1,0,595.276)" d="M75.48 344.116V343.156H71.88V342.316H75.48V341.596H72.36V335.956H73.2V340.876H78.6V337.276 337.036 336.916L78.36 336.796 78.12 336.676H77.52L77.88 335.956H78.48L78.96 336.076 79.32 336.316 79.44 336.676V337.036 341.596H76.32V342.436H79.92V343.156H76.32V343.516L76.44 343.636V343.756L76.32 343.876H76.08Z" fill="#ffffff" fill-rule="evenodd"/><path transform="matrix(1,0,0,-1,0,595.276)" d="M74.64 340.756 74.04 340.396 74.52 339.916 74.76 339.436H73.8V338.836H75.6V338.116H73.68V337.396H75.48V336.196H76.32V337.396H78.12V338.116H76.32V338.836H78V339.556H77.04L77.4 340.036 77.76 340.396 77.04 340.756 76.56 340.156 76.32 339.556H75.12L75.48 339.796 75.12 340.396Z" fill="#ffffff" fill-rule="evenodd"/><path transform="matrix(1,0,0,-1,0,595.276)" d="M85.56 337.276C86.16 337.276 86.76 337.396 87.12 337.756 87.48 337.996 87.6 338.476 87.6 338.956 87.6 339.676 87.36 340.036 87.12 340.276 87.36 340.636 87.48 340.996 87.48 341.476 87.48 342.556 86.76 343.156 85.44 343.156 84.84 343.156 84.36 343.036 83.88 342.676 83.76 342.556 83.64 342.316 83.52 342.076 83.4 341.836 83.4 341.596 83.4 341.356H84.48C84.48 341.716 84.84 342.076 85.44 342.076 85.56 342.076 85.56 342.076 85.68 342.076 86.16 341.956 86.4 341.716 86.4 341.476 86.28 341.116 86.16 340.876 85.92 340.756H85.08V339.796H85.92C86.04 339.796 86.16 339.796 86.28 339.676 86.4 339.436 86.4 339.316 86.4 339.196 86.4 338.716 86.16 338.476 85.56 338.476 85.32 338.476 84.96 338.476 84.84 338.716 84.6 338.836 84.48 338.956 84.48 339.196L83.28 339.076C83.28 337.996 84.12 337.276 85.56 337.276Z" fill-rule="evenodd"/><path transform="matrix(1,0,0,-1,0,595.276)" d="M89.16 347.716C89.16 348.196 88.8 348.556 88.32 348.556 87.84 348.556 87.48 348.196 87.48 347.716 87.48 347.236 87.84 346.876 88.32 346.876 88.8 346.876 89.16 347.236 89.16 347.716Z" fill="#ffffff" fill-rule="evenodd"/><path transform="matrix(1,0,0,-1,0,595.276)" stroke-width=".12" stroke-linecap="butt" stroke-miterlimit="10" stroke-linejoin="miter" fill="none" stroke="#ffffff" d="M83.5 350.5V350.5"/><path transform="matrix(1,0,0,-1,0,595.276)" d="M83.52 350.836H82.32V352.036H83.28 83.4 83.52C84 352.276 84.36 352.876 84.12 353.356 84 353.956 83.52 354.316 82.92 354.316 82.56 354.316 82.08 354.196 81.72 353.956 81.36 353.596 81.24 353.116 81.24 352.756L79.68 352.996C79.68 353.716 80.04 354.316 80.64 354.916 81.24 355.396 82.08 355.636 82.92 355.636 84.12 355.636 85.2 355.036 85.68 353.956 85.92 352.996 85.44 352.036 84.72 351.556 85.68 350.836 86.04 349.636 85.68 348.556 85.2 347.476 84.12 346.756 82.92 346.876 82.08 346.876 81.24 347.116 80.64 347.596 80.04 348.196 79.68 348.796 79.8 349.396L81.24 349.636C81.12 348.916 81.84 348.196 82.68 348.196 83.04 348.196 83.4 348.196 83.76 348.436 84.12 348.796 84.24 349.156 84.24 349.396 84.36 349.756 84.24 350.116 84.12 350.356 83.88 350.716 83.64 350.836 83.52 350.836Z" fill="#ffffff" fill-rule="evenodd"/><path transform="matrix(1,0,0,-1,0,595.276)" d="M81.24 352.756V352.756Z" fill="#ffffff" fill-rule="evenodd"/><path transform="matrix(1,0,0,-1,0,595.276)" d="M81.24 349.636V349.636Z" fill="#ffffff" fill-rule="evenodd"/><path transform="matrix(1,0,0,-1,0,595.276)" d="M73.68 352.636H72.24V353.116C72.36 353.836 72.6 354.436 73.2 354.916 73.8 355.396 74.52 355.636 75.12 355.636 75.6 355.636 75.96 355.636 76.44 355.396 76.92 355.156 77.28 354.916 77.64 354.436 77.88 354.076 78.12 353.596 78.12 353.116 78.12 352.636 78 352.156 77.88 351.796 77.28 350.596 76.08 349.276 74.64 348.196H78V346.876H72.36V348.196C73.44 348.796 74.4 349.636 75.24 350.476 75.96 351.316 76.44 352.156 76.56 352.876 76.56 353.716 75.96 354.316 75.12 354.316 74.76 354.316 74.4 354.196 74.16 353.956 73.8 353.596 73.68 353.236 73.68 352.876V352.636Z" fill="#ffffff" fill-rule="evenodd"/><path transform="matrix(1,0,0,-1,0,595.276)" stroke-width=".12" stroke-linecap="butt" stroke-miterlimit="10" stroke-linejoin="miter" fill="none" stroke="#ffffff" d="M73.5 353.5 74.5 354.5"/><path transform="matrix(1,0,0,-1,0,595.276)" stroke-width=".12" stroke-linecap="butt" stroke-miterlimit="10" stroke-linejoin="miter" fill="none" stroke="#ffffff" d="M81.5 353.5V354.5"/><path transform="matrix(1,0,0,-1,0,595.276)" stroke-width=".12" stroke-linecap="butt" stroke-miterlimit="10" stroke-linejoin="miter" fill="none" stroke="#ffffff" d="M91.5 351.5V351.5"/><path transform="matrix(1,0,0,-1,0,595.276)" stroke-width=".12" stroke-linecap="butt" stroke-miterlimit="10" stroke-linejoin="miter" fill="none" stroke="#ffffff" d="M91.5 351.5V351.5"/><path transform="matrix(1,0,0,-1,0,595.276)" stroke-width=".12" stroke-linecap="butt" stroke-miterlimit="10" stroke-linejoin="miter" fill="none" stroke="#ffffff" d="M91.5 351.5V351.5"/><path transform="matrix(1,0,0,-1,0,595.276)" stroke-width=".12" stroke-linecap="butt" stroke-miterlimit="10" stroke-linejoin="miter" fill="none" stroke="#ffffff" d="M91.5 351.5V351.5"/><path transform="matrix(1,0,0,-1,0,595.276)" stroke-width=".12" stroke-linecap="butt" stroke-linejoin="round" fill="none" stroke="#ffffff" d="M91.08 351.196V351.196"/><path transform="matrix(1,0,0,-1,0,595.276)" stroke-width=".12" stroke-linecap="butt" stroke-miterlimit="10" stroke-linejoin="miter" fill="none" stroke="#ffffff" d="M91.5 351.5V351.5"/><path transform="matrix(1,0,0,-1,0,595.276)" d="M91.08 351.196V351.196C91.08 349.876 91.32 348.796 91.92 347.956 92.52 347.236 93.36 346.876 94.32 346.876 96.36 346.876 97.56 348.436 97.56 351.196 97.56 352.516 97.32 353.716 96.72 354.436 96.12 355.276 95.28 355.636 94.32 355.636 93.36 355.636 92.52 355.276 91.92 354.436 91.32 353.716 91.08 352.516 91.08 351.196ZM91.08 351.196V351.196ZM94.32 348.196C93.72 348.196 93.24 348.436 93 349.036 92.64 349.516 92.52 350.356 92.52 351.196 92.52 353.116 93.12 354.316 94.32 354.316 95.4 354.316 96.12 353.116 96.12 351.196 96.12 350.356 96 349.516 95.64 349.036 95.28 348.436 94.8 348.196 94.32 348.196Z" fill="#ffffff" fill-rule="evenodd"/></g></svg>