<?xml version='1.0' encoding='UTF-8'?>
<svg xmlns="http://www.w3.org/2000/svg" xmlns:xlink="http://www.w3.org/1999/xlink" xmlns:inkscape="http://www.inkscape.org/namespaces/inkscape" version="1.1" width="566.700" height="269.280" viewBox="0 0 566.700 269.280"><g transform="scale(10.0) translate(-56.655, -370.368)"><path transform="matrix(1,0,0,-1,0,595.276)" d="M72.84 223.756H97.2C97.92 223.756 98.64 223.516 99.24 222.916 99.84 222.316 100.08 221.596 100.08 220.876V201.916C100.08 201.196 99.84 200.476 99.24 199.876 98.64 199.276 97.92 198.916 97.2 198.916H72.84C72.12 198.916 71.4 199.276 70.8 199.876 70.2 200.476 69.96 201.196 69.96 201.916V220.876C69.96 221.236 70.08 221.596 70.2 221.956 70.32 222.316 70.56 222.676 70.8 222.916 71.4 223.516 72.12 223.756 72.84 223.756Z" fill="#00ff00" fill-rule="evenodd"/><path transform="matrix(1,0,0,-1,0,595.276)" d="M92.4 201.436H97.68V202.756H93.72V204.796H97.08V206.116H93.72V208.156H97.44V209.356H92.4Z" fill="#ffffff" fill-rule="evenodd"/><path transform="matrix(1,0,0,-1,0,595.276)" d="M75.48 209.476V208.636H72.24V207.916H75.48V207.316H73.2V203.956H75.36L74.52 203.476 73.68 202.996 72.72 202.636 71.76 202.396 72.48 201.676 73.32 202.036 74.16 202.396 74.88 202.756 75.48 203.356V201.196H76.32V203.356L77.04 202.756 77.76 202.396 78.48 202.036 79.2 201.676 80.16 202.516 79.08 202.756 78.12 202.996 77.28 203.476 76.56 203.956H78.72V207.316H76.32V207.916H79.68V208.636H76.32V208.996L76.44 209.116 76.56 209.236 76.44 209.356H76.2L75.48 209.476ZM74.04 205.996V206.596H75.48V205.996H74.04ZM76.32 204.676V205.276H77.88V204.676H76.32ZM76.32 205.996V206.596H77.88V205.996H76.32ZM74.04 204.676V205.276H75.6V204.676H74.04Z" fill="#ffffff" fill-rule="evenodd"/><path transform="matrix(1,0,0,-1,0,595.276)" d="M85.68 200.956C86.88 201.316 87.96 201.916 88.8 203.116 89.64 204.196 90 205.396 90 206.596V209.716H81.24V206.596C81.24 205.396 81.6 204.196 82.44 203.116 83.28 201.916 84.48 201.316 85.68 200.956Z" fill="#ffff00" fill-rule="evenodd"/><path transform="matrix(1,0,0,-1,0,595.276)" stroke-width=".12" stroke-linecap="round" stroke-linejoin="round" fill="none" stroke="#000000" d="M85.68 203.836C86.16 203.836 86.16 203.836 85.68 203.836"/><path transform="matrix(1,0,0,-1,0,595.276)" d="M85.68 203.836V203.836C85.32 203.836 85.2 203.836 84.96 203.956 84.84 204.076 84.72 204.316 84.6 204.556L83.52 204.196C83.64 203.716 84 203.356 84.24 203.116 84.6 202.876 85.08 202.756 85.68 202.756 86.88 202.756 87.72 203.476 87.72 204.676 87.72 206.116 87 206.836 85.68 206.836 85.56 206.836 85.44 206.836 85.2 206.716 85.08 206.716 84.96 206.716 84.96 206.716H84.84V206.596L84.96 206.836V207.196H87.36V208.396H83.88L83.64 205.516 84.84 205.396C84.84 205.636 85.2 205.756 85.56 205.756 85.8 205.756 86.04 205.756 86.28 205.516 86.4 205.396 86.4 205.276 86.52 205.156 86.52 205.036 86.52 204.916 86.52 204.796L85.68 203.836Z" fill-rule="evenodd"/><path transform="matrix(1,0,0,-1,0,595.276)" d="M89.16 213.076C89.16 213.556 88.8 213.916 88.32 213.916 87.84 213.916 87.48 213.556 87.48 213.076 87.48 212.596 87.84 212.236 88.32 212.236 88.8 212.236 89.16 212.596 89.16 213.076Z" fill="#ffffff" fill-rule="evenodd"/><path transform="matrix(1,0,0,-1,0,595.276)" stroke-width=".12" stroke-linecap="butt" stroke-miterlimit="10" stroke-linejoin="miter" fill="none" stroke="#ffffff" d="M83.5 216.5V216.5"/><path transform="matrix(1,0,0,-1,0,595.276)" d="M83.52 216.196H82.32V217.516H83.28 83.4 83.52C84 217.756 84.36 218.236 84.12 218.836 84 219.316 83.52 219.676 82.92 219.676 82.56 219.796 82.08 219.676 81.72 219.316 81.36 218.956 81.24 218.596 81.24 218.236L79.68 218.476C79.68 219.076 80.04 219.796 80.64 220.276 81.24 220.756 82.08 221.116 82.92 221.116 84.12 221.116 85.2 220.396 85.68 219.316 85.92 218.356 85.44 217.396 84.72 216.916 85.68 216.196 86.04 214.996 85.68 214.036 85.2 212.956 84.12 212.236 82.92 212.236 82.08 212.236 81.24 212.476 80.64 213.076 80.04 213.556 79.68 214.276 79.8 214.876L81.24 215.116C81.12 214.276 81.84 213.676 82.68 213.556 83.04 213.556 83.4 213.676 83.76 213.916 84.12 214.156 84.24 214.516 84.24 214.876 84.36 215.116 84.24 215.476 84.12 215.836 83.88 216.076 83.64 216.196 83.52 216.196Z" fill="#ffffff" fill-rule="evenodd"/><path transform="matrix(1,0,0,-1,0,595.276)" d="M81.24 218.236V218.236Z" fill="#ffffff" fill-rule="evenodd"/><path transform="matrix(1,0,0,-1,0,595.276)" d="M81.24 215.116V215.116Z" fill="#ffffff" fill-rule="evenodd"/><path transform="matrix(1,0,0,-1,0,595.276)" d="M73.68 217.996H72.24V218.596C72.36 219.196 72.6 219.796 73.2 220.396 73.8 220.876 74.52 221.116 75.12 221.116 75.6 221.116 75.96 220.996 76.44 220.756 76.92 220.636 77.28 220.276 77.64 219.796 77.88 219.436 78.12 218.956 78.12 218.476 78.12 217.996 78 217.636 77.88 217.276 77.28 215.956 76.08 214.636 74.64 213.676H78V212.356H72.36V213.676C73.44 214.276 74.4 214.996 75.24 215.956 75.96 216.796 76.44 217.636 76.56 218.356 76.56 219.076 75.96 219.796 75.12 219.796 74.76 219.796 74.4 219.676 74.16 219.316 73.8 219.076 73.68 218.716 73.68 218.356V217.996Z" fill="#ffffff" fill-rule="evenodd"/><path transform="matrix(1,0,0,-1,0,595.276)" stroke-width=".12" stroke-linecap="butt" stroke-miterlimit="10" stroke-linejoin="miter" fill="none" stroke="#ffffff" d="M91.5 216.5V216.5"/><path transform="matrix(1,0,0,-1,0,595.276)" stroke-width=".12" stroke-linecap="butt" stroke-miterlimit="10" stroke-linejoin="miter" fill="none" stroke="#ffffff" d="M91.5 216.5V216.5"/><path transform="matrix(1,0,0,-1,0,595.276)" stroke-width=".12" stroke-linecap="butt" stroke-miterlimit="10" stroke-linejoin="miter" fill="none" stroke="#ffffff" d="M91.5 216.5V216.5"/><path transform="matrix(1,0,0,-1,0,595.276)" stroke-width=".12" stroke-linecap="butt" stroke-miterlimit="10" stroke-linejoin="miter" fill="none" stroke="#ffffff" d="M91.5 216.5V216.5"/><path transform="matrix(1,0,0,-1,0,595.276)" stroke-width=".12" stroke-linecap="butt" stroke-linejoin="round" fill="none" stroke="#ffffff" d="M91.08 216.676V216.676"/><path transform="matrix(1,0,0,-1,0,595.276)" stroke-width=".12" stroke-linecap="butt" stroke-miterlimit="10" stroke-linejoin="miter" fill="none" stroke="#ffffff" d="M91.5 216.5V216.5"/><path transform="matrix(1,0,0,-1,0,595.276)" d="M91.08 216.676V216.676C91.08 215.356 91.32 214.156 91.92 213.436 92.52 212.596 93.36 212.236 94.32 212.236 96.36 212.236 97.56 213.916 97.56 216.676 97.56 217.996 97.32 219.076 96.72 219.916 96.12 220.636 95.28 221.116 94.32 221.116 93.36 221.116 92.52 220.636 91.92 219.916 91.32 219.076 91.08 217.996 91.08 216.676ZM91.08 216.676V216.676ZM94.32 213.556C93.72 213.556 93.24 213.796 93 214.396 92.64 214.996 92.52 215.716 92.52 216.676 92.52 218.596 93.12 219.676 94.32 219.676 95.4 219.676 96.12 218.596 96.12 216.676 96.12 215.716 96 214.996 95.64 214.396 95.28 213.796 94.8 213.556 94.32 213.556Z" fill="#ffffff" fill-rule="evenodd"/></g></svg>