<?xml version='1.0' encoding='UTF-8'?>
<svg xmlns="http://www.w3.org/2000/svg" xmlns:xlink="http://www.w3.org/1999/xlink" xmlns:inkscape="http://www.inkscape.org/namespaces/inkscape" version="1.1" width="566.700" height="269.280" viewBox="0 0 566.700 269.280"><g transform="scale(10.0) translate(-493.095, -505.008)"><defs><clipPath id="clip_19"><path transform="matrix(0,1,1,0,0,0)" d="M0 19.875H595.008V822.117H0Z"/></clipPath><clipPath id="clip_20"><path transform="matrix(0,1,1,0,0,0)" d="M0 842.013H595.224V.008972168H0Z"/></clipPath></defs><path transform="matrix(0,1,1,0,509.475,506.196)" d="M0 0V24.3C0 24.642 .072 25.002 .216 25.362 .36 25.722 .576 26.064 .864 26.352 1.152 26.64 1.476 26.856 1.836 27 2.196 27.144 2.574 27.198 2.916 27.198H21.906C22.248 27.198 22.608 27.144 22.968 27 23.328 26.856 23.67 26.64 23.958 26.352 24.246 26.064 24.462 25.722 24.606 25.362 24.75 25.002 24.804 24.642 24.804 24.3V0C24.804-.36 24.75-.72 24.606-1.08 24.462-1.44 24.246-1.782 23.958-2.07 23.67-2.34 23.328-2.574 22.968-2.718 22.608-2.844 22.248-2.916 21.906-2.916H2.916C2.142-2.916 1.404-2.61 .864-2.07 .306-1.512 0-.774 0 0" fill="#0000ff" fill-rule="evenodd"/><path transform="matrix(0,1,1,0,511.671,511.902)" d="M0 0V-1.476H-.576C-.9-1.44-1.224-1.368-1.548-1.206-1.872-1.044-2.178-.81-2.43-.522-2.682-.234-2.862 .09-2.988 .45-3.114 .792-3.168 1.152-3.168 1.476-3.168 1.692-3.15 1.926-3.114 2.16-3.06 2.376-2.988 2.628-2.88 2.844-2.772 3.078-2.646 3.294-2.484 3.51-2.322 3.708-2.124 3.888-1.908 4.05-1.692 4.194-1.476 4.32-1.242 4.41-.99 4.482-.756 4.536-.522 4.554-.288 4.572-.054 4.554 .162 4.5 .378 4.464 .576 4.392 .756 4.32V4.302H.774C1.404 3.978 2.07 3.528 2.718 2.934 3.348 2.358 3.96 1.656 4.5 .918V4.446H5.85V-1.386H4.5C4.194-.846 3.834-.324 3.438 .18 3.024 .684 2.61 1.152 2.16 1.548 1.71 1.944 1.278 2.268 .846 2.502 .414 2.754 .018 2.898-.342 2.97-.522 2.97-.702 2.934-.882 2.862-1.08 2.79-1.242 2.682-1.386 2.538-1.53 2.394-1.638 2.214-1.71 2.034-1.782 1.854-1.818 1.656-1.818 1.476-1.818 1.314-1.782 1.116-1.71 .936-1.638 .756-1.53 .576-1.386 .432-1.242 .288-1.08 .18-.882 .108-.702 .036-.522 0-.342 0H0" fill="#ffffff" fill-rule="evenodd"/><path transform="matrix(0,1,1,0,522.561,515.142)" d="M0 0C-.144 .018-.306 0-.486-.018-.648-.054-.828-.108-.972-.198-1.116-.288-1.224-.396-1.314-.504-1.386-.612-1.422-.738-1.44-.846V-1.98H-2.7V-1.008C-2.7-.972-2.7-.954-2.7-.918-2.718-.9-2.718-.864-2.736-.846-2.844-.576-3.024-.342-3.276-.216-3.528-.072-3.798-.036-4.05-.108-4.302-.162-4.554-.324-4.716-.576-4.896-.81-5.004-1.098-5.022-1.404-5.04-1.602-5.022-1.836-4.95-2.052-4.878-2.286-4.77-2.502-4.608-2.682-4.446-2.862-4.248-2.988-4.05-3.06-3.834-3.15-3.636-3.168-3.456-3.15L-3.708-4.68C-4.014-4.68-4.356-4.626-4.68-4.464-5.004-4.32-5.328-4.068-5.58-3.744-5.85-3.42-6.066-3.042-6.192-2.628-6.264-2.43-6.318-2.214-6.354-2.016-6.39-1.818-6.408-1.602-6.408-1.404-6.408-.792-6.246-.198-5.922 .306-5.598 .81-5.148 1.188-4.608 1.386-4.158 1.512-3.654 1.476-3.204 1.314-2.772 1.134-2.376 .828-2.124 .432-1.782 .918-1.296 1.26-.756 1.44-.216 1.62 .36 1.602 .882 1.404 1.422 1.206 1.89 .828 2.214 .324 2.538-.18 2.7-.792 2.7-1.404 2.7-1.602 2.682-1.8 2.646-2.016 2.61-2.214 2.556-2.43 2.484-2.628 2.358-3.042 2.142-3.42 1.872-3.744 1.62-4.068 1.296-4.302 .972-4.464 .648-4.626 .306-4.68 0-4.662L-.252-3.15C-.09-3.168 .09-3.132 .288-3.078 .468-3.024 .648-2.916 .792-2.772 .954-2.628 1.08-2.448 1.152-2.268 1.242-2.07 1.296-1.872 1.314-1.692 1.35-1.278 1.224-.864 .972-.54 .738-.234 .378-.036 0 0" fill="#ffffff" fill-rule="evenodd"/><path transform="matrix(0,1,1,0,527.619,516.87)" d="M0 0C-.234 0-.468-.09-.63-.252-.792-.432-.882-.648-.882-.882-.882-1.116-.792-1.35-.63-1.512-.468-1.674-.234-1.764 0-1.764 .234-1.764 .45-1.674 .63-1.512 .792-1.35 .882-1.116 .882-.882 .882-.648 .792-.432 .63-.252 .45-.09 .234 0 0 0" fill="#ffffff" fill-rule="evenodd"/><path transform="matrix(0,1,1,0,532.263,517.752)" d="M0 0H-8.928V-1.26H-8.478C-8.244-1.278-8.028-1.386-7.848-1.602-7.668-1.8-7.578-2.07-7.56-2.34V-2.952H-6.372V-1.44H0V0" fill="#ffffff" fill-rule="evenodd"/><path transform="matrix(0,1,1,0,521.553,529.02)" d="M0 0C-.072 .288-.18 .576-.306 .864-.432 1.152-.576 1.44-.756 1.71-1.116 2.25-1.566 2.754-2.106 3.168-2.628 3.582-3.222 3.888-3.852 4.086-4.158 4.194-4.464 4.266-4.77 4.32-5.094 4.374-5.4 4.392-5.688 4.392H-8.784V-4.392H-5.688C-5.4-4.392-5.094-4.374-4.77-4.32-4.464-4.284-4.158-4.194-3.852-4.104-3.222-3.888-2.628-3.582-2.106-3.168-1.566-2.754-1.116-2.268-.756-1.71-.576-1.44-.432-1.152-.306-.882-.18-.594-.072-.288 0 0" fill="#ffff00" fill-rule="evenodd"/><path transform="matrix(0,1,1,0,528.447,528.624)" d="M0 0-7.434-1.728V-.396L-1.962 .72-7.434 1.944V3.384L-1.962 4.608-7.434 5.724V7.038L0 5.31V3.888L-5.472 2.664 0 1.458" fill="#ffffff" fill-rule="evenodd"/><path transform="matrix(0,1,1,0,515.397,522.99)" d="M0 0V-2.394H-1.152V.378H-1.98V-7.596H-1.152V-4.842H0V-7.146H5.67V-6.336H5.184V-.828H5.616V0H0ZM0-4.032H-1.152V-3.20403H0ZM-1.152-4.032ZM.81-2.394V-.828H2.106L1.8-1.332V-1.44L2.358-1.656 2.664-1.926 2.7-2.214 2.574-2.358 2.358-2.394H.81ZM.81-6.336V-4.896L1.458-4.968 1.998-5.094 2.448-5.292 2.79-5.526 3.078-5.904 3.24-6.336H.81ZM4.374-6.336H3.312L3.564-5.958 3.87-5.634V-5.598L3.51-5.13 3.096-4.734 2.592-4.428 2.034-4.212 1.44-4.104 .81-4.068V-3.204H2.736L3.006-3.186 3.204-3.06 3.348-2.862 3.402-2.592V-1.782L3.276-1.368 2.952-1.08 2.646-.918 2.304-.828H4.374V-6.336" fill="#ffffff" fill-rule="evenodd"/><path transform="matrix(0,1,1,0,520.473,527.076)" d="M0 0V1.206L-4.356 2.97H-5.454V-.9H-4.356V1.764" fill-rule="evenodd"/></g></svg>