<?xml version='1.0' encoding='UTF-8'?>
<svg xmlns="http://www.w3.org/2000/svg" xmlns:xlink="http://www.w3.org/1999/xlink" xmlns:inkscape="http://www.inkscape.org/namespaces/inkscape" version="1.1" width="566.700" height="269.280" viewBox="0 0 566.700 269.280"><g transform="scale(10.0) translate(-165.765, -181.872)"><defs><clipPath id="clip_19"><path transform="matrix(0,1,1,0,0,0)" d="M0 19.875H595.008V822.117H0Z"/></clipPath><clipPath id="clip_20"><path transform="matrix(0,1,1,0,0,0)" d="M0 842.013H595.224V.008972168H0Z"/></clipPath></defs><path transform="matrix(0,1,1,0,180.741,204.714)" d="M0 0-20.646 11.916C-20.916 12.078-21.15 12.294-21.312 12.582-21.492 12.87-21.564 13.194-21.564 13.5-21.564 13.806-21.492 14.112-21.312 14.4-21.15 14.688-20.916 14.922-20.646 15.066L0 27C.576 27.324 1.26 27.324 1.836 27 2.088 26.856 2.322 26.622 2.502 26.334 2.664 26.046 2.736 25.74 2.736 25.416V1.566C2.736 .918 2.394 .324 1.836 0 1.26-.342 .576-.342 0 0" fill="#ff0000" fill-rule="evenodd"/><path transform="matrix(0,1,1,0,183.369,205.02)" d="M0 0-18.828 10.872 0 21.744" fill="#ffffff" fill-rule="evenodd"/><path transform="matrix(0,1,1,0,0,0)" d="M201.168 191.001H204.624V191.811H201.168Z"/><path transform="matrix(0,1,1,0,0,0)" d="M199.8 190.191H201.006V192.62099H199.8Z" fill="#ff0000"/><path transform="matrix(0,1,1,0,188.571,197.334)" d="M0 0 1.206-1.224H2.43L1.62-.414H7.29V.396H1.62L2.43 1.206H1.206" fill-rule="evenodd"/><path transform="matrix(0,1,1,0,194.241,197.334)" d="M0 0 1.206-1.224H2.43L1.62-.414H7.29V.396H1.62L2.43 1.206H1.206" fill-rule="evenodd"/><path transform="matrix(0,1,1,0,0,0)" d="M201.168 196.671H204.624V197.48102H201.168Z"/><path transform="matrix(0,1,1,0,0,0)" d="M199.8 195.861H201.006V198.29099H199.8Z" fill="#ff0000"/><path transform="matrix(0,1,1,0,0,0)" d="M201.168 199.497H204.624V200.30699H201.168Z"/><path transform="matrix(0,1,1,0,0,0)" d="M199.8 198.687H201.006V201.11699H199.8Z" fill="#ff0000"/></g></svg>