<?xml version='1.0' encoding='UTF-8'?>
<svg xmlns="http://www.w3.org/2000/svg" xmlns:xlink="http://www.w3.org/1999/xlink" xmlns:inkscape="http://www.inkscape.org/namespaces/inkscape" version="1.1" width="566.700" height="269.280" viewBox="0 0 566.700 269.280"><g transform="scale(10.0) translate(-56.655, -289.584)"><path transform="matrix(1,0,0,-1,0,595.276)" d="M72.84 304.516H97.2C97.92 304.516 98.64 304.276 99.24 303.676 99.84 303.076 100.08 302.356 100.08 301.636V282.676C100.08 281.956 99.84 281.116 99.24 280.636 98.64 280.036 97.92 279.676 97.2 279.676H72.84C72.12 279.676 71.4 280.036 70.8 280.636 70.2 281.116 69.96 281.956 69.96 282.676V301.636C69.96 301.996 70.08 302.356 70.2 302.716 70.32 303.076 70.56 303.436 70.8 303.676 71.4 304.276 72.12 304.516 72.84 304.516Z" fill="#0000ff" fill-rule="evenodd"/><path transform="matrix(1,0,0,-1,0,595.276)" d="M84.96 281.716C86.16 282.076 87.24 282.676 88.08 283.756 88.92 284.956 89.28 286.156 89.28 287.356V290.476H80.52V287.356C80.52 286.156 80.88 284.956 81.72 283.756 82.56 282.676 83.76 282.076 84.96 281.716Z" fill="#ffff00" fill-rule="evenodd"/><path transform="matrix(1,0,0,-1,0,595.276)" d="M96.36 282.196H97.92V290.116H96.6V284.356L92.76 290.116H91.2V282.196H92.52V287.956Z" fill="#ffffff" fill-rule="evenodd"/><path transform="matrix(1,0,0,-1,0,595.276)" d="M71.16 287.956V287.116H73.68V284.836L72.36 284.476 71.04 284.236 71.28 283.396V283.276L71.4 283.156H71.52L71.64 283.396 73.68 283.996V282.076H74.52V289.636L74.64 289.756V289.876H74.52L74.16 289.996 73.68 290.116V287.956Z" fill="#ffffff" fill-rule="evenodd"/><path transform="matrix(1,0,0,-1,0,595.276)" d="M75.6 289.996V283.276L75.72 282.916 75.84 282.556 76.2 282.316 76.8 282.196H77.88L78.36 282.316 78.72 282.436 78.96 282.796 79.08 283.396 79.2 284.116 78.48 284.476 78.24 283.756V283.516L78.12 283.276 77.88 283.156 77.64 283.036H76.92L76.68 283.156 76.56 283.276 76.44 283.516V283.756 286.636L77.76 287.236 78.84 287.716H78.96 79.08V287.956L78.96 288.076 78.48 288.556 77.52 287.956 76.44 287.476V289.396L76.68 289.636 76.8 289.756 76.56 289.876 76.2 289.996Z" fill="#ffffff" fill-rule="evenodd"/><path transform="matrix(1,0,0,-1,0,595.276)" d="M84.84 284.716H86.76V283.636H82.8V284.716C85.08 286.156 85.56 286.756 85.68 287.236V287.356C85.68 287.836 85.32 288.076 84.84 288.196 84.6 288.196 84.24 288.076 84.12 287.836 84 287.716 83.88 287.476 83.88 287.116H82.68C82.68 288.556 83.4 289.276 84.84 289.276 86.16 289.276 86.88 288.676 86.88 287.476V287.356 287.236C86.88 286.396 86.16 285.556 84.84 284.716Z" fill-rule="evenodd"/><path transform="matrix(1,0,0,-1,0,595.276)" d="M89.16 293.836C89.16 294.316 88.8 294.676 88.32 294.676 87.84 294.676 87.48 294.316 87.48 293.836 87.48 293.356 87.84 292.996 88.32 292.996 88.8 292.996 89.16 293.356 89.16 293.836Z" fill="#ffffff" fill-rule="evenodd"/><path transform="matrix(1,0,0,-1,0,595.276)" stroke-width=".12" stroke-linecap="butt" stroke-miterlimit="10" stroke-linejoin="miter" fill="none" stroke="#ffffff" d="M83.5 296.5V296.5"/><path transform="matrix(1,0,0,-1,0,595.276)" d="M83.52 296.956H82.32V298.276H83.28 83.4 83.52C84 298.516 84.36 298.996 84.12 299.596 84 300.076 83.52 300.436 82.92 300.436 82.56 300.556 82.08 300.436 81.72 300.076 81.36 299.716 81.24 299.356 81.24 298.996L79.68 299.236C79.68 299.836 80.04 300.556 80.64 301.036 81.24 301.516 82.08 301.756 82.92 301.876 84.12 301.876 85.2 301.156 85.68 300.076 85.92 299.116 85.44 298.156 84.72 297.676 85.68 296.956 86.04 295.756 85.68 294.796 85.2 293.716 84.12 292.996 82.92 292.996 82.08 292.996 81.24 293.236 80.64 293.716 80.04 294.316 79.68 295.036 79.8 295.636L81.24 295.876C81.12 295.036 81.84 294.436 82.68 294.316 83.04 294.316 83.4 294.436 83.76 294.676 84.12 294.916 84.24 295.276 84.24 295.636 84.36 295.876 84.24 296.236 84.12 296.596 83.88 296.836 83.64 296.956 83.52 296.956Z" fill="#ffffff" fill-rule="evenodd"/><path transform="matrix(1,0,0,-1,0,595.276)" d="M81.24 298.996V298.996Z" fill="#ffffff" fill-rule="evenodd"/><path transform="matrix(1,0,0,-1,0,595.276)" d="M81.24 295.876V295.876Z" fill="#ffffff" fill-rule="evenodd"/><path transform="matrix(1,0,0,-1,0,595.276)" d="M73.68 298.756H72.24V299.356C72.36 299.956 72.6 300.556 73.2 301.156 73.8 301.636 74.52 301.876 75.12 301.876 75.6 301.876 75.96 301.756 76.44 301.516 76.92 301.396 77.28 301.036 77.64 300.556 77.88 300.196 78.12 299.716 78.12 299.236 78.12 298.756 78 298.396 77.88 298.036 77.28 296.716 76.08 295.396 74.64 294.316H78V293.116H72.36V294.316C73.44 295.036 74.4 295.756 75.24 296.596 75.96 297.556 76.44 298.396 76.56 299.116 76.56 299.836 75.96 300.556 75.12 300.556 74.76 300.556 74.4 300.436 74.16 300.076 73.8 299.836 73.68 299.476 73.68 299.116V298.756Z" fill="#ffffff" fill-rule="evenodd"/><path transform="matrix(1,0,0,-1,0,595.276)" stroke-width=".12" stroke-linecap="butt" stroke-miterlimit="10" stroke-linejoin="miter" fill="none" stroke="#ffffff" d="M73.5 299.5 74.5 300.5"/><path transform="matrix(1,0,0,-1,0,595.276)" stroke-width=".12" stroke-linecap="butt" stroke-miterlimit="10" stroke-linejoin="miter" fill="none" stroke="#ffffff" d="M81.5 299.5V300.5"/><path transform="matrix(1,0,0,-1,0,595.276)" stroke-width=".12" stroke-linecap="butt" stroke-miterlimit="10" stroke-linejoin="miter" fill="none" stroke="#ffffff" d="M91.5 297.5V297.5"/><path transform="matrix(1,0,0,-1,0,595.276)" stroke-width=".12" stroke-linecap="butt" stroke-miterlimit="10" stroke-linejoin="miter" fill="none" stroke="#ffffff" d="M91.5 297.5V297.5"/><path transform="matrix(1,0,0,-1,0,595.276)" stroke-width=".12" stroke-linecap="butt" stroke-miterlimit="10" stroke-linejoin="miter" fill="none" stroke="#ffffff" d="M91.5 297.5V297.5"/><path transform="matrix(1,0,0,-1,0,595.276)" stroke-width=".12" stroke-linecap="butt" stroke-miterlimit="10" stroke-linejoin="miter" fill="none" stroke="#ffffff" d="M91.5 297.5V297.5"/><path transform="matrix(1,0,0,-1,0,595.276)" stroke-width=".12" stroke-linecap="butt" stroke-linejoin="round" fill="none" stroke="#ffffff" d="M91.08 297.436V297.436"/><path transform="matrix(1,0,0,-1,0,595.276)" stroke-width=".12" stroke-linecap="butt" stroke-miterlimit="10" stroke-linejoin="miter" fill="none" stroke="#ffffff" d="M91.5 297.5V297.5"/><path transform="matrix(1,0,0,-1,0,595.276)" d="M91.08 297.436V297.436C91.08 296.116 91.32 294.916 91.92 294.196 92.52 293.356 93.36 292.996 94.32 292.996 96.36 292.996 97.56 294.676 97.56 297.436 97.56 298.756 97.32 299.836 96.72 300.676 96.12 301.396 95.28 301.876 94.32 301.876 93.36 301.876 92.52 301.396 91.92 300.676 91.32 299.836 91.08 298.756 91.08 297.436ZM91.08 297.436V297.436ZM94.32 294.316C93.72 294.316 93.24 294.556 93 295.156 92.64 295.756 92.52 296.476 92.52 297.436 92.52 299.356 93.12 300.436 94.32 300.436 95.4 300.436 96.12 299.356 96.12 297.436 96.12 296.476 96 295.756 95.64 295.156 95.28 294.556 94.8 294.316 94.32 294.316Z" fill="#ffffff" fill-rule="evenodd"/></g></svg>