<?xml version='1.0' encoding='UTF-8'?>
<svg xmlns="http://www.w3.org/2000/svg" xmlns:xlink="http://www.w3.org/1999/xlink" xmlns:inkscape="http://www.inkscape.org/namespaces/inkscape" version="1.1" width="567.000" height="269.280" viewBox="0 0 567.000 269.280"><g transform="scale(10.0) translate(-438.573, -343.440)"><defs><clipPath id="clip_2"><path transform="matrix(1,0,0,-1,0,595.276)" d="M74.4 .196H767.4V595.276H74.4Z"/></clipPath></defs><path transform="matrix(1,0,0,-1,0,595.276)" d="M483.12 249.796V226.876C483.12 226.756 483 226.516 483 226.396 482.88 226.156 482.88 226.036 482.64 225.916 482.52 225.796 482.4 225.676 482.28 225.676 482.04 225.556 481.92 225.556 481.8 225.556H452.04C451.68 225.556 451.32 225.676 451.08 225.916 450.84 226.156 450.72 226.516 450.72 226.876V249.796C450.72 250.036 450.84 250.396 451.08 250.636 451.2 250.876 451.32 250.876 451.56 250.996 451.68 250.996 451.8 251.116 452.04 251.116H481.8C482.52 251.116 483.12 250.516 483.12 249.796Z" fill-rule="evenodd"/><path transform="matrix(1,0,0,-1,0,595.276)" d="M482.4 249.796V226.876C482.4 226.756 482.4 226.756 482.4 226.636 482.4 226.516 482.28 226.516 482.28 226.396 482.16 226.276 482.16 226.276 482.04 226.276 481.92 226.156 481.8 226.156 481.8 226.156H452.04C451.8 226.156 451.68 226.276 451.56 226.396 451.44 226.516 451.32 226.756 451.32 226.876V249.796C451.32 249.916 451.44 250.036 451.56 250.276 451.68 250.396 451.8 250.396 452.04 250.396H481.8C481.92 250.396 482.16 250.396 482.28 250.276 482.4 250.036 482.4 249.916 482.4 249.796Z" fill="#ffffff" fill-rule="evenodd"/><path transform="matrix(1,0,0,-1,0,595.276)" d="M465.24 243.916C465.24 244.516 464.88 244.876 464.4 244.876 464.04 244.876 463.8 244.756 463.68 244.636 463.56 244.396 463.44 244.156 463.44 243.916 463.44 243.196 463.8 242.836 464.4 242.836 464.88 242.836 465.24 243.196 465.24 243.916ZM464.76 243.916C464.76 243.556 464.52 243.436 464.4 243.436 464.16 243.436 464.04 243.556 464.04 243.916 464.04 244.156 464.16 244.396 464.4 244.396 464.52 244.396 464.76 244.156 464.76 243.916Z" fill-rule="evenodd"/><path transform="matrix(1,0,0,-1,0,595.276)" d="M467.16 242.956V244.156 244.276C467.16 244.636 466.92 244.876 466.44 244.876 466.44 244.876 466.32 244.876 466.2 244.876 466.2 244.756 466.08 244.756 466.08 244.636V244.756H465.6V242.956H466.08V244.036 244.156C466.08 244.276 466.2 244.396 466.44 244.396 466.56 244.396 466.68 244.276 466.68 244.156V244.036 242.956H467.16Z" fill-rule="evenodd"/><path transform="matrix(1,0,0,-1,0,595.276)" d="M468.12 245.476V243.556 243.436C468.12 243.436 468.24 243.436 468.48 243.436V242.956H468.36C468.36 242.956 468.24 242.956 468.12 242.956 467.88 242.956 467.64 243.076 467.64 243.196V243.316 245.476H468.12Z" fill-rule="evenodd"/><path transform="matrix(1,0,0,-1,0,595.276)" d="M470.4 244.756H469.92L469.56 243.676 469.2 244.756H468.72L469.2 243.076V242.956C469.32 242.956 469.32 242.956 469.32 242.836H469.2 469.08C468.96 242.836 468.96 242.836 468.84 242.836V242.356C468.96 242.356 469.2 242.356 469.44 242.356 469.44 242.356 469.56 242.356 469.56 242.476 469.68 242.476 469.68 242.596 469.68 242.716L470.4 244.756Z" fill-rule="evenodd"/><path transform="matrix(1,0,0,-1,0,595.276)" d="M454.92 247.516H455.88V247.996H454.92V248.596H456V249.076H454.44V246.556H454.92Z" fill-rule="evenodd"/><path transform="matrix(1,0,0,-1,0,595.276)" d="M456.36 246.556V248.476H456.84V248.236C456.84 248.356 456.96 248.356 457.08 248.476 457.08 248.476 457.2 248.476 457.44 248.476V247.996C457.2 247.996 457.08 247.876 456.96 247.876 456.96 247.756 456.84 247.756 456.84 247.636V246.556H456.36Z" fill-rule="evenodd"/><path transform="matrix(1,0,0,-1,0,595.276)" d="M459.36 246.916 459.24 246.556C459.12 246.556 459 246.556 459 246.556 458.88 246.556 458.76 246.676 458.76 246.676 458.76 246.556 458.52 246.436 458.4 246.436 458.16 246.436 457.92 246.556 457.8 246.676 457.68 246.796 457.68 246.916 457.68 247.156 457.68 247.396 457.68 247.516 457.92 247.636 458.04 247.636 458.28 247.756 458.64 247.756V247.876 247.996H458.52C458.4 247.996 458.28 247.996 458.16 247.996 458.04 247.996 458.04 247.876 457.92 247.876L457.68 248.236C457.8 248.356 458.16 248.476 458.4 248.476 458.64 248.476 458.88 248.476 459 248.356 459.12 248.236 459.24 248.116 459.24 247.996V247.036C459.24 246.916 459.24 246.916 459.36 246.916ZM458.16 247.156C458.16 247.036 458.16 247.036 458.16 246.916 458.28 246.916 458.4 246.916 458.4 246.916 458.52 246.916 458.64 246.916 458.64 247.036V247.396C458.52 247.396 458.4 247.276 458.28 247.276 458.16 247.276 458.16 247.156 458.16 247.156Z" fill-rule="evenodd"/><path transform="matrix(1,0,0,-1,0,595.276)" d="M461.28 246.556V247.876C461.28 248.236 461.04 248.476 460.56 248.476 460.56 248.476 460.44 248.476 460.32 248.476 460.32 248.356 460.2 248.356 460.2 248.236V248.356H459.72V246.556H460.2V247.636 247.756C460.2 247.876 460.32 247.996 460.56 247.996 460.68 247.996 460.8 247.876 460.8 247.756V247.636 246.556H461.28Z" fill-rule="evenodd"/><path transform="matrix(1,0,0,-1,0,595.276)" d="M462.6 248.476C462.72 248.476 462.96 248.476 463.08 248.356 463.2 248.236 463.32 248.116 463.32 247.876L462.96 247.756C462.84 247.876 462.72 247.996 462.6 247.996 462.36 247.996 462.24 247.876 462.24 247.636V247.516 247.396C462.24 247.036 462.36 246.916 462.6 246.916 462.72 246.916 462.72 246.916 462.84 247.036 462.84 247.036 462.96 247.156 462.96 247.276L463.44 247.036C463.32 246.676 463.08 246.436 462.6 246.436 462 246.556 461.76 246.796 461.76 247.516 461.76 248.116 462 248.476 462.6 248.476Z" fill-rule="evenodd"/><path transform="matrix(1,0,0,-1,0,595.276)" d="M464.16 248.356C464.4 248.476 464.64 248.476 464.88 248.356 465 248.356 465.12 248.236 465.12 248.116 465.24 247.996 465.24 247.876 465.24 247.756V246.556H464.76V247.636C464.76 247.756 464.76 247.876 464.64 247.876 464.64 247.996 464.52 247.996 464.52 247.996 464.4 247.996 464.28 247.996 464.28 247.876 464.28 247.876 464.16 247.876 464.16 247.756V247.636 246.556H463.68V249.076H464.16V248.356Z" fill-rule="evenodd"/><path transform="matrix(1,0,0,-1,0,595.276)" d="M466.32 246.556V248.356H465.84V246.556Z" fill-rule="evenodd"/><path transform="matrix(1,0,0,-1,0,595.276)" d="M466.44 248.836C466.44 248.956 466.32 249.196 466.08 249.196 465.96 249.196 465.84 248.956 465.84 248.836 465.84 248.716 465.96 248.596 466.08 248.596 466.32 248.596 466.44 248.716 466.44 248.836Z" fill-rule="evenodd"/><path transform="matrix(1,0,0,-1,0,595.276)" d="M468.24 247.156C468.24 247.516 468 247.636 467.64 247.756 467.52 247.756 467.4 247.756 467.4 247.756L467.28 247.876C467.28 247.996 467.4 247.996 467.52 247.996 467.64 247.996 467.64 247.996 467.76 247.996 467.88 247.996 467.88 247.876 467.88 247.876L468.24 248.236C468.12 248.356 467.88 248.476 467.52 248.476 467.04 248.476 466.8 248.236 466.8 247.876 466.8 247.516 467.04 247.396 467.28 247.276 467.52 247.276 467.76 247.276 467.76 247.156 467.76 247.036 467.64 247.036 467.64 247.036 467.64 246.916 467.52 246.916 467.52 246.916 467.4 246.916 467.28 246.916 467.28 247.036 467.16 247.036 467.04 247.156 467.04 247.156L466.68 246.796C466.8 246.556 467.16 246.436 467.52 246.436 468 246.436 468.24 246.676 468.24 247.156Z" fill-rule="evenodd"/><path transform="matrix(1,0,0,-1,0,595.276)" d="M470.16 247.276C470.16 247.996 469.92 248.476 469.32 248.476 468.84 248.476 468.6 248.116 468.48 247.516 468.48 247.276 468.6 247.036 468.72 246.796 468.84 246.556 469.2 246.436 469.44 246.436 469.68 246.436 470.04 246.676 470.04 246.796L469.8 247.156C469.68 247.036 469.56 246.916 469.44 246.916 469.32 246.916 469.2 246.916 469.08 247.036V247.156C468.96 247.156 468.96 247.276 468.96 247.276H470.16ZM468.96 247.636V247.636C468.96 247.756 469.08 247.876 469.08 247.876 469.2 247.996 469.2 247.996 469.32 247.996 469.44 247.996 469.56 247.876 469.68 247.756V247.636H468.96Z" fill-rule="evenodd"/><path transform="matrix(1,0,0,-1,0,595.276)" d="M471.72 248.356V249.076H472.2V246.556H471.72C471.6 246.556 471.48 246.436 471.24 246.436 470.88 246.436 470.52 246.796 470.4 247.396V247.636C470.52 248.116 470.76 248.356 471.24 248.476 471.36 248.476 471.48 248.356 471.72 248.356ZM471.72 247.156V247.636 247.756C471.72 247.756 471.6 247.756 471.6 247.876 471.48 247.876 471.48 247.996 471.36 247.996 471.12 247.996 470.88 247.756 470.88 247.516 470.88 247.156 471 246.916 471.36 246.916 471.48 246.916 471.6 247.036 471.72 247.156Z" fill-rule="evenodd"/><path transform="matrix(1,0,0,-1,0,595.276)" d="M473.76 246.556V249.076H474.6 474.72C474.72 249.076 474.84 249.076 474.96 249.076 475.32 248.956 475.56 248.716 475.56 248.356 475.56 248.236 475.56 248.236 475.56 248.116 475.44 247.996 475.44 247.996 475.32 247.876 475.44 247.876 475.56 247.756 475.56 247.756 475.68 247.636 475.68 247.516 475.68 247.396 475.68 246.916 475.44 246.676 475.08 246.556H474.96 474.84 474.72 473.76ZM475.08 248.356C475.08 248.476 474.96 248.596 474.96 248.596H474.84 474.72 474.24V248.116H474.72 474.84 474.96C474.96 248.116 475.08 248.236 475.08 248.356ZM474.24 247.036H474.72 474.84 474.96C475.08 247.156 475.2 247.276 475.2 247.396 475.2 247.516 475.08 247.636 474.96 247.636H474.84 474.72 474.24V247.036Z" fill-rule="evenodd"/><path transform="matrix(1,0,0,-1,0,595.276)" d="M477.24 248.356H477.72V246.556H477.24V246.676C477.24 246.556 477.24 246.556 477.12 246.556 477 246.436 476.88 246.436 476.76 246.436 476.64 246.436 476.4 246.556 476.28 246.676L476.16 246.796C476.16 246.916 476.16 247.036 476.16 247.036V248.356H476.64V247.276 247.156C476.64 247.156 476.64 247.036 476.76 247.036L476.88 246.916C477 246.916 477.12 247.036 477.12 247.036 477.24 247.156 477.24 247.276 477.24 247.276V248.356Z" fill-rule="evenodd"/><path transform="matrix(1,0,0,-1,0,595.276)" d="M479.64 247.156C479.64 247.516 479.52 247.636 479.04 247.756 478.92 247.756 478.8 247.756 478.8 247.756L478.68 247.876C478.68 247.996 478.8 247.996 478.92 247.996 479.04 247.996 479.16 247.996 479.16 247.996 479.28 247.996 479.28 247.876 479.4 247.876L479.64 248.236C479.52 248.356 479.28 248.476 478.92 248.476 478.44 248.476 478.2 248.236 478.2 247.876 478.2 247.516 478.44 247.396 478.68 247.276 479.04 247.276 479.16 247.276 479.16 247.156 479.16 247.036 479.16 247.036 479.04 247.036 479.04 246.916 479.04 246.916 478.92 246.916 478.8 246.916 478.68 246.916 478.68 247.036 478.56 247.036 478.44 247.156 478.44 247.156L478.08 246.796C478.32 246.556 478.56 246.436 478.92 246.436 479.4 246.436 479.64 246.676 479.64 247.156Z" fill-rule="evenodd"/><path transform="matrix(1,0,0,-1,0,595.276)" d="M465.12 241.156 463.32 239.356 465.12 237.556H466.92L465.72 238.756H470.4V239.956H465.72L466.92 241.156Z" fill-rule="evenodd"/><path transform="matrix(1,0,0,-1,0,595.276)" d="M463.32 234.916H464.28L464.04 234.676 463.8 234.436 463.56 234.196 463.2 233.956 463.44 233.716 463.92 234.076V232.636H464.16V234.076L464.64 233.716 464.76 233.956 464.52 234.196 464.28 234.436 464.52 234.676 464.76 235.036 464.64 235.156H464.16V235.636H464.28V235.756H464.16 464.04 463.92V235.156H463.32Z" fill-rule="evenodd"/><path transform="matrix(1,0,0,-1,0,595.276)" d="M464.76 235.516V233.116H464.64V232.876 232.756H464.76L465.6 233.116V233.476L465.12 233.236V234.316H465.48L465.6 233.836V233.476L465.72 233.116 465.96 232.876V232.756L466.08 232.636H466.2V232.756H466.32V232.876L466.44 233.116V233.236L466.2 233.476V233.236 233.116H466.08V233.236L465.96 233.476 465.84 233.716V234.076 234.316H466.32V234.676H465.84V235.276L466.08 235.396H466.2 466.32V235.516H466.2L466.08 235.756 465.48 235.516H465 464.76ZM465.12 234.676V235.156L465.48 235.276V234.676H465.12Z" fill-rule="evenodd"/><path transform="matrix(1,0,0,-1,0,595.276)" d="M467.88 234.796 468.12 235.036 467.88 235.276 467.64 235.396 467.4 235.276 467.64 235.036Z" fill-rule="evenodd"/><path transform="matrix(1,0,0,-1,0,595.276)" d="M467.4 233.116 467.52 232.876H467.64L467.76 232.996 467.88 233.476 468.12 233.836 468 234.076 467.64 233.596Z" fill-rule="evenodd"/><path transform="matrix(1,0,0,-1,0,595.276)" d="M467.88 234.436 468.12 234.316 468.48 234.676V232.636H468.72V232.876H470.4V233.236H469.68V233.596H470.28V233.836H469.68V234.196H470.28V234.436H469.68V234.796H470.4V235.036H469.68L469.8 235.396 469.92 235.516 469.8 235.636H469.56L469.32 235.036H468.72L468.96 235.516H469.08L468.96 235.636 468.72 235.756 468.6 235.396 468.36 235.036 468.12 234.796 467.88 234.436ZM468.72 233.836V234.196H469.32V233.836H468.72ZM468.72 234.436V234.796H469.32V234.436H468.72ZM468.72 233.236V233.596H469.32V233.236H468.72Z" fill-rule="evenodd"/><path transform="matrix(1,0,0,-1,0,595.276)" d="M455.28 230.356H456.6V230.236H455.76V229.276H456.6V229.036H455.4V228.796L455.52 228.676 455.64 228.796 457.08 228.916V228.676H455.16V228.316H456L456.24 228.196 456.36 227.956 456.6 228.076 456.36 228.316H457.08V228.196H457.2L457.08 228.076H456.96 456.6L456.72 227.716H457.08L457.2 227.836H457.44V227.956 228.196 228.316H458.28V228.676H457.44V228.916H457.68L457.92 228.676 458.16 228.916 457.68 229.276V230.236H456.84V230.356H458.28V230.596H456.84V230.716L456.96 230.836H456.84 456.6V230.596H455.28V230.356ZM456.84 229.156V229.276H457.32L457.44 229.156H456.84ZM456.84 229.876V229.996H457.44V229.876H456.84ZM456.84 229.516V229.636H457.44V229.516H456.84ZM456 229.876V229.996H456.6V229.876H456ZM456 229.516V229.636H456.6V229.516H456Z" fill-rule="evenodd"/><path transform="matrix(1,0,0,-1,0,595.276)" d="M459.36 230.596 459.6 230.236 460.08 230.356V229.876H459.36V229.636H459.96L459.84 229.276 459.72 229.036 459.48 228.796 459.24 228.556 459.6 228.316 459.84 228.676 460.08 229.156V227.836H460.44V229.036L460.8 228.556 461.04 228.796 460.8 228.916 460.68 229.156 460.56 229.396 460.44 229.636H460.92V229.876H460.44V230.476H460.56L460.8 230.596H460.92L460.68 230.836 460.32 230.716 460.08 230.596H459.72Z" fill-rule="evenodd"/><path transform="matrix(1,0,0,-1,0,595.276)" d="M461.16 228.436H461.52V230.356 230.476H461.4 461.16Z" fill-rule="evenodd"/><path transform="matrix(1,0,0,-1,0,595.276)" d="M461.4 228.076 461.52 227.836H461.76 462L462.12 227.956 462.24 228.076V228.316 230.596 230.716L462.12 230.836H461.88V228.436 228.316 228.196H461.76V228.076Z" fill-rule="evenodd"/><path transform="matrix(1,0,0,-1,0,595.276)" d="M463.44 230.716V228.196 228.076L463.56 227.956 463.68 227.836H463.8 465.72 465.84L465.96 227.956H466.08V228.076H466.2L466.32 228.316V228.436 228.556L465.96 228.676V228.436L465.84 228.316 465.72 228.196H465.6 463.92 463.8V228.316 229.396H465.6V229.156H465.96V230.716H463.44ZM463.8 229.756V230.476H464.52V229.756H463.8ZM464.76 229.756V230.476H465.6V229.756H464.76Z" fill-rule="evenodd"/><path transform="matrix(1,0,0,-1,0,595.276)" d="M468.96 230.836H468.72V229.876H467.4V229.516H468.72V228.316H467.64V228.076H470.16V228.316H469.08V229.516H470.4V229.876H469.08V230.716H469.2V230.836H469.08Z" fill-rule="evenodd"/><path transform="matrix(1,0,0,-1,0,595.276)" d="M471.36 229.516 471.6 229.276 471.84 229.516V227.836H472.08V230.116L472.32 230.596H472.44V230.716L472.08 230.836 471.96 230.476 471.72 230.116 471.6 229.756Z" fill-rule="evenodd"/><path transform="matrix(1,0,0,-1,0,595.276)" d="M472.44 230.476V230.236H473.28V229.876H472.44V228.916H472.8V229.036H473.16V228.796L473.04 228.556 472.8 228.916 472.56 228.796 472.8 228.556 472.92 228.316 472.68 228.196 472.2 228.076 472.44 227.836 472.8 227.956 473.16 228.196 473.4 227.956 473.76 227.836H474 474.36L474.48 228.076H474.24L473.88 228.196 473.64 228.316 473.4 228.436V228.676L473.52 229.036H474V228.796H474.24V229.876H473.52V230.236H474.36V230.476H473.52V230.716L473.64 230.836H473.52 473.28V230.476H472.44ZM473.52 229.636H474V229.276H473.52V229.636ZM472.8 229.276V229.636H473.28V229.276H472.8Z" fill-rule="evenodd"/><path transform="matrix(1,0,0,-1,0,595.276)" d="M475.92 230.716V229.756 229.156L475.8 228.676 475.68 228.316 475.44 228.076 475.8 227.836 475.92 228.076 476.04 228.316 476.16 228.556V228.796H476.88V227.956H477.24V228.796H477.96V228.316 228.196H477.84L477.72 228.076H477.48L477.6 227.836H477.72 477.96L478.2 227.956V228.076L478.32 228.196V230.716H475.92ZM476.28 229.996V230.476H476.88V229.996H476.28ZM476.88 229.156H476.28V229.636H476.88V229.156ZM477.24 229.996V230.476H477.96V229.996H477.24ZM477.24 229.156V229.636H477.96V229.156H477.24Z" fill-rule="evenodd"/></g></svg>