<?xml version='1.0' encoding='UTF-8'?>
<svg xmlns="http://www.w3.org/2000/svg" xmlns:xlink="http://www.w3.org/1999/xlink" xmlns:inkscape="http://www.inkscape.org/namespaces/inkscape" version="1.1" width="566.700" height="269.280" viewBox="0 0 566.700 269.280"><g transform="scale(10.0) translate(-602.205, -74.160)"><defs><clipPath id="clip_19"><path transform="matrix(0,1,1,0,0,0)" d="M0 19.875H595.008V822.117H0Z"/></clipPath><clipPath id="clip_20"><path transform="matrix(0,1,1,0,0,0)" d="M0 842.013H595.224V.008972168H0Z"/></clipPath></defs><path transform="matrix(0,1,1,0,642.081,75.474)" d="M0 0V-22.68C0-22.896 .054-23.13 .144-23.364 .234-23.598 .378-23.814 .558-24.012 .738-24.192 .972-24.336 1.206-24.426 1.44-24.516 1.674-24.57 1.89-24.57H22.68C22.914-24.57 23.148-24.516 23.382-24.426 23.616-24.336 23.832-24.192 24.012-24.012 24.21-23.814 24.354-23.598 24.444-23.364 24.534-23.13 24.57-22.896 24.57-22.68V0C24.57 .234 24.534 .468 24.444 .702 24.354 .936 24.21 1.152 24.012 1.332 23.832 1.53 23.616 1.674 23.382 1.764 23.148 1.854 22.914 1.89 22.68 1.89H1.89C1.386 1.89 .918 1.692 .558 1.332 .198 .99 0 .504 0 0" fill="#0000ff" fill-rule="evenodd"/><path transform="matrix(0,1,1,0,630.741,96.264)" d="M0 0C-.144 .576-.342 1.134-.576 1.692-.828 2.25-1.116 2.79-1.458 3.33-2.16 4.392-3.024 5.346-4.068 6.138-5.094 6.93-6.246 7.542-7.434 7.938-8.046 8.136-8.64 8.28-9.252 8.37-9.846 8.46-10.44 8.514-11.016 8.514H-17.01V-8.496H-11.016C-10.44-8.496-9.846-8.46-9.252-8.352-8.64-8.262-8.046-8.118-7.434-7.92-6.246-7.524-5.094-6.912-4.068-6.12-3.024-5.328-2.16-4.374-1.458-3.312-1.116-2.772-.828-2.232-.576-1.674-.342-1.116-.144-.558 0 0" fill="#ffff00" fill-rule="evenodd"/><path transform="matrix(0,1,1,0,628.671,92.484)" d="M0 0V2.34L-8.424 5.742H-10.584V-1.746H-8.424V3.42" fill-rule="evenodd"/></g></svg>