<?xml version='1.0' encoding='UTF-8'?>
<svg xmlns="http://www.w3.org/2000/svg" xmlns:xlink="http://www.w3.org/1999/xlink" xmlns:inkscape="http://www.inkscape.org/namespaces/inkscape" version="1.1" width="566.700" height="269.280" viewBox="0 0 566.700 269.280"><g transform="scale(10.0) translate(-56.655, -505.008)"><defs><clipPath id="clip_19"><path transform="matrix(0,1,1,0,0,0)" d="M0 19.875H595.008V822.117H0Z"/></clipPath><clipPath id="clip_20"><path transform="matrix(0,1,1,0,0,0)" d="M0 842.013H595.224V.008972168H0Z"/></clipPath></defs><path transform="matrix(0,1,1,0,98.607,528.03)" d="M0 0-20.664-11.916C-20.934-12.078-21.168-12.294-21.33-12.582-21.492-12.87-21.582-13.194-21.582-13.5-21.582-13.806-21.492-14.112-21.33-14.4-21.168-14.688-20.934-14.922-20.664-15.066L0-27C.558-27.324 1.242-27.324 1.818-27 2.088-26.856 2.322-26.622 2.484-26.334 2.646-26.046 2.718-25.74 2.718-25.416V-1.566C2.718-.918 2.376-.324 1.818 0 1.242 .342 .558 .342 0 0" fill="#ff0000" fill-rule="evenodd"/><path transform="matrix(0,1,1,0,95.979,528.318)" d="M0 0-18.828-10.872 0-21.744" fill="#ffffff" fill-rule="evenodd"/><path transform="matrix(0,1,1,0,87.951,520.632)" d="M0 0 1.206-1.224H2.43L1.62-.414H7.29V.396H1.62L2.43 1.206H1.206" fill-rule="evenodd"/><path transform="matrix(0,1,1,0,90.777,520.632)" d="M0 0 1.206 1.224H2.43L1.62 .414H7.29V-.396H1.62L2.43-1.206H1.206" fill-rule="evenodd"/><path transform="matrix(0,1,1,0,82.281,520.632)" d="M0 0 1.206 1.206H2.43L1.62 .396H7.29V-.414H1.62L2.43-1.224H1.206" fill-rule="evenodd"/><path transform="matrix(0,1,1,0,79.437,520.632)" d="M0 0 1.206-1.206H2.43L1.62-.396H7.29V.414H1.62L2.43 1.224H1.206" fill-rule="evenodd"/><path transform="matrix(0,1,1,0,0,0)" d="M524.484 84.711H527.922V85.520999H524.484Z"/><path transform="matrix(0,1,1,0,0,0)" d="M523.098 83.901H524.322V86.331H523.098Z" fill="#ff0000"/></g></svg>