<?xml version='1.0' encoding='UTF-8'?>
<svg xmlns="http://www.w3.org/2000/svg" xmlns:xlink="http://www.w3.org/1999/xlink" xmlns:inkscape="http://www.inkscape.org/namespaces/inkscape" version="1.1" width="566.700" height="269.280" viewBox="0 0 566.700 269.280"><g transform="scale(10.0) translate(-56.655, -289.584)"><defs><clipPath id="clip_19"><path transform="matrix(0,1,1,0,0,0)" d="M0 19.875H595.008V822.117H0Z"/></clipPath><clipPath id="clip_20"><path transform="matrix(0,1,1,0,0,0)" d="M0 842.013H595.224V.008972168H0Z"/></clipPath></defs><path transform="matrix(0,1,1,0,102.297,290.574)" d="M0 0C0 .288 .036 .594 .162 .882 .288 1.188 .468 1.458 .702 1.71 .936 1.944 1.206 2.124 1.512 2.232 1.818 2.358 2.106 2.412 2.394 2.412H22.824C23.112 2.412 23.4 2.358 23.706 2.232 24.012 2.124 24.282 1.944 24.516 1.71 24.75 1.458 24.93 1.188 25.056 .882 25.182 .594 25.218 .288 25.218 0V-34.38C25.218-34.668 25.182-34.956 25.056-35.262 24.93-35.568 24.75-35.838 24.516-36.072 24.282-36.306 24.012-36.486 23.706-36.612 23.4-36.738 23.112-36.774 22.824-36.774H2.394C2.106-36.774 1.818-36.738 1.512-36.612 1.206-36.486 .936-36.306 .702-36.072 .468-35.838 .288-35.568 .162-35.262 .036-34.956 0-34.668 0-34.38V0" fill="#ffffff" fill-rule="evenodd"/><path transform="matrix(0,1,1,0,71.211,291.762)" d="M0 0V31.086C0 31.23 .036 31.374 .09 31.536 .144 31.68 .234 31.824 .36 31.932 .486 32.058 .612 32.148 .774 32.202 .918 32.274 1.062 32.292 1.206 32.292H21.636C21.78 32.292 21.924 32.274 22.068 32.202 22.23 32.148 22.356 32.058 22.482 31.932 22.608 31.824 22.698 31.68 22.752 31.536 22.806 31.374 22.842 31.23 22.842 31.086V12.492H15.3V11.286L22.842 3.762V-3.294C22.842-3.438 22.806-3.582 22.752-3.726 22.698-3.888 22.608-4.014 22.482-4.14 22.356-4.266 22.23-4.356 22.068-4.41 21.924-4.464 21.78-4.5 21.636-4.5H15.12L12.51-1.89C11.934-1.314 11.214-.828 10.422-.504 9.63-.162 8.784 0 7.956 0H0" fill="#00ff00" fill-rule="evenodd"/><path transform="matrix(0,1,1,0,98.211,293.526)" d="M0 0 3.222-3.204H6.444L4.284-1.062H19.314V1.08H4.284L6.444 3.222H3.222" fill="#ffffff" fill-rule="evenodd"/><path transform="matrix(0,1,1,0,92.577,296.748)" d="M0 0-3.222-3.222 0-6.444H3.222L1.062-4.302H16.092V-2.16H1.062L3.222 0" fill="#ffffff" fill-rule="evenodd"/><path transform="matrix(0,1,1,0,0,0)" d="M293.778 82.497H298.60203V83.703H293.778Z" fill="#ffffff"/><path transform="matrix(0,1,1,0,0,0)" d="M301.032 82.497H305.85603V83.703H301.032Z" fill="#ffffff"/><path transform="matrix(0,1,1,0,75.729,307.368)" d="M0 0 5.418-5.418 3.888-6.93-1.512-1.53C-1.998-1.026-2.592-.63-3.258-.36-3.924-.09-4.626 .054-5.31 .054H-9.558L-7.398-2.088H-10.62L-13.842 1.116-10.62 4.338H-7.398L-9.558 2.196H-5.31C-4.338 2.196-3.366 2.016-2.43 1.62-1.512 1.242-.684 .684 0 0" fill="#ffffff" fill-rule="evenodd"/><path transform="matrix(0,1,1,0,102.297,315.792)" stroke-width=".144" stroke-linecap="round" stroke-linejoin="round" fill="none" stroke="#00ff00" d="M0 0C0 1.332-1.062 2.412-2.394 2.412"/><path transform="matrix(0,1,1,0,67.91699,315.792)" stroke-width=".144" stroke-linecap="round" stroke-linejoin="round" fill="none" stroke="#00ff00" d="M0 0V34.38"/><path transform="matrix(0,1,1,0,65.522998,313.39799)" stroke-width=".144" stroke-linecap="round" stroke-linejoin="round" fill="none" stroke="#00ff00" d="M0 0C1.332 0 2.394 1.062 2.394 2.394"/><path transform="matrix(0,1,1,0,65.523,292.968)" stroke-width=".144" stroke-linecap="round" stroke-linejoin="round" fill="none" stroke="#00ff00" d="M0 0H20.43"/><path transform="matrix(0,1,1,0,67.917,290.574)" stroke-width=".144" stroke-linecap="round" stroke-linejoin="round" fill="none" stroke="#00ff00" d="M0 0C0-1.332 1.062-2.394 2.394-2.394"/><path transform="matrix(0,1,1,0,102.297,290.574)" stroke-width=".144" stroke-linecap="round" stroke-linejoin="round" fill="none" stroke="#00ff00" d="M0 0V-34.38"/><path transform="matrix(0,1,1,0,104.709,292.96803)" stroke-width=".144" stroke-linecap="round" stroke-linejoin="round" fill="none" stroke="#00ff00" d="M0 0C-1.332 0-2.394-1.08-2.394-2.412"/><path transform="matrix(0,1,1,0,104.709,313.398)" stroke-width=".144" stroke-linecap="round" stroke-linejoin="round" fill="none" stroke="#00ff00" d="M0 0H-20.43"/></g></svg>