<?xml version='1.0' encoding='UTF-8'?>
<svg xmlns="http://www.w3.org/2000/svg" xmlns:xlink="http://www.w3.org/1999/xlink" xmlns:inkscape="http://www.inkscape.org/namespaces/inkscape" version="1.1" width="567.000" height="269.280" viewBox="0 0 567.000 269.280"><g transform="scale(10.0) translate(-329.439, -128.016)"><defs><clipPath id="clip_2"><path transform="matrix(1,0,0,-1,0,595.276)" d="M74.4 .196H767.4V595.276H74.4Z"/></clipPath></defs><path transform="matrix(1,0,0,-1,0,595.276)" d="M370.32 453.676C370.32 455.116 370.08 456.676 369.36 458.236 369.12 459.076 368.76 459.796 368.28 460.516 367.8 461.236 367.2 461.956 366.6 462.556 366 463.156 365.4 463.636 364.68 464.116 363.96 464.596 363.12 464.956 362.4 465.316 360.84 465.916 359.28 466.156 357.84 466.156 356.28 466.156 354.72 465.916 353.16 465.316 352.44 464.956 351.72 464.596 351 464.116 350.28 463.636 349.56 463.156 348.96 462.556 348.36 461.956 347.76 461.236 347.28 460.516 346.8 459.796 346.44 459.076 346.2 458.236 345.6 456.676 345.24 455.116 345.24 453.676 345.24 452.236 345.6 450.676 346.2 449.116 346.44 448.276 346.8 447.556 347.28 446.836 347.76 446.116 348.36 445.396 348.96 444.796 349.56 444.196 350.28 443.716 351 443.236 351.72 442.756 352.44 442.396 353.16 442.036 354.72 441.436 356.28 441.196 357.84 441.196 359.28 441.196 360.84 441.436 362.4 442.036 363.12 442.396 363.96 442.756 364.68 443.236 365.4 443.716 366 444.196 366.6 444.796 367.2 445.396 367.8 446.116 368.28 446.836 368.76 447.556 369.12 448.276 369.36 449.116 370.08 450.676 370.32 452.236 370.32 453.676ZM369.84 453.676C369.84 452.236 369.48 450.796 369 449.236 368.4 447.796 367.44 446.356 366.24 445.156 365.04 443.956 363.72 443.116 362.16 442.516 360.72 441.916 359.16 441.676 357.84 441.676 356.4 441.676 354.84 441.916 353.4 442.516 351.84 443.116 350.52 443.956 349.32 445.156 348.12 446.356 347.28 447.796 346.68 449.236 346.08 450.796 345.84 452.236 345.84 453.676 345.84 455.116 346.08 456.556 346.68 458.116 347.28 459.556 348.12 460.996 349.32 462.196 350.52 463.396 351.84 464.236 353.4 464.836 354.84 465.436 356.4 465.676 357.84 465.676 359.16 465.676 360.72 465.436 362.16 464.836 363.72 464.236 365.04 463.396 366.24 462.196 367.44 460.996 368.4 459.556 369 458.116 369.48 456.556 369.84 455.116 369.84 453.676Z" fill-rule="evenodd"/><path transform="matrix(1,0,0,-1,0,595.276)" d="M369.84 453.676C369.84 456.796 368.52 459.916 366.24 462.196 364.08 464.356 360.96 465.676 357.84 465.676 354.6 465.676 351.6 464.356 349.32 462.196 347.04 459.916 345.84 456.796 345.84 453.676 345.84 450.436 347.04 447.436 349.32 445.156 351.6 442.876 354.6 441.676 357.84 441.676 360.96 441.676 364.08 442.876 366.24 445.156 368.52 447.436 369.84 450.436 369.84 453.676Z" fill="#ffff00" fill-rule="evenodd"/><path transform="matrix(1,0,0,-1,0,595.276)" d="M351.72 447.436C353.04 447.436 354.24 447.796 355.08 448.516 355.92 449.236 356.28 450.196 356.28 451.276 356.28 452.356 355.8 453.436 354.84 453.916H354.72C355.56 454.396 355.92 455.236 355.92 456.316 355.92 457.516 355.56 458.356 354.84 458.956 354.12 459.556 353.04 459.916 351.72 459.916 350.4 459.916 349.32 459.556 348.6 458.956 347.88 458.356 347.52 457.516 347.52 456.316 347.52 455.236 348 454.396 348.72 453.916 347.76 453.436 347.16 452.356 347.16 451.276 347.16 450.196 347.64 449.236 348.48 448.516 349.32 447.796 350.52 447.436 351.72 447.436ZM351.72 452.836C352.92 452.836 353.64 452.236 353.64 451.276 353.64 450.316 352.92 449.596 351.72 449.716 350.52 449.596 349.8 450.316 349.8 451.276 349.8 452.236 350.52 452.836 351.72 452.836ZM353.4 456.316C353.4 455.956 353.28 455.596 353.04 455.356 352.68 455.116 352.32 454.996 351.72 454.996 351.24 454.996 350.76 455.116 350.52 455.356 350.16 455.596 350.04 455.956 350.04 456.316 350.04 457.156 350.64 457.636 351.72 457.636 352.8 457.636 353.4 457.156 353.4 456.316Z" fill-rule="evenodd"/><path transform="matrix(1,0,0,-1,0,595.276)" d="M368.64 453.676C368.64 455.716 368.28 457.276 367.44 458.356 366.48 459.436 365.28 459.916 363.6 459.916 361.8 459.916 360.6 459.436 359.64 458.356 358.8 457.276 358.44 455.716 358.44 453.676 358.44 449.476 360.12 447.436 363.6 447.436 365.28 447.436 366.48 447.916 367.44 448.996 368.28 450.076 368.64 451.636 368.64 453.676ZM366.12 453.676C366.12 451.036 365.28 449.716 363.6 449.716 362.64 449.716 362.04 449.956 361.56 450.676 361.08 451.396 360.96 452.356 360.96 453.676 360.96 456.316 361.8 457.636 363.6 457.636 365.28 457.636 366.12 456.316 366.12 453.676Z" fill-rule="evenodd"/></g></svg>