<?xml version='1.0' encoding='UTF-8'?>
<svg xmlns="http://www.w3.org/2000/svg" xmlns:xlink="http://www.w3.org/1999/xlink" xmlns:inkscape="http://www.inkscape.org/namespaces/inkscape" version="1.1" width="566.700" height="269.280" viewBox="0 0 566.700 269.280"><g transform="scale(10.0) translate(-165.765, -397.296)"><defs><clipPath id="clip_19"><path transform="matrix(0,1,1,0,0,0)" d="M0 19.875H595.008V822.117H0Z"/></clipPath><clipPath id="clip_20"><path transform="matrix(0,1,1,0,0,0)" d="M0 842.013H595.224V.008972168H0Z"/></clipPath></defs><path transform="matrix(0,1,1,0,179.373,423.774)" d="M0 0V29.718C0 29.916-.036 30.114-.108 30.312-.18 30.51-.306 30.708-.468 30.852-.63 31.014-.81 31.14-1.008 31.212-1.206 31.302-1.404 31.32-1.602 31.32H-24.156C-24.354 31.32-24.552 31.302-24.75 31.212-24.948 31.14-25.146 31.014-25.29 30.852-25.452 30.708-25.578 30.51-25.65 30.312-25.74 30.114-25.758 29.916-25.758 29.718V0C-25.758-.18-25.74-.378-25.65-.576-25.578-.792-25.452-.972-25.29-1.134-25.146-1.278-24.948-1.404-24.75-1.494-24.552-1.566-24.354-1.602-24.156-1.602H-1.602C-1.404-1.602-1.206-1.566-1.008-1.494-.81-1.404-.63-1.278-.468-1.134-.306-.972-.18-.792-.108-.576-.036-.378 0-.18 0 0" fill="#ffffff" fill-rule="evenodd"/><path transform="matrix(0,1,1,0,182.217,398.808)" d="M0 0V26.874C0 26.982 .018 27.072 .054 27.18 .09 27.27 .162 27.36 .234 27.45 .324 27.522 .414 27.594 .504 27.63 .612 27.666 .702 27.684 .81 27.684H23.364C23.562 27.684 23.778 27.612 23.94 27.45 24.012 27.36 24.066 27.27 24.102 27.18 24.156 27.072 24.174 26.982 24.174 26.874V14.238H15.084V13.446L24.174 4.356V-2.844C24.174-2.934 24.156-3.042 24.102-3.132 24.066-3.24 24.012-3.33 23.94-3.402 23.85-3.492 23.76-3.546 23.652-3.582 23.562-3.618 23.454-3.636 23.364-3.636H8.622L6.246-1.26C5.85-.864 5.382-.558 4.86-.324 4.32-.108 3.762 0 3.204 0H0" fill="#00ff00" fill-rule="evenodd"/><path transform="matrix(0,1,1,0,206.139,400.158)" d="M0 0 2.142-2.16H4.284L2.862-.72H21.474V.702H2.862L4.284 2.142H2.142" fill="#ffffff" fill-rule="evenodd"/><path transform="matrix(0,1,1,0,200.217,400.158)" d="M0 0 2.142-2.142H4.284L2.862-.72H21.474V.72H2.862L4.284 2.16H2.142" fill="#ffffff" fill-rule="evenodd"/><path transform="matrix(0,1,1,0,0,0)" d="M400.194 195.663H403.416V196.455H400.194Z" fill="#ffffff"/><path transform="matrix(0,1,1,0,0,0)" d="M405.036 195.663H408.258V196.455H405.036Z" fill="#ffffff"/><path transform="matrix(0,1,1,0,0,0)" d="M409.878 195.663H413.09999V196.455H409.878Z" fill="#ffffff"/><path transform="matrix(0,1,1,0,192.603,408.294)" d="M0 0C.648 0 1.296-.126 1.908-.378 2.538-.63 3.078-1.008 3.546-1.458L13.464-11.394 12.456-12.402 2.52-2.484C2.196-2.16 1.818-1.89 1.368-1.71 .918-1.512 .45-1.422 0-1.422H-5.274L-3.852-2.862H-5.994L-8.136-.72-5.994 1.44H-3.852L-5.274 0H0" fill="#ffffff" fill-rule="evenodd"/><path transform="matrix(0,1,1,0,185.223,409.392)" d="M0 0 4.014-4.014 3.006-5.022-1.026-1.008C-1.35-.684-1.728-.414-2.178-.234-2.628-.054-3.096 .036-3.546 .036H-6.372L-4.95-1.386H-7.092L-9.234 .756-7.092 2.898H-4.95L-6.372 1.476H-3.546C-2.898 1.476-2.25 1.35-1.638 1.098-1.008 .828-.468 .45 0 0" fill="#ffffff" fill-rule="evenodd"/><path transform="matrix(0,1,1,0,179.373,398.016)" stroke-width=".144" stroke-linecap="round" stroke-linejoin="round" fill="none" stroke="#00ff00" d="M0 0V29.718"/><path transform="matrix(0,1,1,0,177.771,399.61799)" stroke-width=".144" stroke-linecap="round" stroke-linejoin="round" fill="none" stroke="#00ff00" d="M0 0C-.9 0-1.602 .72-1.602 1.602"/><path transform="matrix(0,1,1,0,177.771,422.172)" stroke-width=".144" stroke-linecap="round" stroke-linejoin="round" fill="none" stroke="#00ff00" d="M0 0H-22.554"/><path transform="matrix(0,1,1,0,179.373,423.774)" stroke-width=".144" stroke-linecap="round" stroke-linejoin="round" fill="none" stroke="#00ff00" d="M0 0C0-.882-.72-1.602-1.602-1.602"/><path transform="matrix(0,1,1,0,209.091,423.774)" stroke-width=".144" stroke-linecap="round" stroke-linejoin="round" fill="none" stroke="#00ff00" d="M0 0V-29.718"/><path transform="matrix(0,1,1,0,210.69301,422.172)" stroke-width=".144" stroke-linecap="round" stroke-linejoin="round" fill="none" stroke="#00ff00" d="M0 0C.882 0 1.602-.702 1.602-1.602"/><path transform="matrix(0,1,1,0,210.69301,399.61799)" stroke-width=".144" stroke-linecap="round" stroke-linejoin="round" fill="none" stroke="#00ff00" d="M0 0H22.554"/><path transform="matrix(0,1,1,0,209.091,398.016)" stroke-width=".144" stroke-linecap="round" stroke-linejoin="round" fill="none" stroke="#00ff00" d="M0 0C0 .9 .702 1.602 1.602 1.602"/></g></svg>