<?xml version='1.0' encoding='UTF-8'?>
<svg xmlns="http://www.w3.org/2000/svg" xmlns:xlink="http://www.w3.org/1999/xlink" xmlns:inkscape="http://www.inkscape.org/namespaces/inkscape" version="1.1" width="567.000" height="269.280" viewBox="0 0 567.000 269.280"><g transform="scale(10.0) translate(-220.305, -505.008)"><defs><clipPath id="clip_2"><path transform="matrix(1,0,0,-1,0,595.276)" d="M74.4 .196H767.4V595.276H74.4Z"/></clipPath></defs><path transform="matrix(1,0,0,-1,0,595.276)" d="M268.08 64.036H229.32C229.08 64.036 228.84 64.156 228.6 64.276 228.36 64.276 228.12 64.516 227.88 64.636 227.76 64.876 227.52 65.116 227.4 65.356 227.4 65.596 227.28 65.836 227.28 66.076V87.436C227.28 87.916 227.52 88.516 227.88 88.876 228.36 89.356 228.84 89.476 229.32 89.476H268.08C268.56 89.476 269.04 89.356 269.52 88.876 269.88 88.516 270.12 87.916 270.12 87.436V66.076C270.12 65.596 269.88 65.116 269.52 64.636 269.04 64.276 268.56 64.036 268.08 64.036Z" fill="#ffffff" fill-rule="evenodd"/><path transform="matrix(1,0,0,-1,0,595.276)" d="M268.08 88.516H229.32C229.2 88.516 229.08 88.396 228.96 88.396 228.84 88.396 228.72 88.276 228.6 88.156 228.48 88.036 228.48 87.916 228.36 87.796 228.36 87.676 228.36 87.556 228.36 87.436V66.076C228.36 65.836 228.36 65.596 228.6 65.356 228.72 65.356 228.84 65.236 228.96 65.236 229.08 65.116 229.2 65.116 229.32 65.116H268.08C268.32 65.116 268.56 65.236 268.8 65.356 268.92 65.596 269.04 65.836 269.04 66.076V87.436C269.04 87.676 268.92 87.916 268.8 88.156 268.56 88.396 268.32 88.516 268.08 88.516Z" fill="#0000ff" fill-rule="evenodd"/><path transform="matrix(1,0,0,-1,0,595.276)" d="M266.4 68.596 263.52 67.996H262.8V68.116C262.8 68.356 262.68 68.716 262.56 68.836 262.32 69.076 262.08 69.196 261.84 69.196 261.6 69.196 261.36 69.076 261.12 68.836 260.88 68.716 260.76 68.356 260.76 68.116V67.996H257.04V68.116C257.04 68.356 256.92 68.716 256.68 68.836 256.56 69.076 256.2 69.196 255.96 69.196 255.72 69.196 255.48 69.076 255.24 68.836 255.12 68.716 255 68.356 255 68.116V67.996H252.36C252.24 67.996 252.24 67.996 252.12 68.116 252 68.116 252 68.236 252 68.356V69.196C252 69.316 252 69.436 252 69.436L252.36 70.636 252.72 73.876C252.72 73.876 252.72 73.996 252.84 74.116 252.84 74.116 252.96 74.236 253.08 74.236H265.68C265.8 74.236 266.04 74.116 266.16 73.996 266.28 73.876 266.28 73.756 266.4 73.636 266.4 73.516 266.4 73.516 266.4 73.396V68.596ZM264 71.356V70.156H266.04V71.356H264ZM261.84 71.356V70.156H263.64V71.356H261.84ZM259.56 71.356V70.156H261.36V71.356H259.56ZM257.4 71.356V70.156H259.2V71.356H257.4ZM255.24 70.156H257.04V71.356H255.24V70.156ZM253.56 68.356H254.76V71.356H253.56V68.356ZM252.6 70.396H253.2V71.356H252.6V70.396ZM252.96 72.556H254.76V73.756H253.08L252.96 72.556ZM255.24 72.556H257.04V73.756H255.24V72.556ZM257.4 72.556H259.2V73.756H257.4V72.556ZM259.56 72.556H261.36V73.756H259.56V72.556ZM263.64 72.556V73.756H261.84V72.556H263.64ZM264 73.756V73.756ZM264 73.756V72.556H266.04V73.396C266.04 73.516 266.04 73.636 265.92 73.636 265.92 73.756 265.8 73.756 265.8 73.756H265.68 264Z" fill="#ffffff" fill-rule="evenodd"/><path transform="matrix(1,0,0,-1,0,595.276)" d="M262.68 68.116C262.68 68.596 262.32 68.956 261.84 68.956 261.36 68.956 261 68.596 261 68.116 261 67.756 261.36 67.396 261.84 67.396 262.32 67.396 262.68 67.756 262.68 68.116ZM262.2 68.116C262.2 67.996 262.08 67.756 261.84 67.756 261.72 67.756 261.6 67.756 261.48 67.876 261.48 67.996 261.36 68.116 261.36 68.116 261.36 68.236 261.48 68.356 261.48 68.476 261.6 68.476 261.72 68.596 261.84 68.596 262.08 68.596 262.2 68.356 262.2 68.116Z" fill="#ffffff" fill-rule="evenodd"/><path transform="matrix(1,0,0,-1,0,595.276)" d="M256.8 68.116C256.8 68.596 256.44 68.956 255.96 68.956 255.6 68.956 255.24 68.596 255.24 68.116 255.24 67.756 255.6 67.396 255.96 67.396 256.44 67.396 256.8 67.756 256.8 68.116ZM256.44 68.116C256.44 67.996 256.2 67.756 255.96 67.756 255.96 67.756 255.84 67.756 255.72 67.876 255.6 67.996 255.6 68.116 255.6 68.116 255.6 68.236 255.6 68.356 255.72 68.476 255.84 68.476 255.96 68.596 255.96 68.596 256.2 68.596 256.44 68.356 256.44 68.116Z" fill="#ffffff" fill-rule="evenodd"/><path transform="matrix(1,0,0,-1,0,595.276)" d="M256.56 83.716V81.076L258.36 82.876V75.676H260.16V82.876L261.84 81.076V83.716L259.2 86.356Z" fill="#ffffff" fill-rule="evenodd"/><path transform="matrix(1,0,0,-1,0,595.276)" d="M249.36 87.076H248.04V66.436H249.36Z" fill="#ffffff" fill-rule="evenodd"/><path transform="matrix(1,0,0,-1,0,595.276)" d="M235.44 80.836V78.076L237.24 79.876V70.156H239.04V79.876L240.84 78.076V80.836L238.2 83.476Z" fill="#ffffff" fill-rule="evenodd"/><path transform="matrix(1,0,0,-1,0,595.276)" stroke-width=".12" stroke-linecap="round" stroke-linejoin="round" fill="none" stroke="#0000ff" d="M270.12 66.076V87.436C270.12 88.636 269.16 89.476 268.08 89.476H229.32C228.24 89.476 227.28 88.636 227.28 87.436V66.076C227.28 64.996 228.24 64.036 229.32 64.036H268.08C269.16 64.036 270.12 64.996 270.12 66.076"/></g></svg>