<?xml version='1.0' encoding='UTF-8'?>
<svg xmlns="http://www.w3.org/2000/svg" xmlns:xlink="http://www.w3.org/1999/xlink" xmlns:inkscape="http://www.inkscape.org/namespaces/inkscape" version="1.1" width="567.000" height="269.280" viewBox="0 0 567.000 269.280"><g transform="scale(10.0) translate(-438.573, -262.656)"><defs><clipPath id="clip_2"><path transform="matrix(1,0,0,-1,0,595.276)" d="M74.4 .196H767.4V595.276H74.4Z"/></clipPath></defs><path transform="matrix(1,0,0,-1,0,595.276)" d="M447.48 306.316H486.24C486.48 306.316 486.72 306.436 486.96 306.556 487.2 306.556 487.44 306.796 487.68 306.916 487.92 307.156 488.04 307.396 488.16 307.636 488.28 307.876 488.28 308.116 488.28 308.356V329.716C488.28 330.196 488.04 330.796 487.68 331.156 487.44 331.396 487.2 331.516 486.96 331.636 486.72 331.756 486.48 331.756 486.24 331.756H447.48C447 331.756 446.52 331.636 446.04 331.156 445.92 330.916 445.8 330.796 445.68 330.436 445.56 330.196 445.56 329.956 445.56 329.716V308.356C445.56 307.276 446.4 306.316 447.48 306.316Z" fill="#ffffff" fill-rule="evenodd"/><path transform="matrix(1,0,0,-1,0,595.276)" d="M447.48 330.796H486.24C486.48 330.796 486.72 330.676 486.96 330.436 487.2 330.196 487.2 329.956 487.2 329.716V308.356C487.2 308.116 487.2 307.876 486.96 307.636 486.72 307.516 486.48 307.396 486.24 307.396H447.48C447.36 307.396 447.24 307.396 447.12 307.516 447 307.516 446.88 307.636 446.76 307.636 446.76 307.756 446.64 307.876 446.64 307.996 446.52 308.116 446.52 308.236 446.52 308.356V329.716C446.52 330.316 447 330.796 447.48 330.796Z" fill="#0000ff" fill-rule="evenodd"/><path transform="matrix(1,0,0,-1,0,595.276)" d="M466.2 329.356H467.52V308.716H466.2Z" fill="#ffffff" fill-rule="evenodd"/><path transform="matrix(1,0,0,-1,0,595.276)" d="M459.96 310.276V310.516C459.96 310.636 459.96 310.756 459.84 310.876 459.84 310.996 459.72 311.116 459.72 311.236 459.48 311.476 459.24 311.476 459 311.476 458.76 311.476 458.4 311.476 458.28 311.236 458.04 310.996 457.92 310.756 457.92 310.516V310.276H454.2V310.516C454.2 310.636 454.08 310.756 454.08 310.876 454.08 310.996 453.96 311.116 453.84 311.236 453.6 311.476 453.36 311.476 453.12 311.476 452.88 311.476 452.64 311.476 452.4 311.236 452.28 310.996 452.16 310.756 452.16 310.516V310.276H449.52C449.4 310.276 449.28 310.396 449.28 310.396 449.16 310.516 449.16 310.636 449.16 310.756V311.596C449.16 311.716 449.16 311.716 449.16 311.836L449.52 312.916 449.76 316.156C449.88 316.276 449.88 316.396 450 316.396 450 316.516 450.12 316.516 450.24 316.516H462.72C462.96 316.516 463.2 316.516 463.32 316.276 463.56 316.156 463.56 315.916 463.56 315.676V310.876L460.68 310.276H459.96ZM461.16 313.756V312.556H463.2V313.756H461.16ZM459 313.756V312.556H460.8V313.756H459ZM456.72 313.756V312.556H458.52V313.756H456.72ZM454.56 313.756V312.556H456.36V313.756H454.56ZM452.4 312.556H454.2V313.756H452.4V312.556ZM450.72 310.756H451.92V313.756H450.72V310.756ZM449.64 312.676H450.36V313.756H449.76L449.64 312.676ZM450.12 314.956H451.92V316.156H450.24L450.12 314.956ZM452.4 314.956H454.2V316.156H452.4V314.956ZM454.56 314.956H456.36V316.156H454.56V314.956ZM456.72 314.956H458.52V316.156H456.72V314.956ZM460.8 314.956V316.156H459V314.956H460.8ZM463.2 314.956V314.956ZM463.2 314.956V315.676C463.2 315.796 463.08 315.916 463.08 316.036 462.96 316.036 462.84 316.156 462.72 316.156H461.16V314.956H463.2Z" fill="#ffffff" fill-rule="evenodd"/><path transform="matrix(1,0,0,-1,0,595.276)" d="M459.96 310.276V310.276Z" fill="#ffffff" fill-rule="evenodd"/><path transform="matrix(1,0,0,-1,0,595.276)" d="M454.2 310.276V310.276Z" fill="#ffffff" fill-rule="evenodd"/><path transform="matrix(1,0,0,-1,0,595.276)" d="M459.72 310.516C459.72 310.996 459.36 311.356 459 311.356 458.52 311.356 458.16 310.996 458.16 310.516 458.16 310.036 458.52 309.676 459 309.676 459.36 309.676 459.72 310.036 459.72 310.516ZM459.36 310.516C459.36 310.276 459.24 310.156 459 310.156 458.88 310.156 458.76 310.156 458.64 310.276 458.64 310.276 458.52 310.396 458.52 310.516 458.52 310.636 458.64 310.756 458.64 310.756 458.76 310.876 458.88 310.876 459 310.876 459.24 310.876 459.36 310.756 459.36 310.516Z" fill="#ffffff" fill-rule="evenodd"/><path transform="matrix(1,0,0,-1,0,595.276)" d="M453.96 310.516C453.96 310.996 453.6 311.356 453.12 311.356 452.76 311.356 452.4 310.996 452.4 310.516 452.4 310.036 452.76 309.676 453.12 309.676 453.6 309.676 453.96 310.036 453.96 310.516ZM453.6 310.516C453.6 310.276 453.36 310.156 453.12 310.156 453 310.156 453 310.156 452.88 310.276 452.76 310.276 452.76 310.396 452.76 310.516 452.76 310.636 452.76 310.756 452.88 310.756 453 310.876 453 310.876 453.12 310.876 453.36 310.876 453.6 310.756 453.6 310.516Z" fill="#ffffff" fill-rule="evenodd"/><path transform="matrix(1,0,0,-1,0,595.276)" d="M476.88 329.716H477.96V324.436H476.88Z" fill="#ffffff" fill-rule="evenodd"/><path transform="matrix(1,0,0,-1,0,595.276)" d="M476.88 321.796H477.96V316.396H476.88Z" fill="#ffffff" fill-rule="evenodd"/><path transform="matrix(1,0,0,-1,0,595.276)" d="M476.88 313.756H477.96V308.356H476.88Z" fill="#ffffff" fill-rule="evenodd"/><path transform="matrix(1,0,0,-1,0,595.276)" d="M485.28 323.116V320.356L483.48 322.156V312.436H481.68V322.156L479.88 320.356V323.116L482.64 325.756Z" fill="#ffffff" fill-rule="evenodd"/><path transform="matrix(1,0,0,-1,0,595.276)" d="M474.84 323.116V320.356L473.04 322.156V312.436H471.36V322.156L469.56 320.356V323.116L472.2 325.756Z" fill="#ffffff" fill-rule="evenodd"/><path transform="matrix(1,0,0,-1,0,595.276)" d="M459 325.996V323.236L457.2 325.036V317.956H455.52V325.036L453.72 323.236V325.996L456.36 328.636Z" fill="#ffffff" fill-rule="evenodd"/><path transform="matrix(1,0,0,-1,0,595.276)" stroke-width=".12" stroke-linecap="round" stroke-linejoin="round" fill="none" stroke="#0000ff" d="M445.56 308.356V329.716C445.56 330.916 446.4 331.756 447.48 331.756H486.24C487.32 331.756 488.28 330.916 488.28 329.716V308.356C488.28 307.276 487.32 306.316 486.24 306.316H447.48C446.4 306.316 445.56 307.276 445.56 308.356"/></g></svg>