<?xml version='1.0' encoding='UTF-8'?>
<svg xmlns="http://www.w3.org/2000/svg" xmlns:xlink="http://www.w3.org/1999/xlink" xmlns:inkscape="http://www.inkscape.org/namespaces/inkscape" version="1.1" width="567.000" height="269.280" viewBox="0 0 567.000 269.280"><g transform="scale(10.0) translate(-329.439, -74.160)"><defs><clipPath id="clip_2"><path transform="matrix(1,0,0,-1,0,595.276)" d="M74.4 .196H767.4V595.276H74.4Z"/></clipPath></defs><path transform="matrix(1,0,0,-1,0,595.276)" d="M370.32 507.556C370.32 508.996 370.08 510.556 369.36 512.116 369.12 512.836 368.76 513.676 368.28 514.396 367.8 515.116 367.2 515.716 366.6 516.316 366 516.916 365.4 517.516 364.68 517.996 363.96 518.476 363.12 518.836 362.4 519.076 360.84 519.796 359.28 520.036 357.84 520.036 356.28 520.036 354.72 519.796 353.16 519.076 352.44 518.836 351.72 518.476 351 517.996 350.28 517.516 349.56 516.916 348.96 516.316 348.36 515.716 347.76 515.116 347.28 514.396 346.8 513.676 346.44 512.836 346.2 512.116 345.6 510.556 345.24 508.996 345.24 507.556 345.24 505.996 345.6 504.436 346.2 502.876 346.44 502.156 346.8 501.436 347.28 500.716 347.76 499.996 348.36 499.276 348.96 498.676 349.56 498.076 350.28 497.476 351 496.996 351.72 496.636 352.44 496.156 353.16 495.916 354.72 495.316 356.28 494.956 357.84 494.956 359.28 494.956 360.84 495.316 362.4 495.916 363.12 496.156 363.96 496.636 364.68 496.996 365.4 497.476 366 498.076 366.6 498.676 367.2 499.276 367.8 499.996 368.28 500.716 368.76 501.436 369.12 502.156 369.36 502.876 370.08 504.436 370.32 505.996 370.32 507.556ZM369.84 507.556C369.84 506.116 369.48 504.556 369 503.116 368.4 501.556 367.44 500.236 366.24 499.036 365.04 497.836 363.72 496.996 362.16 496.396 360.72 495.796 359.16 495.556 357.84 495.556 356.4 495.556 354.84 495.796 353.4 496.396 351.84 496.996 350.52 497.836 349.32 499.036 348.12 500.236 347.28 501.556 346.68 503.116 346.08 504.556 345.84 506.116 345.84 507.556 345.84 508.876 346.08 510.436 346.68 511.876 347.28 513.436 348.12 514.756 349.32 515.956 350.52 517.156 351.84 518.116 353.4 518.716 354.84 519.316 356.4 519.556 357.84 519.556 359.16 519.556 360.72 519.316 362.16 518.716 363.72 518.116 365.04 517.156 366.24 515.956 367.44 514.756 368.4 513.436 369 511.876 369.48 510.436 369.84 508.876 369.84 507.556Z" fill-rule="evenodd"/><path transform="matrix(1,0,0,-1,0,595.276)" d="M369.84 507.556C369.84 510.676 368.52 513.796 366.24 515.956 364.08 518.236 360.96 519.556 357.84 519.556 354.6 519.556 351.6 518.236 349.32 515.956 347.04 513.796 345.84 510.676 345.84 507.556 345.84 504.316 347.04 501.316 349.32 499.036 351.6 496.756 354.6 495.556 357.84 495.556 360.96 495.556 364.08 496.756 366.24 499.036 368.52 501.316 369.84 504.316 369.84 507.556Z" fill="#ffff00" fill-rule="evenodd"/><path transform="matrix(1,0,0,-1,0,595.276)" d="M349.68 508.996C349.68 509.236 349.92 509.476 350.4 509.596 350.76 509.836 351.36 509.836 351.96 509.836 353.16 509.836 354.24 509.476 354.96 508.756 355.32 508.396 355.56 507.916 355.8 507.436 355.92 506.956 356.04 506.356 356.04 505.876V505.516C356.04 502.996 354.36 501.316 352.08 501.316 348.84 501.316 347.16 503.476 347.16 507.796 347.16 511.636 348.84 513.796 351.72 513.796 352.68 513.796 353.4 513.556 354.12 513.076 354.84 512.716 355.32 511.996 355.68 511.156L353.52 510.196C353.04 511.036 352.32 511.396 351.6 511.396 351 511.396 350.52 511.276 350.16 510.796 350.04 510.556 349.92 510.316 349.8 510.076 349.68 509.716 349.68 509.476 349.68 508.996ZM351.84 507.556C350.76 507.556 349.92 506.716 349.92 505.516 349.92 504.916 350.04 504.436 350.4 504.076 350.76 503.596 351.24 503.476 351.84 503.476 352.92 503.476 353.64 504.316 353.64 505.516 353.64 506.716 352.92 507.556 351.84 507.556Z" fill-rule="evenodd"/><path transform="matrix(1,0,0,-1,0,595.276)" d="M368.28 507.556C368.28 509.596 367.92 511.156 366.96 512.236 366.12 513.196 364.92 513.796 363.12 513.796 359.76 513.796 358.08 511.636 358.08 507.556 358.08 505.396 358.44 503.836 359.28 502.876 360.12 501.796 361.44 501.316 363.12 501.316 364.92 501.316 366.12 501.796 366.96 502.876 367.92 503.836 368.28 505.396 368.28 507.556ZM365.76 507.556C365.76 504.796 364.92 503.476 363.12 503.476 361.44 503.476 360.48 504.796 360.48 507.556 360.48 508.876 360.72 509.836 361.2 510.556 361.68 511.156 362.28 511.516 363.12 511.516 364.92 511.516 365.76 510.196 365.76 507.556Z" fill-rule="evenodd"/></g></svg>