<?xml version='1.0' encoding='UTF-8'?>
<svg xmlns="http://www.w3.org/2000/svg" xmlns:xlink="http://www.w3.org/1999/xlink" xmlns:inkscape="http://www.inkscape.org/namespaces/inkscape" version="1.1" width="566.700" height="269.280" viewBox="0 0 566.700 269.280"><g transform="scale(10.0) translate(-56.655, -531.936)"><path transform="matrix(1,0,0,-1,0,595.276)" d="M72.84 62.236H97.2C97.92 62.236 98.64 61.996 99.24 61.396 99.84 60.796 100.08 60.076 100.08 59.356V40.396C100.08 39.676 99.84 38.956 99.24 38.356 98.64 37.756 97.92 37.516 97.2 37.516H72.84C72.12 37.516 71.4 37.756 70.8 38.356 70.2 38.956 69.96 39.676 69.96 40.396V59.356C69.96 59.716 70.08 60.076 70.2 60.436 70.32 60.796 70.56 61.156 70.8 61.396 71.4 61.996 72.12 62.236 72.84 62.236Z" fill="#0000ff" fill-rule="evenodd"/><path transform="matrix(1,0,0,-1,0,595.276)" d="M92.4 39.916H97.68V41.236H93.72V43.396H97.08V44.596H93.72V46.636H97.44V47.836H92.4Z" fill="#ffffff" fill-rule="evenodd"/><path transform="matrix(1,0,0,-1,0,595.276)" d="M75.48 47.956V47.116H72.24V46.396H75.48V45.796H73.2V42.436H75.36L74.52 41.956 73.68 41.596 72.72 41.236 71.76 40.876 72.48 40.156 73.32 40.516 74.16 40.876 74.88 41.236 75.48 41.836V39.796H76.32V41.836L77.04 41.236 77.76 40.876 78.48 40.516 79.2 40.156 80.16 40.996 79.08 41.236 78.12 41.476 77.28 41.956 76.56 42.436H78.72V45.796H76.32V46.396H79.68V47.116H76.32V47.476L76.44 47.596 76.56 47.716 76.44 47.836H76.2L75.48 47.956ZM74.04 44.476V45.076H75.48V44.476H74.04ZM76.32 43.156V43.756H77.88V43.156H76.32ZM76.32 44.476V45.076H77.88V44.476H76.32ZM74.04 43.156V43.756H75.6V43.156H74.04Z" fill="#ffffff" fill-rule="evenodd"/><path transform="matrix(1,0,0,-1,0,595.276)" d="M85.68 39.436C86.88 39.796 87.96 40.516 88.8 41.596 89.64 42.676 90 43.876 90 45.196V48.196H81.24V45.196C81.24 43.876 81.6 42.676 82.44 41.596 83.28 40.516 84.48 39.796 85.68 39.436Z" fill="#ffff00" fill-rule="evenodd"/><path transform="matrix(1,0,0,-1,0,595.276)" stroke-width=".12" stroke-linecap="round" stroke-linejoin="round" fill="none" stroke="#000000" d="M85.68 42.316C86.16 42.316 86.16 42.316 85.68 42.316"/><path transform="matrix(1,0,0,-1,0,595.276)" d="M85.68 42.316V42.316C85.32 42.316 85.2 42.316 84.96 42.436 84.84 42.556 84.72 42.796 84.6 43.036L83.52 42.676C83.64 42.196 84 41.836 84.24 41.596 84.6 41.356 85.08 41.236 85.68 41.236 86.88 41.236 87.72 41.956 87.72 43.276 87.72 44.596 87 45.316 85.68 45.316 85.56 45.316 85.44 45.316 85.2 45.316 85.08 45.196 84.96 45.196 84.96 45.196H84.84L84.96 45.316V45.796H87.36V46.876H83.88L83.64 43.996 84.84 43.876C84.84 44.116 85.2 44.236 85.56 44.236 85.8 44.236 86.04 44.236 86.28 43.996 86.4 43.876 86.4 43.756 86.52 43.636 86.52 43.516 86.52 43.396 86.52 43.276L85.68 42.316Z" fill-rule="evenodd"/><path transform="matrix(1,0,0,-1,0,595.276)" d="M89.16 51.556C89.16 52.036 88.8 52.396 88.32 52.396 87.84 52.396 87.48 52.036 87.48 51.556 87.48 51.076 87.84 50.716 88.32 50.716 88.8 50.716 89.16 51.076 89.16 51.556Z" fill="#ffffff" fill-rule="evenodd"/><path transform="matrix(1,0,0,-1,0,595.276)" stroke-width=".12" stroke-linecap="butt" stroke-miterlimit="10" stroke-linejoin="miter" fill="none" stroke="#ffffff" d="M83.5 54.5V54.5"/><path transform="matrix(1,0,0,-1,0,595.276)" d="M83.52 54.676H82.32V55.996H83.28 83.4 83.52C84 56.236 84.36 56.716 84.12 57.316 84 57.796 83.52 58.156 82.92 58.156 82.56 58.276 82.08 58.156 81.72 57.796 81.36 57.436 81.24 57.076 81.24 56.716L79.68 56.956C79.68 57.556 80.04 58.276 80.64 58.756 81.24 59.356 82.08 59.596 82.92 59.596 84.12 59.596 85.2 58.876 85.68 57.796 85.92 56.956 85.44 55.876 84.72 55.396 85.68 54.676 86.04 53.596 85.68 52.516 85.2 51.436 84.12 50.716 82.92 50.716 82.08 50.716 81.24 50.956 80.64 51.556 80.04 52.036 79.68 52.756 79.8 53.356L81.24 53.596C81.12 52.876 81.84 52.156 82.68 52.036 83.04 52.036 83.4 52.156 83.76 52.396 84.12 52.636 84.24 52.996 84.24 53.356 84.36 53.596 84.24 53.956 84.12 54.316 83.88 54.556 83.64 54.676 83.52 54.676Z" fill="#ffffff" fill-rule="evenodd"/><path transform="matrix(1,0,0,-1,0,595.276)" d="M81.24 56.716V56.716Z" fill="#ffffff" fill-rule="evenodd"/><path transform="matrix(1,0,0,-1,0,595.276)" d="M81.24 53.596V53.596Z" fill="#ffffff" fill-rule="evenodd"/><path transform="matrix(1,0,0,-1,0,595.276)" d="M73.68 56.476H72.24V57.076C72.36 57.676 72.6 58.396 73.2 58.876 73.8 59.356 74.52 59.596 75.12 59.596 75.6 59.596 75.96 59.476 76.44 59.236 76.92 59.116 77.28 58.756 77.64 58.396 77.88 57.916 78.12 57.436 78.12 56.956 78.12 56.476 78 56.116 77.88 55.756 77.28 54.436 76.08 53.116 74.64 52.156H78V50.836H72.36V52.156C73.44 52.756 74.4 53.476 75.24 54.436 75.96 55.276 76.44 56.116 76.56 56.836 76.56 57.676 75.96 58.276 75.12 58.276 74.76 58.276 74.4 58.156 74.16 57.796 73.8 57.556 73.68 57.196 73.68 56.836V56.476Z" fill="#ffffff" fill-rule="evenodd"/><path transform="matrix(1,0,0,-1,0,595.276)" stroke-width=".12" stroke-linecap="butt" stroke-miterlimit="10" stroke-linejoin="miter" fill="none" stroke="#ffffff" d="M91.5 55.5V55.5"/><path transform="matrix(1,0,0,-1,0,595.276)" stroke-width=".12" stroke-linecap="butt" stroke-miterlimit="10" stroke-linejoin="miter" fill="none" stroke="#ffffff" d="M91.5 55.5V55.5"/><path transform="matrix(1,0,0,-1,0,595.276)" stroke-width=".12" stroke-linecap="butt" stroke-miterlimit="10" stroke-linejoin="miter" fill="none" stroke="#ffffff" d="M91.5 55.5V55.5"/><path transform="matrix(1,0,0,-1,0,595.276)" stroke-width=".12" stroke-linecap="butt" stroke-miterlimit="10" stroke-linejoin="miter" fill="none" stroke="#ffffff" d="M91.5 55.5V55.5"/><path transform="matrix(1,0,0,-1,0,595.276)" stroke-width=".12" stroke-linecap="butt" stroke-linejoin="round" fill="none" stroke="#ffffff" d="M91.08 55.156V55.156"/><path transform="matrix(1,0,0,-1,0,595.276)" stroke-width=".12" stroke-linecap="butt" stroke-miterlimit="10" stroke-linejoin="miter" fill="none" stroke="#ffffff" d="M91.5 55.5V55.5"/><path transform="matrix(1,0,0,-1,0,595.276)" d="M91.08 55.156V55.156C91.08 53.836 91.32 52.636 91.92 51.916 92.52 51.076 93.36 50.716 94.32 50.716 96.36 50.716 97.56 52.396 97.56 55.156 97.56 56.476 97.32 57.556 96.72 58.396 96.12 59.236 95.28 59.596 94.32 59.596 93.36 59.596 92.52 59.236 91.92 58.396 91.32 57.556 91.08 56.476 91.08 55.156ZM91.08 55.156V55.156ZM94.32 52.036C93.72 52.036 93.24 52.396 93 52.876 92.64 53.476 92.52 54.196 92.52 55.156 92.52 57.076 93.12 58.156 94.32 58.156 95.4 58.156 96.12 57.076 96.12 55.156 96.12 54.196 96 53.476 95.64 52.876 95.28 52.396 94.8 52.036 94.32 52.036Z" fill="#ffffff" fill-rule="evenodd"/></g></svg>