<?xml version='1.0' encoding='UTF-8'?>
<svg xmlns="http://www.w3.org/2000/svg" xmlns:xlink="http://www.w3.org/1999/xlink" xmlns:inkscape="http://www.inkscape.org/namespaces/inkscape" version="1.1" width="567.000" height="269.280" viewBox="0 0 567.000 269.280"><g transform="scale(10.0) translate(-220.305, -47.232)"><defs><clipPath id="clip_2"><path transform="matrix(1,0,0,-1,0,595.276)" d="M74.4 .196H767.4V595.276H74.4Z"/></clipPath></defs><path transform="matrix(1,0,0,-1,0,595.276)" d="M267.96 546.676H229.44C228.84 546.676 228.12 546.436 227.52 545.836 226.92 545.236 226.68 544.516 226.68 543.916V524.956C226.68 524.236 226.92 523.516 227.52 523.036 228.12 522.436 228.84 522.196 229.44 522.196H267.96C268.32 522.196 268.56 522.316 268.92 522.436 269.28 522.556 269.64 522.796 269.88 523.036 270.12 523.276 270.36 523.636 270.48 523.996 270.6 524.236 270.72 524.596 270.72 524.956V543.916C270.72 545.476 269.4 546.676 267.96 546.676Z" fill="#ffffff" fill-rule="evenodd"/><path transform="matrix(1,0,0,-1,0,595.276)" d="M267.96 545.236H229.44C229.32 545.236 229.08 545.236 228.96 545.236 228.72 545.116 228.6 544.996 228.48 544.876 228.36 544.756 228.24 544.636 228.12 544.396 228.12 544.276 228.12 544.036 228.12 543.916V524.956C228.12 524.596 228.24 524.236 228.48 523.996 228.72 523.756 229.08 523.636 229.44 523.636H267.96C268.32 523.636 268.68 523.756 268.92 523.996 269.04 524.116 269.16 524.236 269.16 524.476 269.28 524.596 269.28 524.836 269.28 524.956V543.916C269.28 544.636 268.68 545.236 267.96 545.236Z" fill="#0000ff" fill-rule="evenodd"/><path transform="matrix(1,0,0,-1,0,595.276)" d="M260.16 527.476H258.84C258.84 527.116 258.72 526.876 258.48 526.636 258.36 526.396 258 526.276 257.76 526.276 257.4 526.276 257.16 526.396 256.92 526.636 256.8 526.756 256.68 526.876 256.68 526.996 256.68 527.116 256.56 527.236 256.56 527.476H240.84C240.84 527.116 240.72 526.876 240.48 526.636 240.24 526.396 239.88 526.276 239.64 526.276 239.4 526.276 239.04 526.396 238.8 526.636 238.8 526.756 238.68 526.876 238.56 526.996 238.56 527.116 238.56 527.236 238.56 527.476H237.12C237.12 526.756 236.64 526.276 236.04 526.276 235.8 526.276 235.44 526.396 235.2 526.636 234.96 526.876 234.96 527.116 234.96 527.476H231.72V528.556H232.2V530.836L233.16 533.116V535.516H232.68V536.716H240.96V537.556H242.76L237.84 540.076 242.76 542.836H243.24L238.32 540.076 243.36 537.556H244.68V536.716H264.72V535.516H264.24V531.316H265.44V529.036L264.72 528.556V527.476H262.44C262.44 526.756 261.96 526.276 261.36 526.276 261.12 526.276 260.76 526.396 260.52 526.636 260.28 526.876 260.16 527.116 260.16 527.476ZM261.84 527.476H260.88C260.88 527.236 261.12 526.996 261.36 526.996 261.48 526.996 261.6 526.996 261.72 527.116V527.236C261.84 527.356 261.84 527.356 261.84 527.476ZM258.24 527.476H257.28C257.28 527.356 257.28 527.236 257.4 527.116 257.52 526.996 257.64 526.996 257.76 526.996 257.88 526.996 258 526.996 258 527.116 258.12 527.236 258.24 527.356 258.24 527.476ZM239.16 527.476C239.16 527.236 239.4 526.996 239.64 526.996 239.88 526.996 240.12 527.236 240.12 527.476H239.16ZM236.52 527.476H235.56C235.56 527.356 235.56 527.356 235.56 527.236 235.68 527.236 235.68 527.116 235.68 527.116 235.8 526.996 235.92 526.996 236.04 526.996 236.16 526.996 236.28 526.996 236.4 527.116 236.4 527.236 236.52 527.356 236.52 527.476ZM263.64 528.556H233.76V528.076H263.64V528.556ZM239.64 534.916V530.356H244.2V534.916H239.64ZM234.24 534.916V530.356H238.8V534.916H234.24ZM248.04 529.516V535.276H245.76V529.516H248.04ZM251.64 529.516V535.276H249.36V529.516H251.64ZM253.2 534.916V530.356H257.76V534.916H253.2ZM258.6 534.916V530.356H263.16V534.916H258.6Z" fill="#ffffff" fill-rule="evenodd"/><path transform="matrix(1,0,0,-1,0,595.276)" d="M266.76 526.276H230.64V526.036H266.76Z" fill="#ffffff" fill-rule="evenodd"/><path transform="matrix(1,0,0,-1,0,595.276)" stroke-width=".12" stroke-linecap="round" stroke-linejoin="round" fill="none" stroke="#0000ff" d="M270.72 543.916V524.956C270.72 523.396 269.4 522.196 267.96 522.196H229.44C227.88 522.196 226.68 523.396 226.68 524.956V543.916C226.68 545.476 227.88 546.676 229.44 546.676H267.96C269.4 546.676 270.72 545.476 270.72 543.916"/></g></svg>