<?xml version='1.0' encoding='UTF-8'?>
<svg xmlns="http://www.w3.org/2000/svg" xmlns:xlink="http://www.w3.org/1999/xlink" xmlns:inkscape="http://www.inkscape.org/namespaces/inkscape" version="1.1" width="566.700" height="269.280" viewBox="0 0 566.700 269.280"><g transform="scale(10.0) translate(-165.765, -262.656)"><defs><clipPath id="clip_19"><path transform="matrix(0,1,1,0,0,0)" d="M0 19.875H595.008V822.117H0Z"/></clipPath><clipPath id="clip_20"><path transform="matrix(0,1,1,0,0,0)" d="M0 842.013H595.224V.008972168H0Z"/></clipPath></defs><path transform="matrix(0,1,1,0,204.789,263.61)" d="M0 0V-21.096C0-21.258 .018-21.402 .072-21.564 .144-21.726 .234-21.87 .36-21.996 .486-22.122 .63-22.212 .792-22.266 .936-22.338 1.098-22.356 1.242-22.356H24.048C24.192-22.356 24.354-22.338 24.498-22.266 24.66-22.212 24.804-22.122 24.93-21.996 25.056-21.87 25.146-21.726 25.218-21.564 25.272-21.402 25.308-21.258 25.308-21.096V0C25.308 .144 25.272 .306 25.218 .468 25.146 .612 25.056 .774 24.93 .882 24.804 1.008 24.66 1.116 24.498 1.17 24.354 1.224 24.192 1.26 24.048 1.26H1.242C1.098 1.26 .936 1.224 .792 1.17 .63 1.116 .486 1.008 .36 .882 .234 .774 .144 .612 .072 .468 .018 .306 0 .144 0 0" fill="#ffffff" fill-rule="evenodd"/><path transform="matrix(0,1,1,0,188.319,264.24)" d="M0 0V16.47C0 16.614 .054 16.794 .18 16.92 .306 17.046 .468 17.1 .612 17.1H23.418C23.49 17.1 23.562 17.082 23.634 17.046 23.724 17.028 23.796 16.974 23.85 16.92 23.922 16.848 23.958 16.776 23.994 16.704 24.03 16.614 24.048 16.542 24.048 16.47V6.534H17.388V5.904L24.048-.738V-4.626C24.048-4.788 23.976-4.95 23.85-5.076 23.724-5.202 23.562-5.256 23.418-5.256H10.926L6.66-.99C6.354-.684 5.994-.432 5.58-.27 5.148-.09 4.716 0 4.284 0H0" fill="#00ff00" fill-rule="evenodd"/><path transform="matrix(0,1,1,0,196.131,266.976)" d="M0 0-1.692 1.692 0 3.366H1.692L.558 2.25H20.25V1.116H.558L1.692 0" fill="#ffffff" fill-rule="evenodd"/><path transform="matrix(0,1,1,0,200.775,266.976)" d="M0 0-1.692 1.692 0 3.366H1.692L.558 2.25H20.25V1.116H.558L1.692 0" fill="#ffffff" fill-rule="evenodd"/><path transform="matrix(0,1,1,0,0,0)" d="M274.248 194.223H275.93998V194.85301H274.248Z" fill="#ffffff"/><path transform="matrix(0,1,1,0,0,0)" d="M276.786 194.223H278.46003V194.85301H276.786Z" fill="#ffffff"/><path transform="matrix(0,1,1,0,0,0)" d="M279.306 194.223H280.998V194.85301H279.306Z" fill="#ffffff"/><path transform="matrix(0,1,1,0,0,0)" d="M268.722 194.223H271.25999V194.85301H268.722Z" fill="#ffffff"/><path transform="matrix(0,1,1,0,0,0)" d="M264.924 194.223H267.444V194.85301H264.924Z" fill="#ffffff"/><path transform="matrix(0,1,1,0,189.417,277.182)" d="M0 0 .45 .432-1.35 2.232-1.782 1.782" fill="#ffffff" fill-rule="evenodd"/><path transform="matrix(0,1,1,0,186.717,279.864)" d="M0 0 .45 .45-1.332 2.25-1.782 1.8" fill="#ffffff" fill-rule="evenodd"/><path transform="matrix(0,1,1,0,191.847,274.752)" d="M0 0-2.664 2.07C-2.718 2.106-2.772 2.16-2.808 2.214-2.844 2.286-2.862 2.358-2.862 2.43-2.88 2.592-2.826 2.736-2.736 2.826-2.646 2.934-2.52 3.006-2.358 3.006-2.286 3.006-2.214 2.988-2.142 2.97-2.07 2.934-2.016 2.898-1.962 2.862L.414 .468C.54 .342 .54 .162 .432 .036 .324-.09 .126-.108 0 0" fill="#ffffff" fill-rule="evenodd"/><path transform="matrix(0,1,1,0,191.271,265.284)" d="M0 0 1.692 1.692H3.384L2.25 .558H4.464C4.968 .558 5.49 .468 5.976 .252 6.462 .054 6.894-.234 7.254-.594L12.6-5.958 11.808-6.75 6.444-1.386C6.192-1.134 5.886-.918 5.544-.774 5.184-.63 4.824-.558 4.464-.558H2.25L3.384-1.692H1.692L0 0" fill="#ffffff" fill-rule="evenodd"/><path transform="matrix(0,1,1,0,184.035,282.564)" d="M0 0 .432 .45-1.35 2.232-1.8 1.782" fill="#ffffff" fill-rule="evenodd"/><path transform="matrix(0,1,1,0,185.007,287.46)" d="M0 0-6.75 6.75H-5.166L-6.354 7.956H-8.748V5.562L-7.56 4.374V5.958L-.792-.792" fill="#ffffff" fill-rule="evenodd"/><path transform="matrix(0,1,1,0,206.049,264.852)" stroke-width=".144" stroke-linecap="round" stroke-linejoin="round" fill="none" stroke="#00ff00" d="M0 0C-.684 0-1.242-.558-1.242-1.26"/><path transform="matrix(0,1,1,0,206.049,287.658)" stroke-width=".144" stroke-linecap="round" stroke-linejoin="round" fill="none" stroke="#00ff00" d="M0 0H-22.806"/><path transform="matrix(0,1,1,0,204.789,288.918)" stroke-width=".144" stroke-linecap="round" stroke-linejoin="round" fill="none" stroke="#00ff00" d="M0 0C0 .702-.576 1.26-1.26 1.26"/><path transform="matrix(0,1,1,0,183.693,288.918)" stroke-width=".144" stroke-linecap="round" stroke-linejoin="round" fill="none" stroke="#00ff00" d="M0 0V21.096"/><path transform="matrix(0,1,1,0,182.433,287.658)" stroke-width=".144" stroke-linecap="round" stroke-linejoin="round" fill="none" stroke="#00ff00" d="M0 0C.684 0 1.26 .558 1.26 1.26"/><path transform="matrix(0,1,1,0,182.433,264.852)" stroke-width=".144" stroke-linecap="round" stroke-linejoin="round" fill="none" stroke="#00ff00" d="M0 0H22.806"/><path transform="matrix(0,1,1,0,183.693,263.61)" stroke-width=".144" stroke-linecap="round" stroke-linejoin="round" fill="none" stroke="#00ff00" d="M0 0C0-.702 .558-1.26 1.242-1.26"/><path transform="matrix(0,1,1,0,204.789,263.61)" stroke-width=".144" stroke-linecap="round" stroke-linejoin="round" fill="none" stroke="#00ff00" d="M0 0V-21.096"/></g></svg>