<?xml version='1.0' encoding='UTF-8'?>
<svg xmlns="http://www.w3.org/2000/svg" xmlns:xlink="http://www.w3.org/1999/xlink" xmlns:inkscape="http://www.inkscape.org/namespaces/inkscape" version="1.1" width="567.000" height="269.280" viewBox="0 0 567.000 269.280"><g transform="scale(10.0) translate(-220.305, -20.304)"><defs><clipPath id="clip_2"><path transform="matrix(1,0,0,-1,0,595.276)" d="M74.4 .196H767.4V595.276H74.4Z"/></clipPath></defs><path transform="matrix(1,0,0,-1,0,595.276)" d="M234.84 551.716 247.08 572.956C247.2 573.196 247.44 573.436 247.8 573.556 248.04 573.796 248.4 573.916 248.64 573.916 249 573.916 249.36 573.796 249.6 573.556 249.96 573.436 250.2 573.196 250.32 572.956L262.56 551.716C262.92 551.116 262.92 550.396 262.56 549.796 262.44 549.556 262.2 549.316 261.96 549.076 261.6 548.956 261.24 548.836 261 548.836H236.4C235.8 548.836 235.08 549.196 234.84 549.796 234.48 550.396 234.48 551.116 234.84 551.716Z" fill="#ff0000" fill-rule="evenodd"/><path transform="matrix(1,0,0,-1,0,595.276)" d="M259.92 551.356 248.64 570.676 237.48 551.356Z" fill="#ffffff" fill-rule="evenodd"/><path transform="matrix(1,0,0,-1,0,595.276)" d="M251.4 551.956V562.396L249.36 564.436 247.2 562.396V558.196H244.08V556.156H247.2V551.956Z" fill-rule="evenodd"/></g></svg>