<?xml version='1.0' encoding='UTF-8'?>
<svg xmlns="http://www.w3.org/2000/svg" xmlns:xlink="http://www.w3.org/1999/xlink" xmlns:inkscape="http://www.inkscape.org/namespaces/inkscape" version="1.1" width="567.000" height="269.280" viewBox="0 0 567.000 269.280"><g transform="scale(10.0) translate(-438.573, -478.080)"><defs><clipPath id="clip_2"><path transform="matrix(1,0,0,-1,0,595.276)" d="M74.4 .196H767.4V595.276H74.4Z"/></clipPath></defs><path transform="matrix(1,0,0,-1,0,595.276)" d="M453.72 114.796V92.596C453.72 92.476 453.72 92.236 453.84 91.996 453.84 91.876 453.96 91.636 454.2 91.516 454.32 91.276 454.44 91.156 454.68 91.156 454.92 91.036 455.04 91.036 455.28 91.036H478.44C478.92 91.036 479.28 91.156 479.64 91.516 479.76 91.636 479.88 91.876 480 91.996 480.12 92.236 480.12 92.476 480.12 92.596V114.796C480.12 115.156 480 115.636 479.64 115.876 479.52 116.116 479.28 116.236 479.04 116.236 478.92 116.356 478.68 116.356 478.44 116.356H455.28C454.92 116.356 454.44 116.236 454.2 115.876 453.84 115.636 453.72 115.156 453.72 114.796Z" fill="#ffffff" fill-rule="evenodd"/><path transform="matrix(1,0,0,-1,0,595.276)" d="M454.44 114.796V92.596C454.44 92.476 454.44 92.476 454.56 92.356 454.56 92.236 454.68 92.116 454.68 92.116 454.8 91.996 454.92 91.876 455.04 91.876 455.04 91.876 455.16 91.876 455.28 91.876H478.44C478.68 91.876 478.92 91.876 479.04 92.116 479.16 92.116 479.16 92.236 479.28 92.356 479.28 92.476 479.28 92.476 479.28 92.596V114.796C479.28 115.036 479.28 115.156 479.04 115.396 478.92 115.516 478.68 115.636 478.44 115.636H455.28C454.8 115.636 454.44 115.276 454.44 114.796Z" fill="#0000ff" fill-rule="evenodd"/><path transform="matrix(1,0,0,-1,0,595.276)" d="M461.88 112.516V114.436H461.4V112.516C461.4 112.396 461.4 112.396 461.4 112.276 461.28 112.156 461.28 112.156 461.28 112.036 461.04 111.916 460.92 111.796 460.68 111.796 460.56 111.796 460.32 111.916 460.2 112.036 460.2 112.156 460.2 112.156 460.08 112.276 460.08 112.396 460.08 112.396 460.08 112.516V114.436H459.6V112.516C459.6 112.276 459.6 112.156 459.72 112.036 459.72 111.916 459.84 111.796 459.96 111.676 460.2 111.436 460.44 111.436 460.68 111.436 461.04 111.436 461.28 111.436 461.52 111.676 461.64 111.796 461.76 111.916 461.76 112.036 461.88 112.156 461.88 112.276 461.88 112.516Z" fill="#ffffff" fill-rule="evenodd"/><path transform="matrix(1,0,0,-1,0,595.276)" d="M462.96 112.276 462.6 111.916C462.72 111.796 462.84 111.676 462.96 111.676 463.2 111.436 463.56 111.436 463.8 111.436 464.16 111.436 464.4 111.436 464.64 111.676 464.76 111.676 464.76 111.796 464.88 111.916V112.036 112.156 112.276H465C465 112.396 464.88 112.396 464.88 112.396V112.516C464.88 112.636 464.76 112.756 464.64 112.876 464.64 112.996 464.52 112.996 464.52 112.996 464.4 113.116 464.28 113.116 464.28 113.116L463.56 113.236H463.44C463.32 113.356 463.2 113.476 463.2 113.596 463.2 113.716 463.32 113.836 463.44 113.836 463.56 113.956 463.56 113.956 463.68 113.956 463.92 113.956 464.28 113.836 464.52 113.596L464.88 113.956C464.52 114.316 464.16 114.436 463.8 114.436 463.56 114.436 463.2 114.316 462.96 114.196 462.84 114.076 462.72 113.836 462.72 113.596 462.72 113.356 462.84 113.116 462.96 112.996 463.08 112.876 463.2 112.876 463.2 112.876 463.44 112.756 463.56 112.756 463.8 112.756 464.04 112.636 464.28 112.636 464.4 112.516 464.4 112.396 464.4 112.156 464.4 112.036 464.28 111.916 464.04 111.796 463.8 111.796 463.56 111.916 463.2 111.916 462.96 112.276Z" fill="#ffffff" fill-rule="evenodd"/><path transform="matrix(1,0,0,-1,0,595.276)" d="M472.44 113.596V111.436H471.96V114.436H472.56L474 112.276V114.436H474.48V111.436H473.88Z" fill="#ffffff" fill-rule="evenodd"/><path transform="matrix(1,0,0,-1,0,595.276)" d="M475.56 114.436V111.436H477.48V111.916H476.04V112.756H477.24V113.236H476.04V113.956H477.36V114.436Z" fill="#ffffff" fill-rule="evenodd"/><path transform="matrix(1,0,0,-1,0,595.276)" d="M466.8 111.436H468.48V111.916H467.28V114.436H466.8Z" fill="#ffffff" fill-rule="evenodd"/><path transform="matrix(1,0,0,-1,0,595.276)" d="M473.4 100.276H473.88V101.596H475.2V102.076H473.88V102.796H475.32V103.276H473.4Z" fill="#ffffff" fill-rule="evenodd"/><path transform="matrix(1,0,0,-1,0,595.276)" d="M477.24 102.796V100.276H476.76V102.796H475.92V103.276H478.08V102.796Z" fill="#ffffff" fill-rule="evenodd"/><path transform="matrix(1,0,0,-1,0,595.276)" d="M470.64 100.276H472.56V100.756H471.12V101.596H472.44V102.076H471.12V102.796H472.56V103.276H470.64Z" fill="#ffffff" fill-rule="evenodd"/><path transform="matrix(1,0,0,-1,0,595.276)" d="M470.04 100.276H468.36V103.276H468.84V100.756H470.04Z" fill="#ffffff" fill-rule="evenodd"/><path transform="matrix(1,0,0,-1,0,595.276)" d="M465.6 102.076 466.68 100.276H466.08L465.24 101.716 464.76 101.236V100.276H464.28V103.276H464.76V101.956L465.96 103.276H466.56Z" fill="#ffffff" fill-rule="evenodd"/><path transform="matrix(1,0,0,-1,0,595.276)" d="M455.4 100.276H457.2V100.756H456V103.276H455.4Z" fill="#ffffff" fill-rule="evenodd"/><path transform="matrix(1,0,0,-1,0,595.276)" d="M456.48 111.436H457.68C457.92 111.436 458.28 111.436 458.4 111.676 458.64 111.796 458.76 112.036 458.76 112.276 458.76 112.516 458.76 112.636 458.76 112.636 458.64 112.876 458.52 112.996 458.28 112.996 458.4 113.116 458.52 113.236 458.52 113.356 458.64 113.356 458.64 113.476 458.64 113.596 458.64 113.836 458.52 114.076 458.28 114.196 458.16 114.316 457.92 114.436 457.56 114.436H456.48V111.436ZM456.96 111.916V112.756H457.68C457.8 112.756 458.04 112.756 458.04 112.636 458.16 112.516 458.28 112.396 458.28 112.276 458.28 112.036 458.04 111.916 457.68 111.916H456.96ZM457.68 113.236H456.96V113.956H457.68C457.8 113.956 457.92 113.956 457.92 113.836 458.04 113.716 458.04 113.596 458.04 113.596 458.04 113.476 458.04 113.356 457.92 113.236 457.92 113.236 457.8 113.236 457.68 113.236Z" fill="#ffffff" fill-rule="evenodd"/><path transform="matrix(1,0,0,-1,0,595.276)" d="M470.64 111.916 470.88 111.436H471.24L470.28 114.436H469.68L468.72 111.436H469.2L469.44 111.916H470.64ZM470.04 113.836 470.52 112.396H469.56L470.04 113.836Z" fill="#ffffff" fill-rule="evenodd"/><path transform="matrix(1,0,0,-1,0,595.276)" d="M462.36 103.396C462 103.396 461.64 103.156 461.4 102.916 461.04 102.556 460.92 102.196 460.92 101.836 460.92 100.876 461.52 100.276 462.36 100.276 462.6 100.276 462.96 100.396 463.32 100.636 463.56 100.996 463.68 101.356 463.68 101.836 463.68 102.676 463.08 103.396 462.36 103.396ZM462.36 102.916C462.48 102.916 462.72 102.796 462.96 102.556 463.08 102.316 463.2 102.076 463.2 101.836 463.2 101.476 463.08 101.236 462.96 100.996 462.72 100.756 462.48 100.636 462.36 100.636 462.12 100.636 461.88 100.756 461.76 100.996 461.52 101.236 461.52 101.476 461.52 101.836 461.52 102.076 461.52 102.316 461.76 102.556 461.88 102.796 462.12 102.916 462.36 102.916Z" fill="#ffffff" fill-rule="evenodd"/><path transform="matrix(1,0,0,-1,0,595.276)" d="M459 103.396C458.64 103.396 458.28 103.156 458.04 102.916 457.8 102.556 457.68 102.196 457.68 101.836 457.68 100.876 458.28 100.276 459 100.276 459.36 100.276 459.72 100.396 459.96 100.636 460.2 100.996 460.32 101.356 460.32 101.836 460.32 102.676 459.72 103.396 459 103.396ZM459 102.916C459.24 102.916 459.48 102.796 459.6 102.556 459.84 102.316 459.84 102.076 459.84 101.836 459.84 101.476 459.84 101.236 459.6 100.996 459.48 100.756 459.24 100.636 459 100.636 458.76 100.636 458.64 100.756 458.4 100.996 458.28 101.236 458.16 101.476 458.16 101.836 458.16 102.076 458.28 102.316 458.4 102.556 458.64 102.796 458.76 102.916 459 102.916Z" fill="#ffffff" fill-rule="evenodd"/><path transform="matrix(1,0,0,-1,0,595.276)" d="M474 108.076 474.6 108.196V108.556L474 108.436 474.24 108.676 474 108.916 473.76 109.036 473.52 108.916 474 108.436H473.28L473.16 108.556V108.796L473.28 108.916V109.036H472.8V108.676L472.92 108.316H472.44V107.956H473.04V107.716L473.28 107.596 472.92 107.356 472.44 107.236 472.68 106.996 473.04 107.116 473.52 107.236 473.76 107.116 474.12 106.996H474.36L474.48 107.116 474.6 107.236 474.72 107.596 474.36 107.836V107.476H474.24V107.356H474L473.88 107.476 474.12 107.716H474.24V107.836L474 108.076 473.52 107.716 473.4 107.836V108.076H474Z" fill="#ffffff" fill-rule="evenodd"/><path transform="matrix(1,0,0,-1,0,595.276)" d="M473.76 106.996 473.52 106.756 474 106.516 473.28 106.396V106.516 106.756 106.876 106.996H472.92V106.636 106.276H472.56V105.916H473.04V105.676L473.28 105.436 472.92 105.316 472.44 105.196 472.68 104.836 473.04 105.076 473.52 105.196 473.76 104.956 474.24 104.836H474.48L474.6 104.956 474.72 105.196 474.84 105.436 474.48 105.676 474.36 105.316H474.24 474L473.88 105.436 474.24 105.676H474.36V105.796 105.916L474.12 106.156H474.6V106.516H474L474.24 106.756 473.76 106.996ZM473.4 106.036 474 106.156 473.64 105.676 473.52 105.796 473.4 106.036Z" fill="#ffffff" fill-rule="evenodd"/><path transform="matrix(1,0,0,-1,0,595.276)" d="M471.48 109.036 471 108.316 470.88 108.436 470.64 108.076 471.24 107.596 470.88 106.996H470.52L470.64 106.636V106.516H470.76V106.636L471.36 106.756V104.836H471.72V106.756L471.96 106.876 472.08 106.516 472.44 106.636 472.32 107.116 472.08 107.476H471.84L471.96 107.116H471.36L472.08 108.076H472.2V108.196L472.08 108.316 471.84 108.436 471.48 107.956 471.24 108.076 471.72 108.796H471.84L471.72 108.916Z" fill="#ffffff" fill-rule="evenodd"/><path transform="matrix(1,0,0,-1,0,595.276)" d="M471 106.396H470.76V105.796L470.64 105.196H471L471.12 105.556V106.276H471.24L471.12 106.396Z" fill="#ffffff" fill-rule="evenodd"/><path transform="matrix(1,0,0,-1,0,595.276)" d="M472.08 106.396 471.84 106.276V105.796L471.96 105.316 472.32 105.436Z" fill="#ffffff" fill-rule="evenodd"/><path transform="matrix(1,0,0,-1,0,595.276)" d="M459 108.916V105.316 105.076L459.12 104.956 459.24 104.836H459.48 462.24 462.48 462.6L462.72 104.956 462.96 105.076V105.196L463.08 105.436V105.556L463.2 105.796 462.72 106.036 462.6 105.676V105.436L462.36 105.316 462.12 105.196H459.72L459.6 105.316 459.48 105.436V105.556 106.996H462.12V106.756H462.6V108.916H459ZM459.48 107.356V108.436H460.56V107.356H459.48ZM461.04 107.356V108.436H462.12V107.356H461.04Z" fill="#ffffff" fill-rule="evenodd"/><path transform="matrix(1,0,0,-1,0,595.276)" d="M467.04 109.036H466.68V107.596H464.76V107.236H466.68V105.436H465V105.076H468.72V105.436H467.16V107.236H469.08V107.596H467.16V108.796L467.28 108.916 467.16 109.036Z" fill="#ffffff" fill-rule="evenodd"/><path transform="matrix(1,0,0,-1,0,595.276)" d="M461.88 97.396V97.036H462.12V96.436 96.316 96.196H462.24L462.36 96.076H463.68V96.436H462.72 462.6V96.556H462.48V96.676 97.036H463.92V97.396H463.2V97.756L463.32 97.876H463.2V97.996H462.72V97.396Z" fill="#ffffff" fill-rule="evenodd"/><path transform="matrix(1,0,0,-1,0,595.276)" d="M462.12 95.596V95.116H463.8V94.756H462.24V94.396H463.8V94.156H461.88V93.676H466.08V94.156H464.16V94.396H465.72V94.756H464.16V95.116H465.84V95.596Z" fill="#ffffff" fill-rule="evenodd"/><path transform="matrix(1,0,0,-1,0,595.276)" d="M463.56 95.836 463.8 95.596 464.16 95.956 464.4 96.316H465.48V96.196 96.076H465.36 465L465.12 95.596H465.36 465.6L465.84 95.716 465.96 95.836V96.076 97.876H464.16V97.276 96.916L464.04 96.436 463.8 96.196 463.56 95.836ZM465.48 96.676H464.52L464.64 96.916H465.48V96.676ZM464.64 97.276V97.516H465.48V97.276H464.64Z" fill="#ffffff" fill-rule="evenodd"/><path transform="matrix(1,0,0,-1,0,595.276)" d="M467.64 97.156V96.796H469.2L468.84 96.076 468.48 95.596 468.12 95.116 467.52 94.756 467.88 94.396 468.48 94.876 468.96 95.356H469.92V94.156H468.12V93.676H471.96V94.156H470.4V95.356H471.6V95.836H469.2L469.44 96.316 469.68 96.796H471.84V97.156H469.8L469.92 97.756 470.04 97.876V97.996H469.8L469.44 98.116 469.32 97.156Z" fill="#ffffff" fill-rule="evenodd"/><path transform="matrix(1,0,0,-1,0,595.276)" stroke-width=".12" stroke-linecap="round" stroke-linejoin="round" fill="none" stroke="#0000ff" d="M480.12 114.796V92.596C480.12 91.756 479.4 91.036 478.44 91.036H455.28C454.44 91.036 453.72 91.756 453.72 92.596V114.796C453.72 115.636 454.44 116.356 455.28 116.356H478.44C479.4 116.356 480.12 115.636 480.12 114.796"/></g></svg>