<?xml version='1.0' encoding='UTF-8'?>
<svg xmlns="http://www.w3.org/2000/svg" xmlns:xlink="http://www.w3.org/1999/xlink" xmlns:inkscape="http://www.inkscape.org/namespaces/inkscape" version="1.1" width="567.000" height="269.280" viewBox="0 0 567.000 269.280"><g transform="scale(10.0) translate(-329.439, -208.800)"><defs><clipPath id="clip_2"><path transform="matrix(1,0,0,-1,0,595.276)" d="M74.4 .196H767.4V595.276H74.4Z"/></clipPath></defs><path transform="matrix(1,0,0,-1,0,595.276)" d="M368.28 368.236 359.04 384.316C358.92 384.556 358.68 384.676 358.44 384.796 358.32 384.916 358.08 385.036 357.84 385.036 357.6 385.036 357.36 384.916 357.12 384.796 356.88 384.676 356.64 384.556 356.52 384.316L347.28 368.236C347.04 367.876 347.04 367.276 347.28 366.796 347.4 366.676 347.64 366.436 347.76 366.316 348 366.196 348.24 366.196 348.48 366.196H367.08C367.56 366.196 368.04 366.436 368.28 366.796 368.52 367.276 368.52 367.876 368.28 368.236Z" fill="#ff0000" fill-rule="evenodd"/><path transform="matrix(1,0,0,-1,0,595.276)" d="M366.24 367.996 357.84 382.636 349.32 367.996Z" fill="#ffffff" fill-rule="evenodd"/><path transform="matrix(1,0,0,-1,0,595.276)" d="M355.44 377.476 357.84 373.276 360.24 377.476Z" fill-rule="evenodd"/><path transform="matrix(1,0,0,-1,0,595.276)" stroke-width=".12" stroke-linecap="butt" stroke-miterlimit="10" stroke-linejoin="miter" fill="none" stroke="#000000" d="M337.5 384.5H340.5"/><path transform="matrix(1,0,0,-1,0,595.276)" stroke-width=".12" stroke-linecap="butt" stroke-miterlimit="10" stroke-linejoin="miter" fill="none" stroke="#000000" d="M340.5 362.5 339.5 360.5"/><path transform="matrix(1,0,0,-1,0,595.276)" stroke-width=".12" stroke-linecap="butt" stroke-miterlimit="10" stroke-linejoin="miter" fill="none" stroke="#000000" d="M337.5 362.5 339.5 360.5"/><path transform="matrix(1,0,0,-1,0,595.276)" stroke-width=".12" stroke-linecap="butt" stroke-linejoin="round" fill="none" stroke="#000000" d="M337.92 366.556C338.28 366.916 338.76 366.916 339.12 366.556"/><path transform="matrix(1,0,0,-1,0,595.276)" stroke-width=".12" stroke-linecap="butt" stroke-linejoin="round" fill="none" stroke="#000000" d="M339.12 366.556C339.36 366.196 339.96 366.196 340.2 366.556"/><path transform="matrix(1,0,0,-1,0,595.276)" stroke-width=".12" stroke-linecap="butt" stroke-linejoin="round" fill="none" stroke="#000000" d="M337.92 367.996C338.28 368.356 338.76 368.356 339.12 367.996"/><path transform="matrix(1,0,0,-1,0,595.276)" stroke-width=".12" stroke-linecap="butt" stroke-linejoin="round" fill="none" stroke="#000000" d="M339.12 367.996C339.36 367.516 339.96 367.516 340.2 367.996"/><path transform="matrix(1,0,0,-1,0,595.276)" stroke-width=".12" stroke-linecap="butt" stroke-linejoin="round" fill="none" stroke="#000000" d="M339.12 366.556C339.36 366.916 339.96 366.916 340.2 366.556"/><path transform="matrix(1,0,0,-1,0,595.276)" stroke-width=".12" stroke-linecap="butt" stroke-linejoin="round" fill="none" stroke="#000000" d="M337.92 367.996C338.28 367.516 338.76 367.516 339.12 367.996"/><path transform="matrix(1,0,0,-1,0,595.276)" stroke-width=".12" stroke-linecap="butt" stroke-miterlimit="10" stroke-linejoin="miter" fill="none" stroke="#000000" d="M337.5 362.5V366.5"/><path transform="matrix(1,0,0,-1,0,595.276)" stroke-width=".12" stroke-linecap="butt" stroke-miterlimit="10" stroke-linejoin="miter" fill="none" stroke="#000000" d="M337.5 367.5V384.5"/><path transform="matrix(1,0,0,-1,0,595.276)" stroke-width=".12" stroke-linecap="butt" stroke-miterlimit="10" stroke-linejoin="miter" fill="none" stroke="#000000" d="M340.5 362.5V366.5"/><path transform="matrix(1,0,0,-1,0,595.276)" stroke-width=".12" stroke-linecap="butt" stroke-linejoin="round" fill="none" stroke="#000000" d="M344.16 372.556C343.8 372.796 343.8 373.396 344.16 373.636"/><path transform="matrix(1,0,0,-1,0,595.276)" stroke-width=".12" stroke-linecap="butt" stroke-linejoin="round" fill="none" stroke="#000000" d="M344.16 373.636C344.52 373.876 344.52 374.476 344.16 374.836"/><path transform="matrix(1,0,0,-1,0,595.276)" stroke-width=".12" stroke-linecap="butt" stroke-linejoin="round" fill="none" stroke="#000000" d="M344.16 372.556C344.52 372.796 344.52 373.396 344.16 373.636"/><path transform="matrix(1,0,0,-1,0,595.276)" stroke-width=".12" stroke-linecap="butt" stroke-linejoin="round" fill="none" stroke="#000000" d="M345.6 372.556C345.24 372.796 345.24 373.396 345.6 373.636"/><path transform="matrix(1,0,0,-1,0,595.276)" stroke-width=".12" stroke-linecap="butt" stroke-linejoin="round" fill="none" stroke="#000000" d="M345.6 373.636C345.96 373.876 345.96 374.476 345.6 374.836"/><path transform="matrix(1,0,0,-1,0,595.276)" stroke-width=".12" stroke-linecap="butt" stroke-linejoin="round" fill="none" stroke="#000000" d="M345.6 373.636C345.24 373.876 345.24 374.476 345.6 374.836"/><path transform="matrix(1,0,0,-1,0,595.276)" stroke-width=".12" stroke-linecap="butt" stroke-miterlimit="10" stroke-linejoin="miter" fill="none" stroke="#000000" d="M340.5 374.5H344.5"/><path transform="matrix(1,0,0,-1,0,595.276)" stroke-width=".12" stroke-linecap="butt" stroke-miterlimit="10" stroke-linejoin="miter" fill="none" stroke="#000000" d="M345.5 374.5H351.5"/><path transform="matrix(1,0,0,-1,0,595.276)" stroke-width=".12" stroke-linecap="butt" stroke-miterlimit="10" stroke-linejoin="miter" fill="none" stroke="#000000" d="M340.5 372.5H344.5"/><path transform="matrix(1,0,0,-1,0,595.276)" stroke-width=".12" stroke-linecap="butt" stroke-miterlimit="10" stroke-linejoin="miter" fill="none" stroke="#000000" d="M345.5 372.5H349.5"/><path transform="matrix(1,0,0,-1,0,595.276)" stroke-width=".12" stroke-linecap="butt" stroke-miterlimit="10" stroke-linejoin="miter" fill="none" stroke="#000000" d="M340.5 367.5V372.5"/><path transform="matrix(1,0,0,-1,0,595.276)" stroke-width=".12" stroke-linecap="butt" stroke-miterlimit="10" stroke-linejoin="miter" fill="none" stroke="#000000" d="M340.5 374.5V384.5"/><path transform="matrix(1,0,0,-1,0,595.276)" stroke-width=".12" stroke-linecap="butt" stroke-miterlimit="10" stroke-linejoin="miter" fill="none" stroke="#000000" d="M377.5 384.5H375.5"/><path transform="matrix(1,0,0,-1,0,595.276)" stroke-width=".12" stroke-linecap="butt" stroke-miterlimit="10" stroke-linejoin="miter" fill="none" stroke="#000000" d="M375.5 362.5 376.5 360.5"/><path transform="matrix(1,0,0,-1,0,595.276)" stroke-width=".12" stroke-linecap="butt" stroke-miterlimit="10" stroke-linejoin="miter" fill="none" stroke="#000000" d="M377.5 362.5 376.5 360.5"/><path transform="matrix(1,0,0,-1,0,595.276)" stroke-width=".12" stroke-linecap="butt" stroke-linejoin="round" fill="none" stroke="#000000" d="M377.64 366.556C377.4 366.916 376.8 366.916 376.44 366.556"/><path transform="matrix(1,0,0,-1,0,595.276)" stroke-width=".12" stroke-linecap="butt" stroke-linejoin="round" fill="none" stroke="#000000" d="M376.44 366.556C376.2 366.196 375.6 366.196 375.36 366.556"/><path transform="matrix(1,0,0,-1,0,595.276)" stroke-width=".12" stroke-linecap="butt" stroke-linejoin="round" fill="none" stroke="#000000" d="M377.64 367.996C377.4 368.356 376.8 368.356 376.44 367.996"/><path transform="matrix(1,0,0,-1,0,595.276)" stroke-width=".12" stroke-linecap="butt" stroke-linejoin="round" fill="none" stroke="#000000" d="M376.44 367.996C376.2 367.516 375.6 367.516 375.36 367.996"/><path transform="matrix(1,0,0,-1,0,595.276)" stroke-width=".12" stroke-linecap="butt" stroke-linejoin="round" fill="none" stroke="#000000" d="M376.44 366.556C376.2 366.916 375.6 366.916 375.36 366.556"/><path transform="matrix(1,0,0,-1,0,595.276)" stroke-width=".12" stroke-linecap="butt" stroke-linejoin="round" fill="none" stroke="#000000" d="M377.64 367.996C377.4 367.516 376.8 367.516 376.44 367.996"/><path transform="matrix(1,0,0,-1,0,595.276)" stroke-width=".12" stroke-linecap="butt" stroke-miterlimit="10" stroke-linejoin="miter" fill="none" stroke="#000000" d="M377.5 362.5V366.5"/><path transform="matrix(1,0,0,-1,0,595.276)" stroke-width=".12" stroke-linecap="butt" stroke-miterlimit="10" stroke-linejoin="miter" fill="none" stroke="#000000" d="M377.5 367.5V384.5"/><path transform="matrix(1,0,0,-1,0,595.276)" stroke-width=".12" stroke-linecap="butt" stroke-miterlimit="10" stroke-linejoin="miter" fill="none" stroke="#000000" d="M375.5 362.5V366.5"/><path transform="matrix(1,0,0,-1,0,595.276)" stroke-width=".12" stroke-linecap="butt" stroke-linejoin="round" fill="none" stroke="#000000" d="M371.4 372.556C371.76 372.796 371.76 373.396 371.4 373.636"/><path transform="matrix(1,0,0,-1,0,595.276)" stroke-width=".12" stroke-linecap="butt" stroke-linejoin="round" fill="none" stroke="#000000" d="M371.4 373.636C371.04 373.876 371.04 374.476 371.4 374.836"/><path transform="matrix(1,0,0,-1,0,595.276)" stroke-width=".12" stroke-linecap="butt" stroke-linejoin="round" fill="none" stroke="#000000" d="M371.4 372.556C371.04 372.796 371.04 373.396 371.4 373.636"/><path transform="matrix(1,0,0,-1,0,595.276)" stroke-width=".12" stroke-linecap="butt" stroke-linejoin="round" fill="none" stroke="#000000" d="M369.96 372.556C370.32 372.796 370.32 373.396 369.96 373.636"/><path transform="matrix(1,0,0,-1,0,595.276)" stroke-width=".12" stroke-linecap="butt" stroke-linejoin="round" fill="none" stroke="#000000" d="M369.96 373.636C369.6 373.876 369.6 374.476 369.96 374.836"/><path transform="matrix(1,0,0,-1,0,595.276)" stroke-width=".12" stroke-linecap="butt" stroke-linejoin="round" fill="none" stroke="#000000" d="M369.96 373.636C370.32 373.876 370.32 374.476 369.96 374.836"/><path transform="matrix(1,0,0,-1,0,595.276)" stroke-width=".12" stroke-linecap="butt" stroke-miterlimit="10" stroke-linejoin="miter" fill="none" stroke="#000000" d="M375.5 374.5H371.5"/><path transform="matrix(1,0,0,-1,0,595.276)" stroke-width=".12" stroke-linecap="butt" stroke-miterlimit="10" stroke-linejoin="miter" fill="none" stroke="#000000" d="M369.5 374.5H364.5"/><path transform="matrix(1,0,0,-1,0,595.276)" stroke-width=".12" stroke-linecap="butt" stroke-miterlimit="10" stroke-linejoin="miter" fill="none" stroke="#000000" d="M375.5 372.5H371.5"/><path transform="matrix(1,0,0,-1,0,595.276)" stroke-width=".12" stroke-linecap="butt" stroke-miterlimit="10" stroke-linejoin="miter" fill="none" stroke="#000000" d="M369.5 372.5H365.5"/><path transform="matrix(1,0,0,-1,0,595.276)" stroke-width=".12" stroke-linecap="butt" stroke-miterlimit="10" stroke-linejoin="miter" fill="none" stroke="#000000" d="M375.5 367.5V372.5"/><path transform="matrix(1,0,0,-1,0,595.276)" stroke-width=".12" stroke-linecap="butt" stroke-miterlimit="10" stroke-linejoin="miter" fill="none" stroke="#000000" d="M375.5 374.5V384.5"/><path transform="matrix(1,0,0,-1,0,595.276)" d="M356.16 369.676C356.16 369.916 356.04 370.036 355.92 370.036 355.68 370.036 355.56 369.916 355.56 369.676 355.56 369.556 355.68 369.436 355.92 369.436 356.04 369.436 356.16 369.556 356.16 369.676Z" fill-rule="evenodd"/><path transform="matrix(1,0,0,-1,0,595.276)" d="M354 369.436C354.6 369.436 354.96 369.676 354.96 370.276 354.96 370.516 354.84 370.756 354.72 370.876 354.84 370.996 354.96 371.236 354.96 371.476 354.96 372.076 354.6 372.316 353.88 372.316 353.64 372.316 353.28 372.316 353.16 372.076 353.04 371.956 352.92 371.956 352.92 371.836 352.92 371.716 352.8 371.596 352.8 371.476L353.4 371.356C353.4 371.596 353.64 371.716 353.88 371.836H354C354.24 371.716 354.36 371.596 354.36 371.476 354.36 371.356 354.24 371.236 354.12 371.116H353.76V370.636H354.12 354.24L354.36 370.516V370.396C354.36 370.156 354.24 370.036 354 369.916 353.76 369.916 353.64 370.036 353.52 370.036 353.52 370.156 353.4 370.276 353.4 370.396L352.8 370.276C352.8 369.676 353.28 369.436 354 369.436Z" fill-rule="evenodd"/><path transform="matrix(1,0,0,-1,0,595.276)" stroke-width=".12" stroke-linecap="butt" stroke-miterlimit="10" stroke-linejoin="miter" fill="none" stroke="#000000" d="M357.5 369.5V369.5"/><path transform="matrix(1,0,0,-1,0,595.276)" d="M357.72 369.916V369.916C357.6 369.916 357.48 370.036 357.36 370.036 357.36 370.036 357.24 370.156 357.24 370.276L356.64 370.156C356.76 369.916 356.88 369.676 357 369.556 357.24 369.436 357.48 369.436 357.72 369.436 358.08 369.436 358.32 369.436 358.44 369.676 358.68 369.796 358.8 370.156 358.8 370.396 358.8 371.116 358.44 371.476 357.72 371.476 357.72 371.476 357.6 371.476 357.48 371.476L357.36 371.356V371.476 371.716H358.56V372.196H356.88L356.76 370.756H357.24C357.36 370.876 357.48 370.996 357.72 370.996 357.84 370.996 357.96 370.876 358.08 370.756 358.2 370.636 358.2 370.516 358.2 370.396 358.2 370.276 358.08 370.156 358.08 370.036 357.96 370.036 357.84 369.916 357.72 369.916Z" fill-rule="evenodd"/><path transform="matrix(1,0,0,-1,0,595.276)" d="M361.8 370.996C361.68 370.996 361.44 370.876 361.44 370.756V369.436H360.84V370.876C360.84 370.996 360.72 370.996 360.6 370.996 360.48 370.996 360.24 370.876 360.24 370.756V369.436H359.76V371.476H360.24V371.356C360.36 371.476 360.36 371.476 360.48 371.476 360.6 371.476 360.6 371.596 360.72 371.596 360.96 371.596 361.2 371.476 361.32 371.236 361.44 371.476 361.56 371.596 361.8 371.596 362.16 371.476 362.4 371.356 362.52 371.116V370.996C362.64 370.996 362.64 370.996 362.64 370.876V369.436H362.04V370.876C362.04 370.876 362.04 370.996 361.92 370.996H361.8Z" fill-rule="evenodd"/></g></svg>