<?xml version='1.0' encoding='UTF-8'?>
<svg xmlns="http://www.w3.org/2000/svg" xmlns:xlink="http://www.w3.org/1999/xlink" xmlns:inkscape="http://www.inkscape.org/namespaces/inkscape" version="1.1" width="567.000" height="269.280" viewBox="0 0 567.000 269.280"><g transform="scale(10.0) translate(-220.305, -74.160)"><defs><clipPath id="clip_2"><path transform="matrix(1,0,0,-1,0,595.276)" d="M74.4 .196H767.4V595.276H74.4Z"/></clipPath></defs><path transform="matrix(1,0,0,-1,0,595.276)" d="M262.56 497.836 250.32 519.076C250.2 519.316 249.96 519.556 249.6 519.796 249.36 519.916 249 520.036 248.64 520.036 248.4 520.036 248.04 519.916 247.8 519.796 247.44 519.556 247.2 519.316 247.08 519.076L234.84 497.836C234.48 497.236 234.48 496.516 234.84 495.916 234.96 495.676 235.2 495.436 235.44 495.316 235.8 495.076 236.16 494.956 236.4 494.956H261C261.6 494.956 262.2 495.316 262.56 495.916 262.92 496.516 262.92 497.236 262.56 497.836Z" fill="#ff0000" fill-rule="evenodd"/><path transform="matrix(1,0,0,-1,0,595.276)" d="M237.48 497.476 248.64 516.916 259.92 497.476Z" fill="#ffffff" fill-rule="evenodd"/><path transform="matrix(1,0,0,-1,0,595.276)" d="M254.52 502.876H251.4V508.516L249.36 510.676 247.2 508.516V506.476H244.08V504.436H247.2V498.076H251.4V500.836H254.52Z" fill-rule="evenodd"/></g></svg>