<?xml version='1.0' encoding='UTF-8'?>
<svg xmlns="http://www.w3.org/2000/svg" xmlns:xlink="http://www.w3.org/1999/xlink" xmlns:inkscape="http://www.inkscape.org/namespaces/inkscape" version="1.1" width="567.000" height="269.280" viewBox="0 0 567.000 269.280"><g transform="scale(10.0) translate(-111.171, -20.304)"><defs><clipPath id="clip_2"><path transform="matrix(1,0,0,-1,0,595.276)" d="M74.4 .196H767.4V595.276H74.4Z"/></clipPath></defs><path transform="matrix(1,0,0,-1,0,595.276)" d="M125.64 571.036 138 549.796C138.12 549.556 138.36 549.316 138.6 549.076 138.96 548.956 139.32 548.836 139.56 548.836 139.92 548.836 140.28 548.956 140.52 549.076 140.88 549.316 141.12 549.556 141.24 549.796L153.48 571.036C153.84 571.636 153.84 572.356 153.48 572.956 153.36 573.196 153.12 573.436 152.76 573.556 152.52 573.796 152.16 573.916 151.92 573.916H127.32C126.6 573.916 126 573.556 125.64 572.956 125.4 572.356 125.4 571.636 125.64 571.036Z" fill="#ff0000" fill-rule="evenodd"/><path transform="matrix(1,0,0,-1,0,595.276)" d="M150.84 571.396 139.56 551.956 128.4 571.396Z" fill="#ffffff" fill-rule="evenodd"/></g></svg>