<?xml version='1.0' encoding='UTF-8'?>
<svg xmlns="http://www.w3.org/2000/svg" xmlns:xlink="http://www.w3.org/1999/xlink" xmlns:inkscape="http://www.inkscape.org/namespaces/inkscape" version="1.1" width="567.000" height="269.280" viewBox="0 0 567.000 269.280"><g transform="scale(10.0) translate(-329.439, -343.440)"><defs><clipPath id="clip_2"><path transform="matrix(1,0,0,-1,0,595.276)" d="M74.4 .196H767.4V595.276H74.4Z"/></clipPath></defs><path transform="matrix(1,0,0,-1,0,595.276)" d="M339.12 236.596H334.92V239.956H339.12Z" fill="#ff0000" fill-rule="evenodd"/><path transform="matrix(1,0,0,-1,0,595.276)" d="M343.2 236.596H347.4V239.956H343.2Z" fill="#ff0000" fill-rule="evenodd"/><path transform="matrix(1,0,0,-1,0,595.276)" d="M355.68 236.596H351.6V239.956H355.68Z" fill="#ff0000" fill-rule="evenodd"/><path transform="matrix(1,0,0,-1,0,595.276)" d="M364.08 236.596H359.88V239.956H364.08Z" fill="#ff0000" fill-rule="evenodd"/><path transform="matrix(1,0,0,-1,0,595.276)" d="M372.36 236.596H368.28V239.956H372.36Z" fill="#ff0000" fill-rule="evenodd"/><path transform="matrix(1,0,0,-1,0,595.276)" d="M380.76 236.596H376.56V239.956H380.76Z" fill="#ff0000" fill-rule="evenodd"/><path transform="matrix(1,0,0,-1,0,595.276)" d="M334.92 239.956H330.72V236.596H334.92Z" fill="#ffffff" fill-rule="evenodd"/><path transform="matrix(1,0,0,-1,0,595.276)" d="M339.12 239.956H343.2V236.596H339.12Z" fill="#ffffff" fill-rule="evenodd"/><path transform="matrix(1,0,0,-1,0,595.276)" d="M347.4 239.956H351.6V236.596H347.4Z" fill="#ffffff" fill-rule="evenodd"/><path transform="matrix(1,0,0,-1,0,595.276)" d="M355.68 239.956H359.88V236.596H355.68Z" fill="#ffffff" fill-rule="evenodd"/><path transform="matrix(1,0,0,-1,0,595.276)" d="M364.08 239.956H368.28V236.596H364.08Z" fill="#ffffff" fill-rule="evenodd"/><path transform="matrix(1,0,0,-1,0,595.276)" d="M372.36 239.956H376.56V236.596H372.36Z" fill="#ffffff" fill-rule="evenodd"/><path transform="matrix(1,0,0,-1,0,595.276)" d="M380.76 239.956H384.96V236.596H380.76Z" fill="#ffffff" fill-rule="evenodd"/><path transform="matrix(1,0,0,-1,0,595.276)" stroke-width=".12" stroke-linecap="butt" stroke-miterlimit="10" stroke-linejoin="miter" fill="none" stroke="#000000" d="M330.5 239.5H384.5"/><path transform="matrix(1,0,0,-1,0,595.276)" stroke-width=".12" stroke-linecap="butt" stroke-miterlimit="10" stroke-linejoin="miter" fill="none" stroke="#000000" d="M384.5 236.5H330.5"/><path transform="matrix(1,0,0,-1,0,595.276)" d="M342 238.276C342 238.756 341.64 239.116 341.16 239.116 340.68 239.116 340.32 238.756 340.32 238.276 340.32 237.796 340.68 237.436 341.16 237.436 341.64 237.436 342 237.796 342 238.276Z" fill="#ffff00" fill-rule="evenodd"/><path transform="matrix(1,0,0,-1,0,595.276)" d="M366.96 238.276C366.96 238.756 366.6 239.116 366.12 239.116 365.64 239.116 365.28 238.756 365.28 238.276 365.28 237.796 365.64 237.436 366.12 237.436 366.6 237.436 366.96 237.796 366.96 238.276Z" fill="#ffff00" fill-rule="evenodd"/><path transform="matrix(1,0,0,-1,0,595.276)" stroke-width=".12" stroke-linecap="round" stroke-linejoin="round" fill="none" stroke="#000000" d="M366.96 238.276C366.96 238.756 366.6 239.116 366.12 239.116 365.64 239.116 365.28 238.756 365.28 238.276 365.28 237.796 365.64 237.436 366.12 237.436 366.6 237.436 366.96 237.796 366.96 238.276"/><path transform="matrix(1,0,0,-1,0,595.276)" stroke-width=".12" stroke-linecap="round" stroke-linejoin="round" fill="none" stroke="#000000" d="M342 238.276C342 238.756 341.64 239.116 341.16 239.116 340.68 239.116 340.32 238.756 340.32 238.276 340.32 237.796 340.68 237.436 341.16 237.436 341.64 237.436 342 237.796 342 238.276"/><path transform="matrix(1,0,0,-1,0,595.276)" stroke-width=".12" stroke-linecap="butt" stroke-miterlimit="10" stroke-linejoin="miter" fill="none" stroke="#000000" d="M384.96 241.156V238.276L383.64 238.396 386.04 237.916 384.96 238.036V235.396"/><path transform="matrix(1,0,0,-1,0,595.276)" stroke-width=".12" stroke-linecap="butt" stroke-miterlimit="10" stroke-linejoin="miter" fill="none" stroke="#000000" d="M330.72 241.156V238.276L329.52 238.396 331.8 237.916 330.72 238.036V235.396"/></g></svg>