<?xml version='1.0' encoding='UTF-8'?>
<svg xmlns="http://www.w3.org/2000/svg" xmlns:xlink="http://www.w3.org/1999/xlink" xmlns:inkscape="http://www.inkscape.org/namespaces/inkscape" version="1.1" width="567.000" height="269.280" viewBox="0 0 567.000 269.280"><g transform="scale(10.0) translate(-547.707, -558.864)"><defs><clipPath id="clip_2"><path transform="matrix(1,0,0,-1,0,595.276)" d="M74.4 .196H767.4V595.276H74.4Z"/></clipPath></defs><path transform="matrix(1,0,0,-1,0,595.276)" d="M597.84 35.236H554.16C553.2 35.236 552.36 34.396 552.36 33.436V12.556C552.36 12.076 552.48 11.596 552.96 11.236 553.32 10.876 553.8 10.636 554.16 10.636H597.84C598.2 10.636 598.68 10.876 599.04 11.236 599.4 11.596 599.64 12.076 599.64 12.556V33.436C599.64 33.796 599.4 34.276 599.04 34.636 598.68 34.996 598.2 35.236 597.84 35.236Z" fill="#ffffff" fill-rule="evenodd"/><path transform="matrix(1,0,0,-1,0,595.276)" d="M597.84 34.276H554.16C553.68 34.276 553.32 33.916 553.32 33.436V12.556C553.32 12.316 553.32 12.076 553.56 11.836 553.68 11.716 553.92 11.596 554.16 11.596H597.84C597.96 11.596 598.2 11.716 598.44 11.836 598.56 12.076 598.68 12.316 598.68 12.556V33.436C598.68 33.556 598.56 33.796 598.44 34.036 598.2 34.276 597.96 34.276 597.84 34.276Z" fill="#ff0000" fill-rule="evenodd"/><path transform="matrix(1,0,0,-1,0,595.276)" d="M580.2 30.436V26.596H581.16V31.636H580.08L578.64 29.716 577.2 31.636H576.24V26.596H577.08V30.436L578.64 28.396Z" fill="#ffffff" fill-rule="evenodd"/><path transform="matrix(1,0,0,-1,0,595.276)" d="M569.76 26.596H568.8L567.84 28.516H567V26.596H566.16V31.636H568.32C568.68 31.636 569.04 31.516 569.28 31.276 569.52 31.036 569.64 30.676 569.76 30.316 569.76 29.956 569.64 29.596 569.52 29.236 569.28 28.876 569.04 28.636 568.8 28.636L569.76 26.596ZM568.2 30.916V30.916H567V29.236H568.2C568.32 29.236 568.56 29.356 568.68 29.476 568.8 29.716 568.8 29.836 568.8 30.076 568.8 30.316 568.8 30.436 568.68 30.676 568.56 30.796 568.32 30.916 568.2 30.916Z" fill="#ffffff" fill-rule="evenodd"/><path transform="matrix(1,0,0,-1,0,595.276)" d="M573.96 27.436 574.2 26.596H575.04L573.36 31.636H572.28L570.72 26.596H571.44L571.8 27.436H573.96ZM572.04 28.156 572.88 30.796 573.72 28.156H572.04Z" fill="#ffffff" fill-rule="evenodd"/><path transform="matrix(1,0,0,-1,0,595.276)" d="M583.8 26.596H582.84V31.636H585C585.36 31.636 585.72 31.516 585.96 31.156 586.2 30.796 586.32 30.436 586.32 30.076 586.32 29.716 586.2 29.236 585.96 28.876 585.84 28.756 585.72 28.636 585.48 28.516 585.36 28.516 585.12 28.396 585 28.396H583.8V26.596ZM584.76 30.916V30.916H583.8V29.236H584.76C585 29.236 585.12 29.236 585.24 29.476 585.48 29.596 585.48 29.836 585.48 30.076 585.48 30.196 585.48 30.436 585.24 30.676 585.12 30.796 585 30.916 584.76 30.916Z" fill="#ffffff" fill-rule="evenodd"/><path transform="matrix(1,0,0,-1,0,595.276)" d="M558.12 22.516 557.64 22.036 558.12 21.676 558.6 21.316 559.08 21.916 558.6 22.276Z" fill="#ffffff" fill-rule="evenodd"/><path transform="matrix(1,0,0,-1,0,595.276)" d="M557.64 20.956 557.16 20.476 558.24 19.756 558.72 20.236Z" fill="#ffffff" fill-rule="evenodd"/><path transform="matrix(1,0,0,-1,0,595.276)" d="M557.28 19.036V18.316H558.24V16.756L557.16 15.916 557.76 15.196 558.48 16.156 558.84 15.676 559.32 15.436 560.04 15.196 561.12 15.076H564.72L564.84 15.796H561.48 560.4L559.68 16.036 559.2 16.396 559.08 16.876V19.036Z" fill="#ffffff" fill-rule="evenodd"/><path transform="matrix(1,0,0,-1,0,595.276)" d="M560.76 22.516 560.28 22.156 560.88 21.436H559.56V20.836H561.6L561.24 20.236H560.04V16.156H560.76V16.396H563.28V16.156H564V20.236H562.08L562.32 20.836H564.48V21.436H563.16L563.88 22.516 563.16 22.636 562.32 21.436H561.36L561.48 21.556 560.76 22.516ZM560.76 16.996V17.476H563.28V16.996H560.76ZM560.76 18.076V18.436H563.28V18.076H560.76ZM560.76 19.036V19.516H563.28V19.036H560.76Z" fill="#ffffff" fill-rule="evenodd"/><path transform="matrix(1,0,0,-1,0,595.276)" d="M567.6 19.636H568.68V16.396L568.32 16.276V18.436L568.44 18.556V18.676H568.32L568.2 18.796H567.48V16.156L567.12 16.036 567.36 15.316 567.48 15.196 567.6 15.316 570.6 16.276V16.996L569.52 16.636V17.956H570.36V18.676H569.52V19.636H570.24V20.596L570.72 20.236 571.56 21.196H573.24L572.88 20.596 572.4 20.116 572.16 20.356 571.92 20.716H571.2L571.44 20.116 571.8 19.636 570.96 19.156 570.24 18.916 570.72 18.316 571.68 18.676 572.4 19.156 573.36 18.556 574.32 18.196 575.04 18.916 573.96 19.156 573 19.516 573.84 20.476 574.32 21.436 573.96 21.916H572.04L572.28 22.156 572.4 22.276 572.52 22.396H572.4L572.28 22.516 571.8 22.756 570.96 21.556 570.24 20.836V22.156H567.6V19.636ZM568.32 20.356V21.556H569.4V20.356H568.32Z" fill="#ffffff" fill-rule="evenodd"/><path transform="matrix(1,0,0,-1,0,595.276)" d="M570.96 15.076H571.68V15.556H573.36V15.076H574.08V18.076H570.96V15.076ZM571.68 16.276V17.476H573.36V16.276H571.68Z" fill="#ffffff" fill-rule="evenodd"/><path transform="matrix(1,0,0,-1,0,595.276)" d="M579 22.636V21.556H577.68V20.956H579V19.996H577.44V19.276H579V16.516L578.4 17.236 578.64 18.076 578.76 18.196V18.316L578.64 18.436H578.4L577.92 18.556 577.8 17.716 577.68 16.876 577.44 16.156 577.08 15.556 577.8 15.196 578.04 15.796 578.16 16.396 578.88 15.796 579.6 15.436 580.8 15.196 581.88 15.076H583.2 584.52L584.88 15.796H583.08 581.64L580.56 15.916 579.72 16.156V17.476H580.92V18.196H579.72V19.276H581.16V19.996H579.72V20.956H580.92V21.556H579.72V22.276L579.84 22.396 579.96 22.516H579.84 579.72Z" fill="#ffffff" fill-rule="evenodd"/><path transform="matrix(1,0,0,-1,0,595.276)" d="M581.52 21.676V21.076H583.68V19.756H581.52V17.356L581.4 16.996 581.52 16.756 581.76 16.516 582.24 16.396H583.8L584.28 16.636 584.64 16.996 584.76 17.356 584.88 17.956 584.16 18.076 584.04 17.716V17.356L583.8 17.236 583.68 17.116H582.48 582.36L582.24 17.236 582.12 17.356V17.476 19.036H583.68V18.676H584.28V21.676Z" fill="#ffffff" fill-rule="evenodd"/><path transform="matrix(1,0,0,-1,0,595.276)" d="M589.8 22.276 589.2 22.516 588.84 21.436 588.36 20.476 587.76 19.516 587.16 18.796 587.76 18.196 588.36 19.156V15.076H589.2V20.476L589.8 21.916 590.04 22.036V22.156Z" fill="#ffffff" fill-rule="evenodd"/><path transform="matrix(1,0,0,-1,0,595.276)" d="M591.6 22.516V20.236H589.56V19.396H591.6L591.48 18.796V18.316L591.24 17.716 591 17.236 590.64 16.876 590.28 16.396 589.92 16.036 589.44 15.676 590.04 15.076 590.76 15.676 591.24 16.276 591.72 16.996 592.08 17.836 592.44 16.996 592.92 16.156 593.52 15.556 594.12 15.076 594.72 15.796 594.24 16.156 593.76 16.636 593.4 16.996 593.04 17.476 592.8 17.956 592.56 18.436 592.44 18.916V19.396H594.72V20.236H592.32V22.036L592.56 22.156V22.276L592.44 22.396 592.2 22.516Z" fill="#ffffff" fill-rule="evenodd"/><path transform="matrix(1,0,0,-1,0,595.276)" d="M593.4 22.036 592.8 21.556 593.4 20.956 593.88 20.476 594.48 20.956 594 21.556Z" fill="#ffffff" fill-rule="evenodd"/><path transform="matrix(1,0,0,-1,0,595.276)" stroke-width=".12" stroke-linecap="round" stroke-linejoin="round" fill="none" stroke="#ff0000" d="M599.64 12.556V33.436C599.64 34.396 598.8 35.236 597.84 35.236H554.16C553.2 35.236 552.36 34.396 552.36 33.436V12.556C552.36 11.476 553.2 10.636 554.16 10.636H597.84C598.8 10.636 599.64 11.476 599.64 12.556"/></g></svg>