<?xml version='1.0' encoding='UTF-8'?>
<svg xmlns="http://www.w3.org/2000/svg" xmlns:xlink="http://www.w3.org/1999/xlink" xmlns:inkscape="http://www.inkscape.org/namespaces/inkscape" version="1.1" width="567.000" height="269.280" viewBox="0 0 567.000 269.280"><g transform="scale(10.0) translate(-111.171, -370.368)"><defs><clipPath id="clip_2"><path transform="matrix(1,0,0,-1,0,595.276)" d="M74.4 .196H767.4V595.276H74.4Z"/></clipPath></defs><path transform="matrix(1,0,0,-1,0,595.276)" d="M125.64 201.676 138 222.916C138.12 223.276 138.36 223.516 138.6 223.636 138.96 223.756 139.32 223.876 139.56 223.876 139.92 223.876 140.28 223.756 140.52 223.636 140.88 223.516 141.12 223.276 141.24 222.916L153.48 201.676C153.84 201.076 153.84 200.356 153.48 199.876 153.36 199.516 153.12 199.276 152.76 199.156 152.52 198.916 152.16 198.916 151.92 198.916H127.32C126.6 198.916 126 199.276 125.64 199.876 125.4 200.356 125.4 201.076 125.64 201.676Z" fill="#ff0000" fill-rule="evenodd"/><path transform="matrix(1,0,0,-1,0,595.276)" d="M150.84 201.436 139.56 220.756 128.4 201.436Z" fill="#ffffff" fill-rule="evenodd"/><path transform="matrix(1,0,0,-1,0,595.276)" d="M137.04 209.956H138.12V210.556H137.04V211.276H138.24V211.756H136.44V208.876H137.04Z" fill-rule="evenodd"/><path transform="matrix(1,0,0,-1,0,595.276)" d="M140.64 209.956C140.64 210.676 140.28 211.036 139.56 211.036 138.96 211.036 138.6 210.676 138.6 209.956 138.6 209.236 138.96 208.756 139.56 208.756 139.92 208.756 140.16 208.876 140.4 209.116 140.52 209.236 140.64 209.596 140.64 209.956ZM140.04 209.956C140.04 209.716 140.04 209.596 139.92 209.476 139.8 209.356 139.8 209.356 139.56 209.356 139.44 209.356 139.32 209.356 139.32 209.476 139.2 209.596 139.2 209.716 139.2 209.956 139.2 210.316 139.32 210.436 139.56 210.436 139.8 210.436 139.8 210.436 139.92 210.316 140.04 210.196 140.04 210.076 140.04 209.956Z" fill-rule="evenodd"/><path transform="matrix(1,0,0,-1,0,595.276)" d="M142.92 208.756V210.916H142.44C142.44 211.036 142.2 211.036 141.96 211.036 141.36 211.036 141 210.676 141 209.956 141 209.236 141.36 208.996 141.96 208.996 141.96 208.996 142.08 208.996 142.2 208.996 142.32 208.996 142.32 208.996 142.32 209.116V208.996C142.32 208.756 142.2 208.636 142.08 208.636 141.96 208.636 141.84 208.636 141.72 208.756 141.6 208.756 141.48 208.756 141.24 208.876L141 208.396C141.24 208.276 141.6 208.156 141.96 208.036 142.56 208.036 142.92 208.276 142.92 208.756ZM142.32 210.196V209.716C142.32 209.716 142.32 209.596 142.2 209.596 142.2 209.476 142.08 209.476 142.08 209.476 141.72 209.476 141.6 209.596 141.6 209.956 141.6 210.316 141.72 210.436 141.96 210.556 142.2 210.436 142.32 210.316 142.32 210.196Z" fill-rule="evenodd"/><path transform="matrix(1,0,0,-1,0,595.276)" d="M137.88 206.476V206.116H139.44V205.996H137.52V205.036H138V205.636H139.44V204.796H139.8V205.636H141.24V205.036H141.72V205.996H139.8V206.116H141.36V206.476Z" fill-rule="evenodd"/><path transform="matrix(1,0,0,-1,0,595.276)" d="M138.24 205.516V205.276H139.2V205.516Z" fill-rule="evenodd"/><path transform="matrix(1,0,0,-1,0,595.276)" d="M138.24 205.036V204.796H139.2V205.036Z" fill-rule="evenodd"/><path transform="matrix(1,0,0,-1,0,595.276)" d="M137.76 204.676V204.316H138.6L138.36 204.196 138.24 204.316 138 204.076 138.36 203.836H137.52V203.596H138.24L137.76 203.116 137.28 202.876 137.76 202.636 138.12 202.996 138.48 203.476V202.876 202.756L138.36 202.636H138.24 138L138.12 202.276H138.24 138.48L138.6 202.396 138.72 202.516 138.84 202.636V203.116L138.72 203.596H138.96L138.84 203.356 139.08 203.116 139.44 203.716 139.08 203.956V203.836H138.72V203.956L139.2 204.556 138.84 204.676H138.72Z" fill-rule="evenodd"/><path transform="matrix(1,0,0,-1,0,595.276)" d="M140.28 204.676 139.92 204.796 139.68 204.436 139.32 204.076 139.56 203.836 139.8 204.076 139.92 203.956 140.16 203.716 139.44 203.476 139.56 203.236 140.16 203.476 140.04 203.236H139.44V202.876H139.92L139.8 202.756 139.56 202.636H139.32L138.96 202.516 139.32 202.276 139.68 202.396 139.92 202.516 140.16 202.756 140.28 202.876H141V202.756L140.88 202.636H140.76 140.64 140.4L140.52 202.276H140.88 141.12L141.24 202.516 141.36 202.756V203.236H140.4V203.356H140.52V203.476H140.4 140.16L140.4 203.596 141 203.356 141.6 203.236 141.84 203.596H141.24L140.76 203.836 141.24 204.196H141.72V204.436H140.16L140.28 204.676ZM140.16 204.196H140.76L140.4 203.956 140.28 204.076 140.16 204.196Z" fill-rule="evenodd"/><path transform="matrix(1,0,0,-1,0,595.276)" d="M140.04 205.516V205.276H141V205.516Z" fill-rule="evenodd"/><path transform="matrix(1,0,0,-1,0,595.276)" d="M140.04 205.036V204.796H141V205.036Z" fill-rule="evenodd"/></g></svg>