<?xml version='1.0' encoding='UTF-8'?>
<svg xmlns="http://www.w3.org/2000/svg" xmlns:xlink="http://www.w3.org/1999/xlink" xmlns:inkscape="http://www.inkscape.org/namespaces/inkscape" version="1.1" width="567.000" height="269.280" viewBox="0 0 567.000 269.280"><g transform="scale(10.0) translate(-329.439, -181.872)"><defs><clipPath id="clip_2"><path transform="matrix(1,0,0,-1,0,595.276)" d="M74.4 .196H767.4V595.276H74.4Z"/></clipPath></defs><path transform="matrix(1,0,0,-1,0,595.276)" d="M336.48 412.276H379.08C379.56 412.276 379.92 412.156 380.28 411.916 380.52 411.556 380.76 411.076 380.76 410.716V388.876C380.76 388.756 380.64 388.516 380.64 388.276 380.52 388.156 380.4 387.916 380.28 387.796 380.04 387.676 379.92 387.556 379.68 387.436 379.56 387.316 379.32 387.316 379.08 387.316H336.48C336.12 387.316 335.64 387.436 335.28 387.796 335.04 388.156 334.92 388.516 334.92 388.876V410.716C334.92 411.076 335.04 411.556 335.28 411.916 335.52 412.036 335.64 412.156 335.88 412.276 336.12 412.276 336.24 412.276 336.48 412.276ZM336.48 411.556C336.24 411.556 336 411.436 335.88 411.316 335.76 411.196 335.64 410.956 335.64 410.716V388.876C335.64 388.756 335.76 388.516 335.88 388.396 336 388.156 336.24 388.156 336.48 388.156H379.08C379.32 388.156 379.56 388.156 379.68 388.396 379.8 388.516 379.92 388.756 379.92 388.876V410.716C379.92 410.836 379.92 410.956 379.92 411.076 379.8 411.196 379.8 411.196 379.68 411.316 379.56 411.436 379.32 411.556 379.08 411.556H336.48Z" fill-rule="evenodd"/><path transform="matrix(1,0,0,-1,0,595.276)" d="M336.48 411.556H379.08C379.32 411.556 379.56 411.436 379.68 411.316 379.8 411.196 379.92 410.956 379.92 410.716V388.876C379.92 388.876 379.92 388.756 379.92 388.636 379.8 388.516 379.8 388.396 379.68 388.396 379.56 388.276 379.56 388.156 379.44 388.156 379.32 388.156 379.2 388.156 379.08 388.156H336.48C336.24 388.156 336 388.156 335.88 388.396 335.76 388.516 335.64 388.756 335.64 388.876V410.716C335.64 410.956 335.76 411.196 335.88 411.316 336 411.436 336.24 411.556 336.48 411.556Z" fill="#ffffff" fill-rule="evenodd"/><path transform="matrix(1,0,0,-1,0,595.276)" d="M364.92 394.636H365.64V398.836H364.92Z" fill-rule="evenodd"/><path transform="matrix(1,0,0,-1,0,595.276)" d="M364.92 400.876H365.64V405.076H364.92Z" fill-rule="evenodd"/><path transform="matrix(1,0,0,-1,0,595.276)" d="M349.92 394.636H350.64V398.836H349.92Z" fill-rule="evenodd"/><path transform="matrix(1,0,0,-1,0,595.276)" d="M349.92 400.876H350.64V405.076H349.92Z" fill-rule="evenodd"/><path transform="matrix(1,0,0,-1,0,595.276)" d="M374.4 409.156 376.44 407.116 374.4 405.076H372.24L373.68 406.396H372.6C372.12 406.396 371.52 406.276 371.16 405.796 370.68 405.436 370.56 404.836 370.56 404.356V401.956H369.12V404.356C369.12 404.716 369.24 405.196 369.36 405.676 369.6 406.036 369.84 406.516 370.2 406.756 370.56 407.116 370.92 407.356 371.4 407.596 371.76 407.716 372.24 407.836 372.6 407.836H373.68L372.24 409.156H374.4Z" fill-rule="evenodd"/><path transform="matrix(1,0,0,-1,0,595.276)" d="M359.4 409.156 361.44 407.116 359.4 405.076H357.24L358.68 406.396H357.6C357.36 406.396 357.12 406.396 356.88 406.276 356.64 406.156 356.4 406.036 356.16 405.796 355.92 405.556 355.8 405.316 355.68 405.076 355.56 404.836 355.56 404.596 355.56 404.356V390.436H354.12V404.356C354.12 405.196 354.48 406.036 355.2 406.756 355.92 407.476 356.76 407.836 357.6 407.836H358.68L357.24 409.156H359.4Z" fill-rule="evenodd"/><path transform="matrix(1,0,0,-1,0,595.276)" d="M341.28 409.156 339.12 407.116 341.28 405.076H343.32L341.88 406.396H342.96C343.44 406.396 344.04 406.276 344.4 405.796 344.88 405.436 345 404.836 345 404.356V390.436H346.44V404.356C346.44 404.716 346.32 405.196 346.2 405.676 345.96 406.036 345.72 406.516 345.36 406.756 345.12 407.116 344.64 407.356 344.28 407.596 343.8 407.716 343.32 407.836 342.96 407.836H341.88L343.32 409.156H341.28Z" fill-rule="evenodd"/><path transform="matrix(1,0,0,-1,0,595.276)" d="M364.92 407.116H365.64V410.716H364.92Z" fill-rule="evenodd"/><path transform="matrix(1,0,0,-1,0,595.276)" d="M349.92 407.116H350.64V410.716H349.92Z" fill-rule="evenodd"/><path transform="matrix(1,0,0,-1,0,595.276)" d="M349.92 388.876H350.64V392.596H349.92Z" fill-rule="evenodd"/><path transform="matrix(1,0,0,-1,0,595.276)" d="M364.92 388.876H365.64V392.596H364.92Z" fill-rule="evenodd"/><path transform="matrix(1,0,0,-1,0,595.276)" d="M378 395.356C378 396.676 377.52 397.996 376.44 399.076 375.48 400.156 374.04 400.636 372.84 400.636 371.52 400.636 370.2 400.156 369.12 399.076 368.04 397.996 367.56 396.676 367.56 395.356 367.56 394.156 368.04 392.836 369.12 391.756 370.2 390.676 371.52 390.196 372.84 390.196 374.04 390.196 375.48 390.676 376.44 391.756 377.52 392.836 378 394.156 378 395.356ZM376.08 392.836 370.2 398.716C370.56 398.956 371.04 399.196 371.52 399.436 372 399.556 372.48 399.556 373.08 399.556 374.16 399.556 375.12 399.076 375.72 398.356 376.44 397.636 376.92 396.796 376.92 395.716 377.04 394.636 376.68 393.556 376.08 392.836ZM369.48 397.996 375.36 392.116C375 391.876 374.52 391.636 374.04 391.396 373.56 391.276 373.08 391.276 372.6 391.276 371.4 391.276 370.56 391.756 369.84 392.476 369.24 393.076 368.76 394.036 368.64 395.116 368.52 396.196 368.88 397.276 369.48 397.996Z" fill="#ff0000" fill-rule="evenodd"/><path transform="matrix(1,0,0,-1,0,595.276)" d="M376.08 397.276H371.64L373.8 395.116H376.08Z" fill-rule="evenodd"/><path transform="matrix(1,0,0,-1,0,595.276)" d="M373.92 394.996H376.2V394.396H375.12 375.24V394.276 394.156 394.036 394.156 394.276C375.12 394.396 375.12 394.396 375 394.516 374.88 394.516 374.76 394.516 374.76 394.516 374.64 394.516 374.52 394.516 374.52 394.516L373.92 394.996Z" fill-rule="evenodd"/><path transform="matrix(1,0,0,-1,0,595.276)" d="M374.52 394.396C374.76 394.516 374.88 394.396 375 394.276 375.12 394.276 375.12 394.156 375.24 394.036 375.24 393.916 375.24 393.916 375.12 393.796L375 394.036 374.88 394.156H374.76L374.52 394.396Z" fill-rule="evenodd"/><path transform="matrix(1,0,0,-1,0,595.276)" d="M372.12 394.036H373.32V394.156L373.08 394.396H372.12Z" fill-rule="evenodd"/><path transform="matrix(1,0,0,-1,0,595.276)" d="M370.44 396.556H369.84V397.276H370.2L372.36 395.116H372V394.996H372.48L373.08 394.396H372V393.916H371.04C371.04 394.156 370.92 394.276 370.92 394.396 370.8 394.516 370.56 394.516 370.44 394.516 370.32 394.516 370.2 394.516 370.08 394.396 369.96 394.276 369.96 394.156 369.96 393.916H369.48V394.876 394.996 395.116L370.44 396.556ZM370.44 396.316 369.84 395.596V395.476C369.84 395.356 369.84 395.356 369.96 395.356H371.04V396.316H370.44Z" fill-rule="evenodd"/><path transform="matrix(1,0,0,-1,0,595.276)" d="M370.92 393.916C370.92 394.276 370.8 394.396 370.44 394.396 370.2 394.396 369.96 394.276 369.96 393.916 369.96 393.676 370.2 393.436 370.44 393.436 370.8 393.436 370.92 393.676 370.92 393.916ZM370.68 393.916C370.68 393.796 370.56 393.676 370.44 393.676 370.32 393.676 370.2 393.796 370.2 393.916 370.2 394.156 370.32 394.156 370.44 394.156 370.56 394.156 370.68 394.156 370.68 393.916Z" fill-rule="evenodd"/></g></svg>