<?xml version='1.0' encoding='UTF-8'?>
<svg xmlns="http://www.w3.org/2000/svg" xmlns:xlink="http://www.w3.org/1999/xlink" xmlns:inkscape="http://www.inkscape.org/namespaces/inkscape" version="1.1" width="567.000" height="269.280" viewBox="0 0 567.000 269.280"><g transform="scale(10.0) translate(-111.171, -181.872)"><defs><clipPath id="clip_2"><path transform="matrix(1,0,0,-1,0,595.276)" d="M74.4 .196H767.4V595.276H74.4Z"/></clipPath></defs><path transform="matrix(1,0,0,-1,0,595.276)" d="M120.96 412.276H158.16C158.52 412.276 158.88 412.156 159.12 411.916 159.36 411.676 159.48 411.316 159.48 410.956V388.636C159.48 388.396 159.36 388.036 159.12 387.796 159 387.676 158.88 387.556 158.64 387.436 158.52 387.436 158.4 387.436 158.16 387.436H120.96C120.24 387.436 119.76 388.036 119.76 388.636V410.956C119.76 411.316 119.88 411.676 120.12 411.916 120.36 412.156 120.72 412.276 120.96 412.276Z" fill="#ffffff" fill-rule="evenodd"/><path transform="matrix(1,0,0,-1,0,595.276)" d="M120.96 388.036H158.16C158.4 388.036 158.52 388.156 158.64 388.276 158.76 388.396 158.88 388.516 158.88 388.636V410.956C158.88 411.076 158.88 411.076 158.76 411.196 158.76 411.316 158.76 411.316 158.64 411.436 158.64 411.436 158.52 411.556 158.4 411.556 158.4 411.556 158.28 411.556 158.16 411.556H120.96C120.84 411.556 120.72 411.556 120.6 411.436 120.48 411.316 120.48 411.316 120.36 411.196 120.36 411.076 120.36 411.076 120.36 410.956V388.636C120.36 388.516 120.36 388.396 120.6 388.276 120.72 388.156 120.84 388.036 120.96 388.036Z" fill="#ff0000" fill-rule="evenodd"/><path transform="matrix(1,0,0,-1,0,595.276)" d="M125.4 406.036H127.68V406.636H125.88V407.596H127.44V408.076H125.88V409.036H127.56V409.516H125.4Z" fill="#ffffff" fill-rule="evenodd"/><path transform="matrix(1,0,0,-1,0,595.276)" d="M132.48 406.036H134.76V406.636H133.08V407.596H134.52V408.076H133.08V409.036H134.64V409.516H132.48Z" fill="#ffffff" fill-rule="evenodd"/><path transform="matrix(1,0,0,-1,0,595.276)" d="M135.96 407.116 135.48 406.636C135.6 406.516 135.72 406.396 135.84 406.396 136.2 406.156 136.44 406.036 136.8 406.036 137.16 406.036 137.64 406.156 137.88 406.396 137.88 406.396 138 406.516 138.12 406.636 138.12 406.756 138.12 406.756 138.12 406.876V406.996 407.116 407.236 407.356C138.12 407.476 138 407.716 137.88 407.836 137.76 407.956 137.76 407.956 137.64 407.956 137.52 407.956 137.52 408.076 137.4 408.076L136.56 408.196C136.56 408.196 136.44 408.196 136.44 408.316 136.32 408.316 136.2 408.436 136.2 408.556 136.2 408.676 136.2 408.916 136.32 408.916 136.44 409.036 136.56 409.036 136.8 409.036 137.04 409.036 137.4 408.916 137.64 408.676L138.12 409.036C137.64 409.396 137.28 409.636 136.8 409.636 136.44 409.636 136.08 409.516 135.84 409.276 135.72 409.156 135.6 408.916 135.6 408.556 135.6 408.316 135.72 408.076 135.84 407.836 135.96 407.836 136.08 407.836 136.2 407.716 136.32 407.716 136.56 407.596 136.8 407.596 137.04 407.596 137.4 407.476 137.52 407.356 137.64 407.236 137.64 406.996 137.52 406.876 137.4 406.636 137.16 406.636 136.92 406.636 136.56 406.636 136.2 406.756 135.96 407.116Z" fill="#ffffff" fill-rule="evenodd"/><path transform="matrix(1,0,0,-1,0,595.276)" d="M139.56 409.036V406.036H140.16V409.036H141.12V409.516H138.6V409.036Z" fill="#ffffff" fill-rule="evenodd"/><path transform="matrix(1,0,0,-1,0,595.276)" d="M145.92 406.036H145.32V409.516H145.92Z" fill="#ffffff" fill-rule="evenodd"/><path transform="matrix(1,0,0,-1,0,595.276)" d="M151.2 408.676 152.88 406.036H153.48V409.516H153V406.996L151.2 409.516H150.6V406.036H151.2Z" fill="#ffffff" fill-rule="evenodd"/><path transform="matrix(1,0,0,-1,0,595.276)" d="M156.6 408.676 157.08 409.036C156.72 409.396 156.24 409.636 155.76 409.636 155.52 409.636 155.16 409.516 154.92 409.276 154.68 409.156 154.56 408.916 154.56 408.556 154.56 408.316 154.68 408.076 154.92 407.836 154.92 407.836 155.04 407.836 155.16 407.716 155.4 407.716 155.52 407.596 155.76 407.596H155.88C156.12 407.596 156.36 407.476 156.48 407.356 156.6 407.236 156.6 406.996 156.48 406.876 156.48 406.636 156.12 406.636 155.88 406.636 155.52 406.636 155.16 406.756 154.92 407.116L154.44 406.636C154.56 406.516 154.68 406.396 154.8 406.396 155.16 406.156 155.52 406.036 155.88 406.036 156.24 406.036 156.6 406.156 156.84 406.396 156.96 406.396 156.96 406.516 157.08 406.636 157.08 406.756 157.08 406.756 157.08 406.876L157.2 406.996V407.116 407.236 407.356C157.08 407.476 156.96 407.716 156.84 407.836 156.84 407.956 156.72 407.956 156.6 407.956 156.6 407.956 156.48 408.076 156.36 408.076L155.52 408.196C155.52 408.196 155.4 408.196 155.4 408.316 155.28 408.316 155.16 408.436 155.16 408.556 155.16 408.676 155.28 408.916 155.4 408.916 155.52 409.036 155.64 409.036 155.76 409.036 156 409.036 156.36 408.916 156.6 408.676Z" fill="#ffffff" fill-rule="evenodd"/><path transform="matrix(1,0,0,-1,0,595.276)" d="M122.76 406.036H122.16V409.516H123.6C123.84 409.516 124.08 409.516 124.2 409.276 124.44 409.036 124.56 408.796 124.56 408.436 124.56 408.196 124.44 407.956 124.2 407.716 124.2 407.596 124.08 407.476 123.96 407.476 123.84 407.356 123.72 407.356 123.6 407.356H122.76V406.036ZM123.48 409.036V409.036H122.76V407.956H123.48C123.6 407.956 123.72 407.956 123.72 408.076 123.84 408.196 123.96 408.316 123.96 408.436 123.96 408.676 123.84 408.796 123.72 408.916 123.72 409.036 123.6 409.036 123.48 409.036Z" fill="#ffffff" fill-rule="evenodd"/><path transform="matrix(1,0,0,-1,0,595.276)" d="M129.96 409.516C130.32 409.516 130.68 409.396 131.04 409.036 131.28 408.676 131.52 408.196 131.52 407.836 131.52 407.356 131.28 406.996 131.04 406.636 130.92 406.396 130.68 406.276 130.56 406.156 130.32 406.156 130.08 406.036 129.96 406.036H128.64V409.516H129.96ZM129.96 409.036H129.24V406.636H129.96C130.2 406.636 130.44 406.756 130.56 406.996 130.8 407.236 130.92 407.596 130.92 407.836 130.92 408.076 130.8 408.436 130.56 408.676 130.44 408.916 130.2 409.036 129.96 409.036Z" fill="#ffffff" fill-rule="evenodd"/><path transform="matrix(1,0,0,-1,0,595.276)" d="M143.76 406.036H144.36L143.64 407.476C144.12 407.596 144.36 408.196 144.36 408.676 144.24 408.916 144.12 409.156 144 409.276 143.88 409.516 143.64 409.516 143.4 409.516H141.84V406.036H142.44V407.476H143.04L143.76 406.036ZM142.44 407.956V409.036H143.28C143.52 409.036 143.76 408.796 143.76 408.556 143.76 408.316 143.64 408.196 143.64 408.076 143.52 407.956 143.4 407.956 143.28 407.956H142.44Z" fill="#ffffff" fill-rule="evenodd"/><path transform="matrix(1,0,0,-1,0,595.276)" d="M149.04 406.756 149.16 406.036H149.76L148.68 409.516H147.84L146.76 406.036H147.36L147.48 406.756H149.04ZM148.32 408.916 148.8 407.236H147.72L148.32 408.916Z" fill="#ffffff" fill-rule="evenodd"/><path transform="matrix(1,0,0,-1,0,595.276)" d="M133.56 394.636 134.16 394.396 134.76 394.876 135.36 395.356 135.48 395.476H135.6L135.48 395.596 135 395.716 134.28 395.116Z" fill="#ffffff" fill-rule="evenodd"/><path transform="matrix(1,0,0,-1,0,595.276)" d="M133.56 392.956 134.04 392.596 134.52 393.196V390.676H135.12V393.796L135.36 394.156 135.6 394.396 135.72 394.516V394.636H135.6L135.12 394.756 134.76 394.276 134.4 393.796 133.92 393.316Z" fill="#ffffff" fill-rule="evenodd"/><path transform="matrix(1,0,0,-1,0,595.276)" d="M136.08 395.476V394.996H138.36V395.476Z" fill="#ffffff" fill-rule="evenodd"/><path transform="matrix(1,0,0,-1,0,595.276)" d="M137.28 393.436V391.756 391.516 391.396H137.16L137.04 391.276H136.44L136.68 390.676H136.92L137.16 390.796H137.4 137.52L137.64 390.916 137.76 391.036 137.88 391.276V391.396 391.636 393.436H138.72V393.916H135.6V393.436Z" fill="#ffffff" fill-rule="evenodd"/><path transform="matrix(1,0,0,-1,0,595.276)" d="M143.16 395.836H142.8V394.756L142.56 393.796V393.436L142.32 393.076 142.08 392.716 141.84 392.476 141.6 392.116 141.24 391.876 140.88 391.636 140.4 391.396 140.88 390.916 141.36 391.156 141.72 391.516 142.08 391.756 142.32 392.116 142.56 392.476 142.8 392.836 142.92 393.196 143.04 393.556 143.52 392.716 143.88 391.996 144.36 391.396 144.96 390.796 145.56 391.276 145.2 391.516 144.84 391.756 144.48 392.116 144.24 392.476 144 392.956 143.76 393.436 143.52 393.916 143.28 394.396V394.996 395.596H143.4L143.52 395.716 143.4 395.836Z" fill="#ffffff" fill-rule="evenodd"/><path transform="matrix(1,0,0,-1,0,595.276)" d="M143.28 398.596 145.8 401.116 143.28 403.636H140.88L142.56 401.956H133.44V400.276H142.56L140.88 398.596Z" fill="#ffffff" fill-rule="evenodd"/><path transform="matrix(1,0,0,-1,0,595.276)" stroke-width=".12" stroke-linecap="round" stroke-linejoin="round" fill="none" stroke="#ff0000" d="M158.16 387.436C158.88 387.436 159.48 388.036 159.48 388.636V410.956C159.48 411.676 158.88 412.276 158.16 412.276H120.96C120.24 412.276 119.76 411.676 119.76 410.956V388.636C119.76 388.036 120.24 387.436 120.96 387.436H158.16"/></g></svg>