<?xml version='1.0' encoding='UTF-8'?>
<svg xmlns="http://www.w3.org/2000/svg" xmlns:xlink="http://www.w3.org/1999/xlink" xmlns:inkscape="http://www.inkscape.org/namespaces/inkscape" version="1.1" width="566.700" height="269.280" viewBox="0 0 566.700 269.280"><g transform="scale(10.0) translate(-56.655, -181.872)"><defs><clipPath id="clip_14"><path transform="matrix(1,0,0,-1,0,595.276)" d="M19.8 .046H822.06V595.276H19.8Z"/></clipPath></defs><path transform="matrix(1,0,0,-1,0,595.276)" d="M90.36 387.016H79.77C79.53 387.016 79.26 387.076 78.99 387.166 78.72 387.286 78.48 387.436 78.27 387.646 78.06 387.856 77.91 388.096 77.82 388.366 77.7 388.606 77.67 388.876 77.67 389.146V410.296C77.67 410.536 77.7 410.806 77.82 411.076 77.91 411.316 78.06 411.586 78.27 411.796 78.48 411.976 78.72 412.156 78.99 412.246 79.26 412.366 79.53 412.396 79.77 412.396H90.36C90.6 412.396 90.87 412.366 91.14 412.246 91.38 412.156 91.62 411.976 91.83 411.796 92.04 411.586 92.22 411.316 92.31 411.076 92.43 410.806 92.46 410.536 92.46 410.296V389.146C92.46 388.876 92.43 388.606 92.31 388.366 92.22 388.096 92.04 387.856 91.83 387.646 91.65 387.436 91.38 387.286 91.14 387.166 90.87 387.076 90.6 387.016 90.36 387.016Z" fill="#ffffff" fill-rule="evenodd"/><path transform="matrix(1,0,0,-1,0,595.276)" d="M90.36 387.556H79.77C79.59 387.556 79.38 387.586 79.2 387.646 78.99 387.736 78.81 387.856 78.66 388.006 78.48 388.156 78.39 388.366 78.3 388.546 78.21 388.756 78.18 388.936 78.18 389.146V410.296C78.18 410.476 78.21 410.686 78.3 410.866 78.39 411.076 78.48 411.256 78.66 411.406 78.81 411.556 78.99 411.676 79.2 411.766 79.38 411.826 79.59 411.886 79.77 411.886H90.36C90.54 411.886 90.75 411.826 90.93 411.766 91.14 411.676 91.32 411.556 91.47 411.406 91.62 411.256 91.74 411.076 91.83 410.866 91.89 410.686 91.92 410.476 91.92 410.296V389.146C91.92 388.726 91.77 388.306 91.47 388.006 91.17 387.706 90.78 387.556 90.36 387.556Z" fill="#0000ff" fill-rule="evenodd"/><path transform="matrix(1,0,0,-1,0,595.276)" d="M80.19 398.086 90.87 392.656 89.91 390.766 79.23 396.196Z" fill="#ffffff" fill-rule="evenodd"/><path transform="matrix(.03,0,0,.03,0,0)" stroke-width="5" stroke-linecap="round" stroke-linejoin="round" fill="none" stroke="#0000ff" d="M3082 6871V6166C3082 6148 3075 6130 3061 6116 3048 6103 3030 6096 3012 6096H2659C2640 6096 2622 6103 2609 6116 2596 6130 2589 6148 2589 6166V6871C2589 6890 2596 6908 2609 6921 2622 6934 2640 6942 2659 6942H3012C3030 6942 3048 6934 3061 6921 3075 6908 3082 6890 3082 6871"/></g></svg>