<?xml version='1.0' encoding='UTF-8'?>
<svg xmlns="http://www.w3.org/2000/svg" xmlns:xlink="http://www.w3.org/1999/xlink" xmlns:inkscape="http://www.inkscape.org/namespaces/inkscape" version="1.1" width="566.700" height="269.280" viewBox="0 0 566.700 269.280"><g transform="scale(10.0) translate(-383.985, -424.224)"><defs><clipPath id="clip_14"><path transform="matrix(1,0,0,-1,0,595.276)" d="M19.8 .046H822.06V595.276H19.8Z"/></clipPath></defs><path transform="matrix(1,0,0,-1,0,595.276)" d="M425.67 169.936H405.3C404.91 169.936 404.52 169.816 404.16 169.606 403.83 169.426 403.53 169.126 403.35 168.796L397.08 157.936C396.99 157.756 396.93 157.576 396.93 157.366 396.93 157.156 396.99 156.976 397.08 156.826L403.35 145.936C403.53 145.606 403.83 145.336 404.16 145.126 404.52 144.916 404.91 144.826 405.3 144.826H425.67C425.94 144.826 426.24 144.886 426.51 144.976 426.78 145.096 427.05 145.276 427.26 145.486 427.5 145.696 427.65 145.966 427.77 146.236 427.89 146.536 427.92 146.806 427.92 147.076V167.686C427.92 167.956 427.89 168.226 427.77 168.496 427.65 168.796 427.5 169.036 427.26 169.276 427.05 169.486 426.78 169.666 426.51 169.756 426.24 169.876 425.94 169.936 425.67 169.936ZM425.67 168.796C425.94 168.796 426.24 168.706 426.48 168.466 426.69 168.256 426.81 167.956 426.81 167.686V147.076C426.81 146.806 426.69 146.506 426.48 146.266 426.24 146.056 425.97 145.936 425.67 145.936H405.3C405.09 145.936 404.91 145.996 404.73 146.086 404.55 146.206 404.43 146.356 404.31 146.506L398.04 157.366 404.31 168.226C404.52 168.586 404.88 168.796 405.3 168.796H425.67Z" fill="#0000ff" fill-rule="evenodd"/><path transform="matrix(.03,0,0,.03,0,0)" stroke-width="5" stroke-linecap="round" stroke-linejoin="round" fill="none" stroke="#ffffff" d="M13510 14978H13511"/><path transform="matrix(1,0,0,-1,0,595.276)" d="M405.3 145.936C405.09 145.936 404.91 145.996 404.73 146.086 404.55 146.206 404.43 146.356 404.31 146.506L398.04 157.366 404.31 168.226C404.43 168.406 404.55 168.556 404.73 168.646 404.91 168.766 405.09 168.796 405.3 168.796H425.67C425.94 168.796 426.24 168.706 426.48 168.466 426.69 168.256 426.81 167.956 426.81 167.686V147.076C426.81 146.806 426.69 146.506 426.48 146.266 426.24 146.056 425.97 145.936 425.67 145.936H405.3Z" fill="#ffffff" fill-rule="evenodd"/><path transform="matrix(1,0,0,-1,0,595.276)" d="M410.97 167.356H425.04V147.406H410.97Z" fill="#0000ff" fill-rule="evenodd"/><path transform="matrix(1,0,0,-1,0,595.276)" d="M403.92 157.366 409.86 167.686H406.05L400.08 157.366 406.05 147.076H409.86Z" fill-rule="evenodd"/><path transform="matrix(1,0,0,-1,0,595.276)" d="M416.25 159.706H419.13C419.52 159.706 419.94 159.796 420.33 159.946 420.75 160.126 421.14 160.366 421.47 160.696 421.8 161.026 422.04 161.416 422.22 161.806 422.37 162.226 422.43 162.646 422.43 163.036 422.43 163.936 422.1 164.776 421.47 165.376 420.84 166.006 420 166.366 419.13 166.366H413.58V155.296H416.25V159.706ZM416.25 161.506V164.596H418.44C418.8 164.596 419.13 164.446 419.4 164.206 419.64 163.966 419.79 163.606 419.79 163.276V162.826C419.79 162.676 419.76 162.496 419.7 162.346 419.61 162.166 419.52 162.016 419.4 161.896 419.25 161.746 419.1 161.656 418.95 161.596 418.77 161.506 418.62 161.506 418.44 161.506H416.25Z" fill="#ffffff" fill-rule="evenodd"/><path transform="matrix(1,0,0,-1,0,595.276)" d="M420.09 152.956C420.18 152.956 420.27 152.986 420.36 153.046 420.45 153.136 420.48 153.226 420.48 153.316V153.466H418.86V153.406L419.76 153.076 419.46 152.536H416.25C416.34 152.686 416.34 152.836 416.25 152.986L415.89 153.466H416.73V153.826H415.65C415.59 153.826 415.5 153.766 415.47 153.706 415.44 153.676 415.44 153.616 415.44 153.586 415.44 153.556 415.47 153.526 415.47 153.496L415.95 152.806C415.98 152.776 415.98 152.776 415.98 152.746 415.98 152.716 415.98 152.716 415.95 152.686L415.62 151.636C415.41 151.726 415.14 151.786 414.84 151.786 414.54 151.756 414.24 151.666 413.97 151.456 413.73 151.276 413.52 151.036 413.4 150.766 413.28 150.496 413.25 150.226 413.25 149.986 413.28 149.746 413.34 149.476 413.49 149.236 413.64 148.966 413.85 148.756 414.15 148.606 414.42 148.426 414.72 148.366 415.02 148.396 415.32 148.396 415.56 148.486 415.77 148.606 415.98 148.726 416.19 148.906 416.37 149.146 416.52 149.386 416.64 149.686 416.64 149.986 416.67 150.316 416.58 150.616 416.46 150.886 416.31 151.156 416.13 151.336 415.92 151.486L415.95 151.606 417.84 150.076C417.84 150.016 417.84 149.956 417.87 149.866 417.93 149.806 417.96 149.746 418.02 149.686 418.17 149.566 418.35 149.566 418.47 149.596L418.53 149.446H418.44V149.356H418.56V149.326H418.68V149.356H418.77V149.446H418.65L418.56 149.626C418.62 149.656 418.68 149.686 418.74 149.746 418.77 149.806 418.8 149.836 418.83 149.926H419.37C419.4 149.686 419.46 149.476 419.58 149.266 419.7 149.056 419.85 148.876 420.06 148.726 420.27 148.546 420.51 148.456 420.75 148.426 420.99 148.366 421.2 148.366 421.41 148.426 421.62 148.456 421.83 148.546 422.04 148.696 422.22 148.816 422.4 148.996 422.52 149.236 422.67 149.446 422.73 149.686 422.76 149.926 422.79 150.166 422.76 150.406 422.67 150.616 422.61 150.796 422.52 151.006 422.34 151.186 422.19 151.366 421.98 151.516 421.77 151.636 421.53 151.726 421.29 151.786 421.05 151.786 420.78 151.786 420.57 151.726 420.39 151.636L419.85 152.536 420.09 152.956ZM419.37 152.206 418.44 150.586C418.41 150.586 418.38 150.586 418.32 150.586 418.29 150.586 418.26 150.586 418.23 150.586L418.17 150.706H418.26V150.796H418.14V150.856H418.02V150.796H417.93V150.706H418.05L418.14 150.526C418.08 150.496 418.02 150.466 417.96 150.406L416.07 151.936 416.16 152.206H419.37ZM418.74 150.406 419.73 152.116 420.09 151.456C419.88 151.336 419.73 151.156 419.61 150.946 419.46 150.706 419.4 150.496 419.37 150.256H418.83C418.8 150.316 418.77 150.376 418.74 150.406ZM419.73 150.256C419.76 150.616 419.97 150.946 420.24 151.156L420.78 150.256H419.73ZM421.08 149.926C421.11 149.926 421.17 149.926 421.2 149.986 421.23 150.016 421.23 150.046 421.23 150.076 421.23 150.106 421.23 150.136 421.23 150.166L420.54 151.336C420.69 151.396 420.87 151.426 421.08 151.426 421.26 151.426 421.47 151.396 421.65 151.306 421.83 151.216 421.98 151.096 422.1 150.946 422.22 150.796 422.31 150.646 422.37 150.496 422.4 150.316 422.43 150.136 422.43 149.956 422.4 149.776 422.34 149.566 422.25 149.386 422.13 149.236 422.01 149.086 421.83 148.966 421.68 148.846 421.53 148.786 421.35 148.756 421.2 148.726 421.02 148.696 420.81 148.756 420.63 148.786 420.45 148.846 420.27 148.966 420.12 149.086 419.97 149.236 419.88 149.416 419.79 149.566 419.73 149.746 419.73 149.926H421.08ZM418.77 150.076C418.77 150.016 418.77 149.986 418.74 149.926 418.71 149.866 418.68 149.836 418.65 149.776 418.56 149.686 418.44 149.656 418.35 149.656 418.26 149.656 418.14 149.686 418.05 149.776 417.96 149.866 417.93 149.986 417.93 150.076 417.93 150.196 417.96 150.286 418.05 150.376 418.14 150.466 418.26 150.496 418.35 150.496 418.44 150.496 418.56 150.466 418.65 150.376 418.74 150.286 418.77 150.196 418.77 150.076ZM414.93 150.256 414.87 150.226C414.78 150.166 414.75 150.076 414.81 149.986 414.84 149.926 414.93 149.896 415.02 149.926 415.17 150.016 415.32 150.136 415.44 150.286 415.56 150.436 415.62 150.586 415.68 150.766L415.8 151.126C415.95 151.006 416.1 150.856 416.19 150.646 416.28 150.436 416.34 150.166 416.31 149.926 416.28 149.686 416.19 149.446 416.04 149.266 415.89 149.086 415.71 148.936 415.56 148.846 415.38 148.786 415.17 148.726 414.93 148.726 414.69 148.726 414.45 148.786 414.24 148.936 414.03 149.056 413.85 149.236 413.76 149.446 413.64 149.656 413.61 149.866 413.61 150.076 413.58 150.256 413.64 150.466 413.73 150.676 413.85 150.886 414 151.066 414.21 151.216 414.42 151.366 414.66 151.426 414.9 151.426 415.14 151.456 415.35 151.396 415.5 151.306L415.38 150.856C415.29 150.616 415.14 150.406 414.93 150.256Z" fill="#ffffff" fill-rule="evenodd"/></g></svg>