<?xml version='1.0' encoding='UTF-8'?>
<svg xmlns="http://www.w3.org/2000/svg" xmlns:xlink="http://www.w3.org/1999/xlink" xmlns:inkscape="http://www.inkscape.org/namespaces/inkscape" version="1.1" width="566.700" height="269.280" viewBox="0 0 566.700 269.280"><g transform="scale(10.0) translate(-493.095, -181.872)"><defs><clipPath id="clip_14"><path transform="matrix(1,0,0,-1,0,595.276)" d="M19.8 .046H822.06V595.276H19.8Z"/></clipPath></defs><path transform="matrix(1,0,0,-1,0,595.276)" d="M540.42 411.406H502.68C502.44 411.406 502.17 411.316 501.96 411.106 501.75 410.896 501.66 410.626 501.66 410.386V389.026C501.66 388.786 501.75 388.516 501.96 388.306 502.17 388.096 502.44 388.006 502.68 388.006H540.42C540.54 388.006 540.66 388.036 540.78 388.066 540.9 388.126 541.02 388.216 541.14 388.306 541.23 388.396 541.29 388.516 541.35 388.666 541.41 388.786 541.44 388.906 541.44 389.026V410.386C541.44 410.656 541.32 410.926 541.14 411.106 540.93 411.316 540.69 411.406 540.42 411.406Z" fill="#ffff00" fill-rule="evenodd"/><path transform="matrix(1,0,0,-1,0,595.276)" d="M540.42 386.986H502.68C502.44 386.986 502.2 387.046 501.93 387.136 501.69 387.226 501.45 387.376 501.24 387.586 501.06 387.796 500.91 388.036 500.79 388.276 500.7 388.516 500.64 388.786 500.64 389.026V410.386C500.64 410.626 500.7 410.896 500.79 411.136 500.91 411.406 501.06 411.646 501.24 411.826 501.45 412.036 501.69 412.186 501.93 412.276 502.2 412.396 502.44 412.426 502.68 412.426H540.42C540.66 412.426 540.9 412.396 541.17 412.276 541.41 412.186 541.65 412.036 541.86 411.826 542.04 411.646 542.19 411.406 542.31 411.136 542.4 410.896 542.43 410.626 542.43 410.386V389.026C542.43 388.786 542.4 388.516 542.31 388.276 542.19 388.036 542.04 387.796 541.86 387.586 541.65 387.376 541.41 387.226 541.17 387.136 540.9 387.046 540.66 386.986 540.42 386.986ZM540.42 388.006C540.69 388.006 540.93 388.126 541.14 388.306 541.32 388.486 541.44 388.756 541.44 389.026V410.386C541.44 410.626 541.32 410.896 541.14 411.106 540.93 411.316 540.66 411.406 540.42 411.406H502.68C502.44 411.406 502.17 411.316 501.96 411.106 501.75 410.896 501.66 410.626 501.66 410.386V389.026C501.66 388.906 501.69 388.786 501.75 388.666 501.78 388.516 501.87 388.396 501.96 388.306 502.17 388.096 502.44 388.006 502.68 388.006H540.42Z" fill-rule="evenodd"/><path transform="matrix(1,0,0,-1,0,595.276)" d="M516.03 405.226H514.44V409.036H516.03C516.51 409.036 516.9 408.856 517.2 408.496 517.47 408.166 517.62 407.686 517.62 407.116 517.62 406.576 517.47 406.066 517.2 405.736 516.9 405.406 516.51 405.226 516.03 405.226ZM515.25 408.226V406.036H515.88 515.94C515.97 406.036 516.09 406.036 516.12 406.036H516.18C516.36 406.096 516.54 406.216 516.66 406.396 516.75 406.606 516.81 406.846 516.81 407.116 516.81 407.386 516.75 407.626 516.66 407.806 516.57 408.016 516.42 408.136 516.24 408.196H516.18C516.12 408.196 516 408.196 515.97 408.196L515.91 408.226H515.25Z" fill-rule="evenodd"/><path transform="matrix(1,0,0,-1,0,595.276)" d="M519.09 405.226V407.926H518.37V405.226Z" fill-rule="evenodd"/><path transform="matrix(1,0,0,-1,0,595.276)" d="M519.15 408.676C519.15 408.916 518.97 409.096 518.73 409.096 518.49 409.096 518.28 408.916 518.28 408.676 518.28 408.436 518.49 408.226 518.73 408.226 518.97 408.226 519.15 408.436 519.15 408.676Z" fill-rule="evenodd"/><path transform="matrix(1,0,0,-1,0,595.276)" d="M520.47 405.226 519.54 407.926H520.35L520.92 406.096 521.52 407.926H522.3L521.37 405.226H520.92Z" fill-rule="evenodd"/><path transform="matrix(1,0,0,-1,0,595.276)" d="M525.09 406.306C525.12 407.446 524.7 408.016 523.8 408.076 523.05 408.076 522.66 407.566 522.57 406.606 522.57 406.186 522.66 405.856 522.87 405.586 523.02 405.436 523.2 405.316 523.38 405.226 523.56 405.136 523.77 405.076 523.95 405.076 524.4 405.046 524.88 405.286 525.03 405.586L524.58 406.036C524.52 405.976 524.43 405.886 524.31 405.856 524.19 405.796 524.07 405.766 523.95 405.766 523.83 405.766 523.68 405.796 523.56 405.916 523.5 405.976 523.44 406.036 523.41 406.096 523.38 406.186 523.38 406.246 523.38 406.306H525.09ZM523.32 406.876V406.906C523.35 407.026 523.41 407.146 523.5 407.236 523.62 407.356 523.74 407.386 523.86 407.386 524.07 407.386 524.31 407.206 524.37 406.966V406.906 406.876H523.32Z" fill-rule="evenodd"/><path transform="matrix(1,0,0,-1,0,595.276)" d="M525.72 405.226V408.016H526.44V407.716C526.5 407.836 526.62 407.956 526.77 407.986 526.92 408.046 527.1 408.076 527.34 408.076V407.326C527.07 407.296 526.86 407.236 526.71 407.146 526.59 407.056 526.5 406.966 526.47 406.816V405.226H525.72Z" fill-rule="evenodd"/><path transform="matrix(1,0,0,-1,0,595.276)" d="M528.87 407.926H529.59V407.296H528.87V406.066C528.87 405.976 528.9 405.916 528.96 405.856 528.99 405.826 529.08 405.796 529.17 405.766 529.2 405.766 529.26 405.766 529.35 405.796 529.41 405.796 529.47 405.826 529.56 405.826L529.68 405.226C529.56 405.106 529.29 405.046 528.9 405.076 528.66 405.076 528.48 405.136 528.36 405.256 528.24 405.376 528.15 405.526 528.12 405.766V407.296H527.67V407.926H528.12V408.826L528.87 409.036V407.926Z" fill-rule="evenodd"/><path transform="matrix(1,0,0,-1,0,595.276)" d="M532.59 406.306C532.62 407.446 532.17 408.016 531.3 408.076 530.55 408.076 530.13 407.566 530.04 406.606 530.04 406.186 530.16 405.856 530.37 405.586 530.49 405.436 530.67 405.316 530.88 405.226 531.06 405.136 531.27 405.076 531.45 405.076 531.9 405.046 532.38 405.286 532.5 405.586L532.05 406.036C532.02 405.976 531.93 405.886 531.81 405.856 531.69 405.796 531.57 405.766 531.45 405.766 531.3 405.766 531.15 405.796 531.03 405.916 530.97 405.976 530.94 406.036 530.91 406.096 530.88 406.186 530.85 406.246 530.85 406.306H532.59ZM530.82 406.876V406.906C530.82 407.026 530.88 407.146 531 407.236 531.09 407.356 531.24 407.386 531.33 407.386 531.57 407.386 531.81 407.206 531.84 406.966V406.906L531.87 406.876H530.82Z" fill-rule="evenodd"/><path transform="matrix(1,0,0,-1,0,595.276)" d="M535.02 407.836V409.036H535.74V405.136H534.99V405.286C534.87 405.166 534.66 405.076 534.33 405.076 533.7 405.046 533.16 405.496 533.04 406.426L533.07 406.486V406.756 406.846C533.13 407.596 533.61 407.986 534.27 408.016 534.48 408.046 534.72 407.956 535.02 407.836ZM534.99 406.126V406.786C534.99 406.906 534.99 406.936 534.96 406.996 534.96 407.056 534.9 407.086 534.9 407.116L534.87 407.146C534.75 407.266 534.6 407.326 534.45 407.326 534.03 407.296 533.82 407.056 533.79 406.576 533.79 406.036 534 405.766 534.42 405.736 534.69 405.766 534.87 405.886 534.99 406.126Z" fill-rule="evenodd"/><path transform="matrix(1,0,0,-1,0,595.276)" d="M518.16 402.496H518.85V401.836H518.16V400.636C518.16 400.546 518.19 400.456 518.22 400.426 518.28 400.366 518.34 400.336 518.46 400.306 518.49 400.306 518.55 400.306 518.61 400.336 518.67 400.336 518.76 400.366 518.85 400.396L518.97 399.766C518.82 399.676 518.55 399.616 518.16 399.616 517.95 399.616 517.77 399.676 517.65 399.796 517.5 399.916 517.44 400.096 517.41 400.306V401.836H516.96V402.496H517.41V403.366L518.16 403.606V402.496Z" fill-rule="evenodd"/><path transform="matrix(1,0,0,-1,0,595.276)" d="M519.51 399.766V402.556H520.23V402.286C520.29 402.406 520.41 402.496 520.56 402.556 520.71 402.616 520.89 402.646 521.13 402.616V401.866C520.86 401.836 520.65 401.776 520.5 401.686 520.35 401.626 520.29 401.506 520.26 401.386V399.766H519.51Z" fill-rule="evenodd"/><path transform="matrix(1,0,0,-1,0,595.276)" d="M524.25 400.216 524.04 399.676C523.86 399.646 523.68 399.676 523.56 399.736 523.44 399.766 523.38 399.856 523.35 399.946 523.26 399.796 522.93 399.646 522.66 399.616 522.3 399.616 522.03 399.706 521.85 399.886 521.64 400.066 521.55 400.306 521.55 400.636 521.55 400.936 521.67 401.146 521.94 401.296 522.21 401.446 522.63 401.536 523.17 401.536V401.656C523.17 401.746 523.14 401.836 523.08 401.896 523.02 401.926 522.96 401.956 522.84 401.956 522.66 401.956 522.51 401.926 522.36 401.896 522.21 401.836 522.09 401.746 521.97 401.656L521.61 402.196C521.91 402.496 522.3 402.646 522.81 402.646 523.17 402.646 523.44 402.586 523.62 402.436 523.83 402.316 523.95 402.106 523.98 401.836V400.426C523.98 400.306 524.07 400.246 524.25 400.216ZM522.36 400.606C522.36 400.486 522.39 400.396 522.45 400.366 522.54 400.306 522.63 400.276 522.78 400.276 522.99 400.306 523.11 400.366 523.17 400.456V400.936C522.9 400.936 522.69 400.906 522.57 400.846 522.42 400.786 522.36 400.696 522.36 400.606Z" fill-rule="evenodd"/><path transform="matrix(1,0,0,-1,0,595.276)" d="M525.63 399.766V401.836H526.23V402.496H525.63V402.826C525.63 402.856 525.66 402.916 525.69 402.946 525.69 402.946 525.75 402.976 525.78 402.976 525.87 402.976 525.93 402.976 526.02 402.976 526.08 402.976 526.17 402.946 526.26 402.946L526.38 403.576C526.26 403.606 526.08 403.636 525.84 403.666 525.57 403.636 525.33 403.606 525.18 403.486 525.03 403.396 524.94 403.246 524.94 403.036V402.496H524.52V401.836H524.94V399.766H525.63Z" fill-rule="evenodd"/><path transform="matrix(1,0,0,-1,0,595.276)" d="M527.82 399.766V401.836H528.42V402.496H527.82V402.826C527.82 402.856 527.82 402.916 527.85 402.946 527.88 402.946 527.91 402.976 527.97 402.976 528.03 402.976 528.12 402.976 528.21 402.976 528.27 402.976 528.36 402.946 528.45 402.946L528.57 403.576C528.42 403.606 528.24 403.636 528.03 403.666 527.73 403.636 527.52 403.606 527.37 403.486 527.22 403.396 527.13 403.246 527.13 403.036V402.496H526.68V401.836H527.13V399.766H527.82Z" fill-rule="evenodd"/><path transform="matrix(1,0,0,-1,0,595.276)" d="M529.86 399.766V402.496H529.17V399.766Z" fill-rule="evenodd"/><path transform="matrix(1,0,0,-1,0,595.276)" d="M529.95 403.216C529.95 403.456 529.77 403.636 529.53 403.636 529.29 403.636 529.08 403.456 529.08 403.216 529.08 402.976 529.29 402.766 529.53 402.766 529.77 402.766 529.95 402.976 529.95 403.216Z" fill-rule="evenodd"/><path transform="matrix(1,0,0,-1,0,595.276)" d="M531.78 402.616C532.11 402.616 532.35 402.556 532.56 402.406 532.77 402.286 532.92 402.076 533.04 401.776L532.41 401.476C532.29 401.776 532.08 401.926 531.81 401.926 531.48 401.896 531.27 401.686 531.21 401.296 531.18 401.236 531.18 401.206 531.18 401.146 531.21 401.086 531.21 400.996 531.21 400.966V400.906C531.33 400.546 531.54 400.336 531.84 400.336 531.99 400.306 532.11 400.366 532.2 400.426 532.29 400.516 532.35 400.636 532.41 400.786L533.04 400.546C532.89 399.916 532.47 399.616 531.87 399.616 530.94 399.646 530.49 400.156 530.46 401.146 530.55 402.106 531 402.616 531.78 402.616Z" fill-rule="evenodd"/><path transform="matrix(1,0,0,-1,0,595.276)" d="M508.65 402.436 505.92 405.166 503.19 402.436V399.706L505.02 401.536V394.246H506.82V401.536L508.65 399.706Z" fill-rule="evenodd"/><path transform="matrix(1,0,0,-1,0,595.276)" d="M533.25 395.716H534.15V395.266H533.34V392.896H534.15V392.476H533.22V391.936H534.15V391.036H534.69V391.936H535.56V392.476H534.69V392.896H535.5V395.266H534.69V395.716H535.53V396.256H534.69V396.616L534.78 396.706V396.766L534.69 396.796 534.51 396.826H534.15V396.256H533.25V395.716ZM534.69 394.366V394.786H534.96V394.366H534.69ZM534.69 393.406V393.856H534.96V393.406H534.69ZM533.85 394.366V394.786H534.15V394.366H533.85ZM533.85 393.406V393.856H534.15V393.406H533.85Z" fill-rule="evenodd"/><path transform="matrix(1,0,0,-1,0,595.276)" d="M535.74 395.956H537.18V395.386H535.8V391.036H536.34V392.506L536.49 392.356 536.73 392.956 536.82 392.626 536.94 392.386 537.18 392.566V391.126H537.75V392.566L537.96 392.416 538.14 392.926 538.35 392.446 538.59 392.566V391.816 391.666L538.53 391.546 538.47 391.486H538.35 538.02L538.2 390.976H538.53L538.8 391.006 538.98 391.096 539.1 391.276 539.13 391.516V395.386H537.75V395.956H539.16V396.526H535.74V395.956ZM536.34 392.926V393.826H536.55L536.49 393.376 536.34 392.926ZM537.75 392.836V393.826H537.99L537.93 393.376 537.75 392.836ZM538.44 394.336H537.75V394.816H538.59V392.836L538.47 393.406 538.44 394.336ZM537.03 394.336H536.34V394.816H537.18V392.806L537.06 393.346 537.03 394.336Z" fill-rule="evenodd"/><path transform="matrix(1,0,0,-1,0,595.276)" d="M526.14 396.286V395.776H528.45V395.326H526.77V392.866H528.45V392.446H525.9V391.906H528.45V391.036H528.99V391.906H531.57V392.446H528.99V392.866H530.76V395.326H528.99V395.776H531.3V396.286H528.99V396.586L529.08 396.646 529.11 396.706 529.08 396.766 529.02 396.826 528.45 396.916V396.286H526.14ZM527.31 394.366V394.816H528.45V394.366H527.31ZM527.31 393.376V393.856H528.45V393.376H527.31ZM528.99 394.366V394.816H530.22V394.366H528.99ZM528.99 393.376V393.856H530.22V393.376H528.99Z" fill-rule="evenodd"/><path transform="matrix(1,0,0,-1,0,595.276)" d="M519 396.886 518.58 396.466 518.97 396.226 519.36 395.926 519.72 396.376 519.36 396.646Z" fill-rule="evenodd"/><path transform="matrix(1,0,0,-1,0,595.276)" d="M518.64 395.656 518.25 395.266 519.09 394.666 519.48 395.056Z" fill-rule="evenodd"/><path transform="matrix(1,0,0,-1,0,595.276)" d="M518.34 394.126V393.556H519.12V392.326L518.22 391.666 518.67 391.126 519.3 391.846 519.51 391.516 519.9 391.306 520.53 391.126 521.37 391.066H524.1L524.25 391.576H521.58L520.77 391.636 520.2 391.786 519.84 392.026 519.69 392.416V394.126Z" fill-rule="evenodd"/><path transform="matrix(1,0,0,-1,0,595.276)" d="M521.1 396.856 520.65 396.586 521.13 396.016H520.11V395.506H521.67L521.46 395.056H520.5V391.906H521.1V392.086H522.99V391.906H523.59V395.056H522.06L522.3 395.506H523.95V396.016H522.87L523.47 396.796 522.87 396.946 522.24 396.016H521.52L521.64 396.106 521.1 396.856ZM521.1 392.536V392.866H522.99V392.536H521.1ZM521.1 393.316V393.676H522.99V393.316H521.1ZM521.1 394.156V394.546H522.99V394.156H521.1Z" fill-rule="evenodd"/><path transform="matrix(1,0,0,-1,0,595.276)" d="M510.84 396.316V395.776H512.73V394.606H510.93V391.906L510.96 391.636 511.05 391.486 511.23 391.366 511.5 391.336H512.7L513.09 391.426 513.36 391.666 513.54 392.086 513.6 392.656 513.06 392.836 513 392.416 512.91 392.116 512.76 391.936 512.55 391.876H511.71L511.56 391.966 511.53 392.176V394.066H512.73V393.766H513.27V396.316Z" fill-rule="evenodd"/><path transform="matrix(1,0,0,-1,0,595.276)" d="M513.33 394.366 513.81 394.006 514.23 394.636 514.5 395.296H515.67V394.516L515.58 393.856 515.46 393.316 515.25 392.866 515.04 393.226 514.89 393.646 514.77 394.066 514.71 394.516 514.2 394.456 514.29 393.886 514.41 393.346 514.62 392.836 514.92 392.326 514.62 392.056 514.29 391.846 513.93 391.696 513.51 391.576 513.96 391.006 514.71 391.396 515.31 391.846 515.79 391.396 516.33 390.976 516.78 391.486 516.18 391.876 515.7 392.326 515.97 392.956 516.15 393.646 516.27 394.426 516.3 395.296H516.69V395.866H514.65L514.8 396.526 514.92 396.616V396.676L514.86 396.766 514.71 396.826 514.32 396.886 514.17 396.106 513.93 395.446 513.66 394.876Z" fill-rule="evenodd"/></g></svg>