<?xml version='1.0' encoding='UTF-8'?>
<svg xmlns="http://www.w3.org/2000/svg" xmlns:xlink="http://www.w3.org/1999/xlink" xmlns:inkscape="http://www.inkscape.org/namespaces/inkscape" version="1.1" width="566.700" height="269.280" viewBox="0 0 566.700 269.280"><g transform="scale(10.0) translate(-56.655, -478.080)"><defs><clipPath id="clip_14"><path transform="matrix(1,0,0,-1,0,595.276)" d="M19.8 .046H822.06V595.276H19.8Z"/></clipPath></defs><path transform="matrix(1,0,0,-1,0,595.276)" d="M63.39 116.206H106.71C106.92 116.206 107.1 116.176 107.31 116.086 107.52 116.026 107.7 115.906 107.85 115.756 108.03 115.576 108.15 115.396 108.21 115.186 108.3 115.006 108.33 114.796 108.33 114.616V92.446C108.33 92.236 108.3 92.056 108.21 91.846 108.15 91.636 108.03 91.456 107.85 91.306 107.7 91.156 107.52 91.036 107.31 90.946 107.1 90.856 106.92 90.826 106.71 90.826H63.39C63.21 90.826 63 90.856 62.82 90.946 62.61 91.036 62.43 91.156 62.25 91.306 62.1 91.456 61.98 91.636 61.92 91.846 61.83 92.056 61.8 92.236 61.8 92.446V114.616C61.8 114.796 61.83 115.006 61.92 115.186 61.98 115.396 62.1 115.576 62.25 115.756 62.43 115.906 62.61 116.026 62.82 116.086 63 116.176 63.21 116.206 63.39 116.206ZM63.39 115.396C63.21 115.396 63 115.336 62.82 115.186 62.67 115.006 62.61 114.796 62.61 114.616V92.446C62.61 92.356 62.61 92.236 62.64 92.146 62.7 92.056 62.76 91.936 62.82 91.876 63 91.696 63.21 91.636 63.39 91.636H106.71C106.92 91.636 107.13 91.696 107.28 91.876 107.46 92.026 107.52 92.236 107.52 92.446V114.616C107.52 114.796 107.46 115.006 107.28 115.186 107.13 115.336 106.92 115.396 106.71 115.396H63.39Z" fill-rule="evenodd"/><path transform="matrix(1,0,0,-1,0,595.276)" d="M106.71 115.396H63.39C63.3 115.396 63.21 115.396 63.12 115.366 63 115.306 62.91 115.246 62.82 115.186 62.76 115.096 62.7 115.006 62.64 114.886 62.61 114.796 62.61 114.706 62.61 114.616V92.446C62.61 92.236 62.67 92.026 62.82 91.876 62.91 91.786 63 91.726 63.12 91.696 63.21 91.636 63.3 91.636 63.39 91.636H106.71C106.92 91.636 107.13 91.696 107.28 91.876 107.37 91.936 107.43 92.056 107.46 92.146 107.52 92.236 107.52 92.356 107.52 92.446V114.616C107.52 115.036 107.16 115.396 106.71 115.396Z" fill="#ffffff" fill-rule="evenodd"/><path transform="matrix(1,0,0,-1,0,595.276)" d="M77.07 110.926H77.88V114.616H77.07Z" fill-rule="evenodd"/><path transform="matrix(1,0,0,-1,0,595.276)" d="M93.06 104.566H92.25V108.796H93.06Z" fill-rule="evenodd"/><path transform="matrix(1,0,0,-1,0,595.276)" d="M93.06 98.236H92.25V102.466H93.06Z" fill-rule="evenodd"/><path transform="matrix(1,0,0,-1,0,595.276)" d="M93.06 92.446H92.25V96.106H93.06Z" fill-rule="evenodd"/><path transform="matrix(1,0,0,-1,0,595.276)" d="M87.18 110.926V108.796L85.77 110.206V94.006H84.36V110.206L82.95 108.796V110.926L85.05 113.026Z" fill-rule="evenodd"/><path transform="matrix(1,0,0,-1,0,595.276)" d="M93.06 110.926H92.25V114.616H93.06Z" fill-rule="evenodd"/><path transform="matrix(1,0,0,-1,0,595.276)" d="M77.07 104.566H77.88V108.796H77.07Z" fill-rule="evenodd"/><path transform="matrix(1,0,0,-1,0,595.276)" d="M77.07 98.236H77.88V102.466H77.07Z" fill-rule="evenodd"/><path transform="matrix(1,0,0,-1,0,595.276)" d="M77.07 92.446H77.88V96.106H77.07Z" fill-rule="evenodd"/><path transform="matrix(1,0,0,-1,0,595.276)" d="M71.94 108.796H73.35V94.006H71.94V102.826C71.94 103.066 71.91 103.336 71.79 103.606 71.7 103.846 71.55 104.116 71.34 104.326 71.13 104.506 70.86 104.686 70.62 104.776 70.35 104.896 70.08 104.926 69.84 104.926H67.71L69.12 103.516H67.02L64.89 105.646 67.02 107.746H69.12L67.71 106.336H69.84C70.2 106.336 70.59 106.276 70.95 106.156 71.31 106.036 71.64 105.856 71.94 105.646V108.796Z" fill-rule="evenodd"/><path transform="matrix(1,0,0,-1,0,595.276)" d="M98.16 108.796V110.206L99.57 108.796V110.926L97.47 113.026 95.34 110.926V108.796L96.75 110.206V108.796 94.006H98.16V102.826C98.16 103.066 98.22 103.336 98.31 103.606 98.43 103.846 98.58 104.116 98.79 104.326 99 104.506 99.24 104.686 99.51 104.776 99.78 104.896 100.05 104.926 100.29 104.926H102.42L100.98 103.516H103.11L105.24 105.646 103.11 107.746H100.98L102.42 106.336H100.29C99.93 106.336 99.54 106.276 99.18 106.156 98.82 106.036 98.46 105.856 98.16 105.646V108.796Z" fill-rule="evenodd"/><path transform="matrix(1,0,0,-1,0,595.276)" d="M70.53 109.336H74.76V111.466H70.53Z" fill="#ff0000" fill-rule="evenodd"/></g></svg>