<?xml version='1.0' encoding='UTF-8'?>
<svg xmlns="http://www.w3.org/2000/svg" xmlns:xlink="http://www.w3.org/1999/xlink" xmlns:inkscape="http://www.inkscape.org/namespaces/inkscape" version="1.1" width="566.700" height="269.280" viewBox="0 0 566.700 269.280"><g transform="scale(10.0) translate(-56.655, -289.584)"><defs><clipPath id="clip_14"><path transform="matrix(1,0,0,-1,0,595.276)" d="M19.8 .046H822.06V595.276H19.8Z"/></clipPath></defs><path transform="matrix(1,0,0,-1,0,595.276)" d="M74.64 281.086V302.926C74.64 303.106 74.67 303.316 74.76 303.496 74.82 303.706 74.94 303.886 75.09 304.036 75.27 304.216 75.45 304.306 75.63 304.396 75.84 304.486 76.05 304.516 76.23 304.516H93.9C94.08 304.516 94.29 304.486 94.47 304.396 94.68 304.306 94.86 304.216 95.01 304.036 95.16 303.886 95.28 303.706 95.37 303.496 95.46 303.316 95.49 303.106 95.49 302.926V281.086C95.49 280.906 95.46 280.696 95.37 280.516 95.28 280.306 95.16 280.126 95.01 279.976 94.86 279.796 94.68 279.676 94.47 279.616 94.29 279.526 94.08 279.496 93.9 279.496H76.23C75.81 279.496 75.39 279.676 75.09 279.976 74.82 280.276 74.64 280.666 74.64 281.086Z" fill="#ffffff" fill-rule="evenodd"/><path transform="matrix(1,0,0,-1,0,595.276)" d="M75.42 281.086V302.926C75.42 303.016 75.45 303.106 75.48 303.226 75.54 303.316 75.6 303.406 75.66 303.496 75.75 303.556 75.84 303.616 75.93 303.676 76.02 303.706 76.14 303.706 76.23 303.706H93.9C94.08 303.706 94.29 303.646 94.47 303.496 94.62 303.316 94.68 303.106 94.68 302.926V281.086C94.68 280.906 94.62 280.696 94.47 280.516 94.38 280.456 94.29 280.396 94.2 280.336 94.08 280.306 93.99 280.306 93.9 280.306H76.23C75.78 280.306 75.42 280.636 75.42 281.086Z" fill="#0000ff" fill-rule="evenodd"/><path transform="matrix(1,0,0,-1,0,595.276)" d="M80.67 301.816V301.816Z" fill="#ffffff" fill-rule="evenodd"/><path transform="matrix(1,0,0,-1,0,595.276)" d="M80.67 301.816C80.58 301.996 80.43 302.176 80.22 302.326 80.01 302.476 79.77 302.566 79.5 302.536 79.23 302.536 78.99 302.446 78.81 302.296 78.6 302.146 78.45 301.966 78.36 301.756 78.27 301.576 78.21 301.336 78.18 301.066 78.18 300.766 78.24 300.496 78.39 300.226 78.51 299.956 78.69 299.776 78.9 299.656 79.11 299.506 79.32 299.476 79.53 299.476 79.59 299.476 79.68 299.476 79.74 299.476 79.8 299.506 79.86 299.536 79.95 299.566 80.01 299.596 80.07 299.626 80.13 299.656 80.16 299.686 80.19 299.716 80.19 299.746 80.22 299.746 80.25 299.776 80.28 299.806V299.836 299.566H80.73V301.186H79.44V300.766H80.28V300.586C80.28 300.436 80.22 300.256 80.07 300.136 79.92 299.986 79.71 299.926 79.53 299.926 79.41 299.926 79.26 299.956 79.14 300.046 79.02 300.136 78.9 300.286 78.81 300.466 78.72 300.646 78.69 300.826 78.69 301.036 78.69 301.216 78.75 301.396 78.81 301.516 78.84 301.666 78.93 301.816 79.05 301.906 79.2 302.026 79.35 302.086 79.5 302.086 79.65 302.086 79.8 302.056 79.95 301.936 80.07 301.846 80.16 301.726 80.22 301.576L80.67 301.816Z" fill="#ffffff" fill-rule="evenodd"/><path transform="matrix(1,0,0,-1,0,595.276)" d="M81.63 299.536H83.55V300.016H82.11V300.796H83.37V301.246H82.11V301.996H83.46V302.476H81.63Z" fill="#ffffff" fill-rule="evenodd"/><path transform="matrix(1,0,0,-1,0,595.276)" d="M86.07 302.476H83.94V302.026H84.75V299.536H85.26V302.026H86.07Z" fill="#ffffff" fill-rule="evenodd"/><path transform="matrix(.03,0,0,.03,0,0)" stroke-width="5" stroke-linecap="round" stroke-linejoin="round" fill="none" stroke="#ffffff" d="M2924 9760H2940V9858H2924V9760"/><path transform="matrix(1,0,0,-1,0,595.276)" d="M87.72 299.536H88.2V302.476H87.72Z" fill="#ffffff" fill-rule="evenodd"/><path transform="matrix(1,0,0,-1,0,595.276)" d="M91.14 299.536H91.71V302.476H91.23V300.346L89.79 302.476H89.22V299.536H89.73V301.666Z" fill="#ffffff" fill-rule="evenodd"/><path transform="matrix(1,0,0,-1,0,595.276)" d="M79.89 295.396H81.57V295.816H80.4V298.306H79.89Z" fill="#ffffff" fill-rule="evenodd"/><path transform="matrix(1,0,0,-1,0,595.276)" d="M82.74 298.306 81.81 295.396H82.26L82.44 295.906H83.67L83.85 295.396H84.3L83.37 298.306H82.74ZM83.52 296.326H82.56L83.04 297.766 83.52 296.326Z" fill="#ffffff" fill-rule="evenodd"/><path transform="matrix(1,0,0,-1,0,595.276)" d="M86.88 295.396H87.48V298.306H86.97V296.176L85.56 298.306H84.96V295.396H85.47V297.496Z" fill="#ffffff" fill-rule="evenodd"/><path transform="matrix(1,0,0,-1,0,595.276)" d="M88.47 295.396H90.39V295.846H88.95V296.626H90.21V297.076H88.95V297.826H90.3V298.306H88.47Z" fill="#ffffff" fill-rule="evenodd"/><path transform="matrix(1,0,0,-1,0,595.276)" d="M92.07 285.346 92.73 285.406V285.766L92.16 285.706 92.37 285.886 92.16 286.126 91.92 286.306 91.65 286.096 92.04 285.706 91.38 285.646 91.32 285.826V286.006L91.44 286.126 91.38 286.216 90.96 286.276V285.916L91.02 285.616 90.6 285.556V285.196L91.11 285.256 91.2 285.016 91.35 284.806 90.99 284.626 90.57 284.536 90.78 284.236 91.2 284.356 91.59 284.536 91.89 284.356 92.22 284.236H92.43L92.61 284.326 92.73 284.506 92.85 284.806 92.52 285.076 92.43 284.776 92.4 284.656 92.28 284.626 92.13 284.656 91.95 284.746 92.22 284.986H92.34L92.37 285.076 92.07 285.346 91.68 284.986 91.56 285.106 91.47 285.286 92.07 285.346Z" fill="#ffffff" fill-rule="evenodd"/><path transform="matrix(1,0,0,-1,0,595.276)" d="M91.86 284.296 91.65 284.026 92.1 283.726 91.41 283.636 91.35 283.816V284.026L91.41 284.056 91.44 284.116V284.176L91.38 284.236 90.99 284.266V283.936L91.05 283.606 90.63 283.546V283.186L91.11 283.246 91.2 282.976 91.35 282.766 90.99 282.616 90.6 282.496 90.78 282.166 91.2 282.316 91.59 282.466 91.92 282.256 92.34 282.136 92.52 282.166 92.7 282.256 92.79 282.436 92.88 282.676 92.55 282.886 92.49 282.646 92.4 282.556 92.31 282.526 92.13 282.586 91.95 282.676 92.31 283.006H92.4L92.46 283.036 92.49 283.066 92.46 283.156 92.19 283.396 92.76 283.456V283.816L92.13 283.726 92.34 283.966 91.86 284.296ZM91.5 283.276 92.1 283.366 91.71 282.946 91.56 283.096 91.5 283.276Z" fill="#ffffff" fill-rule="evenodd"/><path transform="matrix(1,0,0,-1,0,595.276)" d="M89.55 286.306 89.1 285.526 88.98 285.646 88.77 285.346 89.43 284.896 89.01 284.266H88.71L88.8 283.906 88.83 283.816 88.86 283.756 88.89 283.786 88.95 283.876 89.46 283.966V282.106H89.82V284.056L90.12 284.086 90.21 283.786 90.54 283.846 90.42 284.356 90.24 284.776 89.94 284.686 90.03 284.416 89.49 284.326 90.21 285.316 90.3 285.346 90.33 285.406V285.466L90.24 285.496 89.97 285.646 89.64 285.196 89.4 285.376 89.82 286.006 89.94 286.066 89.91 286.156Z" fill="#ffffff" fill-rule="evenodd"/><path transform="matrix(1,0,0,-1,0,595.276)" d="M89.19 283.636H88.89V283.066L88.77 282.496 89.16 282.436 89.25 282.886 89.28 283.486 89.34 283.546V283.606H89.31Z" fill="#ffffff" fill-rule="evenodd"/><path transform="matrix(1,0,0,-1,0,595.276)" d="M90.27 283.666 89.94 283.576 90 283.126 90.03 282.586 90.45 282.706Z" fill="#ffffff" fill-rule="evenodd"/><path transform="matrix(1,0,0,-1,0,595.276)" d="M77.19 285.286 77.64 285.046 78.18 285.436 78.72 285.886 78.78 285.946 78.81 286.006V286.036L78.75 286.066 78.36 286.216 77.79 285.676Z" fill="#ffffff" fill-rule="evenodd"/><path transform="matrix(1,0,0,-1,0,595.276)" d="M77.1 283.846 77.52 283.606 77.97 284.026V281.956H78.42V284.506L78.63 284.806 78.87 285.046 78.96 285.136 78.99 285.166 78.96 285.226 78.87 285.256 78.51 285.376 78.18 284.926 77.85 284.506 77.49 284.146Z" fill="#ffffff" fill-rule="evenodd"/><path transform="matrix(1,0,0,-1,0,595.276)" d="M79.26 286.006V285.556H81.15V286.006Z" fill="#ffffff" fill-rule="evenodd"/><path transform="matrix(1,0,0,-1,0,595.276)" d="M80.28 284.296V282.826 282.676L80.22 282.586 80.16 282.526 80.07 282.466H79.53L79.71 281.986H79.98 80.16L80.34 282.016 80.49 282.076 80.61 282.166 80.7 282.256 80.76 282.406 80.79 282.556V282.736 284.296H81.51V284.716H78.87V284.296Z" fill="#ffffff" fill-rule="evenodd"/><path transform="matrix(1,0,0,-1,0,595.276)" d="M83.19 285.886V285.496H84.87V285.166H83.64V283.366H84.87V283.066H83.01V282.646H84.87V282.016H85.26V282.646H87.15V283.066H85.26V283.366H86.58V285.166H85.26V285.496H86.97V285.886H85.26V286.096L85.32 286.156 85.35 286.186V286.246L85.29 286.276 84.87 286.336V285.886H83.19ZM84.06 284.446V284.806H84.87V284.446H84.06ZM84.06 283.726V284.116H84.87V283.726H84.06ZM85.26 284.446V284.806H86.19V284.446H85.26ZM85.26 283.726V284.116H86.19V283.726H85.26Z" fill="#ffffff" fill-rule="evenodd"/><path transform="matrix(1,0,0,-1,0,595.276)" d="M80.55 293.026 80.28 292.726 80.55 292.546 80.82 292.306 81.12 292.576 80.82 292.846Z" fill="#ffffff" fill-rule="evenodd"/><path transform="matrix(1,0,0,-1,0,595.276)" d="M80.37 292.126 80.07 291.826 80.4 291.616 80.7 291.346 81 291.646 80.67 291.916Z" fill="#ffffff" fill-rule="evenodd"/><path transform="matrix(1,0,0,-1,0,595.276)" d="M80.07 291.076V290.656H80.58V289.726L79.98 289.276 80.19 288.946 80.25 288.886H80.31L80.37 288.916 80.4 289.006 80.73 289.366 80.94 289.156 81.21 289.006 81.54 288.886 81.93 288.826 83.1 288.766H84.27L84.39 289.246 83.67 289.186H82.98L82.32 289.216 81.63 289.276 81.36 289.336 81.18 289.456 81.06 289.636 81 289.876V291.076Z" fill="#ffffff" fill-rule="evenodd"/><path transform="matrix(1,0,0,-1,0,595.276)" d="M81.36 292.966V291.766L81.39 291.646 81.45 291.556 81.57 291.496 81.72 291.466H82.23L82.41 291.496 82.56 291.586 82.65 291.706 82.71 291.886 82.32 292.036 82.23 291.826 82.08 291.766H81.87L81.78 291.886V292.096H82.53V292.966H81.36ZM81.78 292.396V292.666H82.14V292.396H81.78Z" fill="#ffffff" fill-rule="evenodd"/><path transform="matrix(1,0,0,-1,0,595.276)" d="M81.48 291.106V290.746H81.99V290.386H81.27V290.026H84.27V290.386H83.49V290.746H84.03V291.106H83.49V291.226L83.55 291.286 83.52 291.346 83.07 291.406V291.106H82.41V291.196L82.47 291.286 82.44 291.376 81.99 291.406V291.106H81.48ZM82.41 290.386V290.746H83.07V290.386H82.41Z" fill="#ffffff" fill-rule="evenodd"/><path transform="matrix(1,0,0,-1,0,595.276)" d="M81.48 289.546 81.81 289.276 82.47 289.696H82.56L82.59 289.726V289.786L82.53 289.846 82.29 290.026 81.9 289.756Z" fill="#ffffff" fill-rule="evenodd"/><path transform="matrix(1,0,0,-1,0,595.276)" d="M82.89 292.966V291.796L82.92 291.646 82.98 291.556 83.1 291.496 83.25 291.466H83.76L83.97 291.496 84.12 291.586 84.24 291.706 84.3 291.916 83.88 292.036 83.82 291.856 83.67 291.796H83.43 83.34L83.31 291.856 83.28 291.946V292.096H84.09V292.966H82.89ZM83.28 292.396V292.666H83.7V292.396H83.28Z" fill="#ffffff" fill-rule="evenodd"/><path transform="matrix(1,0,0,-1,0,595.276)" d="M83.34 290.026 83.01 289.756 83.43 289.546 83.76 289.276 84.12 289.546 83.73 289.816Z" fill="#ffffff" fill-rule="evenodd"/><path transform="matrix(1,0,0,-1,0,595.276)" d="M85.89 292.456V291.226H86.34V292.066H89.55V291.226H90V292.456H88.17V292.846L88.26 292.996 88.2 293.026 87.72 293.086V292.456Z" fill="#ffffff" fill-rule="evenodd"/><path transform="matrix(1,0,0,-1,0,595.276)" d="M86.64 291.616V291.196H87.75V289.426L87.3 289.576 86.94 289.876 87.12 290.386 87.21 290.446 87.24 290.506 87.21 290.566 87.12 290.596 86.67 290.686 86.58 290.206 86.4 289.756 86.13 289.396 85.8 289.096 86.22 288.796 86.52 289.126 86.79 289.486 87.15 289.186 87.63 288.946 88.2 288.856 88.83 288.826H89.91L90.12 289.306 89.13 289.276 88.2 289.336V290.116H89.16V290.506H88.2V291.196H89.22V291.616Z" fill="#ffffff" fill-rule="evenodd"/><path transform="matrix(.03,0,0,.03,0,0)" stroke-width="5" stroke-linecap="round" stroke-linejoin="round" fill="none" stroke="#0000ff" d="M3183 10473V9745C3183 9731 3177 9718 3167 9708 3157 9698 3144 9692 3130 9692H2541C2527 9692 2513 9698 2503 9708 2494 9718 2488 9731 2488 9745V10473C2488 10487 2494 10500 2503 10510 2513 10520 2527 10526 2541 10526H3130C3144 10526 3157 10520 3167 10510 3177 10500 3183 10487 3183 10473"/></g></svg>