<?xml version='1.0' encoding='UTF-8'?>
<svg xmlns="http://www.w3.org/2000/svg" xmlns:xlink="http://www.w3.org/1999/xlink" xmlns:inkscape="http://www.inkscape.org/namespaces/inkscape" version="1.1" width="566.700" height="269.280" viewBox="0 0 566.700 269.280"><g transform="scale(10.0) translate(-165.765, -101.088)"><defs><clipPath id="clip_14"><path transform="matrix(1,0,0,-1,0,595.276)" d="M19.8 .046H822.06V595.276H19.8Z"/></clipPath></defs><path transform="matrix(.03,0,0,.03,0,0)" stroke-width="5" stroke-linecap="round" stroke-linejoin="round" fill="none" stroke="#000000" d="M5774 3519H5775"/><path transform="matrix(1,0,0,-1,0,595.276)" d="M173.22 489.706V489.706C173.31 489.856 173.49 489.976 173.67 489.976H220.56C220.86 489.976 221.1 489.736 221.1 489.436V471.526C221.1 471.406 221.04 471.256 220.95 471.166 220.83 471.046 220.71 471.016 220.56 471.016H173.67C173.49 471.016 173.31 471.106 173.22 471.256L167.88 480.496 173.22 489.706Z" fill-rule="evenodd"/><path transform="matrix(1,0,0,-1,0,595.276)" d="M169.8 480.496 174.75 489.046H177.24L172.32 480.496 177.24 471.916H174.75Z" fill="#ffffff" fill-rule="evenodd"/><path transform="matrix(.03,0,0,.03,0,0)" stroke-width="5" stroke-linecap="round" stroke-linejoin="round" fill="none" stroke="#000000" d="M5759 3510C5765 3500 5776 3493 5789 3493H7352C7362 3493 7370 3497 7377 3503 7383 3510 7387 3518 7387 3528V4125C7387 4134 7383 4143 7377 4149 7370 4156 7362 4159 7352 4159H5789C5776 4159 5765 4153 5759 4142L5581 3835V3818L5759 3510"/><path transform="matrix(1,0,0,-1,0,595.276)" d="M219.33 474.736 218.19 474.226 216.6 473.866 215.07 473.716 213.57 473.776 212.13 473.896 210.75 474.106 209.43 474.256 208.14 474.376H206.91L205.65 474.286 204.39 474.136 203.13 473.956 201.87 473.776 200.61 473.596 199.32 473.476 198.06 473.416 196.83 473.476 195.63 473.596 194.49 473.776 193.35 473.986 192.24 474.166 191.16 474.286 190.05 474.376H188.94L187.77 474.256 186.51 474.076 185.19 473.896 183.81 473.716 182.37 473.626 180.9 473.686 179.4 473.956 178.2 474.376 178.02 473.866 179.22 473.446 180.84 473.146 182.4 473.086 183.87 473.176 185.28 473.356 186.63 473.566 187.86 473.716 188.97 473.836H190.02L191.07 473.746 192.15 473.626 193.23 473.446 194.37 473.236 195.54 473.056 196.77 472.936 198.06 472.876 199.38 472.936 200.67 473.056 201.96 473.236 203.22 473.446 204.48 473.626 205.71 473.746 206.91 473.836H208.11L209.34 473.716 210.66 473.566 212.07 473.386 213.54 473.236 215.1 473.176 216.72 473.326 218.4 473.746 219.54 474.226Z" fill="#ffffff" fill-rule="evenodd"/><path transform="matrix(.03,0,0,.03,0,0)" stroke-width="5" stroke-linecap="round" stroke-linejoin="round" fill="none" stroke="#ffffff" d="M6863 3920H6864"/><path transform="matrix(.03,0,0,.03,0,0)" stroke-width="5" stroke-linecap="round" stroke-linejoin="round" fill="none" stroke="#ffffff" d="M6855 3906H6856"/><path transform="matrix(1,0,0,-1,0,595.276)" d="M183.36 486.556 181.89 477.676H180.57L181.5 475.366 181.47 475.426H181.08L179.79 475.666 178.5 476.116 178.35 475.696 179.67 475.216 181.02 474.976 182.37 474.916 183.72 475.006 185.04 475.156 186.36 475.366 187.65 475.546 188.88 475.636 190.08 475.666 191.25 475.576 192.39 475.426 193.53 475.246 194.67 475.036 195.78 474.886 196.92 474.766 198.06 474.706 199.26 474.766 200.46 474.886 201.72 475.036 202.98 475.246 204.24 475.426 205.56 475.576 206.88 475.666 208.2 475.636 209.55 475.546 210.9 475.366 212.28 475.186 213.63 475.036 215.04 475.006 216.42 475.126 217.83 475.456 219.21 476.056 219 476.476 217.68 475.906 216.42 475.606 217.23 477.676H215.61L213.99 486.616H209.46L209.07 485.296H201.51L201.06 488.086H196.41L196.14 485.296H188.52L187.8 486.556H183.36ZM198.15 479.386V480.616H202.47V479.386H198.15ZM190.17 477.676V477.676ZM190.17 477.676H186.48C186.57 477.706 186.66 477.766 186.75 477.826 186.84 477.886 186.9 477.946 186.93 478.036L189.72 478.006C189.78 477.946 189.84 477.856 189.93 477.826 189.99 477.766 190.08 477.706 190.17 477.676ZM200.28 477.676V477.676ZM200.28 477.676H196.86C196.98 477.766 197.07 477.856 197.13 477.946 197.19 478.066 197.22 478.186 197.22 478.306H199.95C199.95 478.186 199.98 478.066 200.04 477.946 200.1 477.856 200.19 477.736 200.28 477.676ZM199.95 478.306V478.306ZM206.67 477.676C206.82 477.766 206.91 477.916 206.94 478.066L210.03 478.036C210.06 477.976 210.09 477.886 210.12 477.826 210.18 477.766 210.21 477.736 210.27 477.676H206.67ZM210.27 477.676V477.676ZM206.67 477.676V477.676ZM211.02 477.676V477.676ZM211.02 477.676C211.05 477.706 211.08 477.736 211.08 477.736 211.11 477.766 211.14 477.796 211.17 477.826 211.2 477.886 211.23 477.946 211.26 478.006H212.16L211.95 478.636 210.69 478.786 210.39 479.776 207.36 480.106 206.97 479.056 205.47 478.876 205.35 478.096H205.65C205.68 477.916 205.77 477.796 205.89 477.676H204.6V483.076H213V477.676H211.02ZM201.06 477.676V477.676ZM201.06 477.676C201.12 477.706 201.15 477.766 201.21 477.796 201.24 477.856 201.27 477.886 201.3 477.946 201.36 478.066 201.39 478.186 201.39 478.276H202.68V480.976H196.92L196.47 479.506 195.09 479.236 194.88 478.306H195.72C195.72 478.066 195.84 477.826 196.05 477.676H193.62V483.076H203.67V477.676H201.06ZM196.05 477.676V477.676ZM190.68 477.676V477.676ZM190.68 477.676C190.83 477.736 190.95 477.826 191.07 477.946H192.15L191.85 478.786 190.71 478.906 190.11 480.256H187.44L186.99 479.056 185.31 478.846 185.13 478.126H185.52C185.61 477.916 185.79 477.766 186.03 477.676H184.59V483.076H192.69V477.676H190.68ZM186.03 477.676V477.676Z" fill="#ffffff" fill-rule="evenodd"/></g></svg>