<?xml version='1.0' encoding='UTF-8'?>
<svg xmlns="http://www.w3.org/2000/svg" xmlns:xlink="http://www.w3.org/1999/xlink" xmlns:inkscape="http://www.inkscape.org/namespaces/inkscape" version="1.1" width="566.700" height="269.280" viewBox="0 0 566.700 269.280"><g transform="scale(10.0) translate(-383.985, -531.936)"><defs><clipPath id="clip_14"><path transform="matrix(1,0,0,-1,0,595.276)" d="M19.8 .046H822.06V595.276H19.8Z"/></clipPath></defs><path transform="matrix(.03,0,0,.03,0,0)" stroke-width="5" stroke-linecap="round" stroke-linejoin="round" fill="none" stroke="#000000" d="M13253 18576H13254"/><path transform="matrix(1,0,0,-1,0,595.276)" d="M397.59 37.996V37.996H433.68C433.86 37.996 434.07 38.086 434.22 38.236 434.4 38.386 434.46 38.596 434.46 38.776V60.556C434.46 60.976 434.1 61.336 433.68 61.336H397.59C397.29 61.336 397.05 61.186 396.9 60.946L390.39 49.666 396.9 38.386C397.05 38.146 397.29 37.996 397.59 37.996Z" fill-rule="evenodd"/><path transform="matrix(1,0,0,-1,0,595.276)" d="M426.63 52.096 426 51.826 425.13 51.616 424.26 51.556H423.45L422.64 51.646 421.86 51.736 421.14 51.826 420.42 51.886H419.73L419.04 51.856 418.32 51.766 417.63 51.676 416.94 51.556 416.22 51.466 415.53 51.406 414.81 51.376 414.12 51.406 413.46 51.466 412.83 51.556 412.2 51.676 411.57 51.766 410.97 51.856 410.34 51.886H409.74L409.08 51.826 408.39 51.736 407.67 51.646 406.89 51.526 406.08 51.496 405.27 51.526 404.43 51.676 403.77 51.916 403.65 51.616 404.31 51.376 405.21 51.226 406.08 51.196 406.92 51.226 407.7 51.346 408.45 51.436 409.14 51.556 409.74 51.586H410.34L410.94 51.556 411.51 51.496 412.11 51.376 412.74 51.286 413.4 51.166 414.09 51.106 414.81 51.076 415.56 51.106 416.28 51.166 416.97 51.286 417.69 51.376 418.38 51.466 419.07 51.556 419.73 51.586H420.42L421.08 51.556 421.83 51.436 422.58 51.346 423.42 51.256H424.29L425.19 51.316 426.12 51.556 426.75 51.826Z" fill="#ffffff" fill-rule="evenodd"/><path transform="matrix(1,0,0,-1,0,595.276)" d="M392.88 49.666 399.18 60.556H402.75L396.45 49.666 402.75 38.776H399.18Z" fill="#ffffff" fill-rule="evenodd"/><path transform="matrix(1,0,0,-1,0,595.276)" d="M412.35 42.196 412.86 41.086 413.13 41.266 412.65 42.286Z" fill="#ffffff" fill-rule="evenodd"/><path transform="matrix(1,0,0,-1,0,595.276)" d="M414.21 43.456 414.09 41.026 414.03 40.576 413.91 40.246 413.73 40.006 413.49 39.856H412.77L412.74 39.886 412.71 39.916 412.65 40.156 412.68 40.216H412.83 413.4L413.55 40.336 413.67 40.576 413.73 40.936 413.79 41.416 413.88 43.186 413.85 43.216H412.65L412.32 42.646 412.23 42.616 412.14 42.646 411.99 42.736V42.796L412.2 43.096 412.38 43.486 412.56 43.936 412.74 44.446 412.86 44.386 413.04 44.296 413.1 44.266V44.236L413.07 44.206 412.98 44.176 412.77 43.486H414.18Z" fill="#ffffff" fill-rule="evenodd"/><path transform="matrix(1,0,0,-1,0,595.276)" d="M416.16 42.676V40.786L415.41 40.516 415.47 40.366 415.53 40.246 415.59 40.216 415.62 40.246 415.68 40.336 417.18 40.876V41.116L416.49 40.906V42.676H417.12V42.916H416.49V43.996L416.61 44.056V44.146L416.55 44.176 416.4 44.206H416.16V42.916H415.5V42.676Z" fill="#ffffff" fill-rule="evenodd"/><path transform="matrix(1,0,0,-1,0,595.276)" d="M417.87 42.346V40.456L417.93 40.276 418.05 40.156H419.4L419.61 40.216 419.7 40.336 419.85 40.876 419.91 40.906 420.12 40.786V40.696L420.03 40.216 419.94 40.066 419.82 39.976 419.67 39.916 419.52 39.886H417.99L417.84 39.916 417.72 40.006 417.63 40.126 417.57 40.276V42.226L417.12 42.076 417.03 42.316 417.57 42.496V43.876H417.81L417.93 43.846 417.99 43.816 417.96 43.756 417.87 43.696V42.616L418.62 42.886V44.416L419.01 44.356 419.07 44.326V44.296L419.04 44.266 418.92 44.206V43.006L419.79 43.336 419.91 43.306 420 43.246 419.85 41.596 419.76 41.356 419.55 41.236H419.1L419.04 41.266 418.98 41.446 419.01 41.536H419.4L419.49 41.596 419.55 41.716 419.67 42.976 418.92 42.736V40.876H418.62V42.586Z" fill="#ffffff" fill-rule="evenodd"/><path transform="matrix(1,0,0,-1,0,595.276)" d="M407.22 49.486V46.576H409.11V47.026H407.7V47.806H408.93V48.256H407.7V49.006H409.02V49.486Z" fill="#ffffff" fill-rule="evenodd"/><path transform="matrix(1,0,0,-1,0,595.276)" d="M413.16 46.576H413.67V49.036H414.48V49.486H412.35V49.036H413.16Z" fill="#ffffff" fill-rule="evenodd"/><path transform="matrix(1,0,0,-1,0,595.276)" d="M415.05 46.576H415.56V49.486H415.05Z" fill="#ffffff" fill-rule="evenodd"/><path transform="matrix(1,0,0,-1,0,595.276)" d="M416.55 46.576H417.06V48.676L418.47 46.576H419.04V49.486H418.56V47.356L417.15 49.486H416.55Z" fill="#ffffff" fill-rule="evenodd"/><path transform="matrix(1,0,0,-1,0,595.276)" d="M423.24 46.576H423.72V49.036H424.53V49.486H422.43V49.036H423.24Z" fill="#ffffff" fill-rule="evenodd"/><path transform="matrix(1,0,0,-1,0,595.276)" d="M425.13 46.576H425.64V49.486H425.13Z" fill="#ffffff" fill-rule="evenodd"/><path transform="matrix(1,0,0,-1,0,595.276)" d="M429.87 46.576H430.38V48.676L431.79 46.576H432.36V49.486H431.85V47.356L430.44 49.486H429.87Z" fill="#ffffff" fill-rule="evenodd"/><path transform="matrix(1,0,0,-1,0,595.276)" d="M410.07 47.386C410.31 47.086 410.61 46.996 410.91 46.966 411.12 46.966 411.36 46.996 411.45 47.206 411.51 47.296 411.48 47.476 411.42 47.596 411.3 47.746 411.06 47.776 410.85 47.836H410.82C410.64 47.866 410.46 47.896 410.31 47.956 410.22 47.986 410.13 48.016 410.07 48.076 409.89 48.196 409.8 48.406 409.8 48.646 409.8 48.886 409.89 49.126 410.07 49.276 410.28 49.456 410.55 49.516 410.82 49.516 411.24 49.516 411.57 49.366 411.93 49.036L411.51 48.736C411.33 48.946 411.03 49.036 410.79 49.066 410.67 49.066 410.58 49.036 410.46 48.976 410.37 48.886 410.28 48.766 410.31 48.646 410.31 48.556 410.4 48.436 410.49 48.406 410.52 48.376 410.58 48.346 410.64 48.346L411.3 48.196C411.39 48.196 411.45 48.166 411.51 48.136 411.6 48.106 411.66 48.076 411.72 48.016 411.84 47.926 411.93 47.746 411.96 47.596 411.96 47.566 411.96 47.536 411.96 47.506 411.99 47.476 411.99 47.416 411.99 47.386 411.96 47.356 411.96 47.326 411.96 47.296 411.96 47.266 411.96 47.236 411.93 47.206 411.93 47.146 411.9 47.116 411.87 47.056 411.84 46.966 411.78 46.876 411.69 46.786 411.51 46.606 411.18 46.516 410.88 46.516 410.58 46.516 410.28 46.636 410.04 46.786 409.92 46.846 409.8 46.936 409.68 47.056L410.07 47.386Z" fill="#ffffff" fill-rule="evenodd"/><path transform="matrix(.03,0,0,.03,0,0)" stroke-width="5" stroke-linecap="round" stroke-linejoin="round" fill="none" stroke="#ffffff" d="M14067 18051H14068"/><path transform="matrix(.03,0,0,.03,0,0)" stroke-width="5" stroke-linecap="round" stroke-linejoin="round" fill="none" stroke="#ffffff" d="M14054 18051H14055"/><path transform="matrix(.03,0,0,.03,0,0)" stroke-width="5" stroke-linecap="round" stroke-linejoin="round" fill="none" stroke="#ffffff" d="M13595 18043H13596"/><path transform="matrix(1,0,0,-1,0,595.276)" d="M403.83 52.636 404.58 52.366 405.33 52.246 406.08 52.216 406.83 52.246 407.58 52.336 408.3 52.456 409.02 52.546 409.71 52.606H410.37L411.03 52.576 411.66 52.486 412.29 52.396 412.92 52.276 413.55 52.186 414.18 52.126 414.81 52.096 415.47 52.126 416.16 52.186 416.85 52.276 417.54 52.396 418.26 52.486 418.98 52.576 419.7 52.606H420.45L421.2 52.546 421.95 52.456 422.7 52.336 423.48 52.276 424.26 52.246 425.01 52.336 425.79 52.516 426.57 52.846 426.45 53.056 425.73 52.756 425.01 52.576 425.49 53.746H424.59L423.69 58.726H421.14L420.93 57.976H416.73L416.49 59.536H413.88L413.73 57.976H409.5L409.11 58.666H406.62L405.81 53.746H405.09L405.6 52.456 405.57 52.486H405.36L404.64 52.606 403.92 52.876 403.83 52.636ZM414.84 54.676V55.366H417.27V54.676H414.84ZM410.43 53.746V53.746ZM410.43 53.746H408.36C408.42 53.746 408.48 53.776 408.51 53.806 408.57 53.866 408.6 53.896 408.63 53.926V53.956L410.19 53.926C410.22 53.896 410.25 53.836 410.28 53.806 410.34 53.776 410.37 53.746 410.43 53.746ZM408.12 53.746V53.746ZM408.12 53.746H407.31V56.746H411.81V53.746H410.7C410.79 53.776 410.85 53.806 410.91 53.896H411.54L411.36 54.346 410.73 54.406 410.4 55.186H408.9L408.66 54.496 407.73 54.406 407.61 53.986H407.85C407.85 53.926 407.91 53.866 407.94 53.836 408 53.806 408.06 53.776 408.12 53.746ZM410.7 53.746V53.746ZM416.04 53.746V53.746ZM416.04 53.746H414.15C414.21 53.776 414.24 53.836 414.3 53.896 414.33 53.956 414.33 54.016 414.33 54.076H415.86V54.046C415.86 54.016 415.86 54.016 415.86 53.986 415.89 53.956 415.89 53.926 415.92 53.896 415.92 53.866 415.95 53.836 415.98 53.806 415.98 53.776 416.01 53.746 416.04 53.746ZM413.7 53.746V53.746ZM413.7 53.746H412.32V56.746H417.93V53.746H416.49C416.58 53.806 416.67 53.956 416.67 54.076H417.39V55.576H414.18L413.94 54.766 413.16 54.586 413.04 54.076H413.49C413.49 54.016 413.52 53.956 413.55 53.896 413.58 53.836 413.64 53.776 413.7 53.746ZM421.62 53.746V53.746H419.61C419.67 53.806 419.73 53.866 419.73 53.956L421.47 53.926C421.5 53.866 421.53 53.776 421.62 53.746ZM422.01 53.746V53.746C422.07 53.776 422.13 53.836 422.16 53.926H422.64L422.52 54.256 421.83 54.346 421.68 54.916 419.97 55.096 419.76 54.496 418.92 54.406 418.86 53.956H419.01C419.04 53.866 419.1 53.806 419.16 53.746H418.44V56.746H423.12V53.746H422.01Z" fill="#ffffff" fill-rule="evenodd"/><path transform="matrix(1,0,0,-1,0,595.276)" d="M419.7 46.576H420.18L420.33 47.086H421.56L421.74 46.576H422.19L421.26 49.486H420.63L419.7 46.576ZM420.96 48.946 421.44 47.506H420.48L420.96 48.946Z" fill="#ffffff" fill-rule="evenodd"/><path transform="matrix(1,0,0,-1,0,595.276)" d="M405.12 46.576H404.01V49.486H405.12C405.27 49.486 405.42 49.426 405.57 49.366 405.75 49.306 405.87 49.186 406.02 49.036 406.26 48.736 406.38 48.376 406.38 48.016 406.38 47.656 406.26 47.296 406.02 46.996 405.87 46.846 405.75 46.756 405.57 46.666 405.42 46.606 405.27 46.576 405.12 46.576ZM405.12 49.036H404.52V46.996H405.12C405.3 46.996 405.51 47.086 405.66 47.296 405.81 47.506 405.87 47.776 405.87 48.016 405.87 48.256 405.81 48.526 405.66 48.736 405.57 48.826 405.48 48.916 405.39 48.976 405.3 49.006 405.21 49.036 405.12 49.036Z" fill="#ffffff" fill-rule="evenodd"/><path transform="matrix(1,0,0,-1,0,595.276)" d="M408.03 44.356V39.946H407.73V40.276H405.06V39.946H404.73V44.356H408.03ZM405.06 43.156H407.73V44.086H405.06V43.156ZM405.06 42.886V41.866H407.73V42.886H405.06ZM405.06 41.596V40.546H407.73V41.596H405.06Z" fill="#ffffff" fill-rule="evenodd"/><path transform="matrix(1,0,0,-1,0,595.276)" d="M409.95 43.456V39.886L409.98 39.856H410.22L410.28 39.886V40.276L410.31 40.306H411.36L411.39 40.276V40.036L411.42 39.976H411.66L411.72 40.036V43.456L411.66 43.486H410.91L410.88 43.516 411.12 44.236 411.21 44.266 411.24 44.296 411.21 44.356 411.15 44.386 410.91 44.446 410.85 44.416 410.55 43.516 410.49 43.486H409.98L409.95 43.456ZM410.31 43.216H411.36L411.39 43.186V42.076L411.36 42.046H410.31L410.28 42.076V43.186L410.31 43.216ZM410.31 40.576 410.28 40.606V41.746L410.31 41.776H411.36L411.39 41.746V40.606L411.36 40.576H410.31Z" fill="#ffffff" fill-rule="evenodd"/><path transform="matrix(.03,0,0,.03,0,0)" stroke-width="5" stroke-linecap="round" stroke-linejoin="round" fill="none" stroke="#000000" d="M13208 17798 12991 18174C12986 18182 12986 18192 12991 18200L13208 18576C13217 18592 13234 18602 13253 18602H14456C14470 18602 14483 18596 14493 18586 14502 18577 14508 18564 14508 18550V17824C14508 17810 14502 17797 14493 17787 14483 17778 14470 17772 14456 17772H13253C13234 17772 13217 17782 13208 17798"/><path transform="matrix(1,0,0,-1,0,595.276)" d="M427.77 49.546C427.44 49.546 427.08 49.426 426.81 49.096 426.54 48.796 426.42 48.406 426.42 48.016 426.42 47.626 426.57 47.236 426.81 46.936 427.08 46.636 427.41 46.486 427.77 46.486 428.07 46.486 428.43 46.636 428.7 46.936 428.97 47.236 429.09 47.656 429.09 48.016 429.09 48.436 428.94 48.826 428.7 49.096 428.43 49.396 428.1 49.546 427.77 49.546ZM427.77 49.096C427.95 49.096 428.16 49.006 428.34 48.796 428.52 48.556 428.58 48.286 428.58 48.016 428.58 47.746 428.49 47.446 428.34 47.266 428.19 47.056 427.98 46.936 427.77 46.936 427.56 46.936 427.35 47.026 427.17 47.266 426.99 47.476 426.93 47.746 426.93 48.016 426.93 48.316 427.02 48.586 427.17 48.796 427.32 48.976 427.53 49.096 427.77 49.096Z" fill="#ffffff" fill-rule="evenodd"/></g></svg>