<?xml version='1.0' encoding='UTF-8'?>
<svg xmlns="http://www.w3.org/2000/svg" xmlns:xlink="http://www.w3.org/1999/xlink" xmlns:inkscape="http://www.inkscape.org/namespaces/inkscape" version="1.1" width="566.700" height="269.280" viewBox="0 0 566.700 269.280"><g transform="scale(10.0) translate(-274.875, -181.872)"><defs><clipPath id="clip_14"><path transform="matrix(1,0,0,-1,0,595.276)" d="M19.8 .046H822.06V595.276H19.8Z"/></clipPath></defs><path transform="matrix(1,0,0,-1,0,595.276)" d="M326.61 387.616H280.02C279.69 387.616 279.36 387.676 279.03 387.796 278.7 387.916 278.4 388.126 278.16 388.396 277.89 388.636 277.68 388.936 277.56 389.266 277.44 389.596 277.38 389.926 277.38 390.226V409.186C277.38 409.486 277.44 409.816 277.56 410.146 277.68 410.476 277.89 410.776 278.16 411.046 278.4 411.286 278.7 411.496 279.03 411.616 279.36 411.766 279.69 411.796 280.02 411.796H326.61C326.91 411.796 327.24 411.766 327.57 411.616 327.9 411.496 328.2 411.286 328.47 411.046 328.71 410.776 328.92 410.476 329.04 410.146 329.16 409.816 329.22 409.486 329.22 409.186V390.226C329.22 389.926 329.16 389.596 329.04 389.266 328.92 388.936 328.71 388.636 328.47 388.396 328.2 388.126 327.9 387.916 327.57 387.796 327.24 387.676 326.91 387.616 326.61 387.616Z" fill="#ffffff" fill-rule="evenodd"/><path transform="matrix(1,0,0,-1,0,595.276)" d="M326.61 388.936H280.02C279.69 388.936 279.36 389.056 279.09 389.296 278.82 389.566 278.7 389.926 278.7 390.226V409.186C278.7 409.486 278.82 409.846 279.09 410.116 279.36 410.386 279.69 410.506 280.02 410.506H326.61C326.91 410.506 327.27 410.386 327.54 410.116 327.81 409.846 327.93 409.486 327.93 409.186V390.226C327.93 389.926 327.81 389.566 327.54 389.296 327.27 389.056 326.91 388.936 326.61 388.936Z" fill="#0000ff" fill-rule="evenodd"/><path transform="matrix(.03,0,0,.03,0,0)" stroke-width="5" stroke-linecap="round" stroke-linejoin="round" fill="none" stroke="#ffffff" d="M9813 6380H9814"/><path transform="matrix(1,0,0,-1,0,595.276)" d="M295.02 406.876 295.68 407.356C295.08 407.896 294.51 408.136 293.85 408.136 293.4 408.136 292.92 408.016 292.59 407.716 292.32 407.476 292.14 407.086 292.14 406.696 292.14 406.306 292.29 405.946 292.59 405.736 292.71 405.646 292.83 405.586 292.98 405.526 293.25 405.436 293.55 405.376 293.85 405.346 293.88 405.316 293.88 405.316 293.91 405.316 294.27 405.286 294.66 405.226 294.84 404.926 294.96 404.746 294.96 404.476 294.9 404.296 294.75 403.966 294.36 403.906 293.97 403.936 293.49 403.936 293.01 404.116 292.59 404.596L291.96 404.056C292.14 403.876 292.32 403.726 292.53 403.576 292.95 403.336 293.43 403.186 293.94 403.156 294.42 403.156 294.96 403.306 295.32 403.606 295.44 403.726 295.53 403.876 295.62 404.056 295.65 404.116 295.68 404.206 295.71 404.326 295.71 404.356 295.74 404.416 295.74 404.476 295.74 404.476 295.74 404.506 295.77 404.536 295.77 404.566 295.77 404.596 295.77 404.626V404.596C295.77 404.626 295.77 404.656 295.77 404.686 295.77 404.716 295.77 404.746 295.77 404.776 295.77 404.836 295.74 404.896 295.74 404.956 295.68 405.226 295.53 405.466 295.35 405.646 295.23 405.736 295.14 405.826 295.02 405.856 294.9 405.916 294.78 405.946 294.66 405.946L293.55 406.186C293.46 406.186 293.37 406.216 293.28 406.276 293.13 406.366 292.98 406.516 292.98 406.696 292.95 406.906 293.1 407.116 293.25 407.236 293.43 407.386 293.58 407.416 293.79 407.386 294.18 407.356 294.66 407.206 295.02 406.876Z" fill="#ffffff" fill-rule="evenodd"/><path transform="matrix(1,0,0,-1,0,595.276)" d="M298.26 403.156C297.93 403.186 297.57 403.306 297.3 403.546 297 403.816 296.85 404.176 296.85 404.506V406.696H297.6V404.476C297.63 404.326 297.69 404.146 297.81 404.056 297.96 403.936 298.11 403.876 298.26 403.876 298.41 403.876 298.59 403.936 298.71 404.056 298.83 404.176 298.92 404.326 298.92 404.476V406.696H299.7V403.246H298.92V403.426C298.83 403.336 298.74 403.276 298.62 403.246 298.5 403.186 298.38 403.186 298.26 403.156Z" fill="#ffffff" fill-rule="evenodd"/><path transform="matrix(1,0,0,-1,0,595.276)" d="M301.71 406.516C301.89 406.636 302.13 406.726 302.4 406.756 302.67 406.756 302.97 406.666 303.21 406.486 303.48 406.336 303.66 406.066 303.81 405.796 303.93 405.496 303.96 405.226 303.99 404.956 303.99 404.686 303.93 404.416 303.81 404.116 303.69 403.846 303.48 403.576 303.24 403.396 302.97 403.216 302.7 403.156 302.4 403.156 302.13 403.156 301.89 403.246 301.71 403.366H301.68C301.68 403.396 301.65 403.396 301.62 403.396 301.59 403.366 301.59 403.336 301.59 403.336V403.246H300.81V408.076H301.59V406.576C301.59 406.546 301.59 406.516 301.62 406.516H301.65C301.68 406.516 301.68 406.516 301.71 406.516ZM302.49 403.846C302.61 403.846 302.76 403.906 302.85 403.996 303.06 404.146 303.18 404.326 303.24 404.566 303.3 404.866 303.3 405.166 303.18 405.466 303.09 405.706 302.91 405.886 302.67 406.006 302.49 406.096 302.25 406.066 302.04 405.976 301.86 405.916 301.71 405.766 301.62 405.586 301.59 405.466 301.59 405.346 301.59 405.226V404.656C301.59 404.596 301.59 404.536 301.59 404.476 301.62 404.416 301.62 404.356 301.65 404.296 301.68 404.146 301.8 403.996 301.98 403.936 302.13 403.846 302.31 403.816 302.49 403.846Z" fill="#ffffff" fill-rule="evenodd"/><path transform="matrix(1,0,0,-1,0,595.276)" d="M305.34 406.696 305.88 404.356 306.45 406.696H306.9 307.32L307.92 404.356 308.43 406.696H309.27L308.37 403.246H307.5L306.9 405.676 306.27 403.246H305.43L304.5 406.696Z" fill="#ffffff" fill-rule="evenodd"/><path transform="matrix(1,0,0,-1,0,595.276)" d="M312.63 403.156 312.99 403.666 312.78 403.786C312.75 403.816 312.72 403.846 312.69 403.906 312.66 403.936 312.66 403.996 312.66 404.026V405.166C312.66 405.406 312.66 405.646 312.63 405.886 312.63 406.066 312.57 406.246 312.45 406.366 312.3 406.516 312.15 406.636 311.94 406.696 311.7 406.786 311.43 406.816 311.16 406.786 310.98 406.786 310.77 406.756 310.59 406.696 310.47 406.666 310.35 406.606 310.23 406.546 310.14 406.516 310.05 406.456 309.93 406.426L310.23 405.856 310.65 406.036C310.77 406.066 310.89 406.096 311.01 406.126 311.19 406.126 311.34 406.126 311.49 406.126 311.61 406.096 311.73 406.036 311.82 405.946 311.85 405.886 311.88 405.826 311.91 405.736 311.91 405.676 311.91 405.616 311.91 405.556V405.376L311.37 405.346C311.22 405.346 311.1 405.316 310.98 405.316 310.8 405.286 310.65 405.256 310.5 405.196 310.32 405.136 310.14 405.046 310.02 404.896 309.87 404.716 309.81 404.476 309.81 404.236 309.81 403.996 309.87 403.786 310.02 403.636 310.11 403.486 310.26 403.366 310.44 403.276 310.59 403.216 310.77 403.186 310.95 403.186 311.16 403.156 311.37 403.156 311.55 403.246 311.73 403.306 311.91 403.396 312.06 403.516 312.09 403.396 312.18 403.306 312.3 403.276 312.39 403.216 312.51 403.186 312.63 403.156ZM310.95 403.756C310.92 403.756 310.86 403.786 310.83 403.816 310.77 403.846 310.74 403.876 310.71 403.906 310.62 403.966 310.59 404.026 310.56 404.116 310.56 404.206 310.56 404.326 310.59 404.416 310.62 404.506 310.71 404.596 310.8 404.626 310.89 404.656 311.01 404.686 311.1 404.686 311.22 404.746 311.37 404.776 311.52 404.776 311.67 404.806 311.79 404.806 311.91 404.806V404.206C311.91 404.146 311.91 404.086 311.88 404.056 311.85 403.996 311.82 403.936 311.76 403.906 311.7 403.816 311.58 403.756 311.46 403.726 311.31 403.696 311.13 403.696 310.95 403.756Z" fill="#ffffff" fill-rule="evenodd"/><path transform="matrix(1,0,0,-1,0,595.276)" d="M312.63 403.156V403.156Z" fill="#ffffff" fill-rule="evenodd"/><path transform="matrix(1,0,0,-1,0,595.276)" d="M314.61 402.946C314.55 402.826 314.4 402.736 314.28 402.736 314.13 402.736 313.95 402.766 313.8 402.766L313.68 402.136C313.83 402.136 313.98 402.106 314.13 402.106 314.28 402.076 314.4 402.076 314.55 402.076 314.85 402.076 315.12 402.286 315.21 402.556H315.24C315.45 403.306 315.69 404.026 315.93 404.746 316.17 405.406 316.38 406.036 316.59 406.696H315.72L315.03 404.386 314.34 406.696H313.47L314.64 403.126 314.61 402.946Z" fill="#ffffff" fill-rule="evenodd"/><path transform="matrix(1,0,0,-1,0,595.276)" d="M325.44 403.156 321.96 406.636 318.51 403.156V399.706L320.82 402.016V392.806H323.13V402.016L325.44 399.706Z" fill="#ffffff" fill-rule="evenodd"/><path transform="matrix(1,0,0,-1,0,595.276)" d="M286.95 405.526C286.95 405.796 286.83 406.096 286.62 406.306 286.41 406.516 286.14 406.636 285.84 406.636 285.54 406.636 285.27 406.516 285.06 406.306 284.85 406.096 284.73 405.796 284.73 405.526 284.73 405.226 284.85 404.956 285.06 404.746 285.27 404.536 285.54 404.416 285.84 404.416 286.14 404.416 286.41 404.536 286.62 404.746 286.83 404.956 286.95 405.226 286.95 405.526Z" fill="#ffffff" fill-rule="evenodd"/><path transform="matrix(1,0,0,-1,0,595.276)" d="M287.22 392.806H288.09L287.91 395.836 286.65 399.286 286.86 401.446 287.34 400.876 288.99 399.496 289.38 400.156 287.97 401.446 287.55 402.676C287.4 403.036 287.16 403.366 286.83 403.606 286.5 403.846 286.11 403.966 285.75 403.996 285.36 404.026 284.97 403.936 284.61 403.756 284.25 403.576 283.95 403.276 283.77 402.946L283.17 402.016 282.66 399.136 283.35 398.836 284.04 401.656 284.49 402.106 282.96 396.226 281.61 394.096 282.27 393.406 284.67 396.586 285.36 398.266 286.65 395.896 287.22 392.806Z" fill="#ffffff" fill-rule="evenodd"/><path transform="matrix(1,0,0,-1,0,595.276)" d="M295.98 392.296H296.64V394.336L296.88 393.736 297.21 393.826 297.45 393.976 297.66 394.156 297.84 394.396 297.93 394.636 297.99 394.936V395.266L297.96 395.626H298.44V393.796L297.18 392.986 297.42 392.626 297.57 392.476 297.66 392.416 297.75 392.446 297.81 392.596 298.59 393.226 298.8 392.836 299.22 392.566 299.88 392.416 300.72 392.326H302.82L303.06 393.016H300.51L300.15 392.986 299.85 393.016 299.58 393.076 299.4 393.196 299.22 393.376 299.13 393.616 299.07 393.886 299.04 394.216V396.226H297.93V395.746L297.36 396.856 298.11 398.896 297.57 399.376 297.51 399.226H295.98V392.296ZM296.64 398.656H297.33L296.7 396.766 296.97 396.376 297.15 395.986 297.27 395.596 297.3 395.206 297.27 394.846 297.15 394.606 296.94 394.456 296.64 394.396V398.656Z" fill="#ffffff" fill-rule="evenodd"/><path transform="matrix(1,0,0,-1,0,595.276)" d="M298.95 398.206 299.4 398.626 298.68 399.226 298.2 398.776 298.62 398.506Z" fill="#ffffff" fill-rule="evenodd"/><path transform="matrix(1,0,0,-1,0,595.276)" d="M298.86 397.906 299.28 397.426 299.85 397.966V397.516H300.57L300.33 397.246 300 397.006 299.64 396.826 299.16 396.646 299.67 396.166 300.63 396.796 300.75 396.496 300.03 395.866 299.16 395.446 299.64 394.936 300.3 395.386 300.93 396.016 301.08 395.596 300.72 395.176 300.3 394.816 299.82 394.486 299.25 394.246 299.61 393.736 300.36 394.186 301.11 394.786 301.05 394.366 300.87 394.066 300.6 393.916 300.24 393.886 300.48 393.256 300.99 393.346 301.38 393.586 301.65 394.066 301.74 394.696 302.16 394.126 302.61 393.616 303.15 394.126 302.7 394.486 302.28 394.906 301.95 395.386 301.71 395.956 302.64 396.466H302.82L302.88 396.496V396.616L302.76 396.766 302.37 397.126 301.44 396.466 300.99 397.276 301.23 397.516H302.13V397.936L302.73 397.516 303.18 397.996 302.76 398.206 302.4 398.506 302.1 398.866 301.89 399.256H300.6V398.686H301.53L301.74 398.356 302.01 398.086H299.94L300.27 398.506 300.39 398.566 300.45 398.626 300.39 398.686 300.24 398.776 299.85 398.926 299.43 398.356Z" fill="#ffffff" fill-rule="evenodd"/><path transform="matrix(1,0,0,-1,0,595.276)" d="M298.56 396.586 299.04 397.096 298.65 397.456 298.23 397.786 297.78 397.366Z" fill="#ffffff" fill-rule="evenodd"/><path transform="matrix(1,0,0,-1,0,595.276)" d="M306.18 399.406 305.67 398.926 306.15 398.626 306.6 398.266 307.05 398.776 306.63 399.136Z" fill="#ffffff" fill-rule="evenodd"/><path transform="matrix(1,0,0,-1,0,595.276)" d="M305.76 397.906 305.28 397.456 306.3 396.736 306.78 397.186Z" fill="#ffffff" fill-rule="evenodd"/><path transform="matrix(1,0,0,-1,0,595.276)" d="M305.4 396.046V395.356H306.33V393.856L305.25 393.046 305.79 392.386 306.57 393.286 306.81 392.896 307.29 392.626 308.04 392.416 309.06 392.326H312.39L312.57 392.986H309.33L308.34 393.016 307.65 393.196 307.23 393.526 307.05 393.976V396.046Z" fill="#ffffff" fill-rule="evenodd"/><path transform="matrix(1,0,0,-1,0,595.276)" d="M308.73 399.376 308.22 399.046 308.79 398.356H307.56V397.726H309.45L309.18 397.186H308.01V393.346H308.73V393.586H311.04V393.346H311.79V397.186H309.93L310.23 397.726H312.24V398.356H310.92L311.64 399.316 310.92 399.496 310.11 398.356H309.27L309.42 398.476 308.73 399.376ZM308.73 394.126V394.546H311.04V394.126H308.73ZM308.73 395.086V395.536H311.04V395.086H308.73ZM308.73 396.106V396.556H311.04V396.106H308.73Z" fill="#ffffff" fill-rule="evenodd"/><path transform="matrix(.03,0,0,.03,0,0)" stroke-width="5" stroke-linecap="round" stroke-linejoin="round" fill="none" stroke="#0000ff" d="M10974 6203V6835C10974 6858 10965 6880 10949 6896 10932 6913 10910 6922 10887 6922H9334C9310 6922 9288 6913 9272 6896 9255 6880 9246 6858 9246 6835V6203C9246 6180 9255 6158 9272 6141 9288 6125 9310 6116 9334 6116H10887C10910 6116 10932 6125 10949 6141 10965 6158 10974 6180 10974 6203"/></g></svg>