<?xml version='1.0' encoding='UTF-8'?>
<svg xmlns="http://www.w3.org/2000/svg" xmlns:xlink="http://www.w3.org/1999/xlink" xmlns:inkscape="http://www.inkscape.org/namespaces/inkscape" version="1.1" width="566.700" height="269.280" viewBox="0 0 566.700 269.280"><g transform="scale(10.0) translate(-274.875, -262.656)"><defs><clipPath id="clip_14"><path transform="matrix(1,0,0,-1,0,595.276)" d="M19.8 .046H822.06V595.276H19.8Z"/></clipPath></defs><path transform="matrix(1,0,0,-1,0,595.276)" d="M324.36 329.806C324.15 330.166 323.82 330.496 323.43 330.736 323.01 330.976 322.56 331.096 322.14 331.096H278.88C278.55 331.096 278.25 331.036 277.92 330.916 277.62 330.766 277.32 330.586 277.05 330.346 276.81 330.076 276.6 329.776 276.48 329.476 276.36 329.146 276.3 328.816 276.3 328.516V310.066C276.3 309.736 276.36 309.436 276.48 309.106 276.6 308.806 276.81 308.506 277.05 308.236 277.32 307.996 277.62 307.786 277.92 307.666 278.25 307.546 278.55 307.486 278.88 307.486H322.14C322.56 307.486 323.01 307.606 323.43 307.846 323.82 308.056 324.15 308.386 324.36 308.776L330.06 318.646C330.15 318.826 330.24 319.066 330.24 319.276 330.24 319.516 330.15 319.756 330.06 319.936L324.36 329.806Z" fill="#ffffff" fill-rule="evenodd"/><path transform="matrix(1,0,0,-1,0,595.276)" d="M278.88 329.806H322.14C322.35 329.806 322.59 329.746 322.77 329.626 322.98 329.506 323.13 329.356 323.25 329.176L328.95 319.276 323.25 309.406C323.13 309.226 322.98 309.076 322.77 308.956 322.59 308.836 322.35 308.776 322.14 308.776H278.88C278.73 308.776 278.55 308.806 278.4 308.866 278.25 308.926 278.1 309.016 277.95 309.136 277.83 309.286 277.74 309.436 277.68 309.586 277.62 309.736 277.59 309.916 277.59 310.066V328.516C277.59 328.876 277.71 329.176 277.95 329.416 278.19 329.656 278.52 329.806 278.88 329.806Z" fill="#0000ff" fill-rule="evenodd"/><path transform="matrix(.03,0,0,.03,0,0)" stroke-width="5" stroke-linecap="round" stroke-linejoin="round" fill="none" stroke="#ffffff" d="M9770 9064H9771"/><path transform="matrix(1,0,0,-1,0,595.276)" d="M293.7 326.266 294.36 326.746C293.79 327.256 293.22 327.526 292.59 327.526 292.14 327.526 291.69 327.406 291.36 327.106 291.09 326.866 290.91 326.476 290.91 326.086 290.91 325.726 291.06 325.366 291.36 325.156 291.45 325.066 291.6 325.006 291.72 324.976 291.99 324.856 292.26 324.826 292.59 324.766H292.62C292.98 324.706 293.37 324.646 293.55 324.376 293.64 324.196 293.67 323.926 293.58 323.746 293.46 323.446 293.07 323.386 292.71 323.386 292.23 323.416 291.75 323.566 291.36 324.046L290.73 323.536C290.91 323.356 291.09 323.206 291.3 323.086 291.72 322.816 292.17 322.666 292.65 322.666 293.13 322.666 293.67 322.786 294 323.086 294.12 323.206 294.21 323.356 294.3 323.506 294.33 323.596 294.36 323.686 294.39 323.776 294.39 323.836 294.42 323.866 294.42 323.926 294.42 323.956 294.42 323.986 294.45 323.986 294.45 324.016 294.45 324.016 294.45 324.046V324.076 324.106C294.45 324.136 294.45 324.136 294.45 324.166 294.45 324.196 294.45 324.226 294.45 324.256 294.45 324.286 294.42 324.346 294.42 324.406 294.36 324.676 294.24 324.916 294.03 325.096 293.94 325.156 293.82 325.246 293.7 325.276 293.61 325.336 293.49 325.366 293.37 325.366L292.29 325.606C292.2 325.606 292.11 325.636 292.02 325.696 291.87 325.786 291.75 325.936 291.72 326.086 291.69 326.296 291.84 326.506 291.99 326.626 292.17 326.776 292.32 326.776 292.53 326.776 292.89 326.746 293.37 326.596 293.7 326.266Z" fill="#ffffff" fill-rule="evenodd"/><path transform="matrix(1,0,0,-1,0,595.276)" d="M296.88 322.666C296.55 322.666 296.22 322.786 295.92 323.056 295.65 323.296 295.53 323.626 295.5 323.956V326.086H296.25V323.926C296.25 323.776 296.31 323.626 296.46 323.506 296.58 323.386 296.73 323.356 296.88 323.326 297.03 323.356 297.18 323.386 297.33 323.506 297.45 323.626 297.51 323.776 297.54 323.926V326.086H298.26V322.726H297.54V322.906C297.45 322.816 297.33 322.756 297.24 322.726 297.12 322.696 297 322.666 296.88 322.666Z" fill="#ffffff" fill-rule="evenodd"/><path transform="matrix(1,0,0,-1,0,595.276)" d="M300.24 325.936C300.42 326.056 300.66 326.146 300.93 326.146 301.17 326.146 301.47 326.086 301.71 325.906 301.95 325.726 302.16 325.486 302.28 325.216 302.4 324.946 302.46 324.646 302.46 324.406 302.46 324.136 302.4 323.866 302.28 323.596 302.16 323.326 301.98 323.056 301.71 322.876 301.47 322.726 301.2 322.636 300.93 322.636 300.66 322.636 300.42 322.726 300.24 322.846V322.876C300.21 322.876 300.18 322.876 300.15 322.876 300.15 322.846 300.12 322.846 300.12 322.816V322.726H299.37V327.436H300.12V325.966C300.12 325.966 300.15 325.936 300.15 325.906 300.18 325.906 300.18 325.906 300.21 325.906L300.24 325.936ZM300.99 323.326C301.14 323.326 301.26 323.386 301.38 323.446 301.56 323.596 301.68 323.806 301.74 324.016 301.8 324.316 301.77 324.616 301.68 324.916 301.59 325.126 301.41 325.336 301.2 325.426 300.99 325.516 300.78 325.486 300.57 325.396 300.39 325.336 300.24 325.186 300.18 325.006 300.12 324.916 300.12 324.796 300.12 324.676V324.106C300.12 324.046 300.12 323.986 300.12 323.926 300.15 323.866 300.15 323.836 300.18 323.776 300.24 323.596 300.33 323.476 300.51 323.386 300.66 323.326 300.84 323.296 300.99 323.326Z" fill="#ffffff" fill-rule="evenodd"/><path transform="matrix(1,0,0,-1,0,595.276)" d="M303.78 326.086 304.29 323.836 304.86 326.086H305.28 305.7L306.3 323.836 306.78 326.086H307.59L306.72 322.726H305.88L305.28 325.096 304.68 322.726H303.87L302.97 326.086Z" fill="#ffffff" fill-rule="evenodd"/><path transform="matrix(.03,0,0,.03,0,0)" stroke-width="5" stroke-linecap="round" stroke-linejoin="round" fill="none" stroke="#ffffff" d="M10285 9000H10286"/><path transform="matrix(1,0,0,-1,0,595.276)" d="M308.55 325.276 308.97 325.456C309.06 325.486 309.21 325.516 309.33 325.546 309.48 325.546 309.63 325.546 309.78 325.516 309.9 325.516 310.02 325.456 310.11 325.366 310.14 325.306 310.17 325.246 310.2 325.156 310.2 325.096 310.2 325.036 310.2 324.976L310.17 324.826 309.66 324.766C309.54 324.766 309.39 324.766 309.27 324.736 309.12 324.736 308.97 324.706 308.82 324.646 308.64 324.586 308.46 324.496 308.34 324.346 308.19 324.166 308.13 323.926 308.16 323.686 308.13 323.476 308.22 323.266 308.34 323.116 308.43 322.966 308.58 322.846 308.76 322.786 308.91 322.726 309.09 322.666 309.27 322.666 309.45 322.636 309.66 322.666 309.84 322.726 310.02 322.786 310.17 322.876 310.32 323.026 310.35 322.906 310.44 322.786 310.56 322.756 310.62 322.726 310.68 322.726 310.71 322.696 310.77 322.666 310.83 322.666 310.89 322.666L311.25 323.146 311.04 323.266C311.01 323.296 310.98 323.326 310.95 323.386 310.92 323.416 310.92 323.446 310.92 323.506V324.586C310.92 324.826 310.92 325.066 310.89 325.306 310.89 325.486 310.83 325.636 310.71 325.786 310.56 325.906 310.41 326.026 310.23 326.086 309.99 326.176 309.72 326.206 309.45 326.176 309.27 326.176 309.09 326.146 308.91 326.116 308.79 326.056 308.67 326.026 308.55 325.966 308.46 325.906 308.37 325.876 308.25 325.846L308.55 325.276ZM309.27 323.236C309.21 323.236 309.18 323.266 309.12 323.296 309.09 323.296 309.06 323.326 309 323.356 308.94 323.416 308.88 323.506 308.88 323.596 308.85 323.686 308.88 323.776 308.91 323.866 308.94 323.956 309.03 324.046 309.12 324.076 309.21 324.106 309.3 324.136 309.39 324.136 309.54 324.196 309.66 324.226 309.81 324.226 309.93 324.256 310.05 324.256 310.2 324.256V323.686C310.2 323.626 310.17 323.566 310.14 323.506 310.14 323.446 310.08 323.416 310.05 323.386 309.96 323.296 309.87 323.236 309.75 323.206 309.6 323.176 309.42 323.176 309.27 323.236Z" fill="#ffffff" fill-rule="evenodd"/><path transform="matrix(1,0,0,-1,0,595.276)" d="M312.81 322.456C312.75 322.336 312.63 322.246 312.51 322.216H312.48C312.33 322.246 312.18 322.246 312.03 322.276L311.91 321.676C312.06 321.646 312.18 321.616 312.33 321.616 312.48 321.616 312.63 321.586 312.75 321.586 313.05 321.586 313.32 321.796 313.41 322.066 313.65 322.756 313.86 323.416 314.1 324.106 314.31 324.766 314.52 325.426 314.76 326.086H313.92L313.23 323.836 312.54 326.086H311.7L312.87 322.606 312.81 322.456Z" fill="#ffffff" fill-rule="evenodd"/><path transform="matrix(1,0,0,-1,0,595.276)" d="M325.92 319.276 320.58 328.516H316.23L321.54 319.276 316.23 310.066H320.58Z" fill="#ffffff" fill-rule="evenodd"/><path transform="matrix(1,0,0,-1,0,595.276)" d="M286.14 312.556H286.98L286.8 315.526 285.57 318.886 285.75 320.986 286.26 320.446 287.85 319.066 288.24 319.696 286.86 320.986 286.44 322.186C286.32 322.516 286.08 322.846 285.75 323.086 285.42 323.296 285.06 323.446 284.67 323.446 284.31 323.476 283.92 323.416 283.56 323.236 283.2 323.056 282.93 322.786 282.75 322.456L282.18 321.556 281.67 318.706 282.33 318.436 283.02 321.166 283.47 321.616 281.97 315.916 280.65 313.816 281.31 313.126 283.62 316.246 284.28 317.866 285.57 315.586 286.14 312.556Z" fill="#ffffff" fill-rule="evenodd"/><path transform="matrix(1,0,0,-1,0,595.276)" d="M285.84 324.946C285.84 325.246 285.72 325.516 285.54 325.726 285.33 325.906 285.06 326.026 284.76 326.026 284.49 326.026 284.19 325.906 284.01 325.726 283.8 325.516 283.68 325.246 283.68 324.946 283.68 324.676 283.8 324.376 284.01 324.196 284.19 323.986 284.49 323.866 284.76 323.866 285.06 323.866 285.33 323.986 285.54 324.196 285.72 324.376 285.84 324.676 285.84 324.946Z" fill="#ffffff" fill-rule="evenodd"/><path transform="matrix(1,0,0,-1,0,595.276)" d="M291.66 312.076H292.29V314.026L292.53 313.456 292.86 313.576 293.1 313.696 293.31 313.876 293.46 314.086 293.55 314.356 293.61 314.626V314.956L293.58 315.316H294.03V313.546L292.83 312.736 293.07 312.376 293.19 312.226 293.31 312.166 293.4 312.196 293.46 312.346 294.21 312.976 294.42 312.586 294.84 312.346 295.44 312.166 296.28 312.106H298.32L298.56 312.766H296.07L295.71 312.736 295.44 312.766 295.17 312.826 294.99 312.946 294.84 313.126 294.72 313.336 294.66 313.606V313.936 315.886H293.55V315.436L293.01 316.486 293.73 318.496 293.19 318.946 293.13 318.796H291.66V312.076ZM292.29 318.256H292.98L292.38 316.426 292.62 316.036 292.8 315.676 292.89 315.286 292.95 314.896 292.92 314.536 292.8 314.296 292.59 314.176 292.29 314.116V318.256Z" fill="#ffffff" fill-rule="evenodd"/><path transform="matrix(1,0,0,-1,0,595.276)" d="M294.57 317.806 294.99 318.226 294.3 318.826 293.82 318.376 294.21 318.106Z" fill="#ffffff" fill-rule="evenodd"/><path transform="matrix(1,0,0,-1,0,595.276)" d="M294.48 317.536 294.87 317.056 295.44 317.596V317.146H296.13L295.89 316.906 295.59 316.666 295.2 316.456 294.75 316.276 295.26 315.826 296.19 316.456 296.31 316.156 295.59 315.556 294.75 315.106 295.23 314.656 295.86 315.076 296.49 315.676 296.64 315.286 296.28 314.866 295.89 314.506 295.41 314.206 294.87 313.966 295.2 313.456 295.95 313.906 296.67 314.476 296.58 314.086 296.43 313.786 296.16 313.636 295.8 313.606 296.04 313.006 296.55 313.066 296.94 313.336 297.18 313.786 297.27 314.416 297.69 313.846 298.14 313.336 298.65 313.846 298.2 314.176 297.81 314.596 297.48 315.076 297.24 315.616 298.17 316.126H298.32L298.38 316.156V316.276L298.26 316.426 297.87 316.756 297 316.126 296.55 316.906 296.79 317.146H297.66V317.566L298.23 317.146 298.68 317.596 298.26 317.836 297.9 318.106 297.63 318.466 297.42 318.856H296.16V318.286H297.09L297.27 317.986 297.54 317.686H295.53L295.83 318.136 295.98 318.166 296.01 318.226 295.95 318.286 295.8 318.376 295.44 318.526 295.02 317.956Z" fill="#ffffff" fill-rule="evenodd"/><path transform="matrix(1,0,0,-1,0,595.276)" d="M294.18 316.246 294.66 316.726 294.27 317.116 293.85 317.416 293.4 316.996Z" fill="#ffffff" fill-rule="evenodd"/><path transform="matrix(1,0,0,-1,0,595.276)" d="M301.59 319.006 301.11 318.526 301.56 318.226 302.01 317.896 302.46 318.376 302.04 318.736Z" fill="#ffffff" fill-rule="evenodd"/><path transform="matrix(1,0,0,-1,0,595.276)" d="M301.2 317.536 300.75 317.086 301.71 316.396 302.19 316.846Z" fill="#ffffff" fill-rule="evenodd"/><path transform="matrix(1,0,0,-1,0,595.276)" d="M300.84 315.736V315.046H301.77V313.576L300.69 312.796 301.2 312.166 301.98 313.006 302.22 312.646 302.7 312.376 303.42 312.196 304.41 312.076H307.68L307.83 312.736H304.65L303.72 312.766 303.03 312.946 302.61 313.246 302.43 313.696V315.736Z" fill="#ffffff" fill-rule="evenodd"/><path transform="matrix(1,0,0,-1,0,595.276)" d="M304.08 318.976 303.6 318.646 304.14 317.956H302.94V317.356H304.77L304.53 316.846H303.39V313.096H304.08V313.306H306.36V313.096H307.05V316.846H305.25L305.55 317.356H307.5V317.956H306.21L306.93 318.916 306.21 319.066 305.46 317.956H304.59L304.77 318.076 304.08 318.976ZM304.08 313.846V314.266H306.36V313.846H304.08ZM304.08 314.776V315.196H306.36V314.776H304.08ZM304.08 315.796V316.216H306.36V315.796H304.08Z" fill="#ffffff" fill-rule="evenodd"/><path transform="matrix(.03,0,0,.03,0,0)" stroke-width="5" stroke-linecap="round" stroke-linejoin="round" fill="none" stroke="#0000ff" d="M10738 9593H9296C9273 9593 9251 9584 9235 9568 9219 9552 9210 9530 9210 9507V8892C9210 8869 9219 8847 9235 8831 9251 8815 9273 8806 9296 8806H10738C10768 8806 10797 8823 10812 8849L11002 9178C11010 9191 11010 9208 11002 9221L10812 9550C10797 9576 10768 9593 10738 9593"/></g></svg>