<?xml version='1.0' encoding='UTF-8'?>
<svg xmlns="http://www.w3.org/2000/svg" xmlns:xlink="http://www.w3.org/1999/xlink" xmlns:inkscape="http://www.inkscape.org/namespaces/inkscape" version="1.1" width="566.700" height="269.280" viewBox="0 0 566.700 269.280"><g transform="scale(10.0) translate(-493.095, -558.864)"><defs><clipPath id="clip_14"><path transform="matrix(1,0,0,-1,0,595.276)" d="M19.8 .046H822.06V595.276H19.8Z"/></clipPath></defs><path transform="matrix(1,0,0,-1,0,595.276)" d="M534.93 33.466C534.66 33.946 534.27 34.366 533.76 34.666 533.22 34.936 532.68 35.086 532.11 35.086H505.5C505.11 35.086 504.69 35.026 504.3 34.846 503.88 34.696 503.49 34.456 503.19 34.126 502.86 33.796 502.62 33.436 502.44 33.016 502.29 32.626 502.23 32.206 502.23 31.816V13.666C502.23 13.276 502.29 12.856 502.44 12.466 502.62 12.046 502.86 11.686 503.19 11.356 503.49 11.026 503.88 10.786 504.3 10.636 504.69 10.456 505.11 10.396 505.5 10.396H532.11C532.68 10.396 533.22 10.546 533.76 10.846 534.27 11.116 534.66 11.536 534.93 12.016L540.66 21.916C540.78 22.156 540.87 22.456 540.87 22.756 540.87 23.026 540.78 23.326 540.66 23.566L534.93 33.466Z" fill="#ffffff" fill-rule="evenodd"/><path transform="matrix(1,0,0,-1,0,595.276)" d="M539.25 22.756 533.52 32.626C533.4 32.866 533.19 33.076 532.92 33.226 532.68 33.376 532.38 33.466 532.11 33.466H505.5C505.29 33.466 505.08 33.436 504.9 33.346 504.69 33.256 504.48 33.136 504.33 32.986 504.18 32.806 504.06 32.626 503.97 32.416 503.88 32.236 503.85 32.026 503.85 31.816V13.666C503.85 13.456 503.88 13.276 503.97 13.066 504.06 12.856 504.18 12.676 504.33 12.496 504.51 12.346 504.69 12.226 504.9 12.136 505.08 12.076 505.29 12.016 505.5 12.016H532.11C532.38 12.016 532.68 12.106 532.92 12.256 533.19 12.406 533.4 12.616 533.52 12.856L539.25 22.756Z" fill="#0000ff" fill-rule="evenodd"/><path transform="matrix(1,0,0,-1,0,595.276)" d="M530.91 13.606H525.3L530.55 22.756 525.3 31.876H530.91L536.16 22.756Z" fill="#ffffff" fill-rule="evenodd"/><path transform="matrix(1,0,0,-1,0,595.276)" d="M506.49 22.756C506.49 21.616 506.7 20.506 507.15 19.456 507.57 18.406 508.2 17.476 509.01 16.666 509.79 15.886 510.75 15.226 511.8 14.806 512.82 14.386 513.96 14.146 515.07 14.146 516.21 14.146 517.32 14.386 518.37 14.806 519.39 15.226 520.35 15.886 521.16 16.666 521.94 17.476 522.57 18.406 523.02 19.456 523.44 20.506 523.65 21.616 523.65 22.756 523.65 23.866 523.44 24.976 523.02 26.026 522.57 27.076 521.94 28.006 521.16 28.816 520.35 29.626 519.39 30.256 518.37 30.676 517.32 31.096 516.21 31.336 515.07 31.336 513.96 31.336 512.82 31.096 511.8 30.676 510.75 30.256 509.79 29.626 509.01 28.816 508.2 28.006 507.57 27.076 507.15 26.026 506.7 24.976 506.49 23.866 506.49 22.756Z" fill="#ffffff" fill-rule="evenodd"/><path transform="matrix(1,0,0,-1,0,595.276)" d="M517.23 29.686H512.94V24.886H508.11V20.596H512.94V15.796H517.23V20.596H522.03V24.886H517.23Z" fill="#ff0000" fill-rule="evenodd"/><path transform="matrix(.03,0,0,.03,0,0)" stroke-width="5" stroke-linecap="round" stroke-linejoin="round" fill="none" stroke="#0000ff" d="M17737 18673H16850C16821 18673 16793 18684 16773 18705 16752 18725 16741 18753 16741 18782V19387C16741 19416 16752 19444 16773 19464 16793 19485 16821 19496 16850 19496H17737C17776 19496 17812 19475 17831 19442L18022 19112C18032 19095 18032 19074 18022 19057L17831 18727C17812 18694 17776 18673 17737 18673"/></g></svg>