<?xml version='1.0' encoding='UTF-8'?>
<svg xmlns="http://www.w3.org/2000/svg" xmlns:xlink="http://www.w3.org/1999/xlink" xmlns:inkscape="http://www.inkscape.org/namespaces/inkscape" version="1.1" width="566.700" height="269.280" viewBox="0 0 566.700 269.280"><g transform="scale(10.0) translate(-56.655, -74.160)"><defs><clipPath id="clip_14"><path transform="matrix(1,0,0,-1,0,595.276)" d="M19.8 .046H822.06V595.276H19.8Z"/></clipPath></defs><path transform="matrix(1,0,0,-1,0,595.276)" d="M109.11 519.826H60.99C60.75 519.826 60.48 519.766 60.21 519.676 59.94 519.556 59.7 519.406 59.46 519.196 59.25 518.986 59.1 518.716 58.98 518.446 58.89 518.176 58.83 517.906 58.83 517.666V497.176C58.83 496.906 58.89 496.636 58.98 496.366 59.1 496.096 59.25 495.856 59.46 495.646 59.7 495.436 59.94 495.286 60.21 495.166 60.48 495.046 60.75 495.016 60.99 495.016H109.11C109.38 495.016 109.65 495.046 109.92 495.166 110.19 495.286 110.43 495.436 110.64 495.646 110.85 495.856 111.03 496.096 111.12 496.366 111.24 496.636 111.27 496.906 111.27 497.176V517.666C111.27 517.906 111.24 518.176 111.12 518.446 111.03 518.716 110.85 518.986 110.64 519.196 110.43 519.406 110.19 519.556 109.92 519.676 109.65 519.766 109.38 519.826 109.11 519.826Z" fill="#ffffff" fill-rule="evenodd"/><path transform="matrix(1,0,0,-1,0,595.276)" d="M60.99 518.746H109.11C109.26 518.746 109.38 518.716 109.53 518.656 109.65 518.596 109.77 518.536 109.89 518.416 109.98 518.326 110.07 518.206 110.13 518.056 110.19 517.936 110.19 517.786 110.19 517.666V497.176C110.19 496.906 110.1 496.636 109.89 496.396 109.77 496.306 109.65 496.216 109.53 496.156 109.38 496.126 109.26 496.096 109.11 496.096H60.99C60.75 496.096 60.45 496.186 60.24 496.396 60.12 496.516 60.06 496.636 60 496.786 59.94 496.906 59.91 497.056 59.91 497.176V517.666C59.91 517.936 60.03 518.206 60.24 518.416 60.45 518.656 60.75 518.746 60.99 518.746Z" fill="#0000ff" fill-rule="evenodd"/><path transform="matrix(1,0,0,-1,0,595.276)" d="M64.62 517.036C64.83 517.036 65.04 517.006 65.25 516.886 65.49 516.796 65.67 516.646 65.85 516.466 66.03 516.256 66.15 516.016 66.24 515.776 66.33 515.536 66.36 515.296 66.36 515.056 66.36 514.816 66.33 514.576 66.24 514.336 66.15 514.066 66.03 513.856 65.85 513.646 65.67 513.466 65.49 513.316 65.25 513.196 65.04 513.106 64.83 513.076 64.62 513.076H63.12V517.036H64.62ZM64.62 516.436H63.81V513.676H64.62C64.89 513.676 65.16 513.796 65.37 514.066 65.58 514.366 65.67 514.726 65.67 515.056 65.67 515.386 65.58 515.746 65.37 516.046 65.16 516.316 64.89 516.436 64.62 516.436Z" fill="#ffffff" fill-rule="evenodd"/><path transform="matrix(1,0,0,-1,0,595.276)" d="M68.34 513.016C68.07 513.016 67.8 513.106 67.56 513.346 67.32 513.556 67.2 513.826 67.2 514.096V515.896H67.8V514.066C67.83 513.946 67.89 513.826 67.98 513.736 68.1 513.646 68.22 513.586 68.34 513.586 68.49 513.586 68.61 513.646 68.73 513.736 68.82 513.826 68.88 513.946 68.91 514.066V515.896H69.51V513.076H68.91V513.226C68.82 513.166 68.73 513.106 68.64 513.076 68.55 513.046 68.46 513.016 68.37 513.016H68.34Z" fill="#ffffff" fill-rule="evenodd"/><path transform="matrix(1,0,0,-1,0,595.276)" d="M72.87 513.436 72.72 513.526C72.69 513.556 72.66 513.586 72.63 513.616 72.6 513.646 72.6 513.676 72.6 513.736V514.636C72.6 514.756 72.6 514.846 72.6 514.936 72.6 515.026 72.6 515.146 72.6 515.236 72.57 515.386 72.54 515.536 72.42 515.626 72.33 515.746 72.18 515.836 72.03 515.896 71.82 515.986 71.61 515.986 71.37 515.986 71.22 515.986 71.07 515.956 70.92 515.896 70.8 515.866 70.71 515.836 70.62 515.806 70.53 515.746 70.47 515.716 70.38 515.686L70.62 515.236 70.95 515.356C71.07 515.386 71.16 515.416 71.25 515.446 71.4 515.446 71.52 515.446 71.64 515.416 71.76 515.416 71.85 515.356 71.91 515.296 71.94 515.236 71.97 515.176 72 515.116 72 515.086 72 515.026 72 514.966V514.846L71.55 514.786C71.43 514.786 71.34 514.786 71.22 514.786 71.1 514.756 70.95 514.726 70.83 514.696 70.68 514.636 70.56 514.546 70.44 514.426 70.32 514.276 70.26 514.066 70.29 513.886 70.26 513.706 70.32 513.526 70.44 513.376 70.53 513.256 70.65 513.166 70.77 513.106 70.92 513.046 71.07 513.016 71.22 513.016 71.37 512.986 71.55 513.016 71.7 513.076 71.85 513.106 72 513.196 72.12 513.316 72.15 513.226 72.21 513.136 72.3 513.106 72.39 513.046 72.48 513.016 72.57 513.016L72.87 513.436ZM71.22 513.496C71.13 513.526 71.07 513.556 71.01 513.616 70.95 513.646 70.89 513.736 70.89 513.796 70.89 513.886 70.89 513.946 70.92 514.036 70.95 514.126 71.01 514.186 71.1 514.216 71.16 514.246 71.25 514.246 71.31 514.276 71.43 514.306 71.55 514.336 71.67 514.336 71.79 514.366 71.88 514.366 72 514.366V513.856C72 513.826 71.97 513.766 71.97 513.736 71.94 513.676 71.91 513.646 71.88 513.616 71.82 513.556 71.73 513.496 71.64 513.496 71.49 513.436 71.34 513.436 71.22 513.496Z" fill="#ffffff" fill-rule="evenodd"/><path transform="matrix(1,0,0,-1,0,595.276)" d="M72.87 513.436V513.436Z" fill="#ffffff" fill-rule="evenodd"/><path transform="matrix(1,0,0,-1,0,595.276)" d="M70.38 515.686V515.686Z" fill="#ffffff" fill-rule="evenodd"/><path transform="matrix(.03,0,0,.03,0,0)" stroke-width="5" stroke-linecap="round" stroke-linejoin="round" fill="none" stroke="#ffffff" d="M2474 2718H2475"/><path transform="matrix(1,0,0,-1,0,595.276)" d="M74.22 513.736V513.736C74.22 513.676 74.25 513.646 74.28 513.616 74.31 513.586 74.34 513.556 74.4 513.556 74.46 513.556 74.52 513.556 74.61 513.586 74.67 513.586 74.73 513.616 74.82 513.616L74.85 513.046C74.61 513.016 74.34 513.016 74.07 513.046 73.95 513.076 73.83 513.136 73.74 513.226 73.65 513.346 73.59 513.496 73.59 513.616V517.036H74.22V513.736Z" fill="#ffffff" fill-rule="evenodd"/><path transform="matrix(1,0,0,-1,0,595.276)" d="M77.79 513.556C77.91 513.526 78.03 513.526 78.15 513.586 78.24 513.616 78.3 513.676 78.39 513.766 78.45 513.826 78.51 513.886 78.57 513.976L79.08 513.676 78.96 513.496C78.9 513.436 78.84 513.346 78.75 513.286 78.66 513.226 78.6 513.166 78.51 513.106 78.3 513.016 78.09 512.986 77.91 513.016 77.64 512.986 77.4 513.076 77.16 513.196 76.95 513.376 76.77 513.586 76.68 513.856 76.59 514.156 76.59 514.486 76.62 514.786 76.65 515.056 76.77 515.296 76.92 515.476 77.07 515.656 77.25 515.776 77.46 515.866 77.7 515.956 77.97 515.986 78.21 515.926 78.48 515.866 78.72 515.746 78.87 515.536 78.93 515.476 78.96 515.416 78.99 515.356 79.05 515.326 79.08 515.266 79.08 515.206L78.54 514.906C78.51 515.026 78.42 515.146 78.36 515.266 78.3 515.296 78.27 515.326 78.24 515.326 78.03 515.416 77.82 515.386 77.64 515.296 77.49 515.206 77.37 515.086 77.31 514.906 77.19 514.666 77.19 514.396 77.25 514.126 77.31 513.856 77.52 513.616 77.79 513.556Z" fill="#ffffff" fill-rule="evenodd"/><path transform="matrix(1,0,0,-1,0,595.276)" d="M82.11 513.436 81.96 513.526C81.93 513.556 81.9 513.586 81.87 513.616 81.84 513.646 81.84 513.676 81.84 513.736V514.636C81.84 514.756 81.84 514.846 81.84 514.936 81.84 515.026 81.84 515.146 81.84 515.236 81.81 515.386 81.78 515.536 81.66 515.626 81.57 515.746 81.42 515.836 81.27 515.896 81.06 515.986 80.85 515.986 80.61 515.986 80.46 515.986 80.31 515.956 80.16 515.896 80.04 515.866 79.95 515.836 79.86 515.806 79.77 515.746 79.71 515.716 79.62 515.686L79.86 515.236 80.19 515.356C80.31 515.386 80.4 515.416 80.49 515.446 80.64 515.446 80.76 515.446 80.88 515.416 81 515.416 81.09 515.356 81.15 515.296 81.18 515.236 81.21 515.176 81.24 515.116 81.24 515.086 81.24 515.026 81.24 514.966V514.846L80.79 514.786C80.67 514.786 80.58 514.786 80.46 514.786 80.34 514.756 80.19 514.726 80.07 514.696 79.92 514.636 79.8 514.546 79.68 514.426 79.56 514.276 79.5 514.066 79.53 513.886 79.5 513.706 79.56 513.526 79.68 513.376 79.77 513.256 79.89 513.166 80.01 513.106 80.16 513.046 80.31 513.016 80.46 513.016 80.61 512.986 80.79 513.016 80.94 513.076 81.09 513.106 81.24 513.196 81.36 513.316 81.39 513.226 81.45 513.136 81.54 513.106 81.63 513.046 81.72 513.016 81.81 513.016L82.11 513.436ZM80.46 513.496C80.37 513.526 80.31 513.556 80.25 513.616 80.19 513.646 80.13 513.736 80.13 513.796 80.13 513.886 80.13 513.946 80.16 514.036 80.19 514.126 80.25 514.186 80.34 514.216 80.4 514.246 80.49 514.246 80.55 514.276 80.67 514.306 80.79 514.336 80.91 514.336 81.03 514.366 81.12 514.366 81.24 514.366V513.856C81.24 513.826 81.21 513.766 81.21 513.736 81.18 513.676 81.15 513.646 81.12 513.616 81.06 513.556 80.97 513.496 80.88 513.496 80.73 513.436 80.58 513.436 80.46 513.496Z" fill="#ffffff" fill-rule="evenodd"/><path transform="matrix(1,0,0,-1,0,595.276)" d="M82.11 513.436V513.436Z" fill="#ffffff" fill-rule="evenodd"/><path transform="matrix(1,0,0,-1,0,595.276)" d="M79.62 515.686V515.686Z" fill="#ffffff" fill-rule="evenodd"/><path transform="matrix(1,0,0,-1,0,595.276)" d="M83.46 515.626C83.58 515.746 83.73 515.866 83.91 515.926 84.06 515.986 84.24 515.986 84.39 515.956V515.326C84.15 515.326 83.91 515.266 83.73 515.146 83.64 515.116 83.61 515.056 83.55 514.966 83.52 514.906 83.49 514.816 83.46 514.756V513.076H82.83V515.896H83.46V515.626Z" fill="#ffffff" fill-rule="evenodd"/><path transform="matrix(1,0,0,-1,0,595.276)" d="M85.53 515.626C85.65 515.746 85.8 515.866 85.98 515.926 86.13 515.986 86.31 515.986 86.46 515.956V515.326C86.22 515.326 85.98 515.266 85.8 515.146 85.71 515.116 85.68 515.056 85.62 514.966 85.59 514.906 85.56 514.816 85.53 514.756V513.076H84.9V515.896H85.53V515.626Z" fill="#ffffff" fill-rule="evenodd"/><path transform="matrix(1,0,0,-1,0,595.276)" d="M87.6 513.076V515.896H86.97V513.076Z" fill="#ffffff" fill-rule="evenodd"/><path transform="matrix(1,0,0,-1,0,595.276)" d="M87.66 516.736C87.66 516.916 87.48 517.096 87.3 517.096 87.09 517.096 86.91 516.916 86.91 516.736 86.91 516.526 87.09 516.346 87.3 516.346 87.48 516.346 87.66 516.526 87.66 516.736Z" fill="#ffffff" fill-rule="evenodd"/><path transform="matrix(1,0,0,-1,0,595.276)" d="M90.93 513.436 90.75 513.526C90.72 513.556 90.69 513.586 90.69 513.616 90.66 513.646 90.66 513.676 90.66 513.736V514.636C90.66 514.756 90.66 514.846 90.66 514.936 90.66 515.026 90.66 515.146 90.63 515.236 90.63 515.386 90.57 515.536 90.48 515.626 90.36 515.746 90.24 515.836 90.09 515.896 89.88 515.986 89.64 515.986 89.43 515.986 89.28 515.986 89.13 515.956 88.98 515.896 88.86 515.866 88.77 515.836 88.68 515.806 88.59 515.746 88.5 515.716 88.44 515.686L88.68 515.236 89.01 515.356C89.1 515.386 89.22 515.416 89.31 515.446 89.46 515.446 89.58 515.446 89.7 515.416 89.82 515.416 89.91 515.356 89.97 515.296 90 515.236 90.03 515.176 90.06 515.116 90.06 515.086 90.06 515.026 90.06 514.966L90.03 514.846 89.61 514.786C89.49 514.786 89.37 514.786 89.28 514.786 89.16 514.756 89.01 514.726 88.89 514.696 88.74 514.636 88.62 514.546 88.5 514.426 88.38 514.276 88.32 514.066 88.32 513.886 88.32 513.706 88.38 513.526 88.5 513.376 88.59 513.256 88.71 513.166 88.83 513.106 88.98 513.046 89.13 513.016 89.28 513.016 89.43 512.986 89.61 513.016 89.76 513.076 89.91 513.106 90.03 513.196 90.15 513.316 90.18 513.226 90.27 513.136 90.36 513.106 90.45 513.046 90.54 513.016 90.63 513.016L90.93 513.436ZM89.28 513.496C89.19 513.526 89.13 513.556 89.07 513.616 89.01 513.646 88.95 513.736 88.95 513.796 88.92 513.886 88.95 513.946 88.98 514.036 89.01 514.126 89.07 514.186 89.16 514.216 89.22 514.246 89.31 514.246 89.37 514.276 89.49 514.306 89.61 514.336 89.73 514.336 89.85 514.366 89.94 514.366 90.06 514.366V513.856C90.06 513.826 90.03 513.766 90.03 513.736 90 513.676 89.97 513.646 89.94 513.616 89.85 513.556 89.79 513.496 89.67 513.496 89.55 513.436 89.4 513.436 89.28 513.496Z" fill="#ffffff" fill-rule="evenodd"/><path transform="matrix(1,0,0,-1,0,595.276)" d="M90.93 513.436V513.436Z" fill="#ffffff" fill-rule="evenodd"/><path transform="matrix(1,0,0,-1,0,595.276)" d="M88.44 515.686V515.686Z" fill="#ffffff" fill-rule="evenodd"/><path transform="matrix(1,0,0,-1,0,595.276)" d="M93.36 515.746V515.896H93.96V512.956 512.896 512.836C93.9 512.656 93.75 512.476 93.54 512.326 93.33 512.206 93.06 512.146 92.82 512.116 92.43 512.086 92.01 512.176 91.62 512.356L91.8 512.896C91.95 512.836 92.1 512.776 92.25 512.746 92.4 512.686 92.55 512.656 92.7 512.686 93 512.686 93.21 512.806 93.27 512.986 93.27 512.986 93.3 513.016 93.3 513.046V513.106 513.376C93.3 513.406 93.3 513.406 93.3 513.436 93.3 513.436 93.27 513.406 93.21 513.376 92.97 513.286 92.76 513.286 92.76 513.286 92.76 513.286 92.43 513.286 92.13 513.466 91.8 513.616 91.47 513.976 91.47 514.636 91.47 515.296 91.8 515.626 92.13 515.806 92.43 515.956 92.76 515.956 92.76 515.956 92.85 515.956 92.97 515.956 93.09 515.896 93.18 515.866 93.27 515.806 93.36 515.746ZM92.76 515.356C92.76 515.356 92.13 515.356 92.13 514.636 92.13 513.886 92.76 513.886 92.76 513.886 92.76 513.886 93.36 513.886 93.36 514.636 93.36 515.356 92.76 515.356 92.76 515.356Z" fill="#ffffff" fill-rule="evenodd"/><path transform="matrix(1,0,0,-1,0,595.276)" d="M95.79 513.016C96.12 512.956 96.45 512.986 96.75 513.136 96.9 513.196 97.02 513.286 97.14 513.406L96.78 513.826 96.66 513.766C96.54 513.646 96.39 513.586 96.21 513.556 96 513.526 95.82 513.556 95.64 513.676 95.55 513.736 95.46 513.826 95.43 513.946 95.37 514.036 95.34 514.156 95.37 514.276H97.26C97.29 514.546 97.26 514.816 97.17 515.086 97.11 515.356 96.96 515.566 96.75 515.746 96.33 516.016 95.79 516.016 95.34 515.776 95.04 515.566 94.83 515.206 94.74 514.816 94.68 514.426 94.71 514.036 94.89 513.676 94.95 513.496 95.07 513.346 95.25 513.226 95.4 513.106 95.61 513.046 95.79 513.016ZM95.34 514.726C95.37 514.846 95.4 514.996 95.46 515.116 95.52 515.206 95.61 515.296 95.7 515.356 95.91 515.446 96.12 515.446 96.3 515.356 96.39 515.296 96.48 515.236 96.54 515.146 96.6 514.996 96.66 514.876 96.66 514.726H95.34Z" fill="#ffffff" fill-rule="evenodd"/><path transform="matrix(1,0,0,-1,0,595.276)" d="M98.34 515.896 98.76 514.006 99.24 515.896H99.6 99.93L100.41 514.006 100.86 515.896H101.52L100.8 513.076H100.08L99.6 515.086 99.09 513.076H98.37L97.65 515.896Z" fill="#ffffff" fill-rule="evenodd"/><path transform="matrix(1,0,0,-1,0,595.276)" d="M104.55 513.436 104.4 513.526C104.37 513.556 104.34 513.586 104.31 513.616 104.31 513.646 104.28 513.676 104.28 513.736V514.636C104.28 514.756 104.28 514.846 104.28 514.936 104.28 515.026 104.28 515.146 104.28 515.236 104.28 515.386 104.22 515.536 104.13 515.626 104.01 515.746 103.86 515.836 103.71 515.896 103.5 515.986 103.29 515.986 103.08 515.986 102.9 515.986 102.75 515.956 102.6 515.896 102.51 515.866 102.42 515.836 102.3 515.806 102.24 515.746 102.15 515.716 102.06 515.686L102.3 515.236 102.66 515.356C102.75 515.386 102.84 515.416 102.96 515.446 103.08 515.446 103.2 515.446 103.35 515.416 103.44 515.416 103.53 515.356 103.59 515.296 103.65 515.236 103.68 515.176 103.68 515.116 103.68 515.086 103.68 515.026 103.68 514.966V514.846L103.23 514.786C103.11 514.786 103.02 514.786 102.9 514.786 102.78 514.756 102.66 514.726 102.54 514.696 102.39 514.636 102.24 514.546 102.12 514.426 102 514.276 101.94 514.066 101.97 513.886 101.97 513.706 102 513.526 102.12 513.376 102.21 513.256 102.33 513.166 102.48 513.106 102.6 513.046 102.75 513.016 102.9 513.016 103.05 512.986 103.23 513.016 103.38 513.076 103.53 513.106 103.68 513.196 103.8 513.316 103.83 513.226 103.89 513.136 103.98 513.106 104.07 513.046 104.19 513.016 104.28 513.016L104.55 513.436ZM102.9 513.496C102.81 513.526 102.75 513.556 102.69 513.616 102.63 513.646 102.6 513.736 102.57 513.796 102.57 513.886 102.57 513.946 102.6 514.036 102.63 514.126 102.69 514.186 102.78 514.216 102.84 514.246 102.93 514.246 103.02 514.276 103.14 514.306 103.26 514.336 103.38 514.336 103.47 514.366 103.56 514.366 103.68 514.366V513.856C103.68 513.826 103.68 513.766 103.65 513.736 103.62 513.676 103.59 513.646 103.56 513.616 103.5 513.556 103.41 513.496 103.32 513.496 103.17 513.436 103.02 513.436 102.9 513.496Z" fill="#ffffff" fill-rule="evenodd"/><path transform="matrix(1,0,0,-1,0,595.276)" d="M104.55 513.436V513.436Z" fill="#ffffff" fill-rule="evenodd"/><path transform="matrix(1,0,0,-1,0,595.276)" d="M102.06 515.686V515.686Z" fill="#ffffff" fill-rule="evenodd"/><path transform="matrix(1,0,0,-1,0,595.276)" d="M105.87 512.836C105.84 512.746 105.72 512.656 105.63 512.656H105.6C105.48 512.656 105.36 512.686 105.24 512.686L105.12 512.176C105.24 512.146 105.36 512.146 105.48 512.146 105.6 512.116 105.72 512.116 105.84 512.116 106.08 512.116 106.32 512.296 106.38 512.506H106.41V512.536C106.59 513.076 106.77 513.646 106.95 514.216 107.13 514.786 107.34 515.326 107.52 515.896H106.8L106.23 514.006 105.66 515.896H104.97L105.93 512.986 105.87 512.836Z" fill="#ffffff" fill-rule="evenodd"/><path transform="matrix(1,0,0,-1,0,595.276)" d="M79.89 507.766 79.74 507.856C79.71 507.886 79.68 507.916 79.65 507.946 79.65 507.976 79.62 508.006 79.62 508.066V508.966C79.62 509.086 79.62 509.176 79.62 509.266 79.62 509.386 79.62 509.476 79.62 509.566 79.62 509.716 79.56 509.866 79.47 509.956 79.35 510.076 79.2 510.166 79.05 510.226 78.84 510.316 78.63 510.316 78.42 510.316 78.24 510.316 78.09 510.286 77.94 510.256 77.85 510.196 77.76 510.166 77.64 510.136 77.58 510.076 77.49 510.046 77.4 510.016L77.67 509.566 78 509.686C78.09 509.716 78.18 509.746 78.3 509.776 78.42 509.776 78.54 509.776 78.69 509.746 78.78 509.746 78.87 509.686 78.93 509.626 78.99 509.566 79.02 509.506 79.02 509.446 79.02 509.416 79.02 509.356 79.02 509.296V509.176L78.57 509.116C78.48 509.116 78.36 509.116 78.24 509.116 78.12 509.086 78 509.056 77.88 509.026 77.73 508.966 77.58 508.876 77.46 508.756 77.34 508.606 77.28 508.396 77.31 508.216 77.31 508.036 77.37 507.856 77.46 507.706 77.55 507.616 77.67 507.496 77.82 507.436 77.94 507.376 78.09 507.346 78.24 507.346 78.39 507.316 78.57 507.346 78.72 507.406 78.87 507.466 79.02 507.526 79.14 507.646 79.17 507.556 79.23 507.466 79.32 507.436 79.41 507.376 79.53 507.346 79.62 507.346L79.89 507.766ZM78.24 507.826C78.15 507.856 78.09 507.886 78.03 507.946 77.97 507.976 77.94 508.066 77.91 508.126 77.91 508.216 77.91 508.276 77.94 508.366 77.97 508.456 78.03 508.516 78.12 508.546 78.21 508.576 78.27 508.576 78.36 508.606 78.48 508.636 78.6 508.666 78.72 508.666 78.81 508.696 78.93 508.696 79.02 508.696V508.186C79.02 508.156 79.02 508.096 78.99 508.066 78.96 508.006 78.93 507.976 78.9 507.946 78.84 507.886 78.75 507.826 78.66 507.826 78.51 507.766 78.39 507.766 78.24 507.826Z" fill="#ffffff" fill-rule="evenodd"/><path transform="matrix(1,0,0,-1,0,595.276)" d="M79.89 507.766V507.766Z" fill="#ffffff" fill-rule="evenodd"/><path transform="matrix(1,0,0,-1,0,595.276)" d="M77.4 510.016V510.016Z" fill="#ffffff" fill-rule="evenodd"/><path transform="matrix(1,0,0,-1,0,595.276)" d="M82.29 509.176V509.176 507.406H82.89V509.326C82.89 509.716 82.65 510.076 82.29 510.226 81.93 510.406 81.51 510.316 81.21 510.076V511.366H80.61V507.406H81.21V509.176C81.21 509.326 81.27 509.446 81.36 509.566 81.48 509.656 81.63 509.716 81.75 509.716 82.05 509.716 82.29 509.476 82.29 509.176Z" fill="#ffffff" fill-rule="evenodd"/><path transform="matrix(1,0,0,-1,0,595.276)" d="M84.69 507.346C85.02 507.286 85.38 507.316 85.68 507.466 85.8 507.526 85.95 507.616 86.04 507.736L85.68 508.156 85.59 508.096C85.44 507.976 85.29 507.916 85.14 507.886 84.93 507.856 84.72 507.886 84.54 508.006 84.45 508.066 84.39 508.156 84.33 508.276 84.3 508.396 84.27 508.486 84.27 508.606H86.19C86.19 508.876 86.16 509.146 86.07 509.416 86.01 509.686 85.86 509.896 85.65 510.076 85.23 510.346 84.72 510.346 84.27 510.136 83.94 509.896 83.73 509.536 83.67 509.146 83.58 508.756 83.64 508.366 83.79 508.006 83.88 507.826 84 507.676 84.18 507.556 84.33 507.436 84.51 507.376 84.69 507.346ZM84.27 509.056C84.27 509.176 84.33 509.326 84.39 509.446 84.45 509.536 84.54 509.626 84.63 509.686 84.81 509.776 85.02 509.776 85.2 509.686 85.32 509.626 85.38 509.566 85.47 509.476 85.53 509.356 85.56 509.206 85.56 509.056H84.27Z" fill="#ffffff" fill-rule="evenodd"/><path transform="matrix(1,0,0,-1,0,595.276)" d="M89.31 507.766 89.16 507.856C89.13 507.886 89.1 507.916 89.07 507.946 89.04 507.976 89.04 508.006 89.04 508.066V508.966C89.04 509.086 89.04 509.176 89.04 509.266 89.04 509.386 89.04 509.476 89.04 509.566 89.01 509.716 88.98 509.866 88.86 509.956 88.77 510.076 88.62 510.166 88.47 510.226 88.26 510.316 88.05 510.316 87.81 510.316 87.66 510.316 87.51 510.286 87.36 510.256 87.24 510.196 87.15 510.166 87.06 510.136 86.97 510.076 86.91 510.046 86.82 510.016L87.06 509.566 87.39 509.686C87.48 509.716 87.6 509.746 87.69 509.776 87.84 509.776 87.96 509.776 88.08 509.746 88.2 509.746 88.29 509.686 88.35 509.626 88.38 509.566 88.41 509.506 88.44 509.446 88.44 509.416 88.44 509.356 88.44 509.296V509.176L87.99 509.116C87.87 509.116 87.78 509.116 87.66 509.116 87.54 509.086 87.39 509.056 87.27 509.026 87.12 508.966 87 508.876 86.88 508.756 86.76 508.606 86.7 508.396 86.7 508.216 86.7 508.036 86.76 507.856 86.88 507.706 86.97 507.616 87.09 507.496 87.21 507.436 87.36 507.376 87.51 507.346 87.66 507.346 87.81 507.316 87.99 507.346 88.14 507.406 88.29 507.466 88.44 507.526 88.56 507.646 88.59 507.556 88.65 507.466 88.74 507.436 88.83 507.376 88.92 507.346 89.01 507.346L89.31 507.766ZM87.66 507.826C87.57 507.856 87.51 507.886 87.45 507.946 87.39 507.976 87.33 508.066 87.33 508.126 87.33 508.216 87.33 508.276 87.36 508.366 87.39 508.456 87.45 508.516 87.54 508.546 87.6 508.576 87.69 508.576 87.75 508.606 87.87 508.636 87.99 508.666 88.11 508.666 88.23 508.696 88.32 508.696 88.44 508.696V508.186C88.44 508.156 88.41 508.096 88.41 508.066 88.38 508.006 88.35 507.976 88.32 507.946 88.26 507.886 88.17 507.826 88.08 507.826 87.93 507.766 87.78 507.766 87.66 507.826Z" fill="#ffffff" fill-rule="evenodd"/><path transform="matrix(1,0,0,-1,0,595.276)" d="M89.31 507.766V507.766Z" fill="#ffffff" fill-rule="evenodd"/><path transform="matrix(1,0,0,-1,0,595.276)" d="M86.82 510.016V510.016Z" fill="#ffffff" fill-rule="evenodd"/><path transform="matrix(1,0,0,-1,0,595.276)" d="M91.74 507.556C91.62 507.466 91.47 507.406 91.32 507.376 91.26 507.346 91.2 507.346 91.14 507.346 91.02 507.346 90.9 507.346 90.78 507.406 90.42 507.526 90.12 507.796 90 508.156 89.82 508.606 89.82 509.116 90.03 509.566 90.06 509.626 90.09 509.686 90.12 509.716 90.27 509.986 90.54 510.226 90.93 510.286 91.29 510.346 91.62 510.226 91.86 510.046 91.86 510.016 91.89 510.016 91.89 510.046V511.366H92.49V507.406H91.89V507.526C91.89 507.556 91.89 507.556 91.86 507.586 91.86 507.586 91.83 507.586 91.8 507.586L91.74 507.556ZM91.38 507.946C91.56 507.976 91.71 508.066 91.8 508.246 91.86 508.336 91.89 508.456 91.89 508.546V509.116C91.89 509.236 91.83 509.386 91.74 509.506 91.65 509.626 91.53 509.716 91.38 509.746 91.35 509.746 91.35 509.746 91.32 509.746 91.17 509.776 90.99 509.716 90.84 509.626 90.78 509.566 90.69 509.476 90.66 509.386 90.48 509.056 90.45 508.636 90.63 508.306 90.69 508.216 90.75 508.126 90.81 508.066 90.9 508.006 90.99 507.946 91.08 507.946 91.17 507.916 91.29 507.916 91.38 507.946Z" fill="#ffffff" fill-rule="evenodd"/><path transform="matrix(1,0,0,-1,0,595.276)" d="M64.41 503.326 64.05 503.476 63.78 502.876 63.45 502.366 63.03 501.916 62.55 501.496 63.15 501.076 63.57 501.496 63.93 501.976 64.26 502.486 64.53 503.026 64.71 503.086 64.74 503.176 64.65 503.236Z" fill="#ffffff" fill-rule="evenodd"/><path transform="matrix(1,0,0,-1,0,595.276)" d="M64.74 504.046V503.476H66.39L66.45 503.056 66.63 502.636 66.93 502.186 67.32 501.736H63.87V501.166H64.83L64.77 500.716 64.65 500.296 64.47 499.936 64.29 499.636 64.02 499.366 63.72 499.156 63.39 499.006 63 498.886 63.6 498.406 64.02 498.616 64.38 498.886 64.68 499.186 64.95 499.516 65.13 499.876 65.28 500.266 65.4 500.716 65.43 501.166H66.78L66.72 499.846 66.66 499.576 66.54 499.366 66.36 499.216 66.12 499.186 65.4 499.096 65.64 498.496 66.24 498.556 66.72 498.706 67.08 498.916 67.26 499.216 67.29 499.576 67.41 501.646 68.04 501.076 68.64 501.466 68.28 501.736 67.95 502.006 67.65 502.306 67.41 502.636 67.23 502.966 67.08 503.296 66.99 503.656 66.96 504.046Z" fill="#ffffff" fill-rule="evenodd"/><path transform="matrix(1,0,0,-1,0,595.276)" d="M70.62 504.076V498.436H71.16V500.146L71.4 499.696 71.85 499.816 72.15 500.026 72.36 500.386 72.42 500.806 72.39 501.136 72.33 501.496 72.18 501.856 71.94 502.276 72.51 503.776 72.06 504.136 72 504.076H70.62ZM71.16 500.236V503.566H71.88L71.4 502.276 71.76 501.466 71.85 500.926 71.82 500.626 71.67 500.416 71.46 500.296 71.16 500.236Z" fill="#ffffff" fill-rule="evenodd"/><path transform="matrix(1,0,0,-1,0,595.276)" d="M72.6 504.106V503.626H76.2V504.106Z" fill="#ffffff" fill-rule="evenodd"/><path transform="matrix(1,0,0,-1,0,595.276)" d="M73.08 503.266V501.976H75.75V503.266H73.08ZM73.65 502.426V502.816H75.18V502.426H73.65Z" fill="#ffffff" fill-rule="evenodd"/><path transform="matrix(1,0,0,-1,0,595.276)" d="M72.6 498.436H73.14V500.296L73.41 499.966 73.71 500.146 73.95 500.386 74.13 500.686 74.22 501.076H74.58V500.626 500.386L74.67 500.236 74.82 500.146H75.09 75.63V499.486 499.156L75.51 498.976 75.3 498.916 75 498.976 75.18 498.436H75.63L75.93 498.556 76.11 498.826 76.17 499.216V501.586H72.6V498.436ZM73.14 500.476V501.076H73.62L73.59 500.866 73.47 500.716 73.35 500.566 73.14 500.476ZM75.03 500.836V501.076H75.6V500.596H75.24L75.09 500.656 75.03 500.836Z" fill="#ffffff" fill-rule="evenodd"/><path transform="matrix(1,0,0,-1,0,595.276)" d="M73.41 499.876V499.396H74.13V498.586H74.61V499.396H75.3V499.876Z" fill="#ffffff" fill-rule="evenodd"/><path transform="matrix(1,0,0,-1,0,595.276)" d="M78.63 503.686V503.176H80.94V502.726H79.26V500.296H80.94V499.846H78.39V499.306H80.94V498.436H81.48V499.306H84.03V499.846H81.48V500.296H83.25V502.726H81.48V503.176H83.79V503.686H81.48V503.986L81.57 504.046 81.6 504.136 81.57 504.196 81.51 504.226 80.94 504.316V503.686H78.63ZM79.8 501.766V502.216H80.94V501.766H79.8ZM79.8 500.776V501.286H80.94V500.776H79.8ZM81.48 501.766V502.216H82.71V501.766H81.48ZM81.48 500.776V501.286H82.71V500.776H81.48Z" fill="#ffffff" fill-rule="evenodd"/><path transform="matrix(1,0,0,-1,0,595.276)" d="M86.34 502.006H87.21V499.516L86.88 499.396V501.106L86.97 501.166V501.226L86.91 501.286 86.79 501.346 86.28 501.376V499.276L86.01 499.216 86.16 498.616 86.28 498.556 86.4 498.646 88.71 499.366V499.906L87.84 499.636V500.686H88.5V501.226H87.84V502.006H88.38V502.786L88.8 502.456 89.49 503.176H90.75L90.45 502.726 90.06 502.336 89.88 502.546 89.73 502.876 89.16 502.816 89.34 502.366 89.61 501.976 89.01 501.646 88.38 501.436 88.8 500.956 89.52 501.256 90.09 501.586 90.84 501.166 91.62 500.896 92.13 501.406 91.29 501.646 90.57 501.946 91.2 502.666 91.62 503.386 91.32 503.746H89.85L90.03 503.956 90.12 504.046 90.15 504.106 90.12 504.166 90 504.226 89.61 504.406 88.98 503.476 88.38 502.906V504.016H86.34V502.006ZM86.94 502.576V503.476H87.78V502.576H86.94Z" fill="#ffffff" fill-rule="evenodd"/><path transform="matrix(1,0,0,-1,0,595.276)" d="M88.95 498.436H89.49V498.796H90.84V498.466H91.44V500.806H88.95V498.436ZM89.49 499.336V500.266H90.84V499.336H89.49Z" fill="#ffffff" fill-rule="evenodd"/><path transform="matrix(1,0,0,-1,0,595.276)" d="M94.11 502.786H95.76L95.37 502.126 94.92 501.556 94.41 501.016 93.81 500.536 94.26 500.116 94.98 500.806V498.556H95.61V501.466L96.03 502.126 96.39 502.786H99.54V503.356H96.57L96.75 503.896 96.87 503.986 96.93 504.076 96.87 504.136 96.72 504.196 96.27 504.256 95.97 503.356H94.11Z" fill="#ffffff" fill-rule="evenodd"/><path transform="matrix(1,0,0,-1,0,595.276)" d="M96.15 500.686H97.44V499.276H95.82V498.706H99.69V499.276H98.07V500.686H99.33V501.286H98.07V502.186L98.16 502.246V502.336L98.1 502.396 97.92 502.426 97.44 502.456V501.286H96.15Z" fill="#ffffff" fill-rule="evenodd"/><path transform="matrix(1,0,0,-1,0,595.276)" d="M103.2 503.266H101.79V502.696H107.55V503.266H106.02L106.32 503.896 106.41 503.986 106.47 504.046 106.41 504.106 106.29 504.136 105.75 504.256 105.54 503.716 105.27 503.266H103.92L103.71 503.776 103.38 504.256 102.81 504.136 103.05 503.686Z" fill="#ffffff" fill-rule="evenodd"/><path transform="matrix(1,0,0,-1,0,595.276)" d="M102.15 502.246V498.466H102.72V499.666H104.01V499.366L103.98 499.216 103.92 499.126 103.83 499.066H103.68 103.23L103.47 498.526 103.92 498.556 104.25 498.616 104.46 498.796 104.58 499.066V499.456 502.246H102.15ZM102.72 500.146V500.686H104.01V500.146H102.72ZM102.75 501.166V501.736H104.01V501.166H102.75Z" fill="#ffffff" fill-rule="evenodd"/><path transform="matrix(1,0,0,-1,0,595.276)" d="M105.3 502.036V499.426H105.84V501.736L105.93 501.856V501.916L105.87 501.976 105.75 502.006Z" fill="#ffffff" fill-rule="evenodd"/><path transform="matrix(1,0,0,-1,0,595.276)" d="M106.59 502.396V499.426L106.56 499.276 106.5 499.156 106.38 499.096 106.23 499.066H105.63L105.87 498.466H106.41L106.77 498.556 107.01 498.736 107.13 499.006 107.16 499.336V502.006L107.28 502.126 107.31 502.246 107.25 502.276 107.16 502.306Z" fill="#ffffff" fill-rule="evenodd"/><path transform="matrix(.03,0,0,.03,0,0)" stroke-width="5" stroke-linecap="round" stroke-linejoin="round" fill="none" stroke="#0000ff" d="M3709 3270V2587C3709 2568 3702 2550 3688 2536 3675 2523 3657 2515 3637 2515H2033C2014 2515 1996 2523 1982 2536 1969 2550 1961 2568 1961 2587V3270C1961 3289 1969 3308 1982 3321 1996 3334 2014 3342 2033 3342H3637C3657 3342 3675 3334 3688 3321 3702 3308 3709 3289 3709 3270"/></g></svg>