<?xml version='1.0' encoding='UTF-8'?>
<svg xmlns="http://www.w3.org/2000/svg" xmlns:xlink="http://www.w3.org/1999/xlink" xmlns:inkscape="http://www.inkscape.org/namespaces/inkscape" version="1.1" width="566.700" height="269.280" viewBox="0 0 566.700 269.280"><g transform="scale(10.0) translate(-493.095, -208.800)"><defs><clipPath id="clip_14"><path transform="matrix(1,0,0,-1,0,595.276)" d="M19.8 .046H822.06V595.276H19.8Z"/></clipPath></defs><path transform="matrix(1,0,0,-1,0,595.276)" d="M537.15 385.246H505.95C505.74 385.246 505.5 385.216 505.26 385.126 505.05 385.036 504.81 384.886 504.63 384.706 504.45 384.526 504.3 384.316 504.21 384.076 504.12 383.836 504.09 383.596 504.09 383.386V362.176C504.09 361.966 504.12 361.726 504.21 361.486 504.3 361.276 504.45 361.036 504.63 360.856 504.81 360.676 505.05 360.526 505.26 360.436 505.5 360.346 505.74 360.316 505.95 360.316H537.15C537.36 360.316 537.6 360.346 537.84 360.436 538.05 360.526 538.29 360.676 538.47 360.856 538.65 361.036 538.8 361.276 538.89 361.486 538.98 361.726 539.01 361.966 539.01 362.176V383.386C539.01 383.596 538.98 383.836 538.89 384.076 538.8 384.316 538.65 384.526 538.47 384.706 538.29 384.886 538.05 385.036 537.84 385.126 537.6 385.216 537.36 385.246 537.15 385.246ZM537.15 384.316C537.39 384.316 537.63 384.226 537.81 384.046 537.99 383.866 538.08 383.626 538.08 383.386V362.176C538.08 362.086 538.05 361.966 538.02 361.846 537.96 361.726 537.9 361.606 537.81 361.516 537.6 361.336 537.36 361.246 537.15 361.246H505.95C505.86 361.246 505.74 361.276 505.62 361.306 505.5 361.366 505.38 361.426 505.29 361.516 505.11 361.726 505.02 361.966 505.02 362.176V383.386C505.02 383.596 505.11 383.866 505.29 384.046 505.5 384.226 505.74 384.316 505.95 384.316H537.15Z" fill-rule="evenodd"/><path transform="matrix(1,0,0,-1,0,595.276)" d="M505.95 361.246H537.15C537.24 361.246 537.36 361.276 537.48 361.306 537.6 361.366 537.72 361.426 537.81 361.516 537.9 361.606 537.96 361.726 538.02 361.846 538.05 361.966 538.08 362.086 538.08 362.176V383.386C538.08 383.596 537.99 383.866 537.81 384.046 537.6 384.226 537.36 384.316 537.15 384.316H505.95C505.74 384.316 505.5 384.226 505.29 384.046 505.2 383.956 505.14 383.836 505.08 383.716 505.05 383.626 505.02 383.506 505.02 383.386V362.176C505.02 361.966 505.11 361.726 505.29 361.516 505.5 361.336 505.74 361.246 505.95 361.246Z" fill="#ffff00" fill-rule="evenodd"/><path transform="matrix(1,0,0,-1,0,595.276)" d="M508.74 379.036H507.27V382.516H508.74C509.16 382.516 509.52 382.366 509.79 382.036 510.06 381.736 510.18 381.286 510.18 380.776 510.18 380.266 510.06 379.816 509.79 379.516 509.52 379.186 509.16 379.036 508.74 379.036ZM508.02 381.766V379.786H508.59 508.65C508.68 379.786 508.77 379.786 508.8 379.786H508.86C509.04 379.816 509.19 379.936 509.28 380.116 509.4 380.296 509.43 380.536 509.43 380.776 509.43 381.016 509.4 381.226 509.31 381.406 509.22 381.586 509.07 381.706 508.92 381.736 508.92 381.736 508.89 381.766 508.86 381.766 508.8 381.766 508.71 381.766 508.65 381.766H508.62 508.02Z" fill-rule="evenodd"/><path transform="matrix(1,0,0,-1,0,595.276)" d="M511.77 379.036V382.516H511.05V379.036Z" fill-rule="evenodd"/><path transform="matrix(1,0,0,-1,0,595.276)" d="M514.47 379.036 515.43 382.516H514.65L513.99 380.146 513.33 382.516H512.55L513.51 379.036H513.99Z" fill-rule="evenodd"/><path transform="matrix(1,0,0,-1,0,595.276)" d="M516.96 380.416H518.37V381.136H516.96V381.826H518.49V382.516H516.21V379.036H518.7V379.726H516.96Z" fill-rule="evenodd"/><path transform="matrix(.03,0,0,.03,0,0)" stroke-width="5" stroke-linecap="round" stroke-linejoin="round" fill="none" stroke="#000000" d="M17378 7092H17379"/><path transform="matrix(1,0,0,-1,0,595.276)" d="M521.34 382.516V382.516C521.58 382.486 521.85 382.366 522.03 382.156 522.24 381.946 522.3 381.676 522.3 381.436 522.33 380.956 522.03 380.536 521.55 380.386L522.39 379.036H521.55L520.77 380.326H520.32V379.036H519.54V382.516H521.34ZM520.32 381.016H521.19C521.22 381.016 521.22 381.046 521.25 381.046 521.43 381.076 521.52 381.256 521.52 381.436 521.52 381.646 521.4 381.796 521.22 381.826H521.19 520.32V381.016Z" fill-rule="evenodd"/><path transform="matrix(1,0,0,-1,0,595.276)" d="M524.04 381.526C524.04 381.436 524.07 381.346 524.19 381.286 524.31 381.226 524.49 381.196 524.73 381.166 525.54 381.046 525.96 380.656 525.96 380.026 525.93 379.276 525.45 378.916 524.55 378.916 524.19 378.916 523.86 378.976 523.59 379.066 523.32 379.186 523.08 379.366 522.9 379.606L523.53 380.086C523.86 379.756 524.22 379.606 524.55 379.606 524.94 379.606 525.12 379.756 525.12 380.026 525.12 380.266 524.85 380.386 524.34 380.446 523.65 380.506 523.29 380.866 523.2 381.496 523.23 382.246 523.71 382.606 524.61 382.606 524.88 382.606 525.15 382.576 525.39 382.486 525.63 382.396 525.84 382.246 525.99 382.036L525.48 381.556C525.15 381.796 524.85 381.916 524.61 381.916 524.25 381.916 524.07 381.796 524.04 381.526Z" fill-rule="evenodd"/><path transform="matrix(1,0,0,-1,0,595.276)" d="M527.64 379.036V382.516H526.95V379.036Z" fill-rule="evenodd"/><path transform="matrix(1,0,0,-1,0,595.276)" d="M530.19 382.636C530.67 382.636 531.09 382.486 531.39 382.156 531.69 381.796 531.84 381.316 531.84 380.776 531.84 380.236 531.69 379.756 531.39 379.426 531.09 379.066 530.67 378.916 530.19 378.916 529.68 378.916 529.26 379.066 528.96 379.426 528.66 379.756 528.51 380.236 528.51 380.776 528.51 381.316 528.66 381.796 528.96 382.156 529.26 382.486 529.68 382.636 530.19 382.636ZM531.09 380.776C531.09 381.466 530.73 381.886 530.19 381.886 529.92 381.886 529.68 381.796 529.5 381.586 529.32 381.406 529.26 381.106 529.26 380.776 529.26 380.086 529.62 379.666 530.19 379.666 530.43 379.666 530.67 379.756 530.85 379.966 531.03 380.176 531.09 380.446 531.09 380.776Z" fill-rule="evenodd"/><path transform="matrix(1,0,0,-1,0,595.276)" d="M535.08 380.266V382.516H535.83V379.036H534.99L533.4 381.286V379.036H532.65V382.516H533.49Z" fill-rule="evenodd"/><path transform="matrix(1,0,0,-1,0,595.276)" d="M524.04 371.536H521.55L523.2 373.216H516.57V374.866H523.2L521.55 376.546H524.04L526.53 374.056Z" fill-rule="evenodd"/><path transform="matrix(1,0,0,-1,0,595.276)" d="M515.55 368.296V367.846H517.2V366.796H515.64V364.426 364.216L515.76 364.036 515.91 363.946 516.12 363.916H517.17L517.53 364.006 517.77 364.216 517.92 364.576 517.98 365.086 517.5 365.236 517.47 364.876 517.38 364.606 517.26 364.456 517.05 364.396H516.3L516.18 364.456 516.15 364.666V366.316H517.2V366.076H517.71V368.296Z" fill-rule="evenodd"/><path transform="matrix(1,0,0,-1,0,595.276)" d="M517.74 366.586 518.16 366.286 518.52 366.826 518.79 367.396H519.81L519.78 366.736 519.72 366.166 519.6 365.656 519.45 365.266 519.27 365.596 519.12 365.956 519.03 366.316 518.97 366.706 518.52 366.676 518.58 366.166 518.7 365.686 518.88 365.236 519.12 364.786 518.88 364.576 518.58 364.396 518.25 364.246 517.92 364.156 518.31 363.646 518.97 363.976 519.48 364.366 519.9 363.976 520.38 363.616 520.77 364.066 520.26 364.396 519.84 364.786 520.05 365.356 520.23 365.956 520.32 366.646 520.35 367.396H520.68V367.906H518.91L519.03 368.506 519.12 368.566 519.15 368.626 519.09 368.686 518.94 368.746 518.61 368.806 518.46 368.146 518.28 367.546 518.04 367.036Z" fill-rule="evenodd"/><path transform="matrix(1,0,0,-1,0,595.276)" d="M523.02 368.806 522.66 368.446 522.99 368.236 523.32 367.966 523.65 368.356 523.35 368.596Z" fill-rule="evenodd"/><path transform="matrix(1,0,0,-1,0,595.276)" d="M522.72 367.726 522.39 367.396 523.11 366.856 523.47 367.186Z" fill-rule="evenodd"/><path transform="matrix(1,0,0,-1,0,595.276)" d="M522.45 366.376V365.866H523.14V364.786L522.36 364.216 522.72 363.736 523.29 364.366 523.47 364.096 523.83 363.886 524.37 363.766 525.09 363.676H527.52L527.64 364.156H525.27L524.58 364.186 524.1 364.306 523.77 364.546 523.65 364.876V366.376Z" fill-rule="evenodd"/><path transform="matrix(1,0,0,-1,0,595.276)" d="M524.85 368.776 524.49 368.536 524.91 368.026H524.01V367.576H525.36L525.21 367.186H524.34V364.426H524.85V364.576H526.53V364.426H527.07V367.186H525.72L525.93 367.576H527.4V368.026H526.44L526.95 368.716 526.44 368.866 525.87 368.026H525.24L525.36 368.116 524.85 368.776ZM524.85 364.996V365.296H526.53V364.996H524.85ZM524.85 365.686V365.986H526.53V365.686H524.85ZM524.85 366.406V366.736H526.53V366.406H524.85Z" fill-rule="evenodd"/></g></svg>