<?xml version='1.0' encoding='UTF-8'?>
<svg xmlns="http://www.w3.org/2000/svg" xmlns:xlink="http://www.w3.org/1999/xlink" xmlns:inkscape="http://www.inkscape.org/namespaces/inkscape" version="1.1" width="567.000" height="269.280" viewBox="0 0 567.000 269.280"><g transform="scale(10.0) translate(-438.573, -128.016)"><defs><clipPath id="clip_14"><path transform="matrix(1,0,0,-1,0,595.276)" d="M74.37 .046H767.49V595.276H74.37Z"/></clipPath></defs><path transform="matrix(1,0,0,-1,0,595.276)" d="M483.33 465.826H450.63C450.42 465.826 450.18 465.796 449.97 465.706 449.73 465.616 449.52 465.466 449.34 465.286 449.16 465.106 449.04 464.896 448.95 464.686 448.86 464.446 448.83 464.206 448.83 463.996V443.116C448.83 442.906 448.86 442.666 448.95 442.456 449.04 442.216 449.16 442.006 449.34 441.826 449.52 441.646 449.73 441.526 449.97 441.436 450.18 441.346 450.42 441.286 450.63 441.286H483.33C483.54 441.286 483.78 441.346 484.02 441.436 484.23 441.526 484.44 441.646 484.62 441.826 484.8 442.006 484.95 442.216 485.04 442.456 485.13 442.666 485.16 442.906 485.16 443.116V463.996C485.16 464.206 485.13 464.446 485.04 464.686 484.95 464.896 484.8 465.106 484.62 465.286 484.44 465.466 484.23 465.616 484.02 465.706 483.78 465.796 483.54 465.826 483.33 465.826ZM483.33 464.926C483.57 464.926 483.81 464.806 483.99 464.656 484.14 464.476 484.26 464.236 484.26 463.996V443.116C484.26 442.906 484.17 442.666 483.99 442.456 483.81 442.276 483.57 442.216 483.33 442.216H450.63C450.42 442.216 450.18 442.276 450 442.456 449.82 442.666 449.73 442.906 449.73 443.116V463.996C449.73 464.116 449.76 464.236 449.79 464.326 449.85 464.446 449.91 464.566 450 464.656 450.18 464.836 450.42 464.926 450.63 464.926H483.33Z" fill-rule="evenodd"/><path transform="matrix(1,0,0,-1,0,595.276)" d="M450.63 464.926H483.33C483.57 464.926 483.81 464.836 483.99 464.656 484.17 464.476 484.26 464.236 484.26 463.996V443.116C484.26 442.996 484.23 442.876 484.17 442.786 484.14 442.666 484.08 442.546 483.99 442.456 483.9 442.366 483.78 442.306 483.66 442.276 483.57 442.216 483.45 442.216 483.33 442.216H450.63C450.42 442.216 450.18 442.276 450 442.456 449.91 442.546 449.85 442.666 449.79 442.786 449.76 442.876 449.73 442.996 449.73 443.116V463.996C449.73 464.236 449.82 464.476 450 464.656 450.15 464.806 450.39 464.926 450.63 464.926Z" fill="#ffffff" fill-rule="evenodd"/><path transform="matrix(.03,0,0,.03,0,0)" stroke-width="5" stroke-linecap="round" stroke-linejoin="round" fill="none" stroke="#000000" d="M15344 4574H15345"/><path transform="matrix(.03,0,0,.03,0,0)" stroke-width="5" stroke-linecap="round" stroke-linejoin="round" fill="none" stroke="#000000" d="M15344 4574H15345"/><path transform="matrix(1,0,0,-1,0,595.276)" d="M460.32 458.056V458.056C460.05 458.056 459.84 458.116 459.69 458.236 459.51 458.326 459.42 458.506 459.33 458.716L458.37 458.416C458.49 457.966 458.73 457.606 459.06 457.366 459.39 457.156 459.81 457.036 460.32 457.036 460.89 457.036 461.37 457.216 461.73 457.546 462.06 457.876 462.27 458.356 462.27 458.896 462.27 459.556 462.09 460.036 461.76 460.366 461.46 460.726 460.98 460.876 460.38 460.876 460.26 460.876 460.08 460.876 459.87 460.816 459.69 460.786 459.6 460.726 459.6 460.696L459.63 460.876 459.66 461.266H461.88V462.286H458.73L458.43 459.586 459.51 459.466C459.57 459.706 459.9 459.916 460.23 459.916 460.44 459.916 460.71 459.826 460.89 459.616 461.07 459.436 461.16 459.196 461.16 458.956 461.13 458.446 460.8 458.116 460.32 458.056Z" fill-rule="evenodd"/><path transform="matrix(1,0,0,-1,0,595.276)" d="M467.55 459.766C467.55 461.566 466.8 462.466 465.3 462.466 464.55 462.466 463.98 462.256 463.62 461.806 463.26 461.326 463.05 460.666 463.05 459.766 463.05 458.836 463.26 458.176 463.62 457.726 463.98 457.246 464.55 457.036 465.3 457.036 466.05 457.036 466.59 457.246 466.98 457.726 467.34 458.176 467.55 458.836 467.55 459.766ZM466.44 459.766C466.44 458.596 466.05 457.996 465.3 457.996 464.52 457.996 464.16 458.596 464.16 459.766 464.16 460.906 464.52 461.506 465.3 461.506 465.69 461.506 465.96 461.356 466.17 461.056 466.35 460.756 466.44 460.336 466.44 459.766Z" fill-rule="evenodd"/><path transform="matrix(1,0,0,-1,0,595.276)" d="M473.94 460.006C473.82 460.006 473.64 459.976 473.52 459.856 473.37 459.766 473.31 459.616 473.31 459.526V459.496 457.216H472.29V459.706 459.736C472.29 459.886 472.08 460.006 471.78 460.006 471.66 460.006 471.51 459.976 471.36 459.856 471.24 459.766 471.15 459.616 471.15 459.496V457.216H470.16V460.906H471.12V460.726C471.27 460.816 471.39 460.906 471.54 460.936 471.69 460.996 471.84 461.026 471.99 461.026 472.47 461.026 472.8 460.846 472.98 460.516 473.25 460.876 473.58 461.026 474 461.026 474.69 460.996 475.14 460.696 475.38 460.156 475.38 460.096 475.41 460.066 475.41 460.006 475.41 459.976 475.41 459.916 475.44 459.886V459.856 457.216H474.45V459.706C474.45 459.736 474.42 459.796 474.39 459.826 474.39 459.856 474.33 459.886 474.3 459.916 474.21 459.976 474.06 460.006 473.94 460.006Z" fill-rule="evenodd"/><path transform="matrix(1,0,0,-1,0,595.276)" d="M453.72 452.746V451.996H456.27L455.88 450.076H454.14V449.356H455.76L455.28 446.836H453.3V446.056H460.71V446.836H459.06L459.36 450.076H456.69L457.05 451.996H460.29V452.746H453.72ZM456.12 446.836 456.54 449.356H458.52L458.25 446.836H456.12Z" fill-rule="evenodd"/><path transform="matrix(1,0,0,-1,0,595.276)" d="M467.25 453.136 466.62 453.196V450.406H463.38V449.626H466.62V445.786H467.46V449.626H470.61V450.406H467.46V452.776L467.64 452.926 467.67 453.016 467.52 453.106Z" fill-rule="evenodd"/><path transform="matrix(1,0,0,-1,0,595.276)" d="M474.54 452.386 474 451.966 474.69 451.306 475.23 450.586 475.98 451.066 475.32 451.786Z" fill-rule="evenodd"/><path transform="matrix(1,0,0,-1,0,595.276)" d="M473.31 449.626H476.25L475.68 448.876 474.99 448.156 474.18 447.526 473.22 446.986 473.91 446.326 474.84 447.016 475.59 447.676 476.19 448.336 476.61 448.966V445.726H477.45V449.056L478.08 448.216 478.71 447.466 479.37 446.866 480.06 446.356 480.78 447.076 479.91 447.586 479.1 448.186 478.41 448.876 477.78 449.626H480.75V450.406H477.45V452.806L477.6 452.956V453.076L477.51 453.136 477.3 453.196 476.61 453.226V450.406H473.31Z" fill-rule="evenodd"/><path transform="matrix(1,0,0,-1,0,595.276)" d="M478.11 451.006 478.86 450.616 479.94 451.786 480.03 451.966 480 452.086 479.28 452.386 478.74 451.636Z" fill-rule="evenodd"/></g></svg>