<?xml version='1.0' encoding='UTF-8'?>
<svg xmlns="http://www.w3.org/2000/svg" xmlns:xlink="http://www.w3.org/1999/xlink" xmlns:inkscape="http://www.inkscape.org/namespaces/inkscape" version="1.1" width="567.000" height="269.280" viewBox="0 0 567.000 269.280"><g transform="scale(10.0) translate(-220.305, -128.016)"><defs><clipPath id="clip_14"><path transform="matrix(1,0,0,-1,0,595.276)" d="M74.37 .046H767.49V595.276H74.37Z"/></clipPath></defs><path transform="matrix(1,0,0,-1,0,595.276)" d="M222.87 465.286H274.62C274.68 465.286 274.74 465.256 274.8 465.256 274.86 465.226 274.92 465.196 274.98 465.136 275.01 465.076 275.04 465.016 275.07 464.956 275.1 464.896 275.1 464.836 275.1 464.776V442.336C275.1 442.276 275.1 442.216 275.07 442.156 275.04 442.096 275.01 442.036 274.98 441.976 274.92 441.946 274.86 441.886 274.8 441.886 274.74 441.856 274.68 441.856 274.62 441.856H222.87C222.81 441.856 222.75 441.856 222.69 441.886 222.63 441.886 222.57 441.946 222.51 441.976 222.48 442.036 222.45 442.096 222.42 442.156 222.39 442.216 222.39 442.276 222.39 442.336V464.776C222.39 464.836 222.39 464.896 222.42 464.956 222.45 465.016 222.48 465.076 222.51 465.136 222.57 465.196 222.63 465.226 222.69 465.256 222.75 465.256 222.81 465.286 222.87 465.286Z" fill="#e1e1e1" fill-rule="evenodd"/><path transform="matrix(.03,0,0,.03,0,0)" stroke-width="5" stroke-linecap="round" stroke-linejoin="round" fill="none" stroke="#000000" d="M8747 4551V4616H8764V4551H8747"/><path transform="matrix(1,0,0,-1,0,595.276)" d="M226.32 456.796H228.27V457.336H226.92V457.876H228.03V458.416H226.92V458.956H228.12V459.526H226.32Z" fill-rule="evenodd"/><path transform="matrix(1,0,0,-1,0,595.276)" d="M229.59 457.366 229.26 456.796H228.66L229.29 457.786 228.72 458.746H229.32L229.59 458.176 229.89 458.746H230.49L229.92 457.786 230.55 456.796H229.95Z" fill-rule="evenodd"/><path transform="matrix(1,0,0,-1,0,595.276)" d="M230.82 457.756C230.85 457.066 231.18 456.706 231.81 456.676 232.05 456.676 232.23 456.736 232.38 456.826 232.5 456.946 232.62 457.126 232.68 457.336L232.23 457.516C232.14 457.276 232.02 457.186 231.81 457.186 231.6 457.186 231.45 457.336 231.36 457.606V457.636C231.36 457.666 231.36 457.726 231.36 457.756 231.33 457.816 231.36 457.846 231.36 457.876 231.42 458.176 231.57 458.326 231.78 458.326 231.9 458.326 231.96 458.296 232.05 458.266 232.11 458.206 232.17 458.116 232.23 458.026L232.68 458.236C232.53 458.626 232.23 458.836 231.78 458.836 231.21 458.836 230.88 458.476 230.82 457.756Z" fill-rule="evenodd"/><path transform="matrix(1,0,0,-1,0,595.276)" d="M238.14 457.396C238.14 457.276 238.23 457.186 238.35 457.186 238.38 457.186 238.44 457.186 238.47 457.186 238.53 457.186 238.59 457.216 238.65 457.216L238.74 456.796C238.62 456.706 238.44 456.676 238.17 456.676 237.99 456.676 237.87 456.706 237.78 456.796 237.69 456.886 237.63 457.006 237.63 457.186V458.266H237.3V458.746H237.63V459.376L238.14 459.526V458.746H238.65V458.266H238.14V457.396Z" fill-rule="evenodd"/><path transform="matrix(1,0,0,-1,0,595.276)" d="M240.66 458.146C240.66 457.906 240.72 457.666 240.81 457.516 240.93 457.336 241.11 457.276 241.29 457.276 241.44 457.246 241.62 457.306 241.77 457.426 241.83 457.486 241.89 457.546 241.92 457.636 241.95 457.696 241.95 457.786 241.95 457.846H241.29V458.326H242.49V456.736H241.98V456.916C241.89 456.826 241.8 456.766 241.68 456.736 241.56 456.676 241.41 456.676 241.29 456.676 240.93 456.676 240.63 456.826 240.39 457.096 240.18 457.336 240.06 457.726 240.06 458.146 240.06 458.566 240.18 458.926 240.39 459.226 240.63 459.496 240.93 459.616 241.29 459.616 241.5 459.616 241.77 459.586 241.98 459.436 242.19 459.316 242.37 459.106 242.46 458.896L241.95 458.626C241.95 458.866 241.68 459.016 241.29 459.016 240.9 459.016 240.66 458.686 240.66 458.146Z" fill-rule="evenodd"/><path transform="matrix(1,0,0,-1,0,595.276)" d="M246.27 458.836C246.78 458.836 247.02 458.626 247.05 458.176V458.146 456.796H246.48V457.936 457.966 457.996C246.48 458.206 246.36 458.326 246.18 458.326 245.97 458.326 245.85 458.206 245.82 457.996V456.796H245.25V458.776H245.82V458.656C245.85 458.716 245.94 458.746 246 458.776 246.09 458.806 246.18 458.836 246.27 458.836Z" fill-rule="evenodd"/><path transform="matrix(1,0,0,-1,0,595.276)" d="M245.79 462.196C245.94 462.196 246.06 462.136 246.06 462.046V460.696H246.6V461.926C246.6 462.076 246.78 462.196 246.93 462.196 247.02 462.196 247.08 462.196 247.14 462.136 247.2 462.106 247.2 462.076 247.2 462.016V460.696H247.74V462.106C247.74 462.136 247.74 462.166 247.74 462.196 247.74 462.226 247.71 462.226 247.71 462.286 247.59 462.556 247.35 462.736 246.99 462.736 246.75 462.736 246.57 462.646 246.42 462.466 246.33 462.646 246.15 462.736 245.91 462.736 245.82 462.736 245.73 462.736 245.67 462.706 245.58 462.676 245.49 462.616 245.43 462.586V462.676H244.89V460.696H245.46V461.926C245.46 462.076 245.64 462.196 245.79 462.196Z" fill-rule="evenodd"/><path transform="matrix(1,0,0,-1,0,595.276)" d="M249.18 461.656V461.206H248.31V461.656Z" fill-rule="evenodd"/><path transform="matrix(1,0,0,-1,0,595.276)" d="M253.95 459.526V457.366L253.98 457.306V457.276C253.98 457.246 254.1 457.216 254.31 457.276L254.37 456.796C254.37 456.766 254.37 456.766 254.34 456.766 254.34 456.766 254.28 456.736 254.25 456.736 254.16 456.736 254.04 456.736 253.95 456.736 253.68 456.736 253.47 456.856 253.44 457.066 253.44 457.126 253.41 457.126 253.41 457.156V457.186L253.44 457.216V459.526H253.95Z" fill-rule="evenodd"/><path transform="matrix(1,0,0,-1,0,595.276)" d="M256.62 462.196C256.44 462.196 256.29 462.076 256.26 461.926V460.696H255.72V462.046C255.72 462.136 255.6 462.196 255.45 462.196 255.3 462.196 255.12 462.076 255.12 461.926V460.696H254.58V462.676H255.09V462.586C255.18 462.616 255.24 462.676 255.33 462.706 255.39 462.736 255.48 462.736 255.57 462.736 255.81 462.736 255.99 462.646 256.08 462.466 256.23 462.646 256.41 462.736 256.65 462.736 257.01 462.736 257.25 462.556 257.37 462.286 257.4 462.226 257.4 462.226 257.4 462.196 257.4 462.166 257.4 462.136 257.4 462.106V460.696H256.89V462.016C256.89 462.046 256.86 462.076 256.86 462.106 256.86 462.106 256.83 462.136 256.8 462.136 256.74 462.196 256.68 462.196 256.62 462.196Z" fill-rule="evenodd"/><path transform="matrix(1,0,0,-1,0,595.276)" d="M258.15 456.796V459.526H257.61V458.416H257.04 256.47V459.526H255.9V456.796H256.47V457.876H257.04 257.61V456.796Z" fill-rule="evenodd"/><path transform="matrix(1,0,0,-1,0,595.276)" d="M261.93 457.276C261.72 457.216 261.6 457.246 261.57 457.276V457.306 457.366 459.526H261.03V457.216 457.186 457.156C261.03 457.126 261.03 457.126 261.06 457.066 261.09 456.856 261.3 456.736 261.57 456.736 261.66 456.736 261.78 456.736 261.87 456.736 261.9 456.736 261.93 456.766 261.96 456.766 261.99 456.766 261.99 456.766 261.99 456.796L261.93 457.276Z" fill-rule="evenodd"/><path transform="matrix(1,0,0,-1,0,595.276)" d="M250.32 456.796V457.936C250.35 458.026 250.41 458.116 250.5 458.176 250.59 458.236 250.74 458.266 250.95 458.296V458.836C250.77 458.836 250.65 458.836 250.53 458.776 250.41 458.746 250.35 458.656 250.29 458.566V458.776H249.78V456.796H250.32Z" fill-rule="evenodd"/><path transform="matrix(1,0,0,-1,0,595.276)" d="M262.41 456.796H262.92V458.746H262.41Z" fill-rule="evenodd"/><path transform="matrix(1,0,0,-1,0,595.276)" d="M268.92 456.466C268.86 456.256 268.71 456.106 268.56 456.076 268.44 456.076 268.35 456.106 268.23 456.106 268.14 456.136 268.02 456.136 267.9 456.166L267.99 456.616C268.08 456.616 268.2 456.586 268.35 456.586 268.38 456.616 268.41 456.646 268.41 456.706 268.41 456.706 268.41 456.766 268.41 456.796 268.41 456.826 268.38 456.886 268.38 456.916L267.78 458.746H268.35L268.71 457.546 269.1 458.746H269.67L268.92 456.466Z" fill-rule="evenodd"/><path transform="matrix(1,0,0,-1,0,595.276)" d="M237.03 457.786C237.03 458.086 236.94 458.356 236.79 458.566 236.61 458.746 236.4 458.836 236.1 458.836 236.01 458.836 235.89 458.806 235.8 458.806 235.71 458.776 235.65 458.716 235.62 458.686V458.776H235.11V456.106H235.65V456.856C235.71 456.766 235.92 456.676 236.13 456.676 236.67 456.676 237.03 457.126 237.03 457.786ZM236.04 457.216C235.98 457.216 235.86 457.246 235.77 457.306 235.74 457.336 235.71 457.396 235.68 457.426 235.68 457.456 235.65 457.516 235.65 457.546V458.056C235.65 458.206 235.83 458.326 236.04 458.356H236.07C236.13 458.356 236.22 458.356 236.28 458.296 236.37 458.236 236.43 458.176 236.46 458.086L236.49 457.996V457.576 457.546 457.486H236.46C236.46 457.396 236.37 457.306 236.28 457.276 236.19 457.216 236.1 457.186 236.04 457.216Z" fill-rule="evenodd"/><path transform="matrix(1,0,0,-1,0,595.276)" d="M262.98 459.256C262.98 459.436 262.83 459.556 262.65 459.556 262.5 459.556 262.35 459.436 262.35 459.256 262.35 459.076 262.5 458.926 262.65 458.926 262.83 458.926 262.98 459.076 262.98 459.256Z" fill-rule="evenodd"/><path transform="matrix(1,0,0,-1,0,595.276)" d="M249.72 461.356 250.26 461.506C250.29 461.386 250.35 461.296 250.44 461.236 250.53 461.176 250.62 461.146 250.77 461.146 251.04 461.176 251.22 461.356 251.22 461.626 251.22 461.746 251.19 461.896 251.07 461.986 250.98 462.076 250.86 462.136 250.71 462.136 250.56 462.136 250.38 462.046 250.35 461.896L249.75 461.956 249.9 463.426H251.61V462.856H250.41V462.646L250.38 462.556C250.38 462.586 250.44 462.616 250.53 462.616 250.65 462.646 250.74 462.646 250.8 462.646 251.46 462.646 251.82 462.286 251.82 461.596 251.82 461.326 251.73 461.056 251.52 460.876 251.34 460.666 251.07 460.606 250.77 460.606 250.23 460.606 249.87 460.846 249.72 461.356Z" fill-rule="evenodd"/><path transform="matrix(1,0,0,-1,0,595.276)" d="M252.24 462.676V460.006H252.81V460.756C252.84 460.666 253.05 460.576 253.26 460.606 253.53 460.606 253.74 460.696 253.92 460.906 254.1 461.086 254.16 461.386 254.16 461.686 254.16 462.346 253.83 462.736 253.26 462.736 253.14 462.736 253.02 462.736 252.93 462.706 252.84 462.676 252.78 462.616 252.75 462.586V462.676H252.24ZM253.2 461.116C253.11 461.116 253.02 461.146 252.93 461.206 252.84 461.296 252.81 461.386 252.81 461.446V461.956C252.81 462.106 252.99 462.256 253.17 462.256H253.2C253.26 462.256 253.35 462.256 253.44 462.196 253.5 462.136 253.59 462.076 253.62 462.016V461.986 461.896 461.476 461.386C253.59 461.296 253.53 461.206 253.44 461.176 253.35 461.116 253.26 461.116 253.2 461.116Z" fill-rule="evenodd"/><path transform="matrix(1,0,0,-1,0,595.276)" d="M260.7 457.756C260.7 458.446 260.34 458.836 259.74 458.836 259.11 458.836 258.75 458.446 258.75 457.756 258.75 457.066 259.11 456.676 259.74 456.676 260.04 456.676 260.28 456.766 260.46 456.976 260.61 457.156 260.7 457.426 260.7 457.756ZM260.13 457.756C260.13 457.426 259.98 457.246 259.74 457.246 259.62 457.246 259.5 457.276 259.44 457.366 259.35 457.456 259.32 457.606 259.32 457.756 259.32 458.086 259.47 458.296 259.74 458.296 259.98 458.296 260.13 458.086 260.13 457.756Z" fill-rule="evenodd"/><path transform="matrix(1,0,0,-1,0,595.276)" d="M269.82 457.096 270.21 457.456C270.27 457.366 270.36 457.306 270.45 457.246 270.57 457.216 270.66 457.186 270.78 457.186 270.84 457.186 270.9 457.216 270.93 457.246 270.99 457.276 270.99 457.306 270.99 457.366 270.99 457.486 270.84 457.546 270.54 457.546 270.18 457.606 270 457.816 269.97 458.146 269.97 458.626 270.27 458.866 270.81 458.866 270.99 458.866 271.14 458.836 271.26 458.776 271.38 458.716 271.47 458.626 271.56 458.536L271.23 458.146C271.14 458.296 270.99 458.386 270.81 458.386 270.69 458.386 270.63 458.356 270.6 458.326 270.54 458.296 270.51 458.266 270.51 458.206 270.51 458.176 270.54 458.116 270.63 458.116 270.69 458.086 270.78 458.056 270.93 458.056 271.38 457.996 271.59 457.756 271.59 457.366 271.59 457.156 271.5 457.006 271.35 456.856 271.2 456.736 270.99 456.676 270.75 456.676 270.36 456.676 270.03 456.826 269.82 457.096Z" fill-rule="evenodd"/><path transform="matrix(1,0,0,-1,0,595.276)" d="M264.72 458.656C264.51 458.746 264.33 458.806 264.18 458.806 263.73 458.776 263.37 458.476 263.31 457.936V457.906 457.696 457.666C263.4 457.006 263.79 456.646 264.24 456.676 264.48 456.706 264.63 456.736 264.72 456.826V456.736H265.26V459.526H264.72V458.656ZM263.85 457.756C263.88 458.086 264.03 458.266 264.33 458.296 264.42 458.296 264.54 458.236 264.63 458.176V458.146C264.66 458.116 264.69 458.086 264.69 458.056 264.72 458.026 264.72 457.996 264.72 457.906V457.426C264.66 457.336 264.63 457.276 264.54 457.246 264.48 457.186 264.39 457.156 264.3 457.156 264 457.186 263.85 457.366 263.85 457.756Z" fill-rule="evenodd"/><path transform="matrix(1,0,0,-1,0,595.276)" d="M267.42 456.706 267.57 457.126C267.51 457.126 267.45 457.126 267.42 457.156 267.39 457.186 267.39 457.216 267.36 457.246V458.266C267.36 458.476 267.27 458.596 267.12 458.716 267 458.806 266.79 458.836 266.55 458.836 266.37 458.836 266.19 458.806 266.04 458.776 265.92 458.716 265.77 458.626 265.68 458.536L265.95 458.146C266.1 458.296 266.31 458.356 266.55 458.356 266.64 458.356 266.7 458.326 266.73 458.296 266.76 458.296 266.79 458.266 266.79 458.236 266.79 458.206 266.79 458.176 266.79 458.146V458.056C266.4 458.056 266.13 457.996 265.92 457.876 265.74 457.786 265.65 457.606 265.65 457.396 265.65 457.186 265.71 457.006 265.83 456.886 265.98 456.736 266.19 456.676 266.43 456.676 266.61 456.676 266.88 456.796 266.91 456.916 266.97 456.766 267.15 456.706 267.42 456.706ZM266.52 457.156C266.43 457.156 266.34 457.156 266.28 457.216 266.22 457.246 266.22 457.306 266.22 457.396 266.22 457.456 266.25 457.516 266.37 457.546 266.46 457.606 266.61 457.636 266.79 457.636V457.276C266.76 457.216 266.67 457.186 266.52 457.156Z" fill-rule="evenodd"/><path transform="matrix(1,0,0,-1,0,595.276)" d="M251.97 456.676C252.18 456.676 252.42 456.796 252.48 456.916 252.48 456.826 252.54 456.796 252.63 456.766 252.72 456.736 252.84 456.706 252.99 456.706L253.11 457.126C253.05 457.126 253.02 457.126 252.96 457.156 252.93 457.186 252.93 457.216 252.93 457.246V458.266C252.87 458.656 252.6 458.866 252.09 458.836 251.91 458.836 251.73 458.806 251.61 458.776 251.46 458.716 251.34 458.626 251.22 458.536L251.49 458.146C251.67 458.296 251.85 458.356 252.09 458.356 252.18 458.356 252.24 458.326 252.3 458.296 252.3 458.296 252.33 458.266 252.33 458.236 252.33 458.206 252.33 458.176 252.33 458.146V458.056C251.58 458.056 251.19 457.846 251.19 457.396 251.19 456.946 251.46 456.676 251.97 456.676ZM251.76 457.396C251.76 457.456 251.82 457.516 251.91 457.546 252 457.606 252.15 457.636 252.33 457.636V457.276C252.3 457.216 252.21 457.186 252.09 457.156 251.97 457.156 251.88 457.156 251.82 457.216 251.79 457.246 251.76 457.306 251.76 457.396Z" fill-rule="evenodd"/><path transform="matrix(1,0,0,-1,0,595.276)" d="M241.17 463.516C241.8 463.516 242.13 463.216 242.13 462.676 242.13 462.436 242.04 462.226 241.86 462.106 242.1 461.986 242.22 461.746 242.22 461.506 242.22 461.236 242.13 460.996 241.92 460.846 241.74 460.666 241.47 460.606 241.17 460.606 240.87 460.606 240.57 460.666 240.39 460.846 240.18 460.996 240.09 461.236 240.09 461.506 240.09 461.746 240.21 461.986 240.45 462.106 240.27 462.226 240.18 462.436 240.18 462.676 240.18 462.946 240.27 463.156 240.42 463.306 240.6 463.456 240.84 463.516 241.17 463.516ZM241.17 462.376C241.41 462.376 241.56 462.466 241.56 462.676 241.56 462.766 241.53 462.856 241.44 462.886 241.38 462.946 241.29 462.976 241.17 462.976 240.9 462.976 240.75 462.856 240.75 462.676 240.75 462.466 240.9 462.376 241.17 462.376ZM241.17 461.116C241.44 461.116 241.62 461.266 241.62 461.476 241.62 461.716 241.44 461.866 241.17 461.866 240.87 461.866 240.72 461.716 240.69 461.476 240.72 461.266 240.87 461.116 241.17 461.116Z" fill-rule="evenodd"/><path transform="matrix(1,0,0,-1,0,595.276)" d="M242.64 461.296C242.64 461.086 242.7 460.906 242.85 460.786 243 460.666 243.18 460.606 243.45 460.606 243.63 460.606 243.87 460.696 243.93 460.816 243.96 460.756 243.99 460.696 244.08 460.666 244.17 460.636 244.29 460.606 244.44 460.606L244.56 461.026C244.5 461.026 244.47 461.026 244.44 461.056 244.41 461.086 244.38 461.116 244.38 461.146V462.166C244.32 462.556 244.05 462.766 243.54 462.736 243.36 462.736 243.21 462.736 243.06 462.676 242.91 462.616 242.79 462.526 242.7 462.436L242.94 462.046C243.12 462.196 243.33 462.256 243.57 462.256 243.63 462.256 243.69 462.256 243.75 462.196 243.75 462.196 243.78 462.166 243.78 462.136 243.81 462.106 243.81 462.076 243.81 462.046V461.956C243.03 461.956 242.64 461.746 242.64 461.296ZM243.21 461.296C243.21 461.446 243.42 461.536 243.81 461.536V461.206C243.78 461.146 243.75 461.116 243.69 461.116 243.66 461.086 243.6 461.086 243.54 461.056 243.42 461.056 243.33 461.086 243.3 461.116 243.24 461.146 243.21 461.206 243.21 461.296Z" fill-rule="evenodd"/><path transform="matrix(1,0,0,-1,0,595.276)" d="M243.6 457.576H244.83C244.86 457.966 244.77 458.266 244.62 458.476 244.47 458.716 244.23 458.806 243.93 458.836 243.39 458.836 243.09 458.476 243.03 457.786 243.03 457.486 243.09 457.246 243.24 457.066 243.45 456.826 243.75 456.706 244.02 456.676 244.17 456.676 244.35 456.706 244.5 456.766 244.65 456.856 244.74 456.946 244.8 457.036L244.47 457.366C244.38 457.246 244.2 457.186 244.02 457.186 243.93 457.186 243.81 457.216 243.72 457.276 243.63 457.366 243.6 457.486 243.6 457.576ZM243.57 457.966V457.996C243.57 458.086 243.63 458.176 243.69 458.236 243.78 458.296 243.87 458.356 243.96 458.356 244.11 458.326 244.29 458.206 244.32 458.026V457.996 457.966H243.57Z" fill-rule="evenodd"/><path transform="matrix(1,0,0,-1,0,595.276)" d="M247.74 457.066C247.95 456.826 248.25 456.706 248.52 456.676 248.67 456.676 248.82 456.706 249 456.766 249.15 456.856 249.24 456.946 249.27 457.036L248.97 457.366C248.88 457.246 248.7 457.186 248.52 457.186 248.43 457.186 248.31 457.216 248.22 457.276 248.19 457.336 248.16 457.366 248.13 457.426 248.1 457.486 248.1 457.516 248.1 457.576H249.33C249.36 458.386 249.06 458.806 248.4 458.836 247.89 458.836 247.59 458.476 247.53 457.786 247.53 457.486 247.59 457.246 247.74 457.066ZM248.07 457.966V457.996C248.07 458.086 248.13 458.176 248.19 458.236 248.28 458.296 248.37 458.356 248.43 458.356 248.61 458.326 248.76 458.206 248.82 458.026V457.996 457.966H248.07Z" fill-rule="evenodd"/><path transform="matrix(1,0,0,-1,0,595.276)" d="M233.46 457.576H234.69C234.69 457.966 234.63 458.266 234.48 458.476 234.33 458.716 234.09 458.806 233.76 458.836 233.22 458.836 232.92 458.476 232.86 457.786 232.86 457.486 232.95 457.246 233.1 457.066 233.31 456.826 233.58 456.706 233.88 456.676 234 456.676 234.18 456.706 234.33 456.766 234.48 456.856 234.6 456.946 234.63 457.036L234.3 457.366C234.24 457.246 234.06 457.186 233.88 457.186 233.76 457.186 233.67 457.216 233.58 457.276 233.49 457.366 233.46 457.486 233.46 457.576ZM233.43 457.966V457.996C233.43 458.086 233.46 458.176 233.55 458.236 233.61 458.296 233.7 458.356 233.79 458.356 233.94 458.326 234.12 458.206 234.15 458.026V457.996L234.18 457.966H233.43Z" fill-rule="evenodd"/><path transform="matrix(1,0,0,-1,0,595.276)" d="M229.14 453.016V452.776H227.34V450.736H229.53V450.466H225.21V450.736H227.01V454.786H227.19L227.34 454.756 227.4 454.696V454.666L227.34 454.606V453.016Z" fill-rule="evenodd"/><path transform="matrix(1,0,0,-1,0,595.276)" d="M232.68 452.206V450.346H232.98V452.206H234.9V452.476H232.98V453.946H234.51V454.216H231.69L231.9 454.636 232.02 454.666V454.726L231.96 454.756 231.84 454.816 231.66 454.936 231.24 454.036 230.7 453.226 230.94 453.016 231.27 453.496 231.54 453.946H232.68V452.476H230.55V452.206Z" fill-rule="evenodd"/><path transform="matrix(1,0,0,-1,0,595.276)" d="M236.7 451.126 236.91 451.486 237.06 451.846 237.21 452.266 237.3 452.716 237.36 453.196 237.42 453.736 237.48 453.796V453.826L237.45 453.856 237.36 453.886 237.03 453.916 237 453.376 236.94 452.896 236.85 452.446 236.73 452.026 236.55 451.666 236.37 451.306 236.16 451.006 235.92 450.736V450.676L236.13 450.556H236.22L236.49 450.826Z" fill-rule="evenodd"/><path transform="matrix(1,0,0,-1,0,595.276)" d="M239.73 450.976 240 450.616H240.09L240.27 450.706V450.796L240.03 451.156 239.79 451.546 239.58 451.966 239.4 452.446 239.28 452.956 239.16 453.496 239.07 454.066 239.04 454.696H237.72V454.426H238.71L238.77 453.826 238.86 453.286 238.95 452.746 239.1 452.236 239.28 451.786 239.49 451.366Z" fill-rule="evenodd"/><path transform="matrix(1,0,0,-1,0,595.276)" d="M243.84 451.006 244.02 451.246 243.66 451.516 243.27 451.756 243.09 451.516 243.48 451.276Z" fill-rule="evenodd"/><path transform="matrix(1,0,0,-1,0,595.276)" d="M244.2 450.376H244.71L244.8 450.406 244.89 450.496 244.92 450.586 244.95 450.706V451.936L244.98 451.966H245.46L245.52 451.996V452.206L245.46 452.236H244.98L244.95 452.266V452.566L245.01 452.626 244.98 452.686 244.92 452.716H244.77L244.68 452.746 244.62 452.716V452.266L244.59 452.236H243.06L243.03 452.206V451.996L243.06 451.966H244.59L244.62 451.936V450.826L244.59 450.706 244.5 450.676H244.11L244.05 450.646V450.586L244.08 450.436 244.14 450.376Z" fill-rule="evenodd"/><path transform="matrix(1,0,0,-1,0,595.276)" d="M244.44 453.136H245.58L245.64 453.106V452.926L245.58 452.896H242.91L242.88 452.926V453.106L242.91 453.136H244.05L244.08 453.166V453.976L244.05 454.006H243.27 243.15L243.12 454.036V454.216L243.15 454.246 243.27 454.276H244.05 244.08V454.846L244.14 454.876 244.32 454.846H244.41L244.47 454.786V454.756L244.41 454.666V454.276H244.44 245.31L245.34 454.216V454.036L245.31 454.006H244.44L244.41 453.976V453.166Z" fill-rule="evenodd"/><path transform="matrix(1,0,0,-1,0,595.276)" d="M250.17 453.466 247.92 453.226 248.7 454.366H250.83V454.606H246.81V454.366H248.37L247.59 453.226 246.9 453.196 246.96 452.986 247.02 452.866 247.08 452.806 247.14 452.836 247.17 452.896 250.32 453.226 250.56 452.746 250.86 452.806 250.44 453.526 249.96 454.156 249.72 454.036Z" fill-rule="evenodd"/><path transform="matrix(1,0,0,-1,0,595.276)" d="M248.97 450.886V451.846H250.59V452.116H248.97V452.566L249.09 452.656 249.15 452.716 249.09 452.746 248.97 452.776H248.7V452.116H247.05V451.846H248.7V450.886H246.69V450.646H250.98V450.886Z" fill-rule="evenodd"/><path transform="matrix(1,0,0,-1,0,595.276)" d="M253.98 454.486V450.526H254.31V453.136L255.03 452.686 255.66 452.236 255.84 452.446 255.12 452.986 254.31 453.466V454.486H256.38V454.726H252V454.486Z" fill-rule="evenodd"/><path transform="matrix(1,0,0,-1,0,595.276)" d="M259.83 452.206H261.75V452.476H259.83V453.946H261.33V454.216H258.54L258.75 454.636 258.84 454.666 258.87 454.726 258.81 454.756 258.66 454.816 258.48 454.936 258.06 454.036 257.52 453.226 257.76 453.016 258.09 453.496 258.36 453.946H259.5V452.476H257.37V452.206H259.5V450.346H259.83Z" fill-rule="evenodd"/><path transform="matrix(1,0,0,-1,0,595.276)" d="M270.66 451.006 270.84 451.246 270.48 451.516 270.09 451.756 269.91 451.516 270.3 451.276Z" fill-rule="evenodd"/><path transform="matrix(1,0,0,-1,0,595.276)" d="M271.44 450.826 271.41 450.706 271.35 450.676H270.93L270.87 450.646V450.586L270.9 450.436 270.96 450.376H271.05 271.56L271.65 450.406 271.71 450.496 271.74 450.586 271.77 450.706V451.936L271.8 451.966H272.31L272.34 451.996V452.206L272.31 452.236H271.8L271.77 452.266V452.566L271.83 452.626V452.686L271.74 452.716H271.62L271.5 452.746 271.44 452.716V452.266L271.41 452.236H269.91L269.85 452.206V451.996L269.91 451.966H271.41L271.44 451.936Z" fill-rule="evenodd"/><path transform="matrix(1,0,0,-1,0,595.276)" d="M271.23 453.166V453.976L271.26 454.006H272.13L272.16 454.036V454.216L272.13 454.276H271.26 271.23V454.666L271.29 454.756V454.786L271.26 454.846H271.14L270.96 454.876 270.9 454.846V454.276H270.87 270.09L269.97 454.246 269.94 454.216V454.036L269.97 454.006H270.09 270.87L270.9 453.976V453.166L270.87 453.136H269.76L269.7 453.106V452.926L269.76 452.896H272.43L272.46 452.926V453.106L272.43 453.136H271.26Z" fill-rule="evenodd"/><path transform="matrix(1,0,0,-1,0,595.276)" d="M263.07 443.956V446.116L262.5 446.716 262.68 446.926 263.07 446.536V448.456L263.31 448.426 263.4 448.396 263.46 448.366 263.43 448.336 263.34 448.276V446.266L263.82 445.906 264.39 445.606 264.27 445.396 263.79 445.636 263.34 445.936V443.956Z" fill-rule="evenodd"/><path transform="matrix(1,0,0,-1,0,595.276)" d="M258.78 444.346 258.96 444.556 258.57 444.976 258.27 445.276 258.06 445.096H258.09L258.12 445.066Z" fill-rule="evenodd"/><path transform="matrix(1,0,0,-1,0,595.276)" d="M257.34 444.496 257.28 444.376 257.22 444.316 257.13 444.286H256.92 256.83L256.8 444.226 256.83 444.076 256.89 444.016 257.01 443.986H257.1L257.34 444.016 257.49 444.136 257.61 444.346 257.64 444.586V445.636L257.67 445.666H258.75L258.78 445.696V445.876L258.75 445.906H257.67L257.64 445.966V446.626L257.67 446.656H258.3L258.33 446.686V446.896L258.3 446.926H256.59L256.56 446.896V446.686L256.59 446.656H257.31L257.34 446.626V445.966L257.31 445.906H256.26 256.23V445.846 445.666H256.2 257.31L257.34 445.636V444.676Z" fill-rule="evenodd"/><path transform="matrix(1,0,0,-1,0,595.276)" d="M256.17 444.256 256.47 444.646 256.8 445.066H256.86V445.096 445.126L256.83 445.186 256.62 445.306 256.29 444.796 255.96 444.436Z" fill-rule="evenodd"/><path transform="matrix(1,0,0,-1,0,595.276)" d="M254.94 447.946V443.956L254.91 443.926H254.67L254.64 443.956V448.216L254.67 448.246H255.69 255.9L256.05 448.216 256.11 448.156 256.14 448.066 255.48 446.806 255.78 446.326 255.99 445.846 256.02 445.426 255.99 445.096 255.9 444.946 255.81 444.856 255.69 444.766 255.54 444.706H255.33 255.21L255.18 444.796 255.12 444.976 255.15 445.006 255.3 445.036H255.36 255.51L255.6 445.156 255.66 445.306 255.69 445.546 255.63 445.846 255.51 446.146 255.36 446.416 255.15 446.716 255.75 447.946 255.72 448.006H255.63 254.88 254.91Z" fill-rule="evenodd"/><path transform="matrix(1,0,0,-1,0,595.276)" d="M256.2 446.746 256.83 447.286 257.43 447.976 257.73 447.616 258 447.316 258.3 447.076 258.6 446.896 258.72 446.866 258.9 447.016V447.046 447.076L258.51 447.316 258.18 447.586 257.85 447.886 257.58 448.216 257.7 448.246 257.76 448.276V448.306L257.73 448.336 257.67 448.366 257.4 448.456 257.07 448.036 256.77 447.646 256.44 447.316 256.11 447.046 256.05 447.016V446.956L256.11 446.896Z" fill-rule="evenodd"/><path transform="matrix(1,0,0,-1,0,595.276)" d="M249.63 443.956 249.93 444.316 250.23 444.766 250.32 444.796 250.38 444.826 250.35 444.856 250.29 444.916 250.11 445.006 250.05 445.036 249.69 444.496 249.36 444.106Z" fill-rule="evenodd"/><path transform="matrix(1,0,0,-1,0,595.276)" d="M251.58 444.256 251.34 444.076 251.07 444.406 250.83 444.826 251.07 445.006 251.37 444.526Z" fill-rule="evenodd"/><path transform="matrix(1,0,0,-1,0,595.276)" d="M247.8 447.886V446.866H246.81V446.596H248.13V448.126H246.84V447.886Z" fill-rule="evenodd"/><path transform="matrix(1,0,0,-1,0,595.276)" d="M244.44 443.926V446.596L244.02 446.026 243.78 446.266 244.08 446.776 244.35 447.316 244.59 447.886 244.83 448.486 245.13 448.306 245.19 448.276V448.246L245.16 448.216 245.1 448.186 244.74 447.316V443.926Z" fill-rule="evenodd"/><path transform="matrix(1,0,0,-1,0,595.276)" d="M242.7 444.076 242.82 444.226 242.88 444.316 242.58 444.466 242.34 444.646 242.13 444.856 241.98 445.096 242.61 445.606H242.73V445.696L242.49 445.876 242.19 445.576 241.83 445.336 241.68 445.726 241.59 446.206 241.29 446.176 241.47 445.516 241.68 444.976 241.83 444.736 242.04 444.526 242.28 444.316 242.58 444.106Z" fill-rule="evenodd"/><path transform="matrix(1,0,0,-1,0,595.276)" d="M238.74 444.016 239.4 444.436 239.97 444.946H240.03L240.06 444.976V445.006L240 445.066 239.82 445.216 239.19 444.646 238.53 444.226Z" fill-rule="evenodd"/><path transform="matrix(1,0,0,-1,0,595.276)" d="M237.39 444.286 236.88 445.066 236.25 445.876 236.04 445.666 236.55 444.976 234.51 444.766 235.41 446.776 235.5 446.806 235.53 446.866 235.5 446.896 235.41 446.926 235.11 446.986 234.09 444.706 233.52 444.646 233.55 444.346 233.61 444.226 233.64 444.196 233.73 444.226 233.79 444.346 236.73 444.706 237.12 444.076Z" fill-rule="evenodd"/><path transform="matrix(1,0,0,-1,0,595.276)" d="M237.09 446.806 236.79 447.256 236.55 447.766 236.34 448.366H235.26V448.096H236.07L236.25 447.556 236.52 447.046 236.82 446.566 237.24 446.146 237.33 446.176 237.45 446.296 237.51 446.356 237.48 446.446Z" fill-rule="evenodd"/><path transform="matrix(1,0,0,-1,0,595.276)" d="M234.09 446.986 234.39 447.436 234.63 447.946 234.72 448.006 234.75 448.036 234.72 448.066 234.63 448.126 234.36 448.216 234.15 447.706 233.85 447.196 233.52 446.716 233.1 446.266 233.43 446.146 233.76 446.536Z" fill-rule="evenodd"/><path transform="matrix(1,0,0,-1,0,595.276)" d="M242.34 451.516V451.306L242.4 451.276H242.61L242.67 451.306V454.396L242.61 454.426H241.32L241.29 454.396V450.946L241.32 450.916H241.56L241.59 450.946V451.516L241.62 451.546H242.31L242.34 451.516ZM241.62 452.896H242.31L242.34 452.866V451.846L242.31 451.816H241.62L241.59 451.846V452.866L241.62 452.896ZM241.62 453.136 241.59 453.166V454.126L241.62 454.156H242.31L242.34 454.126V453.166L242.31 453.136H241.62Z" fill-rule="evenodd"/><path transform="matrix(1,0,0,-1,0,595.276)" d="M264.45 453.076H263.25V452.836H264.39L263.88 450.916H262.71V450.676H267.15V450.916H266.25L266.46 453.076H264.75L265.08 454.336H266.91V454.606H263.04V454.336H264.78L264.45 453.076ZM264.69 452.836H266.13L265.98 450.916H264.21L264.69 452.836Z" fill-rule="evenodd"/><path transform="matrix(1,0,0,-1,0,595.276)" d="M268.38 450.916H268.14L268.11 450.946V454.396L268.14 454.426H269.46L269.49 454.396V451.306L269.46 451.276H269.22L269.19 451.306V451.516L269.16 451.546H268.47L268.41 451.516V450.946L268.38 450.916ZM268.41 451.846 268.47 451.816H269.16L269.19 451.846V452.866L269.16 452.896H268.47L268.41 452.866V451.846ZM268.47 453.136H269.16L269.19 453.166V454.126L269.16 454.156H268.47L268.41 454.126V453.166L268.47 453.136Z" fill-rule="evenodd"/><path transform="matrix(1,0,0,-1,0,595.276)" d="M261.24 447.766 261.36 448.216 261.48 448.246 261.51 448.276 261.48 448.306 261.42 448.336 261.09 448.426 260.88 447.766 260.61 447.136 260.28 446.566 259.92 446.026 260.22 445.906 260.55 446.356 261.51 445.756 261.18 445.276 260.82 444.856 260.46 444.466 260.04 444.166V444.106L260.19 443.956H260.28L260.73 444.286 261.12 444.646 261.48 445.066 261.78 445.546 262.08 446.386 262.29 447.346V447.526L262.26 447.646 262.14 447.736 262.02 447.766H261.24ZM260.7 446.596 261.15 447.496H261.99L261.81 446.686 261.6 446.026 260.7 446.596Z" fill-rule="evenodd"/><path transform="matrix(1,0,0,-1,0,595.276)" d="M253.32 445.546V444.706L253.29 444.556 253.26 444.436 253.17 444.346 253.08 444.286H252.81L252.72 444.256 252.75 444.196 252.78 444.076 252.84 444.046 252.87 444.016 253.35 444.076 253.47 444.166 253.56 444.316 253.59 444.496 253.62 444.736V448.276H252.18V447.076L252.15 445.816 252 444.916 251.82 444.256 251.79 444.196 251.82 444.166 252 444.046 252.06 444.076 252.27 444.676 252.42 445.546H253.32ZM253.32 446.836V445.786H252.45L252.48 446.836H253.32ZM252.48 447.076V448.036H253.29V447.076H252.48Z" fill-rule="evenodd"/><path transform="matrix(1,0,0,-1,0,595.276)" d="M248.16 443.956H248.19L248.34 444.166V444.196L247.95 444.436 247.71 444.676 247.98 445.186 248.25 445.906V446.026L248.19 446.116 248.1 446.146 247.95 446.176H246.69V445.906H246.87L246.93 445.576 247.02 445.246 247.14 444.946 247.29 444.676 246.93 444.406 246.54 444.226 246.51 444.196V444.136L246.66 444.016 246.72 443.986 246.81 444.046 247.14 444.196 247.47 444.436 247.77 444.166 248.1 443.956H248.16ZM247.17 445.906H247.89L247.71 445.336 247.5 444.916 247.29 445.366 247.17 445.906Z" fill-rule="evenodd"/><path transform="matrix(1,0,0,-1,0,595.276)" d="M245.55 446.626H246.6V448.126H245.25V443.926H245.55V444.766H246.54V445.006H245.55V445.726H246.54V445.966H245.55V446.626ZM246.27 447.886V446.896H245.55V447.886H246.27Z" fill-rule="evenodd"/><path transform="matrix(1,0,0,-1,0,595.276)" d="M241.35 446.506H242.85V446.746H242.37V447.946H240.63L240.87 448.246 240.96 448.276 240.99 448.306V448.336L240.9 448.396 240.69 448.516 240.24 447.946H239.04V446.746H238.62V446.506H239.94L239.37 446.026 238.71 445.636 238.92 445.426 239.64 445.906 240.3 446.506H240.96L240.72 446.206 240.42 445.936 240.09 445.666 239.7 445.456 239.91 445.276 240.57 445.696V443.896H240.84V445.906L241.35 446.506ZM241.38 447.706H242.07V446.746H241.38V447.706ZM241.08 447.706V446.746H240.39V447.706H241.08ZM240.09 447.706V446.746H239.34V447.706H240.09Z" fill-rule="evenodd"/><path transform="matrix(1,0,0,-1,0,595.276)" d="M251.13 448.456 251.37 448.426 251.43 448.396 251.46 448.366V448.306L251.4 448.276V447.826L251.43 447.796H251.82L251.88 447.766V447.586 447.556H251.85 251.43L251.4 447.526V445.426L251.43 445.396H251.82L251.85 445.366V445.156L251.82 445.126H249.27L249.24 445.156V445.366L249.27 445.396H249.81L249.87 445.426V447.526L249.81 447.556H249.39L249.36 447.586V447.766L249.39 447.796H249.81L249.87 447.826V448.396L249.9 448.426 250.14 448.396 250.23 448.366 250.26 448.336 250.23 448.306 250.17 448.246V447.826L250.2 447.796H251.04L251.07 447.826V448.426L251.13 448.456ZM251.07 447.526 251.04 447.556H250.2L250.17 447.526V447.076L250.2 447.016H251.04L251.07 447.076V447.526ZM251.07 446.266V446.746L251.04 446.776H250.2L250.17 446.746V446.266L250.2 446.236H251.04L251.07 446.266ZM250.2 445.966 250.17 445.936V445.426L250.2 445.396H251.04L251.07 445.426V445.936L251.04 445.966H250.2Z" fill-rule="evenodd"/><path transform="matrix(1,0,0,-1,0,595.276)" d="M274.62 465.766H222.87C222.63 465.766 222.36 465.676 222.18 465.466 221.97 465.286 221.88 465.016 221.88 464.776V442.336C221.88 442.096 221.97 441.826 222.18 441.646 222.36 441.436 222.63 441.346 222.87 441.346H274.62C274.89 441.346 275.13 441.466 275.31 441.646 275.49 441.826 275.61 442.066 275.61 442.336V464.776C275.61 465.016 275.52 465.286 275.31 465.466 275.1 465.676 274.86 465.766 274.62 465.766ZM274.62 465.286V465.286C274.74 465.286 274.86 465.226 274.98 465.136 275.07 465.046 275.1 464.896 275.1 464.776V442.336C275.1 442.066 274.89 441.856 274.62 441.856H222.87C222.75 441.856 222.63 441.886 222.51 441.976 222.42 442.096 222.39 442.216 222.39 442.336V464.776C222.39 465.046 222.6 465.286 222.87 465.286H274.62Z" fill-rule="evenodd"/></g></svg>