<?xml version='1.0' encoding='UTF-8'?>
<svg xmlns="http://www.w3.org/2000/svg" xmlns:xlink="http://www.w3.org/1999/xlink" xmlns:inkscape="http://www.inkscape.org/namespaces/inkscape" version="1.1" width="567.000" height="269.280" viewBox="0 0 567.000 269.280"><g transform="scale(10.0) translate(-220.305, -531.936)"><defs><clipPath id="clip_14"><path transform="matrix(1,0,0,-1,0,595.276)" d="M74.37 .046H767.49V595.276H74.37Z"/></clipPath></defs><path transform="matrix(1,0,0,-1,0,595.276)" d="M227.4 37.456H270.09C270.33 37.456 270.54 37.486 270.78 37.576 271.02 37.666 271.23 37.816 271.41 37.996 271.59 38.176 271.74 38.386 271.83 38.626 271.92 38.866 271.95 39.076 271.95 39.316V60.016C271.95 60.256 271.92 60.496 271.83 60.706 271.74 60.946 271.59 61.156 271.41 61.336 271.23 61.516 271.02 61.666 270.78 61.756 270.54 61.846 270.33 61.876 270.09 61.876H227.4C227.16 61.876 226.95 61.846 226.71 61.756 226.47 61.666 226.26 61.516 226.08 61.336 225.9 61.156 225.75 60.946 225.66 60.706 225.57 60.496 225.54 60.256 225.54 60.016V39.316C225.54 39.076 225.57 38.866 225.66 38.626 225.75 38.386 225.9 38.176 226.08 37.996 226.26 37.816 226.47 37.666 226.71 37.576 226.95 37.486 227.16 37.456 227.4 37.456ZM227.4 38.386C227.13 38.386 226.92 38.476 226.74 38.656 226.56 38.836 226.47 39.076 226.47 39.316V60.016C226.47 60.256 226.53 60.496 226.74 60.676 226.92 60.886 227.16 60.946 227.4 60.946H270.09C270.33 60.946 270.57 60.886 270.75 60.676 270.96 60.496 271.02 60.256 271.02 60.016V39.316C271.02 39.076 270.96 38.836 270.75 38.656 270.57 38.476 270.33 38.386 270.09 38.386H227.4Z" fill-rule="evenodd"/><path transform="matrix(1,0,0,-1,0,595.276)" d="M227.4 60.946H270.09C270.21 60.946 270.33 60.946 270.45 60.886 270.57 60.856 270.66 60.766 270.75 60.676 270.84 60.586 270.93 60.496 270.96 60.376 271.02 60.256 271.02 60.136 271.02 60.016V39.316C271.02 39.076 270.96 38.836 270.75 38.656 270.57 38.476 270.33 38.386 270.09 38.386H227.4C227.16 38.386 226.92 38.476 226.74 38.656 226.53 38.836 226.47 39.076 226.47 39.316V60.016C226.47 60.286 226.56 60.496 226.74 60.676 226.92 60.856 227.13 60.946 227.4 60.946Z" fill="#ffffff" fill-rule="evenodd"/><path transform="matrix(1,0,0,-1,0,595.276)" d="M230.76 55.216H232.17 232.2 232.35C232.38 55.216 232.38 55.216 232.41 55.216 232.71 55.276 232.98 55.456 233.19 55.756 233.4 56.056 233.49 56.446 233.49 56.836 233.49 57.196 233.4 57.556 233.22 57.856 233.01 58.156 232.74 58.366 232.44 58.426H232.41C232.35 58.426 232.29 58.426 232.23 58.426H232.2 229.65V53.296H230.76V55.216ZM230.76 56.086V57.556H231.87C231.9 57.556 231.93 57.556 231.93 57.556H231.96C232.08 57.526 232.2 57.406 232.29 57.286 232.35 57.136 232.41 56.956 232.41 56.836 232.41 56.686 232.35 56.506 232.26 56.386 232.2 56.236 232.05 56.146 231.96 56.116H231.93C231.9 56.116 231.87 56.086 231.84 56.086H231.81 230.76Z" fill-rule="evenodd"/><path transform="matrix(1,0,0,-1,0,595.276)" d="M235.17 58.426V54.436 54.406L235.2 54.256V54.226C235.23 54.136 235.44 54.136 235.83 54.226L235.95 53.296 235.89 53.266C235.86 53.266 235.8 53.236 235.71 53.236 235.56 53.206 235.35 53.206 235.17 53.206 234.93 53.206 234.69 53.266 234.51 53.386 234.33 53.506 234.21 53.656 234.18 53.866 234.18 53.926 234.18 53.986 234.18 54.016 234.18 54.046 234.18 54.076 234.18 54.076V54.106 58.426H235.17Z" fill-rule="evenodd"/><path transform="matrix(1,0,0,-1,0,595.276)" d="M239.91 53.926 239.67 53.176C239.4 53.176 239.16 53.206 239.01 53.266 238.86 53.326 238.74 53.416 238.71 53.536 238.65 53.446 238.53 53.356 238.35 53.266 238.17 53.176 237.96 53.116 237.78 53.116 236.82 53.116 236.31 53.596 236.31 54.466 236.31 55.276 237.03 55.696 238.47 55.696V55.846C238.47 55.996 238.44 56.086 238.38 56.146 238.29 56.236 238.17 56.266 238.02 56.236 237.81 56.266 237.6 56.236 237.39 56.146 237.21 56.086 237.03 55.996 236.88 55.846L236.37 56.596C236.76 56.986 237.3 57.166 237.99 57.166 238.47 57.166 238.83 57.106 239.1 56.926 239.34 56.746 239.52 56.476 239.55 56.086V54.196C239.55 54.016 239.67 53.926 239.91 53.926ZM237.36 54.436C237.36 54.286 237.42 54.166 237.51 54.106 237.6 54.046 237.75 54.016 237.96 54.016 238.23 54.046 238.38 54.136 238.47 54.256V54.886C238.11 54.886 237.84 54.856 237.66 54.766 237.48 54.676 237.39 54.586 237.36 54.436Z" fill-rule="evenodd"/><path transform="matrix(1,0,0,-1,0,595.276)" d="M243.87 56.986H242.82L242.1 54.766 241.41 56.986H240.33L241.47 53.566C241.5 53.476 241.5 53.386 241.53 53.326 241.53 53.266 241.53 53.176 241.53 53.146 241.53 53.026 241.47 52.966 241.38 52.966 241.26 52.966 241.14 52.966 241.05 52.966 240.93 52.996 240.84 52.996 240.75 53.026L240.57 52.186C240.99 52.066 241.41 52.006 241.8 52.006 241.92 52.006 242.07 52.066 242.19 52.216 242.31 52.336 242.4 52.516 242.46 52.696L243.87 56.986Z" fill-rule="evenodd"/><path transform="matrix(1,0,0,-1,0,595.276)" d="M247.74 53.146V56.986H246.75V56.836C246.75 57.016 246.36 57.166 245.91 57.166 244.83 57.106 244.29 56.416 244.29 55.156 244.41 54.016 244.95 53.446 245.91 53.416 246.06 53.416 246.24 53.416 246.39 53.476 246.57 53.536 246.66 53.596 246.69 53.686V53.476C246.63 53.116 246.45 52.936 246.15 52.906 245.97 52.876 245.79 52.906 245.55 52.996 245.31 53.056 245.07 53.146 244.77 53.296L244.29 52.456C244.68 52.186 245.4 51.946 246.03 51.916 247.08 51.916 247.68 52.336 247.74 53.146ZM246.69 55.636V54.796C246.66 54.676 246.6 54.556 246.48 54.466 246.39 54.376 246.27 54.316 246.09 54.286 245.61 54.316 245.34 54.646 245.31 55.246 245.34 55.786 245.61 56.116 246.03 56.176 246.42 56.116 246.66 55.936 246.69 55.636Z" fill-rule="evenodd"/><path transform="matrix(1,0,0,-1,0,595.276)" d="M248.85 53.296V57.046H249.84V56.686C249.9 56.866 250.05 56.986 250.26 57.046 250.47 57.136 250.71 57.166 251.04 57.166V56.116C250.68 56.086 250.41 56.026 250.2 55.906 250.02 55.786 249.9 55.666 249.87 55.486V53.296H248.85Z" fill-rule="evenodd"/><path transform="matrix(1,0,0,-1,0,595.276)" d="M255.24 55.156C255.24 55.756 255.09 56.266 254.76 56.626 254.46 56.986 253.98 57.166 253.41 57.166 252.24 57.166 251.61 56.446 251.61 55.156 251.61 53.866 252.24 53.116 253.41 53.116 254.58 53.116 255.24 53.866 255.24 55.156ZM254.16 55.156C254.16 54.496 253.89 54.136 253.41 54.136 252.93 54.136 252.66 54.496 252.66 55.156 252.66 55.786 252.93 56.146 253.41 56.146 253.65 56.146 253.83 56.056 253.98 55.876 254.1 55.696 254.16 55.456 254.16 55.156Z" fill-rule="evenodd"/><path transform="matrix(1,0,0,-1,0,595.276)" d="M258.3 56.986H259.32V53.236H258.24V53.416C258.24 53.356 258.15 53.266 257.97 53.206 257.76 53.146 257.55 53.116 257.34 53.116 257.01 53.116 256.62 53.236 256.35 53.476 256.05 53.716 255.93 54.016 255.93 54.316V56.986H256.95V54.706C256.95 54.586 257.01 54.436 257.16 54.286 257.31 54.166 257.46 54.106 257.58 54.106 257.76 54.106 257.94 54.166 258.09 54.316 258.18 54.406 258.21 54.496 258.27 54.556 258.3 54.646 258.3 54.736 258.3 54.826V56.986Z" fill-rule="evenodd"/><path transform="matrix(1,0,0,-1,0,595.276)" d="M263.67 53.296V55.846 55.906C263.67 56.746 263.19 57.166 262.23 57.166 262.05 57.166 261.87 57.136 261.72 57.076 261.6 57.016 261.48 56.926 261.36 56.806V57.046H260.31V53.296H261.36V55.576 55.606C261.45 55.966 261.66 56.176 262.08 56.206 262.41 56.176 262.62 55.966 262.62 55.606V55.576C262.62 55.546 262.62 55.516 262.62 55.516 262.62 55.486 262.62 55.486 262.62 55.456V53.296H263.67Z" fill-rule="evenodd"/><path transform="matrix(1,0,0,-1,0,595.276)" d="M267.12 56.836V58.426H268.14V53.206H267.12V53.386C266.94 53.236 266.64 53.146 266.22 53.116 265.35 53.086 264.63 53.686 264.51 54.946V55.036 55.396 55.486C264.6 56.506 265.26 57.046 266.13 57.106 266.4 57.106 266.76 57.016 267.12 56.836H267.15 267.12ZM267.12 54.526V55.426C267.12 55.576 267.12 55.636 267.09 55.696 267.06 55.756 267 55.846 266.97 55.876L266.94 55.906C266.76 56.056 266.58 56.146 266.37 56.146 265.83 56.116 265.53 55.756 265.47 55.126 265.5 54.436 265.77 54.046 266.34 53.986 266.7 54.046 266.97 54.226 267.12 54.526Z" fill-rule="evenodd"/><path transform="matrix(1,0,0,-1,0,595.276)" d="M235.56 49.366 235.05 48.796 235.62 48.436 236.13 48.016 236.61 48.556 236.1 48.976Z" fill-rule="evenodd"/><path transform="matrix(1,0,0,-1,0,595.276)" d="M235.35 47.686 234.87 47.176 235.92 46.456 236.43 46.966Z" fill-rule="evenodd"/><path transform="matrix(1,0,0,-1,0,595.276)" d="M234.93 45.706V44.986H235.86V43.306L234.81 42.526 235.35 41.806 236.13 42.676 236.61 42.256 237.21 41.956 237.9 41.776 238.71 41.746H242.31L242.55 42.466H239.04L238.08 42.496 237.36 42.646 236.85 42.886 236.55 43.246V45.706Z" fill-rule="evenodd"/><path transform="matrix(1,0,0,-1,0,595.276)" d="M237.78 49.366 237.81 48.286H236.76V47.596H237.48V46.666L237.45 45.706 237.3 44.836 237.06 44.026 236.73 43.336 237.39 42.976 237.66 43.606 237.84 44.356 237.99 45.196 238.05 46.126H238.59V44.656L238.62 44.056 238.53 43.606 238.29 43.366 237.96 43.276 237.75 43.246 237.99 42.676H238.35L238.74 42.796 239.01 43.156 239.16 43.786 239.19 44.686V46.756H238.08V47.596H239.34V48.286H238.5V49.066L238.65 49.186V49.276L238.56 49.336 238.32 49.366Z" fill-rule="evenodd"/><path transform="matrix(1,0,0,-1,0,595.276)" d="M241.17 49.066 240.48 49.336 239.97 48.316 239.34 47.416 240 47.086 240.39 47.596H242.4V48.166H240.63Z" fill-rule="evenodd"/><path transform="matrix(1,0,0,-1,0,595.276)" d="M239.91 46.936V46.306H241.26L240.87 45.886 240.78 45.976 240.24 45.706 240.6 45.346 240.9 44.956H239.64V44.326H241.17L241.2 43.876 241.08 43.606 240.84 43.426 240.42 43.396H239.88L240.03 42.676H240.63L240.96 42.706 241.23 42.766 241.44 42.886 241.62 43.066 241.74 43.306 241.83 43.576 241.86 43.906 241.83 44.326H242.49V44.986H241.65L241.35 45.436 242.46 46.606 241.86 47.026 241.74 46.936Z" fill-rule="evenodd"/><path transform="matrix(1,0,0,-1,0,595.276)" d="M246.15 47.596 247.05 48.946 246.36 49.366 245.67 47.956 245.46 48.136 245.04 47.656 246.03 46.756 245.37 45.706H244.92L245.04 45.286 245.1 45.046 245.19 44.926H245.25L245.34 45.046 247.05 45.346 247.14 44.896 247.8 45.016V45.136H248.4V44.596H245.13V43.876H247.92L247.26 43.456 246.54 43.066 245.7 42.766 244.8 42.526 245.49 41.806 246.39 42.136 247.17 42.526 247.83 42.976 248.4 43.486V41.596H249.15V43.516L249.69 43.006 250.35 42.556 251.07 42.166 251.88 41.836 252.66 42.556 251.7 42.796 250.89 43.096 250.2 43.456 249.63 43.876H252.51V44.596H249.15V45.136H249.87V47.476L250.89 46.636 250.41 45.826H249.9L250.02 45.286 250.08 45.106 250.14 45.046H250.23L250.32 45.166 251.91 45.406 252.03 44.896 252.66 45.016 252.48 45.856 252.18 46.636 251.61 46.486 251.79 45.946 251.19 45.916 252.24 47.536 252.36 47.596 252.42 47.686 252.39 47.776 252.24 47.866 251.79 48.226 251.22 47.236 250.89 47.536 251.82 48.976 251.13 49.366 250.41 47.896 250.23 48.046 249.87 47.716V48.556H249.15V49.036L249.27 49.186V49.276L249.18 49.336 249 49.366 248.43 49.396V48.556H247.71V45.526L247.35 46.666 246.81 46.546 246.96 45.916 246.21 45.826 247.38 47.506 247.53 47.566 247.56 47.626V47.716L247.44 47.806 246.93 48.136 246.39 47.326 246.15 47.596ZM248.37 47.176V47.896H249.21V47.176H248.37ZM248.37 45.796V46.546H249.21V45.796H248.37Z" fill-rule="evenodd"/><path transform="matrix(1,0,0,-1,0,595.276)" d="M255.21 47.236V46.546H256.08L256.11 46.576V44.386L255.15 44.116 255.27 43.756 255.42 43.426 255.54 43.276 255.63 43.306 255.69 43.516 257.73 44.326V45.016L256.86 44.686V46.546H257.82V47.236H256.86V48.676L257.01 48.766 257.04 48.856 256.92 48.886 256.68 48.946 256.11 49.006V47.236Z" fill-rule="evenodd"/><path transform="matrix(1,0,0,-1,0,595.276)" d="M258.39 48.946V46.306H261.96V48.946H258.39ZM259.17 47.926V48.406H261.21V47.926H259.17ZM259.17 46.936V47.416H261.21V46.936H259.17Z" fill-rule="evenodd"/><path transform="matrix(1,0,0,-1,0,595.276)" d="M257.76 45.916V45.256H258.9L258.6 44.776 258.24 44.386 257.82 44.056 257.31 43.816 257.82 43.306 258.39 43.636 258.87 44.056H259.29L258.99 43.636 258.63 43.246 258.24 42.916 257.76 42.616 258.27 42.196 258.84 42.556 259.32 43.006 259.74 43.486 260.07 44.056H260.55L260.25 43.486 259.89 43.006 259.47 42.556 258.96 42.166 259.5 41.716 260.1 42.226 260.61 42.766 261 43.396 261.27 44.056H261.66V43.636L261.63 43.126 261.48 42.766 261.27 42.556 260.94 42.496 260.46 42.466 260.82 41.746 261.48 41.866 261.9 41.986 262.17 42.316 262.32 42.826 262.35 43.516V44.716H259.41L259.68 45.256H262.62V45.916Z" fill-rule="evenodd"/></g></svg>