<?xml version='1.0' encoding='UTF-8'?>
<svg xmlns="http://www.w3.org/2000/svg" xmlns:xlink="http://www.w3.org/1999/xlink" xmlns:inkscape="http://www.inkscape.org/namespaces/inkscape" version="1.1" width="567.000" height="269.280" viewBox="0 0 567.000 269.280"><g transform="scale(10.0) translate(-438.573, -478.080)"><defs><clipPath id="clip_14"><path transform="matrix(1,0,0,-1,0,595.276)" d="M74.37 .046H767.49V595.276H74.37Z"/></clipPath></defs><path transform="matrix(1,0,0,-1,0,595.276)" d="M483.33 115.786H450.63C450.42 115.786 450.18 115.756 449.97 115.666 449.73 115.576 449.52 115.426 449.34 115.246 449.16 115.066 449.04 114.856 448.95 114.646 448.86 114.406 448.83 114.196 448.83 113.956V93.076C448.83 92.866 448.86 92.626 448.95 92.416 449.04 92.176 449.16 91.966 449.34 91.786 449.52 91.606 449.73 91.486 449.97 91.396 450.18 91.306 450.42 91.246 450.63 91.246H483.33C483.54 91.246 483.78 91.306 484.02 91.396 484.23 91.486 484.44 91.606 484.62 91.786 484.8 91.966 484.95 92.176 485.04 92.416 485.13 92.626 485.16 92.866 485.16 93.076V113.956C485.16 114.196 485.13 114.406 485.04 114.646 484.95 114.856 484.8 115.066 484.62 115.246 484.44 115.426 484.23 115.576 484.02 115.666 483.78 115.756 483.54 115.786 483.33 115.786ZM483.33 114.886C483.57 114.886 483.81 114.796 483.99 114.616 484.17 114.436 484.26 114.196 484.26 113.956V93.076C484.26 92.866 484.17 92.626 483.99 92.416 483.81 92.236 483.57 92.176 483.33 92.176H450.63C450.42 92.176 450.18 92.236 450 92.416 449.82 92.626 449.73 92.866 449.73 93.076V113.956C449.73 114.196 449.82 114.436 450 114.616 450.18 114.796 450.42 114.886 450.63 114.886H483.33Z" fill-rule="evenodd"/><path transform="matrix(1,0,0,-1,0,595.276)" d="M450.63 114.886H483.33C483.57 114.886 483.81 114.796 483.99 114.616 484.17 114.436 484.26 114.196 484.26 113.956V93.076C484.26 92.956 484.23 92.866 484.17 92.746 484.14 92.626 484.08 92.506 483.99 92.416 483.9 92.356 483.78 92.266 483.66 92.236 483.57 92.176 483.45 92.176 483.33 92.176H450.63C450.42 92.176 450.18 92.236 450 92.416 449.91 92.506 449.85 92.626 449.79 92.746 449.76 92.866 449.73 92.956 449.73 93.076V113.956C449.73 114.196 449.82 114.436 450 114.616 450.15 114.766 450.39 114.886 450.63 114.886Z" fill="#ffffff" fill-rule="evenodd"/><path transform="matrix(1,0,0,-1,0,595.276)" d="M460.77 108.166H462.54V107.176H458.88V108.166C461.04 109.546 461.49 110.026 461.58 110.476V110.506 110.626 110.656C461.52 111.076 461.25 111.316 460.83 111.346 460.5 111.346 460.26 111.256 460.11 111.106 460.02 111.016 459.96 110.896 459.93 110.776 459.9 110.656 459.87 110.506 459.87 110.356H458.79C458.79 111.706 459.48 112.426 460.83 112.426 462 112.426 462.66 111.826 462.72 110.686V110.656 110.536C462.63 109.666 462 108.886 460.77 108.166Z" fill-rule="evenodd"/><path transform="matrix(1,0,0,-1,0,595.276)" d="M465.36 107.176V112.246H466.38V109.576L467.58 110.806H468.84L467.46 109.306 468.84 107.176H467.73L466.77 108.586 466.38 108.166V107.176Z" fill-rule="evenodd"/><path transform="matrix(1,0,0,-1,0,595.276)" d="M473.28 109.966C473.16 109.966 472.98 109.936 472.86 109.816 472.71 109.726 472.65 109.576 472.65 109.486V109.456 107.176H471.63V109.666 109.696C471.63 109.846 471.42 109.966 471.15 109.966 471 109.966 470.85 109.936 470.7 109.816 470.58 109.726 470.52 109.576 470.49 109.486V109.456 107.176H469.5V110.866H470.49V110.686C470.61 110.776 470.76 110.866 470.88 110.896 471.03 110.956 471.18 110.986 471.33 110.986 471.81 110.986 472.14 110.806 472.32 110.476 472.59 110.836 472.92 110.986 473.37 110.986 474.06 110.956 474.51 110.656 474.72 110.116 474.75 110.056 474.75 110.026 474.75 109.966 474.75 109.936 474.78 109.876 474.78 109.846V109.816 107.176H473.79V109.666C473.79 109.696 473.76 109.756 473.76 109.786 473.73 109.816 473.7 109.876 473.64 109.876 473.55 109.966 473.43 109.966 473.28 109.966Z" fill-rule="evenodd"/><path transform="matrix(1,0,0,-1,0,595.276)" d="M453.39 102.886V102.196H456.6V101.236H453.66V95.776H454.38V97.546L455.01 97.246 455.55 98.266 455.79 97.726 456.09 97.246 456.6 97.606V95.686H457.35V100.546H459.6V97.096L459.57 96.826 459.51 96.616 459.39 96.496 459.24 96.466H458.64L458.91 95.716 459.63 95.776 459.93 95.896 460.17 96.076 460.29 96.346 460.35 96.676V101.236H457.35V102.196H460.59V102.886H453.39ZM454.38 97.666V100.546H456.6V97.726L456.33 98.086 456.12 98.566 455.97 99.166 455.88 99.886H454.74V99.316H455.25L454.86 98.296 454.38 97.666Z" fill-rule="evenodd"/><path transform="matrix(1,0,0,-1,0,595.276)" d="M457.65 99.886V99.316H458.22L457.86 98.386 457.35 97.606 457.98 97.276 458.49 98.266 459 97.276 459.57 97.636 459.27 98.116 459.06 98.656 458.91 99.256 458.88 99.886Z" fill-rule="evenodd"/><path transform="matrix(1,0,0,-1,0,595.276)" d="M465.57 101.926 465 102.016 464.76 101.206 464.37 100.516 463.83 99.856 463.11 99.316 463.77 98.806 464.46 99.376 465.03 100.006 465.45 100.756 465.75 101.566 465.93 101.686 465.96 101.776 465.84 101.866Z" fill-rule="evenodd"/><path transform="matrix(1,0,0,-1,0,595.276)" d="M466.83 100.126 466.29 100.396 465.6 98.476 464.85 96.856 463.74 96.766 463.86 96.046 463.95 95.806 464.04 95.686 464.16 95.746 464.25 95.926 469.02 96.496 469.47 95.716 470.22 96.166 469.83 96.856 469.41 97.546 468.9 98.206 468.3 98.836 467.73 98.416 468.69 97.156 465.75 96.886 466.95 99.646 467.16 99.736 467.19 99.856 467.1 99.976Z" fill-rule="evenodd"/><path transform="matrix(1,0,0,-1,0,595.276)" d="M465.81 102.856 465.87 102.166H467.61L467.76 101.356 468.24 100.516 469.02 99.676 470.07 98.806 470.88 99.346 470.31 99.736 469.8 100.126 469.38 100.516 469.02 100.966 468.75 101.416 468.54 101.866 468.42 102.346 468.36 102.856Z" fill-rule="evenodd"/><path transform="matrix(1,0,0,-1,0,595.276)" d="M474.12 102.886V99.076H476.67V98.236H473.94V97.546H476.67V96.736H473.25V96.046H480.78V96.736H477.48V97.546H480.21V98.236H477.48V99.076H480.03V102.886H474.12ZM477.48 101.386V102.196H479.25V101.386H477.48ZM474.84 101.386V102.196H476.67V101.386H474.84ZM477.48 99.766V100.666H479.25V99.766H477.48ZM474.84 99.766V100.666H476.67V99.766H474.84Z" fill-rule="evenodd"/></g></svg>