<?xml version='1.0' encoding='UTF-8'?>
<svg xmlns="http://www.w3.org/2000/svg" xmlns:xlink="http://www.w3.org/1999/xlink" xmlns:inkscape="http://www.inkscape.org/namespaces/inkscape" version="1.1" width="567.000" height="269.280" viewBox="0 0 567.000 269.280"><g transform="scale(10.0) translate(-220.305, -451.152)"><defs><clipPath id="clip_14"><path transform="matrix(1,0,0,-1,0,595.276)" d="M74.37 .046H767.49V595.276H74.37Z"/></clipPath></defs><path transform="matrix(1,0,0,-1,0,595.276)" d="M232.02 142.156H265.47C265.65 142.156 265.86 142.096 266.01 141.946 266.16 141.796 266.22 141.616 266.22 141.436V119.446C266.22 119.356 266.19 119.266 266.16 119.176 266.13 119.086 266.07 118.996 266.01 118.936 265.92 118.876 265.83 118.816 265.74 118.786 265.65 118.756 265.56 118.726 265.47 118.726H232.02C231.84 118.726 231.63 118.786 231.48 118.936 231.33 119.086 231.27 119.266 231.27 119.446V141.436C231.27 141.826 231.6 142.156 232.02 142.156Z" fill="#ffffff" fill-rule="evenodd"/><path transform="matrix(1,0,0,-1,0,595.276)" d="M232.02 142.906H265.47C265.65 142.906 265.83 142.876 266.01 142.786 266.19 142.726 266.37 142.606 266.52 142.456 266.67 142.336 266.76 142.156 266.85 141.976 266.91 141.796 266.94 141.616 266.94 141.436V119.446C266.94 119.116 266.82 118.726 266.52 118.426 266.22 118.126 265.83 118.006 265.47 118.006H232.02C231.66 118.006 231.27 118.126 230.97 118.426 230.67 118.726 230.55 119.116 230.55 119.446V141.436C230.55 141.796 230.67 142.186 230.97 142.456 231.27 142.756 231.66 142.906 232.02 142.906ZM232.02 142.156C231.6 142.156 231.27 141.826 231.27 141.436V119.446C231.27 119.266 231.33 119.086 231.48 118.936 231.63 118.786 231.84 118.726 232.02 118.726H265.47C265.65 118.726 265.86 118.786 266.01 118.936 266.16 119.086 266.22 119.266 266.22 119.446V141.436C266.22 141.526 266.19 141.616 266.16 141.706 266.13 141.796 266.07 141.886 266.01 141.946 265.86 142.096 265.65 142.156 265.47 142.156H232.02Z" fill-rule="evenodd"/><path transform="matrix(1,0,0,-1,0,595.276)" d="M236.34 139.066C236.34 138.946 236.37 138.856 236.52 138.796 236.64 138.706 236.85 138.646 237.12 138.616 238.08 138.496 238.56 138.046 238.56 137.326 238.5 136.456 237.96 136.036 236.94 136.036 236.52 136.036 236.16 136.096 235.83 136.216 235.53 136.366 235.26 136.576 235.05 136.846L235.74 137.386C236.13 137.026 236.55 136.816 236.94 136.846 237.36 136.846 237.6 136.996 237.6 137.326 237.57 137.566 237.27 137.746 236.67 137.806 235.89 137.896 235.47 138.286 235.38 139.006 235.41 139.876 235.95 140.296 237 140.296 237.33 140.296 237.63 140.236 237.9 140.146 238.17 140.026 238.41 139.876 238.59 139.636L237.99 139.096C237.63 139.366 237.3 139.486 237 139.486 236.58 139.486 236.37 139.336 236.34 139.066Z" fill-rule="evenodd"/><path transform="matrix(1,0,0,-1,0,595.276)" d="M240.21 136.186V139.036H239.46V136.186Z" fill-rule="evenodd"/><path transform="matrix(1,0,0,-1,0,595.276)" d="M240.3 139.816C240.3 140.056 240.09 140.266 239.85 140.266 239.58 140.266 239.4 140.056 239.4 139.816 239.4 139.546 239.58 139.336 239.85 139.336 240.09 139.336 240.3 139.546 240.3 139.816Z" fill-rule="evenodd"/><path transform="matrix(1,0,0,-1,0,595.276)" d="M243.57 136.186V138.166 138.196 138.226C243.57 138.856 243.18 139.186 242.46 139.186 242.31 139.186 242.16 139.156 242.04 139.126 241.95 139.066 241.83 139.006 241.77 138.916V139.096H240.93V136.186H241.77V137.956 137.986C241.83 138.256 242.01 138.436 242.31 138.466 242.58 138.436 242.73 138.256 242.76 137.986V137.956 137.926 137.896 137.866 136.186H243.57Z" fill-rule="evenodd"/><path transform="matrix(1,0,0,-1,0,595.276)" d="M246.9 136.036V139.036H246.12V138.946C246.12 139.066 245.82 139.186 245.46 139.186 244.62 139.126 244.2 138.616 244.2 137.596 244.29 136.726 244.71 136.276 245.46 136.246 245.58 136.246 245.73 136.276 245.85 136.306 245.97 136.336 246.06 136.396 246.06 136.456V136.306C246.03 136.006 245.91 135.886 245.64 135.856 245.52 135.856 245.37 135.856 245.19 135.916 245.01 135.976 244.8 136.066 244.56 136.186L244.2 135.496C244.5 135.286 245.07 135.106 245.55 135.076 246.39 135.076 246.87 135.406 246.9 136.036ZM246.06 138.016V137.356C246.06 137.236 246 137.146 245.94 137.086 245.85 136.996 245.73 136.966 245.61 136.936 245.25 136.966 245.01 137.236 244.98 137.686 245.01 138.106 245.22 138.376 245.58 138.406 245.88 138.376 246.06 138.226 246.06 138.016Z" fill-rule="evenodd"/><path transform="matrix(1,0,0,-1,0,595.276)" d="M252.09 137.326C252.12 138.526 251.67 139.126 250.74 139.186 249.93 139.186 249.51 138.646 249.42 137.626 249.42 137.206 249.51 136.846 249.72 136.576 249.87 136.396 250.08 136.276 250.26 136.186 250.47 136.096 250.68 136.036 250.89 136.036 251.1 136.006 251.37 136.066 251.58 136.156 251.79 136.276 251.94 136.396 252 136.546L251.52 137.056C251.46 136.966 251.37 136.876 251.25 136.846 251.13 136.786 251.01 136.756 250.89 136.756 250.74 136.756 250.59 136.786 250.44 136.906 250.38 136.966 250.35 137.026 250.32 137.116 250.26 137.176 250.26 137.266 250.26 137.326H252.09ZM250.23 137.926V137.956C250.23 138.076 250.29 138.196 250.41 138.316 250.53 138.406 250.65 138.466 250.77 138.466 251.01 138.466 251.25 138.256 251.31 138.016V137.956 137.926H250.23Z" fill-rule="evenodd"/><path transform="matrix(1,0,0,-1,0,595.276)" d="M255.12 136.186V138.376H255.78V139.036H255.12V139.396C255.12 139.456 255.15 139.486 255.18 139.516 255.21 139.546 255.24 139.546 255.27 139.546 255.36 139.546 255.45 139.546 255.54 139.546 255.6 139.546 255.69 139.546 255.78 139.516L255.93 140.176C255.78 140.236 255.6 140.266 255.36 140.266 255.06 140.266 254.82 140.206 254.64 140.086 254.49 139.996 254.4 139.816 254.4 139.606V139.036H253.95V138.376H254.4V136.186H255.12Z" fill-rule="evenodd"/><path transform="matrix(1,0,0,-1,0,595.276)" d="M257.25 136.186V139.036H256.53V136.186Z" fill-rule="evenodd"/><path transform="matrix(1,0,0,-1,0,595.276)" d="M257.34 139.816C257.34 140.056 257.13 140.266 256.89 140.266 256.65 140.266 256.44 140.056 256.44 139.816 256.44 139.546 256.65 139.336 256.89 139.336 257.13 139.336 257.34 139.546 257.34 139.816Z" fill-rule="evenodd"/><path transform="matrix(1,0,0,-1,0,595.276)" d="M258.75 140.206V137.056 137.026 136.936 136.906C258.78 136.846 258.96 136.816 259.26 136.876L259.35 136.186C259.35 136.156 259.29 136.126 259.17 136.126 259.02 136.096 258.87 136.096 258.75 136.096 258.33 136.096 258.03 136.276 257.97 136.606 257.94 136.666 257.94 136.696 257.94 136.726 257.94 136.756 257.94 136.786 257.94 136.786V140.206H258.75Z" fill-rule="evenodd"/><path transform="matrix(1,0,0,-1,0,595.276)" d="M262.35 137.326C262.38 138.526 261.93 139.126 261 139.186 260.19 139.186 259.77 138.646 259.68 137.626 259.68 137.206 259.8 136.846 260.01 136.576 260.16 136.396 260.34 136.276 260.55 136.186 260.73 136.096 260.94 136.036 261.15 136.036 261.39 136.006 261.63 136.066 261.84 136.156 262.05 136.276 262.2 136.396 262.26 136.546L261.78 137.056C261.75 136.966 261.63 136.876 261.51 136.846 261.42 136.786 261.27 136.756 261.15 136.756 261 136.756 260.85 136.786 260.7 136.906 260.64 136.966 260.61 137.026 260.58 137.116 260.55 137.176 260.52 137.266 260.52 137.326H262.35ZM260.49 137.926V137.956C260.49 138.076 260.55 138.196 260.67 138.316 260.79 138.406 260.91 138.466 261.03 138.466 261.27 138.466 261.51 138.256 261.57 138.016V137.956 137.926H260.49Z" fill-rule="evenodd"/><path transform="matrix(1,0,0,-1,0,595.276)" d="M241.59 133.306H242.31V132.616H241.59V131.326C241.59 131.236 241.62 131.176 241.68 131.116 241.71 131.056 241.8 131.026 241.89 131.026 241.95 130.996 242.01 131.026 242.07 131.026 242.13 131.026 242.22 131.056 242.31 131.086L242.43 130.426C242.31 130.306 242.01 130.276 241.59 130.276 241.35 130.276 241.17 130.336 241.05 130.456 240.9 130.576 240.84 130.756 240.81 131.026V132.616H240.33V133.306H240.81V134.236L241.59 134.476V133.306Z" fill-rule="evenodd"/><path transform="matrix(1,0,0,-1,0,595.276)" d="M243 130.426V133.366H243.78V133.066C243.84 133.216 243.96 133.306 244.11 133.366 244.26 133.426 244.47 133.456 244.71 133.456V132.646C244.44 132.616 244.23 132.556 244.08 132.466 243.93 132.376 243.84 132.256 243.81 132.136V130.426H243Z" fill-rule="evenodd"/><path transform="matrix(1,0,0,-1,0,595.276)" d="M247.92 130.906 247.71 130.336C247.5 130.306 247.32 130.336 247.2 130.396 247.08 130.426 246.99 130.516 246.96 130.606 246.9 130.456 246.51 130.276 246.24 130.276 245.49 130.276 245.07 130.666 245.07 131.326 245.07 131.656 245.22 131.896 245.49 132.046 245.79 132.196 246.21 132.286 246.78 132.286V132.406C246.78 132.526 246.75 132.616 246.69 132.676 246.63 132.706 246.54 132.736 246.42 132.736 246.24 132.736 246.09 132.706 245.94 132.676 245.79 132.616 245.64 132.526 245.52 132.406L245.13 133.006C245.43 133.306 245.88 133.456 246.39 133.456 246.78 133.456 247.05 133.396 247.26 133.246 247.47 133.126 247.59 132.886 247.62 132.616V131.116C247.65 130.996 247.74 130.906 247.92 130.906ZM245.91 131.296C245.91 131.206 245.94 131.116 246.03 131.056 246.12 130.996 246.24 130.966 246.39 130.966 246.6 130.996 246.72 131.056 246.78 131.176V131.686C246.51 131.656 246.27 131.626 246.15 131.566 246 131.506 245.94 131.416 245.91 131.296Z" fill-rule="evenodd"/><path transform="matrix(1,0,0,-1,0,595.276)" d="M249.39 130.426V132.616H250.05V133.306H249.39V133.666C249.42 133.696 249.42 133.726 249.45 133.756 249.48 133.786 249.51 133.816 249.57 133.816 249.63 133.816 249.72 133.816 249.81 133.816 249.9 133.786 249.99 133.786 250.05 133.786L250.2 134.446C250.05 134.476 249.87 134.506 249.63 134.536 249.33 134.506 249.09 134.476 248.94 134.356 248.76 134.236 248.67 134.086 248.67 133.876V133.306H248.22V132.616H248.67V130.426H249.39Z" fill-rule="evenodd"/><path transform="matrix(1,0,0,-1,0,595.276)" d="M253.8 130.426V133.306H253.05V130.426Z" fill-rule="evenodd"/><path transform="matrix(1,0,0,-1,0,595.276)" d="M253.89 134.056C253.89 134.326 253.68 134.506 253.41 134.506 253.17 134.506 252.96 134.326 252.96 134.056 252.96 133.816 253.17 133.606 253.41 133.606 253.68 133.606 253.89 133.816 253.89 134.056Z" fill-rule="evenodd"/><path transform="matrix(1,0,0,-1,0,595.276)" d="M255.81 133.456C256.14 133.456 256.41 133.366 256.62 133.216 256.86 133.066 257.01 132.856 257.13 132.556L256.47 132.256C256.35 132.556 256.14 132.706 255.84 132.706 255.48 132.676 255.27 132.466 255.21 132.046 255.18 131.986 255.18 131.926 255.18 131.866 255.18 131.806 255.21 131.716 255.21 131.686V131.656C255.33 131.236 255.54 131.026 255.87 131.026 256.02 130.996 256.14 131.056 256.23 131.116 256.35 131.206 256.41 131.356 256.47 131.506L257.13 131.236C256.95 130.576 256.53 130.276 255.87 130.276 254.94 130.306 254.43 130.846 254.4 131.866 254.49 132.916 254.97 133.426 255.81 133.456Z" fill-rule="evenodd"/><path transform="matrix(1,0,0,-1,0,595.276)" d="M251.67 130.426V132.616H252.3V133.306H251.67V133.666C251.67 133.696 251.67 133.726 251.7 133.756 251.73 133.786 251.76 133.816 251.82 133.816 251.91 133.816 251.97 133.816 252.06 133.816 252.15 133.786 252.24 133.786 252.33 133.786L252.45 134.446C252.3 134.476 252.12 134.506 251.88 134.536 251.58 134.506 251.34 134.476 251.19 134.356 251.04 134.236 250.95 134.086 250.92 133.876V133.306H250.47V132.616H250.92V130.426H251.67Z" fill-rule="evenodd"/><path transform="matrix(1,0,0,-1,0,595.276)" d="M248.46 140.206V137.056 137.026L248.49 136.936V136.906C248.52 136.846 248.67 136.816 249 136.876L249.09 136.186C249.09 136.156 249.03 136.126 248.91 136.126 248.76 136.096 248.61 136.096 248.46 136.096 248.07 136.096 247.77 136.276 247.68 136.606 247.68 136.666 247.68 136.696 247.68 136.726 247.68 136.756 247.68 136.786 247.68 136.786V140.206H248.46Z" fill-rule="evenodd"/><path transform="matrix(1,0,0,-1,0,595.276)" d="M234.63 127.096V125.626H236.55V127.096H234.63ZM235.17 126.076V126.646H236.01V126.076H235.17Z" fill-rule="evenodd"/><path transform="matrix(1,0,0,-1,0,595.276)" d="M234.81 122.746H235.38V122.986H236.61V122.536H233.97V122.026H236.61V121.336H237.21V122.026H239.85V122.536H237.21V122.986H238.44V122.776H239.04V125.296H234.81V122.746ZM237.21 124.426V124.816H238.44V124.426H237.21ZM237.21 123.496V123.916H238.44V123.496H237.21ZM235.38 124.426V124.816H236.61V124.426H235.38ZM235.38 123.496V123.916H236.61V123.496H235.38Z" fill-rule="evenodd"/><path transform="matrix(1,0,0,-1,0,595.276)" d="M237.27 127.096V125.626H239.25V127.096H237.27ZM237.84 126.106V126.616H238.71V126.106H237.84Z" fill-rule="evenodd"/><path transform="matrix(1,0,0,-1,0,595.276)" d="M241.98 125.986V125.416H242.7V124.186L241.8 123.826 241.98 123.346 242.07 123.196 242.16 123.166 242.22 123.226 242.28 123.376 242.7 123.556V122.356 122.116L242.64 121.966 242.55 121.906H242.37 241.77L242.01 121.306H242.37L242.79 121.276 243.09 121.396 243.24 121.636 243.33 121.996V123.766L243.9 124.036V124.606L243.33 124.366V125.416H243.84V125.986H243.33V126.886L243.45 127.006V127.126L243.36 127.186 243.18 127.246 242.7 127.276V125.986Z" fill-rule="evenodd"/><path transform="matrix(1,0,0,-1,0,595.276)" d="M244.08 125.536H245.07V124.786H244.17V124.216H245.07V123.406L243.81 123.136 243.87 122.686 243.93 122.506 244.02 122.416 244.11 122.446 244.2 122.566 244.92 122.776 244.56 122.206 244.08 121.726 244.53 121.306 244.92 121.696 245.25 122.086 245.46 122.506 245.58 122.956 245.91 123.046V123.586L245.67 123.526V126.976L245.76 127.096V127.186L245.7 127.246 245.55 127.276 245.07 127.306V126.106H244.08Z" fill-rule="evenodd"/><path transform="matrix(1,0,0,-1,0,595.276)" d="M246.15 127.336V121.276H246.75V122.776H247.89V123.376H246.75V124.216H247.77V124.786H246.75V125.506H247.86V126.076H246.75V127.036L246.87 127.096V127.186L246.78 127.246 246.63 127.276Z" fill-rule="evenodd"/><path transform="matrix(1,0,0,-1,0,595.276)" d="M249.81 125.836 250.44 125.506 251.16 126.046 251.91 126.676 252 126.766 252.06 126.826 252.03 126.886 251.97 126.916 251.43 127.126 250.65 126.376Z" fill-rule="evenodd"/><path transform="matrix(1,0,0,-1,0,595.276)" d="M249.69 123.856 250.26 123.496 250.86 124.096V121.276H251.52V124.786L251.79 125.176 252.12 125.536 252.24 125.626 252.27 125.686 252.24 125.746 252.12 125.806 251.61 125.956 251.19 125.356 250.74 124.786 250.23 124.276Z" fill-rule="evenodd"/><path transform="matrix(1,0,0,-1,0,595.276)" d="M252.66 126.826V126.226H255.27V126.826Z" fill-rule="evenodd"/><path transform="matrix(1,0,0,-1,0,595.276)" d="M254.07 124.456V122.446L254.04 122.266 254.01 122.116 253.92 122.026 253.8 121.966H253.02L253.29 121.306H253.65 253.92L254.16 121.366 254.34 121.426 254.52 121.546 254.64 121.696 254.7 121.876 254.76 122.086V122.326 124.456H255.75V125.056H252.15V124.456Z" fill-rule="evenodd"/><path transform="matrix(1,0,0,-1,0,595.276)" d="M258.06 126.676V126.166H260.4V125.686H258.69V123.226H260.4V122.776H257.82V122.206H260.4V121.336H260.94V122.206H263.55V122.776H260.94V123.226H262.74V125.686H260.94V126.166H263.28V126.676H260.94V126.976L261.03 127.036 261.06 127.096V127.156L260.97 127.216 260.4 127.276V126.676H258.06ZM259.26 124.696V125.176H260.4V124.696H259.26ZM259.26 123.706V124.216H260.4V123.706H259.26ZM260.94 124.696V125.176H262.2V124.696H260.94ZM260.94 123.706V124.216H262.2V123.706H260.94Z" fill-rule="evenodd"/></g></svg>