<?xml version='1.0' encoding='UTF-8'?>
<svg xmlns="http://www.w3.org/2000/svg" xmlns:xlink="http://www.w3.org/1999/xlink" xmlns:inkscape="http://www.inkscape.org/namespaces/inkscape" version="1.1" width="567.000" height="269.280" viewBox="0 0 567.000 269.280"><g transform="scale(10.0) translate(-438.573, -20.304)"><defs><clipPath id="clip_14"><path transform="matrix(1,0,0,-1,0,595.276)" d="M74.37 .046H767.49V595.276H74.37Z"/></clipPath></defs><path transform="matrix(1,0,0,-1,0,595.276)" d="M457.26 570.196C457.53 569.926 457.8 569.806 458.07 569.806 458.37 569.836 458.49 569.926 458.49 570.136 458.49 570.316 458.28 570.436 457.89 570.466 457.35 570.526 457.05 570.796 456.99 571.306 457.02 571.876 457.38 572.176 458.1 572.176 458.34 572.176 458.52 572.146 458.73 572.056 458.91 571.996 459.06 571.876 459.18 571.726L458.79 571.366C458.52 571.546 458.31 571.636 458.1 571.636 457.83 571.636 457.68 571.516 457.65 571.336 457.65 571.246 457.68 571.186 457.77 571.156 457.86 571.096 458.01 571.066 458.19 571.036 458.85 570.946 459.15 570.646 459.15 570.136 459.12 569.566 458.76 569.266 458.07 569.266 457.77 569.266 457.53 569.326 457.32 569.416 457.08 569.506 456.9 569.626 456.78 569.806L457.26 570.196Z" fill-rule="evenodd"/><path transform="matrix(1,0,0,-1,0,595.276)" d="M462.54 570.856V569.356H462.06V570.856H461.73V571.336H462.06V571.726C462.06 571.846 462.12 571.966 462.21 572.056 462.33 572.116 462.48 572.146 462.69 572.146 462.78 572.146 462.84 572.146 462.9 572.146 462.99 572.116 463.05 572.116 463.08 572.086L462.99 571.636C462.87 571.666 462.75 571.666 462.66 571.666 462.63 571.666 462.6 571.666 462.57 571.636 462.57 571.636 462.54 571.606 462.54 571.576V571.336H462.99V570.856H462.54Z" fill-rule="evenodd"/><path transform="matrix(1,0,0,-1,0,595.276)" d="M467.19 570.136C467.49 570.136 467.64 570.076 467.64 569.926 467.64 569.896 467.64 569.836 467.58 569.806 467.55 569.776 467.49 569.776 467.43 569.776 467.31 569.776 467.19 569.806 467.1 569.836 467.01 569.896 466.92 569.956 466.86 570.046L466.47 569.656C466.68 569.416 466.98 569.266 467.4 569.266 467.91 569.266 468.21 569.536 468.21 569.956 468.24 570.346 468.03 570.586 467.58 570.646 467.43 570.646 467.34 570.676 467.25 570.676 467.22 570.706 467.19 570.706 467.19 570.736L467.16 570.766V570.796 570.766 570.796C467.16 570.886 467.25 570.946 467.43 570.976 467.52 570.976 467.61 570.946 467.7 570.916 467.76 570.856 467.82 570.826 467.88 570.736L468.21 571.126C468.06 571.336 467.82 571.426 467.46 571.456 466.92 571.456 466.62 571.216 466.59 570.736 466.62 570.406 466.83 570.196 467.19 570.136Z" fill-rule="evenodd"/><path transform="matrix(1,0,0,-1,0,595.276)" d="M471.9 565.696H470.7L470.67 565.726V566.536L470.7 566.566H471.6L471.63 566.626V566.806L471.6 566.836H470.7L470.67 566.866V567.286L470.73 567.346V567.406L470.7 567.436H470.58L470.4 567.496 470.34 567.436V566.866L470.31 566.836H469.5 469.38L469.35 566.806V566.626L469.38 566.596 469.5 566.566H470.31L470.34 566.536V565.726L470.31 565.696H469.14L469.11 565.666V565.456L469.14 565.426H471.9L471.96 565.456V565.666Z" fill-rule="evenodd"/><path transform="matrix(1,0,0,-1,0,595.276)" d="M470.88 565.246V564.796L470.85 564.736H469.29L469.23 564.706V564.526L469.29 564.496H470.85L470.88 564.466V563.326 563.206L470.79 563.146H470.37L470.31 563.116V563.056L470.34 562.906 470.4 562.846H470.49 471L471.09 562.876 471.18 562.966 471.21 563.056V563.176 564.466L471.27 564.496H471.78L471.81 564.526V564.706L471.78 564.736H471.27L471.21 564.796V565.096L471.27 565.156V565.216L471.21 565.246 471.06 565.276H470.94Z" fill-rule="evenodd"/><path transform="matrix(1,0,0,-1,0,595.276)" d="M469.74 563.776 470.1 563.476 470.28 563.716 469.89 564.046 469.5 564.256 469.32 564.016Z" fill-rule="evenodd"/><path transform="matrix(1,0,0,-1,0,595.276)" d="M476.19 563.026 477.3 563.056 477.39 563.266 477.42 563.386 477.39 563.416 476.13 563.296H474.6L474.27 563.326 474.03 563.416 473.88 563.566 473.85 563.746V565.066H472.86V564.796H473.52V563.716L472.8 563.206 472.92 563.026 472.98 562.936 473.04 562.906 473.07 562.966 473.1 563.056 473.58 563.446 473.7 563.266 473.88 563.146 474.12 563.056 474.42 562.996Z" fill-rule="evenodd"/><path transform="matrix(1,0,0,-1,0,595.276)" d="M473.94 565.846 473.52 566.146 473.1 566.386 472.92 566.146 473.31 565.936 473.73 565.606Z" fill-rule="evenodd"/><path transform="matrix(1,0,0,-1,0,595.276)" d="M473.79 566.806 473.97 567.046 473.64 567.286 473.22 567.496 473.04 567.286 473.43 567.046Z" fill-rule="evenodd"/><path transform="matrix(1,0,0,-1,0,595.276)" d="M465.84 565.246H464.49V564.376H465.87V564.106H464.49V563.146H466.44V562.876H462.18V563.146H464.16V564.106H462.78V564.376H464.16V565.246H462.69V565.516H465.84Z" fill-rule="evenodd"/><path transform="matrix(1,0,0,-1,0,595.276)" d="M463.86 566.476 464.31 566.926 464.73 566.476 465.18 566.056 465.69 565.696 466.26 565.396 466.32 565.366 466.38 565.396 466.56 565.486 466.59 565.546 466.56 565.606 465.99 565.906 465.48 566.266 464.97 566.656 464.55 567.106 464.67 567.136 464.7 567.196 464.67 567.256 464.55 567.346 464.31 567.466 464.25 567.436 463.8 566.896 463.29 566.446 462.72 566.056 462.15 565.696 462.03 565.636V565.576L462.18 565.456 462.24 565.426H462.33L462.87 565.726 463.38 566.086Z" fill-rule="evenodd"/><path transform="matrix(1,0,0,-1,0,595.276)" d="M460.62 566.596V565.906H460.92V566.866H459V567.286L459.12 567.346 459.15 567.406 459.09 567.436 458.97 567.466 458.7 567.496V566.866H456.78V565.906H457.11V566.596Z" fill-rule="evenodd"/><path transform="matrix(1,0,0,-1,0,595.276)" d="M470.55 551.356 467.52 550.996 467.46 550.876 467.4 550.816 467.34 550.846 467.28 550.966 467.25 551.296 467.85 551.356 468.9 553.726 469.2 553.636 469.29 553.606 469.32 553.576 469.29 553.546 469.2 553.486 468.27 551.416 470.37 551.656 469.83 552.346 470.07 552.586 470.7 551.746 471.24 550.936 470.97 550.726Z" fill-rule="evenodd"/><path transform="matrix(1,0,0,-1,0,595.276)" d="M467.88 554.446 468.12 554.956 468.39 554.866 468.48 554.836 468.51 554.776 468.48 554.746 468.39 554.716 468.15 554.176 467.85 553.696 467.52 553.246 467.16 552.856 466.83 552.946 467.25 553.426 467.61 553.936Z" fill-rule="evenodd"/><path transform="matrix(1,0,0,-1,0,595.276)" d="M469.89 554.836H469.02V555.106H470.16L470.37 554.506 470.61 553.966 470.94 553.516 471.33 553.156 471.36 553.066 471.3 552.976 471.18 552.856H471.06L470.67 553.276 470.34 553.756 470.07 554.296Z" fill-rule="evenodd"/><path transform="matrix(1,0,0,-1,0,595.276)" d="M466.11 550.726V552.166C466.08 552.316 466.02 552.466 465.87 552.586 465.72 552.736 465.51 552.796 465.36 552.796 465.24 552.796 465.12 552.766 465 552.736 464.91 552.706 464.85 552.646 464.85 552.616V553.486H464.31V550.726H464.88V551.866C464.88 551.956 464.91 552.046 464.97 552.136 465.06 552.226 465.15 552.256 465.21 552.256 465.3 552.256 465.39 552.226 465.45 552.166 465.51 552.136 465.54 552.046 465.54 552.016V550.726H466.11Z" fill-rule="evenodd"/><path transform="matrix(1,0,0,-1,0,595.276)" d="M464.01 553.396 462.99 550.096 462.57 550.246 463.59 553.516Z" fill-rule="evenodd"/><path transform="matrix(1,0,0,-1,0,595.276)" d="M461.67 550.726V552.076C461.67 552.106 461.67 552.106 461.64 552.136 461.64 552.166 461.61 552.166 461.58 552.196 461.55 552.226 461.46 552.256 461.4 552.256 461.25 552.256 461.07 552.106 461.04 551.986V551.956 550.726H460.5V552.076C460.5 552.166 460.38 552.256 460.23 552.256 460.08 552.256 459.9 552.106 459.9 551.956V550.726H459.36V552.706H459.87V552.616C459.96 552.676 460.02 552.706 460.11 552.736 460.17 552.766 460.26 552.796 460.35 552.796 460.62 552.796 460.77 552.706 460.89 552.526 461.01 552.706 461.19 552.796 461.43 552.796 461.82 552.766 462.06 552.616 462.15 552.316 462.18 552.286 462.18 552.256 462.18 552.256 462.18 552.226 462.18 552.196 462.21 552.166V552.136 550.726H461.67Z" fill-rule="evenodd"/><path transform="matrix(1,0,0,-1,0,595.276)" d="M459 550.726 458.25 551.866 459 552.676H458.34L457.68 552.016V553.486H457.11V550.726H457.68V551.266L457.89 551.476 458.4 550.726Z" fill-rule="evenodd"/><path transform="matrix(1,0,0,-1,0,595.276)" d="M459.6 569.986C459.6 570.196 459.69 570.376 459.87 570.466 460.08 570.586 460.35 570.646 460.74 570.646V570.736C460.74 570.796 460.74 570.856 460.68 570.886 460.65 570.916 460.59 570.946 460.5 570.946 460.38 570.946 460.29 570.916 460.17 570.886 460.08 570.856 459.99 570.796 459.9 570.736L459.63 571.126C459.84 571.336 460.14 571.426 460.5 571.426 460.74 571.426 460.95 571.396 461.07 571.306 461.22 571.186 461.31 571.066 461.34 570.856V569.836C461.34 569.776 461.34 569.746 461.37 569.746 461.4 569.716 461.46 569.716 461.52 569.686L461.4 569.296C461.1 569.296 460.92 569.356 460.86 569.506 460.83 569.386 460.56 569.266 460.38 569.266 460.14 569.266 459.93 569.326 459.81 569.446 459.66 569.596 459.6 569.776 459.6 569.986ZM460.74 570.226C460.35 570.196 460.17 570.136 460.17 569.956 460.17 569.896 460.2 569.836 460.23 569.806 460.29 569.746 460.38 569.746 460.47 569.746 460.56 569.746 460.62 569.776 460.65 569.776 460.71 569.806 460.74 569.836 460.74 569.866V570.226Z" fill-rule="evenodd"/><path transform="matrix(1,0,0,-1,0,595.276)" d="M460.11 565.126H461.1V565.366H458.55L458.91 566.086H459.03L459.06 566.146 459.03 566.206 458.88 566.296 458.67 566.416 458.43 565.846 458.16 565.366H456.63V565.126H458.07L457.32 563.986 457.59 563.866 457.8 564.136 458.88 563.806 458.49 563.596 458.07 563.416 457.59 563.236 457.08 563.116H457.02V563.056L457.14 562.906 457.2 562.876 457.29 562.846 457.8 562.996 458.25 563.176 458.73 563.386 459.18 563.656 459.93 563.296 460.59 562.936 460.65 562.906 460.83 563.056V563.086L460.77 563.176 459.39 563.866 459.78 564.436 460.11 565.126ZM458.43 565.126H459.78L459.48 564.526 459.12 564.016 457.98 564.406 458.43 565.126Z" fill-rule="evenodd"/><path transform="matrix(1,0,0,-1,0,595.276)" d="M470.97 559.666C470.97 558.916 470.82 558.376 470.52 558.016 470.22 557.626 469.77 557.446 469.17 557.446 468.57 557.446 468.09 557.626 467.79 558.016 467.49 558.376 467.34 558.916 467.34 559.666 467.34 560.386 467.49 560.926 467.79 561.316 468.09 561.676 468.57 561.856 469.17 561.856 469.77 561.856 470.22 561.676 470.52 561.316 470.82 560.926 470.97 560.386 470.97 559.666ZM468.24 559.666C468.24 559.186 468.3 558.826 468.45 558.586 468.63 558.376 468.84 558.256 469.17 558.256 469.77 558.256 470.07 558.706 470.07 559.666 470.07 560.116 470.01 560.476 469.86 560.716 469.71 560.956 469.47 561.076 469.17 561.076 468.54 561.076 468.24 560.596 468.24 559.666Z" fill-rule="evenodd"/><path transform="matrix(1,0,0,-1,0,595.276)" d="M474.69 552.766V552.076L474.75 552.046H476.22L476.25 552.016V551.806L476.22 551.776H474.75L474.69 551.746V551.056L474.75 551.026H476.73L476.76 550.996V550.816L476.73 550.786H472.35L472.32 550.816V550.996L472.35 551.026H474.36L474.39 551.056V551.746L474.36 551.776H472.89L472.86 551.806V552.016L472.89 552.046H474.36L474.39 552.076V552.766L474.36 552.826H473.22L473.16 552.766V552.646L473.13 552.586H472.89L472.86 552.646V554.986L472.89 555.016H476.22L476.28 554.986V552.646H475.95V552.826H474.75L474.69 552.766ZM475.92 553.066 475.95 553.096V553.756L475.92 553.786H474.75L474.69 553.756V553.096L474.75 553.066H475.92ZM475.92 554.056 475.95 554.086V554.716L475.92 554.776H474.75L474.69 554.716V554.086L474.75 554.056H475.92ZM473.22 554.056H474.36L474.39 554.086V554.716L474.36 554.776H473.22L473.16 554.716V554.086L473.22 554.056ZM473.22 553.066H474.36L474.39 553.096V553.756L474.36 553.786H473.22L473.16 553.756V553.096L473.22 553.066Z" fill-rule="evenodd"/><path transform="matrix(1,0,0,-1,0,595.276)" d="M477.09 563.986 477.15 564.016 477.24 564.136 477.3 564.166 477.27 564.226 476.97 564.346 476.64 564.526 476.31 564.736 475.98 565.036H477V566.326H475.89V566.746H477.3V566.986H475.89V567.346L475.98 567.406V567.436 567.466L475.92 567.496 475.59 567.526V566.986H474.27V566.746H475.59V566.326H474.57V565.036H475.53L475.23 564.766 474.93 564.556 474.6 564.376 474.3 564.226 474.21 564.196 474.24 564.136 474.36 564.016 474.42 563.986H474.48L475.05 564.316 475.59 564.706V563.536H475.89V564.736L476.46 564.286 477.03 563.986H477.09ZM476.64 566.086V565.306H475.89V566.086H476.64ZM475.59 566.086V565.306H474.9V566.086H475.59Z" fill-rule="evenodd"/><path transform="matrix(1,0,0,-1,0,595.276)" d="M477.09 572.116V569.326H476.52V569.416C476.46 569.326 476.28 569.266 476.07 569.266 475.59 569.236 475.23 569.566 475.14 570.226V570.286 570.466 570.526C475.2 571.066 475.56 571.366 476.01 571.396 476.1 571.396 476.16 571.366 476.25 571.366 476.34 571.336 476.46 571.306 476.55 571.246V572.116H477.09ZM475.65 570.346C475.68 569.956 475.83 569.746 476.13 569.746 476.22 569.746 476.31 569.776 476.37 569.806 476.43 569.866 476.49 569.926 476.52 570.016V570.496C476.52 570.586 476.52 570.616 476.52 570.646 476.49 570.676 476.49 570.706 476.46 570.736L476.43 570.766C476.34 570.826 476.25 570.886 476.13 570.886 475.86 570.856 475.68 570.676 475.65 570.346Z" fill-rule="evenodd"/><path transform="matrix(1,0,0,-1,0,595.276)" d="M473.58 570.166C473.58 570.046 473.61 569.956 473.7 569.866 473.79 569.776 473.91 569.746 474 569.776 474.09 569.776 474.18 569.776 474.27 569.836 474.33 569.866 474.42 569.896 474.45 569.956L474.75 569.626C474.66 569.416 474.33 569.266 474 569.266 473.73 569.266 473.43 569.386 473.22 569.626 473.07 569.836 473.01 570.076 473.01 570.346 473.07 571.066 473.37 571.426 473.91 571.426 474.21 571.396 474.45 571.276 474.6 571.066 474.75 570.856 474.84 570.556 474.81 570.166H473.58ZM473.55 570.556H474.3V570.586 570.616C474.27 570.796 474.09 570.916 473.94 570.946 473.85 570.916 473.76 570.886 473.67 570.826 473.61 570.736 473.55 570.646 473.55 570.586V570.556Z" fill-rule="evenodd"/><path transform="matrix(1,0,0,-1,0,595.276)" d="M471.42 570.166C471.42 570.046 471.48 569.956 471.54 569.866 471.63 569.776 471.75 569.746 471.84 569.776 471.93 569.776 472.02 569.776 472.11 569.836 472.2 569.866 472.26 569.896 472.29 569.956L472.62 569.626C472.53 569.416 472.17 569.266 471.84 569.266 471.57 569.266 471.27 569.386 471.06 569.626 470.91 569.836 470.85 570.076 470.85 570.346 470.91 571.066 471.21 571.426 471.75 571.426 472.05 571.396 472.29 571.276 472.44 571.066 472.62 570.856 472.68 570.556 472.68 570.166H471.42ZM471.39 570.556H472.14V570.586 570.616C472.11 570.796 471.93 570.916 471.78 570.946 471.69 570.916 471.6 570.886 471.51 570.826 471.45 570.736 471.42 570.646 471.39 570.586V570.556Z" fill-rule="evenodd"/><path transform="matrix(1,0,0,-1,0,595.276)" d="M469.14 569.446V568.666H468.6V571.366H469.11V571.276C469.11 571.306 469.17 571.336 469.29 571.366 469.38 571.396 469.5 571.426 469.59 571.426 470.16 571.426 470.52 571.036 470.52 570.376 470.52 570.076 470.43 569.776 470.28 569.566 470.1 569.356 469.86 569.266 469.62 569.266 469.41 569.266 469.17 569.356 469.14 569.446ZM469.53 569.776C469.59 569.776 469.68 569.806 469.77 569.836 469.86 569.896 469.92 569.986 469.95 570.046V570.076L469.98 570.136V570.166 570.556 570.586L469.95 570.646V570.676C469.92 570.766 469.86 570.826 469.77 570.886 469.68 570.946 469.62 570.946 469.56 570.946H469.53 469.5C469.32 570.916 469.14 570.796 469.14 570.646V570.136C469.14 570.046 469.17 569.956 469.26 569.896 469.35 569.836 469.44 569.776 469.53 569.776Z" fill-rule="evenodd"/><path transform="matrix(1,0,0,-1,0,595.276)" d="M464.79 569.956 465.12 569.626C465.06 569.536 464.97 569.446 464.82 569.356 464.67 569.296 464.49 569.266 464.37 569.266 464.07 569.266 463.77 569.386 463.56 569.626 463.44 569.836 463.35 570.076 463.35 570.346 463.41 571.066 463.71 571.426 464.25 571.426 464.58 571.396 464.79 571.276 464.97 571.066 465.12 570.856 465.18 570.556 465.18 570.166H463.92C463.92 570.046 463.98 569.956 464.07 569.866 464.13 569.776 464.25 569.746 464.37 569.776 464.52 569.776 464.73 569.836 464.79 569.956ZM463.89 570.556H464.64V570.586 570.616C464.61 570.796 464.43 570.916 464.28 570.946 464.19 570.916 464.1 570.886 464.04 570.826 463.95 570.736 463.92 570.646 463.89 570.586V570.556Z" fill-rule="evenodd"/><path transform="matrix(1,0,0,-1,0,595.276)" d="M468.87 563.806V566.986L468.84 567.016H467.49L467.46 566.986V563.446L467.49 563.416H467.73L467.79 563.446V564.016L467.82 564.046H468.54L468.57 564.016V563.806L468.6 563.776H468.84L468.87 563.806ZM467.79 565.396 467.82 565.426H468.54L468.57 565.396V564.346L468.54 564.316H467.82L467.79 564.346V565.396ZM467.82 566.746H468.54L468.57 566.716V565.726L468.54 565.696H467.82L467.79 565.726V566.716L467.82 566.746Z" fill-rule="evenodd"/><path transform="matrix(.03,0,0,.03,0,0)" stroke-width="5" stroke-linecap="round" stroke-linejoin="round" fill="none" stroke="#000000" d="M15142 1525H15143"/><path transform="matrix(1,0,0,-1,0,595.276)" d="M454.26 549.526V549.526 573.016C454.26 573.136 454.29 573.256 454.32 573.376 454.38 573.496 454.44 573.616 454.56 573.706 454.74 573.886 455.01 573.976 455.25 573.976H478.74C478.98 573.976 479.22 573.886 479.43 573.706 479.61 573.496 479.7 573.256 479.7 573.016V549.526C479.7 549.286 479.61 549.016 479.43 548.836 479.22 548.626 478.98 548.536 478.74 548.536H455.25C455.01 548.536 454.74 548.626 454.56 548.836 454.35 549.016 454.26 549.286 454.26 549.526ZM478.68 573.466H455.28C455.16 573.466 455.04 573.436 454.92 573.316 454.83 573.226 454.77 573.076 454.77 572.956V549.556C454.77 549.436 454.83 549.286 454.92 549.196 455.04 549.106 455.16 549.046 455.28 549.046H478.68C478.83 549.046 478.95 549.106 479.04 549.196 479.16 549.286 479.19 549.436 479.19 549.556V572.956C479.19 573.076 479.16 573.226 479.04 573.316 478.95 573.436 478.83 573.466 478.68 573.466Z" fill-rule="evenodd"/><path transform="matrix(1,0,0,-1,0,595.276)" d="M465.24 557.446C464.67 557.446 464.25 557.656 463.95 558.046 463.65 558.436 463.53 559.006 463.53 559.756 463.53 560.416 463.65 560.956 463.95 561.316 464.22 561.676 464.64 561.856 465.12 561.856 465.45 561.856 465.72 561.796 465.96 561.616 466.2 561.466 466.38 561.256 466.5 560.956L465.78 560.596C465.57 560.896 465.33 561.046 465.09 561.046 464.88 561.046 464.7 560.956 464.58 560.806 464.52 560.746 464.46 560.656 464.43 560.566 464.4 560.446 464.4 560.326 464.4 560.206 464.43 560.296 464.49 560.356 464.64 560.416 464.79 560.476 465 560.476 465.24 560.476 465.63 560.476 465.99 560.356 466.26 560.086 466.53 559.846 466.65 559.456 466.65 559.066V558.946C466.65 558.526 466.5 558.136 466.26 557.866 465.99 557.596 465.63 557.446 465.24 557.446ZM465.15 558.226C465.54 558.226 465.81 558.526 465.81 558.946 465.81 559.366 465.54 559.666 465.15 559.666 464.76 559.666 464.49 559.366 464.49 558.946 464.49 558.526 464.76 558.226 465.15 558.226Z" fill-rule="evenodd"/></g></svg>