<?xml version='1.0' encoding='UTF-8'?>
<svg xmlns="http://www.w3.org/2000/svg" xmlns:xlink="http://www.w3.org/1999/xlink" xmlns:inkscape="http://www.inkscape.org/namespaces/inkscape" version="1.1" width="567.000" height="269.280" viewBox="0 0 567.000 269.280"><g transform="scale(10.0) translate(-220.305, -424.224)"><defs><clipPath id="clip_14"><path transform="matrix(1,0,0,-1,0,595.276)" d="M74.37 .046H767.49V595.276H74.37Z"/></clipPath></defs><path transform="matrix(1,0,0,-1,0,595.276)" d="M229.98 169.786H267.51C267.69 169.786 267.87 169.756 268.05 169.666 268.23 169.606 268.38 169.486 268.53 169.366 268.65 169.216 268.77 169.066 268.83 168.886 268.92 168.706 268.95 168.526 268.95 168.346V146.386C268.95 146.056 268.8 145.666 268.53 145.396 268.23 145.096 267.87 144.976 267.51 144.976H229.98C229.62 144.976 229.26 145.096 228.96 145.396 228.84 145.516 228.72 145.696 228.66 145.876 228.57 146.056 228.54 146.236 228.54 146.386V168.346C228.54 168.736 228.69 169.096 228.96 169.366 229.23 169.636 229.59 169.786 229.98 169.786Z" fill="#ffffff" fill-rule="evenodd"/><path transform="matrix(1,0,0,-1,0,595.276)" d="M229.98 169.066H267.51C267.6 169.066 267.69 169.036 267.78 169.006 267.87 168.976 267.96 168.916 268.02 168.856 268.08 168.796 268.14 168.706 268.17 168.616 268.23 168.526 268.23 168.436 268.23 168.346V146.386C268.23 146.206 268.17 146.026 268.02 145.876 267.96 145.816 267.87 145.756 267.78 145.726 267.69 145.696 267.6 145.666 267.51 145.666H229.98C229.8 145.666 229.62 145.756 229.47 145.876 229.41 145.966 229.35 146.026 229.32 146.116 229.26 146.206 229.26 146.296 229.26 146.386V168.346C229.26 168.526 229.32 168.706 229.47 168.856 229.62 169.006 229.8 169.066 229.98 169.066Z" fill="#ff0000" fill-rule="evenodd"/><path transform="matrix(.03,0,0,.03,0,0)" stroke-width="5" stroke-linecap="round" stroke-linejoin="round" fill="none" stroke="#ffffff" d="M7907 14407V14275"/><path transform="matrix(1,0,0,-1,0,595.276)" d="M237.21 163.066H237.9V164.596H238.59L239.34 163.066H240.09L239.28 164.626C239.79 164.806 240.09 165.376 240.03 165.976 239.94 166.576 239.49 167.026 238.98 167.026H237.21V163.066ZM237.9 165.166V166.426H238.8C238.95 166.426 239.07 166.366 239.19 166.246 239.31 166.126 239.34 165.946 239.34 165.796 239.34 165.646 239.31 165.496 239.19 165.376 239.07 165.226 238.95 165.166 238.8 165.166H237.9Z" fill="#ffffff" fill-rule="evenodd"/><path transform="matrix(1,0,0,-1,0,595.276)" d="M241.23 163.066H243.84V163.666H241.86V164.746H243.57V165.376H241.86V166.396H243.72V167.026H241.23Z" fill="#ffffff" fill-rule="evenodd"/><path transform="matrix(1,0,0,-1,0,595.276)" d="M246.45 167.026C246.66 167.026 246.9 166.966 247.11 166.876 247.32 166.786 247.53 166.636 247.68 166.456 247.86 166.246 247.98 166.006 248.07 165.766 248.16 165.526 248.19 165.286 248.19 165.046 248.19 164.806 248.16 164.566 248.07 164.296 247.98 164.056 247.86 163.846 247.68 163.636 247.53 163.426 247.32 163.306 247.11 163.186 246.9 163.096 246.66 163.066 246.45 163.066H244.95V167.026H246.45ZM246.45 166.426H245.64V163.636H246.45C246.75 163.636 247.02 163.786 247.2 164.056 247.41 164.326 247.5 164.656 247.5 165.046 247.5 165.376 247.41 165.736 247.2 166.006 246.99 166.306 246.72 166.426 246.45 166.426Z" fill="#ffffff" fill-rule="evenodd"/><path transform="matrix(1,0,0,-1,0,595.276)" d="M256.23 165.736C256.14 165.916 256.05 166.066 255.9 166.216 255.78 166.336 255.6 166.456 255.42 166.486 255.27 166.516 255.09 166.516 254.91 166.456 254.76 166.396 254.61 166.306 254.49 166.186 254.25 165.886 254.1 165.466 254.1 165.046 254.1 164.596 254.25 164.176 254.49 163.906 254.61 163.786 254.76 163.666 254.91 163.606 255.09 163.546 255.27 163.546 255.42 163.606 255.6 163.636 255.78 163.726 255.9 163.876 256.05 163.996 256.14 164.176 256.23 164.326L256.89 164.176C256.77 163.936 256.62 163.666 256.41 163.456 256.2 163.246 255.96 163.096 255.66 163.006 255.36 162.916 255.06 162.916 254.79 163.006 254.52 163.066 254.28 163.216 254.1 163.396 253.92 163.546 253.74 163.786 253.62 164.086 253.47 164.356 253.41 164.686 253.41 165.046 253.41 165.376 253.47 165.706 253.62 166.006 253.74 166.306 253.92 166.516 254.1 166.696 254.28 166.876 254.52 166.996 254.79 167.086 255.06 167.146 255.36 167.146 255.66 167.086 255.96 166.996 256.2 166.816 256.41 166.606 256.62 166.396 256.77 166.156 256.89 165.886L256.23 165.736Z" fill="#ffffff" fill-rule="evenodd"/><path transform="matrix(.03,0,0,.03,0,0)" stroke-width="5" stroke-linecap="round" stroke-linejoin="round" fill="none" stroke="#ffffff" d="M7782 14579H7783"/><path transform="matrix(.03,0,0,.03,0,0)" stroke-width="5" stroke-linecap="round" stroke-linejoin="round" fill="none" stroke="#ffffff" d="M7759 14516H7760 7759"/><path transform="matrix(1,0,0,-1,0,595.276)" d="M232.77 159.796V159.796C232.71 159.826 232.62 159.856 232.56 159.886 232.44 159.946 232.32 160.096 232.32 160.216 232.29 160.396 232.41 160.546 232.53 160.666 232.68 160.786 232.8 160.816 232.98 160.786 233.28 160.786 233.7 160.636 233.97 160.366L234.51 160.756C234.03 161.206 233.58 161.416 233.04 161.416 232.68 161.416 232.26 161.326 231.99 161.056 231.75 160.876 231.63 160.546 231.63 160.216 231.63 159.916 231.75 159.616 231.99 159.436 232.08 159.346 232.2 159.316 232.32 159.256 232.53 159.196 232.77 159.136 233.04 159.106H233.07C233.37 159.046 233.7 159.016 233.85 158.776 233.94 158.626 233.94 158.386 233.88 158.236 233.76 157.996 233.46 157.936 233.13 157.936 232.71 157.966 232.32 158.086 232.02 158.506L231.48 158.056C231.63 157.906 231.78 157.786 231.96 157.666 232.29 157.456 232.68 157.336 233.1 157.336 233.49 157.336 233.94 157.456 234.21 157.696 234.33 157.786 234.42 157.906 234.48 158.056 234.51 158.116 234.54 158.206 234.54 158.266 234.57 158.296 234.57 158.356 234.57 158.386 234.57 158.416 234.6 158.446 234.6 158.446V158.476 158.506 158.536 158.506 158.536C234.6 158.566 234.6 158.566 234.6 158.596 234.6 158.626 234.6 158.626 234.6 158.656 234.6 158.716 234.57 158.746 234.57 158.806 234.54 159.016 234.42 159.226 234.24 159.376 234.18 159.436 234.06 159.496 233.97 159.526 233.88 159.586 233.79 159.616 233.7 159.616L232.77 159.796Z" fill="#ffffff" fill-rule="evenodd"/><path transform="matrix(1,0,0,-1,0,595.276)" d="M237.39 161.356C237.63 161.356 237.9 161.236 238.11 160.996 238.32 160.726 238.44 160.396 238.44 160.096 238.44 159.796 238.32 159.466 238.11 159.226 237.9 158.986 237.63 158.866 237.39 158.866H236.4V157.396H235.71V161.356H237.39ZM236.4 160.756V159.466H237.21C237.51 159.466 237.75 159.736 237.75 160.096 237.75 160.276 237.69 160.426 237.6 160.576 237.54 160.636 237.48 160.696 237.42 160.726 237.33 160.756 237.27 160.756 237.21 160.756H236.4Z" fill="#ffffff" fill-rule="evenodd"/><path transform="matrix(1,0,0,-1,0,595.276)" d="M239.4 157.396H242.01V157.996H240.03V159.076H241.74V159.706H240.03V160.726H241.89V161.356H239.4Z" fill="#ffffff" fill-rule="evenodd"/><path transform="matrix(1,0,0,-1,0,595.276)" d="M243.12 157.396H245.73V157.996H243.78V159.076H245.49V159.706H243.78V160.726H245.64V161.356H243.12Z" fill="#ffffff" fill-rule="evenodd"/><path transform="matrix(1,0,0,-1,0,595.276)" d="M248.37 161.356C248.58 161.356 248.79 161.326 249 161.206 249.24 161.116 249.42 160.966 249.6 160.786 249.78 160.576 249.9 160.336 249.99 160.096 250.08 159.856 250.11 159.616 250.11 159.376 250.11 159.136 250.08 158.896 249.99 158.626 249.9 158.386 249.78 158.176 249.6 157.966 249.42 157.786 249.24 157.636 249 157.516 248.79 157.426 248.58 157.396 248.37 157.396H246.87V161.356H248.37ZM248.37 160.756H247.56V157.996H248.37C248.67 157.996 248.91 158.116 249.12 158.386 249.33 158.656 249.42 159.016 249.42 159.376 249.42 159.706 249.33 160.066 249.12 160.366 248.91 160.636 248.64 160.756 248.37 160.756Z" fill="#ffffff" fill-rule="evenodd"/><path transform="matrix(1,0,0,-1,0,595.276)" d="M255.27 157.396H256.05V161.356H255.39V158.476L253.44 161.356H252.66V157.396H253.35V160.276Z" fill="#ffffff" fill-rule="evenodd"/><path transform="matrix(1,0,0,-1,0,595.276)" d="M258.96 161.476C258.48 161.476 258 161.236 257.67 160.846 257.34 160.456 257.13 159.916 257.13 159.376 257.13 159.136 257.16 158.866 257.25 158.596 257.34 158.326 257.49 158.086 257.67 157.876 257.85 157.666 258.06 157.516 258.27 157.426 258.51 157.306 258.72 157.276 258.96 157.276 259.44 157.276 259.89 157.486 260.22 157.876 260.58 158.266 260.76 158.806 260.76 159.376 260.76 159.616 260.73 159.886 260.64 160.156 260.55 160.396 260.4 160.636 260.22 160.846 260.04 161.056 259.83 161.206 259.62 161.326 259.38 161.416 259.17 161.476 258.96 161.476ZM258.96 160.846C259.26 160.846 259.53 160.696 259.74 160.426 259.95 160.126 260.07 159.766 260.07 159.376 260.07 159.016 259.98 158.626 259.74 158.326 259.53 158.026 259.23 157.906 258.96 157.906 258.66 157.906 258.36 158.056 258.15 158.326 257.94 158.596 257.82 158.986 257.82 159.376 257.82 159.736 257.91 160.126 258.15 160.426 258.39 160.726 258.66 160.846 258.96 160.846Z" fill="#ffffff" fill-rule="evenodd"/><path transform="matrix(1,0,0,-1,0,595.276)" d="M262.38 157.396 261.48 161.356H262.17L262.77 158.446 263.43 161.356H264.18L264.84 158.446 265.44 161.356H266.16L265.23 157.396H264.45L263.82 160.306 263.16 157.396Z" fill="#ffffff" fill-rule="evenodd"/><path transform="matrix(1,0,0,-1,0,595.276)" d="M249.96 167.026V164.476 164.446C249.96 164.356 249.99 164.266 250.02 164.176 250.05 164.086 250.11 163.996 250.17 163.906 250.35 163.726 250.59 163.636 250.83 163.636 251.07 163.636 251.31 163.726 251.49 163.906 251.55 163.996 251.61 164.086 251.64 164.176 251.67 164.266 251.7 164.356 251.7 164.446V164.476 167.026H252.36V164.476C252.36 164.266 252.33 164.086 252.24 163.906 252.18 163.696 252.06 163.516 251.91 163.366 251.88 163.366 251.88 163.336 251.88 163.336 251.61 163.096 251.22 163.006 250.83 163.006 250.44 163.006 250.05 163.096 249.78 163.336L249.75 163.366C249.6 163.516 249.48 163.696 249.42 163.906 249.33 164.086 249.3 164.266 249.27 164.476V167.026H249.96Z" fill="#ffffff" fill-rule="evenodd"/><path transform="matrix(1,0,0,-1,0,595.276)" d="M257.88 163.066H260.49V163.666H258.54V164.746H260.25V165.376H258.54V166.396H260.37V167.026H257.88Z" fill="#ffffff" fill-rule="evenodd"/><path transform="matrix(1,0,0,-1,0,595.276)" d="M234.36 148.456H234.9V151.876H236.79V154.066H234.36V148.456ZM234.9 152.356V152.716H236.19V152.356H234.9ZM234.9 153.166V153.556H236.19V153.166H234.9Z" fill="#ffffff" fill-rule="evenodd"/><path transform="matrix(1,0,0,-1,0,595.276)" d="M235.44 151.456V150.976H236.25L236.28 150.676 236.25 150.376H235.17V149.866H236.16L235.8 149.326 235.29 148.936 235.77 148.516 236.1 148.786 236.37 149.086 236.58 149.446 236.73 149.866H237.48V148.546H237.99V149.866H238.95V150.376H237.99V150.976H238.71V151.456H235.44ZM236.76 150.976H237.48V150.376H236.76V150.976Z" fill="#ffffff" fill-rule="evenodd"/><path transform="matrix(1,0,0,-1,0,595.276)" d="M237.3 151.876H239.25V149.476 149.206L239.13 149.086 238.86 149.026 238.44 149.086 238.68 148.456H238.98L239.25 148.516 239.46 148.576 239.64 148.666 239.76 148.786 239.82 148.936 239.85 149.116 239.82 149.326V154.066H237.3V151.876ZM237.9 152.386V152.716H239.25V152.386H237.9ZM237.9 153.166V153.556H239.25V153.166H237.9Z" fill="#ffffff" fill-rule="evenodd"/><path transform="matrix(1,0,0,-1,0,595.276)" d="M242.76 154.246 242.61 152.866H241.95V152.296H242.55L242.34 151.186 242.04 150.196 242.58 149.896 242.7 150.286 243.18 149.956 243.03 149.686 242.76 149.446 242.4 149.176 241.92 148.936 242.43 148.456 243.12 148.966 243.63 149.566 244.11 149.026 244.56 149.446 243.9 150.106 244.08 150.766 244.2 151.426 244.29 152.146 244.32 152.866H243.21L243.3 153.886 243.45 154.006V154.126L242.76 154.246ZM243.12 152.296H243.75L243.63 151.366 243.42 150.466 242.85 150.766 243.12 152.296Z" fill="#ffffff" fill-rule="evenodd"/><path transform="matrix(1,0,0,-1,0,595.276)" d="M245.61 154.246 244.86 152.146 244.41 152.116 244.5 151.666 244.53 151.516 244.59 151.456 244.68 151.486 244.8 151.576 247.05 151.906 247.29 151.396 247.86 151.516 247.5 152.446 247.02 153.316 246.48 153.196 246.87 152.386 245.46 152.206 246.09 153.736 246.21 153.826 246.24 153.916V153.976L246.15 154.036Z" fill="#ffffff" fill-rule="evenodd"/><path transform="matrix(1,0,0,-1,0,595.276)" d="M244.89 151.066V148.456H245.46V148.786H246.9V148.456H247.47V151.066H244.89ZM245.46 149.356V150.526H246.9V149.356H245.46Z" fill="#ffffff" fill-rule="evenodd"/><path transform="matrix(1,0,0,-1,0,595.276)" d="M250.44 154.156 250.08 153.736 250.56 153.436 250.98 153.106 251.37 153.526 250.92 153.886Z" fill="#ffffff" fill-rule="evenodd"/><path transform="matrix(1,0,0,-1,0,595.276)" d="M250.17 152.596 249.78 152.146 250.23 151.846 250.68 151.456 251.07 151.906 250.62 152.296Z" fill="#ffffff" fill-rule="evenodd"/><path transform="matrix(1,0,0,-1,0,595.276)" d="M249.72 148.876 250.11 148.546 250.23 148.516H250.29V148.576 148.696L250.74 149.626 251.16 150.676 250.74 151.066 250.26 149.926Z" fill="#ffffff" fill-rule="evenodd"/><path transform="matrix(1,0,0,-1,0,595.276)" d="M251.4 153.286V151.396L251.37 150.616 251.25 149.926 251.04 149.326 250.77 148.816 251.22 148.486 251.52 148.966 251.73 149.566 251.88 150.316 251.94 151.186V152.776H253.74V152.056L253.8 151.336 253.92 150.646 254.1 149.986 253.53 149.386 252.81 148.846 253.23 148.456 253.8 148.876 254.31 149.386 254.49 148.996 254.76 148.666 254.94 148.546 255.09 148.516 255.21 148.576 255.33 148.726 255.54 149.056 255.69 149.506 255.24 149.926 255.12 149.476 255.06 149.326 255 149.236 254.94 149.266 254.88 149.356 254.67 149.866 255.06 150.766 255.33 151.876 255.42 151.906 255.48 151.966 255.45 152.026 255.36 152.116 254.82 152.266 254.67 151.486 254.49 150.766 254.31 151.696 254.25 152.776H255.39V153.286H254.25V153.856L254.34 154.006 254.25 154.156 253.68 154.246V153.286Z" fill="#ffffff" fill-rule="evenodd"/><path transform="matrix(1,0,0,-1,0,595.276)" d="M254.82 154.246 254.46 153.946 255.06 153.316 255.48 153.646 255.18 154.006Z" fill="#ffffff" fill-rule="evenodd"/><path transform="matrix(1,0,0,-1,0,595.276)" d="M252.12 152.356V151.876H253.5V152.356Z" fill="#ffffff" fill-rule="evenodd"/><path transform="matrix(1,0,0,-1,0,595.276)" d="M252.15 151.396V149.476H252.6V149.896H253.14V149.686H253.59V151.396H252.15ZM252.63 150.376V150.976H253.14V150.376H252.63Z" fill="#ffffff" fill-rule="evenodd"/><path transform="matrix(1,0,0,-1,0,595.276)" d="M258.15 154.246 257.76 153.856 258.27 153.586 258.6 153.226 258.99 153.646 258.6 154.006Z" fill="#ffffff" fill-rule="evenodd"/><path transform="matrix(1,0,0,-1,0,595.276)" d="M258 152.896 257.58 152.536 258.15 152.206 258.6 151.876 258.93 152.266 258.51 152.626Z" fill="#ffffff" fill-rule="evenodd"/><path transform="matrix(1,0,0,-1,0,595.276)" d="M257.67 151.456V150.916H258.42V149.656L257.52 149.026 257.76 148.606 257.88 148.456 257.97 148.396 258.03 148.456 258.06 148.606 258.57 149.086 258.75 148.876 259.05 148.666 259.53 148.486 260.16 148.456H263.37L263.58 149.026H260.55L259.98 149.056 259.47 149.176 259.29 149.266 259.14 149.386 259.08 149.536 259.05 149.716V151.456Z" fill="#ffffff" fill-rule="evenodd"/><path transform="matrix(1,0,0,-1,0,595.276)" d="M259.38 153.646V153.136H260.97V152.686H259.62V151.066H260.82L260.46 150.706 260.04 150.436 259.65 150.196 259.2 150.016 259.65 149.506 260.01 149.686 260.37 149.926 260.67 150.196 260.97 150.526V149.296H261.6V150.526L262.32 149.926 263.07 149.476 263.55 150.016 262.65 150.436 261.75 151.066H262.98V152.686H261.6V153.136H263.25V153.646H261.6V154.066L261.69 154.156V154.186L261.63 154.246 261.51 154.276 260.97 154.336V153.646H259.38ZM260.19 151.576V152.116H260.97V151.576H260.19ZM261.6 151.576V152.116H262.41V151.576H261.6Z" fill="#ffffff" fill-rule="evenodd"/><path transform="matrix(.03,0,0,.03,0,0)" stroke-width="5" stroke-linecap="round" stroke-linejoin="round" fill="none" stroke="#ff0000" d="M8917 15010C8930 15010 8942 15005 8951 14996 8960 14987 8965 14975 8965 14963V14231C8965 14218 8960 14206 8951 14197 8942 14188 8930 14183 8917 14183H7666C7653 14183 7641 14188 7632 14197 7623 14206 7618 14218 7618 14231V14963C7618 14975 7623 14987 7632 14996 7641 15005 7653 15010 7666 15010H8917"/></g></svg>