<?xml version='1.0' encoding='UTF-8'?>
<svg xmlns="http://www.w3.org/2000/svg" xmlns:xlink="http://www.w3.org/1999/xlink" xmlns:inkscape="http://www.inkscape.org/namespaces/inkscape" version="1.1" width="567.000" height="269.280" viewBox="0 0 567.000 269.280"><g transform="scale(10.0) translate(-111.171, -208.800)"><defs><clipPath id="clip_14"><path transform="matrix(1,0,0,-1,0,595.276)" d="M74.37 .046H767.49V595.276H74.37Z"/></clipPath></defs><path transform="matrix(1,0,0,-1,0,595.276)" d="M166.44 383.836C166.44 384.196 166.32 384.556 166.02 384.826 165.75 385.096 165.39 385.216 165.06 385.216H114.18C113.85 385.216 113.49 385.096 113.22 384.826 112.95 384.556 112.8 384.196 112.8 383.836V361.696C112.8 361.366 112.95 361.006 113.22 360.736 113.49 360.466 113.85 360.346 114.18 360.346H165.06C165.39 360.346 165.75 360.466 166.02 360.736 166.17 360.886 166.26 361.036 166.35 361.216 166.41 361.366 166.44 361.546 166.44 361.696V383.836ZM165.75 383.836V361.696C165.75 361.546 165.69 361.366 165.54 361.216 165.39 361.096 165.21 361.036 165.06 361.036H114.18C114.03 361.036 113.85 361.096 113.7 361.216 113.55 361.366 113.49 361.546 113.49 361.696V383.836C113.49 384.016 113.55 384.196 113.7 384.346 113.85 384.466 114.03 384.526 114.18 384.526H165.06C165.15 384.526 165.21 384.526 165.3 384.496 165.39 384.466 165.48 384.406 165.54 384.346 165.69 384.196 165.75 384.016 165.75 383.836Z" fill-rule="evenodd"/><path transform="matrix(1,0,0,-1,0,595.276)" d="M114.18 384.526H165.06C165.21 384.526 165.39 384.466 165.54 384.346 165.69 384.196 165.75 384.016 165.75 383.836V361.696C165.75 361.546 165.69 361.366 165.54 361.216 165.39 361.096 165.21 361.036 165.06 361.036H114.18C114.03 361.036 113.85 361.096 113.7 361.216 113.55 361.366 113.49 361.546 113.49 361.696V383.836C113.49 383.926 113.52 384.016 113.55 384.106 113.58 384.196 113.64 384.256 113.7 384.346 113.85 384.466 114.03 384.526 114.18 384.526Z" fill="#ffffff" fill-rule="evenodd"/><path transform="matrix(1,0,0,-1,0,595.276)" d="M117.24 379.906H118.8V380.686H117.24V381.466H118.95V382.216H116.4V378.346H119.16V379.126H117.24Z" fill-rule="evenodd"/><path transform="matrix(1,0,0,-1,0,595.276)" d="M121.53 381.106H122.37L121.56 379.756 122.46 378.346H121.59L121.11 379.186 120.63 378.346H119.76L120.66 379.756 119.85 381.106H120.69L121.11 380.326Z" fill-rule="evenodd"/><path transform="matrix(1,0,0,-1,0,595.276)" d="M124.2 381.256C124.53 381.256 124.8 381.196 125.01 381.046 125.22 380.896 125.37 380.686 125.49 380.386L124.83 380.086C124.71 380.386 124.5 380.536 124.23 380.536 123.9 380.536 123.69 380.326 123.63 379.906 123.6 379.846 123.6 379.786 123.6 379.726 123.6 379.666 123.63 379.606 123.63 379.546V379.516C123.75 379.126 123.96 378.916 124.26 378.916 124.41 378.916 124.53 378.946 124.62 379.036 124.71 379.096 124.8 379.216 124.83 379.396L125.49 379.126C125.31 378.496 124.92 378.196 124.29 378.196 123.36 378.226 122.88 378.736 122.85 379.726 122.94 380.746 123.39 381.256 124.2 381.256Z" fill-rule="evenodd"/><path transform="matrix(1,0,0,-1,0,595.276)" d="M128.43 379.456C128.46 380.596 128.01 381.196 127.11 381.256 126.33 381.256 125.91 380.746 125.85 379.756 125.85 379.336 125.94 379.006 126.15 378.736 126.3 378.556 126.48 378.436 126.66 378.346 126.87 378.256 127.08 378.226 127.26 378.196 127.71 378.196 128.22 378.406 128.34 378.706L127.89 379.186C127.83 379.096 127.74 379.036 127.62 378.976 127.5 378.946 127.38 378.916 127.26 378.916 127.11 378.916 126.96 378.946 126.84 379.066 126.78 379.126 126.72 379.186 126.69 379.246 126.66 379.336 126.66 379.396 126.66 379.456H128.43ZM126.63 380.056V380.056C126.63 380.176 126.69 380.296 126.78 380.416 126.9 380.506 127.02 380.566 127.14 380.566 127.38 380.566 127.62 380.356 127.68 380.116V380.056H126.63Z" fill-rule="evenodd"/><path transform="matrix(1,0,0,-1,0,595.276)" d="M131.76 379.756C131.76 380.686 131.25 381.256 130.44 381.256 130.32 381.256 130.14 381.226 129.99 381.196 129.84 381.166 129.78 381.106 129.75 381.046V381.166H129.03V377.386H129.81V378.436C129.87 378.316 130.17 378.196 130.47 378.196 130.83 378.196 131.16 378.346 131.4 378.646 131.64 378.916 131.76 379.336 131.76 379.756ZM130.35 378.946C130.23 378.946 130.11 378.976 129.99 379.096 129.84 379.186 129.81 379.306 129.81 379.426V380.176C129.81 380.356 130.05 380.566 130.32 380.566H130.35 130.38C130.47 380.596 130.59 380.566 130.71 380.506 130.83 380.416 130.92 380.296 130.95 380.206V380.176L130.98 380.086V380.056 379.456L130.95 379.366V379.336C130.92 379.216 130.83 379.096 130.68 379.036 130.56 378.946 130.44 378.946 130.35 378.946Z" fill-rule="evenodd"/><path transform="matrix(1,0,0,-1,0,595.276)" d="M133.35 381.106H134.07V380.446H133.35V379.216C133.35 379.126 133.38 379.066 133.41 379.006 133.47 378.946 133.56 378.916 133.65 378.916 133.68 378.916 133.74 378.916 133.8 378.916 133.89 378.946 133.95 378.946 134.04 378.976L134.16 378.346C134.04 378.226 133.77 378.196 133.35 378.196 133.14 378.196 132.96 378.256 132.81 378.376 132.69 378.496 132.6 378.676 132.6 378.916V380.446H132.12V381.106H132.6V382.006L133.35 382.246V381.106Z" fill-rule="evenodd"/><path transform="matrix(1,0,0,-1,0,595.276)" d="M136.98 378.346V380.476H137.58V381.106H136.98V381.466C136.98 381.496 136.98 381.556 137.01 381.586 137.04 381.586 137.07 381.616 137.13 381.616 137.19 381.616 137.28 381.616 137.37 381.616 137.43 381.616 137.52 381.586 137.61 381.586L137.76 382.216C137.61 382.276 137.43 382.306 137.19 382.306 136.89 382.306 136.68 382.246 136.5 382.126 136.35 382.036 136.29 381.886 136.26 381.676V381.106H135.84V380.476H136.26V378.346H136.98Z" fill-rule="evenodd"/><path transform="matrix(1,0,0,-1,0,595.276)" d="M138.3 378.346V381.196H139.02V380.896C139.08 381.016 139.2 381.136 139.35 381.196 139.5 381.256 139.68 381.256 139.95 381.256V380.476C139.65 380.446 139.44 380.386 139.29 380.296 139.17 380.236 139.08 380.116 139.05 379.996V378.346H138.3Z" fill-rule="evenodd"/><path transform="matrix(1,0,0,-1,0,595.276)" d="M143.07 378.826 142.86 378.256C142.65 378.226 142.5 378.256 142.38 378.316 142.26 378.346 142.17 378.436 142.14 378.526 142.08 378.376 141.72 378.196 141.45 378.196 141.09 378.196 140.82 378.286 140.61 378.466 140.4 378.646 140.31 378.916 140.31 379.216 140.31 379.846 140.88 380.146 141.96 380.146V380.266C141.96 380.386 141.93 380.446 141.9 380.506 141.84 380.566 141.75 380.566 141.63 380.566 141.45 380.566 141.3 380.566 141.15 380.506 141 380.446 140.88 380.386 140.76 380.266L140.37 380.836C140.67 381.136 141.09 381.286 141.6 381.256 141.96 381.286 142.23 381.226 142.44 381.076 142.62 380.956 142.74 380.746 142.8 380.446V379.006C142.8 378.886 142.89 378.826 143.07 378.826ZM141.12 379.186C141.12 379.096 141.15 379.006 141.24 378.946 141.33 378.886 141.42 378.856 141.57 378.886 141.78 378.886 141.9 378.976 141.96 379.066V379.546C141.69 379.546 141.48 379.516 141.36 379.456 141.21 379.396 141.15 379.306 141.12 379.186Z" fill-rule="evenodd"/><path transform="matrix(1,0,0,-1,0,595.276)" d="M146.04 378.346V380.266 380.296 380.326C146.04 380.956 145.68 381.256 144.96 381.256 144.81 381.256 144.69 381.226 144.57 381.196 144.48 381.136 144.36 381.076 144.3 380.986V381.166H143.49V378.346H144.3V380.056 380.086C144.36 380.356 144.54 380.506 144.84 380.536 145.11 380.506 145.23 380.356 145.26 380.086V380.056 380.026C145.26 379.996 145.26 379.996 145.26 379.966V378.346H146.04Z" fill-rule="evenodd"/><path transform="matrix(1,0,0,-1,0,595.276)" d="M148.08 381.256C148.38 381.256 148.65 381.196 148.86 381.046 149.07 380.896 149.25 380.686 149.34 380.386L148.71 380.086C148.59 380.386 148.38 380.536 148.08 380.536 147.75 380.536 147.57 380.326 147.48 379.906 147.48 379.846 147.45 379.786 147.48 379.726 147.48 379.666 147.48 379.606 147.48 379.546L147.51 379.516C147.6 379.126 147.81 378.916 148.11 378.916 148.26 378.916 148.38 378.946 148.47 379.036 148.59 379.096 148.65 379.216 148.71 379.396L149.37 379.126C149.19 378.496 148.77 378.196 148.14 378.196 147.21 378.226 146.76 378.736 146.73 379.726 146.82 380.746 147.27 381.256 148.08 381.256Z" fill-rule="evenodd"/><path transform="matrix(1,0,0,-1,0,595.276)" d="M150.51 381.016C150.84 381.286 151.29 381.346 151.68 381.166 151.86 381.076 152.01 380.926 152.13 380.746 152.25 380.566 152.28 380.356 152.28 380.176V378.346H151.53V380.026C151.53 380.146 151.47 380.266 151.38 380.356 151.29 380.446 151.14 380.506 151.02 380.506 150.93 380.506 150.78 380.446 150.69 380.356 150.6 380.266 150.54 380.146 150.54 380.026V378.346H149.76V382.246H150.51V381.016Z" fill-rule="evenodd"/><path transform="matrix(1,0,0,-1,0,595.276)" d="M153.9 378.346V381.106H153.18V378.346Z" fill-rule="evenodd"/><path transform="matrix(1,0,0,-1,0,595.276)" d="M153.99 381.856C153.99 382.096 153.78 382.306 153.54 382.306 153.3 382.306 153.12 382.096 153.12 381.856 153.12 381.616 153.3 381.406 153.54 381.406 153.78 381.406 153.99 381.616 153.99 381.856Z" fill-rule="evenodd"/><path transform="matrix(1,0,0,-1,0,595.276)" d="M156.93 379.186C156.93 379.726 156.63 380.056 156 380.146 155.79 380.176 155.64 380.176 155.55 380.236 155.49 380.236 155.46 380.266 155.46 380.296 155.43 380.326 155.4 380.326 155.4 380.386 155.4 380.506 155.55 380.596 155.82 380.626 155.94 380.626 156.06 380.596 156.15 380.536 156.27 380.476 156.36 380.386 156.42 380.296L156.9 380.836C156.69 381.106 156.33 381.286 155.85 381.316 155.07 381.286 154.65 380.956 154.62 380.296 154.65 379.816 154.95 379.516 155.46 379.456 155.88 379.426 156.09 379.336 156.09 379.156 156.09 379.066 156.06 379.036 156.03 378.976 155.97 378.946 155.88 378.916 155.76 378.916 155.61 378.916 155.46 378.946 155.34 379.036 155.19 379.096 155.07 379.186 154.98 379.306L154.44 378.766C154.74 378.406 155.16 378.196 155.76 378.196 156.48 378.196 156.93 378.586 156.93 379.186Z" fill-rule="evenodd"/><path transform="matrix(1,0,0,-1,0,595.276)" d="M159.9 379.456C159.93 380.596 159.48 381.196 158.58 381.256 157.83 381.256 157.41 380.746 157.32 379.756 157.32 379.336 157.44 379.006 157.62 378.736 157.77 378.556 157.95 378.436 158.16 378.346 158.34 378.256 158.55 378.226 158.73 378.196 159.21 378.196 159.69 378.406 159.81 378.706L159.36 379.186C159.3 379.096 159.21 379.036 159.12 378.976 159 378.946 158.85 378.916 158.73 378.916 158.61 378.916 158.46 378.946 158.31 379.066 158.25 379.126 158.22 379.186 158.19 379.246 158.16 379.336 158.13 379.396 158.13 379.456H159.9ZM158.1 380.056V380.056C158.1 380.176 158.16 380.296 158.28 380.416 158.4 380.506 158.52 380.566 158.64 380.566 158.85 380.566 159.09 380.356 159.15 380.116V380.056H158.1Z" fill-rule="evenodd"/><path transform="matrix(1,0,0,-1,0,595.276)" d="M162.33 381.016V382.246H163.08V378.286H162.33V378.406C162.21 378.286 161.97 378.226 161.64 378.196 160.98 378.166 160.44 378.646 160.35 379.576V379.666 379.936 379.996C160.44 380.776 160.92 381.166 161.58 381.226 161.79 381.226 162.06 381.166 162.33 381.016ZM162.33 379.246V379.966C162.33 380.056 162.33 380.116 162.3 380.146 162.27 380.206 162.24 380.266 162.21 380.266 162.18 380.296 162.18 380.296 162.18 380.326 162.06 380.416 161.91 380.476 161.76 380.506 161.34 380.476 161.13 380.206 161.07 379.726 161.1 379.186 161.31 378.916 161.73 378.856 162 378.886 162.21 379.036 162.33 379.246Z" fill-rule="evenodd"/><path transform="matrix(1,0,0,-1,0,595.276)" d="M133.8 372.646C134.46 372.646 134.91 373.216 134.91 374.086 134.91 375.046 134.46 375.676 133.77 375.676 133.5 375.676 133.29 375.586 133.11 375.436V376.666H132.45V372.736H133.14V372.856C133.35 372.706 133.59 372.646 133.8 372.646ZM133.68 373.366C133.38 373.366 133.2 373.516 133.14 373.786V374.596C133.2 374.716 133.29 374.806 133.38 374.866 133.47 374.956 133.56 374.986 133.68 374.986 134.07 374.956 134.25 374.656 134.22 374.146 134.19 373.636 134.01 373.366 133.68 373.366Z" fill-rule="evenodd"/><path transform="matrix(1,0,0,-1,0,595.276)" d="M137.28 375.556H138.06V372.736H137.25V372.886C137.22 372.826 137.16 372.766 137.01 372.706 136.89 372.676 136.71 372.646 136.56 372.646 136.29 372.646 136.02 372.736 135.81 372.916 135.57 373.096 135.48 373.336 135.48 373.546V375.556H136.26V373.846C136.26 373.786 136.26 373.756 136.29 373.696 136.32 373.636 136.35 373.576 136.41 373.546 136.53 373.456 136.65 373.396 136.74 373.396 136.86 373.396 137.01 373.456 137.13 373.576 137.22 373.666 137.28 373.816 137.28 373.936V375.556Z" fill-rule="evenodd"/><path transform="matrix(1,0,0,-1,0,595.276)" d="M141.06 373.636C141.09 374.176 140.79 374.506 140.13 374.596 139.95 374.626 139.8 374.626 139.71 374.656 139.65 374.686 139.62 374.716 139.59 374.746 139.59 374.746 139.56 374.746 139.56 374.776V374.806C139.56 374.956 139.68 375.046 139.95 375.076 140.07 375.046 140.19 375.016 140.31 374.986 140.4 374.926 140.49 374.836 140.58 374.746L141.03 375.286C140.82 375.556 140.49 375.736 139.98 375.766 139.2 375.736 138.78 375.406 138.75 374.746 138.81 374.266 139.08 373.966 139.59 373.906 140.01 373.876 140.22 373.786 140.22 373.606 140.25 373.516 140.22 373.456 140.16 373.426 140.1 373.396 140.04 373.366 139.92 373.366 139.77 373.366 139.62 373.396 139.47 373.456 139.35 373.546 139.23 373.636 139.11 373.756L138.57 373.216C138.87 372.856 139.32 372.646 139.89 372.646 140.25 372.646 140.55 372.736 140.76 372.916 140.97 373.096 141.06 373.336 141.06 373.636Z" fill-rule="evenodd"/><path transform="matrix(1,0,0,-1,0,595.276)" d="M144.06 373.906C144.09 375.046 143.64 375.646 142.74 375.706 141.96 375.706 141.54 375.196 141.48 374.206 141.48 373.786 141.57 373.456 141.78 373.186 141.93 373.006 142.11 372.886 142.29 372.796 142.5 372.706 142.68 372.646 142.89 372.646 143.34 372.616 143.82 372.856 143.97 373.156L143.52 373.636C143.46 373.546 143.37 373.486 143.25 373.426 143.13 373.396 143.01 373.366 142.89 373.366 142.74 373.336 142.59 373.396 142.47 373.516 142.41 373.546 142.35 373.636 142.32 373.696 142.29 373.756 142.29 373.846 142.29 373.906H144.06ZM142.23 374.476V374.506C142.26 374.626 142.32 374.746 142.41 374.866 142.53 374.956 142.65 375.016 142.77 375.016 143.01 375.016 143.25 374.806 143.31 374.566V374.506 374.476H142.23Z" fill-rule="evenodd"/><path transform="matrix(1,0,0,-1,0,595.276)" d="M146.91 373.636C146.94 374.176 146.64 374.506 146.01 374.596 145.8 374.626 145.65 374.626 145.56 374.656 145.5 374.686 145.47 374.716 145.44 374.746L145.41 374.776V374.806C145.41 374.956 145.53 375.046 145.8 375.076 145.95 375.046 146.07 375.016 146.16 374.986 146.28 374.926 146.34 374.836 146.43 374.746L146.88 375.286C146.67 375.556 146.34 375.736 145.86 375.766 145.05 375.736 144.66 375.406 144.63 374.746 144.66 374.266 144.96 373.966 145.47 373.906 145.89 373.876 146.1 373.786 146.1 373.606 146.1 373.516 146.07 373.456 146.01 373.426 145.98 373.396 145.89 373.366 145.77 373.366 145.62 373.366 145.47 373.396 145.35 373.456 145.2 373.546 145.08 373.636 144.96 373.756L144.45 373.216C144.75 372.856 145.17 372.646 145.74 372.646 146.49 372.646 146.91 373.006 146.91 373.636Z" fill-rule="evenodd"/><path transform="matrix(1,0,0,-1,0,595.276)" d="M117.75 368.806H120.24V368.536H118.65V366.706H120.24V366.376L118.08 366.256 118.14 365.806 118.2 365.716 118.26 365.656 118.32 365.686 118.44 365.806 121.35 366.046V365.536H117.72V365.026H119.31L119.61 364.666 119.85 364.246 120.3 364.546 119.94 365.026H121.35V364.786 364.636L121.32 364.546 121.2 364.486H121.05 120.45L120.66 363.946H121.17L121.56 363.976 121.83 364.126 121.95 364.366V364.726 365.026H123.42V365.536H121.95V366.076L122.34 366.136 122.76 365.686 123.21 365.986 122.4 366.736V368.536H120.84V368.806H123.42V369.256H120.84V369.436L120.93 369.526V369.586L120.84 369.646 120.69 369.676 120.24 369.706V369.256H117.75V368.806ZM120.84 366.436V366.706H121.71L121.98 366.496 120.84 366.436ZM120.84 367.816V368.116H121.83V367.816H120.84ZM120.84 367.126V367.456H121.83V367.126H120.84ZM119.22 367.816V368.116H120.24V367.816H119.22ZM119.22 367.126V367.456H120.24V367.126H119.22Z" fill-rule="evenodd"/><path transform="matrix(1,0,0,-1,0,595.276)" d="M125.58 369.106 125.94 368.566 126.9 368.746V367.936H125.49V367.366H126.78L126.48 366.826 126.12 366.316 125.73 365.866 125.28 365.416 125.91 364.966 126.42 365.716 126.9 366.526V364.036H127.47V366.376L128.22 365.446 128.73 365.806 128.34 366.136 128.01 366.526 127.74 366.916 127.5 367.366H128.55V367.936H127.47V368.926L127.83 369.046 128.19 369.106H128.34L128.43 369.136V369.196L128.4 369.286 127.98 369.676 127.38 369.466 126.81 369.286 126.18 369.166Z" fill-rule="evenodd"/><path transform="matrix(1,0,0,-1,0,595.276)" d="M129.03 365.266H129.6V368.716L129.69 368.836V368.896L129.6 368.956 129.42 368.986 129.03 369.016Z" fill-rule="evenodd"/><path transform="matrix(1,0,0,-1,0,595.276)" d="M129.36 364.636 129.57 364.066 130.14 364.096 130.5 364.186 130.77 364.336 130.89 364.606 130.92 364.966V369.196L131.01 369.346 131.04 369.436 130.98 369.496 130.8 369.526 130.35 369.616V365.146 364.936L130.29 364.786 130.2 364.666 130.02 364.636Z" fill-rule="evenodd"/><path transform="matrix(1,0,0,-1,0,595.276)" d="M133.23 369.466V364.816L133.26 364.486 133.38 364.276 133.59 364.156 133.92 364.126H137.46 137.73L137.97 364.186 138.18 364.306 138.33 364.456 138.48 364.636 138.57 364.876 138.66 365.146 138.69 365.476 138.09 365.656 138 365.206 137.85 364.906 137.64 364.726 137.34 364.696H134.19 134.04L133.95 364.756 133.89 364.876 133.86 365.026V366.916H137.37V366.586H137.97V369.466H133.23ZM133.86 367.516V368.926H135.24V367.516H133.86ZM135.81 367.516V368.926H137.37V367.516H135.81Z" fill-rule="evenodd"/><path transform="matrix(1,0,0,-1,0,595.276)" d="M143.73 369.646 143.22 369.676V367.816H140.7V367.246H143.22V364.996H141.09V364.426H146.01V364.996H143.85V367.246H146.4V367.816H143.85V369.406L144.03 369.496 144.06 369.586 143.94 369.616Z" fill-rule="evenodd"/><path transform="matrix(1,0,0,-1,0,595.276)" d="M148.17 367.186 148.62 366.766 148.95 367.276V364.036H149.52V368.296L150 369.316V368.836H150.57L150.45 368.056 150.27 367.366 150.03 366.736 149.7 366.226 150.21 365.806 150.45 366.286 151.08 365.836 150.81 365.446 150.48 365.116 150.12 364.846 149.7 364.636 150.09 364.186 150.57 364.426 150.99 364.726 151.32 365.116 151.62 365.536 151.83 366.046 151.95 366.616 152.04 367.246V367.966H150.99L151.14 368.836H152.1V369.346H150.09L150.12 369.466 150 369.496 149.52 369.736 149.25 369.016 148.92 368.356 148.56 367.726 148.17 367.186ZM150.87 367.426H151.5L151.32 366.376 150.63 366.766 150.87 367.426Z" fill-rule="evenodd"/><path transform="matrix(1,0,0,-1,0,595.276)" d="M152.37 368.926V365.266H152.94V368.686L153 368.806 152.91 368.896Z" fill-rule="evenodd"/><path transform="matrix(1,0,0,-1,0,595.276)" d="M153.42 369.676V365.086L153.39 364.846 153.33 364.696 153.21 364.606 153.06 364.576H152.52L152.76 364.036 153.45 364.096 153.66 364.186 153.84 364.336 153.93 364.546 153.96 364.846V369.376L154.05 369.436 154.08 369.496 154.05 369.556 153.96 369.646Z" fill-rule="evenodd"/><path transform="matrix(1,0,0,-1,0,595.276)" d="M157.71 369.646 157.32 369.736 157.17 368.896 156.9 368.146 156.48 367.456 155.97 366.856 156.48 366.406 157.08 367.216 157.5 368.056H158.43L158.28 367.336 158.07 366.646 157.38 367.126 156.96 366.706 157.41 366.406 157.83 366.106 157.56 365.626 157.14 365.236 156.63 364.876 156.03 364.636 156.48 364.066 156.96 364.246 157.38 364.546 157.8 364.936 158.16 365.416 158.49 366.016 158.76 366.706 159 367.516 159.21 368.416 158.79 368.746 158.61 368.626H157.68L157.86 369.316 158.04 369.436 158.07 369.526 157.95 369.616Z" fill-rule="evenodd"/><path transform="matrix(1,0,0,-1,0,595.276)" d="M160.32 369.646 159.96 369.706V367.276L159.57 367.726 159.18 367.396 159.57 366.886 159.96 366.496V364.006H160.59V366.016L161.4 365.536 161.91 366.166 161.16 366.436 160.59 366.796V369.376L160.74 369.496V369.586L160.59 369.616Z" fill-rule="evenodd"/></g></svg>