<?xml version='1.0' encoding='UTF-8'?>
<svg xmlns="http://www.w3.org/2000/svg" xmlns:xlink="http://www.w3.org/1999/xlink" xmlns:inkscape="http://www.inkscape.org/namespaces/inkscape" version="1.1" width="567.000" height="269.280" viewBox="0 0 567.000 269.280"><g transform="scale(10.0) translate(-220.305, -289.584)"><defs><clipPath id="clip_14"><path transform="matrix(1,0,0,-1,0,595.276)" d="M74.37 .046H767.49V595.276H74.37Z"/></clipPath></defs><path transform="matrix(1,0,0,-1,0,595.276)" d="M275.13 297.076C275.13 297.136 275.1 297.166 275.07 297.166 275.01 297.166 274.98 297.136 274.98 297.076 274.98 297.046 275.01 297.016 275.07 297.016 275.1 297.016 275.13 297.046 275.13 297.076Z" fill-rule="evenodd"/><path transform="matrix(1,0,0,-1,0,595.276)" d="M222.93 304.456H274.56C274.8 304.456 275.07 304.366 275.25 304.156 275.46 303.946 275.55 303.706 275.55 303.466V280.546C275.55 280.426 275.55 280.306 275.49 280.186 275.43 280.066 275.37 279.946 275.25 279.856 275.16 279.736 275.04 279.676 274.92 279.616 274.8 279.586 274.68 279.556 274.56 279.556H222.93C222.69 279.556 222.42 279.646 222.24 279.856 222.03 280.036 221.94 280.306 221.94 280.546V303.466C221.94 303.706 222.03 303.946 222.24 304.156 222.42 304.366 222.69 304.456 222.93 304.456ZM222.93 303.946C222.81 303.946 222.69 303.916 222.57 303.796 222.48 303.706 222.42 303.586 222.42 303.466V280.546C222.42 280.486 222.45 280.426 222.48 280.366 222.48 280.306 222.54 280.246 222.57 280.186 222.69 280.096 222.81 280.066 222.93 280.066H274.56C274.62 280.066 274.68 280.066 274.74 280.096 274.8 280.126 274.86 280.156 274.92 280.186 275.01 280.306 275.07 280.426 275.07 280.546V303.466C275.07 303.586 275.01 303.706 274.92 303.796 274.8 303.916 274.68 303.946 274.56 303.946H222.93Z" fill-rule="evenodd"/><path transform="matrix(1,0,0,-1,0,595.276)" d="M222.93 303.946H274.56C274.68 303.946 274.8 303.916 274.92 303.796 275.01 303.706 275.07 303.586 275.07 303.466V280.546C275.07 280.486 275.04 280.426 275.01 280.366 275.01 280.306 274.95 280.246 274.92 280.186 274.86 280.156 274.8 280.126 274.74 280.096 274.68 280.066 274.62 280.066 274.56 280.066H222.93C222.81 280.066 222.69 280.096 222.57 280.186 222.48 280.306 222.42 280.426 222.42 280.546V303.466C222.42 303.586 222.48 303.706 222.57 303.796 222.69 303.916 222.81 303.946 222.93 303.946Z" fill="#ffffff" fill-rule="evenodd"/><path transform="matrix(1,0,0,-1,0,595.276)" d="M227.22 297.976H228.78V298.756H227.22V299.536H228.93V300.316H226.38V296.416H229.14V297.196H227.22Z" fill-rule="evenodd"/><path transform="matrix(1,0,0,-1,0,595.276)" d="M231.51 299.206H232.35L231.54 297.826 232.44 296.416H231.57L231.09 297.256 230.61 296.416H229.74L230.64 297.826 229.86 299.206H230.67L231.09 298.396Z" fill-rule="evenodd"/><path transform="matrix(1,0,0,-1,0,595.276)" d="M234.18 299.326C234.51 299.326 234.78 299.266 234.99 299.116 235.2 298.966 235.35 298.756 235.47 298.456L234.84 298.186C234.69 298.486 234.51 298.636 234.21 298.606 233.88 298.606 233.67 298.396 233.61 297.976 233.58 297.916 233.58 297.856 233.58 297.826 233.58 297.766 233.61 297.676 233.61 297.646V297.586C233.73 297.196 233.94 296.986 234.24 296.986 234.39 296.986 234.51 297.016 234.6 297.106 234.69 297.166 234.78 297.316 234.84 297.466L235.47 297.196C235.29 296.566 234.9 296.266 234.27 296.266 233.34 296.296 232.86 296.806 232.83 297.826 232.92 298.816 233.37 299.326 234.18 299.326Z" fill-rule="evenodd"/><path transform="matrix(1,0,0,-1,0,595.276)" d="M238.41 297.526C238.44 298.666 237.99 299.296 237.09 299.326 236.34 299.326 235.89 298.816 235.83 297.826 235.83 297.406 235.92 297.076 236.13 296.806 236.28 296.626 236.46 296.506 236.64 296.416 236.85 296.326 237.06 296.296 237.24 296.266 237.69 296.266 238.2 296.476 238.32 296.776L237.87 297.256C237.81 297.166 237.72 297.106 237.6 297.076 237.48 297.016 237.36 296.986 237.24 296.986 237.09 296.986 236.94 297.016 236.82 297.136 236.76 297.196 236.7 297.256 236.67 297.316 236.64 297.406 236.64 297.466 236.64 297.526H238.41ZM236.61 298.126V298.126C236.61 298.246 236.67 298.366 236.79 298.486 236.88 298.576 237.03 298.636 237.12 298.636 237.36 298.636 237.6 298.426 237.66 298.186V298.126H236.61Z" fill-rule="evenodd"/><path transform="matrix(1,0,0,-1,0,595.276)" d="M241.74 297.826C241.74 298.786 241.26 299.326 240.42 299.326 240.3 299.326 240.12 299.326 239.97 299.266 239.85 299.236 239.76 299.176 239.73 299.116V299.236H239.01V295.456H239.79V296.536C239.85 296.386 240.15 296.266 240.45 296.266 240.81 296.266 241.14 296.416 241.38 296.716 241.62 296.986 241.74 297.406 241.74 297.826ZM240.33 297.016C240.21 297.016 240.09 297.076 239.97 297.166 239.91 297.226 239.85 297.256 239.82 297.316 239.79 297.376 239.79 297.436 239.79 297.496V298.246C239.79 298.426 240.03 298.636 240.3 298.636H240.33 240.36C240.45 298.666 240.57 298.636 240.69 298.576 240.81 298.486 240.9 298.396 240.93 298.276V298.246L240.96 298.156V298.126 297.526L240.93 297.436V297.406C240.9 297.286 240.81 297.166 240.69 297.106 240.54 297.016 240.42 297.016 240.33 297.016Z" fill-rule="evenodd"/><path transform="matrix(1,0,0,-1,0,595.276)" d="M243.33 299.206H244.05V298.546H243.33V297.286C243.33 297.196 243.36 297.136 243.42 297.076 243.45 297.016 243.54 296.986 243.63 296.986 243.66 296.986 243.72 296.986 243.81 296.986 243.87 297.016 243.93 297.016 244.02 297.046L244.14 296.416C244.02 296.326 243.75 296.266 243.33 296.266 243.12 296.266 242.94 296.326 242.79 296.446 242.67 296.566 242.61 296.746 242.58 296.986V298.546H242.1V299.206H242.58V300.076L243.33 300.316V299.206Z" fill-rule="evenodd"/><path transform="matrix(1,0,0,-1,0,595.276)" d="M247.41 296.266C247.71 296.266 247.98 296.416 248.19 296.686 248.4 296.956 248.49 297.316 248.49 297.706 248.49 298.186 248.4 298.576 248.19 298.876 247.98 299.146 247.68 299.296 247.35 299.296 247.08 299.296 246.87 299.236 246.69 299.056V300.316H246.03V296.356H246.72V296.506C246.93 296.326 247.17 296.266 247.41 296.266ZM247.26 296.986C246.99 296.986 246.81 297.136 246.72 297.406V298.216C246.78 298.336 246.87 298.426 246.96 298.516 247.05 298.576 247.14 298.606 247.26 298.606 247.65 298.576 247.83 298.276 247.83 297.766 247.8 297.256 247.59 296.986 247.26 296.986Z" fill-rule="evenodd"/><path transform="matrix(1,0,0,-1,0,595.276)" d="M250.86 299.206H251.64V296.356H250.83V296.506C250.8 296.446 250.74 296.386 250.59 296.356 250.47 296.296 250.29 296.266 250.14 296.266 249.87 296.266 249.6 296.356 249.39 296.536 249.15 296.716 249.06 296.956 249.06 297.196V299.206H249.84V297.466C249.84 297.436 249.87 297.376 249.87 297.316 249.9 297.256 249.96 297.226 249.99 297.166 250.11 297.076 250.23 297.016 250.32 297.016 250.44 297.016 250.59 297.076 250.71 297.196 250.83 297.286 250.86 297.436 250.86 297.556V299.206Z" fill-rule="evenodd"/><path transform="matrix(1,0,0,-1,0,595.276)" d="M254.64 297.256C254.67 297.826 254.37 298.126 253.71 298.246 253.53 298.246 253.38 298.246 253.29 298.306 253.23 298.306 253.2 298.336 253.17 298.366 253.14 298.396 253.14 298.426 253.14 298.456 253.14 298.576 253.26 298.666 253.53 298.696 253.68 298.696 253.8 298.666 253.89 298.606 253.98 298.546 254.07 298.486 254.16 298.366L254.61 298.906C254.4 299.206 254.07 299.356 253.56 299.386 252.78 299.356 252.36 299.026 252.33 298.366 252.39 297.886 252.66 297.586 253.17 297.526 253.59 297.496 253.83 297.406 253.83 297.226 253.83 297.166 253.8 297.106 253.74 297.046 253.68 297.016 253.62 296.986 253.5 296.986 253.35 296.986 253.2 297.016 253.05 297.106 252.93 297.166 252.81 297.256 252.69 297.376L252.15 296.836C252.45 296.476 252.9 296.266 253.47 296.266 253.83 296.266 254.13 296.356 254.34 296.536 254.55 296.716 254.64 296.956 254.64 297.256Z" fill-rule="evenodd"/><path transform="matrix(1,0,0,-1,0,595.276)" d="M257.64 297.526C257.67 298.666 257.22 299.296 256.32 299.326 255.54 299.326 255.12 298.816 255.06 297.826 255.06 297.406 255.15 297.076 255.36 296.806 255.51 296.626 255.69 296.506 255.87 296.416 256.08 296.326 256.29 296.296 256.47 296.266 256.92 296.266 257.43 296.476 257.55 296.776L257.1 297.256C257.04 297.166 256.95 297.106 256.83 297.076 256.71 297.016 256.59 296.986 256.47 296.986 256.32 296.986 256.17 297.016 256.05 297.136 255.99 297.196 255.93 297.256 255.9 297.316 255.87 297.406 255.87 297.466 255.87 297.526H257.64ZM255.84 298.126V298.126C255.84 298.246 255.9 298.366 255.99 298.486 256.11 298.576 256.23 298.636 256.35 298.636 256.59 298.636 256.83 298.426 256.89 298.186V298.126H255.84Z" fill-rule="evenodd"/><path transform="matrix(1,0,0,-1,0,595.276)" d="M260.52 297.256C260.52 297.826 260.22 298.126 259.59 298.246 259.38 298.246 259.23 298.246 259.14 298.306 259.08 298.306 259.05 298.336 259.02 298.366V298.396C258.99 298.426 258.99 298.426 258.99 298.456 258.99 298.576 259.14 298.666 259.41 298.696 259.53 298.696 259.65 298.666 259.74 298.606 259.86 298.546 259.95 298.486 260.01 298.366L260.46 298.906C260.28 299.206 259.92 299.356 259.44 299.386 258.63 299.356 258.24 299.026 258.21 298.366 258.24 297.886 258.54 297.586 259.05 297.526 259.47 297.496 259.68 297.406 259.68 297.226 259.68 297.166 259.65 297.106 259.59 297.046 259.56 297.016 259.47 296.986 259.35 296.986 259.2 296.986 259.05 297.016 258.93 297.106 258.78 297.166 258.66 297.256 258.54 297.376L258.03 296.836C258.33 296.476 258.75 296.266 259.32 296.266 259.68 296.266 259.98 296.356 260.19 296.536 260.4 296.716 260.52 296.956 260.52 297.256Z" fill-rule="evenodd"/><path transform="matrix(1,0,0,-1,0,595.276)" d="M258.36 290.716C258.69 290.716 258.96 290.836 259.17 291.106 259.38 291.376 259.47 291.766 259.47 292.156 259.47 293.146 259.02 293.746 258.33 293.746 258.06 293.746 257.85 293.656 257.67 293.506V294.736H257.01V290.806H257.7V290.956C257.91 290.776 258.12 290.716 258.36 290.716ZM258.24 291.436C257.94 291.436 257.76 291.586 257.7 291.856V292.666C257.76 292.786 257.85 292.876 257.94 292.936 258.03 293.026 258.12 293.056 258.24 293.056 258.6 293.026 258.81 292.726 258.78 292.216 258.75 291.706 258.57 291.436 258.24 291.436Z" fill-rule="evenodd"/><path transform="matrix(1,0,0,-1,0,595.276)" d="M261.84 293.626H262.62V290.806H261.78V290.956C261.78 290.896 261.72 290.836 261.57 290.776 261.42 290.746 261.27 290.716 261.12 290.716 260.85 290.716 260.58 290.806 260.34 290.986 260.13 291.166 260.04 291.406 260.04 291.616V293.626H260.82V291.916C260.82 291.886 260.82 291.826 260.85 291.766 260.88 291.706 260.91 291.646 260.97 291.616 261.09 291.526 261.21 291.466 261.3 291.466 261.42 291.466 261.57 291.526 261.69 291.646 261.78 291.736 261.84 291.886 261.84 292.006V293.626Z" fill-rule="evenodd"/><path transform="matrix(1,0,0,-1,0,595.276)" d="M265.62 291.706C265.65 292.246 265.32 292.576 264.69 292.666 264.51 292.696 264.36 292.696 264.24 292.726 264.21 292.756 264.18 292.786 264.15 292.816 264.12 292.816 264.12 292.846 264.12 292.906 264.12 293.026 264.24 293.116 264.51 293.146 264.63 293.146 264.75 293.116 264.87 293.056 264.96 292.996 265.05 292.906 265.11 292.816L265.59 293.356C265.38 293.626 265.02 293.806 264.54 293.836 263.76 293.806 263.34 293.476 263.31 292.816 263.37 292.336 263.64 292.036 264.15 291.976 264.57 291.946 264.78 291.856 264.78 291.676 264.81 291.586 264.78 291.556 264.72 291.496 264.66 291.466 264.57 291.436 264.48 291.436 264.33 291.436 264.18 291.466 264.03 291.526 263.91 291.616 263.79 291.706 263.67 291.826L263.13 291.286C263.43 290.926 263.88 290.716 264.45 290.716 264.81 290.716 265.11 290.806 265.32 290.986 265.53 291.166 265.62 291.406 265.62 291.706Z" fill-rule="evenodd"/><path transform="matrix(1,0,0,-1,0,595.276)" d="M268.59 291.976C268.62 293.116 268.2 293.716 267.3 293.776 266.52 293.776 266.1 293.266 266.01 292.276 266.01 291.856 266.13 291.526 266.34 291.256 266.46 291.076 266.64 290.956 266.85 290.866 267.06 290.776 267.24 290.746 267.45 290.716 267.9 290.716 268.38 290.926 268.53 291.226L268.05 291.706C268.02 291.616 267.93 291.556 267.81 291.496 267.69 291.466 267.57 291.436 267.45 291.436 267.3 291.436 267.15 291.466 267.03 291.586 266.97 291.646 266.91 291.706 266.88 291.766 266.85 291.856 266.85 291.916 266.85 291.976H268.59ZM266.79 292.576V292.576C266.82 292.696 266.88 292.816 266.97 292.936 267.09 293.026 267.21 293.086 267.33 293.086 267.54 293.086 267.81 292.876 267.84 292.636H267.87V292.576H266.79Z" fill-rule="evenodd"/><path transform="matrix(1,0,0,-1,0,595.276)" d="M271.47 291.706C271.5 292.246 271.2 292.576 270.54 292.666 270.36 292.696 270.21 292.696 270.12 292.726 270.06 292.756 270.03 292.786 270 292.816 269.97 292.816 269.97 292.846 269.97 292.906 269.97 293.026 270.09 293.116 270.36 293.146 270.51 293.146 270.63 293.116 270.72 293.056 270.81 292.996 270.9 292.906 270.99 292.816L271.44 293.356C271.23 293.626 270.9 293.806 270.39 293.836 269.61 293.806 269.22 293.476 269.19 292.816 269.22 292.336 269.49 292.036 270.03 291.976 270.45 291.946 270.66 291.856 270.66 291.676 270.66 291.586 270.63 291.556 270.57 291.496 270.51 291.466 270.45 291.436 270.33 291.436 270.18 291.436 270.03 291.466 269.88 291.526 269.76 291.616 269.64 291.706 269.52 291.826L269.01 291.286C269.28 290.926 269.73 290.716 270.3 290.716 270.66 290.716 270.96 290.806 271.17 290.986 271.38 291.166 271.47 291.406 271.47 291.706Z" fill-rule="evenodd"/><path transform="matrix(1,0,0,-1,0,595.276)" d="M263.88 298.216V298.336C263.91 298.456 263.88 298.516 263.82 298.576 263.76 298.636 263.67 298.636 263.55 298.636 263.22 298.666 262.92 298.546 262.68 298.336L262.32 298.906C262.47 299.056 262.62 299.146 262.83 299.236 263.04 299.296 263.28 299.356 263.52 299.326 264.24 299.356 264.66 299.086 264.72 298.516V297.076C264.72 297.016 264.75 296.956 264.78 296.926 264.84 296.896 264.9 296.896 264.99 296.896L264.81 296.326C264.6 296.296 264.42 296.326 264.3 296.386 264.18 296.416 264.12 296.506 264.06 296.596 264 296.446 263.64 296.296 263.37 296.266 262.65 296.266 262.26 296.656 262.26 297.286 262.26 297.616 262.38 297.826 262.65 297.976 262.95 298.126 263.34 298.216 263.88 298.216ZM263.07 297.256C263.07 297.226 263.07 297.166 263.1 297.136 263.1 297.076 263.13 297.046 263.16 297.016 263.25 296.956 263.37 296.956 263.52 296.956 263.7 296.986 263.85 297.046 263.88 297.136V297.616C263.61 297.616 263.43 297.586 263.28 297.526 263.13 297.466 263.07 297.376 263.07 297.256Z" fill-rule="evenodd"/><path transform="matrix(1,0,0,-1,0,595.276)" d="M267.99 296.416V298.336 298.366 298.396C267.96 299.026 267.6 299.326 266.88 299.326 266.76 299.326 266.61 299.296 266.52 299.266 266.4 299.236 266.31 299.146 266.22 299.056V299.266H265.44V296.416H266.22V298.126 298.156C266.28 298.426 266.46 298.606 266.76 298.636 267.03 298.606 267.18 298.426 267.18 298.156V298.126 298.096 298.066 296.416H267.99Z" fill-rule="evenodd"/><path transform="matrix(1,0,0,-1,0,595.276)" d="M270.6 299.086V300.316H271.35V296.356H270.57V296.476C270.45 296.356 270.24 296.296 269.91 296.266 269.25 296.236 268.71 296.716 268.59 297.646V297.736 298.006 298.066C268.68 298.846 269.19 299.236 269.85 299.296 270.06 299.296 270.3 299.236 270.6 299.086ZM270.57 297.346V298.036C270.57 298.126 270.57 298.186 270.57 298.216 270.54 298.276 270.51 298.336 270.48 298.366 270.45 298.366 270.45 298.396 270.45 298.396 270.33 298.486 270.18 298.546 270 298.576 269.61 298.546 269.37 298.276 269.34 297.796 269.34 297.256 269.58 296.986 270 296.926 270.27 296.956 270.48 297.106 270.57 297.346Z" fill-rule="evenodd"/><path transform="matrix(1,0,0,-1,0,595.276)" d="M228.87 292.276C228.87 292.726 228.78 293.116 228.54 293.386 228.3 293.656 227.97 293.776 227.58 293.776 227.43 293.776 227.28 293.746 227.13 293.716 226.98 293.686 226.89 293.626 226.89 293.566H226.86V293.686H226.17V289.876H226.95V290.956C226.98 290.836 227.31 290.716 227.61 290.716 227.97 290.716 228.3 290.866 228.54 291.166 228.78 291.436 228.87 291.856 228.87 292.276ZM227.49 291.466C227.37 291.466 227.22 291.496 227.1 291.616 226.98 291.706 226.95 291.826 226.95 291.946V292.696C226.95 292.876 227.19 293.086 227.46 293.086H227.49 227.52C227.58 293.116 227.7 293.086 227.82 293.026 227.94 292.936 228.03 292.816 228.09 292.726V292.696 292.606L228.12 292.576V291.976H228.09V291.886 291.856C228.06 291.736 227.97 291.616 227.82 291.556 227.7 291.466 227.58 291.466 227.49 291.466Z" fill-rule="evenodd"/><path transform="matrix(1,0,0,-1,0,595.276)" d="M231.3 293.626H232.08V290.806H231.27V290.956C231.27 290.896 231.18 290.836 231.06 290.776 230.91 290.746 230.73 290.716 230.58 290.716 230.31 290.716 230.04 290.806 229.83 290.986 229.62 291.166 229.53 291.406 229.53 291.616V293.626H230.28V291.916C230.28 291.886 230.31 291.826 230.34 291.766 230.34 291.706 230.4 291.646 230.43 291.616 230.55 291.526 230.67 291.466 230.76 291.466 230.91 291.466 231.03 291.526 231.15 291.646 231.27 291.736 231.3 291.886 231.3 292.006V293.626Z" fill-rule="evenodd"/><path transform="matrix(1,0,0,-1,0,595.276)" d="M234.15 290.716C234.81 290.716 235.26 291.286 235.26 292.156 235.26 292.606 235.17 293.026 234.96 293.326 234.75 293.596 234.45 293.746 234.12 293.746 233.85 293.746 233.64 293.656 233.46 293.506V294.736H232.8V290.806H233.49V290.956C233.7 290.776 233.94 290.716 234.15 290.716ZM234.03 291.436C233.73 291.436 233.55 291.586 233.49 291.856V292.666C233.55 292.786 233.64 292.876 233.73 292.936 233.82 293.026 233.91 293.056 234.03 293.056 234.42 293.026 234.6 292.726 234.57 292.216 234.54 291.706 234.36 291.436 234.03 291.436Z" fill-rule="evenodd"/><path transform="matrix(1,0,0,-1,0,595.276)" d="M254.31 293.626H255V292.966H254.31V291.736C254.31 291.646 254.34 291.586 254.37 291.526 254.43 291.466 254.49 291.436 254.61 291.436 254.64 291.436 254.7 291.436 254.76 291.436 254.85 291.466 254.91 291.466 255 291.496L255.12 290.866C255 290.746 254.7 290.716 254.31 290.716 254.07 290.716 253.89 290.776 253.77 290.896 253.65 291.016 253.56 291.196 253.56 291.436V292.966H253.08V293.626H253.56V294.526L254.31 294.766V293.626Z" fill-rule="evenodd"/><path transform="matrix(1,0,0,-1,0,595.276)" d="M246.03 290.866V293.626H245.31V290.866Z" fill-rule="evenodd"/><path transform="matrix(1,0,0,-1,0,595.276)" d="M246.12 294.376C246.12 294.616 245.91 294.826 245.67 294.826 245.43 294.826 245.22 294.616 245.22 294.376 245.22 294.136 245.43 293.926 245.67 293.926 245.91 293.926 246.12 294.136 246.12 294.376Z" fill-rule="evenodd"/><path transform="matrix(1,0,0,-1,0,595.276)" d="M238.38 290.866V293.626H237.63V290.866Z" fill-rule="evenodd"/><path transform="matrix(1,0,0,-1,0,595.276)" d="M238.44 294.376C238.44 294.616 238.26 294.826 237.99 294.826 237.75 294.826 237.57 294.616 237.57 294.376 237.57 294.136 237.75 293.926 237.99 293.926 238.26 293.926 238.44 294.136 238.44 294.376Z" fill-rule="evenodd"/><path transform="matrix(1,0,0,-1,0,595.276)" d="M240.33 293.776C240.66 293.776 240.93 293.716 241.14 293.566 241.35 293.416 241.5 293.206 241.62 292.906L240.96 292.606C240.84 292.906 240.63 293.056 240.36 293.056 240.03 293.056 239.82 292.846 239.76 292.426 239.73 292.366 239.73 292.306 239.73 292.246 239.73 292.186 239.76 292.126 239.76 292.066V292.036C239.88 291.646 240.09 291.436 240.39 291.436 240.54 291.436 240.66 291.466 240.75 291.556 240.84 291.616 240.93 291.736 240.96 291.916L241.62 291.646C241.44 291.016 241.05 290.716 240.42 290.716 239.49 290.746 239.01 291.256 238.98 292.246 239.07 293.266 239.52 293.776 240.33 293.776Z" fill-rule="evenodd"/><path transform="matrix(1,0,0,-1,0,595.276)" d="M250.71 293.536C251.04 293.806 251.49 293.866 251.88 293.686 252.06 293.596 252.21 293.446 252.33 293.266 252.45 293.086 252.48 292.876 252.48 292.696V290.866H251.7V292.546C251.7 292.606 251.7 292.666 251.67 292.726 251.67 292.786 251.61 292.846 251.58 292.876 251.46 292.966 251.34 293.026 251.22 293.026 251.1 293.026 250.98 292.966 250.89 292.876 250.8 292.786 250.74 292.666 250.74 292.546V290.866H249.96V294.736H250.71V293.536Z" fill-rule="evenodd"/><path transform="matrix(1,0,0,-1,0,595.276)" d="M236.52 294.736V291.706 291.676 291.586 291.556C236.55 291.496 236.73 291.496 237.03 291.556L237.12 290.866C237.12 290.866 237.09 290.836 237.06 290.836 237.03 290.836 237 290.806 236.94 290.806 236.79 290.776 236.64 290.776 236.52 290.776 236.13 290.776 235.83 290.986 235.77 291.286 235.77 291.346 235.74 291.376 235.74 291.406 235.74 291.406 235.74 291.436 235.74 291.466V294.736H236.52Z" fill-rule="evenodd"/><path transform="matrix(1,0,0,-1,0,595.276)" d="M244.17 294.736V291.706 291.676 291.586 291.556C244.2 291.496 244.38 291.496 244.68 291.556L244.77 290.866C244.77 290.866 244.77 290.836 244.74 290.836 244.71 290.836 244.65 290.806 244.59 290.806 244.47 290.776 244.32 290.776 244.17 290.776 243.81 290.776 243.48 290.986 243.42 291.286 243.42 291.346 243.42 291.376 243.42 291.406 243.42 291.406 243.42 291.436 243.42 291.466V294.736H244.17Z" fill-rule="evenodd"/><path transform="matrix(1,0,0,-1,0,595.276)" d="M249.27 290.716V293.626H248.49V293.536C248.49 293.656 248.22 293.776 247.86 293.776 247.05 293.746 246.63 293.206 246.63 292.246 246.72 291.406 247.14 290.956 247.86 290.926 247.98 290.926 248.13 290.956 248.25 290.986 248.37 291.046 248.43 291.076 248.46 291.136V290.986C248.43 290.716 248.28 290.566 248.04 290.566 247.92 290.536 247.77 290.566 247.59 290.626 247.41 290.656 247.23 290.746 246.99 290.866L246.63 290.236C246.93 289.996 247.47 289.846 247.95 289.816 248.73 289.786 249.21 290.116 249.27 290.716ZM248.46 292.636V292.006C248.43 291.886 248.37 291.796 248.31 291.736 248.22 291.676 248.13 291.616 248.01 291.616 247.65 291.616 247.44 291.886 247.41 292.336 247.44 292.726 247.62 292.996 247.98 293.026 248.25 292.996 248.43 292.846 248.46 292.636Z" fill-rule="evenodd"/><path transform="matrix(1,0,0,-1,0,595.276)" d="M224.76 288.076V284.686L224.79 284.476 224.88 284.296 225.03 284.206H225.27 227.82 228.03L228.21 284.236 228.33 284.326 228.45 284.446 228.57 284.566 228.63 284.746 228.69 284.956 228.72 285.166 228.27 285.316 228.24 284.986 228.12 284.776 227.94 284.656 227.73 284.596H225.45L225.36 284.626 225.27 284.656 225.24 284.746V284.836 286.246H227.76V285.976H228.18V288.076H224.76ZM225.24 286.666V287.656H226.23V286.666H225.24ZM226.65 286.666V287.656H227.76V286.666H226.65Z" fill-rule="evenodd"/><path transform="matrix(1,0,0,-1,0,595.276)" d="M232.35 288.226H232.02V286.876H230.19V286.456H232.02V284.836H230.46V284.416H234V284.836H232.47V286.456H234.3V286.876H232.47V288.016L232.59 288.106V288.136L232.53 288.196Z" fill-rule="evenodd"/><path transform="matrix(1,0,0,-1,0,595.276)" d="M236.1 287.986V287.626H236.88V287.056L236.85 286.546 236.76 286.066 236.64 285.646 236.46 285.286 236.25 284.956 235.98 284.686 235.68 284.446 236.07 284.116 236.46 284.506 236.76 284.986 237 285.466 237.15 286.006 237.3 285.676 237.48 285.406 237.69 285.166 237.93 284.956 237.36 284.656 236.76 284.506 237.09 284.116 237.69 284.386 238.26 284.686 238.83 284.386 239.46 284.116 239.85 284.536 239.19 284.716 238.56 284.986 238.83 285.406 239.1 285.826 239.28 286.276 239.46 286.786 239.07 286.996 239.01 286.876H238.5L239.01 287.866 238.59 288.106 238.53 287.986H236.1ZM237.3 287.626H238.35L237.84 286.426 238.23 286.306 238.35 286.516H238.89L238.77 286.126 238.62 285.796 238.44 285.496 238.2 285.226 237.87 285.526 237.63 285.856 237.45 286.186 237.33 286.516 237.3 287.626Z" fill-rule="evenodd"/><path transform="matrix(1,0,0,-1,0,595.276)" d="M242.52 287.566 242.22 287.626 242.07 287.176 241.86 286.786 241.56 286.426 241.17 286.126 241.53 285.826 241.92 286.156 242.22 286.516 242.46 286.906 242.61 287.356 242.73 287.446 242.76 287.506 242.67 287.536Z" fill-rule="evenodd"/><path transform="matrix(1,0,0,-1,0,595.276)" d="M243.24 286.576 242.94 286.726 242.55 285.676 242.13 284.746 241.5 284.716 241.59 284.296 241.62 284.176 241.68 284.116 241.74 284.146 241.8 284.236 244.44 284.566 244.68 284.116 245.1 284.386 244.89 284.776 244.65 285.136 244.35 285.496 244.05 285.856 243.72 285.616 244.23 284.926 242.61 284.776 243.3 286.306 243.39 286.366 243.42 286.426 243.36 286.486Z" fill-rule="evenodd"/><path transform="matrix(1,0,0,-1,0,595.276)" d="M242.67 288.076 242.7 287.686H243.66L243.75 287.236 244.02 286.786 244.44 286.336 245.01 285.856 245.46 286.156 245.13 286.366 244.86 286.576 244.62 286.786 244.44 287.026 244.29 287.266 244.17 287.536 244.11 287.806 244.08 288.076Z" fill-rule="evenodd"/><path transform="matrix(1,0,0,-1,0,595.276)" d="M247.11 286.846H247.89V285.946H246.87V285.526H250.86V285.946H249.84V286.846H250.65V287.236H249.84V288.046L249.93 288.106V288.166L249.9 288.196 249.78 288.226H249.39V287.236H248.31V288.016L248.4 288.106V288.136L248.37 288.196 248.25 288.226H247.89V287.236H247.11V286.846ZM248.31 285.946V286.846H249.39V285.946H248.31Z" fill-rule="evenodd"/><path transform="matrix(1,0,0,-1,0,595.276)" d="M246.84 284.416 247.17 284.056 247.56 284.296 247.89 284.536 248.13 284.776 248.34 285.046 248.46 285.076 248.49 285.136 248.46 285.196 248.37 285.256 248.04 285.436 247.8 285.106 247.53 284.836 247.2 284.596Z" fill-rule="evenodd"/><path transform="matrix(1,0,0,-1,0,595.276)" d="M249.66 285.436 249.3 285.166 249.87 284.596 250.53 284.056 250.95 284.386 250.56 284.596 250.23 284.866 249.93 285.136Z" fill-rule="evenodd"/><path transform="matrix(1,0,0,-1,0,595.276)" d="M252.27 285.466 252.75 285.226 253.17 286.066 253.53 286.906 253.62 286.966V287.026L253.56 287.086 253.44 287.146 253.14 287.296 252.96 286.756 252.75 286.276 252.51 285.856Z" fill-rule="evenodd"/><path transform="matrix(1,0,0,-1,0,595.276)" d="M254.49 288.226 254.19 288.256V284.806 284.686L254.13 284.626 254.07 284.566H253.95 253.62L253.83 284.146H254.1 254.34L254.52 284.266 254.61 284.446V284.716 288.016L254.7 288.076 254.73 288.136 254.64 288.166Z" fill-rule="evenodd"/><path transform="matrix(1,0,0,-1,0,595.276)" d="M256.05 285.226 256.59 285.466 256.29 285.856 256.02 286.276 255.84 286.756 255.69 287.266 255.27 287.206 255.42 286.666 255.6 286.156 255.81 285.676Z" fill-rule="evenodd"/><path transform="matrix(1,0,0,-1,0,595.276)" d="M258.03 288.076V284.686L258.06 284.476 258.15 284.296 258.3 284.206H258.54 261.09 261.3L261.45 284.236 261.6 284.326 261.72 284.446 261.84 284.566 261.9 284.746 261.96 284.956 261.99 285.166 261.54 285.316 261.48 284.986 261.39 284.776 261.21 284.656 261 284.596H258.72L258.6 284.626 258.54 284.656 258.51 284.746V284.836 286.246H261.03V285.976H261.45V288.076H258.03ZM258.51 286.666V287.656H259.5V286.666H258.51ZM259.92 286.666V287.656H261.03V286.666H259.92Z" fill-rule="evenodd"/><path transform="matrix(1,0,0,-1,0,595.276)" d="M263.31 286.396 263.61 286.126 263.85 286.486V284.146H264.27V287.236L264.63 287.956V287.626H265.05L264.96 287.056 264.84 286.546 264.66 286.096 264.42 285.706 264.78 285.436 264.96 285.766 265.41 285.436 265.23 285.166 264.99 284.926 264.72 284.746 264.42 284.566 264.69 284.266 265.05 284.416 265.35 284.656 265.59 284.926 265.8 285.226 265.95 285.586 266.04 286.006 266.1 286.456V286.966H265.35L265.44 287.626H266.16V287.986H264.69L264.72 288.076H264.63L264.3 288.286 264.09 287.746 263.85 287.266 263.58 286.816 263.31 286.396ZM265.26 286.606H265.71L265.59 285.826 265.08 286.096 265.26 286.606Z" fill-rule="evenodd"/><path transform="matrix(1,0,0,-1,0,595.276)" d="M266.37 287.686V285.016H266.76V287.506L266.82 287.596 266.73 287.656Z" fill-rule="evenodd"/><path transform="matrix(1,0,0,-1,0,595.276)" d="M267.09 288.226V284.896 284.716L267.03 284.626 266.97 284.536H266.85 266.46L266.61 284.116 267.12 284.176 267.3 284.236 267.42 284.356 267.48 284.506 267.51 284.716V288.016L267.57 288.046 267.6 288.106 267.57 288.136 267.51 288.196Z" fill-rule="evenodd"/><path transform="matrix(1,0,0,-1,0,595.276)" d="M270.21 288.196 269.94 288.256 269.82 287.656 269.61 287.116 269.34 286.636 268.95 286.186 269.31 285.856 269.76 286.456 270.06 287.056H270.75L270.63 286.516 270.48 286.036 269.97 286.396 269.67 286.066 270 285.856 270.3 285.646 270.09 285.286 269.82 284.986 269.43 284.746 269.01 284.566 269.31 284.176 269.67 284.296 269.97 284.506 270.27 284.776 270.54 285.136 270.78 285.586 270.96 286.066 271.14 286.666 271.29 287.296 271.02 287.566 270.87 287.446H270.21L270.33 287.956 270.45 288.046 270.48 288.106 270.39 288.166Z" fill-rule="evenodd"/><path transform="matrix(1,0,0,-1,0,595.276)" d="M272.1 288.226H271.86V286.486L271.56 286.816 271.29 286.576 271.56 286.216 271.86 285.916V284.116H272.31V285.556L272.88 285.226 273.24 285.676 272.7 285.886 272.31 286.126V288.016L272.4 288.076V288.136L272.31 288.196Z" fill-rule="evenodd"/></g></svg>