<?xml version='1.0' encoding='UTF-8'?>
<svg xmlns="http://www.w3.org/2000/svg" xmlns:xlink="http://www.w3.org/1999/xlink" xmlns:inkscape="http://www.inkscape.org/namespaces/inkscape" version="1.1" width="567.000" height="269.280" viewBox="0 0 567.000 269.280"><g transform="scale(10.0) translate(-329.439, -451.152)"><defs><clipPath id="clip_2"><path transform="matrix(1,0,0,-1,0,595.276)" d="M74.4 .196H767.4V595.276H74.4Z"/></clipPath></defs><path transform="matrix(1,0,0,-1,0,595.276)" d="M330.96 119.956H384.6 384.72C384.84 119.956 384.84 119.956 384.84 120.076 384.84 120.076 384.96 120.076 384.96 120.196V120.316 140.956 141.076C384.96 141.196 384.84 141.196 384.84 141.196 384.84 141.196 384.84 141.316 384.72 141.316H384.6 330.96 330.84L330.72 141.196V141.076C330.72 141.076 330.6 141.076 330.6 140.956V120.316C330.6 120.196 330.72 120.196 330.72 120.196V120.076C330.72 119.956 330.84 119.956 330.84 119.956H330.96Z" fill="#ffffff" fill-rule="evenodd"/><path transform="matrix(1,0,0,-1,0,595.276)" d="M342 122.356H341.28L341.4 122.596V122.716H341.16L341.04 122.356 340.8 121.996V121.876H340.92 341.04L341.16 122.236H342 342.12V121.876H342 341.16V121.756H342L342.12 121.636V121.396H342 340.8L340.68 121.276V121.156H340.8 343.56V121.276 121.396H342.24V121.636 121.756H343.2V121.876H342.24V122.236H343.2 343.32V122.356H343.2 342.24V122.476 122.596H342.36V122.716H342.24 342.12V122.476Z" fill-rule="evenodd"/><path transform="matrix(1,0,0,-1,0,595.276)" d="M345.6 121.156 345.72 121.276 345.6 121.516 345.36 121.756 345.24 121.636 345.36 121.396Z" fill-rule="evenodd"/><path transform="matrix(1,0,0,-1,0,595.276)" d="M344.28 121.156 344.4 121.036 344.64 121.276 344.88 121.636V121.756H344.76L344.52 121.396Z" fill-rule="evenodd"/><path transform="matrix(1,0,0,-1,0,595.276)" d="M356.04 123.796H356.52L356.64 123.436 356.76 123.076 357 122.836 357.24 122.476H357.36V122.596H357.48V122.716L357.24 122.956 357 123.196 356.88 123.556 356.76 123.916H356.04Z" fill-rule="evenodd"/><path transform="matrix(1,0,0,-1,0,595.276)" d="M355.56 123.796H355.44L355.32 123.556 355.08 123.196 354.84 122.836 354.6 122.596 354.84 122.476 355.08 122.716 355.2 123.076 355.44 123.316 355.56 123.676H355.68V123.796Z" fill-rule="evenodd"/><path transform="matrix(1,0,0,-1,0,595.276)" d="M356.04 122.956 355.92 123.076 355.2 121.516H354.84V121.276H354.96 355.08L357 121.516 357.24 121.156 357.36 121.276 357 121.756 356.64 122.356 356.52 122.236 356.88 121.756 355.56 121.636 356.04 122.956H356.16Z" fill-rule="evenodd"/><path transform="matrix(1,0,0,-1,0,595.276)" d="M358.08 121.276 358.2 121.156 358.68 121.396 359.04 121.756H359.16 359.04L358.92 121.876 358.56 121.516Z" fill-rule="evenodd"/><path transform="matrix(1,0,0,-1,0,595.276)" d="M360.84 121.156V121.276H360.96L360.72 121.396 360.6 121.516 360.48 121.636 360.36 121.756 360.72 122.116H360.84V122.236L360.72 122.356 360.48 122.116 360.24 121.996 360.12 122.236V122.476H359.88L360 122.116 360.12 121.756 360.24 121.636 360.36 121.396 360.6 121.276 360.72 121.156Z" fill-rule="evenodd"/><path transform="matrix(1,0,0,-1,0,595.276)" d="M364.32 123.796H363.48V123.676H364.08V122.956H363.48V122.836H364.32Z" fill-rule="evenodd"/><path transform="matrix(1,0,0,-1,0,595.276)" d="M362.4 123.916 362.16 124.036 362.04 123.676 361.92 123.196 361.68 122.956 361.56 122.596 361.68 122.356 361.92 122.836V121.036H362.16V123.196L362.4 123.796V123.916Z" fill-rule="evenodd"/><path transform="matrix(1,0,0,-1,0,595.276)" d="M366.48 121.156 366.6 121.276 366.48 121.516 366.24 121.756 366.12 121.636 366.24 121.396Z" fill-rule="evenodd"/><path transform="matrix(1,0,0,-1,0,595.276)" d="M365.16 121.156 365.28 121.036 365.52 121.276 365.76 121.636V121.756H365.64L365.4 121.396Z" fill-rule="evenodd"/><path transform="matrix(1,0,0,-1,0,595.276)" d="M368.52 122.596 368.64 122.476 368.88 122.836V121.156H369.12V123.196L369.24 123.796H369.36L369.24 123.916 369.12 124.036 369 123.556 368.88 123.196 368.64 122.956Z" fill-rule="evenodd"/><path transform="matrix(1,0,0,-1,0,595.276)" d="M370.8 123.436H370.56V121.756H370.8V123.316 123.436Z" fill-rule="evenodd"/><path transform="matrix(1,0,0,-1,0,595.276)" d="M369.48 123.556H369.72L369.6 123.196 369.48 122.836 369.36 122.596 369.24 122.356 369.36 122.236H369.48L369.6 122.596 369.72 122.956H370.2L370.08 122.596V122.236L369.72 122.356 369.6 122.236 369.96 121.996V121.876L369.84 121.636 369.72 121.396 369.48 121.276 369.6 121.156H369.72L369.84 121.276 369.96 121.516 370.08 121.636 370.2 121.876V122.116L370.32 122.596V123.076H369.84V123.556H370.44V123.676H369.48Z" fill-rule="evenodd"/><path transform="matrix(1,0,0,-1,0,595.276)" d="M370.8 121.156H371.04 371.16 371.28V121.276 121.396 123.796H371.4L371.28 123.916H371.04V121.516 121.396 121.276H370.92 370.8 370.68V121.156H370.8Z" fill-rule="evenodd"/><path transform="matrix(1,0,0,-1,0,595.276)" d="M373.8 122.956 373.68 122.836 374.04 122.476V121.036H374.16V122.356L374.52 122.116 374.76 121.996 374.88 122.116 374.52 122.356 374.16 122.596V123.916H374.28L374.16 124.036H374.04V122.716Z" fill-rule="evenodd"/><path transform="matrix(1,0,0,-1,0,595.276)" d="M338.16 136.876H336.36L336.48 137.116H336.6V137.236H336.48L336.36 137.356 336 136.756 335.64 136.156 335.88 136.036 336.12 136.396 336.24 136.636H336.96V135.676H335.64V135.556H336.96V134.356H337.2V135.556H338.4V135.676H337.2V136.636H338.16Z" fill-rule="evenodd"/><path transform="matrix(1,0,0,-1,0,595.276)" d="M345.36 136.156H344.64V136.636 136.756H345.12 345.24V136.876H345.12 344.64V137.116 137.236H344.52 344.4V136.876H343.8V136.756H344.4V136.636 136.156H343.68 343.56V136.036H343.68 345.36V136.156Z" fill-rule="evenodd"/><path transform="matrix(1,0,0,-1,0,595.276)" d="M344.76 135.916V135.556H343.68V135.436H344.76V135.316 134.716 134.596H344.64 344.4V134.476 134.356H344.52 344.76 344.88V134.476 134.596 135.316L345 135.436H345.24 345.36V135.556H345.24 345 344.88V135.796H345L344.88 135.916H344.76Z" fill-rule="evenodd"/><path transform="matrix(1,0,0,-1,0,595.276)" d="M343.8 135.316 343.68 135.076 344.04 134.956 344.28 134.716V134.956L344.04 135.076Z" fill-rule="evenodd"/><path transform="matrix(1,0,0,-1,0,595.276)" d="M358.44 136.756 358.8 136.396 357.36 136.156 357.84 136.996H359.16V137.116H356.64V136.996H357.6L357.12 136.156H356.64V136.036H356.76V135.916L356.88 136.036 358.92 136.156 359.04 135.916H359.28L358.92 136.396 358.68 136.876Z" fill-rule="evenodd"/><path transform="matrix(1,0,0,-1,0,595.276)" d="M357.96 134.716V135.316H359.04V135.436H357.96V135.796H358.08V135.916H357.96 357.84V135.436H356.76V135.316H357.84V134.716H356.52V134.596H359.28V134.716Z" fill-rule="evenodd"/><path transform="matrix(1,0,0,-1,0,595.276)" d="M343.08 122.836V123.916H341.16V122.836H343.08ZM341.28 123.436V123.436 123.676H342.84 342.96V123.436H342.84 341.28ZM342.84 123.316 342.96 123.196V122.956H342.84 341.28V123.196 123.316H342.84Z" fill-rule="evenodd"/><path transform="matrix(1,0,0,-1,0,595.276)" d="M345.84 123.556V123.556H345.6V123.916 124.036H345.36V123.556H344.76V123.796L344.88 123.916H344.76L344.64 124.036V123.916 123.556H344.52 344.28V123.436H344.52 344.64V121.996H344.52 344.16V121.876H345.84V121.996H345.6V123.436H345.84V123.556ZM345.36 122.596H344.76V122.836 122.956H345.36V122.836 122.596ZM345.36 123.436V123.076H344.76V123.436H345.36ZM344.76 122.356H345.36V121.996H344.76V122.356Z" fill-rule="evenodd"/><path transform="matrix(1,0,0,-1,0,595.276)" d="M346.8 122.116V121.516 121.396 121.276H346.68 346.56 346.44V121.156H346.56 346.8L346.92 121.276H347.04V121.396 121.636 123.916H346.08V123.076 122.236L345.96 121.636 345.84 121.276V121.156H345.96 346.08L346.2 121.516V122.116H346.8ZM346.8 122.956V122.236H346.32V122.956H346.8ZM346.8 123.676V123.076H346.32V123.676H346.8Z" fill-rule="evenodd"/><path transform="matrix(1,0,0,-1,0,595.276)" d="M348.36 121.396H349.92V121.156H350.04V123.916H348.12V121.156H348.36V121.396ZM348.36 122.596H349.92V121.516H348.36V122.596ZM349.92 123.796V122.836H348.36V123.796H349.92Z" fill-rule="evenodd"/><path transform="matrix(1,0,0,-1,0,595.276)" d="M352.2 121.156 352.68 121.396 353.04 121.636 353.4 121.396 353.88 121.276H354V121.396L353.64 121.516 353.16 121.756 353.4 121.996 353.52 122.236 353.64 122.476 353.76 122.836V122.956L353.64 123.076H353.16L353.52 123.796 353.4 123.916H351.36V123.796H352.08L351.96 123.196V122.596L351.84 122.236 351.6 121.876 351.36 121.636 351.12 121.396V121.276L351.24 121.156 351.6 121.516 351.84 121.876 351.96 122.236 352.2 122.596 352.56 122.116 352.92 121.756 352.44 121.516 352.08 121.276V121.156H352.2ZM352.56 122.356 352.44 122.596 352.2 122.956V123.796H353.28L352.8 122.836 352.92 122.716 353.04 122.836H353.64L353.52 122.596 353.4 122.356 353.16 122.116 353.04 121.876 352.8 122.116 352.56 122.356Z" fill-rule="evenodd"/><path transform="matrix(1,0,0,-1,0,595.276)" d="M342.6 134.716H342.72V135.076H342.84 343.2V134.956H343.32 343.44V136.996H342.6V134.716ZM342.72 135.916 342.84 136.036H343.2V135.916 135.316H342.84 342.72V135.916ZM343.2 136.156H342.84 342.72V136.756L342.84 136.876H343.2V136.756 136.156Z" fill-rule="evenodd"/><path transform="matrix(1,0,0,-1,0,595.276)" d="M358.44 123.676V122.836H358.2V122.716H359.04L358.68 122.356 358.2 122.116 358.32 121.996 358.8 122.356 359.28 122.716H359.76L359.52 122.476 359.4 122.356 359.16 122.236 358.92 122.116 359.04 121.996 359.4 122.236V121.036H359.64V122.356L360 122.716H360.96V122.836H360.6V123.676H359.52L359.64 123.916H359.76 359.64L359.52 124.036 359.28 123.676H358.44ZM359.16 122.836H358.68V123.556H359.16V122.836ZM359.28 123.556H359.76V122.836H359.28V123.556ZM360.36 122.836H360V123.556H360.36V122.836Z" fill-rule="evenodd"/><path transform="matrix(1,0,0,-1,0,595.276)" d="M362.64 122.236H363.36V122.356H362.64V122.836H363.36V123.796H362.52V121.036H362.64V121.636H363.36V121.756H362.64V122.236ZM363.12 123.676V122.956H362.64V123.676H363.12Z" fill-rule="evenodd"/><path transform="matrix(1,0,0,-1,0,595.276)" d="M363.84 121.516 363.6 121.396 363.36 121.276H363.24L363.36 121.156H363.48L363.72 121.276 363.96 121.396 364.08 121.276 364.32 121.036H364.44V121.156 121.276L364.2 121.396 364.08 121.516 364.2 121.876 364.44 122.356V122.476H364.32 364.2 363.36V122.356H363.48L363.6 122.116V121.876L363.72 121.756 363.84 121.516ZM364.2 122.356 364.08 121.996 363.96 121.756 363.84 121.996 363.72 122.356H364.2Z" fill-rule="evenodd"/><path transform="matrix(1,0,0,-1,0,595.276)" d="M365.52 123.436V121.996H365.4 365.04V121.876H366.72V121.996H366.48V123.436H366.72V123.556H366.48V123.916 124.036H366.24V123.556H365.64V123.796L365.76 123.916H365.64L365.52 124.036V123.916 123.556H365.4 365.16V123.436H365.4 365.52ZM366.24 123.076H365.64V123.436H366.24V123.076ZM365.64 122.596V122.596 122.836 122.956H366.24V122.836 122.596H365.64ZM366.24 122.356V122.356 121.996H365.64V122.356H366.24Z" fill-rule="evenodd"/><path transform="matrix(1,0,0,-1,0,595.276)" d="M367.68 122.116V121.516 121.396 121.276H367.56 367.44 367.32V121.156H367.44 367.68L367.8 121.276H367.92V121.396 121.636 123.916H366.96V123.076 122.236L366.84 121.636 366.72 121.276V121.156H366.84 366.96L367.08 121.516V122.116H367.68ZM367.2 122.956H367.68V122.236H367.2V122.956ZM367.68 123.076H367.2V123.676H367.68V123.076Z" fill-rule="evenodd"/><path transform="matrix(1,0,0,-1,0,595.276)" d="M372.6 121.636 372.84 121.876 373.08 122.236 372.36 122.596 372.24 122.356 372 122.476 372.24 122.716 372.48 123.196 372.6 123.556 372.72 124.036 372.96 123.916H373.08 372.96V123.796L372.84 123.556H373.32 373.44L373.56 123.436V123.316L373.44 122.596 373.2 122.116 372.96 121.756 372.72 121.516 372.48 121.276 372.24 121.036H372.12V121.156 121.276L372.36 121.396 372.6 121.636ZM373.32 123.436H372.84L372.48 122.836 373.08 122.476 373.2 122.836 373.32 123.436Z" fill-rule="evenodd"/><path transform="matrix(1,0,0,-1,0,595.276)" d="M360.24 138.676C360.24 138.796 360.24 138.916 360.12 138.916 360 138.916 359.88 138.796 359.88 138.676 359.88 138.556 360 138.556 360.12 138.556 360.24 138.556 360.24 138.556 360.24 138.676Z" fill-rule="evenodd"/><path transform="matrix(1,0,0,-1,0,595.276)" d="M360.24 139.396C360.24 139.396 360.24 139.516 360.12 139.516 360 139.516 359.88 139.396 359.88 139.396 359.88 139.276 360 139.156 360.12 139.156 360.24 139.156 360.24 139.276 360.24 139.396Z" fill-rule="evenodd"/><path transform="matrix(1,0,0,-1,0,595.276)" d="M357.96 138.916H357.36V139.156H357.96Z" fill-rule="evenodd"/><path transform="matrix(1,0,0,-1,0,595.276)" d="M355.56 138.556V139.396L355.68 139.516C355.8 139.516 355.92 139.516 355.92 139.396V138.556H356.28V139.396C356.28 139.396 356.4 139.516 356.52 139.516H356.64V139.396 138.556H357V139.516 139.636C356.88 139.756 356.76 139.876 356.52 139.876 356.4 139.876 356.28 139.876 356.16 139.756 356.04 139.876 355.92 139.876 355.8 139.876H355.68C355.56 139.876 355.56 139.876 355.44 139.756V139.876H355.2V138.556H355.56Z" fill-rule="evenodd"/><path transform="matrix(1,0,0,-1,0,595.276)" d="M353.16 126.556 353.4 125.716 353.64 126.556H354L353.52 124.996C353.4 124.996 353.4 124.876 353.4 124.876 353.28 124.876 353.28 124.756 353.28 124.756 353.16 124.756 353.04 124.756 353.04 124.756 352.92 124.876 352.92 124.876 352.8 124.876L352.92 125.116H353.04C353.16 125.116 353.16 125.116 353.16 125.236V125.356L352.68 126.556H353.16Z" fill-rule="evenodd"/><path transform="matrix(1,0,0,-1,0,595.276)" d="M345.6 126.556C345.48 126.436 345.6 126.436 345.6 126.436 345.72 126.316 345.72 126.316 345.84 126.316 346.32 126.316 346.56 126.076 346.56 125.716 346.44 125.356 346.32 125.236 345.84 125.236 345.6 125.236 345.48 125.236 345.36 125.236 345.12 125.356 345.12 125.476 345 125.596L345.24 125.836C345.48 125.596 345.6 125.596 345.84 125.596 345.96 125.596 346.08 125.596 346.08 125.716 346.08 125.836 345.96 125.956 345.72 125.956 345.36 125.956 345.12 126.196 345.12 126.556 345.12 126.916 345.36 127.036 345.84 127.036 345.96 127.036 346.08 127.036 346.2 127.036 346.32 126.916 346.44 126.916 346.56 126.796L346.32 126.556C346.08 126.676 345.96 126.676 345.84 126.676 345.6 126.676 345.6 126.676 345.6 126.556Z" fill-rule="evenodd"/><path transform="matrix(1,0,0,-1,0,595.276)" d="M347.64 125.236C347.64 125.236 347.52 125.236 347.4 125.236 347.28 125.236 347.16 125.236 347.04 125.356 346.92 125.356 346.92 125.476 346.92 125.596V126.556H347.28V125.716 125.596C347.4 125.596 347.4 125.476 347.4 125.476 347.52 125.476 347.52 125.596 347.64 125.596V125.716 126.556H348V125.236H347.64Z" fill-rule="evenodd"/><path transform="matrix(1,0,0,-1,0,595.276)" d="M348.36 126.556V125.236H348.72V126.076C348.72 126.196 348.84 126.196 348.96 126.196 349.08 126.196 349.2 126.196 349.2 126.076V125.956 125.236H349.56V126.076 126.196C349.56 126.436 349.44 126.556 349.08 126.556 348.96 126.556 348.96 126.556 348.84 126.556L348.72 126.436V126.556H348.36Z" fill-rule="evenodd"/><path transform="matrix(1,0,0,-1,0,595.276)" d="M363.6 125.236C363.6 125.236 363.48 125.236 363.36 125.236 363.24 125.236 363 125.236 363 125.356 362.88 125.356 362.76 125.476 362.76 125.596V126.556H363.12V125.716L363.24 125.596 363.36 125.476C363.48 125.476 363.48 125.596 363.6 125.596V125.716 126.556H363.96V125.236H363.6Z" fill-rule="evenodd"/><path transform="matrix(1,0,0,-1,0,595.276)" d="M339.72 125.236C339.84 125.236 339.96 125.236 340.08 125.236 340.08 125.356 340.2 125.476 340.2 125.596L339.96 125.716C339.84 125.596 339.84 125.476 339.72 125.476 339.48 125.476 339.48 125.596 339.36 125.836V125.956C339.36 126.196 339.48 126.196 339.6 126.196 339.72 126.196 339.72 126.196 339.84 126.196L339.96 126.076 340.2 126.196C340.08 126.436 339.96 126.556 339.6 126.556 339.24 126.556 339.12 126.316 339 125.836 339 125.476 339.24 125.236 339.72 125.236Z" fill-rule="evenodd"/><path transform="matrix(1,0,0,-1,0,595.276)" d="M343.44 125.476V126.196H343.2V126.556H343.44V126.916L343.8 127.036V126.556H344.16V126.196H343.8V125.596L343.92 125.476H344.04L344.16 125.596V125.236C344.16 125.236 344.04 125.236 343.8 125.236 343.56 125.236 343.44 125.236 343.44 125.476Z" fill-rule="evenodd"/><path transform="matrix(1,0,0,-1,0,595.276)" d="M354.72 126.076C355.08 126.076 355.2 125.836 355.2 125.596 355.2 125.356 354.96 125.236 354.72 125.236 354.48 125.236 354.36 125.236 354.36 125.236 354.24 125.236 354.12 125.356 354.12 125.476L354.36 125.716C354.36 125.596 354.48 125.476 354.72 125.476L354.84 125.596C354.84 125.716 354.72 125.716 354.48 125.716 354.24 125.836 354.12 125.956 354.12 126.196 354.12 126.436 354.36 126.556 354.72 126.556 354.84 126.556 354.96 126.556 354.96 126.556 355.08 126.556 355.08 126.436 355.2 126.436L354.96 126.196C354.96 126.196 354.84 126.316 354.72 126.316 354.6 126.316 354.6 126.316 354.6 126.196H354.48L354.72 126.076Z" fill-rule="evenodd"/><path transform="matrix(1,0,0,-1,0,595.276)" d="M358.08 126.196C357.96 126.196 357.84 126.196 357.84 126.076V125.236H357.48V126.556H357.84V126.436C357.84 126.556 357.84 126.556 357.96 126.556H358.08C358.44 126.556 358.56 126.436 358.56 126.196V126.076 125.236H358.2V125.956 126.076C358.2 126.196 358.2 126.196 358.08 126.196Z" fill-rule="evenodd"/><path transform="matrix(1,0,0,-1,0,595.276)" d="M366.24 127.036V125.596H366.48V125.236H366.36 366.24C366 125.236 365.88 125.356 365.88 125.476V127.036H366.24Z" fill-rule="evenodd"/><path transform="matrix(1,0,0,-1,0,595.276)" d="M366.72 125.236H367.08V126.556H366.72Z" fill-rule="evenodd"/><path transform="matrix(1,0,0,-1,0,595.276)" d="M368.28 125.716C368.16 125.596 368.04 125.476 367.92 125.476 367.8 125.476 367.68 125.596 367.68 125.836V125.956C367.68 126.196 367.8 126.196 367.92 126.196 368.04 126.196 368.04 126.196 368.16 126.196 368.16 126.196 368.16 126.076 368.28 126.076L368.52 126.196C368.4 126.436 368.28 126.556 367.92 126.556 367.56 126.556 367.32 126.316 367.32 125.836 367.32 125.476 367.56 125.236 367.92 125.236 368.16 125.236 368.28 125.236 368.28 125.236 368.4 125.356 368.52 125.476 368.52 125.596L368.28 125.716Z" fill-rule="evenodd"/><path transform="matrix(1,0,0,-1,0,595.276)" d="M369.24 127.036V125.236H369.6V125.956H370.08 370.44V125.236H370.8V127.036H370.44V126.316H370.08 369.6V127.036Z" fill-rule="evenodd"/><path transform="matrix(1,0,0,-1,0,595.276)" d="M372.96 127.036V125.596C372.96 125.596 373.08 125.596 373.2 125.596V125.236C373.08 125.236 372.96 125.236 372.96 125.236 372.84 125.236 372.6 125.356 372.6 125.476V127.036H372.96Z" fill-rule="evenodd"/><path transform="matrix(1,0,0,-1,0,595.276)" d="M373.44 126.556V125.236H373.8V126.556Z" fill-rule="evenodd"/><path transform="matrix(1,0,0,-1,0,595.276)" d="M378.96 126.076C379.32 126.076 379.44 125.836 379.44 125.596 379.44 125.356 379.2 125.236 378.84 125.236 378.72 125.236 378.6 125.236 378.48 125.236 378.48 125.236 378.36 125.356 378.24 125.476L378.48 125.716C378.6 125.596 378.72 125.476 378.84 125.476 378.96 125.476 378.96 125.476 378.96 125.596H379.08C379.08 125.716 378.96 125.716 378.72 125.716 378.48 125.836 378.36 125.956 378.36 126.196 378.36 126.436 378.6 126.556 378.96 126.556 379.08 126.556 379.08 126.556 379.2 126.556 379.32 126.556 379.32 126.436 379.44 126.436L379.2 126.196C379.08 126.196 379.08 126.316 378.96 126.316 378.84 126.316 378.84 126.316 378.72 126.196L378.96 126.076Z" fill-rule="evenodd"/><path transform="matrix(1,0,0,-1,0,595.276)" d="M377.52 125.716 377.28 126.556H376.92L377.4 125.356V125.236C377.4 125.116 377.4 125.116 377.28 125.116H377.16 377.04V124.876C377.16 124.876 377.28 124.756 377.4 124.756 377.52 124.756 377.52 124.876 377.64 124.876V124.996L378.12 126.556H377.76L377.52 125.716Z" fill-rule="evenodd"/><path transform="matrix(1,0,0,-1,0,595.276)" d="M338.28 125.596 338.04 125.236H337.68L338.04 125.836 337.68 126.556H338.04L338.28 126.196 338.4 126.556H338.76L338.4 125.836 338.88 125.236H338.52Z" fill-rule="evenodd"/><path transform="matrix(1,0,0,-1,0,595.276)" d="M336.12 125.236H337.32V125.596H336.48V125.956H337.2V126.316H336.48V126.676H337.32V127.036H336.12Z" fill-rule="evenodd"/><path transform="matrix(1,0,0,-1,0,595.276)" d="M367.08 126.796C367.08 126.916 366.96 127.036 366.84 127.036 366.72 127.036 366.72 126.916 366.72 126.796 366.72 126.796 366.72 126.676 366.84 126.676 366.96 126.676 367.08 126.796 367.08 126.796Z" fill-rule="evenodd"/><path transform="matrix(1,0,0,-1,0,595.276)" d="M373.8 126.796C373.8 126.916 373.8 127.036 373.68 127.036 373.56 127.036 373.44 126.916 373.44 126.796 373.44 126.796 373.56 126.676 373.68 126.676 373.8 126.676 373.8 126.796 373.8 126.796Z" fill-rule="evenodd"/><path transform="matrix(1,0,0,-1,0,595.276)" d="M341.28 125.596 341.52 125.476C341.52 125.356 341.4 125.236 341.28 125.236 341.28 125.236 341.16 125.236 341.04 125.236 340.8 125.236 340.68 125.236 340.56 125.476 340.44 125.596 340.44 125.716 340.44 125.836 340.44 126.316 340.56 126.556 340.92 126.556 341.16 126.556 341.28 126.436 341.4 126.316 341.52 126.196 341.52 126.076 341.52 125.716H340.8V125.596C340.92 125.476 340.92 125.476 341.04 125.476 341.16 125.476 341.28 125.596 341.28 125.596ZM340.8 126.076H341.28C341.16 126.196 341.04 126.316 341.04 126.316 340.92 126.316 340.92 126.196 340.8 126.196V126.076Z" fill-rule="evenodd"/><path transform="matrix(1,0,0,-1,0,595.276)" d="M341.88 126.556H342.12V126.436C342.24 126.556 342.36 126.556 342.48 126.556 342.84 126.556 343.08 126.316 343.08 125.836 343.08 125.476 342.84 125.236 342.48 125.236 342.36 125.236 342.24 125.236 342.24 125.356V124.756H341.88V126.556ZM342.48 125.476C342.48 125.476 342.72 125.596 342.72 125.716V126.076C342.72 126.196 342.6 126.316 342.48 126.316 342.36 126.316 342.24 126.196 342.24 126.076V125.716 125.596C342.36 125.596 342.36 125.476 342.48 125.476Z" fill-rule="evenodd"/><path transform="matrix(1,0,0,-1,0,595.276)" d="M350.76 126.436C350.64 126.556 350.52 126.556 350.4 126.556 350.16 126.556 349.92 126.316 349.8 125.956V125.836C349.92 125.356 350.16 125.116 350.4 125.236 350.64 125.236 350.64 125.236 350.76 125.236H351.12V127.036H350.76V126.436ZM350.76 125.716C350.64 125.596 350.64 125.476 350.52 125.476 350.28 125.476 350.16 125.596 350.16 125.836 350.16 126.076 350.28 126.196 350.52 126.196H350.64V126.076H350.76V125.956 125.716Z" fill-rule="evenodd"/><path transform="matrix(1,0,0,-1,0,595.276)" d="M352.08 126.076C351.6 126.076 351.36 125.956 351.36 125.596 351.36 125.356 351.48 125.236 351.84 125.236 351.96 125.236 352.08 125.236 352.2 125.356 352.2 125.236 352.2 125.236 352.32 125.236H352.44L352.56 125.476H352.44V125.596 126.196C352.44 126.436 352.2 126.556 351.96 126.556 351.84 126.556 351.72 126.556 351.6 126.556 351.48 126.556 351.48 126.436 351.36 126.436L351.48 126.076C351.6 126.196 351.72 126.316 351.96 126.316 351.96 126.316 352.08 126.316 352.08 126.196V126.076ZM352.08 125.836V125.596C352.08 125.596 352.08 125.476 351.96 125.476 351.84 125.476 351.84 125.476 351.72 125.476V125.596C351.72 125.716 351.84 125.836 352.08 125.836Z" fill-rule="evenodd"/><path transform="matrix(1,0,0,-1,0,595.276)" d="M363.96 139.396C363.96 139.756 363.96 139.996 363.72 140.116 363.6 140.356 363.48 140.356 363.24 140.356 362.88 140.356 362.76 140.356 362.64 140.116 362.52 139.996 362.4 139.756 362.4 139.396 362.4 138.796 362.64 138.436 363.24 138.436 363.72 138.436 363.96 138.796 363.96 139.396ZM363.6 139.396C363.6 139.276 363.6 139.036 363.48 139.036 363.48 138.916 363.36 138.796 363.24 138.796 363.12 138.796 363 138.916 362.88 139.036 362.88 139.036 362.76 139.276 362.76 139.396 362.76 139.876 362.88 139.996 363.24 139.996 363.48 139.996 363.6 139.876 363.6 139.396Z" fill-rule="evenodd"/><path transform="matrix(1,0,0,-1,0,595.276)" d="M356.76 126.076C356.52 126.076 356.28 126.076 356.16 125.956 356.04 125.836 355.92 125.836 355.92 125.596 355.92 125.476 356.04 125.356 356.16 125.356 356.16 125.236 356.28 125.236 356.52 125.236 356.64 125.236 356.76 125.236 356.76 125.356 356.76 125.236 356.88 125.236 356.88 125.236 357 125.236 357 125.236 357.12 125.236L357.24 125.476H357.12V125.596 126.196C357 126.436 356.88 126.556 356.52 126.556 356.4 126.556 356.28 126.556 356.28 126.556 356.16 126.556 356.04 126.436 356.04 126.436L356.16 126.076C356.28 126.196 356.4 126.316 356.52 126.316 356.64 126.316 356.64 126.316 356.64 126.196H356.76V126.076ZM356.28 125.596 356.4 125.716C356.52 125.836 356.64 125.836 356.76 125.836V125.596C356.64 125.476 356.64 125.476 356.52 125.476H356.4C356.4 125.596 356.28 125.596 356.28 125.596Z" fill-rule="evenodd"/><path transform="matrix(1,0,0,-1,0,595.276)" d="M359.76 126.436C359.64 126.556 359.52 126.556 359.52 126.556 359.16 126.556 358.92 126.316 358.92 125.956V125.836C358.92 125.356 359.16 125.116 359.52 125.236 359.64 125.236 359.76 125.236 359.76 125.236H360.12V127.036H359.76V126.436ZM359.52 125.476C359.4 125.476 359.28 125.596 359.28 125.836 359.28 126.076 359.4 126.196 359.52 126.196 359.64 126.196 359.64 126.196 359.76 126.196V126.076 125.956 125.716C359.76 125.596 359.76 125.596 359.64 125.596 359.64 125.476 359.64 125.476 359.52 125.476Z" fill-rule="evenodd"/><path transform="matrix(1,0,0,-1,0,595.276)" d="M361.2 127.036V125.236H361.56V125.956H362.16C362.4 125.956 362.52 126.196 362.52 126.436 362.52 126.676 362.4 126.916 362.16 127.036H361.2ZM361.56 126.196V126.676H362.04C362.16 126.676 362.16 126.556 362.16 126.436 362.16 126.316 362.16 126.196 362.04 126.196H361.56Z" fill-rule="evenodd"/><path transform="matrix(1,0,0,-1,0,595.276)" d="M365.04 126.556C365.16 126.556 365.4 126.556 365.52 126.316 365.52 126.196 365.64 126.076 365.64 125.836 365.64 125.716 365.52 125.476 365.52 125.356 365.4 125.236 365.16 125.236 365.04 125.236 364.92 125.236 364.8 125.236 364.68 125.236H364.32V127.036H364.68V126.436C364.8 126.556 364.92 126.556 365.04 126.556ZM364.92 126.196C364.92 126.196 364.8 126.196 364.68 126.076V125.716C364.68 125.596 364.8 125.596 364.8 125.596 364.8 125.476 364.92 125.476 365.04 125.476 365.16 125.476 365.28 125.596 365.28 125.836 365.28 126.076 365.16 126.196 364.92 126.196Z" fill-rule="evenodd"/><path transform="matrix(1,0,0,-1,0,595.276)" d="M371.16 125.836C371.16 125.476 371.4 125.236 371.76 125.236 372.12 125.236 372.36 125.476 372.36 125.836 372.36 126.316 372.12 126.556 371.76 126.556 371.4 126.556 371.16 126.316 371.16 125.836ZM371.76 126.196C371.88 126.196 372 126.076 372 125.836 372 125.716 371.88 125.596 371.76 125.596 371.64 125.596 371.64 125.596 371.52 125.596 371.52 125.716 371.52 125.716 371.52 125.836 371.52 126.076 371.64 126.196 371.76 126.196Z" fill-rule="evenodd"/><path transform="matrix(1,0,0,-1,0,595.276)" d="M375 126.436C374.88 126.556 374.88 126.556 374.76 126.556H374.64C374.28 126.556 374.16 126.316 374.04 125.956V125.836C374.16 125.356 374.4 125.116 374.64 125.236 374.76 125.236 374.88 125.236 375 125.236H375.36V127.036H375V126.436ZM375 125.716C374.88 125.596 374.88 125.476 374.64 125.476 374.52 125.476 374.4 125.596 374.4 125.836 374.4 126.076 374.52 126.196 374.76 126.196H374.88V126.076H375V125.956 125.716Z" fill-rule="evenodd"/><path transform="matrix(1,0,0,-1,0,595.276)" d="M376.32 126.076C375.84 126.076 375.6 125.956 375.6 125.596 375.6 125.356 375.72 125.236 376.08 125.236 376.2 125.236 376.32 125.236 376.44 125.356V125.236C376.56 125.236 376.68 125.236 376.68 125.236L376.8 125.476H376.68V125.596 126.196C376.68 126.436 376.44 126.556 376.08 126.556 375.96 126.556 375.96 126.556 375.84 126.556 375.72 126.556 375.6 126.436 375.6 126.436L375.72 126.076C375.84 126.196 375.96 126.316 376.2 126.316L376.32 126.196V126.076ZM375.96 125.596C375.96 125.716 375.96 125.716 376.08 125.716 376.08 125.836 376.2 125.836 376.32 125.836V125.596C376.32 125.476 376.2 125.476 376.08 125.476H375.96V125.596Z" fill-rule="evenodd"/><path transform="matrix(1,0,0,-1,0,595.276)" d="M349.2 138.676C349.2 138.796 349.2 138.916 349.08 138.916 348.96 138.916 348.84 138.796 348.84 138.676 348.84 138.556 348.96 138.556 349.08 138.556 349.2 138.556 349.2 138.556 349.2 138.676Z" fill-rule="evenodd"/><path transform="matrix(1,0,0,-1,0,595.276)" d="M349.2 139.396C349.2 139.396 349.2 139.516 349.08 139.516 348.96 139.516 348.84 139.396 348.84 139.396 348.84 139.276 348.96 139.156 349.08 139.156 349.2 139.156 349.2 139.276 349.2 139.396Z" fill-rule="evenodd"/><path transform="matrix(1,0,0,-1,0,595.276)" d="M352.8 139.396C352.8 140.116 352.56 140.356 352.08 140.356 351.84 140.356 351.6 140.356 351.48 140.116 351.36 139.996 351.24 139.756 351.24 139.396 351.24 139.156 351.36 138.916 351.48 138.676 351.6 138.556 351.84 138.436 352.08 138.436 352.56 138.436 352.8 138.796 352.8 139.396ZM352.44 139.396C352.44 139.276 352.44 139.036 352.32 139.036 352.32 138.916 352.2 138.796 352.08 138.796 351.72 138.796 351.6 139.036 351.6 139.396 351.6 139.876 351.72 139.996 352.08 139.996 352.2 139.996 352.32 139.996 352.32 139.876 352.44 139.756 352.44 139.636 352.44 139.396Z" fill-rule="evenodd"/><path transform="matrix(1,0,0,-1,0,595.276)" d="M354.36 139.396C354.12 139.396 354 139.396 353.88 139.276 353.76 139.156 353.64 139.156 353.64 138.916 353.64 138.796 353.76 138.676 353.76 138.676 353.88 138.556 354 138.436 354.12 138.436 354.24 138.556 354.48 138.556 354.48 138.676 354.48 138.556 354.6 138.556 354.6 138.556 354.6 138.556 354.72 138.556 354.84 138.556L354.96 138.796H354.84V138.916 139.516C354.72 139.756 354.6 139.876 354.24 139.876 354.12 139.876 354 139.876 353.88 139.876 353.88 139.756 353.76 139.756 353.64 139.636L353.88 139.396C354 139.516 354.12 139.636 354.24 139.516 354.36 139.636 354.36 139.516 354.36 139.516V139.396ZM354 138.916C354 139.036 354.12 139.036 354.12 139.036 354.24 139.036 354.24 139.156 354.36 139.156V138.916C354.36 138.796 354.36 138.796 354.24 138.796H354.12L354 138.916Z" fill-rule="evenodd"/><path transform="matrix(1,0,0,-1,0,595.276)" d="M366.6 138.556V139.396C366.6 139.396 366.72 139.516 366.84 139.516 366.96 139.516 367.08 139.516 367.08 139.396V138.556H367.44V139.396C367.44 139.396 367.56 139.516 367.68 139.516H367.8V139.396 138.556H368.16V139.516 139.636C368.04 139.756 367.92 139.876 367.68 139.876 367.44 139.876 367.32 139.876 367.32 139.756 367.2 139.876 367.08 139.876 366.96 139.876H366.84C366.72 139.876 366.72 139.876 366.6 139.756V139.876H366.24V138.556H366.6Z" fill-rule="evenodd"/><path transform="matrix(1,0,0,-1,0,595.276)" d="M365.52 139.396C365.28 139.396 365.16 139.396 365.04 139.276 364.92 139.156 364.8 139.156 364.8 138.916 364.8 138.676 365.04 138.436 365.28 138.436 365.4 138.556 365.64 138.556 365.64 138.676 365.64 138.556 365.64 138.556 365.76 138.556 365.76 138.556 365.88 138.556 366 138.556V138.796C366 138.796 365.88 138.796 365.88 138.916V139.516C365.88 139.756 365.76 139.876 365.4 139.876 365.28 139.876 365.16 139.876 365.04 139.876 365.04 139.756 364.92 139.756 364.8 139.636L365.04 139.396C365.16 139.516 365.28 139.636 365.4 139.516 365.4 139.636 365.52 139.516 365.52 139.516V139.396ZM365.16 138.916C365.16 139.036 365.16 139.036 365.28 139.036 365.28 139.036 365.4 139.156 365.52 139.156V138.916C365.52 138.796 365.52 138.796 365.4 138.796H365.28L365.16 138.916Z" fill-rule="evenodd"/><path transform="matrix(1,0,0,-1,0,595.276)" d="M350.76 139.516C350.88 139.516 350.88 139.756 350.88 139.876 350.88 140.236 350.64 140.356 350.16 140.356 350.04 140.356 349.8 140.356 349.68 140.236 349.68 140.236 349.56 140.116 349.56 139.996V139.876L349.92 139.756C349.92 139.876 350.04 139.996 350.16 139.996H350.28C350.4 139.996 350.52 139.876 350.52 139.876 350.52 139.756 350.4 139.636 350.4 139.636H350.04V139.276H350.4L350.52 139.156C350.52 138.916 350.4 138.916 350.28 138.916 350.16 138.916 350.04 138.916 350.04 138.916 349.92 139.036 349.92 139.036 349.92 139.156L349.56 139.036C349.56 138.676 349.8 138.436 350.28 138.436 350.4 138.436 350.64 138.556 350.76 138.676 350.88 138.676 350.88 138.916 350.88 139.036 350.88 139.276 350.88 139.396 350.76 139.516Z" fill-rule="evenodd"/><path transform="matrix(1,0,0,-1,0,595.276)" d="M348.24 139.996 347.64 138.556H348.12L348.6 139.996V140.356H347.4V139.996Z" fill-rule="evenodd"/><path transform="matrix(1,0,0,-1,0,595.276)" d="M358.32 139.756C358.32 139.516 358.32 139.396 358.44 139.276 358.56 139.156 358.68 139.036 358.92 139.036 359.04 139.036 359.04 139.156 359.16 139.156H359.28V139.036L359.16 138.916C359.16 138.916 359.04 138.796 358.92 138.796L358.8 138.916 358.68 139.036 358.32 138.916C358.44 138.676 358.68 138.436 358.92 138.436 359.16 138.436 359.28 138.556 359.4 138.676 359.52 138.916 359.64 139.156 359.64 139.396 359.64 139.756 359.52 139.996 359.4 140.116 359.28 140.356 359.16 140.356 358.92 140.356 358.68 140.356 358.56 140.356 358.44 140.236 358.32 140.116 358.32 139.876 358.32 139.756ZM359.16 139.756C359.16 139.636 359.16 139.636 359.16 139.516 359.04 139.516 359.04 139.396 358.92 139.396 358.8 139.396 358.68 139.516 358.68 139.756 358.68 139.876 358.68 139.876 358.68 139.996 358.8 139.996 358.8 140.116 358.92 140.116 359.04 140.116 359.16 139.876 359.16 139.756Z" fill-rule="evenodd"/><path transform="matrix(1,0,0,-1,0,595.276)" d="M334.56 135.916V136.036H333.36V137.116H333.48L333.36 137.236H333.24V134.596H332.04V134.476H334.8V134.596H333.36V135.916Z" fill-rule="evenodd"/><path transform="matrix(1,0,0,-1,0,595.276)" d="M339 136.156V135.916L339.96 136.036V134.836 134.716L340.08 134.596H340.2 341.16 341.4L341.52 134.716 341.64 134.836 341.76 134.956V135.196L341.64 135.316 341.52 134.956 341.4 134.836 341.28 134.716H340.44 340.2V134.836 136.156L341.76 136.276V136.516L340.2 136.276V137.116 137.236H340.08L339.96 137.356V136.276Z" fill-rule="evenodd"/><path transform="matrix(1,0,0,-1,0,595.276)" d="M346.2 136.996V136.876H348.48V136.996Z" fill-rule="evenodd"/><path transform="matrix(1,0,0,-1,0,595.276)" d="M346.32 136.036V135.796H348.36V136.036Z" fill-rule="evenodd"/><path transform="matrix(1,0,0,-1,0,595.276)" d="M345.96 134.836V134.716H348.72V134.836Z" fill-rule="evenodd"/><path transform="matrix(1,0,0,-1,0,595.276)" d="M352.2 135.916V136.036H350.88V137.116L351 137.236H350.88 350.76V136.036H349.44V135.916H350.76V134.356H350.88V135.916Z" fill-rule="evenodd"/><path transform="matrix(1,0,0,-1,0,595.276)" d="M354.24 136.996H354.84L354.96 136.636 355.08 136.396 355.32 136.036 355.56 135.796 355.68 135.916H355.8L355.44 136.156 355.32 136.396 355.08 136.756 354.96 137.236H354.24Z" fill-rule="evenodd"/><path transform="matrix(1,0,0,-1,0,595.276)" d="M353.88 137.116H353.76L353.52 136.756 353.4 136.516 353.16 136.156 352.92 136.036 353.04 135.796 353.28 136.036 353.52 136.396 353.76 136.636 353.88 136.996H354L353.88 137.116Z" fill-rule="evenodd"/><path transform="matrix(1,0,0,-1,0,595.276)" d="M353.16 134.596 353.28 134.476 353.52 134.596 353.64 134.836 353.76 134.956 353.88 135.076 354 135.316 354.12 135.556V135.676L354.24 135.916H354.96V135.316L354.84 134.956V134.836 134.716H354.72 354.6 354.36V134.596 134.476H354.48 354.72L354.84 134.596 354.96 134.716 355.08 134.836V135.196 136.156H353.52V135.916H354V135.676L353.88 135.556 353.76 135.316V135.196L353.64 135.076 353.52 134.956 353.28 134.716 353.16 134.596Z" fill-rule="evenodd"/><path transform="matrix(1,0,0,-1,0,595.276)" d="M361.8 139.516C361.92 139.516 361.92 139.756 361.92 139.876 361.92 140.236 361.68 140.356 361.2 140.356 361.08 140.356 360.84 140.356 360.72 140.236 360.6 140.116 360.6 139.996 360.6 139.876L360.96 139.756C360.96 139.876 361.08 139.996 361.2 139.996H361.32C361.44 139.996 361.56 139.876 361.56 139.876 361.56 139.756 361.44 139.636 361.44 139.636H361.08V139.276H361.44L361.56 139.156C361.56 138.916 361.44 138.916 361.32 138.916 361.2 138.916 361.08 138.916 361.08 138.916 360.96 139.036 360.96 139.036 360.96 139.156L360.48 139.036C360.6 138.676 360.84 138.436 361.32 138.436 361.68 138.436 361.92 138.676 361.92 139.036 361.92 139.276 361.92 139.396 361.8 139.516Z" fill-rule="evenodd"/><path transform="matrix(1,0,0,-1,0,595.276)" d="M366 136.876H364.2L364.32 137.116H364.44V137.236H364.32L364.2 137.356 363.96 136.756 363.6 136.156 363.72 136.036 363.96 136.396 364.08 136.636H364.8V135.676H363.48V135.556H364.8V134.356H365.04V135.556H366.36V135.676H365.04V136.636H366Z" fill-rule="evenodd"/><path transform="matrix(1,0,0,-1,0,595.276)" d="M373.2 136.156H372.48V136.636 136.756H373.08V136.876H372.48V137.116 137.236H372.36 372.24V136.876H371.76 371.64V136.756H371.76 372.24V136.636 136.156H371.52V136.036H373.2 373.32V136.156Z" fill-rule="evenodd"/><path transform="matrix(1,0,0,-1,0,595.276)" d="M372.6 135.916V135.556H371.64 371.52V135.436H371.64 372.6V135.316 134.716 134.596H372.48 372.24V134.476 134.356H372.36 372.72V134.476H372.84V134.596 135.316 135.436H373.2V135.556H372.84V135.796 135.916H372.72 372.6Z" fill-rule="evenodd"/><path transform="matrix(1,0,0,-1,0,595.276)" d="M371.76 135.316 371.64 135.076 371.88 134.956 372.12 134.716 372.24 134.956 372 135.076Z" fill-rule="evenodd"/><path transform="matrix(1,0,0,-1,0,595.276)" d="M370.44 134.716H370.56 370.68V135.076H371.16V134.956H371.28V136.996H370.44V134.716ZM370.68 135.916V136.036H371.16V135.916 135.316H370.68V135.916ZM371.16 136.156H370.68V136.756 136.876H371.16V136.756 136.156Z" fill-rule="evenodd"/><path transform="matrix(1,0,0,-1,0,595.276)" d="M362.4 135.916V136.036H361.32V137.116 137.236H361.2 361.08V134.596H359.88V134.476H362.64V134.596H361.32V135.916Z" fill-rule="evenodd"/><path transform="matrix(1,0,0,-1,0,595.276)" d="M374.04 136.996V136.876H376.32V136.996Z" fill-rule="evenodd"/><path transform="matrix(1,0,0,-1,0,595.276)" d="M374.28 136.036V135.796H376.2V136.036Z" fill-rule="evenodd"/><path transform="matrix(1,0,0,-1,0,595.276)" d="M373.8 134.836V134.716H376.56V134.836Z" fill-rule="evenodd"/><path transform="matrix(1,0,0,-1,0,595.276)" d="M380.04 135.916V136.036H378.84V137.116 137.236H378.6V136.036H377.28V135.916H378.6V134.356H378.84V135.916Z" fill-rule="evenodd"/><path transform="matrix(1,0,0,-1,0,595.276)" d="M382.08 136.996H382.68L382.8 136.636 382.92 136.396 383.16 136.036 383.4 135.796H383.52L383.64 135.916 383.4 136.156 383.16 136.396 382.92 136.756 382.8 137.236H382.08Z" fill-rule="evenodd"/><path transform="matrix(1,0,0,-1,0,595.276)" d="M381.72 137.116H381.6L381.36 136.756 381.24 136.516 381 136.156 380.76 136.036 380.88 135.796 381.24 136.036 381.36 136.396 381.6 136.636 381.72 136.996H381.84V137.116Z" fill-rule="evenodd"/><path transform="matrix(1,0,0,-1,0,595.276)" d="M381 134.596 381.12 134.476H381.24L381.36 134.596 381.48 134.836 381.72 134.956 381.84 135.076V135.316L381.96 135.556 382.08 135.676V135.916H382.8V135.316 134.956L382.68 134.836V134.716H382.56 382.32 382.2V134.596L382.32 134.476H382.56L382.8 134.596 382.92 134.716V134.836L383.04 135.196V136.156H381.36V135.916H381.84V135.676L381.72 135.556V135.316L381.6 135.196 381.48 135.076 381.36 134.956 381.24 134.716 381 134.596Z" fill-rule="evenodd"/><path transform="matrix(1,0,0,-1,0,595.276)" d="M368.04 136.276H368.64L368.52 134.716V134.596H368.64V134.476H368.76 369.24L369.48 134.596 369.6 134.956 369.48 135.076 369.36 134.716H369.24 368.76L368.88 136.516H368.04V137.116 137.236L367.8 137.356V136.516H367.08V136.276H367.8L367.68 136.036V135.796L367.56 135.556 367.44 135.316 367.32 135.196 367.2 134.956 366.96 134.716 366.84 134.596 366.96 134.476 367.2 134.596 367.32 134.836 367.56 135.076 367.68 135.316 367.8 135.556 367.92 135.796V136.036Z" fill-rule="evenodd"/><path transform="matrix(1,0,0,-1,0,595.276)" d="M366 130.156H364.2L364.32 130.516H364.44 364.32V130.636H364.2L363.84 130.036 363.48 129.556 363.72 129.436 363.96 129.676 364.08 130.036H364.8V129.076H363.48V128.956H364.8V127.636H365.04V128.956H366.24V129.076H365.04V130.036H366Z" fill-rule="evenodd"/><path transform="matrix(1,0,0,-1,0,595.276)" d="M373.2 129.556H372.48V130.036H372.96 373.08V130.156L372.96 130.276H372.48V130.516 130.636H372.36 372.24V130.276H371.64V130.156 130.036H372.24V129.556H371.52L371.4 129.436V129.316H371.52 373.2V129.436Z" fill-rule="evenodd"/><path transform="matrix(1,0,0,-1,0,595.276)" d="M372.6 129.196V128.956H371.52V128.836 128.716H372.6V127.996 127.876H372.48 372.24V127.756H372.6 372.72V127.876 128.716H372.84 373.08 373.2V128.836L373.08 128.956H372.84 372.72V129.076L372.84 129.196H372.72 372.6Z" fill-rule="evenodd"/><path transform="matrix(1,0,0,-1,0,595.276)" d="M371.64 128.596 371.52 128.476 371.88 128.236 372 128.116 372.12 128.236 371.88 128.476Z" fill-rule="evenodd"/><path transform="matrix(1,0,0,-1,0,595.276)" d="M370.44 128.116H370.56V128.476H370.68 371.04V128.356L371.16 128.236H371.28V128.356 130.276H370.44V128.116ZM370.56 129.316H370.68 371.04V128.596H370.68 370.56V129.316ZM371.04 129.556H370.68 370.56V130.156H370.68 371.04V129.556Z" fill-rule="evenodd"/><path transform="matrix(1,0,0,-1,0,595.276)" d="M366.84 129.436V129.316L367.8 129.436V128.116 127.996H367.92V127.876H368.04 369L369.24 127.996H369.36L369.48 128.116 369.6 128.356V128.596H369.48L369.36 128.236 369.24 128.116H369 368.28 368.04V129.436L369.6 129.676V129.796L368.04 129.676V130.516 130.636H367.92 367.8V129.556Z" fill-rule="evenodd"/><path transform="matrix(1,0,0,-1,0,595.276)" d="M358.44 130.036 358.8 129.676 357.36 129.556 357.84 130.276H359.16V130.396H356.64V130.276H357.6L357.12 129.556H356.64V129.436L356.76 129.316H356.88L358.92 129.556 359.04 129.196 359.28 129.316 358.92 129.796 358.68 130.156Z" fill-rule="evenodd"/><path transform="matrix(1,0,0,-1,0,595.276)" d="M357.96 127.996V128.716H359.04V128.836H357.96V129.196H358.08L357.96 129.316H357.84V128.836H356.76V128.716H357.84V127.996H356.52V127.876H359.28V127.996Z" fill-rule="evenodd"/><path transform="matrix(1,0,0,-1,0,595.276)" d="M360 130.516V130.396H361.2V127.876H361.44V129.556L361.92 129.196 362.28 128.956 362.4 129.076 361.92 129.436 361.44 129.796V130.396H362.76V130.516Z" fill-rule="evenodd"/><path transform="matrix(1,0,0,-1,0,595.276)" d="M348.6 130.156H346.8L346.92 130.516H347.04 346.92V130.636H346.8L346.44 130.036 346.08 129.556 346.32 129.436 346.56 129.676 346.68 130.036H347.4V129.076H346.08V128.956H347.4V127.636H347.64V128.956H348.84V129.076H347.64V130.036H348.6Z" fill-rule="evenodd"/><path transform="matrix(1,0,0,-1,0,595.276)" d="M355.8 129.556H355.08V130.036H355.56 355.68V130.156L355.56 130.276H355.08V130.516 130.636H354.96 354.84V130.276H354.24V130.156 130.036H354.84V129.556H354.12L354 129.436V129.316H354.12 355.8V129.436Z" fill-rule="evenodd"/><path transform="matrix(1,0,0,-1,0,595.276)" d="M355.2 129.196V128.956H354.12V128.836 128.716H355.2V127.996 127.876H355.08 354.84V127.756H354.96 355.2 355.32V127.876 128.716H355.44 355.68 355.8V128.836L355.68 128.956H355.44 355.32V129.076L355.44 129.196H355.32 355.2Z" fill-rule="evenodd"/><path transform="matrix(1,0,0,-1,0,595.276)" d="M354.24 128.596 354.12 128.476 354.48 128.236 354.72 128.116V128.236L354.48 128.476Z" fill-rule="evenodd"/><path transform="matrix(1,0,0,-1,0,595.276)" d="M353.04 128.116H353.16V128.476H353.28 353.64V128.356L353.76 128.236H353.88V128.356 130.276H353.04V128.116ZM353.16 129.316H353.28 353.64V128.596H353.28 353.16V129.316ZM353.64 129.556H353.28 353.16V130.156H353.28 353.64V129.556Z" fill-rule="evenodd"/><path transform="matrix(1,0,0,-1,0,595.276)" d="M342.6 130.516V130.396H343.8V127.876H344.04V129.556L344.52 129.196 344.88 128.956 345 129.076 344.52 129.436 344.04 129.796V130.396H345.36V130.516Z" fill-rule="evenodd"/><path transform="matrix(1,0,0,-1,0,595.276)" d="M349.56 130.396H352.08V127.756H351.84V128.116H349.8V127.756H349.56V130.396ZM349.8 130.276V128.236H351.84V130.276H351.24V128.836 128.716H351.48L351.6 128.956V129.196H351.72 351.84V129.076 128.956L351.72 128.716V128.596H351.6 351.12L351 128.716V128.836 130.276H350.64V129.916 129.676L350.52 129.436V129.196L350.4 128.956 350.28 128.836 350.16 128.596H349.92L349.8 128.716 349.92 128.836 350.04 128.956 350.16 129.076 350.28 129.196 350.4 129.436V129.676 130.036 130.276H349.8Z" fill-rule="evenodd"/><path transform="matrix(1,0,0,-1,0,595.276)" d="M359.4 133.276 358.8 131.956H359.16L359.76 133.276V133.636H358.44V133.276Z" fill-rule="evenodd"/><path transform="matrix(1,0,0,-1,0,595.276)" d="M358.2 132.196H357.72V132.556H358.2Z" fill-rule="evenodd"/><path transform="matrix(1,0,0,-1,0,595.276)" d="M355.8 131.956V132.676C355.8 132.796 355.92 132.916 356.04 132.916 356.16 132.916 356.28 132.796 356.28 132.796V131.956H356.64V132.676C356.64 132.796 356.76 132.916 356.76 132.916 356.88 132.916 356.88 132.916 356.88 132.796H357V131.956H357.36V132.796 132.916C357.24 133.156 357.12 133.276 356.88 133.276 356.64 133.276 356.52 133.156 356.52 133.036 356.4 133.156 356.28 133.276 356.16 133.276 356.04 133.276 356.04 133.276 355.92 133.156H355.8 355.44V131.956H355.8Z" fill-rule="evenodd"/><path transform="matrix(1,0,0,-1,0,595.276)" d="M352.44 132.196H351.48V132.556L352.32 133.636H352.8V132.556H353.04V132.196H352.8V131.956H352.44V132.196ZM352.44 133.276 351.96 132.556H352.44V133.276Z" fill-rule="evenodd"/><path transform="matrix(1,0,0,-1,0,595.276)" d="M354 131.476V133.156H354.36C354.36 133.156 354.48 133.276 354.6 133.276 354.84 133.276 354.96 133.156 355.08 133.036 355.2 132.916 355.2 132.796 355.2 132.556 355.2 132.076 354.96 131.836 354.6 131.836 354.48 131.836 354.36 131.836 354.36 131.956V131.476H354ZM354.6 132.196C354.72 132.196 354.84 132.196 354.84 132.316V132.436 132.676 132.796C354.84 132.916 354.72 132.916 354.6 132.916 354.48 132.916 354.36 132.796 354.36 132.676V132.436C354.36 132.316 354.36 132.316 354.36 132.196 354.48 132.196 354.48 132.196 354.6 132.196Z" fill-rule="evenodd"/><path transform="matrix(1,0,0,-1,0,595.276)" d="M362.52 131.956V132.676C362.52 132.796 362.64 132.916 362.64 132.916 362.76 132.916 362.88 132.796 362.88 132.796V131.956H363.24V132.676C363.24 132.796 363.36 132.916 363.48 132.916L363.6 132.796V131.956H363.96V132.796 132.916C363.84 133.156 363.72 133.276 363.48 133.276 363.36 133.276 363.24 133.156 363.12 133.036 363 133.156 362.88 133.276 362.76 133.276 362.76 133.276 362.64 133.276 362.64 133.156 362.52 133.156 362.52 133.156 362.4 133.156H362.16V131.956H362.52Z" fill-rule="evenodd"/><path transform="matrix(1,0,0,-1,0,595.276)" d="M360.6 131.476V133.156H360.96C360.96 133.156 361.08 133.276 361.2 133.276 361.68 133.276 361.8 133.036 361.8 132.556 361.8 132.076 361.56 131.836 361.32 131.836 361.08 131.836 360.96 131.836 360.96 131.956V131.476H360.6ZM361.2 132.196C361.32 132.196 361.44 132.196 361.44 132.316V132.436 132.676 132.796C361.44 132.916 361.32 132.916 361.2 132.916 361.08 132.916 360.96 132.796 360.96 132.676V132.436 132.316L361.08 132.196H361.2Z" fill-rule="evenodd"/><path transform="matrix(1,0,0,-1,0,595.276)" d="M330.36 120.316V140.956C330.36 141.076 330.36 141.076 330.36 141.196 330.48 141.316 330.48 141.316 330.48 141.436 330.6 141.436 330.72 141.556 330.72 141.556 330.84 141.556 330.96 141.556 330.96 141.556H384.6C384.72 141.556 384.72 141.556 384.84 141.556 384.96 141.556 384.96 141.436 385.08 141.436 385.08 141.316 385.2 141.316 385.2 141.196 385.2 141.076 385.2 141.076 385.2 140.956V120.316C385.2 120.196 385.2 120.076 385.2 120.076 385.2 119.956 385.08 119.956 385.08 119.836 384.96 119.716 384.96 119.716 384.84 119.716H384.72C384.72 119.596 384.6 119.596 384.6 119.596H330.96C330.96 119.596 330.84 119.716 330.72 119.716 330.72 119.716 330.6 119.716 330.48 119.836 330.48 119.956 330.48 119.956 330.36 120.076 330.36 120.076 330.36 120.196 330.36 120.316ZM330.6 120.316V120.316C330.6 120.196 330.72 120.196 330.72 120.196V120.076C330.72 119.956 330.84 119.956 330.84 119.956H330.96 384.6 384.72C384.84 119.956 384.84 119.956 384.84 120.076 384.84 120.076 384.96 120.076 384.96 120.196V120.316 140.956 141.076C384.96 141.196 384.84 141.196 384.84 141.196 384.84 141.196 384.84 141.316 384.72 141.316H384.6 330.96C330.84 141.316 330.84 141.316 330.72 141.196 330.72 141.196 330.6 141.076 330.6 140.956V120.316Z" fill-rule="evenodd"/></g></svg>