<?xml version='1.0' encoding='UTF-8'?>
<svg xmlns="http://www.w3.org/2000/svg" xmlns:xlink="http://www.w3.org/1999/xlink" xmlns:inkscape="http://www.inkscape.org/namespaces/inkscape" version="1.1" width="567.000" height="269.280" viewBox="0 0 567.000 269.280"><g transform="scale(10.0) translate(-438.573, -47.232)"><defs><clipPath id="clip_2"><path transform="matrix(1,0,0,-1,0,595.276)" d="M74.4 .196H767.4V595.276H74.4Z"/></clipPath></defs><path transform="matrix(1,0,0,-1,0,595.276)" stroke-width=".12" stroke-linecap="butt" stroke-miterlimit="10" stroke-linejoin="miter" fill="none" stroke="#ffffff" d="M493.5 522.5V522.5"/><path transform="matrix(1,0,0,-1,0,595.276)" stroke-width=".12" stroke-linecap="butt" stroke-miterlimit="10" stroke-linejoin="miter" fill="none" stroke="#ffffff" d="M493.5 546.5V546.5"/><path transform="matrix(1,0,0,-1,0,595.276)" d="M493.8 546.436C494.04 546.436 494.16 546.196 494.16 545.956V522.916C494.16 522.676 494.04 522.436 493.8 522.436H440.04C439.92 522.436 439.8 522.556 439.68 522.556 439.68 522.676 439.68 522.676 439.56 522.796V522.916 545.956C439.56 546.076 439.68 546.196 439.68 546.316 439.8 546.316 439.92 546.436 440.04 546.436H493.8Z" fill="#ffffff" fill-rule="evenodd"/><path transform="matrix(1,0,0,-1,0,595.276)" d="M466.44 542.596C466.56 542.596 466.8 542.596 466.92 542.716 467.04 542.836 467.16 542.956 467.16 543.196L466.8 543.316C466.68 543.076 466.56 542.956 466.44 543.076 466.2 543.076 466.08 543.196 465.96 543.436V543.556 543.676C466.08 543.916 466.2 544.036 466.32 544.036 466.44 544.036 466.56 544.036 466.56 544.036 466.68 543.916 466.68 543.916 466.8 543.796L467.16 543.916C467.04 544.276 466.8 544.516 466.32 544.516 465.84 544.516 465.6 544.156 465.48 543.556 465.48 542.956 465.84 542.596 466.44 542.596Z" fill-rule="evenodd"/><path transform="matrix(1,0,0,-1,0,595.276)" d="M471.72 543.076V544.036H471.36V544.396H471.72V544.996L472.2 545.116V544.396H472.68V544.036H472.2V543.196 543.076H472.32C472.44 542.956 472.44 543.076 472.44 543.076H472.56L472.68 542.596C472.56 542.596 472.44 542.596 472.2 542.596 471.84 542.596 471.72 542.716 471.72 543.076Z" fill-rule="evenodd"/><path transform="matrix(1,0,0,-1,0,595.276)" d="M464.4 543.196 464.04 542.596H463.56L464.16 543.556 463.56 544.396H464.16L464.4 543.916 464.64 544.396H465.24L464.64 543.556 465.24 542.596H464.64Z" fill-rule="evenodd"/><path transform="matrix(1,0,0,-1,0,595.276)" d="M461.4 542.596H463.2V543.196H461.88V543.676H462.96V544.156H461.88V544.636H463.08V545.116H461.4Z" fill-rule="evenodd"/><path transform="matrix(1,0,0,-1,0,595.276)" d="M468.72 543.196 468.96 542.836C468.96 542.836 468.84 542.716 468.72 542.596 468.6 542.596 468.48 542.596 468.24 542.596 468 542.596 467.76 542.716 467.64 542.956 467.4 543.076 467.4 543.316 467.4 543.556 467.4 544.156 467.76 544.516 468.24 544.516 468.48 544.516 468.72 544.396 468.84 544.156 468.96 544.036 469.08 543.676 469.08 543.316H467.88C467.88 543.316 468 543.196 468 543.076 468.12 543.076 468.24 542.956 468.24 543.076 468.48 543.076 468.6 543.076 468.72 543.196ZM467.88 543.796H468.6C468.48 543.916 468.36 544.036 468.24 544.036 468.12 544.036 468.12 544.036 468 543.916 467.88 543.916 467.88 543.796 467.88 543.796Z" fill-rule="evenodd"/><path transform="matrix(1,0,0,-1,0,595.276)" d="M469.44 544.516H469.92V544.396C469.92 544.396 470.16 544.516 470.28 544.516 470.88 544.516 471.12 544.156 471.12 543.556 471.12 543.316 471.12 543.076 470.88 542.836 470.76 542.596 470.52 542.596 470.4 542.596 470.16 542.596 469.92 542.596 469.92 542.716V541.996H469.44V544.516ZM470.28 543.076C470.4 543.076 470.64 543.076 470.64 543.316V543.796C470.64 544.036 470.4 544.036 470.28 544.036 470.04 544.036 469.92 543.916 469.92 543.796V543.316C469.92 543.316 469.92 543.196 470.04 543.076 470.16 543.076 470.16 543.076 470.28 543.076Z" fill-rule="evenodd"/><path transform="matrix(1,0,0,-1,0,595.276)" d="M454.08 540.316C454.44 540.196 454.68 539.956 454.68 539.596 454.68 539.236 454.32 538.996 453.84 538.996 453.72 538.996 453.6 539.116 453.36 539.116 453.24 539.236 453.12 539.236 453 539.356L453.36 539.716C453.48 539.596 453.72 539.476 453.96 539.476H454.08V539.596C454.08 539.716 453.96 539.836 453.72 539.836 453.36 539.836 453.24 540.076 453.12 540.316 453.24 540.796 453.48 541.036 453.96 541.036 454.08 541.036 454.2 540.916 454.32 540.916 454.44 540.916 454.56 540.796 454.56 540.676L454.32 540.316C454.2 540.436 454.08 540.556 453.96 540.556 453.84 540.556 453.84 540.556 453.72 540.556V540.436L454.08 540.316Z" fill-rule="evenodd"/><path transform="matrix(1,0,0,-1,0,595.276)" d="M452.52 539.596 452.76 539.356C452.76 539.236 452.64 539.236 452.52 539.116 452.4 538.996 452.16 538.996 452.04 538.996 451.8 538.996 451.56 539.116 451.32 539.356 451.2 539.476 451.2 539.716 451.2 539.956 451.2 540.676 451.44 540.916 452.04 540.916 452.28 540.916 452.52 540.796 452.64 540.676 452.76 540.436 452.88 540.196 452.76 539.836H451.68C451.68 539.716 451.68 539.596 451.8 539.596 451.92 539.476 452.04 539.476 452.04 539.476 452.28 539.476 452.4 539.596 452.52 539.596ZM451.68 540.196H452.4 452.28C452.28 540.436 452.16 540.556 452.04 540.556 451.92 540.556 451.8 540.556 451.8 540.436 451.68 540.316 451.68 540.316 451.68 540.196Z" fill-rule="evenodd"/><path transform="matrix(1,0,0,-1,0,595.276)" d="M445.68 540.796V541.636H445.2V539.116H445.68C445.92 539.116 446.04 538.996 446.16 538.996 446.64 538.996 447 539.356 447 539.956 447 540.556 446.64 540.916 446.16 540.916 445.92 540.916 445.8 540.916 445.68 540.796ZM445.68 539.716V540.316C445.8 540.316 445.8 540.436 445.92 540.436L446.04 540.556C446.4 540.436 446.52 540.316 446.52 539.956 446.52 539.596 446.4 539.476 446.04 539.476 445.92 539.476 445.8 539.596 445.68 539.716Z" fill-rule="evenodd"/><path transform="matrix(1,0,0,-1,0,595.276)" d="M448.44 539.116V539.116H449.04V540.916H448.44V539.836 539.716 539.596C448.32 539.596 448.2 539.476 448.2 539.476 448.08 539.476 447.96 539.476 447.96 539.596 447.84 539.716 447.84 539.716 447.84 539.836V540.916H447.36V539.596C447.36 539.476 447.36 539.356 447.6 539.236 447.72 539.116 447.84 538.996 448.08 538.996 448.08 538.996 448.2 538.996 448.32 539.116H448.44Z" fill-rule="evenodd"/><path transform="matrix(1,0,0,-1,0,595.276)" d="M450.36 540.316C450.72 540.196 450.96 539.956 450.96 539.596 450.96 539.236 450.6 538.996 450.12 538.996 450 538.996 449.88 539.116 449.64 539.116 449.52 539.236 449.4 539.236 449.28 539.356L449.64 539.716C449.76 539.596 450 539.476 450.24 539.476H450.36V539.596C450.36 539.716 450.24 539.836 450 539.836 449.64 539.836 449.52 540.076 449.4 540.316 449.52 540.796 449.76 541.036 450.24 541.036 450.36 541.036 450.48 540.916 450.6 540.916 450.72 540.916 450.84 540.796 450.84 540.676L450.6 540.316C450.48 540.436 450.36 540.556 450.24 540.556 450.12 540.556 450.12 540.556 450 540.556V540.436L450.36 540.316Z" fill-rule="evenodd"/><path transform="matrix(1,0,0,-1,0,595.276)" d="M464.16 539.116H464.64V540.916H464.16Z" fill-rule="evenodd"/><path transform="matrix(1,0,0,-1,0,595.276)" d="M464.76 541.396C464.76 541.516 464.52 541.636 464.4 541.636 464.28 541.636 464.16 541.516 464.16 541.396 464.16 541.156 464.28 541.036 464.4 541.036 464.52 541.036 464.76 541.156 464.76 541.396Z" fill-rule="evenodd"/><path transform="matrix(1,0,0,-1,0,595.276)" d="M456.6 540.916H457.08V540.796C457.08 540.916 457.32 540.916 457.56 540.916 457.8 540.916 458.04 540.916 458.16 540.676 458.28 540.556 458.4 540.316 458.4 540.076 458.4 539.476 458.04 538.996 457.56 538.996 457.32 538.996 457.2 539.116 457.08 539.236V538.516H456.6V540.916ZM457.44 539.476C457.56 539.476 457.8 539.596 457.8 539.716L457.92 539.836V540.196L457.8 540.316C457.8 540.436 457.56 540.556 457.44 540.556 457.32 540.556 457.08 540.436 457.08 540.316V539.836C457.08 539.716 457.2 539.716 457.2 539.596 457.32 539.476 457.44 539.476 457.44 539.476Z" fill-rule="evenodd"/><path transform="matrix(1,0,0,-1,0,595.276)" d="M465.96 538.996C466.2 538.996 466.32 539.116 466.44 539.116 466.56 539.236 466.68 539.356 466.68 539.596L466.32 539.836C466.2 539.596 466.08 539.476 465.96 539.476 465.72 539.476 465.6 539.596 465.48 539.836V539.956 540.076C465.6 540.316 465.72 540.556 465.96 540.556 465.96 540.556 466.08 540.556 466.2 540.436 466.2 540.436 466.32 540.316 466.32 540.196L466.68 540.436C466.56 540.796 466.32 541.036 465.84 540.916 465.36 540.916 465.12 540.676 465 539.956 465 539.356 465.36 538.996 465.96 538.996Z" fill-rule="evenodd"/><path transform="matrix(1,0,0,-1,0,595.276)" d="M463.8 539.596C463.56 539.476 463.44 539.476 463.44 539.596V541.636H462.96V539.476 539.356C463.08 539.236 463.2 539.116 463.44 539.116 463.56 539.116 463.68 539.116 463.68 539.116H463.8V539.596Z" fill-rule="evenodd"/><path transform="matrix(1,0,0,-1,0,595.276)" d="M459.84 539.116V539.116H460.32V540.916H459.84V539.836C459.84 539.716 459.84 539.716 459.84 539.596 459.72 539.596 459.6 539.476 459.48 539.476 459.48 539.476 459.36 539.476 459.36 539.596 459.24 539.716 459.24 539.716 459.24 539.836V540.916H458.76V539.596C458.76 539.476 458.76 539.356 458.88 539.236 459.12 539.116 459.24 538.996 459.48 538.996 459.48 538.996 459.6 538.996 459.72 539.116H459.84Z" fill-rule="evenodd"/><path transform="matrix(1,0,0,-1,0,595.276)" d="M461.4 540.796V541.636H460.92V539.116H461.4C461.52 539.116 461.64 538.996 461.88 538.996 462.36 538.996 462.72 539.356 462.72 539.956 462.72 540.196 462.6 540.436 462.48 540.676 462.24 540.916 462.12 540.916 461.88 540.916 461.64 540.916 461.52 540.916 461.4 540.796ZM461.4 539.716V540.316L461.52 540.436C461.64 540.436 461.64 540.556 461.76 540.556 462 540.436 462.12 540.316 462.12 539.956 462.12 539.596 462 539.476 461.76 539.476 461.52 539.476 461.4 539.596 461.4 539.716Z" fill-rule="evenodd"/><path transform="matrix(1,0,0,-1,0,595.276)" d="M485.28 540.316C485.64 540.196 485.88 539.956 485.88 539.596 485.88 539.476 485.76 539.356 485.64 539.236 485.52 539.116 485.28 538.996 485.04 538.996 484.92 538.996 484.8 539.116 484.56 539.116 484.44 539.236 484.32 539.236 484.2 539.356L484.56 539.716C484.68 539.596 484.92 539.476 485.16 539.476H485.28V539.596C485.28 539.716 485.16 539.836 484.92 539.836 484.56 539.836 484.44 540.076 484.32 540.316 484.44 540.796 484.68 541.036 485.16 541.036 485.28 541.036 485.4 540.916 485.52 540.916 485.64 540.916 485.76 540.796 485.76 540.676L485.52 540.316C485.4 540.436 485.28 540.556 485.16 540.556 485.04 540.556 484.92 540.556 484.92 540.556V540.436L485.28 540.316Z" fill-rule="evenodd"/><path transform="matrix(1,0,0,-1,0,595.276)" d="M472.56 540.436C472.68 540.436 472.8 540.436 472.8 540.436L472.92 540.316V539.116H473.4V540.436C473.4 540.556 473.4 540.676 473.16 540.796 473.04 540.916 472.92 540.916 472.68 540.916 472.56 540.916 472.32 540.916 472.32 540.796V541.636H471.84V539.116H472.32V540.196C472.32 540.196 472.32 540.316 472.44 540.436H472.56Z" fill-rule="evenodd"/><path transform="matrix(1,0,0,-1,0,595.276)" d="M483.72 539.596 483.96 539.356C483.96 539.236 483.84 539.236 483.72 539.116 483.6 538.996 483.36 538.996 483.24 538.996 483 538.996 482.76 539.116 482.52 539.356 482.4 539.476 482.4 539.716 482.4 539.956 482.4 540.676 482.64 540.916 483.12 540.916 483.48 540.916 483.72 540.796 483.84 540.676 483.96 540.436 484.08 540.196 483.96 539.836H482.88C482.88 539.716 482.88 539.596 483 539.596 483.12 539.476 483.24 539.476 483.24 539.476 483.48 539.476 483.6 539.596 483.72 539.596ZM482.88 540.196H483.48C483.48 540.436 483.36 540.556 483.24 540.556 483.12 540.556 483 540.556 483 540.436 482.88 540.316 482.88 540.316 482.88 540.196Z" fill-rule="evenodd"/><path transform="matrix(1,0,0,-1,0,595.276)" d="M468.84 539.116H469.32V540.916H468.84Z" fill-rule="evenodd"/><path transform="matrix(1,0,0,-1,0,595.276)" d="M469.32 541.396C469.32 541.516 469.2 541.636 469.08 541.636 468.84 541.636 468.72 541.516 468.72 541.396 468.72 541.156 468.84 541.036 469.08 541.036 469.2 541.036 469.32 541.156 469.32 541.396Z" fill-rule="evenodd"/><path transform="matrix(1,0,0,-1,0,595.276)" d="M468.48 539.596C468.24 539.476 468.12 539.476 468.12 539.596V541.636H467.64V539.476 539.356C467.64 539.236 467.88 539.116 468.12 539.116 468.24 539.116 468.24 539.116 468.36 539.116H468.48V539.596Z" fill-rule="evenodd"/><path transform="matrix(1,0,0,-1,0,595.276)" d="M469.68 539.956C469.68 540.676 469.92 540.916 470.4 540.916 470.64 540.916 470.88 540.916 470.88 540.796V540.916H471.36V538.996C471.24 538.636 471 538.396 470.52 538.396 470.4 538.396 470.16 538.516 470.04 538.516 469.92 538.636 469.68 538.636 469.68 538.756L469.92 539.116C470.16 538.996 470.4 538.876 470.52 538.876 470.64 538.876 470.64 538.996 470.76 538.996 470.76 538.996 470.76 539.116 470.76 539.236 470.76 539.236 470.64 539.116 470.4 539.116 469.92 539.236 469.68 539.476 469.68 539.956ZM470.52 539.596C470.64 539.596 470.64 539.596 470.76 539.716V539.836 540.196C470.76 540.436 470.64 540.436 470.52 540.436 470.28 540.436 470.16 540.316 470.16 540.076 470.16 539.716 470.28 539.596 470.52 539.596Z" fill-rule="evenodd"/><path transform="matrix(1,0,0,-1,0,595.276)" d="M474.12 539.476V540.436H473.88V540.916H474.12V541.396L474.6 541.636V540.916H475.08V540.436H474.6V539.716C474.6 539.596 474.72 539.596 474.72 539.596 474.72 539.476 474.72 539.476 474.84 539.476H474.96 475.08L475.2 539.116C475.08 538.996 474.96 538.996 474.6 538.996 474.36 538.996 474.24 539.236 474.12 539.476Z" fill-rule="evenodd"/><path transform="matrix(1,0,0,-1,0,595.276)" d="M476.88 540.796V541.636H476.4V539.116H476.88C477 539.116 477.24 538.996 477.36 538.996 477.6 538.996 477.84 539.116 477.96 539.236 478.08 539.476 478.2 539.716 478.2 539.956 478.2 540.556 477.84 540.916 477.36 540.916 477.12 540.916 477 540.916 476.88 540.796ZM476.88 539.716V540.316C477 540.316 477 540.436 477.12 540.436L477.24 540.556C477.6 540.436 477.72 540.316 477.72 539.956 477.72 539.596 477.48 539.476 477.24 539.476 477.12 539.476 477 539.596 476.88 539.716Z" fill-rule="evenodd"/><path transform="matrix(1,0,0,-1,0,595.276)" d="M479.64 539.116V539.116H480.24V540.916H479.64V539.836 539.716 539.596C479.52 539.596 479.4 539.476 479.4 539.476 479.28 539.476 479.16 539.476 479.16 539.596 479.04 539.716 479.04 539.716 479.04 539.836V540.916H478.56V539.596C478.56 539.476 478.56 539.356 478.8 539.236 478.92 539.116 479.04 538.996 479.28 538.996 479.28 538.996 479.4 538.996 479.52 539.116H479.64Z" fill-rule="evenodd"/><path transform="matrix(1,0,0,-1,0,595.276)" d="M481.56 540.316C481.92 540.196 482.16 539.956 482.16 539.596 482.16 539.476 482.04 539.356 481.92 539.236 481.8 539.116 481.56 538.996 481.32 538.996 481.2 538.996 481.08 539.116 480.84 539.116 480.72 539.236 480.6 539.236 480.48 539.356L480.84 539.716C480.96 539.596 481.2 539.476 481.44 539.476H481.56V539.596C481.56 539.716 481.44 539.836 481.2 539.836 480.84 539.836 480.72 540.076 480.6 540.316 480.72 540.796 480.96 541.036 481.44 541.036 481.56 541.036 481.68 540.916 481.8 540.916 481.92 540.916 482.04 540.796 482.04 540.676L481.8 540.316C481.68 540.436 481.56 540.556 481.44 540.556 481.32 540.556 481.2 540.556 481.2 540.556V540.436L481.56 540.316Z" fill-rule="evenodd"/><path transform="matrix(1,0,0,-1,0,595.276)" d="M452.52 537.316 453 536.116 453.36 537.316H453.84L453.24 535.636H453 452.64L452.04 537.316Z" fill-rule="evenodd"/><path transform="matrix(1,0,0,-1,0,595.276)" d="M443.28 536.476C443.28 536.116 443.28 535.876 443.52 535.756 443.64 535.516 443.88 535.516 444.12 535.516 444.36 535.516 444.6 535.516 444.84 535.756 444.96 535.876 445.08 536.116 445.08 536.476 445.08 537.076 444.72 537.436 444.12 537.436 443.88 537.436 443.64 537.316 443.52 537.196 443.28 536.956 443.28 536.716 443.28 536.476ZM444.12 536.956C444.36 536.956 444.48 536.716 444.48 536.476 444.48 536.356 444.48 536.236 444.36 536.116 444.36 535.996 444.24 535.996 444.12 535.996 443.88 535.996 443.76 536.116 443.76 536.476 443.76 536.596 443.76 536.716 443.88 536.836 443.88 536.956 444 536.956 444.12 536.956Z" fill-rule="evenodd"/><path transform="matrix(1,0,0,-1,0,595.276)" d="M441.12 536.476C441.12 537.076 441.36 537.436 441.96 537.436 442.2 537.436 442.32 537.316 442.32 537.316H442.8V535.516C442.8 535.156 442.44 534.916 441.96 534.916 441.84 534.916 441.72 534.916 441.48 535.036 441.36 535.036 441.24 535.156 441.12 535.156L441.36 535.636C441.72 535.396 441.84 535.396 442.08 535.396 442.08 535.396 442.2 535.396 442.2 535.516 442.32 535.516 442.32 535.516 442.32 535.636V535.756C442.32 535.636 442.08 535.636 441.96 535.636 441.48 535.636 441.24 535.876 441.12 536.476ZM442.08 535.996C442.08 536.116 442.2 536.116 442.2 536.116 442.32 536.236 442.32 536.236 442.32 536.356V536.716C442.32 536.836 442.2 536.956 441.96 536.956 441.84 536.956 441.6 536.716 441.6 536.476 441.6 536.236 441.84 536.116 442.08 535.996Z" fill-rule="evenodd"/><path transform="matrix(1,0,0,-1,0,595.276)" d="M445.32 536.476C445.32 536.116 445.32 535.876 445.56 535.756 445.68 535.516 445.92 535.516 446.16 535.516 446.4 535.516 446.64 535.516 446.88 535.756 447 535.876 447 536.116 447 536.476 447 537.076 446.76 537.436 446.16 537.436 445.92 537.436 445.68 537.316 445.56 537.196 445.32 536.956 445.32 536.716 445.32 536.476ZM446.16 536.956C446.4 536.956 446.52 536.716 446.52 536.476 446.52 536.356 446.52 536.236 446.4 536.116 446.4 535.996 446.28 535.996 446.16 535.996 445.92 535.996 445.8 536.116 445.8 536.476 445.8 536.716 445.92 536.956 446.16 536.956Z" fill-rule="evenodd"/><path transform="matrix(1,0,0,-1,0,595.276)" d="M448.56 537.316C448.44 537.316 448.2 537.436 448.08 537.436 447.72 537.436 447.36 537.076 447.36 536.596V536.356C447.36 535.756 447.72 535.516 448.2 535.516 448.32 535.516 448.44 535.516 448.56 535.636V535.516H449.04V538.036H448.56V537.316ZM447.84 536.476C447.84 536.716 447.96 536.956 448.2 536.956 448.32 536.956 448.44 536.956 448.44 536.836H448.56V536.716 536.596 536.116L448.44 535.996C448.32 535.996 448.32 535.876 448.2 535.876 447.96 535.876 447.84 536.116 447.84 536.476Z" fill-rule="evenodd"/><path transform="matrix(1,0,0,-1,0,595.276)" d="M450.36 536.716C450.72 536.716 450.96 536.476 450.96 536.116 450.96 535.756 450.72 535.516 450.24 535.516 450 535.516 449.88 535.516 449.76 535.636 449.52 535.636 449.52 535.756 449.4 535.876L449.76 536.236C449.88 535.996 450 535.996 450.24 535.996H450.36C450.36 535.996 450.48 535.996 450.48 536.116 450.48 536.236 450.24 536.236 450 536.236 449.64 536.356 449.52 536.476 449.52 536.836 449.52 537.196 449.76 537.436 450.24 537.436 450.48 537.436 450.6 537.436 450.72 537.436 450.72 537.316 450.84 537.196 450.96 537.196L450.6 536.836C450.6 536.956 450.36 537.076 450.24 537.076 450.12 537.076 450.12 536.956 450 536.956V536.836L450.36 536.716Z" fill-rule="evenodd"/><path transform="matrix(1,0,0,-1,0,595.276)" d="M455.28 536.116 455.64 535.756C455.52 535.756 455.52 535.636 455.4 535.516 455.16 535.516 455.04 535.516 454.92 535.516 454.68 535.516 454.44 535.636 454.2 535.876 454.08 535.996 454.08 536.236 454.08 536.476 454.08 537.076 454.32 537.436 454.8 537.436 455.16 537.436 455.28 537.316 455.52 537.076 455.64 536.956 455.64 536.596 455.64 536.236H454.56C454.56 536.236 454.56 536.116 454.68 535.996 454.68 535.996 454.8 535.876 454.92 535.996 455.04 535.996 455.28 535.996 455.28 536.116ZM454.56 536.716H455.16C455.16 536.836 455.04 536.956 454.8 536.956 454.8 536.956 454.68 536.956 454.68 536.836 454.56 536.836 454.56 536.716 454.56 536.716Z" fill-rule="evenodd"/><path transform="matrix(1,0,0,-1,0,595.276)" d="M458.16 537.316V535.636H458.64V537.316Z" fill-rule="evenodd"/><path transform="matrix(1,0,0,-1,0,595.276)" d="M456.48 536.596V535.636H456V538.036H456.48V537.316C456.48 537.316 456.6 537.316 456.6 537.436 456.72 537.436 456.84 537.436 456.96 537.436 457.08 537.436 457.32 537.436 457.44 537.316 457.56 537.196 457.68 536.956 457.68 536.836V535.636H457.08V536.716 536.836C456.96 536.956 456.96 536.956 456.84 536.956 456.72 536.956 456.48 536.836 456.48 536.596Z" fill-rule="evenodd"/><path transform="matrix(1,0,0,-1,0,595.276)" d="M458.76 537.796C458.76 537.916 458.64 538.156 458.4 538.156 458.28 538.156 458.16 537.916 458.16 537.796 458.16 537.676 458.28 537.556 458.4 537.556 458.64 537.556 458.76 537.676 458.76 537.796Z" fill-rule="evenodd"/><path transform="matrix(1,0,0,-1,0,595.276)" d="M459.96 535.516C460.2 535.516 460.32 535.516 460.44 535.636 460.56 535.756 460.68 535.876 460.68 536.116L460.32 536.236C460.2 535.996 460.08 535.876 459.96 535.996 459.72 535.996 459.6 536.116 459.6 536.356H459.48V536.476 536.596C459.6 536.836 459.72 536.956 459.96 536.956 459.96 536.956 460.08 536.956 460.2 536.956 460.2 536.836 460.32 536.836 460.32 536.716L460.68 536.836C460.56 537.196 460.32 537.436 459.96 537.436 459.36 537.436 459.12 537.076 459 536.476 459.12 535.876 459.36 535.516 459.96 535.516Z" fill-rule="evenodd"/><path transform="matrix(1,0,0,-1,0,595.276)" d="M461.52 538.036V536.116 535.996C461.52 535.996 461.64 535.996 461.76 535.996L461.88 535.636C461.88 535.516 461.76 535.516 461.76 535.516 461.64 535.516 461.52 535.516 461.52 535.516 461.28 535.516 461.04 535.636 461.04 535.876V535.996 538.036H461.52Z" fill-rule="evenodd"/><path transform="matrix(1,0,0,-1,0,595.276)" d="M464.88 536.716C465.36 536.716 465.48 536.476 465.48 536.116 465.48 535.756 465.24 535.516 464.76 535.516 464.64 535.516 464.4 535.516 464.28 535.636 464.16 535.636 464.04 535.756 463.92 535.876L464.28 536.236C464.4 535.996 464.64 535.996 464.76 535.996 464.88 535.996 464.88 535.996 465 535.996V536.116C465 536.236 464.88 536.236 464.64 536.236 464.28 536.356 464.04 536.476 464.04 536.836 464.04 537.196 464.28 537.436 464.88 537.436 465 537.436 465.12 537.436 465.24 537.436 465.36 537.316 465.48 537.196 465.48 537.196L465.24 536.836C465.12 536.956 465 537.076 464.76 537.076L464.64 536.956C464.64 536.956 464.52 536.956 464.52 536.836L464.88 536.716Z" fill-rule="evenodd"/><path transform="matrix(1,0,0,-1,0,595.276)" d="M463.32 536.116 463.68 535.756C463.56 535.756 463.56 535.636 463.44 535.516 463.2 535.516 463.08 535.516 462.96 535.516 462.72 535.516 462.48 535.636 462.24 535.876 462.12 535.996 462 536.236 462 536.476 462.12 537.076 462.36 537.436 462.84 537.436 463.2 537.436 463.32 537.316 463.56 537.076 463.68 536.956 463.68 536.596 463.68 536.236H462.6C462.6 536.236 462.6 536.116 462.72 535.996 462.72 535.996 462.84 535.876 462.96 535.996 463.08 535.996 463.32 535.996 463.32 536.116ZM462.6 536.716H463.2C463.2 536.836 463.08 536.956 462.84 536.956 462.84 536.956 462.72 536.956 462.72 536.836 462.6 536.836 462.6 536.716 462.6 536.716Z" fill-rule="evenodd"/><path transform="matrix(1,0,0,-1,0,595.276)" d="M466.68 536.476C466.68 535.876 467.04 535.516 467.64 535.516 468.12 535.516 468.48 535.876 468.48 536.476 468.48 537.076 468.12 537.436 467.64 537.436 467.28 537.436 467.16 537.316 466.92 537.196 466.8 536.956 466.68 536.716 466.68 536.476ZM467.64 536.956C467.88 536.956 468 536.716 468 536.476 468 536.116 467.88 535.996 467.64 535.996 467.4 535.996 467.28 536.116 467.28 536.476 467.28 536.716 467.4 536.956 467.64 536.956Z" fill-rule="evenodd"/><path transform="matrix(1,0,0,-1,0,595.276)" d="M469.2 537.316 469.56 536.116 469.92 537.316H470.4L469.8 535.636H469.56 469.2L468.6 537.316Z" fill-rule="evenodd"/><path transform="matrix(1,0,0,-1,0,595.276)" d="M471.96 536.116 472.2 535.756C472.2 535.756 472.08 535.636 471.96 535.516 471.84 535.516 471.72 535.516 471.6 535.516 471.36 535.516 471 535.636 470.88 535.876 470.76 535.996 470.64 536.236 470.64 536.476 470.76 537.076 471 537.436 471.48 537.436 471.72 537.436 471.96 537.316 472.08 537.076 472.2 536.956 472.32 536.596 472.32 536.236H471.12C471.12 536.236 471.24 536.116 471.24 535.996 471.36 535.996 471.48 535.876 471.6 535.996 471.72 535.996 471.84 535.996 471.96 536.116ZM471.12 536.716H471.84C471.84 536.836 471.6 536.956 471.48 536.956 471.36 536.956 471.36 536.956 471.24 536.836L471.12 536.716Z" fill-rule="evenodd"/><path transform="matrix(1,0,0,-1,0,595.276)" d="M473.16 536.596V535.636H472.68V537.436H473.16V537.196C473.16 537.316 473.28 537.316 473.4 537.436 473.4 537.436 473.52 537.436 473.76 537.436V536.956C473.52 536.956 473.4 536.836 473.28 536.836 473.28 536.836 473.16 536.716 473.16 536.596Z" fill-rule="evenodd"/><path transform="matrix(1,0,0,-1,0,595.276)" stroke-width=".12" stroke-linecap="butt" stroke-miterlimit="10" stroke-linejoin="miter" fill="none" stroke="#000000" d="M475.5 535.5H476.5"/><path transform="matrix(1,0,0,-1,0,595.276)" d="M475.92 535.996V535.996C475.8 535.996 475.68 535.996 475.56 536.116 475.56 536.116 475.44 536.236 475.44 536.356L474.96 536.116C474.96 535.996 475.08 535.756 475.32 535.636 475.44 535.516 475.68 535.516 475.92 535.516 476.16 535.516 476.4 535.516 476.64 535.756 476.76 535.876 476.88 536.116 476.88 536.356 476.88 537.076 476.52 537.316 475.92 537.316 475.92 537.316 475.8 537.316 475.68 537.316H475.56V537.556H476.64V538.036H475.08L474.96 536.716H475.56C475.56 536.716 475.56 536.836 475.68 536.836H475.8C475.92 536.836 476.04 536.836 476.16 536.716 476.28 536.716 476.28 536.596 476.28 536.476 476.28 536.236 476.16 535.996 475.92 535.996Z" fill-rule="evenodd"/><path transform="matrix(1,0,0,-1,0,595.276)" stroke-width=".12" stroke-linecap="round" stroke-linejoin="round" fill="none" stroke="#000000" d="M479.16 535.996C479.4 535.996 479.4 535.996 479.16 535.996"/><path transform="matrix(1,0,0,-1,0,595.276)" d="M479.16 535.996V535.996C479.04 535.996 478.92 535.996 478.92 536.116 478.8 536.116 478.8 536.236 478.68 536.356L478.2 536.116C478.32 535.996 478.44 535.756 478.56 535.636 478.8 535.516 478.92 535.516 479.16 535.516 479.76 535.516 480.12 535.876 480.12 536.356 480.12 536.716 480.12 536.956 479.88 537.076 479.76 537.316 479.52 537.316 479.28 537.316 479.16 537.316 479.04 537.316 479.04 537.316 478.92 537.316 478.8 537.316 478.8 537.316H478.92V537.556H480V538.036H478.44L478.32 536.716H478.8C478.8 536.836 479.04 536.836 479.16 536.836 479.28 536.836 479.4 536.836 479.52 536.716L479.64 536.596V536.476L479.16 535.996Z" fill-rule="evenodd"/><path transform="matrix(1,0,0,-1,0,595.276)" d="M477.84 535.756C477.84 535.876 477.72 535.996 477.6 535.996 477.36 535.996 477.24 535.876 477.24 535.756 477.24 535.636 477.36 535.516 477.6 535.516 477.72 535.516 477.84 535.636 477.84 535.756Z" fill-rule="evenodd"/><path transform="matrix(1,0,0,-1,0,595.276)" d="M481.68 535.996V536.956H481.32V537.316H481.68V537.916L482.16 538.036V537.316H482.64V536.956H482.16V536.116 535.996H482.28C482.4 535.876 482.4 535.996 482.4 535.996H482.52L482.64 535.636C482.52 535.516 482.4 535.516 482.16 535.516 481.8 535.516 481.68 535.636 481.68 535.996Z" fill-rule="evenodd"/><path transform="matrix(1,0,0,-1,0,595.276)" d="M482.88 536.476C482.88 536.116 483 535.876 483.12 535.756 483.24 535.516 483.48 535.516 483.84 535.516 484.32 535.516 484.68 535.876 484.68 536.476 484.68 537.076 484.32 537.436 483.84 537.436 483.48 537.436 483.24 537.316 483.12 537.196 483 536.956 482.88 536.716 482.88 536.476ZM483.84 536.956C483.96 536.956 484.2 536.716 484.2 536.476 484.2 536.116 483.96 535.996 483.84 535.996 483.72 535.996 483.6 535.996 483.48 536.116 483.48 536.236 483.48 536.356 483.48 536.476 483.48 536.716 483.6 536.956 483.84 536.956Z" fill-rule="evenodd"/><path transform="matrix(1,0,0,-1,0,595.276)" d="M492 536.716C492.48 536.716 492.6 536.476 492.6 536.116 492.6 535.756 492.36 535.516 491.88 535.516 491.64 535.516 491.52 535.516 491.4 535.636 491.28 535.636 491.16 535.756 491.04 535.876L491.4 536.236C491.52 535.996 491.64 535.996 491.88 535.996H492C492.12 535.996 492.12 535.996 492.12 536.116 492.12 536.236 492 536.236 491.64 536.236 491.4 536.356 491.16 536.476 491.16 536.836 491.16 537.196 491.4 537.436 491.88 537.436 492.12 537.436 492.24 537.436 492.36 537.436 492.48 537.316 492.48 537.196 492.6 537.196L492.36 536.836C492.24 536.956 492.12 537.076 491.88 537.076L491.76 536.956C491.64 536.956 491.64 536.956 491.64 536.836L492 536.716Z" fill-rule="evenodd"/><path transform="matrix(1,0,0,-1,0,595.276)" d="M490.44 536.116 490.8 535.756C490.68 535.756 490.68 535.636 490.44 535.516 490.32 535.516 490.2 535.516 490.08 535.516 489.84 535.516 489.6 535.636 489.36 535.876 489.24 535.996 489.12 536.236 489.12 536.476 489.24 537.076 489.48 537.436 489.96 537.436 490.2 537.436 490.44 537.316 490.56 537.076 490.8 536.956 490.8 536.596 490.8 536.236H489.72C489.72 536.236 489.72 536.116 489.84 535.996 489.84 535.996 489.96 535.876 490.08 535.996 490.2 535.996 490.44 535.996 490.44 536.116ZM489.6 536.716H490.32C490.32 536.836 490.08 536.956 489.96 536.956 489.96 536.956 489.84 536.956 489.72 536.836 489.72 536.836 489.72 536.716 489.6 536.716Z" fill-rule="evenodd"/><path transform="matrix(1,0,0,-1,0,595.276)" d="M485.88 536.956C485.64 536.956 485.52 536.836 485.52 536.716V535.636H485.04V537.436H485.52V537.316C485.52 537.316 485.64 537.316 485.64 537.436 485.76 537.436 485.88 537.436 485.88 537.436 486.36 537.436 486.6 537.196 486.6 536.836V535.636H486.12V536.596 536.716C486.12 536.836 486 536.956 485.88 536.956Z" fill-rule="evenodd"/><path transform="matrix(1,0,0,-1,0,595.276)" d="M487.92 536.956C487.8 536.956 487.68 536.836 487.68 536.716V535.636H487.08V537.436H487.68V537.316L487.8 537.436C487.92 537.436 487.92 537.436 488.04 537.436 488.52 537.436 488.76 537.196 488.76 536.836V535.636H488.28V536.596 536.716C488.28 536.836 488.16 536.956 487.92 536.956Z" fill-rule="evenodd"/><path transform="matrix(1,0,0,-1,0,595.276)" d="M488.16 539.956 487.8 540.436H487.92C487.92 540.436 488.04 540.436 488.04 540.556H488.16C488.28 540.796 488.28 541.276 488.04 541.396 487.92 541.636 487.44 541.756 487.2 541.516 486.96 541.276 486.96 540.796 487.2 540.556 486.84 540.436 486.72 540.196 486.72 539.836 486.72 539.596 486.84 539.356 486.96 539.236 487.08 539.116 487.32 538.996 487.56 538.996 487.8 538.996 487.92 539.116 488.04 539.116 488.16 539.116 488.28 539.116 488.4 539.116 488.52 539.116 488.64 539.116 488.64 539.116H488.76L488.64 539.476C488.52 539.476 488.52 539.476 488.4 539.476 488.64 539.716 488.76 539.956 488.76 540.196H488.28V540.076C488.28 539.956 488.16 539.956 488.16 539.956ZM487.8 539.596C487.68 539.476 487.68 539.476 487.56 539.476 487.44 539.476 487.32 539.596 487.32 539.596 487.2 539.836 487.2 540.076 487.44 540.196L487.8 539.596ZM487.68 541.156C487.68 541.156 487.8 541.156 487.8 541.036 487.8 540.916 487.68 540.796 487.56 540.796 487.56 540.916 487.44 540.916 487.44 541.036 487.44 541.156 487.56 541.156 487.68 541.156Z" fill-rule="evenodd"/><path transform="matrix(1,0,0,-1,0,595.276)" d="M485.4 525.196 485.16 524.836 484.8 524.476 484.44 524.236V524.116L484.56 523.996H484.68L485.04 524.236 485.4 524.596 485.76 524.956 486 525.436 486.24 526.156 486.48 527.116V527.236 527.356H486.36L486.24 527.476H485.52L485.64 527.836H485.76V527.956H485.64L485.4 528.076 485.16 527.476 484.92 526.876 484.68 526.396 484.32 525.916 484.56 525.796 484.92 526.156 485.76 525.676 485.4 525.196ZM485.04 526.396 485.4 527.236H486.24L486 526.516 485.88 525.916 485.04 526.396Z" fill-rule="evenodd"/><path transform="matrix(1,0,0,-1,0,595.276)" d="M487.2 525.916V523.996H487.44V525.796L487.8 525.556 488.28 525.316 488.4 525.556 487.8 525.796 487.44 526.036V527.956H487.56 487.44V528.076H487.2V526.276L486.84 526.636 486.72 526.516Z" fill-rule="evenodd"/><path transform="matrix(1,0,0,-1,0,595.276)" d="M482.4 527.356V524.956H482.64V527.236H482.76L482.64 527.356Z" fill-rule="evenodd"/><path transform="matrix(1,0,0,-1,0,595.276)" d="M483.24 524.236 483.36 524.356V524.476 527.716 527.836H483.48 483.36 483.24L483 527.956V524.596 524.476 524.356H482.88 482.64L482.52 524.236V524.116L482.64 523.996H483L483.12 524.116Z" fill-rule="evenodd"/><path transform="matrix(1,0,0,-1,0,595.276)" d="M480.84 526.396 480.6 526.036 480.48 525.676 480.6 525.556H480.72V525.676L480.96 526.036 481.2 526.516H481.8L481.68 526.036 481.56 525.556 481.08 525.796 480.96 525.676 481.56 525.316 481.44 525.076 481.2 524.716 481.08 524.476 480.84 524.236 480.96 524.116H481.08L481.32 524.236 481.44 524.476 481.56 524.836 481.8 525.076 481.92 525.436 482.04 526.156V526.756H481.2L481.32 527.476H482.16V527.716H480.72V527.476H481.08L480.96 526.876Z" fill-rule="evenodd"/><path transform="matrix(1,0,0,-1,0,595.276)" d="M480.24 526.996V523.996H480V526.396L479.64 526.036V525.916L479.52 526.036 479.4 526.156 479.64 526.516 479.88 526.996 480.12 527.476 480.24 528.076 480.6 527.836V527.716H480.48Z" fill-rule="evenodd"/><path transform="matrix(1,0,0,-1,0,595.276)" d="M453.72 531.916V532.156H451.92V533.476H452.04V533.596H451.92 451.8 451.68V532.156H449.88V531.916H451.68V530.116H450.24V529.876H453.48V530.116H451.92V531.916Z" fill-rule="evenodd"/><path transform="matrix(1,0,0,-1,0,595.276)" d="M448.2 531.796V531.436H448.44V533.596H445.2V530.236 530.116 529.996H445.32 445.44 447.96 448.2 448.44L448.56 530.116 448.68 530.356 448.8 530.596V530.716L448.56 530.836H448.44L448.32 530.356 448.2 530.236H447.96 445.56 445.44V530.356 531.796H448.2ZM446.88 532.036V533.356H448.2V532.036H446.88ZM446.64 532.036H445.44V533.356H446.64V532.036Z" fill-rule="evenodd"/><path transform="matrix(1,0,0,-1,0,595.276)" d="M447 528.076 446.76 528.196 446.52 527.956 446.28 527.716 445.92 527.476 445.68 527.356H445.56L445.68 527.236V527.116H445.8L446.28 527.476V526.756H446.64V527.596L447 527.956Z" fill-rule="evenodd"/><path transform="matrix(1,0,0,-1,0,595.276)" d="M447.48 527.596V527.956L447.6 528.076H447.24V527.116 526.996L447.36 526.876H447.48 447.72 448.8 449.04L449.16 526.996H449.28L449.4 527.236V527.356H449.28L449.16 527.476V527.356 527.236L449.04 527.116H448.92 448.8 447.84 447.72 447.6L447.48 527.236V527.476L448.32 527.596 449.16 527.836V527.716L449.28 527.836 449.16 527.956 448.32 527.836Z" fill-rule="evenodd"/><path transform="matrix(1,0,0,-1,0,595.276)" d="M447.96 524.596 448.56 524.356 449.04 524.116H449.16L449.28 524.236V524.356L448.68 524.476 448.2 524.716H448.92V526.636H446.16V524.716H446.88L446.4 524.596 445.8 524.356H445.68V524.236L445.8 524.116H445.92L446.52 524.356 447 524.476H447.12V524.596L447 524.716H448.08L447.96 524.596ZM446.4 525.316H448.56V524.956H446.4V525.316ZM446.4 525.796H448.56V525.556H446.4V525.796ZM446.4 526.036V526.396H448.56V526.036H446.4Z" fill-rule="evenodd"/><path transform="matrix(1,0,0,-1,0,595.276)" d="M458.88 527.476V526.876L458.76 526.636V526.516H458.64 458.4L458.28 526.396V526.276H458.64 458.88L459 526.396V526.516L459.12 526.636 459.24 527.716H457.32V527.476H458.04L457.92 527.116 457.8 526.876 457.68 526.636 457.44 526.396 457.56 526.276H457.68L457.92 526.516 458.04 526.756 458.16 527.116 458.28 527.476Z" fill-rule="evenodd"/><path transform="matrix(1,0,0,-1,0,595.276)" d="M456.12 526.396H455.28V526.156H456.12V524.476L455.88 524.596 455.64 524.836 455.76 525.556 455.88 525.676H455.76L455.52 525.796 455.4 524.956V524.596L455.28 524.236 455.16 524.116 455.4 523.996H455.52V524.236L455.64 524.596 455.88 524.476 456.24 524.236 456.48 524.116H456.84 458.04 459.12L459.24 524.476 458.28 524.356H457.44 456.72L456.48 524.476V525.196H457.08V525.436H456.48V526.156H457.2V526.396H456.48V527.116H457.08V527.236H456.48V527.836 527.956L456.12 528.076V527.236H455.4V527.116H456.12Z" fill-rule="evenodd"/><path transform="matrix(1,0,0,-1,0,595.276)" d="M462.84 527.836H461.76V527.596H462.24L461.76 527.116 461.28 526.876V526.756L461.4 526.636H461.52L462.12 526.996 462.6 527.476 462.96 527.236 463.44 526.876 463.92 526.636 464.04 526.756 464.16 526.876H464.04L463.44 527.236 462.84 527.716V527.836Z" fill-rule="evenodd"/><path transform="matrix(1,0,0,-1,0,595.276)" d="M462.12 526.756H463.2V526.996H462.12Z" fill-rule="evenodd"/><path transform="matrix(1,0,0,-1,0,595.276)" d="M461.88 524.596V526.396H462.36V525.076 524.956L462.24 524.836H462.12 462V524.716L462.12 524.596H462.36 462.48V524.716H462.6V524.836 526.516H461.52V524.596Z" fill-rule="evenodd"/><path transform="matrix(1,0,0,-1,0,595.276)" d="M462 526.156 461.88 526.036 462.12 525.796 462.24 525.916Z" fill-rule="evenodd"/><path transform="matrix(1,0,0,-1,0,595.276)" d="M462 525.676 461.88 525.556 462.12 525.316 462.24 525.436Z" fill-rule="evenodd"/><path transform="matrix(1,0,0,-1,0,595.276)" d="M460.8 527.236 460.92 527.476 460.32 527.716 460.2 527.596 460.44 527.476Z" fill-rule="evenodd"/><path transform="matrix(1,0,0,-1,0,595.276)" d="M460.8 526.276 460.92 526.516 460.32 526.876 460.2 526.636Z" fill-rule="evenodd"/><path transform="matrix(1,0,0,-1,0,595.276)" d="M460.2 526.156V525.916H460.68V524.956L460.44 524.716 460.08 524.476 460.2 524.236H460.32V524.356L460.8 524.596 460.92 524.476 461.04 524.356 461.16 524.236H461.28 462.24 463.92L464.04 524.476H463.92 462.72 461.4L461.28 524.596 461.16 524.716 461.04 524.836 460.92 524.956V526.156Z" fill-rule="evenodd"/><path transform="matrix(1,0,0,-1,0,595.276)" d="M463.2 525.196V526.276 526.396H462.84V525.196Z" fill-rule="evenodd"/><path transform="matrix(1,0,0,-1,0,595.276)" d="M463.68 524.956V526.396L463.8 526.516H463.44V525.076 524.956L463.32 524.836H463.08V524.716 524.596H463.2 463.44L463.56 524.716 463.68 524.836Z" fill-rule="evenodd"/><path transform="matrix(1,0,0,-1,0,595.276)" d="M459.12 524.716H458.76V524.836H457.68V524.596H457.44V524.836 526.036H459.12V524.716ZM458.76 525.796H457.68V525.076H458.76V525.796Z" fill-rule="evenodd"/><path transform="matrix(1,0,0,-1,0,595.276)" d="M452.28 524.956H450.48V524.836 524.716H452.28V523.996H452.52V524.716H454.32V524.836 524.956H452.52V525.316H453.72L453.84 525.436V526.876H453.72 452.52V527.236 527.356H454.08V527.476H452.52V527.596 527.836L452.64 527.956H452.52 452.28V527.596 527.476H450.72V527.356H452.28V527.236 526.876H450.96V525.436 525.316H452.28V524.956ZM452.52 526.036H453.48V525.676 525.556H452.52V525.676 526.036ZM452.52 526.276V526.276 526.636H453.48V526.276H452.52ZM451.32 526.276H451.2V526.636H451.32 452.28V526.276H451.32ZM451.32 526.036H452.28V525.676 525.556H451.32L451.2 525.676V526.036H451.32Z" fill-rule="evenodd"/><path transform="matrix(1,0,0,-1,0,595.276)" d="M483.96 531.916V532.156H482.16V533.476 533.596H482.04 481.92V532.156H480.12V531.916H481.92V530.116H480.36V529.876H483.6V530.116H482.16V531.916Z" fill-rule="evenodd"/><path transform="matrix(1,0,0,-1,0,595.276)" d="M478.32 531.796V531.436H478.56V533.596H475.32V530.236 530.116L475.44 529.996H475.56 478.2 478.44 478.56L478.8 530.116V530.356L478.92 530.596V530.716L478.68 530.836 478.56 530.356 478.44 530.236H478.08 475.68L475.56 530.356V531.796H478.32ZM477.12 532.036V533.356H478.32V532.036H477.12ZM476.88 532.036H475.56V533.356H476.88V532.036Z" fill-rule="evenodd"/><path transform="matrix(1,0,0,-1,0,595.276)" d="M454.56 530.356C454.8 530.356 454.92 530.236 454.92 529.996 454.92 529.876 454.92 529.756 454.8 529.636 454.68 529.636 454.56 529.636 454.44 529.636V529.756H454.56V529.876C454.44 529.876 454.32 529.996 454.32 530.116 454.32 530.236 454.44 530.356 454.56 530.356Z" fill-rule="evenodd"/><path transform="matrix(1,0,0,-1,0,595.276)" d="M457.68 533.476H458.4L458.52 532.996 458.76 532.516 459.12 532.156 459.36 531.796H459.48L459.6 531.916H459.72L459.6 532.036 459.36 532.276 459 532.756 458.76 533.116 458.64 533.716H457.68Z" fill-rule="evenodd"/><path transform="matrix(1,0,0,-1,0,595.276)" d="M457.08 533.476 456.84 533.596 456.72 533.116 456.48 532.636 456.12 532.276 455.76 531.796H456L456.36 532.036 456.6 532.516 456.84 532.876 457.08 533.356H457.2V533.476Z" fill-rule="evenodd"/><path transform="matrix(1,0,0,-1,0,595.276)" d="M457.8 532.396 457.56 532.516 456.6 530.476 456.12 530.356V530.116L456.24 529.996 456.36 530.116 459 530.476 459.36 529.876 459.6 530.116 459.12 530.836 458.52 531.556 458.4 531.316 458.76 530.716 456.96 530.476 457.8 532.276H457.92V532.396Z" fill-rule="evenodd"/><path transform="matrix(1,0,0,-1,0,595.276)" d="M462 530.836 461.88 530.956 461.4 530.356 460.8 529.996 461.04 529.756 461.52 530.236 462 530.716H462.12V530.836Z" fill-rule="evenodd"/><path transform="matrix(1,0,0,-1,0,595.276)" d="M463.32 530.956 463.2 530.716 463.68 530.356 464.16 529.756 464.4 529.996 463.92 530.476Z" fill-rule="evenodd"/><path transform="matrix(1,0,0,-1,0,595.276)" d="M466.8 529.996 466.92 529.876V529.756H467.04 467.4L467.52 529.876H467.64V529.996 530.116 533.596H467.76V533.716H467.64 467.4V530.236 530.116H467.28 466.8V529.996Z" fill-rule="evenodd"/><path transform="matrix(1,0,0,-1,0,595.276)" d="M465.48 530.836 465.72 530.716 466.2 531.556 466.68 532.516H466.8 466.68V532.636L466.32 532.756 466.2 532.276 465.96 531.796 465.72 531.316Z" fill-rule="evenodd"/><path transform="matrix(1,0,0,-1,0,595.276)" d="M469.2 530.716 469.44 530.836 469.2 531.316 468.96 531.676 468.84 532.156 468.72 532.636 468.48 532.516 468.6 532.156 468.72 531.676 468.96 531.196Z" fill-rule="evenodd"/><path transform="matrix(1,0,0,-1,0,595.276)" d="M473.16 531.916V533.356H473.28V533.476H473.16 472.92V533.356 531.916 531.796H473.16Z" fill-rule="evenodd"/><path transform="matrix(1,0,0,-1,0,595.276)" d="M473.76 533.716V531.676 531.556H473.64 473.52 473.4 473.28 473.16L473.28 531.316H473.76 473.88L474 531.436V531.556 531.676 533.596H474.12V533.716H474 473.76Z" fill-rule="evenodd"/><path transform="matrix(1,0,0,-1,0,595.276)" d="M473.76 530.716V530.956H472.44V531.316H472.56V531.436H472.44 472.2V530.956H472.08 470.88 470.76V530.716H470.88 472.08 472.2V530.116H472.08 470.4V529.876H474.12 474.24V530.116H474.12 472.44V530.716H473.76Z" fill-rule="evenodd"/><path transform="matrix(1,0,0,-1,0,595.276)" d="M487.56 530.356 486.96 530.116 486.36 529.756 486.24 529.876 486.12 529.996H486.24L486.72 530.236 487.32 530.596 486.84 531.076 486.36 531.676 486.12 531.196 485.88 530.716 485.52 530.236 485.16 529.876H485.04L484.92 529.996V530.116L485.28 530.476 485.64 530.836 485.88 531.316 486 531.796 486.12 532.516V533.356H485.28V533.596H488.04L488.16 533.476V533.356L487.68 532.396H488.4L488.52 532.276V532.156 532.036L488.4 531.676 488.16 531.316 488.04 530.956 487.8 530.596 488.28 530.356 488.76 530.116 488.88 529.996 488.64 529.876 488.04 530.116 487.56 530.356ZM486.96 531.436 487.2 531.076 487.56 530.716 487.8 531.076 487.92 531.436 488.16 531.796 488.28 532.156H487.56L487.44 531.916 487.08 532.036 487.92 533.356H486.48L486.36 532.276 486.6 531.796 486.96 531.436Z" fill-rule="evenodd"/><path transform="matrix(1,0,0,-1,0,595.276)" d="M472.08 533.236H472.44L472.56 533.356V533.476H472.44 470.52V533.356 533.236H470.88 471V532.516H470.88 470.4V532.276H471L470.76 531.796 470.52 531.436V531.316H470.64 470.76L470.88 531.556 471 531.796 471.12 532.036 471.24 532.276H471.72 471.84V531.436 531.316H472.08V531.436 532.276H472.56V532.516H472.08V533.236ZM471.84 532.516H471.72 471.24V533.236H471.72 471.84V532.516Z" fill-rule="evenodd"/><path transform="matrix(1,0,0,-1,0,595.276)" d="M463.44 532.636H464.4V532.876H463.44V533.596L463.56 533.716 463.44 533.836H463.2V532.876H462V533.596H462.12V533.716H462 461.76V532.876H460.8V532.636H461.76V531.436H460.68V531.196H464.52V531.436H463.44V532.636ZM463.2 531.436H462V532.636H463.2V531.436Z" fill-rule="evenodd"/><path transform="matrix(1,0,0,-1,0,595.276)" d="M470.76 527.356 470.88 527.116H471.36V525.676H471.12V526.636H471.24V526.756H471.12 470.88V524.836H471.12V525.436H471.36V524.476L471.48 524.236H471.6 471.96 472.08L472.2 524.836V524.956L471.96 525.076V524.956 524.836L471.84 524.476V524.356H471.72V524.476H471.6V525.436H471.84V525.316H472.08V526.636H472.2V526.756H472.08 471.84V525.676H471.6V527.236L472.08 527.356V527.476 527.596L471.96 527.716 471.6 527.476V527.956H471.72L471.84 528.076H471.72 471.6 471.36V527.356H471.12Z" fill-rule="evenodd"/><path transform="matrix(1,0,0,-1,0,595.276)" d="M472.92 524.836 472.68 525.076 472.44 524.596 472.2 524.356 472.44 524.116 472.68 524.476Z" fill-rule="evenodd"/><path transform="matrix(1,0,0,-1,0,595.276)" d="M473.28 525.076 473.04 524.836 473.4 524.356 473.64 524.116 473.76 524.356 473.52 524.596Z" fill-rule="evenodd"/><path transform="matrix(1,0,0,-1,0,595.276)" d="M475.8 526.876 476.04 526.996 475.56 527.956 475.2 527.836Z" fill-rule="evenodd"/><path transform="matrix(1,0,0,-1,0,595.276)" d="M478.32 526.516V526.756H476.76V527.956H476.88V528.076H476.76 476.52V526.756H475.08V526.516H476.52V525.556H474.72V525.316H476.52V524.116H476.76V525.316H478.56V525.556H476.76V526.516Z" fill-rule="evenodd"/><path transform="matrix(1,0,0,-1,0,595.276)" d="M477.48 526.876 478.08 527.596 478.2 527.716 478.08 527.836H477.84L477.24 527.116Z" fill-rule="evenodd"/><path transform="matrix(1,0,0,-1,0,595.276)" d="M468.72 527.596H467.04L466.8 526.516H468.24L468.12 524.596H468.96V524.356H465V524.596H465.96L466.44 526.276H465.48V526.516H466.56L466.8 527.596H465.24V527.836H468.72V527.596ZM466.32 524.596H467.88L468 526.276H466.68L466.32 524.596Z" fill-rule="evenodd"/><path transform="matrix(1,0,0,-1,0,595.276)" d="M473.64 527.356V525.076H472.32V527.356H472.68L472.8 527.716H472.2V527.956H473.76V527.716H473.04L472.92 527.356H473.64ZM472.68 525.676V525.316H473.4V525.676H472.68ZM472.68 525.916H473.4V526.396H472.68V525.916ZM472.68 526.636H473.4V527.116H472.68V526.636Z" fill-rule="evenodd"/><path transform="matrix(1,0,0,-1,0,595.276)" d="M469.8 527.716V524.356H470.16V525.196H470.4V524.956H470.76V527.716H469.8ZM470.4 525.436H470.16V527.476H470.4V525.436Z" fill-rule="evenodd"/><path transform="matrix(1,0,0,-1,0,595.276)" stroke-width=".12" stroke-linecap="butt" stroke-miterlimit="10" stroke-linejoin="miter" fill="none" stroke="#000000" d="M440.5 522.5V522.5"/><path transform="matrix(1,0,0,-1,0,595.276)" stroke-width=".12" stroke-linecap="butt" stroke-miterlimit="10" stroke-linejoin="miter" fill="none" stroke="#000000" d="M493.5 522.5V522.5"/><path transform="matrix(1,0,0,-1,0,595.276)" d="M493.68 522.076H440.04C439.92 522.076 439.8 522.076 439.68 522.076 439.56 522.196 439.56 522.196 439.44 522.316 439.2 522.436 439.2 522.676 439.2 522.916V545.956C439.2 546.076 439.2 546.196 439.2 546.196 439.32 546.316 439.32 546.436 439.44 546.556 439.56 546.796 439.8 546.796 440.04 546.796H493.68C494.16 546.796 494.64 546.436 494.64 545.956V522.916C494.64 522.676 494.52 522.436 494.4 522.316 494.16 522.076 493.92 522.076 493.68 522.076ZM493.8 522.436V522.436C494.04 522.436 494.16 522.676 494.16 522.916V545.956C494.16 546.076 494.16 546.196 494.04 546.316 493.92 546.316 493.92 546.436 493.8 546.436H440.04C439.8 546.436 439.56 546.196 439.56 545.956V522.916C439.56 522.796 439.68 522.676 439.68 522.556 439.8 522.556 439.92 522.436 440.04 522.436H493.8Z" fill-rule="evenodd"/></g></svg>