<?xml version='1.0' encoding='UTF-8'?>
<svg xmlns="http://www.w3.org/2000/svg" xmlns:xlink="http://www.w3.org/1999/xlink" xmlns:inkscape="http://www.inkscape.org/namespaces/inkscape" version="1.1" width="567.000" height="269.280" viewBox="0 0 567.000 269.280"><g transform="scale(10.0) translate(-111.171, -262.656)"><defs><clipPath id="clip_19"><path transform="matrix(0,1,1,0,0,0)" d="M0 74.451H595.008V767.55899H0Z"/></clipPath><clipPath id="clip_20"><path transform="matrix(0,1,1,0,0,0)" d="M0 842.013H595.224V.008972168H0Z"/></clipPath></defs><path transform="matrix(0,1,1,0,0,0)" d="M263.934 125.283H288.576V154.047H263.934Z" fill="#ffff00"/><path transform="matrix(0,1,1,0,130.035,270.612)" d="M0 0V16.578C0 16.776 .036 16.974 .144 17.154 .252 17.334 .396 17.478 .576 17.568L5.364 20.34C5.436 20.376 5.544 20.412 5.652 20.412 5.742 20.412 5.85 20.376 5.922 20.34L10.71 17.568C10.89 17.478 11.034 17.334 11.142 17.154 11.25 16.974 11.286 16.776 11.286 16.578V0C11.286-.144 11.268-.288 11.214-.432 11.16-.576 11.07-.702 10.962-.81 10.836-.936 10.71-1.008 10.566-1.08 10.422-1.134 10.278-1.152 10.134-1.152H1.152C1.008-1.152 .864-1.134 .72-1.08 .576-1.008 .45-.936 .324-.81 .216-.702 .126-.576 .072-.432 .018-.288 0-.144 0 0ZM.576 0C.576-.162 .63-.306 .738-.414 .846-.522 .99-.576 1.152-.576H10.134C10.278-.576 10.44-.522 10.548-.414 10.656-.288 10.71-.144 10.71 0V16.578C10.71 16.668 10.692 16.776 10.638 16.866 10.584 16.956 10.512 17.028 10.422 17.082L5.652 19.836 .864 17.082C.684 16.974 .576 16.776 .576 16.578V0" fill="#ffffff" fill-rule="evenodd"/><path transform="matrix(0,1,1,0,130.035,271.188)" d="M0 0V16.578C0 16.668 .018 16.776 .072 16.866 .126 16.956 .198 17.028 .288 17.082L5.076 19.836 9.846 17.082C9.936 17.028 10.008 16.956 10.062 16.866 10.116 16.776 10.134 16.668 10.134 16.578V0C10.134-.144 10.08-.288 9.972-.414 9.864-.522 9.702-.576 9.558-.576H.576C.504-.576 .432-.558 .36-.54 .288-.504 .216-.468 .162-.414 .054-.288 0-.144 0 0" fill="#0000ff" fill-rule="evenodd"/><path transform="matrix(0,1,1,0,132.321,272.52)" d="M0 0V-1.566H.324V-.972H2.16V-.594H.324V0" fill="#ffffff" fill-rule="evenodd"/><path transform="matrix(0,1,1,0,132.321,273.906)" d="M0 0C.198 0 .396 .072 .558 .216 .738 .378 .81 .576 .81 .774 .81 .954 .738 1.152 .558 1.314 .396 1.476 .198 1.53 0 1.53-.18 1.53-.396 1.476-.558 1.314-.72 1.152-.792 .954-.792 .774-.792 .576-.72 .378-.558 .216-.396 .072-.18 0 0 0ZM-.468 .774C-.468 .864-.414 .972-.324 1.062-.234 1.134-.108 1.17 0 1.17 .126 1.17 .252 1.134 .342 1.062 .432 .972 .486 .864 .486 .774 .486 .666 .432 .558 .342 .486 .252 .396 .126 .36 0 .36-.108 .36-.234 .396-.324 .486-.414 .558-.468 .666-.468 .774" fill="#ffffff" fill-rule="evenodd"/><path transform="matrix(0,1,1,0,135.363,273.294)" d="M0 0C-.072 .072-.126 .144-.162 .234-.198 .324-.198 .414-.18 .504H.162C.162 .378 .198 .234 .252 .144 .288 .108 .306 .072 .36 .054 .396 .018 .432 0 .486 0H1.386V-.342H-.144V0H0" fill="#ffffff" fill-rule="evenodd"/><path transform="matrix(0,1,1,0,137.307,274.716)" d="M0 0-.234 .162-.288 .072C-.288 .054-.306 .036-.324 .036-.342 .018-.36 .018-.396 .018H-.882C-.99 .018-1.098 .018-1.206 0-1.296 0-1.368-.018-1.422-.072-1.494-.144-1.548-.216-1.566-.306-1.602-.414-1.62-.522-1.62-.648-1.62-.738-1.602-.828-1.584-.9-1.566-.954-1.53-1.008-1.512-1.062-1.494-1.098-1.476-1.152-1.458-1.206L-1.206-1.062-1.278-.882C-1.296-.828-1.314-.774-1.314-.72-1.332-.648-1.332-.576-1.314-.504-1.314-.45-1.278-.396-1.242-.36-1.206-.342-1.188-.324-1.152-.324-1.116-.306-1.098-.306-1.062-.306L-.99-.324-.972-.558C-.972-.612-.954-.684-.954-.738-.954-.81-.936-.882-.9-.936-.882-1.026-.828-1.098-.774-1.152-.684-1.224-.576-1.26-.468-1.242-.378-1.26-.288-1.224-.198-1.17-.144-1.116-.09-1.044-.054-.972-.018-.9 0-.828 0-.738 0-.648 0-.558-.036-.486-.054-.396-.108-.324-.162-.252-.108-.234-.072-.198-.036-.144-.018-.108-.018-.054 0 0ZM-.27-.738C-.27-.756-.27-.774-.288-.81-.306-.828-.306-.846-.324-.864-.36-.882-.396-.9-.432-.918-.468-.918-.522-.918-.558-.9-.594-.882-.63-.846-.648-.81-.666-.774-.684-.72-.684-.684-.702-.612-.72-.558-.72-.486-.72-.432-.738-.378-.738-.324H-.468C-.45-.324-.414-.324-.396-.342-.36-.342-.342-.36-.324-.378-.288-.414-.27-.468-.252-.522-.234-.594-.234-.666-.27-.738" fill="#ffffff" fill-rule="evenodd"/><path transform="matrix(0,1,1,0,137.307,274.716)" d="M0 0V0" fill="#ffffff" fill-rule="evenodd"/><path transform="matrix(0,1,1,0,138.423,274.428)" d="M0 0C0 .072 0 .144-.018 .198-.054 .252-.072 .288-.108 .324-.144 .36-.198 .396-.234 .432L-.09 .702 .018 .648C.072 .612 .108 .576 .144 .522 .18 .486 .216 .45 .234 .396 .288 .288 .306 .18 .288 .072 .288-.072 .252-.216 .18-.324 .09-.45-.036-.54-.18-.594-.342-.63-.522-.648-.684-.63-.828-.612-.954-.558-1.062-.45-1.152-.378-1.224-.288-1.26-.18-1.314-.036-1.314 .108-1.296 .234-1.26 .378-1.188 .504-1.08 .594-1.062 .63-1.026 .648-.99 .666-.972 .684-.936 .702-.9 .72L-.738 .414C-.81 .396-.882 .36-.936 .306-.954 .288-.972 .27-.972 .252-1.026 .144-1.008 .018-.954-.072-.9-.162-.828-.216-.738-.252-.612-.306-.468-.324-.324-.288-.162-.252-.054-.144 0 0" fill="#ffffff" fill-rule="evenodd"/><path transform="matrix(0,1,1,0,139.953,274.716)" d="M0 0C.036 .18 .018 .36-.072 .522-.108 .612-.144 .684-.216 .738L-.45 .54-.414 .486C-.342 .414-.306 .324-.306 .234-.27 .126-.306 .018-.36-.072-.396-.126-.45-.162-.504-.198-.54-.198-.558-.216-.594-.216-.63-.234-.666-.234-.684-.216V.81C-.846 .81-.99 .81-1.134 .756-1.26 .72-1.386 .63-1.476 .522-1.62 .306-1.638 .018-1.512-.234-1.386-.396-1.206-.522-.99-.558-.774-.594-.558-.576-.36-.486-.27-.432-.18-.378-.108-.288-.054-.198-.018-.09 0 0ZM-.918-.234C-1.008-.234-1.08-.198-1.152-.162-1.206-.144-1.242-.09-1.278-.036-1.314 .072-1.314 .18-1.278 .288-1.242 .342-1.206 .378-1.152 .414-1.08 .45-1.008 .486-.918 .486V-.234" fill="#ffffff" fill-rule="evenodd"/><path transform="matrix(0,1,1,0,141.483,273.672)" d="M0 0C.018 .054 .036 .108 .036 .162 .036 .18 .036 .198 .036 .198V.252C.054 .45 .18 .63 .36 .738 .432 .774 .504 .774 .576 .774 .684 .774 .792 .72 .864 .648 .972 .504 1.044 .306 1.044 .108 1.044-.126 .918-.378 .72-.522L.486-.306C.558-.27 .612-.198 .666-.126 .702-.054 .72 .036 .72 .108 .72 .144 .72 .198 .702 .234 .702 .27 .684 .306 .684 .342 .666 .36 .63 .396 .576 .414 .558 .414 .522 .414 .504 .396 .486 .396 .468 .378 .45 .36 .396 .306 .36 .216 .36 .108 .36 .054 .36 .018 .342-.018 .306-.18 .216-.324 .126-.396 .126-.414 .108-.414 .108-.414 .036-.45-.036-.486-.126-.468-.234-.468-.324-.414-.378-.36H-.396C-.486-.27-.54-.144-.558 0V.036C-.594 .288-.522 .558-.378 .738L-.126 .522C-.198 .414-.234 .288-.234 .162-.234 .108-.234 .054-.216 .018-.216-.036-.162-.072-.108-.072-.072-.072-.018-.036 0 0" fill="#ffffff" fill-rule="evenodd"/><path transform="matrix(0,1,1,0,143.985,280.458)" d="M0 0V1.98L-4.194 4.41-8.406 1.98V0L-4.194 2.43" fill="#ffffff" fill-rule="evenodd"/><path transform="matrix(0,1,1,0,132.393,276.57)" d="M0 0-.18-.324 .054-.486 .27-.684 .486-.918 .684-1.188 .918-.954 .486-.432" fill="#ffffff" fill-rule="evenodd"/><path transform="matrix(0,1,1,0,132.411,277.38)" d="M0 0-.18-.342 .108-.522 .378-.72 .612-.954 .846-1.206 1.098-.99 .792-.648H2.178V-.342H.432" fill="#ffffff" fill-rule="evenodd"/><path transform="matrix(0,1,1,0,133.167,276.354)" d="M0 0 .234-.252 .684 .18V-.756H.99V.09H1.692V-.702H1.998V.09H2.808V-.864H3.096V1.26H2.808V.414H1.998V1.17H1.692V.414H.99V1.242H.684V.342L.522 .522" fill="#ffffff" fill-rule="evenodd"/><path transform="matrix(0,1,1,0,138.603,278.172)" d="M0 0V-1.35H-.27V-.36H-.576V-1.35H-.846V-.378H-1.134V-1.35H-1.422V-.198H-1.674V-2.646H.378V-2.34H.252V-.306H.576C.875-.298 1.132-.417 1.08-.756V-.918L1.386-.774V-.63C1.315 .127 .83-.072 .252 0H0ZM-.576-2.34H-.84602V-1.6379999H-.576ZM-.27-1.638H-.00001001358V-2.3400002H-.27ZM-1.422-1.638H-1.1340101V-2.3400002H-1.422Z" fill="#ffffff" fill-rule="evenodd"/><path transform="matrix(0,1,1,0,137.739,278.568)" d="M0 0 .072-.252 .324-.126 .576-.036 .468 .27" fill="#ffffff" fill-rule="evenodd"/><path transform="matrix(0,1,1,0,136.623,278.784)" d="M0 0V-.288L.648-.27V.018" fill="#ffffff" fill-rule="evenodd"/><path transform="matrix(0,1,1,0,136.029,278.766)" d="M0 0-.054-.306 .27-.396 .594-.522 .702-.18 .378-.072" fill="#ffffff" fill-rule="evenodd"/><path transform="matrix(0,1,1,0,137.145,278.694)" d="M0 0 .036-.252 .594-.108 .522 .198 .27 .126" fill="#ffffff" fill-rule="evenodd"/><path transform="matrix(0,1,1,0,139.773,277.236)" d="M0 0H.288V.36L.27 .378H1.188L1.314-.018 1.458 .018 1.602 .09 1.674 .144 1.656 .18 1.566 .198 1.224 1.062H.936L1.08 .702H.288V1.098H0V.702H-.594L-.648 .756-.666 .774-.702 .72-.72 .63-.738 .378H0" fill="#ffffff" fill-rule="evenodd"/><path transform="matrix(0,1,1,0,141.105,276.516)" d="M0 0H1.116V1.512H0ZM.432 .342H.23400001V1.18801H.432ZM.846 .342H.648V1.18801H.846Z" fill="#ffffff" fill-rule="evenodd"/><path transform="matrix(0,1,1,0,140.853,277.776)" d="M0 0H.288V.468L.486 .342 .666 .198 .792 .018 .9-.198 1.116 .018 .972 .252 .81 .468V.648L.972 .522 1.134 .36 1.278 .198 1.404-.018 1.584 .216 1.422 .45 1.242 .648 1.026 .828 .81 .972V1.17L1.026 1.044 1.242 .9 1.422 .72 1.602 .504 1.782 .72 1.566 .972 1.332 1.188 1.08 1.35 .81 1.476V1.62H1.188L1.35 1.566 1.422 1.458 1.44 1.332 1.476 1.134 1.764 1.278 1.71 1.548 1.656 1.728 1.53 1.854 1.314 1.908 1.026 1.926H.522V.684L.288 .792V2.034H0" fill="#ffffff" fill-rule="evenodd"/></g></svg>