<?xml version='1.0' encoding='UTF-8'?>
<svg xmlns="http://www.w3.org/2000/svg" xmlns:xlink="http://www.w3.org/1999/xlink" xmlns:inkscape="http://www.inkscape.org/namespaces/inkscape" version="1.1" width="567.000" height="269.280" viewBox="0 0 567.000 269.280"><g transform="scale(10.0) translate(-329.439, -343.440)"><defs><clipPath id="clip_19"><path transform="matrix(0,1,1,0,0,0)" d="M0 74.451H595.008V767.55899H0Z"/></clipPath><clipPath id="clip_20"><path transform="matrix(0,1,1,0,0,0)" d="M0 842.013H595.224V.008972168H0Z"/></clipPath></defs><path transform="matrix(0,1,1,0,0,0)" d="M344.718 343.551H369.36V372.297H344.718Z" fill="#ffff00"/><path transform="matrix(0,1,1,0,369.345,351.396)" d="M0 0V-20.034C0-20.196 .036-20.34 .108-20.484 .198-20.628 .306-20.736 .45-20.826L5.418-23.688C5.49-23.724 5.562-23.742 5.634-23.742 5.724-23.742 5.796-23.724 5.868-23.688L10.836-20.826C10.962-20.736 11.088-20.628 11.178-20.484 11.25-20.34 11.286-20.196 11.286-20.034V0C11.286 .108 11.268 .216 11.232 .324 11.178 .432 11.106 .54 11.034 .63 10.944 .72 10.836 .792 10.728 .828 10.602 .882 10.494 .9 10.386 .9H.9C.684 .9 .45 .81 .252 .63 .162 .54 .108 .432 .054 .324 .018 .216 0 .108 0 0ZM.45-20.034V0C.45 .108 .486 .216 .576 .306 .666 .414 .792 .45 .9 .45H10.386C10.494 .45 10.62 .414 10.71 .306 10.8 .216 10.836 .108 10.836 0V-20.034C10.836-20.196 10.746-20.34 10.62-20.43L5.634-23.292 .666-20.43C.54-20.34 .45-20.196 .45-20.034" fill="#ffffff" fill-rule="evenodd"/><path transform="matrix(0,1,1,0,349.311,351.846)" d="M0 0V20.034C0 20.088 0 20.142 .018 20.196 .054 20.25 .09 20.304 .126 20.34 .18 20.394 .216 20.43 .288 20.448 .342 20.466 .396 20.484 .45 20.484H9.936C10.044 20.484 10.17 20.448 10.26 20.34 10.296 20.304 10.332 20.25 10.35 20.196 10.386 20.142 10.386 20.088 10.386 20.034V0C10.386-.072 10.368-.162 10.332-.234 10.278-.306 10.224-.36 10.17-.396L5.184-3.258 .216-.396C.162-.36 .09-.306 .054-.234 .018-.162 0-.072 0 0" fill="#0000ff" fill-rule="evenodd"/><path transform="matrix(0,1,1,0,357.663,358.956)" d="M0 0-.036 .378H-.252L-.216 .054-.324 .162-.45 .054-.576-.09-.432-.252-.216-.018-.18-.414-.27-.45H-.396L-.468-.378-.522-.396-.54-.648H-.342L-.162-.63-.126-.864H.09L.054-.576 .198-.522 .324-.432 .414-.63 .486-.882 .666-.756 .594-.504 .486-.288 .594-.108 .666 .09V.216L.612 .306 .486 .396 .324 .45 .162 .27 .342 .216 .396 .18 .432 .126 .414 .036 .342-.072 .216 .09 .198 .162H.162L0 0 .216-.234 .144-.306 .036-.342 0 0" fill="#ffffff" fill-rule="evenodd"/><path transform="matrix(0,1,1,0,357.537,359.586)" d="M0 0 .144-.126 .324 .144 .378-.252 .27-.288 .162-.306 .126-.252 .09-.234 .072-.252 .036-.27 .018-.504H.216L.414-.486 .45-.72H.648L.612-.432 .774-.378 .9-.306 .99-.504 1.044-.738 1.242-.648 1.17-.378 1.062-.162 1.188 .036 1.26 .288V.396L1.188 .486 1.098 .558 .954 .612 .828 .414 .954 .378 1.008 .324 1.026 .27 1.008 .162 .936 .054 .756 .27V.324L.738 .36 .72 .378 .666 .36 .54 .198 .486 .522H.288L.324 .162 .18 .288 0 0ZM.594-.216 .54 .144 .792-.09 .684-.162 .594-.216" fill="#ffffff" fill-rule="evenodd"/><path transform="matrix(0,1,1,0,356.187,358.38)" d="M0 0 .468-.288 .414-.36 .576-.486 .846-.09 1.224-.324V-.522L1.422-.468 1.494-.45 1.512-.432 1.494-.396 1.458-.378 1.404-.072H2.484V.162H1.35L1.314 .324 1.494 .36 1.458 .576 1.17 .504 .918 .396 .972 .216 1.116 .27 1.188-.054 .594 .378 .576 .432 .54 .45H.522L.486 .396 .396 .234 .666 .036 .558-.09 .198 .162 .144 .216 .09 .198" fill="#ffffff" fill-rule="evenodd"/><path transform="matrix(0,1,1,0,355.971,359.964)" d="M0 0V-.198H.342L.684-.27 .72-.018 .45 .018 .09 .036 .054 .072 .036 .09 .018 .054" fill="#ffffff" fill-rule="evenodd"/><path transform="matrix(0,1,1,0,356.601,359.946)" d="M0 0 .054-.198 .324-.162 .648-.144 .576 .108" fill="#ffffff" fill-rule="evenodd"/><path transform="matrix(0,1,1,0,360.813,356.202)" d="M0 0C.018 .036 .036 .09 .036 .126 .036 .144 .036 .144 .036 .162V.198C.054 .36 .144 .504 .288 .576 .342 .612 .414 .63 .468 .612 .558 .612 .648 .576 .684 .522 .792 .396 .846 .234 .846 .09 .846-.108 .738-.306 .576-.432L.396-.252C.45-.216 .504-.162 .54-.108 .576-.036 .576 .018 .576 .09 .576 .126 .576 .144 .576 .18 .576 .216 .558 .234 .558 .27 .54 .288 .504 .324 .468 .324 .45 .324 .432 .324 .414 .324 .396 .306 .378 .306 .36 .288 .324 .252 .288 .162 .288 .09 .288 .054 .288 .018 .27-.018 .252-.144 .18-.252 .108-.324H.09C.036-.36-.036-.378-.09-.378-.18-.378-.252-.342-.306-.288-.378-.216-.432-.108-.432 0L-.45 .018C-.468 .234-.414 .45-.288 .594L-.108 .414C-.162 .342-.18 .234-.18 .126-.18 .09-.18 .054-.18 .018V0C-.162-.036-.126-.054-.09-.054-.054-.054 0-.036 0 0" fill="#ffffff" fill-rule="evenodd"/><path transform="matrix(0,1,1,0,362.127,356.724)" d="M0 0C.036 0 .072 .036 .072 .072 .072 .108 .072 .144 .072 .18 .072 .216 .072 .252 .054 .288L.288 .324C.324 .198 .324 .036 .288-.09 .252-.144 .216-.198 .18-.234 .144-.252 .09-.27 .054-.27H-.702V-.504H-.936V-.27H-1.332L-1.44 0H-.936V.324H-.702V0H0" fill="#ffffff" fill-rule="evenodd"/><path transform="matrix(0,1,1,0,363.747,356.868)" d="M0 0-.054-.072C-.054-.072-.072-.09-.09-.108-.108-.108-.126-.108-.144-.108H-.54C-.576-.108-.612-.108-.666-.108-.702-.108-.756-.108-.792-.108-.864-.126-.918-.144-.972-.18-1.026-.234-1.062-.288-1.08-.36-1.116-.45-1.116-.54-1.116-.648-1.116-.702-1.098-.774-1.08-.846-1.08-.882-1.062-.936-1.026-.972-1.026-1.008-1.008-1.044-.99-1.08L-.792-.972-.846-.828C-.864-.792-.864-.738-.882-.702-.882-.63-.882-.576-.882-.522-.864-.486-.846-.432-.81-.414-.792-.396-.774-.378-.738-.378-.72-.378-.702-.378-.684-.378H-.612L-.594-.576C-.594-.612-.594-.666-.594-.702-.576-.774-.576-.828-.558-.882-.54-.936-.486-1.008-.45-1.044-.378-1.098-.288-1.134-.198-1.116-.126-1.116-.054-1.098 .018-1.062 .054-1.008 .108-.954 .126-.9 .162-.846 .162-.774 .18-.72 .18-.648 .18-.576 .144-.504 .126-.432 .09-.378 .036-.324 .09-.306 .126-.288 .144-.234 .162-.198 .162-.162 .18-.126L0 0ZM-.036-.72C-.036-.756-.054-.774-.09-.81-.108-.828-.126-.846-.162-.846-.198-.864-.234-.864-.27-.846-.306-.828-.324-.81-.342-.774-.36-.738-.36-.702-.378-.666-.378-.612-.396-.558-.396-.504-.414-.468-.414-.414-.414-.378H-.198C-.18-.378-.162-.378-.144-.396-.126-.396-.108-.414-.09-.432-.054-.45-.036-.486-.036-.54-.018-.594-.018-.648-.036-.72" fill="#ffffff" fill-rule="evenodd"/><path transform="matrix(0,1,1,0,363.747,356.868)" d="M0 0V0" fill="#ffffff" fill-rule="evenodd"/><path transform="matrix(0,1,1,0,362.667,355.878)" d="M0 0V0" fill="#ffffff" fill-rule="evenodd"/><path transform="matrix(0,1,1,0,364.593,356.022)" d="M0 0C0 .054 .018 .108 .054 .162 .09 .198 .144 .216 .198 .234H.99V.486H.144C.072 .486-.018 .468-.072 .414-.144 .36-.198 .288-.234 .216-.252 .144-.27 .072-.252-.018-.234-.108-.198-.18-.144-.234H-.234V-.504H.99V-.234H.234C.18-.234 .108-.216 .072-.162 .018-.108 0-.054 0 0" fill="#ffffff" fill-rule="evenodd"/><path transform="matrix(0,1,1,0,366.231,356.958)" d="M0 0C.036-.072 .054-.126 .072-.198 .072-.216 .09-.252 .09-.27 .09-.324 .072-.378 .054-.432 0-.576-.108-.702-.27-.774-.468-.846-.684-.846-.882-.756-.9-.756-.936-.738-.954-.72-1.062-.648-1.17-.522-1.188-.378-1.224-.216-1.17-.054-1.08 .036V.054C-1.08 .054-1.08 .054-1.08 .054H-1.674V.306H.054V.054H0-.018C-.018 .054 0 .054-.018 .054V.036C-.018 .036-.018 .036-.018 .036V.018C-.018 .018-.018 .036-.018 .018L0 0ZM-.18-.18C-.18-.09-.234-.018-.306 .018-.36 .036-.396 .054-.45 .054H-.684C-.738 .054-.81 .036-.864-.018-.918-.054-.936-.108-.954-.162-.954-.18-.954-.18-.954-.198-.972-.27-.954-.342-.918-.396-.882-.432-.846-.468-.81-.486-.666-.558-.486-.576-.324-.486-.288-.468-.252-.45-.234-.414-.198-.378-.18-.342-.18-.306-.162-.252-.162-.216-.18-.18" fill="#ffffff" fill-rule="evenodd"/><path transform="matrix(0,1,1,0,352.263,356.202)" d="M0 0C.018 .036 .036 .09 .036 .126 .036 .144 .036 .162 .036 .162V.198C.054 .36 .144 .522 .288 .594 .342 .612 .414 .63 .468 .612 .558 .612 .648 .576 .684 .522 .792 .396 .846 .252 .846 .09 .846-.108 .738-.306 .576-.414L.396-.252C.45-.216 .504-.162 .54-.108 .576-.036 .576 .018 .576 .09 .576 .126 .576 .162 .576 .18 .576 .216 .558 .252 .558 .27 .54 .306 .504 .324 .468 .324 .45 .324 .432 .324 .414 .324 .396 .324 .378 .306 .36 .288 .324 .252 .288 .162 .288 .09 .288 .054 .288 .018 .27-.018 .252-.144 .18-.252 .108-.324H.09C.036-.36-.036-.378-.09-.378-.18-.36-.252-.342-.306-.288-.378-.198-.432-.108-.432 0L-.45 .018V.036C-.45 .126-.45 .234-.432 .342-.396 .432-.342 .522-.288 .594L-.108 .414C-.162 .342-.18 .234-.18 .144V.126C-.18 .09-.18 .054-.18 .018-.162-.018-.126-.054-.09-.054-.054-.054 0-.036 0 0" fill="#ffffff" fill-rule="evenodd"/><path transform="matrix(0,1,1,0,363.513,354.492)" d="M0 0C.036-.054 .072-.126 .072-.18 .072-.216 .09-.234 .09-.27 .09-.324 .072-.36 .054-.414 .018-.576-.108-.702-.27-.756-.468-.846-.684-.828-.882-.756-.9-.738-.936-.72-.954-.72-1.062-.648-1.17-.522-1.188-.36-1.224-.198-1.17-.054-1.08 .054H-1.098C-1.098 .054-1.08 .054-1.098 .054H-1.674V.324H.054V.054H0-.018C-.018 .054 0 .054-.018 .054V.036C-.018 .036-.018 .054-.018 .036V.018C-.018 .018-.018 .036-.018 .018L0 0ZM-.18-.162C-.18-.09-.234-.018-.306 .018-.342 .036-.396 .054-.45 .054H-.684C-.738 .054-.81 .036-.864 0-.9-.054-.936-.108-.954-.162V-.18C-.972-.252-.954-.324-.9-.396-.882-.432-.846-.45-.81-.486-.666-.558-.486-.558-.324-.486-.288-.468-.252-.432-.234-.396-.198-.378-.18-.342-.18-.288-.162-.252-.162-.198-.18-.162" fill="#ffffff" fill-rule="evenodd"/><path transform="matrix(0,1,1,0,352.839,354.33)" stroke-width=".144" stroke-linecap="round" stroke-linejoin="round" fill="none" stroke="#ffffff" d="M0 0V.018"/><path transform="matrix(0,1,1,0,353.055,353.25)" d="M0 0-.162 .234C-.36 .018-.45-.18-.45-.414-.45-.576-.414-.738-.306-.864-.216-.972-.072-1.026 .072-1.026 .198-1.026 .342-.972 .414-.864 .45-.828 .468-.774 .486-.738 .522-.63 .54-.522 .558-.414 .558-.396 .558-.36 .558-.342 .576-.234 .612-.126 .702-.072 .756-.018 .864-.018 .936-.054 1.044-.09 1.062-.234 1.062-.36 1.044-.54 .99-.72 .81-.864L1.008-1.098C1.08-1.026 1.134-.954 1.17-.882 1.26-.738 1.332-.576 1.332-.378 1.332-.216 1.278-.018 1.17 .108 1.116 .144 1.08 .18 1.008 .216 .99 .234 .954 .234 .918 .252 .9 .252 .882 .252 .864 .252L.846 .27C.828 .27 .81 .27 .81 .27 .774 .27 .72 .27 .684 .252 .594 .234 .504 .18 .432 .108 .414 .072 .378 .036 .36 0 .342-.036 .342-.09 .324-.126L.252-.522C.252-.558 .234-.594 .216-.612 .18-.666 .126-.72 .072-.738 0-.738-.072-.684-.126-.63-.18-.576-.18-.504-.18-.432-.162-.306-.108-.126 0 0" fill="#ffffff" fill-rule="evenodd"/><path transform="matrix(0,1,1,0,354.117,354.348)" d="M0 0C0 .054 0 .108-.018 .162-.036 .198-.072 .234-.09 .27-.126 .288-.162 .324-.18 .342L-.072 .576 .018 .522C.054 .486 .09 .45 .108 .432 .144 .396 .162 .36 .18 .306 .216 .234 .234 .144 .234 .054 .234-.054 .198-.162 .144-.27 .072-.36-.018-.432-.144-.468-.27-.504-.414-.522-.54-.504-.666-.486-.756-.45-.846-.36-.918-.306-.972-.234-1.008-.144-1.044-.036-1.062 .09-1.044 .198-1.008 .306-.954 .414-.864 .486-.846 .504-.828 .522-.792 .54-.774 .54-.738 .558-.72 .576L-.594 .342C-.648 .306-.702 .288-.738 .252-.756 .234-.774 .216-.774 .198-.81 .108-.81 .018-.756-.054-.72-.126-.666-.18-.594-.216-.486-.252-.36-.252-.252-.234-.144-.198-.036-.108 0 0" fill="#ffffff" fill-rule="evenodd"/><path transform="matrix(0,1,1,0,355.701,353.772)" d="M0 0H.774V.27H-.054C-.144 .27-.216 .234-.288 .198-.36 .144-.414 .072-.45 0-.486-.072-.504-.144-.486-.234-.468-.324-.432-.396-.378-.468H-.936V-.72H.774V-.468H0C-.054-.468-.108-.45-.162-.396-.198-.342-.234-.288-.234-.234-.234-.18-.198-.108-.162-.072-.144-.036-.108-.018-.072-.018-.054 0-.018 0 0 0" fill="#ffffff" fill-rule="evenodd"/><path transform="matrix(0,1,1,0,356.745,354.582)" d="M0 0C.018 .144 0 .288-.054 .432-.09 .486-.126 .54-.18 .594L-.36 .432-.324 .396C-.288 .324-.252 .27-.234 .198-.234 .108-.252 .018-.288-.054-.324-.108-.36-.126-.414-.162-.432-.162-.45-.18-.486-.18-.486-.18-.504-.18-.522-.18-.54-.18-.54-.18-.558-.18V.648C-.666 .648-.792 .648-.9 .612-1.026 .576-1.116 .504-1.188 .414-1.296 .234-1.314 0-1.206-.18-1.116-.324-.954-.414-.792-.45-.63-.486-.45-.45-.288-.378-.216-.36-.144-.306-.09-.234-.036-.162-.018-.072 0 0ZM-.738-.18C-.81-.18-.864-.162-.918-.126-.972-.108-1.008-.072-1.026-.018-1.062 .054-1.062 .144-1.026 .234-1.008 .27-.972 .306-.936 .324-.882 .36-.81 .378-.738 .378V-.18" fill="#ffffff" fill-rule="evenodd"/><path transform="matrix(0,1,1,0,358.455,354.492)" d="M0 0C.036-.054 .072-.108 .072-.18 .072-.216 .09-.234 .09-.252 .09-.306 .072-.36 .054-.414 .018-.576-.108-.702-.27-.756-.468-.828-.684-.828-.882-.738-.9-.738-.936-.72-.954-.702-1.062-.648-1.17-.522-1.188-.36-1.224-.198-1.17-.054-1.08 .054V.072C-1.08 .072-1.08 .072-1.08 .072H-1.098C-1.098 .072-1.08 .072-1.098 .072H-1.674V.324H.054V.054H0-.018C-.018 .054 0 .054-.018 .054V.036L0 0ZM-.18-.162C-.18-.072-.234 0-.306 .036-.342 .054-.396 .054-.45 .054H-.684C-.738 .054-.81 .036-.864 0-.9-.036-.936-.09-.954-.162V-.18C-.972-.252-.954-.324-.9-.378-.882-.414-.846-.45-.81-.468-.666-.558-.486-.558-.324-.486-.288-.468-.252-.432-.234-.396-.198-.36-.18-.324-.18-.288-.162-.252-.162-.198-.18-.162" fill="#ffffff" fill-rule="evenodd"/><path transform="matrix(0,1,1,0,359.715,354.582)" d="M0 0C0-.126-.054-.252-.144-.342-.234-.45-.36-.504-.486-.504H-1.26V-.234H-.468C-.414-.234-.36-.216-.324-.162-.27-.108-.252-.054-.252 0-.252 .054-.27 .108-.324 .162-.36 .198-.414 .234-.468 .234H-1.26V.504H-.036V.234H-.09C-.072 .198-.036 .162-.036 .126-.018 .09 0 .036 0 0" fill="#ffffff" fill-rule="evenodd"/><path transform="matrix(0,1,1,0,360.633,354.312)" d="M0 0H-1.476V.27H-.036C-.018 .27 0 .288 0 .306 .018 .306 .018 .324 .018 .342 .018 .378 .018 .414 .018 .432 .018 .468 .018 .504 0 .522L.252 .558C.252 .486 .27 .432 .27 .378 .27 .324 .252 .27 .252 .216 .252 .162 .216 .108 .162 .054 .126 .018 .054 0 0 0" fill="#ffffff" fill-rule="evenodd"/><path transform="matrix(0,1,1,0,361.803,354.582)" d="M0 0C.018 .144 0 .288-.054 .414-.09 .486-.126 .54-.18 .594L-.36 .432-.324 .378C-.288 .324-.252 .252-.234 .18-.234 .108-.252 0-.288-.072-.324-.108-.36-.144-.414-.162-.432-.162-.45-.18-.486-.18-.486-.18-.504-.18-.522-.18-.54-.18-.54-.18-.558-.18V.648C-.666 .648-.792 .63-.9 .594-1.026 .576-1.116 .504-1.188 .414-1.296 .234-1.314 0-1.206-.18-1.116-.324-.954-.414-.792-.45-.63-.486-.45-.468-.288-.396-.216-.36-.144-.306-.09-.234-.036-.162-.018-.072 0 0ZM-.738-.198C-.81-.18-.864-.162-.918-.144-.972-.108-1.008-.072-1.026-.036-1.062 .054-1.062 .144-1.026 .216-1.008 .27-.972 .306-.936 .324-.882 .36-.81 .378-.738 .378V-.198" fill="#ffffff" fill-rule="evenodd"/><path transform="matrix(0,1,1,0,353.595,357.048)" d="M0 0C.018 .126 0 .288-.054 .414-.09 .468-.126 .54-.18 .576L-.36 .414-.324 .378C-.288 .324-.252 .252-.252 .18-.234 .09-.252 0-.288-.072-.324-.108-.36-.144-.414-.162-.432-.18-.45-.18-.486-.198-.504-.198-.504-.198-.522-.198-.54-.198-.54-.198-.558-.198V.63C-.684 .648-.792 .63-.9 .594-1.026 .558-1.116 .504-1.188 .414-1.314 .234-1.314 0-1.206-.198-1.116-.342-.972-.432-.792-.45-.63-.486-.45-.468-.288-.396-.216-.36-.144-.306-.09-.234-.054-.162-.018-.09 0 0ZM-.738-.198C-.81-.198-.864-.18-.918-.144-.972-.126-1.008-.09-1.026-.036-1.062 .036-1.062 .126-1.026 .216-1.008 .252-.972 .288-.936 .324-.882 .36-.81 .378-.738 .378V-.198" fill="#ffffff" fill-rule="evenodd"/><path transform="matrix(0,1,1,0,358.977,357.048)" d="M0 0C.018 .126 0 .288-.054 .414-.09 .468-.126 .54-.18 .576L-.36 .414-.324 .378C-.288 .324-.252 .252-.252 .18-.234 .09-.252 0-.288-.072-.324-.108-.36-.144-.414-.162-.432-.18-.45-.18-.486-.198-.504-.198-.504-.198-.522-.198-.54-.198-.54-.198-.558-.198V.63C-.684 .648-.792 .63-.9 .594-1.026 .558-1.116 .504-1.188 .414-1.314 .216-1.314 0-1.206-.198-1.116-.342-.972-.432-.792-.45-.63-.486-.45-.468-.288-.396-.216-.36-.144-.306-.09-.234-.054-.162-.018-.09 0 0ZM-.738-.198C-.81-.198-.864-.18-.918-.144-.972-.126-1.008-.09-1.026-.036-1.062 .036-1.062 .126-1.026 .216-1.008 .252-.972 .288-.936 .324-.882 .36-.81 .36-.738 .378V-.198" fill="#ffffff" fill-rule="evenodd"/><path transform="matrix(0,1,1,0,357.735,356.814)" d="M0 0C0 .054 0 .108-.018 .162-.036 .198-.072 .234-.09 .252-.126 .288-.162 .324-.18 .342L-.072 .558 .018 .504C.054 .486 .09 .45 .108 .414 .144 .378 .162 .342 .18 .306 .216 .234 .234 .144 .234 .054 .234-.054 .198-.18 .144-.27 .072-.36-.036-.45-.144-.486-.27-.522-.414-.522-.54-.504-.666-.486-.756-.45-.846-.378-.918-.306-.972-.234-1.008-.144-1.044-.036-1.062 .072-1.044 .198-1.008 .306-.954 .396-.864 .486-.846 .504-.828 .522-.792 .522-.774 .54-.738 .558-.72 .576L-.594 .342C-.648 .306-.702 .288-.738 .252-.756 .234-.774 .216-.792 .198-.81 .108-.81 .018-.756-.072-.72-.126-.666-.18-.594-.216-.486-.252-.36-.252-.252-.234-.144-.198-.036-.126 0 0" fill="#ffffff" fill-rule="evenodd"/><path transform="matrix(0,1,1,0,354.819,355.896)" d="M0 0C-.054 .054-.09 .126-.108 .198-.144 .27-.144 .342-.126 .414H.144C.144 .306 .162 .198 .216 .108 .234 .09 .252 .054 .288 .036 .324 .018 .36 .018 .396 0H1.116V-.27H-.108V0H0" fill="#ffffff" fill-rule="evenodd"/><path transform="matrix(0,1,1,0,356.097,355.788)" d="M0 0 .882-.252 0-.522V-.81L1.224-.432V-.09L0 .306" fill="#ffffff" fill-rule="evenodd"/><path transform="matrix(0,1,1,0,0,0)" d="M355.788 356.619H357.012V356.88899H355.788Z" fill="#ffffff"/><path transform="matrix(0,1,1,0,356.925,355.428)" d="M0 0C-.09 0-.162-.072-.162-.162-.162-.252-.09-.324 0-.324 .09-.324 .162-.252 .162-.162 .162-.072 .09 0 0 0" fill="#ffffff" fill-rule="evenodd"/><path transform="matrix(0,1,1,0,352.263,358.794)" d="M0 0V1.098H.126V.396H.936V1.098H1.08L1.134 .144 1.332 .18 1.368 .198 1.386 .216 1.368 .252 1.332 .306 1.224 1.602H1.458V-.018H1.674V.702L1.836 .828 2.016 .936 1.89 1.134 1.674 .972V1.602H1.854L1.89 1.584 1.908 1.53V1.188L2.16 1.296V1.53L2.142 1.692 2.07 1.818 1.962 1.872H1.674V2.52H1.458V1.872H1.206L1.188 2.034 1.386 2.232 1.26 2.43 .918 2.07H.126V1.368H0V2.52H-.198V1.368H-.288L-.324 1.404H-.36L-.378 1.386-.396 1.314V1.098H-.198V0H0ZM1.062 1.368H.936V1.764L1.026 1.872 1.062 1.368ZM.432 1.368H.30599V1.81798H.432ZM.738 1.368H.61199V1.81798H.738ZM.432 .648H.30599V1.0980101H.432ZM.738 .648H.61199V1.0980101H.738Z" fill="#ffffff" fill-rule="evenodd"/><path transform="matrix(0,1,1,0,358.995,360.108)" d="M0 0 .144 .306-.378 .558-.9 .774-.936 .828H-.972L-1.008 .792-1.134 .54-.81 .432-.504 .306-.234 .162" fill="#ffffff" fill-rule="evenodd"/><path transform="matrix(0,1,1,0,360.363,358.416)" d="M0 0-.036-.18H2.088L2.16-.198 2.196-.216 2.232-.27V-.54L2.484-.414V-.09L2.43 .018 2.304 .072 2.142 .09H.126L.072 .144H.036L.018 .09" fill="#ffffff" fill-rule="evenodd"/><path transform="matrix(0,1,1,0,361.317,360.234)" d="M0 0-.126 .324-.36 .144-.63 0-.918-.126-1.242-.216-1.206-.486-.864-.396-.558-.288-.27-.144" fill="#ffffff" fill-rule="evenodd"/><path transform="matrix(0,1,1,0,362.541,358.488)" d="M0 0H2.214L2.322 .054 2.376 .162 2.394 .288V1.872L2.376 1.998 2.358 2.088 2.304 2.178 2.25 2.25 2.16 2.322 2.052 2.358 1.926 2.394 1.782 2.412 1.71 2.142 1.89 2.106 2.034 2.052 2.106 1.944 2.142 1.818V.414L2.124 .342 2.106 .306 2.052 .288 1.98 .27H1.134V1.818H1.296V2.088H0V0ZM.864 .27H.25197V.88199999H.864ZM.864 1.134H.25197V1.81799H.864Z" fill="#ffffff" fill-rule="evenodd"/><path transform="matrix(0,1,1,0,365.853,358.884)" d="M0 0H.252V1.134H0V.738H-.378L-.414 .774H-.45L-.468 .756V.702L-.486 .468H0" fill="#ffffff" fill-rule="evenodd"/><path transform="matrix(0,1,1,0,365.853,360.468)" d="M0 0 .27 .054 .306 .072 .324 .09 .306 .126 .27 .144 .054 1.098H-.198L-.126 .846-1.026 1.044-1.062 1.08-1.08 1.098-1.116 1.08-1.152 1.026-1.224 .81-.63 .702-.072 .594" fill="#ffffff" fill-rule="evenodd"/><path transform="matrix(0,1,1,0,366.087,360.288)" d="M0 0-.072 .234-.612 .162-1.008 .072-.972-.18" fill="#ffffff" fill-rule="evenodd"/><path transform="matrix(0,1,1,0,367.023,359.622)" d="M0 0H1.296V.27H1.116V1.008H1.296V1.278H0V.666H-.486V1.35H-.738V.666H-1.116L-1.152 .702H-1.206L-1.224 .648-1.242 .378H0V0ZM.864 .27H.25200004V1.00801H.864Z" fill="#ffffff" fill-rule="evenodd"/><path transform="matrix(0,1,1,0,348.699,357.03)" d="M0 0 4.626 2.682V1.062L0-1.602-4.608 1.062V2.682" fill="#ffffff" fill-rule="evenodd"/></g></svg>