<?xml version='1.0' encoding='UTF-8'?>
<svg xmlns="http://www.w3.org/2000/svg" xmlns:xlink="http://www.w3.org/1999/xlink" xmlns:inkscape="http://www.inkscape.org/namespaces/inkscape" version="1.1" width="567.000" height="269.280" viewBox="0 0 567.000 269.280"><g transform="scale(10.0) translate(-111.171, -531.936)"><defs><clipPath id="clip_19"><path transform="matrix(0,1,1,0,0,0)" d="M0 74.451H595.008V767.55899H0Z"/></clipPath><clipPath id="clip_20"><path transform="matrix(0,1,1,0,0,0)" d="M0 842.013H595.224V.008972168H0Z"/></clipPath></defs><path transform="matrix(0,1,1,0,0,0)" d="M533.196 125.283H557.85598V154.047H533.196Z" fill="#ffff00"/><path transform="matrix(0,1,1,0,147.891,545.526)" d="M0 0C-1.08 0-2.142-.216-3.132-.63-4.14-1.044-5.04-1.656-5.814-2.412-6.57-3.168-7.182-4.086-7.596-5.076-8.01-6.084-8.208-7.146-8.208-8.226-8.208-9.306-8.01-10.368-7.596-11.376-7.182-12.366-6.57-13.284-5.814-14.04-5.04-14.796-4.14-15.408-3.132-15.822-2.142-16.236-1.08-16.452 0-16.452 1.08-16.452 2.16-16.236 3.15-15.822 4.14-15.408 5.058-14.796 5.814-14.04 6.588-13.284 7.182-12.366 7.596-11.376 8.01-10.368 8.226-9.306 8.226-8.226 8.226-7.146 8.01-6.084 7.596-5.076 7.182-4.086 6.588-3.186 5.814-2.412 5.058-1.656 4.14-1.044 3.15-.63 2.16-.216 1.08 0 0 0" fill="#ffffff" fill-rule="evenodd"/><path transform="matrix(0,1,1,0,149.943,545.526)" d="M0 0C-.594 0-1.224-.054-1.872-.18-2.502-.288-3.15-.468-3.78-.72-4.41-.972-5.022-1.296-5.616-1.674-6.21-2.07-6.75-2.502-7.254-3.006-7.758-3.51-8.208-4.068-8.604-4.662-8.982-5.238-9.306-5.868-9.54-6.498-9.792-7.128-9.972-7.776-10.098-8.406-10.224-9.054-10.278-9.666-10.278-10.278-10.278-10.89-10.224-11.502-10.098-12.15-9.972-12.78-9.792-13.428-9.54-14.058-9.306-14.688-8.982-15.318-8.604-15.894-8.208-16.488-7.758-17.046-7.254-17.55-6.75-18.054-6.21-18.486-5.616-18.882-5.022-19.26-4.41-19.584-3.78-19.836-3.15-20.088-2.502-20.268-1.872-20.376-1.224-20.502-.594-20.556 0-20.556 .612-20.556 1.242-20.502 1.872-20.376 2.52-20.268 3.15-20.088 3.78-19.836 4.428-19.584 5.04-19.26 5.634-18.882 6.21-18.486 6.768-18.054 7.272-17.55 7.776-17.046 8.226-16.488 8.604-15.894 8.982-15.318 9.306-14.688 9.558-14.058 9.81-13.428 9.99-12.78 10.116-12.15 10.224-11.502 10.278-10.89 10.278-10.278 10.278-9.666 10.224-9.054 10.116-8.406 9.99-7.776 9.81-7.128 9.558-6.498 9.306-5.868 8.982-5.238 8.604-4.662 8.226-4.068 7.776-3.51 7.272-3.006 6.768-2.502 6.21-2.07 5.634-1.674 5.04-1.296 4.428-.972 3.78-.72 3.15-.468 2.52-.288 1.872-.18 1.242-.054 .612 0 0 0ZM5.184-3.888-6.39-15.462C-6.678-15.102-6.93-14.706-7.182-14.274-7.416-13.86-7.614-13.41-7.776-12.924-8.1-11.952-8.262-10.908-8.208-9.846-8.154-8.784-7.884-7.776-7.47-6.84-7.254-6.372-7.002-5.94-6.714-5.544-6.444-5.148-6.138-4.788-5.814-4.464-5.49-4.14-5.13-3.834-4.716-3.546-4.32-3.276-3.888-3.024-3.438-2.808-2.502-2.376-1.476-2.124-.432-2.07 .63-2.016 1.674-2.16 2.646-2.502 3.132-2.664 3.582-2.862 4.014-3.096 4.428-3.33 4.824-3.6 5.184-3.888ZM6.39-5.094C6.678-5.454 6.948-5.85 7.182-6.282 7.416-6.696 7.632-7.164 7.794-7.632 8.118-8.604 8.262-9.648 8.208-10.71 8.154-11.772 7.902-12.78 7.47-13.716 7.254-14.184 7.002-14.616 6.732-15.012 6.444-15.408 6.138-15.768 5.814-16.092 5.49-16.416 5.13-16.722 4.734-17.01 4.338-17.28 3.906-17.532 3.438-17.748 2.52-18.18 1.494-18.432 .432-18.486-.63-18.54-1.674-18.396-2.628-18.054-3.114-17.892-3.582-17.694-3.996-17.46-4.428-17.226-4.806-16.956-5.166-16.668L6.39-5.094" fill="#ff0000" fill-rule="evenodd"/><path transform="matrix(0,1,1,0,136.893,543.996)" d="M0 0V-3.042L-1.044-4.41-2.07-3.078V-2.034" fill-rule="evenodd"/><path transform="matrix(0,1,1,0,140.871,547.92)" d="M0 0H4.464V2.052H2.088" fill-rule="evenodd"/><path transform="matrix(0,1,1,0,137.289,541.926)" d="M0 0V3.582C0 3.816 .054 4.068 .144 4.338 .252 4.59 .414 4.824 .612 5.022 .81 5.238 1.044 5.382 1.314 5.49 1.566 5.58 1.818 5.634 2.07 5.634H5.616L3.6 3.582H2.754C2.574 3.582 2.412 3.51 2.268 3.366 2.124 3.24 2.07 3.06 2.07 2.898V2.07L0 0" fill-rule="evenodd"/></g></svg>