<?xml version='1.0' encoding='UTF-8'?>
<svg xmlns="http://www.w3.org/2000/svg" xmlns:xlink="http://www.w3.org/1999/xlink" xmlns:inkscape="http://www.inkscape.org/namespaces/inkscape" version="1.1" width="567.000" height="269.280" viewBox="0 0 567.000 269.280"><g transform="scale(10.0) translate(-220.305, -74.160)"><defs><clipPath id="clip_19"><path transform="matrix(0,1,1,0,0,0)" d="M0 74.451H595.008V767.55899H0Z"/></clipPath><clipPath id="clip_20"><path transform="matrix(0,1,1,0,0,0)" d="M0 842.013H595.224V.008972168H0Z"/></clipPath></defs><path transform="matrix(0,1,1,0,0,0)" d="M75.438 234.399H100.09801V263.181H75.438Z" fill="#ffff00"/><path transform="matrix(0,1,1,0,238.935,87.768)" d="M0 0C1.296 0 2.574 .252 3.762 .738 4.968 1.242 6.048 1.962 6.966 2.88 7.884 3.798 8.604 4.878 9.108 6.084 9.612 7.272 9.864 8.568 9.864 9.864 9.864 11.16 9.612 12.438 9.108 13.626 8.604 14.832 7.884 15.912 6.966 16.83 6.048 17.748 4.968 18.468 3.762 18.972 2.574 19.458 1.296 19.728 0 19.728-1.296 19.728-2.592 19.458-3.78 18.972-4.986 18.468-6.066 17.748-6.984 16.83-7.902 15.912-8.622 14.832-9.126 13.626-9.612 12.438-9.864 11.16-9.864 9.864-9.864 8.568-9.612 7.272-9.126 6.084-8.622 4.878-7.902 3.798-6.984 2.88-6.066 1.962-4.986 1.242-3.78 .738-2.592 .252-1.296 0 0 0" fill="#0000ff" fill-rule="evenodd"/><path transform="matrix(0,1,1,0,257.349,86.4)" d="M0 0V-11.646L-2.754-8.892V-13.014L1.368-17.118 5.472-13.014V-8.892L2.736-11.646V0" fill="#ffffff" fill-rule="evenodd"/><path transform="matrix(0,1,1,0,238.521,87.768)" d="M0 0C.594 0 1.224 .054 1.872 .162 2.502 .288 3.15 .468 3.78 .72 4.41 .972 5.022 1.278 5.616 1.674 6.21 2.052 6.75 2.502 7.254 3.006 7.758 3.51 8.208 4.068 8.586 4.644 8.982 5.238 9.288 5.85 9.54 6.498 9.792 7.128 9.972 7.758 10.098 8.406 10.224 9.036 10.278 9.666 10.278 10.278 10.278 10.872 10.224 11.502 10.098 12.15 9.972 12.78 9.792 13.428 9.54 14.058 9.288 14.688 8.982 15.3 8.586 15.894 8.208 16.488 7.758 17.028 7.254 17.532 6.75 18.036 6.21 18.486 5.616 18.864 5.022 19.26 4.41 19.566 3.78 19.818 3.15 20.07 2.502 20.25 1.872 20.376 1.224 20.484 .594 20.538 0 20.538-.612 20.538-1.242 20.484-1.872 20.376-2.52 20.25-3.15 20.07-3.78 19.818-4.428 19.566-5.04 19.26-5.634 18.864-6.21 18.486-6.768 18.036-7.272 17.532-7.776 17.028-8.226 16.488-8.604 15.894-8.982 15.3-9.306 14.688-9.558 14.058-9.81 13.428-9.99 12.78-10.116 12.15-10.224 11.502-10.278 10.872-10.278 10.278-10.278 9.666-10.224 9.036-10.116 8.406-9.99 7.758-9.81 7.128-9.558 6.498-9.306 5.85-9 5.238-8.604 4.644-8.226 4.068-7.776 3.51-7.272 3.006-6.768 2.502-6.21 2.052-5.634 1.674-5.04 1.278-4.428 .972-3.78 .72-3.15 .468-2.52 .288-1.872 .162-1.242 .054-.612 0 0 0ZM0 .414C-.594 .414-1.188 .45-1.8 .576-2.412 .684-3.024 .864-3.636 1.098-4.248 1.332-4.842 1.638-5.4 2.016-5.976 2.394-6.498 2.808-6.984 3.294-7.47 3.78-7.884 4.302-8.262 4.878-8.64 5.436-8.928 6.03-9.18 6.642-9.414 7.254-9.594 7.866-9.702 8.478-9.81 9.09-9.864 9.684-9.864 10.278-9.864 10.854-9.81 11.448-9.702 12.06-9.594 12.672-9.414 13.302-9.18 13.896-8.928 14.508-8.64 15.102-8.262 15.678-7.884 16.236-7.47 16.758-6.984 17.244-6.498 17.73-5.976 18.162-5.4 18.522-4.842 18.9-4.248 19.206-3.636 19.44-3.024 19.692-2.412 19.854-1.8 19.962-1.188 20.088-.594 20.142 0 20.142 .576 20.142 1.17 20.088 1.782 19.962 2.394 19.854 3.024 19.692 3.618 19.44 4.23 19.206 4.824 18.9 5.4 18.522 5.958 18.162 6.48 17.73 6.966 17.244 7.452 16.758 7.884 16.236 8.244 15.678 8.622 15.102 8.928 14.508 9.162 13.896 9.414 13.302 9.576 12.672 9.702 12.06 9.81 11.448 9.864 10.854 9.864 10.278 9.864 9.684 9.81 9.09 9.702 8.478 9.576 7.866 9.414 7.254 9.162 6.642 8.928 6.03 8.622 5.436 8.244 4.878 7.884 4.302 7.452 3.78 6.966 3.294 6.48 2.808 5.958 2.394 5.4 2.016 4.824 1.638 4.23 1.332 3.618 1.098 3.024 .864 2.394 .684 1.782 .576 1.17 .45 .576 .414 0 .414" fill="#ffffff" fill-rule="evenodd"/></g></svg>