<?xml version='1.0' encoding='UTF-8'?>
<svg xmlns="http://www.w3.org/2000/svg" xmlns:xlink="http://www.w3.org/1999/xlink" xmlns:inkscape="http://www.inkscape.org/namespaces/inkscape" version="1.1" width="567.000" height="269.280" viewBox="0 0 567.000 269.280"><g transform="scale(10.0) translate(-329.439, -47.232)"><defs><clipPath id="clip_19"><path transform="matrix(0,1,1,0,0,0)" d="M0 74.451H595.008V767.55899H0Z"/></clipPath><clipPath id="clip_20"><path transform="matrix(0,1,1,0,0,0)" d="M0 842.013H595.224V.008972168H0Z"/></clipPath></defs><path transform="matrix(0,1,1,0,0,0)" d="M48.51 343.551H73.152V372.297H48.51Z" fill="#ffff00"/><path transform="matrix(0,1,1,0,347.349,56.448)" d="M0 0V-1.206H-2.88V0C-2.88 .324-2.754 .648-2.484 .864-2.214 1.098-1.854 1.188-1.44 1.188-1.044 1.188-.666 1.098-.396 .864-.126 .648 0 .324 0 0ZM-2.268-.594H-.63V-.126-.09C-.63-.09-.63-.126-.63-.09-.63-.054-.63 .018-.63 .054-.63 .09-.63 .108-.63 .108-.666 .234-.756 .36-.9 .45-1.044 .54-1.242 .576-1.44 .576-1.638 .576-1.818 .54-1.962 .468-2.106 .378-2.214 .27-2.25 .144V.09C-2.25 .09-2.25 .144-2.25 .09-2.25 .054-2.268-.018-2.268-.072V-.108C-2.268-.108-2.268-.108-2.268-.108V-.594" fill-rule="evenodd"/><path transform="matrix(0,1,1,0,0,0)" d="M53.568 349.257H56.448V349.83299H53.568Z"/><path transform="matrix(0,1,1,0,352.083,56.448)" d="M0 0-2.88 .792V.144L-.918-.396-2.88-.936V-1.584L0-.792V-.396" fill-rule="evenodd"/><path transform="matrix(0,1,1,0,354.135,55.296)" d="M0 0V1.17H-.576V0H-1.152V1.278H-1.728V-.612H1.152V1.44H.576V0" fill-rule="evenodd"/><path transform="matrix(0,1,1,0,356.907,55.368)" d="M0 0H1.08V-.63H-1.8V.846C-1.782 1.08-1.674 1.278-1.494 1.422-1.332 1.566-1.116 1.656-.9 1.638-.522 1.656-.162 1.404-.036 1.026L1.08 1.71V1.026L0 .378V0ZM-.576 0V.72C-.576 .738-.576 .756-.576 .774V.792C-.576 .792-.576 .792-.576 .792-.612 .918-.756 .99-.9 .99-1.062 .99-1.206 .882-1.224 .756V0H-.576" fill-rule="evenodd"/><path transform="matrix(0,1,1,0,359.985,54.378)" d="M0 0C.072-.018 .144 .018 .198 .126 .252 .216 .288 .36 .306 .558 .396 1.242 .72 1.566 1.242 1.566 1.854 1.548 2.16 1.152 2.16 .414 2.16 .126 2.124-.144 2.016-.378 1.926-.594 1.782-.792 1.584-.936L1.206-.432C1.458-.144 1.584 .126 1.584 .414 1.584 .738 1.476 .882 1.242 .882 1.062 .864 .936 .648 .9 .234 .828-.324 .54-.63 .036-.702-.576-.666-.882-.288-.882 .45-.882 .702-.846 .918-.774 1.098-.702 1.296-.576 1.458-.414 1.602L-.018 1.17C-.216 .918-.306 .666-.306 .45-.306 .162-.198 .018 0 0" fill-rule="evenodd"/><path transform="matrix(0,1,1,0,0,0)" d="M53.568 362.361H56.448V362.93699H53.568Z"/><path transform="matrix(0,1,1,0,365.043,53.46)" d="M0 0C0 .396 .126 .756 .414 1.008 .702 1.26 1.098 1.386 1.548 1.386 1.98 1.386 2.376 1.26 2.664 1.008 2.952 .756 3.078 .396 3.078 0 3.078-.396 2.952-.756 2.664-1.008 2.376-1.26 1.98-1.368 1.548-1.368 1.098-1.368 .702-1.26 .414-1.008 .126-.756 0-.396 0 0ZM1.548 .756C1.278 .756 1.044 .702 .864 .558 .702 .414 .612 .216 .612 0 .612-.468 .972-.756 1.548-.756 2.106-.756 2.466-.468 2.466 0 2.466 .216 2.394 .414 2.214 .558 2.052 .702 1.8 .756 1.548 .756" fill-rule="evenodd"/><path transform="matrix(0,1,1,0,369.093,55.404)" d="M0 0H-1.836V.612H1.044V-.09L-.81-1.404H1.044V-2.016H-1.836V-1.314" fill-rule="evenodd"/><path transform="matrix(0,1,1,0,353.217,60.552)" d="M0 0-2.88-.9V-1.764L0-2.664V-2.052L-.486-1.908V-.774L0-.612V0ZM-1.026-.936V-1.728L-2.286-1.332-1.026-.936" fill-rule="evenodd"/><path transform="matrix(0,1,1,0,354.369,58.824)" d="M0 0H-1.152V-.576H1.728V0H.576V1.206H1.728V1.782H-1.152V1.206H0V.612" fill-rule="evenodd"/><path transform="matrix(0,1,1,0,357.699,59.4)" d="M0 0V1.17H-.576V0H-1.152V1.26H-1.728V-.63H1.152V1.44H.576V0" fill-rule="evenodd"/><path transform="matrix(0,1,1,0,362.217,60.552)" d="M0 0-2.88-.9V-1.764L0-2.682V-2.052L-.486-1.908V-.774L0-.612V0ZM-1.026-.936V-1.728L-2.286-1.332-1.026-.936" fill-rule="evenodd"/><path transform="matrix(0,1,1,0,363.963,60.552)" d="M0 0V-1.206H-2.88V0C-2.88 .342-2.736 .648-2.484 .864-2.232 1.08-1.872 1.206-1.44 1.206-1.044 1.206-.666 1.098-.396 .864-.126 .648 0 .324 0 0ZM-2.268-.594H-.63V-.108-.072C-.63-.072-.63-.108-.63-.072-.63-.036-.63 .036-.63 .072V.108C-.63 .108-.63 .108-.63 .108-.666 .252-.756 .378-.9 .45-1.044 .54-1.242 .576-1.44 .576-1.638 .576-1.818 .54-1.962 .468-2.106 .396-2.196 .27-2.25 .144V.09C-2.25 .09-2.25 .144-2.25 .09-2.25 .054-2.25-.018-2.268-.054V-.108C-2.268-.108-2.268-.108-2.268-.108V-.594" fill-rule="evenodd"/><path transform="matrix(0,1,1,0,348.357,63.558)" d="M0 0V-1.026H.414V3.15H0V2.034L-.468 2.25-.522 2.34-.576 2.358-.612 2.322-.648 2.25-.72 1.854-.342 1.71-.018 1.494V.522L-.378 .378-.72 .126-.63-.288-.306-.108" fill-rule="evenodd"/><path transform="matrix(0,1,1,0,347.601,64.296)" d="M0 0H2.736V.414H1.872V1.35H2.088L2.196 1.332 2.25 1.278 2.286 1.206 2.304 1.098V.774L2.7 .954 2.682 1.278 2.628 1.512 2.502 1.674 2.304 1.746 2.016 1.764H0V0ZM1.53 .414H1.134V1.332H1.53ZM.774 .414H.35999999V1.34997H.774Z" fill-rule="evenodd"/><path transform="matrix(0,1,1,0,349.869,64.44)" d="M0 0H1.89V.396H.234L.144 .468H.09L.054 .432 .036 .342" fill-rule="evenodd"/><path transform="matrix(0,1,1,0,350.805,64.188)" d="M0 0H2.142L2.268-.018 2.34-.054 2.394-.144 2.412-.252V-.684L2.844-.522V-.126L2.772 .126 2.646 .306 2.466 .414 2.214 .432H.27L.18 .504 .108 .522 .072 .486 .054 .414" fill-rule="evenodd"/><path transform="matrix(0,1,1,0,352.965,63.054)" d="M0 0H.396V1.926L.936 1.728V.252H3.978V.702H3.762V3.492H3.978V3.924H.936V2.178L.396 2.358V4.194H0V0ZM3.348 1.674H2.9519902V2.44802H3.348ZM1.746 1.674H1.3139901V2.44802H1.746ZM2.592 1.674H2.124V2.44802H2.592ZM3.348 .702H1.3140001V1.27802H3.348ZM3.348 2.88H1.3140001V3.492H3.348Z" fill-rule="evenodd"/><path transform="matrix(0,1,1,0,358.635,63.234)" d="M0 0H.378V1.35H1.224V.054H3.186L3.366 .072 3.492 .144 3.582 .27 3.6 .468V1.332L3.528 1.62 3.348 1.818 3.06 1.944 2.646 1.98 2.52 1.584 2.826 1.566 3.042 1.494 3.168 1.386 3.204 1.224V.612L3.15 .522 2.988 .486H1.62V1.35H1.836V1.764H0" fill-rule="evenodd"/><path transform="matrix(0,1,1,0,360.435,64.638)" d="M0 0 .252 .342-.198 .648-.666 .846V1.692L-.126 1.674 .36 1.62 .756 1.53 1.08 1.386 .81 1.242 .522 1.116 .216 1.044-.108 1.008-.072 .63 .342 .684 .738 .792 1.116 .936 1.476 1.134 1.656 .918 1.818 .684 1.926 .414 1.998 .126 2.43 .45 2.142 1.008 1.818 1.422 2.142 1.764 2.448 2.16 2.088 2.484 1.8 2.052 1.476 1.71 1.026 1.908 .504 2.034-.054 2.124-.666 2.142V2.412H-1.098V.936L-1.566 1.062-1.62 1.134-1.674 1.152-1.728 1.098-1.782 .99-1.836 .72-1.278 .594-.792 .432-.36 .234" fill-rule="evenodd"/><path transform="matrix(0,1,1,0,364.773,62.82)" d="M0 0 .288-.306 .468-.018 .684 .252 .378 .522 .162 .27" fill-rule="evenodd"/><path transform="matrix(0,1,1,0,364.521,63.702)" d="M0 0 .288-.27 .702 .324 .432 .612" fill-rule="evenodd"/><path transform="matrix(0,1,1,0,364.305,64.818)" d="M0 0H.396V.558H1.296L1.782-.09 2.178 .234 1.638 .702 1.872 .846 2.034 1.134 2.16 1.584 2.214 2.178V4.158L1.818 4.266V2.34L1.8 1.764 1.692 1.35 1.494 1.08 1.224 .972H0" fill-rule="evenodd"/><path transform="matrix(0,1,1,0,366.285,62.838)" d="M0 0 .198-.306 .612 .036V-.702H.99V.414L1.296 .27V-.414H3.582V0H3.438V1.386H3.582V1.818H1.296V.72L.99 .882V2.088H.612V1.296L.036 1.728-.072 1.296 .612 .828V.324L.54 .414 0 0ZM3.114 0H2.8800102V1.386H3.114ZM2.556 0H2.28601V1.386H2.556ZM1.944 0H1.674V1.386H1.944Z" fill-rule="evenodd"/></g></svg>