<?xml version='1.0' encoding='UTF-8'?>
<svg xmlns="http://www.w3.org/2000/svg" xmlns:xlink="http://www.w3.org/1999/xlink" xmlns:inkscape="http://www.inkscape.org/namespaces/inkscape" version="1.1" width="567.000" height="269.280" viewBox="0 0 567.000 269.280"><g transform="scale(10.0) translate(-329.439, -74.160)"><defs><clipPath id="clip_19"><path transform="matrix(0,1,1,0,0,0)" d="M0 74.451H595.008V767.55899H0Z"/></clipPath><clipPath id="clip_20"><path transform="matrix(0,1,1,0,0,0)" d="M0 842.013H595.224V.008972168H0Z"/></clipPath></defs><path transform="matrix(0,1,1,0,0,0)" d="M75.438 343.551H100.08V372.297H75.438Z" fill="#ffff00"/><path transform="matrix(0,1,1,0,347.187,82.908)" d="M0 0V.612C0 .612 0 .648 0 .666 0 .684 0 .684-.018 .684-.036 .81-.108 .936-.234 1.026-.36 1.116-.522 1.152-.684 1.152-.828 1.152-.99 1.116-1.116 1.026-1.242 .954-1.314 .828-1.35 .72-1.35 .702-1.35 .702-1.35 .684-1.35 .666-1.35 .63-1.35 .63L-1.368 .612V-.468H.792V0H0ZM-.378 0H-.99V.486 .504C-.99 .504-.99 .504-.99 .504-.954 .612-.81 .684-.684 .684-.558 .684-.414 .612-.378 .504V.486C-.378 .486-.378 .504-.378 .486-.378 .486-.378 .468-.378 .45V0" fill-rule="evenodd"/><path transform="matrix(0,1,1,0,349.257,82.836)" d="M0 0V.882H-.432V0H-.864V.954H-1.296V-.468H.864V1.08H.432V0" fill-rule="evenodd"/><path transform="matrix(0,1,1,0,351.759,83.7)" d="M0 0V-.9H-2.16V0C-2.16 .27-2.052 .504-1.854 .666-1.656 .828-1.386 .9-1.08 .9-.756 .9-.486 .828-.288 .666-.09 .504 0 .27 0 0ZM-1.692-.432H-.45V-.072-.054C-.45-.054-.45-.072-.45-.054-.45-.018-.468 .036-.468 .054V.09C-.468 .09-.468 .09-.468 .09-.486 .198-.558 .288-.666 .342-.774 .414-.918 .45-1.08 .45-1.224 .45-1.35 .414-1.458 .36-1.566 .306-1.638 .216-1.674 .108V.09C-1.674 .09-1.674 .108-1.674 .09-1.674 .054-1.692-.018-1.692-.036V-.072C-1.692-.072-1.692-.072-1.692-.072V-.432" fill-rule="evenodd"/><path transform="matrix(0,1,1,0,353.649,82.836)" d="M0 0V.882H-.432V0H-.864V.954H-1.296V-.468H.864V1.08H.432V0" fill-rule="evenodd"/><path transform="matrix(0,1,1,0,355.737,82.152)" d="M0 0C.072 0 .108 .036 .162 .108 .198 .18 .216 .288 .234 .432 .306 .936 .54 1.188 .936 1.188 1.404 1.17 1.638 .882 1.638 .324 1.638 .108 1.602-.09 1.53-.27 1.458-.432 1.35-.576 1.206-.684L.9-.306C1.098-.108 1.206 .108 1.206 .324 1.188 .558 1.116 .684 .936 .684 .792 .666 .72 .504 .684 .198 .63-.234 .414-.468 .036-.504-.432-.486-.666-.198-.666 .36-.666 .54-.63 .702-.576 .846-.522 .99-.432 1.116-.306 1.224L-.018 .9C-.162 .702-.234 .522-.234 .36-.216 .144-.144 .018 0 0" fill-rule="evenodd"/><path transform="matrix(0,1,1,0,358.329,81.99)" d="M0 0V.612H-.45V-1.044H0V-.45H1.71V0" fill-rule="evenodd"/><path transform="matrix(0,1,1,0,359.787,82.908)" d="M0 0H.792V-.468H-1.368V.63C-1.332 .81-1.26 .954-1.134 1.08-1.008 1.188-.846 1.242-.684 1.224-.54 1.242-.414 1.206-.288 1.116-.162 1.026-.072 .9-.036 .774L.792 1.278V.774L0 .288V0ZM-.432 0V.54C-.432 .558-.432 .576-.432 .576V.594C-.432 .594-.432 .594-.432 .594-.468 .684-.576 .738-.684 .738-.81 .738-.918 .666-.918 .558H-.936V0H-.432" fill-rule="evenodd"/><path transform="matrix(0,1,1,0,0,0)" d="M81.54 361.659H83.700008V362.091H81.54Z"/><path transform="matrix(0,1,1,0,364.521,83.7)" d="M0 0-2.16-.684V-1.332L0-2.016V-1.548L-.36-1.44V-.576L0-.468V0ZM-.756-.72V-1.314L-1.71-1.008-.756-.72" fill-rule="evenodd"/><path transform="matrix(0,1,1,0,366.411,82.944)" d="M0 0H-1.404V.468H.756V-.054L-.63-1.044H.756V-1.512H-1.404V-.99" fill-rule="evenodd"/><path transform="matrix(0,1,1,0,367.995,82.152)" d="M0 0C.072-.018 .108 .018 .162 .09 .198 .162 .216 .27 .234 .414 .306 .918 .54 1.17 .936 1.17 1.404 1.152 1.638 .864 1.638 .306 1.638 .09 1.602-.108 1.53-.288 1.458-.45 1.35-.594 1.206-.702L.9-.324C1.098-.108 1.206 .09 1.206 .306 1.188 .54 1.116 .666 .936 .666 .792 .648 .72 .486 .684 .18 .63-.252 .414-.486 .036-.522-.432-.504-.666-.216-.666 .342-.666 .522-.63 .684-.576 .828-.522 .972-.432 1.098-.306 1.206L-.018 .882C-.162 .684-.234 .504-.234 .342-.216 .126-.144 0 0 0" fill-rule="evenodd"/><path transform="matrix(0,1,1,0,356.385,88.344)" d="M0 0V1.53L-1.026 .504V4.608H-2.052V.504L-3.096 1.53V0L-1.548-1.548" fill-rule="evenodd"/><path transform="matrix(0,1,1,0,354.225,90.81)" d="M0 0 .18 .342-.108 .72-.45 1.116-.486 1.188-.54 1.206H-.558L-.576 1.152-.684 .864-.288 .45" fill-rule="evenodd"/><path transform="matrix(0,1,1,0,354.171,91.872)" d="M0 0 .18 .306-.126 .63H1.386V.972H-.486L-.72 1.134-.9 1.296-.954 1.35-.99 1.368-1.026 1.35-1.044 1.296-1.134 1.026-.792 .792-.504 .54-.234 .288" fill-rule="evenodd"/><path transform="matrix(0,1,1,0,0,0)" d="M90.288 355.755H90.61199V357.159H90.288Z"/><path transform="matrix(0,1,1,0,356.511,91.548)" d="M0 0H1.188L1.26-.036 1.314-.09 1.332-.144V-.558L1.692-.414V-.234C1.69 .133 1.571 .405 1.152 .36H0V.9H-.306V-1.044H0" fill-rule="evenodd"/><path transform="matrix(0,1,1,0,360.183,90.09)" d="M0 0V-.288H.684C1.542-.344 2.197-.732 2.628-1.476L2.772-1.746 3.06-1.458 2.88-1.188C2.682-.83 2.047-.254 1.638-.162L1.422-.09 1.926 .162 2.376 .432 2.772 .738 3.096 1.062 2.844 1.458 2.682 1.224 2.484 1.008 2.286 .81 2.052 .63 1.782 .45 1.512 .306 1.206 .18 .864 .072 .522 .036 .18 .072 .108 .144 .054 .162 .018 .108" fill-rule="evenodd"/><path transform="matrix(0,1,1,0,358.455,85.248)" stroke-width=".144" stroke-linecap="round" stroke-linejoin="round" fill="none" stroke="#000000" d="M0 0V-.54"/><path transform="matrix(0,1,1,0,354.83699,86.292)" stroke-width=".144" stroke-linecap="round" stroke-linejoin="round" fill="none" stroke="#000000" d="M0 0H.27"/><path transform="matrix(0,1,1,0,358.94099,86.292)" stroke-width=".144" stroke-linecap="round" stroke-linejoin="round" fill="none" stroke="#000000" d="M0 0V-4.104"/><path transform="matrix(0,1,1,0,358.671,86.004)" stroke-width=".144" stroke-linecap="round" stroke-linejoin="round" fill="none" stroke="#000000" d="M0 0 .288 .27"/><path transform="matrix(0,1,1,0,359.46299,85.248)" stroke-width=".144" stroke-linecap="round" stroke-linejoin="round" fill="none" stroke="#000000" d="M0 0V-.54"/><path transform="matrix(0,1,1,0,359.73298,85.536)" stroke-width=".144" stroke-linecap="round" stroke-linejoin="round" fill="none" stroke="#000000" d="M0 0-.288-.27"/><path transform="matrix(0,1,1,0,357.91499,85.248)" stroke-width=".144" stroke-linecap="round" stroke-linejoin="round" fill="none" stroke="#000000" d="M0 0V.018"/><path transform="matrix(0,1,1,0,357.91499,88.344)" stroke-width=".144" stroke-linecap="round" stroke-linejoin="round" fill="none" stroke="#000000" d="M0 0V.54"/><path transform="matrix(0,1,1,0,358.18498,88.056)" stroke-width=".144" stroke-linecap="round" stroke-linejoin="round" fill="none" stroke="#000000" d="M0 0 .288-.27"/><path transform="matrix(0,1,1,0,358.94099,87.318)" stroke-width=".144" stroke-linecap="round" stroke-linejoin="round" fill="none" stroke="#000000" d="M0 0 .27-.27"/><path transform="matrix(0,1,1,0,354.83699,87.318)" stroke-width=".144" stroke-linecap="round" stroke-linejoin="round" fill="none" stroke="#000000" d="M0 0V4.104"/><path transform="matrix(0,1,1,0,354.83699,87.03)" stroke-width=".144" stroke-linecap="round" stroke-linejoin="round" fill="none" stroke="#000000" d="M0 0H.288"/><path transform="matrix(0,1,1,0,359.46299,88.344)" stroke-width=".144" stroke-linecap="round" stroke-linejoin="round" fill="none" stroke="#000000" d="M0 0-.288 .27"/><path transform="matrix(0,1,1,0,358.92298,88.344)" stroke-width=".144" stroke-linecap="round" stroke-linejoin="round" fill="none" stroke="#000000" d="M0 0V.54"/><path transform="matrix(0,1,1,0,360.99299,86.796009)" stroke-width=".144" stroke-linecap="round" stroke-linejoin="round" fill="none" stroke="#000000" d="M0 0-.792-.774"/><path transform="matrix(0,1,1,0,360.219,87.588008)" stroke-width=".144" stroke-linecap="round" stroke-linejoin="round" fill="none" stroke="#000000" d="M0 0-.792 .774"/><path transform="matrix(0,1,1,0,357.915,85.24801)" stroke-width=".144" stroke-linecap="round" stroke-linejoin="round" fill="none" stroke="#000000" d="M0 0 .288 .27"/></g></svg>